<svg width="167" height="167" viewBox="0 0 167 167" fill="none" xmlns="http://www.w3.org/2000/svg">
<mask id="mask0_152:11221" style="mask-type:alpha" maskUnits="userSpaceOnUse" x="0" y="0" width="167" height="167">
<rect x="1" y="1" width="165" height="165" rx="8" fill="#5988D6" stroke="#EDE6FC" stroke-opacity="0.3"/>
</mask>
<g mask="url(#mask0_152:11221)">
<rect x="1" y="1" width="165" height="165" rx="8" fill="#D9917A" stroke="#EDE6FC" stroke-opacity="0.3"/>
<mask id="mask1_152:11221" style="mask-type:alpha" maskUnits="userSpaceOnUse" x="49" y="31" width="57" height="57">
<circle cx="77.5" cy="59.5" r="28.5" fill="#C4C4C4"/>
</mask>
<g mask="url(#mask1_152:11221)">
</g>
<g clip-path="url(#clip0_152:11221)">
<path d="M124.67 72.0002C123.794 75.4291 103.182 73.1579 78.6341 66.9211C54.0861 60.6843 34.8959 52.8492 35.7715 49.4163C36.647 45.9835 57.259 48.2667 81.795 54.4915C106.331 60.7163 125.549 68.5674 124.67 72.0002Z" fill="#C6C6C6"/>
<path d="M120.914 71.0429C120.288 73.4943 101.564 70.8546 79.088 65.1466C56.6124 59.4385 38.9002 52.8212 39.5267 50.3697C40.1533 47.9183 58.9017 50.558 81.3532 56.2781C103.805 61.9981 121.557 68.5914 120.914 71.0429Z" fill="#D0D0D0"/>
<path d="M44.2942 43.7444C44.2942 43.7444 41.2498 32.1961 38.7355 28.6671C40.2336 29.0436 44.7922 33.9345 46.5152 43.1155L44.2942 43.7444Z" fill="#579932"/>
<g style="mix-blend-mode:multiply">
<path d="M38.7355 28.6671C38.8279 28.7993 38.9203 28.9394 39.0167 29.0877C40.9405 30.5778 42.5993 34.6755 43.768 37.6558C44.6316 39.8629 44.7922 41.4371 44.6235 42.2102C44.5375 42.5958 44.3868 42.9642 44.1777 43.2997C44.254 43.5841 44.2942 43.7444 44.2942 43.7444L46.5152 43.1155C44.7922 33.9345 40.2336 29.0396 38.7355 28.6671Z" fill="#D2D795"/>
</g>
<path d="M45.9088 43.2997C45.9088 43.2997 41.1534 32.2561 43.1696 22.4383C43.1696 22.4383 44.985 33.2776 48.6399 43.0554L45.9088 43.2997Z" fill="#9EC530"/>
<g style="mix-blend-mode:multiply">
<path d="M45.6477 39.238C43.0331 32.8289 43.6395 25.09 43.6395 25.0259C43.3142 23.4237 43.1535 22.4383 43.1535 22.4383C41.1454 32.2561 45.8927 43.2997 45.8927 43.2997L47.3266 43.1715C47.2543 42.6348 46.3265 40.8683 45.6477 39.238Z" fill="#D2D795"/>
</g>
<path d="M48.2503 43.6602C48.2503 43.6602 49.1339 30.3975 50.8047 26.3999C49.4271 27.1009 46.5433 30.4256 45.5513 43.4199L48.2503 43.6602Z" fill="#9EC530"/>
<g style="mix-blend-mode:multiply">
<path d="M47.0815 42.4545C47.3346 40.5198 47.5996 38.5851 47.8446 36.6503C48.0888 34.7508 48.4919 32.875 49.0496 31.0424C49.2664 30.3254 49.4873 29.6004 49.7564 28.8994C49.8897 28.5058 50.0864 28.1364 50.3388 27.8059C50.4638 27.3277 50.6194 26.8581 50.8047 26.3999C49.4271 27.1009 46.5433 30.4256 45.5513 43.4199L46.945 43.5441C46.9851 43.1836 47.0333 42.8191 47.0815 42.4545Z" fill="#D2D795"/>
</g>
<path d="M45.9489 43.6041C45.9489 43.6041 45.6838 31.9878 44.6717 24.7776C44.6717 24.7776 48.5636 27.2931 47.925 43.7323L45.9489 43.6041Z" fill="#579932"/>
<g style="mix-blend-mode:multiply">
<path d="M44.6717 24.7655L44.7561 25.3984C45.0769 26.0024 45.3626 26.6243 45.6116 27.2611C45.9834 28.1493 46.2842 29.0654 46.5112 30.0009C46.9788 31.8648 47.2971 33.7628 47.4631 35.677C47.6559 37.5917 47.9049 39.5464 47.6679 41.4651C47.5698 42.214 47.4099 42.9535 47.19 43.6762L47.925 43.7203C48.5636 27.2811 44.6717 24.7655 44.6717 24.7655Z" fill="#D2D795"/>
</g>
<path d="M56.9257 49.5886C57.4277 55.0363 53.6001 59.8391 48.3748 60.3197C43.1495 60.8004 38.5026 56.7747 38.0166 51.3311C37.5306 45.8874 41.3422 41.0806 46.5715 40.5999C51.8008 40.1192 56.4236 44.1449 56.9257 49.5886Z" fill="#FFE4B1"/>
<path d="M45.3224 40.9604C45.3224 40.9604 36.4623 43.8605 39.7838 55.9296" stroke="#F6D296" stroke-width="0.7" stroke-linecap="round" stroke-linejoin="round"/>
<path d="M47.8487 40.7281C47.8487 40.7281 57.0381 42.062 55.9898 54.5556" stroke="#F6D296" stroke-width="0.7" stroke-linecap="round" stroke-linejoin="round"/>
<path d="M45.9329 60.0634C45.9329 60.0634 41.0851 52.6689 46.2381 40.8362C46.2381 40.8362 37.1772 46.7246 42.7961 58.8337" stroke="#F6D296" stroke-width="0.7" stroke-linecap="round" stroke-linejoin="round"/>
<path d="M50.7766 59.6148C50.7766 59.6148 54.1825 51.4632 46.953 40.7882C46.953 40.7882 57.0341 44.8379 53.7286 57.7681" stroke="#F6D296" stroke-width="0.7" stroke-linecap="round" stroke-linejoin="round"/>
<path d="M48.3708 60.1435C48.3708 60.1435 48.2182 46.5043 46.5714 40.8483" stroke="#F6D296" stroke-width="0.7" stroke-linecap="round" stroke-linejoin="round"/>
<g style="mix-blend-mode:color-burn">
<path d="M46.5514 40.5999H46.443C46.9717 40.9 47.473 41.2458 47.9411 41.6334C49.461 42.882 50.7344 44.402 51.6964 46.1157C53.4114 49.2081 54.1303 53.5262 51.8008 56.5304C50.9044 57.7111 49.6281 58.5484 48.1861 58.9017C46.8782 59.1999 45.524 59.2366 44.2018 59.0099C43.3378 58.8685 42.4946 58.6209 41.6916 58.2729C43.5659 59.8055 45.969 60.5421 48.3829 60.3238C53.6041 59.8431 57.4358 55.0403 56.9337 49.5926C56.4317 44.1449 51.7767 40.1192 46.5514 40.5999Z" fill="#C7B29F"/>
</g>
<path d="M95.1495 37.2312C95.1495 37.2312 96.6235 46.8768 85.2371 52.5007C85.2371 52.5007 85.6668 39.4182 95.1495 37.2312Z" fill="#579932"/>
<path d="M85.2611 52.4887C96.6194 46.8808 95.1494 37.2312 95.1494 37.2312L95.0691 37.2512L85.2611 52.4887Z" fill="#9EC530"/>
<path d="M98.4147 43.3999C98.4147 43.3999 96.1575 52.4406 85.0322 52.669C85.0322 52.673 90.0406 41.405 98.4147 43.3999Z" fill="#579932"/>
<path d="M85.0563 52.673C96.1616 52.4326 98.4148 43.4039 98.4148 43.4039H98.3425L85.0563 52.673Z" fill="#9EC530"/>
<path d="M87.7071 36.4781C87.7071 36.4781 80.3531 42.2302 84.6908 52.4486C84.6908 52.4486 92.9525 43.2877 87.7071 36.4781Z" fill="#579932"/>
<path d="M84.6788 52.4286C80.3612 42.2182 87.7071 36.4781 87.7071 36.4781L87.7513 36.5382L84.6788 52.4286Z" fill="#9EC530"/>
<path d="M90.3057 64.4576C87.0163 69.5648 80.3732 71.1631 75.4692 68.0226C70.5653 64.8822 69.2559 58.1927 72.5574 53.0735C75.8588 47.9543 82.4899 46.364 87.3939 49.5045C92.2978 52.6449 93.5951 59.3464 90.3057 64.4576Z" fill="#402745"/>
<g style="mix-blend-mode:soft-light">
<path d="M75.5174 56.3381C76.0716 56.1189 76.5648 55.77 76.9553 55.3207C77.6822 54.4955 78.108 53.446 79.0518 52.8171C79.5157 52.5336 80.0212 52.3241 80.5499 52.1963C81.0921 52.04 81.7066 51.8358 82.032 51.3391C82.2792 50.9134 82.3938 50.4239 82.3613 49.9331C82.3613 49.885 82.3613 49.8329 82.3613 49.7769C81.0662 49.4211 79.6906 49.4921 78.4392 49.9794C77.1879 50.4666 76.1278 51.3439 75.417 52.4807C74.6513 53.6628 74.2971 55.0634 74.4089 56.4663C74.7832 56.5236 75.1662 56.4793 75.5174 56.3381Z" fill="white"/>
</g>
<g style="mix-blend-mode:multiply">
<path d="M87.3818 49.5165L87.2773 49.4564C87.5365 50.0794 87.7394 50.7242 87.8838 51.3831C88.3576 53.5169 88.4312 55.7198 88.1007 57.8803C87.4822 61.7538 85.1527 66.0238 81.068 67.0573C79.4706 67.4738 77.7782 67.3325 76.2725 66.6567C74.9238 66.0258 73.7142 65.134 72.714 64.033C72.0542 63.3217 71.485 62.532 71.0191 61.6817C71.6113 64.2987 73.2091 66.5797 75.4692 68.0346C80.3732 71.1751 87.0163 69.5768 90.3057 64.4696C93.5951 59.3624 92.2857 52.673 87.3818 49.5165Z" fill="#D3B3C3"/>
</g>
<path d="M63.0426 29.6044C63.0426 29.6044 68.3723 34.2229 64.1109 42.1621C64.123 42.1621 58.3434 34.8558 63.0426 29.6044Z" fill="#579932"/>
<path d="M64.123 42.1461C68.3683 34.2189 63.0466 29.6044 63.0466 29.6044L63.0064 29.6525L64.123 42.1461Z" fill="#9EC530"/>
<path d="M70.6094 31.3468C70.6094 31.3468 72.216 38.2005 64.119 42.1621C64.123 42.1581 63.7214 32.869 70.6094 31.3468Z" fill="#579932"/>
<path d="M64.123 42.1501C72.2079 38.1885 70.5934 31.3348 70.5934 31.3348H70.5331L64.123 42.1501Z" fill="#9EC530"/>
<path d="M55.7609 32.6647C55.7609 32.6647 55.3834 39.6986 64.0668 42.1621C64.0668 42.1621 62.8136 32.9491 55.7609 32.6647Z" fill="#579932"/>
<path d="M64.0507 42.1581C55.3874 39.6866 55.7609 32.6647 55.7609 32.6647H55.8252L64.0507 42.1581Z" fill="#9EC530"/>
<path d="M70.6416 48.9237C71.2039 55.2045 68.9065 69.713 66.6654 69.9093C64.4242 70.1056 59.4921 56.1779 58.9298 49.881C58.3675 43.5841 60.7733 39.4383 63.7495 39.1739C67.6494 38.8414 70.0793 42.6588 70.6416 48.9237Z" fill="#F1843D"/>
<g style="mix-blend-mode:multiply">
<path d="M63.7455 39.1899C63.4044 39.2214 63.07 39.3038 62.7534 39.4343C64.5206 39.7467 65.8942 40.9204 66.822 42.4706C67.4124 43.4559 70.3604 50.0372 68.0711 63.4602C67.8301 64.8782 66.34 66.128 64.7455 65.443C64.0079 65.0847 63.3839 64.5303 62.9422 63.8407C62.7976 63.6364 62.649 63.4402 62.5044 63.2359C63.9985 67.0613 65.6211 70.0214 66.6654 69.9293C68.9065 69.733 71.2038 55.2246 70.6416 48.9437C70.0793 42.6628 67.6494 38.8414 63.7455 39.1899Z" fill="#FCCE9A"/>
</g>
<path d="M59.1347 44.9821C60.2924 44.4381 61.6061 44.3217 62.8418 44.6536V44.6937L60.9902 44.8779L59.1347 45.0221V44.9821Z" fill="#EA580C"/>
<path d="M61.6087 47.5858C62.8011 47.0392 64.1461 46.9203 65.4162 47.2493V47.2854L63.5165 47.4736L61.6087 47.6258V47.5858Z" fill="#EA580C"/>
<path d="M66.4685 44.8179C66.9846 44.5409 67.5545 44.3783 68.1393 44.3412C68.721 44.2776 69.3097 44.3377 69.8664 44.5174V44.5535L68.1675 44.7257L66.4685 44.8579V44.8179Z" fill="#EA580C"/>
<path d="M66.2557 48.6312C67.6233 48.0626 69.1321 47.9229 70.5813 48.2307V48.2707L68.4205 48.483L66.2557 48.6553V48.6312Z" fill="#EA580C"/>
<path d="M58.9017 49.7408C59.4637 49.4578 60.0769 49.2902 60.7051 49.2481C61.331 49.18 61.9643 49.2358 62.5686 49.4124V49.4524L60.7372 49.6327L58.9017 49.7769V49.7408Z" fill="#EA580C"/>
<path d="M64.5487 52.0921C65.2417 51.7985 65.9786 51.6212 66.7296 51.5674C67.4789 51.49 68.2358 51.5347 68.9708 51.6996V51.7396L66.7618 51.9559L64.5487 52.1322V52.0921Z" fill="#EA580C"/>
<path d="M59.8295 54.7799C60.4694 54.4902 61.1565 54.3179 61.8578 54.2712C62.5557 54.196 63.2614 54.2448 63.9423 54.4154V54.4555L61.8859 54.6558L59.8295 54.82V54.7799Z" fill="#EA580C"/>
<path d="M64.4483 56.0417C65.6073 55.4975 66.9224 55.3811 68.1594 55.7132V55.7533L66.3079 55.9376L64.4523 56.0818L64.4483 56.0417Z" fill="#EA580C"/>
<path d="M65.7617 58.1166C67.187 57.5482 68.7481 57.409 70.252 57.7161V57.7561L68.0068 57.9764L65.7577 58.1567L65.7617 58.1166Z" fill="#EA580C"/>
<path d="M65.5729 60.0954C64.9397 60.3837 64.2593 60.5547 63.5647 60.6001C62.8799 60.6761 62.187 60.6258 61.5204 60.4519V60.4119L63.5286 60.2156L65.5368 60.0554L65.5729 60.0954Z" fill="#EA580C"/>
<path d="M64.4885 62.3186C65.0242 62.0392 65.6124 61.8741 66.2155 61.8339C66.8179 61.7668 67.4276 61.8241 68.0068 62.0021V62.0422L66.2517 62.2184L64.4925 62.3546L64.4885 62.3186Z" fill="#EA580C"/>
<path d="M66.5328 64.3815C65.4941 64.9146 64.2875 65.021 63.1711 64.6779V64.6419L64.85 64.4736L66.5328 64.3414V64.3815Z" fill="#EA580C"/>
<path d="M65.9986 67.1133C66.3411 66.856 66.7515 66.7042 67.1794 66.6767C67.6057 66.6318 68.036 66.7082 68.4205 66.897V66.9371L67.2156 67.0653L66.0107 67.1534L65.9986 67.1133Z" fill="#EA580C"/>
<path d="M115.661 63.2078C115.629 59.8991 114.926 58.401 116.163 54.2872C117.48 49.909 117.484 46.7205 112.95 44.5335C108.608 42.4465 106.19 43.8204 103.034 47.738C100.672 50.6661 99.9088 51.7436 97.5352 53.3779C94.8241 55.2286 92.3902 57.2754 89.8037 62.619C86.6709 69.0921 90.0527 74.4397 96.6877 77.6322C103.323 80.8247 109.881 80.6284 113.01 74.1593C115.055 69.9293 115.709 68.0747 115.661 63.2078Z" fill="#579932"/>
<path d="M113.99 62.7472C114.026 59.8431 113.46 58.5292 114.585 54.9001C115.79 51.0306 115.854 48.2267 112.046 46.3961C108.403 44.6416 106.327 45.8994 103.572 49.4003C101.515 52.02 100.845 53.0054 98.8043 54.4595C96.4668 56.1378 94.3622 57.9844 92.0649 62.7311C89.2855 68.4753 92.0649 73.1098 97.6155 75.7896C103.166 78.4694 108.749 78.1689 111.528 72.4248C113.344 68.6675 113.926 67.0252 113.99 62.7472Z" fill="#9EC530"/>
<path d="M109.187 68.5514C107.066 72.9336 102.495 75.1086 98.973 73.4142C95.4507 71.7198 94.314 66.7929 96.4347 62.4147C98.5553 58.0365 103.126 55.8574 106.648 57.5518C110.171 59.2462 111.307 64.1732 109.187 68.5514Z" fill="#683C13"/>
<g style="mix-blend-mode:soft-light">
<path d="M98.9007 63.5603C99.8446 63.8968 100.909 64.1532 101.768 63.4802C102.274 63.0837 102.716 62.6138 103.082 62.0862C103.724 61.185 104.403 59.6508 105.604 59.3704C105.866 59.3048 106.138 59.2831 106.407 59.3063C106.251 59.2061 106.089 59.1151 105.921 59.0339C103.074 57.664 99.4028 59.3103 97.5472 62.7271C97.9382 63.0921 98.3984 63.3754 98.9007 63.5603Z" fill="white"/>
</g>
<g style="mix-blend-mode:color-burn">
<path d="M108.5 58.9698C109.194 60.5547 109.436 62.2998 109.199 64.013C108.983 65.5467 108.412 67.0092 107.53 68.2839C106.648 69.5585 105.479 70.6103 104.118 71.3553C102.947 71.9976 101.585 72.2004 100.277 71.9271C98.969 71.6537 97.8026 70.9223 96.9889 69.8652C95.784 68.3551 95.784 66.5606 95.6033 64.7981C94.8 68.4552 96.0812 72.0083 98.973 73.4142C102.495 75.1086 107.066 72.9336 109.187 68.5514C110.874 65.0665 110.496 61.2411 108.5 58.9698Z" fill="#F3D8B0"/>
</g>
<g style="mix-blend-mode:multiply">
<path d="M115.661 63.2078C115.629 59.8992 114.926 58.401 116.163 54.2872C117.48 49.9091 117.484 46.7206 112.95 44.5335C112.136 44.1277 111.272 43.8327 110.38 43.6562L110.588 43.8605C111.507 44.7277 112.197 45.8078 112.597 47.005C113.484 50.0052 111.954 52.6129 111.347 55.4929C110.608 58.9739 113.127 65.1065 109.885 72.1765C109.082 73.963 107.701 74.9804 105.917 75.7135C102.331 77.1595 98.965 76.114 95.8764 73.7107C93.9559 72.2615 92.5037 70.2825 91.6994 68.0186C90.6752 65.3869 89.8157 62.631 89.8157 62.631C86.6829 69.1042 90.0647 74.4517 96.6997 77.6442C103.335 80.8367 109.894 80.6404 113.022 74.1713C115.055 69.9293 115.709 68.0747 115.661 63.2078Z" fill="#DADDAD"/>
</g>
<path d="M69.3724 6.35957C70.7661 12.7686 70.2841 28.0262 67.9948 28.5189C65.7054 29.0116 58.8134 15.3002 57.4197 8.89115C56.026 2.4821 57.9659 -2.1204 60.9902 -2.77332C64.9745 -3.65457 67.9747 -0.0454712 69.3724 6.35957Z" fill="#ED6E2C"/>
<path d="M68.051 6.90834C69.3041 12.6645 69.3362 26.2757 67.5771 26.6562C65.8179 27.0368 60.1066 14.5912 58.8495 8.83506C57.5924 3.07893 58.978 -0.978797 61.3075 -1.48351C64.376 -2.14444 66.7979 1.15622 68.051 6.90834Z" fill="#F59F63"/>
<path d="M65.4845 7.46513C66.7377 13.2213 68.3362 26.492 67.557 26.6602C66.7778 26.8285 62.6691 14.0344 61.42 8.28228C60.1709 2.53016 60.3356 -1.27121 61.3638 -1.49553C62.7173 -1.80396 64.2314 1.71301 65.4845 7.46513Z" fill="#F1843D"/>
<g style="mix-blend-mode:multiply">
<path d="M60.9902 -2.78935C60.6439 -2.71357 60.3109 -2.58666 60.0022 -2.41282C61.8658 -2.31668 63.4362 -1.28323 64.5929 0.194859C65.3319 1.13619 68.4888 6.76414 67.8703 20.9041C67.806 22.3942 67.1674 24.6614 65.4363 24.1607C64.6246 23.8815 63.9069 23.3821 63.3639 22.7187L62.8337 22.1539C64.87 25.9072 66.9304 28.7512 67.9948 28.5188C70.2841 28.0262 70.7661 12.7646 69.3724 6.35956C67.9787 -0.0454805 64.9745 -3.65457 60.9902 -2.78935Z" fill="#FEE6C6"/>
</g>
<path d="M114.858 12.5043C113.545 12.1701 112.361 11.4553 111.455 10.45C110.549 9.44472 109.963 8.19421 109.77 6.85656C109.577 5.51891 109.786 4.1542 110.37 2.93496C110.955 1.71572 111.888 0.696702 113.054 0.00675273C114.219 -0.683197 115.563 -1.0131 116.916 -0.941244C118.269 -0.869391 119.571 -0.399009 120.656 0.410432C121.741 1.21987 122.561 2.33203 123.012 3.60628C123.464 4.88052 123.526 6.25965 123.192 7.56928C122.741 9.32497 121.611 10.8307 120.048 11.7559C118.486 12.6811 116.619 12.9502 114.858 12.5043ZM117.874 0.695576C116.846 0.434539 115.763 0.483453 114.762 0.836134C113.762 1.18882 112.889 1.82943 112.253 2.67698C111.618 3.52453 111.249 4.54097 111.192 5.59778C111.136 6.6546 111.395 7.70434 111.937 8.61429C112.479 9.52424 113.279 10.2535 114.236 10.71C115.194 11.1664 116.265 11.3296 117.315 11.1787C118.366 11.0278 119.348 10.5698 120.137 9.86243C120.926 9.15509 121.488 8.23022 121.75 7.20477C122.1 5.82909 121.888 4.37123 121.161 3.15098C120.435 1.93072 119.253 1.04769 117.874 0.695576Z" fill="#FFE4B1"/>
<path d="M88.1288 24.8537C86.4741 22.4303 82.5983 21.8895 80.9917 23.4317C80.2648 24.1407 80.5539 25.6869 81.3291 27.3011C80.1804 28.1744 78.0718 29.7246 76.9834 30.1812C76.0556 30.5818 78.7506 34.3631 79.2446 33.4939C79.9153 32.2922 82.1404 31.0905 83.4337 30.4456C84.6386 31.8115 86.0202 32.6887 86.96 32.2561C89.635 31.0424 89.7836 27.2771 88.1288 24.8537Z" fill="#FFE4B1"/>
<g style="mix-blend-mode:multiply">
<path d="M88.1288 24.8537C87.6788 24.2108 87.0848 23.6814 86.3937 23.3075L86.5102 23.4517C86.9669 23.9423 87.3708 24.4793 87.7151 25.054C88.2003 26.0119 88.456 27.0691 88.4622 28.1423C88.4849 28.5757 88.4209 29.0092 88.2741 29.4177C88.1272 29.8262 87.9003 30.2014 87.6067 30.5217C87.0645 31.0464 86.4018 31.5351 85.5985 31.3468C84.6868 31.1225 84.2611 30.1451 83.4618 29.7446C82.3131 29.1678 81.0801 30.2413 80.1764 30.8581C79.6944 31.1906 78.9715 31.8075 78.3369 31.5311C77.9619 31.3475 77.6603 31.0425 77.4814 30.6659C77.3874 30.4801 77.3262 30.2796 77.3007 30.073C77.1922 30.1291 77.0878 30.1772 76.9954 30.2172C76.0677 30.6178 78.7626 34.3991 79.2567 33.5299C79.9274 32.3282 82.1525 31.1265 83.4457 30.4816C84.6506 31.8475 86.0323 32.7248 86.9721 32.2922C89.635 31.0424 89.7836 27.2771 88.1288 24.8537Z" fill="#F3F2EC"/>
</g>
<path d="M82.9357 27.221C82.9357 27.221 86.1849 26.3718 86.0162 25.7109C85.8475 25.05 84.2932 23.4677 82.538 24.4892C81.9597 24.8256 81.4898 25.7429 82.9357 27.221Z" fill="#FBC374"/>
<path d="M84.253 29.1518C84.253 29.1518 86.1769 26.7684 86.7914 26.8445C87.1207 26.8846 88.2533 29.2479 86.6628 30.5217C86.1367 30.9343 85.1085 31.0424 84.253 29.1518Z" fill="#FBC374"/>
<g style="mix-blend-mode:soft-light">
<path d="M84.0964 24.8256C84.5225 24.9013 84.931 25.0548 85.3013 25.2783C85.6507 25.4625 86.1247 25.7269 86.5383 25.6228C86.6252 25.6056 86.7076 25.5707 86.7803 25.5203C86.853 25.4699 86.9144 25.4051 86.9608 25.3298C87.0072 25.2546 87.0375 25.1706 87.0498 25.0832C87.0621 24.9957 87.0562 24.9067 87.0324 24.8216C86.9174 24.6808 86.794 24.5471 86.6628 24.4211C85.3174 23.0872 83.1887 22.6866 81.9476 23.7481C82.538 24.4892 83.2007 24.7015 84.0964 24.8256Z" fill="white"/>
</g>
<path d="M120.605 48.6072C120.333 48.3569 120.127 48.0424 120.008 47.6925C119.889 47.3427 119.859 46.9685 119.922 46.6044C120.014 46.0982 120.219 45.6191 120.522 45.2029C120.826 44.7868 121.219 44.4443 121.674 44.201C122.009 44.0677 122.302 43.8453 122.52 43.5579C122.738 43.2706 122.873 42.9291 122.911 42.5707C122.911 42.5266 122.931 42.4786 122.939 42.4385C123.36 40.5839 124.216 39.959 124.858 39.7627C125.296 39.6565 125.754 39.6672 126.187 39.7937C126.619 39.9203 127.01 40.1583 127.321 40.4837C127.422 40.5766 127.517 40.6756 127.606 40.7802C127.708 40.904 127.818 41.0217 127.935 41.1327C128.212 41.4159 128.584 41.5871 128.979 41.6133C129.15 41.6324 129.319 41.6646 129.485 41.7095C129.994 41.8443 130.465 42.0922 130.863 42.4345C131.086 42.6331 131.259 42.8823 131.366 43.1611C131.473 43.4399 131.511 43.7402 131.477 44.0368C131.377 45.1103 130.433 46.1678 129.827 46.5483C129.489 46.7752 129.203 47.071 128.988 47.4163C128.774 47.7616 128.635 48.1484 128.582 48.5511V48.6353C128.18 50.3697 127.304 50.9786 126.638 51.1869C126.247 51.3012 125.833 51.3137 125.436 51.2232C125.038 51.1328 124.671 50.9424 124.368 50.6701C124.29 50.5947 124.217 50.513 124.152 50.4258C124.033 50.2618 123.899 50.1102 123.75 49.9731C123.442 49.6886 123.048 49.5139 122.629 49.4764L122.461 49.4444C121.777 49.3407 121.135 49.0511 120.605 48.6072ZM126.489 41.369C126.331 41.1952 126.131 41.0636 125.909 40.986C125.687 40.9084 125.448 40.8872 125.216 40.9244C124.742 41.0686 124.356 41.7015 124.128 42.7029L124.103 42.8231C124.026 43.3636 123.81 43.8751 123.477 44.308C123.143 44.741 122.703 45.0808 122.2 45.2945C121.924 45.4513 121.686 45.6657 121.502 45.9229C121.317 46.1801 121.191 46.4741 121.131 46.7846C121.096 46.9533 121.106 47.1282 121.159 47.2919C121.213 47.4557 121.308 47.6026 121.437 47.718C121.8 48.013 122.238 48.2028 122.702 48.2667L122.854 48.2948C123.503 48.3737 124.11 48.6539 124.589 49.0959C124.792 49.2859 124.974 49.4952 125.136 49.7208C125.155 49.7463 125.177 49.7704 125.2 49.7929C125.345 49.9155 125.517 50.0008 125.703 50.0413C125.889 50.0819 126.081 50.0763 126.264 50.0252C126.778 49.865 127.164 49.2962 127.373 48.3709V48.2908C127.459 47.7283 127.662 47.1899 127.969 46.7104C128.276 46.2309 128.68 45.8209 129.156 45.5068C129.706 45.127 130.093 44.5553 130.24 43.9046C130.255 43.7945 130.242 43.6825 130.202 43.5789C130.162 43.4753 130.096 43.3834 130.011 43.3117C129.751 43.0959 129.445 42.9413 129.116 42.8591C129.01 42.8334 128.903 42.8147 128.795 42.803C128.148 42.7442 127.542 42.4607 127.084 42.0019C126.928 41.8589 126.783 41.7049 126.65 41.5412C126.614 41.4932 126.553 41.4291 126.489 41.369Z" fill="#E4313C"/>
<path d="M97.1255 4.51296C96.5711 4.37748 96.0598 4.10504 95.6386 3.72074C95.2175 3.33643 94.9001 2.85262 94.7157 2.31386C94.4637 1.56564 94.3855 0.770085 94.4871 -0.0126839C94.5887 -0.795453 94.8674 -1.54495 95.3021 -2.20452C96.278 -3.56244 96.017 -4.44769 95.7599 -5.3049C95.7399 -5.37299 95.7198 -5.44109 95.7037 -5.50518C94.9004 -8.30914 95.5912 -9.7712 96.3062 -10.5082C97.1978 -11.4175 98.6316 -11.734 100.15 -11.3494C100.354 -11.2981 100.556 -11.2338 100.752 -11.1572C100.982 -11.0653 101.216 -10.9877 101.455 -10.9248C102.037 -10.7443 102.665 -10.7901 103.214 -11.053C103.458 -11.1513 103.709 -11.2303 103.965 -11.2893C104.747 -11.4848 105.564 -11.4972 106.351 -11.3254C106.796 -11.2217 107.211 -11.0141 107.56 -10.7195C107.909 -10.4249 108.183 -10.0518 108.359 -9.631C109.01 -8.11687 108.528 -5.99788 107.994 -5.04052C107.191 -3.58647 107.56 -2.28063 107.809 -1.43544L107.849 -1.30725C108.6 1.31645 107.849 2.78252 107.122 3.5476C106.683 3.98488 106.14 4.30363 105.543 4.47391C104.947 4.64418 104.317 4.66038 103.712 4.52098C103.55 4.47949 103.391 4.42318 103.238 4.35274C102.963 4.21869 102.675 4.11267 102.379 4.03629C101.754 3.8792 101.095 3.93272 100.503 4.18851L100.254 4.26862C99.2544 4.6388 98.1709 4.72342 97.1255 4.51296ZM99.6879 -9.53887C99.0252 -9.70711 98.1416 -9.70711 97.6476 -9.2024C97.1536 -8.69769 97.0693 -7.52804 97.503 -5.99788C97.503 -5.93779 97.5352 -5.87771 97.5553 -5.81362C97.851 -5.03086 97.9391 -4.18523 97.811 -3.35856C97.6829 -2.5319 97.3431 -1.7522 96.8243 -1.09496C96.567 -0.680184 96.4032 -0.214591 96.3443 0.269568C96.2853 0.753728 96.3326 1.24488 96.4829 1.709C96.5616 1.96184 96.7048 2.18998 96.8984 2.37113C97.092 2.55227 97.3294 2.68022 97.5874 2.74246C98.2938 2.86741 99.021 2.79959 99.692 2.54619L99.9169 2.47408C100.847 2.10383 101.87 2.03653 102.841 2.28181C103.256 2.38912 103.659 2.5367 104.046 2.72244C104.088 2.74329 104.132 2.75941 104.178 2.7705C104.464 2.82981 104.76 2.81809 105.04 2.73636C105.32 2.65463 105.576 2.5054 105.785 2.30184C106.359 1.709 106.456 0.659525 106.054 -0.738449L106.018 -0.85862C105.745 -1.80395 105.17 -3.77073 106.363 -5.90975C106.668 -6.45452 107.034 -7.94863 106.644 -8.8499C106.587 -9.01593 106.488 -9.16442 106.356 -9.28093C106.225 -9.39744 106.065 -9.47802 105.893 -9.51484C105.384 -9.61126 104.86 -9.59347 104.359 -9.46277C104.197 -9.42198 104.039 -9.3684 103.885 -9.30254C102.974 -8.90508 101.952 -8.83847 100.997 -9.11427C100.685 -9.19552 100.378 -9.29585 100.078 -9.4147C99.9499 -9.46281 99.8199 -9.50426 99.6879 -9.53887Z" fill="#9EC530"/>
<path d="M34.2533 10.213C34.2533 10.213 32.3937 7.86568 31 7.46111C31 7.46111 31.1245 6.75612 32.3856 6.60791C32.3856 6.60791 34.2171 9.3638 34.7312 9.76436L34.2533 10.213Z" fill="#9EC530"/>
<g style="mix-blend-mode:multiply">
<path d="M31 7.45711C31.065 7.24323 31.2084 7.0616 31.4016 6.94839C31.4016 6.94839 32.8194 8.45853 33.5785 9.08742C34.4983 9.84849 34.7392 9.76037 34.7392 9.76037L34.2533 10.213C34.2533 10.213 32.3937 7.86169 31 7.45711Z" fill="#DADDAD"/>
</g>
<path d="M33.7231 11.2184C33.5584 10.4934 33.5343 9.32375 35.4261 9.25566C37.3178 9.18756 38.8199 12.6565 39.9605 14.7755C41.065 16.8263 44.9649 19.5822 44.9047 20.1911C44.8605 20.6437 41.1213 20.9201 37.3419 16.2936C36.2655 14.9757 34.2252 13.4175 33.7231 11.2184Z" fill="#E4313C"/>
<g style="mix-blend-mode:multiply">
<path d="M41.9125 18.8172C40.5411 18.097 39.297 17.1579 38.2295 16.0372C37.7033 15.4524 37.2294 14.8355 36.7555 14.2026C36.2843 13.6043 35.8536 12.9753 35.4662 12.32C35.097 11.7023 34.8158 11.0363 34.6308 10.3412C34.5597 10.0353 34.526 9.72187 34.5304 9.40787C33.5464 9.76037 33.5906 10.6336 33.7271 11.2184C34.2292 13.4135 36.2695 14.9757 37.3419 16.2936C41.1213 20.9201 44.8605 20.6437 44.9047 20.1911C44.8973 20.0914 44.8595 19.9963 44.7962 19.9187C43.7681 19.8266 42.8041 19.3139 41.9125 18.8172Z" fill="#E2C5D4"/>
</g>
<path d="M132.803 10.8819C132.803 10.8819 135.562 9.70829 136.976 10.0167C136.976 10.0167 137.209 9.33977 136.173 8.60674C136.173 8.60674 133.245 10.1569 132.598 10.2611L132.803 10.8819Z" fill="#9EC530"/>
<g style="mix-blend-mode:multiply">
<path d="M136.98 10.0167C137.028 9.80068 136.992 9.57462 136.88 9.38383C136.88 9.38383 134.912 10.0327 133.944 10.221C132.767 10.4493 132.602 10.2611 132.598 10.2611L132.807 10.8819C132.807 10.8819 135.566 9.70829 136.98 10.0167Z" fill="#DADDAD"/>
</g>
<path d="M132.803 12.0196C133.297 11.4628 133.879 10.4453 132.249 9.48798C130.618 8.53062 127.638 10.8539 125.618 12.1678C123.666 13.4456 118.93 13.9863 118.681 14.5712C118.501 14.9717 121.653 17.0146 127.188 14.7554C128.75 14.1065 131.293 13.7099 132.803 12.0196Z" fill="#E4313C"/>
<g style="mix-blend-mode:soft-light">
<path d="M130.562 11.0142C130.163 11.2463 129.719 11.3929 129.26 11.4446C128.801 11.4963 128.336 11.452 127.895 11.3146C129.156 10.4614 130.706 9.43593 131.622 9.97269C131.765 10.0566 131.9 10.1545 132.024 10.2651C131.514 10.2971 130.923 10.7738 130.562 11.0142Z" fill="white"/>
</g>
<g style="mix-blend-mode:multiply">
<path d="M121.959 14.7875C123.51 14.8114 125.054 14.58 126.529 14.1025C127.272 13.8421 127.987 13.5177 128.702 13.1972C129.403 12.8964 130.083 12.5499 130.738 12.1597C131.358 11.7913 131.925 11.3398 132.421 10.8179C132.631 10.5843 132.812 10.326 132.96 10.0488C133.65 10.8219 133.196 11.5709 132.799 12.0196C131.305 13.7099 128.783 14.1065 127.176 14.7514C121.641 17.0106 118.489 14.9837 118.669 14.5671C118.722 14.4815 118.801 14.4153 118.894 14.3789C119.83 14.7995 120.931 14.7995 121.959 14.7875Z" fill="#E2C5D4"/>
</g>
<path d="M103.656 15.2241C101.772 22.6065 95.9286 25.6788 88.8397 23.8763C81.7508 22.0738 78.0236 16.6221 79.9113 9.23563C81.1765 4.26861 83.6104 1.2804 88.0043 0.194864C93.2617 -1.10697 97.5472 0.407164 100.547 3.14303C103.548 5.87889 105.114 9.51602 103.656 15.2241Z" fill="#E4313C"/>
<path d="M88.5666 6.95641C88.7835 6.72808 90.6551 7.61333 89.9844 8.31432C89.3137 9.01531 88.2775 7.25683 88.5666 6.95641Z" fill="#FFCF33"/>
<path d="M86.6147 14.6192C86.5424 14.3188 88.2935 13.2173 88.5265 14.1546C88.7594 15.0919 86.699 15.0198 86.6147 14.6192Z" fill="#FFCF33"/>
<path d="M86.4781 11.6751C86.5022 11.3666 88.5064 10.8739 88.4381 11.8233C88.3698 12.7726 86.45 12.0957 86.4781 11.6751Z" fill="#FFCF33"/>
<path d="M87.2532 9.19958C87.3858 8.91517 89.4422 9.15151 89.0365 10.0287C88.6309 10.906 87.0805 9.58011 87.2532 9.19958Z" fill="#FFCF33"/>
<path d="M97.1576 9.13548C97.0773 8.83506 95.0089 8.73491 95.2619 9.65221C95.5149 10.5695 97.2661 9.54005 97.1576 9.13548Z" fill="#FFCF33"/>
<path d="M95.3342 16.3216C95.5471 16.0933 94.5309 14.2908 93.8803 15.0038C93.2296 15.7168 95.049 16.6221 95.3342 16.3216Z" fill="#FFCF33"/>
<path d="M96.5913 14.2427C96.7198 13.9623 95.1976 12.5603 94.796 13.4416C94.3943 14.3228 96.4146 14.6192 96.5913 14.2427Z" fill="#FFCF33"/>
<path d="M97.2741 11.7432C97.2982 11.4347 95.3784 10.6576 95.3141 11.623C95.2498 12.5884 97.246 12.1638 97.2741 11.7432Z" fill="#FFCF33"/>
<path d="M99.2662 3.84802C96.6556 1.44463 92.9284 0.110744 88.3417 1.2804C84.506 2.26178 82.3734 4.92554 81.2488 9.33176C79.5739 15.885 82.7991 20.7158 88.9722 22.282C95.1454 23.8483 100.25 21.1004 101.925 14.5471C103.218 9.47997 101.821 6.20735 99.2662 3.84802ZM83.3333 10.0247C84.2048 6.60792 85.8917 4.52498 88.9321 3.77191C89.9234 3.52 90.9465 3.41473 91.9685 3.45947C91.9443 5.14923 91.7655 6.83325 91.4343 8.49057C90.8564 8.75012 90.3448 9.13673 89.9379 9.62142C89.5311 10.1061 89.2395 10.6764 89.0849 11.2894C88.9304 11.9025 88.9169 12.5424 89.0456 13.1614C89.1742 13.7804 89.4416 14.3623 89.8277 14.8636C89.2855 16.59 88.6791 18.2403 88.0605 19.6704C84.1165 18.1041 82.1685 14.5952 83.3333 10.0247ZM91.5749 20.4795C91.7556 19.1777 91.8801 17.5193 92.1974 15.4885C93.2818 15.16 94.2417 14.1025 94.6072 12.6845C94.9847 11.2024 94.6072 9.75636 93.7316 8.96725C94.2322 7.40186 94.8126 5.86302 95.4707 4.35674C96.2481 4.74031 96.9674 5.23115 97.6074 5.8148C99.6437 7.67342 100.764 10.221 99.7562 14.1706C98.6637 18.5327 95.5229 20.7158 91.5749 20.4795Z" fill="#FFE4B1"/>
<g style="mix-blend-mode:multiply">
<path d="M100.555 3.18307C99.1324 1.87307 97.4335 0.897222 95.5832 0.327042L95.8804 0.56738C97.4869 1.94132 99.2622 3.58364 100.218 5.51436C101.014 7.13832 101.342 8.95076 101.166 10.7498C100.989 12.6925 100.604 14.7554 99.6036 16.4618C98.6368 18.1587 97.1701 19.518 95.4025 20.3553C93.5228 21.2326 90.3258 21.0243 88.3537 20.5796C82.1203 19.1817 80.9355 15.8009 79.4615 13.77C79.8029 18.8452 83.2891 22.5064 88.8477 23.9204C95.9326 25.7189 101.78 22.6466 103.664 15.2681C105.122 9.55607 103.503 5.87087 100.555 3.18307Z" fill="#E6DCDD"/>
</g>
<path d="M115.332 72.9776C110.552 74.1032 110.295 70.7385 111.351 71.0589C111.889 71.2354 112.461 71.281 113.02 71.1918C113.579 71.1026 114.109 70.8812 114.565 70.5462C109.363 69.012 111.536 65.0745 112.641 65.8956C115.753 68.2069 116.255 66.6166 116.255 66.6166C115.978 66.3282 114.721 66.4965 114.247 64.069C113.773 61.6416 115.504 61.169 115.854 61.7778C117.521 64.6899 119.067 64.3895 119.167 63.4241C119.268 62.4588 119.91 59.9512 121.091 60.1635C122.272 60.3758 122.919 59.763 123.525 59.6067C123.702 59.5719 123.884 59.5724 124.061 59.6082C124.238 59.644 124.406 59.7145 124.555 59.8154C124.705 59.9163 124.833 60.0458 124.931 60.1963C125.03 60.3468 125.098 60.5154 125.132 60.6923C125.292 61.4173 124.855 62.5469 125.465 63.5804C126.076 64.6138 123.887 65.6593 123.015 66.0919C122.143 66.5245 122.384 68.0747 125.702 68.6315C126.397 68.7477 126.549 70.5462 124.095 70.9267C121.641 71.3073 121.372 70.0695 121.007 69.9093C121.007 69.9093 119.685 70.9387 122.935 73.0617C124.087 73.8108 121.127 77.1996 117.894 72.8615C117.732 73.4062 117.704 73.9818 117.813 74.5396C117.921 75.0974 118.162 75.621 118.517 76.066C119.179 76.9432 115.926 77.8605 115.34 72.9977" fill="#579932"/>
<g style="mix-blend-mode:soft-light" opacity="0.5">
<path d="M116.46 64.3975C116.059 64.3014 116.364 65.4069 116.529 65.7394C116.688 65.9846 116.896 66.1954 117.138 66.3591C117.381 66.5229 117.655 66.6364 117.942 66.6927C118.505 66.7969 119.147 66.3723 119.549 65.9357C120.302 65.0764 120.989 64.1618 121.605 63.1998C122.007 62.611 122.601 61.8098 122.641 61.1089C122.225 61.296 121.764 61.3613 121.312 61.2971C120.196 61.1409 119.473 63.6444 119.304 64.6058C119.199 65.491 118.26 64.8261 116.46 64.3975Z" fill="white"/>
</g>
<path d="M111.195 78.882L123.067 61.934" stroke="#9EC530" stroke-width="0.78" stroke-miterlimit="10"/>
<g style="mix-blend-mode:multiply">
<path d="M122.927 73.0617C119.677 70.9387 120.999 69.9093 120.999 69.9093C121.364 70.0695 121.637 71.3032 124.087 70.9267C126.537 70.5502 126.389 68.7476 125.694 68.6315C122.376 68.0747 122.131 66.5285 123.007 66.0919C123.883 65.6553 126.063 64.6098 125.457 63.5803C124.85 62.5509 125.284 61.4173 125.124 60.6923C125.083 60.4828 124.994 60.2858 124.863 60.1173C124.731 59.9489 124.562 59.8137 124.369 59.7229C124.369 59.811 124.369 59.8991 124.369 59.9833C124.345 60.9111 124.184 61.8303 123.891 62.7111C123.14 64.8742 121.826 66.7168 120.525 68.5914C119.898 69.4847 119.248 70.458 118.26 70.9948C117.346 71.45 116.374 71.7801 115.372 71.9762C114.099 72.2606 112.484 72.0683 111.536 71.119L111.335 71.0629C110.279 70.7425 110.532 74.1072 115.316 72.9816C115.902 77.8445 119.155 76.9272 118.493 76.0499C118.138 75.6049 117.897 75.0814 117.788 74.5236C117.68 73.9658 117.708 73.3902 117.87 72.8454C121.119 77.1996 124.079 73.8108 122.927 73.0617Z" fill="#DADDAD"/>
</g>
<path d="M57.1345 60.3117C54.1504 64.2012 51.8128 61.7618 52.837 61.3412C53.3647 61.1378 53.836 60.8112 54.2112 60.3889C54.5864 59.9666 54.8548 59.4607 54.9938 58.9138C49.9974 61.0087 49.1781 56.5945 50.5517 56.5104C54.4315 56.3301 53.821 54.7759 53.821 54.7759C53.4194 54.7279 52.5599 55.6492 50.64 54.0829C48.7202 52.5167 49.7725 51.0386 50.4272 51.279C53.568 52.4807 54.568 51.279 54.0419 50.4779C53.5158 49.6767 52.4113 47.3214 53.4595 46.7406C54.5078 46.1598 54.6162 45.2705 54.9898 44.7738C55.1047 44.6363 55.2458 44.5229 55.4048 44.4399C55.5639 44.357 55.7378 44.3063 55.9166 44.2906C56.0954 44.275 56.2755 44.2948 56.4466 44.3488C56.6177 44.4029 56.7764 44.4901 56.9136 44.6056C57.496 45.0662 57.8775 46.2078 59.0021 46.6324C60.1267 47.057 59.1025 49.2361 58.7049 50.1214C58.3073 51.0066 59.4761 52.0521 62.396 50.3857C63.0064 50.0412 64.2676 51.3351 62.6128 53.1897C60.9581 55.0443 59.958 54.2472 59.5765 54.3553C59.5765 54.3553 59.207 55.9856 63.0667 55.5771C64.4363 55.4288 64.2997 59.9192 59.0503 58.6053C59.2725 59.1246 59.6159 59.5835 60.0518 59.9437C60.4877 60.3039 61.0036 60.555 61.5565 60.6762C62.6289 60.9366 60.693 63.7045 57.1385 60.3117" fill="#579932"/>
<g style="mix-blend-mode:soft-light" opacity="0.5">
<path d="M52.5558 52.9573C52.1984 53.1296 53.1262 53.7985 53.4595 53.9548C53.74 54.0452 54.0358 54.079 54.3296 54.0542C54.6233 54.0295 54.9092 53.9466 55.1705 53.8105C55.6685 53.5342 55.9015 52.7931 55.9376 52.2083C55.9735 51.066 55.9252 49.9227 55.793 48.7875C55.7368 48.0745 55.6806 47.0811 55.2669 46.5163C55.0631 46.9232 54.7485 47.2647 54.3592 47.5017C53.3953 48.0865 54.4235 50.4819 54.9215 51.315C55.3633 52.0641 54.2226 52.1522 52.5558 52.9573Z" fill="white"/>
</g>
<path d="M57.6847 67.4939L56.1023 46.8768" stroke="#9EC530" stroke-width="0.78" stroke-miterlimit="10"/>
<g style="mix-blend-mode:multiply">
<path d="M63.0627 55.577C59.2029 55.9776 59.5724 54.3553 59.5724 54.3553C59.9741 54.2472 60.95 55.0283 62.6088 53.1897C64.2676 51.3511 63.0104 50.0532 62.3919 50.3857C59.472 52.0521 58.2992 51.0106 58.7009 50.1213C59.1025 49.2321 60.1267 47.045 58.9981 46.6324C57.8695 46.2198 57.492 45.0662 56.9096 44.6056C56.7476 44.47 56.5562 44.3741 56.3505 44.3254C56.1448 44.2767 55.9305 44.2767 55.7248 44.3252L55.8854 44.5254C56.4565 45.2553 56.9166 46.0652 57.251 46.9288C58.0542 49.0759 58.2069 51.3351 58.3796 53.6063C58.4599 54.6918 58.5764 55.8574 58.1506 56.8909C57.7339 57.8202 57.1935 58.6892 56.5441 59.4745C55.7408 60.5 54.3672 61.3692 53.0298 61.237L52.841 61.3212C51.8168 61.7417 54.1544 64.1812 57.1385 60.2917C60.6809 63.6845 62.6168 60.9166 61.5565 60.6562C61.0036 60.535 60.4877 60.2839 60.0518 59.9236C59.6159 59.5634 59.2725 59.1046 59.0503 58.5853C64.2957 59.9192 64.4322 55.4288 63.0627 55.577Z" fill="#DADDAD"/>
</g>
<path d="M85.9118 102.772C80.6303 104.422 56.0421 96.6751 55.1143 94.8285C54.311 93.2262 55.9898 91.2434 55.9898 91.2434L86.8556 99.0825C86.8556 99.0825 87.6428 102.227 85.9118 102.772Z" fill="#D0D0D0"/>
<path d="M35.7714 49.4164C31.4097 68.9319 43.0411 90.1859 70.8866 97.2599C97.6436 104.07 119.139 91.2194 124.67 72.0002C124.67 72.0002 122.987 76.4545 79.0478 65.2948C48.8166 57.6159 35.7714 49.4164 35.7714 49.4164Z" fill="#E3E3E3"/>
<g style="mix-blend-mode:soft-light">
<path d="M50.2665 70.1977C51.4714 72.1805 53.8411 73.6426 55.8653 74.8122C56.8999 75.3768 57.9737 75.8668 59.0784 76.2783C60.203 76.7269 61.3397 77.1475 62.5044 77.48C65.2114 78.2811 68.0671 78.6817 70.8585 78.0688C73.0159 77.6051 74.9901 76.5218 76.5376 74.9524C77.8769 73.531 79.0331 71.9486 79.9796 70.2418C76.5898 69.4887 72.4771 68.4713 67.4767 67.1093C58.239 64.5898 51.612 62.0422 47.2703 60.1075C47.0695 61.4534 46.3024 63.7206 50.2665 70.1977Z" fill="#E3E3E3"/>
</g>
<g style="mix-blend-mode:multiply">
<path d="M110.046 71.9402C108.259 74.0511 106.387 76.098 104.568 78.1409C102.058 80.9449 99.226 83.4364 95.8684 85.2069C92.455 87.0149 88.7693 88.2569 84.9559 88.8841C76.0918 90.2941 67.2477 88.1671 59.1467 84.594C55.7127 83.0759 52.5157 81.2453 49.8207 78.6056C47.3716 76.2017 45.3614 73.3903 43.8805 70.2978C41.1253 64.5577 40.0248 58.1527 40.2658 51.8157C37.2334 50.3216 35.7915 49.4124 35.7915 49.4124C31.4297 68.9279 43.0612 90.1819 70.9066 97.2559C97.6637 104.066 119.159 91.2154 124.69 71.9962C124.67 72.0002 123.911 74.0151 110.046 71.9402Z" fill="#F6F6F6"/>
</g>
<path d="M125.622 24.6093C125.631 23.8192 125.478 23.0355 125.172 22.3066C124.866 21.5777 124.413 20.9191 123.842 20.3714C122.557 19.1376 120.886 18.729 119.481 19.3058C117.472 20.127 113.882 23.4237 110.07 25.2502C106.881 26.7764 103.644 26.2877 101.66 28.8273C99.3184 31.8235 100.15 34.4352 102.825 36.8827C106.174 39.947 109.829 39.0497 113.167 37.2151C117.011 35.1082 125.71 29.7246 125.622 24.6093Z" fill="#402745"/>
<g style="mix-blend-mode:multiply">
<path d="M125.622 24.6093C125.622 24.5813 125.622 24.5533 125.622 24.5212C124.955 25.2102 124.248 25.8551 123.549 26.504C121.196 28.6671 118.645 30.7981 115.653 32.0278C114.023 32.7662 112.352 33.4121 110.649 33.9625C109.042 34.4152 107.106 34.7637 105.472 34.2189C104.698 33.9534 103.991 33.5237 103.399 32.9594C102.808 32.3951 102.346 31.7097 102.046 30.9503C101.733 30.3103 101.583 29.6029 101.612 28.8914C99.3345 31.8636 100.174 34.4552 102.817 36.9027C106.166 39.967 109.821 39.0698 113.159 37.2352C117.011 35.1082 125.71 29.7246 125.622 24.6093Z" fill="#D3B3C3"/>
</g>
<path d="M123.967 20.7239C123.967 20.7239 125.011 18.8212 126.497 18.4246C126.34 18.1073 126.102 17.8371 125.806 17.6415C125.511 17.4459 125.168 17.3319 124.814 17.311C124.814 17.311 123.658 19.426 123.095 19.8386L123.967 20.7239Z" fill="#9EC530"/>
<g style="mix-blend-mode:multiply">
<path d="M126.509 18.4246C126.417 18.2144 126.28 18.0271 126.108 17.8758C126.108 17.8758 125.031 18.7891 124.662 19.1216C124.221 19.4882 123.69 19.7315 123.123 19.8266L123.995 20.7118C123.995 20.7118 125.023 18.8212 126.509 18.4246Z" fill="#DADDAD"/>
</g>
<path d="M120.858 19.0255C120.858 19.0255 118.641 19.9828 118.276 21.2045C118.276 21.2045 120.127 20.5596 121.236 20.8721C121.236 20.8721 120.123 21.7853 120.087 22.8108C120.087 22.8108 121.83 22.0097 122.85 22.4423C122.936 22.7701 122.949 23.1126 122.889 23.446C122.828 23.7794 122.696 24.0957 122.501 24.373C122.72 24.39 122.939 24.3608 123.146 24.2873C123.353 24.2138 123.541 24.0977 123.7 23.9464C123.858 23.7952 123.983 23.6123 124.066 23.4097C124.148 23.2071 124.187 22.9894 124.18 22.7707C124.18 22.7707 124.947 24.7255 123.63 26.1235C123.63 26.1235 125.236 25.6107 125.594 24.0846C125.594 24.0686 125.405 19.398 120.858 19.0255Z" fill="#9EC530"/>
<g style="mix-blend-mode:multiply">
<path d="M125.594 24.0686C125.529 23.2675 125.317 22.4852 124.967 21.7613C124.981 22.1728 124.87 22.5789 124.65 22.927C124.618 22.971 124.292 22.5264 124.099 22.3942C123.935 22.6706 123.758 22.971 123.425 23.0511C123.383 22.818 123.383 22.5793 123.425 22.3461C123.425 22.1979 123.537 21.8374 123.296 21.7773C123.165 21.7402 123.03 21.72 122.895 21.7173C122.461 21.7173 121.553 21.8534 121.561 21.8174C121.615 21.543 121.743 21.2883 121.931 21.0804C122.023 20.9642 122.123 20.848 122.22 20.7359C122.316 20.6237 122.465 20.5436 122.22 20.4835C122.155 20.4637 122.089 20.4477 122.023 20.4354C121.59 20.3058 121.141 20.237 120.69 20.2312C120.398 20.2375 120.107 20.2106 119.822 20.151C120.234 19.6753 120.759 19.3092 121.348 19.0855C121.186 19.0569 121.023 19.0368 120.858 19.0255C120.858 19.0255 118.641 19.9828 118.276 21.2045C118.276 21.2045 120.127 20.5596 121.236 20.8721C121.236 20.8721 120.123 21.7853 120.087 22.8108C120.087 22.8108 121.83 22.0097 122.85 22.4423C122.936 22.7701 122.949 23.1126 122.889 23.446C122.828 23.7794 122.696 24.0957 122.501 24.373C122.72 24.39 122.939 24.3608 123.146 24.2873C123.353 24.2138 123.541 24.0977 123.7 23.9464C123.858 23.7952 123.983 23.6123 124.066 23.4097C124.148 23.2071 124.187 22.9894 124.18 22.7707C124.18 22.7707 124.947 24.7255 123.63 26.1235C123.63 26.1074 125.248 25.5947 125.594 24.0686Z" fill="#DADDAD"/>
</g>
<path d="M71.9871 47.1812L72.6016 47.3374L73.1759 45.0863L74.6579 43.488L74.3888 43.2557L73.0755 44.3933L72.6618 42.8992L72.1879 43.0033L72.5534 44.942L71.9871 47.1812Z" fill="#579932"/>
<path d="M73.2723 43.6562C73.6056 43.9246 74.8226 44.5295 75.7022 42.8551C76.1038 42.054 76.8469 41.9098 77.4895 41.8697C78.365 41.8176 80.2367 38.8214 79.1563 38.1484C78.0759 37.4755 76.8629 38.2245 75.5415 39.1899C74.8668 39.6786 73.8707 39.5905 73.5735 40.5799C73.1478 41.9378 71.7541 42.4425 73.2723 43.6562Z" fill="#9EC530"/>
<g style="mix-blend-mode:soft-light">
<path d="M74.8065 40.5238C75.5255 40.652 76.2685 40.7001 76.883 40.2074C77.1473 39.9406 77.3694 39.6354 77.5417 39.3021C77.7706 38.9856 78.1281 38.4449 78.0156 38.2806C77.9031 38.1164 76.6862 38.7733 75.895 39.3421C75.3568 39.7427 74.5696 39.6626 74.3286 40.4437C74.4852 40.4797 74.6539 40.4998 74.8065 40.5238Z" fill="#E3E3E3"/>
</g>
<g style="mix-blend-mode:multiply">
<path d="M76.6581 41.1927C76.9263 40.9318 77.1785 40.6549 77.4131 40.3636C77.6746 40.0668 77.9187 39.7552 78.1441 39.4303C78.4777 39 78.6787 38.4823 78.7225 37.9402C78.8751 37.9899 79.0208 38.0586 79.1562 38.1444C80.2366 38.8174 78.353 41.8136 77.4895 41.8657C76.8468 41.9058 76.1159 42.062 75.7022 42.8511C74.8226 44.5295 73.6056 43.9246 73.2723 43.6522C72.6939 43.1916 72.5373 42.8311 72.5895 42.4866C73.3206 42.5645 74.0599 42.4898 74.7604 42.267C75.4609 42.0442 76.1072 41.6784 76.6581 41.1927Z" fill="#E4E1AA"/>
</g>
<path d="M72.1557 43.4599C71.7059 43.3438 70.3966 42.6588 71.2962 40.8362C71.722 39.971 71.3886 39.234 71.007 38.6532C70.4929 37.852 71.9027 34.311 73.1839 34.8158C74.5254 35.3365 74.5896 36.8546 74.6057 38.6291C74.6057 39.5304 75.3287 40.3355 74.6579 41.2328C73.7221 42.4625 74.1639 43.9967 72.1557 43.4599Z" fill="#9EC530"/>
<g style="mix-blend-mode:soft-light">
<path d="M73.2482 36.45C73.0931 36.7213 72.9845 37.0164 72.9269 37.3233C72.8626 37.6297 72.8626 37.9461 72.9269 38.2526C72.9448 38.4073 73.0076 38.5535 73.1076 38.6732C73.2 38.7653 73.3004 38.8454 73.3887 38.9376C73.7904 39.3381 73.8426 40.2474 74.3527 40.2794C74.6459 40.2995 74.2924 39.2941 74.2964 38.7172C74.2964 37.5756 74.3607 35.9453 73.7984 35.9133C73.5373 35.9053 73.4008 36.2057 73.2482 36.45Z" fill="#E3E3E3"/>
</g>
<g style="mix-blend-mode:multiply">
<path d="M72.1116 38.9416C72.1668 38.5364 72.2473 38.1351 72.3525 37.7399C72.4423 37.3211 72.5563 36.9078 72.6939 36.5021C72.8573 35.9377 73.1792 35.4318 73.6217 35.0441C73.4824 34.9422 73.3297 34.86 73.1679 34.7997C71.8866 34.295 70.4769 37.844 70.991 38.6371C71.3926 39.218 71.7059 39.955 71.2802 40.8202C70.3805 42.6588 71.6818 43.3278 72.1397 43.4439C72.9148 43.6482 73.3446 43.5521 73.5976 43.2877C73.0619 42.7052 72.6532 42.0182 72.3974 41.2701C72.1416 40.522 72.0443 39.7291 72.1116 38.9416Z" fill="#E4E1AA"/>
</g>
<path d="M78.7426 -2.44486C78.4895 -2.60108 77.6019 -2.92554 77.136 -1.69981C77.0355 -1.47327 76.8744 -1.2787 76.6704 -1.13739C76.4663 -0.996085 76.2272 -0.913497 75.9793 -0.898675C75.3768 -0.798533 74.3165 1.41259 75.1158 1.79713C75.915 2.18167 76.6902 1.5648 77.5256 0.799722C77.9553 0.399156 78.6462 0.399158 78.7787 -0.309843C78.9594 -1.26719 79.8832 -1.71983 78.7426 -2.44486Z" fill="#9EC530"/>
<g style="mix-blend-mode:soft-light">
<path d="M77.9272 -0.165642C77.6772 -0.206919 77.4211 -0.192403 77.1773 -0.123141C76.9335 -0.0538785 76.7082 0.0684083 76.5175 0.234923C76.3492 0.436915 76.2136 0.663991 76.1159 0.907873C75.9793 1.14421 75.7785 1.54477 75.8669 1.64892C75.9552 1.75307 76.7464 1.2083 77.2485 0.755659C77.5899 0.443219 78.1401 0.431203 78.2486 -0.125583C78.1481 -0.157628 78.0317 -0.15763 77.9272 -0.165642Z" fill="#E3E3E3"/>
</g>
<g style="mix-blend-mode:multiply">
<path d="M76.5938 -0.482088C76.4277 -0.283477 76.2761 -0.0733151 76.14 0.146799C75.9817 0.371786 75.8369 0.605852 75.7062 0.847789C75.5107 1.16981 75.4117 1.54095 75.421 1.9173C75.3123 1.89709 75.2069 1.86204 75.1077 1.81315C74.3045 1.41258 75.3688 -0.782512 75.9713 -0.882653C76.2192 -0.897476 76.4583 -0.980064 76.6623 -1.12137C76.8663 -1.26268 77.0274 -1.45725 77.128 -1.68378C77.6019 -2.90951 78.4895 -2.58506 78.7345 -2.42884C79.1683 -2.15245 79.3049 -1.91611 79.2928 -1.67577C78.7847 -1.67325 78.2826 -1.5659 77.8181 -1.36047C77.3536 -1.15504 76.9368 -0.855975 76.5938 -0.482088Z" fill="#E4E1AA"/>
</g>
<path d="M79.5378 -2.39681C79.8591 -2.34874 80.815 -1.99624 80.3411 -0.650344C80.258 -0.392872 80.2485 -0.117389 80.3138 0.14514C80.3791 0.407668 80.5165 0.646834 80.7106 0.835754C81.1122 1.34447 80.4294 3.90008 79.5057 3.63971C78.5819 3.37935 78.3811 2.33788 78.2325 1.11615C78.1562 0.495275 77.6019 -0.00943804 77.9955 -0.674377C78.5257 -1.58366 78.0919 -2.6051 79.5378 -2.39681Z" fill="#9EC530"/>
<g style="mix-blend-mode:soft-light">
<path d="M79.3129 2.53014C79.399 2.33038 79.4519 2.11798 79.4695 1.90126C79.4933 1.68521 79.47 1.4666 79.4012 1.26035C79.3784 1.15449 79.3238 1.05807 79.2446 0.983962C79.1763 0.923877 79.1 0.879817 79.0277 0.819732C78.7305 0.575387 78.6261 -0.0494956 78.2606 -0.0294673C78.0598 -0.0294673 78.3811 0.647488 78.4213 1.04405C78.5056 1.84518 78.5899 2.96275 78.9835 2.93872C79.1562 2.9267 79.2285 2.70639 79.3129 2.53014Z" fill="#E3E3E3"/>
</g>
<g style="mix-blend-mode:multiply">
<path d="M79.9073 0.723615C79.8998 1.00401 79.8743 1.28365 79.831 1.5608C79.8021 1.8558 79.7552 2.14876 79.6904 2.43804C79.622 2.84001 79.4394 3.21398 79.1643 3.51556C79.2675 3.57528 79.3783 3.62108 79.4936 3.65175C80.4214 3.9001 81.1002 1.34449 80.6985 0.847792C80.5045 0.658872 80.3671 0.419703 80.3018 0.157175C80.2365 -0.105354 80.2459 -0.380834 80.329 -0.638306C80.811 -1.97619 79.8551 -2.3367 79.5258 -2.38477C78.9755 -2.46488 78.6984 -2.38477 78.5337 -2.16046C78.9504 -1.80076 79.2876 -1.35868 79.5241 -0.862227C79.7605 -0.365773 79.891 0.174241 79.9073 0.723615Z" fill="#E4E1AA"/>
</g>
<path d="M51.7968 19.8226L52.2225 19.9307L52.6241 18.3685L53.6483 17.255L53.4635 17.0947L52.5518 17.8838L52.2667 16.8464L51.9333 16.9185L52.1904 18.2684L51.7968 19.8226Z" fill="#579932"/>
<path d="M52.6884 17.3751C52.9213 17.5594 53.7688 17.98 54.3753 16.8143C54.499 16.5965 54.6809 16.4172 54.9007 16.2963C55.1205 16.1753 55.3696 16.1176 55.6203 16.1294C56.2268 16.0933 57.5241 14.0144 56.773 13.5457C56.022 13.0771 55.1665 13.6018 54.2588 14.2667C53.7889 14.6072 53.0981 14.5471 52.8892 15.2321C52.604 16.1774 51.6361 16.5299 52.6884 17.3751Z" fill="#9EC530"/>
<g style="mix-blend-mode:soft-light">
<path d="M53.7527 15.2001C53.9944 15.2719 54.2491 15.2893 54.4984 15.2512C54.7478 15.2132 54.9855 15.1204 55.1946 14.9797C55.3785 14.7947 55.5329 14.5826 55.6525 14.3509C55.8131 14.1305 56.0541 13.754 55.9858 13.6418C55.9175 13.5297 55.0621 13.9823 54.5118 14.3789C54.1383 14.6473 53.588 14.6032 53.4234 15.144C53.5318 15.168 53.6483 15.18 53.7527 15.2001Z" fill="#E3E3E3"/>
</g>
<g style="mix-blend-mode:multiply">
<path d="M55.042 15.6607C55.2284 15.4814 55.4029 15.29 55.5641 15.0879C55.7464 14.8814 55.9167 14.6648 56.0742 14.439C56.3055 14.1405 56.445 13.7815 56.4758 13.4055C56.5826 13.4373 56.6841 13.4846 56.7771 13.5457C57.5281 14.0144 56.2308 16.0933 55.6244 16.1294C55.3736 16.1176 55.1245 16.1753 54.9047 16.2963C54.6849 16.4172 54.503 16.5965 54.3793 16.8143C53.7728 17.98 52.9254 17.5594 52.6924 17.3751C52.2908 17.0507 52.1823 16.8023 52.2185 16.574C52.727 16.6264 53.2408 16.5723 53.727 16.415C54.2133 16.2577 54.6612 16.0008 55.042 15.6607Z" fill="#E4E1AA"/>
</g>
<path d="M51.9052 17.2389C51.5919 17.1548 50.6802 16.6942 51.3068 15.4164C51.4177 15.1696 51.4577 14.897 51.4223 14.6289C51.3868 14.3608 51.2773 14.1078 51.1059 13.8982C50.7485 13.3454 51.7285 10.886 52.6161 11.2345C53.5037 11.5829 53.5921 12.6485 53.6041 13.8822C53.6041 14.5071 54.1062 15.0839 53.6403 15.6887C53.0017 16.5459 53.319 17.6115 51.9052 17.2389Z" fill="#9EC530"/>
<g style="mix-blend-mode:soft-light">
<path d="M52.6723 12.3681C52.5667 12.5584 52.4908 12.7637 52.4474 12.9769C52.4052 13.1898 52.4052 13.4089 52.4474 13.6218C52.4622 13.7293 52.5067 13.8305 52.5759 13.9142C52.6362 13.9783 52.7085 14.0344 52.7687 14.0985C53.0418 14.3749 53.082 15.0078 53.4394 15.0278C53.6443 15.0278 53.3993 14.3428 53.3993 13.9463C53.3993 13.1452 53.4435 12.0196 53.0539 11.9995C52.8772 11.9915 52.7767 12.2158 52.6723 12.3681Z" fill="#E3E3E3"/>
</g>
<g style="mix-blend-mode:multiply">
<path d="M51.8851 14.0985C51.9222 13.8202 51.9772 13.5446 52.0498 13.2733C52.1141 12.9834 52.1946 12.6972 52.2908 12.4161C52.4023 12.0246 52.6256 11.6739 52.9334 11.4067C52.8365 11.3344 52.7296 11.2764 52.6161 11.2345C51.7285 10.886 50.7485 13.3454 51.1059 13.8982C51.2773 14.1078 51.3868 14.3608 51.4223 14.6289C51.4577 14.897 51.4177 15.1696 51.3068 15.4164C50.6802 16.6942 51.5919 17.1548 51.9052 17.2389C52.4434 17.3791 52.7085 17.311 52.9133 17.1268C52.5402 16.7211 52.256 16.2422 52.079 15.7208C51.9019 15.1994 51.8359 14.6468 51.8851 14.0985Z" fill="#E4E1AA"/>
</g>
<path d="M106.897 19.9948L107.327 20.107L107.725 18.5408L108.753 17.4312L108.568 17.271L107.652 18.0601L107.367 17.0226L107.038 17.0947L107.291 18.4406L106.897 19.9948Z" fill="#579932"/>
<path d="M107.793 17.5474C108.026 17.7356 108.869 18.1562 109.48 16.9906C109.602 16.7721 109.783 16.5922 110.002 16.4711C110.222 16.3501 110.471 16.2927 110.721 16.3056C111.327 16.2696 112.629 14.1906 111.878 13.718C111.127 13.2453 110.271 13.774 109.359 14.443C108.889 14.7835 108.199 14.7234 107.99 15.4083C107.705 16.3537 106.737 16.7062 107.793 17.5474Z" fill="#9EC530"/>
<g style="mix-blend-mode:soft-light">
<path d="M108.857 15.3723C109.099 15.4447 109.353 15.4628 109.603 15.4254C109.852 15.388 110.09 15.296 110.299 15.156C110.482 14.9685 110.636 14.7552 110.757 14.5231C110.918 14.3068 111.159 13.9303 111.086 13.8181C111.014 13.7059 110.163 14.1546 109.612 14.5551C109.239 14.8235 108.693 14.7755 108.524 15.3162C108.636 15.3402 108.749 15.3563 108.857 15.3723Z" fill="#E3E3E3"/>
</g>
<g style="mix-blend-mode:multiply">
<path d="M110.143 15.8209C110.329 15.6416 110.503 15.4503 110.665 15.2481C110.847 15.0419 111.017 14.8252 111.175 14.5992C111.406 14.3006 111.545 13.9417 111.576 13.5658C111.682 13.5976 111.784 13.6434 111.878 13.7019C112.629 14.1746 111.327 16.2535 110.721 16.2896C110.471 16.2767 110.222 16.334 110.002 16.4551C109.783 16.5762 109.602 16.7561 109.48 16.9746C108.869 18.1402 108.026 17.7196 107.793 17.5314C107.391 17.2109 107.283 16.9625 107.319 16.7302C107.827 16.7837 108.341 16.7304 108.827 16.5738C109.314 16.4172 109.762 16.1607 110.143 15.8209Z" fill="#E4E1AA"/>
</g>
<path d="M107.006 17.4232C106.692 17.3431 105.801 16.8784 106.407 15.6046C106.519 15.3584 106.56 15.0858 106.525 14.8176C106.491 14.5495 106.382 14.2963 106.211 14.0865C105.849 13.5337 106.829 11.0702 107.721 11.4187C108.612 11.7672 108.693 12.8367 108.705 14.0705C108.705 14.6953 109.211 15.2722 108.745 15.877C108.102 16.7182 108.42 17.7837 107.006 17.4232Z" fill="#9EC530"/>
<g style="mix-blend-mode:soft-light">
<path d="M107.773 12.5443C107.667 12.7329 107.593 12.9371 107.552 13.1492C107.506 13.3617 107.506 13.5816 107.552 13.7941C107.562 13.9021 107.605 14.0043 107.676 14.0865C107.737 14.1546 107.809 14.2066 107.873 14.2707C108.142 14.5511 108.187 15.18 108.54 15.2041C108.745 15.2041 108.5 14.5191 108.5 14.1185C108.5 13.3174 108.548 12.1958 108.154 12.1758C107.974 12.1678 107.901 12.3761 107.773 12.5443Z" fill="#E3E3E3"/>
</g>
<g style="mix-blend-mode:multiply">
<path d="M106.986 14.2747C107.024 13.9963 107.08 13.7206 107.154 13.4496C107.217 13.1597 107.296 12.8735 107.391 12.5924C107.504 12.2001 107.727 11.8483 108.034 11.5789C107.938 11.5081 107.832 11.4502 107.721 11.4067C106.829 11.0582 105.849 13.5217 106.211 14.0745C106.382 14.2842 106.491 14.5374 106.525 14.8056C106.56 15.0738 106.519 15.3463 106.407 15.5926C105.785 16.8664 106.692 17.3311 107.006 17.4112C107.544 17.5554 107.833 17.4873 108.018 17.303C107.644 16.8977 107.359 16.419 107.181 15.8975C107.004 15.3761 106.937 14.8233 106.986 14.2747Z" fill="#E4E1AA"/>
</g>
</g>
</g>
<defs>
<clipPath id="clip0_152:11221">
<rect width="106" height="119" fill="white" transform="translate(31 -16)"/>
</clipPath>
</defs>
</svg>
