<svg width="167" height="167" viewBox="0 0 167 167" fill="none" xmlns="http://www.w3.org/2000/svg">
<mask id="mask0_152:11547" style="mask-type:alpha" maskUnits="userSpaceOnUse" x="0" y="0" width="167" height="167">
<rect x="1" y="1" width="165" height="165" rx="8" fill="#5988D6" stroke="#EDE6FC" stroke-opacity="0.3"/>
</mask>
<g mask="url(#mask0_152:11547)">
<rect x="1" y="1" width="165" height="165" rx="8" fill="#7AC2D9" stroke="#EDE6FC" stroke-opacity="0.3"/>
<path d="M95.3347 57.6605C95.3684 57.5088 96.569 57.2919 96.6975 57.2603C97.9282 56.9569 99.1837 56.7651 100.449 56.6874C104.082 56.4599 106.934 57.3719 110.222 58.8463C113.236 60.1986 118.216 61.3592 126.822 59.2023C126.822 59.2023 128.998 65.2011 129 65.2032C129.055 65.3548 118.104 68.7312 110.782 66.3448C109.097 65.795 107.071 65.1042 105.434 64.4238C104.241 63.9285 103.004 63.5456 101.74 63.2801C99.2124 62.7493 96.5669 62.6945 94.0688 63.3728L95.3347 57.6605Z" fill="#FFCE57"/>
<path d="M103.204 56.6646L102.128 59.6959L102.716 59.9043L103.791 56.873L103.204 56.6646Z" fill="#3B455A"/>
<path d="M108.986 58.3487L108.169 61.0347L108.765 61.2163L109.583 58.5303L108.986 58.3487Z" fill="#3B455A"/>
<path d="M114.823 60.1478L114.296 62.7596L114.907 62.883L115.434 60.2713L114.823 60.1478Z" fill="#3B455A"/>
<g clip-path="url(#clip0_152:11547)">
<path d="M93.4061 22.6676C88.7429 22.6676 88.7429 24.2433 84.0798 24.2433C79.4167 24.2433 79.4167 22.6676 74.7535 22.6676C68.536 22.6676 60.7641 25.8189 60.7641 36.8487C60.7641 54.1811 70.0904 68.3621 76.3079 68.3621C80.971 68.3621 80.971 66.7865 84.0798 66.7865C87.1886 66.7865 87.1886 68.3621 91.8517 68.3621C98.0692 68.3621 107.396 54.1811 107.396 36.8487C107.396 25.8174 99.6236 22.6676 93.4061 22.6676Z" fill="#DD2E44"/>
<path d="M85.6342 22.6676C85.6342 22.6676 90.2973 16.3649 98.0692 16.3649C104.287 16.3649 107.396 19.5162 107.396 19.5162C107.396 19.5162 101.178 24.2433 96.5149 24.2433C91.8517 24.2433 85.6342 22.6676 85.6342 22.6676Z" fill="#77B255"/>
<path d="M84.0798 27.3947C83.2218 27.3947 82.5254 26.6887 82.5254 25.819C82.5254 20.3971 84.3907 15.3959 87.644 12.0996C88.2518 11.4835 89.2341 11.4835 89.8419 12.0996C90.4497 12.7157 90.4497 13.7131 89.8419 14.3276C87.1668 17.0377 85.6342 21.2259 85.6342 25.819C85.6342 26.6887 84.9378 27.3947 84.0798 27.3947Z" fill="#662113"/>
</g>
<path d="M121.311 60.202L120.693 60.2853L121.055 62.9697L121.673 62.8864L121.311 60.202Z" fill="#3B455A"/>
<path d="M61.0835 33.4844C61.0835 33.4844 60.0309 35.0956 64.4121 36.0287C67.7484 36.6417 71.1227 37.0987 74.4907 37.5031C81.4879 38.3457 88.5566 38.8996 95.6085 38.7543C98.0371 38.7058 100.466 38.5689 102.877 38.2825C103.996 38.1477 105.121 37.9939 106.226 37.7706C107.101 37.5937 107.545 37.2272 107.214 36.2962C108.815 36.6817 108.798 38.0697 108.777 39.4051C108.76 40.2911 108.684 41.1749 108.55 42.0507C108.432 42.8426 108.472 44.0116 108.067 44.7088C107.56 45.585 106.279 45.6187 105.405 45.7451C104.287 45.9094 103.162 46.04 102.035 46.1474C99.7874 46.358 97.5295 46.4823 95.2736 46.5687C89.9102 46.7819 84.5387 46.663 79.1899 46.2127C75.9602 45.9403 72.7453 45.5464 69.5451 45.0311C67.8348 44.7502 66.1308 44.4385 64.4331 44.0959C63.3463 43.8726 61.6949 43.5925 60.9703 42.6215C60.6772 42.2235 60.4497 41.7812 60.2963 41.3113C59.715 39.5821 59.5504 38.2825 59.5504 36.5506C59.5504 35.4007 59.6635 34.6342 61.0835 33.4844Z" fill="#FFCE57"/>
<path d="M61.6128 45.2817C61.6128 45.2817 61.8992 48.2643 64.1214 48.4559C64.1214 48.4559 92.4406 51.6154 106.879 46.3854C106.879 46.3854 106.669 49.3974 104.089 54.6653C100.234 55.7564 98.2772 56.2156 94.3174 56.6937C89.2241 57.307 84.0964 57.5884 78.9666 57.5362C75.8703 57.5039 72.7811 57.3502 69.6989 57.0749C67.0133 56.8327 64.5047 56.2577 62.9481 53.8607C62.609 53.3205 62.3266 52.7466 62.1056 52.1483C61.6675 51.0109 61.3853 49.8187 61.0398 48.6518C60.9221 48.2435 60.8459 47.8243 60.8124 47.4007C60.7386 46.6382 60.7934 45.6145 61.6128 45.2817Z" fill="#FFCE57"/>
<path d="M65.5216 36.229L64.9733 39.7227L65.5892 39.8194L66.1375 36.3257L65.5216 36.229Z" fill="#3B455A"/>
<path d="M72.9028 37.3019L72.3612 40.8499L72.9775 40.944L73.5192 37.396L72.9028 37.3019Z" fill="#3B455A"/>
<path d="M80.1103 38.104L79.6987 41.6291L80.318 41.7014L80.7296 38.1763L80.1103 38.104Z" fill="#3B455A"/>
<path d="M87.6522 38.6133L87.4273 42.2376L88.0496 42.2762L88.2744 38.6519L87.6522 38.6133Z" fill="#3B455A"/>
<path d="M94.9334 38.7828L94.3129 38.8434L94.656 42.3548L95.2765 42.2941L94.9334 38.7828Z" fill="#3B455A"/>
<path d="M102.372 38.3696L101.749 38.3757L101.783 41.8846L102.407 41.8785L102.372 38.3696Z" fill="#3B455A"/>
<path d="M65.5855 48.5342L64.9688 48.6255L65.4586 51.9342L66.0753 51.8429L65.5855 48.5342Z" fill="#3B455A"/>
<path d="M72.6265 49.0796L72.0049 49.1278L72.2642 52.4752L72.8858 52.427L72.6265 49.0796Z" fill="#3B455A"/>
<path d="M80.2694 49.349L79.6495 49.4151L79.9789 52.5023L80.5988 52.4362L80.2694 49.349Z" fill="#3B455A"/>
<path d="M87.9197 49.2733L87.3004 49.3453L87.6832 52.6385L88.3025 52.5665L87.9197 49.2733Z" fill="#3B455A"/>
<path d="M95.605 48.7647L94.9837 48.8171L95.2802 52.3326L95.9014 52.2803L95.605 48.7647Z" fill="#3B455A"/>
<path d="M102.179 47.7404L101.561 47.8262L102.04 51.2727L102.658 51.1869L102.179 47.7404Z" fill="#3B455A"/>
</g>
<g filter="url(#filter0_b_152:11547)">
<rect x="13" y="77" width="141" height="77" rx="10" fill="black" fill-opacity="0.8"/>
</g>
<path d="M48.9657 94.872C49.8431 94.872 50.6317 95.054 51.3317 95.418L50.9957 97L50.8417 97.07C50.5617 96.874 50.2537 96.72 49.9177 96.608C49.5817 96.496 49.2364 96.44 48.8817 96.44C47.3977 96.44 46.6557 97.4153 46.6557 99.366C46.6557 100.421 46.8471 101.214 47.2297 101.746C47.6217 102.269 48.1911 102.53 48.9377 102.53C49.2831 102.53 49.6377 102.479 50.0017 102.376C50.3751 102.264 50.7111 102.115 51.0097 101.928L51.1777 102.026L51.0237 103.636C50.3144 103.963 49.5677 104.126 48.7837 104.126C47.4397 104.126 46.4131 103.734 45.7037 102.95C45.0037 102.166 44.6537 101.041 44.6537 99.576C44.6537 98.0827 45.0271 96.9253 45.7737 96.104C46.5297 95.2827 47.5937 94.872 48.9657 94.872ZM55.7274 97.476C55.8114 97.476 55.9281 97.4853 56.0774 97.504V99.226L55.8814 99.296C55.7227 99.2307 55.5501 99.198 55.3634 99.198C54.8221 99.198 54.3321 99.548 53.8934 100.248V101.13L53.9914 104H52.1294L52.2414 101.312L52.1574 97.616L53.9214 97.462L53.9074 98.736H54.0194C54.4767 97.896 55.0461 97.476 55.7274 97.476ZM62.0366 100.976L58.2566 101.004C58.3406 102.171 58.9332 102.754 60.0346 102.754C60.6132 102.754 61.2572 102.591 61.9666 102.264L62.1206 102.362L61.8406 103.748C61.1312 104.009 60.4639 104.14 59.8386 104.14C58.8119 104.14 58.0046 103.841 57.4166 103.244C56.8379 102.647 56.5486 101.821 56.5486 100.766C56.5486 99.7207 56.8332 98.8947 57.4026 98.288C57.9719 97.672 58.7419 97.364 59.7126 97.364C60.5432 97.364 61.1826 97.5927 61.6306 98.05C62.0879 98.498 62.3166 99.128 62.3166 99.94C62.3166 100.155 62.2932 100.425 62.2466 100.752L62.0366 100.976ZM60.6926 99.73C60.6926 99.3567 60.6086 99.0767 60.4406 98.89C60.2726 98.694 60.0252 98.596 59.6986 98.596C59.3346 98.596 59.0312 98.7173 58.7886 98.96C58.5459 99.1933 58.3826 99.534 58.2986 99.982L60.6646 99.926L60.6926 99.73ZM65.7841 97.378C66.4188 97.378 67.0161 97.4853 67.5761 97.7L67.3241 99.072L67.1001 99.142C66.8294 98.9647 66.5588 98.8293 66.2881 98.736C66.0174 98.6427 65.7794 98.596 65.5741 98.596C65.3501 98.596 65.1728 98.6567 65.0421 98.778C64.9114 98.89 64.8461 99.03 64.8461 99.198C64.8461 99.394 64.9301 99.5527 65.0981 99.674C65.2754 99.7953 65.5508 99.9307 65.9241 100.08C66.2974 100.229 66.6054 100.374 66.8481 100.514C67.0908 100.654 67.2961 100.85 67.4641 101.102C67.6414 101.345 67.7301 101.648 67.7301 102.012C67.7301 102.385 67.6321 102.735 67.4361 103.062C67.2494 103.379 66.9601 103.641 66.5681 103.846C66.1761 104.042 65.6954 104.14 65.1261 104.14C64.4541 104.14 63.7588 104 63.0401 103.72L63.2501 102.264L63.4321 102.152C63.7214 102.395 64.0434 102.591 64.3981 102.74C64.7528 102.88 65.0654 102.95 65.3361 102.95C65.5881 102.95 65.7841 102.889 65.9241 102.768C66.0641 102.637 66.1341 102.483 66.1341 102.306C66.1341 102.11 66.0454 101.951 65.8681 101.83C65.7001 101.709 65.4294 101.573 65.0561 101.424C64.6734 101.256 64.3608 101.107 64.1181 100.976C63.8754 100.836 63.6654 100.64 63.4881 100.388C63.3201 100.136 63.2361 99.8233 63.2361 99.45C63.2361 98.8433 63.4648 98.3487 63.9221 97.966C64.3794 97.574 65.0001 97.378 65.7841 97.378ZM71.6471 97.364C71.9551 97.364 72.2585 97.3967 72.5571 97.462C72.8651 97.518 73.1358 97.602 73.3691 97.714L73.0611 99.198L72.9071 99.268C72.4311 99.0067 72.0065 98.876 71.6331 98.876C71.2038 98.876 70.8725 99.03 70.6391 99.338C70.4058 99.646 70.2891 100.085 70.2891 100.654C70.2891 101.307 70.4151 101.807 70.6671 102.152C70.9191 102.497 71.2785 102.67 71.7451 102.67C72.1651 102.67 72.6318 102.553 73.1451 102.32L73.2851 102.432L73.1031 103.874C72.5431 104.051 71.9691 104.14 71.3811 104.14C70.4851 104.14 69.7851 103.851 69.2811 103.272C68.7771 102.684 68.5251 101.867 68.5251 100.822C68.5251 99.7393 68.8005 98.8947 69.3511 98.288C69.9018 97.672 70.6671 97.364 71.6471 97.364ZM74.4859 101.312L74.4159 97.616L76.2499 97.462L76.1659 101.13L76.2499 104H74.3879L74.4859 101.312ZM75.3679 94.298C75.6572 94.298 75.8812 94.382 76.0399 94.55C76.2079 94.718 76.2919 94.9513 76.2919 95.25C76.2919 95.5673 76.2032 95.8193 76.0259 96.006C75.8485 96.1927 75.6059 96.286 75.2979 96.286C74.9899 96.286 74.7519 96.202 74.5839 96.034C74.4252 95.866 74.3459 95.628 74.3459 95.32C74.3459 95.012 74.4345 94.7647 74.6119 94.578C74.7985 94.3913 75.0505 94.298 75.3679 94.298ZM85.8083 104L85.9203 99.94C85.9203 99.2493 85.6263 98.904 85.0383 98.904C84.6183 98.904 84.1796 99.0907 83.7223 99.464L83.6803 101.144L83.7643 104H81.9023L82.0143 99.94C82.0236 99.604 81.9489 99.3473 81.7903 99.17C81.6409 98.9927 81.4216 98.904 81.1323 98.904C80.7216 98.904 80.2689 99.1 79.7743 99.492V101.13L79.8583 104H78.0103L78.1083 101.312L78.0383 97.616L79.7883 97.462V98.414H79.8863C80.3996 97.9473 80.9643 97.6113 81.5803 97.406C82.6256 97.406 83.2929 97.756 83.5823 98.456H83.6663C84.1983 97.9613 84.8049 97.6113 85.4863 97.406C86.1956 97.406 86.7323 97.5693 87.0963 97.896C87.4696 98.2133 87.6469 98.6753 87.6283 99.282L87.5863 101.144L87.6703 104H85.8083ZM94.3432 100.976L90.5632 101.004C90.6472 102.171 91.2399 102.754 92.3412 102.754C92.9199 102.754 93.5639 102.591 94.2732 102.264L94.4272 102.362L94.1472 103.748C93.4379 104.009 92.7706 104.14 92.1452 104.14C91.1186 104.14 90.3112 103.841 89.7232 103.244C89.1446 102.647 88.8552 101.821 88.8552 100.766C88.8552 99.7207 89.1399 98.8947 89.7092 98.288C90.2786 97.672 91.0486 97.364 92.0192 97.364C92.8499 97.364 93.4892 97.5927 93.9372 98.05C94.3946 98.498 94.6232 99.128 94.6232 99.94C94.6232 100.155 94.5999 100.425 94.5532 100.752L94.3432 100.976ZM92.9992 99.73C92.9992 99.3567 92.9152 99.0767 92.7472 98.89C92.5792 98.694 92.3319 98.596 92.0052 98.596C91.6412 98.596 91.3379 98.7173 91.0952 98.96C90.8526 99.1933 90.6892 99.534 90.6052 99.982L92.9712 99.926L92.9992 99.73ZM99.9107 99.94C99.9201 99.6133 99.8454 99.3613 99.6867 99.184C99.5374 98.9973 99.3181 98.904 99.0287 98.904C98.6087 98.904 98.1607 99.1047 97.6847 99.506V101.13L97.7687 104H95.9067L96.0047 101.312L95.9347 97.616L97.6987 97.462V98.414H97.7967C98.3101 97.9473 98.8701 97.6113 99.4767 97.406C100.186 97.406 100.727 97.5693 101.101 97.896C101.474 98.2133 101.651 98.6753 101.633 99.282L101.591 101.144L101.675 104H99.7987L99.9107 99.94ZM105.949 102.628C106.248 102.628 106.56 102.549 106.887 102.39L107.041 102.53L106.859 103.636C106.383 103.879 105.898 104.028 105.403 104.084C104.143 103.953 103.513 103.337 103.513 102.236L103.583 101.074L103.569 98.666H102.701L102.631 98.568L102.729 97.546H103.555V96.468L105.249 95.922L105.375 96.034L105.333 97.546H106.999L107.055 97.644L106.971 98.666H105.305L105.221 101.802C105.221 102.101 105.277 102.315 105.389 102.446C105.501 102.567 105.688 102.628 105.949 102.628ZM110.654 97.364C111.606 97.364 112.334 97.644 112.838 98.204C113.342 98.764 113.594 99.5713 113.594 100.626C113.594 101.765 113.323 102.637 112.782 103.244C112.24 103.841 111.461 104.14 110.444 104.14C109.492 104.14 108.764 103.86 108.26 103.3C107.756 102.74 107.504 101.933 107.504 100.878C107.504 99.7393 107.774 98.8713 108.316 98.274C108.857 97.6673 109.636 97.364 110.654 97.364ZM110.528 98.624C110.08 98.624 109.753 98.7733 109.548 99.072C109.352 99.3707 109.254 99.8513 109.254 100.514C109.254 101.373 109.356 101.984 109.562 102.348C109.767 102.712 110.103 102.894 110.57 102.894C111.018 102.894 111.34 102.749 111.536 102.46C111.741 102.161 111.844 101.676 111.844 101.004C111.844 100.155 111.736 99.548 111.522 99.184C111.316 98.8107 110.985 98.624 110.528 98.624ZM122.029 100.976L118.249 101.004C118.333 102.171 118.925 102.754 120.027 102.754C120.605 102.754 121.249 102.591 121.959 102.264L122.113 102.362L121.833 103.748C121.123 104.009 120.456 104.14 119.831 104.14C118.804 104.14 117.997 103.841 117.409 103.244C116.83 102.647 116.541 101.821 116.541 100.766C116.541 99.7207 116.825 98.8947 117.395 98.288C117.964 97.672 118.734 97.364 119.705 97.364C120.535 97.364 121.175 97.5927 121.623 98.05C122.08 98.498 122.309 99.128 122.309 99.94C122.309 100.155 122.285 100.425 122.239 100.752L122.029 100.976ZM120.685 99.73C120.685 99.3567 120.601 99.0767 120.433 98.89C120.265 98.694 120.017 98.596 119.691 98.596C119.327 98.596 119.023 98.7173 118.781 98.96C118.538 99.1933 118.375 99.534 118.291 99.982L120.657 99.926L120.685 99.73ZM41.5038 117.13L41.5458 118.306C41.5458 118.465 41.5644 118.577 41.6018 118.642C41.6484 118.698 41.7278 118.726 41.8398 118.726C41.9424 118.726 42.0684 118.707 42.2178 118.67L42.3438 118.782L42.1898 119.762C41.8724 119.958 41.5271 120.075 41.1538 120.112C40.8644 120.084 40.6218 119.986 40.4258 119.818C40.2298 119.65 40.0944 119.421 40.0198 119.132H39.9078C39.4504 119.552 38.9838 119.874 38.5078 120.098C37.5931 120.098 36.8838 119.809 36.3798 119.23C35.8758 118.642 35.6238 117.83 35.6238 116.794C35.6238 115.693 35.9131 114.848 36.4918 114.26C37.0704 113.672 37.8731 113.378 38.8998 113.378C39.1704 113.378 39.4691 113.406 39.7958 113.462L39.7678 110.312L41.6158 110.172L41.5038 117.13ZM38.7738 114.638C37.8404 114.638 37.3738 115.231 37.3738 116.416C37.3738 117.153 37.4858 117.709 37.7098 118.082C37.9338 118.455 38.2604 118.642 38.6898 118.642C39.1004 118.642 39.4784 118.451 39.8238 118.068L39.8518 117.298L39.8098 114.89C39.4458 114.722 39.1004 114.638 38.7738 114.638ZM48.4809 116.976L44.7009 117.004C44.7849 118.171 45.3776 118.754 46.4789 118.754C47.0576 118.754 47.7016 118.591 48.4109 118.264L48.5649 118.362L48.2849 119.748C47.5756 120.009 46.9082 120.14 46.2829 120.14C45.2562 120.14 44.4489 119.841 43.8609 119.244C43.2822 118.647 42.9929 117.821 42.9929 116.766C42.9929 115.721 43.2776 114.895 43.8469 114.288C44.4162 113.672 45.1862 113.364 46.1569 113.364C46.9876 113.364 47.6269 113.593 48.0749 114.05C48.5322 114.498 48.7609 115.128 48.7609 115.94C48.7609 116.155 48.7376 116.425 48.6909 116.752L48.4809 116.976ZM47.1369 115.73C47.1369 115.357 47.0529 115.077 46.8849 114.89C46.7169 114.694 46.4696 114.596 46.1429 114.596C45.7789 114.596 45.4756 114.717 45.2329 114.96C44.9902 115.193 44.8269 115.534 44.7429 115.982L47.1089 115.926L47.1369 115.73ZM52.2284 113.378C52.8631 113.378 53.4604 113.485 54.0204 113.7L53.7684 115.072L53.5444 115.142C53.2738 114.965 53.0031 114.829 52.7324 114.736C52.4618 114.643 52.2238 114.596 52.0184 114.596C51.7944 114.596 51.6171 114.657 51.4864 114.778C51.3558 114.89 51.2904 115.03 51.2904 115.198C51.2904 115.394 51.3744 115.553 51.5424 115.674C51.7198 115.795 51.9951 115.931 52.3684 116.08C52.7418 116.229 53.0498 116.374 53.2924 116.514C53.5351 116.654 53.7404 116.85 53.9084 117.102C54.0858 117.345 54.1744 117.648 54.1744 118.012C54.1744 118.385 54.0764 118.735 53.8804 119.062C53.6938 119.379 53.4044 119.641 53.0124 119.846C52.6204 120.042 52.1398 120.14 51.5704 120.14C50.8984 120.14 50.2031 120 49.4844 119.72L49.6944 118.264L49.8764 118.152C50.1658 118.395 50.4878 118.591 50.8424 118.74C51.1971 118.88 51.5098 118.95 51.7804 118.95C52.0324 118.95 52.2284 118.889 52.3684 118.768C52.5084 118.637 52.5784 118.483 52.5784 118.306C52.5784 118.11 52.4898 117.951 52.3124 117.83C52.1444 117.709 51.8738 117.573 51.5004 117.424C51.1178 117.256 50.8051 117.107 50.5624 116.976C50.3198 116.836 50.1098 116.64 49.9324 116.388C49.7644 116.136 49.6804 115.823 49.6804 115.45C49.6804 114.843 49.9091 114.349 50.3664 113.966C50.8238 113.574 51.4444 113.378 52.2284 113.378ZM60.4575 116.976L56.6775 117.004C56.7615 118.171 57.3541 118.754 58.4555 118.754C59.0341 118.754 59.6781 118.591 60.3875 118.264L60.5415 118.362L60.2615 119.748C59.5521 120.009 58.8848 120.14 58.2595 120.14C57.2328 120.14 56.4255 119.841 55.8375 119.244C55.2588 118.647 54.9695 117.821 54.9695 116.766C54.9695 115.721 55.2541 114.895 55.8235 114.288C56.3928 113.672 57.1628 113.364 58.1335 113.364C58.9641 113.364 59.6035 113.593 60.0515 114.05C60.5088 114.498 60.7375 115.128 60.7375 115.94C60.7375 116.155 60.7141 116.425 60.6675 116.752L60.4575 116.976ZM59.1135 115.73C59.1135 115.357 59.0295 115.077 58.8615 114.89C58.6935 114.694 58.4461 114.596 58.1195 114.596C57.7555 114.596 57.4521 114.717 57.2095 114.96C56.9668 115.193 56.8035 115.534 56.7195 115.982L59.0855 115.926L59.1135 115.73ZM66.025 115.94C66.0343 115.613 65.9597 115.361 65.801 115.184C65.6517 114.997 65.4323 114.904 65.143 114.904C64.723 114.904 64.275 115.105 63.799 115.506V117.13L63.883 120H62.021L62.119 117.312L62.049 113.616L63.813 113.462V114.414H63.911C64.4243 113.947 64.9843 113.611 65.591 113.406C66.3003 113.406 66.8417 113.569 67.215 113.896C67.5883 114.213 67.7657 114.675 67.747 115.282L67.705 117.144L67.789 120H65.913L66.025 115.94ZM70.4441 114.526L71.4241 118.25H71.5221L72.6981 114.624L72.9361 113.49H74.5601L72.3761 120H70.3741L68.5261 113.532L70.2621 113.448L70.4441 114.526ZM77.9984 113.364C78.9504 113.364 79.6784 113.644 80.1824 114.204C80.6864 114.764 80.9384 115.571 80.9384 116.626C80.9384 117.765 80.6677 118.637 80.1264 119.244C79.585 119.841 78.8057 120.14 77.7884 120.14C76.8364 120.14 76.1084 119.86 75.6044 119.3C75.1004 118.74 74.8484 117.933 74.8484 116.878C74.8484 115.739 75.119 114.871 75.6604 114.274C76.2017 113.667 76.981 113.364 77.9984 113.364ZM77.8724 114.624C77.4244 114.624 77.0977 114.773 76.8924 115.072C76.6964 115.371 76.5984 115.851 76.5984 116.514C76.5984 117.373 76.701 117.984 76.9064 118.348C77.1117 118.712 77.4477 118.894 77.9144 118.894C78.3624 118.894 78.6844 118.749 78.8804 118.46C79.0857 118.161 79.1884 117.676 79.1884 117.004C79.1884 116.155 79.081 115.548 78.8664 115.184C78.661 114.811 78.3297 114.624 77.8724 114.624ZM84.0344 117.13L84.1324 120H82.2704L82.3684 117.298L82.2844 110.312L84.1464 110.172L84.0344 117.13ZM87.1101 114.526L88.0901 118.25H88.1881L89.3641 114.624L89.6021 113.49H91.2261L89.0421 120H87.0401L85.1921 113.532L86.9281 113.448L87.1101 114.526ZM92.2525 117.312L92.1825 113.616L94.0165 113.462L93.9325 117.13L94.0165 120H92.1545L92.2525 117.312ZM93.1345 110.298C93.4238 110.298 93.6478 110.382 93.8065 110.55C93.9745 110.718 94.0585 110.951 94.0585 111.25C94.0585 111.567 93.9698 111.819 93.7925 112.006C93.6151 112.193 93.3725 112.286 93.0645 112.286C92.7565 112.286 92.5185 112.202 92.3505 112.034C92.1918 111.866 92.1125 111.628 92.1125 111.32C92.1125 111.012 92.2011 110.765 92.3785 110.578C92.5651 110.391 92.8171 110.298 93.1345 110.298ZM103.575 120L103.687 115.94C103.687 115.249 103.393 114.904 102.805 114.904C102.385 114.904 101.946 115.091 101.489 115.464L101.447 117.144L101.531 120H99.6689L99.7809 115.94C99.7902 115.604 99.7155 115.347 99.5569 115.17C99.4075 114.993 99.1882 114.904 98.8989 114.904C98.4882 114.904 98.0355 115.1 97.5409 115.492V117.13L97.6249 120H95.7769L95.8749 117.312L95.8049 113.616L97.5549 113.462V114.414H97.6529C98.1662 113.947 98.7309 113.611 99.3469 113.406C100.392 113.406 101.06 113.756 101.349 114.456H101.433C101.965 113.961 102.572 113.611 103.253 113.406C103.962 113.406 104.499 113.569 104.863 113.896C105.236 114.213 105.414 114.675 105.395 115.282L105.353 117.144L105.437 120H103.575ZM112.11 116.976L108.33 117.004C108.414 118.171 109.006 118.754 110.108 118.754C110.686 118.754 111.33 118.591 112.04 118.264L112.194 118.362L111.914 119.748C111.204 120.009 110.537 120.14 109.912 120.14C108.885 120.14 108.078 119.841 107.49 119.244C106.911 118.647 106.622 117.821 106.622 116.766C106.622 115.721 106.906 114.895 107.476 114.288C108.045 113.672 108.815 113.364 109.786 113.364C110.616 113.364 111.256 113.593 111.704 114.05C112.161 114.498 112.39 115.128 112.39 115.94C112.39 116.155 112.366 116.425 112.32 116.752L112.11 116.976ZM110.766 115.73C110.766 115.357 110.682 115.077 110.514 114.89C110.346 114.694 110.098 114.596 109.772 114.596C109.408 114.596 109.104 114.717 108.862 114.96C108.619 115.193 108.456 115.534 108.372 115.982L110.738 115.926L110.766 115.73ZM117.677 115.94C117.687 115.613 117.612 115.361 117.453 115.184C117.304 114.997 117.085 114.904 116.795 114.904C116.375 114.904 115.927 115.105 115.451 115.506V117.13L115.535 120H113.673L113.771 117.312L113.701 113.616L115.465 113.462V114.414H115.563C116.077 113.947 116.637 113.611 117.243 113.406C117.953 113.406 118.494 113.569 118.867 113.896C119.241 114.213 119.418 114.675 119.399 115.282L119.357 117.144L119.441 120H117.565L117.677 115.94ZM123.715 118.628C124.014 118.628 124.327 118.549 124.653 118.39L124.807 118.53L124.625 119.636C124.149 119.879 123.664 120.028 123.169 120.084C121.909 119.953 121.279 119.337 121.279 118.236L121.349 117.074L121.335 114.666H120.467L120.397 114.568L120.495 113.546H121.321V112.468L123.015 111.922L123.141 112.034L123.099 113.546H124.765L124.821 113.644L124.737 114.666H123.071L122.987 117.802C122.987 118.101 123.043 118.315 123.155 118.446C123.267 118.567 123.454 118.628 123.715 118.628ZM128.42 113.364C129.372 113.364 130.1 113.644 130.604 114.204C131.108 114.764 131.36 115.571 131.36 116.626C131.36 117.765 131.09 118.637 130.548 119.244C130.007 119.841 129.228 120.14 128.21 120.14C127.258 120.14 126.53 119.86 126.026 119.3C125.522 118.74 125.27 117.933 125.27 116.878C125.27 115.739 125.541 114.871 126.082 114.274C126.624 113.667 127.403 113.364 128.42 113.364ZM128.294 114.624C127.846 114.624 127.52 114.773 127.314 115.072C127.118 115.371 127.02 115.851 127.02 116.514C127.02 117.373 127.123 117.984 127.328 118.348C127.534 118.712 127.87 118.894 128.336 118.894C128.784 118.894 129.106 118.749 129.302 118.46C129.508 118.161 129.61 117.676 129.61 117.004C129.61 116.155 129.503 115.548 129.288 115.184C129.083 114.811 128.752 114.624 128.294 114.624ZM54.5615 129.364C55.2802 129.364 55.8402 129.527 56.2415 129.854C56.6522 130.171 56.8575 130.619 56.8575 131.198C56.8575 131.366 56.8295 131.898 56.7735 132.794C56.7642 133.055 56.7502 133.326 56.7315 133.606C56.7128 133.877 56.7035 134.11 56.7035 134.306C56.7035 134.465 56.7268 134.577 56.7735 134.642C56.8202 134.698 56.9042 134.726 57.0255 134.726C57.1188 134.726 57.2402 134.707 57.3895 134.67L57.5295 134.782L57.3615 135.762C57.0628 135.958 56.7222 136.075 56.3395 136.112C56.0595 136.084 55.8262 135.986 55.6395 135.818C55.4528 135.641 55.3268 135.398 55.2615 135.09H55.1635C54.6968 135.585 54.2162 135.93 53.7215 136.126C53.0495 136.117 52.5222 135.939 52.1395 135.594C51.7568 135.249 51.5655 134.777 51.5655 134.18C51.5655 133.713 51.6822 133.349 51.9155 133.088C52.1582 132.817 52.5222 132.635 53.0075 132.542L55.1495 132.136V131.562C55.1495 130.955 54.8508 130.652 54.2535 130.652C53.9642 130.652 53.6562 130.717 53.3295 130.848C53.0122 130.979 52.6528 131.184 52.2515 131.464L52.1115 131.38L51.9015 130.148C52.3028 129.896 52.7322 129.705 53.1895 129.574C53.6468 129.434 54.1042 129.364 54.5615 129.364ZM53.6515 133.396C53.5022 133.433 53.3902 133.499 53.3155 133.592C53.2502 133.676 53.2175 133.807 53.2175 133.984C53.2175 134.227 53.2828 134.418 53.4135 134.558C53.5442 134.689 53.7262 134.754 53.9595 134.754C54.3235 134.754 54.7062 134.539 55.1075 134.11L55.1355 133.074L53.6515 133.396ZM64.1717 133.13L64.2137 134.306C64.2137 134.465 64.2324 134.577 64.2697 134.642C64.3164 134.698 64.3957 134.726 64.5077 134.726C64.6104 134.726 64.7364 134.707 64.8857 134.67L65.0117 134.782L64.8577 135.762C64.5404 135.958 64.1951 136.075 63.8217 136.112C63.5324 136.084 63.2897 135.986 63.0937 135.818C62.8977 135.65 62.7624 135.421 62.6877 135.132H62.5757C62.1184 135.552 61.6517 135.874 61.1757 136.098C60.2611 136.098 59.5517 135.809 59.0477 135.23C58.5437 134.642 58.2917 133.83 58.2917 132.794C58.2917 131.693 58.5811 130.848 59.1597 130.26C59.7384 129.672 60.5411 129.378 61.5677 129.378C61.8384 129.378 62.1371 129.406 62.4637 129.462L62.4357 126.312L64.2837 126.172L64.1717 133.13ZM61.4417 130.638C60.5084 130.638 60.0417 131.231 60.0417 132.416C60.0417 133.153 60.1537 133.709 60.3777 134.082C60.6017 134.455 60.9284 134.642 61.3577 134.642C61.7684 134.642 62.1464 134.451 62.4917 134.068L62.5197 133.298L62.4777 130.89C62.1137 130.722 61.7684 130.638 61.4417 130.638ZM71.1489 132.976L67.3689 133.004C67.4529 134.171 68.0455 134.754 69.1469 134.754C69.7255 134.754 70.3695 134.591 71.0789 134.264L71.2329 134.362L70.9529 135.748C70.2435 136.009 69.5762 136.14 68.9509 136.14C67.9242 136.14 67.1169 135.841 66.5289 135.244C65.9502 134.647 65.6609 133.821 65.6609 132.766C65.6609 131.721 65.9455 130.895 66.5149 130.288C67.0842 129.672 67.8542 129.364 68.8249 129.364C69.6555 129.364 70.2949 129.593 70.7429 130.05C71.2002 130.498 71.4289 131.128 71.4289 131.94C71.4289 132.155 71.4055 132.425 71.3589 132.752L71.1489 132.976ZM69.8049 131.73C69.8049 131.357 69.7209 131.077 69.5529 130.89C69.3849 130.694 69.1375 130.596 68.8109 130.596C68.4469 130.596 68.1435 130.717 67.9009 130.96C67.6582 131.193 67.4949 131.534 67.4109 131.982L69.7769 131.926L69.8049 131.73ZM78.1024 129.378L78.2564 129.462L78.1444 133.13L78.2424 138.59H76.3944L76.4784 135.65V135.3H76.3664C75.9837 135.627 75.5637 135.893 75.1064 136.098C74.2011 136.098 73.5011 135.809 73.0064 135.23C72.5117 134.642 72.2644 133.839 72.2644 132.822C72.2644 131.711 72.5537 130.862 73.1324 130.274C73.7111 129.677 74.4857 129.378 75.4564 129.378C75.9604 129.378 76.5204 129.481 77.1364 129.686L78.1024 129.378ZM75.4004 130.638C74.4764 130.638 74.0144 131.254 74.0144 132.486C74.0144 133.186 74.1217 133.723 74.3364 134.096C74.5604 134.46 74.8824 134.642 75.3024 134.642C75.4984 134.642 75.6897 134.6 75.8764 134.516C76.0724 134.423 76.2731 134.273 76.4784 134.068L76.4924 133.326L76.4504 130.932C76.0771 130.736 75.7271 130.638 75.4004 130.638ZM86.1882 134.782L86.0202 135.762C85.6748 135.986 85.3202 136.103 84.9562 136.112C84.6855 136.065 84.4615 135.958 84.2842 135.79C84.1068 135.622 83.9715 135.379 83.8782 135.062H83.7522C83.2202 135.585 82.6695 135.925 82.1002 136.084C81.3908 136.084 80.8495 135.925 80.4762 135.608C80.1122 135.281 79.9348 134.815 79.9442 134.208L79.9722 132.556L79.9022 129.616L81.7082 129.462L81.6662 133.592C81.6568 133.919 81.7222 134.166 81.8622 134.334C82.0022 134.502 82.2122 134.586 82.4922 134.586C82.9028 134.586 83.3088 134.404 83.7102 134.04V129.616L85.4882 129.462L85.3622 134.306C85.3622 134.455 85.3855 134.563 85.4322 134.628C85.4882 134.693 85.5722 134.726 85.6842 134.726C85.7868 134.726 85.9128 134.707 86.0622 134.67L86.1882 134.782ZM89.8486 129.364C90.5673 129.364 91.1273 129.527 91.5286 129.854C91.9393 130.171 92.1446 130.619 92.1446 131.198C92.1446 131.366 92.1166 131.898 92.0606 132.794C92.0513 133.055 92.0373 133.326 92.0186 133.606C92 133.877 91.9906 134.11 91.9906 134.306C91.9906 134.465 92.014 134.577 92.0606 134.642C92.1073 134.698 92.1913 134.726 92.3126 134.726C92.406 134.726 92.5273 134.707 92.6766 134.67L92.8166 134.782L92.6486 135.762C92.35 135.958 92.0093 136.075 91.6266 136.112C91.3466 136.084 91.1133 135.986 90.9266 135.818C90.74 135.641 90.614 135.398 90.5486 135.09H90.4506C89.984 135.585 89.5033 135.93 89.0086 136.126C88.3366 136.117 87.8093 135.939 87.4266 135.594C87.044 135.249 86.8526 134.777 86.8526 134.18C86.8526 133.713 86.9693 133.349 87.2026 133.088C87.4453 132.817 87.8093 132.635 88.2946 132.542L90.4366 132.136V131.562C90.4366 130.955 90.138 130.652 89.5406 130.652C89.2513 130.652 88.9433 130.717 88.6166 130.848C88.2993 130.979 87.94 131.184 87.5386 131.464L87.3986 131.38L87.1886 130.148C87.59 129.896 88.0193 129.705 88.4766 129.574C88.934 129.434 89.3913 129.364 89.8486 129.364ZM88.9386 133.396C88.7893 133.433 88.6773 133.499 88.6026 133.592C88.5373 133.676 88.5046 133.807 88.5046 133.984C88.5046 134.227 88.57 134.418 88.7006 134.558C88.8313 134.689 89.0133 134.754 89.2466 134.754C89.6106 134.754 89.9933 134.539 90.3946 134.11L90.4226 133.074L88.9386 133.396ZM99.4589 133.13L99.5009 134.306C99.5009 134.465 99.5195 134.577 99.5569 134.642C99.6035 134.698 99.6829 134.726 99.7949 134.726C99.8975 134.726 100.024 134.707 100.173 134.67L100.299 134.782L100.145 135.762C99.8275 135.958 99.4822 136.075 99.1089 136.112C98.8195 136.084 98.5769 135.986 98.3809 135.818C98.1849 135.65 98.0495 135.421 97.9749 135.132H97.8629C97.4055 135.552 96.9389 135.874 96.4629 136.098C95.5482 136.098 94.8389 135.809 94.3349 135.23C93.8309 134.642 93.5789 133.83 93.5789 132.794C93.5789 131.693 93.8682 130.848 94.4469 130.26C95.0255 129.672 95.8282 129.378 96.8549 129.378C97.1255 129.378 97.4242 129.406 97.7509 129.462L97.7229 126.312L99.5709 126.172L99.4589 133.13ZM96.7289 130.638C95.7955 130.638 95.3289 131.231 95.3289 132.416C95.3289 133.153 95.4409 133.709 95.6649 134.082C95.8889 134.455 96.2155 134.642 96.6449 134.642C97.0555 134.642 97.4335 134.451 97.7789 134.068L97.8069 133.298L97.7649 130.89C97.4009 130.722 97.0555 130.638 96.7289 130.638ZM104.098 129.364C105.05 129.364 105.778 129.644 106.282 130.204C106.786 130.764 107.038 131.571 107.038 132.626C107.038 133.765 106.767 134.637 106.226 135.244C105.685 135.841 104.905 136.14 103.888 136.14C102.936 136.14 102.208 135.86 101.704 135.3C101.2 134.74 100.948 133.933 100.948 132.878C100.948 131.739 101.219 130.871 101.76 130.274C102.301 129.667 103.081 129.364 104.098 129.364ZM103.972 130.624C103.524 130.624 103.197 130.773 102.992 131.072C102.796 131.371 102.698 131.851 102.698 132.514C102.698 133.373 102.801 133.984 103.006 134.348C103.211 134.712 103.547 134.894 104.014 134.894C104.462 134.894 104.784 134.749 104.98 134.46C105.185 134.161 105.288 133.676 105.288 133.004C105.288 132.155 105.181 131.548 104.966 131.184C104.761 130.811 104.429 130.624 103.972 130.624ZM110.498 129.378C111.133 129.378 111.73 129.485 112.29 129.7L112.038 131.072L111.814 131.142C111.543 130.965 111.273 130.829 111.002 130.736C110.731 130.643 110.493 130.596 110.288 130.596C110.064 130.596 109.887 130.657 109.756 130.778C109.625 130.89 109.56 131.03 109.56 131.198C109.56 131.394 109.644 131.553 109.812 131.674C109.989 131.795 110.265 131.931 110.638 132.08C111.011 132.229 111.319 132.374 111.562 132.514C111.805 132.654 112.01 132.85 112.178 133.102C112.355 133.345 112.444 133.648 112.444 134.012C112.444 134.385 112.346 134.735 112.15 135.062C111.963 135.379 111.674 135.641 111.282 135.846C110.89 136.042 110.409 136.14 109.84 136.14C109.168 136.14 108.473 136 107.754 135.72L107.964 134.264L108.146 134.152C108.435 134.395 108.757 134.591 109.112 134.74C109.467 134.88 109.779 134.95 110.05 134.95C110.302 134.95 110.498 134.889 110.638 134.768C110.778 134.637 110.848 134.483 110.848 134.306C110.848 134.11 110.759 133.951 110.582 133.83C110.414 133.709 110.143 133.573 109.77 133.424C109.387 133.256 109.075 133.107 108.832 132.976C108.589 132.836 108.379 132.64 108.202 132.388C108.034 132.136 107.95 131.823 107.95 131.45C107.95 130.843 108.179 130.349 108.636 129.966C109.093 129.574 109.714 129.378 110.498 129.378ZM114.293 134.11C114.583 134.11 114.807 134.194 114.965 134.362C115.133 134.53 115.217 134.763 115.217 135.062C115.217 135.379 115.129 135.631 114.951 135.818C114.774 136.005 114.531 136.098 114.223 136.098C113.915 136.098 113.677 136.014 113.509 135.846C113.351 135.678 113.271 135.44 113.271 135.132C113.271 134.824 113.36 134.577 113.537 134.39C113.724 134.203 113.976 134.11 114.293 134.11Z" fill="white"/>
<defs>
<filter id="filter0_b_152:11547" x="3" y="67" width="161" height="97" filterUnits="userSpaceOnUse" color-interpolation-filters="sRGB">
<feFlood flood-opacity="0" result="BackgroundImageFix"/>
<feGaussianBlur in="BackgroundImage" stdDeviation="5"/>
<feComposite in2="SourceAlpha" operator="in" result="effect1_backgroundBlur_152:11547"/>
<feBlend mode="normal" in="SourceGraphic" in2="effect1_backgroundBlur_152:11547" result="shape"/>
</filter>
<clipPath id="clip0_152:11547">
<rect width="55.9577" height="56.7243" fill="white" transform="translate(56.1009 11.6379)"/>
</clipPath>
</defs>
</svg>
