<svg width="167" height="167" viewBox="0 0 167 167" fill="none" xmlns="http://www.w3.org/2000/svg">
<mask id="mask0_152:18432" style="mask-type:alpha" maskUnits="userSpaceOnUse" x="0" y="0" width="167" height="167">
<rect x="1" y="1" width="165" height="165" rx="8" fill="#5988D6" stroke="#EDE6FC" stroke-opacity="0.3"/>
</mask>
<g mask="url(#mask0_152:18432)">
<rect x="1" y="1" width="165" height="165" rx="8" fill="#D97A7A" stroke="#EDE6FC" stroke-opacity="0.3"/>
<path d="M115.409 45.2422L72.8639 69.8442C71.1852 70.8139 68.4643 70.8139 66.7855 69.8442L51.5914 61.0579C50.7521 60.5722 50.3333 59.9375 50.3333 59.301V55.871L94.1346 32.9421C95.8133 31.9725 98.5342 31.9725 100.213 32.9421L116.665 40.0497C116.665 41.0882 116.656 42.8358 116.665 43.463C116.676 44.1051 116.258 44.7509 115.409 45.2422Z" fill="#99AAB5"/>
<path d="M115.409 41.8625L72.8639 66.4645C71.1852 67.4341 68.4643 67.4341 66.7855 66.4645L51.5914 57.6782C49.9127 56.7085 49.9127 55.134 51.5914 54.1644L94.1364 29.5624C95.8152 28.5927 98.5361 28.5927 100.215 29.5624L115.409 38.3487C117.086 39.3183 117.086 40.8928 115.409 41.8625Z" fill="#CCD6DD"/>
<path d="M111.417 39.3816V24.3382L98.3889 16.8174L74.1163 30.7795V45.8229L87.144 53.3455L111.417 39.3816Z" fill="#FFE8B6"/>
<path d="M111.417 39.3816V24.3383L87.144 38.3022L74.1163 30.7796V45.8229L87.144 53.3455L111.417 39.3816Z" fill="#FFD983"/>
<path d="M111.417 39.3816V24.3383L87.1441 38.3022V53.3455L111.417 39.3816Z" fill="#FFCC4D"/>
<path d="M81.9776 56.6731V52.9286L68.9498 45.4078L55.5833 52.9937V56.7383L68.6111 64.259L81.9776 56.6731Z" fill="#FFE8B6"/>
<path d="M81.9776 56.6731V52.9286L68.9498 60.4828L55.5833 52.9937V56.7383L68.6111 64.259L81.9776 56.6731Z" fill="#FFD983"/>
<path d="M81.9776 56.6731V52.9286L68.9498 60.4828L68.6111 64.259L81.9776 56.6731Z" fill="#FFCC4D"/>
</g>
<g filter="url(#filter0_b_152:18432)">
<rect x="13" y="77" width="141" height="77" rx="10" fill="black" fill-opacity="0.8"/>
</g>
<path d="M53.7297 96H51.7977L51.5737 94.824L51.3357 93.984L49.5717 93.942L48.0177 93.984L47.7797 94.726L47.5417 96H45.6657L48.7177 86.984H50.9717L53.7297 96ZM50.9297 92.514L49.8657 88.762H49.7397L48.5077 92.514L49.7117 92.542L50.9297 92.514ZM64.7194 96L64.8314 91.94C64.8314 91.2493 64.5374 90.904 63.9494 90.904C63.5294 90.904 63.0907 91.0907 62.6334 91.464L62.5914 93.144L62.6754 96H60.8134L60.9254 91.94C60.9347 91.604 60.86 91.3473 60.7014 91.17C60.552 90.9927 60.3327 90.904 60.0434 90.904C59.6327 90.904 59.18 91.1 58.6854 91.492V93.13L58.7694 96H56.9214L57.0194 93.312L56.9494 89.616L58.6994 89.462V90.414H58.7974C59.3107 89.9473 59.8754 89.6113 60.4914 89.406C61.5367 89.406 62.204 89.756 62.4934 90.456H62.5774C63.1094 89.9613 63.716 89.6113 64.3974 89.406C65.1067 89.406 65.6434 89.5693 66.0074 89.896C66.3807 90.2133 66.5581 90.6753 66.5394 91.282L66.4974 93.144L66.5814 96H64.7194ZM70.7764 89.364C71.495 89.364 72.055 89.5273 72.4564 89.854C72.867 90.1713 73.0724 90.6193 73.0724 91.198C73.0724 91.366 73.0444 91.898 72.9884 92.794C72.979 93.0553 72.965 93.326 72.9464 93.606C72.9277 93.8767 72.9184 94.11 72.9184 94.306C72.9184 94.4647 72.9417 94.5767 72.9884 94.642C73.035 94.698 73.119 94.726 73.2404 94.726C73.3337 94.726 73.455 94.7073 73.6044 94.67L73.7444 94.782L73.5764 95.762C73.2777 95.958 72.937 96.0747 72.5544 96.112C72.2744 96.084 72.041 95.986 71.8544 95.818C71.6677 95.6407 71.5417 95.398 71.4764 95.09H71.3784C70.9117 95.5847 70.431 95.93 69.9364 96.126C69.2644 96.1167 68.737 95.9393 68.3544 95.594C67.9717 95.2487 67.7804 94.7773 67.7804 94.18C67.7804 93.7133 67.897 93.3493 68.1304 93.088C68.373 92.8173 68.737 92.6353 69.2224 92.542L71.3644 92.136V91.562C71.3644 90.9553 71.0657 90.652 70.4684 90.652C70.179 90.652 69.871 90.7173 69.5444 90.848C69.227 90.9787 68.8677 91.184 68.4664 91.464L68.3264 91.38L68.1164 90.148C68.5177 89.896 68.947 89.7047 69.4044 89.574C69.8617 89.434 70.319 89.364 70.7764 89.364ZM69.8664 93.396C69.717 93.4333 69.605 93.4987 69.5304 93.592C69.465 93.676 69.4324 93.8067 69.4324 93.984C69.4324 94.2267 69.4977 94.418 69.6284 94.558C69.759 94.6887 69.941 94.754 70.1744 94.754C70.5384 94.754 70.921 94.5393 71.3224 94.11L71.3504 93.074L69.8664 93.396ZM75.0806 93.312L75.0106 89.616L76.8446 89.462L76.7606 93.13L76.8446 96H74.9826L75.0806 93.312ZM75.9626 86.298C76.2519 86.298 76.4759 86.382 76.6346 86.55C76.8026 86.718 76.8866 86.9513 76.8866 87.25C76.8866 87.5673 76.7979 87.8193 76.6206 88.006C76.4433 88.1927 76.2006 88.286 75.8926 88.286C75.5846 88.286 75.3466 88.202 75.1786 88.034C75.0199 87.866 74.9406 87.628 74.9406 87.32C74.9406 87.012 75.0293 86.7647 75.2066 86.578C75.3933 86.3913 75.6453 86.298 75.9626 86.298ZM81.307 89.364C82.259 89.364 82.987 89.644 83.491 90.204C83.995 90.764 84.247 91.5713 84.247 92.626C84.247 93.7647 83.9763 94.6373 83.435 95.244C82.8936 95.8413 82.1143 96.14 81.097 96.14C80.145 96.14 79.417 95.86 78.913 95.3C78.409 94.74 78.157 93.9327 78.157 92.878C78.157 91.7393 78.4276 90.8713 78.969 90.274C79.5103 89.6673 80.2896 89.364 81.307 89.364ZM81.181 90.624C80.733 90.624 80.4063 90.7733 80.201 91.072C80.005 91.3707 79.907 91.8513 79.907 92.514C79.907 93.3727 80.0096 93.984 80.215 94.348C80.4203 94.712 80.7563 94.894 81.223 94.894C81.671 94.894 81.993 94.7493 82.189 94.46C82.3943 94.1613 82.497 93.676 82.497 93.004C82.497 92.1547 82.3896 91.548 82.175 91.184C81.9696 90.8107 81.6383 90.624 81.181 90.624ZM89.0389 89.476C89.1229 89.476 89.2396 89.4853 89.3889 89.504V91.226L89.1929 91.296C89.0342 91.2307 88.8616 91.198 88.6749 91.198C88.1336 91.198 87.6436 91.548 87.2049 92.248V93.13L87.3029 96H85.4409L85.5529 93.312L85.4689 89.616L87.2329 89.462L87.2189 90.736H87.3309C87.7882 89.896 88.3576 89.476 89.0389 89.476ZM90.4341 93.312L90.3641 89.616L92.1981 89.462L92.1141 93.13L92.1981 96H90.3361L90.4341 93.312ZM91.3161 86.298C91.6054 86.298 91.8294 86.382 91.9881 86.55C92.1561 86.718 92.2401 86.9513 92.2401 87.25C92.2401 87.5673 92.1514 87.8193 91.9741 88.006C91.7968 88.1927 91.5541 88.286 91.2461 88.286C90.9381 88.286 90.7001 88.202 90.5321 88.034C90.3734 87.866 90.2941 87.628 90.2941 87.32C90.2941 87.012 90.3828 86.7647 90.5601 86.578C90.7468 86.3913 90.9988 86.298 91.3161 86.298ZM96.5205 89.364C97.2392 89.364 97.7992 89.5273 98.2005 89.854C98.6112 90.1713 98.8165 90.6193 98.8165 91.198C98.8165 91.366 98.7885 91.898 98.7325 92.794C98.7232 93.0553 98.7092 93.326 98.6905 93.606C98.6718 93.8767 98.6625 94.11 98.6625 94.306C98.6625 94.4647 98.6858 94.5767 98.7325 94.642C98.7792 94.698 98.8632 94.726 98.9845 94.726C99.0778 94.726 99.1992 94.7073 99.3485 94.67L99.4885 94.782L99.3205 95.762C99.0218 95.958 98.6812 96.0747 98.2985 96.112C98.0185 96.084 97.7852 95.986 97.5985 95.818C97.4118 95.6407 97.2858 95.398 97.2205 95.09H97.1225C96.6558 95.5847 96.1752 95.93 95.6805 96.126C95.0085 96.1167 94.4812 95.9393 94.0985 95.594C93.7158 95.2487 93.5245 94.7773 93.5245 94.18C93.5245 93.7133 93.6412 93.3493 93.8745 93.088C94.1172 92.8173 94.4812 92.6353 94.9665 92.542L97.1085 92.136V91.562C97.1085 90.9553 96.8098 90.652 96.2125 90.652C95.9232 90.652 95.6152 90.7173 95.2885 90.848C94.9712 90.9787 94.6118 91.184 94.2105 91.464L94.0705 91.38L93.8605 90.148C94.2618 89.896 94.6912 89.7047 95.1485 89.574C95.6058 89.434 96.0632 89.364 96.5205 89.364ZM95.6105 93.396C95.4612 93.4333 95.3492 93.4987 95.2745 93.592C95.2092 93.676 95.1765 93.8067 95.1765 93.984C95.1765 94.2267 95.2418 94.418 95.3725 94.558C95.5032 94.6887 95.6852 94.754 95.9185 94.754C96.2825 94.754 96.6652 94.5393 97.0665 94.11L97.0945 93.074L95.6105 93.396ZM108.25 93.13L108.292 94.306C108.292 94.4647 108.311 94.5767 108.348 94.642C108.395 94.698 108.474 94.726 108.586 94.726C108.689 94.726 108.815 94.7073 108.964 94.67L109.09 94.782L108.936 95.762C108.619 95.958 108.273 96.0747 107.9 96.112C107.611 96.084 107.368 95.986 107.172 95.818C106.976 95.65 106.841 95.4213 106.766 95.132H106.654C106.197 95.552 105.73 95.874 105.254 96.098C104.339 96.098 103.63 95.8087 103.126 95.23C102.622 94.642 102.37 93.83 102.37 92.794C102.37 91.6927 102.659 90.848 103.238 90.26C103.817 89.672 104.619 89.378 105.646 89.378C105.917 89.378 106.215 89.406 106.542 89.462L106.514 86.312L108.362 86.172L108.25 93.13ZM105.52 90.638C104.587 90.638 104.12 91.2307 104.12 92.416C104.12 93.1533 104.232 93.7087 104.456 94.082C104.68 94.4553 105.007 94.642 105.436 94.642C105.847 94.642 106.225 94.4507 106.57 94.068L106.598 93.298L106.556 90.89C106.192 90.722 105.847 90.638 105.52 90.638ZM112.749 89.364C113.468 89.364 114.028 89.5273 114.429 89.854C114.84 90.1713 115.045 90.6193 115.045 91.198C115.045 91.366 115.017 91.898 114.961 92.794C114.952 93.0553 114.938 93.326 114.919 93.606C114.9 93.8767 114.891 94.11 114.891 94.306C114.891 94.4647 114.914 94.5767 114.961 94.642C115.008 94.698 115.092 94.726 115.213 94.726C115.306 94.726 115.428 94.7073 115.577 94.67L115.717 94.782L115.549 95.762C115.25 95.958 114.91 96.0747 114.527 96.112C114.247 96.084 114.014 95.986 113.827 95.818C113.64 95.6407 113.514 95.398 113.449 95.09H113.351C112.884 95.5847 112.404 95.93 111.909 96.126C111.237 96.1167 110.71 95.9393 110.327 95.594C109.944 95.2487 109.753 94.7773 109.753 94.18C109.753 93.7133 109.87 93.3493 110.103 93.088C110.346 92.8173 110.71 92.6353 111.195 92.542L113.337 92.136V91.562C113.337 90.9553 113.038 90.652 112.441 90.652C112.152 90.652 111.844 90.7173 111.517 90.848C111.2 90.9787 110.84 91.184 110.439 91.464L110.299 91.38L110.089 90.148C110.49 89.896 110.92 89.7047 111.377 89.574C111.834 89.434 112.292 89.364 112.749 89.364ZM111.839 93.396C111.69 93.4333 111.578 93.4987 111.503 93.592C111.438 93.676 111.405 93.8067 111.405 93.984C111.405 94.2267 111.47 94.418 111.601 94.558C111.732 94.6887 111.914 94.754 112.147 94.754C112.511 94.754 112.894 94.5393 113.295 94.11L113.323 93.074L111.839 93.396ZM119.111 89.378C119.746 89.378 120.343 89.4853 120.903 89.7L120.651 91.072L120.427 91.142C120.157 90.9647 119.886 90.8293 119.615 90.736C119.345 90.6427 119.107 90.596 118.901 90.596C118.677 90.596 118.5 90.6567 118.369 90.778C118.239 90.89 118.173 91.03 118.173 91.198C118.173 91.394 118.257 91.5527 118.425 91.674C118.603 91.7953 118.878 91.9307 119.251 92.08C119.625 92.2293 119.933 92.374 120.175 92.514C120.418 92.654 120.623 92.85 120.791 93.102C120.969 93.3447 121.057 93.648 121.057 94.012C121.057 94.3853 120.959 94.7353 120.763 95.062C120.577 95.3793 120.287 95.6407 119.895 95.846C119.503 96.042 119.023 96.14 118.453 96.14C117.781 96.14 117.086 96 116.367 95.72L116.577 94.264L116.759 94.152C117.049 94.3947 117.371 94.5907 117.725 94.74C118.08 94.88 118.393 94.95 118.663 94.95C118.915 94.95 119.111 94.8893 119.251 94.768C119.391 94.6373 119.461 94.4833 119.461 94.306C119.461 94.11 119.373 93.9513 119.195 93.83C119.027 93.7087 118.757 93.5733 118.383 93.424C118.001 93.256 117.688 93.1067 117.445 92.976C117.203 92.836 116.993 92.64 116.815 92.388C116.647 92.136 116.563 91.8233 116.563 91.45C116.563 90.8433 116.792 90.3487 117.249 89.966C117.707 89.574 118.327 89.378 119.111 89.378ZM30.6496 105.406C31.4616 105.406 32.0869 105.681 32.5256 106.232C32.9642 106.783 33.1836 107.562 33.1836 108.57C33.1836 109.709 32.8989 110.591 32.3296 111.216C31.7696 111.832 30.9762 112.14 29.9496 112.14C29.6509 112.14 29.3382 112.112 29.0116 112.056L29.0536 114.59H27.2056L27.3036 109.312L27.2196 105.616L28.9976 105.462L28.9836 106.414H29.0816C29.3429 106.162 29.5949 105.961 29.8376 105.812C30.0802 105.653 30.3509 105.518 30.6496 105.406ZM29.9636 110.922C30.4489 110.922 30.8176 110.749 31.0696 110.404C31.3216 110.059 31.4476 109.55 31.4476 108.878C31.4476 108.225 31.3402 107.735 31.1256 107.408C30.9202 107.072 30.6122 106.904 30.2016 106.904C29.8002 106.904 29.3942 107.105 28.9836 107.506L28.9696 109.13L28.9976 110.712C29.3336 110.852 29.6556 110.922 29.9636 110.922ZM37.9676 105.476C38.0516 105.476 38.1683 105.485 38.3176 105.504V107.226L38.1216 107.296C37.963 107.231 37.7903 107.198 37.6036 107.198C37.0623 107.198 36.5723 107.548 36.1336 108.248V109.13L36.2316 112H34.3696L34.4816 109.312L34.3976 105.616L36.1616 105.462L36.1476 106.736H36.2596C36.717 105.896 37.2863 105.476 37.9676 105.476ZM41.9388 105.364C42.8908 105.364 43.6188 105.644 44.1228 106.204C44.6268 106.764 44.8788 107.571 44.8788 108.626C44.8788 109.765 44.6081 110.637 44.0668 111.244C43.5255 111.841 42.7461 112.14 41.7288 112.14C40.7768 112.14 40.0488 111.86 39.5448 111.3C39.0408 110.74 38.7888 109.933 38.7888 108.878C38.7888 107.739 39.0595 106.871 39.6008 106.274C40.1421 105.667 40.9215 105.364 41.9388 105.364ZM41.8128 106.624C41.3648 106.624 41.0381 106.773 40.8328 107.072C40.6368 107.371 40.5388 107.851 40.5388 108.514C40.5388 109.373 40.6415 109.984 40.8468 110.348C41.0521 110.712 41.3881 110.894 41.8548 110.894C42.3028 110.894 42.6248 110.749 42.8208 110.46C43.0261 110.161 43.1288 109.676 43.1288 109.004C43.1288 108.155 43.0215 107.548 42.8068 107.184C42.6015 106.811 42.2701 106.624 41.8128 106.624ZM48.7868 110.628C49.0854 110.628 49.3981 110.549 49.7248 110.39L49.8788 110.53L49.6968 111.636C49.2208 111.879 48.7354 112.028 48.2408 112.084C46.9808 111.953 46.3508 111.337 46.3508 110.236L46.4208 109.074L46.4068 106.666H45.5388L45.4688 106.568L45.5668 105.546H46.3928V104.468L48.0868 103.922L48.2128 104.034L48.1708 105.546H49.8368L49.8928 105.644L49.8088 106.666H48.1428L48.0588 109.802C48.0588 110.101 48.1148 110.315 48.2268 110.446C48.3388 110.567 48.5254 110.628 48.7868 110.628ZM55.8295 108.976L52.0495 109.004C52.1335 110.171 52.7262 110.754 53.8275 110.754C54.4062 110.754 55.0502 110.591 55.7595 110.264L55.9135 110.362L55.6335 111.748C54.9242 112.009 54.2569 112.14 53.6315 112.14C52.6049 112.14 51.7975 111.841 51.2095 111.244C50.6309 110.647 50.3415 109.821 50.3415 108.766C50.3415 107.721 50.6262 106.895 51.1955 106.288C51.7649 105.672 52.5349 105.364 53.5055 105.364C54.3362 105.364 54.9755 105.593 55.4235 106.05C55.8809 106.498 56.1095 107.128 56.1095 107.94C56.1095 108.155 56.0862 108.425 56.0395 108.752L55.8295 108.976ZM54.4855 107.73C54.4855 107.357 54.4015 107.077 54.2335 106.89C54.0655 106.694 53.8182 106.596 53.4915 106.596C53.1275 106.596 52.8242 106.717 52.5815 106.96C52.3389 107.193 52.1755 107.534 52.0915 107.982L54.4575 107.926L54.4855 107.73ZM57.5191 109.312L57.4491 105.616L59.2831 105.462L59.1991 109.13L59.2831 112H57.4211L57.5191 109.312ZM59.7171 101.878L60.3891 102.886L60.3611 103.068C60.1557 103.199 60.0017 103.292 59.8991 103.348C58.7324 104.067 57.9764 104.524 57.6311 104.72L57.4491 104.706L57.0011 104.006C58.0837 103.138 58.9284 102.424 59.5351 101.864L59.7171 101.878ZM65.0475 107.94C65.0568 107.613 64.9821 107.361 64.8235 107.184C64.6741 106.997 64.4548 106.904 64.1655 106.904C63.7455 106.904 63.2975 107.105 62.8215 107.506V109.13L62.9055 112H61.0435L61.1415 109.312L61.0715 105.616L62.8355 105.462V106.414H62.9335C63.4468 105.947 64.0068 105.611 64.6135 105.406C65.3228 105.406 65.8641 105.569 66.2375 105.896C66.6108 106.213 66.7881 106.675 66.7695 107.282L66.7275 109.144L66.8115 112H64.9355L65.0475 107.94ZM71.0156 105.364C71.7343 105.364 72.2943 105.527 72.6956 105.854C73.1063 106.171 73.3116 106.619 73.3116 107.198C73.3116 107.366 73.2836 107.898 73.2276 108.794C73.2183 109.055 73.2043 109.326 73.1856 109.606C73.1669 109.877 73.1576 110.11 73.1576 110.306C73.1576 110.465 73.1809 110.577 73.2276 110.642C73.2743 110.698 73.3583 110.726 73.4796 110.726C73.5729 110.726 73.6943 110.707 73.8436 110.67L73.9836 110.782L73.8156 111.762C73.5169 111.958 73.1763 112.075 72.7936 112.112C72.5136 112.084 72.2803 111.986 72.0936 111.818C71.9069 111.641 71.7809 111.398 71.7156 111.09H71.6176C71.1509 111.585 70.6703 111.93 70.1756 112.126C69.5036 112.117 68.9763 111.939 68.5936 111.594C68.2109 111.249 68.0196 110.777 68.0196 110.18C68.0196 109.713 68.1363 109.349 68.3696 109.088C68.6123 108.817 68.9763 108.635 69.4616 108.542L71.6036 108.136V107.562C71.6036 106.955 71.3049 106.652 70.7076 106.652C70.4183 106.652 70.1103 106.717 69.7836 106.848C69.4663 106.979 69.1069 107.184 68.7056 107.464L68.5656 107.38L68.3556 106.148C68.7569 105.896 69.1863 105.705 69.6436 105.574C70.1009 105.434 70.5583 105.364 71.0156 105.364ZM70.1056 109.396C69.9563 109.433 69.8443 109.499 69.7696 109.592C69.7043 109.676 69.6716 109.807 69.6716 109.984C69.6716 110.227 69.7369 110.418 69.8676 110.558C69.9983 110.689 70.1803 110.754 70.4136 110.754C70.7776 110.754 71.1603 110.539 71.5616 110.11L71.5896 109.074L70.1056 109.396ZM77.3778 105.378C78.0125 105.378 78.6098 105.485 79.1698 105.7L78.9178 107.072L78.6938 107.142C78.4232 106.965 78.1525 106.829 77.8818 106.736C77.6112 106.643 77.3732 106.596 77.1678 106.596C76.9438 106.596 76.7665 106.657 76.6358 106.778C76.5052 106.89 76.4398 107.03 76.4398 107.198C76.4398 107.394 76.5238 107.553 76.6918 107.674C76.8692 107.795 77.1445 107.931 77.5178 108.08C77.8912 108.229 78.1992 108.374 78.4418 108.514C78.6845 108.654 78.8898 108.85 79.0578 109.102C79.2352 109.345 79.3238 109.648 79.3238 110.012C79.3238 110.385 79.2258 110.735 79.0298 111.062C78.8432 111.379 78.5538 111.641 78.1618 111.846C77.7698 112.042 77.2892 112.14 76.7198 112.14C76.0478 112.14 75.3525 112 74.6338 111.72L74.8438 110.264L75.0258 110.152C75.3152 110.395 75.6372 110.591 75.9918 110.74C76.3465 110.88 76.6592 110.95 76.9298 110.95C77.1818 110.95 77.3778 110.889 77.5178 110.768C77.6578 110.637 77.7278 110.483 77.7278 110.306C77.7278 110.11 77.6392 109.951 77.4618 109.83C77.2938 109.709 77.0232 109.573 76.6498 109.424C76.2672 109.256 75.9545 109.107 75.7118 108.976C75.4692 108.836 75.2592 108.64 75.0818 108.388C74.9138 108.136 74.8298 107.823 74.8298 107.45C74.8298 106.843 75.0585 106.349 75.5158 105.966C75.9732 105.574 76.5938 105.378 77.3778 105.378ZM87.726 108.976L83.946 109.004C84.03 110.171 84.6227 110.754 85.724 110.754C86.3027 110.754 86.9467 110.591 87.656 110.264L87.81 110.362L87.53 111.748C86.8207 112.009 86.1534 112.14 85.528 112.14C84.5014 112.14 83.694 111.841 83.106 111.244C82.5274 110.647 82.238 109.821 82.238 108.766C82.238 107.721 82.5227 106.895 83.092 106.288C83.6614 105.672 84.4314 105.364 85.402 105.364C86.2327 105.364 86.872 105.593 87.32 106.05C87.7774 106.498 88.006 107.128 88.006 107.94C88.006 108.155 87.9827 108.425 87.936 108.752L87.726 108.976ZM86.382 107.73C86.382 107.357 86.298 107.077 86.13 106.89C85.962 106.694 85.7147 106.596 85.388 106.596C85.024 106.596 84.7207 106.717 84.478 106.96C84.2354 107.193 84.072 107.534 83.988 107.982L86.354 107.926L86.382 107.73ZM97.6667 106.372C97.4147 106.437 97.0554 106.507 96.5887 106.582L96.5607 106.638C96.7007 106.918 96.7707 107.231 96.7707 107.576C96.7707 108.276 96.514 108.836 96.0007 109.256C95.4967 109.667 94.8107 109.872 93.9427 109.872C93.6814 109.872 93.4107 109.849 93.1307 109.802C93.0467 109.886 92.9907 109.951 92.9627 109.998C92.9347 110.045 92.9207 110.101 92.9207 110.166C92.9207 110.334 93.0327 110.451 93.2567 110.516C93.4807 110.581 93.8354 110.647 94.3207 110.712C94.8714 110.777 95.3287 110.857 95.6927 110.95C96.066 111.043 96.3834 111.207 96.6447 111.44C96.9154 111.673 97.0507 112.005 97.0507 112.434C97.0507 112.873 96.9107 113.265 96.6307 113.61C96.36 113.965 95.982 114.24 95.4967 114.436C95.0114 114.632 94.4607 114.73 93.8447 114.73C92.9954 114.73 92.342 114.557 91.8847 114.212C91.4274 113.867 91.1987 113.409 91.1987 112.84C91.488 112.439 91.8754 112.089 92.3607 111.79V111.72C92.0434 111.608 91.796 111.454 91.6187 111.258C91.4414 111.053 91.3527 110.782 91.3527 110.446C91.6047 110.138 91.922 109.853 92.3047 109.592V109.522C91.9687 109.335 91.712 109.093 91.5347 108.794C91.3667 108.486 91.2827 108.127 91.2827 107.716C91.2827 106.988 91.5347 106.419 92.0387 106.008C92.5427 105.597 93.2287 105.392 94.0967 105.392C94.6007 105.392 95.058 105.476 95.4687 105.644C96.1407 105.523 96.8267 105.336 97.5267 105.084L97.6667 105.21V106.372ZM93.9987 108.752C94.3814 108.752 94.6707 108.654 94.8667 108.458C95.0627 108.262 95.1607 107.977 95.1607 107.604C95.1607 106.895 94.7967 106.54 94.0687 106.54C93.2847 106.54 92.8927 106.899 92.8927 107.618C92.8927 107.991 92.986 108.276 93.1727 108.472C93.3594 108.659 93.6347 108.752 93.9987 108.752ZM95.4827 112.77C95.4827 112.518 95.3474 112.345 95.0767 112.252C94.8154 112.159 94.4094 112.079 93.8587 112.014L93.3827 111.944C93.1587 112.093 92.9907 112.238 92.8787 112.378C92.7667 112.518 92.7107 112.667 92.7107 112.826C92.7107 113.069 92.8227 113.265 93.0467 113.414C93.2707 113.563 93.5974 113.638 94.0267 113.638C94.4654 113.638 94.8154 113.559 95.0767 113.4C95.3474 113.251 95.4827 113.041 95.4827 112.77ZM101.056 105.364C102.008 105.364 102.736 105.644 103.24 106.204C103.744 106.764 103.996 107.571 103.996 108.626C103.996 109.765 103.725 110.637 103.184 111.244C102.643 111.841 101.863 112.14 100.846 112.14C99.894 112.14 99.166 111.86 98.662 111.3C98.158 110.74 97.906 109.933 97.906 108.878C97.906 107.739 98.1767 106.871 98.718 106.274C99.2593 105.667 100.039 105.364 101.056 105.364ZM100.93 106.624C100.482 106.624 100.155 106.773 99.95 107.072C99.754 107.371 99.656 107.851 99.656 108.514C99.656 109.373 99.7587 109.984 99.964 110.348C100.169 110.712 100.505 110.894 100.972 110.894C101.42 110.894 101.742 110.749 101.938 110.46C102.143 110.161 102.246 109.676 102.246 109.004C102.246 108.155 102.139 107.548 101.924 107.184C101.719 106.811 101.387 106.624 100.93 106.624ZM108.788 105.476C108.872 105.476 108.989 105.485 109.138 105.504V107.226L108.942 107.296C108.783 107.231 108.611 107.198 108.424 107.198C107.883 107.198 107.393 107.548 106.954 108.248V109.13L107.052 112H105.19L105.302 109.312L105.218 105.616L106.982 105.462L106.968 106.736H107.08C107.537 105.896 108.107 105.476 108.788 105.476ZM115.489 109.13L115.531 110.306C115.531 110.465 115.55 110.577 115.587 110.642C115.634 110.698 115.713 110.726 115.825 110.726C115.928 110.726 116.054 110.707 116.203 110.67L116.329 110.782L116.175 111.762C115.858 111.958 115.512 112.075 115.139 112.112C114.85 112.084 114.607 111.986 114.411 111.818C114.215 111.65 114.08 111.421 114.005 111.132H113.893C113.436 111.552 112.969 111.874 112.493 112.098C111.578 112.098 110.869 111.809 110.365 111.23C109.861 110.642 109.609 109.83 109.609 108.794C109.609 107.693 109.898 106.848 110.477 106.26C111.056 105.672 111.858 105.378 112.885 105.378C113.156 105.378 113.454 105.406 113.781 105.462L113.753 102.312L115.601 102.172L115.489 109.13ZM112.759 106.638C111.826 106.638 111.359 107.231 111.359 108.416C111.359 109.153 111.471 109.709 111.695 110.082C111.919 110.455 112.246 110.642 112.675 110.642C113.086 110.642 113.464 110.451 113.809 110.068L113.837 109.298L113.795 106.89C113.431 106.722 113.086 106.638 112.759 106.638ZM123.642 110.782L123.474 111.762C123.129 111.986 122.774 112.103 122.41 112.112C122.14 112.065 121.916 111.958 121.738 111.79C121.561 111.622 121.426 111.379 121.332 111.062H121.206C120.674 111.585 120.124 111.925 119.554 112.084C118.845 112.084 118.304 111.925 117.93 111.608C117.566 111.281 117.389 110.815 117.398 110.208L117.426 108.556L117.356 105.616L119.162 105.462L119.12 109.592C119.111 109.919 119.176 110.166 119.316 110.334C119.456 110.502 119.666 110.586 119.946 110.586C120.357 110.586 120.763 110.404 121.164 110.04V105.616L122.942 105.462L122.816 110.306C122.816 110.455 122.84 110.563 122.886 110.628C122.942 110.693 123.026 110.726 123.138 110.726C123.241 110.726 123.367 110.707 123.516 110.67L123.642 110.782ZM128.257 105.476C128.341 105.476 128.457 105.485 128.607 105.504V107.226L128.411 107.296C128.252 107.231 128.079 107.198 127.893 107.198C127.351 107.198 126.861 107.548 126.423 108.248V109.13L126.521 112H124.659L124.771 109.312L124.687 105.616L126.451 105.462L126.437 106.736H126.549C127.006 105.896 127.575 105.476 128.257 105.476ZM131.951 105.364C132.67 105.364 133.23 105.527 133.631 105.854C134.042 106.171 134.247 106.619 134.247 107.198C134.247 107.366 134.219 107.898 134.163 108.794C134.154 109.055 134.14 109.326 134.121 109.606C134.102 109.877 134.093 110.11 134.093 110.306C134.093 110.465 134.116 110.577 134.163 110.642C134.21 110.698 134.294 110.726 134.415 110.726C134.508 110.726 134.63 110.707 134.779 110.67L134.919 110.782L134.751 111.762C134.452 111.958 134.112 112.075 133.729 112.112C133.449 112.084 133.216 111.986 133.029 111.818C132.842 111.641 132.716 111.398 132.651 111.09H132.553C132.086 111.585 131.606 111.93 131.111 112.126C130.439 112.117 129.912 111.939 129.529 111.594C129.146 111.249 128.955 110.777 128.955 110.18C128.955 109.713 129.072 109.349 129.305 109.088C129.548 108.817 129.912 108.635 130.397 108.542L132.539 108.136V107.562C132.539 106.955 132.24 106.652 131.643 106.652C131.354 106.652 131.046 106.717 130.719 106.848C130.402 106.979 130.042 107.184 129.641 107.464L129.501 107.38L129.291 106.148C129.692 105.896 130.122 105.705 130.579 105.574C131.036 105.434 131.494 105.364 131.951 105.364ZM131.041 109.396C130.892 109.433 130.78 109.499 130.705 109.592C130.64 109.676 130.607 109.807 130.607 109.984C130.607 110.227 130.672 110.418 130.803 110.558C130.934 110.689 131.116 110.754 131.349 110.754C131.713 110.754 132.096 110.539 132.497 110.11L132.525 109.074L131.041 109.396ZM138.313 105.378C138.948 105.378 139.545 105.485 140.105 105.7L139.853 107.072L139.629 107.142C139.359 106.965 139.088 106.829 138.817 106.736C138.547 106.643 138.309 106.596 138.103 106.596C137.879 106.596 137.702 106.657 137.571 106.778C137.441 106.89 137.375 107.03 137.375 107.198C137.375 107.394 137.459 107.553 137.627 107.674C137.805 107.795 138.08 107.931 138.453 108.08C138.827 108.229 139.135 108.374 139.377 108.514C139.62 108.654 139.825 108.85 139.993 109.102C140.171 109.345 140.259 109.648 140.259 110.012C140.259 110.385 140.161 110.735 139.965 111.062C139.779 111.379 139.489 111.641 139.097 111.846C138.705 112.042 138.225 112.14 137.655 112.14C136.983 112.14 136.288 112 135.569 111.72L135.779 110.264L135.961 110.152C136.251 110.395 136.573 110.591 136.927 110.74C137.282 110.88 137.595 110.95 137.865 110.95C138.117 110.95 138.313 110.889 138.453 110.768C138.593 110.637 138.663 110.483 138.663 110.306C138.663 110.11 138.575 109.951 138.397 109.83C138.229 109.709 137.959 109.573 137.585 109.424C137.203 109.256 136.89 109.107 136.647 108.976C136.405 108.836 136.195 108.64 136.017 108.388C135.849 108.136 135.765 107.823 135.765 107.45C135.765 106.843 135.994 106.349 136.451 105.966C136.909 105.574 137.529 105.378 138.313 105.378ZM55.6822 123.94C55.6916 123.613 55.6169 123.361 55.4582 123.184C55.3089 122.997 55.0896 122.904 54.8002 122.904C54.3802 122.904 53.9322 123.105 53.4562 123.506V125.13L53.5402 128H51.6782L51.7762 125.312L51.7062 121.616L53.4702 121.462V122.414H53.5682C54.0816 121.947 54.6416 121.611 55.2482 121.406C55.9576 121.406 56.4989 121.569 56.8722 121.896C57.2456 122.213 57.4229 122.675 57.4042 123.282L57.3622 125.144L57.4462 128H55.5702L55.6822 123.94ZM61.6504 121.364C62.369 121.364 62.929 121.527 63.3304 121.854C63.741 122.171 63.9464 122.619 63.9464 123.198C63.9464 123.366 63.9184 123.898 63.8624 124.794C63.853 125.055 63.839 125.326 63.8204 125.606C63.8017 125.877 63.7924 126.11 63.7924 126.306C63.7924 126.465 63.8157 126.577 63.8624 126.642C63.909 126.698 63.993 126.726 64.1144 126.726C64.2077 126.726 64.329 126.707 64.4784 126.67L64.6184 126.782L64.4504 127.762C64.1517 127.958 63.811 128.075 63.4284 128.112C63.1484 128.084 62.915 127.986 62.7284 127.818C62.5417 127.641 62.4157 127.398 62.3504 127.09H62.2524C61.7857 127.585 61.305 127.93 60.8104 128.126C60.1384 128.117 59.611 127.939 59.2284 127.594C58.8457 127.249 58.6544 126.777 58.6544 126.18C58.6544 125.713 58.771 125.349 59.0044 125.088C59.247 124.817 59.611 124.635 60.0964 124.542L62.2384 124.136V123.562C62.2384 122.955 61.9397 122.652 61.3424 122.652C61.053 122.652 60.745 122.717 60.4184 122.848C60.101 122.979 59.7417 123.184 59.3404 123.464L59.2004 123.38L58.9904 122.148C59.3917 121.896 59.821 121.705 60.2784 121.574C60.7357 121.434 61.193 121.364 61.6504 121.364ZM60.7404 125.396C60.591 125.433 60.479 125.499 60.4044 125.592C60.339 125.676 60.3064 125.807 60.3064 125.984C60.3064 126.227 60.3717 126.418 60.5024 126.558C60.633 126.689 60.815 126.754 61.0484 126.754C61.4124 126.754 61.795 126.539 62.1964 126.11L62.2244 125.074L60.7404 125.396ZM63.9464 118.732V118.886L62.9664 120.132L62.7844 120.202C62.5324 120.174 62.145 120.085 61.6224 119.936C61.5757 119.927 61.4217 119.889 61.1604 119.824C60.9084 119.749 60.731 119.712 60.6284 119.712C60.5257 119.712 60.423 119.754 60.3204 119.838C60.227 119.922 60.1244 120.025 60.0124 120.146C59.9004 120.267 59.8164 120.361 59.7604 120.426H59.5924L59.0324 119.88V119.726L60.0264 118.48L60.1944 118.41C60.4184 118.438 60.815 118.531 61.3844 118.69C61.907 118.83 62.229 118.9 62.3504 118.9C62.4624 118.9 62.5697 118.853 62.6724 118.76C62.7844 118.667 62.8964 118.559 63.0084 118.438C63.1204 118.317 63.195 118.233 63.2324 118.186H63.4004L63.9464 118.732ZM68.5306 121.364C69.4826 121.364 70.2106 121.644 70.7146 122.204C71.2186 122.764 71.4706 123.571 71.4706 124.626C71.4706 125.765 71.1999 126.637 70.6586 127.244C70.1173 127.841 69.3379 128.14 68.3206 128.14C67.3686 128.14 66.6406 127.86 66.1366 127.3C65.6326 126.74 65.3806 125.933 65.3806 124.878C65.3806 123.739 65.6513 122.871 66.1926 122.274C66.7339 121.667 67.5133 121.364 68.5306 121.364ZM68.4046 122.624C67.9566 122.624 67.6299 122.773 67.4246 123.072C67.2286 123.371 67.1306 123.851 67.1306 124.514C67.1306 125.373 67.2333 125.984 67.4386 126.348C67.6439 126.712 67.9799 126.894 68.4466 126.894C68.8946 126.894 69.2166 126.749 69.4126 126.46C69.6179 126.161 69.7206 125.676 69.7206 125.004C69.7206 124.155 69.6133 123.548 69.3986 123.184C69.1933 122.811 68.8619 122.624 68.4046 122.624ZM77.5397 121.364C77.8477 121.364 78.1511 121.397 78.4497 121.462C78.7577 121.518 79.0284 121.602 79.2617 121.714L78.9537 123.198L78.7997 123.268C78.3237 123.007 77.8991 122.876 77.5257 122.876C77.0964 122.876 76.7651 123.03 76.5317 123.338C76.2984 123.646 76.1817 124.085 76.1817 124.654C76.1817 125.307 76.3077 125.807 76.5597 126.152C76.8117 126.497 77.1711 126.67 77.6377 126.67C78.0577 126.67 78.5244 126.553 79.0377 126.32L79.1777 126.432L78.9957 127.874C78.4357 128.051 77.8617 128.14 77.2737 128.14C76.3777 128.14 75.6777 127.851 75.1737 127.272C74.6697 126.684 74.4177 125.867 74.4177 124.822C74.4177 123.739 74.6931 122.895 75.2437 122.288C75.7944 121.672 76.5597 121.364 77.5397 121.364ZM82.9544 121.364C83.9064 121.364 84.6344 121.644 85.1384 122.204C85.6424 122.764 85.8944 123.571 85.8944 124.626C85.8944 125.765 85.6238 126.637 85.0824 127.244C84.5411 127.841 83.7618 128.14 82.7444 128.14C81.7924 128.14 81.0644 127.86 80.5604 127.3C80.0564 126.74 79.8044 125.933 79.8044 124.878C79.8044 123.739 80.0751 122.871 80.6164 122.274C81.1578 121.667 81.9371 121.364 82.9544 121.364ZM82.8284 122.624C82.3804 122.624 82.0538 122.773 81.8484 123.072C81.6524 123.371 81.5544 123.851 81.5544 124.514C81.5544 125.373 81.6571 125.984 81.8624 126.348C82.0678 126.712 82.4038 126.894 82.8704 126.894C83.3184 126.894 83.6404 126.749 83.8364 126.46C84.0418 126.161 84.1444 125.676 84.1444 125.004C84.1444 124.155 84.0371 123.548 83.8224 123.184C83.6171 122.811 83.2858 122.624 82.8284 122.624ZM91.0924 123.94C91.1017 123.613 91.027 123.361 90.8684 123.184C90.719 122.997 90.4997 122.904 90.2104 122.904C89.7904 122.904 89.3424 123.105 88.8664 123.506V125.13L88.9504 128H87.0884L87.1864 125.312L87.1164 121.616L88.8804 121.462V122.414H88.9784C89.4917 121.947 90.0517 121.611 90.6584 121.406C91.3677 121.406 91.909 121.569 92.2824 121.896C92.6557 122.213 92.833 122.675 92.8144 123.282L92.7724 125.144L92.8564 128H90.9804L91.0924 123.94ZM97.1305 126.628C97.4292 126.628 97.7419 126.549 98.0685 126.39L98.2225 126.53L98.0405 127.636C97.5645 127.879 97.0792 128.028 96.5845 128.084C95.3245 127.953 94.6945 127.337 94.6945 126.236L94.7645 125.074L94.7505 122.666H93.8825L93.8125 122.568L93.9105 121.546H94.7365V120.468L96.4305 119.922L96.5565 120.034L96.5145 121.546H98.1805L98.2365 121.644L98.1525 122.666H96.4865L96.4025 125.802C96.4025 126.101 96.4585 126.315 96.5705 126.446C96.6825 126.567 96.8692 126.628 97.1305 126.628ZM104.173 124.976L100.393 125.004C100.477 126.171 101.07 126.754 102.171 126.754C102.75 126.754 103.394 126.591 104.103 126.264L104.257 126.362L103.977 127.748C103.268 128.009 102.601 128.14 101.975 128.14C100.949 128.14 100.141 127.841 99.5533 127.244C98.9746 126.647 98.6853 125.821 98.6853 124.766C98.6853 123.721 98.97 122.895 99.5393 122.288C100.109 121.672 100.879 121.364 101.849 121.364C102.68 121.364 103.319 121.593 103.767 122.05C104.225 122.498 104.453 123.128 104.453 123.94C104.453 124.155 104.43 124.425 104.383 124.752L104.173 124.976ZM102.829 123.73C102.829 123.357 102.745 123.077 102.577 122.89C102.409 122.694 102.162 122.596 101.835 122.596C101.471 122.596 101.168 122.717 100.925 122.96C100.683 123.193 100.519 123.534 100.435 123.982L102.801 123.926L102.829 123.73ZM103.067 117.892L103.739 118.9L103.711 119.082C103.506 119.213 103.352 119.306 103.249 119.362C102.083 120.081 101.327 120.538 100.981 120.734L100.799 120.72L100.351 120.02C101.434 119.152 102.279 118.438 102.885 117.878L103.067 117.892ZM113.535 128L113.647 123.94C113.647 123.249 113.353 122.904 112.765 122.904C112.345 122.904 111.906 123.091 111.449 123.464L111.407 125.144L111.491 128H109.629L109.741 123.94C109.75 123.604 109.675 123.347 109.517 123.17C109.367 122.993 109.148 122.904 108.859 122.904C108.448 122.904 107.995 123.1 107.501 123.492V125.13L107.585 128H105.737L105.835 125.312L105.765 121.616L107.515 121.462V122.414H107.613C108.126 121.947 108.691 121.611 109.307 121.406C110.352 121.406 111.019 121.756 111.309 122.456H111.393C111.925 121.961 112.531 121.611 113.213 121.406C113.922 121.406 114.459 121.569 114.823 121.896C115.196 122.213 115.373 122.675 115.355 123.282L115.313 125.144L115.397 128H113.535ZM50.36 137.364C50.668 137.364 50.9714 137.397 51.27 137.462C51.578 137.518 51.8487 137.602 52.082 137.714L51.774 139.198L51.62 139.268C51.144 139.007 50.7194 138.876 50.346 138.876C49.9167 138.876 49.5854 139.03 49.352 139.338C49.1187 139.646 49.002 140.085 49.002 140.654C49.002 141.307 49.128 141.807 49.38 142.152C49.632 142.497 49.9914 142.67 50.458 142.67C50.878 142.67 51.3447 142.553 51.858 142.32L51.998 142.432L51.816 143.874C51.256 144.051 50.682 144.14 50.094 144.14C49.198 144.14 48.498 143.851 47.994 143.272C47.49 142.684 47.238 141.867 47.238 140.822C47.238 139.739 47.5134 138.895 48.064 138.288C48.6147 137.672 49.38 137.364 50.36 137.364ZM55.498 137.364C56.2167 137.364 56.7767 137.527 57.178 137.854C57.5887 138.171 57.794 138.619 57.794 139.198C57.794 139.366 57.766 139.898 57.71 140.794C57.7007 141.055 57.6867 141.326 57.668 141.606C57.6494 141.877 57.64 142.11 57.64 142.306C57.64 142.465 57.6634 142.577 57.71 142.642C57.7567 142.698 57.8407 142.726 57.962 142.726C58.0554 142.726 58.1767 142.707 58.326 142.67L58.466 142.782L58.298 143.762C57.9994 143.958 57.6587 144.075 57.276 144.112C56.996 144.084 56.7627 143.986 56.576 143.818C56.3894 143.641 56.2634 143.398 56.198 143.09H56.1C55.6334 143.585 55.1527 143.93 54.658 144.126C53.986 144.117 53.4587 143.939 53.076 143.594C52.6934 143.249 52.502 142.777 52.502 142.18C52.502 141.713 52.6187 141.349 52.852 141.088C53.0947 140.817 53.4587 140.635 53.944 140.542L56.086 140.136V139.562C56.086 138.955 55.7874 138.652 55.19 138.652C54.9007 138.652 54.5927 138.717 54.266 138.848C53.9487 138.979 53.5894 139.184 53.188 139.464L53.048 139.38L52.838 138.148C53.2394 137.896 53.6687 137.705 54.126 137.574C54.5834 137.434 55.0407 137.364 55.498 137.364ZM54.588 141.396C54.4387 141.433 54.3267 141.499 54.252 141.592C54.1867 141.676 54.154 141.807 54.154 141.984C54.154 142.227 54.2194 142.418 54.35 142.558C54.4807 142.689 54.6627 142.754 54.896 142.754C55.26 142.754 55.6427 142.539 56.044 142.11L56.072 141.074L54.588 141.396ZM63.1922 137.476C63.2762 137.476 63.3929 137.485 63.5422 137.504V139.226L63.3462 139.296C63.1876 139.231 63.0149 139.198 62.8282 139.198C62.2869 139.198 61.7969 139.548 61.3582 140.248V141.13L61.4562 144H59.5942L59.7062 141.312L59.6222 137.616L61.3862 137.462L61.3722 138.736H61.4842C61.9416 137.896 62.5109 137.476 63.1922 137.476ZM67.8524 137.406C68.6737 137.406 69.299 137.686 69.7284 138.246C70.167 138.797 70.3864 139.567 70.3864 140.556C70.3864 141.704 70.1017 142.591 69.5324 143.216C68.963 143.832 68.1744 144.14 67.1664 144.14C66.6904 144.14 66.1677 144.033 65.5984 143.818L64.6184 144.168L64.3944 143.986L64.4924 141.326L64.4084 134.312L66.2564 134.172L66.2004 138.414H66.2844C66.5457 138.162 66.7977 137.961 67.0404 137.812C67.283 137.653 67.5537 137.518 67.8524 137.406ZM67.1664 142.922C67.633 142.922 67.997 142.754 68.2584 142.418C68.5197 142.082 68.6504 141.569 68.6504 140.878C68.6504 140.234 68.543 139.744 68.3284 139.408C68.123 139.072 67.8104 138.904 67.3904 138.904C67.0077 138.904 66.6064 139.1 66.1864 139.492L66.1584 141.088L66.1864 142.67C66.5317 142.838 66.8584 142.922 67.1664 142.922ZM74.3685 137.364C75.3205 137.364 76.0485 137.644 76.5525 138.204C77.0565 138.764 77.3085 139.571 77.3085 140.626C77.3085 141.765 77.0378 142.637 76.4965 143.244C75.9552 143.841 75.1758 144.14 74.1585 144.14C73.2065 144.14 72.4785 143.86 71.9745 143.3C71.4705 142.74 71.2185 141.933 71.2185 140.878C71.2185 139.739 71.4892 138.871 72.0305 138.274C72.5718 137.667 73.3512 137.364 74.3685 137.364ZM74.2425 138.624C73.7945 138.624 73.4678 138.773 73.2625 139.072C73.0665 139.371 72.9685 139.851 72.9685 140.514C72.9685 141.373 73.0712 141.984 73.2765 142.348C73.4818 142.712 73.8178 142.894 74.2845 142.894C74.7325 142.894 75.0545 142.749 75.2505 142.46C75.4558 142.161 75.5585 141.676 75.5585 141.004C75.5585 140.155 75.4512 139.548 75.2365 139.184C75.0312 138.811 74.6998 138.624 74.2425 138.624ZM78.7105 141.312L78.6405 137.616L80.4745 137.462L80.3905 141.13L80.4745 144H78.6125L78.7105 141.312ZM79.5925 134.298C79.8818 134.298 80.1058 134.382 80.2645 134.55C80.4325 134.718 80.5165 134.951 80.5165 135.25C80.5165 135.567 80.4278 135.819 80.2505 136.006C80.0731 136.193 79.8305 136.286 79.5225 136.286C79.2145 136.286 78.9765 136.202 78.8085 136.034C78.6498 135.866 78.5705 135.628 78.5705 135.32C78.5705 135.012 78.6591 134.765 78.8365 134.578C79.0231 134.391 79.2751 134.298 79.5925 134.298ZM87.6669 141.13L87.7089 142.306C87.7089 142.465 87.7275 142.577 87.7649 142.642C87.8115 142.698 87.8909 142.726 88.0029 142.726C88.1055 142.726 88.2315 142.707 88.3809 142.67L88.5069 142.782L88.3529 143.762C88.0355 143.958 87.6902 144.075 87.3169 144.112C87.0275 144.084 86.7849 143.986 86.5889 143.818C86.3929 143.65 86.2575 143.421 86.1829 143.132H86.0709C85.6135 143.552 85.1469 143.874 84.6709 144.098C83.7562 144.098 83.0469 143.809 82.5429 143.23C82.0389 142.642 81.7869 141.83 81.7869 140.794C81.7869 139.693 82.0762 138.848 82.6549 138.26C83.2335 137.672 84.0362 137.378 85.0629 137.378C85.3335 137.378 85.6322 137.406 85.9589 137.462L85.9309 134.312L87.7789 134.172L87.6669 141.13ZM84.9369 138.638C84.0035 138.638 83.5369 139.231 83.5369 140.416C83.5369 141.153 83.6489 141.709 83.8729 142.082C84.0969 142.455 84.4235 142.642 84.8529 142.642C85.2635 142.642 85.6415 142.451 85.9869 142.068L86.0149 141.298L85.9729 138.89C85.6089 138.722 85.2635 138.638 84.9369 138.638ZM93.202 137.476C93.286 137.476 93.4027 137.485 93.552 137.504V139.226L93.356 139.296C93.1973 139.231 93.0247 139.198 92.838 139.198C92.2967 139.198 91.8067 139.548 91.368 140.248V141.13L91.466 144H89.604L89.716 141.312L89.632 137.616L91.396 137.462L91.382 138.736H91.494C91.9513 137.896 92.5207 137.476 93.202 137.476ZM96.8965 137.364C97.6151 137.364 98.1751 137.527 98.5765 137.854C98.9871 138.171 99.1925 138.619 99.1925 139.198C99.1925 139.366 99.1645 139.898 99.1085 140.794C99.0991 141.055 99.0851 141.326 99.0665 141.606C99.0478 141.877 99.0385 142.11 99.0385 142.306C99.0385 142.465 99.0618 142.577 99.1085 142.642C99.1551 142.698 99.2391 142.726 99.3605 142.726C99.4538 142.726 99.5751 142.707 99.7245 142.67L99.8645 142.782L99.6965 143.762C99.3978 143.958 99.0571 144.075 98.6745 144.112C98.3945 144.084 98.1611 143.986 97.9745 143.818C97.7878 143.641 97.6618 143.398 97.5965 143.09H97.4985C97.0318 143.585 96.5511 143.93 96.0565 144.126C95.3845 144.117 94.8571 143.939 94.4745 143.594C94.0918 143.249 93.9005 142.777 93.9005 142.18C93.9005 141.713 94.0171 141.349 94.2505 141.088C94.4931 140.817 94.8571 140.635 95.3425 140.542L97.4845 140.136V139.562C97.4845 138.955 97.1858 138.652 96.5885 138.652C96.2991 138.652 95.9911 138.717 95.6645 138.848C95.3471 138.979 94.9878 139.184 94.5865 139.464L94.4465 139.38L94.2365 138.148C94.6378 137.896 95.0671 137.705 95.5245 137.574C95.9818 137.434 96.4391 137.364 96.8965 137.364ZM95.9865 141.396C95.8371 141.433 95.7251 141.499 95.6505 141.592C95.5851 141.676 95.5525 141.807 95.5525 141.984C95.5525 142.227 95.6178 142.418 95.7485 142.558C95.8791 142.689 96.0611 142.754 96.2945 142.754C96.6585 142.754 97.0411 142.539 97.4425 142.11L97.4705 141.074L95.9865 141.396ZM103.707 142.628C104.005 142.628 104.318 142.549 104.645 142.39L104.799 142.53L104.617 143.636C104.141 143.879 103.655 144.028 103.161 144.084C101.901 143.953 101.271 143.337 101.271 142.236L101.341 141.074L101.327 138.666H100.459L100.389 138.568L100.487 137.546H101.313V136.468L103.007 135.922L103.133 136.034L103.091 137.546H104.757L104.813 137.644L104.729 138.666H103.063L102.979 141.802C102.979 142.101 103.035 142.315 103.147 142.446C103.259 142.567 103.445 142.628 103.707 142.628ZM108.411 137.364C109.363 137.364 110.091 137.644 110.595 138.204C111.099 138.764 111.351 139.571 111.351 140.626C111.351 141.765 111.081 142.637 110.539 143.244C109.998 143.841 109.219 144.14 108.201 144.14C107.249 144.14 106.521 143.86 106.017 143.3C105.513 142.74 105.261 141.933 105.261 140.878C105.261 139.739 105.532 138.871 106.073 138.274C106.615 137.667 107.394 137.364 108.411 137.364ZM108.285 138.624C107.837 138.624 107.511 138.773 107.305 139.072C107.109 139.371 107.011 139.851 107.011 140.514C107.011 141.373 107.114 141.984 107.319 142.348C107.525 142.712 107.861 142.894 108.327 142.894C108.775 142.894 109.097 142.749 109.293 142.46C109.499 142.161 109.601 141.676 109.601 141.004C109.601 140.155 109.494 139.548 109.279 139.184C109.074 138.811 108.743 138.624 108.285 138.624ZM114.811 137.378C115.446 137.378 116.043 137.485 116.603 137.7L116.351 139.072L116.127 139.142C115.857 138.965 115.586 138.829 115.315 138.736C115.045 138.643 114.807 138.596 114.601 138.596C114.377 138.596 114.2 138.657 114.069 138.778C113.939 138.89 113.873 139.03 113.873 139.198C113.873 139.394 113.957 139.553 114.125 139.674C114.303 139.795 114.578 139.931 114.951 140.08C115.325 140.229 115.633 140.374 115.875 140.514C116.118 140.654 116.323 140.85 116.491 141.102C116.669 141.345 116.757 141.648 116.757 142.012C116.757 142.385 116.659 142.735 116.463 143.062C116.277 143.379 115.987 143.641 115.595 143.846C115.203 144.042 114.723 144.14 114.153 144.14C113.481 144.14 112.786 144 112.067 143.72L112.277 142.264L112.459 142.152C112.749 142.395 113.071 142.591 113.425 142.74C113.78 142.88 114.093 142.95 114.363 142.95C114.615 142.95 114.811 142.889 114.951 142.768C115.091 142.637 115.161 142.483 115.161 142.306C115.161 142.11 115.073 141.951 114.895 141.83C114.727 141.709 114.457 141.573 114.083 141.424C113.701 141.256 113.388 141.107 113.145 140.976C112.903 140.836 112.693 140.64 112.515 140.388C112.347 140.136 112.263 139.823 112.263 139.45C112.263 138.843 112.492 138.349 112.949 137.966C113.407 137.574 114.027 137.378 114.811 137.378ZM118.607 142.11C118.896 142.11 119.12 142.194 119.279 142.362C119.447 142.53 119.531 142.763 119.531 143.062C119.531 143.379 119.442 143.631 119.265 143.818C119.087 144.005 118.845 144.098 118.537 144.098C118.229 144.098 117.991 144.014 117.823 143.846C117.664 143.678 117.585 143.44 117.585 143.132C117.585 142.824 117.673 142.577 117.851 142.39C118.037 142.203 118.289 142.11 118.607 142.11Z" fill="white"/>
<defs>
<filter id="filter0_b_152:18432" x="3" y="67" width="161" height="97" filterUnits="userSpaceOnUse" color-interpolation-filters="sRGB">
<feFlood flood-opacity="0" result="BackgroundImageFix"/>
<feGaussianBlur in="BackgroundImage" stdDeviation="5"/>
<feComposite in2="SourceAlpha" operator="in" result="effect1_backgroundBlur_152:18432"/>
<feBlend mode="normal" in="SourceGraphic" in2="effect1_backgroundBlur_152:18432" result="shape"/>
</filter>
</defs>
</svg>
