<svg width="167" height="167" viewBox="0 0 167 167" fill="none" xmlns="http://www.w3.org/2000/svg">
<mask id="mask0_152:18477" style="mask-type:alpha" maskUnits="userSpaceOnUse" x="0" y="0" width="167" height="167">
<rect x="1" y="1" width="165" height="165" rx="8" fill="#5988D6" stroke="#EDE6FC" stroke-opacity="0.3"/>
</mask>
<g mask="url(#mask0_152:18477)">
<rect x="1" y="1" width="165" height="165" rx="8" fill="#7AC2D9" stroke="#EDE6FC" stroke-opacity="0.3"/>
<path d="M95.3347 57.6605C95.3684 57.5088 96.569 57.2919 96.6975 57.2603C97.9282 56.9569 99.1837 56.7651 100.449 56.6874C104.082 56.4599 106.934 57.3719 110.222 58.8463C113.236 60.1986 118.216 61.3592 126.822 59.2023C126.822 59.2023 128.998 65.2011 129 65.2032C129.055 65.3548 118.104 68.7312 110.782 66.3448C109.097 65.795 107.071 65.1042 105.434 64.4238C104.241 63.9285 103.004 63.5456 101.74 63.2801C99.2124 62.7493 96.5669 62.6945 94.0688 63.3728L95.3347 57.6605Z" fill="#FFCE57"/>
<path d="M103.204 56.6646L102.128 59.6959L102.716 59.9043L103.791 56.8731L103.204 56.6646Z" fill="#3B455A"/>
<path d="M108.986 58.3488L108.169 61.0348L108.765 61.2163L109.583 58.5303L108.986 58.3488Z" fill="#3B455A"/>
<path d="M114.823 60.1479L114.296 62.7596L114.907 62.883L115.434 60.2713L114.823 60.1479Z" fill="#3B455A"/>
<g clip-path="url(#clip0_152:18477)">
<path d="M93.4061 22.6676C88.7429 22.6676 88.7429 24.2433 84.0798 24.2433C79.4167 24.2433 79.4167 22.6676 74.7535 22.6676C68.536 22.6676 60.7641 25.819 60.7641 36.8487C60.7641 54.1811 70.0904 68.3622 76.3079 68.3622C80.971 68.3622 80.971 66.7865 84.0798 66.7865C87.1886 66.7865 87.1886 68.3622 91.8517 68.3622C98.0692 68.3622 107.396 54.1811 107.396 36.8487C107.396 25.8174 99.6236 22.6676 93.4061 22.6676Z" fill="#DD2E44"/>
<path d="M85.6342 22.6676C85.6342 22.6676 90.2973 16.3649 98.0692 16.3649C104.287 16.3649 107.396 19.5163 107.396 19.5163C107.396 19.5163 101.178 24.2433 96.5149 24.2433C91.8517 24.2433 85.6342 22.6676 85.6342 22.6676Z" fill="#77B255"/>
<path d="M84.0798 27.3947C83.2218 27.3947 82.5254 26.6887 82.5254 25.819C82.5254 20.3971 84.3907 15.3959 87.644 12.0996C88.2518 11.4835 89.2341 11.4835 89.8419 12.0996C90.4497 12.7157 90.4497 13.7131 89.8419 14.3276C87.1668 17.0377 85.6342 21.2259 85.6342 25.819C85.6342 26.6887 84.9378 27.3947 84.0798 27.3947Z" fill="#662113"/>
</g>
<path d="M121.311 60.202L120.693 60.2853L121.055 62.9698L121.673 62.8864L121.311 60.202Z" fill="#3B455A"/>
<path d="M61.0835 33.4844C61.0835 33.4844 60.0309 35.0956 64.4121 36.0287C67.7484 36.6417 71.1227 37.0987 74.4907 37.5031C81.4879 38.3457 88.5566 38.8996 95.6085 38.7543C98.0371 38.7058 100.466 38.5689 102.877 38.2825C103.996 38.1477 105.121 37.9939 106.226 37.7706C107.101 37.5937 107.545 37.2272 107.214 36.2962C108.815 36.6817 108.798 38.0697 108.777 39.4051C108.76 40.2911 108.684 41.1749 108.55 42.0507C108.432 42.8426 108.472 44.0116 108.067 44.7088C107.56 45.585 106.279 45.6187 105.405 45.7451C104.287 45.9094 103.162 46.04 102.035 46.1474C99.7874 46.358 97.5295 46.4823 95.2736 46.5687C89.9102 46.7819 84.5387 46.663 79.1899 46.2127C75.9602 45.9403 72.7453 45.5464 69.5451 45.0311C67.8348 44.7502 66.1308 44.4385 64.4331 44.0959C63.3463 43.8726 61.6949 43.5925 60.9703 42.6215C60.6772 42.2235 60.4497 41.7812 60.2963 41.3113C59.715 39.5821 59.5504 38.2825 59.5504 36.5506C59.5504 35.4007 59.6635 34.6342 61.0835 33.4844Z" fill="#FFCE57"/>
<path d="M61.6128 45.2817C61.6128 45.2817 61.8992 48.2643 64.1214 48.4559C64.1214 48.4559 92.4406 51.6154 106.879 46.3854C106.879 46.3854 106.669 49.3975 104.089 54.6653C100.234 55.7564 98.2772 56.2156 94.3174 56.6937C89.2241 57.307 84.0964 57.5884 78.9666 57.5362C75.8703 57.5039 72.7811 57.3502 69.6989 57.0749C67.0133 56.8327 64.5047 56.2577 62.9481 53.8607C62.609 53.3205 62.3266 52.7467 62.1056 52.1483C61.6675 51.0109 61.3853 49.8187 61.0398 48.6518C60.9221 48.2435 60.8459 47.8243 60.8124 47.4007C60.7386 46.6382 60.7934 45.6145 61.6128 45.2817Z" fill="#FFCE57"/>
<path d="M65.5216 36.229L64.9733 39.7227L65.5892 39.8194L66.1375 36.3257L65.5216 36.229Z" fill="#3B455A"/>
<path d="M72.9028 37.3019L72.3612 40.8499L72.9775 40.944L73.5192 37.396L72.9028 37.3019Z" fill="#3B455A"/>
<path d="M80.1103 38.104L79.6987 41.6292L80.318 41.7015L80.7296 38.1763L80.1103 38.104Z" fill="#3B455A"/>
<path d="M87.6522 38.6133L87.4273 42.2376L88.0496 42.2762L88.2744 38.6519L87.6522 38.6133Z" fill="#3B455A"/>
<path d="M94.9334 38.7828L94.3129 38.8434L94.656 42.3548L95.2765 42.2942L94.9334 38.7828Z" fill="#3B455A"/>
<path d="M102.372 38.3696L101.749 38.3757L101.783 41.8847L102.407 41.8786L102.372 38.3696Z" fill="#3B455A"/>
<path d="M65.5855 48.5342L64.9688 48.6255L65.4586 51.9342L66.0753 51.843L65.5855 48.5342Z" fill="#3B455A"/>
<path d="M72.6265 49.0797L72.0049 49.1278L72.2642 52.4752L72.8858 52.4271L72.6265 49.0797Z" fill="#3B455A"/>
<path d="M80.2694 49.349L79.6495 49.4152L79.9789 52.5023L80.5988 52.4362L80.2694 49.349Z" fill="#3B455A"/>
<path d="M87.9197 49.2734L87.3004 49.3453L87.6832 52.6385L88.3025 52.5665L87.9197 49.2734Z" fill="#3B455A"/>
<path d="M95.605 48.7647L94.9837 48.8171L95.2802 52.3327L95.9014 52.2803L95.605 48.7647Z" fill="#3B455A"/>
<path d="M102.179 47.7404L101.561 47.8262L102.04 51.2727L102.658 51.1869L102.179 47.7404Z" fill="#3B455A"/>
</g>
<g filter="url(#filter0_b_152:18477)">
<rect x="13" y="77" width="141" height="77" rx="10" fill="black" fill-opacity="0.8"/>
</g>
<path d="M55.9104 104H53.9784L53.7544 102.824L53.5164 101.984L51.7524 101.942L50.1984 101.984L49.9604 102.726L49.7224 104H47.8464L50.8984 94.984H53.1524L55.9104 104ZM53.1104 100.514L52.0464 96.762H51.9204L50.6884 100.514L51.8924 100.542L53.1104 100.514ZM58.926 101.13L59.024 104H57.162L57.26 101.298L57.176 94.312L59.038 94.172L58.926 101.13ZM60.9097 101.312L60.8397 97.616L62.6737 97.462L62.5897 101.13L62.6737 104H60.8117L60.9097 101.312ZM61.7917 94.298C62.081 94.298 62.305 94.382 62.4637 94.55C62.6317 94.718 62.7157 94.9513 62.7157 95.25C62.7157 95.5673 62.627 95.8193 62.4497 96.006C62.2724 96.1927 62.0297 96.286 61.7217 96.286C61.4137 96.286 61.1757 96.202 61.0077 96.034C60.849 95.866 60.7697 95.628 60.7697 95.32C60.7697 95.012 60.8584 94.7647 61.0357 94.578C61.2224 94.3913 61.4744 94.298 61.7917 94.298ZM72.2321 104L72.3441 99.94C72.3441 99.2493 72.0501 98.904 71.4621 98.904C71.0421 98.904 70.6034 99.0907 70.1461 99.464L70.1041 101.144L70.1881 104H68.3261L68.4381 99.94C68.4474 99.604 68.3727 99.3473 68.2141 99.17C68.0647 98.9927 67.8454 98.904 67.5561 98.904C67.1454 98.904 66.6927 99.1 66.1981 99.492V101.13L66.2821 104H64.4341L64.5321 101.312L64.4621 97.616L66.2121 97.462V98.414H66.3101C66.8234 97.9473 67.3881 97.6113 68.0041 97.406C69.0494 97.406 69.7167 97.756 70.0061 98.456H70.0901C70.6221 97.9613 71.2287 97.6113 71.9101 97.406C72.6194 97.406 73.1561 97.5693 73.5201 97.896C73.8934 98.2133 74.0707 98.6753 74.0521 99.282L74.0101 101.144L74.0941 104H72.2321ZM80.767 100.976L76.987 101.004C77.071 102.171 77.6637 102.754 78.765 102.754C79.3437 102.754 79.9877 102.591 80.697 102.264L80.851 102.362L80.571 103.748C79.8617 104.009 79.1944 104.14 78.569 104.14C77.5424 104.14 76.735 103.841 76.147 103.244C75.5684 102.647 75.279 101.821 75.279 100.766C75.279 99.7207 75.5637 98.8947 76.133 98.288C76.7024 97.672 77.4724 97.364 78.443 97.364C79.2737 97.364 79.913 97.5927 80.361 98.05C80.8184 98.498 81.047 99.128 81.047 99.94C81.047 100.155 81.0237 100.425 80.977 100.752L80.767 100.976ZM79.423 99.73C79.423 99.3567 79.339 99.0767 79.171 98.89C79.003 98.694 78.7557 98.596 78.429 98.596C78.065 98.596 77.7617 98.7173 77.519 98.96C77.2764 99.1933 77.113 99.534 77.029 99.982L79.395 99.926L79.423 99.73ZM86.3346 99.94C86.3439 99.6133 86.2692 99.3613 86.1106 99.184C85.9612 98.9973 85.7419 98.904 85.4526 98.904C85.0326 98.904 84.5846 99.1047 84.1086 99.506V101.13L84.1926 104H82.3306L82.4286 101.312L82.3586 97.616L84.1226 97.462V98.414H84.2206C84.7339 97.9473 85.2939 97.6113 85.9006 97.406C86.6099 97.406 87.1512 97.5693 87.5246 97.896C87.8979 98.2133 88.0752 98.6753 88.0566 99.282L88.0146 101.144L88.0986 104H86.2226L86.3346 99.94ZM92.3727 102.628C92.6714 102.628 92.9841 102.549 93.3107 102.39L93.4647 102.53L93.2827 103.636C92.8067 103.879 92.3214 104.028 91.8267 104.084C90.5667 103.953 89.9367 103.337 89.9367 102.236L90.0067 101.074L89.9927 98.666H89.1247L89.0547 98.568L89.1527 97.546H89.9787V96.468L91.6727 95.922L91.7987 96.034L91.7567 97.546H93.4227L93.4787 97.644L93.3947 98.666H91.7287L91.6447 101.802C91.6447 102.101 91.7007 102.315 91.8127 102.446C91.9247 102.567 92.1114 102.628 92.3727 102.628ZM97.0332 97.364C97.7519 97.364 98.3119 97.5273 98.7132 97.854C99.1239 98.1713 99.3292 98.6193 99.3292 99.198C99.3292 99.366 99.3012 99.898 99.2452 100.794C99.2359 101.055 99.2219 101.326 99.2032 101.606C99.1845 101.877 99.1752 102.11 99.1752 102.306C99.1752 102.465 99.1985 102.577 99.2452 102.642C99.2919 102.698 99.3759 102.726 99.4972 102.726C99.5905 102.726 99.7119 102.707 99.8612 102.67L100.001 102.782L99.8332 103.762C99.5345 103.958 99.1939 104.075 98.8112 104.112C98.5312 104.084 98.2979 103.986 98.1112 103.818C97.9245 103.641 97.7985 103.398 97.7332 103.09H97.6352C97.1685 103.585 96.6879 103.93 96.1932 104.126C95.5212 104.117 94.9939 103.939 94.6112 103.594C94.2285 103.249 94.0372 102.777 94.0372 102.18C94.0372 101.713 94.1539 101.349 94.3872 101.088C94.6299 100.817 94.9939 100.635 95.4792 100.542L97.6212 100.136V99.562C97.6212 98.9553 97.3225 98.652 96.7252 98.652C96.4359 98.652 96.1279 98.7173 95.8012 98.848C95.4839 98.9787 95.1245 99.184 94.7232 99.464L94.5832 99.38L94.3732 98.148C94.7745 97.896 95.2039 97.7047 95.6612 97.574C96.1185 97.434 96.5759 97.364 97.0332 97.364ZM96.1232 101.396C95.9739 101.433 95.8619 101.499 95.7872 101.592C95.7219 101.676 95.6892 101.807 95.6892 101.984C95.6892 102.227 95.7545 102.418 95.8852 102.558C96.0159 102.689 96.1979 102.754 96.4312 102.754C96.7952 102.754 97.1779 102.539 97.5792 102.11L97.6072 101.074L96.1232 101.396ZM103.885 97.364C104.193 97.364 104.497 97.3967 104.795 97.462C105.103 97.518 105.374 97.602 105.607 97.714L105.299 99.198L105.145 99.268C104.669 99.0067 104.245 98.876 103.871 98.876C103.442 98.876 103.111 99.03 102.877 99.338C102.644 99.646 102.527 100.085 102.527 100.654C102.527 101.307 102.653 101.807 102.905 102.152C103.157 102.497 103.517 102.67 103.983 102.67C104.403 102.67 104.87 102.553 105.383 102.32L105.523 102.432L105.341 103.874C104.781 104.051 104.207 104.14 103.619 104.14C102.723 104.14 102.023 103.851 101.519 103.272C101.015 102.684 100.763 101.867 100.763 100.822C100.763 99.7393 101.039 98.8947 101.589 98.288C102.14 97.672 102.905 97.364 103.885 97.364ZM103.871 104.672L104.347 104.938C104.553 105.05 104.697 105.171 104.781 105.302C104.875 105.442 104.921 105.596 104.921 105.764C104.921 106.072 104.8 106.324 104.557 106.52C104.315 106.716 103.997 106.814 103.605 106.814C103.185 106.814 102.803 106.683 102.457 106.422L102.583 105.638L102.667 105.596C102.947 105.876 103.223 106.016 103.493 106.016C103.717 106.016 103.829 105.918 103.829 105.722C103.829 105.657 103.811 105.601 103.773 105.554C103.736 105.517 103.675 105.479 103.591 105.442L102.905 105.05L103.227 103.636H104.123L103.871 104.672ZM109.023 97.364C109.742 97.364 110.302 97.5273 110.703 97.854C111.114 98.1713 111.319 98.6193 111.319 99.198C111.319 99.366 111.291 99.898 111.235 100.794C111.226 101.055 111.212 101.326 111.193 101.606C111.175 101.877 111.165 102.11 111.165 102.306C111.165 102.465 111.189 102.577 111.235 102.642C111.282 102.698 111.366 102.726 111.487 102.726C111.581 102.726 111.702 102.707 111.851 102.67L111.991 102.782L111.823 103.762C111.525 103.958 111.184 104.075 110.801 104.112C110.521 104.084 110.288 103.986 110.101 103.818C109.915 103.641 109.789 103.398 109.723 103.09H109.625C109.159 103.585 108.678 103.93 108.183 104.126C107.511 104.117 106.984 103.939 106.601 103.594C106.219 103.249 106.027 102.777 106.027 102.18C106.027 101.713 106.144 101.349 106.377 101.088C106.62 100.817 106.984 100.635 107.469 100.542L109.611 100.136V99.562C109.611 98.9553 109.313 98.652 108.715 98.652C108.426 98.652 108.118 98.7173 107.791 98.848C107.474 98.9787 107.115 99.184 106.713 99.464L106.573 99.38L106.363 98.148C106.765 97.896 107.194 97.7047 107.651 97.574C108.109 97.434 108.566 97.364 109.023 97.364ZM108.113 101.396C107.964 101.433 107.852 101.499 107.777 101.592C107.712 101.676 107.679 101.807 107.679 101.984C107.679 102.227 107.745 102.418 107.875 102.558C108.006 102.689 108.188 102.754 108.421 102.754C108.785 102.754 109.168 102.539 109.569 102.11L109.597 101.074L108.113 101.396ZM111.319 94.732V94.886L110.339 96.132L110.157 96.202C109.905 96.174 109.518 96.0853 108.995 95.936C108.949 95.9267 108.795 95.8893 108.533 95.824C108.281 95.7493 108.104 95.712 108.001 95.712C107.899 95.712 107.796 95.754 107.693 95.838C107.6 95.922 107.497 96.0247 107.385 96.146C107.273 96.2673 107.189 96.3607 107.133 96.426H106.965L106.405 95.88V95.726L107.399 94.48L107.567 94.41C107.791 94.438 108.188 94.5313 108.757 94.69C109.28 94.83 109.602 94.9 109.723 94.9C109.835 94.9 109.943 94.8533 110.045 94.76C110.157 94.6667 110.269 94.5593 110.381 94.438C110.493 94.3167 110.568 94.2327 110.605 94.186H110.773L111.319 94.732ZM115.904 97.364C116.856 97.364 117.584 97.644 118.088 98.204C118.592 98.764 118.844 99.5713 118.844 100.626C118.844 101.765 118.573 102.637 118.032 103.244C117.49 103.841 116.711 104.14 115.694 104.14C114.742 104.14 114.014 103.86 113.51 103.3C113.006 102.74 112.754 101.933 112.754 100.878C112.754 99.7393 113.024 98.8713 113.566 98.274C114.107 97.6673 114.886 97.364 115.904 97.364ZM115.778 98.624C115.33 98.624 115.003 98.7733 114.798 99.072C114.602 99.3707 114.504 99.8513 114.504 100.514C114.504 101.373 114.606 101.984 114.812 102.348C115.017 102.712 115.353 102.894 115.82 102.894C116.268 102.894 116.59 102.749 116.786 102.46C116.991 102.161 117.094 101.676 117.094 101.004C117.094 100.155 116.986 99.548 116.772 99.184C116.566 98.8107 116.235 98.624 115.778 98.624ZM52.5415 116.976L48.7615 117.004C48.8455 118.171 49.4381 118.754 50.5395 118.754C51.1181 118.754 51.7621 118.591 52.4715 118.264L52.6255 118.362L52.3455 119.748C51.6361 120.009 50.9688 120.14 50.3435 120.14C49.3168 120.14 48.5095 119.841 47.9215 119.244C47.3428 118.647 47.0535 117.821 47.0535 116.766C47.0535 115.721 47.3381 114.895 47.9075 114.288C48.4768 113.672 49.2468 113.364 50.2175 113.364C51.0481 113.364 51.6875 113.593 52.1355 114.05C52.5928 114.498 52.8215 115.128 52.8215 115.94C52.8215 116.155 52.7981 116.425 52.7515 116.752L52.5415 116.976ZM51.1975 115.73C51.1975 115.357 51.1135 115.077 50.9455 114.89C50.7775 114.694 50.5301 114.596 50.2035 114.596C49.8395 114.596 49.5361 114.717 49.2935 114.96C49.0508 115.193 48.8875 115.534 48.8035 115.982L51.1695 115.926L51.1975 115.73ZM59.495 113.378L59.649 113.462L59.537 117.13L59.635 122.59H57.787L57.871 119.65V119.3H57.759C57.3763 119.627 56.9563 119.893 56.499 120.098C55.5936 120.098 54.8936 119.809 54.399 119.23C53.9043 118.642 53.657 117.839 53.657 116.822C53.657 115.711 53.9463 114.862 54.525 114.274C55.1036 113.677 55.8783 113.378 56.849 113.378C57.353 113.378 57.913 113.481 58.529 113.686L59.495 113.378ZM56.793 114.638C55.869 114.638 55.407 115.254 55.407 116.486C55.407 117.186 55.5143 117.723 55.729 118.096C55.953 118.46 56.275 118.642 56.695 118.642C56.891 118.642 57.0823 118.6 57.269 118.516C57.465 118.423 57.6656 118.273 57.871 118.068L57.885 117.326L57.843 114.932C57.4696 114.736 57.1196 114.638 56.793 114.638ZM67.5807 118.782L67.4127 119.762C67.0674 119.986 66.7127 120.103 66.3487 120.112C66.0781 120.065 65.8541 119.958 65.6767 119.79C65.4994 119.622 65.3641 119.379 65.2707 119.062H65.1447C64.6127 119.585 64.0621 119.925 63.4927 120.084C62.7834 120.084 62.2421 119.925 61.8687 119.608C61.5047 119.281 61.3274 118.815 61.3367 118.208L61.3647 116.556L61.2947 113.616L63.1007 113.462L63.0587 117.592C63.0494 117.919 63.1147 118.166 63.2547 118.334C63.3947 118.502 63.6047 118.586 63.8847 118.586C64.2954 118.586 64.7014 118.404 65.1027 118.04V113.616L66.8807 113.462L66.7547 118.306C66.7547 118.455 66.7781 118.563 66.8247 118.628C66.8807 118.693 66.9647 118.726 67.0767 118.726C67.1794 118.726 67.3054 118.707 67.4547 118.67L67.5807 118.782ZM68.8052 117.312L68.7352 113.616L70.5692 113.462L70.4852 117.13L70.5692 120H68.7072L68.8052 117.312ZM69.6872 110.298C69.9765 110.298 70.2005 110.382 70.3592 110.55C70.5272 110.718 70.6112 110.951 70.6112 111.25C70.6112 111.567 70.5225 111.819 70.3452 112.006C70.1679 112.193 69.9252 112.286 69.6172 112.286C69.3092 112.286 69.0712 112.202 68.9032 112.034C68.7445 111.866 68.6652 111.628 68.6652 111.32C68.6652 111.012 68.7539 110.765 68.9312 110.578C69.1179 110.391 69.3699 110.298 69.6872 110.298ZM74.1496 117.13L74.2476 120H72.3856L72.4836 117.298L72.3996 110.312L74.2616 110.172L74.1496 117.13ZM76.1333 117.312L76.0633 113.616L77.8973 113.462L77.8133 117.13L77.8973 120H76.0353L76.1333 117.312ZM77.0153 110.298C77.3047 110.298 77.5287 110.382 77.6873 110.55C77.8553 110.718 77.9393 110.951 77.9393 111.25C77.9393 111.567 77.8507 111.819 77.6733 112.006C77.496 112.193 77.2533 112.286 76.9453 112.286C76.6373 112.286 76.3993 112.202 76.2313 112.034C76.0727 111.866 75.9933 111.628 75.9933 111.32C75.9933 111.012 76.082 110.765 76.2593 110.578C76.446 110.391 76.698 110.298 77.0153 110.298ZM83.1717 113.406C83.993 113.406 84.6184 113.686 85.0477 114.246C85.4864 114.797 85.7057 115.567 85.7057 116.556C85.7057 117.704 85.421 118.591 84.8517 119.216C84.2824 119.832 83.4937 120.14 82.4857 120.14C82.0097 120.14 81.487 120.033 80.9177 119.818L79.9377 120.168L79.7137 119.986L79.8117 117.326L79.7277 110.312L81.5757 110.172L81.5197 114.414H81.6037C81.865 114.162 82.117 113.961 82.3597 113.812C82.6024 113.653 82.873 113.518 83.1717 113.406ZM82.4857 118.922C82.9524 118.922 83.3164 118.754 83.5777 118.418C83.839 118.082 83.9697 117.569 83.9697 116.878C83.9697 116.234 83.8624 115.744 83.6477 115.408C83.4424 115.072 83.1297 114.904 82.7097 114.904C82.327 114.904 81.9257 115.1 81.5057 115.492L81.4777 117.088L81.5057 118.67C81.851 118.838 82.1777 118.922 82.4857 118.922ZM90.5018 113.476C90.5858 113.476 90.7025 113.485 90.8518 113.504V115.226L90.6558 115.296C90.4971 115.231 90.3245 115.198 90.1378 115.198C89.5965 115.198 89.1065 115.548 88.6678 116.248V117.13L88.7658 120H86.9038L87.0158 117.312L86.9318 113.616L88.6958 113.462L88.6818 114.736H88.7938C89.2511 113.896 89.8205 113.476 90.5018 113.476ZM94.1963 113.364C94.9149 113.364 95.4749 113.527 95.8763 113.854C96.2869 114.171 96.4923 114.619 96.4923 115.198C96.4923 115.366 96.4643 115.898 96.4083 116.794C96.3989 117.055 96.3849 117.326 96.3663 117.606C96.3476 117.877 96.3383 118.11 96.3383 118.306C96.3383 118.465 96.3616 118.577 96.4083 118.642C96.4549 118.698 96.5389 118.726 96.6603 118.726C96.7536 118.726 96.8749 118.707 97.0243 118.67L97.1643 118.782L96.9963 119.762C96.6976 119.958 96.3569 120.075 95.9743 120.112C95.6943 120.084 95.4609 119.986 95.2743 119.818C95.0876 119.641 94.9616 119.398 94.8963 119.09H94.7983C94.3316 119.585 93.8509 119.93 93.3563 120.126C92.6843 120.117 92.1569 119.939 91.7743 119.594C91.3916 119.249 91.2003 118.777 91.2003 118.18C91.2003 117.713 91.3169 117.349 91.5503 117.088C91.7929 116.817 92.1569 116.635 92.6423 116.542L94.7843 116.136V115.562C94.7843 114.955 94.4856 114.652 93.8883 114.652C93.5989 114.652 93.2909 114.717 92.9643 114.848C92.6469 114.979 92.2876 115.184 91.8863 115.464L91.7463 115.38L91.5363 114.148C91.9376 113.896 92.3669 113.705 92.8243 113.574C93.2816 113.434 93.7389 113.364 94.1963 113.364ZM93.2863 117.396C93.1369 117.433 93.0249 117.499 92.9503 117.592C92.8849 117.676 92.8523 117.807 92.8523 117.984C92.8523 118.227 92.9176 118.418 93.0483 118.558C93.1789 118.689 93.3609 118.754 93.5943 118.754C93.9583 118.754 94.3409 118.539 94.7423 118.11L94.7703 117.074L93.2863 117.396ZM103.807 117.13L103.849 118.306C103.849 118.465 103.867 118.577 103.905 118.642C103.951 118.698 104.031 118.726 104.143 118.726C104.245 118.726 104.371 118.707 104.521 118.67L104.647 118.782L104.493 119.762C104.175 119.958 103.83 120.075 103.457 120.112C103.167 120.084 102.925 119.986 102.729 119.818C102.533 119.65 102.397 119.421 102.323 119.132H102.211C101.753 119.552 101.287 119.874 100.811 120.098C99.8958 120.098 99.1865 119.809 98.6825 119.23C98.1785 118.642 97.9265 117.83 97.9265 116.794C97.9265 115.693 98.2158 114.848 98.7945 114.26C99.3732 113.672 100.176 113.378 101.203 113.378C101.473 113.378 101.772 113.406 102.099 113.462L102.071 110.312L103.919 110.172L103.807 117.13ZM101.077 114.638C100.143 114.638 99.6765 115.231 99.6765 116.416C99.6765 117.153 99.7885 117.709 100.013 118.082C100.237 118.455 100.563 118.642 100.993 118.642C101.403 118.642 101.781 118.451 102.127 118.068L102.155 117.298L102.113 114.89C101.749 114.722 101.403 114.638 101.077 114.638ZM108.306 113.364C109.024 113.364 109.584 113.527 109.986 113.854C110.396 114.171 110.602 114.619 110.602 115.198C110.602 115.366 110.574 115.898 110.518 116.794C110.508 117.055 110.494 117.326 110.476 117.606C110.457 117.877 110.448 118.11 110.448 118.306C110.448 118.465 110.471 118.577 110.518 118.642C110.564 118.698 110.648 118.726 110.77 118.726C110.863 118.726 110.984 118.707 111.134 118.67L111.274 118.782L111.106 119.762C110.807 119.958 110.466 120.075 110.084 120.112C109.804 120.084 109.57 119.986 109.384 119.818C109.197 119.641 109.071 119.398 109.006 119.09H108.908C108.441 119.585 107.96 119.93 107.466 120.126C106.794 120.117 106.266 119.939 105.884 119.594C105.501 119.249 105.31 118.777 105.31 118.18C105.31 117.713 105.426 117.349 105.66 117.088C105.902 116.817 106.266 116.635 106.752 116.542L108.894 116.136V115.562C108.894 114.955 108.595 114.652 107.998 114.652C107.708 114.652 107.4 114.717 107.074 114.848C106.756 114.979 106.397 115.184 105.996 115.464L105.856 115.38L105.646 114.148C106.047 113.896 106.476 113.705 106.934 113.574C107.391 113.434 107.848 113.364 108.306 113.364ZM107.396 117.396C107.246 117.433 107.134 117.499 107.06 117.592C106.994 117.676 106.962 117.807 106.962 117.984C106.962 118.227 107.027 118.418 107.158 118.558C107.288 118.689 107.47 118.754 107.704 118.754C108.068 118.754 108.45 118.539 108.852 118.11L108.88 117.074L107.396 117.396ZM119.643 116.976L115.863 117.004C115.947 118.171 116.54 118.754 117.641 118.754C118.22 118.754 118.864 118.591 119.573 118.264L119.727 118.362L119.447 119.748C118.738 120.009 118.07 120.14 117.445 120.14C116.418 120.14 115.611 119.841 115.023 119.244C114.444 118.647 114.155 117.821 114.155 116.766C114.155 115.721 114.44 114.895 115.009 114.288C115.578 113.672 116.348 113.364 117.319 113.364C118.15 113.364 118.789 113.593 119.237 114.05C119.694 114.498 119.923 115.128 119.923 115.94C119.923 116.155 119.9 116.425 119.853 116.752L119.643 116.976ZM118.299 115.73C118.299 115.357 118.215 115.077 118.047 114.89C117.879 114.694 117.632 114.596 117.305 114.596C116.941 114.596 116.638 114.717 116.395 114.96C116.152 115.193 115.989 115.534 115.905 115.982L118.271 115.926L118.299 115.73ZM39.1304 133.312L39.0604 129.616L40.8944 129.462L40.8104 133.13L40.8944 136H39.0324L39.1304 133.312ZM40.0124 126.298C40.3017 126.298 40.5257 126.382 40.6844 126.55C40.8524 126.718 40.9364 126.951 40.9364 127.25C40.9364 127.567 40.8477 127.819 40.6704 128.006C40.4931 128.193 40.2504 128.286 39.9424 128.286C39.6344 128.286 39.3964 128.202 39.2284 128.034C39.0697 127.866 38.9904 127.628 38.9904 127.32C38.9904 127.012 39.0791 126.765 39.2564 126.578C39.4431 126.391 39.6951 126.298 40.0124 126.298ZM46.6588 131.94C46.6681 131.613 46.5934 131.361 46.4348 131.184C46.2854 130.997 46.0661 130.904 45.7768 130.904C45.3568 130.904 44.9088 131.105 44.4328 131.506V133.13L44.5168 136H42.6548L42.7528 133.312L42.6828 129.616L44.4468 129.462V130.414H44.5448C45.0581 129.947 45.6181 129.611 46.2248 129.406C46.9341 129.406 47.4754 129.569 47.8488 129.896C48.2221 130.213 48.3994 130.675 48.3808 131.282L48.3388 133.144L48.4228 136H46.5468L46.6588 131.94ZM55.4969 133.13L55.5389 134.306C55.5389 134.465 55.5576 134.577 55.5949 134.642C55.6416 134.698 55.7209 134.726 55.8329 134.726C55.9356 134.726 56.0616 134.707 56.2109 134.67L56.3369 134.782L56.1829 135.762C55.8656 135.958 55.5203 136.075 55.1469 136.112C54.8576 136.084 54.6149 135.986 54.4189 135.818C54.2229 135.65 54.0876 135.421 54.0129 135.132H53.9009C53.4436 135.552 52.9769 135.874 52.5009 136.098C51.5863 136.098 50.8769 135.809 50.3729 135.23C49.8689 134.642 49.6169 133.83 49.6169 132.794C49.6169 131.693 49.9063 130.848 50.4849 130.26C51.0636 129.672 51.8663 129.378 52.8929 129.378C53.1636 129.378 53.4623 129.406 53.7889 129.462L53.7609 126.312L55.6089 126.172L55.4969 133.13ZM52.7669 130.638C51.8336 130.638 51.3669 131.231 51.3669 132.416C51.3669 133.153 51.4789 133.709 51.7029 134.082C51.9269 134.455 52.2536 134.642 52.6829 134.642C53.0936 134.642 53.4716 134.451 53.8169 134.068L53.8449 133.298L53.8029 130.89C53.4389 130.722 53.0936 130.638 52.7669 130.638ZM57.5601 133.312L57.4901 129.616L59.3241 129.462L59.2401 133.13L59.3241 136H57.4621L57.5601 133.312ZM58.4421 126.298C58.7314 126.298 58.9554 126.382 59.1141 126.55C59.2821 126.718 59.3661 126.951 59.3661 127.25C59.3661 127.567 59.2774 127.819 59.1001 128.006C58.9227 128.193 58.6801 128.286 58.3721 128.286C58.0641 128.286 57.8261 128.202 57.6581 128.034C57.4994 127.866 57.4201 127.628 57.4201 127.32C57.4201 127.012 57.5087 126.765 57.6861 126.578C57.8727 126.391 58.1247 126.298 58.4421 126.298ZM62.3025 130.526L63.2825 134.25H63.3805L64.5565 130.624L64.7945 129.49H66.4185L64.2345 136H62.2325L60.3845 129.532L62.1205 129.448L62.3025 130.526ZM67.4448 133.312L67.3748 129.616L69.2088 129.462L69.1248 133.13L69.2088 136H67.3468L67.4448 133.312ZM68.3268 126.298C68.6162 126.298 68.8402 126.382 68.9988 126.55C69.1668 126.718 69.2508 126.951 69.2508 127.25C69.2508 127.567 69.1622 127.819 68.9848 128.006C68.8075 128.193 68.5648 128.286 68.2568 128.286C67.9488 128.286 67.7108 128.202 67.5428 128.034C67.3842 127.866 67.3048 127.628 67.3048 127.32C67.3048 127.012 67.3935 126.765 67.5708 126.578C67.7575 126.391 68.0095 126.298 68.3268 126.298ZM76.4012 133.13L76.4432 134.306C76.4432 134.465 76.4619 134.577 76.4992 134.642C76.5459 134.698 76.6252 134.726 76.7372 134.726C76.8399 134.726 76.9659 134.707 77.1152 134.67L77.2412 134.782L77.0872 135.762C76.7699 135.958 76.4246 136.075 76.0512 136.112C75.7619 136.084 75.5192 135.986 75.3232 135.818C75.1272 135.65 74.9919 135.421 74.9172 135.132H74.8052C74.3479 135.552 73.8812 135.874 73.4052 136.098C72.4906 136.098 71.7812 135.809 71.2772 135.23C70.7732 134.642 70.5212 133.83 70.5212 132.794C70.5212 131.693 70.8106 130.848 71.3892 130.26C71.9679 129.672 72.7706 129.378 73.7972 129.378C74.0679 129.378 74.3666 129.406 74.6932 129.462L74.6652 126.312L76.5132 126.172L76.4012 133.13ZM73.6712 130.638C72.7379 130.638 72.2712 131.231 72.2712 132.416C72.2712 133.153 72.3832 133.709 72.6072 134.082C72.8312 134.455 73.1579 134.642 73.5872 134.642C73.9979 134.642 74.3759 134.451 74.7212 134.068L74.7492 133.298L74.7072 130.89C74.3432 130.722 73.9979 130.638 73.6712 130.638ZM84.5544 134.782L84.3864 135.762C84.041 135.986 83.6864 136.103 83.3224 136.112C83.0517 136.065 82.8277 135.958 82.6504 135.79C82.473 135.622 82.3377 135.379 82.2444 135.062H82.1184C81.5864 135.585 81.0357 135.925 80.4664 136.084C79.757 136.084 79.2157 135.925 78.8424 135.608C78.4784 135.281 78.301 134.815 78.3104 134.208L78.3384 132.556L78.2684 129.616L80.0744 129.462L80.0324 133.592C80.023 133.919 80.0884 134.166 80.2284 134.334C80.3684 134.502 80.5784 134.586 80.8584 134.586C81.269 134.586 81.675 134.404 82.0764 134.04V129.616L83.8544 129.462L83.7284 134.306C83.7284 134.455 83.7517 134.563 83.7984 134.628C83.8544 134.693 83.9384 134.726 84.0504 134.726C84.153 134.726 84.279 134.707 84.4284 134.67L84.5544 134.782ZM88.2148 129.364C88.9335 129.364 89.4935 129.527 89.8948 129.854C90.3055 130.171 90.5108 130.619 90.5108 131.198C90.5108 131.366 90.4828 131.898 90.4268 132.794C90.4175 133.055 90.4035 133.326 90.3848 133.606C90.3662 133.877 90.3568 134.11 90.3568 134.306C90.3568 134.465 90.3802 134.577 90.4268 134.642C90.4735 134.698 90.5575 134.726 90.6788 134.726C90.7722 134.726 90.8935 134.707 91.0428 134.67L91.1828 134.782L91.0148 135.762C90.7162 135.958 90.3755 136.075 89.9928 136.112C89.7128 136.084 89.4795 135.986 89.2928 135.818C89.1062 135.641 88.9802 135.398 88.9148 135.09H88.8168C88.3502 135.585 87.8695 135.93 87.3748 136.126C86.7028 136.117 86.1755 135.939 85.7928 135.594C85.4102 135.249 85.2188 134.777 85.2188 134.18C85.2188 133.713 85.3355 133.349 85.5688 133.088C85.8115 132.817 86.1755 132.635 86.6608 132.542L88.8028 132.136V131.562C88.8028 130.955 88.5042 130.652 87.9068 130.652C87.6175 130.652 87.3095 130.717 86.9828 130.848C86.6655 130.979 86.3062 131.184 85.9048 131.464L85.7648 131.38L85.5548 130.148C85.9562 129.896 86.3855 129.705 86.8428 129.574C87.3002 129.434 87.7575 129.364 88.2148 129.364ZM87.3048 133.396C87.1555 133.433 87.0435 133.499 86.9688 133.592C86.9035 133.676 86.8708 133.807 86.8708 133.984C86.8708 134.227 86.9362 134.418 87.0668 134.558C87.1975 134.689 87.3795 134.754 87.6128 134.754C87.9768 134.754 88.3595 134.539 88.7608 134.11L88.7888 133.074L87.3048 133.396ZM94.2131 133.13L94.3111 136H92.4491L92.5471 133.298L92.4631 126.312L94.3251 126.172L94.2131 133.13ZM96.1968 133.312L96.1268 129.616L97.9608 129.462L97.8768 133.13L97.9608 136H96.0988L96.1968 133.312ZM97.0788 126.298C97.3681 126.298 97.5921 126.382 97.7508 126.55C97.9188 126.718 98.0028 126.951 98.0028 127.25C98.0028 127.567 97.9141 127.819 97.7368 128.006C97.5595 128.193 97.3168 128.286 97.0088 128.286C96.7008 128.286 96.4628 128.202 96.2948 128.034C96.1361 127.866 96.0568 127.628 96.0568 127.32C96.0568 127.012 96.1455 126.765 96.3228 126.578C96.5095 126.391 96.7615 126.298 97.0788 126.298ZM100.799 129.49H103.627L104.341 129.476L104.355 130.582L101.205 134.81H103.179L104.369 134.698L104.467 134.824L104.341 136.028L102.717 136H100.141L99.2452 136.042V134.95L102.423 130.694H100.547L99.3852 130.792L99.2732 130.666L99.4132 129.462L100.799 129.49ZM108.217 129.364C108.935 129.364 109.495 129.527 109.897 129.854C110.307 130.171 110.513 130.619 110.513 131.198C110.513 131.366 110.485 131.898 110.429 132.794C110.419 133.055 110.405 133.326 110.387 133.606C110.368 133.877 110.359 134.11 110.359 134.306C110.359 134.465 110.382 134.577 110.429 134.642C110.475 134.698 110.559 134.726 110.681 134.726C110.774 134.726 110.895 134.707 111.045 134.67L111.185 134.782L111.017 135.762C110.718 135.958 110.377 136.075 109.995 136.112C109.715 136.084 109.481 135.986 109.295 135.818C109.108 135.641 108.982 135.398 108.917 135.09H108.819C108.352 135.585 107.871 135.93 107.377 136.126C106.705 136.117 106.177 135.939 105.795 135.594C105.412 135.249 105.221 134.777 105.221 134.18C105.221 133.713 105.337 133.349 105.571 133.088C105.813 132.817 106.177 132.635 106.663 132.542L108.805 132.136V131.562C108.805 130.955 108.506 130.652 107.909 130.652C107.619 130.652 107.311 130.717 106.985 130.848C106.667 130.979 106.308 131.184 105.907 131.464L105.767 131.38L105.557 130.148C105.958 129.896 106.387 129.705 106.845 129.574C107.302 129.434 107.759 129.364 108.217 129.364ZM107.307 133.396C107.157 133.433 107.045 133.499 106.971 133.592C106.905 133.676 106.873 133.807 106.873 133.984C106.873 134.227 106.938 134.418 107.069 134.558C107.199 134.689 107.381 134.754 107.615 134.754C107.979 134.754 108.361 134.539 108.763 134.11L108.791 133.074L107.307 133.396ZM117.827 133.13L117.869 134.306C117.869 134.465 117.888 134.577 117.925 134.642C117.972 134.698 118.051 134.726 118.163 134.726C118.266 134.726 118.392 134.707 118.541 134.67L118.667 134.782L118.513 135.762C118.196 135.958 117.85 136.075 117.477 136.112C117.188 136.084 116.945 135.986 116.749 135.818C116.553 135.65 116.418 135.421 116.343 135.132H116.231C115.774 135.552 115.307 135.874 114.831 136.098C113.916 136.098 113.207 135.809 112.703 135.23C112.199 134.642 111.947 133.83 111.947 132.794C111.947 131.693 112.236 130.848 112.815 130.26C113.394 129.672 114.196 129.378 115.223 129.378C115.494 129.378 115.792 129.406 116.119 129.462L116.091 126.312L117.939 126.172L117.827 133.13ZM115.097 130.638C114.164 130.638 113.697 131.231 113.697 132.416C113.697 133.153 113.809 133.709 114.033 134.082C114.257 134.455 114.584 134.642 115.013 134.642C115.424 134.642 115.802 134.451 116.147 134.068L116.175 133.298L116.133 130.89C115.769 130.722 115.424 130.638 115.097 130.638ZM122.326 129.364C123.045 129.364 123.605 129.527 124.006 129.854C124.417 130.171 124.622 130.619 124.622 131.198C124.622 131.366 124.594 131.898 124.538 132.794C124.529 133.055 124.515 133.326 124.496 133.606C124.477 133.877 124.468 134.11 124.468 134.306C124.468 134.465 124.491 134.577 124.538 134.642C124.585 134.698 124.669 134.726 124.79 134.726C124.883 134.726 125.005 134.707 125.154 134.67L125.294 134.782L125.126 135.762C124.827 135.958 124.487 136.075 124.104 136.112C123.824 136.084 123.591 135.986 123.404 135.818C123.217 135.641 123.091 135.398 123.026 135.09H122.928C122.461 135.585 121.981 135.93 121.486 136.126C120.814 136.117 120.287 135.939 119.904 135.594C119.521 135.249 119.33 134.777 119.33 134.18C119.33 133.713 119.447 133.349 119.68 133.088C119.923 132.817 120.287 132.635 120.772 132.542L122.914 132.136V131.562C122.914 130.955 122.615 130.652 122.018 130.652C121.729 130.652 121.421 130.717 121.094 130.848C120.777 130.979 120.417 131.184 120.016 131.464L119.876 131.38L119.666 130.148C120.067 129.896 120.497 129.705 120.954 129.574C121.411 129.434 121.869 129.364 122.326 129.364ZM121.416 133.396C121.267 133.433 121.155 133.499 121.08 133.592C121.015 133.676 120.982 133.807 120.982 133.984C120.982 134.227 121.047 134.418 121.178 134.558C121.309 134.689 121.491 134.754 121.724 134.754C122.088 134.754 122.471 134.539 122.872 134.11L122.9 133.074L121.416 133.396ZM127.288 134.11C127.578 134.11 127.802 134.194 127.96 134.362C128.128 134.53 128.212 134.763 128.212 135.062C128.212 135.379 128.124 135.631 127.946 135.818C127.769 136.005 127.526 136.098 127.218 136.098C126.91 136.098 126.672 136.014 126.504 135.846C126.346 135.678 126.266 135.44 126.266 135.132C126.266 134.824 126.355 134.577 126.532 134.39C126.719 134.203 126.971 134.11 127.288 134.11Z" fill="white"/>
<defs>
<filter id="filter0_b_152:18477" x="3" y="67" width="161" height="97" filterUnits="userSpaceOnUse" color-interpolation-filters="sRGB">
<feFlood flood-opacity="0" result="BackgroundImageFix"/>
<feGaussianBlur in="BackgroundImage" stdDeviation="5"/>
<feComposite in2="SourceAlpha" operator="in" result="effect1_backgroundBlur_152:18477"/>
<feBlend mode="normal" in="SourceGraphic" in2="effect1_backgroundBlur_152:18477" result="shape"/>
</filter>
<clipPath id="clip0_152:18477">
<rect width="55.9577" height="56.7243" fill="white" transform="translate(56.1009 11.6379)"/>
</clipPath>
</defs>
</svg>
