<svg width="167" height="167" viewBox="0 0 167 167" fill="none" xmlns="http://www.w3.org/2000/svg">
<mask id="mask0_152:18373" style="mask-type:alpha" maskUnits="userSpaceOnUse" x="0" y="0" width="167" height="167">
<rect x="1" y="1" width="165" height="165" rx="8" fill="#5988D6" stroke="#EDE6FC" stroke-opacity="0.3"/>
</mask>
<g mask="url(#mask0_152:18373)">
<rect x="1" y="1" width="165" height="165" rx="8" fill="#A97AD9" stroke="#EDE6FC" stroke-opacity="0.3"/>
<path d="M116.417 66.8491C118.641 67.3182 120.937 67.3261 123.165 66.8723C125.392 66.4185 127.502 65.5127 129.365 64.2109C130.121 63.709 130.781 63.0758 131.314 62.3413C132.306 60.8933 132.435 59.0039 132.083 57.293C131.681 55.3639 130.342 53.6878 130.233 51.7339C130.119 49.6958 131.279 48.2626 132.301 46.5964C136.268 40.2736 133.625 32.3888 127.292 28.8778C125.309 27.767 122.938 27.0677 121.505 25.2775C120.788 24.2881 120.258 23.1754 119.943 21.9946C118.455 17.3034 116.888 13.0684 113.496 9.39872C110.104 5.72904 104.01 4.22645 99.1944 5.38191C95.49 6.27453 92.1972 6.90929 88.4035 6.52744C86.5488 6.339 84.6743 6.45306 82.8196 6.39851C78.8524 6.28941 74.6075 8.31765 71.9395 11.184C68.86 14.4966 67.526 19.4655 68.9641 23.7601C69.7724 26.2098 70.4915 27.4793 69.3708 29.9886C68.4285 32.0863 66.797 33.7922 65.6713 35.7907C64.3114 38.3296 63.7797 41.2303 64.1505 44.0865C64.5213 46.9428 65.7761 49.6115 67.7392 51.7191C68.6055 52.6577 69.6714 53.3898 70.8585 53.8614C72.2817 54.3573 73.8339 54.3573 75.3216 54.5507C77.0275 54.7689 78.7929 55.3292 79.8938 56.6583C80.6873 57.6203 81.0294 58.8601 81.5848 59.9758C82.1403 61.0916 83.0726 62.1727 84.3123 62.2719C85.2744 62.3413 86.1719 61.8008 86.9158 61.1908" fill="#CE534A"/>
<g style="mix-blend-mode:multiply" opacity="0.26">
<g style="mix-blend-mode:multiply" opacity="0.26">
<path d="M91.483 9.60205C88.7382 9.79545 86.0064 10.1431 83.3006 10.6434C81.1524 10.962 79.0644 11.6023 77.1068 12.5428C75.1877 13.5346 73.4917 15.1314 72.733 17.1646C70.8832 22.1236 75.0389 27.7818 73.4322 32.8351C72.0734 37.0899 67.1293 40.4274 70.0848 45.193C72.723 49.4429 79.7153 47.9403 83.0081 51.8579C85.4876 54.7887 85.4231 59.6982 88.7655 61.5528C91.1657 62.8819 94.1312 61.9198 96.6999 60.928C98.7827 60.1147 101.118 59.0188 101.718 56.8616C102.066 55.6268 101.718 54.3176 101.51 53.058C100.857 49.391 101.043 45.6236 102.056 42.0391C102.671 39.8769 103.593 37.7445 103.583 35.4931C103.573 33.2417 102.259 30.7721 100.042 30.3903" fill="#CE534A"/>
</g>
</g>
<path d="M127.54 109.15C127.51 108.912 127.543 108.671 127.634 108.45C129.188 104.325 129.856 99.918 129.593 95.5172C129.385 91.4657 128.482 87.4737 128.83 83.4073C128.849 83.1136 128.953 82.8317 129.129 82.5959C129.305 82.36 129.545 82.1802 129.821 82.0782C129.623 81.2005 129.405 80.3178 129.142 79.44C127.357 73.4347 124.297 67.3648 118.971 63.7695C116.953 62.4058 114.533 61.7859 112.366 60.6602C107.59 58.2154 105.299 50.3058 108.79 45.8228C110.06 44.1863 111.627 42.6986 112.37 40.7695C115.078 40.6654 118.614 40.0207 119.968 37.4321C121.629 34.2534 120.885 28.6844 116.566 28.5059C115.89 28.4655 115.216 28.6048 114.611 28.9097C114.007 29.2145 113.494 29.6741 113.124 30.2415C113.473 26.4507 113.068 22.6283 111.934 18.9944C111.369 17.1943 110.987 16.267 109.559 15.0272C108.153 13.7754 106.636 12.6549 105.026 11.6799C102.343 10.1453 99.3497 9.23442 96.267 9.01465C93.1842 8.79488 90.0915 9.27191 87.2183 10.4104C85.2703 11.1375 83.523 12.317 82.1204 13.8519C80.1368 16.2025 79.3632 19.3912 78.9218 22.436C78.15 27.8059 78.1316 33.2572 78.8673 38.6322C79.1698 40.8291 79.6211 43.0953 80.8509 44.9202C81.9766 46.6014 83.8759 48.0147 85.8893 48.2378C87.9026 48.461 89.7226 48.4808 91.7062 48.5403C93.1245 48.58 94.5973 48.7536 95.8172 49.4875C98.1678 50.9008 98.1678 53.5638 96.7446 55.6615C96.4213 56.163 95.989 56.585 95.48 56.8963C93.7543 57.8881 91.5128 56.8963 89.6681 56.9608C87.5605 57.0104 85.7851 57.1244 83.9106 58.2204C81.8024 59.44 79.8704 60.9416 78.1681 62.6835C75.0885 65.8275 72.6288 69.5021 69.9212 72.9536C68.4732 74.8033 66.9458 76.7275 64.7787 77.6598C62.0116 78.8598 59.8197 76.6184 58.4063 74.3918C56.7714 71.8226 55.4117 69.0883 54.3499 66.2342C50.7897 67.7002 47.3436 69.429 44.04 71.4064C44.0748 71.6544 44.1095 71.8676 44.1293 72.0164C44.4368 74.0496 45.4286 75.9836 45.9889 77.9672C47.192 82.2473 48.9633 86.3469 51.2554 90.1565C52.2472 91.8326 53.4771 94.2874 55.064 95.4825C58.0394 97.719 63.1968 96.9107 66.3358 95.6214C71.4684 93.5138 75.4604 90.0672 78.9764 85.8917C78.5103 93.311 77.4389 100.68 75.7729 107.925C75.6863 108.196 75.6863 108.487 75.7729 108.758C75.945 109.044 76.2171 109.256 76.5365 109.353C82.1947 111.776 88.1136 113.538 94.1758 114.605C99.6555 115.596 106.435 117.233 111.428 114.039C111.73 113.796 112.095 113.645 112.48 113.603C112.728 113.621 112.97 113.686 113.194 113.796C116.703 115.161 120.526 115.505 124.223 114.788C125.567 113.059 126.682 111.164 127.54 109.15Z" fill="#FF927D"/>
<path d="M127.54 109.15C127.51 108.912 127.543 108.671 127.634 108.45C129.188 104.325 129.855 99.918 129.593 95.5172C129.385 91.4657 128.482 87.4736 128.829 83.4072C128.849 83.1136 128.953 82.8317 129.129 82.5958C129.305 82.36 129.545 82.1802 129.821 82.0782C129.623 81.2005 129.405 80.3178 129.142 79.44C127.357 73.4346 124.297 67.3648 118.971 63.7695C116.953 62.4058 114.533 61.7859 112.365 60.6602C111.834 60.3859 111.335 60.0532 110.878 59.6684C108.469 61.6165 105.439 62.6322 102.343 62.5297C100.636 62.4071 98.9847 61.8679 97.5341 60.9593C96.0834 60.0507 94.8776 58.8004 94.022 57.3178C92.6038 57.4319 91.0466 56.931 89.6878 56.9608C87.5803 57.0103 85.8049 57.1244 83.9304 58.2203C81.8222 59.44 79.8902 60.9415 78.1879 62.6835C75.7084 65.2423 73.5908 68.1384 71.4386 70.9948C72.8916 74.3124 75.8621 77.0399 77.7515 80.2483C78.5635 81.4845 79.0088 82.9253 79.0359 84.404C79.003 85.0069 78.8947 85.6034 78.7135 86.1793L78.9863 85.8669C78.5202 93.2862 77.4488 100.655 75.7827 107.9C75.6962 108.171 75.6962 108.462 75.7827 108.733C75.9549 109.019 76.227 109.231 76.5464 109.328C82.2004 111.759 88.1159 113.53 94.1758 114.604C99.6555 115.596 106.434 117.233 111.428 114.039C111.73 113.796 112.095 113.645 112.48 113.603C112.728 113.621 112.97 113.686 113.194 113.796C116.703 115.161 120.526 115.505 124.223 114.788C125.567 113.059 126.682 111.164 127.54 109.15Z" fill="#AA4F7A"/>
<path d="M80.8211 21.7765C82.2592 21.5038 85.8347 19.4011 85.3487 17.5266C84.823 15.5083 81.6592 17.3828 80.8856 18.2556C80.345 18.8705 78.902 20.4822 79.3185 21.3203C79.5764 21.8211 80.2707 21.8707 80.8211 21.7765Z" fill="#C46153"/>
<path d="M100.692 19.2672C99.2439 19.4706 95.1825 18.6325 95.0387 16.6985C94.8849 14.6256 98.4852 15.3794 99.5018 15.9596C100.211 16.3662 102.105 17.4175 101.981 18.3498C101.887 18.8953 101.247 19.1879 100.692 19.2672Z" fill="#C46153"/>
<path d="M92.6385 31.0944C92.5988 31.0944 92.46 31.2928 92.1872 31.6647C91.809 32.1852 91.3657 32.6552 90.8681 33.0632C90.5571 33.3413 90.1824 33.5389 89.7772 33.6384C89.6002 33.6785 89.415 33.6575 89.2515 33.5789C89.2515 33.5789 89.2515 33.5789 89.2515 33.4648C89.2515 33.3508 89.3358 33.2318 89.3755 33.1028C90.5614 29.8858 90.9145 26.4212 90.402 23.031C90.1441 21.3648 89.7623 20.3879 89.6978 20.4028C89.6333 20.4176 89.8466 21.4342 90.0003 23.0806C90.2114 25.2207 90.1296 27.3796 89.7573 29.4976C89.5531 30.6623 89.2597 31.8096 88.8796 32.9293C88.8399 33.0632 88.7953 33.1673 88.7506 33.3409C88.7277 33.4437 88.7277 33.5504 88.7506 33.6533C88.7775 33.7713 88.8419 33.8774 88.9341 33.9558C89.075 34.0687 89.2495 34.1315 89.43 34.1343C89.5778 34.1472 89.7267 34.1372 89.8714 34.1045C90.3502 33.9757 90.7865 33.7225 91.1359 33.3706C91.6373 32.9156 92.0582 32.3791 92.3806 31.7837C92.5988 31.3622 92.6683 31.1093 92.6385 31.0944Z" fill="#C46153"/>
<path d="M94.0717 33.9509C93.9874 33.9509 93.8783 34.1989 93.6303 34.5411C93.318 34.9852 92.8841 35.3296 92.3806 35.5329C91.8698 35.7089 91.3196 35.7364 90.7937 35.6122C90.3772 35.518 90.1243 35.3841 90.0747 35.4535C90.0251 35.5229 90.2036 35.7709 90.6549 35.994C90.9535 36.1358 91.2774 36.2163 91.6076 36.2311C91.9378 36.2458 92.2676 36.1943 92.5776 36.0798C92.8876 35.9652 93.1716 35.7898 93.4128 35.5638C93.6541 35.3379 93.8477 35.066 93.9824 34.7642C94.1758 34.2683 94.1411 33.9608 94.0717 33.9509Z" fill="#C46153"/>
<path d="M86.2661 25.9768C86.1818 25.9768 86.1174 26.7801 85.9041 28.0546C85.7784 28.7985 85.6129 29.5352 85.4082 30.2614C85.299 30.6649 85.1194 31.046 84.8776 31.3871C84.7696 31.5546 84.6234 31.6941 84.451 31.7941C84.2785 31.8941 84.0848 31.9517 83.8858 31.9623C83.6935 31.9249 83.5128 31.8425 83.3585 31.7219C83.2042 31.6012 83.0807 31.4457 82.9981 31.268C82.7965 30.8909 82.6305 30.4958 82.5022 30.0878C82.2524 29.384 82.0859 28.6534 82.0063 27.9108C81.8675 26.6363 82.0063 25.833 81.8972 25.8181C81.7881 25.8032 81.565 26.5966 81.5997 27.9405C81.6265 28.7245 81.7566 29.5015 81.9865 30.2514C82.1219 30.7034 82.303 31.1404 82.527 31.5557C82.6575 31.7894 82.825 32.0004 83.0229 32.1805C83.2537 32.3881 83.5466 32.5136 83.8561 32.5376C84.1634 32.5484 84.466 32.4597 84.7189 32.2846C84.9461 32.1346 85.1444 31.9448 85.3041 31.7243C85.5816 31.3248 85.7834 30.8776 85.8992 30.4052C86.0817 29.6505 86.2061 28.8829 86.2711 28.1091C86.4199 26.79 86.3356 25.9768 86.2661 25.9768Z" fill="#C46153"/>
<path d="M101.461 24.0378C101.371 24.0378 101.461 24.9354 101.337 26.3487C101.279 27.1789 101.155 28.0031 100.965 28.8133C100.865 29.2801 100.722 29.7366 100.538 30.1771C100.473 30.3825 100.352 30.5659 100.189 30.7076C100.027 30.8492 99.8283 30.9436 99.6158 30.9804C99.1555 30.9632 98.7184 30.7738 98.391 30.4498C98.0424 30.1199 97.7508 29.7345 97.5281 29.3092C97.1199 28.6 96.8033 27.8418 96.5859 27.0529C96.2139 25.6991 96.2239 24.8015 96.1296 24.8015C96.0354 24.8015 95.9065 25.704 96.1892 27.1471C96.3639 27.9918 96.6595 28.8068 97.0669 29.5671C97.3019 30.04 97.6135 30.4706 97.9893 30.8416C98.4234 31.2769 99.011 31.5245 99.6258 31.5309C99.9658 31.5047 100.286 31.3588 100.528 31.1193C100.736 30.9064 100.904 30.6578 101.024 30.3854C101.219 29.9056 101.363 29.4071 101.456 28.8976C101.632 28.061 101.725 27.2088 101.733 26.3537C101.758 24.9056 101.53 24.0279 101.461 24.0378Z" fill="#C46153"/>
<path d="M117.513 30.0431C117.478 29.9836 116.898 30.2216 116.129 30.8614C115.131 31.714 114.361 32.8022 113.889 34.0274C113.417 35.2527 113.258 36.5763 113.427 37.8784C113.561 38.8702 113.833 39.4306 113.923 39.4107C114.012 39.3909 113.883 38.7958 113.853 37.8486C113.802 36.6164 114.004 35.3866 114.447 34.2358C114.891 33.0849 115.566 32.0376 116.432 31.1589C117.067 30.4696 117.558 30.1225 117.513 30.0431Z" fill="#C46153"/>
<path d="M114.691 38.414C114.731 38.4735 115.078 38.3545 115.465 37.9181C115.967 37.3405 116.234 36.5955 116.214 35.8303C116.18 35.0661 115.863 34.3416 115.326 33.7971C114.924 33.3954 114.602 33.2566 114.557 33.3012C114.513 33.3458 114.726 33.6136 115.014 34.0401C115.398 34.56 115.616 35.1841 115.639 35.8302C115.662 36.4763 115.489 37.1143 115.143 37.6602C114.885 38.1164 114.642 38.3445 114.691 38.414Z" fill="#C46153"/>
<path d="M115.668 42.4011C117.582 42.4011 117.582 39.4257 115.668 39.4257C113.754 39.4257 113.749 42.4011 115.668 42.4011Z" fill="#FFF5FF"/>
<g style="mix-blend-mode:multiply" opacity="0.33">
<g style="mix-blend-mode:multiply" opacity="0.33">
<path d="M103.895 41.2703C106.347 41.2703 108.334 39.2832 108.334 36.832C108.334 34.3808 106.347 32.3937 103.895 32.3937C101.444 32.3937 99.4571 34.3808 99.4571 36.832C99.4571 39.2832 101.444 41.2703 103.895 41.2703Z" fill="#FF927D"/>
</g>
<g style="mix-blend-mode:multiply" opacity="0.33">
<path d="M78.8771 33.7079C78.7234 33.7079 78.5647 33.7079 78.416 33.7079C78.5003 35.3444 78.6441 36.9809 78.8672 38.6074C79.0245 39.9214 79.3034 41.218 79.7003 42.4804C80.7841 42.2727 81.7515 41.6688 82.4141 40.7864C83.0767 39.9041 83.3868 38.8065 83.284 37.7079C83.1812 36.6093 82.6728 35.5883 81.8581 34.8442C81.0433 34.1001 79.9806 33.6861 78.8771 33.6831V33.7079Z" fill="#FF927D"/>
</g>
</g>
<path d="M113.923 61.3495C113.397 61.1263 112.871 60.8932 112.366 60.6354C111.834 60.3611 111.335 60.0284 110.878 59.6435C108.469 61.5916 105.44 62.6074 102.343 62.5049C100.638 62.3849 98.9887 61.8495 97.5382 60.9453C96.0877 60.0411 94.8806 58.7957 94.0221 57.3178C93.0239 57.3337 92.0267 57.2456 91.0467 57.0549C91.6526 58.8158 92.6191 60.431 93.8846 61.7972C95.15 63.1634 96.6865 64.2506 98.396 64.9894C100.463 65.8039 102.695 66.1141 104.906 65.8942C107.118 65.6743 109.244 64.9306 111.111 63.7248C112.14 63.0487 113.084 62.2512 113.923 61.3495Z" fill="#9B4471"/>
<g style="mix-blend-mode:multiply" opacity="0.21">
<g style="mix-blend-mode:multiply" opacity="0.21">
<path d="M91.2946 8.81848C93.665 11.298 94.1014 14.9925 94.5973 18.3944C95.0932 21.7963 95.9958 25.5205 98.8423 27.4496C100.33 28.4414 102.13 28.8133 103.905 28.9868C107.858 29.383 111.85 28.9627 115.634 27.7521C112.458 24.9051 110.301 21.0983 109.489 16.9116" fill="#FF927D"/>
</g>
</g>
<path d="M91.7607 8.20361C93.6055 9.34915 94.5279 11.5361 94.989 13.6585C95.4502 15.781 95.5693 17.9927 96.328 20.0259C97.3749 22.6514 99.2896 24.8391 101.753 26.2247C105.259 28.2629 108.433 27.8761 112.222 28.3174C113.055 28.4488 113.903 28.4488 114.736 28.3174C115.147 28.2598 115.537 28.0979 115.867 27.847C116.198 27.5961 116.459 27.2647 116.625 26.8843C114.185 24.8461 114.85 23.1402 113.61 20.383C112.256 17.3332 109.871 14.8289 107.233 12.8403C102.795 9.49792 97.0917 7.38537 91.6467 8.51107" fill="#CE534A"/>
<path d="M106.003 21.5286C107.491 23.9337 108.979 26.3587 109.861 29.0266C110.744 31.6946 111.051 34.665 110.099 37.3181C109.37 39.3464 107.977 41.0572 106.663 42.773C105.348 44.4889 104.064 46.3088 103.613 48.4164C103.162 50.524 103.737 53.0035 105.532 54.1986C106.608 54.9177 107.947 55.0913 109.231 55.1904C113.527 55.6027 117.847 55.6806 122.155 55.4235C120.102 54.0945 118.024 52.7407 116.422 50.891C114.82 49.0413 113.739 46.5965 114.066 44.1764C114.275 42.659 115.004 41.2655 115.351 39.7778C115.936 37.2536 115.376 34.5857 114.384 32.1905C113.888 30.9805 113.263 29.6515 113.724 28.4266C113.982 27.7373 114.543 27.2116 114.924 26.5818C115.296 25.9673 115.492 25.2626 115.491 24.5445C115.49 23.8264 115.292 23.1223 114.919 22.5088C114.545 21.8952 114.011 21.3958 113.374 21.0647C112.737 20.7337 112.021 20.5836 111.304 20.631" fill="#CE534A"/>
<path d="M44.1194 48.4462H44.0202C43.825 48.4202 43.6481 48.318 43.5281 48.1618C43.4082 48.0056 43.3551 47.8083 43.3805 47.613L44.9773 35.7114C45.0021 35.5195 45.1012 35.345 45.2532 35.2254C45.4053 35.1058 45.5982 35.0506 45.7905 35.0717L54.7168 36.004C54.8145 36.0141 54.9092 36.0433 54.9956 36.09C55.082 36.1367 55.1583 36.2 55.2203 36.2762C55.2822 36.3524 55.3285 36.4401 55.3566 36.5342C55.3846 36.6283 55.3939 36.727 55.3838 36.8247C55.3737 36.9224 55.3445 37.0171 55.2977 37.1035C55.251 37.1899 55.1878 37.2662 55.1116 37.3281C55.0353 37.3901 54.9477 37.4364 54.8536 37.4645C54.7595 37.4925 54.6607 37.5018 54.5631 37.4917L46.3559 36.6437L44.8682 47.8015C44.8429 47.9815 44.753 48.1462 44.6152 48.2649C44.4774 48.3835 44.3012 48.4479 44.1194 48.4462Z" fill="#9B4471"/>
<path d="M51.0719 73.4792H38.0297C37.7591 73.4788 37.4987 73.3765 37.3002 73.1927C37.1017 73.0089 36.9797 72.7571 36.9585 72.4874L34.479 46.9832H54.6226L52.1431 72.4874C52.1219 72.7571 51.9999 73.0089 51.8014 73.1927C51.6029 73.3765 51.3424 73.4788 51.0719 73.4792Z" fill="#FB93AF"/>
<path d="M44.5508 68.1434C48.2893 68.1434 51.3199 64.7287 51.3199 60.5164C51.3199 56.3041 48.2893 52.8894 44.5508 52.8894C40.8123 52.8894 37.7817 56.3041 37.7817 60.5164C37.7817 64.7287 40.8123 68.1434 44.5508 68.1434Z" fill="#E27798"/>
<g style="mix-blend-mode:multiply" opacity="0.18">
<g style="mix-blend-mode:multiply" opacity="0.18">
<path d="M52.7679 65.7482C50.7843 64.3993 48.5428 63.586 46.4203 62.5198C44.2979 61.4537 42.22 60.0403 41.1043 57.9526C40.5276 56.7659 40.1649 55.4866 40.0331 54.1738C39.7223 51.7913 39.754 49.3766 40.1273 47.0031H34.479L36.9585 72.5073C36.9797 72.777 37.1017 73.0288 37.3002 73.2126C37.4987 73.3964 37.7591 73.4987 38.0297 73.4991H51.0719C51.3424 73.4987 51.6029 73.3964 51.8014 73.2126C51.9999 73.0288 52.1219 72.777 52.1431 72.5073L52.7977 65.768L52.7679 65.7482Z" fill="#FB93AF"/>
</g>
</g>
<path d="M54.8457 45.922H34.2608C33.8664 45.922 33.5467 46.2417 33.5467 46.6361V48.9272C33.5467 49.3216 33.8664 49.6413 34.2608 49.6413H54.8457C55.2401 49.6413 55.5598 49.3216 55.5598 48.9272V46.6361C55.5598 46.2417 55.2401 45.922 54.8457 45.922Z" fill="#E27798"/>
<path d="M56.2491 71.2428C55.3274 68.2927 54.1955 65.4124 52.8621 62.624C52.0885 61.0173 51.2058 59.4701 49.6586 58.4981C48.7015 57.8981 47.1791 57.3575 47.4766 58.9196C47.5956 59.6139 48.7461 60.3677 49.1577 60.9032C49.8706 61.7772 50.3926 62.7908 50.6901 63.8787C51.4141 66.9433 49.4553 69.5815 49.5049 72.6512C49.5445 74.8232 50.5314 77.1143 52.4803 78.1061" fill="#FF927D"/>
<path d="M80.0178 69.512C89.8473 69.512 97.8158 68.5706 97.8158 67.4094C97.8158 66.2481 89.8473 65.3068 80.0178 65.3068C70.1883 65.3068 62.2198 66.2481 62.2198 67.4094C62.2198 68.5706 70.1883 69.512 80.0178 69.512Z" fill="#C98E36"/>
<path d="M83.8164 71.4908C82.8382 70.4289 82.2673 69.0552 82.2047 67.6128C82.0309 65.8675 82.4202 64.1124 83.3155 62.6042C83.5467 62.2276 83.8625 61.91 84.2379 61.6769C84.4277 61.5642 84.6407 61.4963 84.8606 61.4783C85.0806 61.4602 85.3018 61.4925 85.5074 61.5727C85.8106 61.7354 86.0642 61.977 86.2414 62.2719C87.1224 63.6663 87.4232 65.35 87.0794 66.9632C86.7322 68.564 86.0041 70.0575 84.957 71.3172" fill="#A4B24A"/>
<path d="M85.3437 68.1533C85.7355 67.8657 86.276 67.459 86.8612 67.0028L87.1042 66.8094C87.1042 66.73 87.1042 66.6457 87.1389 66.5664L86.7521 66.8639C86.1669 67.3202 85.6462 67.7417 85.2644 68.0541C84.9619 68.312 84.7685 68.4905 84.6991 68.55C84.7288 68.1037 84.7487 67.6326 84.7635 67.1317C84.7635 66.5168 84.7635 65.9316 84.7635 65.401C84.8677 65.3266 85.0561 65.1679 85.314 64.9497L86.8017 63.6654L86.886 63.5959L86.8265 63.4174L86.6876 63.5364C86.1074 64.0323 85.5967 64.5282 85.2346 64.8555C85.0164 65.0688 84.8528 65.2324 84.7387 65.3514C84.7387 64.8555 84.704 64.4142 84.6743 64.0422C84.6445 63.6703 84.6148 63.3232 84.585 63.105C84.5835 62.9885 84.5634 62.873 84.5255 62.7628C84.5138 62.8782 84.5138 62.9945 84.5255 63.1099C84.5255 63.4472 84.5503 63.7596 84.5602 64.0472C84.5602 64.4191 84.5602 64.8555 84.59 65.3415C84.2924 65.0886 83.5635 64.5381 82.6659 63.8538C82.6659 63.9084 82.6212 63.9629 82.6064 64.0175C83.5287 64.682 84.2875 65.2027 84.59 65.3861C84.59 65.9168 84.59 66.5019 84.59 67.1218C84.59 67.6177 84.5602 68.069 84.5404 68.5004C84.466 68.4359 84.1784 68.2376 83.7469 67.95L82.1749 66.8738C82.1749 66.9433 82.1749 67.0127 82.1749 67.0821C82.7452 67.4689 83.2709 67.8012 83.6626 68.0491C83.9379 68.2296 84.2226 68.3951 84.5156 68.545C84.4858 69.1848 84.4412 69.765 84.4065 70.2311L84.3271 71.1684C84.3271 71.2725 84.3271 71.3518 84.3271 71.4114H84.3668C84.3668 71.3518 84.3668 71.2775 84.4114 71.1832C84.4462 70.965 84.4908 70.6427 84.5404 70.2509C84.59 69.8592 84.6495 69.2244 84.6941 68.5946C84.92 68.4618 85.137 68.3144 85.3437 68.1533Z" fill="#8D963D"/>
<path d="M93.5758 66.5664C93.5758 67.0871 93.7394 67.5582 93.8138 68.1037C94.0469 69.7551 92.5591 71.1783 90.9673 71.3816C90.0152 71.5007 89.0333 71.218 88.0911 71.3816C87.5653 71.4899 87.0787 71.7384 86.6827 72.1007C86.3728 72.4134 86.1653 72.8129 86.0876 73.2462C86.038 73.1966 85.2793 72.6264 85.2545 72.7107C85.6076 71.5279 85.557 70.2612 85.1107 69.1104C84.5801 67.9599 84.4759 65.9813 85.2942 64.925C85.604 64.5381 86.0042 64.2333 86.4595 64.0373C86.886 63.8439 87.3125 63.9233 87.7291 63.7547C88.9043 63.2836 89.4845 61.3297 90.154 60.3577C90.8235 59.3858 91.7905 58.5229 92.9608 58.4931C93.4305 58.4895 93.8939 58.6019 94.3097 58.8204C96.2933 59.842 94.8948 62.4256 94.2452 63.9381C93.9285 64.6076 93.7098 65.319 93.5956 66.0507C93.5755 66.2218 93.5689 66.3943 93.5758 66.5664Z" fill="#78894A"/>
<path d="M92.1178 69.1699C92.7079 69.0906 93.2683 69.0063 93.784 68.922C93.8008 68.8569 93.8124 68.7905 93.8187 68.7236L92.088 68.9666C90.764 69.1402 89.5639 69.274 88.6961 69.3633C88.096 69.4278 87.6596 69.4774 87.4464 69.5121C87.8282 68.7484 88.2597 67.9351 88.7357 67.097C89.2118 66.259 89.7275 65.411 90.2234 64.6621C90.3871 64.6621 90.6697 64.6175 91.0367 64.5679C91.6417 64.4836 92.4699 64.3448 93.3823 64.1613L94.2303 63.9828C94.2551 63.9183 94.2898 63.8489 94.3196 63.7794L93.3278 63.9778L91.002 64.444L90.2631 64.6026C90.8384 63.715 91.3838 62.9265 91.85 62.2868C92.3161 61.6471 92.6434 61.2156 92.8914 60.8883C93.0302 60.7241 93.1547 60.5482 93.2633 60.3627C93.105 60.5148 92.9606 60.6807 92.8319 60.8586C92.5591 61.171 92.1823 61.6371 91.7359 62.2223C91.2896 62.8075 90.6896 63.6307 90.1044 64.5183C90.1044 64.3547 90.0499 64.0869 90.0003 63.7348C89.916 63.1447 89.8019 62.3314 89.7127 61.4338C89.7127 61.3545 89.7127 61.2801 89.6879 61.2057L89.5193 61.5429C89.5938 62.2871 89.7064 63.0269 89.8565 63.7596C89.9358 64.1563 90.0102 64.444 90.0548 64.5878C89.5589 65.3366 89.063 66.1548 88.5671 67.0375C88.0712 67.9202 87.6547 68.6988 87.2728 69.4774C87.2331 69.279 87.1687 68.9815 87.0794 68.55C86.9257 67.8508 86.7224 66.8788 86.5141 65.8027C86.4099 65.2424 86.3157 64.7068 86.2314 64.2208L86.0529 64.3249C86.1273 64.7911 86.2116 65.3167 86.3157 65.8424C86.519 66.9185 86.7521 67.8905 86.9406 68.5847C87.0645 69.0459 87.1637 69.3831 87.2282 69.5765C86.7323 70.5684 86.3356 71.4858 86.0281 72.2445C85.9091 72.5371 85.8049 72.7999 85.7107 73.0429L85.8099 73.1173L86.162 72.304C86.4942 71.5403 86.9207 70.6229 87.4216 69.6212H87.6745C87.9224 69.6212 88.2745 69.6212 88.7109 69.5716C89.5837 69.4774 90.7888 69.3435 92.1178 69.1699Z" fill="#647039"/>
<path d="M77.0721 71.9023C78.701 70.7343 79.8625 69.0262 80.35 67.0821C80.9798 64.8059 81.1286 62.1528 80.2409 59.951C80.0361 59.3734 79.696 58.8531 79.2491 58.4336C79.0235 58.2247 78.7523 58.0712 78.4571 57.9852C78.1619 57.8991 77.8508 57.8828 77.5482 57.9377C77.0884 58.0697 76.6746 58.3273 76.3531 58.6815C74.7537 60.3298 73.8636 62.539 73.8736 64.8357C73.9025 67.11 74.4755 69.3443 75.5447 71.3518" fill="#A4B24A"/>
<path d="M75.9265 66.9384C75.4703 66.4425 74.8554 65.7333 74.1859 64.9548L73.9033 64.6225C73.9033 64.5085 73.9033 64.3994 73.9033 64.2853L74.3446 64.7812C75.0141 65.5647 75.6092 66.2689 76.0356 66.8144C76.2602 67.0842 76.4705 67.3656 76.6654 67.6574C76.7497 67.0475 76.8489 66.3929 76.9729 65.7135C77.1266 64.8754 77.2952 64.077 77.4688 63.358C77.3498 63.2241 77.1316 62.9563 76.844 62.5844L75.1777 60.4321L75.0885 60.3131C75.1281 60.2387 75.1678 60.1644 75.2124 60.09L75.3711 60.2883C76.0208 61.1363 76.5861 61.9198 76.9779 62.4951C77.2159 62.8422 77.3944 63.115 77.4738 63.2786C77.6324 62.6141 77.7862 62.019 77.93 61.5132C78.0738 61.0074 78.2127 60.5561 78.3118 60.2635C78.3526 60.1064 78.4126 59.9548 78.4904 59.8123C78.4834 59.9809 78.4534 60.1477 78.4011 60.3082C78.292 60.7644 78.1879 61.1909 78.0936 61.5777C77.9746 62.0736 77.8358 62.6736 77.692 63.3282C78.1879 63.0703 79.3086 62.5199 80.717 61.8752C80.717 61.9546 80.7467 62.0389 80.7566 62.1182C79.3136 62.7579 78.1333 63.2588 77.6721 63.4224C77.5134 64.1464 77.3498 64.9449 77.1762 65.7879C77.0572 66.4474 76.9531 67.0822 76.8638 67.6822C76.9779 67.6128 77.4242 67.4244 78.0936 67.1467C78.7631 66.869 79.5813 66.5317 80.5335 66.1251L80.474 66.4078C79.5813 66.7797 78.778 67.0872 78.1531 67.3053C77.7301 67.4662 77.2979 67.602 76.8588 67.712C76.7249 68.5947 76.6158 69.3931 76.5415 70.0427C76.4919 70.4395 76.4373 70.8709 76.3828 71.342C76.3828 71.4858 76.3481 71.5949 76.3332 71.6742H76.2836C76.2836 71.5949 76.2836 71.4908 76.2836 71.3519C76.2836 71.0445 76.3183 70.5981 76.3679 70.0477C76.4175 69.403 76.5018 68.6195 76.6258 67.7467C76.3728 67.4951 76.1391 67.2249 75.9265 66.9384Z" fill="#8D963D"/>
<path d="M67.3524 66.3581C67.3524 66.854 67.2036 67.2854 67.1342 67.7764C66.921 69.3087 68.2946 70.6278 69.7674 70.8163C70.6501 70.9254 71.5626 70.6625 72.4354 70.8163C72.9221 70.919 73.3724 71.1502 73.7396 71.4857C74.0236 71.7749 74.2137 72.143 74.2851 72.542C74.3347 72.4974 75.0389 71.9717 75.0587 72.0461C74.73 70.9498 74.7771 69.7751 75.1926 68.7087C75.6885 67.6425 75.7827 65.8126 75.024 64.8357C74.7354 64.478 74.3645 64.1956 73.9429 64.0125C73.5512 63.8339 73.1545 63.9083 72.7676 63.7546C71.6767 63.3182 71.1411 61.5032 70.5262 60.6056C69.9113 59.708 69.0037 58.9096 67.9227 58.8799C67.4875 58.8757 67.0581 58.9796 66.673 59.1824C64.8233 60.1246 66.1325 62.5198 66.7325 63.9182C67.0268 64.5389 67.2306 65.1986 67.3375 65.8771C67.3561 66.0367 67.3611 66.1976 67.3524 66.3581Z" fill="#78894A"/>
<path d="M68.731 68.7682C68.1856 68.6938 67.6649 68.6145 67.1838 68.5401C67.1838 68.4756 67.1838 68.4161 67.1541 68.3517C67.65 68.426 68.1905 68.5054 68.7558 68.5798C69.9807 68.7385 71.0915 68.8624 71.8999 68.9467C72.4503 69.0063 72.857 69.0509 73.0553 69.0856C72.6983 68.3765 72.3015 67.5979 71.8602 66.8491C71.4188 66.1003 70.9279 65.287 70.4816 64.5927C70.3279 64.5927 70.065 64.5531 69.7229 64.5035C69.1674 64.4291 68.3988 64.3001 67.5558 64.1315L66.7474 63.9629C66.7474 63.9034 66.6929 63.839 66.6681 63.7745L67.5806 63.9629L69.7377 64.3944L70.4221 64.5382C69.8865 63.715 69.3807 62.991 68.9344 62.3959C68.4881 61.8008 68.2004 61.4041 67.9426 61.0966C67.8166 60.9398 67.7023 60.7741 67.6004 60.6007C67.745 60.7359 67.8793 60.8818 68.0021 61.0371C68.25 61.3247 68.5972 61.7562 68.9939 62.3017C69.3906 62.8471 69.9857 63.6059 70.5064 64.4291C70.5064 64.2753 70.556 64.0274 70.6056 63.7051C70.6799 63.1596 70.7841 62.4058 70.8684 61.5677C70.8684 61.4983 70.8684 61.4289 70.8684 61.3594L71.0271 61.6719C70.9428 62.4802 70.8238 63.2042 70.7147 63.7249C70.6403 64.0919 70.5708 64.3596 70.5312 64.4935C70.9874 65.1878 71.4635 65.9465 71.9296 66.7598C72.3958 67.5731 72.7727 68.3021 73.1297 69.0162C73.1595 68.8377 73.2239 68.5451 73.3033 68.1632C73.4471 67.5136 73.6355 66.616 73.8289 65.6192L74.0918 64.1315L74.2554 64.2258C74.186 64.6572 74.1066 65.1333 74.0124 65.6292C73.824 66.621 73.6107 67.5235 73.4372 68.1682C73.3181 68.5947 73.2239 68.9071 73.1644 69.0707C73.6157 69.9931 73.9926 70.8361 74.2752 71.5502C74.3893 71.823 74.4835 72.0461 74.5728 72.2891L74.4786 72.3536C74.3794 72.1304 74.2752 71.8577 74.1562 71.6048C73.8488 70.9006 73.452 70.0476 72.9859 69.1253H72.7528C72.5247 69.1253 72.1974 69.1253 71.7908 69.0757C71.0519 69.0311 69.9361 68.9269 68.731 68.7682Z" fill="#647039"/>
<path d="M97.8107 67.4392C97.6818 68.5897 89.7722 69.5121 80.0227 69.5121C70.6452 69.5121 62.9736 68.6591 62.2793 67.5681C62.1157 72.8445 63.8364 78.4284 66.6433 82.8519C66.8396 83.2018 67.1004 83.5114 67.4119 83.7643C67.7691 83.9882 68.1667 84.1398 68.5822 84.2106C72.3473 85.0349 76.2004 85.3864 80.0525 85.257C83.9111 85.3876 87.771 85.0361 91.5425 84.2106C91.9563 84.139 92.3521 83.9874 92.7079 83.7643C93.0194 83.5114 93.2802 83.2018 93.4765 82.8519C96.2784 78.4036 98.0141 72.7503 97.8107 67.4392Z" fill="#F7BF54"/>
<path d="M62.5521 71.9569C62.5521 72.1404 62.6066 72.3239 62.6364 72.5024C74.2247 73.7912 85.9246 73.708 97.4934 72.2544C97.5231 72.0709 97.5479 71.8875 97.5777 71.704C85.9539 73.179 74.1959 73.2639 62.5521 71.9569Z" fill="#E2A744"/>
<path d="M63.2017 75.0117C63.3009 75.3786 63.41 75.7506 63.524 76.1175C74.5374 77.2683 85.6447 77.1884 96.6404 75.8795C96.7545 75.5125 96.8586 75.1406 96.9578 74.7687C85.752 76.1388 74.4261 76.2203 63.2017 75.0117Z" fill="#E2A744"/>
<path d="M64.7638 79.3954C64.8481 79.5839 64.9374 79.7723 65.0266 79.9558C75.0432 80.909 85.1308 80.8375 95.1329 79.7426C95.2221 79.5591 95.3114 79.3706 95.3957 79.1772C85.2204 80.3135 74.9543 80.3866 64.7638 79.3954Z" fill="#E2A744"/>
<g style="mix-blend-mode:multiply" opacity="0.22">
<g style="mix-blend-mode:multiply" opacity="0.22">
<path d="M92.6831 83.7643C92.9946 83.5114 93.2554 83.2018 93.4517 82.8519C93.8485 82.227 94.2154 81.5824 94.5675 80.9179C88.9242 81.0865 83.127 82.2816 78.0788 79.926C77.0143 79.4268 76.015 78.799 75.1033 78.0565C72.2891 75.7483 70.2787 72.6077 69.3608 69.0856C65.3936 68.7335 62.6711 68.1831 62.2743 67.5582C62.1107 72.8346 63.8315 78.4185 66.6383 82.8419C66.8346 83.1919 67.0954 83.5015 67.4069 83.7544C67.7641 83.9783 68.1617 84.1299 68.5773 84.2007C72.3423 85.025 76.1954 85.3765 80.0475 85.2471C83.9074 85.3814 87.7689 85.0332 91.5425 84.2106C91.9477 84.1359 92.3348 83.9844 92.6831 83.7643Z" fill="#E2A744"/>
</g>
</g>
<path d="M130.173 94.9419C130.258 86.2686 128.72 77.4663 124.361 69.8691C122.74 67.0424 119.11 64.4687 115.981 66.8044C113.645 68.55 112.941 72.056 112.509 74.7389C111.991 78.251 111.833 81.8069 112.038 85.3512C112.172 88.2373 112.683 90.2061 111.359 93.0575C110.531 94.8279 109.965 94.9816 108.016 94.7039C105.616 94.3568 103.553 92.9038 101.52 91.7285C100.677 91.2326 93.5857 85.6884 93.2733 85.9066C90.0231 88.0686 87.1387 90.7354 84.7289 93.8063C88.578 100.193 93.9046 105.562 100.261 109.462C105.368 112.656 111.304 115.735 117.449 115.983C120.236 116.092 124.332 115.72 126.31 113.459C130.56 108.654 130.119 100.888 130.173 94.9419Z" fill="#FF927D"/>
<g style="mix-blend-mode:multiply" opacity="0.21">
<g style="mix-blend-mode:multiply" opacity="0.21">
<path d="M111.498 92.7501C115.252 94.8329 120.027 95.2296 124.173 95.2296C126.176 95.2296 128.177 95.147 130.173 94.9817V94.9172C130.253 86.8042 128.914 78.5871 125.175 71.337L112.033 85.2521C112.036 85.2834 112.036 85.3149 112.033 85.3463C112.167 88.1432 112.638 90.0772 111.498 92.7501Z" fill="#FF927D"/>
</g>
</g>
<path d="M122.184 90.8607C123.907 90.6362 125.603 90.2425 127.248 89.6854C127.669 89.5317 131.473 87.7464 131.458 87.6621C131.173 86.1056 130.809 84.5647 130.367 83.0453C129.537 79.8913 128.606 76.7771 127.575 73.7025C126.33 69.9981 125.095 66.7598 121.693 65.2324C118.525 63.8042 115.425 64.6721 113.263 67.712C111.711 69.889 111.126 73.0528 110.828 75.7753C110.332 80.3624 109.797 85.4256 109.965 90.0474C113.695 91.2359 117.649 91.5515 121.52 90.9698L122.184 90.8607Z" fill="#9B4471"/>
<path d="M88.7854 99.0183C86.8265 97.838 85.6612 95.656 84.6694 93.6724C83.499 91.3318 82.775 88.5299 83.4544 85.9363C84.2032 83.0899 86.5935 80.6252 86.3356 77.6895C86.2017 76.2018 85.3735 74.6843 85.8397 73.2561C86.4199 73.0181 86.9555 73.6875 87.1935 74.2479C88.349 77.0609 88.4927 80.1877 87.6002 83.0948C87.8828 82.1873 88.7159 81.3195 89.0879 80.3773C89.8519 78.2758 90.0032 76.0006 89.5243 73.8165C89.3904 73.2264 88.7209 71.9816 89.4647 71.5452C90.4566 70.9601 91.4136 73.4346 91.607 74.1239C92.3898 76.9413 92.3467 79.9243 91.4831 82.7179C93.4667 81.1112 93.794 78.2548 93.9626 75.7059C94.0271 74.7686 93.9378 73.8214 94.0122 72.8792C94.0717 72.1155 94.1907 70.3551 95.0833 71.1832C96.3826 72.3833 96.1049 74.2281 95.9908 75.7951C95.8405 77.8532 95.5856 79.9022 95.2271 81.9344C96.7148 80.8781 96.4719 78.3837 97.9298 77.2878C97.9712 77.2362 98.0259 77.1968 98.088 77.1741C98.1502 77.1514 98.2174 77.1461 98.2823 77.1589C98.3472 77.1717 98.4074 77.202 98.4563 77.2466C98.5052 77.2912 98.5409 77.3483 98.5596 77.4118C99.2092 78.6069 98.6588 79.7078 98.148 80.7839C97.4488 82.2716 96.8735 83.794 96.2437 85.2867C95.9331 85.8466 95.8113 86.4919 95.8966 87.1265C96.1198 88.0241 97.0769 88.4902 97.8802 88.9564C98.6731 89.4227 99.3974 89.9968 100.032 90.6623" fill="#FF927D"/>
</g>
<g filter="url(#filter0_b_152:18373)">
<rect x="13" y="77" width="141" height="77" rx="10" fill="black" fill-opacity="0.8"/>
</g>
<path d="M26.7871 112H24.5191L21.7611 102.984H23.6931L23.9171 104.174L25.6251 110.236H25.7511L27.7111 104.272L27.9491 102.984H29.8251L26.7871 112ZM32.4609 105.364C33.1796 105.364 33.7396 105.527 34.1409 105.854C34.5516 106.171 34.7569 106.619 34.7569 107.198C34.7569 107.366 34.7289 107.898 34.6729 108.794C34.6636 109.055 34.6496 109.326 34.6309 109.606C34.6123 109.877 34.6029 110.11 34.6029 110.306C34.6029 110.465 34.6263 110.577 34.6729 110.642C34.7196 110.698 34.8036 110.726 34.9249 110.726C35.0183 110.726 35.1396 110.707 35.2889 110.67L35.4289 110.782L35.2609 111.762C34.9623 111.958 34.6216 112.075 34.2389 112.112C33.9589 112.084 33.7256 111.986 33.5389 111.818C33.3523 111.641 33.2263 111.398 33.1609 111.09H33.0629C32.5963 111.585 32.1156 111.93 31.6209 112.126C30.9489 112.117 30.4216 111.939 30.0389 111.594C29.6563 111.249 29.4649 110.777 29.4649 110.18C29.4649 109.713 29.5816 109.349 29.8149 109.088C30.0576 108.817 30.4216 108.635 30.9069 108.542L33.0489 108.136V107.562C33.0489 106.955 32.7503 106.652 32.1529 106.652C31.8636 106.652 31.5556 106.717 31.2289 106.848C30.9116 106.979 30.5523 107.184 30.1509 107.464L30.0109 107.38L29.8009 106.148C30.2023 105.896 30.6316 105.705 31.0889 105.574C31.5463 105.434 32.0036 105.364 32.4609 105.364ZM31.5509 109.396C31.4016 109.433 31.2896 109.499 31.2149 109.592C31.1496 109.676 31.1169 109.807 31.1169 109.984C31.1169 110.227 31.1823 110.418 31.3129 110.558C31.4436 110.689 31.6256 110.754 31.8589 110.754C32.2229 110.754 32.6056 110.539 33.0069 110.11L33.0349 109.074L31.5509 109.396ZM40.1551 105.476C40.2391 105.476 40.3558 105.485 40.5051 105.504V107.226L40.3091 107.296C40.1505 107.231 39.9778 107.198 39.7911 107.198C39.2498 107.198 38.7598 107.548 38.3211 108.248V109.13L38.4191 112H36.5571L36.6691 109.312L36.5851 105.616L38.3491 105.462L38.3351 106.736H38.4471C38.9045 105.896 39.4738 105.476 40.1551 105.476ZM41.5503 109.312L41.4803 105.616L43.3143 105.462L43.2303 109.13L43.3143 112H41.4523L41.5503 109.312ZM42.4323 102.298C42.7216 102.298 42.9456 102.382 43.1043 102.55C43.2723 102.718 43.3563 102.951 43.3563 103.25C43.3563 103.567 43.2676 103.819 43.0903 104.006C42.913 104.193 42.6703 104.286 42.3623 104.286C42.0543 104.286 41.8163 104.202 41.6483 104.034C41.4896 103.866 41.4103 103.628 41.4103 103.32C41.4103 103.012 41.499 102.765 41.6763 102.578C41.863 102.391 42.115 102.298 42.4323 102.298ZM50.1147 108.976L46.3347 109.004C46.4187 110.171 47.0114 110.754 48.1127 110.754C48.6914 110.754 49.3354 110.591 50.0447 110.264L50.1987 110.362L49.9187 111.748C49.2094 112.009 48.542 112.14 47.9167 112.14C46.89 112.14 46.0827 111.841 45.4947 111.244C44.916 110.647 44.6267 109.821 44.6267 108.766C44.6267 107.721 44.9114 106.895 45.4807 106.288C46.05 105.672 46.82 105.364 47.7907 105.364C48.6214 105.364 49.2607 105.593 49.7087 106.05C50.166 106.498 50.3947 107.128 50.3947 107.94C50.3947 108.155 50.3714 108.425 50.3247 108.752L50.1147 108.976ZM48.7707 107.73C48.7707 107.357 48.6867 107.077 48.5187 106.89C48.3507 106.694 48.1034 106.596 47.7767 106.596C47.4127 106.596 47.1094 106.717 46.8667 106.96C46.624 107.193 46.4607 107.534 46.3767 107.982L48.7427 107.926L48.7707 107.73ZM57.1102 109.13L57.1522 110.306C57.1522 110.465 57.1709 110.577 57.2082 110.642C57.2549 110.698 57.3342 110.726 57.4462 110.726C57.5489 110.726 57.6749 110.707 57.8242 110.67L57.9502 110.782L57.7962 111.762C57.4789 111.958 57.1336 112.075 56.7602 112.112C56.4709 112.084 56.2282 111.986 56.0322 111.818C55.8362 111.65 55.7009 111.421 55.6262 111.132H55.5142C55.0569 111.552 54.5902 111.874 54.1142 112.098C53.1996 112.098 52.4902 111.809 51.9862 111.23C51.4822 110.642 51.2302 109.83 51.2302 108.794C51.2302 107.693 51.5196 106.848 52.0982 106.26C52.6769 105.672 53.4796 105.378 54.5062 105.378C54.7769 105.378 55.0756 105.406 55.4022 105.462L55.3742 102.312L57.2222 102.172L57.1102 109.13ZM54.3802 106.638C53.4469 106.638 52.9802 107.231 52.9802 108.416C52.9802 109.153 53.0922 109.709 53.3162 110.082C53.5402 110.455 53.8669 110.642 54.2962 110.642C54.7069 110.642 55.0849 110.451 55.4302 110.068L55.4582 109.298L55.4162 106.89C55.0522 106.722 54.7069 106.638 54.3802 106.638ZM61.6094 105.364C62.328 105.364 62.888 105.527 63.2894 105.854C63.7 106.171 63.9054 106.619 63.9054 107.198C63.9054 107.366 63.8774 107.898 63.8214 108.794C63.812 109.055 63.798 109.326 63.7794 109.606C63.7607 109.877 63.7514 110.11 63.7514 110.306C63.7514 110.465 63.7747 110.577 63.8214 110.642C63.868 110.698 63.952 110.726 64.0734 110.726C64.1667 110.726 64.288 110.707 64.4374 110.67L64.5774 110.782L64.4094 111.762C64.1107 111.958 63.77 112.075 63.3874 112.112C63.1074 112.084 62.874 111.986 62.6874 111.818C62.5007 111.641 62.3747 111.398 62.3094 111.09H62.2114C61.7447 111.585 61.264 111.93 60.7694 112.126C60.0974 112.117 59.57 111.939 59.1874 111.594C58.8047 111.249 58.6134 110.777 58.6134 110.18C58.6134 109.713 58.73 109.349 58.9634 109.088C59.206 108.817 59.57 108.635 60.0554 108.542L62.1974 108.136V107.562C62.1974 106.955 61.8987 106.652 61.3014 106.652C61.012 106.652 60.704 106.717 60.3774 106.848C60.06 106.979 59.7007 107.184 59.2994 107.464L59.1594 107.38L58.9494 106.148C59.3507 105.896 59.78 105.705 60.2374 105.574C60.6947 105.434 61.152 105.364 61.6094 105.364ZM60.6994 109.396C60.55 109.433 60.438 109.499 60.3634 109.592C60.298 109.676 60.2654 109.807 60.2654 109.984C60.2654 110.227 60.3307 110.418 60.4614 110.558C60.592 110.689 60.774 110.754 61.0074 110.754C61.3714 110.754 61.754 110.539 62.1554 110.11L62.1834 109.074L60.6994 109.396ZM71.2196 109.13L71.2616 110.306C71.2616 110.465 71.2803 110.577 71.3176 110.642C71.3643 110.698 71.4436 110.726 71.5556 110.726C71.6583 110.726 71.7843 110.707 71.9336 110.67L72.0596 110.782L71.9056 111.762C71.5883 111.958 71.2429 112.075 70.8696 112.112C70.5803 112.084 70.3376 111.986 70.1416 111.818C69.9456 111.65 69.8103 111.421 69.7356 111.132H69.6236C69.1663 111.552 68.6996 111.874 68.2236 112.098C67.3089 112.098 66.5996 111.809 66.0956 111.23C65.5916 110.642 65.3396 109.83 65.3396 108.794C65.3396 107.693 65.6289 106.848 66.2076 106.26C66.7863 105.672 67.5889 105.378 68.6156 105.378C68.8863 105.378 69.1849 105.406 69.5116 105.462L69.4836 102.312L71.3316 102.172L71.2196 109.13ZM68.4896 106.638C67.5563 106.638 67.0896 107.231 67.0896 108.416C67.0896 109.153 67.2016 109.709 67.4256 110.082C67.6496 110.455 67.9763 110.642 68.4056 110.642C68.8163 110.642 69.1943 110.451 69.5396 110.068L69.5676 109.298L69.5256 106.89C69.1616 106.722 68.8163 106.638 68.4896 106.638ZM78.1967 108.976L74.4167 109.004C74.5007 110.171 75.0934 110.754 76.1947 110.754C76.7734 110.754 77.4174 110.591 78.1267 110.264L78.2807 110.362L78.0007 111.748C77.2914 112.009 76.6241 112.14 75.9987 112.14C74.9721 112.14 74.1647 111.841 73.5767 111.244C72.9981 110.647 72.7087 109.821 72.7087 108.766C72.7087 107.721 72.9934 106.895 73.5627 106.288C74.1321 105.672 74.9021 105.364 75.8727 105.364C76.7034 105.364 77.3427 105.593 77.7907 106.05C78.2481 106.498 78.4767 107.128 78.4767 107.94C78.4767 108.155 78.4534 108.425 78.4067 108.752L78.1967 108.976ZM76.8527 107.73C76.8527 107.357 76.7687 107.077 76.6007 106.89C76.4327 106.694 76.1854 106.596 75.8587 106.596C75.4947 106.596 75.1914 106.717 74.9487 106.96C74.7061 107.193 74.5427 107.534 74.4587 107.982L76.8247 107.926L76.8527 107.73ZM84.4414 105.364C85.1601 105.364 85.7201 105.527 86.1214 105.854C86.5321 106.171 86.7374 106.619 86.7374 107.198C86.7374 107.366 86.7094 107.898 86.6534 108.794C86.6441 109.055 86.6301 109.326 86.6114 109.606C86.5927 109.877 86.5834 110.11 86.5834 110.306C86.5834 110.465 86.6067 110.577 86.6534 110.642C86.7001 110.698 86.7841 110.726 86.9054 110.726C86.9987 110.726 87.1201 110.707 87.2694 110.67L87.4094 110.782L87.2414 111.762C86.9427 111.958 86.6021 112.075 86.2194 112.112C85.9394 112.084 85.7061 111.986 85.5194 111.818C85.3327 111.641 85.2067 111.398 85.1414 111.09H85.0434C84.5767 111.585 84.0961 111.93 83.6014 112.126C82.9294 112.117 82.4021 111.939 82.0194 111.594C81.6367 111.249 81.4454 110.777 81.4454 110.18C81.4454 109.713 81.5621 109.349 81.7954 109.088C82.0381 108.817 82.4021 108.635 82.8874 108.542L85.0294 108.136V107.562C85.0294 106.955 84.7307 106.652 84.1334 106.652C83.8441 106.652 83.5361 106.717 83.2094 106.848C82.8921 106.979 82.5327 107.184 82.1314 107.464L81.9914 107.38L81.7814 106.148C82.1827 105.896 82.6121 105.705 83.0694 105.574C83.5267 105.434 83.9841 105.364 84.4414 105.364ZM83.5314 109.396C83.3821 109.433 83.2701 109.499 83.1954 109.592C83.1301 109.676 83.0974 109.807 83.0974 109.984C83.0974 110.227 83.1627 110.418 83.2934 110.558C83.4241 110.689 83.6061 110.754 83.8394 110.754C84.2034 110.754 84.5861 110.539 84.9874 110.11L85.0154 109.074L83.5314 109.396ZM90.4396 109.13L90.5376 112H88.6756L88.7736 109.298L88.6896 102.312L90.5516 102.172L90.4396 109.13ZM92.4234 109.312L92.3534 105.616L94.1874 105.462L94.1034 109.13L94.1874 112H92.3254L92.4234 109.312ZM93.3054 102.298C93.5947 102.298 93.8187 102.382 93.9774 102.55C94.1454 102.718 94.2294 102.951 94.2294 103.25C94.2294 103.567 94.1407 103.819 93.9634 104.006C93.786 104.193 93.5434 104.286 93.2354 104.286C92.9274 104.286 92.6894 104.202 92.5214 104.034C92.3627 103.866 92.2834 103.628 92.2834 103.32C92.2834 103.012 92.372 102.765 92.5494 102.578C92.736 102.391 92.988 102.298 93.3054 102.298ZM103.746 112L103.858 107.94C103.858 107.249 103.564 106.904 102.976 106.904C102.556 106.904 102.117 107.091 101.66 107.464L101.618 109.144L101.702 112H99.8398L99.9518 107.94C99.9611 107.604 99.8864 107.347 99.7278 107.17C99.5784 106.993 99.3591 106.904 99.0698 106.904C98.6591 106.904 98.2064 107.1 97.7118 107.492V109.13L97.7958 112H95.9478L96.0458 109.312L95.9758 105.616L97.7258 105.462V106.414H97.8238C98.3371 105.947 98.9018 105.611 99.5178 105.406C100.563 105.406 101.23 105.756 101.52 106.456H101.604C102.136 105.961 102.742 105.611 103.424 105.406C104.133 105.406 104.67 105.569 105.034 105.896C105.407 106.213 105.584 106.675 105.566 107.282L105.524 109.144L105.608 112H103.746ZM112.281 108.976L108.501 109.004C108.585 110.171 109.177 110.754 110.279 110.754C110.857 110.754 111.501 110.591 112.211 110.264L112.365 110.362L112.085 111.748C111.375 112.009 110.708 112.14 110.083 112.14C109.056 112.14 108.249 111.841 107.661 111.244C107.082 110.647 106.793 109.821 106.793 108.766C106.793 107.721 107.077 106.895 107.647 106.288C108.216 105.672 108.986 105.364 109.957 105.364C110.787 105.364 111.427 105.593 111.875 106.05C112.332 106.498 112.561 107.128 112.561 107.94C112.561 108.155 112.537 108.425 112.491 108.752L112.281 108.976ZM110.937 107.73C110.937 107.357 110.853 107.077 110.685 106.89C110.517 106.694 110.269 106.596 109.943 106.596C109.579 106.596 109.275 106.717 109.033 106.96C108.79 107.193 108.627 107.534 108.543 107.982L110.909 107.926L110.937 107.73ZM117.848 107.94C117.858 107.613 117.783 107.361 117.624 107.184C117.475 106.997 117.256 106.904 116.966 106.904C116.546 106.904 116.098 107.105 115.622 107.506V109.13L115.706 112H113.844L113.942 109.312L113.872 105.616L115.636 105.462V106.414H115.734C116.248 105.947 116.808 105.611 117.414 105.406C118.124 105.406 118.665 105.569 119.038 105.896C119.412 106.213 119.589 106.675 119.57 107.282L119.528 109.144L119.612 112H117.736L117.848 107.94ZM123.886 110.628C124.185 110.628 124.498 110.549 124.824 110.39L124.978 110.53L124.796 111.636C124.32 111.879 123.835 112.028 123.34 112.084C122.08 111.953 121.45 111.337 121.45 110.236L121.52 109.074L121.506 106.666H120.638L120.568 106.568L120.666 105.546H121.492V104.468L123.186 103.922L123.312 104.034L123.27 105.546H124.936L124.992 105.644L124.908 106.666H123.242L123.158 109.802C123.158 110.101 123.214 110.315 123.326 110.446C123.438 110.567 123.625 110.628 123.886 110.628ZM128.547 105.364C129.266 105.364 129.826 105.527 130.227 105.854C130.638 106.171 130.843 106.619 130.843 107.198C130.843 107.366 130.815 107.898 130.759 108.794C130.75 109.055 130.736 109.326 130.717 109.606C130.698 109.877 130.689 110.11 130.689 110.306C130.689 110.465 130.712 110.577 130.759 110.642C130.806 110.698 130.89 110.726 131.011 110.726C131.104 110.726 131.226 110.707 131.375 110.67L131.515 110.782L131.347 111.762C131.048 111.958 130.708 112.075 130.325 112.112C130.045 112.084 129.812 111.986 129.625 111.818C129.438 111.641 129.312 111.398 129.247 111.09H129.149C128.682 111.585 128.202 111.93 127.707 112.126C127.035 112.117 126.508 111.939 126.125 111.594C125.742 111.249 125.551 110.777 125.551 110.18C125.551 109.713 125.668 109.349 125.901 109.088C126.144 108.817 126.508 108.635 126.993 108.542L129.135 108.136V107.562C129.135 106.955 128.836 106.652 128.239 106.652C127.95 106.652 127.642 106.717 127.315 106.848C126.998 106.979 126.638 107.184 126.237 107.464L126.097 107.38L125.887 106.148C126.288 105.896 126.718 105.705 127.175 105.574C127.632 105.434 128.09 105.364 128.547 105.364ZM127.637 109.396C127.488 109.433 127.376 109.499 127.301 109.592C127.236 109.676 127.203 109.807 127.203 109.984C127.203 110.227 127.268 110.418 127.399 110.558C127.53 110.689 127.712 110.754 127.945 110.754C128.309 110.754 128.692 110.539 129.093 110.11L129.121 109.074L127.637 109.396ZM136.241 105.476C136.325 105.476 136.442 105.485 136.591 105.504V107.226L136.395 107.296C136.236 107.231 136.064 107.198 135.877 107.198C135.336 107.198 134.846 107.548 134.407 108.248V109.13L134.505 112H132.643L132.755 109.312L132.671 105.616L134.435 105.462L134.421 106.736H134.533C134.99 105.896 135.56 105.476 136.241 105.476ZM144.669 108.976L140.889 109.004C140.973 110.171 141.566 110.754 142.667 110.754C143.246 110.754 143.89 110.591 144.599 110.264L144.753 110.362L144.473 111.748C143.764 112.009 143.097 112.14 142.471 112.14C141.445 112.14 140.637 111.841 140.049 111.244C139.471 110.647 139.181 109.821 139.181 108.766C139.181 107.721 139.466 106.895 140.035 106.288C140.605 105.672 141.375 105.364 142.345 105.364C143.176 105.364 143.815 105.593 144.263 106.05C144.721 106.498 144.949 107.128 144.949 107.94C144.949 108.155 144.926 108.425 144.879 108.752L144.669 108.976ZM143.325 107.73C143.325 107.357 143.241 107.077 143.073 106.89C142.905 106.694 142.658 106.596 142.331 106.596C141.967 106.596 141.664 106.717 141.421 106.96C141.179 107.193 141.015 107.534 140.931 107.982L143.297 107.926L143.325 107.73ZM143.563 101.892L144.235 102.9L144.207 103.082C144.002 103.213 143.848 103.306 143.745 103.362C142.579 104.081 141.823 104.538 141.477 104.734L141.295 104.72L140.847 104.02C141.93 103.152 142.775 102.438 143.381 101.878L143.563 101.892ZM27.2824 125.13L27.3804 128H25.5184L25.6164 125.298L25.5324 118.312L27.3944 118.172L27.2824 125.13ZM29.2661 125.312L29.1961 121.616L31.0301 121.462L30.9461 125.13L31.0301 128H29.1681L29.2661 125.312ZM30.1481 118.298C30.4375 118.298 30.6615 118.382 30.8201 118.55C30.9881 118.718 31.0721 118.951 31.0721 119.25C31.0721 119.567 30.9835 119.819 30.8061 120.006C30.6288 120.193 30.3861 120.286 30.0781 120.286C29.7701 120.286 29.5321 120.202 29.3641 120.034C29.2055 119.866 29.1261 119.628 29.1261 119.32C29.1261 119.012 29.2148 118.765 29.3921 118.578C29.5788 118.391 29.8308 118.298 30.1481 118.298ZM36.3045 121.406C37.1259 121.406 37.7512 121.686 38.1805 122.246C38.6192 122.797 38.8385 123.567 38.8385 124.556C38.8385 125.704 38.5539 126.591 37.9845 127.216C37.4152 127.832 36.6265 128.14 35.6185 128.14C35.1425 128.14 34.6199 128.033 34.0505 127.818L33.0705 128.168L32.8465 127.986L32.9445 125.326L32.8605 118.312L34.7085 118.172L34.6525 122.414H34.7365C34.9979 122.162 35.2499 121.961 35.4925 121.812C35.7352 121.653 36.0059 121.518 36.3045 121.406ZM35.6185 126.922C36.0852 126.922 36.4492 126.754 36.7105 126.418C36.9719 126.082 37.1025 125.569 37.1025 124.878C37.1025 124.234 36.9952 123.744 36.7805 123.408C36.5752 123.072 36.2625 122.904 35.8425 122.904C35.4599 122.904 35.0585 123.1 34.6385 123.492L34.6105 125.088L34.6385 126.67C34.9839 126.838 35.3105 126.922 35.6185 126.922ZM45.1586 124.976L41.3786 125.004C41.4626 126.171 42.0553 126.754 43.1566 126.754C43.7353 126.754 44.3793 126.591 45.0886 126.264L45.2426 126.362L44.9626 127.748C44.2533 128.009 43.586 128.14 42.9606 128.14C41.934 128.14 41.1266 127.841 40.5386 127.244C39.96 126.647 39.6706 125.821 39.6706 124.766C39.6706 123.721 39.9553 122.895 40.5246 122.288C41.094 121.672 41.864 121.364 42.8346 121.364C43.6653 121.364 44.3046 121.593 44.7526 122.05C45.21 122.498 45.4386 123.128 45.4386 123.94C45.4386 124.155 45.4153 124.425 45.3686 124.752L45.1586 124.976ZM43.8146 123.73C43.8146 123.357 43.7306 123.077 43.5626 122.89C43.3946 122.694 43.1473 122.596 42.8206 122.596C42.4566 122.596 42.1533 122.717 41.9106 122.96C41.668 123.193 41.5046 123.534 41.4206 123.982L43.7866 123.926L43.8146 123.73ZM50.3202 121.476C50.4042 121.476 50.5208 121.485 50.6702 121.504V123.226L50.4742 123.296C50.3155 123.231 50.1428 123.198 49.9562 123.198C49.4148 123.198 48.9248 123.548 48.4862 124.248V125.13L48.5842 128H46.7222L46.8342 125.312L46.7502 121.616L48.5142 121.462L48.5002 122.736H48.6122C49.0695 121.896 49.6388 121.476 50.3202 121.476ZM57.0214 125.13L57.0634 126.306C57.0634 126.465 57.082 126.577 57.1194 126.642C57.166 126.698 57.2454 126.726 57.3574 126.726C57.46 126.726 57.586 126.707 57.7354 126.67L57.8614 126.782L57.7074 127.762C57.39 127.958 57.0447 128.075 56.6714 128.112C56.382 128.084 56.1394 127.986 55.9434 127.818C55.7474 127.65 55.612 127.421 55.5374 127.132H55.4254C54.968 127.552 54.5014 127.874 54.0254 128.098C53.1107 128.098 52.4014 127.809 51.8974 127.23C51.3934 126.642 51.1414 125.83 51.1414 124.794C51.1414 123.693 51.4307 122.848 52.0094 122.26C52.588 121.672 53.3907 121.378 54.4174 121.378C54.688 121.378 54.9867 121.406 55.3134 121.462L55.2854 118.312L57.1334 118.172L57.0214 125.13ZM54.2914 122.638C53.358 122.638 52.8914 123.231 52.8914 124.416C52.8914 125.153 53.0034 125.709 53.2274 126.082C53.4514 126.455 53.778 126.642 54.2074 126.642C54.618 126.642 54.996 126.451 55.3414 126.068L55.3694 125.298L55.3274 122.89C54.9634 122.722 54.618 122.638 54.2914 122.638ZM61.5205 121.364C62.2392 121.364 62.7992 121.527 63.2005 121.854C63.6112 122.171 63.8165 122.619 63.8165 123.198C63.8165 123.366 63.7885 123.898 63.7325 124.794C63.7232 125.055 63.7092 125.326 63.6905 125.606C63.6718 125.877 63.6625 126.11 63.6625 126.306C63.6625 126.465 63.6858 126.577 63.7325 126.642C63.7792 126.698 63.8632 126.726 63.9845 126.726C64.0778 126.726 64.1992 126.707 64.3485 126.67L64.4885 126.782L64.3205 127.762C64.0218 127.958 63.6812 128.075 63.2985 128.112C63.0185 128.084 62.7852 127.986 62.5985 127.818C62.4118 127.641 62.2858 127.398 62.2205 127.09H62.1225C61.6558 127.585 61.1752 127.93 60.6805 128.126C60.0085 128.117 59.4812 127.939 59.0985 127.594C58.7158 127.249 58.5245 126.777 58.5245 126.18C58.5245 125.713 58.6412 125.349 58.8745 125.088C59.1172 124.817 59.4812 124.635 59.9665 124.542L62.1085 124.136V123.562C62.1085 122.955 61.8098 122.652 61.2125 122.652C60.9232 122.652 60.6152 122.717 60.2885 122.848C59.9712 122.979 59.6118 123.184 59.2105 123.464L59.0705 123.38L58.8605 122.148C59.2618 121.896 59.6912 121.705 60.1485 121.574C60.6058 121.434 61.0632 121.364 61.5205 121.364ZM60.6105 125.396C60.4612 125.433 60.3492 125.499 60.2745 125.592C60.2092 125.676 60.1765 125.807 60.1765 125.984C60.1765 126.227 60.2418 126.418 60.3725 126.558C60.5032 126.689 60.6852 126.754 60.9185 126.754C61.2825 126.754 61.6652 126.539 62.0665 126.11L62.0945 125.074L60.6105 125.396ZM71.1307 125.13L71.1727 126.306C71.1727 126.465 71.1914 126.577 71.2287 126.642C71.2754 126.698 71.3547 126.726 71.4667 126.726C71.5694 126.726 71.6954 126.707 71.8447 126.67L71.9707 126.782L71.8167 127.762C71.4994 127.958 71.1541 128.075 70.7807 128.112C70.4914 128.084 70.2487 127.986 70.0527 127.818C69.8567 127.65 69.7214 127.421 69.6467 127.132H69.5347C69.0774 127.552 68.6107 127.874 68.1347 128.098C67.2201 128.098 66.5107 127.809 66.0067 127.23C65.5027 126.642 65.2507 125.83 65.2507 124.794C65.2507 123.693 65.5401 122.848 66.1187 122.26C66.6974 121.672 67.5001 121.378 68.5267 121.378C68.7974 121.378 69.0961 121.406 69.4227 121.462L69.3947 118.312L71.2427 118.172L71.1307 125.13ZM68.4007 122.638C67.4674 122.638 67.0007 123.231 67.0007 124.416C67.0007 125.153 67.1127 125.709 67.3367 126.082C67.5607 126.455 67.8874 126.642 68.3167 126.642C68.7274 126.642 69.1054 126.451 69.4507 126.068L69.4787 125.298L69.4367 122.89C69.0727 122.722 68.7274 122.638 68.4007 122.638ZM78.1079 124.976L74.3279 125.004C74.4119 126.171 75.0045 126.754 76.1059 126.754C76.6845 126.754 77.3285 126.591 78.0379 126.264L78.1919 126.362L77.9119 127.748C77.2025 128.009 76.5352 128.14 75.9099 128.14C74.8832 128.14 74.0759 127.841 73.4879 127.244C72.9092 126.647 72.6199 125.821 72.6199 124.766C72.6199 123.721 72.9045 122.895 73.4739 122.288C74.0432 121.672 74.8132 121.364 75.7839 121.364C76.6145 121.364 77.2539 121.593 77.7019 122.05C78.1592 122.498 78.3879 123.128 78.3879 123.94C78.3879 124.155 78.3645 124.425 78.3179 124.752L78.1079 124.976ZM76.7639 123.73C76.7639 123.357 76.6799 123.077 76.5119 122.89C76.3439 122.694 76.0965 122.596 75.7699 122.596C75.4059 122.596 75.1025 122.717 74.8599 122.96C74.6172 123.193 74.4539 123.534 74.3699 123.982L76.7359 123.926L76.7639 123.73ZM87.2225 125.13L87.2645 126.306C87.2645 126.465 87.2832 126.577 87.3205 126.642C87.3672 126.698 87.4465 126.726 87.5585 126.726C87.6612 126.726 87.7872 126.707 87.9365 126.67L88.0625 126.782L87.9085 127.762C87.5912 127.958 87.2459 128.075 86.8725 128.112C86.5832 128.084 86.3405 127.986 86.1445 127.818C85.9485 127.65 85.8132 127.421 85.7385 127.132H85.6265C85.1692 127.552 84.7025 127.874 84.2265 128.098C83.3119 128.098 82.6025 127.809 82.0985 127.23C81.5945 126.642 81.3425 125.83 81.3425 124.794C81.3425 123.693 81.6319 122.848 82.2105 122.26C82.7892 121.672 83.5919 121.378 84.6185 121.378C84.8892 121.378 85.1879 121.406 85.5145 121.462L85.4865 118.312L87.3345 118.172L87.2225 125.13ZM84.4925 122.638C83.5592 122.638 83.0925 123.231 83.0925 124.416C83.0925 125.153 83.2045 125.709 83.4285 126.082C83.6525 126.455 83.9792 126.642 84.4085 126.642C84.8192 126.642 85.1972 126.451 85.5425 126.068L85.5705 125.298L85.5285 122.89C85.1645 122.722 84.8192 122.638 84.4925 122.638ZM94.1997 124.976L90.4197 125.004C90.5037 126.171 91.0963 126.754 92.1977 126.754C92.7763 126.754 93.4203 126.591 94.1297 126.264L94.2837 126.362L94.0037 127.748C93.2943 128.009 92.627 128.14 92.0017 128.14C90.975 128.14 90.1677 127.841 89.5797 127.244C89.001 126.647 88.7117 125.821 88.7117 124.766C88.7117 123.721 88.9963 122.895 89.5657 122.288C90.135 121.672 90.905 121.364 91.8757 121.364C92.7063 121.364 93.3457 121.593 93.7937 122.05C94.251 122.498 94.4797 123.128 94.4797 123.94C94.4797 124.155 94.4563 124.425 94.4097 124.752L94.1997 124.976ZM92.8557 123.73C92.8557 123.357 92.7717 123.077 92.6037 122.89C92.4357 122.694 92.1883 122.596 91.8617 122.596C91.4977 122.596 91.1943 122.717 90.9517 122.96C90.709 123.193 90.5457 123.534 90.4617 123.982L92.8277 123.926L92.8557 123.73ZM102.922 124.976L99.1423 125.004C99.2263 126.171 99.819 126.754 100.92 126.754C101.499 126.754 102.143 126.591 102.852 126.264L103.006 126.362L102.726 127.748C102.017 128.009 101.35 128.14 100.724 128.14C99.6977 128.14 98.8903 127.841 98.3023 127.244C97.7237 126.647 97.4343 125.821 97.4343 124.766C97.4343 123.721 97.719 122.895 98.2883 122.288C98.8577 121.672 99.6277 121.364 100.598 121.364C101.429 121.364 102.068 121.593 102.516 122.05C102.974 122.498 103.202 123.128 103.202 123.94C103.202 124.155 103.179 124.425 103.132 124.752L102.922 124.976ZM101.578 123.73C101.578 123.357 101.494 123.077 101.326 122.89C101.158 122.694 100.911 122.596 100.584 122.596C100.22 122.596 99.917 122.717 99.6743 122.96C99.4317 123.193 99.2683 123.534 99.1843 123.982L101.55 123.926L101.578 123.73ZM106.67 121.378C107.305 121.378 107.902 121.485 108.462 121.7L108.21 123.072L107.986 123.142C107.715 122.965 107.445 122.829 107.174 122.736C106.903 122.643 106.665 122.596 106.46 122.596C106.236 122.596 106.059 122.657 105.928 122.778C105.797 122.89 105.732 123.03 105.732 123.198C105.732 123.394 105.816 123.553 105.984 123.674C106.161 123.795 106.437 123.931 106.81 124.08C107.183 124.229 107.491 124.374 107.734 124.514C107.977 124.654 108.182 124.85 108.35 125.102C108.527 125.345 108.616 125.648 108.616 126.012C108.616 126.385 108.518 126.735 108.322 127.062C108.135 127.379 107.846 127.641 107.454 127.846C107.062 128.042 106.581 128.14 106.012 128.14C105.34 128.14 104.645 128 103.926 127.72L104.136 126.264L104.318 126.152C104.607 126.395 104.929 126.591 105.284 126.74C105.639 126.88 105.951 126.95 106.222 126.95C106.474 126.95 106.67 126.889 106.81 126.768C106.95 126.637 107.02 126.483 107.02 126.306C107.02 126.11 106.931 125.951 106.754 125.83C106.586 125.709 106.315 125.573 105.942 125.424C105.559 125.256 105.247 125.107 105.004 124.976C104.761 124.836 104.551 124.64 104.374 124.388C104.206 124.136 104.122 123.823 104.122 123.45C104.122 122.843 104.351 122.349 104.808 121.966C105.265 121.574 105.886 121.378 106.67 121.378ZM112.533 121.364C112.841 121.364 113.144 121.397 113.443 121.462C113.751 121.518 114.022 121.602 114.255 121.714L113.947 123.198L113.793 123.268C113.317 123.007 112.892 122.876 112.519 122.876C112.09 122.876 111.758 123.03 111.525 123.338C111.292 123.646 111.175 124.085 111.175 124.654C111.175 125.307 111.301 125.807 111.553 126.152C111.805 126.497 112.164 126.67 112.631 126.67C113.051 126.67 113.518 126.553 114.031 126.32L114.171 126.432L113.989 127.874C113.429 128.051 112.855 128.14 112.267 128.14C111.371 128.14 110.671 127.851 110.167 127.272C109.663 126.684 109.411 125.867 109.411 124.822C109.411 123.739 109.686 122.895 110.237 122.288C110.788 121.672 111.553 121.364 112.533 121.364ZM117.948 121.364C118.9 121.364 119.628 121.644 120.132 122.204C120.636 122.764 120.888 123.571 120.888 124.626C120.888 125.765 120.617 126.637 120.076 127.244C119.534 127.841 118.755 128.14 117.738 128.14C116.786 128.14 116.058 127.86 115.554 127.3C115.05 126.74 114.798 125.933 114.798 124.878C114.798 123.739 115.068 122.871 115.61 122.274C116.151 121.667 116.93 121.364 117.948 121.364ZM117.822 122.624C117.374 122.624 117.047 122.773 116.842 123.072C116.646 123.371 116.548 123.851 116.548 124.514C116.548 125.373 116.65 125.984 116.856 126.348C117.061 126.712 117.397 126.894 117.864 126.894C118.312 126.894 118.634 126.749 118.83 126.46C119.035 126.161 119.138 125.676 119.138 125.004C119.138 124.155 119.03 123.548 118.816 123.184C118.61 122.811 118.279 122.624 117.822 122.624ZM123.984 125.13L124.082 128H122.22L122.318 125.298L122.234 118.312L124.096 118.172L123.984 125.13ZM129.901 123.94C129.911 123.604 129.841 123.347 129.691 123.17C129.542 122.993 129.323 122.904 129.033 122.904C128.613 122.904 128.165 123.105 127.689 123.506L127.661 125.13L127.759 128H125.897L125.995 125.298L125.911 118.312L127.773 118.172L127.703 122.414H127.787C128.301 121.947 128.865 121.611 129.481 121.406C130.191 121.406 130.727 121.569 131.091 121.896C131.465 122.213 131.647 122.675 131.637 123.282L131.595 125.144L131.665 128H129.803L129.901 123.94ZM135.868 121.364C136.587 121.364 137.147 121.527 137.548 121.854C137.959 122.171 138.164 122.619 138.164 123.198C138.164 123.366 138.136 123.898 138.08 124.794C138.071 125.055 138.057 125.326 138.038 125.606C138.019 125.877 138.01 126.11 138.01 126.306C138.01 126.465 138.033 126.577 138.08 126.642C138.127 126.698 138.211 126.726 138.332 126.726C138.425 126.726 138.547 126.707 138.696 126.67L138.836 126.782L138.668 127.762C138.369 127.958 138.029 128.075 137.646 128.112C137.366 128.084 137.133 127.986 136.946 127.818C136.759 127.641 136.633 127.398 136.568 127.09H136.47C136.003 127.585 135.523 127.93 135.028 128.126C134.356 128.117 133.829 127.939 133.446 127.594C133.063 127.249 132.872 126.777 132.872 126.18C132.872 125.713 132.989 125.349 133.222 125.088C133.465 124.817 133.829 124.635 134.314 124.542L136.456 124.136V123.562C136.456 122.955 136.157 122.652 135.56 122.652C135.271 122.652 134.963 122.717 134.636 122.848C134.319 122.979 133.959 123.184 133.558 123.464L133.418 123.38L133.208 122.148C133.609 121.896 134.039 121.705 134.496 121.574C134.953 121.434 135.411 121.364 135.868 121.364ZM134.958 125.396C134.809 125.433 134.697 125.499 134.622 125.592C134.557 125.676 134.524 125.807 134.524 125.984C134.524 126.227 134.589 126.418 134.72 126.558C134.851 126.689 135.033 126.754 135.266 126.754C135.63 126.754 136.013 126.539 136.414 126.11L136.442 125.074L134.958 125.396ZM140.83 126.11C141.12 126.11 141.344 126.194 141.502 126.362C141.67 126.53 141.754 126.763 141.754 127.062C141.754 127.379 141.666 127.631 141.488 127.818C141.311 128.005 141.068 128.098 140.76 128.098C140.452 128.098 140.214 128.014 140.046 127.846C139.888 127.678 139.808 127.44 139.808 127.132C139.808 126.824 139.897 126.577 140.074 126.39C140.261 126.203 140.513 126.11 140.83 126.11Z" fill="white"/>
<defs>
<filter id="filter0_b_152:18373" x="3" y="67" width="161" height="97" filterUnits="userSpaceOnUse" color-interpolation-filters="sRGB">
<feFlood flood-opacity="0" result="BackgroundImageFix"/>
<feGaussianBlur in="BackgroundImage" stdDeviation="5"/>
<feComposite in2="SourceAlpha" operator="in" result="effect1_backgroundBlur_152:18373"/>
<feBlend mode="normal" in="SourceGraphic" in2="effect1_backgroundBlur_152:18373" result="shape"/>
</filter>
</defs>
</svg>
