<svg width="167" height="167" viewBox="0 0 167 167" fill="none" xmlns="http://www.w3.org/2000/svg">
<mask id="mask0_152:18450" style="mask-type:alpha" maskUnits="userSpaceOnUse" x="0" y="0" width="167" height="167">
<rect x="1" y="1" width="165" height="165" rx="8" fill="#5988D6" stroke="#EDE6FC" stroke-opacity="0.3"/>
</mask>
<g mask="url(#mask0_152:18450)">
<rect x="1" y="1" width="165" height="165" rx="8" fill="#A9D97A" stroke="#EDE6FC" stroke-opacity="0.3"/>
<path d="M66.6509 69.5174C70.0836 68.3727 74.6597 63.7966 74.6597 61.5086C74.6597 59.2205 71.227 60.3639 72.3717 56.9325C73.5164 53.5012 74.6597 50.0684 72.3717 47.7804C70.0836 45.4924 67.7956 47.7804 65.5076 45.4924C63.2196 43.2044 65.5076 40.9163 63.2196 38.6283C60.9315 36.3403 57.4988 37.4836 54.0674 38.6283C50.6361 39.773 51.778 36.3403 49.49 36.3403C47.202 36.3403 42.6259 40.9163 41.4812 44.349C40.3365 47.7818 38.0499 45.4924 36.9065 48.9251C35.8449 52.1115 37.1475 55.4897 34.2224 62.1932C32.8259 64.3996 31.507 66.5188 30.2766 68.3767C24.8621 76.5502 26.6111 84.3902 26.6111 84.3902C26.6111 84.3902 34.4511 86.1392 42.6246 80.7247C44.4825 79.4943 46.6017 78.1754 48.8081 76.7789C55.5116 73.8525 58.8899 75.1564 62.0762 74.0948C65.5076 72.9501 63.2196 70.662 66.6509 69.5174Z" fill="#5C913B"/>
<path d="M72.6222 61.8842C72.482 61.4596 72.026 61.2268 71.6014 61.3684C67.2322 62.803 63.7763 62.2898 62.0722 61.8434C65.8983 57.9438 69.3365 53.8918 71.9022 50.1528C72.1553 49.784 72.0601 49.2804 71.6926 49.0272C71.3237 48.7727 70.8201 48.8693 70.5683 49.2368C69.0956 51.3819 67.2975 53.6618 65.2899 55.9661C65.4015 53.5638 65.2014 49.8194 63.4837 46.1144C63.2945 45.7088 62.814 45.5332 62.4098 45.721C62.0042 45.9089 61.8272 46.3894 62.0164 46.795C64.3017 51.7263 63.6416 56.889 63.4619 58.0037C61.5986 60.0304 59.6005 62.0503 57.5329 63.9953C57.7453 61.446 57.6473 57.2959 55.411 54.0089C55.1619 53.64 54.6596 53.542 54.288 53.7938C53.9192 54.0456 53.8225 54.5479 54.0743 54.9181C56.738 58.8367 55.9078 64.4499 55.6777 65.7049C52.3566 68.6993 48.9361 71.4365 45.7008 73.6483C47.7901 70.2809 49.9828 64.978 48.423 58.8871C48.3114 58.4542 47.8704 58.1915 47.4389 58.3045C47.0061 58.4161 46.7448 58.8558 46.8564 59.2886C49.1417 68.2134 42.3239 75.6042 41.7141 76.2426C34.3546 80.8105 30.3175 82.1879 30.2712 82.2029C29.8479 82.3445 29.6193 82.8004 29.7608 83.2251C29.8738 83.564 30.1882 83.7791 30.5271 83.7791C30.6115 83.7791 30.6973 83.7655 30.7816 83.7382C30.9994 83.6647 36.2206 81.8953 45.8301 75.5226C47.688 74.2908 49.5976 72.8875 51.5141 71.3712C52.4601 71.951 54.6283 72.9242 58.5401 72.9242C59.6345 72.9242 60.8622 72.8466 62.2383 72.6656C62.6806 72.6071 62.9923 72.2001 62.9338 71.7577C62.8766 71.3154 62.4588 71.0023 62.026 71.0622C56.9844 71.7319 54.1628 70.8771 52.8834 70.2714C55.5702 68.0678 58.2421 65.6491 60.7764 63.146C61.6163 63.4427 63.3925 63.9436 65.8602 63.9436C67.6283 63.9436 69.7448 63.6863 72.1104 62.9078C72.531 62.7649 72.761 62.3075 72.6222 61.8842Z" fill="#679E44"/>
<path d="M43.3583 69.1118C43.979 68.9893 44.7317 68.864 45.5497 68.7293C50.7369 67.8677 56.1011 66.9762 56.1011 63.6537C56.1011 61.9646 55.1973 60.956 54.6025 60.338C54.9428 60.2346 55.4055 60.138 55.7254 60.0685C57.1818 59.7596 58.9948 59.3744 59.7856 57.7683C60.2742 56.776 60.2116 55.5796 59.5909 54.1817C60.1572 53.7639 61.7415 53.2589 62.7324 52.9445C65.1769 52.1659 67.4867 51.4296 68.121 49.5363C68.3429 48.8775 68.4246 47.8349 67.5643 46.618C67.5534 46.6031 67.5371 46.5704 67.5262 46.55C66.8525 46.4356 66.1801 46.1634 65.5063 45.491C65.0803 45.065 64.8135 44.639 64.6461 44.213C64.9646 45.0909 65.7963 47.0631 66.1746 47.5967C68.9391 51.5058 56.2099 51.0457 57.9753 54.7384C60.0728 59.1239 54.0186 57.741 52.8752 59.4574C51.7305 61.1738 54.401 61.3643 54.401 63.6523C54.401 65.9404 46.5801 66.7434 43.0303 67.4403C35.8586 68.8518 26.6099 84.3902 26.6099 84.3902C26.6099 84.3902 27.3013 84.54 28.4651 84.6148C31.2581 80.0905 38.3426 70.0972 43.3583 69.1118Z" fill="#3E721D"/>
<path d="M43.0302 67.443C46.58 66.7461 54.4009 65.9431 54.4009 63.6551C54.4009 61.367 51.7318 61.1765 52.8751 59.4601C54.0198 57.7437 60.0727 59.1266 57.9752 54.7411C56.2085 51.0484 68.9389 51.5085 66.1745 47.5994C65.7362 46.9801 64.6855 44.4212 64.5344 43.8849C64.0403 42.1332 64.9713 40.3814 63.2182 38.6297C60.9302 36.3416 57.4974 37.485 54.0661 38.6297C50.6347 39.7744 51.778 36.3403 49.49 36.3403C47.202 36.3403 42.6259 40.9163 41.4812 44.349C40.3365 47.7818 38.0499 45.4924 36.9065 48.9251C35.8449 52.1115 37.1475 55.4897 34.2224 62.1932C32.8259 64.3996 31.507 66.5188 30.2766 68.3767C24.8621 76.5502 26.6111 84.3902 26.6111 84.3902C26.6111 84.3902 35.8585 68.8518 43.0302 67.443Z" fill="#77B255"/>
<path d="M64.6556 47.2863C60.9493 45.5686 57.2036 45.3685 54.8012 45.4815C57.1056 43.4725 59.3841 41.6745 61.5305 40.2031C61.8994 39.9499 61.9933 39.4463 61.7401 39.0775C61.487 38.71 60.9834 38.6161 60.6159 38.8679C56.8769 41.4322 52.8249 44.8717 48.9253 48.6978C48.4775 46.9923 47.9643 43.5378 49.4003 39.1687C49.5405 38.744 49.3091 38.2867 48.8844 38.1478C48.4625 38.0076 48.0038 38.239 47.8636 38.6637C46.0043 44.3232 47.115 48.5522 47.6241 49.999C45.121 52.5334 42.7023 55.2039 40.4986 57.8921C39.8929 56.6127 39.0409 53.7911 39.7092 48.7468C39.7677 48.3044 39.456 47.8975 39.0137 47.8389C38.5781 47.7804 38.1657 48.0894 38.1058 48.5331C37.2714 54.8351 38.6598 58.0486 39.4002 59.2573C37.8826 61.1737 36.4806 63.0834 35.2488 64.9413C28.8747 74.5507 27.1053 79.772 27.0332 79.9884C26.8916 80.4131 27.1216 80.869 27.5449 81.0106C27.6293 81.0392 27.7151 81.0514 27.8008 81.0514C28.1397 81.0514 28.4555 80.8377 28.5685 80.4988C28.5835 80.4525 29.9609 76.4168 34.5274 69.0573C35.1576 68.4502 42.5335 61.6188 51.4814 63.915C51.9088 64.0226 52.3553 63.7639 52.4655 63.3311C52.5758 62.8983 52.3158 62.4573 51.8816 62.3457C45.7906 60.7886 40.485 62.9827 37.1163 65.072C39.3281 61.8352 42.0666 58.4121 45.0624 55.0896C46.3188 54.8596 51.932 54.032 55.8493 56.6957C55.9894 56.7896 56.1473 56.8359 56.3025 56.8359C56.5611 56.8359 56.817 56.712 56.9722 56.482C57.224 56.1131 57.1273 55.6095 56.7585 55.3577C53.47 53.1228 49.32 53.0248 46.7706 53.2371C48.7143 51.1709 50.7342 49.1728 52.7609 47.3095C53.8688 47.1271 59.0193 46.4588 63.971 48.7536C64.0813 48.8053 64.1969 48.8298 64.3113 48.8298C64.6162 48.8298 64.9074 48.6556 65.0449 48.3602C65.2382 47.9546 65.0613 47.4728 64.6556 47.2863Z" fill="#A6D388"/>
<path d="M77.889 81.0007C79.822 81.0007 81.389 79.4337 81.389 77.5007C81.389 75.5677 79.822 74.0007 77.889 74.0007C75.956 74.0007 74.389 75.5677 74.389 77.5007C74.389 79.4337 75.956 81.0007 77.889 81.0007Z" fill="#AA8DD8"/>
<path d="M62.4995 65.334C62.4078 65.334 62.3143 65.3132 62.2269 65.2692C59.5503 63.9309 57.6534 60.67 57.0319 58.8049C56.9243 58.4847 57.0979 58.1388 57.4181 58.0318C57.7389 57.9243 58.0848 58.0984 58.1912 58.418C58.7271 60.0265 60.4449 63.0118 62.7739 64.1759C63.0758 64.3269 63.198 64.6941 63.047 64.996C62.9395 65.2105 62.7238 65.334 62.4995 65.334Z" fill="#77B255"/>
<path d="M68.0002 80.0006C70.3627 80.0006 72.2779 78.0854 72.2779 75.7228C72.2779 73.3603 70.3627 71.4451 68.0002 71.4451C65.6376 71.4451 63.7224 73.3603 63.7224 75.7228C63.7224 78.0854 65.6376 80.0006 68.0002 80.0006Z" fill="#553788"/>
<path d="M76.6668 77.5562C79.0294 77.5562 80.9446 75.641 80.9446 73.2784C80.9446 70.9159 79.0294 69.0007 76.6668 69.0007C74.3043 69.0007 72.389 70.9159 72.389 73.2784C72.389 75.641 74.3043 77.5562 76.6668 77.5562Z" fill="#553788"/>
<path d="M62.5002 71.4451C64.8627 71.4451 66.7779 69.5299 66.7779 67.1673C66.7779 64.8048 64.8627 62.8895 62.5002 62.8895C60.1376 62.8895 58.2224 64.8048 58.2224 67.1673C58.2224 69.5299 60.1376 71.4451 62.5002 71.4451Z" fill="#9266CC"/>
<path d="M68.0002 69.6118C70.3627 69.6118 72.2779 67.6965 72.2779 65.334C72.2779 62.9714 70.3627 61.0562 68.0002 61.0562C65.6376 61.0562 63.7224 62.9714 63.7224 65.334C63.7224 67.6965 65.6376 69.6118 68.0002 69.6118Z" fill="#AA8DD8"/>
<path d="M72.889 73.2785C75.2516 73.2785 77.1668 71.3632 77.1668 69.0007C77.1668 66.6381 75.2516 64.7229 72.889 64.7229C70.5265 64.7229 68.6113 66.6381 68.6113 69.0007C68.6113 71.3632 70.5265 73.2785 72.889 73.2785Z" fill="#744EAA"/>
<path d="M61.889 78.1673C64.2516 78.1673 66.1668 76.2521 66.1668 73.8895C66.1668 71.527 64.2516 69.6118 61.889 69.6118C59.5265 69.6118 57.6113 71.527 57.6113 73.8895C57.6113 76.2521 59.5265 78.1673 61.889 78.1673Z" fill="#744EAA"/>
<path d="M73.6668 83.5562C76.0294 83.5562 77.9446 81.641 77.9446 79.2784C77.9446 76.9159 76.0294 75.0007 73.6668 75.0007C71.3043 75.0007 69.389 76.9159 69.389 79.2784C69.389 81.641 71.3043 83.5562 73.6668 83.5562Z" fill="#744EAA"/>
<path d="M67.389 75.1118C69.7516 75.1118 71.6668 73.1965 71.6668 70.834C71.6668 68.4714 69.7516 66.5562 67.389 66.5562C65.0265 66.5562 63.1113 68.4714 63.1113 70.834C63.1113 73.1965 65.0265 75.1118 67.389 75.1118Z" fill="#9266CC"/>
<path d="M74.1113 80.0006C76.4738 80.0006 78.3891 78.0854 78.3891 75.7228C78.3891 73.3603 76.4738 71.4451 74.1113 71.4451C71.7487 71.4451 69.8335 73.3603 69.8335 75.7228C69.8335 78.0854 71.7487 80.0006 74.1113 80.0006Z" fill="#9266CC"/>
<path d="M79.2573 2.31842C77.6316 5.97987 76.7222 10.0099 76.7222 14.25C76.7222 30.8953 90.6016 44.3889 107.722 44.3889C121.063 44.3889 132.402 36.179 136.773 24.6866L79.2573 2.31842Z" fill="#5C913B"/>
<path d="M82.4607 3.5636C80.9916 6.83927 80.1667 10.449 80.1667 14.25C80.1667 29.0456 92.5047 41.0409 107.722 41.0409C119.612 41.0409 129.715 33.7042 133.578 23.4432L82.4607 3.5636Z" fill="#FFE8B6"/>
<path d="M85.6623 4.81049C84.3517 7.70038 83.6111 10.8882 83.6111 14.25C83.6111 27.1977 94.406 37.6912 107.722 37.6912C118.162 37.6912 127.028 31.2277 130.38 22.1998L85.6623 4.81049Z" fill="#DD2E44"/>
<path d="M92.0776 15.5882C91.5489 16.3804 90.8014 16.8075 90.4053 16.544C90.0092 16.2805 90.116 15.4263 90.6447 14.6341C91.1734 13.8418 91.9209 13.4147 92.317 13.6782C92.7131 13.9417 92.6063 14.796 92.0776 15.5882ZM102.411 17.3104C101.882 18.1026 101.135 18.5297 100.739 18.2662C100.343 18.0027 100.449 17.1485 100.978 16.3563C101.507 15.5641 102.254 15.137 102.65 15.4005C103.046 15.664 102.94 16.5182 102.411 17.3104ZM111.163 25.367C111.249 26.3159 110.936 27.1167 110.464 27.1598C109.99 27.2028 109.537 26.4709 109.451 25.522C109.364 24.573 109.679 23.7722 110.151 23.7308C110.624 23.6861 111.077 24.4163 111.163 25.367ZM95.6633 21.9225C95.7494 22.8715 95.4359 23.6723 94.964 23.7153C94.4904 23.7584 94.0375 23.0265 93.9514 22.0775C93.8653 21.1286 94.1787 20.3277 94.6506 20.2864C95.1259 20.2416 95.5771 20.9718 95.6633 21.9225ZM102.382 31.1295C101.808 31.889 101.038 32.2713 100.659 31.9855C100.279 31.6996 100.437 30.8522 101.012 30.0927C101.586 29.3332 102.358 28.9509 102.735 29.2368C103.115 29.5227 102.959 30.3683 102.382 31.1295ZM116.221 31.9114C116.692 32.7398 116.736 33.5975 116.325 33.8317C115.91 34.0676 115.195 33.5854 114.725 32.757C114.255 31.9303 114.21 31.071 114.623 30.8367C115.038 30.5991 115.751 31.0796 116.221 31.9114ZM104.137 23.2521C104.658 24.0495 104.76 24.902 104.362 25.162C103.964 25.4238 103.22 24.9898 102.699 24.1941C102.177 23.3985 102.077 22.5442 102.473 22.2859C102.871 22.0207 103.615 22.453 104.137 23.2521ZM119.604 25.9628C119.03 26.7223 118.261 27.1047 117.88 26.8188C117.499 26.5329 117.658 25.6856 118.233 24.9261C118.806 24.1648 119.576 23.7842 119.955 24.0701C120.338 24.356 120.181 25.2016 119.604 25.9628Z" fill="black"/>
<g clip-path="url(#clip0_152:18450)">
<path d="M48.6353 33.1635C51.186 33.5341 53.4579 33.1906 55.4717 29.1918C56.746 26.6616 60.8523 25.2002 62.1463 22.6262C63.3902 20.1518 62.5301 14.6094 55.5659 11.9744C48.4076 9.26634 44.7797 9.99989 42.5342 14.4624C40.9705 17.5712 43.2209 21.434 43.3717 25.5713C43.4721 28.317 45.011 33.9826 48.6353 33.1635Z" fill="#BE1931"/>
<path d="M60.8564 14.5858C60.3814 13.5215 59.2788 12.5668 58.013 11.8297C58.197 11.893 58.3791 11.9538 58.5602 12.0306C59.1941 12.2997 61.2316 12.4003 59.7886 11.7891C59.1572 11.5213 58.5069 11.3492 57.8643 11.1556C58.0627 11.1336 58.2636 11.1145 58.4715 11.1116C58.6763 10.6651 56.1524 9.39555 54.3427 9.81983C54.0552 9.58665 53.9421 9.07436 52.0492 8.1222C50.7873 7.48743 48.7992 7.21953 49.8389 7.80101C50.4045 8.11793 51.1008 8.43579 50.8954 8.62102C50.4631 8.45099 48.2596 7.79721 47.9422 8.42818C47.8301 8.65091 49.7386 9.19501 49.8351 9.38034C48.5442 9.24014 47.3074 9.69012 46.99 10.3211C46.8558 10.588 48.6469 10.5023 49.2003 10.6423C48.252 10.9559 47.7771 11.2712 47.5833 11.7477C47.4565 12.0595 49.1186 12.4488 49.2976 12.4764C49.902 12.567 52.0378 12.8602 53.0646 12.2177C53.048 12.4346 54.5086 14.0042 55.1926 14.4471C55.508 14.6516 56.7588 15.4515 56.7692 14.678C56.772 14.4509 56.4584 13.5026 56.5754 12.7906C56.8628 12.9201 61.5061 16.0416 60.8564 14.5858Z" fill="#77B255"/>
<path d="M45.8258 17.8837C46.2034 16.9193 45.2553 15.0256 44.6724 16.5129C44.2949 17.4772 45.243 19.3709 45.8258 17.8837ZM50.3561 20.5996C50.51 20.1853 50.5562 19.7587 50.453 19.3273C50.3335 18.8323 49.8896 18.7576 49.5741 19.135C49.2025 19.5798 49.0697 20.2665 49.2036 20.824L49.2142 20.8673C49.2465 20.4684 49.2781 20.0692 49.3087 19.6704L49.2976 19.7019C49.1393 20.1283 48.999 20.9195 49.4094 21.2651C49.8274 21.6193 50.2442 20.9039 50.3561 20.5996ZM55.5219 19.3707C56.1254 18.9192 56.8867 16.9248 55.6177 17.8741C55.0146 18.3249 54.2524 20.3197 55.5219 19.3707ZM60.5343 20.7401C60.6286 20.5053 60.7358 20.2248 60.6081 19.9787C60.1302 19.06 58.3571 20.7115 58.7567 21.4825C58.7655 21.4964 58.7715 21.5097 58.779 21.5246L58.8618 20.8397C58.8561 20.851 58.8513 20.8621 58.8472 20.8734C58.6991 21.2448 58.6474 21.8616 59.2303 21.8156C59.78 21.7711 60.3372 21.2308 60.5343 20.7401ZM56.9666 25.7187C58.1056 25.0512 57.718 23.3683 56.3328 24.1808C55.1941 24.8477 55.5824 26.5309 56.9666 25.7187ZM52.4212 25.7204C53.1455 24.5525 51.8378 23.2511 50.9949 24.6108C50.2707 25.7787 51.5784 27.0801 52.4212 25.7204ZM46.5618 21.8148L46.5296 21.8018L47.1621 22.6852C47.1596 22.6808 47.1586 22.6748 47.1561 22.6688C47.0519 22.395 46.6462 21.556 46.2158 21.7277C45.7805 21.9017 46.0791 22.7824 46.1826 23.0575C46.2988 23.3641 46.526 23.8334 46.8526 23.9716C47.7888 24.369 47.1853 22.0794 46.5618 21.8148ZM53.0329 29.74C53.9826 29.3749 54.7757 27.4147 53.2835 27.9876C52.3337 28.3526 51.5412 30.3132 53.0329 29.74ZM49.0105 16.6765C49.0708 16.7029 49.1323 16.7283 49.1932 16.7534C49.6514 16.9475 50.2882 16.1546 50.4702 15.8524C50.6792 15.5061 50.9052 14.9201 50.4214 14.7155L50.2381 14.6383C49.7803 14.4452 49.1431 15.2371 48.9611 15.5393C48.7521 15.8856 48.5264 16.4725 49.0105 16.6765ZM49.1187 28.7934C49.1255 29.4008 48.7626 29.8975 48.3077 29.9027C47.8529 29.9079 47.4772 29.4209 47.4695 28.8138C47.4628 28.2063 47.8256 27.7097 48.2805 27.7045C48.736 27.6996 49.111 28.1863 49.1187 28.7934Z" fill="#F4ABBA"/>
</g>
<g clip-path="url(#clip1_152:18450)">
<path d="M152 26.2916C154.684 24.7539 157 30.875 155 41.1875C153.894 46.8903 150 51.5 146 54.9375C142 58.375 135 53.7916 139 49.2083C143 44.625 147 41.1875 149 34.3125C150.304 29.83 150 27.4375 152 26.2916Z" fill="#FFE8B6"/>
<path d="M155 33.1667C155 36.6042 154 43.4792 151 48.0625C148 52.6458 144 53.7917 147 49.2083C150 44.625 152 41.1875 153 36.6042C154 32.0208 155 28.5833 155 33.1667Z" fill="#FFD983"/>
<path d="M146 46.9167C145.704 47.595 147.167 42.5247 143 40.0417C141.016 38.8592 133 41.1875 139 41.1875C142 41.1875 143 43.4792 141 45.7709C140.709 46.1054 140.511 46.4618 140.378 46.8159C139.961 47.2123 139.505 47.6282 139 48.0625C136.737 50.007 133.16 52.906 129 56.0834C126 58.375 125 59.5209 125 60.6667C125 64.1042 134 64.1042 139 61.8125C144 59.5209 149 53.7917 149 53.7917L153 49.2084C150 44.625 146 46.9167 146 46.9167Z" fill="#FFCC4D"/>
<path d="M146 46.9167C146 46.9167 147.792 41.498 143 38.8958C138.958 36.7004 135 37.75 132 40.0417C129 42.3333 130 44.625 129 45.7708C128 46.9167 130 48.0625 132 45.7708C134 43.4792 140.316 40.162 143 41.1875C146 42.3333 145 44.6239 146 46.9167Z" fill="#FFE8B6"/>
<path d="M150 64.1042H146C144 64.1042 143 65.25 142 65.25C141 65.25 140 62.9584 142 62.9584C144 62.9584 146 62.9584 147 61.8125C148 60.6667 152 64.1042 150 64.1042Z" fill="#A6D388"/>
<path d="M142 65.25C142.552 65.25 143 64.737 143 64.1041C143 63.4713 142.552 62.9583 142 62.9583C141.448 62.9583 141 63.4713 141 64.1041C141 64.737 141.448 65.25 142 65.25Z" fill="#3E721D"/>
<path d="M156.208 56.0834C156.208 56.0834 152 64.1042 150 64.1042H146C144 64.1042 146 62.9584 147 61.8125C148 60.6667 152 61.8125 152 54.9375C152 51.5 156.208 56.0834 156.208 56.0834Z" fill="#FFCC4D"/>
<path d="M150 45.7708C153 45.7708 158 49.2083 157 56.0833C156 62.9583 152 64.1041 150 64.1041H148C146 64.1041 147 62.9583 148 61.8125C149 60.6666 152 61.8125 152 54.9375C152 51.5 148 46.9166 146 46.9166C146 46.9166 148 45.7708 150 45.7708Z" fill="#FFE8B6"/>
<path d="M141 48.0625C144 48.0625 146 49.2083 144 51.5C142.419 53.3116 138 57.2292 134 58.375C130 59.5208 126 59.5208 129 57.2292C132 54.9375 138.764 48.0625 141 48.0625Z" fill="#FFD983"/>
<path d="M126 59.5208C127 59.5208 127 59.5208 127 60.2851C127 61.0482 127 61.8125 126 61.8125C125 61.8125 125 60.2851 125 60.2851C125 60.2851 125 59.5208 126 59.5208Z" fill="#C1694F"/>
</g>
<g clip-path="url(#clip2_152:18450)">
<path d="M122.277 49.0352C122.685 48.7727 123.047 47.7886 123.439 47.6627C123.83 47.5369 125.404 48.0332 125.598 48.1968C125.793 48.3605 125.656 49.6883 125.719 50.0456C125.782 50.4029 125.277 50.5838 124.092 50.19C122.908 49.7958 122.277 49.0352 122.277 49.0352Z" fill="#77B255"/>
<path d="M109.572 55.1229C112.199 50.3222 118.189 47.2715 121.408 48.2211C123.561 48.8559 125.288 49.3051 126.969 49.2186C129.188 49.1034 131.912 50.7222 133.732 52.6559C136.2 55.2768 141.871 64.6696 136.394 75.1838C132.878 81.9343 123.563 88.78 122.067 88.7313C120.938 88.6941 116.862 88.7379 112.734 85.2496C108.605 81.7613 101.698 69.5118 109.572 55.1229Z" fill="#EA564B"/>
<path d="M113.753 52.2624C117.627 48.3346 123.019 50.2039 121.006 51.5823C117.383 54.0636 115.634 60.7923 114.231 65.9201C111.656 75.3301 114.289 83.6469 112.852 82.7797C110.513 81.3686 106.714 74.1564 107.88 65.4948C109.045 56.8332 112.122 53.9176 113.753 52.2624Z" fill="#F97253"/>
<path d="M124.345 48.9143C126.642 48.6202 131.182 51.2541 132.86 54.5751C137.333 63.4269 135.532 68.6728 135.532 68.6728C135.532 68.6728 128.34 60.369 126.883 56.7432C125.82 54.0957 126.67 52.7652 126.146 51.2258C125.66 49.7935 124.345 48.9143 124.345 48.9143Z" fill="#77B255"/>
</g>
<g clip-path="url(#clip3_152:18450)">
<path d="M35.1185 33.5421C36.8649 29.6231 33.9029 23.1096 33.7227 24.1696C33.9029 23.1096 28.8973 27.1221 29.2027 31.6851C28.3571 30.3031 23.7679 25.512 24.9189 31.457C26.0691 37.4026 27.095 37.7247 27.9406 39.1067C28.7862 40.4887 31.1994 39.0122 31.1994 39.0122C31.1994 39.0122 32.7098 41.7203 33.9168 40.9818C35.1229 40.2438 35.9689 40.5094 38.9219 35.8534C41.8753 31.1959 36.3247 32.8041 35.1185 33.5421Z" fill="#77B255"/>
<path d="M36.4873 52.3988C34.5457 63.816 27.1205 75.7017 24.5551 74.8964C21.9897 74.0911 19.1556 58.9842 21.0963 47.5675C23.0379 36.1503 26.4091 34.1588 31.2259 35.67C36.0424 37.1827 38.4289 40.9815 36.4873 52.3988Z" fill="#F4900C"/>
<path d="M30.6182 43.8544C29.2078 43.4117 26.5898 42.5781 22.9643 40.3353C22.6162 41.2092 22.2912 42.2127 21.9907 43.3597C26.5423 45.4281 32.0976 44.318 30.6182 43.8544ZM29.0608 55.6505C27.5502 55.1763 24.6522 54.2508 20.6121 51.6236C20.5237 52.7954 20.4739 53.9824 20.4601 55.1689C25.0056 57.2196 30.535 56.1133 29.0608 55.6505ZM36.7846 50.4531C32.5291 50.3595 29.7633 49.4968 28.2955 49.0368C26.8142 48.5703 31.4663 52.8931 36.2323 53.7369C36.3241 53.2911 36.699 51.0777 36.7846 50.4531ZM31.9685 65.9248C32.4377 64.9768 32.8944 63.9814 33.3294 62.9469C29.3983 62.7932 26.803 61.9928 25.4027 61.5532C24.0643 61.1323 27.7336 64.6231 31.9685 65.9248Z" fill="#D67503"/>
</g>
<g clip-path="url(#clip4_152:18450)">
<path d="M97.8756 47.7575L90.3019 51.4698L82.728 55.183C82.728 55.183 95.223 58.06 95.4316 70.1645C95.4316 70.1645 98.4513 69.9052 101.636 68.3442C104.82 66.7833 106.606 64.6871 106.606 64.6871C94.4776 58.4245 97.8756 47.7575 97.8756 47.7575Z" fill="#77B255"/>
<path d="M86.9456 54.3357C90.7828 56.1165 96.0935 62.0585 96.0935 62.0585L88.6924 51.0395C86.2256 47.3669 86.9456 54.3357 86.9456 54.3357ZM97.3909 44.3333C97.3909 44.3333 95.3718 55.0872 99.3131 62.9212C92.5285 52.82 92.6652 49.0914 92.6652 49.0914L97.3909 44.3333Z" fill="#5C913B"/>
<path d="M104.008 42.0056C104.23 41.3746 104.159 40.6507 103.727 40.0068C102.932 38.8239 101.25 38.3731 99.9706 39.0003C99.8545 39.0572 99.7535 39.1285 99.6517 39.1985C99.6463 38.7716 99.5228 38.3337 99.2506 37.9284C98.9869 37.5358 98.6209 37.2328 98.2095 37.0149C98.1958 36.6012 98.0753 36.1786 97.8116 35.786C97.0171 34.603 95.3347 34.1523 94.0552 34.7795C93.2606 33.5965 91.5783 33.1457 90.2987 33.7729C89.818 34.0085 89.4622 34.3625 89.2482 34.7762C88.3711 34.096 87.1147 33.9105 86.1031 34.4056C85.6647 34.6204 85.3388 34.9379 85.1207 35.3049C85.0675 35.1934 85.0157 35.0812 84.9437 34.9739C84.1491 33.7909 82.4668 33.3401 81.1872 33.9673C80.1753 34.4633 79.7287 35.4835 79.9746 36.4739C79.4483 36.424 78.9113 36.5068 78.4306 36.7424C77.7341 37.0838 77.3121 37.6757 77.1882 38.3331C76.4616 38.0918 75.6502 38.1052 74.9537 38.4466C73.6741 39.0738 73.2807 40.542 74.0753 41.7249C73.0634 42.2209 72.6168 43.2411 72.8627 44.2315C72.3364 44.1816 71.7993 44.2644 71.3186 44.5C70.0391 45.1272 69.6456 46.5954 70.4402 47.7784C70.7387 48.2228 71.1621 48.564 71.6432 48.783C70.9361 49.518 70.8127 50.6248 71.44 51.56C71.7122 51.9653 72.0924 52.2773 72.5212 52.4968C72.399 52.5365 72.276 52.575 72.1599 52.6319C70.8803 53.2591 70.4869 54.7273 71.2815 55.9102C71.9074 56.8461 73.0881 57.3136 74.1889 57.1634C74.1674 57.6287 74.2986 58.1132 74.5971 58.5576C75.3916 59.7405 77.074 60.1913 78.3535 59.5641C78.7919 59.3492 79.1178 59.0318 79.3359 58.6647C79.3891 58.7763 79.4409 58.8885 79.5129 58.9958C80.3075 60.1788 81.9898 60.6295 83.2694 60.0023C83.7501 59.7667 84.1059 59.4128 84.32 58.9991C85.197 59.6792 86.4534 59.8647 87.465 59.3697C88.477 58.8737 88.9235 57.8535 88.6776 56.8631C89.204 56.9131 89.741 56.8302 90.2217 56.5946C90.6601 56.3798 90.9859 56.0623 91.2041 55.6952C91.2572 55.8068 91.309 55.919 91.3811 56.0263C92.1757 57.2093 93.858 57.6601 95.1376 57.0329C96.1495 56.5369 96.596 55.5167 96.3501 54.5263C96.8765 54.5762 97.4135 54.4934 97.8942 54.2578C98.7627 53.8321 99.2107 53.0193 99.1685 52.1715C99.2781 52.1346 99.3877 52.1019 99.4928 52.0503C100.189 51.7089 100.611 51.117 100.735 50.4597C101.462 50.7009 102.273 50.6875 102.97 50.3461C104.249 49.7189 104.643 48.2507 103.848 47.0678C103.776 46.9605 103.689 46.8656 103.603 46.7702C104.084 46.7945 104.569 46.7144 105.008 46.4995C106.287 45.8723 106.68 44.4041 105.886 43.2211C105.453 42.5773 104.757 42.1609 104.008 42.0056Z" fill="#3E721D"/>
<path d="M75.824 54.3684C76.0445 53.5452 75.4587 52.6731 74.5156 52.4204C73.5724 52.1676 72.629 52.63 72.4084 53.4532C72.1879 54.2763 72.7737 55.1485 73.7168 55.4012C74.66 55.6539 75.6034 55.1915 75.824 54.3684Z" fill="#5C913B"/>
<path d="M76.9537 50.1521C77.1743 49.329 76.5885 48.4568 75.6453 48.2041C74.7021 47.9514 73.7587 48.4138 73.5382 49.2369C73.3176 50.0601 73.9034 50.9322 74.8466 51.185C75.7898 51.4377 76.7331 50.9753 76.9537 50.1521Z" fill="#5C913B"/>
<path d="M74.487 46.4795C74.7075 45.6564 74.1217 44.7842 73.1786 44.5315C72.2354 44.2788 71.292 44.7412 71.0714 45.5643C70.8509 46.3875 71.4367 47.2596 72.3798 47.5123C73.323 47.7651 74.2664 47.3027 74.487 46.4795Z" fill="#5C913B"/>
<path d="M77.8433 43.6136C78.0639 42.7904 77.4781 41.9183 76.5349 41.6655C75.5917 41.4128 74.6483 41.8752 74.4277 42.6984C74.2072 43.5215 74.793 44.3937 75.7362 44.6464C76.6793 44.8991 77.6227 44.4367 77.8433 43.6136Z" fill="#5C913B"/>
<path d="M78.5962 40.8037C78.8168 39.9805 78.231 39.1084 77.2878 38.8557C76.3446 38.6029 75.4012 39.0653 75.1807 39.8885C74.9601 40.7116 75.5459 41.5838 76.4891 41.8365C77.4323 42.0892 78.3757 41.6268 78.5962 40.8037Z" fill="#5C913B"/>
<path d="M81.1996 40.7476C81.4202 39.9244 80.8344 39.0523 79.8912 38.7996C78.948 38.5468 78.0047 39.0093 77.7841 39.8324C77.5635 40.6555 78.1493 41.5277 79.0925 41.7804C80.0357 42.0331 80.9791 41.5707 81.1996 40.7476Z" fill="#5C913B"/>
<path d="M82.569 38.8556C82.7896 38.0324 82.2038 37.1603 81.2606 36.9075C80.3174 36.6548 79.374 37.1172 79.1535 37.9404C78.9329 38.7635 79.5187 39.6357 80.4619 39.8884C81.4051 40.1411 82.3485 39.6787 82.569 38.8556Z" fill="#5C913B"/>
<path d="M84.9323 36.4771C85.1529 35.654 84.5671 34.7818 83.6239 34.5291C82.6807 34.2764 81.7373 34.7388 81.5168 35.5619C81.2962 36.3851 81.882 37.2572 82.8252 37.51C83.7684 37.7627 84.7118 37.3003 84.9323 36.4771Z" fill="#5C913B"/>
<path d="M87.1592 37.8265C87.3797 37.0034 86.7939 36.1312 85.8508 35.8785C84.9076 35.6258 83.9642 36.0882 83.7436 36.9113C83.5231 37.7344 84.1089 38.6066 85.052 38.8593C85.9952 39.1121 86.9386 38.6496 87.1592 37.8265Z" fill="#5C913B"/>
<path d="M91.7493 36.7975C91.9699 35.9743 91.3841 35.1022 90.4409 34.8494C89.4977 34.5967 88.5543 35.0591 88.3337 35.8823C88.1132 36.7054 88.699 37.5776 89.6422 37.8303C90.5853 38.083 91.5287 37.6206 91.7493 36.7975Z" fill="#5C913B"/>
<path d="M95.9629 37.1738C96.1834 36.3507 95.5976 35.4785 94.6544 35.2258C93.7113 34.973 92.7679 35.4355 92.5473 36.2586C92.3267 37.0817 92.9125 37.9539 93.8557 38.2066C94.7989 38.4593 95.7423 37.9969 95.9629 37.1738Z" fill="#5C913B"/>
<path d="M86.406 40.6374C86.6266 39.8142 86.0408 38.9421 85.0976 38.6893C84.1544 38.4366 83.211 38.899 82.9905 39.7222C82.7699 40.5453 83.3557 41.4175 84.2989 41.6702C85.2421 41.9229 86.1855 41.4605 86.406 40.6374Z" fill="#5C913B"/>
<path d="M82.4334 42.5845C82.654 41.7614 82.0682 40.8892 81.125 40.6365C80.1818 40.3838 79.2384 40.8462 79.0179 41.6693C78.7973 42.4924 79.3831 43.3646 80.3263 43.6173C81.2695 43.8701 82.2129 43.4076 82.4334 42.5845Z" fill="#5C913B"/>
<path d="M79.0771 45.4505C79.2977 44.6273 78.7119 43.7552 77.7687 43.5024C76.8255 43.2497 75.8821 43.7121 75.6616 44.5353C75.441 45.3584 76.0268 46.2306 76.97 46.4833C77.9132 46.736 78.8566 46.2736 79.0771 45.4505Z" fill="#5C913B"/>
<path d="M79.5569 50.097C79.7774 49.2738 79.1916 48.4017 78.2485 48.1489C77.3053 47.8962 76.3619 48.3586 76.1413 49.1818C75.9208 50.0049 76.5066 50.8771 77.4498 51.1298C78.3929 51.3825 79.3363 50.9201 79.5569 50.097Z" fill="#5C913B"/>
<path d="M78.3242 48.2603C78.5447 47.4372 77.9589 46.565 77.0158 46.3123C76.0726 46.0596 75.1292 46.522 74.9086 47.3451C74.6881 48.1683 75.2739 49.0404 76.2171 49.2932C77.1602 49.5459 78.1036 49.0835 78.3242 48.2603Z" fill="#5C913B"/>
<path d="M80.4141 53.3393C80.6347 52.5162 80.0489 51.644 79.1057 51.3913C78.1625 51.1386 77.2191 51.601 76.9986 52.4241C76.778 53.2473 77.3638 54.1194 78.307 54.3721C79.2502 54.6249 80.1936 54.1625 80.4141 53.3393Z" fill="#5C913B"/>
<path d="M83.9071 46.7447C84.1277 45.9215 83.5419 45.0494 82.5987 44.7966C81.6555 44.5439 80.7121 45.0063 80.4916 45.8295C80.271 46.6526 80.8568 47.5248 81.8 47.7775C82.7432 48.0302 83.6866 47.5678 83.9071 46.7447Z" fill="#5C913B"/>
<path d="M90.8597 43.336C91.0803 42.5128 90.4945 41.6407 89.5513 41.3879C88.6081 41.1352 87.6647 41.5976 87.4442 42.4208C87.2236 43.2439 87.8094 44.1161 88.7526 44.3688C89.6958 44.6215 90.6392 44.1591 90.8597 43.336Z" fill="#5C913B"/>
<path d="M96.0672 43.226C96.2877 42.4029 95.7019 41.5307 94.7588 41.278C93.8156 41.0253 92.8722 41.4877 92.6516 42.3108C92.4311 43.134 93.0169 44.0061 93.96 44.2589C94.9032 44.5116 95.8466 44.0492 96.0672 43.226Z" fill="#5C913B"/>
</g>
</g>
<g filter="url(#filter0_b_152:18450)">
<rect x="13" y="77" width="141" height="77" rx="10" fill="black" fill-opacity="0.8"/>
</g>
<path d="M32.6728 104H30.4048L27.6468 94.984H29.5788L29.8028 96.174L31.5108 102.236H31.6368L33.5968 96.272L33.8348 94.984H35.7108L32.6728 104ZM40.9614 100.976L37.1814 101.004C37.2654 102.171 37.858 102.754 38.9594 102.754C39.538 102.754 40.182 102.591 40.8914 102.264L41.0454 102.362L40.7654 103.748C40.056 104.009 39.3887 104.14 38.7634 104.14C37.7367 104.14 36.9294 103.841 36.3414 103.244C35.7627 102.647 35.4734 101.821 35.4734 100.766C35.4734 99.7207 35.758 98.8947 36.3274 98.288C36.8967 97.672 37.6667 97.364 38.6374 97.364C39.468 97.364 40.1074 97.5927 40.5554 98.05C41.0127 98.498 41.2414 99.128 41.2414 99.94C41.2414 100.155 41.218 100.425 41.1714 100.752L40.9614 100.976ZM39.6174 99.73C39.6174 99.3567 39.5334 99.0767 39.3654 98.89C39.1974 98.694 38.95 98.596 38.6234 98.596C38.2594 98.596 37.956 98.7173 37.7134 98.96C37.4707 99.1933 37.3074 99.534 37.2234 99.982L39.5894 99.926L39.6174 99.73ZM46.1229 97.476C46.2069 97.476 46.3236 97.4853 46.4729 97.504V99.226L46.2769 99.296C46.1182 99.2307 45.9456 99.198 45.7589 99.198C45.2176 99.198 44.7276 99.548 44.2889 100.248V101.13L44.3869 104H42.5249L42.6369 101.312L42.5529 97.616L44.3169 97.462L44.3029 98.736H44.4149C44.8722 97.896 45.4416 97.476 46.1229 97.476ZM52.8241 101.13L52.8661 102.306C52.8661 102.465 52.8848 102.577 52.9221 102.642C52.9688 102.698 53.0481 102.726 53.1601 102.726C53.2628 102.726 53.3888 102.707 53.5381 102.67L53.6641 102.782L53.5101 103.762C53.1928 103.958 52.8474 104.075 52.4741 104.112C52.1848 104.084 51.9421 103.986 51.7461 103.818C51.5501 103.65 51.4148 103.421 51.3401 103.132H51.2281C50.7708 103.552 50.3041 103.874 49.8281 104.098C48.9134 104.098 48.2041 103.809 47.7001 103.23C47.1961 102.642 46.9441 101.83 46.9441 100.794C46.9441 99.6927 47.2334 98.848 47.8121 98.26C48.3908 97.672 49.1934 97.378 50.2201 97.378C50.4908 97.378 50.7894 97.406 51.1161 97.462L51.0881 94.312L52.9361 94.172L52.8241 101.13ZM50.0941 98.638C49.1608 98.638 48.6941 99.2307 48.6941 100.416C48.6941 101.153 48.8061 101.709 49.0301 102.082C49.2541 102.455 49.5808 102.642 50.0101 102.642C50.4208 102.642 50.7988 102.451 51.1441 102.068L51.1721 101.298L51.1301 98.89C50.7661 98.722 50.4208 98.638 50.0941 98.638ZM60.9772 102.782L60.8092 103.762C60.4639 103.986 60.1092 104.103 59.7452 104.112C59.4746 104.065 59.2506 103.958 59.0732 103.79C58.8959 103.622 58.7606 103.379 58.6672 103.062H58.5412C58.0092 103.585 57.4586 103.925 56.8892 104.084C56.1799 104.084 55.6386 103.925 55.2652 103.608C54.9012 103.281 54.7239 102.815 54.7332 102.208L54.7612 100.556L54.6912 97.616L56.4972 97.462L56.4552 101.592C56.4459 101.919 56.5112 102.166 56.6512 102.334C56.7912 102.502 57.0012 102.586 57.2812 102.586C57.6919 102.586 58.0979 102.404 58.4992 102.04V97.616L60.2772 97.462L60.1512 102.306C60.1512 102.455 60.1746 102.563 60.2212 102.628C60.2772 102.693 60.3612 102.726 60.4732 102.726C60.5759 102.726 60.7019 102.707 60.8512 102.67L60.9772 102.782ZM65.5916 97.476C65.6756 97.476 65.7923 97.4853 65.9416 97.504V99.226L65.7456 99.296C65.587 99.2307 65.4143 99.198 65.2276 99.198C64.6863 99.198 64.1963 99.548 63.7576 100.248V101.13L63.8556 104H61.9936L62.1056 101.312L62.0216 97.616L63.7856 97.462L63.7716 98.736H63.8836C64.341 97.896 64.9103 97.476 65.5916 97.476ZM69.2861 97.364C70.0048 97.364 70.5648 97.5273 70.9661 97.854C71.3768 98.1713 71.5821 98.6193 71.5821 99.198C71.5821 99.366 71.5541 99.898 71.4981 100.794C71.4888 101.055 71.4748 101.326 71.4561 101.606C71.4375 101.877 71.4281 102.11 71.4281 102.306C71.4281 102.465 71.4515 102.577 71.4981 102.642C71.5448 102.698 71.6288 102.726 71.7501 102.726C71.8435 102.726 71.9648 102.707 72.1141 102.67L72.2541 102.782L72.0861 103.762C71.7875 103.958 71.4468 104.075 71.0641 104.112C70.7841 104.084 70.5508 103.986 70.3641 103.818C70.1775 103.641 70.0515 103.398 69.9861 103.09H69.8881C69.4215 103.585 68.9408 103.93 68.4461 104.126C67.7741 104.117 67.2468 103.939 66.8641 103.594C66.4815 103.249 66.2901 102.777 66.2901 102.18C66.2901 101.713 66.4068 101.349 66.6401 101.088C66.8828 100.817 67.2468 100.635 67.7321 100.542L69.8741 100.136V99.562C69.8741 98.9553 69.5755 98.652 68.9781 98.652C68.6888 98.652 68.3808 98.7173 68.0541 98.848C67.7368 98.9787 67.3775 99.184 66.9761 99.464L66.8361 99.38L66.6261 98.148C67.0275 97.896 67.4568 97.7047 67.9141 97.574C68.3715 97.434 68.8288 97.364 69.2861 97.364ZM68.3761 101.396C68.2268 101.433 68.1148 101.499 68.0401 101.592C67.9748 101.676 67.9421 101.807 67.9421 101.984C67.9421 102.227 68.0075 102.418 68.1381 102.558C68.2688 102.689 68.4508 102.754 68.6841 102.754C69.0481 102.754 69.4308 102.539 69.8321 102.11L69.8601 101.074L68.3761 101.396ZM75.6484 97.378C76.283 97.378 76.8804 97.4853 77.4404 97.7L77.1884 99.072L76.9644 99.142C76.6937 98.9647 76.423 98.8293 76.1524 98.736C75.8817 98.6427 75.6437 98.596 75.4384 98.596C75.2144 98.596 75.037 98.6567 74.9064 98.778C74.7757 98.89 74.7104 99.03 74.7104 99.198C74.7104 99.394 74.7944 99.5527 74.9624 99.674C75.1397 99.7953 75.415 99.9307 75.7884 100.08C76.1617 100.229 76.4697 100.374 76.7124 100.514C76.955 100.654 77.1604 100.85 77.3284 101.102C77.5057 101.345 77.5944 101.648 77.5944 102.012C77.5944 102.385 77.4964 102.735 77.3004 103.062C77.1137 103.379 76.8244 103.641 76.4324 103.846C76.0404 104.042 75.5597 104.14 74.9904 104.14C74.3184 104.14 73.623 104 72.9044 103.72L73.1144 102.264L73.2964 102.152C73.5857 102.395 73.9077 102.591 74.2624 102.74C74.617 102.88 74.9297 102.95 75.2004 102.95C75.4524 102.95 75.6484 102.889 75.7884 102.768C75.9284 102.637 75.9984 102.483 75.9984 102.306C75.9984 102.11 75.9097 101.951 75.7324 101.83C75.5644 101.709 75.2937 101.573 74.9204 101.424C74.5377 101.256 74.225 101.107 73.9824 100.976C73.7397 100.836 73.5297 100.64 73.3524 100.388C73.1844 100.136 73.1004 99.8233 73.1004 99.45C73.1004 98.8433 73.329 98.3487 73.7864 97.966C74.2437 97.574 74.8644 97.378 75.6484 97.378ZM79.8077 102.152C80.2277 102.488 80.4377 102.889 80.4377 103.356C80.4377 104.168 79.873 104.975 78.7437 105.778L78.1417 105.246L78.1277 105.106C78.641 104.677 78.8977 104.219 78.8977 103.734C78.8977 103.417 78.7483 103.137 78.4497 102.894L78.4637 102.74C78.893 102.479 79.341 102.283 79.8077 102.152ZM85.798 101.13L85.896 104H84.034L84.132 101.298L84.048 94.312L85.91 94.172L85.798 101.13ZM92.6958 100.976L88.9158 101.004C88.9998 102.171 89.5924 102.754 90.6938 102.754C91.2724 102.754 91.9164 102.591 92.6258 102.264L92.7798 102.362L92.4998 103.748C91.7904 104.009 91.1231 104.14 90.4978 104.14C89.4711 104.14 88.6638 103.841 88.0758 103.244C87.4971 102.647 87.2078 101.821 87.2078 100.766C87.2078 99.7207 87.4924 98.8947 88.0618 98.288C88.6311 97.672 89.4011 97.364 90.3718 97.364C91.2024 97.364 91.8418 97.5927 92.2898 98.05C92.7471 98.498 92.9758 99.128 92.9758 99.94C92.9758 100.155 92.9524 100.425 92.9058 100.752L92.6958 100.976ZM91.3518 99.73C91.3518 99.3567 91.2678 99.0767 91.0998 98.89C90.9318 98.694 90.6844 98.596 90.3578 98.596C89.9938 98.596 89.6904 98.7173 89.4478 98.96C89.2051 99.1933 89.0418 99.534 88.9578 99.982L91.3238 99.926L91.3518 99.73ZM100.381 98.372C100.129 98.4373 99.7692 98.5073 99.3026 98.582L99.2746 98.638C99.4146 98.918 99.4846 99.2307 99.4846 99.576C99.4846 100.276 99.2279 100.836 98.7146 101.256C98.2106 101.667 97.5246 101.872 96.6566 101.872C96.3952 101.872 96.1246 101.849 95.8446 101.802C95.7606 101.886 95.7046 101.951 95.6766 101.998C95.6486 102.045 95.6346 102.101 95.6346 102.166C95.6346 102.334 95.7466 102.451 95.9706 102.516C96.1946 102.581 96.5492 102.647 97.0346 102.712C97.5852 102.777 98.0426 102.857 98.4066 102.95C98.7799 103.043 99.0972 103.207 99.3586 103.44C99.6292 103.673 99.7646 104.005 99.7646 104.434C99.7646 104.873 99.6246 105.265 99.3446 105.61C99.0739 105.965 98.6959 106.24 98.2106 106.436C97.7252 106.632 97.1746 106.73 96.5586 106.73C95.7092 106.73 95.0559 106.557 94.5986 106.212C94.1412 105.867 93.9126 105.409 93.9126 104.84C94.2019 104.439 94.5892 104.089 95.0746 103.79V103.72C94.7572 103.608 94.5099 103.454 94.3326 103.258C94.1552 103.053 94.0666 102.782 94.0666 102.446C94.3186 102.138 94.6359 101.853 95.0186 101.592V101.522C94.6826 101.335 94.4259 101.093 94.2486 100.794C94.0806 100.486 93.9966 100.127 93.9966 99.716C93.9966 98.988 94.2486 98.4187 94.7526 98.008C95.2566 97.5973 95.9426 97.392 96.8106 97.392C97.3146 97.392 97.7719 97.476 98.1826 97.644C98.8546 97.5227 99.5406 97.336 100.241 97.084L100.381 97.21V98.372ZM96.7126 100.752C97.0952 100.752 97.3846 100.654 97.5806 100.458C97.7766 100.262 97.8746 99.9773 97.8746 99.604C97.8746 98.8947 97.5106 98.54 96.7826 98.54C95.9986 98.54 95.6066 98.8993 95.6066 99.618C95.6066 99.9913 95.6999 100.276 95.8866 100.472C96.0732 100.659 96.3486 100.752 96.7126 100.752ZM98.1966 104.77C98.1966 104.518 98.0612 104.345 97.7906 104.252C97.5292 104.159 97.1232 104.079 96.5726 104.014L96.0966 103.944C95.8726 104.093 95.7046 104.238 95.5926 104.378C95.4806 104.518 95.4246 104.667 95.4246 104.826C95.4246 105.069 95.5366 105.265 95.7606 105.414C95.9846 105.563 96.3112 105.638 96.7406 105.638C97.1792 105.638 97.5292 105.559 97.7906 105.4C98.0612 105.251 98.1966 105.041 98.1966 104.77ZM107.339 102.782L107.171 103.762C106.825 103.986 106.471 104.103 106.107 104.112C105.836 104.065 105.612 103.958 105.435 103.79C105.257 103.622 105.122 103.379 105.029 103.062H104.903C104.371 103.585 103.82 103.925 103.251 104.084C102.541 104.084 102 103.925 101.627 103.608C101.263 103.281 101.085 102.815 101.095 102.208L101.123 100.556L101.053 97.616L102.859 97.462L102.817 101.592C102.807 101.919 102.873 102.166 103.013 102.334C103.153 102.502 103.363 102.586 103.643 102.586C104.053 102.586 104.459 102.404 104.861 102.04V97.616L106.639 97.462L106.513 102.306C106.513 102.455 106.536 102.563 106.583 102.628C106.639 102.693 106.723 102.726 106.835 102.726C106.937 102.726 107.063 102.707 107.213 102.67L107.339 102.782ZM116.153 104L116.265 99.94C116.265 99.2493 115.971 98.904 115.383 98.904C114.963 98.904 114.524 99.0907 114.067 99.464L114.025 101.144L114.109 104H112.247L112.359 99.94C112.368 99.604 112.294 99.3473 112.135 99.17C111.986 98.9927 111.766 98.904 111.477 98.904C111.066 98.904 110.614 99.1 110.119 99.492V101.13L110.203 104H108.355L108.453 101.312L108.383 97.616L110.133 97.462V98.414H110.231C110.744 97.9473 111.309 97.6113 111.925 97.406C112.97 97.406 113.638 97.756 113.927 98.456H114.011C114.543 97.9613 115.15 97.6113 115.831 97.406C116.54 97.406 117.077 97.5693 117.441 97.896C117.814 98.2133 117.992 98.6753 117.973 99.282L117.931 101.144L118.015 104H116.153ZM124.688 100.976L120.908 101.004C120.992 102.171 121.585 102.754 122.686 102.754C123.265 102.754 123.909 102.591 124.618 102.264L124.772 102.362L124.492 103.748C123.783 104.009 123.115 104.14 122.49 104.14C121.463 104.14 120.656 103.841 120.068 103.244C119.489 102.647 119.2 101.821 119.2 100.766C119.2 99.7207 119.485 98.8947 120.054 98.288C120.623 97.672 121.393 97.364 122.364 97.364C123.195 97.364 123.834 97.5927 124.282 98.05C124.739 98.498 124.968 99.128 124.968 99.94C124.968 100.155 124.945 100.425 124.898 100.752L124.688 100.976ZM123.344 99.73C123.344 99.3567 123.26 99.0767 123.092 98.89C122.924 98.694 122.677 98.596 122.35 98.596C121.986 98.596 121.683 98.7173 121.44 98.96C121.197 99.1933 121.034 99.534 120.95 99.982L123.316 99.926L123.344 99.73ZM128.435 97.378C129.07 97.378 129.667 97.4853 130.227 97.7L129.975 99.072L129.751 99.142C129.481 98.9647 129.21 98.8293 128.939 98.736C128.669 98.6427 128.431 98.596 128.225 98.596C128.001 98.596 127.824 98.6567 127.693 98.778C127.563 98.89 127.497 99.03 127.497 99.198C127.497 99.394 127.581 99.5527 127.749 99.674C127.927 99.7953 128.202 99.9307 128.575 100.08C128.949 100.229 129.257 100.374 129.499 100.514C129.742 100.654 129.947 100.85 130.115 101.102C130.293 101.345 130.381 101.648 130.381 102.012C130.381 102.385 130.283 102.735 130.087 103.062C129.901 103.379 129.611 103.641 129.219 103.846C128.827 104.042 128.347 104.14 127.777 104.14C127.105 104.14 126.41 104 125.691 103.72L125.901 102.264L126.083 102.152C126.373 102.395 126.695 102.591 127.049 102.74C127.404 102.88 127.717 102.95 127.987 102.95C128.239 102.95 128.435 102.889 128.575 102.768C128.715 102.637 128.785 102.483 128.785 102.306C128.785 102.11 128.697 101.951 128.519 101.83C128.351 101.709 128.081 101.573 127.707 101.424C127.325 101.256 127.012 101.107 126.769 100.976C126.527 100.836 126.317 100.64 126.139 100.388C125.971 100.136 125.887 99.8233 125.887 99.45C125.887 98.8433 126.116 98.3487 126.573 97.966C127.031 97.574 127.651 97.378 128.435 97.378ZM138.784 100.976L135.004 101.004C135.088 102.171 135.68 102.754 136.782 102.754C137.36 102.754 138.004 102.591 138.714 102.264L138.868 102.362L138.588 103.748C137.878 104.009 137.211 104.14 136.586 104.14C135.559 104.14 134.752 103.841 134.164 103.244C133.585 102.647 133.296 101.821 133.296 100.766C133.296 99.7207 133.58 98.8947 134.15 98.288C134.719 97.672 135.489 97.364 136.46 97.364C137.29 97.364 137.93 97.5927 138.378 98.05C138.835 98.498 139.064 99.128 139.064 99.94C139.064 100.155 139.04 100.425 138.994 100.752L138.784 100.976ZM137.44 99.73C137.44 99.3567 137.356 99.0767 137.188 98.89C137.02 98.694 136.772 98.596 136.446 98.596C136.082 98.596 135.778 98.7173 135.536 98.96C135.293 99.1933 135.13 99.534 135.046 99.982L137.412 99.926L137.44 99.73ZM33.5535 110.144C33.9362 110.144 34.3422 110.186 34.7715 110.27L34.6455 111.656L34.5195 111.74C34.0809 111.553 33.6982 111.46 33.3715 111.46C32.7929 111.46 32.4989 111.791 32.4895 112.454L32.4755 113.546H34.0575L34.1135 113.644L34.0295 114.666H32.4475L32.4055 117.13L32.5035 120H30.6415L30.7535 117.298L30.7255 114.666H29.7455L29.6755 114.568L29.7735 113.546H30.7115L30.6975 112.776C30.6975 111.936 30.9449 111.287 31.4395 110.83C31.9435 110.373 32.6482 110.144 33.5535 110.144ZM38.3709 113.476C38.4549 113.476 38.5716 113.485 38.7209 113.504V115.226L38.5249 115.296C38.3663 115.231 38.1936 115.198 38.0069 115.198C37.4656 115.198 36.9756 115.548 36.5369 116.248V117.13L36.6349 120H34.7729L34.8849 117.312L34.8009 113.616L36.5649 113.462L36.5509 114.736H36.6629C37.1203 113.896 37.6896 113.476 38.3709 113.476ZM45.9108 118.782L45.7428 119.762C45.3975 119.986 45.0428 120.103 44.6788 120.112C44.4082 120.065 44.1842 119.958 44.0068 119.79C43.8295 119.622 43.6942 119.379 43.6008 119.062H43.4748C42.9428 119.585 42.3922 119.925 41.8228 120.084C41.1135 120.084 40.5722 119.925 40.1988 119.608C39.8348 119.281 39.6575 118.815 39.6668 118.208L39.6948 116.556L39.6248 113.616L41.4308 113.462L41.3888 117.592C41.3795 117.919 41.4448 118.166 41.5848 118.334C41.7248 118.502 41.9348 118.586 42.2148 118.586C42.6255 118.586 43.0315 118.404 43.4328 118.04V113.616L45.2108 113.462L45.0848 118.306C45.0848 118.455 45.1082 118.563 45.1548 118.628C45.2108 118.693 45.2948 118.726 45.4068 118.726C45.5095 118.726 45.6355 118.707 45.7848 118.67L45.9108 118.782ZM49.6413 118.628C49.9399 118.628 50.2526 118.549 50.5793 118.39L50.7333 118.53L50.5513 119.636C50.0753 119.879 49.5899 120.028 49.0953 120.084C47.8353 119.953 47.2053 119.337 47.2053 118.236L47.2753 117.074L47.2613 114.666H46.3933L46.3233 114.568L46.4213 113.546H47.2473V112.468L48.9413 111.922L49.0673 112.034L49.0253 113.546H50.6913L50.7473 113.644L50.6633 114.666H48.9973L48.9133 117.802C48.9133 118.101 48.9693 118.315 49.0813 118.446C49.1933 118.567 49.3799 118.628 49.6413 118.628ZM54.3017 113.364C55.0204 113.364 55.5804 113.527 55.9817 113.854C56.3924 114.171 56.5977 114.619 56.5977 115.198C56.5977 115.366 56.5697 115.898 56.5137 116.794C56.5044 117.055 56.4904 117.326 56.4717 117.606C56.4531 117.877 56.4437 118.11 56.4437 118.306C56.4437 118.465 56.4671 118.577 56.5137 118.642C56.5604 118.698 56.6444 118.726 56.7657 118.726C56.8591 118.726 56.9804 118.707 57.1297 118.67L57.2697 118.782L57.1017 119.762C56.8031 119.958 56.4624 120.075 56.0797 120.112C55.7997 120.084 55.5664 119.986 55.3797 119.818C55.1931 119.641 55.0671 119.398 55.0017 119.09H54.9037C54.4371 119.585 53.9564 119.93 53.4617 120.126C52.7897 120.117 52.2624 119.939 51.8797 119.594C51.4971 119.249 51.3057 118.777 51.3057 118.18C51.3057 117.713 51.4224 117.349 51.6557 117.088C51.8984 116.817 52.2624 116.635 52.7477 116.542L54.8897 116.136V115.562C54.8897 114.955 54.5911 114.652 53.9937 114.652C53.7044 114.652 53.3964 114.717 53.0697 114.848C52.7524 114.979 52.3931 115.184 51.9917 115.464L51.8517 115.38L51.6417 114.148C52.0431 113.896 52.4724 113.705 52.9297 113.574C53.3871 113.434 53.8444 113.364 54.3017 113.364ZM53.3917 117.396C53.2424 117.433 53.1304 117.499 53.0557 117.592C52.9904 117.676 52.9577 117.807 52.9577 117.984C52.9577 118.227 53.0231 118.418 53.1537 118.558C53.2844 118.689 53.4664 118.754 53.6997 118.754C54.0637 118.754 54.4464 118.539 54.8477 118.11L54.8757 117.074L53.3917 117.396ZM60.664 113.378C61.2986 113.378 61.896 113.485 62.456 113.7L62.204 115.072L61.98 115.142C61.7093 114.965 61.4386 114.829 61.168 114.736C60.8973 114.643 60.6593 114.596 60.454 114.596C60.23 114.596 60.0526 114.657 59.922 114.778C59.7913 114.89 59.726 115.03 59.726 115.198C59.726 115.394 59.81 115.553 59.978 115.674C60.1553 115.795 60.4306 115.931 60.804 116.08C61.1773 116.229 61.4853 116.374 61.728 116.514C61.9706 116.654 62.176 116.85 62.344 117.102C62.5213 117.345 62.61 117.648 62.61 118.012C62.61 118.385 62.512 118.735 62.316 119.062C62.1293 119.379 61.84 119.641 61.448 119.846C61.056 120.042 60.5753 120.14 60.006 120.14C59.334 120.14 58.6386 120 57.92 119.72L58.13 118.264L58.312 118.152C58.6013 118.395 58.9233 118.591 59.278 118.74C59.6326 118.88 59.9453 118.95 60.216 118.95C60.468 118.95 60.664 118.889 60.804 118.768C60.944 118.637 61.014 118.483 61.014 118.306C61.014 118.11 60.9253 117.951 60.748 117.83C60.58 117.709 60.3093 117.573 59.936 117.424C59.5533 117.256 59.2406 117.107 58.998 116.976C58.7553 116.836 58.5453 116.64 58.368 116.388C58.2 116.136 58.116 115.823 58.116 115.45C58.116 114.843 58.3446 114.349 58.802 113.966C59.2593 113.574 59.88 113.378 60.664 113.378ZM68.1562 113.378C68.7908 113.378 69.3882 113.485 69.9482 113.7L69.6962 115.072L69.4722 115.142C69.2015 114.965 68.9308 114.829 68.6602 114.736C68.3895 114.643 68.1515 114.596 67.9462 114.596C67.7222 114.596 67.5448 114.657 67.4142 114.778C67.2835 114.89 67.2182 115.03 67.2182 115.198C67.2182 115.394 67.3022 115.553 67.4702 115.674C67.6475 115.795 67.9228 115.931 68.2962 116.08C68.6695 116.229 68.9775 116.374 69.2202 116.514C69.4628 116.654 69.6682 116.85 69.8362 117.102C70.0135 117.345 70.1022 117.648 70.1022 118.012C70.1022 118.385 70.0042 118.735 69.8082 119.062C69.6215 119.379 69.3322 119.641 68.9402 119.846C68.5482 120.042 68.0675 120.14 67.4982 120.14C66.8262 120.14 66.1308 120 65.4122 119.72L65.6222 118.264L65.8042 118.152C66.0935 118.395 66.4155 118.591 66.7702 118.74C67.1248 118.88 67.4375 118.95 67.7082 118.95C67.9602 118.95 68.1562 118.889 68.2962 118.768C68.4362 118.637 68.5062 118.483 68.5062 118.306C68.5062 118.11 68.4175 117.951 68.2402 117.83C68.0722 117.709 67.8015 117.573 67.4282 117.424C67.0455 117.256 66.7328 117.107 66.4902 116.976C66.2475 116.836 66.0375 116.64 65.8602 116.388C65.6922 116.136 65.6082 115.823 65.6082 115.45C65.6082 114.843 65.8368 114.349 66.2942 113.966C66.7515 113.574 67.3722 113.378 68.1562 113.378ZM73.9072 113.364C74.6259 113.364 75.1859 113.527 75.5872 113.854C75.9979 114.171 76.2032 114.619 76.2032 115.198C76.2032 115.366 76.1752 115.898 76.1192 116.794C76.1099 117.055 76.0959 117.326 76.0772 117.606C76.0585 117.877 76.0492 118.11 76.0492 118.306C76.0492 118.465 76.0725 118.577 76.1192 118.642C76.1659 118.698 76.2499 118.726 76.3712 118.726C76.4645 118.726 76.5859 118.707 76.7352 118.67L76.8752 118.782L76.7072 119.762C76.4085 119.958 76.0679 120.075 75.6852 120.112C75.4052 120.084 75.1719 119.986 74.9852 119.818C74.7985 119.641 74.6725 119.398 74.6072 119.09H74.5092C74.0425 119.585 73.5619 119.93 73.0672 120.126C72.3952 120.117 71.8679 119.939 71.4852 119.594C71.1025 119.249 70.9112 118.777 70.9112 118.18C70.9112 117.713 71.0279 117.349 71.2612 117.088C71.5039 116.817 71.8679 116.635 72.3532 116.542L74.4952 116.136V115.562C74.4952 114.955 74.1965 114.652 73.5992 114.652C73.3099 114.652 73.0019 114.717 72.6752 114.848C72.3579 114.979 71.9985 115.184 71.5972 115.464L71.4572 115.38L71.2472 114.148C71.6485 113.896 72.0779 113.705 72.5352 113.574C72.9925 113.434 73.4499 113.364 73.9072 113.364ZM72.9972 117.396C72.8479 117.433 72.7359 117.499 72.6612 117.592C72.5959 117.676 72.5632 117.807 72.5632 117.984C72.5632 118.227 72.6285 118.418 72.7592 118.558C72.8899 118.689 73.0719 118.754 73.3052 118.754C73.6692 118.754 74.0519 118.539 74.4532 118.11L74.4812 117.074L72.9972 117.396ZM76.2032 110.732V110.886L75.2232 112.132L75.0412 112.202C74.7892 112.174 74.4019 112.085 73.8792 111.936C73.8325 111.927 73.6785 111.889 73.4172 111.824C73.1652 111.749 72.9879 111.712 72.8852 111.712C72.7825 111.712 72.6799 111.754 72.5772 111.838C72.4839 111.922 72.3812 112.025 72.2692 112.146C72.1572 112.267 72.0732 112.361 72.0172 112.426H71.8492L71.2892 111.88V111.726L72.2832 110.48L72.4512 110.41C72.6752 110.438 73.0719 110.531 73.6412 110.69C74.1639 110.83 74.4859 110.9 74.6072 110.9C74.7192 110.9 74.8265 110.853 74.9292 110.76C75.0412 110.667 75.1532 110.559 75.2652 110.438C75.3772 110.317 75.4519 110.233 75.4892 110.186H75.6572L76.2032 110.732ZM80.7874 113.364C81.7394 113.364 82.4674 113.644 82.9714 114.204C83.4754 114.764 83.7274 115.571 83.7274 116.626C83.7274 117.765 83.4568 118.637 82.9154 119.244C82.3741 119.841 81.5948 120.14 80.5774 120.14C79.6254 120.14 78.8974 119.86 78.3934 119.3C77.8894 118.74 77.6374 117.933 77.6374 116.878C77.6374 115.739 77.9081 114.871 78.4494 114.274C78.9908 113.667 79.7701 113.364 80.7874 113.364ZM80.6614 114.624C80.2134 114.624 79.8868 114.773 79.6814 115.072C79.4854 115.371 79.3874 115.851 79.3874 116.514C79.3874 117.373 79.4901 117.984 79.6954 118.348C79.9008 118.712 80.2368 118.894 80.7034 118.894C81.1514 118.894 81.4734 118.749 81.6694 118.46C81.8748 118.161 81.9774 117.676 81.9774 117.004C81.9774 116.155 81.8701 115.548 81.6554 115.184C81.4501 114.811 81.1188 114.624 80.6614 114.624ZM90.5106 110.144C90.8932 110.144 91.2992 110.186 91.7286 110.27L91.6026 111.656L91.4766 111.74C91.0379 111.553 90.6552 111.46 90.3286 111.46C89.7499 111.46 89.4559 111.791 89.4466 112.454L89.4326 113.546H91.0146L91.0706 113.644L90.9866 114.666H89.4046L89.3626 117.13L89.4606 120H87.5986L87.7106 117.298L87.6826 114.666H86.7026L86.6326 114.568L86.7306 113.546H87.6686L87.6546 112.776C87.6546 111.936 87.9019 111.287 88.3966 110.83C88.9006 110.373 89.6052 110.144 90.5106 110.144ZM94.2953 113.364C95.2473 113.364 95.9753 113.644 96.4793 114.204C96.9833 114.764 97.2353 115.571 97.2353 116.626C97.2353 117.765 96.9646 118.637 96.4233 119.244C95.8819 119.841 95.1026 120.14 94.0853 120.14C93.1333 120.14 92.4053 119.86 91.9013 119.3C91.3973 118.74 91.1453 117.933 91.1453 116.878C91.1453 115.739 91.4159 114.871 91.9573 114.274C92.4986 113.667 93.2779 113.364 94.2953 113.364ZM94.1693 114.624C93.7213 114.624 93.3946 114.773 93.1893 115.072C92.9933 115.371 92.8953 115.851 92.8953 116.514C92.8953 117.373 92.9979 117.984 93.2033 118.348C93.4086 118.712 93.7446 118.894 94.2113 118.894C94.6593 118.894 94.9813 118.749 95.1773 118.46C95.3826 118.161 95.4853 117.676 95.4853 117.004C95.4853 116.155 95.3779 115.548 95.1633 115.184C94.9579 114.811 94.6266 114.624 94.1693 114.624ZM102.433 115.94C102.443 115.613 102.368 115.361 102.209 115.184C102.06 114.997 101.841 114.904 101.551 114.904C101.131 114.904 100.683 115.105 100.207 115.506V117.13L100.291 120H98.4292L98.5272 117.312L98.4572 113.616L100.221 113.462V114.414H100.319C100.833 113.947 101.393 113.611 101.999 113.406C102.709 113.406 103.25 113.569 103.623 113.896C103.997 114.213 104.174 114.675 104.155 115.282L104.113 117.144L104.197 120H102.321L102.433 115.94ZM108.471 118.628C108.77 118.628 109.083 118.549 109.409 118.39L109.563 118.53L109.381 119.636C108.905 119.879 108.42 120.028 107.925 120.084C106.665 119.953 106.035 119.337 106.035 118.236L106.105 117.074L106.091 114.666H105.223L105.153 114.568L105.251 113.546H106.077V112.468L107.771 111.922L107.897 112.034L107.855 113.546H109.521L109.577 113.644L109.493 114.666H107.827L107.743 117.802C107.743 118.101 107.799 118.315 107.911 118.446C108.023 118.567 108.21 118.628 108.471 118.628ZM115.514 116.976L111.734 117.004C111.818 118.171 112.411 118.754 113.512 118.754C114.091 118.754 114.735 118.591 115.444 118.264L115.598 118.362L115.318 119.748C114.609 120.009 113.941 120.14 113.316 120.14C112.289 120.14 111.482 119.841 110.894 119.244C110.315 118.647 110.026 117.821 110.026 116.766C110.026 115.721 110.311 114.895 110.88 114.288C111.449 113.672 112.219 113.364 113.19 113.364C114.021 113.364 114.66 113.593 115.108 114.05C115.565 114.498 115.794 115.128 115.794 115.94C115.794 116.155 115.771 116.425 115.724 116.752L115.514 116.976ZM114.17 115.73C114.17 115.357 114.086 115.077 113.918 114.89C113.75 114.694 113.503 114.596 113.176 114.596C112.812 114.596 112.509 114.717 112.266 114.96C112.023 115.193 111.86 115.534 111.776 115.982L114.142 115.926L114.17 115.73ZM119.262 113.378C119.896 113.378 120.494 113.485 121.054 113.7L120.802 115.072L120.578 115.142C120.307 114.965 120.036 114.829 119.766 114.736C119.495 114.643 119.257 114.596 119.052 114.596C118.828 114.596 118.65 114.657 118.52 114.778C118.389 114.89 118.324 115.03 118.324 115.198C118.324 115.394 118.408 115.553 118.576 115.674C118.753 115.795 119.028 115.931 119.402 116.08C119.775 116.229 120.083 116.374 120.326 116.514C120.568 116.654 120.774 116.85 120.942 117.102C121.119 117.345 121.208 117.648 121.208 118.012C121.208 118.385 121.11 118.735 120.914 119.062C120.727 119.379 120.438 119.641 120.046 119.846C119.654 120.042 119.173 120.14 118.604 120.14C117.932 120.14 117.236 120 116.518 119.72L116.728 118.264L116.91 118.152C117.199 118.395 117.521 118.591 117.876 118.74C118.23 118.88 118.543 118.95 118.814 118.95C119.066 118.95 119.262 118.889 119.402 118.768C119.542 118.637 119.612 118.483 119.612 118.306C119.612 118.11 119.523 117.951 119.346 117.83C119.178 117.709 118.907 117.573 118.534 117.424C118.151 117.256 117.838 117.107 117.596 116.976C117.353 116.836 117.143 116.64 116.966 116.388C116.798 116.136 116.714 115.823 116.714 115.45C116.714 114.843 116.942 114.349 117.4 113.966C117.857 113.574 118.478 113.378 119.262 113.378ZM130.002 117.13L130.044 118.306C130.044 118.465 130.062 118.577 130.1 118.642C130.146 118.698 130.226 118.726 130.338 118.726C130.44 118.726 130.566 118.707 130.716 118.67L130.842 118.782L130.688 119.762C130.37 119.958 130.025 120.075 129.652 120.112C129.362 120.084 129.12 119.986 128.924 119.818C128.728 119.65 128.592 119.421 128.518 119.132H128.406C127.948 119.552 127.482 119.874 127.006 120.098C126.091 120.098 125.382 119.809 124.878 119.23C124.374 118.642 124.122 117.83 124.122 116.794C124.122 115.693 124.411 114.848 124.99 114.26C125.568 113.672 126.371 113.378 127.398 113.378C127.668 113.378 127.967 113.406 128.294 113.462L128.266 110.312L130.114 110.172L130.002 117.13ZM127.272 114.638C126.338 114.638 125.872 115.231 125.872 116.416C125.872 117.153 125.984 117.709 126.208 118.082C126.432 118.455 126.758 118.642 127.188 118.642C127.598 118.642 127.976 118.451 128.322 118.068L128.35 117.298L128.308 114.89C127.944 114.722 127.598 114.638 127.272 114.638ZM136.979 116.976L133.199 117.004C133.283 118.171 133.876 118.754 134.977 118.754C135.556 118.754 136.2 118.591 136.909 118.264L137.063 118.362L136.783 119.748C136.074 120.009 135.406 120.14 134.781 120.14C133.754 120.14 132.947 119.841 132.359 119.244C131.78 118.647 131.491 117.821 131.491 116.766C131.491 115.721 131.776 114.895 132.345 114.288C132.914 113.672 133.684 113.364 134.655 113.364C135.486 113.364 136.125 113.593 136.573 114.05C137.03 114.498 137.259 115.128 137.259 115.94C137.259 116.155 137.236 116.425 137.189 116.752L136.979 116.976ZM135.635 115.73C135.635 115.357 135.551 115.077 135.383 114.89C135.215 114.694 134.968 114.596 134.641 114.596C134.277 114.596 133.974 114.717 133.731 114.96C133.488 115.193 133.325 115.534 133.241 115.982L135.607 115.926L135.635 115.73ZM35.3498 126.13C35.8911 126.13 36.5165 126.214 37.2258 126.382L37.0158 127.824L36.8338 127.922C36.1431 127.605 35.5785 127.446 35.1398 127.446C34.7665 127.446 34.4911 127.539 34.3138 127.726C34.1458 127.913 34.0571 128.211 34.0478 128.622L34.0338 129.546H37.3378L38.3598 129.406L38.4718 129.476L38.3598 133.13L38.4578 136H36.6098L36.7078 133.312L36.6518 130.666H34.0198L33.9778 133.13L34.0758 136H32.2138L32.3258 133.298L32.2978 130.666H31.3178L31.2478 130.568L31.3458 129.546H32.2698V129.014C32.2698 128.025 32.5171 127.297 33.0118 126.83C33.5158 126.363 34.2951 126.13 35.3498 126.13ZM43.6463 129.406C44.4677 129.406 45.093 129.686 45.5223 130.246C45.961 130.797 46.1803 131.567 46.1803 132.556C46.1803 133.704 45.8957 134.591 45.3263 135.216C44.757 135.832 43.9683 136.14 42.9603 136.14C42.4843 136.14 41.9617 136.033 41.3923 135.818L40.4123 136.168L40.1883 135.986L40.2863 133.326L40.2023 126.312L42.0503 126.172L41.9943 130.414H42.0783C42.3397 130.162 42.5917 129.961 42.8343 129.812C43.077 129.653 43.3477 129.518 43.6463 129.406ZM42.9603 134.922C43.427 134.922 43.791 134.754 44.0523 134.418C44.3137 134.082 44.4443 133.569 44.4443 132.878C44.4443 132.234 44.337 131.744 44.1223 131.408C43.917 131.072 43.6043 130.904 43.1843 130.904C42.8017 130.904 42.4003 131.1 41.9803 131.492L41.9523 133.088L41.9803 134.67C42.3257 134.838 42.6523 134.922 42.9603 134.922ZM50.9764 129.476C51.0604 129.476 51.1771 129.485 51.3264 129.504V131.226L51.1304 131.296C50.9717 131.231 50.7991 131.198 50.6124 131.198C50.0711 131.198 49.5811 131.548 49.1424 132.248V133.13L49.2404 136H47.3784L47.4904 133.312L47.4064 129.616L49.1704 129.462L49.1564 130.736H49.2684C49.7257 129.896 50.2951 129.476 50.9764 129.476ZM54.6709 129.364C55.3895 129.364 55.9495 129.527 56.3509 129.854C56.7615 130.171 56.9669 130.619 56.9669 131.198C56.9669 131.366 56.9389 131.898 56.8829 132.794C56.8735 133.055 56.8595 133.326 56.8409 133.606C56.8222 133.877 56.8129 134.11 56.8129 134.306C56.8129 134.465 56.8362 134.577 56.8829 134.642C56.9295 134.698 57.0135 134.726 57.1349 134.726C57.2282 134.726 57.3495 134.707 57.4989 134.67L57.6389 134.782L57.4709 135.762C57.1722 135.958 56.8315 136.075 56.4489 136.112C56.1689 136.084 55.9355 135.986 55.7489 135.818C55.5622 135.641 55.4362 135.398 55.3709 135.09H55.2729C54.8062 135.585 54.3255 135.93 53.8309 136.126C53.1589 136.117 52.6315 135.939 52.2489 135.594C51.8662 135.249 51.6749 134.777 51.6749 134.18C51.6749 133.713 51.7915 133.349 52.0249 133.088C52.2675 132.817 52.6315 132.635 53.1169 132.542L55.2589 132.136V131.562C55.2589 130.955 54.9602 130.652 54.3629 130.652C54.0735 130.652 53.7655 130.717 53.4389 130.848C53.1215 130.979 52.7622 131.184 52.3609 131.464L52.2209 131.38L52.0109 130.148C52.4122 129.896 52.8415 129.705 53.2989 129.574C53.7562 129.434 54.2135 129.364 54.6709 129.364ZM53.7609 133.396C53.6115 133.433 53.4995 133.499 53.4249 133.592C53.3595 133.676 53.3269 133.807 53.3269 133.984C53.3269 134.227 53.3922 134.418 53.5229 134.558C53.6535 134.689 53.8355 134.754 54.0689 134.754C54.4329 134.754 54.8155 134.539 55.2169 134.11L55.2449 133.074L53.7609 133.396ZM61.0331 129.378C61.6678 129.378 62.2651 129.485 62.8251 129.7L62.5731 131.072L62.3491 131.142C62.0785 130.965 61.8078 130.829 61.5371 130.736C61.2665 130.643 61.0285 130.596 60.8231 130.596C60.5991 130.596 60.4218 130.657 60.2911 130.778C60.1605 130.89 60.0951 131.03 60.0951 131.198C60.0951 131.394 60.1791 131.553 60.3471 131.674C60.5245 131.795 60.7998 131.931 61.1731 132.08C61.5465 132.229 61.8545 132.374 62.0971 132.514C62.3398 132.654 62.5451 132.85 62.7131 133.102C62.8905 133.345 62.9791 133.648 62.9791 134.012C62.9791 134.385 62.8811 134.735 62.6851 135.062C62.4985 135.379 62.2091 135.641 61.8171 135.846C61.4251 136.042 60.9445 136.14 60.3751 136.14C59.7031 136.14 59.0078 136 58.2891 135.72L58.4991 134.264L58.6811 134.152C58.9705 134.395 59.2925 134.591 59.6471 134.74C60.0018 134.88 60.3145 134.95 60.5851 134.95C60.8371 134.95 61.0331 134.889 61.1731 134.768C61.3131 134.637 61.3831 134.483 61.3831 134.306C61.3831 134.11 61.2945 133.951 61.1171 133.83C60.9491 133.709 60.6785 133.573 60.3051 133.424C59.9225 133.256 59.6098 133.107 59.3671 132.976C59.1245 132.836 58.9145 132.64 58.7371 132.388C58.5691 132.136 58.4851 131.823 58.4851 131.45C58.4851 130.843 58.7138 130.349 59.1711 129.966C59.6285 129.574 60.2491 129.378 61.0331 129.378ZM68.9033 129.364C69.622 129.364 70.182 129.527 70.5833 129.854C70.994 130.171 71.1993 130.619 71.1993 131.198C71.1993 131.366 71.1713 131.898 71.1153 132.794C71.106 133.055 71.092 133.326 71.0733 133.606C71.0546 133.877 71.0453 134.11 71.0453 134.306C71.0453 134.465 71.0686 134.577 71.1153 134.642C71.162 134.698 71.246 134.726 71.3673 134.726C71.4606 134.726 71.582 134.707 71.7313 134.67L71.8713 134.782L71.7033 135.762C71.4046 135.958 71.064 136.075 70.6813 136.112C70.4013 136.084 70.168 135.986 69.9813 135.818C69.7946 135.641 69.6686 135.398 69.6033 135.09H69.5053C69.0386 135.585 68.558 135.93 68.0633 136.126C67.3913 136.117 66.864 135.939 66.4813 135.594C66.0986 135.249 65.9073 134.777 65.9073 134.18C65.9073 133.713 66.024 133.349 66.2573 133.088C66.5 132.817 66.864 132.635 67.3493 132.542L69.4913 132.136V131.562C69.4913 130.955 69.1926 130.652 68.5953 130.652C68.306 130.652 67.998 130.717 67.6713 130.848C67.354 130.979 66.9946 131.184 66.5933 131.464L66.4533 131.38L66.2433 130.148C66.6446 129.896 67.074 129.705 67.5313 129.574C67.9886 129.434 68.446 129.364 68.9033 129.364ZM67.9933 133.396C67.844 133.433 67.732 133.499 67.6573 133.592C67.592 133.676 67.5593 133.807 67.5593 133.984C67.5593 134.227 67.6246 134.418 67.7553 134.558C67.886 134.689 68.068 134.754 68.3013 134.754C68.6653 134.754 69.048 134.539 69.4493 134.11L69.4773 133.074L67.9933 133.396ZM74.9015 133.13L74.9995 136H73.1375L73.2355 133.298L73.1515 126.312L75.0135 126.172L74.9015 133.13ZM76.8853 133.312L76.8153 129.616L78.6493 129.462L78.5653 133.13L78.6493 136H76.7873L76.8853 133.312ZM77.7673 126.298C78.0566 126.298 78.2806 126.382 78.4393 126.55C78.6073 126.718 78.6913 126.951 78.6913 127.25C78.6913 127.567 78.6026 127.819 78.4253 128.006C78.2479 128.193 78.0053 128.286 77.6973 128.286C77.3893 128.286 77.1513 128.202 76.9833 128.034C76.8246 127.866 76.7453 127.628 76.7453 127.32C76.7453 127.012 76.8339 126.765 77.0113 126.578C77.1979 126.391 77.4499 126.298 77.7673 126.298ZM88.2077 136L88.3197 131.94C88.3197 131.249 88.0257 130.904 87.4377 130.904C87.0177 130.904 86.579 131.091 86.1217 131.464L86.0797 133.144L86.1637 136H84.3017L84.4137 131.94C84.423 131.604 84.3483 131.347 84.1897 131.17C84.0403 130.993 83.821 130.904 83.5317 130.904C83.121 130.904 82.6683 131.1 82.1737 131.492V133.13L82.2577 136H80.4097L80.5077 133.312L80.4377 129.616L82.1877 129.462V130.414H82.2857C82.799 129.947 83.3637 129.611 83.9797 129.406C85.025 129.406 85.6923 129.756 85.9817 130.456H86.0657C86.5977 129.961 87.2043 129.611 87.8857 129.406C88.595 129.406 89.1317 129.569 89.4957 129.896C89.869 130.213 90.0463 130.675 90.0277 131.282L89.9857 133.144L90.0697 136H88.2077ZM96.7426 132.976L92.9626 133.004C93.0466 134.171 93.6393 134.754 94.7406 134.754C95.3193 134.754 95.9633 134.591 96.6726 134.264L96.8266 134.362L96.5466 135.748C95.8373 136.009 95.17 136.14 94.5446 136.14C93.518 136.14 92.7106 135.841 92.1226 135.244C91.544 134.647 91.2546 133.821 91.2546 132.766C91.2546 131.721 91.5393 130.895 92.1086 130.288C92.678 129.672 93.448 129.364 94.4186 129.364C95.2493 129.364 95.8886 129.593 96.3366 130.05C96.794 130.498 97.0226 131.128 97.0226 131.94C97.0226 132.155 96.9993 132.425 96.9526 132.752L96.7426 132.976ZM95.3986 131.73C95.3986 131.357 95.3146 131.077 95.1466 130.89C94.9786 130.694 94.7313 130.596 94.4046 130.596C94.0406 130.596 93.7373 130.717 93.4946 130.96C93.252 131.193 93.0886 131.534 93.0046 131.982L95.3706 131.926L95.3986 131.73ZM102.31 131.94C102.319 131.613 102.245 131.361 102.086 131.184C101.937 130.997 101.717 130.904 101.428 130.904C101.008 130.904 100.56 131.105 100.084 131.506V133.13L100.168 136H98.3061L98.4041 133.312L98.3341 129.616L100.098 129.462V130.414H100.196C100.709 129.947 101.269 129.611 101.876 129.406C102.585 129.406 103.127 129.569 103.5 129.896C103.873 130.213 104.051 130.675 104.032 131.282L103.99 133.144L104.074 136H102.198L102.31 131.94ZM108.348 134.628C108.647 134.628 108.96 134.549 109.286 134.39L109.44 134.53L109.258 135.636C108.782 135.879 108.297 136.028 107.802 136.084C106.542 135.953 105.912 135.337 105.912 134.236L105.982 133.074L105.968 130.666H105.1L105.03 130.568L105.128 129.546H105.954V128.468L107.648 127.922L107.774 128.034L107.732 129.546H109.398L109.454 129.644L109.37 130.666H107.704L107.62 133.802C107.62 134.101 107.676 134.315 107.788 134.446C107.9 134.567 108.087 134.628 108.348 134.628ZM113.009 129.364C113.727 129.364 114.287 129.527 114.689 129.854C115.099 130.171 115.305 130.619 115.305 131.198C115.305 131.366 115.277 131.898 115.221 132.794C115.211 133.055 115.197 133.326 115.179 133.606C115.16 133.877 115.151 134.11 115.151 134.306C115.151 134.465 115.174 134.577 115.221 134.642C115.267 134.698 115.351 134.726 115.473 134.726C115.566 134.726 115.687 134.707 115.837 134.67L115.977 134.782L115.809 135.762C115.51 135.958 115.169 136.075 114.787 136.112C114.507 136.084 114.273 135.986 114.087 135.818C113.9 135.641 113.774 135.398 113.709 135.09H113.611C113.144 135.585 112.663 135.93 112.169 136.126C111.497 136.117 110.969 135.939 110.587 135.594C110.204 135.249 110.013 134.777 110.013 134.18C110.013 133.713 110.129 133.349 110.363 133.088C110.605 132.817 110.969 132.635 111.455 132.542L113.597 132.136V131.562C113.597 130.955 113.298 130.652 112.701 130.652C112.411 130.652 112.103 130.717 111.777 130.848C111.459 130.979 111.1 131.184 110.699 131.464L110.559 131.38L110.349 130.148C110.75 129.896 111.179 129.705 111.637 129.574C112.094 129.434 112.551 129.364 113.009 129.364ZM112.099 133.396C111.949 133.433 111.837 133.499 111.763 133.592C111.697 133.676 111.665 133.807 111.665 133.984C111.665 134.227 111.73 134.418 111.861 134.558C111.991 134.689 112.173 134.754 112.407 134.754C112.771 134.754 113.153 134.539 113.555 134.11L113.583 133.074L112.099 133.396ZM120.703 129.476C120.787 129.476 120.904 129.485 121.053 129.504V131.226L120.857 131.296C120.698 131.231 120.526 131.198 120.339 131.198C119.798 131.198 119.308 131.548 118.869 132.248V133.13L118.967 136H117.105L117.217 133.312L117.133 129.616L118.897 129.462L118.883 130.736H118.995C119.452 129.896 120.022 129.476 120.703 129.476ZM127.012 132.976L123.232 133.004C123.316 134.171 123.909 134.754 125.01 134.754C125.589 134.754 126.233 134.591 126.942 134.264L127.096 134.362L126.816 135.748C126.107 136.009 125.439 136.14 124.814 136.14C123.787 136.14 122.98 135.841 122.392 135.244C121.813 134.647 121.524 133.821 121.524 132.766C121.524 131.721 121.809 130.895 122.378 130.288C122.947 129.672 123.717 129.364 124.688 129.364C125.519 129.364 126.158 129.593 126.606 130.05C127.063 130.498 127.292 131.128 127.292 131.94C127.292 132.155 127.269 132.425 127.222 132.752L127.012 132.976ZM125.668 131.73C125.668 131.357 125.584 131.077 125.416 130.89C125.248 130.694 125.001 130.596 124.674 130.596C124.31 130.596 124.007 130.717 123.764 130.96C123.521 131.193 123.358 131.534 123.274 131.982L125.64 131.926L125.668 131.73ZM130.76 129.378C131.394 129.378 131.992 129.485 132.552 129.7L132.3 131.072L132.076 131.142C131.805 130.965 131.534 130.829 131.264 130.736C130.993 130.643 130.755 130.596 130.55 130.596C130.326 130.596 130.148 130.657 130.018 130.778C129.887 130.89 129.822 131.03 129.822 131.198C129.822 131.394 129.906 131.553 130.074 131.674C130.251 131.795 130.526 131.931 130.9 132.08C131.273 132.229 131.581 132.374 131.824 132.514C132.066 132.654 132.272 132.85 132.44 133.102C132.617 133.345 132.706 133.648 132.706 134.012C132.706 134.385 132.608 134.735 132.412 135.062C132.225 135.379 131.936 135.641 131.544 135.846C131.152 136.042 130.671 136.14 130.102 136.14C129.43 136.14 128.734 136 128.016 135.72L128.226 134.264L128.408 134.152C128.697 134.395 129.019 134.591 129.374 134.74C129.728 134.88 130.041 134.95 130.312 134.95C130.564 134.95 130.76 134.889 130.9 134.768C131.04 134.637 131.11 134.483 131.11 134.306C131.11 134.11 131.021 133.951 130.844 133.83C130.676 133.709 130.405 133.573 130.032 133.424C129.649 133.256 129.336 133.107 129.094 132.976C128.851 132.836 128.641 132.64 128.464 132.388C128.296 132.136 128.212 131.823 128.212 131.45C128.212 130.843 128.44 130.349 128.898 129.966C129.355 129.574 129.976 129.378 130.76 129.378ZM134.555 134.11C134.844 134.11 135.068 134.194 135.227 134.362C135.395 134.53 135.479 134.763 135.479 135.062C135.479 135.379 135.39 135.631 135.213 135.818C135.036 136.005 134.793 136.098 134.485 136.098C134.177 136.098 133.939 136.014 133.771 135.846C133.612 135.678 133.533 135.44 133.533 135.132C133.533 134.824 133.622 134.577 133.799 134.39C133.986 134.203 134.238 134.11 134.555 134.11Z" fill="white"/>
<defs>
<filter id="filter0_b_152:18450" x="3" y="67" width="161" height="97" filterUnits="userSpaceOnUse" color-interpolation-filters="sRGB">
<feFlood flood-opacity="0" result="BackgroundImageFix"/>
<feGaussianBlur in="BackgroundImage" stdDeviation="5"/>
<feComposite in2="SourceAlpha" operator="in" result="effect1_backgroundBlur_152:18450"/>
<feBlend mode="normal" in="SourceGraphic" in2="effect1_backgroundBlur_152:18450" result="shape"/>
</filter>
<clipPath id="clip0_152:18450">
<rect width="25.4267" height="25.4267" fill="white" transform="translate(45.4259 4) rotate(26.703)"/>
</clipPath>
<clipPath id="clip1_152:18450">
<rect width="36" height="41.25" fill="white" transform="translate(124 24)"/>
</clipPath>
<clipPath id="clip2_152:18450">
<rect width="36" height="41.25" fill="white" transform="translate(97 57.605) rotate(-27.4678)"/>
</clipPath>
<clipPath id="clip3_152:18450">
<rect width="36" height="41.25" fill="white" transform="translate(3.25156 41.0405) rotate(-31.4608)"/>
</clipPath>
<clipPath id="clip4_152:18450">
<rect width="36" height="41.25" fill="white" transform="translate(65 62.7733) rotate(-75)"/>
</clipPath>
</defs>
</svg>
