<svg width="167" height="167" viewBox="0 0 167 167" fill="none" xmlns="http://www.w3.org/2000/svg">
<mask id="mask0_152:18357" style="mask-type:alpha" maskUnits="userSpaceOnUse" x="0" y="0" width="167" height="167">
<rect x="1" y="1" width="165" height="165" rx="8" fill="#5988D6" stroke="#EDE6FC" stroke-opacity="0.3"/>
</mask>
<g mask="url(#mask0_152:18357)">
<rect x="1" y="1" width="165" height="165" rx="8" fill="#7A84D9" stroke="#EDE6FC" stroke-opacity="0.3"/>
<mask id="mask1_152:18357" style="mask-type:alpha" maskUnits="userSpaceOnUse" x="54" y="33" width="47" height="48">
<circle cx="77.3" cy="57.036" r="23.1652" fill="#C4C4C4"/>
</mask>
<g mask="url(#mask1_152:18357)">
<path d="M81.0858 65.293C74.5055 71.8733 66.703 71.9654 63.977 69.2412C61.251 66.5152 61.3449 58.7127 67.9252 52.1324L100.827 19.2309C107.407 12.6524 115.206 12.5585 117.934 15.2828C120.658 18.0087 120.568 25.8112 113.986 32.3915L81.0858 65.293Z" fill="#EDB980"/>
<path d="M101.296 24.9663C104.022 27.6923 106.091 30.0376 107.546 28.5859C107.81 28.3216 107.965 27.9791 108.069 27.6036C108.038 27.5289 108.007 27.4524 107.998 27.3672C107.776 25.3714 103.808 21.0372 100.905 19.1596L100.827 19.2327L98.2641 21.7952C99.0255 22.7323 100.114 23.7841 101.296 24.9663ZM93.398 32.8626C96.124 35.5886 98.1963 37.9339 99.6514 36.4822C99.9157 36.218 100.07 35.8738 100.175 35.4965C100.143 35.4217 100.112 35.347 100.103 35.2618C99.8826 33.266 95.9119 28.9284 93.005 27.0525L90.3677 29.6898C91.1274 30.6287 92.2158 31.6805 93.398 32.8626ZM85.5051 40.759C88.2293 43.485 90.3016 45.832 91.7551 44.3769C92.0193 44.1126 92.174 43.7701 92.2783 43.3946C92.2471 43.3198 92.2158 43.2434 92.2053 43.1582C91.9828 41.1623 88.012 36.8265 85.107 34.9506L82.4696 37.5879C83.2328 38.525 84.3211 39.5768 85.5051 40.759ZM77.6087 48.6554C80.333 51.3796 82.4053 53.7301 83.8604 52.275C84.1247 52.0107 84.2794 51.6665 84.3837 51.291C84.3524 51.2162 84.3211 51.1397 84.3107 51.0545C84.0899 49.0587 80.1191 44.7211 77.2141 42.8452L74.5767 45.4826C75.3365 46.4214 76.4248 47.4732 77.6087 48.6554ZM69.7124 56.55C72.4366 59.276 74.5089 61.6247 75.9641 60.1696C76.2283 59.9053 76.3831 59.5611 76.4874 59.1856C76.4561 59.1108 76.4248 59.0361 76.4144 58.9509C76.1918 56.9551 72.221 52.6174 69.316 50.7416L67.9234 52.1341C67.4957 52.5618 67.0976 52.9964 66.7221 53.4328C67.4818 54.3577 68.5528 55.3904 69.7124 56.55Z" fill="#E5A157"/>
<path d="M102.229 17.9479C102.01 18.1322 101.127 18.9371 100.905 19.1579C103.808 21.0355 107.775 25.3714 107.998 27.3654C108.006 27.4506 108.038 27.5271 108.071 27.6019C108.205 27.9183 108.509 28.1391 108.862 28.1391L108.961 28.1339C109.437 28.08 109.782 27.6506 109.728 27.1725C109.443 24.6481 105.586 20.2184 102.229 17.9479ZM94.2617 25.7956L93.0031 27.0542C95.9081 28.9301 99.8806 33.2677 100.101 35.2635C100.11 35.3487 100.141 35.4235 100.173 35.4982C100.305 35.8164 100.611 36.0372 100.964 36.0372L101.063 36.032C101.539 35.9781 101.883 35.5486 101.83 35.0723C101.548 32.5271 97.638 28.0487 94.2617 25.7956ZM86.3671 33.6902L85.1084 34.9489C88.0135 36.8247 91.9843 41.1623 92.2068 43.1564C92.2155 43.2416 92.2468 43.3181 92.2798 43.3928C92.4137 43.7093 92.7179 43.9301 93.0691 43.9301L93.1682 43.9248C93.6446 43.8709 93.9888 43.4415 93.9349 42.9652C93.6515 40.4217 89.7416 35.945 86.3671 33.6902ZM78.4708 41.5848L77.2121 42.8435C80.1172 44.7193 84.0879 49.0569 84.3087 51.0528C84.3174 51.138 84.3487 51.2145 84.3817 51.2892C84.5156 51.6074 84.8199 51.8264 85.1728 51.8264L85.2701 51.8212C85.7465 51.769 86.0907 51.3396 86.0386 50.8615C85.7552 48.3181 81.847 43.8396 78.4708 41.5848ZM70.5744 49.4829L69.3157 50.7416C72.2208 52.6174 76.1916 56.955 76.4141 58.9509C76.4228 59.036 76.4541 59.1108 76.4871 59.1856C76.621 59.502 76.9252 59.7228 77.2782 59.7228C77.3112 59.7228 77.3425 59.721 77.3755 59.7175C77.8519 59.6654 78.1961 59.2342 78.1439 58.7561C77.8588 56.2144 73.9489 51.736 70.5744 49.4829Z" fill="#FFD983"/>
</g>
<mask id="mask2_152:18357" style="mask-type:alpha" maskUnits="userSpaceOnUse" x="99" y="9" width="47" height="47">
<circle cx="122.356" cy="32.1897" r="23.1652" transform="rotate(30 122.356 32.1897)" fill="#C4C4C4"/>
</mask>
<g mask="url(#mask2_152:18357)">
<g clip-path="url(#clip0_152:18357)">
<path d="M84.3498 53.5693C75.3609 55.9779 68.5577 52.1565 67.5591 48.4342C66.5613 44.7104 70.5438 38.0002 79.5327 35.5916L124.477 23.5489C133.465 21.1418 140.266 24.96 141.266 28.6831C142.262 32.4061 138.283 39.118 129.293 41.5257L84.3498 53.5693Z" fill="#EDB980"/>
<path d="M122.016 28.7505C123.014 32.4743 123.633 35.5398 125.619 35.0101C125.98 34.9134 126.285 34.6942 126.563 34.4211C126.573 34.3407 126.584 34.2588 126.619 34.1807C127.425 32.341 126.156 26.6039 124.58 23.5262L124.476 23.5503L120.975 24.4883C121.166 25.6805 121.583 27.1356 122.016 28.7505ZM111.228 31.6399C112.225 35.3637 112.847 38.4309 114.833 37.9013C115.194 37.8046 115.501 37.5838 115.78 37.3093C115.79 37.2289 115.8 37.1485 115.835 37.0704C116.642 35.2315 115.372 29.4897 113.792 26.4117L110.19 27.377C110.378 28.5699 110.795 30.025 111.228 31.6399ZM100.444 34.5319C101.44 38.2548 102.061 41.3235 104.048 40.79C104.409 40.6933 104.714 40.4741 104.992 40.201C105.002 40.1206 105.013 40.0387 105.047 39.9598C105.852 38.1201 104.581 32.3797 103.003 29.3026L99.4007 30.268C99.5932 31.4611 100.01 32.9161 100.444 34.5319ZM89.6574 37.4222C90.6545 41.1436 91.2739 44.2153 93.2617 43.6827C93.6227 43.586 93.9288 43.3652 94.2069 43.0922C94.2172 43.0118 94.2283 42.9299 94.2619 42.8509C95.0686 41.0121 93.7986 35.2702 92.2207 32.1931L88.618 33.1585C88.8065 34.3513 89.2231 35.8064 89.6574 37.4222ZM78.8716 40.3109C79.8679 44.0338 80.4882 47.1041 82.476 46.5714C82.8369 46.4747 83.143 46.254 83.4211 45.9809C83.4314 45.9005 83.4417 45.8201 83.4753 45.7412C84.2805 43.9015 83.0105 38.1596 81.4325 35.0825L79.5303 35.5922C78.946 35.7488 78.3839 35.9261 77.8406 36.1163C78.0361 37.2971 78.4472 38.7269 78.8716 40.3109Z" fill="#E5A157"/>
<path d="M126.333 23.1391C126.051 23.1891 124.884 23.4447 124.581 23.5246C126.157 26.6023 127.424 32.3409 126.62 34.1791C126.585 34.2572 126.574 34.3391 126.565 34.4204C126.523 34.7613 126.676 35.1047 126.981 35.2811L127.07 35.3262C127.509 35.5177 128.022 35.3179 128.215 34.8769C129.23 32.5482 128.105 26.7839 126.333 23.1391ZM115.509 25.9515L113.79 26.4123C115.368 29.4893 116.639 35.2321 115.833 37.0709C115.797 37.149 115.787 37.2294 115.777 37.3098C115.732 37.6514 115.887 37.9956 116.192 38.172L116.281 38.2171C116.72 38.4086 117.233 38.2088 117.425 37.7693C118.453 35.4243 117.307 29.5909 115.509 25.9515ZM104.725 28.8412L103.006 29.3019C104.583 32.379 105.853 38.1208 105.049 39.959C105.014 40.0371 105.003 40.119 104.994 40.2003C104.952 40.5412 105.105 40.8846 105.409 41.0602L105.498 41.1052C105.937 41.2967 106.45 41.0969 106.641 40.6575C107.668 38.3131 106.52 32.4812 104.725 28.8412ZM93.9392 31.7299L92.2198 32.1907C93.7977 35.2677 95.0677 41.0096 94.261 42.8484C94.226 42.9265 94.2148 43.0084 94.206 43.0897C94.1629 43.4322 94.3169 43.774 94.6225 43.9504L94.7094 43.9946C95.148 44.1876 95.6608 43.9878 95.8547 43.5477C96.881 41.2033 95.7357 35.3708 93.9392 31.7299ZM83.1517 34.6217L81.4323 35.0824C83.0102 38.1595 84.2802 43.9014 83.475 45.7411C83.44 45.8192 83.4297 45.8996 83.4209 45.9808C83.3787 46.3218 83.5317 46.6651 83.8374 46.8416C83.866 46.8581 83.894 46.8722 83.9243 46.8857C84.3629 47.0787 84.8766 46.8775 85.0705 46.4374C86.0944 44.0936 84.9475 38.2602 83.1517 34.6217Z" fill="#FFD983"/>
</g>
</g>
<g clip-path="url(#clip1_152:18357)">
<path d="M35.1068 53.5697C30.9814 56.9344 27.0203 60.6554 22.6213 64.3464C22.4826 64.4523 22.3364 64.5479 22.1996 64.6607C21.9135 64.8945 21.649 65.1447 21.381 65.3909L21.1586 65.5781L21.1667 65.5809C15.3214 71.1697 14.299 79.9284 19.0362 85.7391C24.0384 91.879 33.57 92.3948 40.3212 86.8874C47.0752 81.3817 48.4902 71.9432 43.4856 65.8038C43.3129 65.5898 43.1192 65.3986 42.9335 65.2003C42.7491 60.4978 46.01 59.4792 46.01 59.4792C46.01 59.4792 39.6897 49.8319 35.1068 53.5697ZM36.6984 82.4406C32.3993 85.9452 26.4806 85.7974 23.48 82.1147C20.4755 78.4355 21.5272 72.6085 25.824 69.1045C30.1208 65.6006 36.039 65.7461 39.0389 69.4266C42.0423 73.111 40.9959 78.939 36.6984 82.4406Z" fill="#2F5CA7"/>
<path d="M84.2947 15.4098C82.0753 13.1484 77.2834 11.9177 75.0203 14.14L34.8731 53.7602C36.6867 55.9829 41.9765 59.0719 46.0123 59.4787L84.2947 15.4098Z" fill="#99AAB5"/>
<path d="M3.63617 28.2746C2.43836 35.6731 7.70378 42.7494 15.5603 44.6668L15.5553 44.6755L15.8445 44.7282C16.1974 44.808 16.5521 44.8947 16.9162 44.9518C17.0904 44.9788 17.2626 44.9892 17.4379 45.011C23.093 46.0079 28.3846 47.2521 33.6391 48.1011C39.4763 49.0443 40.1284 37.5288 40.1284 37.5288C40.1284 37.5288 36.795 38.2771 34.6041 34.1147C34.6652 33.8478 34.7356 33.5883 34.7799 33.3136C36.0449 25.4968 30.1009 18.0326 21.4976 16.637C12.8979 15.2453 4.90117 20.4578 3.63617 28.2746ZM20.5836 22.2993C26.0574 23.1877 29.8764 27.7071 29.1175 32.3996C28.3598 37.0869 23.3073 40.1721 17.8335 39.2837C12.3616 38.4021 8.53968 33.8811 9.29914 29.1909C10.0563 24.5013 15.1088 21.4161 20.5836 22.2993Z" fill="#1D4B96"/>
<path d="M95.3187 56.552C94.5273 59.6201 90.9928 63.0819 87.9217 62.2889L33.3431 48.0504C33.8024 45.2186 36.8391 39.8986 40.1308 37.5284L95.3187 56.552Z" fill="#CCD6DD"/>
<path d="M48.8145 43.1287C50.7918 42.5989 52.8238 43.7759 53.3524 45.7487C53.8823 47.7261 52.7098 49.7568 50.7324 50.2867C48.7551 50.8165 46.7243 49.644 46.1945 47.6667C45.6653 45.6916 46.8371 43.6585 48.8145 43.1287Z" fill="#99AAB5"/>
</g>
</g>
<g filter="url(#filter0_b_152:18357)">
<rect x="13" y="77" width="141" height="77" rx="10" fill="black" fill-opacity="0.8"/>
</g>
<path d="M41.4804 85.872C42.3577 85.872 43.1464 86.054 43.8464 86.418L43.5104 88L43.3564 88.07C43.0764 87.874 42.7684 87.72 42.4324 87.608C42.0964 87.496 41.751 87.44 41.3964 87.44C39.9124 87.44 39.1704 88.4153 39.1704 90.366C39.1704 91.4207 39.3617 92.214 39.7444 92.746C40.1364 93.2687 40.7057 93.53 41.4524 93.53C41.7977 93.53 42.1524 93.4787 42.5164 93.376C42.8897 93.264 43.2257 93.1147 43.5244 92.928L43.6924 93.026L43.5384 94.636C42.829 94.9627 42.0824 95.126 41.2984 95.126C39.9544 95.126 38.9277 94.734 38.2184 93.95C37.5184 93.166 37.1684 92.0413 37.1684 90.576C37.1684 89.0827 37.5417 87.9253 38.2884 87.104C39.0444 86.2827 40.1084 85.872 41.4804 85.872ZM47.4248 88.364C48.1435 88.364 48.7035 88.5273 49.1048 88.854C49.5155 89.1713 49.7208 89.6193 49.7208 90.198C49.7208 90.366 49.6928 90.898 49.6368 91.794C49.6275 92.0553 49.6135 92.326 49.5948 92.606C49.5761 92.8767 49.5668 93.11 49.5668 93.306C49.5668 93.4647 49.5901 93.5767 49.6368 93.642C49.6835 93.698 49.7675 93.726 49.8888 93.726C49.9821 93.726 50.1035 93.7073 50.2528 93.67L50.3928 93.782L50.2248 94.762C49.9261 94.958 49.5855 95.0747 49.2028 95.112C48.9228 95.084 48.6895 94.986 48.5028 94.818C48.3161 94.6407 48.1901 94.398 48.1248 94.09H48.0268C47.5601 94.5847 47.0795 94.93 46.5848 95.126C45.9128 95.1167 45.3855 94.9393 45.0028 94.594C44.6201 94.2487 44.4288 93.7773 44.4288 93.18C44.4288 92.7133 44.5455 92.3493 44.7788 92.088C45.0215 91.8173 45.3855 91.6353 45.8708 91.542L48.0128 91.136V90.562C48.0128 89.9553 47.7141 89.652 47.1168 89.652C46.8275 89.652 46.5195 89.7173 46.1928 89.848C45.8755 89.9787 45.5161 90.184 45.1148 90.464L44.9748 90.38L44.7648 89.148C45.1661 88.896 45.5955 88.7047 46.0528 88.574C46.5101 88.434 46.9675 88.364 47.4248 88.364ZM46.5148 92.396C46.3655 92.4333 46.2535 92.4987 46.1788 92.592C46.1135 92.676 46.0808 92.8067 46.0808 92.984C46.0808 93.2267 46.1461 93.418 46.2768 93.558C46.4075 93.6887 46.5895 93.754 46.8228 93.754C47.1868 93.754 47.5695 93.5393 47.9708 93.11L47.9988 92.074L46.5148 92.396ZM55.119 88.476C55.203 88.476 55.3197 88.4853 55.469 88.504V90.226L55.273 90.296C55.1143 90.2307 54.9417 90.198 54.755 90.198C54.2137 90.198 53.7237 90.548 53.285 91.248V92.13L53.383 95H51.521L51.633 92.312L51.549 88.616L53.313 88.462L53.299 89.736H53.411C53.8683 88.896 54.4377 88.476 55.119 88.476ZM59.7791 88.406C60.6005 88.406 61.2258 88.686 61.6551 89.246C62.0938 89.7967 62.3131 90.5667 62.3131 91.556C62.3131 92.704 62.0285 93.5907 61.4591 94.216C60.8898 94.832 60.1011 95.14 59.0931 95.14C58.6171 95.14 58.0945 95.0327 57.5251 94.818L56.5451 95.168L56.3211 94.986L56.4191 92.326L56.3351 85.312L58.1831 85.172L58.1271 89.414H58.2111C58.4725 89.162 58.7245 88.9613 58.9671 88.812C59.2098 88.6533 59.4805 88.518 59.7791 88.406ZM59.0931 93.922C59.5598 93.922 59.9238 93.754 60.1851 93.418C60.4465 93.082 60.5771 92.5687 60.5771 91.878C60.5771 91.234 60.4698 90.744 60.2551 90.408C60.0498 90.072 59.7371 89.904 59.3171 89.904C58.9345 89.904 58.5331 90.1 58.1131 90.492L58.0851 92.088L58.1131 93.67C58.4585 93.838 58.7851 93.922 59.0931 93.922ZM66.2953 88.364C67.2473 88.364 67.9753 88.644 68.4793 89.204C68.9833 89.764 69.2353 90.5713 69.2353 91.626C69.2353 92.7647 68.9646 93.6373 68.4233 94.244C67.8819 94.8413 67.1026 95.14 66.0853 95.14C65.1333 95.14 64.4053 94.86 63.9013 94.3C63.3973 93.74 63.1453 92.9327 63.1453 91.878C63.1453 90.7393 63.4159 89.8713 63.9573 89.274C64.4986 88.6673 65.2779 88.364 66.2953 88.364ZM66.1693 89.624C65.7213 89.624 65.3946 89.7733 65.1893 90.072C64.9933 90.3707 64.8953 90.8513 64.8953 91.514C64.8953 92.3727 64.9979 92.984 65.2033 93.348C65.4086 93.712 65.7446 93.894 66.2113 93.894C66.6593 93.894 66.9813 93.7493 67.1773 93.46C67.3826 93.1613 67.4853 92.676 67.4853 92.004C67.4853 91.1547 67.3779 90.548 67.1633 90.184C66.9579 89.8107 66.6266 89.624 66.1693 89.624ZM70.6372 92.312L70.5672 88.616L72.4012 88.462L72.3172 92.13L72.4012 95H70.5392L70.6372 92.312ZM71.5192 85.298C71.8086 85.298 72.0326 85.382 72.1912 85.55C72.3592 85.718 72.4432 85.9513 72.4432 86.25C72.4432 86.5673 72.3546 86.8193 72.1772 87.006C71.9999 87.1927 71.7572 87.286 71.4492 87.286C71.1412 87.286 70.9032 87.202 70.7352 87.034C70.5766 86.866 70.4972 86.628 70.4972 86.32C70.4972 86.012 70.5859 85.7647 70.7632 85.578C70.9499 85.3913 71.2019 85.298 71.5192 85.298ZM79.5936 92.13L79.6356 93.306C79.6356 93.4647 79.6543 93.5767 79.6916 93.642C79.7383 93.698 79.8176 93.726 79.9296 93.726C80.0323 93.726 80.1583 93.7073 80.3076 93.67L80.4336 93.782L80.2796 94.762C79.9623 94.958 79.617 95.0747 79.2436 95.112C78.9543 95.084 78.7116 94.986 78.5156 94.818C78.3196 94.65 78.1843 94.4213 78.1096 94.132H77.9976C77.5403 94.552 77.0736 94.874 76.5976 95.098C75.683 95.098 74.9736 94.8087 74.4696 94.23C73.9656 93.642 73.7136 92.83 73.7136 91.794C73.7136 90.6927 74.003 89.848 74.5816 89.26C75.1603 88.672 75.963 88.378 76.9896 88.378C77.2603 88.378 77.559 88.406 77.8856 88.462L77.8576 85.312L79.7056 85.172L79.5936 92.13ZM76.8636 89.638C75.9303 89.638 75.4636 90.2307 75.4636 91.416C75.4636 92.1533 75.5756 92.7087 75.7996 93.082C76.0236 93.4553 76.3503 93.642 76.7796 93.642C77.1903 93.642 77.5683 93.4507 77.9136 93.068L77.9416 92.298L77.8996 89.89C77.5356 89.722 77.1903 89.638 76.8636 89.638ZM85.1288 88.476C85.2128 88.476 85.3294 88.4853 85.4788 88.504V90.226L85.2828 90.296C85.1241 90.2307 84.9514 90.198 84.7648 90.198C84.2234 90.198 83.7334 90.548 83.2948 91.248V92.13L83.3928 95H81.5308L81.6428 92.312L81.5588 88.616L83.3228 88.462L83.3088 89.736H83.4208C83.8781 88.896 84.4474 88.476 85.1288 88.476ZM88.8232 88.364C89.5419 88.364 90.1019 88.5273 90.5032 88.854C90.9139 89.1713 91.1192 89.6193 91.1192 90.198C91.1192 90.366 91.0912 90.898 91.0352 91.794C91.0259 92.0553 91.0119 92.326 90.9932 92.606C90.9746 92.8767 90.9652 93.11 90.9652 93.306C90.9652 93.4647 90.9886 93.5767 91.0352 93.642C91.0819 93.698 91.1659 93.726 91.2872 93.726C91.3806 93.726 91.5019 93.7073 91.6512 93.67L91.7912 93.782L91.6232 94.762C91.3246 94.958 90.9839 95.0747 90.6012 95.112C90.3212 95.084 90.0879 94.986 89.9012 94.818C89.7146 94.6407 89.5886 94.398 89.5232 94.09H89.4252C88.9586 94.5847 88.4779 94.93 87.9832 95.126C87.3112 95.1167 86.7839 94.9393 86.4012 94.594C86.0186 94.2487 85.8272 93.7773 85.8272 93.18C85.8272 92.7133 85.9439 92.3493 86.1772 92.088C86.4199 91.8173 86.7839 91.6353 87.2692 91.542L89.4112 91.136V90.562C89.4112 89.9553 89.1126 89.652 88.5152 89.652C88.2259 89.652 87.9179 89.7173 87.5912 89.848C87.2739 89.9787 86.9146 90.184 86.5132 90.464L86.3732 90.38L86.1632 89.148C86.5646 88.896 86.9939 88.7047 87.4512 88.574C87.9086 88.434 88.3659 88.364 88.8232 88.364ZM87.9132 92.396C87.7639 92.4333 87.6519 92.4987 87.5772 92.592C87.5119 92.676 87.4792 92.8067 87.4792 92.984C87.4792 93.2267 87.5446 93.418 87.6752 93.558C87.8059 93.6887 87.9879 93.754 88.2212 93.754C88.5852 93.754 88.9679 93.5393 89.3692 93.11L89.3972 92.074L87.9132 92.396ZM95.6335 93.628C95.9321 93.628 96.2448 93.5487 96.5715 93.39L96.7255 93.53L96.5435 94.636C96.0675 94.8787 95.5821 95.028 95.0875 95.084C93.8275 94.9533 93.1975 94.3373 93.1975 93.236L93.2675 92.074L93.2535 89.666H92.3855L92.3155 89.568L92.4135 88.546H93.2395V87.468L94.9335 86.922L95.0595 87.034L95.0175 88.546H96.6835L96.7395 88.644L96.6555 89.666H94.9895L94.9055 92.802C94.9055 93.1007 94.9615 93.3153 95.0735 93.446C95.1855 93.5673 95.3721 93.628 95.6335 93.628ZM100.338 88.364C101.29 88.364 102.018 88.644 102.522 89.204C103.026 89.764 103.278 90.5713 103.278 91.626C103.278 92.7647 103.008 93.6373 102.466 94.244C101.925 94.8413 101.146 95.14 100.128 95.14C99.1762 95.14 98.4482 94.86 97.9442 94.3C97.4402 93.74 97.1882 92.9327 97.1882 91.878C97.1882 90.7393 97.4589 89.8713 98.0002 89.274C98.5416 88.6673 99.3209 88.364 100.338 88.364ZM100.212 89.624C99.7642 89.624 99.4376 89.7733 99.2322 90.072C99.0362 90.3707 98.9382 90.8513 98.9382 91.514C98.9382 92.3727 99.0409 92.984 99.2462 93.348C99.4516 93.712 99.7876 93.894 100.254 93.894C100.702 93.894 101.024 93.7493 101.22 93.46C101.426 93.1613 101.528 92.676 101.528 92.004C101.528 91.1547 101.421 90.548 101.206 90.184C101.001 89.8107 100.67 89.624 100.212 89.624ZM106.738 88.378C107.373 88.378 107.97 88.4853 108.53 88.7L108.278 90.072L108.054 90.142C107.784 89.9647 107.513 89.8293 107.242 89.736C106.972 89.6427 106.734 89.596 106.528 89.596C106.304 89.596 106.127 89.6567 105.996 89.778C105.866 89.89 105.8 90.03 105.8 90.198C105.8 90.394 105.884 90.5527 106.052 90.674C106.23 90.7953 106.505 90.9307 106.878 91.08C107.252 91.2293 107.56 91.374 107.802 91.514C108.045 91.654 108.25 91.85 108.418 92.102C108.596 92.3447 108.684 92.648 108.684 93.012C108.684 93.3853 108.586 93.7353 108.39 94.062C108.204 94.3793 107.914 94.6407 107.522 94.846C107.13 95.042 106.65 95.14 106.08 95.14C105.408 95.14 104.713 95 103.994 94.72L104.204 93.264L104.386 93.152C104.676 93.3947 104.998 93.5907 105.352 93.74C105.707 93.88 106.02 93.95 106.29 93.95C106.542 93.95 106.738 93.8893 106.878 93.768C107.018 93.6373 107.088 93.4833 107.088 93.306C107.088 93.11 107 92.9513 106.822 92.83C106.654 92.7087 106.384 92.5733 106.01 92.424C105.628 92.256 105.315 92.1067 105.072 91.976C104.83 91.836 104.62 91.64 104.442 91.388C104.274 91.136 104.19 90.8233 104.19 90.45C104.19 89.8433 104.419 89.3487 104.876 88.966C105.334 88.574 105.954 88.378 106.738 88.378ZM114.23 88.378C114.865 88.378 115.462 88.4853 116.022 88.7L115.77 90.072L115.546 90.142C115.276 89.9647 115.005 89.8293 114.734 89.736C114.464 89.6427 114.226 89.596 114.02 89.596C113.796 89.596 113.619 89.6567 113.488 89.778C113.358 89.89 113.292 90.03 113.292 90.198C113.292 90.394 113.376 90.5527 113.544 90.674C113.722 90.7953 113.997 90.9307 114.37 91.08C114.744 91.2293 115.052 91.374 115.294 91.514C115.537 91.654 115.742 91.85 115.91 92.102C116.088 92.3447 116.176 92.648 116.176 93.012C116.176 93.3853 116.078 93.7353 115.882 94.062C115.696 94.3793 115.406 94.6407 115.014 94.846C114.622 95.042 114.142 95.14 113.572 95.14C112.9 95.14 112.205 95 111.486 94.72L111.696 93.264L111.878 93.152C112.168 93.3947 112.49 93.5907 112.844 93.74C113.199 93.88 113.512 93.95 113.782 93.95C114.034 93.95 114.23 93.8893 114.37 93.768C114.51 93.6373 114.58 93.4833 114.58 93.306C114.58 93.11 114.492 92.9513 114.314 92.83C114.146 92.7087 113.876 92.5733 113.502 92.424C113.12 92.256 112.807 92.1067 112.564 91.976C112.322 91.836 112.112 91.64 111.934 91.388C111.766 91.136 111.682 90.8233 111.682 90.45C111.682 89.8433 111.911 89.3487 112.368 88.966C112.826 88.574 113.446 88.378 114.23 88.378ZM119.981 88.364C120.7 88.364 121.26 88.5273 121.661 88.854C122.072 89.1713 122.277 89.6193 122.277 90.198C122.277 90.366 122.249 90.898 122.193 91.794C122.184 92.0553 122.17 92.326 122.151 92.606C122.133 92.8767 122.123 93.11 122.123 93.306C122.123 93.4647 122.147 93.5767 122.193 93.642C122.24 93.698 122.324 93.726 122.445 93.726C122.539 93.726 122.66 93.7073 122.809 93.67L122.949 93.782L122.781 94.762C122.483 94.958 122.142 95.0747 121.759 95.112C121.479 95.084 121.246 94.986 121.059 94.818C120.873 94.6407 120.747 94.398 120.681 94.09H120.583C120.117 94.5847 119.636 94.93 119.141 95.126C118.469 95.1167 117.942 94.9393 117.559 94.594C117.177 94.2487 116.985 93.7773 116.985 93.18C116.985 92.7133 117.102 92.3493 117.335 92.088C117.578 91.8173 117.942 91.6353 118.427 91.542L120.569 91.136V90.562C120.569 89.9553 120.271 89.652 119.673 89.652C119.384 89.652 119.076 89.7173 118.749 89.848C118.432 89.9787 118.073 90.184 117.671 90.464L117.531 90.38L117.321 89.148C117.723 88.896 118.152 88.7047 118.609 88.574C119.067 88.434 119.524 88.364 119.981 88.364ZM119.071 92.396C118.922 92.4333 118.81 92.4987 118.735 92.592C118.67 92.676 118.637 92.8067 118.637 92.984C118.637 93.2267 118.703 93.418 118.833 93.558C118.964 93.6887 119.146 93.754 119.379 93.754C119.743 93.754 120.126 93.5393 120.527 93.11L120.555 92.074L119.071 92.396ZM122.277 85.732V85.886L121.297 87.132L121.115 87.202C120.863 87.174 120.476 87.0853 119.953 86.936C119.907 86.9267 119.753 86.8893 119.491 86.824C119.239 86.7493 119.062 86.712 118.959 86.712C118.857 86.712 118.754 86.754 118.651 86.838C118.558 86.922 118.455 87.0247 118.343 87.146C118.231 87.2673 118.147 87.3607 118.091 87.426H117.923L117.363 86.88V86.726L118.357 85.48L118.525 85.41C118.749 85.438 119.146 85.5313 119.715 85.69C120.238 85.83 120.56 85.9 120.681 85.9C120.793 85.9 120.901 85.8533 121.003 85.76C121.115 85.6667 121.227 85.5593 121.339 85.438C121.451 85.3167 121.526 85.2327 121.563 85.186H121.731L122.277 85.732ZM126.862 88.364C127.814 88.364 128.542 88.644 129.046 89.204C129.55 89.764 129.802 90.5713 129.802 91.626C129.802 92.7647 129.531 93.6373 128.99 94.244C128.448 94.8413 127.669 95.14 126.652 95.14C125.7 95.14 124.972 94.86 124.468 94.3C123.964 93.74 123.712 92.9327 123.712 91.878C123.712 90.7393 123.982 89.8713 124.524 89.274C125.065 88.6673 125.844 88.364 126.862 88.364ZM126.736 89.624C126.288 89.624 125.961 89.7733 125.756 90.072C125.56 90.3707 125.462 90.8513 125.462 91.514C125.462 92.3727 125.564 92.984 125.77 93.348C125.975 93.712 126.311 93.894 126.778 93.894C127.226 93.894 127.548 93.7493 127.744 93.46C127.949 93.1613 128.052 92.676 128.052 92.004C128.052 91.1547 127.944 90.548 127.73 90.184C127.524 89.8107 127.193 89.624 126.736 89.624ZM25.8152 101.144C26.1979 101.144 26.6039 101.186 27.0332 101.27L26.9072 102.656L26.7812 102.74C26.3426 102.553 25.9599 102.46 25.6332 102.46C25.0546 102.46 24.7606 102.791 24.7512 103.454L24.7372 104.546H26.3192L26.3752 104.644L26.2912 105.666H24.7092L24.6672 108.13L24.7652 111H22.9032L23.0152 108.298L22.9872 105.666H22.0072L21.9372 105.568L22.0352 104.546H22.9732L22.9592 103.776C22.9592 102.936 23.2066 102.287 23.7012 101.83C24.2052 101.373 24.9099 101.144 25.8152 101.144ZM29.5999 104.364C30.5519 104.364 31.2799 104.644 31.7839 105.204C32.2879 105.764 32.5399 106.571 32.5399 107.626C32.5399 108.765 32.2693 109.637 31.7279 110.244C31.1866 110.841 30.4073 111.14 29.3899 111.14C28.4379 111.14 27.7099 110.86 27.2059 110.3C26.7019 109.74 26.4499 108.933 26.4499 107.878C26.4499 106.739 26.7206 105.871 27.2619 105.274C27.8033 104.667 28.5826 104.364 29.5999 104.364ZM29.4739 105.624C29.0259 105.624 28.6993 105.773 28.4939 106.072C28.2979 106.371 28.1999 106.851 28.1999 107.514C28.1999 108.373 28.3026 108.984 28.5079 109.348C28.7133 109.712 29.0493 109.894 29.5159 109.894C29.9639 109.894 30.2859 109.749 30.4819 109.46C30.6873 109.161 30.7899 108.676 30.7899 108.004C30.7899 107.155 30.6826 106.548 30.4679 106.184C30.2626 105.811 29.9313 105.624 29.4739 105.624ZM37.7379 106.94C37.7472 106.613 37.6725 106.361 37.5139 106.184C37.3645 105.997 37.1452 105.904 36.8559 105.904C36.4359 105.904 35.9879 106.105 35.5119 106.506V108.13L35.5959 111H33.7339L33.8319 108.312L33.7619 104.616L35.5259 104.462V105.414H35.6239C36.1372 104.947 36.6972 104.611 37.3039 104.406C38.0132 104.406 38.5545 104.569 38.9279 104.896C39.3012 105.213 39.4785 105.675 39.4599 106.282L39.4179 108.144L39.5019 111H37.6259L37.7379 106.94ZM43.776 109.628C44.0747 109.628 44.3874 109.549 44.714 109.39L44.868 109.53L44.686 110.636C44.21 110.879 43.7247 111.028 43.23 111.084C41.97 110.953 41.34 110.337 41.34 109.236L41.41 108.074L41.396 105.666H40.528L40.458 105.568L40.556 104.546H41.382V103.468L43.076 102.922L43.202 103.034L43.16 104.546H44.826L44.882 104.644L44.798 105.666H43.132L43.048 108.802C43.048 109.101 43.104 109.315 43.216 109.446C43.328 109.567 43.5147 109.628 43.776 109.628ZM50.8188 107.976L47.0388 108.004C47.1228 109.171 47.7155 109.754 48.8168 109.754C49.3955 109.754 50.0395 109.591 50.7488 109.264L50.9028 109.362L50.6228 110.748C49.9135 111.009 49.2461 111.14 48.6208 111.14C47.5941 111.14 46.7868 110.841 46.1988 110.244C45.6201 109.647 45.3308 108.821 45.3308 107.766C45.3308 106.721 45.6155 105.895 46.1848 105.288C46.7541 104.672 47.5241 104.364 48.4948 104.364C49.3255 104.364 49.9648 104.593 50.4128 105.05C50.8701 105.498 51.0988 106.128 51.0988 106.94C51.0988 107.155 51.0755 107.425 51.0288 107.752L50.8188 107.976ZM49.4748 106.73C49.4748 106.357 49.3908 106.077 49.2228 105.89C49.0548 105.694 48.8075 105.596 48.4808 105.596C48.1168 105.596 47.8135 105.717 47.5708 105.96C47.3281 106.193 47.1648 106.534 47.0808 106.982L49.4468 106.926L49.4748 106.73ZM54.5663 104.378C55.201 104.378 55.7983 104.485 56.3583 104.7L56.1063 106.072L55.8823 106.142C55.6117 105.965 55.341 105.829 55.0703 105.736C54.7997 105.643 54.5617 105.596 54.3563 105.596C54.1323 105.596 53.955 105.657 53.8243 105.778C53.6937 105.89 53.6283 106.03 53.6283 106.198C53.6283 106.394 53.7123 106.553 53.8803 106.674C54.0577 106.795 54.333 106.931 54.7063 107.08C55.0797 107.229 55.3877 107.374 55.6303 107.514C55.873 107.654 56.0783 107.85 56.2463 108.102C56.4237 108.345 56.5123 108.648 56.5123 109.012C56.5123 109.385 56.4143 109.735 56.2183 110.062C56.0317 110.379 55.7423 110.641 55.3503 110.846C54.9583 111.042 54.4777 111.14 53.9083 111.14C53.2363 111.14 52.541 111 51.8223 110.72L52.0323 109.264L52.2143 109.152C52.5037 109.395 52.8257 109.591 53.1803 109.74C53.535 109.88 53.8477 109.95 54.1183 109.95C54.3703 109.95 54.5663 109.889 54.7063 109.768C54.8463 109.637 54.9163 109.483 54.9163 109.306C54.9163 109.11 54.8277 108.951 54.6503 108.83C54.4823 108.709 54.2117 108.573 53.8383 108.424C53.4557 108.256 53.143 108.107 52.9003 107.976C52.6577 107.836 52.4477 107.64 52.2703 107.388C52.1023 107.136 52.0183 106.823 52.0183 106.45C52.0183 105.843 52.247 105.349 52.7043 104.966C53.1617 104.574 53.7823 104.378 54.5663 104.378ZM65.3065 108.13L65.3485 109.306C65.3485 109.465 65.3672 109.577 65.4045 109.642C65.4512 109.698 65.5305 109.726 65.6425 109.726C65.7452 109.726 65.8712 109.707 66.0205 109.67L66.1465 109.782L65.9925 110.762C65.6752 110.958 65.3298 111.075 64.9565 111.112C64.6672 111.084 64.4245 110.986 64.2285 110.818C64.0325 110.65 63.8972 110.421 63.8225 110.132H63.7105C63.2532 110.552 62.7865 110.874 62.3105 111.098C61.3958 111.098 60.6865 110.809 60.1825 110.23C59.6785 109.642 59.4265 108.83 59.4265 107.794C59.4265 106.693 59.7158 105.848 60.2945 105.26C60.8732 104.672 61.6758 104.378 62.7025 104.378C62.9732 104.378 63.2718 104.406 63.5985 104.462L63.5705 101.312L65.4185 101.172L65.3065 108.13ZM62.5765 105.638C61.6432 105.638 61.1765 106.231 61.1765 107.416C61.1765 108.153 61.2885 108.709 61.5125 109.082C61.7365 109.455 62.0632 109.642 62.4925 109.642C62.9032 109.642 63.2812 109.451 63.6265 109.068L63.6545 108.298L63.6125 105.89C63.2485 105.722 62.9032 105.638 62.5765 105.638ZM72.2836 107.976L68.5036 108.004C68.5876 109.171 69.1803 109.754 70.2816 109.754C70.8603 109.754 71.5043 109.591 72.2136 109.264L72.3676 109.362L72.0876 110.748C71.3783 111.009 70.711 111.14 70.0856 111.14C69.059 111.14 68.2516 110.841 67.6636 110.244C67.085 109.647 66.7956 108.821 66.7956 107.766C66.7956 106.721 67.0803 105.895 67.6496 105.288C68.219 104.672 68.989 104.364 69.9596 104.364C70.7903 104.364 71.4296 104.593 71.8776 105.05C72.335 105.498 72.5636 106.128 72.5636 106.94C72.5636 107.155 72.5403 107.425 72.4936 107.752L72.2836 107.976ZM70.9396 106.73C70.9396 106.357 70.8556 106.077 70.6876 105.89C70.5196 105.694 70.2723 105.596 69.9456 105.596C69.5816 105.596 69.2783 105.717 69.0356 105.96C68.793 106.193 68.6296 106.534 68.5456 106.982L70.9116 106.926L70.9396 106.73ZM81.0063 107.976L77.2263 108.004C77.3103 109.171 77.903 109.754 79.0043 109.754C79.583 109.754 80.227 109.591 80.9363 109.264L81.0903 109.362L80.8103 110.748C80.101 111.009 79.4336 111.14 78.8083 111.14C77.7816 111.14 76.9743 110.841 76.3863 110.244C75.8076 109.647 75.5183 108.821 75.5183 107.766C75.5183 106.721 75.803 105.895 76.3723 105.288C76.9416 104.672 77.7116 104.364 78.6823 104.364C79.513 104.364 80.1523 104.593 80.6003 105.05C81.0576 105.498 81.2863 106.128 81.2863 106.94C81.2863 107.155 81.263 107.425 81.2163 107.752L81.0063 107.976ZM79.6623 106.73C79.6623 106.357 79.5783 106.077 79.4103 105.89C79.2423 105.694 78.995 105.596 78.6683 105.596C78.3043 105.596 78.001 105.717 77.7583 105.96C77.5156 106.193 77.3523 106.534 77.2683 106.982L79.6343 106.926L79.6623 106.73ZM86.5738 106.94C86.5832 106.613 86.5085 106.361 86.3498 106.184C86.2005 105.997 85.9812 105.904 85.6918 105.904C85.2718 105.904 84.8238 106.105 84.3478 106.506V108.13L84.4318 111H82.5698L82.6678 108.312L82.5978 104.616L84.3618 104.462V105.414H84.4598C84.9732 104.947 85.5332 104.611 86.1398 104.406C86.8492 104.406 87.3905 104.569 87.7638 104.896C88.1372 105.213 88.3145 105.675 88.2958 106.282L88.2538 108.144L88.3378 111H86.4618L86.5738 106.94ZM95.02 107.976L91.24 108.004C91.324 109.171 91.9166 109.754 93.018 109.754C93.5966 109.754 94.2406 109.591 94.95 109.264L95.104 109.362L94.824 110.748C94.1146 111.009 93.4473 111.14 92.822 111.14C91.7953 111.14 90.988 110.841 90.4 110.244C89.8213 109.647 89.532 108.821 89.532 107.766C89.532 106.721 89.8166 105.895 90.386 105.288C90.9553 104.672 91.7253 104.364 92.696 104.364C93.5266 104.364 94.166 104.593 94.614 105.05C95.0713 105.498 95.3 106.128 95.3 106.94C95.3 107.155 95.2766 107.425 95.23 107.752L95.02 107.976ZM93.676 106.73C93.676 106.357 93.592 106.077 93.424 105.89C93.256 105.694 93.0086 105.596 92.682 105.596C92.318 105.596 92.0146 105.717 91.772 105.96C91.5293 106.193 91.366 106.534 91.282 106.982L93.648 106.926L93.676 106.73ZM100.181 104.476C100.265 104.476 100.382 104.485 100.531 104.504V106.226L100.335 106.296C100.177 106.231 100.004 106.198 99.8175 106.198C99.2762 106.198 98.7862 106.548 98.3475 107.248V108.13L98.4455 111H96.5835L96.6955 108.312L96.6115 104.616L98.3755 104.462L98.3615 105.736H98.4735C98.9308 104.896 99.5002 104.476 100.181 104.476ZM107.654 105.372C107.402 105.437 107.043 105.507 106.576 105.582L106.548 105.638C106.688 105.918 106.758 106.231 106.758 106.576C106.758 107.276 106.501 107.836 105.988 108.256C105.484 108.667 104.798 108.872 103.93 108.872C103.669 108.872 103.398 108.849 103.118 108.802C103.034 108.886 102.978 108.951 102.95 108.998C102.922 109.045 102.908 109.101 102.908 109.166C102.908 109.334 103.02 109.451 103.244 109.516C103.468 109.581 103.823 109.647 104.308 109.712C104.859 109.777 105.316 109.857 105.68 109.95C106.053 110.043 106.371 110.207 106.632 110.44C106.903 110.673 107.038 111.005 107.038 111.434C107.038 111.873 106.898 112.265 106.618 112.61C106.347 112.965 105.969 113.24 105.484 113.436C104.999 113.632 104.448 113.73 103.832 113.73C102.983 113.73 102.329 113.557 101.872 113.212C101.415 112.867 101.186 112.409 101.186 111.84C101.475 111.439 101.863 111.089 102.348 110.79V110.72C102.031 110.608 101.783 110.454 101.606 110.258C101.429 110.053 101.34 109.782 101.34 109.446C101.592 109.138 101.909 108.853 102.292 108.592V108.522C101.956 108.335 101.699 108.093 101.522 107.794C101.354 107.486 101.27 107.127 101.27 106.716C101.27 105.988 101.522 105.419 102.026 105.008C102.53 104.597 103.216 104.392 104.084 104.392C104.588 104.392 105.045 104.476 105.456 104.644C106.128 104.523 106.814 104.336 107.514 104.084L107.654 104.21V105.372ZM103.986 107.752C104.369 107.752 104.658 107.654 104.854 107.458C105.05 107.262 105.148 106.977 105.148 106.604C105.148 105.895 104.784 105.54 104.056 105.54C103.272 105.54 102.88 105.899 102.88 106.618C102.88 106.991 102.973 107.276 103.16 107.472C103.347 107.659 103.622 107.752 103.986 107.752ZM105.47 111.77C105.47 111.518 105.335 111.345 105.064 111.252C104.803 111.159 104.397 111.079 103.846 111.014L103.37 110.944C103.146 111.093 102.978 111.238 102.866 111.378C102.754 111.518 102.698 111.667 102.698 111.826C102.698 112.069 102.81 112.265 103.034 112.414C103.258 112.563 103.585 112.638 104.014 112.638C104.453 112.638 104.803 112.559 105.064 112.4C105.335 112.251 105.47 112.041 105.47 111.77ZM108.522 108.312L108.452 104.616L110.286 104.462L110.202 108.13L110.286 111H108.424L108.522 108.312ZM109.404 101.298C109.693 101.298 109.917 101.382 110.076 101.55C110.244 101.718 110.328 101.951 110.328 102.25C110.328 102.567 110.239 102.819 110.062 103.006C109.885 103.193 109.642 103.286 109.334 103.286C109.026 103.286 108.788 103.202 108.62 103.034C108.461 102.866 108.382 102.628 108.382 102.32C108.382 102.012 108.471 101.765 108.648 101.578C108.835 101.391 109.087 101.298 109.404 101.298ZM114.608 104.364C115.327 104.364 115.887 104.527 116.288 104.854C116.699 105.171 116.904 105.619 116.904 106.198C116.904 106.366 116.876 106.898 116.82 107.794C116.811 108.055 116.797 108.326 116.778 108.606C116.76 108.877 116.75 109.11 116.75 109.306C116.75 109.465 116.774 109.577 116.82 109.642C116.867 109.698 116.951 109.726 117.072 109.726C117.166 109.726 117.287 109.707 117.436 109.67L117.576 109.782L117.408 110.762C117.11 110.958 116.769 111.075 116.386 111.112C116.106 111.084 115.873 110.986 115.686 110.818C115.5 110.641 115.374 110.398 115.308 110.09H115.21C114.744 110.585 114.263 110.93 113.768 111.126C113.096 111.117 112.569 110.939 112.186 110.594C111.804 110.249 111.612 109.777 111.612 109.18C111.612 108.713 111.729 108.349 111.962 108.088C112.205 107.817 112.569 107.635 113.054 107.542L115.196 107.136V106.562C115.196 105.955 114.898 105.652 114.3 105.652C114.011 105.652 113.703 105.717 113.376 105.848C113.059 105.979 112.7 106.184 112.298 106.464L112.158 106.38L111.948 105.148C112.35 104.896 112.779 104.705 113.236 104.574C113.694 104.434 114.151 104.364 114.608 104.364ZM113.698 108.396C113.549 108.433 113.437 108.499 113.362 108.592C113.297 108.676 113.264 108.807 113.264 108.984C113.264 109.227 113.33 109.418 113.46 109.558C113.591 109.689 113.773 109.754 114.006 109.754C114.37 109.754 114.753 109.539 115.154 109.11L115.182 108.074L113.698 108.396ZM124.35 104.406C125.162 104.406 125.787 104.681 126.226 105.232C126.664 105.783 126.884 106.562 126.884 107.57C126.884 108.709 126.599 109.591 126.03 110.216C125.47 110.832 124.676 111.14 123.65 111.14C123.351 111.14 123.038 111.112 122.712 111.056L122.754 113.59H120.906L121.004 108.312L120.92 104.616L122.698 104.462L122.684 105.414H122.782C123.043 105.162 123.295 104.961 123.538 104.812C123.78 104.653 124.051 104.518 124.35 104.406ZM123.664 109.922C124.149 109.922 124.518 109.749 124.77 109.404C125.022 109.059 125.148 108.55 125.148 107.878C125.148 107.225 125.04 106.735 124.826 106.408C124.62 106.072 124.312 105.904 123.902 105.904C123.5 105.904 123.094 106.105 122.684 106.506L122.67 108.13L122.698 109.712C123.034 109.852 123.356 109.922 123.664 109.922ZM130.714 104.364C131.433 104.364 131.993 104.527 132.394 104.854C132.805 105.171 133.01 105.619 133.01 106.198C133.01 106.366 132.982 106.898 132.926 107.794C132.917 108.055 132.903 108.326 132.884 108.606C132.865 108.877 132.856 109.11 132.856 109.306C132.856 109.465 132.879 109.577 132.926 109.642C132.973 109.698 133.057 109.726 133.178 109.726C133.271 109.726 133.393 109.707 133.542 109.67L133.682 109.782L133.514 110.762C133.215 110.958 132.875 111.075 132.492 111.112C132.212 111.084 131.979 110.986 131.792 110.818C131.605 110.641 131.479 110.398 131.414 110.09H131.316C130.849 110.585 130.369 110.93 129.874 111.126C129.202 111.117 128.675 110.939 128.292 110.594C127.909 110.249 127.718 109.777 127.718 109.18C127.718 108.713 127.835 108.349 128.068 108.088C128.311 107.817 128.675 107.635 129.16 107.542L131.302 107.136V106.562C131.302 105.955 131.003 105.652 130.406 105.652C130.117 105.652 129.809 105.717 129.482 105.848C129.165 105.979 128.805 106.184 128.404 106.464L128.264 106.38L128.054 105.148C128.455 104.896 128.885 104.705 129.342 104.574C129.799 104.434 130.257 104.364 130.714 104.364ZM129.804 108.396C129.655 108.433 129.543 108.499 129.468 108.592C129.403 108.676 129.37 108.807 129.37 108.984C129.37 109.227 129.435 109.418 129.566 109.558C129.697 109.689 129.879 109.754 130.112 109.754C130.476 109.754 130.859 109.539 131.26 109.11L131.288 108.074L129.804 108.396ZM138.408 104.476C138.492 104.476 138.609 104.485 138.758 104.504V106.226L138.562 106.296C138.403 106.231 138.231 106.198 138.044 106.198C137.503 106.198 137.013 106.548 136.574 107.248V108.13L136.672 111H134.81L134.922 108.312L134.838 104.616L136.602 104.462L136.588 105.736H136.7C137.157 104.896 137.727 104.476 138.408 104.476ZM142.103 104.364C142.821 104.364 143.381 104.527 143.783 104.854C144.193 105.171 144.399 105.619 144.399 106.198C144.399 106.366 144.371 106.898 144.315 107.794C144.305 108.055 144.291 108.326 144.273 108.606C144.254 108.877 144.245 109.11 144.245 109.306C144.245 109.465 144.268 109.577 144.315 109.642C144.361 109.698 144.445 109.726 144.567 109.726C144.66 109.726 144.781 109.707 144.931 109.67L145.071 109.782L144.903 110.762C144.604 110.958 144.263 111.075 143.881 111.112C143.601 111.084 143.367 110.986 143.181 110.818C142.994 110.641 142.868 110.398 142.803 110.09H142.705C142.238 110.585 141.757 110.93 141.263 111.126C140.591 111.117 140.063 110.939 139.681 110.594C139.298 110.249 139.107 109.777 139.107 109.18C139.107 108.713 139.223 108.349 139.457 108.088C139.699 107.817 140.063 107.635 140.549 107.542L142.691 107.136V106.562C142.691 105.955 142.392 105.652 141.795 105.652C141.505 105.652 141.197 105.717 140.871 105.848C140.553 105.979 140.194 106.184 139.793 106.464L139.653 106.38L139.443 105.148C139.844 104.896 140.273 104.705 140.731 104.574C141.188 104.434 141.645 104.364 142.103 104.364ZM141.193 108.396C141.043 108.433 140.931 108.499 140.857 108.592C140.791 108.676 140.759 108.807 140.759 108.984C140.759 109.227 140.824 109.418 140.955 109.558C141.085 109.689 141.267 109.754 141.501 109.754C141.865 109.754 142.247 109.539 142.649 109.11L142.677 108.074L141.193 108.396ZM39.4742 122.94C39.4835 122.613 39.4089 122.361 39.2502 122.184C39.1009 121.997 38.8815 121.904 38.5922 121.904C38.1722 121.904 37.7242 122.105 37.2482 122.506V124.13L37.3322 127H35.4702L35.5682 124.312L35.4982 120.616L37.2622 120.462V121.414H37.3602C37.8735 120.947 38.4335 120.611 39.0402 120.406C39.7495 120.406 40.2909 120.569 40.6642 120.896C41.0375 121.213 41.2149 121.675 41.1962 122.282L41.1542 124.144L41.2382 127H39.3622L39.4742 122.94ZM45.5824 120.364C46.5344 120.364 47.2624 120.644 47.7664 121.204C48.2704 121.764 48.5224 122.571 48.5224 123.626C48.5224 124.765 48.2517 125.637 47.7104 126.244C47.169 126.841 46.3897 127.14 45.3724 127.14C44.4204 127.14 43.6924 126.86 43.1884 126.3C42.6844 125.74 42.4324 124.933 42.4324 123.878C42.4324 122.739 42.703 121.871 43.2444 121.274C43.7857 120.667 44.565 120.364 45.5824 120.364ZM45.4564 121.624C45.0084 121.624 44.6817 121.773 44.4764 122.072C44.2804 122.371 44.1824 122.851 44.1824 123.514C44.1824 124.373 44.285 124.984 44.4904 125.348C44.6957 125.712 45.0317 125.894 45.4984 125.894C45.9464 125.894 46.2684 125.749 46.4644 125.46C46.6697 125.161 46.7724 124.676 46.7724 124.004C46.7724 123.155 46.665 122.548 46.4504 122.184C46.245 121.811 45.9137 121.624 45.4564 121.624ZM51.9823 120.378C52.617 120.378 53.2143 120.485 53.7743 120.7L53.5223 122.072L53.2983 122.142C53.0277 121.965 52.757 121.829 52.4863 121.736C52.2157 121.643 51.9777 121.596 51.7723 121.596C51.5483 121.596 51.371 121.657 51.2403 121.778C51.1097 121.89 51.0443 122.03 51.0443 122.198C51.0443 122.394 51.1283 122.553 51.2963 122.674C51.4737 122.795 51.749 122.931 52.1223 123.08C52.4957 123.229 52.8037 123.374 53.0463 123.514C53.289 123.654 53.4943 123.85 53.6623 124.102C53.8397 124.345 53.9283 124.648 53.9283 125.012C53.9283 125.385 53.8303 125.735 53.6343 126.062C53.4477 126.379 53.1583 126.641 52.7663 126.846C52.3743 127.042 51.8937 127.14 51.3243 127.14C50.6523 127.14 49.957 127 49.2383 126.72L49.4483 125.264L49.6303 125.152C49.9197 125.395 50.2417 125.591 50.5963 125.74C50.951 125.88 51.2637 125.95 51.5343 125.95C51.7863 125.95 51.9823 125.889 52.1223 125.768C52.2623 125.637 52.3323 125.483 52.3323 125.306C52.3323 125.11 52.2437 124.951 52.0663 124.83C51.8983 124.709 51.6277 124.573 51.2543 124.424C50.8717 124.256 50.559 124.107 50.3163 123.976C50.0737 123.836 49.8637 123.64 49.6863 123.388C49.5183 123.136 49.4343 122.823 49.4343 122.45C49.4343 121.843 49.663 121.349 50.1203 120.966C50.5777 120.574 51.1983 120.378 51.9823 120.378ZM57.3554 120.378C57.99 120.378 58.5874 120.485 59.1474 120.7L58.8954 122.072L58.6714 122.142C58.4007 121.965 58.13 121.829 57.8594 121.736C57.5887 121.643 57.3507 121.596 57.1454 121.596C56.9214 121.596 56.744 121.657 56.6134 121.778C56.4827 121.89 56.4174 122.03 56.4174 122.198C56.4174 122.394 56.5014 122.553 56.6694 122.674C56.8467 122.795 57.122 122.931 57.4954 123.08C57.8687 123.229 58.1767 123.374 58.4194 123.514C58.662 123.654 58.8674 123.85 59.0354 124.102C59.2127 124.345 59.3014 124.648 59.3014 125.012C59.3014 125.385 59.2034 125.735 59.0074 126.062C58.8207 126.379 58.5314 126.641 58.1394 126.846C57.7474 127.042 57.2667 127.14 56.6974 127.14C56.0254 127.14 55.33 127 54.6114 126.72L54.8214 125.264L55.0034 125.152C55.2927 125.395 55.6147 125.591 55.9694 125.74C56.324 125.88 56.6367 125.95 56.9074 125.95C57.1594 125.95 57.3554 125.889 57.4954 125.768C57.6354 125.637 57.7054 125.483 57.7054 125.306C57.7054 125.11 57.6167 124.951 57.4394 124.83C57.2714 124.709 57.0007 124.573 56.6274 124.424C56.2447 124.256 55.932 124.107 55.6894 123.976C55.4467 123.836 55.2367 123.64 55.0594 123.388C54.8914 123.136 54.8074 122.823 54.8074 122.45C54.8074 121.843 55.036 121.349 55.4934 120.966C55.9507 120.574 56.5714 120.378 57.3554 120.378ZM63.1064 120.364C63.8251 120.364 64.3851 120.527 64.7864 120.854C65.1971 121.171 65.4024 121.619 65.4024 122.198C65.4024 122.366 65.3744 122.898 65.3184 123.794C65.3091 124.055 65.2951 124.326 65.2764 124.606C65.2578 124.877 65.2484 125.11 65.2484 125.306C65.2484 125.465 65.2718 125.577 65.3184 125.642C65.3651 125.698 65.4491 125.726 65.5704 125.726C65.6638 125.726 65.7851 125.707 65.9344 125.67L66.0744 125.782L65.9064 126.762C65.6078 126.958 65.2671 127.075 64.8844 127.112C64.6044 127.084 64.3711 126.986 64.1844 126.818C63.9978 126.641 63.8718 126.398 63.8064 126.09H63.7084C63.2418 126.585 62.7611 126.93 62.2664 127.126C61.5944 127.117 61.0671 126.939 60.6844 126.594C60.3018 126.249 60.1104 125.777 60.1104 125.18C60.1104 124.713 60.2271 124.349 60.4604 124.088C60.7031 123.817 61.0671 123.635 61.5524 123.542L63.6944 123.136V122.562C63.6944 121.955 63.3958 121.652 62.7984 121.652C62.5091 121.652 62.2011 121.717 61.8744 121.848C61.5571 121.979 61.1978 122.184 60.7964 122.464L60.6564 122.38L60.4464 121.148C60.8478 120.896 61.2771 120.705 61.7344 120.574C62.1918 120.434 62.6491 120.364 63.1064 120.364ZM62.1964 124.396C62.0471 124.433 61.9351 124.499 61.8604 124.592C61.7951 124.676 61.7624 124.807 61.7624 124.984C61.7624 125.227 61.8278 125.418 61.9584 125.558C62.0891 125.689 62.2711 125.754 62.5044 125.754C62.8684 125.754 63.2511 125.539 63.6524 125.11L63.6804 124.074L62.1964 124.396ZM69.4687 120.378C70.1033 120.378 70.7007 120.485 71.2607 120.7L71.0087 122.072L70.7847 122.142C70.514 121.965 70.2433 121.829 69.9727 121.736C69.702 121.643 69.464 121.596 69.2587 121.596C69.0347 121.596 68.8573 121.657 68.7267 121.778C68.596 121.89 68.5307 122.03 68.5307 122.198C68.5307 122.394 68.6147 122.553 68.7827 122.674C68.96 122.795 69.2353 122.931 69.6087 123.08C69.982 123.229 70.29 123.374 70.5327 123.514C70.7753 123.654 70.9807 123.85 71.1487 124.102C71.326 124.345 71.4147 124.648 71.4147 125.012C71.4147 125.385 71.3167 125.735 71.1207 126.062C70.934 126.379 70.6447 126.641 70.2527 126.846C69.8607 127.042 69.38 127.14 68.8107 127.14C68.1387 127.14 67.4433 127 66.7247 126.72L66.9347 125.264L67.1167 125.152C67.406 125.395 67.728 125.591 68.0827 125.74C68.4373 125.88 68.75 125.95 69.0207 125.95C69.2727 125.95 69.4687 125.889 69.6087 125.768C69.7487 125.637 69.8187 125.483 69.8187 125.306C69.8187 125.11 69.73 124.951 69.5527 124.83C69.3847 124.709 69.114 124.573 68.7407 124.424C68.358 124.256 68.0453 124.107 67.8027 123.976C67.56 123.836 67.35 123.64 67.1727 123.388C67.0047 123.136 66.9207 122.823 66.9207 122.45C66.9207 121.843 67.1493 121.349 67.6067 120.966C68.064 120.574 68.6847 120.378 69.4687 120.378ZM77.3389 120.364C78.0575 120.364 78.6175 120.527 79.0189 120.854C79.4295 121.171 79.6349 121.619 79.6349 122.198C79.6349 122.366 79.6069 122.898 79.5509 123.794C79.5415 124.055 79.5275 124.326 79.5089 124.606C79.4902 124.877 79.4809 125.11 79.4809 125.306C79.4809 125.465 79.5042 125.577 79.5509 125.642C79.5975 125.698 79.6815 125.726 79.8029 125.726C79.8962 125.726 80.0175 125.707 80.1669 125.67L80.3069 125.782L80.1389 126.762C79.8402 126.958 79.4995 127.075 79.1169 127.112C78.8369 127.084 78.6035 126.986 78.4169 126.818C78.2302 126.641 78.1042 126.398 78.0389 126.09H77.9409C77.4742 126.585 76.9935 126.93 76.4989 127.126C75.8269 127.117 75.2995 126.939 74.9169 126.594C74.5342 126.249 74.3429 125.777 74.3429 125.18C74.3429 124.713 74.4595 124.349 74.6929 124.088C74.9355 123.817 75.2995 123.635 75.7849 123.542L77.9269 123.136V122.562C77.9269 121.955 77.6282 121.652 77.0309 121.652C76.7415 121.652 76.4335 121.717 76.1069 121.848C75.7895 121.979 75.4302 122.184 75.0289 122.464L74.8889 122.38L74.6789 121.148C75.0802 120.896 75.5095 120.705 75.9669 120.574C76.4242 120.434 76.8815 120.364 77.3389 120.364ZM76.4289 124.396C76.2795 124.433 76.1675 124.499 76.0929 124.592C76.0275 124.676 75.9949 124.807 75.9949 124.984C75.9949 125.227 76.0602 125.418 76.1909 125.558C76.3215 125.689 76.5035 125.754 76.7369 125.754C77.1009 125.754 77.4835 125.539 77.8849 125.11L77.9129 124.074L76.4289 124.396ZM84.1491 125.628C84.4478 125.628 84.7604 125.549 85.0871 125.39L85.2411 125.53L85.0591 126.636C84.5831 126.879 84.0978 127.028 83.6031 127.084C82.3431 126.953 81.7131 126.337 81.7131 125.236L81.7831 124.074L81.7691 121.666H80.9011L80.8311 121.568L80.9291 120.546H81.7551V119.468L83.4491 118.922L83.5751 119.034L83.5331 120.546H85.1991L85.2551 120.644L85.1711 121.666H83.5051L83.4211 124.802C83.4211 125.101 83.4771 125.315 83.5891 125.446C83.7011 125.567 83.8878 125.628 84.1491 125.628ZM86.3736 124.312L86.3036 120.616L88.1376 120.462L88.0536 124.13L88.1376 127H86.2756L86.3736 124.312ZM87.2556 117.298C87.5449 117.298 87.7689 117.382 87.9276 117.55C88.0956 117.718 88.1796 117.951 88.1796 118.25C88.1796 118.567 88.0909 118.819 87.9136 119.006C87.7362 119.193 87.4936 119.286 87.1856 119.286C86.8776 119.286 86.6396 119.202 86.4716 119.034C86.3129 118.866 86.2336 118.628 86.2336 118.32C86.2336 118.012 86.3222 117.765 86.4996 117.578C86.6862 117.391 86.9382 117.298 87.2556 117.298ZM91.1159 121.526L92.0959 125.25H92.1939L93.3699 121.624L93.6079 120.49H95.2319L93.0479 127H91.0459L89.1979 120.532L90.9339 120.448L91.1159 121.526ZM96.2583 124.312L96.1883 120.616L98.0223 120.462L97.9383 124.13L98.0223 127H96.1603L96.2583 124.312ZM97.1403 117.298C97.4297 117.298 97.6537 117.382 97.8123 117.55C97.9803 117.718 98.0643 117.951 98.0643 118.25C98.0643 118.567 97.9757 118.819 97.7983 119.006C97.621 119.193 97.3783 119.286 97.0703 119.286C96.7623 119.286 96.5243 119.202 96.3563 119.034C96.1977 118.866 96.1183 118.628 96.1183 118.32C96.1183 118.012 96.207 117.765 96.3843 117.578C96.571 117.391 96.823 117.298 97.1403 117.298ZM105.215 124.13L105.257 125.306C105.257 125.465 105.275 125.577 105.313 125.642C105.359 125.698 105.439 125.726 105.551 125.726C105.653 125.726 105.779 125.707 105.929 125.67L106.055 125.782L105.901 126.762C105.583 126.958 105.238 127.075 104.865 127.112C104.575 127.084 104.333 126.986 104.137 126.818C103.941 126.65 103.805 126.421 103.731 126.132H103.619C103.161 126.552 102.695 126.874 102.219 127.098C101.304 127.098 100.595 126.809 100.091 126.23C99.5867 125.642 99.3347 124.83 99.3347 123.794C99.3347 122.693 99.624 121.848 100.203 121.26C100.781 120.672 101.584 120.378 102.611 120.378C102.881 120.378 103.18 120.406 103.507 120.462L103.479 117.312L105.327 117.172L105.215 124.13ZM102.485 121.638C101.551 121.638 101.085 122.231 101.085 123.416C101.085 124.153 101.197 124.709 101.421 125.082C101.645 125.455 101.971 125.642 102.401 125.642C102.811 125.642 103.189 125.451 103.535 125.068L103.563 124.298L103.521 121.89C103.157 121.722 102.811 121.638 102.485 121.638ZM109.714 120.364C110.433 120.364 110.993 120.527 111.394 120.854C111.805 121.171 112.01 121.619 112.01 122.198C112.01 122.366 111.982 122.898 111.926 123.794C111.917 124.055 111.903 124.326 111.884 124.606C111.865 124.877 111.856 125.11 111.856 125.306C111.856 125.465 111.879 125.577 111.926 125.642C111.973 125.698 112.057 125.726 112.178 125.726C112.271 125.726 112.393 125.707 112.542 125.67L112.682 125.782L112.514 126.762C112.215 126.958 111.875 127.075 111.492 127.112C111.212 127.084 110.979 126.986 110.792 126.818C110.605 126.641 110.479 126.398 110.414 126.09H110.316C109.849 126.585 109.369 126.93 108.874 127.126C108.202 127.117 107.675 126.939 107.292 126.594C106.909 126.249 106.718 125.777 106.718 125.18C106.718 124.713 106.835 124.349 107.068 124.088C107.311 123.817 107.675 123.635 108.16 123.542L110.302 123.136V122.562C110.302 121.955 110.003 121.652 109.406 121.652C109.117 121.652 108.809 121.717 108.482 121.848C108.165 121.979 107.805 122.184 107.404 122.464L107.264 122.38L107.054 121.148C107.455 120.896 107.885 120.705 108.342 120.574C108.799 120.434 109.257 120.364 109.714 120.364ZM108.804 124.396C108.655 124.433 108.543 124.499 108.468 124.592C108.403 124.676 108.37 124.807 108.37 124.984C108.37 125.227 108.435 125.418 108.566 125.558C108.697 125.689 108.879 125.754 109.112 125.754C109.476 125.754 109.859 125.539 110.26 125.11L110.288 124.074L108.804 124.396ZM119.324 124.13L119.366 125.306C119.366 125.465 119.385 125.577 119.422 125.642C119.469 125.698 119.548 125.726 119.66 125.726C119.763 125.726 119.889 125.707 120.038 125.67L120.164 125.782L120.01 126.762C119.693 126.958 119.347 127.075 118.974 127.112C118.685 127.084 118.442 126.986 118.246 126.818C118.05 126.65 117.915 126.421 117.84 126.132H117.728C117.271 126.552 116.804 126.874 116.328 127.098C115.413 127.098 114.704 126.809 114.2 126.23C113.696 125.642 113.444 124.83 113.444 123.794C113.444 122.693 113.733 121.848 114.312 121.26C114.891 120.672 115.693 120.378 116.72 120.378C116.991 120.378 117.289 120.406 117.616 120.462L117.588 117.312L119.436 117.172L119.324 124.13ZM116.594 121.638C115.661 121.638 115.194 122.231 115.194 123.416C115.194 124.153 115.306 124.709 115.53 125.082C115.754 125.455 116.081 125.642 116.51 125.642C116.921 125.642 117.299 125.451 117.644 125.068L117.672 124.298L117.63 121.89C117.266 121.722 116.921 121.638 116.594 121.638ZM126.301 123.976L122.521 124.004C122.605 125.171 123.198 125.754 124.299 125.754C124.878 125.754 125.522 125.591 126.231 125.264L126.385 125.362L126.105 126.748C125.396 127.009 124.729 127.14 124.103 127.14C123.077 127.14 122.269 126.841 121.681 126.244C121.103 125.647 120.813 124.821 120.813 123.766C120.813 122.721 121.098 121.895 121.667 121.288C122.237 120.672 123.007 120.364 123.977 120.364C124.808 120.364 125.447 120.593 125.895 121.05C126.353 121.498 126.581 122.128 126.581 122.94C126.581 123.155 126.558 123.425 126.511 123.752L126.301 123.976ZM124.957 122.73C124.957 122.357 124.873 122.077 124.705 121.89C124.537 121.694 124.29 121.596 123.963 121.596C123.599 121.596 123.296 121.717 123.053 121.96C122.811 122.193 122.647 122.534 122.563 122.982L124.929 122.926L124.957 122.73ZM130.049 120.378C130.683 120.378 131.281 120.485 131.841 120.7L131.589 122.072L131.365 122.142C131.094 121.965 130.823 121.829 130.553 121.736C130.282 121.643 130.044 121.596 129.839 121.596C129.615 121.596 129.437 121.657 129.307 121.778C129.176 121.89 129.111 122.03 129.111 122.198C129.111 122.394 129.195 122.553 129.363 122.674C129.54 122.795 129.815 122.931 130.189 123.08C130.562 123.229 130.87 123.374 131.113 123.514C131.355 123.654 131.561 123.85 131.729 124.102C131.906 124.345 131.995 124.648 131.995 125.012C131.995 125.385 131.897 125.735 131.701 126.062C131.514 126.379 131.225 126.641 130.833 126.846C130.441 127.042 129.96 127.14 129.391 127.14C128.719 127.14 128.023 127 127.305 126.72L127.515 125.264L127.697 125.152C127.986 125.395 128.308 125.591 128.663 125.74C129.017 125.88 129.33 125.95 129.601 125.95C129.853 125.95 130.049 125.889 130.189 125.768C130.329 125.637 130.399 125.483 130.399 125.306C130.399 125.11 130.31 124.951 130.133 124.83C129.965 124.709 129.694 124.573 129.321 124.424C128.938 124.256 128.625 124.107 128.383 123.976C128.14 123.836 127.93 123.64 127.753 123.388C127.585 123.136 127.501 122.823 127.501 122.45C127.501 121.843 127.729 121.349 128.187 120.966C128.644 120.574 129.265 120.378 130.049 120.378ZM69.121 140.13L69.163 141.306C69.163 141.465 69.1816 141.577 69.219 141.642C69.2656 141.698 69.345 141.726 69.457 141.726C69.5596 141.726 69.6856 141.707 69.835 141.67L69.961 141.782L69.807 142.762C69.4896 142.958 69.1443 143.075 68.771 143.112C68.4816 143.084 68.239 142.986 68.043 142.818C67.847 142.65 67.7116 142.421 67.637 142.132H67.525C67.0676 142.552 66.601 142.874 66.125 143.098C65.2103 143.098 64.501 142.809 63.997 142.23C63.493 141.642 63.241 140.83 63.241 139.794C63.241 138.693 63.5303 137.848 64.109 137.26C64.6876 136.672 65.4903 136.378 66.517 136.378C66.7876 136.378 67.0863 136.406 67.413 136.462L67.385 133.312L69.233 133.172L69.121 140.13ZM66.391 137.638C65.4576 137.638 64.991 138.231 64.991 139.416C64.991 140.153 65.103 140.709 65.327 141.082C65.551 141.455 65.8776 141.642 66.307 141.642C66.7176 141.642 67.0956 141.451 67.441 141.068L67.469 140.298L67.427 137.89C67.063 137.722 66.7176 137.638 66.391 137.638ZM71.1841 140.312L71.1141 136.616L72.9481 136.462L72.8641 140.13L72.9481 143H71.0861L71.1841 140.312ZM72.0661 133.298C72.3554 133.298 72.5794 133.382 72.7381 133.55C72.9061 133.718 72.9901 133.951 72.9901 134.25C72.9901 134.567 72.9014 134.819 72.7241 135.006C72.5468 135.193 72.3041 135.286 71.9961 135.286C71.6881 135.286 71.4501 135.202 71.2821 135.034C71.1234 134.866 71.0441 134.628 71.0441 134.32C71.0441 134.012 71.1328 133.765 71.3101 133.578C71.4968 133.391 71.7488 133.298 72.0661 133.298ZM77.2705 136.364C77.9892 136.364 78.5492 136.527 78.9505 136.854C79.3612 137.171 79.5665 137.619 79.5665 138.198C79.5665 138.366 79.5385 138.898 79.4825 139.794C79.4732 140.055 79.4592 140.326 79.4405 140.606C79.4218 140.877 79.4125 141.11 79.4125 141.306C79.4125 141.465 79.4358 141.577 79.4825 141.642C79.5292 141.698 79.6132 141.726 79.7345 141.726C79.8278 141.726 79.9492 141.707 80.0985 141.67L80.2385 141.782L80.0705 142.762C79.7718 142.958 79.4312 143.075 79.0485 143.112C78.7685 143.084 78.5352 142.986 78.3485 142.818C78.1618 142.641 78.0358 142.398 77.9705 142.09H77.8725C77.4058 142.585 76.9252 142.93 76.4305 143.126C75.7585 143.117 75.2312 142.939 74.8485 142.594C74.4658 142.249 74.2745 141.777 74.2745 141.18C74.2745 140.713 74.3912 140.349 74.6245 140.088C74.8672 139.817 75.2312 139.635 75.7165 139.542L77.8585 139.136V138.562C77.8585 137.955 77.5598 137.652 76.9625 137.652C76.6732 137.652 76.3652 137.717 76.0385 137.848C75.7212 137.979 75.3618 138.184 74.9605 138.464L74.8205 138.38L74.6105 137.148C75.0118 136.896 75.4412 136.705 75.8985 136.574C76.3558 136.434 76.8132 136.364 77.2705 136.364ZM76.3605 140.396C76.2112 140.433 76.0992 140.499 76.0245 140.592C75.9592 140.676 75.9265 140.807 75.9265 140.984C75.9265 141.227 75.9918 141.418 76.1225 141.558C76.2532 141.689 76.4352 141.754 76.6685 141.754C77.0325 141.754 77.4152 141.539 77.8165 141.11L77.8445 140.074L76.3605 140.396ZM78.4885 132.878L79.1605 133.886L79.1325 134.068C78.9272 134.199 78.7732 134.292 78.6705 134.348C77.5038 135.067 76.7478 135.524 76.4025 135.72L76.2205 135.706L75.7725 135.006C76.8552 134.138 77.6998 133.424 78.3065 132.864L78.4885 132.878ZM84.9647 136.476C85.0487 136.476 85.1654 136.485 85.3147 136.504V138.226L85.1187 138.296C84.96 138.231 84.7874 138.198 84.6007 138.198C84.0594 138.198 83.5694 138.548 83.1307 139.248V140.13L83.2287 143H81.3667L81.4787 140.312L81.3947 136.616L83.1587 136.462L83.1447 137.736H83.2567C83.714 136.896 84.2834 136.476 84.9647 136.476ZM86.3599 140.312L86.2899 136.616L88.1239 136.462L88.0399 140.13L88.1239 143H86.2619L86.3599 140.312ZM87.2419 133.298C87.5312 133.298 87.7552 133.382 87.9139 133.55C88.0819 133.718 88.1659 133.951 88.1659 134.25C88.1659 134.567 88.0772 134.819 87.8999 135.006C87.7225 135.193 87.4799 135.286 87.1719 135.286C86.8639 135.286 86.6259 135.202 86.4579 135.034C86.2992 134.866 86.2199 134.628 86.2199 134.32C86.2199 134.012 86.3085 133.765 86.4859 133.578C86.6725 133.391 86.9245 133.298 87.2419 133.298ZM92.4463 136.364C93.1649 136.364 93.7249 136.527 94.1263 136.854C94.5369 137.171 94.7423 137.619 94.7423 138.198C94.7423 138.366 94.7143 138.898 94.6583 139.794C94.6489 140.055 94.6349 140.326 94.6163 140.606C94.5976 140.877 94.5883 141.11 94.5883 141.306C94.5883 141.465 94.6116 141.577 94.6583 141.642C94.7049 141.698 94.7889 141.726 94.9103 141.726C95.0036 141.726 95.1249 141.707 95.2743 141.67L95.4143 141.782L95.2463 142.762C94.9476 142.958 94.6069 143.075 94.2243 143.112C93.9443 143.084 93.7109 142.986 93.5243 142.818C93.3376 142.641 93.2116 142.398 93.1463 142.09H93.0483C92.5816 142.585 92.1009 142.93 91.6063 143.126C90.9343 143.117 90.4069 142.939 90.0243 142.594C89.6416 142.249 89.4503 141.777 89.4503 141.18C89.4503 140.713 89.5669 140.349 89.8003 140.088C90.0429 139.817 90.4069 139.635 90.8923 139.542L93.0343 139.136V138.562C93.0343 137.955 92.7356 137.652 92.1383 137.652C91.8489 137.652 91.5409 137.717 91.2143 137.848C90.8969 137.979 90.5376 138.184 90.1363 138.464L89.9963 138.38L89.7863 137.148C90.1876 136.896 90.6169 136.705 91.0743 136.574C91.5316 136.434 91.9889 136.364 92.4463 136.364ZM91.5363 140.396C91.3869 140.433 91.2749 140.499 91.2003 140.592C91.1349 140.676 91.1023 140.807 91.1023 140.984C91.1023 141.227 91.1676 141.418 91.2983 141.558C91.4289 141.689 91.6109 141.754 91.8443 141.754C92.2083 141.754 92.5909 141.539 92.9923 141.11L93.0203 140.074L91.5363 140.396ZM98.8085 136.378C99.4432 136.378 100.041 136.485 100.601 136.7L100.349 138.072L100.125 138.142C99.8538 137.965 99.5832 137.829 99.3125 137.736C99.0418 137.643 98.8038 137.596 98.5985 137.596C98.3745 137.596 98.1972 137.657 98.0665 137.778C97.9358 137.89 97.8705 138.03 97.8705 138.198C97.8705 138.394 97.9545 138.553 98.1225 138.674C98.2998 138.795 98.5752 138.931 98.9485 139.08C99.3218 139.229 99.6298 139.374 99.8725 139.514C100.115 139.654 100.321 139.85 100.489 140.102C100.666 140.345 100.755 140.648 100.755 141.012C100.755 141.385 100.657 141.735 100.461 142.062C100.274 142.379 99.9845 142.641 99.5925 142.846C99.2005 143.042 98.7198 143.14 98.1505 143.14C97.4785 143.14 96.7832 143 96.0645 142.72L96.2745 141.264L96.4565 141.152C96.7458 141.395 97.0678 141.591 97.4225 141.74C97.7772 141.88 98.0898 141.95 98.3605 141.95C98.6125 141.95 98.8085 141.889 98.9485 141.768C99.0885 141.637 99.1585 141.483 99.1585 141.306C99.1585 141.11 99.0698 140.951 98.8925 140.83C98.7245 140.709 98.4538 140.573 98.0805 140.424C97.6978 140.256 97.3852 140.107 97.1425 139.976C96.8998 139.836 96.6898 139.64 96.5125 139.388C96.3445 139.136 96.2605 138.823 96.2605 138.45C96.2605 137.843 96.4892 137.349 96.9465 136.966C97.4038 136.574 98.0245 136.378 98.8085 136.378ZM102.604 141.11C102.893 141.11 103.117 141.194 103.276 141.362C103.444 141.53 103.528 141.763 103.528 142.062C103.528 142.379 103.439 142.631 103.262 142.818C103.084 143.005 102.842 143.098 102.534 143.098C102.226 143.098 101.988 143.014 101.82 142.846C101.661 142.678 101.582 142.44 101.582 142.132C101.582 141.824 101.67 141.577 101.848 141.39C102.034 141.203 102.286 141.11 102.604 141.11Z" fill="white"/>
<defs>
<filter id="filter0_b_152:18357" x="3" y="67" width="161" height="97" filterUnits="userSpaceOnUse" color-interpolation-filters="sRGB">
<feFlood flood-opacity="0" result="BackgroundImageFix"/>
<feGaussianBlur in="BackgroundImage" stdDeviation="5"/>
<feComposite in2="SourceAlpha" operator="in" result="effect1_backgroundBlur_152:18357"/>
<feBlend mode="normal" in="SourceGraphic" in2="effect1_backgroundBlur_152:18357" result="shape"/>
</filter>
<clipPath id="clip0_152:18357">
<rect width="62.5867" height="62.5867" fill="white" transform="translate(92.3235 -4.3898) rotate(30)"/>
</clipPath>
<clipPath id="clip1_152:18357">
<rect width="85.3957" height="85.3957" fill="white" transform="translate(20.9655 98.6308) rotate(-105)"/>
</clipPath>
</defs>
</svg>
