<svg width="167" height="167" viewBox="0 0 167 167" fill="none" xmlns="http://www.w3.org/2000/svg">
<mask id="mask0_152:11531" style="mask-type:alpha" maskUnits="userSpaceOnUse" x="0" y="0" width="167" height="167">
<rect x="1" y="1" width="165" height="165" rx="8" fill="#5988D6" stroke="#EDE6FC" stroke-opacity="0.3"/>
</mask>
<g mask="url(#mask0_152:11531)">
<rect x="1" y="1" width="165" height="165" rx="8" fill="#A9D97A" stroke="#EDE6FC" stroke-opacity="0.3"/>
<path d="M66.6509 69.5174C70.0836 68.3727 74.6597 63.7966 74.6597 61.5086C74.6597 59.2206 71.227 60.3639 72.3717 56.9325C73.5164 53.5012 74.6597 50.0684 72.3717 47.7804C70.0836 45.4924 67.7956 47.7804 65.5076 45.4924C63.2196 43.2044 65.5076 40.9163 63.2196 38.6283C60.9315 36.3403 57.4988 37.4836 54.0674 38.6283C50.6361 39.773 51.778 36.3403 49.49 36.3403C47.202 36.3403 42.6259 40.9163 41.4812 44.3491C40.3365 47.7818 38.0499 45.4924 36.9065 48.9251C35.8449 52.1115 37.1475 55.4897 34.2224 62.1932C32.8259 64.3996 31.507 66.5188 30.2766 68.3768C24.8621 76.5502 26.6111 84.3902 26.6111 84.3902C26.6111 84.3902 34.4511 86.1393 42.6246 80.7248C44.4825 79.4943 46.6017 78.1754 48.8081 76.7789C55.5116 73.8525 58.8899 75.1564 62.0762 74.0948C65.5076 72.9501 63.2196 70.6621 66.6509 69.5174Z" fill="#5C913B"/>
<path d="M72.6222 61.8842C72.482 61.4596 72.026 61.2268 71.6014 61.3684C67.2322 62.803 63.7763 62.2899 62.0722 61.8434C65.8983 57.9438 69.3365 53.8918 71.9022 50.1528C72.1553 49.784 72.0601 49.2804 71.6926 49.0272C71.3237 48.7727 70.8201 48.8693 70.5683 49.2368C69.0956 51.3819 67.2975 53.6618 65.2899 55.9661C65.4015 53.5638 65.2014 49.8194 63.4837 46.1144C63.2945 45.7088 62.814 45.5332 62.4098 45.7211C62.0042 45.9089 61.8272 46.3894 62.0164 46.795C64.3017 51.7263 63.6416 56.889 63.4619 58.0037C61.5986 60.0304 59.6005 62.0503 57.5329 63.9953C57.7453 61.446 57.6473 57.2959 55.411 54.0089C55.1619 53.64 54.6596 53.542 54.288 53.7938C53.9192 54.0456 53.8225 54.5479 54.0743 54.9181C56.738 58.8367 55.9078 64.4499 55.6777 65.7049C52.3566 68.6993 48.9361 71.4365 45.7008 73.6483C47.7901 70.2809 49.9828 64.978 48.423 58.8871C48.3114 58.4542 47.8704 58.1915 47.4389 58.3045C47.0061 58.4161 46.7448 58.8558 46.8564 59.2886C49.1417 68.2134 42.3239 75.6042 41.7141 76.2426C34.3546 80.8105 30.3175 82.1879 30.2712 82.2029C29.8479 82.3445 29.6193 82.8004 29.7608 83.2251C29.8738 83.564 30.1882 83.7791 30.5271 83.7791C30.6115 83.7791 30.6973 83.7655 30.7816 83.7382C30.9994 83.6647 36.2206 81.8953 45.8301 75.5226C47.688 74.2908 49.5976 72.8875 51.5141 71.3712C52.4601 71.951 54.6283 72.9242 58.5401 72.9242C59.6345 72.9242 60.8622 72.8466 62.2383 72.6656C62.6806 72.6071 62.9923 72.2001 62.9338 71.7577C62.8766 71.3154 62.4588 71.0023 62.026 71.0622C56.9844 71.7319 54.1628 70.8771 52.8834 70.2714C55.5702 68.0678 58.2421 65.6491 60.7764 63.146C61.6163 63.4427 63.3925 63.9436 65.8602 63.9436C67.6283 63.9436 69.7448 63.6864 72.1104 62.9078C72.531 62.7649 72.761 62.3075 72.6222 61.8842Z" fill="#679E44"/>
<path d="M43.3583 69.1118C43.979 68.9893 44.7317 68.864 45.5497 68.7293C50.7369 67.8677 56.1011 66.9762 56.1011 63.6537C56.1011 61.9646 55.1973 60.956 54.6025 60.338C54.9428 60.2346 55.4055 60.1379 55.7254 60.0685C57.1818 59.7596 58.9948 59.3744 59.7856 57.7683C60.2742 56.776 60.2116 55.5796 59.5909 54.1817C60.1572 53.7639 61.7415 53.2589 62.7324 52.9445C65.1769 52.1659 67.4867 51.4296 68.121 49.5363C68.3429 48.8775 68.4246 47.8349 67.5643 46.618C67.5534 46.6031 67.5371 46.5704 67.5262 46.55C66.8525 46.4356 66.1801 46.1634 65.5063 45.491C65.0803 45.065 64.8135 44.639 64.6461 44.2129C64.9646 45.0909 65.7963 47.0631 66.1746 47.5967C68.9391 51.5058 56.2099 51.0457 57.9753 54.7384C60.0728 59.1239 54.0186 57.741 52.8752 59.4574C51.7305 61.1738 54.401 61.3643 54.401 63.6523C54.401 65.9404 46.5801 66.7434 43.0303 67.4403C35.8586 68.8518 26.6099 84.3902 26.6099 84.3902C26.6099 84.3902 27.3013 84.5399 28.4651 84.6148C31.2581 80.0905 38.3426 70.0972 43.3583 69.1118Z" fill="#3E721D"/>
<path d="M43.0302 67.443C46.58 66.7461 54.4009 65.9431 54.4009 63.6551C54.4009 61.367 51.7318 61.1765 52.8751 59.4601C54.0198 57.7438 60.0727 59.1266 57.9752 54.7411C56.2085 51.0484 68.9389 51.5085 66.1745 47.5994C65.7362 46.9801 64.6855 44.4212 64.5344 43.8849C64.0403 42.1332 64.9713 40.3814 63.2182 38.6297C60.9302 36.3416 57.4974 37.485 54.0661 38.6297C50.6347 39.7744 51.778 36.3403 49.49 36.3403C47.202 36.3403 42.6259 40.9163 41.4812 44.3491C40.3365 47.7818 38.0499 45.4924 36.9065 48.9251C35.8449 52.1115 37.1475 55.4897 34.2224 62.1932C32.8259 64.3996 31.507 66.5188 30.2766 68.3768C24.8621 76.5502 26.6111 84.3902 26.6111 84.3902C26.6111 84.3902 35.8585 68.8518 43.0302 67.443Z" fill="#77B255"/>
<path d="M64.6556 47.2863C60.9493 45.5686 57.2036 45.3685 54.8012 45.4815C57.1056 43.4725 59.3841 41.6745 61.5305 40.2031C61.8994 39.9499 61.9933 39.4463 61.7401 39.0775C61.487 38.71 60.9834 38.6161 60.6159 38.8679C56.8769 41.4322 52.8249 44.8717 48.9253 48.6978C48.4775 46.9923 47.9643 43.5378 49.4003 39.1687C49.5405 38.744 49.3091 38.2867 48.8844 38.1478C48.4625 38.0076 48.0038 38.239 47.8636 38.6637C46.0043 44.3232 47.115 48.5522 47.6241 49.999C45.121 52.5334 42.7023 55.2039 40.4986 57.8921C39.8929 56.6127 39.0409 53.7911 39.7092 48.7468C39.7677 48.3044 39.456 47.8975 39.0137 47.8389C38.5781 47.7804 38.1657 48.0894 38.1058 48.5331C37.2714 54.8351 38.6598 58.0486 39.4002 59.2573C37.8826 61.1737 36.4806 63.0834 35.2488 64.9413C28.8747 74.5508 27.1053 79.772 27.0332 79.9884C26.8916 80.4131 27.1216 80.869 27.5449 81.0106C27.6293 81.0392 27.7151 81.0514 27.8008 81.0514C28.1397 81.0514 28.4555 80.8377 28.5685 80.4988C28.5835 80.4525 29.9609 76.4168 34.5274 69.0573C35.1576 68.4503 42.5335 61.6188 51.4814 63.915C51.9088 64.0226 52.3553 63.7639 52.4655 63.3311C52.5758 62.8983 52.3158 62.4573 51.8816 62.3457C45.7906 60.7886 40.485 62.9827 37.1163 65.072C39.3281 61.8352 42.0666 58.4121 45.0624 55.0896C46.3188 54.8596 51.932 54.032 55.8493 56.6957C55.9894 56.7896 56.1473 56.8359 56.3025 56.8359C56.5611 56.8359 56.817 56.712 56.9722 56.482C57.224 56.1131 57.1273 55.6095 56.7585 55.3577C53.47 53.1228 49.32 53.0248 46.7706 53.2371C48.7143 51.1709 50.7342 49.1728 52.7609 47.3095C53.8688 47.1271 59.0193 46.4588 63.971 48.7536C64.0813 48.8053 64.1969 48.8298 64.3113 48.8298C64.6162 48.8298 64.9074 48.6556 65.0449 48.3602C65.2382 47.9546 65.0613 47.4728 64.6556 47.2863Z" fill="#A6D388"/>
<path d="M77.889 81.0006C79.822 81.0006 81.389 79.4336 81.389 77.5006C81.389 75.5677 79.822 74.0006 77.889 74.0006C75.956 74.0006 74.389 75.5677 74.389 77.5006C74.389 79.4336 75.956 81.0006 77.889 81.0006Z" fill="#AA8DD8"/>
<path d="M62.4995 65.334C62.4078 65.334 62.3143 65.3132 62.2269 65.2692C59.5503 63.9309 57.6534 60.67 57.0319 58.8049C56.9243 58.4847 57.0979 58.1388 57.4181 58.0318C57.7389 57.9243 58.0848 58.0984 58.1912 58.418C58.7271 60.0265 60.4449 63.0118 62.7739 64.1759C63.0758 64.3269 63.198 64.6941 63.047 64.996C62.9395 65.2105 62.7238 65.334 62.4995 65.334Z" fill="#77B255"/>
<path d="M68.0002 80.0006C70.3627 80.0006 72.2779 78.0854 72.2779 75.7229C72.2779 73.3603 70.3627 71.4451 68.0002 71.4451C65.6376 71.4451 63.7224 73.3603 63.7224 75.7229C63.7224 78.0854 65.6376 80.0006 68.0002 80.0006Z" fill="#553788"/>
<path d="M76.6668 77.5562C79.0294 77.5562 80.9446 75.641 80.9446 73.2784C80.9446 70.9159 79.0294 69.0006 76.6668 69.0006C74.3043 69.0006 72.389 70.9159 72.389 73.2784C72.389 75.641 74.3043 77.5562 76.6668 77.5562Z" fill="#553788"/>
<path d="M62.5002 71.4451C64.8627 71.4451 66.7779 69.5299 66.7779 67.1673C66.7779 64.8048 64.8627 62.8895 62.5002 62.8895C60.1376 62.8895 58.2224 64.8048 58.2224 67.1673C58.2224 69.5299 60.1376 71.4451 62.5002 71.4451Z" fill="#9266CC"/>
<path d="M68.0002 69.6118C70.3627 69.6118 72.2779 67.6965 72.2779 65.334C72.2779 62.9714 70.3627 61.0562 68.0002 61.0562C65.6376 61.0562 63.7224 62.9714 63.7224 65.334C63.7224 67.6965 65.6376 69.6118 68.0002 69.6118Z" fill="#AA8DD8"/>
<path d="M72.889 73.2784C75.2516 73.2784 77.1668 71.3632 77.1668 69.0006C77.1668 66.6381 75.2516 64.7229 72.889 64.7229C70.5265 64.7229 68.6113 66.6381 68.6113 69.0006C68.6113 71.3632 70.5265 73.2784 72.889 73.2784Z" fill="#744EAA"/>
<path d="M61.889 78.1673C64.2516 78.1673 66.1668 76.2521 66.1668 73.8895C66.1668 71.527 64.2516 69.6118 61.889 69.6118C59.5265 69.6118 57.6113 71.527 57.6113 73.8895C57.6113 76.2521 59.5265 78.1673 61.889 78.1673Z" fill="#744EAA"/>
<path d="M73.6668 83.5562C76.0294 83.5562 77.9446 81.641 77.9446 79.2784C77.9446 76.9159 76.0294 75.0006 73.6668 75.0006C71.3043 75.0006 69.389 76.9159 69.389 79.2784C69.389 81.641 71.3043 83.5562 73.6668 83.5562Z" fill="#744EAA"/>
<path d="M67.389 75.1118C69.7516 75.1118 71.6668 73.1965 71.6668 70.834C71.6668 68.4714 69.7516 66.5562 67.389 66.5562C65.0265 66.5562 63.1113 68.4714 63.1113 70.834C63.1113 73.1965 65.0265 75.1118 67.389 75.1118Z" fill="#9266CC"/>
<path d="M74.1113 80.0006C76.4738 80.0006 78.3891 78.0854 78.3891 75.7229C78.3891 73.3603 76.4738 71.4451 74.1113 71.4451C71.7487 71.4451 69.8335 73.3603 69.8335 75.7229C69.8335 78.0854 71.7487 80.0006 74.1113 80.0006Z" fill="#9266CC"/>
<path d="M79.2573 2.31845C77.6316 5.9799 76.7222 10.0099 76.7222 14.25C76.7222 30.8953 90.6016 44.3889 107.722 44.3889C121.063 44.3889 132.402 36.1791 136.773 24.6867L79.2573 2.31845Z" fill="#5C913B"/>
<path d="M82.4607 3.56361C80.9916 6.83928 80.1667 10.4491 80.1667 14.25C80.1667 29.0456 92.5047 41.0409 107.722 41.0409C119.612 41.0409 129.715 33.7042 133.578 23.4432L82.4607 3.56361Z" fill="#FFE8B6"/>
<path d="M85.6623 4.81051C84.3517 7.7004 83.6111 10.8882 83.6111 14.25C83.6111 27.1977 94.406 37.6912 107.722 37.6912C118.162 37.6912 127.028 31.2277 130.38 22.1998L85.6623 4.81051Z" fill="#DD2E44"/>
<path d="M92.0776 15.5882C91.5489 16.3804 90.8014 16.8075 90.4053 16.544C90.0092 16.2805 90.116 15.4263 90.6447 14.6341C91.1734 13.8418 91.9209 13.4147 92.317 13.6782C92.7131 13.9417 92.6063 14.7959 92.0776 15.5882ZM102.411 17.3104C101.882 18.1026 101.135 18.5297 100.739 18.2662C100.343 18.0027 100.449 17.1485 100.978 16.3563C101.507 15.5641 102.254 15.1369 102.65 15.4004C103.046 15.6639 102.94 16.5182 102.411 17.3104ZM111.163 25.3669C111.249 26.3159 110.936 27.1167 110.464 27.1598C109.99 27.2028 109.537 26.4709 109.451 25.5219C109.364 24.573 109.679 23.7722 110.151 23.7308C110.624 23.6861 111.077 24.4163 111.163 25.3669ZM95.6633 21.9225C95.7494 22.8714 95.4359 23.6723 94.964 23.7153C94.4904 23.7584 94.0375 23.0264 93.9514 22.0775C93.8653 21.1286 94.1787 20.3277 94.6506 20.2864C95.1259 20.2416 95.5771 20.9718 95.6633 21.9225ZM102.382 31.1295C101.808 31.889 101.038 32.2713 100.659 31.9854C100.279 31.6996 100.437 30.8522 101.012 30.0927C101.586 29.3332 102.358 28.9509 102.735 29.2368C103.115 29.5227 102.959 30.3683 102.382 31.1295ZM116.221 31.9114C116.692 32.7398 116.736 33.5974 116.325 33.8317C115.91 34.0676 115.195 33.5854 114.725 32.757C114.255 31.9303 114.21 31.0709 114.623 30.8367C115.038 30.5991 115.751 31.0796 116.221 31.9114ZM104.137 23.2521C104.658 24.0494 104.76 24.9019 104.362 25.162C103.964 25.4238 103.22 24.9898 102.699 24.1941C102.177 23.3984 102.077 22.5442 102.473 22.2859C102.871 22.0207 103.615 22.4529 104.137 23.2521ZM119.604 25.9628C119.03 26.7223 118.261 27.1047 117.88 26.8188C117.499 26.5329 117.658 25.6856 118.233 24.9261C118.806 24.1648 119.576 23.7842 119.955 24.0701C120.338 24.356 120.181 25.2016 119.604 25.9628Z" fill="black"/>
<g clip-path="url(#clip0_152:11531)">
<path d="M48.6353 33.1635C51.186 33.5342 53.4579 33.1906 55.4717 29.1918C56.746 26.6616 60.8523 25.2002 62.1463 22.6262C63.3902 20.1518 62.5301 14.6095 55.5659 11.9745C48.4076 9.26636 44.7797 9.99991 42.5342 14.4624C40.9705 17.5712 43.2209 21.434 43.3717 25.5713C43.4721 28.317 45.011 33.9827 48.6353 33.1635Z" fill="#BE1931"/>
<path d="M60.8564 14.5859C60.3814 13.5215 59.2788 12.5668 58.013 11.8297C58.197 11.893 58.3791 11.9538 58.5602 12.0306C59.1941 12.2997 61.2316 12.4003 59.7886 11.7891C59.1572 11.5213 58.5069 11.3492 57.8643 11.1556C58.0627 11.1337 58.2636 11.1146 58.4715 11.1116C58.6763 10.6651 56.1524 9.39557 54.3427 9.81985C54.0552 9.58668 53.9421 9.07439 52.0492 8.12223C50.7873 7.48745 48.7992 7.21955 49.8389 7.80104C50.4045 8.11795 51.1008 8.43581 50.8954 8.62104C50.4631 8.45101 48.2596 7.79723 47.9422 8.4282C47.8301 8.65094 49.7386 9.19503 49.8351 9.38036C48.5442 9.24017 47.3074 9.69014 46.99 10.3211C46.8558 10.588 48.6469 10.5023 49.2003 10.6423C48.252 10.9559 47.7771 11.2712 47.5833 11.7477C47.4565 12.0595 49.1186 12.4489 49.2976 12.4765C49.902 12.567 52.0378 12.8602 53.0646 12.2177C53.048 12.4346 54.5086 14.0042 55.1926 14.4471C55.508 14.6516 56.7588 15.4516 56.7692 14.678C56.772 14.4509 56.4584 13.5026 56.5754 12.7906C56.8628 12.9201 61.5061 16.0417 60.8564 14.5859Z" fill="#77B255"/>
<path d="M45.8258 17.8836C46.2034 16.9193 45.2553 15.0256 44.6724 16.5128C44.2949 17.4772 45.243 19.3709 45.8258 17.8836ZM50.3561 20.5996C50.51 20.1853 50.5562 19.7586 50.453 19.3272C50.3335 18.8323 49.8896 18.7576 49.5741 19.135C49.2025 19.5798 49.0697 20.2664 49.2036 20.824L49.2142 20.8673C49.2465 20.4684 49.2781 20.0692 49.3087 19.6704L49.2976 19.7019C49.1393 20.1283 48.999 20.9195 49.4094 21.2651C49.8274 21.6192 50.2442 20.9039 50.3561 20.5996ZM55.5219 19.3707C56.1254 18.9192 56.8867 16.9248 55.6177 17.874C55.0146 18.3249 54.2524 20.3197 55.5219 19.3707ZM60.5343 20.7401C60.6286 20.5053 60.7358 20.2247 60.6081 19.9787C60.1302 19.0599 58.3571 20.7114 58.7567 21.4825C58.7655 21.4964 58.7715 21.5097 58.779 21.5246L58.8618 20.8396C58.8561 20.851 58.8513 20.862 58.8472 20.8734C58.6991 21.2448 58.6474 21.8616 59.2303 21.8156C59.78 21.7711 60.3372 21.2308 60.5343 20.7401ZM56.9666 25.7187C58.1056 25.0512 57.718 23.3682 56.3328 24.1808C55.1941 24.8477 55.5824 26.5309 56.9666 25.7187ZM52.4212 25.7204C53.1455 24.5525 51.8378 23.2511 50.9949 24.6108C50.2707 25.7787 51.5784 27.0801 52.4212 25.7204ZM46.5618 21.8148L46.5296 21.8018L47.1621 22.6852C47.1596 22.6808 47.1586 22.6748 47.1561 22.6687C47.0519 22.395 46.6462 21.556 46.2158 21.7277C45.7805 21.9017 46.0791 22.7824 46.1826 23.0574C46.2988 23.3641 46.526 23.8334 46.8526 23.9716C47.7888 24.369 47.1853 22.0794 46.5618 21.8148ZM53.0329 29.74C53.9826 29.3749 54.7757 27.4147 53.2835 27.9875C52.3337 28.3526 51.5412 30.3132 53.0329 29.74ZM49.0105 16.6765C49.0708 16.7028 49.1323 16.7283 49.1932 16.7534C49.6514 16.9475 50.2882 16.1546 50.4702 15.8524C50.6792 15.5061 50.9052 14.9201 50.4214 14.7155L50.2381 14.6383C49.7803 14.4452 49.1431 15.2371 48.9611 15.5392C48.7521 15.8856 48.5264 16.4725 49.0105 16.6765ZM49.1187 28.7934C49.1255 29.4008 48.7626 29.8974 48.3077 29.9027C47.8529 29.9079 47.4772 29.4209 47.4695 28.8137C47.4628 28.2063 47.8256 27.7097 48.2805 27.7045C48.736 27.6996 49.111 28.1863 49.1187 28.7934Z" fill="#F4ABBA"/>
</g>
<g clip-path="url(#clip1_152:11531)">
<path d="M152 26.2917C154.684 24.754 157 30.875 155 41.1875C153.894 46.8903 150 51.5 146 54.9375C142 58.375 135 53.7917 139 49.2083C143 44.625 147 41.1875 149 34.3125C150.304 29.83 150 27.4375 152 26.2917Z" fill="#FFE8B6"/>
<path d="M155 33.1667C155 36.6042 154 43.4792 151 48.0625C148 52.6458 144 53.7917 147 49.2083C150 44.625 152 41.1875 153 36.6042C154 32.0208 155 28.5833 155 33.1667Z" fill="#FFD983"/>
<path d="M146 46.9167C145.704 47.595 147.167 42.5247 143 40.0417C141.016 38.8592 133 41.1875 139 41.1875C142 41.1875 143 43.4792 141 45.7708C140.709 46.1054 140.511 46.4618 140.378 46.8158C139.961 47.2123 139.505 47.6282 139 48.0625C136.737 50.007 133.16 52.9059 129 56.0833C126 58.375 125 59.5208 125 60.6667C125 64.1042 134 64.1042 139 61.8125C144 59.5208 149 53.7917 149 53.7917L153 49.2083C150 44.625 146 46.9167 146 46.9167Z" fill="#FFCC4D"/>
<path d="M146 46.9167C146 46.9167 147.792 41.498 143 38.8958C138.958 36.7004 135 37.75 132 40.0417C129 42.3333 130 44.625 129 45.7708C128 46.9167 130 48.0625 132 45.7708C134 43.4792 140.316 40.162 143 41.1875C146 42.3333 145 44.6239 146 46.9167Z" fill="#FFE8B6"/>
<path d="M150 64.1042H146C144 64.1042 143 65.25 142 65.25C141 65.25 140 62.9583 142 62.9583C144 62.9583 146 62.9583 147 61.8125C148 60.6667 152 64.1042 150 64.1042Z" fill="#A6D388"/>
<path d="M142 65.25C142.552 65.25 143 64.737 143 64.1042C143 63.4713 142.552 62.9583 142 62.9583C141.448 62.9583 141 63.4713 141 64.1042C141 64.737 141.448 65.25 142 65.25Z" fill="#3E721D"/>
<path d="M156.208 56.0833C156.208 56.0833 152 64.1042 150 64.1042H146C144 64.1042 146 62.9583 147 61.8125C148 60.6667 152 61.8125 152 54.9375C152 51.5 156.208 56.0833 156.208 56.0833Z" fill="#FFCC4D"/>
<path d="M150 45.7708C153 45.7708 158 49.2083 157 56.0833C156 62.9583 152 64.1042 150 64.1042H148C146 64.1042 147 62.9583 148 61.8125C149 60.6667 152 61.8125 152 54.9375C152 51.5 148 46.9167 146 46.9167C146 46.9167 148 45.7708 150 45.7708Z" fill="#FFE8B6"/>
<path d="M141 48.0625C144 48.0625 146 49.2083 144 51.5C142.419 53.3116 138 57.2292 134 58.375C130 59.5208 126 59.5208 129 57.2292C132 54.9375 138.764 48.0625 141 48.0625Z" fill="#FFD983"/>
<path d="M126 59.5208C127 59.5208 127 59.5208 127 60.2851C127 61.0482 127 61.8125 126 61.8125C125 61.8125 125 60.2851 125 60.2851C125 60.2851 125 59.5208 126 59.5208Z" fill="#C1694F"/>
</g>
<g clip-path="url(#clip2_152:11531)">
<path d="M122.277 49.0352C122.685 48.7728 123.047 47.7886 123.439 47.6628C123.83 47.537 125.404 48.0332 125.598 48.1969C125.793 48.3605 125.656 49.6883 125.719 50.0456C125.782 50.4029 125.277 50.5838 124.092 50.19C122.908 49.7958 122.277 49.0352 122.277 49.0352Z" fill="#77B255"/>
<path d="M109.572 55.1229C112.199 50.3222 118.189 47.2715 121.408 48.2211C123.561 48.8558 125.288 49.3051 126.969 49.2186C129.188 49.1034 131.912 50.7222 133.732 52.6559C136.2 55.2768 141.871 64.6696 136.394 75.1838C132.878 81.9343 123.563 88.78 122.067 88.7313C120.938 88.6941 116.862 88.7379 112.734 85.2496C108.605 81.7613 101.698 69.5118 109.572 55.1229Z" fill="#EA564B"/>
<path d="M113.753 52.2624C117.627 48.3346 123.019 50.2039 121.006 51.5823C117.383 54.0636 115.634 60.7923 114.231 65.9202C111.656 75.3301 114.289 83.647 112.852 82.7797C110.513 81.3686 106.714 74.1564 107.88 65.4948C109.045 56.8332 112.122 53.9177 113.753 52.2624Z" fill="#F97253"/>
<path d="M124.345 48.9143C126.642 48.6201 131.182 51.2541 132.86 54.575C137.333 63.4268 135.532 68.6728 135.532 68.6728C135.532 68.6728 128.34 60.369 126.883 56.7432C125.82 54.0957 126.67 52.7652 126.146 51.2258C125.66 49.7934 124.345 48.9143 124.345 48.9143Z" fill="#77B255"/>
</g>
<g clip-path="url(#clip3_152:11531)">
<path d="M35.1185 33.5421C36.8649 29.6231 33.9029 23.1096 33.7227 24.1696C33.9029 23.1096 28.8973 27.1221 29.2027 31.6851C28.3571 30.3031 23.7679 25.512 24.9189 31.457C26.0691 37.4026 27.095 37.7247 27.9406 39.1067C28.7862 40.4887 31.1994 39.0122 31.1994 39.0122C31.1994 39.0122 32.7098 41.7203 33.9168 40.9818C35.1229 40.2438 35.9689 40.5094 38.9219 35.8534C41.8753 31.1959 36.3247 32.8041 35.1185 33.5421Z" fill="#77B255"/>
<path d="M36.4873 52.3987C34.5457 63.816 27.1205 75.7017 24.5551 74.8964C21.9897 74.0911 19.1556 58.9842 21.0963 47.5675C23.0379 36.1503 26.4091 34.1588 31.2259 35.67C36.0424 37.1827 38.4289 40.9815 36.4873 52.3987Z" fill="#F4900C"/>
<path d="M30.6182 43.8545C29.2078 43.4117 26.5898 42.5781 22.9643 40.3353C22.6162 41.2092 22.2912 42.2127 21.9907 43.3598C26.5423 45.4282 32.0976 44.3181 30.6182 43.8545ZM29.0608 55.6505C27.5502 55.1764 24.6522 54.2509 20.6121 51.6237C20.5237 52.7954 20.4739 53.9825 20.4601 55.169C25.0056 57.2196 30.535 56.1133 29.0608 55.6505ZM36.7846 50.4531C32.5291 50.3595 29.7633 49.4968 28.2955 49.0369C26.8142 48.5703 31.4663 52.8932 36.2323 53.7369C36.3241 53.2912 36.699 51.0777 36.7846 50.4531ZM31.9685 65.9248C32.4377 64.9768 32.8944 63.9815 33.3294 62.9469C29.3983 62.7932 26.803 61.9928 25.4027 61.5533C24.0643 61.1323 27.7336 64.6231 31.9685 65.9248Z" fill="#D67503"/>
</g>
<g clip-path="url(#clip4_152:11531)">
<path d="M97.8756 47.7575L90.3019 51.4698L82.728 55.183C82.728 55.183 95.223 58.06 95.4316 70.1645C95.4316 70.1645 98.4513 69.9052 101.636 68.3442C104.82 66.7833 106.606 64.6871 106.606 64.6871C94.4776 58.4245 97.8756 47.7575 97.8756 47.7575Z" fill="#77B255"/>
<path d="M86.9456 54.3358C90.7828 56.1166 96.0935 62.0586 96.0935 62.0586L88.6924 51.0395C86.2256 47.367 86.9456 54.3358 86.9456 54.3358ZM97.3909 44.3334C97.3909 44.3334 95.3718 55.0872 99.3131 62.9213C92.5285 52.8201 92.6652 49.0914 92.6652 49.0914L97.3909 44.3334Z" fill="#5C913B"/>
<path d="M104.008 42.0056C104.23 41.3747 104.159 40.6507 103.727 40.0069C102.932 38.8239 101.25 38.3731 99.9706 39.0003C99.8545 39.0572 99.7535 39.1285 99.6517 39.1986C99.6463 38.7716 99.5228 38.3337 99.2506 37.9285C98.9869 37.5358 98.6209 37.2328 98.2095 37.0149C98.1958 36.6012 98.0753 36.1787 97.8116 35.786C97.0171 34.6031 95.3347 34.1523 94.0552 34.7795C93.2606 33.5965 91.5783 33.1458 90.2987 33.773C89.818 34.0086 89.4622 34.3625 89.2482 34.7762C88.3711 34.0961 87.1147 33.9106 86.1031 34.4056C85.6647 34.6205 85.3388 34.9379 85.1207 35.305C85.0675 35.1934 85.0157 35.0812 84.9437 34.9739C84.1491 33.7909 82.4668 33.3402 81.1872 33.9673C80.1753 34.4633 79.7287 35.4835 79.9746 36.4739C79.4483 36.424 78.9113 36.5068 78.4306 36.7424C77.7341 37.0838 77.3121 37.6758 77.1882 38.3331C76.4616 38.0918 75.6502 38.1053 74.9537 38.4466C73.6741 39.0738 73.2807 40.542 74.0753 41.725C73.0634 42.221 72.6168 43.2412 72.8627 44.2316C72.3364 44.1816 71.7993 44.2645 71.3186 44.5001C70.0391 45.1273 69.6456 46.5955 70.4402 47.7784C70.7387 48.2228 71.1621 48.564 71.6432 48.783C70.9361 49.518 70.8127 50.6248 71.44 51.56C71.7122 51.9653 72.0924 52.2773 72.5212 52.4968C72.399 52.5365 72.276 52.575 72.1599 52.6319C70.8803 53.2591 70.4869 54.7273 71.2815 55.9102C71.9074 56.8461 73.0881 57.3137 74.1889 57.1634C74.1674 57.6287 74.2986 58.1132 74.5971 58.5576C75.3916 59.7405 77.074 60.1913 78.3535 59.5641C78.7919 59.3493 79.1178 59.0318 79.3359 58.6647C79.3891 58.7763 79.4409 58.8885 79.5129 58.9958C80.3075 60.1788 81.9898 60.6296 83.2694 60.0024C83.7501 59.7668 84.1059 59.4128 84.32 58.9991C85.197 59.6793 86.4534 59.8648 87.465 59.3697C88.477 58.8737 88.9235 57.8536 88.6776 56.8632C89.204 56.9131 89.741 56.8303 90.2217 56.5947C90.6601 56.3798 90.9859 56.0623 91.2041 55.6953C91.2572 55.8068 91.309 55.9191 91.3811 56.0264C92.1757 57.2093 93.858 57.6601 95.1376 57.0329C96.1495 56.5369 96.596 55.5167 96.3501 54.5263C96.8765 54.5763 97.4135 54.4934 97.8942 54.2578C98.7627 53.8321 99.2107 53.0193 99.1685 52.1716C99.2781 52.1346 99.3877 52.1019 99.4928 52.0504C100.189 51.709 100.611 51.117 100.735 50.4597C101.462 50.701 102.273 50.6875 102.97 50.3462C104.249 49.719 104.643 48.2508 103.848 47.0678C103.776 46.9605 103.689 46.8657 103.603 46.7702C104.084 46.7945 104.569 46.7144 105.008 46.4995C106.287 45.8723 106.68 44.4041 105.886 43.2212C105.453 42.5773 104.757 42.1609 104.008 42.0056Z" fill="#3E721D"/>
<path d="M75.824 54.3684C76.0445 53.5453 75.4587 52.6731 74.5156 52.4204C73.5724 52.1676 72.629 52.6301 72.4084 53.4532C72.1879 54.2763 72.7737 55.1485 73.7168 55.4012C74.66 55.6539 75.6034 55.1915 75.824 54.3684Z" fill="#5C913B"/>
<path d="M76.9537 50.1521C77.1743 49.329 76.5885 48.4568 75.6453 48.2041C74.7021 47.9514 73.7587 48.4138 73.5382 49.2369C73.3176 50.0601 73.9034 50.9322 74.8466 51.1849C75.7898 51.4377 76.7331 50.9753 76.9537 50.1521Z" fill="#5C913B"/>
<path d="M74.487 46.4795C74.7075 45.6564 74.1217 44.7842 73.1786 44.5315C72.2354 44.2788 71.292 44.7412 71.0714 45.5643C70.8509 46.3875 71.4367 47.2596 72.3798 47.5124C73.323 47.7651 74.2664 47.3027 74.487 46.4795Z" fill="#5C913B"/>
<path d="M77.8433 43.6136C78.0639 42.7904 77.4781 41.9183 76.5349 41.6655C75.5917 41.4128 74.6483 41.8752 74.4277 42.6984C74.2072 43.5215 74.793 44.3937 75.7362 44.6464C76.6793 44.8991 77.6227 44.4367 77.8433 43.6136Z" fill="#5C913B"/>
<path d="M78.5962 40.8037C78.8168 39.9806 78.231 39.1084 77.2878 38.8557C76.3446 38.6029 75.4012 39.0654 75.1807 39.8885C74.9601 40.7116 75.5459 41.5838 76.4891 41.8365C77.4323 42.0892 78.3757 41.6268 78.5962 40.8037Z" fill="#5C913B"/>
<path d="M81.1996 40.7476C81.4202 39.9245 80.8344 39.0523 79.8912 38.7996C78.948 38.5469 78.0047 39.0093 77.7841 39.8324C77.5635 40.6555 78.1493 41.5277 79.0925 41.7804C80.0357 42.0332 80.9791 41.5707 81.1996 40.7476Z" fill="#5C913B"/>
<path d="M82.569 38.8556C82.7896 38.0324 82.2038 37.1603 81.2606 36.9075C80.3174 36.6548 79.374 37.1172 79.1535 37.9404C78.9329 38.7635 79.5187 39.6357 80.4619 39.8884C81.4051 40.1411 82.3485 39.6787 82.569 38.8556Z" fill="#5C913B"/>
<path d="M84.9323 36.4772C85.1529 35.654 84.5671 34.7819 83.6239 34.5292C82.6807 34.2764 81.7373 34.7388 81.5168 35.562C81.2962 36.3851 81.882 37.2573 82.8252 37.51C83.7684 37.7627 84.7118 37.3003 84.9323 36.4772Z" fill="#5C913B"/>
<path d="M87.1592 37.8265C87.3797 37.0034 86.7939 36.1312 85.8508 35.8785C84.9076 35.6258 83.9642 36.0882 83.7436 36.9113C83.5231 37.7344 84.1089 38.6066 85.052 38.8593C85.9952 39.1121 86.9386 38.6496 87.1592 37.8265Z" fill="#5C913B"/>
<path d="M91.7493 36.7975C91.9699 35.9743 91.3841 35.1022 90.4409 34.8494C89.4977 34.5967 88.5543 35.0591 88.3337 35.8823C88.1132 36.7054 88.699 37.5776 89.6422 37.8303C90.5853 38.083 91.5287 37.6206 91.7493 36.7975Z" fill="#5C913B"/>
<path d="M95.9629 37.1738C96.1834 36.3507 95.5976 35.4785 94.6544 35.2258C93.7113 34.9731 92.7679 35.4355 92.5473 36.2586C92.3267 37.0818 92.9125 37.9539 93.8557 38.2067C94.7989 38.4594 95.7423 37.997 95.9629 37.1738Z" fill="#5C913B"/>
<path d="M86.406 40.6373C86.6266 39.8142 86.0408 38.9421 85.0976 38.6893C84.1544 38.4366 83.211 38.899 82.9905 39.7222C82.7699 40.5453 83.3557 41.4175 84.2989 41.6702C85.2421 41.9229 86.1855 41.4605 86.406 40.6373Z" fill="#5C913B"/>
<path d="M82.4334 42.5845C82.654 41.7614 82.0682 40.8892 81.125 40.6365C80.1818 40.3838 79.2384 40.8462 79.0179 41.6693C78.7973 42.4925 79.3831 43.3646 80.3263 43.6173C81.2695 43.8701 82.2129 43.4077 82.4334 42.5845Z" fill="#5C913B"/>
<path d="M79.0771 45.4505C79.2977 44.6274 78.7119 43.7552 77.7687 43.5025C76.8255 43.2497 75.8821 43.7122 75.6616 44.5353C75.441 45.3584 76.0268 46.2306 76.97 46.4833C77.9132 46.736 78.8566 46.2736 79.0771 45.4505Z" fill="#5C913B"/>
<path d="M79.5569 50.097C79.7774 49.2739 79.1916 48.4017 78.2485 48.149C77.3053 47.8963 76.3619 48.3587 76.1413 49.1818C75.9208 50.0049 76.5066 50.8771 77.4498 51.1298C78.3929 51.3825 79.3363 50.9201 79.5569 50.097Z" fill="#5C913B"/>
<path d="M78.3242 48.2604C78.5447 47.4372 77.9589 46.5651 77.0158 46.3123C76.0726 46.0596 75.1292 46.522 74.9086 47.3452C74.6881 48.1683 75.2739 49.0405 76.2171 49.2932C77.1602 49.5459 78.1036 49.0835 78.3242 48.2604Z" fill="#5C913B"/>
<path d="M80.4141 53.3393C80.6347 52.5162 80.0489 51.644 79.1057 51.3913C78.1625 51.1386 77.2191 51.601 76.9986 52.4241C76.778 53.2473 77.3638 54.1194 78.307 54.3722C79.2502 54.6249 80.1936 54.1625 80.4141 53.3393Z" fill="#5C913B"/>
<path d="M83.9071 46.7447C84.1277 45.9216 83.5419 45.0494 82.5987 44.7967C81.6555 44.544 80.7121 45.0064 80.4916 45.8295C80.271 46.6526 80.8568 47.5248 81.8 47.7775C82.7432 48.0302 83.6866 47.5678 83.9071 46.7447Z" fill="#5C913B"/>
<path d="M90.8597 43.336C91.0803 42.5129 90.4945 41.6407 89.5513 41.388C88.6081 41.1353 87.6647 41.5977 87.4442 42.4208C87.2236 43.244 87.8094 44.1161 88.7526 44.3688C89.6958 44.6216 90.6392 44.1591 90.8597 43.336Z" fill="#5C913B"/>
<path d="M96.0672 43.2261C96.2877 42.4029 95.7019 41.5308 94.7588 41.278C93.8156 41.0253 92.8722 41.4877 92.6516 42.3109C92.4311 43.134 93.0169 44.0062 93.96 44.2589C94.9032 44.5116 95.8466 44.0492 96.0672 43.2261Z" fill="#5C913B"/>
</g>
</g>
<g filter="url(#filter0_b_152:11531)">
<rect x="13" y="77" width="141" height="77" rx="10" fill="black" fill-opacity="0.8"/>
</g>
<path d="M26.1073 96.496L26.0653 98.932L27.3253 98.946L28.8513 98.904L28.9773 99.044L28.8373 100.458L27.1713 100.416L26.0373 100.43L26.0233 101.144L26.1073 104H24.2033L24.3013 101.312L24.2033 94.984H29.5653L29.6773 95.138L29.5373 96.566L27.3953 96.482L26.1073 96.496ZM30.4761 101.312L30.4061 97.616L32.2401 97.462L32.1561 101.13L32.2401 104H30.3781L30.4761 101.312ZM31.3581 94.298C31.6474 94.298 31.8714 94.382 32.0301 94.55C32.1981 94.718 32.2821 94.9513 32.2821 95.25C32.2821 95.5673 32.1934 95.8193 32.0161 96.006C31.8388 96.1927 31.5961 96.286 31.2881 96.286C30.9801 96.286 30.7421 96.202 30.5741 96.034C30.4154 95.866 30.3361 95.628 30.3361 95.32C30.3361 95.012 30.4248 94.7647 30.6021 94.578C30.7888 94.3913 31.0408 94.298 31.3581 94.298ZM37.5145 97.406C38.3358 97.406 38.9612 97.686 39.3905 98.246C39.8292 98.7967 40.0485 99.5667 40.0485 100.556C40.0485 101.704 39.7638 102.591 39.1945 103.216C38.6252 103.832 37.8365 104.14 36.8285 104.14C36.3525 104.14 35.8298 104.033 35.2605 103.818L34.2805 104.168L34.0565 103.986L34.1545 101.326L34.0705 94.312L35.9185 94.172L35.8625 98.414H35.9465C36.2078 98.162 36.4598 97.9613 36.7025 97.812C36.9452 97.6533 37.2158 97.518 37.5145 97.406ZM36.8285 102.922C37.2952 102.922 37.6592 102.754 37.9205 102.418C38.1818 102.082 38.3125 101.569 38.3125 100.878C38.3125 100.234 38.2052 99.744 37.9905 99.408C37.7852 99.072 37.4725 98.904 37.0525 98.904C36.6698 98.904 36.2685 99.1 35.8485 99.492L35.8205 101.088L35.8485 102.67C36.1938 102.838 36.5205 102.922 36.8285 102.922ZM44.8446 97.476C44.9286 97.476 45.0452 97.4853 45.1946 97.504V99.226L44.9986 99.296C44.8399 99.2307 44.6672 99.198 44.4806 99.198C43.9392 99.198 43.4492 99.548 43.0106 100.248V101.13L43.1086 104H41.2466L41.3586 101.312L41.2746 97.616L43.0386 97.462L43.0246 98.736H43.1366C43.5939 97.896 44.1632 97.476 44.8446 97.476ZM48.539 97.364C49.2577 97.364 49.8177 97.5273 50.219 97.854C50.6297 98.1713 50.835 98.6193 50.835 99.198C50.835 99.366 50.807 99.898 50.751 100.794C50.7417 101.055 50.7277 101.326 50.709 101.606C50.6904 101.877 50.681 102.11 50.681 102.306C50.681 102.465 50.7044 102.577 50.751 102.642C50.7977 102.698 50.8817 102.726 51.003 102.726C51.0964 102.726 51.2177 102.707 51.367 102.67L51.507 102.782L51.339 103.762C51.0404 103.958 50.6997 104.075 50.317 104.112C50.037 104.084 49.8037 103.986 49.617 103.818C49.4304 103.641 49.3044 103.398 49.239 103.09H49.141C48.6744 103.585 48.1937 103.93 47.699 104.126C47.027 104.117 46.4997 103.939 46.117 103.594C45.7344 103.249 45.543 102.777 45.543 102.18C45.543 101.713 45.6597 101.349 45.893 101.088C46.1357 100.817 46.4997 100.635 46.985 100.542L49.127 100.136V99.562C49.127 98.9553 48.8284 98.652 48.231 98.652C47.9417 98.652 47.6337 98.7173 47.307 98.848C46.9897 98.9787 46.6304 99.184 46.229 99.464L46.089 99.38L45.879 98.148C46.2804 97.896 46.7097 97.7047 47.167 97.574C47.6244 97.434 48.0817 97.364 48.539 97.364ZM47.629 101.396C47.4797 101.433 47.3677 101.499 47.293 101.592C47.2277 101.676 47.195 101.807 47.195 101.984C47.195 102.227 47.2604 102.418 47.391 102.558C47.5217 102.689 47.7037 102.754 47.937 102.754C48.301 102.754 48.6837 102.539 49.085 102.11L49.113 101.074L47.629 101.396ZM57.3984 97.364C58.1171 97.364 58.6771 97.5273 59.0784 97.854C59.4891 98.1713 59.6944 98.6193 59.6944 99.198C59.6944 99.366 59.6664 99.898 59.6104 100.794C59.6011 101.055 59.5871 101.326 59.5684 101.606C59.5498 101.877 59.5404 102.11 59.5404 102.306C59.5404 102.465 59.5638 102.577 59.6104 102.642C59.6571 102.698 59.7411 102.726 59.8624 102.726C59.9558 102.726 60.0771 102.707 60.2264 102.67L60.3664 102.782L60.1984 103.762C59.8998 103.958 59.5591 104.075 59.1764 104.112C58.8964 104.084 58.6631 103.986 58.4764 103.818C58.2898 103.641 58.1638 103.398 58.0984 103.09H58.0004C57.5338 103.585 57.0531 103.93 56.5584 104.126C55.8864 104.117 55.3591 103.939 54.9764 103.594C54.5938 103.249 54.4024 102.777 54.4024 102.18C54.4024 101.713 54.5191 101.349 54.7524 101.088C54.9951 100.817 55.3591 100.635 55.8444 100.542L57.9864 100.136V99.562C57.9864 98.9553 57.6878 98.652 57.0904 98.652C56.8011 98.652 56.4931 98.7173 56.1664 98.848C55.8491 98.9787 55.4898 99.184 55.0884 99.464L54.9484 99.38L54.7384 98.148C55.1398 97.896 55.5691 97.7047 56.0264 97.574C56.4838 97.434 56.9411 97.364 57.3984 97.364ZM56.4884 101.396C56.3391 101.433 56.2271 101.499 56.1524 101.592C56.0871 101.676 56.0544 101.807 56.0544 101.984C56.0544 102.227 56.1198 102.418 56.2504 102.558C56.3811 102.689 56.5631 102.754 56.7964 102.754C57.1604 102.754 57.5431 102.539 57.9444 102.11L57.9724 101.074L56.4884 101.396ZM63.3967 101.13L63.4947 104H61.6327L61.7307 101.298L61.6467 94.312L63.5087 94.172L63.3967 101.13ZM65.3804 101.312L65.3104 97.616L67.1444 97.462L67.0604 101.13L67.1444 104H65.2824L65.3804 101.312ZM66.2624 94.298C66.5517 94.298 66.7757 94.382 66.9344 94.55C67.1024 94.718 67.1864 94.9513 67.1864 95.25C67.1864 95.5673 67.0977 95.8193 66.9204 96.006C66.7431 96.1927 66.5004 96.286 66.1924 96.286C65.8844 96.286 65.6464 96.202 65.4784 96.034C65.3197 95.866 65.2404 95.628 65.2404 95.32C65.2404 95.012 65.3291 94.7647 65.5064 94.578C65.6931 94.3913 65.9451 94.298 66.2624 94.298ZM76.7028 104L76.8148 99.94C76.8148 99.2493 76.5208 98.904 75.9328 98.904C75.5128 98.904 75.0741 99.0907 74.6168 99.464L74.5748 101.144L74.6588 104H72.7968L72.9088 99.94C72.9181 99.604 72.8434 99.3473 72.6848 99.17C72.5354 98.9927 72.3161 98.904 72.0268 98.904C71.6161 98.904 71.1634 99.1 70.6688 99.492V101.13L70.7528 104H68.9048L69.0028 101.312L68.9328 97.616L70.6828 97.462V98.414H70.7808C71.2941 97.9473 71.8588 97.6113 72.4748 97.406C73.5201 97.406 74.1874 97.756 74.4768 98.456H74.5608C75.0928 97.9613 75.6994 97.6113 76.3808 97.406C77.0901 97.406 77.6268 97.5693 77.9908 97.896C78.3641 98.2133 78.5414 98.6753 78.5228 99.282L78.4808 101.144L78.5648 104H76.7028ZM85.2378 100.976L81.4578 101.004C81.5418 102.171 82.1344 102.754 83.2358 102.754C83.8144 102.754 84.4584 102.591 85.1678 102.264L85.3218 102.362L85.0418 103.748C84.3324 104.009 83.6651 104.14 83.0397 104.14C82.0131 104.14 81.2058 103.841 80.6178 103.244C80.0391 102.647 79.7498 101.821 79.7498 100.766C79.7498 99.7207 80.0344 98.8947 80.6038 98.288C81.1731 97.672 81.9431 97.364 82.9138 97.364C83.7444 97.364 84.3838 97.5927 84.8318 98.05C85.2891 98.498 85.5178 99.128 85.5178 99.94C85.5178 100.155 85.4944 100.425 85.4478 100.752L85.2378 100.976ZM83.8938 99.73C83.8938 99.3567 83.8098 99.0767 83.6418 98.89C83.4738 98.694 83.2264 98.596 82.8998 98.596C82.5358 98.596 82.2324 98.7173 81.9898 98.96C81.7471 99.1933 81.5838 99.534 81.4998 99.982L83.8658 99.926L83.8938 99.73ZM90.8053 99.94C90.8146 99.6133 90.7399 99.3613 90.5813 99.184C90.4319 98.9973 90.2126 98.904 89.9233 98.904C89.5033 98.904 89.0553 99.1047 88.5793 99.506V101.13L88.6633 104H86.8013L86.8993 101.312L86.8293 97.616L88.5933 97.462V98.414H88.6913C89.2046 97.9473 89.7646 97.6113 90.3713 97.406C91.0806 97.406 91.6219 97.5693 91.9953 97.896C92.3686 98.2133 92.5459 98.6753 92.5273 99.282L92.4853 101.144L92.5693 104H90.6933L90.8053 99.94ZM96.8434 102.628C97.1421 102.628 97.4548 102.549 97.7814 102.39L97.9354 102.53L97.7534 103.636C97.2774 103.879 96.7921 104.028 96.2974 104.084C95.0374 103.953 94.4074 103.337 94.4074 102.236L94.4774 101.074L94.4634 98.666H93.5954L93.5254 98.568L93.6234 97.546H94.4494V96.468L96.1434 95.922L96.2694 96.034L96.2274 97.546H97.8934L97.9494 97.644L97.8654 98.666H96.1994L96.1154 101.802C96.1154 102.101 96.1714 102.315 96.2834 102.446C96.3954 102.567 96.5821 102.628 96.8434 102.628ZM101.504 97.364C102.223 97.364 102.783 97.5273 103.184 97.854C103.595 98.1713 103.8 98.6193 103.8 99.198C103.8 99.366 103.772 99.898 103.716 100.794C103.707 101.055 103.693 101.326 103.674 101.606C103.655 101.877 103.646 102.11 103.646 102.306C103.646 102.465 103.669 102.577 103.716 102.642C103.763 102.698 103.847 102.726 103.968 102.726C104.061 102.726 104.183 102.707 104.332 102.67L104.472 102.782L104.304 103.762C104.005 103.958 103.665 104.075 103.282 104.112C103.002 104.084 102.769 103.986 102.582 103.818C102.395 103.641 102.269 103.398 102.204 103.09H102.106C101.639 103.585 101.159 103.93 100.664 104.126C99.9919 104.117 99.4646 103.939 99.0819 103.594C98.6992 103.249 98.5079 102.777 98.5079 102.18C98.5079 101.713 98.6246 101.349 98.8579 101.088C99.1006 100.817 99.4646 100.635 99.9499 100.542L102.092 100.136V99.562C102.092 98.9553 101.793 98.652 101.196 98.652C100.907 98.652 100.599 98.7173 100.272 98.848C99.9546 98.9787 99.5952 99.184 99.1939 99.464L99.0539 99.38L98.8439 98.148C99.2452 97.896 99.6746 97.7047 100.132 97.574C100.589 97.434 101.047 97.364 101.504 97.364ZM100.594 101.396C100.445 101.433 100.333 101.499 100.258 101.592C100.193 101.676 100.16 101.807 100.16 101.984C100.16 102.227 100.225 102.418 100.356 102.558C100.487 102.689 100.669 102.754 100.902 102.754C101.266 102.754 101.649 102.539 102.05 102.11L102.078 101.074L100.594 101.396ZM109.198 97.476C109.282 97.476 109.399 97.4853 109.548 97.504V99.226L109.352 99.296C109.193 99.2307 109.021 99.198 108.834 99.198C108.293 99.198 107.803 99.548 107.364 100.248V101.13L107.462 104H105.6L105.712 101.312L105.628 97.616L107.392 97.462L107.378 98.736H107.49C107.947 97.896 108.517 97.476 109.198 97.476ZM115.148 97.364C115.867 97.364 116.427 97.5273 116.828 97.854C117.239 98.1713 117.444 98.6193 117.444 99.198C117.444 99.366 117.416 99.898 117.36 100.794C117.351 101.055 117.337 101.326 117.318 101.606C117.3 101.877 117.29 102.11 117.29 102.306C117.29 102.465 117.314 102.577 117.36 102.642C117.407 102.698 117.491 102.726 117.612 102.726C117.706 102.726 117.827 102.707 117.976 102.67L118.116 102.782L117.948 103.762C117.65 103.958 117.309 104.075 116.926 104.112C116.646 104.084 116.413 103.986 116.226 103.818C116.04 103.641 115.914 103.398 115.848 103.09H115.75C115.284 103.585 114.803 103.93 114.308 104.126C113.636 104.117 113.109 103.939 112.726 103.594C112.344 103.249 112.152 102.777 112.152 102.18C112.152 101.713 112.269 101.349 112.502 101.088C112.745 100.817 113.109 100.635 113.594 100.542L115.736 100.136V99.562C115.736 98.9553 115.438 98.652 114.84 98.652C114.551 98.652 114.243 98.7173 113.916 98.848C113.599 98.9787 113.24 99.184 112.838 99.464L112.698 99.38L112.488 98.148C112.89 97.896 113.319 97.7047 113.776 97.574C114.234 97.434 114.691 97.364 115.148 97.364ZM114.238 101.396C114.089 101.433 113.977 101.499 113.902 101.592C113.837 101.676 113.804 101.807 113.804 101.984C113.804 102.227 113.87 102.418 114 102.558C114.131 102.689 114.313 102.754 114.546 102.754C114.91 102.754 115.293 102.539 115.694 102.11L115.722 101.074L114.238 101.396ZM121.553 97.49L121.441 101.13L121.525 103.622C121.525 104.359 121.347 104.971 120.993 105.456C120.638 105.941 120.055 106.366 119.243 106.73L118.599 105.904V105.736C119.019 105.503 119.317 105.227 119.495 104.91C119.672 104.593 119.761 104.182 119.761 103.678L119.789 101.312L119.733 98.666H118.599L118.487 98.554L118.585 97.546H119.761L121.497 97.448L121.553 97.49ZM120.475 94.298C120.764 94.298 120.988 94.382 121.147 94.55C121.315 94.718 121.399 94.9513 121.399 95.25C121.399 95.5673 121.31 95.8193 121.133 96.006C120.955 96.1927 120.713 96.286 120.405 96.286C120.097 96.286 119.859 96.202 119.691 96.034C119.532 95.866 119.453 95.628 119.453 95.32C119.453 95.012 119.541 94.7647 119.719 94.578C119.905 94.3913 120.157 94.298 120.475 94.298ZM129.535 102.782L129.367 103.762C129.022 103.986 128.667 104.103 128.303 104.112C128.032 104.065 127.808 103.958 127.631 103.79C127.454 103.622 127.318 103.379 127.225 103.062H127.099C126.567 103.585 126.016 103.925 125.447 104.084C124.738 104.084 124.196 103.925 123.823 103.608C123.459 103.281 123.282 102.815 123.291 102.208L123.319 100.556L123.249 97.616L125.055 97.462L125.013 101.592C125.004 101.919 125.069 102.166 125.209 102.334C125.349 102.502 125.559 102.586 125.839 102.586C126.25 102.586 126.656 102.404 127.057 102.04V97.616L128.835 97.462L128.709 102.306C128.709 102.455 128.732 102.563 128.779 102.628C128.835 102.693 128.919 102.726 129.031 102.726C129.134 102.726 129.26 102.707 129.409 102.67L129.535 102.782ZM136.065 101.13L136.107 102.306C136.107 102.465 136.126 102.577 136.163 102.642C136.21 102.698 136.289 102.726 136.401 102.726C136.504 102.726 136.63 102.707 136.779 102.67L136.905 102.782L136.751 103.762C136.434 103.958 136.089 104.075 135.715 104.112C135.426 104.084 135.183 103.986 134.987 103.818C134.791 103.65 134.656 103.421 134.581 103.132H134.469C134.012 103.552 133.545 103.874 133.069 104.098C132.155 104.098 131.445 103.809 130.941 103.23C130.437 102.642 130.185 101.83 130.185 100.794C130.185 99.6927 130.475 98.848 131.053 98.26C131.632 97.672 132.435 97.378 133.461 97.378C133.732 97.378 134.031 97.406 134.357 97.462L134.329 94.312L136.177 94.172L136.065 101.13ZM133.335 98.638C132.402 98.638 131.935 99.2307 131.935 100.416C131.935 101.153 132.047 101.709 132.271 102.082C132.495 102.455 132.822 102.642 133.251 102.642C133.662 102.642 134.04 102.451 134.385 102.068L134.413 101.298L134.371 98.89C134.007 98.722 133.662 98.638 133.335 98.638ZM140.564 97.364C141.283 97.364 141.843 97.5273 142.244 97.854C142.655 98.1713 142.86 98.6193 142.86 99.198C142.86 99.366 142.832 99.898 142.776 100.794C142.767 101.055 142.753 101.326 142.734 101.606C142.716 101.877 142.706 102.11 142.706 102.306C142.706 102.465 142.73 102.577 142.776 102.642C142.823 102.698 142.907 102.726 143.028 102.726C143.122 102.726 143.243 102.707 143.392 102.67L143.532 102.782L143.364 103.762C143.066 103.958 142.725 104.075 142.342 104.112C142.062 104.084 141.829 103.986 141.642 103.818C141.456 103.641 141.33 103.398 141.264 103.09H141.166C140.7 103.585 140.219 103.93 139.724 104.126C139.052 104.117 138.525 103.939 138.142 103.594C137.76 103.249 137.568 102.777 137.568 102.18C137.568 101.713 137.685 101.349 137.918 101.088C138.161 100.817 138.525 100.635 139.01 100.542L141.152 100.136V99.562C141.152 98.9553 140.854 98.652 140.256 98.652C139.967 98.652 139.659 98.7173 139.332 98.848C139.015 98.9787 138.656 99.184 138.254 99.464L138.114 99.38L137.904 98.148C138.306 97.896 138.735 97.7047 139.192 97.574C139.65 97.434 140.107 97.364 140.564 97.364ZM139.654 101.396C139.505 101.433 139.393 101.499 139.318 101.592C139.253 101.676 139.22 101.807 139.22 101.984C139.22 102.227 139.286 102.418 139.416 102.558C139.547 102.689 139.729 102.754 139.962 102.754C140.326 102.754 140.709 102.539 141.11 102.11L141.138 101.074L139.654 101.396ZM39.7203 115.94C39.7296 115.613 39.655 115.361 39.4963 115.184C39.347 114.997 39.1276 114.904 38.8383 114.904C38.4183 114.904 37.9703 115.105 37.4943 115.506V117.13L37.5783 120H35.7163L35.8143 117.312L35.7443 113.616L37.5083 113.462V114.414H37.6063C38.1196 113.947 38.6796 113.611 39.2863 113.406C39.9956 113.406 40.537 113.569 40.9103 113.896C41.2836 114.213 41.461 114.675 41.4423 115.282L41.4003 117.144L41.4843 120H39.6083L39.7203 115.94ZM45.6885 113.364C46.4071 113.364 46.9671 113.527 47.3685 113.854C47.7791 114.171 47.9845 114.619 47.9845 115.198C47.9845 115.366 47.9565 115.898 47.9005 116.794C47.8911 117.055 47.8771 117.326 47.8585 117.606C47.8398 117.877 47.8305 118.11 47.8305 118.306C47.8305 118.465 47.8538 118.577 47.9005 118.642C47.9471 118.698 48.0311 118.726 48.1525 118.726C48.2458 118.726 48.3671 118.707 48.5165 118.67L48.6565 118.782L48.4885 119.762C48.1898 119.958 47.8491 120.075 47.4665 120.112C47.1865 120.084 46.9531 119.986 46.7665 119.818C46.5798 119.641 46.4538 119.398 46.3885 119.09H46.2905C45.8238 119.585 45.3431 119.93 44.8485 120.126C44.1765 120.117 43.6491 119.939 43.2665 119.594C42.8838 119.249 42.6925 118.777 42.6925 118.18C42.6925 117.713 42.8091 117.349 43.0425 117.088C43.2851 116.817 43.6491 116.635 44.1345 116.542L46.2765 116.136V115.562C46.2765 114.955 45.9778 114.652 45.3805 114.652C45.0911 114.652 44.7831 114.717 44.4565 114.848C44.1391 114.979 43.7798 115.184 43.3785 115.464L43.2385 115.38L43.0285 114.148C43.4298 113.896 43.8591 113.705 44.3165 113.574C44.7738 113.434 45.2311 113.364 45.6885 113.364ZM44.7785 117.396C44.6291 117.433 44.5171 117.499 44.4425 117.592C44.3771 117.676 44.3445 117.807 44.3445 117.984C44.3445 118.227 44.4098 118.418 44.5405 118.558C44.6711 118.689 44.8531 118.754 45.0865 118.754C45.4505 118.754 45.8331 118.539 46.2345 118.11L46.2625 117.074L44.7785 117.396ZM54.1698 113.378C54.8045 113.378 55.4018 113.485 55.9618 113.7L55.7098 115.072L55.4858 115.142C55.2152 114.965 54.9445 114.829 54.6738 114.736C54.4032 114.643 54.1652 114.596 53.9598 114.596C53.7358 114.596 53.5585 114.657 53.4278 114.778C53.2972 114.89 53.2318 115.03 53.2318 115.198C53.2318 115.394 53.3158 115.553 53.4838 115.674C53.6612 115.795 53.9365 115.931 54.3098 116.08C54.6832 116.229 54.9912 116.374 55.2338 116.514C55.4765 116.654 55.6818 116.85 55.8498 117.102C56.0272 117.345 56.1158 117.648 56.1158 118.012C56.1158 118.385 56.0178 118.735 55.8218 119.062C55.6352 119.379 55.3458 119.641 54.9538 119.846C54.5618 120.042 54.0812 120.14 53.5118 120.14C52.8398 120.14 52.1445 120 51.4258 119.72L51.6358 118.264L51.8178 118.152C52.1072 118.395 52.4292 118.591 52.7838 118.74C53.1385 118.88 53.4512 118.95 53.7218 118.95C53.9738 118.95 54.1698 118.889 54.3098 118.768C54.4498 118.637 54.5198 118.483 54.5198 118.306C54.5198 118.11 54.4312 117.951 54.2538 117.83C54.0858 117.709 53.8152 117.573 53.4418 117.424C53.0592 117.256 52.7465 117.107 52.5038 116.976C52.2612 116.836 52.0512 116.64 51.8738 116.388C51.7058 116.136 51.6218 115.823 51.6218 115.45C51.6218 114.843 51.8505 114.349 52.3078 113.966C52.7652 113.574 53.3858 113.378 54.1698 113.378ZM59.9209 113.364C60.6395 113.364 61.1995 113.527 61.6009 113.854C62.0115 114.171 62.2169 114.619 62.2169 115.198C62.2169 115.366 62.1889 115.898 62.1329 116.794C62.1235 117.055 62.1095 117.326 62.0909 117.606C62.0722 117.877 62.0629 118.11 62.0629 118.306C62.0629 118.465 62.0862 118.577 62.1329 118.642C62.1795 118.698 62.2635 118.726 62.3849 118.726C62.4782 118.726 62.5995 118.707 62.7489 118.67L62.8889 118.782L62.7209 119.762C62.4222 119.958 62.0815 120.075 61.6989 120.112C61.4189 120.084 61.1855 119.986 60.9989 119.818C60.8122 119.641 60.6862 119.398 60.6209 119.09H60.5229C60.0562 119.585 59.5755 119.93 59.0809 120.126C58.4089 120.117 57.8815 119.939 57.4989 119.594C57.1162 119.249 56.9249 118.777 56.9249 118.18C56.9249 117.713 57.0415 117.349 57.2749 117.088C57.5175 116.817 57.8815 116.635 58.3669 116.542L60.5089 116.136V115.562C60.5089 114.955 60.2102 114.652 59.6129 114.652C59.3235 114.652 59.0155 114.717 58.6889 114.848C58.3715 114.979 58.0122 115.184 57.6109 115.464L57.4709 115.38L57.2609 114.148C57.6622 113.896 58.0915 113.705 58.5489 113.574C59.0062 113.434 59.4635 113.364 59.9209 113.364ZM59.0109 117.396C58.8615 117.433 58.7495 117.499 58.6749 117.592C58.6095 117.676 58.5769 117.807 58.5769 117.984C58.5769 118.227 58.6422 118.418 58.7729 118.558C58.9035 118.689 59.0855 118.754 59.3189 118.754C59.6829 118.754 60.0655 118.539 60.4669 118.11L60.4949 117.074L59.0109 117.396ZM66.7731 113.364C67.0811 113.364 67.3845 113.397 67.6831 113.462C67.9911 113.518 68.2618 113.602 68.4951 113.714L68.1871 115.198L68.0331 115.268C67.5571 115.007 67.1325 114.876 66.7591 114.876C66.3298 114.876 65.9985 115.03 65.7651 115.338C65.5318 115.646 65.4151 116.085 65.4151 116.654C65.4151 117.307 65.5411 117.807 65.7931 118.152C66.0451 118.497 66.4045 118.67 66.8711 118.67C67.2911 118.67 67.7578 118.553 68.2711 118.32L68.4111 118.432L68.2291 119.874C67.6691 120.051 67.0951 120.14 66.5071 120.14C65.6111 120.14 64.9111 119.851 64.4071 119.272C63.9031 118.684 63.6511 117.867 63.6511 116.822C63.6511 115.739 63.9265 114.895 64.4771 114.288C65.0278 113.672 65.7931 113.364 66.7731 113.364ZM69.6118 117.312L69.5418 113.616L71.3758 113.462L71.2918 117.13L71.3758 120H69.5138L69.6118 117.312ZM70.4938 110.298C70.7832 110.298 71.0072 110.382 71.1658 110.55C71.3338 110.718 71.4178 110.951 71.4178 111.25C71.4178 111.567 71.3292 111.819 71.1518 112.006C70.9745 112.193 70.7318 112.286 70.4238 112.286C70.1158 112.286 69.8778 112.202 69.7098 112.034C69.5512 111.866 69.4718 111.628 69.4718 111.32C69.4718 111.012 69.5605 110.765 69.7378 110.578C69.9245 110.391 70.1765 110.298 70.4938 110.298ZM78.1762 116.976L74.3962 117.004C74.4802 118.171 75.0729 118.754 76.1742 118.754C76.7529 118.754 77.3969 118.591 78.1062 118.264L78.2602 118.362L77.9802 119.748C77.2709 120.009 76.6036 120.14 75.9782 120.14C74.9516 120.14 74.1442 119.841 73.5562 119.244C72.9776 118.647 72.6882 117.821 72.6882 116.766C72.6882 115.721 72.9729 114.895 73.5422 114.288C74.1116 113.672 74.8816 113.364 75.8522 113.364C76.6829 113.364 77.3222 113.593 77.7702 114.05C78.2276 114.498 78.4562 115.128 78.4562 115.94C78.4562 116.155 78.4329 116.425 78.3862 116.752L78.1762 116.976ZM76.8322 115.73C76.8322 115.357 76.7482 115.077 76.5802 114.89C76.4122 114.694 76.1649 114.596 75.8382 114.596C75.4742 114.596 75.1709 114.717 74.9282 114.96C74.6856 115.193 74.5222 115.534 74.4382 115.982L76.8042 115.926L76.8322 115.73ZM85.1717 117.13L85.2137 118.306C85.2137 118.465 85.2324 118.577 85.2697 118.642C85.3164 118.698 85.3957 118.726 85.5077 118.726C85.6104 118.726 85.7364 118.707 85.8857 118.67L86.0117 118.782L85.8577 119.762C85.5404 119.958 85.1951 120.075 84.8217 120.112C84.5324 120.084 84.2897 119.986 84.0937 119.818C83.8977 119.65 83.7624 119.421 83.6877 119.132H83.5757C83.1184 119.552 82.6517 119.874 82.1757 120.098C81.2611 120.098 80.5517 119.809 80.0477 119.23C79.5437 118.642 79.2917 117.83 79.2917 116.794C79.2917 115.693 79.5811 114.848 80.1597 114.26C80.7384 113.672 81.5411 113.378 82.5677 113.378C82.8384 113.378 83.1371 113.406 83.4637 113.462L83.4357 110.312L85.2837 110.172L85.1717 117.13ZM82.4417 114.638C81.5084 114.638 81.0417 115.231 81.0417 116.416C81.0417 117.153 81.1537 117.709 81.3777 118.082C81.6017 118.455 81.9284 118.642 82.3577 118.642C82.7684 118.642 83.1464 118.451 83.4917 118.068L83.5197 117.298L83.4777 114.89C83.1137 114.722 82.7684 114.638 82.4417 114.638ZM89.6709 113.364C90.3895 113.364 90.9495 113.527 91.3509 113.854C91.7615 114.171 91.9669 114.619 91.9669 115.198C91.9669 115.366 91.9389 115.898 91.8829 116.794C91.8735 117.055 91.8595 117.326 91.8409 117.606C91.8222 117.877 91.8129 118.11 91.8129 118.306C91.8129 118.465 91.8362 118.577 91.8829 118.642C91.9295 118.698 92.0135 118.726 92.1349 118.726C92.2282 118.726 92.3495 118.707 92.4989 118.67L92.6389 118.782L92.4709 119.762C92.1722 119.958 91.8315 120.075 91.4489 120.112C91.1689 120.084 90.9355 119.986 90.7489 119.818C90.5622 119.641 90.4362 119.398 90.3709 119.09H90.2729C89.8062 119.585 89.3255 119.93 88.8309 120.126C88.1589 120.117 87.6315 119.939 87.2489 119.594C86.8662 119.249 86.6749 118.777 86.6749 118.18C86.6749 117.713 86.7915 117.349 87.0249 117.088C87.2675 116.817 87.6315 116.635 88.1169 116.542L90.2589 116.136V115.562C90.2589 114.955 89.9602 114.652 89.3629 114.652C89.0735 114.652 88.7655 114.717 88.4389 114.848C88.1215 114.979 87.7622 115.184 87.3609 115.464L87.2209 115.38L87.0109 114.148C87.4122 113.896 87.8415 113.705 88.2989 113.574C88.7562 113.434 89.2135 113.364 89.6709 113.364ZM88.7609 117.396C88.6115 117.433 88.4995 117.499 88.4249 117.592C88.3595 117.676 88.3269 117.807 88.3269 117.984C88.3269 118.227 88.3922 118.418 88.5229 118.558C88.6535 118.689 88.8355 118.754 89.0689 118.754C89.4329 118.754 89.8155 118.539 90.2169 118.11L90.2449 117.074L88.7609 117.396ZM99.2811 117.13L99.3231 118.306C99.3231 118.465 99.3418 118.577 99.3791 118.642C99.4258 118.698 99.5051 118.726 99.6171 118.726C99.7198 118.726 99.8458 118.707 99.9951 118.67L100.121 118.782L99.9671 119.762C99.6498 119.958 99.3045 120.075 98.9311 120.112C98.6418 120.084 98.3991 119.986 98.2031 119.818C98.0071 119.65 97.8718 119.421 97.7971 119.132H97.6851C97.2278 119.552 96.7611 119.874 96.2851 120.098C95.3705 120.098 94.6611 119.809 94.1571 119.23C93.6531 118.642 93.4011 117.83 93.4011 116.794C93.4011 115.693 93.6905 114.848 94.2691 114.26C94.8478 113.672 95.6505 113.378 96.6771 113.378C96.9478 113.378 97.2465 113.406 97.5731 113.462L97.5451 110.312L99.3931 110.172L99.2811 117.13ZM96.5511 114.638C95.6178 114.638 95.1511 115.231 95.1511 116.416C95.1511 117.153 95.2631 117.709 95.4871 118.082C95.7111 118.455 96.0378 118.642 96.4671 118.642C96.8778 118.642 97.2558 118.451 97.6011 118.068L97.6291 117.298L97.5871 114.89C97.2231 114.722 96.8778 114.638 96.5511 114.638ZM106.258 116.976L102.478 117.004C102.562 118.171 103.155 118.754 104.256 118.754C104.835 118.754 105.479 118.591 106.188 118.264L106.342 118.362L106.062 119.748C105.353 120.009 104.686 120.14 104.06 120.14C103.034 120.14 102.226 119.841 101.638 119.244C101.06 118.647 100.77 117.821 100.77 116.766C100.77 115.721 101.055 114.895 101.624 114.288C102.194 113.672 102.964 113.364 103.934 113.364C104.765 113.364 105.404 113.593 105.852 114.05C106.31 114.498 106.538 115.128 106.538 115.94C106.538 116.155 106.515 116.425 106.468 116.752L106.258 116.976ZM104.914 115.73C104.914 115.357 104.83 115.077 104.662 114.89C104.494 114.694 104.247 114.596 103.92 114.596C103.556 114.596 103.253 114.717 103.01 114.96C102.768 115.193 102.604 115.534 102.52 115.982L104.886 115.926L104.914 115.73ZM114.981 116.976L111.201 117.004C111.285 118.171 111.878 118.754 112.979 118.754C113.558 118.754 114.202 118.591 114.911 118.264L115.065 118.362L114.785 119.748C114.076 120.009 113.408 120.14 112.783 120.14C111.756 120.14 110.949 119.841 110.361 119.244C109.782 118.647 109.493 117.821 109.493 116.766C109.493 115.721 109.778 114.895 110.347 114.288C110.916 113.672 111.686 113.364 112.657 113.364C113.488 113.364 114.127 113.593 114.575 114.05C115.032 114.498 115.261 115.128 115.261 115.94C115.261 116.155 115.238 116.425 115.191 116.752L114.981 116.976ZM113.637 115.73C113.637 115.357 113.553 115.077 113.385 114.89C113.217 114.694 112.97 114.596 112.643 114.596C112.279 114.596 111.976 114.717 111.733 114.96C111.49 115.193 111.327 115.534 111.243 115.982L113.609 115.926L113.637 115.73ZM122.668 115.94C122.677 115.613 122.602 115.361 122.444 115.184C122.294 114.997 122.075 114.904 121.786 114.904C121.366 114.904 120.918 115.105 120.442 115.506V117.13L120.526 120H118.664L118.762 117.312L118.692 113.616L120.456 113.462V114.414H120.554C121.067 113.947 121.627 113.611 122.234 113.406C122.943 113.406 123.484 113.569 123.858 113.896C124.231 114.213 124.408 114.675 124.39 115.282L124.348 117.144L124.432 120H122.556L122.668 115.94ZM128.776 113.364C129.728 113.364 130.456 113.644 130.96 114.204C131.464 114.764 131.716 115.571 131.716 116.626C131.716 117.765 131.445 118.637 130.904 119.244C130.362 119.841 129.583 120.14 128.566 120.14C127.614 120.14 126.886 119.86 126.382 119.3C125.878 118.74 125.626 117.933 125.626 116.878C125.626 115.739 125.896 114.871 126.438 114.274C126.979 113.667 127.758 113.364 128.776 113.364ZM128.65 114.624C128.202 114.624 127.875 114.773 127.67 115.072C127.474 115.371 127.376 115.851 127.376 116.514C127.376 117.373 127.478 117.984 127.684 118.348C127.889 118.712 128.225 118.894 128.692 118.894C129.14 118.894 129.462 118.749 129.658 118.46C129.863 118.161 129.966 117.676 129.966 117.004C129.966 116.155 129.858 115.548 129.644 115.184C129.438 114.811 129.107 114.624 128.65 114.624ZM29.0387 129.364C29.3467 129.364 29.6501 129.397 29.9487 129.462C30.2567 129.518 30.5274 129.602 30.7607 129.714L30.4527 131.198L30.2987 131.268C29.8227 131.007 29.3981 130.876 29.0247 130.876C28.5954 130.876 28.2641 131.03 28.0307 131.338C27.7974 131.646 27.6807 132.085 27.6807 132.654C27.6807 133.307 27.8067 133.807 28.0587 134.152C28.3107 134.497 28.6701 134.67 29.1367 134.67C29.5567 134.67 30.0234 134.553 30.5367 134.32L30.6767 134.432L30.4947 135.874C29.9347 136.051 29.3607 136.14 28.7727 136.14C27.8767 136.14 27.1767 135.851 26.6727 135.272C26.1687 134.684 25.9167 133.867 25.9167 132.822C25.9167 131.739 26.1921 130.895 26.7427 130.288C27.2934 129.672 28.0587 129.364 29.0387 129.364ZM34.4535 129.364C35.4055 129.364 36.1335 129.644 36.6375 130.204C37.1415 130.764 37.3935 131.571 37.3935 132.626C37.3935 133.765 37.1228 134.637 36.5815 135.244C36.0401 135.841 35.2608 136.14 34.2435 136.14C33.2915 136.14 32.5635 135.86 32.0595 135.3C31.5555 134.74 31.3035 133.933 31.3035 132.878C31.3035 131.739 31.5741 130.871 32.1155 130.274C32.6568 129.667 33.4361 129.364 34.4535 129.364ZM34.3275 130.624C33.8795 130.624 33.5528 130.773 33.3475 131.072C33.1515 131.371 33.0535 131.851 33.0535 132.514C33.0535 133.373 33.1561 133.984 33.3615 134.348C33.5668 134.712 33.9028 134.894 34.3695 134.894C34.8175 134.894 35.1395 134.749 35.3355 134.46C35.5408 134.161 35.6435 133.676 35.6435 133.004C35.6435 132.155 35.5361 131.548 35.3215 131.184C35.1161 130.811 34.7848 130.624 34.3275 130.624ZM42.5914 131.94C42.6007 131.613 42.5261 131.361 42.3674 131.184C42.2181 130.997 41.9987 130.904 41.7094 130.904C41.2894 130.904 40.8414 131.105 40.3654 131.506V133.13L40.4494 136H38.5874L38.6854 133.312L38.6154 129.616L40.3794 129.462V130.414H40.4774C40.9907 129.947 41.5507 129.611 42.1574 129.406C42.8667 129.406 43.4081 129.569 43.7814 129.896C44.1547 130.213 44.3321 130.675 44.3134 131.282L44.2714 133.144L44.3554 136H42.4794L42.5914 131.94ZM48.6296 134.628C48.9282 134.628 49.2409 134.549 49.5676 134.39L49.7216 134.53L49.5396 135.636C49.0636 135.879 48.5782 136.028 48.0836 136.084C46.8236 135.953 46.1936 135.337 46.1936 134.236L46.2636 133.074L46.2496 130.666H45.3816L45.3116 130.568L45.4096 129.546H46.2356V128.468L47.9296 127.922L48.0556 128.034L48.0136 129.546H49.6796L49.7356 129.644L49.6516 130.666H47.9856L47.9016 133.802C47.9016 134.101 47.9576 134.315 48.0696 134.446C48.1816 134.567 48.3682 134.628 48.6296 134.628ZM54.326 129.476C54.41 129.476 54.5267 129.485 54.676 129.504V131.226L54.48 131.296C54.3214 131.231 54.1487 131.198 53.962 131.198C53.4207 131.198 52.9307 131.548 52.492 132.248V133.13L52.59 136H50.728L50.84 133.312L50.756 129.616L52.52 129.462L52.506 130.736H52.618C53.0754 129.896 53.6447 129.476 54.326 129.476ZM58.2972 129.364C59.2492 129.364 59.9772 129.644 60.4812 130.204C60.9852 130.764 61.2372 131.571 61.2372 132.626C61.2372 133.765 60.9665 134.637 60.4252 135.244C59.8839 135.841 59.1045 136.14 58.0872 136.14C57.1352 136.14 56.4072 135.86 55.9032 135.3C55.3992 134.74 55.1472 133.933 55.1472 132.878C55.1472 131.739 55.4179 130.871 55.9592 130.274C56.5005 129.667 57.2799 129.364 58.2972 129.364ZM58.1712 130.624C57.7232 130.624 57.3965 130.773 57.1912 131.072C56.9952 131.371 56.8972 131.851 56.8972 132.514C56.8972 133.373 56.9999 133.984 57.2052 134.348C57.4105 134.712 57.7465 134.894 58.2132 134.894C58.6612 134.894 58.9832 134.749 59.1792 134.46C59.3845 134.161 59.4872 133.676 59.4872 133.004C59.4872 132.155 59.3799 131.548 59.1652 131.184C58.9599 130.811 58.6285 130.624 58.1712 130.624ZM64.3332 133.13L64.4312 136H62.5692L62.6672 133.298L62.5832 126.312L64.4452 126.172L64.3332 133.13ZM71.2309 132.976L67.4509 133.004C67.5349 134.171 68.1276 134.754 69.2289 134.754C69.8076 134.754 70.4516 134.591 71.1609 134.264L71.3149 134.362L71.0349 135.748C70.3256 136.009 69.6582 136.14 69.0329 136.14C68.0062 136.14 67.1989 135.841 66.6109 135.244C66.0322 134.647 65.7429 133.821 65.7429 132.766C65.7429 131.721 66.0276 130.895 66.5969 130.288C67.1662 129.672 67.9362 129.364 68.9069 129.364C69.7376 129.364 70.3769 129.593 70.8249 130.05C71.2822 130.498 71.5109 131.128 71.5109 131.94C71.5109 132.155 71.4876 132.425 71.4409 132.752L71.2309 132.976ZM69.8869 131.73C69.8869 131.357 69.8029 131.077 69.6349 130.89C69.4669 130.694 69.2196 130.596 68.8929 130.596C68.5289 130.596 68.2256 130.717 67.9829 130.96C67.7402 131.193 67.5769 131.534 67.4929 131.982L69.8589 131.926L69.8869 131.73ZM80.3456 133.13L80.3876 134.306C80.3876 134.465 80.4062 134.577 80.4436 134.642C80.4902 134.698 80.5696 134.726 80.6816 134.726C80.7842 134.726 80.9102 134.707 81.0596 134.67L81.1856 134.782L81.0316 135.762C80.7142 135.958 80.3689 136.075 79.9956 136.112C79.7062 136.084 79.4636 135.986 79.2676 135.818C79.0716 135.65 78.9362 135.421 78.8616 135.132H78.7496C78.2922 135.552 77.8256 135.874 77.3496 136.098C76.4349 136.098 75.7256 135.809 75.2216 135.23C74.7176 134.642 74.4656 133.83 74.4656 132.794C74.4656 131.693 74.7549 130.848 75.3336 130.26C75.9122 129.672 76.7149 129.378 77.7416 129.378C78.0122 129.378 78.3109 129.406 78.6376 129.462L78.6096 126.312L80.4576 126.172L80.3456 133.13ZM77.6156 130.638C76.6822 130.638 76.2156 131.231 76.2156 132.416C76.2156 133.153 76.3276 133.709 76.5516 134.082C76.7756 134.455 77.1022 134.642 77.5316 134.642C77.9422 134.642 78.3202 134.451 78.6656 134.068L78.6936 133.298L78.6516 130.89C78.2876 130.722 77.9422 130.638 77.6156 130.638ZM84.8447 129.364C85.5634 129.364 86.1234 129.527 86.5247 129.854C86.9354 130.171 87.1407 130.619 87.1407 131.198C87.1407 131.366 87.1127 131.898 87.0567 132.794C87.0474 133.055 87.0334 133.326 87.0147 133.606C86.996 133.877 86.9867 134.11 86.9867 134.306C86.9867 134.465 87.01 134.577 87.0567 134.642C87.1034 134.698 87.1874 134.726 87.3087 134.726C87.402 134.726 87.5234 134.707 87.6727 134.67L87.8127 134.782L87.6447 135.762C87.346 135.958 87.0054 136.075 86.6227 136.112C86.3427 136.084 86.1094 135.986 85.9227 135.818C85.736 135.641 85.61 135.398 85.5447 135.09H85.4467C84.98 135.585 84.4994 135.93 84.0047 136.126C83.3327 136.117 82.8054 135.939 82.4227 135.594C82.04 135.249 81.8487 134.777 81.8487 134.18C81.8487 133.713 81.9654 133.349 82.1987 133.088C82.4414 132.817 82.8054 132.635 83.2907 132.542L85.4327 132.136V131.562C85.4327 130.955 85.134 130.652 84.5367 130.652C84.2474 130.652 83.9394 130.717 83.6127 130.848C83.2954 130.979 82.936 131.184 82.5347 131.464L82.3947 131.38L82.1847 130.148C82.586 129.896 83.0154 129.705 83.4727 129.574C83.93 129.434 84.3874 129.364 84.8447 129.364ZM83.9347 133.396C83.7854 133.433 83.6734 133.499 83.5987 133.592C83.5334 133.676 83.5007 133.807 83.5007 133.984C83.5007 134.227 83.566 134.418 83.6967 134.558C83.8274 134.689 84.0094 134.754 84.2427 134.754C84.6067 134.754 84.9894 134.539 85.3907 134.11L85.4187 133.074L83.9347 133.396ZM97.4001 130.372C97.1481 130.437 96.7888 130.507 96.3221 130.582L96.2941 130.638C96.4341 130.918 96.5041 131.231 96.5041 131.576C96.5041 132.276 96.2474 132.836 95.7341 133.256C95.2301 133.667 94.5441 133.872 93.6761 133.872C93.4148 133.872 93.1441 133.849 92.8641 133.802C92.7801 133.886 92.7241 133.951 92.6961 133.998C92.6681 134.045 92.6541 134.101 92.6541 134.166C92.6541 134.334 92.7661 134.451 92.9901 134.516C93.2141 134.581 93.5688 134.647 94.0541 134.712C94.6048 134.777 95.0621 134.857 95.4261 134.95C95.7994 135.043 96.1168 135.207 96.3781 135.44C96.6488 135.673 96.7841 136.005 96.7841 136.434C96.7841 136.873 96.6441 137.265 96.3641 137.61C96.0934 137.965 95.7154 138.24 95.2301 138.436C94.7448 138.632 94.1941 138.73 93.5781 138.73C92.7288 138.73 92.0754 138.557 91.6181 138.212C91.1608 137.867 90.9321 137.409 90.9321 136.84C91.2214 136.439 91.6088 136.089 92.0941 135.79V135.72C91.7768 135.608 91.5294 135.454 91.3521 135.258C91.1748 135.053 91.0861 134.782 91.0861 134.446C91.3381 134.138 91.6554 133.853 92.0381 133.592V133.522C91.7021 133.335 91.4454 133.093 91.2681 132.794C91.1001 132.486 91.0161 132.127 91.0161 131.716C91.0161 130.988 91.2681 130.419 91.7721 130.008C92.2761 129.597 92.9621 129.392 93.8301 129.392C94.3341 129.392 94.7914 129.476 95.2021 129.644C95.8741 129.523 96.5601 129.336 97.2601 129.084L97.4001 129.21V130.372ZM93.7321 132.752C94.1148 132.752 94.4041 132.654 94.6001 132.458C94.7961 132.262 94.8941 131.977 94.8941 131.604C94.8941 130.895 94.5301 130.54 93.8021 130.54C93.0181 130.54 92.6261 130.899 92.6261 131.618C92.6261 131.991 92.7194 132.276 92.9061 132.472C93.0928 132.659 93.3681 132.752 93.7321 132.752ZM95.2161 136.77C95.2161 136.518 95.0808 136.345 94.8101 136.252C94.5488 136.159 94.1428 136.079 93.5921 136.014L93.1161 135.944C92.8921 136.093 92.7241 136.238 92.6121 136.378C92.5001 136.518 92.4441 136.667 92.4441 136.826C92.4441 137.069 92.5561 137.265 92.7801 137.414C93.0041 137.563 93.3308 137.638 93.7601 137.638C94.1988 137.638 94.5488 137.559 94.8101 137.4C95.0808 137.251 95.2161 137.041 95.2161 136.77ZM99.9621 133.13L100.06 136H98.1981L98.2961 133.298L98.2121 126.312L100.074 126.172L99.9621 133.13ZM101.946 133.312L101.876 129.616L103.71 129.462L103.626 133.13L103.71 136H101.848L101.946 133.312ZM102.828 126.298C103.117 126.298 103.341 126.382 103.5 126.55C103.668 126.718 103.752 126.951 103.752 127.25C103.752 127.567 103.663 127.819 103.486 128.006C103.308 128.193 103.066 128.286 102.758 128.286C102.45 128.286 102.212 128.202 102.044 128.034C101.885 127.866 101.806 127.628 101.806 127.32C101.806 127.012 101.894 126.765 102.072 126.578C102.258 126.391 102.51 126.298 102.828 126.298ZM108.144 129.364C108.452 129.364 108.756 129.397 109.054 129.462C109.362 129.518 109.633 129.602 109.866 129.714L109.558 131.198L109.404 131.268C108.928 131.007 108.504 130.876 108.13 130.876C107.701 130.876 107.37 131.03 107.136 131.338C106.903 131.646 106.786 132.085 106.786 132.654C106.786 133.307 106.912 133.807 107.164 134.152C107.416 134.497 107.776 134.67 108.242 134.67C108.662 134.67 109.129 134.553 109.642 134.32L109.782 134.432L109.6 135.874C109.04 136.051 108.466 136.14 107.878 136.14C106.982 136.14 106.282 135.851 105.778 135.272C105.274 134.684 105.022 133.867 105.022 132.822C105.022 131.739 105.298 130.895 105.848 130.288C106.399 129.672 107.164 129.364 108.144 129.364ZM115.897 132.976L112.117 133.004C112.201 134.171 112.794 134.754 113.895 134.754C114.474 134.754 115.118 134.591 115.827 134.264L115.981 134.362L115.701 135.748C114.992 136.009 114.324 136.14 113.699 136.14C112.672 136.14 111.865 135.841 111.277 135.244C110.698 134.647 110.409 133.821 110.409 132.766C110.409 131.721 110.694 130.895 111.263 130.288C111.832 129.672 112.602 129.364 113.573 129.364C114.404 129.364 115.043 129.593 115.491 130.05C115.948 130.498 116.177 131.128 116.177 131.94C116.177 132.155 116.154 132.425 116.107 132.752L115.897 132.976ZM114.553 131.73C114.553 131.357 114.469 131.077 114.301 130.89C114.133 130.694 113.886 130.596 113.559 130.596C113.195 130.596 112.892 130.717 112.649 130.96C112.406 131.193 112.243 131.534 112.159 131.982L114.525 131.926L114.553 131.73ZM125.258 136L125.37 131.94C125.37 131.249 125.076 130.904 124.488 130.904C124.068 130.904 123.63 131.091 123.172 131.464L123.13 133.144L123.214 136H121.352L121.464 131.94C121.474 131.604 121.399 131.347 121.24 131.17C121.091 130.993 120.872 130.904 120.582 130.904C120.172 130.904 119.719 131.1 119.224 131.492V133.13L119.308 136H117.46L117.558 133.312L117.488 129.616L119.238 129.462V130.414H119.336C119.85 129.947 120.414 129.611 121.03 129.406C122.076 129.406 122.743 129.756 123.032 130.456H123.116C123.648 129.961 124.255 129.611 124.936 129.406C125.646 129.406 126.182 129.569 126.546 129.896C126.92 130.213 127.097 130.675 127.078 131.282L127.036 133.144L127.12 136H125.258ZM128.879 133.312L128.809 129.616L130.643 129.462L130.559 133.13L130.643 136H128.781L128.879 133.312ZM129.761 126.298C130.051 126.298 130.275 126.382 130.433 126.55C130.601 126.718 130.685 126.951 130.685 127.25C130.685 127.567 130.597 127.819 130.419 128.006C130.242 128.193 129.999 128.286 129.691 128.286C129.383 128.286 129.145 128.202 128.977 128.034C128.819 127.866 128.739 127.628 128.739 127.32C128.739 127.012 128.828 126.765 129.005 126.578C129.192 126.391 129.444 126.298 129.761 126.298ZM134.966 129.364C135.684 129.364 136.244 129.527 136.646 129.854C137.056 130.171 137.262 130.619 137.262 131.198C137.262 131.366 137.234 131.898 137.178 132.794C137.168 133.055 137.154 133.326 137.136 133.606C137.117 133.877 137.108 134.11 137.108 134.306C137.108 134.465 137.131 134.577 137.178 134.642C137.224 134.698 137.308 134.726 137.43 134.726C137.523 134.726 137.644 134.707 137.794 134.67L137.934 134.782L137.766 135.762C137.467 135.958 137.126 136.075 136.744 136.112C136.464 136.084 136.23 135.986 136.044 135.818C135.857 135.641 135.731 135.398 135.666 135.09H135.568C135.101 135.585 134.62 135.93 134.126 136.126C133.454 136.117 132.926 135.939 132.544 135.594C132.161 135.249 131.97 134.777 131.97 134.18C131.97 133.713 132.086 133.349 132.32 133.088C132.562 132.817 132.926 132.635 133.412 132.542L135.554 132.136V131.562C135.554 130.955 135.255 130.652 134.658 130.652C134.368 130.652 134.06 130.717 133.734 130.848C133.416 130.979 133.057 131.184 132.656 131.464L132.516 131.38L132.306 130.148C132.707 129.896 133.136 129.705 133.594 129.574C134.051 129.434 134.508 129.364 134.966 129.364ZM134.056 133.396C133.906 133.433 133.794 133.499 133.72 133.592C133.654 133.676 133.622 133.807 133.622 133.984C133.622 134.227 133.687 134.418 133.818 134.558C133.948 134.689 134.13 134.754 134.364 134.754C134.728 134.754 135.11 134.539 135.512 134.11L135.54 133.074L134.056 133.396ZM139.928 134.11C140.217 134.11 140.441 134.194 140.6 134.362C140.768 134.53 140.852 134.763 140.852 135.062C140.852 135.379 140.763 135.631 140.586 135.818C140.409 136.005 140.166 136.098 139.858 136.098C139.55 136.098 139.312 136.014 139.144 135.846C138.985 135.678 138.906 135.44 138.906 135.132C138.906 134.824 138.995 134.577 139.172 134.39C139.359 134.203 139.611 134.11 139.928 134.11Z" fill="white"/>
<defs>
<filter id="filter0_b_152:11531" x="3" y="67" width="161" height="97" filterUnits="userSpaceOnUse" color-interpolation-filters="sRGB">
<feFlood flood-opacity="0" result="BackgroundImageFix"/>
<feGaussianBlur in="BackgroundImage" stdDeviation="5"/>
<feComposite in2="SourceAlpha" operator="in" result="effect1_backgroundBlur_152:11531"/>
<feBlend mode="normal" in="SourceGraphic" in2="effect1_backgroundBlur_152:11531" result="shape"/>
</filter>
<clipPath id="clip0_152:11531">
<rect width="25.4267" height="25.4267" fill="white" transform="translate(45.4259 4) rotate(26.703)"/>
</clipPath>
<clipPath id="clip1_152:11531">
<rect width="36" height="41.25" fill="white" transform="translate(124 24)"/>
</clipPath>
<clipPath id="clip2_152:11531">
<rect width="36" height="41.25" fill="white" transform="translate(97 57.605) rotate(-27.4678)"/>
</clipPath>
<clipPath id="clip3_152:11531">
<rect width="36" height="41.25" fill="white" transform="translate(3.25156 41.0405) rotate(-31.4608)"/>
</clipPath>
<clipPath id="clip4_152:11531">
<rect width="36" height="41.25" fill="white" transform="translate(65 62.7733) rotate(-75)"/>
</clipPath>
</defs>
</svg>
