<svg width="167" height="167" viewBox="0 0 167 167" fill="none" xmlns="http://www.w3.org/2000/svg">
<mask id="mask0_152:11453" style="mask-type:alpha" maskUnits="userSpaceOnUse" x="0" y="0" width="167" height="167">
<rect x="1" y="1" width="165" height="165" rx="8" fill="#5988D6" stroke="#EDE6FC" stroke-opacity="0.3"/>
</mask>
<g mask="url(#mask0_152:11453)">
<rect x="1" y="1" width="165" height="165" rx="8" fill="#A97AD9" stroke="#EDE6FC" stroke-opacity="0.3"/>
<path d="M116.417 66.8491C118.641 67.3182 120.937 67.3261 123.165 66.8723C125.392 66.4185 127.502 65.5127 129.365 64.2109C130.121 63.709 130.781 63.0758 131.314 62.3413C132.306 60.8933 132.435 59.0039 132.083 57.293C131.681 55.3639 130.342 53.6878 130.233 51.7339C130.119 49.6958 131.279 48.2626 132.301 46.5964C136.268 40.2736 133.625 32.3888 127.292 28.8778C125.309 27.767 122.938 27.0677 121.505 25.2775C120.788 24.2881 120.258 23.1754 119.943 21.9946C118.455 17.3034 116.888 13.0684 113.496 9.39872C110.104 5.72904 104.01 4.22645 99.1944 5.38191C95.49 6.27453 92.1972 6.90929 88.4035 6.52744C86.5488 6.339 84.6743 6.45306 82.8196 6.39851C78.8524 6.28941 74.6075 8.31765 71.9395 11.184C68.86 14.4966 67.526 19.4655 68.9641 23.7601C69.7724 26.2098 70.4915 27.4793 69.3708 29.9886C68.4285 32.0863 66.797 33.7922 65.6713 35.7907C64.3114 38.3296 63.7797 41.2303 64.1505 44.0865C64.5213 46.9428 65.7761 49.6115 67.7392 51.7191C68.6055 52.6577 69.6714 53.3898 70.8585 53.8614C72.2817 54.3573 73.8339 54.3573 75.3216 54.5507C77.0275 54.7689 78.7929 55.3292 79.8938 56.6583C80.6873 57.6203 81.0294 58.8601 81.5848 59.9758C82.1403 61.0916 83.0726 62.1727 84.3123 62.2719C85.2744 62.3413 86.1719 61.8008 86.9158 61.1908" fill="#CE534A"/>
<g style="mix-blend-mode:multiply" opacity="0.26">
<g style="mix-blend-mode:multiply" opacity="0.26">
<path d="M91.483 9.60205C88.7382 9.79545 86.0064 10.1431 83.3006 10.6434C81.1524 10.962 79.0644 11.6023 77.1068 12.5428C75.1877 13.5346 73.4917 15.1314 72.733 17.1646C70.8832 22.1236 75.0389 27.7818 73.4322 32.8351C72.0734 37.0899 67.1293 40.4274 70.0848 45.193C72.723 49.4429 79.7153 47.9403 83.0081 51.8579C85.4876 54.7887 85.4231 59.6982 88.7655 61.5528C91.1657 62.8819 94.1312 61.9198 96.6999 60.928C98.7827 60.1147 101.118 59.0188 101.718 56.8616C102.066 55.6268 101.718 54.3176 101.51 53.058C100.857 49.391 101.043 45.6236 102.056 42.0391C102.671 39.8769 103.593 37.7445 103.583 35.4931C103.573 33.2417 102.259 30.7721 100.042 30.3903" fill="#CE534A"/>
</g>
</g>
<path d="M127.54 109.15C127.51 108.912 127.543 108.671 127.634 108.45C129.188 104.325 129.856 99.918 129.593 95.5172C129.385 91.4657 128.482 87.4737 128.83 83.4073C128.849 83.1136 128.953 82.8317 129.129 82.5959C129.305 82.36 129.545 82.1802 129.821 82.0782C129.623 81.2005 129.405 80.3178 129.142 79.44C127.357 73.4347 124.297 67.3648 118.971 63.7695C116.953 62.4058 114.533 61.7859 112.366 60.6602C107.59 58.2154 105.299 50.3058 108.79 45.8228C110.06 44.1863 111.627 42.6986 112.37 40.7695C115.078 40.6654 118.614 40.0207 119.968 37.4321C121.629 34.2534 120.885 28.6844 116.566 28.5059C115.89 28.4655 115.216 28.6048 114.611 28.9097C114.007 29.2145 113.494 29.6741 113.124 30.2415C113.473 26.4507 113.068 22.6283 111.934 18.9944C111.369 17.1943 110.987 16.267 109.559 15.0272C108.153 13.7754 106.636 12.6549 105.026 11.6799C102.343 10.1453 99.3497 9.23442 96.267 9.01465C93.1842 8.79488 90.0915 9.27191 87.2183 10.4104C85.2703 11.1375 83.523 12.317 82.1204 13.8519C80.1368 16.2025 79.3632 19.3912 78.9218 22.436C78.15 27.8059 78.1316 33.2572 78.8673 38.6322C79.1698 40.8291 79.6211 43.0953 80.8509 44.9202C81.9766 46.6014 83.8759 48.0147 85.8893 48.2378C87.9026 48.461 89.7226 48.4808 91.7062 48.5403C93.1245 48.58 94.5973 48.7536 95.8172 49.4875C98.1678 50.9008 98.1678 53.5638 96.7446 55.6615C96.4213 56.163 95.989 56.585 95.48 56.8963C93.7543 57.8881 91.5128 56.8963 89.6681 56.9608C87.5605 57.0104 85.7851 57.1244 83.9106 58.2204C81.8024 59.44 79.8704 60.9416 78.1681 62.6835C75.0885 65.8275 72.6288 69.5021 69.9212 72.9536C68.4732 74.8033 66.9458 76.7275 64.7787 77.6598C62.0116 78.8598 59.8197 76.6184 58.4063 74.3918C56.7714 71.8226 55.4117 69.0883 54.3499 66.2342C50.7897 67.7002 47.3436 69.429 44.04 71.4064C44.0748 71.6544 44.1095 71.8676 44.1293 72.0164C44.4368 74.0496 45.4286 75.9836 45.9889 77.9672C47.192 82.2473 48.9633 86.3469 51.2554 90.1565C52.2472 91.8326 53.4771 94.2874 55.064 95.4825C58.0394 97.719 63.1968 96.9107 66.3358 95.6214C71.4684 93.5138 75.4604 90.0672 78.9764 85.8917C78.5103 93.311 77.4389 100.68 75.7729 107.925C75.6863 108.196 75.6863 108.487 75.7729 108.758C75.945 109.044 76.2171 109.256 76.5365 109.353C82.1947 111.776 88.1136 113.538 94.1758 114.605C99.6555 115.596 106.435 117.233 111.428 114.039C111.73 113.796 112.095 113.645 112.48 113.603C112.728 113.621 112.97 113.686 113.194 113.796C116.703 115.161 120.526 115.505 124.223 114.788C125.567 113.059 126.682 111.164 127.54 109.15Z" fill="#FF927D"/>
<path d="M127.54 109.15C127.51 108.912 127.543 108.671 127.634 108.45C129.188 104.325 129.855 99.918 129.593 95.5172C129.385 91.4657 128.482 87.4736 128.829 83.4072C128.849 83.1136 128.953 82.8317 129.129 82.5958C129.305 82.36 129.545 82.1802 129.821 82.0782C129.623 81.2005 129.405 80.3178 129.142 79.44C127.357 73.4346 124.297 67.3648 118.971 63.7695C116.953 62.4058 114.533 61.7859 112.365 60.6602C111.834 60.3859 111.335 60.0532 110.878 59.6684C108.469 61.6165 105.439 62.6322 102.343 62.5297C100.636 62.4071 98.9847 61.8679 97.5341 60.9593C96.0834 60.0507 94.8776 58.8004 94.022 57.3178C92.6038 57.4319 91.0466 56.931 89.6878 56.9608C87.5803 57.0103 85.8049 57.1244 83.9304 58.2203C81.8222 59.44 79.8902 60.9415 78.1879 62.6835C75.7084 65.2423 73.5908 68.1384 71.4386 70.9948C72.8916 74.3124 75.8621 77.0399 77.7515 80.2483C78.5635 81.4845 79.0088 82.9253 79.0359 84.404C79.003 85.0069 78.8947 85.6034 78.7135 86.1793L78.9863 85.8669C78.5202 93.2862 77.4488 100.655 75.7827 107.9C75.6962 108.171 75.6962 108.462 75.7827 108.733C75.9549 109.019 76.227 109.231 76.5464 109.328C82.2004 111.759 88.1159 113.53 94.1758 114.604C99.6555 115.596 106.434 117.233 111.428 114.039C111.73 113.796 112.095 113.645 112.48 113.603C112.728 113.621 112.97 113.686 113.194 113.796C116.703 115.161 120.526 115.505 124.223 114.788C125.567 113.059 126.682 111.164 127.54 109.15Z" fill="#AA4F7A"/>
<path d="M80.8211 21.7764C82.2592 21.5037 85.8347 19.4011 85.3487 17.5266C84.823 15.5082 81.6592 17.3827 80.8856 18.2555C80.345 18.8705 78.902 20.4821 79.3185 21.3202C79.5764 21.8211 80.2707 21.8707 80.8211 21.7764Z" fill="#C46153"/>
<path d="M100.692 19.2672C99.2439 19.4705 95.1825 18.6324 95.0387 16.6984C94.8849 14.6255 98.4852 15.3793 99.5018 15.9595C100.211 16.3662 102.105 17.4175 101.981 18.3498C101.887 18.8953 101.247 19.1878 100.692 19.2672Z" fill="#C46153"/>
<path d="M92.6385 31.0945C92.5988 31.0945 92.46 31.2928 92.1872 31.6648C91.809 32.1853 91.3657 32.6553 90.8681 33.0632C90.5571 33.3414 90.1824 33.5389 89.7772 33.6385C89.6002 33.6785 89.415 33.6576 89.2515 33.579C89.2515 33.579 89.2515 33.579 89.2515 33.4649C89.2515 33.3508 89.3358 33.2318 89.3755 33.1029C90.5614 29.8859 90.9145 26.4212 90.402 23.0311C90.1441 21.3649 89.7623 20.3879 89.6978 20.4028C89.6333 20.4177 89.8466 21.4343 90.0003 23.0807C90.2114 25.2208 90.1296 27.3797 89.7573 29.4977C89.5531 30.6624 89.2597 31.8096 88.8796 32.9293C88.8399 33.0632 88.7953 33.1674 88.7506 33.3409C88.7277 33.4438 88.7277 33.5505 88.7506 33.6533C88.7775 33.7713 88.8419 33.8775 88.9341 33.9558C89.075 34.0687 89.2495 34.1316 89.43 34.1344C89.5778 34.1473 89.7267 34.1372 89.8714 34.1046C90.3502 33.9758 90.7865 33.7226 91.1359 33.3707C91.6373 32.9157 92.0582 32.3791 92.3806 31.7838C92.5988 31.3623 92.6683 31.1094 92.6385 31.0945Z" fill="#C46153"/>
<path d="M94.0717 33.9509C93.9874 33.9509 93.8783 34.1988 93.6303 34.541C93.318 34.9851 92.8841 35.3295 92.3806 35.5328C91.8698 35.7088 91.3196 35.7363 90.7937 35.6121C90.3772 35.5179 90.1243 35.384 90.0747 35.4535C90.0251 35.5229 90.2036 35.7708 90.6549 35.994C90.9535 36.1357 91.2774 36.2163 91.6076 36.231C91.9378 36.2457 92.2676 36.1943 92.5776 36.0797C92.8876 35.9651 93.1716 35.7897 93.4128 35.5638C93.6541 35.3379 93.8477 35.066 93.9824 34.7641C94.1758 34.2682 94.1411 33.9608 94.0717 33.9509Z" fill="#C46153"/>
<path d="M86.2661 25.9767C86.1818 25.9767 86.1174 26.7801 85.9041 28.0546C85.7784 28.7985 85.6129 29.5351 85.4082 30.2613C85.299 30.6649 85.1194 31.046 84.8776 31.387C84.7696 31.5546 84.6234 31.694 84.451 31.7941C84.2785 31.8941 84.0848 31.9517 83.8858 31.9623C83.6935 31.9249 83.5128 31.8425 83.3585 31.7218C83.2042 31.6012 83.0807 31.4456 82.9981 31.268C82.7965 30.8909 82.6305 30.4958 82.5022 30.0878C82.2524 29.384 82.0859 28.6533 82.0063 27.9108C81.8675 26.6363 82.0063 25.8329 81.8972 25.818C81.7881 25.8032 81.565 26.5966 81.5997 27.9405C81.6265 28.7245 81.7566 29.5015 81.9865 30.2514C82.1219 30.7034 82.303 31.1404 82.527 31.5556C82.6575 31.7893 82.825 32.0003 83.0229 32.1805C83.2537 32.3881 83.5466 32.5136 83.8561 32.5375C84.1634 32.5483 84.466 32.4596 84.7189 32.2846C84.9461 32.1346 85.1444 31.9447 85.3041 31.7243C85.5816 31.3248 85.7834 30.8776 85.8992 30.4051C86.0817 29.6505 86.2061 28.8829 86.2711 28.1091C86.4199 26.79 86.3356 25.9767 86.2661 25.9767Z" fill="#C46153"/>
<path d="M101.461 24.0378C101.371 24.0378 101.461 24.9354 101.337 26.3487C101.279 27.1789 101.155 28.0031 100.965 28.8133C100.865 29.28 100.722 29.7366 100.538 30.177C100.473 30.3824 100.352 30.5659 100.189 30.7075C100.027 30.8492 99.8283 30.9435 99.6158 30.9804C99.1555 30.9631 98.7184 30.7738 98.391 30.4498C98.0424 30.1198 97.7508 29.7344 97.5281 29.3092C97.1199 28.6 96.8033 27.8418 96.5859 27.0529C96.2139 25.699 96.2239 24.8015 96.1296 24.8015C96.0354 24.8015 95.9065 25.704 96.1892 27.1471C96.3639 27.9918 96.6595 28.8068 97.0669 29.5671C97.3019 30.0399 97.6135 30.4706 97.9893 30.8416C98.4234 31.2769 99.011 31.5244 99.6258 31.5309C99.9658 31.5046 100.286 31.3588 100.528 31.1193C100.736 30.9064 100.904 30.6578 101.024 30.3853C101.219 29.9056 101.363 29.407 101.456 28.8976C101.632 28.0609 101.725 27.2087 101.733 26.3536C101.758 24.9056 101.53 24.0279 101.461 24.0378Z" fill="#C46153"/>
<path d="M117.513 30.0432C117.478 29.9836 116.898 30.2217 116.129 30.8614C115.131 31.714 114.361 32.8022 113.889 34.0275C113.417 35.2527 113.258 36.5763 113.427 37.8784C113.561 38.8702 113.833 39.4306 113.923 39.4108C114.012 39.3909 113.883 38.7958 113.853 37.8487C113.802 36.6164 114.004 35.3866 114.447 34.2358C114.891 33.085 115.566 32.0377 116.432 31.1589C117.067 30.4696 117.558 30.1225 117.513 30.0432Z" fill="#C46153"/>
<path d="M114.691 38.414C114.731 38.4735 115.078 38.3545 115.465 37.9181C115.967 37.3406 116.234 36.5955 116.214 35.8304C116.18 35.0661 115.863 34.3416 115.326 33.7972C114.924 33.3955 114.602 33.2566 114.557 33.3012C114.513 33.3459 114.726 33.6137 115.014 34.0401C115.398 34.5601 115.616 35.1841 115.639 35.8302C115.662 36.4763 115.489 37.1143 115.143 37.6602C114.885 38.1165 114.642 38.3446 114.691 38.414Z" fill="#C46153"/>
<path d="M115.668 42.401C117.582 42.401 117.582 39.4256 115.668 39.4256C113.754 39.4256 113.749 42.401 115.668 42.401Z" fill="#FFF5FF"/>
<g style="mix-blend-mode:multiply" opacity="0.33">
<g style="mix-blend-mode:multiply" opacity="0.33">
<path d="M103.895 41.2704C106.347 41.2704 108.334 39.2833 108.334 36.8321C108.334 34.3808 106.347 32.3937 103.895 32.3937C101.444 32.3937 99.4571 34.3808 99.4571 36.8321C99.4571 39.2833 101.444 41.2704 103.895 41.2704Z" fill="#FF927D"/>
</g>
<g style="mix-blend-mode:multiply" opacity="0.33">
<path d="M78.8771 33.7079C78.7234 33.7079 78.5647 33.7079 78.416 33.7079C78.5003 35.3444 78.6441 36.9808 78.8672 38.6074C79.0245 39.9214 79.3034 41.218 79.7003 42.4804C80.7841 42.2727 81.7515 41.6688 82.4141 40.7864C83.0767 39.904 83.3868 38.8065 83.284 37.7079C83.1812 36.6093 82.6728 35.5883 81.8581 34.8442C81.0433 34.1001 79.9806 33.6861 78.8771 33.6831V33.7079Z" fill="#FF927D"/>
</g>
</g>
<path d="M113.923 61.3495C113.397 61.1264 112.871 60.8933 112.366 60.6354C111.834 60.3611 111.335 60.0285 110.878 59.6436C108.469 61.5917 105.44 62.6074 102.343 62.505C100.638 62.385 98.9887 61.8495 97.5382 60.9454C96.0877 60.0412 94.8806 58.7958 94.0221 57.3178C93.0239 57.3337 92.0267 57.2456 91.0467 57.055C91.6526 58.8159 92.6191 60.4311 93.8846 61.7973C95.15 63.1635 96.6865 64.2507 98.396 64.9894C100.463 65.804 102.695 66.1142 104.906 65.8943C107.118 65.6744 109.244 64.9307 111.111 63.7249C112.14 63.0488 113.084 62.2513 113.923 61.3495Z" fill="#9B4471"/>
<g style="mix-blend-mode:multiply" opacity="0.21">
<g style="mix-blend-mode:multiply" opacity="0.21">
<path d="M91.2946 8.81851C93.665 11.298 94.1014 14.9925 94.5973 18.3944C95.0932 21.7963 95.9958 25.5205 98.8423 27.4496C100.33 28.4414 102.13 28.8133 103.905 28.9869C107.858 29.383 111.85 28.9627 115.634 27.7521C112.458 24.9051 110.301 21.0983 109.489 16.9116" fill="#FF927D"/>
</g>
</g>
<path d="M91.7607 8.20358C93.6055 9.34912 94.5279 11.536 94.989 13.6585C95.4502 15.781 95.5693 17.9927 96.328 20.0259C97.3749 22.6514 99.2896 24.8391 101.753 26.2247C105.259 28.2628 108.433 27.876 112.222 28.3174C113.055 28.4488 113.903 28.4488 114.736 28.3174C115.147 28.2598 115.537 28.0978 115.867 27.847C116.198 27.5961 116.459 27.2646 116.625 26.8842C114.185 24.8461 114.85 23.1402 113.61 20.383C112.256 17.3332 109.871 14.8288 107.233 12.8403C102.795 9.49789 97.0917 7.38534 91.6467 8.51104" fill="#CE534A"/>
<path d="M106.003 21.5285C107.491 23.9336 108.979 26.3586 109.861 29.0266C110.744 31.6945 111.051 34.665 110.099 37.3181C109.37 39.3463 107.977 41.0572 106.663 42.773C105.348 44.4888 104.064 46.3088 103.613 48.4164C103.162 50.5239 103.737 53.0035 105.532 54.1986C106.608 54.9176 107.947 55.0912 109.231 55.1904C113.527 55.6026 117.847 55.6806 122.155 55.4235C120.102 54.0944 118.024 52.7406 116.422 50.8909C114.82 49.0412 113.739 46.5964 114.066 44.1764C114.275 42.6589 115.004 41.2654 115.351 39.7777C115.936 37.2536 115.376 34.5856 114.384 32.1904C113.888 30.9804 113.263 29.6514 113.724 28.4265C113.982 27.7372 114.543 27.2116 114.924 26.5818C115.296 25.9672 115.492 25.2625 115.491 24.5444C115.49 23.8263 115.292 23.1222 114.919 22.5087C114.545 21.8952 114.011 21.3957 113.374 21.0647C112.737 20.7336 112.021 20.5836 111.304 20.6309" fill="#CE534A"/>
<path d="M44.1194 48.4461H44.0202C43.825 48.4202 43.6481 48.3179 43.5281 48.1617C43.4082 48.0056 43.3551 47.8082 43.3805 47.613L44.9773 35.7113C45.0021 35.5194 45.1012 35.3449 45.2532 35.2253C45.4053 35.1057 45.5982 35.0505 45.7905 35.0716L54.7168 36.0039C54.8145 36.014 54.9092 36.0432 54.9956 36.0899C55.082 36.1366 55.1583 36.1999 55.2203 36.2761C55.2822 36.3523 55.3285 36.44 55.3566 36.5341C55.3846 36.6282 55.3939 36.7269 55.3838 36.8246C55.3737 36.9223 55.3445 37.017 55.2977 37.1034C55.251 37.1898 55.1878 37.2662 55.1116 37.3281C55.0353 37.39 54.9477 37.4363 54.8536 37.4644C54.7595 37.4925 54.6607 37.5017 54.5631 37.4916L46.3559 36.6436L44.8682 47.8014C44.8429 47.9815 44.753 48.1462 44.6152 48.2648C44.4774 48.3834 44.3012 48.4479 44.1194 48.4461Z" fill="#9B4471"/>
<path d="M51.0719 73.4793H38.0297C37.7591 73.4789 37.4987 73.3766 37.3002 73.1928C37.1017 73.009 36.9797 72.7572 36.9585 72.4875L34.479 46.9832H54.6226L52.1431 72.4875C52.1219 72.7572 51.9999 73.009 51.8014 73.1928C51.6029 73.3766 51.3424 73.4789 51.0719 73.4793Z" fill="#FB93AF"/>
<path d="M44.5508 68.1434C48.2893 68.1434 51.3199 64.7287 51.3199 60.5164C51.3199 56.3041 48.2893 52.8894 44.5508 52.8894C40.8123 52.8894 37.7817 56.3041 37.7817 60.5164C37.7817 64.7287 40.8123 68.1434 44.5508 68.1434Z" fill="#E27798"/>
<g style="mix-blend-mode:multiply" opacity="0.18">
<g style="mix-blend-mode:multiply" opacity="0.18">
<path d="M52.7679 65.7481C50.7843 64.3993 48.5428 63.586 46.4203 62.5198C44.2979 61.4536 42.22 60.0403 41.1043 57.9526C40.5276 56.7658 40.1649 55.4866 40.0331 54.1738C39.7223 51.7913 39.754 49.3765 40.1273 47.003H34.479L36.9585 72.5073C36.9797 72.777 37.1017 73.0288 37.3002 73.2126C37.4987 73.3964 37.7591 73.4987 38.0297 73.4991H51.0719C51.3424 73.4987 51.6029 73.3964 51.8014 73.2126C51.9999 73.0288 52.1219 72.777 52.1431 72.5073L52.7977 65.768L52.7679 65.7481Z" fill="#FB93AF"/>
</g>
</g>
<path d="M54.8457 45.922H34.2608C33.8664 45.922 33.5467 46.2417 33.5467 46.6361V48.9271C33.5467 49.3215 33.8664 49.6412 34.2608 49.6412H54.8457C55.2401 49.6412 55.5598 49.3215 55.5598 48.9271V46.6361C55.5598 46.2417 55.2401 45.922 54.8457 45.922Z" fill="#E27798"/>
<path d="M56.2491 71.2428C55.3274 68.2926 54.1955 65.4123 52.8621 62.624C52.0885 61.0172 51.2058 59.47 49.6586 58.498C48.7015 57.898 47.1791 57.3575 47.4766 58.9196C47.5956 59.6138 48.7461 60.3676 49.1577 60.9032C49.8706 61.7771 50.3926 62.7907 50.6901 63.8786C51.4141 66.9433 49.4553 69.5815 49.5049 72.6511C49.5445 74.8232 50.5314 77.1142 52.4803 78.106" fill="#FF927D"/>
<path d="M80.0178 69.5121C89.8473 69.5121 97.8158 68.5707 97.8158 67.4094C97.8158 66.2482 89.8473 65.3068 80.0178 65.3068C70.1883 65.3068 62.2198 66.2482 62.2198 67.4094C62.2198 68.5707 70.1883 69.5121 80.0178 69.5121Z" fill="#C98E36"/>
<path d="M83.8164 71.4907C82.8382 70.4289 82.2673 69.0551 82.2047 67.6127C82.0309 65.8674 82.4202 64.1123 83.3155 62.6041C83.5467 62.2275 83.8625 61.91 84.2379 61.6768C84.4277 61.5642 84.6407 61.4962 84.8606 61.4782C85.0806 61.4601 85.3018 61.4924 85.5074 61.5726C85.8106 61.7353 86.0642 61.9769 86.2414 62.2719C87.1224 63.6663 87.4232 65.3499 87.0794 66.9631C86.7322 68.5639 86.0041 70.0575 84.957 71.3171" fill="#A4B24A"/>
<path d="M85.3437 68.1533C85.7355 67.8657 86.276 67.459 86.8612 67.0028L87.1042 66.8094C87.1042 66.73 87.1042 66.6457 87.1389 66.5664L86.7521 66.8639C86.1669 67.3202 85.6462 67.7417 85.2644 68.0541C84.9619 68.312 84.7685 68.4905 84.6991 68.55C84.7288 68.1037 84.7487 67.6326 84.7635 67.1317C84.7635 66.5168 84.7635 65.9316 84.7635 65.401C84.8677 65.3266 85.0561 65.1679 85.314 64.9497L86.8017 63.6654L86.886 63.5959L86.8265 63.4174L86.6876 63.5364C86.1074 64.0323 85.5967 64.5282 85.2346 64.8555C85.0164 65.0688 84.8528 65.2324 84.7387 65.3514C84.7387 64.8555 84.704 64.4142 84.6743 64.0422C84.6445 63.6703 84.6148 63.3232 84.585 63.105C84.5835 62.9885 84.5634 62.873 84.5255 62.7628C84.5138 62.8782 84.5138 62.9945 84.5255 63.1099C84.5255 63.4472 84.5503 63.7596 84.5602 64.0472C84.5602 64.4191 84.5602 64.8555 84.59 65.3415C84.2924 65.0886 83.5635 64.5381 82.6659 63.8538C82.6659 63.9084 82.6212 63.9629 82.6064 64.0175C83.5287 64.682 84.2875 65.2027 84.59 65.3861C84.59 65.9168 84.59 66.5019 84.59 67.1218C84.59 67.6177 84.5602 68.069 84.5404 68.5004C84.466 68.4359 84.1784 68.2376 83.7469 67.95L82.1749 66.8738C82.1749 66.9433 82.1749 67.0127 82.1749 67.0821C82.7452 67.4689 83.2709 67.8012 83.6626 68.0491C83.9379 68.2296 84.2226 68.3951 84.5156 68.545C84.4858 69.1848 84.4412 69.765 84.4065 70.2311L84.3271 71.1684C84.3271 71.2725 84.3271 71.3518 84.3271 71.4114H84.3668C84.3668 71.3518 84.3668 71.2775 84.4114 71.1832C84.4462 70.965 84.4908 70.6427 84.5404 70.2509C84.59 69.8592 84.6495 69.2244 84.6941 68.5946C84.92 68.4618 85.137 68.3144 85.3437 68.1533Z" fill="#8D963D"/>
<path d="M93.5758 66.5664C93.5758 67.0871 93.7394 67.5582 93.8138 68.1037C94.0469 69.755 92.5591 71.1783 90.9673 71.3816C90.0152 71.5006 89.0333 71.218 88.0911 71.3816C87.5653 71.4899 87.0787 71.7383 86.6827 72.1007C86.3728 72.4134 86.1653 72.8129 86.0876 73.2462C86.038 73.1966 85.2793 72.6263 85.2545 72.7106C85.6076 71.5279 85.557 70.2612 85.1107 69.1104C84.5801 67.9599 84.4759 65.9812 85.2942 64.925C85.604 64.5381 86.0042 64.2332 86.4595 64.0373C86.886 63.8439 87.3125 63.9232 87.7291 63.7546C88.9043 63.2835 89.4845 61.3297 90.154 60.3577C90.8235 59.3857 91.7905 58.5229 92.9608 58.4931C93.4305 58.4894 93.8939 58.6019 94.3097 58.8204C96.2933 59.8419 94.8948 62.4256 94.2452 63.9381C93.9285 64.6075 93.7098 65.319 93.5956 66.0507C93.5755 66.2218 93.5689 66.3942 93.5758 66.5664Z" fill="#78894A"/>
<path d="M92.1178 69.1699C92.7079 69.0905 93.2683 69.0062 93.784 68.9219C93.8008 68.8568 93.8124 68.7905 93.8187 68.7236L92.088 68.9666C90.764 69.1401 89.5639 69.274 88.6961 69.3633C88.096 69.4277 87.6596 69.4773 87.4464 69.5121C87.8282 68.7484 88.2597 67.9351 88.7357 67.097C89.2118 66.2589 89.7275 65.4109 90.2234 64.6621C90.3871 64.6621 90.6697 64.6175 91.0367 64.5679C91.6417 64.4836 92.4699 64.3447 93.3823 64.1613L94.2303 63.9827C94.2551 63.9183 94.2898 63.8488 94.3196 63.7794L93.3278 63.9778L91.002 64.4439L90.2631 64.6026C90.8384 63.7149 91.3838 62.9265 91.85 62.2867C92.3161 61.647 92.6434 61.2156 92.8914 60.8883C93.0302 60.7241 93.1547 60.5482 93.2633 60.3626C93.105 60.5147 92.9606 60.6807 92.8319 60.8585C92.5591 61.171 92.1823 61.6371 91.7359 62.2223C91.2896 62.8074 90.6896 63.6306 90.1044 64.5183C90.1044 64.3547 90.0499 64.0869 90.0003 63.7348C89.916 63.1447 89.8019 62.3314 89.7127 61.4338C89.7127 61.3544 89.7127 61.2801 89.6879 61.2057L89.5193 61.5429C89.5938 62.2871 89.7064 63.0269 89.8565 63.7596C89.9358 64.1563 90.0102 64.4439 90.0548 64.5877C89.5589 65.3365 89.063 66.1548 88.5671 67.0375C88.0712 67.9202 87.6547 68.6988 87.2728 69.4773C87.2331 69.279 87.1687 68.9814 87.0794 68.55C86.9257 67.8508 86.7224 66.8788 86.5141 65.8027C86.4099 65.2423 86.3157 64.7067 86.2314 64.2208L86.0529 64.3249C86.1273 64.7911 86.2116 65.3167 86.3157 65.8424C86.519 66.9185 86.7521 67.8904 86.9406 68.5847C87.0645 69.0459 87.1637 69.3831 87.2282 69.5765C86.7323 70.5683 86.3356 71.4857 86.0281 72.2445C85.9091 72.5371 85.8049 72.7999 85.7107 73.0429L85.8099 73.1173L86.162 72.304C86.4942 71.5403 86.9207 70.6229 87.4216 69.6211H87.6745C87.9224 69.6211 88.2745 69.6211 88.7109 69.5716C89.5837 69.4773 90.7888 69.3434 92.1178 69.1699Z" fill="#647039"/>
<path d="M77.0721 71.9023C78.701 70.7343 79.8625 69.0262 80.35 67.0821C80.9798 64.8059 81.1286 62.1528 80.2409 59.951C80.0361 59.3734 79.696 58.8531 79.2491 58.4336C79.0235 58.2247 78.7523 58.0712 78.4571 57.9852C78.1619 57.8991 77.8508 57.8828 77.5482 57.9377C77.0884 58.0697 76.6746 58.3273 76.3531 58.6815C74.7537 60.3298 73.8636 62.539 73.8736 64.8357C73.9025 67.11 74.4755 69.3443 75.5447 71.3518" fill="#A4B24A"/>
<path d="M75.9265 66.9383C75.4703 66.4424 74.8554 65.7333 74.1859 64.9547L73.9033 64.6225C73.9033 64.5084 73.9033 64.3993 73.9033 64.2852L74.3446 64.7811C75.0141 65.5647 75.6092 66.2689 76.0356 66.8143C76.2602 67.0841 76.4705 67.3655 76.6654 67.6574C76.7497 67.0474 76.8489 66.3928 76.9729 65.7134C77.1266 64.8754 77.2952 64.077 77.4688 63.3579C77.3498 63.224 77.1316 62.9562 76.844 62.5843L75.1777 60.4321L75.0885 60.3131C75.1281 60.2387 75.1678 60.1643 75.2124 60.0899L75.3711 60.2883C76.0208 61.1363 76.5861 61.9198 76.9779 62.495C77.2159 62.8422 77.3944 63.1149 77.4738 63.2786C77.6324 62.614 77.7862 62.019 77.93 61.5131C78.0738 61.0073 78.2127 60.5561 78.3118 60.2635C78.3526 60.1063 78.4126 59.9547 78.4904 59.8122C78.4834 59.9808 78.4534 60.1477 78.4011 60.3081C78.292 60.7643 78.1879 61.1908 78.0936 61.5776C77.9746 62.0735 77.8358 62.6736 77.692 63.3282C78.1879 63.0703 79.3086 62.5198 80.717 61.8752C80.717 61.9545 80.7467 62.0388 80.7566 62.1181C79.3136 62.7579 78.1333 63.2587 77.6721 63.4224C77.5134 64.1464 77.3498 64.9448 77.1762 65.7878C77.0572 66.4474 76.9531 67.0821 76.8638 67.6822C76.9779 67.6128 77.4242 67.4243 78.0936 67.1466C78.7631 66.8689 79.5813 66.5317 80.5335 66.125L80.474 66.4077C79.5813 66.7796 78.778 67.0871 78.1531 67.3053C77.7301 67.4662 77.2979 67.602 76.8588 67.7119C76.7249 68.5946 76.6158 69.393 76.5415 70.0427C76.4919 70.4394 76.4373 70.8708 76.3828 71.3419C76.3828 71.4857 76.3481 71.5948 76.3332 71.6742H76.2836C76.2836 71.5948 76.2836 71.4907 76.2836 71.3519C76.2836 71.0444 76.3183 70.5981 76.3679 70.0476C76.4175 69.403 76.5018 68.6194 76.6258 67.7466C76.3728 67.4951 76.1391 67.2249 75.9265 66.9383Z" fill="#8D963D"/>
<path d="M67.3524 66.3581C67.3524 66.854 67.2036 67.2855 67.1342 67.7764C66.921 69.3087 68.2946 70.6278 69.7674 70.8163C70.6501 70.9254 71.5626 70.6626 72.4354 70.8163C72.9221 70.9191 73.3724 71.1502 73.7396 71.4858C74.0236 71.7749 74.2137 72.1431 74.2851 72.542C74.3347 72.4974 75.0389 71.9717 75.0587 72.0461C74.73 70.9498 74.7771 69.7751 75.1926 68.7087C75.6885 67.6425 75.7827 65.8126 75.024 64.8357C74.7354 64.4781 74.3645 64.1956 73.9429 64.0125C73.5512 63.834 73.1545 63.9084 72.7676 63.7546C71.6767 63.3182 71.1411 61.5032 70.5262 60.6057C69.9113 59.7081 69.0037 58.9097 67.9227 58.8799C67.4875 58.8757 67.0581 58.9797 66.673 59.1824C64.8233 60.1246 66.1325 62.5198 66.7325 63.9183C67.0268 64.5389 67.2306 65.1986 67.3375 65.8771C67.3561 66.0367 67.3611 66.1977 67.3524 66.3581Z" fill="#78894A"/>
<path d="M68.731 68.7682C68.1856 68.6938 67.6649 68.6145 67.1838 68.5401C67.1838 68.4756 67.1838 68.4161 67.1541 68.3516C67.65 68.426 68.1905 68.5054 68.7558 68.5798C69.9807 68.7384 71.0915 68.8624 71.8999 68.9467C72.4503 69.0062 72.857 69.0509 73.0553 69.0856C72.6983 68.3764 72.3015 67.5979 71.8602 66.849C71.4188 66.1002 70.9279 65.287 70.4816 64.5927C70.3279 64.5927 70.065 64.553 69.7229 64.5034C69.1674 64.429 68.3988 64.3001 67.5558 64.1315L66.7474 63.9629C66.7474 63.9034 66.6929 63.8389 66.6681 63.7745L67.5806 63.9629L69.7377 64.3943L70.4221 64.5381C69.8865 63.7149 69.3807 62.9909 68.9344 62.3958C68.4881 61.8008 68.2004 61.404 67.9426 61.0966C67.8166 60.9398 67.7023 60.7741 67.6004 60.6007C67.745 60.7359 67.8793 60.8818 68.0021 61.0371C68.25 61.3247 68.5972 61.7561 68.9939 62.3016C69.3906 62.8471 69.9857 63.6058 70.5064 64.429C70.5064 64.2753 70.556 64.0274 70.6056 63.705C70.6799 63.1595 70.7841 62.4058 70.8684 61.5677C70.8684 61.4983 70.8684 61.4288 70.8684 61.3594L71.0271 61.6718C70.9428 62.4801 70.8238 63.2042 70.7147 63.7249C70.6403 64.0918 70.5708 64.3596 70.5312 64.4935C70.9874 65.1878 71.4635 65.9465 71.9296 66.7598C72.3958 67.5731 72.7727 68.302 73.1297 69.0161C73.1595 68.8376 73.2239 68.545 73.3033 68.1632C73.4471 67.5136 73.6355 66.616 73.8289 65.6192L74.0918 64.1315L74.2554 64.2257C74.186 64.6572 74.1066 65.1332 74.0124 65.6291C73.824 66.6209 73.6107 67.5235 73.4372 68.1682C73.3181 68.5946 73.2239 68.907 73.1644 69.0707C73.6157 69.9931 73.9926 70.8361 74.2752 71.5502C74.3893 71.823 74.4835 72.0461 74.5728 72.2891L74.4786 72.3536C74.3794 72.1304 74.2752 71.8577 74.1562 71.6048C73.8488 70.9006 73.452 70.0476 72.9859 69.1252H72.7528C72.5247 69.1252 72.1974 69.1252 71.7908 69.0757C71.0519 69.031 69.9361 68.9269 68.731 68.7682Z" fill="#647039"/>
<path d="M97.8107 67.4392C97.6818 68.5897 89.7722 69.5121 80.0227 69.5121C70.6452 69.5121 62.9736 68.6591 62.2793 67.5681C62.1157 72.8445 63.8364 78.4284 66.6433 82.8518C66.8396 83.2018 67.1004 83.5114 67.4119 83.7643C67.7691 83.9882 68.1667 84.1398 68.5822 84.2106C72.3473 85.0349 76.2004 85.3864 80.0525 85.257C83.9111 85.3876 87.771 85.0361 91.5425 84.2106C91.9563 84.1389 92.3521 83.9873 92.7079 83.7643C93.0194 83.5114 93.2802 83.2018 93.4765 82.8518C96.2784 78.4036 98.0141 72.7503 97.8107 67.4392Z" fill="#F7BF54"/>
<path d="M62.5521 71.9569C62.5521 72.1403 62.6066 72.3238 62.6364 72.5024C74.2247 73.7912 85.9246 73.708 97.4934 72.2544C97.5231 72.0709 97.5479 71.8874 97.5777 71.7039C85.9539 73.179 74.1959 73.2639 62.5521 71.9569Z" fill="#E2A744"/>
<path d="M63.2017 75.0116C63.3009 75.3786 63.41 75.7505 63.524 76.1175C74.5374 77.2682 85.6447 77.1884 96.6404 75.8794C96.7545 75.5125 96.8586 75.1405 96.9578 74.7686C85.752 76.1387 74.4261 76.2202 63.2017 75.0116Z" fill="#E2A744"/>
<path d="M64.7638 79.3954C64.8481 79.5839 64.9374 79.7723 65.0266 79.9558C75.0432 80.909 85.1308 80.8375 95.1329 79.7425C95.2221 79.5591 95.3114 79.3706 95.3957 79.1772C85.2204 80.3135 74.9543 80.3866 64.7638 79.3954Z" fill="#E2A744"/>
<g style="mix-blend-mode:multiply" opacity="0.22">
<g style="mix-blend-mode:multiply" opacity="0.22">
<path d="M92.6831 83.7643C92.9946 83.5114 93.2554 83.2018 93.4517 82.8518C93.8485 82.227 94.2154 81.5823 94.5675 80.9178C88.9242 81.0864 83.127 82.2816 78.0788 79.926C77.0143 79.4268 76.015 78.7989 75.1033 78.0565C72.2891 75.7483 70.2787 72.6077 69.3608 69.0856C65.3936 68.7335 62.6711 68.183 62.2743 67.5582C62.1107 72.8346 63.8315 78.4185 66.6383 82.8419C66.8346 83.1919 67.0954 83.5015 67.4069 83.7544C67.7641 83.9782 68.1617 84.1299 68.5773 84.2007C72.3423 85.025 76.1954 85.3765 80.0475 85.247C83.9074 85.3814 87.7689 85.0332 91.5425 84.2106C91.9477 84.1359 92.3348 83.9844 92.6831 83.7643Z" fill="#E2A744"/>
</g>
</g>
<path d="M130.173 94.942C130.258 86.2686 128.72 77.4663 124.361 69.8691C122.74 67.0425 119.11 64.4687 115.981 66.8044C113.645 68.55 112.941 72.056 112.509 74.7389C111.991 78.251 111.833 81.807 112.038 85.3512C112.172 88.2374 112.683 90.2061 111.359 93.0575C110.531 94.8279 109.965 94.9816 108.016 94.7039C105.616 94.3568 103.553 92.9038 101.52 91.7285C100.677 91.2326 93.5857 85.6884 93.2733 85.9066C90.0231 88.0686 87.1387 90.7354 84.7289 93.8063C88.578 100.193 93.9046 105.562 100.261 109.462C105.368 112.656 111.304 115.735 117.449 115.983C120.236 116.092 124.332 115.72 126.31 113.459C130.56 108.654 130.119 100.888 130.173 94.942Z" fill="#FF927D"/>
<g style="mix-blend-mode:multiply" opacity="0.21">
<g style="mix-blend-mode:multiply" opacity="0.21">
<path d="M111.498 92.7501C115.252 94.8328 120.027 95.2296 124.173 95.2296C126.176 95.2296 128.177 95.1469 130.173 94.9816V94.9172C130.253 86.8042 128.914 78.5871 125.175 71.337L112.033 85.252C112.036 85.2834 112.036 85.3149 112.033 85.3462C112.167 88.1431 112.638 90.0771 111.498 92.7501Z" fill="#FF927D"/>
</g>
</g>
<path d="M122.184 90.8607C123.907 90.6361 125.603 90.2425 127.248 89.6854C127.669 89.5316 131.473 87.7464 131.458 87.6621C131.173 86.1056 130.809 84.5646 130.367 83.0452C129.537 79.8913 128.606 76.777 127.575 73.7024C126.33 69.998 125.095 66.7598 121.693 65.2324C118.525 63.8042 115.425 64.672 113.263 67.7119C111.711 69.8889 111.126 73.0528 110.828 75.7753C110.332 80.3624 109.797 85.4256 109.965 90.0474C113.695 91.2358 117.649 91.5514 121.52 90.9698L122.184 90.8607Z" fill="#9B4471"/>
<path d="M88.7854 99.0183C86.8265 97.838 85.6612 95.656 84.6694 93.6724C83.499 91.3318 82.775 88.5299 83.4544 85.9363C84.2032 83.0899 86.5935 80.6252 86.3356 77.6895C86.2017 76.2018 85.3735 74.6843 85.8397 73.2561C86.4199 73.0181 86.9555 73.6875 87.1935 74.2479C88.349 77.0609 88.4927 80.1877 87.6002 83.0948C87.8828 82.1873 88.7159 81.3195 89.0879 80.3773C89.8519 78.2758 90.0032 76.0006 89.5243 73.8165C89.3904 73.2264 88.7209 71.9816 89.4647 71.5452C90.4566 70.9601 91.4136 73.4346 91.607 74.1239C92.3898 76.9413 92.3467 79.9243 91.4831 82.7179C93.4667 81.1112 93.794 78.2548 93.9626 75.7059C94.0271 74.7686 93.9378 73.8214 94.0122 72.8792C94.0717 72.1155 94.1907 70.3551 95.0833 71.1832C96.3826 72.3833 96.1049 74.2281 95.9908 75.7951C95.8405 77.8532 95.5856 79.9022 95.2271 81.9344C96.7148 80.8781 96.4719 78.3837 97.9298 77.2878C97.9712 77.2362 98.0259 77.1968 98.088 77.1741C98.1502 77.1514 98.2174 77.1461 98.2823 77.1589C98.3472 77.1717 98.4074 77.202 98.4563 77.2466C98.5052 77.2912 98.5409 77.3483 98.5596 77.4118C99.2092 78.6069 98.6588 79.7078 98.148 80.7839C97.4488 82.2716 96.8735 83.794 96.2437 85.2867C95.9331 85.8466 95.8113 86.4919 95.8966 87.1265C96.1198 88.0241 97.0769 88.4902 97.8802 88.9564C98.6731 89.4227 99.3974 89.9968 100.032 90.6623" fill="#FF927D"/>
</g>
<g filter="url(#filter0_b_152:11453)">
<rect x="13" y="77" width="141" height="77" rx="10" fill="black" fill-opacity="0.8"/>
</g>
<path d="M51.372 86.872C52.2493 86.872 53.038 87.054 53.738 87.418L53.402 89L53.248 89.07C52.968 88.874 52.66 88.72 52.324 88.608C51.988 88.496 51.6426 88.44 51.288 88.44C49.804 88.44 49.062 89.4153 49.062 91.366C49.062 92.4207 49.2533 93.214 49.636 93.746C50.028 94.2687 50.5973 94.53 51.344 94.53C51.6893 94.53 52.044 94.4787 52.408 94.376C52.7813 94.264 53.1173 94.1147 53.416 93.928L53.584 94.026L53.43 95.636C52.7206 95.9627 51.974 96.126 51.19 96.126C49.846 96.126 48.8193 95.734 48.11 94.95C47.41 94.166 47.06 93.0413 47.06 91.576C47.06 90.0827 47.4333 88.9253 48.18 88.104C48.936 87.2827 50 86.872 51.372 86.872ZM57.2376 89.364C58.1896 89.364 58.9176 89.644 59.4216 90.204C59.9256 90.764 60.1776 91.5713 60.1776 92.626C60.1776 93.7647 59.907 94.6373 59.3656 95.244C58.8243 95.8413 58.045 96.14 57.0276 96.14C56.0756 96.14 55.3476 95.86 54.8436 95.3C54.3396 94.74 54.0876 93.9327 54.0876 92.878C54.0876 91.7393 54.3583 90.8713 54.8996 90.274C55.441 89.6673 56.2203 89.364 57.2376 89.364ZM57.1116 90.624C56.6636 90.624 56.337 90.7733 56.1316 91.072C55.9356 91.3707 55.8376 91.8513 55.8376 92.514C55.8376 93.3727 55.9403 93.984 56.1456 94.348C56.351 94.712 56.687 94.894 57.1536 94.894C57.6016 94.894 57.9236 94.7493 58.1196 94.46C58.325 94.1613 58.4276 93.676 58.4276 93.004C58.4276 92.1547 58.3203 91.548 58.1056 91.184C57.9003 90.8107 57.569 90.624 57.1116 90.624ZM65.3756 91.94C65.3849 91.6133 65.3102 91.3613 65.1516 91.184C65.0022 90.9973 64.7829 90.904 64.4936 90.904C64.0736 90.904 63.6256 91.1047 63.1496 91.506V93.13L63.2336 96H61.3716L61.4696 93.312L61.3996 89.616L63.1636 89.462V90.414H63.2616C63.7749 89.9473 64.3349 89.6113 64.9416 89.406C65.6509 89.406 66.1922 89.5693 66.5656 89.896C66.9389 90.2133 67.1162 90.6753 67.0976 91.282L67.0556 93.144L67.1396 96H65.2636L65.3756 91.94ZM71.4137 94.628C71.7124 94.628 72.0251 94.5487 72.3517 94.39L72.5057 94.53L72.3237 95.636C71.8477 95.8787 71.3624 96.028 70.8677 96.084C69.6077 95.9533 68.9777 95.3373 68.9777 94.236L69.0477 93.074L69.0337 90.666H68.1657L68.0957 90.568L68.1937 89.546H69.0197V88.468L70.7137 87.922L70.8397 88.034L70.7977 89.546H72.4637L72.5197 89.644L72.4357 90.666H70.7697L70.6857 93.802C70.6857 94.1007 70.7417 94.3153 70.8537 94.446C70.9657 94.5673 71.1524 94.628 71.4137 94.628ZM76.0742 89.364C76.7929 89.364 77.3529 89.5273 77.7542 89.854C78.1649 90.1713 78.3702 90.6193 78.3702 91.198C78.3702 91.366 78.3422 91.898 78.2862 92.794C78.2769 93.0553 78.2629 93.326 78.2442 93.606C78.2255 93.8767 78.2162 94.11 78.2162 94.306C78.2162 94.4647 78.2395 94.5767 78.2862 94.642C78.3329 94.698 78.4169 94.726 78.5382 94.726C78.6315 94.726 78.7529 94.7073 78.9022 94.67L79.0422 94.782L78.8742 95.762C78.5755 95.958 78.2349 96.0747 77.8522 96.112C77.5722 96.084 77.3389 95.986 77.1522 95.818C76.9655 95.6407 76.8395 95.398 76.7742 95.09H76.6762C76.2095 95.5847 75.7289 95.93 75.2342 96.126C74.5622 96.1167 74.0349 95.9393 73.6522 95.594C73.2695 95.2487 73.0782 94.7773 73.0782 94.18C73.0782 93.7133 73.1949 93.3493 73.4282 93.088C73.6709 92.8173 74.0349 92.6353 74.5202 92.542L76.6622 92.136V91.562C76.6622 90.9553 76.3635 90.652 75.7662 90.652C75.4769 90.652 75.1689 90.7173 74.8422 90.848C74.5249 90.9787 74.1655 91.184 73.7642 91.464L73.6242 91.38L73.4142 90.148C73.8155 89.896 74.2449 89.7047 74.7022 89.574C75.1595 89.434 75.6169 89.364 76.0742 89.364ZM75.1642 93.396C75.0149 93.4333 74.9029 93.4987 74.8282 93.592C74.7629 93.676 74.7302 93.8067 74.7302 93.984C74.7302 94.2267 74.7955 94.418 74.9262 94.558C75.0569 94.6887 75.2389 94.754 75.4722 94.754C75.8362 94.754 76.2189 94.5393 76.6202 94.11L76.6482 93.074L75.1642 93.396ZM86.5104 90.372C86.2584 90.4373 85.8991 90.5073 85.4324 90.582L85.4044 90.638C85.5444 90.918 85.6144 91.2307 85.6144 91.576C85.6144 92.276 85.3578 92.836 84.8444 93.256C84.3404 93.6667 83.6544 93.872 82.7864 93.872C82.5251 93.872 82.2544 93.8487 81.9744 93.802C81.8904 93.886 81.8344 93.9513 81.8064 93.998C81.7784 94.0447 81.7644 94.1007 81.7644 94.166C81.7644 94.334 81.8764 94.4507 82.1004 94.516C82.3244 94.5813 82.6791 94.6467 83.1644 94.712C83.7151 94.7773 84.1724 94.8567 84.5364 94.95C84.9098 95.0433 85.2271 95.2067 85.4884 95.44C85.7591 95.6733 85.8944 96.0047 85.8944 96.434C85.8944 96.8727 85.7544 97.2647 85.4744 97.61C85.2038 97.9647 84.8258 98.24 84.3404 98.436C83.8551 98.632 83.3044 98.73 82.6884 98.73C81.8391 98.73 81.1858 98.5573 80.7284 98.212C80.2711 97.8667 80.0424 97.4093 80.0424 96.84C80.3318 96.4387 80.7191 96.0887 81.2044 95.79V95.72C80.8871 95.608 80.6398 95.454 80.4624 95.258C80.2851 95.0527 80.1964 94.782 80.1964 94.446C80.4484 94.138 80.7658 93.8533 81.1484 93.592V93.522C80.8124 93.3353 80.5558 93.0927 80.3784 92.794C80.2104 92.486 80.1264 92.1267 80.1264 91.716C80.1264 90.988 80.3784 90.4187 80.8824 90.008C81.3864 89.5973 82.0724 89.392 82.9404 89.392C83.4444 89.392 83.9018 89.476 84.3124 89.644C84.9844 89.5227 85.6704 89.336 86.3704 89.084L86.5104 89.21V90.372ZM82.8424 92.752C83.2251 92.752 83.5144 92.654 83.7104 92.458C83.9064 92.262 84.0044 91.9773 84.0044 91.604C84.0044 90.8947 83.6404 90.54 82.9124 90.54C82.1284 90.54 81.7364 90.8993 81.7364 91.618C81.7364 91.9913 81.8298 92.276 82.0164 92.472C82.2031 92.6587 82.4784 92.752 82.8424 92.752ZM84.3264 96.77C84.3264 96.518 84.1911 96.3453 83.9204 96.252C83.6591 96.1587 83.2531 96.0793 82.7024 96.014L82.2264 95.944C82.0024 96.0933 81.8344 96.238 81.7224 96.378C81.6104 96.518 81.5544 96.6673 81.5544 96.826C81.5544 97.0687 81.6664 97.2647 81.8904 97.414C82.1144 97.5633 82.4411 97.638 82.8704 97.638C83.3091 97.638 83.6591 97.5587 83.9204 97.4C84.1911 97.2507 84.3264 97.0407 84.3264 96.77ZM92.2378 92.976L88.4578 93.004C88.5418 94.1707 89.1344 94.754 90.2358 94.754C90.8144 94.754 91.4584 94.5907 92.1678 94.264L92.3218 94.362L92.0418 95.748C91.3324 96.0093 90.6651 96.14 90.0397 96.14C89.0131 96.14 88.2058 95.8413 87.6178 95.244C87.0391 94.6467 86.7498 93.8207 86.7498 92.766C86.7498 91.7207 87.0344 90.8947 87.6038 90.288C88.1731 89.672 88.9431 89.364 89.9138 89.364C90.7444 89.364 91.3838 89.5927 91.8318 90.05C92.2891 90.498 92.5178 91.128 92.5178 91.94C92.5178 92.1547 92.4944 92.4253 92.4478 92.752L92.2378 92.976ZM90.8938 91.73C90.8938 91.3567 90.8098 91.0767 90.6418 90.89C90.4738 90.694 90.2264 90.596 89.8998 90.596C89.5358 90.596 89.2324 90.7173 88.9898 90.96C88.7471 91.1933 88.5838 91.534 88.4998 91.982L90.8658 91.926L90.8938 91.73ZM101.599 96L101.711 91.94C101.711 91.2493 101.417 90.904 100.829 90.904C100.409 90.904 99.9706 91.0907 99.5133 91.464L99.4713 93.144L99.5553 96H97.6933L97.8053 91.94C97.8146 91.604 97.7399 91.3473 97.5813 91.17C97.4319 90.9927 97.2126 90.904 96.9233 90.904C96.5126 90.904 96.0599 91.1 95.5653 91.492V93.13L95.6493 96H93.8013L93.8993 93.312L93.8293 89.616L95.5793 89.462V90.414H95.6773C96.1906 89.9473 96.7553 89.6113 97.3713 89.406C98.4166 89.406 99.0839 89.756 99.3733 90.456H99.4573C99.9893 89.9613 100.596 89.6113 101.277 89.406C101.987 89.406 102.523 89.5693 102.887 89.896C103.261 90.2133 103.438 90.6753 103.419 91.282L103.377 93.144L103.461 96H101.599ZM112.645 93.13L112.687 94.306C112.687 94.4647 112.706 94.5767 112.743 94.642C112.79 94.698 112.869 94.726 112.981 94.726C113.084 94.726 113.21 94.7073 113.359 94.67L113.485 94.782L113.331 95.762C113.014 95.958 112.669 96.0747 112.295 96.112C112.006 96.084 111.763 95.986 111.567 95.818C111.371 95.65 111.236 95.4213 111.161 95.132H111.049C110.592 95.552 110.125 95.874 109.649 96.098C108.735 96.098 108.025 95.8087 107.521 95.23C107.017 94.642 106.765 93.83 106.765 92.794C106.765 91.6927 107.055 90.848 107.633 90.26C108.212 89.672 109.015 89.378 110.041 89.378C110.312 89.378 110.611 89.406 110.937 89.462L110.909 86.312L112.757 86.172L112.645 93.13ZM109.915 90.638C108.982 90.638 108.515 91.2307 108.515 92.416C108.515 93.1533 108.627 93.7087 108.851 94.082C109.075 94.4553 109.402 94.642 109.831 94.642C110.242 94.642 110.62 94.4507 110.965 94.068L110.993 93.298L110.951 90.89C110.587 90.722 110.242 90.638 109.915 90.638ZM119.623 92.976L115.843 93.004C115.927 94.1707 116.519 94.754 117.621 94.754C118.199 94.754 118.843 94.5907 119.553 94.264L119.707 94.362L119.427 95.748C118.717 96.0093 118.05 96.14 117.425 96.14C116.398 96.14 115.591 95.8413 115.003 95.244C114.424 94.6467 114.135 93.8207 114.135 92.766C114.135 91.7207 114.419 90.8947 114.989 90.288C115.558 89.672 116.328 89.364 117.299 89.364C118.129 89.364 118.769 89.5927 119.217 90.05C119.674 90.498 119.903 91.128 119.903 91.94C119.903 92.1547 119.879 92.4253 119.833 92.752L119.623 92.976ZM118.279 91.73C118.279 91.3567 118.195 91.0767 118.027 90.89C117.859 90.694 117.611 90.596 117.285 90.596C116.921 90.596 116.617 90.7173 116.375 90.96C116.132 91.1933 115.969 91.534 115.885 91.982L118.251 91.926L118.279 91.73ZM31.6979 105.364C32.0059 105.364 32.3093 105.397 32.6079 105.462C32.9159 105.518 33.1866 105.602 33.4199 105.714L33.1119 107.198L32.9579 107.268C32.4819 107.007 32.0573 106.876 31.6839 106.876C31.2546 106.876 30.9233 107.03 30.6899 107.338C30.4566 107.646 30.3399 108.085 30.3399 108.654C30.3399 109.307 30.4659 109.807 30.7179 110.152C30.9699 110.497 31.3293 110.67 31.7959 110.67C32.2159 110.67 32.6826 110.553 33.1959 110.32L33.3359 110.432L33.1539 111.874C32.5939 112.051 32.0199 112.14 31.4319 112.14C30.5359 112.14 29.8359 111.851 29.3319 111.272C28.8279 110.684 28.5759 109.867 28.5759 108.822C28.5759 107.739 28.8513 106.895 29.4019 106.288C29.9526 105.672 30.7179 105.364 31.6979 105.364ZM36.8359 105.364C37.5546 105.364 38.1146 105.527 38.5159 105.854C38.9266 106.171 39.1319 106.619 39.1319 107.198C39.1319 107.366 39.1039 107.898 39.0479 108.794C39.0386 109.055 39.0246 109.326 39.0059 109.606C38.9873 109.877 38.9779 110.11 38.9779 110.306C38.9779 110.465 39.0013 110.577 39.0479 110.642C39.0946 110.698 39.1786 110.726 39.2999 110.726C39.3933 110.726 39.5146 110.707 39.6639 110.67L39.8039 110.782L39.6359 111.762C39.3373 111.958 38.9966 112.075 38.6139 112.112C38.3339 112.084 38.1006 111.986 37.9139 111.818C37.7273 111.641 37.6013 111.398 37.5359 111.09H37.4379C36.9713 111.585 36.4906 111.93 35.9959 112.126C35.3239 112.117 34.7966 111.939 34.4139 111.594C34.0313 111.249 33.8399 110.777 33.8399 110.18C33.8399 109.713 33.9566 109.349 34.1899 109.088C34.4326 108.817 34.7966 108.635 35.2819 108.542L37.4239 108.136V107.562C37.4239 106.955 37.1253 106.652 36.5279 106.652C36.2386 106.652 35.9306 106.717 35.6039 106.848C35.2866 106.979 34.9273 107.184 34.5259 107.464L34.3859 107.38L34.1759 106.148C34.5773 105.896 35.0066 105.705 35.4639 105.574C35.9213 105.434 36.3786 105.364 36.8359 105.364ZM35.9259 109.396C35.7766 109.433 35.6646 109.499 35.5899 109.592C35.5246 109.676 35.4919 109.807 35.4919 109.984C35.4919 110.227 35.5573 110.418 35.6879 110.558C35.8186 110.689 36.0006 110.754 36.2339 110.754C36.5979 110.754 36.9806 110.539 37.3819 110.11L37.4099 109.074L35.9259 109.396ZM44.5301 105.476C44.6141 105.476 44.7308 105.485 44.8801 105.504V107.226L44.6841 107.296C44.5255 107.231 44.3528 107.198 44.1661 107.198C43.6248 107.198 43.1348 107.548 42.6961 108.248V109.13L42.7941 112H40.9321L41.0441 109.312L40.9601 105.616L42.7241 105.462L42.7101 106.736H42.8221C43.2795 105.896 43.8488 105.476 44.5301 105.476ZM49.1903 105.406C50.0116 105.406 50.6369 105.686 51.0663 106.246C51.5049 106.797 51.7243 107.567 51.7243 108.556C51.7243 109.704 51.4396 110.591 50.8703 111.216C50.3009 111.832 49.5123 112.14 48.5043 112.14C48.0283 112.14 47.5056 112.033 46.9363 111.818L45.9563 112.168L45.7323 111.986L45.8303 109.326L45.7463 102.312L47.5943 102.172L47.5383 106.414H47.6223C47.8836 106.162 48.1356 105.961 48.3783 105.812C48.6209 105.653 48.8916 105.518 49.1903 105.406ZM48.5043 110.922C48.9709 110.922 49.3349 110.754 49.5963 110.418C49.8576 110.082 49.9883 109.569 49.9883 108.878C49.9883 108.234 49.8809 107.744 49.6663 107.408C49.4609 107.072 49.1483 106.904 48.7283 106.904C48.3456 106.904 47.9443 107.1 47.5243 107.492L47.4963 109.088L47.5243 110.67C47.8696 110.838 48.1963 110.922 48.5043 110.922ZM55.7064 105.364C56.6584 105.364 57.3864 105.644 57.8904 106.204C58.3944 106.764 58.6464 107.571 58.6464 108.626C58.6464 109.765 58.3757 110.637 57.8344 111.244C57.2931 111.841 56.5137 112.14 55.4964 112.14C54.5444 112.14 53.8164 111.86 53.3124 111.3C52.8084 110.74 52.5564 109.933 52.5564 108.878C52.5564 107.739 52.8271 106.871 53.3684 106.274C53.9097 105.667 54.6891 105.364 55.7064 105.364ZM55.5804 106.624C55.1324 106.624 54.8057 106.773 54.6004 107.072C54.4044 107.371 54.3064 107.851 54.3064 108.514C54.3064 109.373 54.4091 109.984 54.6144 110.348C54.8197 110.712 55.1557 110.894 55.6224 110.894C56.0704 110.894 56.3924 110.749 56.5884 110.46C56.7937 110.161 56.8964 109.676 56.8964 109.004C56.8964 108.155 56.7891 107.548 56.5744 107.184C56.3691 106.811 56.0377 106.624 55.5804 106.624ZM60.0484 109.312L59.9784 105.616L61.8124 105.462L61.7284 109.13L61.8124 112H59.9504L60.0484 109.312ZM60.9304 102.298C61.2197 102.298 61.4437 102.382 61.6024 102.55C61.7704 102.718 61.8544 102.951 61.8544 103.25C61.8544 103.567 61.7657 103.819 61.5884 104.006C61.411 104.193 61.1684 104.286 60.8604 104.286C60.5524 104.286 60.3144 104.202 60.1464 104.034C59.9877 103.866 59.9084 103.628 59.9084 103.32C59.9084 103.012 59.997 102.765 60.1744 102.578C60.361 102.391 60.613 102.298 60.9304 102.298ZM69.0048 109.13L69.0468 110.306C69.0468 110.465 69.0654 110.577 69.1028 110.642C69.1494 110.698 69.2288 110.726 69.3408 110.726C69.4434 110.726 69.5694 110.707 69.7188 110.67L69.8448 110.782L69.6908 111.762C69.3734 111.958 69.0281 112.075 68.6548 112.112C68.3654 112.084 68.1228 111.986 67.9268 111.818C67.7308 111.65 67.5954 111.421 67.5208 111.132H67.4088C66.9514 111.552 66.4848 111.874 66.0088 112.098C65.0941 112.098 64.3848 111.809 63.8808 111.23C63.3768 110.642 63.1248 109.83 63.1248 108.794C63.1248 107.693 63.4141 106.848 63.9928 106.26C64.5714 105.672 65.3741 105.378 66.4008 105.378C66.6714 105.378 66.9701 105.406 67.2968 105.462L67.2688 102.312L69.1168 102.172L69.0048 109.13ZM66.2748 106.638C65.3414 106.638 64.8748 107.231 64.8748 108.416C64.8748 109.153 64.9868 109.709 65.2108 110.082C65.4348 110.455 65.7614 110.642 66.1908 110.642C66.6014 110.642 66.9794 110.451 67.3248 110.068L67.3528 109.298L67.3108 106.89C66.9468 106.722 66.6014 106.638 66.2748 106.638ZM74.5399 105.476C74.6239 105.476 74.7406 105.485 74.8899 105.504V107.226L74.6939 107.296C74.5352 107.231 74.3626 107.198 74.1759 107.198C73.6346 107.198 73.1446 107.548 72.7059 108.248V109.13L72.8039 112H70.9419L71.0539 109.312L70.9699 105.616L72.7339 105.462L72.7199 106.736H72.8319C73.2892 105.896 73.8586 105.476 74.5399 105.476ZM78.2344 105.364C78.953 105.364 79.513 105.527 79.9144 105.854C80.325 106.171 80.5304 106.619 80.5304 107.198C80.5304 107.366 80.5024 107.898 80.4464 108.794C80.437 109.055 80.423 109.326 80.4044 109.606C80.3857 109.877 80.3764 110.11 80.3764 110.306C80.3764 110.465 80.3997 110.577 80.4464 110.642C80.493 110.698 80.577 110.726 80.6984 110.726C80.7917 110.726 80.913 110.707 81.0624 110.67L81.2024 110.782L81.0344 111.762C80.7357 111.958 80.395 112.075 80.0124 112.112C79.7324 112.084 79.499 111.986 79.3124 111.818C79.1257 111.641 78.9997 111.398 78.9344 111.09H78.8364C78.3697 111.585 77.889 111.93 77.3944 112.126C76.7224 112.117 76.195 111.939 75.8124 111.594C75.4297 111.249 75.2384 110.777 75.2384 110.18C75.2384 109.713 75.355 109.349 75.5884 109.088C75.831 108.817 76.195 108.635 76.6804 108.542L78.8224 108.136V107.562C78.8224 106.955 78.5237 106.652 77.9264 106.652C77.637 106.652 77.329 106.717 77.0024 106.848C76.685 106.979 76.3257 107.184 75.9244 107.464L75.7844 107.38L75.5744 106.148C75.9757 105.896 76.405 105.705 76.8624 105.574C77.3197 105.434 77.777 105.364 78.2344 105.364ZM77.3244 109.396C77.175 109.433 77.063 109.499 76.9884 109.592C76.923 109.676 76.8904 109.807 76.8904 109.984C76.8904 110.227 76.9557 110.418 77.0864 110.558C77.217 110.689 77.399 110.754 77.6324 110.754C77.9964 110.754 78.379 110.539 78.7804 110.11L78.8084 109.074L77.3244 109.396ZM85.0446 110.628C85.3433 110.628 85.6559 110.549 85.9826 110.39L86.1366 110.53L85.9546 111.636C85.4786 111.879 84.9933 112.028 84.4986 112.084C83.2386 111.953 82.6086 111.337 82.6086 110.236L82.6786 109.074L82.6646 106.666H81.7966L81.7266 106.568L81.8246 105.546H82.6506V104.468L84.3446 103.922L84.4706 104.034L84.4286 105.546H86.0946L86.1506 105.644L86.0666 106.666H84.4006L84.3166 109.802C84.3166 110.101 84.3726 110.315 84.4846 110.446C84.5966 110.567 84.7833 110.628 85.0446 110.628ZM89.7494 105.364C90.7014 105.364 91.4294 105.644 91.9334 106.204C92.4374 106.764 92.6894 107.571 92.6894 108.626C92.6894 109.765 92.4187 110.637 91.8774 111.244C91.336 111.841 90.5567 112.14 89.5394 112.14C88.5874 112.14 87.8594 111.86 87.3554 111.3C86.8514 110.74 86.5994 109.933 86.5994 108.878C86.5994 107.739 86.87 106.871 87.4114 106.274C87.9527 105.667 88.732 105.364 89.7494 105.364ZM89.6234 106.624C89.1754 106.624 88.8487 106.773 88.6434 107.072C88.4474 107.371 88.3494 107.851 88.3494 108.514C88.3494 109.373 88.452 109.984 88.6574 110.348C88.8627 110.712 89.1987 110.894 89.6654 110.894C90.1134 110.894 90.4354 110.749 90.6314 110.46C90.8367 110.161 90.9394 109.676 90.9394 109.004C90.9394 108.155 90.832 107.548 90.6174 107.184C90.412 106.811 90.0807 106.624 89.6234 106.624ZM96.1493 105.378C96.784 105.378 97.3813 105.485 97.9413 105.7L97.6893 107.072L97.4653 107.142C97.1947 106.965 96.924 106.829 96.6533 106.736C96.3827 106.643 96.1447 106.596 95.9393 106.596C95.7153 106.596 95.538 106.657 95.4073 106.778C95.2767 106.89 95.2113 107.03 95.2113 107.198C95.2113 107.394 95.2953 107.553 95.4633 107.674C95.6407 107.795 95.916 107.931 96.2893 108.08C96.6627 108.229 96.9707 108.374 97.2133 108.514C97.456 108.654 97.6613 108.85 97.8293 109.102C98.0067 109.345 98.0953 109.648 98.0953 110.012C98.0953 110.385 97.9973 110.735 97.8013 111.062C97.6147 111.379 97.3253 111.641 96.9333 111.846C96.5413 112.042 96.0607 112.14 95.4913 112.14C94.8193 112.14 94.124 112 93.4053 111.72L93.6153 110.264L93.7973 110.152C94.0867 110.395 94.4087 110.591 94.7633 110.74C95.118 110.88 95.4307 110.95 95.7013 110.95C95.9533 110.95 96.1493 110.889 96.2893 110.768C96.4293 110.637 96.4993 110.483 96.4993 110.306C96.4993 110.11 96.4107 109.951 96.2333 109.83C96.0653 109.709 95.7947 109.573 95.4213 109.424C95.0387 109.256 94.726 109.107 94.4833 108.976C94.2407 108.836 94.0307 108.64 93.8533 108.388C93.6853 108.136 93.6013 107.823 93.6013 107.45C93.6013 106.843 93.83 106.349 94.2873 105.966C94.7447 105.574 95.3653 105.378 96.1493 105.378ZM104.02 105.364C104.738 105.364 105.298 105.527 105.7 105.854C106.11 106.171 106.316 106.619 106.316 107.198C106.316 107.366 106.288 107.898 106.232 108.794C106.222 109.055 106.208 109.326 106.19 109.606C106.171 109.877 106.162 110.11 106.162 110.306C106.162 110.465 106.185 110.577 106.232 110.642C106.278 110.698 106.362 110.726 106.484 110.726C106.577 110.726 106.698 110.707 106.848 110.67L106.988 110.782L106.82 111.762C106.521 111.958 106.18 112.075 105.798 112.112C105.518 112.084 105.284 111.986 105.098 111.818C104.911 111.641 104.785 111.398 104.72 111.09H104.622C104.155 111.585 103.674 111.93 103.18 112.126C102.508 112.117 101.98 111.939 101.598 111.594C101.215 111.249 101.024 110.777 101.024 110.18C101.024 109.713 101.14 109.349 101.374 109.088C101.616 108.817 101.98 108.635 102.466 108.542L104.608 108.136V107.562C104.608 106.955 104.309 106.652 103.712 106.652C103.422 106.652 103.114 106.717 102.788 106.848C102.47 106.979 102.111 107.184 101.71 107.464L101.57 107.38L101.36 106.148C101.761 105.896 102.19 105.705 102.648 105.574C103.105 105.434 103.562 105.364 104.02 105.364ZM103.11 109.396C102.96 109.433 102.848 109.499 102.774 109.592C102.708 109.676 102.676 109.807 102.676 109.984C102.676 110.227 102.741 110.418 102.872 110.558C103.002 110.689 103.184 110.754 103.418 110.754C103.782 110.754 104.164 110.539 104.566 110.11L104.594 109.074L103.11 109.396ZM114.414 110.782L114.246 111.762C113.9 111.986 113.546 112.103 113.182 112.112C112.911 112.065 112.687 111.958 112.51 111.79C112.332 111.622 112.197 111.379 112.104 111.062H111.978C111.446 111.585 110.895 111.925 110.326 112.084C109.616 112.084 109.075 111.925 108.702 111.608C108.338 111.281 108.16 110.815 108.17 110.208L108.198 108.556L108.128 105.616L109.934 105.462L109.892 109.592C109.882 109.919 109.948 110.166 110.088 110.334C110.228 110.502 110.438 110.586 110.718 110.586C111.128 110.586 111.534 110.404 111.936 110.04V105.616L113.714 105.462L113.588 110.306C113.588 110.455 113.611 110.563 113.658 110.628C113.714 110.693 113.798 110.726 113.91 110.726C114.012 110.726 114.138 110.707 114.288 110.67L114.414 110.782ZM117.122 106.218L118.018 107.674L118.9 106.162L119.25 105.504H120.888L119.012 108.696L120.972 111.944L119.012 112.084L118.69 111.258L117.766 109.76L116.8 111.342L116.492 112H114.854L116.744 108.738L114.84 105.546L116.828 105.448L117.122 106.218ZM122.091 109.312L122.021 105.616L123.855 105.462L123.771 109.13L123.855 112H121.993L122.091 109.312ZM122.973 102.298C123.263 102.298 123.487 102.382 123.645 102.55C123.813 102.718 123.897 102.951 123.897 103.25C123.897 103.567 123.809 103.819 123.631 104.006C123.454 104.193 123.211 104.286 122.903 104.286C122.595 104.286 122.357 104.202 122.189 104.034C122.031 103.866 121.951 103.628 121.951 103.32C121.951 103.012 122.04 102.765 122.217 102.578C122.404 102.391 122.656 102.298 122.973 102.298ZM127.436 109.13L127.534 112H125.672L125.77 109.298L125.686 102.312L127.548 102.172L127.436 109.13ZM129.419 109.312L129.349 105.616L131.183 105.462L131.099 109.13L131.183 112H129.321L129.419 109.312ZM130.301 102.298C130.591 102.298 130.815 102.382 130.973 102.55C131.141 102.718 131.225 102.951 131.225 103.25C131.225 103.567 131.137 103.819 130.959 104.006C130.782 104.193 130.539 104.286 130.231 104.286C129.923 104.286 129.685 104.202 129.517 104.034C129.359 103.866 129.279 103.628 129.279 103.32C129.279 103.012 129.368 102.765 129.545 102.578C129.732 102.391 129.984 102.298 130.301 102.298ZM135.506 105.364C136.225 105.364 136.785 105.527 137.186 105.854C137.597 106.171 137.802 106.619 137.802 107.198C137.802 107.366 137.774 107.898 137.718 108.794C137.709 109.055 137.695 109.326 137.676 109.606C137.657 109.877 137.648 110.11 137.648 110.306C137.648 110.465 137.671 110.577 137.718 110.642C137.765 110.698 137.849 110.726 137.97 110.726C138.063 110.726 138.185 110.707 138.334 110.67L138.474 110.782L138.306 111.762C138.007 111.958 137.667 112.075 137.284 112.112C137.004 112.084 136.771 111.986 136.584 111.818C136.397 111.641 136.271 111.398 136.206 111.09H136.108C135.641 111.585 135.161 111.93 134.666 112.126C133.994 112.117 133.467 111.939 133.084 111.594C132.701 111.249 132.51 110.777 132.51 110.18C132.51 109.713 132.627 109.349 132.86 109.088C133.103 108.817 133.467 108.635 133.952 108.542L136.094 108.136V107.562C136.094 106.955 135.795 106.652 135.198 106.652C134.909 106.652 134.601 106.717 134.274 106.848C133.957 106.979 133.597 107.184 133.196 107.464L133.056 107.38L132.846 106.148C133.247 105.896 133.677 105.705 134.134 105.574C134.591 105.434 135.049 105.364 135.506 105.364ZM134.596 109.396C134.447 109.433 134.335 109.499 134.26 109.592C134.195 109.676 134.162 109.807 134.162 109.984C134.162 110.227 134.227 110.418 134.358 110.558C134.489 110.689 134.671 110.754 134.904 110.754C135.268 110.754 135.651 110.539 136.052 110.11L136.08 109.074L134.596 109.396ZM49.9147 126.628C50.2134 126.628 50.526 126.549 50.8527 126.39L51.0067 126.53L50.8247 127.636C50.3487 127.879 49.8634 128.028 49.3687 128.084C48.1087 127.953 47.4787 127.337 47.4787 126.236L47.5487 125.074L47.5347 122.666H46.6667L46.5967 122.568L46.6947 121.546H47.5207V120.468L49.2147 119.922L49.3407 120.034L49.2987 121.546H50.9647L51.0207 121.644L50.9367 122.666H49.2707L49.1867 125.802C49.1867 126.101 49.2427 126.315 49.3547 126.446C49.4667 126.567 49.6534 126.628 49.9147 126.628ZM56.9575 124.976L53.1775 125.004C53.2615 126.171 53.8541 126.754 54.9555 126.754C55.5341 126.754 56.1781 126.591 56.8875 126.264L57.0415 126.362L56.7615 127.748C56.0521 128.009 55.3848 128.14 54.7595 128.14C53.7328 128.14 52.9255 127.841 52.3375 127.244C51.7588 126.647 51.4695 125.821 51.4695 124.766C51.4695 123.721 51.7541 122.895 52.3235 122.288C52.8928 121.672 53.6628 121.364 54.6335 121.364C55.4641 121.364 56.1035 121.593 56.5515 122.05C57.0088 122.498 57.2375 123.128 57.2375 123.94C57.2375 124.155 57.2141 124.425 57.1675 124.752L56.9575 124.976ZM55.6135 123.73C55.6135 123.357 55.5295 123.077 55.3615 122.89C55.1935 122.694 54.9461 122.596 54.6195 122.596C54.2555 122.596 53.9521 122.717 53.7095 122.96C53.4668 123.193 53.3035 123.534 53.2195 123.982L55.5855 123.926L55.6135 123.73ZM62.119 121.476C62.203 121.476 62.3197 121.485 62.469 121.504V123.226L62.273 123.296C62.1143 123.231 61.9417 123.198 61.755 123.198C61.2137 123.198 60.7237 123.548 60.285 124.248V125.13L60.383 128H58.521L58.633 125.312L58.549 121.616L60.313 121.462L60.299 122.736H60.411C60.8683 121.896 61.4377 121.476 62.119 121.476ZM66.7253 122.526L67.7053 126.25H67.8033L68.9793 122.624L69.2173 121.49H70.8413L68.6573 128H66.6553L64.8073 121.532L66.5433 121.448L66.7253 122.526ZM74.126 121.364C74.8446 121.364 75.4046 121.527 75.806 121.854C76.2166 122.171 76.422 122.619 76.422 123.198C76.422 123.366 76.394 123.898 76.338 124.794C76.3286 125.055 76.3146 125.326 76.296 125.606C76.2773 125.877 76.268 126.11 76.268 126.306C76.268 126.465 76.2913 126.577 76.338 126.642C76.3846 126.698 76.4686 126.726 76.59 126.726C76.6833 126.726 76.8046 126.707 76.954 126.67L77.094 126.782L76.926 127.762C76.6273 127.958 76.2866 128.075 75.904 128.112C75.624 128.084 75.3906 127.986 75.204 127.818C75.0173 127.641 74.8913 127.398 74.826 127.09H74.728C74.2613 127.585 73.7806 127.93 73.286 128.126C72.614 128.117 72.0866 127.939 71.704 127.594C71.3213 127.249 71.13 126.777 71.13 126.18C71.13 125.713 71.2466 125.349 71.48 125.088C71.7226 124.817 72.0866 124.635 72.572 124.542L74.714 124.136V123.562C74.714 122.955 74.4153 122.652 73.818 122.652C73.5286 122.652 73.2206 122.717 72.894 122.848C72.5766 122.979 72.2173 123.184 71.816 123.464L71.676 123.38L71.466 122.148C71.8673 121.896 72.2966 121.705 72.754 121.574C73.2113 121.434 73.6686 121.364 74.126 121.364ZM73.216 125.396C73.0666 125.433 72.9546 125.499 72.88 125.592C72.8146 125.676 72.782 125.807 72.782 125.984C72.782 126.227 72.8473 126.418 72.978 126.558C73.1086 126.689 73.2906 126.754 73.524 126.754C73.888 126.754 74.2706 126.539 74.672 126.11L74.7 125.074L73.216 125.396ZM81.8202 121.476C81.9042 121.476 82.0208 121.485 82.1702 121.504V123.226L81.9742 123.296C81.8155 123.231 81.6428 123.198 81.4562 123.198C80.9148 123.198 80.4248 123.548 79.9862 124.248V125.13L80.0842 128H78.2222L78.3342 125.312L78.2502 121.616L80.0142 121.462L80.0002 122.736H80.1122C80.5695 121.896 81.1388 121.476 81.8202 121.476ZM83.2154 125.312L83.1454 121.616L84.9794 121.462L84.8954 125.13L84.9794 128H83.1174L83.2154 125.312ZM84.0974 118.298C84.3867 118.298 84.6107 118.382 84.7694 118.55C84.9374 118.718 85.0214 118.951 85.0214 119.25C85.0214 119.567 84.9327 119.819 84.7554 120.006C84.578 120.193 84.3354 120.286 84.0274 120.286C83.7194 120.286 83.4814 120.202 83.3134 120.034C83.1547 119.866 83.0754 119.628 83.0754 119.32C83.0754 119.012 83.164 118.765 83.3414 118.578C83.528 118.391 83.78 118.298 84.0974 118.298ZM91.7797 124.976L87.9997 125.004C88.0837 126.171 88.6764 126.754 89.7777 126.754C90.3564 126.754 91.0004 126.591 91.7097 126.264L91.8637 126.362L91.5837 127.748C90.8744 128.009 90.2071 128.14 89.5817 128.14C88.5551 128.14 87.7477 127.841 87.1597 127.244C86.5811 126.647 86.2917 125.821 86.2917 124.766C86.2917 123.721 86.5764 122.895 87.1457 122.288C87.7151 121.672 88.4851 121.364 89.4557 121.364C90.2864 121.364 90.9257 121.593 91.3737 122.05C91.8311 122.498 92.0597 123.128 92.0597 123.94C92.0597 124.155 92.0364 124.425 91.9897 124.752L91.7797 124.976ZM90.4357 123.73C90.4357 123.357 90.3517 123.077 90.1837 122.89C90.0157 122.694 89.7684 122.596 89.4417 122.596C89.0777 122.596 88.7744 122.717 88.5317 122.96C88.2891 123.193 88.1257 123.534 88.0417 123.982L90.4077 123.926L90.4357 123.73ZM98.7753 125.13L98.8173 126.306C98.8173 126.465 98.8359 126.577 98.8733 126.642C98.9199 126.698 98.9993 126.726 99.1113 126.726C99.2139 126.726 99.3399 126.707 99.4893 126.67L99.6153 126.782L99.4613 127.762C99.1439 127.958 98.7986 128.075 98.4253 128.112C98.1359 128.084 97.8933 127.986 97.6973 127.818C97.5013 127.65 97.3659 127.421 97.2913 127.132H97.1793C96.7219 127.552 96.2553 127.874 95.7793 128.098C94.8646 128.098 94.1553 127.809 93.6513 127.23C93.1473 126.642 92.8953 125.83 92.8953 124.794C92.8953 123.693 93.1846 122.848 93.7633 122.26C94.3419 121.672 95.1446 121.378 96.1713 121.378C96.4419 121.378 96.7406 121.406 97.0673 121.462L97.0393 118.312L98.8873 118.172L98.7753 125.13ZM96.0453 122.638C95.1119 122.638 94.6453 123.231 94.6453 124.416C94.6453 125.153 94.7573 125.709 94.9813 126.082C95.2053 126.455 95.5319 126.642 95.9613 126.642C96.3719 126.642 96.7499 126.451 97.0953 126.068L97.1233 125.298L97.0813 122.89C96.7173 122.722 96.3719 122.638 96.0453 122.638ZM103.274 121.364C103.993 121.364 104.553 121.527 104.954 121.854C105.365 122.171 105.57 122.619 105.57 123.198C105.57 123.366 105.542 123.898 105.486 124.794C105.477 125.055 105.463 125.326 105.444 125.606C105.426 125.877 105.416 126.11 105.416 126.306C105.416 126.465 105.44 126.577 105.486 126.642C105.533 126.698 105.617 126.726 105.738 126.726C105.832 126.726 105.953 126.707 106.102 126.67L106.242 126.782L106.074 127.762C105.776 127.958 105.435 128.075 105.052 128.112C104.772 128.084 104.539 127.986 104.352 127.818C104.166 127.641 104.04 127.398 103.974 127.09H103.876C103.41 127.585 102.929 127.93 102.434 128.126C101.762 128.117 101.235 127.939 100.852 127.594C100.47 127.249 100.278 126.777 100.278 126.18C100.278 125.713 100.395 125.349 100.628 125.088C100.871 124.817 101.235 124.635 101.72 124.542L103.862 124.136V123.562C103.862 122.955 103.564 122.652 102.966 122.652C102.677 122.652 102.369 122.717 102.042 122.848C101.725 122.979 101.366 123.184 100.964 123.464L100.824 123.38L100.614 122.148C101.016 121.896 101.445 121.705 101.902 121.574C102.36 121.434 102.817 121.364 103.274 121.364ZM102.364 125.396C102.215 125.433 102.103 125.499 102.028 125.592C101.963 125.676 101.93 125.807 101.93 125.984C101.93 126.227 101.996 126.418 102.126 126.558C102.257 126.689 102.439 126.754 102.672 126.754C103.036 126.754 103.419 126.539 103.82 126.11L103.848 125.074L102.364 125.396ZM112.885 125.13L112.927 126.306C112.927 126.465 112.945 126.577 112.983 126.642C113.029 126.698 113.109 126.726 113.221 126.726C113.323 126.726 113.449 126.707 113.599 126.67L113.725 126.782L113.571 127.762C113.253 127.958 112.908 128.075 112.535 128.112C112.245 128.084 112.003 127.986 111.807 127.818C111.611 127.65 111.475 127.421 111.401 127.132H111.289C110.831 127.552 110.365 127.874 109.889 128.098C108.974 128.098 108.265 127.809 107.761 127.23C107.257 126.642 107.005 125.83 107.005 124.794C107.005 123.693 107.294 122.848 107.873 122.26C108.451 121.672 109.254 121.378 110.281 121.378C110.551 121.378 110.85 121.406 111.177 121.462L111.149 118.312L112.997 118.172L112.885 125.13ZM110.155 122.638C109.221 122.638 108.755 123.231 108.755 124.416C108.755 125.153 108.867 125.709 109.091 126.082C109.315 126.455 109.641 126.642 110.071 126.642C110.481 126.642 110.859 126.451 111.205 126.068L111.233 125.298L111.191 122.89C110.827 122.722 110.481 122.638 110.155 122.638ZM119.862 124.976L116.082 125.004C116.166 126.171 116.758 126.754 117.86 126.754C118.438 126.754 119.082 126.591 119.792 126.264L119.946 126.362L119.666 127.748C118.956 128.009 118.289 128.14 117.664 128.14C116.637 128.14 115.83 127.841 115.242 127.244C114.663 126.647 114.374 125.821 114.374 124.766C114.374 123.721 114.658 122.895 115.228 122.288C115.797 121.672 116.567 121.364 117.538 121.364C118.368 121.364 119.008 121.593 119.456 122.05C119.913 122.498 120.142 123.128 120.142 123.94C120.142 124.155 120.118 124.425 120.072 124.752L119.862 124.976ZM118.518 123.73C118.518 123.357 118.434 123.077 118.266 122.89C118.098 122.694 117.85 122.596 117.524 122.596C117.16 122.596 116.856 122.717 116.614 122.96C116.371 123.193 116.208 123.534 116.124 123.982L118.49 123.926L118.518 123.73ZM58.0137 137.364C58.7323 137.364 59.2923 137.527 59.6937 137.854C60.1043 138.171 60.3097 138.619 60.3097 139.198C60.3097 139.366 60.2817 139.898 60.2257 140.794C60.2163 141.055 60.2023 141.326 60.1837 141.606C60.165 141.877 60.1557 142.11 60.1557 142.306C60.1557 142.465 60.179 142.577 60.2257 142.642C60.2723 142.698 60.3563 142.726 60.4777 142.726C60.571 142.726 60.6923 142.707 60.8417 142.67L60.9817 142.782L60.8137 143.762C60.515 143.958 60.1743 144.075 59.7917 144.112C59.5117 144.084 59.2783 143.986 59.0917 143.818C58.905 143.641 58.779 143.398 58.7137 143.09H58.6157C58.149 143.585 57.6683 143.93 57.1737 144.126C56.5017 144.117 55.9743 143.939 55.5917 143.594C55.209 143.249 55.0177 142.777 55.0177 142.18C55.0177 141.713 55.1343 141.349 55.3677 141.088C55.6103 140.817 55.9743 140.635 56.4597 140.542L58.6017 140.136V139.562C58.6017 138.955 58.303 138.652 57.7057 138.652C57.4163 138.652 57.1083 138.717 56.7817 138.848C56.4643 138.979 56.105 139.184 55.7037 139.464L55.5637 139.38L55.3537 138.148C55.755 137.896 56.1843 137.705 56.6417 137.574C57.099 137.434 57.5563 137.364 58.0137 137.364ZM57.1037 141.396C56.9543 141.433 56.8423 141.499 56.7677 141.592C56.7023 141.676 56.6697 141.807 56.6697 141.984C56.6697 142.227 56.735 142.418 56.8657 142.558C56.9963 142.689 57.1783 142.754 57.4117 142.754C57.7757 142.754 58.1583 142.539 58.5597 142.11L58.5877 141.074L57.1037 141.396ZM64.0119 141.13L64.1099 144H62.2479L62.3459 141.298L62.2619 134.312L64.1239 134.172L64.0119 141.13ZM65.9956 141.312L65.9256 137.616L67.7596 137.462L67.6756 141.13L67.7596 144H65.8976L65.9956 141.312ZM66.8776 134.298C67.167 134.298 67.391 134.382 67.5496 134.55C67.7176 134.718 67.8016 134.951 67.8016 135.25C67.8016 135.567 67.713 135.819 67.5356 136.006C67.3583 136.193 67.1156 136.286 66.8076 136.286C66.4996 136.286 66.2616 136.202 66.0936 136.034C65.935 135.866 65.8556 135.628 65.8556 135.32C65.8556 135.012 65.9443 134.765 66.1216 134.578C66.3083 134.391 66.5603 134.298 66.8776 134.298ZM77.318 144L77.43 139.94C77.43 139.249 77.136 138.904 76.548 138.904C76.128 138.904 75.6893 139.091 75.232 139.464L75.19 141.144L75.274 144H73.412L73.524 139.94C73.5333 139.604 73.4587 139.347 73.3 139.17C73.1507 138.993 72.9313 138.904 72.642 138.904C72.2313 138.904 71.7787 139.1 71.284 139.492V141.13L71.368 144H69.52L69.618 141.312L69.548 137.616L71.298 137.462V138.414H71.396C71.9093 137.947 72.474 137.611 73.09 137.406C74.1353 137.406 74.8027 137.756 75.092 138.456H75.176C75.708 137.961 76.3147 137.611 76.996 137.406C77.7053 137.406 78.242 137.569 78.606 137.896C78.9793 138.213 79.1567 138.675 79.138 139.282L79.096 141.144L79.18 144H77.318ZM85.853 140.976L82.073 141.004C82.157 142.171 82.7497 142.754 83.851 142.754C84.4297 142.754 85.0737 142.591 85.783 142.264L85.937 142.362L85.657 143.748C84.9477 144.009 84.2803 144.14 83.655 144.14C82.6283 144.14 81.821 143.841 81.233 143.244C80.6543 142.647 80.365 141.821 80.365 140.766C80.365 139.721 80.6497 138.895 81.219 138.288C81.7883 137.672 82.5583 137.364 83.529 137.364C84.3597 137.364 84.999 137.593 85.447 138.05C85.9043 138.498 86.133 139.128 86.133 139.94C86.133 140.155 86.1097 140.425 86.063 140.752L85.853 140.976ZM84.509 139.73C84.509 139.357 84.425 139.077 84.257 138.89C84.089 138.694 83.8417 138.596 83.515 138.596C83.151 138.596 82.8477 138.717 82.605 138.96C82.3623 139.193 82.199 139.534 82.115 139.982L84.481 139.926L84.509 139.73ZM91.4205 139.94C91.4298 139.613 91.3552 139.361 91.1965 139.184C91.0472 138.997 90.8278 138.904 90.5385 138.904C90.1185 138.904 89.6705 139.105 89.1945 139.506V141.13L89.2785 144H87.4165L87.5145 141.312L87.4445 137.616L89.2085 137.462V138.414H89.3065C89.8198 137.947 90.3798 137.611 90.9865 137.406C91.6958 137.406 92.2372 137.569 92.6105 137.896C92.9838 138.213 93.1612 138.675 93.1425 139.282L93.1005 141.144L93.1845 144H91.3085L91.4205 139.94ZM97.4587 142.628C97.7573 142.628 98.07 142.549 98.3967 142.39L98.5507 142.53L98.3687 143.636C97.8927 143.879 97.4073 144.028 96.9127 144.084C95.6527 143.953 95.0227 143.337 95.0227 142.236L95.0927 141.074L95.0787 138.666H94.2107L94.1407 138.568L94.2387 137.546H95.0647V136.468L96.7587 135.922L96.8847 136.034L96.8427 137.546H98.5087L98.5647 137.644L98.4807 138.666H96.8147L96.7307 141.802C96.7307 142.101 96.7867 142.315 96.8987 142.446C97.0107 142.567 97.1973 142.628 97.4587 142.628ZM102.119 137.364C102.838 137.364 103.398 137.527 103.799 137.854C104.21 138.171 104.415 138.619 104.415 139.198C104.415 139.366 104.387 139.898 104.331 140.794C104.322 141.055 104.308 141.326 104.289 141.606C104.27 141.877 104.261 142.11 104.261 142.306C104.261 142.465 104.284 142.577 104.331 142.642C104.378 142.698 104.462 142.726 104.583 142.726C104.676 142.726 104.798 142.707 104.947 142.67L105.087 142.782L104.919 143.762C104.62 143.958 104.28 144.075 103.897 144.112C103.617 144.084 103.384 143.986 103.197 143.818C103.01 143.641 102.884 143.398 102.819 143.09H102.721C102.254 143.585 101.774 143.93 101.279 144.126C100.607 144.117 100.08 143.939 99.6971 143.594C99.3145 143.249 99.1231 142.777 99.1231 142.18C99.1231 141.713 99.2398 141.349 99.4731 141.088C99.7158 140.817 100.08 140.635 100.565 140.542L102.707 140.136V139.562C102.707 138.955 102.408 138.652 101.811 138.652C101.522 138.652 101.214 138.717 100.887 138.848C100.57 138.979 100.21 139.184 99.8091 139.464L99.6691 139.38L99.4591 138.148C99.8605 137.896 100.29 137.705 100.747 137.574C101.204 137.434 101.662 137.364 102.119 137.364ZM101.209 141.396C101.06 141.433 100.948 141.499 100.873 141.592C100.808 141.676 100.775 141.807 100.775 141.984C100.775 142.227 100.84 142.418 100.971 142.558C101.102 142.689 101.284 142.754 101.517 142.754C101.881 142.754 102.264 142.539 102.665 142.11L102.693 141.074L101.209 141.396ZM109.813 137.476C109.897 137.476 110.014 137.485 110.163 137.504V139.226L109.967 139.296C109.809 139.231 109.636 139.198 109.449 139.198C108.908 139.198 108.418 139.548 107.979 140.248V141.13L108.077 144H106.215L106.327 141.312L106.243 137.616L108.007 137.462L107.993 138.736H108.105C108.563 137.896 109.132 137.476 109.813 137.476ZM110.841 142.11C111.13 142.11 111.354 142.194 111.513 142.362C111.681 142.53 111.765 142.763 111.765 143.062C111.765 143.379 111.676 143.631 111.499 143.818C111.322 144.005 111.079 144.098 110.771 144.098C110.463 144.098 110.225 144.014 110.057 143.846C109.898 143.678 109.819 143.44 109.819 143.132C109.819 142.824 109.908 142.577 110.085 142.39C110.272 142.203 110.524 142.11 110.841 142.11Z" fill="white"/>
<defs>
<filter id="filter0_b_152:11453" x="3" y="67" width="161" height="97" filterUnits="userSpaceOnUse" color-interpolation-filters="sRGB">
<feFlood flood-opacity="0" result="BackgroundImageFix"/>
<feGaussianBlur in="BackgroundImage" stdDeviation="5"/>
<feComposite in2="SourceAlpha" operator="in" result="effect1_backgroundBlur_152:11453"/>
<feBlend mode="normal" in="SourceGraphic" in2="effect1_backgroundBlur_152:11453" result="shape"/>
</filter>
</defs>
</svg>
