<svg width="167" height="167" viewBox="0 0 167 167" fill="none" xmlns="http://www.w3.org/2000/svg">
<mask id="mask0_206:36606" style="mask-type:alpha" maskUnits="userSpaceOnUse" x="0" y="0" width="167" height="167">
<rect x="1" y="1" width="165" height="165" rx="8" fill="#5988D6" stroke="#EDE6FC" stroke-opacity="0.3"/>
</mask>
<g mask="url(#mask0_206:36606)">
<rect x="1" y="1" width="165" height="165" rx="8" fill="#D9917A" stroke="#EDE6FC" stroke-opacity="0.3"/>
<path d="M77.7389 18.8028C77.7389 18.8028 76.1598 12.4892 80.0576 9.30062C83.9555 6.11202 88.2837 7.24257 90.4448 9.30062C92.6059 11.3587 95.2732 15.5263 92.7908 21.4458C90.3084 27.3653 89.7598 25.962 90.8722 30.3236C91.9845 34.6851 93.3182 37.6979 91.1207 39.6832C88.9233 41.6685 85.5195 41.1351 85.1982 38.6557C84.8769 36.1764 84.592 27.3471 84.3646 26.0529C84.1373 24.7587 77.7389 18.8028 77.7389 18.8028Z" fill="#1C4154"/>
<path d="M86.3227 29.3657C86.3227 29.3657 90.8389 31.1176 92.4878 31.3328C94.1366 31.548 93.5304 36.434 93.5304 36.434C93.5304 36.434 94.7094 39.8136 94.6276 42.0201C94.5155 44.9905 93.1121 45.7876 93.0182 45.9998C92.9242 46.212 91.6906 53.2287 91.5845 54.4502C91.4784 55.6717 91.927 57.2387 92.1907 58.248C92.4938 59.3846 93.5122 63.5583 93.5122 63.5583C93.5122 63.5583 85.2012 66.071 72.659 63.7856C72.659 63.7856 73.4774 60.5455 73.7714 58.9361C73.932 58.0692 74.4048 56.4082 74.1927 54.8139C73.9805 53.2196 72.2256 46.5211 72.1741 45.8846C72.1225 45.2481 68.6672 41.7382 71.7497 37.5403C71.7497 37.5403 72.5469 33.1817 72.759 32.0148C72.759 32.0148 78.1269 29.5688 79.5606 29.3566C80.9942 29.1445 86.3227 29.3657 86.3227 29.3657Z" fill="#EEA886"/>
<path d="M92.4877 31.3389C92.4877 31.3389 94.667 31.4026 96.3007 32.5998C97.9344 33.7971 99.0498 38.6618 99.3317 39.4559C99.6136 40.25 102.642 45.2754 103.16 46.8697C103.678 48.464 103.957 49.4612 104.196 49.3794C104.436 49.2975 107.618 44.3116 108.103 43.1022C108.649 41.7322 110.813 35.749 110.813 35.749L113.117 40.0348L113.271 40.3925C113.271 40.3925 111.053 46.3908 110.374 48.5428C109.695 50.6948 108.103 55.7566 107.343 56.4234C106.582 57.0902 103.675 58.0571 102.12 56.8204C100.565 55.5838 96.9402 49.8067 96.0218 47.8548C95.1035 45.9028 93.3122 42.7506 93.3122 42.7506C93.3122 42.7506 90.4297 33.3848 92.4877 31.3389Z" fill="#EEA886"/>
<path d="M72.7712 32.03C72.7712 32.03 70.4706 32.0027 69.3977 32.9575C68.3247 33.9122 66.2879 36.2279 65.809 38.2587C65.3301 40.2894 65.0512 43.96 64.4147 45.9513C63.7782 47.9427 61.9899 53.0863 61.0806 54.9594C60.1713 56.8326 59.3257 64.6586 58.768 66.5196C58.2103 68.3806 56.1644 74.6366 56.1644 74.6366L59.4075 76.2854C59.4075 76.2854 65.9848 61.8549 66.6213 59.6635C67.2578 57.4721 67.379 54.8139 67.9761 53.1681C68.5732 51.5223 71.2041 45.527 71.6133 44.3782C72.0225 43.2295 76.4629 32.5331 72.7712 32.03Z" fill="#EEA886"/>
<path d="M72.3286 64.7344C72.3286 64.7344 71.2011 67.0652 70.4585 68.6747C69.7159 70.2841 66.9213 77.025 65.8029 81.7079C64.6845 86.3908 62.2263 94.5896 61.9081 96.9356C61.5898 99.2816 60.4774 102.816 59.3923 104.695C58.3073 106.574 55.8158 112.109 55.3702 115.703C54.9247 119.298 52.1271 135.135 52.1271 135.135C52.1271 135.135 53.7214 136.651 56.6736 134.832C56.6736 134.832 62.2021 120.004 63.4933 117.859C64.7845 115.713 66.791 110.048 67.0729 107.962C67.3547 105.877 69.4401 103.625 71.3466 98.8481C73.2531 94.0713 80.9972 80.3985 82.0823 77.5888C82.0823 77.5888 82.4551 76.4491 83.5311 76.8098L83.1189 64.7344H72.3286Z" fill="#285173"/>
<path d="M93.8335 64.5586C93.8335 64.5586 95.0459 67.0652 95.7885 68.6625C96.5311 70.2599 99.65 77.2675 100.768 81.9383C101.887 86.609 104.018 94.5684 104.336 96.9144C104.654 99.2603 105.77 102.794 106.852 104.674C107.934 106.553 110.431 112.088 110.877 115.682C111.322 119.277 114.12 135.114 114.12 135.114C114.12 135.114 112.526 136.629 109.558 134.811C109.558 134.811 104.027 119.983 102.739 117.837C101.45 115.691 99.4409 110.026 99.156 107.941C98.871 105.856 96.7918 103.604 94.8822 98.8269C92.9727 94.0501 85.2346 80.3773 84.1495 77.5676C84.1175 77.405 84.0484 77.252 83.9475 77.1205C83.8467 76.989 83.7169 76.8826 83.5681 76.8096C83.4194 76.7365 83.2558 76.6988 83.09 76.6994C82.9243 76.6999 82.761 76.7388 82.6128 76.8129L72.262 64.8738L93.8335 64.5586Z" fill="#285173"/>
<path d="M79.1726 11.7284C79.1726 11.7284 76.6205 15.7688 78.2148 21.4064C79.8091 27.044 82.0945 27.4017 83.9737 26.8319C86.2591 26.1378 88.4474 21.3761 88.8233 19.2544C89.1991 17.1327 90.6146 12.0164 85.1255 11.3738C82.6189 11.0556 80.0577 11.1435 79.1726 11.7284Z" fill="#EEA886"/>
<path d="M85.8711 25.1981C85.8711 25.1981 85.8286 31.3298 86.6682 33.0393C87.5078 34.7488 79.0908 33.691 79.0908 33.691C79.0908 33.691 80.1243 26.7621 79.7515 25.1011C79.3787 23.4402 85.8711 25.1981 85.8711 25.1981Z" fill="#EEA886"/>
<path d="M77.6904 17.7025C77.6904 17.7025 79.7758 12.8105 81.8308 12.9863C81.8308 12.9863 85.8438 18.2178 89.3688 20.2455C89.3688 20.2455 93.7092 13.1288 83.4978 10.0432C83.4978 10.0432 77.3085 7.59721 77.6904 17.7025Z" fill="#1C4154"/>
<path d="M80.1667 25.6588C80.1667 25.6588 81.5065 27.2744 82.9765 27.0198C83.812 26.8935 84.6016 26.5566 85.2709 26.0408C85.2709 26.0408 84.595 27.6472 82.8158 27.6472C81.2852 27.6472 80.1667 25.6588 80.1667 25.6588Z" fill="#A77860"/>
<path d="M90.266 30.7691C90.266 30.7691 92.8878 35.0337 93.5304 36.4401C93.5304 36.4401 96.9797 42.9628 93.0182 46.0059C92.7551 48.1041 92.3827 50.1872 91.9028 52.2467C91.9028 52.2467 83.1765 50.4584 73.735 52.5316C73.735 52.5316 72.1862 46.6848 72.1862 45.8998C72.1862 45.8998 68.4672 41.3533 71.7619 37.5555C71.7619 37.5555 74.6898 31.6269 74.9323 31.0783C74.9323 31.0783 81.6035 26.8228 90.266 30.7691Z" fill="#EB4747"/>
<path d="M123.537 34.0123C123.537 37.5373 121.061 40.3925 118.009 40.3925C114.956 40.3925 112.483 37.5373 112.483 34.0123C112.483 30.4872 114.956 27.6472 118.009 27.6472C121.061 27.6472 123.537 30.4903 123.537 34.0123Z" fill="#D1C0BA"/>
<path d="M120.558 34.4214C120.558 36.1885 119.315 37.6222 117.781 37.6222C116.248 37.6222 115.008 36.1885 115.008 34.4214C115.008 32.6544 116.251 31.2177 117.781 31.2177C119.312 31.2177 120.558 32.6513 120.558 34.4214Z" fill="#948884"/>
<path d="M113.268 40.3925C113.268 40.3925 115.102 38.1677 116.19 37.4767C117.278 36.7856 118.397 35.7763 118.263 34.7124C118.13 33.6485 117.014 31.151 116.323 31.0752C115.632 30.9995 113.056 31.8451 113.056 31.8451L110.807 35.749L113.268 40.3925Z" fill="#EEA886"/>
<path d="M115.817 33.4091C115.817 36.9311 113.344 39.7742 110.292 39.7742C107.24 39.7742 104.763 36.919 104.763 33.4091C104.763 29.8992 107.24 27.044 110.292 27.044C113.344 27.044 115.817 29.8871 115.817 33.4091Z" fill="#EDDAD3"/>
<path d="M112.929 33.4091C112.929 35.3065 111.598 36.8432 109.952 36.8432C108.306 36.8432 106.976 35.3065 106.976 33.4091C106.976 31.5117 108.309 29.975 109.952 29.975C111.595 29.975 112.929 31.5147 112.929 33.4091Z" fill="#CCBBB5"/>
<path d="M78.1754 29.7325C78.1754 29.7325 73.6289 39.7742 82.3097 40.053C90.9904 40.3319 87.6352 30.657 87.3957 29.7234C87.3957 29.7234 83.7979 27.4805 78.1754 29.7325Z" fill="#EEA886"/>
<path d="M57.1585 133.526C56.8311 133.792 56.4121 133.92 55.9916 133.88C55.3127 133.801 53.3213 132.971 52.4423 133.323C51.5633 133.674 51.0875 137.587 49.3749 138.545C47.6624 139.503 42.5189 142.485 42.7977 145.04C43.0766 147.596 50.0115 146.917 51.8058 144.804C53.6001 142.691 55.1399 143.728 56.5887 142.252C58.0375 140.776 56.9524 134.993 57.1585 133.526Z" fill="#CCBBB5"/>
<path d="M109.058 133.495C109.396 133.778 109.831 133.917 110.271 133.88C110.946 133.801 112.941 132.971 113.817 133.323C114.693 133.674 115.172 137.587 116.884 138.545C118.597 139.503 123.74 142.485 123.461 145.04C123.183 147.596 116.248 146.917 114.453 144.804C112.659 142.691 111.119 143.728 109.67 142.252C108.222 140.776 109.292 134.962 109.058 133.495Z" fill="#CCBBB5"/>
<path d="M72.6712 63.7917C72.6712 63.7917 82.1793 63.9978 93.5243 63.5644L94.0214 64.9556C94.0214 64.9556 85.6347 66.5499 72.1377 65.1314L72.6712 63.7917Z" fill="#3B78AB"/>
<path d="M56.9615 73.3484C56.5812 73.7397 56.2733 74.1953 56.0522 74.6942C55.8764 75.2034 55.249 75.8884 54.955 76.2794C54.661 76.6704 53.5729 78.4829 53.4395 78.983C53.3789 79.1861 53.5153 80.5804 53.3486 80.9805C53.1819 81.3805 52.7424 82.1595 53.097 82.2898C53.4516 82.4202 54.0427 81.8291 54.0427 81.8291C54.0076 81.9312 54.0033 82.0413 54.0303 82.1459C54.0572 82.2504 54.1142 82.3447 54.1942 82.4171C54.7337 82.8233 55.1217 82.6384 55.1217 82.6384C55.1217 82.6384 55.2429 83.1052 55.5127 83.2204C55.6596 83.2972 55.8209 83.3426 55.9864 83.3536C56.1518 83.3646 56.3178 83.3409 56.4735 83.284C56.6409 83.4795 56.8715 83.6103 57.1252 83.6538C57.2923 83.6795 57.4632 83.6628 57.6221 83.605C57.781 83.5473 57.9229 83.4504 58.0345 83.3234C58.0345 83.3234 58.6983 83.6083 58.9832 83.3234C59.2681 83.0385 59.3196 82.6808 59.4772 82.4141C59.6348 82.1474 60.3562 79.4346 59.9288 77.322C59.5015 75.2095 60.7048 73.4394 60.7048 73.4394L56.9615 73.3484Z" fill="#EEA886"/>
<path d="M51.8342 78.5963L51.3858 80.4555L61.5159 82.8987L61.9643 81.0395L51.8342 78.5963Z" fill="#D1C0BA"/>
<path d="M53.9942 81.5594C53.9942 81.5594 54.5276 79.1346 55.2854 78.7587C56.0431 78.3829 55.8916 79.2588 55.8916 79.2588C55.8916 79.2588 56.0189 78.3829 56.7372 78.4071C57.4556 78.4314 57.2313 79.4559 57.2313 79.4559C57.2704 79.3678 57.3269 79.2885 57.3973 79.2227C57.4677 79.157 57.5506 79.106 57.641 79.0729C57.7315 79.0398 57.8278 79.0253 57.924 79.0302C58.0203 79.035 58.1145 79.0592 58.2012 79.1012C58.8892 79.3831 58.5043 80.1924 58.5043 80.1924C58.5043 80.1924 59.4136 79.5044 59.653 80.3894C60.0774 81.8867 58.9559 83.3204 58.9559 83.3204C58.9559 83.3204 58.6528 83.6417 58.0072 83.3204C58.0072 83.3204 57.3131 84.1569 56.4493 83.281C56.4493 83.281 55.2369 83.6477 55.0975 82.6354C55.1065 82.6384 53.8033 82.9567 53.9942 81.5594Z" fill="#DB9C7C"/>
<path d="M50.7419 85.8634L49.5962 85.6027C49.3642 85.5478 49.163 85.4039 49.036 85.2021C48.909 85.0003 48.8664 84.7566 48.9173 84.5237L51.3421 73.8395C51.397 73.6074 51.5408 73.4062 51.7427 73.2792C51.9445 73.1522 52.1881 73.1096 52.4211 73.1605L53.5638 73.4212C53.7958 73.4761 53.997 73.6199 54.124 73.8218C54.251 74.0236 54.2936 74.2672 54.2427 74.5002L51.8179 85.1844C51.763 85.4158 51.6196 85.6165 51.4184 85.7434C51.2173 85.8704 50.9744 85.9134 50.7419 85.8634Z" fill="#EDDAD3"/>
<path d="M63.7152 75.8523L62.5686 75.5909C62.0839 75.4804 61.6014 75.7838 61.4909 76.2686L59.0552 86.9545C58.9447 87.4393 59.2481 87.9218 59.7329 88.0323L60.8795 88.2936C61.3642 88.4041 61.8467 88.1007 61.9572 87.616L64.3929 76.93C64.5033 76.4453 64.2 75.9628 63.7152 75.8523Z" fill="#EDDAD3"/>
</g>
<g filter="url(#filter0_b_206:36606)">
<rect x="13" y="77" width="141" height="77" rx="10" fill="black" fill-opacity="0.8"/>
</g>
<path d="M28.014 110.432L28.126 110.586L28 112H22.344L22.442 109.312L22.344 102.984H28.056L28.168 103.138L28.028 104.552L25.872 104.482L24.248 104.496L24.206 106.666L25.76 106.694L27.23 106.652L27.342 106.792L27.216 108.206L25.62 108.164L24.178 108.178L24.164 109.144L24.206 110.502L25.788 110.516L28.014 110.432ZM30.839 106.218L31.735 107.674L32.617 106.162L32.967 105.504H34.605L32.729 108.696L34.689 111.944L32.729 112.084L32.407 111.258L31.483 109.76L30.517 111.342L30.209 112H28.571L30.461 108.738L28.557 105.546L30.545 105.448L30.839 106.218ZM40.5034 108.976L36.7234 109.004C36.8074 110.171 37.4 110.754 38.5014 110.754C39.08 110.754 39.724 110.591 40.4334 110.264L40.5874 110.362L40.3074 111.748C39.598 112.009 38.9307 112.14 38.3054 112.14C37.2787 112.14 36.4714 111.841 35.8834 111.244C35.3047 110.647 35.0154 109.821 35.0154 108.766C35.0154 107.721 35.3 106.895 35.8694 106.288C36.4387 105.672 37.2087 105.364 38.1794 105.364C39.01 105.364 39.6494 105.593 40.0974 106.05C40.5547 106.498 40.7834 107.128 40.7834 107.94C40.7834 108.155 40.76 108.425 40.7134 108.752L40.5034 108.976ZM39.1594 107.73C39.1594 107.357 39.0754 107.077 38.9074 106.89C38.7394 106.694 38.492 106.596 38.1654 106.596C37.8014 106.596 37.498 106.717 37.2554 106.96C37.0127 107.193 36.8494 107.534 36.7654 107.982L39.1314 107.926L39.1594 107.73ZM45.6649 105.476C45.7489 105.476 45.8656 105.485 46.0149 105.504V107.226L45.8189 107.296C45.6602 107.231 45.4876 107.198 45.3009 107.198C44.7596 107.198 44.2696 107.548 43.8309 108.248V109.13L43.9289 112H42.0669L42.1789 109.312L42.0949 105.616L43.8589 105.462L43.8449 106.736H43.9569C44.4142 105.896 44.9836 105.476 45.6649 105.476ZM49.6081 105.364C49.9161 105.364 50.2194 105.397 50.5181 105.462C50.8261 105.518 51.0967 105.602 51.3301 105.714L51.0221 107.198L50.8681 107.268C50.3921 107.007 49.9674 106.876 49.5941 106.876C49.1647 106.876 48.8334 107.03 48.6001 107.338C48.3667 107.646 48.2501 108.085 48.2501 108.654C48.2501 109.307 48.3761 109.807 48.6281 110.152C48.8801 110.497 49.2394 110.67 49.7061 110.67C50.1261 110.67 50.5927 110.553 51.1061 110.32L51.2461 110.432L51.0641 111.874C50.5041 112.051 49.9301 112.14 49.3421 112.14C48.4461 112.14 47.7461 111.851 47.2421 111.272C46.7381 110.684 46.4861 109.867 46.4861 108.822C46.4861 107.739 46.7614 106.895 47.3121 106.288C47.8627 105.672 48.6281 105.364 49.6081 105.364ZM52.4468 109.312L52.3768 105.616L54.2108 105.462L54.1268 109.13L54.2108 112H52.3488L52.4468 109.312ZM54.6448 101.878L55.3168 102.886L55.2888 103.068C55.0835 103.199 54.9295 103.292 54.8268 103.348C53.6601 104.067 52.9041 104.524 52.5588 104.72L52.3768 104.706L51.9288 104.006C53.0115 103.138 53.8561 102.424 54.4628 101.864L54.6448 101.878ZM58.6452 105.364C58.9532 105.364 59.2565 105.397 59.5552 105.462C59.8632 105.518 60.1339 105.602 60.3672 105.714L60.0592 107.198L59.9052 107.268C59.4292 107.007 59.0045 106.876 58.6312 106.876C58.2019 106.876 57.8705 107.03 57.6372 107.338C57.4039 107.646 57.2872 108.085 57.2872 108.654C57.2872 109.307 57.4132 109.807 57.6652 110.152C57.9172 110.497 58.2765 110.67 58.7432 110.67C59.1632 110.67 59.6299 110.553 60.1432 110.32L60.2832 110.432L60.1012 111.874C59.5412 112.051 58.9672 112.14 58.3792 112.14C57.4832 112.14 56.7832 111.851 56.2792 111.272C55.7752 110.684 55.5232 109.867 55.5232 108.822C55.5232 107.739 55.7985 106.895 56.3492 106.288C56.8999 105.672 57.6652 105.364 58.6452 105.364ZM61.4839 109.312L61.4139 105.616L63.2479 105.462L63.1639 109.13L63.2479 112H61.3859L61.4839 109.312ZM62.3659 102.298C62.6552 102.298 62.8792 102.382 63.0379 102.55C63.2059 102.718 63.2899 102.951 63.2899 103.25C63.2899 103.567 63.2012 103.819 63.0239 104.006C62.8466 104.193 62.6039 104.286 62.2959 104.286C61.9879 104.286 61.7499 104.202 61.5819 104.034C61.4232 103.866 61.3439 103.628 61.3439 103.32C61.3439 103.012 61.4326 102.765 61.6099 102.578C61.7966 102.391 62.0486 102.298 62.3659 102.298ZM67.7103 105.364C68.6623 105.364 69.3903 105.644 69.8943 106.204C70.3983 106.764 70.6503 107.571 70.6503 108.626C70.6503 109.765 70.3796 110.637 69.8383 111.244C69.297 111.841 68.5176 112.14 67.5003 112.14C66.5483 112.14 65.8203 111.86 65.3163 111.3C64.8123 110.74 64.5603 109.933 64.5603 108.878C64.5603 107.739 64.831 106.871 65.3723 106.274C65.9136 105.667 66.693 105.364 67.7103 105.364ZM67.5843 106.624C67.1363 106.624 66.8096 106.773 66.6043 107.072C66.4083 107.371 66.3103 107.851 66.3103 108.514C66.3103 109.373 66.413 109.984 66.6183 110.348C66.8236 110.712 67.1596 110.894 67.6263 110.894C68.0743 110.894 68.3963 110.749 68.5923 110.46C68.7976 110.161 68.9003 109.676 68.9003 109.004C68.9003 108.155 68.793 107.548 68.5783 107.184C68.373 106.811 68.0416 106.624 67.5843 106.624ZM74.1103 105.378C74.7449 105.378 75.3423 105.485 75.9023 105.7L75.6503 107.072L75.4263 107.142C75.1556 106.965 74.8849 106.829 74.6143 106.736C74.3436 106.643 74.1056 106.596 73.9003 106.596C73.6763 106.596 73.4989 106.657 73.3683 106.778C73.2376 106.89 73.1723 107.03 73.1723 107.198C73.1723 107.394 73.2563 107.553 73.4243 107.674C73.6016 107.795 73.8769 107.931 74.2503 108.08C74.6236 108.229 74.9316 108.374 75.1743 108.514C75.4169 108.654 75.6223 108.85 75.7903 109.102C75.9676 109.345 76.0563 109.648 76.0563 110.012C76.0563 110.385 75.9583 110.735 75.7623 111.062C75.5756 111.379 75.2863 111.641 74.8943 111.846C74.5023 112.042 74.0216 112.14 73.4523 112.14C72.7803 112.14 72.0849 112 71.3663 111.72L71.5763 110.264L71.7583 110.152C72.0476 110.395 72.3696 110.591 72.7243 110.74C73.0789 110.88 73.3916 110.95 73.6623 110.95C73.9143 110.95 74.1103 110.889 74.2503 110.768C74.3903 110.637 74.4603 110.483 74.4603 110.306C74.4603 110.11 74.3716 109.951 74.1943 109.83C74.0263 109.709 73.7556 109.573 73.3823 109.424C72.9996 109.256 72.6869 109.107 72.4443 108.976C72.2016 108.836 71.9916 108.64 71.8143 108.388C71.6463 108.136 71.5623 107.823 71.5623 107.45C71.5623 106.843 71.7909 106.349 72.2483 105.966C72.7056 105.574 73.3263 105.378 74.1103 105.378ZM84.4585 108.976L80.6785 109.004C80.7625 110.171 81.3551 110.754 82.4565 110.754C83.0351 110.754 83.6791 110.591 84.3885 110.264L84.5425 110.362L84.2625 111.748C83.5531 112.009 82.8858 112.14 82.2605 112.14C81.2338 112.14 80.4265 111.841 79.8385 111.244C79.2598 110.647 78.9705 109.821 78.9705 108.766C78.9705 107.721 79.2551 106.895 79.8245 106.288C80.3938 105.672 81.1638 105.364 82.1345 105.364C82.9651 105.364 83.6045 105.593 84.0525 106.05C84.5098 106.498 84.7385 107.128 84.7385 107.94C84.7385 108.155 84.7151 108.425 84.6685 108.752L84.4585 108.976ZM83.1145 107.73C83.1145 107.357 83.0305 107.077 82.8625 106.89C82.6945 106.694 82.4471 106.596 82.1205 106.596C81.7565 106.596 81.4531 106.717 81.2105 106.96C80.9678 107.193 80.8045 107.534 80.7205 107.982L83.0865 107.926L83.1145 107.73ZM90.7031 105.364C91.4218 105.364 91.9818 105.527 92.3831 105.854C92.7938 106.171 92.9991 106.619 92.9991 107.198C92.9991 107.366 92.9711 107.898 92.9151 108.794C92.9058 109.055 92.8918 109.326 92.8731 109.606C92.8544 109.877 92.8451 110.11 92.8451 110.306C92.8451 110.465 92.8684 110.577 92.9151 110.642C92.9618 110.698 93.0458 110.726 93.1671 110.726C93.2604 110.726 93.3818 110.707 93.5311 110.67L93.6711 110.782L93.5031 111.762C93.2044 111.958 92.8638 112.075 92.4811 112.112C92.2011 112.084 91.9678 111.986 91.7811 111.818C91.5944 111.641 91.4684 111.398 91.4031 111.09H91.3051C90.8384 111.585 90.3578 111.93 89.8631 112.126C89.1911 112.117 88.6638 111.939 88.2811 111.594C87.8984 111.249 87.7071 110.777 87.7071 110.18C87.7071 109.713 87.8238 109.349 88.0571 109.088C88.2998 108.817 88.6638 108.635 89.1491 108.542L91.2911 108.136V107.562C91.2911 106.955 90.9924 106.652 90.3951 106.652C90.1058 106.652 89.7978 106.717 89.4711 106.848C89.1538 106.979 88.7944 107.184 88.3931 107.464L88.2531 107.38L88.0431 106.148C88.4444 105.896 88.8738 105.705 89.3311 105.574C89.7884 105.434 90.2458 105.364 90.7031 105.364ZM89.7931 109.396C89.6438 109.433 89.5318 109.499 89.4571 109.592C89.3918 109.676 89.3591 109.807 89.3591 109.984C89.3591 110.227 89.4244 110.418 89.5551 110.558C89.6858 110.689 89.8678 110.754 90.1011 110.754C90.4651 110.754 90.8478 110.539 91.2491 110.11L91.2771 109.074L89.7931 109.396ZM97.5133 110.628C97.812 110.628 98.1247 110.549 98.4513 110.39L98.6053 110.53L98.4233 111.636C97.9473 111.879 97.462 112.028 96.9673 112.084C95.7073 111.953 95.0773 111.337 95.0773 110.236L95.1473 109.074L95.1333 106.666H94.2653L94.1953 106.568L94.2933 105.546H95.1193V104.468L96.8133 103.922L96.9393 104.034L96.8973 105.546H98.5633L98.6193 105.644L98.5353 106.666H96.8693L96.7853 109.802C96.7853 110.101 96.8413 110.315 96.9533 110.446C97.0653 110.567 97.252 110.628 97.5133 110.628ZM99.7378 109.312L99.6678 105.616L101.502 105.462L101.418 109.13L101.502 112H99.6398L99.7378 109.312ZM100.62 102.298C100.909 102.298 101.133 102.382 101.292 102.55C101.46 102.718 101.544 102.951 101.544 103.25C101.544 103.567 101.455 103.819 101.278 104.006C101.1 104.193 100.858 104.286 100.55 104.286C100.242 104.286 100.004 104.202 99.8358 104.034C99.6771 103.866 99.5978 103.628 99.5978 103.32C99.5978 103.012 99.6865 102.765 99.8638 102.578C100.05 102.391 100.302 102.298 100.62 102.298ZM104.48 106.526L105.46 110.25H105.558L106.734 106.624L106.972 105.49H108.596L106.412 112H104.41L102.562 105.532L104.298 105.448L104.48 106.526ZM109.623 109.312L109.553 105.616L111.387 105.462L111.303 109.13L111.387 112H109.525L109.623 109.312ZM110.505 102.298C110.794 102.298 111.018 102.382 111.177 102.55C111.345 102.718 111.429 102.951 111.429 103.25C111.429 103.567 111.34 103.819 111.163 104.006C110.985 104.193 110.743 104.286 110.435 104.286C110.127 104.286 109.889 104.202 109.721 104.034C109.562 103.866 109.483 103.628 109.483 103.32C109.483 103.012 109.571 102.765 109.749 102.578C109.935 102.391 110.187 102.298 110.505 102.298ZM118.579 109.13L118.621 110.306C118.621 110.465 118.64 110.577 118.677 110.642C118.724 110.698 118.803 110.726 118.915 110.726C119.018 110.726 119.144 110.707 119.293 110.67L119.419 110.782L119.265 111.762C118.948 111.958 118.602 112.075 118.229 112.112C117.94 112.084 117.697 111.986 117.501 111.818C117.305 111.65 117.17 111.421 117.095 111.132H116.983C116.526 111.552 116.059 111.874 115.583 112.098C114.668 112.098 113.959 111.809 113.455 111.23C112.951 110.642 112.699 109.83 112.699 108.794C112.699 107.693 112.988 106.848 113.567 106.26C114.146 105.672 114.948 105.378 115.975 105.378C116.246 105.378 116.544 105.406 116.871 105.462L116.843 102.312L118.691 102.172L118.579 109.13ZM115.849 106.638C114.916 106.638 114.449 107.231 114.449 108.416C114.449 109.153 114.561 109.709 114.785 110.082C115.009 110.455 115.336 110.642 115.765 110.642C116.176 110.642 116.554 110.451 116.899 110.068L116.927 109.298L116.885 106.89C116.521 106.722 116.176 106.638 115.849 106.638ZM123.078 105.364C123.797 105.364 124.357 105.527 124.758 105.854C125.169 106.171 125.374 106.619 125.374 107.198C125.374 107.366 125.346 107.898 125.29 108.794C125.281 109.055 125.267 109.326 125.248 109.606C125.229 109.877 125.22 110.11 125.22 110.306C125.22 110.465 125.243 110.577 125.29 110.642C125.337 110.698 125.421 110.726 125.542 110.726C125.635 110.726 125.757 110.707 125.906 110.67L126.046 110.782L125.878 111.762C125.579 111.958 125.239 112.075 124.856 112.112C124.576 112.084 124.343 111.986 124.156 111.818C123.969 111.641 123.843 111.398 123.778 111.09H123.68C123.213 111.585 122.733 111.93 122.238 112.126C121.566 112.117 121.039 111.939 120.656 111.594C120.273 111.249 120.082 110.777 120.082 110.18C120.082 109.713 120.199 109.349 120.432 109.088C120.675 108.817 121.039 108.635 121.524 108.542L123.666 108.136V107.562C123.666 106.955 123.367 106.652 122.77 106.652C122.481 106.652 122.173 106.717 121.846 106.848C121.529 106.979 121.169 107.184 120.768 107.464L120.628 107.38L120.418 106.148C120.819 105.896 121.249 105.705 121.706 105.574C122.163 105.434 122.621 105.364 123.078 105.364ZM122.168 109.396C122.019 109.433 121.907 109.499 121.832 109.592C121.767 109.676 121.734 109.807 121.734 109.984C121.734 110.227 121.799 110.418 121.93 110.558C122.061 110.689 122.243 110.754 122.476 110.754C122.84 110.754 123.223 110.539 123.624 110.11L123.652 109.074L122.168 109.396ZM132.688 109.13L132.73 110.306C132.73 110.465 132.749 110.577 132.786 110.642C132.833 110.698 132.912 110.726 133.024 110.726C133.127 110.726 133.253 110.707 133.402 110.67L133.528 110.782L133.374 111.762C133.057 111.958 132.712 112.075 132.338 112.112C132.049 112.084 131.806 111.986 131.61 111.818C131.414 111.65 131.279 111.421 131.204 111.132H131.092C130.635 111.552 130.168 111.874 129.692 112.098C128.778 112.098 128.068 111.809 127.564 111.23C127.06 110.642 126.808 109.83 126.808 108.794C126.808 107.693 127.098 106.848 127.676 106.26C128.255 105.672 129.058 105.378 130.084 105.378C130.355 105.378 130.654 105.406 130.98 105.462L130.952 102.312L132.8 102.172L132.688 109.13ZM129.958 106.638C129.025 106.638 128.558 107.231 128.558 108.416C128.558 109.153 128.67 109.709 128.894 110.082C129.118 110.455 129.445 110.642 129.874 110.642C130.285 110.642 130.663 110.451 131.008 110.068L131.036 109.298L130.994 106.89C130.63 106.722 130.285 106.638 129.958 106.638ZM139.665 108.976L135.885 109.004C135.969 110.171 136.562 110.754 137.663 110.754C138.242 110.754 138.886 110.591 139.595 110.264L139.749 110.362L139.469 111.748C138.76 112.009 138.093 112.14 137.467 112.14C136.441 112.14 135.633 111.841 135.045 111.244C134.467 110.647 134.177 109.821 134.177 108.766C134.177 107.721 134.462 106.895 135.031 106.288C135.601 105.672 136.371 105.364 137.341 105.364C138.172 105.364 138.811 105.593 139.259 106.05C139.717 106.498 139.945 107.128 139.945 107.94C139.945 108.155 139.922 108.425 139.875 108.752L139.665 108.976ZM138.321 107.73C138.321 107.357 138.237 107.077 138.069 106.89C137.901 106.694 137.654 106.596 137.327 106.596C136.963 106.596 136.66 106.717 136.417 106.96C136.175 107.193 136.011 107.534 135.927 107.982L138.293 107.926L138.321 107.73ZM143.413 105.378C144.048 105.378 144.645 105.485 145.205 105.7L144.953 107.072L144.729 107.142C144.458 106.965 144.188 106.829 143.917 106.736C143.646 106.643 143.408 106.596 143.203 106.596C142.979 106.596 142.802 106.657 142.671 106.778C142.54 106.89 142.475 107.03 142.475 107.198C142.475 107.394 142.559 107.553 142.727 107.674C142.904 107.795 143.18 107.931 143.553 108.08C143.926 108.229 144.234 108.374 144.477 108.514C144.72 108.654 144.925 108.85 145.093 109.102C145.27 109.345 145.359 109.648 145.359 110.012C145.359 110.385 145.261 110.735 145.065 111.062C144.878 111.379 144.589 111.641 144.197 111.846C143.805 112.042 143.324 112.14 142.755 112.14C142.083 112.14 141.388 112 140.669 111.72L140.879 110.264L141.061 110.152C141.35 110.395 141.672 110.591 142.027 110.74C142.382 110.88 142.694 110.95 142.965 110.95C143.217 110.95 143.413 110.889 143.553 110.768C143.693 110.637 143.763 110.483 143.763 110.306C143.763 110.11 143.674 109.951 143.497 109.83C143.329 109.709 143.058 109.573 142.685 109.424C142.302 109.256 141.99 109.107 141.747 108.976C141.504 108.836 141.294 108.64 141.117 108.388C140.949 108.136 140.865 107.823 140.865 107.45C140.865 106.843 141.094 106.349 141.551 105.966C142.008 105.574 142.629 105.378 143.413 105.378ZM70.4197 118.144C70.8024 118.144 71.2084 118.186 71.6377 118.27L71.5117 119.656L71.3857 119.74C70.9471 119.553 70.5644 119.46 70.2377 119.46C69.6591 119.46 69.3651 119.791 69.3557 120.454L69.3417 121.546H70.9237L70.9797 121.644L70.8957 122.666H69.3137L69.2717 125.13L69.3697 128H67.5077L67.6197 125.298L67.5917 122.666H66.6117L66.5417 122.568L66.6397 121.546H67.5777L67.5637 120.776C67.5637 119.936 67.8111 119.287 68.3057 118.83C68.8097 118.373 69.5144 118.144 70.4197 118.144ZM71.7652 125.312L71.6952 121.616L73.5292 121.462L73.4452 125.13L73.5292 128H71.6672L71.7652 125.312ZM73.9632 117.878L74.6352 118.886L74.6072 119.068C74.4018 119.199 74.2478 119.292 74.1452 119.348C72.9785 120.067 72.2225 120.524 71.8772 120.72L71.6952 120.706L71.2472 120.006C72.3298 119.138 73.1745 118.424 73.7812 117.864L73.9632 117.878ZM77.4735 121.378C78.1082 121.378 78.7055 121.485 79.2655 121.7L79.0135 123.072L78.7895 123.142C78.5189 122.965 78.2482 122.829 77.9775 122.736C77.7069 122.643 77.4689 122.596 77.2635 122.596C77.0395 122.596 76.8622 122.657 76.7315 122.778C76.6009 122.89 76.5355 123.03 76.5355 123.198C76.5355 123.394 76.6195 123.553 76.7875 123.674C76.9649 123.795 77.2402 123.931 77.6135 124.08C77.9869 124.229 78.2949 124.374 78.5375 124.514C78.7802 124.654 78.9855 124.85 79.1535 125.102C79.3309 125.345 79.4195 125.648 79.4195 126.012C79.4195 126.385 79.3215 126.735 79.1255 127.062C78.9389 127.379 78.6495 127.641 78.2575 127.846C77.8655 128.042 77.3849 128.14 76.8155 128.14C76.1435 128.14 75.4482 128 74.7295 127.72L74.9395 126.264L75.1215 126.152C75.4109 126.395 75.7329 126.591 76.0875 126.74C76.4422 126.88 76.7549 126.95 77.0255 126.95C77.2775 126.95 77.4735 126.889 77.6135 126.768C77.7535 126.637 77.8235 126.483 77.8235 126.306C77.8235 126.11 77.7349 125.951 77.5575 125.83C77.3895 125.709 77.1189 125.573 76.7455 125.424C76.3629 125.256 76.0502 125.107 75.8075 124.976C75.5649 124.836 75.3549 124.64 75.1775 124.388C75.0095 124.136 74.9255 123.823 74.9255 123.45C74.9255 122.843 75.1542 122.349 75.6115 121.966C76.0689 121.574 76.6895 121.378 77.4735 121.378ZM80.7886 125.312L80.7186 121.616L82.5526 121.462L82.4686 125.13L82.5526 128H80.6906L80.7886 125.312ZM81.6706 118.298C81.9599 118.298 82.1839 118.382 82.3426 118.55C82.5106 118.718 82.5946 118.951 82.5946 119.25C82.5946 119.567 82.5059 119.819 82.3286 120.006C82.1513 120.193 81.9086 120.286 81.6006 120.286C81.2926 120.286 81.0546 120.202 80.8866 120.034C80.7279 119.866 80.6486 119.628 80.6486 119.32C80.6486 119.012 80.7373 118.765 80.9146 118.578C81.1013 118.391 81.3533 118.298 81.6706 118.298ZM86.987 121.364C87.295 121.364 87.5983 121.397 87.897 121.462C88.205 121.518 88.4757 121.602 88.709 121.714L88.401 123.198L88.247 123.268C87.771 123.007 87.3463 122.876 86.973 122.876C86.5437 122.876 86.2123 123.03 85.979 123.338C85.7457 123.646 85.629 124.085 85.629 124.654C85.629 125.307 85.755 125.807 86.007 126.152C86.259 126.497 86.6183 126.67 87.085 126.67C87.505 126.67 87.9717 126.553 88.485 126.32L88.625 126.432L88.443 127.874C87.883 128.051 87.309 128.14 86.721 128.14C85.825 128.14 85.125 127.851 84.621 127.272C84.117 126.684 83.865 125.867 83.865 124.822C83.865 123.739 84.1403 122.895 84.691 122.288C85.2417 121.672 86.007 121.364 86.987 121.364ZM92.125 121.364C92.8437 121.364 93.4037 121.527 93.805 121.854C94.2157 122.171 94.421 122.619 94.421 123.198C94.421 123.366 94.393 123.898 94.337 124.794C94.3277 125.055 94.3137 125.326 94.295 125.606C94.2763 125.877 94.267 126.11 94.267 126.306C94.267 126.465 94.2903 126.577 94.337 126.642C94.3837 126.698 94.4677 126.726 94.589 126.726C94.6823 126.726 94.8037 126.707 94.953 126.67L95.093 126.782L94.925 127.762C94.6263 127.958 94.2857 128.075 93.903 128.112C93.623 128.084 93.3897 127.986 93.203 127.818C93.0163 127.641 92.8903 127.398 92.825 127.09H92.727C92.2603 127.585 91.7797 127.93 91.285 128.126C90.613 128.117 90.0857 127.939 89.703 127.594C89.3203 127.249 89.129 126.777 89.129 126.18C89.129 125.713 89.2457 125.349 89.479 125.088C89.7217 124.817 90.0857 124.635 90.571 124.542L92.713 124.136V123.562C92.713 122.955 92.4143 122.652 91.817 122.652C91.5277 122.652 91.2197 122.717 90.893 122.848C90.5757 122.979 90.2163 123.184 89.815 123.464L89.675 123.38L89.465 122.148C89.8663 121.896 90.2957 121.705 90.753 121.574C91.2103 121.434 91.6677 121.364 92.125 121.364ZM91.215 125.396C91.0657 125.433 90.9537 125.499 90.879 125.592C90.8137 125.676 90.781 125.807 90.781 125.984C90.781 126.227 90.8463 126.418 90.977 126.558C91.1077 126.689 91.2897 126.754 91.523 126.754C91.887 126.754 92.2697 126.539 92.671 126.11L92.699 125.074L91.215 125.396ZM98.4872 121.378C99.1219 121.378 99.7192 121.485 100.279 121.7L100.027 123.072L99.8032 123.142C99.5326 122.965 99.2619 122.829 98.9912 122.736C98.7206 122.643 98.4826 122.596 98.2772 122.596C98.0532 122.596 97.8759 122.657 97.7452 122.778C97.6146 122.89 97.5492 123.03 97.5492 123.198C97.5492 123.394 97.6332 123.553 97.8012 123.674C97.9786 123.795 98.2539 123.931 98.6272 124.08C99.0006 124.229 99.3086 124.374 99.5512 124.514C99.7939 124.654 99.9992 124.85 100.167 125.102C100.345 125.345 100.433 125.648 100.433 126.012C100.433 126.385 100.335 126.735 100.139 127.062C99.9526 127.379 99.6632 127.641 99.2712 127.846C98.8792 128.042 98.3986 128.14 97.8292 128.14C97.1572 128.14 96.4619 128 95.7432 127.72L95.9532 126.264L96.1352 126.152C96.4246 126.395 96.7466 126.591 97.1012 126.74C97.4559 126.88 97.7686 126.95 98.0392 126.95C98.2912 126.95 98.4872 126.889 98.6272 126.768C98.7672 126.637 98.8372 126.483 98.8372 126.306C98.8372 126.11 98.7486 125.951 98.5712 125.83C98.4032 125.709 98.1326 125.573 97.7592 125.424C97.3766 125.256 97.0639 125.107 96.8212 124.976C96.5786 124.836 96.3686 124.64 96.1912 124.388C96.0232 124.136 95.9392 123.823 95.9392 123.45C95.9392 122.843 96.1679 122.349 96.6252 121.966C97.0826 121.574 97.7032 121.378 98.4872 121.378Z" fill="white"/>
<defs>
<filter id="filter0_b_206:36606" x="3" y="67" width="161" height="97" filterUnits="userSpaceOnUse" color-interpolation-filters="sRGB">
<feFlood flood-opacity="0" result="BackgroundImageFix"/>
<feGaussianBlur in="BackgroundImage" stdDeviation="5"/>
<feComposite in2="SourceAlpha" operator="in" result="effect1_backgroundBlur_206:36606"/>
<feBlend mode="normal" in="SourceGraphic" in2="effect1_backgroundBlur_206:36606" result="shape"/>
</filter>
</defs>
</svg>
