<svg width="167" height="167" viewBox="0 0 167 167" fill="none" xmlns="http://www.w3.org/2000/svg">
<mask id="mask0_206:36102" style="mask-type:alpha" maskUnits="userSpaceOnUse" x="0" y="0" width="167" height="167">
<rect x="1" y="1" width="165" height="165" rx="8" fill="#5988D6" stroke="#EDE6FC" stroke-opacity="0.3"/>
</mask>
<g mask="url(#mask0_206:36102)">
<rect x="1" y="1" width="165" height="165" rx="8" fill="#A9D97A" stroke="#EDE6FC" stroke-opacity="0.3"/>
<path d="M77.5923 155.492V159.858C77.592 160.031 77.523 160.197 77.4003 160.32C77.2777 160.442 77.1115 160.511 76.9382 160.511H66.6977C66.538 160.51 66.3828 160.458 66.2552 160.362C66.1276 160.266 66.0344 160.131 65.9896 159.978C65.9447 159.825 65.9505 159.661 66.0062 159.512C66.0619 159.362 66.1645 159.234 66.2986 159.148L71.9084 155.492C71.9084 155.492 74.2973 157.136 77.5923 155.492Z" fill="#45258F"/>
<path d="M100.172 155.492V159.858C100.172 159.944 100.189 160.029 100.222 160.108C100.255 160.187 100.303 160.259 100.364 160.32C100.425 160.381 100.497 160.429 100.576 160.462C100.655 160.494 100.741 160.511 100.826 160.511H111.066C111.225 160.51 111.381 160.458 111.508 160.362C111.636 160.266 111.729 160.131 111.774 159.978C111.819 159.825 111.813 159.661 111.757 159.512C111.702 159.362 111.599 159.234 111.465 159.148L105.855 155.492C105.855 155.492 103.466 157.136 100.172 155.492Z" fill="#45258F"/>
<path d="M42.6889 42.2863C42.6889 42.2863 43.7749 43.2495 43.7749 43.7142C43.7749 44.1789 44.7063 48.545 44.7063 50.5031C44.7063 52.4612 39.0584 53.9865 39.0584 53.9865L37.6136 50.5073C37.6136 50.5073 38.3884 43.9449 38.4879 43.9449C38.5874 43.9449 42.6889 42.2863 42.6889 42.2863Z" fill="#EFAC7F"/>
<path d="M40.7106 40.034L38.6805 40.1493L35.7571 40.3155L38.0349 50.3327L39.2563 50.2639L41.2854 50.1485L42.5068 50.0787L43.6351 39.8678L40.7106 40.034Z" fill="#3797DB"/>
<path d="M44.0035 40.8035L35.4978 41.2872C35.4146 41.2912 35.3331 41.2624 35.271 41.207C35.2088 41.1516 35.1709 41.0739 35.1654 40.9908L35.14 40.5388C35.136 40.4556 35.1647 40.3742 35.2202 40.312C35.2756 40.2498 35.3533 40.2119 35.4364 40.2065L43.9421 39.7228C44.0251 39.719 44.1063 39.7479 44.1682 39.8033C44.2302 39.8587 44.2679 39.9362 44.2734 40.0191L44.2999 40.4711C44.3039 40.5543 44.2751 40.6358 44.2197 40.6979C44.1643 40.7601 44.0866 40.798 44.0035 40.8035Z" fill="#68B1E4"/>
<path opacity="0.3" d="M37.2844 42.7796C36.9676 42.7979 36.6554 42.8639 36.3583 42.9754L37.7343 49.0086C38.5603 48.9493 39.3289 48.5644 39.8711 47.9384C40.4133 47.3125 40.6846 46.4967 40.6254 45.6707C40.5662 44.8447 40.1812 44.0761 39.5553 43.5339C38.9293 42.9917 38.1136 42.7203 37.2876 42.7796H37.2844Z" fill="#DAEEF7"/>
<path d="M66.793 78.4292C72.1191 85.0107 82.7618 94.5039 82.7618 94.5039L77.5871 156.726C77.5871 156.726 72.4896 157.607 70.0467 156.058C70.0467 156.058 66.4458 96.8981 66.793 78.4292Z" fill="#2D185D"/>
<path d="M68.8082 80.8753C68.8252 79.9428 66.7517 82.6937 66.7908 81.9486C67.6048 66.4592 93.4553 79.4464 93.4553 79.4464L99.7647 84.8678L108.021 156.612C108.021 156.612 103.864 158.35 100.148 157.175L82.7628 95.2808C82.7628 95.2808 77.0758 93.2782 68.8082 80.8753Z" fill="#45258F"/>
<path d="M89.7698 30.0126L89.7995 37.1518L82.8518 36.0828L84.0108 28.0544L89.7698 30.0126Z" fill="#EFAC7F"/>
<path opacity="0.6" d="M83.4784 31.7505L84.0076 28.0544L89.7762 30.6868V32.0966C88.3907 32.4385 85.7911 32.7412 83.4784 31.7505Z" fill="#FC8D84"/>
<path d="M79.8045 15.4419L79.3843 20.3426L80.1601 20.8294L81.5933 14.863L79.8045 15.4419Z" fill="#5E2E0D"/>
<path d="M80.8482 19.8366C81.0599 20.9469 80.5126 21.9842 79.6235 22.1546C78.7344 22.325 77.8401 21.564 77.6273 20.4537C77.4146 19.3434 77.9618 18.3061 78.8509 18.1357C79.74 17.9653 80.6344 18.7263 80.8482 19.8366Z" fill="#D19369"/>
<path d="M79.94 25.8994C79.7717 25.4008 79.6498 24.8878 79.5759 24.3668C79.3483 22.9485 79.3811 21.4973 79.5071 20.2505C79.5346 19.9827 79.5462 19.7149 79.5526 19.4461C79.5824 18.2332 79.864 17.0398 80.3795 15.9415C80.8949 14.8432 81.633 13.8641 82.5468 13.0661C83.4607 12.2682 84.5304 11.6689 85.6882 11.3062C86.8459 10.9435 88.0664 10.8255 89.2722 10.9594C90.478 11.0934 91.6428 11.4765 92.6927 12.0844C93.7426 12.6923 94.6547 13.5118 95.3712 14.4909C96.0877 15.47 96.5928 16.5872 96.8546 17.7719C97.1165 18.9565 97.1292 20.1826 96.8921 21.3724C97.4891 21.1819 98.1062 21.2327 98.5856 21.5757C99.5139 22.234 99.5986 23.7063 98.774 24.8643C97.9495 26.0222 96.5301 26.4276 95.5987 25.7692C95.4724 25.6798 95.3594 25.5729 95.2632 25.4517C93.993 29.5638 89.8989 32.1199 85.7816 31.2213C83.8342 30.7955 82.1217 29.6453 80.991 28.0036C80.9064 27.8983 80.8276 27.7884 80.755 27.6744C80.4081 27.1203 80.1341 26.5237 79.94 25.8994Z" fill="#EFAC7F"/>
<path d="M89.0713 20.4495C89.01 20.6001 88.9983 20.7663 89.0379 20.924C89.0775 21.0817 89.1662 21.2227 89.2914 21.3266C89.4165 21.4304 89.5714 21.4917 89.7337 21.5016C89.896 21.5115 90.0572 21.4694 90.194 21.3815C90.3307 21.2935 90.436 21.1643 90.4944 21.0126C90.5528 20.8609 90.5613 20.6944 90.5187 20.5375C90.4762 20.3806 90.3848 20.2413 90.2577 20.1398C90.1307 20.0383 89.9746 19.98 89.8122 19.9732C89.6546 19.9664 89.4989 20.0086 89.3662 20.0938C89.2336 20.1791 89.1305 20.3033 89.0713 20.4495Z" fill="#333333"/>
<path d="M82.566 19.4767C82.505 19.6272 82.4935 19.7931 82.5331 19.9505C82.5727 20.1079 82.6614 20.2486 82.7864 20.3522C82.9113 20.4558 83.066 20.5169 83.228 20.5267C83.39 20.5366 83.5509 20.4945 83.6875 20.4068C83.824 20.319 83.929 20.19 83.9874 20.0386C84.0457 19.8871 84.0543 19.721 84.0119 19.5643C83.9695 19.4077 83.8783 19.2686 83.7516 19.1672C83.6248 19.0658 83.4691 19.0074 83.3069 19.0004C83.1494 18.9935 82.9935 19.0356 82.8608 19.1209C82.7281 19.2062 82.6252 19.3305 82.566 19.4767Z" fill="#333333"/>
<path d="M88.4541 18.8988C88.8309 18.8274 89.2128 18.7867 89.5962 18.7771C89.9532 18.7686 90.3096 18.811 90.6546 18.9031C90.9998 18.9929 91.329 19.1358 91.6305 19.3264L91.7512 19.3942C91.7914 19.4175 91.8253 19.4492 91.8644 19.4746L92.0973 19.6376C92.2529 19.7498 92.3926 19.8821 92.5662 19.9975C92.493 19.808 92.4026 19.6255 92.2963 19.4524C92.1809 19.2809 92.0467 19.123 91.8962 18.9814C91.5878 18.686 91.2088 18.4746 90.7954 18.3675C90.3838 18.2585 89.9519 18.2512 89.5369 18.3463C89.1346 18.4348 88.7618 18.625 88.4541 18.8988Z" fill="#5E2E0D"/>
<path d="M85.4154 18.3993C85.2097 18.041 84.9161 17.7412 84.5623 17.5281C84.1998 17.3047 83.788 17.1735 83.363 17.146C82.9371 17.1142 82.5101 17.193 82.1236 17.3747C81.9359 17.4604 81.7583 17.5669 81.5944 17.6922C81.4386 17.8227 81.2945 17.9665 81.1636 18.1219C81.3647 18.069 81.5404 17.9886 81.7235 17.9314L81.9966 17.852C82.0421 17.8404 82.0844 17.8213 82.1299 17.8118L82.2654 17.7864C82.6116 17.7027 82.9686 17.6727 83.3239 17.6975C83.6815 17.7212 84.034 17.7957 84.3707 17.9187C84.7314 18.0503 85.0807 18.211 85.4154 18.3993Z" fill="#5E2E0D"/>
<path d="M86.6083 18.522C86.6561 19.0714 86.6258 19.6249 86.5183 20.1658C86.4666 20.4429 86.3893 20.7147 86.2876 20.9776C86.1812 21.2653 86.014 21.5267 85.7975 21.7439C85.5244 21.9556 85.4006 22.0181 85.3191 22.2181C85.2365 22.3885 85.2736 22.6055 85.3614 22.8119C85.5572 23.2353 86.0049 23.5528 86.4971 23.7836C85.9563 23.7582 85.3593 23.5423 85.0058 23.0141C84.9096 22.8761 84.8457 22.7183 84.8188 22.5523C84.7919 22.3863 84.8026 22.2164 84.8502 22.0551C84.9687 21.6921 85.1942 21.5566 85.445 21.3576C85.6078 21.1889 85.7396 20.993 85.8345 20.7786C85.9447 20.545 86.0419 20.3054 86.1256 20.061C86.2907 19.5614 86.4421 19.0438 86.6083 18.522Z" fill="#D19369"/>
<path d="M78.5492 34.3914H83.1006C86.5035 37.8017 89.8037 34.3914 89.8037 34.3914H92.8531C92.8531 34.3914 100.931 76.7643 89.2819 78.8875C77.6326 81.0108 71.5179 77.2469 71.5179 77.2469V57.365L78.5492 34.3914Z" fill="#79AA4D"/>
<path d="M78.5492 34.3914C78.5492 34.3914 75.1166 34.5851 69.129 41.8238C63.1413 49.0625 59.4611 65.857 53.1781 59.7762C46.8952 53.6954 44.7666 50.6068 44.7666 50.6068C44.7666 50.6068 41.1901 51.7658 39.0637 53.9854C39.0637 53.9854 50.0843 74.2547 55.2083 75.3163C60.3322 76.378 71.5211 65.9543 71.5211 65.9543L78.5492 34.3914Z" fill="#3B77BE"/>
<path d="M92.8531 34.3914C92.8531 34.3914 105.612 36.4193 106.772 38.3076C107.932 40.1959 118.722 75.474 110.891 90.0965C110.891 90.0965 106.813 91.4418 103.023 90.2828V94.1927C103.023 94.1927 93.141 96.6536 86.3256 94.1927C86.3256 94.1874 85.7456 47.423 92.8531 34.3914Z" fill="#3797DB"/>
<path d="M78.5492 34.3914C78.5492 34.3914 72.0238 82.7488 73.9089 92.4484C73.9089 92.4484 67.9636 92.8824 64.4887 91.5794C64.4866 91.5805 64.1934 37.4333 78.5492 34.3914Z" fill="#3797DB"/>
<path d="M92.8531 34.3914L97.2277 41.1855L86.3256 94.1864C86.3256 94.1864 85.7456 47.423 92.8531 34.3914Z" fill="#3B77BE"/>
<path d="M73.3352 40.1948L78.5492 34.3914C78.5492 34.3914 72.0238 82.7488 73.9089 92.4484C69.4952 81.8607 73.3352 40.1948 73.3352 40.1948Z" fill="#3B77BE"/>
<path d="M90.1382 85.6775L90.4716 84.3354C90.5439 84.0437 90.7291 83.7927 90.9864 83.6376C91.2438 83.4825 91.5522 83.4359 91.8439 83.5082C92.1356 83.5805 92.3866 83.7657 92.5417 84.023C92.6968 84.2804 92.7434 84.5888 92.6711 84.8805L91.2654 90.5601C91.1932 90.8518 91.008 91.1028 90.7506 91.2579C90.4933 91.4131 90.1848 91.4596 89.8932 91.3873C89.6015 91.315 89.3505 91.1298 89.1954 90.8725C89.0402 90.6151 88.9937 90.3067 89.066 90.015L89.3994 88.6729C89.3177 88.6532 89.2407 88.6175 89.1729 88.5678C89.1051 88.5182 89.0478 88.4555 89.0044 88.3836C88.961 88.3116 88.9323 88.2317 88.9199 88.1486C88.9076 88.0654 88.9119 87.9807 88.9326 87.8992L89.3602 86.1496C89.3801 86.0674 89.416 85.9899 89.4659 85.9216C89.5158 85.8533 89.5787 85.7956 89.651 85.7517C89.7233 85.7078 89.8036 85.6787 89.8872 85.6659C89.9708 85.6532 90.0561 85.6571 90.1382 85.6775Z" fill="#DAEEF7"/>
<path d="M90.517 97.2188L114.385 103.127C114.864 103.245 115.369 103.169 115.792 102.915C116.214 102.66 116.518 102.249 116.636 101.77L120.352 86.8058C120.47 86.3272 120.394 85.821 120.139 85.3987C119.885 84.9763 119.473 84.6723 118.995 84.5534L95.1266 78.6452C94.6482 78.5269 94.1425 78.6033 93.7205 78.8578C93.2986 79.1122 92.9949 79.5238 92.8763 80.0021L89.1601 94.9665C89.1012 95.2035 89.0896 95.4497 89.1259 95.6912C89.1622 95.9327 89.2458 96.1647 89.3718 96.3738C89.4978 96.583 89.6638 96.7653 89.8603 96.9103C90.0568 97.0553 90.28 97.1601 90.517 97.2188Z" fill="#9ED16F"/>
<path d="M103.098 90.2966L104.819 90.7263C104.819 90.7263 106.195 90.8258 106.24 90.8142C106.286 90.8025 107.762 90.7602 107.762 90.7602L110.168 90.3146C109.815 91.8663 108.447 97.385 108.252 97.3797C108.03 97.3797 107.799 94.8035 107.555 94.8902C107.31 94.977 106.496 98.4308 106.276 98.2021C106.056 97.9735 106.425 94.6923 106.22 94.7093C106.016 94.7262 105.275 98.0667 104.832 97.9439C104.388 97.8211 105.322 94.1832 104.93 94.2287C104.538 94.2742 103.675 98.0243 103.289 97.8476C102.964 97.6983 103.826 93.4804 104.109 92.1415C104.117 92.1021 104.114 92.0613 104.101 92.0234C104.087 91.9855 104.064 91.9519 104.033 91.9262C104.002 91.9005 103.965 91.8836 103.926 91.8773C103.886 91.871 103.845 91.8756 103.808 91.8906C101.268 92.8824 101.018 92.8104 100.972 92.5077C100.953 92.3733 101.939 91.3953 103.098 90.2966Z" fill="#EFAC7F"/>
<path d="M113.365 81.4744C113.365 81.4744 112.238 89.0952 110.891 90.0912C110.891 90.0912 106.719 91.4333 102.895 90.3643V86.5983L102.807 78.4292H108.647L113.365 81.4744Z" fill="#3797DB"/>
<path d="M99.5732 56.1563L99.8706 57.3481C99.9701 57.7461 100.054 58.1462 100.146 58.5452L100.281 59.1453L100.407 59.7465C100.49 60.1477 100.577 60.5478 100.654 60.95C100.965 62.5588 101.243 64.1733 101.487 65.7935C101.731 67.4136 101.943 69.0365 102.122 70.6623C102.487 73.9181 102.754 77.182 102.922 80.4541C103.087 83.6971 103.185 86.9413 103.149 90.1918C103.678 90.4106 104.234 90.5569 104.803 90.6268C105.405 90.7053 106.012 90.736 106.619 90.7189C107.229 90.7039 107.837 90.6576 108.442 90.5802C109.047 90.503 109.652 90.4088 110.249 90.2765C109.063 90.5933 107.849 90.7897 106.625 90.8629C106.009 90.9013 105.391 90.891 104.778 90.8322C104.155 90.7773 103.545 90.6296 102.967 90.394L102.891 90.3633V90.2775C102.843 87.0111 102.702 83.7427 102.503 80.4816C102.304 77.2205 102.034 73.9626 101.689 70.7131C101.508 69.0895 101.316 67.4679 101.094 65.8496C100.872 64.2312 100.623 62.617 100.34 61.0082C100.056 59.3994 99.7404 57.7958 99.3869 56.2007C99.0334 54.6056 98.6206 53.0254 98.1697 51.4493C98.7053 52.9968 99.1562 54.5718 99.5732 56.1563Z" fill="#DAEEF7"/>
<path d="M79.7876 13.9167C77.4696 18.2447 87.0327 15.8431 87.0327 15.8431C85.5371 18.0764 93.7433 15.3837 93.7433 15.3837L93.7507 15.3954C93.2415 19.3751 95.8866 26.2889 90.3223 28.6143C90.2927 27.8681 90.117 26.9886 89.591 26.2053C88.8733 25.1363 87.673 24.4917 86.0219 24.2895C84.2595 24.0778 82.8825 24.4081 81.9278 25.2834C81.447 25.7325 81.0854 26.2941 80.8757 26.9177C79.3303 24.6695 79.3843 21.7058 79.3843 21.7058C79.3843 21.7058 76.7477 32.6597 85.0999 33.9204C93.4522 35.181 96.3767 25.7915 95.8961 22.4626C96.1533 21.9789 96.4899 21.5174 96.889 21.3703C97.6447 21.0898 98.1909 21.3354 98.3803 21.4455C98.4031 21.4636 98.4276 21.4795 98.4534 21.4931C103.111 1.75195 84.4882 6.60706 81.3128 8.15663C78.1375 9.7062 80.7148 10.2068 80.7148 10.2068C76.2619 13.3864 79.7876 13.9167 79.7876 13.9167ZM89.538 28.8948C88.6151 29.1743 87.5058 29.3479 86.1743 29.3923C83.9727 29.4664 82.4866 28.7191 81.4811 27.6649C81.6028 27.1082 81.8727 26.3948 82.4633 25.8571C83.2413 25.1469 84.4067 24.8812 85.9266 25.0675C87.3386 25.2411 88.3504 25.7692 88.9358 26.6372C89.4227 27.3611 89.5423 28.2121 89.538 28.8948Z" fill="#5E2E0D"/>
<path d="M87.6487 26.0444C87.2982 26.2403 86.924 26.3904 86.5352 26.4911C86.1511 26.5911 85.753 26.6269 85.3572 26.5969C84.963 26.5604 84.5795 26.4483 84.2278 26.2667C83.8753 26.0756 83.5517 25.8354 83.2667 25.5533C83.516 25.8774 83.8241 26.1518 84.1749 26.362C84.3531 26.4659 84.5419 26.5507 84.738 26.6149C84.9359 26.6756 85.1395 26.7163 85.3455 26.7367C85.7574 26.768 86.1714 26.7194 86.5648 26.5938C86.9553 26.475 87.322 26.2891 87.6487 26.0444Z" fill="#D19369"/>
<path d="M36.0704 43.3204C36.7943 42.7976 38.3291 41.7391 38.653 41.9191C39.0764 42.1562 36.8166 44.0222 36.987 44.1418C37.1574 44.2614 39.6987 43.4009 39.7686 43.7184C39.831 44.0042 37.4283 45.2087 37.4537 45.3813C37.4791 45.5538 39.8935 45.1378 40.0311 45.4236C40.156 45.6818 37.7321 46.4767 37.7194 46.5879C37.6136 47.5405 40.283 47.1658 40.3348 47.4823C40.3719 47.7088 38.6 48.0676 37.5829 48.2539L37.9893 50.2173L37.6125 50.5041L35.775 44.054C35.75 43.9163 35.7644 43.7743 35.8167 43.6445C35.8689 43.5147 35.9569 43.4023 36.0704 43.3204Z" fill="#EFAC7F"/>
<path d="M99.1572 17.0497C98.0715 17.8617 96.7491 18.2945 95.3934 18.2818C94.8348 18.2811 94.2782 18.2154 93.7348 18.0859C93.7221 17.8912 93.7126 17.6975 93.7041 17.507C94.6366 17.7716 97.0541 18.1897 99.1932 16.3014C99.1862 16.5448 99.1742 16.7943 99.1572 17.0497Z" fill="#D1EAF2"/>
<path d="M93.686 16.2919C93.6913 16.0992 93.7009 15.9108 93.7157 15.7277C94.3126 15.8431 97.307 16.2855 99.1 14.0871C99.1286 14.3337 99.1529 14.5867 99.1688 14.8481C97.8764 16.1268 96.1882 16.3988 94.9869 16.3988C94.551 16.3993 94.1159 16.3636 93.686 16.2919Z" fill="#D1EAF2"/>
</g>
<g filter="url(#filter0_b_206:36102)">
<rect x="13" y="77" width="141" height="77" rx="10" fill="black" fill-opacity="0.8"/>
</g>
<path d="M39.7983 99.324C40.4143 99.4733 40.867 99.7253 41.1563 100.08C41.455 100.425 41.6043 100.883 41.6043 101.452C41.6043 103.197 40.237 104.07 37.5023 104.07C36.6996 104.07 35.8783 104.047 35.0383 104L35.1363 101.312L35.0383 94.984L38.2443 94.97C39.1683 94.97 39.887 95.166 40.4003 95.558C40.9136 95.9407 41.1703 96.496 41.1703 97.224C41.1703 97.7093 41.049 98.134 40.8063 98.498C40.573 98.862 40.237 99.1373 39.7983 99.324ZM39.2243 97.476C39.2243 97.0653 39.103 96.776 38.8603 96.608C38.6176 96.4307 38.193 96.342 37.5863 96.342H36.9003L36.8583 98.792L38.1743 98.834C38.529 98.7407 38.7903 98.5867 38.9583 98.372C39.1356 98.1573 39.2243 97.8587 39.2243 97.476ZM37.8243 102.712C38.4123 102.712 38.865 102.595 39.1823 102.362C39.509 102.129 39.6723 101.793 39.6723 101.354C39.6723 100.691 39.243 100.281 38.3843 100.122L36.8303 100.15L36.8163 101.144L36.8583 102.656C37.185 102.693 37.507 102.712 37.8243 102.712ZM47.8657 100.976L44.0857 101.004C44.1697 102.171 44.7623 102.754 45.8637 102.754C46.4423 102.754 47.0863 102.591 47.7957 102.264L47.9497 102.362L47.6697 103.748C46.9603 104.009 46.293 104.14 45.6677 104.14C44.641 104.14 43.8337 103.841 43.2457 103.244C42.667 102.647 42.3777 101.821 42.3777 100.766C42.3777 99.7207 42.6623 98.8947 43.2317 98.288C43.801 97.672 44.571 97.364 45.5417 97.364C46.3723 97.364 47.0117 97.5927 47.4597 98.05C47.917 98.498 48.1457 99.128 48.1457 99.94C48.1457 100.155 48.1223 100.425 48.0757 100.752L47.8657 100.976ZM46.5217 99.73C46.5217 99.3567 46.4377 99.0767 46.2697 98.89C46.1017 98.694 45.8543 98.596 45.5277 98.596C45.1637 98.596 44.8603 98.7173 44.6177 98.96C44.375 99.1933 44.2117 99.534 44.1277 99.982L46.4937 99.926L46.5217 99.73ZM52.8885 97.406C53.7098 97.406 54.3352 97.686 54.7645 98.246C55.2032 98.7967 55.4225 99.5667 55.4225 100.556C55.4225 101.704 55.1378 102.591 54.5685 103.216C53.9992 103.832 53.2105 104.14 52.2025 104.14C51.7265 104.14 51.2038 104.033 50.6345 103.818L49.6545 104.168L49.4305 103.986L49.5285 101.326L49.4445 94.312L51.2925 94.172L51.2365 98.414H51.3205C51.5818 98.162 51.8338 97.9613 52.0765 97.812C52.3192 97.6533 52.5898 97.518 52.8885 97.406ZM52.2025 102.922C52.6692 102.922 53.0332 102.754 53.2945 102.418C53.5558 102.082 53.6865 101.569 53.6865 100.878C53.6865 100.234 53.5792 99.744 53.3645 99.408C53.1592 99.072 52.8465 98.904 52.4265 98.904C52.0438 98.904 51.6425 99.1 51.2225 99.492L51.1945 101.088L51.2225 102.67C51.5678 102.838 51.8945 102.922 52.2025 102.922ZM61.7426 100.976L57.9626 101.004C58.0466 102.171 58.6393 102.754 59.7406 102.754C60.3193 102.754 60.9633 102.591 61.6726 102.264L61.8266 102.362L61.5466 103.748C60.8373 104.009 60.17 104.14 59.5446 104.14C58.518 104.14 57.7106 103.841 57.1226 103.244C56.544 102.647 56.2546 101.821 56.2546 100.766C56.2546 99.7207 56.5393 98.8947 57.1086 98.288C57.678 97.672 58.448 97.364 59.4186 97.364C60.2493 97.364 60.8886 97.5927 61.3366 98.05C61.794 98.498 62.0226 99.128 62.0226 99.94C62.0226 100.155 61.9993 100.425 61.9526 100.752L61.7426 100.976ZM60.3986 99.73C60.3986 99.3567 60.3146 99.0767 60.1466 98.89C59.9786 98.694 59.7313 98.596 59.4046 98.596C59.0406 98.596 58.7373 98.7173 58.4946 98.96C58.252 99.1933 58.0886 99.534 58.0046 99.982L60.3706 99.926L60.3986 99.73ZM66.9041 97.476C66.9881 97.476 67.1048 97.4853 67.2541 97.504V99.226L67.0581 99.296C66.8995 99.2307 66.7268 99.198 66.5401 99.198C65.9988 99.198 65.5088 99.548 65.0701 100.248V101.13L65.1681 104H63.3061L63.4181 101.312L63.3341 97.616L65.0981 97.462L65.0841 98.736H65.1961C65.6535 97.896 66.2228 97.476 66.9041 97.476ZM72.8545 97.364C73.5731 97.364 74.1331 97.5273 74.5345 97.854C74.9451 98.1713 75.1505 98.6193 75.1505 99.198C75.1505 99.366 75.1225 99.898 75.0665 100.794C75.0571 101.055 75.0431 101.326 75.0245 101.606C75.0058 101.877 74.9965 102.11 74.9965 102.306C74.9965 102.465 75.0198 102.577 75.0665 102.642C75.1131 102.698 75.1971 102.726 75.3185 102.726C75.4118 102.726 75.5331 102.707 75.6825 102.67L75.8225 102.782L75.6545 103.762C75.3558 103.958 75.0151 104.075 74.6325 104.112C74.3525 104.084 74.1191 103.986 73.9325 103.818C73.7458 103.641 73.6198 103.398 73.5545 103.09H73.4565C72.9898 103.585 72.5091 103.93 72.0145 104.126C71.3425 104.117 70.8151 103.939 70.4325 103.594C70.0498 103.249 69.8585 102.777 69.8585 102.18C69.8585 101.713 69.9751 101.349 70.2085 101.088C70.4511 100.817 70.8151 100.635 71.3005 100.542L73.4425 100.136V99.562C73.4425 98.9553 73.1438 98.652 72.5465 98.652C72.2571 98.652 71.9491 98.7173 71.6225 98.848C71.3051 98.9787 70.9458 99.184 70.5445 99.464L70.4045 99.38L70.1945 98.148C70.5958 97.896 71.0251 97.7047 71.4825 97.574C71.9398 97.434 72.3971 97.364 72.8545 97.364ZM71.9445 101.396C71.7951 101.433 71.6831 101.499 71.6085 101.592C71.5431 101.676 71.5105 101.807 71.5105 101.984C71.5105 102.227 71.5758 102.418 71.7065 102.558C71.8371 102.689 72.0191 102.754 72.2525 102.754C72.6165 102.754 72.9991 102.539 73.4005 102.11L73.4285 101.074L71.9445 101.396ZM74.0725 93.878L74.7445 94.886L74.7165 95.068C74.5111 95.1987 74.3571 95.292 74.2545 95.348C73.0878 96.0667 72.3318 96.524 71.9865 96.72L71.8045 96.706L71.3565 96.006C72.4391 95.138 73.2838 94.424 73.8905 93.864L74.0725 93.878ZM83.2907 98.372C83.0387 98.4373 82.6794 98.5073 82.2127 98.582L82.1847 98.638C82.3247 98.918 82.3947 99.2307 82.3947 99.576C82.3947 100.276 82.138 100.836 81.6247 101.256C81.1207 101.667 80.4347 101.872 79.5667 101.872C79.3054 101.872 79.0347 101.849 78.7547 101.802C78.6707 101.886 78.6147 101.951 78.5867 101.998C78.5587 102.045 78.5447 102.101 78.5447 102.166C78.5447 102.334 78.6567 102.451 78.8807 102.516C79.1047 102.581 79.4594 102.647 79.9447 102.712C80.4954 102.777 80.9527 102.857 81.3167 102.95C81.69 103.043 82.0074 103.207 82.2687 103.44C82.5394 103.673 82.6747 104.005 82.6747 104.434C82.6747 104.873 82.5347 105.265 82.2547 105.61C81.984 105.965 81.606 106.24 81.1207 106.436C80.6354 106.632 80.0847 106.73 79.4687 106.73C78.6194 106.73 77.966 106.557 77.5087 106.212C77.0514 105.867 76.8227 105.409 76.8227 104.84C77.112 104.439 77.4994 104.089 77.9847 103.79V103.72C77.6674 103.608 77.42 103.454 77.2427 103.258C77.0654 103.053 76.9767 102.782 76.9767 102.446C77.2287 102.138 77.546 101.853 77.9287 101.592V101.522C77.5927 101.335 77.336 101.093 77.1587 100.794C76.9907 100.486 76.9067 100.127 76.9067 99.716C76.9067 98.988 77.1587 98.4187 77.6627 98.008C78.1667 97.5973 78.8527 97.392 79.7207 97.392C80.2247 97.392 80.682 97.476 81.0927 97.644C81.7647 97.5227 82.4507 97.336 83.1507 97.084L83.2907 97.21V98.372ZM79.6227 100.752C80.0054 100.752 80.2947 100.654 80.4907 100.458C80.6867 100.262 80.7847 99.9773 80.7847 99.604C80.7847 98.8947 80.4207 98.54 79.6927 98.54C78.9087 98.54 78.5167 98.8993 78.5167 99.618C78.5167 99.9913 78.61 100.276 78.7967 100.472C78.9834 100.659 79.2587 100.752 79.6227 100.752ZM81.1067 104.77C81.1067 104.518 80.9714 104.345 80.7007 104.252C80.4394 104.159 80.0334 104.079 79.4827 104.014L79.0067 103.944C78.7827 104.093 78.6147 104.238 78.5027 104.378C78.3907 104.518 78.3347 104.667 78.3347 104.826C78.3347 105.069 78.4467 105.265 78.6707 105.414C78.8947 105.563 79.2214 105.638 79.6507 105.638C80.0894 105.638 80.4394 105.559 80.7007 105.4C80.9714 105.251 81.1067 105.041 81.1067 104.77ZM90.2487 102.782L90.0807 103.762C89.7354 103.986 89.3807 104.103 89.0167 104.112C88.746 104.065 88.522 103.958 88.3447 103.79C88.1674 103.622 88.032 103.379 87.9387 103.062H87.8127C87.2807 103.585 86.73 103.925 86.1607 104.084C85.4514 104.084 84.91 103.925 84.5367 103.608C84.1727 103.281 83.9954 102.815 84.0047 102.208L84.0327 100.556L83.9627 97.616L85.7687 97.462L85.7267 101.592C85.7174 101.919 85.7827 102.166 85.9227 102.334C86.0627 102.502 86.2727 102.586 86.5527 102.586C86.9634 102.586 87.3694 102.404 87.7707 102.04V97.616L89.5487 97.462L89.4227 102.306C89.4227 102.455 89.446 102.563 89.4927 102.628C89.5487 102.693 89.6327 102.726 89.7447 102.726C89.8474 102.726 89.9734 102.707 90.1227 102.67L90.2487 102.782ZM93.9092 97.364C94.6278 97.364 95.1878 97.5273 95.5892 97.854C95.9998 98.1713 96.2052 98.6193 96.2052 99.198C96.2052 99.366 96.1772 99.898 96.1212 100.794C96.1118 101.055 96.0978 101.326 96.0792 101.606C96.0605 101.877 96.0512 102.11 96.0512 102.306C96.0512 102.465 96.0745 102.577 96.1212 102.642C96.1678 102.698 96.2518 102.726 96.3732 102.726C96.4665 102.726 96.5878 102.707 96.7372 102.67L96.8772 102.782L96.7092 103.762C96.4105 103.958 96.0698 104.075 95.6872 104.112C95.4072 104.084 95.1738 103.986 94.9872 103.818C94.8005 103.641 94.6745 103.398 94.6092 103.09H94.5112C94.0445 103.585 93.5638 103.93 93.0692 104.126C92.3972 104.117 91.8698 103.939 91.4872 103.594C91.1045 103.249 90.9132 102.777 90.9132 102.18C90.9132 101.713 91.0298 101.349 91.2632 101.088C91.5058 100.817 91.8698 100.635 92.3552 100.542L94.4972 100.136V99.562C94.4972 98.9553 94.1985 98.652 93.6012 98.652C93.3118 98.652 93.0038 98.7173 92.6772 98.848C92.3598 98.9787 92.0005 99.184 91.5992 99.464L91.4592 99.38L91.2492 98.148C91.6505 97.896 92.0798 97.7047 92.5372 97.574C92.9945 97.434 93.4518 97.364 93.9092 97.364ZM92.9992 101.396C92.8498 101.433 92.7378 101.499 92.6632 101.592C92.5978 101.676 92.5652 101.807 92.5652 101.984C92.5652 102.227 92.6305 102.418 92.7612 102.558C92.8918 102.689 93.0738 102.754 93.3072 102.754C93.6712 102.754 94.0538 102.539 94.4552 102.11L94.4832 101.074L92.9992 101.396ZM102.769 97.364C103.487 97.364 104.047 97.5273 104.449 97.854C104.859 98.1713 105.065 98.6193 105.065 99.198C105.065 99.366 105.037 99.898 104.981 100.794C104.971 101.055 104.957 101.326 104.939 101.606C104.92 101.877 104.911 102.11 104.911 102.306C104.911 102.465 104.934 102.577 104.981 102.642C105.027 102.698 105.111 102.726 105.233 102.726C105.326 102.726 105.447 102.707 105.597 102.67L105.737 102.782L105.569 103.762C105.27 103.958 104.929 104.075 104.547 104.112C104.267 104.084 104.033 103.986 103.847 103.818C103.66 103.641 103.534 103.398 103.469 103.09H103.371C102.904 103.585 102.423 103.93 101.929 104.126C101.257 104.117 100.729 103.939 100.347 103.594C99.9639 103.249 99.7725 102.777 99.7725 102.18C99.7725 101.713 99.8892 101.349 100.123 101.088C100.365 100.817 100.729 100.635 101.215 100.542L103.357 100.136V99.562C103.357 98.9553 103.058 98.652 102.461 98.652C102.171 98.652 101.863 98.7173 101.537 98.848C101.219 98.9787 100.86 99.184 100.459 99.464L100.319 99.38L100.109 98.148C100.51 97.896 100.939 97.7047 101.397 97.574C101.854 97.434 102.311 97.364 102.769 97.364ZM101.859 101.396C101.709 101.433 101.597 101.499 101.523 101.592C101.457 101.676 101.425 101.807 101.425 101.984C101.425 102.227 101.49 102.418 101.621 102.558C101.751 102.689 101.933 102.754 102.167 102.754C102.531 102.754 102.913 102.539 103.315 102.11L103.343 101.074L101.859 101.396ZM110.869 99.94C110.878 99.6133 110.803 99.3613 110.645 99.184C110.495 98.9973 110.276 98.904 109.987 98.904C109.567 98.904 109.119 99.1047 108.643 99.506V101.13L108.727 104H106.865L106.963 101.312L106.893 97.616L108.657 97.462V98.414H108.755C109.268 97.9473 109.828 97.6113 110.435 97.406C111.144 97.406 111.685 97.5693 112.059 97.896C112.432 98.2133 112.609 98.6753 112.591 99.282L112.549 101.144L112.633 104H110.757L110.869 99.94ZM116.907 102.628C117.206 102.628 117.518 102.549 117.845 102.39L117.999 102.53L117.817 103.636C117.341 103.879 116.856 104.028 116.361 104.084C115.101 103.953 114.471 103.337 114.471 102.236L114.541 101.074L114.527 98.666H113.659L113.589 98.568L113.687 97.546H114.513V96.468L116.207 95.922L116.333 96.034L116.291 97.546H117.957L118.013 97.644L117.929 98.666H116.263L116.179 101.802C116.179 102.101 116.235 102.315 116.347 102.446C116.459 102.567 116.646 102.628 116.907 102.628ZM123.95 100.976L120.17 101.004C120.254 102.171 120.846 102.754 121.948 102.754C122.526 102.754 123.17 102.591 123.88 102.264L124.034 102.362L123.754 103.748C123.044 104.009 122.377 104.14 121.752 104.14C120.725 104.14 119.918 103.841 119.33 103.244C118.751 102.647 118.462 101.821 118.462 100.766C118.462 99.7207 118.746 98.8947 119.316 98.288C119.885 97.672 120.655 97.364 121.626 97.364C122.456 97.364 123.096 97.5927 123.544 98.05C124.001 98.498 124.23 99.128 124.23 99.94C124.23 100.155 124.206 100.425 124.16 100.752L123.95 100.976ZM122.606 99.73C122.606 99.3567 122.522 99.0767 122.354 98.89C122.186 98.694 121.938 98.596 121.612 98.596C121.248 98.596 120.944 98.7173 120.702 98.96C120.459 99.1933 120.296 99.534 120.212 99.982L122.578 99.926L122.606 99.73ZM127.697 97.378C128.332 97.378 128.929 97.4853 129.489 97.7L129.237 99.072L129.013 99.142C128.743 98.9647 128.472 98.8293 128.201 98.736C127.931 98.6427 127.693 98.596 127.487 98.596C127.263 98.596 127.086 98.6567 126.955 98.778C126.825 98.89 126.759 99.03 126.759 99.198C126.759 99.394 126.843 99.5527 127.011 99.674C127.189 99.7953 127.464 99.9307 127.837 100.08C128.211 100.229 128.519 100.374 128.761 100.514C129.004 100.654 129.209 100.85 129.377 101.102C129.555 101.345 129.643 101.648 129.643 102.012C129.643 102.385 129.545 102.735 129.349 103.062C129.163 103.379 128.873 103.641 128.481 103.846C128.089 104.042 127.609 104.14 127.039 104.14C126.367 104.14 125.672 104 124.953 103.72L125.163 102.264L125.345 102.152C125.635 102.395 125.957 102.591 126.311 102.74C126.666 102.88 126.979 102.95 127.249 102.95C127.501 102.95 127.697 102.889 127.837 102.768C127.977 102.637 128.047 102.483 128.047 102.306C128.047 102.11 127.959 101.951 127.781 101.83C127.613 101.709 127.343 101.573 126.969 101.424C126.587 101.256 126.274 101.107 126.031 100.976C125.789 100.836 125.579 100.64 125.401 100.388C125.233 100.136 125.149 99.8233 125.149 99.45C125.149 98.8433 125.378 98.3487 125.835 97.966C126.293 97.574 126.913 97.378 127.697 97.378ZM131.856 102.152C132.276 102.488 132.486 102.889 132.486 103.356C132.486 104.168 131.922 104.975 130.792 105.778L130.19 105.246L130.176 105.106C130.69 104.677 130.946 104.219 130.946 103.734C130.946 103.417 130.797 103.137 130.498 102.894L130.512 102.74C130.942 102.479 131.39 102.283 131.856 102.152ZM35.2626 117.13L35.3046 118.306C35.3046 118.465 35.3232 118.577 35.3606 118.642C35.4072 118.698 35.4866 118.726 35.5986 118.726C35.7012 118.726 35.8272 118.707 35.9766 118.67L36.1026 118.782L35.9486 119.762C35.6312 119.958 35.2859 120.075 34.9126 120.112C34.6232 120.084 34.3806 119.986 34.1846 119.818C33.9886 119.65 33.8532 119.421 33.7786 119.132H33.6666C33.2092 119.552 32.7426 119.874 32.2666 120.098C31.3519 120.098 30.6426 119.809 30.1386 119.23C29.6346 118.642 29.3826 117.83 29.3826 116.794C29.3826 115.693 29.6719 114.848 30.2506 114.26C30.8292 113.672 31.6319 113.378 32.6586 113.378C32.9292 113.378 33.2279 113.406 33.5546 113.462L33.5266 110.312L35.3746 110.172L35.2626 117.13ZM32.5326 114.638C31.5992 114.638 31.1326 115.231 31.1326 116.416C31.1326 117.153 31.2446 117.709 31.4686 118.082C31.6926 118.455 32.0192 118.642 32.4486 118.642C32.8592 118.642 33.2372 118.451 33.5826 118.068L33.6106 117.298L33.5686 114.89C33.2046 114.722 32.8592 114.638 32.5326 114.638ZM43.4157 118.782L43.2477 119.762C42.9024 119.986 42.5477 120.103 42.1837 120.112C41.913 120.065 41.689 119.958 41.5117 119.79C41.3344 119.622 41.199 119.379 41.1057 119.062H40.9797C40.4477 119.585 39.897 119.925 39.3277 120.084C38.6184 120.084 38.077 119.925 37.7037 119.608C37.3397 119.281 37.1624 118.815 37.1717 118.208L37.1997 116.556L37.1297 113.616L38.9357 113.462L38.8937 117.592C38.8844 117.919 38.9497 118.166 39.0897 118.334C39.2297 118.502 39.4397 118.586 39.7197 118.586C40.1304 118.586 40.5364 118.404 40.9377 118.04V113.616L42.7157 113.462L42.5897 118.306C42.5897 118.455 42.613 118.563 42.6597 118.628C42.7157 118.693 42.7997 118.726 42.9117 118.726C43.0144 118.726 43.1404 118.707 43.2897 118.67L43.4157 118.782ZM48.0301 113.476C48.1141 113.476 48.2308 113.485 48.3801 113.504V115.226L48.1841 115.296C48.0255 115.231 47.8528 115.198 47.6661 115.198C47.1248 115.198 46.6348 115.548 46.1961 116.248V117.13L46.2941 120H44.4321L44.5441 117.312L44.4601 113.616L46.2241 113.462L46.2101 114.736H46.3221C46.7795 113.896 47.3488 113.476 48.0301 113.476ZM51.7246 113.364C52.4433 113.364 53.0033 113.527 53.4046 113.854C53.8153 114.171 54.0206 114.619 54.0206 115.198C54.0206 115.366 53.9926 115.898 53.9366 116.794C53.9273 117.055 53.9133 117.326 53.8946 117.606C53.8759 117.877 53.8666 118.11 53.8666 118.306C53.8666 118.465 53.8899 118.577 53.9366 118.642C53.9833 118.698 54.0673 118.726 54.1886 118.726C54.2819 118.726 54.4033 118.707 54.5526 118.67L54.6926 118.782L54.5246 119.762C54.2259 119.958 53.8853 120.075 53.5026 120.112C53.2226 120.084 52.9893 119.986 52.8026 119.818C52.6159 119.641 52.4899 119.398 52.4246 119.09H52.3266C51.8599 119.585 51.3793 119.93 50.8846 120.126C50.2126 120.117 49.6853 119.939 49.3026 119.594C48.9199 119.249 48.7286 118.777 48.7286 118.18C48.7286 117.713 48.8453 117.349 49.0786 117.088C49.3213 116.817 49.6853 116.635 50.1706 116.542L52.3126 116.136V115.562C52.3126 114.955 52.0139 114.652 51.4166 114.652C51.1273 114.652 50.8193 114.717 50.4926 114.848C50.1753 114.979 49.8159 115.184 49.4146 115.464L49.2746 115.38L49.0646 114.148C49.4659 113.896 49.8953 113.705 50.3526 113.574C50.8099 113.434 51.2673 113.364 51.7246 113.364ZM50.8146 117.396C50.6653 117.433 50.5533 117.499 50.4786 117.592C50.4133 117.676 50.3806 117.807 50.3806 117.984C50.3806 118.227 50.4459 118.418 50.5766 118.558C50.7073 118.689 50.8893 118.754 51.1226 118.754C51.4866 118.754 51.8693 118.539 52.2706 118.11L52.2986 117.074L50.8146 117.396ZM59.8248 115.94C59.8341 115.613 59.7595 115.361 59.6008 115.184C59.4515 114.997 59.2321 114.904 58.9428 114.904C58.5228 114.904 58.0748 115.105 57.5988 115.506V117.13L57.6828 120H55.8208L55.9188 117.312L55.8488 113.616L57.6128 113.462V114.414H57.7108C58.2241 113.947 58.7841 113.611 59.3908 113.406C60.1001 113.406 60.6415 113.569 61.0148 113.896C61.3881 114.213 61.5655 114.675 61.5468 115.282L61.5048 117.144L61.5888 120H59.7128L59.8248 115.94ZM65.863 118.628C66.1616 118.628 66.4743 118.549 66.801 118.39L66.955 118.53L66.773 119.636C66.297 119.879 65.8116 120.028 65.317 120.084C64.057 119.953 63.427 119.337 63.427 118.236L63.497 117.074L63.483 114.666H62.615L62.545 114.568L62.643 113.546H63.469V112.468L65.163 111.922L65.289 112.034L65.247 113.546H66.913L66.969 113.644L66.885 114.666H65.219L65.135 117.802C65.135 118.101 65.191 118.315 65.303 118.446C65.415 118.567 65.6016 118.628 65.863 118.628ZM72.9057 116.976L69.1257 117.004C69.2097 118.171 69.8024 118.754 70.9037 118.754C71.4824 118.754 72.1264 118.591 72.8357 118.264L72.9897 118.362L72.7097 119.748C72.0004 120.009 71.3331 120.14 70.7077 120.14C69.6811 120.14 68.8737 119.841 68.2857 119.244C67.7071 118.647 67.4177 117.821 67.4177 116.766C67.4177 115.721 67.7024 114.895 68.2717 114.288C68.8411 113.672 69.6111 113.364 70.5817 113.364C71.4124 113.364 72.0517 113.593 72.4997 114.05C72.9571 114.498 73.1857 115.128 73.1857 115.94C73.1857 116.155 73.1624 116.425 73.1157 116.752L72.9057 116.976ZM71.5617 115.73C71.5617 115.357 71.4777 115.077 71.3097 114.89C71.1417 114.694 70.8944 114.596 70.5677 114.596C70.2037 114.596 69.9004 114.717 69.6577 114.96C69.4151 115.193 69.2517 115.534 69.1677 115.982L71.5337 115.926L71.5617 115.73ZM81.6284 116.976L77.8484 117.004C77.9324 118.171 78.525 118.754 79.6264 118.754C80.205 118.754 80.849 118.591 81.5584 118.264L81.7124 118.362L81.4324 119.748C80.723 120.009 80.0557 120.14 79.4304 120.14C78.4037 120.14 77.5964 119.841 77.0084 119.244C76.4297 118.647 76.1404 117.821 76.1404 116.766C76.1404 115.721 76.425 114.895 76.9944 114.288C77.5637 113.672 78.3337 113.364 79.3044 113.364C80.135 113.364 80.7744 113.593 81.2224 114.05C81.6797 114.498 81.9084 115.128 81.9084 115.94C81.9084 116.155 81.885 116.425 81.8384 116.752L81.6284 116.976ZM80.2844 115.73C80.2844 115.357 80.2004 115.077 80.0324 114.89C79.8644 114.694 79.617 114.596 79.2904 114.596C78.9264 114.596 78.623 114.717 78.3804 114.96C78.1377 115.193 77.9744 115.534 77.8904 115.982L80.2564 115.926L80.2844 115.73ZM90.743 117.13L90.785 118.306C90.785 118.465 90.8037 118.577 90.841 118.642C90.8877 118.698 90.967 118.726 91.079 118.726C91.1817 118.726 91.3077 118.707 91.457 118.67L91.583 118.782L91.429 119.762C91.1117 119.958 90.7664 120.075 90.393 120.112C90.1037 120.084 89.861 119.986 89.665 119.818C89.469 119.65 89.3337 119.421 89.259 119.132H89.147C88.6897 119.552 88.223 119.874 87.747 120.098C86.8324 120.098 86.123 119.809 85.619 119.23C85.115 118.642 84.863 117.83 84.863 116.794C84.863 115.693 85.1524 114.848 85.731 114.26C86.3097 113.672 87.1124 113.378 88.139 113.378C88.4097 113.378 88.7084 113.406 89.035 113.462L89.007 110.312L90.855 110.172L90.743 117.13ZM88.013 114.638C87.0797 114.638 86.613 115.231 86.613 116.416C86.613 117.153 86.725 117.709 86.949 118.082C87.173 118.455 87.4997 118.642 87.929 118.642C88.3397 118.642 88.7177 118.451 89.063 118.068L89.091 117.298L89.049 114.89C88.685 114.722 88.3397 114.638 88.013 114.638ZM97.7202 116.976L93.9402 117.004C94.0242 118.171 94.6168 118.754 95.7182 118.754C96.2968 118.754 96.9408 118.591 97.6502 118.264L97.8042 118.362L97.5242 119.748C96.8148 120.009 96.1475 120.14 95.5222 120.14C94.4955 120.14 93.6882 119.841 93.1002 119.244C92.5215 118.647 92.2322 117.821 92.2322 116.766C92.2322 115.721 92.5168 114.895 93.0862 114.288C93.6555 113.672 94.4255 113.364 95.3962 113.364C96.2268 113.364 96.8662 113.593 97.3142 114.05C97.7715 114.498 98.0002 115.128 98.0002 115.94C98.0002 116.155 97.9768 116.425 97.9302 116.752L97.7202 116.976ZM96.3762 115.73C96.3762 115.357 96.2922 115.077 96.1242 114.89C95.9562 114.694 95.7088 114.596 95.3822 114.596C95.0182 114.596 94.7148 114.717 94.4722 114.96C94.2295 115.193 94.0662 115.534 93.9822 115.982L96.3482 115.926L96.3762 115.73ZM102.728 113.406C103.54 113.406 104.165 113.681 104.604 114.232C105.042 114.783 105.262 115.562 105.262 116.57C105.262 117.709 104.977 118.591 104.408 119.216C103.848 119.832 103.054 120.14 102.028 120.14C101.729 120.14 101.416 120.112 101.09 120.056L101.132 122.59H99.2837L99.3817 117.312L99.2977 113.616L101.076 113.462L101.062 114.414H101.16C101.421 114.162 101.673 113.961 101.916 113.812C102.158 113.653 102.429 113.518 102.728 113.406ZM102.042 118.922C102.527 118.922 102.896 118.749 103.148 118.404C103.4 118.059 103.526 117.55 103.526 116.878C103.526 116.225 103.418 115.735 103.204 115.408C102.998 115.072 102.69 114.904 102.28 114.904C101.878 114.904 101.472 115.105 101.062 115.506L101.048 117.13L101.076 118.712C101.412 118.852 101.734 118.922 102.042 118.922ZM109.232 113.364C110.184 113.364 110.912 113.644 111.416 114.204C111.92 114.764 112.172 115.571 112.172 116.626C112.172 117.765 111.901 118.637 111.36 119.244C110.818 119.841 110.039 120.14 109.022 120.14C108.07 120.14 107.342 119.86 106.838 119.3C106.334 118.74 106.082 117.933 106.082 116.878C106.082 115.739 106.352 114.871 106.894 114.274C107.435 113.667 108.214 113.364 109.232 113.364ZM109.106 114.624C108.658 114.624 108.331 114.773 108.126 115.072C107.93 115.371 107.832 115.851 107.832 116.514C107.832 117.373 107.934 117.984 108.14 118.348C108.345 118.712 108.681 118.894 109.148 118.894C109.596 118.894 109.918 118.749 110.114 118.46C110.319 118.161 110.422 117.676 110.422 117.004C110.422 116.155 110.314 115.548 110.1 115.184C109.894 114.811 109.563 114.624 109.106 114.624ZM113.574 117.312L113.504 113.616L115.338 113.462L115.254 117.13L115.338 120H113.476L113.574 117.312ZM114.456 110.298C114.745 110.298 114.969 110.382 115.128 110.55C115.296 110.718 115.38 110.951 115.38 111.25C115.38 111.567 115.291 111.819 115.114 112.006C114.936 112.193 114.694 112.286 114.386 112.286C114.078 112.286 113.84 112.202 113.672 112.034C113.513 111.866 113.434 111.628 113.434 111.32C113.434 111.012 113.522 110.765 113.7 110.578C113.886 110.391 114.138 110.298 114.456 110.298ZM119.282 113.378C119.917 113.378 120.514 113.485 121.074 113.7L120.822 115.072L120.598 115.142C120.327 114.965 120.057 114.829 119.786 114.736C119.515 114.643 119.277 114.596 119.072 114.596C118.848 114.596 118.671 114.657 118.54 114.778C118.409 114.89 118.344 115.03 118.344 115.198C118.344 115.394 118.428 115.553 118.596 115.674C118.773 115.795 119.049 115.931 119.422 116.08C119.795 116.229 120.103 116.374 120.346 116.514C120.589 116.654 120.794 116.85 120.962 117.102C121.139 117.345 121.228 117.648 121.228 118.012C121.228 118.385 121.13 118.735 120.934 119.062C120.747 119.379 120.458 119.641 120.066 119.846C119.674 120.042 119.193 120.14 118.624 120.14C117.952 120.14 117.257 120 116.538 119.72L116.748 118.264L116.93 118.152C117.219 118.395 117.541 118.591 117.896 118.74C118.251 118.88 118.563 118.95 118.834 118.95C119.086 118.95 119.282 118.889 119.422 118.768C119.562 118.637 119.632 118.483 119.632 118.306C119.632 118.11 119.543 117.951 119.366 117.83C119.198 117.709 118.927 117.573 118.554 117.424C118.171 117.256 117.859 117.107 117.616 116.976C117.373 116.836 117.163 116.64 116.986 116.388C116.818 116.136 116.734 115.823 116.734 115.45C116.734 114.843 116.963 114.349 117.42 113.966C117.877 113.574 118.498 113.378 119.282 113.378ZM130.022 117.13L130.064 118.306C130.064 118.465 130.083 118.577 130.12 118.642C130.167 118.698 130.246 118.726 130.358 118.726C130.461 118.726 130.587 118.707 130.736 118.67L130.862 118.782L130.708 119.762C130.391 119.958 130.046 120.075 129.672 120.112C129.383 120.084 129.14 119.986 128.944 119.818C128.748 119.65 128.613 119.421 128.538 119.132H128.426C127.969 119.552 127.502 119.874 127.026 120.098C126.112 120.098 125.402 119.809 124.898 119.23C124.394 118.642 124.142 117.83 124.142 116.794C124.142 115.693 124.432 114.848 125.01 114.26C125.589 113.672 126.392 113.378 127.418 113.378C127.689 113.378 127.988 113.406 128.314 113.462L128.286 110.312L130.134 110.172L130.022 117.13ZM127.292 114.638C126.359 114.638 125.892 115.231 125.892 116.416C125.892 117.153 126.004 117.709 126.228 118.082C126.452 118.455 126.779 118.642 127.208 118.642C127.619 118.642 127.997 118.451 128.342 118.068L128.37 117.298L128.328 114.89C127.964 114.722 127.619 114.638 127.292 114.638ZM134.661 113.364C135.613 113.364 136.341 113.644 136.845 114.204C137.349 114.764 137.601 115.571 137.601 116.626C137.601 117.765 137.331 118.637 136.789 119.244C136.248 119.841 135.469 120.14 134.451 120.14C133.499 120.14 132.771 119.86 132.267 119.3C131.763 118.74 131.511 117.933 131.511 116.878C131.511 115.739 131.782 114.871 132.323 114.274C132.865 113.667 133.644 113.364 134.661 113.364ZM134.535 114.624C134.087 114.624 133.761 114.773 133.555 115.072C133.359 115.371 133.261 115.851 133.261 116.514C133.261 117.373 133.364 117.984 133.569 118.348C133.775 118.712 134.111 118.894 134.577 118.894C135.025 118.894 135.347 118.749 135.543 118.46C135.749 118.161 135.851 117.676 135.851 117.004C135.851 116.155 135.744 115.548 135.529 115.184C135.324 114.811 134.993 114.624 134.535 114.624ZM64.7436 132.976L60.9636 133.004C61.0476 134.171 61.6403 134.754 62.7416 134.754C63.3203 134.754 63.9643 134.591 64.6736 134.264L64.8276 134.362L64.5476 135.748C63.8383 136.009 63.1709 136.14 62.5456 136.14C61.5189 136.14 60.7116 135.841 60.1236 135.244C59.5449 134.647 59.2556 133.821 59.2556 132.766C59.2556 131.721 59.5403 130.895 60.1096 130.288C60.6789 129.672 61.4489 129.364 62.4196 129.364C63.2503 129.364 63.8896 129.593 64.3376 130.05C64.7949 130.498 65.0236 131.128 65.0236 131.94C65.0236 132.155 65.0003 132.425 64.9536 132.752L64.7436 132.976ZM63.3996 131.73C63.3996 131.357 63.3156 131.077 63.1476 130.89C62.9796 130.694 62.7323 130.596 62.4056 130.596C62.0416 130.596 61.7383 130.717 61.4956 130.96C61.2529 131.193 61.0896 131.534 61.0056 131.982L63.3716 131.926L63.3996 131.73ZM67.9171 130.218L68.8131 131.674L69.6951 130.162L70.0451 129.504H71.6831L69.8071 132.696L71.7671 135.944L69.8071 136.084L69.4851 135.258L68.5611 133.76L67.5951 135.342L67.2871 136H65.6491L67.5391 132.738L65.6351 129.546L67.6231 129.448L67.9171 130.218ZM77.5815 132.976L73.8015 133.004C73.8855 134.171 74.4782 134.754 75.5795 134.754C76.1582 134.754 76.8022 134.591 77.5115 134.264L77.6655 134.362L77.3855 135.748C76.6762 136.009 76.0088 136.14 75.3835 136.14C74.3568 136.14 73.5495 135.841 72.9615 135.244C72.3828 134.647 72.0935 133.821 72.0935 132.766C72.0935 131.721 72.3782 130.895 72.9475 130.288C73.5168 129.672 74.2868 129.364 75.2575 129.364C76.0882 129.364 76.7275 129.593 77.1755 130.05C77.6328 130.498 77.8615 131.128 77.8615 131.94C77.8615 132.155 77.8382 132.425 77.7915 132.752L77.5815 132.976ZM76.2375 131.73C76.2375 131.357 76.1535 131.077 75.9855 130.89C75.8175 130.694 75.5702 130.596 75.2435 130.596C74.8795 130.596 74.5762 130.717 74.3335 130.96C74.0908 131.193 73.9275 131.534 73.8435 131.982L76.2095 131.926L76.2375 131.73ZM82.743 129.476C82.827 129.476 82.9437 129.485 83.093 129.504V131.226L82.897 131.296C82.7383 131.231 82.5657 131.198 82.379 131.198C81.8377 131.198 81.3477 131.548 80.909 132.248V133.13L81.007 136H79.145L79.257 133.312L79.173 129.616L80.937 129.462L80.923 130.736H81.035C81.4923 129.896 82.0617 129.476 82.743 129.476ZM86.6862 129.364C86.9942 129.364 87.2975 129.397 87.5962 129.462C87.9042 129.518 88.1749 129.602 88.4082 129.714L88.1002 131.198L87.9462 131.268C87.4702 131.007 87.0455 130.876 86.6722 130.876C86.2429 130.876 85.9115 131.03 85.6782 131.338C85.4449 131.646 85.3282 132.085 85.3282 132.654C85.3282 133.307 85.4542 133.807 85.7062 134.152C85.9582 134.497 86.3175 134.67 86.7842 134.67C87.2042 134.67 87.6709 134.553 88.1842 134.32L88.3242 134.432L88.1422 135.874C87.5822 136.051 87.0082 136.14 86.4202 136.14C85.5242 136.14 84.8242 135.851 84.3202 135.272C83.8162 134.684 83.5642 133.867 83.5642 132.822C83.5642 131.739 83.8395 130.895 84.3902 130.288C84.9409 129.672 85.7062 129.364 86.6862 129.364ZM89.5249 133.312L89.4549 129.616L91.2889 129.462L91.2049 133.13L91.2889 136H89.4269L89.5249 133.312ZM91.7229 125.878L92.3949 126.886L92.3669 127.068C92.1616 127.199 92.0076 127.292 91.9049 127.348C90.7383 128.067 89.9823 128.524 89.6369 128.72L89.4549 128.706L89.0069 128.006C90.0896 127.138 90.9343 126.424 91.5409 125.864L91.7229 125.878ZM95.7233 129.364C96.0313 129.364 96.3346 129.397 96.6333 129.462C96.9413 129.518 97.212 129.602 97.4453 129.714L97.1373 131.198L96.9833 131.268C96.5073 131.007 96.0826 130.876 95.7093 130.876C95.28 130.876 94.9486 131.03 94.7153 131.338C94.482 131.646 94.3653 132.085 94.3653 132.654C94.3653 133.307 94.4913 133.807 94.7433 134.152C94.9953 134.497 95.3546 134.67 95.8213 134.67C96.2413 134.67 96.708 134.553 97.2213 134.32L97.3613 134.432L97.1793 135.874C96.6193 136.051 96.0453 136.14 95.4573 136.14C94.5613 136.14 93.8613 135.851 93.3573 135.272C92.8533 134.684 92.6013 133.867 92.6013 132.822C92.6013 131.739 92.8766 130.895 93.4273 130.288C93.978 129.672 94.7433 129.364 95.7233 129.364ZM98.562 133.312L98.492 129.616L100.326 129.462L100.242 133.13L100.326 136H98.464L98.562 133.312ZM99.444 126.298C99.7334 126.298 99.9574 126.382 100.116 126.55C100.284 126.718 100.368 126.951 100.368 127.25C100.368 127.567 100.279 127.819 100.102 128.006C99.9247 128.193 99.682 128.286 99.374 128.286C99.066 128.286 98.828 128.202 98.66 128.034C98.5014 127.866 98.422 127.628 98.422 127.32C98.422 127.012 98.5107 126.765 98.688 126.578C98.8747 126.391 99.1267 126.298 99.444 126.298ZM104.788 129.364C105.74 129.364 106.468 129.644 106.972 130.204C107.476 130.764 107.728 131.571 107.728 132.626C107.728 133.765 107.458 134.637 106.916 135.244C106.375 135.841 105.596 136.14 104.578 136.14C103.626 136.14 102.898 135.86 102.394 135.3C101.89 134.74 101.638 133.933 101.638 132.878C101.638 131.739 101.909 130.871 102.45 130.274C102.992 129.667 103.771 129.364 104.788 129.364ZM104.662 130.624C104.214 130.624 103.888 130.773 103.682 131.072C103.486 131.371 103.388 131.851 103.388 132.514C103.388 133.373 103.491 133.984 103.696 134.348C103.902 134.712 104.238 134.894 104.704 134.894C105.152 134.894 105.474 134.749 105.67 134.46C105.876 134.161 105.978 133.676 105.978 133.004C105.978 132.155 105.871 131.548 105.656 131.184C105.451 130.811 105.12 130.624 104.662 130.624Z" fill="white"/>
<defs>
<filter id="filter0_b_206:36102" x="3" y="67" width="161" height="97" filterUnits="userSpaceOnUse" color-interpolation-filters="sRGB">
<feFlood flood-opacity="0" result="BackgroundImageFix"/>
<feGaussianBlur in="BackgroundImage" stdDeviation="5"/>
<feComposite in2="SourceAlpha" operator="in" result="effect1_backgroundBlur_206:36102"/>
<feBlend mode="normal" in="SourceGraphic" in2="effect1_backgroundBlur_206:36102" result="shape"/>
</filter>
</defs>
</svg>
