<svg width="167" height="167" viewBox="0 0 167 167" fill="none" xmlns="http://www.w3.org/2000/svg">
<mask id="mask0_206:36722" style="mask-type:alpha" maskUnits="userSpaceOnUse" x="0" y="0" width="167" height="167">
<rect x="1" y="1" width="165" height="165" rx="8" fill="#5988D6" stroke="#EDE6FC" stroke-opacity="0.3"/>
</mask>
<g mask="url(#mask0_206:36722)">
<rect x="1" y="1" width="165" height="165" rx="8" fill="#D97A7A" stroke="#EDE6FC" stroke-opacity="0.3"/>
<path d="M42.2035 60.0225C42.4933 59.763 42.7075 59.4299 42.8233 59.0585C42.9391 58.6871 42.9523 58.2913 42.8613 57.9131C42.6226 58.3853 42.2424 58.7713 41.7739 59.0172C41.2841 59.212 40.5902 58.9575 40.547 58.4297C40.515 58.0216 40.8695 57.7003 41.1163 57.3724C41.3969 56.9864 41.562 56.5287 41.5924 56.0525C41.6227 55.5763 41.5171 55.1012 41.2878 54.6828C40.7705 53.7665 39.7464 53.2864 38.8728 52.6964C37.619 51.8096 36.6249 50.604 35.9932 49.2043C35.3615 47.8045 35.1152 46.2615 35.2797 44.7346L36.761 37.3012C40.6215 37.522 44.1973 39.6754 46.7485 42.5815C49.2997 45.4876 50.9364 49.0713 52.1467 52.7519C52.537 53.8086 52.7857 54.9123 52.8864 56.0343C52.9831 57.1664 52.698 58.2983 52.0764 59.2494C51.6329 59.0514 51.2432 58.7502 50.9398 58.3708C50.6365 57.9914 50.4283 57.545 50.3327 57.0687C49.7854 57.7718 49.1017 58.357 48.3226 58.7894C47.5436 59.2217 46.6853 59.4922 45.7991 59.5847L45.901 57.8055C45.4806 58.4194 44.9326 58.9353 44.2944 59.3179C43.6563 59.7005 42.9431 59.9409 42.2035 60.0225Z" fill="#E0E0E0"/>
<path d="M50.8497 33.9782C49.8446 33.1283 48.5931 32.6235 47.2795 32.5383C45.9659 32.4531 44.6597 32.7919 43.5532 33.5049L36.3539 38.1263C33.6285 40.485 35.2271 45.2383 37.6952 47.8607C40.4424 50.7727 43.4195 53.7634 45.92 55.4564C50.9502 58.853 54.6431 56.0178 54.6431 56.0178L58.0132 59.1526L64.7895 63.3271L64.9987 49.0636L50.9212 33.9934C50.8476 33.9389 50.9568 34.0615 50.8497 33.9782Z" fill="#FFBE9D"/>
<path d="M42.7701 50.6848C42.9149 50.8226 43.1077 50.8987 43.3076 50.897C43.5075 50.8953 43.6989 50.816 43.8414 50.6757C43.9139 50.6092 43.9723 50.529 44.0134 50.4396C44.0544 50.3503 44.0772 50.2536 44.0804 50.1553C44.0836 50.0571 44.0672 49.9591 44.0321 49.8673C43.997 49.7754 43.944 49.6915 43.876 49.6204C43.7305 49.4827 43.537 49.4071 43.3367 49.4097C43.1363 49.4123 42.9449 49.4929 42.803 49.6344C42.7307 49.7005 42.6725 49.7805 42.6316 49.8695C42.5908 49.9585 42.5682 50.0548 42.5651 50.1527C42.562 50.2505 42.5786 50.3481 42.6138 50.4395C42.649 50.5308 42.7022 50.6142 42.7701 50.6848Z" fill="#263238"/>
<path d="M40.0347 48.8066C40.1738 48.8026 40.2557 48.0839 40.8229 47.4827C41.3901 46.8814 42.1046 46.7195 42.0939 46.5835C42.0832 46.4474 41.888 46.4694 41.5642 46.5269C41.1386 46.6197 40.7519 46.8411 40.4564 47.1611C40.162 47.4756 39.975 47.8754 39.9221 48.3029C39.893 48.6225 39.9658 48.8144 40.0347 48.8066Z" fill="#263238"/>
<path d="M46.9313 45.0707C47.0769 45.2084 47.2703 45.284 47.4707 45.2814C47.671 45.2788 47.8625 45.1982 48.0044 45.0567C48.0767 44.9909 48.1351 44.9114 48.1762 44.8227C48.2173 44.734 48.2403 44.638 48.2438 44.5403C48.2473 44.4427 48.2313 44.3453 48.1966 44.2539C48.162 44.1625 48.1094 44.0789 48.042 44.0081C47.8972 43.8703 47.7045 43.7941 47.5046 43.7958C47.3047 43.7975 47.1132 43.8769 46.9708 44.0172C46.8983 44.0833 46.8397 44.1632 46.7983 44.2522C46.757 44.3412 46.7339 44.4376 46.7302 44.5357C46.7265 44.6337 46.7424 44.7315 46.777 44.8234C46.8115 44.9152 46.864 44.9993 46.9313 45.0707Z" fill="#263238"/>
<path d="M45.3855 43.0561C45.5246 43.052 45.6112 42.3352 46.1736 41.7322C46.736 41.1291 47.4602 40.9708 47.4447 40.833C47.4291 40.6951 47.2454 40.7159 46.9149 40.7764C46.488 40.8656 46.1002 41.0876 45.8071 41.4106C45.5131 41.7252 45.3246 42.1237 45.268 42.5506C45.2486 42.8738 45.3196 43.0705 45.3855 43.0561Z" fill="#263238"/>
<path d="M48.3797 49.378C47.9801 49.6003 47.6113 49.8741 47.2829 50.1925C47.1267 50.3333 46.9582 50.4477 46.8294 50.3785C46.7006 50.3093 46.578 50.0882 46.474 49.8463L45.7222 48.2935C44.6461 46.0934 43.6957 44.3467 43.6077 44.3915C43.5197 44.4363 44.3225 46.2555 45.4197 48.4579L46.1914 50.0015C46.2891 50.2723 46.4777 50.5009 46.7249 50.6484C46.8002 50.6775 46.8812 50.6886 46.9615 50.6808C47.0418 50.6729 47.1191 50.6464 47.1874 50.6033C47.2895 50.5386 47.384 50.4624 47.4688 50.3762C47.8122 50.082 48.1181 49.7468 48.3797 49.378Z" fill="#263238"/>
<path d="M58.5036 48.7465C58.5036 48.7465 60.1879 52.9808 55.6821 56.9823L54.6479 56.0195C56.5829 53.9998 57.9179 51.4816 58.5036 48.7465Z" fill="#EB996E"/>
<path d="M43.3782 40.8283C43.6015 40.9102 44.0823 40.2442 44.8302 39.6157C45.5781 38.9871 46.306 38.5934 46.2475 38.3627C46.2195 38.2589 45.9723 38.2123 45.5954 38.2943C45.1113 38.4196 44.6622 38.6539 44.2825 38.9793C43.9027 39.3047 43.6023 39.7126 43.4043 40.1718C43.2677 40.5291 43.275 40.7795 43.3782 40.8283Z" fill="#E0E0E0"/>
<path d="M38.3667 46.8849C38.6016 46.9049 38.8468 46.3563 39.2985 45.8448C39.7503 45.3333 40.2506 45.0048 40.2035 44.7729C40.1707 44.6672 39.973 44.6058 39.688 44.6774C39.297 44.7724 38.946 44.9886 38.6853 45.2952C38.4152 45.5947 38.2446 45.9707 38.1972 46.3713C38.1668 46.6794 38.2577 46.8669 38.3667 46.8849Z" fill="#E0E0E0"/>
<path d="M51.6313 48.137C51.4105 48.0138 51.1535 47.9718 50.9051 48.0185C50.6566 48.0652 50.4323 48.1976 50.2714 48.3926C50.1645 48.5432 50.0961 48.7177 50.0722 48.9008C50.0482 49.084 50.0694 49.2702 50.134 49.4432C50.2018 49.6163 50.3038 49.7739 50.4339 49.9067C50.5639 50.0395 50.7194 50.1447 50.891 50.2162L50.9638 50.2429C51.2172 50.2436 51.4646 50.1656 51.6719 50.0198C51.8792 49.8739 52.0361 49.6674 52.1211 49.4286C52.1908 49.1893 52.1807 48.9339 52.0923 48.7009C52.0039 48.4678 51.8421 48.2699 51.6313 48.137Z" fill="#EB996E"/>
<path d="M50.5695 50.6874C50.4788 50.6045 51.0782 50.0206 51.0012 49.0896C50.9242 48.1585 50.2431 47.584 50.3223 47.503C50.4016 47.4219 50.5766 47.5301 50.8483 47.7949C51.197 48.1489 51.4066 48.6165 51.4387 49.1124C51.4805 49.5817 51.3369 50.0487 51.0388 50.4135C50.8191 50.6523 50.6074 50.7343 50.5695 50.6874Z" fill="#263238"/>
<path d="M41.8578 29.751C39.8575 29.5306 37.8452 30.0425 36.1934 31.1919C34.6394 32.4277 34.1224 33.5373 34.1479 35.2696C34.1831 36.0284 34.0414 36.7849 33.734 37.4795C33.2501 38.304 32.6208 38.7889 32.3134 40.0028C31.8912 41.6647 32.981 43.512 33.6869 45.07C34.5614 47.009 35.0724 49.1286 36.2361 50.9094C37.3997 52.6903 39.4877 54.1274 41.5669 53.6512C40.0322 52.7472 38.3916 51.6667 37.9029 49.9517C37.5279 48.6472 37.9127 47.2524 37.7975 45.9C37.6597 44.264 36.569 43.11 36.5031 41.4729C36.3589 37.7373 42.9187 37.1422 41.8529 29.7493" fill="#E0E0E0"/>
<path d="M36.6334 48.099C35.7391 46.4741 35.1085 44.7173 34.7653 42.8946C34.4385 40.5871 34.9791 38.2405 36.2823 36.3084C37.5855 34.3764 39.5588 32.9962 41.8206 32.4348L42.1672 32.105C42.3665 33.2745 42.3021 34.4737 41.9788 35.6152C41.6556 36.7566 41.0816 37.8115 40.2987 38.7028C39.3633 39.7526 38.0892 40.6452 37.8285 42.0469C37.5678 43.4487 38.3898 44.6749 38.4821 46.0299C38.5414 46.9489 38.2657 47.8662 38.3529 48.7845C38.5154 49.7529 38.8778 50.6769 39.4169 51.4976C38.0766 50.8741 37.3015 49.4449 36.6334 48.099Z" fill="#E0E0E0"/>
<path d="M40.996 35.1492L40.9941 30.0344C42.8527 27.6827 46.2477 28.1072 48.5677 28.7762C50.2894 29.2753 51.8141 30.2967 53.4712 30.9869C55.1284 31.677 57.0058 32.0516 58.6822 32.8094C60.3586 33.5671 61.9471 34.8652 62.3795 36.6586L61.0118 36.3499C62.2268 37.5738 62.978 39.1824 63.1365 40.8997L61.9999 40.2463C62.5636 41.5801 62.7141 43.0525 62.432 44.4728L64.8584 48.9956C57.0241 45.6498 61.077 40.1061 40.996 35.1492Z" fill="#E0E0E0"/>
<path d="M52.5401 39.112C52.4395 38.921 53.984 35.309 56.8847 37.9525C59.7044 40.5166 56.5375 42.8181 56.4529 42.7485C56.3683 42.679 52.5401 39.112 52.5401 39.112Z" fill="#FFBE9D"/>
<path d="M56.1739 40.9122C56.1739 40.9122 56.2578 40.8934 56.3688 40.846C56.525 40.7754 56.6474 40.6464 56.7097 40.4866C56.7612 40.1998 56.735 39.9045 56.6338 39.6312C56.5327 39.3579 56.3603 39.1167 56.1345 38.9325C55.8999 38.7042 55.6174 38.531 55.3075 38.4256C55.1948 38.3739 55.0716 38.3491 54.9477 38.3534C54.8238 38.3577 54.7026 38.3908 54.5938 38.4502C54.5255 38.4902 54.4732 38.5528 54.4459 38.6272C54.4186 38.7016 54.4181 38.7831 54.4444 38.8578C54.4918 38.9688 54.5628 39.0003 54.5557 39.0197C54.5485 39.0392 54.4505 39.0363 54.3546 38.9075C54.3032 38.832 54.2783 38.7415 54.2838 38.6503C54.2965 38.5196 54.3586 38.3987 54.4573 38.3121C54.5858 38.2169 54.7367 38.1564 54.8954 38.1364C55.0541 38.1165 55.2152 38.1378 55.3633 38.1984C55.7167 38.3005 56.0392 38.4887 56.3019 38.7462C56.8551 39.2793 57.1149 40.0572 56.8658 40.5714C56.817 40.6649 56.7485 40.7466 56.665 40.8111C56.5815 40.8755 56.485 40.921 56.3822 40.9445C56.2475 40.9667 56.1976 40.9374 56.1739 40.9122Z" fill="#EB996E"/>
<path d="M56.9643 41.0534C57.0407 40.9335 57.1496 40.8378 57.2783 40.7775C57.407 40.7171 57.5502 40.6946 57.6912 40.7126C57.8322 40.7306 57.9652 40.7883 58.0746 40.879C58.1841 40.9697 58.2655 41.0897 58.3093 41.2249C58.3532 41.3601 58.3576 41.505 58.3222 41.6426C58.2868 41.7803 58.213 41.9051 58.1094 42.0023C58.0058 42.0996 57.8766 42.1655 57.737 42.1921C57.5974 42.2188 57.453 42.2052 57.3209 42.1529C57.1473 42.0776 57.0073 41.9415 56.9272 41.7702C56.847 41.5989 56.8323 41.4042 56.8857 41.2227" fill="white"/>
<path d="M56.8857 41.2227C56.8693 41.4324 56.9173 41.642 57.0232 41.8236C57.0817 41.914 57.1617 41.9885 57.256 42.0403C57.3504 42.0922 57.4561 42.1199 57.5638 42.1209C57.6941 42.1223 57.8222 42.0877 57.9341 42.0209C58.046 41.9541 58.1373 41.8578 58.198 41.7424C58.2473 41.622 58.2636 41.4906 58.245 41.3618C58.2264 41.233 58.1736 41.1115 58.0922 41.01C58.0208 40.9284 57.9301 40.8661 57.8283 40.8288C57.7266 40.7915 57.617 40.7804 57.5099 40.7965C57.303 40.8291 57.1108 40.9237 56.9589 41.0679C56.9589 41.0679 56.9821 41.0049 57.0504 40.9088C57.1255 40.8307 57.2158 40.7689 57.3158 40.7269C57.4157 40.685 57.5231 40.664 57.6315 40.665C57.7398 40.6661 57.8468 40.6893 57.9459 40.7332C58.045 40.7771 58.1341 40.8407 58.2077 40.9202C58.3201 41.0399 58.3939 41.1907 58.4193 41.3529C58.4447 41.5152 58.4206 41.6813 58.3502 41.8297C58.2798 41.978 58.1662 42.1016 58.0244 42.1845C57.8826 42.2673 57.7192 42.3055 57.5554 42.294C57.4238 42.2906 57.2955 42.2524 57.1835 42.1833C57.0715 42.1142 56.9799 42.0167 56.9179 41.9006C56.8294 41.7533 56.792 41.5809 56.8114 41.4102C56.8383 41.2769 56.876 41.2192 56.8857 41.2227Z" fill="#263238"/>
<path d="M41.9112 35.5508C41.5067 34.6776 41.2175 33.7555 41.0508 32.8077C40.967 31.8485 41.0067 30.8825 41.1688 29.9333C41.0126 30.1809 40.9107 30.4587 40.8699 30.7486C40.5802 32.1328 40.7722 33.5745 41.4142 34.8346C41.5281 35.1053 41.6975 35.3493 41.9112 35.5508Z" fill="#FAFAFA"/>
<path d="M50.6737 47.7309C50.6488 47.7988 50.3149 47.6434 49.9212 47.7412C49.5275 47.8391 49.3056 48.0991 49.258 48.0486C49.2105 47.9981 49.2451 47.9337 49.3488 47.8011C49.4872 47.6368 49.6751 47.5219 49.8844 47.4735C50.0937 47.4252 50.3131 47.4461 50.5095 47.5331C50.6329 47.6168 50.6892 47.7035 50.6737 47.7309Z" fill="#EB996E"/>
<path d="M49.6019 41.5853C49.6592 41.6394 49.497 41.8716 49.3297 42.1626C49.1625 42.4536 49.0002 42.6859 48.9323 42.661C48.8644 42.6361 48.9045 42.3315 49.1018 42.0185C49.2991 41.7055 49.5544 41.5349 49.6019 41.5853Z" fill="#EB996E"/>
<path d="M49.9755 42.2783C49.9488 42.3511 49.7495 42.3991 49.5253 42.5151C49.3011 42.6311 49.1334 42.7733 49.0708 42.7338C49.0082 42.6943 49.106 42.4274 49.405 42.2728C49.7039 42.1182 49.9858 42.205 49.9755 42.2783Z" fill="#EB996E"/>
<path d="M50.5013 47.9759C50.4746 48.0487 50.1983 47.9915 49.8986 48.1183C49.5989 48.2451 49.4499 48.4712 49.3771 48.4445C49.3043 48.4179 49.3425 48.3438 49.4033 48.223C49.4874 48.0634 49.6247 47.9385 49.7915 47.8698C49.9554 47.7969 50.1395 47.7828 50.3127 47.8297C50.4552 47.8765 50.5137 47.942 50.5013 47.9759Z" fill="#EB996E"/>
<path d="M60.2912 49.9965C60.2823 50.0207 60.0596 50.0877 59.8448 49.8328C59.791 49.7547 59.7598 49.6632 59.7545 49.5685C59.746 49.4718 59.7616 49.384 59.7485 49.3296C59.7309 49.2721 59.6912 49.2238 59.6381 49.1955C59.5561 49.1546 59.4698 49.123 59.3809 49.1012C59.0121 49.0072 58.6839 48.7961 58.4455 48.4995C58.2677 48.2637 58.2289 48.0843 58.2554 48.072C58.5907 48.4253 59.0071 48.6913 59.4685 48.8471C59.5801 48.8716 59.6879 48.9111 59.7888 48.9645C59.844 49 59.891 49.0467 59.9269 49.1015C59.9627 49.1564 59.9866 49.2183 59.9968 49.283C60.0005 49.3748 59.9945 49.4667 59.9789 49.5572C59.9733 49.6146 59.9847 49.6723 60.0116 49.7233C60.1135 49.9258 60.3006 49.9559 60.2912 49.9965Z" fill="#EB996E"/>
<path d="M97.9905 46.0875L92.8331 46.8664L88.7039 68.5334C88.7039 68.5334 94.8169 67.7306 98.5183 67.5298C101.111 67.3794 107.424 64.4094 107.424 64.4094L97.9905 46.0875Z" fill="#FFBE9D"/>
<path d="M58.6324 54.1005C59.7468 51.9195 61.1694 49.9104 62.8564 48.135C64.6347 46.2878 66.8084 44.0075 67.6907 43.1475C69.2765 41.615 87.0287 47.1879 87.0287 47.1879L96.918 46.2502C96.918 46.2502 98.2222 69.2984 96.4558 72.0142C96.4558 72.0142 90.4694 72.0213 85.2076 71.6885C80.1953 71.3811 76.0448 72.7769 72.7517 71.564C69.4586 70.3511 66.1022 67.6893 66.1022 67.6893L61.727 69.2174L53.9786 62.8149L58.6324 54.1005Z" fill="white"/>
<path d="M92.0288 12.8157L81.169 28.3818C81.169 28.3818 67.6265 40.5147 65.6241 44.4596C65.5453 44.6133 65.4778 44.7725 65.422 44.936C64.3702 48.2551 78.9031 45.6125 78.9031 45.6125C78.9031 45.6125 89.1133 33.5295 91.0009 29.4323C92.8884 25.3351 97.7799 15.4472 97.7799 15.4472L92.0288 12.8157Z" fill="white"/>
<path d="M55.2718 60.999C54.2615 62.1644 53.6177 63.6019 53.4208 65.1316C53.1856 67.1665 52.7264 69.1692 52.0516 71.1033C50.6899 74.7272 35.4163 101.716 35.4163 101.716L41.9375 103.193C41.9375 103.193 53.4516 90.9773 56.6487 85.1252C59.8457 79.2732 66.9032 64.6636 66.9032 64.6636L70.3703 56.7086L63.3955 51.6191L55.2718 60.999Z" fill="white"/>
<path d="M66.765 66.3469C66.7607 65.724 66.7185 65.1019 66.6388 64.484C66.401 62.9996 65.6853 61.6334 64.6004 60.5928C63.5154 59.5522 62.1205 58.8941 60.6275 58.7184C60.007 58.6664 59.3839 58.6512 58.7615 58.6728C58.922 58.6126 59.0898 58.5742 59.2604 58.5584C59.721 58.4921 60.1877 58.4785 60.6514 58.518C62.2078 58.6416 63.674 59.2981 64.8027 60.3768C65.9315 61.4554 66.6537 62.8904 66.8477 64.4395C66.9168 64.9016 66.9298 65.3703 66.8864 65.8354C66.8717 66.011 66.8307 66.1834 66.765 66.3469Z" fill="#263238"/>
<path d="M81.7154 45.6142C81.6977 45.6627 80.9379 45.4227 79.6819 45.1549C78.0432 44.8194 76.373 44.6629 74.7005 44.6882C72.7376 44.7117 70.9673 44.9158 69.6746 45.0034C69.0306 45.048 68.5082 45.0767 68.1483 45.0823C67.9661 45.1015 67.7823 45.0988 67.6008 45.0742C67.7817 45.0227 67.9681 44.9931 68.1561 44.9861L69.634 44.8288C70.91 44.6967 72.688 44.4567 74.6672 44.4337C76.3591 44.4084 78.0477 44.5947 79.6934 44.9884C80.3213 45.1526 80.8257 45.2935 81.183 45.43C81.3683 45.4659 81.5475 45.528 81.7154 45.6142Z" fill="#263238"/>
<path d="M77.1359 66.7528C77.281 66.5479 77.442 66.3548 77.6174 66.1752C77.9403 65.8201 78.3943 65.2875 78.9405 64.6235C81.7839 61.147 83.9809 57.1888 85.4273 52.9369C85.7244 52.1265 85.9174 51.4651 86.0555 50.9983C86.1185 50.7541 86.2055 50.5168 86.3153 50.2898C86.2899 50.5405 86.2431 50.7886 86.1755 51.0313C86.0701 51.4991 85.8881 52.1755 85.628 53.005C84.2599 57.3189 82.0322 61.3109 79.0793 64.7404C78.5137 65.3973 78.0341 65.9096 77.6857 66.2443C77.5203 66.4322 77.3361 66.6025 77.1359 66.7528Z" fill="#263238"/>
<g opacity="0.3">
<path opacity="0.3" d="M82.3773 65.6248C84.657 61.4227 86.4221 56.9613 87.6345 52.3369C88.3978 57.0867 86.3665 62.9423 82.3773 65.6248Z" fill="black"/>
</g>
<g opacity="0.3">
<path opacity="0.3" d="M74.286 43.6719C72.4333 43.7779 70.6152 44.2193 68.9201 44.9744C72.6799 44.674 76.0089 44.3477 79.56 45.0221C77.9653 44.0816 76.1364 43.6134 74.286 43.6719Z" fill="black"/>
</g>
<path d="M36.3661 101.558C36.464 101.786 31.4635 108.188 31.4635 108.188L28.3354 115.849C28.3722 115.921 28.4231 115.986 28.4852 116.038C28.5474 116.09 28.6193 116.129 28.6969 116.153C28.7744 116.177 28.856 116.185 28.9367 116.176C29.0174 116.168 29.0956 116.144 29.1666 116.104C29.7132 115.815 32.2597 110.671 32.2597 110.671C32.2597 110.671 31.635 113.426 32.0968 113.623C32.5586 113.819 33.0334 113.966 33.1782 113.496C33.4236 112.891 33.7025 112.301 34.0139 111.727C34.0139 111.727 33.929 113.76 34.4133 114.301C34.8976 114.842 35.6932 114.369 35.6932 114.369L36.299 113.407L38.7459 110.517L41.0411 103.041L36.3661 101.558Z" fill="#FFBE9D"/>
<path d="M100.889 125.369L98.4179 132.5L96.0485 139.608C95.9571 139.858 95.7727 140.063 95.5338 140.181C95.2948 140.298 95.0198 140.319 94.7659 140.238L80.3984 135.103C80.2382 135.042 80.094 134.945 79.9769 134.82C79.8599 134.695 79.773 134.545 79.7231 134.381C79.6732 134.217 79.6615 134.044 79.689 133.875C79.7164 133.705 79.7822 133.545 79.8814 133.405C79.9673 133.284 80.0796 133.184 80.2097 133.112C80.3398 133.041 80.4845 133 80.6328 132.992C81.8394 132.884 91.3236 131.16 91.3236 131.16L94.2086 121.94L100.889 125.369Z" fill="#FFBE9D"/>
<path d="M97.9905 46.0875C98.5144 43.1981 99.9281 40.5446 102.034 38.4979C105.456 35.3489 109.389 36.7247 112.207 34.1136C115.025 31.5026 127.752 21.0967 127.752 21.0967L110.154 15.1507C110.154 15.1507 107.869 10.7956 111.307 8.31249C111.307 8.31249 133.391 9.90818 137.972 11.0596C142.554 12.211 143.933 12.5789 144.953 16.8229C145.973 21.0669 143.751 23.676 141.604 26.9185C139.457 30.161 124.858 49.0793 124.858 49.0793C124.858 49.0793 122.566 54.1292 119.768 57.3916C116.97 60.654 100.324 67.1844 100.324 67.1844C100.324 67.1844 103.427 62.085 102.107 56.3164C101.063 51.64 97.9905 46.0875 97.9905 46.0875Z" fill="white"/>
<path d="M137.276 14.7457C137.318 14.8107 135.021 16.3907 132.13 18.2703C129.239 20.15 126.873 21.6331 126.831 21.5681C126.789 21.503 129.085 19.923 131.977 18.0434C134.868 16.1638 137.238 14.6825 137.276 14.7457Z" fill="#263238"/>
<path d="M116.585 50.9234C116.585 50.9234 119.144 54.7847 119.135 62.3174C119.125 69.8501 110.655 99.8288 110.655 99.8288C110.655 99.8288 107.242 111.585 105.239 117.468C103.572 122.361 97.9283 134.286 97.9283 134.286L89.5042 131.197L97.3275 100.596L98.8654 84.6451L100.318 67.1711L116.585 50.9234Z" fill="white"/>
<path d="M119.565 57.6308C119.418 57.788 119.256 57.9295 119.08 58.053C118.763 58.3167 118.298 58.6855 117.685 59.1104C116.115 60.2287 114.468 61.2343 112.756 62.1199C111.045 63.0117 109.264 63.7616 107.43 64.3622C106.729 64.5948 106.152 64.7575 105.75 64.847C105.545 64.911 105.334 64.9535 105.12 64.9738C105.312 64.8764 105.514 64.7991 105.722 64.7431C106.113 64.6223 106.68 64.4282 107.37 64.1805C109.168 63.5239 110.922 62.7529 112.621 61.8722C114.315 60.9846 115.961 60.0056 117.549 58.9396C118.162 58.531 118.654 58.1941 119.009 57.961C119.182 57.8305 119.368 57.7198 119.565 57.6308Z" fill="#263238"/>
<g opacity="0.3">
<path opacity="0.3" d="M118.778 58.201C115.201 60.9743 110.839 63.1127 105.859 64.7439C109.304 66.1281 113.471 65.5749 116.665 63.6797C117.606 63.1886 118.378 62.4267 118.881 61.4923C119.325 60.5375 118.778 58.201 118.778 58.201Z" fill="black"/>
</g>
<path d="M111.31 8.30276L102.044 6.30922C102.044 6.30922 99.8706 2.85347 98.5961 4.25781C97.3215 5.66216 98.0712 7.50593 99.7101 8.92154C101.349 10.3371 103.734 11.9989 104.234 13.7895C104.733 15.5801 104.997 17.8787 107.163 17.2857C108.397 16.9788 109.467 16.2106 110.152 15.1392L111.31 8.30276Z" fill="#FFBE9D"/>
<path d="M98.5005 4.66867C98.5005 4.66867 96.0144 8.16107 95.4111 9.04085C94.8078 9.92062 93.6609 13.4691 93.6609 13.4691L97.0165 15.1123L103.368 11.6169L104.644 7.02572L98.5005 4.66867Z" fill="#FFBE9D"/>
<path d="M98.2252 5.07419C98.2591 5.08664 98.17 5.22461 98.2059 5.50201C98.2351 5.88594 98.3708 6.2541 98.5979 6.56502C98.9238 7.0442 99.2973 7.48917 99.7128 7.89313C100.177 8.35492 100.711 8.86459 101.214 9.44526C102.086 10.4256 102.885 11.4691 103.603 12.5673C103.934 13.0055 104.17 13.5083 104.295 14.0431C104.271 14.0342 104.03 13.4891 103.443 12.6738C102.69 11.6139 101.88 10.5964 101.015 9.62578C100.516 9.05173 99.9959 8.54742 99.5344 8.06444C99.1151 7.64189 98.7461 7.17223 98.4347 6.66484C98.2101 6.31919 98.094 5.9143 98.1013 5.50218C98.1061 5.39014 98.1298 5.27971 98.1715 5.1756C98.203 5.10459 98.2203 5.07241 98.2252 5.07419Z" fill="#EB996E"/>
<path d="M96.9797 12.8253C96.9409 12.811 97.2264 12.5579 97.5089 12.0725C97.878 11.4468 98.0242 10.7146 97.9238 9.99511C97.8045 9.58627 97.7743 9.15658 97.8353 8.73507C97.9354 8.39109 98.1271 8.08082 98.3901 7.8375C98.6005 7.60262 98.8571 7.41373 99.144 7.28268C98.9542 7.52723 98.7451 7.75615 98.5187 7.96723C98.3018 8.2005 98.1468 8.48424 98.0674 8.79266C98.0363 9.18023 98.0803 9.57016 98.1968 9.94109C98.3069 10.7203 98.1206 11.5124 97.6747 12.1608C97.5142 12.4464 97.2723 12.6778 96.9797 12.8253Z" fill="#EB996E"/>
</g>
</svg>
