<svg width="167" height="167" viewBox="0 0 167 167" fill="none" xmlns="http://www.w3.org/2000/svg">
<mask id="mask0_206:36430" style="mask-type:alpha" maskUnits="userSpaceOnUse" x="0" y="0" width="167" height="167">
<rect x="1" y="1" width="165" height="165" rx="8" fill="#5988D6" stroke="#EDE6FC" stroke-opacity="0.3"/>
</mask>
<g mask="url(#mask0_206:36430)">
<rect x="1" y="1" width="165" height="165" rx="8" fill="#A97AD9" stroke="#EDE6FC" stroke-opacity="0.3"/>
<path d="M124.565 135H116.545C116.511 134.977 116.478 134.951 116.447 134.924C116.273 134.786 116.142 134.608 116.068 134.408C115.994 134.209 115.98 133.994 116.027 133.787C116.17 133.411 116.455 133.095 116.83 132.895C117.581 132.396 118.587 131.976 118.53 131.073C118.44 129.716 122.786 129.771 123.064 130.546C123.506 131.772 124.805 132.1 124.97 133.26C125.135 134.421 124.565 135 124.565 135Z" fill="#FF9166"/>
<path d="M88.3399 21.8015C88.3399 21.8015 89.0899 23.7324 86.2925 25.8015C87.4086 25.2527 88.5816 25.0658 89.2925 22.6349C88.5816 21.8828 88.3399 21.8015 88.3399 21.8015Z" fill="#5C1C1D"/>
<path d="M101.64 27C101.64 27 100.21 29.9027 102 32.5622C101.485 32.2151 101.062 31.746 100.767 31.1956C100.471 30.6453 100.313 30.0303 100.306 29.4041C100.146 31.3297 100.486 31.877 101.223 33C100.399 32.5853 99.7335 31.907 99.3292 31.0703C99.1 30.3043 98.9893 29.507 99.0008 28.7068C99.0008 28.7068 99.169 27.7054 99.2851 27.6568C99.4012 27.6081 101.64 27 101.64 27Z" fill="#5C1C1D"/>
<path d="M47 135H45C45 134.868 45.0342 134.738 45.1005 134.616C45.1669 134.495 45.2642 134.384 45.3867 134.291C45.5093 134.199 45.6548 134.125 45.8149 134.075C45.9749 134.025 46.1463 133.999 46.3194 134H47V135Z" fill="#FF9166"/>
<path d="M43.3939 41.3555L44 40C43.8103 40.0284 43.6308 40.1144 43.4805 40.249C43.3162 40.473 43.1763 40.7186 43.0638 40.9805C42.7932 41.6752 43.4642 42.7572 43.5806 43C43.4588 42.207 43.3939 41.3555 43.3939 41.3555Z" fill="#FF7461"/>
<path d="M46.7499 40.8282L46.8541 41.7014L46.4894 42L45.0411 41.0951C45.0035 41.0276 44.9913 40.9514 45.0062 40.8775C45.0212 40.8036 45.0625 40.7357 45.1244 40.6834C45.3432 40.4752 45.4943 40.1721 45.8017 40.1042C46.0955 40.0205 46.405 39.9867 46.7135 40.0047C46.8164 40.0608 46.9124 40.126 47 40.1992C46.9372 40.4146 46.8536 40.625 46.7499 40.8282Z" fill="#FF9166"/>
<path d="M45.1692 43.6406C45.1457 43.3789 44.6598 42.3199 44.648 42.189C44.6363 42.0582 44.3267 41.5307 44.315 41.4162C44.0465 41.1525 43.7508 40.9207 43.4333 40.7252L44.8988 39.0078C44.6291 38.9788 44.3571 39.0313 44.1151 39.1591C43.8541 39.445 43.6192 39.7557 43.4137 40.0873C43.0819 40.5947 42.9423 41.2124 43.0218 41.821V41.8701C43.1067 42.5617 43.3878 43.2111 43.829 43.7347C44.7343 44.8101 46 46 46 46C46 46 45.1927 43.9146 45.1692 43.6406Z" fill="#FF9166"/>
<path d="M62 132.648C62 134.27 61.3387 135 61.3387 135H46.248C46.248 135 45.69 134.203 46.248 133.804C46.3733 133.716 46.5216 133.672 46.6723 133.676C49.7302 133.644 52.0504 132.731 55.2917 130.586L56.1594 130H61.3387C61.7167 130.831 61.941 131.73 62 132.648Z" fill="url(#paint0_linear_206:36430)"/>
<path d="M124.936 129.628C124.106 129.959 123.227 130.154 122.335 130.202C121.787 130.235 121.238 130.226 120.692 130.175C119.78 130.099 118.881 129.916 118.013 129.628C118.013 129.628 111.551 112.247 109.799 103.294C104.781 98.4933 97.3844 89.0208 95.0962 86.0458C94.9124 85.8112 94.7638 85.6157 94.6504 85.4672L94.3922 85.1271C91.1615 85.1271 78.4223 93.501 73.9047 100.139C73.6583 100.503 73.4353 100.862 73.2398 101.21C71.1277 104.807 67.6896 121.664 66.4654 127.892C66.1799 129.342 66.0156 130.238 66.0156 130.238L65.7926 130.308C64.4978 130.673 63.1663 130.894 61.8226 130.965C59.8507 131.084 57.8721 130.901 55.9557 130.421C55.2931 130.256 54.6402 130.053 54 129.815C55.1734 119.291 56.5111 107.731 59.2842 91.3704C62.468 86.2882 69.6375 80.7681 74.0064 77.6875C76.1459 76.1863 77.6126 75.2676 77.6126 75.2676C77.6126 75.2676 83.8708 74.6655 84.6882 75.2676C85.1498 75.6038 87.6413 75.8423 89.8903 76.1628C91.6777 76.4208 93.3127 76.7297 93.6451 77.1793C93.723 77.2996 93.7811 77.4316 93.8172 77.5702C93.8446 77.6758 93.872 77.797 93.8955 77.926L98.0493 77.1441L107.045 76.4639L112.314 78.2739C117.399 85.991 120.477 94.4901 122.319 102.364C124.377 111.299 125.256 120.464 124.936 129.628Z" fill="#FEE1CB"/>
<path d="M106.665 68.9772C106.746 69.3688 106.819 69.7918 106.876 70.2108C86.4027 74.2365 83.801 70.2108 83.801 70.2108C83.3919 69.2634 83.1955 68.2344 83.2262 67.1993C83.686 64.9163 84.4485 61.5915 84.4485 61.5915C84.4485 61.5915 83.7703 59.0931 82.9158 54.0766C82.6246 52.3653 82.3142 50.3641 82 48.0693C82.5863 40.7776 84.4485 38.0403 84.4485 38.0403L84.6631 37.4881L85.7475 37.355C86.4352 37.0827 87.1391 36.8551 87.855 36.6736C88.7753 36.4332 89.7096 36.2527 90.6522 36.1331C91.1887 36.0666 91.7519 36.0196 92.3344 36C92.5796 36 92.8248 36 93.0739 36C93.0739 36 94.8519 36 100.255 36.047H100.328H100.351C104.094 36.8302 105.822 36.8615 107.527 37.868C108.773 45.4495 107.309 52.9331 105.995 57.6167C105.15 60.6125 105.192 63.7967 106.114 66.7686C106.183 66.9996 106.251 67.2385 106.32 67.4774C106.435 67.9551 106.558 68.4603 106.665 68.9772Z" fill="#FFDDC1"/>
<path d="M106.88 69.055C106.717 69.1065 106.743 69.0825 106.553 69.1443C103.248 70.2562 99.7672 70.8827 96.2433 71H95.7877H95.1082H94.2276H93.438H93.0773L92.6484 70.9794L92.3447 70.9588C91.8019 70.9244 91.2438 70.8728 90.6782 70.8076C90.3745 70.7766 90.0709 70.7388 89.771 70.6976L89.3686 70.646L88.8485 70.5704L88.2184 70.4777C85.7244 70.0893 83.6631 69.6357 83.6631 69.6357C83.6631 69.6357 82.3876 68.9691 83.3746 67.756C85.7028 68.3463 88.0752 68.7827 90.4732 69.0619C90.8187 69.0997 91.1717 69.1375 91.5323 69.1649C92.1663 69.2165 92.8154 69.2543 93.4721 69.268C98.4867 69.3849 106.607 67 106.607 67C106.607 67 107.263 68.3471 106.88 69.055Z" fill="#404056"/>
<path d="M113 77.7639C112.774 77.9493 112.53 78.1145 112.272 78.2573C110.566 79.2176 107.761 79.6921 103.822 79.6313C100.132 79.5706 97.9151 81.0357 96.6879 82.3262C96.2281 82.8054 95.8359 83.3387 95.521 83.9127L95.4767 84L95.3158 83.7153L95.1186 81.8176L94.68 77.6425L94 71.1559H94.8772C99.1306 71.1224 103.346 70.393 107.335 69C109.381 71.0225 111.031 73.3701 112.211 75.9345C112.501 76.5645 112.764 77.1743 113 77.7639Z" fill="#FFDDC1"/>
<path d="M51.0125 48.578C50.9646 50.4365 49.2742 51.2354 48.5149 50.9402C47.7556 50.6449 47.8475 49.0296 48.7147 47.331C49.5819 45.6323 51.0365 44.7639 51.7957 45.0557C51.8158 45.0641 51.8346 45.0746 51.8517 45.087C52.4471 45.4517 51.0605 46.7648 51.0125 48.578Z" fill="#89443D"/>
<path d="M84.7845 38.5625C84.7845 38.5625 82.88 41.2395 82.2805 48.3567C82.6018 50.5977 83.1426 53.8026 83.1426 53.8026C83.1426 53.8026 82.112 54.6783 79.6159 56.4337C78.8322 56.9844 78.1738 57.4778 77.59 57.9176C74.988 59.8603 73.7929 60.7591 69.7528 61C58.8396 58.1432 52.0996 52.2307 52.0996 52.2307C51.5456 52.2331 50.9941 52.1584 50.4616 52.0089C49.9264 51.8887 49.4265 51.6507 49 51.3129C49.627 51.5806 50.9044 51.0031 51.3159 49.5881C51.3957 49.3025 51.4391 49.0083 51.4452 48.7123C51.5175 47.7501 51.774 46.8096 52.2015 45.9397C52.4131 45.4157 52.5306 45.0486 52.2838 44.8765L54.5017 46.108C55.3363 46.4904 68.7261 51.3779 68.7261 51.3779C75.8148 42.689 82.2531 39.5912 82.2531 39.5912L83.2797 38.2145C83.8303 38.0219 84.4195 37.9578 85 38.0271L84.7845 38.5625Z" fill="#FEE1CB"/>
<path d="M46 39.3918C45.8112 39.2207 45.6054 39.0887 45.3892 39C44.8341 39.2916 44 41 44 41L46 39.3918Z" fill="#FF9166"/>
<path d="M49.1911 44.8979C48.7217 44.6583 48.1841 44.4108 47.6769 44.187C47.3162 43.2568 46.7809 42.4103 46.102 41.6968L46.6472 41.1626L46.8554 41.9285L47.3399 41.8342L47.1923 40.3692L46.5752 40C45.6318 40.2402 44.7669 40.7363 44.0692 41.4376C43.5051 43.2443 46.5752 46.4925 46.5752 46.4925C48.6573 48.0636 51.1445 50 51.1445 50C51.2218 49.7067 51.2638 49.4046 51.2694 49.1005C51.3416 48.1115 51.5893 47.1448 52 46.249C51.0082 45.817 50.0618 45.3653 49.1911 44.8979Z" fill="url(#paint1_linear_206:36430)"/>
<path d="M122 56.1829C122 56.1829 121.942 60.5049 121.095 61.0809C116.769 64.0205 116.704 62.9837 107.87 67.4685C106.71 68.0525 105.415 68.7357 103.93 69.5302L102.183 70.3763L101.344 70.7736C101.22 70.834 101.091 70.8819 100.957 70.9166C100.758 70.9719 100.553 70.9999 100.347 71C99.776 70.9998 99.2254 70.7834 98.8003 70.3922C98.5492 70.1618 98.3482 69.8797 98.2103 69.5642C98.0724 69.2486 98.0008 68.9068 98 68.5609C98.0007 68.3519 98.0267 68.1437 98.0773 67.9412C98.165 67.6013 98.3527 67.2975 98.6147 67.0713C98.8763 66.8406 99.2027 66.7015 99.5464 66.674L102.179 66.4873C102.566 66.1973 102.952 65.8994 103.339 65.5975C104.046 65.0334 104.738 64.4535 105.407 63.8695C109.389 60.4016 112.644 56.8463 114.918 56.3219C117.774 55.6903 122 56.1829 122 56.1829Z" fill="url(#paint2_linear_206:36430)"/>
<path d="M123 56.4901L122.377 61.1745C120.615 63.7743 110.295 71 110.295 71C108.99 70.3131 107.754 69.4959 106.607 68.5602C105.6 67.7751 104.753 66.798 104.111 65.6832C104.073 65.6051 104.034 65.531 104 65.4529C105.147 63.2551 111.262 57.9344 111.262 57.9344C111.262 57.9344 110.819 57.7471 110.368 55.5454C107.957 53.0663 106.013 50.1551 104.634 46.9573C104.734 44.5332 106.37 38.1077 106.37 38.1077C106.37 38.1077 107.539 37.5495 110.788 38.9744C113.567 42.6711 123 56.4901 123 56.4901Z" fill="#FEE1CB"/>
<path d="M111 58L115.024 54.8464L118 54L111 58Z" fill="#FFCFAB"/>
<path d="M115 56L121 54L118.697 55.2414L115 56Z" fill="#FFCFAB"/>
<path d="M95.993 84.746C95.5342 84.8418 95.069 84.9082 94.6005 84.9445H94.4907C94.0553 84.9776 93.5728 85.0033 93.059 84.9996C92.2195 85.0011 91.3812 84.9384 90.5525 84.8122C88.2343 84.4445 85.7592 83.5217 84.1274 81.4519C82.208 78.9602 79.4876 77.1101 76.3648 76.1726L76 76.0771C76.3295 75.7278 76.6747 75.3786 77.0316 75.044C79.0401 73.187 81.2189 71.4991 83.543 70C83.543 70 85.6768 70.4853 88.25 70.9007C89.9103 71.1804 91.5868 71.367 93.2708 71.4595C93.6944 71.4595 94.5142 71.4853 94.5142 71.4853C95.2127 74.7776 95.6792 78.1095 95.9107 81.4593C95.9617 82.2754 95.9852 82.9519 95.993 83.4703C95.993 83.5953 95.993 83.7129 95.993 83.8195C96.0087 84.4298 95.993 84.746 95.993 84.746Z" fill="#FFDDC1"/>
<path d="M93 34C92.936 34.658 92.856 35.2902 92.756 35.8743C92.148 35.8743 91.556 35.9372 91 36C91 34.5693 93 34 93 34Z" fill="#FF7461"/>
<path d="M93 52.1106C92.7761 52.6491 92.5854 53.1953 92.4154 53.7105C92.1418 54.4543 91.9469 55.3066 91.7313 56C89.4444 49.891 88.1857 43.4874 88 37.0178C88.3925 36.1975 89.0586 35.5179 89.8988 35.0808C90.8007 34.5826 91.7797 34.218 92.801 34C92.2639 34.2711 91.7891 34.6384 91.4038 35.0808C91.1297 35.3878 90.9036 35.7295 90.7322 36.0958C89.8947 39.0129 92.0423 48.2909 93 52.1106Z" fill="#FFBFA6"/>
<path d="M101 34.5075C100.845 35.0187 100.67 35.5171 100.475 36C100.325 35.5037 99.8737 35.0075 100.034 34C100.372 34.101 100.697 34.272 101 34.5075Z" fill="#FF7461"/>
<path d="M101 37.1139H100.641C100.539 37.3121 96.5167 44.7894 93.8237 51.4538C93.7482 51.6362 93.6764 51.8186 93.6047 52.0009C93.4725 52.3379 93.3478 52.6709 93.227 53C92.362 49.0909 90.4056 39.5957 91.1761 36.6263C91.4442 36.5906 91.7237 36.5628 92.007 36.539C92.2903 36.5153 92.5509 36.5034 92.8304 36.4915C92.9248 35.8651 93.0003 35.1871 93.0608 34.4814C93.0834 34.2277 93.1023 33.9779 93.1212 33.7163C93.1816 32.8401 93.2232 31.9282 93.2496 31.0243C93.3705 26.9249 93.1816 23 93.1816 23H99.8858C99.652 24.718 99.5258 26.4503 99.5081 28.1857C99.5081 28.4235 99.5081 28.6654 99.5081 28.9072C99.4926 30.8778 99.707 32.843 100.146 34.759C100.29 35.3326 100.473 35.8944 100.694 36.4399C100.694 36.4756 100.72 36.5073 100.736 36.543C100.815 36.7333 100.906 36.9276 101 37.1139Z" fill="url(#paint3_linear_206:36430)"/>
<path d="M100.138 28.4582C99.8656 28.5155 99.6799 28.7448 99.4259 28.8021C99.3744 28.8098 99.3221 28.8098 99.2706 28.8021H99.0394L98.3079 28.7524C98.3096 28.7702 98.3096 28.7881 98.3079 28.8059L98.6111 28.9435C98.452 29.6492 98.1669 30.3199 97.7697 30.9228C97.5729 31.2175 97.3412 31.4869 97.0799 31.7252C96.7611 32.0164 96.3908 32.2446 95.9883 32.3977C95.0029 32.7798 93.7143 33.162 92.6417 33.4371L92.2627 33.5364C91.2848 33.7963 90.5382 33.9759 90.4434 33.995C89.9841 34.0275 89.5274 33.9015 89.1485 33.6376C88.7697 33.3737 88.4912 32.9876 88.3589 32.5429C88.1005 31.6694 87.9803 30.7603 88.0026 29.8491C88.0026 29.2415 88.0329 28.5155 88.0974 27.6061C88.1239 27.1972 88.158 26.7501 88.1959 26.2572C88.2699 25.3406 88.4754 24.4396 88.8061 23.5825C88.8895 23.3647 88.9842 23.1545 89.0828 22.9482C89.4933 22.0831 90.0384 21.2897 90.6974 20.5982C91.5388 19.7022 92.5675 19.0062 93.7088 18.5608C94.8501 18.1153 96.0754 17.9315 97.2959 18.0228C101.465 18.3667 102.981 20.8465 103 24.4498C102.636 25.7337 100.048 28.1372 100.138 28.4582Z" fill="url(#paint4_linear_206:36430)"/>
<path d="M104 37.064V37.0873C100.159 42.42 97.0063 48.1756 94.6107 54.2292C91.6045 62.0033 91.2624 67.3674 91.2379 69C90.851 68.9689 90.4721 68.9261 90.1014 68.8834C89.6941 64.8758 90.5088 57.9763 92.631 52.5384C92.8266 52.0486 93.0384 51.5705 93.2421 51.1079C93.8639 49.7552 94.4695 48.4725 95.0588 47.2597C97.5355 42.1444 99.5925 38.3662 100.672 36.4382C101.197 35.5014 101.487 35 101.487 35C101.854 35.1545 102.207 35.3378 102.542 35.5481C103.176 35.9025 103.684 36.4306 104 37.064Z" fill="#FFBFA6"/>
<path d="M110 103C110 103 111.662 103.54 117 103C116.032 103.92 110.698 105 110.698 105L110 103Z" fill="#FFCFAB"/>
<path d="M84 88L62 93.1573L67.3218 93.588L80.0223 89.6405L65.8491 100L84 88Z" fill="#FFCFAB"/>
<path d="M66 130.519C64.6753 130.866 63.311 131.027 61.9444 130.996C61.2796 130.981 60.6167 130.916 59.9611 130.801C59.5594 130.736 59.1629 130.64 58.7748 130.515L58 106V106.019L66 130.519Z" fill="#FEE1CB"/>
<path d="M121 131C120.561 131 120.147 131 119.769 131C118.495 131.001 117.226 130.831 116 130.495L116.463 105C116.492 105.138 116.82 107.014 121 131Z" fill="#FEE1CB"/>
<path d="M84.4122 62C84.4122 62 83.4042 50.1246 84.5408 45L85 47.202C85 47.202 84.0861 51.4651 84.4122 62Z" fill="#FFCFAB"/>
<path d="M98.4373 49C98.4373 49 98.4373 56.3373 103 61C101.257 60.1889 99.1413 57.1026 97 51.1421L98.4373 49Z" fill="#FFCFAB"/>
<path d="M68 52L70.6524 59L71 57.1288L68 52Z" fill="#FFCFAB"/>
<path d="M69 51.9619L78.1279 52.4625L81 51L78 54L69 51.9619Z" fill="#FFCFAB"/>
<path d="M68 51C68 51 68.0358 49.31 68.302 48.6458C69.7046 47.9078 77 44 77 44L68 51Z" fill="#FFCFAB"/>
<path d="M103.991 23.0432C103.967 23.5472 103.898 24.0477 103.788 24.5386C103.176 27.3306 100.729 29 100.729 29L100.262 28.5858L98.6351 27.1732L98.3567 26.9288C97.8697 26.8383 97.4123 26.6186 97.0276 26.2904C96.6428 25.9622 96.3432 25.5362 96.1569 25.0523C95.9564 24.5319 95.8462 23.9776 95.8314 23.416C94.7021 23.8717 91.2946 24.0415 89.3654 22.9065C89.0364 22.7238 88.7436 22.4763 88.5027 22.1774C88.3465 21.9845 88.2231 21.7645 88.138 21.527C87.9216 20.8235 87.9608 20.0601 88.2478 19.3854C89.0321 17.2065 91.3848 17.7864 91.3848 17.7864C91.3848 17.7864 91.8671 14.6299 94.8904 14.0582C97.9136 13.4865 99.5174 17.3142 99.5174 17.3142C99.5174 17.3142 104.227 18.1427 103.991 23.0432Z" fill="#7C2712"/>
<path d="M100.903 27.3714C100.665 28.2508 100.052 28.8747 99.416 28.9874C99.2667 29.0099 99.1144 29.0022 98.9681 28.9649H98.9192C98.1665 28.7243 97.8128 27.6984 98.0988 26.631C98.0988 26.5822 98.1251 26.5333 98.1402 26.4845C98.2255 26.2158 98.3525 25.9622 98.5165 25.7328C98.9192 25.1841 99.4913 24.891 100.022 25.0375C100.805 25.2518 101.196 26.2815 100.903 27.3714Z" fill="url(#paint5_linear_206:36430)"/>
<path opacity="0.5" d="M100.903 27.3714C100.665 28.2508 100.052 28.8747 99.416 28.9874C99.2667 29.0099 99.1144 29.0022 98.9681 28.9649H98.9192C98.1665 28.7243 97.8128 27.6984 98.0988 26.631C98.0988 26.5822 98.1251 26.5333 98.1402 26.4845C98.2255 26.2158 98.3525 25.9622 98.5165 25.7328C98.9192 25.1841 99.4913 24.891 100.022 25.0375C100.805 25.2518 101.196 26.2815 100.903 27.3714Z" fill="#FF9166"/>
<path d="M100.905 27.7796C100.616 28.5928 99.7696 29.1265 98.9747 28.974C98.1799 28.8215 97.8052 28.0295 98.1004 27.2163C98.3957 26.4031 99.2359 25.8737 100.036 26.0262C100.837 26.1786 101.183 26.9664 100.905 27.7796Z" fill="#FF9166"/>
<path d="M90.6991 31.8866C90.1609 32.1107 89.6067 32.0014 89.0925 31.5697C89.0743 31.5534 89.0577 31.5287 89.0437 31.4971C89.0297 31.4655 89.0186 31.4276 89.0111 31.3858C89.0036 31.344 88.9998 31.2992 89 31.2539C89.0002 31.2086 89.0043 31.1639 89.0121 31.1224C89.028 31.0403 89.0568 30.9753 89.0926 30.9407C89.1284 30.906 89.1686 30.9044 89.2049 30.936C90.0552 31.5561 90.9768 31.3684 91.7675 30.414C91.7842 30.392 91.8027 30.3784 91.8218 30.3741C91.8409 30.3697 91.8601 30.3747 91.8783 30.3888C91.8965 30.4029 91.9132 30.4257 91.9273 30.4557C91.9415 30.4857 91.9527 30.5223 91.9604 30.5631C91.9769 30.6473 91.9787 30.7433 91.9651 30.8304C91.9516 30.9175 91.924 30.9888 91.8881 31.0292C91.5102 31.4382 91.1103 31.7266 90.6991 31.8866Z" fill="#B2462D"/>
<path d="M88 25C88.2335 24.8612 88.4738 24.8028 88.7138 24.8264L89 24L88.6162 24.2645C88.449 24.2258 88.2803 24.2594 88.1178 24.3636C88.0567 24.547 88.0161 24.7663 88 25Z" fill="#5C1C1D"/>
<path d="M66 127.678C65.7375 129.072 65.5865 129.932 65.5865 129.932L65.3816 130C58.809 109.525 58.0899 107.252 58 107L66 127.678Z" fill="#FFCFAB"/>
<path d="M122 129.981C121.441 130.013 120.881 130.004 120.323 129.954C116.331 106.953 116.024 105.143 116 105L122 129.981Z" fill="#FFCFAB"/>
<path d="M97 82.3803C96.4861 82.8696 96.0477 83.414 95.6957 84C95.6957 83.8876 95.6957 83.7636 95.6957 83.6319C95.6957 83.0855 95.6597 82.3726 95.6012 81.5124C95.3358 77.9818 94.8009 74.4701 94 71H94.9805L97 82.3803Z" fill="#FFCFAB"/>
<path d="M122 103C121.869 102.716 113.634 84.5117 110.555 81.2619C106.221 80.3288 94.4512 86.0372 94.4512 86.0372C94.4512 86.0372 94.2731 85.741 94 85.2744C94.4726 85.2343 94.942 85.1611 95.4049 85.0553C95.4049 85.0553 95.4049 84.7064 95.4049 84.0451C95.7147 83.4315 96.1004 82.8615 96.5526 82.3492C97.7597 80.9698 99.9404 79.4038 103.569 79.4687C107.432 79.5336 110.191 79.0265 111.88 78C117.025 86.0088 120.136 94.829 122 103Z" fill="#FFCFAB"/>
<path d="M101 70.5836C100.574 70.7657 100.133 70.9005 99.6821 70.986C99.5404 71.0145 99.3942 70.9993 99.2601 70.942C99.1259 70.8847 99.0094 70.7876 98.9237 70.6619C98.7609 70.5776 98.6239 70.4443 98.5289 70.2778C98.434 70.1114 98.3852 69.9188 98.3883 69.7231L98.2476 69.5369C98.1461 69.4026 98.0757 69.244 98.0423 69.0742C98.0088 68.9044 98.0133 68.7284 98.0554 68.5609C97.9891 68.3693 97.9821 68.1596 98.0354 67.9634C98.0886 67.7672 98.1992 67.5951 98.3505 67.4731L98.9408 67C98.7082 67.2122 98.5416 67.4971 98.4638 67.8158C98.4188 68.0057 98.3958 68.2009 98.3951 68.3969C98.3958 68.7213 98.4594 69.0418 98.5818 69.3377C98.7042 69.6336 98.8827 69.8982 99.1055 70.1143C99.483 70.4811 99.9717 70.684 100.478 70.6842C100.655 70.6749 100.831 70.6411 101 70.5836Z" fill="#FF9166"/>
<path d="M106 67.9959C105.317 68.3455 104.586 68.7276 103.815 69.1341L102 70C102.056 69.9593 102.45 69.7154 105.012 68.0976C104.1 67.3293 103.406 65.6585 103.197 65.1423L103.378 65C104.052 66.1609 104.943 67.1783 106 67.9959Z" fill="#FF9166"/>
<path d="M101 36.2771C99.9536 38.2851 97.9595 42.1727 95.5587 47.4578C94.9467 48.7751 94.3465 50.1205 93.7976 51.4337C93.5883 51.9116 93.4028 52.4056 93.2053 52.9116C93.1972 52.9419 93.1866 52.9715 93.1737 53C93.1224 48.5301 99.6377 37.6667 99.6377 37.6667L98.848 33.1446L97.4462 34.0522L93 34.2289C93.0237 33.9719 93.0434 33.7189 93.0632 33.4578C94.1886 33.1526 95.5232 32.755 96.5499 32.3655C96.9692 32.2045 97.3549 31.9647 97.6871 31.6586C97.9593 31.4082 98.2007 31.125 98.4057 30.8153C98.7689 30.2574 99.0434 29.6448 99.2192 29H99.2705C99.424 29.0399 99.5837 29.0481 99.7404 29.0241C99.7515 30.8688 99.9741 32.7058 100.404 34.498C100.553 35.0791 100.745 35.6482 100.976 36.2008C100.983 36.2267 100.991 36.2522 101 36.2771Z" fill="#FF9166"/>
<path d="M124.991 135H116.467C116.285 134.863 116.149 134.685 116.071 134.486C115.994 134.286 115.979 134.073 116.028 133.867C116.063 133.744 116.122 133.628 116.201 133.523C116.342 133.347 116.534 133.206 116.757 133.115C116.98 133.024 117.226 132.986 117.471 133.004C119.632 133.142 125.25 133.602 124.991 135Z" fill="url(#paint6_linear_206:36430)"/>
<path d="M125 135.644C125 135.876 124.552 136 124.002 136C123.453 136 123 135.888 123 135.644C123.048 135.462 123.174 135.299 123.356 135.181C123.538 135.064 123.766 135 124 135C124.234 135 124.462 135.064 124.644 135.181C124.826 135.299 124.952 135.462 125 135.644Z" fill="url(#paint7_linear_206:36430)"/>
<path d="M123 135.293C123 135.754 122.553 136 122 136C121.447 136 121 135.754 121 135.293C121.047 134.928 121.172 134.6 121.354 134.364C121.537 134.129 121.765 134 122 134C122.235 134 122.463 134.129 122.646 134.364C122.828 134.6 122.953 134.928 123 135.293Z" fill="url(#paint8_linear_206:36430)"/>
<path d="M122 135.295C122 135.757 121.331 136 120.503 136C119.675 136 119 135.757 119 135.295C119.07 134.929 119.257 134.601 119.531 134.365C119.804 134.129 120.147 134 120.5 134C120.853 134 121.196 134.129 121.469 134.365C121.743 134.601 121.93 134.929 122 135.295Z" fill="url(#paint9_linear_206:36430)"/>
<path d="M120 135.301C120 135.762 119.553 136 119 136C118.447 136 118 135.762 118 135.301C118.043 134.935 118.167 134.605 118.35 134.368C118.532 134.13 118.762 134 119 134C119.238 134 119.468 134.13 119.65 134.368C119.833 134.605 119.957 134.935 120 135.301Z" fill="url(#paint10_linear_206:36430)"/>
<path d="M118 135.271C118 135.828 117.327 136 116.5 136C115.673 136 115 135.828 115 135.271C115.029 134.926 115.199 134.602 115.477 134.367C115.755 134.131 116.121 134 116.5 134C116.879 134 117.245 134.131 117.523 134.367C117.801 134.602 117.971 134.926 118 135.271Z" fill="url(#paint11_linear_206:36430)"/>
<path d="M93 51.9682C92.8985 52.3162 92.8028 52.6602 92.71 53C92.0458 48.9629 90.5436 39.1568 91.1352 36.0901C91.3411 36.0532 91.5557 36.0246 91.7732 36C91.7674 36.8926 91.7935 47.1818 93 51.9682Z" fill="#FF9166"/>
<path opacity="0.5" d="M99 29.4937C98.8268 30.1305 98.5563 30.7356 98.1984 31.2867C97.9964 31.5926 97.7586 31.8723 97.4903 32.1197C97.163 32.422 96.7828 32.6589 96.3696 32.8179C95.358 33.2146 94.035 33.6113 92.9339 33.8969L92.5448 34C92.5448 34 96.5331 30.9733 96.8249 29.4897C96.1607 28.8909 95.6243 28.1594 95.2488 27.3406C94.8733 26.5218 94.6668 25.6331 94.642 24.7295C92.6973 25.0008 90.7186 24.6251 89 23.6585C89.0856 23.4324 89.1829 23.2142 89.2841 23C91.1984 24.0869 94.5837 23.9243 95.7043 23.4879C95.8366 26.5344 98.1401 26.8399 98.2062 26.8518C98.2062 26.9034 98.1751 26.9549 98.1634 27.0065C97.856 28.1569 98.2335 29.2398 99 29.4937Z" fill="#FF9166"/>
<path d="M90.2589 24.2574C91.5777 24.3643 92.8481 24.6164 94 25L93.9137 24.9257C93.8476 24.8643 93.7741 24.8056 93.6936 24.75C93.5139 24.6162 93.3018 24.4979 93.0636 24.3985C92.5909 24.3154 92.1095 24.2492 91.6224 24.2005C91.2686 24.1658 91.0356 24.151 90.8759 24.1386L90.548 24.1287C90.3668 24.0842 90.1899 24.0396 90 24C90.0094 24.0509 90.0373 24.1001 90.0819 24.1444C90.1265 24.1888 90.1868 24.2273 90.2589 24.2574Z" fill="#5C1C1D"/>
<path d="M103.991 23C103.764 19.4827 100.855 18.3516 98.7031 17.9346C95.9589 13.8807 92.4973 16.8902 92.1445 18.9543C87.6441 17.4599 88.138 21.5014 88.138 21.5014C87.9216 20.8003 87.9608 20.0395 88.2478 19.3671C89.0318 17.1957 91.384 17.7736 91.384 17.7736C91.384 17.7736 91.8662 14.6279 94.8887 14.0582C97.9112 13.4885 99.5185 17.2906 99.5185 17.2906C99.5185 17.2906 104.227 18.1163 103.991 23Z" fill="#994126"/>
<path opacity="0.5" d="M98 26.2014C97.8332 26.4451 97.7041 26.7146 97.6173 27C97.5522 27 95.2866 26.6805 95.1565 23.6138C94.0543 24.0531 90.7248 24.2168 88.8419 23.1226C88.5209 22.9466 88.2351 22.708 88 22.4199C88.0842 22.4199 91.2683 21.9247 91.5553 20C91.8117 20.7667 91.3142 22.2002 91.3142 22.2002C91.3142 22.2002 94.7853 22.9989 95.2139 20.5271C95.4933 20.8186 96.473 21.2658 96.3888 23.8135C96.6185 25.0993 97.0126 25.9298 98 26.2014Z" fill="#5C1C1D"/>
<path d="M96 28C94.3239 25.4693 95.2547 23.094 95.2835 23C95.2955 23.5543 95.3855 24.1013 95.549 24.6149C95.2867 25.8904 95.7345 27.2641 96 28Z" fill="#5C1C1D"/>
<path d="M93 85.3303C88.5663 86.7681 78.012 94.0816 74 100L74.6693 97.2604L85.7923 88.0855L74.0928 77.6749C75.0755 76.9793 75.919 76.4119 76.5341 76C79.6142 76.9909 82.2974 78.9465 84.1906 81.5803C85.8 83.7681 88.2413 84.7552 90.5278 85.1321C91.3451 85.2656 92.1719 85.3319 93 85.3303Z" fill="#FFCFAB"/>
<path d="M95.995 69.372L95.8656 70.186L95.7758 70.7287C95.7595 70.8046 95.7078 70.8737 95.63 70.9234C95.5523 70.9732 95.4535 71.0003 95.3516 71H93.806H93.7269C93.6398 70.99 93.5588 70.9602 93.4946 70.9147C93.4305 70.8691 93.3861 70.8099 93.3674 70.745L93.008 69.3883C92.9958 69.3411 92.9976 69.2925 93.0133 69.2458C93.0289 69.1992 93.0581 69.1558 93.0986 69.1187C93.1392 69.0816 93.1901 69.0517 93.2478 69.0313C93.3055 69.0108 93.3684 69.0002 93.4322 69.0003H95.5529C95.6161 68.9982 95.6792 69.0066 95.7376 69.0251C95.796 69.0436 95.8483 69.0716 95.8905 69.1072C95.9328 69.1427 95.9642 69.1849 95.9822 69.2307C96.0003 69.2766 96.0047 69.3248 95.995 69.372Z" fill="#313143"/>
<path d="M97.9936 84.6489L94.9545 85L94.0502 79.4065C94.0502 79.4065 94.1256 73.0623 94.1674 73.0098C94.2093 72.9573 94.0712 71.8758 94 71.3269H95.1512C95.2556 71.3271 95.3575 71.2956 95.4424 71.237C95.5273 71.1783 95.5909 71.0954 95.6242 71H96.1266C96.6875 73.5022 98.1066 80.3427 97.9936 84.6489Z" fill="#313143"/>
<path d="M95.7381 87.964C95.7381 87.964 94.3607 88.2371 92 87.2791C93.5924 83.0472 93.8869 74.4572 93.9467 71H94.0342H95.6624C96.375 76.6995 95.7381 87.964 95.7381 87.964Z" fill="#404056"/>
<path d="M77 58.0288C74.4518 59.9015 73.2812 60.7678 69.3246 61C58.6365 58.2463 52.0356 52.5473 52.0356 52.5473C51.4931 52.5496 50.9529 52.4776 50.4315 52.3334C49.9073 52.2176 49.4177 51.9881 49 51.6625C49.614 51.9206 50.8651 51.3639 51.2681 50L58.1952 55.0761L58.0263 53.5094L70.1804 60.1964L77 58.0288Z" fill="#FFCFAB"/>
<path d="M62 133.051C62 134.396 61.31 135 61.31 135H59.8302C60.0174 134.183 60.1003 133.351 60.0775 132.519L55 131.33C55.2034 131.225 55.3989 131.116 55.6142 131C56.9037 131.268 58.2228 131.426 59.551 131.472C60.2564 131.571 60.9696 131.628 61.6849 131.641C61.8744 132.095 61.9806 132.571 62 133.051Z" fill="#FF9166"/>
</g>
<g filter="url(#filter0_b_206:36430)">
<rect x="13" y="77" width="141" height="77" rx="10" fill="black" fill-opacity="0.8"/>
</g>
<path d="M51.884 104H49.952L49.728 102.824L49.49 101.984L47.726 101.942L46.172 101.984L45.934 102.726L45.696 104H43.82L46.872 94.984H49.126L51.884 104ZM49.084 100.514L48.02 96.762H47.894L46.662 100.514L47.866 100.542L49.084 100.514ZM56.4725 97.476C56.5565 97.476 56.6732 97.4853 56.8225 97.504V99.226L56.6265 99.296C56.4678 99.2307 56.2952 99.198 56.1085 99.198C55.5672 99.198 55.0772 99.548 54.6385 100.248V101.13L54.7365 104H52.8745L52.9865 101.312L52.9025 97.616L54.6665 97.462L54.6525 98.736H54.7645C55.2218 97.896 55.7912 97.476 56.4725 97.476ZM60.4284 102.628C60.727 102.628 61.0397 102.549 61.3664 102.39L61.5204 102.53L61.3384 103.636C60.8624 103.879 60.377 104.028 59.8824 104.084C58.6224 103.953 57.9924 103.337 57.9924 102.236L58.0624 101.074L58.0484 98.666H57.1804L57.1104 98.568L57.2084 97.546H58.0344V96.468L59.7284 95.922L59.8544 96.034L59.8124 97.546H61.4784L61.5344 97.644L61.4504 98.666H59.7844L59.7004 101.802C59.7004 102.101 59.7564 102.315 59.8684 102.446C59.9804 102.567 60.167 102.628 60.4284 102.628ZM67.4711 100.976L63.6911 101.004C63.7751 102.171 64.3678 102.754 65.4691 102.754C66.0478 102.754 66.6918 102.591 67.4011 102.264L67.5551 102.362L67.2751 103.748C66.5658 104.009 65.8985 104.14 65.2731 104.14C64.2465 104.14 63.4391 103.841 62.8511 103.244C62.2725 102.647 61.9831 101.821 61.9831 100.766C61.9831 99.7207 62.2678 98.8947 62.8371 98.288C63.4065 97.672 64.1765 97.364 65.1471 97.364C65.9778 97.364 66.6171 97.5927 67.0651 98.05C67.5225 98.498 67.7511 99.128 67.7511 99.94C67.7511 100.155 67.7278 100.425 67.6811 100.752L67.4711 100.976ZM66.1271 99.73C66.1271 99.3567 66.0431 99.0767 65.8751 98.89C65.7071 98.694 65.4598 98.596 65.1331 98.596C64.7691 98.596 64.4658 98.7173 64.2231 98.96C63.9805 99.1933 63.8171 99.534 63.7331 99.982L66.0991 99.926L66.1271 99.73ZM71.2187 97.378C71.8533 97.378 72.4507 97.4853 73.0107 97.7L72.7587 99.072L72.5347 99.142C72.264 98.9647 71.9933 98.8293 71.7227 98.736C71.452 98.6427 71.214 98.596 71.0087 98.596C70.7847 98.596 70.6073 98.6567 70.4767 98.778C70.346 98.89 70.2807 99.03 70.2807 99.198C70.2807 99.394 70.3647 99.5527 70.5327 99.674C70.71 99.7953 70.9853 99.9307 71.3587 100.08C71.732 100.229 72.04 100.374 72.2827 100.514C72.5253 100.654 72.7307 100.85 72.8987 101.102C73.076 101.345 73.1647 101.648 73.1647 102.012C73.1647 102.385 73.0667 102.735 72.8707 103.062C72.684 103.379 72.3947 103.641 72.0027 103.846C71.6107 104.042 71.13 104.14 70.5607 104.14C69.8887 104.14 69.1933 104 68.4747 103.72L68.6847 102.264L68.8667 102.152C69.156 102.395 69.478 102.591 69.8327 102.74C70.1873 102.88 70.5 102.95 70.7707 102.95C71.0227 102.95 71.2187 102.889 71.3587 102.768C71.4987 102.637 71.5687 102.483 71.5687 102.306C71.5687 102.11 71.48 101.951 71.3027 101.83C71.1347 101.709 70.864 101.573 70.4907 101.424C70.108 101.256 69.7953 101.107 69.5527 100.976C69.31 100.836 69.1 100.64 68.9227 100.388C68.7547 100.136 68.6707 99.8233 68.6707 99.45C68.6707 98.8433 68.8993 98.3487 69.3567 97.966C69.814 97.574 70.4347 97.378 71.2187 97.378ZM84.3249 104L84.4369 99.94C84.4369 99.2493 84.1429 98.904 83.5549 98.904C83.1349 98.904 82.6962 99.0907 82.2389 99.464L82.1969 101.144L82.2809 104H80.4189L80.5309 99.94C80.5402 99.604 80.4655 99.3473 80.3069 99.17C80.1575 98.9927 79.9382 98.904 79.6489 98.904C79.2382 98.904 78.7855 99.1 78.2909 99.492V101.13L78.3749 104H76.5269L76.6249 101.312L76.5549 97.616L78.3049 97.462V98.414H78.4029C78.9162 97.9473 79.4809 97.6113 80.0969 97.406C81.1422 97.406 81.8095 97.756 82.0989 98.456H82.1829C82.7149 97.9613 83.3215 97.6113 84.0029 97.406C84.7122 97.406 85.2489 97.5693 85.6129 97.896C85.9862 98.2133 86.1635 98.6753 86.1449 99.282L86.1029 101.144L86.1869 104H84.3249ZM90.3818 97.364C91.1005 97.364 91.6605 97.5273 92.0618 97.854C92.4725 98.1713 92.6778 98.6193 92.6778 99.198C92.6778 99.366 92.6498 99.898 92.5938 100.794C92.5845 101.055 92.5705 101.326 92.5518 101.606C92.5332 101.877 92.5238 102.11 92.5238 102.306C92.5238 102.465 92.5472 102.577 92.5938 102.642C92.6405 102.698 92.7245 102.726 92.8458 102.726C92.9392 102.726 93.0605 102.707 93.2098 102.67L93.3498 102.782L93.1818 103.762C92.8832 103.958 92.5425 104.075 92.1598 104.112C91.8798 104.084 91.6465 103.986 91.4598 103.818C91.2732 103.641 91.1472 103.398 91.0818 103.09H90.9838C90.5172 103.585 90.0365 103.93 89.5418 104.126C88.8698 104.117 88.3425 103.939 87.9598 103.594C87.5772 103.249 87.3858 102.777 87.3858 102.18C87.3858 101.713 87.5025 101.349 87.7358 101.088C87.9785 100.817 88.3425 100.635 88.8278 100.542L90.9698 100.136V99.562C90.9698 98.9553 90.6712 98.652 90.0738 98.652C89.7845 98.652 89.4765 98.7173 89.1498 98.848C88.8325 98.9787 88.4732 99.184 88.0718 99.464L87.9318 99.38L87.7218 98.148C88.1232 97.896 88.5525 97.7047 89.0098 97.574C89.4672 97.434 89.9245 97.364 90.3818 97.364ZM89.4718 101.396C89.3225 101.433 89.2105 101.499 89.1358 101.592C89.0705 101.676 89.0378 101.807 89.0378 101.984C89.0378 102.227 89.1032 102.418 89.2338 102.558C89.3645 102.689 89.5465 102.754 89.7798 102.754C90.1438 102.754 90.5265 102.539 90.9278 102.11L90.9558 101.074L89.4718 101.396ZM98.076 97.476C98.16 97.476 98.2767 97.4853 98.426 97.504V99.226L98.23 99.296C98.0714 99.2307 97.8987 99.198 97.712 99.198C97.1707 99.198 96.6807 99.548 96.242 100.248V101.13L96.34 104H94.478L94.59 101.312L94.506 97.616L96.27 97.462L96.256 98.736H96.368C96.8254 97.896 97.3947 97.476 98.076 97.476ZM102.019 97.364C102.327 97.364 102.631 97.3967 102.929 97.462C103.237 97.518 103.508 97.602 103.741 97.714L103.433 99.198L103.279 99.268C102.803 99.0067 102.379 98.876 102.005 98.876C101.576 98.876 101.245 99.03 101.011 99.338C100.778 99.646 100.661 100.085 100.661 100.654C100.661 101.307 100.787 101.807 101.039 102.152C101.291 102.497 101.651 102.67 102.117 102.67C102.537 102.67 103.004 102.553 103.517 102.32L103.657 102.432L103.475 103.874C102.915 104.051 102.341 104.14 101.753 104.14C100.857 104.14 100.157 103.851 99.6532 103.272C99.1492 102.684 98.8972 101.867 98.8972 100.822C98.8972 99.7393 99.1725 98.8947 99.7232 98.288C100.274 97.672 101.039 97.364 102.019 97.364ZM104.858 101.312L104.788 97.616L106.622 97.462L106.538 101.13L106.622 104H104.76L104.858 101.312ZM105.74 94.298C106.029 94.298 106.253 94.382 106.412 94.55C106.58 94.718 106.664 94.9513 106.664 95.25C106.664 95.5673 106.575 95.8193 106.398 96.006C106.221 96.1927 105.978 96.286 105.67 96.286C105.362 96.286 105.124 96.202 104.956 96.034C104.797 95.866 104.718 95.628 104.718 95.32C104.718 95.012 104.807 94.7647 104.984 94.578C105.171 94.3913 105.423 94.298 105.74 94.298ZM110.944 97.364C111.663 97.364 112.223 97.5273 112.624 97.854C113.035 98.1713 113.24 98.6193 113.24 99.198C113.24 99.366 113.212 99.898 113.156 100.794C113.147 101.055 113.133 101.326 113.114 101.606C113.096 101.877 113.086 102.11 113.086 102.306C113.086 102.465 113.11 102.577 113.156 102.642C113.203 102.698 113.287 102.726 113.408 102.726C113.502 102.726 113.623 102.707 113.772 102.67L113.912 102.782L113.744 103.762C113.446 103.958 113.105 104.075 112.722 104.112C112.442 104.084 112.209 103.986 112.022 103.818C111.836 103.641 111.71 103.398 111.644 103.09H111.546C111.08 103.585 110.599 103.93 110.104 104.126C109.432 104.117 108.905 103.939 108.522 103.594C108.14 103.249 107.948 102.777 107.948 102.18C107.948 101.713 108.065 101.349 108.298 101.088C108.541 100.817 108.905 100.635 109.39 100.542L111.532 100.136V99.562C111.532 98.9553 111.234 98.652 110.636 98.652C110.347 98.652 110.039 98.7173 109.712 98.848C109.395 98.9787 109.036 99.184 108.634 99.464L108.494 99.38L108.284 98.148C108.686 97.896 109.115 97.7047 109.572 97.574C110.03 97.434 110.487 97.364 110.944 97.364ZM110.034 101.396C109.885 101.433 109.773 101.499 109.698 101.592C109.633 101.676 109.6 101.807 109.6 101.984C109.6 102.227 109.666 102.418 109.796 102.558C109.927 102.689 110.109 102.754 110.342 102.754C110.706 102.754 111.089 102.539 111.49 102.11L111.518 101.074L110.034 101.396ZM115.249 101.312L115.179 97.616L117.013 97.462L116.929 101.13L117.013 104H115.151L115.249 101.312ZM116.131 94.298C116.42 94.298 116.644 94.382 116.803 94.55C116.971 94.718 117.055 94.9513 117.055 95.25C117.055 95.5673 116.966 95.8193 116.789 96.006C116.611 96.1927 116.369 96.286 116.061 96.286C115.753 96.286 115.515 96.202 115.347 96.034C115.188 95.866 115.109 95.628 115.109 95.32C115.109 95.012 115.197 94.7647 115.375 94.578C115.561 94.3913 115.813 94.298 116.131 94.298ZM120.957 97.378C121.592 97.378 122.189 97.4853 122.749 97.7L122.497 99.072L122.273 99.142C122.002 98.9647 121.732 98.8293 121.461 98.736C121.19 98.6427 120.952 98.596 120.747 98.596C120.523 98.596 120.346 98.6567 120.215 98.778C120.084 98.89 120.019 99.03 120.019 99.198C120.019 99.394 120.103 99.5527 120.271 99.674C120.448 99.7953 120.724 99.9307 121.097 100.08C121.47 100.229 121.778 100.374 122.021 100.514C122.264 100.654 122.469 100.85 122.637 101.102C122.814 101.345 122.903 101.648 122.903 102.012C122.903 102.385 122.805 102.735 122.609 103.062C122.422 103.379 122.133 103.641 121.741 103.846C121.349 104.042 120.868 104.14 120.299 104.14C119.627 104.14 118.932 104 118.213 103.72L118.423 102.264L118.605 102.152C118.894 102.395 119.216 102.591 119.571 102.74C119.926 102.88 120.238 102.95 120.509 102.95C120.761 102.95 120.957 102.889 121.097 102.768C121.237 102.637 121.307 102.483 121.307 102.306C121.307 102.11 121.218 101.951 121.041 101.83C120.873 101.709 120.602 101.573 120.229 101.424C119.846 101.256 119.534 101.107 119.291 100.976C119.048 100.836 118.838 100.64 118.661 100.388C118.493 100.136 118.409 99.8233 118.409 99.45C118.409 98.8433 118.638 98.3487 119.095 97.966C119.552 97.574 120.173 97.378 120.957 97.378ZM58.4713 120L58.5833 115.94C58.5833 115.249 58.2893 114.904 57.7013 114.904C57.2813 114.904 56.8427 115.091 56.3853 115.464L56.3433 117.144L56.4273 120H54.5653L54.6773 115.94C54.6867 115.604 54.612 115.347 54.4533 115.17C54.304 114.993 54.0847 114.904 53.7953 114.904C53.3847 114.904 52.932 115.1 52.4373 115.492V117.13L52.5213 120H50.6733L50.7713 117.312L50.7013 113.616L52.4513 113.462V114.414H52.5493C53.0627 113.947 53.6273 113.611 54.2433 113.406C55.2887 113.406 55.956 113.756 56.2453 114.456H56.3293C56.8613 113.961 57.468 113.611 58.1493 113.406C58.8587 113.406 59.3953 113.569 59.7593 113.896C60.1327 114.213 60.31 114.675 60.2913 115.282L60.2493 117.144L60.3333 120H58.4713ZM67.0063 116.976L63.2263 117.004C63.3103 118.171 63.903 118.754 65.0043 118.754C65.583 118.754 66.227 118.591 66.9363 118.264L67.0903 118.362L66.8103 119.748C66.101 120.009 65.4336 120.14 64.8083 120.14C63.7816 120.14 62.9743 119.841 62.3863 119.244C61.8076 118.647 61.5183 117.821 61.5183 116.766C61.5183 115.721 61.803 114.895 62.3723 114.288C62.9416 113.672 63.7116 113.364 64.6823 113.364C65.513 113.364 66.1523 113.593 66.6003 114.05C67.0576 114.498 67.2863 115.128 67.2863 115.94C67.2863 116.155 67.263 116.425 67.2163 116.752L67.0063 116.976ZM65.6623 115.73C65.6623 115.357 65.5783 115.077 65.4103 114.89C65.2423 114.694 64.995 114.596 64.6683 114.596C64.3043 114.596 64.001 114.717 63.7583 114.96C63.5156 115.193 63.3523 115.534 63.2683 115.982L65.6343 115.926L65.6623 115.73ZM70.3351 117.13L70.4331 120H68.5711L68.6691 117.298L68.5851 110.312L70.4471 110.172L70.3351 117.13ZM76.2529 115.94C76.2622 115.604 76.1922 115.347 76.0429 115.17C75.8935 114.993 75.6742 114.904 75.3849 114.904C74.9649 114.904 74.5169 115.105 74.0409 115.506L74.0129 117.13L74.1109 120H72.2489L72.3469 117.298L72.2629 110.312L74.1249 110.172L74.0549 114.414H74.1389C74.6522 113.947 75.2169 113.611 75.8329 113.406C76.5422 113.406 77.0789 113.569 77.4429 113.896C77.8162 114.213 77.9982 114.675 77.9889 115.282L77.9469 117.144L78.0169 120H76.1549L76.2529 115.94ZM82.3597 113.364C83.3117 113.364 84.0397 113.644 84.5437 114.204C85.0477 114.764 85.2997 115.571 85.2997 116.626C85.2997 117.765 85.029 118.637 84.4877 119.244C83.9464 119.841 83.167 120.14 82.1497 120.14C81.1977 120.14 80.4697 119.86 79.9657 119.3C79.4617 118.74 79.2097 117.933 79.2097 116.878C79.2097 115.739 79.4804 114.871 80.0217 114.274C80.563 113.667 81.3424 113.364 82.3597 113.364ZM82.2337 114.624C81.7857 114.624 81.459 114.773 81.2537 115.072C81.0577 115.371 80.9597 115.851 80.9597 116.514C80.9597 117.373 81.0624 117.984 81.2677 118.348C81.473 118.712 81.809 118.894 82.2757 118.894C82.7237 118.894 83.0457 118.749 83.2417 118.46C83.447 118.161 83.5497 117.676 83.5497 117.004C83.5497 116.155 83.4424 115.548 83.2277 115.184C83.0224 114.811 82.691 114.624 82.2337 114.624ZM90.0916 113.476C90.1756 113.476 90.2923 113.485 90.4416 113.504V115.226L90.2456 115.296C90.087 115.231 89.9143 115.198 89.7276 115.198C89.1863 115.198 88.6963 115.548 88.2576 116.248V117.13L88.3556 120H86.4936L86.6056 117.312L86.5216 113.616L88.2856 113.462L88.2716 114.736H88.3836C88.841 113.896 89.4103 113.476 90.0916 113.476ZM93.7861 113.364C94.5048 113.364 95.0648 113.527 95.4661 113.854C95.8768 114.171 96.0821 114.619 96.0821 115.198C96.0821 115.366 96.0541 115.898 95.9981 116.794C95.9888 117.055 95.9748 117.326 95.9561 117.606C95.9375 117.877 95.9281 118.11 95.9281 118.306C95.9281 118.465 95.9515 118.577 95.9981 118.642C96.0448 118.698 96.1288 118.726 96.2501 118.726C96.3435 118.726 96.4648 118.707 96.6141 118.67L96.7541 118.782L96.5861 119.762C96.2875 119.958 95.9468 120.075 95.5641 120.112C95.2841 120.084 95.0508 119.986 94.8641 119.818C94.6775 119.641 94.5515 119.398 94.4861 119.09H94.3881C93.9215 119.585 93.4408 119.93 92.9461 120.126C92.2741 120.117 91.7468 119.939 91.3641 119.594C90.9815 119.249 90.7901 118.777 90.7901 118.18C90.7901 117.713 90.9068 117.349 91.1401 117.088C91.3828 116.817 91.7468 116.635 92.2321 116.542L94.3741 116.136V115.562C94.3741 114.955 94.0755 114.652 93.4781 114.652C93.1888 114.652 92.8808 114.717 92.5541 114.848C92.2368 114.979 91.8775 115.184 91.4761 115.464L91.3361 115.38L91.1261 114.148C91.5275 113.896 91.9568 113.705 92.4141 113.574C92.8715 113.434 93.3288 113.364 93.7861 113.364ZM92.8761 117.396C92.7268 117.433 92.6148 117.499 92.5401 117.592C92.4748 117.676 92.4421 117.807 92.4421 117.984C92.4421 118.227 92.5075 118.418 92.6381 118.558C92.7688 118.689 92.9508 118.754 93.1841 118.754C93.5481 118.754 93.9308 118.539 94.3321 118.11L94.3601 117.074L92.8761 117.396ZM105.68 120L105.792 115.94C105.792 115.249 105.498 114.904 104.91 114.904C104.49 114.904 104.052 115.091 103.594 115.464L103.552 117.144L103.636 120H101.774L101.886 115.94C101.896 115.604 101.821 115.347 101.662 115.17C101.513 114.993 101.294 114.904 101.004 114.904C100.594 114.904 100.141 115.1 99.6463 115.492V117.13L99.7303 120H97.8823L97.9803 117.312L97.9103 113.616L99.6603 113.462V114.414H99.7583C100.272 113.947 100.836 113.611 101.452 113.406C102.498 113.406 103.165 113.756 103.454 114.456H103.538C104.07 113.961 104.677 113.611 105.358 113.406C106.068 113.406 106.604 113.569 106.968 113.896C107.342 114.213 107.519 114.675 107.5 115.282L107.458 117.144L107.542 120H105.68ZM113.856 113.364C114.575 113.364 115.135 113.527 115.536 113.854C115.947 114.171 116.152 114.619 116.152 115.198C116.152 115.366 116.124 115.898 116.068 116.794C116.059 117.055 116.045 117.326 116.026 117.606C116.008 117.877 115.998 118.11 115.998 118.306C115.998 118.465 116.022 118.577 116.068 118.642C116.115 118.698 116.199 118.726 116.32 118.726C116.414 118.726 116.535 118.707 116.684 118.67L116.824 118.782L116.656 119.762C116.358 119.958 116.017 120.075 115.634 120.112C115.354 120.084 115.121 119.986 114.934 119.818C114.748 119.641 114.622 119.398 114.556 119.09H114.458C113.992 119.585 113.511 119.93 113.016 120.126C112.344 120.117 111.817 119.939 111.434 119.594C111.052 119.249 110.86 118.777 110.86 118.18C110.86 117.713 110.977 117.349 111.21 117.088C111.453 116.817 111.817 116.635 112.302 116.542L114.444 116.136V115.562C114.444 114.955 114.146 114.652 113.548 114.652C113.259 114.652 112.951 114.717 112.624 114.848C112.307 114.979 111.948 115.184 111.546 115.464L111.406 115.38L111.196 114.148C111.598 113.896 112.027 113.705 112.484 113.574C112.942 113.434 113.399 113.364 113.856 113.364ZM112.946 117.396C112.797 117.433 112.685 117.499 112.61 117.592C112.545 117.676 112.512 117.807 112.512 117.984C112.512 118.227 112.578 118.418 112.708 118.558C112.839 118.689 113.021 118.754 113.254 118.754C113.618 118.754 114.001 118.539 114.402 118.11L114.43 117.074L112.946 117.396ZM29.8727 129.364C30.1807 129.364 30.4841 129.397 30.7827 129.462C31.0907 129.518 31.3614 129.602 31.5947 129.714L31.2867 131.198L31.1327 131.268C30.6567 131.007 30.2321 130.876 29.8587 130.876C29.4294 130.876 29.0981 131.03 28.8647 131.338C28.6314 131.646 28.5147 132.085 28.5147 132.654C28.5147 133.307 28.6407 133.807 28.8927 134.152C29.1447 134.497 29.5041 134.67 29.9707 134.67C30.3907 134.67 30.8574 134.553 31.3707 134.32L31.5107 134.432L31.3287 135.874C30.7687 136.051 30.1947 136.14 29.6067 136.14C28.7107 136.14 28.0107 135.851 27.5067 135.272C27.0027 134.684 26.7507 133.867 26.7507 132.822C26.7507 131.739 27.0261 130.895 27.5767 130.288C28.1274 129.672 28.8927 129.364 29.8727 129.364ZM35.2874 129.364C36.2394 129.364 36.9674 129.644 37.4714 130.204C37.9754 130.764 38.2274 131.571 38.2274 132.626C38.2274 133.765 37.9568 134.637 37.4154 135.244C36.8741 135.841 36.0948 136.14 35.0774 136.14C34.1254 136.14 33.3974 135.86 32.8934 135.3C32.3894 134.74 32.1374 133.933 32.1374 132.878C32.1374 131.739 32.4081 130.871 32.9494 130.274C33.4908 129.667 34.2701 129.364 35.2874 129.364ZM35.1614 130.624C34.7134 130.624 34.3868 130.773 34.1814 131.072C33.9854 131.371 33.8874 131.851 33.8874 132.514C33.8874 133.373 33.9901 133.984 34.1954 134.348C34.4008 134.712 34.7368 134.894 35.2034 134.894C35.6514 134.894 35.9734 134.749 36.1694 134.46C36.3748 134.161 36.4774 133.676 36.4774 133.004C36.4774 132.155 36.3701 131.548 36.1554 131.184C35.9501 130.811 35.6188 130.624 35.1614 130.624ZM42.2054 129.364C43.1574 129.364 43.8854 129.644 44.3894 130.204C44.8934 130.764 45.1454 131.571 45.1454 132.626C45.1454 133.765 44.8747 134.637 44.3334 135.244C43.7921 135.841 43.0127 136.14 41.9954 136.14C41.0434 136.14 40.3154 135.86 39.8114 135.3C39.3074 134.74 39.0554 133.933 39.0554 132.878C39.0554 131.739 39.3261 130.871 39.8674 130.274C40.4087 129.667 41.1881 129.364 42.2054 129.364ZM42.0794 130.624C41.6314 130.624 41.3047 130.773 41.0994 131.072C40.9034 131.371 40.8054 131.851 40.8054 132.514C40.8054 133.373 40.9081 133.984 41.1134 134.348C41.3187 134.712 41.6547 134.894 42.1214 134.894C42.5694 134.894 42.8914 134.749 43.0874 134.46C43.2927 134.161 43.3954 133.676 43.3954 133.004C43.3954 132.155 43.2881 131.548 43.0734 131.184C42.8681 130.811 42.5367 130.624 42.0794 130.624ZM49.9374 129.476C50.0214 129.476 50.138 129.485 50.2874 129.504V131.226L50.0914 131.296C49.9327 131.231 49.76 131.198 49.5734 131.198C49.032 131.198 48.542 131.548 48.1034 132.248V133.13L48.2014 136H46.3394L46.4514 133.312L46.3674 129.616L48.1314 129.462L48.1174 130.736H48.2294C48.6867 129.896 49.256 129.476 49.9374 129.476ZM56.6385 133.13L56.6805 134.306C56.6805 134.465 56.6992 134.577 56.7365 134.642C56.7832 134.698 56.8625 134.726 56.9745 134.726C57.0772 134.726 57.2032 134.707 57.3525 134.67L57.4785 134.782L57.3245 135.762C57.0072 135.958 56.6619 136.075 56.2885 136.112C55.9992 136.084 55.7565 135.986 55.5605 135.818C55.3645 135.65 55.2292 135.421 55.1545 135.132H55.0425C54.5852 135.552 54.1185 135.874 53.6425 136.098C52.7279 136.098 52.0185 135.809 51.5145 135.23C51.0105 134.642 50.7585 133.83 50.7585 132.794C50.7585 131.693 51.0479 130.848 51.6265 130.26C52.2052 129.672 53.0079 129.378 54.0345 129.378C54.3052 129.378 54.6039 129.406 54.9305 129.462L54.9025 126.312L56.7505 126.172L56.6385 133.13ZM53.9085 130.638C52.9752 130.638 52.5085 131.231 52.5085 132.416C52.5085 133.153 52.6205 133.709 52.8445 134.082C53.0685 134.455 53.3952 134.642 53.8245 134.642C54.2352 134.642 54.6132 134.451 54.9585 134.068L54.9865 133.298L54.9445 130.89C54.5805 130.722 54.2352 130.638 53.9085 130.638ZM63.6157 132.976L59.8357 133.004C59.9197 134.171 60.5123 134.754 61.6137 134.754C62.1923 134.754 62.8363 134.591 63.5457 134.264L63.6997 134.362L63.4197 135.748C62.7103 136.009 62.043 136.14 61.4177 136.14C60.391 136.14 59.5837 135.841 58.9957 135.244C58.417 134.647 58.1277 133.821 58.1277 132.766C58.1277 131.721 58.4123 130.895 58.9817 130.288C59.551 129.672 60.321 129.364 61.2917 129.364C62.1223 129.364 62.7617 129.593 63.2097 130.05C63.667 130.498 63.8957 131.128 63.8957 131.94C63.8957 132.155 63.8723 132.425 63.8257 132.752L63.6157 132.976ZM62.2717 131.73C62.2717 131.357 62.1877 131.077 62.0197 130.89C61.8517 130.694 61.6043 130.596 61.2777 130.596C60.9137 130.596 60.6103 130.717 60.3677 130.96C60.125 131.193 59.9617 131.534 59.8777 131.982L62.2437 131.926L62.2717 131.73ZM69.1832 131.94C69.1925 131.613 69.1179 131.361 68.9592 131.184C68.8099 130.997 68.5905 130.904 68.3012 130.904C67.8812 130.904 67.4332 131.105 66.9572 131.506V133.13L67.0412 136H65.1792L65.2772 133.312L65.2072 129.616L66.9712 129.462V130.414H67.0692C67.5825 129.947 68.1425 129.611 68.7492 129.406C69.4585 129.406 69.9999 129.569 70.3732 129.896C70.7465 130.213 70.9239 130.675 70.9052 131.282L70.8632 133.144L70.9472 136H69.0712L69.1832 131.94ZM75.1514 129.364C75.87 129.364 76.43 129.527 76.8314 129.854C77.242 130.171 77.4474 130.619 77.4474 131.198C77.4474 131.366 77.4194 131.898 77.3634 132.794C77.354 133.055 77.34 133.326 77.3214 133.606C77.3027 133.877 77.2934 134.11 77.2934 134.306C77.2934 134.465 77.3167 134.577 77.3634 134.642C77.41 134.698 77.494 134.726 77.6154 134.726C77.7087 134.726 77.83 134.707 77.9794 134.67L78.1194 134.782L77.9514 135.762C77.6527 135.958 77.312 136.075 76.9294 136.112C76.6494 136.084 76.416 135.986 76.2294 135.818C76.0427 135.641 75.9167 135.398 75.8514 135.09H75.7534C75.2867 135.585 74.806 135.93 74.3114 136.126C73.6394 136.117 73.112 135.939 72.7294 135.594C72.3467 135.249 72.1554 134.777 72.1554 134.18C72.1554 133.713 72.272 133.349 72.5054 133.088C72.748 132.817 73.112 132.635 73.5974 132.542L75.7394 132.136V131.562C75.7394 130.955 75.4407 130.652 74.8434 130.652C74.554 130.652 74.246 130.717 73.9194 130.848C73.602 130.979 73.2427 131.184 72.8414 131.464L72.7014 131.38L72.4914 130.148C72.8927 129.896 73.322 129.705 73.7794 129.574C74.2367 129.434 74.694 129.364 75.1514 129.364ZM74.2414 133.396C74.092 133.433 73.98 133.499 73.9054 133.592C73.84 133.676 73.8074 133.807 73.8074 133.984C73.8074 134.227 73.8727 134.418 74.0034 134.558C74.134 134.689 74.316 134.754 74.5494 134.754C74.9134 134.754 75.296 134.539 75.6974 134.11L75.7254 133.074L74.2414 133.396ZM82.0036 129.364C82.3116 129.364 82.6149 129.397 82.9136 129.462C83.2216 129.518 83.4923 129.602 83.7256 129.714L83.4176 131.198L83.2636 131.268C82.7876 131.007 82.3629 130.876 81.9896 130.876C81.5603 130.876 81.2289 131.03 80.9956 131.338C80.7623 131.646 80.6456 132.085 80.6456 132.654C80.6456 133.307 80.7716 133.807 81.0236 134.152C81.2756 134.497 81.6349 134.67 82.1016 134.67C82.5216 134.67 82.9883 134.553 83.5016 134.32L83.6416 134.432L83.4596 135.874C82.8996 136.051 82.3256 136.14 81.7376 136.14C80.8416 136.14 80.1416 135.851 79.6376 135.272C79.1336 134.684 78.8816 133.867 78.8816 132.822C78.8816 131.739 79.1569 130.895 79.7076 130.288C80.2583 129.672 81.0236 129.364 82.0036 129.364ZM81.9896 136.672L82.4656 136.938C82.6709 137.05 82.8156 137.171 82.8996 137.302C82.9929 137.442 83.0396 137.596 83.0396 137.764C83.0396 138.072 82.9183 138.324 82.6756 138.52C82.4329 138.716 82.1156 138.814 81.7236 138.814C81.3036 138.814 80.9209 138.683 80.5756 138.422L80.7016 137.638L80.7856 137.596C81.0656 137.876 81.3409 138.016 81.6116 138.016C81.8356 138.016 81.9476 137.918 81.9476 137.722C81.9476 137.657 81.9289 137.601 81.8916 137.554C81.8543 137.517 81.7936 137.479 81.7096 137.442L81.0236 137.05L81.3456 135.636H82.2416L81.9896 136.672ZM87.1416 129.364C87.8603 129.364 88.4203 129.527 88.8216 129.854C89.2323 130.171 89.4376 130.619 89.4376 131.198C89.4376 131.366 89.4096 131.898 89.3536 132.794C89.3443 133.055 89.3303 133.326 89.3116 133.606C89.2929 133.877 89.2836 134.11 89.2836 134.306C89.2836 134.465 89.3069 134.577 89.3536 134.642C89.4003 134.698 89.4843 134.726 89.6056 134.726C89.6989 134.726 89.8203 134.707 89.9696 134.67L90.1096 134.782L89.9416 135.762C89.6429 135.958 89.3023 136.075 88.9196 136.112C88.6396 136.084 88.4063 135.986 88.2196 135.818C88.0329 135.641 87.9069 135.398 87.8416 135.09H87.7436C87.2769 135.585 86.7963 135.93 86.3016 136.126C85.6296 136.117 85.1023 135.939 84.7196 135.594C84.3369 135.249 84.1456 134.777 84.1456 134.18C84.1456 133.713 84.2623 133.349 84.4956 133.088C84.7383 132.817 85.1023 132.635 85.5876 132.542L87.7296 132.136V131.562C87.7296 130.955 87.4309 130.652 86.8336 130.652C86.5443 130.652 86.2363 130.717 85.9096 130.848C85.5923 130.979 85.2329 131.184 84.8316 131.464L84.6916 131.38L84.4816 130.148C84.8829 129.896 85.3123 129.705 85.7696 129.574C86.2269 129.434 86.6843 129.364 87.1416 129.364ZM86.2316 133.396C86.0823 133.433 85.9703 133.499 85.8956 133.592C85.8303 133.676 85.7976 133.807 85.7976 133.984C85.7976 134.227 85.8629 134.418 85.9936 134.558C86.1243 134.689 86.3063 134.754 86.5396 134.754C86.9036 134.754 87.2863 134.539 87.6876 134.11L87.7156 133.074L86.2316 133.396ZM89.4376 126.732V126.886L88.4576 128.132L88.2756 128.202C88.0236 128.174 87.6363 128.085 87.1136 127.936C87.0669 127.927 86.9129 127.889 86.6516 127.824C86.3996 127.749 86.2223 127.712 86.1196 127.712C86.0169 127.712 85.9143 127.754 85.8116 127.838C85.7183 127.922 85.6156 128.025 85.5036 128.146C85.3916 128.267 85.3076 128.361 85.2516 128.426H85.0836L84.5236 127.88V127.726L85.5176 126.48L85.6856 126.41C85.9096 126.438 86.3063 126.531 86.8756 126.69C87.3983 126.83 87.7203 126.9 87.8416 126.9C87.9536 126.9 88.0609 126.853 88.1636 126.76C88.2756 126.667 88.3876 126.559 88.4996 126.438C88.6116 126.317 88.6863 126.233 88.7236 126.186H88.8916L89.4376 126.732ZM94.0218 129.364C94.9738 129.364 95.7018 129.644 96.2058 130.204C96.7098 130.764 96.9618 131.571 96.9618 132.626C96.9618 133.765 96.6912 134.637 96.1498 135.244C95.6085 135.841 94.8292 136.14 93.8118 136.14C92.8598 136.14 92.1318 135.86 91.6278 135.3C91.1238 134.74 90.8718 133.933 90.8718 132.878C90.8718 131.739 91.1425 130.871 91.6838 130.274C92.2252 129.667 93.0045 129.364 94.0218 129.364ZM93.8958 130.624C93.4478 130.624 93.1212 130.773 92.9158 131.072C92.7198 131.371 92.6218 131.851 92.6218 132.514C92.6218 133.373 92.7245 133.984 92.9298 134.348C93.1352 134.712 93.4712 134.894 93.9378 134.894C94.3858 134.894 94.7078 134.749 94.9038 134.46C95.1092 134.161 95.2118 133.676 95.2118 133.004C95.2118 132.155 95.1045 131.548 94.8898 131.184C94.6845 130.811 94.3532 130.624 93.8958 130.624ZM108.155 136L108.267 131.94C108.267 131.249 107.973 130.904 107.385 130.904C106.965 130.904 106.526 131.091 106.069 131.464L106.027 133.144L106.111 136H104.249L104.361 131.94C104.37 131.604 104.296 131.347 104.137 131.17C103.988 130.993 103.768 130.904 103.479 130.904C103.068 130.904 102.616 131.1 102.121 131.492V133.13L102.205 136H100.357L100.455 133.312L100.385 129.616L102.135 129.462V130.414H102.233C102.746 129.947 103.311 129.611 103.927 129.406C104.972 129.406 105.64 129.756 105.929 130.456H106.013C106.545 129.961 107.152 129.611 107.833 129.406C108.542 129.406 109.079 129.569 109.443 129.896C109.816 130.213 109.994 130.675 109.975 131.282L109.933 133.144L110.017 136H108.155ZM114.352 129.364C115.304 129.364 116.032 129.644 116.536 130.204C117.04 130.764 117.292 131.571 117.292 132.626C117.292 133.765 117.021 134.637 116.48 135.244C115.939 135.841 115.159 136.14 114.142 136.14C113.19 136.14 112.462 135.86 111.958 135.3C111.454 134.74 111.202 133.933 111.202 132.878C111.202 131.739 111.473 130.871 112.014 130.274C112.555 129.667 113.335 129.364 114.352 129.364ZM114.226 130.624C113.778 130.624 113.451 130.773 113.246 131.072C113.05 131.371 112.952 131.851 112.952 132.514C112.952 133.373 113.055 133.984 113.26 134.348C113.465 134.712 113.801 134.894 114.268 134.894C114.716 134.894 115.038 134.749 115.234 134.46C115.439 134.161 115.542 133.676 115.542 133.004C115.542 132.155 115.435 131.548 115.22 131.184C115.015 130.811 114.683 130.624 114.226 130.624ZM121.2 134.628C121.499 134.628 121.811 134.549 122.138 134.39L122.292 134.53L122.11 135.636C121.634 135.879 121.149 136.028 120.654 136.084C119.394 135.953 118.764 135.337 118.764 134.236L118.834 133.074L118.82 130.666H117.952L117.882 130.568L117.98 129.546H118.806V128.468L120.5 127.922L120.626 128.034L120.584 129.546H122.25L122.306 129.644L122.222 130.666H120.556L120.472 133.802C120.472 134.101 120.528 134.315 120.64 134.446C120.752 134.567 120.939 134.628 121.2 134.628ZM125.905 129.364C126.857 129.364 127.585 129.644 128.089 130.204C128.593 130.764 128.845 131.571 128.845 132.626C128.845 133.765 128.574 134.637 128.033 135.244C127.491 135.841 126.712 136.14 125.695 136.14C124.743 136.14 124.015 135.86 123.511 135.3C123.007 134.74 122.755 133.933 122.755 132.878C122.755 131.739 123.025 130.871 123.567 130.274C124.108 129.667 124.887 129.364 125.905 129.364ZM125.779 130.624C125.331 130.624 125.004 130.773 124.799 131.072C124.603 131.371 124.505 131.851 124.505 132.514C124.505 133.373 124.607 133.984 124.813 134.348C125.018 134.712 125.354 134.894 125.821 134.894C126.269 134.894 126.591 134.749 126.787 134.46C126.992 134.161 127.095 133.676 127.095 133.004C127.095 132.155 126.987 131.548 126.773 131.184C126.567 130.811 126.236 130.624 125.779 130.624ZM133.637 129.476C133.721 129.476 133.837 129.485 133.987 129.504V131.226L133.791 131.296C133.632 131.231 133.459 131.198 133.273 131.198C132.731 131.198 132.241 131.548 131.803 132.248V133.13L131.901 136H130.039L130.151 133.312L130.067 129.616L131.831 129.462L131.817 130.736H131.929C132.386 129.896 132.955 129.476 133.637 129.476ZM137.331 129.364C138.05 129.364 138.61 129.527 139.011 129.854C139.422 130.171 139.627 130.619 139.627 131.198C139.627 131.366 139.599 131.898 139.543 132.794C139.534 133.055 139.52 133.326 139.501 133.606C139.482 133.877 139.473 134.11 139.473 134.306C139.473 134.465 139.496 134.577 139.543 134.642C139.59 134.698 139.674 134.726 139.795 134.726C139.888 134.726 140.01 134.707 140.159 134.67L140.299 134.782L140.131 135.762C139.832 135.958 139.492 136.075 139.109 136.112C138.829 136.084 138.596 135.986 138.409 135.818C138.222 135.641 138.096 135.398 138.031 135.09H137.933C137.466 135.585 136.986 135.93 136.491 136.126C135.819 136.117 135.292 135.939 134.909 135.594C134.526 135.249 134.335 134.777 134.335 134.18C134.335 133.713 134.452 133.349 134.685 133.088C134.928 132.817 135.292 132.635 135.777 132.542L137.919 132.136V131.562C137.919 130.955 137.62 130.652 137.023 130.652C136.734 130.652 136.426 130.717 136.099 130.848C135.782 130.979 135.422 131.184 135.021 131.464L134.881 131.38L134.671 130.148C135.072 129.896 135.502 129.705 135.959 129.574C136.416 129.434 136.874 129.364 137.331 129.364ZM136.421 133.396C136.272 133.433 136.16 133.499 136.085 133.592C136.02 133.676 135.987 133.807 135.987 133.984C135.987 134.227 136.052 134.418 136.183 134.558C136.314 134.689 136.496 134.754 136.729 134.754C137.093 134.754 137.476 134.539 137.877 134.11L137.905 133.074L136.421 133.396Z" fill="white"/>
<defs>
<filter id="filter0_b_206:36430" x="3" y="67" width="161" height="97" filterUnits="userSpaceOnUse" color-interpolation-filters="sRGB">
<feFlood flood-opacity="0" result="BackgroundImageFix"/>
<feGaussianBlur in="BackgroundImage" stdDeviation="5"/>
<feComposite in2="SourceAlpha" operator="in" result="effect1_backgroundBlur_206:36430"/>
<feBlend mode="normal" in="SourceGraphic" in2="effect1_backgroundBlur_206:36430" result="shape"/>
</filter>
<linearGradient id="paint0_linear_206:36430" x1="45.9996" y1="132.492" x2="62" y2="132.492" gradientUnits="userSpaceOnUse">
<stop stop-color="#FEBB87"/>
<stop offset="0.39" stop-color="#FEB384"/>
<stop offset="0.99" stop-color="#FF9D7A"/>
<stop offset="1" stop-color="#FF9D7A"/>
</linearGradient>
<linearGradient id="paint1_linear_206:36430" x1="2132.56" y1="1522.7" x2="2301.68" y2="1522.7" gradientUnits="userSpaceOnUse">
<stop stop-color="#FEBB87"/>
<stop offset="0.39" stop-color="#FEB384"/>
<stop offset="0.99" stop-color="#FF9D7A"/>
<stop offset="1" stop-color="#FF9D7A"/>
</linearGradient>
<linearGradient id="paint2_linear_206:36430" x1="9710.48" y1="3001.7" x2="11200.6" y2="3001.7" gradientUnits="userSpaceOnUse">
<stop stop-color="#FEBB87"/>
<stop offset="0.39" stop-color="#FEB384"/>
<stop offset="0.99" stop-color="#FF9D7A"/>
<stop offset="1" stop-color="#FF9D7A"/>
</linearGradient>
<linearGradient id="paint3_linear_206:36430" x1="3901.8" y1="3945.8" x2="4166.6" y2="3945.8" gradientUnits="userSpaceOnUse">
<stop stop-color="#FEBB87"/>
<stop offset="0.39" stop-color="#FEB384"/>
<stop offset="0.99" stop-color="#FF9D7A"/>
<stop offset="1" stop-color="#FF9D7A"/>
</linearGradient>
<linearGradient id="paint4_linear_206:36430" x1="5704.6" y1="1625.84" x2="6299.2" y2="1625.84" gradientUnits="userSpaceOnUse">
<stop stop-color="#FEBB87"/>
<stop offset="0.39" stop-color="#FEB384"/>
<stop offset="0.99" stop-color="#FF9D7A"/>
<stop offset="1" stop-color="#FF9D7A"/>
</linearGradient>
<linearGradient id="paint5_linear_206:36430" x1="1297.55" y1="439.56" x2="1321.46" y2="439.56" gradientUnits="userSpaceOnUse">
<stop stop-color="#FEBB87"/>
<stop offset="0.39" stop-color="#FEB384"/>
<stop offset="0.99" stop-color="#FF9D7A"/>
<stop offset="1" stop-color="#FF9D7A"/>
</linearGradient>
<linearGradient id="paint6_linear_206:36430" x1="4122.53" y1="887.24" x2="4329.17" y2="887.24" gradientUnits="userSpaceOnUse">
<stop stop-color="#FEBB87"/>
<stop offset="0.39" stop-color="#FEB384"/>
<stop offset="0.99" stop-color="#FF9D7A"/>
<stop offset="1" stop-color="#FF9D7A"/>
</linearGradient>
<linearGradient id="paint7_linear_206:36430" x1="1051" y1="514.66" x2="1059.22" y2="514.66" gradientUnits="userSpaceOnUse">
<stop stop-color="#FEBB87"/>
<stop offset="0.39" stop-color="#FEB384"/>
<stop offset="0.99" stop-color="#FF9D7A"/>
<stop offset="1" stop-color="#FF9D7A"/>
</linearGradient>
<linearGradient id="paint8_linear_206:36430" x1="1040.96" y1="892.82" x2="1050.72" y2="892.82" gradientUnits="userSpaceOnUse">
<stop stop-color="#FEBB87"/>
<stop offset="0.39" stop-color="#FEB384"/>
<stop offset="0.99" stop-color="#FF9D7A"/>
<stop offset="1" stop-color="#FF9D7A"/>
</linearGradient>
<linearGradient id="paint9_linear_206:36430" x1="1484.24" y1="892.46" x2="1500.65" y2="892.46" gradientUnits="userSpaceOnUse">
<stop stop-color="#FEBB87"/>
<stop offset="0.39" stop-color="#FEB384"/>
<stop offset="0.99" stop-color="#FF9D7A"/>
<stop offset="1" stop-color="#FF9D7A"/>
</linearGradient>
<linearGradient id="paint10_linear_206:36430" x1="1018.38" y1="892.18" x2="1030.18" y2="892.18" gradientUnits="userSpaceOnUse">
<stop stop-color="#FEBB87"/>
<stop offset="0.39" stop-color="#FEB384"/>
<stop offset="0.99" stop-color="#FF9D7A"/>
<stop offset="1" stop-color="#FF9D7A"/>
</linearGradient>
<linearGradient id="paint11_linear_206:36430" x1="1447.12" y1="890.74" x2="1468.12" y2="890.74" gradientUnits="userSpaceOnUse">
<stop stop-color="#FEBB87"/>
<stop offset="0.39" stop-color="#FEB384"/>
<stop offset="0.99" stop-color="#FF9D7A"/>
<stop offset="1" stop-color="#FF9D7A"/>
</linearGradient>
</defs>
</svg>
