<svg width="167" height="167" viewBox="0 0 167 167" fill="none" xmlns="http://www.w3.org/2000/svg">
<mask id="mask0_206:36458" style="mask-type:alpha" maskUnits="userSpaceOnUse" x="0" y="0" width="167" height="167">
<rect x="1" y="1" width="165" height="165" rx="8" fill="#5988D6" stroke="#EDE6FC" stroke-opacity="0.3"/>
</mask>
<g mask="url(#mask0_206:36458)">
<rect x="1" y="1" width="165" height="165" rx="8" fill="#A97AD9" stroke="#EDE6FC" stroke-opacity="0.3"/>
<path d="M124.565 135H116.545C116.511 134.977 116.478 134.951 116.447 134.924C116.273 134.786 116.142 134.608 116.068 134.408C115.994 134.209 115.98 133.994 116.027 133.787C116.17 133.411 116.455 133.095 116.83 132.895C117.581 132.396 118.587 131.976 118.53 131.073C118.44 129.716 122.786 129.771 123.064 130.546C123.506 131.772 124.805 132.1 124.97 133.26C125.135 134.421 124.565 135 124.565 135Z" fill="#FF9166"/>
<path d="M88.3399 21.8015C88.3399 21.8015 89.0899 23.7324 86.2925 25.8015C87.4086 25.2527 88.5816 25.0657 89.2925 22.6348C88.5816 21.8828 88.3399 21.8015 88.3399 21.8015Z" fill="#5C1C1D"/>
<path d="M101.64 27C101.64 27 100.21 29.9027 102 32.5622C101.485 32.2151 101.062 31.746 100.767 31.1956C100.471 30.6453 100.313 30.0303 100.306 29.4041C100.146 31.3297 100.486 31.877 101.223 33C100.399 32.5853 99.7335 31.907 99.3292 31.0703C99.1 30.3043 98.9893 29.507 99.0008 28.7068C99.0008 28.7068 99.169 27.7054 99.2851 27.6568C99.4012 27.6081 101.64 27 101.64 27Z" fill="#5C1C1D"/>
<path d="M47 135H45C45 134.868 45.0342 134.738 45.1005 134.616C45.1669 134.495 45.2642 134.384 45.3867 134.291C45.5093 134.199 45.6548 134.125 45.8149 134.075C45.9749 134.025 46.1463 133.999 46.3194 134H47V135Z" fill="#FF9166"/>
<path d="M43.3939 41.3555L44 40C43.8103 40.0284 43.6308 40.1144 43.4805 40.249C43.3162 40.473 43.1763 40.7186 43.0638 40.9805C42.7932 41.6752 43.4642 42.7572 43.5806 43C43.4588 42.207 43.3939 41.3555 43.3939 41.3555Z" fill="#FF7461"/>
<path d="M46.7499 40.8282L46.8541 41.7014L46.4894 42L45.0411 41.0951C45.0035 41.0276 44.9913 40.9514 45.0062 40.8775C45.0212 40.8036 45.0625 40.7357 45.1244 40.6834C45.3432 40.4752 45.4943 40.1721 45.8017 40.1042C46.0955 40.0205 46.405 39.9867 46.7135 40.0047C46.8164 40.0608 46.9124 40.126 47 40.1992C46.9372 40.4146 46.8536 40.625 46.7499 40.8282Z" fill="#FF9166"/>
<path d="M45.1692 43.6406C45.1457 43.3789 44.6598 42.3199 44.648 42.189C44.6363 42.0582 44.3267 41.5307 44.315 41.4162C44.0465 41.1525 43.7508 40.9207 43.4333 40.7252L44.8988 39.0078C44.6291 38.9788 44.3571 39.0313 44.1151 39.1591C43.8541 39.445 43.6192 39.7557 43.4137 40.0873C43.0819 40.5947 42.9423 41.2124 43.0218 41.821V41.8701C43.1067 42.5617 43.3878 43.2111 43.829 43.7347C44.7343 44.8101 46 46 46 46C46 46 45.1927 43.9146 45.1692 43.6406Z" fill="#FF9166"/>
<path d="M62 132.648C62 134.27 61.3387 135 61.3387 135H46.248C46.248 135 45.69 134.203 46.248 133.804C46.3733 133.716 46.5216 133.672 46.6723 133.676C49.7302 133.644 52.0504 132.731 55.2917 130.586L56.1594 130H61.3387C61.7167 130.831 61.941 131.73 62 132.648Z" fill="url(#paint0_linear_206:36458)"/>
<path d="M124.936 129.628C124.106 129.959 123.227 130.154 122.335 130.202C121.787 130.235 121.238 130.226 120.692 130.175C119.78 130.099 118.881 129.916 118.013 129.628C118.013 129.628 111.551 112.247 109.799 103.294C104.781 98.4933 97.3844 89.0208 95.0962 86.0458C94.9124 85.8112 94.7638 85.6157 94.6504 85.4672L94.3922 85.1271C91.1615 85.1271 78.4223 93.501 73.9047 100.139C73.6583 100.503 73.4353 100.862 73.2398 101.21C71.1277 104.807 67.6896 121.664 66.4654 127.892C66.1799 129.342 66.0156 130.238 66.0156 130.238L65.7926 130.308C64.4978 130.673 63.1663 130.894 61.8226 130.965C59.8507 131.084 57.8721 130.901 55.9557 130.421C55.2931 130.256 54.6402 130.053 54 129.815C55.1734 119.291 56.5111 107.731 59.2842 91.3704C62.468 86.2882 69.6375 80.7681 74.0064 77.6875C76.1459 76.1863 77.6126 75.2676 77.6126 75.2676C77.6126 75.2676 83.8708 74.6655 84.6882 75.2676C85.1498 75.6038 87.6413 75.8423 89.8903 76.1628C91.6777 76.4208 93.3127 76.7297 93.6451 77.1793C93.723 77.2996 93.7811 77.4316 93.8172 77.5702C93.8446 77.6758 93.872 77.797 93.8955 77.926L98.0493 77.1441L107.045 76.4639L112.314 78.2739C117.399 85.991 120.477 94.4901 122.319 102.364C124.377 111.299 125.256 120.464 124.936 129.628Z" fill="#FEE1CB"/>
<path d="M106.665 68.9772C106.746 69.3688 106.819 69.7918 106.876 70.2108C86.4027 74.2365 83.801 70.2108 83.801 70.2108C83.3919 69.2634 83.1955 68.2344 83.2262 67.1993C83.686 64.9163 84.4485 61.5915 84.4485 61.5915C84.4485 61.5915 83.7703 59.0931 82.9158 54.0766C82.6246 52.3653 82.3142 50.3641 82 48.0693C82.5863 40.7776 84.4485 38.0403 84.4485 38.0403L84.6631 37.4881L85.7475 37.355C86.4352 37.0827 87.1391 36.8551 87.855 36.6736C88.7753 36.4332 89.7096 36.2527 90.6522 36.1331C91.1887 36.0666 91.7519 36.0196 92.3344 36C92.5796 36 92.8248 36 93.0739 36C93.0739 36 94.8519 36 100.255 36.047H100.328H100.351C104.094 36.8302 105.822 36.8615 107.527 37.868C108.773 45.4495 107.309 52.9331 105.995 57.6167C105.15 60.6125 105.192 63.7967 106.114 66.7686C106.183 66.9996 106.251 67.2385 106.32 67.4774C106.435 67.9551 106.558 68.4603 106.665 68.9772Z" fill="#FFDDC1"/>
<path d="M106.88 69.055C106.717 69.1065 106.743 69.0825 106.553 69.1443C103.248 70.2562 99.7672 70.8827 96.2433 71H95.7877H95.1082H94.2276H93.438H93.0773L92.6484 70.9794L92.3447 70.9588C91.8019 70.9244 91.2438 70.8728 90.6782 70.8076C90.3745 70.7766 90.0709 70.7388 89.771 70.6976L89.3686 70.646L88.8485 70.5704L88.2184 70.4777C85.7244 70.0893 83.6631 69.6357 83.6631 69.6357C83.6631 69.6357 82.3876 68.9691 83.3746 67.756C85.7028 68.3463 88.0752 68.7827 90.4732 69.0619C90.8187 69.0997 91.1717 69.1375 91.5323 69.1649C92.1663 69.2165 92.8154 69.2543 93.4721 69.268C98.4867 69.3849 106.607 67 106.607 67C106.607 67 107.263 68.3471 106.88 69.055Z" fill="#404056"/>
<path d="M113 77.7639C112.774 77.9493 112.53 78.1145 112.272 78.2573C110.566 79.2176 107.761 79.6921 103.822 79.6313C100.132 79.5706 97.9151 81.0357 96.6879 82.3262C96.2281 82.8054 95.8359 83.3387 95.521 83.9127L95.4767 84L95.3158 83.7153L95.1186 81.8176L94.68 77.6425L94 71.1559H94.8772C99.1306 71.1224 103.346 70.393 107.335 69C109.381 71.0225 111.031 73.3701 112.211 75.9345C112.501 76.5645 112.764 77.1743 113 77.7639Z" fill="#FFDDC1"/>
<path d="M51.0125 48.578C50.9646 50.4365 49.2742 51.2354 48.5149 50.9402C47.7556 50.6449 47.8475 49.0296 48.7147 47.331C49.5819 45.6323 51.0365 44.7639 51.7957 45.0557C51.8158 45.0641 51.8346 45.0746 51.8517 45.087C52.4471 45.4517 51.0605 46.7648 51.0125 48.578Z" fill="#89443D"/>
<path d="M84.7845 38.5625C84.7845 38.5625 82.88 41.2395 82.2805 48.3567C82.6018 50.5977 83.1426 53.8026 83.1426 53.8026C83.1426 53.8026 82.112 54.6783 79.6159 56.4337C78.8322 56.9844 78.1738 57.4778 77.59 57.9176C74.988 59.8603 73.7929 60.7591 69.7528 61C58.8396 58.1432 52.0996 52.2307 52.0996 52.2307C51.5456 52.2331 50.9941 52.1584 50.4616 52.0089C49.9264 51.8887 49.4265 51.6507 49 51.3129C49.627 51.5806 50.9044 51.0031 51.3159 49.5881C51.3957 49.3025 51.4391 49.0083 51.4452 48.7123C51.5175 47.7501 51.774 46.8096 52.2015 45.9397C52.4131 45.4157 52.5306 45.0486 52.2838 44.8765L54.5017 46.108C55.3363 46.4904 68.7261 51.3779 68.7261 51.3779C75.8148 42.689 82.2531 39.5912 82.2531 39.5912L83.2797 38.2145C83.8303 38.0219 84.4195 37.9578 85 38.0271L84.7845 38.5625Z" fill="#FEE1CB"/>
<path d="M46 39.3918C45.8112 39.2207 45.6054 39.0887 45.3892 39C44.8341 39.2916 44 41 44 41L46 39.3918Z" fill="#FF9166"/>
<path d="M49.1911 44.8979C48.7217 44.6583 48.1841 44.4108 47.6769 44.187C47.3162 43.2568 46.7809 42.4103 46.102 41.6968L46.6472 41.1626L46.8554 41.9285L47.3399 41.8342L47.1923 40.3692L46.5752 40C45.6318 40.2402 44.7669 40.7363 44.0692 41.4376C43.5051 43.2443 46.5752 46.4925 46.5752 46.4925C48.6573 48.0636 51.1445 50 51.1445 50C51.2218 49.7067 51.2638 49.4046 51.2694 49.1005C51.3416 48.1115 51.5893 47.1448 52 46.249C51.0082 45.817 50.0618 45.3653 49.1911 44.8979Z" fill="url(#paint1_linear_206:36458)"/>
<path d="M122 56.1829C122 56.1829 121.942 60.5049 121.095 61.0809C116.769 64.0205 116.704 62.9837 107.87 67.4685C106.71 68.0525 105.415 68.7357 103.93 69.5302L102.183 70.3763L101.344 70.7736C101.22 70.834 101.091 70.8819 100.957 70.9166C100.758 70.9719 100.553 70.9999 100.347 71C99.776 70.9998 99.2254 70.7834 98.8003 70.3922C98.5492 70.1618 98.3482 69.8797 98.2103 69.5642C98.0724 69.2486 98.0008 68.9068 98 68.5609C98.0007 68.3519 98.0267 68.1437 98.0773 67.9412C98.165 67.6013 98.3527 67.2975 98.6147 67.0713C98.8763 66.8406 99.2027 66.7015 99.5464 66.674L102.179 66.4873C102.566 66.1973 102.952 65.8994 103.339 65.5975C104.046 65.0334 104.738 64.4535 105.407 63.8695C109.389 60.4016 112.644 56.8463 114.918 56.3219C117.774 55.6903 122 56.1829 122 56.1829Z" fill="url(#paint2_linear_206:36458)"/>
<path d="M123 56.4901L122.377 61.1745C120.615 63.7743 110.295 71 110.295 71C108.99 70.3131 107.754 69.4959 106.607 68.5602C105.6 67.7751 104.753 66.798 104.111 65.6832C104.073 65.6051 104.034 65.531 104 65.4529C105.147 63.2551 111.262 57.9344 111.262 57.9344C111.262 57.9344 110.819 57.7471 110.368 55.5454C107.957 53.0663 106.013 50.1551 104.634 46.9573C104.734 44.5332 106.37 38.1077 106.37 38.1077C106.37 38.1077 107.539 37.5495 110.788 38.9744C113.567 42.6711 123 56.4901 123 56.4901Z" fill="#FEE1CB"/>
<path d="M111 58L115.024 54.8464L118 54L111 58Z" fill="#FFCFAB"/>
<path d="M115 56L121 54L118.697 55.2414L115 56Z" fill="#FFCFAB"/>
<path d="M95.993 84.746C95.5342 84.8418 95.069 84.9082 94.6005 84.9445H94.4907C94.0553 84.9776 93.5728 85.0033 93.059 84.9996C92.2195 85.0011 91.3812 84.9384 90.5525 84.8122C88.2343 84.4445 85.7592 83.5217 84.1274 81.4519C82.208 78.9602 79.4876 77.1101 76.3648 76.1726L76 76.0771C76.3295 75.7278 76.6747 75.3786 77.0316 75.044C79.0401 73.187 81.2189 71.4991 83.543 70C83.543 70 85.6768 70.4853 88.25 70.9007C89.9103 71.1804 91.5868 71.367 93.2708 71.4595C93.6944 71.4595 94.5142 71.4853 94.5142 71.4853C95.2127 74.7776 95.6792 78.1095 95.9107 81.4593C95.9617 82.2754 95.9852 82.9519 95.993 83.4703C95.993 83.5953 95.993 83.7129 95.993 83.8195C96.0087 84.4298 95.993 84.746 95.993 84.746Z" fill="#FFDDC1"/>
<path d="M93 34C92.936 34.658 92.856 35.2902 92.756 35.8743C92.148 35.8743 91.556 35.9372 91 36C91 34.5693 93 34 93 34Z" fill="#FF7461"/>
<path d="M93 52.1106C92.7761 52.6491 92.5854 53.1953 92.4154 53.7105C92.1418 54.4543 91.9469 55.3066 91.7313 56C89.4444 49.891 88.1857 43.4874 88 37.0178C88.3925 36.1975 89.0586 35.5179 89.8988 35.0808C90.8007 34.5826 91.7797 34.218 92.801 34C92.2639 34.2711 91.7891 34.6384 91.4038 35.0808C91.1297 35.3878 90.9036 35.7295 90.7322 36.0958C89.8947 39.0129 92.0423 48.2909 93 52.1106Z" fill="#FFBFA6"/>
<path d="M101 34.5075C100.845 35.0187 100.67 35.5171 100.475 36C100.325 35.5037 99.8737 35.0075 100.034 34C100.372 34.101 100.697 34.272 101 34.5075Z" fill="#FF7461"/>
<path d="M101 37.1139H100.641C100.539 37.3121 96.5167 44.7894 93.8237 51.4538C93.7482 51.6362 93.6764 51.8186 93.6047 52.0009C93.4725 52.3379 93.3478 52.6709 93.227 53C92.362 49.0909 90.4056 39.5957 91.1761 36.6263C91.4442 36.5906 91.7237 36.5628 92.007 36.539C92.2903 36.5153 92.5509 36.5034 92.8304 36.4915C92.9248 35.8651 93.0003 35.1871 93.0608 34.4814C93.0834 34.2277 93.1023 33.9779 93.1212 33.7163C93.1816 32.8401 93.2232 31.9282 93.2496 31.0243C93.3705 26.9249 93.1816 23 93.1816 23H99.8858C99.652 24.718 99.5258 26.4503 99.5081 28.1857C99.5081 28.4235 99.5081 28.6654 99.5081 28.9072C99.4926 30.8778 99.707 32.843 100.146 34.759C100.29 35.3326 100.473 35.8944 100.694 36.4399C100.694 36.4756 100.72 36.5073 100.736 36.543C100.815 36.7333 100.906 36.9276 101 37.1139Z" fill="url(#paint3_linear_206:36458)"/>
<path d="M100.138 28.4582C99.8656 28.5155 99.6799 28.7448 99.4259 28.8021C99.3744 28.8098 99.3221 28.8098 99.2706 28.8021H99.0394L98.3079 28.7524C98.3096 28.7702 98.3096 28.7881 98.3079 28.8059L98.6111 28.9435C98.452 29.6492 98.1669 30.3199 97.7697 30.9228C97.5729 31.2175 97.3412 31.4869 97.0799 31.7252C96.7611 32.0164 96.3908 32.2446 95.9883 32.3977C95.0029 32.7798 93.7143 33.162 92.6417 33.4371L92.2627 33.5364C91.2848 33.7963 90.5382 33.9759 90.4434 33.995C89.9841 34.0275 89.5274 33.9015 89.1485 33.6376C88.7697 33.3737 88.4912 32.9876 88.3589 32.5429C88.1005 31.6694 87.9803 30.7603 88.0026 29.8491C88.0026 29.2415 88.0329 28.5155 88.0974 27.6061C88.1239 27.1972 88.158 26.7501 88.1959 26.2572C88.2699 25.3406 88.4754 24.4396 88.8061 23.5825C88.8895 23.3647 88.9842 23.1545 89.0828 22.9482C89.4933 22.0831 90.0384 21.2897 90.6974 20.5982C91.5388 19.7022 92.5675 19.0062 93.7088 18.5608C94.8501 18.1153 96.0754 17.9315 97.2959 18.0228C101.465 18.3667 102.981 20.8465 103 24.4498C102.636 25.7337 100.048 28.1372 100.138 28.4582Z" fill="url(#paint4_linear_206:36458)"/>
<path d="M104 37.064V37.0873C100.159 42.42 97.0063 48.1756 94.6107 54.2292C91.6045 62.0033 91.2624 67.3674 91.2379 69C90.851 68.9689 90.4721 68.9261 90.1014 68.8834C89.6941 64.8758 90.5088 57.9763 92.631 52.5384C92.8266 52.0486 93.0384 51.5705 93.2421 51.1079C93.8639 49.7552 94.4695 48.4725 95.0588 47.2597C97.5355 42.1444 99.5925 38.3662 100.672 36.4382C101.197 35.5014 101.487 35 101.487 35C101.854 35.1545 102.207 35.3378 102.542 35.5481C103.176 35.9025 103.684 36.4306 104 37.064Z" fill="#FFBFA6"/>
<path d="M110 103C110 103 111.662 103.54 117 103C116.032 103.92 110.698 105 110.698 105L110 103Z" fill="#FFCFAB"/>
<path d="M84 88L62 93.1573L67.3218 93.588L80.0223 89.6405L65.8491 100L84 88Z" fill="#FFCFAB"/>
<path d="M66 130.519C64.6753 130.866 63.311 131.027 61.9444 130.996C61.2796 130.981 60.6167 130.916 59.9611 130.801C59.5594 130.736 59.1629 130.64 58.7748 130.515L58 106V106.019L66 130.519Z" fill="#FEE1CB"/>
<path d="M121 131C120.561 131 120.147 131 119.769 131C118.495 131.001 117.226 130.831 116 130.495L116.463 105C116.492 105.138 116.82 107.014 121 131Z" fill="#FEE1CB"/>
<path d="M84.4122 62C84.4122 62 83.4042 50.1246 84.5408 45L85 47.202C85 47.202 84.0861 51.4651 84.4122 62Z" fill="#FFCFAB"/>
<path d="M98.4373 49C98.4373 49 98.4373 56.3373 103 61C101.257 60.1889 99.1413 57.1026 97 51.1421L98.4373 49Z" fill="#FFCFAB"/>
<path d="M68 52L70.6524 59L71 57.1288L68 52Z" fill="#FFCFAB"/>
<path d="M69 51.9619L78.1279 52.4625L81 51L78 54L69 51.9619Z" fill="#FFCFAB"/>
<path d="M68 51C68 51 68.0358 49.31 68.302 48.6458C69.7046 47.9078 77 44 77 44L68 51Z" fill="#FFCFAB"/>
<path d="M103.991 23.0432C103.967 23.5472 103.898 24.0477 103.788 24.5386C103.176 27.3306 100.729 29 100.729 29L100.262 28.5858L98.6351 27.1732L98.3567 26.9288C97.8697 26.8383 97.4123 26.6186 97.0276 26.2904C96.6428 25.9622 96.3432 25.5362 96.1569 25.0523C95.9564 24.5319 95.8462 23.9776 95.8314 23.416C94.7021 23.8717 91.2946 24.0415 89.3654 22.9065C89.0364 22.7238 88.7436 22.4763 88.5027 22.1774C88.3465 21.9845 88.2231 21.7645 88.138 21.527C87.9216 20.8235 87.9608 20.0601 88.2478 19.3854C89.0321 17.2065 91.3848 17.7864 91.3848 17.7864C91.3848 17.7864 91.8671 14.6299 94.8904 14.0582C97.9136 13.4865 99.5174 17.3142 99.5174 17.3142C99.5174 17.3142 104.227 18.1427 103.991 23.0432Z" fill="#7C2712"/>
<path d="M100.903 27.3714C100.665 28.2508 100.052 28.8747 99.416 28.9874C99.2667 29.0099 99.1144 29.0022 98.9681 28.9649H98.9192C98.1665 28.7243 97.8128 27.6984 98.0988 26.631C98.0988 26.5822 98.1251 26.5333 98.1402 26.4845C98.2255 26.2158 98.3525 25.9622 98.5165 25.7328C98.9192 25.1841 99.4913 24.891 100.022 25.0375C100.805 25.2518 101.196 26.2815 100.903 27.3714Z" fill="url(#paint5_linear_206:36458)"/>
<path opacity="0.5" d="M100.903 27.3714C100.665 28.2508 100.052 28.8747 99.416 28.9874C99.2667 29.0099 99.1144 29.0022 98.9681 28.9649H98.9192C98.1665 28.7243 97.8128 27.6984 98.0988 26.631C98.0988 26.5822 98.1251 26.5333 98.1402 26.4845C98.2255 26.2158 98.3525 25.9622 98.5165 25.7328C98.9192 25.1841 99.4913 24.891 100.022 25.0375C100.805 25.2518 101.196 26.2815 100.903 27.3714Z" fill="#FF9166"/>
<path d="M100.905 27.7796C100.616 28.5928 99.7696 29.1265 98.9747 28.974C98.1799 28.8215 97.8052 28.0295 98.1004 27.2163C98.3957 26.4031 99.2359 25.8737 100.036 26.0262C100.837 26.1786 101.183 26.9664 100.905 27.7796Z" fill="#FF9166"/>
<path d="M90.6991 31.8866C90.1609 32.1107 89.6067 32.0014 89.0925 31.5697C89.0743 31.5534 89.0577 31.5287 89.0437 31.4971C89.0297 31.4655 89.0186 31.4276 89.0111 31.3858C89.0036 31.344 88.9998 31.2992 89 31.2539C89.0002 31.2086 89.0043 31.1639 89.0121 31.1224C89.028 31.0403 89.0568 30.9753 89.0926 30.9407C89.1284 30.906 89.1686 30.9044 89.2049 30.936C90.0552 31.5562 90.9768 31.3684 91.7675 30.414C91.7842 30.392 91.8027 30.3784 91.8218 30.3741C91.8409 30.3697 91.8601 30.3748 91.8783 30.3888C91.8965 30.4029 91.9132 30.4257 91.9273 30.4557C91.9415 30.4857 91.9527 30.5224 91.9604 30.5631C91.9769 30.6473 91.9787 30.7433 91.9651 30.8304C91.9516 30.9175 91.924 30.9888 91.8881 31.0292C91.5102 31.4382 91.1103 31.7266 90.6991 31.8866Z" fill="#B2462D"/>
<path d="M88 25C88.2335 24.8612 88.4738 24.8028 88.7138 24.8264L89 24L88.6162 24.2645C88.449 24.2258 88.2803 24.2594 88.1178 24.3636C88.0567 24.547 88.0161 24.7663 88 25Z" fill="#5C1C1D"/>
<path d="M66 127.678C65.7375 129.072 65.5865 129.932 65.5865 129.932L65.3816 130C58.809 109.525 58.0899 107.252 58 107L66 127.678Z" fill="#FFCFAB"/>
<path d="M122 129.981C121.441 130.013 120.881 130.004 120.323 129.954C116.331 106.953 116.024 105.143 116 105L122 129.981Z" fill="#FFCFAB"/>
<path d="M97 82.3803C96.4861 82.8696 96.0477 83.414 95.6957 84C95.6957 83.8876 95.6957 83.7636 95.6957 83.6319C95.6957 83.0855 95.6597 82.3726 95.6012 81.5124C95.3358 77.9818 94.8009 74.4701 94 71H94.9805L97 82.3803Z" fill="#FFCFAB"/>
<path d="M122 103C121.869 102.716 113.634 84.5117 110.555 81.2619C106.221 80.3288 94.4512 86.0372 94.4512 86.0372C94.4512 86.0372 94.2731 85.741 94 85.2744C94.4726 85.2343 94.942 85.1611 95.4049 85.0553C95.4049 85.0553 95.4049 84.7064 95.4049 84.0451C95.7147 83.4315 96.1004 82.8615 96.5526 82.3492C97.7597 80.9698 99.9404 79.4038 103.569 79.4687C107.432 79.5336 110.191 79.0265 111.88 78C117.025 86.0088 120.136 94.829 122 103Z" fill="#FFCFAB"/>
<path d="M101 70.5836C100.574 70.7657 100.133 70.9005 99.6821 70.986C99.5404 71.0145 99.3942 70.9993 99.2601 70.942C99.1259 70.8847 99.0094 70.7876 98.9237 70.6619C98.7609 70.5776 98.6239 70.4443 98.5289 70.2778C98.434 70.1114 98.3852 69.9188 98.3883 69.7231L98.2476 69.5369C98.1461 69.4026 98.0757 69.244 98.0423 69.0742C98.0088 68.9044 98.0133 68.7284 98.0554 68.5609C97.9891 68.3693 97.9821 68.1596 98.0354 67.9634C98.0886 67.7672 98.1992 67.5951 98.3505 67.4731L98.9408 67C98.7082 67.2122 98.5416 67.4971 98.4638 67.8158C98.4188 68.0057 98.3958 68.2009 98.3951 68.3969C98.3958 68.7213 98.4594 69.0418 98.5818 69.3377C98.7042 69.6336 98.8827 69.8982 99.1055 70.1143C99.483 70.4811 99.9717 70.684 100.478 70.6842C100.655 70.6749 100.831 70.6411 101 70.5836Z" fill="#FF9166"/>
<path d="M106 67.9959C105.317 68.3455 104.586 68.7276 103.815 69.1341L102 70C102.056 69.9593 102.45 69.7154 105.012 68.0976C104.1 67.3293 103.406 65.6585 103.197 65.1423L103.378 65C104.052 66.1609 104.943 67.1783 106 67.9959Z" fill="#FF9166"/>
<path d="M101 36.2771C99.9536 38.2851 97.9595 42.1727 95.5587 47.4578C94.9467 48.7751 94.3465 50.1205 93.7976 51.4337C93.5883 51.9116 93.4028 52.4056 93.2053 52.9116C93.1972 52.9419 93.1866 52.9715 93.1737 53C93.1224 48.5301 99.6377 37.6667 99.6377 37.6667L98.848 33.1446L97.4462 34.0522L93 34.2289C93.0237 33.9719 93.0434 33.7189 93.0632 33.4578C94.1886 33.1526 95.5232 32.755 96.5499 32.3655C96.9692 32.2045 97.3549 31.9647 97.6871 31.6586C97.9593 31.4082 98.2007 31.125 98.4057 30.8153C98.7689 30.2574 99.0434 29.6448 99.2192 29H99.2705C99.424 29.0399 99.5837 29.0481 99.7404 29.0241C99.7515 30.8688 99.9741 32.7058 100.404 34.498C100.553 35.0791 100.745 35.6482 100.976 36.2008C100.983 36.2267 100.991 36.2522 101 36.2771Z" fill="#FF9166"/>
<path d="M124.991 135H116.467C116.285 134.863 116.149 134.685 116.071 134.486C115.994 134.286 115.979 134.073 116.028 133.867C116.063 133.744 116.122 133.628 116.201 133.523C116.342 133.347 116.534 133.206 116.757 133.115C116.98 133.024 117.226 132.986 117.471 133.004C119.632 133.142 125.25 133.602 124.991 135Z" fill="url(#paint6_linear_206:36458)"/>
<path d="M125 135.644C125 135.876 124.552 136 124.002 136C123.453 136 123 135.888 123 135.644C123.048 135.462 123.174 135.299 123.356 135.181C123.538 135.064 123.766 135 124 135C124.234 135 124.462 135.064 124.644 135.181C124.826 135.299 124.952 135.462 125 135.644Z" fill="url(#paint7_linear_206:36458)"/>
<path d="M123 135.293C123 135.754 122.553 136 122 136C121.447 136 121 135.754 121 135.293C121.047 134.928 121.172 134.6 121.354 134.364C121.537 134.129 121.765 134 122 134C122.235 134 122.463 134.129 122.646 134.364C122.828 134.6 122.953 134.928 123 135.293Z" fill="url(#paint8_linear_206:36458)"/>
<path d="M122 135.295C122 135.757 121.331 136 120.503 136C119.675 136 119 135.757 119 135.295C119.07 134.929 119.257 134.601 119.531 134.365C119.804 134.129 120.147 134 120.5 134C120.853 134 121.196 134.129 121.469 134.365C121.743 134.601 121.93 134.929 122 135.295Z" fill="url(#paint9_linear_206:36458)"/>
<path d="M120 135.301C120 135.762 119.553 136 119 136C118.447 136 118 135.762 118 135.301C118.043 134.935 118.167 134.605 118.35 134.368C118.532 134.13 118.762 134 119 134C119.238 134 119.468 134.13 119.65 134.368C119.833 134.605 119.957 134.935 120 135.301Z" fill="url(#paint10_linear_206:36458)"/>
<path d="M118 135.271C118 135.828 117.327 136 116.5 136C115.673 136 115 135.828 115 135.271C115.029 134.926 115.199 134.602 115.477 134.367C115.755 134.131 116.121 134 116.5 134C116.879 134 117.245 134.131 117.523 134.367C117.801 134.602 117.971 134.926 118 135.271Z" fill="url(#paint11_linear_206:36458)"/>
<path d="M93 51.9682C92.8985 52.3162 92.8028 52.6602 92.71 53C92.0458 48.9629 90.5436 39.1568 91.1352 36.0901C91.3411 36.0532 91.5557 36.0246 91.7732 36C91.7674 36.8926 91.7935 47.1818 93 51.9682Z" fill="#FF9166"/>
<path opacity="0.5" d="M99 29.4937C98.8268 30.1305 98.5563 30.7356 98.1984 31.2867C97.9964 31.5926 97.7586 31.8723 97.4903 32.1197C97.163 32.422 96.7828 32.6589 96.3696 32.8179C95.358 33.2146 94.035 33.6113 92.9339 33.8969L92.5448 34C92.5448 34 96.5331 30.9733 96.8249 29.4897C96.1607 28.8909 95.6243 28.1594 95.2488 27.3406C94.8733 26.5218 94.6668 25.6331 94.642 24.7295C92.6973 25.0008 90.7186 24.6251 89 23.6585C89.0856 23.4324 89.1829 23.2142 89.2841 23C91.1984 24.0869 94.5837 23.9243 95.7043 23.4879C95.8366 26.5344 98.1401 26.8399 98.2062 26.8518C98.2062 26.9034 98.1751 26.9549 98.1634 27.0065C97.856 28.1569 98.2335 29.2398 99 29.4937Z" fill="#FF9166"/>
<path d="M90.2589 24.2574C91.5777 24.3643 92.8481 24.6164 94 25L93.9137 24.9257C93.8476 24.8643 93.7741 24.8056 93.6936 24.75C93.5139 24.6162 93.3018 24.4979 93.0636 24.3985C92.5909 24.3154 92.1095 24.2492 91.6224 24.2005C91.2686 24.1658 91.0356 24.151 90.8759 24.1386L90.548 24.1287C90.3668 24.0842 90.1899 24.0396 90 24C90.0094 24.0509 90.0373 24.1001 90.0819 24.1444C90.1265 24.1888 90.1868 24.2273 90.2589 24.2574Z" fill="#5C1C1D"/>
<path d="M103.991 23C103.764 19.4827 100.855 18.3516 98.7031 17.9346C95.9589 13.8807 92.4973 16.8902 92.1445 18.9543C87.6441 17.4599 88.138 21.5014 88.138 21.5014C87.9216 20.8003 87.9608 20.0395 88.2478 19.3671C89.0318 17.1957 91.384 17.7736 91.384 17.7736C91.384 17.7736 91.8662 14.6279 94.8887 14.0582C97.9112 13.4885 99.5185 17.2906 99.5185 17.2906C99.5185 17.2906 104.227 18.1163 103.991 23Z" fill="#994126"/>
<path opacity="0.5" d="M98 26.2014C97.8332 26.4451 97.7041 26.7146 97.6173 27C97.5522 27 95.2866 26.6805 95.1565 23.6138C94.0543 24.0531 90.7248 24.2168 88.8419 23.1226C88.5209 22.9466 88.2351 22.708 88 22.4199C88.0842 22.4199 91.2683 21.9247 91.5553 20C91.8117 20.7667 91.3142 22.2002 91.3142 22.2002C91.3142 22.2002 94.7853 22.9989 95.2139 20.5271C95.4933 20.8186 96.473 21.2658 96.3888 23.8135C96.6185 25.0993 97.0126 25.9298 98 26.2014Z" fill="#5C1C1D"/>
<path d="M96 28C94.3239 25.4693 95.2547 23.094 95.2835 23C95.2955 23.5543 95.3855 24.1013 95.549 24.6149C95.2867 25.8904 95.7345 27.2641 96 28Z" fill="#5C1C1D"/>
<path d="M93 85.3303C88.5663 86.7681 78.012 94.0816 74 100L74.6693 97.2604L85.7923 88.0855L74.0928 77.6749C75.0755 76.9793 75.919 76.4119 76.5341 76C79.6142 76.9909 82.2974 78.9465 84.1906 81.5803C85.8 83.7681 88.2413 84.7552 90.5278 85.1321C91.3451 85.2656 92.1719 85.3319 93 85.3303Z" fill="#FFCFAB"/>
<path d="M95.995 69.372L95.8656 70.186L95.7758 70.7287C95.7595 70.8046 95.7078 70.8737 95.63 70.9234C95.5523 70.9732 95.4535 71.0003 95.3516 71H93.806H93.7269C93.6398 70.99 93.5588 70.9602 93.4946 70.9147C93.4305 70.8691 93.3861 70.8099 93.3674 70.745L93.008 69.3883C92.9958 69.3411 92.9976 69.2925 93.0133 69.2458C93.0289 69.1992 93.0581 69.1558 93.0986 69.1187C93.1392 69.0816 93.1901 69.0517 93.2478 69.0313C93.3055 69.0108 93.3684 69.0002 93.4322 69.0003H95.5529C95.6161 68.9982 95.6792 69.0066 95.7376 69.0251C95.796 69.0436 95.8483 69.0716 95.8905 69.1072C95.9328 69.1427 95.9642 69.1849 95.9822 69.2307C96.0003 69.2766 96.0047 69.3248 95.995 69.372Z" fill="#313143"/>
<path d="M97.9936 84.6489L94.9545 85L94.0502 79.4065C94.0502 79.4065 94.1256 73.0623 94.1674 73.0098C94.2093 72.9573 94.0712 71.8758 94 71.3269H95.1512C95.2556 71.3271 95.3575 71.2956 95.4424 71.237C95.5273 71.1783 95.5909 71.0954 95.6242 71H96.1266C96.6875 73.5022 98.1066 80.3427 97.9936 84.6489Z" fill="#313143"/>
<path d="M95.7381 87.964C95.7381 87.964 94.3607 88.2371 92 87.2791C93.5924 83.0472 93.8869 74.4572 93.9467 71H94.0342H95.6624C96.375 76.6995 95.7381 87.964 95.7381 87.964Z" fill="#404056"/>
<path d="M77 58.0288C74.4518 59.9015 73.2812 60.7678 69.3246 61C58.6365 58.2463 52.0356 52.5473 52.0356 52.5473C51.4931 52.5496 50.9529 52.4776 50.4315 52.3334C49.9073 52.2176 49.4177 51.9881 49 51.6625C49.614 51.9206 50.8651 51.3639 51.2681 50L58.1952 55.0761L58.0263 53.5094L70.1804 60.1964L77 58.0288Z" fill="#FFCFAB"/>
<path d="M62 133.051C62 134.396 61.31 135 61.31 135H59.8302C60.0174 134.183 60.1003 133.351 60.0775 132.519L55 131.33C55.2034 131.225 55.3989 131.116 55.6142 131C56.9037 131.268 58.2228 131.426 59.551 131.472C60.2564 131.571 60.9696 131.628 61.6849 131.641C61.8744 132.095 61.9806 132.571 62 133.051Z" fill="#FF9166"/>
</g>
<g filter="url(#filter0_b_206:36458)">
<rect x="13" y="77" width="141" height="77" rx="10" fill="black" fill-opacity="0.8"/>
</g>
<path d="M32.9461 94.872C33.7114 94.872 34.4721 95.026 35.2281 95.334L34.9201 96.972L34.6401 97.084C34.3227 96.86 33.9914 96.6827 33.6461 96.552C33.3101 96.4213 33.0021 96.356 32.7221 96.356C32.3487 96.356 32.0501 96.4587 31.8261 96.664C31.6021 96.86 31.4901 97.0887 31.4901 97.35C31.4901 97.6207 31.6114 97.8493 31.8541 98.036C32.1061 98.2227 32.4981 98.442 33.0301 98.694C33.5434 98.9273 33.9587 99.1467 34.2761 99.352C34.6027 99.548 34.8781 99.8093 35.1021 100.136C35.3354 100.463 35.4521 100.864 35.4521 101.34C35.4521 101.853 35.3121 102.325 35.0321 102.754C34.7521 103.174 34.3554 103.51 33.8421 103.762C33.3287 104.005 32.7361 104.126 32.0641 104.126C31.1774 104.126 30.2861 103.935 29.3901 103.552L29.6561 101.788L29.8661 101.676C30.2394 102.003 30.6454 102.255 31.0841 102.432C31.5321 102.6 31.9287 102.684 32.2741 102.684C32.6847 102.684 33.0021 102.586 33.2261 102.39C33.4594 102.185 33.5761 101.942 33.5761 101.662C33.5761 101.363 33.4501 101.121 33.1981 100.934C32.9554 100.747 32.5587 100.523 32.0081 100.262C31.5041 100.038 31.0934 99.828 30.7761 99.632C30.4587 99.436 30.1881 99.1747 29.9641 98.848C29.7401 98.5213 29.6281 98.1247 29.6281 97.658C29.6281 97.1353 29.7681 96.664 30.0481 96.244C30.3281 95.8147 30.7201 95.4787 31.2241 95.236C31.7281 94.9933 32.3021 94.872 32.9461 94.872ZM39.126 97.364C39.8446 97.364 40.4046 97.5273 40.806 97.854C41.2166 98.1713 41.422 98.6193 41.422 99.198C41.422 99.366 41.394 99.898 41.338 100.794C41.3286 101.055 41.3146 101.326 41.296 101.606C41.2773 101.877 41.268 102.11 41.268 102.306C41.268 102.465 41.2913 102.577 41.338 102.642C41.3846 102.698 41.4686 102.726 41.59 102.726C41.6833 102.726 41.8046 102.707 41.954 102.67L42.094 102.782L41.926 103.762C41.6273 103.958 41.2866 104.075 40.904 104.112C40.624 104.084 40.3906 103.986 40.204 103.818C40.0173 103.641 39.8913 103.398 39.826 103.09H39.728C39.2613 103.585 38.7806 103.93 38.286 104.126C37.614 104.117 37.0866 103.939 36.704 103.594C36.3213 103.249 36.13 102.777 36.13 102.18C36.13 101.713 36.2466 101.349 36.48 101.088C36.7226 100.817 37.0866 100.635 37.572 100.542L39.714 100.136V99.562C39.714 98.9553 39.4153 98.652 38.818 98.652C38.5286 98.652 38.2206 98.7173 37.894 98.848C37.5766 98.9787 37.2173 99.184 36.816 99.464L36.676 99.38L36.466 98.148C36.8673 97.896 37.2966 97.7047 37.754 97.574C38.2113 97.434 38.6686 97.364 39.126 97.364ZM38.216 101.396C38.0666 101.433 37.9546 101.499 37.88 101.592C37.8146 101.676 37.782 101.807 37.782 101.984C37.782 102.227 37.8473 102.418 37.978 102.558C38.1086 102.689 38.2906 102.754 38.524 102.754C38.888 102.754 39.2706 102.539 39.672 102.11L39.7 101.074L38.216 101.396ZM41.422 94.732V94.886L40.442 96.132L40.26 96.202C40.008 96.174 39.6206 96.0853 39.098 95.936C39.0513 95.9267 38.8973 95.8893 38.636 95.824C38.384 95.7493 38.2066 95.712 38.104 95.712C38.0013 95.712 37.8986 95.754 37.796 95.838C37.7026 95.922 37.6 96.0247 37.488 96.146C37.376 96.2673 37.292 96.3607 37.236 96.426H37.068L36.508 95.88V95.726L37.502 94.48L37.67 94.41C37.894 94.438 38.2906 94.5313 38.86 94.69C39.3826 94.83 39.7046 94.9 39.826 94.9C39.938 94.9 40.0453 94.8533 40.148 94.76C40.26 94.6667 40.372 94.5593 40.484 94.438C40.596 94.3167 40.6706 94.2327 40.708 94.186H40.876L41.422 94.732ZM46.0062 97.364C46.9582 97.364 47.6862 97.644 48.1902 98.204C48.6942 98.764 48.9462 99.5713 48.9462 100.626C48.9462 101.765 48.6755 102.637 48.1342 103.244C47.5929 103.841 46.8135 104.14 45.7962 104.14C44.8442 104.14 44.1162 103.86 43.6122 103.3C43.1082 102.74 42.8562 101.933 42.8562 100.878C42.8562 99.7393 43.1269 98.8713 43.6682 98.274C44.2095 97.6673 44.9889 97.364 46.0062 97.364ZM45.8802 98.624C45.4322 98.624 45.1055 98.7733 44.9002 99.072C44.7042 99.3707 44.6062 99.8513 44.6062 100.514C44.6062 101.373 44.7089 101.984 44.9142 102.348C45.1195 102.712 45.4555 102.894 45.9222 102.894C46.3702 102.894 46.6922 102.749 46.8882 102.46C47.0935 102.161 47.1962 101.676 47.1962 101.004C47.1962 100.155 47.0889 99.548 46.8742 99.184C46.6689 98.8107 46.3375 98.624 45.8802 98.624ZM58.5573 102.782L58.3893 103.762C58.044 103.986 57.6893 104.103 57.3253 104.112C57.0546 104.065 56.8306 103.958 56.6533 103.79C56.476 103.622 56.3406 103.379 56.2473 103.062H56.1213C55.5893 103.585 55.0386 103.925 54.4693 104.084C53.76 104.084 53.2186 103.925 52.8453 103.608C52.4813 103.281 52.304 102.815 52.3133 102.208L52.3413 100.556L52.2713 97.616L54.0773 97.462L54.0353 101.592C54.026 101.919 54.0913 102.166 54.2313 102.334C54.3713 102.502 54.5813 102.586 54.8613 102.586C55.272 102.586 55.678 102.404 56.0793 102.04V97.616L57.8573 97.462L57.7313 102.306C57.7313 102.455 57.7546 102.563 57.8013 102.628C57.8573 102.693 57.9413 102.726 58.0533 102.726C58.156 102.726 58.282 102.707 58.4313 102.67L58.5573 102.782ZM67.3717 104L67.4837 99.94C67.4837 99.2493 67.1897 98.904 66.6017 98.904C66.1817 98.904 65.7431 99.0907 65.2857 99.464L65.2437 101.144L65.3277 104H63.4657L63.5777 99.94C63.5871 99.604 63.5124 99.3473 63.3537 99.17C63.2044 98.9927 62.9851 98.904 62.6957 98.904C62.2851 98.904 61.8324 99.1 61.3377 99.492V101.13L61.4217 104H59.5737L59.6717 101.312L59.6017 97.616L61.3517 97.462V98.414H61.4497C61.9631 97.9473 62.5277 97.6113 63.1437 97.406C64.1891 97.406 64.8564 97.756 65.1457 98.456H65.2297C65.7617 97.9613 66.3684 97.6113 67.0497 97.406C67.7591 97.406 68.2957 97.5693 68.6597 97.896C69.0331 98.2133 69.2104 98.6753 69.1917 99.282L69.1497 101.144L69.2337 104H67.3717ZM75.6598 97.364C75.9678 97.364 76.2712 97.3967 76.5698 97.462C76.8778 97.518 77.1485 97.602 77.3818 97.714L77.0738 99.198L76.9198 99.268C76.4438 99.0067 76.0192 98.876 75.6458 98.876C75.2165 98.876 74.8852 99.03 74.6518 99.338C74.4185 99.646 74.3018 100.085 74.3018 100.654C74.3018 101.307 74.4278 101.807 74.6798 102.152C74.9318 102.497 75.2912 102.67 75.7578 102.67C76.1778 102.67 76.6445 102.553 77.1578 102.32L77.2978 102.432L77.1158 103.874C76.5558 104.051 75.9818 104.14 75.3938 104.14C74.4978 104.14 73.7978 103.851 73.2938 103.272C72.7898 102.684 72.5378 101.867 72.5378 100.822C72.5378 99.7393 72.8132 98.8947 73.3638 98.288C73.9145 97.672 74.6798 97.364 75.6598 97.364ZM81.0746 97.364C82.0266 97.364 82.7546 97.644 83.2586 98.204C83.7626 98.764 84.0146 99.5713 84.0146 100.626C84.0146 101.765 83.7439 102.637 83.2026 103.244C82.6612 103.841 81.8819 104.14 80.8646 104.14C79.9126 104.14 79.1846 103.86 78.6806 103.3C78.1766 102.74 77.9246 101.933 77.9246 100.878C77.9246 99.7393 78.1952 98.8713 78.7366 98.274C79.2779 97.6673 80.0572 97.364 81.0746 97.364ZM80.9486 98.624C80.5006 98.624 80.1739 98.7733 79.9686 99.072C79.7726 99.3707 79.6746 99.8513 79.6746 100.514C79.6746 101.373 79.7772 101.984 79.9826 102.348C80.1879 102.712 80.5239 102.894 80.9906 102.894C81.4386 102.894 81.7606 102.749 81.9566 102.46C82.1619 102.161 82.2646 101.676 82.2646 101.004C82.2646 100.155 82.1572 99.548 81.9426 99.184C81.7372 98.8107 81.4059 98.624 80.9486 98.624ZM89.2125 99.94C89.2218 99.6133 89.1472 99.3613 88.9885 99.184C88.8392 98.9973 88.6198 98.904 88.3305 98.904C87.9105 98.904 87.4625 99.1047 86.9865 99.506V101.13L87.0705 104H85.2085L85.3065 101.312L85.2365 97.616L87.0005 97.462V98.414H87.0985C87.6118 97.9473 88.1718 97.6113 88.7785 97.406C89.4878 97.406 90.0292 97.5693 90.4025 97.896C90.7758 98.2133 90.9532 98.6753 90.9345 99.282L90.8925 101.144L90.9765 104H89.1005L89.2125 99.94ZM94.8446 97.49L94.7326 101.13L94.8166 103.622C94.8166 104.359 94.6393 104.971 94.2846 105.456C93.93 105.941 93.3466 106.366 92.5346 106.73L91.8906 105.904V105.736C92.3106 105.503 92.6093 105.227 92.7866 104.91C92.964 104.593 93.0526 104.182 93.0526 103.678L93.0806 101.312L93.0246 98.666H91.8906L91.7786 98.554L91.8766 97.546H93.0526L94.7886 97.448L94.8446 97.49ZM93.7666 94.298C94.056 94.298 94.28 94.382 94.4386 94.55C94.6066 94.718 94.6906 94.9513 94.6906 95.25C94.6906 95.5673 94.602 95.8193 94.4246 96.006C94.2473 96.1927 94.0046 96.286 93.6966 96.286C93.3886 96.286 93.1506 96.202 92.9826 96.034C92.824 95.866 92.7446 95.628 92.7446 95.32C92.7446 95.012 92.8333 94.7647 93.0106 94.578C93.1973 94.3913 93.4493 94.298 93.7666 94.298ZM102.827 102.782L102.659 103.762C102.314 103.986 101.959 104.103 101.595 104.112C101.324 104.065 101.1 103.958 100.923 103.79C100.746 103.622 100.61 103.379 100.517 103.062H100.391C99.8588 103.585 99.3082 103.925 98.7388 104.084C98.0295 104.084 97.4882 103.925 97.1148 103.608C96.7508 103.281 96.5735 102.815 96.5828 102.208L96.6108 100.556L96.5408 97.616L98.3468 97.462L98.3048 101.592C98.2955 101.919 98.3608 102.166 98.5008 102.334C98.6408 102.502 98.8508 102.586 99.1308 102.586C99.5415 102.586 99.9475 102.404 100.349 102.04V97.616L102.127 97.462L102.001 102.306C102.001 102.455 102.024 102.563 102.071 102.628C102.127 102.693 102.211 102.726 102.323 102.726C102.426 102.726 102.552 102.707 102.701 102.67L102.827 102.782ZM107.847 99.94C107.857 99.6133 107.782 99.3613 107.623 99.184C107.474 98.9973 107.255 98.904 106.965 98.904C106.545 98.904 106.097 99.1047 105.621 99.506V101.13L105.705 104H103.843L103.941 101.312L103.871 97.616L105.635 97.462V98.414H105.733C106.247 97.9473 106.807 97.6113 107.413 97.406C108.123 97.406 108.664 97.5693 109.037 97.896C109.411 98.2133 109.588 98.6753 109.569 99.282L109.527 101.144L109.611 104H107.735L107.847 99.94ZM113.885 102.628C114.184 102.628 114.497 102.549 114.823 102.39L114.977 102.53L114.795 103.636C114.319 103.879 113.834 104.028 113.339 104.084C112.079 103.953 111.449 103.337 111.449 102.236L111.519 101.074L111.505 98.666H110.637L110.567 98.568L110.665 97.546H111.491V96.468L113.185 95.922L113.311 96.034L113.269 97.546H114.935L114.991 97.644L114.907 98.666H113.241L113.157 101.802C113.157 102.101 113.213 102.315 113.325 102.446C113.437 102.567 113.624 102.628 113.885 102.628ZM118.59 97.364C119.542 97.364 120.27 97.644 120.774 98.204C121.278 98.764 121.53 99.5713 121.53 100.626C121.53 101.765 121.26 102.637 120.718 103.244C120.177 103.841 119.398 104.14 118.38 104.14C117.428 104.14 116.7 103.86 116.196 103.3C115.692 102.74 115.44 101.933 115.44 100.878C115.44 99.7393 115.711 98.8713 116.252 98.274C116.794 97.6673 117.573 97.364 118.59 97.364ZM118.464 98.624C118.016 98.624 117.69 98.7733 117.484 99.072C117.288 99.3707 117.19 99.8513 117.19 100.514C117.19 101.373 117.293 101.984 117.498 102.348C117.704 102.712 118.04 102.894 118.506 102.894C118.954 102.894 119.276 102.749 119.472 102.46C119.678 102.161 119.78 101.676 119.78 101.004C119.78 100.155 119.673 99.548 119.458 99.184C119.253 98.8107 118.922 98.624 118.464 98.624ZM130.357 101.13L130.399 102.306C130.399 102.465 130.418 102.577 130.455 102.642C130.502 102.698 130.581 102.726 130.693 102.726C130.796 102.726 130.922 102.707 131.071 102.67L131.197 102.782L131.043 103.762C130.726 103.958 130.381 104.075 130.007 104.112C129.718 104.084 129.475 103.986 129.279 103.818C129.083 103.65 128.948 103.421 128.873 103.132H128.761C128.304 103.552 127.837 103.874 127.361 104.098C126.447 104.098 125.737 103.809 125.233 103.23C124.729 102.642 124.477 101.83 124.477 100.794C124.477 99.6927 124.767 98.848 125.345 98.26C125.924 97.672 126.727 97.378 127.753 97.378C128.024 97.378 128.323 97.406 128.649 97.462L128.621 94.312L130.469 94.172L130.357 101.13ZM127.627 98.638C126.694 98.638 126.227 99.2307 126.227 100.416C126.227 101.153 126.339 101.709 126.563 102.082C126.787 102.455 127.114 102.642 127.543 102.642C127.954 102.642 128.332 102.451 128.677 102.068L128.705 101.298L128.663 98.89C128.299 98.722 127.954 98.638 127.627 98.638ZM137.334 100.976L133.554 101.004C133.638 102.171 134.231 102.754 135.332 102.754C135.911 102.754 136.555 102.591 137.264 102.264L137.418 102.362L137.138 103.748C136.429 104.009 135.762 104.14 135.136 104.14C134.11 104.14 133.302 103.841 132.714 103.244C132.136 102.647 131.846 101.821 131.846 100.766C131.846 99.7207 132.131 98.8947 132.7 98.288C133.27 97.672 134.04 97.364 135.01 97.364C135.841 97.364 136.48 97.5927 136.928 98.05C137.386 98.498 137.614 99.128 137.614 99.94C137.614 100.155 137.591 100.425 137.544 100.752L137.334 100.976ZM135.99 99.73C135.99 99.3567 135.906 99.0767 135.738 98.89C135.57 98.694 135.323 98.596 134.996 98.596C134.632 98.596 134.329 98.7173 134.086 98.96C133.844 99.1933 133.68 99.534 133.596 99.982L135.962 99.926L135.99 99.73ZM44.1589 118.628C44.4575 118.628 44.7702 118.549 45.0969 118.39L45.2509 118.53L45.0689 119.636C44.5929 119.879 44.1075 120.028 43.6129 120.084C42.3529 119.953 41.7229 119.337 41.7229 118.236L41.7929 117.074L41.7789 114.666H40.9109L40.8409 114.568L40.9389 113.546H41.7649V112.468L43.4589 111.922L43.5849 112.034L43.5429 113.546H45.2089L45.2649 113.644L45.1809 114.666H43.5149L43.4309 117.802C43.4309 118.101 43.4869 118.315 43.5989 118.446C43.7109 118.567 43.8975 118.628 44.1589 118.628ZM51.2016 116.976L47.4216 117.004C47.5056 118.171 48.0983 118.754 49.1996 118.754C49.7783 118.754 50.4223 118.591 51.1316 118.264L51.2856 118.362L51.0056 119.748C50.2963 120.009 49.629 120.14 49.0036 120.14C47.977 120.14 47.1696 119.841 46.5816 119.244C46.003 118.647 45.7136 117.821 45.7136 116.766C45.7136 115.721 45.9983 114.895 46.5676 114.288C47.137 113.672 47.907 113.364 48.8776 113.364C49.7083 113.364 50.3476 113.593 50.7956 114.05C51.253 114.498 51.4816 115.128 51.4816 115.94C51.4816 116.155 51.4583 116.425 51.4116 116.752L51.2016 116.976ZM49.8576 115.73C49.8576 115.357 49.7736 115.077 49.6056 114.89C49.4376 114.694 49.1903 114.596 48.8636 114.596C48.4996 114.596 48.1963 114.717 47.9536 114.96C47.711 115.193 47.5476 115.534 47.4636 115.982L49.8296 115.926L49.8576 115.73ZM50.0956 109.892L50.7676 110.9L50.7396 111.082C50.5343 111.213 50.3803 111.306 50.2776 111.362C49.111 112.081 48.355 112.538 48.0096 112.734L47.8276 112.72L47.3796 112.02C48.4623 111.152 49.307 110.438 49.9136 109.878L50.0956 109.892ZM55.4391 113.364C55.7471 113.364 56.0505 113.397 56.3491 113.462C56.6571 113.518 56.9278 113.602 57.1611 113.714L56.8531 115.198L56.6991 115.268C56.2231 115.007 55.7985 114.876 55.4251 114.876C54.9958 114.876 54.6645 115.03 54.4311 115.338C54.1978 115.646 54.0811 116.085 54.0811 116.654C54.0811 117.307 54.2071 117.807 54.4591 118.152C54.7111 118.497 55.0705 118.67 55.5371 118.67C55.9571 118.67 56.4238 118.553 56.9371 118.32L57.0771 118.432L56.8951 119.874C56.3351 120.051 55.7611 120.14 55.1731 120.14C54.2771 120.14 53.5771 119.851 53.0731 119.272C52.5691 118.684 52.3171 117.867 52.3171 116.822C52.3171 115.739 52.5925 114.895 53.1431 114.288C53.6938 113.672 54.4591 113.364 55.4391 113.364ZM62.0875 115.94C62.0968 115.613 62.0222 115.361 61.8635 115.184C61.7142 114.997 61.4948 114.904 61.2055 114.904C60.7855 114.904 60.3375 115.105 59.8615 115.506V117.13L59.9455 120H58.0835L58.1815 117.312L58.1115 113.616L59.8755 113.462V114.414H59.9735C60.4868 113.947 61.0468 113.611 61.6535 113.406C62.3628 113.406 62.9042 113.569 63.2775 113.896C63.6508 114.213 63.8282 114.675 63.8095 115.282L63.7675 117.144L63.8515 120H61.9755L62.0875 115.94ZM65.6196 117.312L65.5496 113.616L67.3836 113.462L67.2996 117.13L67.3836 120H65.5216L65.6196 117.312ZM66.5016 110.298C66.791 110.298 67.015 110.382 67.1736 110.55C67.3416 110.718 67.4256 110.951 67.4256 111.25C67.4256 111.567 67.337 111.819 67.1596 112.006C66.9823 112.193 66.7396 112.286 66.4316 112.286C66.1236 112.286 65.8856 112.202 65.7176 112.034C65.559 111.866 65.4796 111.628 65.4796 111.32C65.4796 111.012 65.5683 110.765 65.7456 110.578C65.9323 110.391 66.1843 110.298 66.5016 110.298ZM71.818 113.364C72.126 113.364 72.4294 113.397 72.728 113.462C73.036 113.518 73.3067 113.602 73.54 113.714L73.232 115.198L73.078 115.268C72.602 115.007 72.1774 114.876 71.804 114.876C71.3747 114.876 71.0434 115.03 70.81 115.338C70.5767 115.646 70.46 116.085 70.46 116.654C70.46 117.307 70.586 117.807 70.838 118.152C71.09 118.497 71.4494 118.67 71.916 118.67C72.336 118.67 72.8027 118.553 73.316 118.32L73.456 118.432L73.274 119.874C72.714 120.051 72.14 120.14 71.552 120.14C70.656 120.14 69.956 119.851 69.452 119.272C68.948 118.684 68.696 117.867 68.696 116.822C68.696 115.739 68.9714 114.895 69.522 114.288C70.0727 113.672 70.838 113.364 71.818 113.364ZM76.956 113.364C77.6747 113.364 78.2347 113.527 78.636 113.854C79.0467 114.171 79.252 114.619 79.252 115.198C79.252 115.366 79.224 115.898 79.168 116.794C79.1587 117.055 79.1447 117.326 79.126 117.606C79.1074 117.877 79.098 118.11 79.098 118.306C79.098 118.465 79.1214 118.577 79.168 118.642C79.2147 118.698 79.2987 118.726 79.42 118.726C79.5134 118.726 79.6347 118.707 79.784 118.67L79.924 118.782L79.756 119.762C79.4574 119.958 79.1167 120.075 78.734 120.112C78.454 120.084 78.2207 119.986 78.034 119.818C77.8474 119.641 77.7214 119.398 77.656 119.09H77.558C77.0914 119.585 76.6107 119.93 76.116 120.126C75.444 120.117 74.9167 119.939 74.534 119.594C74.1514 119.249 73.96 118.777 73.96 118.18C73.96 117.713 74.0767 117.349 74.31 117.088C74.5527 116.817 74.9167 116.635 75.402 116.542L77.544 116.136V115.562C77.544 114.955 77.2454 114.652 76.648 114.652C76.3587 114.652 76.0507 114.717 75.724 114.848C75.4067 114.979 75.0474 115.184 74.646 115.464L74.506 115.38L74.296 114.148C74.6974 113.896 75.1267 113.705 75.584 113.574C76.0414 113.434 76.4987 113.364 76.956 113.364ZM76.046 117.396C75.8967 117.433 75.7847 117.499 75.71 117.592C75.6447 117.676 75.612 117.807 75.612 117.984C75.612 118.227 75.6774 118.418 75.808 118.558C75.9387 118.689 76.1207 118.754 76.354 118.754C76.718 118.754 77.1007 118.539 77.502 118.11L77.53 117.074L76.046 117.396ZM83.3183 113.378C83.9529 113.378 84.5503 113.485 85.1103 113.7L84.8583 115.072L84.6343 115.142C84.3636 114.965 84.0929 114.829 83.8223 114.736C83.5516 114.643 83.3136 114.596 83.1083 114.596C82.8843 114.596 82.7069 114.657 82.5763 114.778C82.4456 114.89 82.3803 115.03 82.3803 115.198C82.3803 115.394 82.4643 115.553 82.6323 115.674C82.8096 115.795 83.0849 115.931 83.4583 116.08C83.8316 116.229 84.1396 116.374 84.3823 116.514C84.6249 116.654 84.8303 116.85 84.9983 117.102C85.1756 117.345 85.2643 117.648 85.2643 118.012C85.2643 118.385 85.1663 118.735 84.9703 119.062C84.7836 119.379 84.4943 119.641 84.1023 119.846C83.7103 120.042 83.2296 120.14 82.6603 120.14C81.9883 120.14 81.2929 120 80.5743 119.72L80.7843 118.264L80.9663 118.152C81.2556 118.395 81.5776 118.591 81.9323 118.74C82.2869 118.88 82.5996 118.95 82.8703 118.95C83.1223 118.95 83.3183 118.889 83.4583 118.768C83.5983 118.637 83.6683 118.483 83.6683 118.306C83.6683 118.11 83.5796 117.951 83.4023 117.83C83.2343 117.709 82.9636 117.573 82.5903 117.424C82.2076 117.256 81.8949 117.107 81.6523 116.976C81.4096 116.836 81.1996 116.64 81.0223 116.388C80.8543 116.136 80.7703 115.823 80.7703 115.45C80.7703 114.843 80.9989 114.349 81.4563 113.966C81.9136 113.574 82.5343 113.378 83.3183 113.378ZM94.0585 117.13L94.1005 118.306C94.1005 118.465 94.1191 118.577 94.1565 118.642C94.2031 118.698 94.2825 118.726 94.3945 118.726C94.4971 118.726 94.6231 118.707 94.7725 118.67L94.8985 118.782L94.7445 119.762C94.4271 119.958 94.0818 120.075 93.7085 120.112C93.4191 120.084 93.1765 119.986 92.9805 119.818C92.7845 119.65 92.6491 119.421 92.5745 119.132H92.4625C92.0051 119.552 91.5385 119.874 91.0625 120.098C90.1478 120.098 89.4385 119.809 88.9345 119.23C88.4305 118.642 88.1785 117.83 88.1785 116.794C88.1785 115.693 88.4678 114.848 89.0465 114.26C89.6251 113.672 90.4278 113.378 91.4545 113.378C91.7251 113.378 92.0238 113.406 92.3505 113.462L92.3225 110.312L94.1705 110.172L94.0585 117.13ZM91.3285 114.638C90.3951 114.638 89.9285 115.231 89.9285 116.416C89.9285 117.153 90.0405 117.709 90.2645 118.082C90.4885 118.455 90.8151 118.642 91.2445 118.642C91.6551 118.642 92.0331 118.451 92.3785 118.068L92.4065 117.298L92.3645 114.89C92.0005 114.722 91.6551 114.638 91.3285 114.638ZM101.036 116.976L97.2556 117.004C97.3396 118.171 97.9323 118.754 99.0336 118.754C99.6123 118.754 100.256 118.591 100.966 118.264L101.12 118.362L100.84 119.748C100.13 120.009 99.4629 120.14 98.8376 120.14C97.8109 120.14 97.0036 119.841 96.4156 119.244C95.8369 118.647 95.5476 117.821 95.5476 116.766C95.5476 115.721 95.8323 114.895 96.4016 114.288C96.9709 113.672 97.7409 113.364 98.7116 113.364C99.5423 113.364 100.182 113.593 100.63 114.05C101.087 114.498 101.316 115.128 101.316 115.94C101.316 116.155 101.292 116.425 101.246 116.752L101.036 116.976ZM99.6916 115.73C99.6916 115.357 99.6076 115.077 99.4396 114.89C99.2716 114.694 99.0243 114.596 98.6976 114.596C98.3336 114.596 98.0303 114.717 97.7876 114.96C97.5449 115.193 97.3816 115.534 97.2976 115.982L99.6636 115.926L99.6916 115.73ZM106.538 117.13L106.636 120H104.774L104.872 117.298L104.788 110.312L106.65 110.172L106.538 117.13ZM114.612 118.782L114.444 119.762C114.099 119.986 113.744 120.103 113.38 120.112C113.109 120.065 112.885 119.958 112.708 119.79C112.531 119.622 112.395 119.379 112.302 119.062H112.176C111.644 119.585 111.093 119.925 110.524 120.084C109.815 120.084 109.273 119.925 108.9 119.608C108.536 119.281 108.359 118.815 108.368 118.208L108.396 116.556L108.326 113.616L110.132 113.462L110.09 117.592C110.081 117.919 110.146 118.166 110.286 118.334C110.426 118.502 110.636 118.586 110.916 118.586C111.327 118.586 111.733 118.404 112.134 118.04V113.616L113.912 113.462L113.786 118.306C113.786 118.455 113.809 118.563 113.856 118.628C113.912 118.693 113.996 118.726 114.108 118.726C114.211 118.726 114.337 118.707 114.486 118.67L114.612 118.782ZM118.342 118.628C118.641 118.628 118.954 118.549 119.28 118.39L119.434 118.53L119.252 119.636C118.776 119.879 118.291 120.028 117.796 120.084C116.536 119.953 115.906 119.337 115.906 118.236L115.976 117.074L115.962 114.666H115.094L115.024 114.568L115.122 113.546H115.948V112.468L117.642 111.922L117.768 112.034L117.726 113.546H119.392L119.448 113.644L119.364 114.666H117.698L117.614 117.802C117.614 118.101 117.67 118.315 117.782 118.446C117.894 118.567 118.081 118.628 118.342 118.628ZM123.003 113.364C123.722 113.364 124.282 113.527 124.683 113.854C125.094 114.171 125.299 114.619 125.299 115.198C125.299 115.366 125.271 115.898 125.215 116.794C125.206 117.055 125.192 117.326 125.173 117.606C125.154 117.877 125.145 118.11 125.145 118.306C125.145 118.465 125.168 118.577 125.215 118.642C125.262 118.698 125.346 118.726 125.467 118.726C125.56 118.726 125.682 118.707 125.831 118.67L125.971 118.782L125.803 119.762C125.504 119.958 125.164 120.075 124.781 120.112C124.501 120.084 124.268 119.986 124.081 119.818C123.894 119.641 123.768 119.398 123.703 119.09H123.605C123.138 119.585 122.658 119.93 122.163 120.126C121.491 120.117 120.964 119.939 120.581 119.594C120.198 119.249 120.007 118.777 120.007 118.18C120.007 117.713 120.124 117.349 120.357 117.088C120.6 116.817 120.964 116.635 121.449 116.542L123.591 116.136V115.562C123.591 114.955 123.292 114.652 122.695 114.652C122.406 114.652 122.098 114.717 121.771 114.848C121.454 114.979 121.094 115.184 120.693 115.464L120.553 115.38L120.343 114.148C120.744 113.896 121.174 113.705 121.631 113.574C122.088 113.434 122.546 113.364 123.003 113.364ZM122.093 117.396C121.944 117.433 121.832 117.499 121.757 117.592C121.692 117.676 121.659 117.807 121.659 117.984C121.659 118.227 121.724 118.418 121.855 118.558C121.986 118.689 122.168 118.754 122.401 118.754C122.765 118.754 123.148 118.539 123.549 118.11L123.577 117.074L122.093 117.396ZM55.9468 133.312L55.8768 129.616L57.7108 129.462L57.6268 133.13L57.7108 136H55.8488L55.9468 133.312ZM56.8288 126.298C57.1181 126.298 57.3421 126.382 57.5008 126.55C57.6688 126.718 57.7528 126.951 57.7528 127.25C57.7528 127.567 57.6641 127.819 57.4868 128.006C57.3095 128.193 57.0668 128.286 56.7588 128.286C56.4508 128.286 56.2128 128.202 56.0448 128.034C55.8861 127.866 55.8068 127.628 55.8068 127.32C55.8068 127.012 55.8955 126.765 56.0728 126.578C56.2595 126.391 56.5115 126.298 56.8288 126.298ZM63.4752 131.94C63.4845 131.613 63.4099 131.361 63.2512 131.184C63.1019 130.997 62.8825 130.904 62.5932 130.904C62.1732 130.904 61.7252 131.105 61.2492 131.506V133.13L61.3332 136H59.4712L59.5692 133.312L59.4992 129.616L61.2632 129.462V130.414H61.3612C61.8745 129.947 62.4345 129.611 63.0412 129.406C63.7505 129.406 64.2919 129.569 64.6652 129.896C65.0385 130.213 65.2159 130.675 65.1972 131.282L65.1552 133.144L65.2392 136H63.3632L63.4752 131.94ZM72.3133 133.13L72.3553 134.306C72.3553 134.465 72.374 134.577 72.4113 134.642C72.458 134.698 72.5373 134.726 72.6493 134.726C72.752 134.726 72.878 134.707 73.0273 134.67L73.1533 134.782L72.9993 135.762C72.682 135.958 72.3367 136.075 71.9633 136.112C71.674 136.084 71.4313 135.986 71.2353 135.818C71.0393 135.65 70.904 135.421 70.8293 135.132H70.7173C70.26 135.552 69.7933 135.874 69.3173 136.098C68.4027 136.098 67.6933 135.809 67.1893 135.23C66.6853 134.642 66.4333 133.83 66.4333 132.794C66.4333 131.693 66.7227 130.848 67.3013 130.26C67.88 129.672 68.6827 129.378 69.7093 129.378C69.98 129.378 70.2787 129.406 70.6053 129.462L70.5773 126.312L72.4253 126.172L72.3133 133.13ZM69.5833 130.638C68.65 130.638 68.1833 131.231 68.1833 132.416C68.1833 133.153 68.2953 133.709 68.5193 134.082C68.7433 134.455 69.07 134.642 69.4993 134.642C69.91 134.642 70.288 134.451 70.6333 134.068L70.6613 133.298L70.6193 130.89C70.2553 130.722 69.91 130.638 69.5833 130.638ZM74.3765 133.312L74.3065 129.616L76.1405 129.462L76.0565 133.13L76.1405 136H74.2785L74.3765 133.312ZM75.2585 126.298C75.5478 126.298 75.7718 126.382 75.9305 126.55C76.0985 126.718 76.1825 126.951 76.1825 127.25C76.1825 127.567 76.0938 127.819 75.9165 128.006C75.7392 128.193 75.4965 128.286 75.1885 128.286C74.8805 128.286 74.6425 128.202 74.4745 128.034C74.3158 127.866 74.2365 127.628 74.2365 127.32C74.2365 127.012 74.3252 126.765 74.5025 126.578C74.6892 126.391 74.9412 126.298 75.2585 126.298ZM79.1189 130.526L80.0989 134.25H80.1969L81.3729 130.624L81.6109 129.49H83.2349L81.0509 136H79.0489L77.2009 129.532L78.9369 129.448L79.1189 130.526ZM84.2613 133.312L84.1913 129.616L86.0253 129.462L85.9413 133.13L86.0253 136H84.1633L84.2613 133.312ZM85.1433 126.298C85.4326 126.298 85.6566 126.382 85.8153 126.55C85.9833 126.718 86.0673 126.951 86.0673 127.25C86.0673 127.567 85.9786 127.819 85.8013 128.006C85.6239 128.193 85.3813 128.286 85.0733 128.286C84.7653 128.286 84.5273 128.202 84.3593 128.034C84.2006 127.866 84.1213 127.628 84.1213 127.32C84.1213 127.012 84.2099 126.765 84.3873 126.578C84.5739 126.391 84.8259 126.298 85.1433 126.298ZM93.2176 133.13L93.2596 134.306C93.2596 134.465 93.2783 134.577 93.3156 134.642C93.3623 134.698 93.4416 134.726 93.5536 134.726C93.6563 134.726 93.7823 134.707 93.9316 134.67L94.0576 134.782L93.9036 135.762C93.5863 135.958 93.241 136.075 92.8676 136.112C92.5783 136.084 92.3356 135.986 92.1396 135.818C91.9436 135.65 91.8083 135.421 91.7336 135.132H91.6216C91.1643 135.552 90.6976 135.874 90.2216 136.098C89.307 136.098 88.5976 135.809 88.0936 135.23C87.5896 134.642 87.3376 133.83 87.3376 132.794C87.3376 131.693 87.627 130.848 88.2056 130.26C88.7843 129.672 89.587 129.378 90.6136 129.378C90.8843 129.378 91.183 129.406 91.5096 129.462L91.4816 126.312L93.3296 126.172L93.2176 133.13ZM90.4876 130.638C89.5543 130.638 89.0876 131.231 89.0876 132.416C89.0876 133.153 89.1996 133.709 89.4236 134.082C89.6476 134.455 89.9743 134.642 90.4036 134.642C90.8143 134.642 91.1923 134.451 91.5376 134.068L91.5656 133.298L91.5236 130.89C91.1596 130.722 90.8143 130.638 90.4876 130.638ZM101.371 134.782L101.203 135.762C100.857 135.986 100.503 136.103 100.139 136.112C99.8681 136.065 99.6441 135.958 99.4668 135.79C99.2894 135.622 99.1541 135.379 99.0608 135.062H98.9348C98.4028 135.585 97.8521 135.925 97.2828 136.084C96.5734 136.084 96.0321 135.925 95.6588 135.608C95.2948 135.281 95.1174 134.815 95.1268 134.208L95.1548 132.556L95.0848 129.616L96.8908 129.462L96.8488 133.592C96.8394 133.919 96.9048 134.166 97.0448 134.334C97.1848 134.502 97.3948 134.586 97.6748 134.586C98.0854 134.586 98.4914 134.404 98.8928 134.04V129.616L100.671 129.462L100.545 134.306C100.545 134.455 100.568 134.563 100.615 134.628C100.671 134.693 100.755 134.726 100.867 134.726C100.969 134.726 101.095 134.707 101.245 134.67L101.371 134.782ZM105.031 129.364C105.75 129.364 106.31 129.527 106.711 129.854C107.122 130.171 107.327 130.619 107.327 131.198C107.327 131.366 107.299 131.898 107.243 132.794C107.234 133.055 107.22 133.326 107.201 133.606C107.183 133.877 107.173 134.11 107.173 134.306C107.173 134.465 107.197 134.577 107.243 134.642C107.29 134.698 107.374 134.726 107.495 134.726C107.589 134.726 107.71 134.707 107.859 134.67L107.999 134.782L107.831 135.762C107.533 135.958 107.192 136.075 106.809 136.112C106.529 136.084 106.296 135.986 106.109 135.818C105.923 135.641 105.797 135.398 105.731 135.09H105.633C105.167 135.585 104.686 135.93 104.191 136.126C103.519 136.117 102.992 135.939 102.609 135.594C102.227 135.249 102.035 134.777 102.035 134.18C102.035 133.713 102.152 133.349 102.385 133.088C102.628 132.817 102.992 132.635 103.477 132.542L105.619 132.136V131.562C105.619 130.955 105.321 130.652 104.723 130.652C104.434 130.652 104.126 130.717 103.799 130.848C103.482 130.979 103.123 131.184 102.721 131.464L102.581 131.38L102.371 130.148C102.773 129.896 103.202 129.705 103.659 129.574C104.117 129.434 104.574 129.364 105.031 129.364ZM104.121 133.396C103.972 133.433 103.86 133.499 103.785 133.592C103.72 133.676 103.687 133.807 103.687 133.984C103.687 134.227 103.753 134.418 103.883 134.558C104.014 134.689 104.196 134.754 104.429 134.754C104.793 134.754 105.176 134.539 105.577 134.11L105.605 133.074L104.121 133.396ZM111.029 133.13L111.127 136H109.265L109.363 133.298L109.279 126.312L111.141 126.172L111.029 133.13Z" fill="white"/>
<defs>
<filter id="filter0_b_206:36458" x="3" y="67" width="161" height="97" filterUnits="userSpaceOnUse" color-interpolation-filters="sRGB">
<feFlood flood-opacity="0" result="BackgroundImageFix"/>
<feGaussianBlur in="BackgroundImage" stdDeviation="5"/>
<feComposite in2="SourceAlpha" operator="in" result="effect1_backgroundBlur_206:36458"/>
<feBlend mode="normal" in="SourceGraphic" in2="effect1_backgroundBlur_206:36458" result="shape"/>
</filter>
<linearGradient id="paint0_linear_206:36458" x1="45.9996" y1="132.492" x2="62" y2="132.492" gradientUnits="userSpaceOnUse">
<stop stop-color="#FEBB87"/>
<stop offset="0.39" stop-color="#FEB384"/>
<stop offset="0.99" stop-color="#FF9D7A"/>
<stop offset="1" stop-color="#FF9D7A"/>
</linearGradient>
<linearGradient id="paint1_linear_206:36458" x1="2132.56" y1="1522.7" x2="2301.68" y2="1522.7" gradientUnits="userSpaceOnUse">
<stop stop-color="#FEBB87"/>
<stop offset="0.39" stop-color="#FEB384"/>
<stop offset="0.99" stop-color="#FF9D7A"/>
<stop offset="1" stop-color="#FF9D7A"/>
</linearGradient>
<linearGradient id="paint2_linear_206:36458" x1="9710.48" y1="3001.7" x2="11200.6" y2="3001.7" gradientUnits="userSpaceOnUse">
<stop stop-color="#FEBB87"/>
<stop offset="0.39" stop-color="#FEB384"/>
<stop offset="0.99" stop-color="#FF9D7A"/>
<stop offset="1" stop-color="#FF9D7A"/>
</linearGradient>
<linearGradient id="paint3_linear_206:36458" x1="3901.8" y1="3945.8" x2="4166.6" y2="3945.8" gradientUnits="userSpaceOnUse">
<stop stop-color="#FEBB87"/>
<stop offset="0.39" stop-color="#FEB384"/>
<stop offset="0.99" stop-color="#FF9D7A"/>
<stop offset="1" stop-color="#FF9D7A"/>
</linearGradient>
<linearGradient id="paint4_linear_206:36458" x1="5704.6" y1="1625.84" x2="6299.2" y2="1625.84" gradientUnits="userSpaceOnUse">
<stop stop-color="#FEBB87"/>
<stop offset="0.39" stop-color="#FEB384"/>
<stop offset="0.99" stop-color="#FF9D7A"/>
<stop offset="1" stop-color="#FF9D7A"/>
</linearGradient>
<linearGradient id="paint5_linear_206:36458" x1="1297.55" y1="439.56" x2="1321.46" y2="439.56" gradientUnits="userSpaceOnUse">
<stop stop-color="#FEBB87"/>
<stop offset="0.39" stop-color="#FEB384"/>
<stop offset="0.99" stop-color="#FF9D7A"/>
<stop offset="1" stop-color="#FF9D7A"/>
</linearGradient>
<linearGradient id="paint6_linear_206:36458" x1="4122.53" y1="887.24" x2="4329.17" y2="887.24" gradientUnits="userSpaceOnUse">
<stop stop-color="#FEBB87"/>
<stop offset="0.39" stop-color="#FEB384"/>
<stop offset="0.99" stop-color="#FF9D7A"/>
<stop offset="1" stop-color="#FF9D7A"/>
</linearGradient>
<linearGradient id="paint7_linear_206:36458" x1="1051" y1="514.66" x2="1059.22" y2="514.66" gradientUnits="userSpaceOnUse">
<stop stop-color="#FEBB87"/>
<stop offset="0.39" stop-color="#FEB384"/>
<stop offset="0.99" stop-color="#FF9D7A"/>
<stop offset="1" stop-color="#FF9D7A"/>
</linearGradient>
<linearGradient id="paint8_linear_206:36458" x1="1040.96" y1="892.82" x2="1050.72" y2="892.82" gradientUnits="userSpaceOnUse">
<stop stop-color="#FEBB87"/>
<stop offset="0.39" stop-color="#FEB384"/>
<stop offset="0.99" stop-color="#FF9D7A"/>
<stop offset="1" stop-color="#FF9D7A"/>
</linearGradient>
<linearGradient id="paint9_linear_206:36458" x1="1484.24" y1="892.46" x2="1500.65" y2="892.46" gradientUnits="userSpaceOnUse">
<stop stop-color="#FEBB87"/>
<stop offset="0.39" stop-color="#FEB384"/>
<stop offset="0.99" stop-color="#FF9D7A"/>
<stop offset="1" stop-color="#FF9D7A"/>
</linearGradient>
<linearGradient id="paint10_linear_206:36458" x1="1018.38" y1="892.18" x2="1030.18" y2="892.18" gradientUnits="userSpaceOnUse">
<stop stop-color="#FEBB87"/>
<stop offset="0.39" stop-color="#FEB384"/>
<stop offset="0.99" stop-color="#FF9D7A"/>
<stop offset="1" stop-color="#FF9D7A"/>
</linearGradient>
<linearGradient id="paint11_linear_206:36458" x1="1447.12" y1="890.74" x2="1468.12" y2="890.74" gradientUnits="userSpaceOnUse">
<stop stop-color="#FEBB87"/>
<stop offset="0.39" stop-color="#FEB384"/>
<stop offset="0.99" stop-color="#FF9D7A"/>
<stop offset="1" stop-color="#FF9D7A"/>
</linearGradient>
</defs>
</svg>
