<svg width="167" height="167" viewBox="0 0 167 167" fill="none" xmlns="http://www.w3.org/2000/svg">
<mask id="mask0_206:37238" style="mask-type:alpha" maskUnits="userSpaceOnUse" x="0" y="0" width="167" height="167">
<rect x="1" y="1" width="165" height="165" rx="8" fill="#5988D6" stroke="#EDE6FC" stroke-opacity="0.3"/>
</mask>
<g mask="url(#mask0_206:37238)">
<rect x="1" y="1" width="165" height="165" rx="8" fill="#CEE2F2" stroke="#EDE6FC" stroke-opacity="0.3"/>
<path d="M104.922 71.7142C101.632 78.3613 105.062 86.7525 105.062 86.7525L131.659 78.4765C131.32 78.0608 131.043 77.598 130.836 77.1026C122.865 75.8064 115.036 73.7514 107.456 70.9655L104.922 71.7142Z" fill="#DCDAEA"/>
<path d="M130.952 64.1292L107.506 70.9326C115.086 73.7185 122.915 75.7736 130.886 77.0697C128.846 72.4464 130.952 64.1292 130.952 64.1292Z" fill="#EBE9F4"/>
<path d="M134.028 77.7525L105.062 86.7525C103.343 79.1675 104.034 74.4125 104.922 71.7142L133.354 63.4875C134.176 62.3769 133.453 60.7892 133.453 60.7892L106.346 68.9171L50.0178 66.9098L35.2098 66.3833C28.4639 76.3622 34.4859 86.5222 34.4859 86.5222L43.4365 86.8348L50.7417 87.098L82.184 88.2168L91.7927 88.5624L105.605 89.0477L133.938 80.4262C134.793 79.2991 134.028 77.7525 134.028 77.7525Z" fill="#635BA7"/>
<path d="M35.218 66.3669L69.6219 58.5022L133.444 60.7727L106.337 68.9007L35.218 66.3669Z" fill="#4A4793"/>
<path d="M107.341 50.6951C103.993 57.2764 106.379 65.791 106.379 65.791L125.901 59.7197C120.12 57.5892 114.895 54.1808 110.616 49.749L107.341 50.6951Z" fill="#DCDAEA"/>
<path d="M130.401 44.0726L110.657 49.749C114.924 54.1757 120.135 57.5837 125.901 59.7197L130.014 58.4528C127.431 54.1667 130.401 44.0726 130.401 44.0726Z" fill="#EBE9F4"/>
<path d="M52.0663 44.813L47.4511 44.4263C40.8698 54.1914 45.378 64.5981 45.378 64.5981L50.9063 65.067C49.1204 58.365 49.5269 51.2673 52.0663 44.813Z" fill="#4FC1B2"/>
<path d="M56.7473 45.2079L52.0664 44.8212C49.527 51.2755 49.1205 58.3732 50.9064 65.0753L55.7601 65.4784C54.7812 58.7078 54.6413 51.6082 56.7473 45.2079Z" fill="#FFCB73"/>
<path d="M96.408 46.8532L92.3687 46.5159C89.9798 52.9515 89.1921 59.8716 90.0735 66.6795L94.1868 67.025C94.1436 60.2377 94.889 53.4684 96.408 46.8532Z" fill="#FFCB73"/>
<path d="M132.079 57.8111L106.379 65.7745C105.441 58.0991 106.379 53.3358 107.341 50.6786L132.531 43.4474C132.761 43.0411 132.904 42.5913 132.951 42.1268C132.998 41.6622 132.947 41.193 132.803 40.749L108.781 47.9062L96.4411 46.8697C94.9332 53.4862 94.1988 60.2555 94.2528 67.0414L106.733 68.0862L131.857 60.4683C132.077 60.0654 132.211 59.6209 132.249 59.1632C132.287 58.7056 132.229 58.245 132.079 57.8111Z" fill="#4FC1B2"/>
<path d="M92.3687 46.5488L71.983 44.8377L62.5882 44.015L56.7472 45.1585C54.6412 51.5671 54.7811 58.6667 55.76 65.429L90.0734 66.6712C89.1988 59.8768 89.9865 52.9717 92.3687 46.5488Z" fill="#4FC1B2"/>
<path d="M47.4512 44.4263L77.7746 36.1503L132.803 40.7655L108.773 47.9227L47.4512 44.4263Z" fill="#3EAF9C"/>
<path d="M110.27 30.9593C107.621 36.6768 109.809 44.0479 109.809 44.0479L125.958 38.5607C121.053 36.7541 116.62 33.86 112.993 30.0955L110.27 30.9593Z" fill="#DCDAEA"/>
<path d="M129.331 24.9374L112.993 30.0955C116.62 33.86 121.053 36.7541 125.958 38.5607L129.323 37.409C127.085 33.7317 129.331 24.9374 129.331 24.9374Z" fill="#EBE9F4"/>
<path d="M60.186 24.8222L85.2938 18.7098L131.256 22.0416L111.397 28.5325L60.186 24.8222Z" fill="#F0593A"/>
<path d="M109.809 44.0479C108.855 37.409 109.53 33.271 110.27 30.9593L131.092 24.378C131.274 24.018 131.383 23.6251 131.411 23.2223C131.44 22.8196 131.387 22.4153 131.256 22.0334L111.397 28.5324L80.654 26.2866L72.814 25.7189L67.9439 25.3652L64.0362 25.0772L60.1779 24.7975C54.9375 33.345 58.911 42.3121 58.911 42.3121L63.5261 42.6494L67.5819 42.9455L72.9292 43.3322L79.601 43.8093L110.122 46.0223L130.886 39.1202C131.068 38.7656 131.175 38.3774 131.201 37.9797C131.226 37.582 131.169 37.1833 131.034 36.8085L109.809 44.0479Z" fill="#F06952"/>
<path d="M109.225 19.1294C109.382 18.7674 108.493 18.4301 107.695 18.208C107.536 18.7588 107.601 19.3503 107.876 19.8533C108.493 19.7052 109.094 19.4173 109.225 19.1294Z" fill="#2B2B2B"/>
<path d="M99.4023 18.0599L100.669 20.7665L103.285 21.2107C103.285 21.2107 106.436 20.2976 107.876 19.8945C107.649 19.3772 107.586 18.8032 107.695 18.2491C106.477 17.9447 103.499 17.0974 103.499 17.0974L99.4023 18.0599Z" fill="#FBD7D6"/>
<path d="M73.1102 17.5252C72.9789 18.395 72.9789 19.2796 73.1102 20.1495C73.2171 21.0873 73.9328 20.9146 73.9328 20.9146L75.1257 20.7994V19.7875C74.5959 18.8555 73.97 17.9814 73.2583 17.1797C73.19 17.2858 73.14 17.4026 73.1102 17.5252Z" fill="#F17FB0"/>
<path d="M74.0727 16.8095C73.9289 16.8091 73.7871 16.8424 73.6585 16.9067C73.53 16.971 73.4183 17.0645 73.3323 17.1797C74.044 17.9814 74.6699 18.8555 75.1997 19.7875L75.2902 16.7519C75.2902 16.7519 74.5251 16.7766 74.0727 16.8095Z" fill="#F0678F"/>
<path d="M76.4832 16.9164C76.2879 18.165 76.2327 19.4316 76.3187 20.6924C76.3068 20.8096 76.2526 20.9185 76.1663 20.9987C76.08 21.079 75.9675 21.1251 75.8498 21.1285C75.4384 21.1285 75.1587 21.2272 75.134 20.7994C75.0577 19.4494 75.0962 18.0953 75.2492 16.7519C75.3561 16.4886 76.5408 16.5709 76.4832 16.9164Z" fill="#C2B9DB"/>
<path d="M103.689 17.2866C104.108 17.155 103.911 17.0563 103.911 17.0563L76.6723 16.9164C76.5324 17.1725 76.4377 17.4508 76.3926 17.7391L102.052 17.8543C102.084 17.517 103.286 17.41 103.689 17.2866Z" fill="#FFCB73"/>
<path d="M103.804 20.8734C103.615 20.6102 102.282 20.4539 102.158 20.1248L76.2773 20.0096C76.2773 20.421 76.3349 20.6924 76.3349 20.6924L103.68 21.1943C103.68 21.1943 104.018 21.1449 103.804 20.8734Z" fill="#F79828"/>
<path d="M102.183 20.0343C102.323 19.6477 103.927 19.3762 103.952 18.899C103.977 18.4219 102.052 17.9201 102.052 17.9201C102.048 17.9011 102.048 17.8815 102.052 17.8625L76.3926 17.7473C76.2773 18.4956 76.2497 19.2549 76.3104 20.0096L102.191 20.1248C102.18 20.096 102.177 20.0646 102.183 20.0343Z" fill="#FAB21B"/>
</g>
<g filter="url(#filter0_b_206:37238)">
<rect x="13" y="77" width="141" height="77" rx="10" fill="black" fill-opacity="0.8"/>
</g>
<path d="M28.8138 93.432L28.9258 93.586L28.7998 95H23.1438L23.2418 92.312L23.1438 85.984H28.8558L28.9678 86.138L28.8278 87.552L26.6718 87.482L25.0478 87.496L25.0058 89.666L26.5598 89.694L28.0298 89.652L28.1418 89.792L28.0158 91.206L26.4198 91.164L24.9778 91.178L24.9638 92.144L25.0058 93.502L26.5878 93.516L28.8138 93.432ZM35.2147 92.13L35.2567 93.306C35.2567 93.4647 35.2754 93.5767 35.3127 93.642C35.3594 93.698 35.4387 93.726 35.5507 93.726C35.6534 93.726 35.7794 93.7073 35.9287 93.67L36.0547 93.782L35.9007 94.762C35.5834 94.958 35.238 95.0747 34.8647 95.112C34.5754 95.084 34.3327 94.986 34.1367 94.818C33.9407 94.65 33.8054 94.4213 33.7307 94.132H33.6187C33.1614 94.552 32.6947 94.874 32.2187 95.098C31.304 95.098 30.5947 94.8087 30.0907 94.23C29.5867 93.642 29.3347 92.83 29.3347 91.794C29.3347 90.6927 29.624 89.848 30.2027 89.26C30.7814 88.672 31.584 88.378 32.6107 88.378C32.8814 88.378 33.18 88.406 33.5067 88.462L33.4787 85.312L35.3267 85.172L35.2147 92.13ZM32.4847 89.638C31.5514 89.638 31.0847 90.2307 31.0847 91.416C31.0847 92.1533 31.1967 92.7087 31.4207 93.082C31.6447 93.4553 31.9714 93.642 32.4007 93.642C32.8114 93.642 33.1894 93.4507 33.5347 93.068L33.5627 92.298L33.5207 89.89C33.1567 89.722 32.8114 89.638 32.4847 89.638ZM43.3679 93.782L43.1999 94.762C42.8545 94.986 42.4999 95.1027 42.1359 95.112C41.8652 95.0653 41.6412 94.958 41.4639 94.79C41.2865 94.622 41.1512 94.3793 41.0579 94.062H40.9319C40.3999 94.5847 39.8492 94.9253 39.2799 95.084C38.5705 95.084 38.0292 94.9253 37.6559 94.608C37.2919 94.2813 37.1145 93.8147 37.1239 93.208L37.1519 91.556L37.0819 88.616L38.8879 88.462L38.8459 92.592C38.8365 92.9187 38.9019 93.166 39.0419 93.334C39.1819 93.502 39.3919 93.586 39.6719 93.586C40.0825 93.586 40.4885 93.404 40.8899 93.04V88.616L42.6679 88.462L42.5419 93.306C42.5419 93.4553 42.5652 93.5627 42.6119 93.628C42.6679 93.6933 42.7519 93.726 42.8639 93.726C42.9665 93.726 43.0925 93.7073 43.2419 93.67L43.3679 93.782ZM47.1403 88.364C47.4483 88.364 47.7516 88.3967 48.0503 88.462C48.3583 88.518 48.629 88.602 48.8623 88.714L48.5543 90.198L48.4003 90.268C47.9243 90.0067 47.4996 89.876 47.1263 89.876C46.697 89.876 46.3656 90.03 46.1323 90.338C45.899 90.646 45.7823 91.0847 45.7823 91.654C45.7823 92.3073 45.9083 92.8067 46.1603 93.152C46.4123 93.4973 46.7716 93.67 47.2383 93.67C47.6583 93.67 48.125 93.5533 48.6383 93.32L48.7783 93.432L48.5963 94.874C48.0363 95.0513 47.4623 95.14 46.8743 95.14C45.9783 95.14 45.2783 94.8507 44.7743 94.272C44.2703 93.684 44.0183 92.8673 44.0183 91.822C44.0183 90.7393 44.2936 89.8947 44.8443 89.288C45.395 88.672 46.1603 88.364 47.1403 88.364ZM52.2783 88.364C52.997 88.364 53.557 88.5273 53.9583 88.854C54.369 89.1713 54.5743 89.6193 54.5743 90.198C54.5743 90.366 54.5463 90.898 54.4903 91.794C54.481 92.0553 54.467 92.326 54.4483 92.606C54.4296 92.8767 54.4203 93.11 54.4203 93.306C54.4203 93.4647 54.4436 93.5767 54.4903 93.642C54.537 93.698 54.621 93.726 54.7423 93.726C54.8356 93.726 54.957 93.7073 55.1063 93.67L55.2463 93.782L55.0783 94.762C54.7796 94.958 54.439 95.0747 54.0563 95.112C53.7763 95.084 53.543 94.986 53.3563 94.818C53.1696 94.6407 53.0436 94.398 52.9783 94.09H52.8803C52.4136 94.5847 51.933 94.93 51.4383 95.126C50.7663 95.1167 50.239 94.9393 49.8563 94.594C49.4736 94.2487 49.2823 93.7773 49.2823 93.18C49.2823 92.7133 49.399 92.3493 49.6323 92.088C49.875 91.8173 50.239 91.6353 50.7243 91.542L52.8663 91.136V90.562C52.8663 89.9553 52.5676 89.652 51.9703 89.652C51.681 89.652 51.373 89.7173 51.0463 89.848C50.729 89.9787 50.3696 90.184 49.9683 90.464L49.8283 90.38L49.6183 89.148C50.0196 88.896 50.449 88.7047 50.9063 88.574C51.3636 88.434 51.821 88.364 52.2783 88.364ZM51.3683 92.396C51.219 92.4333 51.107 92.4987 51.0323 92.592C50.967 92.676 50.9343 92.8067 50.9343 92.984C50.9343 93.2267 50.9996 93.418 51.1303 93.558C51.261 93.6887 51.443 93.754 51.6763 93.754C52.0403 93.754 52.423 93.5393 52.8243 93.11L52.8523 92.074L51.3683 92.396ZM59.1305 88.364C59.4385 88.364 59.7419 88.3967 60.0405 88.462C60.3485 88.518 60.6192 88.602 60.8525 88.714L60.5445 90.198L60.3905 90.268C59.9145 90.0067 59.4899 89.876 59.1165 89.876C58.6872 89.876 58.3559 90.03 58.1225 90.338C57.8892 90.646 57.7725 91.0847 57.7725 91.654C57.7725 92.3073 57.8985 92.8067 58.1505 93.152C58.4025 93.4973 58.7619 93.67 59.2285 93.67C59.6485 93.67 60.1152 93.5533 60.6285 93.32L60.7685 93.432L60.5865 94.874C60.0265 95.0513 59.4525 95.14 58.8645 95.14C57.9685 95.14 57.2685 94.8507 56.7645 94.272C56.2605 93.684 56.0085 92.8673 56.0085 91.822C56.0085 90.7393 56.2839 89.8947 56.8345 89.288C57.3852 88.672 58.1505 88.364 59.1305 88.364ZM59.1165 95.672L59.5925 95.938C59.7979 96.05 59.9425 96.1713 60.0265 96.302C60.1199 96.442 60.1665 96.596 60.1665 96.764C60.1665 97.072 60.0452 97.324 59.8025 97.52C59.5599 97.716 59.2425 97.814 58.8505 97.814C58.4305 97.814 58.0479 97.6833 57.7025 97.422L57.8285 96.638L57.9125 96.596C58.1925 96.876 58.4679 97.016 58.7385 97.016C58.9625 97.016 59.0745 96.918 59.0745 96.722C59.0745 96.6567 59.0559 96.6007 59.0185 96.554C58.9812 96.5167 58.9205 96.4793 58.8365 96.442L58.1505 96.05L58.4725 94.636H59.3685L59.1165 95.672ZM64.2685 88.364C64.9872 88.364 65.5472 88.5273 65.9485 88.854C66.3592 89.1713 66.5645 89.6193 66.5645 90.198C66.5645 90.366 66.5365 90.898 66.4805 91.794C66.4712 92.0553 66.4572 92.326 66.4385 92.606C66.4199 92.8767 66.4105 93.11 66.4105 93.306C66.4105 93.4647 66.4339 93.5767 66.4805 93.642C66.5272 93.698 66.6112 93.726 66.7325 93.726C66.8259 93.726 66.9472 93.7073 67.0965 93.67L67.2365 93.782L67.0685 94.762C66.7699 94.958 66.4292 95.0747 66.0465 95.112C65.7665 95.084 65.5332 94.986 65.3465 94.818C65.1599 94.6407 65.0339 94.398 64.9685 94.09H64.8705C64.4039 94.5847 63.9232 94.93 63.4285 95.126C62.7565 95.1167 62.2292 94.9393 61.8465 94.594C61.4639 94.2487 61.2725 93.7773 61.2725 93.18C61.2725 92.7133 61.3892 92.3493 61.6225 92.088C61.8652 91.8173 62.2292 91.6353 62.7145 91.542L64.8565 91.136V90.562C64.8565 89.9553 64.5579 89.652 63.9605 89.652C63.6712 89.652 63.3632 89.7173 63.0365 89.848C62.7192 89.9787 62.3599 90.184 61.9585 90.464L61.8185 90.38L61.6085 89.148C62.0099 88.896 62.4392 88.7047 62.8965 88.574C63.3539 88.434 63.8112 88.364 64.2685 88.364ZM63.3585 92.396C63.2092 92.4333 63.0972 92.4987 63.0225 92.592C62.9572 92.676 62.9245 92.8067 62.9245 92.984C62.9245 93.2267 62.9899 93.418 63.1205 93.558C63.2512 93.6887 63.4332 93.754 63.6665 93.754C64.0305 93.754 64.4132 93.5393 64.8145 93.11L64.8425 92.074L63.3585 92.396ZM66.5645 85.732V85.886L65.5845 87.132L65.4025 87.202C65.1505 87.174 64.7632 87.0853 64.2405 86.936C64.1939 86.9267 64.0399 86.8893 63.7785 86.824C63.5265 86.7493 63.3492 86.712 63.2465 86.712C63.1439 86.712 63.0412 86.754 62.9385 86.838C62.8452 86.922 62.7425 87.0247 62.6305 87.146C62.5185 87.2673 62.4345 87.3607 62.3785 87.426H62.2105L61.6505 86.88V86.726L62.6445 85.48L62.8125 85.41C63.0365 85.438 63.4332 85.5313 64.0025 85.69C64.5252 85.83 64.8472 85.9 64.9685 85.9C65.0805 85.9 65.1879 85.8533 65.2905 85.76C65.4025 85.6667 65.5145 85.5593 65.6265 85.438C65.7385 85.3167 65.8132 85.2327 65.8505 85.186H66.0185L66.5645 85.732ZM71.1488 88.364C72.1008 88.364 72.8288 88.644 73.3328 89.204C73.8368 89.764 74.0888 90.5713 74.0888 91.626C74.0888 92.7647 73.8181 93.6373 73.2768 94.244C72.7354 94.8413 71.9561 95.14 70.9388 95.14C69.9868 95.14 69.2588 94.86 68.7548 94.3C68.2508 93.74 67.9988 92.9327 67.9988 91.878C67.9988 90.7393 68.2694 89.8713 68.8108 89.274C69.3521 88.6673 70.1314 88.364 71.1488 88.364ZM71.0228 89.624C70.5748 89.624 70.2481 89.7733 70.0428 90.072C69.8468 90.3707 69.7488 90.8513 69.7488 91.514C69.7488 92.3727 69.8514 92.984 70.0568 93.348C70.2621 93.712 70.5981 93.894 71.0648 93.894C71.5128 93.894 71.8348 93.7493 72.0308 93.46C72.2361 93.1613 72.3388 92.676 72.3388 92.004C72.3388 91.1547 72.2314 90.548 72.0168 90.184C71.8114 89.8107 71.4801 89.624 71.0228 89.624ZM82.5239 91.976L78.7439 92.004C78.8279 93.1707 79.4205 93.754 80.5219 93.754C81.1005 93.754 81.7445 93.5907 82.4539 93.264L82.6079 93.362L82.3279 94.748C81.6185 95.0093 80.9512 95.14 80.3259 95.14C79.2992 95.14 78.4919 94.8413 77.9039 94.244C77.3252 93.6467 77.0359 92.8207 77.0359 91.766C77.0359 90.7207 77.3205 89.8947 77.8899 89.288C78.4592 88.672 79.2292 88.364 80.1999 88.364C81.0305 88.364 81.6699 88.5927 82.1179 89.05C82.5752 89.498 82.8039 90.128 82.8039 90.94C82.8039 91.1547 82.7805 91.4253 82.7339 91.752L82.5239 91.976ZM81.1799 90.73C81.1799 90.3567 81.0959 90.0767 80.9279 89.89C80.7599 89.694 80.5125 89.596 80.1859 89.596C79.8219 89.596 79.5185 89.7173 79.2759 89.96C79.0332 90.1933 78.8699 90.534 78.7859 90.982L81.1519 90.926L81.1799 90.73ZM91.8854 95L91.9974 90.94C91.9974 90.2493 91.7034 89.904 91.1154 89.904C90.6954 89.904 90.2567 90.0907 89.7994 90.464L89.7574 92.144L89.8414 95H87.9794L88.0914 90.94C88.1007 90.604 88.0261 90.3473 87.8674 90.17C87.7181 89.9927 87.4987 89.904 87.2094 89.904C86.7987 89.904 86.3461 90.1 85.8514 90.492V92.13L85.9354 95H84.0874L84.1854 92.312L84.1154 88.616L85.8654 88.462V89.414H85.9634C86.4767 88.9473 87.0414 88.6113 87.6574 88.406C88.7027 88.406 89.3701 88.756 89.6594 89.456H89.7434C90.2754 88.9613 90.8821 88.6113 91.5634 88.406C92.2727 88.406 92.8094 88.5693 93.1734 88.896C93.5467 89.2133 93.7241 89.6753 93.7054 90.282L93.6634 92.144L93.7474 95H91.8854ZM102.932 92.13L102.974 93.306C102.974 93.4647 102.992 93.5767 103.03 93.642C103.076 93.698 103.156 93.726 103.268 93.726C103.37 93.726 103.496 93.7073 103.646 93.67L103.772 93.782L103.618 94.762C103.3 94.958 102.955 95.0747 102.582 95.112C102.292 95.084 102.05 94.986 101.854 94.818C101.658 94.65 101.522 94.4213 101.448 94.132H101.336C100.878 94.552 100.412 94.874 99.9355 95.098C99.0208 95.098 98.3115 94.8087 97.8075 94.23C97.3035 93.642 97.0515 92.83 97.0515 91.794C97.0515 90.6927 97.3408 89.848 97.9195 89.26C98.4982 88.672 99.3008 88.378 100.328 88.378C100.598 88.378 100.897 88.406 101.224 88.462L101.196 85.312L103.044 85.172L102.932 92.13ZM100.202 89.638C99.2682 89.638 98.8015 90.2307 98.8015 91.416C98.8015 92.1533 98.9135 92.7087 99.1375 93.082C99.3615 93.4553 99.6882 93.642 100.118 93.642C100.528 93.642 100.906 93.4507 101.252 93.068L101.28 92.298L101.238 89.89C100.874 89.722 100.528 89.638 100.202 89.638ZM104.995 92.312L104.925 88.616L106.759 88.462L106.675 92.13L106.759 95H104.897L104.995 92.312ZM105.877 85.298C106.166 85.298 106.39 85.382 106.549 85.55C106.717 85.718 106.801 85.9513 106.801 86.25C106.801 86.5673 106.712 86.8193 106.535 87.006C106.357 87.1927 106.115 87.286 105.807 87.286C105.499 87.286 105.261 87.202 105.093 87.034C104.934 86.866 104.855 86.628 104.855 86.32C104.855 86.012 104.943 85.7647 105.121 85.578C105.307 85.3913 105.559 85.298 105.877 85.298ZM111.081 88.364C111.8 88.364 112.36 88.5273 112.761 88.854C113.172 89.1713 113.377 89.6193 113.377 90.198C113.377 90.366 113.349 90.898 113.293 91.794C113.284 92.0553 113.27 92.326 113.251 92.606C113.232 92.8767 113.223 93.11 113.223 93.306C113.223 93.4647 113.246 93.5767 113.293 93.642C113.34 93.698 113.424 93.726 113.545 93.726C113.638 93.726 113.76 93.7073 113.909 93.67L114.049 93.782L113.881 94.762C113.582 94.958 113.242 95.0747 112.859 95.112C112.579 95.084 112.346 94.986 112.159 94.818C111.972 94.6407 111.846 94.398 111.781 94.09H111.683C111.216 94.5847 110.736 94.93 110.241 95.126C109.569 95.1167 109.042 94.9393 108.659 94.594C108.276 94.2487 108.085 93.7773 108.085 93.18C108.085 92.7133 108.202 92.3493 108.435 92.088C108.678 91.8173 109.042 91.6353 109.527 91.542L111.669 91.136V90.562C111.669 89.9553 111.37 89.652 110.773 89.652C110.484 89.652 110.176 89.7173 109.849 89.848C109.532 89.9787 109.172 90.184 108.771 90.464L108.631 90.38L108.421 89.148C108.822 88.896 109.252 88.7047 109.709 88.574C110.166 88.434 110.624 88.364 111.081 88.364ZM110.171 92.396C110.022 92.4333 109.91 92.4987 109.835 92.592C109.77 92.676 109.737 92.8067 109.737 92.984C109.737 93.2267 109.802 93.418 109.933 93.558C110.064 93.6887 110.246 93.754 110.479 93.754C110.843 93.754 111.226 93.5393 111.627 93.11L111.655 92.074L110.171 92.396ZM118.773 88.406C119.595 88.406 120.22 88.686 120.649 89.246C121.088 89.7967 121.307 90.5667 121.307 91.556C121.307 92.704 121.023 93.5907 120.453 94.216C119.884 94.832 119.095 95.14 118.087 95.14C117.611 95.14 117.089 95.0327 116.519 94.818L115.539 95.168L115.315 94.986L115.413 92.326L115.329 85.312L117.177 85.172L117.121 89.414H117.205C117.467 89.162 117.719 88.9613 117.961 88.812C118.204 88.6533 118.475 88.518 118.773 88.406ZM118.087 93.922C118.554 93.922 118.918 93.754 119.179 93.418C119.441 93.082 119.571 92.5687 119.571 91.878C119.571 91.234 119.464 90.744 119.249 90.408C119.044 90.072 118.731 89.904 118.311 89.904C117.929 89.904 117.527 90.1 117.107 90.492L117.079 92.088L117.107 93.67C117.453 93.838 117.779 93.922 118.087 93.922ZM127.627 91.976L123.847 92.004C123.931 93.1707 124.524 93.754 125.625 93.754C126.204 93.754 126.848 93.5907 127.557 93.264L127.711 93.362L127.431 94.748C126.722 95.0093 126.055 95.14 125.429 95.14C124.403 95.14 123.595 94.8413 123.007 94.244C122.429 93.6467 122.139 92.8207 122.139 91.766C122.139 90.7207 122.424 89.8947 122.993 89.288C123.563 88.672 124.333 88.364 125.303 88.364C126.134 88.364 126.773 88.5927 127.221 89.05C127.679 89.498 127.907 90.128 127.907 90.94C127.907 91.1547 127.884 91.4253 127.837 91.752L127.627 91.976ZM126.283 90.73C126.283 90.3567 126.199 90.0767 126.031 89.89C125.863 89.694 125.616 89.596 125.289 89.596C124.925 89.596 124.622 89.7173 124.379 89.96C124.137 90.1933 123.973 90.534 123.889 90.982L126.255 90.926L126.283 90.73ZM131.823 93.628C132.122 93.628 132.434 93.5487 132.761 93.39L132.915 93.53L132.733 94.636C132.257 94.8787 131.772 95.028 131.277 95.084C130.017 94.9533 129.387 94.3373 129.387 93.236L129.457 92.074L129.443 89.666H128.575L128.505 89.568L128.603 88.546H129.429V87.468L131.123 86.922L131.249 87.034L131.207 88.546H132.873L132.929 88.644L132.845 89.666H131.179L131.095 92.802C131.095 93.1007 131.151 93.3153 131.263 93.446C131.375 93.5673 131.562 93.628 131.823 93.628ZM138.866 91.976L135.086 92.004C135.17 93.1707 135.762 93.754 136.864 93.754C137.442 93.754 138.086 93.5907 138.796 93.264L138.95 93.362L138.67 94.748C137.96 95.0093 137.293 95.14 136.668 95.14C135.641 95.14 134.834 94.8413 134.246 94.244C133.667 93.6467 133.378 92.8207 133.378 91.766C133.378 90.7207 133.662 89.8947 134.232 89.288C134.801 88.672 135.571 88.364 136.542 88.364C137.372 88.364 138.012 88.5927 138.46 89.05C138.917 89.498 139.146 90.128 139.146 90.94C139.146 91.1547 139.122 91.4253 139.076 91.752L138.866 91.976ZM137.522 90.73C137.522 90.3567 137.438 90.0767 137.27 89.89C137.102 89.694 136.854 89.596 136.528 89.596C136.164 89.596 135.86 89.7173 135.618 89.96C135.375 90.1933 135.212 90.534 135.128 90.982L137.494 90.926L137.522 90.73ZM142.613 88.378C143.248 88.378 143.845 88.4853 144.405 88.7L144.153 90.072L143.929 90.142C143.659 89.9647 143.388 89.8293 143.117 89.736C142.847 89.6427 142.609 89.596 142.403 89.596C142.179 89.596 142.002 89.6567 141.871 89.778C141.741 89.89 141.675 90.03 141.675 90.198C141.675 90.394 141.759 90.5527 141.927 90.674C142.105 90.7953 142.38 90.9307 142.753 91.08C143.127 91.2293 143.435 91.374 143.677 91.514C143.92 91.654 144.125 91.85 144.293 92.102C144.471 92.3447 144.559 92.648 144.559 93.012C144.559 93.3853 144.461 93.7353 144.265 94.062C144.079 94.3793 143.789 94.6407 143.397 94.846C143.005 95.042 142.525 95.14 141.955 95.14C141.283 95.14 140.588 95 139.869 94.72L140.079 93.264L140.261 93.152C140.551 93.3947 140.873 93.5907 141.227 93.74C141.582 93.88 141.895 93.95 142.165 93.95C142.417 93.95 142.613 93.8893 142.753 93.768C142.893 93.6373 142.963 93.4833 142.963 93.306C142.963 93.11 142.875 92.9513 142.697 92.83C142.529 92.7087 142.259 92.5733 141.885 92.424C141.503 92.256 141.19 92.1067 140.947 91.976C140.705 91.836 140.495 91.64 140.317 91.388C140.149 91.136 140.065 90.8233 140.065 90.45C140.065 89.8433 140.294 89.3487 140.751 88.966C141.209 88.574 141.829 88.378 142.613 88.378ZM33.4829 107.976L29.7029 108.004C29.7869 109.171 30.3795 109.754 31.4809 109.754C32.0595 109.754 32.7035 109.591 33.4129 109.264L33.5669 109.362L33.2869 110.748C32.5775 111.009 31.9102 111.14 31.2849 111.14C30.2582 111.14 29.4509 110.841 28.8629 110.244C28.2842 109.647 27.9949 108.821 27.9949 107.766C27.9949 106.721 28.2795 105.895 28.8489 105.288C29.4182 104.672 30.1882 104.364 31.1589 104.364C31.9895 104.364 32.6289 104.593 33.0769 105.05C33.5342 105.498 33.7629 106.128 33.7629 106.94C33.7629 107.155 33.7395 107.425 33.6929 107.752L33.4829 107.976ZM32.1389 106.73C32.1389 106.357 32.0549 106.077 31.8869 105.89C31.7189 105.694 31.4715 105.596 31.1449 105.596C30.7809 105.596 30.4775 105.717 30.2349 105.96C29.9922 106.193 29.8289 106.534 29.7449 106.982L32.1109 106.926L32.1389 106.73ZM32.3769 100.892L33.0489 101.9L33.0209 102.082C32.8155 102.213 32.6615 102.306 32.5589 102.362C31.3922 103.081 30.6362 103.538 30.2909 103.734L30.1089 103.72L29.6609 103.02C30.7435 102.152 31.5882 101.438 32.1949 100.878L32.3769 100.892ZM39.8675 104.364C40.8195 104.364 41.5475 104.644 42.0515 105.204C42.5555 105.764 42.8075 106.571 42.8075 107.626C42.8075 108.765 42.5369 109.637 41.9955 110.244C41.4542 110.841 40.6749 111.14 39.6575 111.14C38.7055 111.14 37.9775 110.86 37.4735 110.3C36.9695 109.74 36.7175 108.933 36.7175 107.878C36.7175 106.739 36.9882 105.871 37.5295 105.274C38.0709 104.667 38.8502 104.364 39.8675 104.364ZM39.7415 105.624C39.2935 105.624 38.9669 105.773 38.7615 106.072C38.5655 106.371 38.4675 106.851 38.4675 107.514C38.4675 108.373 38.5702 108.984 38.7755 109.348C38.9809 109.712 39.3169 109.894 39.7835 109.894C40.2315 109.894 40.5535 109.749 40.7495 109.46C40.9549 109.161 41.0575 108.676 41.0575 108.004C41.0575 107.155 40.9502 106.548 40.7355 106.184C40.5302 105.811 40.1989 105.624 39.7415 105.624ZM48.7646 104.364C49.4833 104.364 50.0433 104.527 50.4446 104.854C50.8553 105.171 51.0606 105.619 51.0606 106.198C51.0606 106.366 51.0326 106.898 50.9766 107.794C50.9673 108.055 50.9533 108.326 50.9346 108.606C50.916 108.877 50.9066 109.11 50.9066 109.306C50.9066 109.465 50.93 109.577 50.9766 109.642C51.0233 109.698 51.1073 109.726 51.2286 109.726C51.322 109.726 51.4433 109.707 51.5926 109.67L51.7326 109.782L51.5646 110.762C51.266 110.958 50.9253 111.075 50.5426 111.112C50.2626 111.084 50.0293 110.986 49.8426 110.818C49.656 110.641 49.53 110.398 49.4646 110.09H49.3666C48.9 110.585 48.4193 110.93 47.9246 111.126C47.2526 111.117 46.7253 110.939 46.3426 110.594C45.96 110.249 45.7686 109.777 45.7686 109.18C45.7686 108.713 45.8853 108.349 46.1186 108.088C46.3613 107.817 46.7253 107.635 47.2106 107.542L49.3526 107.136V106.562C49.3526 105.955 49.054 105.652 48.4566 105.652C48.1673 105.652 47.8593 105.717 47.5326 105.848C47.2153 105.979 46.856 106.184 46.4546 106.464L46.3146 106.38L46.1046 105.148C46.506 104.896 46.9353 104.705 47.3926 104.574C47.85 104.434 48.3073 104.364 48.7646 104.364ZM47.8546 108.396C47.7053 108.433 47.5933 108.499 47.5186 108.592C47.4533 108.676 47.4206 108.807 47.4206 108.984C47.4206 109.227 47.486 109.418 47.6166 109.558C47.7473 109.689 47.9293 109.754 48.1626 109.754C48.5266 109.754 48.9093 109.539 49.3106 109.11L49.3386 108.074L47.8546 108.396ZM56.3869 104.406C57.1989 104.406 57.8242 104.681 58.2629 105.232C58.7015 105.783 58.9209 106.562 58.9209 107.57C58.9209 108.709 58.6362 109.591 58.0669 110.216C57.5069 110.832 56.7135 111.14 55.6869 111.14C55.3882 111.14 55.0755 111.112 54.7489 111.056L54.7909 113.59H52.9429L53.0409 108.312L52.9569 104.616L54.7349 104.462L54.7209 105.414H54.8189C55.0802 105.162 55.3322 104.961 55.5749 104.812C55.8175 104.653 56.0882 104.518 56.3869 104.406ZM55.7009 109.922C56.1862 109.922 56.5549 109.749 56.8069 109.404C57.0589 109.059 57.1849 108.55 57.1849 107.878C57.1849 107.225 57.0775 106.735 56.8629 106.408C56.6575 106.072 56.3495 105.904 55.9389 105.904C55.5375 105.904 55.1315 106.105 54.7209 106.506L54.7069 108.13L54.7349 109.712C55.0709 109.852 55.3929 109.922 55.7009 109.922ZM63.7049 104.476C63.7889 104.476 63.9056 104.485 64.0549 104.504V106.226L63.8589 106.296C63.7003 106.231 63.5276 106.198 63.3409 106.198C62.7996 106.198 62.3096 106.548 61.8709 107.248V108.13L61.9689 111H60.1069L60.2189 108.312L60.1349 104.616L61.8989 104.462L61.8849 105.736H61.9969C62.4543 104.896 63.0236 104.476 63.7049 104.476ZM70.0141 107.976L66.2341 108.004C66.3181 109.171 66.9108 109.754 68.0121 109.754C68.5908 109.754 69.2348 109.591 69.9441 109.264L70.0981 109.362L69.8181 110.748C69.1088 111.009 68.4415 111.14 67.8161 111.14C66.7895 111.14 65.9821 110.841 65.3941 110.244C64.8155 109.647 64.5261 108.821 64.5261 107.766C64.5261 106.721 64.8108 105.895 65.3801 105.288C65.9495 104.672 66.7195 104.364 67.6901 104.364C68.5208 104.364 69.1601 104.593 69.6081 105.05C70.0655 105.498 70.2941 106.128 70.2941 106.94C70.2941 107.155 70.2708 107.425 70.2241 107.752L70.0141 107.976ZM68.6701 106.73C68.6701 106.357 68.5861 106.077 68.4181 105.89C68.2501 105.694 68.0028 105.596 67.6761 105.596C67.3121 105.596 67.0088 105.717 66.7661 105.96C66.5235 106.193 66.3601 106.534 66.2761 106.982L68.6421 106.926L68.6701 106.73ZM75.5816 106.94C75.591 106.613 75.5163 106.361 75.3576 106.184C75.2083 105.997 74.989 105.904 74.6996 105.904C74.2796 105.904 73.8316 106.105 73.3556 106.506V108.13L73.4396 111H71.5776L71.6756 108.312L71.6056 104.616L73.3696 104.462V105.414H73.4676C73.981 104.947 74.541 104.611 75.1476 104.406C75.857 104.406 76.3983 104.569 76.7716 104.896C77.145 105.213 77.3223 105.675 77.3036 106.282L77.2616 108.144L77.3456 111H75.4696L75.5816 106.94ZM84.4198 108.13L84.4618 109.306C84.4618 109.465 84.4805 109.577 84.5178 109.642C84.5645 109.698 84.6438 109.726 84.7558 109.726C84.8585 109.726 84.9845 109.707 85.1338 109.67L85.2598 109.782L85.1058 110.762C84.7885 110.958 84.4431 111.075 84.0698 111.112C83.7805 111.084 83.5378 110.986 83.3418 110.818C83.1458 110.65 83.0105 110.421 82.9358 110.132H82.8238C82.3665 110.552 81.8998 110.874 81.4238 111.098C80.5091 111.098 79.7998 110.809 79.2958 110.23C78.7918 109.642 78.5398 108.83 78.5398 107.794C78.5398 106.693 78.8291 105.848 79.4078 105.26C79.9865 104.672 80.7891 104.378 81.8158 104.378C82.0865 104.378 82.3851 104.406 82.7118 104.462L82.6838 101.312L84.5318 101.172L84.4198 108.13ZM81.6898 105.638C80.7565 105.638 80.2898 106.231 80.2898 107.416C80.2898 108.153 80.4018 108.709 80.6258 109.082C80.8498 109.455 81.1765 109.642 81.6058 109.642C82.0165 109.642 82.3945 109.451 82.7398 109.068L82.7678 108.298L82.7258 105.89C82.3618 105.722 82.0165 105.638 81.6898 105.638ZM86.4829 108.312L86.4129 104.616L88.2469 104.462L88.1629 108.13L88.2469 111H86.3849L86.4829 108.312ZM87.3649 101.298C87.6543 101.298 87.8783 101.382 88.0369 101.55C88.2049 101.718 88.2889 101.951 88.2889 102.25C88.2889 102.567 88.2003 102.819 88.0229 103.006C87.8456 103.193 87.6029 103.286 87.2949 103.286C86.9869 103.286 86.7489 103.202 86.5809 103.034C86.4223 102.866 86.3429 102.628 86.3429 102.32C86.3429 102.012 86.4316 101.765 86.6089 101.578C86.7956 101.391 87.0476 101.298 87.3649 101.298ZM91.0853 104.49H93.9133L94.6273 104.476L94.6413 105.582L91.4913 109.81H93.4653L94.6553 109.698L94.7533 109.824L94.6273 111.028L93.0033 111H90.4273L89.5313 111.042V109.95L92.7093 105.694H90.8333L89.6713 105.792L89.5593 105.666L89.6993 104.462L91.0853 104.49ZM98.5029 104.364C99.2216 104.364 99.7816 104.527 100.183 104.854C100.594 105.171 100.799 105.619 100.799 106.198C100.799 106.366 100.771 106.898 100.715 107.794C100.706 108.055 100.692 108.326 100.673 108.606C100.654 108.877 100.645 109.11 100.645 109.306C100.645 109.465 100.668 109.577 100.715 109.642C100.762 109.698 100.846 109.726 100.967 109.726C101.06 109.726 101.182 109.707 101.331 109.67L101.471 109.782L101.303 110.762C101.004 110.958 100.664 111.075 100.281 111.112C100.001 111.084 99.7676 110.986 99.5809 110.818C99.3942 110.641 99.2682 110.398 99.2029 110.09H99.1049C98.6382 110.585 98.1576 110.93 97.6629 111.126C96.9909 111.117 96.4636 110.939 96.0809 110.594C95.6982 110.249 95.5069 109.777 95.5069 109.18C95.5069 108.713 95.6236 108.349 95.8569 108.088C96.0996 107.817 96.4636 107.635 96.9489 107.542L99.0909 107.136V106.562C99.0909 105.955 98.7922 105.652 98.1949 105.652C97.9056 105.652 97.5976 105.717 97.2709 105.848C96.9536 105.979 96.5942 106.184 96.1929 106.464L96.0529 106.38L95.8429 105.148C96.2442 104.896 96.6736 104.705 97.1309 104.574C97.5882 104.434 98.0456 104.364 98.5029 104.364ZM97.5929 108.396C97.4436 108.433 97.3316 108.499 97.2569 108.592C97.1916 108.676 97.1589 108.807 97.1589 108.984C97.1589 109.227 97.2242 109.418 97.3549 109.558C97.4856 109.689 97.6676 109.754 97.9009 109.754C98.2649 109.754 98.6476 109.539 99.0489 109.11L99.0769 108.074L97.5929 108.396ZM108.113 108.13L108.155 109.306C108.155 109.465 108.174 109.577 108.211 109.642C108.258 109.698 108.337 109.726 108.449 109.726C108.552 109.726 108.678 109.707 108.827 109.67L108.953 109.782L108.799 110.762C108.482 110.958 108.136 111.075 107.763 111.112C107.474 111.084 107.231 110.986 107.035 110.818C106.839 110.65 106.704 110.421 106.629 110.132H106.517C106.06 110.552 105.593 110.874 105.117 111.098C104.202 111.098 103.493 110.809 102.989 110.23C102.485 109.642 102.233 108.83 102.233 107.794C102.233 106.693 102.522 105.848 103.101 105.26C103.68 104.672 104.482 104.378 105.509 104.378C105.78 104.378 106.078 104.406 106.405 104.462L106.377 101.312L108.225 101.172L108.113 108.13ZM105.383 105.638C104.45 105.638 103.983 106.231 103.983 107.416C103.983 108.153 104.095 108.709 104.319 109.082C104.543 109.455 104.87 109.642 105.299 109.642C105.71 109.642 106.088 109.451 106.433 109.068L106.461 108.298L106.419 105.89C106.055 105.722 105.71 105.638 105.383 105.638ZM112.752 104.364C113.704 104.364 114.432 104.644 114.936 105.204C115.44 105.764 115.692 106.571 115.692 107.626C115.692 108.765 115.422 109.637 114.88 110.244C114.339 110.841 113.56 111.14 112.542 111.14C111.59 111.14 110.862 110.86 110.358 110.3C109.854 109.74 109.602 108.933 109.602 107.878C109.602 106.739 109.873 105.871 110.414 105.274C110.956 104.667 111.735 104.364 112.752 104.364ZM112.626 105.624C112.178 105.624 111.852 105.773 111.646 106.072C111.45 106.371 111.352 106.851 111.352 107.514C111.352 108.373 111.455 108.984 111.66 109.348C111.866 109.712 112.202 109.894 112.668 109.894C113.116 109.894 113.438 109.749 113.634 109.46C113.84 109.161 113.942 108.676 113.942 108.004C113.942 107.155 113.835 106.548 113.62 106.184C113.415 105.811 113.084 105.624 112.626 105.624ZM124.477 104.378L124.631 104.462L124.519 108.13L124.617 113.59H122.769L122.853 110.65V110.3H122.741C122.359 110.627 121.939 110.893 121.481 111.098C120.576 111.098 119.876 110.809 119.381 110.23C118.887 109.642 118.639 108.839 118.639 107.822C118.639 106.711 118.929 105.862 119.507 105.274C120.086 104.677 120.861 104.378 121.831 104.378C122.335 104.378 122.895 104.481 123.511 104.686L124.477 104.378ZM121.775 105.638C120.851 105.638 120.389 106.254 120.389 107.486C120.389 108.186 120.497 108.723 120.711 109.096C120.935 109.46 121.257 109.642 121.677 109.642C121.873 109.642 122.065 109.6 122.251 109.516C122.447 109.423 122.648 109.273 122.853 109.068L122.867 108.326L122.825 105.932C122.452 105.736 122.102 105.638 121.775 105.638ZM132.563 109.782L132.395 110.762C132.05 110.986 131.695 111.103 131.331 111.112C131.06 111.065 130.836 110.958 130.659 110.79C130.482 110.622 130.346 110.379 130.253 110.062H130.127C129.595 110.585 129.044 110.925 128.475 111.084C127.766 111.084 127.224 110.925 126.851 110.608C126.487 110.281 126.31 109.815 126.319 109.208L126.347 107.556L126.277 104.616L128.083 104.462L128.041 108.592C128.032 108.919 128.097 109.166 128.237 109.334C128.377 109.502 128.587 109.586 128.867 109.586C129.278 109.586 129.684 109.404 130.085 109.04V104.616L131.863 104.462L131.737 109.306C131.737 109.455 131.76 109.563 131.807 109.628C131.863 109.693 131.947 109.726 132.059 109.726C132.162 109.726 132.288 109.707 132.437 109.67L132.563 109.782ZM138.702 107.976L134.922 108.004C135.006 109.171 135.598 109.754 136.7 109.754C137.278 109.754 137.922 109.591 138.632 109.264L138.786 109.362L138.506 110.748C137.796 111.009 137.129 111.14 136.504 111.14C135.477 111.14 134.67 110.841 134.082 110.244C133.503 109.647 133.214 108.821 133.214 107.766C133.214 106.721 133.498 105.895 134.068 105.288C134.637 104.672 135.407 104.364 136.378 104.364C137.208 104.364 137.848 104.593 138.296 105.05C138.753 105.498 138.982 106.128 138.982 106.94C138.982 107.155 138.958 107.425 138.912 107.752L138.702 107.976ZM137.358 106.73C137.358 106.357 137.274 106.077 137.106 105.89C136.938 105.694 136.69 105.596 136.364 105.596C136 105.596 135.696 105.717 135.454 105.96C135.211 106.193 135.048 106.534 134.964 106.982L137.33 106.926L137.358 106.73ZM25.5363 120.406C26.3483 120.406 26.9736 120.681 27.4123 121.232C27.8509 121.783 28.0703 122.562 28.0703 123.57C28.0703 124.709 27.7856 125.591 27.2163 126.216C26.6563 126.832 25.8629 127.14 24.8363 127.14C24.5376 127.14 24.2249 127.112 23.8983 127.056L23.9403 129.59H22.0923L22.1903 124.312L22.1063 120.616L23.8843 120.462L23.8703 121.414H23.9683C24.2296 121.162 24.4816 120.961 24.7243 120.812C24.9669 120.653 25.2376 120.518 25.5363 120.406ZM24.8503 125.922C25.3356 125.922 25.7043 125.749 25.9563 125.404C26.2083 125.059 26.3343 124.55 26.3343 123.878C26.3343 123.225 26.2269 122.735 26.0123 122.408C25.8069 122.072 25.4989 121.904 25.0883 121.904C24.6869 121.904 24.2809 122.105 23.8703 122.506L23.8563 124.13L23.8843 125.712C24.2203 125.852 24.5423 125.922 24.8503 125.922ZM32.8543 120.476C32.9383 120.476 33.055 120.485 33.2043 120.504V122.226L33.0083 122.296C32.8497 122.231 32.677 122.198 32.4903 122.198C31.949 122.198 31.459 122.548 31.0203 123.248V124.13L31.1183 127H29.2563L29.3683 124.312L29.2843 120.616L31.0483 120.462L31.0343 121.736H31.1463C31.6037 120.896 32.173 120.476 32.8543 120.476ZM36.8255 120.364C37.7775 120.364 38.5055 120.644 39.0095 121.204C39.5135 121.764 39.7655 122.571 39.7655 123.626C39.7655 124.765 39.4949 125.637 38.9535 126.244C38.4122 126.841 37.6329 127.14 36.6155 127.14C35.6635 127.14 34.9355 126.86 34.4315 126.3C33.9275 125.74 33.6755 124.933 33.6755 123.878C33.6755 122.739 33.9462 121.871 34.4875 121.274C35.0289 120.667 35.8082 120.364 36.8255 120.364ZM36.6995 121.624C36.2515 121.624 35.9249 121.773 35.7195 122.072C35.5235 122.371 35.4255 122.851 35.4255 123.514C35.4255 124.373 35.5282 124.984 35.7335 125.348C35.9389 125.712 36.2749 125.894 36.7415 125.894C37.1895 125.894 37.5115 125.749 37.7075 125.46C37.9129 125.161 38.0155 124.676 38.0155 124.004C38.0155 123.155 37.9082 122.548 37.6935 122.184C37.4882 121.811 37.1569 121.624 36.6995 121.624ZM48.7575 127L48.8695 122.94C48.8695 122.249 48.5755 121.904 47.9875 121.904C47.5675 121.904 47.1288 122.091 46.6715 122.464L46.6295 124.144L46.7135 127H44.8515L44.9635 122.94C44.9728 122.604 44.8981 122.347 44.7395 122.17C44.5901 121.993 44.3708 121.904 44.0815 121.904C43.6708 121.904 43.2181 122.1 42.7235 122.492V124.13L42.8075 127H40.9595L41.0575 124.312L40.9875 120.616L42.7375 120.462V121.414H42.8355C43.3488 120.947 43.9135 120.611 44.5295 120.406C45.5748 120.406 46.2421 120.756 46.5315 121.456H46.6155C47.1475 120.961 47.7541 120.611 48.4355 120.406C49.1448 120.406 49.6815 120.569 50.0455 120.896C50.4188 121.213 50.5961 121.675 50.5775 122.282L50.5355 124.144L50.6195 127H48.7575ZM54.9544 120.364C55.9064 120.364 56.6344 120.644 57.1384 121.204C57.6424 121.764 57.8944 122.571 57.8944 123.626C57.8944 124.765 57.6238 125.637 57.0824 126.244C56.5411 126.841 55.7618 127.14 54.7444 127.14C53.7924 127.14 53.0644 126.86 52.5604 126.3C52.0564 125.74 51.8044 124.933 51.8044 123.878C51.8044 122.739 52.0751 121.871 52.6164 121.274C53.1578 120.667 53.9371 120.364 54.9544 120.364ZM54.8284 121.624C54.3804 121.624 54.0538 121.773 53.8484 122.072C53.6524 122.371 53.5544 122.851 53.5544 123.514C53.5544 124.373 53.6571 124.984 53.8624 125.348C54.0678 125.712 54.4038 125.894 54.8704 125.894C55.3184 125.894 55.6404 125.749 55.8364 125.46C56.0418 125.161 56.1444 124.676 56.1444 124.004C56.1444 123.155 56.0371 122.548 55.8224 122.184C55.6171 121.811 55.2858 121.624 54.8284 121.624ZM60.2243 121.526L61.2043 125.25H61.3023L62.4783 121.624L62.7163 120.49H64.3403L62.1563 127H60.1543L58.3063 120.532L60.0423 120.448L60.2243 121.526ZM70.1167 123.976L66.3367 124.004C66.4207 125.171 67.0133 125.754 68.1147 125.754C68.6933 125.754 69.3373 125.591 70.0467 125.264L70.2007 125.362L69.9207 126.748C69.2113 127.009 68.544 127.14 67.9187 127.14C66.892 127.14 66.0847 126.841 65.4967 126.244C64.918 125.647 64.6287 124.821 64.6287 123.766C64.6287 122.721 64.9133 121.895 65.4827 121.288C66.052 120.672 66.822 120.364 67.7927 120.364C68.6233 120.364 69.2627 120.593 69.7107 121.05C70.168 121.498 70.3967 122.128 70.3967 122.94C70.3967 123.155 70.3733 123.425 70.3267 123.752L70.1167 123.976ZM68.7727 122.73C68.7727 122.357 68.6887 122.077 68.5207 121.89C68.3527 121.694 68.1053 121.596 67.7787 121.596C67.4147 121.596 67.1113 121.717 66.8687 121.96C66.626 122.193 66.4627 122.534 66.3787 122.982L68.7447 122.926L68.7727 122.73ZM79.1893 120.378L79.3433 120.462L79.2313 124.13L79.3293 129.59H77.4813L77.5653 126.65V126.3H77.4533C77.0706 126.627 76.6506 126.893 76.1933 127.098C75.288 127.098 74.588 126.809 74.0933 126.23C73.5986 125.642 73.3513 124.839 73.3513 123.822C73.3513 122.711 73.6406 121.862 74.2193 121.274C74.798 120.677 75.5726 120.378 76.5433 120.378C77.0473 120.378 77.6073 120.481 78.2233 120.686L79.1893 120.378ZM76.4873 121.638C75.5633 121.638 75.1013 122.254 75.1013 123.486C75.1013 124.186 75.2086 124.723 75.4233 125.096C75.6473 125.46 75.9693 125.642 76.3893 125.642C76.5853 125.642 76.7766 125.6 76.9633 125.516C77.1593 125.423 77.36 125.273 77.5653 125.068L77.5793 124.326L77.5373 121.932C77.164 121.736 76.814 121.638 76.4873 121.638ZM87.2751 125.782L87.1071 126.762C86.7617 126.986 86.4071 127.103 86.0431 127.112C85.7724 127.065 85.5484 126.958 85.3711 126.79C85.1937 126.622 85.0584 126.379 84.9651 126.062H84.8391C84.3071 126.585 83.7564 126.925 83.1871 127.084C82.4777 127.084 81.9364 126.925 81.5631 126.608C81.1991 126.281 81.0217 125.815 81.0311 125.208L81.0591 123.556L80.9891 120.616L82.7951 120.462L82.7531 124.592C82.7437 124.919 82.8091 125.166 82.9491 125.334C83.0891 125.502 83.2991 125.586 83.5791 125.586C83.9897 125.586 84.3957 125.404 84.7971 125.04V120.616L86.5751 120.462L86.4491 125.306C86.4491 125.455 86.4724 125.563 86.5191 125.628C86.5751 125.693 86.6591 125.726 86.7711 125.726C86.8737 125.726 86.9997 125.707 87.1491 125.67L87.2751 125.782ZM90.9355 120.364C91.6542 120.364 92.2142 120.527 92.6155 120.854C93.0262 121.171 93.2315 121.619 93.2315 122.198C93.2315 122.366 93.2035 122.898 93.1475 123.794C93.1382 124.055 93.1242 124.326 93.1055 124.606C93.0869 124.877 93.0775 125.11 93.0775 125.306C93.0775 125.465 93.1009 125.577 93.1475 125.642C93.1942 125.698 93.2782 125.726 93.3995 125.726C93.4929 125.726 93.6142 125.707 93.7635 125.67L93.9035 125.782L93.7355 126.762C93.4369 126.958 93.0962 127.075 92.7135 127.112C92.4335 127.084 92.2002 126.986 92.0135 126.818C91.8269 126.641 91.7009 126.398 91.6355 126.09H91.5375C91.0709 126.585 90.5902 126.93 90.0955 127.126C89.4235 127.117 88.8962 126.939 88.5135 126.594C88.1309 126.249 87.9395 125.777 87.9395 125.18C87.9395 124.713 88.0562 124.349 88.2895 124.088C88.5322 123.817 88.8962 123.635 89.3815 123.542L91.5235 123.136V122.562C91.5235 121.955 91.2249 121.652 90.6275 121.652C90.3382 121.652 90.0302 121.717 89.7035 121.848C89.3862 121.979 89.0269 122.184 88.6255 122.464L88.4855 122.38L88.2755 121.148C88.6769 120.896 89.1062 120.705 89.5635 120.574C90.0209 120.434 90.4782 120.364 90.9355 120.364ZM90.0255 124.396C89.8762 124.433 89.7642 124.499 89.6895 124.592C89.6242 124.676 89.5915 124.807 89.5915 124.984C89.5915 125.227 89.6569 125.418 89.7875 125.558C89.9182 125.689 90.1002 125.754 90.3335 125.754C90.6975 125.754 91.0802 125.539 91.4815 125.11L91.5095 124.074L90.0255 124.396ZM96.9338 124.13L97.0318 127H95.1698L95.2678 124.298L95.1838 117.312L97.0458 117.172L96.9338 124.13ZM98.9175 124.312L98.8475 120.616L100.682 120.462L100.598 124.13L100.682 127H98.8195L98.9175 124.312ZM99.7995 117.298C100.089 117.298 100.313 117.382 100.472 117.55C100.64 117.718 100.724 117.951 100.724 118.25C100.724 118.567 100.635 118.819 100.458 119.006C100.28 119.193 100.038 119.286 99.7295 119.286C99.4215 119.286 99.1835 119.202 99.0155 119.034C98.8568 118.866 98.7775 118.628 98.7775 118.32C98.7775 118.012 98.8662 117.765 99.0435 117.578C99.2302 117.391 99.4822 117.298 99.7995 117.298ZM107.874 124.13L107.916 125.306C107.916 125.465 107.935 125.577 107.972 125.642C108.019 125.698 108.098 125.726 108.21 125.726C108.313 125.726 108.439 125.707 108.588 125.67L108.714 125.782L108.56 126.762C108.243 126.958 107.897 127.075 107.524 127.112C107.235 127.084 106.992 126.986 106.796 126.818C106.6 126.65 106.465 126.421 106.39 126.132H106.278C105.821 126.552 105.354 126.874 104.878 127.098C103.963 127.098 103.254 126.809 102.75 126.23C102.246 125.642 101.994 124.83 101.994 123.794C101.994 122.693 102.283 121.848 102.862 121.26C103.441 120.672 104.243 120.378 105.27 120.378C105.541 120.378 105.839 120.406 106.166 120.462L106.138 117.312L107.986 117.172L107.874 124.13ZM105.144 121.638C104.211 121.638 103.744 122.231 103.744 123.416C103.744 124.153 103.856 124.709 104.08 125.082C104.304 125.455 104.631 125.642 105.06 125.642C105.471 125.642 105.849 125.451 106.194 125.068L106.222 124.298L106.18 121.89C105.816 121.722 105.471 121.638 105.144 121.638ZM112.373 120.364C113.092 120.364 113.652 120.527 114.053 120.854C114.464 121.171 114.669 121.619 114.669 122.198C114.669 122.366 114.641 122.898 114.585 123.794C114.576 124.055 114.562 124.326 114.543 124.606C114.524 124.877 114.515 125.11 114.515 125.306C114.515 125.465 114.538 125.577 114.585 125.642C114.632 125.698 114.716 125.726 114.837 125.726C114.93 125.726 115.052 125.707 115.201 125.67L115.341 125.782L115.173 126.762C114.874 126.958 114.534 127.075 114.151 127.112C113.871 127.084 113.638 126.986 113.451 126.818C113.264 126.641 113.138 126.398 113.073 126.09H112.975C112.508 126.585 112.028 126.93 111.533 127.126C110.861 127.117 110.334 126.939 109.951 126.594C109.568 126.249 109.377 125.777 109.377 125.18C109.377 124.713 109.494 124.349 109.727 124.088C109.97 123.817 110.334 123.635 110.819 123.542L112.961 123.136V122.562C112.961 121.955 112.662 121.652 112.065 121.652C111.776 121.652 111.468 121.717 111.141 121.848C110.824 121.979 110.464 122.184 110.063 122.464L109.923 122.38L109.713 121.148C110.114 120.896 110.544 120.705 111.001 120.574C111.458 120.434 111.916 120.364 112.373 120.364ZM111.463 124.396C111.314 124.433 111.202 124.499 111.127 124.592C111.062 124.676 111.029 124.807 111.029 124.984C111.029 125.227 111.094 125.418 111.225 125.558C111.356 125.689 111.538 125.754 111.771 125.754C112.135 125.754 112.518 125.539 112.919 125.11L112.947 124.074L111.463 124.396ZM121.983 124.13L122.025 125.306C122.025 125.465 122.044 125.577 122.081 125.642C122.128 125.698 122.207 125.726 122.319 125.726C122.422 125.726 122.548 125.707 122.697 125.67L122.823 125.782L122.669 126.762C122.352 126.958 122.007 127.075 121.633 127.112C121.344 127.084 121.101 126.986 120.905 126.818C120.709 126.65 120.574 126.421 120.499 126.132H120.387C119.93 126.552 119.463 126.874 118.987 127.098C118.073 127.098 117.363 126.809 116.859 126.23C116.355 125.642 116.103 124.83 116.103 123.794C116.103 122.693 116.393 121.848 116.971 121.26C117.55 120.672 118.353 120.378 119.379 120.378C119.65 120.378 119.949 120.406 120.275 120.462L120.247 117.312L122.095 117.172L121.983 124.13ZM119.253 121.638C118.32 121.638 117.853 122.231 117.853 123.416C117.853 124.153 117.965 124.709 118.189 125.082C118.413 125.455 118.74 125.642 119.169 125.642C119.58 125.642 119.958 125.451 120.303 125.068L120.331 124.298L120.289 121.89C119.925 121.722 119.58 121.638 119.253 121.638ZM128.96 123.976L125.18 124.004C125.264 125.171 125.857 125.754 126.958 125.754C127.537 125.754 128.181 125.591 128.89 125.264L129.044 125.362L128.764 126.748C128.055 127.009 127.388 127.14 126.762 127.14C125.736 127.14 124.928 126.841 124.34 126.244C123.762 125.647 123.472 124.821 123.472 123.766C123.472 122.721 123.757 121.895 124.326 121.288C124.896 120.672 125.666 120.364 126.636 120.364C127.467 120.364 128.106 120.593 128.554 121.05C129.012 121.498 129.24 122.128 129.24 122.94C129.24 123.155 129.217 123.425 129.17 123.752L128.96 123.976ZM127.616 122.73C127.616 122.357 127.532 122.077 127.364 121.89C127.196 121.694 126.949 121.596 126.622 121.596C126.258 121.596 125.955 121.717 125.712 121.96C125.47 122.193 125.306 122.534 125.222 122.982L127.588 122.926L127.616 122.73ZM138.075 124.13L138.117 125.306C138.117 125.465 138.136 125.577 138.173 125.642C138.22 125.698 138.299 125.726 138.411 125.726C138.514 125.726 138.64 125.707 138.789 125.67L138.915 125.782L138.761 126.762C138.444 126.958 138.098 127.075 137.725 127.112C137.436 127.084 137.193 126.986 136.997 126.818C136.801 126.65 136.666 126.421 136.591 126.132H136.479C136.022 126.552 135.555 126.874 135.079 127.098C134.164 127.098 133.455 126.809 132.951 126.23C132.447 125.642 132.195 124.83 132.195 123.794C132.195 122.693 132.484 121.848 133.063 121.26C133.642 120.672 134.444 120.378 135.471 120.378C135.742 120.378 136.04 120.406 136.367 120.462L136.339 117.312L138.187 117.172L138.075 124.13ZM135.345 121.638C134.412 121.638 133.945 122.231 133.945 123.416C133.945 124.153 134.057 124.709 134.281 125.082C134.505 125.455 134.832 125.642 135.261 125.642C135.672 125.642 136.05 125.451 136.395 125.068L136.423 124.298L136.381 121.89C136.017 121.722 135.672 121.638 135.345 121.638ZM145.052 123.976L141.272 124.004C141.356 125.171 141.949 125.754 143.05 125.754C143.629 125.754 144.273 125.591 144.982 125.264L145.136 125.362L144.856 126.748C144.147 127.009 143.48 127.14 142.854 127.14C141.828 127.14 141.02 126.841 140.432 126.244C139.854 125.647 139.564 124.821 139.564 123.766C139.564 122.721 139.849 121.895 140.418 121.288C140.988 120.672 141.758 120.364 142.728 120.364C143.559 120.364 144.198 120.593 144.646 121.05C145.104 121.498 145.332 122.128 145.332 122.94C145.332 123.155 145.309 123.425 145.262 123.752L145.052 123.976ZM143.708 122.73C143.708 122.357 143.624 122.077 143.456 121.89C143.288 121.694 143.041 121.596 142.714 121.596C142.35 121.596 142.047 121.717 141.804 121.96C141.562 122.193 141.398 122.534 141.314 122.982L143.68 122.926L143.708 122.73ZM73.5749 137.526L74.5549 141.25H74.6529L75.8289 137.624L76.0669 136.49H77.6909L75.5069 143H73.5049L71.6569 136.532L73.3929 136.448L73.5749 137.526ZM78.7173 140.312L78.6473 136.616L80.4813 136.462L80.3973 140.13L80.4813 143H78.6193L78.7173 140.312ZM79.5993 133.298C79.8886 133.298 80.1126 133.382 80.2713 133.55C80.4393 133.718 80.5233 133.951 80.5233 134.25C80.5233 134.567 80.4346 134.819 80.2573 135.006C80.08 135.193 79.8373 135.286 79.5293 135.286C79.2213 135.286 78.9833 135.202 78.8153 135.034C78.6566 134.866 78.5773 134.628 78.5773 134.32C78.5773 134.012 78.666 133.765 78.8433 133.578C79.03 133.391 79.282 133.298 79.5993 133.298ZM87.6737 140.13L87.7157 141.306C87.7157 141.465 87.7344 141.577 87.7717 141.642C87.8184 141.698 87.8977 141.726 88.0097 141.726C88.1124 141.726 88.2384 141.707 88.3877 141.67L88.5137 141.782L88.3597 142.762C88.0424 142.958 87.697 143.075 87.3237 143.112C87.0344 143.084 86.7917 142.986 86.5957 142.818C86.3997 142.65 86.2644 142.421 86.1897 142.132H86.0777C85.6204 142.552 85.1537 142.874 84.6777 143.098C83.763 143.098 83.0537 142.809 82.5497 142.23C82.0457 141.642 81.7937 140.83 81.7937 139.794C81.7937 138.693 82.083 137.848 82.6617 137.26C83.2404 136.672 84.043 136.378 85.0697 136.378C85.3404 136.378 85.639 136.406 85.9657 136.462L85.9377 133.312L87.7857 133.172L87.6737 140.13ZM84.9437 137.638C84.0104 137.638 83.5437 138.231 83.5437 139.416C83.5437 140.153 83.6557 140.709 83.8797 141.082C84.1037 141.455 84.4304 141.642 84.8597 141.642C85.2704 141.642 85.6484 141.451 85.9937 141.068L86.0217 140.298L85.9797 137.89C85.6157 137.722 85.2704 137.638 84.9437 137.638ZM92.1728 136.364C92.8915 136.364 93.4515 136.527 93.8528 136.854C94.2635 137.171 94.4688 137.619 94.4688 138.198C94.4688 138.366 94.4408 138.898 94.3848 139.794C94.3755 140.055 94.3615 140.326 94.3428 140.606C94.3242 140.877 94.3148 141.11 94.3148 141.306C94.3148 141.465 94.3382 141.577 94.3848 141.642C94.4315 141.698 94.5155 141.726 94.6368 141.726C94.7302 141.726 94.8515 141.707 95.0008 141.67L95.1408 141.782L94.9728 142.762C94.6742 142.958 94.3335 143.075 93.9508 143.112C93.6708 143.084 93.4375 142.986 93.2508 142.818C93.0642 142.641 92.9382 142.398 92.8728 142.09H92.7748C92.3082 142.585 91.8275 142.93 91.3328 143.126C90.6608 143.117 90.1335 142.939 89.7508 142.594C89.3682 142.249 89.1768 141.777 89.1768 141.18C89.1768 140.713 89.2935 140.349 89.5268 140.088C89.7695 139.817 90.1335 139.635 90.6188 139.542L92.7608 139.136V138.562C92.7608 137.955 92.4622 137.652 91.8648 137.652C91.5755 137.652 91.2675 137.717 90.9408 137.848C90.6235 137.979 90.2642 138.184 89.8628 138.464L89.7228 138.38L89.5128 137.148C89.9142 136.896 90.3435 136.705 90.8008 136.574C91.2582 136.434 91.7155 136.364 92.1728 136.364ZM91.2628 140.396C91.1135 140.433 91.0015 140.499 90.9268 140.592C90.8615 140.676 90.8288 140.807 90.8288 140.984C90.8288 141.227 90.8942 141.418 91.0248 141.558C91.1555 141.689 91.3375 141.754 91.5708 141.754C91.9348 141.754 92.3175 141.539 92.7188 141.11L92.7468 140.074L91.2628 140.396Z" fill="white"/>
<defs>
<filter id="filter0_b_206:37238" x="3" y="67" width="161" height="97" filterUnits="userSpaceOnUse" color-interpolation-filters="sRGB">
<feFlood flood-opacity="0" result="BackgroundImageFix"/>
<feGaussianBlur in="BackgroundImage" stdDeviation="5"/>
<feComposite in2="SourceAlpha" operator="in" result="effect1_backgroundBlur_206:37238"/>
<feBlend mode="normal" in="SourceGraphic" in2="effect1_backgroundBlur_206:37238" result="shape"/>
</filter>
</defs>
</svg>
