<svg width="167" height="167" viewBox="0 0 167 167" fill="none" xmlns="http://www.w3.org/2000/svg">
<mask id="mask0_206:37326" style="mask-type:alpha" maskUnits="userSpaceOnUse" x="0" y="0" width="167" height="167">
<rect x="1" y="1" width="165" height="165" rx="8" fill="#5988D6" stroke="#EDE6FC" stroke-opacity="0.3"/>
</mask>
<g mask="url(#mask0_206:37326)">
<rect x="1" y="1" width="165" height="165" rx="8" fill="#7A83D9" stroke="#EDE6FC" stroke-opacity="0.3"/>
<g filter="url(#filter0_d_206:37326)">
<path d="M116.665 17.8749C117.794 19.5733 116.002 39.6071 114.795 41.8169C114.076 43.1351 101.962 50.6688 97.7251 51.0921C93.4887 51.5154 79.861 45.2617 77.926 43.5688C75.9911 41.8758 72.2897 17.5014 74.2015 15.595C76.1134 13.6885 90.6958 8.81802 93.6566 8.60576C96.6173 8.3935 114.993 15.3572 116.665 17.8749Z" fill="#CAD8D8"/>
<path d="M76.9383 15.1938C77.0321 17.3565 90.9771 23.6497 94.9664 23.9345C98.9557 24.2194 114.926 19.2195 114.705 16.8621C114.52 14.8883 97.8931 8.52374 93.9694 8.52374C91.1836 8.52374 76.8153 12.3238 76.9383 15.1938Z" fill="#DFEFEF"/>
<path d="M105.163 13.4778C100.822 13.5406 99.5955 17.7923 104.597 17.5165C109.598 17.2408 109.504 13.417 105.163 13.4778Z" fill="#EDF9F9"/>
<path d="M99.4607 18.7938C97.3265 18.9544 97.2743 21.6072 99.8685 21.3591C102.463 21.111 102.547 18.5614 99.4607 18.7938Z" fill="#EDF9F9"/>
<path d="M92.2736 9.67401C81.3895 9.67401 78.2159 17.9459 90.6192 18.7233C104.837 19.6118 108.121 9.67401 92.2736 9.67401Z" fill="#EDF9F9"/>
<path d="M98.7841 25.1929C97.0835 25.8167 96.448 29.4418 99.5703 29.5241C102.693 29.6064 104.026 23.2695 98.7841 25.1929Z" fill="#B2C1C0"/>
<path d="M99.3952 46.9328C98.1362 46.0218 96.507 48.6078 97.968 49.6527C99.4289 50.6976 102.591 49.2449 99.3952 46.9328Z" fill="#B2C1C0"/>
<path d="M96.6981 30.3073C95.5184 29.7701 94.6599 32.9456 96.2551 32.767C97.8503 32.5885 98.1163 30.9532 96.6981 30.3073Z" fill="#B2C1C0"/>
<path d="M76.4888 18.392C73.5378 18.3422 73.1925 30.1637 79.6351 29.9714C86.0777 29.7792 85.3289 18.542 76.4888 18.392Z" fill="#DFEFEF"/>
<path d="M88.4384 25.4726C84.5891 24.5741 83.5263 30.3422 87.6865 31.3055C91.8467 32.2687 92.387 26.3949 88.4384 25.4726Z" fill="#DFEFEF"/>
<path d="M43.6601 36.4544C42.5317 38.1528 44.3236 58.1867 45.5298 60.3964C46.2495 61.7147 58.364 69.248 62.6004 69.6716C66.8369 70.0953 80.4643 63.8412 82.3995 62.148C84.3348 60.4548 88.0356 36.0809 86.1237 34.1745C84.2118 32.2681 69.6294 27.3976 66.669 27.1853C63.7085 26.973 45.3327 33.9367 43.6601 36.4544Z" fill="#CAD8D8"/>
<path d="M83.3871 33.7733C83.2933 35.936 69.3486 42.2292 65.359 42.5141C61.3695 42.7989 45.3996 37.799 45.6207 35.4417C45.8056 33.4678 62.4326 27.1033 66.3563 27.1033C69.1418 27.1033 83.512 30.9022 83.3871 33.7733Z" fill="#DFEFEF"/>
<path d="M55.1637 32.0583C59.5044 32.1211 60.7309 36.3728 55.7298 36.097C50.7287 35.8213 50.8213 31.9954 55.1637 32.0583Z" fill="#EDF9F9"/>
<path d="M60.8642 37.3733C62.9984 37.534 63.0506 40.1868 60.4567 39.9387C57.8628 39.6906 57.7783 37.141 60.8642 37.3733Z" fill="#EDF9F9"/>
<path d="M68.0515 28.2536C78.9359 28.2536 82.1095 36.5255 69.7059 37.3029C55.4879 38.192 52.2038 28.2536 68.0515 28.2536Z" fill="#EDF9F9"/>
<path d="M61.5407 43.7725C63.2412 44.3962 63.8768 48.0214 60.7545 48.1037C57.6322 48.186 56.2997 41.8488 61.5407 43.7725Z" fill="#B2C1C0"/>
<path d="M60.9303 65.5123C62.189 64.6013 63.8182 67.1873 62.3576 68.2322C60.8969 69.2772 57.7345 67.8244 60.9303 65.5123Z" fill="#B2C1C0"/>
<path d="M63.6273 48.8869C64.8073 48.3494 65.6655 51.5248 64.0703 51.345C62.4752 51.1653 62.2088 49.5328 63.6273 48.8869Z" fill="#B2C1C0"/>
<path d="M83.8365 36.9716C86.7872 36.9215 87.1328 48.7432 80.6899 48.551C74.247 48.3588 74.9964 37.1216 83.8365 36.9716Z" fill="#DFEFEF"/>
<path d="M71.8872 44.0525C75.7353 43.1537 76.799 48.9218 72.6379 49.885C68.4767 50.8483 67.9383 44.9744 71.8872 44.0525Z" fill="#DFEFEF"/>
<path d="M122.878 45.2592C123.832 46.6944 122.318 63.6214 121.299 65.4886C120.692 66.6022 110.455 72.9673 106.875 73.3254C103.295 73.6834 91.7827 68.4002 90.1463 66.9684C88.5098 65.5366 85.3841 44.9437 86.9994 43.3331C88.6146 41.7224 100.936 37.6071 103.437 37.4277C105.939 37.2482 121.465 43.1321 122.878 45.2592Z" fill="#CAD8D8"/>
<path d="M89.312 42.9942C89.3912 44.8214 101.173 50.1386 104.544 50.3794C107.915 50.6202 121.408 46.3953 121.222 44.4035C121.065 42.7367 107.017 37.3585 103.702 37.3585C101.348 37.3585 89.2066 40.5682 89.312 42.9942Z" fill="#DFEFEF"/>
<path d="M104.029 40.0729C100.361 40.1261 99.3247 43.7169 103.551 43.484C107.776 43.2511 107.696 40.0198 104.029 40.0729Z" fill="#EDF9F9"/>
<path d="M99.2107 44.5635C97.4075 44.6996 97.3629 46.9409 99.5554 46.7311C101.748 46.5213 101.818 44.3673 99.2107 44.5635Z" fill="#EDF9F9"/>
<path d="M115.976 57.0868C114.54 57.6139 114.002 60.677 116.64 60.7463C119.278 60.8155 120.404 55.4616 115.976 57.0868Z" fill="#B2C1C0"/>
<path d="M108.286 69.811C107.223 69.0415 105.846 71.2261 107.08 72.1092C108.314 72.9922 110.986 71.7645 108.286 69.811Z" fill="#B2C1C0"/>
<path d="M92.4469 60.4687C90.8679 60.442 90.6817 66.7725 94.132 66.6699C97.5822 66.5673 97.1811 60.5489 92.4469 60.4687Z" fill="#DFEFEF"/>
<path d="M98.8462 58.0582C96.7855 57.5769 96.2158 60.6658 98.4441 61.1818C100.672 61.6977 100.961 58.552 98.8462 58.0582Z" fill="#DFEFEF"/>
</g>
</g>
<g filter="url(#filter1_b_206:37326)">
<rect x="13" y="77" width="141" height="77" rx="10" fill="black" fill-opacity="0.8"/>
</g>
<path d="M52.2668 104H50.3348L50.1108 102.824L49.8728 101.984L48.1088 101.942L46.5548 101.984L46.3168 102.726L46.0788 104H44.2028L47.2548 94.984H49.5088L52.2668 104ZM49.4668 100.514L48.4028 96.762H48.2768L47.0448 100.514L48.2488 100.542L49.4668 100.514ZM58.0205 97.364C58.7392 97.364 59.2992 97.5273 59.7005 97.854C60.1112 98.1713 60.3165 98.6193 60.3165 99.198C60.3165 99.366 60.2885 99.898 60.2325 100.794C60.2232 101.055 60.2092 101.326 60.1905 101.606C60.1718 101.877 60.1625 102.11 60.1625 102.306C60.1625 102.465 60.1858 102.577 60.2325 102.642C60.2792 102.698 60.3632 102.726 60.4845 102.726C60.5778 102.726 60.6992 102.707 60.8485 102.67L60.9885 102.782L60.8205 103.762C60.5218 103.958 60.1812 104.075 59.7985 104.112C59.5185 104.084 59.2852 103.986 59.0985 103.818C58.9118 103.641 58.7858 103.398 58.7205 103.09H58.6225C58.1558 103.585 57.6752 103.93 57.1805 104.126C56.5085 104.117 55.9812 103.939 55.5985 103.594C55.2158 103.249 55.0245 102.777 55.0245 102.18C55.0245 101.713 55.1412 101.349 55.3745 101.088C55.6172 100.817 55.9812 100.635 56.4665 100.542L58.6085 100.136V99.562C58.6085 98.9553 58.3098 98.652 57.7125 98.652C57.4232 98.652 57.1152 98.7173 56.7885 98.848C56.4712 98.9787 56.1118 99.184 55.7105 99.464L55.5705 99.38L55.3605 98.148C55.7618 97.896 56.1912 97.7047 56.6485 97.574C57.1058 97.434 57.5632 97.364 58.0205 97.364ZM57.1105 101.396C56.9612 101.433 56.8492 101.499 56.7745 101.592C56.7092 101.676 56.6765 101.807 56.6765 101.984C56.6765 102.227 56.7418 102.418 56.8725 102.558C57.0032 102.689 57.1852 102.754 57.4185 102.754C57.7825 102.754 58.1652 102.539 58.5665 102.11L58.5945 101.074L57.1105 101.396ZM65.6427 97.406C66.4547 97.406 67.0801 97.6813 67.5187 98.232C67.9574 98.7827 68.1767 99.562 68.1767 100.57C68.1767 101.709 67.8921 102.591 67.3227 103.216C66.7627 103.832 65.9694 104.14 64.9427 104.14C64.6441 104.14 64.3314 104.112 64.0047 104.056L64.0467 106.59H62.1987L62.2967 101.312L62.2127 97.616L63.9907 97.462L63.9767 98.414H64.0747C64.3361 98.162 64.5881 97.9613 64.8307 97.812C65.0734 97.6533 65.3441 97.518 65.6427 97.406ZM64.9567 102.922C65.4421 102.922 65.8107 102.749 66.0627 102.404C66.3147 102.059 66.4407 101.55 66.4407 100.878C66.4407 100.225 66.3334 99.7347 66.1187 99.408C65.9134 99.072 65.6054 98.904 65.1947 98.904C64.7934 98.904 64.3874 99.1047 63.9767 99.506L63.9627 101.13L63.9907 102.712C64.3267 102.852 64.6487 102.922 64.9567 102.922ZM71.2648 101.13L71.3628 104H69.5008L69.5988 101.298L69.5148 94.312L71.3768 94.172L71.2648 101.13ZM73.2486 101.312L73.1786 97.616L75.0126 97.462L74.9286 101.13L75.0126 104H73.1506L73.2486 101.312ZM74.1306 94.298C74.4199 94.298 74.6439 94.382 74.8026 94.55C74.9706 94.718 75.0546 94.9513 75.0546 95.25C75.0546 95.5673 74.9659 95.8193 74.7886 96.006C74.6112 96.1927 74.3686 96.286 74.0606 96.286C73.7526 96.286 73.5146 96.202 73.3466 96.034C73.1879 95.866 73.1086 95.628 73.1086 95.32C73.1086 95.012 73.1972 94.7647 73.3746 94.578C73.5612 94.3913 73.8132 94.298 74.1306 94.298ZM79.4469 97.364C79.7549 97.364 80.0583 97.3967 80.3569 97.462C80.6649 97.518 80.9356 97.602 81.1689 97.714L80.8609 99.198L80.7069 99.268C80.2309 99.0067 79.8063 98.876 79.4329 98.876C79.0036 98.876 78.6723 99.03 78.4389 99.338C78.2056 99.646 78.0889 100.085 78.0889 100.654C78.0889 101.307 78.2149 101.807 78.4669 102.152C78.7189 102.497 79.0783 102.67 79.5449 102.67C79.9649 102.67 80.4316 102.553 80.9449 102.32L81.0849 102.432L80.9029 103.874C80.3429 104.051 79.7689 104.14 79.1809 104.14C78.2849 104.14 77.5849 103.851 77.0809 103.272C76.5769 102.684 76.3249 101.867 76.3249 100.822C76.3249 99.7393 76.6003 98.8947 77.1509 98.288C77.7016 97.672 78.4669 97.364 79.4469 97.364ZM84.5849 97.364C85.3036 97.364 85.8636 97.5273 86.2649 97.854C86.6756 98.1713 86.8809 98.6193 86.8809 99.198C86.8809 99.366 86.8529 99.898 86.7969 100.794C86.7876 101.055 86.7736 101.326 86.7549 101.606C86.7363 101.877 86.7269 102.11 86.7269 102.306C86.7269 102.465 86.7503 102.577 86.7969 102.642C86.8436 102.698 86.9276 102.726 87.0489 102.726C87.1423 102.726 87.2636 102.707 87.4129 102.67L87.5529 102.782L87.3849 103.762C87.0863 103.958 86.7456 104.075 86.3629 104.112C86.0829 104.084 85.8496 103.986 85.6629 103.818C85.4763 103.641 85.3503 103.398 85.2849 103.09H85.1869C84.7203 103.585 84.2396 103.93 83.7449 104.126C83.0729 104.117 82.5456 103.939 82.1629 103.594C81.7803 103.249 81.5889 102.777 81.5889 102.18C81.5889 101.713 81.7056 101.349 81.9389 101.088C82.1816 100.817 82.5456 100.635 83.0309 100.542L85.1729 100.136V99.562C85.1729 98.9553 84.8743 98.652 84.2769 98.652C83.9876 98.652 83.6796 98.7173 83.3529 98.848C83.0356 98.9787 82.6763 99.184 82.2749 99.464L82.1349 99.38L81.9249 98.148C82.3263 97.896 82.7556 97.7047 83.2129 97.574C83.6703 97.434 84.1276 97.364 84.5849 97.364ZM83.6749 101.396C83.5256 101.433 83.4136 101.499 83.3389 101.592C83.2736 101.676 83.2409 101.807 83.2409 101.984C83.2409 102.227 83.3063 102.418 83.4369 102.558C83.5676 102.689 83.7496 102.754 83.9829 102.754C84.3469 102.754 84.7296 102.539 85.1309 102.11L85.1589 101.074L83.6749 101.396ZM91.4372 97.364C91.7452 97.364 92.0485 97.3967 92.3472 97.462C92.6552 97.518 92.9258 97.602 93.1592 97.714L92.8512 99.198L92.6972 99.268C92.2212 99.0067 91.7965 98.876 91.4232 98.876C90.9938 98.876 90.6625 99.03 90.4292 99.338C90.1958 99.646 90.0792 100.085 90.0792 100.654C90.0792 101.307 90.2052 101.807 90.4572 102.152C90.7092 102.497 91.0685 102.67 91.5352 102.67C91.9552 102.67 92.4218 102.553 92.9352 102.32L93.0752 102.432L92.8932 103.874C92.3332 104.051 91.7592 104.14 91.1712 104.14C90.2752 104.14 89.5752 103.851 89.0712 103.272C88.5672 102.684 88.3152 101.867 88.3152 100.822C88.3152 99.7393 88.5905 98.8947 89.1412 98.288C89.6918 97.672 90.4572 97.364 91.4372 97.364ZM91.4232 104.672L91.8992 104.938C92.1045 105.05 92.2492 105.171 92.3332 105.302C92.4265 105.442 92.4732 105.596 92.4732 105.764C92.4732 106.072 92.3518 106.324 92.1092 106.52C91.8665 106.716 91.5492 106.814 91.1572 106.814C90.7372 106.814 90.3545 106.683 90.0092 106.422L90.1352 105.638L90.2192 105.596C90.4992 105.876 90.7745 106.016 91.0452 106.016C91.2692 106.016 91.3812 105.918 91.3812 105.722C91.3812 105.657 91.3625 105.601 91.3252 105.554C91.2878 105.517 91.2272 105.479 91.1432 105.442L90.4572 105.05L90.7792 103.636H91.6752L91.4232 104.672ZM96.5752 97.364C97.2938 97.364 97.8538 97.5273 98.2552 97.854C98.6658 98.1713 98.8712 98.6193 98.8712 99.198C98.8712 99.366 98.8432 99.898 98.7872 100.794C98.7778 101.055 98.7638 101.326 98.7452 101.606C98.7265 101.877 98.7172 102.11 98.7172 102.306C98.7172 102.465 98.7405 102.577 98.7872 102.642C98.8338 102.698 98.9178 102.726 99.0392 102.726C99.1325 102.726 99.2538 102.707 99.4032 102.67L99.5432 102.782L99.3752 103.762C99.0765 103.958 98.7358 104.075 98.3532 104.112C98.0732 104.084 97.8398 103.986 97.6532 103.818C97.4665 103.641 97.3405 103.398 97.2752 103.09H97.1772C96.7105 103.585 96.2298 103.93 95.7352 104.126C95.0632 104.117 94.5358 103.939 94.1532 103.594C93.7705 103.249 93.5792 102.777 93.5792 102.18C93.5792 101.713 93.6958 101.349 93.9292 101.088C94.1718 100.817 94.5358 100.635 95.0212 100.542L97.1632 100.136V99.562C97.1632 98.9553 96.8645 98.652 96.2672 98.652C95.9778 98.652 95.6698 98.7173 95.3432 98.848C95.0258 98.9787 94.6665 99.184 94.2652 99.464L94.1252 99.38L93.9152 98.148C94.3165 97.896 94.7458 97.7047 95.2032 97.574C95.6605 97.434 96.1178 97.364 96.5752 97.364ZM95.6652 101.396C95.5158 101.433 95.4038 101.499 95.3292 101.592C95.2638 101.676 95.2312 101.807 95.2312 101.984C95.2312 102.227 95.2965 102.418 95.4272 102.558C95.5578 102.689 95.7398 102.754 95.9732 102.754C96.3372 102.754 96.7198 102.539 97.1212 102.11L97.1492 101.074L95.6652 101.396ZM98.8712 94.732V94.886L97.8912 96.132L97.7092 96.202C97.4572 96.174 97.0698 96.0853 96.5472 95.936C96.5005 95.9267 96.3465 95.8893 96.0852 95.824C95.8332 95.7493 95.6558 95.712 95.5532 95.712C95.4505 95.712 95.3478 95.754 95.2452 95.838C95.1518 95.922 95.0492 96.0247 94.9372 96.146C94.8252 96.2673 94.7412 96.3607 94.6852 96.426H94.5172L93.9572 95.88V95.726L94.9512 94.48L95.1192 94.41C95.3432 94.438 95.7398 94.5313 96.3092 94.69C96.8318 94.83 97.1538 94.9 97.2752 94.9C97.3872 94.9 97.4945 94.8533 97.5972 94.76C97.7092 94.6667 97.8212 94.5593 97.9332 94.438C98.0452 94.3167 98.1198 94.2327 98.1572 94.186H98.3252L98.8712 94.732ZM103.455 97.364C104.407 97.364 105.135 97.644 105.639 98.204C106.143 98.764 106.395 99.5713 106.395 100.626C106.395 101.765 106.125 102.637 105.583 103.244C105.042 103.841 104.263 104.14 103.245 104.14C102.293 104.14 101.565 103.86 101.061 103.3C100.557 102.74 100.305 101.933 100.305 100.878C100.305 99.7393 100.576 98.8713 101.117 98.274C101.659 97.6673 102.438 97.364 103.455 97.364ZM103.329 98.624C102.881 98.624 102.555 98.7733 102.349 99.072C102.153 99.3707 102.055 99.8513 102.055 100.514C102.055 101.373 102.158 101.984 102.363 102.348C102.569 102.712 102.905 102.894 103.371 102.894C103.819 102.894 104.141 102.749 104.337 102.46C104.543 102.161 104.645 101.676 104.645 101.004C104.645 100.155 104.538 99.548 104.323 99.184C104.118 98.8107 103.787 98.624 103.329 98.624ZM115.223 101.13L115.265 102.306C115.265 102.465 115.283 102.577 115.321 102.642C115.367 102.698 115.447 102.726 115.559 102.726C115.661 102.726 115.787 102.707 115.937 102.67L116.063 102.782L115.909 103.762C115.591 103.958 115.246 104.075 114.873 104.112C114.583 104.084 114.341 103.986 114.145 103.818C113.949 103.65 113.813 103.421 113.739 103.132H113.627C113.169 103.552 112.703 103.874 112.227 104.098C111.312 104.098 110.603 103.809 110.099 103.23C109.595 102.642 109.343 101.83 109.343 100.794C109.343 99.6927 109.632 98.848 110.211 98.26C110.789 97.672 111.592 97.378 112.619 97.378C112.889 97.378 113.188 97.406 113.515 97.462L113.487 94.312L115.335 94.172L115.223 101.13ZM112.493 98.638C111.559 98.638 111.093 99.2307 111.093 100.416C111.093 101.153 111.205 101.709 111.429 102.082C111.653 102.455 111.979 102.642 112.409 102.642C112.819 102.642 113.197 102.451 113.543 102.068L113.571 101.298L113.529 98.89C113.165 98.722 112.819 98.638 112.493 98.638ZM122.2 100.976L118.42 101.004C118.504 102.171 119.096 102.754 120.198 102.754C120.776 102.754 121.42 102.591 122.13 102.264L122.284 102.362L122.004 103.748C121.294 104.009 120.627 104.14 120.002 104.14C118.975 104.14 118.168 103.841 117.58 103.244C117.001 102.647 116.712 101.821 116.712 100.766C116.712 99.7207 116.996 98.8947 117.566 98.288C118.135 97.672 118.905 97.364 119.876 97.364C120.706 97.364 121.346 97.5927 121.794 98.05C122.251 98.498 122.48 99.128 122.48 99.94C122.48 100.155 122.456 100.425 122.41 100.752L122.2 100.976ZM120.856 99.73C120.856 99.3567 120.772 99.0767 120.604 98.89C120.436 98.694 120.188 98.596 119.862 98.596C119.498 98.596 119.194 98.7173 118.952 98.96C118.709 99.1933 118.546 99.534 118.462 99.982L120.828 99.926L120.856 99.73ZM25.1167 117.312L25.0467 113.616L26.8807 113.462L26.7967 117.13L26.8807 120H25.0187L25.1167 117.312ZM25.9987 110.298C26.2881 110.298 26.5121 110.382 26.6707 110.55C26.8387 110.718 26.9227 110.951 26.9227 111.25C26.9227 111.567 26.8341 111.819 26.6567 112.006C26.4794 112.193 26.2367 112.286 25.9287 112.286C25.6207 112.286 25.3827 112.202 25.2147 112.034C25.0561 111.866 24.9767 111.628 24.9767 111.32C24.9767 111.012 25.0654 110.765 25.2427 110.578C25.4294 110.391 25.6814 110.298 25.9987 110.298ZM32.6451 115.94C32.6544 115.613 32.5798 115.361 32.4211 115.184C32.2718 114.997 32.0524 114.904 31.7631 114.904C31.3431 114.904 30.8951 115.105 30.4191 115.506V117.13L30.5031 120H28.6411L28.7391 117.312L28.6691 113.616L30.4331 113.462V114.414H30.5311C31.0444 113.947 31.6044 113.611 32.2111 113.406C32.9204 113.406 33.4618 113.569 33.8351 113.896C34.2084 114.213 34.3858 114.675 34.3671 115.282L34.3251 117.144L34.4091 120H32.5331L32.6451 115.94ZM38.2353 113.378C38.8699 113.378 39.4673 113.485 40.0273 113.7L39.7753 115.072L39.5513 115.142C39.2806 114.965 39.0099 114.829 38.7393 114.736C38.4686 114.643 38.2306 114.596 38.0253 114.596C37.8013 114.596 37.6239 114.657 37.4933 114.778C37.3626 114.89 37.2973 115.03 37.2973 115.198C37.2973 115.394 37.3813 115.553 37.5493 115.674C37.7266 115.795 38.0019 115.931 38.3753 116.08C38.7486 116.229 39.0566 116.374 39.2993 116.514C39.5419 116.654 39.7473 116.85 39.9153 117.102C40.0926 117.345 40.1813 117.648 40.1813 118.012C40.1813 118.385 40.0833 118.735 39.8873 119.062C39.7006 119.379 39.4113 119.641 39.0193 119.846C38.6273 120.042 38.1466 120.14 37.5773 120.14C36.9053 120.14 36.2099 120 35.4913 119.72L35.7013 118.264L35.8833 118.152C36.1726 118.395 36.4946 118.591 36.8493 118.74C37.2039 118.88 37.5166 118.95 37.7873 118.95C38.0393 118.95 38.2353 118.889 38.3753 118.768C38.5153 118.637 38.5853 118.483 38.5853 118.306C38.5853 118.11 38.4966 117.951 38.3193 117.83C38.1513 117.709 37.8806 117.573 37.5073 117.424C37.1246 117.256 36.8119 117.107 36.5693 116.976C36.3266 116.836 36.1166 116.64 35.9393 116.388C35.7713 116.136 35.6873 115.823 35.6873 115.45C35.6873 114.843 35.9159 114.349 36.3733 113.966C36.8306 113.574 37.4513 113.378 38.2353 113.378ZM47.6403 118.782L47.4723 119.762C47.127 119.986 46.7723 120.103 46.4083 120.112C46.1376 120.065 45.9136 119.958 45.7363 119.79C45.559 119.622 45.4236 119.379 45.3303 119.062H45.2043C44.6723 119.585 44.1216 119.925 43.5523 120.084C42.843 120.084 42.3016 119.925 41.9283 119.608C41.5643 119.281 41.387 118.815 41.3963 118.208L41.4243 116.556L41.3543 113.616L43.1603 113.462L43.1183 117.592C43.109 117.919 43.1743 118.166 43.3143 118.334C43.4543 118.502 43.6643 118.586 43.9443 118.586C44.355 118.586 44.761 118.404 45.1623 118.04V113.616L46.9403 113.462L46.8143 118.306C46.8143 118.455 46.8376 118.563 46.8843 118.628C46.9403 118.693 47.0243 118.726 47.1363 118.726C47.239 118.726 47.365 118.707 47.5143 118.67L47.6403 118.782ZM50.5588 117.13L50.6568 120H48.7948L48.8928 117.298L48.8088 110.312L50.6708 110.172L50.5588 117.13ZM52.5425 117.312L52.4725 113.616L54.3065 113.462L54.2225 117.13L54.3065 120H52.4445L52.5425 117.312ZM53.4245 110.298C53.7138 110.298 53.9378 110.382 54.0965 110.55C54.2645 110.718 54.3485 110.951 54.3485 111.25C54.3485 111.567 54.2598 111.819 54.0825 112.006C53.9052 112.193 53.6625 112.286 53.3545 112.286C53.0465 112.286 52.8085 112.202 52.6405 112.034C52.4818 111.866 52.4025 111.628 52.4025 111.32C52.4025 111.012 52.4912 110.765 52.6685 110.578C52.8552 110.391 53.1072 110.298 53.4245 110.298ZM60.0709 115.94C60.0802 115.613 60.0056 115.361 59.8469 115.184C59.6976 114.997 59.4782 114.904 59.1889 114.904C58.7689 114.904 58.3209 115.105 57.8449 115.506V117.13L57.9289 120H56.0669L56.1649 117.312L56.0949 113.616L57.8589 113.462V114.414H57.9569C58.4702 113.947 59.0302 113.611 59.6369 113.406C60.3462 113.406 60.8876 113.569 61.2609 113.896C61.6342 114.213 61.8116 114.675 61.7929 115.282L61.7509 117.144L61.8349 120H59.9589L60.0709 115.94ZM66.039 113.364C66.7577 113.364 67.3177 113.527 67.719 113.854C68.1297 114.171 68.335 114.619 68.335 115.198C68.335 115.366 68.307 115.898 68.251 116.794C68.2417 117.055 68.2277 117.326 68.209 117.606C68.1904 117.877 68.181 118.11 68.181 118.306C68.181 118.465 68.2044 118.577 68.251 118.642C68.2977 118.698 68.3817 118.726 68.503 118.726C68.5964 118.726 68.7177 118.707 68.867 118.67L69.007 118.782L68.839 119.762C68.5404 119.958 68.1997 120.075 67.817 120.112C67.537 120.084 67.3037 119.986 67.117 119.818C66.9304 119.641 66.8044 119.398 66.739 119.09H66.641C66.1744 119.585 65.6937 119.93 65.199 120.126C64.527 120.117 63.9997 119.939 63.617 119.594C63.2344 119.249 63.043 118.777 63.043 118.18C63.043 117.713 63.1597 117.349 63.393 117.088C63.6357 116.817 63.9997 116.635 64.485 116.542L66.627 116.136V115.562C66.627 114.955 66.3284 114.652 65.731 114.652C65.4417 114.652 65.1337 114.717 64.807 114.848C64.4897 114.979 64.1304 115.184 63.729 115.464L63.589 115.38L63.379 114.148C63.7804 113.896 64.2097 113.705 64.667 113.574C65.1244 113.434 65.5817 113.364 66.039 113.364ZM65.129 117.396C64.9797 117.433 64.8677 117.499 64.793 117.592C64.7277 117.676 64.695 117.807 64.695 117.984C64.695 118.227 64.7604 118.418 64.891 118.558C65.0217 118.689 65.2037 118.754 65.437 118.754C65.801 118.754 66.1837 118.539 66.585 118.11L66.613 117.074L65.129 117.396ZM75.7804 113.406C76.5924 113.406 77.2178 113.681 77.6564 114.232C78.0951 114.783 78.3144 115.562 78.3144 116.57C78.3144 117.709 78.0298 118.591 77.4604 119.216C76.9004 119.832 76.1071 120.14 75.0804 120.14C74.7818 120.14 74.4691 120.112 74.1424 120.056L74.1844 122.59H72.3364L72.4344 117.312L72.3504 113.616L74.1284 113.462L74.1144 114.414H74.2124C74.4738 114.162 74.7258 113.961 74.9684 113.812C75.2111 113.653 75.4818 113.518 75.7804 113.406ZM75.0944 118.922C75.5798 118.922 75.9484 118.749 76.2004 118.404C76.4524 118.059 76.5784 117.55 76.5784 116.878C76.5784 116.225 76.4711 115.735 76.2564 115.408C76.0511 115.072 75.7431 114.904 75.3324 114.904C74.9311 114.904 74.5251 115.105 74.1144 115.506L74.1004 117.13L74.1284 118.712C74.4644 118.852 74.7864 118.922 75.0944 118.922ZM82.2845 113.364C83.2365 113.364 83.9645 113.644 84.4685 114.204C84.9725 114.764 85.2245 115.571 85.2245 116.626C85.2245 117.765 84.9538 118.637 84.4125 119.244C83.8712 119.841 83.0918 120.14 82.0745 120.14C81.1225 120.14 80.3945 119.86 79.8905 119.3C79.3865 118.74 79.1345 117.933 79.1345 116.878C79.1345 115.739 79.4052 114.871 79.9465 114.274C80.4878 113.667 81.2672 113.364 82.2845 113.364ZM82.1585 114.624C81.7105 114.624 81.3838 114.773 81.1785 115.072C80.9825 115.371 80.8845 115.851 80.8845 116.514C80.8845 117.373 80.9872 117.984 81.1925 118.348C81.3978 118.712 81.7338 118.894 82.2005 118.894C82.6485 118.894 82.9705 118.749 83.1665 118.46C83.3718 118.161 83.4745 117.676 83.4745 117.004C83.4745 116.155 83.3672 115.548 83.1525 115.184C82.9472 114.811 82.6158 114.624 82.1585 114.624ZM91.9325 117.13L91.9745 118.306C91.9745 118.465 91.9932 118.577 92.0305 118.642C92.0772 118.698 92.1565 118.726 92.2685 118.726C92.3712 118.726 92.4972 118.707 92.6465 118.67L92.7725 118.782L92.6185 119.762C92.3012 119.958 91.9558 120.075 91.5825 120.112C91.2932 120.084 91.0505 119.986 90.8545 119.818C90.6585 119.65 90.5232 119.421 90.4485 119.132H90.3365C89.8792 119.552 89.4125 119.874 88.9365 120.098C88.0218 120.098 87.3125 119.809 86.8085 119.23C86.3045 118.642 86.0525 117.83 86.0525 116.794C86.0525 115.693 86.3418 114.848 86.9205 114.26C87.4992 113.672 88.3018 113.378 89.3285 113.378C89.5992 113.378 89.8978 113.406 90.2245 113.462L90.1965 110.312L92.0445 110.172L91.9325 117.13ZM89.2025 114.638C88.2692 114.638 87.8025 115.231 87.8025 116.416C87.8025 117.153 87.9145 117.709 88.1385 118.082C88.3625 118.455 88.6892 118.642 89.1185 118.642C89.5292 118.642 89.9072 118.451 90.2525 118.068L90.2805 117.298L90.2385 114.89C89.8745 114.722 89.5292 114.638 89.2025 114.638ZM98.9096 116.976L95.1296 117.004C95.2136 118.171 95.8063 118.754 96.9076 118.754C97.4863 118.754 98.1303 118.591 98.8396 118.264L98.9936 118.362L98.7136 119.748C98.0043 120.009 97.337 120.14 96.7116 120.14C95.685 120.14 94.8776 119.841 94.2896 119.244C93.711 118.647 93.4216 117.821 93.4216 116.766C93.4216 115.721 93.7063 114.895 94.2756 114.288C94.845 113.672 95.615 113.364 96.5856 113.364C97.4163 113.364 98.0556 113.593 98.5036 114.05C98.961 114.498 99.1896 115.128 99.1896 115.94C99.1896 116.155 99.1663 116.425 99.1196 116.752L98.9096 116.976ZM97.5656 115.73C97.5656 115.357 97.4816 115.077 97.3136 114.89C97.1456 114.694 96.8983 114.596 96.5716 114.596C96.2076 114.596 95.9043 114.717 95.6616 114.96C95.419 115.193 95.2556 115.534 95.1716 115.982L97.5376 115.926L97.5656 115.73ZM105.266 113.364C105.574 113.364 105.878 113.397 106.176 113.462C106.484 113.518 106.755 113.602 106.988 113.714L106.68 115.198L106.526 115.268C106.05 115.007 105.626 114.876 105.252 114.876C104.823 114.876 104.492 115.03 104.258 115.338C104.025 115.646 103.908 116.085 103.908 116.654C103.908 117.307 104.034 117.807 104.286 118.152C104.538 118.497 104.898 118.67 105.364 118.67C105.784 118.67 106.251 118.553 106.764 118.32L106.904 118.432L106.722 119.874C106.162 120.051 105.588 120.14 105 120.14C104.104 120.14 103.404 119.851 102.9 119.272C102.396 118.684 102.144 117.867 102.144 116.822C102.144 115.739 102.42 114.895 102.97 114.288C103.521 113.672 104.286 113.364 105.266 113.364ZM110.681 113.364C111.633 113.364 112.361 113.644 112.865 114.204C113.369 114.764 113.621 115.571 113.621 116.626C113.621 117.765 113.35 118.637 112.809 119.244C112.268 119.841 111.488 120.14 110.471 120.14C109.519 120.14 108.791 119.86 108.287 119.3C107.783 118.74 107.531 117.933 107.531 116.878C107.531 115.739 107.802 114.871 108.343 114.274C108.884 113.667 109.664 113.364 110.681 113.364ZM110.555 114.624C110.107 114.624 109.78 114.773 109.575 115.072C109.379 115.371 109.281 115.851 109.281 116.514C109.281 117.373 109.384 117.984 109.589 118.348C109.794 118.712 110.13 118.894 110.597 118.894C111.045 118.894 111.367 118.749 111.563 118.46C111.768 118.161 111.871 117.676 111.871 117.004C111.871 116.155 111.764 115.548 111.549 115.184C111.344 114.811 111.012 114.624 110.555 114.624ZM118.413 113.476C118.497 113.476 118.614 113.485 118.763 113.504V115.226L118.567 115.296C118.408 115.231 118.236 115.198 118.049 115.198C117.508 115.198 117.018 115.548 116.579 116.248V117.13L116.677 120H114.815L114.927 117.312L114.843 113.616L116.607 113.462L116.593 114.736H116.705C117.162 113.896 117.732 113.476 118.413 113.476ZM123.28 113.476C123.364 113.476 123.481 113.485 123.63 113.504V115.226L123.434 115.296C123.275 115.231 123.103 115.198 122.916 115.198C122.375 115.198 121.885 115.548 121.446 116.248V117.13L121.544 120H119.682L119.794 117.312L119.71 113.616L121.474 113.462L121.46 114.736H121.572C122.029 113.896 122.599 113.476 123.28 113.476ZM124.675 117.312L124.605 113.616L126.439 113.462L126.355 117.13L126.439 120H124.577L124.675 117.312ZM125.557 110.298C125.847 110.298 126.071 110.382 126.229 110.55C126.397 110.718 126.481 110.951 126.481 111.25C126.481 111.567 126.393 111.819 126.215 112.006C126.038 112.193 125.795 112.286 125.487 112.286C125.179 112.286 124.941 112.202 124.773 112.034C124.615 111.866 124.535 111.628 124.535 111.32C124.535 111.012 124.624 110.765 124.801 110.578C124.988 110.391 125.24 110.298 125.557 110.298ZM134.458 114.372C134.206 114.437 133.846 114.507 133.38 114.582L133.352 114.638C133.492 114.918 133.562 115.231 133.562 115.576C133.562 116.276 133.305 116.836 132.792 117.256C132.288 117.667 131.602 117.872 130.734 117.872C130.472 117.872 130.202 117.849 129.922 117.802C129.838 117.886 129.782 117.951 129.754 117.998C129.726 118.045 129.712 118.101 129.712 118.166C129.712 118.334 129.824 118.451 130.048 118.516C130.272 118.581 130.626 118.647 131.112 118.712C131.662 118.777 132.12 118.857 132.484 118.95C132.857 119.043 133.174 119.207 133.436 119.44C133.706 119.673 133.842 120.005 133.842 120.434C133.842 120.873 133.702 121.265 133.422 121.61C133.151 121.965 132.773 122.24 132.288 122.436C131.802 122.632 131.252 122.73 130.636 122.73C129.786 122.73 129.133 122.557 128.676 122.212C128.218 121.867 127.99 121.409 127.99 120.84C128.279 120.439 128.666 120.089 129.152 119.79V119.72C128.834 119.608 128.587 119.454 128.41 119.258C128.232 119.053 128.144 118.782 128.144 118.446C128.396 118.138 128.713 117.853 129.096 117.592V117.522C128.76 117.335 128.503 117.093 128.326 116.794C128.158 116.486 128.074 116.127 128.074 115.716C128.074 114.988 128.326 114.419 128.83 114.008C129.334 113.597 130.02 113.392 130.888 113.392C131.392 113.392 131.849 113.476 132.26 113.644C132.932 113.523 133.618 113.336 134.318 113.084L134.458 113.21V114.372ZM130.79 116.752C131.172 116.752 131.462 116.654 131.658 116.458C131.854 116.262 131.952 115.977 131.952 115.604C131.952 114.895 131.588 114.54 130.86 114.54C130.076 114.54 129.684 114.899 129.684 115.618C129.684 115.991 129.777 116.276 129.964 116.472C130.15 116.659 130.426 116.752 130.79 116.752ZM132.274 120.77C132.274 120.518 132.138 120.345 131.868 120.252C131.606 120.159 131.2 120.079 130.65 120.014L130.174 119.944C129.95 120.093 129.782 120.238 129.67 120.378C129.558 120.518 129.502 120.667 129.502 120.826C129.502 121.069 129.614 121.265 129.838 121.414C130.062 121.563 130.388 121.638 130.818 121.638C131.256 121.638 131.606 121.559 131.868 121.4C132.138 121.251 132.274 121.041 132.274 120.77ZM135.326 117.312L135.256 113.616L137.09 113.462L137.006 117.13L137.09 120H135.228L135.326 117.312ZM136.208 110.298C136.497 110.298 136.721 110.382 136.88 110.55C137.048 110.718 137.132 110.951 137.132 111.25C137.132 111.567 137.043 111.819 136.866 112.006C136.688 112.193 136.446 112.286 136.138 112.286C135.83 112.286 135.592 112.202 135.424 112.034C135.265 111.866 135.186 111.628 135.186 111.32C135.186 111.012 135.274 110.765 135.452 110.578C135.638 110.391 135.89 110.298 136.208 110.298ZM142.448 113.476C142.532 113.476 142.649 113.485 142.798 113.504V115.226L142.602 115.296C142.443 115.231 142.271 115.198 142.084 115.198C141.543 115.198 141.053 115.548 140.614 116.248V117.13L140.712 120H138.85L138.962 117.312L138.878 113.616L140.642 113.462L140.628 114.736H140.74C141.197 113.896 141.767 113.476 142.448 113.476ZM25.1123 129.364C25.831 129.364 26.391 129.527 26.7923 129.854C27.203 130.171 27.4083 130.619 27.4083 131.198C27.4083 131.366 27.3803 131.898 27.3243 132.794C27.315 133.055 27.301 133.326 27.2823 133.606C27.2636 133.877 27.2543 134.11 27.2543 134.306C27.2543 134.465 27.2776 134.577 27.3243 134.642C27.371 134.698 27.455 134.726 27.5763 134.726C27.6696 134.726 27.791 134.707 27.9403 134.67L28.0803 134.782L27.9123 135.762C27.6136 135.958 27.273 136.075 26.8903 136.112C26.6103 136.084 26.377 135.986 26.1903 135.818C26.0036 135.641 25.8776 135.398 25.8123 135.09H25.7143C25.2476 135.585 24.767 135.93 24.2723 136.126C23.6003 136.117 23.073 135.939 22.6903 135.594C22.3076 135.249 22.1163 134.777 22.1163 134.18C22.1163 133.713 22.233 133.349 22.4663 133.088C22.709 132.817 23.073 132.635 23.5583 132.542L25.7003 132.136V131.562C25.7003 130.955 25.4016 130.652 24.8043 130.652C24.515 130.652 24.207 130.717 23.8803 130.848C23.563 130.979 23.2036 131.184 22.8023 131.464L22.6623 131.38L22.4523 130.148C22.8536 129.896 23.283 129.705 23.7403 129.574C24.1976 129.434 24.655 129.364 25.1123 129.364ZM24.2023 133.396C24.053 133.433 23.941 133.499 23.8663 133.592C23.801 133.676 23.7683 133.807 23.7683 133.984C23.7683 134.227 23.8336 134.418 23.9643 134.558C24.095 134.689 24.277 134.754 24.5103 134.754C24.8743 134.754 25.257 134.539 25.6583 134.11L25.6863 133.074L24.2023 133.396ZM36.4497 132.976L32.6697 133.004C32.7537 134.171 33.3463 134.754 34.4477 134.754C35.0263 134.754 35.6703 134.591 36.3797 134.264L36.5337 134.362L36.2537 135.748C35.5443 136.009 34.877 136.14 34.2517 136.14C33.225 136.14 32.4177 135.841 31.8297 135.244C31.251 134.647 30.9617 133.821 30.9617 132.766C30.9617 131.721 31.2463 130.895 31.8157 130.288C32.385 129.672 33.155 129.364 34.1257 129.364C34.9563 129.364 35.5957 129.593 36.0437 130.05C36.501 130.498 36.7297 131.128 36.7297 131.94C36.7297 132.155 36.7063 132.425 36.6597 132.752L36.4497 132.976ZM35.1057 131.73C35.1057 131.357 35.0217 131.077 34.8537 130.89C34.6857 130.694 34.4383 130.596 34.1117 130.596C33.7477 130.596 33.4443 130.717 33.2017 130.96C32.959 131.193 32.7957 131.534 32.7117 131.982L35.0777 131.926L35.1057 131.73ZM39.7785 133.13L39.8765 136H38.0145L38.1125 133.298L38.0285 126.312L39.8905 126.172L39.7785 133.13ZM46.6762 132.976L42.8962 133.004C42.9802 134.171 43.5729 134.754 44.6742 134.754C45.2529 134.754 45.8969 134.591 46.6062 134.264L46.7602 134.362L46.4802 135.748C45.7709 136.009 45.1036 136.14 44.4782 136.14C43.4516 136.14 42.6442 135.841 42.0562 135.244C41.4776 134.647 41.1882 133.821 41.1882 132.766C41.1882 131.721 41.4729 130.895 42.0422 130.288C42.6116 129.672 43.3816 129.364 44.3522 129.364C45.1829 129.364 45.8222 129.593 46.2702 130.05C46.7276 130.498 46.9562 131.128 46.9562 131.94C46.9562 132.155 46.9329 132.425 46.8862 132.752L46.6762 132.976ZM45.3322 131.73C45.3322 131.357 45.2482 131.077 45.0802 130.89C44.9122 130.694 44.6649 130.596 44.3382 130.596C43.9742 130.596 43.6709 130.717 43.4282 130.96C43.1856 131.193 43.0222 131.534 42.9382 131.982L45.3042 131.926L45.3322 131.73ZM49.4577 130.526L50.4377 134.25H50.5357L51.7117 130.624L51.9497 129.49H53.5737L51.3897 136H49.3877L47.5397 129.532L49.2757 129.448L49.4577 130.526ZM56.8584 129.364C57.577 129.364 58.137 129.527 58.5384 129.854C58.949 130.171 59.1544 130.619 59.1544 131.198C59.1544 131.366 59.1264 131.898 59.0704 132.794C59.061 133.055 59.047 133.326 59.0284 133.606C59.0097 133.877 59.0004 134.11 59.0004 134.306C59.0004 134.465 59.0237 134.577 59.0704 134.642C59.117 134.698 59.201 134.726 59.3224 134.726C59.4157 134.726 59.537 134.707 59.6864 134.67L59.8264 134.782L59.6584 135.762C59.3597 135.958 59.019 136.075 58.6364 136.112C58.3564 136.084 58.123 135.986 57.9364 135.818C57.7497 135.641 57.6237 135.398 57.5584 135.09H57.4604C56.9937 135.585 56.513 135.93 56.0184 136.126C55.3464 136.117 54.819 135.939 54.4364 135.594C54.0537 135.249 53.8624 134.777 53.8624 134.18C53.8624 133.713 53.979 133.349 54.2124 133.088C54.455 132.817 54.819 132.635 55.3044 132.542L57.4464 132.136V131.562C57.4464 130.955 57.1477 130.652 56.5504 130.652C56.261 130.652 55.953 130.717 55.6264 130.848C55.309 130.979 54.9497 131.184 54.5484 131.464L54.4084 131.38L54.1984 130.148C54.5997 129.896 55.029 129.705 55.4864 129.574C55.9437 129.434 56.401 129.364 56.8584 129.364ZM55.9484 133.396C55.799 133.433 55.687 133.499 55.6124 133.592C55.547 133.676 55.5144 133.807 55.5144 133.984C55.5144 134.227 55.5797 134.418 55.7104 134.558C55.841 134.689 56.023 134.754 56.2564 134.754C56.6204 134.754 57.003 134.539 57.4044 134.11L57.4324 133.074L55.9484 133.396ZM63.7106 129.364C64.0186 129.364 64.322 129.397 64.6206 129.462C64.9286 129.518 65.1993 129.602 65.4326 129.714L65.1246 131.198L64.9706 131.268C64.4946 131.007 64.07 130.876 63.6966 130.876C63.2673 130.876 62.936 131.03 62.7026 131.338C62.4693 131.646 62.3526 132.085 62.3526 132.654C62.3526 133.307 62.4786 133.807 62.7306 134.152C62.9826 134.497 63.342 134.67 63.8086 134.67C64.2286 134.67 64.6953 134.553 65.2086 134.32L65.3486 134.432L65.1666 135.874C64.6066 136.051 64.0326 136.14 63.4446 136.14C62.5486 136.14 61.8486 135.851 61.3446 135.272C60.8406 134.684 60.5886 133.867 60.5886 132.822C60.5886 131.739 60.864 130.895 61.4146 130.288C61.9653 129.672 62.7306 129.364 63.7106 129.364ZM63.6966 136.672L64.1726 136.938C64.378 137.05 64.5226 137.171 64.6066 137.302C64.7 137.442 64.7466 137.596 64.7466 137.764C64.7466 138.072 64.6253 138.324 64.3826 138.52C64.14 138.716 63.8226 138.814 63.4306 138.814C63.0106 138.814 62.628 138.683 62.2826 138.422L62.4086 137.638L62.4926 137.596C62.7726 137.876 63.048 138.016 63.3186 138.016C63.5426 138.016 63.6546 137.918 63.6546 137.722C63.6546 137.657 63.636 137.601 63.5986 137.554C63.5613 137.517 63.5006 137.479 63.4166 137.442L62.7306 137.05L63.0526 135.636H63.9486L63.6966 136.672ZM68.8486 129.364C69.5673 129.364 70.1273 129.527 70.5286 129.854C70.9393 130.171 71.1446 130.619 71.1446 131.198C71.1446 131.366 71.1166 131.898 71.0606 132.794C71.0513 133.055 71.0373 133.326 71.0186 133.606C71 133.877 70.9906 134.11 70.9906 134.306C70.9906 134.465 71.014 134.577 71.0606 134.642C71.1073 134.698 71.1913 134.726 71.3126 134.726C71.406 134.726 71.5273 134.707 71.6766 134.67L71.8166 134.782L71.6486 135.762C71.35 135.958 71.0093 136.075 70.6266 136.112C70.3466 136.084 70.1133 135.986 69.9266 135.818C69.74 135.641 69.614 135.398 69.5486 135.09H69.4506C68.984 135.585 68.5033 135.93 68.0086 136.126C67.3366 136.117 66.8093 135.939 66.4266 135.594C66.044 135.249 65.8526 134.777 65.8526 134.18C65.8526 133.713 65.9693 133.349 66.2026 133.088C66.4453 132.817 66.8093 132.635 67.2946 132.542L69.4366 132.136V131.562C69.4366 130.955 69.138 130.652 68.5406 130.652C68.2513 130.652 67.9433 130.717 67.6166 130.848C67.2993 130.979 66.94 131.184 66.5386 131.464L66.3986 131.38L66.1886 130.148C66.59 129.896 67.0193 129.705 67.4766 129.574C67.934 129.434 68.3913 129.364 68.8486 129.364ZM67.9386 133.396C67.7893 133.433 67.6773 133.499 67.6026 133.592C67.5373 133.676 67.5046 133.807 67.5046 133.984C67.5046 134.227 67.57 134.418 67.7006 134.558C67.8313 134.689 68.0133 134.754 68.2466 134.754C68.6106 134.754 68.9933 134.539 69.3946 134.11L69.4226 133.074L67.9386 133.396ZM71.1446 126.732V126.886L70.1646 128.132L69.9826 128.202C69.7306 128.174 69.3433 128.085 68.8206 127.936C68.774 127.927 68.62 127.889 68.3586 127.824C68.1066 127.749 67.9293 127.712 67.8266 127.712C67.724 127.712 67.6213 127.754 67.5186 127.838C67.4253 127.922 67.3226 128.025 67.2106 128.146C67.0986 128.267 67.0146 128.361 66.9586 128.426H66.7906L66.2306 127.88V127.726L67.2246 126.48L67.3926 126.41C67.6166 126.438 68.0133 126.531 68.5826 126.69C69.1053 126.83 69.4273 126.9 69.5486 126.9C69.6606 126.9 69.768 126.853 69.8706 126.76C69.9826 126.667 70.0946 126.559 70.2066 126.438C70.3186 126.317 70.3933 126.233 70.4306 126.186H70.5986L71.1446 126.732ZM75.7289 129.364C76.6809 129.364 77.4089 129.644 77.9129 130.204C78.4169 130.764 78.6689 131.571 78.6689 132.626C78.6689 133.765 78.3982 134.637 77.8569 135.244C77.3155 135.841 76.5362 136.14 75.5189 136.14C74.5669 136.14 73.8389 135.86 73.3349 135.3C72.8309 134.74 72.5789 133.933 72.5789 132.878C72.5789 131.739 72.8495 130.871 73.3909 130.274C73.9322 129.667 74.7115 129.364 75.7289 129.364ZM75.6029 130.624C75.1549 130.624 74.8282 130.773 74.6229 131.072C74.4269 131.371 74.3289 131.851 74.3289 132.514C74.3289 133.373 74.4315 133.984 74.6369 134.348C74.8422 134.712 75.1782 134.894 75.6449 134.894C76.0929 134.894 76.4149 134.749 76.6109 134.46C76.8162 134.161 76.9189 133.676 76.9189 133.004C76.9189 132.155 76.8115 131.548 76.5969 131.184C76.3915 130.811 76.0602 130.624 75.6029 130.624ZM87.496 133.13L87.538 134.306C87.538 134.465 87.5566 134.577 87.594 134.642C87.6406 134.698 87.72 134.726 87.832 134.726C87.9346 134.726 88.0606 134.707 88.21 134.67L88.336 134.782L88.182 135.762C87.8646 135.958 87.5193 136.075 87.146 136.112C86.8566 136.084 86.614 135.986 86.418 135.818C86.222 135.65 86.0866 135.421 86.012 135.132H85.9C85.4426 135.552 84.976 135.874 84.5 136.098C83.5853 136.098 82.876 135.809 82.372 135.23C81.868 134.642 81.616 133.83 81.616 132.794C81.616 131.693 81.9053 130.848 82.484 130.26C83.0626 129.672 83.8653 129.378 84.892 129.378C85.1626 129.378 85.4613 129.406 85.788 129.462L85.76 126.312L87.608 126.172L87.496 133.13ZM84.766 130.638C83.8326 130.638 83.366 131.231 83.366 132.416C83.366 133.153 83.478 133.709 83.702 134.082C83.926 134.455 84.2526 134.642 84.682 134.642C85.0926 134.642 85.4706 134.451 85.816 134.068L85.844 133.298L85.802 130.89C85.438 130.722 85.0926 130.638 84.766 130.638ZM94.4731 132.976L90.6931 133.004C90.7771 134.171 91.3698 134.754 92.4711 134.754C93.0498 134.754 93.6938 134.591 94.4031 134.264L94.5571 134.362L94.2771 135.748C93.5678 136.009 92.9004 136.14 92.2751 136.14C91.2484 136.14 90.4411 135.841 89.8531 135.244C89.2744 134.647 88.9851 133.821 88.9851 132.766C88.9851 131.721 89.2698 130.895 89.8391 130.288C90.4084 129.672 91.1784 129.364 92.1491 129.364C92.9798 129.364 93.6191 129.593 94.0671 130.05C94.5244 130.498 94.7531 131.128 94.7531 131.94C94.7531 132.155 94.7298 132.425 94.6831 132.752L94.4731 132.976ZM93.1291 131.73C93.1291 131.357 93.0451 131.077 92.8771 130.89C92.7091 130.694 92.4618 130.596 92.1351 130.596C91.7711 130.596 91.4678 130.717 91.2251 130.96C90.9824 131.193 90.8191 131.534 90.7351 131.982L93.1011 131.926L93.1291 131.73ZM104.414 130.372C104.162 130.437 103.802 130.507 103.336 130.582L103.308 130.638C103.448 130.918 103.518 131.231 103.518 131.576C103.518 132.276 103.261 132.836 102.748 133.256C102.244 133.667 101.558 133.872 100.69 133.872C100.428 133.872 100.158 133.849 99.8778 133.802C99.7938 133.886 99.7378 133.951 99.7098 133.998C99.6818 134.045 99.6678 134.101 99.6678 134.166C99.6678 134.334 99.7798 134.451 100.004 134.516C100.228 134.581 100.582 134.647 101.068 134.712C101.618 134.777 102.076 134.857 102.44 134.95C102.813 135.043 103.13 135.207 103.392 135.44C103.662 135.673 103.798 136.005 103.798 136.434C103.798 136.873 103.658 137.265 103.378 137.61C103.107 137.965 102.729 138.24 102.244 138.436C101.758 138.632 101.208 138.73 100.592 138.73C99.7424 138.73 99.0891 138.557 98.6318 138.212C98.1744 137.867 97.9458 137.409 97.9458 136.84C98.2351 136.439 98.6224 136.089 99.1078 135.79V135.72C98.7904 135.608 98.5431 135.454 98.3658 135.258C98.1884 135.053 98.0998 134.782 98.0998 134.446C98.3518 134.138 98.6691 133.853 99.0518 133.592V133.522C98.7158 133.335 98.4591 133.093 98.2818 132.794C98.1138 132.486 98.0298 132.127 98.0298 131.716C98.0298 130.988 98.2818 130.419 98.7858 130.008C99.2898 129.597 99.9758 129.392 100.844 129.392C101.348 129.392 101.805 129.476 102.216 129.644C102.888 129.523 103.574 129.336 104.274 129.084L104.414 129.21V130.372ZM100.746 132.752C101.128 132.752 101.418 132.654 101.614 132.458C101.81 132.262 101.908 131.977 101.908 131.604C101.908 130.895 101.544 130.54 100.816 130.54C100.032 130.54 99.6398 130.899 99.6398 131.618C99.6398 131.991 99.7331 132.276 99.9198 132.472C100.106 132.659 100.382 132.752 100.746 132.752ZM102.23 136.77C102.23 136.518 102.094 136.345 101.824 136.252C101.562 136.159 101.156 136.079 100.606 136.014L100.13 135.944C99.9058 136.093 99.7378 136.238 99.6258 136.378C99.5138 136.518 99.4578 136.667 99.4578 136.826C99.4578 137.069 99.5698 137.265 99.7938 137.414C100.018 137.563 100.344 137.638 100.774 137.638C101.212 137.638 101.562 137.559 101.824 137.4C102.094 137.251 102.23 137.041 102.23 136.77ZM106.976 133.13L107.074 136H105.212L105.31 133.298L105.226 126.312L107.088 126.172L106.976 133.13ZM108.959 133.312L108.889 129.616L110.723 129.462L110.639 133.13L110.723 136H108.861L108.959 133.312ZM109.841 126.298C110.131 126.298 110.355 126.382 110.513 126.55C110.681 126.718 110.765 126.951 110.765 127.25C110.765 127.567 110.677 127.819 110.499 128.006C110.322 128.193 110.079 128.286 109.771 128.286C109.463 128.286 109.225 128.202 109.057 128.034C108.899 127.866 108.819 127.628 108.819 127.32C108.819 127.012 108.908 126.765 109.085 126.578C109.272 126.391 109.524 126.298 109.841 126.298ZM115.158 129.364C115.466 129.364 115.769 129.397 116.068 129.462C116.376 129.518 116.647 129.602 116.88 129.714L116.572 131.198L116.418 131.268C115.942 131.007 115.517 130.876 115.144 130.876C114.715 130.876 114.383 131.03 114.15 131.338C113.917 131.646 113.8 132.085 113.8 132.654C113.8 133.307 113.926 133.807 114.178 134.152C114.43 134.497 114.789 134.67 115.256 134.67C115.676 134.67 116.143 134.553 116.656 134.32L116.796 134.432L116.614 135.874C116.054 136.051 115.48 136.14 114.892 136.14C113.996 136.14 113.296 135.851 112.792 135.272C112.288 134.684 112.036 133.867 112.036 132.822C112.036 131.739 112.311 130.895 112.862 130.288C113.413 129.672 114.178 129.364 115.158 129.364ZM122.911 132.976L119.131 133.004C119.215 134.171 119.807 134.754 120.909 134.754C121.487 134.754 122.131 134.591 122.841 134.264L122.995 134.362L122.715 135.748C122.005 136.009 121.338 136.14 120.713 136.14C119.686 136.14 118.879 135.841 118.291 135.244C117.712 134.647 117.423 133.821 117.423 132.766C117.423 131.721 117.707 130.895 118.277 130.288C118.846 129.672 119.616 129.364 120.587 129.364C121.417 129.364 122.057 129.593 122.505 130.05C122.962 130.498 123.191 131.128 123.191 131.94C123.191 132.155 123.167 132.425 123.121 132.752L122.911 132.976ZM121.567 131.73C121.567 131.357 121.483 131.077 121.315 130.89C121.147 130.694 120.899 130.596 120.573 130.596C120.209 130.596 119.905 130.717 119.663 130.96C119.42 131.193 119.257 131.534 119.173 131.982L121.539 131.926L121.567 131.73ZM132.272 136L132.384 131.94C132.384 131.249 132.09 130.904 131.502 130.904C131.082 130.904 130.643 131.091 130.186 131.464L130.144 133.144L130.228 136H128.366L128.478 131.94C128.487 131.604 128.413 131.347 128.254 131.17C128.105 130.993 127.885 130.904 127.596 130.904C127.185 130.904 126.733 131.1 126.238 131.492V133.13L126.322 136H124.474L124.572 133.312L124.502 129.616L126.252 129.462V130.414H126.35C126.863 129.947 127.428 129.611 128.044 129.406C129.089 129.406 129.757 129.756 130.046 130.456H130.13C130.662 129.961 131.269 129.611 131.95 129.406C132.659 129.406 133.196 129.569 133.56 129.896C133.933 130.213 134.111 130.675 134.092 131.282L134.05 133.144L134.134 136H132.272ZM135.893 133.312L135.823 129.616L137.657 129.462L137.573 133.13L137.657 136H135.795L135.893 133.312ZM136.775 126.298C137.064 126.298 137.288 126.382 137.447 126.55C137.615 126.718 137.699 126.951 137.699 127.25C137.699 127.567 137.61 127.819 137.433 128.006C137.256 128.193 137.013 128.286 136.705 128.286C136.397 128.286 136.159 128.202 135.991 128.034C135.832 127.866 135.753 127.628 135.753 127.32C135.753 127.012 135.842 126.765 136.019 126.578C136.206 126.391 136.458 126.298 136.775 126.298ZM141.979 129.364C142.698 129.364 143.258 129.527 143.659 129.854C144.07 130.171 144.275 130.619 144.275 131.198C144.275 131.366 144.247 131.898 144.191 132.794C144.182 133.055 144.168 133.326 144.149 133.606C144.131 133.877 144.121 134.11 144.121 134.306C144.121 134.465 144.145 134.577 144.191 134.642C144.238 134.698 144.322 134.726 144.443 134.726C144.537 134.726 144.658 134.707 144.807 134.67L144.947 134.782L144.779 135.762C144.481 135.958 144.14 136.075 143.757 136.112C143.477 136.084 143.244 135.986 143.057 135.818C142.871 135.641 142.745 135.398 142.679 135.09H142.581C142.115 135.585 141.634 135.93 141.139 136.126C140.467 136.117 139.94 135.939 139.557 135.594C139.175 135.249 138.983 134.777 138.983 134.18C138.983 133.713 139.1 133.349 139.333 133.088C139.576 132.817 139.94 132.635 140.425 132.542L142.567 132.136V131.562C142.567 130.955 142.269 130.652 141.671 130.652C141.382 130.652 141.074 130.717 140.747 130.848C140.43 130.979 140.071 131.184 139.669 131.464L139.529 131.38L139.319 130.148C139.721 129.896 140.15 129.705 140.607 129.574C141.065 129.434 141.522 129.364 141.979 129.364ZM141.069 133.396C140.92 133.433 140.808 133.499 140.733 133.592C140.668 133.676 140.635 133.807 140.635 133.984C140.635 134.227 140.701 134.418 140.831 134.558C140.962 134.689 141.144 134.754 141.377 134.754C141.741 134.754 142.124 134.539 142.525 134.11L142.553 133.074L141.069 133.396Z" fill="white"/>
<defs>
<filter id="filter0_d_206:37326" x="39.302" y="8.52374" width="87.8789" height="72.819" filterUnits="userSpaceOnUse" color-interpolation-filters="sRGB">
<feFlood flood-opacity="0" result="BackgroundImageFix"/>
<feColorMatrix in="SourceAlpha" type="matrix" values="0 0 0 0 0 0 0 0 0 0 0 0 0 0 0 0 0 0 127 0" result="hardAlpha"/>
<feOffset dy="4"/>
<feGaussianBlur stdDeviation="2"/>
<feComposite in2="hardAlpha" operator="out"/>
<feColorMatrix type="matrix" values="0 0 0 0 0 0 0 0 0 0 0 0 0 0 0 0 0 0 0.25 0"/>
<feBlend mode="normal" in2="BackgroundImageFix" result="effect1_dropShadow_206:37326"/>
<feBlend mode="normal" in="SourceGraphic" in2="effect1_dropShadow_206:37326" result="shape"/>
</filter>
<filter id="filter1_b_206:37326" x="3" y="67" width="161" height="97" filterUnits="userSpaceOnUse" color-interpolation-filters="sRGB">
<feFlood flood-opacity="0" result="BackgroundImageFix"/>
<feGaussianBlur in="BackgroundImage" stdDeviation="5"/>
<feComposite in2="SourceAlpha" operator="in" result="effect1_backgroundBlur_206:37326"/>
<feBlend mode="normal" in="SourceGraphic" in2="effect1_backgroundBlur_206:37326" result="shape"/>
</filter>
</defs>
</svg>
