<svg width="167" height="167" viewBox="0 0 167 167" fill="none" xmlns="http://www.w3.org/2000/svg">
<mask id="mask0_206:37246" style="mask-type:alpha" maskUnits="userSpaceOnUse" x="0" y="0" width="167" height="167">
<rect x="1" y="1" width="165" height="165" rx="8" fill="#5988D6" stroke="#EDE6FC" stroke-opacity="0.3"/>
</mask>
<g mask="url(#mask0_206:37246)">
<rect x="1" y="1" width="165" height="165" rx="8" fill="#CEE2F2" stroke="#EDE6FC" stroke-opacity="0.3"/>
<path d="M104.922 71.7141C101.632 78.3613 105.062 86.7525 105.062 86.7525L131.659 78.4765C131.32 78.0608 131.043 77.598 130.836 77.1026C122.865 75.8064 115.036 73.7514 107.456 70.9655L104.922 71.7141Z" fill="#DCDAEA"/>
<path d="M130.952 64.1292L107.506 70.9326C115.086 73.7185 122.915 75.7736 130.886 77.0698C128.846 72.4464 130.952 64.1292 130.952 64.1292Z" fill="#EBE9F4"/>
<path d="M134.028 77.7525L105.062 86.7525C103.343 79.1675 104.034 74.4125 104.922 71.7142L133.354 63.4875C134.176 62.3769 133.453 60.7892 133.453 60.7892L106.346 68.9171L50.0178 66.9098L35.2098 66.3833C28.4639 76.3622 34.4859 86.5222 34.4859 86.5222L43.4365 86.8348L50.7417 87.098L82.184 88.2169L91.7927 88.5624L105.605 89.0478L133.938 80.4262C134.793 79.2992 134.028 77.7525 134.028 77.7525Z" fill="#635BA7"/>
<path d="M35.218 66.3668L69.6219 58.5021L133.444 60.7727L106.337 68.9006L35.218 66.3668Z" fill="#4A4793"/>
<path d="M107.341 50.6951C103.993 57.2764 106.379 65.791 106.379 65.791L125.901 59.7197C120.12 57.5892 114.895 54.1808 110.616 49.749L107.341 50.6951Z" fill="#DCDAEA"/>
<path d="M130.401 44.0726L110.657 49.749C114.924 54.1757 120.135 57.5837 125.901 59.7197L130.014 58.4528C127.431 54.1667 130.401 44.0726 130.401 44.0726Z" fill="#EBE9F4"/>
<path d="M52.0663 44.813L47.4511 44.4264C40.8698 54.1914 45.378 64.5981 45.378 64.5981L50.9063 65.0671C49.1204 58.365 49.5269 51.2673 52.0663 44.813Z" fill="#4FC1B2"/>
<path d="M56.7473 45.2079L52.0664 44.8212C49.527 51.2755 49.1205 58.3732 50.9064 65.0753L55.7601 65.4784C54.7812 58.7078 54.6413 51.6082 56.7473 45.2079Z" fill="#FFCB73"/>
<path d="M96.408 46.8532L92.3687 46.5159C89.9798 52.9515 89.1921 59.8716 90.0735 66.6795L94.1868 67.025C94.1436 60.2377 94.889 53.4685 96.408 46.8532Z" fill="#FFCB73"/>
<path d="M132.079 57.8111L106.379 65.7745C105.441 58.099 106.379 53.3358 107.341 50.6786L132.531 43.4474C132.761 43.041 132.904 42.5913 132.951 42.1268C132.998 41.6622 132.947 41.193 132.803 40.749L108.781 47.9062L96.4411 46.8697C94.9332 53.4862 94.1988 60.2555 94.2528 67.0414L106.733 68.0862L131.857 60.4683C132.077 60.0654 132.211 59.6208 132.249 59.1632C132.287 58.7056 132.229 58.245 132.079 57.8111Z" fill="#4FC1B2"/>
<path d="M92.3687 46.5488L71.983 44.8377L62.5882 44.015L56.7472 45.1585C54.6412 51.5671 54.7811 58.6667 55.76 65.429L90.0734 66.6712C89.1988 59.8768 89.9865 52.9717 92.3687 46.5488Z" fill="#4FC1B2"/>
<path d="M47.4512 44.4263L77.7746 36.1503L132.803 40.7655L108.773 47.9227L47.4512 44.4263Z" fill="#3EAF9C"/>
<path d="M110.27 30.9593C107.621 36.6768 109.809 44.0479 109.809 44.0479L125.958 38.5607C121.053 36.7541 116.62 33.86 112.993 30.0955L110.27 30.9593Z" fill="#DCDAEA"/>
<path d="M129.331 24.9374L112.993 30.0955C116.62 33.86 121.053 36.7541 125.958 38.5608L129.323 37.409C127.085 33.7317 129.331 24.9374 129.331 24.9374Z" fill="#EBE9F4"/>
<path d="M60.186 24.8222L85.2938 18.7098L131.256 22.0416L111.397 28.5325L60.186 24.8222Z" fill="#F0593A"/>
<path d="M109.809 44.0479C108.855 37.409 109.53 33.271 110.27 30.9593L131.092 24.378C131.274 24.018 131.383 23.6251 131.411 23.2223C131.44 22.8196 131.387 22.4153 131.256 22.0334L111.397 28.5324L80.654 26.2866L72.814 25.7189L67.9439 25.3652L64.0362 25.0772L60.1779 24.7975C54.9375 33.345 58.911 42.3121 58.911 42.3121L63.5261 42.6494L67.5819 42.9455L72.9292 43.3322L79.601 43.8093L110.122 46.0223L130.886 39.1202C131.068 38.7656 131.175 38.3774 131.201 37.9797C131.226 37.582 131.169 37.1833 131.034 36.8085L109.809 44.0479Z" fill="#F06952"/>
<path d="M109.225 19.1294C109.382 18.7674 108.493 18.4301 107.695 18.208C107.536 18.7588 107.601 19.3503 107.876 19.8533C108.493 19.7052 109.094 19.4173 109.225 19.1294Z" fill="#2B2B2B"/>
<path d="M99.4023 18.0599L100.669 20.7665L103.285 21.2107C103.285 21.2107 106.436 20.2975 107.876 19.8944C107.649 19.3772 107.586 18.8032 107.695 18.2491C106.477 17.9447 103.499 17.0974 103.499 17.0974L99.4023 18.0599Z" fill="#FBD7D6"/>
<path d="M73.1102 17.5252C72.9789 18.395 72.9789 19.2796 73.1102 20.1495C73.2171 21.0873 73.9328 20.9146 73.9328 20.9146L75.1257 20.7994V19.7875C74.5959 18.8555 73.97 17.9814 73.2583 17.1797C73.19 17.2858 73.14 17.4026 73.1102 17.5252Z" fill="#F17FB0"/>
<path d="M74.0727 16.8095C73.9289 16.8092 73.7871 16.8425 73.6585 16.9067C73.53 16.971 73.4183 17.0645 73.3323 17.1797C74.044 17.9814 74.6699 18.8555 75.1997 19.7875L75.2902 16.7519C75.2902 16.7519 74.5251 16.7766 74.0727 16.8095Z" fill="#F0678F"/>
<path d="M76.4832 16.9164C76.2879 18.165 76.2327 19.4316 76.3187 20.6924C76.3068 20.8096 76.2526 20.9185 76.1663 20.9987C76.08 21.079 75.9675 21.1251 75.8498 21.1285C75.4384 21.1285 75.1587 21.2272 75.134 20.7994C75.0577 19.4494 75.0962 18.0953 75.2492 16.7519C75.3561 16.4886 76.5408 16.5709 76.4832 16.9164Z" fill="#C2B9DB"/>
<path d="M103.689 17.2866C104.108 17.155 103.911 17.0563 103.911 17.0563L76.6723 16.9164C76.5324 17.1725 76.4377 17.4508 76.3926 17.7391L102.052 17.8543C102.084 17.517 103.286 17.41 103.689 17.2866Z" fill="#FFCB73"/>
<path d="M103.804 20.8734C103.615 20.6102 102.282 20.4539 102.158 20.1248L76.2773 20.0096C76.2773 20.4209 76.3349 20.6924 76.3349 20.6924L103.68 21.1943C103.68 21.1943 104.018 21.1449 103.804 20.8734Z" fill="#F79828"/>
<path d="M102.183 20.0343C102.323 19.6476 103.927 19.3762 103.952 18.899C103.977 18.4219 102.052 17.92 102.052 17.92C102.048 17.9011 102.048 17.8814 102.052 17.8625L76.3926 17.7473C76.2773 18.4956 76.2497 19.2549 76.3104 20.0096L102.191 20.1248C102.18 20.096 102.177 20.0646 102.183 20.0343Z" fill="#FAB21B"/>
</g>
<g filter="url(#filter0_b_206:37246)">
<rect x="13" y="77" width="141" height="77" rx="10" fill="black" fill-opacity="0.8"/>
</g>
<path d="M35.0692 87.496L35.0272 89.932L36.2872 89.946L37.8132 89.904L37.9392 90.044L37.7992 91.458L36.1332 91.416L34.9992 91.43L34.9852 92.144L35.0692 95H33.1652L33.2632 92.312L33.1652 85.984H38.5272L38.6392 86.138L38.4992 87.566L36.3572 87.482L35.0692 87.496ZM43.9829 91.976L40.2029 92.004C40.2869 93.1707 40.8795 93.754 41.9809 93.754C42.5595 93.754 43.2035 93.5907 43.9129 93.264L44.0669 93.362L43.7869 94.748C43.0775 95.0093 42.4102 95.14 41.7849 95.14C40.7582 95.14 39.9509 94.8413 39.3629 94.244C38.7842 93.6467 38.4949 92.8207 38.4949 91.766C38.4949 90.7207 38.7795 89.8947 39.3489 89.288C39.9182 88.672 40.6882 88.364 41.6589 88.364C42.4895 88.364 43.1289 88.5927 43.5769 89.05C44.0342 89.498 44.2629 90.128 44.2629 90.94C44.2629 91.1547 44.2395 91.4253 44.1929 91.752L43.9829 91.976ZM42.6389 90.73C42.6389 90.3567 42.5549 90.0767 42.3869 89.89C42.2189 89.694 41.9715 89.596 41.6449 89.596C41.2809 89.596 40.9775 89.7173 40.7349 89.96C40.4922 90.1933 40.3289 90.534 40.2449 90.982L42.6109 90.926L42.6389 90.73ZM49.1444 88.476C49.2284 88.476 49.345 88.4853 49.4944 88.504V90.226L49.2984 90.296C49.1397 90.2307 48.967 90.198 48.7804 90.198C48.239 90.198 47.749 90.548 47.3104 91.248V92.13L47.4084 95H45.5464L45.6584 92.312L45.5744 88.616L47.3384 88.462L47.3244 89.736H47.4364C47.8937 88.896 48.463 88.476 49.1444 88.476ZM54.0116 88.476C54.0956 88.476 54.2122 88.4853 54.3616 88.504V90.226L54.1656 90.296C54.0069 90.2307 53.8342 90.198 53.6476 90.198C53.1062 90.198 52.6162 90.548 52.1776 91.248V92.13L52.2756 95H50.4136L50.5256 92.312L50.4416 88.616L52.2056 88.462L52.1916 89.736H52.3036C52.7609 88.896 53.3302 88.476 54.0116 88.476ZM57.706 88.364C58.4247 88.364 58.9847 88.5273 59.386 88.854C59.7967 89.1713 60.002 89.6193 60.002 90.198C60.002 90.366 59.974 90.898 59.918 91.794C59.9087 92.0553 59.8947 92.326 59.876 92.606C59.8574 92.8767 59.848 93.11 59.848 93.306C59.848 93.4647 59.8714 93.5767 59.918 93.642C59.9647 93.698 60.0487 93.726 60.17 93.726C60.2634 93.726 60.3847 93.7073 60.534 93.67L60.674 93.782L60.506 94.762C60.2074 94.958 59.8667 95.0747 59.484 95.112C59.204 95.084 58.9707 94.986 58.784 94.818C58.5974 94.6407 58.4714 94.398 58.406 94.09H58.308C57.8414 94.5847 57.3607 94.93 56.866 95.126C56.194 95.1167 55.6667 94.9393 55.284 94.594C54.9014 94.2487 54.71 93.7773 54.71 93.18C54.71 92.7133 54.8267 92.3493 55.06 92.088C55.3027 91.8173 55.6667 91.6353 56.152 91.542L58.294 91.136V90.562C58.294 89.9553 57.9954 89.652 57.398 89.652C57.1087 89.652 56.8007 89.7173 56.474 89.848C56.1567 89.9787 55.7974 90.184 55.396 90.464L55.256 90.38L55.046 89.148C55.4474 88.896 55.8767 88.7047 56.334 88.574C56.7914 88.434 57.2487 88.364 57.706 88.364ZM56.796 92.396C56.6467 92.4333 56.5347 92.4987 56.46 92.592C56.3947 92.676 56.362 92.8067 56.362 92.984C56.362 93.2267 56.4274 93.418 56.558 93.558C56.6887 93.6887 56.8707 93.754 57.104 93.754C57.468 93.754 57.8507 93.5393 58.252 93.11L58.28 92.074L56.796 92.396ZM69.6002 95L69.7122 90.94C69.7122 90.2493 69.4182 89.904 68.8302 89.904C68.4102 89.904 67.9716 90.0907 67.5142 90.464L67.4722 92.144L67.5562 95H65.6942L65.8062 90.94C65.8156 90.604 65.7409 90.3473 65.5822 90.17C65.4329 89.9927 65.2136 89.904 64.9242 89.904C64.5136 89.904 64.0609 90.1 63.5662 90.492V92.13L63.6502 95H61.8022L61.9002 92.312L61.8302 88.616L63.5802 88.462V89.414H63.6782C64.1916 88.9473 64.7562 88.6113 65.3722 88.406C66.4176 88.406 67.0849 88.756 67.3742 89.456H67.4582C67.9902 88.9613 68.5969 88.6113 69.2782 88.406C69.9876 88.406 70.5242 88.5693 70.8882 88.896C71.2616 89.2133 71.4389 89.6753 71.4202 90.282L71.3782 92.144L71.4622 95H69.6002ZM78.1352 91.976L74.3552 92.004C74.4392 93.1707 75.0319 93.754 76.1332 93.754C76.7119 93.754 77.3559 93.5907 78.0652 93.264L78.2192 93.362L77.9392 94.748C77.2299 95.0093 76.5625 95.14 75.9372 95.14C74.9105 95.14 74.1032 94.8413 73.5152 94.244C72.9365 93.6467 72.6472 92.8207 72.6472 91.766C72.6472 90.7207 72.9319 89.8947 73.5012 89.288C74.0705 88.672 74.8405 88.364 75.8112 88.364C76.6419 88.364 77.2812 88.5927 77.7292 89.05C78.1865 89.498 78.4152 90.128 78.4152 90.94C78.4152 91.1547 78.3919 91.4253 78.3452 91.752L78.1352 91.976ZM76.7912 90.73C76.7912 90.3567 76.7072 90.0767 76.5392 89.89C76.3712 89.694 76.1239 89.596 75.7972 89.596C75.4332 89.596 75.1299 89.7173 74.8872 89.96C74.6445 90.1933 74.4812 90.534 74.3972 90.982L76.7632 90.926L76.7912 90.73ZM83.7027 90.94C83.7121 90.6133 83.6374 90.3613 83.4787 90.184C83.3294 89.9973 83.1101 89.904 82.8207 89.904C82.4007 89.904 81.9527 90.1047 81.4767 90.506V92.13L81.5607 95H79.6987L79.7967 92.312L79.7267 88.616L81.4907 88.462V89.414H81.5887C82.1021 88.9473 82.6621 88.6113 83.2687 88.406C83.9781 88.406 84.5194 88.5693 84.8927 88.896C85.2661 89.2133 85.4434 89.6753 85.4247 90.282L85.3827 92.144L85.4667 95H83.5907L83.7027 90.94ZM89.7409 93.628C90.0395 93.628 90.3522 93.5487 90.6789 93.39L90.8329 93.53L90.6509 94.636C90.1749 94.8787 89.6895 95.028 89.1949 95.084C87.9349 94.9533 87.3049 94.3373 87.3049 93.236L87.3749 92.074L87.3609 89.666H86.4929L86.4229 89.568L86.5209 88.546H87.3469V87.468L89.0409 86.922L89.1669 87.034L89.1249 88.546H90.7909L90.8469 88.644L90.7629 89.666H89.0969L89.0129 92.802C89.0129 93.1007 89.0689 93.3153 89.1809 93.446C89.2929 93.5673 89.4795 93.628 89.7409 93.628ZM94.4014 88.364C95.12 88.364 95.68 88.5273 96.0814 88.854C96.492 89.1713 96.6974 89.6193 96.6974 90.198C96.6974 90.366 96.6694 90.898 96.6134 91.794C96.604 92.0553 96.59 92.326 96.5714 92.606C96.5527 92.8767 96.5434 93.11 96.5434 93.306C96.5434 93.4647 96.5667 93.5767 96.6134 93.642C96.66 93.698 96.744 93.726 96.8654 93.726C96.9587 93.726 97.08 93.7073 97.2294 93.67L97.3694 93.782L97.2014 94.762C96.9027 94.958 96.562 95.0747 96.1794 95.112C95.8994 95.084 95.666 94.986 95.4794 94.818C95.2927 94.6407 95.1667 94.398 95.1014 94.09H95.0034C94.5367 94.5847 94.056 94.93 93.5614 95.126C92.8894 95.1167 92.362 94.9393 91.9794 94.594C91.5967 94.2487 91.4054 93.7773 91.4054 93.18C91.4054 92.7133 91.522 92.3493 91.7554 92.088C91.998 91.8173 92.362 91.6353 92.8474 91.542L94.9894 91.136V90.562C94.9894 89.9553 94.6907 89.652 94.0934 89.652C93.804 89.652 93.496 89.7173 93.1694 89.848C92.852 89.9787 92.4927 90.184 92.0914 90.464L91.9514 90.38L91.7414 89.148C92.1427 88.896 92.572 88.7047 93.0294 88.574C93.4867 88.434 93.944 88.364 94.4014 88.364ZM93.4914 92.396C93.342 92.4333 93.23 92.4987 93.1554 92.592C93.09 92.676 93.0574 92.8067 93.0574 92.984C93.0574 93.2267 93.1227 93.418 93.2534 93.558C93.384 93.6887 93.566 93.754 93.7994 93.754C94.1634 93.754 94.546 93.5393 94.9474 93.11L94.9754 92.074L93.4914 92.396ZM104.213 88.406C105.034 88.406 105.659 88.686 106.089 89.246C106.527 89.7967 106.747 90.5667 106.747 91.556C106.747 92.704 106.462 93.5907 105.893 94.216C105.323 94.832 104.535 95.14 103.527 95.14C103.051 95.14 102.528 95.0327 101.959 94.818L100.979 95.168L100.755 94.986L100.853 92.326L100.769 85.312L102.617 85.172L102.561 89.414H102.645C102.906 89.162 103.158 88.9613 103.401 88.812C103.643 88.6533 103.914 88.518 104.213 88.406ZM103.527 93.922C103.993 93.922 104.357 93.754 104.619 93.418C104.88 93.082 105.011 92.5687 105.011 91.878C105.011 91.234 104.903 90.744 104.689 90.408C104.483 90.072 104.171 89.904 103.751 89.904C103.368 89.904 102.967 90.1 102.547 90.492L102.519 92.088L102.547 93.67C102.892 93.838 103.219 93.922 103.527 93.922ZM110.589 88.364C111.308 88.364 111.868 88.5273 112.269 88.854C112.68 89.1713 112.885 89.6193 112.885 90.198C112.885 90.366 112.857 90.898 112.801 91.794C112.792 92.0553 112.778 92.326 112.759 92.606C112.74 92.8767 112.731 93.11 112.731 93.306C112.731 93.4647 112.754 93.5767 112.801 93.642C112.848 93.698 112.932 93.726 113.053 93.726C113.146 93.726 113.268 93.7073 113.417 93.67L113.557 93.782L113.389 94.762C113.09 94.958 112.75 95.0747 112.367 95.112C112.087 95.084 111.854 94.986 111.667 94.818C111.48 94.6407 111.354 94.398 111.289 94.09H111.191C110.724 94.5847 110.244 94.93 109.749 95.126C109.077 95.1167 108.55 94.9393 108.167 94.594C107.784 94.2487 107.593 93.7773 107.593 93.18C107.593 92.7133 107.71 92.3493 107.943 92.088C108.186 91.8173 108.55 91.6353 109.035 91.542L111.177 91.136V90.562C111.177 89.9553 110.878 89.652 110.281 89.652C109.992 89.652 109.684 89.7173 109.357 89.848C109.04 89.9787 108.68 90.184 108.279 90.464L108.139 90.38L107.929 89.148C108.33 88.896 108.76 88.7047 109.217 88.574C109.674 88.434 110.132 88.364 110.589 88.364ZM109.679 92.396C109.53 92.4333 109.418 92.4987 109.343 92.592C109.278 92.676 109.245 92.8067 109.245 92.984C109.245 93.2267 109.31 93.418 109.441 93.558C109.572 93.6887 109.754 93.754 109.987 93.754C110.351 93.754 110.734 93.5393 111.135 93.11L111.163 92.074L109.679 92.396ZM111.807 84.878L112.479 85.886L112.451 86.068C112.246 86.1987 112.092 86.292 111.989 86.348C110.822 87.0667 110.066 87.524 109.721 87.72L109.539 87.706L109.091 87.006C110.174 86.138 111.018 85.424 111.625 84.864L111.807 84.878ZM116.951 88.378C117.586 88.378 118.183 88.4853 118.743 88.7L118.491 90.072L118.267 90.142C117.996 89.9647 117.726 89.8293 117.455 89.736C117.184 89.6427 116.946 89.596 116.741 89.596C116.517 89.596 116.34 89.6567 116.209 89.778C116.078 89.89 116.013 90.03 116.013 90.198C116.013 90.394 116.097 90.5527 116.265 90.674C116.442 90.7953 116.718 90.9307 117.091 91.08C117.464 91.2293 117.772 91.374 118.015 91.514C118.258 91.654 118.463 91.85 118.631 92.102C118.808 92.3447 118.897 92.648 118.897 93.012C118.897 93.3853 118.799 93.7353 118.603 94.062C118.416 94.3793 118.127 94.6407 117.735 94.846C117.343 95.042 116.862 95.14 116.293 95.14C115.621 95.14 114.926 95 114.207 94.72L114.417 93.264L114.599 93.152C114.888 93.3947 115.21 93.5907 115.565 93.74C115.92 93.88 116.232 93.95 116.503 93.95C116.755 93.95 116.951 93.8893 117.091 93.768C117.231 93.6373 117.301 93.4833 117.301 93.306C117.301 93.11 117.212 92.9513 117.035 92.83C116.867 92.7087 116.596 92.5733 116.223 92.424C115.84 92.256 115.528 92.1067 115.285 91.976C115.042 91.836 114.832 91.64 114.655 91.388C114.487 91.136 114.403 90.8233 114.403 90.45C114.403 89.8433 114.632 89.3487 115.089 88.966C115.546 88.574 116.167 88.378 116.951 88.378ZM120.266 92.312L120.196 88.616L122.03 88.462L121.946 92.13L122.03 95H120.168L120.266 92.312ZM121.148 85.298C121.437 85.298 121.661 85.382 121.82 85.55C121.988 85.718 122.072 85.9513 122.072 86.25C122.072 86.5673 121.983 86.8193 121.806 87.006C121.629 87.1927 121.386 87.286 121.078 87.286C120.77 87.286 120.532 87.202 120.364 87.034C120.205 86.866 120.126 86.628 120.126 86.32C120.126 86.012 120.215 85.7647 120.392 85.578C120.579 85.3913 120.831 85.298 121.148 85.298ZM126.465 88.364C126.773 88.364 127.076 88.3967 127.375 88.462C127.683 88.518 127.953 88.602 128.187 88.714L127.879 90.198L127.725 90.268C127.249 90.0067 126.824 89.876 126.451 89.876C126.021 89.876 125.69 90.03 125.457 90.338C125.223 90.646 125.107 91.0847 125.107 91.654C125.107 92.3073 125.233 92.8067 125.485 93.152C125.737 93.4973 126.096 93.67 126.563 93.67C126.983 93.67 127.449 93.5533 127.963 93.32L128.103 93.432L127.921 94.874C127.361 95.0513 126.787 95.14 126.199 95.14C125.303 95.14 124.603 94.8507 124.099 94.272C123.595 93.684 123.343 92.8673 123.343 91.822C123.343 90.7393 123.618 89.8947 124.169 89.288C124.719 88.672 125.485 88.364 126.465 88.364ZM131.603 88.364C132.321 88.364 132.881 88.5273 133.283 88.854C133.693 89.1713 133.899 89.6193 133.899 90.198C133.899 90.366 133.871 90.898 133.815 91.794C133.805 92.0553 133.791 92.326 133.773 92.606C133.754 92.8767 133.745 93.11 133.745 93.306C133.745 93.4647 133.768 93.5767 133.815 93.642C133.861 93.698 133.945 93.726 134.067 93.726C134.16 93.726 134.281 93.7073 134.431 93.67L134.571 93.782L134.403 94.762C134.104 94.958 133.763 95.0747 133.381 95.112C133.101 95.084 132.867 94.986 132.681 94.818C132.494 94.6407 132.368 94.398 132.303 94.09H132.205C131.738 94.5847 131.257 94.93 130.763 95.126C130.091 95.1167 129.563 94.9393 129.181 94.594C128.798 94.2487 128.607 93.7773 128.607 93.18C128.607 92.7133 128.723 92.3493 128.957 92.088C129.199 91.8173 129.563 91.6353 130.049 91.542L132.191 91.136V90.562C132.191 89.9553 131.892 89.652 131.295 89.652C131.005 89.652 130.697 89.7173 130.371 89.848C130.053 89.9787 129.694 90.184 129.293 90.464L129.153 90.38L128.943 89.148C129.344 88.896 129.773 88.7047 130.231 88.574C130.688 88.434 131.145 88.364 131.603 88.364ZM130.693 92.396C130.543 92.4333 130.431 92.4987 130.357 92.592C130.291 92.676 130.259 92.8067 130.259 92.984C130.259 93.2267 130.324 93.418 130.455 93.558C130.585 93.6887 130.767 93.754 131.001 93.754C131.365 93.754 131.747 93.5393 132.149 93.11L132.177 92.074L130.693 92.396ZM43.2414 104.406C44.0534 104.406 44.6787 104.681 45.1174 105.232C45.556 105.783 45.7754 106.562 45.7754 107.57C45.7754 108.709 45.4907 109.591 44.9214 110.216C44.3614 110.832 43.568 111.14 42.5414 111.14C42.2427 111.14 41.93 111.112 41.6034 111.056L41.6454 113.59H39.7974L39.8954 108.312L39.8114 104.616L41.5894 104.462L41.5754 105.414H41.6734C41.9347 105.162 42.1867 104.961 42.4294 104.812C42.672 104.653 42.9427 104.518 43.2414 104.406ZM42.5554 109.922C43.0407 109.922 43.4094 109.749 43.6614 109.404C43.9134 109.059 44.0394 108.55 44.0394 107.878C44.0394 107.225 43.932 106.735 43.7174 106.408C43.512 106.072 43.204 105.904 42.7934 105.904C42.392 105.904 41.986 106.105 41.5754 106.506L41.5614 108.13L41.5894 109.712C41.9254 109.852 42.2474 109.922 42.5554 109.922ZM49.6055 104.364C50.3241 104.364 50.8841 104.527 51.2855 104.854C51.6961 105.171 51.9015 105.619 51.9015 106.198C51.9015 106.366 51.8735 106.898 51.8175 107.794C51.8081 108.055 51.7941 108.326 51.7755 108.606C51.7568 108.877 51.7475 109.11 51.7475 109.306C51.7475 109.465 51.7708 109.577 51.8175 109.642C51.8641 109.698 51.9481 109.726 52.0695 109.726C52.1628 109.726 52.2841 109.707 52.4335 109.67L52.5735 109.782L52.4055 110.762C52.1068 110.958 51.7661 111.075 51.3835 111.112C51.1035 111.084 50.8701 110.986 50.6835 110.818C50.4968 110.641 50.3708 110.398 50.3055 110.09H50.2075C49.7408 110.585 49.2601 110.93 48.7655 111.126C48.0935 111.117 47.5661 110.939 47.1835 110.594C46.8008 110.249 46.6095 109.777 46.6095 109.18C46.6095 108.713 46.7261 108.349 46.9595 108.088C47.2021 107.817 47.5661 107.635 48.0515 107.542L50.1935 107.136V106.562C50.1935 105.955 49.8948 105.652 49.2975 105.652C49.0081 105.652 48.7001 105.717 48.3735 105.848C48.0561 105.979 47.6968 106.184 47.2955 106.464L47.1555 106.38L46.9455 105.148C47.3468 104.896 47.7761 104.705 48.2335 104.574C48.6908 104.434 49.1481 104.364 49.6055 104.364ZM48.6955 108.396C48.5461 108.433 48.4341 108.499 48.3595 108.592C48.2941 108.676 48.2615 108.807 48.2615 108.984C48.2615 109.227 48.3268 109.418 48.4575 109.558C48.5881 109.689 48.7701 109.754 49.0035 109.754C49.3675 109.754 49.7501 109.539 50.1515 109.11L50.1795 108.074L48.6955 108.396ZM57.2997 104.476C57.3837 104.476 57.5003 104.485 57.6497 104.504V106.226L57.4537 106.296C57.295 106.231 57.1223 106.198 56.9357 106.198C56.3943 106.198 55.9043 106.548 55.4657 107.248V108.13L55.5637 111H53.7017L53.8137 108.312L53.7297 104.616L55.4937 104.462L55.4797 105.736H55.5917C56.049 104.896 56.6183 104.476 57.2997 104.476ZM60.9941 104.364C61.7128 104.364 62.2728 104.527 62.6741 104.854C63.0848 105.171 63.2901 105.619 63.2901 106.198C63.2901 106.366 63.2621 106.898 63.2061 107.794C63.1968 108.055 63.1828 108.326 63.1641 108.606C63.1455 108.877 63.1361 109.11 63.1361 109.306C63.1361 109.465 63.1595 109.577 63.2061 109.642C63.2528 109.698 63.3368 109.726 63.4581 109.726C63.5515 109.726 63.6728 109.707 63.8221 109.67L63.9621 109.782L63.7941 110.762C63.4955 110.958 63.1548 111.075 62.7721 111.112C62.4921 111.084 62.2588 110.986 62.0721 110.818C61.8855 110.641 61.7595 110.398 61.6941 110.09H61.5961C61.1295 110.585 60.6488 110.93 60.1541 111.126C59.4821 111.117 58.9548 110.939 58.5721 110.594C58.1895 110.249 57.9981 109.777 57.9981 109.18C57.9981 108.713 58.1148 108.349 58.3481 108.088C58.5908 107.817 58.9548 107.635 59.4401 107.542L61.5821 107.136V106.562C61.5821 105.955 61.2835 105.652 60.6861 105.652C60.3968 105.652 60.0888 105.717 59.7621 105.848C59.4448 105.979 59.0855 106.184 58.6841 106.464L58.5441 106.38L58.3341 105.148C58.7355 104.896 59.1648 104.705 59.6221 104.574C60.0795 104.434 60.5368 104.364 60.9941 104.364ZM60.0841 108.396C59.9348 108.433 59.8228 108.499 59.7481 108.592C59.6828 108.676 59.6501 108.807 59.6501 108.984C59.6501 109.227 59.7155 109.418 59.8461 109.558C59.9768 109.689 60.1588 109.754 60.3921 109.754C60.7561 109.754 61.1388 109.539 61.5401 109.11L61.5681 108.074L60.0841 108.396ZM69.8535 104.364C70.5722 104.364 71.1322 104.527 71.5335 104.854C71.9442 105.171 72.1495 105.619 72.1495 106.198C72.1495 106.366 72.1215 106.898 72.0655 107.794C72.0562 108.055 72.0422 108.326 72.0235 108.606C72.0048 108.877 71.9955 109.11 71.9955 109.306C71.9955 109.465 72.0188 109.577 72.0655 109.642C72.1122 109.698 72.1962 109.726 72.3175 109.726C72.4108 109.726 72.5322 109.707 72.6815 109.67L72.8215 109.782L72.6535 110.762C72.3548 110.958 72.0142 111.075 71.6315 111.112C71.3515 111.084 71.1182 110.986 70.9315 110.818C70.7448 110.641 70.6188 110.398 70.5535 110.09H70.4555C69.9888 110.585 69.5082 110.93 69.0135 111.126C68.3415 111.117 67.8142 110.939 67.4315 110.594C67.0488 110.249 66.8575 109.777 66.8575 109.18C66.8575 108.713 66.9742 108.349 67.2075 108.088C67.4502 107.817 67.8142 107.635 68.2995 107.542L70.4415 107.136V106.562C70.4415 105.955 70.1428 105.652 69.5455 105.652C69.2562 105.652 68.9482 105.717 68.6215 105.848C68.3042 105.979 67.9448 106.184 67.5435 106.464L67.4035 106.38L67.1935 105.148C67.5948 104.896 68.0242 104.705 68.4815 104.574C68.9388 104.434 69.3962 104.364 69.8535 104.364ZM68.9435 108.396C68.7942 108.433 68.6822 108.499 68.6075 108.592C68.5422 108.676 68.5095 108.807 68.5095 108.984C68.5095 109.227 68.5748 109.418 68.7055 109.558C68.8362 109.689 69.0182 109.754 69.2515 109.754C69.6155 109.754 69.9982 109.539 70.3995 109.11L70.4275 108.074L68.9435 108.396ZM79.4217 104.378L79.5757 104.462L79.4637 108.13L79.5617 113.59H77.7137L77.7977 110.65V110.3H77.6857C77.3031 110.627 76.8831 110.893 76.4257 111.098C75.5204 111.098 74.8204 110.809 74.3257 110.23C73.8311 109.642 73.5837 108.839 73.5837 107.822C73.5837 106.711 73.8731 105.862 74.4517 105.274C75.0304 104.677 75.8051 104.378 76.7757 104.378C77.2797 104.378 77.8397 104.481 78.4557 104.686L79.4217 104.378ZM76.7197 105.638C75.7957 105.638 75.3337 106.254 75.3337 107.486C75.3337 108.186 75.4411 108.723 75.6557 109.096C75.8797 109.46 76.2017 109.642 76.6217 109.642C76.8177 109.642 77.0091 109.6 77.1957 109.516C77.3917 109.423 77.5924 109.273 77.7977 109.068L77.8117 108.326L77.7697 105.932C77.3964 105.736 77.0464 105.638 76.7197 105.638ZM87.5075 109.782L87.3395 110.762C86.9942 110.986 86.6395 111.103 86.2755 111.112C86.0048 111.065 85.7808 110.958 85.6035 110.79C85.4262 110.622 85.2908 110.379 85.1975 110.062H85.0715C84.5395 110.585 83.9888 110.925 83.4195 111.084C82.7102 111.084 82.1688 110.925 81.7955 110.608C81.4315 110.281 81.2542 109.815 81.2635 109.208L81.2915 107.556L81.2215 104.616L83.0275 104.462L82.9855 108.592C82.9762 108.919 83.0415 109.166 83.1815 109.334C83.3215 109.502 83.5315 109.586 83.8115 109.586C84.2222 109.586 84.6282 109.404 85.0295 109.04V104.616L86.8075 104.462L86.6815 109.306C86.6815 109.455 86.7048 109.563 86.7515 109.628C86.8075 109.693 86.8915 109.726 87.0035 109.726C87.1062 109.726 87.2322 109.707 87.3815 109.67L87.5075 109.782ZM88.732 108.312L88.662 104.616L90.496 104.462L90.412 108.13L90.496 111H88.634L88.732 108.312ZM89.614 101.298C89.9033 101.298 90.1273 101.382 90.286 101.55C90.454 101.718 90.538 101.951 90.538 102.25C90.538 102.567 90.4493 102.819 90.272 103.006C90.0946 103.193 89.852 103.286 89.544 103.286C89.236 103.286 88.998 103.202 88.83 103.034C88.6713 102.866 88.592 102.628 88.592 102.32C88.592 102.012 88.6806 101.765 88.858 101.578C89.0446 101.391 89.2966 101.298 89.614 101.298ZM94.4403 104.378C95.075 104.378 95.6723 104.485 96.2323 104.7L95.9803 106.072L95.7563 106.142C95.4857 105.965 95.215 105.829 94.9443 105.736C94.6737 105.643 94.4357 105.596 94.2303 105.596C94.0063 105.596 93.829 105.657 93.6983 105.778C93.5677 105.89 93.5023 106.03 93.5023 106.198C93.5023 106.394 93.5863 106.553 93.7543 106.674C93.9317 106.795 94.207 106.931 94.5803 107.08C94.9537 107.229 95.2617 107.374 95.5043 107.514C95.747 107.654 95.9523 107.85 96.1203 108.102C96.2977 108.345 96.3863 108.648 96.3863 109.012C96.3863 109.385 96.2883 109.735 96.0923 110.062C95.9057 110.379 95.6163 110.641 95.2243 110.846C94.8323 111.042 94.3517 111.14 93.7823 111.14C93.1103 111.14 92.415 111 91.6963 110.72L91.9063 109.264L92.0883 109.152C92.3777 109.395 92.6997 109.591 93.0543 109.74C93.409 109.88 93.7217 109.95 93.9923 109.95C94.2443 109.95 94.4403 109.889 94.5803 109.768C94.7203 109.637 94.7903 109.483 94.7903 109.306C94.7903 109.11 94.7017 108.951 94.5243 108.83C94.3563 108.709 94.0857 108.573 93.7123 108.424C93.3297 108.256 93.017 108.107 92.7743 107.976C92.5317 107.836 92.3217 107.64 92.1443 107.388C91.9763 107.136 91.8923 106.823 91.8923 106.45C91.8923 105.843 92.121 105.349 92.5783 104.966C93.0357 104.574 93.6563 104.378 94.4403 104.378ZM97.7554 108.312L97.6854 104.616L99.5194 104.462L99.4354 108.13L99.5194 111H97.6574L97.7554 108.312ZM98.6374 101.298C98.9267 101.298 99.1507 101.382 99.3094 101.55C99.4774 101.718 99.5614 101.951 99.5614 102.25C99.5614 102.567 99.4727 102.819 99.2954 103.006C99.1181 103.193 98.8754 103.286 98.5674 103.286C98.2594 103.286 98.0214 103.202 97.8534 103.034C97.6947 102.866 97.6154 102.628 97.6154 102.32C97.6154 102.012 97.7041 101.765 97.8814 101.578C98.0681 101.391 98.3201 101.298 98.6374 101.298ZM103.954 104.364C104.262 104.364 104.565 104.397 104.864 104.462C105.172 104.518 105.442 104.602 105.676 104.714L105.368 106.198L105.214 106.268C104.738 106.007 104.313 105.876 103.94 105.876C103.51 105.876 103.179 106.03 102.946 106.338C102.712 106.646 102.596 107.085 102.596 107.654C102.596 108.307 102.722 108.807 102.974 109.152C103.226 109.497 103.585 109.67 104.052 109.67C104.472 109.67 104.938 109.553 105.452 109.32L105.592 109.432L105.41 110.874C104.85 111.051 104.276 111.14 103.688 111.14C102.792 111.14 102.092 110.851 101.588 110.272C101.084 109.684 100.832 108.867 100.832 107.822C100.832 106.739 101.107 105.895 101.658 105.288C102.208 104.672 102.974 104.364 103.954 104.364ZM103.94 111.672L104.416 111.938C104.621 112.05 104.766 112.171 104.85 112.302C104.943 112.442 104.99 112.596 104.99 112.764C104.99 113.072 104.868 113.324 104.626 113.52C104.383 113.716 104.066 113.814 103.674 113.814C103.254 113.814 102.871 113.683 102.526 113.422L102.652 112.638L102.736 112.596C103.016 112.876 103.291 113.016 103.562 113.016C103.786 113.016 103.898 112.918 103.898 112.722C103.898 112.657 103.879 112.601 103.842 112.554C103.804 112.517 103.744 112.479 103.66 112.442L102.974 112.05L103.296 110.636H104.192L103.94 111.672ZM109.092 104.364C109.81 104.364 110.37 104.527 110.772 104.854C111.182 105.171 111.388 105.619 111.388 106.198C111.388 106.366 111.36 106.898 111.304 107.794C111.294 108.055 111.28 108.326 111.262 108.606C111.243 108.877 111.234 109.11 111.234 109.306C111.234 109.465 111.257 109.577 111.304 109.642C111.35 109.698 111.434 109.726 111.556 109.726C111.649 109.726 111.77 109.707 111.92 109.67L112.06 109.782L111.892 110.762C111.593 110.958 111.252 111.075 110.87 111.112C110.59 111.084 110.356 110.986 110.17 110.818C109.983 110.641 109.857 110.398 109.792 110.09H109.694C109.227 110.585 108.746 110.93 108.252 111.126C107.58 111.117 107.052 110.939 106.67 110.594C106.287 110.249 106.096 109.777 106.096 109.18C106.096 108.713 106.212 108.349 106.446 108.088C106.688 107.817 107.052 107.635 107.538 107.542L109.68 107.136V106.562C109.68 105.955 109.381 105.652 108.784 105.652C108.494 105.652 108.186 105.717 107.86 105.848C107.542 105.979 107.183 106.184 106.782 106.464L106.642 106.38L106.432 105.148C106.833 104.896 107.262 104.705 107.72 104.574C108.177 104.434 108.634 104.364 109.092 104.364ZM108.182 108.396C108.032 108.433 107.92 108.499 107.846 108.592C107.78 108.676 107.748 108.807 107.748 108.984C107.748 109.227 107.813 109.418 107.944 109.558C108.074 109.689 108.256 109.754 108.49 109.754C108.854 109.754 109.236 109.539 109.638 109.11L109.666 108.074L108.182 108.396ZM111.388 101.732V101.886L110.408 103.132L110.226 103.202C109.974 103.174 109.586 103.085 109.064 102.936C109.017 102.927 108.863 102.889 108.602 102.824C108.35 102.749 108.172 102.712 108.07 102.712C107.967 102.712 107.864 102.754 107.762 102.838C107.668 102.922 107.566 103.025 107.454 103.146C107.342 103.267 107.258 103.361 107.202 103.426H107.034L106.474 102.88V102.726L107.468 101.48L107.636 101.41C107.86 101.438 108.256 101.531 108.826 101.69C109.348 101.83 109.67 101.9 109.792 101.9C109.904 101.9 110.011 101.853 110.114 101.76C110.226 101.667 110.338 101.559 110.45 101.438C110.562 101.317 110.636 101.233 110.674 101.186H110.842L111.388 101.732ZM115.972 104.364C116.924 104.364 117.652 104.644 118.156 105.204C118.66 105.764 118.912 106.571 118.912 107.626C118.912 108.765 118.641 109.637 118.1 110.244C117.559 110.841 116.779 111.14 115.762 111.14C114.81 111.14 114.082 110.86 113.578 110.3C113.074 109.74 112.822 108.933 112.822 107.878C112.822 106.739 113.093 105.871 113.634 105.274C114.175 104.667 114.955 104.364 115.972 104.364ZM115.846 105.624C115.398 105.624 115.071 105.773 114.866 106.072C114.67 106.371 114.572 106.851 114.572 107.514C114.572 108.373 114.675 108.984 114.88 109.348C115.085 109.712 115.421 109.894 115.888 109.894C116.336 109.894 116.658 109.749 116.854 109.46C117.059 109.161 117.162 108.676 117.162 108.004C117.162 107.155 117.055 106.548 116.84 106.184C116.635 105.811 116.303 105.624 115.846 105.624ZM127.347 107.976L123.567 108.004C123.651 109.171 124.244 109.754 125.345 109.754C125.924 109.754 126.568 109.591 127.277 109.264L127.431 109.362L127.151 110.748C126.442 111.009 125.774 111.14 125.149 111.14C124.122 111.14 123.315 110.841 122.727 110.244C122.148 109.647 121.859 108.821 121.859 107.766C121.859 106.721 122.144 105.895 122.713 105.288C123.282 104.672 124.052 104.364 125.023 104.364C125.854 104.364 126.493 104.593 126.941 105.05C127.398 105.498 127.627 106.128 127.627 106.94C127.627 107.155 127.604 107.425 127.557 107.752L127.347 107.976ZM126.003 106.73C126.003 106.357 125.919 106.077 125.751 105.89C125.583 105.694 125.336 105.596 125.009 105.596C124.645 105.596 124.342 105.717 124.099 105.96C123.856 106.193 123.693 106.534 123.609 106.982L125.975 106.926L126.003 106.73ZM34.4707 120.364C35.1894 120.364 35.7494 120.527 36.1507 120.854C36.5614 121.171 36.7667 121.619 36.7667 122.198C36.7667 122.366 36.7387 122.898 36.6827 123.794C36.6734 124.055 36.6594 124.326 36.6407 124.606C36.622 124.877 36.6127 125.11 36.6127 125.306C36.6127 125.465 36.636 125.577 36.6827 125.642C36.7294 125.698 36.8134 125.726 36.9347 125.726C37.028 125.726 37.1494 125.707 37.2987 125.67L37.4387 125.782L37.2707 126.762C36.972 126.958 36.6314 127.075 36.2487 127.112C35.9687 127.084 35.7354 126.986 35.5487 126.818C35.362 126.641 35.236 126.398 35.1707 126.09H35.0727C34.606 126.585 34.1254 126.93 33.6307 127.126C32.9587 127.117 32.4314 126.939 32.0487 126.594C31.666 126.249 31.4747 125.777 31.4747 125.18C31.4747 124.713 31.5914 124.349 31.8247 124.088C32.0674 123.817 32.4314 123.635 32.9167 123.542L35.0587 123.136V122.562C35.0587 121.955 34.76 121.652 34.1627 121.652C33.8734 121.652 33.5654 121.717 33.2387 121.848C32.9214 121.979 32.562 122.184 32.1607 122.464L32.0207 122.38L31.8107 121.148C32.212 120.896 32.6414 120.705 33.0987 120.574C33.556 120.434 34.0134 120.364 34.4707 120.364ZM33.5607 124.396C33.4114 124.433 33.2994 124.499 33.2247 124.592C33.1594 124.676 33.1267 124.807 33.1267 124.984C33.1267 125.227 33.192 125.418 33.3227 125.558C33.4534 125.689 33.6354 125.754 33.8687 125.754C34.2327 125.754 34.6154 125.539 35.0167 125.11L35.0447 124.074L33.5607 124.396ZM42.0929 120.406C42.9049 120.406 43.5303 120.681 43.9689 121.232C44.4076 121.783 44.6269 122.562 44.6269 123.57C44.6269 124.709 44.3423 125.591 43.7729 126.216C43.2129 126.832 42.4196 127.14 41.3929 127.14C41.0943 127.14 40.7816 127.112 40.4549 127.056L40.4969 129.59H38.6489L38.7469 124.312L38.6629 120.616L40.4409 120.462L40.4269 121.414H40.5249C40.7863 121.162 41.0383 120.961 41.2809 120.812C41.5236 120.653 41.7943 120.518 42.0929 120.406ZM41.4069 125.922C41.8923 125.922 42.2609 125.749 42.5129 125.404C42.7649 125.059 42.8909 124.55 42.8909 123.878C42.8909 123.225 42.7836 122.735 42.5689 122.408C42.3636 122.072 42.0556 121.904 41.6449 121.904C41.2436 121.904 40.8376 122.105 40.4269 122.506L40.4129 124.13L40.4409 125.712C40.7769 125.852 41.0989 125.922 41.4069 125.922ZM49.411 120.476C49.495 120.476 49.6117 120.485 49.761 120.504V122.226L49.565 122.296C49.4063 122.231 49.2337 122.198 49.047 122.198C48.5057 122.198 48.0157 122.548 47.577 123.248V124.13L47.675 127H45.813L45.925 124.312L45.841 120.616L47.605 120.462L47.591 121.736H47.703C48.1603 120.896 48.7297 120.476 49.411 120.476ZM50.8062 124.312L50.7362 120.616L52.5702 120.462L52.4862 124.13L52.5702 127H50.7082L50.8062 124.312ZM51.6882 117.298C51.9775 117.298 52.2015 117.382 52.3602 117.55C52.5282 117.718 52.6122 117.951 52.6122 118.25C52.6122 118.567 52.5235 118.819 52.3462 119.006C52.1688 119.193 51.9262 119.286 51.6182 119.286C51.3102 119.286 51.0722 119.202 50.9042 119.034C50.7455 118.866 50.6662 118.628 50.6662 118.32C50.6662 118.012 50.7548 117.765 50.9322 117.578C51.1188 117.391 51.3708 117.298 51.6882 117.298ZM62.1286 127L62.2406 122.94C62.2406 122.249 61.9466 121.904 61.3586 121.904C60.9386 121.904 60.4999 122.091 60.0426 122.464L60.0006 124.144L60.0846 127H58.2226L58.3346 122.94C58.3439 122.604 58.2692 122.347 58.1106 122.17C57.9612 121.993 57.7419 121.904 57.4526 121.904C57.0419 121.904 56.5892 122.1 56.0946 122.492V124.13L56.1786 127H54.3306L54.4286 124.312L54.3586 120.616L56.1086 120.462V121.414H56.2066C56.7199 120.947 57.2846 120.611 57.9006 120.406C58.9459 120.406 59.6132 120.756 59.9026 121.456H59.9866C60.5186 120.961 61.1252 120.611 61.8066 120.406C62.5159 120.406 63.0526 120.569 63.4166 120.896C63.7899 121.213 63.9672 121.675 63.9486 122.282L63.9066 124.144L63.9906 127H62.1286ZM68.3255 120.364C69.2775 120.364 70.0055 120.644 70.5095 121.204C71.0135 121.764 71.2655 122.571 71.2655 123.626C71.2655 124.765 70.9949 125.637 70.4535 126.244C69.9122 126.841 69.1329 127.14 68.1155 127.14C67.1635 127.14 66.4355 126.86 65.9315 126.3C65.4275 125.74 65.1755 124.933 65.1755 123.878C65.1755 122.739 65.4462 121.871 65.9875 121.274C66.5289 120.667 67.3082 120.364 68.3255 120.364ZM68.1995 121.624C67.7515 121.624 67.4249 121.773 67.2195 122.072C67.0235 122.371 66.9255 122.851 66.9255 123.514C66.9255 124.373 67.0282 124.984 67.2335 125.348C67.4389 125.712 67.7749 125.894 68.2415 125.894C68.6895 125.894 69.0115 125.749 69.2075 125.46C69.4129 125.161 69.5155 124.676 69.5155 124.004C69.5155 123.155 69.4082 122.548 69.1935 122.184C68.9882 121.811 68.6569 121.624 68.1995 121.624ZM76.0575 120.476C76.1415 120.476 76.2581 120.485 76.4075 120.504V122.226L76.2115 122.296C76.0528 122.231 75.8801 122.198 75.6935 122.198C75.1521 122.198 74.6621 122.548 74.2235 123.248V124.13L74.3215 127H72.4595L72.5715 124.312L72.4875 120.616L74.2515 120.462L74.2375 121.736H74.3495C74.8068 120.896 75.3761 120.476 76.0575 120.476ZM79.7519 120.364C80.4706 120.364 81.0306 120.527 81.4319 120.854C81.8426 121.171 82.0479 121.619 82.0479 122.198C82.0479 122.366 82.0199 122.898 81.9639 123.794C81.9546 124.055 81.9406 124.326 81.9219 124.606C81.9033 124.877 81.8939 125.11 81.8939 125.306C81.8939 125.465 81.9173 125.577 81.9639 125.642C82.0106 125.698 82.0946 125.726 82.2159 125.726C82.3093 125.726 82.4306 125.707 82.5799 125.67L82.7199 125.782L82.5519 126.762C82.2533 126.958 81.9126 127.075 81.5299 127.112C81.2499 127.084 81.0166 126.986 80.8299 126.818C80.6433 126.641 80.5173 126.398 80.4519 126.09H80.3539C79.8873 126.585 79.4066 126.93 78.9119 127.126C78.2399 127.117 77.7126 126.939 77.3299 126.594C76.9473 126.249 76.7559 125.777 76.7559 125.18C76.7559 124.713 76.8726 124.349 77.1059 124.088C77.3486 123.817 77.7126 123.635 78.1979 123.542L80.3399 123.136V122.562C80.3399 121.955 80.0413 121.652 79.4439 121.652C79.1546 121.652 78.8466 121.717 78.5199 121.848C78.2026 121.979 77.8433 122.184 77.4419 122.464L77.3019 122.38L77.0919 121.148C77.4933 120.896 77.9226 120.705 78.3799 120.574C78.8373 120.434 79.2946 120.364 79.7519 120.364ZM78.8419 124.396C78.6926 124.433 78.5806 124.499 78.5059 124.592C78.4406 124.676 78.4079 124.807 78.4079 124.984C78.4079 125.227 78.4733 125.418 78.6039 125.558C78.7346 125.689 78.9166 125.754 79.1499 125.754C79.5139 125.754 79.8966 125.539 80.2979 125.11L80.3259 124.074L78.8419 124.396ZM91.6461 127L91.7581 122.94C91.7581 122.249 91.4641 121.904 90.8761 121.904C90.4561 121.904 90.0175 122.091 89.5601 122.464L89.5181 124.144L89.6021 127H87.7401L87.8521 122.94C87.8615 122.604 87.7868 122.347 87.6281 122.17C87.4788 121.993 87.2595 121.904 86.9701 121.904C86.5595 121.904 86.1068 122.1 85.6121 122.492V124.13L85.6961 127H83.8481L83.9461 124.312L83.8761 120.616L85.6261 120.462V121.414H85.7241C86.2375 120.947 86.8021 120.611 87.4181 120.406C88.4635 120.406 89.1308 120.756 89.4201 121.456H89.5041C90.0361 120.961 90.6428 120.611 91.3241 120.406C92.0335 120.406 92.5701 120.569 92.9341 120.896C93.3075 121.213 93.4848 121.675 93.4661 122.282L93.4241 124.144L93.5081 127H91.6461ZM100.181 123.976L96.4011 124.004C96.4851 125.171 97.0778 125.754 98.1791 125.754C98.7578 125.754 99.4018 125.591 100.111 125.264L100.265 125.362L99.9851 126.748C99.2758 127.009 98.6084 127.14 97.9831 127.14C96.9564 127.14 96.1491 126.841 95.5611 126.244C94.9824 125.647 94.6931 124.821 94.6931 123.766C94.6931 122.721 94.9778 121.895 95.5471 121.288C96.1164 120.672 96.8864 120.364 97.8571 120.364C98.6878 120.364 99.3271 120.593 99.7751 121.05C100.232 121.498 100.461 122.128 100.461 122.94C100.461 123.155 100.438 123.425 100.391 123.752L100.181 123.976ZM98.8371 122.73C98.8371 122.357 98.7531 122.077 98.5851 121.89C98.4171 121.694 98.1698 121.596 97.8431 121.596C97.4791 121.596 97.1758 121.717 96.9331 121.96C96.6904 122.193 96.5271 122.534 96.4431 122.982L98.8091 122.926L98.8371 122.73ZM105.749 122.94C105.758 122.613 105.683 122.361 105.525 122.184C105.375 121.997 105.156 121.904 104.867 121.904C104.447 121.904 103.999 122.105 103.523 122.506V124.13L103.607 127H101.745L101.843 124.312L101.773 120.616L103.537 120.462V121.414H103.635C104.148 120.947 104.708 120.611 105.315 120.406C106.024 120.406 106.565 120.569 106.939 120.896C107.312 121.213 107.489 121.675 107.471 122.282L107.429 124.144L107.513 127H105.637L105.749 122.94ZM111.787 125.628C112.085 125.628 112.398 125.549 112.725 125.39L112.879 125.53L112.697 126.636C112.221 126.879 111.735 127.028 111.241 127.084C109.981 126.953 109.351 126.337 109.351 125.236L109.421 124.074L109.407 121.666H108.539L108.469 121.568L108.567 120.546H109.393V119.468L111.087 118.922L111.213 119.034L111.171 120.546H112.837L112.893 120.644L112.809 121.666H111.143L111.059 124.802C111.059 125.101 111.115 125.315 111.227 125.446C111.339 125.567 111.525 125.628 111.787 125.628ZM116.492 120.364C117.444 120.364 118.172 120.644 118.676 121.204C119.18 121.764 119.432 122.571 119.432 123.626C119.432 124.765 119.161 125.637 118.62 126.244C118.078 126.841 117.299 127.14 116.282 127.14C115.33 127.14 114.602 126.86 114.098 126.3C113.594 125.74 113.342 124.933 113.342 123.878C113.342 122.739 113.612 121.871 114.154 121.274C114.695 120.667 115.474 120.364 116.492 120.364ZM116.366 121.624C115.918 121.624 115.591 121.773 115.386 122.072C115.19 122.371 115.092 122.851 115.092 123.514C115.092 124.373 115.194 124.984 115.4 125.348C115.605 125.712 115.941 125.894 116.408 125.894C116.856 125.894 117.178 125.749 117.374 125.46C117.579 125.161 117.682 124.676 117.682 124.004C117.682 123.155 117.574 122.548 117.36 122.184C117.154 121.811 116.823 121.624 116.366 121.624ZM128.259 124.13L128.301 125.306C128.301 125.465 128.319 125.577 128.357 125.642C128.403 125.698 128.483 125.726 128.595 125.726C128.697 125.726 128.823 125.707 128.973 125.67L129.099 125.782L128.945 126.762C128.627 126.958 128.282 127.075 127.909 127.112C127.619 127.084 127.377 126.986 127.181 126.818C126.985 126.65 126.849 126.421 126.775 126.132H126.663C126.205 126.552 125.739 126.874 125.263 127.098C124.348 127.098 123.639 126.809 123.135 126.23C122.631 125.642 122.379 124.83 122.379 123.794C122.379 122.693 122.668 121.848 123.247 121.26C123.825 120.672 124.628 120.378 125.655 120.378C125.925 120.378 126.224 120.406 126.551 120.462L126.523 117.312L128.371 117.172L128.259 124.13ZM125.529 121.638C124.595 121.638 124.129 122.231 124.129 123.416C124.129 124.153 124.241 124.709 124.465 125.082C124.689 125.455 125.015 125.642 125.445 125.642C125.855 125.642 126.233 125.451 126.579 125.068L126.607 124.298L126.565 121.89C126.201 121.722 125.855 121.638 125.529 121.638ZM135.236 123.976L131.456 124.004C131.54 125.171 132.132 125.754 133.234 125.754C133.812 125.754 134.456 125.591 135.166 125.264L135.32 125.362L135.04 126.748C134.33 127.009 133.663 127.14 133.038 127.14C132.011 127.14 131.204 126.841 130.616 126.244C130.037 125.647 129.748 124.821 129.748 123.766C129.748 122.721 130.032 121.895 130.602 121.288C131.171 120.672 131.941 120.364 132.912 120.364C133.742 120.364 134.382 120.593 134.83 121.05C135.287 121.498 135.516 122.128 135.516 122.94C135.516 123.155 135.492 123.425 135.446 123.752L135.236 123.976ZM133.892 122.73C133.892 122.357 133.808 122.077 133.64 121.89C133.472 121.694 133.224 121.596 132.898 121.596C132.534 121.596 132.23 121.717 131.988 121.96C131.745 122.193 131.582 122.534 131.498 122.982L133.864 122.926L133.892 122.73ZM49.7739 140.312L49.7039 136.616L51.5379 136.462L51.4539 140.13L51.5379 143H49.6759L49.7739 140.312ZM50.6559 133.298C50.9453 133.298 51.1693 133.382 51.3279 133.55C51.4959 133.718 51.5799 133.951 51.5799 134.25C51.5799 134.567 51.4913 134.819 51.3139 135.006C51.1366 135.193 50.8939 135.286 50.5859 135.286C50.2779 135.286 50.0399 135.202 49.8719 135.034C49.7133 134.866 49.6339 134.628 49.6339 134.32C49.6339 134.012 49.7226 133.765 49.8999 133.578C50.0866 133.391 50.3386 133.298 50.6559 133.298ZM57.3023 138.94C57.3117 138.613 57.237 138.361 57.0783 138.184C56.929 137.997 56.7097 137.904 56.4203 137.904C56.0003 137.904 55.5523 138.105 55.0763 138.506V140.13L55.1603 143H53.2983L53.3963 140.312L53.3263 136.616L55.0903 136.462V137.414H55.1883C55.7017 136.947 56.2617 136.611 56.8683 136.406C57.5777 136.406 58.119 136.569 58.4923 136.896C58.8657 137.213 59.043 137.675 59.0243 138.282L58.9823 140.144L59.0663 143H57.1903L57.3023 138.94ZM63.9598 133.144C64.3424 133.144 64.7484 133.186 65.1778 133.27L65.0518 134.656L64.9258 134.74C64.4871 134.553 64.1044 134.46 63.7778 134.46C63.1991 134.46 62.9051 134.791 62.8958 135.454L62.8818 136.546H64.4638L64.5198 136.644L64.4358 137.666H62.8538L62.8118 140.13L62.9098 143H61.0478L61.1598 140.298L61.1318 137.666H60.1518L60.0818 137.568L60.1798 136.546H61.1178L61.1038 135.776C61.1038 134.936 61.3511 134.287 61.8458 133.83C62.3498 133.373 63.0544 133.144 63.9598 133.144ZM67.7445 136.364C68.6965 136.364 69.4245 136.644 69.9285 137.204C70.4325 137.764 70.6845 138.571 70.6845 139.626C70.6845 140.765 70.4138 141.637 69.8725 142.244C69.3311 142.841 68.5518 143.14 67.5345 143.14C66.5825 143.14 65.8545 142.86 65.3505 142.3C64.8465 141.74 64.5945 140.933 64.5945 139.878C64.5945 138.739 64.8651 137.871 65.4065 137.274C65.9478 136.667 66.7271 136.364 67.7445 136.364ZM67.6185 137.624C67.1705 137.624 66.8438 137.773 66.6385 138.072C66.4425 138.371 66.3445 138.851 66.3445 139.514C66.3445 140.373 66.4471 140.984 66.6525 141.348C66.8578 141.712 67.1938 141.894 67.6605 141.894C68.1085 141.894 68.4305 141.749 68.6265 141.46C68.8318 141.161 68.9345 140.676 68.9345 140.004C68.9345 139.155 68.8271 138.548 68.6125 138.184C68.4071 137.811 68.0758 137.624 67.6185 137.624ZM75.4764 136.476C75.5604 136.476 75.6771 136.485 75.8264 136.504V138.226L75.6304 138.296C75.4717 138.231 75.2991 138.198 75.1124 138.198C74.5711 138.198 74.0811 138.548 73.6424 139.248V140.13L73.7404 143H71.8784L71.9904 140.312L71.9064 136.616L73.6704 136.462L73.6564 137.736H73.7684C74.2257 136.896 74.7951 136.476 75.4764 136.476ZM84.5436 143L84.6556 138.94C84.6556 138.249 84.3616 137.904 83.7736 137.904C83.3536 137.904 82.9149 138.091 82.4576 138.464L82.4156 140.144L82.4996 143H80.6376L80.7496 138.94C80.7589 138.604 80.6843 138.347 80.5256 138.17C80.3763 137.993 80.1569 137.904 79.8676 137.904C79.4569 137.904 79.0043 138.1 78.5096 138.492V140.13L78.5936 143H76.7456L76.8436 140.312L76.7736 136.616L78.5236 136.462V137.414H78.6216C79.1349 136.947 79.6996 136.611 80.3156 136.406C81.3609 136.406 82.0283 136.756 82.3176 137.456H82.4016C82.9336 136.961 83.5403 136.611 84.2216 136.406C84.9309 136.406 85.4676 136.569 85.8316 136.896C86.2049 137.213 86.3823 137.675 86.3636 138.282L86.3216 140.144L86.4056 143H84.5436ZM90.6006 136.364C91.3192 136.364 91.8792 136.527 92.2806 136.854C92.6912 137.171 92.8966 137.619 92.8966 138.198C92.8966 138.366 92.8686 138.898 92.8126 139.794C92.8032 140.055 92.7892 140.326 92.7706 140.606C92.7519 140.877 92.7426 141.11 92.7426 141.306C92.7426 141.465 92.7659 141.577 92.8126 141.642C92.8592 141.698 92.9432 141.726 93.0646 141.726C93.1579 141.726 93.2792 141.707 93.4286 141.67L93.5686 141.782L93.4006 142.762C93.1019 142.958 92.7612 143.075 92.3786 143.112C92.0986 143.084 91.8652 142.986 91.6786 142.818C91.4919 142.641 91.3659 142.398 91.3006 142.09H91.2026C90.7359 142.585 90.2552 142.93 89.7606 143.126C89.0886 143.117 88.5612 142.939 88.1786 142.594C87.7959 142.249 87.6046 141.777 87.6046 141.18C87.6046 140.713 87.7212 140.349 87.9546 140.088C88.1972 139.817 88.5612 139.635 89.0466 139.542L91.1886 139.136V138.562C91.1886 137.955 90.8899 137.652 90.2926 137.652C90.0032 137.652 89.6952 137.717 89.3686 137.848C89.0512 137.979 88.6919 138.184 88.2906 138.464L88.1506 138.38L87.9406 137.148C88.3419 136.896 88.7712 136.705 89.2286 136.574C89.6859 136.434 90.1432 136.364 90.6006 136.364ZM89.6906 140.396C89.5412 140.433 89.4292 140.499 89.3546 140.592C89.2892 140.676 89.2566 140.807 89.2566 140.984C89.2566 141.227 89.3219 141.418 89.4526 141.558C89.5832 141.689 89.7652 141.754 89.9986 141.754C90.3626 141.754 90.7452 141.539 91.1466 141.11L91.1746 140.074L89.6906 140.396ZM97.4528 136.364C97.7608 136.364 98.0641 136.397 98.3628 136.462C98.6708 136.518 98.9415 136.602 99.1748 136.714L98.8668 138.198L98.7128 138.268C98.2368 138.007 97.8121 137.876 97.4388 137.876C97.0095 137.876 96.6781 138.03 96.4448 138.338C96.2115 138.646 96.0948 139.085 96.0948 139.654C96.0948 140.307 96.2208 140.807 96.4728 141.152C96.7248 141.497 97.0841 141.67 97.5508 141.67C97.9708 141.67 98.4375 141.553 98.9508 141.32L99.0908 141.432L98.9088 142.874C98.3488 143.051 97.7748 143.14 97.1868 143.14C96.2908 143.14 95.5908 142.851 95.0868 142.272C94.5828 141.684 94.3308 140.867 94.3308 139.822C94.3308 138.739 94.6061 137.895 95.1568 137.288C95.7075 136.672 96.4728 136.364 97.4528 136.364ZM97.4388 143.672L97.9148 143.938C98.1201 144.05 98.2648 144.171 98.3488 144.302C98.4421 144.442 98.4888 144.596 98.4888 144.764C98.4888 145.072 98.3675 145.324 98.1248 145.52C97.8821 145.716 97.5648 145.814 97.1728 145.814C96.7528 145.814 96.3701 145.683 96.0248 145.422L96.1508 144.638L96.2348 144.596C96.5148 144.876 96.7901 145.016 97.0608 145.016C97.2848 145.016 97.3968 144.918 97.3968 144.722C97.3968 144.657 97.3781 144.601 97.3408 144.554C97.3035 144.517 97.2428 144.479 97.1588 144.442L96.4728 144.05L96.7948 142.636H97.6908L97.4388 143.672ZM102.868 136.364C103.82 136.364 104.548 136.644 105.052 137.204C105.556 137.764 105.808 138.571 105.808 139.626C105.808 140.765 105.537 141.637 104.996 142.244C104.454 142.841 103.675 143.14 102.658 143.14C101.706 143.14 100.978 142.86 100.474 142.3C99.9695 141.74 99.7175 140.933 99.7175 139.878C99.7175 138.739 99.9882 137.871 100.53 137.274C101.071 136.667 101.85 136.364 102.868 136.364ZM102.742 137.624C102.294 137.624 101.967 137.773 101.762 138.072C101.566 138.371 101.468 138.851 101.468 139.514C101.468 140.373 101.57 140.984 101.776 141.348C101.981 141.712 102.317 141.894 102.784 141.894C103.232 141.894 103.554 141.749 103.75 141.46C103.955 141.161 104.058 140.676 104.058 140.004C104.058 139.155 103.95 138.548 103.736 138.184C103.53 137.811 103.199 137.624 102.742 137.624ZM105.22 133.732V133.886L104.24 135.132L104.058 135.202C103.806 135.174 103.418 135.085 102.896 134.936C102.849 134.927 102.695 134.889 102.434 134.824C102.182 134.749 102.004 134.712 101.902 134.712C101.799 134.712 101.696 134.754 101.594 134.838C101.5 134.922 101.398 135.025 101.286 135.146C101.174 135.267 101.09 135.361 101.034 135.426H100.866L100.306 134.88V134.726L101.3 133.48L101.468 133.41C101.692 133.438 102.088 133.531 102.658 133.69C103.18 133.83 103.502 133.9 103.624 133.9C103.736 133.9 103.843 133.853 103.946 133.76C104.058 133.667 104.17 133.559 104.282 133.438C104.394 133.317 104.468 133.233 104.506 133.186H104.674L105.22 133.732ZM112.123 139.976L108.343 140.004C108.427 141.171 109.02 141.754 110.121 141.754C110.7 141.754 111.344 141.591 112.053 141.264L112.207 141.362L111.927 142.748C111.218 143.009 110.551 143.14 109.925 143.14C108.899 143.14 108.091 142.841 107.503 142.244C106.925 141.647 106.635 140.821 106.635 139.766C106.635 138.721 106.92 137.895 107.489 137.288C108.059 136.672 108.829 136.364 109.799 136.364C110.63 136.364 111.269 136.593 111.717 137.05C112.175 137.498 112.403 138.128 112.403 138.94C112.403 139.155 112.38 139.425 112.333 139.752L112.123 139.976ZM110.779 138.73C110.779 138.357 110.695 138.077 110.527 137.89C110.359 137.694 110.112 137.596 109.785 137.596C109.421 137.596 109.118 137.717 108.875 137.96C108.633 138.193 108.469 138.534 108.385 138.982L110.751 138.926L110.779 138.73ZM115.871 136.378C116.506 136.378 117.103 136.485 117.663 136.7L117.411 138.072L117.187 138.142C116.916 137.965 116.646 137.829 116.375 137.736C116.104 137.643 115.866 137.596 115.661 137.596C115.437 137.596 115.26 137.657 115.129 137.778C114.998 137.89 114.933 138.03 114.933 138.198C114.933 138.394 115.017 138.553 115.185 138.674C115.362 138.795 115.638 138.931 116.011 139.08C116.384 139.229 116.692 139.374 116.935 139.514C117.178 139.654 117.383 139.85 117.551 140.102C117.728 140.345 117.817 140.648 117.817 141.012C117.817 141.385 117.719 141.735 117.523 142.062C117.336 142.379 117.047 142.641 116.655 142.846C116.263 143.042 115.782 143.14 115.213 143.14C114.541 143.14 113.846 143 113.127 142.72L113.337 141.264L113.519 141.152C113.808 141.395 114.13 141.591 114.485 141.74C114.84 141.88 115.152 141.95 115.423 141.95C115.675 141.95 115.871 141.889 116.011 141.768C116.151 141.637 116.221 141.483 116.221 141.306C116.221 141.11 116.132 140.951 115.955 140.83C115.787 140.709 115.516 140.573 115.143 140.424C114.76 140.256 114.448 140.107 114.205 139.976C113.962 139.836 113.752 139.64 113.575 139.388C113.407 139.136 113.323 138.823 113.323 138.45C113.323 137.843 113.552 137.349 114.009 136.966C114.466 136.574 115.087 136.378 115.871 136.378Z" fill="white"/>
<defs>
<filter id="filter0_b_206:37246" x="3" y="67" width="161" height="97" filterUnits="userSpaceOnUse" color-interpolation-filters="sRGB">
<feFlood flood-opacity="0" result="BackgroundImageFix"/>
<feGaussianBlur in="BackgroundImage" stdDeviation="5"/>
<feComposite in2="SourceAlpha" operator="in" result="effect1_backgroundBlur_206:37246"/>
<feBlend mode="normal" in="SourceGraphic" in2="effect1_backgroundBlur_206:37246" result="shape"/>
</filter>
</defs>
</svg>
