<svg width="167" height="167" viewBox="0 0 167 167" fill="none" xmlns="http://www.w3.org/2000/svg">
<mask id="mask0_206:37318" style="mask-type:alpha" maskUnits="userSpaceOnUse" x="0" y="0" width="167" height="167">
<rect x="1" y="1" width="165" height="165" rx="8" fill="#5988D6" stroke="#EDE6FC" stroke-opacity="0.3"/>
</mask>
<g mask="url(#mask0_206:37318)">
<rect x="1" y="1" width="165" height="165" rx="8" fill="#7A83D9" stroke="#EDE6FC" stroke-opacity="0.3"/>
<g filter="url(#filter0_d_206:37318)">
<path d="M116.665 17.8749C117.794 19.5733 116.002 39.6071 114.795 41.8169C114.076 43.1351 101.962 50.6688 97.7251 51.0921C93.4887 51.5154 79.861 45.2617 77.926 43.5688C75.9911 41.8758 72.2897 17.5014 74.2015 15.595C76.1134 13.6885 90.6958 8.81802 93.6566 8.60575C96.6173 8.39349 114.993 15.3572 116.665 17.8749Z" fill="#CAD8D8"/>
<path d="M76.9383 15.1938C77.0321 17.3565 90.9771 23.6497 94.9664 23.9346C98.9557 24.2194 114.926 19.2195 114.705 16.8622C114.52 14.8883 97.8931 8.52377 93.9694 8.52377C91.1836 8.52377 76.8153 12.3239 76.9383 15.1938Z" fill="#DFEFEF"/>
<path d="M105.163 13.4778C100.822 13.5407 99.5955 17.7923 104.597 17.5166C109.598 17.2408 109.504 13.4171 105.163 13.4778Z" fill="#EDF9F9"/>
<path d="M99.4607 18.7938C97.3265 18.9544 97.2743 21.6073 99.8685 21.3592C102.463 21.1111 102.547 18.5615 99.4607 18.7938Z" fill="#EDF9F9"/>
<path d="M92.2736 9.67406C81.3895 9.67406 78.2159 17.9459 90.6192 18.7233C104.837 19.6119 108.121 9.67406 92.2736 9.67406Z" fill="#EDF9F9"/>
<path d="M98.7841 25.193C97.0835 25.8167 96.448 29.4419 99.5703 29.5242C102.693 29.6064 104.026 23.2695 98.7841 25.193Z" fill="#B2C1C0"/>
<path d="M99.3952 46.9328C98.1362 46.0218 96.507 48.6078 97.968 49.6527C99.4289 50.6977 102.591 49.2449 99.3952 46.9328Z" fill="#B2C1C0"/>
<path d="M96.6981 30.3073C95.5184 29.7701 94.6599 32.9456 96.2551 32.767C97.8503 32.5885 98.1163 30.9532 96.6981 30.3073Z" fill="#B2C1C0"/>
<path d="M76.4888 18.392C73.5378 18.3422 73.1925 30.1637 79.6351 29.9715C86.0777 29.7792 85.3289 18.542 76.4888 18.392Z" fill="#DFEFEF"/>
<path d="M88.4384 25.4726C84.5891 24.5741 83.5263 30.3422 87.6865 31.3055C91.8467 32.2687 92.387 26.3949 88.4384 25.4726Z" fill="#DFEFEF"/>
<path d="M43.6601 36.4544C42.5317 38.1529 44.3236 58.1867 45.5298 60.3965C46.2495 61.7147 58.364 69.2481 62.6004 69.6717C66.8369 70.0953 80.4643 63.8413 82.3995 62.148C84.3348 60.4548 88.0356 36.0809 86.1237 34.1745C84.2118 32.2681 69.6294 27.3976 66.669 27.1853C63.7085 26.9731 45.3327 33.9367 43.6601 36.4544Z" fill="#CAD8D8"/>
<path d="M83.3871 33.7734C83.2933 35.9361 69.3486 42.2293 65.359 42.5141C61.3695 42.799 45.3996 37.7991 45.6207 35.4417C45.8056 33.4679 62.4326 27.1033 66.3563 27.1033C69.1418 27.1033 83.512 30.9022 83.3871 33.7734Z" fill="#DFEFEF"/>
<path d="M55.1637 32.0583C59.5044 32.1211 60.7309 36.3728 55.7298 36.097C50.7287 35.8213 50.8213 31.9954 55.1637 32.0583Z" fill="#EDF9F9"/>
<path d="M60.8642 37.3733C62.9984 37.534 63.0506 40.1868 60.4567 39.9387C57.8628 39.6906 57.7783 37.141 60.8642 37.3733Z" fill="#EDF9F9"/>
<path d="M68.0515 28.2536C78.9359 28.2536 82.1095 36.5255 69.7059 37.3029C55.4879 38.1921 52.2038 28.2536 68.0515 28.2536Z" fill="#EDF9F9"/>
<path d="M61.5407 43.7725C63.2412 44.3962 63.8768 48.0214 60.7545 48.1037C57.6322 48.186 56.2997 41.8488 61.5407 43.7725Z" fill="#B2C1C0"/>
<path d="M60.9303 65.5123C62.189 64.6013 63.8182 67.1874 62.3576 68.2323C60.8969 69.2772 57.7345 67.8245 60.9303 65.5123Z" fill="#B2C1C0"/>
<path d="M63.6273 48.8869C64.8073 48.3494 65.6655 51.5248 64.0703 51.3451C62.4752 51.1653 62.2088 49.5328 63.6273 48.8869Z" fill="#B2C1C0"/>
<path d="M83.8365 36.9716C86.7872 36.9215 87.1328 48.7433 80.6899 48.551C74.247 48.3588 74.9964 37.1216 83.8365 36.9716Z" fill="#DFEFEF"/>
<path d="M71.8872 44.0525C75.7353 43.1537 76.799 48.9218 72.6379 49.885C68.4767 50.8483 67.9383 44.9744 71.8872 44.0525Z" fill="#DFEFEF"/>
<path d="M122.878 45.2593C123.832 46.6944 122.318 63.6214 121.299 65.4887C120.692 66.6022 110.455 72.9674 106.875 73.3254C103.295 73.6834 91.7827 68.4002 90.1463 66.9684C88.5098 65.5366 85.3841 44.9438 86.9994 43.3331C88.6146 41.7225 100.936 37.6072 103.437 37.4277C105.939 37.2482 121.465 43.1321 122.878 45.2593Z" fill="#CAD8D8"/>
<path d="M89.312 42.9942C89.3912 44.8214 101.173 50.1386 104.544 50.3794C107.915 50.6202 121.408 46.3953 121.222 44.4035C121.065 42.7367 107.017 37.3585 103.702 37.3585C101.348 37.3585 89.2066 40.5682 89.312 42.9942Z" fill="#DFEFEF"/>
<path d="M104.029 40.073C100.361 40.1261 99.3247 43.717 103.551 43.484C107.776 43.2511 107.696 40.0198 104.029 40.073Z" fill="#EDF9F9"/>
<path d="M99.2107 44.5636C97.4075 44.6996 97.3629 46.941 99.5554 46.7312C101.748 46.5213 101.818 44.3674 99.2107 44.5636Z" fill="#EDF9F9"/>
<path d="M115.976 57.0868C114.54 57.614 114.002 60.6771 116.64 60.7463C119.278 60.8155 120.404 55.4616 115.976 57.0868Z" fill="#B2C1C0"/>
<path d="M108.286 69.8111C107.223 69.0416 105.846 71.2262 107.08 72.1092C108.314 72.9923 110.986 71.7646 108.286 69.8111Z" fill="#B2C1C0"/>
<path d="M92.4469 60.4688C90.8679 60.442 90.6817 66.7726 94.132 66.6699C97.5822 66.5673 97.1811 60.5489 92.4469 60.4688Z" fill="#DFEFEF"/>
<path d="M98.8462 58.0582C96.7855 57.5769 96.2158 60.6658 98.4441 61.1818C100.672 61.6977 100.961 58.552 98.8462 58.0582Z" fill="#DFEFEF"/>
</g>
</g>
<g filter="url(#filter1_b_206:37318)">
<rect x="13" y="77" width="141" height="77" rx="10" fill="black" fill-opacity="0.8"/>
</g>
<path d="M52.1061 93.144L52.1621 96H50.2721L50.3561 93.312L50.3421 92.262L48.3121 92.248L46.4781 92.276L46.4641 93.144L46.5341 96H44.6441L44.7421 93.312L44.6441 86.984H46.5621L46.5061 90.708L48.4381 90.736L50.3281 90.708L50.2721 86.984H52.2041L52.1061 93.144ZM54.2241 93.312L54.1541 89.616L55.9881 89.462L55.9041 93.13L55.9881 96H54.1261L54.2241 93.312ZM55.1061 86.298C55.3955 86.298 55.6195 86.382 55.7781 86.55C55.9461 86.718 56.0301 86.9513 56.0301 87.25C56.0301 87.5673 55.9415 87.8193 55.7641 88.006C55.5868 88.1927 55.3441 88.286 55.0361 88.286C54.7281 88.286 54.4901 88.202 54.3221 88.034C54.1635 87.866 54.0841 87.628 54.0841 87.32C54.0841 87.012 54.1728 86.7647 54.3501 86.578C54.5368 86.3913 54.7888 86.298 55.1061 86.298ZM61.1378 89.406C61.9498 89.406 62.5752 89.6813 63.0138 90.232C63.4525 90.7827 63.6718 91.562 63.6718 92.57C63.6718 93.7087 63.3872 94.5907 62.8178 95.216C62.2578 95.832 61.4645 96.14 60.4378 96.14C60.1392 96.14 59.8265 96.112 59.4998 96.056L59.5418 98.59H57.6938L57.7918 93.312L57.7078 89.616L59.4858 89.462L59.4718 90.414H59.5698C59.8312 90.162 60.0832 89.9613 60.3258 89.812C60.5685 89.6533 60.8392 89.518 61.1378 89.406ZM60.4518 94.922C60.9372 94.922 61.3058 94.7493 61.5578 94.404C61.8098 94.0587 61.9358 93.55 61.9358 92.878C61.9358 92.2247 61.8285 91.7347 61.6138 91.408C61.4085 91.072 61.1005 90.904 60.6898 90.904C60.2885 90.904 59.8825 91.1047 59.4718 91.506L59.4578 93.13L59.4858 94.712C59.8218 94.852 60.1438 94.922 60.4518 94.922ZM69.9799 92.976L66.1999 93.004C66.2839 94.1707 66.8766 94.754 67.9779 94.754C68.5566 94.754 69.2006 94.5907 69.9099 94.264L70.0639 94.362L69.7839 95.748C69.0746 96.0093 68.4073 96.14 67.7819 96.14C66.7553 96.14 65.9479 95.8413 65.3599 95.244C64.7813 94.6467 64.4919 93.8207 64.4919 92.766C64.4919 91.7207 64.7766 90.8947 65.3459 90.288C65.9153 89.672 66.6853 89.364 67.6559 89.364C68.4866 89.364 69.1259 89.5927 69.5739 90.05C70.0313 90.498 70.2599 91.128 70.2599 91.94C70.2599 92.1547 70.2366 92.4253 70.1899 92.752L69.9799 92.976ZM68.6359 91.73C68.6359 91.3567 68.5519 91.0767 68.3839 90.89C68.2159 90.694 67.9686 90.596 67.6419 90.596C67.2779 90.596 66.9746 90.7173 66.7319 90.96C66.4893 91.1933 66.3259 91.534 66.2419 91.982L68.6079 91.926L68.6359 91.73ZM75.1415 89.476C75.2255 89.476 75.3421 89.4853 75.4915 89.504V91.226L75.2955 91.296C75.1368 91.2307 74.9641 91.198 74.7775 91.198C74.2361 91.198 73.7461 91.548 73.3075 92.248V93.13L73.4055 96H71.5435L71.6555 93.312L71.5715 89.616L73.3355 89.462L73.3215 90.736H73.4335C73.8908 89.896 74.4601 89.476 75.1415 89.476ZM82.614 90.372C82.362 90.4373 82.0026 90.5073 81.536 90.582L81.508 90.638C81.648 90.918 81.718 91.2307 81.718 91.576C81.718 92.276 81.4613 92.836 80.948 93.256C80.444 93.6667 79.758 93.872 78.89 93.872C78.6286 93.872 78.358 93.8487 78.078 93.802C77.994 93.886 77.938 93.9513 77.91 93.998C77.882 94.0447 77.868 94.1007 77.868 94.166C77.868 94.334 77.98 94.4507 78.204 94.516C78.428 94.5813 78.7826 94.6467 79.268 94.712C79.8186 94.7773 80.276 94.8567 80.64 94.95C81.0133 95.0433 81.3306 95.2067 81.592 95.44C81.8626 95.6733 81.998 96.0047 81.998 96.434C81.998 96.8727 81.858 97.2647 81.578 97.61C81.3073 97.9647 80.9293 98.24 80.444 98.436C79.9586 98.632 79.408 98.73 78.792 98.73C77.9426 98.73 77.2893 98.5573 76.832 98.212C76.3746 97.8667 76.146 97.4093 76.146 96.84C76.4353 96.4387 76.8226 96.0887 77.308 95.79V95.72C76.9906 95.608 76.7433 95.454 76.566 95.258C76.3886 95.0527 76.3 94.782 76.3 94.446C76.552 94.138 76.8693 93.8533 77.252 93.592V93.522C76.916 93.3353 76.6593 93.0927 76.482 92.794C76.314 92.486 76.23 92.1267 76.23 91.716C76.23 90.988 76.482 90.4187 76.986 90.008C77.49 89.5973 78.176 89.392 79.044 89.392C79.548 89.392 80.0053 89.476 80.416 89.644C81.088 89.5227 81.774 89.336 82.474 89.084L82.614 89.21V90.372ZM78.946 92.752C79.3286 92.752 79.618 92.654 79.814 92.458C80.01 92.262 80.108 91.9773 80.108 91.604C80.108 90.8947 79.744 90.54 79.016 90.54C78.232 90.54 77.84 90.8993 77.84 91.618C77.84 91.9913 77.9333 92.276 78.12 92.472C78.3066 92.6587 78.582 92.752 78.946 92.752ZM80.43 96.77C80.43 96.518 80.2946 96.3453 80.024 96.252C79.7626 96.1587 79.3566 96.0793 78.806 96.014L78.33 95.944C78.106 96.0933 77.938 96.238 77.826 96.378C77.714 96.518 77.658 96.6673 77.658 96.826C77.658 97.0687 77.77 97.2647 77.994 97.414C78.218 97.5633 78.5446 97.638 78.974 97.638C79.4126 97.638 79.7626 97.5587 80.024 97.4C80.2946 97.2507 80.43 97.0407 80.43 96.77ZM85.176 93.13L85.274 96H83.412L83.51 93.298L83.426 86.312L85.288 86.172L85.176 93.13ZM87.1597 93.312L87.0897 89.616L88.9237 89.462L88.8397 93.13L88.9237 96H87.0617L87.1597 93.312ZM88.0417 86.298C88.331 86.298 88.555 86.382 88.7137 86.55C88.8817 86.718 88.9657 86.9513 88.9657 87.25C88.9657 87.5673 88.877 87.8193 88.6997 88.006C88.5224 88.1927 88.2797 88.286 87.9717 88.286C87.6637 88.286 87.4257 88.202 87.2577 88.034C87.099 87.866 87.0197 87.628 87.0197 87.32C87.0197 87.012 87.1084 86.7647 87.2857 86.578C87.4724 86.3913 87.7244 86.298 88.0417 86.298ZM93.3581 89.364C93.6661 89.364 93.9694 89.3967 94.2681 89.462C94.5761 89.518 94.8467 89.602 95.0801 89.714L94.7721 91.198L94.6181 91.268C94.1421 91.0067 93.7174 90.876 93.3441 90.876C92.9147 90.876 92.5834 91.03 92.3501 91.338C92.1167 91.646 92.0001 92.0847 92.0001 92.654C92.0001 93.3073 92.1261 93.8067 92.3781 94.152C92.6301 94.4973 92.9894 94.67 93.4561 94.67C93.8761 94.67 94.3427 94.5533 94.8561 94.32L94.9961 94.432L94.8141 95.874C94.2541 96.0513 93.6801 96.14 93.0921 96.14C92.1961 96.14 91.4961 95.8507 90.9921 95.272C90.4881 94.684 90.2361 93.8673 90.2361 92.822C90.2361 91.7393 90.5114 90.8947 91.0621 90.288C91.6127 89.672 92.3781 89.364 93.3581 89.364ZM101.111 92.976L97.3308 93.004C97.4148 94.1707 98.0075 94.754 99.1088 94.754C99.6875 94.754 100.331 94.5907 101.041 94.264L101.195 94.362L100.915 95.748C100.205 96.0093 99.5381 96.14 98.9128 96.14C97.8861 96.14 97.0788 95.8413 96.4908 95.244C95.9121 94.6467 95.6228 93.8207 95.6228 92.766C95.6228 91.7207 95.9075 90.8947 96.4768 90.288C97.0461 89.672 97.8161 89.364 98.7868 89.364C99.6175 89.364 100.257 89.5927 100.705 90.05C101.162 90.498 101.391 91.128 101.391 91.94C101.391 92.1547 101.367 92.4253 101.321 92.752L101.111 92.976ZM99.7668 91.73C99.7668 91.3567 99.6828 91.0767 99.5148 90.89C99.3468 90.694 99.0995 90.596 98.7728 90.596C98.4088 90.596 98.1055 90.7173 97.8628 90.96C97.6201 91.1933 97.4568 91.534 97.3728 91.982L99.7388 91.926L99.7668 91.73ZM110.472 96L110.584 91.94C110.584 91.2493 110.29 90.904 109.702 90.904C109.282 90.904 108.844 91.0907 108.386 91.464L108.344 93.144L108.428 96H106.566L106.678 91.94C106.688 91.604 106.613 91.3473 106.454 91.17C106.305 90.9927 106.086 90.904 105.796 90.904C105.386 90.904 104.933 91.1 104.438 91.492V93.13L104.522 96H102.674L102.772 93.312L102.702 89.616L104.452 89.462V90.414H104.55C105.064 89.9473 105.628 89.6113 106.244 89.406C107.29 89.406 107.957 89.756 108.246 90.456H108.33C108.862 89.9613 109.469 89.6113 110.15 89.406C110.86 89.406 111.396 89.5693 111.76 89.896C112.134 90.2133 112.311 90.6753 112.292 91.282L112.25 93.144L112.334 96H110.472ZM114.093 93.312L114.023 89.616L115.857 89.462L115.773 93.13L115.857 96H113.995L114.093 93.312ZM114.975 86.298C115.265 86.298 115.489 86.382 115.647 86.55C115.815 86.718 115.899 86.9513 115.899 87.25C115.899 87.5673 115.811 87.8193 115.633 88.006C115.456 88.1927 115.213 88.286 114.905 88.286C114.597 88.286 114.359 88.202 114.191 88.034C114.033 87.866 113.953 87.628 113.953 87.32C113.953 87.012 114.042 86.7647 114.219 86.578C114.406 86.3913 114.658 86.298 114.975 86.298ZM120.18 89.364C120.898 89.364 121.458 89.5273 121.86 89.854C122.27 90.1713 122.476 90.6193 122.476 91.198C122.476 91.366 122.448 91.898 122.392 92.794C122.382 93.0553 122.368 93.326 122.35 93.606C122.331 93.8767 122.322 94.11 122.322 94.306C122.322 94.4647 122.345 94.5767 122.392 94.642C122.438 94.698 122.522 94.726 122.644 94.726C122.737 94.726 122.858 94.7073 123.008 94.67L123.148 94.782L122.98 95.762C122.681 95.958 122.34 96.0747 121.958 96.112C121.678 96.084 121.444 95.986 121.258 95.818C121.071 95.6407 120.945 95.398 120.88 95.09H120.782C120.315 95.5847 119.834 95.93 119.34 96.126C118.668 96.1167 118.14 95.9393 117.758 95.594C117.375 95.2487 117.184 94.7773 117.184 94.18C117.184 93.7133 117.3 93.3493 117.534 93.088C117.776 92.8173 118.14 92.6353 118.626 92.542L120.768 92.136V91.562C120.768 90.9553 120.469 90.652 119.872 90.652C119.582 90.652 119.274 90.7173 118.948 90.848C118.63 90.9787 118.271 91.184 117.87 91.464L117.73 91.38L117.52 90.148C117.921 89.896 118.35 89.7047 118.808 89.574C119.265 89.434 119.722 89.364 120.18 89.364ZM119.27 93.396C119.12 93.4333 119.008 93.4987 118.934 93.592C118.868 93.676 118.836 93.8067 118.836 93.984C118.836 94.2267 118.901 94.418 119.032 94.558C119.162 94.6887 119.344 94.754 119.578 94.754C119.942 94.754 120.324 94.5393 120.726 94.11L120.754 93.074L119.27 93.396ZM32.1844 105.476C32.2684 105.476 32.3851 105.485 32.5344 105.504V107.226L32.3384 107.296C32.1798 107.231 32.0071 107.198 31.8204 107.198C31.2791 107.198 30.7891 107.548 30.3504 108.248V109.13L30.4484 112H28.5864L28.6984 109.312L28.6144 105.616L30.3784 105.462L30.3644 106.736H30.4764C30.9338 105.896 31.5031 105.476 32.1844 105.476ZM38.4936 108.976L34.7136 109.004C34.7976 110.171 35.3903 110.754 36.4916 110.754C37.0703 110.754 37.7143 110.591 38.4236 110.264L38.5776 110.362L38.2976 111.748C37.5883 112.009 36.9209 112.14 36.2956 112.14C35.2689 112.14 34.4616 111.841 33.8736 111.244C33.2949 110.647 33.0056 109.821 33.0056 108.766C33.0056 107.721 33.2903 106.895 33.8596 106.288C34.4289 105.672 35.1989 105.364 36.1696 105.364C37.0003 105.364 37.6396 105.593 38.0876 106.05C38.5449 106.498 38.7736 107.128 38.7736 107.94C38.7736 108.155 38.7503 108.425 38.7036 108.752L38.4936 108.976ZM37.1496 107.73C37.1496 107.357 37.0656 107.077 36.8976 106.89C36.7296 106.694 36.4823 106.596 36.1556 106.596C35.7916 106.596 35.4883 106.717 35.2456 106.96C35.0029 107.193 34.8396 107.534 34.7556 107.982L37.1216 107.926L37.1496 107.73ZM43.5011 105.406C44.3131 105.406 44.9385 105.681 45.3771 106.232C45.8158 106.783 46.0351 107.562 46.0351 108.57C46.0351 109.709 45.7505 110.591 45.1811 111.216C44.6211 111.832 43.8278 112.14 42.8011 112.14C42.5025 112.14 42.1898 112.112 41.8631 112.056L41.9051 114.59H40.0571L40.1551 109.312L40.0711 105.616L41.8491 105.462L41.8351 106.414H41.9331C42.1945 106.162 42.4465 105.961 42.6891 105.812C42.9318 105.653 43.2025 105.518 43.5011 105.406ZM42.8151 110.922C43.3005 110.922 43.6691 110.749 43.9211 110.404C44.1731 110.059 44.2991 109.55 44.2991 108.878C44.2991 108.225 44.1918 107.735 43.9771 107.408C43.7718 107.072 43.4638 106.904 43.0531 106.904C42.6518 106.904 42.2458 107.105 41.8351 107.506L41.8211 109.13L41.8491 110.712C42.1851 110.852 42.5071 110.922 42.8151 110.922ZM50.8192 105.476C50.9032 105.476 51.0199 105.485 51.1692 105.504V107.226L50.9732 107.296C50.8145 107.231 50.6419 107.198 50.4552 107.198C49.9139 107.198 49.4239 107.548 48.9852 108.248V109.13L49.0832 112H47.2212L47.3332 109.312L47.2492 105.616L49.0132 105.462L48.9992 106.736H49.1112C49.5685 105.896 50.1379 105.476 50.8192 105.476ZM57.1284 108.976L53.3484 109.004C53.4324 110.171 54.025 110.754 55.1264 110.754C55.705 110.754 56.349 110.591 57.0584 110.264L57.2124 110.362L56.9324 111.748C56.223 112.009 55.5557 112.14 54.9304 112.14C53.9037 112.14 53.0964 111.841 52.5084 111.244C51.9297 110.647 51.6404 109.821 51.6404 108.766C51.6404 107.721 51.925 106.895 52.4944 106.288C53.0637 105.672 53.8337 105.364 54.8044 105.364C55.635 105.364 56.2744 105.593 56.7224 106.05C57.1797 106.498 57.4084 107.128 57.4084 107.94C57.4084 108.155 57.385 108.425 57.3384 108.752L57.1284 108.976ZM55.7844 107.73C55.7844 107.357 55.7004 107.077 55.5324 106.89C55.3644 106.694 55.117 106.596 54.7904 106.596C54.4264 106.596 54.123 106.717 53.8804 106.96C53.6377 107.193 53.4744 107.534 53.3904 107.982L55.7564 107.926L55.7844 107.73ZM60.8759 105.378C61.5106 105.378 62.1079 105.485 62.6679 105.7L62.4159 107.072L62.1919 107.142C61.9212 106.965 61.6506 106.829 61.3799 106.736C61.1092 106.643 60.8712 106.596 60.6659 106.596C60.4419 106.596 60.2646 106.657 60.1339 106.778C60.0032 106.89 59.9379 107.03 59.9379 107.198C59.9379 107.394 60.0219 107.553 60.1899 107.674C60.3672 107.795 60.6426 107.931 61.0159 108.08C61.3892 108.229 61.6972 108.374 61.9399 108.514C62.1826 108.654 62.3879 108.85 62.5559 109.102C62.7332 109.345 62.8219 109.648 62.8219 110.012C62.8219 110.385 62.7239 110.735 62.5279 111.062C62.3412 111.379 62.0519 111.641 61.6599 111.846C61.2679 112.042 60.7872 112.14 60.2179 112.14C59.5459 112.14 58.8506 112 58.1319 111.72L58.3419 110.264L58.5239 110.152C58.8132 110.395 59.1352 110.591 59.4899 110.74C59.8446 110.88 60.1572 110.95 60.4279 110.95C60.6799 110.95 60.8759 110.889 61.0159 110.768C61.1559 110.637 61.2259 110.483 61.2259 110.306C61.2259 110.11 61.1372 109.951 60.9599 109.83C60.7919 109.709 60.5212 109.573 60.1479 109.424C59.7652 109.256 59.4526 109.107 59.2099 108.976C58.9672 108.836 58.7572 108.64 58.5799 108.388C58.4119 108.136 58.3279 107.823 58.3279 107.45C58.3279 106.843 58.5566 106.349 59.0139 105.966C59.4712 105.574 60.0919 105.378 60.8759 105.378ZM69.1049 108.976L65.3249 109.004C65.4089 110.171 66.0016 110.754 67.1029 110.754C67.6816 110.754 68.3256 110.591 69.0349 110.264L69.1889 110.362L68.9089 111.748C68.1996 112.009 67.5323 112.14 66.9069 112.14C65.8803 112.14 65.0729 111.841 64.4849 111.244C63.9063 110.647 63.6169 109.821 63.6169 108.766C63.6169 107.721 63.9016 106.895 64.4709 106.288C65.0403 105.672 65.8103 105.364 66.7809 105.364C67.6116 105.364 68.2509 105.593 68.6989 106.05C69.1563 106.498 69.3849 107.128 69.3849 107.94C69.3849 108.155 69.3616 108.425 69.3149 108.752L69.1049 108.976ZM67.7609 107.73C67.7609 107.357 67.6769 107.077 67.5089 106.89C67.3409 106.694 67.0936 106.596 66.7669 106.596C66.4029 106.596 66.0996 106.717 65.8569 106.96C65.6143 107.193 65.4509 107.534 65.3669 107.982L67.7329 107.926L67.7609 107.73ZM74.6725 107.94C74.6818 107.613 74.6071 107.361 74.4485 107.184C74.2991 106.997 74.0798 106.904 73.7905 106.904C73.3705 106.904 72.9225 107.105 72.4465 107.506V109.13L72.5305 112H70.6685L70.7665 109.312L70.6965 105.616L72.4605 105.462V106.414H72.5585C73.0718 105.947 73.6318 105.611 74.2385 105.406C74.9478 105.406 75.4891 105.569 75.8625 105.896C76.2358 106.213 76.4131 106.675 76.3945 107.282L76.3525 109.144L76.4365 112H74.5605L74.6725 107.94ZM80.7106 110.628C81.0093 110.628 81.3219 110.549 81.6486 110.39L81.8026 110.53L81.6206 111.636C81.1446 111.879 80.6593 112.028 80.1646 112.084C78.9046 111.953 78.2746 111.337 78.2746 110.236L78.3446 109.074L78.3306 106.666H77.4626L77.3926 106.568L77.4906 105.546H78.3166V104.468L80.0106 103.922L80.1366 104.034L80.0946 105.546H81.7606L81.8166 105.644L81.7326 106.666H80.0666L79.9826 109.802C79.9826 110.101 80.0386 110.315 80.1506 110.446C80.2626 110.567 80.4493 110.628 80.7106 110.628ZM85.3711 105.364C86.0897 105.364 86.6497 105.527 87.0511 105.854C87.4617 106.171 87.6671 106.619 87.6671 107.198C87.6671 107.366 87.6391 107.898 87.5831 108.794C87.5737 109.055 87.5597 109.326 87.5411 109.606C87.5224 109.877 87.5131 110.11 87.5131 110.306C87.5131 110.465 87.5364 110.577 87.5831 110.642C87.6297 110.698 87.7137 110.726 87.8351 110.726C87.9284 110.726 88.0497 110.707 88.1991 110.67L88.3391 110.782L88.1711 111.762C87.8724 111.958 87.5317 112.075 87.1491 112.112C86.8691 112.084 86.6357 111.986 86.4491 111.818C86.2624 111.641 86.1364 111.398 86.0711 111.09H85.9731C85.5064 111.585 85.0257 111.93 84.5311 112.126C83.8591 112.117 83.3317 111.939 82.9491 111.594C82.5664 111.249 82.3751 110.777 82.3751 110.18C82.3751 109.713 82.4917 109.349 82.7251 109.088C82.9677 108.817 83.3317 108.635 83.8171 108.542L85.9591 108.136V107.562C85.9591 106.955 85.6604 106.652 85.0631 106.652C84.7737 106.652 84.4657 106.717 84.1391 106.848C83.8217 106.979 83.4624 107.184 83.0611 107.464L82.9211 107.38L82.7111 106.148C83.1124 105.896 83.5417 105.705 83.9991 105.574C84.4564 105.434 84.9137 105.364 85.3711 105.364ZM84.4611 109.396C84.3117 109.433 84.1997 109.499 84.1251 109.592C84.0597 109.676 84.0271 109.807 84.0271 109.984C84.0271 110.227 84.0924 110.418 84.2231 110.558C84.3537 110.689 84.5357 110.754 84.7691 110.754C85.1331 110.754 85.5157 110.539 85.9171 110.11L85.9451 109.074L84.4611 109.396ZM94.3005 110.628C94.5991 110.628 94.9118 110.549 95.2385 110.39L95.3925 110.53L95.2105 111.636C94.7345 111.879 94.2491 112.028 93.7545 112.084C92.4945 111.953 91.8645 111.337 91.8645 110.236L91.9345 109.074L91.9205 106.666H91.0525L90.9825 106.568L91.0805 105.546H91.9065V104.468L93.6005 103.922L93.7265 104.034L93.6845 105.546H95.3505L95.4065 105.644L95.3225 106.666H93.6565L93.5725 109.802C93.5725 110.101 93.6285 110.315 93.7405 110.446C93.8525 110.567 94.0391 110.628 94.3005 110.628ZM98.9609 105.364C99.6796 105.364 100.24 105.527 100.641 105.854C101.052 106.171 101.257 106.619 101.257 107.198C101.257 107.366 101.229 107.898 101.173 108.794C101.164 109.055 101.15 109.326 101.131 109.606C101.112 109.877 101.103 110.11 101.103 110.306C101.103 110.465 101.126 110.577 101.173 110.642C101.22 110.698 101.304 110.726 101.425 110.726C101.518 110.726 101.64 110.707 101.789 110.67L101.929 110.782L101.761 111.762C101.462 111.958 101.122 112.075 100.739 112.112C100.459 112.084 100.226 111.986 100.039 111.818C99.8523 111.641 99.7263 111.398 99.6609 111.09H99.5629C99.0963 111.585 98.6156 111.93 98.1209 112.126C97.4489 112.117 96.9216 111.939 96.5389 111.594C96.1563 111.249 95.9649 110.777 95.9649 110.18C95.9649 109.713 96.0816 109.349 96.3149 109.088C96.5576 108.817 96.9216 108.635 97.4069 108.542L99.5489 108.136V107.562C99.5489 106.955 99.2503 106.652 98.6529 106.652C98.3636 106.652 98.0556 106.717 97.7289 106.848C97.4116 106.979 97.0523 107.184 96.6509 107.464L96.5109 107.38L96.3009 106.148C96.7023 105.896 97.1316 105.705 97.5889 105.574C98.0463 105.434 98.5036 105.364 98.9609 105.364ZM98.0509 109.396C97.9016 109.433 97.7896 109.499 97.7149 109.592C97.6496 109.676 97.6169 109.807 97.6169 109.984C97.6169 110.227 97.6823 110.418 97.8129 110.558C97.9436 110.689 98.1256 110.754 98.3589 110.754C98.7229 110.754 99.1056 110.539 99.5069 110.11L99.5349 109.074L98.0509 109.396ZM104.749 106.218L105.645 107.674L106.527 106.162L106.877 105.504H108.515L106.639 108.696L108.599 111.944L106.639 112.084L106.317 111.258L105.393 109.76L104.427 111.342L104.119 112H102.481L104.371 108.738L102.467 105.546L104.455 105.448L104.749 106.218ZM111.936 105.364C112.654 105.364 113.214 105.527 113.616 105.854C114.026 106.171 114.232 106.619 114.232 107.198C114.232 107.366 114.204 107.898 114.148 108.794C114.138 109.055 114.124 109.326 114.106 109.606C114.087 109.877 114.078 110.11 114.078 110.306C114.078 110.465 114.101 110.577 114.148 110.642C114.194 110.698 114.278 110.726 114.4 110.726C114.493 110.726 114.614 110.707 114.764 110.67L114.904 110.782L114.736 111.762C114.437 111.958 114.096 112.075 113.714 112.112C113.434 112.084 113.2 111.986 113.014 111.818C112.827 111.641 112.701 111.398 112.636 111.09H112.538C112.071 111.585 111.59 111.93 111.096 112.126C110.424 112.117 109.896 111.939 109.514 111.594C109.131 111.249 108.94 110.777 108.94 110.18C108.94 109.713 109.056 109.349 109.29 109.088C109.532 108.817 109.896 108.635 110.382 108.542L112.524 108.136V107.562C112.524 106.955 112.225 106.652 111.628 106.652C111.338 106.652 111.03 106.717 110.704 106.848C110.386 106.979 110.027 107.184 109.626 107.464L109.486 107.38L109.276 106.148C109.677 105.896 110.106 105.705 110.564 105.574C111.021 105.434 111.478 105.364 111.936 105.364ZM111.026 109.396C110.876 109.433 110.764 109.499 110.69 109.592C110.624 109.676 110.592 109.807 110.592 109.984C110.592 110.227 110.657 110.418 110.788 110.558C110.918 110.689 111.1 110.754 111.334 110.754C111.698 110.754 112.08 110.539 112.482 110.11L112.51 109.074L111.026 109.396ZM120.795 105.364C121.514 105.364 122.074 105.527 122.475 105.854C122.886 106.171 123.091 106.619 123.091 107.198C123.091 107.366 123.063 107.898 123.007 108.794C122.998 109.055 122.984 109.326 122.965 109.606C122.946 109.877 122.937 110.11 122.937 110.306C122.937 110.465 122.96 110.577 123.007 110.642C123.054 110.698 123.138 110.726 123.259 110.726C123.352 110.726 123.474 110.707 123.623 110.67L123.763 110.782L123.595 111.762C123.296 111.958 122.956 112.075 122.573 112.112C122.293 112.084 122.06 111.986 121.873 111.818C121.686 111.641 121.56 111.398 121.495 111.09H121.397C120.93 111.585 120.45 111.93 119.955 112.126C119.283 112.117 118.756 111.939 118.373 111.594C117.99 111.249 117.799 110.777 117.799 110.18C117.799 109.713 117.916 109.349 118.149 109.088C118.392 108.817 118.756 108.635 119.241 108.542L121.383 108.136V107.562C121.383 106.955 121.084 106.652 120.487 106.652C120.198 106.652 119.89 106.717 119.563 106.848C119.246 106.979 118.886 107.184 118.485 107.464L118.345 107.38L118.135 106.148C118.536 105.896 118.966 105.705 119.423 105.574C119.88 105.434 120.338 105.364 120.795 105.364ZM119.885 109.396C119.736 109.433 119.624 109.499 119.549 109.592C119.484 109.676 119.451 109.807 119.451 109.984C119.451 110.227 119.516 110.418 119.647 110.558C119.778 110.689 119.96 110.754 120.193 110.754C120.557 110.754 120.94 110.539 121.341 110.11L121.369 109.074L119.885 109.396ZM126.793 109.13L126.891 112H125.029L125.127 109.298L125.043 102.312L126.905 102.172L126.793 109.13ZM131.283 110.628C131.582 110.628 131.894 110.549 132.221 110.39L132.375 110.53L132.193 111.636C131.717 111.879 131.232 112.028 130.737 112.084C129.477 111.953 128.847 111.337 128.847 110.236L128.917 109.074L128.903 106.666H128.035L127.965 106.568L128.063 105.546H128.889V104.468L130.583 103.922L130.709 104.034L130.667 105.546H132.333L132.389 105.644L132.305 106.666H130.639L130.555 109.802C130.555 110.101 130.611 110.315 130.723 110.446C130.835 110.567 131.022 110.628 131.283 110.628ZM135.943 105.364C136.662 105.364 137.222 105.527 137.623 105.854C138.034 106.171 138.239 106.619 138.239 107.198C138.239 107.366 138.211 107.898 138.155 108.794C138.146 109.055 138.132 109.326 138.113 109.606C138.095 109.877 138.085 110.11 138.085 110.306C138.085 110.465 138.109 110.577 138.155 110.642C138.202 110.698 138.286 110.726 138.407 110.726C138.501 110.726 138.622 110.707 138.771 110.67L138.911 110.782L138.743 111.762C138.445 111.958 138.104 112.075 137.721 112.112C137.441 112.084 137.208 111.986 137.021 111.818C136.835 111.641 136.709 111.398 136.643 111.09H136.545C136.079 111.585 135.598 111.93 135.103 112.126C134.431 112.117 133.904 111.939 133.521 111.594C133.139 111.249 132.947 110.777 132.947 110.18C132.947 109.713 133.064 109.349 133.297 109.088C133.54 108.817 133.904 108.635 134.389 108.542L136.531 108.136V107.562C136.531 106.955 136.233 106.652 135.635 106.652C135.346 106.652 135.038 106.717 134.711 106.848C134.394 106.979 134.035 107.184 133.633 107.464L133.493 107.38L133.283 106.148C133.685 105.896 134.114 105.705 134.571 105.574C135.029 105.434 135.486 105.364 135.943 105.364ZM135.033 109.396C134.884 109.433 134.772 109.499 134.697 109.592C134.632 109.676 134.599 109.807 134.599 109.984C134.599 110.227 134.665 110.418 134.795 110.558C134.926 110.689 135.108 110.754 135.341 110.754C135.705 110.754 136.088 110.539 136.489 110.11L136.517 109.074L135.033 109.396ZM30.8807 125.13L30.9227 126.306C30.9227 126.465 30.9414 126.577 30.9787 126.642C31.0254 126.698 31.1047 126.726 31.2167 126.726C31.3194 126.726 31.4454 126.707 31.5947 126.67L31.7207 126.782L31.5667 127.762C31.2494 127.958 30.9041 128.075 30.5307 128.112C30.2414 128.084 29.9987 127.986 29.8027 127.818C29.6067 127.65 29.4714 127.421 29.3967 127.132H29.2847C28.8274 127.552 28.3607 127.874 27.8847 128.098C26.9701 128.098 26.2607 127.809 25.7567 127.23C25.2527 126.642 25.0007 125.83 25.0007 124.794C25.0007 123.693 25.2901 122.848 25.8687 122.26C26.4474 121.672 27.2501 121.378 28.2767 121.378C28.5474 121.378 28.8461 121.406 29.1727 121.462L29.1447 118.312L30.9927 118.172L30.8807 125.13ZM28.1507 122.638C27.2174 122.638 26.7507 123.231 26.7507 124.416C26.7507 125.153 26.8627 125.709 27.0867 126.082C27.3107 126.455 27.6374 126.642 28.0667 126.642C28.4774 126.642 28.8554 126.451 29.2007 126.068L29.2287 125.298L29.1867 122.89C28.8227 122.722 28.4774 122.638 28.1507 122.638ZM37.8579 124.976L34.0779 125.004C34.1619 126.171 34.7545 126.754 35.8559 126.754C36.4345 126.754 37.0785 126.591 37.7879 126.264L37.9419 126.362L37.6619 127.748C36.9525 128.009 36.2852 128.14 35.6599 128.14C34.6332 128.14 33.8259 127.841 33.2379 127.244C32.6592 126.647 32.3699 125.821 32.3699 124.766C32.3699 123.721 32.6545 122.895 33.2239 122.288C33.7932 121.672 34.5632 121.364 35.5339 121.364C36.3645 121.364 37.0039 121.593 37.4519 122.05C37.9092 122.498 38.1379 123.128 38.1379 123.94C38.1379 124.155 38.1145 124.425 38.0679 124.752L37.8579 124.976ZM36.5139 123.73C36.5139 123.357 36.4299 123.077 36.2619 122.89C36.0939 122.694 35.8465 122.596 35.5199 122.596C35.1559 122.596 34.8525 122.717 34.6099 122.96C34.3672 123.193 34.2039 123.534 34.1199 123.982L36.4859 123.926L36.5139 123.73ZM44.1025 121.364C44.8212 121.364 45.3812 121.527 45.7825 121.854C46.1932 122.171 46.3985 122.619 46.3985 123.198C46.3985 123.366 46.3705 123.898 46.3145 124.794C46.3052 125.055 46.2912 125.326 46.2725 125.606C46.2539 125.877 46.2445 126.11 46.2445 126.306C46.2445 126.465 46.2679 126.577 46.3145 126.642C46.3612 126.698 46.4452 126.726 46.5665 126.726C46.6599 126.726 46.7812 126.707 46.9305 126.67L47.0705 126.782L46.9025 127.762C46.6039 127.958 46.2632 128.075 45.8805 128.112C45.6005 128.084 45.3672 127.986 45.1805 127.818C44.9939 127.641 44.8679 127.398 44.8025 127.09H44.7045C44.2379 127.585 43.7572 127.93 43.2625 128.126C42.5905 128.117 42.0632 127.939 41.6805 127.594C41.2979 127.249 41.1065 126.777 41.1065 126.18C41.1065 125.713 41.2232 125.349 41.4565 125.088C41.6992 124.817 42.0632 124.635 42.5485 124.542L44.6905 124.136V123.562C44.6905 122.955 44.3919 122.652 43.7945 122.652C43.5052 122.652 43.1972 122.717 42.8705 122.848C42.5532 122.979 42.1939 123.184 41.7925 123.464L41.6525 123.38L41.4425 122.148C41.8439 121.896 42.2732 121.705 42.7305 121.574C43.1879 121.434 43.6452 121.364 44.1025 121.364ZM43.1925 125.396C43.0432 125.433 42.9312 125.499 42.8565 125.592C42.7912 125.676 42.7585 125.807 42.7585 125.984C42.7585 126.227 42.8239 126.418 42.9545 126.558C43.0852 126.689 43.2672 126.754 43.5005 126.754C43.8645 126.754 44.2472 126.539 44.6485 126.11L44.6765 125.074L43.1925 125.396ZM50.9548 121.364C51.2628 121.364 51.5661 121.397 51.8648 121.462C52.1728 121.518 52.4434 121.602 52.6768 121.714L52.3688 123.198L52.2148 123.268C51.7388 123.007 51.3141 122.876 50.9408 122.876C50.5114 122.876 50.1801 123.03 49.9468 123.338C49.7134 123.646 49.5968 124.085 49.5968 124.654C49.5968 125.307 49.7228 125.807 49.9748 126.152C50.2268 126.497 50.5861 126.67 51.0528 126.67C51.4728 126.67 51.9394 126.553 52.4528 126.32L52.5928 126.432L52.4108 127.874C51.8508 128.051 51.2768 128.14 50.6888 128.14C49.7928 128.14 49.0928 127.851 48.5888 127.272C48.0848 126.684 47.8328 125.867 47.8328 124.822C47.8328 123.739 48.1081 122.895 48.6588 122.288C49.2094 121.672 49.9748 121.364 50.9548 121.364ZM50.9408 128.672L51.4168 128.938C51.6221 129.05 51.7668 129.171 51.8508 129.302C51.9441 129.442 51.9908 129.596 51.9908 129.764C51.9908 130.072 51.8694 130.324 51.6268 130.52C51.3841 130.716 51.0668 130.814 50.6748 130.814C50.2548 130.814 49.8721 130.683 49.5268 130.422L49.6528 129.638L49.7368 129.596C50.0168 129.876 50.2921 130.016 50.5628 130.016C50.7868 130.016 50.8988 129.918 50.8988 129.722C50.8988 129.657 50.8801 129.601 50.8428 129.554C50.8054 129.517 50.7448 129.479 50.6608 129.442L49.9748 129.05L50.2968 127.636H51.1928L50.9408 128.672ZM59.8835 126.782L59.7155 127.762C59.3701 127.986 59.0155 128.103 58.6515 128.112C58.3808 128.065 58.1568 127.958 57.9795 127.79C57.8021 127.622 57.6668 127.379 57.5735 127.062H57.4475C56.9155 127.585 56.3648 127.925 55.7955 128.084C55.0861 128.084 54.5448 127.925 54.1715 127.608C53.8075 127.281 53.6301 126.815 53.6395 126.208L53.6675 124.556L53.5975 121.616L55.4035 121.462L55.3615 125.592C55.3521 125.919 55.4175 126.166 55.5575 126.334C55.6975 126.502 55.9075 126.586 56.1875 126.586C56.5981 126.586 57.0041 126.404 57.4055 126.04V121.616L59.1835 121.462L59.0575 126.306C59.0575 126.455 59.0808 126.563 59.1275 126.628C59.1835 126.693 59.2675 126.726 59.3795 126.726C59.4821 126.726 59.6081 126.707 59.7575 126.67L59.8835 126.782ZM57.7835 117.878L58.4555 118.886L58.4275 119.068C58.2221 119.199 58.0681 119.292 57.9655 119.348C56.7988 120.067 56.0428 120.524 55.6975 120.72L55.5155 120.706L55.0675 120.006C56.1501 119.138 56.9948 118.424 57.6015 117.864L57.7835 117.878ZM63.6559 121.364C63.9639 121.364 64.2673 121.397 64.5659 121.462C64.8739 121.518 65.1446 121.602 65.3779 121.714L65.0699 123.198L64.9159 123.268C64.4399 123.007 64.0153 122.876 63.6419 122.876C63.2126 122.876 62.8813 123.03 62.6479 123.338C62.4146 123.646 62.2979 124.085 62.2979 124.654C62.2979 125.307 62.4239 125.807 62.6759 126.152C62.9279 126.497 63.2873 126.67 63.7539 126.67C64.1739 126.67 64.6406 126.553 65.1539 126.32L65.2939 126.432L65.1119 127.874C64.5519 128.051 63.9779 128.14 63.3899 128.14C62.4939 128.14 61.7939 127.851 61.2899 127.272C60.7859 126.684 60.5339 125.867 60.5339 124.822C60.5339 123.739 60.8093 122.895 61.3599 122.288C61.9106 121.672 62.6759 121.364 63.6559 121.364ZM68.7939 121.364C69.5126 121.364 70.0726 121.527 70.4739 121.854C70.8846 122.171 71.0899 122.619 71.0899 123.198C71.0899 123.366 71.0619 123.898 71.0059 124.794C70.9966 125.055 70.9826 125.326 70.9639 125.606C70.9453 125.877 70.9359 126.11 70.9359 126.306C70.9359 126.465 70.9593 126.577 71.0059 126.642C71.0526 126.698 71.1366 126.726 71.2579 126.726C71.3513 126.726 71.4726 126.707 71.6219 126.67L71.7619 126.782L71.5939 127.762C71.2953 127.958 70.9546 128.075 70.5719 128.112C70.2919 128.084 70.0586 127.986 69.8719 127.818C69.6853 127.641 69.5593 127.398 69.4939 127.09H69.3959C68.9293 127.585 68.4486 127.93 67.9539 128.126C67.2819 128.117 66.7546 127.939 66.3719 127.594C65.9893 127.249 65.7979 126.777 65.7979 126.18C65.7979 125.713 65.9146 125.349 66.1479 125.088C66.3906 124.817 66.7546 124.635 67.2399 124.542L69.3819 124.136V123.562C69.3819 122.955 69.0833 122.652 68.4859 122.652C68.1966 122.652 67.8886 122.717 67.5619 122.848C67.2446 122.979 66.8853 123.184 66.4839 123.464L66.3439 123.38L66.1339 122.148C66.5353 121.896 66.9646 121.705 67.4219 121.574C67.8793 121.434 68.3366 121.364 68.7939 121.364ZM67.8839 125.396C67.7346 125.433 67.6226 125.499 67.5479 125.592C67.4826 125.676 67.4499 125.807 67.4499 125.984C67.4499 126.227 67.5153 126.418 67.6459 126.558C67.7766 126.689 67.9586 126.754 68.1919 126.754C68.5559 126.754 68.9386 126.539 69.3399 126.11L69.3679 125.074L67.8839 125.396ZM76.4881 121.476C76.5721 121.476 76.6888 121.485 76.8381 121.504V123.226L76.6421 123.296C76.4835 123.231 76.3108 123.198 76.1241 123.198C75.5828 123.198 75.0928 123.548 74.6541 124.248V125.13L74.7521 128H72.8901L73.0021 125.312L72.9181 121.616L74.6821 121.462L74.6681 122.736H74.7801C75.2375 121.896 75.8068 121.476 76.4881 121.476ZM83.0965 119.32V119.474C82.5365 119.978 82.1305 120.622 81.8785 121.406C81.6265 122.19 81.5005 123.203 81.5005 124.444C81.5005 125.62 81.6265 126.586 81.8785 127.342C82.1305 128.089 82.5365 128.719 83.0965 129.232V129.386L82.4245 129.946H82.2705C81.4771 129.367 80.9031 128.649 80.5485 127.79C80.1938 126.922 80.0118 125.811 80.0025 124.458C80.0118 123.03 80.1938 121.868 80.5485 120.972C80.9031 120.076 81.4771 119.334 82.2705 118.746H82.4245L83.0965 119.32ZM90.2634 122.372C90.0114 122.437 89.652 122.507 89.1854 122.582L89.1574 122.638C89.2974 122.918 89.3674 123.231 89.3674 123.576C89.3674 124.276 89.1107 124.836 88.5974 125.256C88.0934 125.667 87.4074 125.872 86.5394 125.872C86.278 125.872 86.0074 125.849 85.7274 125.802C85.6434 125.886 85.5874 125.951 85.5594 125.998C85.5314 126.045 85.5174 126.101 85.5174 126.166C85.5174 126.334 85.6294 126.451 85.8534 126.516C86.0774 126.581 86.432 126.647 86.9174 126.712C87.468 126.777 87.9254 126.857 88.2894 126.95C88.6627 127.043 88.98 127.207 89.2414 127.44C89.512 127.673 89.6474 128.005 89.6474 128.434C89.6474 128.873 89.5074 129.265 89.2274 129.61C88.9567 129.965 88.5787 130.24 88.0934 130.436C87.608 130.632 87.0574 130.73 86.4414 130.73C85.592 130.73 84.9387 130.557 84.4814 130.212C84.024 129.867 83.7954 129.409 83.7954 128.84C84.0847 128.439 84.472 128.089 84.9574 127.79V127.72C84.64 127.608 84.3927 127.454 84.2154 127.258C84.038 127.053 83.9494 126.782 83.9494 126.446C84.2014 126.138 84.5187 125.853 84.9014 125.592V125.522C84.5654 125.335 84.3087 125.093 84.1314 124.794C83.9634 124.486 83.8794 124.127 83.8794 123.716C83.8794 122.988 84.1314 122.419 84.6354 122.008C85.1394 121.597 85.8254 121.392 86.6934 121.392C87.1974 121.392 87.6547 121.476 88.0654 121.644C88.7374 121.523 89.4234 121.336 90.1234 121.084L90.2634 121.21V122.372ZM86.5954 124.752C86.978 124.752 87.2674 124.654 87.4634 124.458C87.6594 124.262 87.7574 123.977 87.7574 123.604C87.7574 122.895 87.3934 122.54 86.6654 122.54C85.8814 122.54 85.4894 122.899 85.4894 123.618C85.4894 123.991 85.5827 124.276 85.7694 124.472C85.956 124.659 86.2314 124.752 86.5954 124.752ZM88.0794 128.77C88.0794 128.518 87.944 128.345 87.6734 128.252C87.412 128.159 87.006 128.079 86.4554 128.014L85.9794 127.944C85.7554 128.093 85.5874 128.238 85.4754 128.378C85.3634 128.518 85.3074 128.667 85.3074 128.826C85.3074 129.069 85.4194 129.265 85.6434 129.414C85.8674 129.563 86.194 129.638 86.6234 129.638C87.062 129.638 87.412 129.559 87.6734 129.4C87.944 129.251 88.0794 129.041 88.0794 128.77ZM92.8254 125.13L92.9234 128H91.0614L91.1594 125.298L91.0754 118.312L92.9374 118.172L92.8254 125.13ZM94.8091 125.312L94.7391 121.616L96.5731 121.462L96.4891 125.13L96.5731 128H94.7111L94.8091 125.312ZM95.6911 118.298C95.9804 118.298 96.2044 118.382 96.3631 118.55C96.5311 118.718 96.6151 118.951 96.6151 119.25C96.6151 119.567 96.5264 119.819 96.3491 120.006C96.1718 120.193 95.9291 120.286 95.6211 120.286C95.3131 120.286 95.0751 120.202 94.9071 120.034C94.7484 119.866 94.6691 119.628 94.6691 119.32C94.6691 119.012 94.7578 118.765 94.9351 118.578C95.1218 118.391 95.3738 118.298 95.6911 118.298ZM101.007 121.364C101.315 121.364 101.619 121.397 101.917 121.462C102.225 121.518 102.496 121.602 102.729 121.714L102.421 123.198L102.267 123.268C101.791 123.007 101.367 122.876 100.993 122.876C100.564 122.876 100.233 123.03 99.9995 123.338C99.7662 123.646 99.6495 124.085 99.6495 124.654C99.6495 125.307 99.7755 125.807 100.027 126.152C100.279 126.497 100.639 126.67 101.105 126.67C101.525 126.67 101.992 126.553 102.505 126.32L102.645 126.432L102.463 127.874C101.903 128.051 101.329 128.14 100.741 128.14C99.8455 128.14 99.1455 127.851 98.6415 127.272C98.1375 126.684 97.8855 125.867 97.8855 124.822C97.8855 123.739 98.1608 122.895 98.7115 122.288C99.2622 121.672 100.027 121.364 101.007 121.364ZM106.422 121.364C107.374 121.364 108.102 121.644 108.606 122.204C109.11 122.764 109.362 123.571 109.362 124.626C109.362 125.765 109.092 126.637 108.55 127.244C108.009 127.841 107.23 128.14 106.212 128.14C105.26 128.14 104.532 127.86 104.028 127.3C103.524 126.74 103.272 125.933 103.272 124.878C103.272 123.739 103.543 122.871 104.084 122.274C104.626 121.667 105.405 121.364 106.422 121.364ZM106.296 122.624C105.848 122.624 105.522 122.773 105.316 123.072C105.12 123.371 105.022 123.851 105.022 124.514C105.022 125.373 105.125 125.984 105.33 126.348C105.536 126.712 105.872 126.894 106.338 126.894C106.786 126.894 107.108 126.749 107.304 126.46C107.51 126.161 107.612 125.676 107.612 125.004C107.612 124.155 107.505 123.548 107.29 123.184C107.085 122.811 106.754 122.624 106.296 122.624ZM112.822 121.378C113.457 121.378 114.054 121.485 114.614 121.7L114.362 123.072L114.138 123.142C113.868 122.965 113.597 122.829 113.326 122.736C113.056 122.643 112.818 122.596 112.612 122.596C112.388 122.596 112.211 122.657 112.08 122.778C111.95 122.89 111.884 123.03 111.884 123.198C111.884 123.394 111.968 123.553 112.136 123.674C112.314 123.795 112.589 123.931 112.962 124.08C113.336 124.229 113.644 124.374 113.886 124.514C114.129 124.654 114.334 124.85 114.502 125.102C114.68 125.345 114.768 125.648 114.768 126.012C114.768 126.385 114.67 126.735 114.474 127.062C114.288 127.379 113.998 127.641 113.606 127.846C113.214 128.042 112.734 128.14 112.164 128.14C111.492 128.14 110.797 128 110.078 127.72L110.288 126.264L110.47 126.152C110.76 126.395 111.082 126.591 111.436 126.74C111.791 126.88 112.104 126.95 112.374 126.95C112.626 126.95 112.822 126.889 112.962 126.768C113.102 126.637 113.172 126.483 113.172 126.306C113.172 126.11 113.084 125.951 112.906 125.83C112.738 125.709 112.468 125.573 112.094 125.424C111.712 125.256 111.399 125.107 111.156 124.976C110.914 124.836 110.704 124.64 110.526 124.388C110.358 124.136 110.274 123.823 110.274 123.45C110.274 122.843 110.503 122.349 110.96 121.966C111.418 121.574 112.038 121.378 112.822 121.378ZM121.051 124.976L117.271 125.004C117.355 126.171 117.948 126.754 119.049 126.754C119.628 126.754 120.272 126.591 120.981 126.264L121.135 126.362L120.855 127.748C120.146 128.009 119.479 128.14 118.853 128.14C117.827 128.14 117.019 127.841 116.431 127.244C115.853 126.647 115.563 125.821 115.563 124.766C115.563 123.721 115.848 122.895 116.417 122.288C116.987 121.672 117.757 121.364 118.727 121.364C119.558 121.364 120.197 121.593 120.645 122.05C121.103 122.498 121.331 123.128 121.331 123.94C121.331 124.155 121.308 124.425 121.261 124.752L121.051 124.976ZM119.707 123.73C119.707 123.357 119.623 123.077 119.455 122.89C119.287 122.694 119.04 122.596 118.713 122.596C118.349 122.596 118.046 122.717 117.803 122.96C117.561 123.193 117.397 123.534 117.313 123.982L119.679 123.926L119.707 123.73ZM121.747 129.386V129.232C122.307 128.728 122.713 128.084 122.965 127.3C123.217 126.516 123.343 125.503 123.343 124.262C123.343 123.086 123.217 122.125 122.965 121.378C122.713 120.622 122.307 119.987 121.747 119.474V119.32L122.419 118.76H122.573C123.366 119.339 123.94 120.062 124.295 120.93C124.649 121.789 124.831 122.895 124.841 124.248C124.831 125.676 124.649 126.838 124.295 127.734C123.94 128.63 123.366 129.372 122.573 129.96H122.419L121.747 129.386ZM132.935 123.94C132.944 123.613 132.87 123.361 132.711 123.184C132.562 122.997 132.342 122.904 132.053 122.904C131.633 122.904 131.185 123.105 130.709 123.506V125.13L130.793 128H128.931L129.029 125.312L128.959 121.616L130.723 121.462V122.414H130.821C131.334 121.947 131.894 121.611 132.501 121.406C133.21 121.406 133.752 121.569 134.125 121.896C134.498 122.213 134.676 122.675 134.657 123.282L134.615 125.144L134.699 128H132.823L132.935 123.94ZM139.043 121.364C139.995 121.364 140.723 121.644 141.227 122.204C141.731 122.764 141.983 123.571 141.983 124.626C141.983 125.765 141.713 126.637 141.171 127.244C140.63 127.841 139.851 128.14 138.833 128.14C137.881 128.14 137.153 127.86 136.649 127.3C136.145 126.74 135.893 125.933 135.893 124.878C135.893 123.739 136.164 122.871 136.705 122.274C137.247 121.667 138.026 121.364 139.043 121.364ZM138.917 122.624C138.469 122.624 138.143 122.773 137.937 123.072C137.741 123.371 137.643 123.851 137.643 124.514C137.643 125.373 137.746 125.984 137.951 126.348C138.157 126.712 138.493 126.894 138.959 126.894C139.407 126.894 139.729 126.749 139.925 126.46C140.131 126.161 140.233 125.676 140.233 125.004C140.233 124.155 140.126 123.548 139.911 123.184C139.706 122.811 139.375 122.624 138.917 122.624ZM66.3583 137.378C66.993 137.378 67.5903 137.485 68.1503 137.7L67.8983 139.072L67.6743 139.142C67.4036 138.965 67.133 138.829 66.8623 138.736C66.5916 138.643 66.3536 138.596 66.1483 138.596C65.9243 138.596 65.747 138.657 65.6163 138.778C65.4856 138.89 65.4203 139.03 65.4203 139.198C65.4203 139.394 65.5043 139.553 65.6723 139.674C65.8496 139.795 66.125 139.931 66.4983 140.08C66.8716 140.229 67.1796 140.374 67.4223 140.514C67.665 140.654 67.8703 140.85 68.0383 141.102C68.2156 141.345 68.3043 141.648 68.3043 142.012C68.3043 142.385 68.2063 142.735 68.0103 143.062C67.8236 143.379 67.5343 143.641 67.1423 143.846C66.7503 144.042 66.2696 144.14 65.7003 144.14C65.0283 144.14 64.333 144 63.6143 143.72L63.8243 142.264L64.0063 142.152C64.2956 142.395 64.6176 142.591 64.9723 142.74C65.327 142.88 65.6396 142.95 65.9103 142.95C66.1623 142.95 66.3583 142.889 66.4983 142.768C66.6383 142.637 66.7083 142.483 66.7083 142.306C66.7083 142.11 66.6196 141.951 66.4423 141.83C66.2743 141.709 66.0036 141.573 65.6303 141.424C65.2476 141.256 64.935 141.107 64.6923 140.976C64.4496 140.836 64.2396 140.64 64.0623 140.388C63.8943 140.136 63.8103 139.823 63.8103 139.45C63.8103 138.843 64.039 138.349 64.4963 137.966C64.9536 137.574 65.5743 137.378 66.3583 137.378ZM72.1094 137.364C72.828 137.364 73.388 137.527 73.7894 137.854C74.2 138.171 74.4054 138.619 74.4054 139.198C74.4054 139.366 74.3774 139.898 74.3214 140.794C74.312 141.055 74.298 141.326 74.2794 141.606C74.2607 141.877 74.2514 142.11 74.2514 142.306C74.2514 142.465 74.2747 142.577 74.3214 142.642C74.368 142.698 74.452 142.726 74.5734 142.726C74.6667 142.726 74.788 142.707 74.9374 142.67L75.0774 142.782L74.9094 143.762C74.6107 143.958 74.27 144.075 73.8874 144.112C73.6074 144.084 73.374 143.986 73.1874 143.818C73.0007 143.641 72.8747 143.398 72.8094 143.09H72.7114C72.2447 143.585 71.764 143.93 71.2694 144.126C70.5974 144.117 70.07 143.939 69.6874 143.594C69.3047 143.249 69.1134 142.777 69.1134 142.18C69.1134 141.713 69.23 141.349 69.4634 141.088C69.706 140.817 70.07 140.635 70.5554 140.542L72.6974 140.136V139.562C72.6974 138.955 72.3987 138.652 71.8014 138.652C71.512 138.652 71.204 138.717 70.8774 138.848C70.56 138.979 70.2007 139.184 69.7994 139.464L69.6594 139.38L69.4494 138.148C69.8507 137.896 70.28 137.705 70.7374 137.574C71.1947 137.434 71.652 137.364 72.1094 137.364ZM71.1994 141.396C71.05 141.433 70.938 141.499 70.8634 141.592C70.798 141.676 70.7654 141.807 70.7654 141.984C70.7654 142.227 70.8307 142.418 70.9614 142.558C71.092 142.689 71.274 142.754 71.5074 142.754C71.8714 142.754 72.254 142.539 72.6554 142.11L72.6834 141.074L71.1994 141.396ZM80.2096 139.94C80.2189 139.613 80.1442 139.361 79.9856 139.184C79.8362 138.997 79.6169 138.904 79.3276 138.904C78.9076 138.904 78.4596 139.105 77.9836 139.506V141.13L78.0676 144H76.2056L76.3036 141.312L76.2336 137.616L77.9976 137.462V138.414H78.0956C78.6089 137.947 79.1689 137.611 79.7756 137.406C80.4849 137.406 81.0262 137.569 81.3996 137.896C81.7729 138.213 81.9502 138.675 81.9316 139.282L81.8896 141.144L81.9736 144H80.0976L80.2096 139.94ZM89.8737 138.372C89.6217 138.437 89.2624 138.507 88.7957 138.582L88.7677 138.638C88.9077 138.918 88.9777 139.231 88.9777 139.576C88.9777 140.276 88.7211 140.836 88.2077 141.256C87.7037 141.667 87.0177 141.872 86.1497 141.872C85.8884 141.872 85.6177 141.849 85.3377 141.802C85.2537 141.886 85.1977 141.951 85.1697 141.998C85.1417 142.045 85.1277 142.101 85.1277 142.166C85.1277 142.334 85.2397 142.451 85.4637 142.516C85.6877 142.581 86.0424 142.647 86.5277 142.712C87.0784 142.777 87.5357 142.857 87.8997 142.95C88.2731 143.043 88.5904 143.207 88.8517 143.44C89.1224 143.673 89.2577 144.005 89.2577 144.434C89.2577 144.873 89.1177 145.265 88.8377 145.61C88.5671 145.965 88.1891 146.24 87.7037 146.436C87.2184 146.632 86.6677 146.73 86.0517 146.73C85.2024 146.73 84.5491 146.557 84.0917 146.212C83.6344 145.867 83.4057 145.409 83.4057 144.84C83.6951 144.439 84.0824 144.089 84.5677 143.79V143.72C84.2504 143.608 84.0031 143.454 83.8257 143.258C83.6484 143.053 83.5597 142.782 83.5597 142.446C83.8117 142.138 84.1291 141.853 84.5117 141.592V141.522C84.1757 141.335 83.9191 141.093 83.7417 140.794C83.5737 140.486 83.4897 140.127 83.4897 139.716C83.4897 138.988 83.7417 138.419 84.2457 138.008C84.7497 137.597 85.4357 137.392 86.3037 137.392C86.8077 137.392 87.2651 137.476 87.6757 137.644C88.3477 137.523 89.0337 137.336 89.7337 137.084L89.8737 137.21V138.372ZM86.2057 140.752C86.5884 140.752 86.8777 140.654 87.0737 140.458C87.2697 140.262 87.3677 139.977 87.3677 139.604C87.3677 138.895 87.0037 138.54 86.2757 138.54C85.4917 138.54 85.0997 138.899 85.0997 139.618C85.0997 139.991 85.1931 140.276 85.3797 140.472C85.5664 140.659 85.8417 140.752 86.2057 140.752ZM87.6897 144.77C87.6897 144.518 87.5544 144.345 87.2837 144.252C87.0224 144.159 86.6164 144.079 86.0657 144.014L85.5897 143.944C85.3657 144.093 85.1977 144.238 85.0857 144.378C84.9737 144.518 84.9177 144.667 84.9177 144.826C84.9177 145.069 85.0297 145.265 85.2537 145.414C85.4777 145.563 85.8044 145.638 86.2337 145.638C86.6724 145.638 87.0224 145.559 87.2837 145.4C87.5544 145.251 87.6897 145.041 87.6897 144.77ZM96.8317 142.782L96.6637 143.762C96.3184 143.986 95.9637 144.103 95.5997 144.112C95.3291 144.065 95.1051 143.958 94.9277 143.79C94.7504 143.622 94.6151 143.379 94.5217 143.062H94.3957C93.8637 143.585 93.3131 143.925 92.7437 144.084C92.0344 144.084 91.4931 143.925 91.1197 143.608C90.7557 143.281 90.5784 142.815 90.5877 142.208L90.6157 140.556L90.5457 137.616L92.3517 137.462L92.3097 141.592C92.3004 141.919 92.3657 142.166 92.5057 142.334C92.6457 142.502 92.8557 142.586 93.1357 142.586C93.5464 142.586 93.9524 142.404 94.3537 142.04V137.616L96.1317 137.462L96.0057 142.306C96.0057 142.455 96.0291 142.563 96.0757 142.628C96.1317 142.693 96.2157 142.726 96.3277 142.726C96.4304 142.726 96.5564 142.707 96.7057 142.67L96.8317 142.782ZM102.97 140.976L99.1902 141.004C99.2742 142.171 99.8668 142.754 100.968 142.754C101.547 142.754 102.191 142.591 102.9 142.264L103.054 142.362L102.774 143.748C102.065 144.009 101.398 144.14 100.772 144.14C99.7455 144.14 98.9382 143.841 98.3502 143.244C97.7715 142.647 97.4822 141.821 97.4822 140.766C97.4822 139.721 97.7668 138.895 98.3362 138.288C98.9055 137.672 99.6755 137.364 100.646 137.364C101.477 137.364 102.116 137.593 102.564 138.05C103.022 138.498 103.25 139.128 103.25 139.94C103.25 140.155 103.227 140.425 103.18 140.752L102.97 140.976ZM101.626 139.73C101.626 139.357 101.542 139.077 101.374 138.89C101.206 138.694 100.959 138.596 100.632 138.596C100.268 138.596 99.9648 138.717 99.7222 138.96C99.4795 139.193 99.3162 139.534 99.2322 139.982L101.598 139.926L101.626 139.73Z" fill="white"/>
<defs>
<filter id="filter0_d_206:37318" x="39.302" y="8.52377" width="87.8789" height="72.819" filterUnits="userSpaceOnUse" color-interpolation-filters="sRGB">
<feFlood flood-opacity="0" result="BackgroundImageFix"/>
<feColorMatrix in="SourceAlpha" type="matrix" values="0 0 0 0 0 0 0 0 0 0 0 0 0 0 0 0 0 0 127 0" result="hardAlpha"/>
<feOffset dy="4"/>
<feGaussianBlur stdDeviation="2"/>
<feComposite in2="hardAlpha" operator="out"/>
<feColorMatrix type="matrix" values="0 0 0 0 0 0 0 0 0 0 0 0 0 0 0 0 0 0 0.25 0"/>
<feBlend mode="normal" in2="BackgroundImageFix" result="effect1_dropShadow_206:37318"/>
<feBlend mode="normal" in="SourceGraphic" in2="effect1_dropShadow_206:37318" result="shape"/>
</filter>
<filter id="filter1_b_206:37318" x="3" y="67" width="161" height="97" filterUnits="userSpaceOnUse" color-interpolation-filters="sRGB">
<feFlood flood-opacity="0" result="BackgroundImageFix"/>
<feGaussianBlur in="BackgroundImage" stdDeviation="5"/>
<feComposite in2="SourceAlpha" operator="in" result="effect1_backgroundBlur_206:37318"/>
<feBlend mode="normal" in="SourceGraphic" in2="effect1_backgroundBlur_206:37318" result="shape"/>
</filter>
</defs>
</svg>
