<svg width="167" height="167" viewBox="0 0 167 167" fill="none" xmlns="http://www.w3.org/2000/svg">
<mask id="mask0_206:37278" style="mask-type:alpha" maskUnits="userSpaceOnUse" x="0" y="0" width="167" height="167">
<rect x="1" y="1" width="165" height="165" rx="8" fill="#5988D6" stroke="#EDE6FC" stroke-opacity="0.3"/>
</mask>
<g mask="url(#mask0_206:37278)">
<rect x="1" y="1" width="165" height="165" rx="8" fill="#A9D97A" stroke="#EDE6FC" stroke-opacity="0.3"/>
<g filter="url(#filter0_d_206:37278)">
<path d="M106.004 47.0547C105.257 46.6996 104.577 46.2188 103.992 45.6334C103.354 44.9965 102.84 44.2457 102.478 43.4198C101.566 43.8922 100.528 44.0623 99.5128 43.9052C98.4979 43.7481 97.5594 43.2721 96.8333 42.5462C95.9437 41.6569 95.4359 40.4559 95.4179 39.1984C95.3999 37.9409 95.873 36.7258 96.7367 35.8114C93.7163 31.4408 94.1514 25.4044 98.0427 21.5146L98.0608 21.4972C91.4311 18.8343 84.2612 16.5242 82.3514 16.661C78.7446 16.9199 60.9782 22.8517 58.6489 25.1736C56.3196 27.4956 60.8291 57.1807 63.1865 59.2448C65.544 61.309 82.1468 68.924 87.3082 68.408C92.4696 67.8921 107.229 58.7178 108.105 57.1115C108.388 56.5937 108.697 55.2778 109 53.4732C107.331 51.7156 106.279 49.4626 106.004 47.0547Z" fill="#CAD8D8"/>
<path d="M98.0426 21.5147C98.1362 21.4211 98.2312 21.3297 98.3274 21.241C92.3322 18.7977 85.2999 16.5612 82.7323 16.5612C79.3387 16.5612 61.8312 21.1884 61.9829 24.6851C62.0976 27.3196 79.0867 34.9841 83.9469 35.3314C86.0025 35.4793 90.6684 34.4733 95.3492 33.0479C94.0248 29.1337 94.9223 24.6348 98.0426 21.5147Z" fill="#DFEFEF"/>
<path d="M89.4232 29.0697C86.8231 29.2654 86.7595 32.4964 89.9197 32.1943C93.08 31.8921 93.1828 28.7868 89.4232 29.0697Z" fill="#EDF9F9"/>
<path d="M80.6669 17.9622C67.4063 17.9622 63.5398 28.0371 78.651 28.9839C95.9734 30.0672 99.9742 17.9622 80.6669 17.9622Z" fill="#EDF9F9"/>
<path d="M88.5988 36.8637C86.527 37.6234 85.7527 42.0391 89.5566 42.139C93.3606 42.2389 94.9844 34.521 88.5988 36.8637Z" fill="#B2C1C0"/>
<path d="M89.3428 63.3422C87.8093 62.2326 85.8241 65.3823 87.604 66.655C89.3839 67.9276 93.2363 66.1582 89.3428 63.3422Z" fill="#B2C1C0"/>
<path d="M86.0572 43.0928C84.6196 42.4386 83.574 46.3061 85.5171 46.0887C87.4601 45.8712 87.785 43.8795 86.0572 43.0928Z" fill="#B2C1C0"/>
<path d="M61.4358 28.5804C57.8405 28.5197 57.4199 42.9179 65.269 42.6838C73.1182 42.4496 72.2059 28.7631 61.4358 28.5804Z" fill="#DFEFEF"/>
<path d="M75.9937 37.2047C71.3055 36.1103 70.0095 43.1354 75.0791 44.3086C80.1487 45.4818 80.8047 38.3276 75.9937 37.2047Z" fill="#DFEFEF"/>
<path d="M109 53.4733C107.139 51.6122 106.283 49.481 106.004 47.0548C105.257 46.6996 104.576 46.2188 103.992 45.6334C103.353 44.9965 102.84 44.2457 102.477 43.4198C101.566 43.8923 100.527 44.0623 99.5123 43.9052C98.4975 43.7482 97.559 43.2722 96.8329 42.5462C95.9433 41.6569 95.4355 40.456 95.4175 39.1984C95.3994 37.9409 95.8726 36.7259 96.7363 35.8115C93.7159 31.4409 93.5724 25.2225 98.3272 21.241C97.7145 25.5354 97.8 29.2842 98.9328 32.2143C98.7848 34.9375 100.972 37.5509 103.668 38.1098C104.126 41.94 104.624 44.0364 107.418 45.211C106.152 48.4883 108.386 50.3872 109 53.4733Z" fill="#B2C1C0"/>
</g>
</g>
<g filter="url(#filter1_b_206:37278)">
<rect x="13" y="77" width="141" height="77" rx="10" fill="black" fill-opacity="0.8"/>
</g>
<path d="M35.1496 96H33.2176L32.9936 94.824L32.7556 93.984L30.9916 93.942L29.4376 93.984L29.1996 94.726L28.9616 96H27.0856L30.1376 86.984H32.3916L35.1496 96ZM32.3496 92.514L31.2856 88.762H31.1596L29.9276 92.514L31.1316 92.542L32.3496 92.514ZM38.4673 93.312L38.3973 89.616L40.2313 89.462L40.1473 93.13L40.2313 96H38.3693L38.4673 93.312ZM39.3493 86.298C39.6386 86.298 39.8626 86.382 40.0213 86.55C40.1893 86.718 40.2733 86.9513 40.2733 87.25C40.2733 87.5673 40.1846 87.8193 40.0073 88.006C39.83 88.1927 39.5873 88.286 39.2793 88.286C38.9713 88.286 38.7333 88.202 38.5653 88.034C38.4066 87.866 38.3273 87.628 38.3273 87.32C38.3273 87.012 38.416 86.7647 38.5933 86.578C38.78 86.3913 39.032 86.298 39.3493 86.298ZM45.9957 91.94C46.005 91.6133 45.9304 91.3613 45.7717 91.184C45.6224 90.9973 45.403 90.904 45.1137 90.904C44.6937 90.904 44.2457 91.1047 43.7697 91.506V93.13L43.8537 96H41.9917L42.0897 93.312L42.0197 89.616L43.7837 89.462V90.414H43.8817C44.395 89.9473 44.955 89.6113 45.5617 89.406C46.271 89.406 46.8124 89.5693 47.1857 89.896C47.559 90.2133 47.7364 90.6753 47.7177 91.282L47.6757 93.144L47.7597 96H45.8837L45.9957 91.94ZM55.6599 90.372C55.4079 90.4373 55.0485 90.5073 54.5819 90.582L54.5539 90.638C54.6939 90.918 54.7639 91.2307 54.7639 91.576C54.7639 92.276 54.5072 92.836 53.9939 93.256C53.4899 93.6667 52.8039 93.872 51.9359 93.872C51.6745 93.872 51.4039 93.8487 51.1239 93.802C51.0399 93.886 50.9839 93.9513 50.9559 93.998C50.9279 94.0447 50.9139 94.1007 50.9139 94.166C50.9139 94.334 51.0259 94.4507 51.2499 94.516C51.4739 94.5813 51.8285 94.6467 52.3139 94.712C52.8645 94.7773 53.3219 94.8567 53.6859 94.95C54.0592 95.0433 54.3765 95.2067 54.6379 95.44C54.9085 95.6733 55.0439 96.0047 55.0439 96.434C55.0439 96.8727 54.9039 97.2647 54.6239 97.61C54.3532 97.9647 53.9752 98.24 53.4899 98.436C53.0045 98.632 52.4539 98.73 51.8379 98.73C50.9885 98.73 50.3352 98.5573 49.8779 98.212C49.4205 97.8667 49.1919 97.4093 49.1919 96.84C49.4812 96.4387 49.8685 96.0887 50.3539 95.79V95.72C50.0365 95.608 49.7892 95.454 49.6119 95.258C49.4345 95.0527 49.3459 94.782 49.3459 94.446C49.5979 94.138 49.9152 93.8533 50.2979 93.592V93.522C49.9619 93.3353 49.7052 93.0927 49.5279 92.794C49.3599 92.486 49.2759 92.1267 49.2759 91.716C49.2759 90.988 49.5279 90.4187 50.0319 90.008C50.5359 89.5973 51.2219 89.392 52.0899 89.392C52.5939 89.392 53.0512 89.476 53.4619 89.644C54.1339 89.5227 54.8199 89.336 55.5199 89.084L55.6599 89.21V90.372ZM51.9919 92.752C52.3745 92.752 52.6639 92.654 52.8599 92.458C53.0559 92.262 53.1539 91.9773 53.1539 91.604C53.1539 90.8947 52.7899 90.54 52.0619 90.54C51.2779 90.54 50.8859 90.8993 50.8859 91.618C50.8859 91.9913 50.9792 92.276 51.1659 92.472C51.3525 92.6587 51.6279 92.752 51.9919 92.752ZM53.4759 96.77C53.4759 96.518 53.3405 96.3453 53.0699 96.252C52.8085 96.1587 52.4025 96.0793 51.8519 96.014L51.3759 95.944C51.1519 96.0933 50.9839 96.238 50.8719 96.378C50.7599 96.518 50.7039 96.6673 50.7039 96.826C50.7039 97.0687 50.8159 97.2647 51.0399 97.414C51.2639 97.5633 51.5905 97.638 52.0199 97.638C52.4585 97.638 52.8085 97.5587 53.0699 97.4C53.3405 97.2507 53.4759 97.0407 53.4759 96.77ZM61.3872 92.976L57.6072 93.004C57.6912 94.1707 58.2838 94.754 59.3852 94.754C59.9638 94.754 60.6078 94.5907 61.3172 94.264L61.4712 94.362L61.1912 95.748C60.4818 96.0093 59.8145 96.14 59.1892 96.14C58.1625 96.14 57.3552 95.8413 56.7672 95.244C56.1885 94.6467 55.8992 93.8207 55.8992 92.766C55.8992 91.7207 56.1838 90.8947 56.7532 90.288C57.3225 89.672 58.0925 89.364 59.0632 89.364C59.8938 89.364 60.5332 89.5927 60.9812 90.05C61.4385 90.498 61.6672 91.128 61.6672 91.94C61.6672 92.1547 61.6438 92.4253 61.5972 92.752L61.3872 92.976ZM60.0432 91.73C60.0432 91.3567 59.9592 91.0767 59.7912 90.89C59.6232 90.694 59.3758 90.596 59.0492 90.596C58.6852 90.596 58.3818 90.7173 58.1392 90.96C57.8965 91.1933 57.7332 91.534 57.6492 91.982L60.0152 91.926L60.0432 91.73ZM65.1347 89.378C65.7693 89.378 66.3667 89.4853 66.9267 89.7L66.6747 91.072L66.4507 91.142C66.18 90.9647 65.9093 90.8293 65.6387 90.736C65.368 90.6427 65.13 90.596 64.9247 90.596C64.7007 90.596 64.5233 90.6567 64.3927 90.778C64.262 90.89 64.1967 91.03 64.1967 91.198C64.1967 91.394 64.2807 91.5527 64.4487 91.674C64.626 91.7953 64.9013 91.9307 65.2747 92.08C65.648 92.2293 65.956 92.374 66.1987 92.514C66.4413 92.654 66.6467 92.85 66.8147 93.102C66.992 93.3447 67.0807 93.648 67.0807 94.012C67.0807 94.3853 66.9827 94.7353 66.7867 95.062C66.6 95.3793 66.3107 95.6407 65.9187 95.846C65.5267 96.042 65.046 96.14 64.4767 96.14C63.8047 96.14 63.1093 96 62.3907 95.72L62.6007 94.264L62.7827 94.152C63.072 94.3947 63.394 94.5907 63.7487 94.74C64.1033 94.88 64.416 94.95 64.6867 94.95C64.9387 94.95 65.1347 94.8893 65.2747 94.768C65.4147 94.6373 65.4847 94.4833 65.4847 94.306C65.4847 94.11 65.396 93.9513 65.2187 93.83C65.0507 93.7087 64.78 93.5733 64.4067 93.424C64.024 93.256 63.7113 93.1067 63.4687 92.976C63.226 92.836 63.016 92.64 62.8387 92.388C62.6707 92.136 62.5867 91.8233 62.5867 91.45C62.5867 90.8433 62.8153 90.3487 63.2727 89.966C63.73 89.574 64.3507 89.378 65.1347 89.378ZM70.9557 94.628C71.2544 94.628 71.5671 94.5487 71.8937 94.39L72.0477 94.53L71.8657 95.636C71.3897 95.8787 70.9044 96.028 70.4097 96.084C69.1497 95.9533 68.5197 95.3373 68.5197 94.236L68.5897 93.074L68.5757 90.666H67.7077L67.6377 90.568L67.7357 89.546H68.5617V88.468L70.2557 87.922L70.3817 88.034L70.3397 89.546H72.0057L72.0617 89.644L71.9777 90.666H70.3117L70.2277 93.802C70.2277 94.1007 70.2837 94.3153 70.3957 94.446C70.5077 94.5673 70.6944 94.628 70.9557 94.628ZM75.6162 89.364C76.3349 89.364 76.8949 89.5273 77.2962 89.854C77.7069 90.1713 77.9122 90.6193 77.9122 91.198C77.9122 91.366 77.8842 91.898 77.8282 92.794C77.8189 93.0553 77.8049 93.326 77.7862 93.606C77.7675 93.8767 77.7582 94.11 77.7582 94.306C77.7582 94.4647 77.7815 94.5767 77.8282 94.642C77.8749 94.698 77.9589 94.726 78.0802 94.726C78.1735 94.726 78.2949 94.7073 78.4442 94.67L78.5842 94.782L78.4162 95.762C78.1175 95.958 77.7769 96.0747 77.3942 96.112C77.1142 96.084 76.8809 95.986 76.6942 95.818C76.5075 95.6407 76.3815 95.398 76.3162 95.09H76.2182C75.7515 95.5847 75.2709 95.93 74.7762 96.126C74.1042 96.1167 73.5769 95.9393 73.1942 95.594C72.8115 95.2487 72.6202 94.7773 72.6202 94.18C72.6202 93.7133 72.7369 93.3493 72.9702 93.088C73.2129 92.8173 73.5769 92.6353 74.0622 92.542L76.2042 92.136V91.562C76.2042 90.9553 75.9055 90.652 75.3082 90.652C75.0189 90.652 74.7109 90.7173 74.3842 90.848C74.0669 90.9787 73.7075 91.184 73.3062 91.464L73.1662 91.38L72.9562 90.148C73.3575 89.896 73.7869 89.7047 74.2442 89.574C74.7015 89.434 75.1589 89.364 75.6162 89.364ZM74.7062 93.396C74.5569 93.4333 74.4449 93.4987 74.3702 93.592C74.3049 93.676 74.2722 93.8067 74.2722 93.984C74.2722 94.2267 74.3375 94.418 74.4682 94.558C74.5989 94.6887 74.7809 94.754 75.0142 94.754C75.3782 94.754 75.7609 94.5393 76.1622 94.11L76.1902 93.074L74.7062 93.396ZM77.9122 86.732V86.886L76.9322 88.132L76.7502 88.202C76.4982 88.174 76.1109 88.0853 75.5882 87.936C75.5415 87.9267 75.3875 87.8893 75.1262 87.824C74.8742 87.7493 74.6969 87.712 74.5942 87.712C74.4915 87.712 74.3889 87.754 74.2862 87.838C74.1929 87.922 74.0902 88.0247 73.9782 88.146C73.8662 88.2673 73.7822 88.3607 73.7262 88.426H73.5582L72.9982 87.88V87.726L73.9922 86.48L74.1602 86.41C74.3842 86.438 74.7809 86.5313 75.3502 86.69C75.8729 86.83 76.1949 86.9 76.3162 86.9C76.4282 86.9 76.5355 86.8533 76.6382 86.76C76.7502 86.6667 76.8622 86.5593 76.9742 86.438C77.0862 86.3167 77.1609 86.2327 77.1982 86.186H77.3662L77.9122 86.732ZM82.4964 89.364C83.4484 89.364 84.1764 89.644 84.6804 90.204C85.1844 90.764 85.4364 91.5713 85.4364 92.626C85.4364 93.7647 85.1658 94.6373 84.6244 95.244C84.0831 95.8413 83.3038 96.14 82.2864 96.14C81.3344 96.14 80.6064 95.86 80.1024 95.3C79.5984 94.74 79.3464 93.9327 79.3464 92.878C79.3464 91.7393 79.6171 90.8713 80.1584 90.274C80.6998 89.6673 81.4791 89.364 82.4964 89.364ZM82.3704 90.624C81.9224 90.624 81.5958 90.7733 81.3904 91.072C81.1944 91.3707 81.0964 91.8513 81.0964 92.514C81.0964 93.3727 81.1991 93.984 81.4044 94.348C81.6098 94.712 81.9458 94.894 82.4124 94.894C82.8604 94.894 83.1824 94.7493 83.3784 94.46C83.5838 94.1613 83.6864 93.676 83.6864 93.004C83.6864 92.1547 83.5791 91.548 83.3644 91.184C83.1591 90.8107 82.8278 90.624 82.3704 90.624ZM94.2635 93.13L94.3055 94.306C94.3055 94.4647 94.3242 94.5767 94.3615 94.642C94.4082 94.698 94.4875 94.726 94.5995 94.726C94.7022 94.726 94.8282 94.7073 94.9775 94.67L95.1035 94.782L94.9495 95.762C94.6322 95.958 94.2869 96.0747 93.9135 96.112C93.6242 96.084 93.3815 95.986 93.1855 95.818C92.9895 95.65 92.8542 95.4213 92.7795 95.132H92.6675C92.2102 95.552 91.7435 95.874 91.2675 96.098C90.3529 96.098 89.6435 95.8087 89.1395 95.23C88.6355 94.642 88.3835 93.83 88.3835 92.794C88.3835 91.6927 88.6729 90.848 89.2515 90.26C89.8302 89.672 90.6329 89.378 91.6595 89.378C91.9302 89.378 92.2289 89.406 92.5555 89.462L92.5275 86.312L94.3755 86.172L94.2635 93.13ZM91.5335 90.638C90.6002 90.638 90.1335 91.2307 90.1335 92.416C90.1335 93.1533 90.2455 93.7087 90.4695 94.082C90.6935 94.4553 91.0202 94.642 91.4495 94.642C91.8602 94.642 92.2382 94.4507 92.5835 94.068L92.6115 93.298L92.5695 90.89C92.2055 90.722 91.8602 90.638 91.5335 90.638ZM101.241 92.976L97.4607 93.004C97.5447 94.1707 98.1373 94.754 99.2387 94.754C99.8173 94.754 100.461 94.5907 101.171 94.264L101.325 94.362L101.045 95.748C100.335 96.0093 99.668 96.14 99.0427 96.14C98.016 96.14 97.2087 95.8413 96.6207 95.244C96.042 94.6467 95.7527 93.8207 95.7527 92.766C95.7527 91.7207 96.0373 90.8947 96.6067 90.288C97.176 89.672 97.946 89.364 98.9167 89.364C99.7473 89.364 100.387 89.5927 100.835 90.05C101.292 90.498 101.521 91.128 101.521 91.94C101.521 92.1547 101.497 92.4253 101.451 92.752L101.241 92.976ZM99.8967 91.73C99.8967 91.3567 99.8127 91.0767 99.6447 90.89C99.4767 90.694 99.2293 90.596 98.9027 90.596C98.5387 90.596 98.2353 90.7173 97.9927 90.96C97.75 91.1933 97.5867 91.534 97.5027 91.982L99.8687 91.926L99.8967 91.73ZM107.723 89.042L107.611 93.088L107.709 96H105.819L105.903 93.284V90.96L104.321 91.38L104.181 91.282V89.784L107.457 88.846L107.723 89.042ZM114.714 88.958L114.518 90.4L114.378 90.54L113.104 90.4H111.48L111.438 91.968L112.306 92.15C113.118 92.318 113.702 92.584 114.056 92.948C114.42 93.3027 114.602 93.7787 114.602 94.376C114.602 94.964 114.453 95.4867 114.154 95.944C113.856 96.392 113.431 96.7373 112.88 96.98C112.339 97.232 111.718 97.358 111.018 97.358C110.533 97.358 110.02 97.302 109.478 97.19L109.38 95.734L109.506 95.608C110.122 95.8227 110.678 95.93 111.172 95.93C111.686 95.93 112.092 95.8133 112.39 95.58C112.689 95.3373 112.838 95.02 112.838 94.628C112.838 94.3107 112.731 94.0633 112.516 93.886C112.302 93.6993 111.952 93.564 111.466 93.48L110.122 93.242L109.996 93.088L110.066 89.098L110.29 88.888L111.102 88.916H113.146L114.602 88.846L114.714 88.958ZM119.441 86.648L116.543 97.61H115.255L115.143 97.456L118.027 86.48H119.287L119.441 86.648ZM122.524 88.846C123.168 88.846 123.695 89 124.106 89.308C124.516 89.6067 124.722 90.022 124.722 90.554C124.722 90.9273 124.596 91.3427 124.344 91.8C124.101 92.248 123.704 92.766 123.154 93.354L122.104 94.516L122.132 94.572H124.022L125.282 94.46L125.394 94.586L125.17 96.084L123.476 96H120.298L119.78 96.028L119.682 95.958V94.824L121.572 92.962C122.02 92.5047 122.351 92.1267 122.566 91.828C122.78 91.5293 122.888 91.268 122.888 91.044C122.888 90.8573 122.818 90.708 122.678 90.596C122.538 90.484 122.342 90.428 122.09 90.428C121.791 90.428 121.478 90.5027 121.152 90.652C120.825 90.8013 120.522 91.002 120.242 91.254H120.032L119.724 89.812C120.685 89.168 121.618 88.846 122.524 88.846ZM129.506 88.818C130.458 88.818 131.19 89.126 131.704 89.742C132.226 90.358 132.488 91.2307 132.488 92.36C132.488 93.5547 132.208 94.4833 131.648 95.146C131.088 95.7993 130.294 96.126 129.268 96.126C128.316 96.126 127.578 95.818 127.056 95.202C126.533 94.586 126.272 93.7227 126.272 92.612C126.272 91.408 126.552 90.4747 127.112 89.812C127.681 89.1493 128.479 88.818 129.506 88.818ZM129.366 90.54C128.806 90.54 128.39 90.6987 128.12 91.016C127.849 91.324 127.714 91.814 127.714 92.486C127.714 93.1673 127.849 93.6713 128.12 93.998C128.39 94.3247 128.81 94.488 129.38 94.488C129.94 94.488 130.355 94.334 130.626 94.026C130.906 93.7087 131.046 93.2233 131.046 92.57C131.046 91.8793 130.906 91.3707 130.626 91.044C130.346 90.708 129.926 90.54 129.366 90.54ZM140.138 90.372C139.886 90.4373 139.527 90.5073 139.06 90.582L139.032 90.638C139.172 90.918 139.242 91.2307 139.242 91.576C139.242 92.276 138.986 92.836 138.472 93.256C137.968 93.6667 137.282 93.872 136.414 93.872C136.153 93.872 135.882 93.8487 135.602 93.802C135.518 93.886 135.462 93.9513 135.434 93.998C135.406 94.0447 135.392 94.1007 135.392 94.166C135.392 94.334 135.504 94.4507 135.728 94.516C135.952 94.5813 136.307 94.6467 136.792 94.712C137.343 94.7773 137.8 94.8567 138.164 94.95C138.538 95.0433 138.855 95.2067 139.116 95.44C139.387 95.6733 139.522 96.0047 139.522 96.434C139.522 96.8727 139.382 97.2647 139.102 97.61C138.832 97.9647 138.454 98.24 137.968 98.436C137.483 98.632 136.932 98.73 136.316 98.73C135.467 98.73 134.814 98.5573 134.356 98.212C133.899 97.8667 133.67 97.4093 133.67 96.84C133.96 96.4387 134.347 96.0887 134.832 95.79V95.72C134.515 95.608 134.268 95.454 134.09 95.258C133.913 95.0527 133.824 94.782 133.824 94.446C134.076 94.138 134.394 93.8533 134.776 93.592V93.522C134.44 93.3353 134.184 93.0927 134.006 92.794C133.838 92.486 133.754 92.1267 133.754 91.716C133.754 90.988 134.006 90.4187 134.51 90.008C135.014 89.5973 135.7 89.392 136.568 89.392C137.072 89.392 137.53 89.476 137.94 89.644C138.612 89.5227 139.298 89.336 139.998 89.084L140.138 89.21V90.372ZM136.47 92.752C136.853 92.752 137.142 92.654 137.338 92.458C137.534 92.262 137.632 91.9773 137.632 91.604C137.632 90.8947 137.268 90.54 136.54 90.54C135.756 90.54 135.364 90.8993 135.364 91.618C135.364 91.9913 135.458 92.276 135.644 92.472C135.831 92.6587 136.106 92.752 136.47 92.752ZM137.954 96.77C137.954 96.518 137.819 96.3453 137.548 96.252C137.287 96.1587 136.881 96.0793 136.33 96.014L135.854 95.944C135.63 96.0933 135.462 96.238 135.35 96.378C135.238 96.518 135.182 96.6673 135.182 96.826C135.182 97.0687 135.294 97.2647 135.518 97.414C135.742 97.5633 136.069 97.638 136.498 97.638C136.937 97.638 137.287 97.5587 137.548 97.4C137.819 97.2507 137.954 97.0407 137.954 96.77ZM47.3075 109.13L47.3495 110.306C47.3495 110.465 47.3682 110.577 47.4055 110.642C47.4522 110.698 47.5315 110.726 47.6435 110.726C47.7462 110.726 47.8722 110.707 48.0215 110.67L48.1475 110.782L47.9935 111.762C47.6762 111.958 47.3308 112.075 46.9575 112.112C46.6682 112.084 46.4255 111.986 46.2295 111.818C46.0335 111.65 45.8982 111.421 45.8235 111.132H45.7115C45.2542 111.552 44.7875 111.874 44.3115 112.098C43.3968 112.098 42.6875 111.809 42.1835 111.23C41.6795 110.642 41.4275 109.83 41.4275 108.794C41.4275 107.693 41.7168 106.848 42.2955 106.26C42.8742 105.672 43.6768 105.378 44.7035 105.378C44.9742 105.378 45.2728 105.406 45.5995 105.462L45.5715 102.312L47.4195 102.172L47.3075 109.13ZM44.5775 106.638C43.6442 106.638 43.1775 107.231 43.1775 108.416C43.1775 109.153 43.2895 109.709 43.5135 110.082C43.7375 110.455 44.0642 110.642 44.4935 110.642C44.9042 110.642 45.2822 110.451 45.6275 110.068L45.6555 109.298L45.6135 106.89C45.2495 106.722 44.9042 106.638 44.5775 106.638ZM54.2846 108.976L50.5046 109.004C50.5886 110.171 51.1813 110.754 52.2826 110.754C52.8613 110.754 53.5053 110.591 54.2146 110.264L54.3686 110.362L54.0886 111.748C53.3793 112.009 52.712 112.14 52.0866 112.14C51.06 112.14 50.2526 111.841 49.6646 111.244C49.086 110.647 48.7966 109.821 48.7966 108.766C48.7966 107.721 49.0813 106.895 49.6506 106.288C50.22 105.672 50.99 105.364 51.9606 105.364C52.7913 105.364 53.4306 105.593 53.8786 106.05C54.336 106.498 54.5646 107.128 54.5646 107.94C54.5646 108.155 54.5413 108.425 54.4946 108.752L54.2846 108.976ZM52.9406 107.73C52.9406 107.357 52.8566 107.077 52.6886 106.89C52.5206 106.694 52.2733 106.596 51.9466 106.596C51.5826 106.596 51.2793 106.717 51.0366 106.96C50.794 107.193 50.6306 107.534 50.5466 107.982L52.9126 107.926L52.9406 107.73ZM64.2253 106.372C63.9733 106.437 63.6139 106.507 63.1473 106.582L63.1193 106.638C63.2593 106.918 63.3293 107.231 63.3293 107.576C63.3293 108.276 63.0726 108.836 62.5593 109.256C62.0553 109.667 61.3693 109.872 60.5013 109.872C60.2399 109.872 59.9693 109.849 59.6893 109.802C59.6053 109.886 59.5493 109.951 59.5213 109.998C59.4933 110.045 59.4793 110.101 59.4793 110.166C59.4793 110.334 59.5913 110.451 59.8153 110.516C60.0393 110.581 60.3939 110.647 60.8793 110.712C61.4299 110.777 61.8873 110.857 62.2513 110.95C62.6246 111.043 62.9419 111.207 63.2033 111.44C63.4739 111.673 63.6093 112.005 63.6093 112.434C63.6093 112.873 63.4693 113.265 63.1893 113.61C62.9186 113.965 62.5406 114.24 62.0553 114.436C61.5699 114.632 61.0193 114.73 60.4033 114.73C59.5539 114.73 58.9006 114.557 58.4433 114.212C57.9859 113.867 57.7573 113.409 57.7573 112.84C58.0466 112.439 58.4339 112.089 58.9193 111.79V111.72C58.6019 111.608 58.3546 111.454 58.1773 111.258C57.9999 111.053 57.9113 110.782 57.9113 110.446C58.1633 110.138 58.4806 109.853 58.8633 109.592V109.522C58.5273 109.335 58.2706 109.093 58.0933 108.794C57.9253 108.486 57.8413 108.127 57.8413 107.716C57.8413 106.988 58.0933 106.419 58.5973 106.008C59.1013 105.597 59.7873 105.392 60.6553 105.392C61.1593 105.392 61.6166 105.476 62.0273 105.644C62.6993 105.523 63.3853 105.336 64.0853 105.084L64.2253 105.21V106.372ZM60.5573 108.752C60.9399 108.752 61.2293 108.654 61.4253 108.458C61.6213 108.262 61.7193 107.977 61.7193 107.604C61.7193 106.895 61.3553 106.54 60.6273 106.54C59.8433 106.54 59.4513 106.899 59.4513 107.618C59.4513 107.991 59.5446 108.276 59.7313 108.472C59.9179 108.659 60.1933 108.752 60.5573 108.752ZM62.0413 112.77C62.0413 112.518 61.9059 112.345 61.6353 112.252C61.3739 112.159 60.9679 112.079 60.4173 112.014L59.9413 111.944C59.7173 112.093 59.5493 112.238 59.4373 112.378C59.3253 112.518 59.2693 112.667 59.2693 112.826C59.2693 113.069 59.3813 113.265 59.6053 113.414C59.8293 113.563 60.1559 113.638 60.5853 113.638C61.0239 113.638 61.3739 113.559 61.6353 113.4C61.9059 113.251 62.0413 113.041 62.0413 112.77ZM66.7873 109.13L66.8853 112H65.0233L65.1213 109.298L65.0373 102.312L66.8993 102.172L66.7873 109.13ZM68.771 109.312L68.701 105.616L70.535 105.462L70.451 109.13L70.535 112H68.673L68.771 109.312ZM69.653 102.298C69.9423 102.298 70.1663 102.382 70.325 102.55C70.493 102.718 70.577 102.951 70.577 103.25C70.577 103.567 70.4883 103.819 70.311 104.006C70.1337 104.193 69.891 104.286 69.583 104.286C69.275 104.286 69.037 104.202 68.869 104.034C68.7103 103.866 68.631 103.628 68.631 103.32C68.631 103.012 68.7197 102.765 68.897 102.578C69.0837 102.391 69.3357 102.298 69.653 102.298ZM74.9694 105.364C75.2774 105.364 75.5807 105.397 75.8794 105.462C76.1874 105.518 76.4581 105.602 76.6914 105.714L76.3834 107.198L76.2294 107.268C75.7534 107.007 75.3287 106.876 74.9554 106.876C74.5261 106.876 74.1947 107.03 73.9614 107.338C73.7281 107.646 73.6114 108.085 73.6114 108.654C73.6114 109.307 73.7374 109.807 73.9894 110.152C74.2414 110.497 74.6007 110.67 75.0674 110.67C75.4874 110.67 75.9541 110.553 76.4674 110.32L76.6074 110.432L76.4254 111.874C75.8654 112.051 75.2914 112.14 74.7034 112.14C73.8074 112.14 73.1074 111.851 72.6034 111.272C72.0994 110.684 71.8474 109.867 71.8474 108.822C71.8474 107.739 72.1227 106.895 72.6734 106.288C73.2241 105.672 73.9894 105.364 74.9694 105.364ZM80.3841 105.364C81.3361 105.364 82.0641 105.644 82.5681 106.204C83.0721 106.764 83.3241 107.571 83.3241 108.626C83.3241 109.765 83.0535 110.637 82.5121 111.244C81.9708 111.841 81.1915 112.14 80.1741 112.14C79.2221 112.14 78.4941 111.86 77.9901 111.3C77.4861 110.74 77.2341 109.933 77.2341 108.878C77.2341 107.739 77.5048 106.871 78.0461 106.274C78.5875 105.667 79.3668 105.364 80.3841 105.364ZM80.2581 106.624C79.8101 106.624 79.4835 106.773 79.2781 107.072C79.0821 107.371 78.9841 107.851 78.9841 108.514C78.9841 109.373 79.0868 109.984 79.2921 110.348C79.4975 110.712 79.8335 110.894 80.3001 110.894C80.7481 110.894 81.0701 110.749 81.2661 110.46C81.4715 110.161 81.5741 109.676 81.5741 109.004C81.5741 108.155 81.4668 107.548 81.2521 107.184C81.0468 106.811 80.7155 106.624 80.2581 106.624ZM86.7841 105.378C87.4188 105.378 88.0161 105.485 88.5761 105.7L88.3241 107.072L88.1001 107.142C87.8294 106.965 87.5588 106.829 87.2881 106.736C87.0174 106.643 86.7794 106.596 86.5741 106.596C86.3501 106.596 86.1728 106.657 86.0421 106.778C85.9114 106.89 85.8461 107.03 85.8461 107.198C85.8461 107.394 85.9301 107.553 86.0981 107.674C86.2754 107.795 86.5508 107.931 86.9241 108.08C87.2974 108.229 87.6054 108.374 87.8481 108.514C88.0908 108.654 88.2961 108.85 88.4641 109.102C88.6414 109.345 88.7301 109.648 88.7301 110.012C88.7301 110.385 88.6321 110.735 88.4361 111.062C88.2494 111.379 87.9601 111.641 87.5681 111.846C87.1761 112.042 86.6954 112.14 86.1261 112.14C85.4541 112.14 84.7588 112 84.0401 111.72L84.2501 110.264L84.4321 110.152C84.7214 110.395 85.0434 110.591 85.3981 110.74C85.7528 110.88 86.0654 110.95 86.3361 110.95C86.5881 110.95 86.7841 110.889 86.9241 110.768C87.0641 110.637 87.1341 110.483 87.1341 110.306C87.1341 110.11 87.0454 109.951 86.8681 109.83C86.7001 109.709 86.4294 109.573 86.0561 109.424C85.6734 109.256 85.3608 109.107 85.1181 108.976C84.8754 108.836 84.6654 108.64 84.4881 108.388C84.3201 108.136 84.2361 107.823 84.2361 107.45C84.2361 106.843 84.4648 106.349 84.9221 105.966C85.3794 105.574 86.0001 105.378 86.7841 105.378ZM95.0131 108.976L91.2331 109.004C91.3171 110.171 91.9098 110.754 93.0111 110.754C93.5898 110.754 94.2338 110.591 94.9431 110.264L95.0971 110.362L94.8171 111.748C94.1078 112.009 93.4405 112.14 92.8151 112.14C91.7885 112.14 90.9811 111.841 90.3931 111.244C89.8145 110.647 89.5251 109.821 89.5251 108.766C89.5251 107.721 89.8098 106.895 90.3791 106.288C90.9485 105.672 91.7185 105.364 92.6891 105.364C93.5198 105.364 94.1591 105.593 94.6071 106.05C95.0645 106.498 95.2931 107.128 95.2931 107.94C95.2931 108.155 95.2698 108.425 95.2231 108.752L95.0131 108.976ZM93.6691 107.73C93.6691 107.357 93.5851 107.077 93.4171 106.89C93.2491 106.694 93.0018 106.596 92.6751 106.596C92.3111 106.596 92.0078 106.717 91.7651 106.96C91.5225 107.193 91.3591 107.534 91.2751 107.982L93.6411 107.926L93.6691 107.73ZM102.14 105.406C102.952 105.406 103.577 105.681 104.016 106.232C104.454 106.783 104.674 107.562 104.674 108.57C104.674 109.709 104.389 110.591 103.82 111.216C103.26 111.832 102.466 112.14 101.44 112.14C101.141 112.14 100.828 112.112 100.502 112.056L100.544 114.59H98.6958L98.7938 109.312L98.7098 105.616L100.488 105.462L100.474 106.414H100.572C100.833 106.162 101.085 105.961 101.328 105.812C101.57 105.653 101.841 105.518 102.14 105.406ZM101.454 110.922C101.939 110.922 102.308 110.749 102.56 110.404C102.812 110.059 102.938 109.55 102.938 108.878C102.938 108.225 102.83 107.735 102.616 107.408C102.41 107.072 102.102 106.904 101.692 106.904C101.29 106.904 100.884 107.105 100.474 107.506L100.46 109.13L100.488 110.712C100.824 110.852 101.146 110.922 101.454 110.922ZM108.644 105.364C109.596 105.364 110.324 105.644 110.828 106.204C111.332 106.764 111.584 107.571 111.584 108.626C111.584 109.765 111.313 110.637 110.772 111.244C110.231 111.841 109.451 112.14 108.434 112.14C107.482 112.14 106.754 111.86 106.25 111.3C105.746 110.74 105.494 109.933 105.494 108.878C105.494 107.739 105.765 106.871 106.306 106.274C106.847 105.667 107.627 105.364 108.644 105.364ZM108.518 106.624C108.07 106.624 107.743 106.773 107.538 107.072C107.342 107.371 107.244 107.851 107.244 108.514C107.244 109.373 107.347 109.984 107.552 110.348C107.757 110.712 108.093 110.894 108.56 110.894C109.008 110.894 109.33 110.749 109.526 110.46C109.731 110.161 109.834 109.676 109.834 109.004C109.834 108.155 109.727 107.548 109.512 107.184C109.307 106.811 108.975 106.624 108.518 106.624ZM118.292 109.13L118.334 110.306C118.334 110.465 118.353 110.577 118.39 110.642C118.437 110.698 118.516 110.726 118.628 110.726C118.731 110.726 118.857 110.707 119.006 110.67L119.132 110.782L118.978 111.762C118.661 111.958 118.315 112.075 117.942 112.112C117.653 112.084 117.41 111.986 117.214 111.818C117.018 111.65 116.883 111.421 116.808 111.132H116.696C116.239 111.552 115.772 111.874 115.296 112.098C114.381 112.098 113.672 111.809 113.168 111.23C112.664 110.642 112.412 109.83 112.412 108.794C112.412 107.693 112.701 106.848 113.28 106.26C113.859 105.672 114.661 105.378 115.688 105.378C115.959 105.378 116.257 105.406 116.584 105.462L116.556 102.312L118.404 102.172L118.292 109.13ZM115.562 106.638C114.629 106.638 114.162 107.231 114.162 108.416C114.162 109.153 114.274 109.709 114.498 110.082C114.722 110.455 115.049 110.642 115.478 110.642C115.889 110.642 116.267 110.451 116.612 110.068L116.64 109.298L116.598 106.89C116.234 106.722 115.889 106.638 115.562 106.638ZM125.269 108.976L121.489 109.004C121.573 110.171 122.166 110.754 123.267 110.754C123.846 110.754 124.49 110.591 125.199 110.264L125.353 110.362L125.073 111.748C124.364 112.009 123.696 112.14 123.071 112.14C122.044 112.14 121.237 111.841 120.649 111.244C120.07 110.647 119.781 109.821 119.781 108.766C119.781 107.721 120.066 106.895 120.635 106.288C121.204 105.672 121.974 105.364 122.945 105.364C123.776 105.364 124.415 105.593 124.863 106.05C125.32 106.498 125.549 107.128 125.549 107.94C125.549 108.155 125.526 108.425 125.479 108.752L125.269 108.976ZM123.925 107.73C123.925 107.357 123.841 107.077 123.673 106.89C123.505 106.694 123.258 106.596 122.931 106.596C122.567 106.596 122.264 106.717 122.021 106.96C121.778 107.193 121.615 107.534 121.531 107.982L123.897 107.926L123.925 107.73ZM35.2184 121.364C35.5264 121.364 35.8298 121.397 36.1284 121.462C36.4364 121.518 36.7071 121.602 36.9404 121.714L36.6324 123.198L36.4784 123.268C36.0024 123.007 35.5778 122.876 35.2044 122.876C34.7751 122.876 34.4438 123.03 34.2104 123.338C33.9771 123.646 33.8604 124.085 33.8604 124.654C33.8604 125.307 33.9864 125.807 34.2384 126.152C34.4904 126.497 34.8498 126.67 35.3164 126.67C35.7364 126.67 36.2031 126.553 36.7164 126.32L36.8564 126.432L36.6744 127.874C36.1144 128.051 35.5404 128.14 34.9524 128.14C34.0564 128.14 33.3564 127.851 32.8524 127.272C32.3484 126.684 32.0964 125.867 32.0964 124.822C32.0964 123.739 32.3718 122.895 32.9224 122.288C33.4731 121.672 34.2384 121.364 35.2184 121.364ZM40.6331 121.364C41.5851 121.364 42.3131 121.644 42.8171 122.204C43.3211 122.764 43.5731 123.571 43.5731 124.626C43.5731 125.765 43.3025 126.637 42.7611 127.244C42.2198 127.841 41.4405 128.14 40.4231 128.14C39.4711 128.14 38.7431 127.86 38.2391 127.3C37.7351 126.74 37.4831 125.933 37.4831 124.878C37.4831 123.739 37.7538 122.871 38.2951 122.274C38.8365 121.667 39.6158 121.364 40.6331 121.364ZM40.5071 122.624C40.0591 122.624 39.7325 122.773 39.5271 123.072C39.3311 123.371 39.2331 123.851 39.2331 124.514C39.2331 125.373 39.3358 125.984 39.5411 126.348C39.7465 126.712 40.0825 126.894 40.5491 126.894C40.9971 126.894 41.3191 126.749 41.5151 126.46C41.7205 126.161 41.8231 125.676 41.8231 125.004C41.8231 124.155 41.7158 123.548 41.5011 123.184C41.2958 122.811 40.9645 122.624 40.5071 122.624ZM48.3651 121.476C48.4491 121.476 48.5658 121.485 48.7151 121.504V123.226L48.5191 123.296C48.3604 123.231 48.1878 123.198 48.0011 123.198C47.4598 123.198 46.9698 123.548 46.5311 124.248V125.13L46.6291 128H44.7671L44.8791 125.312L44.7951 121.616L46.5591 121.462L46.5451 122.736H46.6571C47.1144 121.896 47.6838 121.476 48.3651 121.476ZM53.2323 121.476C53.3163 121.476 53.4329 121.485 53.5823 121.504V123.226L53.3863 123.296C53.2276 123.231 53.0549 123.198 52.8683 123.198C52.3269 123.198 51.8369 123.548 51.3983 124.248V125.13L51.4963 128H49.6343L49.7463 125.312L49.6623 121.616L51.4263 121.462L51.4123 122.736H51.5243C51.9816 121.896 52.5509 121.476 53.2323 121.476ZM54.6275 125.312L54.5575 121.616L56.3915 121.462L56.3075 125.13L56.3915 128H54.5295L54.6275 125.312ZM55.5095 118.298C55.7988 118.298 56.0228 118.382 56.1815 118.55C56.3495 118.718 56.4335 118.951 56.4335 119.25C56.4335 119.567 56.3448 119.819 56.1675 120.006C55.9901 120.193 55.7475 120.286 55.4395 120.286C55.1315 120.286 54.8935 120.202 54.7255 120.034C54.5668 119.866 54.4875 119.628 54.4875 119.32C54.4875 119.012 54.5761 118.765 54.7535 118.578C54.9401 118.391 55.1921 118.298 55.5095 118.298ZM64.4099 122.372C64.1579 122.437 63.7985 122.507 63.3319 122.582L63.3039 122.638C63.4439 122.918 63.5139 123.231 63.5139 123.576C63.5139 124.276 63.2572 124.836 62.7439 125.256C62.2399 125.667 61.5539 125.872 60.6859 125.872C60.4245 125.872 60.1539 125.849 59.8739 125.802C59.7899 125.886 59.7339 125.951 59.7059 125.998C59.6779 126.045 59.6639 126.101 59.6639 126.166C59.6639 126.334 59.7759 126.451 59.9999 126.516C60.2239 126.581 60.5785 126.647 61.0639 126.712C61.6145 126.777 62.0719 126.857 62.4359 126.95C62.8092 127.043 63.1265 127.207 63.3879 127.44C63.6585 127.673 63.7939 128.005 63.7939 128.434C63.7939 128.873 63.6539 129.265 63.3739 129.61C63.1032 129.965 62.7252 130.24 62.2399 130.436C61.7545 130.632 61.2039 130.73 60.5879 130.73C59.7385 130.73 59.0852 130.557 58.6279 130.212C58.1705 129.867 57.9419 129.409 57.9419 128.84C58.2312 128.439 58.6185 128.089 59.1039 127.79V127.72C58.7865 127.608 58.5392 127.454 58.3619 127.258C58.1845 127.053 58.0959 126.782 58.0959 126.446C58.3479 126.138 58.6652 125.853 59.0479 125.592V125.522C58.7119 125.335 58.4552 125.093 58.2779 124.794C58.1099 124.486 58.0259 124.127 58.0259 123.716C58.0259 122.988 58.2779 122.419 58.7819 122.008C59.2859 121.597 59.9719 121.392 60.8399 121.392C61.3439 121.392 61.8012 121.476 62.2119 121.644C62.8839 121.523 63.5699 121.336 64.2699 121.084L64.4099 121.21V122.372ZM60.7419 124.752C61.1245 124.752 61.4139 124.654 61.6099 124.458C61.8059 124.262 61.9039 123.977 61.9039 123.604C61.9039 122.895 61.5399 122.54 60.8119 122.54C60.0279 122.54 59.6359 122.899 59.6359 123.618C59.6359 123.991 59.7292 124.276 59.9159 124.472C60.1025 124.659 60.3779 124.752 60.7419 124.752ZM62.2259 128.77C62.2259 128.518 62.0905 128.345 61.8199 128.252C61.5585 128.159 61.1525 128.079 60.6019 128.014L60.1259 127.944C59.9019 128.093 59.7339 128.238 59.6219 128.378C59.5099 128.518 59.4539 128.667 59.4539 128.826C59.4539 129.069 59.5659 129.265 59.7899 129.414C60.0139 129.563 60.3405 129.638 60.7699 129.638C61.2085 129.638 61.5585 129.559 61.8199 129.4C62.0905 129.251 62.2259 129.041 62.2259 128.77ZM65.2779 125.312L65.2079 121.616L67.0419 121.462L66.9579 125.13L67.0419 128H65.1799L65.2779 125.312ZM66.1599 118.298C66.4492 118.298 66.6732 118.382 66.8319 118.55C66.9999 118.718 67.0839 118.951 67.0839 119.25C67.0839 119.567 66.9952 119.819 66.8179 120.006C66.6405 120.193 66.3979 120.286 66.0899 120.286C65.7819 120.286 65.5439 120.202 65.3759 120.034C65.2172 119.866 65.1379 119.628 65.1379 119.32C65.1379 119.012 65.2265 118.765 65.4039 118.578C65.5905 118.391 65.8425 118.298 66.1599 118.298ZM72.4002 121.476C72.4842 121.476 72.6009 121.485 72.7502 121.504V123.226L72.5542 123.296C72.3956 123.231 72.2229 123.198 72.0362 123.198C71.4949 123.198 71.0049 123.548 70.5662 124.248V125.13L70.6642 128H68.8022L68.9142 125.312L68.8302 121.616L70.5942 121.462L70.5802 122.736H70.6922C71.1496 121.896 71.7189 121.476 72.4002 121.476ZM78.3506 121.364C79.0692 121.364 79.6292 121.527 80.0306 121.854C80.4412 122.171 80.6466 122.619 80.6466 123.198C80.6466 123.366 80.6186 123.898 80.5626 124.794C80.5532 125.055 80.5392 125.326 80.5206 125.606C80.5019 125.877 80.4926 126.11 80.4926 126.306C80.4926 126.465 80.5159 126.577 80.5626 126.642C80.6092 126.698 80.6932 126.726 80.8146 126.726C80.9079 126.726 81.0292 126.707 81.1786 126.67L81.3186 126.782L81.1506 127.762C80.8519 127.958 80.5112 128.075 80.1286 128.112C79.8486 128.084 79.6152 127.986 79.4286 127.818C79.2419 127.641 79.1159 127.398 79.0506 127.09H78.9526C78.4859 127.585 78.0052 127.93 77.5106 128.126C76.8386 128.117 76.3112 127.939 75.9286 127.594C75.5459 127.249 75.3546 126.777 75.3546 126.18C75.3546 125.713 75.4712 125.349 75.7046 125.088C75.9472 124.817 76.3112 124.635 76.7966 124.542L78.9386 124.136V123.562C78.9386 122.955 78.6399 122.652 78.0426 122.652C77.7532 122.652 77.4452 122.717 77.1186 122.848C76.8012 122.979 76.4419 123.184 76.0406 123.464L75.9006 123.38L75.6906 122.148C76.0919 121.896 76.5212 121.705 76.9786 121.574C77.4359 121.434 77.8932 121.364 78.3506 121.364ZM77.4406 125.396C77.2912 125.433 77.1792 125.499 77.1046 125.592C77.0392 125.676 77.0066 125.807 77.0066 125.984C77.0066 126.227 77.0719 126.418 77.2026 126.558C77.3332 126.689 77.5152 126.754 77.7486 126.754C78.1126 126.754 78.4952 126.539 78.8966 126.11L78.9246 125.074L77.4406 125.396ZM90.0379 121.378L90.1919 121.462L90.0799 125.13L90.1779 130.59H88.3299L88.4139 127.65V127.3H88.3019C87.9193 127.627 87.4993 127.893 87.0419 128.098C86.1366 128.098 85.4366 127.809 84.9419 127.23C84.4473 126.642 84.1999 125.839 84.1999 124.822C84.1999 123.711 84.4893 122.862 85.0679 122.274C85.6466 121.677 86.4213 121.378 87.3919 121.378C87.8959 121.378 88.4559 121.481 89.0719 121.686L90.0379 121.378ZM87.3359 122.638C86.4119 122.638 85.9499 123.254 85.9499 124.486C85.9499 125.186 86.0573 125.723 86.2719 126.096C86.4959 126.46 86.8179 126.642 87.2379 126.642C87.4339 126.642 87.6253 126.6 87.8119 126.516C88.0079 126.423 88.2086 126.273 88.4139 126.068L88.4279 125.326L88.3859 122.932C88.0126 122.736 87.6626 122.638 87.3359 122.638ZM98.1237 126.782L97.9557 127.762C97.6104 127.986 97.2557 128.103 96.8917 128.112C96.621 128.065 96.397 127.958 96.2197 127.79C96.0424 127.622 95.907 127.379 95.8137 127.062H95.6877C95.1557 127.585 94.605 127.925 94.0357 128.084C93.3264 128.084 92.785 127.925 92.4117 127.608C92.0477 127.281 91.8704 126.815 91.8797 126.208L91.9077 124.556L91.8377 121.616L93.6437 121.462L93.6017 125.592C93.5924 125.919 93.6577 126.166 93.7977 126.334C93.9377 126.502 94.1477 126.586 94.4277 126.586C94.8384 126.586 95.2444 126.404 95.6457 126.04V121.616L97.4237 121.462L97.2977 126.306C97.2977 126.455 97.321 126.563 97.3677 126.628C97.4237 126.693 97.5077 126.726 97.6197 126.726C97.7224 126.726 97.8484 126.707 97.9977 126.67L98.1237 126.782ZM104.262 124.976L100.482 125.004C100.566 126.171 101.159 126.754 102.26 126.754C102.839 126.754 103.483 126.591 104.192 126.264L104.346 126.362L104.066 127.748C103.357 128.009 102.689 128.14 102.064 128.14C101.037 128.14 100.23 127.841 99.6422 127.244C99.0635 126.647 98.7742 125.821 98.7742 124.766C98.7742 123.721 99.0588 122.895 99.6282 122.288C100.197 121.672 100.967 121.364 101.938 121.364C102.769 121.364 103.408 121.593 103.856 122.05C104.313 122.498 104.542 123.128 104.542 123.94C104.542 124.155 104.519 124.425 104.472 124.752L104.262 124.976ZM102.918 123.73C102.918 123.357 102.834 123.077 102.666 122.89C102.498 122.694 102.251 122.596 101.924 122.596C101.56 122.596 101.257 122.717 101.014 122.96C100.771 123.193 100.608 123.534 100.524 123.982L102.89 123.926L102.918 123.73ZM111.258 125.13L111.3 126.306C111.3 126.465 111.318 126.577 111.356 126.642C111.402 126.698 111.482 126.726 111.594 126.726C111.696 126.726 111.822 126.707 111.972 126.67L112.098 126.782L111.944 127.762C111.626 127.958 111.281 128.075 110.908 128.112C110.618 128.084 110.376 127.986 110.18 127.818C109.984 127.65 109.848 127.421 109.774 127.132H109.662C109.204 127.552 108.738 127.874 108.262 128.098C107.347 128.098 106.638 127.809 106.134 127.23C105.63 126.642 105.378 125.83 105.378 124.794C105.378 123.693 105.667 122.848 106.246 122.26C106.824 121.672 107.627 121.378 108.654 121.378C108.924 121.378 109.223 121.406 109.55 121.462L109.522 118.312L111.37 118.172L111.258 125.13ZM108.528 122.638C107.594 122.638 107.128 123.231 107.128 124.416C107.128 125.153 107.24 125.709 107.464 126.082C107.688 126.455 108.014 126.642 108.444 126.642C108.854 126.642 109.232 126.451 109.578 126.068L109.606 125.298L109.564 122.89C109.2 122.722 108.854 122.638 108.528 122.638ZM115.757 121.364C116.475 121.364 117.035 121.527 117.437 121.854C117.847 122.171 118.053 122.619 118.053 123.198C118.053 123.366 118.025 123.898 117.969 124.794C117.959 125.055 117.945 125.326 117.927 125.606C117.908 125.877 117.899 126.11 117.899 126.306C117.899 126.465 117.922 126.577 117.969 126.642C118.015 126.698 118.099 126.726 118.221 126.726C118.314 126.726 118.435 126.707 118.585 126.67L118.725 126.782L118.557 127.762C118.258 127.958 117.917 128.075 117.535 128.112C117.255 128.084 117.021 127.986 116.835 127.818C116.648 127.641 116.522 127.398 116.457 127.09H116.359C115.892 127.585 115.411 127.93 114.917 128.126C114.245 128.117 113.717 127.939 113.335 127.594C112.952 127.249 112.761 126.777 112.761 126.18C112.761 125.713 112.877 125.349 113.111 125.088C113.353 124.817 113.717 124.635 114.203 124.542L116.345 124.136V123.562C116.345 122.955 116.046 122.652 115.449 122.652C115.159 122.652 114.851 122.717 114.525 122.848C114.207 122.979 113.848 123.184 113.447 123.464L113.307 123.38L113.097 122.148C113.498 121.896 113.927 121.705 114.385 121.574C114.842 121.434 115.299 121.364 115.757 121.364ZM114.847 125.396C114.697 125.433 114.585 125.499 114.511 125.592C114.445 125.676 114.413 125.807 114.413 125.984C114.413 126.227 114.478 126.418 114.609 126.558C114.739 126.689 114.921 126.754 115.155 126.754C115.519 126.754 115.901 126.539 116.303 126.11L116.331 125.074L114.847 125.396ZM127.486 125.13L127.528 126.306C127.528 126.465 127.547 126.577 127.584 126.642C127.631 126.698 127.71 126.726 127.822 126.726C127.925 126.726 128.051 126.707 128.2 126.67L128.326 126.782L128.172 127.762C127.855 127.958 127.51 128.075 127.136 128.112C126.847 128.084 126.604 127.986 126.408 127.818C126.212 127.65 126.077 127.421 126.002 127.132H125.89C125.433 127.552 124.966 127.874 124.49 128.098C123.576 128.098 122.866 127.809 122.362 127.23C121.858 126.642 121.606 125.83 121.606 124.794C121.606 123.693 121.896 122.848 122.474 122.26C123.053 121.672 123.856 121.378 124.882 121.378C125.153 121.378 125.452 121.406 125.778 121.462L125.75 118.312L127.598 118.172L127.486 125.13ZM124.756 122.638C123.823 122.638 123.356 123.231 123.356 124.416C123.356 125.153 123.468 125.709 123.692 126.082C123.916 126.455 124.243 126.642 124.672 126.642C125.083 126.642 125.461 126.451 125.806 126.068L125.834 125.298L125.792 122.89C125.428 122.722 125.083 122.638 124.756 122.638ZM131.985 121.364C132.704 121.364 133.264 121.527 133.665 121.854C134.076 122.171 134.281 122.619 134.281 123.198C134.281 123.366 134.253 123.898 134.197 124.794C134.188 125.055 134.174 125.326 134.155 125.606C134.137 125.877 134.127 126.11 134.127 126.306C134.127 126.465 134.151 126.577 134.197 126.642C134.244 126.698 134.328 126.726 134.449 126.726C134.543 126.726 134.664 126.707 134.813 126.67L134.953 126.782L134.785 127.762C134.487 127.958 134.146 128.075 133.763 128.112C133.483 128.084 133.25 127.986 133.063 127.818C132.877 127.641 132.751 127.398 132.685 127.09H132.587C132.121 127.585 131.64 127.93 131.145 128.126C130.473 128.117 129.946 127.939 129.563 127.594C129.181 127.249 128.989 126.777 128.989 126.18C128.989 125.713 129.106 125.349 129.339 125.088C129.582 124.817 129.946 124.635 130.431 124.542L132.573 124.136V123.562C132.573 122.955 132.275 122.652 131.677 122.652C131.388 122.652 131.08 122.717 130.753 122.848C130.436 122.979 130.077 123.184 129.675 123.464L129.535 123.38L129.325 122.148C129.727 121.896 130.156 121.705 130.613 121.574C131.071 121.434 131.528 121.364 131.985 121.364ZM131.075 125.396C130.926 125.433 130.814 125.499 130.739 125.592C130.674 125.676 130.641 125.807 130.641 125.984C130.641 126.227 130.707 126.418 130.837 126.558C130.968 126.689 131.15 126.754 131.383 126.754C131.747 126.754 132.13 126.539 132.531 126.11L132.559 125.074L131.075 125.396ZM66.611 138.372C66.359 138.437 65.9997 138.507 65.533 138.582L65.505 138.638C65.645 138.918 65.715 139.231 65.715 139.576C65.715 140.276 65.4584 140.836 64.945 141.256C64.441 141.667 63.755 141.872 62.887 141.872C62.6257 141.872 62.355 141.849 62.075 141.802C61.991 141.886 61.935 141.951 61.907 141.998C61.879 142.045 61.865 142.101 61.865 142.166C61.865 142.334 61.977 142.451 62.201 142.516C62.425 142.581 62.7797 142.647 63.265 142.712C63.8157 142.777 64.273 142.857 64.637 142.95C65.0104 143.043 65.3277 143.207 65.589 143.44C65.8597 143.673 65.995 144.005 65.995 144.434C65.995 144.873 65.855 145.265 65.575 145.61C65.3044 145.965 64.9264 146.24 64.441 146.436C63.9557 146.632 63.405 146.73 62.789 146.73C61.9397 146.73 61.2864 146.557 60.829 146.212C60.3717 145.867 60.143 145.409 60.143 144.84C60.4324 144.439 60.8197 144.089 61.305 143.79V143.72C60.9877 143.608 60.7404 143.454 60.563 143.258C60.3857 143.053 60.297 142.782 60.297 142.446C60.549 142.138 60.8664 141.853 61.249 141.592V141.522C60.913 141.335 60.6564 141.093 60.479 140.794C60.311 140.486 60.227 140.127 60.227 139.716C60.227 138.988 60.479 138.419 60.983 138.008C61.487 137.597 62.173 137.392 63.041 137.392C63.545 137.392 64.0024 137.476 64.413 137.644C65.085 137.523 65.771 137.336 66.471 137.084L66.611 137.21V138.372ZM62.943 140.752C63.3257 140.752 63.615 140.654 63.811 140.458C64.007 140.262 64.105 139.977 64.105 139.604C64.105 138.895 63.741 138.54 63.013 138.54C62.229 138.54 61.837 138.899 61.837 139.618C61.837 139.991 61.9304 140.276 62.117 140.472C62.3037 140.659 62.579 140.752 62.943 140.752ZM64.427 144.77C64.427 144.518 64.2917 144.345 64.021 144.252C63.7597 144.159 63.3537 144.079 62.803 144.014L62.327 143.944C62.103 144.093 61.935 144.238 61.823 144.378C61.711 144.518 61.655 144.667 61.655 144.826C61.655 145.069 61.767 145.265 61.991 145.414C62.215 145.563 62.5417 145.638 62.971 145.638C63.4097 145.638 63.7597 145.559 64.021 145.4C64.2917 145.251 64.427 145.041 64.427 144.77ZM69.173 141.13L69.271 144H67.409L67.507 141.298L67.423 134.312L69.285 134.172L69.173 141.13ZM71.1568 141.312L71.0868 137.616L72.9208 137.462L72.8368 141.13L72.9208 144H71.0588L71.1568 141.312ZM72.0388 134.298C72.3281 134.298 72.5521 134.382 72.7108 134.55C72.8788 134.718 72.9628 134.951 72.9628 135.25C72.9628 135.567 72.8741 135.819 72.6968 136.006C72.5194 136.193 72.2768 136.286 71.9688 136.286C71.6608 136.286 71.4228 136.202 71.2548 136.034C71.0961 135.866 71.0168 135.628 71.0168 135.32C71.0168 135.012 71.1054 134.765 71.2828 134.578C71.4694 134.391 71.7214 134.298 72.0388 134.298ZM77.3551 137.364C77.6631 137.364 77.9665 137.397 78.2651 137.462C78.5731 137.518 78.8438 137.602 79.0771 137.714L78.7691 139.198L78.6151 139.268C78.1391 139.007 77.7145 138.876 77.3411 138.876C76.9118 138.876 76.5805 139.03 76.3471 139.338C76.1138 139.646 75.9971 140.085 75.9971 140.654C75.9971 141.307 76.1231 141.807 76.3751 142.152C76.6271 142.497 76.9865 142.67 77.4531 142.67C77.8731 142.67 78.3398 142.553 78.8531 142.32L78.9931 142.432L78.8111 143.874C78.2511 144.051 77.6771 144.14 77.0891 144.14C76.1931 144.14 75.4931 143.851 74.9891 143.272C74.4851 142.684 74.2331 141.867 74.2331 140.822C74.2331 139.739 74.5085 138.895 75.0591 138.288C75.6098 137.672 76.3751 137.364 77.3551 137.364ZM85.1079 140.976L81.3279 141.004C81.4119 142.171 82.0045 142.754 83.1059 142.754C83.6845 142.754 84.3285 142.591 85.0379 142.264L85.1919 142.362L84.9119 143.748C84.2025 144.009 83.5352 144.14 82.9099 144.14C81.8832 144.14 81.0759 143.841 80.4879 143.244C79.9092 142.647 79.6199 141.821 79.6199 140.766C79.6199 139.721 79.9045 138.895 80.4739 138.288C81.0432 137.672 81.8132 137.364 82.7839 137.364C83.6145 137.364 84.2539 137.593 84.7019 138.05C85.1592 138.498 85.3879 139.128 85.3879 139.94C85.3879 140.155 85.3645 140.425 85.3179 140.752L85.1079 140.976ZM83.7639 139.73C83.7639 139.357 83.6799 139.077 83.5119 138.89C83.3439 138.694 83.0965 138.596 82.7699 138.596C82.4059 138.596 82.1025 138.717 81.8599 138.96C81.6172 139.193 81.4539 139.534 81.3699 139.982L83.7359 139.926L83.7639 139.73ZM94.4694 144L94.5814 139.94C94.5814 139.249 94.2874 138.904 93.6994 138.904C93.2794 138.904 92.8407 139.091 92.3834 139.464L92.3414 141.144L92.4254 144H90.5634L90.6754 139.94C90.6847 139.604 90.61 139.347 90.4514 139.17C90.302 138.993 90.0827 138.904 89.7934 138.904C89.3827 138.904 88.93 139.1 88.4354 139.492V141.13L88.5194 144H86.6714L86.7694 141.312L86.6994 137.616L88.4494 137.462V138.414H88.5474C89.0607 137.947 89.6254 137.611 90.2414 137.406C91.2867 137.406 91.954 137.756 92.2434 138.456H92.3274C92.8594 137.961 93.466 137.611 94.1474 137.406C94.8567 137.406 95.3934 137.569 95.7574 137.896C96.1307 138.213 96.3081 138.675 96.2894 139.282L96.2474 141.144L96.3314 144H94.4694ZM98.0904 141.312L98.0204 137.616L99.8544 137.462L99.7704 141.13L99.8544 144H97.9924L98.0904 141.312ZM98.9724 134.298C99.2617 134.298 99.4857 134.382 99.6444 134.55C99.8124 134.718 99.8964 134.951 99.8964 135.25C99.8964 135.567 99.8077 135.819 99.6304 136.006C99.453 136.193 99.2104 136.286 98.9024 136.286C98.5944 136.286 98.3564 136.202 98.1884 136.034C98.0297 135.866 97.9504 135.628 97.9504 135.32C97.9504 135.012 98.039 134.765 98.2164 134.578C98.403 134.391 98.655 134.298 98.9724 134.298ZM104.177 137.364C104.895 137.364 105.455 137.527 105.857 137.854C106.267 138.171 106.473 138.619 106.473 139.198C106.473 139.366 106.445 139.898 106.389 140.794C106.379 141.055 106.365 141.326 106.347 141.606C106.328 141.877 106.319 142.11 106.319 142.306C106.319 142.465 106.342 142.577 106.389 142.642C106.435 142.698 106.519 142.726 106.641 142.726C106.734 142.726 106.855 142.707 107.005 142.67L107.145 142.782L106.977 143.762C106.678 143.958 106.337 144.075 105.955 144.112C105.675 144.084 105.441 143.986 105.255 143.818C105.068 143.641 104.942 143.398 104.877 143.09H104.779C104.312 143.585 103.831 143.93 103.337 144.126C102.665 144.117 102.137 143.939 101.755 143.594C101.372 143.249 101.181 142.777 101.181 142.18C101.181 141.713 101.297 141.349 101.531 141.088C101.773 140.817 102.137 140.635 102.623 140.542L104.765 140.136V139.562C104.765 138.955 104.466 138.652 103.869 138.652C103.579 138.652 103.271 138.717 102.945 138.848C102.627 138.979 102.268 139.184 101.867 139.464L101.727 139.38L101.517 138.148C101.918 137.896 102.347 137.705 102.805 137.574C103.262 137.434 103.719 137.364 104.177 137.364ZM103.267 141.396C103.117 141.433 103.005 141.499 102.931 141.592C102.865 141.676 102.833 141.807 102.833 141.984C102.833 142.227 102.898 142.418 103.029 142.558C103.159 142.689 103.341 142.754 103.575 142.754C103.939 142.754 104.321 142.539 104.723 142.11L104.751 141.074L103.267 141.396Z" fill="white"/>
<defs>
<filter id="filter0_d_206:37278" x="53.9998" y="16.5612" width="59.0005" height="59.8719" filterUnits="userSpaceOnUse" color-interpolation-filters="sRGB">
<feFlood flood-opacity="0" result="BackgroundImageFix"/>
<feColorMatrix in="SourceAlpha" type="matrix" values="0 0 0 0 0 0 0 0 0 0 0 0 0 0 0 0 0 0 127 0" result="hardAlpha"/>
<feOffset dy="4"/>
<feGaussianBlur stdDeviation="2"/>
<feComposite in2="hardAlpha" operator="out"/>
<feColorMatrix type="matrix" values="0 0 0 0 0 0 0 0 0 0 0 0 0 0 0 0 0 0 0.25 0"/>
<feBlend mode="normal" in2="BackgroundImageFix" result="effect1_dropShadow_206:37278"/>
<feBlend mode="normal" in="SourceGraphic" in2="effect1_dropShadow_206:37278" result="shape"/>
</filter>
<filter id="filter1_b_206:37278" x="3" y="67" width="161" height="97" filterUnits="userSpaceOnUse" color-interpolation-filters="sRGB">
<feFlood flood-opacity="0" result="BackgroundImageFix"/>
<feGaussianBlur in="BackgroundImage" stdDeviation="5"/>
<feComposite in2="SourceAlpha" operator="in" result="effect1_backgroundBlur_206:37278"/>
<feBlend mode="normal" in="SourceGraphic" in2="effect1_backgroundBlur_206:37278" result="shape"/>
</filter>
</defs>
</svg>
