<svg width="167" height="167" viewBox="0 0 167 167" fill="none" xmlns="http://www.w3.org/2000/svg">
<mask id="mask0_206:37343" style="mask-type:alpha" maskUnits="userSpaceOnUse" x="0" y="0" width="167" height="167">
<rect x="1" y="1" width="165" height="165" rx="8" fill="#5988D6" stroke="#EDE6FC" stroke-opacity="0.3"/>
</mask>
<g mask="url(#mask0_206:37343)">
<rect x="1" y="1" width="165" height="165" rx="8" fill="#D9917A" stroke="#EDE6FC" stroke-opacity="0.3"/>
<path d="M64.0605 25.0694L107.151 29.1727L107.956 55.3962L107.601 73.9458L58.0591 73.5923L59.2244 63.5132L64.0605 25.0694Z" fill="#DE6523"/>
<path d="M125.915 103.864C121.329 103.894 116.633 103.914 111.857 103.934C92.2571 104.014 71.3472 104.004 51.9026 103.934L40.9551 103.879C41.2697 100.063 41.799 96.2675 42.5405 92.5103C42.9056 90.7226 43.3206 89.0544 43.7957 87.4907C44.5459 84.9086 45.6019 82.4245 46.9415 80.0908C50.4973 74.0005 55.8986 70.3006 64.1405 68.1394C67.4509 67.3139 70.8172 66.7297 74.2129 66.3915C74.4029 65.2312 74.633 63.8219 74.863 62.3678C75.2331 60.0323 75.6132 57.6071 75.8633 55.9788C81.3646 55.7447 86.5107 55.7447 92.017 55.9788C92.2221 57.2785 93.1123 62.816 93.5174 65.3457C93.5924 65.8138 93.6524 66.1773 93.6874 66.3915C96.2891 66.6573 98.875 67.0596 101.434 67.5966C110.886 69.6183 116.678 73.4129 120.334 80.046C121.639 82.5135 122.646 85.1261 123.334 87.8294C123.789 89.5075 124.19 91.3152 124.535 93.2224C125.13 96.4244 125.565 99.9551 125.915 103.864Z" fill="#FFC4A6"/>
<path d="M93.5172 65.3458C84.05 67.8755 77.8936 64.7233 74.8579 62.3579C75.228 60.0224 75.6081 57.5973 75.8581 55.9689C81.3594 55.7348 86.5056 55.7348 92.0119 55.9689C92.2269 57.2786 93.1121 62.8161 93.5172 65.3458Z" fill="#ED987E"/>
<path d="M124.56 93.2474L108.176 96.6585L107.466 86.699L120.329 80.0759C121.634 82.5435 122.641 85.1561 123.33 87.8593C123.81 89.5524 124.21 91.3252 124.56 93.2474Z" fill="#ED987E"/>
<path d="M60.9499 86.2259L58.4493 97.3657L42.5156 92.4955C42.8807 90.7077 43.2958 89.0395 43.7709 87.4759C44.5211 84.8937 45.5771 82.4096 46.9167 80.0759L60.9499 86.2259Z" fill="#ED987E"/>
<path d="M112.522 93.4864C112.522 93.4864 114.522 99.243 114.932 103.944C95.3328 104.024 71.3622 104.014 51.9177 103.944C52.1427 101.34 53.273 97.1615 55.1634 92.8739L41.9453 86.5645C41.9453 86.5645 48.1918 70.0068 65.2058 67.2331C65.2058 67.2331 71.5823 85.9869 84.2102 88.2676C84.2102 88.2676 98.6736 83.4323 100.364 66.9293C100.364 66.9293 119.083 68.6224 126.045 86.7687L112.522 93.4864Z" fill="#AF3E58"/>
<path d="M112.542 92.3859C111.942 88.5592 110.937 84.8066 109.541 81.1914C111.972 84.389 113.049 88.4073 112.542 92.3859Z" fill="#852A45"/>
<path d="M55.8188 91.9776C57.0858 88.2992 58.5062 84.674 60.0799 81.1018C57.4171 84.114 55.908 87.9657 55.8188 91.9776Z" fill="#852A45"/>
<path d="M103.93 34.8148C107.721 33.5998 111.577 35.0389 112.542 38.0318C113.507 41.0246 111.227 44.4308 107.436 45.6458C103.645 46.8609 99.794 45.4217 98.8238 42.4289C97.8536 39.4361 100.144 36.0299 103.93 34.8148Z" fill="#FFC4A6"/>
<path opacity="0.75" d="M105.72 37.4342C108.126 36.8914 110.417 37.9321 110.842 39.8145C111.267 41.6968 109.666 43.629 107.266 44.1718C104.865 44.7146 102.57 43.6738 102.145 41.7915C101.719 39.9091 103.32 37.9819 105.72 37.4342Z" fill="#ED987E"/>
<path d="M109.741 38.1562C108.662 37.2926 107.304 36.85 105.92 36.9112C104.536 36.9867 103.225 37.558 102.229 38.5197C102.285 38.8783 102.334 39.2368 102.39 39.5953C103.322 38.5332 104.597 37.8286 105.995 37.6034C107.271 37.4092 108.577 37.6018 109.741 38.1562Z" fill="#C96B63"/>
<path d="M105.685 32.0959C105.685 46.8609 95.5577 61.6807 83.0647 61.6807C81.277 61.6778 79.5023 61.3783 77.8135 60.7943C67.8512 57.3981 60.4395 44.7245 60.4395 32.0959V32.0012C60.4795 17.291 70.5968 8.21289 83.0647 8.21289C95.5327 8.21289 105.685 17.3458 105.685 32.0959Z" fill="#FFC4A6"/>
<path d="M115.863 79.8966C100.569 81.8387 104.185 61.1229 105.495 46.0342C106.159 45.9791 106.813 45.8471 107.446 45.6408C109.07 45.1404 110.501 44.1568 111.547 42.8223C111.092 52.1942 109.546 61.2474 109.731 66.7252C110.136 78.1238 115.863 79.8966 115.863 79.8966Z" fill="#ED8B2F"/>
<path d="M78.469 30.6069C77.8554 29.7099 77.0185 28.9869 76.0402 28.5086C75.0618 28.0302 73.9756 27.8129 72.8876 27.878C70.7721 28.0523 68.7017 29.4366 67.4214 31.5281C70.4321 30.0989 73.7128 29.601 78.469 30.6069Z" fill="#ED8B2F"/>
<path d="M87.5859 30.5571C88.2082 29.6664 89.0519 28.9518 90.0346 28.4831C91.0173 28.0144 92.1052 27.8076 93.1922 27.8829C95.3077 28.0821 97.3633 29.4864 98.6185 31.5879C95.5878 30.1238 92.332 29.596 87.5859 30.5571Z" fill="#ED8B2F"/>
<path d="M74.3678 39.0825C75.1468 39.0825 75.7782 38.4538 75.7782 37.6782C75.7782 36.9026 75.1468 36.2739 74.3678 36.2739C73.5889 36.2739 72.9575 36.9026 72.9575 37.6782C72.9575 38.4538 73.5889 39.0825 74.3678 39.0825Z" fill="#242940"/>
<path d="M92.5026 39.0825C93.2815 39.0825 93.9129 38.4538 93.9129 37.6782C93.9129 36.9026 93.2815 36.2739 92.5026 36.2739C91.7237 36.2739 91.0923 36.9026 91.0923 37.6782C91.0923 38.4538 91.7237 39.0825 92.5026 39.0825Z" fill="#242940"/>
<path d="M81.3093 36.2688C81.8826 37.9757 81.7989 39.8338 81.0742 41.4826C81.3943 42.608 81.7194 43.7285 82.0395 44.8539" stroke="#C96B63" stroke-width="2" stroke-miterlimit="10" stroke-linecap="round"/>
<path d="M81.0845 52.9661C82.4008 53.2364 83.7538 53.2819 85.0854 53.1005C84.8932 53.4667 84.6067 53.7755 84.2551 53.9951C83.9036 54.2148 83.4997 54.3374 83.0849 54.3504C82.6465 54.3638 82.2154 54.2364 81.8552 53.9871C81.495 53.7379 81.2248 53.3799 81.0845 52.9661Z" fill="#F2A388"/>
<path d="M78.0835 49.6097C81.1612 50.5809 84.4705 50.5443 87.5257 49.5051" stroke="#F2A388" stroke-width="3" stroke-miterlimit="10" stroke-linecap="round"/>
<path d="M111.651 36.4234C110.311 34.8597 107.931 34.0928 105.41 34.4613C100.364 22.236 81.5844 13.5463 81.5844 13.5463C77.4685 14.3182 67.7462 20.518 65.7207 31.2643C63.3202 43.9627 63.2202 61.865 61.4597 67.9403C59.6993 74.0156 51.9575 74.0405 51.9575 74.0405C53.8584 70.7085 55.2617 67.1186 56.1235 63.3838C57.4388 57.9559 58.394 50.1725 58.394 38.1713C58.394 14.8261 66.711 9.56746 71.9872 7.35146C75.03 6.02372 78.4265 5.72804 81.6545 6.50989C85.0203 4.4383 90.8716 1.49526 99.8137 9.26867C101.946 11.1686 103.911 13.2479 105.685 15.4834C110.091 20.8865 111.486 28.5205 111.651 36.4234Z" fill="#ED8B2F"/>
<path d="M99.8141 9.24864C98.5132 8.51899 97.145 7.91533 95.7282 7.44596C91.2922 6.00182 86.0759 6.26077 82.4451 9.54742C77.4739 7.77462 71.7076 9.72669 67.9417 13.3868C64.1758 17.047 62.0703 22.1363 60.865 27.2555C62.1976 22.8064 64.8941 18.8835 68.5768 16.0361C64.1108 20.5178 62.0253 26.887 61.0751 33.1465C60.1248 39.4061 60.2099 45.7802 59.3297 52.0697C58.8465 55.9827 57.7672 59.7995 56.1289 63.3887C57.4442 57.9607 58.3995 50.1773 58.3995 38.1761C58.3995 14.831 66.7164 9.57232 71.9926 7.35632C75.0354 6.02858 78.4319 5.7329 81.6599 6.51474C85.0157 4.39834 90.872 1.47522 99.8141 9.24864Z" fill="#FAA243"/>
</g>
<g filter="url(#filter0_b_206:37343)">
<rect x="13" y="77" width="141" height="77" rx="10" fill="black" fill-opacity="0.8"/>
</g>
<path d="M34.1423 86.872C34.9077 86.872 35.6683 87.026 36.4243 87.334L36.1163 88.972L35.8363 89.084C35.519 88.86 35.1877 88.6827 34.8423 88.552C34.5063 88.4213 34.1983 88.356 33.9183 88.356C33.545 88.356 33.2463 88.4587 33.0223 88.664C32.7983 88.86 32.6863 89.0887 32.6863 89.35C32.6863 89.6207 32.8077 89.8493 33.0503 90.036C33.3023 90.2227 33.6943 90.442 34.2263 90.694C34.7397 90.9273 35.155 91.1467 35.4723 91.352C35.799 91.548 36.0743 91.8093 36.2983 92.136C36.5317 92.4627 36.6483 92.864 36.6483 93.34C36.6483 93.8533 36.5083 94.3247 36.2283 94.754C35.9483 95.174 35.5517 95.51 35.0383 95.762C34.525 96.0047 33.9323 96.126 33.2603 96.126C32.3737 96.126 31.4823 95.9347 30.5863 95.552L30.8523 93.788L31.0623 93.676C31.4357 94.0027 31.8417 94.2547 32.2803 94.432C32.7283 94.6 33.125 94.684 33.4703 94.684C33.881 94.684 34.1983 94.586 34.4223 94.39C34.6557 94.1847 34.7723 93.942 34.7723 93.662C34.7723 93.3633 34.6463 93.1207 34.3943 92.934C34.1517 92.7473 33.755 92.5233 33.2043 92.262C32.7003 92.038 32.2897 91.828 31.9723 91.632C31.655 91.436 31.3843 91.1747 31.1603 90.848C30.9363 90.5213 30.8243 90.1247 30.8243 89.658C30.8243 89.1353 30.9643 88.664 31.2443 88.244C31.5243 87.8147 31.9163 87.4787 32.4203 87.236C32.9243 86.9933 33.4983 86.872 34.1423 86.872ZM38.105 93.312L38.035 89.616L39.869 89.462L39.785 93.13L39.869 96H38.007L38.105 93.312ZM38.987 86.298C39.2763 86.298 39.5003 86.382 39.659 86.55C39.827 86.718 39.911 86.9513 39.911 87.25C39.911 87.5673 39.8223 87.8193 39.645 88.006C39.4677 88.1927 39.225 88.286 38.917 88.286C38.609 88.286 38.371 88.202 38.203 88.034C38.0443 87.866 37.965 87.628 37.965 87.32C37.965 87.012 38.0537 86.7647 38.231 86.578C38.4177 86.3913 38.6697 86.298 38.987 86.298ZM45.6334 91.94C45.6427 91.6133 45.5681 91.3613 45.4094 91.184C45.2601 90.9973 45.0407 90.904 44.7514 90.904C44.3314 90.904 43.8834 91.1047 43.4074 91.506V93.13L43.4914 96H41.6294L41.7274 93.312L41.6574 89.616L43.4214 89.462V90.414H43.5194C44.0327 89.9473 44.5927 89.6113 45.1994 89.406C45.9087 89.406 46.4501 89.5693 46.8234 89.896C47.1967 90.2133 47.3741 90.6753 47.3554 91.282L47.3134 93.144L47.3974 96H45.5214L45.6334 91.94ZM51.6715 94.628C51.9702 94.628 52.2829 94.5487 52.6095 94.39L52.7635 94.53L52.5815 95.636C52.1055 95.8787 51.6202 96.028 51.1255 96.084C49.8655 95.9533 49.2355 95.3373 49.2355 94.236L49.3055 93.074L49.2915 90.666H48.4235L48.3535 90.568L48.4515 89.546H49.2775V88.468L50.9715 87.922L51.0975 88.034L51.0555 89.546H52.7215L52.7775 89.644L52.6935 90.666H51.0275L50.9435 93.802C50.9435 94.1007 50.9995 94.3153 51.1115 94.446C51.2235 94.5673 51.4102 94.628 51.6715 94.628ZM56.3763 89.364C57.3283 89.364 58.0563 89.644 58.5603 90.204C59.0643 90.764 59.3163 91.5713 59.3163 92.626C59.3163 93.7647 59.0456 94.6373 58.5043 95.244C57.963 95.8413 57.1836 96.14 56.1663 96.14C55.2143 96.14 54.4863 95.86 53.9823 95.3C53.4783 94.74 53.2263 93.9327 53.2263 92.878C53.2263 91.7393 53.497 90.8713 54.0383 90.274C54.5796 89.6673 55.359 89.364 56.3763 89.364ZM56.2503 90.624C55.8023 90.624 55.4756 90.7733 55.2703 91.072C55.0743 91.3707 54.9763 91.8513 54.9763 92.514C54.9763 93.3727 55.079 93.984 55.2843 94.348C55.4896 94.712 55.8256 94.894 56.2923 94.894C56.7403 94.894 57.0623 94.7493 57.2583 94.46C57.4636 94.1613 57.5663 93.676 57.5663 93.004C57.5663 92.1547 57.459 91.548 57.2443 91.184C57.039 90.8107 56.7076 90.624 56.2503 90.624ZM68.3083 96L68.4203 91.94C68.4203 91.2493 68.1263 90.904 67.5383 90.904C67.1183 90.904 66.6796 91.0907 66.2223 91.464L66.1803 93.144L66.2643 96H64.4023L64.5143 91.94C64.5236 91.604 64.4489 91.3473 64.2903 91.17C64.1409 90.9927 63.9216 90.904 63.6323 90.904C63.2216 90.904 62.7689 91.1 62.2743 91.492V93.13L62.3583 96H60.5103L60.6083 93.312L60.5383 89.616L62.2883 89.462V90.414H62.3863C62.8996 89.9473 63.4643 89.6113 64.0803 89.406C65.1256 89.406 65.7929 89.756 66.0823 90.456H66.1663C66.6983 89.9613 67.3049 89.6113 67.9863 89.406C68.6956 89.406 69.2323 89.5693 69.5963 89.896C69.9696 90.2133 70.1469 90.6753 70.1283 91.282L70.0863 93.144L70.1703 96H68.3083ZM74.3652 89.364C75.0839 89.364 75.6439 89.5273 76.0452 89.854C76.4559 90.1713 76.6612 90.6193 76.6612 91.198C76.6612 91.366 76.6332 91.898 76.5772 92.794C76.5679 93.0553 76.5539 93.326 76.5352 93.606C76.5166 93.8767 76.5072 94.11 76.5072 94.306C76.5072 94.4647 76.5306 94.5767 76.5772 94.642C76.6239 94.698 76.7079 94.726 76.8292 94.726C76.9226 94.726 77.0439 94.7073 77.1932 94.67L77.3332 94.782L77.1652 95.762C76.8666 95.958 76.5259 96.0747 76.1432 96.112C75.8632 96.084 75.6299 95.986 75.4432 95.818C75.2566 95.6407 75.1306 95.398 75.0652 95.09H74.9672C74.5006 95.5847 74.0199 95.93 73.5252 96.126C72.8532 96.1167 72.3259 95.9393 71.9432 95.594C71.5606 95.2487 71.3692 94.7773 71.3692 94.18C71.3692 93.7133 71.4859 93.3493 71.7192 93.088C71.9619 92.8173 72.3259 92.6353 72.8112 92.542L74.9532 92.136V91.562C74.9532 90.9553 74.6546 90.652 74.0572 90.652C73.7679 90.652 73.4599 90.7173 73.1332 90.848C72.8159 90.9787 72.4566 91.184 72.0552 91.464L71.9152 91.38L71.7052 90.148C72.1066 89.896 72.5359 89.7047 72.9932 89.574C73.4506 89.434 73.9079 89.364 74.3652 89.364ZM73.4552 93.396C73.3059 93.4333 73.1939 93.4987 73.1192 93.592C73.0539 93.676 73.0212 93.8067 73.0212 93.984C73.0212 94.2267 73.0866 94.418 73.2172 94.558C73.3479 94.6887 73.5299 94.754 73.7632 94.754C74.1272 94.754 74.5099 94.5393 74.9112 94.11L74.9392 93.074L73.4552 93.396ZM80.7275 89.378C81.3621 89.378 81.9595 89.4853 82.5195 89.7L82.2675 91.072L82.0435 91.142C81.7728 90.9647 81.5021 90.8293 81.2315 90.736C80.9608 90.6427 80.7228 90.596 80.5175 90.596C80.2935 90.596 80.1161 90.6567 79.9855 90.778C79.8548 90.89 79.7895 91.03 79.7895 91.198C79.7895 91.394 79.8735 91.5527 80.0415 91.674C80.2188 91.7953 80.4941 91.9307 80.8675 92.08C81.2408 92.2293 81.5488 92.374 81.7915 92.514C82.0341 92.654 82.2395 92.85 82.4075 93.102C82.5848 93.3447 82.6735 93.648 82.6735 94.012C82.6735 94.3853 82.5755 94.7353 82.3795 95.062C82.1928 95.3793 81.9035 95.6407 81.5115 95.846C81.1195 96.042 80.6388 96.14 80.0695 96.14C79.3975 96.14 78.7021 96 77.9835 95.72L78.1935 94.264L78.3755 94.152C78.6648 94.3947 78.9868 94.5907 79.3415 94.74C79.6961 94.88 80.0088 94.95 80.2795 94.95C80.5315 94.95 80.7275 94.8893 80.8675 94.768C81.0075 94.6373 81.0775 94.4833 81.0775 94.306C81.0775 94.11 80.9888 93.9513 80.8115 93.83C80.6435 93.7087 80.3728 93.5733 79.9995 93.424C79.6168 93.256 79.3041 93.1067 79.0615 92.976C78.8188 92.836 78.6088 92.64 78.4315 92.388C78.2635 92.136 78.1795 91.8233 78.1795 91.45C78.1795 90.8433 78.4081 90.3487 78.8655 89.966C79.3228 89.574 79.9435 89.378 80.7275 89.378ZM88.7096 89.364C89.0176 89.364 89.321 89.3967 89.6196 89.462C89.9276 89.518 90.1983 89.602 90.4316 89.714L90.1236 91.198L89.9696 91.268C89.4936 91.0067 89.069 90.876 88.6956 90.876C88.2663 90.876 87.935 91.03 87.7016 91.338C87.4683 91.646 87.3516 92.0847 87.3516 92.654C87.3516 93.3073 87.4776 93.8067 87.7296 94.152C87.9816 94.4973 88.341 94.67 88.8076 94.67C89.2276 94.67 89.6943 94.5533 90.2076 94.32L90.3476 94.432L90.1656 95.874C89.6056 96.0513 89.0316 96.14 88.4436 96.14C87.5476 96.14 86.8476 95.8507 86.3436 95.272C85.8396 94.684 85.5876 93.8673 85.5876 92.822C85.5876 91.7393 85.863 90.8947 86.4136 90.288C86.9643 89.672 87.7296 89.364 88.7096 89.364ZM94.1244 89.364C95.0764 89.364 95.8044 89.644 96.3084 90.204C96.8124 90.764 97.0644 91.5713 97.0644 92.626C97.0644 93.7647 96.7937 94.6373 96.2524 95.244C95.711 95.8413 94.9317 96.14 93.9144 96.14C92.9624 96.14 92.2344 95.86 91.7304 95.3C91.2264 94.74 90.9744 93.9327 90.9744 92.878C90.9744 91.7393 91.245 90.8713 91.7864 90.274C92.3277 89.6673 93.107 89.364 94.1244 89.364ZM93.9984 90.624C93.5504 90.624 93.2237 90.7733 93.0184 91.072C92.8224 91.3707 92.7244 91.8513 92.7244 92.514C92.7244 93.3727 92.827 93.984 93.0324 94.348C93.2377 94.712 93.5737 94.894 94.0404 94.894C94.4884 94.894 94.8104 94.7493 95.0064 94.46C95.2117 94.1613 95.3144 93.676 95.3144 93.004C95.3144 92.1547 95.207 91.548 94.9924 91.184C94.787 90.8107 94.4557 90.624 93.9984 90.624ZM101.856 89.476C101.94 89.476 102.057 89.4853 102.206 89.504V91.226L102.01 91.296C101.852 91.2307 101.679 91.198 101.492 91.198C100.951 91.198 100.461 91.548 100.022 92.248V93.13L100.12 96H98.2583L98.3703 93.312L98.2863 89.616L100.05 89.462L100.036 90.736H100.148C100.606 89.896 101.175 89.476 101.856 89.476ZM106.569 89.406C107.381 89.406 108.007 89.6813 108.445 90.232C108.884 90.7827 109.103 91.562 109.103 92.57C109.103 93.7087 108.819 94.5907 108.249 95.216C107.689 95.832 106.896 96.14 105.869 96.14C105.571 96.14 105.258 96.112 104.931 96.056L104.973 98.59H103.125L103.223 93.312L103.139 89.616L104.917 89.462L104.903 90.414H105.001C105.263 90.162 105.515 89.9613 105.757 89.812C106 89.6533 106.271 89.518 106.569 89.406ZM105.883 94.922C106.369 94.922 106.737 94.7493 106.989 94.404C107.241 94.0587 107.367 93.55 107.367 92.878C107.367 92.2247 107.26 91.7347 107.045 91.408C106.84 91.072 106.532 90.904 106.121 90.904C105.72 90.904 105.314 91.1047 104.903 91.506L104.889 93.13L104.917 94.712C105.253 94.852 105.575 94.922 105.883 94.922ZM113.074 89.364C114.026 89.364 114.754 89.644 115.258 90.204C115.762 90.764 116.014 91.5713 116.014 92.626C116.014 93.7647 115.743 94.6373 115.202 95.244C114.66 95.8413 113.881 96.14 112.864 96.14C111.912 96.14 111.184 95.86 110.68 95.3C110.176 94.74 109.924 93.9327 109.924 92.878C109.924 91.7393 110.194 90.8713 110.736 90.274C111.277 89.6673 112.056 89.364 113.074 89.364ZM112.948 90.624C112.5 90.624 112.173 90.7733 111.968 91.072C111.772 91.3707 111.674 91.8513 111.674 92.514C111.674 93.3727 111.776 93.984 111.982 94.348C112.187 94.712 112.523 94.894 112.99 94.894C113.438 94.894 113.76 94.7493 113.956 94.46C114.161 94.1613 114.264 93.676 114.264 93.004C114.264 92.1547 114.156 91.548 113.942 91.184C113.736 90.8107 113.405 90.624 112.948 90.624ZM120.806 89.476C120.89 89.476 121.006 89.4853 121.156 89.504V91.226L120.96 91.296C120.801 91.2307 120.628 91.198 120.442 91.198C119.9 91.198 119.41 91.548 118.972 92.248V93.13L119.07 96H117.208L117.32 93.312L117.236 89.616L119 89.462L118.986 90.736H119.098C119.555 89.896 120.124 89.476 120.806 89.476ZM124.5 89.364C125.219 89.364 125.779 89.5273 126.18 89.854C126.591 90.1713 126.796 90.6193 126.796 91.198C126.796 91.366 126.768 91.898 126.712 92.794C126.703 93.0553 126.689 93.326 126.67 93.606C126.651 93.8767 126.642 94.11 126.642 94.306C126.642 94.4647 126.665 94.5767 126.712 94.642C126.759 94.698 126.843 94.726 126.964 94.726C127.057 94.726 127.179 94.7073 127.328 94.67L127.468 94.782L127.3 95.762C127.001 95.958 126.661 96.0747 126.278 96.112C125.998 96.084 125.765 95.986 125.578 95.818C125.391 95.6407 125.265 95.398 125.2 95.09H125.102C124.635 95.5847 124.155 95.93 123.66 96.126C122.988 96.1167 122.461 95.9393 122.078 95.594C121.695 95.2487 121.504 94.7773 121.504 94.18C121.504 93.7133 121.621 93.3493 121.854 93.088C122.097 92.8173 122.461 92.6353 122.946 92.542L125.088 92.136V91.562C125.088 90.9553 124.789 90.652 124.192 90.652C123.903 90.652 123.595 90.7173 123.268 90.848C122.951 90.9787 122.591 91.184 122.19 91.464L122.05 91.38L121.84 90.148C122.241 89.896 122.671 89.7047 123.128 89.574C123.585 89.434 124.043 89.364 124.5 89.364ZM123.59 93.396C123.441 93.4333 123.329 93.4987 123.254 93.592C123.189 93.676 123.156 93.8067 123.156 93.984C123.156 94.2267 123.221 94.418 123.352 94.558C123.483 94.6887 123.665 94.754 123.898 94.754C124.262 94.754 124.645 94.5393 125.046 94.11L125.074 93.074L123.59 93.396ZM128.804 93.312L128.734 89.616L130.568 89.462L130.484 93.13L130.568 96H128.706L128.804 93.312ZM129.686 86.298C129.976 86.298 130.2 86.382 130.358 86.55C130.526 86.718 130.61 86.9513 130.61 87.25C130.61 87.5673 130.522 87.8193 130.344 88.006C130.167 88.1927 129.924 88.286 129.616 88.286C129.308 88.286 129.07 88.202 128.902 88.034C128.744 87.866 128.664 87.628 128.664 87.32C128.664 87.012 128.753 86.7647 128.93 86.578C129.117 86.3913 129.369 86.298 129.686 86.298ZM134.513 89.378C135.147 89.378 135.745 89.4853 136.305 89.7L136.053 91.072L135.829 91.142C135.558 90.9647 135.287 90.8293 135.017 90.736C134.746 90.6427 134.508 90.596 134.303 90.596C134.079 90.596 133.901 90.6567 133.771 90.778C133.64 90.89 133.575 91.03 133.575 91.198C133.575 91.394 133.659 91.5527 133.827 91.674C134.004 91.7953 134.279 91.9307 134.653 92.08C135.026 92.2293 135.334 92.374 135.577 92.514C135.819 92.654 136.025 92.85 136.193 93.102C136.37 93.3447 136.459 93.648 136.459 94.012C136.459 94.3853 136.361 94.7353 136.165 95.062C135.978 95.3793 135.689 95.6407 135.297 95.846C134.905 96.042 134.424 96.14 133.855 96.14C133.183 96.14 132.487 96 131.769 95.72L131.979 94.264L132.161 94.152C132.45 94.3947 132.772 94.5907 133.127 94.74C133.481 94.88 133.794 94.95 134.065 94.95C134.317 94.95 134.513 94.8893 134.653 94.768C134.793 94.6373 134.863 94.4833 134.863 94.306C134.863 94.11 134.774 93.9513 134.597 93.83C134.429 93.7087 134.158 93.5733 133.785 93.424C133.402 93.256 133.089 93.1067 132.847 92.976C132.604 92.836 132.394 92.64 132.217 92.388C132.049 92.136 131.965 91.8233 131.965 91.45C131.965 90.8433 132.193 90.3487 132.651 89.966C133.108 89.574 133.729 89.378 134.513 89.378ZM47.5959 105.406C48.4079 105.406 49.0332 105.681 49.4719 106.232C49.9105 106.783 50.1299 107.562 50.1299 108.57C50.1299 109.709 49.8452 110.591 49.2759 111.216C48.7159 111.832 47.9225 112.14 46.8959 112.14C46.5972 112.14 46.2845 112.112 45.9579 112.056L45.9999 114.59H44.1519L44.2499 109.312L44.1659 105.616L45.9439 105.462L45.9299 106.414H46.0279C46.2892 106.162 46.5412 105.961 46.7839 105.812C47.0265 105.653 47.2972 105.518 47.5959 105.406ZM46.9099 110.922C47.3952 110.922 47.7639 110.749 48.0159 110.404C48.2679 110.059 48.3939 109.55 48.3939 108.878C48.3939 108.225 48.2865 107.735 48.0719 107.408C47.8665 107.072 47.5585 106.904 47.1479 106.904C46.7465 106.904 46.3405 107.105 45.9299 107.506L45.9159 109.13L45.9439 110.712C46.2799 110.852 46.6019 110.922 46.9099 110.922ZM54.0999 105.364C55.0519 105.364 55.7799 105.644 56.2839 106.204C56.7879 106.764 57.0399 107.571 57.0399 108.626C57.0399 109.765 56.7693 110.637 56.2279 111.244C55.6866 111.841 54.9073 112.14 53.8899 112.14C52.9379 112.14 52.2099 111.86 51.7059 111.3C51.2019 110.74 50.9499 109.933 50.9499 108.878C50.9499 107.739 51.2206 106.871 51.7619 106.274C52.3033 105.667 53.0826 105.364 54.0999 105.364ZM53.9739 106.624C53.5259 106.624 53.1993 106.773 52.9939 107.072C52.7979 107.371 52.6999 107.851 52.6999 108.514C52.6999 109.373 52.8026 109.984 53.0079 110.348C53.2133 110.712 53.5493 110.894 54.0159 110.894C54.4639 110.894 54.7859 110.749 54.9819 110.46C55.1873 110.161 55.2899 109.676 55.2899 109.004C55.2899 108.155 55.1826 107.548 54.9679 107.184C54.7626 106.811 54.4313 106.624 53.9739 106.624ZM63.7479 109.13L63.7899 110.306C63.7899 110.465 63.8086 110.577 63.8459 110.642C63.8926 110.698 63.9719 110.726 64.0839 110.726C64.1866 110.726 64.3126 110.707 64.4619 110.67L64.5879 110.782L64.4339 111.762C64.1166 111.958 63.7712 112.075 63.3979 112.112C63.1086 112.084 62.8659 111.986 62.6699 111.818C62.4739 111.65 62.3386 111.421 62.2639 111.132H62.1519C61.6946 111.552 61.2279 111.874 60.7519 112.098C59.8372 112.098 59.1279 111.809 58.6239 111.23C58.1199 110.642 57.8679 109.83 57.8679 108.794C57.8679 107.693 58.1572 106.848 58.7359 106.26C59.3146 105.672 60.1172 105.378 61.1439 105.378C61.4146 105.378 61.7132 105.406 62.0399 105.462L62.0119 102.312L63.8599 102.172L63.7479 109.13ZM61.0179 106.638C60.0846 106.638 59.6179 107.231 59.6179 108.416C59.6179 109.153 59.7299 109.709 59.9539 110.082C60.1779 110.455 60.5046 110.642 60.9339 110.642C61.3446 110.642 61.7226 110.451 62.0679 110.068L62.0959 109.298L62.0539 106.89C61.6899 106.722 61.3446 106.638 61.0179 106.638ZM70.7251 108.976L66.9451 109.004C67.0291 110.171 67.6217 110.754 68.7231 110.754C69.3017 110.754 69.9457 110.591 70.6551 110.264L70.8091 110.362L70.5291 111.748C69.8197 112.009 69.1524 112.14 68.5271 112.14C67.5004 112.14 66.6931 111.841 66.1051 111.244C65.5264 110.647 65.2371 109.821 65.2371 108.766C65.2371 107.721 65.5217 106.895 66.0911 106.288C66.6604 105.672 67.4304 105.364 68.4011 105.364C69.2317 105.364 69.8711 105.593 70.3191 106.05C70.7764 106.498 71.0051 107.128 71.0051 107.94C71.0051 108.155 70.9817 108.425 70.9351 108.752L70.7251 108.976ZM69.3811 107.73C69.3811 107.357 69.2971 107.077 69.1291 106.89C68.9611 106.694 68.7137 106.596 68.3871 106.596C68.0231 106.596 67.7197 106.717 67.4771 106.96C67.2344 107.193 67.0711 107.534 66.9871 107.982L69.3531 107.926L69.3811 107.73ZM80.0866 112L80.1986 107.94C80.1986 107.249 79.9046 106.904 79.3166 106.904C78.8966 106.904 78.4579 107.091 78.0006 107.464L77.9586 109.144L78.0426 112H76.1806L76.2926 107.94C76.3019 107.604 76.2272 107.347 76.0686 107.17C75.9192 106.993 75.6999 106.904 75.4106 106.904C74.9999 106.904 74.5472 107.1 74.0526 107.492V109.13L74.1366 112H72.2886L72.3866 109.312L72.3166 105.616L74.0666 105.462V106.414H74.1646C74.6779 105.947 75.2426 105.611 75.8586 105.406C76.9039 105.406 77.5712 105.756 77.8606 106.456H77.9446C78.4766 105.961 79.0832 105.611 79.7646 105.406C80.4739 105.406 81.0106 105.569 81.3746 105.896C81.7479 106.213 81.9252 106.675 81.9066 107.282L81.8646 109.144L81.9486 112H80.0866ZM85.8267 109.312L85.7567 105.616L87.5907 105.462L87.5067 109.13L87.5907 112H85.7287L85.8267 109.312ZM86.7087 102.298C86.998 102.298 87.222 102.382 87.3807 102.55C87.5487 102.718 87.6327 102.951 87.6327 103.25C87.6327 103.567 87.544 103.819 87.3667 104.006C87.1893 104.193 86.9467 104.286 86.6387 104.286C86.3307 104.286 86.0927 104.202 85.9247 104.034C85.766 103.866 85.6867 103.628 85.6867 103.32C85.6867 103.012 85.7753 102.765 85.9527 102.578C86.1393 102.391 86.3913 102.298 86.7087 102.298ZM93.3551 107.94C93.3644 107.613 93.2897 107.361 93.1311 107.184C92.9817 106.997 92.7624 106.904 92.4731 106.904C92.0531 106.904 91.6051 107.105 91.1291 107.506V109.13L91.2131 112H89.3511L89.4491 109.312L89.3791 105.616L91.1431 105.462V106.414H91.2411C91.7544 105.947 92.3144 105.611 92.9211 105.406C93.6304 105.406 94.1717 105.569 94.5451 105.896C94.9184 106.213 95.0957 106.675 95.0771 107.282L95.0351 109.144L95.1191 112H93.2431L93.3551 107.94ZM102.193 109.13L102.235 110.306C102.235 110.465 102.254 110.577 102.291 110.642C102.338 110.698 102.417 110.726 102.529 110.726C102.632 110.726 102.758 110.707 102.907 110.67L103.033 110.782L102.879 111.762C102.562 111.958 102.217 112.075 101.843 112.112C101.554 112.084 101.311 111.986 101.115 111.818C100.919 111.65 100.784 111.421 100.709 111.132H100.597C100.14 111.552 99.6732 111.874 99.1972 112.098C98.2826 112.098 97.5732 111.809 97.0692 111.23C96.5652 110.642 96.3132 109.83 96.3132 108.794C96.3132 107.693 96.6026 106.848 97.1812 106.26C97.7599 105.672 98.5626 105.378 99.5892 105.378C99.8599 105.378 100.159 105.406 100.485 105.462L100.457 102.312L102.305 102.172L102.193 109.13ZM99.4632 106.638C98.5299 106.638 98.0632 107.231 98.0632 108.416C98.0632 109.153 98.1752 109.709 98.3992 110.082C98.6232 110.455 98.9499 110.642 99.3792 110.642C99.7899 110.642 100.168 110.451 100.513 110.068L100.541 109.298L100.499 106.89C100.135 106.722 99.7899 106.638 99.4632 106.638ZM104.256 109.312L104.186 105.616L106.02 105.462L105.936 109.13L106.02 112H104.158L104.256 109.312ZM105.138 102.298C105.428 102.298 105.652 102.382 105.81 102.55C105.978 102.718 106.062 102.951 106.062 103.25C106.062 103.567 105.974 103.819 105.796 104.006C105.619 104.193 105.376 104.286 105.068 104.286C104.76 104.286 104.522 104.202 104.354 104.034C104.196 103.866 104.116 103.628 104.116 103.32C104.116 103.012 104.205 102.765 104.382 102.578C104.569 102.391 104.821 102.298 105.138 102.298ZM110.455 105.364C110.763 105.364 111.066 105.397 111.365 105.462C111.673 105.518 111.943 105.602 112.177 105.714L111.869 107.198L111.715 107.268C111.239 107.007 110.814 106.876 110.441 106.876C110.011 106.876 109.68 107.03 109.447 107.338C109.213 107.646 109.097 108.085 109.097 108.654C109.097 109.307 109.223 109.807 109.475 110.152C109.727 110.497 110.086 110.67 110.553 110.67C110.973 110.67 111.439 110.553 111.953 110.32L112.093 110.432L111.911 111.874C111.351 112.051 110.777 112.14 110.189 112.14C109.293 112.14 108.593 111.851 108.089 111.272C107.585 110.684 107.333 109.867 107.333 108.822C107.333 107.739 107.608 106.895 108.159 106.288C108.709 105.672 109.475 105.364 110.455 105.364ZM115.593 105.364C116.311 105.364 116.871 105.527 117.273 105.854C117.683 106.171 117.889 106.619 117.889 107.198C117.889 107.366 117.861 107.898 117.805 108.794C117.795 109.055 117.781 109.326 117.763 109.606C117.744 109.877 117.735 110.11 117.735 110.306C117.735 110.465 117.758 110.577 117.805 110.642C117.851 110.698 117.935 110.726 118.057 110.726C118.15 110.726 118.271 110.707 118.421 110.67L118.561 110.782L118.393 111.762C118.094 111.958 117.753 112.075 117.371 112.112C117.091 112.084 116.857 111.986 116.671 111.818C116.484 111.641 116.358 111.398 116.293 111.09H116.195C115.728 111.585 115.247 111.93 114.753 112.126C114.081 112.117 113.553 111.939 113.171 111.594C112.788 111.249 112.597 110.777 112.597 110.18C112.597 109.713 112.713 109.349 112.947 109.088C113.189 108.817 113.553 108.635 114.039 108.542L116.181 108.136V107.562C116.181 106.955 115.882 106.652 115.285 106.652C114.995 106.652 114.687 106.717 114.361 106.848C114.043 106.979 113.684 107.184 113.283 107.464L113.143 107.38L112.933 106.148C113.334 105.896 113.763 105.705 114.221 105.574C114.678 105.434 115.135 105.364 115.593 105.364ZM114.683 109.396C114.533 109.433 114.421 109.499 114.347 109.592C114.281 109.676 114.249 109.807 114.249 109.984C114.249 110.227 114.314 110.418 114.445 110.558C114.575 110.689 114.757 110.754 114.991 110.754C115.355 110.754 115.737 110.539 116.139 110.11L116.167 109.074L114.683 109.396ZM123.287 105.476C123.371 105.476 123.488 105.485 123.637 105.504V107.226L123.441 107.296C123.282 107.231 123.11 107.198 122.923 107.198C122.382 107.198 121.892 107.548 121.453 108.248V109.13L121.551 112H119.689L119.801 109.312L119.717 105.616L121.481 105.462L121.467 106.736H121.579C122.036 105.896 122.606 105.476 123.287 105.476ZM35.9438 124.976L32.1638 125.004C32.2478 126.171 32.8405 126.754 33.9418 126.754C34.5205 126.754 35.1645 126.591 35.8738 126.264L36.0278 126.362L35.7478 127.748C35.0385 128.009 34.3711 128.14 33.7458 128.14C32.7191 128.14 31.9118 127.841 31.3238 127.244C30.7451 126.647 30.4558 125.821 30.4558 124.766C30.4558 123.721 30.7405 122.895 31.3098 122.288C31.8791 121.672 32.6491 121.364 33.6198 121.364C34.4505 121.364 35.0898 121.593 35.5378 122.05C35.9951 122.498 36.2238 123.128 36.2238 123.94C36.2238 124.155 36.2005 124.425 36.1538 124.752L35.9438 124.976ZM34.5998 123.73C34.5998 123.357 34.5158 123.077 34.3478 122.89C34.1798 122.694 33.9325 122.596 33.6058 122.596C33.2418 122.596 32.9385 122.717 32.6958 122.96C32.4531 123.193 32.2898 123.534 32.2058 123.982L34.5718 123.926L34.5998 123.73ZM39.2726 125.13L39.3706 128H37.5086L37.6066 125.298L37.5226 118.312L39.3846 118.172L39.2726 125.13ZM46.1704 124.976L42.3904 125.004C42.4744 126.171 43.067 126.754 44.1684 126.754C44.747 126.754 45.391 126.591 46.1004 126.264L46.2544 126.362L45.9744 127.748C45.265 128.009 44.5977 128.14 43.9724 128.14C42.9457 128.14 42.1384 127.841 41.5504 127.244C40.9717 126.647 40.6824 125.821 40.6824 124.766C40.6824 123.721 40.967 122.895 41.5364 122.288C42.1057 121.672 42.8757 121.364 43.8464 121.364C44.677 121.364 45.3164 121.593 45.7644 122.05C46.2217 122.498 46.4504 123.128 46.4504 123.94C46.4504 124.155 46.427 124.425 46.3804 124.752L46.1704 124.976ZM44.8264 123.73C44.8264 123.357 44.7424 123.077 44.5744 122.89C44.4064 122.694 44.159 122.596 43.8324 122.596C43.4684 122.596 43.165 122.717 42.9224 122.96C42.6797 123.193 42.5164 123.534 42.4324 123.982L44.7984 123.926L44.8264 123.73ZM48.9519 122.526L49.9319 126.25H50.0299L51.2059 122.624L51.4439 121.49H53.0679L50.8839 128H48.8819L47.0339 121.532L48.7699 121.448L48.9519 122.526ZM56.3525 121.364C57.0712 121.364 57.6312 121.527 58.0325 121.854C58.4432 122.171 58.6485 122.619 58.6485 123.198C58.6485 123.366 58.6205 123.898 58.5645 124.794C58.5552 125.055 58.5412 125.326 58.5225 125.606C58.5039 125.877 58.4945 126.11 58.4945 126.306C58.4945 126.465 58.5179 126.577 58.5645 126.642C58.6112 126.698 58.6952 126.726 58.8165 126.726C58.9099 126.726 59.0312 126.707 59.1805 126.67L59.3205 126.782L59.1525 127.762C58.8539 127.958 58.5132 128.075 58.1305 128.112C57.8505 128.084 57.6172 127.986 57.4305 127.818C57.2439 127.641 57.1179 127.398 57.0525 127.09H56.9545C56.4879 127.585 56.0072 127.93 55.5125 128.126C54.8405 128.117 54.3132 127.939 53.9305 127.594C53.5479 127.249 53.3565 126.777 53.3565 126.18C53.3565 125.713 53.4732 125.349 53.7065 125.088C53.9492 124.817 54.3132 124.635 54.7985 124.542L56.9405 124.136V123.562C56.9405 122.955 56.6419 122.652 56.0445 122.652C55.7552 122.652 55.4472 122.717 55.1205 122.848C54.8032 122.979 54.4439 123.184 54.0425 123.464L53.9025 123.38L53.6925 122.148C54.0939 121.896 54.5232 121.705 54.9805 121.574C55.4379 121.434 55.8952 121.364 56.3525 121.364ZM55.4425 125.396C55.2932 125.433 55.1812 125.499 55.1065 125.592C55.0412 125.676 55.0085 125.807 55.0085 125.984C55.0085 126.227 55.0739 126.418 55.2045 126.558C55.3352 126.689 55.5172 126.754 55.7505 126.754C56.1145 126.754 56.4972 126.539 56.8985 126.11L56.9265 125.074L55.4425 125.396ZM63.2048 121.364C63.5128 121.364 63.8161 121.397 64.1148 121.462C64.4228 121.518 64.6934 121.602 64.9268 121.714L64.6188 123.198L64.4648 123.268C63.9888 123.007 63.5641 122.876 63.1908 122.876C62.7614 122.876 62.4301 123.03 62.1968 123.338C61.9634 123.646 61.8468 124.085 61.8468 124.654C61.8468 125.307 61.9728 125.807 62.2248 126.152C62.4768 126.497 62.8361 126.67 63.3028 126.67C63.7228 126.67 64.1894 126.553 64.7028 126.32L64.8428 126.432L64.6608 127.874C64.1008 128.051 63.5268 128.14 62.9388 128.14C62.0428 128.14 61.3428 127.851 60.8388 127.272C60.3348 126.684 60.0828 125.867 60.0828 124.822C60.0828 123.739 60.3581 122.895 60.9088 122.288C61.4594 121.672 62.2248 121.364 63.2048 121.364ZM63.1908 128.672L63.6668 128.938C63.8721 129.05 64.0168 129.171 64.1008 129.302C64.1941 129.442 64.2408 129.596 64.2408 129.764C64.2408 130.072 64.1194 130.324 63.8768 130.52C63.6341 130.716 63.3168 130.814 62.9248 130.814C62.5048 130.814 62.1221 130.683 61.7768 130.422L61.9028 129.638L61.9868 129.596C62.2668 129.876 62.5421 130.016 62.8128 130.016C63.0368 130.016 63.1488 129.918 63.1488 129.722C63.1488 129.657 63.1301 129.601 63.0928 129.554C63.0554 129.517 62.9948 129.479 62.9108 129.442L62.2248 129.05L62.5468 127.636H63.4428L63.1908 128.672ZM68.3428 121.364C69.0614 121.364 69.6214 121.527 70.0228 121.854C70.4334 122.171 70.6388 122.619 70.6388 123.198C70.6388 123.366 70.6108 123.898 70.5548 124.794C70.5454 125.055 70.5314 125.326 70.5128 125.606C70.4941 125.877 70.4848 126.11 70.4848 126.306C70.4848 126.465 70.5081 126.577 70.5548 126.642C70.6014 126.698 70.6854 126.726 70.8068 126.726C70.9001 126.726 71.0214 126.707 71.1708 126.67L71.3108 126.782L71.1428 127.762C70.8441 127.958 70.5034 128.075 70.1208 128.112C69.8408 128.084 69.6074 127.986 69.4208 127.818C69.2341 127.641 69.1081 127.398 69.0428 127.09H68.9448C68.4781 127.585 67.9974 127.93 67.5028 128.126C66.8308 128.117 66.3034 127.939 65.9208 127.594C65.5381 127.249 65.3468 126.777 65.3468 126.18C65.3468 125.713 65.4634 125.349 65.6968 125.088C65.9394 124.817 66.3034 124.635 66.7888 124.542L68.9308 124.136V123.562C68.9308 122.955 68.6321 122.652 68.0348 122.652C67.7454 122.652 67.4374 122.717 67.1108 122.848C66.7934 122.979 66.4341 123.184 66.0328 123.464L65.8928 123.38L65.6828 122.148C66.0841 121.896 66.5134 121.705 66.9708 121.574C67.4281 121.434 67.8854 121.364 68.3428 121.364ZM67.4328 125.396C67.2834 125.433 67.1714 125.499 67.0968 125.592C67.0314 125.676 66.9988 125.807 66.9988 125.984C66.9988 126.227 67.0641 126.418 67.1948 126.558C67.3254 126.689 67.5074 126.754 67.7408 126.754C68.1048 126.754 68.4874 126.539 68.8888 126.11L68.9168 125.074L67.4328 125.396ZM70.6388 118.732V118.886L69.6588 120.132L69.4768 120.202C69.2248 120.174 68.8374 120.085 68.3148 119.936C68.2681 119.927 68.1141 119.889 67.8528 119.824C67.6008 119.749 67.4234 119.712 67.3208 119.712C67.2181 119.712 67.1154 119.754 67.0128 119.838C66.9194 119.922 66.8168 120.025 66.7048 120.146C66.5928 120.267 66.5088 120.361 66.4528 120.426H66.2848L65.7248 119.88V119.726L66.7188 118.48L66.8868 118.41C67.1108 118.438 67.5074 118.531 68.0768 118.69C68.5994 118.83 68.9214 118.9 69.0428 118.9C69.1548 118.9 69.2621 118.853 69.3648 118.76C69.4768 118.667 69.5888 118.559 69.7008 118.438C69.8128 118.317 69.8874 118.233 69.9248 118.186H70.0928L70.6388 118.732ZM75.223 121.364C76.175 121.364 76.903 121.644 77.407 122.204C77.911 122.764 78.163 123.571 78.163 124.626C78.163 125.765 77.8923 126.637 77.351 127.244C76.8097 127.841 76.0303 128.14 75.013 128.14C74.061 128.14 73.333 127.86 72.829 127.3C72.325 126.74 72.073 125.933 72.073 124.878C72.073 123.739 72.3437 122.871 72.885 122.274C73.4263 121.667 74.2057 121.364 75.223 121.364ZM75.097 122.624C74.649 122.624 74.3223 122.773 74.117 123.072C73.921 123.371 73.823 123.851 73.823 124.514C73.823 125.373 73.9257 125.984 74.131 126.348C74.3363 126.712 74.6723 126.894 75.139 126.894C75.587 126.894 75.909 126.749 76.105 126.46C76.3103 126.161 76.413 125.676 76.413 125.004C76.413 124.155 76.3057 123.548 76.091 123.184C75.8857 122.811 75.5543 122.624 75.097 122.624ZM86.9901 125.13L87.0321 126.306C87.0321 126.465 87.0508 126.577 87.0881 126.642C87.1348 126.698 87.2141 126.726 87.3261 126.726C87.4288 126.726 87.5548 126.707 87.7041 126.67L87.8301 126.782L87.6761 127.762C87.3588 127.958 87.0134 128.075 86.6401 128.112C86.3508 128.084 86.1081 127.986 85.9121 127.818C85.7161 127.65 85.5808 127.421 85.5061 127.132H85.3941C84.9368 127.552 84.4701 127.874 83.9941 128.098C83.0794 128.098 82.3701 127.809 81.8661 127.23C81.3621 126.642 81.1101 125.83 81.1101 124.794C81.1101 123.693 81.3994 122.848 81.9781 122.26C82.5568 121.672 83.3594 121.378 84.3861 121.378C84.6568 121.378 84.9554 121.406 85.2821 121.462L85.2541 118.312L87.1021 118.172L86.9901 125.13ZM84.2601 122.638C83.3268 122.638 82.8601 123.231 82.8601 124.416C82.8601 125.153 82.9721 125.709 83.1961 126.082C83.4201 126.455 83.7468 126.642 84.1761 126.642C84.5868 126.642 84.9648 126.451 85.3101 126.068L85.3381 125.298L85.2961 122.89C84.9321 122.722 84.5868 122.638 84.2601 122.638ZM93.9672 124.976L90.1872 125.004C90.2712 126.171 90.8639 126.754 91.9652 126.754C92.5439 126.754 93.1879 126.591 93.8972 126.264L94.0512 126.362L93.7712 127.748C93.0619 128.009 92.3946 128.14 91.7692 128.14C90.7426 128.14 89.9352 127.841 89.3472 127.244C88.7686 126.647 88.4792 125.821 88.4792 124.766C88.4792 123.721 88.7639 122.895 89.3332 122.288C89.9026 121.672 90.6726 121.364 91.6432 121.364C92.4739 121.364 93.1132 121.593 93.5612 122.05C94.0186 122.498 94.2472 123.128 94.2472 123.94C94.2472 124.155 94.2239 124.425 94.1772 124.752L93.9672 124.976ZM92.6232 123.73C92.6232 123.357 92.5392 123.077 92.3712 122.89C92.2032 122.694 91.9559 122.596 91.6292 122.596C91.2652 122.596 90.9619 122.717 90.7192 122.96C90.4766 123.193 90.3132 123.534 90.2292 123.982L92.5952 123.926L92.6232 123.73ZM98.8679 122.526L99.8479 126.25H99.9459L101.122 122.624L101.36 121.49H102.984L100.8 128H98.7979L96.9499 121.532L98.6859 121.448L98.8679 122.526ZM106.269 121.364C106.987 121.364 107.547 121.527 107.949 121.854C108.359 122.171 108.565 122.619 108.565 123.198C108.565 123.366 108.537 123.898 108.481 124.794C108.471 125.055 108.457 125.326 108.439 125.606C108.42 125.877 108.411 126.11 108.411 126.306C108.411 126.465 108.434 126.577 108.481 126.642C108.527 126.698 108.611 126.726 108.733 126.726C108.826 126.726 108.947 126.707 109.097 126.67L109.237 126.782L109.069 127.762C108.77 127.958 108.429 128.075 108.047 128.112C107.767 128.084 107.533 127.986 107.347 127.818C107.16 127.641 107.034 127.398 106.969 127.09H106.871C106.404 127.585 105.923 127.93 105.429 128.126C104.757 128.117 104.229 127.939 103.847 127.594C103.464 127.249 103.273 126.777 103.273 126.18C103.273 125.713 103.389 125.349 103.623 125.088C103.865 124.817 104.229 124.635 104.715 124.542L106.857 124.136V123.562C106.857 122.955 106.558 122.652 105.961 122.652C105.671 122.652 105.363 122.717 105.037 122.848C104.719 122.979 104.36 123.184 103.959 123.464L103.819 123.38L103.609 122.148C104.01 121.896 104.439 121.705 104.897 121.574C105.354 121.434 105.811 121.364 106.269 121.364ZM105.359 125.396C105.209 125.433 105.097 125.499 105.023 125.592C104.957 125.676 104.925 125.807 104.925 125.984C104.925 126.227 104.99 126.418 105.121 126.558C105.251 126.689 105.433 126.754 105.667 126.754C106.031 126.754 106.413 126.539 106.815 126.11L106.843 125.074L105.359 125.396ZM112.267 125.13L112.365 128H110.503L110.601 125.298L110.517 118.312L112.379 118.172L112.267 125.13ZM116.827 121.364C117.779 121.364 118.507 121.644 119.011 122.204C119.515 122.764 119.767 123.571 119.767 124.626C119.767 125.765 119.496 126.637 118.955 127.244C118.413 127.841 117.634 128.14 116.617 128.14C115.665 128.14 114.937 127.86 114.433 127.3C113.929 126.74 113.677 125.933 113.677 124.878C113.677 123.739 113.947 122.871 114.489 122.274C115.03 121.667 115.809 121.364 116.827 121.364ZM116.701 122.624C116.253 122.624 115.926 122.773 115.721 123.072C115.525 123.371 115.427 123.851 115.427 124.514C115.427 125.373 115.529 125.984 115.735 126.348C115.94 126.712 116.276 126.894 116.743 126.894C117.191 126.894 117.513 126.749 117.709 126.46C117.914 126.161 118.017 125.676 118.017 125.004C118.017 124.155 117.909 123.548 117.695 123.184C117.489 122.811 117.158 122.624 116.701 122.624ZM124.558 121.476C124.642 121.476 124.759 121.485 124.908 121.504V123.226L124.712 123.296C124.554 123.231 124.381 123.198 124.194 123.198C123.653 123.198 123.163 123.548 122.724 124.248V125.13L122.822 128H120.96L121.072 125.312L120.988 121.616L122.752 121.462L122.738 122.736H122.85C123.308 121.896 123.877 121.476 124.558 121.476ZM130.868 124.976L127.088 125.004C127.172 126.171 127.764 126.754 128.866 126.754C129.444 126.754 130.088 126.591 130.798 126.264L130.952 126.362L130.672 127.748C129.962 128.009 129.295 128.14 128.67 128.14C127.643 128.14 126.836 127.841 126.248 127.244C125.669 126.647 125.38 125.821 125.38 124.766C125.38 123.721 125.664 122.895 126.234 122.288C126.803 121.672 127.573 121.364 128.544 121.364C129.374 121.364 130.014 121.593 130.462 122.05C130.919 122.498 131.148 123.128 131.148 123.94C131.148 124.155 131.124 124.425 131.078 124.752L130.868 124.976ZM129.524 123.73C129.524 123.357 129.44 123.077 129.272 122.89C129.104 122.694 128.856 122.596 128.53 122.596C128.166 122.596 127.862 122.717 127.62 122.96C127.377 123.193 127.214 123.534 127.13 123.982L129.496 123.926L129.524 123.73ZM134.615 121.378C135.25 121.378 135.847 121.485 136.407 121.7L136.155 123.072L135.931 123.142C135.66 122.965 135.39 122.829 135.119 122.736C134.848 122.643 134.61 122.596 134.405 122.596C134.181 122.596 134.004 122.657 133.873 122.778C133.742 122.89 133.677 123.03 133.677 123.198C133.677 123.394 133.761 123.553 133.929 123.674C134.106 123.795 134.382 123.931 134.755 124.08C135.128 124.229 135.436 124.374 135.679 124.514C135.922 124.654 136.127 124.85 136.295 125.102C136.472 125.345 136.561 125.648 136.561 126.012C136.561 126.385 136.463 126.735 136.267 127.062C136.08 127.379 135.791 127.641 135.399 127.846C135.007 128.042 134.526 128.14 133.957 128.14C133.285 128.14 132.59 128 131.871 127.72L132.081 126.264L132.263 126.152C132.552 126.395 132.874 126.591 133.229 126.74C133.584 126.88 133.896 126.95 134.167 126.95C134.419 126.95 134.615 126.889 134.755 126.768C134.895 126.637 134.965 126.483 134.965 126.306C134.965 126.11 134.876 125.951 134.699 125.83C134.531 125.709 134.26 125.573 133.887 125.424C133.504 125.256 133.192 125.107 132.949 124.976C132.706 124.836 132.496 124.64 132.319 124.388C132.151 124.136 132.067 123.823 132.067 123.45C132.067 122.843 132.296 122.349 132.753 121.966C133.21 121.574 133.831 121.378 134.615 121.378ZM61.1423 138.372C60.8903 138.437 60.5309 138.507 60.0643 138.582L60.0363 138.638C60.1763 138.918 60.2463 139.231 60.2463 139.576C60.2463 140.276 59.9896 140.836 59.4763 141.256C58.9723 141.667 58.2863 141.872 57.4183 141.872C57.1569 141.872 56.8863 141.849 56.6063 141.802C56.5223 141.886 56.4663 141.951 56.4383 141.998C56.4103 142.045 56.3963 142.101 56.3963 142.166C56.3963 142.334 56.5083 142.451 56.7323 142.516C56.9563 142.581 57.3109 142.647 57.7963 142.712C58.3469 142.777 58.8043 142.857 59.1683 142.95C59.5416 143.043 59.8589 143.207 60.1203 143.44C60.3909 143.673 60.5263 144.005 60.5263 144.434C60.5263 144.873 60.3863 145.265 60.1063 145.61C59.8356 145.965 59.4576 146.24 58.9723 146.436C58.4869 146.632 57.9363 146.73 57.3203 146.73C56.4709 146.73 55.8176 146.557 55.3603 146.212C54.9029 145.867 54.6743 145.409 54.6743 144.84C54.9636 144.439 55.3509 144.089 55.8363 143.79V143.72C55.5189 143.608 55.2716 143.454 55.0943 143.258C54.9169 143.053 54.8283 142.782 54.8283 142.446C55.0803 142.138 55.3976 141.853 55.7803 141.592V141.522C55.4443 141.335 55.1876 141.093 55.0103 140.794C54.8423 140.486 54.7583 140.127 54.7583 139.716C54.7583 138.988 55.0103 138.419 55.5143 138.008C56.0183 137.597 56.7043 137.392 57.5723 137.392C58.0763 137.392 58.5336 137.476 58.9443 137.644C59.6163 137.523 60.3023 137.336 61.0023 137.084L61.1423 137.21V138.372ZM57.4743 140.752C57.8569 140.752 58.1463 140.654 58.3423 140.458C58.5383 140.262 58.6363 139.977 58.6363 139.604C58.6363 138.895 58.2723 138.54 57.5443 138.54C56.7603 138.54 56.3683 138.899 56.3683 139.618C56.3683 139.991 56.4616 140.276 56.6483 140.472C56.8349 140.659 57.1103 140.752 57.4743 140.752ZM58.9583 144.77C58.9583 144.518 58.8229 144.345 58.5523 144.252C58.2909 144.159 57.8849 144.079 57.3343 144.014L56.8583 143.944C56.6343 144.093 56.4663 144.238 56.3543 144.378C56.2423 144.518 56.1863 144.667 56.1863 144.826C56.1863 145.069 56.2983 145.265 56.5223 145.414C56.7463 145.563 57.0729 145.638 57.5023 145.638C57.9409 145.638 58.2909 145.559 58.5523 145.4C58.8229 145.251 58.9583 145.041 58.9583 144.77ZM63.7043 141.13L63.8023 144H61.9403L62.0383 141.298L61.9543 134.312L63.8163 134.172L63.7043 141.13ZM65.688 141.312L65.618 137.616L67.452 137.462L67.368 141.13L67.452 144H65.59L65.688 141.312ZM66.57 134.298C66.8593 134.298 67.0833 134.382 67.242 134.55C67.41 134.718 67.494 134.951 67.494 135.25C67.494 135.567 67.4053 135.819 67.228 136.006C67.0507 136.193 66.808 136.286 66.5 136.286C66.192 136.286 65.954 136.202 65.786 136.034C65.6273 135.866 65.548 135.628 65.548 135.32C65.548 135.012 65.6367 134.765 65.814 134.578C66.0007 134.391 66.2527 134.298 66.57 134.298ZM71.8864 137.364C72.1944 137.364 72.4977 137.397 72.7964 137.462C73.1044 137.518 73.3751 137.602 73.6084 137.714L73.3004 139.198L73.1464 139.268C72.6704 139.007 72.2457 138.876 71.8724 138.876C71.4431 138.876 71.1117 139.03 70.8784 139.338C70.6451 139.646 70.5284 140.085 70.5284 140.654C70.5284 141.307 70.6544 141.807 70.9064 142.152C71.1584 142.497 71.5177 142.67 71.9844 142.67C72.4044 142.67 72.8711 142.553 73.3844 142.32L73.5244 142.432L73.3424 143.874C72.7824 144.051 72.2084 144.14 71.6204 144.14C70.7244 144.14 70.0244 143.851 69.5204 143.272C69.0164 142.684 68.7644 141.867 68.7644 140.822C68.7644 139.739 69.0397 138.895 69.5904 138.288C70.1411 137.672 70.9064 137.364 71.8864 137.364ZM79.6391 140.976L75.8591 141.004C75.9431 142.171 76.5358 142.754 77.6371 142.754C78.2158 142.754 78.8598 142.591 79.5691 142.264L79.7231 142.362L79.4431 143.748C78.7338 144.009 78.0665 144.14 77.4411 144.14C76.4145 144.14 75.6071 143.841 75.0191 143.244C74.4405 142.647 74.1511 141.821 74.1511 140.766C74.1511 139.721 74.4358 138.895 75.0051 138.288C75.5745 137.672 76.3445 137.364 77.3151 137.364C78.1458 137.364 78.7851 137.593 79.2331 138.05C79.6905 138.498 79.9191 139.128 79.9191 139.94C79.9191 140.155 79.8958 140.425 79.8491 140.752L79.6391 140.976ZM78.2951 139.73C78.2951 139.357 78.2111 139.077 78.0431 138.89C77.8751 138.694 77.6278 138.596 77.3011 138.596C76.9371 138.596 76.6338 138.717 76.3911 138.96C76.1485 139.193 75.9851 139.534 75.9011 139.982L78.2671 139.926L78.2951 139.73ZM75.0051 135.936C75.5371 135.451 76.1951 134.793 76.9791 133.962H77.3851C78.1131 134.765 78.7665 135.423 79.3451 135.936L78.8831 136.65H78.7011C78.0851 136.165 77.5765 135.735 77.1751 135.362C76.8111 135.707 76.3071 136.137 75.6631 136.65H75.4811L75.0051 135.936ZM89.0006 144L89.1126 139.94C89.1126 139.249 88.8186 138.904 88.2306 138.904C87.8106 138.904 87.372 139.091 86.9146 139.464L86.8726 141.144L86.9566 144H85.0946L85.2066 139.94C85.216 139.604 85.1413 139.347 84.9826 139.17C84.8333 138.993 84.614 138.904 84.3246 138.904C83.914 138.904 83.4613 139.1 82.9666 139.492V141.13L83.0506 144H81.2026L81.3006 141.312L81.2306 137.616L82.9806 137.462V138.414H83.0786C83.592 137.947 84.1566 137.611 84.7726 137.406C85.818 137.406 86.4853 137.756 86.7746 138.456H86.8586C87.3906 137.961 87.9973 137.611 88.6786 137.406C89.388 137.406 89.9246 137.569 90.2886 137.896C90.662 138.213 90.8393 138.675 90.8206 139.282L90.7786 141.144L90.8626 144H89.0006ZM92.6216 141.312L92.5516 137.616L94.3856 137.462L94.3016 141.13L94.3856 144H92.5236L92.6216 141.312ZM93.5036 134.298C93.7929 134.298 94.0169 134.382 94.1756 134.55C94.3436 134.718 94.4276 134.951 94.4276 135.25C94.4276 135.567 94.3389 135.819 94.1616 136.006C93.9843 136.193 93.7416 136.286 93.4336 136.286C93.1256 136.286 92.8876 136.202 92.7196 136.034C92.5609 135.866 92.4816 135.628 92.4816 135.32C92.4816 135.012 92.5703 134.765 92.7476 134.578C92.9343 134.391 93.1863 134.298 93.5036 134.298ZM98.82 137.364C99.128 137.364 99.4313 137.397 99.73 137.462C100.038 137.518 100.309 137.602 100.542 137.714L100.234 139.198L100.08 139.268C99.604 139.007 99.1793 138.876 98.806 138.876C98.3767 138.876 98.0453 139.03 97.812 139.338C97.5787 139.646 97.462 140.085 97.462 140.654C97.462 141.307 97.588 141.807 97.84 142.152C98.092 142.497 98.4513 142.67 98.918 142.67C99.338 142.67 99.8047 142.553 100.318 142.32L100.458 142.432L100.276 143.874C99.716 144.051 99.142 144.14 98.554 144.14C97.658 144.14 96.958 143.851 96.454 143.272C95.95 142.684 95.698 141.867 95.698 140.822C95.698 139.739 95.9733 138.895 96.524 138.288C97.0747 137.672 97.84 137.364 98.82 137.364ZM104.235 137.364C105.187 137.364 105.915 137.644 106.419 138.204C106.923 138.764 107.175 139.571 107.175 140.626C107.175 141.765 106.904 142.637 106.363 143.244C105.821 143.841 105.042 144.14 104.025 144.14C103.073 144.14 102.345 143.86 101.841 143.3C101.337 142.74 101.085 141.933 101.085 140.878C101.085 139.739 101.355 138.871 101.897 138.274C102.438 137.667 103.217 137.364 104.235 137.364ZM104.109 138.624C103.661 138.624 103.334 138.773 103.129 139.072C102.933 139.371 102.835 139.851 102.835 140.514C102.835 141.373 102.937 141.984 103.143 142.348C103.348 142.712 103.684 142.894 104.151 142.894C104.599 142.894 104.921 142.749 105.117 142.46C105.322 142.161 105.425 141.676 105.425 141.004C105.425 140.155 105.317 139.548 105.103 139.184C104.897 138.811 104.566 138.624 104.109 138.624ZM110.635 137.378C111.269 137.378 111.867 137.485 112.427 137.7L112.175 139.072L111.951 139.142C111.68 138.965 111.409 138.829 111.139 138.736C110.868 138.643 110.63 138.596 110.425 138.596C110.201 138.596 110.023 138.657 109.893 138.778C109.762 138.89 109.697 139.03 109.697 139.198C109.697 139.394 109.781 139.553 109.949 139.674C110.126 139.795 110.401 139.931 110.775 140.08C111.148 140.229 111.456 140.374 111.699 140.514C111.941 140.654 112.147 140.85 112.315 141.102C112.492 141.345 112.581 141.648 112.581 142.012C112.581 142.385 112.483 142.735 112.287 143.062C112.1 143.379 111.811 143.641 111.419 143.846C111.027 144.042 110.546 144.14 109.977 144.14C109.305 144.14 108.609 144 107.891 143.72L108.101 142.264L108.283 142.152C108.572 142.395 108.894 142.591 109.249 142.74C109.603 142.88 109.916 142.95 110.187 142.95C110.439 142.95 110.635 142.889 110.775 142.768C110.915 142.637 110.985 142.483 110.985 142.306C110.985 142.11 110.896 141.951 110.719 141.83C110.551 141.709 110.28 141.573 109.907 141.424C109.524 141.256 109.211 141.107 108.969 140.976C108.726 140.836 108.516 140.64 108.339 140.388C108.171 140.136 108.087 139.823 108.087 139.45C108.087 138.843 108.315 138.349 108.773 137.966C109.23 137.574 109.851 137.378 110.635 137.378Z" fill="white"/>
<defs>
<filter id="filter0_b_206:37343" x="3" y="67" width="161" height="97" filterUnits="userSpaceOnUse" color-interpolation-filters="sRGB">
<feFlood flood-opacity="0" result="BackgroundImageFix"/>
<feGaussianBlur in="BackgroundImage" stdDeviation="5"/>
<feComposite in2="SourceAlpha" operator="in" result="effect1_backgroundBlur_206:37343"/>
<feBlend mode="normal" in="SourceGraphic" in2="effect1_backgroundBlur_206:37343" result="shape"/>
</filter>
</defs>
</svg>
