<svg width="167" height="167" viewBox="0 0 167 167" fill="none" xmlns="http://www.w3.org/2000/svg">
<mask id="mask0_206:37270" style="mask-type:alpha" maskUnits="userSpaceOnUse" x="0" y="0" width="167" height="167">
<rect x="1" y="1" width="165" height="165" rx="8" fill="#5988D6" stroke="#EDE6FC" stroke-opacity="0.3"/>
</mask>
<g mask="url(#mask0_206:37270)">
<rect x="1" y="1" width="165" height="165" rx="8" fill="#A9D97A" stroke="#EDE6FC" stroke-opacity="0.3"/>
<g filter="url(#filter0_d_206:37270)">
<path d="M106.004 47.0548C105.257 46.6996 104.577 46.2188 103.992 45.6334C103.354 44.9965 102.84 44.2457 102.478 43.4198C101.566 43.8923 100.528 44.0623 99.5128 43.9052C98.4979 43.7482 97.5594 43.2722 96.8333 42.5462C95.9437 41.657 95.4359 40.456 95.4179 39.1985C95.3999 37.9409 95.873 36.7259 96.7367 35.8115C93.7163 31.4409 94.1514 25.4045 98.0427 21.5147L98.0608 21.4973C91.4311 18.8343 84.2612 16.5242 82.3514 16.6611C78.7446 16.92 60.9782 22.8517 58.6489 25.1737C56.3196 27.4956 60.8291 57.1807 63.1865 59.2449C65.544 61.3091 82.1468 68.9241 87.3082 68.4081C92.4696 67.8922 107.229 58.7178 108.105 57.1116C108.388 56.5938 108.697 55.2778 109 53.4733C107.331 51.7156 106.279 49.4627 106.004 47.0548Z" fill="#CAD8D8"/>
<path d="M98.0426 21.5147C98.1362 21.4211 98.2312 21.3298 98.3274 21.241C92.3322 18.7977 85.2999 16.5612 82.7323 16.5612C79.3387 16.5612 61.8312 21.1885 61.9829 24.6851C62.0976 27.3196 79.0867 34.9841 83.9469 35.3314C86.0025 35.4794 90.6684 34.4734 95.3492 33.0479C94.0248 29.1337 94.9223 24.6348 98.0426 21.5147Z" fill="#DFEFEF"/>
<path d="M89.4232 29.0697C86.8231 29.2654 86.7595 32.4965 89.9197 32.1943C93.08 31.8921 93.1828 28.7868 89.4232 29.0697Z" fill="#EDF9F9"/>
<path d="M80.6669 17.9622C67.4063 17.9622 63.5398 28.0371 78.651 28.9839C95.9734 30.0672 99.9742 17.9622 80.6669 17.9622Z" fill="#EDF9F9"/>
<path d="M88.5988 36.8637C86.527 37.6234 85.7527 42.0392 89.5566 42.139C93.3606 42.2389 94.9844 34.5211 88.5988 36.8637Z" fill="#B2C1C0"/>
<path d="M89.3428 63.3422C87.8093 62.2326 85.8241 65.3823 87.604 66.655C89.3839 67.9277 93.2363 66.1583 89.3428 63.3422Z" fill="#B2C1C0"/>
<path d="M86.0572 43.0929C84.6196 42.4386 83.574 46.3062 85.5171 46.0887C87.4601 45.8712 87.785 43.8796 86.0572 43.0929Z" fill="#B2C1C0"/>
<path d="M61.4358 28.5804C57.8405 28.5198 57.4199 42.9179 65.269 42.6838C73.1182 42.4497 72.2059 28.7631 61.4358 28.5804Z" fill="#DFEFEF"/>
<path d="M75.9937 37.2048C71.3055 36.1103 70.0095 43.1354 75.0791 44.3086C80.1487 45.4818 80.8047 38.3276 75.9937 37.2048Z" fill="#DFEFEF"/>
<path d="M109 53.4733C107.139 51.6122 106.283 49.4811 106.004 47.0548C105.257 46.6996 104.576 46.2188 103.992 45.6334C103.353 44.9965 102.84 44.2457 102.477 43.4198C101.566 43.8923 100.527 44.0623 99.5123 43.9052C98.4975 43.7482 97.559 43.2722 96.8329 42.5462C95.9433 41.657 95.4355 40.456 95.4175 39.1985C95.3994 37.9409 95.8726 36.7259 96.7363 35.8115C93.7159 31.4409 93.5724 25.2225 98.3272 21.241C97.7145 25.5354 97.8 29.2843 98.9328 32.2143C98.7848 34.9375 100.972 37.5509 103.668 38.1098C104.126 41.94 104.624 44.0364 107.418 45.2111C106.152 48.4884 108.386 50.3872 109 53.4733Z" fill="#B2C1C0"/>
</g>
</g>
<g filter="url(#filter1_b_206:37270)">
<rect x="13" y="77" width="141" height="77" rx="10" fill="black" fill-opacity="0.8"/>
</g>
<path d="M54.3551 93.144L54.4111 96H52.5211L52.6051 93.312L52.5911 92.262L50.5611 92.248L48.7271 92.276L48.7131 93.144L48.7831 96H46.8931L46.9911 93.312L46.8931 86.984H48.8111L48.7551 90.708L50.6871 90.736L52.5771 90.708L52.5211 86.984H54.4531L54.3551 93.144ZM56.4732 93.312L56.4032 89.616L58.2372 89.462L58.1532 93.13L58.2372 96H56.3752L56.4732 93.312ZM57.3552 86.298C57.6445 86.298 57.8685 86.382 58.0272 86.55C58.1952 86.718 58.2792 86.9513 58.2792 87.25C58.2792 87.5673 58.1905 87.8193 58.0132 88.006C57.8358 88.1927 57.5932 88.286 57.2852 88.286C56.9772 88.286 56.7392 88.202 56.5712 88.034C56.4125 87.866 56.3332 87.628 56.3332 87.32C56.3332 87.012 56.4218 86.7647 56.5992 86.578C56.7858 86.3913 57.0378 86.298 57.3552 86.298ZM63.3869 89.406C64.1989 89.406 64.8242 89.6813 65.2629 90.232C65.7015 90.7827 65.9209 91.562 65.9209 92.57C65.9209 93.7087 65.6362 94.5907 65.0669 95.216C64.5069 95.832 63.7135 96.14 62.6869 96.14C62.3882 96.14 62.0755 96.112 61.7489 96.056L61.7909 98.59H59.9429L60.0409 93.312L59.9569 89.616L61.7349 89.462L61.7209 90.414H61.8189C62.0802 90.162 62.3322 89.9613 62.5749 89.812C62.8175 89.6533 63.0882 89.518 63.3869 89.406ZM62.7009 94.922C63.1862 94.922 63.5549 94.7493 63.8069 94.404C64.0589 94.0587 64.1849 93.55 64.1849 92.878C64.1849 92.2247 64.0775 91.7347 63.8629 91.408C63.6575 91.072 63.3495 90.904 62.9389 90.904C62.5375 90.904 62.1315 91.1047 61.7209 91.506L61.7069 93.13L61.7349 94.712C62.0709 94.852 62.3929 94.922 62.7009 94.922ZM69.891 89.364C70.843 89.364 71.571 89.644 72.075 90.204C72.579 90.764 72.831 91.5713 72.831 92.626C72.831 93.7647 72.5603 94.6373 72.019 95.244C71.4776 95.8413 70.6983 96.14 69.681 96.14C68.729 96.14 68.001 95.86 67.497 95.3C66.993 94.74 66.741 93.9327 66.741 92.878C66.741 91.7393 67.0116 90.8713 67.553 90.274C68.0943 89.6673 68.8736 89.364 69.891 89.364ZM69.765 90.624C69.317 90.624 68.9903 90.7733 68.785 91.072C68.589 91.3707 68.491 91.8513 68.491 92.514C68.491 93.3727 68.5936 93.984 68.799 94.348C69.0043 94.712 69.3403 94.894 69.807 94.894C70.255 94.894 70.577 94.7493 70.773 94.46C70.9783 94.1613 71.081 93.676 71.081 93.004C71.081 92.1547 70.9736 91.548 70.759 91.184C70.5536 90.8107 70.2223 90.624 69.765 90.624ZM80.3649 90.372C80.1129 90.4373 79.7536 90.5073 79.2869 90.582L79.2589 90.638C79.3989 90.918 79.4689 91.2307 79.4689 91.576C79.4689 92.276 79.2123 92.836 78.6989 93.256C78.1949 93.6667 77.5089 93.872 76.6409 93.872C76.3796 93.872 76.1089 93.8487 75.8289 93.802C75.7449 93.886 75.6889 93.9513 75.6609 93.998C75.6329 94.0447 75.6189 94.1007 75.6189 94.166C75.6189 94.334 75.7309 94.4507 75.9549 94.516C76.1789 94.5813 76.5336 94.6467 77.0189 94.712C77.5696 94.7773 78.0269 94.8567 78.3909 94.95C78.7643 95.0433 79.0816 95.2067 79.3429 95.44C79.6136 95.6733 79.7489 96.0047 79.7489 96.434C79.7489 96.8727 79.6089 97.2647 79.3289 97.61C79.0583 97.9647 78.6803 98.24 78.1949 98.436C77.7096 98.632 77.1589 98.73 76.5429 98.73C75.6936 98.73 75.0403 98.5573 74.5829 98.212C74.1256 97.8667 73.8969 97.4093 73.8969 96.84C74.1863 96.4387 74.5736 96.0887 75.0589 95.79V95.72C74.7416 95.608 74.4943 95.454 74.3169 95.258C74.1396 95.0527 74.0509 94.782 74.0509 94.446C74.3029 94.138 74.6203 93.8533 75.0029 93.592V93.522C74.6669 93.3353 74.4103 93.0927 74.2329 92.794C74.0649 92.486 73.9809 92.1267 73.9809 91.716C73.9809 90.988 74.2329 90.4187 74.7369 90.008C75.2409 89.5973 75.9269 89.392 76.7949 89.392C77.2989 89.392 77.7563 89.476 78.1669 89.644C78.8389 89.5227 79.5249 89.336 80.2249 89.084L80.3649 89.21V90.372ZM76.6969 92.752C77.0796 92.752 77.3689 92.654 77.5649 92.458C77.7609 92.262 77.8589 91.9773 77.8589 91.604C77.8589 90.8947 77.4949 90.54 76.7669 90.54C75.9829 90.54 75.5909 90.8993 75.5909 91.618C75.5909 91.9913 75.6843 92.276 75.8709 92.472C76.0576 92.6587 76.3329 92.752 76.6969 92.752ZM78.1809 96.77C78.1809 96.518 78.0456 96.3453 77.7749 96.252C77.5136 96.1587 77.1076 96.0793 76.5569 96.014L76.0809 95.944C75.8569 96.0933 75.6889 96.238 75.5769 96.378C75.4649 96.518 75.4089 96.6673 75.4089 96.826C75.4089 97.0687 75.5209 97.2647 75.7449 97.414C75.9689 97.5633 76.2956 97.638 76.7249 97.638C77.1636 97.638 77.5136 97.5587 77.7749 97.4C78.0456 97.2507 78.1809 97.0407 78.1809 96.77ZM82.9269 93.13L83.0249 96H81.1629L81.2609 93.298L81.1769 86.312L83.0389 86.172L82.9269 93.13ZM84.9107 93.312L84.8407 89.616L86.6747 89.462L86.5907 93.13L86.6747 96H84.8127L84.9107 93.312ZM85.7927 86.298C86.082 86.298 86.306 86.382 86.4647 86.55C86.6327 86.718 86.7167 86.9513 86.7167 87.25C86.7167 87.5673 86.628 87.8193 86.4507 88.006C86.2733 88.1927 86.0307 88.286 85.7227 88.286C85.4147 88.286 85.1767 88.202 85.0087 88.034C84.85 87.866 84.7707 87.628 84.7707 87.32C84.7707 87.012 84.8593 86.7647 85.0367 86.578C85.2233 86.3913 85.4753 86.298 85.7927 86.298ZM91.1091 89.364C91.4171 89.364 91.7204 89.3967 92.0191 89.462C92.3271 89.518 92.5977 89.602 92.8311 89.714L92.5231 91.198L92.3691 91.268C91.8931 91.0067 91.4684 90.876 91.0951 90.876C90.6657 90.876 90.3344 91.03 90.1011 91.338C89.8677 91.646 89.7511 92.0847 89.7511 92.654C89.7511 93.3073 89.8771 93.8067 90.1291 94.152C90.3811 94.4973 90.7404 94.67 91.2071 94.67C91.6271 94.67 92.0937 94.5533 92.6071 94.32L92.7471 94.432L92.5651 95.874C92.0051 96.0513 91.4311 96.14 90.8431 96.14C89.9471 96.14 89.2471 95.8507 88.7431 95.272C88.2391 94.684 87.9871 93.8673 87.9871 92.822C87.9871 91.7393 88.2624 90.8947 88.8131 90.288C89.3637 89.672 90.1291 89.364 91.1091 89.364ZM98.8618 92.976L95.0818 93.004C95.1658 94.1707 95.7584 94.754 96.8598 94.754C97.4384 94.754 98.0824 94.5907 98.7918 94.264L98.9458 94.362L98.6658 95.748C97.9564 96.0093 97.2891 96.14 96.6638 96.14C95.6371 96.14 94.8298 95.8413 94.2418 95.244C93.6631 94.6467 93.3738 93.8207 93.3738 92.766C93.3738 91.7207 93.6584 90.8947 94.2278 90.288C94.7971 89.672 95.5671 89.364 96.5378 89.364C97.3684 89.364 98.0078 89.5927 98.4558 90.05C98.9131 90.498 99.1418 91.128 99.1418 91.94C99.1418 92.1547 99.1184 92.4253 99.0718 92.752L98.8618 92.976ZM97.5178 91.73C97.5178 91.3567 97.4338 91.0767 97.2658 90.89C97.0978 90.694 96.8504 90.596 96.5238 90.596C96.1598 90.596 95.8564 90.7173 95.6138 90.96C95.3711 91.1933 95.2078 91.534 95.1238 91.982L97.4898 91.926L97.5178 91.73ZM108.223 96L108.335 91.94C108.335 91.2493 108.041 90.904 107.453 90.904C107.033 90.904 106.595 91.0907 106.137 91.464L106.095 93.144L106.179 96H104.317L104.429 91.94C104.439 91.604 104.364 91.3473 104.205 91.17C104.056 90.9927 103.837 90.904 103.547 90.904C103.137 90.904 102.684 91.1 102.189 91.492V93.13L102.273 96H100.425L100.523 93.312L100.453 89.616L102.203 89.462V90.414H102.301C102.815 89.9473 103.379 89.6113 103.995 89.406C105.041 89.406 105.708 89.756 105.997 90.456H106.081C106.613 89.9613 107.22 89.6113 107.901 89.406C108.611 89.406 109.147 89.5693 109.511 89.896C109.885 90.2133 110.062 90.6753 110.043 91.282L110.001 93.144L110.085 96H108.223ZM111.844 93.312L111.774 89.616L113.608 89.462L113.524 93.13L113.608 96H111.746L111.844 93.312ZM112.726 86.298C113.016 86.298 113.24 86.382 113.398 86.55C113.566 86.718 113.65 86.9513 113.65 87.25C113.65 87.5673 113.562 87.8193 113.384 88.006C113.207 88.1927 112.964 88.286 112.656 88.286C112.348 88.286 112.11 88.202 111.942 88.034C111.784 87.866 111.704 87.628 111.704 87.32C111.704 87.012 111.793 86.7647 111.97 86.578C112.157 86.3913 112.409 86.298 112.726 86.298ZM117.931 89.364C118.649 89.364 119.209 89.5273 119.611 89.854C120.021 90.1713 120.227 90.6193 120.227 91.198C120.227 91.366 120.199 91.898 120.143 92.794C120.133 93.0553 120.119 93.326 120.101 93.606C120.082 93.8767 120.073 94.11 120.073 94.306C120.073 94.4647 120.096 94.5767 120.143 94.642C120.189 94.698 120.273 94.726 120.395 94.726C120.488 94.726 120.609 94.7073 120.759 94.67L120.899 94.782L120.731 95.762C120.432 95.958 120.091 96.0747 119.709 96.112C119.429 96.084 119.195 95.986 119.009 95.818C118.822 95.6407 118.696 95.398 118.631 95.09H118.533C118.066 95.5847 117.585 95.93 117.091 96.126C116.419 96.1167 115.891 95.9393 115.509 95.594C115.126 95.2487 114.935 94.7773 114.935 94.18C114.935 93.7133 115.051 93.3493 115.285 93.088C115.527 92.8173 115.891 92.6353 116.377 92.542L118.519 92.136V91.562C118.519 90.9553 118.22 90.652 117.623 90.652C117.333 90.652 117.025 90.7173 116.699 90.848C116.381 90.9787 116.022 91.184 115.621 91.464L115.481 91.38L115.271 90.148C115.672 89.896 116.101 89.7047 116.559 89.574C117.016 89.434 117.473 89.364 117.931 89.364ZM117.021 93.396C116.871 93.4333 116.759 93.4987 116.685 93.592C116.619 93.676 116.587 93.8067 116.587 93.984C116.587 94.2267 116.652 94.418 116.783 94.558C116.913 94.6887 117.095 94.754 117.329 94.754C117.693 94.754 118.075 94.5393 118.477 94.11L118.505 93.074L117.021 93.396ZM27.7821 105.476C27.8661 105.476 27.9827 105.485 28.1321 105.504V107.226L27.9361 107.296C27.7774 107.231 27.6047 107.198 27.4181 107.198C26.8767 107.198 26.3867 107.548 25.9481 108.248V109.13L26.0461 112H24.1841L24.2961 109.312L24.2121 105.616L25.9761 105.462L25.9621 106.736H26.0741C26.5314 105.896 27.1007 105.476 27.7821 105.476ZM34.0913 108.976L30.3113 109.004C30.3953 110.171 30.9879 110.754 32.0893 110.754C32.6679 110.754 33.3119 110.591 34.0213 110.264L34.1753 110.362L33.8953 111.748C33.1859 112.009 32.5186 112.14 31.8933 112.14C30.8666 112.14 30.0593 111.841 29.4713 111.244C28.8926 110.647 28.6033 109.821 28.6033 108.766C28.6033 107.721 28.8879 106.895 29.4573 106.288C30.0266 105.672 30.7966 105.364 31.7673 105.364C32.5979 105.364 33.2373 105.593 33.6853 106.05C34.1426 106.498 34.3713 107.128 34.3713 107.94C34.3713 108.155 34.3479 108.425 34.3013 108.752L34.0913 108.976ZM32.7473 107.73C32.7473 107.357 32.6633 107.077 32.4953 106.89C32.3273 106.694 32.0799 106.596 31.7533 106.596C31.3893 106.596 31.0859 106.717 30.8433 106.96C30.6006 107.193 30.4373 107.534 30.3533 107.982L32.7193 107.926L32.7473 107.73ZM39.0988 105.406C39.9108 105.406 40.5361 105.681 40.9748 106.232C41.4134 106.783 41.6328 107.562 41.6328 108.57C41.6328 109.709 41.3481 110.591 40.7788 111.216C40.2188 111.832 39.4254 112.14 38.3988 112.14C38.1001 112.14 37.7874 112.112 37.4608 112.056L37.5028 114.59H35.6548L35.7528 109.312L35.6688 105.616L37.4468 105.462L37.4328 106.414H37.5308C37.7921 106.162 38.0441 105.961 38.2868 105.812C38.5294 105.653 38.8001 105.518 39.0988 105.406ZM38.4128 110.922C38.8981 110.922 39.2668 110.749 39.5188 110.404C39.7708 110.059 39.8968 109.55 39.8968 108.878C39.8968 108.225 39.7894 107.735 39.5748 107.408C39.3694 107.072 39.0614 106.904 38.6508 106.904C38.2494 106.904 37.8434 107.105 37.4328 107.506L37.4188 109.13L37.4468 110.712C37.7828 110.852 38.1048 110.922 38.4128 110.922ZM46.4168 105.476C46.5008 105.476 46.6175 105.485 46.7668 105.504V107.226L46.5708 107.296C46.4122 107.231 46.2395 107.198 46.0528 107.198C45.5115 107.198 45.0215 107.548 44.5828 108.248V109.13L44.6808 112H42.8188L42.9308 109.312L42.8468 105.616L44.6108 105.462L44.5968 106.736H44.7088C45.1662 105.896 45.7355 105.476 46.4168 105.476ZM52.726 108.976L48.946 109.004C49.03 110.171 49.6227 110.754 50.724 110.754C51.3027 110.754 51.9467 110.591 52.656 110.264L52.81 110.362L52.53 111.748C51.8207 112.009 51.1534 112.14 50.528 112.14C49.5014 112.14 48.694 111.841 48.106 111.244C47.5274 110.647 47.238 109.821 47.238 108.766C47.238 107.721 47.5227 106.895 48.092 106.288C48.6614 105.672 49.4314 105.364 50.402 105.364C51.2327 105.364 51.872 105.593 52.32 106.05C52.7774 106.498 53.006 107.128 53.006 107.94C53.006 108.155 52.9827 108.425 52.936 108.752L52.726 108.976ZM51.382 107.73C51.382 107.357 51.298 107.077 51.13 106.89C50.962 106.694 50.7147 106.596 50.388 106.596C50.024 106.596 49.7207 106.717 49.478 106.96C49.2354 107.193 49.072 107.534 48.988 107.982L51.354 107.926L51.382 107.73ZM56.4735 105.378C57.1082 105.378 57.7055 105.485 58.2655 105.7L58.0135 107.072L57.7895 107.142C57.5189 106.965 57.2482 106.829 56.9775 106.736C56.7069 106.643 56.4689 106.596 56.2635 106.596C56.0395 106.596 55.8622 106.657 55.7315 106.778C55.6009 106.89 55.5355 107.03 55.5355 107.198C55.5355 107.394 55.6195 107.553 55.7875 107.674C55.9649 107.795 56.2402 107.931 56.6135 108.08C56.9869 108.229 57.2949 108.374 57.5375 108.514C57.7802 108.654 57.9855 108.85 58.1535 109.102C58.3309 109.345 58.4195 109.648 58.4195 110.012C58.4195 110.385 58.3215 110.735 58.1255 111.062C57.9389 111.379 57.6495 111.641 57.2575 111.846C56.8655 112.042 56.3849 112.14 55.8155 112.14C55.1435 112.14 54.4482 112 53.7295 111.72L53.9395 110.264L54.1215 110.152C54.4109 110.395 54.7329 110.591 55.0875 110.74C55.4422 110.88 55.7549 110.95 56.0255 110.95C56.2775 110.95 56.4735 110.889 56.6135 110.768C56.7535 110.637 56.8235 110.483 56.8235 110.306C56.8235 110.11 56.7349 109.951 56.5575 109.83C56.3895 109.709 56.1189 109.573 55.7455 109.424C55.3629 109.256 55.0502 109.107 54.8075 108.976C54.5649 108.836 54.3549 108.64 54.1775 108.388C54.0095 108.136 53.9255 107.823 53.9255 107.45C53.9255 106.843 54.1542 106.349 54.6115 105.966C55.0689 105.574 55.6895 105.378 56.4735 105.378ZM64.7026 108.976L60.9226 109.004C61.0066 110.171 61.5993 110.754 62.7006 110.754C63.2793 110.754 63.9233 110.591 64.6326 110.264L64.7866 110.362L64.5066 111.748C63.7973 112.009 63.1299 112.14 62.5046 112.14C61.4779 112.14 60.6706 111.841 60.0826 111.244C59.5039 110.647 59.2146 109.821 59.2146 108.766C59.2146 107.721 59.4993 106.895 60.0686 106.288C60.6379 105.672 61.4079 105.364 62.3786 105.364C63.2093 105.364 63.8486 105.593 64.2966 106.05C64.7539 106.498 64.9826 107.128 64.9826 107.94C64.9826 108.155 64.9593 108.425 64.9126 108.752L64.7026 108.976ZM63.3586 107.73C63.3586 107.357 63.2746 107.077 63.1066 106.89C62.9386 106.694 62.6913 106.596 62.3646 106.596C62.0006 106.596 61.6973 106.717 61.4546 106.96C61.2119 107.193 61.0486 107.534 60.9646 107.982L63.3306 107.926L63.3586 107.73ZM70.2701 107.94C70.2794 107.613 70.2048 107.361 70.0461 107.184C69.8968 106.997 69.6774 106.904 69.3881 106.904C68.9681 106.904 68.5201 107.105 68.0441 107.506V109.13L68.1281 112H66.2661L66.3641 109.312L66.2941 105.616L68.0581 105.462V106.414H68.1561C68.6694 105.947 69.2294 105.611 69.8361 105.406C70.5454 105.406 71.0868 105.569 71.4601 105.896C71.8334 106.213 72.0108 106.675 71.9921 107.282L71.9501 109.144L72.0341 112H70.1581L70.2701 107.94ZM76.3083 110.628C76.6069 110.628 76.9196 110.549 77.2463 110.39L77.4003 110.53L77.2183 111.636C76.7423 111.879 76.2569 112.028 75.7623 112.084C74.5023 111.953 73.8723 111.337 73.8723 110.236L73.9423 109.074L73.9283 106.666H73.0603L72.9903 106.568L73.0883 105.546H73.9143V104.468L75.6083 103.922L75.7343 104.034L75.6923 105.546H77.3583L77.4143 105.644L77.3303 106.666H75.6643L75.5803 109.802C75.5803 110.101 75.6363 110.315 75.7483 110.446C75.8603 110.567 76.0469 110.628 76.3083 110.628ZM80.9687 105.364C81.6874 105.364 82.2474 105.527 82.6487 105.854C83.0594 106.171 83.2647 106.619 83.2647 107.198C83.2647 107.366 83.2367 107.898 83.1807 108.794C83.1714 109.055 83.1574 109.326 83.1387 109.606C83.1201 109.877 83.1107 110.11 83.1107 110.306C83.1107 110.465 83.1341 110.577 83.1807 110.642C83.2274 110.698 83.3114 110.726 83.4327 110.726C83.5261 110.726 83.6474 110.707 83.7967 110.67L83.9367 110.782L83.7687 111.762C83.4701 111.958 83.1294 112.075 82.7467 112.112C82.4667 112.084 82.2334 111.986 82.0467 111.818C81.8601 111.641 81.7341 111.398 81.6687 111.09H81.5707C81.1041 111.585 80.6234 111.93 80.1287 112.126C79.4567 112.117 78.9294 111.939 78.5467 111.594C78.1641 111.249 77.9727 110.777 77.9727 110.18C77.9727 109.713 78.0894 109.349 78.3227 109.088C78.5654 108.817 78.9294 108.635 79.4147 108.542L81.5567 108.136V107.562C81.5567 106.955 81.2581 106.652 80.6607 106.652C80.3714 106.652 80.0634 106.717 79.7367 106.848C79.4194 106.979 79.0601 107.184 78.6587 107.464L78.5187 107.38L78.3087 106.148C78.7101 105.896 79.1394 105.705 79.5967 105.574C80.0541 105.434 80.5114 105.364 80.9687 105.364ZM80.0587 109.396C79.9094 109.433 79.7974 109.499 79.7227 109.592C79.6574 109.676 79.6247 109.807 79.6247 109.984C79.6247 110.227 79.6901 110.418 79.8207 110.558C79.9514 110.689 80.1334 110.754 80.3667 110.754C80.7307 110.754 81.1134 110.539 81.5147 110.11L81.5427 109.074L80.0587 109.396ZM89.8981 110.628C90.1968 110.628 90.5094 110.549 90.8361 110.39L90.9901 110.53L90.8081 111.636C90.3321 111.879 89.8468 112.028 89.3521 112.084C88.0921 111.953 87.4621 111.337 87.4621 110.236L87.5321 109.074L87.5181 106.666H86.6501L86.5801 106.568L86.6781 105.546H87.5041V104.468L89.1981 103.922L89.3241 104.034L89.2821 105.546H90.9481L91.0041 105.644L90.9201 106.666H89.2541L89.1701 109.802C89.1701 110.101 89.2261 110.315 89.3381 110.446C89.4501 110.567 89.6368 110.628 89.8981 110.628ZM94.5586 105.364C95.2772 105.364 95.8372 105.527 96.2386 105.854C96.6492 106.171 96.8546 106.619 96.8546 107.198C96.8546 107.366 96.8266 107.898 96.7706 108.794C96.7612 109.055 96.7472 109.326 96.7286 109.606C96.7099 109.877 96.7006 110.11 96.7006 110.306C96.7006 110.465 96.7239 110.577 96.7706 110.642C96.8172 110.698 96.9012 110.726 97.0226 110.726C97.1159 110.726 97.2372 110.707 97.3866 110.67L97.5266 110.782L97.3586 111.762C97.0599 111.958 96.7192 112.075 96.3366 112.112C96.0566 112.084 95.8232 111.986 95.6366 111.818C95.4499 111.641 95.3239 111.398 95.2586 111.09H95.1606C94.6939 111.585 94.2132 111.93 93.7186 112.126C93.0466 112.117 92.5192 111.939 92.1366 111.594C91.7539 111.249 91.5626 110.777 91.5626 110.18C91.5626 109.713 91.6792 109.349 91.9126 109.088C92.1552 108.817 92.5192 108.635 93.0046 108.542L95.1466 108.136V107.562C95.1466 106.955 94.8479 106.652 94.2506 106.652C93.9612 106.652 93.6532 106.717 93.3266 106.848C93.0092 106.979 92.6499 107.184 92.2486 107.464L92.1086 107.38L91.8986 106.148C92.2999 105.896 92.7292 105.705 93.1866 105.574C93.6439 105.434 94.1012 105.364 94.5586 105.364ZM93.6486 109.396C93.4992 109.433 93.3872 109.499 93.3126 109.592C93.2472 109.676 93.2146 109.807 93.2146 109.984C93.2146 110.227 93.2799 110.418 93.4106 110.558C93.5412 110.689 93.7232 110.754 93.9566 110.754C94.3206 110.754 94.7032 110.539 95.1046 110.11L95.1326 109.074L93.6486 109.396ZM100.347 106.218L101.243 107.674L102.125 106.162L102.475 105.504H104.113L102.237 108.696L104.197 111.944L102.237 112.084L101.915 111.258L100.991 109.76L100.025 111.342L99.7168 112H98.0788L99.9688 108.738L98.0648 105.546L100.053 105.448L100.347 106.218ZM107.533 105.364C108.252 105.364 108.812 105.527 109.213 105.854C109.624 106.171 109.829 106.619 109.829 107.198C109.829 107.366 109.801 107.898 109.745 108.794C109.736 109.055 109.722 109.326 109.703 109.606C109.685 109.877 109.675 110.11 109.675 110.306C109.675 110.465 109.699 110.577 109.745 110.642C109.792 110.698 109.876 110.726 109.997 110.726C110.091 110.726 110.212 110.707 110.361 110.67L110.501 110.782L110.333 111.762C110.035 111.958 109.694 112.075 109.311 112.112C109.031 112.084 108.798 111.986 108.611 111.818C108.425 111.641 108.299 111.398 108.233 111.09H108.135C107.669 111.585 107.188 111.93 106.693 112.126C106.021 112.117 105.494 111.939 105.111 111.594C104.729 111.249 104.537 110.777 104.537 110.18C104.537 109.713 104.654 109.349 104.887 109.088C105.13 108.817 105.494 108.635 105.979 108.542L108.121 108.136V107.562C108.121 106.955 107.823 106.652 107.225 106.652C106.936 106.652 106.628 106.717 106.301 106.848C105.984 106.979 105.625 107.184 105.223 107.464L105.083 107.38L104.873 106.148C105.275 105.896 105.704 105.705 106.161 105.574C106.619 105.434 107.076 105.364 107.533 105.364ZM106.623 109.396C106.474 109.433 106.362 109.499 106.287 109.592C106.222 109.676 106.189 109.807 106.189 109.984C106.189 110.227 106.255 110.418 106.385 110.558C106.516 110.689 106.698 110.754 106.931 110.754C107.295 110.754 107.678 110.539 108.079 110.11L108.107 109.074L106.623 109.396ZM117.345 105.406C118.166 105.406 118.791 105.686 119.221 106.246C119.659 106.797 119.879 107.567 119.879 108.556C119.879 109.704 119.594 110.591 119.025 111.216C118.455 111.832 117.667 112.14 116.659 112.14C116.183 112.14 115.66 112.033 115.091 111.818L114.111 112.168L113.887 111.986L113.985 109.326L113.901 102.312L115.749 102.172L115.693 106.414H115.777C116.038 106.162 116.29 105.961 116.533 105.812C116.775 105.653 117.046 105.518 117.345 105.406ZM116.659 110.922C117.125 110.922 117.489 110.754 117.751 110.418C118.012 110.082 118.143 109.569 118.143 108.878C118.143 108.234 118.035 107.744 117.821 107.408C117.615 107.072 117.303 106.904 116.883 106.904C116.5 106.904 116.099 107.1 115.679 107.492L115.651 109.088L115.679 110.67C116.024 110.838 116.351 110.922 116.659 110.922ZM123.721 105.364C124.439 105.364 124.999 105.527 125.401 105.854C125.811 106.171 126.017 106.619 126.017 107.198C126.017 107.366 125.989 107.898 125.933 108.794C125.923 109.055 125.909 109.326 125.891 109.606C125.872 109.877 125.863 110.11 125.863 110.306C125.863 110.465 125.886 110.577 125.933 110.642C125.979 110.698 126.063 110.726 126.185 110.726C126.278 110.726 126.399 110.707 126.549 110.67L126.689 110.782L126.521 111.762C126.222 111.958 125.881 112.075 125.499 112.112C125.219 112.084 124.985 111.986 124.799 111.818C124.612 111.641 124.486 111.398 124.421 111.09H124.323C123.856 111.585 123.375 111.93 122.881 112.126C122.209 112.117 121.681 111.939 121.299 111.594C120.916 111.249 120.725 110.777 120.725 110.18C120.725 109.713 120.841 109.349 121.075 109.088C121.317 108.817 121.681 108.635 122.167 108.542L124.309 108.136V107.562C124.309 106.955 124.01 106.652 123.413 106.652C123.123 106.652 122.815 106.717 122.489 106.848C122.171 106.979 121.812 107.184 121.411 107.464L121.271 107.38L121.061 106.148C121.462 105.896 121.891 105.705 122.349 105.574C122.806 105.434 123.263 105.364 123.721 105.364ZM122.811 109.396C122.661 109.433 122.549 109.499 122.475 109.592C122.409 109.676 122.377 109.807 122.377 109.984C122.377 110.227 122.442 110.418 122.573 110.558C122.703 110.689 122.885 110.754 123.119 110.754C123.483 110.754 123.865 110.539 124.267 110.11L124.295 109.074L122.811 109.396ZM128.025 109.312L127.955 105.616L129.789 105.462L129.705 109.13L129.789 112H127.927L128.025 109.312ZM128.907 102.298C129.196 102.298 129.42 102.382 129.579 102.55C129.747 102.718 129.831 102.951 129.831 103.25C129.831 103.567 129.742 103.819 129.565 104.006C129.388 104.193 129.145 104.286 128.837 104.286C128.529 104.286 128.291 104.202 128.123 104.034C127.964 103.866 127.885 103.628 127.885 103.32C127.885 103.012 127.974 102.765 128.151 102.578C128.338 102.391 128.59 102.298 128.907 102.298ZM133.159 106.218L134.055 107.674L134.937 106.162L135.287 105.504H136.925L135.049 108.696L137.009 111.944L135.049 112.084L134.727 111.258L133.803 109.76L132.837 111.342L132.529 112H130.891L132.781 108.738L130.877 105.546L132.865 105.448L133.159 106.218ZM140.346 105.364C141.064 105.364 141.624 105.527 142.026 105.854C142.436 106.171 142.642 106.619 142.642 107.198C142.642 107.366 142.614 107.898 142.558 108.794C142.548 109.055 142.534 109.326 142.516 109.606C142.497 109.877 142.488 110.11 142.488 110.306C142.488 110.465 142.511 110.577 142.558 110.642C142.604 110.698 142.688 110.726 142.81 110.726C142.903 110.726 143.024 110.707 143.174 110.67L143.314 110.782L143.146 111.762C142.847 111.958 142.506 112.075 142.124 112.112C141.844 112.084 141.61 111.986 141.424 111.818C141.237 111.641 141.111 111.398 141.046 111.09H140.948C140.481 111.585 140 111.93 139.506 112.126C138.834 112.117 138.306 111.939 137.924 111.594C137.541 111.249 137.35 110.777 137.35 110.18C137.35 109.713 137.466 109.349 137.7 109.088C137.942 108.817 138.306 108.635 138.792 108.542L140.934 108.136V107.562C140.934 106.955 140.635 106.652 140.038 106.652C139.748 106.652 139.44 106.717 139.114 106.848C138.796 106.979 138.437 107.184 138.036 107.464L137.896 107.38L137.686 106.148C138.087 105.896 138.516 105.705 138.974 105.574C139.431 105.434 139.888 105.364 140.346 105.364ZM139.436 109.396C139.286 109.433 139.174 109.499 139.1 109.592C139.034 109.676 139.002 109.807 139.002 109.984C139.002 110.227 139.067 110.418 139.198 110.558C139.328 110.689 139.51 110.754 139.744 110.754C140.108 110.754 140.49 110.539 140.892 110.11L140.92 109.074L139.436 109.396ZM30.8807 125.13L30.9227 126.306C30.9227 126.465 30.9414 126.577 30.9787 126.642C31.0254 126.698 31.1047 126.726 31.2167 126.726C31.3194 126.726 31.4454 126.707 31.5947 126.67L31.7207 126.782L31.5667 127.762C31.2494 127.958 30.9041 128.075 30.5307 128.112C30.2414 128.084 29.9987 127.986 29.8027 127.818C29.6067 127.65 29.4714 127.421 29.3967 127.132H29.2847C28.8274 127.552 28.3607 127.874 27.8847 128.098C26.9701 128.098 26.2607 127.809 25.7567 127.23C25.2527 126.642 25.0007 125.83 25.0007 124.794C25.0007 123.693 25.2901 122.848 25.8687 122.26C26.4474 121.672 27.2501 121.378 28.2767 121.378C28.5474 121.378 28.8461 121.406 29.1727 121.462L29.1447 118.312L30.9927 118.172L30.8807 125.13ZM28.1507 122.638C27.2174 122.638 26.7507 123.231 26.7507 124.416C26.7507 125.153 26.8627 125.709 27.0867 126.082C27.3107 126.455 27.6374 126.642 28.0667 126.642C28.4774 126.642 28.8554 126.451 29.2007 126.068L29.2287 125.298L29.1867 122.89C28.8227 122.722 28.4774 122.638 28.1507 122.638ZM37.8579 124.976L34.0779 125.004C34.1619 126.171 34.7545 126.754 35.8559 126.754C36.4345 126.754 37.0785 126.591 37.7879 126.264L37.9419 126.362L37.6619 127.748C36.9525 128.009 36.2852 128.14 35.6599 128.14C34.6332 128.14 33.8259 127.841 33.2379 127.244C32.6592 126.647 32.3699 125.821 32.3699 124.766C32.3699 123.721 32.6545 122.895 33.2239 122.288C33.7932 121.672 34.5632 121.364 35.5339 121.364C36.3645 121.364 37.0039 121.593 37.4519 122.05C37.9092 122.498 38.1379 123.128 38.1379 123.94C38.1379 124.155 38.1145 124.425 38.0679 124.752L37.8579 124.976ZM36.5139 123.73C36.5139 123.357 36.4299 123.077 36.2619 122.89C36.0939 122.694 35.8465 122.596 35.5199 122.596C35.1559 122.596 34.8525 122.717 34.6099 122.96C34.3672 123.193 34.2039 123.534 34.1199 123.982L36.4859 123.926L36.5139 123.73ZM44.1025 121.364C44.8212 121.364 45.3812 121.527 45.7825 121.854C46.1932 122.171 46.3985 122.619 46.3985 123.198C46.3985 123.366 46.3705 123.898 46.3145 124.794C46.3052 125.055 46.2912 125.326 46.2725 125.606C46.2539 125.877 46.2445 126.11 46.2445 126.306C46.2445 126.465 46.2679 126.577 46.3145 126.642C46.3612 126.698 46.4452 126.726 46.5665 126.726C46.6599 126.726 46.7812 126.707 46.9305 126.67L47.0705 126.782L46.9025 127.762C46.6039 127.958 46.2632 128.075 45.8805 128.112C45.6005 128.084 45.3672 127.986 45.1805 127.818C44.9939 127.641 44.8679 127.398 44.8025 127.09H44.7045C44.2379 127.585 43.7572 127.93 43.2625 128.126C42.5905 128.117 42.0632 127.939 41.6805 127.594C41.2979 127.249 41.1065 126.777 41.1065 126.18C41.1065 125.713 41.2232 125.349 41.4565 125.088C41.6992 124.817 42.0632 124.635 42.5485 124.542L44.6905 124.136V123.562C44.6905 122.955 44.3919 122.652 43.7945 122.652C43.5052 122.652 43.1972 122.717 42.8705 122.848C42.5532 122.979 42.1939 123.184 41.7925 123.464L41.6525 123.38L41.4425 122.148C41.8439 121.896 42.2732 121.705 42.7305 121.574C43.1879 121.434 43.6452 121.364 44.1025 121.364ZM43.1925 125.396C43.0432 125.433 42.9312 125.499 42.8565 125.592C42.7912 125.676 42.7585 125.807 42.7585 125.984C42.7585 126.227 42.8239 126.418 42.9545 126.558C43.0852 126.689 43.2672 126.754 43.5005 126.754C43.8645 126.754 44.2472 126.539 44.6485 126.11L44.6765 125.074L43.1925 125.396ZM50.9548 121.364C51.2628 121.364 51.5661 121.397 51.8648 121.462C52.1728 121.518 52.4434 121.602 52.6768 121.714L52.3688 123.198L52.2148 123.268C51.7388 123.007 51.3141 122.876 50.9408 122.876C50.5114 122.876 50.1801 123.03 49.9468 123.338C49.7134 123.646 49.5968 124.085 49.5968 124.654C49.5968 125.307 49.7228 125.807 49.9748 126.152C50.2268 126.497 50.5861 126.67 51.0528 126.67C51.4728 126.67 51.9394 126.553 52.4528 126.32L52.5928 126.432L52.4108 127.874C51.8508 128.051 51.2768 128.14 50.6888 128.14C49.7928 128.14 49.0928 127.851 48.5888 127.272C48.0848 126.684 47.8328 125.867 47.8328 124.822C47.8328 123.739 48.1081 122.895 48.6588 122.288C49.2094 121.672 49.9748 121.364 50.9548 121.364ZM50.9408 128.672L51.4168 128.938C51.6221 129.05 51.7668 129.171 51.8508 129.302C51.9441 129.442 51.9908 129.596 51.9908 129.764C51.9908 130.072 51.8694 130.324 51.6268 130.52C51.3841 130.716 51.0668 130.814 50.6748 130.814C50.2548 130.814 49.8721 130.683 49.5268 130.422L49.6528 129.638L49.7368 129.596C50.0168 129.876 50.2921 130.016 50.5628 130.016C50.7868 130.016 50.8988 129.918 50.8988 129.722C50.8988 129.657 50.8801 129.601 50.8428 129.554C50.8054 129.517 50.7448 129.479 50.6608 129.442L49.9748 129.05L50.2968 127.636H51.1928L50.9408 128.672ZM59.8835 126.782L59.7155 127.762C59.3701 127.986 59.0155 128.103 58.6515 128.112C58.3808 128.065 58.1568 127.958 57.9795 127.79C57.8021 127.622 57.6668 127.379 57.5735 127.062H57.4475C56.9155 127.585 56.3648 127.925 55.7955 128.084C55.0861 128.084 54.5448 127.925 54.1715 127.608C53.8075 127.281 53.6301 126.815 53.6395 126.208L53.6675 124.556L53.5975 121.616L55.4035 121.462L55.3615 125.592C55.3521 125.919 55.4175 126.166 55.5575 126.334C55.6975 126.502 55.9075 126.586 56.1875 126.586C56.5981 126.586 57.0041 126.404 57.4055 126.04V121.616L59.1835 121.462L59.0575 126.306C59.0575 126.455 59.0808 126.563 59.1275 126.628C59.1835 126.693 59.2675 126.726 59.3795 126.726C59.4821 126.726 59.6081 126.707 59.7575 126.67L59.8835 126.782ZM57.7835 117.878L58.4555 118.886L58.4275 119.068C58.2221 119.199 58.0681 119.292 57.9655 119.348C56.7988 120.067 56.0428 120.524 55.6975 120.72L55.5155 120.706L55.0675 120.006C56.1501 119.138 56.9948 118.424 57.6015 117.864L57.7835 117.878ZM63.6559 121.364C63.9639 121.364 64.2673 121.397 64.5659 121.462C64.8739 121.518 65.1446 121.602 65.3779 121.714L65.0699 123.198L64.9159 123.268C64.4399 123.007 64.0153 122.876 63.6419 122.876C63.2126 122.876 62.8813 123.03 62.6479 123.338C62.4146 123.646 62.2979 124.085 62.2979 124.654C62.2979 125.307 62.4239 125.807 62.6759 126.152C62.9279 126.497 63.2873 126.67 63.7539 126.67C64.1739 126.67 64.6406 126.553 65.1539 126.32L65.2939 126.432L65.1119 127.874C64.5519 128.051 63.9779 128.14 63.3899 128.14C62.4939 128.14 61.7939 127.851 61.2899 127.272C60.7859 126.684 60.5339 125.867 60.5339 124.822C60.5339 123.739 60.8093 122.895 61.3599 122.288C61.9106 121.672 62.6759 121.364 63.6559 121.364ZM68.7939 121.364C69.5126 121.364 70.0726 121.527 70.4739 121.854C70.8846 122.171 71.0899 122.619 71.0899 123.198C71.0899 123.366 71.0619 123.898 71.0059 124.794C70.9966 125.055 70.9826 125.326 70.9639 125.606C70.9453 125.877 70.9359 126.11 70.9359 126.306C70.9359 126.465 70.9593 126.577 71.0059 126.642C71.0526 126.698 71.1366 126.726 71.2579 126.726C71.3513 126.726 71.4726 126.707 71.6219 126.67L71.7619 126.782L71.5939 127.762C71.2953 127.958 70.9546 128.075 70.5719 128.112C70.2919 128.084 70.0586 127.986 69.8719 127.818C69.6853 127.641 69.5593 127.398 69.4939 127.09H69.3959C68.9293 127.585 68.4486 127.93 67.9539 128.126C67.2819 128.117 66.7546 127.939 66.3719 127.594C65.9893 127.249 65.7979 126.777 65.7979 126.18C65.7979 125.713 65.9146 125.349 66.1479 125.088C66.3906 124.817 66.7546 124.635 67.2399 124.542L69.3819 124.136V123.562C69.3819 122.955 69.0833 122.652 68.4859 122.652C68.1966 122.652 67.8886 122.717 67.5619 122.848C67.2446 122.979 66.8853 123.184 66.4839 123.464L66.3439 123.38L66.1339 122.148C66.5353 121.896 66.9646 121.705 67.4219 121.574C67.8793 121.434 68.3366 121.364 68.7939 121.364ZM67.8839 125.396C67.7346 125.433 67.6226 125.499 67.5479 125.592C67.4826 125.676 67.4499 125.807 67.4499 125.984C67.4499 126.227 67.5153 126.418 67.6459 126.558C67.7766 126.689 67.9586 126.754 68.1919 126.754C68.5559 126.754 68.9386 126.539 69.3399 126.11L69.3679 125.074L67.8839 125.396ZM76.4881 121.476C76.5721 121.476 76.6888 121.485 76.8381 121.504V123.226L76.6421 123.296C76.4835 123.231 76.3108 123.198 76.1241 123.198C75.5828 123.198 75.0928 123.548 74.6541 124.248V125.13L74.7521 128H72.8901L73.0021 125.312L72.9181 121.616L74.6821 121.462L74.6681 122.736H74.7801C75.2375 121.896 75.8068 121.476 76.4881 121.476ZM83.0965 119.32V119.474C82.5365 119.978 82.1305 120.622 81.8785 121.406C81.6265 122.19 81.5005 123.203 81.5005 124.444C81.5005 125.62 81.6265 126.586 81.8785 127.342C82.1305 128.089 82.5365 128.719 83.0965 129.232V129.386L82.4245 129.946H82.2705C81.4771 129.367 80.9031 128.649 80.5485 127.79C80.1938 126.922 80.0118 125.811 80.0025 124.458C80.0118 123.03 80.1938 121.868 80.5485 120.972C80.9031 120.076 81.4771 119.334 82.2705 118.746H82.4245L83.0965 119.32ZM90.2634 122.372C90.0114 122.437 89.652 122.507 89.1854 122.582L89.1574 122.638C89.2974 122.918 89.3674 123.231 89.3674 123.576C89.3674 124.276 89.1107 124.836 88.5974 125.256C88.0934 125.667 87.4074 125.872 86.5394 125.872C86.278 125.872 86.0074 125.849 85.7274 125.802C85.6434 125.886 85.5874 125.951 85.5594 125.998C85.5314 126.045 85.5174 126.101 85.5174 126.166C85.5174 126.334 85.6294 126.451 85.8534 126.516C86.0774 126.581 86.432 126.647 86.9174 126.712C87.468 126.777 87.9254 126.857 88.2894 126.95C88.6627 127.043 88.98 127.207 89.2414 127.44C89.512 127.673 89.6474 128.005 89.6474 128.434C89.6474 128.873 89.5074 129.265 89.2274 129.61C88.9567 129.965 88.5787 130.24 88.0934 130.436C87.608 130.632 87.0574 130.73 86.4414 130.73C85.592 130.73 84.9387 130.557 84.4814 130.212C84.024 129.867 83.7954 129.409 83.7954 128.84C84.0847 128.439 84.472 128.089 84.9574 127.79V127.72C84.64 127.608 84.3927 127.454 84.2154 127.258C84.038 127.053 83.9494 126.782 83.9494 126.446C84.2014 126.138 84.5187 125.853 84.9014 125.592V125.522C84.5654 125.335 84.3087 125.093 84.1314 124.794C83.9634 124.486 83.8794 124.127 83.8794 123.716C83.8794 122.988 84.1314 122.419 84.6354 122.008C85.1394 121.597 85.8254 121.392 86.6934 121.392C87.1974 121.392 87.6547 121.476 88.0654 121.644C88.7374 121.523 89.4234 121.336 90.1234 121.084L90.2634 121.21V122.372ZM86.5954 124.752C86.978 124.752 87.2674 124.654 87.4634 124.458C87.6594 124.262 87.7574 123.977 87.7574 123.604C87.7574 122.895 87.3934 122.54 86.6654 122.54C85.8814 122.54 85.4894 122.899 85.4894 123.618C85.4894 123.991 85.5827 124.276 85.7694 124.472C85.956 124.659 86.2314 124.752 86.5954 124.752ZM88.0794 128.77C88.0794 128.518 87.944 128.345 87.6734 128.252C87.412 128.159 87.006 128.079 86.4554 128.014L85.9794 127.944C85.7554 128.093 85.5874 128.238 85.4754 128.378C85.3634 128.518 85.3074 128.667 85.3074 128.826C85.3074 129.069 85.4194 129.265 85.6434 129.414C85.8674 129.563 86.194 129.638 86.6234 129.638C87.062 129.638 87.412 129.559 87.6734 129.4C87.944 129.251 88.0794 129.041 88.0794 128.77ZM92.8254 125.13L92.9234 128H91.0614L91.1594 125.298L91.0754 118.312L92.9374 118.172L92.8254 125.13ZM94.8091 125.312L94.7391 121.616L96.5731 121.462L96.4891 125.13L96.5731 128H94.7111L94.8091 125.312ZM95.6911 118.298C95.9804 118.298 96.2044 118.382 96.3631 118.55C96.5311 118.718 96.6151 118.951 96.6151 119.25C96.6151 119.567 96.5264 119.819 96.3491 120.006C96.1718 120.193 95.9291 120.286 95.6211 120.286C95.3131 120.286 95.0751 120.202 94.9071 120.034C94.7484 119.866 94.6691 119.628 94.6691 119.32C94.6691 119.012 94.7578 118.765 94.9351 118.578C95.1218 118.391 95.3738 118.298 95.6911 118.298ZM101.007 121.364C101.315 121.364 101.619 121.397 101.917 121.462C102.225 121.518 102.496 121.602 102.729 121.714L102.421 123.198L102.267 123.268C101.791 123.007 101.367 122.876 100.993 122.876C100.564 122.876 100.233 123.03 99.9995 123.338C99.7662 123.646 99.6495 124.085 99.6495 124.654C99.6495 125.307 99.7755 125.807 100.027 126.152C100.279 126.497 100.639 126.67 101.105 126.67C101.525 126.67 101.992 126.553 102.505 126.32L102.645 126.432L102.463 127.874C101.903 128.051 101.329 128.14 100.741 128.14C99.8455 128.14 99.1455 127.851 98.6415 127.272C98.1375 126.684 97.8855 125.867 97.8855 124.822C97.8855 123.739 98.1608 122.895 98.7115 122.288C99.2622 121.672 100.027 121.364 101.007 121.364ZM106.422 121.364C107.374 121.364 108.102 121.644 108.606 122.204C109.11 122.764 109.362 123.571 109.362 124.626C109.362 125.765 109.092 126.637 108.55 127.244C108.009 127.841 107.23 128.14 106.212 128.14C105.26 128.14 104.532 127.86 104.028 127.3C103.524 126.74 103.272 125.933 103.272 124.878C103.272 123.739 103.543 122.871 104.084 122.274C104.626 121.667 105.405 121.364 106.422 121.364ZM106.296 122.624C105.848 122.624 105.522 122.773 105.316 123.072C105.12 123.371 105.022 123.851 105.022 124.514C105.022 125.373 105.125 125.984 105.33 126.348C105.536 126.712 105.872 126.894 106.338 126.894C106.786 126.894 107.108 126.749 107.304 126.46C107.51 126.161 107.612 125.676 107.612 125.004C107.612 124.155 107.505 123.548 107.29 123.184C107.085 122.811 106.754 122.624 106.296 122.624ZM112.822 121.378C113.457 121.378 114.054 121.485 114.614 121.7L114.362 123.072L114.138 123.142C113.868 122.965 113.597 122.829 113.326 122.736C113.056 122.643 112.818 122.596 112.612 122.596C112.388 122.596 112.211 122.657 112.08 122.778C111.95 122.89 111.884 123.03 111.884 123.198C111.884 123.394 111.968 123.553 112.136 123.674C112.314 123.795 112.589 123.931 112.962 124.08C113.336 124.229 113.644 124.374 113.886 124.514C114.129 124.654 114.334 124.85 114.502 125.102C114.68 125.345 114.768 125.648 114.768 126.012C114.768 126.385 114.67 126.735 114.474 127.062C114.288 127.379 113.998 127.641 113.606 127.846C113.214 128.042 112.734 128.14 112.164 128.14C111.492 128.14 110.797 128 110.078 127.72L110.288 126.264L110.47 126.152C110.76 126.395 111.082 126.591 111.436 126.74C111.791 126.88 112.104 126.95 112.374 126.95C112.626 126.95 112.822 126.889 112.962 126.768C113.102 126.637 113.172 126.483 113.172 126.306C113.172 126.11 113.084 125.951 112.906 125.83C112.738 125.709 112.468 125.573 112.094 125.424C111.712 125.256 111.399 125.107 111.156 124.976C110.914 124.836 110.704 124.64 110.526 124.388C110.358 124.136 110.274 123.823 110.274 123.45C110.274 122.843 110.503 122.349 110.96 121.966C111.418 121.574 112.038 121.378 112.822 121.378ZM121.051 124.976L117.271 125.004C117.355 126.171 117.948 126.754 119.049 126.754C119.628 126.754 120.272 126.591 120.981 126.264L121.135 126.362L120.855 127.748C120.146 128.009 119.479 128.14 118.853 128.14C117.827 128.14 117.019 127.841 116.431 127.244C115.853 126.647 115.563 125.821 115.563 124.766C115.563 123.721 115.848 122.895 116.417 122.288C116.987 121.672 117.757 121.364 118.727 121.364C119.558 121.364 120.197 121.593 120.645 122.05C121.103 122.498 121.331 123.128 121.331 123.94C121.331 124.155 121.308 124.425 121.261 124.752L121.051 124.976ZM119.707 123.73C119.707 123.357 119.623 123.077 119.455 122.89C119.287 122.694 119.04 122.596 118.713 122.596C118.349 122.596 118.046 122.717 117.803 122.96C117.561 123.193 117.397 123.534 117.313 123.982L119.679 123.926L119.707 123.73ZM121.747 129.386V129.232C122.307 128.728 122.713 128.084 122.965 127.3C123.217 126.516 123.343 125.503 123.343 124.262C123.343 123.086 123.217 122.125 122.965 121.378C122.713 120.622 122.307 119.987 121.747 119.474V119.32L122.419 118.76H122.573C123.366 119.339 123.94 120.062 124.295 120.93C124.649 121.789 124.831 122.895 124.841 124.248C124.831 125.676 124.649 126.838 124.295 127.734C123.94 128.63 123.366 129.372 122.573 129.96H122.419L121.747 129.386ZM132.935 123.94C132.944 123.613 132.87 123.361 132.711 123.184C132.562 122.997 132.342 122.904 132.053 122.904C131.633 122.904 131.185 123.105 130.709 123.506V125.13L130.793 128H128.931L129.029 125.312L128.959 121.616L130.723 121.462V122.414H130.821C131.334 121.947 131.894 121.611 132.501 121.406C133.21 121.406 133.752 121.569 134.125 121.896C134.498 122.213 134.676 122.675 134.657 123.282L134.615 125.144L134.699 128H132.823L132.935 123.94ZM139.043 121.364C139.995 121.364 140.723 121.644 141.227 122.204C141.731 122.764 141.983 123.571 141.983 124.626C141.983 125.765 141.713 126.637 141.171 127.244C140.63 127.841 139.851 128.14 138.833 128.14C137.881 128.14 137.153 127.86 136.649 127.3C136.145 126.74 135.893 125.933 135.893 124.878C135.893 123.739 136.164 122.871 136.705 122.274C137.247 121.667 138.026 121.364 139.043 121.364ZM138.917 122.624C138.469 122.624 138.143 122.773 137.937 123.072C137.741 123.371 137.643 123.851 137.643 124.514C137.643 125.373 137.746 125.984 137.951 126.348C138.157 126.712 138.493 126.894 138.959 126.894C139.407 126.894 139.729 126.749 139.925 126.46C140.131 126.161 140.233 125.676 140.233 125.004C140.233 124.155 140.126 123.548 139.911 123.184C139.706 122.811 139.375 122.624 138.917 122.624ZM66.3583 137.378C66.993 137.378 67.5903 137.485 68.1503 137.7L67.8983 139.072L67.6743 139.142C67.4036 138.965 67.133 138.829 66.8623 138.736C66.5916 138.643 66.3536 138.596 66.1483 138.596C65.9243 138.596 65.747 138.657 65.6163 138.778C65.4856 138.89 65.4203 139.03 65.4203 139.198C65.4203 139.394 65.5043 139.553 65.6723 139.674C65.8496 139.795 66.125 139.931 66.4983 140.08C66.8716 140.229 67.1796 140.374 67.4223 140.514C67.665 140.654 67.8703 140.85 68.0383 141.102C68.2156 141.345 68.3043 141.648 68.3043 142.012C68.3043 142.385 68.2063 142.735 68.0103 143.062C67.8236 143.379 67.5343 143.641 67.1423 143.846C66.7503 144.042 66.2696 144.14 65.7003 144.14C65.0283 144.14 64.333 144 63.6143 143.72L63.8243 142.264L64.0063 142.152C64.2956 142.395 64.6176 142.591 64.9723 142.74C65.327 142.88 65.6396 142.95 65.9103 142.95C66.1623 142.95 66.3583 142.889 66.4983 142.768C66.6383 142.637 66.7083 142.483 66.7083 142.306C66.7083 142.11 66.6196 141.951 66.4423 141.83C66.2743 141.709 66.0036 141.573 65.6303 141.424C65.2476 141.256 64.935 141.107 64.6923 140.976C64.4496 140.836 64.2396 140.64 64.0623 140.388C63.8943 140.136 63.8103 139.823 63.8103 139.45C63.8103 138.843 64.039 138.349 64.4963 137.966C64.9536 137.574 65.5743 137.378 66.3583 137.378ZM72.1094 137.364C72.828 137.364 73.388 137.527 73.7894 137.854C74.2 138.171 74.4054 138.619 74.4054 139.198C74.4054 139.366 74.3774 139.898 74.3214 140.794C74.312 141.055 74.298 141.326 74.2794 141.606C74.2607 141.877 74.2514 142.11 74.2514 142.306C74.2514 142.465 74.2747 142.577 74.3214 142.642C74.368 142.698 74.452 142.726 74.5734 142.726C74.6667 142.726 74.788 142.707 74.9374 142.67L75.0774 142.782L74.9094 143.762C74.6107 143.958 74.27 144.075 73.8874 144.112C73.6074 144.084 73.374 143.986 73.1874 143.818C73.0007 143.641 72.8747 143.398 72.8094 143.09H72.7114C72.2447 143.585 71.764 143.93 71.2694 144.126C70.5974 144.117 70.07 143.939 69.6874 143.594C69.3047 143.249 69.1134 142.777 69.1134 142.18C69.1134 141.713 69.23 141.349 69.4634 141.088C69.706 140.817 70.07 140.635 70.5554 140.542L72.6974 140.136V139.562C72.6974 138.955 72.3987 138.652 71.8014 138.652C71.512 138.652 71.204 138.717 70.8774 138.848C70.56 138.979 70.2007 139.184 69.7994 139.464L69.6594 139.38L69.4494 138.148C69.8507 137.896 70.28 137.705 70.7374 137.574C71.1947 137.434 71.652 137.364 72.1094 137.364ZM71.1994 141.396C71.05 141.433 70.938 141.499 70.8634 141.592C70.798 141.676 70.7654 141.807 70.7654 141.984C70.7654 142.227 70.8307 142.418 70.9614 142.558C71.092 142.689 71.274 142.754 71.5074 142.754C71.8714 142.754 72.254 142.539 72.6554 142.11L72.6834 141.074L71.1994 141.396ZM80.2096 139.94C80.2189 139.613 80.1442 139.361 79.9856 139.184C79.8362 138.997 79.6169 138.904 79.3276 138.904C78.9076 138.904 78.4596 139.105 77.9836 139.506V141.13L78.0676 144H76.2056L76.3036 141.312L76.2336 137.616L77.9976 137.462V138.414H78.0956C78.6089 137.947 79.1689 137.611 79.7756 137.406C80.4849 137.406 81.0262 137.569 81.3996 137.896C81.7729 138.213 81.9502 138.675 81.9316 139.282L81.8896 141.144L81.9736 144H80.0976L80.2096 139.94ZM89.8737 138.372C89.6217 138.437 89.2624 138.507 88.7957 138.582L88.7677 138.638C88.9077 138.918 88.9777 139.231 88.9777 139.576C88.9777 140.276 88.7211 140.836 88.2077 141.256C87.7037 141.667 87.0177 141.872 86.1497 141.872C85.8884 141.872 85.6177 141.849 85.3377 141.802C85.2537 141.886 85.1977 141.951 85.1697 141.998C85.1417 142.045 85.1277 142.101 85.1277 142.166C85.1277 142.334 85.2397 142.451 85.4637 142.516C85.6877 142.581 86.0424 142.647 86.5277 142.712C87.0784 142.777 87.5357 142.857 87.8997 142.95C88.2731 143.043 88.5904 143.207 88.8517 143.44C89.1224 143.673 89.2577 144.005 89.2577 144.434C89.2577 144.873 89.1177 145.265 88.8377 145.61C88.5671 145.965 88.1891 146.24 87.7037 146.436C87.2184 146.632 86.6677 146.73 86.0517 146.73C85.2024 146.73 84.5491 146.557 84.0917 146.212C83.6344 145.867 83.4057 145.409 83.4057 144.84C83.6951 144.439 84.0824 144.089 84.5677 143.79V143.72C84.2504 143.608 84.0031 143.454 83.8257 143.258C83.6484 143.053 83.5597 142.782 83.5597 142.446C83.8117 142.138 84.1291 141.853 84.5117 141.592V141.522C84.1757 141.335 83.9191 141.093 83.7417 140.794C83.5737 140.486 83.4897 140.127 83.4897 139.716C83.4897 138.988 83.7417 138.419 84.2457 138.008C84.7497 137.597 85.4357 137.392 86.3037 137.392C86.8077 137.392 87.2651 137.476 87.6757 137.644C88.3477 137.523 89.0337 137.336 89.7337 137.084L89.8737 137.21V138.372ZM86.2057 140.752C86.5884 140.752 86.8777 140.654 87.0737 140.458C87.2697 140.262 87.3677 139.977 87.3677 139.604C87.3677 138.895 87.0037 138.54 86.2757 138.54C85.4917 138.54 85.0997 138.899 85.0997 139.618C85.0997 139.991 85.1931 140.276 85.3797 140.472C85.5664 140.659 85.8417 140.752 86.2057 140.752ZM87.6897 144.77C87.6897 144.518 87.5544 144.345 87.2837 144.252C87.0224 144.159 86.6164 144.079 86.0657 144.014L85.5897 143.944C85.3657 144.093 85.1977 144.238 85.0857 144.378C84.9737 144.518 84.9177 144.667 84.9177 144.826C84.9177 145.069 85.0297 145.265 85.2537 145.414C85.4777 145.563 85.8044 145.638 86.2337 145.638C86.6724 145.638 87.0224 145.559 87.2837 145.4C87.5544 145.251 87.6897 145.041 87.6897 144.77ZM96.8317 142.782L96.6637 143.762C96.3184 143.986 95.9637 144.103 95.5997 144.112C95.3291 144.065 95.1051 143.958 94.9277 143.79C94.7504 143.622 94.6151 143.379 94.5217 143.062H94.3957C93.8637 143.585 93.3131 143.925 92.7437 144.084C92.0344 144.084 91.4931 143.925 91.1197 143.608C90.7557 143.281 90.5784 142.815 90.5877 142.208L90.6157 140.556L90.5457 137.616L92.3517 137.462L92.3097 141.592C92.3004 141.919 92.3657 142.166 92.5057 142.334C92.6457 142.502 92.8557 142.586 93.1357 142.586C93.5464 142.586 93.9524 142.404 94.3537 142.04V137.616L96.1317 137.462L96.0057 142.306C96.0057 142.455 96.0291 142.563 96.0757 142.628C96.1317 142.693 96.2157 142.726 96.3277 142.726C96.4304 142.726 96.5564 142.707 96.7057 142.67L96.8317 142.782ZM102.97 140.976L99.1902 141.004C99.2742 142.171 99.8668 142.754 100.968 142.754C101.547 142.754 102.191 142.591 102.9 142.264L103.054 142.362L102.774 143.748C102.065 144.009 101.398 144.14 100.772 144.14C99.7455 144.14 98.9382 143.841 98.3502 143.244C97.7715 142.647 97.4822 141.821 97.4822 140.766C97.4822 139.721 97.7668 138.895 98.3362 138.288C98.9055 137.672 99.6755 137.364 100.646 137.364C101.477 137.364 102.116 137.593 102.564 138.05C103.022 138.498 103.25 139.128 103.25 139.94C103.25 140.155 103.227 140.425 103.18 140.752L102.97 140.976ZM101.626 139.73C101.626 139.357 101.542 139.077 101.374 138.89C101.206 138.694 100.959 138.596 100.632 138.596C100.268 138.596 99.9648 138.717 99.7222 138.96C99.4795 139.193 99.3162 139.534 99.2322 139.982L101.598 139.926L101.626 139.73Z" fill="white"/>
<defs>
<filter id="filter0_d_206:37270" x="53.9998" y="16.5612" width="59.0005" height="59.8719" filterUnits="userSpaceOnUse" color-interpolation-filters="sRGB">
<feFlood flood-opacity="0" result="BackgroundImageFix"/>
<feColorMatrix in="SourceAlpha" type="matrix" values="0 0 0 0 0 0 0 0 0 0 0 0 0 0 0 0 0 0 127 0" result="hardAlpha"/>
<feOffset dy="4"/>
<feGaussianBlur stdDeviation="2"/>
<feComposite in2="hardAlpha" operator="out"/>
<feColorMatrix type="matrix" values="0 0 0 0 0 0 0 0 0 0 0 0 0 0 0 0 0 0 0.25 0"/>
<feBlend mode="normal" in2="BackgroundImageFix" result="effect1_dropShadow_206:37270"/>
<feBlend mode="normal" in="SourceGraphic" in2="effect1_dropShadow_206:37270" result="shape"/>
</filter>
<filter id="filter1_b_206:37270" x="3" y="67" width="161" height="97" filterUnits="userSpaceOnUse" color-interpolation-filters="sRGB">
<feFlood flood-opacity="0" result="BackgroundImageFix"/>
<feGaussianBlur in="BackgroundImage" stdDeviation="5"/>
<feComposite in2="SourceAlpha" operator="in" result="effect1_backgroundBlur_206:37270"/>
<feBlend mode="normal" in="SourceGraphic" in2="effect1_backgroundBlur_206:37270" result="shape"/>
</filter>
</defs>
</svg>
