<svg width="167" height="167" viewBox="0 0 167 167" fill="none" xmlns="http://www.w3.org/2000/svg">
<mask id="mask0_206:37310" style="mask-type:alpha" maskUnits="userSpaceOnUse" x="0" y="0" width="167" height="167">
<rect x="1" y="1" width="165" height="165" rx="8" fill="#5988D6" stroke="#EDE6FC" stroke-opacity="0.3"/>
</mask>
<g mask="url(#mask0_206:37310)">
<rect x="1" y="1" width="165" height="165" rx="8" fill="#A97AD9" stroke="#EDE6FC" stroke-opacity="0.3"/>
<path d="M44.37 43.5012C43.2402 39.2102 51.1866 39.8748 51.1866 39.8748C50.9902 39.5922 50.8524 39.2731 50.781 38.9364C50.7097 38.5998 50.7063 38.2522 50.7712 37.9142C51.2115 35.1519 56.9563 37.2579 57.8743 35.2017C58.3313 34.1757 57.783 30.9273 56.5119 30.3749C58.3105 29.5441 65.6504 30.1879 66.0658 36.6057C66.8592 36.6556 67.528 36.5517 68.1428 37.1956C68.6371 37.6982 69.2228 38.9236 68.7825 39.6422C71.4244 39.4179 71.2333 42.604 71.2997 44.9218L44.37 43.5012Z" fill="#EDE7CA"/>
<path d="M63.3158 36.6015C64.1092 36.6514 64.778 36.5475 65.4136 37.1914C65.9037 37.694 66.4894 38.9194 66.0491 39.638C68.637 39.4179 68.5082 42.471 68.5664 44.7723L71.3412 44.9177C71.2747 42.5998 71.4658 39.4137 68.8239 39.638C69.2642 38.9194 68.6785 37.694 68.1842 37.1914C67.5528 36.5475 66.884 36.6514 66.1073 36.6015C65.7334 30.6947 59.4361 29.7019 57.0559 30.2295C59.7643 30.6573 63.05 32.3687 63.3158 36.6015Z" fill="#D0CBB2"/>
<path d="M69.2975 70.1734C69.2975 71.5649 68.0513 72.4331 66.5268 72.4331H49.3712C47.6224 72.4331 46.5964 71.6605 46.5964 70.1734V68.9272C46.6291 67.7659 47.1194 66.6645 47.9604 65.8631C48.8015 65.0617 49.9253 64.6252 51.0868 64.6487H64.7947C65.9558 64.6252 67.0791 65.0619 67.9195 65.8634C68.7599 66.6649 69.2493 67.7663 69.2809 68.9272L69.2975 70.1734Z" fill="#1B7C7C"/>
<path d="M44.3408 44.6851V66.896C44.3408 68.9064 45.8528 70.5514 47.6972 70.5514H68.2091C70.0535 70.5514 71.5655 68.8898 71.5655 66.896V44.6851H44.3408Z" fill="#45BABD"/>
<path d="M70.5935 47.1151H46.5964V63.7016H70.5935V47.1151Z" fill="#E6E6D5"/>
<g style="mix-blend-mode:soft-light">
<path d="M69.2973 45.387H66.4353V69.2096H69.2973V45.387Z" fill="white"/>
</g>
<g style="mix-blend-mode:soft-light">
<path d="M65.0771 45.387H63.644V69.2096H65.0771V45.387Z" fill="white"/>
</g>
<g style="mix-blend-mode:multiply">
<path d="M50.7544 64.5365V51.0364C50.7544 48.2076 51.7181 46.1638 53.0848 44.6851H44.3408V66.896C44.3408 68.9064 45.8528 70.5514 47.6972 70.5514H68.2091C68.912 70.5315 69.5912 70.2932 70.1525 69.8696C70.7138 69.4461 71.1292 68.8583 71.3412 68.1878H54.1066C52.2623 68.1712 50.7544 66.5429 50.7544 64.5365Z" fill="#E6D5DE"/>
</g>
<g style="mix-blend-mode:multiply">
<path d="M47.5559 66.896V44.6851H44.3408V66.896C44.3408 68.9064 45.8528 70.5514 47.6972 70.5514H50.9289C49.068 70.5514 47.5559 68.9064 47.5559 66.896Z" fill="#E6D5DE"/>
</g>
<path d="M72.3048 44.1326C72.3308 44.3487 72.271 44.5664 72.1381 44.7388C72.0053 44.9113 71.8101 45.0247 71.5945 45.0547H44.4072C44.1916 45.0247 43.9964 44.9113 43.8636 44.7388C43.7307 44.5664 43.6709 44.3487 43.6969 44.1326C43.6697 43.9158 43.729 43.697 43.862 43.5236C43.9949 43.3502 44.1908 43.2362 44.4072 43.2062H71.5945C71.8109 43.2362 72.0068 43.3502 72.1397 43.5236C72.2727 43.697 72.332 43.9158 72.3048 44.1326Z" fill="#1B7C7C"/>
<g style="mix-blend-mode:multiply">
<path d="M43.7258 44.3693C43.7431 44.5446 43.8203 44.7085 43.9444 44.8333C44.0685 44.9582 44.2319 45.0364 44.4071 45.0547H71.5943C71.7695 45.0364 71.9329 44.9582 72.057 44.8333C72.1812 44.7085 72.2584 44.5446 72.2756 44.3693H43.7258Z" fill="#E6D5DE"/>
</g>
<g style="mix-blend-mode:soft-light">
<path d="M70.552 43.63C70.5566 43.7097 70.5295 43.7881 70.4766 43.848C70.4237 43.9079 70.3493 43.9445 70.2696 43.9498H50.875C50.7953 43.9445 50.7209 43.9079 50.668 43.848C50.6151 43.7881 50.588 43.7097 50.5926 43.63C50.5897 43.5901 50.5948 43.5501 50.6075 43.5123C50.6202 43.4744 50.6402 43.4394 50.6665 43.4093C50.6927 43.3792 50.7246 43.3545 50.7604 43.3368C50.7962 43.3191 50.8352 43.3086 50.875 43.306H70.2696C70.3094 43.3086 70.3484 43.3191 70.3842 43.3368C70.42 43.3545 70.4519 43.3792 70.4781 43.4093C70.5044 43.4394 70.5244 43.4744 70.5371 43.5123C70.5498 43.5501 70.5549 43.5901 70.552 43.63Z" fill="white"/>
</g>
<path d="M89.8175 51.1693C94.6277 62.1397 88.2141 68.3872 84.9408 69.8244L81.4391 71.3572C75.6236 73.916 68.6119 69.5918 65.2389 61.9403C61.8659 54.2888 63.4403 46.2178 69.2723 43.6632L73.0607 42.0016C74.0618 41.5862 84.4507 38.936 89.8175 51.1693Z" fill="#1B7C7C"/>
<path d="M89.4229 51.3438C92.6962 58.8208 90.6192 66.9292 84.7913 69.4839C78.9634 72.0385 71.5778 68.0674 68.3045 60.6028C65.0312 53.1383 67.104 45.0174 72.9361 42.4627C78.7682 39.9081 86.1497 43.8792 89.4229 51.3438Z" fill="#45BABD"/>
<path d="M87.7822 52.0623C90.4116 58.0481 88.6462 64.6071 83.8443 66.7173C79.0424 68.8275 73.0192 65.6747 70.3939 59.6889C67.7687 53.7031 69.5299 47.14 74.3318 45.0339C79.1338 42.9279 85.1569 46.0724 87.7822 52.0623Z" stroke="white" stroke-miterlimit="10"/>
<path d="M58.7464 31.7623C58.6733 31.6448 58.5572 31.5605 58.4229 31.5272C58.2886 31.494 58.1466 31.5144 58.0271 31.5842C57.9076 31.6539 57.82 31.7675 57.7829 31.9008C57.7458 32.0341 57.7621 32.1766 57.8284 32.2981C58.1026 32.8755 58.2812 33.4737 58.5263 34.0594C58.842 34.8071 58.3726 35.3761 58.2189 36.0408C58.2094 36.0767 58.2083 36.1143 58.2155 36.1507C58.2227 36.1871 58.2381 36.2214 58.2605 36.251C58.2829 36.2806 58.3117 36.3047 58.3448 36.3216C58.3779 36.3384 58.4144 36.3475 58.4515 36.3482C59.2574 36.2609 59.4111 35.1851 59.4401 34.5329C59.52 33.5582 59.2762 32.5843 58.7464 31.7623Z" fill="#ECEAE2"/>
<path d="M54.954 36.9297C54.5078 36.8467 54.0501 36.8467 53.604 36.9297C53.1544 36.9648 52.7172 37.0936 52.3204 37.3077C52.1405 37.4305 51.9911 37.5928 51.8837 37.7823C51.7763 37.9718 51.7138 38.1834 51.701 38.4008C51.6881 38.6182 51.7253 38.8357 51.8096 39.0365C51.894 39.2373 52.0232 39.4161 52.1875 39.5591C52.2405 39.61 52.3072 39.6444 52.3795 39.6579C52.4518 39.6715 52.5264 39.6637 52.5943 39.6355C52.6622 39.6073 52.7204 39.5599 52.7617 39.4991C52.8031 39.4383 52.8258 39.3668 52.8272 39.2933C52.8272 38.9984 52.5572 38.5622 52.8023 38.3171C53.0473 38.072 53.4586 38.126 53.712 38.1136C54.1595 38.1319 54.6077 38.104 55.0495 38.0305C55.71 37.8477 55.4981 37.0834 54.954 36.9297Z" fill="#ECEAE2"/>
<path d="M51.5727 40.4896C50.0067 39.9122 45.5412 39.8042 45.6451 42.3505C45.6444 42.3836 45.6548 42.4159 45.6744 42.4425C45.6941 42.469 45.722 42.4883 45.7538 42.4974C45.7856 42.5064 45.8195 42.5046 45.8502 42.4923C45.8809 42.48 45.9066 42.4579 45.9234 42.4295C47.2153 40.6059 49.5622 41.1833 51.4564 41.3453C51.9798 41.391 52.0047 40.6516 51.5727 40.4896Z" fill="#ECEAE2"/>
<path d="M63.6274 38.5456C62.996 37.9931 61.9201 37.9516 61.1351 38.1302C60.7756 38.2241 60.4617 38.4436 60.2503 38.7491C59.4714 38.4822 58.6355 38.4277 57.8285 38.5913C56.7901 38.7948 55.5813 40.041 56.4162 41.0836C56.4499 41.1175 56.4909 41.1432 56.536 41.1587C56.5812 41.1743 56.6293 41.1792 56.6767 41.1732C56.724 41.1672 56.7694 41.1504 56.8092 41.124C56.8491 41.0977 56.8823 41.0625 56.9064 41.0213C57.0518 40.7347 57.0559 40.3608 57.2595 40.1033C57.5364 39.8397 57.9032 39.6913 58.2855 39.6879C59.1163 39.609 59.7144 39.9745 60.4497 40.2902C60.9274 40.4979 61.5754 40.041 61.2306 39.5051C61.1868 39.4445 61.1382 39.3875 61.0852 39.3348C61.2282 39.2256 61.4001 39.1606 61.5795 39.1479C62.1018 39.1169 62.6227 39.2274 63.0874 39.4677C63.6066 39.6796 64.0262 38.8945 63.6274 38.5456Z" fill="#ECEAE2"/>
<path d="M119.805 59.2403H98.1421L94.0837 14.2286H122.849L119.805 59.2403Z" fill="#ECEAE2"/>
<path d="M122.854 10.1661H94.0837V14.2287H122.854V10.1661Z" fill="#D0CBB2"/>
<g style="mix-blend-mode:multiply">
<g style="mix-blend-mode:multiply">
<path d="M105.017 50.6126C99.2304 44.0786 98.5658 33.0084 99.1141 24.7255C99.3234 21.0953 100.202 17.5351 101.706 14.2245H94.1003L98.1629 59.2403H119.821L120.208 53.5204C114.795 54.9825 109.137 55.2941 105.017 50.6126Z" fill="#DEE5EA"/>
</g>
<g style="mix-blend-mode:multiply">
<path d="M103.866 10.1661H94.0837V14.2245H101.69C102.328 12.827 103.056 11.4715 103.866 10.1661Z" fill="#DEE5EA"/>
</g>
</g>
<path d="M117.184 72.7779H100.776C98.9147 72.7779 98.1545 71.6771 98.1545 70.4932V59.2403H119.468V70.5763C119.468 71.6771 118.961 72.7779 117.184 72.7779Z" fill="#45BABD"/>
<g style="mix-blend-mode:multiply">
<path d="M108.51 69.9864C106.649 69.9864 105.885 68.8856 105.885 67.7018V59.2403H98.1462V70.4932C98.1462 71.6771 98.9064 72.7779 100.767 72.7779H117.184C118.961 72.7779 119.468 71.6771 119.468 70.5763V69.9864H108.51Z" fill="#DEE5EA"/>
</g>
<path d="M98.1462 69.9865V70.4932C98.1462 71.6771 98.9064 72.7779 100.767 72.7779H117.184C118.961 72.7779 119.468 71.6771 119.468 70.5763V69.9865H98.1462Z" fill="#1B7C7C"/>
<path d="M108.024 69.9864C108.024 69.2285 108.325 68.5016 108.861 67.9656C109.397 67.4296 110.124 67.1285 110.882 67.1285C111.639 67.1296 112.365 67.4312 112.9 67.9671C113.435 68.5029 113.736 69.2292 113.736 69.9864H108.024Z" fill="#1B7C7C"/>
<g style="mix-blend-mode:multiply">
<path d="M95.6497 14.2287H94.6943L95.172 10.8017L95.6497 14.2287Z" fill="#C8D1D6"/>
</g>
<g style="mix-blend-mode:multiply">
<path d="M98.2625 14.2287H97.3071L97.7848 10.8017L98.2625 14.2287Z" fill="#C8D1D6"/>
</g>
<g style="mix-blend-mode:multiply">
<path d="M100.875 14.2287H99.9199L100.398 10.8017L100.875 14.2287Z" fill="#C8D1D6"/>
</g>
<g style="mix-blend-mode:multiply">
<path d="M103.488 14.2287H102.529L103.006 10.8017L103.488 14.2287Z" fill="#C8D1D6"/>
</g>
<g style="mix-blend-mode:multiply">
<path d="M106.101 14.2287H105.141L105.619 10.8017L106.101 14.2287Z" fill="#C8D1D6"/>
</g>
<g style="mix-blend-mode:multiply">
<path d="M108.71 14.2287H107.754L108.232 10.8017L108.71 14.2287Z" fill="#C8D1D6"/>
</g>
<g style="mix-blend-mode:multiply">
<path d="M111.322 14.2287H110.363L110.845 10.8017L111.322 14.2287Z" fill="#C8D1D6"/>
</g>
<g style="mix-blend-mode:multiply">
<path d="M113.935 14.2287H112.976L113.457 10.8017L113.935 14.2287Z" fill="#C8D1D6"/>
</g>
<g style="mix-blend-mode:multiply">
<path d="M116.548 14.2287H115.588L116.066 10.8017L116.548 14.2287Z" fill="#C8D1D6"/>
</g>
<g style="mix-blend-mode:multiply">
<path d="M119.157 14.2287H118.201L118.679 10.8017L119.157 14.2287Z" fill="#C8D1D6"/>
</g>
<g style="mix-blend-mode:multiply">
<path d="M121.769 14.2287H120.814L121.292 10.8017L121.769 14.2287Z" fill="#C8D1D6"/>
</g>
</g>
<g filter="url(#filter0_b_206:37310)">
<rect x="13" y="77" width="141" height="77" rx="10" fill="black" fill-opacity="0.8"/>
</g>
<path d="M41.3942 93.144L41.4502 96H39.5602L39.6442 93.312L39.6302 92.262L37.6002 92.248L35.7662 92.276L35.7522 93.144L35.8222 96H33.9322L34.0302 93.312L33.9322 86.984H35.8502L35.7942 90.708L37.7262 90.736L39.6162 90.708L39.5602 86.984H41.4922L41.3942 93.144ZM45.7295 89.364C46.4481 89.364 47.0081 89.5273 47.4095 89.854C47.8201 90.1713 48.0255 90.6193 48.0255 91.198C48.0255 91.366 47.9975 91.898 47.9415 92.794C47.9321 93.0553 47.9181 93.326 47.8995 93.606C47.8808 93.8767 47.8715 94.11 47.8715 94.306C47.8715 94.4647 47.8948 94.5767 47.9415 94.642C47.9881 94.698 48.0721 94.726 48.1935 94.726C48.2868 94.726 48.4081 94.7073 48.5575 94.67L48.6975 94.782L48.5295 95.762C48.2308 95.958 47.8901 96.0747 47.5075 96.112C47.2275 96.084 46.9941 95.986 46.8075 95.818C46.6208 95.6407 46.4948 95.398 46.4295 95.09H46.3315C45.8648 95.5847 45.3841 95.93 44.8895 96.126C44.2175 96.1167 43.6901 95.9393 43.3075 95.594C42.9248 95.2487 42.7335 94.7773 42.7335 94.18C42.7335 93.7133 42.8501 93.3493 43.0835 93.088C43.3261 92.8173 43.6901 92.6353 44.1755 92.542L46.3175 92.136V91.562C46.3175 90.9553 46.0188 90.652 45.4215 90.652C45.1321 90.652 44.8241 90.7173 44.4975 90.848C44.1801 90.9787 43.8208 91.184 43.4195 91.464L43.2795 91.38L43.0695 90.148C43.4708 89.896 43.9001 89.7047 44.3575 89.574C44.8148 89.434 45.2721 89.364 45.7295 89.364ZM44.8195 93.396C44.6701 93.4333 44.5581 93.4987 44.4835 93.592C44.4181 93.676 44.3855 93.8067 44.3855 93.984C44.3855 94.2267 44.4508 94.418 44.5815 94.558C44.7121 94.6887 44.8941 94.754 45.1275 94.754C45.4915 94.754 45.8741 94.5393 46.2755 94.11L46.3035 93.074L44.8195 93.396ZM46.9475 85.878L47.6195 86.886L47.5915 87.068C47.3861 87.1987 47.2321 87.292 47.1295 87.348C45.9628 88.0667 45.2068 88.524 44.8615 88.72L44.6795 88.706L44.2315 88.006C45.3141 87.138 46.1588 86.424 46.7655 85.864L46.9475 85.878ZM53.4217 89.406C54.243 89.406 54.8684 89.686 55.2977 90.246C55.7364 90.7967 55.9557 91.5667 55.9557 92.556C55.9557 93.704 55.671 94.5907 55.1017 95.216C54.5324 95.832 53.7437 96.14 52.7357 96.14C52.2597 96.14 51.737 96.0327 51.1677 95.818L50.1877 96.168L49.9637 95.986L50.0617 93.326L49.9777 86.312L51.8257 86.172L51.7697 90.414H51.8537C52.115 90.162 52.367 89.9613 52.6097 89.812C52.8524 89.6533 53.123 89.518 53.4217 89.406ZM52.7357 94.922C53.2024 94.922 53.5664 94.754 53.8277 94.418C54.089 94.082 54.2197 93.5687 54.2197 92.878C54.2197 92.234 54.1124 91.744 53.8977 91.408C53.6924 91.072 53.3797 90.904 52.9597 90.904C52.577 90.904 52.1757 91.1 51.7557 91.492L51.7277 93.088L51.7557 94.67C52.101 94.838 52.4277 94.922 52.7357 94.922ZM57.3618 93.312L57.2918 89.616L59.1258 89.462L59.0418 93.13L59.1258 96H57.2638L57.3618 93.312ZM58.2438 86.298C58.5332 86.298 58.7572 86.382 58.9158 86.55C59.0838 86.718 59.1678 86.9513 59.1678 87.25C59.1678 87.5673 59.0792 87.8193 58.9018 88.006C58.7245 88.1927 58.4818 88.286 58.1738 88.286C57.8658 88.286 57.6278 88.202 57.4598 88.034C57.3012 87.866 57.2218 87.628 57.2218 87.32C57.2218 87.012 57.3105 86.7647 57.4878 86.578C57.6745 86.3913 57.9265 86.298 58.2438 86.298ZM63.5182 94.628C63.8169 94.628 64.1296 94.5487 64.4562 94.39L64.6102 94.53L64.4282 95.636C63.9522 95.8787 63.4669 96.028 62.9722 96.084C61.7122 95.9533 61.0822 95.3373 61.0822 94.236L61.1522 93.074L61.1382 90.666H60.2702L60.2002 90.568L60.2982 89.546H61.1242V88.468L62.8182 87.922L62.9442 88.034L62.9022 89.546H64.5682L64.6242 89.644L64.5402 90.666H62.8742L62.7902 93.802C62.7902 94.1007 62.8462 94.3153 62.9582 94.446C63.0702 94.5673 63.2569 94.628 63.5182 94.628ZM68.223 89.364C69.175 89.364 69.903 89.644 70.407 90.204C70.911 90.764 71.163 91.5713 71.163 92.626C71.163 93.7647 70.8923 94.6373 70.351 95.244C69.8097 95.8413 69.0303 96.14 68.013 96.14C67.061 96.14 66.333 95.86 65.829 95.3C65.325 94.74 65.073 93.9327 65.073 92.878C65.073 91.7393 65.3437 90.8713 65.885 90.274C66.4263 89.6673 67.2057 89.364 68.223 89.364ZM68.097 90.624C67.649 90.624 67.3223 90.7733 67.117 91.072C66.921 91.3707 66.823 91.8513 66.823 92.514C66.823 93.3727 66.9257 93.984 67.131 94.348C67.3363 94.712 67.6723 94.894 68.139 94.894C68.587 94.894 68.909 94.7493 69.105 94.46C69.3103 94.1613 69.413 93.676 69.413 93.004C69.413 92.1547 69.3057 91.548 69.091 91.184C68.8857 90.8107 68.5543 90.624 68.097 90.624ZM74.623 89.378C75.2576 89.378 75.855 89.4853 76.415 89.7L76.163 91.072L75.939 91.142C75.6683 90.9647 75.3976 90.8293 75.127 90.736C74.8563 90.6427 74.6183 90.596 74.413 90.596C74.189 90.596 74.0116 90.6567 73.881 90.778C73.7503 90.89 73.685 91.03 73.685 91.198C73.685 91.394 73.769 91.5527 73.937 91.674C74.1143 91.7953 74.3896 91.9307 74.763 92.08C75.1363 92.2293 75.4443 92.374 75.687 92.514C75.9296 92.654 76.135 92.85 76.303 93.102C76.4803 93.3447 76.569 93.648 76.569 94.012C76.569 94.3853 76.471 94.7353 76.275 95.062C76.0883 95.3793 75.799 95.6407 75.407 95.846C75.015 96.042 74.5343 96.14 73.965 96.14C73.293 96.14 72.5976 96 71.879 95.72L72.089 94.264L72.271 94.152C72.5603 94.3947 72.8823 94.5907 73.237 94.74C73.5916 94.88 73.9043 94.95 74.175 94.95C74.427 94.95 74.623 94.8893 74.763 94.768C74.903 94.6373 74.973 94.4833 74.973 94.306C74.973 94.11 74.8843 93.9513 74.707 93.83C74.539 93.7087 74.2683 93.5733 73.895 93.424C73.5123 93.256 73.1996 93.1067 72.957 92.976C72.7143 92.836 72.5043 92.64 72.327 92.388C72.159 92.136 72.075 91.8233 72.075 91.45C72.075 90.8433 72.3036 90.3487 72.761 89.966C73.2183 89.574 73.839 89.378 74.623 89.378ZM82.1151 89.378C82.7498 89.378 83.3471 89.4853 83.9071 89.7L83.6551 91.072L83.4311 91.142C83.1605 90.9647 82.8898 90.8293 82.6191 90.736C82.3485 90.6427 82.1105 90.596 81.9051 90.596C81.6811 90.596 81.5038 90.6567 81.3731 90.778C81.2425 90.89 81.1771 91.03 81.1771 91.198C81.1771 91.394 81.2611 91.5527 81.4291 91.674C81.6065 91.7953 81.8818 91.9307 82.2551 92.08C82.6285 92.2293 82.9365 92.374 83.1791 92.514C83.4218 92.654 83.6271 92.85 83.7951 93.102C83.9725 93.3447 84.0611 93.648 84.0611 94.012C84.0611 94.3853 83.9631 94.7353 83.7671 95.062C83.5805 95.3793 83.2911 95.6407 82.8991 95.846C82.5071 96.042 82.0265 96.14 81.4571 96.14C80.7851 96.14 80.0898 96 79.3711 95.72L79.5811 94.264L79.7631 94.152C80.0525 94.3947 80.3745 94.5907 80.7291 94.74C81.0838 94.88 81.3965 94.95 81.6671 94.95C81.9191 94.95 82.1151 94.8893 82.2551 94.768C82.3951 94.6373 82.4651 94.4833 82.4651 94.306C82.4651 94.11 82.3765 93.9513 82.1991 93.83C82.0311 93.7087 81.7605 93.5733 81.3871 93.424C81.0045 93.256 80.6918 93.1067 80.4491 92.976C80.2065 92.836 79.9965 92.64 79.8191 92.388C79.6511 92.136 79.5671 91.8233 79.5671 91.45C79.5671 90.8433 79.7958 90.3487 80.2531 89.966C80.7105 89.574 81.3311 89.378 82.1151 89.378ZM87.8662 89.364C88.5849 89.364 89.1449 89.5273 89.5462 89.854C89.9569 90.1713 90.1622 90.6193 90.1622 91.198C90.1622 91.366 90.1342 91.898 90.0782 92.794C90.0689 93.0553 90.0549 93.326 90.0362 93.606C90.0175 93.8767 90.0082 94.11 90.0082 94.306C90.0082 94.4647 90.0315 94.5767 90.0782 94.642C90.1249 94.698 90.2089 94.726 90.3302 94.726C90.4235 94.726 90.5449 94.7073 90.6942 94.67L90.8342 94.782L90.6662 95.762C90.3675 95.958 90.0269 96.0747 89.6442 96.112C89.3642 96.084 89.1309 95.986 88.9442 95.818C88.7575 95.6407 88.6315 95.398 88.5662 95.09H88.4682C88.0015 95.5847 87.5209 95.93 87.0262 96.126C86.3542 96.1167 85.8269 95.9393 85.4442 95.594C85.0615 95.2487 84.8702 94.7773 84.8702 94.18C84.8702 93.7133 84.9869 93.3493 85.2202 93.088C85.4629 92.8173 85.8269 92.6353 86.3122 92.542L88.4542 92.136V91.562C88.4542 90.9553 88.1555 90.652 87.5582 90.652C87.2689 90.652 86.9609 90.7173 86.6342 90.848C86.3169 90.9787 85.9575 91.184 85.5562 91.464L85.4162 91.38L85.2062 90.148C85.6075 89.896 86.0369 89.7047 86.4942 89.574C86.9515 89.434 87.4089 89.364 87.8662 89.364ZM86.9562 93.396C86.8069 93.4333 86.6949 93.4987 86.6202 93.592C86.5549 93.676 86.5222 93.8067 86.5222 93.984C86.5222 94.2267 86.5875 94.418 86.7182 94.558C86.8489 94.6887 87.0309 94.754 87.2642 94.754C87.6282 94.754 88.0109 94.5393 88.4122 94.11L88.4402 93.074L86.9562 93.396ZM98.2604 94.782L98.0924 95.762C97.7471 95.986 97.3924 96.1027 97.0284 96.112C96.7578 96.0653 96.5338 95.958 96.3564 95.79C96.1791 95.622 96.0438 95.3793 95.9504 95.062H95.8244C95.2924 95.5847 94.7418 95.9253 94.1724 96.084C93.4631 96.084 92.9218 95.9253 92.5484 95.608C92.1844 95.2813 92.0071 94.8147 92.0164 94.208L92.0444 92.556L91.9744 89.616L93.7804 89.462L93.7384 93.592C93.7291 93.9187 93.7944 94.166 93.9344 94.334C94.0744 94.502 94.2844 94.586 94.5644 94.586C94.9751 94.586 95.3811 94.404 95.7824 94.04V89.616L97.5604 89.462L97.4344 94.306C97.4344 94.4553 97.4578 94.5627 97.5044 94.628C97.5604 94.6933 97.6444 94.726 97.7564 94.726C97.8591 94.726 97.9851 94.7073 98.1344 94.67L98.2604 94.782ZM104.791 93.13L104.833 94.306C104.833 94.4647 104.852 94.5767 104.889 94.642C104.936 94.698 105.015 94.726 105.127 94.726C105.23 94.726 105.356 94.7073 105.505 94.67L105.631 94.782L105.477 95.762C105.16 95.958 104.814 96.0747 104.441 96.112C104.152 96.084 103.909 95.986 103.713 95.818C103.517 95.65 103.382 95.4213 103.307 95.132H103.195C102.738 95.552 102.271 95.874 101.795 96.098C100.88 96.098 100.171 95.8087 99.6669 95.23C99.1629 94.642 98.9109 93.83 98.9109 92.794C98.9109 91.6927 99.2002 90.848 99.7789 90.26C100.358 89.672 101.16 89.378 102.187 89.378C102.458 89.378 102.756 89.406 103.083 89.462L103.055 86.312L104.903 86.172L104.791 93.13ZM102.061 90.638C101.128 90.638 100.661 91.2307 100.661 92.416C100.661 93.1533 100.773 93.7087 100.997 94.082C101.221 94.4553 101.548 94.642 101.977 94.642C102.388 94.642 102.766 94.4507 103.111 94.068L103.139 93.298L103.097 90.89C102.733 90.722 102.388 90.638 102.061 90.638ZM109.29 89.364C110.009 89.364 110.569 89.5273 110.97 89.854C111.381 90.1713 111.586 90.6193 111.586 91.198C111.586 91.366 111.558 91.898 111.502 92.794C111.493 93.0553 111.479 93.326 111.46 93.606C111.441 93.8767 111.432 94.11 111.432 94.306C111.432 94.4647 111.455 94.5767 111.502 94.642C111.549 94.698 111.633 94.726 111.754 94.726C111.847 94.726 111.969 94.7073 112.118 94.67L112.258 94.782L112.09 95.762C111.791 95.958 111.451 96.0747 111.068 96.112C110.788 96.084 110.555 95.986 110.368 95.818C110.181 95.6407 110.055 95.398 109.99 95.09H109.892C109.425 95.5847 108.945 95.93 108.45 96.126C107.778 96.1167 107.251 95.9393 106.868 95.594C106.485 95.2487 106.294 94.7773 106.294 94.18C106.294 93.7133 106.411 93.3493 106.644 93.088C106.887 92.8173 107.251 92.6353 107.736 92.542L109.878 92.136V91.562C109.878 90.9553 109.579 90.652 108.982 90.652C108.693 90.652 108.385 90.7173 108.058 90.848C107.741 90.9787 107.381 91.184 106.98 91.464L106.84 91.38L106.63 90.148C107.031 89.896 107.461 89.7047 107.918 89.574C108.375 89.434 108.833 89.364 109.29 89.364ZM108.38 93.396C108.231 93.4333 108.119 93.4987 108.044 93.592C107.979 93.676 107.946 93.8067 107.946 93.984C107.946 94.2267 108.011 94.418 108.142 94.558C108.273 94.6887 108.455 94.754 108.688 94.754C109.052 94.754 109.435 94.5393 109.836 94.11L109.864 93.074L108.38 93.396ZM110.508 85.878L111.18 86.886L111.152 87.068C110.947 87.1987 110.793 87.292 110.69 87.348C109.523 88.0667 108.767 88.524 108.422 88.72L108.24 88.706L107.792 88.006C108.875 87.138 109.719 86.424 110.326 85.864L110.508 85.878ZM114.591 90.526L115.571 94.25H115.669L116.845 90.624L117.083 89.49H118.707L116.523 96H114.521L112.673 89.532L114.409 89.448L114.591 90.526ZM124.483 92.976L120.703 93.004C120.787 94.1707 121.38 94.754 122.481 94.754C123.06 94.754 123.704 94.5907 124.413 94.264L124.567 94.362L124.287 95.748C123.578 96.0093 122.91 96.14 122.285 96.14C121.258 96.14 120.451 95.8413 119.863 95.244C119.284 94.6467 118.995 93.8207 118.995 92.766C118.995 91.7207 119.28 90.8947 119.849 90.288C120.418 89.672 121.188 89.364 122.159 89.364C122.99 89.364 123.629 89.5927 124.077 90.05C124.534 90.498 124.763 91.128 124.763 91.94C124.763 92.1547 124.74 92.4253 124.693 92.752L124.483 92.976ZM123.139 91.73C123.139 91.3567 123.055 91.0767 122.887 90.89C122.719 90.694 122.472 90.596 122.145 90.596C121.781 90.596 121.478 90.7173 121.235 90.96C120.992 91.1933 120.829 91.534 120.745 91.982L123.111 91.926L123.139 91.73ZM126.172 93.312L126.102 89.616L127.936 89.462L127.852 93.13L127.936 96H126.074L126.172 93.312ZM127.054 86.298C127.344 86.298 127.568 86.382 127.726 86.55C127.894 86.718 127.978 86.9513 127.978 87.25C127.978 87.5673 127.89 87.8193 127.712 88.006C127.535 88.1927 127.292 88.286 126.984 88.286C126.676 88.286 126.438 88.202 126.27 88.034C126.112 87.866 126.032 87.628 126.032 87.32C126.032 87.012 126.121 86.7647 126.298 86.578C126.485 86.3913 126.737 86.298 127.054 86.298ZM131.881 89.378C132.515 89.378 133.113 89.4853 133.673 89.7L133.421 91.072L133.197 91.142C132.926 90.9647 132.655 90.8293 132.385 90.736C132.114 90.6427 131.876 90.596 131.671 90.596C131.447 90.596 131.269 90.6567 131.139 90.778C131.008 90.89 130.943 91.03 130.943 91.198C130.943 91.394 131.027 91.5527 131.195 91.674C131.372 91.7953 131.647 91.9307 132.021 92.08C132.394 92.2293 132.702 92.374 132.945 92.514C133.187 92.654 133.393 92.85 133.561 93.102C133.738 93.3447 133.827 93.648 133.827 94.012C133.827 94.3853 133.729 94.7353 133.533 95.062C133.346 95.3793 133.057 95.6407 132.665 95.846C132.273 96.042 131.792 96.14 131.223 96.14C130.551 96.14 129.855 96 129.137 95.72L129.347 94.264L129.529 94.152C129.818 94.3947 130.14 94.5907 130.495 94.74C130.849 94.88 131.162 94.95 131.433 94.95C131.685 94.95 131.881 94.8893 132.021 94.768C132.161 94.6373 132.231 94.4833 132.231 94.306C132.231 94.11 132.142 93.9513 131.965 93.83C131.797 93.7087 131.526 93.5733 131.153 93.424C130.77 93.256 130.457 93.1067 130.215 92.976C129.972 92.836 129.762 92.64 129.585 92.388C129.417 92.136 129.333 91.8233 129.333 91.45C129.333 90.8433 129.561 90.3487 130.019 89.966C130.476 89.574 131.097 89.378 131.881 89.378ZM50.6515 105.406C51.4635 105.406 52.0888 105.681 52.5275 106.232C52.9662 106.783 53.1855 107.562 53.1855 108.57C53.1855 109.709 52.9008 110.591 52.3315 111.216C51.7715 111.832 50.9782 112.14 49.9515 112.14C49.6528 112.14 49.3402 112.112 49.0135 112.056L49.0555 114.59H47.2075L47.3055 109.312L47.2215 105.616L48.9995 105.462L48.9855 106.414H49.0835C49.3448 106.162 49.5968 105.961 49.8395 105.812C50.0822 105.653 50.3528 105.518 50.6515 105.406ZM49.9655 110.922C50.4508 110.922 50.8195 110.749 51.0715 110.404C51.3235 110.059 51.4495 109.55 51.4495 108.878C51.4495 108.225 51.3422 107.735 51.1275 107.408C50.9222 107.072 50.6142 106.904 50.2035 106.904C49.8022 106.904 49.3962 107.105 48.9855 107.506L48.9715 109.13L48.9995 110.712C49.3355 110.852 49.6575 110.922 49.9655 110.922ZM57.1556 105.364C58.1076 105.364 58.8356 105.644 59.3396 106.204C59.8436 106.764 60.0956 107.571 60.0956 108.626C60.0956 109.765 59.8249 110.637 59.2836 111.244C58.7423 111.841 57.9629 112.14 56.9456 112.14C55.9936 112.14 55.2656 111.86 54.7616 111.3C54.2576 110.74 54.0056 109.933 54.0056 108.878C54.0056 107.739 54.2763 106.871 54.8176 106.274C55.3589 105.667 56.1383 105.364 57.1556 105.364ZM57.0296 106.624C56.5816 106.624 56.2549 106.773 56.0496 107.072C55.8536 107.371 55.7556 107.851 55.7556 108.514C55.7556 109.373 55.8583 109.984 56.0636 110.348C56.2689 110.712 56.6049 110.894 57.0716 110.894C57.5196 110.894 57.8416 110.749 58.0376 110.46C58.2429 110.161 58.3456 109.676 58.3456 109.004C58.3456 108.155 58.2383 107.548 58.0236 107.184C57.8183 106.811 57.4869 106.624 57.0296 106.624ZM66.8036 109.13L66.8456 110.306C66.8456 110.465 66.8642 110.577 66.9016 110.642C66.9482 110.698 67.0276 110.726 67.1396 110.726C67.2422 110.726 67.3682 110.707 67.5176 110.67L67.6436 110.782L67.4896 111.762C67.1722 111.958 66.8269 112.075 66.4536 112.112C66.1642 112.084 65.9216 111.986 65.7256 111.818C65.5296 111.65 65.3942 111.421 65.3196 111.132H65.2076C64.7502 111.552 64.2836 111.874 63.8076 112.098C62.8929 112.098 62.1836 111.809 61.6796 111.23C61.1756 110.642 60.9236 109.83 60.9236 108.794C60.9236 107.693 61.2129 106.848 61.7916 106.26C62.3702 105.672 63.1729 105.378 64.1996 105.378C64.4702 105.378 64.7689 105.406 65.0956 105.462L65.0676 102.312L66.9156 102.172L66.8036 109.13ZM64.0736 106.638C63.1402 106.638 62.6736 107.231 62.6736 108.416C62.6736 109.153 62.7856 109.709 63.0096 110.082C63.2336 110.455 63.5602 110.642 63.9896 110.642C64.4002 110.642 64.7782 110.451 65.1236 110.068L65.1516 109.298L65.1096 106.89C64.7456 106.722 64.4002 106.638 64.0736 106.638ZM73.7807 108.976L70.0007 109.004C70.0847 110.171 70.6774 110.754 71.7787 110.754C72.3574 110.754 73.0014 110.591 73.7107 110.264L73.8647 110.362L73.5847 111.748C72.8754 112.009 72.2081 112.14 71.5827 112.14C70.5561 112.14 69.7487 111.841 69.1607 111.244C68.5821 110.647 68.2927 109.821 68.2927 108.766C68.2927 107.721 68.5774 106.895 69.1467 106.288C69.7161 105.672 70.4861 105.364 71.4567 105.364C72.2874 105.364 72.9267 105.593 73.3747 106.05C73.8321 106.498 74.0607 107.128 74.0607 107.94C74.0607 108.155 74.0374 108.425 73.9907 108.752L73.7807 108.976ZM72.4367 107.73C72.4367 107.357 72.3527 107.077 72.1847 106.89C72.0167 106.694 71.7694 106.596 71.4427 106.596C71.0787 106.596 70.7754 106.717 70.5327 106.96C70.2901 107.193 70.1267 107.534 70.0427 107.982L72.4087 107.926L72.4367 107.73ZM83.1422 112L83.2542 107.94C83.2542 107.249 82.9602 106.904 82.3722 106.904C81.9522 106.904 81.5136 107.091 81.0562 107.464L81.0142 109.144L81.0982 112H79.2362L79.3482 107.94C79.3576 107.604 79.2829 107.347 79.1242 107.17C78.9749 106.993 78.7556 106.904 78.4662 106.904C78.0556 106.904 77.6029 107.1 77.1082 107.492V109.13L77.1922 112H75.3442L75.4422 109.312L75.3722 105.616L77.1222 105.462V106.414H77.2202C77.7336 105.947 78.2982 105.611 78.9142 105.406C79.9596 105.406 80.6269 105.756 80.9162 106.456H81.0002C81.5322 105.961 82.1389 105.611 82.8202 105.406C83.5296 105.406 84.0662 105.569 84.4302 105.896C84.8036 106.213 84.9809 106.675 84.9622 107.282L84.9202 109.144L85.0042 112H83.1422ZM93.7963 108.976L90.0163 109.004C90.1003 110.171 90.693 110.754 91.7943 110.754C92.373 110.754 93.017 110.591 93.7263 110.264L93.8803 110.362L93.6003 111.748C92.891 112.009 92.2237 112.14 91.5983 112.14C90.5717 112.14 89.7643 111.841 89.1763 111.244C88.5977 110.647 88.3083 109.821 88.3083 108.766C88.3083 107.721 88.593 106.895 89.1623 106.288C89.7317 105.672 90.5017 105.364 91.4723 105.364C92.303 105.364 92.9423 105.593 93.3903 106.05C93.8477 106.498 94.0763 107.128 94.0763 107.94C94.0763 108.155 94.053 108.425 94.0063 108.752L93.7963 108.976ZM92.4523 107.73C92.4523 107.357 92.3683 107.077 92.2003 106.89C92.0323 106.694 91.785 106.596 91.4583 106.596C91.0943 106.596 90.791 106.717 90.5483 106.96C90.3057 107.193 90.1423 107.534 90.0583 107.982L92.4243 107.926L92.4523 107.73ZM96.5779 106.526L97.5579 110.25H97.6559L98.8319 106.624L99.0699 105.49H100.694L98.5099 112H96.5079L94.6599 105.532L96.3959 105.448L96.5779 106.526ZM101.72 109.312L101.65 105.616L103.484 105.462L103.4 109.13L103.484 112H101.622L101.72 109.312ZM102.602 102.298C102.892 102.298 103.116 102.382 103.274 102.55C103.442 102.718 103.526 102.951 103.526 103.25C103.526 103.567 103.438 103.819 103.26 104.006C103.083 104.193 102.84 104.286 102.532 104.286C102.224 104.286 101.986 104.202 101.818 104.034C101.66 103.866 101.58 103.628 101.58 103.32C101.58 103.012 101.669 102.765 101.846 102.578C102.033 102.391 102.285 102.298 102.602 102.298ZM107.877 110.628C108.175 110.628 108.488 110.549 108.815 110.39L108.969 110.53L108.787 111.636C108.311 111.879 107.825 112.028 107.331 112.084C106.071 111.953 105.441 111.337 105.441 110.236L105.511 109.074L105.497 106.666H104.629L104.559 106.568L104.657 105.546H105.483V104.468L107.177 103.922L107.303 104.034L107.261 105.546H108.927L108.983 105.644L108.899 106.666H107.233L107.149 109.802C107.149 110.101 107.205 110.315 107.317 110.446C107.429 110.567 107.615 110.628 107.877 110.628ZM112.537 105.364C113.256 105.364 113.816 105.527 114.217 105.854C114.628 106.171 114.833 106.619 114.833 107.198C114.833 107.366 114.805 107.898 114.749 108.794C114.74 109.055 114.726 109.326 114.707 109.606C114.688 109.877 114.679 110.11 114.679 110.306C114.679 110.465 114.702 110.577 114.749 110.642C114.796 110.698 114.88 110.726 115.001 110.726C115.094 110.726 115.216 110.707 115.365 110.67L115.505 110.782L115.337 111.762C115.038 111.958 114.698 112.075 114.315 112.112C114.035 112.084 113.802 111.986 113.615 111.818C113.428 111.641 113.302 111.398 113.237 111.09H113.139C112.672 111.585 112.192 111.93 111.697 112.126C111.025 112.117 110.498 111.939 110.115 111.594C109.732 111.249 109.541 110.777 109.541 110.18C109.541 109.713 109.658 109.349 109.891 109.088C110.134 108.817 110.498 108.635 110.983 108.542L113.125 108.136V107.562C113.125 106.955 112.826 106.652 112.229 106.652C111.94 106.652 111.632 106.717 111.305 106.848C110.988 106.979 110.628 107.184 110.227 107.464L110.087 107.38L109.877 106.148C110.278 105.896 110.708 105.705 111.165 105.574C111.622 105.434 112.08 105.364 112.537 105.364ZM111.627 109.396C111.478 109.433 111.366 109.499 111.291 109.592C111.226 109.676 111.193 109.807 111.193 109.984C111.193 110.227 111.258 110.418 111.389 110.558C111.52 110.689 111.702 110.754 111.935 110.754C112.299 110.754 112.682 110.539 113.083 110.11L113.111 109.074L111.627 109.396ZM120.231 105.476C120.315 105.476 120.432 105.485 120.581 105.504V107.226L120.385 107.296C120.227 107.231 120.054 107.198 119.867 107.198C119.326 107.198 118.836 107.548 118.397 108.248V109.13L118.495 112H116.633L116.745 109.312L116.661 105.616L118.425 105.462L118.411 106.736H118.523C118.981 105.896 119.55 105.476 120.231 105.476ZM41.7331 121.364C42.0411 121.364 42.3444 121.397 42.6431 121.462C42.9511 121.518 43.2217 121.602 43.4551 121.714L43.1471 123.198L42.9931 123.268C42.5171 123.007 42.0924 122.876 41.7191 122.876C41.2897 122.876 40.9584 123.03 40.7251 123.338C40.4917 123.646 40.3751 124.085 40.3751 124.654C40.3751 125.307 40.5011 125.807 40.7531 126.152C41.0051 126.497 41.3644 126.67 41.8311 126.67C42.2511 126.67 42.7177 126.553 43.2311 126.32L43.3711 126.432L43.1891 127.874C42.6291 128.051 42.0551 128.14 41.4671 128.14C40.5711 128.14 39.8711 127.851 39.3671 127.272C38.8631 126.684 38.6111 125.867 38.6111 124.822C38.6111 123.739 38.8864 122.895 39.4371 122.288C39.9877 121.672 40.7531 121.364 41.7331 121.364ZM47.1478 121.364C48.0998 121.364 48.8278 121.644 49.3318 122.204C49.8358 122.764 50.0878 123.571 50.0878 124.626C50.0878 125.765 49.8171 126.637 49.2758 127.244C48.7345 127.841 47.9551 128.14 46.9378 128.14C45.9858 128.14 45.2578 127.86 44.7538 127.3C44.2498 126.74 43.9978 125.933 43.9978 124.878C43.9978 123.739 44.2685 122.871 44.8098 122.274C45.3511 121.667 46.1305 121.364 47.1478 121.364ZM47.0218 122.624C46.5738 122.624 46.2471 122.773 46.0418 123.072C45.8458 123.371 45.7478 123.851 45.7478 124.514C45.7478 125.373 45.8505 125.984 46.0558 126.348C46.2611 126.712 46.5971 126.894 47.0638 126.894C47.5118 126.894 47.8338 126.749 48.0298 126.46C48.2351 126.161 48.3378 125.676 48.3378 125.004C48.3378 124.155 48.2305 123.548 48.0158 123.184C47.8105 122.811 47.4791 122.624 47.0218 122.624ZM59.0797 128L59.1917 123.94C59.1917 123.249 58.8977 122.904 58.3097 122.904C57.8897 122.904 57.4511 123.091 56.9937 123.464L56.9517 125.144L57.0357 128H55.1737L55.2857 123.94C55.2951 123.604 55.2204 123.347 55.0617 123.17C54.9124 122.993 54.6931 122.904 54.4037 122.904C53.9931 122.904 53.5404 123.1 53.0457 123.492V125.13L53.1297 128H51.2817L51.3797 125.312L51.3097 121.616L53.0597 121.462V122.414H53.1577C53.6711 121.947 54.2357 121.611 54.8517 121.406C55.8971 121.406 56.5644 121.756 56.8537 122.456H56.9377C57.4697 121.961 58.0764 121.611 58.7577 121.406C59.4671 121.406 60.0037 121.569 60.3677 121.896C60.7411 122.213 60.9184 122.675 60.8997 123.282L60.8577 125.144L60.9417 128H59.0797ZM66.0187 121.406C66.8307 121.406 67.456 121.681 67.8947 122.232C68.3334 122.783 68.5527 123.562 68.5527 124.57C68.5527 125.709 68.268 126.591 67.6987 127.216C67.1387 127.832 66.3454 128.14 65.3187 128.14C65.02 128.14 64.7074 128.112 64.3807 128.056L64.4227 130.59H62.5747L62.6727 125.312L62.5887 121.616L64.3667 121.462L64.3527 122.414H64.4507C64.712 122.162 64.964 121.961 65.2067 121.812C65.4494 121.653 65.72 121.518 66.0187 121.406ZM65.3327 126.922C65.818 126.922 66.1867 126.749 66.4387 126.404C66.6907 126.059 66.8167 125.55 66.8167 124.878C66.8167 124.225 66.7094 123.735 66.4947 123.408C66.2894 123.072 65.9814 122.904 65.5707 122.904C65.1694 122.904 64.7634 123.105 64.3527 123.506L64.3387 125.13L64.3667 126.712C64.7027 126.852 65.0247 126.922 65.3327 126.922ZM71.6408 125.13L71.7388 128H69.8768L69.9748 125.298L69.8908 118.312L71.7528 118.172L71.6408 125.13ZM73.6245 125.312L73.5545 121.616L75.3885 121.462L75.3045 125.13L75.3885 128H73.5265L73.6245 125.312ZM74.5065 118.298C74.7959 118.298 75.0199 118.382 75.1785 118.55C75.3465 118.718 75.4305 118.951 75.4305 119.25C75.4305 119.567 75.3419 119.819 75.1645 120.006C74.9872 120.193 74.7445 120.286 74.4365 120.286C74.1285 120.286 73.8905 120.202 73.7225 120.034C73.5639 119.866 73.4845 119.628 73.4845 119.32C73.4845 119.012 73.5732 118.765 73.7505 118.578C73.9372 118.391 74.1892 118.298 74.5065 118.298ZM79.8229 121.364C80.1309 121.364 80.4343 121.397 80.7329 121.462C81.0409 121.518 81.3116 121.602 81.5449 121.714L81.2369 123.198L81.0829 123.268C80.6069 123.007 80.1823 122.876 79.8089 122.876C79.3796 122.876 79.0483 123.03 78.8149 123.338C78.5816 123.646 78.4649 124.085 78.4649 124.654C78.4649 125.307 78.5909 125.807 78.8429 126.152C79.0949 126.497 79.4543 126.67 79.9209 126.67C80.3409 126.67 80.8076 126.553 81.3209 126.32L81.4609 126.432L81.2789 127.874C80.7189 128.051 80.1449 128.14 79.5569 128.14C78.6609 128.14 77.9609 127.851 77.4569 127.272C76.9529 126.684 76.7009 125.867 76.7009 124.822C76.7009 123.739 76.9763 122.895 77.5269 122.288C78.0776 121.672 78.8429 121.364 79.8229 121.364ZM84.9609 121.364C85.6796 121.364 86.2396 121.527 86.6409 121.854C87.0516 122.171 87.2569 122.619 87.2569 123.198C87.2569 123.366 87.2289 123.898 87.1729 124.794C87.1636 125.055 87.1496 125.326 87.1309 125.606C87.1123 125.877 87.1029 126.11 87.1029 126.306C87.1029 126.465 87.1263 126.577 87.1729 126.642C87.2196 126.698 87.3036 126.726 87.4249 126.726C87.5183 126.726 87.6396 126.707 87.7889 126.67L87.9289 126.782L87.7609 127.762C87.4623 127.958 87.1216 128.075 86.7389 128.112C86.4589 128.084 86.2256 127.986 86.0389 127.818C85.8523 127.641 85.7263 127.398 85.6609 127.09H85.5629C85.0963 127.585 84.6156 127.93 84.1209 128.126C83.4489 128.117 82.9216 127.939 82.5389 127.594C82.1563 127.249 81.9649 126.777 81.9649 126.18C81.9649 125.713 82.0816 125.349 82.3149 125.088C82.5576 124.817 82.9216 124.635 83.4069 124.542L85.5489 124.136V123.562C85.5489 122.955 85.2503 122.652 84.6529 122.652C84.3636 122.652 84.0556 122.717 83.7289 122.848C83.4116 122.979 83.0523 123.184 82.6509 123.464L82.5109 123.38L82.3009 122.148C82.7023 121.896 83.1316 121.705 83.5889 121.574C84.0463 121.434 84.5036 121.364 84.9609 121.364ZM84.0509 125.396C83.9016 125.433 83.7896 125.499 83.7149 125.592C83.6496 125.676 83.6169 125.807 83.6169 125.984C83.6169 126.227 83.6823 126.418 83.8129 126.558C83.9436 126.689 84.1256 126.754 84.3589 126.754C84.7229 126.754 85.1056 126.539 85.5069 126.11L85.5349 125.074L84.0509 125.396ZM91.8132 121.364C92.1212 121.364 92.4245 121.397 92.7232 121.462C93.0312 121.518 93.3018 121.602 93.5352 121.714L93.2272 123.198L93.0732 123.268C92.5972 123.007 92.1725 122.876 91.7992 122.876C91.3698 122.876 91.0385 123.03 90.8052 123.338C90.5718 123.646 90.4552 124.085 90.4552 124.654C90.4552 125.307 90.5812 125.807 90.8332 126.152C91.0852 126.497 91.4445 126.67 91.9112 126.67C92.3312 126.67 92.7978 126.553 93.3112 126.32L93.4512 126.432L93.2692 127.874C92.7092 128.051 92.1352 128.14 91.5472 128.14C90.6512 128.14 89.9512 127.851 89.4472 127.272C88.9432 126.684 88.6912 125.867 88.6912 124.822C88.6912 123.739 88.9665 122.895 89.5172 122.288C90.0678 121.672 90.8332 121.364 91.8132 121.364ZM91.7992 128.672L92.2752 128.938C92.4805 129.05 92.6252 129.171 92.7092 129.302C92.8025 129.442 92.8492 129.596 92.8492 129.764C92.8492 130.072 92.7278 130.324 92.4852 130.52C92.2425 130.716 91.9252 130.814 91.5332 130.814C91.1132 130.814 90.7305 130.683 90.3852 130.422L90.5112 129.638L90.5952 129.596C90.8752 129.876 91.1505 130.016 91.4212 130.016C91.6452 130.016 91.7572 129.918 91.7572 129.722C91.7572 129.657 91.7385 129.601 91.7012 129.554C91.6638 129.517 91.6032 129.479 91.5192 129.442L90.8332 129.05L91.1552 127.636H92.0512L91.7992 128.672ZM97.2279 121.364C98.1799 121.364 98.9079 121.644 99.4119 122.204C99.9159 122.764 100.168 123.571 100.168 124.626C100.168 125.765 99.8972 126.637 99.3559 127.244C98.8145 127.841 98.0352 128.14 97.0179 128.14C96.0659 128.14 95.3379 127.86 94.8339 127.3C94.3299 126.74 94.0779 125.933 94.0779 124.878C94.0779 123.739 94.3485 122.871 94.8899 122.274C95.4312 121.667 96.2105 121.364 97.2279 121.364ZM97.1019 122.624C96.6539 122.624 96.3272 122.773 96.1219 123.072C95.9259 123.371 95.8279 123.851 95.8279 124.514C95.8279 125.373 95.9305 125.984 96.1359 126.348C96.3412 126.712 96.6772 126.894 97.1439 126.894C97.5919 126.894 97.9139 126.749 98.1099 126.46C98.3152 126.161 98.4179 125.676 98.4179 125.004C98.4179 124.155 98.3105 123.548 98.0959 123.184C97.8905 122.811 97.5592 122.624 97.1019 122.624ZM99.5799 118.732V118.886L98.5999 120.132L98.4179 120.202C98.1659 120.174 97.7785 120.085 97.2559 119.936C97.2092 119.927 97.0552 119.889 96.7939 119.824C96.5419 119.749 96.3645 119.712 96.2619 119.712C96.1592 119.712 96.0565 119.754 95.9539 119.838C95.8605 119.922 95.7579 120.025 95.6459 120.146C95.5339 120.267 95.4499 120.361 95.3939 120.426H95.2259L94.6659 119.88V119.726L95.6599 118.48L95.8279 118.41C96.0519 118.438 96.4485 118.531 97.0179 118.69C97.5405 118.83 97.8625 118.9 97.9839 118.9C98.0959 118.9 98.2032 118.853 98.3059 118.76C98.4179 118.667 98.5299 118.559 98.6419 118.438C98.7539 118.317 98.8285 118.233 98.8659 118.186H99.0339L99.5799 118.732ZM106.484 124.976L102.704 125.004C102.788 126.171 103.381 126.754 104.482 126.754C105.061 126.754 105.705 126.591 106.414 126.264L106.568 126.362L106.288 127.748C105.579 128.009 104.911 128.14 104.286 128.14C103.259 128.14 102.452 127.841 101.864 127.244C101.285 126.647 100.996 125.821 100.996 124.766C100.996 123.721 101.281 122.895 101.85 122.288C102.419 121.672 103.189 121.364 104.16 121.364C104.991 121.364 105.63 121.593 106.078 122.05C106.535 122.498 106.764 123.128 106.764 123.94C106.764 124.155 106.741 124.425 106.694 124.752L106.484 124.976ZM105.14 123.73C105.14 123.357 105.056 123.077 104.888 122.89C104.72 122.694 104.473 122.596 104.146 122.596C103.782 122.596 103.479 122.717 103.236 122.96C102.993 123.193 102.83 123.534 102.746 123.982L105.112 123.926L105.14 123.73ZM110.231 121.378C110.866 121.378 111.463 121.485 112.023 121.7L111.771 123.072L111.547 123.142C111.277 122.965 111.006 122.829 110.735 122.736C110.465 122.643 110.227 122.596 110.021 122.596C109.797 122.596 109.62 122.657 109.489 122.778C109.359 122.89 109.293 123.03 109.293 123.198C109.293 123.394 109.377 123.553 109.545 123.674C109.723 123.795 109.998 123.931 110.371 124.08C110.745 124.229 111.053 124.374 111.295 124.514C111.538 124.654 111.743 124.85 111.911 125.102C112.089 125.345 112.177 125.648 112.177 126.012C112.177 126.385 112.079 126.735 111.883 127.062C111.697 127.379 111.407 127.641 111.015 127.846C110.623 128.042 110.143 128.14 109.573 128.14C108.901 128.14 108.206 128 107.487 127.72L107.697 126.264L107.879 126.152C108.169 126.395 108.491 126.591 108.845 126.74C109.2 126.88 109.513 126.95 109.783 126.95C110.035 126.95 110.231 126.889 110.371 126.768C110.511 126.637 110.581 126.483 110.581 126.306C110.581 126.11 110.493 125.951 110.315 125.83C110.147 125.709 109.877 125.573 109.503 125.424C109.121 125.256 108.808 125.107 108.565 124.976C108.323 124.836 108.113 124.64 107.935 124.388C107.767 124.136 107.683 123.823 107.683 123.45C107.683 122.843 107.912 122.349 108.369 121.966C108.827 121.574 109.447 121.378 110.231 121.378ZM120.972 125.13L121.014 126.306C121.014 126.465 121.032 126.577 121.07 126.642C121.116 126.698 121.196 126.726 121.308 126.726C121.41 126.726 121.536 126.707 121.686 126.67L121.812 126.782L121.658 127.762C121.34 127.958 120.995 128.075 120.622 128.112C120.332 128.084 120.09 127.986 119.894 127.818C119.698 127.65 119.562 127.421 119.488 127.132H119.376C118.918 127.552 118.452 127.874 117.976 128.098C117.061 128.098 116.352 127.809 115.848 127.23C115.344 126.642 115.092 125.83 115.092 124.794C115.092 123.693 115.381 122.848 115.96 122.26C116.538 121.672 117.341 121.378 118.368 121.378C118.638 121.378 118.937 121.406 119.264 121.462L119.236 118.312L121.084 118.172L120.972 125.13ZM118.242 122.638C117.308 122.638 116.842 123.231 116.842 124.416C116.842 125.153 116.954 125.709 117.178 126.082C117.402 126.455 117.728 126.642 118.158 126.642C118.568 126.642 118.946 126.451 119.292 126.068L119.32 125.298L119.278 122.89C118.914 122.722 118.568 122.638 118.242 122.638ZM125.471 121.364C126.189 121.364 126.749 121.527 127.151 121.854C127.561 122.171 127.767 122.619 127.767 123.198C127.767 123.366 127.739 123.898 127.683 124.794C127.673 125.055 127.659 125.326 127.641 125.606C127.622 125.877 127.613 126.11 127.613 126.306C127.613 126.465 127.636 126.577 127.683 126.642C127.729 126.698 127.813 126.726 127.935 126.726C128.028 126.726 128.149 126.707 128.299 126.67L128.439 126.782L128.271 127.762C127.972 127.958 127.631 128.075 127.249 128.112C126.969 128.084 126.735 127.986 126.549 127.818C126.362 127.641 126.236 127.398 126.171 127.09H126.073C125.606 127.585 125.125 127.93 124.631 128.126C123.959 128.117 123.431 127.939 123.049 127.594C122.666 127.249 122.475 126.777 122.475 126.18C122.475 125.713 122.591 125.349 122.825 125.088C123.067 124.817 123.431 124.635 123.917 124.542L126.059 124.136V123.562C126.059 122.955 125.76 122.652 125.163 122.652C124.873 122.652 124.565 122.717 124.239 122.848C123.921 122.979 123.562 123.184 123.161 123.464L123.021 123.38L122.811 122.148C123.212 121.896 123.641 121.705 124.099 121.574C124.556 121.434 125.013 121.364 125.471 121.364ZM124.561 125.396C124.411 125.433 124.299 125.499 124.225 125.592C124.159 125.676 124.127 125.807 124.127 125.984C124.127 126.227 124.192 126.418 124.323 126.558C124.453 126.689 124.635 126.754 124.869 126.754C125.233 126.754 125.615 126.539 126.017 126.11L126.045 125.074L124.561 125.396ZM69.6405 141.13L69.6825 142.306C69.6825 142.465 69.7012 142.577 69.7385 142.642C69.7852 142.698 69.8645 142.726 69.9765 142.726C70.0792 142.726 70.2052 142.707 70.3545 142.67L70.4805 142.782L70.3265 143.762C70.0092 143.958 69.6638 144.075 69.2905 144.112C69.0012 144.084 68.7585 143.986 68.5625 143.818C68.3665 143.65 68.2312 143.421 68.1565 143.132H68.0445C67.5872 143.552 67.1205 143.874 66.6445 144.098C65.7298 144.098 65.0205 143.809 64.5165 143.23C64.0125 142.642 63.7605 141.83 63.7605 140.794C63.7605 139.693 64.0498 138.848 64.6285 138.26C65.2072 137.672 66.0098 137.378 67.0365 137.378C67.3072 137.378 67.6058 137.406 67.9325 137.462L67.9045 134.312L69.7525 134.172L69.6405 141.13ZM66.9105 138.638C65.9772 138.638 65.5105 139.231 65.5105 140.416C65.5105 141.153 65.6225 141.709 65.8465 142.082C66.0705 142.455 66.3972 142.642 66.8265 142.642C67.2372 142.642 67.6152 142.451 67.9605 142.068L67.9885 141.298L67.9465 138.89C67.5825 138.722 67.2372 138.638 66.9105 138.638ZM74.2796 137.364C75.2316 137.364 75.9596 137.644 76.4636 138.204C76.9676 138.764 77.2196 139.571 77.2196 140.626C77.2196 141.765 76.949 142.637 76.4076 143.244C75.8663 143.841 75.087 144.14 74.0696 144.14C73.1176 144.14 72.3896 143.86 71.8856 143.3C71.3816 142.74 71.1296 141.933 71.1296 140.878C71.1296 139.739 71.4003 138.871 71.9416 138.274C72.483 137.667 73.2623 137.364 74.2796 137.364ZM74.1536 138.624C73.7056 138.624 73.379 138.773 73.1736 139.072C72.9776 139.371 72.8796 139.851 72.8796 140.514C72.8796 141.373 72.9823 141.984 73.1876 142.348C73.393 142.712 73.729 142.894 74.1956 142.894C74.6436 142.894 74.9656 142.749 75.1616 142.46C75.367 142.161 75.4696 141.676 75.4696 141.004C75.4696 140.155 75.3623 139.548 75.1476 139.184C74.9423 138.811 74.611 138.624 74.1536 138.624ZM83.5356 140.976L79.7556 141.004C79.8396 142.171 80.4323 142.754 81.5336 142.754C82.1123 142.754 82.7563 142.591 83.4656 142.264L83.6196 142.362L83.3396 143.748C82.6303 144.009 81.9629 144.14 81.3376 144.14C80.3109 144.14 79.5036 143.841 78.9156 143.244C78.3369 142.647 78.0476 141.821 78.0476 140.766C78.0476 139.721 78.3323 138.895 78.9016 138.288C79.4709 137.672 80.2409 137.364 81.2116 137.364C82.0423 137.364 82.6816 137.593 83.1296 138.05C83.5869 138.498 83.8156 139.128 83.8156 139.94C83.8156 140.155 83.7923 140.425 83.7456 140.752L83.5356 140.976ZM82.1916 139.73C82.1916 139.357 82.1076 139.077 81.9396 138.89C81.7716 138.694 81.5243 138.596 81.1976 138.596C80.8336 138.596 80.5303 138.717 80.2876 138.96C80.0449 139.193 79.8816 139.534 79.7976 139.982L82.1636 139.926L82.1916 139.73ZM89.1031 139.94C89.1125 139.613 89.0378 139.361 88.8791 139.184C88.7298 138.997 88.5105 138.904 88.2211 138.904C87.8011 138.904 87.3531 139.105 86.8771 139.506V141.13L86.9611 144H85.0991L85.1971 141.312L85.1271 137.616L86.8911 137.462V138.414H86.9891C87.5025 137.947 88.0625 137.611 88.6691 137.406C89.3785 137.406 89.9198 137.569 90.2931 137.896C90.6665 138.213 90.8438 138.675 90.8251 139.282L90.7831 141.144L90.8671 144H88.9911L89.1031 139.94ZM95.1833 137.364C95.4913 137.364 95.7946 137.397 96.0933 137.462C96.4013 137.518 96.6719 137.602 96.9053 137.714L96.5973 139.198L96.4433 139.268C95.9673 139.007 95.5426 138.876 95.1693 138.876C94.7399 138.876 94.4086 139.03 94.1753 139.338C93.9419 139.646 93.8253 140.085 93.8253 140.654C93.8253 141.307 93.9513 141.807 94.2033 142.152C94.4553 142.497 94.8146 142.67 95.2813 142.67C95.7013 142.67 96.1679 142.553 96.6813 142.32L96.8213 142.432L96.6393 143.874C96.0793 144.051 95.5053 144.14 94.9173 144.14C94.0213 144.14 93.3213 143.851 92.8173 143.272C92.3133 142.684 92.0613 141.867 92.0613 140.822C92.0613 139.739 92.3366 138.895 92.8873 138.288C93.4379 137.672 94.2033 137.364 95.1833 137.364ZM95.1693 144.672L95.6453 144.938C95.8506 145.05 95.9953 145.171 96.0793 145.302C96.1726 145.442 96.2193 145.596 96.2193 145.764C96.2193 146.072 96.0979 146.324 95.8553 146.52C95.6126 146.716 95.2953 146.814 94.9033 146.814C94.4833 146.814 94.1006 146.683 93.7553 146.422L93.8813 145.638L93.9653 145.596C94.2453 145.876 94.5206 146.016 94.7913 146.016C95.0153 146.016 95.1273 145.918 95.1273 145.722C95.1273 145.657 95.1086 145.601 95.0713 145.554C95.0339 145.517 94.9733 145.479 94.8893 145.442L94.2033 145.05L94.5253 143.636H95.4213L95.1693 144.672ZM100.321 137.364C101.04 137.364 101.6 137.527 102.001 137.854C102.412 138.171 102.617 138.619 102.617 139.198C102.617 139.366 102.589 139.898 102.533 140.794C102.524 141.055 102.51 141.326 102.491 141.606C102.473 141.877 102.463 142.11 102.463 142.306C102.463 142.465 102.487 142.577 102.533 142.642C102.58 142.698 102.664 142.726 102.785 142.726C102.879 142.726 103 142.707 103.149 142.67L103.289 142.782L103.121 143.762C102.823 143.958 102.482 144.075 102.099 144.112C101.819 144.084 101.586 143.986 101.399 143.818C101.213 143.641 101.087 143.398 101.021 143.09H100.923C100.457 143.585 99.9759 143.93 99.4813 144.126C98.8093 144.117 98.2819 143.939 97.8993 143.594C97.5166 143.249 97.3253 142.777 97.3253 142.18C97.3253 141.713 97.4419 141.349 97.6753 141.088C97.9179 140.817 98.2819 140.635 98.7673 140.542L100.909 140.136V139.562C100.909 138.955 100.611 138.652 100.013 138.652C99.7239 138.652 99.4159 138.717 99.0893 138.848C98.7719 138.979 98.4126 139.184 98.0113 139.464L97.8713 139.38L97.6613 138.148C98.0626 137.896 98.4919 137.705 98.9493 137.574C99.4066 137.434 99.8639 137.364 100.321 137.364ZM99.4113 141.396C99.2619 141.433 99.1499 141.499 99.0753 141.592C99.0099 141.676 98.9773 141.807 98.9773 141.984C98.9773 142.227 99.0426 142.418 99.1733 142.558C99.3039 142.689 99.4859 142.754 99.7193 142.754C100.083 142.754 100.466 142.539 100.867 142.11L100.895 141.074L99.4113 141.396Z" fill="white"/>
<defs>
<filter id="filter0_b_206:37310" x="3" y="67" width="161" height="97" filterUnits="userSpaceOnUse" color-interpolation-filters="sRGB">
<feFlood flood-opacity="0" result="BackgroundImageFix"/>
<feGaussianBlur in="BackgroundImage" stdDeviation="5"/>
<feComposite in2="SourceAlpha" operator="in" result="effect1_backgroundBlur_206:37310"/>
<feBlend mode="normal" in="SourceGraphic" in2="effect1_backgroundBlur_206:37310" result="shape"/>
</filter>
</defs>
</svg>
