<svg width="167" height="167" viewBox="0 0 167 167" fill="none" xmlns="http://www.w3.org/2000/svg">
<mask id="mask0_206:37302" style="mask-type:alpha" maskUnits="userSpaceOnUse" x="0" y="0" width="167" height="167">
<rect x="1" y="1" width="165" height="165" rx="8" fill="#5988D6" stroke="#EDE6FC" stroke-opacity="0.3"/>
</mask>
<g mask="url(#mask0_206:37302)">
<rect x="1" y="1" width="165" height="165" rx="8" fill="#A97AD9" stroke="#EDE6FC" stroke-opacity="0.3"/>
<path d="M44.37 43.5012C43.2402 39.2102 51.1866 39.8748 51.1866 39.8748C50.9902 39.5921 50.8524 39.2731 50.781 38.9364C50.7097 38.5997 50.7063 38.2522 50.7712 37.9142C51.2115 35.1518 56.9563 37.2579 57.8743 35.2017C58.3313 34.1757 57.783 30.9273 56.5119 30.3748C58.3105 29.5441 65.6504 30.1879 66.0658 36.6057C66.8592 36.6555 67.528 36.5517 68.1428 37.1955C68.6371 37.6982 69.2228 38.9236 68.7825 39.6422C71.4244 39.4179 71.2333 42.6039 71.2997 44.9218L44.37 43.5012Z" fill="#EDE7CA"/>
<path d="M63.3158 36.6015C64.1092 36.6514 64.778 36.5475 65.4136 37.1914C65.9037 37.694 66.4894 38.9194 66.0491 39.638C68.637 39.4179 68.5082 42.471 68.5664 44.7723L71.3412 44.9176C71.2747 42.5998 71.4658 39.4137 68.8239 39.638C69.2642 38.9194 68.6785 37.694 68.1842 37.1914C67.5528 36.5475 66.884 36.6514 66.1073 36.6015C65.7334 30.6947 59.4361 29.7019 57.0559 30.2295C59.7643 30.6573 63.05 32.3687 63.3158 36.6015Z" fill="#D0CBB2"/>
<path d="M69.2975 70.1734C69.2975 71.5649 68.0513 72.4331 66.5268 72.4331H49.3712C47.6224 72.4331 46.5964 71.6605 46.5964 70.1734V68.9272C46.6291 67.7659 47.1194 66.6645 47.9604 65.8631C48.8015 65.0617 49.9253 64.6252 51.0868 64.6487H64.7947C65.9558 64.6252 67.0791 65.0619 67.9195 65.8634C68.7599 66.6649 69.2493 67.7663 69.2809 68.9272L69.2975 70.1734Z" fill="#1B7C7C"/>
<path d="M44.3408 44.685V66.8959C44.3408 68.9064 45.8528 70.5514 47.6972 70.5514H68.2091C70.0535 70.5514 71.5655 68.8898 71.5655 66.8959V44.685H44.3408Z" fill="#45BABD"/>
<path d="M70.5935 47.1151H46.5964V63.7016H70.5935V47.1151Z" fill="#E6E6D5"/>
<g style="mix-blend-mode:soft-light">
<path d="M69.2973 45.387H66.4353V69.2097H69.2973V45.387Z" fill="white"/>
</g>
<g style="mix-blend-mode:soft-light">
<path d="M65.0771 45.387H63.644V69.2097H65.0771V45.387Z" fill="white"/>
</g>
<g style="mix-blend-mode:multiply">
<path d="M50.7544 64.5365V51.0363C50.7544 48.2075 51.7181 46.1638 53.0848 44.685H44.3408V66.8959C44.3408 68.9064 45.8528 70.5514 47.6972 70.5514H68.2091C68.912 70.5314 69.5912 70.2932 70.1525 69.8696C70.7138 69.446 71.1292 68.8582 71.3412 68.1878H54.1066C52.2623 68.1712 50.7544 66.5428 50.7544 64.5365Z" fill="#E6D5DE"/>
</g>
<g style="mix-blend-mode:multiply">
<path d="M47.5559 66.8959V44.685H44.3408V66.8959C44.3408 68.9064 45.8528 70.5514 47.6972 70.5514H50.9289C49.068 70.5514 47.5559 68.9064 47.5559 66.8959Z" fill="#E6D5DE"/>
</g>
<path d="M72.3048 44.1326C72.3308 44.3487 72.271 44.5664 72.1381 44.7388C72.0053 44.9113 71.8101 45.0247 71.5945 45.0547H44.4072C44.1916 45.0247 43.9964 44.9113 43.8636 44.7388C43.7307 44.5664 43.6709 44.3487 43.6969 44.1326C43.6697 43.9158 43.729 43.697 43.862 43.5236C43.9949 43.3502 44.1908 43.2362 44.4072 43.2062H71.5945C71.8109 43.2362 72.0068 43.3502 72.1397 43.5236C72.2727 43.697 72.332 43.9158 72.3048 44.1326Z" fill="#1B7C7C"/>
<g style="mix-blend-mode:multiply">
<path d="M43.7258 44.3693C43.7431 44.5446 43.8203 44.7085 43.9444 44.8334C44.0685 44.9582 44.2319 45.0364 44.4071 45.0547H71.5943C71.7695 45.0364 71.9329 44.9582 72.057 44.8334C72.1812 44.7085 72.2584 44.5446 72.2756 44.3693H43.7258Z" fill="#E6D5DE"/>
</g>
<g style="mix-blend-mode:soft-light">
<path d="M70.552 43.6299C70.5566 43.7097 70.5295 43.7881 70.4766 43.848C70.4237 43.9079 70.3493 43.9444 70.2696 43.9498H50.875C50.7953 43.9444 50.7209 43.9079 50.668 43.848C50.6151 43.7881 50.588 43.7097 50.5926 43.6299C50.5897 43.5901 50.5948 43.5501 50.6075 43.5122C50.6202 43.4743 50.6402 43.4394 50.6665 43.4092C50.6927 43.3791 50.7246 43.3545 50.7604 43.3368C50.7962 43.3191 50.8352 43.3086 50.875 43.3059H70.2696C70.3094 43.3086 70.3484 43.3191 70.3842 43.3368C70.42 43.3545 70.4519 43.3791 70.4781 43.4092C70.5044 43.4394 70.5244 43.4743 70.5371 43.5122C70.5498 43.5501 70.5549 43.5901 70.552 43.6299Z" fill="white"/>
</g>
<path d="M89.8175 51.1693C94.6277 62.1397 88.2141 68.3872 84.9408 69.8244L81.4391 71.3572C75.6236 73.916 68.6119 69.5918 65.2389 61.9403C61.8659 54.2888 63.4403 46.2178 69.2723 43.6632L73.0607 42.0016C74.0618 41.5862 84.4507 38.936 89.8175 51.1693Z" fill="#1B7C7C"/>
<path d="M89.4229 51.3437C92.6962 58.8208 90.6192 66.9292 84.7913 69.4838C78.9634 72.0385 71.5778 68.0673 68.3045 60.6028C65.0312 53.1382 67.104 45.0173 72.9361 42.4627C78.7682 39.908 86.1497 43.8792 89.4229 51.3437Z" fill="#45BABD"/>
<path d="M87.7822 52.0624C90.4116 58.0481 88.6462 64.6071 83.8443 66.7173C79.0424 68.8275 73.0192 65.6747 70.3939 59.6889C67.7687 53.7031 69.5299 47.14 74.3318 45.034C79.1338 42.9279 85.1569 46.0724 87.7822 52.0624Z" stroke="white" stroke-miterlimit="10"/>
<path d="M58.7464 31.7623C58.6733 31.6448 58.5572 31.5605 58.4229 31.5272C58.2886 31.494 58.1466 31.5144 58.0271 31.5842C57.9076 31.6539 57.82 31.7675 57.7829 31.9008C57.7458 32.0341 57.7621 32.1766 57.8284 32.2981C58.1026 32.8755 58.2812 33.4737 58.5263 34.0594C58.842 34.8071 58.3726 35.3761 58.2189 36.0408C58.2094 36.0767 58.2083 36.1143 58.2155 36.1507C58.2227 36.1871 58.2381 36.2214 58.2605 36.251C58.2829 36.2806 58.3117 36.3047 58.3448 36.3216C58.3779 36.3384 58.4144 36.3475 58.4515 36.3482C59.2574 36.2609 59.4111 35.1851 59.4401 34.5329C59.52 33.5582 59.2762 32.5843 58.7464 31.7623Z" fill="#ECEAE2"/>
<path d="M54.954 36.9297C54.5078 36.8466 54.0501 36.8466 53.604 36.9297C53.1544 36.9648 52.7172 37.0935 52.3204 37.3077C52.1405 37.4304 51.9911 37.5928 51.8837 37.7823C51.7763 37.9718 51.7138 38.1833 51.701 38.4008C51.6881 38.6182 51.7253 38.8357 51.8096 39.0365C51.894 39.2373 52.0232 39.4161 52.1875 39.5591C52.2405 39.61 52.3072 39.6444 52.3795 39.6579C52.4518 39.6715 52.5264 39.6637 52.5943 39.6355C52.6622 39.6073 52.7204 39.5599 52.7617 39.4991C52.8031 39.4383 52.8258 39.3668 52.8272 39.2933C52.8272 38.9983 52.5572 38.5622 52.8023 38.3171C53.0473 38.072 53.4586 38.126 53.712 38.1136C54.1595 38.1318 54.6077 38.104 55.0495 38.0305C55.71 37.8477 55.4981 37.0834 54.954 36.9297Z" fill="#ECEAE2"/>
<path d="M51.5727 40.4896C50.0067 39.9122 45.5412 39.8042 45.6451 42.3505C45.6444 42.3836 45.6548 42.4159 45.6744 42.4425C45.6941 42.469 45.722 42.4883 45.7538 42.4974C45.7856 42.5064 45.8195 42.5046 45.8502 42.4923C45.8809 42.48 45.9066 42.4579 45.9234 42.4295C47.2153 40.6059 49.5622 41.1833 51.4564 41.3453C51.9798 41.391 52.0047 40.6516 51.5727 40.4896Z" fill="#ECEAE2"/>
<path d="M63.6274 38.5456C62.996 37.9931 61.9201 37.9516 61.1351 38.1302C60.7756 38.2241 60.4617 38.4436 60.2503 38.7491C59.4714 38.4822 58.6355 38.4277 57.8285 38.5913C56.7901 38.7948 55.5813 40.041 56.4162 41.0836C56.4499 41.1175 56.4909 41.1432 56.536 41.1588C56.5812 41.1743 56.6293 41.1792 56.6767 41.1732C56.724 41.1672 56.7694 41.1504 56.8092 41.124C56.8491 41.0977 56.8823 41.0625 56.9064 41.0213C57.0518 40.7347 57.0559 40.3608 57.2595 40.1033C57.5364 39.8398 57.9032 39.6913 58.2855 39.6879C59.1163 39.609 59.7144 39.9745 60.4497 40.2902C60.9274 40.4979 61.5754 40.041 61.2306 39.5051C61.1868 39.4445 61.1382 39.3875 61.0852 39.3348C61.2282 39.2256 61.4001 39.1606 61.5795 39.1479C62.1018 39.1169 62.6227 39.2274 63.0874 39.4677C63.6066 39.6796 64.0262 38.8945 63.6274 38.5456Z" fill="#ECEAE2"/>
<path d="M119.805 59.2403H98.1421L94.0837 14.2286H122.849L119.805 59.2403Z" fill="#ECEAE2"/>
<path d="M122.854 10.1661H94.0837V14.2286H122.854V10.1661Z" fill="#D0CBB2"/>
<g style="mix-blend-mode:multiply">
<g style="mix-blend-mode:multiply">
<path d="M105.017 50.6126C99.2304 44.0786 98.5658 33.0084 99.1141 24.7255C99.3234 21.0953 100.202 17.5351 101.706 14.2245H94.1003L98.1629 59.2403H119.821L120.208 53.5204C114.795 54.9825 109.137 55.2941 105.017 50.6126Z" fill="#DEE5EA"/>
</g>
<g style="mix-blend-mode:multiply">
<path d="M103.866 10.1661H94.0837V14.2245H101.69C102.328 12.827 103.056 11.4715 103.866 10.1661Z" fill="#DEE5EA"/>
</g>
</g>
<path d="M117.184 72.7778H100.776C98.9147 72.7778 98.1545 71.6771 98.1545 70.4932V59.2403H119.468V70.5763C119.468 71.6771 118.961 72.7778 117.184 72.7778Z" fill="#45BABD"/>
<g style="mix-blend-mode:multiply">
<path d="M108.51 69.9864C106.649 69.9864 105.885 68.8856 105.885 67.7018V59.2403H98.1462V70.4932C98.1462 71.6771 98.9064 72.7778 100.767 72.7778H117.184C118.961 72.7778 119.468 71.6771 119.468 70.5763V69.9864H108.51Z" fill="#DEE5EA"/>
</g>
<path d="M98.1462 69.9864V70.4932C98.1462 71.6771 98.9064 72.7778 100.767 72.7778H117.184C118.961 72.7778 119.468 71.6771 119.468 70.5763V69.9864H98.1462Z" fill="#1B7C7C"/>
<path d="M108.024 69.9864C108.024 69.2285 108.325 68.5016 108.861 67.9656C109.397 67.4296 110.124 67.1285 110.882 67.1285C111.639 67.1296 112.365 67.4312 112.9 67.9671C113.435 68.5029 113.736 69.2292 113.736 69.9864H108.024Z" fill="#1B7C7C"/>
<g style="mix-blend-mode:multiply">
<path d="M95.6497 14.2286H94.6943L95.172 10.8017L95.6497 14.2286Z" fill="#C8D1D6"/>
</g>
<g style="mix-blend-mode:multiply">
<path d="M98.2625 14.2286H97.3071L97.7848 10.8017L98.2625 14.2286Z" fill="#C8D1D6"/>
</g>
<g style="mix-blend-mode:multiply">
<path d="M100.875 14.2286H99.9199L100.398 10.8017L100.875 14.2286Z" fill="#C8D1D6"/>
</g>
<g style="mix-blend-mode:multiply">
<path d="M103.488 14.2286H102.529L103.006 10.8017L103.488 14.2286Z" fill="#C8D1D6"/>
</g>
<g style="mix-blend-mode:multiply">
<path d="M106.101 14.2286H105.141L105.619 10.8017L106.101 14.2286Z" fill="#C8D1D6"/>
</g>
<g style="mix-blend-mode:multiply">
<path d="M108.71 14.2286H107.754L108.232 10.8017L108.71 14.2286Z" fill="#C8D1D6"/>
</g>
<g style="mix-blend-mode:multiply">
<path d="M111.322 14.2286H110.363L110.845 10.8017L111.322 14.2286Z" fill="#C8D1D6"/>
</g>
<g style="mix-blend-mode:multiply">
<path d="M113.935 14.2286H112.976L113.457 10.8017L113.935 14.2286Z" fill="#C8D1D6"/>
</g>
<g style="mix-blend-mode:multiply">
<path d="M116.548 14.2286H115.588L116.066 10.8017L116.548 14.2286Z" fill="#C8D1D6"/>
</g>
<g style="mix-blend-mode:multiply">
<path d="M119.157 14.2286H118.201L118.679 10.8017L119.157 14.2286Z" fill="#C8D1D6"/>
</g>
<g style="mix-blend-mode:multiply">
<path d="M121.769 14.2286H120.814L121.292 10.8017L121.769 14.2286Z" fill="#C8D1D6"/>
</g>
</g>
<g filter="url(#filter0_b_206:37302)">
<rect x="13" y="77" width="141" height="77" rx="10" fill="black" fill-opacity="0.8"/>
</g>
<path d="M59.6838 96H57.7518L57.5278 94.824L57.2898 93.984L55.5258 93.942L53.9718 93.984L53.7338 94.726L53.4958 96H51.6198L54.6718 86.984H56.9258L59.6838 96ZM56.8838 92.514L55.8198 88.762H55.6938L54.4618 92.514L55.6658 92.542L56.8838 92.514ZM63.1149 94.628C63.4136 94.628 63.7262 94.5487 64.0529 94.39L64.2069 94.53L64.0249 95.636C63.5489 95.8787 63.0636 96.028 62.5689 96.084C61.3089 95.9533 60.6789 95.3373 60.6789 94.236L60.7489 93.074L60.7349 90.666H59.8669L59.7969 90.568L59.8949 89.546H60.7209V88.468L62.4149 87.922L62.5409 88.034L62.4989 89.546H64.1649L64.2209 89.644L64.1369 90.666H62.4709L62.3869 93.802C62.3869 94.1007 62.4429 94.3153 62.5549 94.446C62.6669 94.5673 62.8536 94.628 63.1149 94.628ZM65.3394 93.312L65.2694 89.616L67.1034 89.462L67.0194 93.13L67.1034 96H65.2414L65.3394 93.312ZM66.2214 86.298C66.5107 86.298 66.7347 86.382 66.8934 86.55C67.0614 86.718 67.1454 86.9513 67.1454 87.25C67.1454 87.5673 67.0567 87.8193 66.8794 88.006C66.702 88.1927 66.4594 88.286 66.1514 88.286C65.8434 88.286 65.6054 88.202 65.4374 88.034C65.2787 87.866 65.1994 87.628 65.1994 87.32C65.1994 87.012 65.288 86.7647 65.4654 86.578C65.652 86.3913 65.904 86.298 66.2214 86.298ZM71.4958 94.628C71.7944 94.628 72.1071 94.5487 72.4338 94.39L72.5878 94.53L72.4058 95.636C71.9298 95.8787 71.4444 96.028 70.9498 96.084C69.6898 95.9533 69.0598 95.3373 69.0598 94.236L69.1298 93.074L69.1158 90.666H68.2478L68.1778 90.568L68.2758 89.546H69.1018V88.468L70.7958 87.922L70.9218 88.034L70.8798 89.546H72.5458L72.6018 89.644L72.5178 90.666H70.8518L70.7678 93.802C70.7678 94.1007 70.8238 94.3153 70.9358 94.446C71.0478 94.5673 71.2344 94.628 71.4958 94.628ZM79.8102 94.782L79.6422 95.762C79.2969 95.986 78.9422 96.1027 78.5782 96.112C78.3076 96.0653 78.0836 95.958 77.9062 95.79C77.7289 95.622 77.5936 95.3793 77.5002 95.062H77.3742C76.8422 95.5847 76.2916 95.9253 75.7222 96.084C75.0129 96.084 74.4716 95.9253 74.0982 95.608C73.7342 95.2813 73.5569 94.8147 73.5662 94.208L73.5942 92.556L73.5242 89.616L75.3302 89.462L75.2882 93.592C75.2789 93.9187 75.3442 94.166 75.4842 94.334C75.6242 94.502 75.8342 94.586 76.1142 94.586C76.5249 94.586 76.9309 94.404 77.3322 94.04V89.616L79.1102 89.462L78.9842 94.306C78.9842 94.4553 79.0076 94.5627 79.0542 94.628C79.1102 94.6933 79.1942 94.726 79.3062 94.726C79.4089 94.726 79.5349 94.7073 79.6842 94.67L79.8102 94.782ZM86.3407 93.13L86.3827 94.306C86.3827 94.4647 86.4014 94.5767 86.4387 94.642C86.4854 94.698 86.5647 94.726 86.6767 94.726C86.7794 94.726 86.9054 94.7073 87.0547 94.67L87.1807 94.782L87.0267 95.762C86.7094 95.958 86.364 96.0747 85.9907 96.112C85.7014 96.084 85.4587 95.986 85.2627 95.818C85.0667 95.65 84.9314 95.4213 84.8567 95.132H84.7447C84.2874 95.552 83.8207 95.874 83.3447 96.098C82.43 96.098 81.7207 95.8087 81.2167 95.23C80.7127 94.642 80.4607 93.83 80.4607 92.794C80.4607 91.6927 80.75 90.848 81.3287 90.26C81.9074 89.672 82.71 89.378 83.7367 89.378C84.0074 89.378 84.306 89.406 84.6327 89.462L84.6047 86.312L86.4527 86.172L86.3407 93.13ZM83.6107 90.638C82.6774 90.638 82.2107 91.2307 82.2107 92.416C82.2107 93.1533 82.3227 93.7087 82.5467 94.082C82.7707 94.4553 83.0974 94.642 83.5267 94.642C83.9374 94.642 84.3154 94.4507 84.6607 94.068L84.6887 93.298L84.6467 90.89C84.2827 90.722 83.9374 90.638 83.6107 90.638ZM93.3178 92.976L89.5378 93.004C89.6218 94.1707 90.2145 94.754 91.3158 94.754C91.8945 94.754 92.5385 94.5907 93.2478 94.264L93.4018 94.362L93.1218 95.748C92.4125 96.0093 91.7452 96.14 91.1198 96.14C90.0932 96.14 89.2858 95.8413 88.6978 95.244C88.1192 94.6467 87.8298 93.8207 87.8298 92.766C87.8298 91.7207 88.1145 90.8947 88.6838 90.288C89.2532 89.672 90.0232 89.364 90.9938 89.364C91.8245 89.364 92.4638 89.5927 92.9118 90.05C93.3692 90.498 93.5978 91.128 93.5978 91.94C93.5978 92.1547 93.5745 92.4253 93.5278 92.752L93.3178 92.976ZM91.9738 91.73C91.9738 91.3567 91.8898 91.0767 91.7218 90.89C91.5538 90.694 91.3065 90.596 90.9798 90.596C90.6158 90.596 90.3125 90.7173 90.0698 90.96C89.8272 91.1933 89.6638 91.534 89.5798 91.982L91.9458 91.926L91.9738 91.73ZM97.0653 89.378C97.7 89.378 98.2973 89.4853 98.8573 89.7L98.6053 91.072L98.3813 91.142C98.1107 90.9647 97.84 90.8293 97.5693 90.736C97.2987 90.6427 97.0607 90.596 96.8553 90.596C96.6313 90.596 96.454 90.6567 96.3233 90.778C96.1927 90.89 96.1273 91.03 96.1273 91.198C96.1273 91.394 96.2113 91.5527 96.3793 91.674C96.5567 91.7953 96.832 91.9307 97.2053 92.08C97.5787 92.2293 97.8867 92.374 98.1293 92.514C98.372 92.654 98.5773 92.85 98.7453 93.102C98.9227 93.3447 99.0113 93.648 99.0113 94.012C99.0113 94.3853 98.9133 94.7353 98.7173 95.062C98.5307 95.3793 98.2413 95.6407 97.8493 95.846C97.4573 96.042 96.9767 96.14 96.4073 96.14C95.7353 96.14 95.04 96 94.3213 95.72L94.5313 94.264L94.7133 94.152C95.0027 94.3947 95.3247 94.5907 95.6793 94.74C96.034 94.88 96.3467 94.95 96.6173 94.95C96.8693 94.95 97.0653 94.8893 97.2053 94.768C97.3453 94.6373 97.4153 94.4833 97.4153 94.306C97.4153 94.11 97.3267 93.9513 97.1493 93.83C96.9813 93.7087 96.7107 93.5733 96.3373 93.424C95.9547 93.256 95.642 93.1067 95.3993 92.976C95.1567 92.836 94.9467 92.64 94.7693 92.388C94.6013 92.136 94.5173 91.8233 94.5173 91.45C94.5173 90.8433 94.746 90.3487 95.2033 89.966C95.6607 89.574 96.2813 89.378 97.0653 89.378ZM107.806 93.13L107.848 94.306C107.848 94.4647 107.866 94.5767 107.904 94.642C107.95 94.698 108.03 94.726 108.142 94.726C108.244 94.726 108.37 94.7073 108.52 94.67L108.646 94.782L108.492 95.762C108.174 95.958 107.829 96.0747 107.456 96.112C107.166 96.084 106.924 95.986 106.728 95.818C106.532 95.65 106.396 95.4213 106.322 95.132H106.21C105.752 95.552 105.286 95.874 104.81 96.098C103.895 96.098 103.186 95.8087 102.682 95.23C102.178 94.642 101.926 93.83 101.926 92.794C101.926 91.6927 102.215 90.848 102.794 90.26C103.372 89.672 104.175 89.378 105.202 89.378C105.472 89.378 105.771 89.406 106.098 89.462L106.07 86.312L107.918 86.172L107.806 93.13ZM105.076 90.638C104.142 90.638 103.676 91.2307 103.676 92.416C103.676 93.1533 103.788 93.7087 104.012 94.082C104.236 94.4553 104.562 94.642 104.992 94.642C105.402 94.642 105.78 94.4507 106.126 94.068L106.154 93.298L106.112 90.89C105.748 90.722 105.402 90.638 105.076 90.638ZM114.783 92.976L111.003 93.004C111.087 94.1707 111.679 94.754 112.781 94.754C113.359 94.754 114.003 94.5907 114.713 94.264L114.867 94.362L114.587 95.748C113.877 96.0093 113.21 96.14 112.585 96.14C111.558 96.14 110.751 95.8413 110.163 95.244C109.584 94.6467 109.295 93.8207 109.295 92.766C109.295 91.7207 109.579 90.8947 110.149 90.288C110.718 89.672 111.488 89.364 112.459 89.364C113.289 89.364 113.929 89.5927 114.377 90.05C114.834 90.498 115.063 91.128 115.063 91.94C115.063 92.1547 115.039 92.4253 114.993 92.752L114.783 92.976ZM113.439 91.73C113.439 91.3567 113.355 91.0767 113.187 90.89C113.019 90.694 112.771 90.596 112.445 90.596C112.081 90.596 111.777 90.7173 111.535 90.96C111.292 91.1933 111.129 91.534 111.045 91.982L113.411 91.926L113.439 91.73ZM40.4795 105.364C41.1981 105.364 41.7581 105.527 42.1595 105.854C42.5701 106.171 42.7755 106.619 42.7755 107.198C42.7755 107.366 42.7475 107.898 42.6915 108.794C42.6821 109.055 42.6681 109.326 42.6495 109.606C42.6308 109.877 42.6215 110.11 42.6215 110.306C42.6215 110.465 42.6448 110.577 42.6915 110.642C42.7381 110.698 42.8221 110.726 42.9435 110.726C43.0368 110.726 43.1581 110.707 43.3075 110.67L43.4475 110.782L43.2795 111.762C42.9808 111.958 42.6401 112.075 42.2575 112.112C41.9775 112.084 41.7441 111.986 41.5575 111.818C41.3708 111.641 41.2448 111.398 41.1795 111.09H41.0815C40.6148 111.585 40.1341 111.93 39.6395 112.126C38.9675 112.117 38.4401 111.939 38.0575 111.594C37.6748 111.249 37.4835 110.777 37.4835 110.18C37.4835 109.713 37.6001 109.349 37.8335 109.088C38.0761 108.817 38.4401 108.635 38.9255 108.542L41.0675 108.136V107.562C41.0675 106.955 40.7688 106.652 40.1715 106.652C39.8821 106.652 39.5741 106.717 39.2475 106.848C38.9301 106.979 38.5708 107.184 38.1695 107.464L38.0295 107.38L37.8195 106.148C38.2208 105.896 38.6501 105.705 39.1075 105.574C39.5648 105.434 40.0221 105.364 40.4795 105.364ZM39.5695 109.396C39.4201 109.433 39.3081 109.499 39.2335 109.592C39.1681 109.676 39.1355 109.807 39.1355 109.984C39.1355 110.227 39.2008 110.418 39.3315 110.558C39.4621 110.689 39.6441 110.754 39.8775 110.754C40.2415 110.754 40.6241 110.539 41.0255 110.11L41.0535 109.074L39.5695 109.396ZM50.8737 110.782L50.7057 111.762C50.3604 111.986 50.0057 112.103 49.6417 112.112C49.371 112.065 49.147 111.958 48.9697 111.79C48.7924 111.622 48.657 111.379 48.5637 111.062H48.4377C47.9057 111.585 47.355 111.925 46.7857 112.084C46.0764 112.084 45.535 111.925 45.1617 111.608C44.7977 111.281 44.6204 110.815 44.6297 110.208L44.6577 108.556L44.5877 105.616L46.3937 105.462L46.3517 109.592C46.3424 109.919 46.4077 110.166 46.5477 110.334C46.6877 110.502 46.8977 110.586 47.1777 110.586C47.5884 110.586 47.9944 110.404 48.3957 110.04V105.616L50.1737 105.462L50.0477 110.306C50.0477 110.455 50.071 110.563 50.1177 110.628C50.1737 110.693 50.2577 110.726 50.3697 110.726C50.4724 110.726 50.5984 110.707 50.7477 110.67L50.8737 110.782ZM54.6042 110.628C54.9028 110.628 55.2155 110.549 55.5422 110.39L55.6962 110.53L55.5142 111.636C55.0382 111.879 54.5528 112.028 54.0582 112.084C52.7982 111.953 52.1682 111.337 52.1682 110.236L52.2382 109.074L52.2242 106.666H51.3562L51.2862 106.568L51.3842 105.546H52.2102V104.468L53.9042 103.922L54.0302 104.034L53.9882 105.546H55.6542L55.7102 105.644L55.6262 106.666H53.9602L53.8762 109.802C53.8762 110.101 53.9322 110.315 54.0442 110.446C54.1562 110.567 54.3428 110.628 54.6042 110.628ZM59.3089 105.364C60.2609 105.364 60.9889 105.644 61.4929 106.204C61.9969 106.764 62.2489 107.571 62.2489 108.626C62.2489 109.765 61.9783 110.637 61.4369 111.244C60.8956 111.841 60.1163 112.14 59.0989 112.14C58.1469 112.14 57.4189 111.86 56.9149 111.3C56.4109 110.74 56.1589 109.933 56.1589 108.878C56.1589 107.739 56.4296 106.871 56.9709 106.274C57.5123 105.667 58.2916 105.364 59.3089 105.364ZM59.1829 106.624C58.7349 106.624 58.4083 106.773 58.2029 107.072C58.0069 107.371 57.9089 107.851 57.9089 108.514C57.9089 109.373 58.0116 109.984 58.2169 110.348C58.4223 110.712 58.7583 110.894 59.2249 110.894C59.6729 110.894 59.9949 110.749 60.1909 110.46C60.3963 110.161 60.4989 109.676 60.4989 109.004C60.4989 108.155 60.3916 107.548 60.1769 107.184C59.9716 106.811 59.6403 106.624 59.1829 106.624ZM66.9689 105.406C67.7809 105.406 68.4062 105.681 68.8449 106.232C69.2836 106.783 69.5029 107.562 69.5029 108.57C69.5029 109.709 69.2182 110.591 68.6489 111.216C68.0889 111.832 67.2956 112.14 66.2689 112.14C65.9702 112.14 65.6576 112.112 65.3309 112.056L65.3729 114.59H63.5249L63.6229 109.312L63.5389 105.616L65.3169 105.462L65.3029 106.414H65.4009C65.6622 106.162 65.9142 105.961 66.1569 105.812C66.3996 105.653 66.6702 105.518 66.9689 105.406ZM66.2829 110.922C66.7682 110.922 67.1369 110.749 67.3889 110.404C67.6409 110.059 67.7669 109.55 67.7669 108.878C67.7669 108.225 67.6596 107.735 67.4449 107.408C67.2396 107.072 66.9316 106.904 66.5209 106.904C66.1196 106.904 65.7136 107.105 65.3029 107.506L65.2889 109.13L65.3169 110.712C65.6529 110.852 65.9749 110.922 66.2829 110.922ZM74.287 105.476C74.371 105.476 74.4876 105.485 74.637 105.504V107.226L74.441 107.296C74.2823 107.231 74.1096 107.198 73.923 107.198C73.3816 107.198 72.8916 107.548 72.453 108.248V109.13L72.551 112H70.689L70.801 109.312L70.717 105.616L72.481 105.462L72.467 106.736H72.579C73.0363 105.896 73.6056 105.476 74.287 105.476ZM80.5961 108.976L76.8161 109.004C76.9001 110.171 77.4928 110.754 78.5941 110.754C79.1728 110.754 79.8168 110.591 80.5261 110.264L80.6801 110.362L80.4001 111.748C79.6908 112.009 79.0235 112.14 78.3981 112.14C77.3715 112.14 76.5641 111.841 75.9761 111.244C75.3975 110.647 75.1081 109.821 75.1081 108.766C75.1081 107.721 75.3928 106.895 75.9621 106.288C76.5315 105.672 77.3015 105.364 78.2721 105.364C79.1028 105.364 79.7421 105.593 80.1901 106.05C80.6475 106.498 80.8761 107.128 80.8761 107.94C80.8761 108.155 80.8528 108.425 80.8061 108.752L80.5961 108.976ZM79.2521 107.73C79.2521 107.357 79.1681 107.077 79.0001 106.89C78.8321 106.694 78.5848 106.596 78.2581 106.596C77.8941 106.596 77.5908 106.717 77.3481 106.96C77.1055 107.193 76.9421 107.534 76.8581 107.982L79.2241 107.926L79.2521 107.73ZM84.3437 105.378C84.9783 105.378 85.5757 105.485 86.1357 105.7L85.8837 107.072L85.6597 107.142C85.389 106.965 85.1183 106.829 84.8477 106.736C84.577 106.643 84.339 106.596 84.1337 106.596C83.9097 106.596 83.7323 106.657 83.6017 106.778C83.471 106.89 83.4057 107.03 83.4057 107.198C83.4057 107.394 83.4897 107.553 83.6577 107.674C83.835 107.795 84.1103 107.931 84.4837 108.08C84.857 108.229 85.165 108.374 85.4077 108.514C85.6503 108.654 85.8557 108.85 86.0237 109.102C86.201 109.345 86.2897 109.648 86.2897 110.012C86.2897 110.385 86.1917 110.735 85.9957 111.062C85.809 111.379 85.5197 111.641 85.1277 111.846C84.7357 112.042 84.255 112.14 83.6857 112.14C83.0137 112.14 82.3183 112 81.5997 111.72L81.8097 110.264L81.9917 110.152C82.281 110.395 82.603 110.591 82.9577 110.74C83.3123 110.88 83.625 110.95 83.8957 110.95C84.1477 110.95 84.3437 110.889 84.4837 110.768C84.6237 110.637 84.6937 110.483 84.6937 110.306C84.6937 110.11 84.605 109.951 84.4277 109.83C84.2597 109.709 83.989 109.573 83.6157 109.424C83.233 109.256 82.9203 109.107 82.6777 108.976C82.435 108.836 82.225 108.64 82.0477 108.388C81.8797 108.136 81.7957 107.823 81.7957 107.45C81.7957 106.843 82.0243 106.349 82.4817 105.966C82.939 105.574 83.5597 105.378 84.3437 105.378ZM92.5727 108.976L88.7927 109.004C88.8767 110.171 89.4694 110.754 90.5707 110.754C91.1494 110.754 91.7934 110.591 92.5027 110.264L92.6567 110.362L92.3767 111.748C91.6674 112.009 91 112.14 90.3747 112.14C89.348 112.14 88.5407 111.841 87.9527 111.244C87.374 110.647 87.0847 109.821 87.0847 108.766C87.0847 107.721 87.3694 106.895 87.9387 106.288C88.508 105.672 89.278 105.364 90.2487 105.364C91.0794 105.364 91.7187 105.593 92.1667 106.05C92.624 106.498 92.8527 107.128 92.8527 107.94C92.8527 108.155 92.8294 108.425 92.7827 108.752L92.5727 108.976ZM91.2287 107.73C91.2287 107.357 91.1447 107.077 90.9767 106.89C90.8087 106.694 90.5614 106.596 90.2347 106.596C89.8707 106.596 89.5674 106.717 89.3247 106.96C89.082 107.193 88.9187 107.534 88.8347 107.982L91.2007 107.926L91.2287 107.73ZM97.7342 105.476C97.8182 105.476 97.9349 105.485 98.0842 105.504V107.226L97.8882 107.296C97.7296 107.231 97.5569 107.198 97.3702 107.198C96.8289 107.198 96.3389 107.548 95.9002 108.248V109.13L95.9982 112H94.1362L94.2482 109.312L94.1642 105.616L95.9282 105.462L95.9142 106.736H96.0262C96.4836 105.896 97.0529 105.476 97.7342 105.476ZM100.303 106.526L101.283 110.25H101.381L102.557 106.624L102.795 105.49H104.419L102.235 112H100.233L98.3854 105.532L100.121 105.448L100.303 106.526ZM107.704 105.364C108.423 105.364 108.983 105.527 109.384 105.854C109.795 106.171 110 106.619 110 107.198C110 107.366 109.972 107.898 109.916 108.794C109.907 109.055 109.893 109.326 109.874 109.606C109.855 109.877 109.846 110.11 109.846 110.306C109.846 110.465 109.869 110.577 109.916 110.642C109.963 110.698 110.047 110.726 110.168 110.726C110.261 110.726 110.383 110.707 110.532 110.67L110.672 110.782L110.504 111.762C110.205 111.958 109.865 112.075 109.482 112.112C109.202 112.084 108.969 111.986 108.782 111.818C108.595 111.641 108.469 111.398 108.404 111.09H108.306C107.839 111.585 107.359 111.93 106.864 112.126C106.192 112.117 105.665 111.939 105.282 111.594C104.899 111.249 104.708 110.777 104.708 110.18C104.708 109.713 104.825 109.349 105.058 109.088C105.301 108.817 105.665 108.635 106.15 108.542L108.292 108.136V107.562C108.292 106.955 107.993 106.652 107.396 106.652C107.107 106.652 106.799 106.717 106.472 106.848C106.155 106.979 105.795 107.184 105.394 107.464L105.254 107.38L105.044 106.148C105.445 105.896 105.875 105.705 106.332 105.574C106.789 105.434 107.247 105.364 107.704 105.364ZM106.794 109.396C106.645 109.433 106.533 109.499 106.458 109.592C106.393 109.676 106.36 109.807 106.36 109.984C106.36 110.227 106.425 110.418 106.556 110.558C106.687 110.689 106.869 110.754 107.102 110.754C107.466 110.754 107.849 110.539 108.25 110.11L108.278 109.074L106.794 109.396ZM114.556 105.364C114.864 105.364 115.168 105.397 115.466 105.462C115.774 105.518 116.045 105.602 116.278 105.714L115.97 107.198L115.816 107.268C115.34 107.007 114.916 106.876 114.542 106.876C114.113 106.876 113.782 107.03 113.548 107.338C113.315 107.646 113.198 108.085 113.198 108.654C113.198 109.307 113.324 109.807 113.576 110.152C113.828 110.497 114.188 110.67 114.654 110.67C115.074 110.67 115.541 110.553 116.054 110.32L116.194 110.432L116.012 111.874C115.452 112.051 114.878 112.14 114.29 112.14C113.394 112.14 112.694 111.851 112.19 111.272C111.686 110.684 111.434 109.867 111.434 108.822C111.434 107.739 111.71 106.895 112.26 106.288C112.811 105.672 113.576 105.364 114.556 105.364ZM114.542 112.672L115.018 112.938C115.224 113.05 115.368 113.171 115.452 113.302C115.546 113.442 115.592 113.596 115.592 113.764C115.592 114.072 115.471 114.324 115.228 114.52C114.986 114.716 114.668 114.814 114.276 114.814C113.856 114.814 113.474 114.683 113.128 114.422L113.254 113.638L113.338 113.596C113.618 113.876 113.894 114.016 114.164 114.016C114.388 114.016 114.5 113.918 114.5 113.722C114.5 113.657 114.482 113.601 114.444 113.554C114.407 113.517 114.346 113.479 114.262 113.442L113.576 113.05L113.898 111.636H114.794L114.542 112.672ZM119.694 105.364C120.413 105.364 120.973 105.527 121.374 105.854C121.785 106.171 121.99 106.619 121.99 107.198C121.99 107.366 121.962 107.898 121.906 108.794C121.897 109.055 121.883 109.326 121.864 109.606C121.846 109.877 121.836 110.11 121.836 110.306C121.836 110.465 121.86 110.577 121.906 110.642C121.953 110.698 122.037 110.726 122.158 110.726C122.252 110.726 122.373 110.707 122.522 110.67L122.662 110.782L122.494 111.762C122.196 111.958 121.855 112.075 121.472 112.112C121.192 112.084 120.959 111.986 120.772 111.818C120.586 111.641 120.46 111.398 120.394 111.09H120.296C119.83 111.585 119.349 111.93 118.854 112.126C118.182 112.117 117.655 111.939 117.272 111.594C116.89 111.249 116.698 110.777 116.698 110.18C116.698 109.713 116.815 109.349 117.048 109.088C117.291 108.817 117.655 108.635 118.14 108.542L120.282 108.136V107.562C120.282 106.955 119.984 106.652 119.386 106.652C119.097 106.652 118.789 106.717 118.462 106.848C118.145 106.979 117.786 107.184 117.384 107.464L117.244 107.38L117.034 106.148C117.436 105.896 117.865 105.705 118.322 105.574C118.78 105.434 119.237 105.364 119.694 105.364ZM118.784 109.396C118.635 109.433 118.523 109.499 118.448 109.592C118.383 109.676 118.35 109.807 118.35 109.984C118.35 110.227 118.416 110.418 118.546 110.558C118.677 110.689 118.859 110.754 119.092 110.754C119.456 110.754 119.839 110.539 120.24 110.11L120.268 109.074L118.784 109.396ZM121.99 102.732V102.886L121.01 104.132L120.828 104.202C120.576 104.174 120.189 104.085 119.666 103.936C119.62 103.927 119.466 103.889 119.204 103.824C118.952 103.749 118.775 103.712 118.672 103.712C118.57 103.712 118.467 103.754 118.364 103.838C118.271 103.922 118.168 104.025 118.056 104.146C117.944 104.267 117.86 104.361 117.804 104.426H117.636L117.076 103.88V103.726L118.07 102.48L118.238 102.41C118.462 102.438 118.859 102.531 119.428 102.69C119.951 102.83 120.273 102.9 120.394 102.9C120.506 102.9 120.614 102.853 120.716 102.76C120.828 102.667 120.94 102.559 121.052 102.438C121.164 102.317 121.239 102.233 121.276 102.186H121.444L121.99 102.732ZM126.575 105.364C127.527 105.364 128.255 105.644 128.759 106.204C129.263 106.764 129.515 107.571 129.515 108.626C129.515 109.765 129.244 110.637 128.703 111.244C128.161 111.841 127.382 112.14 126.365 112.14C125.413 112.14 124.685 111.86 124.181 111.3C123.677 110.74 123.425 109.933 123.425 108.878C123.425 107.739 123.695 106.871 124.237 106.274C124.778 105.667 125.557 105.364 126.575 105.364ZM126.449 106.624C126.001 106.624 125.674 106.773 125.469 107.072C125.273 107.371 125.175 107.851 125.175 108.514C125.175 109.373 125.277 109.984 125.483 110.348C125.688 110.712 126.024 110.894 126.491 110.894C126.939 110.894 127.261 110.749 127.457 110.46C127.662 110.161 127.765 109.676 127.765 109.004C127.765 108.155 127.657 107.548 127.443 107.184C127.237 106.811 126.906 106.624 126.449 106.624ZM25.7469 118.144C26.1295 118.144 26.5355 118.186 26.9649 118.27L26.8389 119.656L26.7129 119.74C26.2742 119.553 25.8915 119.46 25.5649 119.46C24.9862 119.46 24.6922 119.791 24.6829 120.454L24.6689 121.546H26.2509L26.3069 121.644L26.2229 122.666H24.6409L24.5989 125.13L24.6969 128H22.8349L22.9469 125.298L22.9189 122.666H21.9389L21.8689 122.568L21.9669 121.546H22.9049L22.8909 120.776C22.8909 119.936 23.1382 119.287 23.6329 118.83C24.1369 118.373 24.8415 118.144 25.7469 118.144ZM29.4463 121.364C30.1649 121.364 30.7249 121.527 31.1263 121.854C31.5369 122.171 31.7423 122.619 31.7423 123.198C31.7423 123.366 31.7143 123.898 31.6583 124.794C31.6489 125.055 31.6349 125.326 31.6163 125.606C31.5976 125.877 31.5883 126.11 31.5883 126.306C31.5883 126.465 31.6116 126.577 31.6583 126.642C31.7049 126.698 31.7889 126.726 31.9103 126.726C32.0036 126.726 32.1249 126.707 32.2743 126.67L32.4143 126.782L32.2463 127.762C31.9476 127.958 31.6069 128.075 31.2243 128.112C30.9443 128.084 30.7109 127.986 30.5243 127.818C30.3376 127.641 30.2116 127.398 30.1463 127.09H30.0483C29.5816 127.585 29.1009 127.93 28.6063 128.126C27.9343 128.117 27.4069 127.939 27.0243 127.594C26.6416 127.249 26.4503 126.777 26.4503 126.18C26.4503 125.713 26.5669 125.349 26.8003 125.088C27.0429 124.817 27.4069 124.635 27.8923 124.542L30.0343 124.136V123.562C30.0343 122.955 29.7356 122.652 29.1383 122.652C28.8489 122.652 28.5409 122.717 28.2143 122.848C27.8969 122.979 27.5376 123.184 27.1363 123.464L26.9963 123.38L26.7863 122.148C27.1876 121.896 27.6169 121.705 28.0743 121.574C28.5316 121.434 28.9889 121.364 29.4463 121.364ZM28.5363 125.396C28.3869 125.433 28.2749 125.499 28.2003 125.592C28.1349 125.676 28.1023 125.807 28.1023 125.984C28.1023 126.227 28.1676 126.418 28.2983 126.558C28.4289 126.689 28.6109 126.754 28.8443 126.754C29.2083 126.754 29.5909 126.539 29.9923 126.11L30.0203 125.074L28.5363 125.396ZM36.2985 121.364C36.6065 121.364 36.9098 121.397 37.2085 121.462C37.5165 121.518 37.7872 121.602 38.0205 121.714L37.7125 123.198L37.5585 123.268C37.0825 123.007 36.6578 122.876 36.2845 122.876C35.8552 122.876 35.5238 123.03 35.2905 123.338C35.0572 123.646 34.9405 124.085 34.9405 124.654C34.9405 125.307 35.0665 125.807 35.3185 126.152C35.5705 126.497 35.9298 126.67 36.3965 126.67C36.8165 126.67 37.2832 126.553 37.7965 126.32L37.9365 126.432L37.7545 127.874C37.1945 128.051 36.6205 128.14 36.0325 128.14C35.1365 128.14 34.4365 127.851 33.9325 127.272C33.4285 126.684 33.1765 125.867 33.1765 124.822C33.1765 123.739 33.4518 122.895 34.0025 122.288C34.5532 121.672 35.3185 121.364 36.2985 121.364ZM39.1372 125.312L39.0672 121.616L40.9012 121.462L40.8172 125.13L40.9012 128H39.0392L39.1372 125.312ZM40.0192 118.298C40.3086 118.298 40.5326 118.382 40.6912 118.55C40.8592 118.718 40.9432 118.951 40.9432 119.25C40.9432 119.567 40.8546 119.819 40.6772 120.006C40.4999 120.193 40.2572 120.286 39.9492 120.286C39.6412 120.286 39.4032 120.202 39.2352 120.034C39.0766 119.866 38.9972 119.628 38.9972 119.32C38.9972 119.012 39.0859 118.765 39.2632 118.578C39.4499 118.391 39.7019 118.298 40.0192 118.298ZM44.4816 125.13L44.5796 128H42.7176L42.8156 125.298L42.7316 118.312L44.5936 118.172L44.4816 125.13ZM46.4654 125.312L46.3954 121.616L48.2294 121.462L48.1454 125.13L48.2294 128H46.3674L46.4654 125.312ZM47.3474 118.298C47.6367 118.298 47.8607 118.382 48.0194 118.55C48.1874 118.718 48.2714 118.951 48.2714 119.25C48.2714 119.567 48.1827 119.819 48.0054 120.006C47.828 120.193 47.5854 120.286 47.2774 120.286C46.9694 120.286 46.7314 120.202 46.5634 120.034C46.4047 119.866 46.3254 119.628 46.3254 119.32C46.3254 119.012 46.414 118.765 46.5914 118.578C46.778 118.391 47.03 118.298 47.3474 118.298ZM52.6217 126.628C52.9204 126.628 53.2331 126.549 53.5597 126.39L53.7137 126.53L53.5317 127.636C53.0557 127.879 52.5704 128.028 52.0757 128.084C50.8157 127.953 50.1857 127.337 50.1857 126.236L50.2557 125.074L50.2417 122.666H49.3737L49.3037 122.568L49.4017 121.546H50.2277V120.468L51.9217 119.922L52.0477 120.034L52.0057 121.546H53.6717L53.7277 121.644L53.6437 122.666H51.9777L51.8937 125.802C51.8937 126.101 51.9497 126.315 52.0617 126.446C52.1737 126.567 52.3604 126.628 52.6217 126.628ZM57.2822 121.364C58.0009 121.364 58.5609 121.527 58.9622 121.854C59.3729 122.171 59.5782 122.619 59.5782 123.198C59.5782 123.366 59.5502 123.898 59.4942 124.794C59.4849 125.055 59.4709 125.326 59.4522 125.606C59.4335 125.877 59.4242 126.11 59.4242 126.306C59.4242 126.465 59.4475 126.577 59.4942 126.642C59.5409 126.698 59.6249 126.726 59.7462 126.726C59.8395 126.726 59.9609 126.707 60.1102 126.67L60.2502 126.782L60.0822 127.762C59.7835 127.958 59.4429 128.075 59.0602 128.112C58.7802 128.084 58.5469 127.986 58.3602 127.818C58.1735 127.641 58.0475 127.398 57.9822 127.09H57.8842C57.4175 127.585 56.9369 127.93 56.4422 128.126C55.7702 128.117 55.2429 127.939 54.8602 127.594C54.4775 127.249 54.2862 126.777 54.2862 126.18C54.2862 125.713 54.4029 125.349 54.6362 125.088C54.8789 124.817 55.2429 124.635 55.7282 124.542L57.8702 124.136V123.562C57.8702 122.955 57.5715 122.652 56.9742 122.652C56.6849 122.652 56.3769 122.717 56.0502 122.848C55.7329 122.979 55.3735 123.184 54.9722 123.464L54.8322 123.38L54.6222 122.148C55.0235 121.896 55.4529 121.705 55.9102 121.574C56.3675 121.434 56.8249 121.364 57.2822 121.364ZM56.3722 125.396C56.2229 125.433 56.1109 125.499 56.0362 125.592C55.9709 125.676 55.9382 125.807 55.9382 125.984C55.9382 126.227 56.0035 126.418 56.1342 126.558C56.2649 126.689 56.4469 126.754 56.6802 126.754C57.0442 126.754 57.4269 126.539 57.8282 126.11L57.8562 125.074L56.3722 125.396ZM69.1764 128L69.2884 123.94C69.2884 123.249 68.9944 122.904 68.4064 122.904C67.9864 122.904 67.5477 123.091 67.0904 123.464L67.0484 125.144L67.1324 128H65.2704L65.3824 123.94C65.3917 123.604 65.3171 123.347 65.1584 123.17C65.0091 122.993 64.7897 122.904 64.5004 122.904C64.0897 122.904 63.6371 123.1 63.1424 123.492V125.13L63.2264 128H61.3784L61.4764 125.312L61.4064 121.616L63.1564 121.462V122.414H63.2544C63.7677 121.947 64.3324 121.611 64.9484 121.406C65.9937 121.406 66.6611 121.756 66.9504 122.456H67.0344C67.5664 121.961 68.1731 121.611 68.8544 121.406C69.5637 121.406 70.1004 121.569 70.4644 121.896C70.8377 122.213 71.0151 122.675 70.9964 123.282L70.9544 125.144L71.0384 128H69.1764ZM77.4925 121.364C78.4445 121.364 79.1725 121.644 79.6765 122.204C80.1805 122.764 80.4325 123.571 80.4325 124.626C80.4325 125.765 80.1619 126.637 79.6205 127.244C79.0792 127.841 78.2999 128.14 77.2825 128.14C76.3305 128.14 75.6025 127.86 75.0985 127.3C74.5945 126.74 74.3425 125.933 74.3425 124.878C74.3425 123.739 74.6132 122.871 75.1545 122.274C75.6959 121.667 76.4752 121.364 77.4925 121.364ZM77.3665 122.624C76.9185 122.624 76.5919 122.773 76.3865 123.072C76.1905 123.371 76.0925 123.851 76.0925 124.514C76.0925 125.373 76.1952 125.984 76.4005 126.348C76.6059 126.712 76.9419 126.894 77.4085 126.894C77.8565 126.894 78.1785 126.749 78.3745 126.46C78.5799 126.161 78.6825 125.676 78.6825 125.004C78.6825 124.155 78.5752 123.548 78.3605 123.184C78.1552 122.811 77.8239 122.624 77.3665 122.624ZM86.5016 121.364C86.8096 121.364 87.113 121.397 87.4116 121.462C87.7196 121.518 87.9903 121.602 88.2236 121.714L87.9156 123.198L87.7616 123.268C87.2856 123.007 86.861 122.876 86.4876 122.876C86.0583 122.876 85.727 123.03 85.4936 123.338C85.2603 123.646 85.1436 124.085 85.1436 124.654C85.1436 125.307 85.2696 125.807 85.5216 126.152C85.7736 126.497 86.133 126.67 86.5996 126.67C87.0196 126.67 87.4863 126.553 87.9996 126.32L88.1396 126.432L87.9576 127.874C87.3976 128.051 86.8236 128.14 86.2356 128.14C85.3396 128.14 84.6396 127.851 84.1356 127.272C83.6316 126.684 83.3796 125.867 83.3796 124.822C83.3796 123.739 83.655 122.895 84.2056 122.288C84.7563 121.672 85.5216 121.364 86.5016 121.364ZM91.9164 121.364C92.8684 121.364 93.5964 121.644 94.1004 122.204C94.6044 122.764 94.8564 123.571 94.8564 124.626C94.8564 125.765 94.5857 126.637 94.0444 127.244C93.503 127.841 92.7237 128.14 91.7064 128.14C90.7544 128.14 90.0264 127.86 89.5224 127.3C89.0184 126.74 88.7664 125.933 88.7664 124.878C88.7664 123.739 89.037 122.871 89.5784 122.274C90.1197 121.667 90.899 121.364 91.9164 121.364ZM91.7904 122.624C91.3424 122.624 91.0157 122.773 90.8104 123.072C90.6144 123.371 90.5164 123.851 90.5164 124.514C90.5164 125.373 90.619 125.984 90.8244 126.348C91.0297 126.712 91.3657 126.894 91.8324 126.894C92.2804 126.894 92.6024 126.749 92.7984 126.46C93.0037 126.161 93.1064 125.676 93.1064 125.004C93.1064 124.155 92.999 123.548 92.7844 123.184C92.579 122.811 92.2477 122.624 91.7904 122.624ZM100.054 123.94C100.064 123.613 99.989 123.361 99.8303 123.184C99.681 122.997 99.4616 122.904 99.1723 122.904C98.7523 122.904 98.3043 123.105 97.8283 123.506V125.13L97.9123 128H96.0503L96.1483 125.312L96.0783 121.616L97.8423 121.462V122.414H97.9403C98.4536 121.947 99.0136 121.611 99.6203 121.406C100.33 121.406 100.871 121.569 101.244 121.896C101.618 122.213 101.795 122.675 101.776 123.282L101.734 125.144L101.818 128H99.9423L100.054 123.94ZM106.092 126.628C106.391 126.628 106.704 126.549 107.03 126.39L107.184 126.53L107.002 127.636C106.526 127.879 106.041 128.028 105.546 128.084C104.286 127.953 103.656 127.337 103.656 126.236L103.726 125.074L103.712 122.666H102.844L102.774 122.568L102.872 121.546H103.698V120.468L105.392 119.922L105.518 120.034L105.476 121.546H107.142L107.198 121.644L107.114 122.666H105.448L105.364 125.802C105.364 126.101 105.42 126.315 105.532 126.446C105.644 126.567 105.831 126.628 106.092 126.628ZM111.789 121.476C111.873 121.476 111.99 121.485 112.139 121.504V123.226L111.943 123.296C111.784 123.231 111.612 123.198 111.425 123.198C110.884 123.198 110.394 123.548 109.955 124.248V125.13L110.053 128H108.191L108.303 125.312L108.219 121.616L109.983 121.462L109.969 122.736H110.081C110.538 121.896 111.108 121.476 111.789 121.476ZM115.76 121.364C116.712 121.364 117.44 121.644 117.944 122.204C118.448 122.764 118.7 123.571 118.7 124.626C118.7 125.765 118.429 126.637 117.888 127.244C117.347 127.841 116.567 128.14 115.55 128.14C114.598 128.14 113.87 127.86 113.366 127.3C112.862 126.74 112.61 125.933 112.61 124.878C112.61 123.739 112.881 122.871 113.422 122.274C113.963 121.667 114.743 121.364 115.76 121.364ZM115.634 122.624C115.186 122.624 114.859 122.773 114.654 123.072C114.458 123.371 114.36 123.851 114.36 124.514C114.36 125.373 114.463 125.984 114.668 126.348C114.873 126.712 115.209 126.894 115.676 126.894C116.124 126.894 116.446 126.749 116.642 126.46C116.847 126.161 116.95 125.676 116.95 125.004C116.95 124.155 116.843 123.548 116.628 123.184C116.423 122.811 116.091 122.624 115.634 122.624ZM121.796 125.13L121.894 128H120.032L120.13 125.298L120.046 118.312L121.908 118.172L121.796 125.13ZM128.694 124.976L124.914 125.004C124.998 126.171 125.59 126.754 126.692 126.754C127.27 126.754 127.914 126.591 128.624 126.264L128.778 126.362L128.498 127.748C127.788 128.009 127.121 128.14 126.496 128.14C125.469 128.14 124.662 127.841 124.074 127.244C123.495 126.647 123.206 125.821 123.206 124.766C123.206 123.721 123.49 122.895 124.06 122.288C124.629 121.672 125.399 121.364 126.37 121.364C127.2 121.364 127.84 121.593 128.288 122.05C128.745 122.498 128.974 123.128 128.974 123.94C128.974 124.155 128.95 124.425 128.904 124.752L128.694 124.976ZM127.35 123.73C127.35 123.357 127.266 123.077 127.098 122.89C126.93 122.694 126.682 122.596 126.356 122.596C125.992 122.596 125.688 122.717 125.446 122.96C125.203 123.193 125.04 123.534 124.956 123.982L127.322 123.926L127.35 123.73ZM137.808 125.13L137.85 126.306C137.85 126.465 137.869 126.577 137.906 126.642C137.953 126.698 138.032 126.726 138.144 126.726C138.247 126.726 138.373 126.707 138.522 126.67L138.648 126.782L138.494 127.762C138.177 127.958 137.832 128.075 137.458 128.112C137.169 128.084 136.926 127.986 136.73 127.818C136.534 127.65 136.399 127.421 136.324 127.132H136.212C135.755 127.552 135.288 127.874 134.812 128.098C133.898 128.098 133.188 127.809 132.684 127.23C132.18 126.642 131.928 125.83 131.928 124.794C131.928 123.693 132.218 122.848 132.796 122.26C133.375 121.672 134.178 121.378 135.204 121.378C135.475 121.378 135.774 121.406 136.1 121.462L136.072 118.312L137.92 118.172L137.808 125.13ZM135.078 122.638C134.145 122.638 133.678 123.231 133.678 124.416C133.678 125.153 133.79 125.709 134.014 126.082C134.238 126.455 134.565 126.642 134.994 126.642C135.405 126.642 135.783 126.451 136.128 126.068L136.156 125.298L136.114 122.89C135.75 122.722 135.405 122.638 135.078 122.638ZM144.786 124.976L141.006 125.004C141.09 126.171 141.682 126.754 142.784 126.754C143.362 126.754 144.006 126.591 144.716 126.264L144.87 126.362L144.59 127.748C143.88 128.009 143.213 128.14 142.588 128.14C141.561 128.14 140.754 127.841 140.166 127.244C139.587 126.647 139.298 125.821 139.298 124.766C139.298 123.721 139.582 122.895 140.152 122.288C140.721 121.672 141.491 121.364 142.462 121.364C143.292 121.364 143.932 121.593 144.38 122.05C144.837 122.498 145.066 123.128 145.066 123.94C145.066 124.155 145.042 124.425 144.996 124.752L144.786 124.976ZM143.442 123.73C143.442 123.357 143.358 123.077 143.19 122.89C143.022 122.694 142.774 122.596 142.448 122.596C142.084 122.596 141.78 122.717 141.538 122.96C141.295 123.193 141.132 123.534 141.048 123.982L143.414 123.926L143.442 123.73ZM63.9245 138.372C63.6725 138.437 63.3132 138.507 62.8465 138.582L62.8185 138.638C62.9585 138.918 63.0285 139.231 63.0285 139.576C63.0285 140.276 62.7718 140.836 62.2585 141.256C61.7545 141.667 61.0685 141.872 60.2005 141.872C59.9392 141.872 59.6685 141.849 59.3885 141.802C59.3045 141.886 59.2485 141.951 59.2205 141.998C59.1925 142.045 59.1785 142.101 59.1785 142.166C59.1785 142.334 59.2905 142.451 59.5145 142.516C59.7385 142.581 60.0932 142.647 60.5785 142.712C61.1292 142.777 61.5865 142.857 61.9505 142.95C62.3238 143.043 62.6412 143.207 62.9025 143.44C63.1732 143.673 63.3085 144.005 63.3085 144.434C63.3085 144.873 63.1685 145.265 62.8885 145.61C62.6178 145.965 62.2398 146.24 61.7545 146.436C61.2692 146.632 60.7185 146.73 60.1025 146.73C59.2532 146.73 58.5998 146.557 58.1425 146.212C57.6852 145.867 57.4565 145.409 57.4565 144.84C57.7458 144.439 58.1332 144.089 58.6185 143.79V143.72C58.3012 143.608 58.0538 143.454 57.8765 143.258C57.6992 143.053 57.6105 142.782 57.6105 142.446C57.8625 142.138 58.1798 141.853 58.5625 141.592V141.522C58.2265 141.335 57.9698 141.093 57.7925 140.794C57.6245 140.486 57.5405 140.127 57.5405 139.716C57.5405 138.988 57.7925 138.419 58.2965 138.008C58.8005 137.597 59.4865 137.392 60.3545 137.392C60.8585 137.392 61.3158 137.476 61.7265 137.644C62.3985 137.523 63.0845 137.336 63.7845 137.084L63.9245 137.21V138.372ZM60.2565 140.752C60.6392 140.752 60.9285 140.654 61.1245 140.458C61.3205 140.262 61.4185 139.977 61.4185 139.604C61.4185 138.895 61.0545 138.54 60.3265 138.54C59.5425 138.54 59.1505 138.899 59.1505 139.618C59.1505 139.991 59.2438 140.276 59.4305 140.472C59.6172 140.659 59.8925 140.752 60.2565 140.752ZM61.7405 144.77C61.7405 144.518 61.6052 144.345 61.3345 144.252C61.0732 144.159 60.6672 144.079 60.1165 144.014L59.6405 143.944C59.4165 144.093 59.2485 144.238 59.1365 144.378C59.0245 144.518 58.9685 144.667 58.9685 144.826C58.9685 145.069 59.0805 145.265 59.3045 145.414C59.5285 145.563 59.8552 145.638 60.2845 145.638C60.7232 145.638 61.0732 145.559 61.3345 145.4C61.6052 145.251 61.7405 145.041 61.7405 144.77ZM66.4865 141.13L66.5845 144H64.7225L64.8205 141.298L64.7365 134.312L66.5985 134.172L66.4865 141.13ZM68.4702 141.312L68.4002 137.616L70.2342 137.462L70.1502 141.13L70.2342 144H68.3722L68.4702 141.312ZM69.3522 134.298C69.6416 134.298 69.8656 134.382 70.0242 134.55C70.1922 134.718 70.2762 134.951 70.2762 135.25C70.2762 135.567 70.1876 135.819 70.0102 136.006C69.8329 136.193 69.5902 136.286 69.2822 136.286C68.9742 136.286 68.7362 136.202 68.5682 136.034C68.4096 135.866 68.3302 135.628 68.3302 135.32C68.3302 135.012 68.4189 134.765 68.5962 134.578C68.7829 134.391 69.0349 134.298 69.3522 134.298ZM74.6686 137.364C74.9766 137.364 75.28 137.397 75.5786 137.462C75.8866 137.518 76.1573 137.602 76.3906 137.714L76.0826 139.198L75.9286 139.268C75.4526 139.007 75.028 138.876 74.6546 138.876C74.2253 138.876 73.894 139.03 73.6606 139.338C73.4273 139.646 73.3106 140.085 73.3106 140.654C73.3106 141.307 73.4366 141.807 73.6886 142.152C73.9406 142.497 74.3 142.67 74.7666 142.67C75.1866 142.67 75.6533 142.553 76.1666 142.32L76.3066 142.432L76.1246 143.874C75.5646 144.051 74.9906 144.14 74.4026 144.14C73.5066 144.14 72.8066 143.851 72.3026 143.272C71.7986 142.684 71.5466 141.867 71.5466 140.822C71.5466 139.739 71.822 138.895 72.3726 138.288C72.9233 137.672 73.6886 137.364 74.6686 137.364ZM82.4213 140.976L78.6413 141.004C78.7253 142.171 79.318 142.754 80.4193 142.754C80.998 142.754 81.642 142.591 82.3513 142.264L82.5053 142.362L82.2253 143.748C81.516 144.009 80.8487 144.14 80.2233 144.14C79.1967 144.14 78.3893 143.841 77.8013 143.244C77.2227 142.647 76.9333 141.821 76.9333 140.766C76.9333 139.721 77.218 138.895 77.7873 138.288C78.3567 137.672 79.1267 137.364 80.0973 137.364C80.928 137.364 81.5673 137.593 82.0153 138.05C82.4727 138.498 82.7013 139.128 82.7013 139.94C82.7013 140.155 82.678 140.425 82.6313 140.752L82.4213 140.976ZM81.0773 139.73C81.0773 139.357 80.9933 139.077 80.8253 138.89C80.6573 138.694 80.41 138.596 80.0833 138.596C79.7193 138.596 79.416 138.717 79.1733 138.96C78.9307 139.193 78.7673 139.534 78.6833 139.982L81.0493 139.926L81.0773 139.73ZM91.7829 144L91.8949 139.94C91.8949 139.249 91.6009 138.904 91.0129 138.904C90.5929 138.904 90.1542 139.091 89.6969 139.464L89.6549 141.144L89.7389 144H87.8769L87.9889 139.94C87.9982 139.604 87.9235 139.347 87.7649 139.17C87.6155 138.993 87.3962 138.904 87.1069 138.904C86.6962 138.904 86.2435 139.1 85.7489 139.492V141.13L85.8329 144H83.9849L84.0829 141.312L84.0129 137.616L85.7629 137.462V138.414H85.8609C86.3742 137.947 86.9389 137.611 87.5549 137.406C88.6002 137.406 89.2675 137.756 89.5569 138.456H89.6409C90.1729 137.961 90.7795 137.611 91.4609 137.406C92.1702 137.406 92.7069 137.569 93.0709 137.896C93.4442 138.213 93.6215 138.675 93.6029 139.282L93.5609 141.144L93.6449 144H91.7829ZM95.4038 141.312L95.3338 137.616L97.1678 137.462L97.0838 141.13L97.1678 144H95.3058L95.4038 141.312ZM96.2858 134.298C96.5752 134.298 96.7992 134.382 96.9578 134.55C97.1258 134.718 97.2098 134.951 97.2098 135.25C97.2098 135.567 97.1212 135.819 96.9438 136.006C96.7665 136.193 96.5238 136.286 96.2158 136.286C95.9078 136.286 95.6698 136.202 95.5018 136.034C95.3432 135.866 95.2638 135.628 95.2638 135.32C95.2638 135.012 95.3525 134.765 95.5298 134.578C95.7165 134.391 95.9685 134.298 96.2858 134.298ZM101.49 137.364C102.209 137.364 102.769 137.527 103.17 137.854C103.581 138.171 103.786 138.619 103.786 139.198C103.786 139.366 103.758 139.898 103.702 140.794C103.693 141.055 103.679 141.326 103.66 141.606C103.642 141.877 103.632 142.11 103.632 142.306C103.632 142.465 103.656 142.577 103.702 142.642C103.749 142.698 103.833 142.726 103.954 142.726C104.048 142.726 104.169 142.707 104.318 142.67L104.458 142.782L104.29 143.762C103.992 143.958 103.651 144.075 103.268 144.112C102.988 144.084 102.755 143.986 102.568 143.818C102.382 143.641 102.256 143.398 102.19 143.09H102.092C101.626 143.585 101.145 143.93 100.65 144.126C99.9782 144.117 99.4509 143.939 99.0682 143.594C98.6856 143.249 98.4942 142.777 98.4942 142.18C98.4942 141.713 98.6109 141.349 98.8442 141.088C99.0869 140.817 99.4509 140.635 99.9362 140.542L102.078 140.136V139.562C102.078 138.955 101.78 138.652 101.182 138.652C100.893 138.652 100.585 138.717 100.258 138.848C99.9409 138.979 99.5816 139.184 99.1802 139.464L99.0402 139.38L98.8302 138.148C99.2316 137.896 99.6609 137.705 100.118 137.574C100.576 137.434 101.033 137.364 101.49 137.364ZM100.58 141.396C100.431 141.433 100.319 141.499 100.244 141.592C100.179 141.676 100.146 141.807 100.146 141.984C100.146 142.227 100.212 142.418 100.342 142.558C100.473 142.689 100.655 142.754 100.888 142.754C101.252 142.754 101.635 142.539 102.036 142.11L102.064 141.074L100.58 141.396ZM107.852 137.378C108.487 137.378 109.084 137.485 109.644 137.7L109.392 139.072L109.168 139.142C108.898 138.965 108.627 138.829 108.356 138.736C108.086 138.643 107.848 138.596 107.642 138.596C107.418 138.596 107.241 138.657 107.11 138.778C106.98 138.89 106.914 139.03 106.914 139.198C106.914 139.394 106.998 139.553 107.166 139.674C107.344 139.795 107.619 139.931 107.992 140.08C108.366 140.229 108.674 140.374 108.916 140.514C109.159 140.654 109.364 140.85 109.532 141.102C109.71 141.345 109.798 141.648 109.798 142.012C109.798 142.385 109.7 142.735 109.504 143.062C109.318 143.379 109.028 143.641 108.636 143.846C108.244 144.042 107.764 144.14 107.194 144.14C106.522 144.14 105.827 144 105.108 143.72L105.318 142.264L105.5 142.152C105.79 142.395 106.112 142.591 106.466 142.74C106.821 142.88 107.134 142.95 107.404 142.95C107.656 142.95 107.852 142.889 107.992 142.768C108.132 142.637 108.202 142.483 108.202 142.306C108.202 142.11 108.114 141.951 107.936 141.83C107.768 141.709 107.498 141.573 107.124 141.424C106.742 141.256 106.429 141.107 106.186 140.976C105.944 140.836 105.734 140.64 105.556 140.388C105.388 140.136 105.304 139.823 105.304 139.45C105.304 138.843 105.533 138.349 105.99 137.966C106.448 137.574 107.068 137.378 107.852 137.378Z" fill="white"/>
<defs>
<filter id="filter0_b_206:37302" x="3" y="67" width="161" height="97" filterUnits="userSpaceOnUse" color-interpolation-filters="sRGB">
<feFlood flood-opacity="0" result="BackgroundImageFix"/>
<feGaussianBlur in="BackgroundImage" stdDeviation="5"/>
<feComposite in2="SourceAlpha" operator="in" result="effect1_backgroundBlur_206:37302"/>
<feBlend mode="normal" in="SourceGraphic" in2="effect1_backgroundBlur_206:37302" result="shape"/>
</filter>
</defs>
</svg>
