<svg width="167" height="167" viewBox="0 0 167 167" fill="none" xmlns="http://www.w3.org/2000/svg">
<mask id="mask0_206:37334" style="mask-type:alpha" maskUnits="userSpaceOnUse" x="0" y="0" width="167" height="167">
<rect x="1" y="1" width="165" height="165" rx="8" fill="#5988D6" stroke="#EDE6FC" stroke-opacity="0.3"/>
</mask>
<g mask="url(#mask0_206:37334)">
<rect x="1" y="1" width="165" height="165" rx="8" fill="#D9917A" stroke="#EDE6FC" stroke-opacity="0.3"/>
<path d="M64.0605 25.0694L107.151 29.1727L107.956 55.3962L107.601 73.9458L58.0591 73.5923L59.2244 63.5132L64.0605 25.0694Z" fill="#DE6523"/>
<path d="M125.915 103.864C121.329 103.894 116.633 103.914 111.857 103.934C92.2571 104.014 71.3472 104.004 51.9026 103.934L40.9551 103.879C41.2697 100.063 41.799 96.2675 42.5405 92.5104C42.9056 90.7227 43.3206 89.0544 43.7957 87.4908C44.5459 84.9087 45.6019 82.4246 46.9415 80.0909C50.4973 74.0006 55.8986 70.3006 64.1405 68.1394C67.4509 67.3139 70.8172 66.7298 74.2129 66.3915C74.4029 65.2312 74.633 63.822 74.863 62.3679C75.2331 60.0324 75.6132 57.6072 75.8633 55.9788C81.3646 55.7448 86.5107 55.7448 92.017 55.9788C92.2221 57.2785 93.1123 62.816 93.5174 65.3458C93.5924 65.8139 93.6524 66.1774 93.6874 66.3915C96.2891 66.6574 98.875 67.0596 101.434 67.5966C110.886 69.6184 116.678 73.413 120.334 80.046C121.639 82.5136 122.646 85.1262 123.334 87.8294C123.789 89.5076 124.19 91.3152 124.535 93.2225C125.13 96.4245 125.565 99.9551 125.915 103.864Z" fill="#FFC4A6"/>
<path d="M93.5172 65.3457C84.05 67.8755 77.8936 64.7233 74.8579 62.3579C75.228 60.0224 75.6081 57.5972 75.8581 55.9688C81.3594 55.7348 86.5056 55.7348 92.0119 55.9688C92.2269 57.2785 93.1121 62.816 93.5172 65.3457Z" fill="#ED987E"/>
<path d="M124.56 93.2474L108.176 96.6585L107.466 86.699L120.329 80.0759C121.634 82.5435 122.641 85.1561 123.33 87.8593C123.81 89.5524 124.21 91.3252 124.56 93.2474Z" fill="#ED987E"/>
<path d="M60.9499 86.2259L58.4493 97.3657L42.5156 92.4955C42.8807 90.7077 43.2958 89.0395 43.7709 87.4759C44.5211 84.8937 45.5771 82.4096 46.9167 80.0759L60.9499 86.2259Z" fill="#ED987E"/>
<path d="M112.522 93.4864C112.522 93.4864 114.522 99.243 114.932 103.944C95.3328 104.024 71.3622 104.014 51.9177 103.944C52.1427 101.34 53.273 97.1615 55.1634 92.8739L41.9453 86.5645C41.9453 86.5645 48.1918 70.0068 65.2058 67.2331C65.2058 67.2331 71.5823 85.9869 84.2102 88.2676C84.2102 88.2676 98.6736 83.4323 100.364 66.9293C100.364 66.9293 119.083 68.6224 126.045 86.7687L112.522 93.4864Z" fill="#AF3E58"/>
<path d="M112.542 92.3859C111.942 88.5591 110.937 84.8066 109.541 81.1914C111.972 84.3889 113.049 88.4073 112.542 92.3859Z" fill="#852A45"/>
<path d="M55.8188 91.9776C57.0858 88.2992 58.5062 84.6739 60.0799 81.1017C57.4171 84.1139 55.908 87.9656 55.8188 91.9776Z" fill="#852A45"/>
<path d="M103.93 34.8148C107.721 33.5997 111.577 35.0389 112.542 38.0317C113.507 41.0246 111.227 44.4307 107.436 45.6458C103.645 46.8609 99.794 45.4217 98.8238 42.4289C97.8536 39.436 100.144 36.0299 103.93 34.8148Z" fill="#FFC4A6"/>
<path opacity="0.75" d="M105.72 37.4342C108.126 36.8914 110.417 37.9321 110.842 39.8145C111.267 41.6968 109.666 43.629 107.266 44.1718C104.865 44.7146 102.57 43.6738 102.145 41.7915C101.719 39.9091 103.32 37.9819 105.72 37.4342Z" fill="#ED987E"/>
<path d="M109.741 38.1562C108.662 37.2926 107.304 36.8501 105.92 36.9113C104.536 36.9868 103.225 37.558 102.229 38.5197C102.285 38.8783 102.334 39.2368 102.39 39.5954C103.322 38.5332 104.597 37.8286 105.995 37.6035C107.271 37.4092 108.577 37.6018 109.741 38.1562Z" fill="#C96B63"/>
<path d="M105.685 32.0959C105.685 46.8609 95.5577 61.6807 83.0647 61.6807C81.277 61.6778 79.5023 61.3783 77.8135 60.7943C67.8512 57.3981 60.4395 44.7245 60.4395 32.0959V32.0012C60.4795 17.291 70.5968 8.21289 83.0647 8.21289C95.5327 8.21289 105.685 17.3458 105.685 32.0959Z" fill="#FFC4A6"/>
<path d="M115.863 79.8966C100.569 81.8387 104.185 61.1229 105.495 46.0342C106.159 45.9791 106.813 45.8471 107.446 45.6408C109.07 45.1404 110.501 44.1568 111.547 42.8223C111.092 52.1942 109.546 61.2474 109.731 66.7252C110.136 78.1238 115.863 79.8966 115.863 79.8966Z" fill="#ED8B2F"/>
<path d="M78.469 30.6069C77.8554 29.7099 77.0185 28.9869 76.0402 28.5086C75.0618 28.0302 73.9756 27.8129 72.8876 27.878C70.7721 28.0523 68.7017 29.4366 67.4214 31.5281C70.4321 30.0989 73.7128 29.601 78.469 30.6069Z" fill="#ED8B2F"/>
<path d="M87.5859 30.5571C88.2082 29.6665 89.0519 28.9518 90.0346 28.4831C91.0173 28.0144 92.1052 27.8076 93.1922 27.883C95.3077 28.0822 97.3633 29.4865 98.6185 31.5879C95.5878 30.1239 92.332 29.596 87.5859 30.5571Z" fill="#ED8B2F"/>
<path d="M74.3678 39.0825C75.1468 39.0825 75.7782 38.4537 75.7782 37.6782C75.7782 36.9026 75.1468 36.2739 74.3678 36.2739C73.5889 36.2739 72.9575 36.9026 72.9575 37.6782C72.9575 38.4537 73.5889 39.0825 74.3678 39.0825Z" fill="#242940"/>
<path d="M92.5026 39.0825C93.2815 39.0825 93.9129 38.4537 93.9129 37.6782C93.9129 36.9026 93.2815 36.2739 92.5026 36.2739C91.7237 36.2739 91.0923 36.9026 91.0923 37.6782C91.0923 38.4537 91.7237 39.0825 92.5026 39.0825Z" fill="#242940"/>
<path d="M81.3093 36.2689C81.8826 37.9757 81.7989 39.8338 81.0742 41.4827C81.3943 42.6081 81.7194 43.7286 82.0395 44.854" stroke="#C96B63" stroke-width="2" stroke-miterlimit="10" stroke-linecap="round"/>
<path d="M81.0845 52.966C82.4008 53.2364 83.7538 53.2819 85.0854 53.1005C84.8932 53.4667 84.6067 53.7755 84.2551 53.9951C83.9036 54.2147 83.4997 54.3374 83.0849 54.3504C82.6465 54.3637 82.2154 54.2364 81.8552 53.9871C81.495 53.7378 81.2248 53.3799 81.0845 52.966Z" fill="#F2A388"/>
<path d="M78.0835 49.6097C81.1612 50.5809 84.4705 50.5443 87.5257 49.5051" stroke="#F2A388" stroke-width="3" stroke-miterlimit="10" stroke-linecap="round"/>
<path d="M111.651 36.4234C110.311 34.8597 107.931 34.0928 105.41 34.4613C100.364 22.236 81.5844 13.5463 81.5844 13.5463C77.4685 14.3182 67.7462 20.518 65.7207 31.2643C63.3202 43.9627 63.2202 61.865 61.4597 67.9403C59.6993 74.0156 51.9575 74.0405 51.9575 74.0405C53.8584 70.7085 55.2617 67.1186 56.1235 63.3838C57.4388 57.9559 58.394 50.1725 58.394 38.1713C58.394 14.8261 66.711 9.56746 71.9872 7.35146C75.03 6.02372 78.4265 5.72804 81.6545 6.50989C85.0203 4.4383 90.8716 1.49526 99.8137 9.26867C101.946 11.1686 103.911 13.2479 105.685 15.4834C110.091 20.8865 111.486 28.5205 111.651 36.4234Z" fill="#ED8B2F"/>
<path d="M99.8141 9.24864C98.5132 8.51899 97.145 7.91533 95.7282 7.44596C91.2922 6.00182 86.0759 6.26077 82.4451 9.54742C77.4739 7.77462 71.7076 9.72669 67.9417 13.3868C64.1758 17.047 62.0703 22.1363 60.865 27.2555C62.1976 22.8064 64.8941 18.8835 68.5768 16.0361C64.1108 20.5178 62.0253 26.887 61.0751 33.1465C60.1248 39.4061 60.2099 45.7802 59.3297 52.0697C58.8465 55.9827 57.7672 59.7995 56.1289 63.3887C57.4442 57.9607 58.3995 50.1773 58.3995 38.1761C58.3995 14.831 66.7164 9.57232 71.9926 7.35632C75.0354 6.02858 78.4319 5.7329 81.6599 6.51474C85.0157 4.39834 90.872 1.47522 99.8141 9.24864Z" fill="#FAA243"/>
</g>
<g filter="url(#filter0_b_206:37334)">
<rect x="13" y="77" width="141" height="77" rx="10" fill="black" fill-opacity="0.8"/>
</g>
<path d="M36.5923 99.324C37.2083 99.4733 37.661 99.7253 37.9503 100.08C38.249 100.425 38.3983 100.883 38.3983 101.452C38.3983 103.197 37.031 104.07 34.2963 104.07C33.4937 104.07 32.6723 104.047 31.8323 104L31.9303 101.312L31.8323 94.984L35.0383 94.97C35.9623 94.97 36.681 95.166 37.1943 95.558C37.7077 95.9407 37.9643 96.496 37.9643 97.224C37.9643 97.7093 37.843 98.134 37.6003 98.498C37.367 98.862 37.031 99.1373 36.5923 99.324ZM36.0183 97.476C36.0183 97.0653 35.897 96.776 35.6543 96.608C35.4117 96.4307 34.987 96.342 34.3803 96.342H33.6943L33.6523 98.792L34.9683 98.834C35.323 98.7407 35.5843 98.5867 35.7523 98.372C35.9297 98.1573 36.0183 97.8587 36.0183 97.476ZM34.6183 102.712C35.2063 102.712 35.659 102.595 35.9763 102.362C36.303 102.129 36.4663 101.793 36.4663 101.354C36.4663 100.691 36.037 100.281 35.1783 100.122L33.6243 100.15L33.6103 101.144L33.6523 102.656C33.979 102.693 34.301 102.712 34.6183 102.712ZM42.3217 97.364C43.2737 97.364 44.0017 97.644 44.5057 98.204C45.0097 98.764 45.2617 99.5713 45.2617 100.626C45.2617 101.765 44.9911 102.637 44.4497 103.244C43.9084 103.841 43.1291 104.14 42.1117 104.14C41.1597 104.14 40.4317 103.86 39.9277 103.3C39.4237 102.74 39.1717 101.933 39.1717 100.878C39.1717 99.7393 39.4424 98.8713 39.9837 98.274C40.5251 97.6673 41.3044 97.364 42.3217 97.364ZM42.1957 98.624C41.7477 98.624 41.4211 98.7733 41.2157 99.072C41.0197 99.3707 40.9217 99.8513 40.9217 100.514C40.9217 101.373 41.0244 101.984 41.2297 102.348C41.4351 102.712 41.7711 102.894 42.2377 102.894C42.6857 102.894 43.0077 102.749 43.2037 102.46C43.4091 102.161 43.5117 101.676 43.5117 101.004C43.5117 100.155 43.4044 99.548 43.1897 99.184C42.9844 98.8107 42.653 98.624 42.1957 98.624ZM49.2117 97.364C49.5197 97.364 49.823 97.3967 50.1217 97.462C50.4297 97.518 50.7004 97.602 50.9337 97.714L50.6257 99.198L50.4717 99.268C49.9957 99.0067 49.571 98.876 49.1977 98.876C48.7684 98.876 48.437 99.03 48.2037 99.338C47.9704 99.646 47.8537 100.085 47.8537 100.654C47.8537 101.307 47.9797 101.807 48.2317 102.152C48.4837 102.497 48.843 102.67 49.3097 102.67C49.7297 102.67 50.1964 102.553 50.7097 102.32L50.8497 102.432L50.6677 103.874C50.1077 104.051 49.5337 104.14 48.9457 104.14C48.0497 104.14 47.3497 103.851 46.8457 103.272C46.3417 102.684 46.0897 101.867 46.0897 100.822C46.0897 99.7393 46.365 98.8947 46.9157 98.288C47.4664 97.672 48.2317 97.364 49.2117 97.364ZM54.3497 97.364C55.0684 97.364 55.6284 97.5273 56.0297 97.854C56.4404 98.1713 56.6457 98.6193 56.6457 99.198C56.6457 99.366 56.6177 99.898 56.5617 100.794C56.5524 101.055 56.5384 101.326 56.5197 101.606C56.501 101.877 56.4917 102.11 56.4917 102.306C56.4917 102.465 56.515 102.577 56.5617 102.642C56.6084 102.698 56.6924 102.726 56.8137 102.726C56.907 102.726 57.0284 102.707 57.1777 102.67L57.3177 102.782L57.1497 103.762C56.851 103.958 56.5104 104.075 56.1277 104.112C55.8477 104.084 55.6144 103.986 55.4277 103.818C55.241 103.641 55.115 103.398 55.0497 103.09H54.9517C54.485 103.585 54.0044 103.93 53.5097 104.126C52.8377 104.117 52.3104 103.939 51.9277 103.594C51.545 103.249 51.3537 102.777 51.3537 102.18C51.3537 101.713 51.4704 101.349 51.7037 101.088C51.9464 100.817 52.3104 100.635 52.7957 100.542L54.9377 100.136V99.562C54.9377 98.9553 54.639 98.652 54.0417 98.652C53.7524 98.652 53.4444 98.7173 53.1177 98.848C52.8004 98.9787 52.441 99.184 52.0397 99.464L51.8997 99.38L51.6897 98.148C52.091 97.896 52.5204 97.7047 52.9777 97.574C53.435 97.434 53.8924 97.364 54.3497 97.364ZM53.4397 101.396C53.2904 101.433 53.1784 101.499 53.1037 101.592C53.0384 101.676 53.0057 101.807 53.0057 101.984C53.0057 102.227 53.071 102.418 53.2017 102.558C53.3324 102.689 53.5144 102.754 53.7477 102.754C54.1117 102.754 54.4944 102.539 54.8957 102.11L54.9237 101.074L53.4397 101.396ZM62.8311 97.378C63.4657 97.378 64.0631 97.4853 64.6231 97.7L64.3711 99.072L64.1471 99.142C63.8764 98.9647 63.6057 98.8293 63.3351 98.736C63.0644 98.6427 62.8264 98.596 62.6211 98.596C62.3971 98.596 62.2197 98.6567 62.0891 98.778C61.9584 98.89 61.8931 99.03 61.8931 99.198C61.8931 99.394 61.9771 99.5527 62.1451 99.674C62.3224 99.7953 62.5977 99.9307 62.9711 100.08C63.3444 100.229 63.6524 100.374 63.8951 100.514C64.1377 100.654 64.3431 100.85 64.5111 101.102C64.6884 101.345 64.7771 101.648 64.7771 102.012C64.7771 102.385 64.6791 102.735 64.4831 103.062C64.2964 103.379 64.0071 103.641 63.6151 103.846C63.2231 104.042 62.7424 104.14 62.1731 104.14C61.5011 104.14 60.8057 104 60.0871 103.72L60.2971 102.264L60.4791 102.152C60.7684 102.395 61.0904 102.591 61.4451 102.74C61.7997 102.88 62.1124 102.95 62.3831 102.95C62.6351 102.95 62.8311 102.889 62.9711 102.768C63.1111 102.637 63.1811 102.483 63.1811 102.306C63.1811 102.11 63.0924 101.951 62.9151 101.83C62.7471 101.709 62.4764 101.573 62.1031 101.424C61.7204 101.256 61.4077 101.107 61.1651 100.976C60.9224 100.836 60.7124 100.64 60.5351 100.388C60.3671 100.136 60.2831 99.8233 60.2831 99.45C60.2831 98.8433 60.5117 98.3487 60.9691 97.966C61.4264 97.574 62.0471 97.378 62.8311 97.378ZM71.0601 100.976L67.2801 101.004C67.3641 102.171 67.9568 102.754 69.0581 102.754C69.6368 102.754 70.2808 102.591 70.9901 102.264L71.1441 102.362L70.8641 103.748C70.1548 104.009 69.4874 104.14 68.8621 104.14C67.8354 104.14 67.0281 103.841 66.4401 103.244C65.8614 102.647 65.5721 101.821 65.5721 100.766C65.5721 99.7207 65.8568 98.8947 66.4261 98.288C66.9954 97.672 67.7654 97.364 68.7361 97.364C69.5668 97.364 70.2061 97.5927 70.6541 98.05C71.1114 98.498 71.3401 99.128 71.3401 99.94C71.3401 100.155 71.3168 100.425 71.2701 100.752L71.0601 100.976ZM69.7161 99.73C69.7161 99.3567 69.6321 99.0767 69.4641 98.89C69.2961 98.694 69.0488 98.596 68.7221 98.596C68.3581 98.596 68.0548 98.7173 67.8121 98.96C67.5694 99.1933 67.4061 99.534 67.3221 99.982L69.6881 99.926L69.7161 99.73ZM75.2976 97.364C75.6056 97.364 75.909 97.3967 76.2076 97.462C76.5156 97.518 76.7863 97.602 77.0196 97.714L76.7116 99.198L76.5576 99.268C76.0816 99.0067 75.657 98.876 75.2836 98.876C74.8543 98.876 74.523 99.03 74.2896 99.338C74.0563 99.646 73.9396 100.085 73.9396 100.654C73.9396 101.307 74.0656 101.807 74.3176 102.152C74.5696 102.497 74.929 102.67 75.3956 102.67C75.8156 102.67 76.2823 102.553 76.7956 102.32L76.9356 102.432L76.7536 103.874C76.1936 104.051 75.6196 104.14 75.0316 104.14C74.1356 104.14 73.4356 103.851 72.9316 103.272C72.4276 102.684 72.1756 101.867 72.1756 100.822C72.1756 99.7393 72.451 98.8947 73.0016 98.288C73.5523 97.672 74.3176 97.364 75.2976 97.364ZM80.4356 97.364C81.1543 97.364 81.7143 97.5273 82.1156 97.854C82.5263 98.1713 82.7316 98.6193 82.7316 99.198C82.7316 99.366 82.7036 99.898 82.6476 100.794C82.6383 101.055 82.6243 101.326 82.6056 101.606C82.587 101.877 82.5776 102.11 82.5776 102.306C82.5776 102.465 82.601 102.577 82.6476 102.642C82.6943 102.698 82.7783 102.726 82.8996 102.726C82.993 102.726 83.1143 102.707 83.2636 102.67L83.4036 102.782L83.2356 103.762C82.937 103.958 82.5963 104.075 82.2136 104.112C81.9336 104.084 81.7003 103.986 81.5136 103.818C81.327 103.641 81.201 103.398 81.1356 103.09H81.0376C80.571 103.585 80.0903 103.93 79.5956 104.126C78.9236 104.117 78.3963 103.939 78.0136 103.594C77.631 103.249 77.4396 102.777 77.4396 102.18C77.4396 101.713 77.5563 101.349 77.7896 101.088C78.0323 100.817 78.3963 100.635 78.8816 100.542L81.0236 100.136V99.562C81.0236 98.9553 80.725 98.652 80.1276 98.652C79.8383 98.652 79.5303 98.7173 79.2036 98.848C78.8863 98.9787 78.527 99.184 78.1256 99.464L77.9856 99.38L77.7756 98.148C78.177 97.896 78.6063 97.7047 79.0636 97.574C79.521 97.434 79.9783 97.364 80.4356 97.364ZM79.5256 101.396C79.3763 101.433 79.2643 101.499 79.1896 101.592C79.1243 101.676 79.0916 101.807 79.0916 101.984C79.0916 102.227 79.157 102.418 79.2876 102.558C79.4183 102.689 79.6003 102.754 79.8336 102.754C80.1976 102.754 80.5803 102.539 80.9816 102.11L81.0096 101.074L79.5256 101.396ZM85.7619 102.152C86.1819 102.488 86.3919 102.889 86.3919 103.356C86.3919 104.168 85.8272 104.975 84.6979 105.778L84.0959 105.246L84.0819 105.106C84.5952 104.677 84.8519 104.219 84.8519 103.734C84.8519 103.417 84.7025 103.137 84.4039 102.894L84.4179 102.74C84.8472 102.479 85.2952 102.283 85.7619 102.152ZM93.3762 97.406C94.1882 97.406 94.8136 97.6813 95.2522 98.232C95.6909 98.7827 95.9102 99.562 95.9102 100.57C95.9102 101.709 95.6256 102.591 95.0562 103.216C94.4962 103.832 93.7029 104.14 92.6762 104.14C92.3775 104.14 92.0649 104.112 91.7382 104.056L91.7802 106.59H89.9322L90.0302 101.312L89.9462 97.616L91.7242 97.462L91.7102 98.414H91.8082C92.0695 98.162 92.3215 97.9613 92.5642 97.812C92.8069 97.6533 93.0775 97.518 93.3762 97.406ZM92.6902 102.922C93.1755 102.922 93.5442 102.749 93.7962 102.404C94.0482 102.059 94.1742 101.55 94.1742 100.878C94.1742 100.225 94.0669 99.7347 93.8522 99.408C93.6469 99.072 93.3389 98.904 92.9282 98.904C92.5269 98.904 92.1209 99.1047 91.7102 99.506L91.6962 101.13L91.7242 102.712C92.0602 102.852 92.3822 102.922 92.6902 102.922ZM99.8803 97.364C100.832 97.364 101.56 97.644 102.064 98.204C102.568 98.764 102.82 99.5713 102.82 100.626C102.82 101.765 102.55 102.637 102.008 103.244C101.467 103.841 100.688 104.14 99.6703 104.14C98.7183 104.14 97.9903 103.86 97.4863 103.3C96.9823 102.74 96.7303 101.933 96.7303 100.878C96.7303 99.7393 97.001 98.8713 97.5423 98.274C98.0836 97.6673 98.863 97.364 99.8803 97.364ZM99.7543 98.624C99.3063 98.624 98.9796 98.7733 98.7743 99.072C98.5783 99.3707 98.4803 99.8513 98.4803 100.514C98.4803 101.373 98.583 101.984 98.7883 102.348C98.9936 102.712 99.3296 102.894 99.7963 102.894C100.244 102.894 100.566 102.749 100.762 102.46C100.968 102.161 101.07 101.676 101.07 101.004C101.07 100.155 100.963 99.548 100.748 99.184C100.543 98.8107 100.212 98.624 99.7543 98.624ZM105.916 101.13L106.014 104H104.152L104.25 101.298L104.166 94.312L106.028 94.172L105.916 101.13ZM107.9 101.312L107.83 97.616L109.664 97.462L109.58 101.13L109.664 104H107.802L107.9 101.312ZM108.782 94.298C109.071 94.298 109.295 94.382 109.454 94.55C109.622 94.718 109.706 94.9513 109.706 95.25C109.706 95.5673 109.617 95.8193 109.44 96.006C109.263 96.1927 109.02 96.286 108.712 96.286C108.404 96.286 108.166 96.202 107.998 96.034C107.839 95.866 107.76 95.628 107.76 95.32C107.76 95.012 107.849 94.7647 108.026 94.578C108.213 94.3913 108.465 94.298 108.782 94.298ZM117.64 102.782L117.472 103.762C117.127 103.986 116.772 104.103 116.408 104.112C116.138 104.065 115.914 103.958 115.736 103.79C115.559 103.622 115.424 103.379 115.33 103.062H115.204C114.672 103.585 114.122 103.925 113.552 104.084C112.843 104.084 112.302 103.925 111.928 103.608C111.564 103.281 111.387 102.815 111.396 102.208L111.424 100.556L111.354 97.616L113.16 97.462L113.118 101.592C113.109 101.919 113.174 102.166 113.314 102.334C113.454 102.502 113.664 102.586 113.944 102.586C114.355 102.586 114.761 102.404 115.162 102.04V97.616L116.94 97.462L116.814 102.306C116.814 102.455 116.838 102.563 116.884 102.628C116.94 102.693 117.024 102.726 117.136 102.726C117.239 102.726 117.365 102.707 117.514 102.67L117.64 102.782ZM115.54 93.878L116.212 94.886L116.184 95.068C115.979 95.1987 115.825 95.292 115.722 95.348C114.556 96.0667 113.8 96.524 113.454 96.72L113.272 96.706L112.824 96.006C113.907 95.138 114.752 94.424 115.358 93.864L115.54 93.878ZM122.255 97.476C122.339 97.476 122.455 97.4853 122.605 97.504V99.226L122.409 99.296C122.25 99.2307 122.077 99.198 121.891 99.198C121.349 99.198 120.859 99.548 120.421 100.248V101.13L120.519 104H118.657L118.769 101.312L118.685 97.616L120.449 97.462L120.435 98.736H120.547C121.004 97.896 121.573 97.476 122.255 97.476ZM123.65 101.312L123.58 97.616L125.414 97.462L125.33 101.13L125.414 104H123.552L123.65 101.312ZM124.532 94.298C124.821 94.298 125.045 94.382 125.204 94.55C125.372 94.718 125.456 94.9513 125.456 95.25C125.456 95.5673 125.367 95.8193 125.19 96.006C125.013 96.1927 124.77 96.286 124.462 96.286C124.154 96.286 123.916 96.202 123.748 96.034C123.589 95.866 123.51 95.628 123.51 95.32C123.51 95.012 123.599 94.7647 123.776 94.578C123.963 94.3913 124.215 94.298 124.532 94.298ZM129.736 97.364C130.455 97.364 131.015 97.5273 131.416 97.854C131.827 98.1713 132.032 98.6193 132.032 99.198C132.032 99.366 132.004 99.898 131.948 100.794C131.939 101.055 131.925 101.326 131.906 101.606C131.888 101.877 131.878 102.11 131.878 102.306C131.878 102.465 131.902 102.577 131.948 102.642C131.995 102.698 132.079 102.726 132.2 102.726C132.294 102.726 132.415 102.707 132.564 102.67L132.704 102.782L132.536 103.762C132.238 103.958 131.897 104.075 131.514 104.112C131.234 104.084 131.001 103.986 130.814 103.818C130.628 103.641 130.502 103.398 130.436 103.09H130.338C129.872 103.585 129.391 103.93 128.896 104.126C128.224 104.117 127.697 103.939 127.314 103.594C126.932 103.249 126.74 102.777 126.74 102.18C126.74 101.713 126.857 101.349 127.09 101.088C127.333 100.817 127.697 100.635 128.182 100.542L130.324 100.136V99.562C130.324 98.9553 130.026 98.652 129.428 98.652C129.139 98.652 128.831 98.7173 128.504 98.848C128.187 98.9787 127.828 99.184 127.426 99.464L127.286 99.38L127.076 98.148C127.478 97.896 127.907 97.7047 128.364 97.574C128.822 97.434 129.279 97.364 129.736 97.364ZM128.826 101.396C128.677 101.433 128.565 101.499 128.49 101.592C128.425 101.676 128.392 101.807 128.392 101.984C128.392 102.227 128.458 102.418 128.588 102.558C128.719 102.689 128.901 102.754 129.134 102.754C129.498 102.754 129.881 102.539 130.282 102.11L130.31 101.074L128.826 101.396ZM135.063 102.152C135.483 102.488 135.693 102.889 135.693 103.356C135.693 104.168 135.128 104.975 133.999 105.778L133.397 105.246L133.383 105.106C133.896 104.677 134.153 104.219 134.153 103.734C134.153 103.417 134.003 103.137 133.705 102.894L133.719 102.74C134.148 102.479 134.596 102.283 135.063 102.152ZM24.4268 113.378C25.0614 113.378 25.6588 113.485 26.2188 113.7L25.9668 115.072L25.7428 115.142C25.4721 114.965 25.2014 114.829 24.9308 114.736C24.6601 114.643 24.4221 114.596 24.2168 114.596C23.9928 114.596 23.8154 114.657 23.6848 114.778C23.5541 114.89 23.4888 115.03 23.4888 115.198C23.4888 115.394 23.5728 115.553 23.7408 115.674C23.9181 115.795 24.1934 115.931 24.5668 116.08C24.9401 116.229 25.2481 116.374 25.4908 116.514C25.7334 116.654 25.9388 116.85 26.1068 117.102C26.2841 117.345 26.3728 117.648 26.3728 118.012C26.3728 118.385 26.2748 118.735 26.0788 119.062C25.8921 119.379 25.6028 119.641 25.2108 119.846C24.8188 120.042 24.3381 120.14 23.7688 120.14C23.0968 120.14 22.4014 120 21.6828 119.72L21.8928 118.264L22.0748 118.152C22.3641 118.395 22.6861 118.591 23.0408 118.74C23.3954 118.88 23.7081 118.95 23.9788 118.95C24.2308 118.95 24.4268 118.889 24.5668 118.768C24.7068 118.637 24.7768 118.483 24.7768 118.306C24.7768 118.11 24.6881 117.951 24.5108 117.83C24.3428 117.709 24.0721 117.573 23.6988 117.424C23.3161 117.256 23.0034 117.107 22.7608 116.976C22.5181 116.836 22.3081 116.64 22.1308 116.388C21.9628 116.136 21.8788 115.823 21.8788 115.45C21.8788 114.843 22.1074 114.349 22.5648 113.966C23.0221 113.574 23.6428 113.378 24.4268 113.378ZM32.6558 116.976L28.8758 117.004C28.9598 118.171 29.5525 118.754 30.6538 118.754C31.2325 118.754 31.8765 118.591 32.5858 118.264L32.7398 118.362L32.4598 119.748C31.7505 120.009 31.0831 120.14 30.4578 120.14C29.4311 120.14 28.6238 119.841 28.0358 119.244C27.4571 118.647 27.1678 117.821 27.1678 116.766C27.1678 115.721 27.4525 114.895 28.0218 114.288C28.5911 113.672 29.3611 113.364 30.3318 113.364C31.1625 113.364 31.8018 113.593 32.2498 114.05C32.7071 114.498 32.9358 115.128 32.9358 115.94C32.9358 116.155 32.9125 116.425 32.8658 116.752L32.6558 116.976ZM31.3118 115.73C31.3118 115.357 31.2278 115.077 31.0598 114.89C30.8918 114.694 30.6445 114.596 30.3178 114.596C29.9538 114.596 29.6505 114.717 29.4078 114.96C29.1651 115.193 29.0018 115.534 28.9178 115.982L31.2838 115.926L31.3118 115.73ZM39.6513 117.13L39.6933 118.306C39.6933 118.465 39.712 118.577 39.7493 118.642C39.796 118.698 39.8753 118.726 39.9873 118.726C40.09 118.726 40.216 118.707 40.3653 118.67L40.4913 118.782L40.3373 119.762C40.02 119.958 39.6747 120.075 39.3013 120.112C39.012 120.084 38.7693 119.986 38.5733 119.818C38.3773 119.65 38.242 119.421 38.1673 119.132H38.0553C37.598 119.552 37.1313 119.874 36.6553 120.098C35.7407 120.098 35.0313 119.809 34.5273 119.23C34.0233 118.642 33.7713 117.83 33.7713 116.794C33.7713 115.693 34.0607 114.848 34.6393 114.26C35.218 113.672 36.0207 113.378 37.0473 113.378C37.318 113.378 37.6167 113.406 37.9433 113.462L37.9153 110.312L39.7633 110.172L39.6513 117.13ZM36.9213 114.638C35.988 114.638 35.5213 115.231 35.5213 116.416C35.5213 117.153 35.6333 117.709 35.8573 118.082C36.0813 118.455 36.408 118.642 36.8373 118.642C37.248 118.642 37.626 118.451 37.9713 118.068L37.9993 117.298L37.9573 114.89C37.5933 114.722 37.248 114.638 36.9213 114.638ZM46.6285 116.976L42.8485 117.004C42.9325 118.171 43.5251 118.754 44.6265 118.754C45.2051 118.754 45.8491 118.591 46.5585 118.264L46.7125 118.362L46.4325 119.748C45.7231 120.009 45.0558 120.14 44.4305 120.14C43.4038 120.14 42.5965 119.841 42.0085 119.244C41.4298 118.647 41.1405 117.821 41.1405 116.766C41.1405 115.721 41.4251 114.895 41.9945 114.288C42.5638 113.672 43.3338 113.364 44.3045 113.364C45.1351 113.364 45.7745 113.593 46.2225 114.05C46.6798 114.498 46.9085 115.128 46.9085 115.94C46.9085 116.155 46.8851 116.425 46.8385 116.752L46.6285 116.976ZM45.2845 115.73C45.2845 115.357 45.2005 115.077 45.0325 114.89C44.8645 114.694 44.6171 114.596 44.2905 114.596C43.9265 114.596 43.6231 114.717 43.3805 114.96C43.1378 115.193 42.9745 115.534 42.8905 115.982L45.2565 115.926L45.2845 115.73ZM51.622 110.648L48.724 121.61H47.436L47.324 121.456L50.208 110.48H51.468L51.622 110.648ZM55.5585 110.144C55.9412 110.144 56.3472 110.186 56.7765 110.27L56.6505 111.656L56.5245 111.74C56.0858 111.553 55.7032 111.46 55.3765 111.46C54.7978 111.46 54.5038 111.791 54.4945 112.454L54.4805 113.546H56.0625L56.1185 113.644L56.0345 114.666H54.4525L54.4105 117.13L54.5085 120H52.6465L52.7585 117.298L52.7305 114.666H51.7505L51.6805 114.568L51.7785 113.546H52.7165L52.7025 112.776C52.7025 111.936 52.9498 111.287 53.4445 110.83C53.9485 110.373 54.6532 110.144 55.5585 110.144ZM59.3432 113.364C60.2952 113.364 61.0232 113.644 61.5272 114.204C62.0312 114.764 62.2832 115.571 62.2832 116.626C62.2832 117.765 62.0125 118.637 61.4712 119.244C60.9299 119.841 60.1505 120.14 59.1332 120.14C58.1812 120.14 57.4532 119.86 56.9492 119.3C56.4452 118.74 56.1932 117.933 56.1932 116.878C56.1932 115.739 56.4639 114.871 57.0052 114.274C57.5465 113.667 58.3259 113.364 59.3432 113.364ZM59.2172 114.624C58.7692 114.624 58.4425 114.773 58.2372 115.072C58.0412 115.371 57.9432 115.851 57.9432 116.514C57.9432 117.373 58.0459 117.984 58.2512 118.348C58.4565 118.712 58.7925 118.894 59.2592 118.894C59.7072 118.894 60.0292 118.749 60.2252 118.46C60.4305 118.161 60.5332 117.676 60.5332 117.004C60.5332 116.155 60.4259 115.548 60.2112 115.184C60.0059 114.811 59.6745 114.624 59.2172 114.624ZM71.2751 120L71.3871 115.94C71.3871 115.249 71.0931 114.904 70.5051 114.904C70.0851 114.904 69.6465 115.091 69.1891 115.464L69.1471 117.144L69.2311 120H67.3691L67.4811 115.94C67.4905 115.604 67.4158 115.347 67.2571 115.17C67.1078 114.993 66.8885 114.904 66.5991 114.904C66.1885 114.904 65.7358 115.1 65.2411 115.492V117.13L65.3251 120H63.4771L63.5751 117.312L63.5051 113.616L65.2551 113.462V114.414H65.3531C65.8665 113.947 66.4311 113.611 67.0471 113.406C68.0925 113.406 68.7598 113.756 69.0491 114.456H69.1331C69.6651 113.961 70.2718 113.611 70.9531 113.406C71.6625 113.406 72.1991 113.569 72.5631 113.896C72.9365 114.213 73.1138 114.675 73.0951 115.282L73.0531 117.144L73.1371 120H71.2751ZM79.8101 116.976L76.0301 117.004C76.1141 118.171 76.7068 118.754 77.8081 118.754C78.3868 118.754 79.0308 118.591 79.7401 118.264L79.8941 118.362L79.6141 119.748C78.9048 120.009 78.2374 120.14 77.6121 120.14C76.5854 120.14 75.7781 119.841 75.1901 119.244C74.6114 118.647 74.3221 117.821 74.3221 116.766C74.3221 115.721 74.6068 114.895 75.1761 114.288C75.7454 113.672 76.5154 113.364 77.4861 113.364C78.3168 113.364 78.9561 113.593 79.4041 114.05C79.8614 114.498 80.0901 115.128 80.0901 115.94C80.0901 116.155 80.0668 116.425 80.0201 116.752L79.8101 116.976ZM78.4661 115.73C78.4661 115.357 78.3821 115.077 78.2141 114.89C78.0461 114.694 77.7988 114.596 77.4721 114.596C77.1081 114.596 76.8048 114.717 76.5621 114.96C76.3194 115.193 76.1561 115.534 76.0721 115.982L78.4381 115.926L78.4661 115.73ZM83.6188 117.312L83.5488 113.616L85.3828 113.462L85.2988 117.13L85.3828 120H83.5208L83.6188 117.312ZM84.5008 110.298C84.7901 110.298 85.0141 110.382 85.1728 110.55C85.3408 110.718 85.4248 110.951 85.4248 111.25C85.4248 111.567 85.3361 111.819 85.1588 112.006C84.9814 112.193 84.7388 112.286 84.4308 112.286C84.1228 112.286 83.8848 112.202 83.7168 112.034C83.5581 111.866 83.4788 111.628 83.4788 111.32C83.4788 111.012 83.5674 110.765 83.7448 110.578C83.9314 110.391 84.1834 110.298 84.5008 110.298ZM91.1472 115.94C91.1565 115.613 91.0818 115.361 90.9232 115.184C90.7738 114.997 90.5545 114.904 90.2652 114.904C89.8452 114.904 89.3972 115.105 88.9212 115.506V117.13L89.0052 120H87.1432L87.2412 117.312L87.1712 113.616L88.9352 113.462V114.414H89.0332C89.5465 113.947 90.1065 113.611 90.7132 113.406C91.4225 113.406 91.9638 113.569 92.3372 113.896C92.7105 114.213 92.8878 114.675 92.8692 115.282L92.8272 117.144L92.9112 120H91.0352L91.1472 115.94ZM97.1853 118.628C97.484 118.628 97.7966 118.549 98.1233 118.39L98.2773 118.53L98.0953 119.636C97.6193 119.879 97.134 120.028 96.6393 120.084C95.3793 119.953 94.7493 119.337 94.7493 118.236L94.8193 117.074L94.8053 114.666H93.9373L93.8673 114.568L93.9653 113.546H94.7913V112.468L96.4853 111.922L96.6113 112.034L96.5693 113.546H98.2353L98.2913 113.644L98.2073 114.666H96.5413L96.4573 117.802C96.4573 118.101 96.5133 118.315 96.6253 118.446C96.7373 118.567 96.924 118.628 97.1853 118.628ZM104.228 116.976L100.448 117.004C100.532 118.171 101.125 118.754 102.226 118.754C102.805 118.754 103.449 118.591 104.158 118.264L104.312 118.362L104.032 119.748C103.323 120.009 102.655 120.14 102.03 120.14C101.003 120.14 100.196 119.841 99.6081 119.244C99.0294 118.647 98.7401 117.821 98.7401 116.766C98.7401 115.721 99.0247 114.895 99.5941 114.288C100.163 113.672 100.933 113.364 101.904 113.364C102.735 113.364 103.374 113.593 103.822 114.05C104.279 114.498 104.508 115.128 104.508 115.94C104.508 116.155 104.485 116.425 104.438 116.752L104.228 116.976ZM102.884 115.73C102.884 115.357 102.8 115.077 102.632 114.89C102.464 114.694 102.217 114.596 101.89 114.596C101.526 114.596 101.223 114.717 100.98 114.96C100.737 115.193 100.574 115.534 100.49 115.982L102.856 115.926L102.884 115.73ZM109.796 115.94C109.805 115.613 109.73 115.361 109.572 115.184C109.422 114.997 109.203 114.904 108.914 114.904C108.494 114.904 108.046 115.105 107.57 115.506V117.13L107.654 120H105.792L105.89 117.312L105.82 113.616L107.584 113.462V114.414H107.682C108.195 113.947 108.755 113.611 109.362 113.406C110.071 113.406 110.612 113.569 110.986 113.896C111.359 114.213 111.536 114.675 111.518 115.282L111.476 117.144L111.56 120H109.684L109.796 115.94ZM115.386 113.378C116.02 113.378 116.618 113.485 117.178 113.7L116.926 115.072L116.702 115.142C116.431 114.965 116.16 114.829 115.89 114.736C115.619 114.643 115.381 114.596 115.176 114.596C114.952 114.596 114.774 114.657 114.644 114.778C114.513 114.89 114.448 115.03 114.448 115.198C114.448 115.394 114.532 115.553 114.7 115.674C114.877 115.795 115.152 115.931 115.526 116.08C115.899 116.229 116.207 116.374 116.45 116.514C116.692 116.654 116.898 116.85 117.066 117.102C117.243 117.345 117.332 117.648 117.332 118.012C117.332 118.385 117.234 118.735 117.038 119.062C116.851 119.379 116.562 119.641 116.17 119.846C115.778 120.042 115.297 120.14 114.728 120.14C114.056 120.14 113.36 120 112.642 119.72L112.852 118.264L113.034 118.152C113.323 118.395 113.645 118.591 114 118.74C114.354 118.88 114.667 118.95 114.938 118.95C115.19 118.95 115.386 118.889 115.526 118.768C115.666 118.637 115.736 118.483 115.736 118.306C115.736 118.11 115.647 117.951 115.47 117.83C115.302 117.709 115.031 117.573 114.658 117.424C114.275 117.256 113.962 117.107 113.72 116.976C113.477 116.836 113.267 116.64 113.09 116.388C112.922 116.136 112.838 115.823 112.838 115.45C112.838 114.843 113.066 114.349 113.524 113.966C113.981 113.574 114.602 113.378 115.386 113.378ZM121.137 113.364C121.855 113.364 122.415 113.527 122.817 113.854C123.227 114.171 123.433 114.619 123.433 115.198C123.433 115.366 123.405 115.898 123.349 116.794C123.339 117.055 123.325 117.326 123.307 117.606C123.288 117.877 123.279 118.11 123.279 118.306C123.279 118.465 123.302 118.577 123.349 118.642C123.395 118.698 123.479 118.726 123.601 118.726C123.694 118.726 123.815 118.707 123.965 118.67L124.105 118.782L123.937 119.762C123.638 119.958 123.297 120.075 122.915 120.112C122.635 120.084 122.401 119.986 122.215 119.818C122.028 119.641 121.902 119.398 121.837 119.09H121.739C121.272 119.585 120.791 119.93 120.297 120.126C119.625 120.117 119.097 119.939 118.715 119.594C118.332 119.249 118.141 118.777 118.141 118.18C118.141 117.713 118.257 117.349 118.491 117.088C118.733 116.817 119.097 116.635 119.583 116.542L121.725 116.136V115.562C121.725 114.955 121.426 114.652 120.829 114.652C120.539 114.652 120.231 114.717 119.905 114.848C119.587 114.979 119.228 115.184 118.827 115.464L118.687 115.38L118.477 114.148C118.878 113.896 119.307 113.705 119.765 113.574C120.222 113.434 120.679 113.364 121.137 113.364ZM120.227 117.396C120.077 117.433 119.965 117.499 119.891 117.592C119.825 117.676 119.793 117.807 119.793 117.984C119.793 118.227 119.858 118.418 119.989 118.558C120.119 118.689 120.301 118.754 120.535 118.754C120.899 118.754 121.281 118.539 121.683 118.11L121.711 117.074L120.227 117.396ZM129.618 113.378C130.253 113.378 130.85 113.485 131.41 113.7L131.158 115.072L130.934 115.142C130.664 114.965 130.393 114.829 130.122 114.736C129.852 114.643 129.614 114.596 129.408 114.596C129.184 114.596 129.007 114.657 128.876 114.778C128.746 114.89 128.68 115.03 128.68 115.198C128.68 115.394 128.764 115.553 128.932 115.674C129.11 115.795 129.385 115.931 129.758 116.08C130.132 116.229 130.44 116.374 130.682 116.514C130.925 116.654 131.13 116.85 131.298 117.102C131.476 117.345 131.564 117.648 131.564 118.012C131.564 118.385 131.466 118.735 131.27 119.062C131.084 119.379 130.794 119.641 130.402 119.846C130.01 120.042 129.53 120.14 128.96 120.14C128.288 120.14 127.593 120 126.874 119.72L127.084 118.264L127.266 118.152C127.556 118.395 127.878 118.591 128.232 118.74C128.587 118.88 128.9 118.95 129.17 118.95C129.422 118.95 129.618 118.889 129.758 118.768C129.898 118.637 129.968 118.483 129.968 118.306C129.968 118.11 129.88 117.951 129.702 117.83C129.534 117.709 129.264 117.573 128.89 117.424C128.508 117.256 128.195 117.107 127.952 116.976C127.71 116.836 127.5 116.64 127.322 116.388C127.154 116.136 127.07 115.823 127.07 115.45C127.07 114.843 127.299 114.349 127.756 113.966C128.214 113.574 128.834 113.378 129.618 113.378ZM135.369 113.364C136.088 113.364 136.648 113.527 137.049 113.854C137.46 114.171 137.665 114.619 137.665 115.198C137.665 115.366 137.637 115.898 137.581 116.794C137.572 117.055 137.558 117.326 137.539 117.606C137.521 117.877 137.511 118.11 137.511 118.306C137.511 118.465 137.535 118.577 137.581 118.642C137.628 118.698 137.712 118.726 137.833 118.726C137.927 118.726 138.048 118.707 138.197 118.67L138.337 118.782L138.169 119.762C137.871 119.958 137.53 120.075 137.147 120.112C136.867 120.084 136.634 119.986 136.447 119.818C136.261 119.641 136.135 119.398 136.069 119.09H135.971C135.505 119.585 135.024 119.93 134.529 120.126C133.857 120.117 133.33 119.939 132.947 119.594C132.565 119.249 132.373 118.777 132.373 118.18C132.373 117.713 132.49 117.349 132.723 117.088C132.966 116.817 133.33 116.635 133.815 116.542L135.957 116.136V115.562C135.957 114.955 135.659 114.652 135.061 114.652C134.772 114.652 134.464 114.717 134.137 114.848C133.82 114.979 133.461 115.184 133.059 115.464L132.919 115.38L132.709 114.148C133.111 113.896 133.54 113.705 133.997 113.574C134.455 113.434 134.912 113.364 135.369 113.364ZM134.459 117.396C134.31 117.433 134.198 117.499 134.123 117.592C134.058 117.676 134.025 117.807 134.025 117.984C134.025 118.227 134.091 118.418 134.221 118.558C134.352 118.689 134.534 118.754 134.767 118.754C135.131 118.754 135.514 118.539 135.915 118.11L135.943 117.074L134.459 117.396ZM137.665 110.732V110.886L136.685 112.132L136.503 112.202C136.251 112.174 135.864 112.085 135.341 111.936C135.295 111.927 135.141 111.889 134.879 111.824C134.627 111.749 134.45 111.712 134.347 111.712C134.245 111.712 134.142 111.754 134.039 111.838C133.946 111.922 133.843 112.025 133.731 112.146C133.619 112.267 133.535 112.361 133.479 112.426H133.311L132.751 111.88V111.726L133.745 110.48L133.913 110.41C134.137 110.438 134.534 110.531 135.103 110.69C135.626 110.83 135.948 110.9 136.069 110.9C136.181 110.9 136.289 110.853 136.391 110.76C136.503 110.667 136.615 110.559 136.727 110.438C136.839 110.317 136.914 110.233 136.951 110.186H137.119L137.665 110.732ZM142.249 113.364C143.201 113.364 143.929 113.644 144.433 114.204C144.937 114.764 145.189 115.571 145.189 116.626C145.189 117.765 144.919 118.637 144.377 119.244C143.836 119.841 143.057 120.14 142.039 120.14C141.087 120.14 140.359 119.86 139.855 119.3C139.351 118.74 139.099 117.933 139.099 116.878C139.099 115.739 139.37 114.871 139.911 114.274C140.453 113.667 141.232 113.364 142.249 113.364ZM142.123 114.624C141.675 114.624 141.349 114.773 141.143 115.072C140.947 115.371 140.849 115.851 140.849 116.514C140.849 117.373 140.952 117.984 141.157 118.348C141.363 118.712 141.699 118.894 142.165 118.894C142.613 118.894 142.935 118.749 143.131 118.46C143.337 118.161 143.439 117.676 143.439 117.004C143.439 116.155 143.332 115.548 143.117 115.184C142.912 114.811 142.581 114.624 142.123 114.624ZM22.4717 129.378C23.1064 129.378 23.7037 129.485 24.2637 129.7L24.0117 131.072L23.7877 131.142C23.517 130.965 23.2464 130.829 22.9757 130.736C22.705 130.643 22.467 130.596 22.2617 130.596C22.0377 130.596 21.8604 130.657 21.7297 130.778C21.599 130.89 21.5337 131.03 21.5337 131.198C21.5337 131.394 21.6177 131.553 21.7857 131.674C21.963 131.795 22.2384 131.931 22.6117 132.08C22.985 132.229 23.293 132.374 23.5357 132.514C23.7784 132.654 23.9837 132.85 24.1517 133.102C24.329 133.345 24.4177 133.648 24.4177 134.012C24.4177 134.385 24.3197 134.735 24.1237 135.062C23.937 135.379 23.6477 135.641 23.2557 135.846C22.8637 136.042 22.383 136.14 21.8137 136.14C21.1417 136.14 20.4464 136 19.7277 135.72L19.9377 134.264L20.1197 134.152C20.409 134.395 20.731 134.591 21.0857 134.74C21.4404 134.88 21.753 134.95 22.0237 134.95C22.2757 134.95 22.4717 134.889 22.6117 134.768C22.7517 134.637 22.8217 134.483 22.8217 134.306C22.8217 134.11 22.733 133.951 22.5557 133.83C22.3877 133.709 22.117 133.573 21.7437 133.424C21.361 133.256 21.0484 133.107 20.8057 132.976C20.563 132.836 20.353 132.64 20.1757 132.388C20.0077 132.136 19.9237 131.823 19.9237 131.45C19.9237 130.843 20.1524 130.349 20.6097 129.966C21.067 129.574 21.6877 129.378 22.4717 129.378ZM25.7867 133.312L25.7167 129.616L27.5507 129.462L27.4667 133.13L27.5507 136H25.6887L25.7867 133.312ZM26.6687 126.298C26.9581 126.298 27.1821 126.382 27.3407 126.55C27.5087 126.718 27.5927 126.951 27.5927 127.25C27.5927 127.567 27.5041 127.819 27.3267 128.006C27.1494 128.193 26.9067 128.286 26.5987 128.286C26.2907 128.286 26.0527 128.202 25.8847 128.034C25.7261 127.866 25.6467 127.628 25.6467 127.32C25.6467 127.012 25.7354 126.765 25.9127 126.578C26.0994 126.391 26.3514 126.298 26.6687 126.298ZM33.3151 131.94C33.3245 131.613 33.2498 131.361 33.0911 131.184C32.9418 130.997 32.7225 130.904 32.4331 130.904C32.0131 130.904 31.5651 131.105 31.0891 131.506V133.13L31.1731 136H29.3111L29.4091 133.312L29.3391 129.616L31.1031 129.462V130.414H31.2011C31.7145 129.947 32.2745 129.611 32.8811 129.406C33.5905 129.406 34.1318 129.569 34.5051 129.896C34.8785 130.213 35.0558 130.675 35.0371 131.282L34.9951 133.144L35.0791 136H33.2031L33.3151 131.94ZM39.2833 129.364C40.0019 129.364 40.5619 129.527 40.9633 129.854C41.3739 130.171 41.5793 130.619 41.5793 131.198C41.5793 131.366 41.5513 131.898 41.4953 132.794C41.4859 133.055 41.4719 133.326 41.4533 133.606C41.4346 133.877 41.4253 134.11 41.4253 134.306C41.4253 134.465 41.4486 134.577 41.4953 134.642C41.5419 134.698 41.6259 134.726 41.7473 134.726C41.8406 134.726 41.9619 134.707 42.1113 134.67L42.2513 134.782L42.0833 135.762C41.7846 135.958 41.4439 136.075 41.0613 136.112C40.7813 136.084 40.5479 135.986 40.3613 135.818C40.1746 135.641 40.0486 135.398 39.9833 135.09H39.8853C39.4186 135.585 38.9379 135.93 38.4433 136.126C37.7713 136.117 37.2439 135.939 36.8613 135.594C36.4786 135.249 36.2873 134.777 36.2873 134.18C36.2873 133.713 36.4039 133.349 36.6373 133.088C36.8799 132.817 37.2439 132.635 37.7293 132.542L39.8713 132.136V131.562C39.8713 130.955 39.5726 130.652 38.9753 130.652C38.6859 130.652 38.3779 130.717 38.0513 130.848C37.7339 130.979 37.3746 131.184 36.9733 131.464L36.8333 131.38L36.6233 130.148C37.0246 129.896 37.4539 129.705 37.9113 129.574C38.3686 129.434 38.8259 129.364 39.2833 129.364ZM38.3733 133.396C38.2239 133.433 38.1119 133.499 38.0373 133.592C37.9719 133.676 37.9393 133.807 37.9393 133.984C37.9393 134.227 38.0046 134.418 38.1353 134.558C38.2659 134.689 38.4479 134.754 38.6813 134.754C39.0453 134.754 39.4279 134.539 39.8293 134.11L39.8573 133.074L38.3733 133.396ZM43.5875 133.312L43.5175 129.616L45.3515 129.462L45.2675 133.13L45.3515 136H43.4895L43.5875 133.312ZM44.4695 126.298C44.7588 126.298 44.9828 126.382 45.1415 126.55C45.3095 126.718 45.3935 126.951 45.3935 127.25C45.3935 127.567 45.3048 127.819 45.1275 128.006C44.9502 128.193 44.7075 128.286 44.3995 128.286C44.0915 128.286 43.8535 128.202 43.6855 128.034C43.5268 127.866 43.4475 127.628 43.4475 127.32C43.4475 127.012 43.5362 126.765 43.7135 126.578C43.9002 126.391 44.1522 126.298 44.4695 126.298ZM49.2959 129.378C49.9306 129.378 50.5279 129.485 51.0879 129.7L50.8359 131.072L50.6119 131.142C50.3412 130.965 50.0706 130.829 49.7999 130.736C49.5292 130.643 49.2912 130.596 49.0859 130.596C48.8619 130.596 48.6846 130.657 48.5539 130.778C48.4232 130.89 48.3579 131.03 48.3579 131.198C48.3579 131.394 48.4419 131.553 48.6099 131.674C48.7872 131.795 49.0626 131.931 49.4359 132.08C49.8092 132.229 50.1172 132.374 50.3599 132.514C50.6026 132.654 50.8079 132.85 50.9759 133.102C51.1532 133.345 51.2419 133.648 51.2419 134.012C51.2419 134.385 51.1439 134.735 50.9479 135.062C50.7612 135.379 50.4719 135.641 50.0799 135.846C49.6879 136.042 49.2072 136.14 48.6379 136.14C47.9659 136.14 47.2706 136 46.5519 135.72L46.7619 134.264L46.9439 134.152C47.2332 134.395 47.5552 134.591 47.9099 134.74C48.2646 134.88 48.5772 134.95 48.8479 134.95C49.0999 134.95 49.2959 134.889 49.4359 134.768C49.5759 134.637 49.6459 134.483 49.6459 134.306C49.6459 134.11 49.5572 133.951 49.3799 133.83C49.2119 133.709 48.9412 133.573 48.5679 133.424C48.1852 133.256 47.8726 133.107 47.6299 132.976C47.3872 132.836 47.1772 132.64 46.9999 132.388C46.8319 132.136 46.7479 131.823 46.7479 131.45C46.7479 130.843 46.9766 130.349 47.4339 129.966C47.8912 129.574 48.5119 129.378 49.2959 129.378ZM60.0361 133.13L60.0781 134.306C60.0781 134.465 60.0968 134.577 60.1341 134.642C60.1808 134.698 60.2601 134.726 60.3721 134.726C60.4748 134.726 60.6008 134.707 60.7501 134.67L60.8761 134.782L60.7221 135.762C60.4048 135.958 60.0594 136.075 59.6861 136.112C59.3968 136.084 59.1541 135.986 58.9581 135.818C58.7621 135.65 58.6268 135.421 58.5521 135.132H58.4401C57.9828 135.552 57.5161 135.874 57.0401 136.098C56.1254 136.098 55.4161 135.809 54.9121 135.23C54.4081 134.642 54.1561 133.83 54.1561 132.794C54.1561 131.693 54.4454 130.848 55.0241 130.26C55.6028 129.672 56.4054 129.378 57.4321 129.378C57.7028 129.378 58.0014 129.406 58.3281 129.462L58.3001 126.312L60.1481 126.172L60.0361 133.13ZM57.3061 130.638C56.3728 130.638 55.9061 131.231 55.9061 132.416C55.9061 133.153 56.0181 133.709 56.2421 134.082C56.4661 134.455 56.7928 134.642 57.2221 134.642C57.6328 134.642 58.0108 134.451 58.3561 134.068L58.3841 133.298L58.3421 130.89C57.9781 130.722 57.6328 130.638 57.3061 130.638ZM67.0132 132.976L63.2332 133.004C63.3172 134.171 63.9099 134.754 65.0112 134.754C65.5899 134.754 66.2339 134.591 66.9432 134.264L67.0972 134.362L66.8172 135.748C66.1079 136.009 65.4406 136.14 64.8152 136.14C63.7886 136.14 62.9812 135.841 62.3932 135.244C61.8146 134.647 61.5252 133.821 61.5252 132.766C61.5252 131.721 61.8099 130.895 62.3792 130.288C62.9486 129.672 63.7186 129.364 64.6892 129.364C65.5199 129.364 66.1592 129.593 66.6072 130.05C67.0646 130.498 67.2932 131.128 67.2932 131.94C67.2932 132.155 67.2699 132.425 67.2232 132.752L67.0132 132.976ZM65.6692 131.73C65.6692 131.357 65.5852 131.077 65.4172 130.89C65.2492 130.694 65.0019 130.596 64.6752 130.596C64.3112 130.596 64.0079 130.717 63.7652 130.96C63.5226 131.193 63.3592 131.534 63.2752 131.982L65.6412 131.926L65.6692 131.73ZM74.7559 131.94C74.7652 131.604 74.6952 131.347 74.5459 131.17C74.3966 130.993 74.1772 130.904 73.8879 130.904C73.4679 130.904 73.0199 131.105 72.5439 131.506L72.5159 133.13L72.6139 136H70.7519L70.8499 133.298L70.7659 126.312L72.6279 126.172L72.5579 130.414H72.6419C73.1552 129.947 73.7199 129.611 74.3359 129.406C75.0452 129.406 75.5819 129.569 75.9459 129.896C76.3192 130.213 76.5012 130.675 76.4919 131.282L76.4499 133.144L76.5199 136H74.6579L74.7559 131.94ZM78.2867 133.312L78.2167 129.616L80.0507 129.462L79.9667 133.13L80.0507 136H78.1887L78.2867 133.312ZM79.1687 126.298C79.4581 126.298 79.6821 126.382 79.8407 126.55C80.0087 126.718 80.0927 126.951 80.0927 127.25C80.0927 127.567 80.0041 127.819 79.8267 128.006C79.6494 128.193 79.4067 128.286 79.0987 128.286C78.7907 128.286 78.5527 128.202 78.3847 128.034C78.2261 127.866 78.1467 127.628 78.1467 127.32C78.1467 127.012 78.2354 126.765 78.4127 126.578C78.5994 126.391 78.8514 126.298 79.1687 126.298ZM85.2004 129.406C86.0124 129.406 86.6378 129.681 87.0764 130.232C87.5151 130.783 87.7344 131.562 87.7344 132.57C87.7344 133.709 87.4498 134.591 86.8804 135.216C86.3204 135.832 85.5271 136.14 84.5004 136.14C84.2018 136.14 83.8891 136.112 83.5624 136.056L83.6044 138.59H81.7564L81.8544 133.312L81.7704 129.616L83.5484 129.462L83.5344 130.414H83.6324C83.8938 130.162 84.1458 129.961 84.3884 129.812C84.6311 129.653 84.9018 129.518 85.2004 129.406ZM84.5144 134.922C84.9998 134.922 85.3684 134.749 85.6204 134.404C85.8724 134.059 85.9984 133.55 85.9984 132.878C85.9984 132.225 85.8911 131.735 85.6764 131.408C85.4711 131.072 85.1631 130.904 84.7524 130.904C84.3511 130.904 83.9451 131.105 83.5344 131.506L83.5204 133.13L83.5484 134.712C83.8844 134.852 84.2064 134.922 84.5144 134.922ZM94.0425 132.976L90.2625 133.004C90.3465 134.171 90.9392 134.754 92.0405 134.754C92.6192 134.754 93.2632 134.591 93.9725 134.264L94.1265 134.362L93.8465 135.748C93.1372 136.009 92.4699 136.14 91.8445 136.14C90.8179 136.14 90.0105 135.841 89.4225 135.244C88.8439 134.647 88.5545 133.821 88.5545 132.766C88.5545 131.721 88.8392 130.895 89.4085 130.288C89.9779 129.672 90.7479 129.364 91.7185 129.364C92.5492 129.364 93.1885 129.593 93.6365 130.05C94.0939 130.498 94.3225 131.128 94.3225 131.94C94.3225 132.155 94.2992 132.425 94.2525 132.752L94.0425 132.976ZM92.6985 131.73C92.6985 131.357 92.6145 131.077 92.4465 130.89C92.2785 130.694 92.0312 130.596 91.7045 130.596C91.3405 130.596 91.0372 130.717 90.7945 130.96C90.5519 131.193 90.3885 131.534 90.3045 131.982L92.6705 131.926L92.6985 131.73ZM99.204 129.476C99.288 129.476 99.4047 129.485 99.554 129.504V131.226L99.358 131.296C99.1994 131.231 99.0267 131.198 98.84 131.198C98.2987 131.198 97.8087 131.548 97.37 132.248V133.13L97.468 136H95.606L95.718 133.312L95.634 129.616L97.398 129.462L97.384 130.736H97.496C97.9534 129.896 98.5227 129.476 99.204 129.476ZM106.677 130.372C106.425 130.437 106.065 130.507 105.599 130.582L105.571 130.638C105.711 130.918 105.781 131.231 105.781 131.576C105.781 132.276 105.524 132.836 105.011 133.256C104.507 133.667 103.821 133.872 102.953 133.872C102.691 133.872 102.421 133.849 102.141 133.802C102.057 133.886 102.001 133.951 101.973 133.998C101.945 134.045 101.931 134.101 101.931 134.166C101.931 134.334 102.043 134.451 102.267 134.516C102.491 134.581 102.845 134.647 103.331 134.712C103.881 134.777 104.339 134.857 104.703 134.95C105.076 135.043 105.393 135.207 105.655 135.44C105.925 135.673 106.061 136.005 106.061 136.434C106.061 136.873 105.921 137.265 105.641 137.61C105.37 137.965 104.992 138.24 104.507 138.436C104.021 138.632 103.471 138.73 102.855 138.73C102.005 138.73 101.352 138.557 100.895 138.212C100.437 137.867 100.209 137.409 100.209 136.84C100.498 136.439 100.885 136.089 101.371 135.79V135.72C101.053 135.608 100.806 135.454 100.629 135.258C100.451 135.053 100.363 134.782 100.363 134.446C100.615 134.138 100.932 133.853 101.315 133.592V133.522C100.979 133.335 100.722 133.093 100.545 132.794C100.377 132.486 100.293 132.127 100.293 131.716C100.293 130.988 100.545 130.419 101.049 130.008C101.553 129.597 102.239 129.392 103.107 129.392C103.611 129.392 104.068 129.476 104.479 129.644C105.151 129.523 105.837 129.336 106.537 129.084L106.677 129.21V130.372ZM103.009 132.752C103.391 132.752 103.681 132.654 103.877 132.458C104.073 132.262 104.171 131.977 104.171 131.604C104.171 130.895 103.807 130.54 103.079 130.54C102.295 130.54 101.903 130.899 101.903 131.618C101.903 131.991 101.996 132.276 102.183 132.472C102.369 132.659 102.645 132.752 103.009 132.752ZM104.493 136.77C104.493 136.518 104.357 136.345 104.087 136.252C103.825 136.159 103.419 136.079 102.869 136.014L102.393 135.944C102.169 136.093 102.001 136.238 101.889 136.378C101.777 136.518 101.721 136.667 101.721 136.826C101.721 137.069 101.833 137.265 102.057 137.414C102.281 137.563 102.607 137.638 103.037 137.638C103.475 137.638 103.825 137.559 104.087 137.4C104.357 137.251 104.493 137.041 104.493 136.77ZM109.239 133.13L109.337 136H107.475L107.573 133.298L107.489 126.312L109.351 126.172L109.239 133.13ZM111.222 133.312L111.152 129.616L112.986 129.462L112.902 133.13L112.986 136H111.124L111.222 133.312ZM112.104 126.298C112.394 126.298 112.618 126.382 112.776 126.55C112.944 126.718 113.028 126.951 113.028 127.25C113.028 127.567 112.94 127.819 112.762 128.006C112.585 128.193 112.342 128.286 112.034 128.286C111.726 128.286 111.488 128.202 111.32 128.034C111.162 127.866 111.082 127.628 111.082 127.32C111.082 127.012 111.171 126.765 111.348 126.578C111.535 126.391 111.787 126.298 112.104 126.298ZM117.421 129.364C117.729 129.364 118.032 129.397 118.331 129.462C118.639 129.518 118.909 129.602 119.143 129.714L118.835 131.198L118.681 131.268C118.205 131.007 117.78 130.876 117.407 130.876C116.977 130.876 116.646 131.03 116.413 131.338C116.179 131.646 116.063 132.085 116.063 132.654C116.063 133.307 116.189 133.807 116.441 134.152C116.693 134.497 117.052 134.67 117.519 134.67C117.939 134.67 118.405 134.553 118.919 134.32L119.059 134.432L118.877 135.874C118.317 136.051 117.743 136.14 117.155 136.14C116.259 136.14 115.559 135.851 115.055 135.272C114.551 134.684 114.299 133.867 114.299 132.822C114.299 131.739 114.574 130.895 115.125 130.288C115.675 129.672 116.441 129.364 117.421 129.364ZM125.173 132.976L121.393 133.004C121.477 134.171 122.07 134.754 123.171 134.754C123.75 134.754 124.394 134.591 125.103 134.264L125.257 134.362L124.977 135.748C124.268 136.009 123.601 136.14 122.975 136.14C121.949 136.14 121.141 135.841 120.553 135.244C119.975 134.647 119.685 133.821 119.685 132.766C119.685 131.721 119.97 130.895 120.539 130.288C121.109 129.672 121.879 129.364 122.849 129.364C123.68 129.364 124.319 129.593 124.767 130.05C125.225 130.498 125.453 131.128 125.453 131.94C125.453 132.155 125.43 132.425 125.383 132.752L125.173 132.976ZM123.829 131.73C123.829 131.357 123.745 131.077 123.577 130.89C123.409 130.694 123.162 130.596 122.835 130.596C122.471 130.596 122.168 130.717 121.925 130.96C121.683 131.193 121.519 131.534 121.435 131.982L123.801 131.926L123.829 131.73ZM134.535 136L134.647 131.94C134.647 131.249 134.353 130.904 133.765 130.904C133.345 130.904 132.906 131.091 132.449 131.464L132.407 133.144L132.491 136H130.629L130.741 131.94C130.75 131.604 130.676 131.347 130.517 131.17C130.368 130.993 130.148 130.904 129.859 130.904C129.448 130.904 128.996 131.1 128.501 131.492V133.13L128.585 136H126.737L126.835 133.312L126.765 129.616L128.515 129.462V130.414H128.613C129.126 129.947 129.691 129.611 130.307 129.406C131.352 129.406 132.02 129.756 132.309 130.456H132.393C132.925 129.961 133.532 129.611 134.213 129.406C134.922 129.406 135.459 129.569 135.823 129.896C136.196 130.213 136.374 130.675 136.355 131.282L136.313 133.144L136.397 136H134.535ZM138.156 133.312L138.086 129.616L139.92 129.462L139.836 133.13L139.92 136H138.058L138.156 133.312ZM139.038 126.298C139.327 126.298 139.551 126.382 139.71 126.55C139.878 126.718 139.962 126.951 139.962 127.25C139.962 127.567 139.873 127.819 139.696 128.006C139.519 128.193 139.276 128.286 138.968 128.286C138.66 128.286 138.422 128.202 138.254 128.034C138.095 127.866 138.016 127.628 138.016 127.32C138.016 127.012 138.105 126.765 138.282 126.578C138.469 126.391 138.721 126.298 139.038 126.298ZM144.242 129.364C144.961 129.364 145.521 129.527 145.922 129.854C146.333 130.171 146.538 130.619 146.538 131.198C146.538 131.366 146.51 131.898 146.454 132.794C146.445 133.055 146.431 133.326 146.412 133.606C146.394 133.877 146.384 134.11 146.384 134.306C146.384 134.465 146.408 134.577 146.454 134.642C146.501 134.698 146.585 134.726 146.706 134.726C146.8 134.726 146.921 134.707 147.07 134.67L147.21 134.782L147.042 135.762C146.744 135.958 146.403 136.075 146.02 136.112C145.74 136.084 145.507 135.986 145.32 135.818C145.134 135.641 145.008 135.398 144.942 135.09H144.844C144.378 135.585 143.897 135.93 143.402 136.126C142.73 136.117 142.203 135.939 141.82 135.594C141.438 135.249 141.246 134.777 141.246 134.18C141.246 133.713 141.363 133.349 141.596 133.088C141.839 132.817 142.203 132.635 142.688 132.542L144.83 132.136V131.562C144.83 130.955 144.532 130.652 143.934 130.652C143.645 130.652 143.337 130.717 143.01 130.848C142.693 130.979 142.334 131.184 141.932 131.464L141.792 131.38L141.582 130.148C141.984 129.896 142.413 129.705 142.87 129.574C143.328 129.434 143.785 129.364 144.242 129.364ZM143.332 133.396C143.183 133.433 143.071 133.499 142.996 133.592C142.931 133.676 142.898 133.807 142.898 133.984C142.898 134.227 142.964 134.418 143.094 134.558C143.225 134.689 143.407 134.754 143.64 134.754C144.004 134.754 144.387 134.539 144.788 134.11L144.816 133.074L143.332 133.396Z" fill="white"/>
<defs>
<filter id="filter0_b_206:37334" x="3" y="67" width="161" height="97" filterUnits="userSpaceOnUse" color-interpolation-filters="sRGB">
<feFlood flood-opacity="0" result="BackgroundImageFix"/>
<feGaussianBlur in="BackgroundImage" stdDeviation="5"/>
<feComposite in2="SourceAlpha" operator="in" result="effect1_backgroundBlur_206:37334"/>
<feBlend mode="normal" in="SourceGraphic" in2="effect1_backgroundBlur_206:37334" result="shape"/>
</filter>
</defs>
</svg>
