<svg width="167" height="167" viewBox="0 0 167 167" fill="none" xmlns="http://www.w3.org/2000/svg">
<mask id="mask0_206:37286" style="mask-type:alpha" maskUnits="userSpaceOnUse" x="0" y="0" width="167" height="167">
<rect x="1" y="1" width="165" height="165" rx="8" fill="#5988D6" stroke="#EDE6FC" stroke-opacity="0.3"/>
</mask>
<g mask="url(#mask0_206:37286)">
<rect x="1" y="1" width="165" height="165" rx="8" fill="#FAE28B" stroke="#EDE6FC" stroke-opacity="0.3"/>
<path d="M62.673 59.4643C61.5498 55.0969 50.9647 48.8241 53.7276 44.4216C55.4775 41.6337 69.387 53.7431 69.387 53.7431C75.8103 52.2137 76.9084 41.7791 75.5946 36.474C73.8948 29.4842 72.1348 22.5295 71.3977 15.4494C71.3003 14.8007 71.2651 14.1442 71.2924 13.4888C71.3655 12.1837 71.5483 10.8872 71.839 9.61279C72.215 8.17371 73.3683 7.47673 74.8475 7.49177C75.4612 7.51831 76.0501 7.74115 76.5276 8.1275C77.0051 8.51384 77.346 9.04327 77.5001 9.63786C77.9313 11.2023 78.2221 12.8069 78.5731 14.3914C79.1247 16.8584 79.601 19.3404 80.2428 21.7773C81.1554 25.2271 82.2235 28.6368 83.1561 32.0816C83.462 33.2048 83.9082 34.1575 85.0364 34.5887C85.5645 34.7295 86.1055 34.8168 86.651 34.8494C86.7734 34.3578 86.8274 33.8516 86.8115 33.3452C86.3077 30.1014 86.0979 26.8188 86.1847 23.5373C86.2449 19.3905 86.5608 15.2438 86.8867 11.107C87.0307 9.61247 87.3367 8.13798 87.7993 6.70954C88.2205 5.33564 89.9705 4.46317 91.3343 4.73394C92.0544 4.88855 92.6983 5.28876 93.1557 5.86599C93.6131 6.44323 93.8555 7.16157 93.8414 7.89792C93.8414 10.1543 93.8013 12.4107 93.8916 14.6621C94.0069 17.4049 94.2727 20.1377 94.393 22.8754C94.4983 24.9564 94.5635 27.0423 94.5635 29.1282C94.5635 30.5573 94.388 31.9863 94.3429 33.4204C94.3335 33.8536 94.4587 34.2791 94.7011 34.6383C94.9436 34.9975 95.2914 35.2727 95.6967 35.4261C96.7948 35.9676 97.0405 35.8021 97.2762 34.6138C97.6445 32.51 98.1198 30.4264 98.7002 28.371C99.1615 26.8668 100.074 25.533 100.666 24.0738C102.085 20.5639 103.424 17.0138 104.823 13.4938C105.039 12.9548 105.329 12.4485 105.685 11.9895C105.952 11.6459 106.294 11.3677 106.685 11.1764C107.077 10.9851 107.506 10.8857 107.941 10.8857C108.377 10.8857 108.806 10.9851 109.197 11.1764C109.588 11.3677 109.931 11.6459 110.198 11.9895C110.523 12.3547 110.753 12.7934 110.87 13.2678C110.988 13.7422 110.987 14.238 110.87 14.7123C110.694 15.3942 110.559 16.0862 110.368 16.7631C109.666 19.0596 108.939 21.3511 108.232 23.6476C107.355 26.5057 106.527 29.3739 105.59 32.2119C104.968 34.1023 104.176 35.9325 103.504 37.8078C103.251 38.3315 103.144 38.9133 103.193 39.4926C103.302 39.9035 103.517 40.2784 103.818 40.5792C104.118 40.88 104.493 41.0961 104.903 41.2055C105.314 41.3149 105.747 41.3139 106.157 41.2024C106.567 41.0909 106.941 40.873 107.239 40.5707C108.593 39.2068 109.912 37.8128 111.251 36.4339C113.818 33.7458 116.196 30.8824 118.366 27.8646C118.861 27.2053 119.407 26.5865 120.001 26.0143C120.42 25.5671 120.977 25.2744 121.583 25.1834C122.189 25.0924 122.808 25.2085 123.34 25.5129C123.872 25.8224 124.28 26.3053 124.498 26.8806C124.715 27.4558 124.728 28.0884 124.534 28.6719C124.154 29.8536 123.65 30.9916 123.029 32.0665C120.47 36.3122 117.506 40.3003 114.179 43.9753C112.966 45.2729 111.953 46.743 111.171 48.3377C109.862 51.2159 109.255 54.3548 108.664 57.4436C108.136 60.3583 107.433 63.2384 106.558 66.068C105.956 67.9033 104.767 69.5479 103.88 71.2929C102.506 74.0056 101.102 76.6932 98.9861 78.9296C98.7581 79.1828 98.5871 79.482 98.4846 79.8071C98.0785 81.0456 98.1888 82.6652 97.908 83.9338C97.5214 85.3867 97.3011 86.8788 97.2511 88.3814C97.1495 92.4401 96.8332 96.4906 96.3034 100.516C95.9123 103.815 95.9173 105.455 95.5162 108.067C94.8894 112.199 94.4482 116.591 93.7211 120.693C93.3801 122.619 93.2197 124.634 92.9339 126.58C92.6731 128.41 92.3472 129.894 92.282 131.288C92.0855 133.619 69.8884 253.073 69.387 255.357L39.7529 255.402C39.7529 255.402 73.604 91.4401 74.2207 88.7675C75.008 85.3227 75.6949 81.8529 76.3167 78.373C76.5524 77.0693 76.7579 76.1767 76.5975 75.4246C71.6434 75.3544 63.7811 63.7816 62.673 59.4643Z" fill="url(#paint0_linear_206:37286)"/>
<path d="M117.166 71.5188L114.701 66.59L119.22 63.7148L117.166 58.3751L121.684 54.8839L119.22 48.7228L124.559 47.4906L122.711 41.1241L128.05 39.4812V33.3202" stroke="#AD9335" stroke-width="2"/>
<path d="M55.9656 73.5726L57.1979 65.3579H51.4476V58.1699L46.3132 55.5001L47.9563 48.1068M60.0731 12.5778L66.4396 16.8905L61.9214 21.8194L68.2879 25.7215L64.7966 31.6772L68.2879 33.5255L66.4396 38.0436" stroke="#AD9335" stroke-width="2"/>
</g>
<g filter="url(#filter0_b_206:37286)">
<rect x="13" y="77" width="141" height="77" rx="10" fill="black" fill-opacity="0.8"/>
</g>
<path d="M27.0398 94.872C27.8051 94.872 28.5658 95.026 29.3218 95.334L29.0138 96.972L28.7338 97.084C28.4165 96.86 28.0851 96.6827 27.7398 96.552C27.4038 96.4213 27.0958 96.356 26.8158 96.356C26.4425 96.356 26.1438 96.4587 25.9198 96.664C25.6958 96.86 25.5838 97.0887 25.5838 97.35C25.5838 97.6207 25.7051 97.8493 25.9478 98.036C26.1998 98.2227 26.5918 98.442 27.1238 98.694C27.6371 98.9273 28.0525 99.1467 28.3698 99.352C28.6965 99.548 28.9718 99.8093 29.1958 100.136C29.4291 100.463 29.5458 100.864 29.5458 101.34C29.5458 101.853 29.4058 102.325 29.1258 102.754C28.8458 103.174 28.4491 103.51 27.9358 103.762C27.4225 104.005 26.8298 104.126 26.1578 104.126C25.2711 104.126 24.3798 103.935 23.4838 103.552L23.7498 101.788L23.9598 101.676C24.3331 102.003 24.7391 102.255 25.1778 102.432C25.6258 102.6 26.0225 102.684 26.3678 102.684C26.7785 102.684 27.0958 102.586 27.3198 102.39C27.5531 102.185 27.6698 101.942 27.6698 101.662C27.6698 101.363 27.5438 101.121 27.2918 100.934C27.0491 100.747 26.6525 100.523 26.1018 100.262C25.5978 100.038 25.1871 99.828 24.8698 99.632C24.5525 99.436 24.2818 99.1747 24.0578 98.848C23.8338 98.5213 23.7218 98.1247 23.7218 97.658C23.7218 97.1353 23.8618 96.664 24.1418 96.244C24.4218 95.8147 24.8138 95.4787 25.3178 95.236C25.8218 94.9933 26.3958 94.872 27.0398 94.872ZM33.3597 97.364C34.3117 97.364 35.0397 97.644 35.5437 98.204C36.0477 98.764 36.2997 99.5713 36.2997 100.626C36.2997 101.765 36.029 102.637 35.4877 103.244C34.9464 103.841 34.167 104.14 33.1497 104.14C32.1977 104.14 31.4697 103.86 30.9657 103.3C30.4617 102.74 30.2097 101.933 30.2097 100.878C30.2097 99.7393 30.4804 98.8713 31.0217 98.274C31.563 97.6673 32.3424 97.364 33.3597 97.364ZM33.2337 98.624C32.7857 98.624 32.459 98.7733 32.2537 99.072C32.0577 99.3707 31.9597 99.8513 31.9597 100.514C31.9597 101.373 32.0624 101.984 32.2677 102.348C32.473 102.712 32.809 102.894 33.2757 102.894C33.7237 102.894 34.0457 102.749 34.2417 102.46C34.447 102.161 34.5497 101.676 34.5497 101.004C34.5497 100.155 34.4424 99.548 34.2277 99.184C34.0224 98.8107 33.691 98.624 33.2337 98.624ZM41.4976 99.94C41.507 99.6133 41.4323 99.3613 41.2736 99.184C41.1243 98.9973 40.905 98.904 40.6156 98.904C40.1956 98.904 39.7476 99.1047 39.2716 99.506V101.13L39.3556 104H37.4936L37.5916 101.312L37.5216 97.616L39.2856 97.462V98.414H39.3836C39.897 97.9473 40.457 97.6113 41.0636 97.406C41.773 97.406 42.3143 97.5693 42.6876 97.896C43.061 98.2133 43.2383 98.6753 43.2196 99.282L43.1776 101.144L43.2616 104H41.3856L41.4976 99.94ZM47.6058 97.364C48.5578 97.364 49.2858 97.644 49.7898 98.204C50.2938 98.764 50.5458 99.5713 50.5458 100.626C50.5458 101.765 50.2751 102.637 49.7338 103.244C49.1925 103.841 48.4131 104.14 47.3958 104.14C46.4438 104.14 45.7158 103.86 45.2118 103.3C44.7078 102.74 44.4558 101.933 44.4558 100.878C44.4558 99.7393 44.7265 98.8713 45.2678 98.274C45.8091 97.6673 46.5885 97.364 47.6058 97.364ZM47.4798 98.624C47.0318 98.624 46.7051 98.7733 46.4998 99.072C46.3038 99.3707 46.2058 99.8513 46.2058 100.514C46.2058 101.373 46.3085 101.984 46.5138 102.348C46.7191 102.712 47.0551 102.894 47.5218 102.894C47.9698 102.894 48.2918 102.749 48.4878 102.46C48.6931 102.161 48.7958 101.676 48.7958 101.004C48.7958 100.155 48.6885 99.548 48.4738 99.184C48.2685 98.8107 47.9371 98.624 47.4798 98.624ZM53.6418 101.13L53.7398 104H51.8778L51.9758 101.298L51.8918 94.312L53.7538 94.172L53.6418 101.13ZM60.5395 100.976L56.7595 101.004C56.8435 102.171 57.4362 102.754 58.5375 102.754C59.1162 102.754 59.7602 102.591 60.4695 102.264L60.6235 102.362L60.3435 103.748C59.6342 104.009 58.9668 104.14 58.3415 104.14C57.3148 104.14 56.5075 103.841 55.9195 103.244C55.3408 102.647 55.0515 101.821 55.0515 100.766C55.0515 99.7207 55.3362 98.8947 55.9055 98.288C56.4748 97.672 57.2448 97.364 58.2155 97.364C59.0462 97.364 59.6855 97.5927 60.1335 98.05C60.5908 98.498 60.8195 99.128 60.8195 99.94C60.8195 100.155 60.7962 100.425 60.7495 100.752L60.5395 100.976ZM59.1955 99.73C59.1955 99.3567 59.1115 99.0767 58.9435 98.89C58.7755 98.694 58.5282 98.596 58.2015 98.596C57.8375 98.596 57.5342 98.7173 57.2915 98.96C57.0488 99.1933 56.8855 99.534 56.8015 99.982L59.1675 99.926L59.1955 99.73ZM55.9055 95.936C56.4375 95.4507 57.0955 94.7927 57.8795 93.962H58.2855C59.0135 94.7647 59.6668 95.4227 60.2455 95.936L59.7835 96.65H59.6015C58.9855 96.1647 58.4768 95.7353 58.0755 95.362C57.7115 95.7073 57.2075 96.1367 56.5635 96.65H56.3815L55.9055 95.936ZM66.107 99.94C66.1164 99.6133 66.0417 99.3613 65.883 99.184C65.7337 98.9973 65.5144 98.904 65.225 98.904C64.805 98.904 64.357 99.1047 63.881 99.506V101.13L63.965 104H62.103L62.201 101.312L62.131 97.616L63.895 97.462V98.414H63.993C64.5064 97.9473 65.0664 97.6113 65.673 97.406C66.3824 97.406 66.9237 97.5693 67.297 97.896C67.6704 98.2133 67.8477 98.6753 67.829 99.282L67.787 101.144L67.871 104H65.995L66.107 99.94ZM72.1872 97.364C72.4952 97.364 72.7985 97.3967 73.0972 97.462C73.4052 97.518 73.6758 97.602 73.9092 97.714L73.6012 99.198L73.4472 99.268C72.9712 99.0067 72.5465 98.876 72.1732 98.876C71.7438 98.876 71.4125 99.03 71.1792 99.338C70.9458 99.646 70.8292 100.085 70.8292 100.654C70.8292 101.307 70.9552 101.807 71.2072 102.152C71.4592 102.497 71.8185 102.67 72.2852 102.67C72.7052 102.67 73.1718 102.553 73.6852 102.32L73.8252 102.432L73.6432 103.874C73.0832 104.051 72.5092 104.14 71.9212 104.14C71.0252 104.14 70.3252 103.851 69.8212 103.272C69.3172 102.684 69.0652 101.867 69.0652 100.822C69.0652 99.7393 69.3405 98.8947 69.8912 98.288C70.4418 97.672 71.2072 97.364 72.1872 97.364ZM75.0259 101.312L74.9559 97.616L76.7899 97.462L76.7059 101.13L76.7899 104H74.9279L75.0259 101.312ZM75.9079 94.298C76.1972 94.298 76.4212 94.382 76.5799 94.55C76.7479 94.718 76.8319 94.9513 76.8319 95.25C76.8319 95.5673 76.7432 95.8193 76.5659 96.006C76.3886 96.1927 76.1459 96.286 75.8379 96.286C75.5299 96.286 75.2919 96.202 75.1239 96.034C74.9652 95.866 74.8859 95.628 74.8859 95.32C74.8859 95.012 74.9746 94.7647 75.1519 94.578C75.3386 94.3913 75.5906 94.298 75.9079 94.298ZM81.1123 97.364C81.831 97.364 82.391 97.5273 82.7923 97.854C83.203 98.1713 83.4083 98.6193 83.4083 99.198C83.4083 99.366 83.3803 99.898 83.3243 100.794C83.315 101.055 83.301 101.326 83.2823 101.606C83.2636 101.877 83.2543 102.11 83.2543 102.306C83.2543 102.465 83.2776 102.577 83.3243 102.642C83.371 102.698 83.455 102.726 83.5763 102.726C83.6696 102.726 83.791 102.707 83.9403 102.67L84.0803 102.782L83.9123 103.762C83.6136 103.958 83.273 104.075 82.8903 104.112C82.6103 104.084 82.377 103.986 82.1903 103.818C82.0036 103.641 81.8776 103.398 81.8123 103.09H81.7143C81.2476 103.585 80.767 103.93 80.2723 104.126C79.6003 104.117 79.073 103.939 78.6903 103.594C78.3076 103.249 78.1163 102.777 78.1163 102.18C78.1163 101.713 78.233 101.349 78.4663 101.088C78.709 100.817 79.073 100.635 79.5583 100.542L81.7003 100.136V99.562C81.7003 98.9553 81.4016 98.652 80.8043 98.652C80.515 98.652 80.207 98.7173 79.8803 98.848C79.563 98.9787 79.2036 99.184 78.8023 99.464L78.6623 99.38L78.4523 98.148C78.8536 97.896 79.283 97.7047 79.7403 97.574C80.1976 97.434 80.655 97.364 81.1123 97.364ZM80.2023 101.396C80.053 101.433 79.941 101.499 79.8663 101.592C79.801 101.676 79.7683 101.807 79.7683 101.984C79.7683 102.227 79.8336 102.418 79.9643 102.558C80.095 102.689 80.277 102.754 80.5103 102.754C80.8743 102.754 81.257 102.539 81.6583 102.11L81.6863 101.074L80.2023 101.396ZM86.4385 102.152C86.8585 102.488 87.0685 102.889 87.0685 103.356C87.0685 104.168 86.5039 104.975 85.3745 105.778L84.7725 105.246L84.7585 105.106C85.2719 104.677 85.5285 104.219 85.5285 103.734C85.5285 103.417 85.3792 103.137 85.0805 102.894L85.0945 102.74C85.5239 102.479 85.9719 102.283 86.4385 102.152ZM93.2409 102.628C93.5395 102.628 93.8522 102.549 94.1789 102.39L94.3329 102.53L94.1509 103.636C93.6749 103.879 93.1895 104.028 92.6949 104.084C91.4349 103.953 90.8049 103.337 90.8049 102.236L90.8749 101.074L90.8609 98.666H89.9929L89.9229 98.568L90.0209 97.546H90.8469V96.468L92.5409 95.922L92.6669 96.034L92.6249 97.546H94.2909L94.3469 97.644L94.2629 98.666H92.5969L92.5129 101.802C92.5129 102.101 92.5689 102.315 92.6809 102.446C92.7929 102.567 92.9795 102.628 93.2409 102.628ZM98.9374 97.476C99.0214 97.476 99.138 97.4853 99.2874 97.504V99.226L99.0914 99.296C98.9327 99.2307 98.76 99.198 98.5734 99.198C98.032 99.198 97.542 99.548 97.1034 100.248V101.13L97.2014 104H95.3394L95.4514 101.312L95.3674 97.616L97.1314 97.462L97.1174 98.736H97.2294C97.6867 97.896 98.256 97.476 98.9374 97.476ZM105.247 100.976L101.467 101.004C101.551 102.171 102.143 102.754 103.245 102.754C103.823 102.754 104.467 102.591 105.177 102.264L105.331 102.362L105.051 103.748C104.341 104.009 103.674 104.14 103.049 104.14C102.022 104.14 101.215 103.841 100.627 103.244C100.048 102.647 99.7585 101.821 99.7585 100.766C99.7585 99.7207 100.043 98.8947 100.613 98.288C101.182 97.672 101.952 97.364 102.923 97.364C103.753 97.364 104.393 97.5927 104.841 98.05C105.298 98.498 105.527 99.128 105.527 99.94C105.527 100.155 105.503 100.425 105.457 100.752L105.247 100.976ZM103.903 99.73C103.903 99.3567 103.819 99.0767 103.651 98.89C103.483 98.694 103.235 98.596 102.909 98.596C102.545 98.596 102.241 98.7173 101.999 98.96C101.756 99.1933 101.593 99.534 101.509 99.982L103.875 99.926L103.903 99.73ZM114.608 104L114.72 99.94C114.72 99.2493 114.426 98.904 113.838 98.904C113.418 98.904 112.979 99.0907 112.522 99.464L112.48 101.144L112.564 104H110.702L110.814 99.94C110.823 99.604 110.749 99.3473 110.59 99.17C110.441 98.9927 110.221 98.904 109.932 98.904C109.521 98.904 109.069 99.1 108.574 99.492V101.13L108.658 104H106.81L106.908 101.312L106.838 97.616L108.588 97.462V98.414H108.686C109.199 97.9473 109.764 97.6113 110.38 97.406C111.425 97.406 112.093 97.756 112.382 98.456H112.466C112.998 97.9613 113.605 97.6113 114.286 97.406C114.995 97.406 115.532 97.5693 115.896 97.896C116.269 98.2133 116.447 98.6753 116.428 99.282L116.386 101.144L116.47 104H114.608ZM120.805 97.364C121.757 97.364 122.485 97.644 122.989 98.204C123.493 98.764 123.745 99.5713 123.745 100.626C123.745 101.765 123.474 102.637 122.933 103.244C122.392 103.841 121.612 104.14 120.595 104.14C119.643 104.14 118.915 103.86 118.411 103.3C117.907 102.74 117.655 101.933 117.655 100.878C117.655 99.7393 117.926 98.8713 118.467 98.274C119.008 97.6673 119.788 97.364 120.805 97.364ZM120.679 98.624C120.231 98.624 119.904 98.7733 119.699 99.072C119.503 99.3707 119.405 99.8513 119.405 100.514C119.405 101.373 119.508 101.984 119.713 102.348C119.918 102.712 120.254 102.894 120.721 102.894C121.169 102.894 121.491 102.749 121.687 102.46C121.892 102.161 121.995 101.676 121.995 101.004C121.995 100.155 121.888 99.548 121.673 99.184C121.468 98.8107 121.136 98.624 120.679 98.624ZM128.537 97.476C128.621 97.476 128.738 97.4853 128.887 97.504V99.226L128.691 99.296C128.532 99.2307 128.36 99.198 128.173 99.198C127.632 99.198 127.142 99.548 126.703 100.248V101.13L126.801 104H124.939L125.051 101.312L124.967 97.616L126.731 97.462L126.717 98.736H126.829C127.286 97.896 127.856 97.476 128.537 97.476ZM134.846 100.976L131.066 101.004C131.15 102.171 131.743 102.754 132.844 102.754C133.423 102.754 134.067 102.591 134.776 102.264L134.93 102.362L134.65 103.748C133.941 104.009 133.273 104.14 132.648 104.14C131.621 104.14 130.814 103.841 130.226 103.244C129.647 102.647 129.358 101.821 129.358 100.766C129.358 99.7207 129.643 98.8947 130.212 98.288C130.781 97.672 131.551 97.364 132.522 97.364C133.353 97.364 133.992 97.5927 134.44 98.05C134.897 98.498 135.126 99.128 135.126 99.94C135.126 100.155 135.103 100.425 135.056 100.752L134.846 100.976ZM133.502 99.73C133.502 99.3567 133.418 99.0767 133.25 98.89C133.082 98.694 132.835 98.596 132.508 98.596C132.144 98.596 131.841 98.7173 131.598 98.96C131.355 99.1933 131.192 99.534 131.108 99.982L133.474 99.926L133.502 99.73ZM138.594 97.378C139.228 97.378 139.826 97.4853 140.386 97.7L140.134 99.072L139.91 99.142C139.639 98.9647 139.368 98.8293 139.098 98.736C138.827 98.6427 138.589 98.596 138.384 98.596C138.16 98.596 137.982 98.6567 137.852 98.778C137.721 98.89 137.656 99.03 137.656 99.198C137.656 99.394 137.74 99.5527 137.908 99.674C138.085 99.7953 138.36 99.9307 138.734 100.08C139.107 100.229 139.415 100.374 139.658 100.514C139.9 100.654 140.106 100.85 140.274 101.102C140.451 101.345 140.54 101.648 140.54 102.012C140.54 102.385 140.442 102.735 140.246 103.062C140.059 103.379 139.77 103.641 139.378 103.846C138.986 104.042 138.505 104.14 137.936 104.14C137.264 104.14 136.568 104 135.85 103.72L136.06 102.264L136.242 102.152C136.531 102.395 136.853 102.591 137.208 102.74C137.562 102.88 137.875 102.95 138.146 102.95C138.398 102.95 138.594 102.889 138.734 102.768C138.874 102.637 138.944 102.483 138.944 102.306C138.944 102.11 138.855 101.951 138.678 101.83C138.51 101.709 138.239 101.573 137.866 101.424C137.483 101.256 137.17 101.107 136.928 100.976C136.685 100.836 136.475 100.64 136.298 100.388C136.13 100.136 136.046 99.8233 136.046 99.45C136.046 98.8433 136.274 98.3487 136.732 97.966C137.189 97.574 137.81 97.378 138.594 97.378ZM142.753 102.152C143.173 102.488 143.383 102.889 143.383 103.356C143.383 104.168 142.818 104.975 141.689 105.778L141.087 105.246L141.073 105.106C141.586 104.677 141.843 104.219 141.843 103.734C141.843 103.417 141.694 103.137 141.395 102.894L141.409 102.74C141.838 102.479 142.286 102.283 142.753 102.152ZM25.6238 110.144C26.0065 110.144 26.4125 110.186 26.8418 110.27L26.7158 111.656L26.5898 111.74C26.1512 111.553 25.7685 111.46 25.4418 111.46C24.8632 111.46 24.5692 111.791 24.5598 112.454L24.5458 113.546H26.1278L26.1838 113.644L26.0998 114.666H24.5178L24.4758 117.13L24.5738 120H22.7118L22.8238 117.298L22.7958 114.666H21.8158L21.7458 114.568L21.8438 113.546H22.7818L22.7678 112.776C22.7678 111.936 23.0152 111.287 23.5098 110.83C24.0138 110.373 24.7185 110.144 25.6238 110.144ZM30.4413 113.476C30.5253 113.476 30.6419 113.485 30.7913 113.504V115.226L30.5953 115.296C30.4366 115.231 30.2639 115.198 30.0773 115.198C29.5359 115.198 29.0459 115.548 28.6073 116.248V117.13L28.7053 120H26.8433L26.9553 117.312L26.8713 113.616L28.6353 113.462L28.6213 114.736H28.7333C29.1906 113.896 29.7599 113.476 30.4413 113.476ZM34.1357 113.364C34.8544 113.364 35.4144 113.527 35.8157 113.854C36.2264 114.171 36.4317 114.619 36.4317 115.198C36.4317 115.366 36.4037 115.898 36.3477 116.794C36.3384 117.055 36.3244 117.326 36.3057 117.606C36.2871 117.877 36.2777 118.11 36.2777 118.306C36.2777 118.465 36.3011 118.577 36.3477 118.642C36.3944 118.698 36.4784 118.726 36.5997 118.726C36.6931 118.726 36.8144 118.707 36.9637 118.67L37.1037 118.782L36.9357 119.762C36.6371 119.958 36.2964 120.075 35.9137 120.112C35.6337 120.084 35.4004 119.986 35.2137 119.818C35.0271 119.641 34.9011 119.398 34.8357 119.09H34.7377C34.2711 119.585 33.7904 119.93 33.2957 120.126C32.6237 120.117 32.0964 119.939 31.7137 119.594C31.3311 119.249 31.1397 118.777 31.1397 118.18C31.1397 117.713 31.2564 117.349 31.4897 117.088C31.7324 116.817 32.0964 116.635 32.5817 116.542L34.7237 116.136V115.562C34.7237 114.955 34.4251 114.652 33.8277 114.652C33.5384 114.652 33.2304 114.717 32.9037 114.848C32.5864 114.979 32.2271 115.184 31.8257 115.464L31.6857 115.38L31.4757 114.148C31.8771 113.896 32.3064 113.705 32.7637 113.574C33.2211 113.434 33.6784 113.364 34.1357 113.364ZM33.2257 117.396C33.0764 117.433 32.9644 117.499 32.8897 117.592C32.8244 117.676 32.7917 117.807 32.7917 117.984C32.7917 118.227 32.8571 118.418 32.9877 118.558C33.1184 118.689 33.3004 118.754 33.5337 118.754C33.8977 118.754 34.2804 118.539 34.6817 118.11L34.7097 117.074L33.2257 117.396ZM43.704 113.378L43.858 113.462L43.746 117.13L43.844 122.59H41.996L42.08 119.65V119.3H41.968C41.5853 119.627 41.1653 119.893 40.708 120.098C39.8026 120.098 39.1026 119.809 38.608 119.23C38.1133 118.642 37.866 117.839 37.866 116.822C37.866 115.711 38.1553 114.862 38.734 114.274C39.3126 113.677 40.0873 113.378 41.058 113.378C41.562 113.378 42.122 113.481 42.738 113.686L43.704 113.378ZM41.002 114.638C40.078 114.638 39.616 115.254 39.616 116.486C39.616 117.186 39.7233 117.723 39.938 118.096C40.162 118.46 40.484 118.642 40.904 118.642C41.1 118.642 41.2913 118.6 41.478 118.516C41.674 118.423 41.8746 118.273 42.08 118.068L42.094 117.326L42.052 114.932C41.6786 114.736 41.3286 114.638 41.002 114.638ZM51.7897 118.782L51.6217 119.762C51.2764 119.986 50.9217 120.103 50.5577 120.112C50.2871 120.065 50.0631 119.958 49.8857 119.79C49.7084 119.622 49.5731 119.379 49.4797 119.062H49.3537C48.8217 119.585 48.2711 119.925 47.7017 120.084C46.9924 120.084 46.4511 119.925 46.0777 119.608C45.7137 119.281 45.5364 118.815 45.5457 118.208L45.5737 116.556L45.5037 113.616L47.3097 113.462L47.2677 117.592C47.2584 117.919 47.3237 118.166 47.4637 118.334C47.6037 118.502 47.8137 118.586 48.0937 118.586C48.5044 118.586 48.9104 118.404 49.3117 118.04V113.616L51.0897 113.462L50.9637 118.306C50.9637 118.455 50.9871 118.563 51.0337 118.628C51.0897 118.693 51.1737 118.726 51.2857 118.726C51.3884 118.726 51.5144 118.707 51.6637 118.67L51.7897 118.782ZM57.9282 116.976L54.1482 117.004C54.2322 118.171 54.8248 118.754 55.9262 118.754C56.5048 118.754 57.1488 118.591 57.8582 118.264L58.0122 118.362L57.7322 119.748C57.0228 120.009 56.3555 120.14 55.7302 120.14C54.7035 120.14 53.8962 119.841 53.3082 119.244C52.7295 118.647 52.4402 117.821 52.4402 116.766C52.4402 115.721 52.7248 114.895 53.2942 114.288C53.8635 113.672 54.6335 113.364 55.6042 113.364C56.4348 113.364 57.0742 113.593 57.5222 114.05C57.9795 114.498 58.2082 115.128 58.2082 115.94C58.2082 116.155 58.1848 116.425 58.1382 116.752L57.9282 116.976ZM56.5842 115.73C56.5842 115.357 56.5002 115.077 56.3322 114.89C56.1642 114.694 55.9168 114.596 55.5902 114.596C55.2262 114.596 54.9228 114.717 54.6802 114.96C54.4375 115.193 54.2742 115.534 54.1902 115.982L56.5562 115.926L56.5842 115.73ZM60.5697 113.49H63.3977L64.1117 113.476L64.1257 114.582L60.9757 118.81H62.9497L64.1397 118.698L64.2377 118.824L64.1117 120.028L62.4877 120H59.9117L59.0157 120.042V118.95L62.1937 114.694H60.3177L59.1557 114.792L59.0437 114.666L59.1837 113.462L60.5697 113.49ZM67.9873 113.364C68.706 113.364 69.266 113.527 69.6673 113.854C70.078 114.171 70.2833 114.619 70.2833 115.198C70.2833 115.366 70.2553 115.898 70.1993 116.794C70.19 117.055 70.176 117.326 70.1573 117.606C70.1386 117.877 70.1293 118.11 70.1293 118.306C70.1293 118.465 70.1526 118.577 70.1993 118.642C70.246 118.698 70.33 118.726 70.4513 118.726C70.5446 118.726 70.666 118.707 70.8153 118.67L70.9553 118.782L70.7873 119.762C70.4886 119.958 70.148 120.075 69.7653 120.112C69.4853 120.084 69.252 119.986 69.0653 119.818C68.8786 119.641 68.7526 119.398 68.6873 119.09H68.5893C68.1226 119.585 67.642 119.93 67.1473 120.126C66.4753 120.117 65.948 119.939 65.5653 119.594C65.1826 119.249 64.9913 118.777 64.9913 118.18C64.9913 117.713 65.108 117.349 65.3413 117.088C65.584 116.817 65.948 116.635 66.4333 116.542L68.5753 116.136V115.562C68.5753 114.955 68.2766 114.652 67.6793 114.652C67.39 114.652 67.082 114.717 66.7553 114.848C66.438 114.979 66.0786 115.184 65.6773 115.464L65.5373 115.38L65.3273 114.148C65.7286 113.896 66.158 113.705 66.6153 113.574C67.0726 113.434 67.53 113.364 67.9873 113.364ZM67.0773 117.396C66.928 117.433 66.816 117.499 66.7413 117.592C66.676 117.676 66.6433 117.807 66.6433 117.984C66.6433 118.227 66.7086 118.418 66.8393 118.558C66.97 118.689 67.152 118.754 67.3853 118.754C67.7493 118.754 68.132 118.539 68.5333 118.11L68.5613 117.074L67.0773 117.396ZM79.3247 116.976L75.5447 117.004C75.6287 118.171 76.2213 118.754 77.3227 118.754C77.9013 118.754 78.5453 118.591 79.2547 118.264L79.4087 118.362L79.1287 119.748C78.4193 120.009 77.752 120.14 77.1267 120.14C76.1 120.14 75.2927 119.841 74.7047 119.244C74.126 118.647 73.8367 117.821 73.8367 116.766C73.8367 115.721 74.1213 114.895 74.6907 114.288C75.26 113.672 76.03 113.364 77.0007 113.364C77.8313 113.364 78.4707 113.593 78.9187 114.05C79.376 114.498 79.6047 115.128 79.6047 115.94C79.6047 116.155 79.5813 116.425 79.5347 116.752L79.3247 116.976ZM77.9807 115.73C77.9807 115.357 77.8967 115.077 77.7287 114.89C77.5607 114.694 77.3133 114.596 76.9867 114.596C76.6227 114.596 76.3193 114.717 76.0767 114.96C75.834 115.193 75.6707 115.534 75.5867 115.982L77.9527 115.926L77.9807 115.73ZM85.6393 118.628C85.938 118.628 86.2507 118.549 86.5773 118.39L86.7313 118.53L86.5493 119.636C86.0733 119.879 85.588 120.028 85.0933 120.084C83.8333 119.953 83.2033 119.337 83.2033 118.236L83.2733 117.074L83.2593 114.666H82.3913L82.3213 114.568L82.4193 113.546H83.2453V112.468L84.9393 111.922L85.0653 112.034L85.0233 113.546H86.6893L86.7453 113.644L86.6613 114.666H84.9953L84.9113 117.802C84.9113 118.101 84.9673 118.315 85.0793 118.446C85.1913 118.567 85.378 118.628 85.6393 118.628ZM90.3441 113.364C91.2961 113.364 92.0241 113.644 92.5281 114.204C93.0321 114.764 93.2841 115.571 93.2841 116.626C93.2841 117.765 93.0134 118.637 92.4721 119.244C91.9308 119.841 91.1514 120.14 90.1341 120.14C89.1821 120.14 88.4541 119.86 87.9501 119.3C87.4461 118.74 87.1941 117.933 87.1941 116.878C87.1941 115.739 87.4648 114.871 88.0061 114.274C88.5474 113.667 89.3268 113.364 90.3441 113.364ZM90.2181 114.624C89.7701 114.624 89.4434 114.773 89.2381 115.072C89.0421 115.371 88.9441 115.851 88.9441 116.514C88.9441 117.373 89.0468 117.984 89.2521 118.348C89.4574 118.712 89.7934 118.894 90.2601 118.894C90.7081 118.894 91.0301 118.749 91.2261 118.46C91.4314 118.161 91.5341 117.676 91.5341 117.004C91.5341 116.155 91.4268 115.548 91.2121 115.184C91.0068 114.811 90.6754 114.624 90.2181 114.624ZM98.482 115.94C98.4914 115.613 98.4167 115.361 98.258 115.184C98.1087 114.997 97.8894 114.904 97.6 114.904C97.18 114.904 96.732 115.105 96.256 115.506V117.13L96.34 120H94.478L94.576 117.312L94.506 113.616L96.27 113.462V114.414H96.368C96.8814 113.947 97.4414 113.611 98.048 113.406C98.7574 113.406 99.2987 113.569 99.672 113.896C100.045 114.213 100.223 114.675 100.204 115.282L100.162 117.144L100.246 120H98.37L98.482 115.94ZM104.52 118.628C104.819 118.628 105.132 118.549 105.458 118.39L105.612 118.53L105.43 119.636C104.954 119.879 104.469 120.028 103.974 120.084C102.714 119.953 102.084 119.337 102.084 118.236L102.154 117.074L102.14 114.666H101.272L101.202 114.568L101.3 113.546H102.126V112.468L103.82 111.922L103.946 112.034L103.904 113.546H105.57L105.626 113.644L105.542 114.666H103.876L103.792 117.802C103.792 118.101 103.848 118.315 103.96 118.446C104.072 118.567 104.259 118.628 104.52 118.628ZM112.835 118.782L112.667 119.762C112.321 119.986 111.967 120.103 111.603 120.112C111.332 120.065 111.108 119.958 110.931 119.79C110.753 119.622 110.618 119.379 110.525 119.062H110.399C109.867 119.585 109.316 119.925 108.747 120.084C108.037 120.084 107.496 119.925 107.123 119.608C106.759 119.281 106.581 118.815 106.591 118.208L106.619 116.556L106.549 113.616L108.355 113.462L108.313 117.592C108.303 117.919 108.369 118.166 108.509 118.334C108.649 118.502 108.859 118.586 109.139 118.586C109.549 118.586 109.955 118.404 110.357 118.04V113.616L112.135 113.462L112.009 118.306C112.009 118.455 112.032 118.563 112.079 118.628C112.135 118.693 112.219 118.726 112.331 118.726C112.433 118.726 112.559 118.707 112.709 118.67L112.835 118.782ZM117.449 113.476C117.533 113.476 117.65 113.485 117.799 113.504V115.226L117.603 115.296C117.444 115.231 117.272 115.198 117.085 115.198C116.544 115.198 116.054 115.548 115.615 116.248V117.13L115.713 120H113.851L113.963 117.312L113.879 113.616L115.643 113.462L115.629 114.736H115.741C116.198 113.896 116.768 113.476 117.449 113.476ZM121.144 113.364C121.862 113.364 122.422 113.527 122.824 113.854C123.234 114.171 123.44 114.619 123.44 115.198C123.44 115.366 123.412 115.898 123.356 116.794C123.346 117.055 123.332 117.326 123.314 117.606C123.295 117.877 123.286 118.11 123.286 118.306C123.286 118.465 123.309 118.577 123.356 118.642C123.402 118.698 123.486 118.726 123.608 118.726C123.701 118.726 123.822 118.707 123.972 118.67L124.112 118.782L123.944 119.762C123.645 119.958 123.304 120.075 122.922 120.112C122.642 120.084 122.408 119.986 122.222 119.818C122.035 119.641 121.909 119.398 121.844 119.09H121.746C121.279 119.585 120.798 119.93 120.304 120.126C119.632 120.117 119.104 119.939 118.722 119.594C118.339 119.249 118.148 118.777 118.148 118.18C118.148 117.713 118.264 117.349 118.498 117.088C118.74 116.817 119.104 116.635 119.59 116.542L121.732 116.136V115.562C121.732 114.955 121.433 114.652 120.836 114.652C120.546 114.652 120.238 114.717 119.912 114.848C119.594 114.979 119.235 115.184 118.834 115.464L118.694 115.38L118.484 114.148C118.885 113.896 119.314 113.705 119.772 113.574C120.229 113.434 120.686 113.364 121.144 113.364ZM120.234 117.396C120.084 117.433 119.972 117.499 119.898 117.592C119.832 117.676 119.8 117.807 119.8 117.984C119.8 118.227 119.865 118.418 119.996 118.558C120.126 118.689 120.308 118.754 120.542 118.754C120.906 118.754 121.288 118.539 121.69 118.11L121.718 117.074L120.234 117.396ZM129.625 113.378C130.26 113.378 130.857 113.485 131.417 113.7L131.165 115.072L130.941 115.142C130.67 114.965 130.4 114.829 130.129 114.736C129.858 114.643 129.62 114.596 129.415 114.596C129.191 114.596 129.014 114.657 128.883 114.778C128.752 114.89 128.687 115.03 128.687 115.198C128.687 115.394 128.771 115.553 128.939 115.674C129.116 115.795 129.392 115.931 129.765 116.08C130.138 116.229 130.446 116.374 130.689 116.514C130.932 116.654 131.137 116.85 131.305 117.102C131.482 117.345 131.571 117.648 131.571 118.012C131.571 118.385 131.473 118.735 131.277 119.062C131.09 119.379 130.801 119.641 130.409 119.846C130.017 120.042 129.536 120.14 128.967 120.14C128.295 120.14 127.6 120 126.881 119.72L127.091 118.264L127.273 118.152C127.562 118.395 127.884 118.591 128.239 118.74C128.594 118.88 128.906 118.95 129.177 118.95C129.429 118.95 129.625 118.889 129.765 118.768C129.905 118.637 129.975 118.483 129.975 118.306C129.975 118.11 129.886 117.951 129.709 117.83C129.541 117.709 129.27 117.573 128.897 117.424C128.514 117.256 128.202 117.107 127.959 116.976C127.716 116.836 127.506 116.64 127.329 116.388C127.161 116.136 127.077 115.823 127.077 115.45C127.077 114.843 127.306 114.349 127.763 113.966C128.22 113.574 128.841 113.378 129.625 113.378ZM135.376 113.364C136.095 113.364 136.655 113.527 137.056 113.854C137.467 114.171 137.672 114.619 137.672 115.198C137.672 115.366 137.644 115.898 137.588 116.794C137.579 117.055 137.565 117.326 137.546 117.606C137.527 117.877 137.518 118.11 137.518 118.306C137.518 118.465 137.541 118.577 137.588 118.642C137.635 118.698 137.719 118.726 137.84 118.726C137.933 118.726 138.055 118.707 138.204 118.67L138.344 118.782L138.176 119.762C137.877 119.958 137.537 120.075 137.154 120.112C136.874 120.084 136.641 119.986 136.454 119.818C136.267 119.641 136.141 119.398 136.076 119.09H135.978C135.511 119.585 135.031 119.93 134.536 120.126C133.864 120.117 133.337 119.939 132.954 119.594C132.571 119.249 132.38 118.777 132.38 118.18C132.38 117.713 132.497 117.349 132.73 117.088C132.973 116.817 133.337 116.635 133.822 116.542L135.964 116.136V115.562C135.964 114.955 135.665 114.652 135.068 114.652C134.779 114.652 134.471 114.717 134.144 114.848C133.827 114.979 133.467 115.184 133.066 115.464L132.926 115.38L132.716 114.148C133.117 113.896 133.547 113.705 134.004 113.574C134.461 113.434 134.919 113.364 135.376 113.364ZM134.466 117.396C134.317 117.433 134.205 117.499 134.13 117.592C134.065 117.676 134.032 117.807 134.032 117.984C134.032 118.227 134.097 118.418 134.228 118.558C134.359 118.689 134.541 118.754 134.774 118.754C135.138 118.754 135.521 118.539 135.922 118.11L135.95 117.074L134.466 117.396ZM137.672 110.732V110.886L136.692 112.132L136.51 112.202C136.258 112.174 135.871 112.085 135.348 111.936C135.301 111.927 135.147 111.889 134.886 111.824C134.634 111.749 134.457 111.712 134.354 111.712C134.251 111.712 134.149 111.754 134.046 111.838C133.953 111.922 133.85 112.025 133.738 112.146C133.626 112.267 133.542 112.361 133.486 112.426H133.318L132.758 111.88V111.726L133.752 110.48L133.92 110.41C134.144 110.438 134.541 110.531 135.11 110.69C135.633 110.83 135.955 110.9 136.076 110.9C136.188 110.9 136.295 110.853 136.398 110.76C136.51 110.667 136.622 110.559 136.734 110.438C136.846 110.317 136.921 110.233 136.958 110.186H137.126L137.672 110.732ZM142.256 113.364C143.208 113.364 143.936 113.644 144.44 114.204C144.944 114.764 145.196 115.571 145.196 116.626C145.196 117.765 144.926 118.637 144.384 119.244C143.843 119.841 143.064 120.14 142.046 120.14C141.094 120.14 140.366 119.86 139.862 119.3C139.358 118.74 139.106 117.933 139.106 116.878C139.106 115.739 139.377 114.871 139.918 114.274C140.46 113.667 141.239 113.364 142.256 113.364ZM142.13 114.624C141.682 114.624 141.356 114.773 141.15 115.072C140.954 115.371 140.856 115.851 140.856 116.514C140.856 117.373 140.959 117.984 141.164 118.348C141.37 118.712 141.706 118.894 142.172 118.894C142.62 118.894 142.942 118.749 143.138 118.46C143.344 118.161 143.446 117.676 143.446 117.004C143.446 116.155 143.339 115.548 143.124 115.184C142.919 114.811 142.588 114.624 142.13 114.624ZM24.7206 129.378C25.3553 129.378 25.9526 129.485 26.5126 129.7L26.2606 131.072L26.0366 131.142C25.766 130.965 25.4953 130.829 25.2246 130.736C24.954 130.643 24.716 130.596 24.5106 130.596C24.2866 130.596 24.1093 130.657 23.9786 130.778C23.848 130.89 23.7826 131.03 23.7826 131.198C23.7826 131.394 23.8666 131.553 24.0346 131.674C24.212 131.795 24.4873 131.931 24.8606 132.08C25.234 132.229 25.542 132.374 25.7846 132.514C26.0273 132.654 26.2326 132.85 26.4006 133.102C26.578 133.345 26.6666 133.648 26.6666 134.012C26.6666 134.385 26.5686 134.735 26.3726 135.062C26.186 135.379 25.8966 135.641 25.5046 135.846C25.1126 136.042 24.632 136.14 24.0626 136.14C23.3906 136.14 22.6953 136 21.9766 135.72L22.1866 134.264L22.3686 134.152C22.658 134.395 22.98 134.591 23.3346 134.74C23.6893 134.88 24.002 134.95 24.2726 134.95C24.5246 134.95 24.7206 134.889 24.8606 134.768C25.0006 134.637 25.0706 134.483 25.0706 134.306C25.0706 134.11 24.982 133.951 24.8046 133.83C24.6366 133.709 24.366 133.573 23.9926 133.424C23.61 133.256 23.2973 133.107 23.0546 132.976C22.812 132.836 22.602 132.64 22.4246 132.388C22.2566 132.136 22.1726 131.823 22.1726 131.45C22.1726 130.843 22.4013 130.349 22.8586 129.966C23.316 129.574 23.9366 129.378 24.7206 129.378ZM28.0357 133.312L27.9657 129.616L29.7997 129.462L29.7157 133.13L29.7997 136H27.9377L28.0357 133.312ZM28.9177 126.298C29.207 126.298 29.431 126.382 29.5897 126.55C29.7577 126.718 29.8417 126.951 29.8417 127.25C29.8417 127.567 29.753 127.819 29.5757 128.006C29.3983 128.193 29.1557 128.286 28.8477 128.286C28.5397 128.286 28.3017 128.202 28.1337 128.034C27.975 127.866 27.8957 127.628 27.8957 127.32C27.8957 127.012 27.9843 126.765 28.1617 126.578C28.3483 126.391 28.6003 126.298 28.9177 126.298ZM35.5641 131.94C35.5734 131.613 35.4987 131.361 35.3401 131.184C35.1907 130.997 34.9714 130.904 34.6821 130.904C34.2621 130.904 33.8141 131.105 33.3381 131.506V133.13L33.4221 136H31.5601L31.6581 133.312L31.5881 129.616L33.3521 129.462V130.414H33.4501C33.9634 129.947 34.5234 129.611 35.1301 129.406C35.8394 129.406 36.3807 129.569 36.7541 129.896C37.1274 130.213 37.3047 130.675 37.2861 131.282L37.2441 133.144L37.3281 136H35.4521L35.5641 131.94ZM41.5322 129.364C42.2509 129.364 42.8109 129.527 43.2122 129.854C43.6229 130.171 43.8282 130.619 43.8282 131.198C43.8282 131.366 43.8002 131.898 43.7442 132.794C43.7349 133.055 43.7209 133.326 43.7022 133.606C43.6835 133.877 43.6742 134.11 43.6742 134.306C43.6742 134.465 43.6975 134.577 43.7442 134.642C43.7909 134.698 43.8749 134.726 43.9962 134.726C44.0895 134.726 44.2109 134.707 44.3602 134.67L44.5002 134.782L44.3322 135.762C44.0335 135.958 43.6929 136.075 43.3102 136.112C43.0302 136.084 42.7969 135.986 42.6102 135.818C42.4235 135.641 42.2975 135.398 42.2322 135.09H42.1342C41.6675 135.585 41.1869 135.93 40.6922 136.126C40.0202 136.117 39.4929 135.939 39.1102 135.594C38.7275 135.249 38.5362 134.777 38.5362 134.18C38.5362 133.713 38.6529 133.349 38.8862 133.088C39.1289 132.817 39.4929 132.635 39.9782 132.542L42.1202 132.136V131.562C42.1202 130.955 41.8215 130.652 41.2242 130.652C40.9349 130.652 40.6269 130.717 40.3002 130.848C39.9829 130.979 39.6235 131.184 39.2222 131.464L39.0822 131.38L38.8722 130.148C39.2735 129.896 39.7029 129.705 40.1602 129.574C40.6175 129.434 41.0749 129.364 41.5322 129.364ZM40.6222 133.396C40.4729 133.433 40.3609 133.499 40.2862 133.592C40.2209 133.676 40.1882 133.807 40.1882 133.984C40.1882 134.227 40.2535 134.418 40.3842 134.558C40.5149 134.689 40.6969 134.754 40.9302 134.754C41.2942 134.754 41.6769 134.539 42.0782 134.11L42.1062 133.074L40.6222 133.396ZM45.8364 133.312L45.7664 129.616L47.6004 129.462L47.5164 133.13L47.6004 136H45.7384L45.8364 133.312ZM46.7184 126.298C47.0078 126.298 47.2318 126.382 47.3904 126.55C47.5584 126.718 47.6424 126.951 47.6424 127.25C47.6424 127.567 47.5538 127.819 47.3764 128.006C47.1991 128.193 46.9564 128.286 46.6484 128.286C46.3404 128.286 46.1024 128.202 45.9344 128.034C45.7758 127.866 45.6964 127.628 45.6964 127.32C45.6964 127.012 45.7851 126.765 45.9624 126.578C46.1491 126.391 46.4011 126.298 46.7184 126.298ZM51.5448 129.378C52.1795 129.378 52.7768 129.485 53.3368 129.7L53.0848 131.072L52.8608 131.142C52.5902 130.965 52.3195 130.829 52.0488 130.736C51.7782 130.643 51.5402 130.596 51.3348 130.596C51.1108 130.596 50.9335 130.657 50.8028 130.778C50.6722 130.89 50.6068 131.03 50.6068 131.198C50.6068 131.394 50.6908 131.553 50.8588 131.674C51.0362 131.795 51.3115 131.931 51.6848 132.08C52.0582 132.229 52.3662 132.374 52.6088 132.514C52.8515 132.654 53.0568 132.85 53.2248 133.102C53.4022 133.345 53.4908 133.648 53.4908 134.012C53.4908 134.385 53.3928 134.735 53.1968 135.062C53.0102 135.379 52.7208 135.641 52.3288 135.846C51.9368 136.042 51.4562 136.14 50.8868 136.14C50.2148 136.14 49.5195 136 48.8008 135.72L49.0108 134.264L49.1928 134.152C49.4822 134.395 49.8042 134.591 50.1588 134.74C50.5135 134.88 50.8262 134.95 51.0968 134.95C51.3488 134.95 51.5448 134.889 51.6848 134.768C51.8248 134.637 51.8948 134.483 51.8948 134.306C51.8948 134.11 51.8062 133.951 51.6288 133.83C51.4608 133.709 51.1902 133.573 50.8168 133.424C50.4342 133.256 50.1215 133.107 49.8788 132.976C49.6362 132.836 49.4262 132.64 49.2488 132.388C49.0808 132.136 48.9968 131.823 48.9968 131.45C48.9968 130.843 49.2255 130.349 49.6828 129.966C50.1402 129.574 50.7608 129.378 51.5448 129.378ZM62.285 133.13L62.327 134.306C62.327 134.465 62.3457 134.577 62.383 134.642C62.4297 134.698 62.509 134.726 62.621 134.726C62.7237 134.726 62.8497 134.707 62.999 134.67L63.125 134.782L62.971 135.762C62.6537 135.958 62.3084 136.075 61.935 136.112C61.6457 136.084 61.403 135.986 61.207 135.818C61.011 135.65 60.8757 135.421 60.801 135.132H60.689C60.2317 135.552 59.765 135.874 59.289 136.098C58.3744 136.098 57.665 135.809 57.161 135.23C56.657 134.642 56.405 133.83 56.405 132.794C56.405 131.693 56.6944 130.848 57.273 130.26C57.8517 129.672 58.6544 129.378 59.681 129.378C59.9517 129.378 60.2504 129.406 60.577 129.462L60.549 126.312L62.397 126.172L62.285 133.13ZM59.555 130.638C58.6217 130.638 58.155 131.231 58.155 132.416C58.155 133.153 58.267 133.709 58.491 134.082C58.715 134.455 59.0417 134.642 59.471 134.642C59.8817 134.642 60.2597 134.451 60.605 134.068L60.633 133.298L60.591 130.89C60.227 130.722 59.8817 130.638 59.555 130.638ZM69.2622 132.976L65.4822 133.004C65.5662 134.171 66.1588 134.754 67.2602 134.754C67.8388 134.754 68.4828 134.591 69.1922 134.264L69.3462 134.362L69.0662 135.748C68.3568 136.009 67.6895 136.14 67.0642 136.14C66.0375 136.14 65.2302 135.841 64.6422 135.244C64.0635 134.647 63.7742 133.821 63.7742 132.766C63.7742 131.721 64.0588 130.895 64.6282 130.288C65.1975 129.672 65.9675 129.364 66.9382 129.364C67.7688 129.364 68.4082 129.593 68.8562 130.05C69.3135 130.498 69.5422 131.128 69.5422 131.94C69.5422 132.155 69.5188 132.425 69.4722 132.752L69.2622 132.976ZM67.9182 131.73C67.9182 131.357 67.8342 131.077 67.6662 130.89C67.4982 130.694 67.2508 130.596 66.9242 130.596C66.5602 130.596 66.2568 130.717 66.0142 130.96C65.7715 131.193 65.6082 131.534 65.5242 131.982L67.8902 131.926L67.9182 131.73ZM77.0048 131.94C77.0142 131.604 76.9442 131.347 76.7948 131.17C76.6455 130.993 76.4262 130.904 76.1368 130.904C75.7168 130.904 75.2688 131.105 74.7928 131.506L74.7648 133.13L74.8628 136H73.0008L73.0988 133.298L73.0148 126.312L74.8768 126.172L74.8068 130.414H74.8908C75.4042 129.947 75.9688 129.611 76.5848 129.406C77.2942 129.406 77.8308 129.569 78.1948 129.896C78.5682 130.213 78.7502 130.675 78.7408 131.282L78.6988 133.144L78.7688 136H76.9068L77.0048 131.94ZM80.5357 133.312L80.4657 129.616L82.2997 129.462L82.2157 133.13L82.2997 136H80.4377L80.5357 133.312ZM81.4177 126.298C81.707 126.298 81.931 126.382 82.0897 126.55C82.2577 126.718 82.3417 126.951 82.3417 127.25C82.3417 127.567 82.253 127.819 82.0757 128.006C81.8983 128.193 81.6557 128.286 81.3477 128.286C81.0397 128.286 80.8017 128.202 80.6337 128.034C80.475 127.866 80.3957 127.628 80.3957 127.32C80.3957 127.012 80.4843 126.765 80.6617 126.578C80.8483 126.391 81.1003 126.298 81.4177 126.298ZM87.4494 129.406C88.2614 129.406 88.8867 129.681 89.3254 130.232C89.764 130.783 89.9834 131.562 89.9834 132.57C89.9834 133.709 89.6987 134.591 89.1294 135.216C88.5694 135.832 87.776 136.14 86.7494 136.14C86.4507 136.14 86.138 136.112 85.8114 136.056L85.8534 138.59H84.0054L84.1034 133.312L84.0194 129.616L85.7974 129.462L85.7834 130.414H85.8814C86.1427 130.162 86.3947 129.961 86.6374 129.812C86.88 129.653 87.1507 129.518 87.4494 129.406ZM86.7634 134.922C87.2487 134.922 87.6174 134.749 87.8694 134.404C88.1214 134.059 88.2474 133.55 88.2474 132.878C88.2474 132.225 88.14 131.735 87.9254 131.408C87.72 131.072 87.412 130.904 87.0014 130.904C86.6 130.904 86.194 131.105 85.7834 131.506L85.7694 133.13L85.7974 134.712C86.1334 134.852 86.4554 134.922 86.7634 134.922ZM93.9535 129.364C94.9055 129.364 95.6335 129.644 96.1375 130.204C96.6415 130.764 96.8935 131.571 96.8935 132.626C96.8935 133.765 96.6228 134.637 96.0815 135.244C95.5401 135.841 94.7608 136.14 93.7435 136.14C92.7915 136.14 92.0635 135.86 91.5595 135.3C91.0555 134.74 90.8035 133.933 90.8035 132.878C90.8035 131.739 91.0741 130.871 91.6155 130.274C92.1568 129.667 92.9361 129.364 93.9535 129.364ZM93.8275 130.624C93.3795 130.624 93.0528 130.773 92.8475 131.072C92.6515 131.371 92.5535 131.851 92.5535 132.514C92.5535 133.373 92.6561 133.984 92.8615 134.348C93.0668 134.712 93.4028 134.894 93.8695 134.894C94.3175 134.894 94.6395 134.749 94.8355 134.46C95.0408 134.161 95.1435 133.676 95.1435 133.004C95.1435 132.155 95.0361 131.548 94.8215 131.184C94.6161 130.811 94.2848 130.624 93.8275 130.624ZM104.427 130.372C104.175 130.437 103.816 130.507 103.349 130.582L103.321 130.638C103.461 130.918 103.531 131.231 103.531 131.576C103.531 132.276 103.275 132.836 102.761 133.256C102.257 133.667 101.571 133.872 100.703 133.872C100.442 133.872 100.171 133.849 99.8914 133.802C99.8074 133.886 99.7514 133.951 99.7234 133.998C99.6954 134.045 99.6814 134.101 99.6814 134.166C99.6814 134.334 99.7934 134.451 100.017 134.516C100.241 134.581 100.596 134.647 101.081 134.712C101.632 134.777 102.089 134.857 102.453 134.95C102.827 135.043 103.144 135.207 103.405 135.44C103.676 135.673 103.811 136.005 103.811 136.434C103.811 136.873 103.671 137.265 103.391 137.61C103.121 137.965 102.743 138.24 102.257 138.436C101.772 138.632 101.221 138.73 100.605 138.73C99.7561 138.73 99.1028 138.557 98.6454 138.212C98.1881 137.867 97.9594 137.409 97.9594 136.84C98.2488 136.439 98.6361 136.089 99.1214 135.79V135.72C98.8041 135.608 98.5568 135.454 98.3794 135.258C98.2021 135.053 98.1134 134.782 98.1134 134.446C98.3654 134.138 98.6828 133.853 99.0654 133.592V133.522C98.7294 133.335 98.4728 133.093 98.2954 132.794C98.1274 132.486 98.0434 132.127 98.0434 131.716C98.0434 130.988 98.2954 130.419 98.7994 130.008C99.3034 129.597 99.9894 129.392 100.857 129.392C101.361 129.392 101.819 129.476 102.229 129.644C102.901 129.523 103.587 129.336 104.287 129.084L104.427 129.21V130.372ZM100.759 132.752C101.142 132.752 101.431 132.654 101.627 132.458C101.823 132.262 101.921 131.977 101.921 131.604C101.921 130.895 101.557 130.54 100.829 130.54C100.045 130.54 99.6534 130.899 99.6534 131.618C99.6534 131.991 99.7468 132.276 99.9334 132.472C100.12 132.659 100.395 132.752 100.759 132.752ZM102.243 136.77C102.243 136.518 102.108 136.345 101.837 136.252C101.576 136.159 101.17 136.079 100.619 136.014L100.143 135.944C99.9194 136.093 99.7514 136.238 99.6394 136.378C99.5274 136.518 99.4714 136.667 99.4714 136.826C99.4714 137.069 99.5834 137.265 99.8074 137.414C100.031 137.563 100.358 137.638 100.787 137.638C101.226 137.638 101.576 137.559 101.837 137.4C102.108 137.251 102.243 137.041 102.243 136.77ZM106.989 133.13L107.087 136H105.225L105.323 133.298L105.239 126.312L107.101 126.172L106.989 133.13ZM108.973 133.312L108.903 129.616L110.737 129.462L110.653 133.13L110.737 136H108.875L108.973 133.312ZM109.855 126.298C110.144 126.298 110.368 126.382 110.527 126.55C110.695 126.718 110.779 126.951 110.779 127.25C110.779 127.567 110.69 127.819 110.513 128.006C110.336 128.193 110.093 128.286 109.785 128.286C109.477 128.286 109.239 128.202 109.071 128.034C108.912 127.866 108.833 127.628 108.833 127.32C108.833 127.012 108.922 126.765 109.099 126.578C109.286 126.391 109.538 126.298 109.855 126.298ZM115.172 129.364C115.48 129.364 115.783 129.397 116.082 129.462C116.39 129.518 116.66 129.602 116.894 129.714L116.586 131.198L116.432 131.268C115.956 131.007 115.531 130.876 115.158 130.876C114.728 130.876 114.397 131.03 114.164 131.338C113.93 131.646 113.814 132.085 113.814 132.654C113.814 133.307 113.94 133.807 114.192 134.152C114.444 134.497 114.803 134.67 115.27 134.67C115.69 134.67 116.156 134.553 116.67 134.32L116.81 134.432L116.628 135.874C116.068 136.051 115.494 136.14 114.906 136.14C114.01 136.14 113.31 135.851 112.806 135.272C112.302 134.684 112.05 133.867 112.05 132.822C112.05 131.739 112.325 130.895 112.876 130.288C113.426 129.672 114.192 129.364 115.172 129.364ZM122.924 132.976L119.144 133.004C119.228 134.171 119.821 134.754 120.922 134.754C121.501 134.754 122.145 134.591 122.854 134.264L123.008 134.362L122.728 135.748C122.019 136.009 121.352 136.14 120.726 136.14C119.7 136.14 118.892 135.841 118.304 135.244C117.726 134.647 117.436 133.821 117.436 132.766C117.436 131.721 117.721 130.895 118.29 130.288C118.86 129.672 119.63 129.364 120.6 129.364C121.431 129.364 122.07 129.593 122.518 130.05C122.976 130.498 123.204 131.128 123.204 131.94C123.204 132.155 123.181 132.425 123.134 132.752L122.924 132.976ZM121.58 131.73C121.58 131.357 121.496 131.077 121.328 130.89C121.16 130.694 120.913 130.596 120.586 130.596C120.222 130.596 119.919 130.717 119.676 130.96C119.434 131.193 119.27 131.534 119.186 131.982L121.552 131.926L121.58 131.73ZM132.286 136L132.398 131.94C132.398 131.249 132.104 130.904 131.516 130.904C131.096 130.904 130.657 131.091 130.2 131.464L130.158 133.144L130.242 136H128.38L128.492 131.94C128.501 131.604 128.426 131.347 128.268 131.17C128.118 130.993 127.899 130.904 127.61 130.904C127.199 130.904 126.746 131.1 126.252 131.492V133.13L126.336 136H124.488L124.586 133.312L124.516 129.616L126.266 129.462V130.414H126.364C126.877 129.947 127.442 129.611 128.058 129.406C129.103 129.406 129.77 129.756 130.06 130.456H130.144C130.676 129.961 131.282 129.611 131.964 129.406C132.673 129.406 133.21 129.569 133.574 129.896C133.947 130.213 134.124 130.675 134.106 131.282L134.064 133.144L134.148 136H132.286ZM135.907 133.312L135.837 129.616L137.671 129.462L137.587 133.13L137.671 136H135.809L135.907 133.312ZM136.789 126.298C137.078 126.298 137.302 126.382 137.461 126.55C137.629 126.718 137.713 126.951 137.713 127.25C137.713 127.567 137.624 127.819 137.447 128.006C137.269 128.193 137.027 128.286 136.719 128.286C136.411 128.286 136.173 128.202 136.005 128.034C135.846 127.866 135.767 127.628 135.767 127.32C135.767 127.012 135.855 126.765 136.033 126.578C136.219 126.391 136.471 126.298 136.789 126.298ZM141.993 129.364C142.712 129.364 143.272 129.527 143.673 129.854C144.084 130.171 144.289 130.619 144.289 131.198C144.289 131.366 144.261 131.898 144.205 132.794C144.196 133.055 144.182 133.326 144.163 133.606C144.144 133.877 144.135 134.11 144.135 134.306C144.135 134.465 144.158 134.577 144.205 134.642C144.252 134.698 144.336 134.726 144.457 134.726C144.55 134.726 144.672 134.707 144.821 134.67L144.961 134.782L144.793 135.762C144.494 135.958 144.154 136.075 143.771 136.112C143.491 136.084 143.258 135.986 143.071 135.818C142.884 135.641 142.758 135.398 142.693 135.09H142.595C142.128 135.585 141.648 135.93 141.153 136.126C140.481 136.117 139.954 135.939 139.571 135.594C139.188 135.249 138.997 134.777 138.997 134.18C138.997 133.713 139.114 133.349 139.347 133.088C139.59 132.817 139.954 132.635 140.439 132.542L142.581 132.136V131.562C142.581 130.955 142.282 130.652 141.685 130.652C141.396 130.652 141.088 130.717 140.761 130.848C140.444 130.979 140.084 131.184 139.683 131.464L139.543 131.38L139.333 130.148C139.734 129.896 140.164 129.705 140.621 129.574C141.078 129.434 141.536 129.364 141.993 129.364ZM141.083 133.396C140.934 133.433 140.822 133.499 140.747 133.592C140.682 133.676 140.649 133.807 140.649 133.984C140.649 134.227 140.714 134.418 140.845 134.558C140.976 134.689 141.158 134.754 141.391 134.754C141.755 134.754 142.138 134.539 142.539 134.11L142.567 133.074L141.083 133.396Z" fill="white"/>
<defs>
<filter id="filter0_b_206:37286" x="3" y="67" width="161" height="97" filterUnits="userSpaceOnUse" color-interpolation-filters="sRGB">
<feFlood flood-opacity="0" result="BackgroundImageFix"/>
<feGaussianBlur in="BackgroundImage" stdDeviation="5"/>
<feComposite in2="SourceAlpha" operator="in" result="effect1_backgroundBlur_206:37286"/>
<feBlend mode="normal" in="SourceGraphic" in2="effect1_backgroundBlur_206:37286" result="shape"/>
</filter>
<linearGradient id="paint0_linear_206:37286" x1="82.2117" y1="4.68472" x2="82.2117" y2="255.402" gradientUnits="userSpaceOnUse">
<stop stop-color="#965450"/>
<stop offset="1" stop-color="#953832"/>
</linearGradient>
</defs>
</svg>
