<svg width="165" height="165" viewBox="0 0 165 165" fill="none" xmlns="http://www.w3.org/2000/svg">
<mask id="mask0_152:19089" style="mask-type:alpha" maskUnits="userSpaceOnUse" x="0" y="0" width="165" height="165">
<rect width="165" height="165" rx="8" fill="#5C9869"/>
</mask>
<g mask="url(#mask0_152:19089)">
<rect width="165" height="165" rx="8" fill="#EEEEEE"/>
<rect x="16" y="16" width="133" height="133" rx="13" stroke="#E0E0E0" stroke-width="10" stroke-linecap="round" stroke-linejoin="round" stroke-dasharray="50 50"/>
<path d="M106.808 112.314C106.393 108.986 103.15 107.808 101.542 107.808C99.4793 107.808 94.5606 110.389 93.667 106.443L93.5806 106.016L70.4573 105.988L70.3336 106.417C69.4586 110.403 64.519 107.808 62.4516 107.808C60.844 107.808 57.6006 108.986 57.1853 112.314C57.1853 112.314 72.9703 118 82.0003 118C91.0373 118 106.808 112.314 106.808 112.314Z" fill="#FFFEFA"/>
<path d="M68.385 81.705C67.111 81.4927 65.9117 82.251 65.6994 83.5204L63.7744 94.1604C63.6087 94.2607 63.443 94.3633 63.268 94.4754C59.1567 97.1144 59.3924 102.71 56.422 105.246C56.023 105.587 54.2077 107.033 53.615 108.338C52.831 110.06 54.1284 109.374 53.72 109.959C52.7727 111.322 52.754 113.408 53.4237 113.893L54.294 114.127C55.5937 115.067 59.1497 111.009 59.6164 108.755C60.3164 105.388 66.7914 101.172 67.9907 97.8984C68.3687 96.8624 68.5134 96.062 68.3944 95.3924L70.975 83.3874C71.1874 82.1134 69.6544 81.915 68.385 81.705ZM110.203 110.095C109.795 109.509 111.223 110.057 110.439 108.335C109.844 107.029 107.898 105.584 107.501 105.244C104.531 102.707 104.897 97.112 100.786 94.473C100.592 94.347 100.403 94.2304 100.219 94.1207L98.3007 83.5204C98.0907 82.251 96.8844 81.495 95.6174 81.705C94.3457 81.9174 92.7357 82.1134 92.9457 83.385L95.6314 95.5697C95.566 96.2043 95.7154 96.951 96.0607 97.8984C97.2577 101.17 103.735 105.386 104.435 108.755C104.904 111.012 108.46 115.069 109.757 114.127L110.628 113.893C111.302 113.403 111.153 111.457 110.203 110.095Z" fill="#D9D9D9"/>
<path d="M93.0997 124.58C90.673 124.788 88.3863 124.095 86.0997 124.58C84.9913 124.65 84.2283 124.58 83.12 123.609C82.0117 122.639 63.7837 120.074 60.4563 117.858C58.921 116.833 56.5783 114.264 57.199 112.106C57.8127 109.976 59.8567 108.772 62.3277 108.711C67.146 108.592 76.3277 115.573 82.98 118.138C84.1887 118.604 85.192 118.016 86.7227 118.415C88.3163 118.831 92.129 117.12 94.0703 117.375C96.7047 117.722 97.743 118.968 97.5353 121.117C97.316 123.39 95.5263 124.372 93.0997 124.58Z" fill="#D9D9D9"/>
<path d="M93.0994 124.58C90.6728 124.788 88.3861 124.095 86.0994 124.58C84.9911 124.65 84.2281 124.58 83.1198 123.609C82.0114 122.639 85.1941 118.012 86.7248 118.411C88.3184 118.826 92.1311 117.116 94.0724 117.37C96.7068 117.718 97.7451 118.964 97.5374 121.113C97.3158 123.39 95.5261 124.372 93.0994 124.58ZM66.1238 118.481C66.6791 117.025 68.8958 116.402 69.9364 116.264C70.9771 116.126 72.7084 116.749 73.8868 117.235C75.0651 117.72 76.4954 117.781 77.3961 117.433C78.2968 117.085 78.9548 117.144 79.6314 117.433C79.8134 117.51 80.6184 117.433 80.9054 117.277C80.9054 117.277 85.0821 118.714 83.5561 119.199C82.0324 119.685 70.9071 120.422 69.3834 120.422C67.8598 120.422 66.1238 118.481 66.1238 118.481Z" fill="#CBCBCB"/>
<path d="M57.199 112.106C57.213 112.059 57.2363 112.02 57.2503 111.975C57.7193 113.753 59.0237 115.849 60.5193 116.404C62.3907 117.097 77.429 121.533 79.3003 121.74C81.1717 121.948 83.9437 122.226 84.499 122.641C85.0543 123.056 86.508 123.196 87.6863 122.919C88.8647 122.641 91.8443 123.749 93.3703 123.404C94.894 123.059 97.113 122.366 97.5283 120.494C97.5353 120.459 97.5447 120.443 97.554 120.415C97.5633 120.639 97.561 120.87 97.5377 121.12C97.3183 123.395 95.5287 124.377 93.102 124.585C90.6753 124.792 88.3887 124.099 86.102 124.585C84.9937 124.655 84.2307 124.585 83.1223 123.614C82.014 122.643 63.786 120.079 60.4587 117.862C58.921 116.833 56.5783 114.262 57.199 112.106Z" fill="#CBCBCB"/>
<path d="M70.9004 124.58C73.3271 124.788 75.6137 124.095 77.9004 124.58C79.0087 124.65 79.7717 124.58 80.8801 123.609C81.9884 122.639 100.216 120.074 103.544 117.858C105.079 116.833 107.422 114.264 106.801 112.106C106.187 109.976 104.143 108.772 101.672 108.711C96.8541 108.592 87.6724 115.573 81.0201 118.138C79.8114 118.604 78.8081 118.016 77.2774 118.415C75.6837 118.831 71.8711 117.12 69.9297 117.375C67.2954 117.722 66.2571 118.968 66.4647 121.117C66.6841 123.39 68.4737 124.372 70.9004 124.58Z" fill="#D9D9D9"/>
<path d="M99.4019 85.6973C99.4019 85.6973 98.1069 78.7557 92.5792 77.589C85.9969 76.2007 84.1279 76 81.9999 76C79.8719 76 78.0029 76.2007 71.4206 77.589C65.8929 78.7533 64.5979 85.6973 64.5979 85.6973L70.3332 87.172C70.3332 87.172 71.1592 92.352 71.1592 96.9277C71.1592 101.503 70.3332 106.333 70.3332 106.333C70.3332 106.333 75.0722 107.115 81.9999 107.115C88.9276 107.115 93.6666 106.333 93.6666 106.333C93.6666 106.333 92.8406 101.501 92.8406 96.9277C92.8406 92.3543 93.6666 87.172 93.6666 87.172L99.4019 85.6973Z" fill="#969696"/>
<path d="M87.1755 41.4713C84.5132 40.6103 78.2505 40.846 76.6825 42.8806C72.6109 42.96 67.8345 46.6396 67.2092 51.493C66.5885 56.2973 67.9699 58.528 68.4622 62.1423C69.0199 66.235 71.3205 67.544 73.1592 68.0923C75.8052 71.59 78.6192 71.4406 83.3442 71.4406C92.5702 71.4406 96.9639 65.2666 97.3535 54.783C97.5892 48.441 93.8675 43.6366 87.1755 41.4713Z" fill="#969696"/>
<path d="M78.0728 68.804V76.7116C78.0728 78.8956 79.8438 80.6666 82.0278 80.6666C84.2118 80.6666 85.9828 78.898 85.9828 76.7116V68.804H78.0728Z" fill="#D9D9D9"/>
<path d="M78.0728 74.7143C79.4634 75.223 82.6578 76.0256 85.9804 74.6746V68.804H78.0728V74.7143Z" fill="#CBCBCB"/>
<path d="M92.451 55.231C91.5573 53.9943 90.4163 53.0003 87.9103 52.648C88.8507 53.0796 89.7513 54.566 89.868 55.3873C89.9847 56.2086 90.1037 56.876 89.3593 56.0523C86.3797 52.7576 83.134 54.055 79.9187 52.0436C77.6717 50.639 76.988 49.0826 76.988 49.0826C76.988 49.0826 76.715 51.157 73.3083 53.271C72.3213 53.8846 71.143 55.2496 70.4897 57.2633C70.0207 58.7123 70.1653 60.005 70.1653 62.2123C70.1653 68.657 75.476 74.075 82.028 74.075C88.58 74.075 93.8907 68.6103 93.8907 62.2123C93.8883 58.206 93.4683 56.6403 92.451 55.231Z" fill="#D9D9D9"/>
</g>
</svg>
