<svg width="165" height="165" viewBox="0 0 165 165" fill="none" xmlns="http://www.w3.org/2000/svg">
<mask id="mask0_152:24249" style="mask-type:alpha" maskUnits="userSpaceOnUse" x="0" y="0" width="165" height="165">
<rect width="165" height="165" rx="8" fill="#5C9869"/>
</mask>
<g mask="url(#mask0_152:24249)">
<rect width="165" height="165" rx="8" fill="#EEEEEE"/>
<path d="M92.0511 93.4146L82.0375 83.4009L72.0221 73.3873C72.0221 73.3873 72.8436 93.5789 51.8306 98.833C51.8306 98.833 53.6939 103.323 57.9045 107.534C62.115 111.745 66.6054 113.608 66.6054 113.608C71.8596 92.593 92.0511 93.4146 92.0511 93.4146Z" fill="#B6B6B6"/>
<path d="M75.4707 79.4613C74.1581 86.0281 66.2769 96.5347 66.2769 96.5347L82.0357 80.7758C87.2881 75.5234 75.4707 79.4613 75.4707 79.4613ZM97.7964 91.2805C97.7964 91.2805 78.0978 92.5931 66.2769 101.787C80.7231 87.3408 87.2899 86.0281 87.2899 86.0281L97.7964 91.2805Z" fill="#C7C7C7"/>
<path d="M104.948 100.402C106.152 100.483 107.382 100.081 108.303 99.1599C109.995 97.4681 109.995 94.7236 108.303 93.0318C108.149 92.8783 107.978 92.7538 107.808 92.6274C108.55 92.445 109.256 92.0785 109.836 91.4989C110.397 90.9374 110.755 90.2567 110.943 89.5417C111.658 89.3521 112.338 88.9964 112.9 88.4349C114.592 86.7431 114.592 83.9986 112.9 82.3068C114.592 80.615 114.592 77.8706 112.9 76.1788C112.264 75.5432 111.481 75.146 110.659 74.9889C111.435 73.3765 111.172 71.3886 109.836 70.0507C109.256 69.4711 108.55 69.1046 107.808 68.9222C107.978 68.7958 108.149 68.6713 108.303 68.5178C109.995 66.826 109.995 64.0815 108.303 62.3897C106.965 61.0518 104.977 60.7882 103.365 61.5664C103.206 60.7449 102.81 59.9613 102.175 59.3257C101.254 58.4049 100.024 58.004 98.82 58.0835C98.9013 56.8792 98.4986 55.6496 97.5778 54.7288C95.886 53.037 93.1416 53.037 91.4497 54.7288C90.1118 53.3908 88.1239 53.1272 86.5116 53.9054C86.3527 53.0839 85.9572 52.3003 85.3217 51.6647C83.6299 49.9729 80.8854 49.9729 79.1936 51.6647C78.5581 52.3003 78.1609 53.0839 78.0038 53.9054C76.3914 53.129 74.4035 53.3926 73.0656 54.7288C72.486 55.3083 72.1195 56.0143 71.9371 56.7564C71.8107 56.5867 71.6861 56.4151 71.5327 56.2617C69.8409 54.5699 67.0964 54.5699 65.4046 56.2617C64.0649 57.596 63.8013 59.5839 64.5777 61.1981C63.7561 61.3551 62.9725 61.7524 62.337 62.3879C60.6452 64.0797 60.6452 66.8242 62.337 68.516C62.9166 69.0956 63.6225 69.4621 64.3646 69.6444C64.1949 69.7708 64.0234 69.8954 63.8699 70.0489C62.1781 71.7407 62.1781 74.4851 63.8699 76.177C64.5054 76.8125 65.2891 77.2097 66.1106 77.3668C65.3342 78.9792 65.5978 80.9671 66.9339 82.305C68.2718 83.6429 70.2597 83.9065 71.8721 83.1283C72.031 83.9499 72.4264 84.7335 73.062 85.369C73.6416 85.9486 74.3475 86.3151 75.0896 86.4975C74.9199 86.6239 74.7484 86.7485 74.5949 86.902C72.9031 88.5938 72.9031 91.3382 74.5949 93.03C75.9328 94.3679 77.9207 94.6315 79.5331 93.8533C79.692 94.6749 80.0874 95.4585 80.7229 96.094C81.8713 97.2424 83.4981 97.5926 84.957 97.1828C85.0725 97.3344 85.1809 97.4879 85.3199 97.627C86.2407 98.5478 87.4703 98.9486 88.6746 98.8692C88.5934 100.073 88.996 101.303 89.9168 102.224C91.6086 103.916 94.3531 103.916 96.0449 102.224C96.1984 102.07 96.3229 101.899 96.4493 101.729C96.6317 102.471 96.9982 103.177 97.5778 103.757C99.2696 105.449 102.014 105.449 103.706 103.757C104.627 102.836 105.028 101.606 104.948 100.402Z" fill="#ABABAB"/>
<path d="M70.2166 62.5468C71.7553 62.5468 73.0026 61.2995 73.0026 59.7608C73.0026 58.2222 71.7553 56.9749 70.2166 56.9749C68.678 56.9749 67.4307 58.2222 67.4307 59.7608C67.4307 61.2995 68.678 62.5468 70.2166 62.5468Z" fill="#C7C7C7"/>
<path d="M78.098 62.5468C79.6366 62.5468 80.884 61.2995 80.884 59.7608C80.884 58.2222 79.6366 56.9749 78.098 56.9749C76.5593 56.9749 75.312 58.2222 75.312 59.7608C75.312 61.2995 76.5593 62.5468 78.098 62.5468Z" fill="#C7C7C7"/>
<path d="M83.3502 57.2945C84.8888 57.2945 86.1362 56.0472 86.1362 54.5085C86.1362 52.9699 84.8888 51.7225 83.3502 51.7225C81.8115 51.7225 80.5642 52.9699 80.5642 54.5085C80.5642 56.0472 81.8115 57.2945 83.3502 57.2945Z" fill="#C7C7C7"/>
<path d="M89.9171 61.2342C91.4557 61.2342 92.703 59.9869 92.703 58.4482C92.703 56.9096 91.4557 55.6622 89.9171 55.6622C88.3784 55.6622 87.1311 56.9096 87.1311 58.4482C87.1311 59.9869 88.3784 61.2342 89.9171 61.2342Z" fill="#C7C7C7"/>
<path d="M95.1693 61.2342C96.7079 61.2342 97.9552 59.9869 97.9552 58.4482C97.9552 56.9096 96.7079 55.6622 95.1693 55.6622C93.6306 55.6622 92.3833 56.9096 92.3833 58.4482C92.3833 59.9869 93.6306 61.2342 95.1693 61.2342Z" fill="#C7C7C7"/>
<path d="M96.4837 65.1739C98.0224 65.1739 99.2697 63.9266 99.2697 62.3879C99.2697 60.8493 98.0224 59.6019 96.4837 59.6019C94.9451 59.6019 93.6978 60.8493 93.6978 62.3879C93.6978 63.9266 94.9451 65.1739 96.4837 65.1739Z" fill="#C7C7C7"/>
<path d="M100.424 66.4865C101.962 66.4865 103.21 65.2392 103.21 63.7005C103.21 62.1619 101.962 60.9146 100.424 60.9146C98.885 60.9146 97.6377 62.1619 97.6377 63.7005C97.6377 65.2392 98.885 66.4865 100.424 66.4865Z" fill="#C7C7C7"/>
<path d="M105.676 69.1137C107.215 69.1137 108.462 67.8664 108.462 66.3277C108.462 64.7891 107.215 63.5417 105.676 63.5417C104.137 63.5417 102.89 64.7891 102.89 66.3277C102.89 67.8664 104.137 69.1137 105.676 69.1137Z" fill="#C7C7C7"/>
<path d="M104.363 73.0534C105.902 73.0534 107.149 71.8061 107.149 70.2674C107.149 68.7288 105.902 67.4814 104.363 67.4814C102.825 67.4814 101.577 68.7288 101.577 70.2674C101.577 71.8061 102.825 73.0534 104.363 73.0534Z" fill="#C7C7C7"/>
<path d="M108.303 79.6202C109.842 79.6202 111.089 78.3728 111.089 76.8342C111.089 75.2955 109.842 74.0482 108.303 74.0482C106.765 74.0482 105.517 75.2955 105.517 76.8342C105.517 78.3728 106.765 79.6202 108.303 79.6202Z" fill="#C7C7C7"/>
<path d="M109.616 86.1869C111.154 86.1869 112.402 84.9396 112.402 83.401C112.402 81.8623 111.154 80.615 109.616 80.615C108.077 80.615 106.83 81.8623 106.83 83.401C106.83 84.9396 108.077 86.1869 109.616 86.1869Z" fill="#C7C7C7"/>
<path d="M99.1092 73.0534C100.648 73.0534 101.895 71.8061 101.895 70.2674C101.895 68.7288 100.648 67.4814 99.1092 67.4814C97.5706 67.4814 96.3232 68.7288 96.3232 70.2674C96.3232 71.8061 97.5706 73.0534 99.1092 73.0534Z" fill="#C7C7C7"/>
<path d="M93.857 67.8009C95.3957 67.8009 96.643 66.5536 96.643 65.015C96.643 63.4763 95.3957 62.229 93.857 62.229C92.3184 62.229 91.071 63.4763 91.071 65.015C91.071 66.5536 92.3184 67.8009 93.857 67.8009Z" fill="#C7C7C7"/>
<path d="M87.2901 63.8613C88.8288 63.8613 90.0761 62.6139 90.0761 61.0753C90.0761 59.5366 88.8288 58.2893 87.2901 58.2893C85.7515 58.2893 84.5042 59.5366 84.5042 61.0753C84.5042 62.6139 85.7515 63.8613 87.2901 63.8613Z" fill="#C7C7C7"/>
<path d="M79.4107 66.4865C80.9494 66.4865 82.1967 65.2392 82.1967 63.7005C82.1967 62.1619 80.9494 60.9146 79.4107 60.9146C77.8721 60.9146 76.6248 62.1619 76.6248 63.7005C76.6248 65.2392 77.8721 66.4865 79.4107 66.4865Z" fill="#C7C7C7"/>
<path d="M82.0374 63.8613C83.5761 63.8613 84.8234 62.6139 84.8234 61.0753C84.8234 59.5366 83.5761 58.2893 82.0374 58.2893C80.4988 58.2893 79.2515 59.5366 79.2515 61.0753C79.2515 62.6139 80.4988 63.8613 82.0374 63.8613Z" fill="#C7C7C7"/>
<path d="M74.1563 69.1137C75.695 69.1137 76.9423 67.8664 76.9423 66.3277C76.9423 64.7891 75.695 63.5417 74.1563 63.5417C72.6177 63.5417 71.3704 64.7891 71.3704 66.3277C71.3704 67.8664 72.6177 69.1137 74.1563 69.1137Z" fill="#C7C7C7"/>
<path d="M87.2901 71.7408C88.8288 71.7408 90.0761 70.4934 90.0761 68.9548C90.0761 67.4161 88.8288 66.1688 87.2901 66.1688C85.7515 66.1688 84.5042 67.4161 84.5042 68.9548C84.5042 70.4934 85.7515 71.7408 87.2901 71.7408Z" fill="#C7C7C7"/>
<path d="M96.4837 80.9328C98.0224 80.9328 99.2697 79.6855 99.2697 78.1468C99.2697 76.6082 98.0224 75.3608 96.4837 75.3608C94.9451 75.3608 93.6978 76.6082 93.6978 78.1468C93.6978 79.6855 94.9451 80.9328 96.4837 80.9328Z" fill="#C7C7C7"/>
<path d="M99.1092 88.814C100.648 88.814 101.895 87.5667 101.895 86.028C101.895 84.4894 100.648 83.2421 99.1092 83.2421C97.5706 83.2421 96.3232 84.4894 96.3232 86.028C96.3232 87.5667 97.5706 88.814 99.1092 88.814Z" fill="#C7C7C7"/>
<rect x="16" y="16" width="133" height="133" rx="13" stroke="#E0E0E0" stroke-width="10" stroke-linecap="round" stroke-linejoin="round" stroke-dasharray="50 50"/>
</g>
</svg>
