<svg width="167" height="167" viewBox="0 0 167 167" fill="none" xmlns="http://www.w3.org/2000/svg">
<mask id="mask0_206:36891" style="mask-type:alpha" maskUnits="userSpaceOnUse" x="0" y="0" width="167" height="167">
<rect x="1" y="1" width="165" height="165" rx="8" fill="#5988D6" stroke="#EDE6FC" stroke-opacity="0.3"/>
</mask>
<g mask="url(#mask0_206:36891)">
<rect x="1" y="1" width="165" height="165" rx="8" fill="#D97A7A" stroke="#EDE6FC" stroke-opacity="0.3"/>
<path d="M117.173 74.1452C118.611 68.5527 132.165 60.5204 128.628 54.883C126.387 51.3131 108.576 66.8191 108.576 66.8191C100.351 64.8608 98.9447 51.4993 100.627 44.7062C102.804 35.7557 105.057 26.8501 106.001 17.7841C106.126 16.9535 106.171 16.1128 106.136 15.2736C106.042 13.6025 105.808 11.9422 105.436 10.3104C104.955 8.46764 103.478 7.57516 101.584 7.59442C100.798 7.62841 100.044 7.91375 99.4323 8.40846C98.8208 8.90317 98.3843 9.58111 98.1871 10.3425C97.6349 12.3457 97.2625 14.4004 96.813 16.4293C96.1068 19.5883 95.4968 22.7666 94.6749 25.887C93.5064 30.3045 92.1388 34.6706 90.9445 39.0816C90.5528 40.5199 89.9814 41.7398 88.5367 42.292C87.8605 42.4722 87.1679 42.5841 86.4693 42.6258C86.3126 41.9963 86.2435 41.3481 86.2638 40.6996C86.9089 36.546 87.1775 32.3426 87.0664 28.1407C86.9893 22.8308 86.5848 17.5208 86.1675 12.2238C85.9831 10.31 85.5913 8.4219 84.9989 6.59278C84.4596 4.8335 82.2188 3.71631 80.4723 4.06303C79.5503 4.261 78.7257 4.77346 78.14 5.51262C77.5543 6.25177 77.2439 7.1716 77.262 8.1145C77.262 11.0038 77.3133 13.8931 77.1977 16.776C77.0501 20.2882 76.7098 23.7875 76.5557 27.2932C76.4208 29.9578 76.3374 32.6288 76.3374 35.2998C76.3374 37.1297 76.5621 38.9596 76.6199 40.7959C76.6319 41.3507 76.4716 41.8956 76.1612 42.3555C75.8507 42.8155 75.4053 43.1679 74.8863 43.3642C73.4801 44.0577 73.1655 43.8458 72.8638 42.3241C72.3922 39.6302 71.7835 36.9622 71.0403 34.3303C70.4496 32.4041 69.281 30.6962 68.5234 28.8277C66.7063 24.3332 64.992 19.7874 63.2006 15.28C62.9236 14.5898 62.552 13.9415 62.0962 13.3538C61.7541 12.9137 61.3159 12.5576 60.8152 12.3126C60.3144 12.0677 59.7644 11.9403 59.2069 11.9403C58.6495 11.9403 58.0994 12.0677 57.5986 12.3126C57.0979 12.5576 56.6597 12.9137 56.3176 13.3538C55.9018 13.8214 55.6062 14.3832 55.4563 14.9906C55.3064 15.5981 55.3067 16.2329 55.4572 16.8402C55.6819 17.7135 55.8553 18.5995 56.0993 19.4663C56.9982 22.407 57.9292 25.3413 58.8345 28.282C59.9581 31.9418 61.0175 35.6144 62.2182 39.2486C63.0144 41.6692 64.0289 44.0127 64.8892 46.4141C65.2125 47.0846 65.35 47.8296 65.2873 48.5714C65.1479 49.0976 64.8719 49.5776 64.4873 49.9628C64.1026 50.348 63.623 50.6246 63.097 50.7648C62.571 50.9049 62.0173 50.9035 61.492 50.7608C60.9668 50.618 60.4885 50.339 60.1058 49.9519C58.3722 48.2054 56.6836 46.4205 54.9692 44.6548C51.6817 41.2126 48.6374 37.5461 45.8582 33.6818C45.2248 32.8375 44.5248 32.0452 43.7651 31.3125C43.2286 30.7399 42.5146 30.365 41.7385 30.2485C40.9625 30.132 40.1699 30.2806 39.4889 30.6705C38.8084 31.0667 38.285 31.6851 38.0068 32.4217C37.7285 33.1584 37.7122 33.9683 37.9608 34.7155C38.4467 36.2287 39.0924 37.6859 39.887 39.0623C43.164 44.4989 46.9592 49.6057 51.2195 54.3116C52.7725 55.9731 54.0708 57.8555 55.072 59.8976C56.7478 63.5831 57.5247 67.6024 58.2823 71.5576C58.9573 75.2899 59.8578 78.9779 60.979 82.6012C61.7495 84.9512 63.2712 87.0572 64.4077 89.2916C66.167 92.7652 67.9648 96.2067 70.6743 99.0704C70.9662 99.3947 71.1852 99.7778 71.3164 100.194C71.8364 101.78 71.6952 103.854 72.0548 105.478C72.5497 107.339 72.8319 109.249 72.8959 111.173C73.026 116.371 73.431 121.557 74.1094 126.712C74.6102 130.936 74.6038 133.036 75.1174 136.381C75.92 141.672 76.485 147.296 77.416 152.549C77.8527 155.014 78.0581 157.595 78.4241 160.086C78.758 162.43 79.1753 164.331 79.2588 166.115C79.5104 169.1 79.9587 172.064 80.6007 174.989L118.547 175.047C118.547 175.047 103.176 115.09 102.386 111.668C101.378 107.257 100.499 102.814 99.7024 98.3577C99.4006 96.6883 99.1373 95.5454 99.3428 94.5823C105.686 94.4924 115.754 79.6734 117.173 74.1452Z" fill="url(#paint0_linear_206:36891)"/>
</g>
<defs>
<linearGradient id="paint0_linear_206:36891" x1="81.0919" y1="4" x2="83.5" y2="175.047" gradientUnits="userSpaceOnUse">
<stop stop-color="#FFE8D2"/>
<stop offset="0.380208" stop-color="#FBCFA5"/>
<stop offset="1" stop-color="#F2B98F"/>
</linearGradient>
</defs>
</svg>
