<svg width="167" height="167" viewBox="0 0 167 167" fill="none" xmlns="http://www.w3.org/2000/svg">
<mask id="mask0_206:36836" style="mask-type:alpha" maskUnits="userSpaceOnUse" x="0" y="0" width="167" height="167">
<rect x="1" y="1" width="165" height="165" rx="8" fill="#5988D6" stroke="#EDE6FC" stroke-opacity="0.3"/>
</mask>
<g mask="url(#mask0_206:36836)">
<rect x="1" y="1" width="165" height="165" rx="8" fill="#A97AD9" stroke="#EDE6FC" stroke-opacity="0.3"/>
</g>
<g clip-path="url(#clip0_206:36836)">
<path d="M45.0342 59.8189L96.4309 49.5339C96.4309 49.5339 105.654 44.6446 111.35 45.3613L126.871 39.0316L124.374 31.0017L107.982 31.6515C107.982 31.6515 98.8285 36.6944 92.8538 35.0934L42.7831 49.0827L45.0342 59.8189Z" fill="white"/>
<path d="M92.8807 35.0393C94.0715 37.2382 94.9647 39.5856 95.5371 42.0198C96.3064 44.4039 96.7113 46.8904 96.7381 49.3954C96.548 49.4181 96.0428 46.13 94.988 42.1916C93.9333 38.2533 92.7158 35.1055 92.8807 35.0393Z" fill="#263238"/>
<path d="M107.96 31.7805C108.798 33.9595 109.448 36.2062 109.902 38.4961C110.56 40.7382 111.012 43.0356 111.252 45.3597C110.411 43.2004 109.756 40.9728 109.295 38.7014C108.642 36.4394 108.196 34.123 107.96 31.7805V31.7805Z" fill="#263238"/>
<path d="M56.2272 45.2877C57.0073 47.1501 57.6025 49.0846 58.0041 51.0634C58.5981 52.9951 58.9904 54.9831 59.1748 56.9957C58.3866 55.1325 57.7922 53.1933 57.4009 51.2085C56.8048 49.2811 56.4114 47.2968 56.2272 45.2877V45.2877Z" fill="#263238"/>
<path d="M82.3011 42.3375L82.2647 42.107C82.1493 41.4932 82.281 40.8587 82.6309 40.3414C82.9809 39.8241 83.5209 39.4658 84.1335 39.3445L95.3721 36.9582C95.6821 36.8884 96.003 36.8816 96.3157 36.9383C96.6283 36.9949 96.9264 37.1139 97.1922 37.2881C97.4579 37.4623 97.6859 37.6882 97.8626 37.9523C98.0393 38.2165 98.1611 38.5134 98.2207 38.8256V38.8256C98.2885 39.1296 98.2957 39.4441 98.2419 39.7509C98.1881 40.0578 98.0742 40.351 97.907 40.6138C97.7397 40.8766 97.5223 41.1039 97.2671 41.2826C97.0119 41.4613 96.724 41.5879 96.4198 41.6552L85.2176 44.2721C84.8981 44.352 84.5655 44.3644 84.241 44.3086C83.9165 44.2528 83.6071 44.1299 83.3327 43.9479C83.0583 43.7659 82.8249 43.5287 82.6472 43.2514C82.4696 42.9741 82.3517 42.6629 82.3011 42.3375Z" fill="#455A64"/>
</g>
<g filter="url(#filter0_b_206:36836)">
<rect x="13" y="77" width="141" height="77" rx="10" fill="black" fill-opacity="0.8"/>
</g>
<path d="M38.9481 110.586L38.8221 112H33.9501L34.0481 109.312L33.9501 102.984H35.8821L35.7701 109.144L35.8121 110.432H38.8361L38.9481 110.586ZM42.3867 105.364C43.1054 105.364 43.6654 105.527 44.0667 105.854C44.4774 106.171 44.6827 106.619 44.6827 107.198C44.6827 107.366 44.6547 107.898 44.5987 108.794C44.5894 109.055 44.5754 109.326 44.5567 109.606C44.538 109.877 44.5287 110.11 44.5287 110.306C44.5287 110.465 44.552 110.577 44.5987 110.642C44.6454 110.698 44.7294 110.726 44.8507 110.726C44.944 110.726 45.0654 110.707 45.2147 110.67L45.3547 110.782L45.1867 111.762C44.888 111.958 44.5474 112.075 44.1647 112.112C43.8847 112.084 43.6514 111.986 43.4647 111.818C43.278 111.641 43.152 111.398 43.0867 111.09H42.9887C42.522 111.585 42.0414 111.93 41.5467 112.126C40.8747 112.117 40.3474 111.939 39.9647 111.594C39.582 111.249 39.3907 110.777 39.3907 110.18C39.3907 109.713 39.5074 109.349 39.7407 109.088C39.9834 108.817 40.3474 108.635 40.8327 108.542L42.9747 108.136V107.562C42.9747 106.955 42.676 106.652 42.0787 106.652C41.7894 106.652 41.4814 106.717 41.1547 106.848C40.8374 106.979 40.478 107.184 40.0767 107.464L39.9367 107.38L39.7267 106.148C40.128 105.896 40.5574 105.705 41.0147 105.574C41.472 105.434 41.9294 105.364 42.3867 105.364ZM41.4767 109.396C41.3274 109.433 41.2154 109.499 41.1407 109.592C41.0754 109.676 41.0427 109.807 41.0427 109.984C41.0427 110.227 41.108 110.418 41.2387 110.558C41.3694 110.689 41.5514 110.754 41.7847 110.754C42.1487 110.754 42.5314 110.539 42.9327 110.11L42.9607 109.074L41.4767 109.396ZM50.4869 107.94C50.4962 107.613 50.4216 107.361 50.2629 107.184C50.1136 106.997 49.8942 106.904 49.6049 106.904C49.1849 106.904 48.7369 107.105 48.2609 107.506V109.13L48.3449 112H46.4829L46.5809 109.312L46.5109 105.616L48.2749 105.462V106.414H48.3729C48.8862 105.947 49.4462 105.611 50.0529 105.406C50.7622 105.406 51.3036 105.569 51.6769 105.896C52.0502 106.213 52.2276 106.675 52.2089 107.282L52.1669 109.144L52.2509 112H50.3749L50.4869 107.94ZM56.5671 105.364C56.8751 105.364 57.1784 105.397 57.4771 105.462C57.7851 105.518 58.0557 105.602 58.2891 105.714L57.9811 107.198L57.8271 107.268C57.3511 107.007 56.9264 106.876 56.5531 106.876C56.1237 106.876 55.7924 107.03 55.5591 107.338C55.3257 107.646 55.2091 108.085 55.2091 108.654C55.2091 109.307 55.3351 109.807 55.5871 110.152C55.8391 110.497 56.1984 110.67 56.6651 110.67C57.0851 110.67 57.5517 110.553 58.0651 110.32L58.2051 110.432L58.0231 111.874C57.4631 112.051 56.8891 112.14 56.3011 112.14C55.4051 112.14 54.7051 111.851 54.2011 111.272C53.6971 110.684 53.4451 109.867 53.4451 108.822C53.4451 107.739 53.7204 106.895 54.2711 106.288C54.8217 105.672 55.5871 105.364 56.5671 105.364ZM64.3198 108.976L60.5398 109.004C60.6238 110.171 61.2164 110.754 62.3178 110.754C62.8964 110.754 63.5404 110.591 64.2498 110.264L64.4038 110.362L64.1238 111.748C63.4144 112.009 62.7471 112.14 62.1218 112.14C61.0951 112.14 60.2878 111.841 59.6998 111.244C59.1211 110.647 58.8318 109.821 58.8318 108.766C58.8318 107.721 59.1164 106.895 59.6858 106.288C60.2551 105.672 61.0251 105.364 61.9958 105.364C62.8264 105.364 63.4658 105.593 63.9138 106.05C64.3711 106.498 64.5998 107.128 64.5998 107.94C64.5998 108.155 64.5764 108.425 64.5298 108.752L64.3198 108.976ZM62.9758 107.73C62.9758 107.357 62.8918 107.077 62.7238 106.89C62.5558 106.694 62.3084 106.596 61.9818 106.596C61.6178 106.596 61.3144 106.717 61.0718 106.96C60.8291 107.193 60.6658 107.534 60.5818 107.982L62.9478 107.926L62.9758 107.73ZM68.5153 110.628C68.814 110.628 69.1266 110.549 69.4533 110.39L69.6073 110.53L69.4253 111.636C68.9493 111.879 68.464 112.028 67.9693 112.084C66.7093 111.953 66.0793 111.337 66.0793 110.236L66.1493 109.074L66.1353 106.666H65.2673L65.1973 106.568L65.2953 105.546H66.1213V104.468L67.8153 103.922L67.9413 104.034L67.8993 105.546H69.5653L69.6213 105.644L69.5373 106.666H67.8713L67.7873 109.802C67.7873 110.101 67.8433 110.315 67.9553 110.446C68.0673 110.567 68.254 110.628 68.5153 110.628ZM73.1758 105.364C73.8944 105.364 74.4544 105.527 74.8558 105.854C75.2664 106.171 75.4718 106.619 75.4718 107.198C75.4718 107.366 75.4438 107.898 75.3878 108.794C75.3784 109.055 75.3644 109.326 75.3458 109.606C75.3271 109.877 75.3178 110.11 75.3178 110.306C75.3178 110.465 75.3411 110.577 75.3878 110.642C75.4344 110.698 75.5184 110.726 75.6398 110.726C75.7331 110.726 75.8544 110.707 76.0038 110.67L76.1438 110.782L75.9758 111.762C75.6771 111.958 75.3364 112.075 74.9538 112.112C74.6738 112.084 74.4404 111.986 74.2538 111.818C74.0671 111.641 73.9411 111.398 73.8758 111.09H73.7778C73.3111 111.585 72.8304 111.93 72.3358 112.126C71.6638 112.117 71.1364 111.939 70.7538 111.594C70.3711 111.249 70.1798 110.777 70.1798 110.18C70.1798 109.713 70.2964 109.349 70.5298 109.088C70.7724 108.817 71.1364 108.635 71.6218 108.542L73.7638 108.136V107.562C73.7638 106.955 73.4651 106.652 72.8678 106.652C72.5784 106.652 72.2704 106.717 71.9438 106.848C71.6264 106.979 71.2671 107.184 70.8658 107.464L70.7258 107.38L70.5158 106.148C70.9171 105.896 71.3464 105.705 71.8038 105.574C72.2611 105.434 72.7184 105.364 73.1758 105.364ZM72.2658 109.396C72.1164 109.433 72.0044 109.499 71.9298 109.592C71.8644 109.676 71.8318 109.807 71.8318 109.984C71.8318 110.227 71.8971 110.418 72.0278 110.558C72.1584 110.689 72.3404 110.754 72.5738 110.754C72.9378 110.754 73.3204 110.539 73.7218 110.11L73.7498 109.074L72.2658 109.396ZM79.538 105.378C80.1727 105.378 80.77 105.485 81.33 105.7L81.078 107.072L80.854 107.142C80.5833 106.965 80.3127 106.829 80.042 106.736C79.7713 106.643 79.5333 106.596 79.328 106.596C79.104 106.596 78.9267 106.657 78.796 106.778C78.6653 106.89 78.6 107.03 78.6 107.198C78.6 107.394 78.684 107.553 78.852 107.674C79.0293 107.795 79.3047 107.931 79.678 108.08C80.0513 108.229 80.3593 108.374 80.602 108.514C80.8447 108.654 81.05 108.85 81.218 109.102C81.3953 109.345 81.484 109.648 81.484 110.012C81.484 110.385 81.386 110.735 81.19 111.062C81.0033 111.379 80.714 111.641 80.322 111.846C79.93 112.042 79.4493 112.14 78.88 112.14C78.208 112.14 77.5127 112 76.794 111.72L77.004 110.264L77.186 110.152C77.4753 110.395 77.7973 110.591 78.152 110.74C78.5067 110.88 78.8193 110.95 79.09 110.95C79.342 110.95 79.538 110.889 79.678 110.768C79.818 110.637 79.888 110.483 79.888 110.306C79.888 110.11 79.7993 109.951 79.622 109.83C79.454 109.709 79.1833 109.573 78.81 109.424C78.4273 109.256 78.1147 109.107 77.872 108.976C77.6293 108.836 77.4193 108.64 77.242 108.388C77.074 108.136 76.99 107.823 76.99 107.45C76.99 106.843 77.2187 106.349 77.676 105.966C78.1333 105.574 78.754 105.378 79.538 105.378ZM88.0662 103.32V103.474C87.5062 103.978 87.1002 104.622 86.8482 105.406C86.5962 106.19 86.4702 107.203 86.4702 108.444C86.4702 109.62 86.5962 110.586 86.8482 111.342C87.1002 112.089 87.5062 112.719 88.0662 113.232V113.386L87.3942 113.946H87.2402C86.4469 113.367 85.8729 112.649 85.5182 111.79C85.1635 110.922 84.9815 109.811 84.9722 108.458C84.9815 107.03 85.1635 105.868 85.5182 104.972C85.8729 104.076 86.4469 103.334 87.2402 102.746H87.3942L88.0662 103.32ZM96.2971 112H94.3651L94.1411 110.824L93.9031 109.984L92.1391 109.942L90.5851 109.984L90.3471 110.726L90.1091 112H88.2331L91.2851 102.984H93.5391L96.2971 112ZM93.4971 108.514L92.4331 104.762H92.3071L91.0751 108.514L92.2791 108.542L93.4971 108.514ZM103.628 106.372C103.376 106.437 103.016 106.507 102.55 106.582L102.522 106.638C102.662 106.918 102.732 107.231 102.732 107.576C102.732 108.276 102.475 108.836 101.962 109.256C101.458 109.667 100.772 109.872 99.9036 109.872C99.6423 109.872 99.3716 109.849 99.0916 109.802C99.0076 109.886 98.9516 109.951 98.9236 109.998C98.8956 110.045 98.8816 110.101 98.8816 110.166C98.8816 110.334 98.9936 110.451 99.2176 110.516C99.4416 110.581 99.7963 110.647 100.282 110.712C100.832 110.777 101.29 110.857 101.654 110.95C102.027 111.043 102.344 111.207 102.606 111.44C102.876 111.673 103.012 112.005 103.012 112.434C103.012 112.873 102.872 113.265 102.592 113.61C102.321 113.965 101.943 114.24 101.458 114.436C100.972 114.632 100.422 114.73 99.8056 114.73C98.9563 114.73 98.303 114.557 97.8456 114.212C97.3883 113.867 97.1596 113.409 97.1596 112.84C97.449 112.439 97.8363 112.089 98.3216 111.79V111.72C98.0043 111.608 97.757 111.454 97.5796 111.258C97.4023 111.053 97.3136 110.782 97.3136 110.446C97.5656 110.138 97.883 109.853 98.2656 109.592V109.522C97.9296 109.335 97.673 109.093 97.4956 108.794C97.3276 108.486 97.2436 108.127 97.2436 107.716C97.2436 106.988 97.4956 106.419 97.9996 106.008C98.5036 105.597 99.1896 105.392 100.058 105.392C100.562 105.392 101.019 105.476 101.43 105.644C102.102 105.523 102.788 105.336 103.488 105.084L103.628 105.21V106.372ZM99.9596 108.752C100.342 108.752 100.632 108.654 100.828 108.458C101.024 108.262 101.122 107.977 101.122 107.604C101.122 106.895 100.758 106.54 100.03 106.54C99.2456 106.54 98.8536 106.899 98.8536 107.618C98.8536 107.991 98.947 108.276 99.1336 108.472C99.3203 108.659 99.5956 108.752 99.9596 108.752ZM101.444 112.77C101.444 112.518 101.308 112.345 101.038 112.252C100.776 112.159 100.37 112.079 99.8196 112.014L99.3436 111.944C99.1196 112.093 98.9516 112.238 98.8396 112.378C98.7276 112.518 98.6716 112.667 98.6716 112.826C98.6716 113.069 98.7836 113.265 99.0076 113.414C99.2316 113.563 99.5583 113.638 99.9876 113.638C100.426 113.638 100.776 113.559 101.038 113.4C101.308 113.251 101.444 113.041 101.444 112.77ZM110.586 110.782L110.418 111.762C110.072 111.986 109.718 112.103 109.354 112.112C109.083 112.065 108.859 111.958 108.682 111.79C108.504 111.622 108.369 111.379 108.276 111.062H108.15C107.618 111.585 107.067 111.925 106.498 112.084C105.788 112.084 105.247 111.925 104.874 111.608C104.51 111.281 104.332 110.815 104.342 110.208L104.37 108.556L104.3 105.616L106.106 105.462L106.064 109.592C106.054 109.919 106.12 110.166 106.26 110.334C106.4 110.502 106.61 110.586 106.89 110.586C107.3 110.586 107.706 110.404 108.108 110.04V105.616L109.886 105.462L109.76 110.306C109.76 110.455 109.783 110.563 109.83 110.628C109.886 110.693 109.97 110.726 110.082 110.726C110.184 110.726 110.31 110.707 110.46 110.67L110.586 110.782ZM113.504 109.13L113.602 112H111.74L111.838 109.298L111.754 102.312L113.616 102.172L113.504 109.13ZM119.422 107.94C119.431 107.604 119.361 107.347 119.212 107.17C119.062 106.993 118.843 106.904 118.554 106.904C118.134 106.904 117.686 107.105 117.21 107.506L117.182 109.13L117.28 112H115.418L115.516 109.298L115.432 102.312L117.294 102.172L117.224 106.414H117.308C117.821 105.947 118.386 105.611 119.002 105.406C119.711 105.406 120.248 105.569 120.612 105.896C120.985 106.213 121.167 106.675 121.158 107.282L121.116 109.144L121.186 112H119.324L119.422 107.94ZM125.389 105.364C126.107 105.364 126.667 105.527 127.069 105.854C127.479 106.171 127.685 106.619 127.685 107.198C127.685 107.366 127.657 107.898 127.601 108.794C127.591 109.055 127.577 109.326 127.559 109.606C127.54 109.877 127.531 110.11 127.531 110.306C127.531 110.465 127.554 110.577 127.601 110.642C127.647 110.698 127.731 110.726 127.853 110.726C127.946 110.726 128.067 110.707 128.217 110.67L128.357 110.782L128.189 111.762C127.89 111.958 127.549 112.075 127.167 112.112C126.887 112.084 126.653 111.986 126.467 111.818C126.28 111.641 126.154 111.398 126.089 111.09H125.991C125.524 111.585 125.043 111.93 124.549 112.126C123.877 112.117 123.349 111.939 122.967 111.594C122.584 111.249 122.393 110.777 122.393 110.18C122.393 109.713 122.509 109.349 122.743 109.088C122.985 108.817 123.349 108.635 123.835 108.542L125.977 108.136V107.562C125.977 106.955 125.678 106.652 125.081 106.652C124.791 106.652 124.483 106.717 124.157 106.848C123.839 106.979 123.48 107.184 123.079 107.464L122.939 107.38L122.729 106.148C123.13 105.896 123.559 105.705 124.017 105.574C124.474 105.434 124.931 105.364 125.389 105.364ZM124.479 109.396C124.329 109.433 124.217 109.499 124.143 109.592C124.077 109.676 124.045 109.807 124.045 109.984C124.045 110.227 124.11 110.418 124.241 110.558C124.371 110.689 124.553 110.754 124.787 110.754C125.151 110.754 125.533 110.539 125.935 110.11L125.963 109.074L124.479 109.396ZM131.751 105.378C132.386 105.378 132.983 105.485 133.543 105.7L133.291 107.072L133.067 107.142C132.796 106.965 132.526 106.829 132.255 106.736C131.984 106.643 131.746 106.596 131.541 106.596C131.317 106.596 131.14 106.657 131.009 106.778C130.878 106.89 130.813 107.03 130.813 107.198C130.813 107.394 130.897 107.553 131.065 107.674C131.242 107.795 131.518 107.931 131.891 108.08C132.264 108.229 132.572 108.374 132.815 108.514C133.058 108.654 133.263 108.85 133.431 109.102C133.608 109.345 133.697 109.648 133.697 110.012C133.697 110.385 133.599 110.735 133.403 111.062C133.216 111.379 132.927 111.641 132.535 111.846C132.143 112.042 131.662 112.14 131.093 112.14C130.421 112.14 129.726 112 129.007 111.72L129.217 110.264L129.399 110.152C129.688 110.395 130.01 110.591 130.365 110.74C130.72 110.88 131.032 110.95 131.303 110.95C131.555 110.95 131.751 110.889 131.891 110.768C132.031 110.637 132.101 110.483 132.101 110.306C132.101 110.11 132.012 109.951 131.835 109.83C131.667 109.709 131.396 109.573 131.023 109.424C130.64 109.256 130.328 109.107 130.085 108.976C129.842 108.836 129.632 108.64 129.455 108.388C129.287 108.136 129.203 107.823 129.203 107.45C129.203 106.843 129.432 106.349 129.889 105.966C130.346 105.574 130.967 105.378 131.751 105.378ZM38.1964 121.406C39.0084 121.406 39.6338 121.681 40.0724 122.232C40.5111 122.783 40.7304 123.562 40.7304 124.57C40.7304 125.709 40.4458 126.591 39.8764 127.216C39.3164 127.832 38.5231 128.14 37.4964 128.14C37.1978 128.14 36.8851 128.112 36.5584 128.056L36.6004 130.59H34.7524L34.8504 125.312L34.7664 121.616L36.5444 121.462L36.5304 122.414H36.6284C36.8898 122.162 37.1418 121.961 37.3844 121.812C37.6271 121.653 37.8978 121.518 38.1964 121.406ZM37.5104 126.922C37.9958 126.922 38.3644 126.749 38.6164 126.404C38.8684 126.059 38.9944 125.55 38.9944 124.878C38.9944 124.225 38.8871 123.735 38.6724 123.408C38.4671 123.072 38.1591 122.904 37.7484 122.904C37.3471 122.904 36.9411 123.105 36.5304 123.506L36.5164 125.13L36.5444 126.712C36.8804 126.852 37.2024 126.922 37.5104 126.922ZM44.5605 121.364C45.2792 121.364 45.8392 121.527 46.2405 121.854C46.6512 122.171 46.8565 122.619 46.8565 123.198C46.8565 123.366 46.8285 123.898 46.7725 124.794C46.7632 125.055 46.7492 125.326 46.7305 125.606C46.7119 125.877 46.7025 126.11 46.7025 126.306C46.7025 126.465 46.7259 126.577 46.7725 126.642C46.8192 126.698 46.9032 126.726 47.0245 126.726C47.1179 126.726 47.2392 126.707 47.3885 126.67L47.5285 126.782L47.3605 127.762C47.0619 127.958 46.7212 128.075 46.3385 128.112C46.0585 128.084 45.8252 127.986 45.6385 127.818C45.4519 127.641 45.3259 127.398 45.2605 127.09H45.1625C44.6959 127.585 44.2152 127.93 43.7205 128.126C43.0485 128.117 42.5212 127.939 42.1385 127.594C41.7559 127.249 41.5645 126.777 41.5645 126.18C41.5645 125.713 41.6812 125.349 41.9145 125.088C42.1572 124.817 42.5212 124.635 43.0065 124.542L45.1485 124.136V123.562C45.1485 122.955 44.8499 122.652 44.2525 122.652C43.9632 122.652 43.6552 122.717 43.3285 122.848C43.0112 122.979 42.6519 123.184 42.2505 123.464L42.1105 123.38L41.9005 122.148C42.3019 121.896 42.7312 121.705 43.1885 121.574C43.6459 121.434 44.1032 121.364 44.5605 121.364ZM43.6505 125.396C43.5012 125.433 43.3892 125.499 43.3145 125.592C43.2492 125.676 43.2165 125.807 43.2165 125.984C43.2165 126.227 43.2819 126.418 43.4125 126.558C43.5432 126.689 43.7252 126.754 43.9585 126.754C44.3225 126.754 44.7052 126.539 45.1065 126.11L45.1345 125.074L43.6505 125.396ZM52.2547 121.476C52.3387 121.476 52.4554 121.485 52.6047 121.504V123.226L52.4087 123.296C52.2501 123.231 52.0774 123.198 51.8907 123.198C51.3494 123.198 50.8594 123.548 50.4207 124.248V125.13L50.5187 128H48.6567L48.7687 125.312L48.6847 121.616L50.4487 121.462L50.4347 122.736H50.5467C51.0041 121.896 51.5734 121.476 52.2547 121.476ZM55.9492 121.364C56.6679 121.364 57.2279 121.527 57.6292 121.854C58.0399 122.171 58.2452 122.619 58.2452 123.198C58.2452 123.366 58.2172 123.898 58.1612 124.794C58.1519 125.055 58.1379 125.326 58.1192 125.606C58.1005 125.877 58.0912 126.11 58.0912 126.306C58.0912 126.465 58.1145 126.577 58.1612 126.642C58.2079 126.698 58.2919 126.726 58.4132 126.726C58.5065 126.726 58.6279 126.707 58.7772 126.67L58.9172 126.782L58.7492 127.762C58.4505 127.958 58.1099 128.075 57.7272 128.112C57.4472 128.084 57.2139 127.986 57.0272 127.818C56.8405 127.641 56.7145 127.398 56.6492 127.09H56.5512C56.0845 127.585 55.6039 127.93 55.1092 128.126C54.4372 128.117 53.9099 127.939 53.5272 127.594C53.1445 127.249 52.9532 126.777 52.9532 126.18C52.9532 125.713 53.0699 125.349 53.3032 125.088C53.5459 124.817 53.9099 124.635 54.3952 124.542L56.5372 124.136V123.562C56.5372 122.955 56.2385 122.652 55.6412 122.652C55.3519 122.652 55.0439 122.717 54.7172 122.848C54.3999 122.979 54.0405 123.184 53.6392 123.464L53.4992 123.38L53.2892 122.148C53.6905 121.896 54.1199 121.705 54.5772 121.574C55.0345 121.434 55.4919 121.364 55.9492 121.364ZM55.0392 125.396C54.8899 125.433 54.7779 125.499 54.7032 125.592C54.6379 125.676 54.6052 125.807 54.6052 125.984C54.6052 126.227 54.6705 126.418 54.8012 126.558C54.9319 126.689 55.1139 126.754 55.3472 126.754C55.7112 126.754 56.0939 126.539 56.4952 126.11L56.5232 125.074L55.0392 125.396ZM65.6346 118.144C66.0172 118.144 66.4232 118.186 66.8526 118.27L66.7266 119.656L66.6006 119.74C66.1619 119.553 65.7792 119.46 65.4526 119.46C64.8739 119.46 64.5799 119.791 64.5706 120.454L64.5566 121.546H66.1386L66.1946 121.644L66.1106 122.666H64.5286L64.4866 125.13L64.5846 128H62.7226L62.8346 125.298L62.8066 122.666H61.8266L61.7566 122.568L61.8546 121.546H62.7926L62.7786 120.776C62.7786 119.936 63.0259 119.287 63.5206 118.83C64.0246 118.373 64.7292 118.144 65.6346 118.144ZM73.07 126.782L72.902 127.762C72.5567 127.986 72.202 128.103 71.838 128.112C71.5673 128.065 71.3433 127.958 71.166 127.79C70.9887 127.622 70.8533 127.379 70.76 127.062H70.634C70.102 127.585 69.5513 127.925 68.982 128.084C68.2727 128.084 67.7313 127.925 67.358 127.608C66.994 127.281 66.8167 126.815 66.826 126.208L66.854 124.556L66.784 121.616L68.59 121.462L68.548 125.592C68.5387 125.919 68.604 126.166 68.744 126.334C68.884 126.502 69.094 126.586 69.374 126.586C69.7847 126.586 70.1907 126.404 70.592 126.04V121.616L72.37 121.462L72.244 126.306C72.244 126.455 72.2673 126.563 72.314 126.628C72.37 126.693 72.454 126.726 72.566 126.726C72.6687 126.726 72.7947 126.707 72.944 126.67L73.07 126.782ZM77.6844 121.476C77.7684 121.476 77.8851 121.485 78.0344 121.504V123.226L77.8384 123.296C77.6798 123.231 77.5071 123.198 77.3204 123.198C76.7791 123.198 76.2891 123.548 75.8504 124.248V125.13L75.9484 128H74.0864L74.1984 125.312L74.1144 121.616L75.8784 121.462L75.8644 122.736H75.9764C76.4338 121.896 77.0031 121.476 77.6844 121.476ZM81.3789 121.364C82.0976 121.364 82.6576 121.527 83.0589 121.854C83.4696 122.171 83.6749 122.619 83.6749 123.198C83.6749 123.366 83.6469 123.898 83.5909 124.794C83.5816 125.055 83.5676 125.326 83.5489 125.606C83.5302 125.877 83.5209 126.11 83.5209 126.306C83.5209 126.465 83.5442 126.577 83.5909 126.642C83.6376 126.698 83.7216 126.726 83.8429 126.726C83.9362 126.726 84.0576 126.707 84.2069 126.67L84.3469 126.782L84.1789 127.762C83.8802 127.958 83.5396 128.075 83.1569 128.112C82.8769 128.084 82.6436 127.986 82.4569 127.818C82.2702 127.641 82.1442 127.398 82.0789 127.09H81.9809C81.5142 127.585 81.0336 127.93 80.5389 128.126C79.8669 128.117 79.3396 127.939 78.9569 127.594C78.5742 127.249 78.3829 126.777 78.3829 126.18C78.3829 125.713 78.4996 125.349 78.7329 125.088C78.9756 124.817 79.3396 124.635 79.8249 124.542L81.9669 124.136V123.562C81.9669 122.955 81.6682 122.652 81.0709 122.652C80.7816 122.652 80.4736 122.717 80.1469 122.848C79.8296 122.979 79.4702 123.184 79.0689 123.464L78.9289 123.38L78.7189 122.148C79.1202 121.896 79.5496 121.705 80.0069 121.574C80.4642 121.434 80.9216 121.364 81.3789 121.364ZM80.4689 125.396C80.3196 125.433 80.2076 125.499 80.1329 125.592C80.0676 125.676 80.0349 125.807 80.0349 125.984C80.0349 126.227 80.1002 126.418 80.2309 126.558C80.3616 126.689 80.5436 126.754 80.7769 126.754C81.1409 126.754 81.5236 126.539 81.9249 126.11L81.9529 125.074L80.4689 125.396ZM89.0731 121.476C89.1571 121.476 89.2738 121.485 89.4231 121.504V123.226L89.2271 123.296C89.0684 123.231 88.8958 123.198 88.7091 123.198C88.1678 123.198 87.6778 123.548 87.2391 124.248V125.13L87.3371 128H85.4751L85.5871 125.312L85.5031 121.616L87.2671 121.462L87.2531 122.736H87.3651C87.8224 121.896 88.3918 121.476 89.0731 121.476ZM95.1634 121.364C96.1154 121.364 96.8434 121.644 97.3474 122.204C97.8514 122.764 98.1034 123.571 98.1034 124.626C98.1034 125.765 97.8328 126.637 97.2914 127.244C96.7501 127.841 95.9708 128.14 94.9534 128.14C94.0014 128.14 93.2734 127.86 92.7694 127.3C92.2654 126.74 92.0134 125.933 92.0134 124.878C92.0134 123.739 92.2841 122.871 92.8254 122.274C93.3668 121.667 94.1461 121.364 95.1634 121.364ZM95.0374 122.624C94.5894 122.624 94.2628 122.773 94.0574 123.072C93.8614 123.371 93.7634 123.851 93.7634 124.514C93.7634 125.373 93.8661 125.984 94.0714 126.348C94.2768 126.712 94.6128 126.894 95.0794 126.894C95.5274 126.894 95.8494 126.749 96.0454 126.46C96.2508 126.161 96.3534 125.676 96.3534 125.004C96.3534 124.155 96.2461 123.548 96.0314 123.184C95.8261 122.811 95.4948 122.624 95.0374 122.624ZM106.931 125.13L106.973 126.306C106.973 126.465 106.991 126.577 107.029 126.642C107.075 126.698 107.155 126.726 107.267 126.726C107.369 126.726 107.495 126.707 107.645 126.67L107.771 126.782L107.617 127.762C107.299 127.958 106.954 128.075 106.581 128.112C106.291 128.084 106.049 127.986 105.853 127.818C105.657 127.65 105.521 127.421 105.447 127.132H105.335C104.877 127.552 104.411 127.874 103.935 128.098C103.02 128.098 102.311 127.809 101.807 127.23C101.303 126.642 101.051 125.83 101.051 124.794C101.051 123.693 101.34 122.848 101.919 122.26C102.497 121.672 103.3 121.378 104.327 121.378C104.597 121.378 104.896 121.406 105.223 121.462L105.195 118.312L107.043 118.172L106.931 125.13ZM104.201 122.638C103.267 122.638 102.801 123.231 102.801 124.416C102.801 125.153 102.913 125.709 103.137 126.082C103.361 126.455 103.687 126.642 104.117 126.642C104.527 126.642 104.905 126.451 105.251 126.068L105.279 125.298L105.237 122.89C104.873 122.722 104.527 122.638 104.201 122.638ZM113.908 124.976L110.128 125.004C110.212 126.171 110.804 126.754 111.906 126.754C112.484 126.754 113.128 126.591 113.838 126.264L113.992 126.362L113.712 127.748C113.002 128.009 112.335 128.14 111.71 128.14C110.683 128.14 109.876 127.841 109.288 127.244C108.709 126.647 108.42 125.821 108.42 124.766C108.42 123.721 108.704 122.895 109.274 122.288C109.843 121.672 110.613 121.364 111.584 121.364C112.414 121.364 113.054 121.593 113.502 122.05C113.959 122.498 114.188 123.128 114.188 123.94C114.188 124.155 114.164 124.425 114.118 124.752L113.908 124.976ZM112.564 123.73C112.564 123.357 112.48 123.077 112.312 122.89C112.144 122.694 111.896 122.596 111.57 122.596C111.206 122.596 110.902 122.717 110.66 122.96C110.417 123.193 110.254 123.534 110.17 123.982L112.536 123.926L112.564 123.73ZM120.903 125.13L120.945 126.306C120.945 126.465 120.964 126.577 121.001 126.642C121.048 126.698 121.127 126.726 121.239 126.726C121.342 126.726 121.468 126.707 121.617 126.67L121.743 126.782L121.589 127.762C121.272 127.958 120.927 128.075 120.553 128.112C120.264 128.084 120.021 127.986 119.825 127.818C119.629 127.65 119.494 127.421 119.419 127.132H119.307C118.85 127.552 118.383 127.874 117.907 128.098C116.993 128.098 116.283 127.809 115.779 127.23C115.275 126.642 115.023 125.83 115.023 124.794C115.023 123.693 115.313 122.848 115.891 122.26C116.47 121.672 117.273 121.378 118.299 121.378C118.57 121.378 118.869 121.406 119.195 121.462L119.167 118.312L121.015 118.172L120.903 125.13ZM118.173 122.638C117.24 122.638 116.773 123.231 116.773 124.416C116.773 125.153 116.885 125.709 117.109 126.082C117.333 126.455 117.66 126.642 118.089 126.642C118.5 126.642 118.878 126.451 119.223 126.068L119.251 125.298L119.209 122.89C118.845 122.722 118.5 122.638 118.173 122.638ZM125.542 121.364C126.494 121.364 127.222 121.644 127.726 122.204C128.23 122.764 128.482 123.571 128.482 124.626C128.482 125.765 128.212 126.637 127.67 127.244C127.129 127.841 126.35 128.14 125.332 128.14C124.38 128.14 123.652 127.86 123.148 127.3C122.644 126.74 122.392 125.933 122.392 124.878C122.392 123.739 122.663 122.871 123.204 122.274C123.746 121.667 124.525 121.364 125.542 121.364ZM125.416 122.624C124.968 122.624 124.642 122.773 124.436 123.072C124.24 123.371 124.142 123.851 124.142 124.514C124.142 125.373 124.245 125.984 124.45 126.348C124.656 126.712 124.992 126.894 125.458 126.894C125.906 126.894 126.228 126.749 126.424 126.46C126.63 126.161 126.732 125.676 126.732 125.004C126.732 124.155 126.625 123.548 126.41 123.184C126.205 122.811 125.874 122.624 125.416 122.624ZM128.89 129.386V129.232C129.45 128.728 129.856 128.084 130.108 127.3C130.36 126.516 130.486 125.503 130.486 124.262C130.486 123.086 130.36 122.125 130.108 121.378C129.856 120.622 129.45 119.987 128.89 119.474V119.32L129.562 118.76H129.716C130.51 119.339 131.084 120.062 131.438 120.93C131.793 121.789 131.975 122.895 131.984 124.248C131.975 125.676 131.793 126.838 131.438 127.734C131.084 128.63 130.51 129.372 129.716 129.96H129.562L128.89 129.386Z" fill="white"/>
<defs>
<filter id="filter0_b_206:36836" x="3" y="67" width="161" height="97" filterUnits="userSpaceOnUse" color-interpolation-filters="sRGB">
<feFlood flood-opacity="0" result="BackgroundImageFix"/>
<feGaussianBlur in="BackgroundImage" stdDeviation="5"/>
<feComposite in2="SourceAlpha" operator="in" result="effect1_backgroundBlur_206:36836"/>
<feBlend mode="normal" in="SourceGraphic" in2="effect1_backgroundBlur_206:36836" result="shape"/>
</filter>
<clipPath id="clip0_206:36836">
<rect width="48.4291" height="78.6217" fill="white" transform="translate(40.2615 58.5401) rotate(-75)"/>
</clipPath>
</defs>
</svg>
