<svg width="167" height="167" viewBox="0 0 167 167" fill="none" xmlns="http://www.w3.org/2000/svg">
<mask id="mask0_206:36796" style="mask-type:alpha" maskUnits="userSpaceOnUse" x="0" y="0" width="167" height="167">
<rect x="1" y="1" width="165" height="165" rx="8" fill="#5988D6" stroke="#EDE6FC" stroke-opacity="0.3"/>
</mask>
<g mask="url(#mask0_206:36796)">
<rect x="1" y="1" width="165" height="165" rx="8" fill="#7AC2D9" stroke="#EDE6FC" stroke-opacity="0.3"/>
<path d="M85.0648 8.0547C85.0648 8.0547 79.8097 8.67482 75.3165 16.3041C75.3165 16.3041 72.5348 7.57278 78.3072 3.19296C84.0797 -1.18685 88.4701 2.06611 90.0293 3.7493C90.0293 3.7493 92.1554 4.10365 92.4389 8.09368C92.7224 12.0837 95.6918 17.8207 89.9584 20.9922C89.9584 20.9922 90.3127 16.5273 89.7316 15.5139C89.1505 14.5004 87.4035 15.3119 85.0648 8.0547Z" fill="#252E3B"/>
<path d="M88.9129 5.29073C88.9129 5.29073 92.0383 3.0335 95.1637 6.56995C98.2891 10.1064 96.9072 13.6925 97.0064 17.0695C97.1056 20.4465 94.0475 28.0828 95.4791 31.3322C96.9107 34.5816 95.4082 36.3924 95.4082 36.3924C95.4082 36.3924 85.504 39.5178 85.8407 24.3444C86.1773 9.17091 88.9129 5.29073 88.9129 5.29073Z" fill="#252E3B"/>
<path d="M103.31 143.262L99.8661 147.667C99.5755 147.117 98.3565 145.541 96.6414 143.478C95.791 142.451 94.8236 141.295 93.7854 140.076C89.8875 135.502 85.0399 129.995 82.0917 126.838C80.7735 125.42 79.8557 124.499 79.5474 124.311C77.9847 123.351 73.9202 117.667 73.3462 114.797C72.7721 111.927 74.1187 107.029 75.2065 103.263C76.2944 99.4958 80.1463 89.5242 82.3149 85.8992C83.7335 83.4681 84.9609 80.9303 85.986 78.3089C105.986 67.7988 103.325 81.9907 101.578 87.7348C99.8306 93.4788 87.0491 110.902 85.5785 112.99C84.1079 115.077 85.4509 116.009 87.3007 117.476C89.1504 118.943 92.0242 123.475 92.7896 125.456C93.555 127.437 103.31 143.262 103.31 143.262Z" fill="#945A3B"/>
<path d="M98.7817 150.048C98.7817 150.048 98.3529 156.426 96.6556 158.134C94.9582 159.842 90.7839 163.411 92.4423 164.867C94.1007 166.323 100.947 165.462 103.314 160.912C105.681 156.363 110.401 155.037 109.508 151.04C108.615 147.043 105.412 148.081 102.825 143.166C100.238 138.251 98.7817 150.048 98.7817 150.048Z" fill="#DBDFF0"/>
<path d="M112.864 89.9814C111.035 96.1082 107.141 104.156 106.131 106.193C105.121 108.231 101.28 114.747 101.524 117.617C101.741 120.059 103.296 124.159 104.033 127.646C104.161 128.262 104.267 128.861 104.331 129.417C104.781 133.184 104.717 153.868 105.164 156.802C105.61 159.736 105.674 160.31 105.674 160.31C105.674 160.31 103.902 161.908 100.185 161.334C100.185 161.334 96.8646 143.652 95.8441 140.144C95.3445 138.429 93.8491 133.989 92.4282 129.513C90.9363 124.821 89.5295 120.101 89.4657 118.496C89.3382 115.371 91.1241 104.074 91.5068 98.3938C91.8895 92.7135 96.3544 79.7051 96.3544 79.7051C96.3544 79.7051 102.439 75.7718 112.864 79.7051C112.864 79.7051 114.689 83.8404 112.864 89.9814Z" fill="#945A3B"/>
<path d="M105.589 159.679C105.589 159.679 104.483 160.601 103.31 160.346C102.137 160.09 99.8873 160.558 99.5046 161.625C99.1219 162.691 97.3785 167.964 95.6315 169.452C93.8845 170.941 84.9513 177.794 89.0795 179.452C93.2077 181.111 100.1 178.814 102.694 173.921C105.288 169.027 107.928 169.41 107.332 165.324C106.737 161.238 105.589 159.679 105.589 159.679Z" fill="#DBDFF0"/>
<path d="M101.578 87.7348C100.458 91.4236 94.7811 99.9352 90.4757 106.101C89.6253 107.32 88.828 108.447 88.1299 109.428C86.8649 111.2 85.9258 112.504 85.5856 112.972C84.1186 115.055 85.4581 115.991 87.3078 117.462C88.0709 118.122 88.7536 118.87 89.3418 119.69C89.3418 119.69 84.923 122.401 82.0882 126.834C80.8231 125.481 74.2924 120.81 73.2293 114.737C72.7261 111.852 73.9982 107.015 75.0826 103.248C76.1669 99.4816 80.125 89.5242 82.2937 85.885C83.7183 83.4588 84.9528 80.9259 85.9861 78.3089C105.972 67.7988 103.31 81.9907 101.578 87.7348Z" fill="#285173"/>
<path d="M112.864 89.9814C111.035 96.1082 107.141 104.156 106.131 106.193C105.121 108.231 101.28 114.747 101.524 117.617C101.741 120.059 103.296 124.159 104.033 127.646C104.033 127.646 99.5649 127.55 92.4283 129.531C90.9364 124.839 89.402 120.123 89.3383 118.521C89.2107 115.392 90.7876 104.62 91.1703 98.9395C91.553 93.2592 96.3545 79.7051 96.3545 79.7051C96.3545 79.7051 102.439 75.7718 112.864 79.7051C112.864 79.7051 114.689 83.8404 112.864 89.9814Z" fill="#285173"/>
<path d="M93.7818 140.073C93.9803 138.783 93.1014 131.632 93.1014 131.632C94.1645 135.112 96.567 143.227 96.645 143.478C95.7945 142.451 94.8236 141.292 93.7818 140.073Z" fill="#A77860"/>
<path d="M93.0732 89.9814C92.1766 93.4718 90.4509 106.112 90.4509 106.112C89.6005 107.331 88.8032 108.457 88.1051 109.439C88.2114 101.859 92.981 90.2826 93.0732 89.9814Z" fill="#1D3B54"/>
<path d="M78.5446 31.0735C76.1735 34.3848 74.8189 38.3155 74.6467 42.3845C74.466 46.4383 75.0011 67.0759 75.0011 67.0759C68.9661 68.9388 62.8092 70.3809 56.5746 71.392L56.1423 76.7994C56.1423 76.7994 81.3015 74.8115 83.2894 72.1928C85.2773 69.5741 83.0768 51.9946 83.0768 51.9946C83.0768 51.9946 75.8657 37.2712 78.5446 31.0735Z" fill="#945A3B"/>
<path d="M62.9531 70.7364C62.9531 70.7364 60.5435 71.8526 59.8525 71.4947C58.9513 71.0902 58.0245 70.7458 57.0779 70.4635C56.394 70.2438 54.7356 69.0745 53.9667 69.078C53.6548 69.078 51.7697 69.7548 51.1318 69.6946C50.494 69.6343 49.2006 69.3792 49.1864 69.8682C49.1723 70.3572 50.2743 70.8604 50.2743 70.8604C50.2743 70.8604 49.6861 70.8391 49.5266 71.2573C49.2077 72.0723 49.6471 72.4763 49.6471 72.4763C49.6471 72.4763 49.0518 72.7952 49.0163 73.1673C48.9815 73.3818 48.9953 73.6014 49.0566 73.8099C49.1179 74.0184 49.2253 74.2105 49.3707 74.3721C49.3707 74.3721 48.9809 74.9532 49.1581 75.304C49.679 76.3458 50.044 76.2962 50.044 76.2962C50.044 76.2962 49.9589 77.214 50.4904 77.4549C50.9722 77.6307 51.475 77.7427 51.9858 77.788C52.4536 77.8802 56.7094 77.4797 59.4627 76.1828C61.1946 75.3883 63.0626 74.9324 64.9658 74.8398L62.9531 70.7364Z" fill="#945A3B"/>
<path d="M54.8029 72.3239C54.9572 72.2573 55.0828 72.138 55.1572 71.9873C55.2062 71.8884 55.2262 71.7777 55.2149 71.668C55.2036 71.5583 55.1615 71.454 55.0935 71.3672C54.7816 70.9419 53.552 70.786 53.4138 70.7683L50.6924 70.8037V71.0553L53.4032 71.0234C53.8886 71.0801 54.7178 71.2644 54.9056 71.5195C54.945 71.5688 54.9696 71.6283 54.9765 71.6911C54.9834 71.7538 54.9724 71.8172 54.9446 71.8739C54.9191 71.9285 54.8822 71.977 54.8363 72.0161C54.7905 72.0552 54.7368 72.0841 54.6789 72.1007V72.3523C54.7217 72.3511 54.7638 72.3414 54.8029 72.3239Z" fill="#73472E"/>
<path d="M55.0261 73.6031C55.1311 73.5398 55.2186 73.4511 55.2805 73.3453C55.3424 73.2394 55.3768 73.1197 55.3805 72.9972C55.3832 72.87 55.358 72.7438 55.3065 72.6274C55.2551 72.5111 55.1787 72.4075 55.0828 72.3239C54.8064 72.1184 53.3111 71.9695 52.9957 71.9695C52.0945 72.0819 51.2001 72.244 50.3168 72.455L50.3735 72.703C51.2358 72.495 52.1088 72.3342 52.9886 72.2211C53.4741 72.2211 54.7604 72.3948 54.9304 72.5259C54.9943 72.5842 55.045 72.6554 55.0793 72.7348C55.1135 72.8143 55.1304 72.9001 55.1289 72.9865C55.1274 73.0678 55.1055 73.1473 55.0652 73.2179C55.025 73.2885 54.9677 73.3478 54.8986 73.3905L55.0261 73.6031Z" fill="#73472E"/>
<path d="M54.6363 74.8753C55.0332 74.7087 55.4939 74.404 55.3132 73.8122C55.1324 73.2204 54.1934 73.3905 53.5697 73.4933C53.4526 73.5165 53.3343 73.5331 53.2154 73.5429C52.861 73.5429 50.3132 74.0532 50.2034 74.078L50.253 74.3225C50.9865 74.1772 52.9496 73.798 53.2189 73.7945C53.3475 73.787 53.4754 73.7704 53.6016 73.7449C54.0729 73.6669 54.9517 73.5216 55.0616 73.8866C55.1714 74.2516 54.9304 74.5103 54.204 74.7442C53.6982 74.8678 53.1843 74.9554 52.6661 75.0064L51.0503 75.6584L51.1459 75.8923L52.7264 75.2544C53.2567 75.2016 53.7825 75.1104 54.2997 74.9816C54.3847 74.9674 54.5052 74.9284 54.6363 74.8753Z" fill="#73472E"/>
<path d="M52.9957 77.455V77.2034C52.5599 77.2265 52.1235 77.1737 51.7058 77.0475C52.1703 76.7136 52.6636 76.4219 53.1799 76.1757C53.4244 76.1368 54.4237 75.8214 54.5725 75.3785C54.596 75.3213 54.6056 75.2595 54.6007 75.1979C54.5958 75.1363 54.5764 75.0768 54.5442 75.0241C54.4968 74.9608 54.4373 74.9076 54.3691 74.8675C54.301 74.8273 54.2256 74.8011 54.1473 74.7902L54.1083 75.0418C54.1933 75.0529 54.2713 75.0945 54.328 75.1588C54.328 75.1588 54.3635 75.2119 54.328 75.3005C54.243 75.5663 53.4492 75.8745 53.1374 75.9241C52.8256 75.9738 51.6101 76.7994 51.3656 76.966L51.1991 77.0793L51.3727 77.1821C51.8809 77.4122 52.4402 77.5062 52.9957 77.455Z" fill="#73472E"/>
<path d="M56.8368 74.1807L56.9538 73.9539C55.9226 73.4189 55.0225 72.0865 55.0155 72.0723L54.8064 72.2141C54.8418 72.2637 55.749 73.6138 56.8368 74.1807Z" fill="#73472E"/>
<path d="M52.9035 70.9561C53.1055 70.8622 53.2948 70.7432 53.4669 70.6018L53.3039 70.4069C53.0993 70.5798 52.8563 70.7013 52.5952 70.7612V71.0128C52.7008 71.0153 52.8057 70.996 52.9035 70.9561Z" fill="#73472E"/>
<path d="M52.8159 71.1566L52.5696 71.2078L52.7319 71.9884L52.9783 71.9372L52.8159 71.1566Z" fill="#73472E"/>
<path d="M53.1724 72.423L52.9174 72.4289L52.9415 73.4775L53.1966 73.4716L53.1724 72.423Z" fill="#73472E"/>
<path d="M53.0765 73.96L52.8223 73.9809L52.8931 74.8426L53.1474 74.8217L53.0765 73.96Z" fill="#73472E"/>
<path d="M52.9323 75.2777L52.6842 75.3373L52.835 75.9644L53.0831 75.9047L52.9323 75.2777Z" fill="#73472E"/>
<path d="M92.414 27.4308C92.414 27.4308 99.5755 28.3946 103.264 31.0665C106.953 33.7383 106 34.8439 106 34.8439C106 34.8439 106.021 36.8212 104.547 48.001C102.251 65.4105 111.829 75.3324 114.139 78.6704C116.45 82.0084 86.3581 84.5633 81.9818 78.7271C81.9818 78.7271 78.9344 65.7471 76.865 59.4715C73.9345 50.5878 70.359 44.9997 75.9472 34.7411C76.8189 33.1323 78.5729 29.5923 81.5424 28.3627C81.5424 28.3627 81.4787 31.0487 84.8627 30.8893C88.2468 30.7298 92.414 27.4308 92.414 27.4308Z" fill="#F0E7C3"/>
<path d="M77.2689 6.26874C77.2689 6.26874 73.456 18.7633 80.9648 23.4691C89.448 28.7844 91.0816 17.3494 91.5742 14.8902C92.0667 12.431 93.5409 3.19649 87.0704 2.08736C80.5999 0.978236 80.2597 2.32832 77.2689 6.26874Z" fill="#945A3B"/>
<path d="M81.5388 21.8781C81.5388 21.8781 81.9357 26.4386 81.2943 28.8978C80.7274 31.0806 78.0591 34.4045 81.1774 36.6936C83.952 38.7347 91.2801 37.296 93.2255 29.6597C93.2255 29.6597 93.7924 27.5584 91.8081 27.2607C90.3906 27.0445 88.1476 23.4691 89.5508 16.7718C90.9541 10.0745 81.5388 21.8781 81.5388 21.8781Z" fill="#945A3B"/>
<path d="M82.8394 23.6144C86.6487 23.749 88.222 21.9205 88.2893 21.8426L88.0661 21.6583L88.176 21.7505L88.0661 21.6583C88.0661 21.676 86.5069 23.4549 82.85 23.3273L82.8394 23.6144Z" fill="#73472E"/>
<path d="M89.9336 71.6861C89.9336 71.6861 87.1838 72.4125 86.1136 71.4097C85.0435 70.4069 83.6332 69.7797 82.7615 70.2297C82.7615 70.2297 80.6353 70.7045 80.5715 72.1928C80.5077 73.6811 78.0308 74.2516 78.091 75.3182C78.1513 76.3848 80.8302 80.6335 81.6984 80.5946C82.5666 80.5556 88.6579 76.9341 90.9399 76.2856C92.7188 75.8072 89.9336 71.6861 89.9336 71.6861Z" fill="#945A3B"/>
<path d="M104.593 32.576C104.593 32.576 114.288 51.9946 116 60.1128C116 60.1128 116.159 62.9052 107.042 68.5465C101.484 71.9652 95.5646 74.7568 89.3914 76.8703C89.3914 76.8703 87.6197 72.8554 88.1087 72.4727C88.5977 72.09 106.11 59.9286 106.595 58.7699C107.081 57.6111 95.908 43.9862 95.8655 41.977C95.823 39.9678 100.295 28.7915 104.593 32.576Z" fill="#945A3B"/>
<path d="M109.533 41.9522L100.344 49.8437C100.344 49.8437 88.9023 38.88 98.927 33.0792C98.927 33.0792 100.812 28.0438 104.214 31.6299C105.642 33.1217 108.041 37.0019 109.533 41.9522Z" fill="#F0E7C3"/>
<path d="M76.5743 9.5855C76.5743 9.5855 81.5353 9.00791 87.3255 11.616C87.3255 11.616 89.4799 13.3558 91.156 16.9773C91.156 16.9773 97.1092 2.34605 86.9038 1.12707C76.6984 -0.0919089 76.5743 9.5855 76.5743 9.5855Z" fill="#28303B"/>
<path d="M87.4247 11.2651C87.7294 10.2021 89.2886 8.56142 90.8123 10.4041C92.336 12.2467 88.8279 16.7045 87.8251 15.2445C86.8223 13.7846 86.957 12.8952 87.4247 11.2651Z" fill="#945A3B"/>
<path d="M98.1722 47.6183L98.4167 47.4128C98.3707 47.3561 93.8101 41.8211 95.8264 37.5866L95.5358 37.4484C93.4274 41.8672 97.9773 47.3845 98.1722 47.6183Z" fill="#C6BFA1"/>
<path d="M97.6408 46.8919L97.9208 46.7396C97.896 46.697 95.5891 42.4483 96.8045 39.9714L96.5175 39.8297C95.2276 42.4554 97.5416 46.7147 97.6408 46.8919Z" fill="#C6BFA1"/>
<path d="M98.7888 66.4558L99.0049 66.2184C93.7605 61.4488 79.8698 59.5707 79.7104 59.553L79.6678 59.8683C79.8096 59.8861 93.6188 61.7535 98.7888 66.4558Z" fill="#C6BFA1"/>
<path d="M96.2942 64.7053L96.3899 64.4041C95.9753 64.2695 86.1668 61.1511 82.4177 62.0299L82.4886 62.3418C86.1561 61.4842 96.1914 64.6734 96.2942 64.7053Z" fill="#C6BFA1"/>
<path d="M109.994 45.528L101.81 50.2533C101.352 50.5175 101.196 51.1026 101.46 51.5603L103.062 54.3345C103.326 54.7921 103.911 54.9489 104.368 54.6847L112.553 49.9593C113.011 49.6951 113.167 49.11 112.903 48.6524L111.301 45.8782C111.037 45.4206 110.452 45.2638 109.994 45.528Z" fill="#352B2B"/>
<path d="M107.111 46.1319L104.181 47.8239C103.723 48.0881 103.566 48.6733 103.83 49.1309L106.488 53.7341C106.752 54.1917 107.337 54.3485 107.795 54.0843L110.726 52.3922C111.183 52.128 111.34 51.5429 111.076 51.0853L108.418 46.4821C108.154 46.0245 107.569 45.8677 107.111 46.1319Z" fill="#352B2B"/>
<path d="M107.179 47.5864L105.617 48.4882C105.159 48.7524 105.002 49.3375 105.266 49.7951L106.845 52.5294C107.109 52.987 107.694 53.1438 108.152 52.8796L109.714 51.9778C110.172 51.7136 110.328 51.1285 110.064 50.6708L108.486 47.9365C108.221 47.4789 107.636 47.3222 107.179 47.5864Z" fill="white"/>
</g>
<g filter="url(#filter0_b_206:36796)">
<rect x="13" y="77" width="141" height="77" rx="10" fill="black" fill-opacity="0.8"/>
</g>
<path d="M53.4352 104H51.7552L51.6152 101.27L51.2932 97.798H51.1532L49.1372 103.048H47.6672L45.8332 97.798H45.7072L45.3572 101.088L45.1612 104H43.5652L44.4752 94.984H46.6592L47.0232 96.314L48.4512 100.584H48.5772L50.0752 96.314L50.4812 94.984H52.6232L53.4352 104ZM59.7807 100.976L56.0007 101.004C56.0847 102.171 56.6774 102.754 57.7787 102.754C58.3574 102.754 59.0014 102.591 59.7107 102.264L59.8647 102.362L59.5847 103.748C58.8754 104.009 58.2081 104.14 57.5827 104.14C56.5561 104.14 55.7487 103.841 55.1607 103.244C54.5821 102.647 54.2927 101.821 54.2927 100.766C54.2927 99.7207 54.5774 98.8947 55.1467 98.288C55.7161 97.672 56.4861 97.364 57.4567 97.364C58.2874 97.364 58.9267 97.5927 59.3747 98.05C59.8321 98.498 60.0607 99.128 60.0607 99.94C60.0607 100.155 60.0374 100.425 59.9907 100.752L59.7807 100.976ZM58.4367 99.73C58.4367 99.3567 58.3527 99.0767 58.1847 98.89C58.0167 98.694 57.7694 98.596 57.4427 98.596C57.0787 98.596 56.7754 98.7173 56.5327 98.96C56.2901 99.1933 56.1267 99.534 56.0427 99.982L58.4087 99.926L58.4367 99.73ZM66.7762 101.13L66.8182 102.306C66.8182 102.465 66.8369 102.577 66.8742 102.642C66.9209 102.698 67.0002 102.726 67.1122 102.726C67.2149 102.726 67.3409 102.707 67.4902 102.67L67.6162 102.782L67.4622 103.762C67.1449 103.958 66.7996 104.075 66.4262 104.112C66.1369 104.084 65.8942 103.986 65.6982 103.818C65.5022 103.65 65.3669 103.421 65.2922 103.132H65.1802C64.7229 103.552 64.2562 103.874 63.7802 104.098C62.8656 104.098 62.1562 103.809 61.6522 103.23C61.1482 102.642 60.8962 101.83 60.8962 100.794C60.8962 99.6927 61.1856 98.848 61.7642 98.26C62.3429 97.672 63.1456 97.378 64.1722 97.378C64.4429 97.378 64.7416 97.406 65.0682 97.462L65.0402 94.312L66.8882 94.172L66.7762 101.13ZM64.0462 98.638C63.1129 98.638 62.6462 99.2307 62.6462 100.416C62.6462 101.153 62.7582 101.709 62.9822 102.082C63.2062 102.455 63.5329 102.642 63.9622 102.642C64.3729 102.642 64.7509 102.451 65.0962 102.068L65.1242 101.298L65.0822 98.89C64.7182 98.722 64.3729 98.638 64.0462 98.638ZM73.7534 100.976L69.9734 101.004C70.0574 102.171 70.65 102.754 71.7514 102.754C72.33 102.754 72.974 102.591 73.6834 102.264L73.8374 102.362L73.5574 103.748C72.848 104.009 72.1807 104.14 71.5554 104.14C70.5287 104.14 69.7214 103.841 69.1334 103.244C68.5547 102.647 68.2654 101.821 68.2654 100.766C68.2654 99.7207 68.55 98.8947 69.1194 98.288C69.6887 97.672 70.4587 97.364 71.4294 97.364C72.26 97.364 72.8994 97.5927 73.3474 98.05C73.8047 98.498 74.0334 99.128 74.0334 99.94C74.0334 100.155 74.01 100.425 73.9634 100.752L73.7534 100.976ZM72.4094 99.73C72.4094 99.3567 72.3254 99.0767 72.1574 98.89C71.9894 98.694 71.742 98.596 71.4154 98.596C71.0514 98.596 70.748 98.7173 70.5054 98.96C70.2627 99.1933 70.0994 99.534 70.0154 99.982L72.3814 99.926L72.4094 99.73ZM79.998 97.364C80.7167 97.364 81.2767 97.5273 81.678 97.854C82.0887 98.1713 82.294 98.6193 82.294 99.198C82.294 99.366 82.266 99.898 82.21 100.794C82.2007 101.055 82.1867 101.326 82.168 101.606C82.1494 101.877 82.14 102.11 82.14 102.306C82.14 102.465 82.1634 102.577 82.21 102.642C82.2567 102.698 82.3407 102.726 82.462 102.726C82.5554 102.726 82.6767 102.707 82.826 102.67L82.966 102.782L82.798 103.762C82.4994 103.958 82.1587 104.075 81.776 104.112C81.496 104.084 81.2627 103.986 81.076 103.818C80.8894 103.641 80.7634 103.398 80.698 103.09H80.6C80.1334 103.585 79.6527 103.93 79.158 104.126C78.486 104.117 77.9587 103.939 77.576 103.594C77.1934 103.249 77.002 102.777 77.002 102.18C77.002 101.713 77.1187 101.349 77.352 101.088C77.5947 100.817 77.9587 100.635 78.444 100.542L80.586 100.136V99.562C80.586 98.9553 80.2874 98.652 79.69 98.652C79.4007 98.652 79.0927 98.7173 78.766 98.848C78.4487 98.9787 78.0894 99.184 77.688 99.464L77.548 99.38L77.338 98.148C77.7394 97.896 78.1687 97.7047 78.626 97.574C79.0834 97.434 79.5407 97.364 79.998 97.364ZM79.088 101.396C78.9387 101.433 78.8267 101.499 78.752 101.592C78.6867 101.676 78.654 101.807 78.654 101.984C78.654 102.227 78.7194 102.418 78.85 102.558C78.9807 102.689 79.1627 102.754 79.396 102.754C79.76 102.754 80.1427 102.539 80.544 102.11L80.572 101.074L79.088 101.396ZM92.5534 98.372C92.3014 98.4373 91.9421 98.5073 91.4754 98.582L91.4474 98.638C91.5874 98.918 91.6574 99.2307 91.6574 99.576C91.6574 100.276 91.4007 100.836 90.8874 101.256C90.3834 101.667 89.6974 101.872 88.8294 101.872C88.5681 101.872 88.2974 101.849 88.0174 101.802C87.9334 101.886 87.8774 101.951 87.8494 101.998C87.8214 102.045 87.8074 102.101 87.8074 102.166C87.8074 102.334 87.9194 102.451 88.1434 102.516C88.3674 102.581 88.7221 102.647 89.2074 102.712C89.7581 102.777 90.2154 102.857 90.5794 102.95C90.9527 103.043 91.2701 103.207 91.5314 103.44C91.8021 103.673 91.9374 104.005 91.9374 104.434C91.9374 104.873 91.7974 105.265 91.5174 105.61C91.2467 105.965 90.8687 106.24 90.3834 106.436C89.8981 106.632 89.3474 106.73 88.7314 106.73C87.8821 106.73 87.2287 106.557 86.7714 106.212C86.3141 105.867 86.0854 105.409 86.0854 104.84C86.3747 104.439 86.7621 104.089 87.2474 103.79V103.72C86.9301 103.608 86.6827 103.454 86.5054 103.258C86.3281 103.053 86.2394 102.782 86.2394 102.446C86.4914 102.138 86.8087 101.853 87.1914 101.592V101.522C86.8554 101.335 86.5987 101.093 86.4214 100.794C86.2534 100.486 86.1694 100.127 86.1694 99.716C86.1694 98.988 86.4214 98.4187 86.9254 98.008C87.4294 97.5973 88.1154 97.392 88.9834 97.392C89.4874 97.392 89.9447 97.476 90.3554 97.644C91.0274 97.5227 91.7134 97.336 92.4134 97.084L92.5534 97.21V98.372ZM88.8854 100.752C89.2681 100.752 89.5574 100.654 89.7534 100.458C89.9494 100.262 90.0474 99.9773 90.0474 99.604C90.0474 98.8947 89.6834 98.54 88.9554 98.54C88.1714 98.54 87.7794 98.8993 87.7794 99.618C87.7794 99.9913 87.8727 100.276 88.0594 100.472C88.2461 100.659 88.5214 100.752 88.8854 100.752ZM90.3694 104.77C90.3694 104.518 90.2341 104.345 89.9634 104.252C89.7021 104.159 89.2961 104.079 88.7454 104.014L88.2694 103.944C88.0454 104.093 87.8774 104.238 87.7654 104.378C87.6534 104.518 87.5974 104.667 87.5974 104.826C87.5974 105.069 87.7094 105.265 87.9334 105.414C88.1574 105.563 88.4841 105.638 88.9134 105.638C89.3521 105.638 89.7021 105.559 89.9634 105.4C90.2341 105.251 90.3694 105.041 90.3694 104.77ZM95.1154 101.13L95.2134 104H93.3514L93.4494 101.298L93.3654 94.312L95.2274 94.172L95.1154 101.13ZM97.0991 101.312L97.0291 97.616L98.8631 97.462L98.7791 101.13L98.8631 104H97.0011L97.0991 101.312ZM97.9811 94.298C98.2705 94.298 98.4945 94.382 98.6531 94.55C98.8211 94.718 98.9051 94.9513 98.9051 95.25C98.9051 95.5673 98.8165 95.8193 98.6391 96.006C98.4618 96.1927 98.2191 96.286 97.9111 96.286C97.6031 96.286 97.3651 96.202 97.1971 96.034C97.0385 95.866 96.9591 95.628 96.9591 95.32C96.9591 95.012 97.0478 94.7647 97.2251 94.578C97.4118 94.3913 97.6638 94.298 97.9811 94.298ZM103.298 97.364C103.606 97.364 103.909 97.3967 104.208 97.462C104.516 97.518 104.786 97.602 105.02 97.714L104.712 99.198L104.558 99.268C104.082 99.0067 103.657 98.876 103.284 98.876C102.854 98.876 102.523 99.03 102.29 99.338C102.056 99.646 101.94 100.085 101.94 100.654C101.94 101.307 102.066 101.807 102.318 102.152C102.57 102.497 102.929 102.67 103.396 102.67C103.816 102.67 104.282 102.553 104.796 102.32L104.936 102.432L104.754 103.874C104.194 104.051 103.62 104.14 103.032 104.14C102.136 104.14 101.436 103.851 100.932 103.272C100.428 102.684 100.176 101.867 100.176 100.822C100.176 99.7393 100.451 98.8947 101.002 98.288C101.552 97.672 102.318 97.364 103.298 97.364ZM108.712 97.364C109.664 97.364 110.392 97.644 110.896 98.204C111.4 98.764 111.652 99.5713 111.652 100.626C111.652 101.765 111.382 102.637 110.84 103.244C110.299 103.841 109.52 104.14 108.502 104.14C107.55 104.14 106.822 103.86 106.318 103.3C105.814 102.74 105.562 101.933 105.562 100.878C105.562 99.7393 105.833 98.8713 106.374 98.274C106.916 97.6673 107.695 97.364 108.712 97.364ZM108.586 98.624C108.138 98.624 107.812 98.7733 107.606 99.072C107.41 99.3707 107.312 99.8513 107.312 100.514C107.312 101.373 107.415 101.984 107.62 102.348C107.826 102.712 108.162 102.894 108.628 102.894C109.076 102.894 109.398 102.749 109.594 102.46C109.8 102.161 109.902 101.676 109.902 101.004C109.902 100.155 109.795 99.548 109.58 99.184C109.375 98.8107 109.044 98.624 108.586 98.624ZM115.112 97.378C115.747 97.378 116.344 97.4853 116.904 97.7L116.652 99.072L116.428 99.142C116.158 98.9647 115.887 98.8293 115.616 98.736C115.346 98.6427 115.108 98.596 114.902 98.596C114.678 98.596 114.501 98.6567 114.37 98.778C114.24 98.89 114.174 99.03 114.174 99.198C114.174 99.394 114.258 99.5527 114.426 99.674C114.604 99.7953 114.879 99.9307 115.252 100.08C115.626 100.229 115.934 100.374 116.176 100.514C116.419 100.654 116.624 100.85 116.792 101.102C116.97 101.345 117.058 101.648 117.058 102.012C117.058 102.385 116.96 102.735 116.764 103.062C116.578 103.379 116.288 103.641 115.896 103.846C115.504 104.042 115.024 104.14 114.454 104.14C113.782 104.14 113.087 104 112.368 103.72L112.578 102.264L112.76 102.152C113.05 102.395 113.372 102.591 113.726 102.74C114.081 102.88 114.394 102.95 114.664 102.95C114.916 102.95 115.112 102.889 115.252 102.768C115.392 102.637 115.462 102.483 115.462 102.306C115.462 102.11 115.374 101.951 115.196 101.83C115.028 101.709 114.758 101.573 114.384 101.424C114.002 101.256 113.689 101.107 113.446 100.976C113.204 100.836 112.994 100.64 112.816 100.388C112.648 100.136 112.564 99.8233 112.564 99.45C112.564 98.8433 112.793 98.3487 113.25 97.966C113.708 97.574 114.328 97.378 115.112 97.378ZM123.341 100.976L119.561 101.004C119.645 102.171 120.238 102.754 121.339 102.754C121.918 102.754 122.562 102.591 123.271 102.264L123.425 102.362L123.145 103.748C122.436 104.009 121.769 104.14 121.143 104.14C120.117 104.14 119.309 103.841 118.721 103.244C118.143 102.647 117.853 101.821 117.853 100.766C117.853 99.7207 118.138 98.8947 118.707 98.288C119.277 97.672 120.047 97.364 121.017 97.364C121.848 97.364 122.487 97.5927 122.935 98.05C123.393 98.498 123.621 99.128 123.621 99.94C123.621 100.155 123.598 100.425 123.551 100.752L123.341 100.976ZM121.997 99.73C121.997 99.3567 121.913 99.0767 121.745 98.89C121.577 98.694 121.33 98.596 121.003 98.596C120.639 98.596 120.336 98.7173 120.093 98.96C119.851 99.1933 119.687 99.534 119.603 99.982L121.969 99.926L121.997 99.73ZM23.1685 117.312L23.0985 113.616L24.9325 113.462L24.8485 117.13L24.9325 120H23.0705L23.1685 117.312ZM24.0505 110.298C24.3398 110.298 24.5638 110.382 24.7225 110.55C24.8905 110.718 24.9745 110.951 24.9745 111.25C24.9745 111.567 24.8858 111.819 24.7085 112.006C24.5311 112.193 24.2885 112.286 23.9805 112.286C23.6725 112.286 23.4345 112.202 23.2665 112.034C23.1078 111.866 23.0285 111.628 23.0285 111.32C23.0285 111.012 23.1171 110.765 23.2945 110.578C23.4811 110.391 23.7331 110.298 24.0505 110.298ZM30.6969 115.94C30.7062 115.613 30.6315 115.361 30.4729 115.184C30.3235 114.997 30.1042 114.904 29.8149 114.904C29.3949 114.904 28.9469 115.105 28.4709 115.506V117.13L28.5549 120H26.6929L26.7909 117.312L26.7209 113.616L28.4849 113.462V114.414H28.5829C29.0962 113.947 29.6562 113.611 30.2629 113.406C30.9722 113.406 31.5135 113.569 31.8869 113.896C32.2602 114.213 32.4375 114.675 32.4189 115.282L32.3769 117.144L32.4609 120H30.5849L30.6969 115.94ZM36.735 118.628C37.0337 118.628 37.3464 118.549 37.673 118.39L37.827 118.53L37.645 119.636C37.169 119.879 36.6837 120.028 36.189 120.084C34.929 119.953 34.299 119.337 34.299 118.236L34.369 117.074L34.355 114.666H33.487L33.417 114.568L33.515 113.546H34.341V112.468L36.035 111.922L36.161 112.034L36.119 113.546H37.785L37.841 113.644L37.757 114.666H36.091L36.007 117.802C36.007 118.101 36.063 118.315 36.175 118.446C36.287 118.567 36.4737 118.628 36.735 118.628ZM43.7778 116.976L39.9978 117.004C40.0818 118.171 40.6745 118.754 41.7758 118.754C42.3545 118.754 42.9985 118.591 43.7078 118.264L43.8618 118.362L43.5818 119.748C42.8725 120.009 42.2051 120.14 41.5798 120.14C40.5531 120.14 39.7458 119.841 39.1578 119.244C38.5791 118.647 38.2898 117.821 38.2898 116.766C38.2898 115.721 38.5745 114.895 39.1438 114.288C39.7131 113.672 40.4831 113.364 41.4538 113.364C42.2845 113.364 42.9238 113.593 43.3718 114.05C43.8291 114.498 44.0578 115.128 44.0578 115.94C44.0578 116.155 44.0345 116.425 43.9878 116.752L43.7778 116.976ZM42.4338 115.73C42.4338 115.357 42.3498 115.077 42.1818 114.89C42.0138 114.694 41.7665 114.596 41.4398 114.596C41.0758 114.596 40.7725 114.717 40.5298 114.96C40.2871 115.193 40.1238 115.534 40.0398 115.982L42.4058 115.926L42.4338 115.73ZM48.9393 113.476C49.0233 113.476 49.14 113.485 49.2893 113.504V115.226L49.0933 115.296C48.9346 115.231 48.762 115.198 48.5753 115.198C48.034 115.198 47.544 115.548 47.1053 116.248V117.13L47.2033 120H45.3413L45.4533 117.312L45.3693 113.616L47.1333 113.462L47.1193 114.736H47.2313C47.6886 113.896 48.258 113.476 48.9393 113.476ZM52.3925 113.378C53.0272 113.378 53.6245 113.485 54.1845 113.7L53.9325 115.072L53.7085 115.142C53.4378 114.965 53.1672 114.829 52.8965 114.736C52.6258 114.643 52.3878 114.596 52.1825 114.596C51.9585 114.596 51.7812 114.657 51.6505 114.778C51.5198 114.89 51.4545 115.03 51.4545 115.198C51.4545 115.394 51.5385 115.553 51.7065 115.674C51.8838 115.795 52.1592 115.931 52.5325 116.08C52.9058 116.229 53.2138 116.374 53.4565 116.514C53.6992 116.654 53.9045 116.85 54.0725 117.102C54.2498 117.345 54.3385 117.648 54.3385 118.012C54.3385 118.385 54.2405 118.735 54.0445 119.062C53.8578 119.379 53.5685 119.641 53.1765 119.846C52.7845 120.042 52.3038 120.14 51.7345 120.14C51.0625 120.14 50.3672 120 49.6485 119.72L49.8585 118.264L50.0405 118.152C50.3298 118.395 50.6518 118.591 51.0065 118.74C51.3612 118.88 51.6738 118.95 51.9445 118.95C52.1965 118.95 52.3925 118.889 52.5325 118.768C52.6725 118.637 52.7425 118.483 52.7425 118.306C52.7425 118.11 52.6538 117.951 52.4765 117.83C52.3085 117.709 52.0378 117.573 51.6645 117.424C51.2818 117.256 50.9692 117.107 50.7265 116.976C50.4838 116.836 50.2738 116.64 50.0965 116.388C49.9285 116.136 49.8445 115.823 49.8445 115.45C49.8445 114.843 50.0732 114.349 50.5305 113.966C50.9878 113.574 51.6085 113.378 52.3925 113.378ZM58.2135 118.628C58.5122 118.628 58.8249 118.549 59.1515 118.39L59.3055 118.53L59.1235 119.636C58.6475 119.879 58.1622 120.028 57.6675 120.084C56.4075 119.953 55.7775 119.337 55.7775 118.236L55.8475 117.074L55.8335 114.666H54.9655L54.8955 114.568L54.9935 113.546H55.8195V112.468L57.5135 111.922L57.6395 112.034L57.5975 113.546H59.2635L59.3195 113.644L59.2355 114.666H57.5695L57.4855 117.802C57.4855 118.101 57.5415 118.315 57.6535 118.446C57.7655 118.567 57.9522 118.628 58.2135 118.628ZM60.438 117.312L60.368 113.616L62.202 113.462L62.118 117.13L62.202 120H60.34L60.438 117.312ZM61.32 110.298C61.6093 110.298 61.8333 110.382 61.992 110.55C62.16 110.718 62.244 110.951 62.244 111.25C62.244 111.567 62.1553 111.819 61.978 112.006C61.8007 112.193 61.558 112.286 61.25 112.286C60.942 112.286 60.704 112.202 60.536 112.034C60.3773 111.866 60.298 111.628 60.298 111.32C60.298 111.012 60.3867 110.765 60.564 110.578C60.7507 110.391 61.0027 110.298 61.32 110.298ZM66.6364 113.364C66.9444 113.364 67.2477 113.397 67.5464 113.462C67.8544 113.518 68.1251 113.602 68.3584 113.714L68.0504 115.198L67.8964 115.268C67.4204 115.007 66.9957 114.876 66.6224 114.876C66.1931 114.876 65.8617 115.03 65.6284 115.338C65.3951 115.646 65.2784 116.085 65.2784 116.654C65.2784 117.307 65.4044 117.807 65.6564 118.152C65.9084 118.497 66.2677 118.67 66.7344 118.67C67.1544 118.67 67.6211 118.553 68.1344 118.32L68.2744 118.432L68.0924 119.874C67.5324 120.051 66.9584 120.14 66.3704 120.14C65.4744 120.14 64.7744 119.851 64.2704 119.272C63.7664 118.684 63.5144 117.867 63.5144 116.822C63.5144 115.739 63.7897 114.895 64.3404 114.288C64.8911 113.672 65.6564 113.364 66.6364 113.364ZM69.4751 117.312L69.4051 113.616L71.2391 113.462L71.1551 117.13L71.2391 120H69.3771L69.4751 117.312ZM70.3571 110.298C70.6465 110.298 70.8705 110.382 71.0291 110.55C71.1971 110.718 71.2811 110.951 71.2811 111.25C71.2811 111.567 71.1925 111.819 71.0151 112.006C70.8378 112.193 70.5951 112.286 70.2871 112.286C69.9791 112.286 69.7411 112.202 69.5731 112.034C69.4145 111.866 69.3351 111.628 69.3351 111.32C69.3351 111.012 69.4238 110.765 69.6011 110.578C69.7878 110.391 70.0398 110.298 70.3571 110.298ZM75.5615 113.364C76.2802 113.364 76.8402 113.527 77.2415 113.854C77.6522 114.171 77.8575 114.619 77.8575 115.198C77.8575 115.366 77.8295 115.898 77.7735 116.794C77.7642 117.055 77.7502 117.326 77.7315 117.606C77.7128 117.877 77.7035 118.11 77.7035 118.306C77.7035 118.465 77.7268 118.577 77.7735 118.642C77.8202 118.698 77.9042 118.726 78.0255 118.726C78.1188 118.726 78.2402 118.707 78.3895 118.67L78.5295 118.782L78.3615 119.762C78.0628 119.958 77.7222 120.075 77.3395 120.112C77.0595 120.084 76.8262 119.986 76.6395 119.818C76.4528 119.641 76.3268 119.398 76.2615 119.09H76.1635C75.6968 119.585 75.2162 119.93 74.7215 120.126C74.0495 120.117 73.5222 119.939 73.1395 119.594C72.7568 119.249 72.5655 118.777 72.5655 118.18C72.5655 117.713 72.6822 117.349 72.9155 117.088C73.1582 116.817 73.5222 116.635 74.0075 116.542L76.1495 116.136V115.562C76.1495 114.955 75.8508 114.652 75.2535 114.652C74.9642 114.652 74.6562 114.717 74.3295 114.848C74.0122 114.979 73.6528 115.184 73.2515 115.464L73.1115 115.38L72.9015 114.148C73.3028 113.896 73.7322 113.705 74.1895 113.574C74.6468 113.434 75.1042 113.364 75.5615 113.364ZM74.6515 117.396C74.5022 117.433 74.3902 117.499 74.3155 117.592C74.2502 117.676 74.2175 117.807 74.2175 117.984C74.2175 118.227 74.2828 118.418 74.4135 118.558C74.5442 118.689 74.7262 118.754 74.9595 118.754C75.3235 118.754 75.7062 118.539 76.1075 118.11L76.1355 117.074L74.6515 117.396ZM81.5597 117.13L81.6577 120H79.7957L79.8937 117.298L79.8097 110.312L81.6717 110.172L81.5597 117.13ZM90.9266 113.378L91.0806 113.462L90.9686 117.13L91.0666 122.59H89.2186L89.3026 119.65V119.3H89.1906C88.808 119.627 88.388 119.893 87.9306 120.098C87.0253 120.098 86.3253 119.809 85.8306 119.23C85.336 118.642 85.0886 117.839 85.0886 116.822C85.0886 115.711 85.378 114.862 85.9566 114.274C86.5353 113.677 87.31 113.378 88.2806 113.378C88.7846 113.378 89.3446 113.481 89.9606 113.686L90.9266 113.378ZM88.2246 114.638C87.3006 114.638 86.8386 115.254 86.8386 116.486C86.8386 117.186 86.946 117.723 87.1606 118.096C87.3846 118.46 87.7066 118.642 88.1266 118.642C88.3226 118.642 88.514 118.6 88.7006 118.516C88.8966 118.423 89.0973 118.273 89.3026 118.068L89.3166 117.326L89.2746 114.932C88.9013 114.736 88.5513 114.638 88.2246 114.638ZM99.0124 118.782L98.8444 119.762C98.499 119.986 98.1444 120.103 97.7804 120.112C97.5097 120.065 97.2857 119.958 97.1084 119.79C96.931 119.622 96.7957 119.379 96.7024 119.062H96.5764C96.0444 119.585 95.4937 119.925 94.9244 120.084C94.215 120.084 93.6737 119.925 93.3004 119.608C92.9364 119.281 92.759 118.815 92.7684 118.208L92.7964 116.556L92.7264 113.616L94.5324 113.462L94.4904 117.592C94.481 117.919 94.5464 118.166 94.6864 118.334C94.8264 118.502 95.0364 118.586 95.3164 118.586C95.727 118.586 96.133 118.404 96.5344 118.04V113.616L98.3124 113.462L98.1864 118.306C98.1864 118.455 98.2097 118.563 98.2564 118.628C98.3124 118.693 98.3964 118.726 98.5084 118.726C98.611 118.726 98.737 118.707 98.8864 118.67L99.0124 118.782ZM105.151 116.976L101.371 117.004C101.455 118.171 102.048 118.754 103.149 118.754C103.728 118.754 104.372 118.591 105.081 118.264L105.235 118.362L104.955 119.748C104.246 120.009 103.578 120.14 102.953 120.14C101.926 120.14 101.119 119.841 100.531 119.244C99.9522 118.647 99.6628 117.821 99.6628 116.766C99.6628 115.721 99.9475 114.895 100.517 114.288C101.086 113.672 101.856 113.364 102.827 113.364C103.658 113.364 104.297 113.593 104.745 114.05C105.202 114.498 105.431 115.128 105.431 115.94C105.431 116.155 105.408 116.425 105.361 116.752L105.151 116.976ZM103.807 115.73C103.807 115.357 103.723 115.077 103.555 114.89C103.387 114.694 103.14 114.596 102.813 114.596C102.449 114.596 102.146 114.717 101.903 114.96C101.66 115.193 101.497 115.534 101.413 115.982L103.779 115.926L103.807 115.73ZM112.445 110.13C112.987 110.13 113.612 110.214 114.321 110.382L114.111 111.824L113.929 111.922C113.239 111.605 112.674 111.446 112.235 111.446C111.862 111.446 111.587 111.539 111.409 111.726C111.241 111.913 111.153 112.211 111.143 112.622L111.129 113.546H114.433L115.455 113.406L115.567 113.476L115.455 117.13L115.553 120H113.705L113.803 117.312L113.747 114.666H111.115L111.073 117.13L111.171 120H109.309L109.421 117.298L109.393 114.666H108.413L108.343 114.568L108.441 113.546H109.365V113.014C109.365 112.025 109.613 111.297 110.107 110.83C110.611 110.363 111.391 110.13 112.445 110.13ZM119.902 113.364C120.21 113.364 120.513 113.397 120.812 113.462C121.12 113.518 121.391 113.602 121.624 113.714L121.316 115.198L121.162 115.268C120.686 115.007 120.261 114.876 119.888 114.876C119.459 114.876 119.127 115.03 118.894 115.338C118.661 115.646 118.544 116.085 118.544 116.654C118.544 117.307 118.67 117.807 118.922 118.152C119.174 118.497 119.533 118.67 120 118.67C120.42 118.67 120.887 118.553 121.4 118.32L121.54 118.432L121.358 119.874C120.798 120.051 120.224 120.14 119.636 120.14C118.74 120.14 118.04 119.851 117.536 119.272C117.032 118.684 116.78 117.867 116.78 116.822C116.78 115.739 117.055 114.895 117.606 114.288C118.157 113.672 118.922 113.364 119.902 113.364ZM125.04 113.364C125.759 113.364 126.319 113.527 126.72 113.854C127.131 114.171 127.336 114.619 127.336 115.198C127.336 115.366 127.308 115.898 127.252 116.794C127.243 117.055 127.229 117.326 127.21 117.606C127.191 117.877 127.182 118.11 127.182 118.306C127.182 118.465 127.205 118.577 127.252 118.642C127.299 118.698 127.383 118.726 127.504 118.726C127.597 118.726 127.719 118.707 127.868 118.67L128.008 118.782L127.84 119.762C127.541 119.958 127.201 120.075 126.818 120.112C126.538 120.084 126.305 119.986 126.118 119.818C125.931 119.641 125.805 119.398 125.74 119.09H125.642C125.175 119.585 124.695 119.93 124.2 120.126C123.528 120.117 123.001 119.939 122.618 119.594C122.235 119.249 122.044 118.777 122.044 118.18C122.044 117.713 122.161 117.349 122.394 117.088C122.637 116.817 123.001 116.635 123.486 116.542L125.628 116.136V115.562C125.628 114.955 125.329 114.652 124.732 114.652C124.443 114.652 124.135 114.717 123.808 114.848C123.491 114.979 123.131 115.184 122.73 115.464L122.59 115.38L122.38 114.148C122.781 113.896 123.211 113.705 123.668 113.574C124.125 113.434 124.583 113.364 125.04 113.364ZM124.13 117.396C123.981 117.433 123.869 117.499 123.794 117.592C123.729 117.676 123.696 117.807 123.696 117.984C123.696 118.227 123.761 118.418 123.892 118.558C124.023 118.689 124.205 118.754 124.438 118.754C124.802 118.754 125.185 118.539 125.586 118.11L125.614 117.074L124.13 117.396ZM135.341 115.94C135.351 115.613 135.276 115.361 135.117 115.184C134.968 114.997 134.749 114.904 134.459 114.904C134.039 114.904 133.591 115.105 133.115 115.506V117.13L133.199 120H131.337L131.435 117.312L131.365 113.616L133.129 113.462V114.414H133.227C133.741 113.947 134.301 113.611 134.907 113.406C135.617 113.406 136.158 113.569 136.531 113.896C136.905 114.213 137.082 114.675 137.063 115.282L137.021 117.144L137.105 120H135.229L135.341 115.94ZM141.45 113.364C142.402 113.364 143.13 113.644 143.634 114.204C144.138 114.764 144.39 115.571 144.39 116.626C144.39 117.765 144.119 118.637 143.578 119.244C143.036 119.841 142.257 120.14 141.24 120.14C140.288 120.14 139.56 119.86 139.056 119.3C138.552 118.74 138.3 117.933 138.3 116.878C138.3 115.739 138.57 114.871 139.112 114.274C139.653 113.667 140.432 113.364 141.45 113.364ZM141.324 114.624C140.876 114.624 140.549 114.773 140.344 115.072C140.148 115.371 140.05 115.851 140.05 116.514C140.05 117.373 140.152 117.984 140.358 118.348C140.563 118.712 140.899 118.894 141.366 118.894C141.814 118.894 142.136 118.749 142.332 118.46C142.537 118.161 142.64 117.676 142.64 117.004C142.64 116.155 142.532 115.548 142.318 115.184C142.112 114.811 141.781 114.624 141.324 114.624ZM34.7731 134.628C35.0718 134.628 35.3844 134.549 35.7111 134.39L35.8651 134.53L35.6831 135.636C35.2071 135.879 34.7218 136.028 34.2271 136.084C32.9671 135.953 32.3371 135.337 32.3371 134.236L32.4071 133.074L32.3931 130.666H31.5251L31.4551 130.568L31.5531 129.546H32.3791V128.468L34.0731 127.922L34.1991 128.034L34.1571 129.546H35.8231L35.8791 129.644L35.7951 130.666H34.1291L34.0451 133.802C34.0451 134.101 34.1011 134.315 34.2131 134.446C34.3251 134.567 34.5118 134.628 34.7731 134.628ZM41.8159 132.976L38.0359 133.004C38.1199 134.171 38.7125 134.754 39.8139 134.754C40.3925 134.754 41.0365 134.591 41.7459 134.264L41.8999 134.362L41.6199 135.748C40.9105 136.009 40.2432 136.14 39.6179 136.14C38.5912 136.14 37.7839 135.841 37.1959 135.244C36.6172 134.647 36.3279 133.821 36.3279 132.766C36.3279 131.721 36.6125 130.895 37.1819 130.288C37.7512 129.672 38.5212 129.364 39.4919 129.364C40.3225 129.364 40.9619 129.593 41.4099 130.05C41.8672 130.498 42.0959 131.128 42.0959 131.94C42.0959 132.155 42.0725 132.425 42.0259 132.752L41.8159 132.976ZM40.4719 131.73C40.4719 131.357 40.3879 131.077 40.2199 130.89C40.0519 130.694 39.8045 130.596 39.4779 130.596C39.1139 130.596 38.8105 130.717 38.5679 130.96C38.3252 131.193 38.1619 131.534 38.0779 131.982L40.4439 131.926L40.4719 131.73ZM46.0534 129.364C46.3614 129.364 46.6647 129.397 46.9634 129.462C47.2714 129.518 47.5421 129.602 47.7754 129.714L47.4674 131.198L47.3134 131.268C46.8374 131.007 46.4127 130.876 46.0394 130.876C45.6101 130.876 45.2787 131.03 45.0454 131.338C44.8121 131.646 44.6954 132.085 44.6954 132.654C44.6954 133.307 44.8214 133.807 45.0734 134.152C45.3254 134.497 45.6847 134.67 46.1514 134.67C46.5714 134.67 47.0381 134.553 47.5514 134.32L47.6914 134.432L47.5094 135.874C46.9494 136.051 46.3754 136.14 45.7874 136.14C44.8914 136.14 44.1914 135.851 43.6874 135.272C43.1834 134.684 42.9314 133.867 42.9314 132.822C42.9314 131.739 43.2067 130.895 43.7574 130.288C44.3081 129.672 45.0734 129.364 46.0534 129.364ZM48.8921 133.312L48.8221 129.616L50.6561 129.462L50.5721 133.13L50.6561 136H48.7941L48.8921 133.312ZM49.7741 126.298C50.0634 126.298 50.2874 126.382 50.4461 126.55C50.6141 126.718 50.6981 126.951 50.6981 127.25C50.6981 127.567 50.6094 127.819 50.4321 128.006C50.2548 128.193 50.0121 128.286 49.7041 128.286C49.3961 128.286 49.1581 128.202 48.9901 128.034C48.8314 127.866 48.7521 127.628 48.7521 127.32C48.7521 127.012 48.8408 126.765 49.0181 126.578C49.2048 126.391 49.4568 126.298 49.7741 126.298ZM57.8485 133.13L57.8905 134.306C57.8905 134.465 57.9092 134.577 57.9465 134.642C57.9932 134.698 58.0725 134.726 58.1845 134.726C58.2872 134.726 58.4132 134.707 58.5625 134.67L58.6885 134.782L58.5345 135.762C58.2172 135.958 57.8718 136.075 57.4985 136.112C57.2092 136.084 56.9665 135.986 56.7705 135.818C56.5745 135.65 56.4392 135.421 56.3645 135.132H56.2525C55.7952 135.552 55.3285 135.874 54.8525 136.098C53.9378 136.098 53.2285 135.809 52.7245 135.23C52.2205 134.642 51.9685 133.83 51.9685 132.794C51.9685 131.693 52.2578 130.848 52.8365 130.26C53.4152 129.672 54.2178 129.378 55.2445 129.378C55.5152 129.378 55.8138 129.406 56.1405 129.462L56.1125 126.312L57.9605 126.172L57.8485 133.13ZM55.1185 130.638C54.1852 130.638 53.7185 131.231 53.7185 132.416C53.7185 133.153 53.8305 133.709 54.0545 134.082C54.2785 134.455 54.6052 134.642 55.0345 134.642C55.4452 134.642 55.8232 134.451 56.1685 134.068L56.1965 133.298L56.1545 130.89C55.7905 130.722 55.4452 130.638 55.1185 130.638ZM62.4876 129.364C63.4396 129.364 64.1676 129.644 64.6716 130.204C65.1756 130.764 65.4276 131.571 65.4276 132.626C65.4276 133.765 65.157 134.637 64.6156 135.244C64.0743 135.841 63.295 136.14 62.2776 136.14C61.3256 136.14 60.5976 135.86 60.0936 135.3C59.5896 134.74 59.3376 133.933 59.3376 132.878C59.3376 131.739 59.6083 130.871 60.1496 130.274C60.691 129.667 61.4703 129.364 62.4876 129.364ZM62.3616 130.624C61.9136 130.624 61.587 130.773 61.3816 131.072C61.1856 131.371 61.0876 131.851 61.0876 132.514C61.0876 133.373 61.1903 133.984 61.3956 134.348C61.601 134.712 61.937 134.894 62.4036 134.894C62.8516 134.894 63.1736 134.749 63.3696 134.46C63.575 134.161 63.6776 133.676 63.6776 133.004C63.6776 132.155 63.5703 131.548 63.3556 131.184C63.1503 130.811 62.819 130.624 62.3616 130.624ZM71.0068 129.378C71.6414 129.378 72.2388 129.485 72.7988 129.7L72.5468 131.072L72.3228 131.142C72.0521 130.965 71.7814 130.829 71.5108 130.736C71.2401 130.643 71.0021 130.596 70.7968 130.596C70.5728 130.596 70.3954 130.657 70.2648 130.778C70.1341 130.89 70.0688 131.03 70.0688 131.198C70.0688 131.394 70.1528 131.553 70.3208 131.674C70.4981 131.795 70.7734 131.931 71.1468 132.08C71.5201 132.229 71.8281 132.374 72.0708 132.514C72.3134 132.654 72.5188 132.85 72.6868 133.102C72.8641 133.345 72.9528 133.648 72.9528 134.012C72.9528 134.385 72.8548 134.735 72.6588 135.062C72.4721 135.379 72.1828 135.641 71.7908 135.846C71.3988 136.042 70.9181 136.14 70.3488 136.14C69.6768 136.14 68.9814 136 68.2628 135.72L68.4728 134.264L68.6548 134.152C68.9441 134.395 69.2661 134.591 69.6208 134.74C69.9754 134.88 70.2881 134.95 70.5588 134.95C70.8108 134.95 71.0068 134.889 71.1468 134.768C71.2868 134.637 71.3568 134.483 71.3568 134.306C71.3568 134.11 71.2681 133.951 71.0908 133.83C70.9228 133.709 70.6521 133.573 70.2788 133.424C69.8961 133.256 69.5834 133.107 69.3408 132.976C69.0981 132.836 68.8881 132.64 68.7108 132.388C68.5428 132.136 68.4588 131.823 68.4588 131.45C68.4588 130.843 68.6874 130.349 69.1448 129.966C69.6021 129.574 70.2228 129.378 71.0068 129.378ZM80.4118 134.782L80.2438 135.762C79.8985 135.986 79.5438 136.103 79.1798 136.112C78.9091 136.065 78.6851 135.958 78.5078 135.79C78.3305 135.622 78.1951 135.379 78.1018 135.062H77.9758C77.4438 135.585 76.8931 135.925 76.3238 136.084C75.6145 136.084 75.0731 135.925 74.6998 135.608C74.3358 135.281 74.1585 134.815 74.1678 134.208L74.1958 132.556L74.1258 129.616L75.9318 129.462L75.8898 133.592C75.8805 133.919 75.9458 134.166 76.0858 134.334C76.2258 134.502 76.4358 134.586 76.7158 134.586C77.1265 134.586 77.5325 134.404 77.9338 134.04V129.616L79.7118 129.462L79.5858 134.306C79.5858 134.455 79.6091 134.563 79.6558 134.628C79.7118 134.693 79.7958 134.726 79.9078 134.726C80.0105 134.726 80.1365 134.707 80.2858 134.67L80.4118 134.782ZM85.0243 129.406C85.8456 129.406 86.4709 129.686 86.9003 130.246C87.3389 130.797 87.5583 131.567 87.5583 132.556C87.5583 133.704 87.2736 134.591 86.7043 135.216C86.1349 135.832 85.3463 136.14 84.3383 136.14C83.8623 136.14 83.3396 136.033 82.7703 135.818L81.7903 136.168L81.5663 135.986L81.6643 133.326L81.5802 126.312L83.4283 126.172L83.3723 130.414H83.4563C83.7176 130.162 83.9696 129.961 84.2123 129.812C84.4549 129.653 84.7256 129.518 85.0243 129.406ZM84.3383 134.922C84.8049 134.922 85.1689 134.754 85.4303 134.418C85.6916 134.082 85.8223 133.569 85.8223 132.878C85.8223 132.234 85.7149 131.744 85.5003 131.408C85.2949 131.072 84.9823 130.904 84.5623 130.904C84.1796 130.904 83.7783 131.1 83.3583 131.492L83.3303 133.088L83.3583 134.67C83.7036 134.838 84.0303 134.922 84.3383 134.922ZM91.5124 129.364C91.8204 129.364 92.1237 129.397 92.4224 129.462C92.7304 129.518 93.001 129.602 93.2344 129.714L92.9264 131.198L92.7724 131.268C92.2964 131.007 91.8717 130.876 91.4984 130.876C91.069 130.876 90.7377 131.03 90.5044 131.338C90.271 131.646 90.1544 132.085 90.1544 132.654C90.1544 133.307 90.2804 133.807 90.5324 134.152C90.7844 134.497 91.1437 134.67 91.6104 134.67C92.0304 134.67 92.497 134.553 93.0104 134.32L93.1504 134.432L92.9684 135.874C92.4084 136.051 91.8344 136.14 91.2464 136.14C90.3504 136.14 89.6504 135.851 89.1464 135.272C88.6424 134.684 88.3904 133.867 88.3904 132.822C88.3904 131.739 88.6657 130.895 89.2164 130.288C89.767 129.672 90.5324 129.364 91.5124 129.364ZM100.441 134.782L100.273 135.762C99.9278 135.986 99.5731 136.103 99.2091 136.112C98.9384 136.065 98.7144 135.958 98.5371 135.79C98.3598 135.622 98.2244 135.379 98.1311 135.062H98.0051C97.4731 135.585 96.9224 135.925 96.3531 136.084C95.6438 136.084 95.1024 135.925 94.7291 135.608C94.3651 135.281 94.1878 134.815 94.1971 134.208L94.2251 132.556L94.1551 129.616L95.9611 129.462L95.9191 133.592C95.9098 133.919 95.9751 134.166 96.1151 134.334C96.2551 134.502 96.4651 134.586 96.7451 134.586C97.1558 134.586 97.5618 134.404 97.9631 134.04V129.616L99.7411 129.462L99.6151 134.306C99.6151 134.455 99.6384 134.563 99.6851 134.628C99.7411 134.693 99.8251 134.726 99.9371 134.726C100.04 134.726 100.166 134.707 100.315 134.67L100.441 134.782ZM104.172 134.628C104.47 134.628 104.783 134.549 105.11 134.39L105.264 134.53L105.082 135.636C104.606 135.879 104.12 136.028 103.626 136.084C102.366 135.953 101.736 135.337 101.736 134.236L101.806 133.074L101.792 130.666H100.924L100.854 130.568L100.952 129.546H101.778V128.468L103.472 127.922L103.598 128.034L103.556 129.546H105.222L105.278 129.644L105.194 130.666H103.528L103.444 133.802C103.444 134.101 103.5 134.315 103.612 134.446C103.724 134.567 103.91 134.628 104.172 134.628ZM108.832 129.364C109.551 129.364 110.111 129.527 110.512 129.854C110.923 130.171 111.128 130.619 111.128 131.198C111.128 131.366 111.1 131.898 111.044 132.794C111.035 133.055 111.021 133.326 111.002 133.606C110.983 133.877 110.974 134.11 110.974 134.306C110.974 134.465 110.997 134.577 111.044 134.642C111.091 134.698 111.175 134.726 111.296 134.726C111.389 134.726 111.511 134.707 111.66 134.67L111.8 134.782L111.632 135.762C111.333 135.958 110.993 136.075 110.61 136.112C110.33 136.084 110.097 135.986 109.91 135.818C109.723 135.641 109.597 135.398 109.532 135.09H109.434C108.967 135.585 108.487 135.93 107.992 136.126C107.32 136.117 106.793 135.939 106.41 135.594C106.027 135.249 105.836 134.777 105.836 134.18C105.836 133.713 105.953 133.349 106.186 133.088C106.429 132.817 106.793 132.635 107.278 132.542L109.42 132.136V131.562C109.42 130.955 109.121 130.652 108.524 130.652C108.235 130.652 107.927 130.717 107.6 130.848C107.283 130.979 106.923 131.184 106.522 131.464L106.382 131.38L106.172 130.148C106.573 129.896 107.003 129.705 107.46 129.574C107.917 129.434 108.375 129.364 108.832 129.364ZM107.922 133.396C107.773 133.433 107.661 133.499 107.586 133.592C107.521 133.676 107.488 133.807 107.488 133.984C107.488 134.227 107.553 134.418 107.684 134.558C107.815 134.689 107.997 134.754 108.23 134.754C108.594 134.754 108.977 134.539 109.378 134.11L109.406 133.074L107.922 133.396ZM106.522 127.922C107.054 127.437 107.712 126.779 108.496 125.948H108.902C109.63 126.751 110.283 127.409 110.862 127.922L110.4 128.636H110.218C109.602 128.151 109.093 127.721 108.692 127.348C108.328 127.693 107.824 128.123 107.18 128.636H106.998L106.522 127.922ZM116.932 131.94C116.942 131.613 116.867 131.361 116.708 131.184C116.559 130.997 116.34 130.904 116.05 130.904C115.63 130.904 115.182 131.105 114.706 131.506V133.13L114.79 136H112.928L113.026 133.312L112.956 129.616L114.72 129.462V130.414H114.818C115.332 129.947 115.892 129.611 116.498 129.406C117.208 129.406 117.749 129.569 118.122 129.896C118.496 130.213 118.673 130.675 118.654 131.282L118.612 133.144L118.696 136H116.82L116.932 131.94ZM125.378 132.976L121.598 133.004C121.682 134.171 122.275 134.754 123.376 134.754C123.955 134.754 124.599 134.591 125.308 134.264L125.462 134.362L125.182 135.748C124.473 136.009 123.806 136.14 123.18 136.14C122.154 136.14 121.346 135.841 120.758 135.244C120.18 134.647 119.89 133.821 119.89 132.766C119.89 131.721 120.175 130.895 120.744 130.288C121.314 129.672 122.084 129.364 123.054 129.364C123.885 129.364 124.524 129.593 124.972 130.05C125.43 130.498 125.658 131.128 125.658 131.94C125.658 132.155 125.635 132.425 125.588 132.752L125.378 132.976ZM124.034 131.73C124.034 131.357 123.95 131.077 123.782 130.89C123.614 130.694 123.367 130.596 123.04 130.596C122.676 130.596 122.373 130.717 122.13 130.96C121.888 131.193 121.724 131.534 121.64 131.982L124.006 131.926L124.034 131.73ZM129.644 129.364C130.596 129.364 131.324 129.644 131.828 130.204C132.332 130.764 132.584 131.571 132.584 132.626C132.584 133.765 132.313 134.637 131.772 135.244C131.231 135.841 130.451 136.14 129.434 136.14C128.482 136.14 127.754 135.86 127.25 135.3C126.746 134.74 126.494 133.933 126.494 132.878C126.494 131.739 126.765 130.871 127.306 130.274C127.847 129.667 128.627 129.364 129.644 129.364ZM129.518 130.624C129.07 130.624 128.743 130.773 128.538 131.072C128.342 131.371 128.244 131.851 128.244 132.514C128.244 133.373 128.347 133.984 128.552 134.348C128.757 134.712 129.093 134.894 129.56 134.894C130.008 134.894 130.33 134.749 130.526 134.46C130.731 134.161 130.834 133.676 130.834 133.004C130.834 132.155 130.727 131.548 130.512 131.184C130.307 130.811 129.975 130.624 129.518 130.624ZM134.152 134.11C134.441 134.11 134.665 134.194 134.824 134.362C134.992 134.53 135.076 134.763 135.076 135.062C135.076 135.379 134.987 135.631 134.81 135.818C134.632 136.005 134.39 136.098 134.082 136.098C133.774 136.098 133.536 136.014 133.368 135.846C133.209 135.678 133.13 135.44 133.13 135.132C133.13 134.824 133.218 134.577 133.396 134.39C133.582 134.203 133.834 134.11 134.152 134.11Z" fill="white"/>
<defs>
<filter id="filter0_b_206:36796" x="3" y="67" width="161" height="97" filterUnits="userSpaceOnUse" color-interpolation-filters="sRGB">
<feFlood flood-opacity="0" result="BackgroundImageFix"/>
<feGaussianBlur in="BackgroundImage" stdDeviation="5"/>
<feComposite in2="SourceAlpha" operator="in" result="effect1_backgroundBlur_206:36796"/>
<feBlend mode="normal" in="SourceGraphic" in2="effect1_backgroundBlur_206:36796" result="shape"/>
</filter>
</defs>
</svg>
