<svg width="167" height="167" viewBox="0 0 167 167" fill="none" xmlns="http://www.w3.org/2000/svg">
<mask id="mask0_206:36860" style="mask-type:alpha" maskUnits="userSpaceOnUse" x="0" y="0" width="167" height="167">
<rect x="1" y="1" width="165" height="165" rx="8" fill="#5988D6" stroke="#EDE6FC" stroke-opacity="0.3"/>
</mask>
<g mask="url(#mask0_206:36860)">
<rect x="1" y="1" width="165" height="165" rx="8" fill="#7A83D9" stroke="#EDE6FC" stroke-opacity="0.3"/>
<path d="M87.9457 28.4173H98.2934L101.102 28.3187V35.3158L94.6471 49.3592L91.1978 58.5243L83.5109 56.4055L82.9196 54.9272L91.7891 36.3505H86.4181L80.9486 36.9418L80.5051 36.2027L81.0964 28.1709L87.9457 28.4173Z" fill="#394087"/>
<path d="M115.599 27.9245C118.916 27.9245 121.495 29.025 123.335 31.2259C125.207 33.394 126.143 36.4655 126.143 40.4404C126.143 44.8423 125.109 48.2587 123.039 50.6896C120.97 53.1205 118.079 54.3359 114.367 54.3359C111.016 54.3359 108.404 53.2355 106.532 51.0345C104.66 48.8336 103.723 45.7457 103.723 41.7708C103.723 37.4346 104.758 34.051 106.828 31.6201C108.93 29.1564 111.854 27.9245 115.599 27.9245ZM114.859 36.8926C113.513 36.8926 112.56 37.2046 112.002 37.8288C111.443 38.4529 111.164 39.5534 111.164 41.1302C111.164 42.8384 111.443 44.0703 112.002 44.8259C112.56 45.5486 113.529 45.9099 114.909 45.9099C116.288 45.9099 117.274 45.5814 117.865 44.9244C118.457 44.2346 118.752 43.1177 118.752 41.5737C118.752 39.8655 118.44 38.6665 117.816 37.9766C117.225 37.2539 116.239 36.8926 114.859 36.8926Z" fill="#394087"/>
<path fill-rule="evenodd" clip-rule="evenodd" d="M75.1824 42.5794L61.3717 56.39C60.5242 57.2375 59.1502 57.2375 58.3027 56.39L44.492 42.5794C43.6445 41.7319 43.6445 40.3578 44.492 39.5103C45.3395 38.6628 46.7136 38.6628 47.5611 39.5103L57.6671 49.6163L57.6671 19.5431L62.0073 19.5431L62.0073 49.6163L72.1133 39.5103C72.9608 38.6628 74.3349 38.6628 75.1824 39.5103C76.0299 40.3578 76.0299 41.7319 75.1824 42.5794Z" fill="#394087"/>
<path d="M84.9457 28.4173H95.2934L98.1021 28.3187V35.3158L91.6471 49.3592L88.1978 58.5243L80.5109 56.4055L79.9196 54.9272L88.7891 36.3505H83.4181L77.9486 36.9418L77.5051 36.2027L78.0964 28.1709L84.9457 28.4173Z" fill="white"/>
<path d="M112.599 27.9245C115.916 27.9245 118.495 29.025 120.335 31.2259C122.207 33.394 123.143 36.4655 123.143 40.4404C123.143 44.8423 122.109 48.2587 120.039 50.6896C117.97 53.1205 115.079 54.3359 111.367 54.3359C108.016 54.3359 105.404 53.2355 103.532 51.0345C101.66 48.8336 100.723 45.7457 100.723 41.7708C100.723 37.4346 101.758 34.051 103.828 31.6201C105.93 29.1564 108.854 27.9245 112.599 27.9245ZM111.859 36.8926C110.513 36.8926 109.56 37.2046 109.002 37.8288C108.443 38.4529 108.164 39.5534 108.164 41.1302C108.164 42.8384 108.443 44.0703 109.002 44.8259C109.56 45.5486 110.529 45.9099 111.909 45.9099C113.288 45.9099 114.274 45.5814 114.865 44.9244C115.457 44.2346 115.752 43.1177 115.752 41.5737C115.752 39.8655 115.44 38.6665 114.816 37.9766C114.225 37.2539 113.239 36.8926 111.859 36.8926Z" fill="white"/>
<path fill-rule="evenodd" clip-rule="evenodd" d="M72.1824 42.5794L58.3717 56.39C57.5242 57.2375 56.1502 57.2375 55.3027 56.39L41.492 42.5794C40.6445 41.7319 40.6445 40.3578 41.492 39.5103C42.3395 38.6628 43.7136 38.6628 44.5611 39.5103L54.6671 49.6163L54.6671 19.5431L59.0073 19.5431L59.0073 49.6163L69.1133 39.5103C69.9608 38.6628 71.3349 38.6628 72.1824 39.5103C73.0299 40.3578 73.0299 41.7319 72.1824 42.5794Z" fill="white"/>
</g>
<g filter="url(#filter0_b_206:36860)">
<rect x="13" y="77" width="141" height="77" rx="10" fill="black" fill-opacity="0.8"/>
</g>
<path d="M34.7988 112H32.5308L29.7728 102.984H31.7048L31.9288 104.174L33.6368 110.236H33.7628L35.7228 104.272L35.9608 102.984H37.8368L34.7988 112ZM40.4726 105.364C41.1913 105.364 41.7513 105.527 42.1526 105.854C42.5633 106.171 42.7686 106.619 42.7686 107.198C42.7686 107.366 42.7406 107.898 42.6846 108.794C42.6753 109.055 42.6613 109.326 42.6426 109.606C42.624 109.877 42.6146 110.11 42.6146 110.306C42.6146 110.465 42.638 110.577 42.6846 110.642C42.7313 110.698 42.8153 110.726 42.9366 110.726C43.03 110.726 43.1513 110.707 43.3006 110.67L43.4406 110.782L43.2726 111.762C42.974 111.958 42.6333 112.075 42.2506 112.112C41.9706 112.084 41.7373 111.986 41.5506 111.818C41.364 111.641 41.238 111.398 41.1726 111.09H41.0746C40.608 111.585 40.1273 111.93 39.6326 112.126C38.9606 112.117 38.4333 111.939 38.0506 111.594C37.668 111.249 37.4766 110.777 37.4766 110.18C37.4766 109.713 37.5933 109.349 37.8266 109.088C38.0693 108.817 38.4333 108.635 38.9186 108.542L41.0606 108.136V107.562C41.0606 106.955 40.762 106.652 40.1646 106.652C39.8753 106.652 39.5673 106.717 39.2406 106.848C38.9233 106.979 38.564 107.184 38.1626 107.464L38.0226 107.38L37.8126 106.148C38.214 105.896 38.6433 105.705 39.1006 105.574C39.558 105.434 40.0153 105.364 40.4726 105.364ZM39.5626 109.396C39.4133 109.433 39.3013 109.499 39.2266 109.592C39.1613 109.676 39.1286 109.807 39.1286 109.984C39.1286 110.227 39.194 110.418 39.3246 110.558C39.4553 110.689 39.6373 110.754 39.8706 110.754C40.2346 110.754 40.6173 110.539 41.0186 110.11L41.0466 109.074L39.5626 109.396ZM46.4709 109.13L46.5689 112H44.7069L44.8049 109.298L44.7209 102.312L46.5829 102.172L46.4709 109.13ZM51.0306 105.364C51.9826 105.364 52.7106 105.644 53.2146 106.204C53.7186 106.764 53.9706 107.571 53.9706 108.626C53.9706 109.765 53.6999 110.637 53.1586 111.244C52.6173 111.841 51.8379 112.14 50.8206 112.14C49.8686 112.14 49.1406 111.86 48.6366 111.3C48.1326 110.74 47.8806 109.933 47.8806 108.878C47.8806 107.739 48.1513 106.871 48.6926 106.274C49.2339 105.667 50.0133 105.364 51.0306 105.364ZM50.9046 106.624C50.4566 106.624 50.1299 106.773 49.9246 107.072C49.7286 107.371 49.6306 107.851 49.6306 108.514C49.6306 109.373 49.7333 109.984 49.9386 110.348C50.1439 110.712 50.4799 110.894 50.9466 110.894C51.3946 110.894 51.7166 110.749 51.9126 110.46C52.1179 110.161 52.2206 109.676 52.2206 109.004C52.2206 108.155 52.1133 107.548 51.8986 107.184C51.6933 106.811 51.3619 106.624 50.9046 106.624ZM58.7625 105.476C58.8465 105.476 58.9632 105.485 59.1125 105.504V107.226L58.9165 107.296C58.7579 107.231 58.5852 107.198 58.3985 107.198C57.8572 107.198 57.3672 107.548 56.9285 108.248V109.13L57.0265 112H55.1645L55.2765 109.312L55.1925 105.616L56.9565 105.462L56.9425 106.736H57.0545C57.5119 105.896 58.0812 105.476 58.7625 105.476ZM65.0717 108.976L61.2917 109.004C61.3757 110.171 61.9684 110.754 63.0697 110.754C63.6484 110.754 64.2924 110.591 65.0017 110.264L65.1557 110.362L64.8757 111.748C64.1664 112.009 63.4991 112.14 62.8737 112.14C61.8471 112.14 61.0397 111.841 60.4517 111.244C59.8731 110.647 59.5837 109.821 59.5837 108.766C59.5837 107.721 59.8684 106.895 60.4377 106.288C61.0071 105.672 61.7771 105.364 62.7477 105.364C63.5784 105.364 64.2177 105.593 64.6657 106.05C65.1231 106.498 65.3517 107.128 65.3517 107.94C65.3517 108.155 65.3284 108.425 65.2817 108.752L65.0717 108.976ZM63.7277 107.73C63.7277 107.357 63.6437 107.077 63.4757 106.89C63.3077 106.694 63.0604 106.596 62.7337 106.596C62.3697 106.596 62.0664 106.717 61.8237 106.96C61.5811 107.193 61.4177 107.534 61.3337 107.982L63.6997 107.926L63.7277 107.73ZM68.8193 105.378C69.4539 105.378 70.0513 105.485 70.6113 105.7L70.3593 107.072L70.1353 107.142C69.8646 106.965 69.5939 106.829 69.3233 106.736C69.0526 106.643 68.8146 106.596 68.6093 106.596C68.3853 106.596 68.2079 106.657 68.0773 106.778C67.9466 106.89 67.8813 107.03 67.8813 107.198C67.8813 107.394 67.9653 107.553 68.1333 107.674C68.3106 107.795 68.5859 107.931 68.9593 108.08C69.3326 108.229 69.6406 108.374 69.8833 108.514C70.1259 108.654 70.3313 108.85 70.4993 109.102C70.6766 109.345 70.7653 109.648 70.7653 110.012C70.7653 110.385 70.6673 110.735 70.4713 111.062C70.2846 111.379 69.9953 111.641 69.6033 111.846C69.2113 112.042 68.7306 112.14 68.1613 112.14C67.4893 112.14 66.7939 112 66.0753 111.72L66.2853 110.264L66.4673 110.152C66.7566 110.395 67.0786 110.591 67.4333 110.74C67.7879 110.88 68.1006 110.95 68.3713 110.95C68.6233 110.95 68.8193 110.889 68.9593 110.768C69.0993 110.637 69.1693 110.483 69.1693 110.306C69.1693 110.11 69.0806 109.951 68.9033 109.83C68.7353 109.709 68.4646 109.573 68.0913 109.424C67.7086 109.256 67.3959 109.107 67.1533 108.976C66.9106 108.836 66.7006 108.64 66.5233 108.388C66.3553 108.136 66.2713 107.823 66.2713 107.45C66.2713 106.843 66.4999 106.349 66.9573 105.966C67.4146 105.574 68.0353 105.378 68.8193 105.378ZM79.5594 109.13L79.6014 110.306C79.6014 110.465 79.6201 110.577 79.6574 110.642C79.7041 110.698 79.7834 110.726 79.8954 110.726C79.9981 110.726 80.1241 110.707 80.2734 110.67L80.3994 110.782L80.2454 111.762C79.9281 111.958 79.5828 112.075 79.2094 112.112C78.9201 112.084 78.6774 111.986 78.4814 111.818C78.2854 111.65 78.1501 111.421 78.0754 111.132H77.9634C77.5061 111.552 77.0394 111.874 76.5634 112.098C75.6488 112.098 74.9394 111.809 74.4354 111.23C73.9314 110.642 73.6794 109.83 73.6794 108.794C73.6794 107.693 73.9688 106.848 74.5474 106.26C75.1261 105.672 75.9288 105.378 76.9554 105.378C77.2261 105.378 77.5248 105.406 77.8514 105.462L77.8234 102.312L79.6714 102.172L79.5594 109.13ZM76.8294 106.638C75.8961 106.638 75.4294 107.231 75.4294 108.416C75.4294 109.153 75.5414 109.709 75.7654 110.082C75.9894 110.455 76.3161 110.642 76.7454 110.642C77.1561 110.642 77.5341 110.451 77.8794 110.068L77.9074 109.298L77.8654 106.89C77.5014 106.722 77.1561 106.638 76.8294 106.638ZM86.5366 108.976L82.7566 109.004C82.8406 110.171 83.4332 110.754 84.5346 110.754C85.1132 110.754 85.7572 110.591 86.4666 110.264L86.6206 110.362L86.3406 111.748C85.6312 112.009 84.9639 112.14 84.3386 112.14C83.3119 112.14 82.5046 111.841 81.9166 111.244C81.3379 110.647 81.0486 109.821 81.0486 108.766C81.0486 107.721 81.3332 106.895 81.9026 106.288C82.4719 105.672 83.2419 105.364 84.2126 105.364C85.0432 105.364 85.6826 105.593 86.1306 106.05C86.5879 106.498 86.8166 107.128 86.8166 107.94C86.8166 108.155 86.7932 108.425 86.7466 108.752L86.5366 108.976ZM85.1926 107.73C85.1926 107.357 85.1086 107.077 84.9406 106.89C84.7726 106.694 84.5252 106.596 84.1986 106.596C83.8346 106.596 83.5312 106.717 83.2886 106.96C83.0459 107.193 82.8826 107.534 82.7986 107.982L85.1646 107.926L85.1926 107.73ZM96.4772 106.372C96.2252 106.437 95.8659 106.507 95.3992 106.582L95.3712 106.638C95.5112 106.918 95.5812 107.231 95.5812 107.576C95.5812 108.276 95.3246 108.836 94.8112 109.256C94.3072 109.667 93.6212 109.872 92.7532 109.872C92.4919 109.872 92.2212 109.849 91.9412 109.802C91.8572 109.886 91.8012 109.951 91.7732 109.998C91.7452 110.045 91.7312 110.101 91.7312 110.166C91.7312 110.334 91.8432 110.451 92.0672 110.516C92.2912 110.581 92.6459 110.647 93.1312 110.712C93.6819 110.777 94.1392 110.857 94.5032 110.95C94.8766 111.043 95.1939 111.207 95.4552 111.44C95.7259 111.673 95.8612 112.005 95.8612 112.434C95.8612 112.873 95.7212 113.265 95.4412 113.61C95.1706 113.965 94.7926 114.24 94.3072 114.436C93.8219 114.632 93.2712 114.73 92.6552 114.73C91.8059 114.73 91.1526 114.557 90.6952 114.212C90.2379 113.867 90.0092 113.409 90.0092 112.84C90.2986 112.439 90.6859 112.089 91.1712 111.79V111.72C90.8539 111.608 90.6066 111.454 90.4292 111.258C90.2519 111.053 90.1632 110.782 90.1632 110.446C90.4152 110.138 90.7326 109.853 91.1152 109.592V109.522C90.7792 109.335 90.5226 109.093 90.3452 108.794C90.1772 108.486 90.0932 108.127 90.0932 107.716C90.0932 106.988 90.3452 106.419 90.8492 106.008C91.3532 105.597 92.0392 105.392 92.9072 105.392C93.4112 105.392 93.8686 105.476 94.2792 105.644C94.9512 105.523 95.6372 105.336 96.3372 105.084L96.4772 105.21V106.372ZM92.8092 108.752C93.1919 108.752 93.4812 108.654 93.6772 108.458C93.8732 108.262 93.9712 107.977 93.9712 107.604C93.9712 106.895 93.6072 106.54 92.8792 106.54C92.0952 106.54 91.7032 106.899 91.7032 107.618C91.7032 107.991 91.7966 108.276 91.9832 108.472C92.1699 108.659 92.4452 108.752 92.8092 108.752ZM94.2932 112.77C94.2932 112.518 94.1579 112.345 93.8872 112.252C93.6259 112.159 93.2199 112.079 92.6692 112.014L92.1932 111.944C91.9692 112.093 91.8012 112.238 91.6892 112.378C91.5772 112.518 91.5212 112.667 91.5212 112.826C91.5212 113.069 91.6332 113.265 91.8572 113.414C92.0812 113.563 92.4079 113.638 92.8372 113.638C93.2759 113.638 93.6259 113.559 93.8872 113.4C94.1579 113.251 94.2932 113.041 94.2932 112.77ZM99.0392 109.13L99.1372 112H97.2752L97.3732 109.298L97.2892 102.312L99.1512 102.172L99.0392 109.13ZM101.023 109.312L100.953 105.616L102.787 105.462L102.703 109.13L102.787 112H100.925L101.023 109.312ZM101.905 102.298C102.194 102.298 102.418 102.382 102.577 102.55C102.745 102.718 102.829 102.951 102.829 103.25C102.829 103.567 102.74 103.819 102.563 104.006C102.386 104.193 102.143 104.286 101.835 104.286C101.527 104.286 101.289 104.202 101.121 104.034C100.962 103.866 100.883 103.628 100.883 103.32C100.883 103.012 100.972 102.765 101.149 102.578C101.336 102.391 101.588 102.298 101.905 102.298ZM107.221 105.364C107.529 105.364 107.833 105.397 108.131 105.462C108.439 105.518 108.71 105.602 108.943 105.714L108.635 107.198L108.481 107.268C108.005 107.007 107.581 106.876 107.207 106.876C106.778 106.876 106.447 107.03 106.213 107.338C105.98 107.646 105.863 108.085 105.863 108.654C105.863 109.307 105.989 109.807 106.241 110.152C106.493 110.497 106.853 110.67 107.319 110.67C107.739 110.67 108.206 110.553 108.719 110.32L108.859 110.432L108.677 111.874C108.117 112.051 107.543 112.14 106.955 112.14C106.059 112.14 105.359 111.851 104.855 111.272C104.351 110.684 104.099 109.867 104.099 108.822C104.099 107.739 104.375 106.895 104.925 106.288C105.476 105.672 106.241 105.364 107.221 105.364ZM114.974 108.976L111.194 109.004C111.278 110.171 111.871 110.754 112.972 110.754C113.551 110.754 114.195 110.591 114.904 110.264L115.058 110.362L114.778 111.748C114.069 112.009 113.401 112.14 112.776 112.14C111.749 112.14 110.942 111.841 110.354 111.244C109.775 110.647 109.486 109.821 109.486 108.766C109.486 107.721 109.771 106.895 110.34 106.288C110.909 105.672 111.679 105.364 112.65 105.364C113.481 105.364 114.12 105.593 114.568 106.05C115.025 106.498 115.254 107.128 115.254 107.94C115.254 108.155 115.231 108.425 115.184 108.752L114.974 108.976ZM113.63 107.73C113.63 107.357 113.546 107.077 113.378 106.89C113.21 106.694 112.963 106.596 112.636 106.596C112.272 106.596 111.969 106.717 111.726 106.96C111.483 107.193 111.32 107.534 111.236 107.982L113.602 107.926L113.63 107.73ZM124.336 112L124.448 107.94C124.448 107.249 124.154 106.904 123.566 106.904C123.146 106.904 122.707 107.091 122.25 107.464L122.208 109.144L122.292 112H120.43L120.542 107.94C120.551 107.604 120.476 107.347 120.318 107.17C120.168 106.993 119.949 106.904 119.66 106.904C119.249 106.904 118.796 107.1 118.302 107.492V109.13L118.386 112H116.538L116.636 109.312L116.566 105.616L118.316 105.462V106.414H118.414C118.927 105.947 119.492 105.611 120.108 105.406C121.153 105.406 121.82 105.756 122.11 106.456H122.194C122.726 105.961 123.332 105.611 124.014 105.406C124.723 105.406 125.26 105.569 125.624 105.896C125.997 106.213 126.174 106.675 126.156 107.282L126.114 109.144L126.198 112H124.336ZM127.957 109.312L127.887 105.616L129.721 105.462L129.637 109.13L129.721 112H127.859L127.957 109.312ZM128.839 102.298C129.128 102.298 129.352 102.382 129.511 102.55C129.679 102.718 129.763 102.951 129.763 103.25C129.763 103.567 129.674 103.819 129.497 104.006C129.319 104.193 129.077 104.286 128.769 104.286C128.461 104.286 128.223 104.202 128.055 104.034C127.896 103.866 127.817 103.628 127.817 103.32C127.817 103.012 127.905 102.765 128.083 102.578C128.269 102.391 128.521 102.298 128.839 102.298ZM134.043 105.364C134.762 105.364 135.322 105.527 135.723 105.854C136.134 106.171 136.339 106.619 136.339 107.198C136.339 107.366 136.311 107.898 136.255 108.794C136.246 109.055 136.232 109.326 136.213 109.606C136.194 109.877 136.185 110.11 136.185 110.306C136.185 110.465 136.208 110.577 136.255 110.642C136.302 110.698 136.386 110.726 136.507 110.726C136.6 110.726 136.722 110.707 136.871 110.67L137.011 110.782L136.843 111.762C136.544 111.958 136.204 112.075 135.821 112.112C135.541 112.084 135.308 111.986 135.121 111.818C134.934 111.641 134.808 111.398 134.743 111.09H134.645C134.178 111.585 133.698 111.93 133.203 112.126C132.531 112.117 132.004 111.939 131.621 111.594C131.238 111.249 131.047 110.777 131.047 110.18C131.047 109.713 131.164 109.349 131.397 109.088C131.64 108.817 132.004 108.635 132.489 108.542L134.631 108.136V107.562C134.631 106.955 134.332 106.652 133.735 106.652C133.446 106.652 133.138 106.717 132.811 106.848C132.494 106.979 132.134 107.184 131.733 107.464L131.593 107.38L131.383 106.148C131.784 105.896 132.214 105.705 132.671 105.574C133.128 105.434 133.586 105.364 134.043 105.364ZM133.133 109.396C132.984 109.433 132.872 109.499 132.797 109.592C132.732 109.676 132.699 109.807 132.699 109.984C132.699 110.227 132.764 110.418 132.895 110.558C133.026 110.689 133.208 110.754 133.441 110.754C133.805 110.754 134.188 110.539 134.589 110.11L134.617 109.074L133.133 109.396ZM30.4303 128L30.5423 123.94C30.5423 123.249 30.2483 122.904 29.6603 122.904C29.2403 122.904 28.8017 123.091 28.3443 123.464L28.3023 125.144L28.3863 128H26.5243L26.6363 123.94C26.6457 123.604 26.571 123.347 26.4123 123.17C26.263 122.993 26.0437 122.904 25.7543 122.904C25.3437 122.904 24.891 123.1 24.3963 123.492V125.13L24.4803 128H22.6323L22.7303 125.312L22.6603 121.616L24.4103 121.462V122.414H24.5083C25.0217 121.947 25.5863 121.611 26.2023 121.406C27.2477 121.406 27.915 121.756 28.2043 122.456H28.2883C28.8203 121.961 29.427 121.611 30.1083 121.406C30.8177 121.406 31.3543 121.569 31.7183 121.896C32.0917 122.213 32.269 122.675 32.2503 123.282L32.2083 125.144L32.2923 128H30.4303ZM38.9653 124.976L35.1853 125.004C35.2693 126.171 35.862 126.754 36.9633 126.754C37.542 126.754 38.186 126.591 38.8953 126.264L39.0493 126.362L38.7693 127.748C38.06 128.009 37.3926 128.14 36.7673 128.14C35.7406 128.14 34.9333 127.841 34.3453 127.244C33.7666 126.647 33.4773 125.821 33.4773 124.766C33.4773 123.721 33.762 122.895 34.3313 122.288C34.9006 121.672 35.6706 121.364 36.6413 121.364C37.472 121.364 38.1113 121.593 38.5593 122.05C39.0166 122.498 39.2453 123.128 39.2453 123.94C39.2453 124.155 39.222 124.425 39.1753 124.752L38.9653 124.976ZM37.6213 123.73C37.6213 123.357 37.5373 123.077 37.3693 122.89C37.2013 122.694 36.954 122.596 36.6273 122.596C36.2633 122.596 35.96 122.717 35.7173 122.96C35.4746 123.193 35.3113 123.534 35.2273 123.982L37.5933 123.926L37.6213 123.73ZM44.5328 123.94C44.5421 123.613 44.4675 123.361 44.3088 123.184C44.1595 122.997 43.9401 122.904 43.6508 122.904C43.2308 122.904 42.7828 123.105 42.3068 123.506V125.13L42.3908 128H40.5288L40.6268 125.312L40.5568 121.616L42.3208 121.462V122.414H42.4188C42.9321 121.947 43.4921 121.611 44.0988 121.406C44.8081 121.406 45.3495 121.569 45.7228 121.896C46.0961 122.213 46.2735 122.675 46.2548 123.282L46.2128 125.144L46.2968 128H44.4208L44.5328 123.94ZM50.641 121.364C51.593 121.364 52.321 121.644 52.825 122.204C53.329 122.764 53.581 123.571 53.581 124.626C53.581 125.765 53.3103 126.637 52.769 127.244C52.2276 127.841 51.4483 128.14 50.431 128.14C49.479 128.14 48.751 127.86 48.247 127.3C47.743 126.74 47.491 125.933 47.491 124.878C47.491 123.739 47.7616 122.871 48.303 122.274C48.8443 121.667 49.6236 121.364 50.641 121.364ZM50.515 122.624C50.067 122.624 49.7403 122.773 49.535 123.072C49.339 123.371 49.241 123.851 49.241 124.514C49.241 125.373 49.3436 125.984 49.549 126.348C49.7543 126.712 50.0903 126.894 50.557 126.894C51.005 126.894 51.327 126.749 51.523 126.46C51.7283 126.161 51.831 125.676 51.831 125.004C51.831 124.155 51.7236 123.548 51.509 123.184C51.3036 122.811 50.9723 122.624 50.515 122.624ZM58.3729 121.476C58.4569 121.476 58.5736 121.485 58.7229 121.504V123.226L58.5269 123.296C58.3682 123.231 58.1956 123.198 58.0089 123.198C57.4676 123.198 56.9776 123.548 56.5389 124.248V125.13L56.6369 128H54.7749L54.8869 125.312L54.8029 121.616L56.5669 121.462L56.5529 122.736H56.6649C57.1222 121.896 57.6916 121.476 58.3729 121.476ZM64.6821 124.976L60.9021 125.004C60.9861 126.171 61.5788 126.754 62.6801 126.754C63.2588 126.754 63.9028 126.591 64.6121 126.264L64.7661 126.362L64.4861 127.748C63.7768 128.009 63.1094 128.14 62.4841 128.14C61.4574 128.14 60.6501 127.841 60.0621 127.244C59.4834 126.647 59.1941 125.821 59.1941 124.766C59.1941 123.721 59.4788 122.895 60.0481 122.288C60.6174 121.672 61.3874 121.364 62.3581 121.364C63.1888 121.364 63.8281 121.593 64.2761 122.05C64.7334 122.498 64.9621 123.128 64.9621 123.94C64.9621 124.155 64.9388 124.425 64.8921 124.752L64.6821 124.976ZM63.3381 123.73C63.3381 123.357 63.2541 123.077 63.0861 122.89C62.9181 122.694 62.6708 122.596 62.3441 122.596C61.9801 122.596 61.6768 122.717 61.4341 122.96C61.1914 123.193 61.0281 123.534 60.9441 123.982L63.3101 123.926L63.3381 123.73ZM68.4296 121.378C69.0643 121.378 69.6616 121.485 70.2216 121.7L69.9696 123.072L69.7456 123.142C69.4749 122.965 69.2043 122.829 68.9336 122.736C68.6629 122.643 68.4249 122.596 68.2196 122.596C67.9956 122.596 67.8183 122.657 67.6876 122.778C67.5569 122.89 67.4916 123.03 67.4916 123.198C67.4916 123.394 67.5756 123.553 67.7436 123.674C67.9209 123.795 68.1963 123.931 68.5696 124.08C68.9429 124.229 69.2509 124.374 69.4936 124.514C69.7363 124.654 69.9416 124.85 70.1096 125.102C70.2869 125.345 70.3756 125.648 70.3756 126.012C70.3756 126.385 70.2776 126.735 70.0816 127.062C69.8949 127.379 69.6056 127.641 69.2136 127.846C68.8216 128.042 68.3409 128.14 67.7716 128.14C67.0996 128.14 66.4043 128 65.6856 127.72L65.8956 126.264L66.0776 126.152C66.3669 126.395 66.6889 126.591 67.0436 126.74C67.3983 126.88 67.7109 126.95 67.9816 126.95C68.2336 126.95 68.4296 126.889 68.5696 126.768C68.7096 126.637 68.7796 126.483 68.7796 126.306C68.7796 126.11 68.6909 125.951 68.5136 125.83C68.3456 125.709 68.0749 125.573 67.7016 125.424C67.3189 125.256 67.0063 125.107 66.7636 124.976C66.5209 124.836 66.3109 124.64 66.1336 124.388C65.9656 124.136 65.8816 123.823 65.8816 123.45C65.8816 122.843 66.1103 122.349 66.5676 121.966C67.0249 121.574 67.6456 121.378 68.4296 121.378ZM79.1278 121.378L79.2818 121.462L79.1698 125.13L79.2678 130.59H77.4198L77.5038 127.65V127.3H77.3918C77.0091 127.627 76.5891 127.893 76.1318 128.098C75.2265 128.098 74.5265 127.809 74.0318 127.23C73.5371 126.642 73.2898 125.839 73.2898 124.822C73.2898 123.711 73.5791 122.862 74.1578 122.274C74.7365 121.677 75.5111 121.378 76.4818 121.378C76.9858 121.378 77.5458 121.481 78.1618 121.686L79.1278 121.378ZM76.4258 122.638C75.5018 122.638 75.0398 123.254 75.0398 124.486C75.0398 125.186 75.1471 125.723 75.3618 126.096C75.5858 126.46 75.9078 126.642 76.3278 126.642C76.5238 126.642 76.7151 126.6 76.9018 126.516C77.0978 126.423 77.2985 126.273 77.5038 126.068L77.5178 125.326L77.4758 122.932C77.1025 122.736 76.7525 122.638 76.4258 122.638ZM87.2136 126.782L87.0456 127.762C86.7002 127.986 86.3456 128.103 85.9816 128.112C85.7109 128.065 85.4869 127.958 85.3096 127.79C85.1322 127.622 84.9969 127.379 84.9036 127.062H84.7776C84.2456 127.585 83.6949 127.925 83.1256 128.084C82.4162 128.084 81.8749 127.925 81.5016 127.608C81.1376 127.281 80.9602 126.815 80.9696 126.208L80.9976 124.556L80.9276 121.616L82.7336 121.462L82.6916 125.592C82.6822 125.919 82.7476 126.166 82.8876 126.334C83.0276 126.502 83.2376 126.586 83.5176 126.586C83.9282 126.586 84.3342 126.404 84.7356 126.04V121.616L86.5136 121.462L86.3876 126.306C86.3876 126.455 86.4109 126.563 86.4576 126.628C86.5136 126.693 86.5976 126.726 86.7096 126.726C86.8122 126.726 86.9382 126.707 87.0876 126.67L87.2136 126.782ZM93.352 124.976L89.572 125.004C89.656 126.171 90.2487 126.754 91.35 126.754C91.9287 126.754 92.5727 126.591 93.282 126.264L93.436 126.362L93.156 127.748C92.4467 128.009 91.7793 128.14 91.154 128.14C90.1273 128.14 89.32 127.841 88.732 127.244C88.1533 126.647 87.864 125.821 87.864 124.766C87.864 123.721 88.1487 122.895 88.718 122.288C89.2873 121.672 90.0573 121.364 91.028 121.364C91.8587 121.364 92.498 121.593 92.946 122.05C93.4033 122.498 93.632 123.128 93.632 123.94C93.632 124.155 93.6087 124.425 93.562 124.752L93.352 124.976ZM92.008 123.73C92.008 123.357 91.924 123.077 91.756 122.89C91.588 122.694 91.3407 122.596 91.014 122.596C90.65 122.596 90.3467 122.717 90.104 122.96C89.8613 123.193 89.698 123.534 89.614 123.982L91.98 123.926L92.008 123.73ZM98.0847 120.916H101.179L101.865 120.888V122.26L99.5547 127.3L98.7707 129.4L97.2727 128.98L97.1607 128.686L100.087 122.47H97.7767L96.5027 122.596L96.3907 122.442L96.5167 120.874L98.0847 120.916ZM106.004 120.818C106.956 120.818 107.688 121.126 108.202 121.742C108.724 122.358 108.986 123.231 108.986 124.36C108.986 125.555 108.706 126.483 108.146 127.146C107.586 127.799 106.792 128.126 105.766 128.126C104.814 128.126 104.076 127.818 103.554 127.202C103.031 126.586 102.77 125.723 102.77 124.612C102.77 123.408 103.05 122.475 103.61 121.812C104.179 121.149 104.977 120.818 106.004 120.818ZM105.864 122.54C105.304 122.54 104.888 122.699 104.618 123.016C104.347 123.324 104.212 123.814 104.212 124.486C104.212 125.167 104.347 125.671 104.618 125.998C104.888 126.325 105.308 126.488 105.878 126.488C106.438 126.488 106.853 126.334 107.124 126.026C107.404 125.709 107.544 125.223 107.544 124.57C107.544 123.879 107.404 123.371 107.124 123.044C106.844 122.708 106.424 122.54 105.864 122.54ZM118.176 128L118.288 123.94C118.288 123.249 117.994 122.904 117.406 122.904C116.986 122.904 116.548 123.091 116.09 123.464L116.048 125.144L116.132 128H114.27L114.382 123.94C114.392 123.604 114.317 123.347 114.158 123.17C114.009 122.993 113.79 122.904 113.5 122.904C113.09 122.904 112.637 123.1 112.142 123.492V125.13L112.226 128H110.378L110.476 125.312L110.406 121.616L112.156 121.462V122.414H112.254C112.768 121.947 113.332 121.611 113.948 121.406C114.994 121.406 115.661 121.756 115.95 122.456H116.034C116.566 121.961 117.173 121.611 117.854 121.406C118.564 121.406 119.1 121.569 119.464 121.896C119.838 122.213 120.015 122.675 119.996 123.282L119.954 125.144L120.038 128H118.176ZM127.929 122.372C127.677 122.437 127.318 122.507 126.851 122.582L126.823 122.638C126.963 122.918 127.033 123.231 127.033 123.576C127.033 124.276 126.777 124.836 126.263 125.256C125.759 125.667 125.073 125.872 124.205 125.872C123.944 125.872 123.673 125.849 123.393 125.802C123.309 125.886 123.253 125.951 123.225 125.998C123.197 126.045 123.183 126.101 123.183 126.166C123.183 126.334 123.295 126.451 123.519 126.516C123.743 126.581 124.098 126.647 124.583 126.712C125.134 126.777 125.591 126.857 125.955 126.95C126.329 127.043 126.646 127.207 126.907 127.44C127.178 127.673 127.313 128.005 127.313 128.434C127.313 128.873 127.173 129.265 126.893 129.61C126.623 129.965 126.245 130.24 125.759 130.436C125.274 130.632 124.723 130.73 124.107 130.73C123.258 130.73 122.605 130.557 122.147 130.212C121.69 129.867 121.461 129.409 121.461 128.84C121.751 128.439 122.138 128.089 122.623 127.79V127.72C122.306 127.608 122.059 127.454 121.881 127.258C121.704 127.053 121.615 126.782 121.615 126.446C121.867 126.138 122.185 125.853 122.567 125.592V125.522C122.231 125.335 121.975 125.093 121.797 124.794C121.629 124.486 121.545 124.127 121.545 123.716C121.545 122.988 121.797 122.419 122.301 122.008C122.805 121.597 123.491 121.392 124.359 121.392C124.863 121.392 125.321 121.476 125.731 121.644C126.403 121.523 127.089 121.336 127.789 121.084L127.929 121.21V122.372ZM124.261 124.752C124.644 124.752 124.933 124.654 125.129 124.458C125.325 124.262 125.423 123.977 125.423 123.604C125.423 122.895 125.059 122.54 124.331 122.54C123.547 122.54 123.155 122.899 123.155 123.618C123.155 123.991 123.249 124.276 123.435 124.472C123.622 124.659 123.897 124.752 124.261 124.752ZM125.745 128.77C125.745 128.518 125.61 128.345 125.339 128.252C125.078 128.159 124.672 128.079 124.121 128.014L123.645 127.944C123.421 128.093 123.253 128.238 123.141 128.378C123.029 128.518 122.973 128.667 122.973 128.826C122.973 129.069 123.085 129.265 123.309 129.414C123.533 129.563 123.86 129.638 124.289 129.638C124.728 129.638 125.078 129.559 125.339 129.4C125.61 129.251 125.745 129.041 125.745 128.77ZM132.101 118.648L129.203 129.61H127.915L127.803 129.456L130.687 118.48H131.947L132.101 118.648ZM138.082 125.13L138.124 126.306C138.124 126.465 138.143 126.577 138.18 126.642C138.227 126.698 138.306 126.726 138.418 126.726C138.521 126.726 138.647 126.707 138.796 126.67L138.922 126.782L138.768 127.762C138.451 127.958 138.105 128.075 137.732 128.112C137.443 128.084 137.2 127.986 137.004 127.818C136.808 127.65 136.673 127.421 136.598 127.132H136.486C136.029 127.552 135.562 127.874 135.086 128.098C134.171 128.098 133.462 127.809 132.958 127.23C132.454 126.642 132.202 125.83 132.202 124.794C132.202 123.693 132.491 122.848 133.07 122.26C133.649 121.672 134.451 121.378 135.478 121.378C135.749 121.378 136.047 121.406 136.374 121.462L136.346 118.312L138.194 118.172L138.082 125.13ZM135.352 122.638C134.419 122.638 133.952 123.231 133.952 124.416C133.952 125.153 134.064 125.709 134.288 126.082C134.512 126.455 134.839 126.642 135.268 126.642C135.679 126.642 136.057 126.451 136.402 126.068L136.43 125.298L136.388 122.89C136.024 122.722 135.679 122.638 135.352 122.638ZM145.199 126.586L145.073 128H140.201L140.299 125.312L140.201 118.984H142.133L142.021 125.144L142.063 126.432H145.087L145.199 126.586Z" fill="white"/>
<defs>
<filter id="filter0_b_206:36860" x="3" y="67" width="161" height="97" filterUnits="userSpaceOnUse" color-interpolation-filters="sRGB">
<feFlood flood-opacity="0" result="BackgroundImageFix"/>
<feGaussianBlur in="BackgroundImage" stdDeviation="5"/>
<feComposite in2="SourceAlpha" operator="in" result="effect1_backgroundBlur_206:36860"/>
<feBlend mode="normal" in="SourceGraphic" in2="effect1_backgroundBlur_206:36860" result="shape"/>
</filter>
</defs>
</svg>
