<svg width="167" height="167" viewBox="0 0 167 167" fill="none" xmlns="http://www.w3.org/2000/svg">
<mask id="mask0_136:22594" style="mask-type:alpha" maskUnits="userSpaceOnUse" x="0" y="0" width="167" height="167">
<rect x="1" y="1" width="165" height="165" rx="8" fill="#5988D6" stroke="#EDE6FC" stroke-opacity="0.3"/>
</mask>
<g mask="url(#mask0_136:22594)">
<rect x="1" y="1" width="165" height="165" rx="8" fill="#7A83D9" stroke="#EDE6FC" stroke-opacity="0.3"/>
<g clip-path="url(#clip0_136:22594)">
<path d="M54.8827 77.9377C58.0368 69.473 71.2932 65.4252 74.6664 62.9457C79.0025 59.7916 77.6244 49.3607 77.6244 49.3607L84.711 49.5452L91.7976 49.3607C91.7976 49.3607 90.4195 59.7916 94.7499 62.9457C98.1231 65.3963 111.604 69.4442 114.753 77.9377C117.901 86.4313 114.753 117.822 114.753 117.822H55.9379C55.9379 117.822 51.7344 86.4024 54.8827 77.9377Z" fill="#965450"/>
<path d="M93.1179 61.0313C89.7966 60.6911 86.4638 60.0165 83.5749 58.402C81.5082 57.2378 79.5747 55.8514 77.8088 54.2676C77.8706 52.6392 77.809 51.0085 77.6243 49.3895L84.7109 49.574L91.7975 49.3895C91.7975 49.3895 90.8115 56.8163 93.1179 61.0313Z" fill="#76413B"/>
<path d="M114.753 77.9377C117.901 86.4024 114.753 117.822 114.753 117.822L100.695 90.4329L114.753 77.9377Z" fill="#76413B"/>
<path d="M107.533 100.126L117.526 99.359C117.682 91.9552 116.5 80.7516 115.22 77.2977C112.556 70.1361 102.621 66.094 97.3906 63.4993C94.0578 66.1113 89.5371 67.0224 84.9069 66.8898C81.649 66.7975 78.0625 66.2728 75.2717 64.4449C74.5476 63.9738 73.8595 63.4496 73.2131 62.8765C68.5195 65.4367 57.2813 69.5422 54.3924 77.2919C51.1922 85.895 55.4707 117.816 55.4707 117.816H114.061L107.533 100.126Z" fill="#FFA65B"/>
<path d="M54.2253 106.549C54.802 112.973 55.4824 117.822 55.4824 117.822H114.061L109.004 102.207C90.7078 103.268 72.406 104.295 54.2253 106.549Z" fill="#D68950"/>
<path d="M67.4472 99.1917V98.2173L51.8785 97.5138C51.8785 97.5138 50.7253 117.816 57.564 118.272C59.0401 118.37 61.6003 118.428 64.7198 118.462C65.5443 112.01 66.4727 105.604 67.4472 99.1917Z" fill="#965450"/>
<path d="M66.8648 103.084C67.057 101.788 67.2492 100.491 67.4414 99.1917V98.2173L51.8728 97.5138C51.8728 97.5138 51.8036 98.7824 51.7979 100.697C56.1398 101.596 60.5739 102.156 64.9332 102.801L66.8648 103.084Z" fill="#76413B"/>
<path d="M73.2246 62.8765C73.2246 62.8765 54.4962 69.1386 51.8899 80.7112C50.3042 87.7286 48.9434 97.6291 48.9434 97.6291L68.3695 100.881L69.1768 86.6158L73.2246 62.8765Z" fill="#FFA65B"/>
<path d="M127.294 124.148C118.645 121.391 102.436 119.535 83.8922 119.535C65.3482 119.535 49.1568 121.391 40.4903 124.148H33.79V128.761C33.79 133.858 56.2204 137.986 83.8922 137.986C111.564 137.986 133.994 133.858 133.994 128.761V124.148H127.294Z" fill="#594750"/>
<path d="M83.8922 133.374C111.563 133.374 133.994 129.243 133.994 124.148C133.994 119.052 111.563 114.922 83.8922 114.922C56.2215 114.922 33.79 119.052 33.79 124.148C33.79 129.243 56.2215 133.374 83.8922 133.374Z" fill="#765E69"/>
<path d="M73.9743 33.9765C72.8211 30.4246 70.1168 31.2491 69.863 31.3356C69.6093 31.4221 66.7954 31.7796 67.2798 35.4815C67.7642 39.1833 69.9265 41.2476 71.9504 40.6249C74.0377 40.2962 75.1275 37.5515 73.9743 33.9765Z" fill="#76413B"/>
<path d="M102.92 35.2682C103.186 31.5432 100.366 31.2953 100.101 31.278C99.8355 31.2607 97.0851 30.5457 96.151 34.1611C95.2168 37.7764 96.4623 40.475 98.5612 40.6826C100.614 41.1496 102.644 39.0104 102.92 35.2682Z" fill="#76413B"/>
<path d="M70.803 27.5357C72.2214 11.9671 84.0651 12.8378 85.1722 12.9531C86.2851 12.8378 98.123 11.9613 99.5415 27.5357C100.972 43.1966 98.0827 54.6712 86.856 55.2479C73.7206 54.3829 69.373 43.1966 70.803 27.5357Z" fill="#965450"/>
<path d="M88.3378 30.8686C88.8206 32.4029 89.221 33.962 89.5372 35.5392C89.6986 36.3234 89.8601 37.1076 89.9985 37.8975C90.1368 38.6875 90.2637 39.4832 90.379 40.2732L90.4136 40.5327L90.1887 40.5903C89.2395 40.8507 88.2771 41.0605 87.3057 41.2188C88.1879 40.7806 89.0932 40.4058 89.9985 40.0656L89.8139 40.3827C89.6294 39.5985 89.4622 38.8201 89.3123 38.0302C89.1624 37.2402 89.0182 36.4502 88.8798 35.6603C88.6175 34.0733 88.4366 32.474 88.3378 30.8686Z" fill="#76413B"/>
<path d="M97.3503 29.7153L96.987 29.5135L96.5834 29.2944L96.0644 29.0234C95.8741 28.9369 95.6781 28.8273 95.459 28.7351C95.2407 28.6353 95.0174 28.5468 94.7901 28.4698C94.5652 28.3718 94.3173 28.3315 94.0866 28.2507C93.8477 28.195 93.6048 28.1583 93.3601 28.1412L92.9968 28.1123H92.6393C92.404 28.1282 92.1705 28.1649 91.9416 28.2219C91.7052 28.2623 91.4976 28.3661 91.2785 28.4237C91.1702 28.4513 91.067 28.4961 90.9729 28.5563L90.6788 28.689C90.5033 28.7643 90.332 28.849 90.1656 28.9427C90.0215 29.0349 89.8773 29.1099 89.7678 29.1733L89.3872 29.3636C89.4426 29.2348 89.5062 29.1096 89.5775 28.9888C89.6409 28.8735 89.7216 28.7293 89.8254 28.5679C89.9366 28.3882 90.0703 28.2235 90.2233 28.0778C90.3905 27.8805 90.5846 27.7077 90.7999 27.5646C91.0337 27.3863 91.2871 27.2354 91.5553 27.1148C91.8486 26.9804 92.159 26.8873 92.4779 26.838C92.6451 26.838 92.8123 26.7861 92.9795 26.7746C93.1467 26.7631 93.314 26.7746 93.4812 26.7746C93.8122 26.8042 94.1389 26.87 94.4557 26.9706C94.7499 27.0744 95.0337 27.2057 95.3033 27.3628C95.4301 27.4435 95.557 27.5184 95.6723 27.5992L96.001 27.8586C96.1939 28.0183 96.3751 28.1917 96.543 28.3776C96.79 28.6541 97.0048 28.9578 97.1831 29.2829C97.2525 29.4214 97.3085 29.5662 97.3503 29.7153Z" fill="#352C38"/>
<path d="M83.2001 28.885L82.8368 28.6832L82.4274 28.4641L81.9142 28.1931C81.7182 28.1066 81.5222 27.997 81.3376 27.9048C81.1531 27.8125 80.8994 27.7203 80.6688 27.6395C80.4381 27.5588 80.1959 27.5011 79.9595 27.4204C79.7208 27.3638 79.4778 27.3272 79.233 27.3109L78.8755 27.282H78.518C78.2808 27.2983 78.0454 27.335 77.8145 27.3916C77.5839 27.4319 77.3705 27.5357 77.1514 27.5934C77.0439 27.6232 76.941 27.6678 76.8458 27.726L76.5575 27.8586C76.3809 27.9316 76.2095 28.0164 76.0443 28.1124C75.8944 28.2046 75.756 28.2796 75.6407 28.343C75.4158 28.4641 75.2659 28.5333 75.2659 28.5333C75.3213 28.4044 75.3848 28.2792 75.4562 28.1585C75.5196 28.0432 75.6003 27.899 75.6983 27.7376C75.8096 27.5564 75.9455 27.3914 76.102 27.2474C76.2688 27.0498 76.4629 26.877 76.6786 26.7342C76.914 26.5584 77.1672 26.4077 77.4339 26.2845C77.7292 26.15 78.0416 26.0569 78.3623 26.0077C78.5237 26.0077 78.691 25.9558 78.8582 25.9443C79.0254 25.9327 79.1926 25.9443 79.3656 25.9443C79.6947 25.9739 80.0196 26.0397 80.3343 26.1403C80.629 26.2429 80.9129 26.3742 81.1819 26.5324C81.3088 26.6132 81.4414 26.6881 81.5567 26.7688L81.8796 27.0283C82.0752 27.185 82.2566 27.3587 82.4217 27.5473C82.6706 27.8222 82.8855 28.1262 83.0617 28.4526C83.1225 28.5916 83.1689 28.7365 83.2001 28.885Z" fill="#352C38"/>
<path d="M95.9147 35.5911L95.7763 35.199C95.6898 34.951 95.5399 34.6224 95.3554 34.2072C95.1479 33.7609 94.8823 33.3441 94.5654 32.9675C94.3981 32.7736 94.2039 32.6046 93.9888 32.4658C93.8768 32.4068 93.7613 32.3548 93.6428 32.3101L93.4583 32.264H93.4122H93.2911H93.0662L92.9278 32.3044C92.8355 32.3044 92.7202 32.3966 92.6164 32.4312C92.3978 32.5747 92.2032 32.7518 92.0398 32.9559C91.8798 33.1556 91.7388 33.3699 91.6189 33.596C91.4978 33.8151 91.394 34.0284 91.3017 34.2303C91.123 34.6339 90.9731 34.9856 90.8866 35.2336L90.7424 35.6257C90.7424 35.6257 90.7424 35.47 90.7713 35.2047C90.8073 34.8372 90.8709 34.4729 90.9615 34.1149C91.0255 33.872 91.1045 33.6332 91.198 33.3999C91.2997 33.1305 91.4312 32.8733 91.5901 32.633C91.7678 32.3594 91.9946 32.1209 92.2589 31.9296C92.4158 31.8296 92.5869 31.7538 92.7664 31.7047L93.0604 31.647H93.2853C93.6382 31.6801 93.9782 31.7967 94.2771 31.9872C94.5441 32.1692 94.7782 32.3954 94.969 32.6561C95.1432 32.8854 95.2884 33.1352 95.4015 33.3999C95.5079 33.6286 95.5947 33.8658 95.661 34.1092C95.7614 34.4658 95.8309 34.8304 95.8685 35.199C95.8919 35.3286 95.9073 35.4596 95.9147 35.5911Z" fill="#352C38"/>
<path d="M82.3007 35.5911L82.1565 35.199C82.0336 34.8613 81.8931 34.5302 81.7356 34.2072C81.5281 33.7609 81.2625 33.3441 80.9456 32.9675C80.7784 32.7736 80.5842 32.6046 80.369 32.4658C80.2581 32.4046 80.1424 32.3526 80.023 32.3101L79.8443 32.264H79.7982H79.7636C79.8443 32.264 79.7636 32.264 79.7982 32.264H79.6771H79.4522L79.308 32.3044C79.2158 32.3044 79.1005 32.3966 78.9967 32.4312C78.7883 32.5771 78.6036 32.754 78.4489 32.9559C78.2908 33.157 78.15 33.3712 78.028 33.596C77.9069 33.8151 77.8031 34.0284 77.7108 34.2303C77.5321 34.6339 77.3821 34.9856 77.3014 35.2336L77.1573 35.6257C77.1481 35.4855 77.1481 35.3449 77.1573 35.2047C77.1957 34.8371 77.2612 34.4729 77.3533 34.1149C77.4125 33.8713 77.4896 33.6323 77.584 33.3999C77.6854 33.1293 77.819 32.8719 77.9818 32.633C78.1557 32.3582 78.3808 32.1194 78.6449 31.9296C78.8018 31.8296 78.9729 31.7538 79.1524 31.7047L79.4464 31.647H79.6771C80.0282 31.6801 80.3663 31.7967 80.6631 31.9872C80.9301 32.1692 81.1642 32.3954 81.355 32.6561C81.5313 32.884 81.6767 33.1341 81.7875 33.3999C81.8932 33.6295 81.9818 33.8666 82.0527 34.1092C82.1504 34.4664 82.2198 34.8308 82.2603 35.199C82.3007 35.4354 82.3007 35.5911 82.3007 35.5911Z" fill="#352C38"/>
<path d="M81.2627 40.3366C81.3994 40.3934 81.5323 40.4589 81.6606 40.5327C82.0055 40.7177 82.3352 40.9298 82.6466 41.1669C82.8486 41.3267 83.0411 41.498 83.2232 41.6801C83.4422 41.8786 83.6447 42.0946 83.8286 42.3259C84.2526 42.8234 84.5899 43.3887 84.8262 43.9981C84.9425 44.3134 85.0256 44.64 85.0741 44.9726C85.0741 45.134 85.1202 45.3013 85.1318 45.4627V45.9413C85.1181 46.2432 85.0637 46.5419 84.9703 46.8293C84.9115 47.0911 84.8164 47.3434 84.6878 47.5789C84.6015 47.7823 84.4932 47.9756 84.3649 48.1555L84.065 48.5707C83.8921 48.7956 83.7883 48.9166 83.7883 48.9166C83.7883 48.9166 83.8517 48.7667 83.967 48.513L84.1746 48.0575C84.2548 47.8602 84.3222 47.658 84.3764 47.452C84.4663 47.2207 84.5245 46.9782 84.5494 46.7313C84.6068 46.4642 84.632 46.1913 84.6244 45.9182C84.6244 45.7741 84.6244 45.6357 84.6244 45.4858C84.6244 45.3359 84.5782 45.2032 84.5494 45.0533C84.503 44.7596 84.4257 44.4716 84.3188 44.1942C84.2107 43.9129 84.0835 43.6393 83.9382 43.3754C83.7935 43.1182 83.6337 42.8698 83.4596 42.6315C83.149 42.1986 82.8059 41.7899 82.4332 41.4091C82.266 41.2477 82.1218 41.0804 81.9777 40.9536C81.8335 40.8267 81.7125 40.7056 81.6029 40.6191L81.2627 40.3366Z" fill="#76413B"/>
<path d="M91.6188 44.6267L91.3362 44.5863C91.1575 44.5575 90.898 44.5459 90.5866 44.5171C90.2753 44.4883 89.9178 44.4883 89.5372 44.5171H88.9606C88.7588 44.5171 88.5569 44.5574 88.384 44.5747L87.7785 44.6324L87.2019 44.7362L86.6656 44.8342C86.5054 44.8611 86.3474 44.8997 86.1928 44.9496L85.2183 45.1975L84.9819 44.3153L86.0314 44.125C86.1928 44.125 86.36 44.0616 86.5446 44.0558L87.1212 44.0154L87.7324 43.9808H88.3667C88.58 43.9808 88.7934 43.9808 89.0009 44.0212L89.6064 44.0904C89.8002 44.1128 89.9927 44.1455 90.183 44.1884C90.356 44.2288 90.5232 44.2518 90.6789 44.2922C90.9989 44.3838 91.3128 44.4955 91.6188 44.6267Z" fill="#76413B"/>
<path d="M69.3961 31.7508C69.3961 31.7508 70.6935 33.3365 70.8377 38.9585L72.5675 38.6702L72.2792 22.9574C72.2792 22.9574 82.9466 27.4262 88.8569 25.5522L85.1089 23.534C85.1089 23.534 97.0737 27.7145 105.146 24.399L99.9567 23.534C99.9567 23.534 108.606 20.2185 107.597 11.8576C107.597 11.8576 104.57 15.3173 100.245 13.7316C102.241 13.4738 104.055 12.4375 105.29 10.8485C105.29 10.8485 103.272 12.4342 93.1815 9.69528C83.0907 6.95635 76.6038 6.8122 74.4415 14.8848C72.8727 14.4658 71.2053 14.6292 69.7477 15.3447C68.2901 16.0603 67.141 17.2795 66.513 18.777C63.9183 24.2548 67.8104 32.904 67.8104 32.904L69.3961 31.7508Z" fill="#352C38"/>
<path d="M74.5855 22.6691C74.5855 22.6691 74.2972 29.5885 71.5582 31.03C68.8193 32.4715 68.531 23.534 68.531 23.534L74.5855 22.6691Z" fill="#352C38"/>
<path d="M97.0735 25.1197C97.0189 27.4676 97.7834 29.7612 99.2358 31.6066V38.0936L100.101 38.3819C100.101 38.3819 100.245 29.5885 99.5242 24.9756C98.8034 20.3626 97.0735 25.1197 97.0735 25.1197Z" fill="#352C38"/>
<path d="M91.7341 55.738C92.2358 59.3995 96.9237 89.1413 99.0917 82.1989C99.0917 82.1989 95.2976 64.8658 93.1122 55.7322C92.6533 55.7572 92.1933 55.7592 91.7341 55.738Z" fill="#C1B6B6"/>
<path d="M90 47.2694L93.4597 44L99.6122 50.1525L90 52.459V47.2694Z" fill="#74A3A0"/>
<path d="M89.0816 48.6226C89.0816 48.6226 87.4037 57.9407 92.9795 57.2718C98.5554 56.6029 94.3403 47.8038 94.3403 47.8038C94.32 49.8402 94.4491 51.8753 94.7267 53.8928C94.7267 53.8928 95.0323 55.4843 94.3807 55.0807C93.8502 54.752 93.5158 49.3779 92.4433 47.896C92.446 49.9881 92.6604 52.0746 93.0833 54.1235C93.608 56.4299 92.7027 55.2075 92.0339 52.5205C91.4919 50.3524 91.094 48.242 90.7423 48.2708C90.3905 48.2997 90.9902 53.0798 91.0306 55.0634C91.0594 56.2166 90.7826 55.392 90.3329 53.7429C90.0676 52.7396 89.7389 50.1852 89.0816 48.6226Z" fill="#C1B6B6"/>
<path d="M116.621 103.493C114.153 92.2436 103.705 76.1387 103.705 76.1387C102.009 72.7943 100.297 69.5307 99.6683 68.7465C98.3248 67.0166 92.5298 65.5232 92.0224 66.0133C91.515 66.5034 92.8585 68.2448 92.8585 68.2448C92.8585 68.2448 90.4252 68.3774 92.674 70.6205C92.674 70.6205 90.7712 71.9351 93.6888 74.1321C93.6888 74.1321 91.959 74.6395 93.8503 75.9888C95.4879 77.142 97.7309 78.5893 98.3479 78.9872C99.5011 87.6364 103.082 112.194 106.276 116.329C106.79 116.992 110.93 120.365 112.654 118.704C112.964 118.693 113.267 118.612 113.542 118.468C116.892 116.623 119.066 114.743 116.621 103.493Z" fill="#965450"/>
<path d="M57.8522 126.022C57.8522 127.083 53.9946 127.948 49.2029 127.948C44.4112 127.948 40.5825 127.083 40.5825 126.022C40.5825 124.961 44.4631 124.119 49.226 124.119C53.9888 124.119 57.8522 124.955 57.8522 126.022Z" fill="#594750"/>
<path d="M55.6726 105.091H43.137L43.8289 125.635C43.8289 126.494 46.3314 127.192 49.399 127.192C52.4666 127.192 54.9576 126.494 54.9691 125.635L55.6726 105.091Z" fill="#BDEEFF"/>
<path d="M43.1772 104.768C43.1772 105.621 45.9738 106.307 49.4278 106.307C52.8817 106.307 55.6725 105.621 55.6725 104.768C55.6725 103.914 52.8759 103.228 49.4278 103.228C45.9796 103.228 43.1772 103.937 43.1772 104.768Z" fill="#A9D5E0"/>
<g opacity="0.4">
<path opacity="0.6" d="M54.2541 108.591H44.5554L45.0917 124.488C45.0917 125.157 47.0291 125.693 49.4048 125.693C51.7804 125.693 53.7063 125.157 53.7178 124.488L54.2541 108.591Z" fill="white"/>
<path opacity="0.4" d="M49.4279 109.998C52.1411 109.998 54.3407 109.455 54.3407 108.787C54.3407 108.118 52.1411 107.576 49.4279 107.576C46.7147 107.576 44.5151 108.118 44.5151 108.787C44.5151 109.455 46.7147 109.998 49.4279 109.998Z" fill="white"/>
</g>
<path d="M87.8594 126.852C103.273 126.852 115.768 124.73 115.768 122.112C115.768 119.495 103.273 117.372 87.8594 117.372C72.4461 117.372 59.9512 119.495 59.9512 122.112C59.9512 124.73 72.4461 126.852 87.8594 126.852Z" fill="#594750"/>
<path d="M59.1382 116.946C59.1382 116.946 64.7371 126.996 85.4319 125.791C106.127 124.586 108.243 116.946 108.243 116.946H59.1382Z" fill="#E8DADB"/>
<path d="M83.6961 122.256C97.2559 122.256 108.248 119.626 108.248 116.381C108.248 113.136 97.2559 110.505 83.6961 110.505C70.1362 110.505 59.1438 113.136 59.1438 116.381C59.1438 119.626 70.1362 122.256 83.6961 122.256Z" fill="#FDEDEE"/>
<path d="M83.6962 120.838C95.1765 120.838 104.483 118.695 104.483 116.052C104.483 113.409 95.1765 111.266 83.6962 111.266C72.2158 111.266 62.9092 113.409 62.9092 116.052C62.9092 118.695 72.2158 120.838 83.6962 120.838Z" fill="#E8DADB"/>
<path d="M73.7436 120.723C73.7436 120.723 65.302 120.192 65.8382 115.96C66.3745 111.727 65.302 109.432 71.4083 110.666C77.5147 111.9 70.6876 115.608 79.135 115.608C87.5824 115.608 84.5206 120.901 84.5206 120.901C84.5206 120.901 77.1572 121.432 73.7436 120.723Z" fill="#74A3A0"/>
<path d="M69.8748 117.615C69.8748 117.615 75.4506 112.621 81.9837 112.811C88.5167 113.002 82.1797 121.074 82.1797 121.074C82.1797 121.074 71.4143 120.117 69.8748 117.615Z" fill="#5D8584"/>
<path d="M80.2536 117.615C80.2536 117.615 88.3262 112.425 92.5586 113.774C92.5586 113.774 90.4424 118.387 94.669 119.921C94.669 119.921 86.2158 121.27 82.1795 121.074C78.1432 120.878 80.2536 117.615 80.2536 117.615Z" fill="#5D8584"/>
<path d="M91.019 120.498C91.019 120.498 95.4417 115.504 98.7053 114.928C101.969 114.351 103.705 117.615 103.705 117.615C103.705 117.615 99.0917 120.498 91.019 120.498Z" fill="#74A3A0"/>
<path d="M86.7751 114.928L92.155 110.891L99.4607 115.885L96.001 118.768C96.001 118.768 88.9029 120.694 86.7751 114.928Z" fill="#5D8584"/>
<path d="M71.0279 116.271C71.0279 116.271 70.8376 109.161 76.4135 113.774L71.0279 116.271Z" fill="#FC6A5A"/>
<path d="M93.9656 117.061C93.9656 117.061 92.2357 123.98 88.1072 118.001L93.9656 117.061Z" fill="#FC6A5A"/>
<path d="M95.2573 117.015C95.2573 117.015 97.7887 110.367 101.185 116.755L95.2573 117.015Z" fill="#FC6A5A"/>
<path d="M84.3188 116.329C84.3188 116.329 86.683 109.617 90.2407 115.919L84.3188 116.329Z" fill="#FC6A5A"/>
<path d="M83.0158 113.97C83.0158 113.97 82.1854 121.034 77.3303 115.666L83.0158 113.97Z" fill="#FC6A5A"/>
<path d="M78.178 119.362C78.178 119.362 72.8616 123.398 73.3345 116.623L78.178 119.362Z" fill="#FC6A5A"/>
<path d="M79.873 114.922L83.3327 111.652L89.4852 117.805L79.873 120.111V114.922Z" fill="#74A3A0"/>
<rect x="90" y="48" width="4" height="3" fill="#74A3A0"/>
</g>
</g>
<g filter="url(#filter0_b_136:22594)">
<rect x="13" y="77" width="141" height="77" rx="10" fill="black" fill-opacity="0.8"/>
</g>
<path d="M42.6698 94.872C43.5472 94.872 44.3358 95.054 45.0358 95.418L44.6998 97L44.5458 97.07C44.2658 96.874 43.9578 96.72 43.6218 96.608C43.2858 96.496 42.9405 96.44 42.5858 96.44C41.1018 96.44 40.3598 97.4153 40.3598 99.366C40.3598 100.421 40.5512 101.214 40.9338 101.746C41.3258 102.269 41.8952 102.53 42.6418 102.53C42.9872 102.53 43.3418 102.479 43.7058 102.376C44.0792 102.264 44.4152 102.115 44.7138 101.928L44.8818 102.026L44.7278 103.636C44.0185 103.963 43.2718 104.126 42.4878 104.126C41.1438 104.126 40.1172 103.734 39.4078 102.95C38.7078 102.166 38.3578 101.041 38.3578 99.576C38.3578 98.0827 38.7312 96.9253 39.4778 96.104C40.2338 95.2827 41.2978 94.872 42.6698 94.872ZM48.5355 97.364C49.4875 97.364 50.2155 97.644 50.7195 98.204C51.2235 98.764 51.4755 99.5713 51.4755 100.626C51.4755 101.765 51.2048 102.637 50.6635 103.244C50.1222 103.841 49.3428 104.14 48.3255 104.14C47.3735 104.14 46.6455 103.86 46.1415 103.3C45.6375 102.74 45.3855 101.933 45.3855 100.878C45.3855 99.7393 45.6562 98.8713 46.1975 98.274C46.7388 97.6673 47.5182 97.364 48.5355 97.364ZM48.4095 98.624C47.9615 98.624 47.6348 98.7733 47.4295 99.072C47.2335 99.3707 47.1355 99.8513 47.1355 100.514C47.1355 101.373 47.2382 101.984 47.4435 102.348C47.6488 102.712 47.9848 102.894 48.4515 102.894C48.8995 102.894 49.2215 102.749 49.4175 102.46C49.6228 102.161 49.7255 101.676 49.7255 101.004C49.7255 100.155 49.6182 99.548 49.4035 99.184C49.1982 98.8107 48.8668 98.624 48.4095 98.624ZM60.4674 104L60.5794 99.94C60.5794 99.2493 60.2854 98.904 59.6974 98.904C59.2774 98.904 58.8388 99.0907 58.3814 99.464L58.3394 101.144L58.4234 104H56.5614L56.6734 99.94C56.6828 99.604 56.6081 99.3473 56.4494 99.17C56.3001 98.9927 56.0808 98.904 55.7914 98.904C55.3808 98.904 54.9281 99.1 54.4334 99.492V101.13L54.5174 104H52.6694L52.7674 101.312L52.6974 97.616L54.4474 97.462V98.414H54.5454C55.0588 97.9473 55.6234 97.6113 56.2394 97.406C57.2848 97.406 57.9521 97.756 58.2414 98.456H58.3254C58.8574 97.9613 59.4641 97.6113 60.1454 97.406C60.8548 97.406 61.3914 97.5693 61.7554 97.896C62.1288 98.2133 62.3061 98.6753 62.2874 99.282L62.2454 101.144L62.3294 104H60.4674ZM69.0024 100.976L65.2224 101.004C65.3064 102.171 65.8991 102.754 67.0004 102.754C67.5791 102.754 68.2231 102.591 68.9324 102.264L69.0864 102.362L68.8064 103.748C68.0971 104.009 67.4297 104.14 66.8044 104.14C65.7777 104.14 64.9704 103.841 64.3824 103.244C63.8037 102.647 63.5144 101.821 63.5144 100.766C63.5144 99.7207 63.7991 98.8947 64.3684 98.288C64.9377 97.672 65.7077 97.364 66.6784 97.364C67.5091 97.364 68.1484 97.5927 68.5964 98.05C69.0537 98.498 69.2824 99.128 69.2824 99.94C69.2824 100.155 69.2591 100.425 69.2124 100.752L69.0024 100.976ZM67.6584 99.73C67.6584 99.3567 67.5744 99.0767 67.4064 98.89C67.2384 98.694 66.9911 98.596 66.6644 98.596C66.3004 98.596 65.9971 98.7173 65.7544 98.96C65.5117 99.1933 65.3484 99.534 65.2644 99.982L67.6304 99.926L67.6584 99.73ZM74.5699 99.94C74.5792 99.6133 74.5046 99.3613 74.3459 99.184C74.1966 98.9973 73.9772 98.904 73.6879 98.904C73.2679 98.904 72.8199 99.1047 72.3439 99.506V101.13L72.4279 104H70.5659L70.6639 101.312L70.5939 97.616L72.3579 97.462V98.414H72.4559C72.9692 97.9473 73.5292 97.6113 74.1359 97.406C74.8452 97.406 75.3866 97.5693 75.7599 97.896C76.1332 98.2133 76.3106 98.6753 76.2919 99.282L76.2499 101.144L76.3339 104H74.4579L74.5699 99.94ZM83.4081 101.13L83.4501 102.306C83.4501 102.465 83.4687 102.577 83.5061 102.642C83.5527 102.698 83.6321 102.726 83.7441 102.726C83.8467 102.726 83.9727 102.707 84.1221 102.67L84.2481 102.782L84.0941 103.762C83.7767 103.958 83.4314 104.075 83.0581 104.112C82.7687 104.084 82.5261 103.986 82.3301 103.818C82.1341 103.65 81.9987 103.421 81.9241 103.132H81.8121C81.3547 103.552 80.8881 103.874 80.4121 104.098C79.4974 104.098 78.7881 103.809 78.2841 103.23C77.7801 102.642 77.5281 101.83 77.5281 100.794C77.5281 99.6927 77.8174 98.848 78.3961 98.26C78.9747 97.672 79.7774 97.378 80.8041 97.378C81.0747 97.378 81.3734 97.406 81.7001 97.462L81.6721 94.312L83.5201 94.172L83.4081 101.13ZM80.6781 98.638C79.7447 98.638 79.2781 99.2307 79.2781 100.416C79.2781 101.153 79.3901 101.709 79.6141 102.082C79.8381 102.455 80.1647 102.642 80.5941 102.642C81.0047 102.642 81.3827 102.451 81.7281 102.068L81.7561 101.298L81.7141 98.89C81.3501 98.722 81.0047 98.638 80.6781 98.638ZM88.0472 97.364C88.9992 97.364 89.7272 97.644 90.2312 98.204C90.7352 98.764 90.9872 99.5713 90.9872 100.626C90.9872 101.765 90.7165 102.637 90.1752 103.244C89.6339 103.841 88.8545 104.14 87.8372 104.14C86.8852 104.14 86.1572 103.86 85.6532 103.3C85.1492 102.74 84.8972 101.933 84.8972 100.878C84.8972 99.7393 85.1679 98.8713 85.7092 98.274C86.2505 97.6673 87.0299 97.364 88.0472 97.364ZM87.9212 98.624C87.4732 98.624 87.1465 98.7733 86.9412 99.072C86.7452 99.3707 86.6472 99.8513 86.6472 100.514C86.6472 101.373 86.7499 101.984 86.9552 102.348C87.1605 102.712 87.4965 102.894 87.9632 102.894C88.4112 102.894 88.7332 102.749 88.9292 102.46C89.1345 102.161 89.2372 101.676 89.2372 101.004C89.2372 100.155 89.1299 99.548 88.9152 99.184C88.7099 98.8107 88.3785 98.624 87.9212 98.624ZM97.9943 94.13C98.5357 94.13 99.161 94.214 99.8703 94.382L99.6603 95.824L99.4783 95.922C98.7877 95.6047 98.223 95.446 97.7843 95.446C97.411 95.446 97.1357 95.5393 96.9583 95.726C96.7903 95.9127 96.7017 96.2113 96.6923 96.622L96.6783 97.546H99.9823L101.004 97.406L101.116 97.476L101.004 101.13L101.102 104H99.2543L99.3523 101.312L99.2963 98.666H96.6643L96.6223 101.13L96.7203 104H94.8583L94.9703 101.298L94.9423 98.666H93.9623L93.8923 98.568L93.9903 97.546H94.9143V97.014C94.9143 96.0247 95.1617 95.2967 95.6563 94.83C96.1603 94.3633 96.9397 94.13 97.9943 94.13ZM106.291 97.406C107.112 97.406 107.738 97.686 108.167 98.246C108.606 98.7967 108.825 99.5667 108.825 100.556C108.825 101.704 108.54 102.591 107.971 103.216C107.402 103.832 106.613 104.14 105.605 104.14C105.129 104.14 104.606 104.033 104.037 103.818L103.057 104.168L102.833 103.986L102.931 101.326L102.847 94.312L104.695 94.172L104.639 98.414H104.723C104.984 98.162 105.236 97.9613 105.479 97.812C105.722 97.6533 105.992 97.518 106.291 97.406ZM105.605 102.922C106.072 102.922 106.436 102.754 106.697 102.418C106.958 102.082 107.089 101.569 107.089 100.878C107.089 100.234 106.982 99.744 106.767 99.408C106.562 99.072 106.249 98.904 105.829 98.904C105.446 98.904 105.045 99.1 104.625 99.492L104.597 101.088L104.625 102.67C104.97 102.838 105.297 102.922 105.605 102.922ZM113.621 97.476C113.705 97.476 113.822 97.4853 113.971 97.504V99.226L113.775 99.296C113.616 99.2307 113.444 99.198 113.257 99.198C112.716 99.198 112.226 99.548 111.787 100.248V101.13L111.885 104H110.023L110.135 101.312L110.051 97.616L111.815 97.462L111.801 98.736H111.913C112.37 97.896 112.94 97.476 113.621 97.476ZM117.315 97.364C118.034 97.364 118.594 97.5273 118.995 97.854C119.406 98.1713 119.611 98.6193 119.611 99.198C119.611 99.366 119.583 99.898 119.527 100.794C119.518 101.055 119.504 101.326 119.485 101.606C119.467 101.877 119.457 102.11 119.457 102.306C119.457 102.465 119.481 102.577 119.527 102.642C119.574 102.698 119.658 102.726 119.779 102.726C119.873 102.726 119.994 102.707 120.143 102.67L120.283 102.782L120.115 103.762C119.817 103.958 119.476 104.075 119.093 104.112C118.813 104.084 118.58 103.986 118.393 103.818C118.207 103.641 118.081 103.398 118.015 103.09H117.917C117.451 103.585 116.97 103.93 116.475 104.126C115.803 104.117 115.276 103.939 114.893 103.594C114.511 103.249 114.319 102.777 114.319 102.18C114.319 101.713 114.436 101.349 114.669 101.088C114.912 100.817 115.276 100.635 115.761 100.542L117.903 100.136V99.562C117.903 98.9553 117.605 98.652 117.007 98.652C116.718 98.652 116.41 98.7173 116.083 98.848C115.766 98.9787 115.407 99.184 115.005 99.464L114.865 99.38L114.655 98.148C115.057 97.896 115.486 97.7047 115.943 97.574C116.401 97.434 116.858 97.364 117.315 97.364ZM116.405 101.396C116.256 101.433 116.144 101.499 116.069 101.592C116.004 101.676 115.971 101.807 115.971 101.984C115.971 102.227 116.037 102.418 116.167 102.558C116.298 102.689 116.48 102.754 116.713 102.754C117.077 102.754 117.46 102.539 117.861 102.11L117.889 101.074L116.405 101.396ZM123.678 97.378C124.312 97.378 124.91 97.4853 125.47 97.7L125.218 99.072L124.994 99.142C124.723 98.9647 124.452 98.8293 124.182 98.736C123.911 98.6427 123.673 98.596 123.468 98.596C123.244 98.596 123.066 98.6567 122.936 98.778C122.805 98.89 122.74 99.03 122.74 99.198C122.74 99.394 122.824 99.5527 122.992 99.674C123.169 99.7953 123.444 99.9307 123.818 100.08C124.191 100.229 124.499 100.374 124.742 100.514C124.984 100.654 125.19 100.85 125.358 101.102C125.535 101.345 125.624 101.648 125.624 102.012C125.624 102.385 125.526 102.735 125.33 103.062C125.143 103.379 124.854 103.641 124.462 103.846C124.07 104.042 123.589 104.14 123.02 104.14C122.348 104.14 121.652 104 120.934 103.72L121.144 102.264L121.326 102.152C121.615 102.395 121.937 102.591 122.292 102.74C122.646 102.88 122.959 102.95 123.23 102.95C123.482 102.95 123.678 102.889 123.818 102.768C123.958 102.637 124.028 102.483 124.028 102.306C124.028 102.11 123.939 101.951 123.762 101.83C123.594 101.709 123.323 101.573 122.95 101.424C122.567 101.256 122.254 101.107 122.012 100.976C121.769 100.836 121.559 100.64 121.382 100.388C121.214 100.136 121.13 99.8233 121.13 99.45C121.13 98.8433 121.358 98.3487 121.816 97.966C122.273 97.574 122.894 97.378 123.678 97.378ZM127.837 102.152C128.257 102.488 128.467 102.889 128.467 103.356C128.467 104.168 127.902 104.975 126.773 105.778L126.171 105.246L126.157 105.106C126.67 104.677 126.927 104.219 126.927 103.734C126.927 103.417 126.778 103.137 126.479 102.894L126.493 102.74C126.922 102.479 127.37 102.283 127.837 102.152ZM56.756 113.406C57.568 113.406 58.1933 113.681 58.632 114.232C59.0707 114.783 59.29 115.562 59.29 116.57C59.29 117.709 59.0053 118.591 58.436 119.216C57.876 119.832 57.0827 120.14 56.056 120.14C55.7573 120.14 55.4447 120.112 55.118 120.056L55.16 122.59H53.312L53.41 117.312L53.326 113.616L55.104 113.462L55.09 114.414H55.188C55.4493 114.162 55.7013 113.961 55.944 113.812C56.1867 113.653 56.4573 113.518 56.756 113.406ZM56.07 118.922C56.5553 118.922 56.924 118.749 57.176 118.404C57.428 118.059 57.554 117.55 57.554 116.878C57.554 116.225 57.4467 115.735 57.232 115.408C57.0267 115.072 56.7187 114.904 56.308 114.904C55.9067 114.904 55.5007 115.105 55.09 115.506L55.076 117.13L55.104 118.712C55.44 118.852 55.762 118.922 56.07 118.922ZM64.0741 113.476C64.1581 113.476 64.2747 113.485 64.4241 113.504V115.226L64.2281 115.296C64.0694 115.231 63.8967 115.198 63.7101 115.198C63.1687 115.198 62.6787 115.548 62.2401 116.248V117.13L62.3381 120H60.4761L60.5881 117.312L60.5041 113.616L62.2681 113.462L62.2541 114.736H62.3661C62.8234 113.896 63.3927 113.476 64.0741 113.476ZM68.0453 113.364C68.9973 113.364 69.7253 113.644 70.2293 114.204C70.7333 114.764 70.9853 115.571 70.9853 116.626C70.9853 117.765 70.7146 118.637 70.1733 119.244C69.6319 119.841 68.8526 120.14 67.8353 120.14C66.8833 120.14 66.1553 119.86 65.6513 119.3C65.1473 118.74 64.8953 117.933 64.8953 116.878C64.8953 115.739 65.1659 114.871 65.7073 114.274C66.2486 113.667 67.0279 113.364 68.0453 113.364ZM67.9193 114.624C67.4713 114.624 67.1446 114.773 66.9393 115.072C66.7433 115.371 66.6453 115.851 66.6453 116.514C66.6453 117.373 66.7479 117.984 66.9533 118.348C67.1586 118.712 67.4946 118.894 67.9613 118.894C68.4093 118.894 68.7313 118.749 68.9273 118.46C69.1326 118.161 69.2353 117.676 69.2353 117.004C69.2353 116.155 69.1279 115.548 68.9133 115.184C68.7079 114.811 68.3766 114.624 67.9193 114.624ZM74.8932 118.628C75.1919 118.628 75.5046 118.549 75.8312 118.39L75.9852 118.53L75.8032 119.636C75.3272 119.879 74.8419 120.028 74.3472 120.084C73.0872 119.953 72.4572 119.337 72.4572 118.236L72.5272 117.074L72.5132 114.666H71.6452L71.5752 114.568L71.6732 113.546H72.4992V112.468L74.1932 111.922L74.3192 112.034L74.2772 113.546H75.9432L75.9992 113.644L75.9152 114.666H74.2492L74.1652 117.802C74.1652 118.101 74.2212 118.315 74.3332 118.446C74.4452 118.567 74.6319 118.628 74.8932 118.628ZM81.936 116.976L78.156 117.004C78.24 118.171 78.8327 118.754 79.934 118.754C80.5127 118.754 81.1567 118.591 81.866 118.264L82.02 118.362L81.74 119.748C81.0307 120.009 80.3633 120.14 79.738 120.14C78.7113 120.14 77.904 119.841 77.316 119.244C76.7373 118.647 76.448 117.821 76.448 116.766C76.448 115.721 76.7327 114.895 77.302 114.288C77.8713 113.672 78.6413 113.364 79.612 113.364C80.4427 113.364 81.082 113.593 81.53 114.05C81.9873 114.498 82.216 115.128 82.216 115.94C82.216 116.155 82.1927 116.425 82.146 116.752L81.936 116.976ZM80.592 115.73C80.592 115.357 80.508 115.077 80.34 114.89C80.172 114.694 79.9247 114.596 79.598 114.596C79.234 114.596 78.9307 114.717 78.688 114.96C78.4453 115.193 78.282 115.534 78.198 115.982L80.564 115.926L80.592 115.73ZM83.6255 117.312L83.5555 113.616L85.3895 113.462L85.3055 117.13L85.3895 120H83.5275L83.6255 117.312ZM85.8235 109.878L86.4955 110.886L86.4675 111.068C86.2622 111.199 86.1082 111.292 86.0055 111.348C84.8388 112.067 84.0828 112.524 83.7375 112.72L83.5555 112.706L83.1075 112.006C84.1902 111.138 85.0348 110.424 85.6415 109.864L85.8235 109.878ZM91.1539 115.94C91.1632 115.613 91.0886 115.361 90.9299 115.184C90.7806 114.997 90.5612 114.904 90.2719 114.904C89.8519 114.904 89.4039 115.105 88.9279 115.506V117.13L89.0119 120H87.1499L87.2479 117.312L87.1779 113.616L88.9419 113.462V114.414H89.0399C89.5532 113.947 90.1132 113.611 90.7199 113.406C91.4292 113.406 91.9706 113.569 92.3439 113.896C92.7172 114.213 92.8946 114.675 92.8759 115.282L92.8339 117.144L92.9179 120H91.0419L91.1539 115.94ZM97.1221 113.364C97.8407 113.364 98.4007 113.527 98.8021 113.854C99.2127 114.171 99.4181 114.619 99.4181 115.198C99.4181 115.366 99.3901 115.898 99.3341 116.794C99.3247 117.055 99.3107 117.326 99.2921 117.606C99.2734 117.877 99.2641 118.11 99.2641 118.306C99.2641 118.465 99.2874 118.577 99.3341 118.642C99.3807 118.698 99.4647 118.726 99.5861 118.726C99.6794 118.726 99.8007 118.707 99.9501 118.67L100.09 118.782L99.9221 119.762C99.6234 119.958 99.2827 120.075 98.9001 120.112C98.6201 120.084 98.3867 119.986 98.2001 119.818C98.0134 119.641 97.8874 119.398 97.8221 119.09H97.7241C97.2574 119.585 96.7767 119.93 96.2821 120.126C95.6101 120.117 95.0827 119.939 94.7001 119.594C94.3174 119.249 94.1261 118.777 94.1261 118.18C94.1261 117.713 94.2427 117.349 94.4761 117.088C94.7187 116.817 95.0827 116.635 95.5681 116.542L97.7101 116.136V115.562C97.7101 114.955 97.4114 114.652 96.8141 114.652C96.5247 114.652 96.2167 114.717 95.8901 114.848C95.5727 114.979 95.2134 115.184 94.8121 115.464L94.6721 115.38L94.4621 114.148C94.8634 113.896 95.2927 113.705 95.7501 113.574C96.2074 113.434 96.6647 113.364 97.1221 113.364ZM96.2121 117.396C96.0627 117.433 95.9507 117.499 95.8761 117.592C95.8107 117.676 95.7781 117.807 95.7781 117.984C95.7781 118.227 95.8434 118.418 95.9741 118.558C96.1047 118.689 96.2867 118.754 96.5201 118.754C96.8841 118.754 97.2667 118.539 97.6681 118.11L97.6961 117.074L96.2121 117.396ZM103.484 113.378C104.119 113.378 104.716 113.485 105.276 113.7L105.024 115.072L104.8 115.142C104.53 114.965 104.259 114.829 103.988 114.736C103.718 114.643 103.48 114.596 103.274 114.596C103.05 114.596 102.873 114.657 102.742 114.778C102.612 114.89 102.546 115.03 102.546 115.198C102.546 115.394 102.63 115.553 102.798 115.674C102.976 115.795 103.251 115.931 103.624 116.08C103.998 116.229 104.306 116.374 104.548 116.514C104.791 116.654 104.996 116.85 105.164 117.102C105.342 117.345 105.43 117.648 105.43 118.012C105.43 118.385 105.332 118.735 105.136 119.062C104.95 119.379 104.66 119.641 104.268 119.846C103.876 120.042 103.396 120.14 102.826 120.14C102.154 120.14 101.459 120 100.74 119.72L100.95 118.264L101.132 118.152C101.422 118.395 101.744 118.591 102.098 118.74C102.453 118.88 102.766 118.95 103.036 118.95C103.288 118.95 103.484 118.889 103.624 118.768C103.764 118.637 103.834 118.483 103.834 118.306C103.834 118.11 103.746 117.951 103.568 117.83C103.4 117.709 103.13 117.573 102.756 117.424C102.374 117.256 102.061 117.107 101.818 116.976C101.576 116.836 101.366 116.64 101.188 116.388C101.02 116.136 100.936 115.823 100.936 115.45C100.936 114.843 101.165 114.349 101.622 113.966C102.08 113.574 102.7 113.378 103.484 113.378ZM113.832 116.976L110.052 117.004C110.136 118.171 110.729 118.754 111.83 118.754C112.409 118.754 113.053 118.591 113.762 118.264L113.916 118.362L113.636 119.748C112.927 120.009 112.26 120.14 111.634 120.14C110.608 120.14 109.8 119.841 109.212 119.244C108.634 118.647 108.344 117.821 108.344 116.766C108.344 115.721 108.629 114.895 109.198 114.288C109.768 113.672 110.538 113.364 111.508 113.364C112.339 113.364 112.978 113.593 113.426 114.05C113.884 114.498 114.112 115.128 114.112 115.94C114.112 116.155 114.089 116.425 114.042 116.752L113.832 116.976ZM112.488 115.73C112.488 115.357 112.404 115.077 112.236 114.89C112.068 114.694 111.821 114.596 111.494 114.596C111.13 114.596 110.827 114.717 110.584 114.96C110.342 115.193 110.178 115.534 110.094 115.982L112.46 115.926L112.488 115.73ZM50.36 129.364C50.668 129.364 50.9714 129.397 51.27 129.462C51.578 129.518 51.8487 129.602 52.082 129.714L51.774 131.198L51.62 131.268C51.144 131.007 50.7194 130.876 50.346 130.876C49.9167 130.876 49.5854 131.03 49.352 131.338C49.1187 131.646 49.002 132.085 49.002 132.654C49.002 133.307 49.128 133.807 49.38 134.152C49.632 134.497 49.9914 134.67 50.458 134.67C50.878 134.67 51.3447 134.553 51.858 134.32L51.998 134.432L51.816 135.874C51.256 136.051 50.682 136.14 50.094 136.14C49.198 136.14 48.498 135.851 47.994 135.272C47.49 134.684 47.238 133.867 47.238 132.822C47.238 131.739 47.5134 130.895 48.064 130.288C48.6147 129.672 49.38 129.364 50.36 129.364ZM55.498 129.364C56.2167 129.364 56.7767 129.527 57.178 129.854C57.5887 130.171 57.794 130.619 57.794 131.198C57.794 131.366 57.766 131.898 57.71 132.794C57.7007 133.055 57.6867 133.326 57.668 133.606C57.6494 133.877 57.64 134.11 57.64 134.306C57.64 134.465 57.6634 134.577 57.71 134.642C57.7567 134.698 57.8407 134.726 57.962 134.726C58.0554 134.726 58.1767 134.707 58.326 134.67L58.466 134.782L58.298 135.762C57.9994 135.958 57.6587 136.075 57.276 136.112C56.996 136.084 56.7627 135.986 56.576 135.818C56.3894 135.641 56.2634 135.398 56.198 135.09H56.1C55.6334 135.585 55.1527 135.93 54.658 136.126C53.986 136.117 53.4587 135.939 53.076 135.594C52.6934 135.249 52.502 134.777 52.502 134.18C52.502 133.713 52.6187 133.349 52.852 133.088C53.0947 132.817 53.4587 132.635 53.944 132.542L56.086 132.136V131.562C56.086 130.955 55.7874 130.652 55.19 130.652C54.9007 130.652 54.5927 130.717 54.266 130.848C53.9487 130.979 53.5894 131.184 53.188 131.464L53.048 131.38L52.838 130.148C53.2394 129.896 53.6687 129.705 54.126 129.574C54.5834 129.434 55.0407 129.364 55.498 129.364ZM54.588 133.396C54.4387 133.433 54.3267 133.499 54.252 133.592C54.1867 133.676 54.154 133.807 54.154 133.984C54.154 134.227 54.2194 134.418 54.35 134.558C54.4807 134.689 54.6627 134.754 54.896 134.754C55.26 134.754 55.6427 134.539 56.044 134.11L56.072 133.074L54.588 133.396ZM63.1922 129.476C63.2762 129.476 63.3929 129.485 63.5422 129.504V131.226L63.3462 131.296C63.1876 131.231 63.0149 131.198 62.8282 131.198C62.2869 131.198 61.7969 131.548 61.3582 132.248V133.13L61.4562 136H59.5942L59.7062 133.312L59.6222 129.616L61.3862 129.462L61.3722 130.736H61.4842C61.9416 129.896 62.5109 129.476 63.1922 129.476ZM67.8524 129.406C68.6737 129.406 69.299 129.686 69.7284 130.246C70.167 130.797 70.3864 131.567 70.3864 132.556C70.3864 133.704 70.1017 134.591 69.5324 135.216C68.963 135.832 68.1744 136.14 67.1664 136.14C66.6904 136.14 66.1677 136.033 65.5984 135.818L64.6184 136.168L64.3944 135.986L64.4924 133.326L64.4084 126.312L66.2564 126.172L66.2004 130.414H66.2844C66.5457 130.162 66.7977 129.961 67.0404 129.812C67.283 129.653 67.5537 129.518 67.8524 129.406ZM67.1664 134.922C67.633 134.922 67.997 134.754 68.2584 134.418C68.5197 134.082 68.6504 133.569 68.6504 132.878C68.6504 132.234 68.543 131.744 68.3284 131.408C68.123 131.072 67.8104 130.904 67.3904 130.904C67.0077 130.904 66.6064 131.1 66.1864 131.492L66.1584 133.088L66.1864 134.67C66.5317 134.838 66.8584 134.922 67.1664 134.922ZM74.3685 129.364C75.3205 129.364 76.0485 129.644 76.5525 130.204C77.0565 130.764 77.3085 131.571 77.3085 132.626C77.3085 133.765 77.0378 134.637 76.4965 135.244C75.9552 135.841 75.1758 136.14 74.1585 136.14C73.2065 136.14 72.4785 135.86 71.9745 135.3C71.4705 134.74 71.2185 133.933 71.2185 132.878C71.2185 131.739 71.4892 130.871 72.0305 130.274C72.5718 129.667 73.3512 129.364 74.3685 129.364ZM74.2425 130.624C73.7945 130.624 73.4678 130.773 73.2625 131.072C73.0665 131.371 72.9685 131.851 72.9685 132.514C72.9685 133.373 73.0712 133.984 73.2765 134.348C73.4818 134.712 73.8178 134.894 74.2845 134.894C74.7325 134.894 75.0545 134.749 75.2505 134.46C75.4558 134.161 75.5585 133.676 75.5585 133.004C75.5585 132.155 75.4512 131.548 75.2365 131.184C75.0312 130.811 74.6998 130.624 74.2425 130.624ZM78.7105 133.312L78.6405 129.616L80.4745 129.462L80.3905 133.13L80.4745 136H78.6125L78.7105 133.312ZM79.5925 126.298C79.8818 126.298 80.1058 126.382 80.2645 126.55C80.4325 126.718 80.5165 126.951 80.5165 127.25C80.5165 127.567 80.4278 127.819 80.2505 128.006C80.0731 128.193 79.8305 128.286 79.5225 128.286C79.2145 128.286 78.9765 128.202 78.8085 128.034C78.6498 127.866 78.5705 127.628 78.5705 127.32C78.5705 127.012 78.6591 126.765 78.8365 126.578C79.0231 126.391 79.2751 126.298 79.5925 126.298ZM87.6669 133.13L87.7089 134.306C87.7089 134.465 87.7275 134.577 87.7649 134.642C87.8115 134.698 87.8909 134.726 88.0029 134.726C88.1055 134.726 88.2315 134.707 88.3809 134.67L88.5069 134.782L88.3529 135.762C88.0355 135.958 87.6902 136.075 87.3169 136.112C87.0275 136.084 86.7849 135.986 86.5889 135.818C86.3929 135.65 86.2575 135.421 86.1829 135.132H86.0709C85.6135 135.552 85.1469 135.874 84.6709 136.098C83.7562 136.098 83.0469 135.809 82.5429 135.23C82.0389 134.642 81.7869 133.83 81.7869 132.794C81.7869 131.693 82.0762 130.848 82.6549 130.26C83.2335 129.672 84.0362 129.378 85.0629 129.378C85.3335 129.378 85.6322 129.406 85.9589 129.462L85.9309 126.312L87.7789 126.172L87.6669 133.13ZM84.9369 130.638C84.0035 130.638 83.5369 131.231 83.5369 132.416C83.5369 133.153 83.6489 133.709 83.8729 134.082C84.0969 134.455 84.4235 134.642 84.8529 134.642C85.2635 134.642 85.6415 134.451 85.9869 134.068L86.0149 133.298L85.9729 130.89C85.6089 130.722 85.2635 130.638 84.9369 130.638ZM93.202 129.476C93.286 129.476 93.4027 129.485 93.552 129.504V131.226L93.356 131.296C93.1973 131.231 93.0247 131.198 92.838 131.198C92.2967 131.198 91.8067 131.548 91.368 132.248V133.13L91.466 136H89.604L89.716 133.312L89.632 129.616L91.396 129.462L91.382 130.736H91.494C91.9513 129.896 92.5207 129.476 93.202 129.476ZM96.8965 129.364C97.6151 129.364 98.1751 129.527 98.5765 129.854C98.9871 130.171 99.1925 130.619 99.1925 131.198C99.1925 131.366 99.1645 131.898 99.1085 132.794C99.0991 133.055 99.0851 133.326 99.0665 133.606C99.0478 133.877 99.0385 134.11 99.0385 134.306C99.0385 134.465 99.0618 134.577 99.1085 134.642C99.1551 134.698 99.2391 134.726 99.3605 134.726C99.4538 134.726 99.5751 134.707 99.7245 134.67L99.8645 134.782L99.6965 135.762C99.3978 135.958 99.0571 136.075 98.6745 136.112C98.3945 136.084 98.1611 135.986 97.9745 135.818C97.7878 135.641 97.6618 135.398 97.5965 135.09H97.4985C97.0318 135.585 96.5511 135.93 96.0565 136.126C95.3845 136.117 94.8571 135.939 94.4745 135.594C94.0918 135.249 93.9005 134.777 93.9005 134.18C93.9005 133.713 94.0171 133.349 94.2505 133.088C94.4931 132.817 94.8571 132.635 95.3425 132.542L97.4845 132.136V131.562C97.4845 130.955 97.1858 130.652 96.5885 130.652C96.2991 130.652 95.9911 130.717 95.6645 130.848C95.3471 130.979 94.9878 131.184 94.5865 131.464L94.4465 131.38L94.2365 130.148C94.6378 129.896 95.0671 129.705 95.5245 129.574C95.9818 129.434 96.4391 129.364 96.8965 129.364ZM95.9865 133.396C95.8371 133.433 95.7251 133.499 95.6505 133.592C95.5851 133.676 95.5525 133.807 95.5525 133.984C95.5525 134.227 95.6178 134.418 95.7485 134.558C95.8791 134.689 96.0611 134.754 96.2945 134.754C96.6585 134.754 97.0411 134.539 97.4425 134.11L97.4705 133.074L95.9865 133.396ZM103.707 134.628C104.005 134.628 104.318 134.549 104.645 134.39L104.799 134.53L104.617 135.636C104.141 135.879 103.655 136.028 103.161 136.084C101.901 135.953 101.271 135.337 101.271 134.236L101.341 133.074L101.327 130.666H100.459L100.389 130.568L100.487 129.546H101.313V128.468L103.007 127.922L103.133 128.034L103.091 129.546H104.757L104.813 129.644L104.729 130.666H103.063L102.979 133.802C102.979 134.101 103.035 134.315 103.147 134.446C103.259 134.567 103.445 134.628 103.707 134.628ZM108.411 129.364C109.363 129.364 110.091 129.644 110.595 130.204C111.099 130.764 111.351 131.571 111.351 132.626C111.351 133.765 111.081 134.637 110.539 135.244C109.998 135.841 109.219 136.14 108.201 136.14C107.249 136.14 106.521 135.86 106.017 135.3C105.513 134.74 105.261 133.933 105.261 132.878C105.261 131.739 105.532 130.871 106.073 130.274C106.615 129.667 107.394 129.364 108.411 129.364ZM108.285 130.624C107.837 130.624 107.511 130.773 107.305 131.072C107.109 131.371 107.011 131.851 107.011 132.514C107.011 133.373 107.114 133.984 107.319 134.348C107.525 134.712 107.861 134.894 108.327 134.894C108.775 134.894 109.097 134.749 109.293 134.46C109.499 134.161 109.601 133.676 109.601 133.004C109.601 132.155 109.494 131.548 109.279 131.184C109.074 130.811 108.743 130.624 108.285 130.624ZM114.811 129.378C115.446 129.378 116.043 129.485 116.603 129.7L116.351 131.072L116.127 131.142C115.857 130.965 115.586 130.829 115.315 130.736C115.045 130.643 114.807 130.596 114.601 130.596C114.377 130.596 114.2 130.657 114.069 130.778C113.939 130.89 113.873 131.03 113.873 131.198C113.873 131.394 113.957 131.553 114.125 131.674C114.303 131.795 114.578 131.931 114.951 132.08C115.325 132.229 115.633 132.374 115.875 132.514C116.118 132.654 116.323 132.85 116.491 133.102C116.669 133.345 116.757 133.648 116.757 134.012C116.757 134.385 116.659 134.735 116.463 135.062C116.277 135.379 115.987 135.641 115.595 135.846C115.203 136.042 114.723 136.14 114.153 136.14C113.481 136.14 112.786 136 112.067 135.72L112.277 134.264L112.459 134.152C112.749 134.395 113.071 134.591 113.425 134.74C113.78 134.88 114.093 134.95 114.363 134.95C114.615 134.95 114.811 134.889 114.951 134.768C115.091 134.637 115.161 134.483 115.161 134.306C115.161 134.11 115.073 133.951 114.895 133.83C114.727 133.709 114.457 133.573 114.083 133.424C113.701 133.256 113.388 133.107 113.145 132.976C112.903 132.836 112.693 132.64 112.515 132.388C112.347 132.136 112.263 131.823 112.263 131.45C112.263 130.843 112.492 130.349 112.949 129.966C113.407 129.574 114.027 129.378 114.811 129.378ZM118.607 134.11C118.896 134.11 119.12 134.194 119.279 134.362C119.447 134.53 119.531 134.763 119.531 135.062C119.531 135.379 119.442 135.631 119.265 135.818C119.087 136.005 118.845 136.098 118.537 136.098C118.229 136.098 117.991 136.014 117.823 135.846C117.664 135.678 117.585 135.44 117.585 135.132C117.585 134.824 117.673 134.577 117.851 134.39C118.037 134.203 118.289 134.11 118.607 134.11Z" fill="white"/>
<defs>
<filter id="filter0_b_136:22594" x="3" y="67" width="161" height="97" filterUnits="userSpaceOnUse" color-interpolation-filters="sRGB">
<feFlood flood-opacity="0" result="BackgroundImageFix"/>
<feGaussianBlur in="BackgroundImage" stdDeviation="5"/>
<feComposite in2="SourceAlpha" operator="in" result="effect1_backgroundBlur_136:22594"/>
<feBlend mode="normal" in="SourceGraphic" in2="effect1_backgroundBlur_136:22594" result="shape"/>
</filter>
<clipPath id="clip0_136:22594">
<rect width="100.21" height="129.986" fill="white" transform="translate(33.79 8)"/>
</clipPath>
</defs>
</svg>
