<svg width="167" height="167" viewBox="0 0 167 167" fill="none" xmlns="http://www.w3.org/2000/svg">
<mask id="mask0_136:22484" style="mask-type:alpha" maskUnits="userSpaceOnUse" x="0" y="0" width="167" height="167">
<rect x="1" y="1" width="165" height="165" rx="8" fill="#5988D6" stroke="#EDE6FC" stroke-opacity="0.3"/>
</mask>
<g mask="url(#mask0_136:22484)">
<rect x="1" y="1" width="165" height="165" rx="8" fill="#A9D97A" stroke="#EDE6FC" stroke-opacity="0.3"/>
<g clip-path="url(#clip0_136:22484)">
<path d="M62.5982 97.1586C60.285 92.0425 61.2903 85.0143 62.2637 78.2251C62.5982 75.8907 62.9134 73.6864 63.082 71.6247V71.6112C63.0965 71.5553 64.4834 65.9632 65.6343 57.8419C66.6945 50.3472 67.7663 39.1051 66.839 28.1077L67.002 28.0942C67.9311 39.107 66.8583 50.3587 65.7962 57.867C64.6618 65.8668 63.2979 71.4214 63.242 71.644C63.0734 73.7095 62.7601 75.9138 62.4237 78.2482C61.4541 85.0181 60.4508 92.0184 62.7457 97.0911L62.5982 97.1586Z" fill="#184655"/>
<path d="M67.0184 27.9622C66.416 29.513 66.3283 30.7659 66.2473 30.792C67.1639 30.3679 67.5446 30.9173 68.5027 30.5115C67.9995 28.659 67.0184 27.9622 67.0184 27.9622Z" fill="#466EB6"/>
<path d="M77.3159 12.297C77.7814 20.0009 71.585 28.0547 67.1716 28.2966C62.9905 28.5289 55.6393 21.3368 55.1728 13.6319C54.7063 5.92706 59.2865 -0.617361 65.401 -0.987473C71.5156 -1.35758 76.8494 4.59215 77.3159 12.297Z" fill="#466EB6"/>
<g style="mix-blend-mode:screen">
<path d="M63.2179 1.35371C60.1742 0.968174 57.5612 6.33286 59.7828 7.39404C62.1028 8.50534 67.1456 1.8549 63.2179 1.35371Z" fill="#1C1C1C"/>
</g>
<path d="M77.3159 12.297C77.0904 8.5631 75.7208 5.24271 73.6736 2.85144C78.0032 11.3332 73.1917 22.61 68.5007 24.7121C66.2068 25.7395 63.4888 26.2697 60.2195 24.423C62.5414 26.8769 65.2064 28.4074 67.1716 28.2985C71.585 28.0518 77.7815 20.0009 77.3159 12.297Z" fill="#325CAB"/>
<path d="M67.5128 28.5337L66.7947 28.5752C66.776 28.5765 66.7572 28.574 66.7395 28.5679C66.7217 28.5619 66.7053 28.5523 66.6913 28.5398C66.6773 28.5274 66.666 28.5122 66.6579 28.4953C66.6498 28.4783 66.6452 28.4599 66.6444 28.4412C66.6423 28.4035 66.6552 28.3665 66.6803 28.3383C66.7054 28.3101 66.7407 28.293 66.7784 28.2908L67.4964 28.2494C67.5341 28.2473 67.5711 28.2602 67.5993 28.2853C67.6275 28.3104 67.6446 28.3457 67.6468 28.3833C67.6489 28.421 67.636 28.458 67.6109 28.4862C67.5857 28.5144 67.5505 28.5315 67.5128 28.5337Z" fill="#184655"/>
<path d="M121.803 24.9377C121.803 24.9377 120.364 23.8427 118.801 25.1593C117.239 26.4759 117.855 26.4971 117.087 27.1603C116.32 27.8234 115.041 27.2374 114.643 28.5096C114.245 29.7819 114.778 30.1703 114.778 30.1703C114.778 30.1703 113.93 30.9944 114.207 32.2001C114.483 33.4059 115.693 34.7495 116.98 34.9953C116.98 34.9953 118.526 36.601 120.546 36.7012C122.565 36.8015 121.915 36.5991 122.681 36.8381C123.446 37.0771 125.843 36.6743 125.981 35.0377C125.981 35.0377 127.709 33.9331 126.868 32.3274C126.026 30.7216 126.183 29.407 125.988 27.541C125.792 25.675 122.777 24.8066 121.803 24.9377Z" fill="#184655"/>
<path d="M107.548 30.3169C106.555 29.7173 104.185 27.3579 103.382 26.5579C103.37 26.4615 103.276 25.8977 102.628 25.2018C102.17 24.7112 101.795 23.5633 101.52 23.9045C101.244 24.2457 101.993 25.1362 101.666 25.1575C101.339 25.1787 99.6508 23.4139 99.4011 23.7213C99.1515 24.0288 100.858 25.5873 100.566 25.6037C100.274 25.6201 98.8768 24.0288 98.524 24.4635C98.1713 24.8982 100.343 26.182 100.153 26.4153C99.9631 26.6485 98.6166 25.8032 98.3332 26.1531C98.0498 26.503 100.228 27.2201 100.057 27.2297C99.885 27.2393 98.6436 27.2519 98.6436 27.4909C98.6436 27.7617 101.806 28.0644 102.21 28.5164C103.077 29.7954 104.635 32.1327 106.157 33.1274C108.019 34.3437 112.313 36.9114 112.313 36.9114L114.294 34.1433C114.294 34.1433 108.727 31.0282 107.548 30.3169Z" fill="#F7A491"/>
<path d="M101.687 25.7299C101.618 25.8912 101.581 26.065 101.58 26.2408C101.574 26.4308 101.611 26.6199 101.688 26.7935C101.766 26.9672 101.882 27.1209 102.028 27.2431C101.827 26.9029 101.607 26.5232 101.687 25.7299Z" fill="#F48C7F"/>
<path d="M107.543 56.3885C107.857 57.545 108.418 59.3763 108.418 59.3763C108.391 59.8843 108.296 61.9989 108.186 64.5907L111.945 62.9695C111.945 62.9695 111.759 58.8684 111.921 58.6062C112.059 58.3845 112.337 58.5368 113.459 56.8386C113.783 56.348 113.823 55.4892 113.823 55.4892C113.823 55.4892 113.865 54.429 113.625 54.3326C113.512 54.2978 113.39 54.3047 113.282 54.3519C113.174 54.3991 113.086 54.4836 113.035 54.5899C112.953 54.776 112.986 55.201 112.905 55.3861C112.825 55.5711 112.28 55.8063 112.048 55.8015C111.815 55.7967 111.995 52.6681 111.995 52.6681C111.995 52.6681 112.101 51.7804 112.159 51.4893C112.208 51.2406 112.414 50.511 112.414 50.511C112.414 50.511 112.65 49.4508 112.318 49.3824C112.125 49.3399 111.657 50.2064 111.345 51.1173C111.009 52.1023 110.831 53.1413 110.727 53.1307C110.483 53.1047 110.567 51.39 110.567 51.39C110.567 51.39 110.789 50.5997 110.774 50.2334C110.989 49.7737 111.12 48.9294 110.715 48.8706C110.64 48.86 110.136 49.9414 110.136 49.9414C110.136 49.9414 109.944 50.699 109.836 51.0536C109.637 51.6782 109.63 52.6584 109.53 53.0931C109.446 53.4546 109.359 53.309 109.321 53.3244C109.283 53.3398 109.331 52.8425 109.372 52.1582C109.392 51.8151 109.343 51.4209 109.429 51.0276C109.502 50.6326 109.546 50.2329 109.56 49.8315C109.602 48.9448 109.047 49.0498 108.876 49.8643C108.81 50.1746 108.743 50.5129 108.674 50.8561C108.41 52.19 108.452 53.468 108.309 53.4825C108.124 53.5008 108.185 51.1693 108.185 51.1693C108.185 51.1693 107.867 49.8884 107.614 51.0912C107.433 51.9371 107.359 52.8023 107.392 53.6666C107.441 54.0088 107.228 55.2261 107.543 56.3885Z" fill="#F8A492"/>
<path d="M107.923 61.4775C107.923 61.4775 112.181 60.3402 112.232 60.6833C113.329 68.2012 113.805 70.9115 113.959 70.9857C114.485 71.2392 121.204 64.7651 122.419 64.3063C122.998 64.0866 123.642 64.1039 124.251 64.1058C125.712 64.1058 126 64.1058 126 64.1058H126.054L126.082 65.4793C124.476 67.0022 122.901 96.4183 122.581 96.4077C122.227 96.4009 115.551 96.3653 115.869 95.8082C115.869 95.8082 117.483 86.7482 118.752 80.7792C119.178 78.7744 120.368 74.5846 120.368 74.5846C118.737 75.4569 112.361 78.8043 111.327 78.412C108.111 77.1937 107.923 61.4775 107.923 61.4775Z" fill="#F47458"/>
<path d="M117.09 142.727C117.09 142.727 117.303 146.542 117.303 146.551C117.382 147.033 117.689 148.232 117.689 148.672C117.689 150.326 110.46 147.267 112.081 146.534C112.228 146.467 112.996 145.965 113.045 145.402C113.119 144.535 113.308 142.78 113.308 142.78L117.09 142.727Z" fill="#F7A491"/>
<path d="M112.099 146.519C112.099 146.519 113.795 147.025 114.664 147.152C115.534 147.278 116.68 146.213 117.294 146.501C117.968 146.817 118.215 149.701 117.902 149.937C117.589 150.173 107.782 150.214 106.289 149.945C105.239 149.756 108.63 147.698 112.099 146.519Z" fill="#184655"/>
<path d="M133.014 143.093C133.014 143.093 133.226 146.909 133.227 146.916C133.305 147.398 133.612 148.598 133.612 149.037C133.612 150.692 126.384 147.632 128.004 146.899C128.15 146.833 129.147 145.956 129.195 145.393C129.269 144.525 129.23 143.145 129.23 143.145L133.014 143.093Z" fill="#F7A491"/>
<path d="M128.022 146.885C128.022 146.885 129.718 147.392 130.588 147.518C131.457 147.644 132.603 146.579 133.217 146.866C133.892 147.183 133.922 150.035 133.922 150.035C133.922 150.035 124.307 150.435 121.943 150.016C121.122 149.871 124.553 148.064 128.022 146.885Z" fill="#184655"/>
<path d="M121.561 88.0021L118.504 89.3515L112.077 120.618L112.338 144.059L117.49 144.18C117.49 144.18 119.886 123.676 119.886 122.088C119.886 120.5 130.988 94.2767 130.988 94.2767L121.561 88.0021Z" fill="#50BFA5"/>
<path d="M123.919 89.7255C123.919 89.7255 126.17 113.815 126.17 117.877C126.17 121.939 127.995 144.665 127.995 144.665L133.16 144.634C133.16 144.634 133.532 137.707 134.087 127.515C134.173 125.919 133.975 122.696 134.087 121.046C134.889 109.162 136.479 97.9739 135.72 93.5384C135.598 92.8251 135.368 90.9582 134.921 90.4869C131.539 86.9226 123.919 89.7255 123.919 89.7255Z" fill="#3C8F7C"/>
<path d="M120.535 79.3633C121.268 75.7605 123.137 69.8483 123.689 68.5077C124.947 65.4301 126.008 64.1241 126.008 64.1241L130.994 64.2716C130.994 64.2716 131.108 64.3034 131.144 64.3092C131.551 64.3738 131.563 78.891 131.343 84.3193C131.124 89.7476 129.919 96.8106 129.919 96.8106L128.497 96.6756C128.473 97.4081 128.457 97.8901 128.457 97.8901C121.244 99.1623 117.218 95.6067 117.218 95.6067C117.218 95.6067 119.586 84.035 120.535 79.3633Z" fill="#466EB6"/>
<path d="M130.736 59.8805L130.994 64.2717C130.994 64.2717 127.916 69.9091 126.242 69.1785C124.837 68.5655 125.958 64.3093 125.958 64.3093C125.958 64.3093 126.173 63.3348 126.477 62.2139C126.689 61.4303 126.863 60.5831 126.831 59.9653C126.757 58.4636 130.736 59.8805 130.736 59.8805Z" fill="#F7A491"/>
<path d="M126.831 59.9653C126.757 58.4636 130.736 59.8804 130.736 59.8804L130.761 60.3094C130.646 60.5004 130.502 60.6729 130.335 60.8211C129.298 61.7088 127.776 62.1358 126.526 62.0259C126.715 61.2973 126.859 60.533 126.831 59.9653Z" fill="#F47458"/>
<path d="M126.624 49.9559C126.624 49.9559 125.047 52.4744 124.978 54.5611C124.91 56.6478 125.389 58.0578 125.389 58.0578L130.497 51.6204L126.624 49.9559Z" fill="#184655"/>
<path d="M124.421 54.1495C124.366 54.881 124.666 55.4988 125.096 55.5316C125.526 55.5644 125.91 54.9967 125.963 54.2651C126.016 53.5336 125.719 52.9158 125.293 52.883C124.868 52.8502 124.477 53.4179 124.421 54.1495Z" fill="#F48C7F"/>
<path d="M132.225 52.5852C132.345 52.5563 132.492 58.6207 130.772 60.0934C129.051 61.5662 125.996 61.7724 125.065 60.3585C124.035 58.7942 124.808 52.3799 127.386 50.9544C129.964 49.5289 132.225 52.5852 132.225 52.5852Z" fill="#F7A491"/>
<path d="M132.572 48.8127C133.945 49.9539 134.618 50.7963 135.581 52.8608C136.764 55.4034 134.617 58.1262 132.785 59.2337C130.954 60.3411 130.835 61.6259 130.835 61.6259L130.738 60.8385C130.695 60.598 130.697 60.3515 130.744 60.1117C130.804 59.888 130.887 59.6709 130.991 59.464C131.14 59.1219 131.617 57.9508 131.808 57.6405C132.309 56.8203 132.408 56.6429 132.129 55.8844C131.915 55.2993 132.112 53.9933 131.778 53.0295L129.265 52.5563C129.265 52.5563 127.691 52.2209 126.876 51.3303C124.542 48.7742 128.95 45.741 132.572 48.8127Z" fill="#184655"/>
<path d="M131.556 56.5668C131.266 57.2415 131.346 57.9239 131.738 58.0925C132.129 58.2612 132.682 57.8525 132.972 57.1788C133.263 56.5051 133.182 55.8227 132.79 55.654C132.399 55.4854 131.846 55.894 131.556 56.5668Z" fill="#F7A491"/>
<path d="M138.359 38.3976C138.814 39.5099 139.483 41.3055 139.483 41.3055C140.102 42.2375 141.608 44.357 142.52 45.7632L138.727 46.3261C138.727 46.3261 136.43 42.864 136.142 42.7551C135.897 42.6587 135.862 43.024 133.938 42.358C133.383 42.1652 132.827 41.506 132.827 41.506C132.827 41.506 132.757 41.3942 132.892 41.1744C133.026 40.9547 132.732 40.2183 132.909 40.3156C133.085 40.413 133.319 40.7715 133.496 40.8689C133.673 40.9662 133.445 39.666 133.625 39.5195C133.805 39.373 133.099 38.0526 134.945 36.6068C135.092 36.4921 135.693 35.4859 136.886 36.4883C137.534 36.9862 138.042 37.6442 138.359 38.3976Z" fill="#F8A492"/>
<path d="M130.994 64.2717C130.994 64.2717 135.923 63.9122 137.181 63.3079C137.944 62.9387 142.831 58.7779 142.831 58.7779L137.276 45.2659L141.806 43.8201C141.806 43.8201 150.886 58.5889 150.129 60.265C149.346 61.9999 140.248 69.2778 138.472 72.3804C137.448 74.1674 138.419 98.4347 138.087 98.6593C135.716 99.972 125.758 101.134 125.913 100.372C130.189 79.2834 130.994 64.2717 130.994 64.2717Z" fill="#F47458"/>
<path d="M115.886 34.282L111.417 32.1905L109.985 36.5133L114.33 38.9122L115.886 34.282Z" fill="#E3B25B"/>
<path d="M132.287 40.9161C132.287 40.9161 132.309 40.3311 132.955 39.5465C133.369 39.0443 133.882 38.3533 134.15 38.6627C134.418 38.9721 133.549 39.4434 133.856 39.4405C134.164 39.4376 136 38.0641 136.243 38.3446C136.486 38.6251 134.835 39.694 134.99 39.7672C135.145 39.8405 136.448 38.3754 136.701 38.7176C136.955 39.0598 135.159 40.3609 135.204 40.4525C135.272 40.6029 136.595 39.585 136.872 39.905C137.149 40.225 135.207 41.1243 135.368 41.1224C135.528 41.1204 136.578 40.9739 136.585 41.2043C136.594 41.4645 134.31 42.0313 133.945 42.4929C133.58 42.9546 128.586 47.2976 127.449 47.075C126.311 46.8523 121.523 42.784 121.377 41.5879C121.23 40.3918 121.923 38.9855 122.698 38.9749C123.473 38.9643 127.925 43.2466 128.168 43.2447C128.411 43.2428 132.287 40.9161 132.287 40.9161Z" fill="#F48C7F"/>
<path d="M108.093 61.9141C108.422 62.4529 109.718 63.275 109.718 63.275C108.967 64.8548 106.318 68.3689 106.318 68.3689C106.318 68.3689 105.842 67.9246 105.949 67.433C106.055 66.9415 106.527 64.6832 105.986 63.7994C105.845 63.569 104.291 60.985 103.114 58.6506C103.934 58.1532 105.89 58.6024 106.633 58.0087C107.35 59.2347 107.981 61.7358 108.093 61.9141Z" fill="#F7A491"/>
<path d="M108.656 62.5001C108.656 62.5001 106.705 65.4658 106.317 65.7983C106 66.0692 105.425 69.3481 105.919 69.3992C106.412 69.4503 110.526 64.6437 110.578 64.0153C110.63 63.3868 108.656 62.5001 108.656 62.5001Z" fill="#184655"/>
<path d="M103.231 66.5155C103.258 67.1285 104.013 68.4672 104.013 68.4672C102.545 69.3944 98.3988 70.9606 98.3988 70.9606C98.3988 70.9606 98.1945 70.3505 98.5357 69.9968C98.8769 69.6431 100.752 67.3684 100.713 66.3622C100.701 66.1 100.627 64.1454 100.353 62.9763C101.34 62.9763 102.358 62.8298 103.324 62.7141C103.355 64.0991 103.223 66.3159 103.231 66.5155Z" fill="#F7A491"/>
<path d="M109.467 47.8518C109.467 47.8518 101.398 52.0156 100.403 52.9939C99.6585 53.7254 99.6874 63.6403 99.6874 63.6403C99.6874 63.6403 102.428 64.2726 103.884 63.5439C103.884 63.5439 104.433 56.8048 104.816 56.613C105.199 56.4212 113.523 54.5331 113.523 54.5331L113.812 50.5274L109.467 47.8518Z" fill="#B75742"/>
<path d="M117.38 45.9945C117.38 45.9945 113.911 48.4773 112.421 48.8022C111.277 49.0518 102.011 50.5419 101.654 53.1481C101.451 54.6266 103.596 60.9137 103.596 60.9137L107.614 59.4265C107.614 59.4265 106.489 56.455 106.691 56.1292C106.892 55.8034 114.392 57.0265 116.636 55.9365C118.881 54.8464 119.295 49.8036 119.295 49.8036L117.38 45.9945Z" fill="#F47458"/>
<path d="M118.52 35.6536C118.52 35.6536 116.541 34.7861 115.886 34.282C115.23 33.7779 110.186 46.0755 107.614 48.5043C111.22 51.3496 118.557 54.5996 118.557 54.5996C118.557 54.5996 119.952 51.9684 120.292 49.0335C120.656 45.9261 120.913 44.1083 121.245 43.0481L123.943 45.4577L126.68 41.2274C126.68 41.2274 123.195 37.7576 121.79 36.9808C121.396 36.7639 118.52 35.6536 118.52 35.6536Z" fill="#F7CC7F"/>
<path d="M103.417 67.2181C103.417 67.2181 99.9815 68.8219 99.4234 68.9067C98.9695 68.9752 97.1565 71.5765 97.6085 71.8946C98.0606 72.2127 104.139 70.1828 104.53 69.6489C104.92 69.1149 103.417 67.2181 103.417 67.2181Z" fill="#184655"/>
<path d="M117.986 33.3529C117.986 33.3529 117.349 35.6323 117.071 35.7779C116.794 35.9234 116.387 36.1827 116.53 36.8188C116.674 37.455 118.135 37.534 118.862 37.4222C119.316 37.3391 119.747 37.1564 120.123 36.8873L120.924 33.2122L117.986 33.3529Z" fill="#F7A491"/>
<path d="M118.594 34.5683C119.412 34.5706 120.201 34.2706 120.811 33.7259L120.924 33.2112L117.986 33.3529C117.986 33.3529 117.831 33.909 117.64 34.4892C117.952 34.5637 118.274 34.5904 118.594 34.5683Z" fill="#F47458"/>
<path d="M122.185 30.8036C122.185 30.8036 122.667 29.4956 123.398 30.0084C124.128 30.5211 122.886 32.3293 122.231 32.0527C121.575 31.7761 122.185 30.8036 122.185 30.8036Z" fill="#F7A491"/>
<path d="M120.977 25.6673C120.977 25.6673 119.709 25.2413 118.747 26.0297C117.785 26.8181 116.192 29.432 116.659 31.724C117.125 34.016 118.65 33.964 119.279 33.9408C119.909 33.9177 121.166 33.829 122.303 32.178C123.44 30.5269 124.313 26.289 120.977 25.6673Z" fill="#F7A491"/>
<path d="M119.374 31.7789L117.766 31.1843C117.766 31.1843 117.573 31.8088 118.277 32.0903C119.13 32.4344 119.374 31.7789 119.374 31.7789Z" fill="white"/>
<path d="M136.279 42.5806C135.315 42.9536 133.733 42.3628 133.032 41.9773C132.966 41.7036 133.914 41.4954 134.549 41.6158C135.184 41.7363 136.029 40.9932 137.116 41.5532C137.753 42.2057 136.279 42.5806 136.279 42.5806Z" fill="#F8A492"/>
<path d="M135.372 38.04C136.908 39.1619 135.809 39.159 134.422 38.8111C135.193 39.1735 135.161 39.4144 134.969 39.5821C134.738 39.7807 133.145 39.5658 132.901 39.2352C132.675 38.9287 133.479 37.8935 133.797 37.6362C133.983 37.4723 134.2 37.293 134.409 37.0714C134.995 36.4497 135.121 36.3591 135.344 36.2039C135.769 35.9061 136.135 36.1683 136.694 36.5094C137.389 37.0569 137.144 37.5224 136.098 37.1841C136.201 37.2603 137.003 37.7104 136.836 38.1374C136.716 38.4313 136.272 38.308 135.372 38.04Z" fill="#F7A491"/>
<path d="M114.381 54.2757C113.842 54.4598 113.38 55.6251 113.321 55.5605C113.321 55.5605 111.055 56.5244 109.658 57.9479C109.608 58.0752 109.527 58.4135 109.443 58.5609L111.467 59.0361C112.558 58.2458 113.684 56.8858 113.827 56.5754C113.915 56.3827 114.171 55.8612 114.309 55.5836C114.447 55.3061 114.737 54.696 114.848 54.5793C115.01 54.4058 114.851 54.1157 114.381 54.2757Z" fill="#F7A491"/>
<path d="M37.9579 53.0893C38.1304 56.2362 42.6344 57.1981 45.7148 56.3528C47.7167 55.8024 48.5687 55.3234 48.2593 53.1394C47.7581 49.5983 45.735 47.9578 43.5172 47.6966C40.6547 47.3593 37.8143 50.4927 37.9579 53.0893Z" fill="#184655"/>
<path d="M43.3245 99.6953L45.7572 121.368C45.7572 121.368 44.5678 125.951 44.7114 127.253C44.855 128.555 47.3562 145.639 47.3562 145.639L47.2501 146.597V149.427H56.5338C56.5338 149.427 54.5637 148.547 51.811 146.808C51.6067 146.679 51.1363 146.27 51.0236 145.452C50.2872 140.188 51.7435 122.628 51.7435 122.628L52.8905 99.7695L43.3245 99.6953Z" fill="#F7A491"/>
<path d="M35.8625 104.254C35.3391 104.386 34.5314 123.021 34.0977 123.847C31.344 129.084 30.6896 145.002 30.6896 145.002L29.8684 147.315C30.812 148.113 31.8741 148.109 33.0645 147.24L32.918 144.734L39.8633 124.9L43.6637 104.676L35.8625 104.254Z" fill="#F7A491"/>
<path d="M49.6761 68.1569C48.5561 66.6311 43.9336 62.21 43.4198 62.2187C41.923 62.2447 37.0084 62.2466 36.0485 62.7334L36.0947 71.1496C36.2509 71.8561 39.6436 82.8601 39.446 85.2688L39.4701 85.2919C42.3134 88.0282 46.7952 87.8133 49.3975 84.8157C49.3975 84.8157 49.3869 81.478 49.7831 78.4323C50.4134 73.6623 52.4645 71.9486 49.6761 68.1569Z" fill="#F7CC7F"/>
<path d="M53.7512 113.793L54.0818 100.936C54.1395 97.3039 53.3968 93.7039 51.9064 90.3915L49.4004 84.8157C48.3855 85.1376 47.4284 85.4113 46.3615 85.5308C44.0406 85.7911 41.7582 85.5308 39.4498 85.2687C39.4447 85.3452 39.4341 85.4212 39.418 85.4961C38.9997 87.3901 36.6672 91.6107 35.6841 97.3812C34.569 103.935 34.2769 113.011 34.4167 113.78C40.8734 115.286 47.4949 115.336 53.7512 113.793Z" fill="#E25A44"/>
<path d="M41.9135 57.4805C41.9135 57.4805 42.0426 60.586 41.7631 61.7638C41.4836 62.9416 41.1096 63.0293 43.5125 63.3878C44.4561 63.5285 45.3659 63.7387 45.3659 63.7387C45.3659 63.7387 45.1192 62.0095 45.0825 61.2799C45.0209 60.078 45.3601 56.3644 45.3601 56.3644L41.9135 57.4805Z" fill="#F7A491"/>
<path d="M43.7428 59.0264C44.1723 59.2669 44.6398 59.4321 45.125 59.5151C45.2059 58.0482 45.3601 56.3663 45.3601 56.3663L42.0715 57.4265C42.4725 58.1021 43.0504 58.6553 43.7428 59.0264Z" fill="#F47458"/>
<path d="M33.0635 147.232C31.7951 147.795 30.4303 147.456 29.8829 147.276L29.6998 147.765L29.001 150.089C29.001 150.089 31.7835 150.778 33.2254 149.984L33.0635 147.232Z" fill="#E25A44"/>
<path d="M47.1518 150.126H56.8017C57.1593 150.093 57.246 149.803 57.1217 149.624C56.8673 149.255 55.7405 148.965 54.475 148.378C52.2582 148.611 47.5971 147.101 47.2463 146.589C47.0468 147.616 46.9533 150.082 47.1518 150.126Z" fill="#E25A44"/>
<path d="M49.0651 72.1731C49.0651 72.1731 50.6978 75.4164 50.9581 75.7509C50.9581 75.7509 58.1087 74.1673 61.1246 73.2237C61.1602 73.2073 61.1959 73.1919 61.2306 73.1746C61.2894 73.1456 61.3694 73.135 61.3838 73.0531C61.4494 72.6888 61.7838 71.4647 61.9486 70.9433C61.9939 70.8001 62.0699 70.6685 62.1713 70.5578C62.3958 70.311 63.3973 68.6735 63.3973 68.6735C63.3973 68.6735 63.7404 68.8026 63.7404 69.3395C63.7404 69.8763 62.9847 70.898 63.192 70.9047C63.4037 70.9001 63.613 70.859 63.8107 70.7833C64.0926 70.7035 64.3878 70.6822 64.6782 70.7206C64.9567 70.7515 65.1341 70.9549 65.1601 71.2565C65.1746 71.4406 65.1389 71.6421 65.2073 71.8069C65.324 72.0854 65.4965 74.6434 65.0579 74.8911C64.8391 75.0164 63.6623 75.2333 63.191 75.241C62.862 75.2473 62.538 75.3235 62.2407 75.4646C62.1782 75.4935 62.1138 75.518 62.0479 75.5379C59.8947 76.4053 52.7074 79.4645 52.7074 79.4645C52.7074 79.4645 49.1836 80.7175 48.669 80.2722C48.1543 79.8269 45.0748 73.7779 45.0748 73.7779L49.0651 72.1731Z" fill="#F7A491"/>
<path d="M41.3149 66.3275C40.619 69.1805 44.3269 75.5389 44.3269 75.5389C44.3269 75.5389 49.6087 73.056 50.5368 71.9852C50.5368 71.9852 46.9485 65.8167 46.7133 65.4398C45.6531 63.7406 44.2073 63.7387 43.2609 63.8495C42.5043 63.9382 41.3149 66.3275 41.3149 66.3275Z" fill="#EDA258"/>
<path d="M42.5708 67.8137C44.7538 65.2895 45.0121 60.3758 42.9794 57.761C43.8999 56.135 44.6613 56.2931 44.1495 54.5071C43.1394 50.9843 47.1143 48.0986 43.229 47.6774C39.3323 47.4615 37.2475 50.2354 35.8442 52.7857C35.219 53.9494 34.3524 54.9661 33.3025 55.7678C31.1927 57.3446 30.411 60.5175 32.0765 63.4717C30.3898 64.7574 29.213 67.9487 30.7763 70.2349C31.1522 70.7843 31.8366 71.3915 31.8809 71.5582C31.8163 71.3548 30.9277 77.079 37.4393 78.0554C44.0792 79.053 44.5254 72.7736 42.5708 67.8137Z" fill="#184655"/>
<path d="M41.975 50.0272C41.975 50.0272 40.7674 50.884 40.4599 52.4531C40.1524 54.0222 41.816 58.2448 45.2289 58.772C48.6419 59.2992 49.0313 55.6424 48.0915 53.3148C47.1518 50.9871 45.3427 48.1149 41.975 50.0272Z" fill="#F7A491"/>
<path d="M40.3752 55.3282C39.5887 53.0786 39.5164 51.2994 41.0499 50.2199C42.5833 49.1404 43.87 48.0995 45.5635 49.4074L45.924 49.5472C45.924 49.5472 43.2474 50.7124 43.3023 52.2093C43.3573 53.7061 42.1265 55.6713 42.458 56.3624C42.7896 57.0535 43.258 58.4616 43.258 58.4616L42.5766 58.0491C42.5766 58.0491 41.1617 57.5768 40.3752 55.3282Z" fill="#184655"/>
<path d="M42.9091 54.3529C43.3187 54.9042 43.338 55.575 42.9524 55.8526C42.5669 56.1302 41.9221 55.9085 41.5125 55.3572C41.1029 54.8059 41.0836 54.135 41.4691 53.8584C41.8546 53.5818 42.4994 53.8025 42.9091 54.3529Z" fill="#F7A491"/>
</g>
</g>
<g filter="url(#filter0_b_136:22484)">
<rect x="13" y="77" width="141" height="77" rx="10" fill="black" fill-opacity="0.8"/>
</g>
<path d="M66.5471 104H64.6151L64.3911 102.824L64.1531 101.984L62.3891 101.942L60.8351 101.984L60.5971 102.726L60.3591 104H58.4831L61.5351 94.984H63.7891L66.5471 104ZM63.7471 100.514L62.6831 96.762H62.5571L61.3251 100.514L62.5291 100.542L63.7471 100.514ZM69.8456 97.49L69.7336 101.13L69.8176 103.622C69.8176 104.359 69.6403 104.971 69.2856 105.456C68.931 105.941 68.3476 106.366 67.5356 106.73L66.8916 105.904V105.736C67.3116 105.503 67.6103 105.227 67.7876 104.91C67.965 104.593 68.0536 104.182 68.0536 103.678L68.0816 101.312L68.0256 98.666H66.8916L66.7796 98.554L66.8776 97.546H68.0536L69.7896 97.448L69.8456 97.49ZM68.7676 94.298C69.057 94.298 69.281 94.382 69.4396 94.55C69.6076 94.718 69.6916 94.9513 69.6916 95.25C69.6916 95.5673 69.603 95.8193 69.4256 96.006C69.2483 96.1927 69.0056 96.286 68.6976 96.286C68.3896 96.286 68.1516 96.202 67.9836 96.034C67.825 95.866 67.7456 95.628 67.7456 95.32C67.7456 95.012 67.8343 94.7647 68.0116 94.578C68.1983 94.3913 68.4503 94.298 68.7676 94.298ZM77.8278 102.782L77.6598 103.762C77.3145 103.986 76.9598 104.103 76.5958 104.112C76.3251 104.065 76.1011 103.958 75.9238 103.79C75.7465 103.622 75.6111 103.379 75.5178 103.062H75.3918C74.8598 103.585 74.3091 103.925 73.7398 104.084C73.0305 104.084 72.4891 103.925 72.1158 103.608C71.7518 103.281 71.5745 102.815 71.5838 102.208L71.6118 100.556L71.5418 97.616L73.3478 97.462L73.3058 101.592C73.2965 101.919 73.3618 102.166 73.5018 102.334C73.6418 102.502 73.8518 102.586 74.1318 102.586C74.5425 102.586 74.9485 102.404 75.3498 102.04V97.616L77.1278 97.462L77.0018 102.306C77.0018 102.455 77.0251 102.563 77.0718 102.628C77.1278 102.693 77.2118 102.726 77.3238 102.726C77.4265 102.726 77.5525 102.707 77.7018 102.67L77.8278 102.782ZM84.3583 101.13L84.4003 102.306C84.4003 102.465 84.4189 102.577 84.4563 102.642C84.5029 102.698 84.5823 102.726 84.6943 102.726C84.7969 102.726 84.9229 102.707 85.0723 102.67L85.1983 102.782L85.0443 103.762C84.7269 103.958 84.3816 104.075 84.0083 104.112C83.7189 104.084 83.4763 103.986 83.2803 103.818C83.0843 103.65 82.9489 103.421 82.8743 103.132H82.7623C82.3049 103.552 81.8383 103.874 81.3623 104.098C80.4476 104.098 79.7383 103.809 79.2343 103.23C78.7303 102.642 78.4783 101.83 78.4783 100.794C78.4783 99.6927 78.7676 98.848 79.3463 98.26C79.9249 97.672 80.7276 97.378 81.7543 97.378C82.0249 97.378 82.3236 97.406 82.6503 97.462L82.6223 94.312L84.4703 94.172L84.3583 101.13ZM81.6283 98.638C80.6949 98.638 80.2283 99.2307 80.2283 100.416C80.2283 101.153 80.3403 101.709 80.5643 102.082C80.7883 102.455 81.1149 102.642 81.5443 102.642C81.9549 102.642 82.3329 102.451 82.6783 102.068L82.7063 101.298L82.6643 98.89C82.3003 98.722 81.9549 98.638 81.6283 98.638ZM88.8574 97.364C89.5761 97.364 90.1361 97.5273 90.5374 97.854C90.9481 98.1713 91.1534 98.6193 91.1534 99.198C91.1534 99.366 91.1254 99.898 91.0694 100.794C91.0601 101.055 91.0461 101.326 91.0274 101.606C91.0087 101.877 90.9994 102.11 90.9994 102.306C90.9994 102.465 91.0227 102.577 91.0694 102.642C91.1161 102.698 91.2001 102.726 91.3214 102.726C91.4147 102.726 91.5361 102.707 91.6854 102.67L91.8254 102.782L91.6574 103.762C91.3587 103.958 91.0181 104.075 90.6354 104.112C90.3554 104.084 90.1221 103.986 89.9354 103.818C89.7487 103.641 89.6227 103.398 89.5574 103.09H89.4594C88.9927 103.585 88.5121 103.93 88.0174 104.126C87.3454 104.117 86.8181 103.939 86.4354 103.594C86.0527 103.249 85.8614 102.777 85.8614 102.18C85.8614 101.713 85.9781 101.349 86.2114 101.088C86.4541 100.817 86.8181 100.635 87.3034 100.542L89.4454 100.136V99.562C89.4454 98.9553 89.1467 98.652 88.5494 98.652C88.2601 98.652 87.9521 98.7173 87.6254 98.848C87.3081 98.9787 86.9487 99.184 86.5474 99.464L86.4074 99.38L86.1974 98.148C86.5987 97.896 87.0281 97.7047 87.4854 97.574C87.9427 97.434 88.4001 97.364 88.8574 97.364ZM87.9474 101.396C87.7981 101.433 87.6861 101.499 87.6114 101.592C87.5461 101.676 87.5134 101.807 87.5134 101.984C87.5134 102.227 87.5787 102.418 87.7094 102.558C87.8401 102.689 88.0221 102.754 88.2554 102.754C88.6194 102.754 89.0021 102.539 89.4034 102.11L89.4314 101.074L87.9474 101.396ZM99.1588 99.94C99.1681 99.6133 99.0934 99.3613 98.9348 99.184C98.7854 98.9973 98.5661 98.904 98.2768 98.904C97.8568 98.904 97.4088 99.1047 96.9328 99.506V101.13L97.0168 104H95.1548L95.2528 101.312L95.1828 97.616L96.9468 97.462V98.414H97.0448C97.5581 97.9473 98.1181 97.6113 98.7248 97.406C99.4341 97.406 99.9754 97.5693 100.349 97.896C100.722 98.2133 100.899 98.6753 100.881 99.282L100.839 101.144L100.923 104H99.0468L99.1588 99.94ZM105.267 97.364C106.219 97.364 106.947 97.644 107.451 98.204C107.955 98.764 108.207 99.5713 108.207 100.626C108.207 101.765 107.936 102.637 107.395 103.244C106.854 103.841 106.074 104.14 105.057 104.14C104.105 104.14 103.377 103.86 102.873 103.3C102.369 102.74 102.117 101.933 102.117 100.878C102.117 99.7393 102.388 98.8713 102.929 98.274C103.47 97.6673 104.25 97.364 105.267 97.364ZM105.141 98.624C104.693 98.624 104.366 98.7733 104.161 99.072C103.965 99.3707 103.867 99.8513 103.867 100.514C103.867 101.373 103.97 101.984 104.175 102.348C104.38 102.712 104.716 102.894 105.183 102.894C105.631 102.894 105.953 102.749 106.149 102.46C106.354 102.161 106.457 101.676 106.457 101.004C106.457 100.155 106.35 99.548 106.135 99.184C105.93 98.8107 105.598 98.624 105.141 98.624ZM41.5038 117.13L41.5458 118.306C41.5458 118.465 41.5644 118.577 41.6018 118.642C41.6484 118.698 41.7278 118.726 41.8398 118.726C41.9424 118.726 42.0684 118.707 42.2178 118.67L42.3438 118.782L42.1898 119.762C41.8724 119.958 41.5271 120.075 41.1538 120.112C40.8644 120.084 40.6218 119.986 40.4258 119.818C40.2298 119.65 40.0944 119.421 40.0198 119.132H39.9078C39.4504 119.552 38.9838 119.874 38.5078 120.098C37.5931 120.098 36.8838 119.809 36.3798 119.23C35.8758 118.642 35.6238 117.83 35.6238 116.794C35.6238 115.693 35.9131 114.848 36.4918 114.26C37.0704 113.672 37.8731 113.378 38.8998 113.378C39.1704 113.378 39.4691 113.406 39.7958 113.462L39.7678 110.312L41.6158 110.172L41.5038 117.13ZM38.7738 114.638C37.8404 114.638 37.3738 115.231 37.3738 116.416C37.3738 117.153 37.4858 117.709 37.7098 118.082C37.9338 118.455 38.2604 118.642 38.6898 118.642C39.1004 118.642 39.4784 118.451 39.8238 118.068L39.8518 117.298L39.8098 114.89C39.4458 114.722 39.1004 114.638 38.7738 114.638ZM48.4809 116.976L44.7009 117.004C44.7849 118.171 45.3776 118.754 46.4789 118.754C47.0576 118.754 47.7016 118.591 48.4109 118.264L48.5649 118.362L48.2849 119.748C47.5756 120.009 46.9082 120.14 46.2829 120.14C45.2562 120.14 44.4489 119.841 43.8609 119.244C43.2822 118.647 42.9929 117.821 42.9929 116.766C42.9929 115.721 43.2776 114.895 43.8469 114.288C44.4162 113.672 45.1862 113.364 46.1569 113.364C46.9876 113.364 47.6269 113.593 48.0749 114.05C48.5322 114.498 48.7609 115.128 48.7609 115.94C48.7609 116.155 48.7376 116.425 48.6909 116.752L48.4809 116.976ZM47.1369 115.73C47.1369 115.357 47.0529 115.077 46.8849 114.89C46.7169 114.694 46.4696 114.596 46.1429 114.596C45.7789 114.596 45.4756 114.717 45.2329 114.96C44.9902 115.193 44.8269 115.534 44.7429 115.982L47.1089 115.926L47.1369 115.73ZM52.2284 113.378C52.8631 113.378 53.4604 113.485 54.0204 113.7L53.7684 115.072L53.5444 115.142C53.2738 114.965 53.0031 114.829 52.7324 114.736C52.4618 114.643 52.2238 114.596 52.0184 114.596C51.7944 114.596 51.6171 114.657 51.4864 114.778C51.3558 114.89 51.2904 115.03 51.2904 115.198C51.2904 115.394 51.3744 115.553 51.5424 115.674C51.7198 115.795 51.9951 115.931 52.3684 116.08C52.7418 116.229 53.0498 116.374 53.2924 116.514C53.5351 116.654 53.7404 116.85 53.9084 117.102C54.0858 117.345 54.1744 117.648 54.1744 118.012C54.1744 118.385 54.0764 118.735 53.8804 119.062C53.6938 119.379 53.4044 119.641 53.0124 119.846C52.6204 120.042 52.1398 120.14 51.5704 120.14C50.8984 120.14 50.2031 120 49.4844 119.72L49.6944 118.264L49.8764 118.152C50.1658 118.395 50.4878 118.591 50.8424 118.74C51.1971 118.88 51.5098 118.95 51.7804 118.95C52.0324 118.95 52.2284 118.889 52.3684 118.768C52.5084 118.637 52.5784 118.483 52.5784 118.306C52.5784 118.11 52.4898 117.951 52.3124 117.83C52.1444 117.709 51.8738 117.573 51.5004 117.424C51.1178 117.256 50.8051 117.107 50.5624 116.976C50.3198 116.836 50.1098 116.64 49.9324 116.388C49.7644 116.136 49.6804 115.823 49.6804 115.45C49.6804 114.843 49.9091 114.349 50.3664 113.966C50.8238 113.574 51.4444 113.378 52.2284 113.378ZM60.4575 116.976L56.6775 117.004C56.7615 118.171 57.3541 118.754 58.4555 118.754C59.0341 118.754 59.6781 118.591 60.3875 118.264L60.5415 118.362L60.2615 119.748C59.5521 120.009 58.8848 120.14 58.2595 120.14C57.2328 120.14 56.4255 119.841 55.8375 119.244C55.2588 118.647 54.9695 117.821 54.9695 116.766C54.9695 115.721 55.2541 114.895 55.8235 114.288C56.3928 113.672 57.1628 113.364 58.1335 113.364C58.9641 113.364 59.6035 113.593 60.0515 114.05C60.5088 114.498 60.7375 115.128 60.7375 115.94C60.7375 116.155 60.7141 116.425 60.6675 116.752L60.4575 116.976ZM59.1135 115.73C59.1135 115.357 59.0295 115.077 58.8615 114.89C58.6935 114.694 58.4461 114.596 58.1195 114.596C57.7555 114.596 57.4521 114.717 57.2095 114.96C56.9668 115.193 56.8035 115.534 56.7195 115.982L59.0855 115.926L59.1135 115.73ZM66.025 115.94C66.0343 115.613 65.9597 115.361 65.801 115.184C65.6517 114.997 65.4323 114.904 65.143 114.904C64.723 114.904 64.275 115.105 63.799 115.506V117.13L63.883 120H62.021L62.119 117.312L62.049 113.616L63.813 113.462V114.414H63.911C64.4243 113.947 64.9843 113.611 65.591 113.406C66.3003 113.406 66.8417 113.569 67.215 113.896C67.5883 114.213 67.7657 114.675 67.747 115.282L67.705 117.144L67.789 120H65.913L66.025 115.94ZM70.4441 114.526L71.4241 118.25H71.5221L72.6981 114.624L72.9361 113.49H74.5601L72.3761 120H70.3741L68.5261 113.532L70.2621 113.448L70.4441 114.526ZM77.9984 113.364C78.9504 113.364 79.6784 113.644 80.1824 114.204C80.6864 114.764 80.9384 115.571 80.9384 116.626C80.9384 117.765 80.6677 118.637 80.1264 119.244C79.585 119.841 78.8057 120.14 77.7884 120.14C76.8364 120.14 76.1084 119.86 75.6044 119.3C75.1004 118.74 74.8484 117.933 74.8484 116.878C74.8484 115.739 75.119 114.871 75.6604 114.274C76.2017 113.667 76.981 113.364 77.9984 113.364ZM77.8724 114.624C77.4244 114.624 77.0977 114.773 76.8924 115.072C76.6964 115.371 76.5984 115.851 76.5984 116.514C76.5984 117.373 76.701 117.984 76.9064 118.348C77.1117 118.712 77.4477 118.894 77.9144 118.894C78.3624 118.894 78.6844 118.749 78.8804 118.46C79.0857 118.161 79.1884 117.676 79.1884 117.004C79.1884 116.155 79.081 115.548 78.8664 115.184C78.661 114.811 78.3297 114.624 77.8724 114.624ZM84.0344 117.13L84.1324 120H82.2704L82.3684 117.298L82.2844 110.312L84.1464 110.172L84.0344 117.13ZM87.1101 114.526L88.0901 118.25H88.1881L89.3641 114.624L89.6021 113.49H91.2261L89.0421 120H87.0401L85.1921 113.532L86.9281 113.448L87.1101 114.526ZM92.2525 117.312L92.1825 113.616L94.0165 113.462L93.9325 117.13L94.0165 120H92.1545L92.2525 117.312ZM93.1345 110.298C93.4238 110.298 93.6478 110.382 93.8065 110.55C93.9745 110.718 94.0585 110.951 94.0585 111.25C94.0585 111.567 93.9698 111.819 93.7925 112.006C93.6151 112.193 93.3725 112.286 93.0645 112.286C92.7565 112.286 92.5185 112.202 92.3505 112.034C92.1918 111.866 92.1125 111.628 92.1125 111.32C92.1125 111.012 92.2011 110.765 92.3785 110.578C92.5651 110.391 92.8171 110.298 93.1345 110.298ZM103.575 120L103.687 115.94C103.687 115.249 103.393 114.904 102.805 114.904C102.385 114.904 101.946 115.091 101.489 115.464L101.447 117.144L101.531 120H99.6689L99.7809 115.94C99.7902 115.604 99.7155 115.347 99.5569 115.17C99.4075 114.993 99.1882 114.904 98.8989 114.904C98.4882 114.904 98.0355 115.1 97.5409 115.492V117.13L97.6249 120H95.7769L95.8749 117.312L95.8049 113.616L97.5549 113.462V114.414H97.6529C98.1662 113.947 98.7309 113.611 99.3469 113.406C100.392 113.406 101.06 113.756 101.349 114.456H101.433C101.965 113.961 102.572 113.611 103.253 113.406C103.962 113.406 104.499 113.569 104.863 113.896C105.236 114.213 105.414 114.675 105.395 115.282L105.353 117.144L105.437 120H103.575ZM112.11 116.976L108.33 117.004C108.414 118.171 109.006 118.754 110.108 118.754C110.686 118.754 111.33 118.591 112.04 118.264L112.194 118.362L111.914 119.748C111.204 120.009 110.537 120.14 109.912 120.14C108.885 120.14 108.078 119.841 107.49 119.244C106.911 118.647 106.622 117.821 106.622 116.766C106.622 115.721 106.906 114.895 107.476 114.288C108.045 113.672 108.815 113.364 109.786 113.364C110.616 113.364 111.256 113.593 111.704 114.05C112.161 114.498 112.39 115.128 112.39 115.94C112.39 116.155 112.366 116.425 112.32 116.752L112.11 116.976ZM110.766 115.73C110.766 115.357 110.682 115.077 110.514 114.89C110.346 114.694 110.098 114.596 109.772 114.596C109.408 114.596 109.104 114.717 108.862 114.96C108.619 115.193 108.456 115.534 108.372 115.982L110.738 115.926L110.766 115.73ZM117.677 115.94C117.687 115.613 117.612 115.361 117.453 115.184C117.304 114.997 117.085 114.904 116.795 114.904C116.375 114.904 115.927 115.105 115.451 115.506V117.13L115.535 120H113.673L113.771 117.312L113.701 113.616L115.465 113.462V114.414H115.563C116.077 113.947 116.637 113.611 117.243 113.406C117.953 113.406 118.494 113.569 118.867 113.896C119.241 114.213 119.418 114.675 119.399 115.282L119.357 117.144L119.441 120H117.565L117.677 115.94ZM123.715 118.628C124.014 118.628 124.327 118.549 124.653 118.39L124.807 118.53L124.625 119.636C124.149 119.879 123.664 120.028 123.169 120.084C121.909 119.953 121.279 119.337 121.279 118.236L121.349 117.074L121.335 114.666H120.467L120.397 114.568L120.495 113.546H121.321V112.468L123.015 111.922L123.141 112.034L123.099 113.546H124.765L124.821 113.644L124.737 114.666H123.071L122.987 117.802C122.987 118.101 123.043 118.315 123.155 118.446C123.267 118.567 123.454 118.628 123.715 118.628ZM128.42 113.364C129.372 113.364 130.1 113.644 130.604 114.204C131.108 114.764 131.36 115.571 131.36 116.626C131.36 117.765 131.09 118.637 130.548 119.244C130.007 119.841 129.228 120.14 128.21 120.14C127.258 120.14 126.53 119.86 126.026 119.3C125.522 118.74 125.27 117.933 125.27 116.878C125.27 115.739 125.541 114.871 126.082 114.274C126.624 113.667 127.403 113.364 128.42 113.364ZM128.294 114.624C127.846 114.624 127.52 114.773 127.314 115.072C127.118 115.371 127.02 115.851 127.02 116.514C127.02 117.373 127.123 117.984 127.328 118.348C127.534 118.712 127.87 118.894 128.336 118.894C128.784 118.894 129.106 118.749 129.302 118.46C129.508 118.161 129.61 117.676 129.61 117.004C129.61 116.155 129.503 115.548 129.288 115.184C129.083 114.811 128.752 114.624 128.294 114.624ZM65.2326 129.406C66.0446 129.406 66.6699 129.681 67.1086 130.232C67.5472 130.783 67.7666 131.562 67.7666 132.57C67.7666 133.709 67.4819 134.591 66.9126 135.216C66.3526 135.832 65.5592 136.14 64.5326 136.14C64.2339 136.14 63.9212 136.112 63.5946 136.056L63.6366 138.59H61.7886L61.8866 133.312L61.8026 129.616L63.5806 129.462L63.5666 130.414H63.6646C63.9259 130.162 64.1779 129.961 64.4206 129.812C64.6632 129.653 64.9339 129.518 65.2326 129.406ZM64.5466 134.922C65.0319 134.922 65.4006 134.749 65.6526 134.404C65.9046 134.059 66.0306 133.55 66.0306 132.878C66.0306 132.225 65.9232 131.735 65.7086 131.408C65.5032 131.072 65.1952 130.904 64.7846 130.904C64.3832 130.904 63.9772 131.105 63.5666 131.506L63.5526 133.13L63.5806 134.712C63.9166 134.852 64.2386 134.922 64.5466 134.922ZM74.0747 132.976L70.2947 133.004C70.3787 134.171 70.9713 134.754 72.0727 134.754C72.6513 134.754 73.2953 134.591 74.0047 134.264L74.1587 134.362L73.8787 135.748C73.1693 136.009 72.502 136.14 71.8767 136.14C70.85 136.14 70.0427 135.841 69.4547 135.244C68.876 134.647 68.5867 133.821 68.5867 132.766C68.5867 131.721 68.8713 130.895 69.4407 130.288C70.01 129.672 70.78 129.364 71.7507 129.364C72.5813 129.364 73.2207 129.593 73.6687 130.05C74.126 130.498 74.3547 131.128 74.3547 131.94C74.3547 132.155 74.3313 132.425 74.2847 132.752L74.0747 132.976ZM72.7307 131.73C72.7307 131.357 72.6467 131.077 72.4787 130.89C72.3107 130.694 72.0633 130.596 71.7367 130.596C71.3727 130.596 71.0693 130.717 70.8267 130.96C70.584 131.193 70.4207 131.534 70.3367 131.982L72.7027 131.926L72.7307 131.73ZM77.8222 129.378C78.4568 129.378 79.0542 129.485 79.6142 129.7L79.3622 131.072L79.1382 131.142C78.8675 130.965 78.5968 130.829 78.3262 130.736C78.0555 130.643 77.8175 130.596 77.6122 130.596C77.3882 130.596 77.2108 130.657 77.0802 130.778C76.9495 130.89 76.8842 131.03 76.8842 131.198C76.8842 131.394 76.9682 131.553 77.1362 131.674C77.3135 131.795 77.5888 131.931 77.9622 132.08C78.3355 132.229 78.6435 132.374 78.8862 132.514C79.1288 132.654 79.3342 132.85 79.5022 133.102C79.6795 133.345 79.7682 133.648 79.7682 134.012C79.7682 134.385 79.6702 134.735 79.4742 135.062C79.2875 135.379 78.9982 135.641 78.6062 135.846C78.2142 136.042 77.7335 136.14 77.1642 136.14C76.4922 136.14 75.7968 136 75.0782 135.72L75.2882 134.264L75.4702 134.152C75.7595 134.395 76.0815 134.591 76.4362 134.74C76.7908 134.88 77.1035 134.95 77.3742 134.95C77.6262 134.95 77.8222 134.889 77.9622 134.768C78.1022 134.637 78.1722 134.483 78.1722 134.306C78.1722 134.11 78.0835 133.951 77.9062 133.83C77.7382 133.709 77.4675 133.573 77.0942 133.424C76.7115 133.256 76.3988 133.107 76.1562 132.976C75.9135 132.836 75.7035 132.64 75.5262 132.388C75.3582 132.136 75.2742 131.823 75.2742 131.45C75.2742 130.843 75.5028 130.349 75.9602 129.966C76.4175 129.574 77.0382 129.378 77.8222 129.378ZM83.1952 129.378C83.8299 129.378 84.4272 129.485 84.9872 129.7L84.7352 131.072L84.5112 131.142C84.2406 130.965 83.9699 130.829 83.6992 130.736C83.4286 130.643 83.1906 130.596 82.9852 130.596C82.7612 130.596 82.5839 130.657 82.4532 130.778C82.3226 130.89 82.2572 131.03 82.2572 131.198C82.2572 131.394 82.3412 131.553 82.5092 131.674C82.6866 131.795 82.9619 131.931 83.3352 132.08C83.7086 132.229 84.0166 132.374 84.2592 132.514C84.5019 132.654 84.7072 132.85 84.8752 133.102C85.0526 133.345 85.1412 133.648 85.1412 134.012C85.1412 134.385 85.0432 134.735 84.8472 135.062C84.6606 135.379 84.3712 135.641 83.9792 135.846C83.5872 136.042 83.1066 136.14 82.5372 136.14C81.8652 136.14 81.1699 136 80.4512 135.72L80.6612 134.264L80.8432 134.152C81.1326 134.395 81.4546 134.591 81.8092 134.74C82.1639 134.88 82.4766 134.95 82.7472 134.95C82.9992 134.95 83.1952 134.889 83.3352 134.768C83.4752 134.637 83.5452 134.483 83.5452 134.306C83.5452 134.11 83.4566 133.951 83.2792 133.83C83.1112 133.709 82.8406 133.573 82.4672 133.424C82.0846 133.256 81.7719 133.107 81.5292 132.976C81.2866 132.836 81.0766 132.64 80.8992 132.388C80.7312 132.136 80.6472 131.823 80.6472 131.45C80.6472 130.843 80.8759 130.349 81.3332 129.966C81.7906 129.574 82.4112 129.378 83.1952 129.378ZM89.0863 129.364C90.0383 129.364 90.7663 129.644 91.2703 130.204C91.7743 130.764 92.0263 131.571 92.0263 132.626C92.0263 133.765 91.7556 134.637 91.2143 135.244C90.6729 135.841 89.8936 136.14 88.8763 136.14C87.9243 136.14 87.1963 135.86 86.6923 135.3C86.1883 134.74 85.9363 133.933 85.9363 132.878C85.9363 131.739 86.2069 130.871 86.7483 130.274C87.2896 129.667 88.0689 129.364 89.0863 129.364ZM88.9603 130.624C88.5123 130.624 88.1856 130.773 87.9803 131.072C87.7843 131.371 87.6863 131.851 87.6863 132.514C87.6863 133.373 87.7889 133.984 87.9943 134.348C88.1996 134.712 88.5356 134.894 89.0023 134.894C89.4503 134.894 89.7723 134.749 89.9683 134.46C90.1736 134.161 90.2763 133.676 90.2763 133.004C90.2763 132.155 90.1689 131.548 89.9543 131.184C89.7489 130.811 89.4176 130.624 88.9603 130.624ZM95.8642 129.364C96.5829 129.364 97.1429 129.527 97.5442 129.854C97.9549 130.171 98.1602 130.619 98.1602 131.198C98.1602 131.366 98.1322 131.898 98.0762 132.794C98.0669 133.055 98.0529 133.326 98.0342 133.606C98.0156 133.877 98.0062 134.11 98.0062 134.306C98.0062 134.465 98.0296 134.577 98.0762 134.642C98.1229 134.698 98.2069 134.726 98.3282 134.726C98.4216 134.726 98.5429 134.707 98.6922 134.67L98.8322 134.782L98.6642 135.762C98.3656 135.958 98.0249 136.075 97.6422 136.112C97.3622 136.084 97.1289 135.986 96.9422 135.818C96.7556 135.641 96.6296 135.398 96.5642 135.09H96.4662C95.9996 135.585 95.5189 135.93 95.0242 136.126C94.3522 136.117 93.8249 135.939 93.4422 135.594C93.0596 135.249 92.8682 134.777 92.8682 134.18C92.8682 133.713 92.9849 133.349 93.2182 133.088C93.4609 132.817 93.8249 132.635 94.3102 132.542L96.4522 132.136V131.562C96.4522 130.955 96.1536 130.652 95.5562 130.652C95.2669 130.652 94.9589 130.717 94.6322 130.848C94.3149 130.979 93.9556 131.184 93.5542 131.464L93.4142 131.38L93.2042 130.148C93.6056 129.896 94.0349 129.705 94.4922 129.574C94.9496 129.434 95.4069 129.364 95.8642 129.364ZM94.9542 133.396C94.8049 133.433 94.6929 133.499 94.6182 133.592C94.5529 133.676 94.5202 133.807 94.5202 133.984C94.5202 134.227 94.5856 134.418 94.7162 134.558C94.8469 134.689 95.0289 134.754 95.2622 134.754C95.6262 134.754 96.0089 134.539 96.4102 134.11L96.4382 133.074L94.9542 133.396ZM101.862 133.13L101.96 136H100.098L100.196 133.298L100.112 126.312L101.974 126.172L101.862 133.13ZM104.504 134.11C104.794 134.11 105.018 134.194 105.176 134.362C105.344 134.53 105.428 134.763 105.428 135.062C105.428 135.379 105.34 135.631 105.162 135.818C104.985 136.005 104.742 136.098 104.434 136.098C104.126 136.098 103.888 136.014 103.72 135.846C103.562 135.678 103.482 135.44 103.482 135.132C103.482 134.824 103.571 134.577 103.748 134.39C103.935 134.203 104.187 134.11 104.504 134.11Z" fill="white"/>
<defs>
<filter id="filter0_b_136:22484" x="3" y="67" width="161" height="97" filterUnits="userSpaceOnUse" color-interpolation-filters="sRGB">
<feFlood flood-opacity="0" result="BackgroundImageFix"/>
<feGaussianBlur in="BackgroundImage" stdDeviation="5"/>
<feComposite in2="SourceAlpha" operator="in" result="effect1_backgroundBlur_136:22484"/>
<feBlend mode="normal" in="SourceGraphic" in2="effect1_backgroundBlur_136:22484" result="shape"/>
</filter>
<clipPath id="clip0_136:22484">
<rect width="121.17" height="151.366" fill="white" transform="translate(29 -1)"/>
</clipPath>
</defs>
</svg>
