<svg width="167" height="167" viewBox="0 0 167 167" fill="none" xmlns="http://www.w3.org/2000/svg">
<mask id="mask0_136:22538" style="mask-type:alpha" maskUnits="userSpaceOnUse" x="0" y="0" width="167" height="167">
<rect x="1" y="1" width="165" height="165" rx="8" fill="#5988D6" stroke="#EDE6FC" stroke-opacity="0.3"/>
</mask>
<g mask="url(#mask0_136:22538)">
<rect x="1" y="1" width="165" height="165" rx="8" fill="#A97AD9" stroke="#EDE6FC" stroke-opacity="0.3"/>
<path d="M109.383 12.2176C107.919 11.9593 106.414 12.0385 104.987 12.449C103.56 12.8595 102.25 13.5899 101.161 14.5827C97.6138 17.9241 98.7494 22.0974 99.4573 24.3178C100.165 26.5382 100.195 27.3772 99.7375 28.0787C99.2803 28.7803 97.1861 30.9718 96.9059 31.6951C96.6257 32.4183 102.717 35.5862 102.717 35.5862L107.547 32.8378C107.547 32.8378 111.801 35.3403 112.229 35.1956C112.657 35.051 114.073 32.8378 115.348 27.6882C116.624 22.5385 116.336 18.6474 114.611 15.7254C112.885 12.8034 109.383 12.2176 109.383 12.2176Z" fill="#F6BA99"/>
<path d="M106.475 23.8005C106.475 23.8005 105.646 21.6624 104.236 23.512C102.827 25.3616 103.283 26.7896 103.921 27.0707L104.56 27.3592C104.404 28.4363 104.627 29.5299 105.198 30.4888C105.835 31.5701 106.639 32.5663 107.586 33.4483" stroke="#393762" stroke-width="0.5" stroke-miterlimit="10"/>
<path d="M115.069 18.9164C114.852 17.8372 114.49 16.7981 113.995 15.8324C112.395 12.8309 109.063 12.2232 109.063 12.2232C107.689 11.9552 106.275 12.0374 104.935 12.4632C103.594 12.8891 102.364 13.6469 101.34 14.6769C98.0083 18.1435 99.0751 22.4732 99.74 24.7768C100.232 26.4876 100.356 27.4031 100.232 28.0559C101.272 28.1669 102.321 28.0832 103.335 27.8083C103.703 27.6959 104.047 27.5058 104.347 27.249C104.647 26.9922 104.897 26.6737 105.083 26.3118C105.269 25.9499 105.387 25.5518 105.431 25.1403C105.474 24.7287 105.442 24.312 105.337 23.9139C104.935 23.051 106.029 22.1805 106.029 22.1805C106.029 22.1805 106.826 24.4917 107.761 23.051C108.696 21.6102 107.069 19.5843 108.689 18.4287C110.31 17.2731 112.021 17.2731 114.023 18.4287C114.356 18.6279 114.706 18.7912 115.069 18.9164Z" fill="#393762"/>
<path d="M114.894 19.4407C114.894 19.4407 115.84 20.0825 117.212 18.2798C118.585 16.477 118.578 13.2898 117.483 14.119C116.957 14.5054 116.454 14.9219 115.975 15.3665C115.975 15.3665 114.886 10.5135 113.379 11.0399C112.966 11.1669 112.602 11.4174 112.332 11.7584C112.063 12.0995 111.902 12.5152 111.871 12.9508C111.871 12.9508 109.026 10.7371 108.457 11.4293C108.183 11.796 107.86 12.1214 107.496 12.3956C107.496 12.3956 107.774 12.5398 106.949 12.8138C106.349 13.0883 105.831 13.5187 105.448 14.0613C105.448 14.0613 109.957 14.6166 111.33 16.0011C112.703 17.3856 114.894 19.4407 114.894 19.4407Z" fill="#393762"/>
<path d="M105.261 42C105.261 42 107.837 42.8221 107.986 46.947C108.135 51.0718 111.419 61.6592 111.419 61.6592C111.419 61.6592 115.283 57.5343 115.998 56.7051C116.713 55.8758 118.15 55.6042 119.579 57.9418C121.009 60.2795 120.585 63.0318 118.433 66.3345C116.281 69.6373 112.275 74.5771 108.984 74.0266C105.693 73.4762 100.25 64.0183 100.109 62.8959C99.9671 61.7736 102.685 50.6572 103.087 48.87C103.489 47.0828 105.261 42 105.261 42Z" fill="#393762"/>
<path d="M74.9937 82.2887C74.9937 82.2887 73.0675 84.8969 73.7549 87.3626C74.2319 89.003 74.8303 90.606 75.5451 92.1585C75.5451 92.1585 71.0051 106.824 69.9024 109.839C68.7996 112.853 69.6231 113.131 66.7301 114.913C63.8371 116.694 57.5069 119.188 55.4374 125.737C53.8818 130.652 51.9991 135.459 49.8018 140.125C48.9711 141.771 48.563 142.733 46.7728 142.733C44.9826 142.733 41.9535 141.907 41.6742 144.237C41.534 146.427 41.534 148.624 41.6742 150.815C41.6742 151.641 39.6119 153.01 40.4354 155.889C41.2589 158.768 42.777 161.369 43.6005 161.639C44.424 161.91 45.9421 161.504 46.0853 160.82C46.2285 160.136 44.5672 159.038 45.3692 156.544C46.1712 154.05 50.3317 150.131 52.6733 147.907C55.0149 145.684 60.5503 135.985 64.6534 131.602C68.7566 127.22 73.4685 121.732 76.7696 118.853C80.0708 115.974 86.7948 104.879 88.227 102.406C89.6592 99.9333 91.0914 96.5198 91.0914 96.5198C91.0914 96.5198 105.556 99.2563 108.034 99.6696C109.712 99.9696 111.367 100.381 112.989 100.902C110.28 103.442 108.408 106.739 107.619 110.359C106.516 116.117 104.038 126.528 102.799 129.956C101.561 133.384 100.644 135.465 99.7847 137.246C98.9254 139.028 97.5791 141.358 98.5458 142.456C99.5126 143.553 104.74 144.237 107.361 144.65C109.982 145.064 115.073 144.921 116.169 143.938C117.264 142.954 117.415 142.427 116.72 142.292C116.026 142.156 112.18 139.683 111.077 138.729C109.975 137.774 109.151 136.12 109.287 135.436C109.423 134.752 115.617 121.184 118.374 115.704C121.131 110.224 124.16 100.625 124.984 98.4368C125.807 96.249 126.087 95.8286 125.263 94.7382C124.44 93.6479 119.341 89.7998 110.798 85.1392C102.255 80.4786 97.5791 80.3432 94.9654 79.937C92.3517 79.5308 87.9406 75.5473 82.0185 78.1555C76.0965 80.7637 74.9937 82.2887 74.9937 82.2887Z" fill="#F6BA99"/>
<path d="M106.357 41.0095C106.666 45.1324 106.527 49.2761 105.943 53.3697C104.985 60.5739 99.7628 71.3026 99.3485 73.8523C98.9341 76.4021 100.72 78.0901 100.17 78.8812C99.6199 79.6722 98.5269 79.9689 97.148 79.9689C95.7692 79.9689 90.4181 78.6057 86.1601 79.425C81.9022 80.2443 77.2298 84.0442 76.2654 83.6628C75.3009 83.2814 73.7935 81.6216 74.7579 79.9971C75.7224 78.3726 76.6797 77.4121 77.5013 75.7593C78.3229 74.1066 82.4523 61.2308 83.4096 57.0213C84.367 52.8117 83.9597 47.9171 83.824 44.5198C83.6883 41.1225 86.5674 35.5569 88.7678 34.7446C90.9682 33.9324 97.148 35.5569 97.8339 35.5569C98.5197 35.5569 105.121 37.6122 106.357 41.0095Z" fill="#393762"/>
<path d="M102.886 39.3143C102.886 39.3143 106.019 43.329 106.422 43.0556C106.825 42.7822 108.332 41.3936 107.129 38.0695C105.927 34.7455 103.056 32.5367 100.057 29.9105C97.0589 27.2844 93.9401 23.2696 91.9034 25.5936C89.8666 27.9175 86.0548 33.3425 87.6602 35.1412C89.2655 36.9399 97.865 37.3572 99.7674 38.0192C101.67 38.6811 102.886 39.3143 102.886 39.3143Z" fill="#7EB9F5"/>
<path d="M68.5531 68.2262C68.8822 69.4826 69.3739 70.6834 70.0138 71.7937C71.08 73.6478 71.613 75.6429 70.9484 76.3549C70.2839 77.0669 70.2561 77.0966 67.6185 77.9273C64.9809 78.7579 63.8941 78.2091 63.6241 77.4971C63.3541 76.7851 64.4202 75.9248 64.4202 75.9248C63.9373 75.8036 63.5056 75.5144 63.1924 75.1024C62.8793 74.6905 62.7024 74.1789 62.6895 73.6478C62.7734 71.7847 62.9513 69.9278 63.2225 68.0853L68.4147 67.6552L68.5531 68.2262Z" fill="#F6BA99"/>
<path d="M61.6289 65.7802C61.6289 65.7802 61.488 68.7441 62.3704 69.4832C63.2528 70.2223 67.7909 69.4832 68.3618 68.8904C68.9328 68.2976 69.1034 64.4483 69.1034 64.4483L61.6289 65.7802Z" fill="#7EB9F5"/>
<path d="M95.8274 38.9479C94.4673 37.6313 92.8207 36.6297 91.0096 36.0175C88.1462 35.0756 79.0332 35.7454 72.6978 37.3571C66.3624 38.9689 63.7495 38.8084 62.783 41.2295C61.8166 43.6506 60.3062 62.4264 60.5854 64.5754C60.8646 66.7244 65.2671 66.857 67.3288 66.3197C69.3905 65.7825 71.0441 64.4428 71.7385 61.624C72.4329 58.8052 72.2826 48.744 73.249 47.6695C74.2154 46.595 85.6406 47.2648 88.8047 46.8602C91.9689 46.4555 94.1737 45.5205 94.7249 44.7181" fill="#393762"/>
<path d="M117.952 56.0322C117.952 56.0322 115.808 57.1838 116.181 59.1008C116.555 61.0178 118.45 62.4289 119.211 62.3025C119.971 62.176 121.479 60.1259 121.479 60.1259C121.479 60.1259 121.728 55.0072 117.952 56.0322Z" fill="#7EB9F5"/>
<path d="M117.207 56.8629C117.207 56.8629 118.323 60.0228 119.715 60.1584C121.107 60.2939 121.811 59.4451 123.478 57.8259C125.145 56.2066 126.827 54.9726 126.827 52.7471C126.827 50.5216 126.269 47.54 125.015 47.3973C124.259 47.3168 123.494 47.412 122.782 47.6755C122.782 47.6755 122.369 46.8481 121.115 47.811C119.86 48.774 120.136 49.4588 119.44 50.6643C118.829 51.4859 118.569 52.5098 118.715 53.5175C118.787 54.0165 118.833 54.5189 118.853 55.0226L117.207 56.8629Z" fill="#F6BA99"/>
<path d="M122.759 48.4138C123.232 49.0586 124.014 52.3791 123.387 52.8756C122.76 53.372 121.668 54.365 121.35 53.2495C121.033 52.1341 120.414 50.5222 120.414 50.5222" stroke="#393762" stroke-width="0.5" stroke-miterlimit="10"/>
<path d="M111.395 85.0339C102.821 80.4357 98.1168 80.3022 95.4914 79.9014C92.866 79.5006 88.4352 75.5704 82.4866 78.1437C76.5381 80.717 75.4304 82.1935 75.4304 82.1935C75.4304 82.1935 73.4955 84.7667 74.186 87.1994C74.6651 88.8179 75.2662 90.3994 75.9843 91.9311C75.9843 91.9311 71.4239 106.401 70.3162 109.375C70.2587 109.529 70.2227 109.649 70.1724 109.789C71.3952 110.204 72.8194 110.732 74.4881 111.4C76.6396 112.25 78.4341 113.786 79.5807 115.759C82.9093 111.38 85.9646 106.808 88.7301 102.07C90.1183 99.6369 91.6072 96.2621 91.6072 96.2621C91.6072 96.2621 106.137 98.962 108.626 99.3698C109.46 99.5033 110.294 99.6862 111.035 99.869C111.459 97.2341 112.329 94.6868 113.61 92.3319C114.977 89.9274 116.243 88.8165 117.207 88.2962C115.473 87.2838 113.546 86.187 111.395 85.0339Z" fill="#DA5955"/>
<path d="M116.215 143.745C117.337 142.812 117.482 142.28 116.776 142.149C116.07 142.017 112.16 139.619 111.038 138.693C109.917 137.767 109.079 136.163 109.218 135.5C109.261 135.286 109.946 133.765 110.958 131.63C109.761 131.977 108.508 132.117 107.259 132.044C105.603 131.766 103.983 131.324 102.424 130.724C101.266 133.717 100.349 135.597 99.5552 137.228C98.7615 138.859 97.3125 141.215 98.2955 142.28C99.2785 143.344 104.594 144.008 107.259 144.408C109.924 144.809 115.101 144.671 116.215 143.745Z" fill="#DECBB6"/>
<path d="M116.778 142.031C116.05 141.892 112.163 139.351 111.042 138.37C109.921 137.388 109.083 135.689 109.222 134.986C109.222 134.986 108.661 133.155 107.402 132.877C106.142 132.598 105.582 136.399 105.582 136.399L100.246 135.323C100.006 135.85 99.7799 136.348 99.5616 136.788C98.7171 138.619 97.3194 141.013 98.3022 142.141C99.2849 143.269 104.599 143.972 107.264 144.397C109.928 144.822 115.104 144.675 116.218 143.665C117.331 142.654 117.484 142.163 116.778 142.031Z" fill="#393762"/>
<path d="M51.4071 144.881C50.322 143.976 49.5347 142.768 49.147 141.414C48.9409 141.866 48.5999 142.245 48.1702 142.499C47.7404 142.752 47.2427 142.869 46.7443 142.832C44.9619 142.832 41.9461 142.009 41.668 144.328C41.5284 146.507 41.5284 148.692 41.668 150.871C41.668 151.693 39.6146 153.055 40.4345 155.919C41.2544 158.783 42.766 161.37 43.5859 161.64C44.4058 161.909 45.9173 161.505 46.0598 160.825C46.2024 160.144 44.5484 159.052 45.3469 156.571C46.1454 154.09 50.2877 150.19 52.6191 147.979C53.1765 147.418 53.6845 146.811 54.1378 146.164C53.1631 145.887 52.2406 145.454 51.4071 144.881Z" fill="#DECBB6"/>
<path d="M49.8619 151.176C49.7442 150.983 49.6156 150.796 49.4765 150.617C48.6075 149.513 47.1566 150.753 47.1566 150.753C46.2656 149.754 45.7994 148.477 45.8492 147.17C45.9626 145.564 47.4664 143.386 48.1163 142.49C47.7977 142.581 47.4666 142.627 47.1339 142.626C45.2447 142.626 42.0481 141.795 41.7534 144.138C41.6055 146.341 41.6055 148.55 41.7534 150.753C41.7534 151.584 39.5771 152.96 40.4461 155.856C41.3152 158.751 42.9172 161.367 43.7862 161.639C44.6552 161.911 46.2573 161.503 46.4084 160.815C46.5596 160.127 44.8064 159.023 45.6528 156.515C46.2195 155.06 47.9954 153.039 49.8619 151.176Z" fill="#393762"/>
</g>
<g filter="url(#filter0_b_136:22538)">
<rect x="13" y="77" width="141" height="77" rx="10" fill="black" fill-opacity="0.8"/>
</g>
<path d="M58.4608 102.872C59.3382 102.872 60.1268 103.054 60.8268 103.418L60.4908 105L60.3368 105.07C60.0568 104.874 59.7488 104.72 59.4128 104.608C59.0768 104.496 58.7315 104.44 58.3768 104.44C56.8928 104.44 56.1508 105.415 56.1508 107.366C56.1508 108.421 56.3422 109.214 56.7248 109.746C57.1168 110.269 57.6862 110.53 58.4328 110.53C58.7782 110.53 59.1328 110.479 59.4968 110.376C59.8702 110.264 60.2062 110.115 60.5048 109.928L60.6728 110.026L60.5188 111.636C59.8095 111.963 59.0628 112.126 58.2788 112.126C56.9348 112.126 55.9082 111.734 55.1988 110.95C54.4988 110.166 54.1488 109.041 54.1488 107.576C54.1488 106.083 54.5222 104.925 55.2688 104.104C56.0248 103.283 57.0888 102.872 58.4608 102.872ZM64.3265 105.364C65.2785 105.364 66.0065 105.644 66.5105 106.204C67.0145 106.764 67.2665 107.571 67.2665 108.626C67.2665 109.765 66.9958 110.637 66.4545 111.244C65.9132 111.841 65.1338 112.14 64.1165 112.14C63.1645 112.14 62.4365 111.86 61.9325 111.3C61.4285 110.74 61.1765 109.933 61.1765 108.878C61.1765 107.739 61.4472 106.871 61.9885 106.274C62.5298 105.667 63.3092 105.364 64.3265 105.364ZM64.2005 106.624C63.7525 106.624 63.4258 106.773 63.2205 107.072C63.0245 107.371 62.9265 107.851 62.9265 108.514C62.9265 109.373 63.0292 109.984 63.2345 110.348C63.4398 110.712 63.7758 110.894 64.2425 110.894C64.6905 110.894 65.0125 110.749 65.2085 110.46C65.4138 110.161 65.5165 109.676 65.5165 109.004C65.5165 108.155 65.4092 107.548 65.1945 107.184C64.9892 106.811 64.6578 106.624 64.2005 106.624ZM76.2584 112L76.3704 107.94C76.3704 107.249 76.0764 106.904 75.4884 106.904C75.0684 106.904 74.6298 107.091 74.1724 107.464L74.1304 109.144L74.2144 112H72.3524L72.4644 107.94C72.4738 107.604 72.3991 107.347 72.2404 107.17C72.0911 106.993 71.8718 106.904 71.5824 106.904C71.1718 106.904 70.7191 107.1 70.2244 107.492V109.13L70.3084 112H68.4604L68.5584 109.312L68.4884 105.616L70.2384 105.462V106.414H70.3364C70.8498 105.947 71.4144 105.611 72.0304 105.406C73.0758 105.406 73.7431 105.756 74.0324 106.456H74.1164C74.6484 105.961 75.2551 105.611 75.9364 105.406C76.6458 105.406 77.1824 105.569 77.5464 105.896C77.9198 106.213 78.0971 106.675 78.0784 107.282L78.0364 109.144L78.1204 112H76.2584ZM83.2674 105.406C84.0887 105.406 84.7141 105.686 85.1434 106.246C85.5821 106.797 85.8014 107.567 85.8014 108.556C85.8014 109.704 85.5167 110.591 84.9474 111.216C84.3781 111.832 83.5894 112.14 82.5814 112.14C82.1054 112.14 81.5827 112.033 81.0134 111.818L80.0334 112.168L79.8094 111.986L79.9074 109.326L79.8234 102.312L81.6714 102.172L81.6154 106.414H81.6994C81.9607 106.162 82.2127 105.961 82.4554 105.812C82.6981 105.653 82.9687 105.518 83.2674 105.406ZM82.5814 110.922C83.0481 110.922 83.4121 110.754 83.6734 110.418C83.9347 110.082 84.0654 109.569 84.0654 108.878C84.0654 108.234 83.9581 107.744 83.7434 107.408C83.5381 107.072 83.2254 106.904 82.8054 106.904C82.4227 106.904 82.0214 107.1 81.6014 107.492L81.5734 109.088L81.6014 110.67C81.9467 110.838 82.2734 110.922 82.5814 110.922ZM89.6435 105.364C90.3622 105.364 90.9222 105.527 91.3235 105.854C91.7342 106.171 91.9395 106.619 91.9395 107.198C91.9395 107.366 91.9115 107.898 91.8555 108.794C91.8462 109.055 91.8322 109.326 91.8135 109.606C91.7949 109.877 91.7855 110.11 91.7855 110.306C91.7855 110.465 91.8089 110.577 91.8555 110.642C91.9022 110.698 91.9862 110.726 92.1075 110.726C92.2009 110.726 92.3222 110.707 92.4715 110.67L92.6115 110.782L92.4435 111.762C92.1449 111.958 91.8042 112.075 91.4215 112.112C91.1415 112.084 90.9082 111.986 90.7215 111.818C90.5349 111.641 90.4089 111.398 90.3435 111.09H90.2455C89.7789 111.585 89.2982 111.93 88.8035 112.126C88.1315 112.117 87.6042 111.939 87.2215 111.594C86.8389 111.249 86.6475 110.777 86.6475 110.18C86.6475 109.713 86.7642 109.349 86.9975 109.088C87.2402 108.817 87.6042 108.635 88.0895 108.542L90.2315 108.136V107.562C90.2315 106.955 89.9329 106.652 89.3355 106.652C89.0462 106.652 88.7382 106.717 88.4115 106.848C88.0942 106.979 87.7349 107.184 87.3335 107.464L87.1935 107.38L86.9835 106.148C87.3849 105.896 87.8142 105.705 88.2715 105.574C88.7289 105.434 89.1862 105.364 89.6435 105.364ZM88.7335 109.396C88.5842 109.433 88.4722 109.499 88.3975 109.592C88.3322 109.676 88.2995 109.807 88.2995 109.984C88.2995 110.227 88.3649 110.418 88.4955 110.558C88.6262 110.689 88.8082 110.754 89.0415 110.754C89.4055 110.754 89.7882 110.539 90.1895 110.11L90.2175 109.074L88.7335 109.396ZM96.4538 110.628C96.7524 110.628 97.0651 110.549 97.3918 110.39L97.5458 110.53L97.3638 111.636C96.8878 111.879 96.4024 112.028 95.9078 112.084C94.6478 111.953 94.0178 111.337 94.0178 110.236L94.0878 109.074L94.0738 106.666H93.2058L93.1358 106.568L93.2338 105.546H94.0598V104.468L95.7538 103.922L95.8798 104.034L95.8378 105.546H97.5038L97.5598 105.644L97.4758 106.666H95.8098L95.7258 109.802C95.7258 110.101 95.7818 110.315 95.8938 110.446C96.0058 110.567 96.1924 110.628 96.4538 110.628ZM103.497 108.976L99.7165 109.004C99.8005 110.171 100.393 110.754 101.495 110.754C102.073 110.754 102.717 110.591 103.427 110.264L103.581 110.362L103.301 111.748C102.591 112.009 101.924 112.14 101.299 112.14C100.272 112.14 99.4645 111.841 98.8765 111.244C98.2979 110.647 98.0085 109.821 98.0085 108.766C98.0085 107.721 98.2932 106.895 98.8625 106.288C99.4319 105.672 100.202 105.364 101.173 105.364C102.003 105.364 102.643 105.593 103.091 106.05C103.548 106.498 103.777 107.128 103.777 107.94C103.777 108.155 103.753 108.425 103.707 108.752L103.497 108.976ZM102.153 107.73C102.153 107.357 102.069 107.077 101.901 106.89C101.733 106.694 101.485 106.596 101.159 106.596C100.795 106.596 100.491 106.717 100.249 106.96C100.006 107.193 99.8425 107.534 99.7585 107.982L102.125 107.926L102.153 107.73ZM109.881 105.364C110.833 105.364 111.561 105.644 112.065 106.204C112.569 106.764 112.821 107.571 112.821 108.626C112.821 109.765 112.551 110.637 112.009 111.244C111.468 111.841 110.689 112.14 109.671 112.14C108.719 112.14 107.991 111.86 107.487 111.3C106.983 110.74 106.731 109.933 106.731 108.878C106.731 107.739 107.002 106.871 107.543 106.274C108.085 105.667 108.864 105.364 109.881 105.364ZM109.755 106.624C109.307 106.624 108.981 106.773 108.775 107.072C108.579 107.371 108.481 107.851 108.481 108.514C108.481 109.373 108.584 109.984 108.789 110.348C108.995 110.712 109.331 110.894 109.797 110.894C110.245 110.894 110.567 110.749 110.763 110.46C110.969 110.161 111.071 109.676 111.071 109.004C111.071 108.155 110.964 107.548 110.749 107.184C110.544 106.811 110.213 106.624 109.755 106.624ZM46.7597 121.378C47.3943 121.378 47.9917 121.485 48.5517 121.7L48.2997 123.072L48.0757 123.142C47.805 122.965 47.5343 122.829 47.2637 122.736C46.993 122.643 46.755 122.596 46.5497 122.596C46.3257 122.596 46.1483 122.657 46.0177 122.778C45.887 122.89 45.8217 123.03 45.8217 123.198C45.8217 123.394 45.9057 123.553 46.0737 123.674C46.251 123.795 46.5263 123.931 46.8997 124.08C47.273 124.229 47.581 124.374 47.8237 124.514C48.0663 124.654 48.2717 124.85 48.4397 125.102C48.617 125.345 48.7057 125.648 48.7057 126.012C48.7057 126.385 48.6077 126.735 48.4117 127.062C48.225 127.379 47.9357 127.641 47.5437 127.846C47.1517 128.042 46.671 128.14 46.1017 128.14C45.4297 128.14 44.7343 128 44.0157 127.72L44.2257 126.264L44.4077 126.152C44.697 126.395 45.019 126.591 45.3737 126.74C45.7283 126.88 46.041 126.95 46.3117 126.95C46.5637 126.95 46.7597 126.889 46.8997 126.768C47.0397 126.637 47.1097 126.483 47.1097 126.306C47.1097 126.11 47.021 125.951 46.8437 125.83C46.6757 125.709 46.405 125.573 46.0317 125.424C45.649 125.256 45.3363 125.107 45.0937 124.976C44.851 124.836 44.641 124.64 44.4637 124.388C44.2957 124.136 44.2117 123.823 44.2117 123.45C44.2117 122.843 44.4403 122.349 44.8977 121.966C45.355 121.574 45.9757 121.378 46.7597 121.378ZM54.9887 124.976L51.2087 125.004C51.2927 126.171 51.8854 126.754 52.9867 126.754C53.5654 126.754 54.2094 126.591 54.9187 126.264L55.0727 126.362L54.7927 127.748C54.0834 128.009 53.4161 128.14 52.7907 128.14C51.7641 128.14 50.9567 127.841 50.3687 127.244C49.7901 126.647 49.5007 125.821 49.5007 124.766C49.5007 123.721 49.7854 122.895 50.3547 122.288C50.9241 121.672 51.6941 121.364 52.6647 121.364C53.4954 121.364 54.1347 121.593 54.5827 122.05C55.0401 122.498 55.2687 123.128 55.2687 123.94C55.2687 124.155 55.2454 124.425 55.1987 124.752L54.9887 124.976ZM53.6447 123.73C53.6447 123.357 53.5607 123.077 53.3927 122.89C53.2247 122.694 52.9774 122.596 52.6507 122.596C52.2867 122.596 51.9834 122.717 51.7407 122.96C51.4981 123.193 51.3347 123.534 51.2507 123.982L53.6167 123.926L53.6447 123.73ZM61.9842 125.13L62.0262 126.306C62.0262 126.465 62.0449 126.577 62.0822 126.642C62.1289 126.698 62.2082 126.726 62.3202 126.726C62.4229 126.726 62.5489 126.707 62.6982 126.67L62.8242 126.782L62.6702 127.762C62.3529 127.958 62.0076 128.075 61.6342 128.112C61.3449 128.084 61.1022 127.986 60.9062 127.818C60.7102 127.65 60.5749 127.421 60.5002 127.132H60.3882C59.9309 127.552 59.4642 127.874 58.9882 128.098C58.0736 128.098 57.3642 127.809 56.8602 127.23C56.3562 126.642 56.1042 125.83 56.1042 124.794C56.1042 123.693 56.3936 122.848 56.9722 122.26C57.5509 121.672 58.3536 121.378 59.3802 121.378C59.6509 121.378 59.9496 121.406 60.2762 121.462L60.2482 118.312L62.0962 118.172L61.9842 125.13ZM59.2542 122.638C58.3209 122.638 57.8542 123.231 57.8542 124.416C57.8542 125.153 57.9662 125.709 58.1902 126.082C58.4142 126.455 58.7409 126.642 59.1702 126.642C59.5809 126.642 59.9589 126.451 60.3042 126.068L60.3322 125.298L60.2902 122.89C59.9262 122.722 59.5809 122.638 59.2542 122.638ZM68.9614 124.976L65.1814 125.004C65.2654 126.171 65.858 126.754 66.9594 126.754C67.538 126.754 68.182 126.591 68.8914 126.264L69.0454 126.362L68.7654 127.748C68.056 128.009 67.3887 128.14 66.7634 128.14C65.7367 128.14 64.9294 127.841 64.3414 127.244C63.7627 126.647 63.4734 125.821 63.4734 124.766C63.4734 123.721 63.758 122.895 64.3274 122.288C64.8967 121.672 65.6667 121.364 66.6374 121.364C67.468 121.364 68.1074 121.593 68.5554 122.05C69.0127 122.498 69.2414 123.128 69.2414 123.94C69.2414 124.155 69.218 124.425 69.1714 124.752L68.9614 124.976ZM67.6174 123.73C67.6174 123.357 67.5334 123.077 67.3654 122.89C67.1974 122.694 66.95 122.596 66.6234 122.596C66.2594 122.596 65.956 122.717 65.7134 122.96C65.4707 123.193 65.3074 123.534 65.2234 123.982L67.5894 123.926L67.6174 123.73ZM74.5289 123.94C74.5382 123.613 74.4636 123.361 74.3049 123.184C74.1556 122.997 73.9362 122.904 73.6469 122.904C73.2269 122.904 72.7789 123.105 72.3029 123.506V125.13L72.3869 128H70.5249L70.6229 125.312L70.5529 121.616L72.3169 121.462V122.414H72.4149C72.9282 121.947 73.4882 121.611 74.0949 121.406C74.8042 121.406 75.3456 121.569 75.7189 121.896C76.0922 122.213 76.2696 122.675 76.2509 123.282L76.2089 125.144L76.2929 128H74.4169L74.5289 123.94ZM80.5671 126.628C80.8657 126.628 81.1784 126.549 81.5051 126.39L81.6591 126.53L81.4771 127.636C81.0011 127.879 80.5157 128.028 80.0211 128.084C78.7611 127.953 78.1311 127.337 78.1311 126.236L78.2011 125.074L78.1871 122.666H77.3191L77.2491 122.568L77.3471 121.546H78.1731V120.468L79.8671 119.922L79.9931 120.034L79.9511 121.546H81.6171L81.6731 121.644L81.5891 122.666H79.9231L79.8391 125.802C79.8391 126.101 79.8951 126.315 80.0071 126.446C80.1191 126.567 80.3057 126.628 80.5671 126.628ZM85.2275 121.364C85.9462 121.364 86.5062 121.527 86.9075 121.854C87.3182 122.171 87.5235 122.619 87.5235 123.198C87.5235 123.366 87.4955 123.898 87.4395 124.794C87.4302 125.055 87.4162 125.326 87.3975 125.606C87.3789 125.877 87.3695 126.11 87.3695 126.306C87.3695 126.465 87.3929 126.577 87.4395 126.642C87.4862 126.698 87.5702 126.726 87.6915 126.726C87.7849 126.726 87.9062 126.707 88.0555 126.67L88.1955 126.782L88.0275 127.762C87.7289 127.958 87.3882 128.075 87.0055 128.112C86.7255 128.084 86.4922 127.986 86.3055 127.818C86.1189 127.641 85.9929 127.398 85.9275 127.09H85.8295C85.3629 127.585 84.8822 127.93 84.3875 128.126C83.7155 128.117 83.1882 127.939 82.8055 127.594C82.4229 127.249 82.2315 126.777 82.2315 126.18C82.2315 125.713 82.3482 125.349 82.5815 125.088C82.8242 124.817 83.1882 124.635 83.6735 124.542L85.8155 124.136V123.562C85.8155 122.955 85.5169 122.652 84.9195 122.652C84.6302 122.652 84.3222 122.717 83.9955 122.848C83.6782 122.979 83.3189 123.184 82.9175 123.464L82.7775 123.38L82.5675 122.148C82.9689 121.896 83.3982 121.705 83.8555 121.574C84.3129 121.434 84.7702 121.364 85.2275 121.364ZM84.3175 125.396C84.1682 125.433 84.0562 125.499 83.9815 125.592C83.9162 125.676 83.8835 125.807 83.8835 125.984C83.8835 126.227 83.9489 126.418 84.0795 126.558C84.2102 126.689 84.3922 126.754 84.6255 126.754C84.9895 126.754 85.3722 126.539 85.7735 126.11L85.8015 125.074L84.3175 125.396ZM92.9217 121.476C93.0057 121.476 93.1224 121.485 93.2717 121.504V123.226L93.0757 123.296C92.9171 123.231 92.7444 123.198 92.5577 123.198C92.0164 123.198 91.5264 123.548 91.0877 124.248V125.13L91.1857 128H89.3237L89.4357 125.312L89.3517 121.616L91.1157 121.462L91.1017 122.736H91.2137C91.6711 121.896 92.2404 121.476 92.9217 121.476ZM94.3169 125.312L94.2469 121.616L96.0809 121.462L95.9969 125.13L96.0809 128H94.2189L94.3169 125.312ZM95.1989 118.298C95.4882 118.298 95.7122 118.382 95.8709 118.55C96.0389 118.718 96.1229 118.951 96.1229 119.25C96.1229 119.567 96.0342 119.819 95.8569 120.006C95.6796 120.193 95.4369 120.286 95.1289 120.286C94.8209 120.286 94.5829 120.202 94.4149 120.034C94.2562 119.866 94.1769 119.628 94.1769 119.32C94.1769 119.012 94.2656 118.765 94.4429 118.578C94.6296 118.391 94.8816 118.298 95.1989 118.298ZM100.025 121.378C100.66 121.378 101.257 121.485 101.817 121.7L101.565 123.072L101.341 123.142C101.071 122.965 100.8 122.829 100.529 122.736C100.259 122.643 100.021 122.596 99.8153 122.596C99.5913 122.596 99.414 122.657 99.2833 122.778C99.1526 122.89 99.0873 123.03 99.0873 123.198C99.0873 123.394 99.1713 123.553 99.3393 123.674C99.5166 123.795 99.792 123.931 100.165 124.08C100.539 124.229 100.847 124.374 101.089 124.514C101.332 124.654 101.537 124.85 101.705 125.102C101.883 125.345 101.971 125.648 101.971 126.012C101.971 126.385 101.873 126.735 101.677 127.062C101.491 127.379 101.201 127.641 100.809 127.846C100.417 128.042 99.9366 128.14 99.3673 128.14C98.6953 128.14 98 128 97.2813 127.72L97.4913 126.264L97.6733 126.152C97.9626 126.395 98.2846 126.591 98.6393 126.74C98.994 126.88 99.3066 126.95 99.5773 126.95C99.8293 126.95 100.025 126.889 100.165 126.768C100.305 126.637 100.375 126.483 100.375 126.306C100.375 126.11 100.287 125.951 100.109 125.83C99.9413 125.709 99.6706 125.573 99.2973 125.424C98.9146 125.256 98.602 125.107 98.3593 124.976C98.1166 124.836 97.9066 124.64 97.7293 124.388C97.5613 124.136 97.4773 123.823 97.4773 123.45C97.4773 122.843 97.706 122.349 98.1633 121.966C98.6206 121.574 99.2413 121.378 100.025 121.378ZM111.012 128L111.124 123.94C111.124 123.249 110.83 122.904 110.242 122.904C109.822 122.904 109.384 123.091 108.926 123.464L108.884 125.144L108.968 128H107.106L107.218 123.94C107.228 123.604 107.153 123.347 106.994 123.17C106.845 122.993 106.626 122.904 106.336 122.904C105.926 122.904 105.473 123.1 104.978 123.492V125.13L105.062 128H103.214L103.312 125.312L103.242 121.616L104.992 121.462V122.414H105.09C105.604 121.947 106.168 121.611 106.784 121.406C107.83 121.406 108.497 121.756 108.786 122.456H108.87C109.402 121.961 110.009 121.611 110.69 121.406C111.4 121.406 111.936 121.569 112.3 121.896C112.674 122.213 112.851 122.675 112.832 123.282L112.79 125.144L112.874 128H111.012ZM117.209 121.364C118.161 121.364 118.889 121.644 119.393 122.204C119.897 122.764 120.149 123.571 120.149 124.626C120.149 125.765 119.879 126.637 119.337 127.244C118.796 127.841 118.017 128.14 116.999 128.14C116.047 128.14 115.319 127.86 114.815 127.3C114.311 126.74 114.059 125.933 114.059 124.878C114.059 123.739 114.33 122.871 114.871 122.274C115.413 121.667 116.192 121.364 117.209 121.364ZM117.083 122.624C116.635 122.624 116.309 122.773 116.103 123.072C115.907 123.371 115.809 123.851 115.809 124.514C115.809 125.373 115.912 125.984 116.117 126.348C116.323 126.712 116.659 126.894 117.125 126.894C117.573 126.894 117.895 126.749 118.091 126.46C118.297 126.161 118.399 125.676 118.399 125.004C118.399 124.155 118.292 123.548 118.077 123.184C117.872 122.811 117.541 122.624 117.083 122.624ZM121.717 126.11C122.006 126.11 122.23 126.194 122.389 126.362C122.557 126.53 122.641 126.763 122.641 127.062C122.641 127.379 122.552 127.631 122.375 127.818C122.198 128.005 121.955 128.098 121.647 128.098C121.339 128.098 121.101 128.014 120.933 127.846C120.774 127.678 120.695 127.44 120.695 127.132C120.695 126.824 120.784 126.577 120.961 126.39C121.148 126.203 121.4 126.11 121.717 126.11Z" fill="white"/>
<defs>
<filter id="filter0_b_136:22538" x="3" y="67" width="161" height="97" filterUnits="userSpaceOnUse" color-interpolation-filters="sRGB">
<feFlood flood-opacity="0" result="BackgroundImageFix"/>
<feGaussianBlur in="BackgroundImage" stdDeviation="5"/>
<feComposite in2="SourceAlpha" operator="in" result="effect1_backgroundBlur_136:22538"/>
<feBlend mode="normal" in="SourceGraphic" in2="effect1_backgroundBlur_136:22538" result="shape"/>
</filter>
</defs>
</svg>
