<svg width="167" height="167" viewBox="0 0 167 167" fill="none" xmlns="http://www.w3.org/2000/svg">
<mask id="mask0_136:22416" style="mask-type:alpha" maskUnits="userSpaceOnUse" x="0" y="0" width="167" height="167">
<rect x="1" y="1" width="165" height="165" rx="8" fill="#5988D6" stroke="#EDE6FC" stroke-opacity="0.3"/>
</mask>
<g mask="url(#mask0_136:22416)">
<rect x="1" y="1" width="165" height="165" rx="8" fill="#7AC2D9" stroke="#EDE6FC" stroke-opacity="0.3"/>
<path d="M63.4364 163.016L70.5688 187.604C71.5741 191.616 71.8269 195.78 71.3145 199.884C71.3145 199.884 76.2293 201.013 79.4843 199.366C82.2465 197.965 83.1737 196.577 83.1737 196.577L82.3502 190.152L79.1082 162.044L63.4364 163.016Z" fill="#FFA8A7"/>
<path d="M83.1607 196.577L82.3372 190.152L79.0952 162.044L73.2596 162.478C73.8238 170.518 76.2942 191.008 76.9555 196.454C76.9555 196.454 77.1371 197.894 77.3575 200.053C78.0995 199.925 78.8198 199.694 79.4973 199.366C82.2335 197.965 83.1607 196.577 83.1607 196.577Z" fill="#F28F8F"/>
<path d="M70.6725 95.4919C65.6993 112.817 58.9105 147.04 61.2901 156.202C63.0667 163.068 67.197 177.21 67.197 177.21C70.1926 177.638 78.985 178.176 81.3711 172.917C81.9806 164.397 111.392 94.5128 111.392 94.5128L70.6725 95.4919Z" fill="#37474F"/>
<path opacity="0.25" d="M74.6796 177.164C73.8756 169.889 73.1364 162.536 73.1169 160.111C73.065 154.276 82.5447 117.758 82.5447 117.758C76.8841 112.097 76.2487 107.993 76.2487 107.993C78.9372 111.4 81.8692 114.607 85.0215 117.589L80.4827 174.305C79.0692 176.425 76.3784 177.022 74.6796 177.164Z" fill="black"/>
<path d="M72.3 100.271C76.3526 108.7 77.9476 112.039 85.0217 117.589C85.0217 117.589 76.1192 153.582 75.983 160.578C75.795 170.129 77.1306 181.327 77.6623 189.192C79.0045 190.949 88.3934 192.214 91.7975 189.627C93.01 184.284 94.4235 177.696 94.9617 173.274C96.0834 164.086 94.5532 162.374 94.3716 160.144C100.441 148.272 107.839 134.033 112.916 122.277C114.213 119.223 114.654 114.497 114.861 112.59C115.691 104.809 113.26 98.6626 111.392 94.5128L72.3 100.271Z" fill="#37474F"/>
<path d="M67.1322 75.3201C65.2749 75.7362 63.351 75.7583 61.4846 75.3849C58.7354 74.7365 57.082 72.4996 55.4675 70.3923C54.0475 68.5508 53.814 65.432 54.229 63.2599C54.7218 60.6663 57.8147 59.2203 58.1843 56.5684C58.5344 54.1044 57.8536 51.6016 58.8327 49.2155C59.9674 46.4728 62.4183 45.0852 65.2129 44.547C66.7626 44.2488 68.4549 44.547 69.9268 43.944C71.872 43.1919 71.8201 41.4282 71.8331 39.6321C71.8331 35.2554 76.0607 33.9911 79.6139 33.1027C81.6823 32.5905 83.5497 31.9486 84.5677 29.9191C85.4755 28.1101 84.9956 25.925 85.4754 24.0057C86.3767 20.433 89.0093 18.0339 92.2318 16.3611C95.1172 14.8697 95.1755 12.3604 98.4175 12.6003C100.843 10.8107 105.932 11.5823 109.525 15.155C111.976 17.593 112.079 21.9632 111.963 24.881C111.843 27.6589 110.883 30.3349 109.209 32.5547C107.534 34.7744 105.225 36.4331 102.587 37.3109C100.852 37.7775 99.238 38.6111 97.8534 39.7553C96.7265 40.664 95.8458 41.8412 95.2922 43.1789C94.391 45.6882 94.6827 48.5995 94.8383 51.1996C95.1625 56.5748 94.592 62.3132 89.1259 64.9198C86.4999 66.1712 83.5497 66.022 80.7875 66.8001C78.4727 67.4485 75.918 67.9867 74.5758 70.1588C72.9937 72.7524 71.2366 74.3734 68.228 75.1385C67.8844 75.171 67.5083 75.2488 67.1322 75.3201Z" fill="#37474F"/>
<path d="M98.0349 12.4254C98.6728 12.2324 99.3448 12.1794 100.005 12.2701C100.665 12.3607 101.298 12.5928 101.86 12.9506C102.425 13.2608 102.888 13.729 103.191 14.2979C103.494 14.8668 103.624 15.5118 103.566 16.1537C103.566 16.1537 100.92 13.3202 98.0349 12.4254Z" fill="#27DEBF"/>
<path d="M83.5822 47.614C74.5046 47.426 71.3663 49.8769 65.8549 52.4122C63.5596 53.469 58.8976 56.1275 54.2291 58.8637C55.0201 52.4316 56.3364 47.0823 57.296 45.0398L58.0028 37.5638C57.8372 37.4129 57.7075 37.2269 57.6234 37.0193C57.5392 36.8117 57.5027 36.5878 57.5165 36.3642C57.5813 35.7158 57.5489 35.0091 57.5554 34.3283C57.5623 32.8117 57.651 31.2965 57.8212 29.7895C58.0117 28.4246 58.3065 27.0762 58.7031 25.7564C59.0208 24.6282 59.0856 22.9359 57.4776 22.9813C57.0821 23.0496 56.6951 23.1605 56.3234 23.3119C55.5648 23.4935 54.8775 23.0267 54.1578 22.9359C53.438 22.8451 52.8221 23.513 52.2515 23.889C51.6939 24.1351 51.108 24.3115 50.5073 24.4142C49.9558 24.7005 49.4597 25.0826 49.0419 25.5424C48.2606 26.2289 47.6501 27.0881 47.2588 28.0518C46.9849 28.6672 46.7574 29.3023 46.578 29.9516C46.2208 31.1905 45.982 32.4606 45.8647 33.7447C45.6671 35.6703 45.6151 37.608 45.7091 39.5414C45.774 40.8382 46.0787 42.135 46.0787 43.4318C46.0787 44.7286 45.936 45.604 45.145 47.8474C44.5549 49.5268 42.9275 54.3833 40.9952 59.7196C39.6984 63.3053 36.6963 71.2223 38.7518 75.5276C40.8072 79.833 45.6702 78.6918 51.4799 76.176C59.7146 72.934 79.6788 63.8953 79.6788 63.8953L83.5822 47.614Z" fill="#FFA8A7"/>
<path d="M54.2291 58.8638C53.7298 62.644 53.665 66.6446 51.5966 70.3016C51.5966 70.3016 55.9798 66.4112 57.095 57.1909L54.2291 58.8638Z" fill="#F28F8F"/>
<path d="M96.3815 47.4519L104.363 48.2041C108.403 49.1961 109.972 51.1672 110.387 54.7529C110.582 56.4193 110.517 66.2685 109.155 71.8512C107.742 77.6479 106.983 82.485 106.983 82.485C108.889 86.3205 110.368 90.3541 111.392 94.5128C97.0235 103.889 76.6313 101.159 70.6725 95.4919C72.086 90.3047 73.0521 88.1909 74.2581 84.5339C74.2581 84.5339 72.4102 78.6983 72.6436 74.7431C67.1646 69.2187 68.3123 63.6165 70.7632 59.9012C75.1723 53.2162 81.7471 47.5816 83.5821 47.614L96.3815 47.4519Z" fill="#FFA8A7"/>
<path d="M104.363 48.2041L96.3815 47.4519L83.5821 47.614C81.7471 47.614 75.1529 53.2162 70.7632 59.9012C68.3123 63.6165 67.1646 69.2187 72.6436 74.7431C72.5983 76.2359 72.7135 77.7293 72.9872 79.1976C72.9872 79.1976 87.3428 87.3091 107.664 78.7048C108.027 76.8439 108.526 74.4448 109.155 71.8512C110.517 66.2685 110.582 56.4193 110.387 54.7529C109.972 51.1802 108.403 49.1961 104.363 48.2041Z" fill="#455A64"/>
<path d="M98.0154 42.1545C97.9247 41.2856 100.531 39.4377 101.75 38.3484C104.499 35.8909 106.289 34.1338 106.989 29.1476C107.806 23.3638 106.86 17.4764 100.097 13.4368C94.3649 10.0068 82.0778 9.17684 78.531 17.82L98.0154 42.1545Z" fill="#455A64"/>
<path d="M83.1477 13.8777C79.8084 15.0707 76.8647 18.0663 75.529 28.4667C74.4008 37.2785 76.9166 39.885 78.2523 40.7279C79.588 41.5709 82.3307 42.0831 85.0734 42.0247L85.7672 48.4115C85.7672 48.4115 80.8912 53.3847 82.0908 57.9106C94.1899 56.3155 98.7222 49.0275 98.7222 49.0275L97.4254 36.1697C97.8832 36.6256 98.4739 36.9246 99.1124 37.0236C99.7508 37.1227 100.404 37.0166 100.979 36.7208C104.273 35.2814 104.804 31.3391 103.345 29.3291C103.045 28.8792 102.637 28.5116 102.159 28.2597C101.68 28.0077 101.147 27.8795 100.606 27.8866C100.065 27.8937 99.5349 28.0359 99.0632 28.3003C98.5915 28.5647 98.1935 28.9429 97.9053 29.4004C97.9053 29.4004 100.22 21.1592 95.9601 17.0808C90.9415 12.3539 87.064 12.4771 83.1477 13.8777Z" fill="#FFA8A7"/>
<path d="M84.2889 23.2147L82.4475 31.6569L78.2523 29.7441L84.2889 23.2147Z" fill="#F28F8F"/>
<path d="M85.0734 42.0442C87.5762 41.9275 92.7051 41.2856 95.5515 37.3693C95.0896 38.8987 94.2252 40.276 93.0487 41.3569C90.3902 43.5226 85.3327 44.4044 85.3327 44.4044L85.0734 42.0442Z" fill="#F28F8F"/>
<path d="M88.7693 22.3134L91.1035 24.6412C91.4115 24.319 91.5834 23.8905 91.5834 23.4448C91.5834 22.9992 91.4115 22.5707 91.1035 22.2485C90.9489 22.0941 90.7644 21.9728 90.5614 21.892C90.3583 21.8113 90.1409 21.7728 89.9225 21.7788C89.704 21.7849 89.4891 21.8354 89.2908 21.9273C89.0925 22.0192 88.9151 22.1506 88.7693 22.3134Z" fill="#263238"/>
<path d="M78.0707 21.8077L81.2803 20.9648C81.2354 20.7558 81.1489 20.5579 81.0259 20.3829C80.903 20.208 80.7461 20.0595 80.5646 19.9464C80.3832 19.8333 80.1808 19.7578 79.9696 19.7245C79.7584 19.6911 79.5426 19.7006 79.3351 19.7523C78.9001 19.8659 78.5257 20.1431 78.2901 20.5261C78.0545 20.909 77.9759 21.3682 78.0707 21.8077Z" fill="#263238"/>
<path d="M89.4112 27.4358C89.4112 27.4358 89.4955 26.4891 88.0561 25.9185C87.1807 25.5683 86.4156 25.6786 85.9941 26.2557C87.208 26.3843 88.3766 26.7879 89.4112 27.4358Z" fill="#263238"/>
<path d="M77.526 24.92C77.526 24.92 77.8113 24.0122 79.3545 24.0317C80.2947 24.0317 80.9626 24.4402 81.1247 25.134C79.9577 24.7862 78.726 24.7129 77.526 24.92Z" fill="#263238"/>
<path d="M85.6893 17.5607C87.038 17.9692 88.9313 15.8813 91.5833 17.204C94.4168 18.624 93.0616 21.8336 94.9614 23.928C96.4009 25.5101 94.3131 29.1476 95.96 30.1396C96.6927 30.5741 97.9052 29.4199 97.9052 29.4199C97.9052 29.4199 99.6688 27.3775 99.9476 22.2097C100.226 17.0419 93.8332 12.782 88.9248 11.965C86.7918 11.6352 84.6099 12.0311 82.7288 13.0892C80.8476 14.1474 79.3762 15.8065 78.5504 17.8006C78.5504 17.8006 80.4632 15.5117 82.8234 15.4404C85.1836 15.3691 84.4703 17.1911 85.6893 17.5607Z" fill="#455A64"/>
<path d="M101.77 108.888C100.884 108.907 100.012 108.661 99.2669 108.181C98.7287 107.753 98.0479 107.15 98.2943 106.372C98.3915 106.067 98.6898 106.022 98.9816 105.989C99.63 105.912 100.201 105.847 100.81 105.75C101.762 105.564 102.7 105.313 103.618 104.997C104.897 104.661 106.196 104.405 107.508 104.232C108.126 104.096 108.734 103.92 109.33 103.707C110.293 103.427 111.164 102.894 111.852 102.164C112.489 101.486 113.058 100.747 113.551 99.9593C115.027 97.531 116.304 94.9875 117.37 92.3536C118.498 89.76 119.542 87.095 120.716 84.5079C117.526 80.3193 107.19 66.0869 107.19 66.0869C102.185 59.765 101.763 52.9762 103.494 48.1521C110.4 47.9122 112.857 47.9641 117.694 54.3249C122.162 60.2578 127.129 68.687 131.92 77.1162C134.566 81.7911 136.044 83.4381 133.301 88.1844C130.319 93.3716 123.575 102.78 120.612 106.618C117.584 110.561 115.84 113.9 111.586 116.941C109.302 116.027 107.377 114.395 106.101 112.292C105.709 111.644 105.385 110.958 105.135 110.243C105.057 110.016 104.966 109.802 104.876 109.595C104.785 109.387 104.876 109.173 104.7 109.063C104.525 108.953 104.02 108.992 103.812 108.985C103.131 108.979 102.444 108.966 101.77 108.888Z" fill="#FFA8A7"/>
<path d="M76.4885 36.5393C76.3017 35.8759 76.2742 35.1777 76.4083 34.5017C76.5424 33.8256 76.8343 33.1908 77.2601 32.6489C77.404 32.4442 77.6003 32.282 77.8285 32.1793C78.0567 32.0766 78.3083 32.0373 78.5569 32.0653L78.9978 32.1561C79.2359 32.2245 79.4513 32.3557 79.6212 32.5359C79.7912 32.7162 79.9096 32.9388 79.9639 33.1806C80.1506 33.8436 80.1786 34.5412 80.0456 35.2171C79.9127 35.8929 79.6226 36.528 79.1988 37.071C79.054 37.2746 78.8575 37.4361 78.6296 37.5386C78.4016 37.6412 78.1505 37.6812 77.902 37.6545L77.4611 37.5637C77.2224 37.4951 77.0064 37.3639 76.8354 37.1838C76.6644 37.0037 76.5447 36.7812 76.4885 36.5393Z" fill="#27DEBF"/>
<path opacity="0.5" d="M76.4885 36.5393C76.3017 35.8759 76.2742 35.1777 76.4083 34.5017C76.5424 33.8256 76.8343 33.1908 77.2601 32.6489C77.404 32.4442 77.6003 32.282 77.8285 32.1793C78.0567 32.0766 78.3083 32.0373 78.5569 32.0653L78.9978 32.1561C79.2359 32.2245 79.4513 32.3557 79.6212 32.5359C79.7912 32.7162 79.9096 32.9388 79.9639 33.1806C80.1506 33.8436 80.1786 34.5412 80.0456 35.2171C79.9127 35.8929 79.6226 36.528 79.1988 37.071C79.054 37.2746 78.8575 37.4361 78.6296 37.5386C78.4016 37.6412 78.1505 37.6812 77.902 37.6545L77.4611 37.5637C77.2224 37.4951 77.0064 37.3639 76.8354 37.1838C76.6644 37.0037 76.5447 36.7812 76.4885 36.5393Z" fill="white"/>
<path d="M79.5036 33.0963C79.0951 31.8968 78.0901 31.6958 77.2601 32.6489C76.8343 33.1908 76.5424 33.8257 76.4083 34.5017C76.2742 35.1778 76.3017 35.8759 76.4885 36.5393C76.897 37.7389 77.902 37.9334 78.7385 36.9867C79.1623 36.4438 79.4524 35.8087 79.5853 35.1328C79.7182 34.457 79.6902 33.7593 79.5036 33.0963Z" fill="#27DEBF"/>
<path opacity="0.5" d="M79.5036 33.0963C79.0951 31.8968 78.0901 31.6958 77.2601 32.6489C76.8343 33.1908 76.5424 33.8257 76.4083 34.5017C76.2742 35.1778 76.3017 35.8759 76.4885 36.5393C76.897 37.7389 77.902 37.9334 78.7385 36.9867C79.1623 36.4438 79.4524 35.8087 79.5853 35.1328C79.7182 34.457 79.6902 33.7593 79.5036 33.0963Z" fill="white"/>
<path opacity="0.1" d="M79.5036 33.0963C79.0951 31.8968 78.0901 31.6958 77.2601 32.6489C76.8343 33.1908 76.5424 33.8257 76.4083 34.5017C76.2742 35.1778 76.3017 35.8759 76.4885 36.5393C76.897 37.7389 77.902 37.9334 78.7385 36.9867C79.1623 36.4438 79.4524 35.8087 79.5853 35.1328C79.7182 34.457 79.6902 33.7593 79.5036 33.0963Z" fill="black"/>
<path d="M75.8985 36.4226C75.7118 35.7592 75.6843 35.061 75.8184 34.385C75.9524 33.7089 76.2443 33.0741 76.6701 32.5322C76.8135 32.327 77.0098 32.1644 77.2381 32.0617C77.4664 31.9589 77.7182 31.9199 77.9669 31.9486L78.4078 32.0394C78.6453 32.1091 78.86 32.2407 79.0298 32.4207C79.1996 32.6008 79.3183 32.8227 79.374 33.0639C79.5613 33.7273 79.589 34.4255 79.4549 35.1017C79.3208 35.7778 79.0287 36.4126 78.6024 36.9543C78.458 37.1585 78.2616 37.3203 78.0335 37.4229C77.8055 37.5255 77.5541 37.5652 77.3056 37.5379L76.8647 37.4471C76.6265 37.3787 76.4112 37.2475 76.2412 37.0672C76.0712 36.887 75.9529 36.6643 75.8985 36.4226Z" fill="#27DEBF"/>
<path opacity="0.5" d="M75.8985 36.4226C75.7118 35.7592 75.6843 35.061 75.8184 34.385C75.9524 33.7089 76.2443 33.0741 76.6701 32.5322C76.8135 32.327 77.0098 32.1644 77.2381 32.0617C77.4664 31.9589 77.7182 31.9199 77.9669 31.9486L78.4078 32.0394C78.6453 32.1091 78.86 32.2407 79.0298 32.4207C79.1996 32.6008 79.3183 32.8227 79.374 33.0639C79.5613 33.7273 79.589 34.4255 79.4549 35.1017C79.3208 35.7778 79.0287 36.4126 78.6024 36.9543C78.458 37.1585 78.2616 37.3203 78.0335 37.4229C77.8055 37.5255 77.5541 37.5652 77.3056 37.5379L76.8647 37.4471C76.6265 37.3787 76.4112 37.2475 76.2412 37.0672C76.0712 36.887 75.9529 36.6643 75.8985 36.4226Z" fill="white"/>
<path d="M78.9136 32.9796C78.5051 31.7801 77.5001 31.5791 76.6701 32.5322C76.2443 33.0741 75.9524 33.709 75.8184 34.385C75.6843 35.0611 75.7118 35.7592 75.8985 36.4226C76.307 37.6222 77.312 37.8167 78.142 36.87C78.5678 36.3281 78.8597 35.6933 78.9938 35.0172C79.1278 34.3412 79.1004 33.643 78.9136 32.9796Z" fill="#27DEBF"/>
<path opacity="0.5" d="M78.9136 32.9796C78.5051 31.7801 77.5001 31.5791 76.6701 32.5322C76.2443 33.0741 75.9524 33.709 75.8184 34.385C75.6843 35.0611 75.7118 35.7592 75.8985 36.4226C76.307 37.6222 77.312 37.8167 78.142 36.87C78.5678 36.3281 78.8597 35.6933 78.9938 35.0172C79.1278 34.3412 79.1004 33.643 78.9136 32.9796Z" fill="white"/>
<path opacity="0.1" d="M78.9136 32.9796C78.5051 31.7801 77.5001 31.5791 76.6701 32.5322C76.2443 33.0741 75.9524 33.709 75.8184 34.385C75.6843 35.0611 75.7118 35.7592 75.8985 36.4226C76.307 37.6222 77.312 37.8167 78.142 36.87C78.5678 36.3281 78.8597 35.6933 78.9938 35.0172C79.1278 34.3412 79.1004 33.643 78.9136 32.9796Z" fill="black"/>
<path d="M75.3085 36.3059C75.1219 35.6428 75.0939 34.9452 75.2268 34.2694C75.3597 33.5935 75.6498 32.9584 76.0736 32.4155C76.218 32.2113 76.4144 32.0495 76.6425 31.9468C76.8705 31.8442 77.1219 31.8045 77.3704 31.8319L77.8178 31.9227C78.0553 31.9923 78.27 32.1239 78.4397 32.304C78.6095 32.484 78.7283 32.706 78.7839 32.9471C78.9681 33.6108 78.9943 34.3084 78.8603 34.984C78.7263 35.6596 78.4359 36.2944 78.0123 36.8375C77.8686 37.0421 77.6721 37.2038 77.4438 37.3054C77.2154 37.4071 76.9637 37.4448 76.7155 37.4146L76.2746 37.3303C76.0368 37.2613 75.8218 37.1299 75.6519 36.9498C75.4821 36.7696 75.3635 36.5473 75.3085 36.3059Z" fill="#27DEBF"/>
<path opacity="0.5" d="M75.3085 36.3059C75.1219 35.6428 75.0939 34.9452 75.2268 34.2694C75.3597 33.5935 75.6498 32.9584 76.0736 32.4155C76.218 32.2113 76.4144 32.0495 76.6425 31.9468C76.8705 31.8442 77.1219 31.8045 77.3704 31.8319L77.8178 31.9227C78.0553 31.9923 78.27 32.1239 78.4397 32.304C78.6095 32.484 78.7283 32.706 78.7839 32.9471C78.9681 33.6108 78.9943 34.3084 78.8603 34.984C78.7263 35.6596 78.4359 36.2944 78.0123 36.8375C77.8686 37.0421 77.6721 37.2038 77.4438 37.3054C77.2154 37.4071 76.9637 37.4448 76.7155 37.4146L76.2746 37.3303C76.0368 37.2613 75.8218 37.1299 75.6519 36.9498C75.4821 36.7696 75.3635 36.5473 75.3085 36.3059Z" fill="white"/>
<path d="M78.3236 32.8629C77.9151 31.6634 76.9101 31.4624 76.0736 32.4155C75.6498 32.9585 75.3597 33.5936 75.2268 34.2694C75.0939 34.9453 75.1219 35.6429 75.3085 36.3059C75.717 37.5055 76.722 37.7 77.552 36.7468C77.9768 36.2057 78.2681 35.572 78.4021 34.8971C78.5362 34.2223 78.5093 33.5254 78.3236 32.8629Z" fill="#27DEBF"/>
<path opacity="0.1" d="M78.3236 32.8629C77.9151 31.6634 76.9101 31.4624 76.0736 32.4155C75.6498 32.9585 75.3597 33.5936 75.2268 34.2694C75.0939 34.9453 75.1219 35.6429 75.3085 36.3059C75.717 37.5055 76.722 37.7 77.552 36.7468C77.9768 36.2057 78.2681 35.572 78.4021 34.8971C78.5362 34.2223 78.5093 33.5254 78.3236 32.8629Z" fill="black"/>
<path opacity="0.7" d="M78.0706 33.1676C77.74 32.182 76.91 32.0134 76.2227 32.798C75.8709 33.2436 75.6289 33.7657 75.5163 34.3222C75.4036 34.8786 75.4235 35.4538 75.5743 36.0011C75.9115 36.9867 76.7349 37.1488 77.4222 36.3642C77.7754 35.9206 78.0182 35.3996 78.131 34.8439C78.2437 34.2882 78.223 33.7137 78.0706 33.1676Z" fill="#27DEBF"/>
<path opacity="0.3" d="M78.0706 33.1676C77.74 32.182 76.91 32.0134 76.2227 32.798C75.8709 33.2436 75.6289 33.7657 75.5163 34.3222C75.4036 34.8786 75.4235 35.4538 75.5743 36.0011C75.9115 36.9867 76.7349 37.1488 77.4222 36.3642C77.7754 35.9206 78.0182 35.3996 78.131 34.8439C78.2437 34.2882 78.223 33.7137 78.0706 33.1676Z" fill="white"/>
<path opacity="0.1" d="M77.6102 33.0769C77.6954 32.9782 77.7911 32.8891 77.8955 32.811C77.9613 32.9233 78.0136 33.043 78.0511 33.1677C78.2035 33.7138 78.2242 34.2883 78.1115 34.844C77.9988 35.3996 77.7558 35.9207 77.4027 36.3643C77.3192 36.4646 77.2234 36.5539 77.1175 36.6301C77.0532 36.5184 76.999 36.4012 76.9554 36.28C76.8054 35.7321 76.7866 35.1567 76.9003 34.6002C77.0141 34.0438 77.2573 33.5219 77.6102 33.0769Z" fill="black"/>
<path d="M74.6795 36.1827C74.4928 35.5193 74.4653 34.8211 74.5994 34.1451C74.7335 33.469 75.0253 32.8342 75.4511 32.2923C75.595 32.0876 75.7914 31.9254 76.0195 31.8227C76.2477 31.7201 76.4993 31.6807 76.7479 31.7087L77.1953 31.793C77.4327 31.865 77.6469 31.9982 77.8164 32.1791C77.986 32.3601 78.105 32.5825 78.1615 32.824C78.3451 33.4877 78.371 34.1852 78.237 34.8607C78.1031 35.5362 77.8129 36.171 77.3899 36.7144C77.2465 36.9196 77.0502 37.0822 76.8219 37.1849C76.5936 37.2877 76.3418 37.3267 76.0931 37.298L75.6521 37.2072C75.4128 37.1398 75.1961 37.009 75.025 36.8287C74.8538 36.6484 74.7344 36.4252 74.6795 36.1827Z" fill="#27DEBF"/>
<path opacity="0.3" d="M74.6795 36.1827C74.4928 35.5193 74.4653 34.8211 74.5994 34.1451C74.7335 33.469 75.0253 32.8342 75.4511 32.2923C75.595 32.0876 75.7914 31.9254 76.0195 31.8227C76.2477 31.7201 76.4993 31.6807 76.7479 31.7087L77.1953 31.793C77.4327 31.865 77.6469 31.9982 77.8164 32.1791C77.986 32.3601 78.105 32.5825 78.1615 32.824C78.3451 33.4877 78.371 34.1852 78.237 34.8607C78.1031 35.5362 77.8129 36.171 77.3899 36.7144C77.2465 36.9196 77.0502 37.0822 76.8219 37.1849C76.5936 37.2877 76.3418 37.3267 76.0931 37.298L75.6521 37.2072C75.4128 37.1398 75.1961 37.009 75.025 36.8287C74.8538 36.6484 74.7344 36.4252 74.6795 36.1827Z" fill="black"/>
<path d="M77.7011 32.7332C77.2926 31.5337 76.2811 31.3392 75.4511 32.2923C75.0253 32.8342 74.7335 33.4691 74.5994 34.1451C74.4653 34.8211 74.4928 35.5193 74.6795 36.1827C75.088 37.3823 76.093 37.5833 76.9295 36.6301C77.3545 36.0865 77.6458 35.4506 77.7798 34.7737C77.9138 34.0967 77.8869 33.3978 77.7011 32.7332Z" fill="#27DEBF"/>
<path opacity="0.5" d="M77.7011 32.7332C77.2926 31.5337 76.2811 31.3392 75.4511 32.2923C75.0253 32.8342 74.7335 33.4691 74.5994 34.1451C74.4653 34.8211 74.4928 35.5193 74.6795 36.1827C75.088 37.3823 76.093 37.5833 76.9295 36.6301C77.3545 36.0865 77.6458 35.4506 77.7798 34.7737C77.9138 34.0967 77.8869 33.3978 77.7011 32.7332Z" fill="black"/>
<path d="M73.9857 36.1039C73.7953 35.4207 73.7677 34.7023 73.905 34.0064C74.0424 33.3105 74.341 32.6565 74.7768 32.0968C74.9215 31.8922 75.1175 31.7294 75.3452 31.6247C75.5728 31.52 75.824 31.4771 76.0736 31.5003L76.5274 31.5911C76.7737 31.6609 76.9965 31.796 77.1722 31.982C77.348 32.1681 77.4702 32.3982 77.526 32.648C77.7144 33.3308 77.7405 34.0482 77.602 34.7429C77.4635 35.4376 77.1643 36.0902 76.7284 36.6486C76.585 36.8548 76.3893 37.0193 76.1615 37.1253C75.9337 37.2312 75.6818 37.2748 75.4316 37.2516L74.9778 37.1608C74.733 37.0894 74.512 36.9537 74.3375 36.7678C74.163 36.5819 74.0416 36.3527 73.9857 36.1039Z" fill="#27DEBF"/>
<path opacity="0.5" d="M73.9857 36.1039C73.7953 35.4207 73.7677 34.7023 73.905 34.0064C74.0424 33.3105 74.341 32.6565 74.7768 32.0968C74.9215 31.8922 75.1175 31.7294 75.3452 31.6247C75.5728 31.52 75.824 31.4771 76.0736 31.5003L76.5274 31.5911C76.7737 31.6609 76.9965 31.796 77.1722 31.982C77.348 32.1681 77.4702 32.3982 77.526 32.648C77.7144 33.3308 77.7405 34.0482 77.602 34.7429C77.4635 35.4376 77.1643 36.0902 76.7284 36.6486C76.585 36.8548 76.3893 37.0193 76.1615 37.1253C75.9337 37.2312 75.6818 37.2748 75.4316 37.2516L74.9778 37.1608C74.733 37.0894 74.512 36.9537 74.3375 36.7678C74.163 36.5819 74.0416 36.3527 73.9857 36.1039Z" fill="white"/>
<path d="M77.0915 32.5581C76.6701 31.3262 75.6326 31.1187 74.7768 32.0978C74.341 32.6574 74.0424 33.3114 73.905 34.0073C73.7677 34.7032 73.7953 35.4216 73.9857 36.1049C74.4072 37.3369 75.4381 37.5443 76.3005 36.5653C76.7363 36.0056 77.0349 35.3516 77.1722 34.6557C77.3096 33.9598 77.282 33.2414 77.0915 32.5581Z" fill="#27DEBF"/>
<path opacity="0.5" d="M77.0915 32.5581C76.6701 31.3262 75.6326 31.1187 74.7768 32.0978C74.341 32.6574 74.0424 33.3114 73.905 34.0073C73.7677 34.7032 73.7953 35.4216 73.9857 36.1049C74.4072 37.3369 75.4381 37.5443 76.3005 36.5653C76.7363 36.0056 77.0349 35.3516 77.1722 34.6557C77.3096 33.9598 77.282 33.2414 77.0915 32.5581Z" fill="white"/>
<path opacity="0.1" d="M77.0915 32.5581C76.6701 31.3262 75.6326 31.1187 74.7768 32.0978C74.341 32.6574 74.0424 33.3114 73.905 34.0073C73.7677 34.7032 73.7953 35.4216 73.9857 36.1049C74.4072 37.3369 75.4381 37.5443 76.3005 36.5653C76.7363 36.0056 77.0349 35.3516 77.1722 34.6557C77.3096 33.9598 77.282 33.2414 77.0915 32.5581Z" fill="black"/>
<path d="M76.5794 32.7844C76.5319 32.5693 76.4255 32.3716 76.272 32.2136C76.1186 32.0556 75.9242 31.9434 75.7106 31.8896C75.2907 31.8487 74.8831 31.7253 74.511 31.5265C74.1383 31.1464 73.8296 30.7084 73.5968 30.2297C72.7992 28.9329 70.7308 26.0021 68.0594 25.4769C67.8124 25.4379 67.5608 25.4379 67.3138 25.4769C67.0931 25.3555 66.8546 25.2702 66.607 25.224L65.4529 24.9906C65.2243 24.9473 64.9907 24.9364 64.7591 24.9582C64.5234 24.8356 64.2694 24.7524 64.0069 24.7118L62.5675 24.4265C62.0871 24.3345 61.5902 24.3887 61.141 24.5821L60.6288 24.8026C60.225 24.9753 59.782 25.0352 59.3469 24.9758C58.9118 24.9164 58.501 24.74 58.1583 24.4654L57.1209 23.6354C56.8189 23.3889 56.4601 23.2218 56.077 23.1491L37.63 19.5051C36.5796 19.2976 35.393 19.7839 34.3167 21.0094C32.1705 23.4669 31.2757 27.9668 32.3326 31.0596C32.8578 32.6093 33.772 33.5106 34.8224 33.7181L53.2694 37.3621C53.6529 37.4358 54.0483 37.418 54.4236 37.3102L55.7204 36.9341C56.0951 36.8231 56.4913 36.8053 56.8745 36.8823C57.3522 36.9791 57.7901 37.2161 58.1324 37.5631L58.5215 37.9586C58.8722 38.3152 59.3256 38.5532 59.8183 38.6394L61.2123 38.8599C61.4716 38.9187 61.7382 38.9384 62.0034 38.9182C62.2062 39.0276 62.425 39.1042 62.6518 39.1452L63.8059 39.3786C64.0532 39.4145 64.3044 39.4145 64.5516 39.3786C64.7747 39.4944 65.0124 39.5794 65.2583 39.6315C67.9298 40.1567 70.9643 38.205 72.1833 37.3361C72.5828 36.9787 73.0384 36.6896 73.5319 36.4803C73.951 36.4379 74.3742 36.4798 74.7769 36.6034C74.9956 36.6347 75.2188 36.6045 75.4214 36.5164C75.6241 36.4282 75.7982 36.2855 75.9245 36.1042C76.2832 35.6393 76.529 35.0974 76.6427 34.5213C76.7563 33.9453 76.7347 33.3507 76.5794 32.7844Z" fill="#27DEBF"/>
<path opacity="0.5" d="M75.9178 36.1568C75.7915 36.3381 75.6173 36.4808 75.4146 36.569C75.212 36.6571 74.9888 36.6873 74.7701 36.656C74.3653 36.5322 73.9398 36.4903 73.5187 36.5328C73.0282 36.7441 72.5749 37.0331 72.1765 37.3887C71.2652 38.0471 70.2872 38.6078 69.2587 39.0616C68.012 39.6625 66.6175 39.8878 65.2451 39.71C65.0016 39.6568 64.7661 39.5718 64.5448 39.4571C64.2976 39.493 64.0464 39.493 63.7991 39.4571L62.645 39.2237C62.419 39.1798 62.2006 39.1034 61.9966 38.9968C61.7294 38.9941 61.4645 38.9481 61.212 38.8606L59.7726 38.5753C59.2795 38.4903 58.8257 38.2521 58.4758 37.8945L58.0867 37.4989C57.7813 37.1822 57.3955 36.9546 56.9706 36.8403C56.5457 36.7261 56.0978 36.7296 55.6747 36.8505L54.3779 37.2266C54.002 37.3305 53.6075 37.3482 53.2237 37.2785L34.8221 33.6734C33.7717 33.4659 32.8769 32.5646 32.3323 31.0149C31.8518 29.3015 31.781 27.499 32.1256 25.7532C32.4703 24.0073 33.2208 22.367 34.3164 20.9647C35.3927 19.7393 36.5793 19.253 37.6297 19.4605L56.0767 23.1045C56.4613 23.1784 56.8219 23.3454 57.1271 23.5908L58.1581 24.4207C58.4632 24.6622 58.8208 24.8287 59.202 24.907C59.6822 25.0023 60.1801 24.948 60.6285 24.7514L61.1407 24.5374C61.5898 24.3436 62.0869 24.2894 62.5672 24.3818L64.0066 24.6671C64.2696 24.7057 64.5239 24.789 64.7588 24.9135C64.9905 24.895 65.2236 24.9059 65.4526 24.9459L66.6067 25.1793C67.049 25.4178 67.5529 25.5172 68.0526 25.4646C70.7305 25.9898 72.799 28.953 73.59 30.2174C73.825 30.6965 74.1359 31.1344 74.5107 31.5142C74.8816 31.7158 75.2898 31.8394 75.7103 31.8773C75.9247 31.9307 76.1202 32.0427 76.2747 32.2007C76.4293 32.3587 76.5369 32.5565 76.5856 32.7721C76.7482 33.3491 76.7725 33.9562 76.6564 34.5443C76.5404 35.1324 76.2873 35.6848 75.9178 36.1568Z" fill="white"/>
<path d="M55.6945 36.9155C56.4557 36.6826 57.132 36.2318 57.6397 35.6187C58.6425 34.3399 59.3291 32.8424 59.6435 31.248C59.9579 29.6536 59.8912 28.0075 59.4487 26.4438C59.2252 25.6879 58.7885 25.0125 58.1908 24.4986L57.1598 23.6686C56.8547 23.4232 56.494 23.2563 56.1094 23.1823L37.6624 19.5383H37.6235C38.6545 19.7588 39.5688 20.6536 40.068 22.1773C40.5486 23.8918 40.6194 25.6953 40.2748 27.4422C39.9301 29.1891 39.1796 30.8305 38.0839 32.234C37.0594 33.4076 35.9247 33.9004 34.9132 33.7642H34.8549L53.3019 37.4082C53.6856 37.4779 54.0801 37.4602 54.456 37.3564L55.6945 36.9155ZM70.5493 28.1491C71.0305 29.8629 71.1011 31.666 70.7552 33.4121C70.4094 35.1583 69.6569 36.7983 68.5587 38.1993C67.5472 39.3599 66.4385 39.8527 65.4399 39.736C66.1889 39.8343 66.9496 39.7926 67.6834 39.6128L67.9298 39.548C68.1697 39.4831 68.4161 39.4053 68.6495 39.321L68.8959 39.2303L69.3498 39.0422C69.4255 39.0153 69.4993 38.9828 69.5702 38.945L70.0112 38.7375L70.2186 38.6272L70.4196 38.517C71.0284 38.1877 71.6154 37.8195 72.1768 37.4147C72.5753 37.0591 73.0285 36.7701 73.519 36.5588C73.9402 36.5163 74.3656 36.5582 74.7704 36.682C74.9892 36.7133 75.2123 36.6831 75.4149 36.595C75.6176 36.5068 75.7918 36.3641 75.9181 36.1828C76.2823 35.7106 76.5307 35.1596 76.6433 34.5741C76.7559 33.9885 76.7296 33.3846 76.5665 32.8111C76.5178 32.5955 76.4101 32.3977 76.2556 32.2397C76.101 32.0817 75.9056 31.9697 75.6911 31.9163C75.2707 31.8784 74.8625 31.7548 74.4916 31.5532C74.1167 31.1734 73.8058 30.7355 73.5709 30.2564L73.4931 30.1332L73.318 29.8609L73.2142 29.7117C73.1494 29.608 73.0716 29.5042 72.9938 29.394L72.8771 29.2254C72.7928 29.1152 72.702 28.9985 72.6177 28.8753C72.5334 28.7521 72.4621 28.6743 72.3778 28.577L72.0795 28.2204L71.9239 28.0454C71.8721 27.987 71.8137 27.9286 71.7618 27.8638L71.5933 27.6887L71.4182 27.5137C71.2453 27.3408 71.0637 27.1722 70.8735 27.0079L70.679 26.8458C70.6148 26.7904 70.5477 26.7384 70.478 26.6902C69.8258 26.167 69.0733 25.7831 68.267 25.562C69.2396 25.8149 70.0565 26.6902 70.5493 28.1232V28.1491ZM67.1128 37.914C68.2112 36.5132 68.9634 34.8729 69.3082 33.1265C69.653 31.3801 69.5806 29.5769 69.0969 27.8638C68.5782 26.3336 67.6769 25.4323 66.6395 25.2183L65.4594 24.9849C66.5098 25.1924 67.4046 26.0937 67.9428 27.6369C68.4264 29.35 68.4988 31.1531 68.154 32.8995C67.8093 34.6459 67.0571 36.2863 65.9586 37.6871C64.8823 38.9125 63.6957 39.3988 62.6453 39.1913L63.7995 39.4248C64.8499 39.6063 66.0364 39.12 67.1128 37.8881V37.914ZM64.6035 37.4212C65.702 36.0192 66.4542 34.3777 66.7989 32.6303C67.1437 30.8829 67.0713 29.0787 66.5876 27.3645C66.0624 25.8213 65.1481 24.9201 64.0977 24.7126L62.5092 24.4013C63.5725 24.5959 64.4933 25.4971 65.025 27.0598C65.5086 28.7729 65.581 30.576 65.2362 32.3224C64.8915 34.0688 64.1393 35.7092 63.0408 37.11C61.9645 38.3419 60.7779 38.8282 59.7275 38.6208L61.2902 38.9255C62.3406 39.1071 63.5271 38.6208 64.6035 37.3953V37.4212Z" fill="#27DEBF"/>
<path opacity="0.7" d="M55.6945 36.9155C56.4557 36.6826 57.132 36.2318 57.6397 35.6187C58.6425 34.3399 59.3291 32.8424 59.6435 31.248C59.9579 29.6536 59.8912 28.0075 59.4487 26.4438C59.2252 25.6879 58.7885 25.0125 58.1908 24.4986L57.1598 23.6686C56.8547 23.4232 56.494 23.2563 56.1094 23.1823L37.6624 19.5383H37.6235C38.6545 19.7588 39.5688 20.6536 40.068 22.1773C40.5486 23.8918 40.6194 25.6953 40.2748 27.4422C39.9301 29.1891 39.1796 30.8305 38.0839 32.234C37.0594 33.4076 35.9247 33.9004 34.9132 33.7642H34.8549L53.3019 37.4082C53.6856 37.4779 54.0801 37.4602 54.456 37.3564L55.6945 36.9155ZM70.5493 28.1491C71.0305 29.8629 71.1011 31.666 70.7552 33.4121C70.4094 35.1583 69.6569 36.7983 68.5587 38.1993C67.5472 39.3599 66.4385 39.8527 65.4399 39.736C66.1889 39.8343 66.9496 39.7926 67.6834 39.6128L67.9298 39.548C68.1697 39.4831 68.4161 39.4053 68.6495 39.321L68.8959 39.2303L69.3498 39.0422C69.4255 39.0153 69.4993 38.9828 69.5702 38.945L70.0112 38.7375L70.2186 38.6272L70.4196 38.517C71.0284 38.1877 71.6154 37.8195 72.1768 37.4147C72.5753 37.0591 73.0285 36.7701 73.519 36.5588C73.9402 36.5163 74.3656 36.5582 74.7704 36.682C74.9892 36.7133 75.2123 36.6831 75.4149 36.595C75.6176 36.5068 75.7918 36.3641 75.9181 36.1828C76.2823 35.7106 76.5307 35.1596 76.6433 34.5741C76.7559 33.9885 76.7296 33.3846 76.5665 32.8111C76.5178 32.5955 76.4101 32.3977 76.2556 32.2397C76.101 32.0817 75.9056 31.9697 75.6911 31.9163C75.2707 31.8784 74.8625 31.7548 74.4916 31.5532C74.1167 31.1734 73.8058 30.7355 73.5709 30.2564L73.4931 30.1332L73.318 29.8609L73.2142 29.7117C73.1494 29.608 73.0716 29.5042 72.9938 29.394L72.8771 29.2254C72.7928 29.1152 72.702 28.9985 72.6177 28.8753C72.5334 28.7521 72.4621 28.6743 72.3778 28.577L72.0795 28.2204L71.9239 28.0454C71.8721 27.987 71.8137 27.9286 71.7618 27.8638L71.5933 27.6887L71.4182 27.5137C71.2453 27.3408 71.0637 27.1722 70.8735 27.0079L70.679 26.8458C70.6148 26.7904 70.5477 26.7384 70.478 26.6902C69.8258 26.167 69.0733 25.7831 68.267 25.562C69.2396 25.8149 70.0565 26.6902 70.5493 28.1232V28.1491ZM67.1128 37.914C68.2112 36.5132 68.9634 34.8729 69.3082 33.1265C69.653 31.3801 69.5806 29.5769 69.0969 27.8638C68.5782 26.3336 67.6769 25.4323 66.6395 25.2183L65.4594 24.9849C66.5098 25.1924 67.4046 26.0937 67.9428 27.6369C68.4264 29.35 68.4988 31.1531 68.154 32.8995C67.8093 34.6459 67.0571 36.2863 65.9586 37.6871C64.8823 38.9125 63.6957 39.3988 62.6453 39.1913L63.7995 39.4248C64.8499 39.6063 66.0364 39.12 67.1128 37.8881V37.914ZM64.6035 37.4212C65.702 36.0192 66.4542 34.3777 66.7989 32.6303C67.1437 30.8829 67.0713 29.0787 66.5876 27.3645C66.0624 25.8213 65.1481 24.9201 64.0977 24.7126L62.5092 24.4013C63.5725 24.5959 64.4933 25.4971 65.025 27.0598C65.5086 28.7729 65.581 30.576 65.2362 32.3224C64.8915 34.0688 64.1393 35.7092 63.0408 37.11C61.9645 38.3419 60.7779 38.8282 59.7275 38.6208L61.2902 38.9255C62.3406 39.1071 63.5271 38.6208 64.6035 37.3953V37.4212Z" fill="white"/>
<path d="M65.401 38.919C65.2309 38.886 65.0669 38.8269 64.9147 38.7439L64.7007 38.6272H64.4608C64.2932 38.653 64.1226 38.653 63.9551 38.6272L62.7944 38.3938C62.6369 38.3624 62.4842 38.3101 62.3405 38.2381L62.1395 38.1344H61.9191C61.7643 38.157 61.607 38.157 61.4522 38.1344H61.3809L60.5899 37.9464V37.9788L59.9415 37.8426C59.6146 37.7836 59.3149 37.6224 59.0856 37.3823L58.6965 36.9867C58.2449 36.5248 57.6639 36.2106 57.0301 36.0855C56.5242 35.9825 56.0005 36.007 55.5064 36.1568L54.2096 36.5329C53.9543 36.605 53.6855 36.6161 53.425 36.5653L34.978 32.9213C34.1675 32.7592 33.4932 32.0005 33.0782 30.7815C32.8684 30.3412 32.8183 29.8415 32.9366 29.3683C33.0549 28.8951 33.3342 28.4777 33.7266 28.1879C34.6474 27.4163 35.9117 27.5979 37.014 27.747C37.4917 27.7945 37.9738 27.7242 38.418 27.5422C38.8623 27.3602 39.2551 27.0721 39.5622 26.7031C40.0378 26.1715 40.6235 25.7499 41.2786 25.4677C41.9336 25.1856 42.6424 25.0495 43.3554 25.0691C44.7559 25.1534 46.0203 25.7175 47.3495 26.1195C47.9984 26.3557 48.6958 26.427 49.379 26.327C50.0875 26.0988 50.7472 25.7403 51.3242 25.2701C52.65 24.3591 54.2724 23.9859 55.863 24.2262C56.5261 24.3159 57.1507 24.59 57.6656 25.0173C58.0669 25.3417 58.5407 25.5642 59.0467 25.6657C59.6795 25.787 60.3342 25.717 60.927 25.4647L61.4393 25.2442C61.7435 25.1132 62.0803 25.0771 62.4054 25.1405L63.0538 25.2766V25.309L63.8578 25.4387H63.9226C64.0784 25.4658 64.2292 25.5161 64.37 25.5879L64.5646 25.6916H64.785C64.9465 25.6719 65.1098 25.6719 65.2713 25.6916L66.4255 25.925C66.5927 25.9577 66.7544 26.0144 66.9053 26.0936L67.1193 26.2103H67.3592C67.5289 26.1843 67.7017 26.1843 67.8714 26.2103C70.1214 26.6512 71.9888 29.1605 72.903 30.613L73.1494 31.0214C73.3599 31.4449 73.6531 31.8219 74.0118 32.1302C74.2394 32.2882 74.4945 32.4025 74.7639 32.4674L75.555 32.636C75.6133 32.636 75.7235 32.7592 75.8143 33.012C75.9283 33.4555 75.9408 33.919 75.851 34.368C75.7612 34.8171 75.5713 35.2401 75.2956 35.6056C75.1205 35.8066 74.9714 35.8715 74.9195 35.8585L74.1803 35.7483C73.9058 35.6997 73.6249 35.6997 73.3504 35.7483C72.9001 35.8952 72.4851 36.1336 72.1314 36.4486L71.7424 36.7274C70.8794 37.3552 69.9511 37.8878 68.9737 38.316C67.8692 38.8675 66.6254 39.0775 65.401 38.919Z" fill="#27DEBF"/>
<path opacity="0.85" d="M65.401 38.919C65.2309 38.886 65.0669 38.8269 64.9147 38.7439L64.7007 38.6272H64.4608C64.2932 38.653 64.1226 38.653 63.9551 38.6272L62.7944 38.3938C62.6369 38.3624 62.4842 38.3101 62.3405 38.2381L62.1395 38.1344H61.9191C61.7643 38.157 61.607 38.157 61.4522 38.1344H61.3809L60.5899 37.9464V37.9788L59.9415 37.8426C59.6146 37.7836 59.3149 37.6224 59.0856 37.3823L58.6965 36.9867C58.2449 36.5248 57.6639 36.2106 57.0301 36.0855C56.5242 35.9825 56.0005 36.007 55.5064 36.1568L54.2096 36.5329C53.9543 36.605 53.6855 36.6161 53.425 36.5653L34.978 32.9213C34.1675 32.7592 33.4932 32.0005 33.0782 30.7815C32.8684 30.3412 32.8183 29.8415 32.9366 29.3683C33.0549 28.8951 33.3342 28.4777 33.7266 28.1879C34.6474 27.4163 35.9117 27.5979 37.014 27.747C37.4917 27.7945 37.9738 27.7242 38.418 27.5422C38.8623 27.3602 39.2551 27.0721 39.5622 26.7031C40.0378 26.1715 40.6235 25.7499 41.2786 25.4677C41.9336 25.1856 42.6424 25.0495 43.3554 25.0691C44.7559 25.1534 46.0203 25.7175 47.3495 26.1195C47.9984 26.3557 48.6958 26.427 49.379 26.327C50.0875 26.0988 50.7472 25.7403 51.3242 25.2701C52.65 24.3591 54.2724 23.9859 55.863 24.2262C56.5261 24.3159 57.1507 24.59 57.6656 25.0173C58.0669 25.3417 58.5407 25.5642 59.0467 25.6657C59.6795 25.787 60.3342 25.717 60.927 25.4647L61.4393 25.2442C61.7435 25.1132 62.0803 25.0771 62.4054 25.1405L63.0538 25.2766V25.309L63.8578 25.4387H63.9226C64.0784 25.4658 64.2292 25.5161 64.37 25.5879L64.5646 25.6916H64.785C64.9465 25.6719 65.1098 25.6719 65.2713 25.6916L66.4255 25.925C66.5927 25.9577 66.7544 26.0144 66.9053 26.0936L67.1193 26.2103H67.3592C67.5289 26.1843 67.7017 26.1843 67.8714 26.2103C70.1214 26.6512 71.9888 29.1605 72.903 30.613L73.1494 31.0214C73.3599 31.4449 73.6531 31.8219 74.0118 32.1302C74.2394 32.2882 74.4945 32.4025 74.7639 32.4674L75.555 32.636C75.6133 32.636 75.7235 32.7592 75.8143 33.012C75.9283 33.4555 75.9408 33.919 75.851 34.368C75.7612 34.8171 75.5713 35.2401 75.2956 35.6056C75.1205 35.8066 74.9714 35.8715 74.9195 35.8585L74.1803 35.7483C73.9058 35.6997 73.6249 35.6997 73.3504 35.7483C72.9001 35.8952 72.4851 36.1336 72.1314 36.4486L71.7424 36.7274C70.8794 37.3552 69.9511 37.8878 68.9737 38.316C67.8692 38.8675 66.6254 39.0775 65.401 38.919Z" fill="white"/>
<path d="M70.5493 28.1231C70.4748 27.9023 70.3882 27.6859 70.2899 27.4747C69.7206 26.9748 69.0601 26.5895 68.3447 26.34C68.6742 26.7895 68.9303 27.2885 69.1033 27.8183C69.5845 29.5321 69.6551 31.3352 69.3092 33.0813C68.9634 34.8275 68.2109 36.4675 67.1127 37.8685C66.753 38.2934 66.3285 38.6588 65.8548 38.9513C66.6114 38.9913 67.3686 38.8856 68.0853 38.6401C68.2409 38.491 68.4031 38.3354 68.5587 38.1538C69.6538 36.755 70.4045 35.1183 70.7503 33.3758C71.0961 31.6334 71.0273 29.834 70.5493 28.1231ZM65.0249 27.0337C64.8555 26.5121 64.6061 26.0199 64.2857 25.5748C64.1581 25.5153 64.0228 25.4739 63.8837 25.4516L63.0732 25.322V25.2895L62.4248 25.1599C62.1025 25.0942 61.7678 25.1281 61.4652 25.2571L60.9529 25.4776C60.39 25.7216 59.7687 25.7982 59.1634 25.698C59.2736 25.9206 59.3689 26.1502 59.4487 26.3853C59.8911 27.949 59.9578 29.5951 59.6435 31.1895C59.3291 32.7839 58.6425 34.2815 57.6396 35.5602C57.4739 35.7466 57.2963 35.922 57.1079 36.0854C57.706 36.2242 58.2524 36.53 58.6835 36.9672L59.0726 37.3628C59.3021 37.5993 59.5985 37.76 59.922 37.8231L60.5704 37.9528L61.3679 38.1408C61.5064 38.1701 61.6479 38.1832 61.7894 38.1797C62.2553 37.8897 62.6731 37.5287 63.0278 37.1099C64.1325 35.7073 64.8894 34.063 65.2365 32.3117C65.5836 30.5603 65.5111 28.7517 65.0249 27.0337ZM67.9427 27.6108C67.7933 27.124 67.575 26.6611 67.2943 26.2362H67.1841L66.9701 26.1195C66.8198 26.0376 66.6581 25.9786 66.4903 25.9444L65.8419 25.8147C66.1839 26.2723 66.4489 26.7826 66.6264 27.3255C67.1101 29.0397 67.1826 30.8438 66.8378 32.5913C66.493 34.3387 65.7408 35.9802 64.6423 37.3822C64.27 37.8148 63.8324 38.1867 63.3455 38.4845L63.9939 38.6077C64.1637 38.6339 64.3364 38.6339 64.5062 38.6077H64.7461L64.8433 38.6596C65.2753 38.3805 65.6642 38.0397 65.9975 37.6481C67.0873 36.2454 67.8313 34.6057 68.1692 32.8618C68.5072 31.118 68.4296 29.3191 67.9427 27.6108Z" fill="#27DEBF"/>
<path opacity="0.7" d="M70.5493 28.1231C70.4748 27.9023 70.3882 27.6859 70.2899 27.4747C69.7206 26.9748 69.0601 26.5895 68.3447 26.34C68.6742 26.7895 68.9303 27.2885 69.1033 27.8183C69.5845 29.5321 69.6551 31.3352 69.3092 33.0813C68.9634 34.8275 68.2109 36.4675 67.1127 37.8685C66.753 38.2934 66.3285 38.6588 65.8548 38.9513C66.6114 38.9913 67.3686 38.8856 68.0853 38.6401C68.2409 38.491 68.4031 38.3354 68.5587 38.1538C69.6538 36.755 70.4045 35.1183 70.7503 33.3758C71.0961 31.6334 71.0273 29.834 70.5493 28.1231ZM65.0249 27.0337C64.8555 26.5121 64.6061 26.0199 64.2857 25.5748C64.1581 25.5153 64.0228 25.4739 63.8837 25.4516L63.0732 25.322V25.2895L62.4248 25.1599C62.1025 25.0942 61.7678 25.1281 61.4652 25.2571L60.9529 25.4776C60.39 25.7216 59.7687 25.7982 59.1634 25.698C59.2736 25.9206 59.3689 26.1502 59.4487 26.3853C59.8911 27.949 59.9578 29.5951 59.6435 31.1895C59.3291 32.7839 58.6425 34.2815 57.6396 35.5602C57.4739 35.7466 57.2963 35.922 57.1079 36.0854C57.706 36.2242 58.2524 36.53 58.6835 36.9672L59.0726 37.3628C59.3021 37.5993 59.5985 37.76 59.922 37.8231L60.5704 37.9528L61.3679 38.1408C61.5064 38.1701 61.6479 38.1832 61.7894 38.1797C62.2553 37.8897 62.6731 37.5287 63.0278 37.1099C64.1325 35.7073 64.8894 34.063 65.2365 32.3117C65.5836 30.5603 65.5111 28.7517 65.0249 27.0337ZM67.9427 27.6108C67.7933 27.124 67.575 26.6611 67.2943 26.2362H67.1841L66.9701 26.1195C66.8198 26.0376 66.6581 25.9786 66.4903 25.9444L65.8419 25.8147C66.1839 26.2723 66.4489 26.7826 66.6264 27.3255C67.1101 29.0397 67.1826 30.8438 66.8378 32.5913C66.493 34.3387 65.7408 35.9802 64.6423 37.3822C64.27 37.8148 63.8324 38.1867 63.3455 38.4845L63.9939 38.6077C64.1637 38.6339 64.3364 38.6339 64.5062 38.6077H64.7461L64.8433 38.6596C65.2753 38.3805 65.6642 38.0397 65.9975 37.6481C67.0873 36.2454 67.8313 34.6057 68.1692 32.8618C68.5072 31.118 68.4296 29.3191 67.9427 27.6108Z" fill="white"/>
<g opacity="0.05">
<path opacity="0.05" d="M75.9181 36.1567C75.7918 36.3381 75.6176 36.4808 75.4149 36.5689C75.2123 36.6571 74.9891 36.6872 74.7704 36.656C74.3656 36.5322 73.9401 36.4903 73.519 36.5328C73.0285 36.7441 72.5752 37.0331 72.1768 37.3887C71.2655 38.0471 70.2875 38.6078 69.259 39.0616C68.0123 39.6625 66.6178 39.8878 65.2454 39.71C65.1178 39.6813 64.9922 39.6445 64.8693 39.5997C64.7589 39.5576 64.6507 39.51 64.5451 39.4571C64.42 39.4668 64.2942 39.4668 64.169 39.4571C64.045 39.4538 63.9214 39.4407 63.7995 39.4182L62.6453 39.1848C62.4811 39.1499 62.3205 39.1 62.1655 39.0356L61.9904 38.9578C61.7275 38.967 61.4649 38.9342 61.2123 38.8606L59.7729 38.5753C59.4159 38.5064 59.079 38.3579 58.7873 38.1408C58.6885 38.0657 58.5953 37.9833 58.5085 37.8944L58.1195 37.4989C57.9464 37.3227 57.7475 37.174 57.5294 37.058C57.3269 36.9453 57.1082 36.8644 56.881 36.8181C56.5 36.7414 56.1059 36.7592 55.7333 36.87L54.4365 37.246C54.3472 37.2717 54.2562 37.2912 54.1642 37.3044H53.9632H53.7492H53.5353H53.3278L34.8224 33.6734H34.7835C34.7172 33.6621 34.6521 33.6448 34.589 33.6215C34.2296 33.5084 33.8981 33.3206 33.6164 33.0704C33.523 32.9867 33.4343 32.8979 33.3506 32.8045L33.3116 32.7591C33.2253 32.6667 33.1472 32.5669 33.0782 32.4609C33.061 32.4408 33.0458 32.4191 33.0328 32.396C32.9527 32.2872 32.8812 32.1723 32.8189 32.0524L32.7735 31.981C32.7087 31.8578 32.6503 31.7282 32.5854 31.592C32.5854 31.592 32.5854 31.5401 32.5854 31.5142C32.5258 31.3811 32.4738 31.2447 32.4298 31.1057V31.0603C32.3715 30.8852 32.3131 30.6972 32.2677 30.5092C32.2647 30.479 32.2647 30.4486 32.2677 30.4184C32.1718 30.0302 32.1025 29.6359 32.0602 29.2383C32.0634 29.206 32.0634 29.1734 32.0602 29.141C32.0602 28.9465 32.0278 28.7455 32.0213 28.5445C32.0213 28.3305 32.0213 28.123 32.0213 27.8961C32.0181 27.8616 32.0181 27.8269 32.0213 27.7924C32.0213 27.6043 32.0214 27.4163 32.0538 27.2218V27.1505C32.0538 26.943 32.0927 26.7355 32.1186 26.5021V26.3853C32.1186 26.2038 32.177 26.0287 32.2094 25.8537V25.7369C32.2483 25.5338 32.2937 25.3328 32.3455 25.1339C32.3485 25.0929 32.3485 25.0517 32.3455 25.0107C32.3909 24.8486 32.4363 24.68 32.4882 24.5244C32.4994 24.4757 32.5146 24.428 32.5336 24.3818C32.592 24.2002 32.6503 24.0187 32.7151 23.8436L32.7929 23.6491L32.9485 23.286L33.0264 23.1044C33.1042 22.9358 33.182 22.7737 33.2663 22.6181C33.2875 22.5714 33.3113 22.526 33.3376 22.482C33.4219 22.3328 33.5062 22.1837 33.5905 22.0475L33.6294 21.9827C33.7331 21.8206 33.8369 21.665 33.9471 21.5094L34.0054 21.4316C34.1222 21.2759 34.2389 21.1268 34.3621 20.9842C35.4255 19.7717 36.5926 19.2854 37.6365 19.4734C38.6804 19.6614 39.5817 20.5886 40.081 22.1124C40.8154 24.7094 40.604 27.4829 39.4844 29.9386C39.4326 30.0553 39.3742 30.172 39.3158 30.2952C39.2575 30.4184 39.2316 30.4703 39.1862 30.5546L39.0111 30.8788L54.067 33.829C54.448 33.9059 54.8421 33.8881 55.2146 33.7771L56.5114 33.4075C56.8862 33.2976 57.2817 33.2776 57.6656 33.3492C58.084 33.4331 58.473 33.6254 58.7938 33.9068L58.93 34.03L59.319 34.432C59.6596 34.7812 60.0983 35.0187 60.5769 35.1128L62.0163 35.3981C62.2725 35.4631 62.538 35.4828 62.8009 35.4565C63.0053 35.5636 63.2235 35.6422 63.4493 35.6899L64.6035 35.9168C65.1032 35.8626 65.6077 35.9621 66.0494 36.2021C68.7273 36.7338 71.6386 35.4046 72.8576 34.5357C73.2508 34.181 73.6971 33.89 74.1803 33.6734C75.053 33.7418 75.9197 33.8718 76.7739 34.0624C76.7096 34.8316 76.4108 35.5626 75.9181 36.1567Z" fill="black"/>
<path opacity="0.05" d="M43.4267 22.7673C43.9073 24.4808 43.9781 26.2832 43.6334 28.0291C43.2887 29.7749 42.5383 31.4153 41.4426 32.8175C40.3663 34.043 40.269 34.7627 39.2186 34.5423L48.6334 36.4032C49.6838 36.6107 50.8704 36.1244 51.9467 34.8924C53.0449 33.4914 53.7973 31.8514 54.1432 30.1052C54.489 28.3591 54.4185 26.556 53.9373 24.8422C53.4056 23.299 52.4914 22.3977 51.4475 22.1903L40.9369 20.1089C41.9873 20.3164 42.9015 21.2177 43.4267 22.7673Z" fill="black"/>
</g>
<path d="M44.3531 22.9424C44.8336 24.6558 44.9044 26.4583 44.5597 28.2041C44.2151 29.95 43.4646 31.5903 42.369 32.9926C41.2926 34.2245 40.1061 34.7108 39.0557 34.5033L49.5662 36.5782C50.6166 36.7857 51.8032 36.2994 52.8731 35.0739C53.9707 33.6727 54.723 32.0326 55.0688 30.2866C55.4146 28.5405 55.3444 26.7376 54.8637 25.0237C54.332 23.4741 53.4242 22.5728 52.3738 22.3653L41.8632 20.2904C42.8942 20.4979 43.8084 21.3992 44.3531 22.9424Z" fill="#27DEBF"/>
<path d="M46.299 35.9428C46.5223 35.2631 46.8894 34.6394 47.3754 34.1143C47.8228 33.628 48.3415 33.1417 48.8797 32.6295C49.8356 31.7991 50.7046 30.8736 51.4733 29.8673C52.4194 28.4929 52.8448 26.8262 52.6728 25.1664C52.6136 24.1157 52.2658 23.1016 51.6678 22.2356L51.2852 22.1578C51.9467 23.035 52.3326 24.089 52.394 25.1859C52.5675 26.7874 52.1603 28.3981 51.2463 29.7247C50.4931 30.7158 49.6416 31.6283 48.7046 32.448C48.16 32.9602 47.6412 33.4465 47.1874 33.9393C46.6701 34.4981 46.2787 35.1615 46.0397 35.8845L46.299 35.9428Z" fill="#FAFAFA"/>
<path d="M44.8531 23.0462C45.3368 24.7593 45.4092 26.5624 45.0644 28.3088C44.7196 30.0552 43.9674 31.6956 42.869 33.0964C41.7927 34.3283 40.6061 34.8146 39.5557 34.6071L44.5159 35.5862C44.7433 34.8704 45.1314 34.2161 45.6506 33.6734C46.8826 32.3377 48.6528 30.9761 49.7226 29.4394C50.6465 28.0922 51.0624 26.4608 50.8962 24.8357C50.8334 23.7605 50.4645 22.7256 49.8328 21.8531L42.3827 20.3812C43.4137 20.6017 44.3539 21.503 44.8531 23.0462Z" fill="#FAFAFA"/>
<path opacity="0.1" d="M42.9727 32.1757C42.7763 32.4631 42.5596 32.7361 42.3243 32.9926C41.248 34.2246 40.0614 34.7109 39.011 34.5034L49.5215 36.5783C50.5719 36.7858 51.7585 36.2995 52.8284 35.074C53.0642 34.8156 53.2809 34.5404 53.4768 34.2505L42.9727 32.1757Z" fill="black"/>
<path d="M64.3894 36.3383C63.2443 36.312 62.1168 36.6232 61.1474 37.2331C60.5134 37.7421 59.7233 38.0169 58.9104 38.0112C58.5636 37.9597 58.2417 37.801 57.9896 37.5573L57.3218 45.0399C58.4694 43.555 60.7453 42.738 61.7828 41.331C62.8202 39.924 65.2322 38.1798 65.6148 37.7324C66.4318 36.7598 65.0637 36.3513 64.3894 36.3383Z" fill="#FFA8A7"/>
</g>
<g filter="url(#filter0_b_136:22416)">
<rect x="13" y="77" width="141" height="77" rx="10" fill="black" fill-opacity="0.8"/>
</g>
<path d="M48.6995 110.432L48.8115 110.586L48.6855 112H43.0295L43.1275 109.312L43.0295 102.984H48.7415L48.8535 103.138L48.7135 104.552L46.5575 104.482L44.9335 104.496L44.8915 106.666L46.4455 106.694L47.9155 106.652L48.0275 106.792L47.9015 108.206L46.3055 108.164L44.8635 108.178L44.8495 109.144L44.8915 110.502L46.4735 110.516L48.6995 110.432ZM55.0585 105.378L55.2125 105.462L55.1005 109.13L55.1985 114.59H53.3505L53.4345 111.65V111.3H53.3225C52.9398 111.627 52.5198 111.893 52.0625 112.098C51.1571 112.098 50.4571 111.809 49.9625 111.23C49.4678 110.642 49.2205 109.839 49.2205 108.822C49.2205 107.711 49.5098 106.862 50.0885 106.274C50.6671 105.677 51.4418 105.378 52.4125 105.378C52.9165 105.378 53.4765 105.481 54.0925 105.686L55.0585 105.378ZM52.3565 106.638C51.4325 106.638 50.9705 107.254 50.9705 108.486C50.9705 109.186 51.0778 109.723 51.2925 110.096C51.5165 110.46 51.8385 110.642 52.2585 110.642C52.4545 110.642 52.6458 110.6 52.8325 110.516C53.0285 110.423 53.2291 110.273 53.4345 110.068L53.4485 109.326L53.4065 106.932C53.0331 106.736 52.6831 106.638 52.3565 106.638ZM63.1442 110.782L62.9762 111.762C62.6309 111.986 62.2762 112.103 61.9122 112.112C61.6416 112.065 61.4176 111.958 61.2402 111.79C61.0629 111.622 60.9276 111.379 60.8342 111.062H60.7082C60.1762 111.585 59.6256 111.925 59.0562 112.084C58.3469 112.084 57.8056 111.925 57.4322 111.608C57.0682 111.281 56.8909 110.815 56.9002 110.208L56.9282 108.556L56.8582 105.616L58.6642 105.462L58.6222 109.592C58.6129 109.919 58.6782 110.166 58.8182 110.334C58.9582 110.502 59.1682 110.586 59.4482 110.586C59.8589 110.586 60.2649 110.404 60.6662 110.04V105.616L62.4442 105.462L62.3182 110.306C62.3182 110.455 62.3416 110.563 62.3882 110.628C62.4442 110.693 62.5282 110.726 62.6402 110.726C62.7429 110.726 62.8689 110.707 63.0182 110.67L63.1442 110.782ZM64.3687 109.312L64.2987 105.616L66.1327 105.462L66.0487 109.13L66.1327 112H64.2707L64.3687 109.312ZM65.2507 102.298C65.54 102.298 65.764 102.382 65.9227 102.55C66.0907 102.718 66.1747 102.951 66.1747 103.25C66.1747 103.567 66.086 103.819 65.9087 104.006C65.7313 104.193 65.4887 104.286 65.1807 104.286C64.8727 104.286 64.6347 104.202 64.4667 104.034C64.308 103.866 64.2287 103.628 64.2287 103.32C64.2287 103.012 64.3173 102.765 64.4947 102.578C64.6813 102.391 64.9333 102.298 65.2507 102.298ZM69.7131 109.13L69.8111 112H67.9491L68.0471 109.298L67.9631 102.312L69.8251 102.172L69.7131 109.13ZM71.6968 109.312L71.6268 105.616L73.4608 105.462L73.3768 109.13L73.4608 112H71.5988L71.6968 109.312ZM72.5788 102.298C72.8681 102.298 73.0921 102.382 73.2508 102.55C73.4188 102.718 73.5028 102.951 73.5028 103.25C73.5028 103.567 73.4141 103.819 73.2368 104.006C73.0595 104.193 72.8168 104.286 72.5088 104.286C72.2008 104.286 71.9628 104.202 71.7948 104.034C71.6361 103.866 71.5568 103.628 71.5568 103.32C71.5568 103.012 71.6455 102.765 71.8228 102.578C72.0095 102.391 72.2615 102.298 72.5788 102.298ZM78.7352 105.406C79.5565 105.406 80.1819 105.686 80.6112 106.246C81.0499 106.797 81.2692 107.567 81.2692 108.556C81.2692 109.704 80.9845 110.591 80.4152 111.216C79.8459 111.832 79.0572 112.14 78.0492 112.14C77.5732 112.14 77.0505 112.033 76.4812 111.818L75.5012 112.168L75.2772 111.986L75.3752 109.326L75.2912 102.312L77.1392 102.172L77.0832 106.414H77.1672C77.4285 106.162 77.6805 105.961 77.9232 105.812C78.1659 105.653 78.4365 105.518 78.7352 105.406ZM78.0492 110.922C78.5159 110.922 78.8799 110.754 79.1412 110.418C79.4025 110.082 79.5332 109.569 79.5332 108.878C79.5332 108.234 79.4259 107.744 79.2112 107.408C79.0059 107.072 78.6932 106.904 78.2732 106.904C77.8905 106.904 77.4892 107.1 77.0692 107.492L77.0412 109.088L77.0692 110.67C77.4145 110.838 77.7412 110.922 78.0492 110.922ZM86.0653 105.476C86.1493 105.476 86.2659 105.485 86.4153 105.504V107.226L86.2193 107.296C86.0606 107.231 85.8879 107.198 85.7013 107.198C85.1599 107.198 84.6699 107.548 84.2313 108.248V109.13L84.3293 112H82.4673L82.5793 109.312L82.4953 105.616L84.2593 105.462L84.2453 106.736H84.3573C84.8146 105.896 85.3839 105.476 86.0653 105.476ZM89.7598 105.364C90.4784 105.364 91.0384 105.527 91.4398 105.854C91.8504 106.171 92.0558 106.619 92.0558 107.198C92.0558 107.366 92.0278 107.898 91.9718 108.794C91.9624 109.055 91.9484 109.326 91.9298 109.606C91.9111 109.877 91.9018 110.11 91.9018 110.306C91.9018 110.465 91.9251 110.577 91.9718 110.642C92.0184 110.698 92.1024 110.726 92.2238 110.726C92.3171 110.726 92.4384 110.707 92.5878 110.67L92.7278 110.782L92.5598 111.762C92.2611 111.958 91.9204 112.075 91.5378 112.112C91.2578 112.084 91.0244 111.986 90.8378 111.818C90.6511 111.641 90.5251 111.398 90.4597 111.09H90.3618C89.8951 111.585 89.4144 111.93 88.9198 112.126C88.2478 112.117 87.7204 111.939 87.3378 111.594C86.9551 111.249 86.7638 110.777 86.7638 110.18C86.7638 109.713 86.8804 109.349 87.1138 109.088C87.3564 108.817 87.7204 108.635 88.2058 108.542L90.3478 108.136V107.562C90.3478 106.955 90.0491 106.652 89.4518 106.652C89.1624 106.652 88.8544 106.717 88.5278 106.848C88.2104 106.979 87.8511 107.184 87.4498 107.464L87.3098 107.38L87.0998 106.148C87.5011 105.896 87.9304 105.705 88.3878 105.574C88.8451 105.434 89.3024 105.364 89.7598 105.364ZM88.8498 109.396C88.7004 109.433 88.5884 109.499 88.5138 109.592C88.4484 109.676 88.4158 109.807 88.4158 109.984C88.4158 110.227 88.4811 110.418 88.6118 110.558C88.7424 110.689 88.9244 110.754 89.1578 110.754C89.5218 110.754 89.9044 110.539 90.3058 110.11L90.3338 109.074L88.8498 109.396ZM98.2411 105.378C98.8758 105.378 99.4731 105.485 100.033 105.7L99.7811 107.072L99.5571 107.142C99.2865 106.965 99.0158 106.829 98.7451 106.736C98.4745 106.643 98.2365 106.596 98.0311 106.596C97.8071 106.596 97.6298 106.657 97.4991 106.778C97.3685 106.89 97.3031 107.03 97.3031 107.198C97.3031 107.394 97.3871 107.553 97.5551 107.674C97.7325 107.795 98.0078 107.931 98.3811 108.08C98.7545 108.229 99.0625 108.374 99.3051 108.514C99.5478 108.654 99.7531 108.85 99.9211 109.102C100.098 109.345 100.187 109.648 100.187 110.012C100.187 110.385 100.089 110.735 99.8931 111.062C99.7065 111.379 99.4171 111.641 99.0251 111.846C98.6331 112.042 98.1525 112.14 97.5831 112.14C96.9111 112.14 96.2158 112 95.4971 111.72L95.7071 110.264L95.8891 110.152C96.1785 110.395 96.5005 110.591 96.8551 110.74C97.2098 110.88 97.5225 110.95 97.7931 110.95C98.0451 110.95 98.2411 110.889 98.3811 110.768C98.5211 110.637 98.5911 110.483 98.5911 110.306C98.5911 110.11 98.5025 109.951 98.3251 109.83C98.1571 109.709 97.8865 109.573 97.5131 109.424C97.1305 109.256 96.8178 109.107 96.5751 108.976C96.3325 108.836 96.1225 108.64 95.9451 108.388C95.7771 108.136 95.6931 107.823 95.6931 107.45C95.6931 106.843 95.9218 106.349 96.3791 105.966C96.8365 105.574 97.4571 105.378 98.2411 105.378ZM103.992 105.364C104.711 105.364 105.271 105.527 105.672 105.854C106.083 106.171 106.288 106.619 106.288 107.198C106.288 107.366 106.26 107.898 106.204 108.794C106.195 109.055 106.181 109.326 106.162 109.606C106.144 109.877 106.134 110.11 106.134 110.306C106.134 110.465 106.158 110.577 106.204 110.642C106.251 110.698 106.335 110.726 106.456 110.726C106.55 110.726 106.671 110.707 106.82 110.67L106.96 110.782L106.792 111.762C106.494 111.958 106.153 112.075 105.77 112.112C105.49 112.084 105.257 111.986 105.07 111.818C104.884 111.641 104.758 111.398 104.692 111.09H104.594C104.128 111.585 103.647 111.93 103.152 112.126C102.48 112.117 101.953 111.939 101.57 111.594C101.188 111.249 100.996 110.777 100.996 110.18C100.996 109.713 101.113 109.349 101.346 109.088C101.589 108.817 101.953 108.635 102.438 108.542L104.58 108.136V107.562C104.58 106.955 104.282 106.652 103.684 106.652C103.395 106.652 103.087 106.717 102.76 106.848C102.443 106.979 102.084 107.184 101.682 107.464L101.542 107.38L101.332 106.148C101.734 105.896 102.163 105.705 102.62 105.574C103.078 105.434 103.535 105.364 103.992 105.364ZM103.082 109.396C102.933 109.433 102.821 109.499 102.746 109.592C102.681 109.676 102.648 109.807 102.648 109.984C102.648 110.227 102.714 110.418 102.844 110.558C102.975 110.689 103.157 110.754 103.39 110.754C103.754 110.754 104.137 110.539 104.538 110.11L104.566 109.074L103.082 109.396ZM108.296 109.312L108.226 105.616L110.06 105.462L109.976 109.13L110.06 112H108.198L108.296 109.312ZM109.178 102.298C109.468 102.298 109.692 102.382 109.85 102.55C110.018 102.718 110.102 102.951 110.102 103.25C110.102 103.567 110.014 103.819 109.836 104.006C109.659 104.193 109.416 104.286 109.108 104.286C108.8 104.286 108.562 104.202 108.394 104.034C108.236 103.866 108.156 103.628 108.156 103.32C108.156 103.012 108.245 102.765 108.422 102.578C108.609 102.391 108.861 102.298 109.178 102.298ZM114.005 105.378C114.639 105.378 115.237 105.485 115.797 105.7L115.545 107.072L115.321 107.142C115.05 106.965 114.779 106.829 114.509 106.736C114.238 106.643 114 106.596 113.795 106.596C113.571 106.596 113.393 106.657 113.263 106.778C113.132 106.89 113.067 107.03 113.067 107.198C113.067 107.394 113.151 107.553 113.319 107.674C113.496 107.795 113.771 107.931 114.145 108.08C114.518 108.229 114.826 108.374 115.069 108.514C115.311 108.654 115.517 108.85 115.685 109.102C115.862 109.345 115.951 109.648 115.951 110.012C115.951 110.385 115.853 110.735 115.657 111.062C115.47 111.379 115.181 111.641 114.789 111.846C114.397 112.042 113.916 112.14 113.347 112.14C112.675 112.14 111.979 112 111.261 111.72L111.471 110.264L111.653 110.152C111.942 110.395 112.264 110.591 112.619 110.74C112.973 110.88 113.286 110.95 113.557 110.95C113.809 110.95 114.005 110.889 114.145 110.768C114.285 110.637 114.355 110.483 114.355 110.306C114.355 110.11 114.266 109.951 114.089 109.83C113.921 109.709 113.65 109.573 113.277 109.424C112.894 109.256 112.581 109.107 112.339 108.976C112.096 108.836 111.886 108.64 111.709 108.388C111.541 108.136 111.457 107.823 111.457 107.45C111.457 106.843 111.685 106.349 112.143 105.966C112.6 105.574 113.221 105.378 114.005 105.378ZM124.353 108.976L120.573 109.004C120.657 110.171 121.25 110.754 122.351 110.754C122.93 110.754 123.574 110.591 124.283 110.264L124.437 110.362L124.157 111.748C123.448 112.009 122.78 112.14 122.155 112.14C121.128 112.14 120.321 111.841 119.733 111.244C119.154 110.647 118.865 109.821 118.865 108.766C118.865 107.721 119.15 106.895 119.719 106.288C120.288 105.672 121.058 105.364 122.029 105.364C122.86 105.364 123.499 105.593 123.947 106.05C124.404 106.498 124.633 107.128 124.633 107.94C124.633 108.155 124.61 108.425 124.563 108.752L124.353 108.976ZM123.009 107.73C123.009 107.357 122.925 107.077 122.757 106.89C122.589 106.694 122.342 106.596 122.015 106.596C121.651 106.596 121.348 106.717 121.105 106.96C120.862 107.193 120.699 107.534 120.615 107.982L122.981 107.926L123.009 107.73ZM41.1833 128L41.2953 123.94C41.2953 123.249 41.0013 122.904 40.4133 122.904C39.9933 122.904 39.5546 123.091 39.0973 123.464L39.0553 125.144L39.1393 128H37.2773L37.3893 123.94C37.3986 123.604 37.3239 123.347 37.1653 123.17C37.0159 122.993 36.7966 122.904 36.5073 122.904C36.0966 122.904 35.6439 123.1 35.1493 123.492V125.13L35.2333 128H33.3853L33.4833 125.312L33.4133 121.616L35.1633 121.462V122.414H35.2613C35.7746 121.947 36.3393 121.611 36.9553 121.406C38.0006 121.406 38.6679 121.756 38.9573 122.456H39.0413C39.5733 121.961 40.1799 121.611 40.8613 121.406C41.5706 121.406 42.1073 121.569 42.4713 121.896C42.8446 122.213 43.0219 122.675 43.0033 123.282L42.9613 125.144L43.0453 128H41.1833ZM44.8042 125.312L44.7342 121.616L46.5682 121.462L46.4842 125.13L46.5682 128H44.7062L44.8042 125.312ZM45.6862 118.298C45.9756 118.298 46.1996 118.382 46.3582 118.55C46.5262 118.718 46.6102 118.951 46.6102 119.25C46.6102 119.567 46.5216 119.819 46.3442 120.006C46.1669 120.193 45.9242 120.286 45.6162 120.286C45.3082 120.286 45.0702 120.202 44.9022 120.034C44.7436 119.866 44.6642 119.628 44.6642 119.32C44.6642 119.012 44.7529 118.765 44.9302 118.578C45.1169 118.391 45.3689 118.298 45.6862 118.298ZM52.3326 123.94C52.3419 123.613 52.2673 123.361 52.1086 123.184C51.9593 122.997 51.7399 122.904 51.4506 122.904C51.0306 122.904 50.5826 123.105 50.1066 123.506V125.13L50.1906 128H48.3286L48.4266 125.312L48.3566 121.616L50.1206 121.462V122.414H50.2186C50.7319 121.947 51.2919 121.611 51.8986 121.406C52.6079 121.406 53.1493 121.569 53.5226 121.896C53.8959 122.213 54.0733 122.675 54.0546 123.282L54.0126 125.144L54.0966 128H52.2206L52.3326 123.94ZM60.7788 124.976L56.9988 125.004C57.0828 126.171 57.6754 126.754 58.7768 126.754C59.3554 126.754 59.9994 126.591 60.7088 126.264L60.8628 126.362L60.5828 127.748C59.8734 128.009 59.2061 128.14 58.5808 128.14C57.5541 128.14 56.7468 127.841 56.1588 127.244C55.5801 126.647 55.2908 125.821 55.2908 124.766C55.2908 123.721 55.5754 122.895 56.1448 122.288C56.7141 121.672 57.4841 121.364 58.4548 121.364C59.2854 121.364 59.9248 121.593 60.3728 122.05C60.8301 122.498 61.0588 123.128 61.0588 123.94C61.0588 124.155 61.0354 124.425 60.9888 124.752L60.7788 124.976ZM59.4348 123.73C59.4348 123.357 59.3508 123.077 59.1828 122.89C59.0148 122.694 58.7674 122.596 58.4408 122.596C58.0768 122.596 57.7734 122.717 57.5308 122.96C57.2881 123.193 57.1248 123.534 57.0408 123.982L59.4068 123.926L59.4348 123.73ZM65.9403 121.476C66.0243 121.476 66.1409 121.485 66.2903 121.504V123.226L66.0943 123.296C65.9356 123.231 65.7629 123.198 65.5763 123.198C65.0349 123.198 64.5449 123.548 64.1063 124.248V125.13L64.2043 128H62.3423L62.4543 125.312L62.3703 121.616L64.1343 121.462L64.1203 122.736H64.2323C64.6896 121.896 65.2589 121.476 65.9403 121.476ZM69.6348 121.364C70.3534 121.364 70.9134 121.527 71.3148 121.854C71.7254 122.171 71.9308 122.619 71.9308 123.198C71.9308 123.366 71.9028 123.898 71.8468 124.794C71.8374 125.055 71.8234 125.326 71.8048 125.606C71.7861 125.877 71.7768 126.11 71.7768 126.306C71.7768 126.465 71.8001 126.577 71.8468 126.642C71.8934 126.698 71.9774 126.726 72.0988 126.726C72.1921 126.726 72.3134 126.707 72.4628 126.67L72.6028 126.782L72.4348 127.762C72.1361 127.958 71.7954 128.075 71.4128 128.112C71.1328 128.084 70.8994 127.986 70.7128 127.818C70.5261 127.641 70.4001 127.398 70.3347 127.09H70.2368C69.7701 127.585 69.2894 127.93 68.7948 128.126C68.1228 128.117 67.5954 127.939 67.2128 127.594C66.8301 127.249 66.6388 126.777 66.6388 126.18C66.6388 125.713 66.7554 125.349 66.9888 125.088C67.2314 124.817 67.5954 124.635 68.0808 124.542L70.2228 124.136V123.562C70.2228 122.955 69.9241 122.652 69.3268 122.652C69.0374 122.652 68.7294 122.717 68.4028 122.848C68.0854 122.979 67.7261 123.184 67.3248 123.464L67.1848 123.38L66.9748 122.148C67.3761 121.896 67.8054 121.705 68.2628 121.574C68.7201 121.434 69.1774 121.364 69.6348 121.364ZM68.7248 125.396C68.5754 125.433 68.4634 125.499 68.3888 125.592C68.3234 125.676 68.2908 125.807 68.2908 125.984C68.2908 126.227 68.3561 126.418 68.4868 126.558C68.6174 126.689 68.7994 126.754 69.0328 126.754C69.3968 126.754 69.7794 126.539 70.1808 126.11L70.2088 125.074L68.7248 125.396ZM73.939 125.312L73.869 121.616L75.703 121.462L75.619 125.13L75.703 128H73.841L73.939 125.312ZM74.821 118.298C75.1103 118.298 75.3343 118.382 75.493 118.55C75.661 118.718 75.745 118.951 75.745 119.25C75.745 119.567 75.6563 119.819 75.479 120.006C75.3017 120.193 75.059 120.286 74.751 120.286C74.443 120.286 74.205 120.202 74.037 120.034C73.8783 119.866 73.799 119.628 73.799 119.32C73.799 119.012 73.8877 118.765 74.065 118.578C74.2517 118.391 74.5037 118.298 74.821 118.298ZM79.6474 121.378C80.282 121.378 80.8794 121.485 81.4394 121.7L81.1874 123.072L80.9634 123.142C80.6927 122.965 80.422 122.829 80.1514 122.736C79.8807 122.643 79.6427 122.596 79.4374 122.596C79.2134 122.596 79.036 122.657 78.9054 122.778C78.7747 122.89 78.7094 123.03 78.7094 123.198C78.7094 123.394 78.7934 123.553 78.9614 123.674C79.1387 123.795 79.414 123.931 79.7874 124.08C80.1607 124.229 80.4687 124.374 80.7114 124.514C80.954 124.654 81.1594 124.85 81.3274 125.102C81.5047 125.345 81.5934 125.648 81.5934 126.012C81.5934 126.385 81.4954 126.735 81.2994 127.062C81.1127 127.379 80.8234 127.641 80.4314 127.846C80.0394 128.042 79.5587 128.14 78.9894 128.14C78.3174 128.14 77.622 128 76.9034 127.72L77.1134 126.264L77.2954 126.152C77.5847 126.395 77.9067 126.591 78.2614 126.74C78.616 126.88 78.9287 126.95 79.1994 126.95C79.4514 126.95 79.6474 126.889 79.7874 126.768C79.9274 126.637 79.9974 126.483 79.9974 126.306C79.9974 126.11 79.9087 125.951 79.7314 125.83C79.5634 125.709 79.2927 125.573 78.9194 125.424C78.5367 125.256 78.224 125.107 77.9814 124.976C77.7387 124.836 77.5287 124.64 77.3514 124.388C77.1834 124.136 77.0994 123.823 77.0994 123.45C77.0994 122.843 77.328 122.349 77.7854 121.966C78.2427 121.574 78.8634 121.378 79.6474 121.378ZM90.3876 125.13L90.4296 126.306C90.4296 126.465 90.4482 126.577 90.4856 126.642C90.5322 126.698 90.6116 126.726 90.7236 126.726C90.8262 126.726 90.9522 126.707 91.1016 126.67L91.2276 126.782L91.0736 127.762C90.7562 127.958 90.4109 128.075 90.0376 128.112C89.7482 128.084 89.5056 127.986 89.3096 127.818C89.1136 127.65 88.9782 127.421 88.9036 127.132H88.7916C88.3342 127.552 87.8676 127.874 87.3916 128.098C86.4769 128.098 85.7676 127.809 85.2636 127.23C84.7596 126.642 84.5076 125.83 84.5076 124.794C84.5076 123.693 84.7969 122.848 85.3756 122.26C85.9542 121.672 86.7569 121.378 87.7836 121.378C88.0542 121.378 88.3529 121.406 88.6796 121.462L88.6516 118.312L90.4996 118.172L90.3876 125.13ZM87.6576 122.638C86.7242 122.638 86.2576 123.231 86.2576 124.416C86.2576 125.153 86.3696 125.709 86.5936 126.082C86.8176 126.455 87.1442 126.642 87.5736 126.642C87.9842 126.642 88.3622 126.451 88.7076 126.068L88.7356 125.298L88.6936 122.89C88.3296 122.722 87.9842 122.638 87.6576 122.638ZM95.0267 121.364C95.9787 121.364 96.7067 121.644 97.2107 122.204C97.7147 122.764 97.9667 123.571 97.9667 124.626C97.9667 125.765 97.696 126.637 97.1547 127.244C96.6134 127.841 95.834 128.14 94.8167 128.14C93.8647 128.14 93.1367 127.86 92.6327 127.3C92.1287 126.74 91.8767 125.933 91.8767 124.878C91.8767 123.739 92.1474 122.871 92.6887 122.274C93.23 121.667 94.0094 121.364 95.0267 121.364ZM94.9007 122.624C94.4527 122.624 94.126 122.773 93.9207 123.072C93.7247 123.371 93.6267 123.851 93.6267 124.514C93.6267 125.373 93.7294 125.984 93.9347 126.348C94.14 126.712 94.476 126.894 94.9427 126.894C95.3907 126.894 95.7127 126.749 95.9087 126.46C96.114 126.161 96.2167 125.676 96.2167 125.004C96.2167 124.155 96.1094 123.548 95.8947 123.184C95.6894 122.811 95.358 122.624 94.9007 122.624ZM104.036 121.364C104.344 121.364 104.647 121.397 104.946 121.462C105.254 121.518 105.524 121.602 105.758 121.714L105.45 123.198L105.296 123.268C104.82 123.007 104.395 122.876 104.022 122.876C103.592 122.876 103.261 123.03 103.028 123.338C102.794 123.646 102.678 124.085 102.678 124.654C102.678 125.307 102.804 125.807 103.056 126.152C103.308 126.497 103.667 126.67 104.134 126.67C104.554 126.67 105.02 126.553 105.534 126.32L105.674 126.432L105.492 127.874C104.932 128.051 104.358 128.14 103.77 128.14C102.874 128.14 102.174 127.851 101.67 127.272C101.166 126.684 100.914 125.867 100.914 124.822C100.914 123.739 101.189 122.895 101.74 122.288C102.29 121.672 103.056 121.364 104.036 121.364ZM109.451 121.364C110.403 121.364 111.131 121.644 111.635 122.204C112.139 122.764 112.391 123.571 112.391 124.626C112.391 125.765 112.12 126.637 111.579 127.244C111.037 127.841 110.258 128.14 109.241 128.14C108.289 128.14 107.561 127.86 107.057 127.3C106.553 126.74 106.301 125.933 106.301 124.878C106.301 123.739 106.571 122.871 107.113 122.274C107.654 121.667 108.433 121.364 109.451 121.364ZM109.325 122.624C108.877 122.624 108.55 122.773 108.345 123.072C108.149 123.371 108.051 123.851 108.051 124.514C108.051 125.373 108.153 125.984 108.359 126.348C108.564 126.712 108.9 126.894 109.367 126.894C109.815 126.894 110.137 126.749 110.333 126.46C110.538 126.161 110.641 125.676 110.641 125.004C110.641 124.155 110.533 123.548 110.319 123.184C110.113 122.811 109.782 122.624 109.325 122.624ZM117.182 121.476C117.266 121.476 117.383 121.485 117.532 121.504V123.226L117.336 123.296C117.178 123.231 117.005 123.198 116.818 123.198C116.277 123.198 115.787 123.548 115.348 124.248V125.13L115.446 128H113.584L113.696 125.312L113.612 121.616L115.376 121.462L115.362 122.736H115.474C115.932 121.896 116.501 121.476 117.182 121.476ZM121.896 121.406C122.708 121.406 123.333 121.681 123.772 122.232C124.21 122.783 124.43 123.562 124.43 124.57C124.43 125.709 124.145 126.591 123.576 127.216C123.016 127.832 122.222 128.14 121.196 128.14C120.897 128.14 120.584 128.112 120.258 128.056L120.3 130.59H118.452L118.55 125.312L118.466 121.616L120.244 121.462L120.23 122.414H120.328C120.589 122.162 120.841 121.961 121.084 121.812C121.326 121.653 121.597 121.518 121.896 121.406ZM121.21 126.922C121.695 126.922 122.064 126.749 122.316 126.404C122.568 126.059 122.694 125.55 122.694 124.878C122.694 124.225 122.586 123.735 122.372 123.408C122.166 123.072 121.858 122.904 121.448 122.904C121.046 122.904 120.64 123.105 120.23 123.506L120.216 125.13L120.244 126.712C120.58 126.852 120.902 126.922 121.21 126.922ZM128.4 121.364C129.352 121.364 130.08 121.644 130.584 122.204C131.088 122.764 131.34 123.571 131.34 124.626C131.34 125.765 131.069 126.637 130.528 127.244C129.986 127.841 129.207 128.14 128.19 128.14C127.238 128.14 126.51 127.86 126.006 127.3C125.502 126.74 125.25 125.933 125.25 124.878C125.25 123.739 125.52 122.871 126.062 122.274C126.603 121.667 127.382 121.364 128.4 121.364ZM128.274 122.624C127.826 122.624 127.499 122.773 127.294 123.072C127.098 123.371 127 123.851 127 124.514C127 125.373 127.102 125.984 127.308 126.348C127.513 126.712 127.849 126.894 128.316 126.894C128.764 126.894 129.086 126.749 129.282 126.46C129.487 126.161 129.59 125.676 129.59 125.004C129.59 124.155 129.482 123.548 129.268 123.184C129.062 122.811 128.731 122.624 128.274 122.624ZM132.908 126.11C133.197 126.11 133.421 126.194 133.58 126.362C133.748 126.53 133.832 126.763 133.832 127.062C133.832 127.379 133.743 127.631 133.566 127.818C133.388 128.005 133.146 128.098 132.838 128.098C132.53 128.098 132.292 128.014 132.124 127.846C131.965 127.678 131.886 127.44 131.886 127.132C131.886 126.824 131.974 126.577 132.152 126.39C132.338 126.203 132.59 126.11 132.908 126.11Z" fill="white"/>
<defs>
<filter id="filter0_b_136:22416" x="3" y="67" width="161" height="97" filterUnits="userSpaceOnUse" color-interpolation-filters="sRGB">
<feFlood flood-opacity="0" result="BackgroundImageFix"/>
<feGaussianBlur in="BackgroundImage" stdDeviation="5"/>
<feComposite in2="SourceAlpha" operator="in" result="effect1_backgroundBlur_136:22416"/>
<feBlend mode="normal" in="SourceGraphic" in2="effect1_backgroundBlur_136:22416" result="shape"/>
</filter>
</defs>
</svg>
