<svg width="167" height="167" viewBox="0 0 167 167" fill="none" xmlns="http://www.w3.org/2000/svg">
<mask id="mask0_136:22493" style="mask-type:alpha" maskUnits="userSpaceOnUse" x="0" y="0" width="167" height="167">
<rect x="1" y="1" width="165" height="165" rx="8" fill="#5988D6" stroke="#EDE6FC" stroke-opacity="0.3"/>
</mask>
<g mask="url(#mask0_136:22493)">
<rect x="1" y="1" width="165" height="165" rx="8" fill="#FAE28B" stroke="#EDE6FC" stroke-opacity="0.3"/>
<g clip-path="url(#clip0_136:22493)">
<path d="M111.312 46.4329C111.312 46.4329 102.537 64.9355 97.0821 62.5208C90.7478 59.7267 102.192 49.6971 105.503 47.5066C108.815 45.3161 108.371 44.4451 111.312 46.4329Z" fill="#E4A068"/>
<path d="M106.137 46.877C105.555 48.4466 105.654 50.7923 107.09 51.9091C107.349 52.1276 107.668 52.2624 108.006 52.2955C108.343 52.3286 108.682 52.2585 108.979 52.0945C109.228 51.9343 109.41 51.6881 109.489 51.4026C109.569 51.1172 109.541 50.8125 109.41 50.5465C109.315 50.3611 109.035 50.5465 109.13 50.7103C109.531 51.5081 108.63 52.1333 107.905 51.9479C107.61 51.8499 107.34 51.6893 107.113 51.4772C106.886 51.2651 106.708 51.0065 106.59 50.719C106.317 50.1339 106.164 49.4997 106.142 48.8543C106.12 48.2089 106.228 47.5657 106.461 46.9633C106.534 46.7692 106.219 46.683 106.15 46.877H106.137Z" fill="#292D44"/>
<path d="M118.952 47.347C118.952 47.347 120.772 48.7915 120.388 49.3348C120.005 49.8781 118.715 48.6234 117.853 48.2827C116.99 47.9421 114.834 46.89 114.834 46.89L118.952 47.347Z" fill="#B7694A"/>
<path d="M108.561 48.2569C109.415 48.989 110.307 49.6756 111.234 50.3137C112.601 51.2321 113.299 52.9008 113.722 51.6719C114.145 50.443 112.597 48.8217 112.691 48.2827C112.864 47.2996 114.502 47.4203 117.253 47.8515C120.867 48.4336 121.134 47.7782 120.966 47.5799C120.384 46.8296 118.646 46.7175 115.93 45.7688C113.516 45.0044 110.944 44.887 108.47 45.4282C108.384 46.3712 108.415 47.3212 108.561 48.2569Z" fill="#E4A068"/>
<path d="M98.048 109.741L95.5427 122.233L100.04 124.281L105.551 111.009L98.048 109.741Z" fill="#E4A068"/>
<path d="M106.202 134.85C106.207 135.392 106.057 135.924 105.771 136.385L92.4037 129.378C92.4553 128.707 92.6005 128.047 92.8349 127.416C93.4989 125.609 94.6545 124.54 94.5899 123.733C94.4044 121.461 95.7282 121.405 95.7282 121.405C96.3578 121.008 97.3236 122.88 98.1472 123.358C98.9708 123.837 100.734 122.548 101.006 122.595C101.278 122.642 100.609 124.583 100.609 125.933C100.609 127.282 103.766 129.813 105.353 132.28C105.887 133.032 106.183 133.927 106.202 134.85Z" fill="#6B76C7"/>
<path d="M102.295 128.08C102.076 127.936 101.823 127.852 101.561 127.836C101.3 127.82 101.038 127.873 100.803 127.989C100.618 128.08 100.803 128.36 100.967 128.27C101.152 128.181 101.357 128.142 101.561 128.158C101.766 128.174 101.962 128.244 102.131 128.36C102.304 128.477 102.468 128.196 102.295 128.08Z" fill="white"/>
<path d="M102.856 128.809C102.439 128.661 101.986 128.649 101.562 128.774C101.542 128.78 101.523 128.789 101.506 128.802C101.489 128.815 101.475 128.832 101.465 128.85C101.455 128.868 101.448 128.889 101.445 128.91C101.443 128.931 101.444 128.952 101.45 128.972C101.456 128.993 101.465 129.012 101.478 129.029C101.491 129.045 101.508 129.059 101.526 129.07C101.544 129.08 101.565 129.087 101.586 129.089C101.607 129.092 101.628 129.09 101.648 129.085C102.019 128.973 102.415 128.985 102.778 129.119C102.977 129.188 103.058 128.878 102.864 128.809H102.856Z" fill="white"/>
<path d="M103.636 129.593C103.193 129.473 102.726 129.473 102.282 129.593C102.241 129.605 102.206 129.632 102.185 129.669C102.164 129.707 102.159 129.751 102.17 129.792C102.182 129.833 102.209 129.868 102.246 129.889C102.283 129.91 102.327 129.915 102.369 129.904C102.755 129.796 103.164 129.796 103.55 129.904C103.571 129.909 103.592 129.911 103.613 129.909C103.634 129.906 103.654 129.899 103.673 129.889C103.691 129.878 103.707 129.865 103.72 129.848C103.733 129.831 103.743 129.812 103.748 129.792C103.754 129.771 103.756 129.75 103.753 129.729C103.751 129.708 103.744 129.688 103.734 129.669C103.723 129.651 103.709 129.635 103.692 129.622C103.676 129.609 103.657 129.599 103.636 129.593Z" fill="white"/>
<path d="M106.202 134.85C106.207 135.392 106.057 135.924 105.771 136.385L92.4037 129.378C92.4553 128.707 92.6005 128.047 92.8349 127.416L106.202 134.85Z" fill="white"/>
<path d="M94.1414 125.182C95.2833 125.631 96.2513 126.433 96.9032 127.473C97.5551 128.512 97.8566 129.733 97.7634 130.956C97.7634 131.167 98.0696 131.163 98.0868 130.956C98.1815 129.659 97.8549 128.366 97.1556 127.27C96.4564 126.174 95.4219 125.333 94.2061 124.872C94.012 124.794 93.9301 125.109 94.1198 125.182H94.1414Z" fill="white"/>
<path d="M97.8971 129.494L105.659 133.875C105.695 133.89 105.736 133.892 105.774 133.879C105.811 133.866 105.843 133.841 105.863 133.806C105.883 133.772 105.89 133.732 105.882 133.693C105.875 133.654 105.854 133.619 105.822 133.595C103.235 132.137 100.648 130.677 98.061 129.214C97.8799 129.115 97.716 129.391 97.8971 129.494Z" fill="white"/>
<path d="M117.577 76.1596C117.577 86.5083 106.4 115.83 106.4 115.83L94.538 113.484L99.5873 86.3962L78.8252 84.0504C75.7249 76.1121 77.7386 70.4203 88.2555 68.4455C88.2555 68.4455 104.481 68.7171 112.734 71.0844C114.541 71.6018 115.964 72.2184 116.753 72.9558C117.348 73.4905 117.577 74.6116 117.577 76.1596Z" fill="#C64DA9"/>
<path d="M117.577 76.1596C115.356 76.9702 112.562 77.5351 110.622 76.3062C108.349 74.8703 110.622 72.6108 112.735 71.0844C114.541 71.6018 115.964 72.2184 116.753 72.9558C117.348 73.4905 117.577 74.6116 117.577 76.1596Z" fill="#91258C"/>
<path d="M94.5899 111.345L108 114.277L107 117.882L93.4429 114.907L94.5899 111.345Z" fill="#91258C"/>
<path d="M97.039 111.742H97.0131C96.993 111.738 96.9738 111.731 96.9566 111.72C96.9394 111.709 96.9246 111.694 96.913 111.677C96.9013 111.66 96.8932 111.642 96.8889 111.622C96.8846 111.602 96.8844 111.581 96.8881 111.561L102.394 82.925L83.521 80.9717C83.5006 80.9696 83.4808 80.9634 83.4627 80.9536C83.4447 80.9437 83.4288 80.9304 83.416 80.9143C83.4031 80.8983 83.3936 80.8798 83.388 80.8601C83.3823 80.8403 83.3806 80.8197 83.383 80.7992C83.3874 80.7588 83.4074 80.7217 83.4389 80.6959C83.4703 80.6701 83.5107 80.6576 83.5512 80.6613L102.597 82.6318C102.619 82.6348 102.639 82.642 102.658 82.6531C102.676 82.6642 102.692 82.679 102.705 82.6965C102.717 82.7137 102.726 82.7333 102.731 82.7541C102.735 82.7749 102.735 82.7964 102.731 82.8172L97.1942 111.625C97.1854 111.66 97.1653 111.69 97.137 111.711C97.1088 111.732 97.0743 111.743 97.039 111.742Z" fill="#91258C"/>
<path d="M62.401 143.021L61.3575 155.073L66.2947 155.465L69.8047 144.202L62.401 143.021Z" fill="#E4A068"/>
<path d="M69.5761 162.049H58.6194C58.7142 161.618 58.8565 161.084 59.0161 160.506C59.5766 158.484 60.383 155.918 60.4563 155.275C60.6192 154.525 60.911 153.809 61.3187 153.158L61.5386 154.676C61.5386 154.676 63.4876 151.813 64.6475 151.658C64.976 151.637 65.3037 151.71 65.5918 151.869C66.1944 152.168 66.6779 152.663 66.9637 153.272C67.2495 153.881 67.3207 154.569 67.1657 155.224L66.9415 156.202C68.5196 157.155 69.1578 158.954 69.4122 160.514C69.4994 161.022 69.5541 161.535 69.5761 162.049Z" fill="#6B76C7"/>
<path d="M59.2188 160.07H68.9768C69.0151 160.064 69.05 160.044 69.0751 160.015C69.1003 159.985 69.1141 159.947 69.1141 159.909C69.1141 159.87 69.1003 159.832 69.0751 159.803C69.05 159.773 69.0151 159.753 68.9768 159.747H59.2188C59.1804 159.753 59.1456 159.773 59.1204 159.803C59.0952 159.832 59.0814 159.87 59.0814 159.909C59.0814 159.947 59.0952 159.985 59.1204 160.015C59.1456 160.044 59.1804 160.064 59.2188 160.07Z" fill="white"/>
<path d="M63.5998 157.293C63.9106 157.079 64.2812 156.967 64.6589 156.975C65.0366 156.983 65.4023 157.109 65.704 157.337C65.8722 157.457 66.036 157.177 65.8679 157.056C65.5163 156.801 65.095 156.661 64.6608 156.653C64.2267 156.645 63.8007 156.771 63.4402 157.013C63.2635 157.13 63.4402 157.41 63.5998 157.293Z" fill="white"/>
<path d="M63.5998 156.535C63.9103 156.319 64.281 156.207 64.6589 156.215C65.0368 156.223 65.4025 156.35 65.704 156.578C65.8722 156.698 66.036 156.418 65.8679 156.297C65.517 156.041 65.0955 155.899 64.6609 155.891C64.2263 155.884 63.8 156.01 63.4402 156.254C63.2635 156.371 63.4402 156.651 63.5998 156.535Z" fill="white"/>
<path d="M63.5998 155.771C63.9111 155.558 64.2814 155.447 64.6588 155.455C65.0362 155.463 65.4017 155.588 65.704 155.814C65.8722 155.935 66.036 155.655 65.8679 155.538C65.517 155.282 65.0955 155.14 64.6609 155.132C64.2263 155.125 63.8 155.251 63.4402 155.495C63.2635 155.607 63.4402 155.888 63.5998 155.771Z" fill="white"/>
<path d="M69.5761 162.05H58.6194C58.7142 161.618 58.8565 161.084 59.0161 160.506H69.4208C69.5055 161.017 69.5573 161.532 69.5761 162.05Z" fill="white"/>
<path d="M84.4697 107.016C84.4309 107.952 84.0385 109.776 83.3658 112.151C80.2655 123.401 71.7235 146.988 71.7235 146.988L59.3568 144.586C59.3568 144.586 69.1881 110.435 68.9294 108.456C68.2308 103.122 59.1714 73.5853 59.1714 73.5853L78.7046 69.4501C78.7046 69.4501 83.7711 96.7233 84.4093 105.239C84.4619 105.83 84.482 106.423 84.4697 107.016Z" fill="#C64DA9"/>
<path d="M84.4696 107.016C84.4308 107.952 84.0384 109.776 83.3658 112.151C80.9856 111.979 77.1996 111.341 76.5658 109.021C75.5999 105.468 81.9514 105.222 84.4093 105.257C84.4612 105.842 84.4814 106.429 84.4696 107.016Z" fill="#91258C"/>
<path d="M80.0584 77.4661L81.0933 83.8392C81.1278 84.0375 81.4253 83.9556 81.3951 83.7572C81.0502 81.6357 80.7038 79.5114 80.3559 77.3842C80.3258 77.1901 80.0282 77.272 80.0584 77.4661Z" fill="#91258C"/>
<path d="M81.1278 81.7651C82.3999 81.4805 82.9475 80.0964 82.9561 78.9063C82.9871 77.4135 82.6929 75.9318 82.0937 74.5641C82.0118 74.3874 81.7444 74.5426 81.8264 74.7237C82.3419 75.9241 82.623 77.2121 82.6543 78.5182C82.7103 79.6738 82.3697 81.1744 81.0588 81.4633C80.8648 81.5107 80.9467 81.8082 81.1451 81.7651H81.1278Z" fill="#91258C"/>
<path d="M61.9569 142.21H61.9138C61.8942 142.204 61.876 142.195 61.8602 142.182C61.8444 142.169 61.8313 142.153 61.8217 142.135C61.8121 142.117 61.8062 142.097 61.8042 142.077C61.8022 142.056 61.8043 142.036 61.8103 142.016C61.9094 141.701 71.676 110.474 71.6674 108.693C71.6588 106.912 62.9702 77.7507 62.884 77.4704C62.878 77.4509 62.8759 77.4303 62.8779 77.41C62.8798 77.3897 62.8858 77.3699 62.8954 77.3519C62.905 77.3339 62.9181 77.3179 62.9339 77.305C62.9497 77.292 62.9679 77.2823 62.9874 77.2764C63.0269 77.2654 63.069 77.2701 63.1051 77.2893C63.1413 77.3086 63.1686 77.341 63.1815 77.3799C63.5394 78.5829 71.9692 106.856 71.9779 108.685C71.9865 110.513 62.4916 140.809 62.1078 142.098C62.0984 142.131 62.0785 142.159 62.0512 142.18C62.024 142.2 61.9908 142.211 61.9569 142.21Z" fill="#91258C"/>
<path d="M59.167 142.098L73.6509 144.521L72.685 147.902L58.309 145.436L59.167 142.098Z" fill="#91258C"/>
<path d="M71.5252 25.0413C71.5252 25.0413 68.468 26.4168 64.9839 28.2623C62.828 29.4007 59.3784 30.3062 59.124 31.5825C55.6744 49.4254 58.2616 67.9065 58.2616 67.9065L87.7942 64.431C84.5301 63.5428 88.9843 34.8079 89.3595 32.6821C89.7734 30.2372 71.5252 25.0413 71.5252 25.0413Z" fill="#6B76C7"/>
<path d="M68.3041 40.7713V47.3168L82.775 46.6959L82.0851 40.3013L68.3041 40.7713Z" fill="#7F9BF2"/>
<path d="M57.563 60.1751C57.563 60.1751 58.0502 69.3035 59.3783 77.0694C59.3783 77.0694 79.1745 75.8103 90.6918 68.5188C90.6918 68.5188 86.7722 64.8062 86.5696 57.8553L57.563 60.1751Z" fill="#6B76C7"/>
<path d="M85.4398 61.4169C79.9689 61.7405 74.5901 62.9734 69.5244 65.0649C69.3346 65.1425 69.4166 65.4573 69.6106 65.3753C74.6491 63.2947 79.9984 62.0663 85.4398 61.7403C85.6468 61.7403 85.6511 61.4083 85.4398 61.4169Z" fill="#292D44"/>
<path d="M59.913 46.1655C59.3132 54.0041 59.4865 61.8827 60.4304 69.6873C60.6977 71.8605 61.0226 74.0251 61.4049 76.1811C61.4437 76.3881 61.7542 76.2975 61.7197 76.0949C60.3513 68.403 59.7418 60.5954 59.9 52.7844C59.9432 50.5767 60.0495 48.3704 60.2191 46.1655C60.2191 45.9586 59.9087 45.9586 59.8957 46.1655H59.913Z" fill="#292D44"/>
<path d="M72.2755 33.2987C72.6072 33.8424 73.0486 34.3111 73.5715 34.6747C74.0944 35.0384 74.6874 35.289 75.3126 35.4108C75.9378 35.5325 76.5815 35.5225 77.2026 35.3816C77.8238 35.2407 78.4088 34.9719 78.9202 34.5923C79.0625 34.4845 78.9202 34.2473 78.7822 34.3508C78.302 34.7137 77.7512 34.972 77.1651 35.1092C76.579 35.2464 75.9707 35.2593 75.3793 35.1472C74.788 35.0351 74.2266 34.8005 73.7314 34.4583C73.2362 34.1162 72.8181 33.6742 72.504 33.1607C72.4092 33.0098 72.172 33.1607 72.2625 33.2987H72.2755Z" fill="#292D44"/>
<path d="M88.2296 38.1841C88.0097 40.9826 87.5138 43.7465 87.2982 46.545C87.2982 46.7434 87.5914 46.7434 87.6087 46.545C87.8243 43.7465 88.3202 40.9826 88.5358 38.1841C88.5358 37.9814 88.2425 37.9858 88.2296 38.1841Z" fill="#292D44"/>
<path d="M70.5938 25.8476C70.5938 25.8476 70.5937 32.4621 76.5399 32.9494L78.3596 28.2752L79.1659 26.1624L79.7308 24.679L75.4404 20.1385C74.1734 22.312 72.5327 24.2446 70.5938 25.8476Z" fill="#E4A068"/>
<path d="M75.2291 22.8335C75.4749 27.0981 77.2083 28.8703 78.0491 29.0859L79.1659 26.1624L75.2291 22.8335Z" fill="#292D44"/>
<path d="M87.4621 19.0002C87.4621 19.0002 87.5052 21.527 84.4437 22.3678L87.4621 19.0002Z" fill="#292D44"/>
<path d="M75.9105 18.3836C75.787 18.5827 75.6747 18.7885 75.5741 19.0002C75.3686 19.4458 75.2375 19.9221 75.1861 20.4102C75.1281 21.2218 75.1396 22.0368 75.2206 22.8465C75.3284 24.4376 76.3934 25.701 77.6741 26.5375C81.0719 28.7495 82.8829 26.628 84.8707 22.9413C86.1083 20.6517 87.501 19.8453 87.5053 18.6294L87.4665 18.4439C87.1437 16.9734 86.2645 15.6847 85.013 14.8478C84.7715 14.6839 84.5387 14.5373 84.3059 14.4166C84.256 14.3832 84.2042 14.353 84.1506 14.326L84.0859 14.2872L83.9092 14.1923L83.7841 14.1277C83.6893 14.0759 83.5944 14.0328 83.5038 13.9897C80.5415 12.5969 78.7909 13.8172 77.6353 15.3911C76.8505 16.4647 76.3417 17.698 75.9105 18.3836Z" fill="#E4A068"/>
<path d="M81.641 20.2636C81.7703 20.3092 81.8818 20.3948 81.9593 20.508C82.0368 20.6212 82.0764 20.756 82.0722 20.8931C82.0722 21.1044 82.3913 21.1044 82.3956 20.8931C82.4 20.6855 82.3379 20.4819 82.2184 20.3121C82.099 20.1422 81.9284 20.0149 81.7315 19.9488C81.5332 19.8798 81.447 20.1946 81.6453 20.2636H81.641Z" fill="#292D44"/>
<path d="M83.715 22.0617C83.84 22.0003 83.9805 21.9782 84.1183 21.9982C84.2561 22.0182 84.3845 22.0794 84.4869 22.1738C84.6464 22.3118 84.8749 22.0789 84.7154 21.941C84.5612 21.7982 84.367 21.706 84.1589 21.6767C83.9508 21.6474 83.7388 21.6825 83.5512 21.7771C83.3571 21.8633 83.5253 22.1479 83.715 22.0617Z" fill="#292D44"/>
<path d="M79.6877 20.4016C79.5669 20.5913 79.7653 20.9276 80.1189 21.1562C80.4725 21.3847 80.8735 21.4106 80.9813 21.2209C81.0891 21.0311 80.8993 20.6948 80.5501 20.4706C80.2008 20.2464 79.8041 20.1989 79.6877 20.4016Z" fill="#B7694A"/>
<path d="M84.3575 23.8511C84.1447 23.845 83.9381 23.7776 83.7625 23.6571C83.4003 23.4329 83.2019 23.0965 83.3313 22.9068C83.4606 22.7171 83.8401 22.7516 84.1937 22.9758C84.3733 23.0785 84.5222 23.2274 84.6249 23.407L84.3575 23.8511Z" fill="#B7694A"/>
<path d="M82.6801 19.4314C82.5206 19.2201 82.2015 19.039 81.9514 19.2287C81.8836 19.2921 81.7942 19.3273 81.7013 19.3273C81.6085 19.3273 81.5191 19.2921 81.4512 19.2287C81.4198 19.1945 81.3953 19.1544 81.3794 19.1107C81.3634 19.067 81.3562 19.0206 81.3582 18.9741C81.3602 18.9277 81.3714 18.8821 81.3911 18.8399C81.4107 18.7978 81.4385 18.7599 81.4728 18.7285C81.6016 18.6299 81.7488 18.558 81.9057 18.5169C82.0626 18.4758 82.2262 18.4665 82.3868 18.4893C82.5474 18.5122 82.7018 18.5669 82.841 18.6502C82.9802 18.7334 83.1015 18.8436 83.1976 18.9743C83.2601 19.0439 83.2928 19.1353 83.2888 19.2288C83.2848 19.3223 83.2443 19.4105 83.176 19.4745C83.1432 19.5073 83.1042 19.5334 83.0613 19.5512C83.0184 19.569 82.9724 19.5781 82.9259 19.5781C82.8795 19.5781 82.8335 19.569 82.7906 19.5512C82.7477 19.5334 82.7087 19.5073 82.6758 19.4745L82.6801 19.4314Z" fill="#292D44"/>
<path d="M85.0518 21.264C85.0445 21.1216 84.9927 20.9851 84.9038 20.8737C84.8148 20.7623 84.6931 20.6816 84.5559 20.643C84.4693 20.6135 84.3976 20.5516 84.3557 20.4703C84.3138 20.389 84.305 20.2946 84.3313 20.207C84.3575 20.1193 84.4167 20.0453 84.4964 20.0003C84.576 19.9554 84.67 19.9431 84.7586 19.9661C85.0158 20.0389 85.2461 20.1855 85.4208 20.3878C85.5955 20.5902 85.7071 20.8393 85.7417 21.1044C85.8064 21.5356 85.1165 21.7167 85.0518 21.264Z" fill="#292D44"/>
<path d="M82.8526 22.605C82.5728 22.5967 82.3021 22.5034 82.0765 22.3376C82.0631 22.3311 82.0512 22.3218 82.0417 22.3102C82.0322 22.2987 82.0254 22.2853 82.0216 22.2708C82.0178 22.2564 82.0172 22.2413 82.0198 22.2266C82.0223 22.2119 82.0281 22.1979 82.0366 22.1856C82.0451 22.1734 82.0561 22.1631 82.069 22.1555C82.0818 22.1479 82.0962 22.1431 82.111 22.1416C82.1259 22.1401 82.1409 22.1418 82.155 22.1466C82.1692 22.1514 82.1821 22.1592 82.1929 22.1695C82.3625 22.2907 82.5596 22.3677 82.7664 22.3937C82.7367 21.9712 82.8248 21.5488 83.0208 21.1734C83.034 21.1488 83.0563 21.1305 83.083 21.1224C83.0962 21.1184 83.1101 21.117 83.1238 21.1184C83.1376 21.1197 83.1509 21.1238 83.1631 21.1303C83.1753 21.1368 83.186 21.1456 83.1948 21.1563C83.2036 21.167 83.2101 21.1793 83.2141 21.1925C83.2181 21.2057 83.2195 21.2196 83.2181 21.2333C83.2168 21.2471 83.2127 21.2604 83.2062 21.2726C83.007 21.6369 82.9328 22.0565 82.9949 22.467C83.0025 22.4809 83.0064 22.4965 83.0064 22.5123C83.0064 22.5281 83.0025 22.5437 82.9949 22.5576C82.9858 22.5703 82.9743 22.581 82.961 22.5892C82.9476 22.5973 82.9328 22.6027 82.9173 22.605H82.8526Z" fill="#292D44"/>
<path d="M76.5399 20.1256C76.1007 19.8696 75.7604 19.4731 75.574 19.0002C75.3684 19.4458 75.2373 19.9221 75.1859 20.4102C75.6559 20.4604 76.1298 20.3608 76.5399 20.1256Z" fill="#292D44"/>
<path d="M78.42 15.8525C79.5584 17.0771 78.2389 19.5004 79.1919 19.5349C80.1448 19.5694 80.0543 15.5765 81.779 16.8054C83.5038 18.0343 83.1546 17.4695 83.935 18.0473C85.276 19.0218 86.824 18.4526 87.4924 18.6466L87.4536 18.4612C87.1308 16.9906 86.2516 15.702 85.0001 14.865C84.7586 14.7012 84.5258 14.5546 84.2929 14.4338C84.2431 14.4005 84.1913 14.3702 84.1377 14.3433L84.073 14.3045L83.8962 14.2096L83.7712 14.1449C83.6806 14.0932 83.5858 14.0501 83.4909 14.007C80.5286 12.6142 78.7779 13.8345 77.6223 15.4083C77.9321 15.4582 78.2145 15.6154 78.42 15.8525Z" fill="#292D44"/>
<path d="M79.1874 19.5392C78.2388 19.5047 79.5583 17.0857 78.4199 15.8568C78.2197 15.6175 77.942 15.4558 77.6351 15.3997C76.8504 16.4691 76.3415 17.7023 75.9103 18.3879C75.7906 18.5818 75.6812 18.7818 75.5826 18.9873C75.8686 17.4359 76.2502 15.9036 76.7253 14.3993C76.7865 14.2505 76.8586 14.1064 76.9409 13.9681C76.9943 13.9507 77.0492 13.9377 77.1048 13.9293C77.3377 13.8742 77.5771 13.851 77.8162 13.8603C78.2021 13.8728 78.584 13.9411 78.9503 14.063C80.1105 14.5013 81.1707 15.1685 82.0678 16.0249C80.8303 16.482 79.9679 19.5651 79.1874 19.5392Z" fill="#292D44"/>
<path d="M82.7751 24.2435C82.7751 24.2435 82.0248 23.6528 80.5415 22.5187C80.5415 22.5187 79.5799 24.2909 80.7399 25.0024C81.723 25.5759 82.7751 24.2435 82.7751 24.2435Z" fill="white"/>
<path d="M80.5586 25.6967C80.4034 25.6742 80.2576 25.6085 80.1379 25.5071C80.0181 25.4057 79.9294 25.2726 79.8817 25.1232C79.8385 24.955 80.0973 24.8989 80.1404 25.0628C80.1798 25.1658 80.247 25.2558 80.3345 25.3228C80.4221 25.3898 80.5266 25.4312 80.6362 25.4423C80.8044 25.4854 80.7268 25.7398 80.5586 25.6967Z" fill="#B7694A"/>
<path d="M78.1655 19.9704C78.43 19.7507 78.6403 19.4731 78.7801 19.159C78.92 18.8449 78.9856 18.5029 78.9718 18.1593C78.9718 17.2668 78.795 15.8223 78.0016 15.4644C76.8331 14.9469 76.1044 15.8223 75.6042 16.8658C75.104 17.9093 74.9401 19.5866 76.4148 20.2162C76.6992 20.3485 77.0159 20.3956 77.3265 20.352C77.6371 20.3084 77.9285 20.1759 78.1655 19.9704Z" fill="#E4A068"/>
<path d="M76.9927 18.9829C77.3281 18.6162 77.5667 18.1716 77.6869 17.6893C77.7688 17.2581 77.6869 16.5036 77.1522 16.3699C76.9711 16.3268 77.0056 16.0335 77.191 16.081C77.4315 16.1597 77.6401 16.3137 77.7862 16.5203C77.9322 16.7269 78.0077 16.975 78.0017 17.228C78.001 17.9447 77.721 18.633 77.2212 19.1468C77.1005 19.2934 76.8719 19.1123 76.9927 18.9657V18.9829Z" fill="#292D44"/>
<path d="M82.249 21.6693C82.0931 21.9411 81.86 22.1605 81.5792 22.2996C81.2985 22.4388 80.9827 22.4915 80.672 22.451C80.3613 22.4105 80.0696 22.2787 79.8339 22.0723C79.5981 21.8658 79.429 21.5941 79.3479 21.2914C79.2668 20.9887 79.2773 20.6688 79.3782 20.3722C79.4791 20.0755 79.6658 19.8155 79.9147 19.625C80.1635 19.4346 80.4633 19.3223 80.776 19.3024C81.0887 19.2826 81.4003 19.356 81.6712 19.5133C82.0329 19.7234 82.2967 20.0681 82.405 20.4721C82.5133 20.8761 82.4572 21.3065 82.249 21.6693Z" fill="#292D44"/>
<path d="M86.0435 23.8511C85.8875 24.1229 85.6544 24.3423 85.3737 24.4814C85.0929 24.6206 84.7772 24.6733 84.4665 24.6328C84.1557 24.5923 83.864 24.4605 83.6283 24.2541C83.3926 24.0477 83.2234 23.7759 83.1423 23.4732C83.0612 23.1706 83.0718 22.8506 83.1727 22.554C83.2736 22.2573 83.4603 21.9973 83.7091 21.8069C83.9579 21.6164 84.2577 21.5042 84.5704 21.4843C84.8831 21.4644 85.1947 21.5378 85.4657 21.6951C85.8273 21.9052 86.0911 22.2499 86.1994 22.6539C86.3077 23.0579 86.2516 23.4883 86.0435 23.8511Z" fill="#292D44"/>
<path d="M82.2446 21.7857C82.6758 21.7857 83.245 21.8331 83.327 22.3506C83.3615 22.5575 83.6719 22.4713 83.6417 22.2643C83.5339 21.596 82.7793 21.4796 82.2446 21.4623C82.0334 21.4623 82.0334 21.7771 82.2446 21.7857Z" fill="white"/>
<path d="M80.5285 19.1813C80.4602 18.7387 80.3041 18.3143 80.0693 17.9329C79.8346 17.5515 79.526 17.221 79.1616 16.9606C78.9935 16.8399 78.8382 17.1245 79.0021 17.2452C79.3302 17.4834 79.607 17.7852 79.8159 18.1326C80.0248 18.4801 80.1616 18.8661 80.218 19.2675C80.2482 19.4745 80.5587 19.3883 80.5285 19.1813Z" fill="white"/>
<path d="M99.9193 60.8046C98.3369 63.6204 95.4435 63.1805 92.8434 58.321C91.5462 55.8755 90.3775 53.3639 89.3421 50.7966C89.0144 49.9989 88.7169 49.24 88.4538 48.5457C87.4578 45.9241 86.9102 44.1475 86.9102 44.1475L94.3569 40.5082C94.3569 40.5082 94.676 41.1637 95.1676 42.233C95.422 42.7979 95.7281 43.4792 96.0558 44.2381C98.2334 49.2917 101.536 57.9156 99.9193 60.8046Z" fill="#E4A068"/>
<path d="M99.0267 52.7413C97.6753 53.9144 96.5272 55.3029 95.6289 56.8506C95.6138 56.8871 95.6124 56.928 95.625 56.9655C95.6376 57.003 95.6634 57.0347 95.6976 57.0547C95.7318 57.0747 95.772 57.0816 95.8109 57.0742C95.8498 57.0668 95.8847 57.0456 95.9092 57.0144C96.794 55.491 97.9246 54.1244 99.2553 52.9698C99.4148 52.8361 99.1863 52.6076 99.0267 52.7413Z" fill="#B7694A"/>
<path d="M98.2334 53.5174C97.5712 53.6381 96.9286 53.8484 96.3232 54.1427C96.1378 54.2375 96.3016 54.5135 96.4871 54.4229C97.0679 54.1419 97.6845 53.9417 98.3196 53.8279C98.5223 53.7934 98.4361 53.4829 98.2334 53.5174Z" fill="#B7694A"/>
<path d="M96.349 43.1084C96.349 43.1084 91.7611 46.8943 87.0309 48.2439C87.0309 48.2439 86.5393 46.9503 85.9658 45.0876C86.9446 39.1672 88.3978 35.9333 88.6091 34.0231C88.6342 33.8272 88.6429 33.6296 88.6349 33.4323C88.6211 33.1321 88.5748 32.8343 88.4969 32.5441C88.3186 31.8749 87.9338 31.2789 87.3974 30.8409C87.3974 30.8409 92.9943 34.036 96.349 43.1084Z" fill="#6B76C7"/>
<path d="M95.5946 41.6553C93.2913 43.5293 90.6795 44.9884 87.8761 45.9672C87.6778 46.0362 87.764 46.351 87.9624 46.282C90.8172 45.2755 93.4766 43.7832 95.8231 41.8709C95.9869 41.7415 95.7541 41.513 95.5946 41.6423V41.6553Z" fill="#292D44"/>
<path d="M87.8157 39.0034C87.7697 41.993 87.6073 44.974 87.3285 47.9464C87.3285 48.1232 87.5872 48.1232 87.6045 47.9464C87.8919 44.9711 88.0543 41.9901 88.0917 39.0034C88.0917 38.9668 88.0772 38.9317 88.0513 38.9058C88.0254 38.8799 87.9903 38.8654 87.9537 38.8654C87.9171 38.8654 87.882 38.8799 87.8562 38.9058C87.8303 38.9317 87.8157 38.9668 87.8157 39.0034Z" fill="#292D44"/>
<path d="M58.4901 46.4976C58.4901 46.4976 57.9597 47.222 57.0499 48.4121L56.5497 49.0546C54.7387 51.396 52.518 55.4708 49.3703 59.0109C45.6404 63.2064 42.1693 62.3138 40.7463 59.1057C39.3234 55.8976 43.4499 48.6665 46.7098 44.1432C47.5722 42.9531 48.3268 41.9614 48.8399 41.3017C49.2711 40.7454 49.5341 40.4393 49.5341 40.4393L58.4901 46.4976Z" fill="#E4A068"/>
<path d="M42.6048 50.775C42.6048 50.775 38.4394 57.3335 41.1042 62.5208C43.6353 67.4019 55.6873 77.7981 55.6873 77.7981L59.3869 77.0262C59.3869 77.0262 52.8802 64.3836 48.7364 57.5664L42.6048 50.775Z" fill="#E4A068"/>
<path d="M56.8386 75.1204C56.1962 75.313 55.6538 75.7475 55.3256 76.3323C54.9974 76.9171 54.9091 77.6065 55.0793 78.2552C55.2685 78.9571 55.3356 79.6864 55.2776 80.4112C55.0664 81.9462 54.4152 83.7055 54.5101 84.5118C54.6783 85.7019 55.4932 84.6972 55.5795 84.5549C55.985 83.8326 56.3409 83.0835 56.6445 82.3127C56.6445 82.3127 56.3125 84.9301 55.7821 85.8227C55.2518 86.7152 55.5838 87.5949 56.5497 87.0386C57.5155 86.4824 58.4857 83.6839 58.5461 82.8345C58.6567 83.8247 58.4958 84.8264 58.0804 85.7321C57.4078 86.9696 57.3344 87.5 57.3474 88.0735C57.3603 88.647 58.4944 88.5047 59.3913 86.754C60.0111 85.6608 60.2862 84.4058 60.1803 83.1536C60.4184 83.7917 60.5931 84.4518 60.7021 85.1241C60.9263 86.3832 60.0337 87.7458 60.4822 88.3624C60.9306 88.979 61.9008 87.375 62.0302 86.2495C62.1595 85.1241 62.3493 84.3092 61.9526 82.9121C61.6528 81.7053 61.2309 80.5321 60.6935 79.4108C60.2623 78.6303 59.0635 75.655 57.8821 75.1333C57.5458 75.0108 57.1778 75.0062 56.8386 75.1204Z" fill="#E4A068"/>
<path d="M59.5378 77.2203C59.5378 77.2203 61.599 79.0098 61.9008 79.8808C62.2026 80.7518 63.1168 81.9074 62.5519 82.1575C61.987 82.4076 60.8918 80.9588 60.8918 80.9588L59.5378 77.2203Z" fill="#E4A068"/>
<path d="M49.435 58.5581C48.2597 58.343 47.0535 58.3635 45.8862 58.6185C45.7137 58.653 45.7526 58.9289 45.9293 58.8901C47.0729 58.6431 48.2539 58.624 49.4048 58.8341C49.5773 58.8643 49.6075 58.5883 49.435 58.5581Z" fill="#B7694A"/>
<path d="M48.4862 58.4805C48.0681 57.8554 47.4823 57.3607 46.7959 57.0533C46.6364 56.98 46.5329 57.2387 46.6968 57.312C47.3371 57.6044 47.8813 58.0723 48.2663 58.6616C48.3655 58.8125 48.5854 58.6616 48.4862 58.4934V58.4805Z" fill="#B7694A"/>
<path d="M62.9572 29.7456C62.9572 29.7456 55.4759 30.608 47.0029 41.7286C47.0029 41.7286 51.3796 46.9978 56.5367 49.0373C56.5367 49.0373 61.8447 43.5999 63.6773 39.2233C65.3245 35.2347 65.0916 31.6946 62.9572 29.7456Z" fill="#6B76C7"/>
<path d="M48.4087 40.4134C50.9046 43.4327 54.058 45.8413 57.6277 47.4548C57.8174 47.5368 57.9812 47.2608 57.7915 47.1746C54.247 45.5733 51.1157 43.1824 48.6372 40.1849C48.5036 40.0253 48.275 40.2539 48.4087 40.4134Z" fill="#292D44"/>
<path d="M57.1231 48.5673C57.0996 48.5585 57.0787 48.5437 57.0628 48.5242C57.0354 48.4967 57.02 48.4595 57.02 48.4207C57.02 48.3819 57.0354 48.3447 57.0628 48.3172C59.9447 45.6023 62.2947 42.3735 63.9921 38.7964C64.0082 38.7609 64.0373 38.7331 64.0735 38.7186C64.1097 38.7041 64.15 38.7042 64.1861 38.7188C64.2216 38.7349 64.2495 38.7641 64.264 38.8002C64.2784 38.8364 64.2784 38.8767 64.2638 38.9128C62.5498 42.527 60.1764 45.7895 57.2654 48.5328C57.2466 48.5502 57.2236 48.5625 57.1988 48.5685C57.1739 48.5745 57.1478 48.5741 57.1231 48.5673Z" fill="#292D44"/>
<path d="M62.8107 41.5302C62.7894 41.5235 62.7701 41.5118 62.7543 41.496C62.7385 41.4803 62.7268 41.4609 62.7202 41.4396C62.7134 41.4212 62.7103 41.4017 62.7112 41.3821C62.7121 41.3625 62.7169 41.3433 62.7254 41.3256C62.7338 41.3079 62.7457 41.2921 62.7604 41.2791C62.775 41.2661 62.7921 41.2562 62.8107 41.2499C63.5215 40.9697 64.1726 40.557 64.7295 40.0339C64.759 40.0127 64.7952 40.0028 64.8314 40.0061C64.8677 40.0093 64.9015 40.0256 64.9267 40.0518C64.9518 40.0781 64.9667 40.1125 64.9685 40.1488C64.9703 40.1852 64.959 40.2209 64.9365 40.2495C64.3495 40.808 63.6598 41.2473 62.9056 41.5431C62.8734 41.5476 62.8405 41.5431 62.8107 41.5302Z" fill="#292D44"/>
<path d="M77.1996 14.1622C77.1996 14.1622 71.2103 9.46644 75.186 9.35001C80.2654 9.19047 84.1462 14.3303 84.1462 14.3303L77.1996 14.1622Z" fill="#91258C"/>
<path d="M84.3144 11.312C78.4113 9.3457 76.9409 13.9681 76.9409 13.9681C78.2576 14.947 79.6234 15.858 81.033 16.6976C85.4484 19.4271 87.5009 19.2158 87.5009 19.2158C87.5009 19.2158 90.6142 13.4076 84.3144 11.312ZM86.3022 18.3879C85.2227 18.2056 84.2143 17.7297 83.3873 17.0124C83.7711 16.4259 84.9914 16.2707 85.6597 16.6114C86.535 17.0641 86.3022 18.3879 86.3022 18.3879Z" fill="#C64DA9"/>
<path d="M84.7628 11.4931C82.2446 11.299 79.4591 12.6271 78.7261 15.1884C78.7218 15.2037 78.7206 15.2197 78.7226 15.2354C78.7245 15.2512 78.7295 15.2664 78.7373 15.2802C78.7451 15.294 78.7556 15.3062 78.7681 15.3159C78.7806 15.3257 78.7949 15.3329 78.8102 15.3372C78.8255 15.3414 78.8414 15.3426 78.8572 15.3407C78.8729 15.3388 78.8882 15.3337 78.902 15.3259C78.9158 15.3181 78.9279 15.3077 78.9377 15.2952C78.9475 15.2827 78.9547 15.2684 78.9589 15.2531C79.6661 12.791 82.3568 11.5491 84.7672 11.7345C84.9224 11.7345 84.9224 11.5017 84.7672 11.4931H84.7628Z" fill="#91258C"/>
<path d="M83.314 16.8701C83.1638 16.9217 83.0307 17.0139 82.9295 17.1364C82.8283 17.2589 82.7629 17.407 82.7405 17.5643C82.719 17.7152 82.9518 17.7799 82.9734 17.629C82.9852 17.5122 83.0294 17.4011 83.101 17.3082C83.1727 17.2152 83.2688 17.1441 83.3787 17.1029C83.5253 17.0512 83.465 16.814 83.314 16.8701Z" fill="#91258C"/>
<path d="M86.1901 18.4569C86.2105 18.6317 86.179 18.8086 86.0996 18.9657C86.0263 19.0994 86.2332 19.2244 86.3066 19.0864C86.412 18.8944 86.4556 18.6746 86.4316 18.4569C86.4316 18.306 86.1686 18.3017 86.1901 18.4569Z" fill="#91258C"/>
<path d="M56.4246 11.3939C56.4237 11.4347 56.4091 11.4741 56.383 11.5056C56.357 11.537 56.3211 11.5588 56.2811 11.5673C56.2412 11.5758 56.1995 11.5705 56.1629 11.5523C56.1264 11.5342 56.097 11.5042 56.0796 11.4672C55.9424 11.1149 55.7069 10.8094 55.4012 10.5869C55.0954 10.3645 54.7323 10.2345 54.3548 10.2124C54.0764 10.2275 53.799 10.1693 53.5501 10.0437C53.3011 9.91811 53.0895 9.72949 52.9362 9.49663V15.6584C50.9742 17.3056 47.5419 16.2492 48.525 14.3648C49.5082 12.4805 52.0824 14.3648 52.0824 14.3648V7H52.9448C52.9448 7 53.8072 8.83259 55.3207 8.97919C56.3469 9.07406 56.4591 10.4841 56.4246 11.3939Z" fill="#C64DA9"/>
<path d="M117.409 28.5383L112.454 25.9511V27.1326V32.3069C112.454 32.3069 110.652 31.0133 109.966 32.3069C109.281 33.6005 111.691 34.3465 113.049 33.1952V28.3399L116.814 30.1639V33.704C116.814 33.704 115.011 32.4104 114.326 33.704C113.64 34.9976 116.05 35.7435 117.409 34.5923V28.5555V28.5383ZM116.577 29.323L113.312 27.7707V27.1412L116.577 28.7452V29.323Z" fill="#6B76C7"/>
<path d="M41.2336 33.5703C40.7918 33.5703 40.36 33.4393 39.9927 33.1939C39.6254 32.9485 39.3391 32.5996 39.17 32.1915C39.001 31.7833 38.9567 31.3342 39.0429 30.901C39.1291 30.4677 39.3418 30.0697 39.6542 29.7573C39.9666 29.445 40.3646 29.2322 40.7978 29.146C41.2311 29.0599 41.6802 29.1041 42.0884 29.2731C42.4965 29.4422 42.8453 29.7285 43.0908 30.0958C43.3362 30.4631 43.4672 30.895 43.4672 31.3367C43.4661 31.9288 43.2304 32.4962 42.8117 32.9149C42.3931 33.3335 41.8256 33.5692 41.2336 33.5703ZM41.2336 29.5386C40.8769 29.5386 40.5283 29.6444 40.2318 29.8427C39.9353 30.0409 39.7043 30.3227 39.568 30.6523C39.4317 30.9819 39.3963 31.3445 39.4662 31.6942C39.536 32.044 39.7081 32.3651 39.9606 32.617C40.2131 32.8689 40.5347 33.0403 40.8846 33.1093C41.2345 33.1784 41.5971 33.1421 41.9263 33.005C42.2556 32.8679 42.5368 32.6362 42.7343 32.3392C42.9319 32.0423 43.0369 31.6934 43.036 31.3367C43.0349 30.8594 42.8445 30.4021 42.5066 30.065C42.1687 29.7279 41.7109 29.5386 41.2336 29.5386Z" fill="#63A778"/>
<path d="M125.972 68.0229C125.53 68.0237 125.098 67.8935 124.73 67.6486C124.362 67.4036 124.075 67.0551 123.906 66.647C123.736 66.239 123.691 65.7897 123.777 65.3562C123.862 64.9226 124.075 64.5242 124.387 64.2114C124.699 63.8986 125.097 63.6855 125.531 63.5989C125.964 63.5124 126.413 63.5564 126.822 63.7253C127.23 63.8942 127.579 64.1805 127.825 64.5479C128.07 64.9153 128.202 65.3473 128.202 65.7893C128.202 66.3809 127.967 66.9484 127.549 67.3672C127.131 67.7859 126.564 68.0217 125.972 68.0229ZM125.972 63.9912C125.615 63.9903 125.266 64.0954 124.969 64.2932C124.672 64.4909 124.441 64.7723 124.304 65.1019C124.167 65.4314 124.131 65.7941 124.2 66.1442C124.269 66.4942 124.441 66.8157 124.693 67.0681C124.946 67.3204 125.267 67.4922 125.617 67.5616C125.967 67.631 126.33 67.5949 126.66 67.458C126.989 67.321 127.271 67.0893 127.468 66.7923C127.666 66.4952 127.771 66.1461 127.77 65.7893C127.769 65.3127 127.579 64.8561 127.242 64.5191C126.906 64.1821 126.449 63.9923 125.972 63.9912Z" fill="#C64DA9"/>
</g>
</g>
<g filter="url(#filter0_b_136:22493)">
<rect x="13" y="77" width="141" height="77" rx="10" fill="black" fill-opacity="0.8"/>
</g>
<path d="M50.595 95.138L50.483 96.552L48.789 96.468H48.229L48.159 101.144L48.243 104H46.339L46.437 101.312L46.367 96.468H45.807L44.085 96.552L43.959 96.398L44.085 94.984H50.483L50.595 95.138ZM55.7954 100.976L52.0154 101.004C52.0994 102.171 52.692 102.754 53.7934 102.754C54.372 102.754 55.016 102.591 55.7254 102.264L55.8794 102.362L55.5994 103.748C54.89 104.009 54.2227 104.14 53.5974 104.14C52.5707 104.14 51.7634 103.841 51.1754 103.244C50.5967 102.647 50.3074 101.821 50.3074 100.766C50.3074 99.7207 50.592 98.8947 51.1614 98.288C51.7307 97.672 52.5007 97.364 53.4714 97.364C54.302 97.364 54.9414 97.5927 55.3894 98.05C55.8467 98.498 56.0754 99.128 56.0754 99.94C56.0754 100.155 56.052 100.425 56.0054 100.752L55.7954 100.976ZM54.4514 99.73C54.4514 99.3567 54.3674 99.0767 54.1994 98.89C54.0314 98.694 53.784 98.596 53.4574 98.596C53.0934 98.596 52.79 98.7173 52.5474 98.96C52.3047 99.1933 52.1414 99.534 52.0574 99.982L54.4234 99.926L54.4514 99.73ZM60.9569 97.476C61.0409 97.476 61.1575 97.4853 61.3069 97.504V99.226L61.1109 99.296C60.9522 99.2307 60.7795 99.198 60.5929 99.198C60.0515 99.198 59.5615 99.548 59.1229 100.248V101.13L59.2209 104H57.3589L57.4709 101.312L57.3869 97.616L59.1509 97.462L59.1369 98.736H59.2489C59.7062 97.896 60.2755 97.476 60.9569 97.476ZM70.5612 102.782L70.3932 103.762C70.0479 103.986 69.6932 104.103 69.3292 104.112C69.0585 104.065 68.8345 103.958 68.6572 103.79C68.4799 103.622 68.3445 103.379 68.2512 103.062H68.1252C67.5932 103.585 67.0425 103.925 66.4732 104.084C65.7639 104.084 65.2225 103.925 64.8492 103.608C64.4852 103.281 64.3079 102.815 64.3172 102.208L64.3452 100.556L64.2752 97.616L66.0812 97.462L66.0392 101.592C66.0299 101.919 66.0952 102.166 66.2352 102.334C66.3752 102.502 66.5852 102.586 66.8652 102.586C67.2759 102.586 67.6819 102.404 68.0832 102.04V97.616L69.8612 97.462L69.7352 102.306C69.7352 102.455 69.7585 102.563 69.8052 102.628C69.8612 102.693 69.9452 102.726 70.0572 102.726C70.1599 102.726 70.2859 102.707 70.4352 102.67L70.5612 102.782ZM79.3756 104L79.4876 99.94C79.4876 99.2493 79.1936 98.904 78.6056 98.904C78.1856 98.904 77.747 99.0907 77.2896 99.464L77.2476 101.144L77.3316 104H75.4696L75.5816 99.94C75.591 99.604 75.5163 99.3473 75.3576 99.17C75.2083 98.9927 74.989 98.904 74.6996 98.904C74.289 98.904 73.8363 99.1 73.3416 99.492V101.13L73.4256 104H71.5776L71.6756 101.312L71.6056 97.616L73.3556 97.462V98.414H73.4536C73.967 97.9473 74.5316 97.6113 75.1476 97.406C76.193 97.406 76.8603 97.756 77.1496 98.456H77.2336C77.7656 97.9613 78.3723 97.6113 79.0536 97.406C79.763 97.406 80.2996 97.5693 80.6636 97.896C81.037 98.2133 81.2143 98.6753 81.1956 99.282L81.1536 101.144L81.2376 104H79.3756ZM89.0497 99.94C89.0591 99.604 88.9891 99.3473 88.8397 99.17C88.6904 98.9927 88.4711 98.904 88.1817 98.904C87.7617 98.904 87.3137 99.1047 86.8377 99.506L86.8097 101.13L86.9077 104H85.0457L85.1437 101.298L85.0597 94.312L86.9217 94.172L86.8517 98.414H86.9357C87.4491 97.9473 88.0137 97.6113 88.6297 97.406C89.3391 97.406 89.8757 97.5693 90.2397 97.896C90.6131 98.2133 90.7951 98.6753 90.7857 99.282L90.7437 101.144L90.8137 104H88.9517L89.0497 99.94ZM95.1566 97.364C96.1086 97.364 96.8366 97.644 97.3406 98.204C97.8446 98.764 98.0966 99.5713 98.0966 100.626C98.0966 101.765 97.8259 102.637 97.2846 103.244C96.7433 103.841 95.9639 104.14 94.9466 104.14C93.9946 104.14 93.2666 103.86 92.7626 103.3C92.2586 102.74 92.0066 101.933 92.0066 100.878C92.0066 99.7393 92.2773 98.8713 92.8186 98.274C93.3599 97.6673 94.1393 97.364 95.1566 97.364ZM95.0306 98.624C94.5826 98.624 94.2559 98.7733 94.0506 99.072C93.8546 99.3707 93.7566 99.8513 93.7566 100.514C93.7566 101.373 93.8593 101.984 94.0646 102.348C94.2699 102.712 94.6059 102.894 95.0726 102.894C95.5206 102.894 95.8426 102.749 96.0386 102.46C96.2439 102.161 96.3466 101.676 96.3466 101.004C96.3466 100.155 96.2393 99.548 96.0246 99.184C95.8193 98.8107 95.4879 98.624 95.0306 98.624ZM102.887 97.406C103.708 97.406 104.333 97.686 104.763 98.246C105.201 98.7967 105.421 99.5667 105.421 100.556C105.421 101.704 105.136 102.591 104.567 103.216C103.997 103.832 103.209 104.14 102.201 104.14C101.725 104.14 101.202 104.033 100.633 103.818L99.6526 104.168L99.4286 103.986L99.5266 101.326L99.4426 94.312L101.291 94.172L101.235 98.414H101.319C101.58 98.162 101.832 97.9613 102.075 97.812C102.317 97.6533 102.588 97.518 102.887 97.406ZM102.201 102.922C102.667 102.922 103.031 102.754 103.293 102.418C103.554 102.082 103.685 101.569 103.685 100.878C103.685 100.234 103.577 99.744 103.363 99.408C103.157 99.072 102.845 98.904 102.425 98.904C102.042 98.904 101.641 99.1 101.221 99.492L101.193 101.088L101.221 102.67C101.566 102.838 101.893 102.922 102.201 102.922ZM110.215 97.406C111.036 97.406 111.661 97.686 112.091 98.246C112.529 98.7967 112.749 99.5667 112.749 100.556C112.749 101.704 112.464 102.591 111.895 103.216C111.325 103.832 110.537 104.14 109.529 104.14C109.053 104.14 108.53 104.033 107.961 103.818L106.981 104.168L106.757 103.986L106.855 101.326L106.771 94.312L108.619 94.172L108.563 98.414H108.647C108.908 98.162 109.16 97.9613 109.403 97.812C109.645 97.6533 109.916 97.518 110.215 97.406ZM109.529 102.922C109.995 102.922 110.359 102.754 110.621 102.418C110.882 102.082 111.013 101.569 111.013 100.878C111.013 100.234 110.905 99.744 110.691 99.408C110.485 99.072 110.173 98.904 109.753 98.904C109.37 98.904 108.969 99.1 108.549 99.492L108.521 101.088L108.549 102.67C108.894 102.838 109.221 102.922 109.529 102.922ZM114.985 98.484L116.147 102.124H116.259L117.421 98.638L117.659 97.49H119.255L117.127 103.566C116.903 104.201 116.651 104.709 116.371 105.092C116.091 105.484 115.741 105.801 115.321 106.044C114.901 106.296 114.359 106.511 113.697 106.688L113.557 106.674C113.239 106.366 112.978 106.002 112.773 105.582L112.829 105.4C113.417 105.297 113.902 105.143 114.285 104.938C114.667 104.742 115.031 104.429 115.377 104L112.997 97.532L114.761 97.448L114.985 98.484ZM123.556 94.648L120.658 105.61H119.37L119.258 105.456L122.142 94.48H123.402L123.556 94.648ZM33.5133 120L33.6253 115.94C33.6253 115.249 33.3313 114.904 32.7433 114.904C32.3233 114.904 31.8847 115.091 31.4273 115.464L31.3853 117.144L31.4693 120H29.6073L29.7193 115.94C29.7287 115.604 29.654 115.347 29.4953 115.17C29.346 114.993 29.1267 114.904 28.8373 114.904C28.4267 114.904 27.974 115.1 27.4793 115.492V117.13L27.5633 120H25.7153L25.8133 117.312L25.7433 113.616L27.4933 113.462V114.414H27.5913C28.1047 113.947 28.6693 113.611 29.2853 113.406C30.3307 113.406 30.998 113.756 31.2873 114.456H31.3713C31.9033 113.961 32.51 113.611 33.1913 113.406C33.9007 113.406 34.4373 113.569 34.8013 113.896C35.1747 114.213 35.352 114.675 35.3333 115.282L35.2913 117.144L35.3753 120H33.5133ZM39.7103 113.364C40.6623 113.364 41.3903 113.644 41.8943 114.204C42.3983 114.764 42.6503 115.571 42.6503 116.626C42.6503 117.765 42.3796 118.637 41.8383 119.244C41.297 119.841 40.5176 120.14 39.5003 120.14C38.5483 120.14 37.8203 119.86 37.3163 119.3C36.8123 118.74 36.5603 117.933 36.5603 116.878C36.5603 115.739 36.831 114.871 37.3723 114.274C37.9136 113.667 38.693 113.364 39.7103 113.364ZM39.5843 114.624C39.1363 114.624 38.8096 114.773 38.6043 115.072C38.4083 115.371 38.3103 115.851 38.3103 116.514C38.3103 117.373 38.413 117.984 38.6183 118.348C38.8236 118.712 39.1596 118.894 39.6263 118.894C40.0743 118.894 40.3963 118.749 40.5923 118.46C40.7976 118.161 40.9003 117.676 40.9003 117.004C40.9003 116.155 40.793 115.548 40.5783 115.184C40.373 114.811 40.0416 114.624 39.5843 114.624ZM51.6422 120L51.7542 115.94C51.7542 115.249 51.4602 114.904 50.8722 114.904C50.4522 114.904 50.0136 115.091 49.5562 115.464L49.5142 117.144L49.5982 120H47.7362L47.8482 115.94C47.8576 115.604 47.7829 115.347 47.6242 115.17C47.4749 114.993 47.2556 114.904 46.9662 114.904C46.5556 114.904 46.1029 115.1 45.6082 115.492V117.13L45.6922 120H43.8442L43.9422 117.312L43.8722 113.616L45.6222 113.462V114.414H45.7202C46.2336 113.947 46.7982 113.611 47.4142 113.406C48.4596 113.406 49.1269 113.756 49.4162 114.456H49.5002C50.0322 113.961 50.6389 113.611 51.3202 113.406C52.0296 113.406 52.5662 113.569 52.9302 113.896C53.3036 114.213 53.4809 114.675 53.4622 115.282L53.4202 117.144L53.5042 120H51.6422ZM60.1772 116.976L56.3972 117.004C56.4812 118.171 57.0739 118.754 58.1752 118.754C58.7539 118.754 59.3979 118.591 60.1072 118.264L60.2612 118.362L59.9812 119.748C59.2719 120.009 58.6045 120.14 57.9792 120.14C56.9525 120.14 56.1452 119.841 55.5572 119.244C54.9785 118.647 54.6892 117.821 54.6892 116.766C54.6892 115.721 54.9739 114.895 55.5432 114.288C56.1125 113.672 56.8825 113.364 57.8532 113.364C58.6839 113.364 59.3232 113.593 59.7712 114.05C60.2285 114.498 60.4572 115.128 60.4572 115.94C60.4572 116.155 60.4339 116.425 60.3872 116.752L60.1772 116.976ZM58.8332 115.73C58.8332 115.357 58.7492 115.077 58.5812 114.89C58.4132 114.694 58.1659 114.596 57.8392 114.596C57.4752 114.596 57.1719 114.717 56.9292 114.96C56.6865 115.193 56.5232 115.534 56.4392 115.982L58.8052 115.926L58.8332 115.73ZM65.7447 115.94C65.7541 115.613 65.6794 115.361 65.5207 115.184C65.3714 114.997 65.1521 114.904 64.8627 114.904C64.4427 114.904 63.9947 115.105 63.5187 115.506V117.13L63.6027 120H61.7407L61.8387 117.312L61.7687 113.616L63.5327 113.462V114.414H63.6307C64.1441 113.947 64.7041 113.611 65.3107 113.406C66.0201 113.406 66.5614 113.569 66.9347 113.896C67.3081 114.213 67.4854 114.675 67.4667 115.282L67.4247 117.144L67.5087 120H65.6327L65.7447 115.94ZM71.7829 118.628C72.0815 118.628 72.3942 118.549 72.7209 118.39L72.8749 118.53L72.6929 119.636C72.2169 119.879 71.7315 120.028 71.2369 120.084C69.9769 119.953 69.3469 119.337 69.3469 118.236L69.4169 117.074L69.4029 114.666H68.5349L68.4649 114.568L68.5629 113.546H69.3889V112.468L71.0829 111.922L71.2089 112.034L71.1669 113.546H72.8329L72.8889 113.644L72.8049 114.666H71.1389L71.0549 117.802C71.0549 118.101 71.1109 118.315 71.2229 118.446C71.3349 118.567 71.5215 118.628 71.7829 118.628ZM76.4876 113.364C77.4396 113.364 78.1676 113.644 78.6716 114.204C79.1756 114.764 79.4276 115.571 79.4276 116.626C79.4276 117.765 79.157 118.637 78.6156 119.244C78.0743 119.841 77.295 120.14 76.2776 120.14C75.3256 120.14 74.5976 119.86 74.0936 119.3C73.5896 118.74 73.3376 117.933 73.3376 116.878C73.3376 115.739 73.6083 114.871 74.1496 114.274C74.691 113.667 75.4703 113.364 76.4876 113.364ZM76.3616 114.624C75.9136 114.624 75.587 114.773 75.3816 115.072C75.1856 115.371 75.0876 115.851 75.0876 116.514C75.0876 117.373 75.1903 117.984 75.3956 118.348C75.601 118.712 75.937 118.894 76.4036 118.894C76.8516 118.894 77.1736 118.749 77.3696 118.46C77.575 118.161 77.6776 117.676 77.6776 117.004C77.6776 116.155 77.5703 115.548 77.3556 115.184C77.1503 114.811 76.819 114.624 76.3616 114.624ZM88.2548 117.13L88.2968 118.306C88.2968 118.465 88.3154 118.577 88.3528 118.642C88.3994 118.698 88.4788 118.726 88.5908 118.726C88.6934 118.726 88.8194 118.707 88.9688 118.67L89.0948 118.782L88.9408 119.762C88.6234 119.958 88.2781 120.075 87.9048 120.112C87.6154 120.084 87.3728 119.986 87.1768 119.818C86.9808 119.65 86.8454 119.421 86.7708 119.132H86.6588C86.2014 119.552 85.7348 119.874 85.2588 120.098C84.3441 120.098 83.6348 119.809 83.1308 119.23C82.6268 118.642 82.3748 117.83 82.3748 116.794C82.3748 115.693 82.6641 114.848 83.2428 114.26C83.8214 113.672 84.6241 113.378 85.6508 113.378C85.9214 113.378 86.2201 113.406 86.5468 113.462L86.5188 110.312L88.3668 110.172L88.2548 117.13ZM85.5248 114.638C84.5914 114.638 84.1248 115.231 84.1248 116.416C84.1248 117.153 84.2368 117.709 84.4608 118.082C84.6848 118.455 85.0114 118.642 85.4408 118.642C85.8514 118.642 86.2294 118.451 86.5748 118.068L86.6028 117.298L86.5608 114.89C86.1968 114.722 85.8514 114.638 85.5248 114.638ZM95.2319 116.976L91.4519 117.004C91.5359 118.171 92.1286 118.754 93.2299 118.754C93.8086 118.754 94.4526 118.591 95.1619 118.264L95.3159 118.362L95.0359 119.748C94.3266 120.009 93.6592 120.14 93.0339 120.14C92.0072 120.14 91.1999 119.841 90.6119 119.244C90.0332 118.647 89.7439 117.821 89.7439 116.766C89.7439 115.721 90.0286 114.895 90.5979 114.288C91.1672 113.672 91.9372 113.364 92.9079 113.364C93.7386 113.364 94.3779 113.593 94.8259 114.05C95.2832 114.498 95.5119 115.128 95.5119 115.94C95.5119 116.155 95.4886 116.425 95.4419 116.752L95.2319 116.976ZM93.8879 115.73C93.8879 115.357 93.8039 115.077 93.6359 114.89C93.4679 114.694 93.2206 114.596 92.8939 114.596C92.5299 114.596 92.2266 114.717 91.9839 114.96C91.7412 115.193 91.5779 115.534 91.4939 115.982L93.8599 115.926L93.8879 115.73ZM100.735 117.13L100.833 120H98.9705L99.0685 117.298L98.9845 110.312L100.847 110.172L100.735 117.13ZM105.154 113.364C105.873 113.364 106.433 113.527 106.834 113.854C107.245 114.171 107.45 114.619 107.45 115.198C107.45 115.366 107.422 115.898 107.366 116.794C107.357 117.055 107.343 117.326 107.324 117.606C107.306 117.877 107.296 118.11 107.296 118.306C107.296 118.465 107.32 118.577 107.366 118.642C107.413 118.698 107.497 118.726 107.618 118.726C107.712 118.726 107.833 118.707 107.982 118.67L108.122 118.782L107.954 119.762C107.656 119.958 107.315 120.075 106.932 120.112C106.652 120.084 106.419 119.986 106.232 119.818C106.046 119.641 105.92 119.398 105.854 119.09H105.756C105.29 119.585 104.809 119.93 104.314 120.126C103.642 120.117 103.115 119.939 102.732 119.594C102.35 119.249 102.158 118.777 102.158 118.18C102.158 117.713 102.275 117.349 102.508 117.088C102.751 116.817 103.115 116.635 103.6 116.542L105.742 116.136V115.562C105.742 114.955 105.444 114.652 104.846 114.652C104.557 114.652 104.249 114.717 103.922 114.848C103.605 114.979 103.246 115.184 102.844 115.464L102.704 115.38L102.494 114.148C102.896 113.896 103.325 113.705 103.782 113.574C104.24 113.434 104.697 113.364 105.154 113.364ZM104.244 117.396C104.095 117.433 103.983 117.499 103.908 117.592C103.843 117.676 103.81 117.807 103.81 117.984C103.81 118.227 103.876 118.418 104.006 118.558C104.137 118.689 104.319 118.754 104.552 118.754C104.916 118.754 105.299 118.539 105.7 118.11L105.728 117.074L104.244 117.396ZM110.411 113.49H113.239L113.953 113.476L113.967 114.582L110.817 118.81H112.791L113.981 118.698L114.079 118.824L113.953 120.028L112.329 120H109.753L108.857 120.042V118.95L112.035 114.694H110.159L108.997 114.792L108.885 114.666L109.025 113.462L110.411 113.49ZM120.21 116.976L116.43 117.004C116.514 118.171 117.107 118.754 118.208 118.754C118.787 118.754 119.431 118.591 120.14 118.264L120.294 118.362L120.014 119.748C119.305 120.009 118.638 120.14 118.012 120.14C116.986 120.14 116.178 119.841 115.59 119.244C115.012 118.647 114.722 117.821 114.722 116.766C114.722 115.721 115.007 114.895 115.576 114.288C116.146 113.672 116.916 113.364 117.886 113.364C118.717 113.364 119.356 113.593 119.804 114.05C120.262 114.498 120.49 115.128 120.49 115.94C120.49 116.155 120.467 116.425 120.42 116.752L120.21 116.976ZM118.866 115.73C118.866 115.357 118.782 115.077 118.614 114.89C118.446 114.694 118.199 114.596 117.872 114.596C117.508 114.596 117.205 114.717 116.962 114.96C116.72 115.193 116.556 115.534 116.472 115.982L118.838 115.926L118.866 115.73ZM125.372 113.476C125.456 113.476 125.573 113.485 125.722 113.504V115.226L125.526 115.296C125.367 115.231 125.195 115.198 125.008 115.198C124.467 115.198 123.977 115.548 123.538 116.248V117.13L123.636 120H121.774L121.886 117.312L121.802 113.616L123.566 113.462L123.552 114.736H123.664C124.121 113.896 124.691 113.476 125.372 113.476ZM131.462 113.364C132.414 113.364 133.142 113.644 133.646 114.204C134.15 114.764 134.402 115.571 134.402 116.626C134.402 117.765 134.132 118.637 133.59 119.244C133.049 119.841 132.27 120.14 131.252 120.14C130.3 120.14 129.572 119.86 129.068 119.3C128.564 118.74 128.312 117.933 128.312 116.878C128.312 115.739 128.583 114.871 129.124 114.274C129.666 113.667 130.445 113.364 131.462 113.364ZM131.336 114.624C130.888 114.624 130.562 114.773 130.356 115.072C130.16 115.371 130.062 115.851 130.062 116.514C130.062 117.373 130.165 117.984 130.37 118.348C130.576 118.712 130.912 118.894 131.378 118.894C131.826 118.894 132.148 118.749 132.344 118.46C132.55 118.161 132.652 117.676 132.652 117.004C132.652 116.155 132.545 115.548 132.33 115.184C132.125 114.811 131.794 114.624 131.336 114.624ZM141.894 118.782L141.726 119.762C141.381 119.986 141.026 120.103 140.662 120.112C140.392 120.065 140.168 119.958 139.99 119.79C139.813 119.622 139.678 119.379 139.584 119.062H139.458C138.926 119.585 138.376 119.925 137.806 120.084C137.097 120.084 136.556 119.925 136.182 119.608C135.818 119.281 135.641 118.815 135.65 118.208L135.678 116.556L135.608 113.616L137.414 113.462L137.372 117.592C137.363 117.919 137.428 118.166 137.568 118.334C137.708 118.502 137.918 118.586 138.198 118.586C138.609 118.586 139.015 118.404 139.416 118.04V113.616L141.194 113.462L141.068 118.306C141.068 118.455 141.092 118.563 141.138 118.628C141.194 118.693 141.278 118.726 141.39 118.726C141.493 118.726 141.619 118.707 141.768 118.67L141.894 118.782ZM62.9549 133.13L62.9969 134.306C62.9969 134.465 63.0156 134.577 63.0529 134.642C63.0996 134.698 63.1789 134.726 63.2909 134.726C63.3936 134.726 63.5196 134.707 63.6689 134.67L63.7949 134.782L63.6409 135.762C63.3236 135.958 62.9783 136.075 62.6049 136.112C62.3156 136.084 62.0729 135.986 61.8769 135.818C61.6809 135.65 61.5456 135.421 61.4709 135.132H61.3589C60.9016 135.552 60.4349 135.874 59.9589 136.098C59.0443 136.098 58.3349 135.809 57.8309 135.23C57.3269 134.642 57.0749 133.83 57.0749 132.794C57.0749 131.693 57.3643 130.848 57.9429 130.26C58.5216 129.672 59.3243 129.378 60.3509 129.378C60.6216 129.378 60.9203 129.406 61.2469 129.462L61.2189 126.312L63.0669 126.172L62.9549 133.13ZM60.2249 130.638C59.2916 130.638 58.8249 131.231 58.8249 132.416C58.8249 133.153 58.9369 133.709 59.1609 134.082C59.3849 134.455 59.7116 134.642 60.1409 134.642C60.5516 134.642 60.9296 134.451 61.2749 134.068L61.3029 133.298L61.2609 130.89C60.8969 130.722 60.5516 130.638 60.2249 130.638ZM69.9321 132.976L66.1521 133.004C66.2361 134.171 66.8288 134.754 67.9301 134.754C68.5088 134.754 69.1528 134.591 69.8621 134.264L70.0161 134.362L69.7361 135.748C69.0268 136.009 68.3594 136.14 67.7341 136.14C66.7074 136.14 65.9001 135.841 65.3121 135.244C64.7334 134.647 64.4441 133.821 64.4441 132.766C64.4441 131.721 64.7288 130.895 65.2981 130.288C65.8674 129.672 66.6374 129.364 67.6081 129.364C68.4388 129.364 69.0781 129.593 69.5261 130.05C69.9834 130.498 70.2121 131.128 70.2121 131.94C70.2121 132.155 70.1888 132.425 70.1421 132.752L69.9321 132.976ZM68.5881 131.73C68.5881 131.357 68.5041 131.077 68.3361 130.89C68.1681 130.694 67.9208 130.596 67.5941 130.596C67.2301 130.596 66.9268 130.717 66.6841 130.96C66.4414 131.193 66.2781 131.534 66.1941 131.982L68.5601 131.926L68.5881 131.73ZM73.6796 129.378C74.3143 129.378 74.9116 129.485 75.4716 129.7L75.2196 131.072L74.9956 131.142C74.7249 130.965 74.4543 130.829 74.1836 130.736C73.9129 130.643 73.6749 130.596 73.4696 130.596C73.2456 130.596 73.0683 130.657 72.9376 130.778C72.8069 130.89 72.7416 131.03 72.7416 131.198C72.7416 131.394 72.8256 131.553 72.9936 131.674C73.1709 131.795 73.4463 131.931 73.8196 132.08C74.1929 132.229 74.5009 132.374 74.7436 132.514C74.9863 132.654 75.1916 132.85 75.3596 133.102C75.5369 133.345 75.6256 133.648 75.6256 134.012C75.6256 134.385 75.5276 134.735 75.3316 135.062C75.1449 135.379 74.8556 135.641 74.4636 135.846C74.0716 136.042 73.5909 136.14 73.0216 136.14C72.3496 136.14 71.6543 136 70.9356 135.72L71.1456 134.264L71.3276 134.152C71.6169 134.395 71.9389 134.591 72.2936 134.74C72.6483 134.88 72.9609 134.95 73.2316 134.95C73.4836 134.95 73.6796 134.889 73.8196 134.768C73.9596 134.637 74.0296 134.483 74.0296 134.306C74.0296 134.11 73.9409 133.951 73.7636 133.83C73.5956 133.709 73.3249 133.573 72.9516 133.424C72.5689 133.256 72.2563 133.107 72.0136 132.976C71.7709 132.836 71.5609 132.64 71.3836 132.388C71.2156 132.136 71.1316 131.823 71.1316 131.45C71.1316 130.843 71.3603 130.349 71.8176 129.966C72.2749 129.574 72.8956 129.378 73.6796 129.378ZM79.5426 129.364C79.8506 129.364 80.154 129.397 80.4526 129.462C80.7606 129.518 81.0313 129.602 81.2646 129.714L80.9566 131.198L80.8026 131.268C80.3266 131.007 79.902 130.876 79.5286 130.876C79.0993 130.876 78.768 131.03 78.5346 131.338C78.3013 131.646 78.1846 132.085 78.1846 132.654C78.1846 133.307 78.3106 133.807 78.5626 134.152C78.8146 134.497 79.174 134.67 79.6406 134.67C80.0606 134.67 80.5273 134.553 81.0406 134.32L81.1806 134.432L80.9986 135.874C80.4386 136.051 79.8646 136.14 79.2766 136.14C78.3806 136.14 77.6806 135.851 77.1766 135.272C76.6726 134.684 76.4206 133.867 76.4206 132.822C76.4206 131.739 76.696 130.895 77.2466 130.288C77.7973 129.672 78.5626 129.364 79.5426 129.364ZM84.6806 129.364C85.3993 129.364 85.9593 129.527 86.3606 129.854C86.7713 130.171 86.9766 130.619 86.9766 131.198C86.9766 131.366 86.9486 131.898 86.8926 132.794C86.8833 133.055 86.8693 133.326 86.8506 133.606C86.832 133.877 86.8226 134.11 86.8226 134.306C86.8226 134.465 86.846 134.577 86.8926 134.642C86.9393 134.698 87.0233 134.726 87.1446 134.726C87.238 134.726 87.3593 134.707 87.5086 134.67L87.6486 134.782L87.4806 135.762C87.182 135.958 86.8413 136.075 86.4586 136.112C86.1786 136.084 85.9453 135.986 85.7586 135.818C85.572 135.641 85.446 135.398 85.3806 135.09H85.2826C84.816 135.585 84.3353 135.93 83.8406 136.126C83.1686 136.117 82.6413 135.939 82.2586 135.594C81.876 135.249 81.6846 134.777 81.6846 134.18C81.6846 133.713 81.8013 133.349 82.0346 133.088C82.2773 132.817 82.6413 132.635 83.1266 132.542L85.2686 132.136V131.562C85.2686 130.955 84.97 130.652 84.3726 130.652C84.0833 130.652 83.7753 130.717 83.4486 130.848C83.1313 130.979 82.772 131.184 82.3706 131.464L82.2306 131.38L82.0206 130.148C82.422 129.896 82.8513 129.705 83.3086 129.574C83.766 129.434 84.2233 129.364 84.6806 129.364ZM83.7706 133.396C83.6213 133.433 83.5093 133.499 83.4346 133.592C83.3693 133.676 83.3366 133.807 83.3366 133.984C83.3366 134.227 83.402 134.418 83.5326 134.558C83.6633 134.689 83.8453 134.754 84.0786 134.754C84.4426 134.754 84.8253 134.539 85.2266 134.11L85.2546 133.074L83.7706 133.396ZM92.7809 131.94C92.7902 131.613 92.7155 131.361 92.5569 131.184C92.4075 130.997 92.1882 130.904 91.8989 130.904C91.4789 130.904 91.0309 131.105 90.5549 131.506V133.13L90.6389 136H88.7769L88.8749 133.312L88.8049 129.616L90.5689 129.462V130.414H90.6669C91.1802 129.947 91.7402 129.611 92.3469 129.406C93.0562 129.406 93.5975 129.569 93.9709 129.896C94.3442 130.213 94.5215 130.675 94.5029 131.282L94.4609 133.144L94.5449 136H92.6689L92.7809 131.94ZM98.371 129.378C99.0057 129.378 99.603 129.485 100.163 129.7L99.911 131.072L99.687 131.142C99.4163 130.965 99.1457 130.829 98.875 130.736C98.6043 130.643 98.3663 130.596 98.161 130.596C97.937 130.596 97.7597 130.657 97.629 130.778C97.4983 130.89 97.433 131.03 97.433 131.198C97.433 131.394 97.517 131.553 97.685 131.674C97.8623 131.795 98.1377 131.931 98.511 132.08C98.8843 132.229 99.1923 132.374 99.435 132.514C99.6777 132.654 99.883 132.85 100.051 133.102C100.228 133.345 100.317 133.648 100.317 134.012C100.317 134.385 100.219 134.735 100.023 135.062C99.8363 135.379 99.547 135.641 99.155 135.846C98.763 136.042 98.2823 136.14 97.713 136.14C97.041 136.14 96.3457 136 95.627 135.72L95.837 134.264L96.019 134.152C96.3083 134.395 96.6303 134.591 96.985 134.74C97.3397 134.88 97.6523 134.95 97.923 134.95C98.175 134.95 98.371 134.889 98.511 134.768C98.651 134.637 98.721 134.483 98.721 134.306C98.721 134.11 98.6323 133.951 98.455 133.83C98.287 133.709 98.0163 133.573 97.643 133.424C97.2603 133.256 96.9477 133.107 96.705 132.976C96.4623 132.836 96.2523 132.64 96.075 132.388C95.907 132.136 95.823 131.823 95.823 131.45C95.823 130.843 96.0517 130.349 96.509 129.966C96.9663 129.574 97.587 129.378 98.371 129.378ZM104.262 129.364C105.214 129.364 105.942 129.644 106.446 130.204C106.95 130.764 107.202 131.571 107.202 132.626C107.202 133.765 106.931 134.637 106.39 135.244C105.849 135.841 105.069 136.14 104.052 136.14C103.1 136.14 102.372 135.86 101.868 135.3C101.364 134.74 101.112 133.933 101.112 132.878C101.112 131.739 101.383 130.871 101.924 130.274C102.465 129.667 103.245 129.364 104.262 129.364ZM104.136 130.624C103.688 130.624 103.361 130.773 103.156 131.072C102.96 131.371 102.862 131.851 102.862 132.514C102.862 133.373 102.965 133.984 103.17 134.348C103.375 134.712 103.711 134.894 104.178 134.894C104.626 134.894 104.948 134.749 105.144 134.46C105.349 134.161 105.452 133.676 105.452 133.004C105.452 132.155 105.345 131.548 105.13 131.184C104.925 130.811 104.593 130.624 104.136 130.624ZM108.77 134.11C109.059 134.11 109.283 134.194 109.442 134.362C109.61 134.53 109.694 134.763 109.694 135.062C109.694 135.379 109.605 135.631 109.428 135.818C109.251 136.005 109.008 136.098 108.7 136.098C108.392 136.098 108.154 136.014 107.986 135.846C107.827 135.678 107.748 135.44 107.748 135.132C107.748 134.824 107.837 134.577 108.014 134.39C108.201 134.203 108.453 134.11 108.77 134.11Z" fill="white"/>
<defs>
<filter id="filter0_b_136:22493" x="3" y="67" width="161" height="97" filterUnits="userSpaceOnUse" color-interpolation-filters="sRGB">
<feFlood flood-opacity="0" result="BackgroundImageFix"/>
<feGaussianBlur in="BackgroundImage" stdDeviation="5"/>
<feComposite in2="SourceAlpha" operator="in" result="effect1_backgroundBlur_136:22493"/>
<feBlend mode="normal" in="SourceGraphic" in2="effect1_backgroundBlur_136:22493" result="shape"/>
</filter>
<clipPath id="clip0_136:22493">
<rect width="89.18" height="155.05" fill="white" transform="translate(39 7)"/>
</clipPath>
</defs>
</svg>
