<svg width="167" height="167" viewBox="0 0 167 167" fill="none" xmlns="http://www.w3.org/2000/svg">
<mask id="mask0_136:22632" style="mask-type:alpha" maskUnits="userSpaceOnUse" x="0" y="0" width="167" height="167">
<rect x="1" y="1" width="165" height="165" rx="8" fill="#5988D6" stroke="#EDE6FC" stroke-opacity="0.3"/>
</mask>
<g mask="url(#mask0_136:22632)">
<rect x="1" y="1" width="165" height="165" rx="8" fill="#D9917A" stroke="#EDE6FC" stroke-opacity="0.3"/>
<g clip-path="url(#clip0_136:22632)">
<path d="M135.152 97.7256L130.972 102.137L130.175 102.961L130.128 103.017C121.098 97.4429 112.391 89.1103 110.194 86.9644C109.001 85.9072 107.986 84.6652 107.188 83.2858C105.261 79.8699 102.657 73.5 100.842 68.8301L100.603 69.8453L97.3107 83.6799C99.2583 86.6776 100.915 89.8544 102.259 93.1671C103.147 95.3529 103.875 97.6002 104.437 99.8913L85.6497 110.943V111.222L85.3949 111.086L85.1481 111.234V110.951L65.9508 100.628C66.5425 97.7739 67.3803 94.9766 68.455 92.2674C68.455 92.2315 68.4829 92.1877 68.5028 92.1479C69.6076 89.3812 70.9281 86.7056 72.4521 84.1457L68.5943 70.2116L68.0728 68.3364L67.7941 67.3252C65.9588 71.8837 62.5748 80.0093 60.2298 84.0064C59.4081 85.3712 58.3701 86.5934 57.1564 87.6253C54.9269 89.7274 46.0409 97.8888 36.9041 103.311L36.072 102.396L31.9753 97.9087L52.7969 78.3332L59.8357 58.2122C63.8846 49.5213 66.9222 49.3979 66.9222 49.3979C67.4936 48.9137 68.1405 48.5264 68.8372 48.2513L69.5458 47.9647C71.0785 47.339 72.5658 46.6073 73.9968 45.775C75.9017 44.6708 77.6436 43.3068 79.1723 41.7222C79.3803 40.0045 79.4932 38.2767 79.5107 36.5466C79.5107 35.6946 79.5107 35.1134 79.5107 35.1134L83.9379 35.5712L88.341 34.9462C88.341 34.9462 88.3808 36.0928 88.4883 37.5379C88.5879 38.8358 88.7312 40.3725 88.9502 41.539C89.6635 42.2409 90.4302 42.8865 91.2433 43.4699C93.7882 45.2704 96.5854 46.6844 99.5441 47.6661C100.156 47.881 100.735 48.1812 101.264 48.5579C101.901 48.7171 104.644 49.8159 108.032 57.4877L114.685 77.732L135.152 97.7256Z" fill="#5E4453"/>
<path d="M91.2592 43.4937C90.5466 44.2899 88.3649 46.0138 82.1861 47.4351C73.8256 49.35 69.5259 47.9964 69.5259 47.9964C71.0586 47.3707 72.5458 46.6391 73.9769 45.8068C75.8818 44.7026 77.6237 43.3385 79.1524 41.7539C79.3604 40.0363 79.4733 38.3085 79.4908 36.5784L88.4883 37.5697C88.5878 38.8675 88.7312 40.4043 88.9501 41.5708C89.6689 42.2706 90.4409 42.9135 91.2592 43.4937Z" fill="#3F2935"/>
<path d="M95.9652 73.3766C93.031 74.6744 87.9072 72.1583 83.5558 73.5597C79.2044 74.9611 77.0466 78.994 76.2025 84.1457C75.3585 89.2974 77.5164 96.782 77.5164 96.782C77.5164 96.782 73.6267 97.8609 68.4989 92.1758C69.6038 89.409 70.9242 86.7334 72.4483 84.1736L68.0689 68.3643L67.7903 67.353C67.7903 67.353 66.7472 61.9466 69.3828 57.826C69.3828 57.826 68.5865 62.2332 70.0994 66.2582C71.6122 70.2832 75.2391 70.2832 79.0093 70.1916C82.7795 70.1001 82.7238 68.8062 86.9717 69.7218C94.0741 71.2506 96.849 70.5659 98.5171 68.2329C99.5881 66.6961 98.8953 72.0787 95.9652 73.3766Z" fill="#3F2935"/>
<path d="M75.7566 30.3558C75.7566 30.3558 74.7494 28.2975 73.4237 28.3652C72.0979 28.4329 71.652 31.2755 73.5192 33.485C75.3864 35.6946 77.1023 34.7431 77.1023 34.7431L75.7566 30.3558Z" fill="#EA8D78"/>
<path d="M92.4059 30.0373C92.4059 30.0373 93.3335 27.9432 94.6632 27.9711C95.993 27.999 96.5463 30.8137 94.7628 33.0909C92.9792 35.3682 91.2434 34.4883 91.2434 34.4883L92.4059 30.0373Z" fill="#EA8D78"/>
<path d="M93.0031 25.7894C93.1584 34.0066 88.2615 41.3558 84.36 41.4315C79.6263 41.523 75.048 33.8035 74.9007 26.1357C74.7932 20.4665 78.1931 15.7846 83.8663 15.6931C89.5395 15.6015 92.8916 20.1202 93.0031 25.7894Z" fill="#FFA488"/>
<path d="M76.9309 26.5458C77.8433 26.301 78.7761 26.1398 79.7177 26.0641C81.5252 25.9287 82.1901 26.1198 82.1901 26.1198C82.1901 26.1198 81.8397 25.1046 80.3229 25.1365C78.8061 25.1683 76.9309 26.5458 76.9309 26.5458Z" fill="#2F2A00"/>
<path d="M82.0826 28.7673C82.0826 28.7673 81.0157 27.3341 79.6461 27.3182C78.2766 27.3023 77.0583 28.8629 77.0583 28.8629C77.0583 28.8629 77.4326 29.261 79.3794 29.3605C81.3262 29.4601 82.0826 28.7673 82.0826 28.7673Z" fill="#EA8D78"/>
<path d="M79.6064 29.2451C78.7526 29.2482 77.9031 29.1234 77.0863 28.8748C76.8691 28.9792 76.634 29.0414 76.3936 29.0579C76.7261 29.1672 77.0812 29.1891 77.4247 29.1216C78.0842 29.5433 78.8609 29.7441 79.6422 29.6949C81.3382 29.6949 82.1066 28.7753 82.1066 28.7753C81.309 29.0836 80.4615 29.2429 79.6064 29.2451Z" fill="#2F2A00"/>
<path d="M90.901 26.2791C89.9851 26.0706 89.0524 25.944 88.1141 25.9009C86.3027 25.8372 85.6458 26.0522 85.6458 26.0522C85.6458 26.0522 85.9523 25.025 87.4731 24.9971C88.9939 24.9693 90.901 26.2791 90.901 26.2791Z" fill="#2F2A00"/>
<path d="M85.8408 28.6957C85.8408 28.6957 86.8481 27.2227 88.2295 27.155C89.611 27.0873 90.873 28.6001 90.873 28.6001C90.873 28.6001 90.5147 29.0222 88.5719 29.1814C86.6291 29.3407 85.8408 28.6957 85.8408 28.6957Z" fill="#EA8D78"/>
<path d="M91.5578 28.7593C91.3163 28.7509 91.0786 28.6968 90.8571 28.6001C90.0512 28.8833 89.2068 29.0418 88.353 29.0699C87.5062 29.0902 86.6629 28.9553 85.8647 28.6718C85.8647 28.6718 86.661 29.5397 88.361 29.4959C89.1433 29.5147 89.9114 29.2847 90.5546 28.839C90.8904 28.8967 91.2353 28.8693 91.5578 28.7593Z" fill="#2F2A00"/>
<path d="M82.7834 33.6961C83.1892 33.9411 83.64 34.1022 84.1092 34.1698C84.586 34.124 85.0394 33.9415 85.415 33.6443C85.415 33.6443 84.8576 33.5886 84.1928 33.5726C83.7203 33.572 83.2487 33.6133 82.7834 33.6961Z" fill="#EA8D78"/>
<path d="M84.4276 36.244C85.2506 36.2044 86.0597 36.0169 86.8163 35.6907C86.156 35.6111 85.4905 35.5818 84.8257 35.6031C84.804 35.7278 84.739 35.8408 84.6421 35.9222C84.5453 36.0037 84.4228 36.0484 84.2962 36.0484C84.1696 36.0484 84.0471 36.0037 83.9503 35.9222C83.8534 35.8408 83.7884 35.7278 83.7667 35.6031C83.1 35.6072 82.4346 35.6617 81.7761 35.7663C82.5506 36.0674 83.3737 36.2239 84.2046 36.2281H84.3838L84.4276 36.244Z" fill="#743F3D"/>
<path d="M82.2737 36.4152C82.2737 36.4152 82.5842 36.8571 83.7308 37.1358C84.8774 37.4144 85.7214 36.9407 86.3982 36.5027C86.198 36.8552 85.9221 37.1588 85.5902 37.3915C85.2583 37.6243 84.8789 37.7803 84.4793 37.8484C83.1854 38.0076 82.3215 36.5903 82.2737 36.4152Z" fill="#EA8D78"/>
<path d="M87.497 20.5661C86.0527 19.889 84.464 19.5773 82.8709 19.6584C80.2154 19.7898 78.1532 21.864 77.3848 23.333C76.6164 24.8021 75.8361 25.2201 75.8361 25.2201C75.8361 25.2201 76.079 28.7793 75.3982 30.2961C75.3982 30.2961 74.4785 28.7594 73.4076 28.3812C72.8616 26.1883 72.7427 23.9108 73.0572 21.6729C73.6106 18.2132 77.2773 14.5067 82.214 13.9812C87.1507 13.4557 89.6429 15.8723 89.6429 15.8723C89.6429 15.8723 92.9194 17.7196 93.8909 20.8567C94.8623 23.9939 94.0302 28.0667 94.0302 28.0667C94.0302 28.0667 93.1862 28.4927 92.6447 29.9657C92.6447 29.9657 91.0523 27.577 91.4504 24.9215C91.4783 24.9215 90.8373 20.6816 87.497 20.5661Z" fill="#743F3D"/>
<path d="M90.4352 17.6439C89.4479 17.9544 83.066 14.5027 83.066 14.5027C83.0569 14.0707 83.1065 13.6395 83.2133 13.2208C83.3607 12.5527 83.6766 11.9334 84.1309 11.4219C84.5853 10.9104 85.163 10.5237 85.809 10.2986C86.0893 10.1996 86.3768 10.1224 86.669 10.0677C87.7731 9.89699 88.9023 10.1128 89.8656 10.6786C90.829 11.2444 91.5673 12.1256 91.956 13.173C92.6328 15.1516 91.4265 17.3333 90.4352 17.6439Z" fill="#743F3D"/>
<path d="M82.1742 26.1198C82.6245 27.0454 82.9499 28.0268 83.1416 29.0381C83.3538 30.0311 83.3727 31.0556 83.1973 32.0558C83.1973 32.0558 82.8589 27.0833 80.3269 26.0283C80.9441 26.0067 81.5621 26.0374 82.1742 26.1198Z" fill="#EA8D78"/>
<path d="M87.4972 20.5661C87.4972 20.5661 84.3481 19.5111 81.6687 20.6776C78.9894 21.8441 79.0491 23.544 77.1859 23.6873L76.947 23.2415C76.947 23.2415 77.4447 23.337 78.5793 22.4452C79.7139 21.5534 82.1106 18.3326 87.4972 20.5661Z" fill="#743F3D"/>
<path d="M74.6896 114.594C74.6896 114.594 72.1138 114.92 71.214 115.096C71.214 115.096 67.631 114.582 66.1062 114.646C64.5814 114.709 63.7652 116.509 62.9212 118.46C62.0772 120.41 58.7569 122.497 57.5904 123.711C56.4239 124.925 56.396 126.709 56.396 127.087C56.396 127.465 55.6635 128.54 56.0616 129.424C56.4597 130.308 56.8977 130.009 57.256 129.91C57.6143 129.81 57.889 129.185 57.889 129.185C58.3441 129.215 58.801 129.172 59.2426 129.058C59.6407 128.878 59.3023 128.787 60.206 128.727C60.8733 128.71 61.5324 128.575 62.1528 128.329C62.7062 128.102 66.4963 124.169 68.5466 123.122C70.597 122.075 73.766 122.325 73.766 122.325L74.6896 114.594Z" fill="#FFA488"/>
<path d="M132.883 117.265C126.764 120.689 116.627 122.043 104.899 122.747C103.468 122.835 102.018 122.913 100.547 122.982L100.746 128.07L98.2781 128.038C93.4409 127.983 82.1582 127.839 70.4097 127.604C51.3876 127.226 36.2591 122.504 31.8877 118.296C30.7982 117.231 29.969 115.928 29.4643 114.49C28.9596 113.052 28.793 111.517 28.9775 110.004C29.3318 107.615 30.7491 105.346 33.6474 103.92C34.7874 103.412 35.9671 102.998 37.1748 102.682C42.2906 101.217 51.5429 99.4454 61.7467 99.3499L62.2085 99.318C63.5581 97.2956 68.5306 92.1758 68.5306 92.1758C71.0284 94.1607 73.8211 95.743 76.8075 96.8656C79.3356 97.7853 82.2219 98.3825 85.1441 98.0281C93.5882 97.009 102.068 92.3032 102.068 92.3032C103.756 94.031 105.412 98.0122 105.412 98.0122C113.864 98.0879 127.862 100.656 130.892 102.161L130.952 102.196C132.901 102.716 134.628 103.858 135.868 105.449C138.54 108.96 138.361 114.2 132.883 117.265Z" fill="#E9835B"/>
<path d="M31.9554 97.9366C30.9681 97.775 29.9726 97.6673 28.9735 97.6141C28.1215 97.6141 26.4017 98.1755 25.4263 98.3387C24.4509 98.5019 23.9692 98.5378 23.997 98.6851C24.0249 98.8324 24.3474 99.1907 25.4223 99.342C26.4972 99.4933 27.4129 99.2026 27.9902 99.1947C28.5674 99.1867 28.6949 99.5211 28.6949 99.5211C28.4743 100.013 28.1345 100.442 27.7063 100.769C27.278 101.097 26.7749 101.312 26.2424 101.396C24.3713 101.727 23.6347 101.448 23.5073 101.181C23.3799 100.915 24.1762 99.0951 23.9652 98.4183C23.7542 97.7415 23.4436 97.7933 23.0495 98.8722C22.6554 99.9511 21.9666 100.99 21.9825 101.699C21.9984 102.407 23.2008 103.017 23.2008 103.017C23.2008 103.017 20.8798 102.742 20.187 103.391C19.4943 104.04 20.8798 104.06 21.9786 104.159C23.0774 104.259 24.1085 104.585 24.7654 104.498C24.7654 104.498 21.8153 104.458 21.238 104.932C20.6608 105.405 21.8392 105.728 22.9619 105.704C24.0846 105.68 25.5975 105.919 25.8403 105.915C25.8403 105.915 23.2127 106.233 23.3003 106.89C23.3879 107.547 23.8656 107.097 25.2909 107.241C26.6239 107.424 27.9806 107.323 29.2721 106.946C30.6297 106.548 36.0401 102.411 36.0401 102.411L31.9554 97.9366Z" fill="#FFA488"/>
<path d="M122.846 104.382C111.607 105.975 80.136 114.033 80.136 114.033C80.136 114.033 63.5583 106.444 52.4468 104.665C41.8886 102.977 35.7258 103.817 37.1431 102.674C42.2589 101.209 51.5112 99.4375 61.715 99.342L62.1768 99.3101C63.5264 97.2877 68.4989 92.1678 68.4989 92.1678C70.9968 94.1527 73.7894 95.7351 76.7758 96.8577C77.1739 98.7089 83.7907 107.83 88.5681 106.333C93.3455 104.836 99.6159 102.774 102.614 103.805C105.612 104.836 111.703 104.275 115.899 103.331C120.095 102.388 122.846 104.382 122.846 104.382Z" fill="#CC6A4C"/>
<path d="M130.972 102.137C130.791 102.482 130.514 102.768 130.175 102.961L130.108 103.001C121.078 97.4269 112.371 89.0943 110.174 86.9484C108.981 85.8912 107.966 84.6492 107.168 83.2698C105.241 79.854 102.637 73.4841 100.822 68.8141L101.869 60.1232C101.869 60.1232 105.771 76.9437 109.891 82.3661C114.012 87.7885 130.972 102.137 130.972 102.137Z" fill="#3F2935"/>
<path d="M68.5905 70.2394L68.0689 68.3642L67.7903 67.353C65.9549 71.9115 62.5709 80.0371 60.226 84.0342C59.4043 85.399 58.3663 86.6212 57.1525 87.6531C54.9231 89.7552 46.0371 97.9166 36.9002 103.339L36.0681 102.423C36.0681 102.423 54.0592 87.0559 59.3462 81.0125C64.6332 74.969 67.858 61.7833 67.858 61.7833L68.5905 70.2394Z" fill="#3F2935"/>
<path d="M132.883 117.265C126.764 120.689 116.627 122.043 104.899 122.747C101.976 122.275 99.1416 121.359 96.4945 120.032V119.451L80.1716 114.028C80.307 114.06 82.9903 113.304 82.9903 113.304C90.4232 114.96 108.741 119.952 118.276 117.767C130.546 114.96 131.015 109.804 133.261 107.229C133.943 106.408 134.843 105.795 135.857 105.461C138.54 108.96 138.361 114.2 132.883 117.265Z" fill="#CC6A4C"/>
<path d="M96.4746 120.032C96.4746 120.032 99.0464 120.41 99.9382 120.602C99.9382 120.602 103.549 120.156 105.058 120.251C106.567 120.347 107.359 122.158 108.175 124.129C108.991 126.1 112.26 128.241 113.403 129.48C114.545 130.718 114.545 132.505 114.513 132.88C114.482 133.254 115.218 134.349 114.8 135.22C114.382 136.092 113.956 135.794 113.606 135.686C113.255 135.579 112.985 134.95 112.985 134.95C112.528 134.97 112.071 134.916 111.631 134.791C111.233 134.603 111.579 134.524 110.675 134.444C110.01 134.414 109.355 134.267 108.741 134.01C108.191 133.771 104.477 129.766 102.446 128.675C100.416 127.585 97.2469 127.768 97.2469 127.768L96.4746 120.032Z" fill="#FFA488"/>
<path d="M135.156 97.7255C136.146 97.588 137.143 97.5043 138.142 97.4747C138.994 97.5066 140.702 98.0839 141.673 98.271C142.645 98.4581 143.126 98.4979 143.099 98.6452C143.071 98.7925 142.736 99.1429 141.657 99.2742C140.578 99.4056 139.667 99.0991 139.093 99.0752C138.52 99.0513 138.385 99.3897 138.385 99.3897C138.595 99.8857 138.926 100.321 139.347 100.657C139.769 100.993 140.267 101.218 140.797 101.313C142.665 101.679 143.405 101.412 143.536 101.149C143.668 100.887 142.911 99.0513 143.138 98.3625C143.365 97.6738 143.676 97.7494 144.05 98.8363C144.424 99.9232 145.089 100.974 145.061 101.679C145.033 102.384 143.815 102.973 143.815 102.973C143.815 102.973 146.144 102.746 146.825 103.407C147.506 104.068 146.116 104.064 145.017 104.143C143.919 104.223 142.88 104.541 142.231 104.426C142.231 104.426 145.185 104.426 145.75 104.928C146.315 105.429 145.133 105.724 144.014 105.664C142.895 105.604 141.375 105.831 141.128 105.823C141.128 105.823 143.751 106.19 143.652 106.846C143.552 107.503 143.083 107.046 141.661 107.161C140.323 107.317 138.966 107.19 137.68 106.787C136.331 106.345 131.016 102.125 131.016 102.125L135.156 97.7255Z" fill="#FFA488"/>
<path d="M98.2463 128.038C93.4092 127.983 82.1265 127.839 70.378 127.604C51.3559 127.226 36.2273 122.504 31.856 118.296C30.7665 117.231 29.9372 115.928 29.4325 114.49C28.9278 113.052 28.7613 111.516 28.9458 110.004C30.5382 111.254 33.6595 113.427 39.5875 116.393C49.3255 121.266 67.3045 123.886 81.5453 125.259C95.786 126.633 97.0719 126.028 97.0719 126.028L98.2463 128.038Z" fill="#CC6A4C"/>
<path d="M88.2932 15.4264C86.3703 14.4908 83.3327 13.9135 83.3327 13.9135C83.2837 13.6852 83.2504 13.4537 83.2332 13.2208C83.3805 12.5527 83.6964 11.9334 84.1508 11.4219C84.6051 10.9104 85.1828 10.5237 85.8289 10.2986C86.1092 10.1996 86.3966 10.1224 86.6888 10.0677C86.3663 10.3981 86.0359 11.0112 86.3265 12.0344C86.8043 13.7662 90.1923 16.3659 88.2932 15.4264Z" fill="#603030"/>
<path d="M86.4859 19.0015C86.4859 19.0015 82.9427 17.6638 79.5507 19.0015C76.1587 20.3392 75.6929 23.962 74.9006 24.3203C74.9006 24.3203 75.5854 19.4633 79.2242 18.4083C82.863 17.3533 86.4859 19.0015 86.4859 19.0015Z" fill="#603030"/>
<path d="M89.1651 16.768L87.8235 19.7897C88.3619 19.5187 88.7898 19.0696 89.0344 18.5187C89.279 17.9678 89.3252 17.3491 89.1651 16.768Z" fill="#603030"/>
</g>
</g>
<g filter="url(#filter0_b_136:22632)">
<rect x="13" y="77" width="141" height="77" rx="10" fill="black" fill-opacity="0.8"/>
</g>
<path d="M48.7321 112H47.0521L46.9121 109.27L46.5901 105.798H46.4501L44.4341 111.048H42.9641L41.1301 105.798H41.0041L40.6541 109.088L40.4581 112H38.8621L39.7721 102.984H41.9561L42.3201 104.314L43.7481 108.584H43.8741L45.3721 104.314L45.7781 102.984H47.9201L48.7321 112ZM55.0776 108.976L51.2976 109.004C51.3816 110.171 51.9743 110.754 53.0756 110.754C53.6543 110.754 54.2983 110.591 55.0076 110.264L55.1616 110.362L54.8816 111.748C54.1723 112.009 53.5049 112.14 52.8796 112.14C51.8529 112.14 51.0456 111.841 50.4576 111.244C49.8789 110.647 49.5896 109.821 49.5896 108.766C49.5896 107.721 49.8743 106.895 50.4436 106.288C51.0129 105.672 51.7829 105.364 52.7536 105.364C53.5843 105.364 54.2236 105.593 54.6716 106.05C55.1289 106.498 55.3576 107.128 55.3576 107.94C55.3576 108.155 55.3343 108.425 55.2876 108.752L55.0776 108.976ZM53.7336 107.73C53.7336 107.357 53.6496 107.077 53.4816 106.89C53.3136 106.694 53.0663 106.596 52.7396 106.596C52.3756 106.596 52.0723 106.717 51.8296 106.96C51.5869 107.193 51.4236 107.534 51.3396 107.982L53.7056 107.926L53.7336 107.73ZM58.4064 109.13L58.5044 112H56.6424L56.7404 109.298L56.6564 102.312L58.5184 102.172L58.4064 109.13ZM64.3242 107.94C64.3335 107.604 64.2635 107.347 64.1142 107.17C63.9648 106.993 63.7455 106.904 63.4562 106.904C63.0362 106.904 62.5882 107.105 62.1122 107.506L62.0842 109.13L62.1822 112H60.3202L60.4182 109.298L60.3342 102.312L62.1962 102.172L62.1262 106.414H62.2102C62.7235 105.947 63.2882 105.611 63.9042 105.406C64.6135 105.406 65.1502 105.569 65.5142 105.896C65.8875 106.213 66.0695 106.675 66.0602 107.282L66.0182 109.144L66.0882 112H64.2262L64.3242 107.94ZM70.431 105.364C71.383 105.364 72.111 105.644 72.615 106.204C73.119 106.764 73.371 107.571 73.371 108.626C73.371 109.765 73.1003 110.637 72.559 111.244C72.0177 111.841 71.2383 112.14 70.221 112.14C69.269 112.14 68.541 111.86 68.037 111.3C67.533 110.74 67.281 109.933 67.281 108.878C67.281 107.739 67.5517 106.871 68.093 106.274C68.6343 105.667 69.4137 105.364 70.431 105.364ZM70.305 106.624C69.857 106.624 69.5303 106.773 69.325 107.072C69.129 107.371 69.031 107.851 69.031 108.514C69.031 109.373 69.1337 109.984 69.339 110.348C69.5443 110.712 69.8803 110.894 70.347 110.894C70.795 110.894 71.117 110.749 71.313 110.46C71.5183 110.161 71.621 109.676 71.621 109.004C71.621 108.155 71.5137 107.548 71.299 107.184C71.0937 106.811 70.7623 106.624 70.305 106.624ZM78.1629 105.476C78.2469 105.476 78.3636 105.485 78.5129 105.504V107.226L78.3169 107.296C78.1583 107.231 77.9856 107.198 77.7989 107.198C77.2576 107.198 76.7676 107.548 76.3289 108.248V109.13L76.4269 112H74.5649L74.6769 109.312L74.5929 105.616L76.3569 105.462L76.3429 106.736H76.4549C76.9123 105.896 77.4816 105.476 78.1629 105.476ZM81.8574 105.364C82.5761 105.364 83.1361 105.527 83.5374 105.854C83.9481 106.171 84.1534 106.619 84.1534 107.198C84.1534 107.366 84.1254 107.898 84.0694 108.794C84.0601 109.055 84.0461 109.326 84.0274 109.606C84.0087 109.877 83.9994 110.11 83.9994 110.306C83.9994 110.465 84.0227 110.577 84.0694 110.642C84.1161 110.698 84.2001 110.726 84.3214 110.726C84.4147 110.726 84.5361 110.707 84.6854 110.67L84.8254 110.782L84.6574 111.762C84.3587 111.958 84.0181 112.075 83.6354 112.112C83.3554 112.084 83.1221 111.986 82.9354 111.818C82.7487 111.641 82.6227 111.398 82.5574 111.09H82.4594C81.9927 111.585 81.5121 111.93 81.0174 112.126C80.3454 112.117 79.8181 111.939 79.4354 111.594C79.0527 111.249 78.8614 110.777 78.8614 110.18C78.8614 109.713 78.9781 109.349 79.2114 109.088C79.4541 108.817 79.8181 108.635 80.3034 108.542L82.4454 108.136V107.562C82.4454 106.955 82.1467 106.652 81.5494 106.652C81.2601 106.652 80.9521 106.717 80.6254 106.848C80.3081 106.979 79.9487 107.184 79.5474 107.464L79.4074 107.38L79.1974 106.148C79.5987 105.896 80.0281 105.705 80.4854 105.574C80.9427 105.434 81.4001 105.364 81.8574 105.364ZM80.9474 109.396C80.7981 109.433 80.6861 109.499 80.6114 109.592C80.5461 109.676 80.5134 109.807 80.5134 109.984C80.5134 110.227 80.5787 110.418 80.7094 110.558C80.8401 110.689 81.0221 110.754 81.2554 110.754C81.6194 110.754 82.0021 110.539 82.4034 110.11L82.4314 109.074L80.9474 109.396ZM90.8568 105.364C91.8088 105.364 92.5368 105.644 93.0408 106.204C93.5448 106.764 93.7968 107.571 93.7968 108.626C93.7968 109.765 93.5261 110.637 92.9848 111.244C92.4434 111.841 91.6641 112.14 90.6468 112.14C89.6948 112.14 88.9668 111.86 88.4628 111.3C87.9588 110.74 87.7068 109.933 87.7068 108.878C87.7068 107.739 87.9774 106.871 88.5188 106.274C89.0601 105.667 89.8394 105.364 90.8568 105.364ZM90.7308 106.624C90.2828 106.624 89.9561 106.773 89.7508 107.072C89.5548 107.371 89.4568 107.851 89.4568 108.514C89.4568 109.373 89.5594 109.984 89.7648 110.348C89.9701 110.712 90.3061 110.894 90.7728 110.894C91.2208 110.894 91.5428 110.749 91.7388 110.46C91.9441 110.161 92.0468 109.676 92.0468 109.004C92.0468 108.155 91.9394 107.548 91.7248 107.184C91.5194 106.811 91.1881 106.624 90.7308 106.624ZM100.58 102.144C100.963 102.144 101.369 102.186 101.798 102.27L101.672 103.656L101.546 103.74C101.107 103.553 100.725 103.46 100.398 103.46C99.8192 103.46 99.5252 103.791 99.5159 104.454L99.5019 105.546H101.084L101.14 105.644L101.056 106.666H99.4739L99.4319 109.13L99.5299 112H97.6679L97.7799 109.298L97.7519 106.666H96.7719L96.7019 106.568L96.7999 105.546H97.7379L97.7239 104.776C97.7239 103.936 97.9712 103.287 98.4659 102.83C98.9699 102.373 99.6746 102.144 100.58 102.144ZM104.365 105.364C105.317 105.364 106.045 105.644 106.549 106.204C107.053 106.764 107.305 107.571 107.305 108.626C107.305 109.765 107.034 110.637 106.493 111.244C105.951 111.841 105.172 112.14 104.155 112.14C103.203 112.14 102.475 111.86 101.971 111.3C101.467 110.74 101.215 109.933 101.215 108.878C101.215 107.739 101.485 106.871 102.027 106.274C102.568 105.667 103.347 105.364 104.365 105.364ZM104.239 106.624C103.791 106.624 103.464 106.773 103.259 107.072C103.063 107.371 102.965 107.851 102.965 108.514C102.965 109.373 103.067 109.984 103.273 110.348C103.478 110.712 103.814 110.894 104.281 110.894C104.729 110.894 105.051 110.749 105.247 110.46C105.452 110.161 105.555 109.676 105.555 109.004C105.555 108.155 105.447 107.548 105.233 107.184C105.027 106.811 104.696 106.624 104.239 106.624ZM111.255 105.364C111.563 105.364 111.866 105.397 112.165 105.462C112.473 105.518 112.743 105.602 112.977 105.714L112.669 107.198L112.515 107.268C112.039 107.007 111.614 106.876 111.241 106.876C110.811 106.876 110.48 107.03 110.247 107.338C110.013 107.646 109.897 108.085 109.897 108.654C109.897 109.307 110.023 109.807 110.275 110.152C110.527 110.497 110.886 110.67 111.353 110.67C111.773 110.67 112.239 110.553 112.753 110.32L112.893 110.432L112.711 111.874C112.151 112.051 111.577 112.14 110.989 112.14C110.093 112.14 109.393 111.851 108.889 111.272C108.385 110.684 108.133 109.867 108.133 108.822C108.133 107.739 108.408 106.895 108.959 106.288C109.509 105.672 110.275 105.364 111.255 105.364ZM116.669 105.364C117.621 105.364 118.349 105.644 118.853 106.204C119.357 106.764 119.609 107.571 119.609 108.626C119.609 109.765 119.339 110.637 118.797 111.244C118.256 111.841 117.477 112.14 116.459 112.14C115.507 112.14 114.779 111.86 114.275 111.3C113.771 110.74 113.519 109.933 113.519 108.878C113.519 107.739 113.79 106.871 114.331 106.274C114.873 105.667 115.652 105.364 116.669 105.364ZM116.543 106.624C116.095 106.624 115.769 106.773 115.563 107.072C115.367 107.371 115.269 107.851 115.269 108.514C115.269 109.373 115.372 109.984 115.577 110.348C115.783 110.712 116.119 110.894 116.585 110.894C117.033 110.894 117.355 110.749 117.551 110.46C117.757 110.161 117.859 109.676 117.859 109.004C117.859 108.155 117.752 107.548 117.537 107.184C117.332 106.811 117.001 106.624 116.543 106.624ZM128.044 108.976L124.264 109.004C124.348 110.171 124.941 110.754 126.042 110.754C126.621 110.754 127.265 110.591 127.974 110.264L128.128 110.362L127.848 111.748C127.139 112.009 126.472 112.14 125.846 112.14C124.82 112.14 124.012 111.841 123.424 111.244C122.846 110.647 122.556 109.821 122.556 108.766C122.556 107.721 122.841 106.895 123.41 106.288C123.98 105.672 124.75 105.364 125.72 105.364C126.551 105.364 127.19 105.593 127.638 106.05C128.096 106.498 128.324 107.128 128.324 107.94C128.324 108.155 128.301 108.425 128.254 108.752L128.044 108.976ZM126.7 107.73C126.7 107.357 126.616 107.077 126.448 106.89C126.28 106.694 126.033 106.596 125.706 106.596C125.342 106.596 125.039 106.717 124.796 106.96C124.554 107.193 124.39 107.534 124.306 107.982L126.672 107.926L126.7 107.73ZM48.6032 121.364C48.9112 121.364 49.2145 121.397 49.5132 121.462C49.8212 121.518 50.0919 121.602 50.3252 121.714L50.0172 123.198L49.8632 123.268C49.3872 123.007 48.9625 122.876 48.5892 122.876C48.1599 122.876 47.8285 123.03 47.5952 123.338C47.3619 123.646 47.2452 124.085 47.2452 124.654C47.2452 125.307 47.3712 125.807 47.6232 126.152C47.8752 126.497 48.2345 126.67 48.7012 126.67C49.1212 126.67 49.5879 126.553 50.1012 126.32L50.2412 126.432L50.0592 127.874C49.4992 128.051 48.9252 128.14 48.3372 128.14C47.4412 128.14 46.7412 127.851 46.2372 127.272C45.7332 126.684 45.4812 125.867 45.4812 124.822C45.4812 123.739 45.7565 122.895 46.3072 122.288C46.8579 121.672 47.6232 121.364 48.6032 121.364ZM54.0179 121.364C54.9699 121.364 55.6979 121.644 56.2019 122.204C56.7059 122.764 56.9579 123.571 56.9579 124.626C56.9579 125.765 56.6872 126.637 56.1459 127.244C55.6046 127.841 54.8252 128.14 53.8079 128.14C52.8559 128.14 52.1279 127.86 51.6239 127.3C51.1199 126.74 50.8679 125.933 50.8679 124.878C50.8679 123.739 51.1386 122.871 51.6799 122.274C52.2212 121.667 53.0006 121.364 54.0179 121.364ZM53.8919 122.624C53.4439 122.624 53.1172 122.773 52.9119 123.072C52.7159 123.371 52.6179 123.851 52.6179 124.514C52.6179 125.373 52.7206 125.984 52.9259 126.348C53.1312 126.712 53.4672 126.894 53.9339 126.894C54.3819 126.894 54.7039 126.749 54.8999 126.46C55.1052 126.161 55.2079 125.676 55.2079 125.004C55.2079 124.155 55.1006 123.548 54.8859 123.184C54.6806 122.811 54.3492 122.624 53.8919 122.624ZM62.1559 123.94C62.1652 123.613 62.0905 123.361 61.9319 123.184C61.7825 122.997 61.5632 122.904 61.2739 122.904C60.8539 122.904 60.4059 123.105 59.9299 123.506V125.13L60.0139 128H58.1519L58.2499 125.312L58.1799 121.616L59.9439 121.462V122.414H60.0419C60.5552 121.947 61.1152 121.611 61.7219 121.406C62.4312 121.406 62.9725 121.569 63.3459 121.896C63.7192 122.213 63.8965 122.675 63.8779 123.282L63.8359 125.144L63.9199 128H62.0439L62.1559 123.94ZM68.236 121.364C68.544 121.364 68.8473 121.397 69.146 121.462C69.454 121.518 69.7247 121.602 69.958 121.714L69.65 123.198L69.496 123.268C69.02 123.007 68.5953 122.876 68.222 122.876C67.7927 122.876 67.4613 123.03 67.228 123.338C66.9947 123.646 66.878 124.085 66.878 124.654C66.878 125.307 67.004 125.807 67.256 126.152C67.508 126.497 67.8673 126.67 68.334 126.67C68.754 126.67 69.2207 126.553 69.734 126.32L69.874 126.432L69.692 127.874C69.132 128.051 68.558 128.14 67.97 128.14C67.074 128.14 66.374 127.851 65.87 127.272C65.366 126.684 65.114 125.867 65.114 124.822C65.114 123.739 65.3893 122.895 65.94 122.288C66.4907 121.672 67.256 121.364 68.236 121.364ZM75.9887 124.976L72.2087 125.004C72.2927 126.171 72.8854 126.754 73.9867 126.754C74.5654 126.754 75.2094 126.591 75.9187 126.264L76.0727 126.362L75.7927 127.748C75.0834 128.009 74.4161 128.14 73.7907 128.14C72.7641 128.14 71.9567 127.841 71.3687 127.244C70.7901 126.647 70.5007 125.821 70.5007 124.766C70.5007 123.721 70.7854 122.895 71.3547 122.288C71.9241 121.672 72.6941 121.364 73.6647 121.364C74.4954 121.364 75.1347 121.593 75.5827 122.05C76.0401 122.498 76.2687 123.128 76.2687 123.94C76.2687 124.155 76.2454 124.425 76.1987 124.752L75.9887 124.976ZM74.6447 123.73C74.6447 123.357 74.5607 123.077 74.3927 122.89C74.2247 122.694 73.9774 122.596 73.6507 122.596C73.2867 122.596 72.9834 122.717 72.7407 122.96C72.4981 123.193 72.3347 123.534 72.2507 123.982L74.6167 123.926L74.6447 123.73ZM81.5562 123.94C81.5656 123.613 81.4909 123.361 81.3322 123.184C81.1829 122.997 80.9636 122.904 80.6742 122.904C80.2542 122.904 79.8062 123.105 79.3302 123.506V125.13L79.4142 128H77.5522L77.6502 125.312L77.5802 121.616L79.3442 121.462V122.414H79.4422C79.9556 121.947 80.5156 121.611 81.1222 121.406C81.8316 121.406 82.3729 121.569 82.7462 121.896C83.1196 122.213 83.2969 122.675 83.2782 123.282L83.2362 125.144L83.3202 128H81.4442L81.5562 123.94ZM87.5944 126.628C87.8931 126.628 88.2057 126.549 88.5324 126.39L88.6864 126.53L88.5044 127.636C88.0284 127.879 87.5431 128.028 87.0484 128.084C85.7884 127.953 85.1584 127.337 85.1584 126.236L85.2284 125.074L85.2144 122.666H84.3464L84.2764 122.568L84.3744 121.546H85.2004V120.468L86.8944 119.922L87.0204 120.034L86.9784 121.546H88.6444L88.7004 121.644L88.6164 122.666H86.9504L86.8664 125.802C86.8664 126.101 86.9224 126.315 87.0344 126.446C87.1464 126.567 87.3331 126.628 87.5944 126.628ZM93.2909 121.476C93.3749 121.476 93.4915 121.485 93.6409 121.504V123.226L93.4449 123.296C93.2862 123.231 93.1135 123.198 92.9269 123.198C92.3855 123.198 91.8955 123.548 91.4569 124.248V125.13L91.5549 128H89.6929L89.8049 125.312L89.7209 121.616L91.4849 121.462L91.4709 122.736H91.5829C92.0402 121.896 92.6095 121.476 93.2909 121.476ZM96.9853 121.364C97.704 121.364 98.264 121.527 98.6653 121.854C99.076 122.171 99.2813 122.619 99.2813 123.198C99.2813 123.366 99.2533 123.898 99.1973 124.794C99.188 125.055 99.174 125.326 99.1553 125.606C99.1367 125.877 99.1273 126.11 99.1273 126.306C99.1273 126.465 99.1507 126.577 99.1973 126.642C99.244 126.698 99.328 126.726 99.4493 126.726C99.5427 126.726 99.664 126.707 99.8133 126.67L99.9533 126.782L99.7853 127.762C99.4867 127.958 99.146 128.075 98.7633 128.112C98.4833 128.084 98.25 127.986 98.0633 127.818C97.8767 127.641 97.7507 127.398 97.6853 127.09H97.5873C97.1207 127.585 96.64 127.93 96.1453 128.126C95.4733 128.117 94.946 127.939 94.5633 127.594C94.1807 127.249 93.9893 126.777 93.9893 126.18C93.9893 125.713 94.106 125.349 94.3393 125.088C94.582 124.817 94.946 124.635 95.4313 124.542L97.5733 124.136V123.562C97.5733 122.955 97.2747 122.652 96.6773 122.652C96.388 122.652 96.08 122.717 95.7533 122.848C95.436 122.979 95.0767 123.184 94.6753 123.464L94.5353 123.38L94.3253 122.148C94.7267 121.896 95.156 121.705 95.6133 121.574C96.0707 121.434 96.528 121.364 96.9853 121.364ZM96.0753 125.396C95.926 125.433 95.814 125.499 95.7393 125.592C95.674 125.676 95.6413 125.807 95.6413 125.984C95.6413 126.227 95.7067 126.418 95.8373 126.558C95.968 126.689 96.15 126.754 96.3833 126.754C96.7473 126.754 97.13 126.539 97.5313 126.11L97.5593 125.074L96.0753 125.396ZM103.838 121.364C104.146 121.364 104.449 121.397 104.748 121.462C105.056 121.518 105.326 121.602 105.56 121.714L105.252 123.198L105.098 123.268C104.622 123.007 104.197 122.876 103.824 122.876C103.394 122.876 103.063 123.03 102.83 123.338C102.596 123.646 102.48 124.085 102.48 124.654C102.48 125.307 102.606 125.807 102.858 126.152C103.11 126.497 103.469 126.67 103.936 126.67C104.356 126.67 104.822 126.553 105.336 126.32L105.476 126.432L105.294 127.874C104.734 128.051 104.16 128.14 103.572 128.14C102.676 128.14 101.976 127.851 101.472 127.272C100.968 126.684 100.716 125.867 100.716 124.822C100.716 123.739 100.991 122.895 101.542 122.288C102.092 121.672 102.858 121.364 103.838 121.364ZM103.824 128.672L104.3 128.938C104.505 129.05 104.65 129.171 104.734 129.302C104.827 129.442 104.874 129.596 104.874 129.764C104.874 130.072 104.752 130.324 104.51 130.52C104.267 130.716 103.95 130.814 103.558 130.814C103.138 130.814 102.755 130.683 102.41 130.422L102.536 129.638L102.62 129.596C102.9 129.876 103.175 130.016 103.446 130.016C103.67 130.016 103.782 129.918 103.782 129.722C103.782 129.657 103.763 129.601 103.726 129.554C103.688 129.517 103.628 129.479 103.544 129.442L102.858 129.05L103.18 127.636H104.076L103.824 128.672ZM108.976 121.364C109.694 121.364 110.254 121.527 110.656 121.854C111.066 122.171 111.272 122.619 111.272 123.198C111.272 123.366 111.244 123.898 111.188 124.794C111.178 125.055 111.164 125.326 111.146 125.606C111.127 125.877 111.118 126.11 111.118 126.306C111.118 126.465 111.141 126.577 111.188 126.642C111.234 126.698 111.318 126.726 111.44 126.726C111.533 126.726 111.654 126.707 111.804 126.67L111.944 126.782L111.776 127.762C111.477 127.958 111.136 128.075 110.754 128.112C110.474 128.084 110.24 127.986 110.054 127.818C109.867 127.641 109.741 127.398 109.676 127.09H109.578C109.111 127.585 108.63 127.93 108.136 128.126C107.464 128.117 106.936 127.939 106.554 127.594C106.171 127.249 105.98 126.777 105.98 126.18C105.98 125.713 106.096 125.349 106.33 125.088C106.572 124.817 106.936 124.635 107.422 124.542L109.564 124.136V123.562C109.564 122.955 109.265 122.652 108.668 122.652C108.378 122.652 108.07 122.717 107.744 122.848C107.426 122.979 107.067 123.184 106.666 123.464L106.526 123.38L106.316 122.148C106.717 121.896 107.146 121.705 107.604 121.574C108.061 121.434 108.518 121.364 108.976 121.364ZM108.066 125.396C107.916 125.433 107.804 125.499 107.73 125.592C107.664 125.676 107.632 125.807 107.632 125.984C107.632 126.227 107.697 126.418 107.828 126.558C107.958 126.689 108.14 126.754 108.374 126.754C108.738 126.754 109.12 126.539 109.522 126.11L109.55 125.074L108.066 125.396ZM111.272 118.732V118.886L110.292 120.132L110.11 120.202C109.858 120.174 109.47 120.085 108.948 119.936C108.901 119.927 108.747 119.889 108.486 119.824C108.234 119.749 108.056 119.712 107.954 119.712C107.851 119.712 107.748 119.754 107.646 119.838C107.552 119.922 107.45 120.025 107.338 120.146C107.226 120.267 107.142 120.361 107.086 120.426H106.918L106.358 119.88V119.726L107.352 118.48L107.52 118.41C107.744 118.438 108.14 118.531 108.71 118.69C109.232 118.83 109.554 118.9 109.676 118.9C109.788 118.9 109.895 118.853 109.998 118.76C110.11 118.667 110.222 118.559 110.334 118.438C110.446 118.317 110.52 118.233 110.558 118.186H110.726L111.272 118.732ZM115.856 121.364C116.808 121.364 117.536 121.644 118.04 122.204C118.544 122.764 118.796 123.571 118.796 124.626C118.796 125.765 118.525 126.637 117.984 127.244C117.442 127.841 116.663 128.14 115.646 128.14C114.694 128.14 113.966 127.86 113.462 127.3C112.958 126.74 112.706 125.933 112.706 124.878C112.706 123.739 112.976 122.871 113.518 122.274C114.059 121.667 114.838 121.364 115.856 121.364ZM115.73 122.624C115.282 122.624 114.955 122.773 114.75 123.072C114.554 123.371 114.456 123.851 114.456 124.514C114.456 125.373 114.558 125.984 114.764 126.348C114.969 126.712 115.305 126.894 115.772 126.894C116.22 126.894 116.542 126.749 116.738 126.46C116.943 126.161 117.046 125.676 117.046 125.004C117.046 124.155 116.938 123.548 116.724 123.184C116.518 122.811 116.187 122.624 115.73 122.624ZM120.364 126.11C120.653 126.11 120.877 126.194 121.036 126.362C121.204 126.53 121.288 126.763 121.288 127.062C121.288 127.379 121.199 127.631 121.022 127.818C120.844 128.005 120.602 128.098 120.294 128.098C119.986 128.098 119.748 128.014 119.58 127.846C119.421 127.678 119.342 127.44 119.342 127.132C119.342 126.824 119.43 126.577 119.608 126.39C119.794 126.203 120.046 126.11 120.364 126.11Z" fill="white"/>
<defs>
<filter id="filter0_b_136:22632" x="3" y="67" width="161" height="97" filterUnits="userSpaceOnUse" color-interpolation-filters="sRGB">
<feFlood flood-opacity="0" result="BackgroundImageFix"/>
<feGaussianBlur in="BackgroundImage" stdDeviation="5"/>
<feComposite in2="SourceAlpha" operator="in" result="effect1_backgroundBlur_136:22632"/>
<feBlend mode="normal" in="SourceGraphic" in2="effect1_backgroundBlur_136:22632" result="shape"/>
</filter>
<clipPath id="clip0_136:22632">
<rect width="127" height="125.822" fill="white" transform="translate(20 10)"/>
</clipPath>
</defs>
</svg>
