<svg width="167" height="167" viewBox="0 0 167 167" fill="none" xmlns="http://www.w3.org/2000/svg">
<mask id="mask0_136:22357" style="mask-type:alpha" maskUnits="userSpaceOnUse" x="0" y="0" width="167" height="167">
<rect x="1" y="1" width="165" height="165" rx="8" fill="#5988D6" stroke="#EDE6FC" stroke-opacity="0.3"/>
</mask>
<g mask="url(#mask0_136:22357)">
<rect x="1" y="1" width="165" height="165" rx="8" fill="#7AC2D9" stroke="#EDE6FC" stroke-opacity="0.3"/>
<path d="M63.4364 163.016L70.5688 187.604C71.5741 191.616 71.8269 195.78 71.3145 199.884C71.3145 199.884 76.2293 201.013 79.4843 199.366C82.2465 197.965 83.1737 196.577 83.1737 196.577L82.3502 190.152L79.1082 162.044L63.4364 163.016Z" fill="#FFA8A7"/>
<path d="M83.1607 196.577L82.3372 190.152L79.0952 162.044L73.2596 162.478C73.8238 170.518 76.2942 191.008 76.9555 196.454C76.9555 196.454 77.1371 197.894 77.3575 200.053C78.0995 199.925 78.8198 199.694 79.4973 199.366C82.2335 197.965 83.1607 196.577 83.1607 196.577Z" fill="#F28F8F"/>
<path d="M70.6725 95.4919C65.6993 112.817 58.9105 147.04 61.2901 156.202C63.0667 163.068 67.197 177.21 67.197 177.21C70.1926 177.638 78.985 178.176 81.3711 172.917C81.9806 164.397 111.392 94.5128 111.392 94.5128L70.6725 95.4919Z" fill="#37474F"/>
<path opacity="0.25" d="M74.6797 177.164C73.8757 169.889 73.1365 162.537 73.117 160.112C73.0652 154.276 82.5448 117.758 82.5448 117.758C76.8843 112.097 76.2488 107.993 76.2488 107.993C78.9373 111.4 81.8693 114.607 85.0217 117.589L80.4829 174.305C79.0693 176.425 76.3785 177.022 74.6797 177.164Z" fill="black"/>
<path d="M72.3 100.271C76.3526 108.7 77.9476 112.039 85.0217 117.589C85.0217 117.589 76.1192 153.582 75.983 160.578C75.795 170.129 77.1306 181.327 77.6623 189.192C79.0045 190.949 88.3934 192.214 91.7975 189.627C93.01 184.284 94.4235 177.696 94.9617 173.274C96.0834 164.086 94.5532 162.374 94.3716 160.144C100.441 148.272 107.839 134.033 112.916 122.277C114.213 119.223 114.654 114.497 114.861 112.59C115.691 104.809 113.26 98.6626 111.392 94.5128L72.3 100.271Z" fill="#37474F"/>
<path d="M67.1322 75.3202C65.2749 75.7363 63.351 75.7583 61.4846 75.385C58.7354 74.7366 57.082 72.4996 55.4675 70.3923C54.0475 68.5509 53.814 65.4321 54.229 63.2599C54.7218 60.6663 57.8147 59.2204 58.1843 56.5684C58.5344 54.1045 57.8536 51.6017 58.8327 49.2156C59.9674 46.4728 62.4183 45.0853 65.2129 44.5471C66.7626 44.2488 68.4549 44.5471 69.9268 43.9441C71.872 43.1919 71.8201 41.4283 71.8331 39.6322C71.8331 35.2555 76.0607 33.9911 79.6139 33.1028C81.6823 32.5906 83.5497 31.9487 84.5677 29.9192C85.4755 28.1101 84.9956 25.925 85.4754 24.0058C86.3767 20.4331 89.0093 18.034 92.2318 16.3611C95.1172 14.8698 95.1755 12.3605 98.4175 12.6004C100.843 10.8108 105.932 11.5824 109.525 15.1551C111.976 17.5931 112.079 21.9633 111.963 24.8811C111.843 27.6589 110.883 30.335 109.209 32.5547C107.534 34.7745 105.225 36.4331 102.587 37.3109C100.852 37.7775 99.238 38.6112 97.8534 39.7554C96.7265 40.6641 95.8458 41.8413 95.2922 43.179C94.391 45.6883 94.6827 48.5996 94.8383 51.1997C95.1625 56.5749 94.592 62.3133 89.1259 64.9198C86.4999 66.1712 83.5497 66.0221 80.7875 66.8002C78.4727 67.4486 75.918 67.9868 74.5758 70.1589C72.9937 72.7525 71.2366 74.3735 68.228 75.1386C67.8844 75.171 67.5083 75.2488 67.1322 75.3202Z" fill="#37474F"/>
<path d="M98.0349 12.4253C98.6728 12.2323 99.3448 12.1794 100.005 12.27C100.665 12.3607 101.298 12.5928 101.86 12.9505C102.425 13.2607 102.888 13.7289 103.191 14.2979C103.494 14.8668 103.624 15.5117 103.566 16.1536C103.566 16.1536 100.92 13.3201 98.0349 12.4253Z" fill="#27DEBF"/>
<path d="M83.5822 47.614C74.5046 47.426 71.3663 49.8769 65.8549 52.4122C63.5596 53.4691 58.8976 56.1275 54.2291 58.8638C55.0201 52.4316 56.3364 47.0823 57.296 45.0399L58.0028 37.5638C57.8372 37.413 57.7075 37.2269 57.6234 37.0193C57.5392 36.8117 57.5027 36.5879 57.5165 36.3643C57.5813 35.7159 57.5489 35.0091 57.5554 34.3283C57.5623 32.8117 57.651 31.2965 57.8212 29.7895C58.0117 28.4246 58.3065 27.0763 58.7031 25.7564C59.0208 24.6282 59.0856 22.9359 57.4776 22.9813C57.0821 23.0497 56.6951 23.1605 56.3234 23.312C55.5648 23.4935 54.8775 23.0267 54.1578 22.9359C53.438 22.8451 52.8221 23.513 52.2515 23.8891C51.6939 24.1351 51.108 24.3115 50.5073 24.4143C49.9558 24.7006 49.4597 25.0826 49.0419 25.5425C48.2606 26.229 47.6501 27.0881 47.2588 28.0518C46.9849 28.6673 46.7574 29.3023 46.578 29.9516C46.2208 31.1906 45.982 32.4606 45.8647 33.7447C45.6671 35.6703 45.6151 37.608 45.7091 39.5414C45.774 40.8382 46.0787 42.135 46.0787 43.4318C46.0787 44.7286 45.936 45.604 45.145 47.8475C44.5549 49.5268 42.9275 54.3833 40.9952 59.7197C39.6984 63.3053 36.6963 71.2223 38.7518 75.5277C40.8072 79.833 45.6702 78.6919 51.4799 76.1761C59.7146 72.9341 79.6788 63.8954 79.6788 63.8954L83.5822 47.614Z" fill="#FFA8A7"/>
<path d="M54.2291 58.8638C53.7298 62.6439 53.665 66.6446 51.5966 70.3015C51.5966 70.3015 55.9798 66.4111 57.095 57.1909L54.2291 58.8638Z" fill="#F28F8F"/>
<path d="M96.3815 47.4519L104.363 48.2041C108.403 49.1961 109.972 51.1672 110.387 54.7529C110.582 56.4193 110.517 66.2685 109.155 71.8512C107.742 77.6479 106.983 82.485 106.983 82.485C108.889 86.3205 110.368 90.3541 111.392 94.5128C97.0235 103.889 76.6313 101.159 70.6725 95.4919C72.086 90.3047 73.0521 88.1909 74.2581 84.5339C74.2581 84.5339 72.4102 78.6983 72.6436 74.7431C67.1646 69.2187 68.3123 63.6165 70.7632 59.9012C75.1723 53.2162 81.7471 47.5816 83.5821 47.614L96.3815 47.4519Z" fill="#FFA8A7"/>
<path d="M104.363 48.2041L96.3815 47.4519L83.5821 47.614C81.7471 47.614 75.1529 53.2162 70.7632 59.9012C68.3123 63.6165 67.1646 69.2187 72.6436 74.7431C72.5983 76.2359 72.7135 77.7293 72.9872 79.1976C72.9872 79.1976 87.3428 87.3091 107.664 78.7048C108.027 76.8439 108.526 74.4448 109.155 71.8512C110.517 66.2685 110.582 56.4193 110.387 54.7529C109.972 51.1802 108.403 49.1961 104.363 48.2041Z" fill="#455A64"/>
<path d="M98.0154 42.1545C97.9247 41.2856 100.531 39.4377 101.75 38.3484C104.499 35.8909 106.289 34.1338 106.989 29.1476C107.806 23.3638 106.86 17.4764 100.097 13.4368C94.3649 10.0068 82.0778 9.17684 78.531 17.82L98.0154 42.1545Z" fill="#455A64"/>
<path d="M83.1477 13.8777C79.8084 15.0708 76.8647 18.0664 75.529 28.4668C74.4008 37.2785 76.9166 39.8851 78.2523 40.728C79.588 41.5709 82.3307 42.0832 85.0734 42.0248L85.7672 48.4115C85.7672 48.4115 80.8912 53.3848 82.0908 57.9106C94.1899 56.3156 98.7222 49.0275 98.7222 49.0275L97.4254 36.1698C97.8832 36.6257 98.4739 36.9247 99.1124 37.0237C99.7508 37.1227 100.404 37.0167 100.979 36.7209C104.273 35.2814 104.804 31.3392 103.345 29.3291C103.045 28.8793 102.637 28.5117 102.159 28.2597C101.68 28.0078 101.147 27.8795 100.606 27.8866C100.065 27.8937 99.5349 28.0359 99.0632 28.3003C98.5915 28.5647 98.1935 28.9429 97.9053 29.4005C97.9053 29.4005 100.22 21.1593 95.9601 17.0808C90.9415 12.354 87.064 12.4772 83.1477 13.8777Z" fill="#FFA8A7"/>
<path d="M84.2889 23.2147L82.4475 31.6569L78.2523 29.7441L84.2889 23.2147Z" fill="#F28F8F"/>
<path d="M85.0734 42.0443C87.5762 41.9276 92.7051 41.2856 95.5515 37.3693C95.0896 38.8988 94.2252 40.276 93.0487 41.357C90.3902 43.5226 85.3327 44.4044 85.3327 44.4044L85.0734 42.0443Z" fill="#F28F8F"/>
<path d="M88.7693 22.3134L91.1035 24.6412C91.4115 24.319 91.5834 23.8905 91.5834 23.4449C91.5834 22.9992 91.4115 22.5707 91.1035 22.2486C90.9489 22.0941 90.7644 21.9728 90.5614 21.8921C90.3583 21.8113 90.1409 21.7728 89.9225 21.7788C89.704 21.7849 89.4891 21.8354 89.2908 21.9274C89.0925 22.0193 88.9151 22.1506 88.7693 22.3134Z" fill="#263238"/>
<path d="M78.0707 21.8077L81.2803 20.9648C81.2354 20.7557 81.1489 20.5578 81.0259 20.3828C80.903 20.2079 80.7461 20.0594 80.5646 19.9463C80.3832 19.8332 80.1808 19.7577 79.9696 19.7244C79.7584 19.6911 79.5426 19.7005 79.3351 19.7522C78.9001 19.8658 78.5257 20.143 78.2901 20.526C78.0545 20.909 77.9759 21.3681 78.0707 21.8077Z" fill="#263238"/>
<path d="M89.4112 27.4358C89.4112 27.4358 89.4955 26.4891 88.0561 25.9185C87.1807 25.5684 86.4156 25.6786 85.9941 26.2557C87.208 26.3843 88.3766 26.7879 89.4112 27.4358Z" fill="#263238"/>
<path d="M77.5261 24.92C77.5261 24.92 77.8114 24.0122 79.3546 24.0317C80.2948 24.0317 80.9627 24.4402 81.1248 25.134C79.9578 24.7862 78.7261 24.7129 77.5261 24.92Z" fill="#263238"/>
<path d="M85.6893 17.5606C87.038 17.9691 88.9313 15.8813 91.5833 17.204C94.4168 18.624 93.0616 21.8336 94.9614 23.9279C96.4009 25.51 94.3131 29.1476 95.96 30.1396C96.6927 30.574 97.9052 29.4199 97.9052 29.4199C97.9052 29.4199 99.6688 27.3774 99.9476 22.2097C100.226 17.0419 93.8332 12.7819 88.9248 11.9649C86.7918 11.6351 84.6099 12.031 82.7288 13.0892C80.8476 14.1473 79.3762 15.8064 78.5504 17.8005C78.5504 17.8005 80.4632 15.5117 82.8234 15.4404C85.1836 15.369 84.4703 17.1911 85.6893 17.5606Z" fill="#455A64"/>
<path d="M101.77 108.888C100.884 108.907 100.012 108.661 99.2669 108.181C98.7287 107.753 98.0479 107.15 98.2943 106.372C98.3915 106.067 98.6898 106.022 98.9816 105.989C99.63 105.912 100.201 105.847 100.81 105.75C101.762 105.564 102.7 105.313 103.618 104.997C104.897 104.661 106.196 104.405 107.508 104.232C108.126 104.096 108.734 103.921 109.33 103.707C110.293 103.427 111.164 102.894 111.852 102.164C112.489 101.486 113.058 100.748 113.551 99.9594C115.027 97.531 116.304 94.9875 117.37 92.3536C118.498 89.76 119.542 87.0951 120.716 84.508C117.526 80.3193 107.19 66.0869 107.19 66.0869C102.185 59.765 101.763 52.9763 103.494 48.1522C110.4 47.9123 112.857 47.9641 117.694 54.325C122.162 60.2578 127.129 68.687 131.92 77.1162C134.566 81.7912 136.044 83.4381 133.301 88.1844C130.319 93.3716 123.575 102.78 120.612 106.618C117.584 110.561 115.84 113.9 111.586 116.941C109.302 116.027 107.377 114.395 106.101 112.292C105.709 111.644 105.385 110.958 105.135 110.243C105.057 110.016 104.966 109.802 104.876 109.595C104.785 109.387 104.876 109.173 104.7 109.063C104.525 108.953 104.02 108.992 103.812 108.985C103.131 108.979 102.444 108.966 101.77 108.888Z" fill="#FFA8A7"/>
<path d="M76.4885 36.5393C76.3017 35.8759 76.2742 35.1778 76.4083 34.5017C76.5424 33.8257 76.8343 33.1908 77.2601 32.6489C77.404 32.4442 77.6003 32.282 77.8285 32.1794C78.0567 32.0767 78.3083 32.0373 78.5569 32.0654L78.9978 32.1561C79.2359 32.2246 79.4513 32.3558 79.6212 32.536C79.7912 32.7162 79.9096 32.9389 79.9639 33.1806C80.1506 33.8436 80.1786 34.5413 80.0456 35.2171C79.9127 35.893 79.6226 36.5281 79.1988 37.071C79.054 37.2747 78.8575 37.4361 78.6296 37.5387C78.4016 37.6413 78.1505 37.6813 77.902 37.6546L77.4611 37.5638C77.2224 37.4952 77.0064 37.364 76.8354 37.1839C76.6644 37.0038 76.5447 36.7813 76.4885 36.5393Z" fill="#27DEBF"/>
<path opacity="0.5" d="M76.4885 36.5393C76.3017 35.8759 76.2742 35.1778 76.4083 34.5017C76.5424 33.8257 76.8343 33.1908 77.2601 32.6489C77.404 32.4442 77.6003 32.282 77.8285 32.1794C78.0567 32.0767 78.3083 32.0373 78.5569 32.0654L78.9978 32.1561C79.2359 32.2246 79.4513 32.3558 79.6212 32.536C79.7912 32.7162 79.9096 32.9389 79.9639 33.1806C80.1506 33.8436 80.1786 34.5413 80.0456 35.2171C79.9127 35.893 79.6226 36.5281 79.1988 37.071C79.054 37.2747 78.8575 37.4361 78.6296 37.5387C78.4016 37.6413 78.1505 37.6813 77.902 37.6546L77.4611 37.5638C77.2224 37.4952 77.0064 37.364 76.8354 37.1839C76.6644 37.0038 76.5447 36.7813 76.4885 36.5393Z" fill="white"/>
<path d="M79.5036 33.0963C79.0951 31.8968 78.0901 31.6958 77.2601 32.6489C76.8343 33.1908 76.5424 33.8257 76.4083 34.5017C76.2742 35.1778 76.3017 35.8759 76.4885 36.5393C76.897 37.7389 77.902 37.9334 78.7385 36.9867C79.1623 36.4438 79.4524 35.8087 79.5853 35.1328C79.7182 34.457 79.6902 33.7593 79.5036 33.0963Z" fill="#27DEBF"/>
<path opacity="0.5" d="M79.5036 33.0963C79.0951 31.8968 78.0901 31.6958 77.2601 32.6489C76.8343 33.1908 76.5424 33.8257 76.4083 34.5017C76.2742 35.1778 76.3017 35.8759 76.4885 36.5393C76.897 37.7389 77.902 37.9334 78.7385 36.9867C79.1623 36.4438 79.4524 35.8087 79.5853 35.1328C79.7182 34.457 79.6902 33.7593 79.5036 33.0963Z" fill="white"/>
<path opacity="0.1" d="M79.5036 33.0963C79.0951 31.8968 78.0901 31.6958 77.2601 32.6489C76.8343 33.1908 76.5424 33.8257 76.4083 34.5017C76.2742 35.1778 76.3017 35.8759 76.4885 36.5393C76.897 37.7389 77.902 37.9334 78.7385 36.9867C79.1623 36.4438 79.4524 35.8087 79.5853 35.1328C79.7182 34.457 79.6902 33.7593 79.5036 33.0963Z" fill="black"/>
<path d="M75.8985 36.4226C75.7118 35.7592 75.6843 35.061 75.8184 34.385C75.9524 33.7089 76.2443 33.0741 76.6701 32.5322C76.8135 32.327 77.0098 32.1644 77.2381 32.0617C77.4664 31.9589 77.7182 31.9199 77.9669 31.9486L78.4078 32.0394C78.6453 32.1091 78.86 32.2407 79.0298 32.4207C79.1996 32.6008 79.3183 32.8227 79.374 33.0639C79.5613 33.7273 79.589 34.4255 79.4549 35.1017C79.3208 35.7778 79.0287 36.4126 78.6024 36.9543C78.458 37.1585 78.2616 37.3203 78.0335 37.4229C77.8055 37.5255 77.5541 37.5652 77.3056 37.5379L76.8647 37.4471C76.6265 37.3787 76.4112 37.2475 76.2412 37.0672C76.0712 36.887 75.9529 36.6643 75.8985 36.4226Z" fill="#27DEBF"/>
<path opacity="0.5" d="M75.8985 36.4226C75.7118 35.7592 75.6843 35.061 75.8184 34.385C75.9524 33.7089 76.2443 33.0741 76.6701 32.5322C76.8135 32.327 77.0098 32.1644 77.2381 32.0617C77.4664 31.9589 77.7182 31.9199 77.9669 31.9486L78.4078 32.0394C78.6453 32.1091 78.86 32.2407 79.0298 32.4207C79.1996 32.6008 79.3183 32.8227 79.374 33.0639C79.5613 33.7273 79.589 34.4255 79.4549 35.1017C79.3208 35.7778 79.0287 36.4126 78.6024 36.9543C78.458 37.1585 78.2616 37.3203 78.0335 37.4229C77.8055 37.5255 77.5541 37.5652 77.3056 37.5379L76.8647 37.4471C76.6265 37.3787 76.4112 37.2475 76.2412 37.0672C76.0712 36.887 75.9529 36.6643 75.8985 36.4226Z" fill="white"/>
<path d="M78.9136 32.9796C78.5051 31.7801 77.5001 31.5791 76.6701 32.5322C76.2443 33.0741 75.9524 33.709 75.8184 34.385C75.6843 35.0611 75.7118 35.7592 75.8985 36.4226C76.307 37.6222 77.312 37.8167 78.142 36.87C78.5678 36.3281 78.8597 35.6933 78.9938 35.0172C79.1278 34.3412 79.1004 33.643 78.9136 32.9796Z" fill="#27DEBF"/>
<path opacity="0.5" d="M78.9136 32.9796C78.5051 31.7801 77.5001 31.5791 76.6701 32.5322C76.2443 33.0741 75.9524 33.709 75.8184 34.385C75.6843 35.0611 75.7118 35.7592 75.8985 36.4226C76.307 37.6222 77.312 37.8167 78.142 36.87C78.5678 36.3281 78.8597 35.6933 78.9938 35.0172C79.1278 34.3412 79.1004 33.643 78.9136 32.9796Z" fill="white"/>
<path opacity="0.1" d="M78.9136 32.9796C78.5051 31.7801 77.5001 31.5791 76.6701 32.5322C76.2443 33.0741 75.9524 33.709 75.8184 34.385C75.6843 35.0611 75.7118 35.7592 75.8985 36.4226C76.307 37.6222 77.312 37.8167 78.142 36.87C78.5678 36.3281 78.8597 35.6933 78.9938 35.0172C79.1278 34.3412 79.1004 33.643 78.9136 32.9796Z" fill="black"/>
<path d="M75.3085 36.3059C75.1219 35.6429 75.0939 34.9453 75.2268 34.2694C75.3597 33.5936 75.6498 32.9585 76.0736 32.4155C76.218 32.2113 76.4144 32.0495 76.6425 31.9469C76.8705 31.8443 77.1219 31.8046 77.3704 31.832L77.8178 31.9227C78.0553 31.9924 78.27 32.124 78.4397 32.304C78.6095 32.4841 78.7283 32.7061 78.7839 32.9472C78.9681 33.6109 78.9943 34.3085 78.8603 34.9841C78.7263 35.6597 78.4359 36.2945 78.0123 36.8376C77.8686 37.0422 77.6721 37.2039 77.4438 37.3055C77.2154 37.4071 76.9637 37.4449 76.7155 37.4147L76.2746 37.3304C76.0368 37.2614 75.8218 37.13 75.6519 36.9498C75.4821 36.7697 75.3635 36.5473 75.3085 36.3059Z" fill="#27DEBF"/>
<path opacity="0.5" d="M75.3085 36.3059C75.1219 35.6429 75.0939 34.9453 75.2268 34.2694C75.3597 33.5936 75.6498 32.9585 76.0736 32.4155C76.218 32.2113 76.4144 32.0495 76.6425 31.9469C76.8705 31.8443 77.1219 31.8046 77.3704 31.832L77.8178 31.9227C78.0553 31.9924 78.27 32.124 78.4397 32.304C78.6095 32.4841 78.7283 32.7061 78.7839 32.9472C78.9681 33.6109 78.9943 34.3085 78.8603 34.9841C78.7263 35.6597 78.4359 36.2945 78.0123 36.8376C77.8686 37.0422 77.6721 37.2039 77.4438 37.3055C77.2154 37.4071 76.9637 37.4449 76.7155 37.4147L76.2746 37.3304C76.0368 37.2614 75.8218 37.13 75.6519 36.9498C75.4821 36.7697 75.3635 36.5473 75.3085 36.3059Z" fill="white"/>
<path d="M78.3236 32.8629C77.9151 31.6634 76.9101 31.4623 76.0736 32.4155C75.6498 32.9585 75.3597 33.5935 75.2268 34.2694C75.0939 34.9452 75.1219 35.6429 75.3085 36.3059C75.717 37.5054 76.722 37.7 77.552 36.7468C77.9768 36.2056 78.2681 35.5719 78.4021 34.8971C78.5362 34.2223 78.5093 33.5254 78.3236 32.8629Z" fill="#27DEBF"/>
<path opacity="0.1" d="M78.3236 32.8629C77.9151 31.6634 76.9101 31.4623 76.0736 32.4155C75.6498 32.9585 75.3597 33.5935 75.2268 34.2694C75.0939 34.9452 75.1219 35.6429 75.3085 36.3059C75.717 37.5054 76.722 37.7 77.552 36.7468C77.9768 36.2056 78.2681 35.5719 78.4021 34.8971C78.5362 34.2223 78.5093 33.5254 78.3236 32.8629Z" fill="black"/>
<path opacity="0.7" d="M78.0706 33.1676C77.74 32.1821 76.91 32.0135 76.2227 32.7981C75.8709 33.2436 75.6289 33.7658 75.5163 34.3222C75.4036 34.8787 75.4235 35.4538 75.5743 36.0012C75.9115 36.9867 76.7349 37.1488 77.4222 36.3643C77.7754 35.9206 78.0182 35.3996 78.131 34.8439C78.2437 34.2883 78.223 33.7138 78.0706 33.1676Z" fill="#27DEBF"/>
<path opacity="0.3" d="M78.0706 33.1676C77.74 32.1821 76.91 32.0135 76.2227 32.7981C75.8709 33.2436 75.6289 33.7658 75.5163 34.3222C75.4036 34.8787 75.4235 35.4538 75.5743 36.0012C75.9115 36.9867 76.7349 37.1488 77.4222 36.3643C77.7754 35.9206 78.0182 35.3996 78.131 34.8439C78.2437 34.2883 78.223 33.7138 78.0706 33.1676Z" fill="white"/>
<path opacity="0.1" d="M77.6102 33.0769C77.6954 32.9782 77.7911 32.8891 77.8955 32.811C77.9613 32.9233 78.0136 33.043 78.0511 33.1677C78.2035 33.7138 78.2242 34.2883 78.1115 34.844C77.9988 35.3996 77.7558 35.9207 77.4027 36.3643C77.3192 36.4646 77.2234 36.5539 77.1175 36.6301C77.0532 36.5184 76.999 36.4012 76.9554 36.28C76.8054 35.7321 76.7866 35.1567 76.9003 34.6002C77.0141 34.0438 77.2573 33.5219 77.6102 33.0769Z" fill="black"/>
<path d="M74.6795 36.1827C74.4928 35.5193 74.4653 34.8211 74.5994 34.1451C74.7335 33.469 75.0253 32.8342 75.4511 32.2923C75.595 32.0876 75.7914 31.9254 76.0195 31.8227C76.2477 31.7201 76.4993 31.6807 76.7479 31.7087L77.1953 31.793C77.4327 31.865 77.6469 31.9982 77.8164 32.1791C77.986 32.3601 78.105 32.5825 78.1615 32.824C78.3451 33.4877 78.371 34.1852 78.237 34.8607C78.1031 35.5362 77.8129 36.171 77.3899 36.7144C77.2465 36.9196 77.0502 37.0822 76.8219 37.1849C76.5936 37.2877 76.3418 37.3267 76.0931 37.298L75.6521 37.2072C75.4128 37.1398 75.1961 37.009 75.025 36.8287C74.8538 36.6484 74.7344 36.4252 74.6795 36.1827Z" fill="#27DEBF"/>
<path opacity="0.3" d="M74.6795 36.1827C74.4928 35.5193 74.4653 34.8211 74.5994 34.1451C74.7335 33.469 75.0253 32.8342 75.4511 32.2923C75.595 32.0876 75.7914 31.9254 76.0195 31.8227C76.2477 31.7201 76.4993 31.6807 76.7479 31.7087L77.1953 31.793C77.4327 31.865 77.6469 31.9982 77.8164 32.1791C77.986 32.3601 78.105 32.5825 78.1615 32.824C78.3451 33.4877 78.371 34.1852 78.237 34.8607C78.1031 35.5362 77.8129 36.171 77.3899 36.7144C77.2465 36.9196 77.0502 37.0822 76.8219 37.1849C76.5936 37.2877 76.3418 37.3267 76.0931 37.298L75.6521 37.2072C75.4128 37.1398 75.1961 37.009 75.025 36.8287C74.8538 36.6484 74.7344 36.4252 74.6795 36.1827Z" fill="black"/>
<path d="M77.7011 32.7332C77.2926 31.5337 76.2811 31.3392 75.4511 32.2923C75.0253 32.8342 74.7335 33.4691 74.5994 34.1451C74.4653 34.8211 74.4928 35.5193 74.6795 36.1827C75.088 37.3823 76.093 37.5833 76.9295 36.6301C77.3545 36.0865 77.6458 35.4506 77.7798 34.7737C77.9138 34.0967 77.8869 33.3978 77.7011 32.7332Z" fill="#27DEBF"/>
<path opacity="0.5" d="M77.7011 32.7332C77.2926 31.5337 76.2811 31.3392 75.4511 32.2923C75.0253 32.8342 74.7335 33.4691 74.5994 34.1451C74.4653 34.8211 74.4928 35.5193 74.6795 36.1827C75.088 37.3823 76.093 37.5833 76.9295 36.6301C77.3545 36.0865 77.6458 35.4506 77.7798 34.7737C77.9138 34.0967 77.8869 33.3978 77.7011 32.7332Z" fill="black"/>
<path d="M73.9857 36.1039C73.7953 35.4206 73.7677 34.7022 73.905 34.0063C74.0424 33.3104 74.341 32.6564 74.7768 32.0968C74.9215 31.8922 75.1175 31.7294 75.3452 31.6246C75.5728 31.5199 75.824 31.477 76.0736 31.5003L76.5274 31.591C76.7737 31.6609 76.9965 31.7959 77.1722 31.982C77.348 32.168 77.4702 32.3981 77.526 32.6479C77.7144 33.3307 77.7405 34.0482 77.602 34.7429C77.4635 35.4376 77.1643 36.0902 76.7284 36.6486C76.585 36.8548 76.3893 37.0193 76.1615 37.1252C75.9337 37.2312 75.6818 37.2748 75.4316 37.2516L74.9778 37.1608C74.733 37.0893 74.512 36.9536 74.3375 36.7677C74.163 36.5819 74.0416 36.3526 73.9857 36.1039Z" fill="#27DEBF"/>
<path opacity="0.5" d="M73.9857 36.1039C73.7953 35.4206 73.7677 34.7022 73.905 34.0063C74.0424 33.3104 74.341 32.6564 74.7768 32.0968C74.9215 31.8922 75.1175 31.7294 75.3452 31.6246C75.5728 31.5199 75.824 31.477 76.0736 31.5003L76.5274 31.591C76.7737 31.6609 76.9965 31.7959 77.1722 31.982C77.348 32.168 77.4702 32.3981 77.526 32.6479C77.7144 33.3307 77.7405 34.0482 77.602 34.7429C77.4635 35.4376 77.1643 36.0902 76.7284 36.6486C76.585 36.8548 76.3893 37.0193 76.1615 37.1252C75.9337 37.2312 75.6818 37.2748 75.4316 37.2516L74.9778 37.1608C74.733 37.0893 74.512 36.9536 74.3375 36.7677C74.163 36.5819 74.0416 36.3526 73.9857 36.1039Z" fill="white"/>
<path d="M77.0915 32.5581C76.6701 31.3262 75.6326 31.1187 74.7768 32.0978C74.341 32.6574 74.0424 33.3114 73.905 34.0073C73.7677 34.7032 73.7953 35.4216 73.9857 36.1049C74.4072 37.3369 75.4381 37.5443 76.3005 36.5653C76.7363 36.0056 77.0349 35.3516 77.1722 34.6557C77.3096 33.9598 77.282 33.2414 77.0915 32.5581Z" fill="#27DEBF"/>
<path opacity="0.5" d="M77.0915 32.5581C76.6701 31.3262 75.6326 31.1187 74.7768 32.0978C74.341 32.6574 74.0424 33.3114 73.905 34.0073C73.7677 34.7032 73.7953 35.4216 73.9857 36.1049C74.4072 37.3369 75.4381 37.5443 76.3005 36.5653C76.7363 36.0056 77.0349 35.3516 77.1722 34.6557C77.3096 33.9598 77.282 33.2414 77.0915 32.5581Z" fill="white"/>
<path opacity="0.1" d="M77.0915 32.5581C76.6701 31.3262 75.6326 31.1187 74.7768 32.0978C74.341 32.6574 74.0424 33.3114 73.905 34.0073C73.7677 34.7032 73.7953 35.4216 73.9857 36.1049C74.4072 37.3369 75.4381 37.5443 76.3005 36.5653C76.7363 36.0056 77.0349 35.3516 77.1722 34.6557C77.3096 33.9598 77.282 33.2414 77.0915 32.5581Z" fill="black"/>
<path d="M76.5794 32.7844C76.5319 32.5693 76.4255 32.3717 76.272 32.2137C76.1186 32.0556 75.9242 31.9434 75.7106 31.8896C75.2907 31.8488 74.8831 31.7254 74.511 31.5265C74.1383 31.1464 73.8296 30.7085 73.5968 30.2297C72.7992 28.9329 70.7308 26.0022 68.0594 25.477C67.8124 25.438 67.5608 25.438 67.3138 25.477C67.0931 25.3556 66.8546 25.2702 66.607 25.2241L65.4529 24.9907C65.2243 24.9474 64.9907 24.9365 64.7591 24.9582C64.5234 24.8357 64.2694 24.7525 64.0069 24.7118L62.5675 24.4266C62.0871 24.3346 61.5902 24.3888 61.141 24.5822L60.6288 24.8026C60.225 24.9754 59.782 25.0352 59.3469 24.9758C58.9118 24.9165 58.501 24.7401 58.1583 24.4655L57.1209 23.6355C56.8189 23.389 56.4601 23.2218 56.077 23.1492L37.63 19.5052C36.5796 19.2977 35.393 19.784 34.3167 21.0095C32.1705 23.4669 31.2757 27.9668 32.3326 31.0597C32.8578 32.6094 33.772 33.5106 34.8224 33.7181L53.2694 37.3621C53.6529 37.4358 54.0483 37.418 54.4236 37.3103L55.7204 36.9342C56.0951 36.8231 56.4913 36.8053 56.8745 36.8823C57.3522 36.9791 57.7901 37.2162 58.1324 37.5631L58.5215 37.9587C58.8722 38.3152 59.3256 38.5533 59.8183 38.6395L61.2123 38.8599C61.4716 38.9187 61.7382 38.9384 62.0034 38.9183C62.2062 39.0277 62.425 39.1043 62.6518 39.1452L63.8059 39.3787C64.0532 39.4146 64.3044 39.4146 64.5516 39.3787C64.7747 39.4944 65.0124 39.5795 65.2583 39.6315C67.9298 40.1567 70.9643 38.2051 72.1833 37.3362C72.5828 36.9788 73.0384 36.6896 73.5319 36.4803C73.951 36.4379 74.3742 36.4798 74.7769 36.6035C74.9956 36.6347 75.2188 36.6046 75.4214 36.5164C75.6241 36.4283 75.7982 36.2856 75.9245 36.1042C76.2832 35.6393 76.529 35.0975 76.6427 34.5214C76.7563 33.9453 76.7347 33.3507 76.5794 32.7844Z" fill="#27DEBF"/>
<path opacity="0.5" d="M75.9178 36.1568C75.7915 36.3381 75.6173 36.4808 75.4146 36.569C75.212 36.6572 74.9888 36.6873 74.7701 36.6561C74.3653 36.5322 73.9398 36.4903 73.5187 36.5329C73.0282 36.7441 72.5749 37.0331 72.1765 37.3888C71.2652 38.0472 70.2872 38.6079 69.2587 39.0616C68.012 39.6626 66.6175 39.8878 65.2451 39.71C65.0016 39.6568 64.7661 39.5718 64.5448 39.4571C64.2976 39.4931 64.0464 39.4931 63.7991 39.4571L62.645 39.2237C62.419 39.1798 62.2006 39.1034 61.9966 38.9968C61.7294 38.9941 61.4645 38.9481 61.212 38.8606L59.7726 38.5753C59.2795 38.4904 58.8257 38.2521 58.4758 37.8945L58.0867 37.499C57.7813 37.1822 57.3955 36.9546 56.9706 36.8404C56.5457 36.7261 56.0978 36.7297 55.6747 36.8506L54.3779 37.2266C54.002 37.3305 53.6075 37.3482 53.2237 37.2785L34.8221 33.6734C33.7717 33.4659 32.8769 32.5646 32.3323 31.015C31.8518 29.3015 31.781 27.4991 32.1256 25.7532C32.4703 24.0074 33.2208 22.367 34.3164 20.9648C35.3927 19.7393 36.5793 19.253 37.6297 19.4605L56.0767 23.1045C56.4613 23.1784 56.8219 23.3454 57.1271 23.5908L58.1581 24.4207C58.4632 24.6622 58.8208 24.8287 59.202 24.907C59.6822 25.0023 60.1801 24.948 60.6285 24.7514L61.1407 24.5375C61.5898 24.3437 62.0869 24.2894 62.5672 24.3818L64.0066 24.6671C64.2696 24.7057 64.5239 24.7891 64.7588 24.9135C64.9905 24.895 65.2236 24.9059 65.4526 24.9459L66.6067 25.1794C67.049 25.4178 67.5529 25.5173 68.0526 25.4647C70.7305 25.9899 72.799 28.9531 73.59 30.2174C73.825 30.6965 74.1359 31.1345 74.5107 31.5142C74.8816 31.7159 75.2898 31.8394 75.7103 31.8773C75.9247 31.9308 76.1202 32.0427 76.2747 32.2007C76.4293 32.3587 76.5369 32.5565 76.5856 32.7721C76.7482 33.3491 76.7725 33.9562 76.6564 34.5443C76.5404 35.1324 76.2873 35.6848 75.9178 36.1568Z" fill="white"/>
<path d="M55.6945 36.9154C56.4557 36.6826 57.132 36.2317 57.6397 35.6186C58.6425 34.3399 59.3291 32.8423 59.6435 31.2479C59.9579 29.6535 59.8912 28.0074 59.4487 26.4437C59.2252 25.6879 58.7885 25.0125 58.1908 24.4985L57.1598 23.6686C56.8547 23.4232 56.494 23.2562 56.1094 23.1823L37.6624 19.5383H37.6235C38.6545 19.7587 39.5688 20.6535 40.068 22.1773C40.5486 23.8918 40.6194 25.6952 40.2748 27.4421C39.9301 29.189 39.1796 30.8304 38.0839 32.234C37.0594 33.4076 35.9247 33.9003 34.9132 33.7642H34.8549L53.3019 37.4082C53.6856 37.4779 54.0801 37.4602 54.456 37.3563L55.6945 36.9154ZM70.5493 28.149C71.0305 29.8628 71.1011 31.6659 70.7552 33.412C70.4094 35.1582 69.6569 36.7983 68.5587 38.1992C67.5472 39.3599 66.4385 39.8527 65.4399 39.7359C66.1889 39.8343 66.9496 39.7925 67.6834 39.6128L67.9298 39.5479C68.1697 39.4831 68.4161 39.4053 68.6495 39.321L68.8959 39.2302L69.3498 39.0422C69.4255 39.0152 69.4993 38.9827 69.5702 38.9449L70.0112 38.7374L70.2186 38.6272L70.4196 38.517C71.0284 38.1877 71.6154 37.8195 72.1768 37.4147C72.5753 37.0591 73.0285 36.7701 73.519 36.5588C73.9402 36.5162 74.3656 36.5581 74.7704 36.682C74.9892 36.7132 75.2123 36.6831 75.4149 36.5949C75.6176 36.5068 75.7918 36.3641 75.9181 36.1827C76.2823 35.7106 76.5307 35.1596 76.6433 34.574C76.7559 33.9884 76.7296 33.3846 76.5665 32.811C76.5178 32.5954 76.4101 32.3976 76.2556 32.2396C76.101 32.0816 75.9056 31.9697 75.6911 31.9162C75.2707 31.8783 74.8625 31.7548 74.4916 31.5531C74.1167 31.1733 73.8058 30.7354 73.5709 30.2563L73.4931 30.1331L73.318 29.8608L73.2142 29.7117C73.1494 29.6079 73.0716 29.5042 72.9938 29.394L72.8771 29.2254C72.7928 29.1151 72.702 28.9984 72.6177 28.8752C72.5334 28.752 72.4621 28.6742 72.3778 28.577L72.0795 28.2204L71.9239 28.0453C71.8721 27.9869 71.8137 27.9286 71.7618 27.8637L71.5933 27.6887L71.4182 27.5136C71.2453 27.3407 71.0637 27.1721 70.8735 27.0078L70.679 26.8457C70.6148 26.7903 70.5477 26.7384 70.478 26.6901C69.8258 26.167 69.0733 25.783 68.267 25.5619C69.2396 25.8148 70.0565 26.6901 70.5493 28.1231V28.149ZM67.1128 37.9139C68.2112 36.5131 68.9634 34.8728 69.3082 33.1264C69.653 31.38 69.5806 29.5769 69.0969 27.8637C68.5782 26.3335 67.6769 25.4322 66.6395 25.2183L65.4594 24.9848C66.5098 25.1923 67.4046 26.0936 67.9428 27.6368C68.4264 29.3499 68.4988 31.1531 68.154 32.8995C67.8093 34.6459 67.0571 36.2862 65.9586 37.687C64.8823 38.9125 63.6957 39.3988 62.6453 39.1913L63.7995 39.4247C64.8499 39.6063 66.0364 39.12 67.1128 37.888V37.9139ZM64.6035 37.4212C65.702 36.0191 66.4542 34.3777 66.7989 32.6302C67.1437 30.8828 67.0713 29.0787 66.5876 27.3645C66.0624 25.8213 65.1481 24.92 64.0977 24.7125L62.5092 24.4013C63.5725 24.5958 64.4933 25.4971 65.025 27.0597C65.5086 28.7729 65.581 30.576 65.2362 32.3224C64.8915 34.0688 64.1393 35.7091 63.0408 37.1099C61.9645 38.3419 60.7779 38.8282 59.7275 38.6207L61.2902 38.9254C62.3406 39.107 63.5271 38.6207 64.6035 37.3952V37.4212Z" fill="#27DEBF"/>
<path opacity="0.7" d="M55.6945 36.9154C56.4557 36.6826 57.132 36.2317 57.6397 35.6186C58.6425 34.3399 59.3291 32.8423 59.6435 31.2479C59.9579 29.6535 59.8912 28.0074 59.4487 26.4437C59.2252 25.6879 58.7885 25.0125 58.1908 24.4985L57.1598 23.6686C56.8547 23.4232 56.494 23.2562 56.1094 23.1823L37.6624 19.5383H37.6235C38.6545 19.7587 39.5688 20.6535 40.068 22.1773C40.5486 23.8918 40.6194 25.6952 40.2748 27.4421C39.9301 29.189 39.1796 30.8304 38.0839 32.234C37.0594 33.4076 35.9247 33.9003 34.9132 33.7642H34.8549L53.3019 37.4082C53.6856 37.4779 54.0801 37.4602 54.456 37.3563L55.6945 36.9154ZM70.5493 28.149C71.0305 29.8628 71.1011 31.6659 70.7552 33.412C70.4094 35.1582 69.6569 36.7983 68.5587 38.1992C67.5472 39.3599 66.4385 39.8527 65.4399 39.7359C66.1889 39.8343 66.9496 39.7925 67.6834 39.6128L67.9298 39.5479C68.1697 39.4831 68.4161 39.4053 68.6495 39.321L68.8959 39.2302L69.3498 39.0422C69.4255 39.0152 69.4993 38.9827 69.5702 38.9449L70.0112 38.7374L70.2186 38.6272L70.4196 38.517C71.0284 38.1877 71.6154 37.8195 72.1768 37.4147C72.5753 37.0591 73.0285 36.7701 73.519 36.5588C73.9402 36.5162 74.3656 36.5581 74.7704 36.682C74.9892 36.7132 75.2123 36.6831 75.4149 36.5949C75.6176 36.5068 75.7918 36.3641 75.9181 36.1827C76.2823 35.7106 76.5307 35.1596 76.6433 34.574C76.7559 33.9884 76.7296 33.3846 76.5665 32.811C76.5178 32.5954 76.4101 32.3976 76.2556 32.2396C76.101 32.0816 75.9056 31.9697 75.6911 31.9162C75.2707 31.8783 74.8625 31.7548 74.4916 31.5531C74.1167 31.1733 73.8058 30.7354 73.5709 30.2563L73.4931 30.1331L73.318 29.8608L73.2142 29.7117C73.1494 29.6079 73.0716 29.5042 72.9938 29.394L72.8771 29.2254C72.7928 29.1151 72.702 28.9984 72.6177 28.8752C72.5334 28.752 72.4621 28.6742 72.3778 28.577L72.0795 28.2204L71.9239 28.0453C71.8721 27.9869 71.8137 27.9286 71.7618 27.8637L71.5933 27.6887L71.4182 27.5136C71.2453 27.3407 71.0637 27.1721 70.8735 27.0078L70.679 26.8457C70.6148 26.7903 70.5477 26.7384 70.478 26.6901C69.8258 26.167 69.0733 25.783 68.267 25.5619C69.2396 25.8148 70.0565 26.6901 70.5493 28.1231V28.149ZM67.1128 37.9139C68.2112 36.5131 68.9634 34.8728 69.3082 33.1264C69.653 31.38 69.5806 29.5769 69.0969 27.8637C68.5782 26.3335 67.6769 25.4322 66.6395 25.2183L65.4594 24.9848C66.5098 25.1923 67.4046 26.0936 67.9428 27.6368C68.4264 29.3499 68.4988 31.1531 68.154 32.8995C67.8093 34.6459 67.0571 36.2862 65.9586 37.687C64.8823 38.9125 63.6957 39.3988 62.6453 39.1913L63.7995 39.4247C64.8499 39.6063 66.0364 39.12 67.1128 37.888V37.9139ZM64.6035 37.4212C65.702 36.0191 66.4542 34.3777 66.7989 32.6302C67.1437 30.8828 67.0713 29.0787 66.5876 27.3645C66.0624 25.8213 65.1481 24.92 64.0977 24.7125L62.5092 24.4013C63.5725 24.5958 64.4933 25.4971 65.025 27.0597C65.5086 28.7729 65.581 30.576 65.2362 32.3224C64.8915 34.0688 64.1393 35.7091 63.0408 37.1099C61.9645 38.3419 60.7779 38.8282 59.7275 38.6207L61.2902 38.9254C62.3406 39.107 63.5271 38.6207 64.6035 37.3952V37.4212Z" fill="white"/>
<path d="M65.401 38.919C65.2309 38.886 65.0669 38.8269 64.9147 38.7439L64.7007 38.6272H64.4608C64.2932 38.653 64.1226 38.653 63.9551 38.6272L62.7944 38.3938C62.6369 38.3624 62.4842 38.3101 62.3405 38.2381L62.1395 38.1344H61.9191C61.7643 38.157 61.607 38.157 61.4522 38.1344H61.3809L60.5899 37.9464V37.9788L59.9415 37.8426C59.6146 37.7836 59.3149 37.6224 59.0856 37.3823L58.6965 36.9867C58.2449 36.5248 57.6639 36.2106 57.0301 36.0855C56.5242 35.9825 56.0005 36.007 55.5064 36.1568L54.2096 36.5329C53.9543 36.605 53.6855 36.6161 53.425 36.5653L34.978 32.9213C34.1675 32.7592 33.4932 32.0005 33.0782 30.7815C32.8684 30.3412 32.8183 29.8415 32.9366 29.3683C33.0549 28.8951 33.3342 28.4777 33.7266 28.1879C34.6474 27.4163 35.9117 27.5979 37.014 27.747C37.4917 27.7945 37.9738 27.7242 38.418 27.5422C38.8623 27.3602 39.2551 27.0721 39.5622 26.7031C40.0378 26.1715 40.6235 25.7499 41.2786 25.4677C41.9336 25.1856 42.6424 25.0495 43.3554 25.0691C44.7559 25.1534 46.0203 25.7175 47.3495 26.1195C47.9984 26.3557 48.6958 26.427 49.379 26.327C50.0875 26.0988 50.7472 25.7403 51.3242 25.2701C52.65 24.3591 54.2724 23.9859 55.863 24.2262C56.5261 24.3159 57.1507 24.59 57.6656 25.0173C58.0669 25.3417 58.5407 25.5642 59.0467 25.6657C59.6795 25.787 60.3342 25.717 60.927 25.4647L61.4393 25.2442C61.7435 25.1132 62.0803 25.0771 62.4054 25.1405L63.0538 25.2766V25.309L63.8578 25.4387H63.9226C64.0784 25.4658 64.2292 25.5161 64.37 25.5879L64.5646 25.6916H64.785C64.9465 25.6719 65.1098 25.6719 65.2713 25.6916L66.4255 25.925C66.5927 25.9577 66.7544 26.0144 66.9053 26.0936L67.1193 26.2103H67.3592C67.5289 26.1843 67.7017 26.1843 67.8714 26.2103C70.1214 26.6512 71.9888 29.1605 72.903 30.613L73.1494 31.0214C73.3599 31.4449 73.6531 31.8219 74.0118 32.1302C74.2394 32.2882 74.4945 32.4025 74.7639 32.4674L75.555 32.636C75.6133 32.636 75.7235 32.7592 75.8143 33.012C75.9283 33.4555 75.9408 33.919 75.851 34.368C75.7612 34.8171 75.5713 35.2401 75.2956 35.6056C75.1205 35.8066 74.9714 35.8715 74.9195 35.8585L74.1803 35.7483C73.9058 35.6997 73.6249 35.6997 73.3504 35.7483C72.9001 35.8952 72.4851 36.1336 72.1314 36.4486L71.7424 36.7274C70.8794 37.3552 69.9511 37.8878 68.9737 38.316C67.8692 38.8675 66.6254 39.0775 65.401 38.919Z" fill="#27DEBF"/>
<path opacity="0.85" d="M65.401 38.919C65.2309 38.886 65.0669 38.8269 64.9147 38.7439L64.7007 38.6272H64.4608C64.2932 38.653 64.1226 38.653 63.9551 38.6272L62.7944 38.3938C62.6369 38.3624 62.4842 38.3101 62.3405 38.2381L62.1395 38.1344H61.9191C61.7643 38.157 61.607 38.157 61.4522 38.1344H61.3809L60.5899 37.9464V37.9788L59.9415 37.8426C59.6146 37.7836 59.3149 37.6224 59.0856 37.3823L58.6965 36.9867C58.2449 36.5248 57.6639 36.2106 57.0301 36.0855C56.5242 35.9825 56.0005 36.007 55.5064 36.1568L54.2096 36.5329C53.9543 36.605 53.6855 36.6161 53.425 36.5653L34.978 32.9213C34.1675 32.7592 33.4932 32.0005 33.0782 30.7815C32.8684 30.3412 32.8183 29.8415 32.9366 29.3683C33.0549 28.8951 33.3342 28.4777 33.7266 28.1879C34.6474 27.4163 35.9117 27.5979 37.014 27.747C37.4917 27.7945 37.9738 27.7242 38.418 27.5422C38.8623 27.3602 39.2551 27.0721 39.5622 26.7031C40.0378 26.1715 40.6235 25.7499 41.2786 25.4677C41.9336 25.1856 42.6424 25.0495 43.3554 25.0691C44.7559 25.1534 46.0203 25.7175 47.3495 26.1195C47.9984 26.3557 48.6958 26.427 49.379 26.327C50.0875 26.0988 50.7472 25.7403 51.3242 25.2701C52.65 24.3591 54.2724 23.9859 55.863 24.2262C56.5261 24.3159 57.1507 24.59 57.6656 25.0173C58.0669 25.3417 58.5407 25.5642 59.0467 25.6657C59.6795 25.787 60.3342 25.717 60.927 25.4647L61.4393 25.2442C61.7435 25.1132 62.0803 25.0771 62.4054 25.1405L63.0538 25.2766V25.309L63.8578 25.4387H63.9226C64.0784 25.4658 64.2292 25.5161 64.37 25.5879L64.5646 25.6916H64.785C64.9465 25.6719 65.1098 25.6719 65.2713 25.6916L66.4255 25.925C66.5927 25.9577 66.7544 26.0144 66.9053 26.0936L67.1193 26.2103H67.3592C67.5289 26.1843 67.7017 26.1843 67.8714 26.2103C70.1214 26.6512 71.9888 29.1605 72.903 30.613L73.1494 31.0214C73.3599 31.4449 73.6531 31.8219 74.0118 32.1302C74.2394 32.2882 74.4945 32.4025 74.7639 32.4674L75.555 32.636C75.6133 32.636 75.7235 32.7592 75.8143 33.012C75.9283 33.4555 75.9408 33.919 75.851 34.368C75.7612 34.8171 75.5713 35.2401 75.2956 35.6056C75.1205 35.8066 74.9714 35.8715 74.9195 35.8585L74.1803 35.7483C73.9058 35.6997 73.6249 35.6997 73.3504 35.7483C72.9001 35.8952 72.4851 36.1336 72.1314 36.4486L71.7424 36.7274C70.8794 37.3552 69.9511 37.8878 68.9737 38.316C67.8692 38.8675 66.6254 39.0775 65.401 38.919Z" fill="white"/>
<path d="M70.5493 28.1231C70.4748 27.9023 70.3882 27.6859 70.2899 27.4747C69.7206 26.9748 69.0601 26.5895 68.3447 26.34C68.6742 26.7895 68.9303 27.2885 69.1033 27.8183C69.5845 29.5321 69.6551 31.3352 69.3092 33.0814C68.9634 34.8275 68.2109 36.4676 67.1127 37.8685C66.753 38.2934 66.3285 38.6589 65.8548 38.9514C66.6114 38.9913 67.3686 38.8857 68.0853 38.6401C68.2409 38.491 68.4031 38.3354 68.5587 38.1538C69.6538 36.7551 70.4045 35.1183 70.7503 33.3759C71.0961 31.6334 71.0273 29.834 70.5493 28.1231ZM65.0249 27.0338C64.8555 26.5121 64.6061 26.02 64.2857 25.5749C64.1581 25.5153 64.0228 25.4739 63.8837 25.4517L63.0732 25.322V25.2896L62.4248 25.1599C62.1025 25.0942 61.7678 25.1281 61.4652 25.2572L60.9529 25.4776C60.39 25.7217 59.7687 25.7982 59.1634 25.6981C59.2736 25.9206 59.3689 26.1502 59.4487 26.3854C59.8911 27.9491 59.9578 29.5952 59.6435 31.1896C59.3291 32.7839 58.6425 34.2815 57.6396 35.5602C57.4739 35.7466 57.2963 35.922 57.1079 36.0854C57.706 36.2242 58.2524 36.5301 58.6835 36.9673L59.0726 37.3628C59.3021 37.5993 59.5985 37.76 59.922 37.8231L60.5704 37.9528L61.3679 38.1409C61.5064 38.1702 61.6479 38.1832 61.7894 38.1798C62.2553 37.8897 62.6731 37.5288 63.0278 37.1099C64.1325 35.7073 64.8894 34.063 65.2365 32.3117C65.5836 30.5603 65.5111 28.7517 65.0249 27.0338ZM67.9427 27.6108C67.7933 27.124 67.575 26.6611 67.2943 26.2362H67.1841L66.9701 26.1195C66.8198 26.0376 66.6581 25.9786 66.4903 25.9445L65.8419 25.8148C66.1839 26.2723 66.4489 26.7826 66.6264 27.3256C67.1101 29.0397 67.1826 30.8439 66.8378 32.5913C66.493 34.3388 65.7408 35.9802 64.6423 37.3822C64.27 37.8148 63.8324 38.1867 63.3455 38.4845L63.9939 38.6077C64.1637 38.6339 64.3364 38.6339 64.5062 38.6077H64.7461L64.8433 38.6596C65.2753 38.3805 65.6642 38.0398 65.9975 37.6481C67.0873 36.2454 67.8313 34.6057 68.1692 32.8619C68.5072 31.118 68.4296 29.3191 67.9427 27.6108Z" fill="#27DEBF"/>
<path opacity="0.7" d="M70.5493 28.1231C70.4748 27.9023 70.3882 27.6859 70.2899 27.4747C69.7206 26.9748 69.0601 26.5895 68.3447 26.34C68.6742 26.7895 68.9303 27.2885 69.1033 27.8183C69.5845 29.5321 69.6551 31.3352 69.3092 33.0814C68.9634 34.8275 68.2109 36.4676 67.1127 37.8685C66.753 38.2934 66.3285 38.6589 65.8548 38.9514C66.6114 38.9913 67.3686 38.8857 68.0853 38.6401C68.2409 38.491 68.4031 38.3354 68.5587 38.1538C69.6538 36.7551 70.4045 35.1183 70.7503 33.3759C71.0961 31.6334 71.0273 29.834 70.5493 28.1231ZM65.0249 27.0338C64.8555 26.5121 64.6061 26.02 64.2857 25.5749C64.1581 25.5153 64.0228 25.4739 63.8837 25.4517L63.0732 25.322V25.2896L62.4248 25.1599C62.1025 25.0942 61.7678 25.1281 61.4652 25.2572L60.9529 25.4776C60.39 25.7217 59.7687 25.7982 59.1634 25.6981C59.2736 25.9206 59.3689 26.1502 59.4487 26.3854C59.8911 27.9491 59.9578 29.5952 59.6435 31.1896C59.3291 32.7839 58.6425 34.2815 57.6396 35.5602C57.4739 35.7466 57.2963 35.922 57.1079 36.0854C57.706 36.2242 58.2524 36.5301 58.6835 36.9673L59.0726 37.3628C59.3021 37.5993 59.5985 37.76 59.922 37.8231L60.5704 37.9528L61.3679 38.1409C61.5064 38.1702 61.6479 38.1832 61.7894 38.1798C62.2553 37.8897 62.6731 37.5288 63.0278 37.1099C64.1325 35.7073 64.8894 34.063 65.2365 32.3117C65.5836 30.5603 65.5111 28.7517 65.0249 27.0338ZM67.9427 27.6108C67.7933 27.124 67.575 26.6611 67.2943 26.2362H67.1841L66.9701 26.1195C66.8198 26.0376 66.6581 25.9786 66.4903 25.9445L65.8419 25.8148C66.1839 26.2723 66.4489 26.7826 66.6264 27.3256C67.1101 29.0397 67.1826 30.8439 66.8378 32.5913C66.493 34.3388 65.7408 35.9802 64.6423 37.3822C64.27 37.8148 63.8324 38.1867 63.3455 38.4845L63.9939 38.6077C64.1637 38.6339 64.3364 38.6339 64.5062 38.6077H64.7461L64.8433 38.6596C65.2753 38.3805 65.6642 38.0398 65.9975 37.6481C67.0873 36.2454 67.8313 34.6057 68.1692 32.8619C68.5072 31.118 68.4296 29.3191 67.9427 27.6108Z" fill="white"/>
<g opacity="0.05">
<path opacity="0.05" d="M75.9181 36.1568C75.7918 36.3381 75.6176 36.4808 75.4149 36.569C75.2123 36.6571 74.9891 36.6873 74.7704 36.656C74.3656 36.5322 73.9401 36.4903 73.519 36.5328C73.0285 36.7441 72.5752 37.0331 72.1768 37.3887C71.2655 38.0471 70.2875 38.6078 69.259 39.0616C68.0123 39.6625 66.6178 39.8878 65.2454 39.71C65.1178 39.6814 64.9922 39.6446 64.8693 39.5998C64.7589 39.5577 64.6507 39.5101 64.5451 39.4571C64.42 39.4668 64.2942 39.4668 64.169 39.4571C64.045 39.4538 63.9214 39.4408 63.7995 39.4182L62.6453 39.1848C62.4811 39.15 62.3205 39.1001 62.1655 39.0357L61.9904 38.9578C61.7275 38.9671 61.4649 38.9342 61.2123 38.8606L59.7729 38.5753C59.4159 38.5064 59.079 38.3579 58.7873 38.1409C58.6885 38.0657 58.5953 37.9834 58.5085 37.8945L58.1195 37.4989C57.9464 37.3227 57.7475 37.174 57.5294 37.058C57.3269 36.9453 57.1082 36.8644 56.881 36.8181C56.5 36.7414 56.1059 36.7592 55.7333 36.87L54.4365 37.2461C54.3472 37.2717 54.2562 37.2912 54.1642 37.3044H53.9632H53.7492H53.5353H53.3278L34.8224 33.6734H34.7835C34.7172 33.6622 34.6521 33.6448 34.589 33.6215C34.2296 33.5085 33.8981 33.3206 33.6164 33.0704C33.523 32.9867 33.4343 32.898 33.3506 32.8045L33.3116 32.7591C33.2253 32.6668 33.1472 32.567 33.0782 32.4609C33.061 32.4408 33.0458 32.4191 33.0328 32.396C32.9527 32.2872 32.8812 32.1723 32.8189 32.0524L32.7735 31.9811C32.7087 31.8579 32.6503 31.7282 32.5854 31.592C32.5854 31.592 32.5854 31.5402 32.5854 31.5142C32.5258 31.3811 32.4738 31.2448 32.4298 31.1057V31.0603C32.3715 30.8853 32.3131 30.6972 32.2677 30.5092C32.2647 30.479 32.2647 30.4486 32.2677 30.4184C32.1718 30.0302 32.1025 29.636 32.0602 29.2383C32.0634 29.206 32.0634 29.1734 32.0602 29.1411C32.0602 28.9465 32.0278 28.7455 32.0213 28.5445C32.0213 28.3306 32.0213 28.1231 32.0213 27.8961C32.0181 27.8616 32.0181 27.8269 32.0213 27.7924C32.0213 27.6044 32.0214 27.4163 32.0538 27.2218V27.1505C32.0538 26.943 32.0927 26.7355 32.1186 26.5021V26.3854C32.1186 26.2038 32.177 26.0288 32.2094 25.8537V25.737C32.2483 25.5338 32.2937 25.3328 32.3455 25.134C32.3485 25.0929 32.3485 25.0518 32.3455 25.0108C32.3909 24.8487 32.4363 24.6801 32.4882 24.5245C32.4994 24.4758 32.5146 24.428 32.5336 24.3818C32.592 24.2003 32.6503 24.0187 32.7151 23.8436L32.7929 23.6491L32.9485 23.286L33.0264 23.1045C33.1042 22.9359 33.182 22.7738 33.2663 22.6182C33.2875 22.5715 33.3113 22.526 33.3376 22.482C33.4219 22.3329 33.5062 22.1837 33.5905 22.0476L33.6294 21.9827C33.7331 21.8206 33.8369 21.665 33.9471 21.5094L34.0054 21.4316C34.1222 21.276 34.2389 21.1268 34.3621 20.9842C35.4255 19.7717 36.5926 19.2854 37.6365 19.4734C38.6804 19.6615 39.5817 20.5887 40.081 22.1124C40.8154 24.7094 40.604 27.4829 39.4844 29.9386C39.4326 30.0553 39.3742 30.172 39.3158 30.2952C39.2575 30.4184 39.2316 30.4703 39.1862 30.5546L39.0111 30.8788L54.067 33.829C54.448 33.906 54.8421 33.8882 55.2146 33.7771L56.5114 33.4075C56.8862 33.2976 57.2817 33.2776 57.6656 33.3492C58.084 33.4331 58.473 33.6254 58.7938 33.9068L58.93 34.03L59.319 34.432C59.6596 34.7812 60.0983 35.0187 60.5769 35.1128L62.0163 35.3981C62.2725 35.4631 62.538 35.4829 62.8009 35.4565C63.0053 35.5637 63.2235 35.6422 63.4493 35.6899L64.6035 35.9169C65.1032 35.8626 65.6077 35.9621 66.0494 36.2021C68.7273 36.7338 71.6386 35.4046 72.8576 34.5358C73.2508 34.181 73.6971 33.89 74.1803 33.6734C75.053 33.7418 75.9197 33.8718 76.7739 34.0624C76.7096 34.8317 76.4108 35.5626 75.9181 36.1568Z" fill="black"/>
<path opacity="0.05" d="M43.4267 22.7673C43.9073 24.4807 43.9781 26.2832 43.6334 28.029C43.2887 29.7749 42.5383 31.4152 41.4426 32.8175C40.3663 34.043 40.269 34.7627 39.2186 34.5422L48.6334 36.4032C49.6838 36.6107 50.8704 36.1243 51.9467 34.8924C53.0449 33.4914 53.7973 31.8513 54.1432 30.1052C54.489 28.359 54.4185 26.556 53.9373 24.8422C53.4056 23.299 52.4914 22.3977 51.4475 22.1902L40.9369 20.1089C41.9873 20.3163 42.9015 21.2176 43.4267 22.7673Z" fill="black"/>
</g>
<path d="M44.3531 22.9424C44.8336 24.6558 44.9044 26.4583 44.5597 28.2041C44.2151 29.95 43.4646 31.5903 42.369 32.9926C41.2926 34.2245 40.1061 34.7108 39.0557 34.5033L49.5662 36.5782C50.6166 36.7857 51.8032 36.2994 52.8731 35.0739C53.9707 33.6727 54.723 32.0326 55.0688 30.2866C55.4146 28.5405 55.3444 26.7376 54.8637 25.0237C54.332 23.4741 53.4242 22.5728 52.3738 22.3653L41.8632 20.2904C42.8942 20.4979 43.8084 21.3992 44.3531 22.9424Z" fill="#27DEBF"/>
<path d="M46.299 35.9428C46.5223 35.2631 46.8894 34.6394 47.3754 34.1143C47.8228 33.628 48.3415 33.1417 48.8797 32.6295C49.8356 31.7991 50.7046 30.8736 51.4733 29.8673C52.4194 28.4928 52.8448 26.8261 52.6728 25.1664C52.6136 24.1157 52.2658 23.1016 51.6678 22.2356L51.2852 22.1578C51.9467 23.035 52.3326 24.0889 52.394 25.1858C52.5675 26.7874 52.1603 28.398 51.2463 29.7246C50.4931 30.7158 49.6416 31.6282 48.7046 32.4479C48.16 32.9602 47.6412 33.4465 47.1874 33.9392C46.6701 34.4981 46.2787 35.1614 46.0397 35.8844L46.299 35.9428Z" fill="#FAFAFA"/>
<path d="M44.8531 23.0461C45.3368 24.7593 45.4092 26.5624 45.0644 28.3088C44.7196 30.0552 43.9674 31.6955 42.869 33.0963C41.7927 34.3283 40.6061 34.8146 39.5557 34.6071L44.5159 35.5862C44.7433 34.8704 45.1314 34.2161 45.6506 33.6734C46.8826 32.3377 48.6528 30.9761 49.7226 29.4394C50.6465 28.0921 51.0624 26.4608 50.8962 24.8357C50.8334 23.7604 50.4645 22.7255 49.8328 21.8531L42.3827 20.3812C43.4137 20.6017 44.3539 21.5029 44.8531 23.0461Z" fill="#FAFAFA"/>
<path opacity="0.1" d="M42.9727 32.1756C42.7763 32.463 42.5596 32.736 42.3243 32.9926C41.248 34.2245 40.0614 34.7108 39.011 34.5034L49.5215 36.5782C50.5719 36.7857 51.7585 36.2994 52.8284 35.0739C53.0642 34.8156 53.2809 34.5403 53.4768 34.2505L42.9727 32.1756Z" fill="black"/>
<path d="M64.3894 36.3383C63.2443 36.312 62.1168 36.6232 61.1474 37.2331C60.5134 37.7421 59.7233 38.0169 58.9104 38.0112C58.5636 37.9597 58.2417 37.801 57.9896 37.5573L57.3218 45.0399C58.4694 43.555 60.7453 42.738 61.7828 41.331C62.8202 39.924 65.2322 38.1798 65.6148 37.7324C66.4318 36.7598 65.0637 36.3513 64.3894 36.3383Z" fill="#FFA8A7"/>
</g>
<g filter="url(#filter0_b_136:22357)">
<rect x="13" y="77" width="141" height="77" rx="10" fill="black" fill-opacity="0.8"/>
</g>
<path d="M28.0405 115.324C28.6565 115.473 29.1091 115.725 29.3985 116.08C29.6971 116.425 29.8465 116.883 29.8465 117.452C29.8465 119.197 28.4791 120.07 25.7445 120.07C24.9418 120.07 24.1205 120.047 23.2805 120L23.3785 117.312L23.2805 110.984L26.4865 110.97C27.4105 110.97 28.1291 111.166 28.6425 111.558C29.1558 111.941 29.4125 112.496 29.4125 113.224C29.4125 113.709 29.2911 114.134 29.0485 114.498C28.8151 114.862 28.4791 115.137 28.0405 115.324ZM27.4665 113.476C27.4665 113.065 27.3451 112.776 27.1025 112.608C26.8598 112.431 26.4351 112.342 25.8285 112.342H25.1425L25.1005 114.792L26.4165 114.834C26.7711 114.741 27.0325 114.587 27.2005 114.372C27.3778 114.157 27.4665 113.859 27.4665 113.476ZM26.0665 118.712C26.6545 118.712 27.1071 118.595 27.4245 118.362C27.7511 118.129 27.9145 117.793 27.9145 117.354C27.9145 116.691 27.4851 116.281 26.6265 116.122L25.0725 116.15L25.0585 117.144L25.1005 118.656C25.4271 118.693 25.7491 118.712 26.0665 118.712ZM36.1079 116.976L32.3279 117.004C32.4119 118.171 33.0045 118.754 34.1059 118.754C34.6845 118.754 35.3285 118.591 36.0379 118.264L36.1919 118.362L35.9119 119.748C35.2025 120.009 34.5352 120.14 33.9099 120.14C32.8832 120.14 32.0759 119.841 31.4879 119.244C30.9092 118.647 30.6199 117.821 30.6199 116.766C30.6199 115.721 30.9045 114.895 31.4739 114.288C32.0432 113.672 32.8132 113.364 33.7839 113.364C34.6145 113.364 35.2539 113.593 35.7019 114.05C36.1592 114.498 36.3879 115.128 36.3879 115.94C36.3879 116.155 36.3645 116.425 36.3179 116.752L36.1079 116.976ZM34.7639 115.73C34.7639 115.357 34.6799 115.077 34.5119 114.89C34.3439 114.694 34.0965 114.596 33.7699 114.596C33.4059 114.596 33.1025 114.717 32.8599 114.96C32.6172 115.193 32.4539 115.534 32.3699 115.982L34.7359 115.926L34.7639 115.73ZM41.1307 113.406C41.952 113.406 42.5774 113.686 43.0067 114.246C43.4454 114.797 43.6647 115.567 43.6647 116.556C43.6647 117.704 43.38 118.591 42.8107 119.216C42.2414 119.832 41.4527 120.14 40.4447 120.14C39.9687 120.14 39.446 120.033 38.8767 119.818L37.8967 120.168L37.6727 119.986L37.7707 117.326L37.6867 110.312L39.5347 110.172L39.4787 114.414H39.5627C39.824 114.162 40.076 113.961 40.3187 113.812C40.5614 113.653 40.832 113.518 41.1307 113.406ZM40.4447 118.922C40.9114 118.922 41.2754 118.754 41.5367 118.418C41.798 118.082 41.9287 117.569 41.9287 116.878C41.9287 116.234 41.8214 115.744 41.6067 115.408C41.4014 115.072 41.0887 114.904 40.6687 114.904C40.286 114.904 39.8847 115.1 39.4647 115.492L39.4367 117.088L39.4647 118.67C39.81 118.838 40.1367 118.922 40.4447 118.922ZM49.9848 116.976L46.2048 117.004C46.2888 118.171 46.8815 118.754 47.9828 118.754C48.5615 118.754 49.2055 118.591 49.9148 118.264L50.0688 118.362L49.7888 119.748C49.0795 120.009 48.4122 120.14 47.7868 120.14C46.7602 120.14 45.9528 119.841 45.3648 119.244C44.7862 118.647 44.4968 117.821 44.4968 116.766C44.4968 115.721 44.7815 114.895 45.3508 114.288C45.9202 113.672 46.6902 113.364 47.6608 113.364C48.4915 113.364 49.1308 113.593 49.5788 114.05C50.0362 114.498 50.2648 115.128 50.2648 115.94C50.2648 116.155 50.2415 116.425 50.1948 116.752L49.9848 116.976ZM48.6408 115.73C48.6408 115.357 48.5568 115.077 48.3888 114.89C48.2208 114.694 47.9735 114.596 47.6468 114.596C47.2828 114.596 46.9795 114.717 46.7368 114.96C46.4942 115.193 46.3308 115.534 46.2468 115.982L48.6128 115.926L48.6408 115.73ZM55.1463 113.476C55.2303 113.476 55.347 113.485 55.4963 113.504V115.226L55.3003 115.296C55.1417 115.231 54.969 115.198 54.7823 115.198C54.241 115.198 53.751 115.548 53.3123 116.248V117.13L53.4103 120H51.5483L51.6603 117.312L51.5763 113.616L53.3403 113.462L53.3263 114.736H53.4383C53.8957 113.896 54.465 113.476 55.1463 113.476ZM61.0687 112.846C61.7127 112.846 62.24 113 62.6507 113.308C63.0613 113.607 63.2667 114.022 63.2667 114.554C63.2667 114.927 63.1407 115.343 62.8887 115.8C62.646 116.248 62.2493 116.766 61.6987 117.354L60.6487 118.516L60.6767 118.572H62.5667L63.8267 118.46L63.9387 118.586L63.7147 120.084L62.0207 120H58.8427L58.3247 120.028L58.2267 119.958V118.824L60.1167 116.962C60.5647 116.505 60.896 116.127 61.1107 115.828C61.3253 115.529 61.4327 115.268 61.4327 115.044C61.4327 114.857 61.3627 114.708 61.2227 114.596C61.0827 114.484 60.8867 114.428 60.6347 114.428C60.336 114.428 60.0233 114.503 59.6967 114.652C59.37 114.801 59.0667 115.002 58.7867 115.254H58.5767L58.2687 113.812C59.23 113.168 60.1633 112.846 61.0687 112.846ZM69.0636 117.13L69.1616 120H67.2996L67.3976 117.298L67.3136 110.312L69.1756 110.172L69.0636 117.13ZM71.0474 117.312L70.9774 113.616L72.8114 113.462L72.7274 117.13L72.8114 120H70.9494L71.0474 117.312ZM71.9294 110.298C72.2187 110.298 72.4427 110.382 72.6014 110.55C72.7694 110.718 72.8534 110.951 72.8534 111.25C72.8534 111.567 72.7647 111.819 72.5874 112.006C72.41 112.193 72.1674 112.286 71.8594 112.286C71.5514 112.286 71.3134 112.202 71.1454 112.034C70.9867 111.866 70.9074 111.628 70.9074 111.32C70.9074 111.012 70.996 110.765 71.1734 110.578C71.36 110.391 71.612 110.298 71.9294 110.298ZM77.2038 118.628C77.5024 118.628 77.8151 118.549 78.1418 118.39L78.2958 118.53L78.1138 119.636C77.6378 119.879 77.1524 120.028 76.6578 120.084C75.3978 119.953 74.7678 119.337 74.7678 118.236L74.8378 117.074L74.8238 114.666H73.9558L73.8858 114.568L73.9838 113.546H74.8098V112.468L76.5038 111.922L76.6298 112.034L76.5878 113.546H78.2538L78.3098 113.644L78.2258 114.666H76.5598L76.4758 117.802C76.4758 118.101 76.5318 118.315 76.6438 118.446C76.7558 118.567 76.9424 118.628 77.2038 118.628ZM82.9002 113.476C82.9842 113.476 83.1009 113.485 83.2502 113.504V115.226L83.0542 115.296C82.8956 115.231 82.7229 115.198 82.5362 115.198C81.9949 115.198 81.5049 115.548 81.0662 116.248V117.13L81.1642 120H79.3022L79.4142 117.312L79.3302 113.616L81.0942 113.462L81.0802 114.736H81.1922C81.6496 113.896 82.2189 113.476 82.9002 113.476ZM86.8714 113.364C87.8234 113.364 88.5514 113.644 89.0554 114.204C89.5594 114.764 89.8114 115.571 89.8114 116.626C89.8114 117.765 89.5408 118.637 88.9994 119.244C88.4581 119.841 87.6788 120.14 86.6614 120.14C85.7094 120.14 84.9814 119.86 84.4774 119.3C83.9734 118.74 83.7214 117.933 83.7214 116.878C83.7214 115.739 83.9921 114.871 84.5334 114.274C85.0748 113.667 85.8541 113.364 86.8714 113.364ZM86.7454 114.624C86.2974 114.624 85.9708 114.773 85.7654 115.072C85.5694 115.371 85.4714 115.851 85.4714 116.514C85.4714 117.373 85.5741 117.984 85.7794 118.348C85.9848 118.712 86.3208 118.894 86.7874 118.894C87.2354 118.894 87.5574 118.749 87.7534 118.46C87.9588 118.161 88.0614 117.676 88.0614 117.004C88.0614 116.155 87.9541 115.548 87.7394 115.184C87.5341 114.811 87.2028 114.624 86.7454 114.624ZM93.2714 113.378C93.9061 113.378 94.5034 113.485 95.0634 113.7L94.8114 115.072L94.5874 115.142C94.3167 114.965 94.0461 114.829 93.7754 114.736C93.5047 114.643 93.2667 114.596 93.0614 114.596C92.8374 114.596 92.6601 114.657 92.5294 114.778C92.3987 114.89 92.3334 115.03 92.3334 115.198C92.3334 115.394 92.4174 115.553 92.5854 115.674C92.7627 115.795 93.0381 115.931 93.4114 116.08C93.7847 116.229 94.0927 116.374 94.3354 116.514C94.5781 116.654 94.7834 116.85 94.9514 117.102C95.1287 117.345 95.2174 117.648 95.2174 118.012C95.2174 118.385 95.1194 118.735 94.9234 119.062C94.7367 119.379 94.4474 119.641 94.0554 119.846C93.6634 120.042 93.1827 120.14 92.6134 120.14C91.9414 120.14 91.2461 120 90.5274 119.72L90.7374 118.264L90.9194 118.152C91.2087 118.395 91.5307 118.591 91.8854 118.74C92.2401 118.88 92.5527 118.95 92.8234 118.95C93.0754 118.95 93.2714 118.889 93.4114 118.768C93.5514 118.637 93.6214 118.483 93.6214 118.306C93.6214 118.11 93.5327 117.951 93.3554 117.83C93.1874 117.709 92.9167 117.573 92.5434 117.424C92.1607 117.256 91.8481 117.107 91.6054 116.976C91.3627 116.836 91.1527 116.64 90.9754 116.388C90.8074 116.136 90.7234 115.823 90.7234 115.45C90.7234 114.843 90.9521 114.349 91.4094 113.966C91.8667 113.574 92.4874 113.378 93.2714 113.378ZM104.012 117.13L104.054 118.306C104.054 118.465 104.072 118.577 104.11 118.642C104.156 118.698 104.236 118.726 104.348 118.726C104.45 118.726 104.576 118.707 104.726 118.67L104.852 118.782L104.698 119.762C104.38 119.958 104.035 120.075 103.662 120.112C103.372 120.084 103.13 119.986 102.934 119.818C102.738 119.65 102.602 119.421 102.528 119.132H102.416C101.958 119.552 101.492 119.874 101.016 120.098C100.101 120.098 99.3916 119.809 98.8876 119.23C98.3836 118.642 98.1316 117.83 98.1316 116.794C98.1316 115.693 98.4209 114.848 98.9996 114.26C99.5783 113.672 100.381 113.378 101.408 113.378C101.678 113.378 101.977 113.406 102.304 113.462L102.276 110.312L104.124 110.172L104.012 117.13ZM101.282 114.638C100.348 114.638 99.8816 115.231 99.8816 116.416C99.8816 117.153 99.9936 117.709 100.218 118.082C100.442 118.455 100.768 118.642 101.198 118.642C101.608 118.642 101.986 118.451 102.332 118.068L102.36 117.298L102.318 114.89C101.954 114.722 101.608 114.638 101.282 114.638ZM110.989 116.976L107.209 117.004C107.293 118.171 107.885 118.754 108.987 118.754C109.565 118.754 110.209 118.591 110.919 118.264L111.073 118.362L110.793 119.748C110.083 120.009 109.416 120.14 108.791 120.14C107.764 120.14 106.957 119.841 106.369 119.244C105.79 118.647 105.501 117.821 105.501 116.766C105.501 115.721 105.785 114.895 106.355 114.288C106.924 113.672 107.694 113.364 108.665 113.364C109.495 113.364 110.135 113.593 110.583 114.05C111.04 114.498 111.269 115.128 111.269 115.94C111.269 116.155 111.245 116.425 111.199 116.752L110.989 116.976ZM109.645 115.73C109.645 115.357 109.561 115.077 109.393 114.89C109.225 114.694 108.977 114.596 108.651 114.596C108.287 114.596 107.983 114.717 107.741 114.96C107.498 115.193 107.335 115.534 107.251 115.982L109.617 115.926L109.645 115.73ZM117.233 113.364C117.952 113.364 118.512 113.527 118.913 113.854C119.324 114.171 119.529 114.619 119.529 115.198C119.529 115.366 119.501 115.898 119.445 116.794C119.436 117.055 119.422 117.326 119.403 117.606C119.385 117.877 119.375 118.11 119.375 118.306C119.375 118.465 119.399 118.577 119.445 118.642C119.492 118.698 119.576 118.726 119.697 118.726C119.791 118.726 119.912 118.707 120.061 118.67L120.201 118.782L120.033 119.762C119.735 119.958 119.394 120.075 119.011 120.112C118.731 120.084 118.498 119.986 118.311 119.818C118.125 119.641 117.999 119.398 117.933 119.09H117.835C117.369 119.585 116.888 119.93 116.393 120.126C115.721 120.117 115.194 119.939 114.811 119.594C114.429 119.249 114.237 118.777 114.237 118.18C114.237 117.713 114.354 117.349 114.587 117.088C114.83 116.817 115.194 116.635 115.679 116.542L117.821 116.136V115.562C117.821 114.955 117.523 114.652 116.925 114.652C116.636 114.652 116.328 114.717 116.001 114.848C115.684 114.979 115.325 115.184 114.923 115.464L114.783 115.38L114.573 114.148C114.975 113.896 115.404 113.705 115.861 113.574C116.319 113.434 116.776 113.364 117.233 113.364ZM116.323 117.396C116.174 117.433 116.062 117.499 115.987 117.592C115.922 117.676 115.889 117.807 115.889 117.984C115.889 118.227 115.955 118.418 116.085 118.558C116.216 118.689 116.398 118.754 116.631 118.754C116.995 118.754 117.378 118.539 117.779 118.11L117.807 117.074L116.323 117.396ZM118.451 109.878L119.123 110.886L119.095 111.068C118.89 111.199 118.736 111.292 118.633 111.348C117.467 112.067 116.711 112.524 116.365 112.72L116.183 112.706L115.735 112.006C116.818 111.138 117.663 110.424 118.269 109.864L118.451 109.878ZM127.67 114.372C127.418 114.437 127.058 114.507 126.592 114.582L126.564 114.638C126.704 114.918 126.774 115.231 126.774 115.576C126.774 116.276 126.517 116.836 126.004 117.256C125.5 117.667 124.814 117.872 123.946 117.872C123.684 117.872 123.414 117.849 123.134 117.802C123.05 117.886 122.994 117.951 122.966 117.998C122.938 118.045 122.924 118.101 122.924 118.166C122.924 118.334 123.036 118.451 123.26 118.516C123.484 118.581 123.838 118.647 124.324 118.712C124.874 118.777 125.332 118.857 125.696 118.95C126.069 119.043 126.386 119.207 126.648 119.44C126.918 119.673 127.054 120.005 127.054 120.434C127.054 120.873 126.914 121.265 126.634 121.61C126.363 121.965 125.985 122.24 125.5 122.436C125.014 122.632 124.464 122.73 123.848 122.73C122.998 122.73 122.345 122.557 121.888 122.212C121.43 121.867 121.202 121.409 121.202 120.84C121.491 120.439 121.878 120.089 122.364 119.79V119.72C122.046 119.608 121.799 119.454 121.622 119.258C121.444 119.053 121.356 118.782 121.356 118.446C121.608 118.138 121.925 117.853 122.308 117.592V117.522C121.972 117.335 121.715 117.093 121.538 116.794C121.37 116.486 121.286 116.127 121.286 115.716C121.286 114.988 121.538 114.419 122.042 114.008C122.546 113.597 123.232 113.392 124.1 113.392C124.604 113.392 125.061 113.476 125.472 113.644C126.144 113.523 126.83 113.336 127.53 113.084L127.67 113.21V114.372ZM124.002 116.752C124.384 116.752 124.674 116.654 124.87 116.458C125.066 116.262 125.164 115.977 125.164 115.604C125.164 114.895 124.8 114.54 124.072 114.54C123.288 114.54 122.896 114.899 122.896 115.618C122.896 115.991 122.989 116.276 123.176 116.472C123.362 116.659 123.638 116.752 124.002 116.752ZM125.486 120.77C125.486 120.518 125.35 120.345 125.08 120.252C124.818 120.159 124.412 120.079 123.862 120.014L123.386 119.944C123.162 120.093 122.994 120.238 122.882 120.378C122.77 120.518 122.714 120.667 122.714 120.826C122.714 121.069 122.826 121.265 123.05 121.414C123.274 121.563 123.6 121.638 124.03 121.638C124.468 121.638 124.818 121.559 125.08 121.4C125.35 121.251 125.486 121.041 125.486 120.77ZM134.628 118.782L134.46 119.762C134.114 119.986 133.76 120.103 133.396 120.112C133.125 120.065 132.901 119.958 132.724 119.79C132.546 119.622 132.411 119.379 132.318 119.062H132.192C131.66 119.585 131.109 119.925 130.54 120.084C129.83 120.084 129.289 119.925 128.916 119.608C128.552 119.281 128.374 118.815 128.384 118.208L128.412 116.556L128.342 113.616L130.148 113.462L130.106 117.592C130.096 117.919 130.162 118.166 130.302 118.334C130.442 118.502 130.652 118.586 130.932 118.586C131.342 118.586 131.748 118.404 132.15 118.04V113.616L133.928 113.462L133.802 118.306C133.802 118.455 133.825 118.563 133.872 118.628C133.928 118.693 134.012 118.726 134.124 118.726C134.226 118.726 134.352 118.707 134.502 118.67L134.628 118.782ZM138.288 113.364C139.007 113.364 139.567 113.527 139.968 113.854C140.379 114.171 140.584 114.619 140.584 115.198C140.584 115.366 140.556 115.898 140.5 116.794C140.491 117.055 140.477 117.326 140.458 117.606C140.439 117.877 140.43 118.11 140.43 118.306C140.43 118.465 140.453 118.577 140.5 118.642C140.547 118.698 140.631 118.726 140.752 118.726C140.845 118.726 140.967 118.707 141.116 118.67L141.256 118.782L141.088 119.762C140.789 119.958 140.449 120.075 140.066 120.112C139.786 120.084 139.553 119.986 139.366 119.818C139.179 119.641 139.053 119.398 138.988 119.09H138.89C138.423 119.585 137.943 119.93 137.448 120.126C136.776 120.117 136.249 119.939 135.866 119.594C135.483 119.249 135.292 118.777 135.292 118.18C135.292 117.713 135.409 117.349 135.642 117.088C135.885 116.817 136.249 116.635 136.734 116.542L138.876 116.136V115.562C138.876 114.955 138.577 114.652 137.98 114.652C137.691 114.652 137.383 114.717 137.056 114.848C136.739 114.979 136.379 115.184 135.978 115.464L135.838 115.38L135.628 114.148C136.029 113.896 136.459 113.705 136.916 113.574C137.373 113.434 137.831 113.364 138.288 113.364ZM137.378 117.396C137.229 117.433 137.117 117.499 137.042 117.592C136.977 117.676 136.944 117.807 136.944 117.984C136.944 118.227 137.009 118.418 137.14 118.558C137.271 118.689 137.453 118.754 137.686 118.754C138.05 118.754 138.433 118.539 138.834 118.11L138.862 117.074L137.378 117.396ZM143.25 118.11C143.54 118.11 143.764 118.194 143.922 118.362C144.09 118.53 144.174 118.763 144.174 119.062C144.174 119.379 144.086 119.631 143.908 119.818C143.731 120.005 143.488 120.098 143.18 120.098C142.872 120.098 142.634 120.014 142.466 119.846C142.308 119.678 142.228 119.44 142.228 119.132C142.228 118.824 142.317 118.577 142.494 118.39C142.681 118.203 142.933 118.11 143.25 118.11Z" fill="white"/>
<defs>
<filter id="filter0_b_136:22357" x="3" y="67" width="161" height="97" filterUnits="userSpaceOnUse" color-interpolation-filters="sRGB">
<feFlood flood-opacity="0" result="BackgroundImageFix"/>
<feGaussianBlur in="BackgroundImage" stdDeviation="5"/>
<feComposite in2="SourceAlpha" operator="in" result="effect1_backgroundBlur_136:22357"/>
<feBlend mode="normal" in="SourceGraphic" in2="effect1_backgroundBlur_136:22357" result="shape"/>
</filter>
</defs>
</svg>
