<svg width="167" height="167" viewBox="0 0 167 167" fill="none" xmlns="http://www.w3.org/2000/svg">
<mask id="mask0_136:22511" style="mask-type:alpha" maskUnits="userSpaceOnUse" x="0" y="0" width="167" height="167">
<rect x="1" y="1" width="165" height="165" rx="8" fill="#5988D6" stroke="#EDE6FC" stroke-opacity="0.3"/>
</mask>
<g mask="url(#mask0_136:22511)">
<rect x="1" y="1" width="165" height="165" rx="8" fill="#A97AD9" stroke="#EDE6FC" stroke-opacity="0.3"/>
<path d="M109.383 12.2176C107.919 11.9593 106.415 12.0385 104.988 12.449C103.561 12.8594 102.25 13.5899 101.161 14.5826C97.614 17.9241 98.7496 22.0974 99.4575 24.3178C100.165 26.5382 100.195 27.3772 99.7377 28.0787C99.2805 28.7803 97.1863 30.9718 96.9061 31.695C96.6259 32.4183 102.717 35.5862 102.717 35.5862L107.547 32.8378C107.547 32.8378 111.802 35.3403 112.229 35.1956C112.657 35.051 114.073 32.8378 115.349 27.6882C116.624 22.5385 116.337 18.6474 114.611 15.7254C112.886 12.8034 109.383 12.2176 109.383 12.2176Z" fill="#F6BA99"/>
<path d="M106.475 23.8006C106.475 23.8006 105.646 21.6624 104.237 23.512C102.827 25.3617 103.283 26.7896 103.922 27.0707L104.56 27.3593C104.404 28.4363 104.627 29.5299 105.198 30.4889C105.835 31.5701 106.639 32.5663 107.586 33.4483" stroke="#393762" stroke-width="0.5" stroke-miterlimit="10"/>
<path d="M115.069 18.9164C114.852 17.8372 114.49 16.7981 113.996 15.8324C112.395 12.8309 109.064 12.2231 109.064 12.2231C107.689 11.9552 106.275 12.0373 104.935 12.4632C103.594 12.8891 102.364 13.6469 101.34 14.6768C98.0086 18.1435 99.0753 22.4732 99.7403 24.7768C100.232 26.4876 100.357 27.4031 100.232 28.0559C101.272 28.1669 102.322 28.0832 103.335 27.8083C103.703 27.6959 104.047 27.5058 104.347 27.249C104.647 26.9922 104.897 26.6737 105.083 26.3118C105.269 25.9499 105.388 25.5518 105.431 25.1403C105.475 24.7287 105.443 24.312 105.337 23.9139C104.935 23.0509 106.03 22.1805 106.03 22.1805C106.03 22.1805 106.826 24.4917 107.761 23.0509C108.697 21.6102 107.069 19.5843 108.69 18.4287C110.31 17.2731 112.021 17.2731 114.023 18.4287C114.356 18.6279 114.707 18.7912 115.069 18.9164Z" fill="#393762"/>
<path d="M114.894 19.4407C114.894 19.4407 115.84 20.0825 117.213 18.2798C118.585 16.477 118.578 13.2898 117.483 14.119C116.957 14.5054 116.454 14.9219 115.975 15.3665C115.975 15.3665 114.887 10.5135 113.379 11.0399C112.967 11.1669 112.602 11.4174 112.333 11.7584C112.064 12.0995 111.903 12.5152 111.871 12.9508C111.871 12.9508 109.026 10.7371 108.457 11.4293C108.184 11.796 107.86 12.1214 107.497 12.3956C107.497 12.3956 107.774 12.5398 106.949 12.8138C106.349 13.0883 105.831 13.5187 105.448 14.0613C105.448 14.0613 109.958 14.6166 111.33 16.0011C112.703 17.3856 114.894 19.4407 114.894 19.4407Z" fill="#393762"/>
<path d="M105.261 42C105.261 42 107.838 42.8221 107.987 46.947C108.135 51.0718 111.419 61.6592 111.419 61.6592C111.419 61.6592 115.283 57.5343 115.998 56.7051C116.713 55.8758 118.15 55.6042 119.58 57.9418C121.009 60.2795 120.585 63.0318 118.433 66.3345C116.281 69.6373 112.275 74.5771 108.984 74.0266C105.693 73.4762 100.25 64.0183 100.109 62.8959C99.9674 61.7736 102.685 50.6572 103.087 48.87C103.489 47.0828 105.261 42 105.261 42Z" fill="#393762"/>
<path d="M74.994 82.2887C74.994 82.2887 73.0677 84.8969 73.7552 87.3626C74.2322 89.003 74.8305 90.606 75.5454 92.1585C75.5454 92.1585 71.0054 106.824 69.9026 109.839C68.7998 112.853 69.6233 113.131 66.7304 114.913C63.8374 116.694 57.5071 119.188 55.4377 125.737C53.882 130.652 51.9993 135.459 49.8021 140.125C48.9714 141.771 48.5632 142.733 46.773 142.733C44.9828 142.733 41.9538 141.907 41.6745 144.237C41.5343 146.427 41.5343 148.624 41.6745 150.815C41.6745 151.641 39.6121 153.01 40.4356 155.889C41.2591 158.768 42.7773 161.369 43.6008 161.639C44.4243 161.91 45.9423 161.504 46.0856 160.82C46.2288 160.136 44.5675 159.038 45.3695 156.544C46.1715 154.05 50.332 150.131 52.6736 147.907C55.0152 145.684 60.5505 135.985 64.6537 131.602C68.7569 127.22 73.4687 121.732 76.7699 118.853C80.071 115.974 86.7951 104.879 88.2273 102.406C89.6594 99.9333 91.0916 96.5198 91.0916 96.5198C91.0916 96.5198 105.557 99.2563 108.034 99.6696C109.712 99.9696 111.367 100.381 112.99 100.902C110.281 103.442 108.408 106.739 107.619 110.359C106.516 116.117 104.038 126.528 102.8 129.956C101.561 133.384 100.644 135.465 99.7849 137.246C98.9256 139.028 97.5794 141.358 98.5461 142.456C99.5128 143.553 104.74 144.237 107.361 144.65C109.982 145.064 115.073 144.921 116.169 143.938C117.265 142.954 117.415 142.427 116.72 142.292C116.026 142.156 112.18 139.683 111.078 138.729C109.975 137.774 109.151 136.12 109.287 135.436C109.423 134.752 115.618 121.184 118.375 115.704C121.131 110.224 124.16 100.625 124.984 98.4367C125.808 96.249 126.087 95.8285 125.263 94.7382C124.44 93.6479 119.341 89.7997 110.798 85.1392C102.255 80.4786 97.5794 80.3432 94.9657 79.937C92.3519 79.5308 87.9408 75.5472 82.0188 78.1555C76.0968 80.7637 74.994 82.2887 74.994 82.2887Z" fill="#F6BA99"/>
<path d="M106.357 41.0095C106.666 45.1324 106.527 49.2761 105.943 53.3697C104.985 60.574 99.7631 71.3026 99.3487 73.8524C98.9343 76.4021 100.72 78.0901 100.17 78.8812C99.6202 79.6723 98.5271 79.9689 97.1483 79.9689C95.7694 79.9689 90.4184 78.6058 86.1604 79.4251C81.9024 80.2444 77.2301 84.0442 76.2656 83.6628C75.3011 83.2814 73.7937 81.6216 74.7582 79.9972C75.7227 78.3727 76.68 77.4121 77.5016 75.7594C78.3232 74.1066 82.4525 61.2308 83.4099 57.0213C84.3672 52.8118 83.96 47.9171 83.8243 44.5198C83.6885 41.1225 86.5676 35.5569 88.7681 34.7447C90.9685 33.9324 97.1483 35.5569 97.8341 35.5569C98.52 35.5569 105.121 37.6122 106.357 41.0095Z" fill="#393762"/>
<path d="M102.886 39.3143C102.886 39.3143 106.019 43.329 106.422 43.0556C106.826 42.7822 108.332 41.3936 107.13 38.0695C105.927 34.7455 103.056 32.5367 100.058 29.9105C97.0591 27.2844 93.9403 23.2696 91.9036 25.5936C89.8669 27.9175 86.0551 33.3425 87.6604 35.1412C89.2658 36.9399 97.8653 37.3573 99.7677 38.0192C101.67 38.6811 102.886 39.3143 102.886 39.3143Z" fill="#7EB9F5"/>
<path d="M68.5534 68.2263C68.8825 69.4826 69.3742 70.6834 70.0141 71.7937C71.0802 73.6479 71.6133 75.6429 70.9487 76.3549C70.2841 77.067 70.2564 77.0966 67.6188 77.9273C64.9812 78.758 63.8943 78.2091 63.6243 77.4971C63.3543 76.7851 64.4204 75.9248 64.4204 75.9248C63.9376 75.8036 63.5058 75.5144 63.1927 75.1025C62.8795 74.6905 62.7026 74.179 62.6897 73.6479C62.7736 71.7847 62.9516 69.9279 63.2228 68.0853L68.4149 67.6552L68.5534 68.2263Z" fill="#F6BA99"/>
<path d="M61.6291 65.7801C61.6291 65.7801 61.4882 68.7441 62.3706 69.4832C63.253 70.2222 67.7911 69.4832 68.3621 68.8904C68.9331 68.2976 69.1036 64.4483 69.1036 64.4483L61.6291 65.7801Z" fill="#7EB9F5"/>
<path d="M95.8276 38.948C94.4676 37.6313 92.821 36.6297 91.0099 36.0175C88.1464 35.0756 79.0334 35.7454 72.698 37.3571C66.3626 38.9689 63.7497 38.8084 62.7833 41.2295C61.8169 43.6506 60.3064 62.4264 60.5856 64.5754C60.8648 66.7244 65.2674 66.857 67.3291 66.3197C69.3907 65.7825 71.0444 64.4429 71.7388 61.6241C72.4332 58.8052 72.2828 48.744 73.2492 47.6695C74.2156 46.595 85.6409 47.2649 88.805 46.8602C91.9691 46.4555 94.1739 45.5205 94.7252 44.7182" fill="#393762"/>
<path d="M117.952 56.0323C117.952 56.0323 115.808 57.1838 116.182 59.1008C116.555 61.0178 118.45 62.4289 119.211 62.3025C119.971 62.176 121.479 60.1259 121.479 60.1259C121.479 60.1259 121.729 55.0072 117.952 56.0323Z" fill="#7EB9F5"/>
<path d="M117.207 56.8629C117.207 56.8629 118.324 60.0228 119.716 60.1583C121.108 60.2939 121.811 59.445 123.478 57.8258C125.146 56.2066 126.828 54.9726 126.828 52.7471C126.828 50.5216 126.269 47.54 125.015 47.3973C124.259 47.3167 123.494 47.412 122.782 47.6755C122.782 47.6755 122.369 46.848 121.115 47.811C119.861 48.774 120.136 49.4587 119.44 50.6642C118.829 51.4859 118.569 52.5098 118.715 53.5175C118.787 54.0165 118.833 54.5188 118.853 55.0225L117.207 56.8629Z" fill="#F6BA99"/>
<path d="M122.76 48.4138C123.232 49.0586 124.014 52.3791 123.387 52.8755C122.76 53.372 121.668 54.3649 121.351 53.2495C121.033 52.1341 120.414 50.5222 120.414 50.5222" stroke="#393762" stroke-width="0.5" stroke-miterlimit="10"/>
<path d="M111.395 85.0339C102.821 80.4357 98.1171 80.3021 95.4917 79.9014C92.8663 79.5006 88.4354 75.5704 82.4869 78.1437C76.5383 80.717 75.4306 82.1934 75.4306 82.1934C75.4306 82.1934 73.4957 84.7667 74.1863 87.1994C74.6654 88.8179 75.2664 90.3994 75.9845 91.9311C75.9845 91.9311 71.4242 106.401 70.3165 109.375C70.2589 109.529 70.223 109.649 70.1726 109.789C71.3954 110.204 72.8196 110.732 74.4884 111.399C76.6398 112.25 78.4343 113.786 79.581 115.759C82.9095 111.38 85.9648 106.808 88.7303 102.07C90.1186 99.6369 91.6075 96.2621 91.6075 96.2621C91.6075 96.2621 106.137 98.962 108.626 99.3697C109.46 99.5033 110.295 99.6861 111.036 99.8689C111.459 97.2341 112.329 94.6868 113.611 92.3319C114.977 89.9273 116.243 88.8165 117.207 88.2962C115.474 87.2838 113.546 86.1869 111.395 85.0339Z" fill="#DA5955"/>
<path d="M116.216 143.745C117.337 142.812 117.483 142.28 116.776 142.149C116.07 142.017 112.16 139.619 111.038 138.693C109.917 137.767 109.08 136.163 109.218 135.5C109.262 135.286 109.946 133.765 110.958 131.63C109.761 131.977 108.509 132.117 107.259 132.044C105.603 131.766 103.983 131.324 102.424 130.724C101.267 133.717 100.349 135.597 99.5555 137.228C98.7618 138.859 97.3128 141.215 98.2958 142.28C99.2788 143.344 104.594 144.008 107.259 144.409C109.924 144.809 115.101 144.671 116.216 143.745Z" fill="#DECBB6"/>
<path d="M116.778 142.031C116.05 141.892 112.163 139.351 111.042 138.37C109.921 137.388 109.084 135.689 109.222 134.986C109.222 134.986 108.662 133.155 107.402 132.877C106.143 132.598 105.582 136.399 105.582 136.399L100.246 135.323C100.006 135.85 99.7802 136.348 99.5618 136.788C98.7173 138.619 97.3196 141.013 98.3024 142.141C99.2852 143.269 104.599 143.972 107.264 144.397C109.928 144.822 115.104 144.675 116.218 143.665C117.332 142.654 117.485 142.163 116.778 142.031Z" fill="#393762"/>
<path d="M51.4073 144.88C50.3222 143.976 49.535 142.768 49.1472 141.414C48.9411 141.866 48.6001 142.245 48.1704 142.499C47.7406 142.752 47.2429 142.869 46.7446 142.832C44.9621 142.832 41.9463 142.009 41.6682 144.328C41.5286 146.506 41.5286 148.692 41.6682 150.871C41.6682 151.693 39.6149 153.055 40.4348 155.919C41.2547 158.783 42.7662 161.37 43.5861 161.64C44.406 161.909 45.9175 161.505 46.0601 160.825C46.2027 160.144 44.5486 159.052 45.3471 156.571C46.1456 154.09 50.288 150.19 52.6194 147.979C53.1767 147.418 53.6848 146.811 54.138 146.164C53.1634 145.887 52.2409 145.454 51.4073 144.88Z" fill="#DECBB6"/>
<path d="M49.8621 151.176C49.7445 150.983 49.6158 150.796 49.4767 150.617C48.6077 149.513 47.1568 150.753 47.1568 150.753C46.2658 149.754 45.7997 148.477 45.8495 147.17C45.9628 145.564 47.4666 143.386 48.1165 142.49C47.7979 142.581 47.4669 142.627 47.1341 142.626C45.2449 142.626 42.0484 141.795 41.7537 144.138C41.6057 146.341 41.6057 148.55 41.7537 150.753C41.7537 151.584 39.5773 152.96 40.4464 155.855C41.3154 158.751 42.9174 161.367 43.7865 161.639C44.6555 161.911 46.2575 161.503 46.4087 160.815C46.5598 160.127 44.8066 159.023 45.653 156.515C46.2198 155.06 47.9956 153.039 49.8621 151.176Z" fill="#393762"/>
</g>
<g filter="url(#filter0_b_136:22511)">
<rect x="13" y="77" width="141" height="77" rx="10" fill="black" fill-opacity="0.8"/>
</g>
<path d="M31.219 112H29.287L29.063 110.824L28.825 109.984L27.061 109.942L25.507 109.984L25.269 110.726L25.031 112H23.155L26.207 102.984H28.461L31.219 112ZM28.419 108.514L27.355 104.762H27.229L25.997 108.514L27.201 108.542L28.419 108.514ZM34.6501 110.628C34.9487 110.628 35.2614 110.549 35.5881 110.39L35.7421 110.53L35.5601 111.636C35.0841 111.879 34.5987 112.028 34.1041 112.084C32.8441 111.953 32.2141 111.337 32.2141 110.236L32.2841 109.074L32.2701 106.666H31.4021L31.3321 106.568L31.4301 105.546H32.2561V104.468L33.9501 103.922L34.0761 104.034L34.0341 105.546H35.7001L35.7561 105.644L35.6721 106.666H34.0061L33.9221 109.802C33.9221 110.101 33.9781 110.315 34.0901 110.446C34.2021 110.567 34.3887 110.628 34.6501 110.628ZM36.8745 109.312L36.8045 105.616L38.6385 105.462L38.5545 109.13L38.6385 112H36.7765L36.8745 109.312ZM37.7565 102.298C38.0459 102.298 38.2699 102.382 38.4285 102.55C38.5965 102.718 38.6805 102.951 38.6805 103.25C38.6805 103.567 38.5919 103.819 38.4145 104.006C38.2372 104.193 37.9945 104.286 37.6865 104.286C37.3785 104.286 37.1405 104.202 36.9725 104.034C36.8139 103.866 36.7345 103.628 36.7345 103.32C36.7345 103.012 36.8232 102.765 37.0005 102.578C37.1872 102.391 37.4392 102.298 37.7565 102.298ZM41.6169 106.526L42.5969 110.25H42.6949L43.8709 106.624L44.1089 105.49H45.7329L43.5489 112H41.5469L39.6989 105.532L41.4349 105.448L41.6169 106.526ZM46.7593 109.312L46.6893 105.616L48.5233 105.462L48.4393 109.13L48.5233 112H46.6613L46.7593 109.312ZM47.6413 102.298C47.9306 102.298 48.1546 102.382 48.3133 102.55C48.4813 102.718 48.5653 102.951 48.5653 103.25C48.5653 103.567 48.4766 103.819 48.2993 104.006C48.122 104.193 47.8793 104.286 47.5713 104.286C47.2633 104.286 47.0253 104.202 46.8573 104.034C46.6986 103.866 46.6193 103.628 46.6193 103.32C46.6193 103.012 46.708 102.765 46.8853 102.578C47.072 102.391 47.324 102.298 47.6413 102.298ZM55.7157 109.13L55.7577 110.306C55.7577 110.465 55.7764 110.577 55.8137 110.642C55.8604 110.698 55.9397 110.726 56.0517 110.726C56.1544 110.726 56.2804 110.707 56.4297 110.67L56.5557 110.782L56.4017 111.762C56.0844 111.958 55.739 112.075 55.3657 112.112C55.0764 112.084 54.8337 111.986 54.6377 111.818C54.4417 111.65 54.3064 111.421 54.2317 111.132H54.1197C53.6624 111.552 53.1957 111.874 52.7197 112.098C51.805 112.098 51.0957 111.809 50.5917 111.23C50.0877 110.642 49.8357 109.83 49.8357 108.794C49.8357 107.693 50.125 106.848 50.7037 106.26C51.2824 105.672 52.085 105.378 53.1117 105.378C53.3824 105.378 53.681 105.406 54.0077 105.462L53.9797 102.312L55.8277 102.172L55.7157 109.13ZM52.9857 106.638C52.0524 106.638 51.5857 107.231 51.5857 108.416C51.5857 109.153 51.6977 109.709 51.9217 110.082C52.1457 110.455 52.4724 110.642 52.9017 110.642C53.3124 110.642 53.6904 110.451 54.0357 110.068L54.0637 109.298L54.0217 106.89C53.6577 106.722 53.3124 106.638 52.9857 106.638ZM60.2148 105.364C60.9335 105.364 61.4935 105.527 61.8948 105.854C62.3055 106.171 62.5108 106.619 62.5108 107.198C62.5108 107.366 62.4828 107.898 62.4268 108.794C62.4175 109.055 62.4035 109.326 62.3848 109.606C62.3662 109.877 62.3568 110.11 62.3568 110.306C62.3568 110.465 62.3802 110.577 62.4268 110.642C62.4735 110.698 62.5575 110.726 62.6788 110.726C62.7722 110.726 62.8935 110.707 63.0428 110.67L63.1828 110.782L63.0148 111.762C62.7162 111.958 62.3755 112.075 61.9928 112.112C61.7128 112.084 61.4795 111.986 61.2928 111.818C61.1062 111.641 60.9802 111.398 60.9148 111.09H60.8168C60.3502 111.585 59.8695 111.93 59.3748 112.126C58.7028 112.117 58.1755 111.939 57.7928 111.594C57.4102 111.249 57.2188 110.777 57.2188 110.18C57.2188 109.713 57.3355 109.349 57.5688 109.088C57.8115 108.817 58.1755 108.635 58.6608 108.542L60.8028 108.136V107.562C60.8028 106.955 60.5042 106.652 59.9068 106.652C59.6175 106.652 59.3095 106.717 58.9828 106.848C58.6655 106.979 58.3062 107.184 57.9048 107.464L57.7648 107.38L57.5548 106.148C57.9562 105.896 58.3855 105.705 58.8428 105.574C59.3002 105.434 59.7575 105.364 60.2148 105.364ZM59.3048 109.396C59.1555 109.433 59.0435 109.499 58.9688 109.592C58.9035 109.676 58.8708 109.807 58.8708 109.984C58.8708 110.227 58.9362 110.418 59.0668 110.558C59.1975 110.689 59.3795 110.754 59.6128 110.754C59.9768 110.754 60.3595 110.539 60.7608 110.11L60.7888 109.074L59.3048 109.396ZM69.8251 109.13L69.8671 110.306C69.8671 110.465 69.8857 110.577 69.9231 110.642C69.9697 110.698 70.0491 110.726 70.1611 110.726C70.2637 110.726 70.3897 110.707 70.5391 110.67L70.6651 110.782L70.5111 111.762C70.1937 111.958 69.8484 112.075 69.4751 112.112C69.1857 112.084 68.9431 111.986 68.7471 111.818C68.5511 111.65 68.4157 111.421 68.3411 111.132H68.2291C67.7717 111.552 67.3051 111.874 66.8291 112.098C65.9144 112.098 65.2051 111.809 64.7011 111.23C64.1971 110.642 63.9451 109.83 63.9451 108.794C63.9451 107.693 64.2344 106.848 64.8131 106.26C65.3917 105.672 66.1944 105.378 67.2211 105.378C67.4917 105.378 67.7904 105.406 68.1171 105.462L68.0891 102.312L69.9371 102.172L69.8251 109.13ZM67.0951 106.638C66.1617 106.638 65.6951 107.231 65.6951 108.416C65.6951 109.153 65.8071 109.709 66.0311 110.082C66.2551 110.455 66.5817 110.642 67.0111 110.642C67.4217 110.642 67.7997 110.451 68.1451 110.068L68.1731 109.298L68.1311 106.89C67.7671 106.722 67.4217 106.638 67.0951 106.638ZM76.8022 108.976L73.0222 109.004C73.1062 110.171 73.6989 110.754 74.8002 110.754C75.3789 110.754 76.0229 110.591 76.7322 110.264L76.8862 110.362L76.6062 111.748C75.8969 112.009 75.2295 112.14 74.6042 112.14C73.5775 112.14 72.7702 111.841 72.1822 111.244C71.6035 110.647 71.3142 109.821 71.3142 108.766C71.3142 107.721 71.5989 106.895 72.1682 106.288C72.7375 105.672 73.5075 105.364 74.4782 105.364C75.3089 105.364 75.9482 105.593 76.3962 106.05C76.8535 106.498 77.0822 107.128 77.0822 107.94C77.0822 108.155 77.0589 108.425 77.0122 108.752L76.8022 108.976ZM75.4582 107.73C75.4582 107.357 75.3742 107.077 75.2062 106.89C75.0382 106.694 74.7909 106.596 74.4642 106.596C74.1002 106.596 73.7969 106.717 73.5542 106.96C73.3115 107.193 73.1482 107.534 73.0642 107.982L75.4302 107.926L75.4582 107.73ZM83.8729 102.144C84.2555 102.144 84.6615 102.186 85.0909 102.27L84.9649 103.656L84.8389 103.74C84.4002 103.553 84.0175 103.46 83.6909 103.46C83.1122 103.46 82.8182 103.791 82.8089 104.454L82.7949 105.546H84.3769L84.4329 105.644L84.3489 106.666H82.7669L82.7249 109.13L82.8229 112H80.9609L81.0729 109.298L81.0449 106.666H80.0649L79.9949 106.568L80.0929 105.546H81.0309L81.0169 104.776C81.0169 103.936 81.2642 103.287 81.7589 102.83C82.2629 102.373 82.9675 102.144 83.8729 102.144ZM85.2183 109.312L85.1483 105.616L86.9823 105.462L86.8983 109.13L86.9823 112H85.1203L85.2183 109.312ZM87.4163 101.878L88.0883 102.886L88.0603 103.068C87.8549 103.199 87.7009 103.292 87.5983 103.348C86.4316 104.067 85.6756 104.524 85.3303 104.72L85.1483 104.706L84.7003 104.006C85.7829 103.138 86.6276 102.424 87.2343 101.864L87.4163 101.878ZM90.9267 105.378C91.5613 105.378 92.1587 105.485 92.7187 105.7L92.4667 107.072L92.2427 107.142C91.972 106.965 91.7013 106.829 91.4307 106.736C91.16 106.643 90.922 106.596 90.7167 106.596C90.4927 106.596 90.3153 106.657 90.1847 106.778C90.054 106.89 89.9887 107.03 89.9887 107.198C89.9887 107.394 90.0727 107.553 90.2407 107.674C90.418 107.795 90.6933 107.931 91.0667 108.08C91.44 108.229 91.748 108.374 91.9907 108.514C92.2333 108.654 92.4387 108.85 92.6067 109.102C92.784 109.345 92.8727 109.648 92.8727 110.012C92.8727 110.385 92.7747 110.735 92.5787 111.062C92.392 111.379 92.1027 111.641 91.7107 111.846C91.3187 112.042 90.838 112.14 90.2687 112.14C89.5967 112.14 88.9013 112 88.1827 111.72L88.3927 110.264L88.5747 110.152C88.864 110.395 89.186 110.591 89.5407 110.74C89.8953 110.88 90.208 110.95 90.4787 110.95C90.7307 110.95 90.9267 110.889 91.0667 110.768C91.2067 110.637 91.2767 110.483 91.2767 110.306C91.2767 110.11 91.188 109.951 91.0107 109.83C90.8427 109.709 90.572 109.573 90.1987 109.424C89.816 109.256 89.5033 109.107 89.2607 108.976C89.018 108.836 88.808 108.64 88.6307 108.388C88.4627 108.136 88.3787 107.823 88.3787 107.45C88.3787 106.843 88.6073 106.349 89.0647 105.966C89.522 105.574 90.1427 105.378 90.9267 105.378ZM94.2417 109.312L94.1717 105.616L96.0057 105.462L95.9217 109.13L96.0057 112H94.1437L94.2417 109.312ZM95.1237 102.298C95.4131 102.298 95.6371 102.382 95.7957 102.55C95.9637 102.718 96.0477 102.951 96.0477 103.25C96.0477 103.567 95.9591 103.819 95.7817 104.006C95.6044 104.193 95.3617 104.286 95.0537 104.286C94.7457 104.286 94.5077 104.202 94.3397 104.034C94.1811 103.866 94.1017 103.628 94.1017 103.32C94.1017 103.012 94.1904 102.765 94.3677 102.578C94.5544 102.391 94.8064 102.298 95.1237 102.298ZM100.44 105.364C100.748 105.364 101.051 105.397 101.35 105.462C101.658 105.518 101.929 105.602 102.162 105.714L101.854 107.198L101.7 107.268C101.224 107.007 100.799 106.876 100.426 106.876C99.9968 106.876 99.6654 107.03 99.4321 107.338C99.1988 107.646 99.0821 108.085 99.0821 108.654C99.0821 109.307 99.2081 109.807 99.4601 110.152C99.7121 110.497 100.071 110.67 100.538 110.67C100.958 110.67 101.425 110.553 101.938 110.32L102.078 110.432L101.896 111.874C101.336 112.051 100.762 112.14 100.174 112.14C99.2781 112.14 98.5781 111.851 98.0741 111.272C97.5701 110.684 97.3181 109.867 97.3181 108.822C97.3181 107.739 97.5934 106.895 98.1441 106.288C98.6948 105.672 99.4601 105.364 100.44 105.364ZM105.578 105.364C106.297 105.364 106.857 105.527 107.258 105.854C107.669 106.171 107.874 106.619 107.874 107.198C107.874 107.366 107.846 107.898 107.79 108.794C107.781 109.055 107.767 109.326 107.748 109.606C107.729 109.877 107.72 110.11 107.72 110.306C107.72 110.465 107.743 110.577 107.79 110.642C107.837 110.698 107.921 110.726 108.042 110.726C108.135 110.726 108.257 110.707 108.406 110.67L108.546 110.782L108.378 111.762C108.079 111.958 107.739 112.075 107.356 112.112C107.076 112.084 106.843 111.986 106.656 111.818C106.469 111.641 106.343 111.398 106.278 111.09H106.18C105.713 111.585 105.233 111.93 104.738 112.126C104.066 112.117 103.539 111.939 103.156 111.594C102.773 111.249 102.582 110.777 102.582 110.18C102.582 109.713 102.699 109.349 102.932 109.088C103.175 108.817 103.539 108.635 104.024 108.542L106.166 108.136V107.562C106.166 106.955 105.867 106.652 105.27 106.652C104.981 106.652 104.673 106.717 104.346 106.848C104.029 106.979 103.669 107.184 103.268 107.464L103.128 107.38L102.918 106.148C103.319 105.896 103.749 105.705 104.206 105.574C104.663 105.434 105.121 105.364 105.578 105.364ZM104.668 109.396C104.519 109.433 104.407 109.499 104.332 109.592C104.267 109.676 104.234 109.807 104.234 109.984C104.234 110.227 104.299 110.418 104.43 110.558C104.561 110.689 104.743 110.754 104.976 110.754C105.34 110.754 105.723 110.539 106.124 110.11L106.152 109.074L104.668 109.396ZM117.307 109.13L117.349 110.306C117.349 110.465 117.368 110.577 117.405 110.642C117.452 110.698 117.531 110.726 117.643 110.726C117.746 110.726 117.872 110.707 118.021 110.67L118.147 110.782L117.993 111.762C117.676 111.958 117.331 112.075 116.957 112.112C116.668 112.084 116.425 111.986 116.229 111.818C116.033 111.65 115.898 111.421 115.823 111.132H115.711C115.254 111.552 114.787 111.874 114.311 112.098C113.397 112.098 112.687 111.809 112.183 111.23C111.679 110.642 111.427 109.83 111.427 108.794C111.427 107.693 111.717 106.848 112.295 106.26C112.874 105.672 113.677 105.378 114.703 105.378C114.974 105.378 115.273 105.406 115.599 105.462L115.571 102.312L117.419 102.172L117.307 109.13ZM114.577 106.638C113.644 106.638 113.177 107.231 113.177 108.416C113.177 109.153 113.289 109.709 113.513 110.082C113.737 110.455 114.064 110.642 114.493 110.642C114.904 110.642 115.282 110.451 115.627 110.068L115.655 109.298L115.613 106.89C115.249 106.722 114.904 106.638 114.577 106.638ZM119.371 109.312L119.301 105.616L121.135 105.462L121.051 109.13L121.135 112H119.273L119.371 109.312ZM120.253 102.298C120.542 102.298 120.766 102.382 120.925 102.55C121.093 102.718 121.177 102.951 121.177 103.25C121.177 103.567 121.088 103.819 120.911 104.006C120.733 104.193 120.491 104.286 120.183 104.286C119.875 104.286 119.637 104.202 119.469 104.034C119.31 103.866 119.231 103.628 119.231 103.32C119.231 103.012 119.319 102.765 119.497 102.578C119.683 102.391 119.935 102.298 120.253 102.298ZM125.457 105.364C126.176 105.364 126.736 105.527 127.137 105.854C127.548 106.171 127.753 106.619 127.753 107.198C127.753 107.366 127.725 107.898 127.669 108.794C127.66 109.055 127.646 109.326 127.627 109.606C127.608 109.877 127.599 110.11 127.599 110.306C127.599 110.465 127.622 110.577 127.669 110.642C127.716 110.698 127.8 110.726 127.921 110.726C128.014 110.726 128.136 110.707 128.285 110.67L128.425 110.782L128.257 111.762C127.958 111.958 127.618 112.075 127.235 112.112C126.955 112.084 126.722 111.986 126.535 111.818C126.348 111.641 126.222 111.398 126.157 111.09H126.059C125.592 111.585 125.112 111.93 124.617 112.126C123.945 112.117 123.418 111.939 123.035 111.594C122.652 111.249 122.461 110.777 122.461 110.18C122.461 109.713 122.578 109.349 122.811 109.088C123.054 108.817 123.418 108.635 123.903 108.542L126.045 108.136V107.562C126.045 106.955 125.746 106.652 125.149 106.652C124.86 106.652 124.552 106.717 124.225 106.848C123.908 106.979 123.548 107.184 123.147 107.464L123.007 107.38L122.797 106.148C123.198 105.896 123.628 105.705 124.085 105.574C124.542 105.434 125 105.364 125.457 105.364ZM124.547 109.396C124.398 109.433 124.286 109.499 124.211 109.592C124.146 109.676 124.113 109.807 124.113 109.984C124.113 110.227 124.178 110.418 124.309 110.558C124.44 110.689 124.622 110.754 124.855 110.754C125.219 110.754 125.602 110.539 126.003 110.11L126.031 109.074L124.547 109.396ZM126.675 101.878L127.347 102.886L127.319 103.068C127.114 103.199 126.96 103.292 126.857 103.348C125.69 104.067 124.934 104.524 124.589 104.72L124.407 104.706L123.959 104.006C125.042 103.138 125.886 102.424 126.493 101.864L126.675 101.878ZM133.151 105.476C133.235 105.476 133.352 105.485 133.501 105.504V107.226L133.305 107.296C133.147 107.231 132.974 107.198 132.787 107.198C132.246 107.198 131.756 107.548 131.317 108.248V109.13L131.415 112H129.553L129.665 109.312L129.581 105.616L131.345 105.462L131.331 106.736H131.443C131.901 105.896 132.47 105.476 133.151 105.476ZM134.546 109.312L134.476 105.616L136.31 105.462L136.226 109.13L136.31 112H134.448L134.546 109.312ZM135.428 102.298C135.718 102.298 135.942 102.382 136.1 102.55C136.268 102.718 136.352 102.951 136.352 103.25C136.352 103.567 136.264 103.819 136.086 104.006C135.909 104.193 135.666 104.286 135.358 104.286C135.05 104.286 134.812 104.202 134.644 104.034C134.486 103.866 134.406 103.628 134.406 103.32C134.406 103.012 134.495 102.765 134.672 102.578C134.859 102.391 135.111 102.298 135.428 102.298ZM140.633 105.364C141.351 105.364 141.911 105.527 142.313 105.854C142.723 106.171 142.929 106.619 142.929 107.198C142.929 107.366 142.901 107.898 142.845 108.794C142.835 109.055 142.821 109.326 142.803 109.606C142.784 109.877 142.775 110.11 142.775 110.306C142.775 110.465 142.798 110.577 142.845 110.642C142.891 110.698 142.975 110.726 143.097 110.726C143.19 110.726 143.311 110.707 143.461 110.67L143.601 110.782L143.433 111.762C143.134 111.958 142.793 112.075 142.411 112.112C142.131 112.084 141.897 111.986 141.711 111.818C141.524 111.641 141.398 111.398 141.333 111.09H141.235C140.768 111.585 140.287 111.93 139.793 112.126C139.121 112.117 138.593 111.939 138.211 111.594C137.828 111.249 137.637 110.777 137.637 110.18C137.637 109.713 137.753 109.349 137.987 109.088C138.229 108.817 138.593 108.635 139.079 108.542L141.221 108.136V107.562C141.221 106.955 140.922 106.652 140.325 106.652C140.035 106.652 139.727 106.717 139.401 106.848C139.083 106.979 138.724 107.184 138.323 107.464L138.183 107.38L137.973 106.148C138.374 105.896 138.803 105.705 139.261 105.574C139.718 105.434 140.175 105.364 140.633 105.364ZM139.723 109.396C139.573 109.433 139.461 109.499 139.387 109.592C139.321 109.676 139.289 109.807 139.289 109.984C139.289 110.227 139.354 110.418 139.485 110.558C139.615 110.689 139.797 110.754 140.031 110.754C140.395 110.754 140.777 110.539 141.179 110.11L141.207 109.074L139.723 109.396ZM49.2079 125.13L49.2499 126.306C49.2499 126.465 49.2685 126.577 49.3059 126.642C49.3525 126.698 49.4319 126.726 49.5439 126.726C49.6465 126.726 49.7725 126.707 49.9219 126.67L50.0479 126.782L49.8939 127.762C49.5765 127.958 49.2312 128.075 48.8579 128.112C48.5685 128.084 48.3259 127.986 48.1299 127.818C47.9339 127.65 47.7985 127.421 47.7239 127.132H47.6119C47.1545 127.552 46.6879 127.874 46.2119 128.098C45.2972 128.098 44.5879 127.809 44.0839 127.23C43.5799 126.642 43.3279 125.83 43.3279 124.794C43.3279 123.693 43.6172 122.848 44.1959 122.26C44.7745 121.672 45.5772 121.378 46.6039 121.378C46.8745 121.378 47.1732 121.406 47.4999 121.462L47.4719 118.312L49.3199 118.172L49.2079 125.13ZM46.4779 122.638C45.5445 122.638 45.0779 123.231 45.0779 124.416C45.0779 125.153 45.1899 125.709 45.4139 126.082C45.6379 126.455 45.9645 126.642 46.3939 126.642C46.8045 126.642 47.1825 126.451 47.5279 126.068L47.5559 125.298L47.5139 122.89C47.1499 122.722 46.8045 122.638 46.4779 122.638ZM56.185 124.976L52.405 125.004C52.489 126.171 53.0817 126.754 54.183 126.754C54.7617 126.754 55.4057 126.591 56.115 126.264L56.269 126.362L55.989 127.748C55.2797 128.009 54.6123 128.14 53.987 128.14C52.9603 128.14 52.153 127.841 51.565 127.244C50.9863 126.647 50.697 125.821 50.697 124.766C50.697 123.721 50.9817 122.895 51.551 122.288C52.1203 121.672 52.8903 121.364 53.861 121.364C54.6917 121.364 55.331 121.593 55.779 122.05C56.2363 122.498 56.465 123.128 56.465 123.94C56.465 124.155 56.4417 124.425 56.395 124.752L56.185 124.976ZM54.841 123.73C54.841 123.357 54.757 123.077 54.589 122.89C54.421 122.694 54.1737 122.596 53.847 122.596C53.483 122.596 53.1797 122.717 52.937 122.96C52.6943 123.193 52.531 123.534 52.447 123.982L54.813 123.926L54.841 123.73ZM61.8697 120.818C62.5977 120.818 63.1857 120.995 63.6337 121.35C64.0817 121.705 64.3057 122.167 64.3057 122.736C64.3057 123.119 64.1983 123.492 63.9837 123.856C63.769 124.211 63.433 124.514 62.9757 124.766V124.836C63.993 125.125 64.5017 125.746 64.5017 126.698C64.5017 127.211 64.3523 127.669 64.0537 128.07C63.7643 128.471 63.3537 128.779 62.8217 128.994C62.2897 129.218 61.6783 129.33 60.9877 129.33C60.493 129.33 59.989 129.283 59.4757 129.19L59.3777 127.748L59.5037 127.622C60.0543 127.818 60.5723 127.916 61.0577 127.916C61.5803 127.916 61.9863 127.813 62.2757 127.608C62.5743 127.403 62.7237 127.113 62.7237 126.74C62.7237 126.432 62.6163 126.194 62.4017 126.026C62.187 125.849 61.8697 125.755 61.4497 125.746H60.4697L60.3717 125.62L60.4277 124.346L61.0437 124.318C61.3983 124.309 61.7157 124.197 61.9957 123.982C62.2757 123.758 62.4157 123.478 62.4157 123.142C62.4157 122.89 62.3317 122.694 62.1637 122.554C61.9957 122.414 61.7623 122.344 61.4637 122.344C61.2023 122.344 60.9363 122.4 60.6657 122.512C60.4043 122.615 60.1197 122.778 59.8117 123.002H59.6157L59.3357 121.644C60.1383 121.093 60.983 120.818 61.8697 120.818ZM68.823 120.818C69.775 120.818 70.5076 121.126 71.021 121.742C71.5436 122.358 71.805 123.231 71.805 124.36C71.805 125.555 71.525 126.483 70.965 127.146C70.405 127.799 69.6116 128.126 68.585 128.126C67.633 128.126 66.8956 127.818 66.373 127.202C65.8503 126.586 65.589 125.723 65.589 124.612C65.589 123.408 65.869 122.475 66.429 121.812C66.9983 121.149 67.7963 120.818 68.823 120.818ZM68.683 122.54C68.123 122.54 67.7076 122.699 67.437 123.016C67.1663 123.324 67.031 123.814 67.031 124.486C67.031 125.167 67.1663 125.671 67.437 125.998C67.7076 126.325 68.1276 126.488 68.697 126.488C69.257 126.488 69.6723 126.334 69.943 126.026C70.223 125.709 70.363 125.223 70.363 124.57C70.363 123.879 70.223 123.371 69.943 123.044C69.663 122.708 69.243 122.54 68.683 122.54ZM83.1149 128L83.2269 123.94C83.2269 123.249 82.9329 122.904 82.3449 122.904C81.9249 122.904 81.4862 123.091 81.0289 123.464L80.9869 125.144L81.0709 128H79.2089L79.3209 123.94C79.3302 123.604 79.2556 123.347 79.0969 123.17C78.9476 122.993 78.7282 122.904 78.4389 122.904C78.0282 122.904 77.5756 123.1 77.0809 123.492V125.13L77.1649 128H75.3169L75.4149 125.312L75.3449 121.616L77.0949 121.462V122.414H77.1929C77.7062 121.947 78.2709 121.611 78.8869 121.406C79.9322 121.406 80.5996 121.756 80.8889 122.456H80.9729C81.5049 121.961 82.1116 121.611 82.7929 121.406C83.5022 121.406 84.0389 121.569 84.4029 121.896C84.7762 122.213 84.9536 122.675 84.9349 123.282L84.8929 125.144L84.9769 128H83.1149ZM86.7359 125.312L86.6659 121.616L88.4999 121.462L88.4159 125.13L88.4999 128H86.6379L86.7359 125.312ZM87.6179 118.298C87.9072 118.298 88.1312 118.382 88.2899 118.55C88.4579 118.718 88.5419 118.951 88.5419 119.25C88.5419 119.567 88.4532 119.819 88.2759 120.006C88.0985 120.193 87.8559 120.286 87.5479 120.286C87.2399 120.286 87.0019 120.202 86.8339 120.034C86.6752 119.866 86.5959 119.628 86.5959 119.32C86.5959 119.012 86.6845 118.765 86.8619 118.578C87.0485 118.391 87.3005 118.298 87.6179 118.298ZM94.2643 123.94C94.2736 123.613 94.1989 123.361 94.0403 123.184C93.8909 122.997 93.6716 122.904 93.3823 122.904C92.9623 122.904 92.5143 123.105 92.0383 123.506V125.13L92.1223 128H90.2603L90.3583 125.312L90.2883 121.616L92.0523 121.462V122.414H92.1503C92.6636 121.947 93.2236 121.611 93.8303 121.406C94.5396 121.406 95.0809 121.569 95.4543 121.896C95.8276 122.213 96.0049 122.675 95.9863 123.282L95.9443 125.144L96.0283 128H94.1523L94.2643 123.94ZM103.886 126.782L103.718 127.762C103.373 127.986 103.018 128.103 102.654 128.112C102.384 128.065 102.16 127.958 101.982 127.79C101.805 127.622 101.67 127.379 101.576 127.062H101.45C100.918 127.585 100.368 127.925 99.7984 128.084C99.0891 128.084 98.5477 127.925 98.1744 127.608C97.8104 127.281 97.6331 126.815 97.6424 126.208L97.6704 124.556L97.6004 121.616L99.4064 121.462L99.3644 125.592C99.3551 125.919 99.4204 126.166 99.5604 126.334C99.7004 126.502 99.9104 126.586 100.19 126.586C100.601 126.586 101.007 126.404 101.408 126.04V121.616L103.186 121.462L103.06 126.306C103.06 126.455 103.084 126.563 103.13 126.628C103.186 126.693 103.27 126.726 103.382 126.726C103.485 126.726 103.611 126.707 103.76 126.67L103.886 126.782ZM107.617 126.628C107.916 126.628 108.228 126.549 108.555 126.39L108.709 126.53L108.527 127.636C108.051 127.879 107.566 128.028 107.071 128.084C105.811 127.953 105.181 127.337 105.181 126.236L105.251 125.074L105.237 122.666H104.369L104.299 122.568L104.397 121.546H105.223V120.468L106.917 119.922L107.043 120.034L107.001 121.546H108.667L108.723 121.644L108.639 122.666H106.973L106.889 125.802C106.889 126.101 106.945 126.315 107.057 126.446C107.169 126.567 107.356 126.628 107.617 126.628ZM112.322 121.364C113.274 121.364 114.002 121.644 114.506 122.204C115.01 122.764 115.262 123.571 115.262 124.626C115.262 125.765 114.991 126.637 114.45 127.244C113.908 127.841 113.129 128.14 112.112 128.14C111.16 128.14 110.432 127.86 109.928 127.3C109.424 126.74 109.172 125.933 109.172 124.878C109.172 123.739 109.442 122.871 109.984 122.274C110.525 121.667 111.304 121.364 112.322 121.364ZM112.196 122.624C111.748 122.624 111.421 122.773 111.216 123.072C111.02 123.371 110.922 123.851 110.922 124.514C110.922 125.373 111.024 125.984 111.23 126.348C111.435 126.712 111.771 126.894 112.238 126.894C112.686 126.894 113.008 126.749 113.204 126.46C113.409 126.161 113.512 125.676 113.512 125.004C113.512 124.155 113.404 123.548 113.19 123.184C112.984 122.811 112.653 122.624 112.196 122.624ZM118.722 121.378C119.356 121.378 119.954 121.485 120.514 121.7L120.262 123.072L120.038 123.142C119.767 122.965 119.496 122.829 119.226 122.736C118.955 122.643 118.717 122.596 118.512 122.596C118.288 122.596 118.11 122.657 117.98 122.778C117.849 122.89 117.784 123.03 117.784 123.198C117.784 123.394 117.868 123.553 118.036 123.674C118.213 123.795 118.488 123.931 118.862 124.08C119.235 124.229 119.543 124.374 119.786 124.514C120.028 124.654 120.234 124.85 120.402 125.102C120.579 125.345 120.668 125.648 120.668 126.012C120.668 126.385 120.57 126.735 120.374 127.062C120.187 127.379 119.898 127.641 119.506 127.846C119.114 128.042 118.633 128.14 118.064 128.14C117.392 128.14 116.696 128 115.978 127.72L116.188 126.264L116.37 126.152C116.659 126.395 116.981 126.591 117.336 126.74C117.69 126.88 118.003 126.95 118.274 126.95C118.526 126.95 118.722 126.889 118.862 126.768C119.002 126.637 119.072 126.483 119.072 126.306C119.072 126.11 118.983 125.951 118.806 125.83C118.638 125.709 118.367 125.573 117.994 125.424C117.611 125.256 117.298 125.107 117.056 124.976C116.813 124.836 116.603 124.64 116.426 124.388C116.258 124.136 116.174 123.823 116.174 123.45C116.174 122.843 116.402 122.349 116.86 121.966C117.317 121.574 117.938 121.378 118.722 121.378ZM122.517 126.11C122.806 126.11 123.03 126.194 123.189 126.362C123.357 126.53 123.441 126.763 123.441 127.062C123.441 127.379 123.352 127.631 123.175 127.818C122.998 128.005 122.755 128.098 122.447 128.098C122.139 128.098 121.901 128.014 121.733 127.846C121.574 127.678 121.495 127.44 121.495 127.132C121.495 126.824 121.584 126.577 121.761 126.39C121.948 126.203 122.2 126.11 122.517 126.11Z" fill="white"/>
<defs>
<filter id="filter0_b_136:22511" x="3" y="67" width="161" height="97" filterUnits="userSpaceOnUse" color-interpolation-filters="sRGB">
<feFlood flood-opacity="0" result="BackgroundImageFix"/>
<feGaussianBlur in="BackgroundImage" stdDeviation="5"/>
<feComposite in2="SourceAlpha" operator="in" result="effect1_backgroundBlur_136:22511"/>
<feBlend mode="normal" in="SourceGraphic" in2="effect1_backgroundBlur_136:22511" result="shape"/>
</filter>
</defs>
</svg>
