<svg width="167" height="167" viewBox="0 0 167 167" fill="none" xmlns="http://www.w3.org/2000/svg">
<mask id="mask0_136:22325" style="mask-type:alpha" maskUnits="userSpaceOnUse" x="0" y="0" width="167" height="167">
<rect x="1" y="1" width="165" height="165" rx="8" fill="#5988D6" stroke="#EDE6FC" stroke-opacity="0.3"/>
</mask>
<g mask="url(#mask0_136:22325)">
<rect x="1" y="1" width="165" height="165" rx="8" fill="#CEE2F2" stroke="#EDE6FC" stroke-opacity="0.3"/>
<path d="M83.5499 108.9C73.9674 108.9 64.6001 106.058 56.6325 100.735C48.6649 95.4109 42.455 87.8441 38.7879 78.991C35.1208 70.1379 34.1614 60.3962 36.0308 50.9979C37.9003 41.5995 42.5147 32.9665 49.2905 26.1906C56.0664 19.4148 64.6994 14.8004 74.0977 12.9309C83.4961 11.0615 93.2378 12.0209 102.091 15.688C110.944 19.3551 118.511 25.565 123.835 33.5326C129.158 41.5002 132 50.8675 132 60.45C131.986 73.2953 126.876 85.6105 117.793 94.6935C108.71 103.777 96.3953 108.886 83.5499 108.9ZM83.5499 19.718C75.4939 19.718 67.6187 22.1069 60.9204 26.5826C54.2221 31.0583 49.0014 37.4197 45.9185 44.8625C42.8355 52.3053 42.0289 60.4952 43.6005 68.3964C45.1722 76.2976 49.0516 83.5554 54.748 89.2518C60.4445 94.9483 67.7022 98.8277 75.6035 100.399C83.5047 101.971 91.6945 101.164 99.1373 98.0814C106.58 94.9985 112.942 89.7778 117.417 83.0795C121.893 76.3811 124.282 68.506 124.282 60.45C124.27 49.651 119.974 39.2977 112.338 31.6617C104.702 24.0256 94.3489 19.7303 83.5499 19.718Z" fill="#CF4339"/>
<path d="M108.541 37.1724C108.471 37.0825 108.393 36.9986 108.309 36.9216C108.221 36.8483 108.12 36.7942 108.028 36.7248C107.725 36.4342 107.451 36.115 107.209 35.7716C107.046 35.6031 106.869 35.4483 106.681 35.3085C106.388 35.0692 106.106 34.8145 105.836 34.5367C105.528 34.1987 105.182 33.897 104.805 33.6375H104.774L103.578 34.83L109.066 40.3175L110.258 39.1212C110.264 39.0945 110.264 39.0669 110.258 39.0402C109.645 38.4536 109.077 37.8284 108.541 37.1724Z" fill="#CF4339"/>
<path d="M105.836 34.5483C106.106 34.8145 106.388 35.0692 106.681 35.3201C106.869 35.4598 107.046 35.6147 107.21 35.7832C107.451 36.1266 107.725 36.4458 108.028 36.7363C108.12 36.8058 108.221 36.8598 108.309 36.9331C108.393 37.0102 108.471 37.0941 108.541 37.184C109.077 37.84 109.645 38.4652 110.243 39.0672C110.174 38.9237 110.097 38.7845 110.011 38.6504C109.974 38.5421 109.952 38.4291 109.946 38.3147C109.812 37.9022 109.539 37.5489 109.174 37.3152C108.435 36.6449 107.742 35.9269 107.098 35.1657C106.844 34.8454 106.536 34.5723 106.187 34.3592C106.013 34.2666 105.828 34.201 105.666 34.0968C105.388 33.9231 105.118 33.6375 104.794 33.6607C105.174 33.9158 105.523 34.2136 105.836 34.5483Z" fill="#CF4339"/>
<path d="M108.695 40.7034C107.758 39.8965 106.9 39.0024 106.133 38.033C106.006 37.8748 105.882 37.7088 105.747 37.5622C105.567 37.3911 105.372 37.2362 105.164 37.0991C104.469 36.528 103.824 35.8993 103.235 35.2197L71.6448 66.8097L77.1285 72.2972L108.695 40.7034Z" fill="#FCFCFC"/>
<path d="M71.616 66.8082L57.0991 81.3251L62.5866 86.8126L77.1035 72.2956L71.616 66.8082Z" fill="#E09230"/>
<g style="mix-blend-mode:screen" opacity="0.4">
<g style="mix-blend-mode:screen" opacity="0.4">
<path d="M71.5484 68.4806C71.6848 68.4806 71.7953 68.3701 71.7953 68.2337C71.7953 68.0973 71.6848 67.9867 71.5484 67.9867C71.412 67.9867 71.3014 68.0973 71.3014 68.2337C71.3014 68.3701 71.412 68.4806 71.5484 68.4806Z" fill="#E09230"/>
</g>
<g style="mix-blend-mode:screen" opacity="0.4">
<path d="M72.7601 69.4415C72.7943 69.4069 72.8176 69.3629 72.8269 69.315C72.8362 69.2672 72.8312 69.2177 72.8124 69.1727C72.7936 69.1278 72.762 69.0893 72.7214 69.0623C72.6809 69.0353 72.6332 69.0209 72.5845 69.0209C72.5358 69.0209 72.4881 69.0353 72.4475 69.0623C72.407 69.0893 72.3754 69.1278 72.3566 69.1727C72.3378 69.2177 72.3328 69.2672 72.3421 69.315C72.3514 69.3629 72.3746 69.4069 72.4089 69.4415C72.4558 69.4875 72.5188 69.5133 72.5845 69.5133C72.6501 69.5133 72.7132 69.4875 72.7601 69.4415Z" fill="#E09230"/>
</g>
<g style="mix-blend-mode:screen" opacity="0.4">
<path d="M73.7905 70.4758C73.8364 70.4289 73.8622 70.3658 73.8622 70.3002C73.8622 70.2345 73.8364 70.1715 73.7905 70.1246C73.7678 70.1015 73.7408 70.0831 73.711 70.0706C73.6812 70.0581 73.6492 70.0516 73.6168 70.0516C73.5845 70.0516 73.5524 70.0581 73.5226 70.0706C73.4928 70.0831 73.4658 70.1015 73.4432 70.1246C73.3972 70.1715 73.3715 70.2345 73.3715 70.3002C73.3715 70.3658 73.3972 70.4289 73.4432 70.4758C73.4658 70.4989 73.4928 70.5172 73.5226 70.5298C73.5524 70.5423 73.5845 70.5487 73.6168 70.5487C73.6492 70.5487 73.6812 70.5423 73.711 70.5298C73.7408 70.5172 73.7678 70.4989 73.7905 70.4758Z" fill="#E09230"/>
</g>
<g style="mix-blend-mode:screen" opacity="0.4">
<path d="M74.6509 71.5833C74.7873 71.5833 74.8979 71.4727 74.8979 71.3363C74.8979 71.1999 74.7873 71.0893 74.6509 71.0893C74.5145 71.0893 74.4039 71.1999 74.4039 71.3363C74.4039 71.4727 74.5145 71.5833 74.6509 71.5833Z" fill="#E09230"/>
</g>
<g style="mix-blend-mode:screen" opacity="0.4">
<path d="M75.8589 72.5442C75.8931 72.5096 75.9164 72.4655 75.9257 72.4177C75.935 72.3699 75.93 72.3203 75.9112 72.2754C75.8924 72.2304 75.8608 72.192 75.8202 72.165C75.7797 72.1379 75.732 72.1235 75.6833 72.1235C75.6346 72.1235 75.5869 72.1379 75.5464 72.165C75.5058 72.192 75.4741 72.2304 75.4553 72.2754C75.4366 72.3203 75.4315 72.3699 75.4408 72.4177C75.4501 72.4655 75.4734 72.5096 75.5077 72.5442C75.5546 72.5902 75.6176 72.6159 75.6833 72.6159C75.7489 72.6159 75.812 72.5902 75.8589 72.5442Z" fill="#E09230"/>
</g>
<g style="mix-blend-mode:screen" opacity="0.4">
<path d="M70.734 69.2949C70.8704 69.2949 70.981 69.1843 70.981 69.0479C70.981 68.9115 70.8704 68.8009 70.734 68.8009C70.5976 68.8009 70.4871 68.9115 70.4871 69.0479C70.4871 69.1843 70.5976 69.2949 70.734 69.2949Z" fill="#E09230"/>
</g>
<g style="mix-blend-mode:screen" opacity="0.4">
<path d="M71.9457 70.2558C71.98 70.2212 72.0033 70.1772 72.0126 70.1293C72.0219 70.0815 72.0168 70.032 71.9981 69.987C71.9793 69.942 71.9477 69.9036 71.9071 69.8766C71.8665 69.8496 71.8189 69.8351 71.7702 69.8351C71.7214 69.8351 71.6738 69.8496 71.6332 69.8766C71.5927 69.9036 71.561 69.942 71.5423 69.987C71.5235 70.032 71.5184 70.0815 71.5277 70.1293C71.5371 70.1772 71.5603 70.2212 71.5946 70.2558C71.6415 70.3018 71.7045 70.3275 71.7702 70.3275C71.8358 70.3275 71.8988 70.3018 71.9457 70.2558Z" fill="#E09230"/>
</g>
<g style="mix-blend-mode:screen" opacity="0.4">
<path d="M72.9761 71.29C73.0221 71.2431 73.0478 71.1801 73.0478 71.1144C73.0478 71.0488 73.0221 70.9857 72.9761 70.9388C72.9535 70.9157 72.9265 70.8974 72.8967 70.8849C72.8669 70.8723 72.8348 70.8659 72.8025 70.8659C72.7701 70.8659 72.7381 70.8723 72.7083 70.8849C72.6785 70.8974 72.6515 70.9157 72.6288 70.9388C72.5829 70.9857 72.5571 71.0488 72.5571 71.1144C72.5571 71.1801 72.5829 71.2431 72.6288 71.29C72.6515 71.3131 72.6785 71.3315 72.7083 71.344C72.7381 71.3565 72.7701 71.363 72.8025 71.363C72.8348 71.363 72.8669 71.3565 72.8967 71.344C72.9265 71.3315 72.9535 71.3131 72.9761 71.29Z" fill="#E09230"/>
</g>
<g style="mix-blend-mode:screen" opacity="0.4">
<path d="M74.0104 72.3242C74.0563 72.2773 74.0821 72.2143 74.0821 72.1487C74.0821 72.083 74.0563 72.0199 74.0104 71.9731C73.9757 71.9388 73.9317 71.9155 73.8839 71.9062C73.8361 71.8969 73.7866 71.902 73.7416 71.9207C73.6966 71.9395 73.6582 71.9712 73.6312 72.0117C73.6042 72.0523 73.5897 72.0999 73.5897 72.1487C73.5897 72.1974 73.6042 72.245 73.6312 72.2856C73.6582 72.3261 73.6966 72.3578 73.7416 72.3766C73.7866 72.3953 73.8361 72.4004 73.8839 72.3911C73.9317 72.3818 73.9757 72.3585 74.0104 72.3242Z" fill="#E09230"/>
</g>
<g style="mix-blend-mode:screen" opacity="0.4">
<path d="M74.8709 73.4279C75.0073 73.4279 75.1179 73.3173 75.1179 73.1809C75.1179 73.0445 75.0073 72.934 74.8709 72.934C74.7345 72.934 74.6239 73.0445 74.6239 73.1809C74.6239 73.3173 74.7345 73.4279 74.8709 73.4279Z" fill="#E09230"/>
</g>
<g style="mix-blend-mode:screen" opacity="0.4">
<path d="M70.0974 70.0358C70.1205 70.0132 70.1388 69.9862 70.1514 69.9564C70.1639 69.9265 70.1703 69.8945 70.1703 69.8622C70.1703 69.8298 70.1639 69.7978 70.1514 69.768C70.1388 69.7382 70.1205 69.7112 70.0974 69.6885C70.0505 69.6426 69.9874 69.6168 69.9218 69.6168C69.8561 69.6168 69.7931 69.6426 69.7462 69.6885C69.7231 69.7112 69.7047 69.7382 69.6922 69.768C69.6797 69.7978 69.6732 69.8298 69.6732 69.8622C69.6732 69.8945 69.6797 69.9265 69.6922 69.9564C69.7047 69.9862 69.7231 70.0132 69.7462 70.0358C69.7931 70.0818 69.8561 70.1075 69.9218 70.1075C69.9874 70.1075 70.0505 70.0818 70.0974 70.0358Z" fill="#E09230"/>
</g>
<g style="mix-blend-mode:screen" opacity="0.4">
<path d="M71.1316 71.0701C71.1658 71.0354 71.1891 70.9914 71.1984 70.9436C71.2077 70.8957 71.2027 70.8462 71.1839 70.8012C71.1651 70.7563 71.1335 70.7178 71.0929 70.6908C71.0524 70.6638 71.0047 70.6494 70.956 70.6494C70.9073 70.6494 70.8596 70.6638 70.8191 70.6908C70.7785 70.7178 70.7468 70.7563 70.728 70.8012C70.7093 70.8462 70.7042 70.8957 70.7135 70.9436C70.7228 70.9914 70.7461 71.0354 70.7804 71.0701C70.8273 71.116 70.8903 71.1418 70.956 71.1418C71.0217 71.1418 71.0847 71.116 71.1316 71.0701Z" fill="#E09230"/>
</g>
<g style="mix-blend-mode:screen" opacity="0.4">
<path d="M71.9883 72.1776C72.1247 72.1776 72.2353 72.067 72.2353 71.9306C72.2353 71.7942 72.1247 71.6836 71.9883 71.6836C71.8519 71.6836 71.7413 71.7942 71.7413 71.9306C71.7413 72.067 71.8519 72.1776 71.9883 72.1776Z" fill="#E09230"/>
</g>
<g style="mix-blend-mode:screen" opacity="0.4">
<path d="M73.1961 73.1385C73.2421 73.0916 73.2678 73.0286 73.2678 72.9629C73.2678 72.8972 73.2421 72.8342 73.1961 72.7873C73.1735 72.7642 73.1465 72.7459 73.1166 72.7333C73.0868 72.7208 73.0548 72.7143 73.0225 72.7143C72.9901 72.7143 72.9581 72.7208 72.9283 72.7333C72.8985 72.7459 72.8715 72.7642 72.8488 72.7873C72.8029 72.8342 72.7771 72.8972 72.7771 72.9629C72.7771 73.0286 72.8029 73.0916 72.8488 73.1385C72.8715 73.1616 72.8985 73.1799 72.9283 73.1925C72.9581 73.205 72.9901 73.2115 73.0225 73.2115C73.0548 73.2115 73.0868 73.205 73.1166 73.1925C73.1465 73.1799 73.1735 73.1616 73.1961 73.1385Z" fill="#E09230"/>
</g>
<g style="mix-blend-mode:screen" opacity="0.4">
<path d="M74.2303 74.1727C74.2646 74.1381 74.2879 74.0941 74.2972 74.0462C74.3065 73.9984 74.3014 73.9489 74.2827 73.9039C74.2639 73.8589 74.2322 73.8205 74.1916 73.7935C74.1511 73.7665 74.1035 73.752 74.0548 73.752C74.006 73.752 73.9584 73.7665 73.9178 73.7935C73.8773 73.8205 73.8456 73.8589 73.8268 73.9039C73.808 73.9489 73.803 73.9984 73.8123 74.0462C73.8216 74.0941 73.8449 74.1381 73.8791 74.1727C73.926 74.2187 73.9891 74.2444 74.0548 74.2444C74.1204 74.2444 74.1834 74.2187 74.2303 74.1727Z" fill="#E09230"/>
</g>
<g style="mix-blend-mode:screen" opacity="0.4">
<path d="M69.2831 70.8501C69.3174 70.8154 69.3407 70.7714 69.35 70.7236C69.3593 70.6758 69.3542 70.6262 69.3355 70.5813C69.3167 70.5363 69.2851 70.4979 69.2445 70.4709C69.2039 70.4438 69.1563 70.4294 69.1076 70.4294C69.0588 70.4294 69.0112 70.4438 68.9706 70.4709C68.9301 70.4979 68.8984 70.5363 68.8797 70.5813C68.8609 70.6262 68.8558 70.6758 68.8651 70.7236C68.8745 70.7714 68.8977 70.8154 68.932 70.8501C68.9789 70.896 69.0419 70.9218 69.1076 70.9218C69.1732 70.9218 69.2362 70.896 69.2831 70.8501Z" fill="#E09230"/>
</g>
<g style="mix-blend-mode:screen" opacity="0.4">
<path d="M70.3172 71.8843C70.3515 71.8497 70.3748 71.8056 70.3841 71.7578C70.3934 71.71 70.3883 71.6604 70.3696 71.6155C70.3508 71.5705 70.3192 71.5321 70.2786 71.5051C70.238 71.478 70.1904 71.4636 70.1417 71.4636C70.0929 71.4636 70.0453 71.478 70.0047 71.5051C69.9642 71.5321 69.9325 71.5705 69.9137 71.6155C69.8949 71.6604 69.8899 71.71 69.8992 71.7578C69.9085 71.8056 69.9318 71.8497 69.966 71.8843C70.0129 71.9303 70.076 71.956 70.1417 71.956C70.2073 71.956 70.2703 71.9303 70.3172 71.8843Z" fill="#E09230"/>
</g>
<g style="mix-blend-mode:screen" opacity="0.4">
<path d="M71.3515 72.9185C71.3858 72.8839 71.409 72.8399 71.4183 72.792C71.4276 72.7442 71.4226 72.6947 71.4039 72.6497C71.3851 72.6047 71.3534 72.5663 71.3129 72.5393C71.2723 72.5123 71.2247 72.4979 71.1759 72.4979C71.1272 72.4979 71.0795 72.5123 71.039 72.5393C70.9984 72.5663 70.9668 72.6047 70.948 72.6497C70.9292 72.6947 70.9242 72.7442 70.9335 72.792C70.9428 72.8399 70.9661 72.8839 71.0004 72.9185C71.0472 72.9645 71.1103 72.9902 71.1759 72.9902C71.2416 72.9902 71.3046 72.9645 71.3515 72.9185Z" fill="#E09230"/>
</g>
<g style="mix-blend-mode:screen" opacity="0.4">
<path d="M72.2083 74.0222C72.3447 74.0222 72.4553 73.9116 72.4553 73.7752C72.4553 73.6388 72.3447 73.5282 72.2083 73.5282C72.0719 73.5282 71.9613 73.6388 71.9613 73.7752C71.9613 73.9116 72.0719 74.0222 72.2083 74.0222Z" fill="#E09230"/>
</g>
<g style="mix-blend-mode:screen" opacity="0.4">
<path d="M73.2423 75.0564C73.3787 75.0564 73.4893 74.9458 73.4893 74.8094C73.4893 74.673 73.3787 74.5625 73.2423 74.5625C73.1059 74.5625 72.9954 74.673 72.9954 74.8094C72.9954 74.9458 73.1059 75.0564 73.2423 75.0564Z" fill="#E09230"/>
</g>
<g style="mix-blend-mode:screen" opacity="0.4">
<path d="M68.4688 71.6644C68.5031 71.6297 68.5263 71.5857 68.5356 71.5379C68.545 71.49 68.5399 71.4405 68.5211 71.3955C68.5024 71.3505 68.4707 71.3121 68.4302 71.2851C68.3896 71.2581 68.342 71.2437 68.2932 71.2437C68.2445 71.2437 68.1968 71.2581 68.1563 71.2851C68.1157 71.3121 68.0841 71.3505 68.0653 71.3955C68.0466 71.4405 68.0415 71.49 68.0508 71.5379C68.0601 71.5857 68.0834 71.6297 68.1177 71.6644C68.1645 71.7103 68.2276 71.736 68.2932 71.736C68.3589 71.736 68.4219 71.7103 68.4688 71.6644Z" fill="#E09230"/>
</g>
<g style="mix-blend-mode:screen" opacity="0.4">
<path d="M69.3255 72.7719C69.4619 72.7719 69.5724 72.6613 69.5724 72.5249C69.5724 72.3885 69.4619 72.2779 69.3255 72.2779C69.1891 72.2779 69.0785 72.3885 69.0785 72.5249C69.0785 72.6613 69.1891 72.7719 69.3255 72.7719Z" fill="#E09230"/>
</g>
<g style="mix-blend-mode:screen" opacity="0.4">
<path d="M70.5372 73.7328C70.5714 73.6981 70.5947 73.6541 70.604 73.6063C70.6133 73.5584 70.6083 73.5089 70.5895 73.464C70.5707 73.419 70.5391 73.3806 70.4985 73.3535C70.458 73.3265 70.4103 73.3121 70.3616 73.3121C70.3129 73.3121 70.2652 73.3265 70.2246 73.3535C70.1841 73.3806 70.1525 73.419 70.1337 73.464C70.1149 73.5089 70.1099 73.5584 70.1192 73.6063C70.1285 73.6541 70.1517 73.6981 70.186 73.7328C70.2329 73.7787 70.2959 73.8045 70.3616 73.8045C70.4272 73.8045 70.4903 73.7787 70.5372 73.7328Z" fill="#E09230"/>
</g>
<g style="mix-blend-mode:screen" opacity="0.4">
<path d="M71.5676 74.767C71.6135 74.7201 71.6393 74.6571 71.6393 74.5914C71.6393 74.5258 71.6135 74.4627 71.5676 74.4158C71.5449 74.3927 71.5179 74.3744 71.4881 74.3618C71.4583 74.3493 71.4263 74.3428 71.3939 74.3428C71.3616 74.3428 71.3295 74.3493 71.2997 74.3618C71.2699 74.3744 71.2429 74.3927 71.2203 74.4158C71.1743 74.4627 71.1486 74.5258 71.1486 74.5914C71.1486 74.6571 71.1743 74.7201 71.2203 74.767C71.2429 74.7901 71.2699 74.8085 71.2997 74.821C71.3295 74.8335 71.3616 74.84 71.3939 74.84C71.4263 74.84 71.4583 74.8335 71.4881 74.821C71.5179 74.8085 71.5449 74.7901 71.5676 74.767Z" fill="#E09230"/>
</g>
<g style="mix-blend-mode:screen" opacity="0.4">
<path d="M72.6018 75.7973C72.6401 75.7499 72.6595 75.69 72.6563 75.6291C72.6531 75.5682 72.6274 75.5107 72.5843 75.4676C72.5412 75.4244 72.4837 75.3988 72.4228 75.3956C72.3619 75.3923 72.302 75.4117 72.2545 75.45C72.2162 75.4975 72.1968 75.5574 72.2001 75.6183C72.2033 75.6792 72.2289 75.7367 72.272 75.7798C72.3151 75.8229 72.3727 75.8486 72.4336 75.8518C72.4945 75.855 72.5544 75.8356 72.6018 75.7973Z" fill="#E09230"/>
</g>
<g style="mix-blend-mode:screen" opacity="0.4">
<path d="M67.6545 72.4786C67.6887 72.4439 67.712 72.3999 67.7213 72.3521C67.7306 72.3043 67.7256 72.2547 67.7068 72.2098C67.688 72.1648 67.6564 72.1264 67.6158 72.0994C67.5753 72.0723 67.5276 72.0579 67.4789 72.0579C67.4302 72.0579 67.3825 72.0723 67.342 72.0994C67.3014 72.1264 67.2698 72.1648 67.251 72.2098C67.2322 72.2547 67.2272 72.3043 67.2365 72.3521C67.2458 72.3999 67.269 72.4439 67.3033 72.4786C67.3502 72.5245 67.4132 72.5503 67.4789 72.5503C67.5446 72.5503 67.6076 72.5245 67.6545 72.4786Z" fill="#E09230"/>
</g>
<g style="mix-blend-mode:screen" opacity="0.4">
<path d="M68.6772 73.5128C68.7115 73.4782 68.7348 73.4342 68.7441 73.3863C68.7534 73.3385 68.7483 73.289 68.7296 73.244C68.7108 73.199 68.6791 73.1606 68.6386 73.1336C68.598 73.1066 68.5504 73.0921 68.5017 73.0921C68.4529 73.0921 68.4053 73.1066 68.3647 73.1336C68.3242 73.1606 68.2925 73.199 68.2737 73.244C68.2549 73.289 68.2499 73.3385 68.2592 73.3863C68.2685 73.4342 68.2918 73.4782 68.326 73.5128C68.3729 73.5588 68.436 73.5845 68.5017 73.5845C68.5673 73.5845 68.6303 73.5588 68.6772 73.5128Z" fill="#E09230"/>
</g>
<g style="mix-blend-mode:screen" opacity="0.4">
<path d="M69.5454 74.6204C69.6818 74.6204 69.7924 74.5098 69.7924 74.3734C69.7924 74.237 69.6818 74.1264 69.5454 74.1264C69.409 74.1264 69.2985 74.237 69.2985 74.3734C69.2985 74.5098 69.409 74.6204 69.5454 74.6204Z" fill="#E09230"/>
</g>
<g style="mix-blend-mode:screen" opacity="0.4">
<path d="M70.5797 75.6507C70.7161 75.6507 70.8267 75.5401 70.8267 75.4037C70.8267 75.2673 70.7161 75.1568 70.5797 75.1568C70.4433 75.1568 70.3328 75.2673 70.3328 75.4037C70.3328 75.5401 70.4433 75.6507 70.5797 75.6507Z" fill="#E09230"/>
</g>
<g style="mix-blend-mode:screen" opacity="0.4">
<path d="M71.6139 76.6849C71.7503 76.6849 71.8609 76.5744 71.8609 76.438C71.8609 76.3016 71.7503 76.191 71.6139 76.191C71.4775 76.191 71.3669 76.3016 71.3669 76.438C71.3669 76.5744 71.4775 76.6849 71.6139 76.6849Z" fill="#E09230"/>
</g>
<g style="mix-blend-mode:screen" opacity="0.4">
<path d="M66.6667 73.3662C66.8031 73.3662 66.9136 73.2556 66.9136 73.1192C66.9136 72.9828 66.8031 72.8722 66.6667 72.8722C66.5303 72.8722 66.4197 72.9828 66.4197 73.1192C66.4197 73.2556 66.5303 73.3662 66.6667 73.3662Z" fill="#E09230"/>
</g>
<g style="mix-blend-mode:screen" opacity="0.4">
<path d="M67.8745 74.3271C67.9088 74.2924 67.932 74.2484 67.9413 74.2006C67.9506 74.1527 67.9456 74.1032 67.9268 74.0583C67.908 74.0133 67.8764 73.9749 67.8358 73.9478C67.7953 73.9208 67.7476 73.9064 67.6989 73.9064C67.6501 73.9064 67.6025 73.9208 67.5619 73.9478C67.5214 73.9749 67.4897 74.0133 67.471 74.0583C67.4522 74.1032 67.4471 74.1527 67.4565 74.2006C67.4658 74.2484 67.489 74.2924 67.5233 74.3271C67.5702 74.373 67.6332 74.3988 67.6989 74.3988C67.7645 74.3988 67.8276 74.373 67.8745 74.3271Z" fill="#E09230"/>
</g>
<g style="mix-blend-mode:screen" opacity="0.4">
<path d="M68.9087 75.3613C68.943 75.3266 68.9663 75.2826 68.9756 75.2348C68.9849 75.187 68.9798 75.1374 68.9611 75.0925C68.9423 75.0475 68.9107 75.0091 68.8701 74.9821C68.8296 74.955 68.7819 74.9406 68.7332 74.9406C68.6844 74.9406 68.6368 74.955 68.5962 74.9821C68.5557 75.0091 68.524 75.0475 68.5053 75.0925C68.4865 75.1374 68.4814 75.187 68.4908 75.2348C68.5001 75.2826 68.5233 75.3266 68.5576 75.3613C68.6044 75.4072 68.6675 75.433 68.7332 75.433C68.7988 75.433 68.8619 75.4072 68.9087 75.3613Z" fill="#E09230"/>
</g>
<g style="mix-blend-mode:screen" opacity="0.4">
<path d="M69.7655 76.465C69.9019 76.465 70.0125 76.3544 70.0125 76.218C70.0125 76.0816 69.9019 75.971 69.7655 75.971C69.6291 75.971 69.5186 76.0816 69.5186 76.218C69.5186 76.3544 69.6291 76.465 69.7655 76.465Z" fill="#E09230"/>
</g>
<g style="mix-blend-mode:screen" opacity="0.4">
<path d="M70.9927 77.4259C71.0275 77.3914 71.0512 77.3474 71.061 77.2995C71.0708 77.2515 71.066 77.2017 71.0474 77.1564C71.0288 77.1111 70.9972 77.0723 70.9565 77.0451C70.9158 77.0178 70.868 77.0033 70.819 77.0033C70.77 77.0033 70.7222 77.0178 70.6815 77.0451C70.6408 77.0723 70.6092 77.1111 70.5905 77.1564C70.5719 77.2017 70.5672 77.2515 70.577 77.2995C70.5867 77.3474 70.6105 77.3914 70.6453 77.4259C70.668 77.449 70.695 77.4673 70.7248 77.4798C70.7546 77.4924 70.7867 77.4988 70.819 77.4988C70.8514 77.4988 70.8834 77.4924 70.9132 77.4798C70.943 77.4673 70.97 77.449 70.9927 77.4259Z" fill="#E09230"/>
</g>
<g style="mix-blend-mode:screen" opacity="0.4">
<path d="M66.026 74.1071C66.0602 74.0725 66.0835 74.0284 66.0928 73.9806C66.1021 73.9328 66.0971 73.8833 66.0783 73.8383C66.0595 73.7933 66.0279 73.7549 65.9873 73.7279C65.9467 73.7009 65.8991 73.6864 65.8504 73.6864C65.8017 73.6864 65.754 73.7009 65.7135 73.7279C65.6729 73.7549 65.6412 73.7933 65.6225 73.8383C65.6037 73.8833 65.5986 73.9328 65.6079 73.9806C65.6173 74.0284 65.6405 74.0725 65.6748 74.1071C65.7217 74.1531 65.7847 74.1788 65.8504 74.1788C65.9161 74.1788 65.9791 74.1531 66.026 74.1071Z" fill="#E09230"/>
</g>
<g style="mix-blend-mode:screen" opacity="0.4">
<path d="M67.0603 75.1413C67.0945 75.1067 67.1178 75.0627 67.1271 75.0148C67.1364 74.967 67.1313 74.9175 67.1126 74.8725C67.0938 74.8275 67.0622 74.7891 67.0216 74.7621C66.981 74.7351 66.9334 74.7207 66.8847 74.7207C66.8359 74.7207 66.7883 74.7351 66.7477 74.7621C66.7072 74.7891 66.6755 74.8275 66.6568 74.8725C66.638 74.9175 66.6329 74.967 66.6422 75.0148C66.6516 75.0627 66.6748 75.1067 66.7091 75.1413C66.756 75.1873 66.819 75.213 66.8847 75.213C66.9503 75.213 67.0134 75.1873 67.0603 75.1413Z" fill="#E09230"/>
</g>
<g style="mix-blend-mode:screen" opacity="0.4">
<path d="M68.0945 76.1755C68.1287 76.1409 68.152 76.0969 68.1613 76.049C68.1706 76.0012 68.1656 75.9517 68.1468 75.9067C68.128 75.8617 68.0964 75.8233 68.0558 75.7963C68.0153 75.7693 67.9676 75.7549 67.9189 75.7549C67.8702 75.7549 67.8225 75.7693 67.7819 75.7963C67.7414 75.8233 67.7097 75.8617 67.6909 75.9067C67.6722 75.9517 67.6671 76.0012 67.6764 76.049C67.6857 76.0969 67.709 76.1409 67.7433 76.1755C67.7902 76.2215 67.8532 76.2472 67.9189 76.2472C67.9845 76.2472 68.0476 76.2215 68.0945 76.1755Z" fill="#E09230"/>
</g>
<g style="mix-blend-mode:screen" opacity="0.4">
<path d="M68.9511 77.2792C69.0875 77.2792 69.1981 77.1687 69.1981 77.0323C69.1981 76.8959 69.0875 76.7853 68.9511 76.7853C68.8147 76.7853 68.7041 76.8959 68.7041 77.0323C68.7041 77.1687 68.8147 77.2792 68.9511 77.2792Z" fill="#E09230"/>
</g>
<g style="mix-blend-mode:screen" opacity="0.4">
<path d="M69.9854 78.3134C70.1218 78.3134 70.2324 78.2029 70.2324 78.0665C70.2324 77.9301 70.1218 77.8195 69.9854 77.8195C69.849 77.8195 69.7384 77.9301 69.7384 78.0665C69.7384 78.2029 69.849 78.3134 69.9854 78.3134Z" fill="#E09230"/>
</g>
<g style="mix-blend-mode:screen" opacity="0.4">
<path d="M65.2041 74.9214C65.2383 74.8867 65.2616 74.8427 65.2709 74.7949C65.2802 74.747 65.2752 74.6975 65.2564 74.6525C65.2376 74.6076 65.206 74.5691 65.1654 74.5421C65.1249 74.5151 65.0772 74.5007 65.0285 74.5007C64.9798 74.5007 64.9321 74.5151 64.8916 74.5421C64.851 74.5691 64.8193 74.6076 64.8006 74.6525C64.7818 74.6975 64.7767 74.747 64.786 74.7949C64.7954 74.8427 64.8186 74.8867 64.8529 74.9214C64.8998 74.9673 64.9628 74.9931 65.0285 74.9931C65.0942 74.9931 65.1572 74.9673 65.2041 74.9214Z" fill="#E09230"/>
</g>
<g style="mix-blend-mode:screen" opacity="0.4">
<path d="M66.2459 75.9556C66.2802 75.9209 66.3034 75.8769 66.3127 75.8291C66.3221 75.7812 66.317 75.7317 66.2982 75.6868C66.2795 75.6418 66.2478 75.6034 66.2073 75.5764C66.1667 75.5493 66.1191 75.5349 66.0703 75.5349C66.0216 75.5349 65.9739 75.5493 65.9334 75.5764C65.8928 75.6034 65.8612 75.6418 65.8424 75.6868C65.8237 75.7317 65.8186 75.7812 65.8279 75.8291C65.8372 75.8769 65.8605 75.9209 65.8948 75.9556C65.9416 76.0015 66.0047 76.0273 66.0703 76.0273C66.136 76.0273 66.199 76.0015 66.2459 75.9556Z" fill="#E09230"/>
</g>
<g style="mix-blend-mode:screen" opacity="0.4">
<path d="M67.1027 77.0593C67.2391 77.0593 67.3497 76.9487 67.3497 76.8123C67.3497 76.6759 67.2391 76.5653 67.1027 76.5653C66.9663 76.5653 66.8557 76.6759 66.8557 76.8123C66.8557 76.9487 66.9663 77.0593 67.1027 77.0593Z" fill="#E09230"/>
</g>
<g style="mix-blend-mode:screen" opacity="0.4">
<path d="M68.137 78.0935C68.2734 78.0935 68.384 77.9829 68.384 77.8465C68.384 77.7101 68.2734 77.5995 68.137 77.5995C68.0006 77.5995 67.89 77.7101 67.89 77.8465C67.89 77.9829 68.0006 78.0935 68.137 78.0935Z" fill="#E09230"/>
</g>
<g style="mix-blend-mode:screen" opacity="0.4">
<path d="M69.3487 79.066C69.383 79.0313 69.4063 78.9873 69.4156 78.9395C69.4249 78.8916 69.4198 78.8421 69.4011 78.7971C69.3823 78.7522 69.3507 78.7138 69.3101 78.6867C69.2695 78.6597 69.2219 78.6453 69.1732 78.6453C69.1244 78.6453 69.0768 78.6597 69.0362 78.6867C68.9957 78.7138 68.964 78.7522 68.9452 78.7971C68.9264 78.8421 68.9214 78.8916 68.9307 78.9395C68.94 78.9873 68.9633 79.0313 68.9975 79.066C69.0444 79.1119 69.1075 79.1377 69.1732 79.1377C69.2388 79.1377 69.3018 79.1119 69.3487 79.066Z" fill="#E09230"/>
</g>
<g style="mix-blend-mode:screen" opacity="0.4">
<path d="M64.2239 75.8089C64.3603 75.8089 64.4709 75.6984 64.4709 75.5619C64.4709 75.4255 64.3603 75.315 64.2239 75.315C64.0875 75.315 63.9769 75.4255 63.9769 75.5619C63.9769 75.6984 64.0875 75.8089 64.2239 75.8089Z" fill="#E09230"/>
</g>
<g style="mix-blend-mode:screen" opacity="0.4">
<path d="M65.2581 76.8393C65.3945 76.8393 65.5051 76.7287 65.5051 76.5923C65.5051 76.4559 65.3945 76.3453 65.2581 76.3453C65.1217 76.3453 65.0111 76.4559 65.0111 76.5923C65.0111 76.7287 65.1217 76.8393 65.2581 76.8393Z" fill="#E09230"/>
</g>
<g style="mix-blend-mode:screen" opacity="0.4">
<path d="M66.4659 77.8041C66.5002 77.7694 66.5234 77.7254 66.5328 77.6776C66.5421 77.6297 66.537 77.5802 66.5183 77.5352C66.4995 77.4903 66.4678 77.4518 66.4272 77.4248C66.3867 77.3978 66.339 77.3834 66.2903 77.3834C66.2416 77.3834 66.194 77.3978 66.1534 77.4248C66.1128 77.4518 66.0812 77.4903 66.0624 77.5352C66.0436 77.5802 66.0386 77.6297 66.0479 77.6776C66.0572 77.7254 66.0805 77.7694 66.1147 77.8041C66.1616 77.85 66.2246 77.8758 66.2903 77.8758C66.356 77.8758 66.419 77.85 66.4659 77.8041Z" fill="#E09230"/>
</g>
<g style="mix-blend-mode:screen" opacity="0.4">
<path d="M67.3227 78.9077C67.4591 78.9077 67.5696 78.7971 67.5696 78.6607C67.5696 78.5243 67.4591 78.4138 67.3227 78.4138C67.1863 78.4138 67.0757 78.5243 67.0757 78.6607C67.0757 78.7971 67.1863 78.9077 67.3227 78.9077Z" fill="#E09230"/>
</g>
<g style="mix-blend-mode:screen" opacity="0.4">
<path d="M68.5344 79.8686C68.5687 79.834 68.5919 79.79 68.6012 79.7421C68.6106 79.6943 68.6055 79.6448 68.5867 79.5998C68.568 79.5548 68.5363 79.5164 68.4957 79.4894C68.4552 79.4624 68.4076 79.448 68.3588 79.448C68.3101 79.448 68.2624 79.4624 68.2219 79.4894C68.1813 79.5164 68.1496 79.5548 68.1309 79.5998C68.1121 79.6448 68.1071 79.6943 68.1164 79.7421C68.1257 79.79 68.1489 79.834 68.1832 79.8686C68.2301 79.9146 68.2932 79.9403 68.3588 79.9403C68.4245 79.9403 68.4875 79.9146 68.5344 79.8686Z" fill="#E09230"/>
</g>
<g style="mix-blend-mode:screen" opacity="0.4">
<path d="M63.5833 76.5499C63.6293 76.503 63.655 76.4399 63.655 76.3743C63.655 76.3086 63.6293 76.2456 63.5833 76.1987C63.5607 76.1756 63.5337 76.1572 63.5039 76.1447C63.474 76.1322 63.442 76.1257 63.4096 76.1257C63.3773 76.1257 63.3453 76.1322 63.3155 76.1447C63.2857 76.1572 63.2586 76.1756 63.236 76.1987C63.19 76.2456 63.1643 76.3086 63.1643 76.3743C63.1643 76.4399 63.19 76.503 63.236 76.5499C63.2586 76.573 63.2857 76.5913 63.3155 76.6039C63.3453 76.6164 63.3773 76.6228 63.4096 76.6228C63.442 76.6228 63.474 76.6164 63.5039 76.6039C63.5337 76.5913 63.5607 76.573 63.5833 76.5499Z" fill="#E09230"/>
</g>
<g style="mix-blend-mode:screen" opacity="0.4">
<path d="M64.4439 77.6536C64.5803 77.6536 64.6909 77.543 64.6909 77.4066C64.6909 77.2702 64.5803 77.1596 64.4439 77.1596C64.3075 77.1596 64.1969 77.2702 64.1969 77.4066C64.1969 77.543 64.3075 77.6536 64.4439 77.6536Z" fill="#E09230"/>
</g>
<g style="mix-blend-mode:screen" opacity="0.4">
<path d="M65.4743 78.6878C65.6107 78.6878 65.7212 78.5772 65.7212 78.4408C65.7212 78.3044 65.6107 78.1938 65.4743 78.1938C65.3379 78.1938 65.2273 78.3044 65.2273 78.4408C65.2273 78.5772 65.3379 78.6878 65.4743 78.6878Z" fill="#E09230"/>
</g>
<g style="mix-blend-mode:screen" opacity="0.4">
<path d="M66.686 79.6487C66.7202 79.614 66.7435 79.57 66.7528 79.5222C66.7621 79.4743 66.7571 79.4248 66.7383 79.3798C66.7195 79.3349 66.6879 79.2964 66.6473 79.2694C66.6068 79.2424 66.5591 79.228 66.5104 79.228C66.4617 79.228 66.414 79.2424 66.3735 79.2694C66.3329 79.2964 66.3013 79.3349 66.2825 79.3798C66.2637 79.4248 66.2587 79.4743 66.268 79.5222C66.2773 79.57 66.3006 79.614 66.3348 79.6487C66.3817 79.6946 66.4447 79.7204 66.5104 79.7204C66.576 79.7204 66.6391 79.6946 66.686 79.6487Z" fill="#E09230"/>
</g>
<g style="mix-blend-mode:screen" opacity="0.4">
<path d="M67.7202 80.6829C67.7545 80.6482 67.7777 80.6042 67.787 80.5564C67.7963 80.5085 67.7913 80.459 67.7725 80.4141C67.7538 80.3691 67.7221 80.3307 67.6815 80.3036C67.641 80.2766 67.5933 80.2622 67.5446 80.2622C67.4958 80.2622 67.4482 80.2766 67.4077 80.3036C67.3671 80.3307 67.3354 80.3691 67.3167 80.4141C67.2979 80.459 67.2928 80.5085 67.3022 80.5564C67.3115 80.6042 67.3347 80.6482 67.369 80.6829C67.4159 80.7288 67.4789 80.7546 67.5446 80.7546C67.6102 80.7546 67.6733 80.7288 67.7202 80.6829Z" fill="#E09230"/>
</g>
<g style="mix-blend-mode:screen" opacity="0.4">
<path d="M62.5954 77.4336C62.7318 77.4336 62.8423 77.323 62.8423 77.1866C62.8423 77.0502 62.7318 76.9396 62.5954 76.9396C62.459 76.9396 62.3484 77.0502 62.3484 77.1866C62.3484 77.323 62.459 77.4336 62.5954 77.4336Z" fill="#E09230"/>
</g>
<g style="mix-blend-mode:screen" opacity="0.4">
<path d="M63.6297 78.4678C63.7661 78.4678 63.8766 78.3572 63.8766 78.2208C63.8766 78.0844 63.7661 77.9738 63.6297 77.9738C63.4933 77.9738 63.3827 78.0844 63.3827 78.2208C63.3827 78.3572 63.4933 78.4678 63.6297 78.4678Z" fill="#E09230"/>
</g>
<g style="mix-blend-mode:screen" opacity="0.4">
<path d="M64.6637 79.502C64.8001 79.502 64.9107 79.3914 64.9107 79.255C64.9107 79.1186 64.8001 79.0081 64.6637 79.0081C64.5273 79.0081 64.4167 79.1186 64.4167 79.255C64.4167 79.3914 64.5273 79.502 64.6637 79.502Z" fill="#E09230"/>
</g>
<g style="mix-blend-mode:screen" opacity="0.4">
<path d="M65.8716 80.4629C65.9059 80.4283 65.9292 80.3842 65.9385 80.3364C65.9478 80.2886 65.9427 80.2391 65.924 80.1941C65.9052 80.1491 65.8736 80.1107 65.833 80.0837C65.7925 80.0567 65.7448 80.0422 65.6961 80.0422C65.6473 80.0422 65.5997 80.0567 65.5591 80.0837C65.5186 80.1107 65.4869 80.1491 65.4681 80.1941C65.4493 80.2391 65.4443 80.2886 65.4537 80.3364C65.463 80.3842 65.4862 80.4283 65.5205 80.4629C65.5673 80.5089 65.6304 80.5346 65.6961 80.5346C65.7617 80.5346 65.8248 80.5089 65.8716 80.4629Z" fill="#E09230"/>
</g>
<g style="mix-blend-mode:screen" opacity="0.4">
<path d="M66.9059 81.4971C66.9401 81.4625 66.9634 81.4185 66.9727 81.3706C66.982 81.3228 66.977 81.2733 66.9582 81.2283C66.9394 81.1833 66.9077 81.1449 66.8672 81.1179C66.8266 81.0909 66.779 81.0765 66.7302 81.0765C66.6815 81.0765 66.6339 81.0909 66.5933 81.1179C66.5527 81.1449 66.5211 81.1833 66.5023 81.2283C66.4836 81.2733 66.4785 81.3228 66.4878 81.3706C66.4971 81.4185 66.5204 81.4625 66.5547 81.4971C66.6016 81.5431 66.6646 81.5688 66.7302 81.5688C66.7959 81.5688 66.859 81.5431 66.9059 81.4971Z" fill="#E09230"/>
</g>
<g style="mix-blend-mode:screen" opacity="0.4">
<path d="M61.9548 78.1784C61.9784 78.1557 61.9972 78.1285 62.0102 78.0985C62.0232 78.0685 62.0301 78.0362 62.0305 78.0035C62.0309 77.9707 62.0248 77.9383 62.0125 77.9079C62.0003 77.8776 61.9821 77.85 61.9591 77.8268C61.9361 77.8035 61.9087 77.785 61.8785 77.7725C61.8483 77.7599 61.8159 77.7534 61.7832 77.7534C61.7505 77.7535 61.7181 77.76 61.688 77.7727C61.6578 77.7854 61.6305 77.8039 61.6075 77.8272C61.5616 77.8741 61.5358 77.9371 61.5358 78.0028C61.5358 78.0684 61.5616 78.1315 61.6075 78.1784C61.6301 78.2015 61.6572 78.2198 61.687 78.2324C61.7168 78.2449 61.7488 78.2513 61.7811 78.2513C61.8135 78.2513 61.8455 78.2449 61.8753 78.2324C61.9051 78.2198 61.9321 78.2015 61.9548 78.1784Z" fill="#E09230"/>
</g>
<g style="mix-blend-mode:screen" opacity="0.4">
<path d="M62.8153 79.2821C62.9517 79.2821 63.0623 79.1715 63.0623 79.0351C63.0623 78.8987 62.9517 78.7881 62.8153 78.7881C62.6789 78.7881 62.5684 78.8987 62.5684 79.0351C62.5684 79.1715 62.6789 79.2821 62.8153 79.2821Z" fill="#E09230"/>
</g>
<g style="mix-blend-mode:screen" opacity="0.4">
<path d="M64.0231 80.243C64.0462 80.2203 64.0646 80.1933 64.0771 80.1635C64.0897 80.1337 64.0961 80.1016 64.0961 80.0693C64.0961 80.037 64.0897 80.0049 64.0771 79.9751C64.0646 79.9453 64.0462 79.9183 64.0231 79.8956C63.9762 79.8497 63.9132 79.8239 63.8475 79.8239C63.7819 79.8239 63.7189 79.8497 63.672 79.8956C63.6489 79.9183 63.6305 79.9453 63.618 79.9751C63.6055 80.0049 63.599 80.037 63.599 80.0693C63.599 80.1016 63.6055 80.1337 63.618 80.1635C63.6305 80.1933 63.6489 80.2203 63.672 80.243C63.7189 80.2889 63.7819 80.3147 63.8475 80.3147C63.9132 80.3147 63.9762 80.2889 64.0231 80.243Z" fill="#E09230"/>
</g>
<g style="mix-blend-mode:screen" opacity="0.4">
<path d="M65.0575 81.2772C65.0917 81.2425 65.115 81.1985 65.1243 81.1507C65.1336 81.1028 65.1286 81.0533 65.1098 81.0083C65.091 80.9634 65.0594 80.925 65.0188 80.8979C64.9783 80.8709 64.9306 80.8565 64.8819 80.8565C64.8332 80.8565 64.7855 80.8709 64.745 80.8979C64.7044 80.925 64.6727 80.9634 64.6539 81.0083C64.6352 81.0533 64.6301 81.1028 64.6394 81.1507C64.6488 81.1985 64.672 81.2425 64.7063 81.2772C64.7532 81.3231 64.8162 81.3489 64.8819 81.3489C64.9476 81.3489 65.0106 81.3231 65.0575 81.2772Z" fill="#E09230"/>
</g>
<g style="mix-blend-mode:screen" opacity="0.4">
<path d="M65.9141 82.3847C66.0505 82.3847 66.1611 82.2741 66.1611 82.1377C66.1611 82.0013 66.0505 81.8907 65.9141 81.8907C65.7777 81.8907 65.6671 82.0013 65.6671 82.1377C65.6671 82.2741 65.7777 82.3847 65.9141 82.3847Z" fill="#E09230"/>
</g>
<g style="mix-blend-mode:screen" opacity="0.4">
<path d="M60.9668 79.0621C61.1032 79.0621 61.2138 78.9515 61.2138 78.8151C61.2138 78.6787 61.1032 78.5681 60.9668 78.5681C60.8304 78.5681 60.7198 78.6787 60.7198 78.8151C60.7198 78.9515 60.8304 79.0621 60.9668 79.0621Z" fill="#E09230"/>
</g>
<g style="mix-blend-mode:screen" opacity="0.4">
<path d="M62.0011 80.0963C62.1375 80.0963 62.2481 79.9857 62.2481 79.8493C62.2481 79.7129 62.1375 79.6024 62.0011 79.6024C61.8647 79.6024 61.7542 79.7129 61.7542 79.8493C61.7542 79.9857 61.8647 80.0963 62.0011 80.0963Z" fill="#E09230"/>
</g>
<g style="mix-blend-mode:screen" opacity="0.4">
<path d="M63.2089 81.0572C63.2432 81.0226 63.2664 80.9785 63.2758 80.9307C63.2851 80.8829 63.28 80.8334 63.2612 80.7884C63.2425 80.7434 63.2108 80.705 63.1703 80.678C63.1297 80.651 63.0821 80.6365 63.0333 80.6365C62.9846 80.6365 62.937 80.651 62.8964 80.678C62.8558 80.705 62.8242 80.7434 62.8054 80.7884C62.7867 80.8334 62.7816 80.8829 62.7909 80.9307C62.8002 80.9785 62.8235 81.0226 62.8578 81.0572C62.9047 81.1032 62.9677 81.1289 63.0333 81.1289C63.099 81.1289 63.162 81.1032 63.2089 81.0572Z" fill="#E09230"/>
</g>
<g style="mix-blend-mode:screen" opacity="0.4">
<path d="M64.2431 82.0914C64.2774 82.0568 64.3007 82.0128 64.31 81.9649C64.3193 81.9171 64.3142 81.8676 64.2955 81.8226C64.2767 81.7776 64.245 81.7392 64.2045 81.7122C64.1639 81.6852 64.1163 81.6707 64.0676 81.6707C64.0188 81.6707 63.9712 81.6852 63.9306 81.7122C63.8901 81.7392 63.8584 81.7776 63.8396 81.8226C63.8208 81.8676 63.8158 81.9171 63.8251 81.9649C63.8344 82.0128 63.8577 82.0568 63.892 82.0914C63.9388 82.1374 64.0019 82.1631 64.0676 82.1631C64.1332 82.1631 64.1962 82.1374 64.2431 82.0914Z" fill="#E09230"/>
</g>
<g style="mix-blend-mode:screen" opacity="0.4">
<path d="M65.2774 83.1256C65.3117 83.091 65.3349 83.047 65.3442 82.9992C65.3535 82.9513 65.3485 82.9018 65.3297 82.8568C65.311 82.8119 65.2793 82.7734 65.2388 82.7464C65.1982 82.7194 65.1506 82.705 65.1018 82.705C65.0531 82.705 65.0054 82.7194 64.9649 82.7464C64.9243 82.7734 64.8927 82.8119 64.8739 82.8568C64.8551 82.9018 64.8501 82.9513 64.8594 82.9992C64.8687 83.047 64.892 83.091 64.9263 83.1256C64.9731 83.1716 65.0362 83.1974 65.1018 83.1974C65.1675 83.1974 65.2305 83.1716 65.2774 83.1256Z" fill="#E09230"/>
</g>
<g style="mix-blend-mode:screen" opacity="0.4">
<path d="M60.1526 79.8763C60.289 79.8763 60.3996 79.7658 60.3996 79.6294C60.3996 79.493 60.289 79.3824 60.1526 79.3824C60.0162 79.3824 59.9056 79.493 59.9056 79.6294C59.9056 79.7658 60.0162 79.8763 60.1526 79.8763Z" fill="#E09230"/>
</g>
<g style="mix-blend-mode:screen" opacity="0.4">
<path d="M61.3451 80.8372C61.3799 80.8028 61.4037 80.7588 61.4134 80.7108C61.4232 80.6628 61.4185 80.613 61.3999 80.5678C61.3812 80.5225 61.3496 80.4837 61.3089 80.4565C61.2683 80.4292 61.2204 80.4146 61.1714 80.4146C61.1225 80.4146 61.0746 80.4292 61.0339 80.4565C60.9932 80.4837 60.9616 80.5225 60.943 80.5678C60.9243 80.613 60.9196 80.6628 60.9294 80.7108C60.9391 80.7588 60.9629 80.8028 60.9977 80.8372C61.0204 80.8603 61.0474 80.8787 61.0772 80.8912C61.107 80.9038 61.1391 80.9102 61.1714 80.9102C61.2038 80.9102 61.2358 80.9038 61.2656 80.8912C61.2954 80.8787 61.3224 80.8603 61.3451 80.8372Z" fill="#E09230"/>
</g>
<g style="mix-blend-mode:screen" opacity="0.4">
<path d="M62.3948 81.8714C62.4407 81.8246 62.4665 81.7615 62.4665 81.6959C62.4665 81.6302 62.4407 81.5672 62.3948 81.5203C62.3601 81.486 62.3161 81.4627 62.2683 81.4534C62.2205 81.4441 62.171 81.4492 62.126 81.4679C62.081 81.4867 62.0426 81.5184 62.0156 81.5589C61.9886 81.5995 61.9741 81.6471 61.9741 81.6959C61.9741 81.7446 61.9886 81.7922 62.0156 81.8328C62.0426 81.8733 62.081 81.905 62.126 81.9238C62.171 81.9425 62.2205 81.9476 62.2683 81.9383C62.3161 81.929 62.3601 81.9057 62.3948 81.8714Z" fill="#E09230"/>
</g>
<g style="mix-blend-mode:screen" opacity="0.4">
<path d="M63.2553 82.979C63.3917 82.979 63.5023 82.8684 63.5023 82.732C63.5023 82.5956 63.3917 82.485 63.2553 82.485C63.1189 82.485 63.0083 82.5956 63.0083 82.732C63.0083 82.8684 63.1189 82.979 63.2553 82.979Z" fill="#E09230"/>
</g>
<g style="mix-blend-mode:screen" opacity="0.4">
<path d="M64.4631 83.9399C64.4973 83.9052 64.5206 83.8612 64.5299 83.8134C64.5392 83.7656 64.5342 83.716 64.5154 83.6711C64.4966 83.6261 64.465 83.5877 64.4244 83.5607C64.3839 83.5336 64.3362 83.5192 64.2875 83.5192C64.2388 83.5192 64.1911 83.5336 64.1506 83.5607C64.11 83.5877 64.0784 83.6261 64.0596 83.6711C64.0408 83.716 64.0358 83.7656 64.0451 83.8134C64.0544 83.8612 64.0777 83.9052 64.1119 83.9399C64.1588 83.9859 64.2218 84.0116 64.2875 84.0116C64.3531 84.0116 64.4162 83.9859 64.4631 83.9399Z" fill="#E09230"/>
</g>
<g style="mix-blend-mode:screen" opacity="0.4">
<path d="M59.3384 80.6906C59.4748 80.6906 59.5854 80.58 59.5854 80.4436C59.5854 80.3072 59.4748 80.1967 59.3384 80.1967C59.202 80.1967 59.0914 80.3072 59.0914 80.4436C59.0914 80.58 59.202 80.6906 59.3384 80.6906Z" fill="#E09230"/>
</g>
<g style="mix-blend-mode:screen" opacity="0.4">
<path d="M60.5463 81.6515C60.5698 81.6291 60.5886 81.6022 60.6015 81.5724C60.6143 81.5425 60.6209 81.5103 60.6209 81.4778C60.6209 81.4453 60.6143 81.4132 60.6015 81.3833C60.5886 81.3535 60.5698 81.3265 60.5463 81.3042C60.5118 81.2694 60.4678 81.2456 60.4198 81.2358C60.3718 81.2261 60.322 81.2308 60.2768 81.2494C60.2315 81.268 60.1927 81.2997 60.1654 81.3403C60.1382 81.381 60.1237 81.4289 60.1237 81.4778C60.1237 81.5268 60.1382 81.5747 60.1654 81.6153C60.1927 81.656 60.2315 81.6877 60.2768 81.7063C60.322 81.7249 60.3718 81.7296 60.4198 81.7199C60.4678 81.7101 60.5118 81.6863 60.5463 81.6515Z" fill="#E09230"/>
</g>
<g style="mix-blend-mode:screen" opacity="0.4">
<path d="M61.5804 82.6857C61.6264 82.6388 61.6521 82.5758 61.6521 82.5101C61.6521 82.4445 61.6264 82.3814 61.5804 82.3345C61.5578 82.3114 61.5307 82.2931 61.5009 82.2806C61.4711 82.268 61.4391 82.2616 61.4068 82.2616C61.3744 82.2616 61.3424 82.268 61.3125 82.2806C61.2827 82.2931 61.2557 82.3114 61.2331 82.3345C61.1871 82.3814 61.1614 82.4445 61.1614 82.5101C61.1614 82.5758 61.1871 82.6388 61.2331 82.6857C61.2557 82.7088 61.2827 82.7272 61.3125 82.7397C61.3424 82.7522 61.3744 82.7587 61.4068 82.7587C61.4391 82.7587 61.4711 82.7522 61.5009 82.7397C61.5307 82.7272 61.5578 82.7088 61.5804 82.6857Z" fill="#E09230"/>
</g>
<g style="mix-blend-mode:screen" opacity="0.4">
<path d="M62.6147 83.7199C62.649 83.6853 62.6723 83.6413 62.6816 83.5934C62.6909 83.5456 62.6858 83.4961 62.6671 83.4511C62.6483 83.4061 62.6166 83.3677 62.576 83.3407C62.5355 83.3137 62.4878 83.2993 62.4391 83.2993C62.3904 83.2993 62.3427 83.3137 62.3022 83.3407C62.2616 83.3677 62.23 83.4061 62.2112 83.4511C62.1924 83.4961 62.1874 83.5456 62.1967 83.5934C62.206 83.6413 62.2293 83.6853 62.2635 83.7199C62.3104 83.7659 62.3734 83.7916 62.4391 83.7916C62.5048 83.7916 62.5678 83.7659 62.6147 83.7199Z" fill="#E09230"/>
</g>
<g style="mix-blend-mode:screen" opacity="0.4">
<path d="M63.4713 84.8275C63.6077 84.8275 63.7183 84.7169 63.7183 84.5805C63.7183 84.4441 63.6077 84.3335 63.4713 84.3335C63.3349 84.3335 63.2244 84.4441 63.2244 84.5805C63.2244 84.7169 63.3349 84.8275 63.4713 84.8275Z" fill="#E09230"/>
</g>
<g style="mix-blend-mode:screen" opacity="0.4">
<path d="M58.7016 81.4315C58.7247 81.4089 58.7431 81.3819 58.7556 81.3521C58.7681 81.3222 58.7746 81.2902 58.7746 81.2579C58.7746 81.2255 58.7681 81.1935 58.7556 81.1637C58.7431 81.1339 58.7247 81.1069 58.7016 81.0842C58.6547 81.0383 58.5917 81.0125 58.526 81.0125C58.4603 81.0125 58.3973 81.0383 58.3504 81.0842C58.3273 81.1069 58.309 81.1339 58.2965 81.1637C58.2839 81.1935 58.2775 81.2255 58.2775 81.2579C58.2775 81.2902 58.2839 81.3222 58.2965 81.3521C58.309 81.3819 58.3273 81.4089 58.3504 81.4315C58.3973 81.4775 58.4603 81.5032 58.526 81.5032C58.5917 81.5032 58.6547 81.4775 58.7016 81.4315Z" fill="#E09230"/>
</g>
<g style="mix-blend-mode:screen" opacity="0.4">
<path d="M59.7358 82.4657C59.77 82.4311 59.7933 82.3871 59.8026 82.3392C59.8119 82.2914 59.8069 82.2419 59.7881 82.1969C59.7693 82.152 59.7377 82.1135 59.6971 82.0865C59.6566 82.0595 59.6089 82.0451 59.5602 82.0451C59.5115 82.0451 59.4638 82.0595 59.4233 82.0865C59.3827 82.1135 59.3511 82.152 59.3323 82.1969C59.3135 82.2419 59.3085 82.2914 59.3178 82.3392C59.3271 82.3871 59.3504 82.4311 59.3846 82.4657C59.4315 82.5117 59.4945 82.5375 59.5602 82.5375C59.6259 82.5375 59.6889 82.5117 59.7358 82.4657Z" fill="#E09230"/>
</g>
<g style="mix-blend-mode:screen" opacity="0.4">
<path d="M60.7662 83.4999C60.8121 83.4531 60.8379 83.39 60.8379 83.3244C60.8379 83.2587 60.8121 83.1957 60.7662 83.1488C60.7436 83.1257 60.7165 83.1073 60.6867 83.0948C60.6569 83.0823 60.6249 83.0758 60.5925 83.0758C60.5602 83.0758 60.5282 83.0823 60.4983 83.0948C60.4685 83.1073 60.4415 83.1257 60.4189 83.1488C60.3729 83.1957 60.3472 83.2587 60.3472 83.3244C60.3472 83.39 60.3729 83.4531 60.4189 83.4999C60.4415 83.5231 60.4685 83.5414 60.4983 83.5539C60.5282 83.5665 60.5602 83.5729 60.5925 83.5729C60.6249 83.5729 60.6569 83.5665 60.6867 83.5539C60.7165 83.5414 60.7436 83.5231 60.7662 83.4999Z" fill="#E09230"/>
</g>
<g style="mix-blend-mode:screen" opacity="0.4">
<path d="M61.8005 84.5342C61.8348 84.4995 61.858 84.4555 61.8673 84.4077C61.8766 84.3599 61.8716 84.3103 61.8528 84.2654C61.8341 84.2204 61.8024 84.182 61.7618 84.155C61.7213 84.1279 61.6736 84.1135 61.6249 84.1135C61.5762 84.1135 61.5285 84.1279 61.488 84.155C61.4474 84.182 61.4158 84.2204 61.397 84.2654C61.3782 84.3103 61.3732 84.3599 61.3825 84.4077C61.3918 84.4555 61.4151 84.4995 61.4493 84.5342C61.4962 84.5802 61.5592 84.6059 61.6249 84.6059C61.6906 84.6059 61.7536 84.5802 61.8005 84.5342Z" fill="#E09230"/>
</g>
<g style="mix-blend-mode:screen" opacity="0.4">
<path d="M62.8346 85.5684C62.8688 85.5338 62.8921 85.4897 62.9014 85.4419C62.9107 85.3941 62.9057 85.3445 62.8869 85.2996C62.8681 85.2546 62.8365 85.2162 62.7959 85.1892C62.7554 85.1621 62.7077 85.1477 62.659 85.1477C62.6103 85.1477 62.5626 85.1621 62.5221 85.1892C62.4815 85.2162 62.4498 85.2546 62.431 85.2996C62.4123 85.3445 62.4072 85.3941 62.4165 85.4419C62.4259 85.4897 62.4491 85.5338 62.4834 85.5684C62.5303 85.6144 62.5933 85.6401 62.659 85.6401C62.7247 85.6401 62.7877 85.6144 62.8346 85.5684Z" fill="#E09230"/>
</g>
</g>
<g style="mix-blend-mode:multiply" opacity="0.4">
<path d="M108.788 40.6057L106.308 38.1253L74.6245 69.8087L77.1049 72.2891L108.788 40.6057Z" fill="#D8D6C7"/>
</g>
<g style="mix-blend-mode:multiply" opacity="0.4">
<path d="M77.1018 72.2943L74.6213 69.8139L60.1044 84.3308L62.5849 86.8112L77.1018 72.2943Z" fill="#E09230"/>
</g>
<path d="M109.066 40.3329L108.68 40.7188C106.636 39.1197 104.793 37.2784 103.192 35.2352L103.578 34.8493C104.107 35.378 104.859 35.5902 105.415 36.088C105.701 36.3427 105.971 36.6167 106.237 36.8907C106.916 37.5879 107.597 38.2838 108.278 38.9784C108.648 39.3587 108.918 39.8238 109.066 40.3329Z" fill="#A2A195"/>
<path d="M114.669 91.5769L52.4307 29.3424" stroke="#CF4339" stroke-width="10" stroke-miterlimit="10"/>
</g>
<g filter="url(#filter0_b_136:22325)">
<rect x="13" y="77" width="141" height="77" rx="10" fill="black" fill-opacity="0.8"/>
</g>
<path d="M39.8545 108.214L39.9245 111H37.8805L34.1985 104.896H34.0865L34.0725 107.892L34.1285 111H32.4065L32.5045 108.34L32.4205 101.984H34.4505L38.1325 108.088H38.2585L38.2165 102.068L39.9665 101.956L39.8545 108.214ZM44.2461 104.364C44.9647 104.364 45.5247 104.527 45.9261 104.854C46.3367 105.171 46.5421 105.619 46.5421 106.198C46.5421 106.366 46.5141 106.898 46.4581 107.794C46.4487 108.055 46.4347 108.326 46.4161 108.606C46.3974 108.877 46.3881 109.11 46.3881 109.306C46.3881 109.465 46.4114 109.577 46.4581 109.642C46.5047 109.698 46.5887 109.726 46.7101 109.726C46.8034 109.726 46.9247 109.707 47.0741 109.67L47.2141 109.782L47.0461 110.762C46.7474 110.958 46.4067 111.075 46.0241 111.112C45.7441 111.084 45.5107 110.986 45.3241 110.818C45.1374 110.641 45.0114 110.398 44.9461 110.09H44.8481C44.3814 110.585 43.9007 110.93 43.4061 111.126C42.7341 111.117 42.2067 110.939 41.8241 110.594C41.4414 110.249 41.2501 109.777 41.2501 109.18C41.2501 108.713 41.3667 108.349 41.6001 108.088C41.8427 107.817 42.2067 107.635 42.6921 107.542L44.8341 107.136V106.562C44.8341 105.955 44.5354 105.652 43.9381 105.652C43.6487 105.652 43.3407 105.717 43.0141 105.848C42.6967 105.979 42.3374 106.184 41.9361 106.464L41.7961 106.38L41.5861 105.148C41.9874 104.896 42.4167 104.705 42.8741 104.574C43.3314 104.434 43.7887 104.364 44.2461 104.364ZM43.3361 108.396C43.1867 108.433 43.0747 108.499 43.0001 108.592C42.9347 108.676 42.9021 108.807 42.9021 108.984C42.9021 109.227 42.9674 109.418 43.0981 109.558C43.2287 109.689 43.4107 109.754 43.6441 109.754C44.0081 109.754 44.3907 109.539 44.7921 109.11L44.8201 108.074L43.3361 108.396ZM46.5421 101.732V101.886L45.5621 103.132L45.3801 103.202C45.1281 103.174 44.7407 103.085 44.2181 102.936C44.1714 102.927 44.0174 102.889 43.7561 102.824C43.5041 102.749 43.3267 102.712 43.2241 102.712C43.1214 102.712 43.0187 102.754 42.9161 102.838C42.8227 102.922 42.7201 103.025 42.6081 103.146C42.4961 103.267 42.4121 103.361 42.3561 103.426H42.1881L41.6281 102.88V102.726L42.6221 101.48L42.7901 101.41C43.0141 101.438 43.4107 101.531 43.9801 101.69C44.5027 101.83 44.8247 101.9 44.9461 101.9C45.0581 101.9 45.1654 101.853 45.2681 101.76C45.3801 101.667 45.4921 101.559 45.6041 101.438C45.7161 101.317 45.7907 101.233 45.8281 101.186H45.9961L46.5421 101.732ZM51.1263 104.364C52.0783 104.364 52.8063 104.644 53.3103 105.204C53.8143 105.764 54.0663 106.571 54.0663 107.626C54.0663 108.765 53.7956 109.637 53.2543 110.244C52.713 110.841 51.9336 111.14 50.9163 111.14C49.9643 111.14 49.2363 110.86 48.7323 110.3C48.2283 109.74 47.9763 108.933 47.9763 107.878C47.9763 106.739 48.247 105.871 48.7883 105.274C49.3296 104.667 50.109 104.364 51.1263 104.364ZM51.0003 105.624C50.5523 105.624 50.2256 105.773 50.0203 106.072C49.8243 106.371 49.7263 106.851 49.7263 107.514C49.7263 108.373 49.829 108.984 50.0343 109.348C50.2396 109.712 50.5756 109.894 51.0423 109.894C51.4903 109.894 51.8123 109.749 52.0083 109.46C52.2136 109.161 52.3163 108.676 52.3163 108.004C52.3163 107.155 52.209 106.548 51.9943 106.184C51.789 105.811 51.4576 105.624 51.0003 105.624ZM57.5874 108.312L57.5174 104.616L59.3514 104.462L59.2674 108.13L59.3514 111H57.4894L57.5874 108.312ZM58.4694 101.298C58.7588 101.298 58.9828 101.382 59.1414 101.55C59.3094 101.718 59.3934 101.951 59.3934 102.25C59.3934 102.567 59.3048 102.819 59.1274 103.006C58.9501 103.193 58.7074 103.286 58.3994 103.286C58.0914 103.286 57.8534 103.202 57.6854 103.034C57.5268 102.866 57.4474 102.628 57.4474 102.32C57.4474 102.012 57.5361 101.765 57.7134 101.578C57.9001 101.391 58.1521 101.298 58.4694 101.298ZM65.1158 106.94C65.1251 106.613 65.0505 106.361 64.8918 106.184C64.7425 105.997 64.5231 105.904 64.2338 105.904C63.8138 105.904 63.3658 106.105 62.8898 106.506V108.13L62.9738 111H61.1118L61.2098 108.312L61.1398 104.616L62.9038 104.462V105.414H63.0018C63.5151 104.947 64.0751 104.611 64.6818 104.406C65.3911 104.406 65.9325 104.569 66.3058 104.896C66.6791 105.213 66.8565 105.675 66.8378 106.282L66.7958 108.144L66.8798 111H65.0038L65.1158 106.94ZM74.78 105.372C74.528 105.437 74.1686 105.507 73.702 105.582L73.674 105.638C73.814 105.918 73.884 106.231 73.884 106.576C73.884 107.276 73.6273 107.836 73.114 108.256C72.61 108.667 71.924 108.872 71.056 108.872C70.7946 108.872 70.524 108.849 70.244 108.802C70.16 108.886 70.104 108.951 70.076 108.998C70.048 109.045 70.034 109.101 70.034 109.166C70.034 109.334 70.146 109.451 70.37 109.516C70.594 109.581 70.9486 109.647 71.434 109.712C71.9846 109.777 72.442 109.857 72.806 109.95C73.1793 110.043 73.4966 110.207 73.758 110.44C74.0286 110.673 74.164 111.005 74.164 111.434C74.164 111.873 74.024 112.265 73.744 112.61C73.4733 112.965 73.0953 113.24 72.61 113.436C72.1246 113.632 71.574 113.73 70.958 113.73C70.1086 113.73 69.4553 113.557 68.998 113.212C68.5406 112.867 68.312 112.409 68.312 111.84C68.6013 111.439 68.9886 111.089 69.474 110.79V110.72C69.1566 110.608 68.9093 110.454 68.732 110.258C68.5546 110.053 68.466 109.782 68.466 109.446C68.718 109.138 69.0353 108.853 69.418 108.592V108.522C69.082 108.335 68.8253 108.093 68.648 107.794C68.48 107.486 68.396 107.127 68.396 106.716C68.396 105.988 68.648 105.419 69.152 105.008C69.656 104.597 70.342 104.392 71.21 104.392C71.714 104.392 72.1713 104.476 72.582 104.644C73.254 104.523 73.94 104.336 74.64 104.084L74.78 104.21V105.372ZM71.112 107.752C71.4946 107.752 71.784 107.654 71.98 107.458C72.176 107.262 72.274 106.977 72.274 106.604C72.274 105.895 71.91 105.54 71.182 105.54C70.398 105.54 70.006 105.899 70.006 106.618C70.006 106.991 70.0993 107.276 70.286 107.472C70.4726 107.659 70.748 107.752 71.112 107.752ZM72.596 111.77C72.596 111.518 72.4606 111.345 72.19 111.252C71.9286 111.159 71.5226 111.079 70.972 111.014L70.496 110.944C70.272 111.093 70.104 111.238 69.992 111.378C69.88 111.518 69.824 111.667 69.824 111.826C69.824 112.069 69.936 112.265 70.16 112.414C70.384 112.563 70.7106 112.638 71.14 112.638C71.5786 112.638 71.9286 112.559 72.19 112.4C72.4606 112.251 72.596 112.041 72.596 111.77ZM80.5073 107.976L76.7273 108.004C76.8113 109.171 77.4039 109.754 78.5053 109.754C79.0839 109.754 79.7279 109.591 80.4373 109.264L80.5913 109.362L80.3113 110.748C79.6019 111.009 78.9346 111.14 78.3093 111.14C77.2826 111.14 76.4753 110.841 75.8873 110.244C75.3086 109.647 75.0193 108.821 75.0193 107.766C75.0193 106.721 75.3039 105.895 75.8733 105.288C76.4426 104.672 77.2126 104.364 78.1833 104.364C79.0139 104.364 79.6533 104.593 80.1013 105.05C80.5586 105.498 80.7873 106.128 80.7873 106.94C80.7873 107.155 80.7639 107.425 80.7173 107.752L80.5073 107.976ZM79.1633 106.73C79.1633 106.357 79.0793 106.077 78.9113 105.89C78.7433 105.694 78.4959 105.596 78.1693 105.596C77.8053 105.596 77.5019 105.717 77.2593 105.96C77.0166 106.193 76.8533 106.534 76.7693 106.982L79.1353 106.926L79.1633 106.73ZM85.6688 104.476C85.7528 104.476 85.8695 104.485 86.0188 104.504V106.226L85.8228 106.296C85.6641 106.231 85.4915 106.198 85.3048 106.198C84.7635 106.198 84.2735 106.548 83.8348 107.248V108.13L83.9328 111H82.0708L82.1828 108.312L82.0988 104.616L83.8628 104.462L83.8488 105.736H83.9608C84.4181 104.896 84.9875 104.476 85.6688 104.476ZM87.064 108.312L86.994 104.616L88.828 104.462L88.744 108.13L88.828 111H86.966L87.064 108.312ZM87.946 101.298C88.2353 101.298 88.4593 101.382 88.618 101.55C88.786 101.718 88.87 101.951 88.87 102.25C88.87 102.567 88.7813 102.819 88.604 103.006C88.4267 103.193 88.184 103.286 87.876 103.286C87.568 103.286 87.33 103.202 87.162 103.034C87.0033 102.866 86.924 102.628 86.924 102.32C86.924 102.012 87.0127 101.765 87.19 101.578C87.3767 101.391 87.6287 101.298 87.946 101.298ZM94.1864 104.476C94.2704 104.476 94.387 104.485 94.5364 104.504V106.226L94.3404 106.296C94.1817 106.231 94.009 106.198 93.8224 106.198C93.281 106.198 92.791 106.548 92.3524 107.248V108.13L92.4504 111H90.5884L90.7004 108.312L90.6164 104.616L92.3804 104.462L92.3664 105.736H92.4784C92.9357 104.896 93.505 104.476 94.1864 104.476ZM101.089 104.406C101.91 104.406 102.535 104.686 102.965 105.246C103.403 105.797 103.623 106.567 103.623 107.556C103.623 108.704 103.338 109.591 102.769 110.216C102.199 110.832 101.411 111.14 100.403 111.14C99.9267 111.14 99.404 111.033 98.8347 110.818L97.8547 111.168L97.6307 110.986L97.7287 108.326L97.6447 101.312L99.4927 101.172L99.4367 105.414H99.5207C99.782 105.162 100.034 104.961 100.277 104.812C100.519 104.653 100.79 104.518 101.089 104.406ZM100.403 109.922C100.869 109.922 101.233 109.754 101.495 109.418C101.756 109.082 101.887 108.569 101.887 107.878C101.887 107.234 101.779 106.744 101.565 106.408C101.359 106.072 101.047 105.904 100.627 105.904C100.244 105.904 99.8427 106.1 99.4227 106.492L99.3947 108.088L99.4227 109.67C99.768 109.838 100.095 109.922 100.403 109.922ZM109.943 107.976L106.163 108.004C106.247 109.171 106.839 109.754 107.941 109.754C108.519 109.754 109.163 109.591 109.873 109.264L110.027 109.362L109.747 110.748C109.037 111.009 108.37 111.14 107.745 111.14C106.718 111.14 105.911 110.841 105.323 110.244C104.744 109.647 104.455 108.821 104.455 107.766C104.455 106.721 104.739 105.895 105.309 105.288C105.878 104.672 106.648 104.364 107.619 104.364C108.449 104.364 109.089 104.593 109.537 105.05C109.994 105.498 110.223 106.128 110.223 106.94C110.223 107.155 110.199 107.425 110.153 107.752L109.943 107.976ZM108.599 106.73C108.599 106.357 108.515 106.077 108.347 105.89C108.179 105.694 107.931 105.596 107.605 105.596C107.241 105.596 106.937 105.717 106.695 105.96C106.452 106.193 106.289 106.534 106.205 106.982L108.571 106.926L108.599 106.73ZM114.966 104.406C115.787 104.406 116.412 104.686 116.842 105.246C117.28 105.797 117.5 106.567 117.5 107.556C117.5 108.704 117.215 109.591 116.646 110.216C116.076 110.832 115.288 111.14 114.28 111.14C113.804 111.14 113.281 111.033 112.712 110.818L111.732 111.168L111.508 110.986L111.606 108.326L111.522 101.312L113.37 101.172L113.314 105.414H113.398C113.659 105.162 113.911 104.961 114.154 104.812C114.396 104.653 114.667 104.518 114.966 104.406ZM114.28 109.922C114.746 109.922 115.11 109.754 115.372 109.418C115.633 109.082 115.764 108.569 115.764 107.878C115.764 107.234 115.656 106.744 115.442 106.408C115.236 106.072 114.924 105.904 114.504 105.904C114.121 105.904 113.72 106.1 113.3 106.492L113.272 108.088L113.3 109.67C113.645 109.838 113.972 109.922 114.28 109.922ZM118.906 108.312L118.836 104.616L120.67 104.462L120.586 108.13L120.67 111H118.808L118.906 108.312ZM119.788 101.298C120.077 101.298 120.301 101.382 120.46 101.55C120.628 101.718 120.712 101.951 120.712 102.25C120.712 102.567 120.623 102.819 120.446 103.006C120.268 103.193 120.026 103.286 119.718 103.286C119.41 103.286 119.172 103.202 119.004 103.034C118.845 102.866 118.766 102.628 118.766 102.32C118.766 102.012 118.854 101.765 119.032 101.578C119.218 101.391 119.47 101.298 119.788 101.298ZM127.862 108.13L127.904 109.306C127.904 109.465 127.923 109.577 127.96 109.642C128.007 109.698 128.086 109.726 128.198 109.726C128.301 109.726 128.427 109.707 128.576 109.67L128.702 109.782L128.548 110.762C128.231 110.958 127.886 111.075 127.512 111.112C127.223 111.084 126.98 110.986 126.784 110.818C126.588 110.65 126.453 110.421 126.378 110.132H126.266C125.809 110.552 125.342 110.874 124.866 111.098C123.952 111.098 123.242 110.809 122.738 110.23C122.234 109.642 121.982 108.83 121.982 107.794C121.982 106.693 122.272 105.848 122.85 105.26C123.429 104.672 124.232 104.378 125.258 104.378C125.529 104.378 125.828 104.406 126.154 104.462L126.126 101.312L127.974 101.172L127.862 108.13ZM125.132 105.638C124.199 105.638 123.732 106.231 123.732 107.416C123.732 108.153 123.844 108.709 124.068 109.082C124.292 109.455 124.619 109.642 125.048 109.642C125.459 109.642 125.837 109.451 126.182 109.068L126.21 108.298L126.168 105.89C125.804 105.722 125.459 105.638 125.132 105.638ZM132.361 104.364C133.08 104.364 133.64 104.527 134.041 104.854C134.452 105.171 134.657 105.619 134.657 106.198C134.657 106.366 134.629 106.898 134.573 107.794C134.564 108.055 134.55 108.326 134.531 108.606C134.513 108.877 134.503 109.11 134.503 109.306C134.503 109.465 134.527 109.577 134.573 109.642C134.62 109.698 134.704 109.726 134.825 109.726C134.919 109.726 135.04 109.707 135.189 109.67L135.329 109.782L135.161 110.762C134.863 110.958 134.522 111.075 134.139 111.112C133.859 111.084 133.626 110.986 133.439 110.818C133.253 110.641 133.127 110.398 133.061 110.09H132.963C132.497 110.585 132.016 110.93 131.521 111.126C130.849 111.117 130.322 110.939 129.939 110.594C129.557 110.249 129.365 109.777 129.365 109.18C129.365 108.713 129.482 108.349 129.715 108.088C129.958 107.817 130.322 107.635 130.807 107.542L132.949 107.136V106.562C132.949 105.955 132.651 105.652 132.053 105.652C131.764 105.652 131.456 105.717 131.129 105.848C130.812 105.979 130.453 106.184 130.051 106.464L129.911 106.38L129.701 105.148C130.103 104.896 130.532 104.705 130.989 104.574C131.447 104.434 131.904 104.364 132.361 104.364ZM131.451 108.396C131.302 108.433 131.19 108.499 131.115 108.592C131.05 108.676 131.017 108.807 131.017 108.984C131.017 109.227 131.083 109.418 131.213 109.558C131.344 109.689 131.526 109.754 131.759 109.754C132.123 109.754 132.506 109.539 132.907 109.11L132.935 108.074L131.451 108.396ZM27.0058 120.364C27.7245 120.364 28.2845 120.527 28.6858 120.854C29.0965 121.171 29.3018 121.619 29.3018 122.198C29.3018 122.366 29.2738 122.898 29.2178 123.794C29.2085 124.055 29.1945 124.326 29.1758 124.606C29.1572 124.877 29.1478 125.11 29.1478 125.306C29.1478 125.465 29.1712 125.577 29.2178 125.642C29.2645 125.698 29.3485 125.726 29.4698 125.726C29.5632 125.726 29.6845 125.707 29.8338 125.67L29.9738 125.782L29.8058 126.762C29.5072 126.958 29.1665 127.075 28.7838 127.112C28.5038 127.084 28.2705 126.986 28.0838 126.818C27.8972 126.641 27.7712 126.398 27.7058 126.09H27.6078C27.1412 126.585 26.6605 126.93 26.1658 127.126C25.4938 127.117 24.9665 126.939 24.5838 126.594C24.2012 126.249 24.0098 125.777 24.0098 125.18C24.0098 124.713 24.1265 124.349 24.3598 124.088C24.6025 123.817 24.9665 123.635 25.4518 123.542L27.5938 123.136V122.562C27.5938 121.955 27.2952 121.652 26.6978 121.652C26.4085 121.652 26.1005 121.717 25.7738 121.848C25.4565 121.979 25.0972 122.184 24.6958 122.464L24.5558 122.38L24.3458 121.148C24.7472 120.896 25.1765 120.705 25.6338 120.574C26.0912 120.434 26.5485 120.364 27.0058 120.364ZM26.0958 124.396C25.9465 124.433 25.8345 124.499 25.7598 124.592C25.6945 124.676 25.6618 124.807 25.6618 124.984C25.6618 125.227 25.7272 125.418 25.8578 125.558C25.9885 125.689 26.1705 125.754 26.4038 125.754C26.7678 125.754 27.1505 125.539 27.5518 125.11L27.5798 124.074L26.0958 124.396ZM33.0041 124.13L33.1021 127H31.2401L31.3381 124.298L31.2541 117.312L33.1161 117.172L33.0041 124.13ZM37.5358 120.364C37.8438 120.364 38.1471 120.397 38.4458 120.462C38.7538 120.518 39.0245 120.602 39.2578 120.714L38.9498 122.198L38.7958 122.268C38.3198 122.007 37.8951 121.876 37.5218 121.876C37.0925 121.876 36.7611 122.03 36.5278 122.338C36.2945 122.646 36.1778 123.085 36.1778 123.654C36.1778 124.307 36.3038 124.807 36.5558 125.152C36.8078 125.497 37.1671 125.67 37.6338 125.67C38.0538 125.67 38.5205 125.553 39.0338 125.32L39.1738 125.432L38.9918 126.874C38.4318 127.051 37.8578 127.14 37.2698 127.14C36.3738 127.14 35.6738 126.851 35.1698 126.272C34.6658 125.684 34.4138 124.867 34.4138 123.822C34.4138 122.739 34.6891 121.895 35.2398 121.288C35.7905 120.672 36.5558 120.364 37.5358 120.364ZM42.9505 120.364C43.9025 120.364 44.6305 120.644 45.1345 121.204C45.6385 121.764 45.8905 122.571 45.8905 123.626C45.8905 124.765 45.6199 125.637 45.0785 126.244C44.5372 126.841 43.7579 127.14 42.7405 127.14C41.7885 127.14 41.0605 126.86 40.5565 126.3C40.0525 125.74 39.8005 124.933 39.8005 123.878C39.8005 122.739 40.0712 121.871 40.6125 121.274C41.1539 120.667 41.9332 120.364 42.9505 120.364ZM42.8245 121.624C42.3765 121.624 42.0499 121.773 41.8445 122.072C41.6485 122.371 41.5505 122.851 41.5505 123.514C41.5505 124.373 41.6532 124.984 41.8585 125.348C42.0639 125.712 42.3999 125.894 42.8665 125.894C43.3145 125.894 43.6365 125.749 43.8325 125.46C44.0379 125.161 44.1405 124.676 44.1405 124.004C44.1405 123.155 44.0332 122.548 43.8185 122.184C43.6132 121.811 43.2819 121.624 42.8245 121.624ZM49.8685 120.364C50.8205 120.364 51.5485 120.644 52.0525 121.204C52.5565 121.764 52.8085 122.571 52.8085 123.626C52.8085 124.765 52.5378 125.637 51.9965 126.244C51.4552 126.841 50.6758 127.14 49.6585 127.14C48.7065 127.14 47.9785 126.86 47.4745 126.3C46.9705 125.74 46.7185 124.933 46.7185 123.878C46.7185 122.739 46.9892 121.871 47.5305 121.274C48.0718 120.667 48.8512 120.364 49.8685 120.364ZM49.7425 121.624C49.2945 121.624 48.9678 121.773 48.7625 122.072C48.5665 122.371 48.4685 122.851 48.4685 123.514C48.4685 124.373 48.5712 124.984 48.7765 125.348C48.9818 125.712 49.3178 125.894 49.7845 125.894C50.2325 125.894 50.5545 125.749 50.7505 125.46C50.9558 125.161 51.0585 124.676 51.0585 124.004C51.0585 123.155 50.9512 122.548 50.7365 122.184C50.5312 121.811 50.1998 121.624 49.7425 121.624ZM51.1425 116.878L51.8145 117.886L51.7865 118.068C51.5812 118.199 51.4272 118.292 51.3245 118.348C50.1578 119.067 49.4018 119.524 49.0565 119.72L48.8745 119.706L48.4265 119.006C49.5092 118.138 50.3538 117.424 50.9605 116.864L51.1425 116.878ZM55.9045 124.13L56.0025 127H54.1405L54.2385 124.298L54.1545 117.312L56.0165 117.172L55.9045 124.13ZM57.8882 124.312L57.8182 120.616L59.6522 120.462L59.5682 124.13L59.6522 127H57.7902L57.8882 124.312ZM58.7702 117.298C59.0595 117.298 59.2835 117.382 59.4422 117.55C59.6102 117.718 59.6942 117.951 59.6942 118.25C59.6942 118.567 59.6055 118.819 59.4282 119.006C59.2509 119.193 59.0082 119.286 58.7002 119.286C58.3922 119.286 58.1542 119.202 57.9862 119.034C57.8275 118.866 57.7482 118.628 57.7482 118.32C57.7482 118.012 57.8369 117.765 58.0142 117.578C58.2009 117.391 58.4529 117.298 58.7702 117.298ZM64.0866 120.364C64.3946 120.364 64.6979 120.397 64.9966 120.462C65.3046 120.518 65.5753 120.602 65.8086 120.714L65.5006 122.198L65.3466 122.268C64.8706 122.007 64.4459 121.876 64.0726 121.876C63.6433 121.876 63.3119 122.03 63.0786 122.338C62.8453 122.646 62.7286 123.085 62.7286 123.654C62.7286 124.307 62.8546 124.807 63.1066 125.152C63.3586 125.497 63.7179 125.67 64.1846 125.67C64.6046 125.67 65.0713 125.553 65.5846 125.32L65.7246 125.432L65.5426 126.874C64.9826 127.051 64.4086 127.14 63.8206 127.14C62.9246 127.14 62.2246 126.851 61.7206 126.272C61.2166 125.684 60.9646 124.867 60.9646 123.822C60.9646 122.739 61.2399 121.895 61.7906 121.288C62.3413 120.672 63.1066 120.364 64.0866 120.364ZM69.2246 120.364C69.9433 120.364 70.5033 120.527 70.9046 120.854C71.3153 121.171 71.5206 121.619 71.5206 122.198C71.5206 122.366 71.4926 122.898 71.4366 123.794C71.4273 124.055 71.4133 124.326 71.3946 124.606C71.3759 124.877 71.3666 125.11 71.3666 125.306C71.3666 125.465 71.3899 125.577 71.4366 125.642C71.4833 125.698 71.5673 125.726 71.6886 125.726C71.7819 125.726 71.9033 125.707 72.0526 125.67L72.1926 125.782L72.0246 126.762C71.7259 126.958 71.3853 127.075 71.0026 127.112C70.7226 127.084 70.4893 126.986 70.3026 126.818C70.1159 126.641 69.9899 126.398 69.9246 126.09H69.8266C69.3599 126.585 68.8793 126.93 68.3846 127.126C67.7126 127.117 67.1853 126.939 66.8026 126.594C66.4199 126.249 66.2286 125.777 66.2286 125.18C66.2286 124.713 66.3453 124.349 66.5786 124.088C66.8213 123.817 67.1853 123.635 67.6706 123.542L69.8126 123.136V122.562C69.8126 121.955 69.5139 121.652 68.9166 121.652C68.6273 121.652 68.3193 121.717 67.9926 121.848C67.6753 121.979 67.3159 122.184 66.9146 122.464L66.7746 122.38L66.5646 121.148C66.9659 120.896 67.3953 120.705 67.8526 120.574C68.3099 120.434 68.7673 120.364 69.2246 120.364ZM68.3146 124.396C68.1653 124.433 68.0533 124.499 67.9786 124.592C67.9133 124.676 67.8806 124.807 67.8806 124.984C67.8806 125.227 67.9459 125.418 68.0766 125.558C68.2073 125.689 68.3893 125.754 68.6226 125.754C68.9866 125.754 69.3693 125.539 69.7706 125.11L69.7986 124.074L68.3146 124.396ZM80.562 123.976L76.782 124.004C76.866 125.171 77.4586 125.754 78.56 125.754C79.1386 125.754 79.7826 125.591 80.492 125.264L80.646 125.362L80.366 126.748C79.6566 127.009 78.9893 127.14 78.364 127.14C77.3373 127.14 76.53 126.841 75.942 126.244C75.3633 125.647 75.074 124.821 75.074 123.766C75.074 122.721 75.3586 121.895 75.928 121.288C76.4973 120.672 77.2673 120.364 78.238 120.364C79.0686 120.364 79.708 120.593 80.156 121.05C80.6133 121.498 80.842 122.128 80.842 122.94C80.842 123.155 80.8186 123.425 80.772 123.752L80.562 123.976ZM79.218 122.73C79.218 122.357 79.134 122.077 78.966 121.89C78.798 121.694 78.5506 121.596 78.224 121.596C77.86 121.596 77.5566 121.717 77.314 121.96C77.0713 122.193 76.908 122.534 76.824 122.982L79.19 122.926L79.218 122.73ZM88.2486 122.94C88.258 122.613 88.1833 122.361 88.0246 122.184C87.8753 121.997 87.656 121.904 87.3666 121.904C86.9466 121.904 86.4986 122.105 86.0226 122.506V124.13L86.1066 127H84.2446L84.3426 124.312L84.2726 120.616L86.0366 120.462V121.414H86.1346C86.648 120.947 87.208 120.611 87.8146 120.406C88.524 120.406 89.0653 120.569 89.4386 120.896C89.812 121.213 89.9893 121.675 89.9706 122.282L89.9286 124.144L90.0126 127H88.1366L88.2486 122.94ZM94.2168 120.364C94.9354 120.364 95.4954 120.527 95.8968 120.854C96.3074 121.171 96.5128 121.619 96.5128 122.198C96.5128 122.366 96.4848 122.898 96.4288 123.794C96.4194 124.055 96.4054 124.326 96.3868 124.606C96.3681 124.877 96.3588 125.11 96.3588 125.306C96.3588 125.465 96.3821 125.577 96.4288 125.642C96.4754 125.698 96.5594 125.726 96.6808 125.726C96.7741 125.726 96.8954 125.707 97.0448 125.67L97.1848 125.782L97.0168 126.762C96.7181 126.958 96.3774 127.075 95.9948 127.112C95.7148 127.084 95.4814 126.986 95.2948 126.818C95.1081 126.641 94.9821 126.398 94.9168 126.09H94.8188C94.3521 126.585 93.8714 126.93 93.3768 127.126C92.7048 127.117 92.1774 126.939 91.7948 126.594C91.4121 126.249 91.2208 125.777 91.2208 125.18C91.2208 124.713 91.3374 124.349 91.5708 124.088C91.8134 123.817 92.1774 123.635 92.6628 123.542L94.8048 123.136V122.562C94.8048 121.955 94.5061 121.652 93.9088 121.652C93.6194 121.652 93.3114 121.717 92.9848 121.848C92.6674 121.979 92.3081 122.184 91.9068 122.464L91.7668 122.38L91.5568 121.148C91.9581 120.896 92.3874 120.705 92.8448 120.574C93.3021 120.434 93.7594 120.364 94.2168 120.364ZM93.3068 124.396C93.1574 124.433 93.0454 124.499 92.9708 124.592C92.9054 124.676 92.8728 124.807 92.8728 124.984C92.8728 125.227 92.9381 125.418 93.0688 125.558C93.1994 125.689 93.3814 125.754 93.6148 125.754C93.9788 125.754 94.3614 125.539 94.7628 125.11L94.7908 124.074L93.3068 124.396ZM96.5128 117.732V117.886L95.5328 119.132L95.3508 119.202C95.0988 119.174 94.7114 119.085 94.1888 118.936C94.1421 118.927 93.9881 118.889 93.7268 118.824C93.4748 118.749 93.2974 118.712 93.1948 118.712C93.0921 118.712 92.9894 118.754 92.8868 118.838C92.7934 118.922 92.6908 119.025 92.5788 119.146C92.4668 119.267 92.3828 119.361 92.3268 119.426H92.1588L91.5988 118.88V118.726L92.5928 117.48L92.7608 117.41C92.9848 117.438 93.3814 117.531 93.9508 117.69C94.4734 117.83 94.7954 117.9 94.9168 117.9C95.0288 117.9 95.1361 117.853 95.2388 117.76C95.3508 117.667 95.4628 117.559 95.5748 117.438C95.6868 117.317 95.7614 117.233 95.7988 117.186H95.9668L96.5128 117.732ZM101.097 120.364C102.049 120.364 102.777 120.644 103.281 121.204C103.785 121.764 104.037 122.571 104.037 123.626C104.037 124.765 103.766 125.637 103.225 126.244C102.684 126.841 101.904 127.14 100.887 127.14C99.935 127.14 99.207 126.86 98.703 126.3C98.199 125.74 97.947 124.933 97.947 123.878C97.947 122.739 98.2177 121.871 98.759 121.274C99.3003 120.667 100.08 120.364 101.097 120.364ZM100.971 121.624C100.523 121.624 100.196 121.773 99.991 122.072C99.795 122.371 99.697 122.851 99.697 123.514C99.697 124.373 99.7997 124.984 100.005 125.348C100.21 125.712 100.546 125.894 101.013 125.894C101.461 125.894 101.783 125.749 101.979 125.46C102.184 125.161 102.287 124.676 102.287 124.004C102.287 123.155 102.18 122.548 101.965 122.184C101.76 121.811 101.428 121.624 100.971 121.624ZM110.82 117.144C111.203 117.144 111.609 117.186 112.038 117.27L111.912 118.656L111.786 118.74C111.347 118.553 110.965 118.46 110.638 118.46C110.059 118.46 109.765 118.791 109.756 119.454L109.742 120.546H111.324L111.38 120.644L111.296 121.666H109.714L109.672 124.13L109.77 127H107.908L108.02 124.298L107.992 121.666H107.012L106.942 121.568L107.04 120.546H107.978L107.964 119.776C107.964 118.936 108.211 118.287 108.706 117.83C109.21 117.373 109.915 117.144 110.82 117.144ZM118.256 125.782L118.088 126.762C117.742 126.986 117.388 127.103 117.024 127.112C116.753 127.065 116.529 126.958 116.352 126.79C116.174 126.622 116.039 126.379 115.946 126.062H115.82C115.288 126.585 114.737 126.925 114.168 127.084C113.458 127.084 112.917 126.925 112.544 126.608C112.18 126.281 112.002 125.815 112.012 125.208L112.04 123.556L111.97 120.616L113.776 120.462L113.734 124.592C113.724 124.919 113.79 125.166 113.93 125.334C114.07 125.502 114.28 125.586 114.56 125.586C114.97 125.586 115.376 125.404 115.778 125.04V120.616L117.556 120.462L117.43 125.306C117.43 125.455 117.453 125.563 117.5 125.628C117.556 125.693 117.64 125.726 117.752 125.726C117.854 125.726 117.98 125.707 118.13 125.67L118.256 125.782ZM127.07 127L127.182 122.94C127.182 122.249 126.888 121.904 126.3 121.904C125.88 121.904 125.441 122.091 124.984 122.464L124.942 124.144L125.026 127H123.164L123.276 122.94C123.285 122.604 123.211 122.347 123.052 122.17C122.903 121.993 122.683 121.904 122.394 121.904C121.983 121.904 121.531 122.1 121.036 122.492V124.13L121.12 127H119.272L119.37 124.312L119.3 120.616L121.05 120.462V121.414H121.148C121.661 120.947 122.226 120.611 122.842 120.406C123.887 120.406 124.555 120.756 124.844 121.456H124.928C125.46 120.961 126.067 120.611 126.748 120.406C127.457 120.406 127.994 120.569 128.358 120.896C128.731 121.213 128.909 121.675 128.89 122.282L128.848 124.144L128.932 127H127.07ZM133.127 120.364C133.846 120.364 134.406 120.527 134.807 120.854C135.218 121.171 135.423 121.619 135.423 122.198C135.423 122.366 135.395 122.898 135.339 123.794C135.33 124.055 135.316 124.326 135.297 124.606C135.278 124.877 135.269 125.11 135.269 125.306C135.269 125.465 135.292 125.577 135.339 125.642C135.386 125.698 135.47 125.726 135.591 125.726C135.684 125.726 135.806 125.707 135.955 125.67L136.095 125.782L135.927 126.762C135.628 126.958 135.288 127.075 134.905 127.112C134.625 127.084 134.392 126.986 134.205 126.818C134.018 126.641 133.892 126.398 133.827 126.09H133.729C133.262 126.585 132.782 126.93 132.287 127.126C131.615 127.117 131.088 126.939 130.705 126.594C130.322 126.249 130.131 125.777 130.131 125.18C130.131 124.713 130.248 124.349 130.481 124.088C130.724 123.817 131.088 123.635 131.573 123.542L133.715 123.136V122.562C133.715 121.955 133.416 121.652 132.819 121.652C132.53 121.652 132.222 121.717 131.895 121.848C131.578 121.979 131.218 122.184 130.817 122.464L130.677 122.38L130.467 121.148C130.868 120.896 131.298 120.705 131.755 120.574C132.212 120.434 132.67 120.364 133.127 120.364ZM132.217 124.396C132.068 124.433 131.956 124.499 131.881 124.592C131.816 124.676 131.783 124.807 131.783 124.984C131.783 125.227 131.848 125.418 131.979 125.558C132.11 125.689 132.292 125.754 132.525 125.754C132.889 125.754 133.272 125.539 133.673 125.11L133.701 124.074L132.217 124.396ZM140.821 120.476C140.905 120.476 141.022 120.485 141.171 120.504V122.226L140.975 122.296C140.816 122.231 140.644 122.198 140.457 122.198C139.916 122.198 139.426 122.548 138.987 123.248V124.13L139.085 127H137.223L137.335 124.312L137.251 120.616L139.015 120.462L139.001 121.736H139.113C139.57 120.896 140.14 120.476 140.821 120.476ZM141.849 125.11C142.138 125.11 142.362 125.194 142.521 125.362C142.689 125.53 142.773 125.763 142.773 126.062C142.773 126.379 142.684 126.631 142.507 126.818C142.33 127.005 142.087 127.098 141.779 127.098C141.471 127.098 141.233 127.014 141.065 126.846C140.906 126.678 140.827 126.44 140.827 126.132C140.827 125.824 140.916 125.577 141.093 125.39C141.28 125.203 141.532 125.11 141.849 125.11Z" fill="white"/>
<defs>
<filter id="filter0_b_136:22325" x="3" y="67" width="161" height="97" filterUnits="userSpaceOnUse" color-interpolation-filters="sRGB">
<feFlood flood-opacity="0" result="BackgroundImageFix"/>
<feGaussianBlur in="BackgroundImage" stdDeviation="5"/>
<feComposite in2="SourceAlpha" operator="in" result="effect1_backgroundBlur_136:22325"/>
<feBlend mode="normal" in="SourceGraphic" in2="effect1_backgroundBlur_136:22325" result="shape"/>
</filter>
</defs>
</svg>
