<svg width="167" height="167" viewBox="0 0 167 167" fill="none" xmlns="http://www.w3.org/2000/svg">
<mask id="mask0_136:22475" style="mask-type:alpha" maskUnits="userSpaceOnUse" x="0" y="0" width="167" height="167">
<rect x="1" y="1" width="165" height="165" rx="8" fill="#5988D6" stroke="#EDE6FC" stroke-opacity="0.3"/>
</mask>
<g mask="url(#mask0_136:22475)">
<rect x="1" y="1" width="165" height="165" rx="8" fill="#A9D97A" stroke="#EDE6FC" stroke-opacity="0.3"/>
<g clip-path="url(#clip0_136:22475)">
<path d="M62.5982 97.1585C60.285 92.0425 61.2903 85.0143 62.2637 78.225C62.5982 75.8906 62.9134 73.6863 63.082 71.6247V71.6112C63.0965 71.5553 64.4834 65.9631 65.6343 57.8419C66.6945 50.3471 67.7663 39.105 66.839 28.1077L67.002 28.0942C67.9311 39.1069 66.8583 50.3587 65.7962 57.867C64.6618 65.8668 63.2979 71.4213 63.242 71.644C63.0734 73.7095 62.7601 75.9138 62.4237 78.2482C61.4541 85.0181 60.4508 92.0184 62.7457 97.0911L62.5982 97.1585Z" fill="#184655"/>
<path d="M67.0184 27.9622C66.416 29.513 66.3283 30.766 66.2473 30.792C67.1639 30.3679 67.5446 30.9173 68.5027 30.5115C67.9995 28.659 67.0184 27.9622 67.0184 27.9622Z" fill="#466EB6"/>
<path d="M77.3159 12.297C77.7814 20.0009 71.585 28.0547 67.1716 28.2966C62.9905 28.5289 55.6393 21.3368 55.1728 13.6319C54.7063 5.92705 59.2865 -0.617369 65.401 -0.98748C71.5156 -1.35759 76.8494 4.59214 77.3159 12.297Z" fill="#466EB6"/>
<g style="mix-blend-mode:screen">
<path d="M63.2179 1.35368C60.1742 0.968151 57.5612 6.33284 59.7828 7.39402C62.1028 8.50531 67.1456 1.85488 63.2179 1.35368Z" fill="#1C1C1C"/>
</g>
<path d="M77.3159 12.297C77.0904 8.56313 75.7208 5.24273 73.6736 2.85146C78.0032 11.3332 73.1917 22.61 68.5007 24.7121C66.2068 25.7396 63.4888 26.2697 60.2195 24.423C62.5414 26.8769 65.2064 28.4075 67.1716 28.2985C71.585 28.0518 77.7815 20.0009 77.3159 12.297Z" fill="#325CAB"/>
<path d="M67.5128 28.5337L66.7947 28.5752C66.776 28.5765 66.7572 28.574 66.7395 28.568C66.7217 28.5619 66.7053 28.5524 66.6913 28.5399C66.6773 28.5274 66.666 28.5122 66.6579 28.4953C66.6498 28.4783 66.6452 28.46 66.6444 28.4412C66.6423 28.4035 66.6552 28.3665 66.6803 28.3383C66.7054 28.3102 66.7407 28.2931 66.7784 28.2908L67.4964 28.2494C67.5341 28.2473 67.5711 28.2602 67.5993 28.2853C67.6275 28.3104 67.6446 28.3457 67.6468 28.3834C67.6489 28.4211 67.636 28.4581 67.6109 28.4862C67.5857 28.5144 67.5505 28.5315 67.5128 28.5337Z" fill="#184655"/>
<path d="M121.803 24.9377C121.803 24.9377 120.364 23.8427 118.801 25.1593C117.239 26.4759 117.855 26.4971 117.087 27.1603C116.32 27.8234 115.041 27.2374 114.643 28.5096C114.245 29.7819 114.778 30.1703 114.778 30.1703C114.778 30.1703 113.93 30.9944 114.207 32.2001C114.483 33.4059 115.693 34.7495 116.98 34.9953C116.98 34.9953 118.526 36.601 120.546 36.7012C122.565 36.8015 121.915 36.5991 122.681 36.8381C123.446 37.0771 125.843 36.6743 125.981 35.0377C125.981 35.0377 127.709 33.9331 126.868 32.3274C126.026 30.7216 126.183 29.407 125.988 27.541C125.792 25.675 122.777 24.8066 121.803 24.9377Z" fill="#184655"/>
<path d="M107.548 30.3168C106.555 29.7173 104.185 27.3579 103.382 26.5579C103.37 26.4615 103.276 25.8976 102.628 25.2018C102.17 24.7112 101.795 23.5632 101.52 23.9044C101.244 24.2456 101.993 25.1362 101.666 25.1574C101.339 25.1786 99.6508 23.4139 99.4011 23.7213C99.1515 24.0288 100.858 25.5873 100.566 25.6037C100.274 25.6201 98.8768 24.0288 98.524 24.4635C98.1713 24.8982 100.343 26.182 100.153 26.4152C99.9631 26.6485 98.6166 25.8032 98.3332 26.1531C98.0498 26.5029 100.228 27.22 100.057 27.2297C99.885 27.2393 98.6436 27.2518 98.6436 27.4909C98.6436 27.7617 101.806 28.0643 102.21 28.5164C103.077 29.7954 104.635 32.1327 106.157 33.1274C108.019 34.3437 112.313 36.9114 112.313 36.9114L114.294 34.1432C114.294 34.1432 108.727 31.0281 107.548 30.3168Z" fill="#F7A491"/>
<path d="M101.687 25.7299C101.618 25.8912 101.581 26.065 101.58 26.2408C101.574 26.4308 101.611 26.6199 101.688 26.7935C101.766 26.9672 101.882 27.121 102.028 27.2432C101.827 26.9029 101.607 26.5232 101.687 25.7299Z" fill="#F48C7F"/>
<path d="M107.543 56.3885C107.857 57.5451 108.418 59.3763 108.418 59.3763C108.391 59.8843 108.296 61.9989 108.186 64.5907L111.945 62.9695C111.945 62.9695 111.759 58.8684 111.921 58.6062C112.059 58.3846 112.337 58.5369 113.459 56.8386C113.783 56.348 113.823 55.4892 113.823 55.4892C113.823 55.4892 113.865 54.429 113.625 54.3326C113.512 54.2978 113.39 54.3047 113.282 54.3519C113.174 54.3991 113.086 54.4836 113.035 54.59C112.953 54.776 112.986 55.201 112.905 55.3861C112.825 55.5711 112.28 55.8063 112.048 55.8015C111.815 55.7967 111.995 52.6681 111.995 52.6681C111.995 52.6681 112.101 51.7804 112.159 51.4893C112.208 51.2406 112.414 50.511 112.414 50.511C112.414 50.511 112.65 49.4508 112.318 49.3824C112.125 49.34 111.657 50.2064 111.345 51.1173C111.009 52.1023 110.831 53.1413 110.727 53.1307C110.483 53.1047 110.567 51.39 110.567 51.39C110.567 51.39 110.789 50.5997 110.774 50.2334C110.989 49.7737 111.12 48.9294 110.715 48.8706C110.64 48.86 110.136 49.9414 110.136 49.9414C110.136 49.9414 109.944 50.699 109.836 51.0537C109.637 51.6782 109.63 52.6584 109.53 53.0931C109.446 53.4546 109.359 53.309 109.321 53.3244C109.283 53.3399 109.331 52.8425 109.372 52.1582C109.392 51.8151 109.343 51.4209 109.429 51.0276C109.502 50.6327 109.546 50.2329 109.56 49.8315C109.602 48.9448 109.047 49.0498 108.876 49.8643C108.81 50.1746 108.743 50.5129 108.674 50.8561C108.41 52.19 108.452 53.4681 108.309 53.4825C108.124 53.5008 108.185 51.1693 108.185 51.1693C108.185 51.1693 107.867 49.8884 107.614 51.0912C107.433 51.9371 107.359 52.8023 107.392 53.6666C107.441 54.0088 107.228 55.2261 107.543 56.3885Z" fill="#F8A492"/>
<path d="M107.923 61.4775C107.923 61.4775 112.181 60.3402 112.232 60.6833C113.329 68.2012 113.805 70.9115 113.959 70.9857C114.485 71.2392 121.204 64.7651 122.419 64.3063C122.998 64.0866 123.642 64.1039 124.251 64.1059C125.712 64.1059 126 64.1059 126 64.1059H126.054L126.082 65.4793C124.476 67.0022 122.901 96.4183 122.581 96.4077C122.227 96.401 115.551 96.3653 115.869 95.8082C115.869 95.8082 117.483 86.7482 118.752 80.7792C119.178 78.7744 120.368 74.5846 120.368 74.5846C118.737 75.4569 112.361 78.8043 111.327 78.412C108.111 77.1937 107.923 61.4775 107.923 61.4775Z" fill="#F47458"/>
<path d="M117.09 142.727C117.09 142.727 117.303 146.542 117.303 146.551C117.382 147.033 117.689 148.232 117.689 148.671C117.689 150.326 110.46 147.267 112.081 146.534C112.228 146.467 112.996 145.965 113.045 145.402C113.119 144.535 113.308 142.78 113.308 142.78L117.09 142.727Z" fill="#F7A491"/>
<path d="M112.099 146.519C112.099 146.519 113.795 147.025 114.664 147.152C115.534 147.278 116.68 146.213 117.294 146.501C117.968 146.817 118.215 149.701 117.902 149.937C117.589 150.173 107.782 150.214 106.289 149.945C105.239 149.756 108.63 147.698 112.099 146.519Z" fill="#184655"/>
<path d="M133.014 143.093C133.014 143.093 133.226 146.909 133.227 146.916C133.305 147.398 133.612 148.598 133.612 149.037C133.612 150.692 126.384 147.632 128.004 146.899C128.15 146.833 129.147 145.956 129.195 145.393C129.269 144.525 129.23 143.145 129.23 143.145L133.014 143.093Z" fill="#F7A491"/>
<path d="M128.022 146.885C128.022 146.885 129.718 147.392 130.588 147.518C131.457 147.644 132.603 146.579 133.217 146.866C133.892 147.183 133.922 150.035 133.922 150.035C133.922 150.035 124.307 150.435 121.943 150.016C121.122 149.871 124.553 148.064 128.022 146.885Z" fill="#184655"/>
<path d="M121.561 88.0021L118.504 89.3515L112.077 120.618L112.338 144.059L117.49 144.18C117.49 144.18 119.886 123.676 119.886 122.088C119.886 120.5 130.988 94.2767 130.988 94.2767L121.561 88.0021Z" fill="#50BFA5"/>
<path d="M123.919 89.7255C123.919 89.7255 126.17 113.815 126.17 117.877C126.17 121.939 127.995 144.665 127.995 144.665L133.16 144.634C133.16 144.634 133.532 137.707 134.087 127.515C134.173 125.919 133.975 122.696 134.087 121.046C134.889 109.162 136.479 97.9739 135.72 93.5384C135.598 92.8251 135.368 90.9582 134.921 90.4869C131.539 86.9226 123.919 89.7255 123.919 89.7255Z" fill="#3C8F7C"/>
<path d="M120.535 79.3633C121.268 75.7605 123.137 69.8484 123.689 68.5077C124.947 65.4302 126.008 64.1242 126.008 64.1242L130.994 64.2716C130.994 64.2716 131.108 64.3035 131.144 64.3092C131.551 64.3738 131.563 78.891 131.343 84.3193C131.124 89.7476 129.919 96.8106 129.919 96.8106L128.497 96.6757C128.473 97.4082 128.457 97.8901 128.457 97.8901C121.244 99.1623 117.218 95.6068 117.218 95.6068C117.218 95.6068 119.586 84.035 120.535 79.3633Z" fill="#466EB6"/>
<path d="M130.736 59.8804L130.994 64.2716C130.994 64.2716 127.916 69.9091 126.242 69.1785C124.837 68.5655 125.958 64.3092 125.958 64.3092C125.958 64.3092 126.173 63.3348 126.477 62.2139C126.689 61.4303 126.863 60.5831 126.831 59.9652C126.757 58.4636 130.736 59.8804 130.736 59.8804Z" fill="#F7A491"/>
<path d="M126.831 59.9652C126.757 58.4636 130.736 59.8804 130.736 59.8804L130.761 60.3093C130.646 60.5003 130.502 60.6729 130.335 60.8211C129.298 61.7088 127.776 62.1358 126.526 62.0259C126.715 61.2972 126.859 60.5329 126.831 59.9652Z" fill="#F47458"/>
<path d="M126.624 49.9558C126.624 49.9558 125.047 52.4743 124.978 54.561C124.91 56.6477 125.389 58.0578 125.389 58.0578L130.497 51.6204L126.624 49.9558Z" fill="#184655"/>
<path d="M124.421 54.1495C124.366 54.881 124.666 55.4988 125.096 55.5316C125.526 55.5644 125.91 54.9967 125.963 54.2651C126.016 53.5336 125.719 52.9158 125.293 52.883C124.868 52.8502 124.477 53.4179 124.421 54.1495Z" fill="#F48C7F"/>
<path d="M132.225 52.5852C132.345 52.5563 132.492 58.6207 130.772 60.0934C129.051 61.5662 125.996 61.7724 125.065 60.3585C124.035 58.7942 124.808 52.3799 127.386 50.9544C129.964 49.5289 132.225 52.5852 132.225 52.5852Z" fill="#F7A491"/>
<path d="M132.572 48.8128C133.945 49.9539 134.618 50.7963 135.581 52.8609C136.764 55.4034 134.617 58.1263 132.785 59.2337C130.954 60.3411 130.835 61.6259 130.835 61.6259L130.738 60.8385C130.695 60.598 130.697 60.3515 130.744 60.1118C130.804 59.888 130.887 59.671 130.991 59.4641C131.14 59.1219 131.617 57.9508 131.808 57.6405C132.309 56.8203 132.408 56.6429 132.129 55.8844C131.915 55.2993 132.112 53.9934 131.778 53.0295L129.265 52.5563C129.265 52.5563 127.691 52.2209 126.876 51.3303C124.542 48.7742 128.95 45.741 132.572 48.8128Z" fill="#184655"/>
<path d="M131.556 56.5668C131.266 57.2414 131.346 57.9238 131.738 58.0925C132.129 58.2612 132.682 57.8525 132.972 57.1788C133.263 56.5051 133.182 55.8227 132.79 55.654C132.399 55.4853 131.846 55.894 131.556 56.5668Z" fill="#F7A491"/>
<path d="M138.359 38.3976C138.814 39.5098 139.483 41.3055 139.483 41.3055C140.102 42.2375 141.608 44.3569 142.52 45.7632L138.727 46.3261C138.727 46.3261 136.43 42.864 136.142 42.7551C135.897 42.6587 135.862 43.024 133.938 42.358C133.383 42.1652 132.827 41.5059 132.827 41.5059C132.827 41.5059 132.757 41.3941 132.892 41.1744C133.026 40.9546 132.732 40.2183 132.909 40.3156C133.085 40.4129 133.319 40.7715 133.496 40.8688C133.673 40.9662 133.445 39.666 133.625 39.5195C133.805 39.373 133.099 38.0525 134.945 36.6068C135.092 36.4921 135.693 35.4858 136.886 36.4882C137.534 36.9861 138.042 37.6441 138.359 38.3976Z" fill="#F8A492"/>
<path d="M130.994 64.2717C130.994 64.2717 135.923 63.9122 137.181 63.3078C137.944 62.9387 142.831 58.7778 142.831 58.7778L137.276 45.2659L141.806 43.8201C141.806 43.8201 150.886 58.5889 150.129 60.265C149.346 61.9999 140.248 69.2778 138.472 72.3804C137.448 74.1673 138.419 98.4347 138.087 98.6593C135.716 99.972 125.758 101.134 125.913 100.372C130.189 79.2834 130.994 64.2717 130.994 64.2717Z" fill="#F47458"/>
<path d="M115.886 34.282L111.417 32.1905L109.985 36.5133L114.33 38.9122L115.886 34.282Z" fill="#E3B25B"/>
<path d="M132.287 40.9161C132.287 40.9161 132.309 40.331 132.955 39.5465C133.369 39.0443 133.882 38.3532 134.15 38.6626C134.418 38.972 133.549 39.4433 133.856 39.4404C134.164 39.4375 136 38.0641 136.243 38.3446C136.486 38.625 134.835 39.6939 134.99 39.7672C135.145 39.8404 136.448 38.3754 136.701 38.7176C136.955 39.0597 135.159 40.3609 135.204 40.4525C135.272 40.6028 136.595 39.585 136.872 39.905C137.149 40.225 135.207 41.1243 135.368 41.1223C135.528 41.1204 136.578 40.9739 136.585 41.2043C136.594 41.4645 134.31 42.0312 133.945 42.4929C133.58 42.9546 128.586 47.2976 127.449 47.075C126.311 46.8523 121.523 42.784 121.377 41.5879C121.23 40.3917 121.923 38.9855 122.698 38.9749C123.473 38.9643 127.925 43.2466 128.168 43.2447C128.411 43.2428 132.287 40.9161 132.287 40.9161Z" fill="#F48C7F"/>
<path d="M108.093 61.9141C108.422 62.4529 109.718 63.275 109.718 63.275C108.967 64.8548 106.318 68.3689 106.318 68.3689C106.318 68.3689 105.842 67.9246 105.949 67.433C106.055 66.9415 106.527 64.6832 105.986 63.7994C105.845 63.569 104.291 60.985 103.114 58.6506C103.934 58.1532 105.89 58.6024 106.633 58.0087C107.35 59.2347 107.981 61.7358 108.093 61.9141Z" fill="#F7A491"/>
<path d="M108.656 62.5001C108.656 62.5001 106.705 65.4658 106.317 65.7983C106 66.0692 105.425 69.3481 105.919 69.3992C106.412 69.4503 110.526 64.6437 110.578 64.0153C110.63 63.3868 108.656 62.5001 108.656 62.5001Z" fill="#184655"/>
<path d="M103.231 66.5154C103.258 67.1284 104.013 68.4672 104.013 68.4672C102.545 69.3944 98.3988 70.9606 98.3988 70.9606C98.3988 70.9606 98.1945 70.3505 98.5357 69.9968C98.8769 69.6431 100.752 67.3684 100.713 66.3622C100.701 66.1 100.627 64.1454 100.353 62.9763C101.34 62.9763 102.358 62.8298 103.324 62.7141C103.355 64.0991 103.223 66.3159 103.231 66.5154Z" fill="#F7A491"/>
<path d="M109.467 47.8518C109.467 47.8518 101.398 52.0156 100.403 52.9939C99.6585 53.7254 99.6874 63.6403 99.6874 63.6403C99.6874 63.6403 102.428 64.2726 103.884 63.5439C103.884 63.5439 104.433 56.8048 104.816 56.613C105.199 56.4212 113.523 54.5331 113.523 54.5331L113.812 50.5274L109.467 47.8518Z" fill="#B75742"/>
<path d="M117.38 45.9945C117.38 45.9945 113.911 48.4773 112.421 48.8022C111.277 49.0518 102.011 50.5419 101.654 53.1481C101.451 54.6266 103.596 60.9137 103.596 60.9137L107.614 59.4265C107.614 59.4265 106.489 56.455 106.691 56.1292C106.892 55.8034 114.392 57.0265 116.636 55.9365C118.881 54.8464 119.295 49.8036 119.295 49.8036L117.38 45.9945Z" fill="#F47458"/>
<path d="M118.52 35.6535C118.52 35.6535 116.541 34.7861 115.886 34.282C115.23 33.7779 110.186 46.0755 107.614 48.5043C111.22 51.3496 118.557 54.5996 118.557 54.5996C118.557 54.5996 119.952 51.9683 120.292 49.0335C120.656 45.9261 120.913 44.1083 121.245 43.0481L123.943 45.4577L126.68 41.2274C126.68 41.2274 123.195 37.7576 121.79 36.9807C121.396 36.7639 118.52 35.6535 118.52 35.6535Z" fill="#F7CC7F"/>
<path d="M103.417 67.2181C103.417 67.2181 99.9815 68.8219 99.4234 68.9067C98.9695 68.9751 97.1565 71.5765 97.6085 71.8946C98.0606 72.2127 104.139 70.1828 104.53 69.6489C104.92 69.1149 103.417 67.2181 103.417 67.2181Z" fill="#184655"/>
<path d="M117.986 33.3529C117.986 33.3529 117.349 35.6323 117.071 35.7779C116.794 35.9234 116.387 36.1827 116.53 36.8188C116.674 37.455 118.135 37.534 118.862 37.4222C119.316 37.3391 119.747 37.1564 120.123 36.8873L120.924 33.2122L117.986 33.3529Z" fill="#F7A491"/>
<path d="M118.594 34.5683C119.412 34.5707 120.201 34.2706 120.811 33.7259L120.924 33.2112L117.986 33.3529C117.986 33.3529 117.831 33.909 117.64 34.4892C117.952 34.5637 118.274 34.5904 118.594 34.5683Z" fill="#F47458"/>
<path d="M122.185 30.8035C122.185 30.8035 122.667 29.4956 123.398 30.0084C124.128 30.5211 122.886 32.3293 122.231 32.0527C121.575 31.776 122.185 30.8035 122.185 30.8035Z" fill="#F7A491"/>
<path d="M120.977 25.6673C120.977 25.6673 119.709 25.2413 118.747 26.0297C117.785 26.8181 116.192 29.432 116.659 31.724C117.125 34.016 118.65 33.964 119.279 33.9408C119.909 33.9177 121.166 33.829 122.303 32.178C123.44 30.5269 124.313 26.289 120.977 25.6673Z" fill="#F7A491"/>
<path d="M119.374 31.7789L117.766 31.1843C117.766 31.1843 117.573 31.8088 118.277 32.0903C119.13 32.4344 119.374 31.7789 119.374 31.7789Z" fill="white"/>
<path d="M136.279 42.5806C135.315 42.9536 133.733 42.3628 133.032 41.9772C132.966 41.7035 133.914 41.4953 134.549 41.6158C135.184 41.7363 136.029 40.9932 137.116 41.5532C137.753 42.2057 136.279 42.5806 136.279 42.5806Z" fill="#F8A492"/>
<path d="M135.372 38.04C136.908 39.1619 135.809 39.159 134.422 38.8111C135.193 39.1735 135.161 39.4144 134.969 39.5821C134.738 39.7807 133.145 39.5657 132.901 39.2351C132.675 38.9286 133.479 37.8935 133.797 37.6361C133.983 37.4723 134.2 37.293 134.409 37.0713C134.995 36.4497 135.121 36.3591 135.344 36.2039C135.769 35.9061 136.135 36.1682 136.694 36.5094C137.389 37.0569 137.144 37.5224 136.098 37.1841C136.201 37.2603 137.003 37.7104 136.836 38.1373C136.716 38.4313 136.272 38.3079 135.372 38.04Z" fill="#F7A491"/>
<path d="M114.381 54.2757C113.842 54.4598 113.38 55.6251 113.321 55.5605C113.321 55.5605 111.055 56.5244 109.658 57.948C109.608 58.0752 109.527 58.4135 109.443 58.5609L111.467 59.0361C112.558 58.2458 113.684 56.8858 113.827 56.5754C113.915 56.3827 114.171 55.8612 114.309 55.5837C114.447 55.3061 114.737 54.696 114.848 54.5793C115.01 54.4059 114.851 54.1157 114.381 54.2757Z" fill="#F7A491"/>
<path d="M37.9579 53.0893C38.1304 56.2362 42.6344 57.1981 45.7148 56.3528C47.7167 55.8024 48.5687 55.3234 48.2593 53.1394C47.7581 49.5983 45.735 47.9578 43.5172 47.6966C40.6547 47.3593 37.8143 50.4927 37.9579 53.0893Z" fill="#184655"/>
<path d="M43.3245 99.6953L45.7572 121.368C45.7572 121.368 44.5678 125.951 44.7114 127.253C44.855 128.555 47.3562 145.639 47.3562 145.639L47.2501 146.597V149.427H56.5338C56.5338 149.427 54.5637 148.547 51.811 146.808C51.6067 146.679 51.1363 146.27 51.0236 145.452C50.2872 140.188 51.7435 122.628 51.7435 122.628L52.8905 99.7695L43.3245 99.6953Z" fill="#F7A491"/>
<path d="M35.8625 104.254C35.3391 104.386 34.5314 123.021 34.0977 123.847C31.344 129.084 30.6896 145.002 30.6896 145.002L29.8684 147.315C30.812 148.113 31.8741 148.109 33.0645 147.24L32.918 144.734L39.8633 124.9L43.6637 104.676L35.8625 104.254Z" fill="#F7A491"/>
<path d="M49.6761 68.1568C48.5561 66.6311 43.9336 62.21 43.4198 62.2187C41.923 62.2447 37.0084 62.2466 36.0485 62.7334L36.0947 71.1495C36.2509 71.856 39.6436 82.8601 39.446 85.2687L39.4701 85.2919C42.3134 88.0282 46.7952 87.8132 49.3975 84.8157C49.3975 84.8157 49.3869 81.478 49.7831 78.4323C50.4134 73.6622 52.4645 71.9486 49.6761 68.1568Z" fill="#F7CC7F"/>
<path d="M53.7512 113.793L54.0818 100.936C54.1395 97.3039 53.3968 93.7039 51.9064 90.3914L49.4004 84.8157C48.3855 85.1376 47.4284 85.4113 46.3615 85.5308C44.0406 85.7911 41.7582 85.5308 39.4498 85.2687C39.4447 85.3452 39.4341 85.4212 39.418 85.4961C38.9997 87.3901 36.6672 91.6107 35.6841 97.3812C34.569 103.935 34.2769 113.011 34.4167 113.78C40.8734 115.286 47.4949 115.336 53.7512 113.793Z" fill="#E25A44"/>
<path d="M41.9135 57.4805C41.9135 57.4805 42.0426 60.5859 41.7631 61.7638C41.4836 62.9416 41.1096 63.0293 43.5125 63.3878C44.4561 63.5285 45.3659 63.7386 45.3659 63.7386C45.3659 63.7386 45.1192 62.0095 45.0825 61.2799C45.0209 60.078 45.3601 56.3644 45.3601 56.3644L41.9135 57.4805Z" fill="#F7A491"/>
<path d="M43.7428 59.0265C44.1723 59.2669 44.6398 59.4321 45.125 59.5151C45.2059 58.0482 45.3601 56.3663 45.3601 56.3663L42.0715 57.4265C42.4725 58.1021 43.0504 58.6553 43.7428 59.0265Z" fill="#F47458"/>
<path d="M33.0635 147.232C31.7951 147.795 30.4303 147.456 29.8829 147.276L29.6998 147.765L29.001 150.089C29.001 150.089 31.7835 150.778 33.2254 149.984L33.0635 147.232Z" fill="#E25A44"/>
<path d="M47.1518 150.126H56.8017C57.1593 150.093 57.246 149.803 57.1217 149.624C56.8673 149.255 55.7405 148.965 54.475 148.378C52.2582 148.611 47.5971 147.101 47.2463 146.589C47.0468 147.616 46.9533 150.082 47.1518 150.126Z" fill="#E25A44"/>
<path d="M49.0651 72.1731C49.0651 72.1731 50.6978 75.4164 50.9581 75.7509C50.9581 75.7509 58.1087 74.1673 61.1246 73.2237C61.1602 73.2073 61.1959 73.1919 61.2306 73.1745C61.2894 73.1456 61.3694 73.135 61.3838 73.0531C61.4494 72.6888 61.7838 71.4647 61.9486 70.9433C61.9939 70.8001 62.0699 70.6685 62.1713 70.5577C62.3958 70.311 63.3973 68.6734 63.3973 68.6734C63.3973 68.6734 63.7404 68.8026 63.7404 69.3395C63.7404 69.8763 62.9847 70.898 63.192 70.9047C63.4037 70.9001 63.613 70.859 63.8107 70.7833C64.0926 70.7035 64.3878 70.6822 64.6782 70.7206C64.9567 70.7515 65.1341 70.9548 65.1601 71.2565C65.1746 71.4406 65.1389 71.642 65.2073 71.8069C65.324 72.0854 65.4965 74.6434 65.0579 74.8911C64.8391 75.0164 63.6623 75.2333 63.191 75.241C62.862 75.2473 62.538 75.3235 62.2407 75.4646C62.1782 75.4935 62.1138 75.518 62.0479 75.5379C59.8947 76.4053 52.7074 79.4645 52.7074 79.4645C52.7074 79.4645 49.1836 80.7175 48.669 80.2722C48.1543 79.8269 45.0748 73.7779 45.0748 73.7779L49.0651 72.1731Z" fill="#F7A491"/>
<path d="M41.3149 66.3275C40.619 69.1804 44.3269 75.5388 44.3269 75.5388C44.3269 75.5388 49.6087 73.056 50.5368 71.9852C50.5368 71.9852 46.9485 65.8167 46.7133 65.4398C45.6531 63.7406 44.2073 63.7386 43.2609 63.8495C42.5043 63.9382 41.3149 66.3275 41.3149 66.3275Z" fill="#EDA258"/>
<path d="M42.5708 67.8137C44.7538 65.2895 45.0121 60.3758 42.9794 57.761C43.8999 56.135 44.6613 56.2931 44.1495 54.5071C43.1394 50.9843 47.1143 48.0986 43.229 47.6774C39.3323 47.4615 37.2475 50.2354 35.8442 52.7857C35.219 53.9494 34.3524 54.9661 33.3025 55.7678C31.1927 57.3446 30.411 60.5175 32.0765 63.4717C30.3898 64.7574 29.213 67.9487 30.7763 70.2349C31.1522 70.7843 31.8366 71.3915 31.8809 71.5582C31.8163 71.3548 30.9277 77.079 37.4393 78.0554C44.0792 79.053 44.5254 72.7736 42.5708 67.8137Z" fill="#184655"/>
<path d="M41.975 50.0272C41.975 50.0272 40.7674 50.884 40.4599 52.4531C40.1524 54.0222 41.816 58.2448 45.2289 58.772C48.6419 59.2992 49.0313 55.6424 48.0915 53.3148C47.1518 50.9871 45.3427 48.1149 41.975 50.0272Z" fill="#F7A491"/>
<path d="M40.3752 55.3282C39.5887 53.0787 39.5164 51.2994 41.0499 50.2199C42.5833 49.1404 43.87 48.0995 45.5635 49.4074L45.924 49.5472C45.924 49.5472 43.2474 50.7125 43.3023 52.2093C43.3573 53.7061 42.1265 55.6714 42.458 56.3624C42.7896 57.0535 43.258 58.4617 43.258 58.4617L42.5766 58.0491C42.5766 58.0491 41.1617 57.5769 40.3752 55.3282Z" fill="#184655"/>
<path d="M42.9091 54.3529C43.3187 54.9042 43.338 55.575 42.9524 55.8526C42.5669 56.1302 41.9221 55.9085 41.5125 55.3572C41.1029 54.8059 41.0836 54.135 41.4691 53.8584C41.8546 53.5818 42.4994 53.8025 42.9091 54.3529Z" fill="#F7A491"/>
</g>
</g>
<g filter="url(#filter0_b_136:22475)">
<rect x="13" y="77" width="141" height="77" rx="10" fill="black" fill-opacity="0.8"/>
</g>
<path d="M30.3251 104.496L30.2831 106.932L31.5431 106.946L33.0691 106.904L33.1951 107.044L33.0551 108.458L31.3891 108.416L30.2551 108.43L30.2411 109.144L30.3251 112H28.4211L28.5191 109.312L28.4211 102.984H33.7831L33.8951 103.138L33.7551 104.566L31.6131 104.482L30.3251 104.496ZM34.6939 109.312L34.6239 105.616L36.4579 105.462L36.3739 109.13L36.4579 112H34.5959L34.6939 109.312ZM35.5759 102.298C35.8652 102.298 36.0892 102.382 36.2479 102.55C36.4159 102.718 36.4999 102.951 36.4999 103.25C36.4999 103.567 36.4112 103.819 36.2339 104.006C36.0565 104.193 35.8139 104.286 35.5059 104.286C35.1979 104.286 34.9599 104.202 34.7919 104.034C34.6332 103.866 34.5539 103.628 34.5539 103.32C34.5539 103.012 34.6425 102.765 34.8199 102.578C35.0065 102.391 35.2585 102.298 35.5759 102.298ZM40.8923 105.364C41.2003 105.364 41.5036 105.397 41.8023 105.462C42.1103 105.518 42.3809 105.602 42.6143 105.714L42.3063 107.198L42.1523 107.268C41.6763 107.007 41.2516 106.876 40.8783 106.876C40.4489 106.876 40.1176 107.03 39.8843 107.338C39.6509 107.646 39.5343 108.085 39.5343 108.654C39.5343 109.307 39.6603 109.807 39.9123 110.152C40.1643 110.497 40.5236 110.67 40.9903 110.67C41.4103 110.67 41.8769 110.553 42.3903 110.32L42.5303 110.432L42.3483 111.874C41.7883 112.051 41.2143 112.14 40.6263 112.14C39.7303 112.14 39.0303 111.851 38.5263 111.272C38.0223 110.684 37.7703 109.867 37.7703 108.822C37.7703 107.739 38.0456 106.895 38.5963 106.288C39.1469 105.672 39.9123 105.364 40.8923 105.364ZM46.0303 105.364C46.7489 105.364 47.3089 105.527 47.7103 105.854C48.1209 106.171 48.3263 106.619 48.3263 107.198C48.3263 107.366 48.2983 107.898 48.2423 108.794C48.2329 109.055 48.2189 109.326 48.2003 109.606C48.1816 109.877 48.1723 110.11 48.1723 110.306C48.1723 110.465 48.1956 110.577 48.2423 110.642C48.2889 110.698 48.3729 110.726 48.4943 110.726C48.5876 110.726 48.7089 110.707 48.8583 110.67L48.9983 110.782L48.8303 111.762C48.5316 111.958 48.1909 112.075 47.8083 112.112C47.5283 112.084 47.2949 111.986 47.1083 111.818C46.9216 111.641 46.7956 111.398 46.7303 111.09H46.6323C46.1656 111.585 45.6849 111.93 45.1903 112.126C44.5183 112.117 43.9909 111.939 43.6083 111.594C43.2256 111.249 43.0343 110.777 43.0343 110.18C43.0343 109.713 43.1509 109.349 43.3843 109.088C43.6269 108.817 43.9909 108.635 44.4763 108.542L46.6183 108.136V107.562C46.6183 106.955 46.3196 106.652 45.7223 106.652C45.4329 106.652 45.1249 106.717 44.7983 106.848C44.4809 106.979 44.1216 107.184 43.7203 107.464L43.5803 107.38L43.3703 106.148C43.7716 105.896 44.2009 105.705 44.6583 105.574C45.1156 105.434 45.5729 105.364 46.0303 105.364ZM45.1203 109.396C44.9709 109.433 44.8589 109.499 44.7843 109.592C44.7189 109.676 44.6863 109.807 44.6863 109.984C44.6863 110.227 44.7516 110.418 44.8823 110.558C45.0129 110.689 45.1949 110.754 45.4283 110.754C45.7923 110.754 46.1749 110.539 46.5763 110.11L46.6043 109.074L45.1203 109.396ZM53.7245 105.476C53.8085 105.476 53.9251 105.485 54.0745 105.504V107.226L53.8785 107.296C53.7198 107.231 53.5471 107.198 53.3605 107.198C52.8191 107.198 52.3291 107.548 51.8905 108.248V109.13L51.9885 112H50.1265L50.2385 109.312L50.1545 105.616L51.9185 105.462L51.9045 106.736H52.0165C52.4738 105.896 53.0431 105.476 53.7245 105.476ZM59.7868 105.364C60.0948 105.364 60.3981 105.397 60.6968 105.462C61.0048 105.518 61.2755 105.602 61.5088 105.714L61.2008 107.198L61.0468 107.268C60.5708 107.007 60.1461 106.876 59.7728 106.876C59.3435 106.876 59.0121 107.03 58.7788 107.338C58.5455 107.646 58.4288 108.085 58.4288 108.654C58.4288 109.307 58.5548 109.807 58.8068 110.152C59.0588 110.497 59.4181 110.67 59.8848 110.67C60.3048 110.67 60.7715 110.553 61.2848 110.32L61.4248 110.432L61.2428 111.874C60.6828 112.051 60.1088 112.14 59.5208 112.14C58.6248 112.14 57.9248 111.851 57.4208 111.272C56.9168 110.684 56.6648 109.867 56.6648 108.822C56.6648 107.739 56.9401 106.895 57.4908 106.288C58.0415 105.672 58.8068 105.364 59.7868 105.364ZM65.2015 105.364C66.1535 105.364 66.8815 105.644 67.3855 106.204C67.8895 106.764 68.1415 107.571 68.1415 108.626C68.1415 109.765 67.8708 110.637 67.3295 111.244C66.7882 111.841 66.0088 112.14 64.9915 112.14C64.0395 112.14 63.3115 111.86 62.8075 111.3C62.3035 110.74 62.0515 109.933 62.0515 108.878C62.0515 107.739 62.3222 106.871 62.8635 106.274C63.4048 105.667 64.1842 105.364 65.2015 105.364ZM65.0755 106.624C64.6275 106.624 64.3008 106.773 64.0955 107.072C63.8995 107.371 63.8015 107.851 63.8015 108.514C63.8015 109.373 63.9042 109.984 64.1095 110.348C64.3148 110.712 64.6508 110.894 65.1175 110.894C65.5655 110.894 65.8875 110.749 66.0835 110.46C66.2888 110.161 66.3915 109.676 66.3915 109.004C66.3915 108.155 66.2842 107.548 66.0695 107.184C65.8642 106.811 65.5328 106.624 65.0755 106.624ZM77.1334 112L77.2454 107.94C77.2454 107.249 76.9514 106.904 76.3634 106.904C75.9434 106.904 75.5048 107.091 75.0474 107.464L75.0054 109.144L75.0894 112H73.2274L73.3394 107.94C73.3488 107.604 73.2741 107.347 73.1154 107.17C72.9661 106.993 72.7468 106.904 72.4574 106.904C72.0468 106.904 71.5941 107.1 71.0994 107.492V109.13L71.1834 112H69.3354L69.4334 109.312L69.3634 105.616L71.1134 105.462V106.414H71.2114C71.7248 105.947 72.2894 105.611 72.9054 105.406C73.9508 105.406 74.6181 105.756 74.9074 106.456H74.9914C75.5234 105.961 76.1301 105.611 76.8114 105.406C77.5208 105.406 78.0574 105.569 78.4214 105.896C78.7948 106.213 78.9721 106.675 78.9534 107.282L78.9114 109.144L78.9954 112H77.1334ZM85.3096 105.364C86.0282 105.364 86.5882 105.527 86.9896 105.854C87.4002 106.171 87.6056 106.619 87.6056 107.198C87.6056 107.366 87.5776 107.898 87.5216 108.794C87.5122 109.055 87.4982 109.326 87.4796 109.606C87.4609 109.877 87.4516 110.11 87.4516 110.306C87.4516 110.465 87.4749 110.577 87.5216 110.642C87.5682 110.698 87.6522 110.726 87.7736 110.726C87.8669 110.726 87.9882 110.707 88.1376 110.67L88.2776 110.782L88.1096 111.762C87.8109 111.958 87.4702 112.075 87.0876 112.112C86.8076 112.084 86.5742 111.986 86.3876 111.818C86.2009 111.641 86.0749 111.398 86.0096 111.09H85.9116C85.4449 111.585 84.9642 111.93 84.4696 112.126C83.7976 112.117 83.2702 111.939 82.8876 111.594C82.5049 111.249 82.3136 110.777 82.3136 110.18C82.3136 109.713 82.4302 109.349 82.6636 109.088C82.9062 108.817 83.2702 108.635 83.7556 108.542L85.8976 108.136V107.562C85.8976 106.955 85.5989 106.652 85.0016 106.652C84.7122 106.652 84.4042 106.717 84.0776 106.848C83.7602 106.979 83.4009 107.184 82.9996 107.464L82.8596 107.38L82.6496 106.148C83.0509 105.896 83.4802 105.705 83.9376 105.574C84.3949 105.434 84.8522 105.364 85.3096 105.364ZM84.3996 109.396C84.2502 109.433 84.1382 109.499 84.0636 109.592C83.9982 109.676 83.9656 109.807 83.9656 109.984C83.9656 110.227 84.0309 110.418 84.1616 110.558C84.2922 110.689 84.4742 110.754 84.7076 110.754C85.0716 110.754 85.4542 110.539 85.8556 110.11L85.8836 109.074L84.3996 109.396ZM94.9949 102.144C95.3776 102.144 95.7836 102.186 96.2129 102.27L96.0869 103.656L95.9609 103.74C95.5223 103.553 95.1396 103.46 94.8129 103.46C94.2343 103.46 93.9403 103.791 93.9309 104.454L93.9169 105.546H95.4989L95.5549 105.644L95.4709 106.666H93.8889L93.8469 109.13L93.9449 112H92.0829L92.1949 109.298L92.1669 106.666H91.1869L91.1169 106.568L91.2149 105.546H92.1529L92.1389 104.776C92.1389 103.936 92.3863 103.287 92.8809 102.83C93.3849 102.373 94.0896 102.144 94.9949 102.144ZM98.6943 105.364C99.413 105.364 99.973 105.527 100.374 105.854C100.785 106.171 100.99 106.619 100.99 107.198C100.99 107.366 100.962 107.898 100.906 108.794C100.897 109.055 100.883 109.326 100.864 109.606C100.846 109.877 100.836 110.11 100.836 110.306C100.836 110.465 100.86 110.577 100.906 110.642C100.953 110.698 101.037 110.726 101.158 110.726C101.252 110.726 101.373 110.707 101.522 110.67L101.662 110.782L101.494 111.762C101.196 111.958 100.855 112.075 100.472 112.112C100.192 112.084 99.959 111.986 99.7723 111.818C99.5857 111.641 99.4597 111.398 99.3943 111.09H99.2963C98.8297 111.585 98.349 111.93 97.8543 112.126C97.1823 112.117 96.655 111.939 96.2723 111.594C95.8897 111.249 95.6983 110.777 95.6983 110.18C95.6983 109.713 95.815 109.349 96.0483 109.088C96.291 108.817 96.655 108.635 97.1403 108.542L99.2823 108.136V107.562C99.2823 106.955 98.9837 106.652 98.3863 106.652C98.097 106.652 97.789 106.717 97.4623 106.848C97.145 106.979 96.7857 107.184 96.3843 107.464L96.2443 107.38L96.0343 106.148C96.4357 105.896 96.865 105.705 97.3223 105.574C97.7797 105.434 98.237 105.364 98.6943 105.364ZM97.7843 109.396C97.635 109.433 97.523 109.499 97.4483 109.592C97.383 109.676 97.3503 109.807 97.3503 109.984C97.3503 110.227 97.4157 110.418 97.5463 110.558C97.677 110.689 97.859 110.754 98.0923 110.754C98.4563 110.754 98.839 110.539 99.2403 110.11L99.2683 109.074L97.7843 109.396ZM110.589 112L110.701 107.94C110.701 107.249 110.407 106.904 109.819 106.904C109.399 106.904 108.96 107.091 108.503 107.464L108.461 109.144L108.545 112H106.683L106.795 107.94C106.804 107.604 106.729 107.347 106.571 107.17C106.421 106.993 106.202 106.904 105.913 106.904C105.502 106.904 105.049 107.1 104.555 107.492V109.13L104.639 112H102.791L102.889 109.312L102.819 105.616L104.569 105.462V106.414H104.667C105.18 105.947 105.745 105.611 106.361 105.406C107.406 105.406 108.073 105.756 108.363 106.456H108.447C108.979 105.961 109.585 105.611 110.267 105.406C110.976 105.406 111.513 105.569 111.877 105.896C112.25 106.213 112.427 106.675 112.409 107.282L112.367 109.144L112.451 112H110.589ZM114.209 109.312L114.139 105.616L115.973 105.462L115.889 109.13L115.973 112H114.111L114.209 109.312ZM116.407 101.878L117.079 102.886L117.051 103.068C116.846 103.199 116.692 103.292 116.589 103.348C115.423 104.067 114.667 104.524 114.321 104.72L114.139 104.706L113.691 104.006C114.774 103.138 115.619 102.424 116.225 101.864L116.407 101.878ZM119.554 109.13L119.652 112H117.79L117.888 109.298L117.804 102.312L119.666 102.172L119.554 109.13ZM121.538 109.312L121.468 105.616L123.302 105.462L123.218 109.13L123.302 112H121.44L121.538 109.312ZM122.42 102.298C122.709 102.298 122.933 102.382 123.092 102.55C123.26 102.718 123.344 102.951 123.344 103.25C123.344 103.567 123.255 103.819 123.078 104.006C122.9 104.193 122.658 104.286 122.35 104.286C122.042 104.286 121.804 104.202 121.636 104.034C121.477 103.866 121.398 103.628 121.398 103.32C121.398 103.012 121.486 102.765 121.664 102.578C121.85 102.391 122.102 102.298 122.42 102.298ZM127.624 105.364C128.343 105.364 128.903 105.527 129.304 105.854C129.715 106.171 129.92 106.619 129.92 107.198C129.92 107.366 129.892 107.898 129.836 108.794C129.827 109.055 129.813 109.326 129.794 109.606C129.775 109.877 129.766 110.11 129.766 110.306C129.766 110.465 129.789 110.577 129.836 110.642C129.883 110.698 129.967 110.726 130.088 110.726C130.181 110.726 130.303 110.707 130.452 110.67L130.592 110.782L130.424 111.762C130.125 111.958 129.785 112.075 129.402 112.112C129.122 112.084 128.889 111.986 128.702 111.818C128.515 111.641 128.389 111.398 128.324 111.09H128.226C127.759 111.585 127.279 111.93 126.784 112.126C126.112 112.117 125.585 111.939 125.202 111.594C124.819 111.249 124.628 110.777 124.628 110.18C124.628 109.713 124.745 109.349 124.978 109.088C125.221 108.817 125.585 108.635 126.07 108.542L128.212 108.136V107.562C128.212 106.955 127.913 106.652 127.316 106.652C127.027 106.652 126.719 106.717 126.392 106.848C126.075 106.979 125.715 107.184 125.314 107.464L125.174 107.38L124.964 106.148C125.365 105.896 125.795 105.705 126.252 105.574C126.709 105.434 127.167 105.364 127.624 105.364ZM126.714 109.396C126.565 109.433 126.453 109.499 126.378 109.592C126.313 109.676 126.28 109.807 126.28 109.984C126.28 110.227 126.345 110.418 126.476 110.558C126.607 110.689 126.789 110.754 127.022 110.754C127.386 110.754 127.769 110.539 128.17 110.11L128.198 109.074L126.714 109.396ZM138.961 108.976L135.181 109.004C135.265 110.171 135.858 110.754 136.959 110.754C137.538 110.754 138.182 110.591 138.891 110.264L139.045 110.362L138.765 111.748C138.056 112.009 137.389 112.14 136.763 112.14C135.737 112.14 134.929 111.841 134.341 111.244C133.763 110.647 133.473 109.821 133.473 108.766C133.473 107.721 133.758 106.895 134.327 106.288C134.897 105.672 135.667 105.364 136.637 105.364C137.468 105.364 138.107 105.593 138.555 106.05C139.013 106.498 139.241 107.128 139.241 107.94C139.241 108.155 139.218 108.425 139.171 108.752L138.961 108.976ZM137.617 107.73C137.617 107.357 137.533 107.077 137.365 106.89C137.197 106.694 136.95 106.596 136.623 106.596C136.259 106.596 135.956 106.717 135.713 106.96C135.471 107.193 135.307 107.534 135.223 107.982L137.589 107.926L137.617 107.73ZM66.4971 121.364C67.2157 121.364 67.7757 121.527 68.1771 121.854C68.5877 122.171 68.7931 122.619 68.7931 123.198C68.7931 123.366 68.7651 123.898 68.7091 124.794C68.6997 125.055 68.6857 125.326 68.6671 125.606C68.6484 125.877 68.6391 126.11 68.6391 126.306C68.6391 126.465 68.6624 126.577 68.7091 126.642C68.7557 126.698 68.8397 126.726 68.9611 126.726C69.0544 126.726 69.1757 126.707 69.3251 126.67L69.4651 126.782L69.2971 127.762C68.9984 127.958 68.6577 128.075 68.2751 128.112C67.9951 128.084 67.7617 127.986 67.5751 127.818C67.3884 127.641 67.2624 127.398 67.1971 127.09H67.0991C66.6324 127.585 66.1517 127.93 65.6571 128.126C64.9851 128.117 64.4577 127.939 64.0751 127.594C63.6924 127.249 63.5011 126.777 63.5011 126.18C63.5011 125.713 63.6177 125.349 63.8511 125.088C64.0937 124.817 64.4577 124.635 64.9431 124.542L67.0851 124.136V123.562C67.0851 122.955 66.7864 122.652 66.1891 122.652C65.8997 122.652 65.5917 122.717 65.2651 122.848C64.9477 122.979 64.5884 123.184 64.1871 123.464L64.0471 123.38L63.8371 122.148C64.2384 121.896 64.6677 121.705 65.1251 121.574C65.5824 121.434 66.0397 121.364 66.4971 121.364ZM65.5871 125.396C65.4377 125.433 65.3257 125.499 65.2511 125.592C65.1857 125.676 65.1531 125.807 65.1531 125.984C65.1531 126.227 65.2184 126.418 65.3491 126.558C65.4797 126.689 65.6617 126.754 65.8951 126.754C66.2591 126.754 66.6417 126.539 67.0431 126.11L67.0711 125.074L65.5871 125.396ZM78.3913 128L78.5033 123.94C78.5033 123.249 78.2093 122.904 77.6213 122.904C77.2013 122.904 76.7626 123.091 76.3053 123.464L76.2633 125.144L76.3473 128H74.4853L74.5973 123.94C74.6066 123.604 74.5319 123.347 74.3733 123.17C74.2239 122.993 74.0046 122.904 73.7153 122.904C73.3046 122.904 72.8519 123.1 72.3573 123.492V125.13L72.4413 128H70.5933L70.6913 125.312L70.6213 121.616L72.3713 121.462V122.414H72.4693C72.9826 121.947 73.5473 121.611 74.1633 121.406C75.2086 121.406 75.8759 121.756 76.1653 122.456H76.2493C76.7813 121.961 77.3879 121.611 78.0693 121.406C78.7786 121.406 79.3153 121.569 79.6793 121.896C80.0526 122.213 80.2299 122.675 80.2113 123.282L80.1693 125.144L80.2533 128H78.3913ZM82.0122 125.312L81.9422 121.616L83.7762 121.462L83.6922 125.13L83.7762 128H81.9142L82.0122 125.312ZM82.8942 118.298C83.1836 118.298 83.4076 118.382 83.5662 118.55C83.7342 118.718 83.8182 118.951 83.8182 119.25C83.8182 119.567 83.7296 119.819 83.5522 120.006C83.3749 120.193 83.1322 120.286 82.8242 120.286C82.5162 120.286 82.2782 120.202 82.1102 120.034C81.9516 119.866 81.8722 119.628 81.8722 119.32C81.8722 119.012 81.9609 118.765 82.1382 118.578C82.3249 118.391 82.5769 118.298 82.8942 118.298ZM91.7946 122.372C91.5426 122.437 91.1833 122.507 90.7166 122.582L90.6886 122.638C90.8286 122.918 90.8986 123.231 90.8986 123.576C90.8986 124.276 90.642 124.836 90.1286 125.256C89.6246 125.667 88.9386 125.872 88.0706 125.872C87.8093 125.872 87.5386 125.849 87.2586 125.802C87.1746 125.886 87.1186 125.951 87.0906 125.998C87.0626 126.045 87.0486 126.101 87.0486 126.166C87.0486 126.334 87.1606 126.451 87.3846 126.516C87.6086 126.581 87.9633 126.647 88.4486 126.712C88.9993 126.777 89.4566 126.857 89.8206 126.95C90.194 127.043 90.5113 127.207 90.7726 127.44C91.0433 127.673 91.1786 128.005 91.1786 128.434C91.1786 128.873 91.0386 129.265 90.7586 129.61C90.488 129.965 90.11 130.24 89.6246 130.436C89.1393 130.632 88.5886 130.73 87.9726 130.73C87.1233 130.73 86.47 130.557 86.0126 130.212C85.5553 129.867 85.3266 129.409 85.3266 128.84C85.616 128.439 86.0033 128.089 86.4886 127.79V127.72C86.1713 127.608 85.924 127.454 85.7466 127.258C85.5693 127.053 85.4806 126.782 85.4806 126.446C85.7326 126.138 86.05 125.853 86.4326 125.592V125.522C86.0966 125.335 85.84 125.093 85.6626 124.794C85.4946 124.486 85.4106 124.127 85.4106 123.716C85.4106 122.988 85.6626 122.419 86.1666 122.008C86.6706 121.597 87.3566 121.392 88.2246 121.392C88.7286 121.392 89.186 121.476 89.5966 121.644C90.2686 121.523 90.9546 121.336 91.6546 121.084L91.7946 121.21V122.372ZM88.1266 124.752C88.5093 124.752 88.7986 124.654 88.9946 124.458C89.1906 124.262 89.2886 123.977 89.2886 123.604C89.2886 122.895 88.9246 122.54 88.1966 122.54C87.4126 122.54 87.0206 122.899 87.0206 123.618C87.0206 123.991 87.114 124.276 87.3006 124.472C87.4873 124.659 87.7626 124.752 88.1266 124.752ZM89.6106 128.77C89.6106 128.518 89.4753 128.345 89.2046 128.252C88.9433 128.159 88.5373 128.079 87.9866 128.014L87.5106 127.944C87.2866 128.093 87.1186 128.238 87.0066 128.378C86.8946 128.518 86.8386 128.667 86.8386 128.826C86.8386 129.069 86.9506 129.265 87.1746 129.414C87.3986 129.563 87.7253 129.638 88.1546 129.638C88.5933 129.638 88.9433 129.559 89.2046 129.4C89.4753 129.251 89.6106 129.041 89.6106 128.77ZM95.1839 121.364C96.1359 121.364 96.8639 121.644 97.3679 122.204C97.8719 122.764 98.1239 123.571 98.1239 124.626C98.1239 125.765 97.8533 126.637 97.3119 127.244C96.7706 127.841 95.9913 128.14 94.9739 128.14C94.0219 128.14 93.2939 127.86 92.7899 127.3C92.2859 126.74 92.0339 125.933 92.0339 124.878C92.0339 123.739 92.3046 122.871 92.8459 122.274C93.3873 121.667 94.1666 121.364 95.1839 121.364ZM95.0579 122.624C94.6099 122.624 94.2833 122.773 94.0779 123.072C93.8819 123.371 93.7839 123.851 93.7839 124.514C93.7839 125.373 93.8866 125.984 94.0919 126.348C94.2973 126.712 94.6333 126.894 95.0999 126.894C95.5479 126.894 95.8699 126.749 96.0659 126.46C96.2713 126.161 96.3739 125.676 96.3739 125.004C96.3739 124.155 96.2666 123.548 96.0519 123.184C95.8466 122.811 95.5153 122.624 95.0579 122.624ZM101.584 121.378C102.219 121.378 102.816 121.485 103.376 121.7L103.124 123.072L102.9 123.142C102.629 122.965 102.359 122.829 102.088 122.736C101.817 122.643 101.579 122.596 101.374 122.596C101.15 122.596 100.973 122.657 100.842 122.778C100.711 122.89 100.646 123.03 100.646 123.198C100.646 123.394 100.73 123.553 100.898 123.674C101.075 123.795 101.351 123.931 101.724 124.08C102.097 124.229 102.405 124.374 102.648 124.514C102.891 124.654 103.096 124.85 103.264 125.102C103.441 125.345 103.53 125.648 103.53 126.012C103.53 126.385 103.432 126.735 103.236 127.062C103.049 127.379 102.76 127.641 102.368 127.846C101.976 128.042 101.495 128.14 100.926 128.14C100.254 128.14 99.5586 128 98.8399 127.72L99.0499 126.264L99.2319 126.152C99.5212 126.395 99.8432 126.591 100.198 126.74C100.553 126.88 100.865 126.95 101.136 126.95C101.388 126.95 101.584 126.889 101.724 126.768C101.864 126.637 101.934 126.483 101.934 126.306C101.934 126.11 101.845 125.951 101.668 125.83C101.5 125.709 101.229 125.573 100.856 125.424C100.473 125.256 100.161 125.107 99.9179 124.976C99.6752 124.836 99.4652 124.64 99.2879 124.388C99.1199 124.136 99.0359 123.823 99.0359 123.45C99.0359 122.843 99.2646 122.349 99.7219 121.966C100.179 121.574 100.8 121.378 101.584 121.378Z" fill="white"/>
<defs>
<filter id="filter0_b_136:22475" x="3" y="67" width="161" height="97" filterUnits="userSpaceOnUse" color-interpolation-filters="sRGB">
<feFlood flood-opacity="0" result="BackgroundImageFix"/>
<feGaussianBlur in="BackgroundImage" stdDeviation="5"/>
<feComposite in2="SourceAlpha" operator="in" result="effect1_backgroundBlur_136:22475"/>
<feBlend mode="normal" in="SourceGraphic" in2="effect1_backgroundBlur_136:22475" result="shape"/>
</filter>
<clipPath id="clip0_136:22475">
<rect width="121.17" height="151.366" fill="white" transform="translate(29 -1)"/>
</clipPath>
</defs>
</svg>
