<svg width="167" height="167" viewBox="0 0 167 167" fill="none" xmlns="http://www.w3.org/2000/svg">
<mask id="mask0_136:22641" style="mask-type:alpha" maskUnits="userSpaceOnUse" x="0" y="0" width="167" height="167">
<rect x="1" y="1" width="165" height="165" rx="8" fill="#5988D6" stroke="#EDE6FC" stroke-opacity="0.3"/>
</mask>
<g mask="url(#mask0_136:22641)">
<rect x="1" y="1" width="165" height="165" rx="8" fill="#D97A7A" stroke="#EDE6FC" stroke-opacity="0.3"/>
<path d="M111.486 146.989C109.881 147.394 104.715 136.007 104.715 136.007C104.715 136.007 101.799 134.521 97.6683 132.272C95.7321 131.221 93.5315 130 91.2345 128.694C82.8164 123.859 73.1958 117.863 70.965 114.309C70.4728 113.539 70.1589 112.667 70.0465 111.758C69.9341 110.849 70.0261 109.926 70.3156 109.057C71.7166 104.313 77.5311 100.312 77.5311 100.312L79.4673 99L82.6781 102.161L89.581 108.961L87.5426 110.574L85.7387 111.976C91.6434 114.998 94.3432 119.749 97.0009 122.801C97.3797 123.236 97.7645 123.654 98.1553 124.065C102.166 128.295 106.712 131.233 109.412 132.073C110.039 132.267 110.586 132.662 110.97 133.198C111.353 133.733 111.551 134.381 111.534 135.04C111.509 135.938 111.32 136.823 110.975 137.651C110.368 139.005 113.091 146.578 111.486 146.989Z" fill="#FFA6A6"/>
<path d="M97.3771 129.51C97.4618 130.746 97.5464 131.981 97.5102 133C95.5629 131.925 93.3495 130.678 91.0393 129.344C90.483 127.843 89.8661 126.015 89.1827 123.785C87.1992 122.395 77.9404 115.861 70 109.277C71.4091 104.429 77.257 100.34 77.257 100.34L79.2043 99L82.4337 102.23C82.857 103.052 83.2138 103.861 83.5646 104.645C84.0286 105.782 84.5828 106.879 85.2216 107.925C85.899 108.956 86.6065 109.926 87.3262 110.827L85.5119 112.26C91.4506 115.348 94.1659 120.203 96.8389 123.322C97.2199 123.767 97.6069 124.193 98 124.613C97.8111 125.124 97.5806 125.617 97.3106 126.089C97.2252 127.229 97.2474 128.375 97.3771 129.51Z" fill="#FF6767"/>
<path d="M109.448 71.7426L111.953 71C111.953 71 117.274 83.5029 103.923 97.2841L89.2123 110C89.2123 110 80.865 107.249 77 99.4024L82.9504 93.364L109.448 71.7426Z" fill="#FF7F00"/>
<path d="M73 60.8887C73 60.8887 75.4629 73.196 75.0172 82L81 79.4654L78.9257 60.9436L77 59L73 60.8887Z" fill="#FF6767"/>
<path d="M90.4811 127C89.0708 127.165 85.904 116.99 85.904 116.99C85.904 116.99 62.3267 101.044 59.5009 95.0056C56.6752 88.9668 66.5989 83.9002 66.5989 83.9002L68.3915 83L73.7899 91.6879V95.0056C77.3648 97.4489 88.4044 113.482 90.76 114.346C91.152 114.494 91.4851 114.764 91.7088 115.117C91.9325 115.469 92.0347 115.885 91.9999 116.301C91.8946 117.276 91.5792 118.216 91.0751 119.058C90.3984 120.133 91.8914 126.83 90.4811 127Z" fill="#FFA6A6"/>
<path d="M83 106C81.8259 103.923 80.4141 101.973 78.7897 100.183C75.7578 96.757 68.5156 94.7362 68.5156 94.7362L70.0316 94.3356C66.6366 90.0548 67.0123 84.0463 67.0123 84.0463L69.2226 83L75.8788 93.1219V96.9782C80.2738 99.7941 81.5796 103.106 83 106Z" fill="#FF6767"/>
<path d="M77.3819 76.4797L84.291 72.8085L111.872 71C111.872 71 118.026 86.1129 101.582 91.5745C86.3076 96.2947 75.7003 97 75.7003 97C75.7003 97 69.9732 95.9511 67 83.0385L77.3819 76.4797Z" fill="#FF9A00"/>
<path d="M106.879 47.3378C107.117 37.5825 105.974 27.8426 103.486 18.4074C103.697 18.2499 103.891 18.0704 104.064 17.8718C104.161 17.7544 104.233 17.6187 104.277 17.4729C104.321 17.3271 104.335 17.174 104.319 17.0226C104.303 16.8712 104.256 16.7245 104.183 16.5912C104.109 16.4579 104.01 16.3406 103.891 16.2463C103.771 16.1519 103.634 16.0823 103.488 16.0416C103.341 16.0009 103.188 15.9899 103.037 16.0093C102.886 16.0286 102.74 16.0779 102.609 16.1542C102.477 16.2306 102.362 16.3325 102.27 16.4539C102.119 16.6618 101.993 16.8864 101.893 17.1233C84.8496 16.4047 67.8003 18.4076 51.3863 23.0567C51.2331 22.8495 51.0578 22.6597 50.8633 22.4907C50.7435 22.3976 50.6066 22.329 50.4604 22.2889C50.3141 22.2488 50.1614 22.2379 50.0109 22.2568C49.8604 22.2757 49.7151 22.3241 49.5833 22.3992C49.4515 22.4744 49.3358 22.5747 49.2428 22.6946C49.1498 22.8145 49.0812 22.9515 49.0411 23.0979C49.001 23.2443 48.9901 23.3971 49.009 23.5477C49.0279 23.6983 49.0763 23.8437 49.1514 23.9756C49.2264 24.1075 49.3267 24.2233 49.4465 24.3164C49.6608 24.4707 49.8912 24.6013 50.1337 24.7059C49.8938 34.4593 51.0361 44.1976 53.5267 53.6302C53.3143 53.786 53.1204 53.9657 52.949 54.1658C52.7686 54.4045 52.6889 54.7044 52.7269 55.0012C52.7648 55.2981 52.9175 55.5682 53.1522 55.7537C53.3869 55.9392 53.6848 56.0253 53.9822 55.9935C54.2796 55.9617 54.5526 55.8146 54.7429 55.5837C54.8917 55.3744 55.0181 55.1501 55.1199 54.9143C72.1635 55.6325 89.2127 53.6296 105.627 48.9809C105.778 49.1877 105.952 49.3774 106.144 49.5469C106.262 49.6404 106.397 49.7097 106.541 49.751C106.686 49.7923 106.837 49.8047 106.986 49.7874C107.136 49.7702 107.28 49.7237 107.412 49.6506C107.543 49.5774 107.659 49.4791 107.752 49.3613C107.846 49.2434 107.915 49.1082 107.956 48.9636C107.997 48.8189 108.01 48.6675 107.992 48.518C107.975 48.3685 107.929 48.2239 107.856 48.0924C107.783 47.961 107.684 47.8451 107.567 47.7516C107.354 47.5881 107.123 47.4493 106.879 47.3378Z" fill="#FFE7E7"/>
<path d="M72.9714 33.7622C71.0608 30.9451 67.4952 29.354 64.5138 28.029C61.2586 26.5864 57.7356 25.4225 54.1701 26.3078C53.8719 26.3821 53.9997 26.8403 54.2918 26.7722C58.0764 25.8559 61.721 27.4408 65.1101 29.0134C67.9455 30.3322 70.2516 32.1091 72.7523 33.9665C72.8984 34.0779 73.0687 33.886 72.9714 33.7622Z" fill="#DAB1B1"/>
<path d="M76.884 39.5822C73.8001 37.8157 69.4621 37.8713 66.0208 37.581C62.1191 37.2599 58.0416 36.599 54.158 37.334C53.8793 37.3896 54.0005 37.8096 54.2792 37.7663C57.9629 37.2228 61.7798 37.9454 65.4574 38.2851C67.4325 38.4642 69.4076 38.631 71.3706 38.9028C73.1882 39.1622 74.9149 39.7427 76.7083 39.996C76.9506 40.0392 77.1263 39.7242 76.884 39.5822Z" fill="#DAB1B1"/>
<path d="M81.7764 43.0014C78.162 43.0972 74.5106 43.8131 70.9887 44.4894C67.2543 45.2062 63.6074 46.2617 60.1023 47.6402C59.8865 47.7248 60.0468 48.063 60.2627 47.9897C63.6351 46.8387 67.1021 45.9341 70.631 45.2842C74.3317 44.5571 78.1743 44.2753 81.8257 43.3621C81.8781 43.3562 81.9257 43.3314 81.9581 43.2934C81.9905 43.2553 82.005 43.2071 81.9985 43.1592C81.9919 43.1114 81.9648 43.0679 81.9232 43.0383C81.8816 43.0087 81.8288 42.9954 81.7764 43.0014Z" fill="#DAB1B1"/>
<path d="M97.9442 20.2008C97.9339 20.1593 97.9127 20.1214 97.8827 20.0912C97.8527 20.061 97.815 20.0396 97.7738 20.0293C96.5878 19.7879 95.0296 21.1028 94.0391 21.6492C92.3239 22.5929 90.666 23.6386 89.0742 24.7809C86.2984 26.7692 83.1883 29.45 82.0086 32.7787C81.9518 32.9375 82.1915 33.0836 82.2988 32.9438C84.3996 30.2631 86.3174 27.7983 89.0553 25.7147C90.3652 24.7426 91.7256 23.8414 93.1307 23.0149C93.7111 22.6655 97.1998 20.1944 97.7297 20.5819C97.8622 20.6836 98.0325 20.5184 97.9946 20.3787L97.9442 20.2008Z" fill="#DAB1B1"/>
<path d="M99.8653 29C98.7367 29.1671 97.68 29.6405 96.8173 30.3656C95.4273 31.3529 94.0801 32.3993 92.7512 33.4634C90.0811 35.6212 87.0452 37.9386 85.0274 40.7171C84.9237 40.8649 85.1371 41.0777 85.2895 40.9713C87.7279 39.2332 89.764 36.9868 91.9952 35.0595C94.4337 33.0082 96.9575 30.6139 99.9202 29.3251C99.9491 29.3053 99.9717 29.278 99.9854 29.2463C99.999 29.2146 100.003 29.1798 99.9975 29.1459C99.9918 29.112 99.9764 29.0804 99.953 29.0546C99.9296 29.0288 99.8992 29.0099 99.8653 29Z" fill="#DAB1B1"/>
<path d="M73.5713 52.8877C72.7204 49.8981 72.8221 46.7178 73.8624 43.7886C74.9026 40.8595 76.8297 38.3269 79.376 36.5428C80.5643 35.652 81.9815 35.1173 83.4623 35.0012C88.2226 34.8919 97.0997 42.5029 100.463 47.9472C103.135 52.2383 103.263 52.1533 112 70.5072C112 70.5072 109.571 76 96.6747 75.2595C83.778 74.5191 77.6455 76 77.6455 76C77.6455 76 77.0383 62.2649 74.6824 56.238C74.2372 55.0727 73.8668 53.9559 73.5713 52.8877Z" fill="#FD471F"/>
<path d="M84.034 44L87.3233 55.9304L74 54.242L91 60L89.4752 50.327L84.034 44Z" fill="#CF3A19"/>
<path d="M76.3458 39C76.3458 39 68.8198 44.1936 71.6273 61.4454C74.2225 62.4305 76.6525 62.0128 79 60.903L76.3458 39Z" fill="#FD471F"/>
<path d="M101.431 51.3699L92.3613 56.9843L68.9766 52.3305C68.9766 52.3305 68.8487 50.3258 67.2771 49.8187C65.7055 49.3115 66.6192 47.098 65.736 47.4321C64.8527 47.7662 64.8588 49.6993 65.736 50.6301C65.736 50.6301 61.2954 46.5013 60.6802 47.0503C60.065 47.5992 63.7806 50.9821 63.7806 50.9821C63.7806 50.9821 59.7969 48.3927 59.3096 48.8999C58.8223 49.407 62.9644 52.068 62.9644 52.068C62.9644 52.068 59.3096 50.5645 59.0173 51.0418C58.7249 51.5191 62.2457 53.2494 62.2457 53.2494C62.2457 53.2494 59.5715 52.7721 59.4071 53.0883C59.2426 53.4045 63.6284 56.0059 67.2466 56.5428C88.9927 67.6643 103.186 65.928 105.75 61.9783C107.261 59.6812 101.431 51.3699 101.431 51.3699Z" fill="#FFA6A6"/>
<path d="M88 56.27L89.404 59.1721L95 62L90.7946 57.4443L89.8877 56L88 56.27Z" fill="#FF6767"/>
<path d="M90 58.4877C90 58.4877 97.7562 61.0523 103 54.7052L101.276 52L90 58.4877Z" fill="#FF6767"/>
<path d="M81 35.9197L89.4416 58C89.4416 58 99.8792 58 103 50.3168L95.0404 39.8027C93.95 38.2628 92.4789 37.0042 90.7579 36.1384C88.4713 35.0746 85.1405 34.324 81 35.9197Z" fill="#FD471F"/>
<path d="M80.8076 39.539C80.391 42.4239 77.4808 48.3367 75.8203 47.985C74.1598 47.6333 76.0961 41.2973 76.0961 41.2973L74.9871 38.6926C74.9871 38.6926 73.5848 41.196 71.9948 41.2914C71.8104 41.3049 71.6252 41.2827 71.4491 41.2258C64.0385 39.6761 63 28.6253 63 28.6253V26.3723L64.5197 25.6689L71.4491 24L80.8076 34.5381C81.0641 36.1949 81.0641 37.8822 80.8076 39.539Z" fill="#FFA6A6"/>
<path d="M63.1733 29.6696C63.1733 29.6696 63.1193 27.2692 64.8237 27.2692C66.5282 27.2692 66.9483 28.4356 69.2169 28.497C71.4856 28.5584 74.6724 28.5339 76.731 30.9957C78.7895 33.4575 79.3537 35.7105 83.6028 36.4349C87.852 37.1594 99.6933 61.1573 104.801 58.8428C109.908 56.5284 113.089 48.2773 109.404 39.0686C106.199 31.0877 97.8387 30.4738 91.0389 27.5516C87.2401 25.969 83.7758 23.651 80.8361 20.7249C77.0791 16.8634 70.6333 15.0707 65.0998 20.0005C60.7606 23.8927 61.8469 28.6321 63.1733 29.6696Z" fill="#090738"/>
<path d="M76.2298 48C74.3874 47.654 76.5348 41.4208 76.5348 41.4208L75.3086 38.8584C75.3086 38.8584 73.7581 41.3212 72 41.415C72.3828 41.3563 76.0676 38.829 77.0537 35L79 40.9928C79 40.9928 74.1798 45.1737 76.2298 48Z" fill="#FF6767"/>
</g>
</svg>
