<svg width="167" height="167" viewBox="0 0 167 167" fill="none" xmlns="http://www.w3.org/2000/svg">
<mask id="mask0_136:22502" style="mask-type:alpha" maskUnits="userSpaceOnUse" x="0" y="0" width="167" height="167">
<rect x="1" y="1" width="165" height="165" rx="8" fill="#5988D6" stroke="#EDE6FC" stroke-opacity="0.3"/>
</mask>
<g mask="url(#mask0_136:22502)">
<rect x="1" y="1" width="165" height="165" rx="8" fill="#FAE28B" stroke="#EDE6FC" stroke-opacity="0.3"/>
<g clip-path="url(#clip0_136:22502)">
<path d="M111.312 46.4329C111.312 46.4329 102.537 64.9355 97.0821 62.5208C90.7478 59.7267 102.192 49.6971 105.503 47.5066C108.815 45.3161 108.371 44.4451 111.312 46.4329Z" fill="#E4A068"/>
<path d="M106.137 46.8771C105.555 48.4466 105.654 50.7923 107.09 51.9091C107.349 52.1277 107.668 52.2624 108.006 52.2955C108.343 52.3286 108.682 52.2586 108.979 52.0946C109.228 51.9344 109.41 51.6882 109.489 51.4027C109.569 51.1173 109.541 50.8125 109.41 50.5466C109.315 50.3611 109.035 50.5466 109.13 50.7104C109.531 51.5081 108.63 52.1334 107.905 51.9479C107.61 51.85 107.34 51.6894 107.113 51.4773C106.886 51.2652 106.708 51.0065 106.59 50.719C106.317 50.134 106.164 49.4998 106.142 48.8544C106.12 48.209 106.228 47.5658 106.461 46.9633C106.534 46.7693 106.219 46.683 106.15 46.8771H106.137Z" fill="#292D44"/>
<path d="M118.952 47.347C118.952 47.347 120.772 48.7915 120.388 49.3348C120.005 49.8781 118.715 48.6233 117.853 48.2827C116.99 47.942 114.834 46.8899 114.834 46.8899L118.952 47.347Z" fill="#B7694A"/>
<path d="M108.561 48.2569C109.415 48.989 110.307 49.6756 111.234 50.3137C112.601 51.2321 113.299 52.9009 113.722 51.672C114.145 50.443 112.597 48.8217 112.691 48.2828C112.864 47.2996 114.502 47.4204 117.253 47.8516C120.867 48.4337 121.134 47.7783 120.966 47.5799C120.384 46.8296 118.646 46.7175 115.93 45.7689C113.516 45.0045 110.944 44.887 108.47 45.4282C108.384 46.3713 108.415 47.3212 108.561 48.2569Z" fill="#E4A068"/>
<path d="M98.048 109.741L95.5427 122.233L100.04 124.281L105.551 111.009L98.048 109.741Z" fill="#E4A068"/>
<path d="M106.202 134.85C106.207 135.392 106.057 135.924 105.771 136.385L92.4037 129.378C92.4553 128.707 92.6005 128.047 92.8349 127.416C93.4989 125.609 94.6545 124.54 94.5899 123.733C94.4044 121.461 95.7282 121.405 95.7282 121.405C96.3578 121.008 97.3236 122.88 98.1472 123.358C98.9708 123.837 100.734 122.548 101.006 122.595C101.278 122.643 100.609 124.583 100.609 125.933C100.609 127.282 103.766 129.813 105.353 132.28C105.887 133.032 106.183 133.927 106.202 134.85Z" fill="#6B76C7"/>
<path d="M102.295 128.08C102.076 127.936 101.823 127.852 101.561 127.836C101.3 127.82 101.038 127.873 100.803 127.989C100.618 128.08 100.803 128.36 100.967 128.27C101.152 128.181 101.357 128.142 101.561 128.158C101.766 128.174 101.962 128.244 102.131 128.36C102.304 128.477 102.468 128.196 102.295 128.08Z" fill="white"/>
<path d="M102.856 128.809C102.439 128.661 101.986 128.649 101.562 128.774C101.542 128.78 101.523 128.789 101.506 128.802C101.489 128.815 101.475 128.832 101.465 128.85C101.455 128.868 101.448 128.889 101.445 128.91C101.443 128.931 101.444 128.952 101.45 128.972C101.456 128.993 101.465 129.012 101.478 129.029C101.491 129.045 101.508 129.059 101.526 129.07C101.544 129.08 101.565 129.087 101.586 129.089C101.607 129.092 101.628 129.09 101.648 129.085C102.019 128.973 102.415 128.985 102.778 129.119C102.977 129.188 103.058 128.878 102.864 128.809H102.856Z" fill="white"/>
<path d="M103.636 129.593C103.193 129.473 102.726 129.473 102.282 129.593C102.241 129.605 102.206 129.632 102.185 129.669C102.164 129.707 102.159 129.751 102.17 129.792C102.182 129.833 102.209 129.868 102.246 129.889C102.283 129.91 102.327 129.915 102.369 129.904C102.755 129.796 103.164 129.796 103.55 129.904C103.571 129.91 103.592 129.911 103.613 129.909C103.634 129.906 103.654 129.899 103.673 129.889C103.691 129.879 103.707 129.865 103.72 129.848C103.733 129.831 103.743 129.812 103.748 129.792C103.754 129.771 103.756 129.75 103.753 129.729C103.751 129.708 103.744 129.688 103.734 129.669C103.723 129.651 103.709 129.635 103.692 129.622C103.676 129.609 103.657 129.599 103.636 129.593Z" fill="white"/>
<path d="M106.202 134.85C106.207 135.392 106.057 135.924 105.771 136.385L92.4037 129.378C92.4553 128.707 92.6005 128.046 92.8349 127.416L106.202 134.85Z" fill="white"/>
<path d="M94.1414 125.182C95.2833 125.631 96.2513 126.433 96.9032 127.473C97.5551 128.512 97.8566 129.733 97.7634 130.956C97.7634 131.167 98.0696 131.163 98.0868 130.956C98.1815 129.659 97.8549 128.366 97.1556 127.27C96.4564 126.174 95.4219 125.333 94.2061 124.872C94.012 124.794 93.9301 125.109 94.1198 125.182H94.1414Z" fill="white"/>
<path d="M97.8971 129.494L105.659 133.875C105.695 133.89 105.736 133.892 105.774 133.879C105.811 133.866 105.843 133.841 105.863 133.806C105.883 133.772 105.89 133.732 105.882 133.693C105.875 133.654 105.854 133.619 105.822 133.595C103.235 132.137 100.648 130.677 98.061 129.214C97.8799 129.115 97.716 129.391 97.8971 129.494Z" fill="white"/>
<path d="M117.577 76.1595C117.577 86.5082 106.4 115.83 106.4 115.83L94.538 113.484L99.5873 86.3961L78.8252 84.0504C75.7249 76.1121 77.7386 70.4203 88.2555 68.4454C88.2555 68.4454 104.481 68.7171 112.734 71.0844C114.541 71.6018 115.964 72.2184 116.753 72.9557C117.348 73.4904 117.577 74.6115 117.577 76.1595Z" fill="#C64DA9"/>
<path d="M117.577 76.1595C115.356 76.9702 112.562 77.5351 110.622 76.3061C108.349 74.8703 110.622 72.6108 112.735 71.0844C114.541 71.6018 115.964 72.2184 116.753 72.9557C117.348 73.4904 117.577 74.6115 117.577 76.1595Z" fill="#91258C"/>
<path d="M94.5899 111.345L108 114.277L107 117.882L93.4429 114.907L94.5899 111.345Z" fill="#91258C"/>
<path d="M97.039 111.742H97.0131C96.993 111.738 96.9738 111.731 96.9566 111.72C96.9394 111.709 96.9246 111.694 96.913 111.677C96.9013 111.66 96.8932 111.642 96.8889 111.622C96.8846 111.602 96.8844 111.581 96.8881 111.561L102.394 82.925L83.521 80.9717C83.5006 80.9696 83.4808 80.9634 83.4627 80.9536C83.4447 80.9437 83.4288 80.9304 83.416 80.9143C83.4031 80.8983 83.3936 80.8798 83.388 80.8601C83.3823 80.8403 83.3806 80.8197 83.383 80.7992C83.3874 80.7588 83.4074 80.7217 83.4389 80.6959C83.4703 80.6701 83.5107 80.6576 83.5512 80.6613L102.597 82.6318C102.619 82.6348 102.639 82.642 102.658 82.6531C102.676 82.6642 102.692 82.679 102.705 82.6965C102.717 82.7137 102.726 82.7333 102.731 82.7541C102.735 82.7749 102.735 82.7964 102.731 82.8172L97.1942 111.625C97.1854 111.66 97.1653 111.69 97.137 111.711C97.1088 111.732 97.0743 111.743 97.039 111.742Z" fill="#91258C"/>
<path d="M62.401 143.021L61.3575 155.073L66.2947 155.465L69.8047 144.202L62.401 143.021Z" fill="#E4A068"/>
<path d="M69.5761 162.05H58.6194C58.7142 161.618 58.8565 161.084 59.0161 160.506C59.5766 158.484 60.383 155.918 60.4563 155.275C60.6192 154.525 60.911 153.809 61.3187 153.158L61.5386 154.676C61.5386 154.676 63.4876 151.813 64.6475 151.658C64.976 151.637 65.3037 151.71 65.5918 151.869C66.1944 152.168 66.6779 152.663 66.9637 153.272C67.2495 153.881 67.3207 154.569 67.1657 155.224L66.9415 156.203C68.5196 157.155 69.1578 158.954 69.4122 160.515C69.4994 161.022 69.5541 161.535 69.5761 162.05Z" fill="#6B76C7"/>
<path d="M59.2188 160.07H68.9768C69.0151 160.064 69.05 160.044 69.0751 160.015C69.1003 159.985 69.1141 159.948 69.1141 159.909C69.1141 159.87 69.1003 159.832 69.0751 159.803C69.05 159.773 69.0151 159.753 68.9768 159.747H59.2188C59.1804 159.753 59.1456 159.773 59.1204 159.803C59.0952 159.832 59.0814 159.87 59.0814 159.909C59.0814 159.948 59.0952 159.985 59.1204 160.015C59.1456 160.044 59.1804 160.064 59.2188 160.07Z" fill="white"/>
<path d="M63.5998 157.293C63.9106 157.079 64.2812 156.967 64.6589 156.975C65.0366 156.983 65.4023 157.109 65.704 157.337C65.8722 157.457 66.036 157.177 65.8679 157.056C65.5163 156.801 65.095 156.661 64.6608 156.653C64.2267 156.645 63.8007 156.771 63.4402 157.013C63.2635 157.13 63.4402 157.41 63.5998 157.293Z" fill="white"/>
<path d="M63.5998 156.535C63.9103 156.319 64.281 156.207 64.6589 156.215C65.0368 156.223 65.4025 156.35 65.704 156.578C65.8722 156.698 66.036 156.418 65.8679 156.297C65.517 156.041 65.0955 155.899 64.6609 155.891C64.2263 155.884 63.8 156.01 63.4402 156.254C63.2635 156.371 63.4402 156.651 63.5998 156.535Z" fill="white"/>
<path d="M63.5998 155.771C63.9111 155.558 64.2814 155.447 64.6588 155.455C65.0362 155.463 65.4017 155.588 65.704 155.814C65.8722 155.935 66.036 155.655 65.8679 155.538C65.517 155.282 65.0955 155.14 64.6609 155.132C64.2263 155.125 63.8 155.251 63.4402 155.495C63.2635 155.607 63.4402 155.888 63.5998 155.771Z" fill="white"/>
<path d="M69.5761 162.05H58.6194C58.7142 161.618 58.8565 161.084 59.0161 160.506H69.4208C69.5055 161.017 69.5573 161.532 69.5761 162.05Z" fill="white"/>
<path d="M84.4697 107.016C84.4309 107.952 84.0385 109.776 83.3658 112.152C80.2655 123.401 71.7235 146.988 71.7235 146.988L59.3568 144.586C59.3568 144.586 69.1881 110.435 68.9294 108.456C68.2308 103.122 59.1714 73.5854 59.1714 73.5854L78.7046 69.4502C78.7046 69.4502 83.7711 96.7234 84.4093 105.239C84.4619 105.83 84.482 106.423 84.4697 107.016Z" fill="#C64DA9"/>
<path d="M84.4696 107.016C84.4308 107.952 84.0384 109.776 83.3658 112.151C80.9856 111.979 77.1996 111.341 76.5658 109.021C75.5999 105.468 81.9514 105.222 84.4093 105.257C84.4612 105.842 84.4814 106.429 84.4696 107.016Z" fill="#91258C"/>
<path d="M80.0584 77.4661L81.0933 83.8392C81.1278 84.0375 81.4253 83.9556 81.3951 83.7573C81.0502 81.6358 80.7038 79.5114 80.3559 77.3842C80.3258 77.1901 80.0282 77.2721 80.0584 77.4661Z" fill="#91258C"/>
<path d="M81.1278 81.7651C82.3999 81.4805 82.9475 80.0964 82.9561 78.9063C82.9871 77.4135 82.6929 75.9318 82.0937 74.5641C82.0118 74.3874 81.7444 74.5426 81.8264 74.7237C82.3419 75.9241 82.623 77.2121 82.6543 78.5182C82.7103 79.6738 82.3697 81.1744 81.0588 81.4633C80.8648 81.5107 80.9467 81.8082 81.1451 81.7651H81.1278Z" fill="#91258C"/>
<path d="M61.9569 142.21H61.9138C61.8942 142.204 61.876 142.194 61.8602 142.182C61.8444 142.169 61.8313 142.153 61.8217 142.135C61.8121 142.117 61.8062 142.097 61.8042 142.076C61.8022 142.056 61.8043 142.036 61.8103 142.016C61.9094 141.701 71.676 110.474 71.6674 108.693C71.6588 106.912 62.9702 77.7506 62.884 77.4703C62.878 77.4508 62.8759 77.4303 62.8779 77.4099C62.8798 77.3896 62.8858 77.3699 62.8954 77.3518C62.905 77.3338 62.9181 77.3179 62.9339 77.3049C62.9497 77.2919 62.9679 77.2822 62.9874 77.2763C63.0269 77.2654 63.069 77.27 63.1051 77.2893C63.1413 77.3085 63.1686 77.3409 63.1815 77.3798C63.5394 78.5828 71.9692 106.856 71.9779 108.685C71.9865 110.513 62.4916 140.809 62.1078 142.098C62.0984 142.131 62.0785 142.159 62.0512 142.18C62.024 142.2 61.9908 142.211 61.9569 142.21Z" fill="#91258C"/>
<path d="M59.167 142.098L73.6509 144.521L72.685 147.902L58.309 145.435L59.167 142.098Z" fill="#91258C"/>
<path d="M71.5252 25.0413C71.5252 25.0413 68.468 26.4168 64.9839 28.2623C62.828 29.4007 59.3784 30.3062 59.124 31.5825C55.6744 49.4254 58.2616 67.9065 58.2616 67.9065L87.7942 64.431C84.5301 63.5428 88.9843 34.8079 89.3595 32.6821C89.7734 30.2372 71.5252 25.0413 71.5252 25.0413Z" fill="#6B76C7"/>
<path d="M68.3041 40.7713V47.3168L82.775 46.6959L82.0851 40.3013L68.3041 40.7713Z" fill="#7F9BF2"/>
<path d="M57.563 60.1751C57.563 60.1751 58.0502 69.3035 59.3783 77.0693C59.3783 77.0693 79.1745 75.8102 90.6918 68.5187C90.6918 68.5187 86.7722 64.8061 86.5696 57.8552L57.563 60.1751Z" fill="#6B76C7"/>
<path d="M85.4398 61.4169C79.9689 61.7405 74.5901 62.9733 69.5244 65.0648C69.3346 65.1424 69.4166 65.4572 69.6106 65.3753C74.6491 63.2947 79.9984 62.0663 85.4398 61.7403C85.6468 61.7403 85.6511 61.4083 85.4398 61.4169Z" fill="#292D44"/>
<path d="M59.913 46.1656C59.3132 54.0042 59.4865 61.8827 60.4304 69.6874C60.6977 71.8606 61.0226 74.0252 61.4049 76.1812C61.4437 76.3881 61.7542 76.2976 61.7197 76.0949C60.3513 68.4031 59.7418 60.5955 59.9 52.7845C59.9432 50.5767 60.0495 48.3705 60.2191 46.1656C60.2191 45.9586 59.9087 45.9586 59.8957 46.1656H59.913Z" fill="#292D44"/>
<path d="M72.2755 33.2987C72.6072 33.8424 73.0486 34.3111 73.5715 34.6747C74.0944 35.0384 74.6874 35.289 75.3126 35.4108C75.9378 35.5325 76.5815 35.5225 77.2026 35.3816C77.8238 35.2407 78.4088 34.9719 78.9202 34.5923C79.0625 34.4845 78.9202 34.2473 78.7822 34.3508C78.302 34.7137 77.7512 34.972 77.1651 35.1092C76.579 35.2464 75.9707 35.2593 75.3793 35.1472C74.788 35.0351 74.2266 34.8005 73.7314 34.4583C73.2362 34.1162 72.8181 33.6742 72.504 33.1607C72.4092 33.0098 72.172 33.1607 72.2625 33.2987H72.2755Z" fill="#292D44"/>
<path d="M88.2296 38.1841C88.0097 40.9825 87.5138 43.7465 87.2982 46.545C87.2982 46.7433 87.5914 46.7433 87.6087 46.545C87.8243 43.7465 88.3202 40.9825 88.5358 38.1841C88.5358 37.9814 88.2425 37.9857 88.2296 38.1841Z" fill="#292D44"/>
<path d="M70.5938 25.8476C70.5938 25.8476 70.5937 32.4621 76.5399 32.9494L78.3596 28.2752L79.1659 26.1624L79.7308 24.679L75.4404 20.1385C74.1734 22.312 72.5327 24.2446 70.5938 25.8476Z" fill="#E4A068"/>
<path d="M75.2291 22.8335C75.4749 27.098 77.2083 28.8702 78.0491 29.0858L79.1659 26.1623L75.2291 22.8335Z" fill="#292D44"/>
<path d="M87.4621 19.0002C87.4621 19.0002 87.5052 21.527 84.4437 22.3678L87.4621 19.0002Z" fill="#292D44"/>
<path d="M75.9105 18.3836C75.787 18.5827 75.6747 18.7886 75.5741 19.0002C75.3686 19.4458 75.2375 19.9222 75.1861 20.4102C75.1281 21.2218 75.1396 22.0369 75.2206 22.8465C75.3284 24.4376 76.3934 25.701 77.6741 26.5375C81.0719 28.7496 82.8829 26.6281 84.8707 22.9413C86.1083 20.6517 87.501 19.8454 87.5053 18.6294L87.4665 18.444C87.1437 16.9734 86.2645 15.6847 85.013 14.8478C84.7715 14.6839 84.5387 14.5373 84.3059 14.4166C84.256 14.3832 84.2042 14.353 84.1506 14.326L84.0859 14.2872L83.9092 14.1924L83.7841 14.1277C83.6893 14.076 83.5944 14.0328 83.5038 13.9897C80.5415 12.5969 78.7909 13.8172 77.6353 15.3911C76.8505 16.4648 76.3417 17.698 75.9105 18.3836Z" fill="#E4A068"/>
<path d="M81.641 20.2636C81.7703 20.3093 81.8818 20.3949 81.9593 20.508C82.0368 20.6212 82.0764 20.7561 82.0722 20.8932C82.0722 21.1045 82.3913 21.1045 82.3956 20.8932C82.4 20.6855 82.3379 20.482 82.2184 20.3121C82.099 20.1422 81.9284 20.015 81.7315 19.9488C81.5332 19.8799 81.447 20.1946 81.6453 20.2636H81.641Z" fill="#292D44"/>
<path d="M83.715 22.0617C83.84 22.0003 83.9805 21.9782 84.1183 21.9982C84.2561 22.0182 84.3845 22.0794 84.4869 22.1738C84.6464 22.3117 84.8749 22.0789 84.7154 21.9409C84.5612 21.7982 84.367 21.706 84.1589 21.6767C83.9508 21.6474 83.7388 21.6824 83.5512 21.7771C83.3571 21.8633 83.5253 22.1479 83.715 22.0617Z" fill="#292D44"/>
<path d="M79.6877 20.4015C79.5669 20.5913 79.7653 20.9276 80.1189 21.1561C80.4725 21.3847 80.8735 21.4106 80.9813 21.2208C81.0891 21.0311 80.8993 20.6948 80.5501 20.4705C80.2008 20.2463 79.8041 20.1989 79.6877 20.4015Z" fill="#B7694A"/>
<path d="M84.3575 23.8512C84.1447 23.845 83.9381 23.7776 83.7625 23.6571C83.4003 23.4329 83.2019 23.0966 83.3313 22.9068C83.4606 22.7171 83.8401 22.7516 84.1937 22.9758C84.3733 23.0785 84.5222 23.2274 84.6249 23.407L84.3575 23.8512Z" fill="#B7694A"/>
<path d="M82.6801 19.4314C82.5206 19.2201 82.2015 19.039 81.9514 19.2287C81.8836 19.2921 81.7942 19.3273 81.7013 19.3273C81.6085 19.3273 81.5191 19.2921 81.4512 19.2287C81.4198 19.1945 81.3953 19.1544 81.3794 19.1107C81.3634 19.067 81.3562 19.0206 81.3582 18.9742C81.3602 18.9277 81.3714 18.8821 81.3911 18.84C81.4107 18.7978 81.4385 18.76 81.4728 18.7286C81.6016 18.6299 81.7488 18.558 81.9057 18.5169C82.0626 18.4759 82.2262 18.4665 82.3868 18.4894C82.5474 18.5123 82.7018 18.5669 82.841 18.6502C82.9802 18.7335 83.1015 18.8437 83.1976 18.9743C83.2601 19.044 83.2928 19.1353 83.2888 19.2288C83.2848 19.3223 83.2443 19.4105 83.176 19.4745C83.1432 19.5074 83.1042 19.5334 83.0613 19.5512C83.0184 19.569 82.9724 19.5782 82.9259 19.5782C82.8795 19.5782 82.8335 19.569 82.7906 19.5512C82.7477 19.5334 82.7087 19.5074 82.6758 19.4745L82.6801 19.4314Z" fill="#292D44"/>
<path d="M85.0518 21.264C85.0445 21.1216 84.9927 20.9851 84.9038 20.8737C84.8148 20.7623 84.6931 20.6816 84.5559 20.643C84.4693 20.6135 84.3976 20.5516 84.3557 20.4703C84.3138 20.389 84.305 20.2946 84.3313 20.207C84.3575 20.1193 84.4167 20.0453 84.4964 20.0003C84.576 19.9554 84.67 19.9431 84.7586 19.9661C85.0158 20.0389 85.2461 20.1855 85.4208 20.3878C85.5955 20.5902 85.7071 20.8393 85.7417 21.1044C85.8064 21.5356 85.1165 21.7167 85.0518 21.264Z" fill="#292D44"/>
<path d="M82.8526 22.605C82.5728 22.5967 82.3021 22.5034 82.0765 22.3376C82.0631 22.3311 82.0512 22.3218 82.0417 22.3102C82.0322 22.2987 82.0254 22.2853 82.0216 22.2708C82.0178 22.2564 82.0172 22.2413 82.0198 22.2266C82.0223 22.2119 82.0281 22.1979 82.0366 22.1856C82.0451 22.1734 82.0561 22.1631 82.069 22.1555C82.0818 22.1479 82.0962 22.1431 82.111 22.1416C82.1259 22.1401 82.1409 22.1418 82.155 22.1466C82.1692 22.1514 82.1821 22.1592 82.1929 22.1695C82.3625 22.2907 82.5596 22.3677 82.7664 22.3937C82.7367 21.9712 82.8248 21.5488 83.0208 21.1734C83.034 21.1488 83.0563 21.1305 83.083 21.1224C83.0962 21.1184 83.1101 21.117 83.1238 21.1184C83.1376 21.1197 83.1509 21.1238 83.1631 21.1303C83.1753 21.1368 83.186 21.1456 83.1948 21.1563C83.2036 21.167 83.2101 21.1793 83.2141 21.1925C83.2181 21.2057 83.2195 21.2196 83.2181 21.2333C83.2168 21.2471 83.2127 21.2604 83.2062 21.2726C83.007 21.6369 82.9328 22.0565 82.9949 22.467C83.0025 22.4809 83.0064 22.4965 83.0064 22.5123C83.0064 22.5281 83.0025 22.5437 82.9949 22.5576C82.9858 22.5703 82.9743 22.581 82.961 22.5892C82.9476 22.5973 82.9328 22.6027 82.9173 22.605H82.8526Z" fill="#292D44"/>
<path d="M76.5399 20.1256C76.1007 19.8696 75.7604 19.4731 75.574 19.0002C75.3684 19.4458 75.2373 19.9221 75.1859 20.4102C75.6559 20.4604 76.1298 20.3608 76.5399 20.1256Z" fill="#292D44"/>
<path d="M78.42 15.8524C79.5584 17.077 78.2389 19.5004 79.1919 19.5349C80.1448 19.5694 80.0543 15.5765 81.779 16.8054C83.5038 18.0343 83.1546 17.4694 83.935 18.0472C85.276 19.0217 86.824 18.4526 87.4924 18.6466L87.4536 18.4612C87.1308 16.9906 86.2516 15.7019 85.0001 14.865C84.7586 14.7012 84.5258 14.5545 84.2929 14.4338C84.2431 14.4004 84.1913 14.3702 84.1377 14.3433L84.073 14.3045L83.8962 14.2096L83.7712 14.1449C83.6806 14.0932 83.5858 14.05 83.4909 14.0069C80.5286 12.6142 78.7779 13.8344 77.6223 15.4083C77.9321 15.4581 78.2145 15.6154 78.42 15.8524Z" fill="#292D44"/>
<path d="M79.1874 19.5392C78.2388 19.5047 79.5583 17.0856 78.4199 15.8567C78.2197 15.6175 77.942 15.4558 77.6351 15.3997C76.8504 16.469 76.3415 17.7023 75.9103 18.3879C75.7906 18.5817 75.6812 18.7818 75.5826 18.9872C75.8686 17.4358 76.2502 15.9036 76.7253 14.3993C76.7865 14.2505 76.8586 14.1064 76.9409 13.9681C76.9943 13.9506 77.0492 13.9376 77.1048 13.9293C77.3377 13.8741 77.5771 13.8509 77.8162 13.8603C78.2021 13.8728 78.584 13.9411 78.9503 14.063C80.1105 14.5013 81.1707 15.1685 82.0678 16.0249C80.8303 16.482 79.9679 19.565 79.1874 19.5392Z" fill="#292D44"/>
<path d="M82.7751 24.2435C82.7751 24.2435 82.0248 23.6528 80.5415 22.5187C80.5415 22.5187 79.5799 24.2909 80.7399 25.0024C81.723 25.5759 82.7751 24.2435 82.7751 24.2435Z" fill="white"/>
<path d="M80.5586 25.6967C80.4034 25.6742 80.2576 25.6085 80.1379 25.5071C80.0181 25.4057 79.9294 25.2726 79.8817 25.1232C79.8385 24.955 80.0973 24.8989 80.1404 25.0628C80.1798 25.1658 80.247 25.2558 80.3345 25.3228C80.4221 25.3898 80.5266 25.4312 80.6362 25.4423C80.8044 25.4854 80.7268 25.7398 80.5586 25.6967Z" fill="#B7694A"/>
<path d="M78.1655 19.9704C78.43 19.7508 78.6403 19.4731 78.7801 19.159C78.92 18.845 78.9856 18.5029 78.9718 18.1594C78.9718 17.2668 78.795 15.8223 78.0016 15.4644C76.8331 14.947 76.1044 15.8223 75.6042 16.8658C75.104 17.9093 74.9401 19.5866 76.4148 20.2162C76.6992 20.3485 77.0159 20.3957 77.3265 20.3521C77.6371 20.3085 77.9285 20.1759 78.1655 19.9704Z" fill="#E4A068"/>
<path d="M76.9927 18.9829C77.3281 18.6162 77.5667 18.1716 77.6869 17.6893C77.7688 17.2581 77.6869 16.5036 77.1522 16.3699C76.9711 16.3268 77.0056 16.0335 77.191 16.081C77.4315 16.1597 77.6401 16.3137 77.7862 16.5203C77.9322 16.7269 78.0077 16.975 78.0017 17.228C78.001 17.9447 77.721 18.633 77.2212 19.1468C77.1005 19.2934 76.8719 19.1123 76.9927 18.9657V18.9829Z" fill="#292D44"/>
<path d="M82.249 21.6693C82.0931 21.9411 81.86 22.1605 81.5792 22.2996C81.2985 22.4388 80.9827 22.4915 80.672 22.451C80.3613 22.4105 80.0696 22.2787 79.8339 22.0723C79.5981 21.8658 79.429 21.5941 79.3479 21.2914C79.2668 20.9887 79.2773 20.6688 79.3782 20.3722C79.4791 20.0755 79.6658 19.8155 79.9147 19.625C80.1635 19.4346 80.4633 19.3223 80.776 19.3024C81.0887 19.2826 81.4003 19.356 81.6712 19.5133C82.0329 19.7234 82.2967 20.0681 82.405 20.4721C82.5133 20.8761 82.4572 21.3065 82.249 21.6693Z" fill="#292D44"/>
<path d="M86.0435 23.8511C85.8875 24.1229 85.6544 24.3423 85.3737 24.4814C85.0929 24.6206 84.7772 24.6733 84.4665 24.6328C84.1557 24.5923 83.864 24.4605 83.6283 24.2541C83.3926 24.0477 83.2234 23.7759 83.1423 23.4732C83.0612 23.1706 83.0718 22.8506 83.1727 22.554C83.2736 22.2573 83.4603 21.9973 83.7091 21.8069C83.9579 21.6164 84.2577 21.5042 84.5704 21.4843C84.8831 21.4644 85.1947 21.5378 85.4657 21.6951C85.8273 21.9052 86.0911 22.2499 86.1994 22.6539C86.3077 23.0579 86.2516 23.4883 86.0435 23.8511Z" fill="#292D44"/>
<path d="M82.2446 21.7857C82.6758 21.7857 83.245 21.8332 83.327 22.3506C83.3615 22.5576 83.6719 22.4713 83.6417 22.2644C83.5339 21.596 82.7793 21.4796 82.2446 21.4623C82.0334 21.4623 82.0334 21.7771 82.2446 21.7857Z" fill="white"/>
<path d="M80.5285 19.1813C80.4602 18.7387 80.3041 18.3143 80.0693 17.9329C79.8346 17.5515 79.526 17.221 79.1616 16.9606C78.9935 16.8399 78.8382 17.1245 79.0021 17.2452C79.3302 17.4834 79.607 17.7852 79.8159 18.1326C80.0248 18.4801 80.1616 18.8661 80.218 19.2675C80.2482 19.4745 80.5587 19.3883 80.5285 19.1813Z" fill="white"/>
<path d="M99.9193 60.8047C98.3369 63.6204 95.4435 63.1806 92.8434 58.321C91.5462 55.8755 90.3775 53.364 89.3421 50.7966C89.0144 49.9989 88.7169 49.24 88.4538 48.5458C87.4578 45.9241 86.9102 44.1476 86.9102 44.1476L94.3569 40.5083C94.3569 40.5083 94.676 41.1637 95.1676 42.2331C95.422 42.798 95.7281 43.4792 96.0558 44.2381C98.2334 49.2918 101.536 57.9157 99.9193 60.8047Z" fill="#E4A068"/>
<path d="M99.0267 52.7413C97.6753 53.9144 96.5272 55.3029 95.6289 56.8506C95.6138 56.8872 95.6124 56.928 95.625 56.9656C95.6376 57.0031 95.6634 57.0348 95.6976 57.0548C95.7318 57.0747 95.772 57.0817 95.8109 57.0743C95.8498 57.0669 95.8847 57.0456 95.9092 57.0145C96.794 55.4911 97.9246 54.1245 99.2553 52.9699C99.4148 52.8362 99.1863 52.6077 99.0267 52.7413Z" fill="#B7694A"/>
<path d="M98.2334 53.5174C97.5712 53.6381 96.9286 53.8484 96.3232 54.1427C96.1378 54.2375 96.3016 54.5135 96.4871 54.4229C97.0679 54.1419 97.6845 53.9417 98.3196 53.8279C98.5223 53.7934 98.4361 53.4829 98.2334 53.5174Z" fill="#B7694A"/>
<path d="M96.349 43.1083C96.349 43.1083 91.7611 46.8942 87.0309 48.2439C87.0309 48.2439 86.5393 46.9503 85.9658 45.0875C86.9446 39.1672 88.3978 35.9332 88.6091 34.023C88.6342 33.8272 88.6429 33.6296 88.6349 33.4323C88.6211 33.1321 88.5748 32.8343 88.4969 32.544C88.3186 31.8748 87.9338 31.2789 87.3974 30.8408C87.3974 30.8408 92.9943 34.036 96.349 43.1083Z" fill="#6B76C7"/>
<path d="M95.5946 41.6552C93.2913 43.5293 90.6795 44.9884 87.8761 45.9672C87.6778 46.0362 87.764 46.3509 87.9624 46.2819C90.8172 45.2755 93.4766 43.7831 95.8231 41.8708C95.9869 41.7414 95.7541 41.5129 95.5946 41.6423V41.6552Z" fill="#292D44"/>
<path d="M87.8157 39.0033C87.7697 41.993 87.6073 44.974 87.3285 47.9464C87.3285 48.1231 87.5872 48.1231 87.6045 47.9464C87.8919 44.9711 88.0543 41.9901 88.0917 39.0033C88.0917 38.9667 88.0772 38.9316 88.0513 38.9058C88.0254 38.8799 87.9903 38.8654 87.9537 38.8654C87.9171 38.8654 87.882 38.8799 87.8562 38.9058C87.8303 38.9316 87.8157 38.9667 87.8157 39.0033Z" fill="#292D44"/>
<path d="M58.4901 46.4976C58.4901 46.4976 57.9597 47.222 57.0499 48.4122L56.5497 49.0546C54.7387 51.396 52.518 55.4708 49.3703 59.0109C45.6404 63.2065 42.1693 62.3139 40.7463 59.1058C39.3234 55.8977 43.4499 48.6666 46.7098 44.1433C47.5722 42.9532 48.3268 41.9615 48.8399 41.3017C49.2711 40.7455 49.5341 40.4393 49.5341 40.4393L58.4901 46.4976Z" fill="#E4A068"/>
<path d="M42.6048 50.775C42.6048 50.775 38.4394 57.3335 41.1042 62.5208C43.6353 67.4019 55.6873 77.7981 55.6873 77.7981L59.3869 77.0262C59.3869 77.0262 52.8802 64.3836 48.7364 57.5664L42.6048 50.775Z" fill="#E4A068"/>
<path d="M56.8386 75.1204C56.1962 75.313 55.6538 75.7475 55.3256 76.3323C54.9974 76.9171 54.9091 77.6065 55.0793 78.2552C55.2685 78.9571 55.3356 79.6864 55.2776 80.4112C55.0664 81.9462 54.4152 83.7055 54.5101 84.5118C54.6783 85.7019 55.4932 84.6972 55.5795 84.5549C55.985 83.8326 56.3409 83.0835 56.6445 82.3127C56.6445 82.3127 56.3125 84.9301 55.7821 85.8227C55.2518 86.7152 55.5838 87.5949 56.5497 87.0386C57.5155 86.4824 58.4857 83.6839 58.5461 82.8345C58.6567 83.8247 58.4958 84.8264 58.0804 85.7321C57.4078 86.9696 57.3344 87.5 57.3474 88.0735C57.3603 88.647 58.4944 88.5047 59.3913 86.754C60.0111 85.6608 60.2862 84.4058 60.1803 83.1536C60.4184 83.7917 60.5931 84.4518 60.7021 85.1241C60.9263 86.3832 60.0337 87.7458 60.4822 88.3624C60.9306 88.979 61.9008 87.375 62.0302 86.2495C62.1595 85.1241 62.3493 84.3092 61.9526 82.9121C61.6528 81.7053 61.2309 80.5321 60.6935 79.4108C60.2623 78.6303 59.0635 75.655 57.8821 75.1333C57.5458 75.0108 57.1778 75.0062 56.8386 75.1204Z" fill="#E4A068"/>
<path d="M59.5378 77.2203C59.5378 77.2203 61.599 79.0098 61.9008 79.8808C62.2026 80.7518 63.1168 81.9074 62.5519 82.1575C61.987 82.4076 60.8918 80.9588 60.8918 80.9588L59.5378 77.2203Z" fill="#E4A068"/>
<path d="M49.435 58.5581C48.2597 58.3431 47.0535 58.3636 45.8862 58.6185C45.7137 58.653 45.7526 58.929 45.9293 58.8902C47.0729 58.6431 48.2539 58.6241 49.4048 58.8341C49.5773 58.8643 49.6075 58.5883 49.435 58.5581Z" fill="#B7694A"/>
<path d="M48.4862 58.4805C48.0681 57.8553 47.4823 57.3607 46.7959 57.0532C46.6364 56.9799 46.5329 57.2386 46.6968 57.3119C47.3371 57.6043 47.8813 58.0723 48.2663 58.6616C48.3655 58.8125 48.5854 58.6616 48.4862 58.4934V58.4805Z" fill="#B7694A"/>
<path d="M62.9572 29.7456C62.9572 29.7456 55.4759 30.608 47.0029 41.7286C47.0029 41.7286 51.3796 46.9978 56.5367 49.0373C56.5367 49.0373 61.8447 43.5999 63.6773 39.2233C65.3245 35.2347 65.0916 31.6946 62.9572 29.7456Z" fill="#6B76C7"/>
<path d="M48.4087 40.4134C50.9046 43.4327 54.058 45.8413 57.6277 47.4548C57.8174 47.5368 57.9812 47.2608 57.7915 47.1746C54.247 45.5733 51.1157 43.1824 48.6372 40.1849C48.5036 40.0253 48.275 40.2539 48.4087 40.4134Z" fill="#292D44"/>
<path d="M57.1231 48.5673C57.0996 48.5585 57.0787 48.5436 57.0628 48.5242C57.0354 48.4967 57.02 48.4595 57.02 48.4207C57.02 48.3819 57.0354 48.3447 57.0628 48.3172C59.9447 45.6023 62.2947 42.3734 63.9921 38.7964C64.0082 38.7609 64.0373 38.733 64.0735 38.7186C64.1097 38.7041 64.15 38.7042 64.1861 38.7188C64.2216 38.7348 64.2495 38.764 64.264 38.8002C64.2784 38.8363 64.2784 38.8767 64.2638 38.9128C62.5498 42.5269 60.1764 45.7895 57.2654 48.5328C57.2466 48.5502 57.2236 48.5624 57.1988 48.5685C57.1739 48.5745 57.1478 48.5741 57.1231 48.5673Z" fill="#292D44"/>
<path d="M62.8107 41.5302C62.7894 41.5236 62.7701 41.5119 62.7543 41.4961C62.7385 41.4803 62.7268 41.461 62.7202 41.4397C62.7134 41.4213 62.7103 41.4017 62.7112 41.3822C62.7121 41.3626 62.7169 41.3434 62.7254 41.3257C62.7338 41.308 62.7457 41.2922 62.7604 41.2792C62.775 41.2662 62.7921 41.2562 62.8107 41.25C63.5215 40.9697 64.1726 40.5571 64.7295 40.034C64.759 40.0127 64.7952 40.0028 64.8314 40.0061C64.8677 40.0094 64.9015 40.0257 64.9267 40.0519C64.9518 40.0781 64.9667 40.1126 64.9685 40.1489C64.9703 40.1852 64.959 40.221 64.9365 40.2496C64.3495 40.808 63.6598 41.2473 62.9056 41.5432C62.8734 41.5477 62.8405 41.5432 62.8107 41.5302Z" fill="#292D44"/>
<path d="M77.1996 14.1622C77.1996 14.1622 71.2103 9.46644 75.186 9.35001C80.2654 9.19047 84.1462 14.3303 84.1462 14.3303L77.1996 14.1622Z" fill="#91258C"/>
<path d="M84.3144 11.312C78.4113 9.34573 76.9409 13.9682 76.9409 13.9682C78.2576 14.947 79.6234 15.858 81.033 16.6976C85.4484 19.4271 87.5009 19.2158 87.5009 19.2158C87.5009 19.2158 90.6142 13.4076 84.3144 11.312ZM86.3022 18.3879C85.2227 18.2057 84.2143 17.7298 83.3873 17.0124C83.7711 16.426 84.9914 16.2707 85.6597 16.6114C86.535 17.0641 86.3022 18.3879 86.3022 18.3879Z" fill="#C64DA9"/>
<path d="M84.7628 11.4931C82.2446 11.299 79.4591 12.6271 78.7261 15.1884C78.7218 15.2037 78.7206 15.2197 78.7226 15.2354C78.7245 15.2512 78.7295 15.2664 78.7373 15.2802C78.7451 15.294 78.7556 15.3062 78.7681 15.3159C78.7806 15.3257 78.7949 15.3329 78.8102 15.3372C78.8255 15.3414 78.8414 15.3426 78.8572 15.3407C78.8729 15.3388 78.8882 15.3337 78.902 15.3259C78.9158 15.3181 78.9279 15.3077 78.9377 15.2952C78.9475 15.2827 78.9547 15.2684 78.9589 15.2531C79.6661 12.791 82.3568 11.5491 84.7672 11.7345C84.9224 11.7345 84.9224 11.5017 84.7672 11.4931H84.7628Z" fill="#91258C"/>
<path d="M83.314 16.8701C83.1638 16.9217 83.0307 17.0139 82.9295 17.1364C82.8283 17.2589 82.7629 17.407 82.7405 17.5643C82.719 17.7152 82.9518 17.7799 82.9734 17.629C82.9852 17.5122 83.0294 17.4011 83.101 17.3082C83.1727 17.2152 83.2688 17.1441 83.3787 17.1029C83.5253 17.0512 83.465 16.814 83.314 16.8701Z" fill="#91258C"/>
<path d="M86.1901 18.4569C86.2105 18.6317 86.179 18.8087 86.0996 18.9657C86.0263 19.0994 86.2332 19.2244 86.3066 19.0865C86.412 18.8945 86.4556 18.6746 86.4316 18.4569C86.4316 18.306 86.1686 18.3017 86.1901 18.4569Z" fill="#91258C"/>
<path d="M56.4246 11.3939C56.4237 11.4347 56.4091 11.4741 56.383 11.5056C56.357 11.537 56.3211 11.5588 56.2811 11.5673C56.2412 11.5758 56.1995 11.5705 56.1629 11.5523C56.1264 11.5342 56.097 11.5042 56.0796 11.4672C55.9424 11.1149 55.7069 10.8094 55.4012 10.5869C55.0954 10.3645 54.7323 10.2345 54.3548 10.2124C54.0764 10.2275 53.799 10.1693 53.5501 10.0437C53.3011 9.91811 53.0895 9.72949 52.9362 9.49663V15.6584C50.9742 17.3056 47.5419 16.2492 48.525 14.3648C49.5082 12.4805 52.0824 14.3648 52.0824 14.3648V7H52.9448C52.9448 7 53.8072 8.83259 55.3207 8.97919C56.3469 9.07406 56.4591 10.4841 56.4246 11.3939Z" fill="#C64DA9"/>
<path d="M117.409 28.5382L112.454 25.951V27.1325V32.3069C112.454 32.3069 110.652 31.0133 109.966 32.3069C109.281 33.6005 111.691 34.3464 113.049 33.1951V28.3399L116.814 30.1638V33.704C116.814 33.704 115.011 32.4104 114.326 33.704C113.64 34.9975 116.05 35.7435 117.409 34.5922V28.5555V28.5382ZM116.577 29.323L113.312 27.7707V27.1412L116.577 28.7452V29.323Z" fill="#6B76C7"/>
<path d="M41.2336 33.5703C40.7918 33.5703 40.36 33.4393 39.9927 33.1939C39.6254 32.9484 39.3391 32.5996 39.17 32.1914C39.001 31.7833 38.9567 31.3342 39.0429 30.9009C39.1291 30.4677 39.3418 30.0697 39.6542 29.7573C39.9666 29.4449 40.3646 29.2322 40.7978 29.146C41.2311 29.0598 41.6802 29.1041 42.0884 29.2731C42.4965 29.4422 42.8453 29.7285 43.0908 30.0958C43.3362 30.4631 43.4672 30.8949 43.4672 31.3367C43.4661 31.9287 43.2304 32.4962 42.8117 32.9148C42.3931 33.3335 41.8256 33.5691 41.2336 33.5703ZM41.2336 29.5386C40.8769 29.5386 40.5283 29.6444 40.2318 29.8427C39.9353 30.0409 39.7043 30.3227 39.568 30.6523C39.4317 30.9818 39.3963 31.3445 39.4662 31.6942C39.536 32.044 39.7081 32.3651 39.9606 32.617C40.2131 32.8689 40.5347 33.0402 40.8846 33.1093C41.2345 33.1783 41.5971 33.142 41.9263 33.005C42.2556 32.8679 42.5368 32.6362 42.7343 32.3392C42.9319 32.0422 43.0369 31.6934 43.036 31.3367C43.0349 30.8594 42.8445 30.4021 42.5066 30.065C42.1687 29.7279 41.7109 29.5386 41.2336 29.5386Z" fill="#63A778"/>
<path d="M125.972 68.0228C125.53 68.0237 125.098 67.8934 124.73 67.6485C124.362 67.4036 124.075 67.0551 123.906 66.647C123.736 66.2389 123.691 65.7897 123.777 65.3561C123.862 64.9226 124.075 64.5242 124.387 64.2114C124.699 63.8986 125.097 63.6854 125.531 63.5989C125.964 63.5124 126.413 63.5563 126.822 63.7253C127.23 63.8942 127.579 64.1805 127.825 64.5479C128.07 64.9153 128.202 65.3473 128.202 65.7893C128.202 66.3809 127.967 66.9484 127.549 67.3671C127.131 67.7859 126.564 68.0217 125.972 68.0228ZM125.972 63.9912C125.615 63.9903 125.266 64.0954 124.969 64.2931C124.672 64.4908 124.441 64.7723 124.304 65.1018C124.167 65.4313 124.131 65.7941 124.2 66.1441C124.269 66.4942 124.441 66.8157 124.693 67.068C124.946 67.3204 125.267 67.4921 125.617 67.5615C125.967 67.6309 126.33 67.5949 126.66 67.4579C126.989 67.321 127.271 67.0893 127.468 66.7922C127.666 66.4952 127.771 66.1461 127.77 65.7893C127.769 65.3127 127.579 64.856 127.242 64.5191C126.906 64.1821 126.449 63.9923 125.972 63.9912Z" fill="#C64DA9"/>
</g>
</g>
<g filter="url(#filter0_b_136:22502)">
<rect x="13" y="77" width="141" height="77" rx="10" fill="black" fill-opacity="0.8"/>
</g>
<path d="M36.1545 104H34.2225L33.9985 102.824L33.7605 101.984L31.9965 101.942L30.4425 101.984L30.2045 102.726L29.9665 104H28.0905L31.1425 94.984H33.3965L36.1545 104ZM33.3545 100.514L32.2905 96.762H32.1645L30.9325 100.514L32.1365 100.542L33.3545 100.514ZM39.1701 101.13L39.2681 104H37.4061L37.5041 101.298L37.4201 94.312L39.2821 94.172L39.1701 101.13ZM41.1538 101.312L41.0838 97.616L42.9178 97.462L42.8338 101.13L42.9178 104H41.0558L41.1538 101.312ZM42.0358 94.298C42.3252 94.298 42.5492 94.382 42.7078 94.55C42.8758 94.718 42.9598 94.9513 42.9598 95.25C42.9598 95.5673 42.8712 95.8193 42.6938 96.006C42.5165 96.1927 42.2738 96.286 41.9658 96.286C41.6578 96.286 41.4198 96.202 41.2518 96.034C41.0932 95.866 41.0138 95.628 41.0138 95.32C41.0138 95.012 41.1025 94.7647 41.2798 94.578C41.4665 94.3913 41.7185 94.298 42.0358 94.298ZM45.8962 98.526L46.8762 102.25H46.9742L48.1502 98.624L48.3882 97.49H50.0122L47.8282 104H45.8262L43.9782 97.532L45.7142 97.448L45.8962 98.526ZM51.0386 101.312L50.9686 97.616L52.8026 97.462L52.7186 101.13L52.8026 104H50.9406L51.0386 101.312ZM51.9206 94.298C52.2099 94.298 52.4339 94.382 52.5926 94.55C52.7606 94.718 52.8446 94.9513 52.8446 95.25C52.8446 95.5673 52.7559 95.8193 52.5786 96.006C52.4013 96.1927 52.1586 96.286 51.8506 96.286C51.5426 96.286 51.3046 96.202 51.1366 96.034C50.9779 95.866 50.8986 95.628 50.8986 95.32C50.8986 95.012 50.9873 94.7647 51.1646 94.578C51.3513 94.3913 51.6033 94.298 51.9206 94.298ZM57.125 97.364C57.8437 97.364 58.4037 97.5273 58.805 97.854C59.2157 98.1713 59.421 98.6193 59.421 99.198C59.421 99.366 59.393 99.898 59.337 100.794C59.3277 101.055 59.3137 101.326 59.295 101.606C59.2763 101.877 59.267 102.11 59.267 102.306C59.267 102.465 59.2903 102.577 59.337 102.642C59.3837 102.698 59.4677 102.726 59.589 102.726C59.6823 102.726 59.8037 102.707 59.953 102.67L60.093 102.782L59.925 103.762C59.6263 103.958 59.2857 104.075 58.903 104.112C58.623 104.084 58.3897 103.986 58.203 103.818C58.0163 103.641 57.8903 103.398 57.825 103.09H57.727C57.2603 103.585 56.7797 103.93 56.285 104.126C55.613 104.117 55.0857 103.939 54.703 103.594C54.3203 103.249 54.129 102.777 54.129 102.18C54.129 101.713 54.2457 101.349 54.479 101.088C54.7217 100.817 55.0857 100.635 55.571 100.542L57.713 100.136V99.562C57.713 98.9553 57.4143 98.652 56.817 98.652C56.5277 98.652 56.2197 98.7173 55.893 98.848C55.5757 98.9787 55.2163 99.184 54.815 99.464L54.675 99.38L54.465 98.148C54.8663 97.896 55.2957 97.7047 55.753 97.574C56.2103 97.434 56.6677 97.364 57.125 97.364ZM56.215 101.396C56.0657 101.433 55.9537 101.499 55.879 101.592C55.8137 101.676 55.781 101.807 55.781 101.984C55.781 102.227 55.8463 102.418 55.977 102.558C56.1077 102.689 56.2897 102.754 56.523 102.754C56.887 102.754 57.2697 102.539 57.671 102.11L57.699 101.074L56.215 101.396ZM71.2204 104L71.3324 99.94C71.3324 99.2493 71.0384 98.904 70.4504 98.904C70.0304 98.904 69.5917 99.0907 69.1344 99.464L69.0924 101.144L69.1764 104H67.3144L67.4264 99.94C67.4357 99.604 67.361 99.3473 67.2024 99.17C67.053 98.9927 66.8337 98.904 66.5444 98.904C66.1337 98.904 65.681 99.1 65.1864 99.492V101.13L65.2704 104H63.4224L63.5204 101.312L63.4504 97.616L65.2004 97.462V98.414H65.2984C65.8117 97.9473 66.3764 97.6113 66.9924 97.406C68.0377 97.406 68.705 97.756 68.9944 98.456H69.0784C69.6104 97.9613 70.217 97.6113 70.8984 97.406C71.6077 97.406 72.1444 97.5693 72.5084 97.896C72.8817 98.2133 73.059 98.6753 73.0404 99.282L72.9984 101.144L73.0824 104H71.2204ZM77.4173 97.364C78.3693 97.364 79.0973 97.644 79.6013 98.204C80.1053 98.764 80.3573 99.5713 80.3573 100.626C80.3573 101.765 80.0867 102.637 79.5453 103.244C79.004 103.841 78.2247 104.14 77.2073 104.14C76.2553 104.14 75.5273 103.86 75.0233 103.3C74.5193 102.74 74.2673 101.933 74.2673 100.878C74.2673 99.7393 74.538 98.8713 75.0793 98.274C75.6207 97.6673 76.4 97.364 77.4173 97.364ZM77.2913 98.624C76.8433 98.624 76.5167 98.7733 76.3113 99.072C76.1153 99.3707 76.0173 99.8513 76.0173 100.514C76.0173 101.373 76.12 101.984 76.3253 102.348C76.5307 102.712 76.8667 102.894 77.3333 102.894C77.7813 102.894 78.1033 102.749 78.2993 102.46C78.5047 102.161 78.6073 101.676 78.6073 101.004C78.6073 100.155 78.5 99.548 78.2853 99.184C78.08 98.8107 77.7487 98.624 77.2913 98.624ZM89.3493 104L89.4613 99.94C89.4613 99.2493 89.1673 98.904 88.5793 98.904C88.1593 98.904 87.7206 99.0907 87.2633 99.464L87.2213 101.144L87.3053 104H85.4433L85.5553 99.94C85.5646 99.604 85.4899 99.3473 85.3313 99.17C85.1819 98.9927 84.9626 98.904 84.6733 98.904C84.2626 98.904 83.8099 99.1 83.3153 99.492V101.13L83.3993 104H81.5513L81.6493 101.312L81.5793 97.616L83.3293 97.462V98.414H83.4273C83.9406 97.9473 84.5053 97.6113 85.1213 97.406C86.1666 97.406 86.8339 97.756 87.1233 98.456H87.2073C87.7393 97.9613 88.3459 97.6113 89.0273 97.406C89.7366 97.406 90.2733 97.5693 90.6373 97.896C91.0106 98.2133 91.1879 98.6753 91.1693 99.282L91.1273 101.144L91.2113 104H89.3493ZM97.8842 100.976L94.1042 101.004C94.1882 102.171 94.7809 102.754 95.8822 102.754C96.4609 102.754 97.1049 102.591 97.8142 102.264L97.9682 102.362L97.6882 103.748C96.9789 104.009 96.3116 104.14 95.6862 104.14C94.6596 104.14 93.8522 103.841 93.2642 103.244C92.6856 102.647 92.3962 101.821 92.3962 100.766C92.3962 99.7207 92.6809 98.8947 93.2502 98.288C93.8196 97.672 94.5896 97.364 95.5602 97.364C96.3909 97.364 97.0302 97.5927 97.4782 98.05C97.9356 98.498 98.1642 99.128 98.1642 99.94C98.1642 100.155 98.1409 100.425 98.0942 100.752L97.8842 100.976ZM96.5402 99.73C96.5402 99.3567 96.4562 99.0767 96.2882 98.89C96.1202 98.694 95.8729 98.596 95.5462 98.596C95.1822 98.596 94.8789 98.7173 94.6362 98.96C94.3936 99.1933 94.2302 99.534 94.1462 99.982L96.5122 99.926L96.5402 99.73ZM103.452 99.94C103.461 99.6133 103.386 99.3613 103.228 99.184C103.078 98.9973 102.859 98.904 102.57 98.904C102.15 98.904 101.702 99.1047 101.226 99.506V101.13L101.31 104H99.4478L99.5458 101.312L99.4758 97.616L101.24 97.462V98.414H101.338C101.851 97.9473 102.411 97.6113 103.018 97.406C103.727 97.406 104.268 97.5693 104.642 97.896C105.015 98.2133 105.192 98.6753 105.174 99.282L105.132 101.144L105.216 104H103.34L103.452 99.94ZM109.49 102.628C109.789 102.628 110.101 102.549 110.428 102.39L110.582 102.53L110.4 103.636C109.924 103.879 109.439 104.028 108.944 104.084C107.684 103.953 107.054 103.337 107.054 102.236L107.124 101.074L107.11 98.666H106.242L106.172 98.568L106.27 97.546H107.096V96.468L108.79 95.922L108.916 96.034L108.874 97.546H110.54L110.596 97.644L110.512 98.666H108.846L108.762 101.802C108.762 102.101 108.818 102.315 108.93 102.446C109.042 102.567 109.229 102.628 109.49 102.628ZM114.195 97.364C115.147 97.364 115.875 97.644 116.379 98.204C116.883 98.764 117.135 99.5713 117.135 100.626C117.135 101.765 116.864 102.637 116.323 103.244C115.781 103.841 115.002 104.14 113.985 104.14C113.033 104.14 112.305 103.86 111.801 103.3C111.297 102.74 111.045 101.933 111.045 100.878C111.045 99.7393 111.315 98.8713 111.857 98.274C112.398 97.6673 113.177 97.364 114.195 97.364ZM114.069 98.624C113.621 98.624 113.294 98.7733 113.089 99.072C112.893 99.3707 112.795 99.8513 112.795 100.514C112.795 101.373 112.897 101.984 113.103 102.348C113.308 102.712 113.644 102.894 114.111 102.894C114.559 102.894 114.881 102.749 115.077 102.46C115.282 102.161 115.385 101.676 115.385 101.004C115.385 100.155 115.277 99.548 115.063 99.184C114.857 98.8107 114.526 98.624 114.069 98.624ZM120.595 97.378C121.229 97.378 121.827 97.4853 122.387 97.7L122.135 99.072L121.911 99.142C121.64 98.9647 121.369 98.8293 121.099 98.736C120.828 98.6427 120.59 98.596 120.385 98.596C120.161 98.596 119.983 98.6567 119.853 98.778C119.722 98.89 119.657 99.03 119.657 99.198C119.657 99.394 119.741 99.5527 119.909 99.674C120.086 99.7953 120.361 99.9307 120.735 100.08C121.108 100.229 121.416 100.374 121.659 100.514C121.901 100.654 122.107 100.85 122.275 101.102C122.452 101.345 122.541 101.648 122.541 102.012C122.541 102.385 122.443 102.735 122.247 103.062C122.06 103.379 121.771 103.641 121.379 103.846C120.987 104.042 120.506 104.14 119.937 104.14C119.265 104.14 118.569 104 117.851 103.72L118.061 102.264L118.243 102.152C118.532 102.395 118.854 102.591 119.209 102.74C119.563 102.88 119.876 102.95 120.147 102.95C120.399 102.95 120.595 102.889 120.735 102.768C120.875 102.637 120.945 102.483 120.945 102.306C120.945 102.11 120.856 101.951 120.679 101.83C120.511 101.709 120.24 101.573 119.867 101.424C119.484 101.256 119.171 101.107 118.929 100.976C118.686 100.836 118.476 100.64 118.299 100.388C118.131 100.136 118.047 99.8233 118.047 99.45C118.047 98.8433 118.275 98.3487 118.733 97.966C119.19 97.574 119.811 97.378 120.595 97.378ZM131.335 101.13L131.377 102.306C131.377 102.465 131.395 102.577 131.433 102.642C131.479 102.698 131.559 102.726 131.671 102.726C131.773 102.726 131.899 102.707 132.049 102.67L132.175 102.782L132.021 103.762C131.703 103.958 131.358 104.075 130.985 104.112C130.695 104.084 130.453 103.986 130.257 103.818C130.061 103.65 129.925 103.421 129.851 103.132H129.739C129.281 103.552 128.815 103.874 128.339 104.098C127.424 104.098 126.715 103.809 126.211 103.23C125.707 102.642 125.455 101.83 125.455 100.794C125.455 99.6927 125.744 98.848 126.323 98.26C126.901 97.672 127.704 97.378 128.731 97.378C129.001 97.378 129.3 97.406 129.627 97.462L129.599 94.312L131.447 94.172L131.335 101.13ZM128.605 98.638C127.671 98.638 127.205 99.2307 127.205 100.416C127.205 101.153 127.317 101.709 127.541 102.082C127.765 102.455 128.091 102.642 128.521 102.642C128.931 102.642 129.309 102.451 129.655 102.068L129.683 101.298L129.641 98.89C129.277 98.722 128.931 98.638 128.605 98.638ZM138.312 100.976L134.532 101.004C134.616 102.171 135.209 102.754 136.31 102.754C136.889 102.754 137.533 102.591 138.242 102.264L138.396 102.362L138.116 103.748C137.407 104.009 136.739 104.14 136.114 104.14C135.087 104.14 134.28 103.841 133.692 103.244C133.113 102.647 132.824 101.821 132.824 100.766C132.824 99.7207 133.109 98.8947 133.678 98.288C134.247 97.672 135.017 97.364 135.988 97.364C136.819 97.364 137.458 97.5927 137.906 98.05C138.363 98.498 138.592 99.128 138.592 99.94C138.592 100.155 138.569 100.425 138.522 100.752L138.312 100.976ZM136.968 99.73C136.968 99.3567 136.884 99.0767 136.716 98.89C136.548 98.694 136.301 98.596 135.974 98.596C135.61 98.596 135.307 98.7173 135.064 98.96C134.821 99.1933 134.658 99.534 134.574 99.982L136.94 99.926L136.968 99.73ZM36.9965 116.976L33.2165 117.004C33.3005 118.171 33.8932 118.754 34.9945 118.754C35.5732 118.754 36.2172 118.591 36.9265 118.264L37.0805 118.362L36.8005 119.748C36.0912 120.009 35.4239 120.14 34.7985 120.14C33.7719 120.14 32.9645 119.841 32.3765 119.244C31.7979 118.647 31.5085 117.821 31.5085 116.766C31.5085 115.721 31.7932 114.895 32.3625 114.288C32.9319 113.672 33.7019 113.364 34.6725 113.364C35.5032 113.364 36.1425 113.593 36.5905 114.05C37.0479 114.498 37.2765 115.128 37.2765 115.94C37.2765 116.155 37.2532 116.425 37.2065 116.752L36.9965 116.976ZM35.6525 115.73C35.6525 115.357 35.5685 115.077 35.4005 114.89C35.2325 114.694 34.9852 114.596 34.6585 114.596C34.2945 114.596 33.9912 114.717 33.7485 114.96C33.5059 115.193 33.3425 115.534 33.2585 115.982L35.6245 115.926L35.6525 115.73ZM40.7441 113.378C41.3787 113.378 41.9761 113.485 42.5361 113.7L42.2841 115.072L42.0601 115.142C41.7894 114.965 41.5187 114.829 41.2481 114.736C40.9774 114.643 40.7394 114.596 40.5341 114.596C40.3101 114.596 40.1327 114.657 40.0021 114.778C39.8714 114.89 39.8061 115.03 39.8061 115.198C39.8061 115.394 39.8901 115.553 40.0581 115.674C40.2354 115.795 40.5107 115.931 40.8841 116.08C41.2574 116.229 41.5654 116.374 41.8081 116.514C42.0507 116.654 42.2561 116.85 42.4241 117.102C42.6014 117.345 42.6901 117.648 42.6901 118.012C42.6901 118.385 42.5921 118.735 42.3961 119.062C42.2094 119.379 41.9201 119.641 41.5281 119.846C41.1361 120.042 40.6554 120.14 40.0861 120.14C39.4141 120.14 38.7187 120 38.0001 119.72L38.2101 118.264L38.3921 118.152C38.6814 118.395 39.0034 118.591 39.3581 118.74C39.7127 118.88 40.0254 118.95 40.2961 118.95C40.5481 118.95 40.7441 118.889 40.8841 118.768C41.0241 118.637 41.0941 118.483 41.0941 118.306C41.0941 118.11 41.0054 117.951 40.8281 117.83C40.6601 117.709 40.3894 117.573 40.0161 117.424C39.6334 117.256 39.3207 117.107 39.0781 116.976C38.8354 116.836 38.6254 116.64 38.4481 116.388C38.2801 116.136 38.1961 115.823 38.1961 115.45C38.1961 114.843 38.4247 114.349 38.8821 113.966C39.3394 113.574 39.9601 113.378 40.7441 113.378ZM46.5651 118.628C46.8638 118.628 47.1764 118.549 47.5031 118.39L47.6571 118.53L47.4751 119.636C46.9991 119.879 46.5138 120.028 46.0191 120.084C44.7591 119.953 44.1291 119.337 44.1291 118.236L44.1991 117.074L44.1851 114.666H43.3171L43.2471 114.568L43.3451 113.546H44.1711V112.468L45.8651 111.922L45.9911 112.034L45.9491 113.546H47.6151L47.6711 113.644L47.5871 114.666H45.9211L45.8371 117.802C45.8371 118.101 45.8931 118.315 46.0051 118.446C46.1171 118.567 46.3038 118.628 46.5651 118.628ZM52.2616 113.476C52.3456 113.476 52.4622 113.485 52.6116 113.504V115.226L52.4156 115.296C52.2569 115.231 52.0842 115.198 51.8976 115.198C51.3562 115.198 50.8662 115.548 50.4276 116.248V117.13L50.5256 120H48.6636L48.7756 117.312L48.6916 113.616L50.4556 113.462L50.4416 114.736H50.5536C51.0109 113.896 51.5802 113.476 52.2616 113.476ZM58.5708 116.976L54.7908 117.004C54.8748 118.171 55.4674 118.754 56.5688 118.754C57.1474 118.754 57.7914 118.591 58.5008 118.264L58.6548 118.362L58.3748 119.748C57.6654 120.009 56.9981 120.14 56.3728 120.14C55.3461 120.14 54.5388 119.841 53.9508 119.244C53.3721 118.647 53.0828 117.821 53.0828 116.766C53.0828 115.721 53.3674 114.895 53.9368 114.288C54.5061 113.672 55.2761 113.364 56.2468 113.364C57.0774 113.364 57.7168 113.593 58.1648 114.05C58.6221 114.498 58.8508 115.128 58.8508 115.94C58.8508 116.155 58.8274 116.425 58.7808 116.752L58.5708 116.976ZM57.2268 115.73C57.2268 115.357 57.1428 115.077 56.9748 114.89C56.8068 114.694 56.5594 114.596 56.2328 114.596C55.8688 114.596 55.5654 114.717 55.3228 114.96C55.0801 115.193 54.9168 115.534 54.8328 115.982L57.1988 115.926L57.2268 115.73ZM62.3183 113.378C62.9529 113.378 63.5503 113.485 64.1103 113.7L63.8583 115.072L63.6343 115.142C63.3636 114.965 63.0929 114.829 62.8223 114.736C62.5516 114.643 62.3136 114.596 62.1083 114.596C61.8843 114.596 61.7069 114.657 61.5763 114.778C61.4456 114.89 61.3803 115.03 61.3803 115.198C61.3803 115.394 61.4643 115.553 61.6323 115.674C61.8096 115.795 62.0849 115.931 62.4583 116.08C62.8316 116.229 63.1396 116.374 63.3823 116.514C63.6249 116.654 63.8303 116.85 63.9983 117.102C64.1756 117.345 64.2643 117.648 64.2643 118.012C64.2643 118.385 64.1663 118.735 63.9703 119.062C63.7836 119.379 63.4943 119.641 63.1023 119.846C62.7103 120.042 62.2296 120.14 61.6603 120.14C60.9883 120.14 60.2929 120 59.5743 119.72L59.7843 118.264L59.9663 118.152C60.2556 118.395 60.5776 118.591 60.9323 118.74C61.2869 118.88 61.5996 118.95 61.8703 118.95C62.1223 118.95 62.3183 118.889 62.4583 118.768C62.5983 118.637 62.6683 118.483 62.6683 118.306C62.6683 118.11 62.5796 117.951 62.4023 117.83C62.2343 117.709 61.9636 117.573 61.5903 117.424C61.2076 117.256 60.8949 117.107 60.6523 116.976C60.4096 116.836 60.1996 116.64 60.0223 116.388C59.8543 116.136 59.7703 115.823 59.7703 115.45C59.7703 114.843 59.9989 114.349 60.4563 113.966C60.9136 113.574 61.5343 113.378 62.3183 113.378ZM67.6913 113.378C68.326 113.378 68.9233 113.485 69.4833 113.7L69.2313 115.072L69.0073 115.142C68.7367 114.965 68.466 114.829 68.1953 114.736C67.9247 114.643 67.6867 114.596 67.4813 114.596C67.2573 114.596 67.08 114.657 66.9493 114.778C66.8187 114.89 66.7533 115.03 66.7533 115.198C66.7533 115.394 66.8373 115.553 67.0053 115.674C67.1827 115.795 67.458 115.931 67.8313 116.08C68.2047 116.229 68.5127 116.374 68.7553 116.514C68.998 116.654 69.2033 116.85 69.3713 117.102C69.5487 117.345 69.6373 117.648 69.6373 118.012C69.6373 118.385 69.5393 118.735 69.3433 119.062C69.1567 119.379 68.8673 119.641 68.4753 119.846C68.0833 120.042 67.6027 120.14 67.0333 120.14C66.3613 120.14 65.666 120 64.9473 119.72L65.1573 118.264L65.3393 118.152C65.6287 118.395 65.9507 118.591 66.3053 118.74C66.66 118.88 66.9727 118.95 67.2433 118.95C67.4953 118.95 67.6913 118.889 67.8313 118.768C67.9713 118.637 68.0413 118.483 68.0413 118.306C68.0413 118.11 67.9527 117.951 67.7753 117.83C67.6073 117.709 67.3367 117.573 66.9633 117.424C66.5807 117.256 66.268 117.107 66.0253 116.976C65.7827 116.836 65.5727 116.64 65.3953 116.388C65.2273 116.136 65.1433 115.823 65.1433 115.45C65.1433 114.843 65.372 114.349 65.8293 113.966C66.2867 113.574 66.9073 113.378 67.6913 113.378ZM75.9204 116.976L72.1404 117.004C72.2244 118.171 72.817 118.754 73.9184 118.754C74.497 118.754 75.141 118.591 75.8504 118.264L76.0044 118.362L75.7244 119.748C75.015 120.009 74.3477 120.14 73.7224 120.14C72.6957 120.14 71.8884 119.841 71.3004 119.244C70.7217 118.647 70.4324 117.821 70.4324 116.766C70.4324 115.721 70.717 114.895 71.2864 114.288C71.8557 113.672 72.6257 113.364 73.5964 113.364C74.427 113.364 75.0664 113.593 75.5144 114.05C75.9717 114.498 76.2004 115.128 76.2004 115.94C76.2004 116.155 76.177 116.425 76.1304 116.752L75.9204 116.976ZM74.5764 115.73C74.5764 115.357 74.4924 115.077 74.3244 114.89C74.1564 114.694 73.909 114.596 73.5824 114.596C73.2184 114.596 72.915 114.717 72.6724 114.96C72.4297 115.193 72.2664 115.534 72.1824 115.982L74.5484 115.926L74.5764 115.73ZM84.643 116.976L80.863 117.004C80.947 118.171 81.5397 118.754 82.641 118.754C83.2197 118.754 83.8637 118.591 84.573 118.264L84.727 118.362L84.447 119.748C83.7377 120.009 83.0704 120.14 82.445 120.14C81.4184 120.14 80.611 119.841 80.023 119.244C79.4444 118.647 79.155 117.821 79.155 116.766C79.155 115.721 79.4397 114.895 80.009 114.288C80.5784 113.672 81.3484 113.364 82.319 113.364C83.1497 113.364 83.789 113.593 84.237 114.05C84.6944 114.498 84.923 115.128 84.923 115.94C84.923 116.155 84.8997 116.425 84.853 116.752L84.643 116.976ZM83.299 115.73C83.299 115.357 83.215 115.077 83.047 114.89C82.879 114.694 82.6317 114.596 82.305 114.596C81.941 114.596 81.6377 114.717 81.395 114.96C81.1524 115.193 80.989 115.534 80.905 115.982L83.271 115.926L83.299 115.73ZM90.8877 113.364C91.6063 113.364 92.1663 113.527 92.5677 113.854C92.9783 114.171 93.1837 114.619 93.1837 115.198C93.1837 115.366 93.1557 115.898 93.0997 116.794C93.0903 117.055 93.0763 117.326 93.0577 117.606C93.039 117.877 93.0297 118.11 93.0297 118.306C93.0297 118.465 93.053 118.577 93.0997 118.642C93.1463 118.698 93.2303 118.726 93.3517 118.726C93.445 118.726 93.5663 118.707 93.7157 118.67L93.8557 118.782L93.6877 119.762C93.389 119.958 93.0483 120.075 92.6657 120.112C92.3857 120.084 92.1523 119.986 91.9657 119.818C91.779 119.641 91.653 119.398 91.5877 119.09H91.4897C91.023 119.585 90.5423 119.93 90.0477 120.126C89.3757 120.117 88.8483 119.939 88.4657 119.594C88.083 119.249 87.8917 118.777 87.8917 118.18C87.8917 117.713 88.0083 117.349 88.2417 117.088C88.4843 116.817 88.8483 116.635 89.3337 116.542L91.4757 116.136V115.562C91.4757 114.955 91.177 114.652 90.5797 114.652C90.2903 114.652 89.9823 114.717 89.6557 114.848C89.3383 114.979 88.979 115.184 88.5777 115.464L88.4377 115.38L88.2277 114.148C88.629 113.896 89.0583 113.705 89.5157 113.574C89.973 113.434 90.4303 113.364 90.8877 113.364ZM89.9777 117.396C89.8283 117.433 89.7163 117.499 89.6417 117.592C89.5763 117.676 89.5437 117.807 89.5437 117.984C89.5437 118.227 89.609 118.418 89.7397 118.558C89.8703 118.689 90.0523 118.754 90.2857 118.754C90.6497 118.754 91.0323 118.539 91.4337 118.11L91.4617 117.074L89.9777 117.396ZM97.2919 113.49L97.1799 117.13L97.2639 119.622C97.2639 120.359 97.0866 120.971 96.7319 121.456C96.3772 121.941 95.7939 122.366 94.9819 122.73L94.3379 121.904V121.736C94.7579 121.503 95.0566 121.227 95.2339 120.91C95.4112 120.593 95.4999 120.182 95.4999 119.678L95.5279 117.312L95.4719 114.666H94.3379L94.2259 114.554L94.3239 113.546H95.4999L97.2359 113.448L97.2919 113.49ZM96.2139 110.298C96.5032 110.298 96.7272 110.382 96.8859 110.55C97.0539 110.718 97.1379 110.951 97.1379 111.25C97.1379 111.567 97.0492 111.819 96.8719 112.006C96.6946 112.193 96.4519 112.286 96.1439 112.286C95.8359 112.286 95.5979 112.202 95.4299 112.034C95.2712 111.866 95.1919 111.628 95.1919 111.32C95.1919 111.012 95.2806 110.765 95.4579 110.578C95.6446 110.391 95.8966 110.298 96.2139 110.298ZM105.274 118.782L105.106 119.762C104.761 119.986 104.406 120.103 104.042 120.112C103.771 120.065 103.547 119.958 103.37 119.79C103.193 119.622 103.057 119.379 102.964 119.062H102.838C102.306 119.585 101.755 119.925 101.186 120.084C100.477 120.084 99.9354 119.925 99.5621 119.608C99.1981 119.281 99.0208 118.815 99.0301 118.208L99.0581 116.556L98.9881 113.616L100.794 113.462L100.752 117.592C100.743 117.919 100.808 118.166 100.948 118.334C101.088 118.502 101.298 118.586 101.578 118.586C101.989 118.586 102.395 118.404 102.796 118.04V113.616L104.574 113.462L104.448 118.306C104.448 118.455 104.471 118.563 104.518 118.628C104.574 118.693 104.658 118.726 104.77 118.726C104.873 118.726 104.999 118.707 105.148 118.67L105.274 118.782ZM111.805 117.13L111.847 118.306C111.847 118.465 111.865 118.577 111.903 118.642C111.949 118.698 112.029 118.726 112.141 118.726C112.243 118.726 112.369 118.707 112.519 118.67L112.645 118.782L112.491 119.762C112.173 119.958 111.828 120.075 111.455 120.112C111.165 120.084 110.923 119.986 110.727 119.818C110.531 119.65 110.395 119.421 110.321 119.132H110.209C109.751 119.552 109.285 119.874 108.809 120.098C107.894 120.098 107.185 119.809 106.681 119.23C106.177 118.642 105.925 117.83 105.925 116.794C105.925 115.693 106.214 114.848 106.793 114.26C107.371 113.672 108.174 113.378 109.201 113.378C109.471 113.378 109.77 113.406 110.097 113.462L110.069 110.312L111.917 110.172L111.805 117.13ZM109.075 114.638C108.141 114.638 107.675 115.231 107.675 116.416C107.675 117.153 107.787 117.709 108.011 118.082C108.235 118.455 108.561 118.642 108.991 118.642C109.401 118.642 109.779 118.451 110.125 118.068L110.153 117.298L110.111 114.89C109.747 114.722 109.401 114.638 109.075 114.638ZM116.304 113.364C117.022 113.364 117.582 113.527 117.984 113.854C118.394 114.171 118.6 114.619 118.6 115.198C118.6 115.366 118.572 115.898 118.516 116.794C118.506 117.055 118.492 117.326 118.474 117.606C118.455 117.877 118.446 118.11 118.446 118.306C118.446 118.465 118.469 118.577 118.516 118.642C118.562 118.698 118.646 118.726 118.768 118.726C118.861 118.726 118.982 118.707 119.132 118.67L119.272 118.782L119.104 119.762C118.805 119.958 118.464 120.075 118.082 120.112C117.802 120.084 117.568 119.986 117.382 119.818C117.195 119.641 117.069 119.398 117.004 119.09H116.906C116.439 119.585 115.958 119.93 115.464 120.126C114.792 120.117 114.264 119.939 113.882 119.594C113.499 119.249 113.308 118.777 113.308 118.18C113.308 117.713 113.424 117.349 113.658 117.088C113.9 116.817 114.264 116.635 114.75 116.542L116.892 116.136V115.562C116.892 114.955 116.593 114.652 115.996 114.652C115.706 114.652 115.398 114.717 115.072 114.848C114.754 114.979 114.395 115.184 113.994 115.464L113.854 115.38L113.644 114.148C114.045 113.896 114.474 113.705 114.932 113.574C115.389 113.434 115.846 113.364 116.304 113.364ZM115.394 117.396C115.244 117.433 115.132 117.499 115.058 117.592C114.992 117.676 114.96 117.807 114.96 117.984C114.96 118.227 115.025 118.418 115.156 118.558C115.286 118.689 115.468 118.754 115.702 118.754C116.066 118.754 116.448 118.539 116.85 118.11L116.878 117.074L115.394 117.396ZM126.605 115.94C126.614 115.613 126.54 115.361 126.381 115.184C126.232 114.997 126.012 114.904 125.723 114.904C125.303 114.904 124.855 115.105 124.379 115.506V117.13L124.463 120H122.601L122.699 117.312L122.629 113.616L124.393 113.462V114.414H124.491C125.004 113.947 125.564 113.611 126.171 113.406C126.88 113.406 127.422 113.569 127.795 113.896C128.168 114.213 128.346 114.675 128.327 115.282L128.285 117.144L128.369 120H126.493L126.605 115.94ZM132.573 113.364C133.292 113.364 133.852 113.527 134.253 113.854C134.664 114.171 134.869 114.619 134.869 115.198C134.869 115.366 134.841 115.898 134.785 116.794C134.776 117.055 134.762 117.326 134.743 117.606C134.725 117.877 134.715 118.11 134.715 118.306C134.715 118.465 134.739 118.577 134.785 118.642C134.832 118.698 134.916 118.726 135.037 118.726C135.131 118.726 135.252 118.707 135.401 118.67L135.541 118.782L135.373 119.762C135.075 119.958 134.734 120.075 134.351 120.112C134.071 120.084 133.838 119.986 133.651 119.818C133.465 119.641 133.339 119.398 133.273 119.09H133.175C132.709 119.585 132.228 119.93 131.733 120.126C131.061 120.117 130.534 119.939 130.151 119.594C129.769 119.249 129.577 118.777 129.577 118.18C129.577 117.713 129.694 117.349 129.927 117.088C130.17 116.817 130.534 116.635 131.019 116.542L133.161 116.136V115.562C133.161 114.955 132.863 114.652 132.265 114.652C131.976 114.652 131.668 114.717 131.341 114.848C131.024 114.979 130.665 115.184 130.263 115.464L130.123 115.38L129.913 114.148C130.315 113.896 130.744 113.705 131.201 113.574C131.659 113.434 132.116 113.364 132.573 113.364ZM131.663 117.396C131.514 117.433 131.402 117.499 131.327 117.592C131.262 117.676 131.229 117.807 131.229 117.984C131.229 118.227 131.295 118.418 131.425 118.558C131.556 118.689 131.738 118.754 131.971 118.754C132.335 118.754 132.718 118.539 133.119 118.11L133.147 117.074L131.663 117.396ZM52.1169 129.364C52.4249 129.364 52.7282 129.397 53.0269 129.462C53.3349 129.518 53.6055 129.602 53.8389 129.714L53.5309 131.198L53.3769 131.268C52.9009 131.007 52.4762 130.876 52.1029 130.876C51.6735 130.876 51.3422 131.03 51.1089 131.338C50.8755 131.646 50.7589 132.085 50.7589 132.654C50.7589 133.307 50.8849 133.807 51.1369 134.152C51.3889 134.497 51.7482 134.67 52.2149 134.67C52.6349 134.67 53.1015 134.553 53.6149 134.32L53.7549 134.432L53.5729 135.874C53.0129 136.051 52.4389 136.14 51.8509 136.14C50.9549 136.14 50.2549 135.851 49.7509 135.272C49.2469 134.684 48.9949 133.867 48.9949 132.822C48.9949 131.739 49.2702 130.895 49.8209 130.288C50.3715 129.672 51.1369 129.364 52.1169 129.364ZM58.3592 129.476C58.4432 129.476 58.5599 129.485 58.7092 129.504V131.226L58.5132 131.296C58.3546 131.231 58.1819 131.198 57.9952 131.198C57.4539 131.198 56.9639 131.548 56.5252 132.248V133.13L56.6232 136H54.7612L54.8732 133.312L54.7892 129.616L56.5532 129.462L56.5392 130.736H56.6512C57.1086 129.896 57.6779 129.476 58.3592 129.476ZM59.7544 133.312L59.6844 129.616L61.5184 129.462L61.4344 133.13L61.5184 136H59.6564L59.7544 133.312ZM60.6364 126.298C60.9257 126.298 61.1497 126.382 61.3084 126.55C61.4764 126.718 61.5604 126.951 61.5604 127.25C61.5604 127.567 61.4717 127.819 61.2944 128.006C61.1171 128.193 60.8744 128.286 60.5664 128.286C60.2584 128.286 60.0204 128.202 59.8524 128.034C59.6937 127.866 59.6144 127.628 59.6144 127.32C59.6144 127.012 59.7031 126.765 59.8804 126.578C60.0671 126.391 60.3191 126.298 60.6364 126.298ZM65.8408 129.364C66.5595 129.364 67.1195 129.527 67.5208 129.854C67.9315 130.171 68.1368 130.619 68.1368 131.198C68.1368 131.366 68.1088 131.898 68.0528 132.794C68.0435 133.055 68.0295 133.326 68.0108 133.606C67.9921 133.877 67.9828 134.11 67.9828 134.306C67.9828 134.465 68.0061 134.577 68.0528 134.642C68.0995 134.698 68.1835 134.726 68.3048 134.726C68.3981 134.726 68.5195 134.707 68.6688 134.67L68.8088 134.782L68.6408 135.762C68.3421 135.958 68.0015 136.075 67.6188 136.112C67.3388 136.084 67.1055 135.986 66.9188 135.818C66.7321 135.641 66.6061 135.398 66.5408 135.09H66.4428C65.9761 135.585 65.4955 135.93 65.0008 136.126C64.3288 136.117 63.8015 135.939 63.4188 135.594C63.0361 135.249 62.8448 134.777 62.8448 134.18C62.8448 133.713 62.9615 133.349 63.1948 133.088C63.4375 132.817 63.8015 132.635 64.2868 132.542L66.4288 132.136V131.562C66.4288 130.955 66.1301 130.652 65.5328 130.652C65.2435 130.652 64.9355 130.717 64.6088 130.848C64.2915 130.979 63.9321 131.184 63.5308 131.464L63.3908 131.38L63.1808 130.148C63.5821 129.896 64.0115 129.705 64.4688 129.574C64.9261 129.434 65.3835 129.364 65.8408 129.364ZM64.9308 133.396C64.7815 133.433 64.6695 133.499 64.5948 133.592C64.5295 133.676 64.4968 133.807 64.4968 133.984C64.4968 134.227 64.5621 134.418 64.6928 134.558C64.8235 134.689 65.0055 134.754 65.2388 134.754C65.6028 134.754 65.9855 134.539 66.3868 134.11L66.4148 133.074L64.9308 133.396ZM72.651 134.628C72.9497 134.628 73.2624 134.549 73.589 134.39L73.743 134.53L73.561 135.636C73.085 135.879 72.5997 136.028 72.105 136.084C70.845 135.953 70.215 135.337 70.215 134.236L70.285 133.074L70.271 130.666H69.403L69.333 130.568L69.431 129.546H70.257V128.468L71.951 127.922L72.077 128.034L72.035 129.546H73.701L73.757 129.644L73.673 130.666H72.007L71.923 133.802C71.923 134.101 71.979 134.315 72.091 134.446C72.203 134.567 72.3897 134.628 72.651 134.628ZM74.8755 133.312L74.8055 129.616L76.6395 129.462L76.5555 133.13L76.6395 136H74.7775L74.8755 133.312ZM75.7575 126.298C76.0468 126.298 76.2708 126.382 76.4295 126.55C76.5975 126.718 76.6815 126.951 76.6815 127.25C76.6815 127.567 76.5928 127.819 76.4155 128.006C76.2382 128.193 75.9955 128.286 75.6875 128.286C75.3795 128.286 75.1415 128.202 74.9735 128.034C74.8148 127.866 74.7355 127.628 74.7355 127.32C74.7355 127.012 74.8242 126.765 75.0015 126.578C75.1882 126.391 75.4402 126.298 75.7575 126.298ZM79.6179 130.526L80.5979 134.25H80.6959L81.8719 130.624L82.1099 129.49H83.7339L81.5499 136H79.5479L77.6999 129.532L79.4359 129.448L79.6179 130.526ZM84.7603 133.312L84.6903 129.616L86.5243 129.462L86.4403 133.13L86.5243 136H84.6623L84.7603 133.312ZM85.6423 126.298C85.9316 126.298 86.1556 126.382 86.3143 126.55C86.4823 126.718 86.5663 126.951 86.5663 127.25C86.5663 127.567 86.4776 127.819 86.3003 128.006C86.1229 128.193 85.8803 128.286 85.5723 128.286C85.2643 128.286 85.0263 128.202 84.8583 128.034C84.6996 127.866 84.6203 127.628 84.6203 127.32C84.6203 127.012 84.7089 126.765 84.8863 126.578C85.0729 126.391 85.3249 126.298 85.6423 126.298ZM93.7167 133.13L93.7587 134.306C93.7587 134.465 93.7773 134.577 93.8147 134.642C93.8613 134.698 93.9407 134.726 94.0527 134.726C94.1553 134.726 94.2813 134.707 94.4307 134.67L94.5567 134.782L94.4027 135.762C94.0853 135.958 93.74 136.075 93.3667 136.112C93.0773 136.084 92.8347 135.986 92.6387 135.818C92.4427 135.65 92.3073 135.421 92.2327 135.132H92.1207C91.6633 135.552 91.1967 135.874 90.7207 136.098C89.806 136.098 89.0967 135.809 88.5927 135.23C88.0887 134.642 87.8367 133.83 87.8367 132.794C87.8367 131.693 88.126 130.848 88.7047 130.26C89.2833 129.672 90.086 129.378 91.1127 129.378C91.3833 129.378 91.682 129.406 92.0087 129.462L91.9807 126.312L93.8287 126.172L93.7167 133.13ZM90.9867 130.638C90.0533 130.638 89.5867 131.231 89.5867 132.416C89.5867 133.153 89.6987 133.709 89.9227 134.082C90.1467 134.455 90.4733 134.642 90.9027 134.642C91.3133 134.642 91.6913 134.451 92.0367 134.068L92.0647 133.298L92.0227 130.89C91.6587 130.722 91.3133 130.638 90.9867 130.638ZM98.2158 129.364C98.9345 129.364 99.4945 129.527 99.8958 129.854C100.306 130.171 100.512 130.619 100.512 131.198C100.512 131.366 100.484 131.898 100.428 132.794C100.418 133.055 100.404 133.326 100.386 133.606C100.367 133.877 100.358 134.11 100.358 134.306C100.358 134.465 100.381 134.577 100.428 134.642C100.474 134.698 100.558 134.726 100.68 134.726C100.773 134.726 100.894 134.707 101.044 134.67L101.184 134.782L101.016 135.762C100.717 135.958 100.376 136.075 99.9938 136.112C99.7138 136.084 99.4805 135.986 99.2938 135.818C99.1071 135.641 98.9811 135.398 98.9158 135.09H98.8178C98.3511 135.585 97.8705 135.93 97.3758 136.126C96.7038 136.117 96.1765 135.939 95.7938 135.594C95.4111 135.249 95.2198 134.777 95.2198 134.18C95.2198 133.713 95.3365 133.349 95.5698 133.088C95.8125 132.817 96.1765 132.635 96.6618 132.542L98.8038 132.136V131.562C98.8038 130.955 98.5051 130.652 97.9078 130.652C97.6185 130.652 97.3105 130.717 96.9838 130.848C96.6665 130.979 96.3071 131.184 95.9058 131.464L95.7658 131.38L95.5558 130.148C95.9571 129.896 96.3865 129.705 96.8438 129.574C97.3011 129.434 97.7585 129.364 98.2158 129.364ZM97.3058 133.396C97.1565 133.433 97.0445 133.499 96.9698 133.592C96.9045 133.676 96.8718 133.807 96.8718 133.984C96.8718 134.227 96.9371 134.418 97.0678 134.558C97.1985 134.689 97.3805 134.754 97.6138 134.754C97.9778 134.754 98.3605 134.539 98.7618 134.11L98.7898 133.074L97.3058 133.396ZM107.826 133.13L107.868 134.306C107.868 134.465 107.887 134.577 107.924 134.642C107.971 134.698 108.05 134.726 108.162 134.726C108.265 134.726 108.391 134.707 108.54 134.67L108.666 134.782L108.512 135.762C108.195 135.958 107.849 136.075 107.476 136.112C107.187 136.084 106.944 135.986 106.748 135.818C106.552 135.65 106.417 135.421 106.342 135.132H106.23C105.773 135.552 105.306 135.874 104.83 136.098C103.915 136.098 103.206 135.809 102.702 135.23C102.198 134.642 101.946 133.83 101.946 132.794C101.946 131.693 102.235 130.848 102.814 130.26C103.393 129.672 104.195 129.378 105.222 129.378C105.493 129.378 105.791 129.406 106.118 129.462L106.09 126.312L107.938 126.172L107.826 133.13ZM105.096 130.638C104.163 130.638 103.696 131.231 103.696 132.416C103.696 133.153 103.808 133.709 104.032 134.082C104.256 134.455 104.583 134.642 105.012 134.642C105.423 134.642 105.801 134.451 106.146 134.068L106.174 133.298L106.132 130.89C105.768 130.722 105.423 130.638 105.096 130.638ZM114.803 132.976L111.023 133.004C111.107 134.171 111.7 134.754 112.801 134.754C113.38 134.754 114.024 134.591 114.733 134.264L114.887 134.362L114.607 135.748C113.898 136.009 113.231 136.14 112.605 136.14C111.579 136.14 110.771 135.841 110.183 135.244C109.605 134.647 109.315 133.821 109.315 132.766C109.315 131.721 109.6 130.895 110.169 130.288C110.739 129.672 111.509 129.364 112.479 129.364C113.31 129.364 113.949 129.593 114.397 130.05C114.855 130.498 115.083 131.128 115.083 131.94C115.083 132.155 115.06 132.425 115.013 132.752L114.803 132.976ZM113.459 131.73C113.459 131.357 113.375 131.077 113.207 130.89C113.039 130.694 112.792 130.596 112.465 130.596C112.101 130.596 111.798 130.717 111.555 130.96C111.313 131.193 111.149 131.534 111.065 131.982L113.431 131.926L113.459 131.73ZM116.85 134.11C117.139 134.11 117.363 134.194 117.522 134.362C117.69 134.53 117.774 134.763 117.774 135.062C117.774 135.379 117.685 135.631 117.508 135.818C117.331 136.005 117.088 136.098 116.78 136.098C116.472 136.098 116.234 136.014 116.066 135.846C115.907 135.678 115.828 135.44 115.828 135.132C115.828 134.824 115.917 134.577 116.094 134.39C116.281 134.203 116.533 134.11 116.85 134.11Z" fill="white"/>
<defs>
<filter id="filter0_b_136:22502" x="3" y="67" width="161" height="97" filterUnits="userSpaceOnUse" color-interpolation-filters="sRGB">
<feFlood flood-opacity="0" result="BackgroundImageFix"/>
<feGaussianBlur in="BackgroundImage" stdDeviation="5"/>
<feComposite in2="SourceAlpha" operator="in" result="effect1_backgroundBlur_136:22502"/>
<feBlend mode="normal" in="SourceGraphic" in2="effect1_backgroundBlur_136:22502" result="shape"/>
</filter>
<clipPath id="clip0_136:22502">
<rect width="89.18" height="155.05" fill="white" transform="translate(39 7)"/>
</clipPath>
</defs>
</svg>
