<svg width="167" height="167" viewBox="0 0 167 167" fill="none" xmlns="http://www.w3.org/2000/svg">
<mask id="mask0_206:36916" style="mask-type:alpha" maskUnits="userSpaceOnUse" x="0" y="0" width="167" height="167">
<rect x="1" y="1" width="165" height="165" rx="8" fill="#5988D6" stroke="#EDE6FC" stroke-opacity="0.3"/>
</mask>
<g mask="url(#mask0_206:36916)">
<rect x="1" y="1" width="165" height="165" rx="8" fill="#CEE2F2" stroke="#EDE6FC" stroke-opacity="0.3"/>
<path d="M69.2359 44.5762L64.4658 36.426C67.2829 31.7123 68.2351 26.1153 67.1352 20.7353C66.0352 15.3552 62.9627 10.5811 58.5216 7.35133C54.0805 4.12156 48.5919 2.6697 43.1347 3.28112C37.6775 3.89254 32.6463 6.52303 29.0301 10.6555C25.4138 14.7881 23.474 20.1237 23.592 25.6138C23.7099 31.1039 25.8771 36.3514 29.6675 40.3248C33.4579 44.2982 38.5974 46.7101 44.0758 47.0866C49.5543 47.4631 54.9754 45.7769 59.2737 42.3593L69.2359 44.5762Z" fill="#FAFAFA"/>
<path d="M69.2354 44.576L59.2561 42.4106C59.2448 42.4081 59.2349 42.4014 59.2285 42.3918C59.2221 42.3822 59.2197 42.3705 59.2217 42.3591L59.2835 42.4209C57.9041 43.5195 56.3997 44.4514 54.8017 45.1971C51.8383 46.5758 48.6019 47.2679 45.3338 47.2218C44.0999 47.2142 42.869 47.0994 41.655 46.8786C37.3588 46.0987 33.3903 44.0624 30.2513 41.0272C27.1122 37.992 24.9436 34.0942 24.0196 29.8267C23.3411 26.6035 23.3786 23.2706 24.1295 20.0635C24.9332 16.7086 26.5129 13.5891 28.7416 10.9559C29.3148 10.2793 29.9254 9.63546 30.5707 9.02729C31.2165 8.4318 31.896 7.87381 32.6057 7.35607C34.0014 6.32886 35.5167 5.47498 37.1183 4.8132C38.6832 4.15994 40.3184 3.6901 41.9913 3.41308C43.6232 3.149 45.2792 3.065 46.9295 3.16256C50.0996 3.34679 53.1914 4.22045 55.9891 5.72259C59.5661 7.62717 62.5464 10.4843 64.6002 13.9777C66.654 17.4712 67.7012 21.4647 67.6259 25.5165C67.5942 27.6122 67.2614 29.6925 66.6376 31.6935C66.1132 33.3554 65.3969 34.9504 64.5031 36.4463V36.4052L69.2354 44.576L64.431 36.4463C64.4277 36.44 64.426 36.4329 64.426 36.4258C64.426 36.4186 64.4277 36.4115 64.431 36.4052C65.3163 34.9121 66.0235 33.3204 66.5381 31.6626C67.1542 29.6698 67.4801 27.5987 67.5058 25.513C67.5333 23.1181 67.1741 20.7345 66.442 18.4541C64.6824 13.0644 60.911 8.56161 55.9136 5.88388C53.1349 4.3967 50.0656 3.53248 46.9192 3.35131C45.2815 3.25557 43.6382 3.33957 42.0188 3.60182C40.361 3.87309 38.7398 4.33366 37.187 4.97449C35.6041 5.63465 34.1063 6.48263 32.7258 7.5002C32.0221 8.0135 31.3494 8.56812 30.7114 9.16113C30.0691 9.76187 29.4629 10.4001 28.896 11.0726C26.688 13.6764 25.1213 16.7617 24.3216 20.0807C23.5705 23.2655 23.5306 26.5767 24.2049 29.7786C25.1168 34.0189 27.2667 37.8931 30.3824 40.9104C33.498 43.9276 37.4392 45.9522 41.7065 46.7276C44.0543 47.1429 46.453 47.1834 48.8135 46.8477C50.8768 46.5464 52.8864 45.9513 54.7811 45.0804C56.3709 44.3437 57.8682 43.4222 59.2423 42.3351C59.2506 42.3271 59.2617 42.3227 59.2732 42.3227C59.2847 42.3227 59.2958 42.3271 59.3041 42.3351C59.3106 42.3421 59.3142 42.3513 59.3142 42.3608C59.3142 42.3704 59.3106 42.3796 59.3041 42.3866L59.2801 42.3179L69.2354 44.576Z" fill="#263238"/>
<path d="M53.2273 14.8837L38.324 14.7614C37.3992 14.7538 36.6433 15.4974 36.6357 16.4223L36.4933 33.7757C36.4857 34.7005 37.2293 35.4564 38.1542 35.464L53.0574 35.5863C53.9823 35.5939 54.7382 34.8503 54.7458 33.9254L54.8881 16.572C54.8957 15.6472 54.1521 14.8913 53.2273 14.8837Z" fill="#FF725E"/>
<path d="M39.5885 21.4358L39.5788 22.6197C39.5655 24.242 40.8698 25.5679 42.4921 25.5812L49.3312 25.6373C50.9535 25.6506 52.2794 24.3463 52.2927 22.724L52.3024 21.5401C52.3157 19.9178 51.0114 18.5919 49.3891 18.5786L42.55 18.5225C40.9277 18.5092 39.6018 19.8135 39.5885 21.4358Z" fill="white"/>
<path d="M49.3319 25.6366C49.7816 25.6091 50.2214 25.4924 50.6256 25.2934C51.0938 25.0603 51.49 24.7045 51.7718 24.2639C51.9507 23.9918 52.0786 23.6895 52.1493 23.3717C52.2214 23.0127 52.2491 22.6461 52.2317 22.2804C52.2463 21.8762 52.2337 21.4715 52.1939 21.069C52.1284 20.6412 51.9639 20.2346 51.7135 19.8816C51.4386 19.4912 51.0713 19.1749 50.6443 18.9611C50.2173 18.7473 49.744 18.6427 49.2667 18.6565L42.5543 18.6085C41.9895 18.6071 41.4369 18.7728 40.9661 19.0849C40.4952 19.3969 40.1273 19.8413 39.9085 20.3621C39.8064 20.6129 39.7372 20.8759 39.7026 21.1445C39.682 21.4053 39.682 21.6798 39.682 21.9509C39.6355 22.4688 39.6761 22.9908 39.8021 23.4952C39.9448 23.9501 40.1987 24.3622 40.5409 24.6941C40.8831 25.0261 41.3026 25.2675 41.7616 25.3963C42.1866 25.4946 42.6231 25.5339 43.0588 25.513L44.2839 25.5302L47.9798 25.5885L48.9853 25.616H49.2461H49.3353H49.2461H48.9853H47.9798H43.0554C42.6062 25.64 42.1558 25.6019 41.717 25.5027C41.2299 25.3707 40.7838 25.1182 40.4198 24.7686C40.0558 24.419 39.7856 23.9834 39.634 23.5021C39.4993 22.9816 39.4529 22.4422 39.4967 21.9063C39.4967 21.6352 39.4967 21.3641 39.5173 21.0793C39.5516 20.794 39.6243 20.5146 39.7335 20.2488C39.9631 19.7016 40.3471 19.233 40.8385 18.9002C41.0905 18.7342 41.3642 18.6037 41.6518 18.5124C41.9453 18.4278 42.2489 18.3839 42.5543 18.382L49.2667 18.4438C49.7704 18.4317 50.2692 18.5448 50.7184 18.773C51.1676 19.0012 51.5532 19.3373 51.8404 19.7512C52.1016 20.1256 52.272 20.5556 52.338 21.0072C52.3758 21.4179 52.385 21.8307 52.3655 22.2426C52.3784 22.6182 52.345 22.994 52.266 23.3614C52.1891 23.6914 52.0518 24.0044 51.861 24.2845C51.5621 24.7321 51.1452 25.0884 50.6565 25.314C50.35 25.4594 50.0199 25.5489 49.6819 25.5782C49.5951 25.5845 49.5079 25.5845 49.4211 25.5782C49.3957 25.6036 49.3653 25.6235 49.3319 25.6366Z" fill="#263238"/>
<g opacity="0.4">
<path opacity="0.4" d="M42.6538 14.7994C42.9215 16.2853 44.3937 17.6957 45.9002 17.6202C46.6421 17.587 47.3476 17.2896 47.8895 16.7817C48.4313 16.2739 48.7737 15.589 48.8548 14.8508" fill="black"/>
</g>
<path d="M46.8854 17.356C46.5633 17.5357 46.2006 17.63 45.8318 17.63C45.463 17.63 45.1004 17.5357 44.7783 17.356L44.8298 11.3608C44.8361 11.0844 44.9508 10.8215 45.1492 10.6289C45.3476 10.4363 45.6137 10.3295 45.8902 10.3313C46.1672 10.3376 46.4306 10.4528 46.6233 10.6519C46.816 10.851 46.9225 11.1181 46.9197 11.3951L46.8854 17.356Z" fill="#455A64"/>
<path d="M46.1941 11.299L45.5798 11.2939L45.5591 13.823L46.1733 13.828L46.1941 11.299Z" fill="white"/>
<path d="M45.4881 30.5816C45.4641 30.5816 45.4881 30.3345 45.3715 29.9159C45.2135 29.3259 44.8633 28.8054 44.3763 28.4368C44.0208 28.1644 43.6026 27.9859 43.16 27.9175C42.7174 27.8491 42.2648 27.8932 41.8437 28.0456C41.3447 28.2203 40.9104 28.5422 40.598 28.9687C40.2592 29.4222 40.0741 29.9721 40.0698 30.5382C40.0655 31.1043 40.2421 31.6569 40.574 32.1156C40.8794 32.5464 41.3075 32.8753 41.8025 33.0593C42.2209 33.2181 42.6723 33.2698 43.1158 33.2099C43.5593 33.15 43.9807 32.9802 44.342 32.7161C44.8393 32.3565 45.2017 31.8406 45.3715 31.2508C45.4847 30.8356 45.4744 30.5885 45.4984 30.5885C45.5081 30.6476 45.5081 30.7078 45.4984 30.7669C45.4976 30.9371 45.4757 31.1066 45.4332 31.2714C45.2873 31.8908 44.9306 32.4403 44.4243 32.8259C44.1242 33.0529 43.7818 33.2178 43.4171 33.3109C43.0525 33.404 42.673 33.4235 42.3008 33.3682C41.9285 33.313 41.571 33.184 41.2492 32.989C40.9274 32.7939 40.6477 32.5367 40.4264 32.2322C40.0693 31.7417 39.8792 31.1495 39.8841 30.5428C39.8891 29.936 40.0888 29.347 40.4539 28.8623C40.6788 28.5597 40.9623 28.3054 41.2875 28.1145C41.6127 27.9235 41.9729 27.7999 42.3468 27.7509C42.7207 27.702 43.1006 27.7286 43.464 27.8294C43.8273 27.9301 44.1668 28.1028 44.4621 28.3373C44.9621 28.7302 45.3102 29.2845 45.447 29.9056C45.4841 30.0723 45.5025 30.2426 45.5019 30.4135C45.5054 30.4699 45.5008 30.5265 45.4881 30.5816Z" fill="#263238"/>
<path d="M41.2811 30.5473C41.3017 30.5473 41.5351 30.6708 41.8954 30.8493C42.2557 31.0277 42.7499 31.316 43.3436 31.6557L43.2063 31.7312C43.2063 31.3675 43.2063 30.9728 43.2063 30.5644C43.2063 30.1561 43.2063 29.7614 43.2063 29.3942L43.3401 29.4732C42.7396 29.8163 42.2283 30.0874 41.8783 30.2556C41.5282 30.4237 41.2811 30.5473 41.2606 30.5473C41.24 30.5473 41.4287 30.4272 41.789 30.2041C42.1494 29.9811 42.6641 29.6722 43.2509 29.329L43.3848 29.2535V29.408C43.3848 29.7752 43.3848 30.1698 43.3848 30.5782C43.3848 30.9865 43.3848 31.3812 43.3848 31.7484V31.9028L43.2509 31.8239C42.6675 31.4807 42.1699 31.1718 41.8028 30.9248C41.4356 30.6777 41.2537 30.5473 41.2811 30.5473Z" fill="#263238"/>
<path d="M46.01 30.585C46.0306 30.585 46.01 30.8321 46.1267 31.2508C46.284 31.842 46.6342 32.3638 47.1219 32.7333C47.4783 33.0037 47.8965 33.181 48.3387 33.2493C48.7808 33.3176 49.233 33.2747 49.6545 33.1245C50.1687 32.9383 50.614 32.5997 50.931 32.154C51.2479 31.7083 51.4215 31.1766 51.4286 30.6297C51.4294 30.0637 51.253 29.5117 50.9242 29.0511C50.617 28.6227 50.1894 28.2954 49.6956 28.1108C49.2775 27.9508 48.8258 27.8983 48.3821 27.9583C47.9384 28.0183 47.5169 28.1887 47.1562 28.454C46.6589 28.8136 46.2964 29.3295 46.1267 29.9193C46.01 30.338 46.0203 30.585 45.9997 30.5816C45.9907 30.5236 45.9907 30.4646 45.9997 30.4066C46.0037 30.2366 46.0255 30.0675 46.0649 29.9021C46.2162 29.2797 46.5804 28.7298 47.0944 28.3476C47.4433 28.0801 47.8499 27.8979 48.2818 27.8157C48.8434 27.7111 49.4236 27.7787 49.9462 28.0095C50.4688 28.2404 50.9094 28.6238 51.2103 29.1095C51.5112 29.5951 51.6583 30.1604 51.6324 30.7311C51.6064 31.3018 51.4086 31.8514 51.0649 32.3077C50.7443 32.7371 50.3082 33.0664 49.8075 33.2572C49.3068 33.448 48.7622 33.4924 48.2372 33.3853C47.7099 33.2789 47.2248 33.0219 46.8405 32.6455C46.4562 32.2692 46.1892 31.7895 46.0718 31.2645C46.0322 31.0993 46.0126 30.9299 46.0134 30.7601C46.0046 30.7021 46.0034 30.6433 46.01 30.585Z" fill="#263238"/>
<path d="M50.224 30.6194C50.2068 30.6194 49.97 30.4993 49.6132 30.3174C49.2563 30.1355 48.7587 29.8507 48.165 29.5109L48.2988 29.4354C48.2988 29.8026 48.2988 30.1938 48.2988 30.6056C48.2988 31.0174 48.2988 31.4086 48.2988 31.7724L48.165 31.6969C48.7621 31.3537 49.2768 31.0826 49.6234 30.9145C49.97 30.7463 50.224 30.6228 50.2411 30.6194C50.0742 30.7456 49.8987 30.8602 49.7161 30.9625C49.3421 31.2027 48.841 31.4944 48.2508 31.8376L48.1169 31.9165V31.7587C48.1169 31.3915 48.1169 31.0003 48.1169 30.5885C48.1169 30.1767 48.1169 29.7855 48.1169 29.4217V29.2639L48.2473 29.3428C48.8307 29.686 49.3283 29.9982 49.6989 30.2419C49.8804 30.3585 50.0556 30.4845 50.224 30.6194Z" fill="#263238"/>
<path d="M45.5882 22.8707C45.5882 23.4746 45.0666 23.8453 44.2533 23.8384C43.44 23.8315 42.9424 23.454 42.9458 22.8501C42.9448 22.671 43.0018 22.4963 43.1081 22.3522C43.2145 22.2081 43.3646 22.1023 43.5361 22.0505C43.3956 21.9909 43.2764 21.8902 43.1943 21.7615C43.1122 21.6329 43.0711 21.4824 43.0762 21.3298C43.0762 20.7739 43.5635 20.4342 44.2807 20.4376C44.998 20.441 45.4853 20.7808 45.4818 21.3504C45.4837 21.5037 45.4392 21.6539 45.354 21.7813C45.2689 21.9087 45.1471 22.0074 45.0048 22.0642C45.1761 22.1176 45.3256 22.225 45.4307 22.3704C45.5359 22.5157 45.5911 22.6913 45.5882 22.8707ZM45.1112 22.8535C45.1112 22.4863 44.7955 22.2564 44.267 22.253C43.7385 22.2495 43.4228 22.4726 43.4228 22.8398C43.4228 23.207 43.7282 23.4506 44.2567 23.454C44.7852 23.4575 45.1078 23.2276 45.1112 22.8535ZM43.5464 21.3539C43.5464 21.697 43.814 21.8892 44.2704 21.8926C44.7269 21.8961 45.0117 21.6936 45.0151 21.3642C45.0185 21.0347 44.7234 20.8254 44.2773 20.822C43.8312 20.8185 43.5498 21.021 43.5464 21.3539Z" fill="#455A64"/>
<path d="M46.0545 23.5158C46.0538 23.4716 46.0624 23.4278 46.0798 23.3872C46.0971 23.3466 46.1228 23.3101 46.1551 23.28C46.1875 23.2499 46.2258 23.227 46.2675 23.2126C46.3093 23.1982 46.3536 23.1928 46.3976 23.1967C46.4412 23.1964 46.4844 23.2054 46.5243 23.223C46.5642 23.2406 46.5999 23.2665 46.6291 23.2989C46.6583 23.3313 46.6803 23.3696 46.6936 23.4111C46.7069 23.4526 46.7113 23.4965 46.7065 23.5398C46.7079 23.582 46.7007 23.624 46.6854 23.6633C46.6701 23.7026 46.647 23.7384 46.6175 23.7686C46.588 23.7987 46.5527 23.8226 46.5138 23.8387C46.4748 23.8548 46.4329 23.8629 46.3908 23.8624C46.345 23.865 46.2992 23.8578 46.2565 23.8412C46.2138 23.8245 46.1752 23.7989 46.1433 23.766C46.1114 23.7332 46.087 23.6938 46.0716 23.6506C46.0563 23.6074 46.0504 23.5615 46.0545 23.5158Z" fill="#455A64"/>
<path d="M49.4794 22.8466C49.4794 23.4197 49.0607 23.8761 48.2131 23.8761C47.7712 23.8833 47.3405 23.7365 46.9949 23.4609L47.2179 23.0868C47.4923 23.3263 47.8455 23.4559 48.2097 23.4506C48.7141 23.4506 49.0024 23.2241 49.0024 22.8638C49.0024 22.5034 48.7725 22.2564 48.0038 22.2495H47.2454L47.4376 20.5131H49.3113V20.9283H47.8356L47.7395 21.8411H48.1102C49.0985 21.8411 49.4828 22.2564 49.4794 22.8466Z" fill="#455A64"/>
<path d="M48.8682 14.8508C48.8874 14.9644 48.8874 15.0804 48.8682 15.194C48.8134 15.5207 48.697 15.834 48.5251 16.1171C48.2776 16.5447 47.9317 16.907 47.5162 17.1741C47.0059 17.5086 46.4104 17.6896 45.8003 17.6957C45.1886 17.6832 44.5965 17.4779 44.1085 17.1089C43.7092 16.8258 43.3699 16.4666 43.1099 16.0519C42.9319 15.7753 42.7998 15.4716 42.7187 15.1528C42.6822 15.0422 42.6648 14.9261 42.6672 14.8097C42.8011 15.2265 42.9879 15.6244 43.2231 15.9936C43.4844 16.3854 43.8174 16.7242 44.2046 16.9922C44.6657 17.3324 45.2206 17.5218 45.7935 17.5344C46.3172 17.5217 46.8297 17.3798 47.2854 17.1211C47.741 16.8625 48.1256 16.4952 48.405 16.0519C48.6241 15.6796 48.7806 15.2739 48.8682 14.8508Z" fill="#263238"/>
<path d="M79.0204 45.1783C77.755 32.801 76.389 24.6201 80.5027 12.5915L88.9366 14.4508C92.601 25.9707 92.3815 38.3144 92.1284 50.3998C92.1052 51.4896 92.0665 52.6387 91.4906 53.5658C90.3389 55.4173 87.7281 55.5051 85.5512 55.3734C83.6066 55.265 79.7693 56.8118 78.4161 55.4096C77.1559 54.1107 79.2012 46.9859 79.0204 45.1783Z" fill="#263238"/>
<path d="M120.395 47.833L112.968 45.4804L105.724 45.2738L85.3626 47.8071L73.0034 78.5604L77.8092 99.9294L74.6432 111H117.42C117.42 111 121.831 59.3348 121.707 58.8364C121.583 58.338 120.39 47.8355 120.39 47.8355" fill="#455A64"/>
<path d="M85.3627 47.8071C85.3627 47.8071 75.4103 49.0492 71.2295 55.0868C68.0093 59.735 60.1589 75.0329 60.1589 75.0329L54.6921 72.2724C54.6921 72.2724 51.2033 83.7845 51.1078 85.9589C50.9606 89.2591 51.286 96.4587 53.9484 98.6925C57.0833 101.324 62.6302 98.5634 64.3449 97.2154C66.6071 95.4335 74.0675 81.636 74.0675 81.636L85.3627 47.8071Z" fill="#455A64"/>
<path d="M77.8147 99.9294C77.8147 99.9294 77.8147 99.8959 77.7862 99.8287C77.7578 99.7616 77.7398 99.6583 77.7088 99.5317L77.4247 98.3878C77.1846 97.3832 76.8385 95.9448 76.4124 94.1708C75.9863 92.3967 75.4828 90.2662 74.925 87.9111C74.6461 86.7336 74.3543 85.4966 74.0496 84.2158C73.9773 83.8956 73.8895 83.5754 73.8301 83.2448C73.7707 82.9143 73.7061 82.5812 73.6519 82.2454C73.5331 81.574 73.4324 80.8897 73.3446 80.1951C73.1665 78.8428 73.1077 77.4775 73.169 76.1149C73.2371 74.8452 73.4326 73.5856 73.7526 72.355C74.3081 70.28 75.0257 68.2518 75.8985 66.2891C76.6294 64.6079 77.2801 63.2755 77.7294 62.3561L78.2459 61.3C78.3027 61.1837 78.3492 61.0934 78.3854 61.0262C78.3999 60.9946 78.4171 60.9644 78.437 60.9358C78.437 60.9358 78.437 60.9694 78.3957 61.034L78.2691 61.3129C78.1504 61.5642 77.9834 61.9197 77.7682 62.3794C77.3343 63.3064 76.6965 64.6441 75.976 66.3252C75.1204 68.2894 74.4142 70.3155 73.8636 72.386C73.5509 73.6098 73.3598 74.8614 73.2929 76.1227C73.234 77.4776 73.2936 78.835 73.4711 80.1796C73.5589 80.8682 73.6605 81.5491 73.7758 82.2222C73.8301 82.5579 73.8946 82.8885 73.9514 83.2164C74.0083 83.5444 74.0986 83.8672 74.171 84.1874C74.4705 85.4786 74.7623 86.7078 75.036 87.8853C75.5861 90.243 76.069 92.3631 76.4977 94.1501C76.9263 95.9371 77.2388 97.3703 77.4686 98.3748C77.5797 98.8707 77.6675 99.2554 77.7269 99.5266C77.7527 99.6531 77.7759 99.7512 77.7914 99.8261C77.8027 99.8597 77.8105 99.8943 77.8147 99.9294Z" fill="#263238"/>
<path d="M63.583 69.9199C63.5951 69.9361 63.6038 69.9545 63.6088 69.9741L63.6734 70.1394C63.742 70.3551 63.7963 70.575 63.8361 70.7979C63.9616 71.6196 64.0083 72.4515 63.9755 73.2821C63.9755 74.3331 63.8361 75.5804 63.8955 76.9594C63.979 78.4584 64.1846 79.9482 64.5101 81.4139C65.1712 84.5412 65.9923 87.3404 66.137 89.4502C66.216 90.2773 66.216 91.11 66.137 91.937C66.1165 92.1655 66.0811 92.3924 66.0311 92.6162C66.0104 92.6833 65.9949 92.7376 65.982 92.7841C65.9774 92.8037 65.9704 92.8228 65.9614 92.8409C65.9579 92.8212 65.9579 92.8011 65.9614 92.7815C65.9614 92.735 65.982 92.6782 65.9975 92.6085C66.0388 92.3881 66.0681 92.1657 66.0853 91.9422C66.1427 91.1179 66.1289 90.2902 66.044 89.4683C65.8736 87.3766 65.042 84.5851 64.3784 81.463C64.051 79.99 63.848 78.4922 63.7715 76.9852C63.7199 75.5907 63.8593 74.346 63.88 73.3002C63.9219 72.4743 63.8899 71.6464 63.7844 70.8263C63.7518 70.6043 63.7061 70.3844 63.6476 70.1678C63.6269 70.1006 63.6114 70.0464 63.5959 69.9999C63.5889 69.9737 63.5846 69.9469 63.583 69.9199Z" fill="#263238"/>
<path d="M69.0734 70.4854C69.0398 70.5009 68.4433 69.3543 67.7435 67.9211C67.0437 66.4879 66.5014 65.3155 66.5349 65.3C66.5685 65.2845 67.1624 66.4311 67.8648 67.8617C68.5672 69.2924 69.107 70.4699 69.0734 70.4854Z" fill="white"/>
<path d="M73.3366 67.619C73.3676 67.6422 72.1849 69.2846 70.6975 71.2859C69.21 73.2873 67.9808 74.9012 67.9524 74.8728C67.924 74.8444 69.1016 73.2098 70.589 71.2059C72.0764 69.202 73.3082 67.5983 73.3366 67.619Z" fill="white"/>
<path d="M72.9364 73.5455C72.6691 73.2662 72.4351 72.9568 72.2391 72.6236C72.0063 72.3153 71.8105 71.9807 71.6555 71.6268C71.9228 71.9061 72.1568 72.2155 72.3528 72.5487C72.5856 72.857 72.7814 73.1916 72.9364 73.5455Z" fill="white"/>
<path d="M78.6847 68.3266C78.7157 68.3421 78.0727 69.6487 77.2463 71.242C76.42 72.8354 75.7201 74.1136 75.6969 74.0981C75.6737 74.0826 76.3089 72.7734 77.1353 71.1801C77.9616 69.5867 78.6615 68.3085 78.6847 68.3266Z" fill="white"/>
<path d="M81.4506 73.5378C81.2834 73.452 81.1302 73.3414 80.9961 73.2098C80.6536 72.9167 80.3382 72.5935 80.0535 72.244C79.7619 71.8974 79.5026 71.5248 79.2788 71.131C79.1754 70.9717 79.097 70.7975 79.0464 70.6145C79.0825 70.5939 79.4802 71.3479 80.1439 72.151C80.8076 72.9541 81.4764 73.5068 81.4506 73.5378Z" fill="white"/>
<path d="M85.7447 67.5079C85.562 67.7053 85.3653 67.8891 85.156 68.058C84.7841 68.3885 84.2702 68.8482 83.715 69.3647C83.1598 69.8811 82.6821 70.3615 82.3128 70.7075C82.1307 70.9055 81.9329 71.0886 81.7214 71.255C81.875 71.0351 82.0478 70.8295 82.2379 70.6404C82.5762 70.2762 83.0591 69.7856 83.6169 69.2665C84.1747 68.7475 84.6963 68.2982 85.0862 67.9754C85.2895 67.7978 85.5101 67.6412 85.7447 67.5079Z" fill="white"/>
<path d="M88.4978 75.3661C88.4693 75.3893 87.5268 74.3331 86.3906 72.9825C85.2543 71.632 84.3582 70.537 84.3866 70.5138C84.415 70.4906 85.3576 71.5467 86.4938 72.8973C87.6301 74.2479 88.5236 75.3402 88.4978 75.3661Z" fill="white"/>
<path d="M91.5114 69.0703C91.0883 69.5745 90.631 70.049 90.1428 70.4905C89.6859 70.9645 89.1976 71.4071 88.6812 71.8153C89.1039 71.3156 89.5603 70.8454 90.0472 70.4079C90.5045 69.9294 90.9937 69.4825 91.5114 69.0703Z" fill="white"/>
<path d="M96.2709 74.5397C96.0311 74.413 95.8052 74.2615 95.5969 74.0878C94.5568 73.293 93.6275 72.3629 92.8338 71.3221C92.6601 71.1138 92.5086 70.8879 92.3818 70.6481C92.5662 70.8424 92.7386 71.0477 92.8983 71.2627C93.2159 71.6475 93.673 72.1639 94.2076 72.7011C94.7421 73.2382 95.2612 73.6927 95.6459 74.0129C95.8656 74.1745 96.0744 74.3505 96.2709 74.5397Z" fill="white"/>
<path d="M99.1913 69.344C99.0547 69.4984 98.9053 69.641 98.7446 69.7701C98.4605 70.0283 98.0758 70.3821 97.6678 70.8031C97.2597 71.224 96.9137 71.6088 96.6632 71.8954C96.538 72.0594 96.398 72.2116 96.2449 72.3499C96.339 72.1644 96.4552 71.991 96.5909 71.8334C96.8949 71.4377 97.2226 71.0609 97.5722 70.7049C97.9224 70.3495 98.2932 70.0149 98.6826 69.703C98.8357 69.5615 99.0067 69.4408 99.1913 69.344Z" fill="white"/>
<path d="M103.173 75.3144C103.147 75.3402 102.308 74.4984 101.298 73.437C100.289 72.3757 99.4906 71.4899 99.5216 71.4641C100.178 72.0586 100.804 72.686 101.396 73.3441C102.404 74.4106 103.199 75.2912 103.173 75.3144Z" fill="white"/>
<path d="M105.769 68.1458C105.6 68.3577 105.416 68.557 105.219 68.7423C104.875 69.1038 104.405 69.6074 103.909 70.1859C103.414 70.7643 102.987 71.3066 102.683 71.7043C102.526 71.9276 102.354 72.1391 102.166 72.337C102.288 72.0944 102.431 71.8636 102.595 71.6475C102.882 71.2343 103.297 70.6791 103.796 70.098C104.294 69.517 104.777 69.0212 105.141 68.6752C105.332 68.4785 105.543 68.3011 105.769 68.1458Z" fill="white"/>
<path d="M108.694 74.1833C108.49 74.0636 108.299 73.9234 108.124 73.765C107.783 73.4861 107.326 73.0833 106.833 72.6159C106.339 72.1484 105.939 71.6991 105.65 71.366C105.483 71.1955 105.337 71.0066 105.213 70.803C105.398 70.9559 105.571 71.1225 105.73 71.3014C106.032 71.6191 106.455 72.0529 106.936 72.5203C107.416 72.9877 107.86 73.3957 108.183 73.6927C108.368 73.8408 108.539 74.005 108.694 74.1833Z" fill="white"/>
<path d="M113.846 68.0838C113.7 68.2957 113.532 68.4921 113.345 68.67C113.017 69.0186 112.547 69.4809 111.997 69.9612C111.447 70.4415 110.926 70.8418 110.538 71.1181C110.336 71.2787 110.118 71.4188 109.887 71.5364C110.073 71.3578 110.272 71.193 110.481 71.0432C110.853 70.7488 111.365 70.3356 111.909 69.8605C112.454 69.3853 112.942 68.9334 113.278 68.6054C113.455 68.4183 113.645 68.244 113.846 68.0838Z" fill="white"/>
<path d="M118.453 68.6958C118.479 68.912 118.479 69.1304 118.453 69.3466C118.435 69.7494 118.388 70.3046 118.306 70.9141C118.223 71.5235 118.12 72.0684 118.032 72.4635C117.998 72.6791 117.938 72.8898 117.854 73.091C117.863 72.8737 117.892 72.6577 117.939 72.4454C118.004 72.0503 118.091 71.5029 118.174 70.896C118.257 70.2892 118.316 69.7391 118.36 69.3466C118.368 69.127 118.399 68.9089 118.453 68.6958Z" fill="white"/>
<g opacity="0.3">
<path opacity="0.3" d="M91.9993 74.8186C91.4622 74.2014 90.8966 73.5661 90.1452 73.2408C89.1122 72.7966 87.9321 73.0109 86.832 73.2408C82.2509 74.1911 77.6887 75.2361 73.1455 76.3757L73.6129 76.869C75.0719 78.7722 77.8222 79.0072 80.216 78.8858C82.6098 78.7644 85.2232 78.5088 87.2064 79.8568C88.9689 81.1116 90.4961 82.6677 91.7178 84.4534C95.1627 89.5871 97.6314 92.2417 101.471 95.6014C105.482 99.1134 108.96 103.09 114.218 102.173C107.128 92.803 99.7223 83.6847 91.9993 74.8186Z" fill="black"/>
</g>
<path d="M54.5888 73.0135L55.1931 70.7281C55.1931 70.7281 49.3699 65.8862 50.3512 63.8022C50.4375 63.474 50.6283 63.1828 50.8948 62.9727C51.1613 62.7626 51.489 62.645 51.8283 62.6376C51.8283 62.6376 51.1543 61.2276 52.0865 60.1869C53.0187 59.1463 54.0491 59.5749 54.0491 59.5749C54.0491 59.5749 53.5585 58.103 53.8658 57.429C53.9165 57.3168 53.9761 57.2089 54.0439 57.1062C54.2403 56.8067 54.5087 56.5613 54.8245 56.3926C55.1403 56.2238 55.4935 56.1371 55.8516 56.1404H56.3267L55.3584 52.6284C55.2297 52.1612 55.235 51.6672 55.3739 51.2029L55.5546 50.5935C55.7123 50.0884 56.0553 49.6617 56.5147 49.3992C56.9741 49.1366 57.5159 49.0578 58.0311 49.1784C58.7671 49.3591 59.3223 49.6793 59.3223 50.2578V50.5651L58.0879 51.2391C58.0879 51.2391 59.973 55.9467 60.1564 56.2049C60.3397 56.4632 62.1809 58.6582 62.1809 58.6582C62.1809 58.6582 62.3643 55.9002 63.5883 55.7143C64.8124 55.5284 65.2436 56.2669 65.0603 56.8196C64.8769 57.3722 64.8976 58.0772 65.1016 58.919C65.1016 58.919 64.4483 64.9101 64.5077 66.5034C64.567 68.0967 63.8337 68.0967 63.8337 68.0967C63.8337 68.0967 63.7123 70.364 63.2836 71.5906C62.8549 72.8172 58.9323 77.3493 57.1531 76.8638C55.3739 76.3783 54.5888 73.0135 54.5888 73.0135Z" fill="#D38176"/>
<path d="M51.7766 62.5369C51.8282 62.5487 51.8785 62.566 51.9264 62.5885L52.3447 62.759L53.8786 63.4072L56.1434 64.3833L57.481 64.9643C57.7221 65.0611 57.9574 65.1715 58.186 65.2949C58.4379 65.4231 58.6383 65.6336 58.7541 65.8914C58.8109 66.0506 58.8035 66.2256 58.7335 66.3794C58.6626 66.5245 58.5491 66.6443 58.4081 66.7229C58.147 66.8695 57.8571 66.9577 57.5585 66.9811C56.1412 67.1617 54.7036 66.8761 53.4629 66.1677H53.5145C53.1026 66.5647 52.5621 66.8011 51.9909 66.8339C51.9508 66.8413 51.9097 66.8413 51.8696 66.8339C51.8696 66.8339 52.0374 66.8339 52.3318 66.7487C52.7543 66.6381 53.1406 66.4191 53.4526 66.1135L53.4758 66.0902L53.5042 66.1057C54.2617 66.5194 55.0922 66.7825 55.9497 66.8804C56.4794 66.9405 57.0144 66.9362 57.543 66.8675C57.8215 66.8469 58.0926 66.7677 58.3384 66.6351C58.4555 66.5682 58.5506 66.4686 58.6121 66.3485C58.6674 66.2262 58.6729 66.0873 58.6276 65.9611C58.5175 65.7365 58.3358 65.5548 58.1111 65.4446C57.8884 65.3217 57.6581 65.213 57.4216 65.1193L56.0891 64.5305L53.8347 63.5259L52.3189 62.839L51.9109 62.6454C51.861 62.6161 51.8157 62.5796 51.7766 62.5369Z" fill="#794742"/>
<path d="M53.6797 59.5052C53.7252 59.5095 53.7702 59.5182 53.814 59.5311C53.9402 59.5588 54.0645 59.5951 54.1859 59.6395C54.6346 59.8035 55.0607 60.0239 55.4538 60.2954C56.4738 60.941 57.6359 62.1909 59.3661 62.8365C59.7855 63.0104 60.1751 63.2492 60.5204 63.544C60.8376 63.8387 61.0529 64.2267 61.135 64.6519C61.1773 64.8452 61.1729 65.0459 61.1222 65.2372C61.0714 65.4285 60.9758 65.605 60.8432 65.752C60.5955 65.992 60.2661 66.1295 59.9213 66.1367C59.6441 66.1449 59.3683 66.0966 59.1104 65.9947C58.9187 65.9204 58.7338 65.8297 58.5578 65.7235C58.4106 65.6383 58.2996 65.5686 58.2298 65.517C58.1904 65.495 58.154 65.4681 58.1214 65.4369C58.2786 65.5101 58.432 65.5911 58.581 65.6797C58.7599 65.7748 58.9455 65.8568 59.1362 65.925C59.3842 66.0146 59.6476 66.0541 59.9109 66.0412C60.2285 66.0293 60.5299 65.8984 60.7554 65.6745C60.875 65.5406 60.9608 65.38 61.0058 65.2061C61.0507 65.0323 61.0534 64.8502 61.0136 64.6751C60.9355 64.2781 60.7329 63.9162 60.4352 63.6422C60.098 63.3592 59.7202 63.1285 59.3144 62.9578C58.9004 62.7864 58.4968 62.5907 58.1059 62.3717C57.7471 62.1577 57.4021 61.9214 57.0729 61.6641C56.4428 61.1786 55.9005 60.7112 55.4047 60.3729C55.0221 60.097 54.6088 59.8665 54.1729 59.686C53.8579 59.562 53.6771 59.5207 53.6797 59.5052Z" fill="#794742"/>
<path d="M55.8411 56.205C55.8939 56.2204 55.9443 56.243 55.9909 56.2721L56.4015 56.4916L57.9019 57.318L60.1175 58.5575C60.571 58.7833 60.9915 59.07 61.3674 59.4097C61.5744 59.5986 61.7333 59.8343 61.8308 60.0971C61.9282 60.3598 61.9615 60.6421 61.9277 60.9203C61.8744 61.2074 61.7172 61.4648 61.4862 61.6434C61.2583 61.8084 60.9912 61.9108 60.7115 61.9404C60.1964 61.9816 59.6814 61.8596 59.2395 61.5917C58.8134 61.3593 58.4441 61.0908 58.0826 60.8713C57.7211 60.6518 57.3802 60.4529 57.0497 60.2902C56.5434 60.03 56.0099 59.8265 55.4589 59.6834C55.069 59.5878 54.8469 59.562 54.8469 59.5491C54.9019 59.5434 54.9573 59.5434 55.0122 59.5491C55.1668 59.5648 55.3203 59.5898 55.4719 59.624C56.0326 59.7482 56.5763 59.9399 57.091 60.1947C57.419 60.3522 57.7676 60.5433 58.1239 60.7654C58.4803 60.9875 58.8625 61.2483 59.2782 61.473C59.6987 61.7265 60.1887 61.8405 60.6779 61.7983C60.9303 61.7698 61.1707 61.6754 61.3751 61.5246C61.5802 61.3681 61.7193 61.1406 61.7651 60.8868C61.796 60.63 61.7653 60.3696 61.6755 60.1271C61.5856 59.8846 61.4393 59.667 61.2486 59.4923C60.8815 59.1613 60.4726 58.88 60.0323 58.6556L57.8295 57.3903L56.3499 56.5252L55.9522 56.285C55.914 56.26 55.8769 56.2333 55.8411 56.205Z" fill="#794742"/>
<path d="M59.2989 50.2655C59.2989 50.2655 59.3196 50.312 59.3325 50.405C59.3282 50.4627 59.3178 50.5199 59.3015 50.5754C59.2714 50.645 59.2333 50.7109 59.1879 50.7717C58.9001 51.0906 58.5261 51.3193 58.1111 51.4302C57.7077 51.5598 57.2844 51.6158 56.8612 51.5955C56.6825 51.5958 56.506 51.5561 56.3447 51.4793C56.3447 51.456 56.5436 51.4999 56.8612 51.4999C57.27 51.4935 57.6755 51.4265 58.0646 51.3011C58.4524 51.1935 58.8073 50.9911 59.0975 50.7123C59.1429 50.6616 59.1827 50.6062 59.2163 50.547C59.237 50.4902 59.2525 50.4411 59.2654 50.4024C59.2664 50.3549 59.2779 50.3082 59.2989 50.2655Z" fill="#794742"/>
<path d="M60.7242 70.4079C60.5192 69.7481 60.2125 69.1243 59.8152 68.559C59.382 68.0206 58.8671 67.5536 58.2891 67.1748C58.4868 67.2362 58.6728 67.3305 58.8391 67.4537C59.2567 67.734 59.6234 68.0833 59.9237 68.4867C60.2242 68.8869 60.4555 69.3347 60.608 69.8114C60.6801 70.0023 60.7194 70.204 60.7242 70.4079Z" fill="#794742"/>
<path d="M59.0022 71.9083C59.0022 71.9083 58.9532 71.9573 58.8473 72.0193C58.6978 72.1071 58.5383 72.1764 58.3721 72.2259C57.8188 72.3988 57.225 72.3925 56.6755 72.2078C56.1266 72.0139 55.6525 71.6526 55.3198 71.1749C55.2167 71.0337 55.1301 70.8812 55.0616 70.7204C55.031 70.6637 55.0125 70.6013 55.0073 70.537C55.0306 70.537 55.1261 70.7798 55.3869 71.1181C55.7231 71.5596 56.183 71.8911 56.7082 72.0704C57.2333 72.2498 57.8 72.2688 58.336 72.1252C58.7595 72.0296 58.9919 71.8876 59.0022 71.9083Z" fill="#794742"/>
<path d="M62.5993 68.8404C62.4487 68.8899 62.2888 68.904 62.1319 68.8818C61.7499 68.8549 61.3798 68.7371 61.0525 68.5383C60.7252 68.3402 60.4491 68.0677 60.2468 67.7429C60.1549 67.6139 60.0939 67.4655 60.0686 67.3091C60.0893 67.3091 60.1616 67.4641 60.3268 67.6913C60.5408 67.9853 60.8112 68.2337 61.1222 68.4221C61.4351 68.6095 61.7816 68.7341 62.1422 68.7888C62.2955 68.7965 62.4482 68.8137 62.5993 68.8404Z" fill="#794742"/>
<path d="M63.7071 64.2671C63.5138 64.3051 63.3145 64.2998 63.1235 64.2516C62.6536 64.1639 62.2176 63.9468 61.8645 63.6247C61.5113 63.3026 61.2551 62.8883 61.1248 62.4284C61.0587 62.2432 61.0349 62.0456 61.055 61.85C61.0783 61.85 61.0989 62.0695 61.2151 62.4C61.3664 62.8296 61.6199 63.216 61.9537 63.5259C62.2918 63.831 62.6998 64.0482 63.1416 64.1586C63.4773 64.2438 63.7071 64.2438 63.7071 64.2671Z" fill="#794742"/>
<path d="M57.6516 51.6471L62.7156 61.8861C62.7156 61.8861 64.265 63.5518 64.4355 64.7913L66.6434 67.7016L68.1928 66.7229L67.1314 63.309C67.1314 63.309 65.5536 61.6666 65.5536 60.3187L59.7846 50.5677L57.6516 51.6471Z" fill="#FF725E"/>
<path d="M65.5662 60.3212C65.1705 60.6959 64.7267 61.0164 64.2466 61.2741C63.7881 61.5705 63.2875 61.796 62.7617 61.943C62.7462 61.9042 63.4099 61.6124 64.1795 61.1683C64.949 60.7241 65.5429 60.2903 65.5662 60.3212Z" fill="#263238"/>
<path d="M67.1029 63.3116C66.6915 63.6109 66.2552 63.8744 65.7988 64.0992C65.3639 64.3641 64.9058 64.5889 64.4302 64.7706C64.8372 64.4716 65.2692 64.2081 65.7214 63.983C66.1607 63.7181 66.6231 63.4934 67.1029 63.3116Z" fill="#263238"/>
<path d="M61.3418 53.1836C60.9937 53.4529 60.6201 53.6873 60.2262 53.8834C59.8531 54.1174 59.4567 54.3121 59.0435 54.4645C59.3912 54.1935 59.7659 53.9589 60.1616 53.7646C60.5337 53.5304 60.9292 53.3357 61.3418 53.1836Z" fill="#263238"/>
<path d="M63.4334 58.5058L63.4799 58.4852C63.6026 58.4263 63.7436 58.4182 63.8722 58.4627C64.0008 58.5072 64.1067 58.6006 64.1668 58.7228L65.303 60.9539C65.3352 61.0152 65.3547 61.0824 65.3604 61.1514C65.3661 61.2204 65.3579 61.2899 65.3362 61.3557C65.3145 61.4214 65.2799 61.4822 65.2342 61.5343C65.1886 61.5864 65.1329 61.6287 65.0706 61.6589C65.0104 61.6903 64.9446 61.7096 64.877 61.7155C64.8094 61.7215 64.7412 61.7141 64.6765 61.6937C64.6117 61.6733 64.5516 61.6404 64.4996 61.5967C64.4476 61.5531 64.4047 61.4996 64.3734 61.4394L63.1906 59.2289C63.1558 59.1662 63.1344 59.0968 63.1279 59.0254C63.1213 58.9539 63.1297 58.8819 63.1526 58.8138C63.1754 58.7458 63.2122 58.6833 63.2605 58.6303C63.3089 58.5772 63.3678 58.5349 63.4334 58.5058Z" fill="#455A64"/>
<path d="M104.622 95.8829L94.5508 82.4779L102.04 74.7721L111.388 83.2526L113.844 68.6958L118.28 48.2952C118.28 48.2952 127.233 51.2675 127.233 59.3038C127.233 67.3401 124.212 92.3166 122.195 96.2315C121.454 97.6699 120.803 99.2296 119.819 100.301C118.125 102.145 115.899 103.015 113.805 102.605C107.899 101.438 104.622 95.8829 104.622 95.8829Z" fill="#455A64"/>
<path d="M65.7727 71.2524C65.7727 71.2524 65.7417 69.7624 67.5959 69.7959C67.5959 69.7959 68.7889 69.8269 70.2789 71.7172L71.5701 72.1794L66.6766 67.7068C66.6766 67.7068 67.614 66.4518 68.6417 66.7487C69.6695 67.0457 70.2454 68.4712 71.3713 68.8998C72.4972 69.3285 73.9898 70.5242 73.9898 70.5242L77.3004 71.0871L77.5999 70.723L70.8574 63.9805C70.8574 63.9805 71.9885 62.3975 73.3468 63.464C74.7051 64.5305 76.771 66.6196 77.1687 66.9192C77.5664 67.2187 79.0564 68.2439 79.0564 68.2439L81.6387 68.7062L83.56 68.0115C83.56 68.0115 83.0642 66.5215 84.4199 66.1884C85.7757 65.8552 88.859 67.2497 88.859 67.2497C89.6398 66.703 90.5736 66.4174 91.5266 66.4337C93.1845 66.4337 94.4601 67.8927 94.5583 69.016C94.6564 70.1394 91.2012 74.5346 91.2012 74.5346L89.7887 75.3945L81.0758 76.7502L79.4515 76.5849L75.5599 77.3467L67.7508 74.798C67.7508 74.798 67.0562 73.5068 68.3138 73.2744L65.7727 71.2524Z" fill="#D38176"/>
<path d="M79.8058 73.3983C79.8058 73.4112 79.6457 73.357 79.3539 73.3312C78.9409 73.3131 78.5278 73.3655 78.1324 73.4861C77.6159 73.6178 77.0426 73.858 76.3532 74.0026C75.5999 74.1464 74.8248 74.1306 74.0781 73.9561C73.2827 73.7986 72.5519 73.5584 71.8779 73.388C71.2872 73.2252 70.6816 73.1223 70.0703 73.0807C69.657 73.0597 69.2428 73.0935 68.8385 73.1814C68.5544 73.2485 68.4021 73.3105 68.3969 73.2976C68.3918 73.2847 68.4331 73.2743 68.5028 73.2459C68.6076 73.2005 68.7154 73.1625 68.8256 73.1323C69.2317 73.0218 69.6522 72.9731 70.0729 72.9877C70.6941 73.0127 71.3108 73.1063 71.9115 73.2666C72.5907 73.4345 73.3215 73.6694 74.1065 73.8244C74.837 73.9942 75.5943 74.0136 76.3325 73.8812C77.0065 73.7392 77.5953 73.5068 78.1117 73.3854C78.5182 73.2731 78.9415 73.2346 79.3616 73.2718C79.4746 73.2872 79.586 73.3123 79.6947 73.3467C79.7343 73.3578 79.7718 73.3752 79.8058 73.3983Z" fill="#794742"/>
<path d="M77.7758 73.1013C77.4045 73.0137 77.0274 72.9532 76.6473 72.9206C76.2351 72.8966 75.8215 72.9226 75.4155 72.998C75.175 73.0428 74.9371 73.1006 74.7028 73.1711C74.4432 73.2597 74.1671 73.2897 73.8945 73.2589C73.3896 73.1423 72.9031 72.9573 72.4484 72.7088L71.3302 72.1484C71.079 72.0219 70.8202 71.9106 70.5555 71.8153C70.3696 71.7456 70.2611 71.7301 70.2637 71.7172C70.2663 71.7043 70.2921 71.7172 70.3438 71.7172C70.4206 71.7256 70.4966 71.7402 70.571 71.7611C70.8435 71.8403 71.1094 71.9404 71.3664 72.0606C71.6918 72.2053 72.0714 72.3938 72.4975 72.5952C72.9439 72.826 73.4176 72.9995 73.9074 73.1117C74.1626 73.1386 74.4207 73.1104 74.6641 73.029C74.9014 72.9583 75.1429 72.9023 75.3871 72.8612C75.8033 72.7907 76.2267 72.7733 76.6473 72.8095C76.9301 72.8342 77.2096 72.8878 77.4814 72.9696C77.5855 72.9987 77.6848 73.043 77.7758 73.1013Z" fill="#794742"/>
<path d="M79.0515 68.7965C79.0773 68.8275 78.7442 69.1142 78.4678 69.5712C78.1915 70.0283 78.0805 70.4518 78.0417 70.4441C78.0491 70.1061 78.157 69.7779 78.3516 69.5015C78.5075 69.2006 78.7517 68.9546 79.0515 68.7965Z" fill="#794742"/>
<path d="M82.0857 70.9244C82.0444 70.9244 82.0857 70.4854 82.0134 69.9637C81.9411 69.4421 81.7551 69.0418 81.7964 69.0238C81.9962 69.2917 82.117 69.6101 82.1451 69.9431C82.2163 70.2694 82.1957 70.6091 82.0857 70.9244Z" fill="#794742"/>
<path d="M86.3078 70.4079C86.0507 70.5363 85.7839 70.6443 85.5098 70.7307C85.014 70.9141 84.3194 71.1542 83.5576 71.4228C83.3691 71.4899 83.1806 71.5493 83.0024 71.6191L82.4859 71.8205L81.6208 72.1588C81.3578 72.2739 81.0857 72.3671 80.8074 72.4377C81.0554 72.295 81.3145 72.1723 81.5821 72.071L82.442 71.7069L82.9585 71.4951C83.1367 71.4254 83.3252 71.3634 83.5163 71.2963C84.291 71.038 84.9779 70.8004 85.4814 70.6403C85.7502 70.5409 86.0266 70.4632 86.3078 70.4079Z" fill="#794742"/>
<path d="M90.3698 71.854C90.2674 71.8332 90.1671 71.8029 90.0703 71.7637L89.2698 71.4744C88.5932 71.2317 87.6584 70.8986 86.6151 70.5577C86.0986 70.3821 85.5821 70.2401 85.1457 70.0619C84.7425 69.913 84.3741 69.6827 84.0637 69.3853C83.8557 69.1828 83.6983 68.9342 83.6041 68.6597C83.5634 68.5608 83.5457 68.4539 83.5524 68.3472C83.5524 68.3472 83.5782 68.4557 83.6531 68.6416C83.7631 68.8981 83.9259 69.1287 84.1309 69.3182C84.4399 69.5951 84.8006 69.8083 85.1922 69.9457C85.6312 70.1135 86.1374 70.253 86.659 70.4286C87.6919 70.772 88.6345 71.1207 89.3033 71.3866C89.6364 71.5183 89.905 71.632 90.078 71.7146C90.1814 71.747 90.2797 71.7939 90.3698 71.854Z" fill="#794742"/>
<path d="M91.519 67.8721C91.3076 67.8905 91.0945 67.873 90.8889 67.8204C90.3901 67.7216 89.897 67.5958 89.4118 67.4434C88.8437 67.2678 88.335 67.087 87.9734 66.9424C87.7723 66.8805 87.5798 66.7938 87.4001 66.6842C87.6074 66.7238 87.8106 66.7826 88.007 66.8598L89.4505 67.322C90.0161 67.495 90.5325 67.6422 90.9096 67.7352C91.2866 67.8282 91.5216 67.854 91.519 67.8721Z" fill="#794742"/>
<path d="M89.6262 75.4177L95.0182 82.0802L101.105 75.7379L94.2022 68.1948L89.6262 75.4177Z" fill="#D38176"/>
<path d="M124.56 85.7472C124.56 85.7472 124.56 85.8169 124.532 85.9537C124.503 86.0906 124.477 86.2946 124.436 86.558C124.351 87.0745 124.222 87.8699 124.038 88.8821C123.855 89.8944 123.615 91.1133 123.279 92.5233C122.915 94.1258 122.431 95.6985 121.831 97.2283C121.478 98.1218 121.001 98.9614 120.415 99.7229C119.762 100.538 118.963 101.225 118.06 101.75C117.089 102.308 116 102.629 114.881 102.687C113.694 102.726 112.513 102.503 111.421 102.034C110.277 101.547 109.218 100.88 108.286 100.056C107.319 99.198 106.428 98.258 105.624 97.2464C104.796 96.2255 103.977 95.171 103.168 94.083C102.359 92.995 101.535 91.8957 100.697 90.7853L94.4989 82.5218L94.4653 82.4779L94.5041 82.4366L101.993 74.736L102.029 74.6998L102.065 74.7282C102.582 75.1337 103.026 75.552 103.486 75.96L104.815 77.1634L107.282 79.4204L111.413 83.2294C112.748 84.1922 113.758 85.5388 114.308 87.09C114.388 87.327 114.45 87.5695 114.494 87.8156C114.535 87.9922 114.562 88.1719 114.574 88.3527C114.574 88.4948 114.592 88.611 114.597 88.6833C114.603 88.7556 114.597 88.7943 114.597 88.7943C114.597 88.7943 114.597 88.7582 114.582 88.6833C114.566 88.6084 114.564 88.4974 114.548 88.3553C114.533 88.1751 114.504 87.9964 114.461 87.8208C114.412 87.5774 114.347 87.3376 114.267 87.1029C114.039 86.4502 113.719 85.8336 113.317 85.272C113.066 84.914 112.786 84.5772 112.48 84.2649C112.139 83.9073 111.767 83.5814 111.367 83.2913L107.235 79.5004L104.766 77.2383L103.431 76.0375C102.977 75.6346 102.512 75.206 102.024 74.8186H102.096L94.6074 82.5295V82.4469L100.805 90.7104C101.642 91.8243 102.465 92.9235 103.276 94.0081C104.087 95.0927 104.904 96.1463 105.727 97.1689C106.531 98.1727 107.419 99.1057 108.382 99.9579C109.303 100.772 110.349 101.432 111.48 101.913C112.554 102.377 113.717 102.6 114.887 102.563C115.984 102.51 117.052 102.199 118.006 101.654C118.898 101.14 119.686 100.464 120.33 99.6609C120.913 98.9087 121.388 98.0786 121.74 97.1947C122.344 95.6712 122.833 94.1044 123.202 92.5078C123.545 91.1004 123.791 89.8763 123.977 88.877C124.162 87.8776 124.307 87.0951 124.4 86.5528C124.446 86.2946 124.483 86.0906 124.508 85.9512C124.534 85.8117 124.56 85.7472 124.56 85.7472Z" fill="#263238"/>
<path d="M114.497 59.3968C114.5 59.4173 114.5 59.4382 114.497 59.4587C114.497 59.5078 114.476 59.5646 114.463 59.6369C114.43 59.8048 114.381 60.032 114.321 60.3187C114.195 60.9074 114.017 61.7622 113.805 62.821C113.379 64.9359 112.842 67.8669 112.369 71.1232C111.896 74.3796 111.581 77.3467 111.39 79.4952C111.292 80.5695 111.22 81.4398 111.173 82.0414C111.15 82.3333 111.129 82.5579 111.117 82.7335C111.117 82.8058 111.104 82.8652 111.098 82.9143C111.1 82.9349 111.1 82.9556 111.098 82.9763C111.094 82.9558 111.094 82.9347 111.098 82.9143C111.098 82.8652 111.098 82.8058 111.098 82.7335C111.098 82.5631 111.117 82.3307 111.129 82.0389C111.16 81.4346 111.217 80.5643 111.302 79.4875C111.47 77.3364 111.772 74.3667 112.242 71.1052C112.712 67.8437 113.275 64.9075 113.72 62.8003C113.944 61.7441 114.135 60.8919 114.28 60.3058C114.35 60.0217 114.404 59.7893 114.445 59.6318L114.492 59.4562C114.489 59.4174 114.497 59.3968 114.497 59.3968Z" fill="#263238"/>
<path d="M118.154 74.9219C118.154 74.9219 118.081 74.8806 117.965 74.785C117.849 74.6895 117.686 74.5449 117.49 74.3641C116.979 73.8872 116.493 73.3847 116.033 72.8586C115.575 72.3343 115.144 71.787 114.742 71.2188C114.587 71.0019 114.466 70.8211 114.386 70.7023C114.339 70.6395 114.301 70.5698 114.275 70.4957C114.47 70.7089 114.652 70.934 114.82 71.1697C115.148 71.5906 115.607 72.1665 116.145 72.7785C116.682 73.3905 117.193 73.9225 117.567 74.3021C117.774 74.4974 117.97 74.7043 118.154 74.9219Z" fill="white"/>
<path d="M121.152 67.6138C120.802 68.3609 120.413 69.0893 119.987 69.7959C119.597 70.5257 119.166 71.2326 118.696 71.9135C119.045 71.1658 119.433 70.4374 119.86 69.7314C120.251 69.0021 120.682 68.2951 121.152 67.6138Z" fill="white"/>
<path d="M125.425 75.2318C125.392 75.2447 124.865 74.0749 124.253 72.6184C123.641 71.162 123.168 69.9664 123.202 69.9534C123.235 69.9405 123.762 71.1078 124.374 72.5668C124.986 74.0258 125.469 75.2163 125.425 75.2318Z" fill="white"/>
<path d="M95.4494 2.17432C96.9575 2.03746 98.4759 2.43256 99.8523 3.05749C103.264 4.6069 105.885 7.57661 107.62 10.8975C109.355 14.2184 110.28 17.8983 111.008 21.573C111.943 26.2722 112.583 31.0253 112.924 35.8044C113.028 37.2453 113.789 47.7168 113.957 49.8472L91.5811 4.2712C92.4461 3.02908 93.9413 2.31119 95.4494 2.17432Z" fill="#263238"/>
<path d="M103.254 10.8226L93.2753 6.8019L90.662 7.0937C84.7871 7.0937 80.7018 13.5496 80.6424 18.3063C80.5727 23.5924 80.6992 30.0509 81.5204 33.9528C83.1731 41.7954 89.283 42.4978 89.283 42.4978C89.283 42.4978 89.2133 44.6412 89.1487 47.2726C89.1223 48.3937 89.3232 49.5085 89.7394 50.5498C90.1555 51.5911 90.7782 52.5373 91.5699 53.3315C92.3616 54.1256 93.306 54.7512 94.346 55.1705C95.3861 55.5898 96.5003 55.7941 97.6214 55.7711C99.7876 55.728 101.851 54.8395 103.371 53.2955C104.891 51.7514 105.747 49.6742 105.756 47.5076L105.882 13.5264C105.863 12.8282 105.582 12.1629 105.095 11.6622C104.608 11.1615 103.951 10.8618 103.254 10.8226Z" fill="#D38176"/>
<path d="M83.1882 24.083C83.1983 24.3484 83.3123 24.5991 83.5055 24.7812C83.6987 24.9633 83.9557 25.0622 84.2212 25.0566C84.3507 25.0607 84.4798 25.0388 84.6007 24.9922C84.7216 24.9456 84.8319 24.8751 84.9251 24.7851C85.0183 24.695 85.0925 24.5871 85.1432 24.4679C85.194 24.3486 85.2203 24.2204 85.2205 24.0908C85.2104 23.8255 85.0965 23.5747 84.9033 23.3926C84.7101 23.2105 84.4531 23.1116 84.1876 23.1172C84.0581 23.1131 83.929 23.135 83.8081 23.1816C83.6872 23.2283 83.5769 23.2987 83.4837 23.3888C83.3905 23.4788 83.3163 23.5867 83.2656 23.706C83.2148 23.8252 83.1885 23.9534 83.1882 24.083Z" fill="#263238"/>
<path d="M82.2072 21.0049C82.3415 21.1314 83.08 20.5245 84.1724 20.4729C85.2647 20.4212 86.0911 20.9274 86.2021 20.7879C86.2563 20.726 86.1169 20.4936 85.7554 20.256C85.2671 19.9528 84.6971 19.8076 84.1233 19.8402C83.5571 19.8675 83.0143 20.0747 82.5739 20.4316C82.2459 20.7053 82.1426 20.9506 82.2072 21.0049Z" fill="#263238"/>
<path d="M89.3911 29.5473C89.3911 29.4853 88.7093 29.4027 87.6015 29.3175C87.3226 29.302 87.054 29.2606 86.9998 29.0721C86.9456 28.8836 87.0256 28.5557 87.1444 28.2355C87.3717 27.5485 87.6092 26.8281 87.8623 26.074C88.8539 22.9959 89.5589 20.4703 89.4324 20.4316C89.3059 20.3928 88.3994 22.8564 87.4104 25.9346L86.7287 28.1063C86.6383 28.4291 86.4704 28.7984 86.6383 29.209C86.6835 29.3052 86.75 29.3899 86.8327 29.4565C86.9155 29.5232 87.0124 29.5701 87.116 29.5938C87.2731 29.6262 87.4334 29.6401 87.5938 29.6351C88.7016 29.6403 89.3885 29.6067 89.3911 29.5473Z" fill="#263238"/>
<path d="M89.2853 42.4978C93.0116 42.3674 96.6286 41.2052 99.7335 39.1407C99.7335 39.1407 97.1873 44.7625 89.2336 44.4191L89.2853 42.4978Z" fill="#794742"/>
<path d="M89.9825 32.1555C90.1768 31.8831 90.4375 31.6649 90.7399 31.5216C91.0423 31.3783 91.3762 31.3147 91.7101 31.3368C91.952 31.3458 92.1895 31.4038 92.4083 31.5072C92.6271 31.6106 92.8227 31.7574 92.9832 31.9385C93.1373 32.1125 93.2345 32.3294 93.2617 32.5602C93.289 32.7911 93.2449 33.0247 93.1356 33.2297C92.8618 33.6584 92.2498 33.7849 91.723 33.6636C91.1978 33.5075 90.7088 33.2485 90.2846 32.9018C90.1582 32.8193 90.0472 32.7153 89.9567 32.5945C89.9139 32.5358 89.8893 32.4658 89.8861 32.3932C89.8829 32.3206 89.9012 32.2487 89.9386 32.1864" fill="#794742"/>
<path d="M92.6295 30.1412C92.4513 30.1412 92.5081 31.3239 91.5371 32.2071C90.5662 33.0903 89.2982 33.0335 89.2957 33.1987C89.2957 33.2736 89.59 33.4157 90.122 33.4027C90.8168 33.3782 91.4807 33.1093 91.9968 32.6435C92.4901 32.1951 92.7908 31.5733 92.8361 30.9082C92.8671 30.4175 92.7199 30.1232 92.6295 30.1412Z" fill="#263238"/>
<path d="M82.8837 17.9551C83.0877 18.1927 83.8263 17.8983 84.7301 17.8415C85.6339 17.7847 86.4086 17.9241 86.5713 17.6555C86.641 17.5264 86.5093 17.2837 86.1633 17.0668C85.6997 16.8083 85.1698 16.6931 84.6407 16.7359C84.1116 16.7786 83.6071 16.9774 83.191 17.3069C82.8837 17.5781 82.7933 17.8389 82.8837 17.9551Z" fill="#263238"/>
<path d="M95.4156 24.0185C95.4206 24.2824 95.3226 24.538 95.1422 24.7308C94.9619 24.9237 94.7135 25.0387 94.4498 25.0514C94.3209 25.0631 94.1909 25.0489 94.0675 25.0097C93.9441 24.9705 93.8297 24.9071 93.7312 24.8231C93.6326 24.7392 93.5517 24.6365 93.4933 24.5209C93.4349 24.4054 93.4001 24.2793 93.3911 24.1502C93.386 23.8862 93.4841 23.6306 93.6644 23.4378C93.8447 23.2449 94.0931 23.1299 94.3569 23.1172C94.4858 23.1056 94.6158 23.1198 94.7392 23.1589C94.8626 23.1981 94.9769 23.2616 95.0755 23.3455C95.1741 23.4294 95.255 23.5321 95.3134 23.6477C95.3718 23.7633 95.4065 23.8893 95.4156 24.0185Z" fill="#263238"/>
<path d="M97.2776 20.8783C97.1536 21.0126 96.3763 20.4522 95.284 20.4703C94.1917 20.4884 93.3989 21.0436 93.2775 20.9093C93.2181 20.8525 93.3447 20.6098 93.6907 20.3515C94.1595 20.0188 94.7194 19.8385 95.2943 19.8351C95.8624 19.826 96.4186 19.9978 96.8825 20.3257C97.2337 20.5684 97.3499 20.8267 97.2776 20.8783Z" fill="#263238"/>
<path d="M96.8129 17.4128C96.6244 17.671 95.8678 17.4128 94.9614 17.4128C94.055 17.4128 93.2932 17.6013 93.1124 17.3431C93.0349 17.2191 93.1511 16.9686 93.4843 16.7285C93.931 16.4423 94.4525 16.2949 94.9829 16.305C95.5133 16.3151 96.0289 16.4823 96.4643 16.7853C96.7871 17.0384 96.8956 17.2914 96.8129 17.4128Z" fill="#263238"/>
<path d="M94.4371 5.96006C96.9626 4.92711 100.828 5.28606 102.998 6.9336C105.167 8.58115 106.52 11.1583 107.016 13.8362C107.512 16.5141 106.848 20.4832 106.14 23.1147C102.05 17.8466 97.8406 11.7704 93.8948 6.39389L94.4371 5.96006Z" fill="#263238"/>
<path d="M92.4925 3.56619C78.633 1.61392 79.9449 19.3341 79.9449 19.3341C85.9876 15.0189 92.0484 6.77089 92.0484 6.77089L94.233 6.40161L92.4925 3.56619Z" fill="#263238"/>
<path d="M104.307 26.8797C104.278 26.2909 104.888 24.8681 105.466 24.7493C107.016 24.4291 109.812 24.4136 110.037 28.3646C110.342 33.7565 104.872 32.9508 104.849 32.7959C104.826 32.641 104.402 28.912 104.307 26.8797Z" fill="#D38176"/>
<path d="M106.381 30.6396C106.404 30.6216 106.479 30.7016 106.639 30.7636C106.867 30.8472 107.119 30.8389 107.341 30.7403C107.899 30.4976 108.325 29.568 108.297 28.5944C108.285 28.1314 108.169 27.6769 107.958 27.2645C107.77 26.8797 107.501 26.6189 107.212 26.5853C107.103 26.562 106.989 26.5779 106.89 26.6304C106.791 26.6828 106.714 26.7683 106.672 26.872C106.608 27.0269 106.649 27.1302 106.621 27.1431C106.592 27.156 106.499 27.0605 106.53 26.8358C106.553 26.7 106.621 26.576 106.724 26.4846C106.868 26.3634 107.053 26.3039 107.24 26.3193C107.656 26.3193 108.051 26.686 108.273 27.0941C108.529 27.5472 108.67 28.0561 108.684 28.5763C108.71 29.6661 108.211 30.7145 107.447 30.9831C107.305 31.0354 107.152 31.0549 107.001 31.0402C106.85 31.0254 106.704 30.9768 106.574 30.8979C106.396 30.7817 106.362 30.6629 106.381 30.6396Z" fill="#794742"/>
<path d="M91.2917 6.40163C91.9588 6.2942 92.6424 6.3664 93.2724 6.6108C93.7039 6.75864 94.1249 6.9355 94.5326 7.14018L94.8631 7.30545C94.9638 7.3571 95.1213 7.45523 95.2505 7.53528C95.5099 7.71322 95.7559 7.91001 95.9864 8.12406C96.4479 8.55457 96.8793 9.01617 97.2776 9.50562L97.8793 10.2209C97.9774 10.3371 98.0781 10.4508 98.1763 10.5566L98.5094 10.9156C99.4184 11.902 100.449 12.9686 101.541 14.2003C102.759 15.5363 103.84 16.9915 104.766 18.5439C105.279 19.4238 105.719 20.3445 106.081 21.2967C106.433 22.2753 106.727 23.2738 106.961 24.287C107.437 26.3788 107.702 28.5131 107.752 30.6577C107.784 31.9354 107.746 33.2139 107.638 34.4873C109.579 36.1675 111.159 38.2237 112.283 40.5317C113.407 42.8397 114.051 45.3516 114.177 47.9156C114.386 49.292 113.603 50.9602 112.49 51.9854C112.291 52.2545 112.071 52.5075 111.832 52.742C111.265 53.3199 110.595 53.7868 109.856 54.1184C109.334 54.3472 108.777 54.4843 108.209 54.5238C107.493 54.5774 106.775 54.4421 106.127 54.1313C105.428 53.7745 104.826 53.2524 104.374 52.6103C103.936 51.9932 103.588 51.3167 103.341 50.6012C102.802 49.111 102.531 47.5376 102.538 45.953C102.552 44.2823 102.703 42.6155 102.987 40.9691C103.245 39.2957 103.56 37.643 103.739 35.9644C103.934 34.2355 104.009 32.4952 103.966 30.7558C103.923 28.8473 103.712 26.9463 103.336 25.0746C103.159 24.203 102.938 23.3411 102.672 22.4923C102.41 21.7071 102.088 20.9431 101.709 20.2069C100.948 18.7933 100.071 17.4458 99.0853 16.1784C98.1504 14.9234 97.2208 13.7355 96.4125 12.6044L96.1104 12.1784C96.0019 12.0234 95.9038 11.8736 95.8108 11.729C95.6223 11.4372 95.4596 11.1661 95.2944 10.9078C94.9819 10.3914 94.7004 9.94204 94.4215 9.57018C94.2958 9.40072 94.1604 9.23863 94.0161 9.0847C93.9412 9.01497 93.9025 8.96591 93.8018 8.88327L93.5435 8.66377C93.1975 8.37713 92.8902 8.1473 92.6061 7.93038C92.1836 7.61805 91.725 7.35793 91.2401 7.15568C90.9018 7.01881 90.6745 6.94651 90.6487 6.81222C90.6229 6.67794 90.8217 6.5075 91.2917 6.40163Z" fill="#263238"/>
<path d="M126.066 54.9732C125.033 53.4883 123.716 52.0112 121.991 51.3243C120.057 50.5496 116.886 51.5825 115.019 52.5199C113.151 53.4573 111.277 54.5858 109.193 54.6065C108.282 54.6459 107.386 54.3573 106.67 53.793C105.985 53.2043 105.611 52.2152 105.895 51.3605C106.29 50.2061 107.625 49.7336 108.588 48.9847C110.076 47.8355 110.747 45.922 111.093 44.0782C111.439 42.2344 111.54 40.3157 112.227 38.5649C114.197 39.8044 112.862 43.3577 114.626 44.8813C115.566 45.6948 116.95 45.5424 118.195 45.6973C120.116 45.9375 123.07 47.2261 124.106 48.8607C125.141 50.4954 126.833 52.8479 126.053 54.9783" fill="#263238"/>
<path d="M104.304 29.6351C104.304 36.5791 102.352 44.1557 102.768 48.4682C103.184 52.7808 103.214 55.154 103.302 59.4846C103.382 63.6104 102.493 67.6974 100.707 71.4176C103.674 70.6662 106.835 69.8011 108.844 67.4925C111.096 64.9101 111.323 61.1967 111.741 57.7905C112.16 54.3844 114.215 52.3392 117.257 51.6161L104.304 29.6351Z" fill="#263238"/>
</g>
<g filter="url(#filter0_b_206:36916)">
<rect x="13" y="77" width="141" height="77" rx="10" fill="black" fill-opacity="0.8"/>
</g>
<path d="M48.3993 103.496L48.3573 105.932L49.6173 105.946L51.1433 105.904L51.2693 106.044L51.1293 107.458L49.4633 107.416L48.3293 107.43L48.3153 108.144L48.3993 111H46.4953L46.5933 108.312L46.4953 101.984H51.8573L51.9693 102.138L51.8293 103.566L49.6873 103.482L48.3993 103.496ZM54.8486 104.364C55.5673 104.364 56.1273 104.527 56.5286 104.854C56.9393 105.171 57.1446 105.619 57.1446 106.198C57.1446 106.366 57.1166 106.898 57.0606 107.794C57.0513 108.055 57.0373 108.326 57.0186 108.606C57 108.877 56.9906 109.11 56.9906 109.306C56.9906 109.465 57.014 109.577 57.0606 109.642C57.1073 109.698 57.1913 109.726 57.3126 109.726C57.406 109.726 57.5273 109.707 57.6766 109.67L57.8166 109.782L57.6486 110.762C57.35 110.958 57.0093 111.075 56.6266 111.112C56.3466 111.084 56.1133 110.986 55.9266 110.818C55.74 110.641 55.614 110.398 55.5486 110.09H55.4506C54.984 110.585 54.5033 110.93 54.0086 111.126C53.3366 111.117 52.8093 110.939 52.4266 110.594C52.044 110.249 51.8526 109.777 51.8526 109.18C51.8526 108.713 51.9693 108.349 52.2026 108.088C52.4453 107.817 52.8093 107.635 53.2946 107.542L55.4366 107.136V106.562C55.4366 105.955 55.138 105.652 54.5406 105.652C54.2513 105.652 53.9433 105.717 53.6166 105.848C53.2993 105.979 52.94 106.184 52.5386 106.464L52.3986 106.38L52.1886 105.148C52.59 104.896 53.0193 104.705 53.4766 104.574C53.934 104.434 54.3913 104.364 54.8486 104.364ZM53.9386 108.396C53.7893 108.433 53.6773 108.499 53.6026 108.592C53.5373 108.676 53.5046 108.807 53.5046 108.984C53.5046 109.227 53.57 109.418 53.7006 109.558C53.8313 109.689 54.0133 109.754 54.2466 109.754C54.6106 109.754 54.9933 109.539 55.3946 109.11L55.4226 108.074L53.9386 108.396ZM61.7009 104.364C62.0089 104.364 62.3122 104.397 62.6109 104.462C62.9189 104.518 63.1895 104.602 63.4229 104.714L63.1149 106.198L62.9609 106.268C62.4849 106.007 62.0602 105.876 61.6869 105.876C61.2575 105.876 60.9262 106.03 60.6929 106.338C60.4595 106.646 60.3429 107.085 60.3429 107.654C60.3429 108.307 60.4689 108.807 60.7209 109.152C60.9729 109.497 61.3322 109.67 61.7989 109.67C62.2189 109.67 62.6855 109.553 63.1989 109.32L63.3389 109.432L63.1569 110.874C62.5969 111.051 62.0229 111.14 61.4349 111.14C60.5389 111.14 59.8389 110.851 59.3349 110.272C58.8309 109.684 58.5789 108.867 58.5789 107.822C58.5789 106.739 58.8542 105.895 59.4049 105.288C59.9555 104.672 60.7209 104.364 61.7009 104.364ZM61.6869 111.672L62.1629 111.938C62.3682 112.05 62.5129 112.171 62.5969 112.302C62.6902 112.442 62.7369 112.596 62.7369 112.764C62.7369 113.072 62.6155 113.324 62.3729 113.52C62.1302 113.716 61.8129 113.814 61.4209 113.814C61.0009 113.814 60.6182 113.683 60.2729 113.422L60.3989 112.638L60.4829 112.596C60.7629 112.876 61.0382 113.016 61.3089 113.016C61.5329 113.016 61.6449 112.918 61.6449 112.722C61.6449 112.657 61.6262 112.601 61.5889 112.554C61.5515 112.517 61.4909 112.479 61.4069 112.442L60.7209 112.05L61.0429 110.636H61.9389L61.6869 111.672ZM66.8389 104.364C67.5575 104.364 68.1175 104.527 68.5189 104.854C68.9295 105.171 69.1349 105.619 69.1349 106.198C69.1349 106.366 69.1069 106.898 69.0509 107.794C69.0415 108.055 69.0275 108.326 69.0089 108.606C68.9902 108.877 68.9809 109.11 68.9809 109.306C68.9809 109.465 69.0042 109.577 69.0509 109.642C69.0975 109.698 69.1815 109.726 69.3029 109.726C69.3962 109.726 69.5175 109.707 69.6669 109.67L69.8069 109.782L69.6389 110.762C69.3402 110.958 68.9995 111.075 68.6169 111.112C68.3369 111.084 68.1035 110.986 67.9169 110.818C67.7302 110.641 67.6042 110.398 67.5389 110.09H67.4409C66.9742 110.585 66.4935 110.93 65.9989 111.126C65.3269 111.117 64.7995 110.939 64.4169 110.594C64.0342 110.249 63.8429 109.777 63.8429 109.18C63.8429 108.713 63.9595 108.349 64.1929 108.088C64.4355 107.817 64.7995 107.635 65.2849 107.542L67.4269 107.136V106.562C67.4269 105.955 67.1282 105.652 66.5309 105.652C66.2415 105.652 65.9335 105.717 65.6069 105.848C65.2895 105.979 64.9302 106.184 64.5289 106.464L64.3889 106.38L64.1789 105.148C64.5802 104.896 65.0095 104.705 65.4669 104.574C65.9242 104.434 66.3815 104.364 66.8389 104.364ZM65.9289 108.396C65.7795 108.433 65.6675 108.499 65.5929 108.592C65.5275 108.676 65.4949 108.807 65.4949 108.984C65.4949 109.227 65.5602 109.418 65.6909 109.558C65.8215 109.689 66.0035 109.754 66.2369 109.754C66.6009 109.754 66.9835 109.539 67.3849 109.11L67.4129 108.074L65.9289 108.396ZM75.7682 109.628C76.0669 109.628 76.3796 109.549 76.7062 109.39L76.8602 109.53L76.6782 110.636C76.2022 110.879 75.7169 111.028 75.2222 111.084C73.9622 110.953 73.3322 110.337 73.3322 109.236L73.4022 108.074L73.3882 105.666H72.5202L72.4502 105.568L72.5482 104.546H73.3742V103.468L75.0682 102.922L75.1942 103.034L75.1522 104.546H76.8182L76.8742 104.644L76.7902 105.666H75.1242L75.0402 108.802C75.0402 109.101 75.0962 109.315 75.2082 109.446C75.3202 109.567 75.5069 109.628 75.7682 109.628ZM82.811 107.976L79.031 108.004C79.115 109.171 79.7077 109.754 80.809 109.754C81.3877 109.754 82.0317 109.591 82.741 109.264L82.895 109.362L82.615 110.748C81.9057 111.009 81.2383 111.14 80.613 111.14C79.5863 111.14 78.779 110.841 78.191 110.244C77.6123 109.647 77.323 108.821 77.323 107.766C77.323 106.721 77.6077 105.895 78.177 105.288C78.7463 104.672 79.5163 104.364 80.487 104.364C81.3177 104.364 81.957 104.593 82.405 105.05C82.8623 105.498 83.091 106.128 83.091 106.94C83.091 107.155 83.0677 107.425 83.021 107.752L82.811 107.976ZM81.467 106.73C81.467 106.357 81.383 106.077 81.215 105.89C81.047 105.694 80.7997 105.596 80.473 105.596C80.109 105.596 79.8057 105.717 79.563 105.96C79.3203 106.193 79.157 106.534 79.073 106.982L81.439 106.926L81.467 106.73ZM86.5585 104.378C87.1932 104.378 87.7905 104.485 88.3505 104.7L88.0985 106.072L87.8745 106.142C87.6038 105.965 87.3332 105.829 87.0625 105.736C86.7918 105.643 86.5538 105.596 86.3485 105.596C86.1245 105.596 85.9472 105.657 85.8165 105.778C85.6858 105.89 85.6205 106.03 85.6205 106.198C85.6205 106.394 85.7045 106.553 85.8725 106.674C86.0498 106.795 86.3252 106.931 86.6985 107.08C87.0718 107.229 87.3798 107.374 87.6225 107.514C87.8652 107.654 88.0705 107.85 88.2385 108.102C88.4158 108.345 88.5045 108.648 88.5045 109.012C88.5045 109.385 88.4065 109.735 88.2105 110.062C88.0238 110.379 87.7345 110.641 87.3425 110.846C86.9505 111.042 86.4698 111.14 85.9005 111.14C85.2285 111.14 84.5332 111 83.8145 110.72L84.0245 109.264L84.2065 109.152C84.4958 109.395 84.8178 109.591 85.1725 109.74C85.5272 109.88 85.8398 109.95 86.1105 109.95C86.3625 109.95 86.5585 109.889 86.6985 109.768C86.8385 109.637 86.9085 109.483 86.9085 109.306C86.9085 109.11 86.8198 108.951 86.6425 108.83C86.4745 108.709 86.2038 108.573 85.8305 108.424C85.4478 108.256 85.1352 108.107 84.8925 107.976C84.6498 107.836 84.4398 107.64 84.2625 107.388C84.0945 107.136 84.0105 106.823 84.0105 106.45C84.0105 105.843 84.2392 105.349 84.6965 104.966C85.1538 104.574 85.7745 104.378 86.5585 104.378ZM92.3796 109.628C92.6782 109.628 92.9909 109.549 93.3176 109.39L93.4716 109.53L93.2896 110.636C92.8136 110.879 92.3282 111.028 91.8336 111.084C90.5736 110.953 89.9436 110.337 89.9436 109.236L90.0136 108.074L89.9996 105.666H89.1316L89.0616 105.568L89.1596 104.546H89.9856V103.468L91.6796 102.922L91.8056 103.034L91.7636 104.546H93.4296L93.4856 104.644L93.4016 105.666H91.7356L91.6516 108.802C91.6516 109.101 91.7076 109.315 91.8196 109.446C91.9316 109.567 92.1182 109.628 92.3796 109.628ZM99.4223 107.976L95.6423 108.004C95.7263 109.171 96.319 109.754 97.4203 109.754C97.999 109.754 98.643 109.591 99.3523 109.264L99.5063 109.362L99.2263 110.748C98.517 111.009 97.8497 111.14 97.2243 111.14C96.1977 111.14 95.3903 110.841 94.8023 110.244C94.2237 109.647 93.9343 108.821 93.9343 107.766C93.9343 106.721 94.219 105.895 94.7883 105.288C95.3577 104.672 96.1277 104.364 97.0983 104.364C97.929 104.364 98.5683 104.593 99.0163 105.05C99.4737 105.498 99.7023 106.128 99.7023 106.94C99.7023 107.155 99.679 107.425 99.6323 107.752L99.4223 107.976ZM98.0783 106.73C98.0783 106.357 97.9943 106.077 97.8263 105.89C97.6583 105.694 97.411 105.596 97.0843 105.596C96.7203 105.596 96.417 105.717 96.1743 105.96C95.9317 106.193 95.7683 106.534 95.6843 106.982L98.0503 106.926L98.0783 106.73ZM103.17 104.378C103.805 104.378 104.402 104.485 104.962 104.7L104.71 106.072L104.486 106.142C104.215 105.965 103.945 105.829 103.674 105.736C103.403 105.643 103.165 105.596 102.96 105.596C102.736 105.596 102.559 105.657 102.428 105.778C102.297 105.89 102.232 106.03 102.232 106.198C102.232 106.394 102.316 106.553 102.484 106.674C102.661 106.795 102.937 106.931 103.31 107.08C103.683 107.229 103.991 107.374 104.234 107.514C104.477 107.654 104.682 107.85 104.85 108.102C105.027 108.345 105.116 108.648 105.116 109.012C105.116 109.385 105.018 109.735 104.822 110.062C104.635 110.379 104.346 110.641 103.954 110.846C103.562 111.042 103.081 111.14 102.512 111.14C101.84 111.14 101.145 111 100.426 110.72L100.636 109.264L100.818 109.152C101.107 109.395 101.429 109.591 101.784 109.74C102.139 109.88 102.451 109.95 102.722 109.95C102.974 109.95 103.17 109.889 103.31 109.768C103.45 109.637 103.52 109.483 103.52 109.306C103.52 109.11 103.431 108.951 103.254 108.83C103.086 108.709 102.815 108.573 102.442 108.424C102.059 108.256 101.747 108.107 101.504 107.976C101.261 107.836 101.051 107.64 100.874 107.388C100.706 107.136 100.622 106.823 100.622 106.45C100.622 105.843 100.851 105.349 101.308 104.966C101.765 104.574 102.386 104.378 103.17 104.378ZM113.91 108.13L113.952 109.306C113.952 109.465 113.971 109.577 114.008 109.642C114.055 109.698 114.134 109.726 114.246 109.726C114.349 109.726 114.475 109.707 114.624 109.67L114.75 109.782L114.596 110.762C114.279 110.958 113.933 111.075 113.56 111.112C113.271 111.084 113.028 110.986 112.832 110.818C112.636 110.65 112.501 110.421 112.426 110.132H112.314C111.857 110.552 111.39 110.874 110.914 111.098C109.999 111.098 109.29 110.809 108.786 110.23C108.282 109.642 108.03 108.83 108.03 107.794C108.03 106.693 108.319 105.848 108.898 105.26C109.477 104.672 110.279 104.378 111.306 104.378C111.577 104.378 111.875 104.406 112.202 104.462L112.174 101.312L114.022 101.172L113.91 108.13ZM111.18 105.638C110.247 105.638 109.78 106.231 109.78 107.416C109.78 108.153 109.892 108.709 110.116 109.082C110.34 109.455 110.667 109.642 111.096 109.642C111.507 109.642 111.885 109.451 112.23 109.068L112.258 108.298L112.216 105.89C111.852 105.722 111.507 105.638 111.18 105.638ZM120.887 107.976L117.107 108.004C117.191 109.171 117.784 109.754 118.885 109.754C119.464 109.754 120.108 109.591 120.817 109.264L120.971 109.362L120.691 110.748C119.982 111.009 119.314 111.14 118.689 111.14C117.662 111.14 116.855 110.841 116.267 110.244C115.688 109.647 115.399 108.821 115.399 107.766C115.399 106.721 115.684 105.895 116.253 105.288C116.822 104.672 117.592 104.364 118.563 104.364C119.394 104.364 120.033 104.593 120.481 105.05C120.938 105.498 121.167 106.128 121.167 106.94C121.167 107.155 121.144 107.425 121.097 107.752L120.887 107.976ZM119.543 106.73C119.543 106.357 119.459 106.077 119.291 105.89C119.123 105.694 118.876 105.596 118.549 105.596C118.185 105.596 117.882 105.717 117.639 105.96C117.396 106.193 117.233 106.534 117.149 106.982L119.515 106.926L119.543 106.73ZM63.9798 117.872C64.9598 117.872 65.8418 118.054 66.6258 118.418L66.2198 120.126L66.0378 120.154C65.5805 119.893 65.1698 119.706 64.8058 119.594C64.4511 119.473 64.0685 119.412 63.6578 119.412C62.8271 119.412 62.2205 119.659 61.8378 120.154C61.4551 120.649 61.2638 121.461 61.2638 122.59C61.2638 123.337 61.3431 123.929 61.5018 124.368C61.6698 124.807 61.9265 125.129 62.2718 125.334C62.6171 125.53 63.0745 125.628 63.6438 125.628C63.8398 125.628 64.0218 125.614 64.1898 125.586C64.3671 125.558 64.5818 125.507 64.8338 125.432L64.8618 124.662L64.8338 123.234L66.5838 123.108L66.5418 124.368L66.5838 126.566C65.4638 126.939 64.4325 127.126 63.4898 127.126C62.0898 127.126 61.0351 126.743 60.3258 125.978C59.6258 125.213 59.2758 124.116 59.2758 122.688C59.2758 121.129 59.6818 119.939 60.4938 119.118C61.3151 118.287 62.4771 117.872 63.9798 117.872ZM69.7883 124.13L69.8863 127H68.0243L68.1223 124.298L68.0383 117.312L69.9003 117.172L69.7883 124.13ZM71.772 124.312L71.702 120.616L73.536 120.462L73.452 124.13L73.536 127H71.674L71.772 124.312ZM72.654 117.298C72.9433 117.298 73.1673 117.382 73.326 117.55C73.494 117.718 73.578 117.951 73.578 118.25C73.578 118.567 73.4893 118.819 73.312 119.006C73.1347 119.193 72.892 119.286 72.584 119.286C72.276 119.286 72.038 119.202 71.87 119.034C71.7113 118.866 71.632 118.628 71.632 118.32C71.632 118.012 71.7207 117.765 71.898 117.578C72.0847 117.391 72.3367 117.298 72.654 117.298ZM77.9704 120.364C78.2784 120.364 78.5817 120.397 78.8804 120.462C79.1884 120.518 79.459 120.602 79.6924 120.714L79.3844 122.198L79.2304 122.268C78.7544 122.007 78.3297 121.876 77.9564 121.876C77.527 121.876 77.1957 122.03 76.9624 122.338C76.729 122.646 76.6124 123.085 76.6124 123.654C76.6124 124.307 76.7384 124.807 76.9904 125.152C77.2424 125.497 77.6017 125.67 78.0684 125.67C78.4884 125.67 78.955 125.553 79.4684 125.32L79.6084 125.432L79.4264 126.874C78.8664 127.051 78.2924 127.14 77.7044 127.14C76.8084 127.14 76.1084 126.851 75.6044 126.272C75.1004 125.684 74.8484 124.867 74.8484 123.822C74.8484 122.739 75.1237 121.895 75.6744 121.288C76.225 120.672 76.9904 120.364 77.9704 120.364ZM85.7231 123.976L81.9431 124.004C82.0271 125.171 82.6198 125.754 83.7211 125.754C84.2998 125.754 84.9438 125.591 85.6531 125.264L85.8071 125.362L85.5271 126.748C84.8178 127.009 84.1504 127.14 83.5251 127.14C82.4984 127.14 81.6911 126.841 81.1031 126.244C80.5244 125.647 80.2351 124.821 80.2351 123.766C80.2351 122.721 80.5198 121.895 81.0891 121.288C81.6584 120.672 82.4284 120.364 83.3991 120.364C84.2298 120.364 84.8691 120.593 85.3171 121.05C85.7744 121.498 86.0031 122.128 86.0031 122.94C86.0031 123.155 85.9798 123.425 85.9331 123.752L85.7231 123.976ZM84.3791 122.73C84.3791 122.357 84.2951 122.077 84.1271 121.89C83.9591 121.694 83.7118 121.596 83.3851 121.596C83.0211 121.596 82.7178 121.717 82.4751 121.96C82.2324 122.193 82.0691 122.534 81.9851 122.982L84.3511 122.926L84.3791 122.73ZM95.0846 127L95.1966 122.94C95.1966 122.249 94.9026 121.904 94.3146 121.904C93.8946 121.904 93.456 122.091 92.9986 122.464L92.9566 124.144L93.0406 127H91.1786L91.2906 122.94C91.3 122.604 91.2253 122.347 91.0666 122.17C90.9173 121.993 90.698 121.904 90.4086 121.904C89.998 121.904 89.5453 122.1 89.0506 122.492V124.13L89.1346 127H87.2866L87.3846 124.312L87.3146 120.616L89.0646 120.462V121.414H89.1626C89.676 120.947 90.2406 120.611 90.8566 120.406C91.902 120.406 92.5693 120.756 92.8586 121.456H92.9426C93.4746 120.961 94.0813 120.611 94.7626 120.406C95.472 120.406 96.0086 120.569 96.3726 120.896C96.746 121.213 96.9233 121.675 96.9046 122.282L96.8626 124.144L96.9466 127H95.0846ZM98.7056 124.312L98.6356 120.616L100.47 120.462L100.386 124.13L100.47 127H98.6076L98.7056 124.312ZM99.5876 117.298C99.8769 117.298 100.101 117.382 100.26 117.55C100.428 117.718 100.512 117.951 100.512 118.25C100.512 118.567 100.423 118.819 100.246 119.006C100.068 119.193 99.8256 119.286 99.5176 119.286C99.2096 119.286 98.9716 119.202 98.8036 119.034C98.6449 118.866 98.5656 118.628 98.5656 118.32C98.5656 118.012 98.6543 117.765 98.8316 117.578C99.0183 117.391 99.2703 117.298 99.5876 117.298ZM104.792 120.364C105.511 120.364 106.071 120.527 106.472 120.854C106.883 121.171 107.088 121.619 107.088 122.198C107.088 122.366 107.06 122.898 107.004 123.794C106.995 124.055 106.981 124.326 106.962 124.606C106.943 124.877 106.934 125.11 106.934 125.306C106.934 125.465 106.957 125.577 107.004 125.642C107.051 125.698 107.135 125.726 107.256 125.726C107.349 125.726 107.471 125.707 107.62 125.67L107.76 125.782L107.592 126.762C107.293 126.958 106.953 127.075 106.57 127.112C106.29 127.084 106.057 126.986 105.87 126.818C105.683 126.641 105.557 126.398 105.492 126.09H105.394C104.927 126.585 104.447 126.93 103.952 127.126C103.28 127.117 102.753 126.939 102.37 126.594C101.987 126.249 101.796 125.777 101.796 125.18C101.796 124.713 101.913 124.349 102.146 124.088C102.389 123.817 102.753 123.635 103.238 123.542L105.38 123.136V122.562C105.38 121.955 105.081 121.652 104.484 121.652C104.195 121.652 103.887 121.717 103.56 121.848C103.243 121.979 102.883 122.184 102.482 122.464L102.342 122.38L102.132 121.148C102.533 120.896 102.963 120.705 103.42 120.574C103.877 120.434 104.335 120.364 104.792 120.364ZM103.882 124.396C103.733 124.433 103.621 124.499 103.546 124.592C103.481 124.676 103.448 124.807 103.448 124.984C103.448 125.227 103.513 125.418 103.644 125.558C103.775 125.689 103.957 125.754 104.19 125.754C104.554 125.754 104.937 125.539 105.338 125.11L105.366 124.074L103.882 124.396Z" fill="white"/>
<defs>
<filter id="filter0_b_206:36916" x="3" y="67" width="161" height="97" filterUnits="userSpaceOnUse" color-interpolation-filters="sRGB">
<feFlood flood-opacity="0" result="BackgroundImageFix"/>
<feGaussianBlur in="BackgroundImage" stdDeviation="5"/>
<feComposite in2="SourceAlpha" operator="in" result="effect1_backgroundBlur_206:36916"/>
<feBlend mode="normal" in="SourceGraphic" in2="effect1_backgroundBlur_206:36916" result="shape"/>
</filter>
</defs>
</svg>
