<svg width="167" height="167" viewBox="0 0 167 167" fill="none" xmlns="http://www.w3.org/2000/svg">
<mask id="mask0_206:36972" style="mask-type:alpha" maskUnits="userSpaceOnUse" x="0" y="0" width="167" height="167">
<rect x="1" y="1" width="165" height="165" rx="8" fill="#5988D6" stroke="#EDE6FC" stroke-opacity="0.3"/>
</mask>
<g mask="url(#mask0_206:36972)">
<rect x="1" y="1" width="165" height="165" rx="8" fill="#FAE28B" stroke="#EDE6FC" stroke-opacity="0.3"/>
<path d="M111.486 146.989C109.881 147.394 104.715 136.007 104.715 136.007C104.715 136.007 101.799 134.521 97.6683 132.272C95.7321 131.221 93.5315 130 91.2345 128.694C82.8164 123.859 73.1958 117.863 70.965 114.309C70.4728 113.539 70.1589 112.667 70.0465 111.758C69.9341 110.849 70.0261 109.926 70.3156 109.057C71.7166 104.313 77.5311 100.312 77.5311 100.312L79.4673 99L82.6781 102.161L89.581 108.961L87.5426 110.574L85.7387 111.976C91.6434 114.998 94.3432 119.749 97.0009 122.801C97.3797 123.236 97.7645 123.654 98.1553 124.065C102.166 128.295 106.712 131.233 109.412 132.073C110.039 132.267 110.586 132.662 110.97 133.198C111.353 133.733 111.551 134.381 111.534 135.04C111.509 135.938 111.32 136.823 110.975 137.651C110.368 139.005 113.091 146.578 111.486 146.989Z" fill="#FFA6A6"/>
<path d="M97.3771 129.51C97.4618 130.746 97.5464 131.981 97.5102 133C95.5629 131.925 93.3495 130.678 91.0393 129.344C90.483 127.843 89.8661 126.015 89.1827 123.785C87.1992 122.395 77.9404 115.861 70 109.277C71.4091 104.429 77.257 100.34 77.257 100.34L79.2043 99L82.4337 102.23C82.857 103.052 83.2138 103.861 83.5646 104.645C84.0286 105.782 84.5828 106.879 85.2216 107.925C85.899 108.956 86.6065 109.926 87.3262 110.827L85.5119 112.26C91.4506 115.348 94.1659 120.203 96.8389 123.322C97.2199 123.767 97.6069 124.193 98 124.613C97.8111 125.124 97.5806 125.617 97.3106 126.089C97.2252 127.229 97.2474 128.375 97.3771 129.51Z" fill="#FF6767"/>
<path d="M109.448 71.7426L111.953 71C111.953 71 117.274 83.5029 103.923 97.2841L89.2123 110C89.2123 110 80.865 107.249 77 99.4024L82.9504 93.364L109.448 71.7426Z" fill="#FF7F00"/>
<path d="M73 60.8887C73 60.8887 75.4629 73.196 75.0172 82L81 79.4654L78.9257 60.9436L77 59L73 60.8887Z" fill="#FF6767"/>
<path d="M90.4811 127C89.0708 127.165 85.904 116.99 85.904 116.99C85.904 116.99 62.3267 101.044 59.5009 95.0056C56.6752 88.9668 66.5989 83.9002 66.5989 83.9002L68.3915 83L73.7899 91.6879V95.0056C77.3648 97.4489 88.4044 113.482 90.76 114.346C91.152 114.494 91.4851 114.764 91.7088 115.117C91.9325 115.469 92.0347 115.885 91.9999 116.301C91.8946 117.276 91.5792 118.216 91.0751 119.058C90.3984 120.133 91.8914 126.83 90.4811 127Z" fill="#FFA6A6"/>
<path d="M83 106C81.8259 103.923 80.4141 101.973 78.7897 100.183C75.7578 96.757 68.5156 94.7362 68.5156 94.7362L70.0316 94.3356C66.6366 90.0548 67.0123 84.0463 67.0123 84.0463L69.2226 83L75.8788 93.1219V96.9782C80.2738 99.7941 81.5796 103.106 83 106Z" fill="#FF6767"/>
<path d="M77.3819 76.4797L84.291 72.8085L111.872 71C111.872 71 118.026 86.1129 101.582 91.5745C86.3076 96.2947 75.7003 97 75.7003 97C75.7003 97 69.9732 95.9511 67 83.0385L77.3819 76.4797Z" fill="#D9917A"/>
<path d="M106.879 47.3378C107.117 37.5825 105.974 27.8426 103.486 18.4074C103.697 18.2499 103.891 18.0704 104.064 17.8718C104.161 17.7544 104.233 17.6187 104.277 17.4729C104.321 17.3271 104.335 17.174 104.319 17.0226C104.303 16.8712 104.256 16.7245 104.183 16.5912C104.109 16.4579 104.01 16.3406 103.891 16.2463C103.771 16.1519 103.634 16.0823 103.488 16.0416C103.341 16.0009 103.188 15.9899 103.037 16.0093C102.886 16.0286 102.74 16.0779 102.609 16.1542C102.477 16.2306 102.362 16.3325 102.27 16.4539C102.119 16.6618 101.993 16.8864 101.893 17.1233C84.8496 16.4047 67.8003 18.4076 51.3863 23.0567C51.2331 22.8495 51.0578 22.6597 50.8633 22.4907C50.7435 22.3976 50.6066 22.329 50.4604 22.2889C50.3141 22.2488 50.1614 22.2379 50.0109 22.2568C49.8604 22.2757 49.7151 22.3241 49.5833 22.3992C49.4515 22.4744 49.3358 22.5747 49.2428 22.6946C49.1498 22.8145 49.0812 22.9515 49.0411 23.0979C49.001 23.2443 48.9901 23.3971 49.009 23.5477C49.0279 23.6983 49.0763 23.8437 49.1514 23.9756C49.2264 24.1075 49.3267 24.2233 49.4465 24.3164C49.6608 24.4707 49.8912 24.6013 50.1337 24.7059C49.8938 34.4593 51.0361 44.1976 53.5267 53.6302C53.3143 53.786 53.1204 53.9657 52.949 54.1658C52.7686 54.4045 52.6889 54.7044 52.7269 55.0012C52.7648 55.2981 52.9175 55.5682 53.1522 55.7537C53.3869 55.9392 53.6848 56.0253 53.9822 55.9935C54.2796 55.9617 54.5526 55.8146 54.7429 55.5837C54.8917 55.3744 55.0181 55.1501 55.1199 54.9143C72.1635 55.6325 89.2127 53.6296 105.627 48.9809C105.778 49.1877 105.952 49.3774 106.144 49.5469C106.262 49.6404 106.397 49.7097 106.541 49.751C106.686 49.7923 106.837 49.8047 106.986 49.7874C107.136 49.7702 107.28 49.7237 107.412 49.6506C107.543 49.5774 107.659 49.4791 107.752 49.3613C107.846 49.2434 107.915 49.1082 107.956 48.9636C107.997 48.8189 108.01 48.6675 107.992 48.518C107.975 48.3685 107.929 48.2239 107.856 48.0924C107.783 47.961 107.684 47.8451 107.567 47.7516C107.354 47.5881 107.123 47.4493 106.879 47.3378Z" fill="#FFE7E7"/>
<path d="M72.9714 33.7622C71.0608 30.9451 67.4952 29.354 64.5138 28.029C61.2586 26.5864 57.7356 25.4225 54.1701 26.3078C53.8719 26.3821 53.9997 26.8403 54.2918 26.7722C58.0764 25.8559 61.721 27.4408 65.1101 29.0134C67.9455 30.3322 70.2516 32.1091 72.7523 33.9665C72.8984 34.0779 73.0687 33.886 72.9714 33.7622Z" fill="#DAB1B1"/>
<path d="M76.884 39.5822C73.8001 37.8157 69.4621 37.8713 66.0208 37.581C62.1191 37.2599 58.0416 36.599 54.158 37.334C53.8793 37.3896 54.0005 37.8096 54.2792 37.7663C57.9629 37.2228 61.7798 37.9454 65.4574 38.2851C67.4325 38.4642 69.4076 38.631 71.3706 38.9028C73.1882 39.1622 74.9149 39.7427 76.7083 39.996C76.9506 40.0392 77.1263 39.7242 76.884 39.5822Z" fill="#DAB1B1"/>
<path d="M81.7764 43.0014C78.162 43.0972 74.5106 43.8131 70.9887 44.4894C67.2543 45.2062 63.6074 46.2617 60.1023 47.6402C59.8865 47.7248 60.0468 48.063 60.2627 47.9897C63.6351 46.8387 67.1021 45.9341 70.631 45.2842C74.3317 44.5571 78.1743 44.2753 81.8257 43.3621C81.8781 43.3562 81.9257 43.3314 81.9581 43.2934C81.9905 43.2553 82.005 43.2071 81.9985 43.1592C81.9919 43.1114 81.9648 43.0679 81.9232 43.0383C81.8816 43.0087 81.8288 42.9954 81.7764 43.0014Z" fill="#DAB1B1"/>
<path d="M97.9442 20.2008C97.9339 20.1593 97.9127 20.1214 97.8827 20.0912C97.8527 20.061 97.815 20.0396 97.7738 20.0293C96.5878 19.7879 95.0296 21.1028 94.0391 21.6492C92.3239 22.5929 90.666 23.6386 89.0742 24.7809C86.2984 26.7692 83.1883 29.45 82.0086 32.7787C81.9518 32.9375 82.1915 33.0836 82.2988 32.9438C84.3996 30.2631 86.3174 27.7983 89.0553 25.7147C90.3652 24.7426 91.7256 23.8414 93.1307 23.0149C93.7111 22.6655 97.1998 20.1944 97.7297 20.5819C97.8622 20.6836 98.0325 20.5184 97.9946 20.3787L97.9442 20.2008Z" fill="#DAB1B1"/>
<path d="M99.8653 29C98.7367 29.1671 97.68 29.6405 96.8173 30.3656C95.4273 31.3529 94.0801 32.3993 92.7512 33.4634C90.0811 35.6212 87.0452 37.9386 85.0274 40.7171C84.9237 40.8649 85.1371 41.0777 85.2895 40.9713C87.7279 39.2332 89.764 36.9868 91.9952 35.0595C94.4337 33.0082 96.9575 30.6139 99.9202 29.3251C99.9491 29.3053 99.9717 29.278 99.9854 29.2463C99.999 29.2146 100.003 29.1798 99.9975 29.1459C99.9918 29.112 99.9764 29.0804 99.953 29.0546C99.9296 29.0288 99.8992 29.0099 99.8653 29Z" fill="#DAB1B1"/>
<path d="M73.5713 52.8877C72.7204 49.8981 72.8221 46.7178 73.8624 43.7886C74.9026 40.8595 76.8297 38.3269 79.376 36.5428C80.5643 35.652 81.9815 35.1173 83.4623 35.0012C88.2226 34.8919 97.0997 42.5029 100.463 47.9472C103.135 52.2383 103.263 52.1533 112 70.5072C112 70.5072 109.571 76 96.6747 75.2595C83.778 74.5191 77.6455 76 77.6455 76C77.6455 76 77.0383 62.2649 74.6824 56.238C74.2372 55.0727 73.8668 53.9559 73.5713 52.8877Z" fill="#B84A4A"/>
<path d="M84.034 44L87.3233 55.9304L74 54.242L91 60L89.4752 50.327L84.034 44Z" fill="#752222"/>
<path d="M76.3458 39C76.3458 39 68.8198 44.1936 71.6273 61.4454C74.2225 62.4305 76.6525 62.0128 79 60.903L76.3458 39Z" fill="#B84A4A"/>
<path d="M101.431 51.3699L92.3613 56.9843L68.9766 52.3305C68.9766 52.3305 68.8487 50.3258 67.2771 49.8187C65.7055 49.3115 66.6192 47.098 65.736 47.4321C64.8527 47.7662 64.8588 49.6993 65.736 50.6301C65.736 50.6301 61.2954 46.5013 60.6802 47.0503C60.065 47.5992 63.7806 50.9821 63.7806 50.9821C63.7806 50.9821 59.7969 48.3927 59.3096 48.8999C58.8223 49.407 62.9644 52.068 62.9644 52.068C62.9644 52.068 59.3096 50.5645 59.0173 51.0418C58.7249 51.5191 62.2457 53.2494 62.2457 53.2494C62.2457 53.2494 59.5715 52.7721 59.4071 53.0883C59.2426 53.4045 63.6284 56.0059 67.2466 56.5428C88.9927 67.6643 103.186 65.928 105.75 61.9783C107.261 59.6812 101.431 51.3699 101.431 51.3699Z" fill="#FFA6A6"/>
<path d="M88 56.27L89.404 59.1721L95 62L90.7946 57.4443L89.8877 56L88 56.27Z" fill="#FF6767"/>
<path d="M90 58.4877C90 58.4877 97.7562 61.0523 103 54.7052L101.276 52L90 58.4877Z" fill="#FF6767"/>
<path d="M81 35.9197L89.4416 58C89.4416 58 99.8792 58 103 50.3168L95.0404 39.8027C93.95 38.2628 92.4789 37.0042 90.7579 36.1384C88.4713 35.0746 85.1405 34.324 81 35.9197Z" fill="#B84A4A"/>
<path d="M80.8076 39.539C80.391 42.4239 77.4808 48.3367 75.8203 47.985C74.1598 47.6333 76.0961 41.2973 76.0961 41.2973L74.9871 38.6926C74.9871 38.6926 73.5848 41.196 71.9948 41.2914C71.8104 41.3049 71.6252 41.2827 71.4491 41.2258C64.0385 39.6761 63 28.6253 63 28.6253V26.3723L64.5197 25.6689L71.4491 24L80.8076 34.5381C81.0641 36.1949 81.0641 37.8822 80.8076 39.539Z" fill="#FFA6A6"/>
<path d="M63.1733 29.6696C63.1733 29.6696 63.1193 27.2692 64.8237 27.2692C66.5282 27.2692 66.9483 28.4356 69.2169 28.497C71.4856 28.5584 74.6724 28.5339 76.731 30.9957C78.7895 33.4575 79.3537 35.7105 83.6028 36.4349C87.852 37.1594 99.6933 61.1573 104.801 58.8428C109.908 56.5284 113.089 48.2773 109.404 39.0686C106.199 31.0877 97.8387 30.4738 91.0389 27.5516C87.2401 25.969 83.7758 23.651 80.8361 20.7249C77.0791 16.8634 70.6333 15.0707 65.0998 20.0005C60.7606 23.8927 61.8469 28.6321 63.1733 29.6696Z" fill="#090738"/>
<path d="M76.2298 48C74.3874 47.654 76.5348 41.4208 76.5348 41.4208L75.3086 38.8584C75.3086 38.8584 73.7581 41.3212 72 41.415C72.3828 41.3563 76.0676 38.829 77.0537 35L79 40.9928C79 40.9928 74.1798 45.1737 76.2298 48Z" fill="#FF6767"/>
</g>
<g filter="url(#filter0_b_206:36972)">
<rect x="13" y="77" width="141" height="77" rx="10" fill="black" fill-opacity="0.8"/>
</g>
<path d="M29.5246 86.928C30.8313 86.928 31.8346 87.292 32.5346 88.02C33.2346 88.748 33.5846 89.7933 33.5846 91.156C33.5846 92.752 33.1926 93.9747 32.4086 94.824C31.6246 95.6733 30.5046 96.098 29.0486 96.098C28.61 96.098 28.0826 96.0887 27.4666 96.07C26.86 96.0513 26.3373 96.028 25.8986 96L25.9966 93.312L25.8986 86.984L29.5246 86.928ZM29.3846 94.628C30.8686 94.628 31.6106 93.6153 31.6106 91.59C31.6106 90.4887 31.4286 89.6907 31.0646 89.196C30.71 88.692 30.15 88.44 29.3846 88.44C28.89 88.44 28.3626 88.4633 27.8026 88.51L27.7186 93.144L27.7606 94.53C28.414 94.5953 28.9553 94.628 29.3846 94.628ZM37.4818 89.364C38.4338 89.364 39.1618 89.644 39.6658 90.204C40.1698 90.764 40.4218 91.5713 40.4218 92.626C40.4218 93.7647 40.1511 94.6373 39.6098 95.244C39.0684 95.8413 38.2891 96.14 37.2718 96.14C36.3198 96.14 35.5918 95.86 35.0878 95.3C34.5838 94.74 34.3318 93.9327 34.3318 92.878C34.3318 91.7393 34.6024 90.8713 35.1438 90.274C35.6851 89.6673 36.4644 89.364 37.4818 89.364ZM37.3558 90.624C36.9078 90.624 36.5811 90.7733 36.3758 91.072C36.1798 91.3707 36.0818 91.8513 36.0818 92.514C36.0818 93.3727 36.1844 93.984 36.3898 94.348C36.5951 94.712 36.9311 94.894 37.3978 94.894C37.8458 94.894 38.1678 94.7493 38.3638 94.46C38.5691 94.1613 38.6718 93.676 38.6718 93.004C38.6718 92.1547 38.5644 91.548 38.3498 91.184C38.1444 90.8107 37.8131 90.624 37.3558 90.624ZM45.2137 89.476C45.2977 89.476 45.4144 89.4853 45.5637 89.504V91.226L45.3677 91.296C45.2091 91.2307 45.0364 91.198 44.8497 91.198C44.3084 91.198 43.8184 91.548 43.3797 92.248V93.13L43.4777 96H41.6157L41.7277 93.312L41.6437 89.616L43.4077 89.462L43.3937 90.736H43.5057C43.9631 89.896 44.5324 89.476 45.2137 89.476ZM54.2809 96L54.3929 91.94C54.3929 91.2493 54.0989 90.904 53.5109 90.904C53.0909 90.904 52.6522 91.0907 52.1949 91.464L52.1529 93.144L52.2369 96H50.3749L50.4869 91.94C50.4962 91.604 50.4216 91.3473 50.2629 91.17C50.1136 90.9927 49.8942 90.904 49.6049 90.904C49.1942 90.904 48.7416 91.1 48.2469 91.492V93.13L48.3309 96H46.4829L46.5809 93.312L46.5109 89.616L48.2609 89.462V90.414H48.3589C48.8722 89.9473 49.4369 89.6113 50.0529 89.406C51.0982 89.406 51.7656 89.756 52.0549 90.456H52.1389C52.6709 89.9613 53.2776 89.6113 53.9589 89.406C54.6682 89.406 55.2049 89.5693 55.5689 89.896C55.9422 90.2133 56.1196 90.6753 56.1009 91.282L56.0589 93.144L56.1429 96H54.2809ZM57.9019 93.312L57.8319 89.616L59.6659 89.462L59.5819 93.13L59.6659 96H57.8039L57.9019 93.312ZM58.7839 86.298C59.0732 86.298 59.2972 86.382 59.4559 86.55C59.6239 86.718 59.7079 86.9513 59.7079 87.25C59.7079 87.5673 59.6192 87.8193 59.4419 88.006C59.2645 88.1927 59.0219 88.286 58.7139 88.286C58.4059 88.286 58.1679 88.202 57.9999 88.034C57.8412 87.866 57.7619 87.628 57.7619 87.32C57.7619 87.012 57.8505 86.7647 58.0279 86.578C58.2145 86.3913 58.4665 86.298 58.7839 86.298ZM65.0243 89.476C65.1083 89.476 65.2249 89.4853 65.3743 89.504V91.226L65.1783 91.296C65.0196 91.2307 64.8469 91.198 64.6603 91.198C64.1189 91.198 63.6289 91.548 63.1903 92.248V93.13L63.2883 96H61.4263L61.5383 93.312L61.4543 89.616L63.2183 89.462L63.2043 90.736H63.3163C63.7736 89.896 64.3429 89.476 65.0243 89.476ZM71.9266 89.406C72.7479 89.406 73.3733 89.686 73.8026 90.246C74.2413 90.7967 74.4606 91.5667 74.4606 92.556C74.4606 93.704 74.1759 94.5907 73.6066 95.216C73.0373 95.832 72.2486 96.14 71.2406 96.14C70.7646 96.14 70.2419 96.0327 69.6726 95.818L68.6926 96.168L68.4686 95.986L68.5666 93.326L68.4826 86.312L70.3306 86.172L70.2746 90.414H70.3586C70.6199 90.162 70.8719 89.9613 71.1146 89.812C71.3573 89.6533 71.6279 89.518 71.9266 89.406ZM71.2406 94.922C71.7073 94.922 72.0713 94.754 72.3326 94.418C72.5939 94.082 72.7246 93.5687 72.7246 92.878C72.7246 92.234 72.6173 91.744 72.4026 91.408C72.1973 91.072 71.8846 90.904 71.4646 90.904C71.0819 90.904 70.6806 91.1 70.2606 91.492L70.2326 93.088L70.2606 94.67C70.6059 94.838 70.9326 94.922 71.2406 94.922ZM80.7807 92.976L77.0007 93.004C77.0847 94.1707 77.6774 94.754 78.7787 94.754C79.3574 94.754 80.0014 94.5907 80.7107 94.264L80.8647 94.362L80.5847 95.748C79.8754 96.0093 79.2081 96.14 78.5827 96.14C77.5561 96.14 76.7487 95.8413 76.1607 95.244C75.5821 94.6467 75.2927 93.8207 75.2927 92.766C75.2927 91.7207 75.5774 90.8947 76.1467 90.288C76.7161 89.672 77.4861 89.364 78.4567 89.364C79.2874 89.364 79.9267 89.5927 80.3747 90.05C80.8321 90.498 81.0607 91.128 81.0607 91.94C81.0607 92.1547 81.0374 92.4253 80.9907 92.752L80.7807 92.976ZM79.4367 91.73C79.4367 91.3567 79.3527 91.0767 79.1847 90.89C79.0167 90.694 78.7694 90.596 78.4427 90.596C78.0787 90.596 77.7754 90.7173 77.5327 90.96C77.2901 91.1933 77.1267 91.534 77.0427 91.982L79.4087 91.926L79.4367 91.73ZM90.1422 96L90.2542 91.94C90.2542 91.2493 89.9602 90.904 89.3722 90.904C88.9522 90.904 88.5136 91.0907 88.0562 91.464L88.0142 93.144L88.0982 96H86.2362L86.3482 91.94C86.3576 91.604 86.2829 91.3473 86.1242 91.17C85.9749 90.9927 85.7556 90.904 85.4662 90.904C85.0556 90.904 84.6029 91.1 84.1082 91.492V93.13L84.1922 96H82.3442L82.4422 93.312L82.3722 89.616L84.1222 89.462V90.414H84.2202C84.7336 89.9473 85.2982 89.6113 85.9142 89.406C86.9596 89.406 87.6269 89.756 87.9162 90.456H88.0002C88.5322 89.9613 89.1389 89.6113 89.8202 89.406C90.5296 89.406 91.0662 89.5693 91.4302 89.896C91.8036 90.2133 91.9809 90.6753 91.9622 91.282L91.9202 93.144L92.0042 96H90.1422ZM103.554 96L103.666 91.94C103.666 91.2493 103.372 90.904 102.784 90.904C102.364 90.904 101.926 91.0907 101.468 91.464L101.426 93.144L101.51 96H99.6483L99.7603 91.94C99.7697 91.604 99.695 91.3473 99.5363 91.17C99.387 90.9927 99.1677 90.904 98.8783 90.904C98.4677 90.904 98.015 91.1 97.5203 91.492V93.13L97.6043 96H95.7563L95.8543 93.312L95.7843 89.616L97.5343 89.462V90.414H97.6323C98.1457 89.9473 98.7103 89.6113 99.3263 89.406C100.372 89.406 101.039 89.756 101.328 90.456H101.412C101.944 89.9613 102.551 89.6113 103.232 89.406C103.942 89.406 104.478 89.5693 104.842 89.896C105.216 90.2133 105.393 90.6753 105.374 91.282L105.332 93.144L105.416 96H103.554ZM112.089 92.976L108.309 93.004C108.393 94.1707 108.986 94.754 110.087 94.754C110.666 94.754 111.31 94.5907 112.019 94.264L112.173 94.362L111.893 95.748C111.184 96.0093 110.517 96.14 109.891 96.14C108.865 96.14 108.057 95.8413 107.469 95.244C106.891 94.6467 106.601 93.8207 106.601 92.766C106.601 91.7207 106.886 90.8947 107.455 90.288C108.025 89.672 108.795 89.364 109.765 89.364C110.596 89.364 111.235 89.5927 111.683 90.05C112.141 90.498 112.369 91.128 112.369 91.94C112.369 92.1547 112.346 92.4253 112.299 92.752L112.089 92.976ZM110.745 91.73C110.745 91.3567 110.661 91.0767 110.493 90.89C110.325 90.694 110.078 90.596 109.751 90.596C109.387 90.596 109.084 90.7173 108.841 90.96C108.599 91.1933 108.435 91.534 108.351 91.982L110.717 91.926L110.745 91.73ZM115.418 93.13L115.516 96H113.654L113.752 93.298L113.668 86.312L115.53 86.172L115.418 93.13ZM121.336 91.94C121.345 91.604 121.275 91.3473 121.126 91.17C120.977 90.9927 120.757 90.904 120.468 90.904C120.048 90.904 119.6 91.1047 119.124 91.506L119.096 93.13L119.194 96H117.332L117.43 93.298L117.346 86.312L119.208 86.172L119.138 90.414H119.222C119.735 89.9473 120.3 89.6113 120.916 89.406C121.625 89.406 122.162 89.5693 122.526 89.896C122.899 90.2133 123.081 90.6753 123.072 91.282L123.03 93.144L123.1 96H121.238L121.336 91.94ZM127.443 89.364C128.395 89.364 129.123 89.644 129.627 90.204C130.131 90.764 130.383 91.5713 130.383 92.626C130.383 93.7647 130.112 94.6373 129.571 95.244C129.029 95.8413 128.25 96.14 127.233 96.14C126.281 96.14 125.553 95.86 125.049 95.3C124.545 94.74 124.293 93.9327 124.293 92.878C124.293 91.7393 124.563 90.8713 125.105 90.274C125.646 89.6673 126.425 89.364 127.443 89.364ZM127.317 90.624C126.869 90.624 126.542 90.7733 126.337 91.072C126.141 91.3707 126.043 91.8513 126.043 92.514C126.043 93.3727 126.145 93.984 126.351 94.348C126.556 94.712 126.892 94.894 127.359 94.894C127.807 94.894 128.129 94.7493 128.325 94.46C128.53 94.1613 128.633 93.676 128.633 93.004C128.633 92.1547 128.525 91.548 128.311 91.184C128.105 90.8107 127.774 90.624 127.317 90.624ZM135.175 89.476C135.259 89.476 135.375 89.4853 135.525 89.504V91.226L135.329 91.296C135.17 91.2307 134.997 91.198 134.811 91.198C134.269 91.198 133.779 91.548 133.341 92.248V93.13L133.439 96H131.577L131.689 93.312L131.605 89.616L133.369 89.462L133.355 90.736H133.467C133.924 89.896 134.493 89.476 135.175 89.476ZM138.869 89.364C139.588 89.364 140.148 89.5273 140.549 89.854C140.96 90.1713 141.165 90.6193 141.165 91.198C141.165 91.366 141.137 91.898 141.081 92.794C141.072 93.0553 141.058 93.326 141.039 93.606C141.02 93.8767 141.011 94.11 141.011 94.306C141.011 94.4647 141.034 94.5767 141.081 94.642C141.128 94.698 141.212 94.726 141.333 94.726C141.426 94.726 141.548 94.7073 141.697 94.67L141.837 94.782L141.669 95.762C141.37 95.958 141.03 96.0747 140.647 96.112C140.367 96.084 140.134 95.986 139.947 95.818C139.76 95.6407 139.634 95.398 139.569 95.09H139.471C139.004 95.5847 138.524 95.93 138.029 96.126C137.357 96.1167 136.83 95.9393 136.447 95.594C136.064 95.2487 135.873 94.7773 135.873 94.18C135.873 93.7133 135.99 93.3493 136.223 93.088C136.466 92.8173 136.83 92.6353 137.315 92.542L139.457 92.136V91.562C139.457 90.9553 139.158 90.652 138.561 90.652C138.272 90.652 137.964 90.7173 137.637 90.848C137.32 90.9787 136.96 91.184 136.559 91.464L136.419 91.38L136.209 90.148C136.61 89.896 137.04 89.7047 137.497 89.574C137.954 89.434 138.412 89.364 138.869 89.364ZM137.959 93.396C137.81 93.4333 137.698 93.4987 137.623 93.592C137.558 93.676 137.525 93.8067 137.525 93.984C137.525 94.2267 137.59 94.418 137.721 94.558C137.852 94.6887 138.034 94.754 138.267 94.754C138.631 94.754 139.014 94.5393 139.415 94.11L139.443 93.074L137.959 93.396ZM27.3887 105.364C28.1073 105.364 28.6673 105.527 29.0687 105.854C29.4793 106.171 29.6847 106.619 29.6847 107.198C29.6847 107.366 29.6567 107.898 29.6007 108.794C29.5913 109.055 29.5773 109.326 29.5587 109.606C29.54 109.877 29.5307 110.11 29.5307 110.306C29.5307 110.465 29.554 110.577 29.6007 110.642C29.6473 110.698 29.7313 110.726 29.8527 110.726C29.946 110.726 30.0673 110.707 30.2167 110.67L30.3567 110.782L30.1887 111.762C29.89 111.958 29.5493 112.075 29.1667 112.112C28.8867 112.084 28.6533 111.986 28.4667 111.818C28.28 111.641 28.154 111.398 28.0887 111.09H27.9907C27.524 111.585 27.0433 111.93 26.5487 112.126C25.8767 112.117 25.3493 111.939 24.9667 111.594C24.584 111.249 24.3927 110.777 24.3927 110.18C24.3927 109.713 24.5093 109.349 24.7427 109.088C24.9853 108.817 25.3493 108.635 25.8347 108.542L27.9767 108.136V107.562C27.9767 106.955 27.678 106.652 27.0807 106.652C26.7913 106.652 26.4833 106.717 26.1567 106.848C25.8393 106.979 25.48 107.184 25.0787 107.464L24.9387 107.38L24.7287 106.148C25.13 105.896 25.5593 105.705 26.0167 105.574C26.474 105.434 26.9313 105.364 27.3887 105.364ZM26.4787 109.396C26.3293 109.433 26.2173 109.499 26.1427 109.592C26.0773 109.676 26.0447 109.807 26.0447 109.984C26.0447 110.227 26.11 110.418 26.2407 110.558C26.3713 110.689 26.5533 110.754 26.7867 110.754C27.1507 110.754 27.5333 110.539 27.9347 110.11L27.9627 109.074L26.4787 109.396ZM36.248 105.364C36.9667 105.364 37.5267 105.527 37.928 105.854C38.3387 106.171 38.544 106.619 38.544 107.198C38.544 107.366 38.516 107.898 38.46 108.794C38.4507 109.055 38.4367 109.326 38.418 109.606C38.3994 109.877 38.39 110.11 38.39 110.306C38.39 110.465 38.4134 110.577 38.46 110.642C38.5067 110.698 38.5907 110.726 38.712 110.726C38.8054 110.726 38.9267 110.707 39.076 110.67L39.216 110.782L39.048 111.762C38.7494 111.958 38.4087 112.075 38.026 112.112C37.746 112.084 37.5127 111.986 37.326 111.818C37.1394 111.641 37.0134 111.398 36.948 111.09H36.85C36.3834 111.585 35.9027 111.93 35.408 112.126C34.736 112.117 34.2087 111.939 33.826 111.594C33.4434 111.249 33.252 110.777 33.252 110.18C33.252 109.713 33.3687 109.349 33.602 109.088C33.8447 108.817 34.2087 108.635 34.694 108.542L36.836 108.136V107.562C36.836 106.955 36.5374 106.652 35.94 106.652C35.6507 106.652 35.3427 106.717 35.016 106.848C34.6987 106.979 34.3394 107.184 33.938 107.464L33.798 107.38L33.588 106.148C33.9894 105.896 34.4187 105.705 34.876 105.574C35.3334 105.434 35.7907 105.364 36.248 105.364ZM35.338 109.396C35.1887 109.433 35.0767 109.499 35.002 109.592C34.9367 109.676 34.904 109.807 34.904 109.984C34.904 110.227 34.9694 110.418 35.1 110.558C35.2307 110.689 35.4127 110.754 35.646 110.754C36.01 110.754 36.3927 110.539 36.794 110.11L36.822 109.074L35.338 109.396ZM43.1003 105.364C43.4083 105.364 43.7116 105.397 44.0103 105.462C44.3183 105.518 44.5889 105.602 44.8223 105.714L44.5143 107.198L44.3603 107.268C43.8843 107.007 43.4596 106.876 43.0863 106.876C42.6569 106.876 42.3256 107.03 42.0923 107.338C41.8589 107.646 41.7423 108.085 41.7423 108.654C41.7423 109.307 41.8683 109.807 42.1203 110.152C42.3723 110.497 42.7316 110.67 43.1983 110.67C43.6183 110.67 44.0849 110.553 44.5983 110.32L44.7383 110.432L44.5563 111.874C43.9963 112.051 43.4223 112.14 42.8343 112.14C41.9383 112.14 41.2383 111.851 40.7343 111.272C40.2303 110.684 39.9783 109.867 39.9783 108.822C39.9783 107.739 40.2536 106.895 40.8043 106.288C41.3549 105.672 42.1203 105.364 43.1003 105.364ZM43.0863 112.672L43.5623 112.938C43.7676 113.05 43.9123 113.171 43.9963 113.302C44.0896 113.442 44.1363 113.596 44.1363 113.764C44.1363 114.072 44.0149 114.324 43.7723 114.52C43.5296 114.716 43.2123 114.814 42.8203 114.814C42.4003 114.814 42.0176 114.683 41.6723 114.422L41.7983 113.638L41.8823 113.596C42.1623 113.876 42.4376 114.016 42.7083 114.016C42.9323 114.016 43.0443 113.918 43.0443 113.722C43.0443 113.657 43.0256 113.601 42.9883 113.554C42.9509 113.517 42.8903 113.479 42.8063 113.442L42.1203 113.05L42.4423 111.636H43.3383L43.0863 112.672ZM48.2383 105.364C48.9569 105.364 49.5169 105.527 49.9183 105.854C50.3289 106.171 50.5343 106.619 50.5343 107.198C50.5343 107.366 50.5063 107.898 50.4503 108.794C50.4409 109.055 50.4269 109.326 50.4083 109.606C50.3896 109.877 50.3803 110.11 50.3803 110.306C50.3803 110.465 50.4036 110.577 50.4503 110.642C50.4969 110.698 50.5809 110.726 50.7023 110.726C50.7956 110.726 50.9169 110.707 51.0663 110.67L51.2063 110.782L51.0383 111.762C50.7396 111.958 50.3989 112.075 50.0163 112.112C49.7363 112.084 49.5029 111.986 49.3163 111.818C49.1296 111.641 49.0036 111.398 48.9383 111.09H48.8403C48.3736 111.585 47.8929 111.93 47.3983 112.126C46.7263 112.117 46.1989 111.939 45.8163 111.594C45.4336 111.249 45.2423 110.777 45.2423 110.18C45.2423 109.713 45.3589 109.349 45.5923 109.088C45.8349 108.817 46.1989 108.635 46.6843 108.542L48.8263 108.136V107.562C48.8263 106.955 48.5276 106.652 47.9303 106.652C47.6409 106.652 47.3329 106.717 47.0063 106.848C46.6889 106.979 46.3296 107.184 45.9283 107.464L45.7883 107.38L45.5783 106.148C45.9796 105.896 46.4089 105.705 46.8663 105.574C47.3236 105.434 47.7809 105.364 48.2383 105.364ZM47.3283 109.396C47.1789 109.433 47.0669 109.499 46.9923 109.592C46.9269 109.676 46.8943 109.807 46.8943 109.984C46.8943 110.227 46.9596 110.418 47.0903 110.558C47.2209 110.689 47.4029 110.754 47.6363 110.754C48.0003 110.754 48.3829 110.539 48.7843 110.11L48.8123 109.074L47.3283 109.396ZM50.5343 102.732V102.886L49.5543 104.132L49.3723 104.202C49.1203 104.174 48.7329 104.085 48.2103 103.936C48.1636 103.927 48.0096 103.889 47.7483 103.824C47.4963 103.749 47.3189 103.712 47.2163 103.712C47.1136 103.712 47.0109 103.754 46.9083 103.838C46.8149 103.922 46.7123 104.025 46.6003 104.146C46.4883 104.267 46.4043 104.361 46.3483 104.426H46.1803L45.6203 103.88V103.726L46.6143 102.48L46.7823 102.41C47.0063 102.438 47.4029 102.531 47.9723 102.69C48.4949 102.83 48.8169 102.9 48.9383 102.9C49.0503 102.9 49.1576 102.853 49.2603 102.76C49.3723 102.667 49.4843 102.559 49.5963 102.438C49.7083 102.317 49.7829 102.233 49.8203 102.186H49.9883L50.5343 102.732ZM55.1185 105.364C56.0705 105.364 56.7985 105.644 57.3025 106.204C57.8065 106.764 58.0585 107.571 58.0585 108.626C58.0585 109.765 57.7878 110.637 57.2465 111.244C56.7052 111.841 55.9258 112.14 54.9085 112.14C53.9565 112.14 53.2285 111.86 52.7245 111.3C52.2205 110.74 51.9685 109.933 51.9685 108.878C51.9685 107.739 52.2392 106.871 52.7805 106.274C53.3218 105.667 54.1012 105.364 55.1185 105.364ZM54.9925 106.624C54.5445 106.624 54.2178 106.773 54.0125 107.072C53.8165 107.371 53.7185 107.851 53.7185 108.514C53.7185 109.373 53.8212 109.984 54.0265 110.348C54.2318 110.712 54.5678 110.894 55.0345 110.894C55.4825 110.894 55.8045 110.749 56.0005 110.46C56.2058 110.161 56.3085 109.676 56.3085 109.004C56.3085 108.155 56.2012 107.548 55.9865 107.184C55.7812 106.811 55.4498 106.624 54.9925 106.624ZM66.8856 109.13L66.9276 110.306C66.9276 110.465 66.9463 110.577 66.9836 110.642C67.0303 110.698 67.1096 110.726 67.2216 110.726C67.3243 110.726 67.4503 110.707 67.5996 110.67L67.7256 110.782L67.5716 111.762C67.2543 111.958 66.9089 112.075 66.5356 112.112C66.2463 112.084 66.0036 111.986 65.8076 111.818C65.6116 111.65 65.4763 111.421 65.4016 111.132H65.2896C64.8323 111.552 64.3656 111.874 63.8896 112.098C62.9749 112.098 62.2656 111.809 61.7616 111.23C61.2576 110.642 61.0056 109.83 61.0056 108.794C61.0056 107.693 61.2949 106.848 61.8736 106.26C62.4523 105.672 63.2549 105.378 64.2816 105.378C64.5523 105.378 64.8509 105.406 65.1776 105.462L65.1496 102.312L66.9976 102.172L66.8856 109.13ZM64.1556 106.638C63.2223 106.638 62.7556 107.231 62.7556 108.416C62.7556 109.153 62.8676 109.709 63.0916 110.082C63.3156 110.455 63.6423 110.642 64.0716 110.642C64.4823 110.642 64.8603 110.451 65.2056 110.068L65.2336 109.298L65.1916 106.89C64.8276 106.722 64.4823 106.638 64.1556 106.638ZM71.5248 105.364C72.4768 105.364 73.2048 105.644 73.7088 106.204C74.2128 106.764 74.4648 107.571 74.4648 108.626C74.4648 109.765 74.1941 110.637 73.6528 111.244C73.1114 111.841 72.3321 112.14 71.3148 112.14C70.3628 112.14 69.6348 111.86 69.1308 111.3C68.6268 110.74 68.3748 109.933 68.3748 108.878C68.3748 107.739 68.6454 106.871 69.1868 106.274C69.7281 105.667 70.5074 105.364 71.5248 105.364ZM71.3988 106.624C70.9508 106.624 70.6241 106.773 70.4188 107.072C70.2228 107.371 70.1248 107.851 70.1248 108.514C70.1248 109.373 70.2274 109.984 70.4328 110.348C70.6381 110.712 70.9741 110.894 71.4408 110.894C71.8888 110.894 72.2108 110.749 72.4068 110.46C72.6121 110.161 72.7148 109.676 72.7148 109.004C72.7148 108.155 72.6074 107.548 72.3928 107.184C72.1874 106.811 71.8561 106.624 71.3988 106.624ZM77.9247 105.378C78.5594 105.378 79.1567 105.485 79.7167 105.7L79.4647 107.072L79.2407 107.142C78.9701 106.965 78.6994 106.829 78.4287 106.736C78.1581 106.643 77.9201 106.596 77.7147 106.596C77.4907 106.596 77.3134 106.657 77.1827 106.778C77.0521 106.89 76.9867 107.03 76.9867 107.198C76.9867 107.394 77.0707 107.553 77.2387 107.674C77.4161 107.795 77.6914 107.931 78.0647 108.08C78.4381 108.229 78.7461 108.374 78.9887 108.514C79.2314 108.654 79.4367 108.85 79.6047 109.102C79.7821 109.345 79.8707 109.648 79.8707 110.012C79.8707 110.385 79.7727 110.735 79.5767 111.062C79.3901 111.379 79.1007 111.641 78.7087 111.846C78.3167 112.042 77.8361 112.14 77.2667 112.14C76.5947 112.14 75.8994 112 75.1807 111.72L75.3907 110.264L75.5727 110.152C75.8621 110.395 76.1841 110.591 76.5387 110.74C76.8934 110.88 77.2061 110.95 77.4767 110.95C77.7287 110.95 77.9247 110.889 78.0647 110.768C78.2047 110.637 78.2747 110.483 78.2747 110.306C78.2747 110.11 78.1861 109.951 78.0087 109.83C77.8407 109.709 77.5701 109.573 77.1967 109.424C76.8141 109.256 76.5014 109.107 76.2587 108.976C76.0161 108.836 75.8061 108.64 75.6287 108.388C75.4607 108.136 75.3767 107.823 75.3767 107.45C75.3767 106.843 75.6054 106.349 76.0627 105.966C76.5201 105.574 77.1407 105.378 77.9247 105.378ZM87.2929 107.94C87.3022 107.604 87.2322 107.347 87.0829 107.17C86.9336 106.993 86.7142 106.904 86.4249 106.904C86.0049 106.904 85.5569 107.105 85.0809 107.506L85.0529 109.13L85.1509 112H83.2889L83.3869 109.298L83.3029 102.312L85.1649 102.172L85.0949 106.414H85.1789C85.6922 105.947 86.2569 105.611 86.8729 105.406C87.5822 105.406 88.1189 105.569 88.4829 105.896C88.8562 106.213 89.0382 106.675 89.0289 107.282L88.9869 109.144L89.0569 112H87.1949L87.2929 107.94ZM93.3998 105.364C94.3518 105.364 95.0798 105.644 95.5838 106.204C96.0878 106.764 96.3398 107.571 96.3398 108.626C96.3398 109.765 96.0691 110.637 95.5278 111.244C94.9864 111.841 94.2071 112.14 93.1898 112.14C92.2378 112.14 91.5098 111.86 91.0058 111.3C90.5018 110.74 90.2498 109.933 90.2498 108.878C90.2498 107.739 90.5204 106.871 91.0618 106.274C91.6031 105.667 92.3824 105.364 93.3998 105.364ZM93.2738 106.624C92.8258 106.624 92.4991 106.773 92.2938 107.072C92.0978 107.371 91.9998 107.851 91.9998 108.514C91.9998 109.373 92.1024 109.984 92.3078 110.348C92.5131 110.712 92.8491 110.894 93.3158 110.894C93.7638 110.894 94.0858 110.749 94.2818 110.46C94.4871 110.161 94.5898 109.676 94.5898 109.004C94.5898 108.155 94.4824 107.548 94.2678 107.184C94.0624 106.811 93.7311 106.624 93.2738 106.624ZM101.132 105.476C101.216 105.476 101.332 105.485 101.482 105.504V107.226L101.286 107.296C101.127 107.231 100.954 107.198 100.768 107.198C100.226 107.198 99.7364 107.548 99.2977 108.248V109.13L99.3957 112H97.5337L97.6457 109.312L97.5617 105.616L99.3257 105.462L99.3117 106.736H99.4237C99.881 105.896 100.45 105.476 101.132 105.476ZM110.199 112L110.311 107.94C110.311 107.249 110.017 106.904 109.429 106.904C109.009 106.904 108.57 107.091 108.113 107.464L108.071 109.144L108.155 112H106.293L106.405 107.94C106.414 107.604 106.34 107.347 106.181 107.17C106.032 106.993 105.812 106.904 105.523 106.904C105.112 106.904 104.66 107.1 104.165 107.492V109.13L104.249 112H102.401L102.499 109.312L102.429 105.616L104.179 105.462V106.414H104.277C104.79 105.947 105.355 105.611 105.971 105.406C107.016 105.406 107.684 105.756 107.973 106.456H108.057C108.589 105.961 109.196 105.611 109.877 105.406C110.586 105.406 111.123 105.569 111.487 105.896C111.86 106.213 112.038 106.675 112.019 107.282L111.977 109.144L112.061 112H110.199ZM116.396 105.364C117.348 105.364 118.076 105.644 118.58 106.204C119.084 106.764 119.336 107.571 119.336 108.626C119.336 109.765 119.065 110.637 118.524 111.244C117.983 111.841 117.203 112.14 116.186 112.14C115.234 112.14 114.506 111.86 114.002 111.3C113.498 110.74 113.246 109.933 113.246 108.878C113.246 107.739 113.517 106.871 114.058 106.274C114.599 105.667 115.379 105.364 116.396 105.364ZM116.27 106.624C115.822 106.624 115.495 106.773 115.29 107.072C115.094 107.371 114.996 107.851 114.996 108.514C114.996 109.373 115.099 109.984 115.304 110.348C115.509 110.712 115.845 110.894 116.312 110.894C116.76 110.894 117.082 110.749 117.278 110.46C117.483 110.161 117.586 109.676 117.586 109.004C117.586 108.155 117.479 107.548 117.264 107.184C117.059 106.811 116.727 106.624 116.27 106.624ZM114.142 103.922C114.674 103.437 115.332 102.779 116.116 101.948H116.522C117.25 102.751 117.903 103.409 118.482 103.922L118.02 104.636H117.838C117.222 104.151 116.713 103.721 116.312 103.348C115.948 103.693 115.444 104.123 114.8 104.636H114.618L114.142 103.922ZM124.534 107.94C124.543 107.613 124.468 107.361 124.31 107.184C124.16 106.997 123.941 106.904 123.652 106.904C123.232 106.904 122.784 107.105 122.308 107.506V109.13L122.392 112H120.53L120.628 109.312L120.558 105.616L122.322 105.462V106.414H122.42C122.933 105.947 123.493 105.611 124.1 105.406C124.809 105.406 125.35 105.569 125.724 105.896C126.097 106.213 126.274 106.675 126.256 107.282L126.214 109.144L126.298 112H124.422L124.534 107.94ZM128.066 109.312L127.996 105.616L129.83 105.462L129.746 109.13L129.83 112H127.968L128.066 109.312ZM128.948 102.298C129.237 102.298 129.461 102.382 129.62 102.55C129.788 102.718 129.872 102.951 129.872 103.25C129.872 103.567 129.783 103.819 129.606 104.006C129.429 104.193 129.186 104.286 128.878 104.286C128.57 104.286 128.332 104.202 128.164 104.034C128.005 103.866 127.926 103.628 127.926 103.32C127.926 103.012 128.015 102.765 128.192 102.578C128.379 102.391 128.631 102.298 128.948 102.298ZM134.292 105.364C135.244 105.364 135.972 105.644 136.476 106.204C136.98 106.764 137.232 107.571 137.232 108.626C137.232 109.765 136.962 110.637 136.42 111.244C135.879 111.841 135.1 112.14 134.082 112.14C133.13 112.14 132.402 111.86 131.898 111.3C131.394 110.74 131.142 109.933 131.142 108.878C131.142 107.739 131.413 106.871 131.954 106.274C132.496 105.667 133.275 105.364 134.292 105.364ZM134.166 106.624C133.718 106.624 133.392 106.773 133.186 107.072C132.99 107.371 132.892 107.851 132.892 108.514C132.892 109.373 132.995 109.984 133.2 110.348C133.406 110.712 133.742 110.894 134.208 110.894C134.656 110.894 134.978 110.749 135.174 110.46C135.38 110.161 135.482 109.676 135.482 109.004C135.482 108.155 135.375 107.548 135.16 107.184C134.955 106.811 134.624 106.624 134.166 106.624ZM140.692 105.378C141.327 105.378 141.924 105.485 142.484 105.7L142.232 107.072L142.008 107.142C141.738 106.965 141.467 106.829 141.196 106.736C140.926 106.643 140.688 106.596 140.482 106.596C140.258 106.596 140.081 106.657 139.95 106.778C139.82 106.89 139.754 107.03 139.754 107.198C139.754 107.394 139.838 107.553 140.006 107.674C140.184 107.795 140.459 107.931 140.832 108.08C141.206 108.229 141.514 108.374 141.756 108.514C141.999 108.654 142.204 108.85 142.372 109.102C142.55 109.345 142.638 109.648 142.638 110.012C142.638 110.385 142.54 110.735 142.344 111.062C142.158 111.379 141.868 111.641 141.476 111.846C141.084 112.042 140.604 112.14 140.034 112.14C139.362 112.14 138.667 112 137.948 111.72L138.158 110.264L138.34 110.152C138.63 110.395 138.952 110.591 139.306 110.74C139.661 110.88 139.974 110.95 140.244 110.95C140.496 110.95 140.692 110.889 140.832 110.768C140.972 110.637 141.042 110.483 141.042 110.306C141.042 110.11 140.954 109.951 140.776 109.83C140.608 109.709 140.338 109.573 139.964 109.424C139.582 109.256 139.269 109.107 139.026 108.976C138.784 108.836 138.574 108.64 138.396 108.388C138.228 108.136 138.144 107.823 138.144 107.45C138.144 106.843 138.373 106.349 138.83 105.966C139.288 105.574 139.908 105.378 140.692 105.378ZM29.1844 121.378L29.3384 121.462L29.2264 125.13L29.3244 130.59H27.4764L27.5604 127.65V127.3H27.4484C27.0658 127.627 26.6458 127.893 26.1884 128.098C25.2831 128.098 24.5831 127.809 24.0884 127.23C23.5938 126.642 23.3464 125.839 23.3464 124.822C23.3464 123.711 23.6358 122.862 24.2144 122.274C24.7931 121.677 25.5678 121.378 26.5384 121.378C27.0424 121.378 27.6024 121.481 28.2184 121.686L29.1844 121.378ZM26.4824 122.638C25.5584 122.638 25.0964 123.254 25.0964 124.486C25.0964 125.186 25.2038 125.723 25.4184 126.096C25.6424 126.46 25.9644 126.642 26.3844 126.642C26.5804 126.642 26.7718 126.6 26.9584 126.516C27.1544 126.423 27.3551 126.273 27.5604 126.068L27.5744 125.326L27.5324 122.932C27.1591 122.736 26.8091 122.638 26.4824 122.638ZM37.2702 126.782L37.1022 127.762C36.7569 127.986 36.4022 128.103 36.0382 128.112C35.7675 128.065 35.5435 127.958 35.3662 127.79C35.1889 127.622 35.0535 127.379 34.9602 127.062H34.8342C34.3022 127.585 33.7515 127.925 33.1822 128.084C32.4729 128.084 31.9315 127.925 31.5582 127.608C31.1942 127.281 31.0169 126.815 31.0262 126.208L31.0542 124.556L30.9842 121.616L32.7902 121.462L32.7482 125.592C32.7389 125.919 32.8042 126.166 32.9442 126.334C33.0842 126.502 33.2942 126.586 33.5742 126.586C33.9849 126.586 34.3909 126.404 34.7922 126.04V121.616L36.5702 121.462L36.4442 126.306C36.4442 126.455 36.4675 126.563 36.5142 126.628C36.5702 126.693 36.6542 126.726 36.7662 126.726C36.8689 126.726 36.9949 126.707 37.1442 126.67L37.2702 126.782ZM43.4086 124.976L39.6286 125.004C39.7126 126.171 40.3053 126.754 41.4066 126.754C41.9853 126.754 42.6293 126.591 43.3386 126.264L43.4926 126.362L43.2126 127.748C42.5033 128.009 41.836 128.14 41.2106 128.14C40.184 128.14 39.3766 127.841 38.7886 127.244C38.21 126.647 37.9206 125.821 37.9206 124.766C37.9206 123.721 38.2053 122.895 38.7746 122.288C39.344 121.672 40.114 121.364 41.0846 121.364C41.9153 121.364 42.5546 121.593 43.0026 122.05C43.46 122.498 43.6886 123.128 43.6886 123.94C43.6886 124.155 43.6653 124.425 43.6186 124.752L43.4086 124.976ZM42.0646 123.73C42.0646 123.357 41.9806 123.077 41.8126 122.89C41.6446 122.694 41.3973 122.596 41.0706 122.596C40.7066 122.596 40.4033 122.717 40.1606 122.96C39.918 123.193 39.7546 123.534 39.6706 123.982L42.0366 123.926L42.0646 123.73ZM49.7653 121.364C50.0733 121.364 50.3766 121.397 50.6753 121.462C50.9833 121.518 51.254 121.602 51.4873 121.714L51.1793 123.198L51.0253 123.268C50.5493 123.007 50.1246 122.876 49.7513 122.876C49.322 122.876 48.9906 123.03 48.7573 123.338C48.524 123.646 48.4073 124.085 48.4073 124.654C48.4073 125.307 48.5333 125.807 48.7853 126.152C49.0373 126.497 49.3966 126.67 49.8633 126.67C50.2833 126.67 50.75 126.553 51.2633 126.32L51.4033 126.432L51.2213 127.874C50.6613 128.051 50.0873 128.14 49.4993 128.14C48.6033 128.14 47.9033 127.851 47.3993 127.272C46.8953 126.684 46.6433 125.867 46.6433 124.822C46.6433 123.739 46.9186 122.895 47.4693 122.288C48.02 121.672 48.7853 121.364 49.7653 121.364ZM55.18 121.364C56.132 121.364 56.86 121.644 57.364 122.204C57.868 122.764 58.12 123.571 58.12 124.626C58.12 125.765 57.8494 126.637 57.308 127.244C56.7667 127.841 55.9874 128.14 54.97 128.14C54.018 128.14 53.29 127.86 52.786 127.3C52.282 126.74 52.03 125.933 52.03 124.878C52.03 123.739 52.3007 122.871 52.842 122.274C53.3834 121.667 54.1627 121.364 55.18 121.364ZM55.054 122.624C54.606 122.624 54.2794 122.773 54.074 123.072C53.878 123.371 53.78 123.851 53.78 124.514C53.78 125.373 53.8827 125.984 54.088 126.348C54.2934 126.712 54.6294 126.894 55.096 126.894C55.544 126.894 55.866 126.749 56.062 126.46C56.2674 126.161 56.37 125.676 56.37 125.004C56.37 124.155 56.2627 123.548 56.048 123.184C55.8427 122.811 55.5114 122.624 55.054 122.624ZM63.318 123.94C63.3273 123.613 63.2526 123.361 63.094 123.184C62.9446 122.997 62.7253 122.904 62.436 122.904C62.016 122.904 61.568 123.105 61.092 123.506V125.13L61.176 128H59.314L59.412 125.312L59.342 121.616L61.106 121.462V122.414H61.204C61.7173 121.947 62.2773 121.611 62.884 121.406C63.5933 121.406 64.1346 121.569 64.508 121.896C64.8813 122.213 65.0586 122.675 65.04 123.282L64.998 125.144L65.082 128H63.206L63.318 123.94ZM69.3561 126.628C69.6548 126.628 69.9675 126.549 70.2941 126.39L70.4481 126.53L70.2661 127.636C69.7901 127.879 69.3048 128.028 68.8101 128.084C67.5501 127.953 66.9201 127.337 66.9201 126.236L66.9901 125.074L66.9761 122.666H66.1081L66.0381 122.568L66.1361 121.546H66.9621V120.468L68.6561 119.922L68.7821 120.034L68.7401 121.546H70.4061L70.4621 121.644L70.3781 122.666H68.7121L68.6281 125.802C68.6281 126.101 68.6841 126.315 68.7961 126.446C68.9081 126.567 69.0948 126.628 69.3561 126.628ZM75.0526 121.476C75.1366 121.476 75.2533 121.485 75.4026 121.504V123.226L75.2066 123.296C75.0479 123.231 74.8753 123.198 74.6886 123.198C74.1473 123.198 73.6573 123.548 73.2186 124.248V125.13L73.3166 128H71.4546L71.5666 125.312L71.4826 121.616L73.2466 121.462L73.2326 122.736H73.3446C73.8019 121.896 74.3713 121.476 75.0526 121.476ZM79.0238 121.364C79.9758 121.364 80.7038 121.644 81.2078 122.204C81.7118 122.764 81.9638 123.571 81.9638 124.626C81.9638 125.765 81.6931 126.637 81.1518 127.244C80.6104 127.841 79.8311 128.14 78.8138 128.14C77.8618 128.14 77.1338 127.86 76.6298 127.3C76.1258 126.74 75.8738 125.933 75.8738 124.878C75.8738 123.739 76.1444 122.871 76.6858 122.274C77.2271 121.667 78.0064 121.364 79.0238 121.364ZM78.8978 122.624C78.4498 122.624 78.1231 122.773 77.9178 123.072C77.7218 123.371 77.6238 123.851 77.6238 124.514C77.6238 125.373 77.7264 125.984 77.9318 126.348C78.1371 126.712 78.4731 126.894 78.9398 126.894C79.3878 126.894 79.7098 126.749 79.9058 126.46C80.1111 126.161 80.2138 125.676 80.2138 125.004C80.2138 124.155 80.1064 123.548 79.8918 123.184C79.6864 122.811 79.3551 122.624 78.8978 122.624ZM85.0597 125.13L85.1577 128H83.2957L83.3937 125.298L83.3097 118.312L85.1717 118.172L85.0597 125.13ZM89.4795 121.364C90.1981 121.364 90.7581 121.527 91.1595 121.854C91.5701 122.171 91.7755 122.619 91.7755 123.198C91.7755 123.366 91.7475 123.898 91.6915 124.794C91.6821 125.055 91.6681 125.326 91.6495 125.606C91.6308 125.877 91.6215 126.11 91.6215 126.306C91.6215 126.465 91.6448 126.577 91.6915 126.642C91.7381 126.698 91.8221 126.726 91.9435 126.726C92.0368 126.726 92.1581 126.707 92.3075 126.67L92.4475 126.782L92.2795 127.762C91.9808 127.958 91.6401 128.075 91.2575 128.112C90.9775 128.084 90.7441 127.986 90.5575 127.818C90.3708 127.641 90.2448 127.398 90.1795 127.09H90.0815C89.6148 127.585 89.1341 127.93 88.6395 128.126C87.9675 128.117 87.4401 127.939 87.0575 127.594C86.6748 127.249 86.4835 126.777 86.4835 126.18C86.4835 125.713 86.6001 125.349 86.8335 125.088C87.0761 124.817 87.4401 124.635 87.9255 124.542L90.0675 124.136V123.562C90.0675 122.955 89.7688 122.652 89.1715 122.652C88.8821 122.652 88.5741 122.717 88.2475 122.848C87.9301 122.979 87.5708 123.184 87.1695 123.464L87.0295 123.38L86.8195 122.148C87.2208 121.896 87.6501 121.705 88.1075 121.574C88.5648 121.434 89.0221 121.364 89.4795 121.364ZM88.5695 125.396C88.4201 125.433 88.3081 125.499 88.2335 125.592C88.1681 125.676 88.1355 125.807 88.1355 125.984C88.1355 126.227 88.2008 126.418 88.3315 126.558C88.4621 126.689 88.6441 126.754 88.8775 126.754C89.2415 126.754 89.6241 126.539 90.0255 126.11L90.0535 125.074L88.5695 125.396ZM101.374 128L101.486 123.94C101.486 123.249 101.192 122.904 100.604 122.904C100.184 122.904 99.745 123.091 99.2877 123.464L99.2457 125.144L99.3297 128H97.4677L97.5797 123.94C97.589 123.604 97.5143 123.347 97.3557 123.17C97.2063 122.993 96.987 122.904 96.6977 122.904C96.287 122.904 95.8343 123.1 95.3397 123.492V125.13L95.4237 128H93.5757L93.6737 125.312L93.6037 121.616L95.3537 121.462V122.414H95.4517C95.965 121.947 96.5297 121.611 97.1457 121.406C98.191 121.406 98.8583 121.756 99.1477 122.456H99.2317C99.7637 121.961 100.37 121.611 101.052 121.406C101.761 121.406 102.298 121.569 102.662 121.896C103.035 122.213 103.212 122.675 103.194 123.282L103.152 125.144L103.236 128H101.374ZM110.376 118.144C110.758 118.144 111.164 118.186 111.594 118.27L111.468 119.656L111.342 119.74C110.903 119.553 110.52 119.46 110.194 119.46C109.615 119.46 109.321 119.791 109.312 120.454L109.298 121.546H110.88L110.936 121.644L110.852 122.666H109.27L109.228 125.13L109.326 128H107.464L107.576 125.298L107.548 122.666H106.568L106.498 122.568L106.596 121.546H107.534L107.52 120.776C107.52 119.936 107.767 119.287 108.262 118.83C108.766 118.373 109.47 118.144 110.376 118.144ZM114.16 121.364C115.112 121.364 115.84 121.644 116.344 122.204C116.848 122.764 117.1 123.571 117.1 124.626C117.1 125.765 116.83 126.637 116.288 127.244C115.747 127.841 114.968 128.14 113.95 128.14C112.998 128.14 112.27 127.86 111.766 127.3C111.262 126.74 111.01 125.933 111.01 124.878C111.01 123.739 111.281 122.871 111.822 122.274C112.364 121.667 113.143 121.364 114.16 121.364ZM114.034 122.624C113.586 122.624 113.26 122.773 113.054 123.072C112.858 123.371 112.76 123.851 112.76 124.514C112.76 125.373 112.863 125.984 113.068 126.348C113.274 126.712 113.61 126.894 114.076 126.894C114.524 126.894 114.846 126.749 115.042 126.46C115.248 126.161 115.35 125.676 115.35 125.004C115.35 124.155 115.243 123.548 115.028 123.184C114.823 122.811 114.492 122.624 114.034 122.624ZM126.092 128L126.204 123.94C126.204 123.249 125.91 122.904 125.322 122.904C124.902 122.904 124.464 123.091 124.006 123.464L123.964 125.144L124.048 128H122.186L122.298 123.94C122.308 123.604 122.233 123.347 122.074 123.17C121.925 122.993 121.706 122.904 121.416 122.904C121.006 122.904 120.553 123.1 120.058 123.492V125.13L120.142 128H118.294L118.392 125.312L118.322 121.616L120.072 121.462V122.414H120.17C120.684 121.947 121.248 121.611 121.864 121.406C122.91 121.406 123.577 121.756 123.866 122.456H123.95C124.482 121.961 125.089 121.611 125.77 121.406C126.48 121.406 127.016 121.569 127.38 121.896C127.754 122.213 127.931 122.675 127.912 123.282L127.87 125.144L127.954 128H126.092ZM134.627 124.976L130.847 125.004C130.931 126.171 131.524 126.754 132.625 126.754C133.204 126.754 133.848 126.591 134.557 126.264L134.711 126.362L134.431 127.748C133.722 128.009 133.055 128.14 132.429 128.14C131.403 128.14 130.595 127.841 130.007 127.244C129.429 126.647 129.139 125.821 129.139 124.766C129.139 123.721 129.424 122.895 129.993 122.288C130.563 121.672 131.333 121.364 132.303 121.364C133.134 121.364 133.773 121.593 134.221 122.05C134.679 122.498 134.907 123.128 134.907 123.94C134.907 124.155 134.884 124.425 134.837 124.752L134.627 124.976ZM133.283 123.73C133.283 123.357 133.199 123.077 133.031 122.89C132.863 122.694 132.616 122.596 132.289 122.596C131.925 122.596 131.622 122.717 131.379 122.96C131.137 123.193 130.973 123.534 130.889 123.982L133.255 123.926L133.283 123.73ZM143.35 124.976L139.57 125.004C139.654 126.171 140.247 126.754 141.348 126.754C141.927 126.754 142.571 126.591 143.28 126.264L143.434 126.362L143.154 127.748C142.445 128.009 141.777 128.14 141.152 128.14C140.125 128.14 139.318 127.841 138.73 127.244C138.151 126.647 137.862 125.821 137.862 124.766C137.862 123.721 138.147 122.895 138.716 122.288C139.285 121.672 140.055 121.364 141.026 121.364C141.857 121.364 142.496 121.593 142.944 122.05C143.401 122.498 143.63 123.128 143.63 123.94C143.63 124.155 143.607 124.425 143.56 124.752L143.35 124.976ZM142.006 123.73C142.006 123.357 141.922 123.077 141.754 122.89C141.586 122.694 141.339 122.596 141.012 122.596C140.648 122.596 140.345 122.717 140.102 122.96C139.859 123.193 139.696 123.534 139.612 123.982L141.978 123.926L142.006 123.73ZM58.62 137.378C59.2547 137.378 59.852 137.485 60.412 137.7L60.16 139.072L59.936 139.142C59.6654 138.965 59.3947 138.829 59.124 138.736C58.8534 138.643 58.6154 138.596 58.41 138.596C58.186 138.596 58.0087 138.657 57.878 138.778C57.7474 138.89 57.682 139.03 57.682 139.198C57.682 139.394 57.766 139.553 57.934 139.674C58.1114 139.795 58.3867 139.931 58.76 140.08C59.1334 140.229 59.4414 140.374 59.684 140.514C59.9267 140.654 60.132 140.85 60.3 141.102C60.4774 141.345 60.566 141.648 60.566 142.012C60.566 142.385 60.468 142.735 60.272 143.062C60.0854 143.379 59.796 143.641 59.404 143.846C59.012 144.042 58.5314 144.14 57.962 144.14C57.29 144.14 56.5947 144 55.876 143.72L56.086 142.264L56.268 142.152C56.5574 142.395 56.8794 142.591 57.234 142.74C57.5887 142.88 57.9014 142.95 58.172 142.95C58.424 142.95 58.62 142.889 58.76 142.768C58.9 142.637 58.97 142.483 58.97 142.306C58.97 142.11 58.8814 141.951 58.704 141.83C58.536 141.709 58.2654 141.573 57.892 141.424C57.5094 141.256 57.1967 141.107 56.954 140.976C56.7114 140.836 56.5014 140.64 56.324 140.388C56.156 140.136 56.072 139.823 56.072 139.45C56.072 138.843 56.3007 138.349 56.758 137.966C57.2154 137.574 57.836 137.378 58.62 137.378ZM64.3711 137.364C65.0897 137.364 65.6497 137.527 66.0511 137.854C66.4617 138.171 66.6671 138.619 66.6671 139.198C66.6671 139.366 66.6391 139.898 66.5831 140.794C66.5737 141.055 66.5597 141.326 66.5411 141.606C66.5224 141.877 66.5131 142.11 66.5131 142.306C66.5131 142.465 66.5364 142.577 66.5831 142.642C66.6297 142.698 66.7137 142.726 66.8351 142.726C66.9284 142.726 67.0497 142.707 67.1991 142.67L67.3391 142.782L67.1711 143.762C66.8724 143.958 66.5317 144.075 66.1491 144.112C65.8691 144.084 65.6357 143.986 65.4491 143.818C65.2624 143.641 65.1364 143.398 65.0711 143.09H64.9731C64.5064 143.585 64.0257 143.93 63.5311 144.126C62.8591 144.117 62.3317 143.939 61.9491 143.594C61.5664 143.249 61.3751 142.777 61.3751 142.18C61.3751 141.713 61.4917 141.349 61.7251 141.088C61.9677 140.817 62.3317 140.635 62.8171 140.542L64.9591 140.136V139.562C64.9591 138.955 64.6604 138.652 64.0631 138.652C63.7737 138.652 63.4657 138.717 63.1391 138.848C62.8217 138.979 62.4624 139.184 62.0611 139.464L61.9211 139.38L61.7111 138.148C62.1124 137.896 62.5417 137.705 62.9991 137.574C63.4564 137.434 63.9137 137.364 64.3711 137.364ZM63.4611 141.396C63.3117 141.433 63.1997 141.499 63.1251 141.592C63.0597 141.676 63.0271 141.807 63.0271 141.984C63.0271 142.227 63.0924 142.418 63.2231 142.558C63.3537 142.689 63.5357 142.754 63.7691 142.754C64.1331 142.754 64.5157 142.539 64.9171 142.11L64.9451 141.074L63.4611 141.396ZM71.2233 137.364C71.5313 137.364 71.8346 137.397 72.1333 137.462C72.4413 137.518 72.712 137.602 72.9453 137.714L72.6373 139.198L72.4833 139.268C72.0073 139.007 71.5826 138.876 71.2093 138.876C70.78 138.876 70.4486 139.03 70.2153 139.338C69.982 139.646 69.8653 140.085 69.8653 140.654C69.8653 141.307 69.9913 141.807 70.2433 142.152C70.4953 142.497 70.8546 142.67 71.3213 142.67C71.7413 142.67 72.208 142.553 72.7213 142.32L72.8613 142.432L72.6793 143.874C72.1193 144.051 71.5453 144.14 70.9573 144.14C70.0613 144.14 69.3613 143.851 68.8573 143.272C68.3533 142.684 68.1013 141.867 68.1013 140.822C68.1013 139.739 68.3766 138.895 68.9273 138.288C69.478 137.672 70.2433 137.364 71.2233 137.364ZM74.062 141.312L73.992 137.616L75.826 137.462L75.742 141.13L75.826 144H73.964L74.062 141.312ZM74.944 134.298C75.2334 134.298 75.4574 134.382 75.616 134.55C75.784 134.718 75.868 134.951 75.868 135.25C75.868 135.567 75.7794 135.819 75.602 136.006C75.4247 136.193 75.182 136.286 74.874 136.286C74.566 136.286 74.328 136.202 74.16 136.034C74.0014 135.866 73.922 135.628 73.922 135.32C73.922 135.012 74.0107 134.765 74.188 134.578C74.3747 134.391 74.6267 134.298 74.944 134.298ZM82.6264 140.976L78.8464 141.004C78.9304 142.171 79.5231 142.754 80.6244 142.754C81.2031 142.754 81.8471 142.591 82.5564 142.264L82.7104 142.362L82.4304 143.748C81.7211 144.009 81.0538 144.14 80.4284 144.14C79.4018 144.14 78.5944 143.841 78.0064 143.244C77.4278 142.647 77.1384 141.821 77.1384 140.766C77.1384 139.721 77.4231 138.895 77.9924 138.288C78.5618 137.672 79.3318 137.364 80.3024 137.364C81.1331 137.364 81.7724 137.593 82.2204 138.05C82.6778 138.498 82.9064 139.128 82.9064 139.94C82.9064 140.155 82.8831 140.425 82.8364 140.752L82.6264 140.976ZM81.2824 139.73C81.2824 139.357 81.1984 139.077 81.0304 138.89C80.8624 138.694 80.6151 138.596 80.2884 138.596C79.9244 138.596 79.6211 138.717 79.3784 138.96C79.1358 139.193 78.9724 139.534 78.8884 139.982L81.2544 139.926L81.2824 139.73ZM89.6219 141.13L89.6639 142.306C89.6639 142.465 89.6826 142.577 89.7199 142.642C89.7666 142.698 89.8459 142.726 89.9579 142.726C90.0606 142.726 90.1866 142.707 90.3359 142.67L90.4619 142.782L90.3079 143.762C89.9906 143.958 89.6453 144.075 89.2719 144.112C88.9826 144.084 88.7399 143.986 88.5439 143.818C88.3479 143.65 88.2126 143.421 88.1379 143.132H88.0259C87.5686 143.552 87.1019 143.874 86.6259 144.098C85.7113 144.098 85.0019 143.809 84.4979 143.23C83.9939 142.642 83.7419 141.83 83.7419 140.794C83.7419 139.693 84.0313 138.848 84.6099 138.26C85.1886 137.672 85.9913 137.378 87.0179 137.378C87.2886 137.378 87.5873 137.406 87.9139 137.462L87.8859 134.312L89.7339 134.172L89.6219 141.13ZM86.8919 138.638C85.9586 138.638 85.4919 139.231 85.4919 140.416C85.4919 141.153 85.6039 141.709 85.8279 142.082C86.0519 142.455 86.3786 142.642 86.8079 142.642C87.2186 142.642 87.5966 142.451 87.9419 142.068L87.9699 141.298L87.9279 138.89C87.5639 138.722 87.2186 138.638 86.8919 138.638ZM94.1211 137.364C94.8397 137.364 95.3997 137.527 95.8011 137.854C96.2117 138.171 96.4171 138.619 96.4171 139.198C96.4171 139.366 96.3891 139.898 96.3331 140.794C96.3237 141.055 96.3097 141.326 96.2911 141.606C96.2724 141.877 96.2631 142.11 96.2631 142.306C96.2631 142.465 96.2864 142.577 96.3331 142.642C96.3797 142.698 96.4637 142.726 96.5851 142.726C96.6784 142.726 96.7997 142.707 96.9491 142.67L97.0891 142.782L96.9211 143.762C96.6224 143.958 96.2817 144.075 95.8991 144.112C95.6191 144.084 95.3857 143.986 95.1991 143.818C95.0124 143.641 94.8864 143.398 94.8211 143.09H94.7231C94.2564 143.585 93.7757 143.93 93.2811 144.126C92.6091 144.117 92.0817 143.939 91.6991 143.594C91.3164 143.249 91.1251 142.777 91.1251 142.18C91.1251 141.713 91.2417 141.349 91.4751 141.088C91.7177 140.817 92.0817 140.635 92.5671 140.542L94.7091 140.136V139.562C94.7091 138.955 94.4104 138.652 93.8131 138.652C93.5237 138.652 93.2157 138.717 92.8891 138.848C92.5717 138.979 92.2124 139.184 91.8111 139.464L91.6711 139.38L91.4611 138.148C91.8624 137.896 92.2917 137.705 92.7491 137.574C93.2064 137.434 93.6637 137.364 94.1211 137.364ZM93.2111 141.396C93.0617 141.433 92.9497 141.499 92.8751 141.592C92.8097 141.676 92.7771 141.807 92.7771 141.984C92.7771 142.227 92.8424 142.418 92.9731 142.558C93.1037 142.689 93.2857 142.754 93.5191 142.754C93.8831 142.754 94.2657 142.539 94.6671 142.11L94.6951 141.074L93.2111 141.396ZM103.731 141.13L103.773 142.306C103.773 142.465 103.792 142.577 103.829 142.642C103.876 142.698 103.955 142.726 104.067 142.726C104.17 142.726 104.296 142.707 104.445 142.67L104.571 142.782L104.417 143.762C104.1 143.958 103.755 144.075 103.381 144.112C103.092 144.084 102.849 143.986 102.653 143.818C102.457 143.65 102.322 143.421 102.247 143.132H102.135C101.678 143.552 101.211 143.874 100.735 144.098C99.8206 144.098 99.1113 143.809 98.6073 143.23C98.1033 142.642 97.8513 141.83 97.8513 140.794C97.8513 139.693 98.1406 138.848 98.7193 138.26C99.298 137.672 100.101 137.378 101.127 137.378C101.398 137.378 101.697 137.406 102.023 137.462L101.995 134.312L103.843 134.172L103.731 141.13ZM101.001 138.638C100.068 138.638 99.6013 139.231 99.6013 140.416C99.6013 141.153 99.7133 141.709 99.9373 142.082C100.161 142.455 100.488 142.642 100.917 142.642C101.328 142.642 101.706 142.451 102.051 142.068L102.079 141.298L102.037 138.89C101.673 138.722 101.328 138.638 101.001 138.638ZM110.708 140.976L106.928 141.004C107.012 142.171 107.605 142.754 108.706 142.754C109.285 142.754 109.929 142.591 110.638 142.264L110.792 142.362L110.512 143.748C109.803 144.009 109.136 144.14 108.51 144.14C107.484 144.14 106.676 143.841 106.088 143.244C105.51 142.647 105.22 141.821 105.22 140.766C105.22 139.721 105.505 138.895 106.074 138.288C106.644 137.672 107.414 137.364 108.384 137.364C109.215 137.364 109.854 137.593 110.302 138.05C110.76 138.498 110.988 139.128 110.988 139.94C110.988 140.155 110.965 140.425 110.918 140.752L110.708 140.976ZM109.364 139.73C109.364 139.357 109.28 139.077 109.112 138.89C108.944 138.694 108.697 138.596 108.37 138.596C108.006 138.596 107.703 138.717 107.46 138.96C107.218 139.193 107.054 139.534 106.97 139.982L109.336 139.926L109.364 139.73Z" fill="white"/>
<defs>
<filter id="filter0_b_206:36972" x="3" y="67" width="161" height="97" filterUnits="userSpaceOnUse" color-interpolation-filters="sRGB">
<feFlood flood-opacity="0" result="BackgroundImageFix"/>
<feGaussianBlur in="BackgroundImage" stdDeviation="5"/>
<feComposite in2="SourceAlpha" operator="in" result="effect1_backgroundBlur_206:36972"/>
<feBlend mode="normal" in="SourceGraphic" in2="effect1_backgroundBlur_206:36972" result="shape"/>
</filter>
</defs>
</svg>
