<svg width="167" height="167" viewBox="0 0 167 167" fill="none" xmlns="http://www.w3.org/2000/svg">
<mask id="mask0_206:36980" style="mask-type:alpha" maskUnits="userSpaceOnUse" x="0" y="0" width="167" height="167">
<rect x="1" y="1" width="165" height="165" rx="8" fill="#5988D6" stroke="#EDE6FC" stroke-opacity="0.3"/>
</mask>
<g mask="url(#mask0_206:36980)">
<rect x="1" y="1" width="165" height="165" rx="8" fill="#A97AD9" stroke="#EDE6FC" stroke-opacity="0.3"/>
<path d="M111.862 72.4838L111.182 72.8837C110.906 72.6345 110.604 72.4162 110.28 72.2328L79.7568 54.6083C76.7824 52.891 71.5392 53.108 68.1047 55.0918L58.9226 60.4082C58.2598 60.7796 57.6593 61.2523 57.1426 61.8092L56.5048 61.4093C56.5048 61.4093 55.1849 63.3539 56.3898 65.4711C56.3898 65.4711 56.3898 65.4867 56.4107 65.4998C56.8024 66.1927 57.3836 66.7594 58.0862 67.1334L88.607 84.758C91.5841 86.4752 96.8273 86.2583 100.262 84.2744L109.444 78.9659C110.401 78.4534 111.21 77.7048 111.796 76.7912L111.82 76.7625C112.225 76.124 112.443 75.3851 112.45 74.6291C112.458 73.8731 112.254 73.1301 111.862 72.4838Z" fill="#BC9B96"/>
<path d="M88.6071 83.4746L58.0862 65.85C55.1118 64.1328 55.4881 61.1061 58.9226 59.1222L68.1048 53.8215C71.5393 51.8377 76.7825 51.6207 79.7569 53.338L110.28 70.9599C113.255 72.6772 112.878 75.7065 109.444 77.6878L100.262 82.9911C96.8274 84.9775 91.5842 85.1919 88.6071 83.4746Z" fill="#DEC9C5"/>
<path d="M65.4153 62.7815C63.5857 62.7815 62.1194 61.9974 62.1194 61.0303V63.3434C62.1194 64.3105 63.5962 65.0947 65.4153 65.0947C67.2345 65.0947 68.7087 64.3105 68.7087 63.3434V61.0303C68.7087 61.9974 67.2345 62.7815 65.4153 62.7815Z" fill="#399EE2"/>
<path d="M65.4153 59.2764C63.5857 59.2764 62.1194 60.0606 62.1194 61.0303C62.1194 62 63.5962 62.7815 65.4153 62.7815C67.2345 62.7815 68.7087 61.9974 68.7087 61.0303C68.7087 60.0632 67.2345 59.2764 65.4153 59.2764Z" fill="#65B6F8"/>
<path opacity="0.5" d="M65.4154 63.1605C62.8958 63.1605 60.8518 62.0732 60.8518 60.7323V63.9368C60.8518 65.2776 62.8958 66.365 65.4154 66.365C67.9351 66.365 69.9764 65.2776 69.9764 63.9368V60.7323C69.9764 62.0732 67.9351 63.1605 65.4154 63.1605Z" fill="#E6F3FF"/>
<path opacity="0.5" d="M65.4154 58.3172C62.8958 58.3172 60.8518 59.4019 60.8518 60.7428C60.8518 62.0836 62.8958 63.1709 65.4154 63.1709C67.9351 63.1709 69.9764 62.0732 69.9764 60.7323C69.9764 59.3914 67.9351 58.3172 65.4154 58.3172Z" fill="white"/>
<path d="M74.5399 57.4546C72.7103 57.4546 71.2466 56.6705 71.2466 55.7034V58.014C71.2466 58.9837 72.7207 59.7678 74.5399 59.7678C76.3591 59.7678 77.8359 58.9837 77.8359 58.014V55.7034C77.8359 56.6705 76.3617 57.4546 74.5399 57.4546Z" fill="#399EE2"/>
<path d="M74.5399 53.9496C72.7103 53.9496 71.2466 54.7337 71.2466 55.7034C71.2466 56.6731 72.7207 57.4546 74.5399 57.4546C76.3591 57.4546 77.8359 56.6705 77.8359 55.7034C77.8359 54.7363 76.3617 53.9496 74.5399 53.9496Z" fill="#65B6F8"/>
<path opacity="0.5" d="M74.54 57.8336C72.0203 57.8336 69.979 56.7463 69.979 55.4055V58.6099C69.979 59.9482 72.0203 61.0355 74.54 61.0355C77.0597 61.0355 79.1036 59.9482 79.1036 58.6099V55.4055C79.1036 56.7489 77.0623 57.8336 74.54 57.8336Z" fill="#E6F3FF"/>
<path opacity="0.5" d="M74.54 52.9773C72.0203 52.9773 69.979 54.0646 69.979 55.4055C69.979 56.7463 72.0203 57.8336 74.54 57.8336C77.0597 57.8336 79.1036 56.7463 79.1036 55.4055C79.1036 54.0646 77.0623 52.9773 74.54 52.9773Z" fill="white"/>
<path d="M75.0577 68.205C73.228 68.205 71.7617 67.4209 71.7617 66.4538V68.7722C71.7617 69.7393 73.2385 70.5235 75.0577 70.5235C76.8769 70.5235 78.351 69.7393 78.351 68.7722V66.4591C78.3406 67.4209 76.8769 68.205 75.0577 68.205Z" fill="#399EE2"/>
<path d="M75.0577 64.7C73.228 64.7 71.7617 65.4841 71.7617 66.4538C71.7617 67.4235 73.2385 68.205 75.0577 68.205C76.8769 68.205 78.351 67.4209 78.351 66.4538C78.351 65.4867 76.8769 64.7 75.0577 64.7Z" fill="#65B6F8"/>
<path opacity="0.5" d="M75.0575 68.584C72.5352 68.584 70.4939 67.4967 70.4939 66.1559V69.3603C70.4939 70.7012 72.5352 71.7885 75.0575 71.7885C77.5798 71.7885 79.6211 70.7012 79.6211 69.3603V66.1585C79.6211 67.4967 77.5772 68.584 75.0575 68.584Z" fill="#E6F3FF"/>
<path opacity="0.5" d="M75.0575 63.7303C72.5352 63.7303 70.4939 64.815 70.4939 66.1559C70.4939 67.4967 72.5352 68.584 75.0575 68.584C77.5798 68.584 79.6211 67.4967 79.6211 66.1559C79.6211 64.815 77.5772 63.7303 75.0575 63.7303Z" fill="white"/>
<path d="M84.182 62.8782C82.3524 62.8782 80.8887 62.0941 80.8887 61.127V63.4375C80.8887 64.4072 82.3628 65.1914 84.182 65.1914C86.0012 65.1914 87.478 64.4072 87.478 63.4375V61.127C87.4884 62.0941 86.0012 62.8782 84.182 62.8782Z" fill="#399EE2"/>
<path d="M84.182 59.3627C82.3524 59.3627 80.8887 60.1468 80.8887 61.1165C80.8887 62.0862 82.3628 62.8677 84.182 62.8677C86.0012 62.8677 87.478 62.0836 87.478 61.1165C87.478 60.1494 86.0012 59.3627 84.182 59.3627Z" fill="#65B6F8"/>
<path opacity="0.5" d="M84.1821 63.2572C81.6624 63.2572 79.6211 62.1699 79.6211 60.829V64.0335C79.6211 65.3743 81.6624 66.459 84.1821 66.459C86.7018 66.459 88.7457 65.3743 88.7457 64.0335V60.829C88.7457 62.1699 86.7044 63.2572 84.1821 63.2572Z" fill="#E6F3FF"/>
<path opacity="0.5" d="M84.1821 58.4034C81.6624 58.4034 79.6211 59.4882 79.6211 60.829C79.6211 62.1699 81.6624 63.2572 84.1821 63.2572C86.7018 63.2572 88.7457 62.1699 88.7457 60.829C88.7457 59.4882 86.7044 58.4034 84.1821 58.4034Z" fill="white"/>
<path d="M84.6998 73.6286C82.8701 73.6286 81.4038 72.8445 81.4038 71.8774V74.1906C81.4038 75.1576 82.8806 75.9418 84.6998 75.9418C86.5189 75.9418 87.9931 75.1576 87.9931 74.1906V71.8774C87.9931 72.8445 86.5189 73.6286 84.6998 73.6286Z" fill="#399EE2"/>
<path d="M84.6998 70.1262C82.8701 70.1262 81.4038 70.9103 81.4038 71.8774C81.4038 72.8445 82.8806 73.6286 84.6998 73.6286C86.5189 73.6286 87.9931 72.8445 87.9931 71.8774C87.9931 70.9103 86.5189 70.1262 84.6998 70.1262Z" fill="#65B6F8"/>
<path opacity="0.5" d="M84.6996 73.9997C82.1773 73.9997 80.136 72.9124 80.136 71.5716V74.7839C80.136 76.1247 82.1773 77.2121 84.6996 77.2121C87.2219 77.2121 89.2606 76.1247 89.2606 74.7839V71.5794C89.2606 72.9203 87.2271 73.9997 84.6996 73.9997Z" fill="#E6F3FF"/>
<path opacity="0.5" d="M84.6996 69.1538C82.1773 69.1538 80.136 70.2412 80.136 71.5794C80.136 72.9176 82.1773 74.0076 84.6996 74.0076C87.2219 74.0076 89.2606 72.9203 89.2606 71.5794C89.2606 70.2385 87.2271 69.1538 84.6996 69.1538Z" fill="white"/>
<path d="M93.8243 68.3018C91.9947 68.3018 90.531 67.5176 90.531 66.5505V68.8637C90.531 69.8308 92.0052 70.6149 93.8243 70.6149C95.6435 70.6149 97.1203 69.8308 97.1203 68.8637V66.5505C97.1203 67.5176 95.6435 68.3018 93.8243 68.3018Z" fill="#399EE2"/>
<path d="M93.8243 64.7967C91.9947 64.7967 90.531 65.5808 90.531 66.5505C90.531 67.5202 92.0052 68.3018 93.8243 68.3018C95.6435 68.3018 97.1203 67.5176 97.1203 66.5505C97.1203 65.5834 95.6435 64.7967 93.8243 64.7967Z" fill="#65B6F8"/>
<path opacity="0.5" d="M93.8241 68.6807C91.3045 68.6807 89.2605 67.5934 89.2605 66.2526V69.457C89.2605 70.7979 91.3045 71.8826 93.8241 71.8826C96.3438 71.8826 98.3878 70.7979 98.3878 69.457V66.2526C98.3878 67.5934 96.3464 68.6807 93.8241 68.6807Z" fill="#E6F3FF"/>
<path opacity="0.5" d="M93.8241 63.827C91.3045 63.827 89.2605 64.9117 89.2605 66.2526C89.2605 67.5934 91.3045 68.6807 93.8241 68.6807C96.3438 68.6807 98.3878 67.5934 98.3878 66.2526C98.3878 64.9117 96.3464 63.827 93.8241 63.827Z" fill="white"/>
<path d="M94.3419 79.0548C92.5122 79.0548 91.0459 78.2706 91.0459 77.3009V79.6141C91.0459 80.5812 92.5201 81.3653 94.3419 81.3653C96.1636 81.3653 97.6352 80.5812 97.6352 79.6141V77.3009C97.6352 78.268 96.161 79.0548 94.3419 79.0548Z" fill="#399EE2"/>
<path d="M94.3419 75.5497C92.5122 75.5497 91.0459 76.3338 91.0459 77.3009C91.0459 78.268 92.5201 79.0548 94.3419 79.0548C96.1636 79.0548 97.6352 78.2706 97.6352 77.3009C97.6352 76.3312 96.161 75.5497 94.3419 75.5497Z" fill="#65B6F8"/>
<path opacity="0.5" d="M94.3419 79.4311C91.8197 79.4311 89.7783 78.3438 89.7783 77.0056V80.2074C89.7783 81.5483 91.8197 82.6356 94.3419 82.6356C96.8642 82.6356 98.903 81.5483 98.903 80.2074V77.0056C98.903 78.3438 96.8616 79.4311 94.3419 79.4311Z" fill="#E6F3FF"/>
<path opacity="0.5" d="M94.3419 74.5774C91.8197 74.5774 89.7783 75.6647 89.7783 77.0056C89.7783 78.3464 91.8197 79.4311 94.3419 79.4311C96.8642 79.4311 98.903 78.3438 98.903 77.0056C98.903 75.6673 96.8616 74.5774 94.3419 74.5774Z" fill="white"/>
<path d="M103.466 73.7384C101.637 73.7384 100.173 72.9542 100.173 71.9872V74.3003C100.173 75.2674 101.647 76.0516 103.466 76.0516C105.286 76.0516 106.762 75.2674 106.762 74.3003V71.9872C106.762 72.9542 105.286 73.7384 103.466 73.7384Z" fill="#399EE2"/>
<path d="M103.466 70.2203C101.637 70.2203 100.173 71.0044 100.173 71.9741C100.173 72.9438 101.647 73.7253 103.466 73.7253C105.286 73.7253 106.762 72.9412 106.762 71.9741C106.762 71.007 105.286 70.2203 103.466 70.2203Z" fill="#65B6F8"/>
<path opacity="0.5" d="M103.466 74.1043C100.947 74.1043 98.9028 73.017 98.9028 71.6761V74.8806C98.9028 76.2214 100.947 77.3088 103.466 77.3088C105.986 77.3088 108.03 76.2214 108.03 74.8806V71.6761C108.03 73.017 105.986 74.1043 103.466 74.1043Z" fill="#E6F3FF"/>
<path opacity="0.5" d="M103.466 69.2505C100.947 69.2505 98.9028 70.3353 98.9028 71.6761C98.9028 73.017 100.947 74.1043 103.466 74.1043C105.986 74.1043 108.03 73.017 108.03 71.6761C108.03 70.3353 105.986 69.2505 103.466 69.2505Z" fill="white"/>
<path d="M115.897 56.7934C111.543 56.7934 108.012 58.6727 108.012 60.9885C108.012 63.3042 111.543 65.1835 115.897 65.1835C120.252 65.1835 123.786 63.3042 123.786 60.9885C123.786 58.6727 120.255 56.7934 115.897 56.7934Z" fill="#EA3636"/>
<path d="M106.164 37.2372V58.3825C106.164 61.242 110.521 63.5604 115.897 63.5604C121.274 63.5604 125.634 61.242 125.634 58.3825V37.2372H106.164Z" fill="#F74D41"/>
<path d="M115.897 46.3749C110.521 46.3749 106.164 44.0565 106.164 41.1971V53.5863C106.164 56.4484 110.521 58.7668 115.897 58.7668C121.274 58.7668 125.634 56.4484 125.634 53.5863V41.1971C125.634 44.0565 121.274 46.3749 115.897 46.3749Z" fill="#EFE2E1"/>
<path d="M125.634 37.0229C125.634 34.1843 122.084 31.4896 122.084 31.4896L120.801 32.7964C117.604 31.8242 114.191 31.8242 110.994 32.7964L109.713 31.4896C109.713 31.4896 106.164 34.1843 106.164 37.0229V37.2372C106.164 40.0967 110.521 42.4151 115.897 42.4151C121.274 42.4151 125.634 40.0967 125.634 37.2372V37.0229Z" fill="#FF5E4C"/>
<path d="M115.898 29.6024C111.935 29.6024 108.723 31.3118 108.723 33.4185C108.723 35.5252 111.935 37.2372 115.898 37.2372C119.86 37.2372 123.075 35.5278 123.075 33.4185C123.075 31.3092 119.863 29.6024 115.898 29.6024Z" fill="#F74D41"/>
<path d="M115.9 34.8665C118.633 34.8665 120.848 33.6881 120.848 32.2345C120.848 30.7808 118.633 29.6024 115.9 29.6024C113.168 29.6024 110.952 30.7808 110.952 32.2345C110.952 33.6881 113.168 34.8665 115.9 34.8665Z" fill="#EA3636"/>
<path d="M109.836 24.009V29.0091C109.836 29.5998 110.215 30.1226 110.735 30.5983V26.7586C110.735 26.5208 110.882 26.411 111.062 26.513C111.16 26.5841 111.241 26.6771 111.297 26.7846C111.353 26.8921 111.384 27.0111 111.386 27.1324V31.1106C111.948 31.442 112.553 31.6927 113.184 31.8555V27.9348C113.192 27.8408 113.235 27.7531 113.305 27.6892C113.374 27.6253 113.465 27.5898 113.559 27.5898C113.654 27.5898 113.745 27.6253 113.814 27.6892C113.884 27.7531 113.927 27.8408 113.935 27.9348V32.0228C114.517 32.1347 115.108 32.1985 115.701 32.2136V28.1701C115.709 28.076 115.752 27.9883 115.822 27.9244C115.891 27.8605 115.982 27.825 116.077 27.825C116.171 27.825 116.262 27.8605 116.331 27.9244C116.401 27.9883 116.444 28.076 116.452 28.1701V32.1796C117.066 32.1657 117.678 32.0992 118.281 31.9809V27.778C118.277 27.7261 118.283 27.6739 118.3 27.6246C118.317 27.5754 118.344 27.5302 118.379 27.4919C118.415 27.4535 118.457 27.4229 118.505 27.402C118.553 27.3811 118.604 27.3703 118.656 27.3703C118.708 27.3703 118.76 27.3811 118.808 27.402C118.855 27.4229 118.898 27.4535 118.933 27.4919C118.969 27.5302 118.995 27.5754 119.012 27.6246C119.029 27.6739 119.036 27.7261 119.031 27.778V31.6987C119.559 31.5361 120.063 31.3069 120.532 31.0165V27.1324C120.534 27.0111 120.565 26.8921 120.621 26.7846C120.677 26.6771 120.758 26.5841 120.856 26.513C121.036 26.411 121.183 26.513 121.183 26.7586V30.512C121.643 30.0572 121.967 29.5632 121.967 29.0091V24.009H109.836Z" fill="#DEC9C5"/>
<path d="M116.075 27.7963C115.976 27.797 115.882 27.8366 115.812 27.9065C115.742 27.9765 115.702 28.0712 115.701 28.1701V32.2136C115.769 32.2136 115.829 32.2345 115.897 32.2345C116.093 32.2345 116.261 32.1848 116.452 32.1744V28.1701C116.451 28.0707 116.411 27.9756 116.34 27.9056C116.27 27.8356 116.175 27.7963 116.075 27.7963Z" fill="#BC9B96"/>
<path d="M113.561 27.5637C113.461 27.5637 113.366 27.603 113.295 27.673C113.225 27.743 113.185 27.8381 113.184 27.9375V31.8581C113.43 31.9234 113.673 31.9783 113.934 32.0254V27.9375C113.934 27.8383 113.895 27.7433 113.825 27.6732C113.755 27.6031 113.66 27.5637 113.561 27.5637Z" fill="#BC9B96"/>
<path d="M118.647 27.4016C118.548 27.4023 118.452 27.4422 118.382 27.5126C118.311 27.5831 118.271 27.6784 118.271 27.778V31.9757C118.526 31.9028 118.776 31.8155 119.021 31.7143V27.7937C119.023 27.7432 119.015 27.6928 118.997 27.6454C118.979 27.5981 118.952 27.5549 118.917 27.5183C118.882 27.4817 118.84 27.4525 118.794 27.4325C118.748 27.4124 118.698 27.4019 118.647 27.4016Z" fill="#BC9B96"/>
<path d="M120.845 26.513C120.747 26.5841 120.667 26.6771 120.61 26.7846C120.554 26.8921 120.524 27.0111 120.521 27.1324V31.0243C120.755 30.8726 120.973 30.6974 121.172 30.5016V26.7586C121.172 26.5208 121.026 26.411 120.845 26.513Z" fill="#BC9B96"/>
<path d="M111.062 26.513C110.882 26.411 110.735 26.513 110.735 26.7586V30.6113C110.933 30.808 111.151 30.9832 111.386 31.1341V27.1324C111.384 27.0111 111.353 26.8921 111.297 26.7846C111.241 26.6771 111.16 26.5841 111.062 26.513Z" fill="#BC9B96"/>
<path d="M115.897 20.7836C112.549 20.7836 109.836 22.2264 109.836 24.009C109.836 25.7916 112.549 27.2317 115.897 27.2317C119.246 27.2317 121.961 25.7889 121.961 24.009C121.961 22.229 119.246 20.7836 115.897 20.7836Z" fill="#EAD9D8"/>
<path d="M115.952 20.7836C113.43 20.7836 111.386 21.8709 111.386 23.2144C111.386 24.5579 113.43 25.6452 115.952 25.6452C118.475 25.6452 120.521 24.5579 120.521 23.217C120.521 21.8761 118.477 20.7836 115.952 20.7836Z" fill="#EFE2E1"/>
<path d="M108.903 33.1728C108.239 33.9298 107.694 34.7839 107.288 35.7055C107.042 36.2884 106.569 37.4803 107.026 38.0579C107.411 38.5415 107.952 38.1912 108.15 37.7443C108.355 37.1739 108.515 36.5884 108.629 35.9931C108.822 35.256 109.191 34.1634 109.353 33.4081C109.444 33.05 109.311 32.7363 108.903 33.1728Z" fill="white"/>
<path d="M119.17 51.1764C118.467 51.3677 117.748 51.4929 117.021 51.5502V49.169H114.891V51.558C114.166 51.505 113.446 51.3861 112.743 51.2025L112.374 51.1032V53.1367L112.591 53.1942C113.344 53.3923 114.114 53.5192 114.891 53.5732V56.0275H117.024V53.5654C117.803 53.5049 118.575 53.371 119.329 53.1655L119.541 53.1054V51.0718L119.17 51.1764Z" fill="#EFE2E1"/>
<path d="M102.489 15.9743V45.2615C102.489 48.9495 96.8665 51.9422 89.9296 51.9422C82.9927 51.9422 77.3835 48.9495 77.3835 45.2615V15.8384L102.489 15.9743Z" fill="#399EE2"/>
<path d="M82.3708 26.1026C84.7808 27.0349 87.346 27.5006 89.9298 27.4748C96.8668 27.4748 102.489 24.4847 102.489 20.794V40.426C102.489 44.114 96.8668 47.1068 89.9298 47.1068C87.3456 47.1309 84.7804 46.6634 82.3708 45.7293V26.1026Z" fill="#EFE2E1"/>
<path d="M85.1047 30.8335C86.6873 31.1971 88.3059 31.3813 89.9297 31.3824C96.8667 31.3824 102.489 28.3922 102.489 24.7016V26.9521C102.489 30.6401 96.8667 33.6328 89.9297 33.6328C88.3058 33.6309 86.6872 33.4459 85.1047 33.0813V30.8335Z" fill="#422C2A"/>
<path d="M77.9194 13.9878H77.9063C78.0122 13.7914 78.1291 13.6012 78.2565 13.418C78.3219 13.3265 78.382 13.2377 78.4552 13.1566C79.3595 11.9308 81.5133 9.66203 85.7554 8.49368C87.2244 8.08855 88.066 8.46493 88.5103 9.25167C88.9808 9.22292 89.4434 9.17326 89.9296 9.17326C90.4158 9.17326 90.8993 9.22292 91.3802 9.25167C91.8246 8.46755 92.6636 8.08594 94.1351 8.49368C98.5785 9.71692 100.748 12.1529 101.574 13.337C101.861 13.7421 102.489 15.211 102.489 15.854C102.489 19.5447 96.8665 22.5374 89.9296 22.5374C82.9927 22.5374 77.3835 19.5447 77.3835 15.854C77.4017 15.1967 77.5861 14.5547 77.9194 13.9878Z" fill="#65B6F8"/>
<path d="M89.6552 7.94479C93.3902 7.94479 96.417 9.55487 96.417 11.5413C96.417 13.5278 93.3902 15.1352 89.6552 15.1352C85.9201 15.1352 82.896 13.5252 82.896 11.5309C82.896 9.53657 85.9201 7.94479 89.6552 7.94479Z" fill="#399EE2"/>
<path d="M96.7205 3.42822V9.12622C96.7205 9.79796 96.2866 10.3965 95.6932 10.9376C95.4678 11.1603 95.2199 11.3592 94.9535 11.5309C94.3115 11.9074 93.62 12.1925 92.8991 12.3777C92.6195 12.4535 92.345 12.5163 92.0444 12.5712C91.3798 12.6987 90.7058 12.7712 90.0292 12.7881C89.9508 12.7881 89.8828 12.8116 89.8044 12.8116C89.5797 12.8116 89.3915 12.7567 89.1745 12.7437C88.4767 12.7268 87.7815 12.6507 87.0966 12.5163C86.8061 12.4306 86.5208 12.3285 86.2419 12.2105C85.64 12.0236 85.0646 11.76 84.5299 11.4263C84.2645 11.2562 84.0167 11.0601 83.7902 10.8408C83.2674 10.3181 82.8884 9.75875 82.8884 9.12883V3.42822H96.7205Z" fill="#563937"/>
<path d="M89.6006 7.74093C89.7138 7.74093 89.8225 7.78573 89.9028 7.86555C89.9831 7.94538 90.0286 8.05374 90.0293 8.16697V12.7803C89.9508 12.7803 89.8829 12.8038 89.8045 12.8038C89.5797 12.8038 89.3915 12.7489 89.1746 12.7358V8.16697C89.1746 8.05398 89.2194 7.94561 89.2993 7.86571C89.3792 7.78582 89.4876 7.74093 89.6006 7.74093Z" fill="#422C2A"/>
<path d="M92.4728 7.47694C92.5856 7.47762 92.6936 7.52273 92.7734 7.60248C92.8531 7.68223 92.8982 7.7902 92.8989 7.90298V12.3699C92.6192 12.4457 92.3448 12.5084 92.0442 12.5633V7.90298C92.0449 7.78975 92.0904 7.68139 92.1707 7.60156C92.251 7.52174 92.3596 7.47693 92.4728 7.47694Z" fill="#422C2A"/>
<path d="M86.6706 7.29136C86.7836 7.29273 86.8916 7.33841 86.9713 7.41858C87.0509 7.49875 87.096 7.60699 87.0966 7.72002V12.5084C86.8062 12.4227 86.5208 12.3206 86.2419 12.2026V7.72002C86.2426 7.60654 86.288 7.49791 86.3683 7.41767C86.4485 7.33743 86.5571 7.29204 86.6706 7.29136Z" fill="#422C2A"/>
<path d="M84.1586 6.27722C84.2713 6.35822 84.3636 6.46444 84.4281 6.58742C84.4925 6.7104 84.5273 6.84673 84.5297 6.98555V11.4289C84.2643 11.2589 84.0165 11.0627 83.79 10.8435V6.56473C83.79 6.28767 83.9547 6.1596 84.1586 6.27722Z" fill="#422C2A"/>
<path d="M95.3298 6.27722C95.5336 6.1596 95.7009 6.27722 95.7009 6.55689V10.9376C95.473 11.1608 95.2225 11.3596 94.9534 11.5309V6.98555C94.9568 6.84636 94.9926 6.70989 95.0579 6.58694C95.1233 6.46399 95.2163 6.35795 95.3298 6.27722Z" fill="#422C2A"/>
<path d="M89.8044 -0.259796C93.6231 -0.259796 96.7205 1.38687 96.7205 3.42038C96.7205 5.45388 93.6231 7.08748 89.8044 7.08748C85.9857 7.08748 82.8884 5.45127 82.8884 3.42822C82.8884 1.40517 85.9857 -0.259796 89.8044 -0.259796Z" fill="#664444"/>
<path d="M96.2264 36.1943C97.8914 35.4102 100.536 35.3893 100.536 35.3893L101.255 36.7876C101.885 38.1259 100.659 40.0339 98.516 41.0455C96.425 42.0361 94.219 41.7956 93.5368 40.5227L92.771 39.0512C92.771 39.0512 94.5614 36.9811 96.2264 36.1943Z" fill="#BC9B96"/>
<path d="M97.7971 39.6471C99.943 38.6356 101.169 36.7275 100.536 35.3893C99.9038 34.051 97.6612 33.7844 95.5101 34.796C93.3589 35.8075 92.1383 37.7155 92.7708 39.0538C93.4034 40.392 95.6538 40.6586 97.7971 39.6471Z" fill="#DEC9C5"/>
<path d="M86.004 37.9926C87.2011 37.8384 88.8164 38.1233 90.4474 38.8839C92.2065 39.702 93.5499 40.8599 94.1511 41.9446L95.0058 42.3602L94.3654 43.7063C93.7329 45.068 90.9492 45.1177 88.1525 43.816C85.3558 42.5144 83.602 40.3554 84.2319 38.9937L84.9376 37.4777L86.004 37.9926Z" fill="#BC9B96"/>
<path d="M88.8608 42.3001C91.6576 43.6069 94.4386 43.5521 95.0738 42.1903C95.7089 40.8285 93.9524 38.6696 91.1531 37.3679C88.3538 36.0663 85.5727 36.1159 84.9402 37.4777C84.3077 38.8395 86.0641 40.9984 88.8608 42.3001Z" fill="#D1B8B4"/>
<path d="M56.7611 73.8429C55.4763 73.2979 54.0949 73.017 52.6993 73.017C51.3037 73.017 49.9223 73.2979 48.6375 73.8429L46.5779 72.5177V76.2737C46.5779 78.072 49.3171 79.5305 52.6993 79.5305C56.0815 79.5305 58.8207 78.072 58.8207 76.2737V72.5177L56.7611 73.8429Z" fill="#C4A8A5"/>
<path d="M52.6993 69.261C49.3171 69.261 46.5779 70.7195 46.5779 72.5177C46.5779 74.316 49.3276 75.7745 52.6993 75.7745C56.0711 75.7745 58.8207 74.316 58.8207 72.5177C58.8207 70.7195 56.0789 69.261 52.6993 69.261Z" fill="#EFE2E1"/>
<path d="M50.3732 69.5564L48.1489 70.3405L55.8857 75.3066L56.8554 74.9172C56.8554 74.9172 57.6891 74.3944 57.6029 74.3343L50.3732 69.5564Z" fill="#D1B8B4"/>
<path d="M63.7662 79.75C65.0515 79.205 66.4332 78.9242 67.8293 78.9242C69.2253 78.9242 70.6071 79.205 71.8924 79.75L73.9494 78.4248V82.1808C73.9494 83.9791 71.2102 85.4376 67.828 85.4376C64.4458 85.4376 61.7065 83.9791 61.7065 82.1808V78.417L63.7662 79.75Z" fill="#C4A8A5"/>
<path d="M67.828 75.1603C71.2102 75.1603 73.9494 76.6187 73.9494 78.417C73.9494 80.2153 71.2102 81.6711 67.828 81.6711C64.4458 81.6711 61.7065 80.2153 61.7065 78.417C61.7065 76.6187 64.4484 75.1603 67.828 75.1603Z" fill="#EFE2E1"/>
<path d="M70.1593 75.4556L72.3836 76.2397L64.6468 81.2059L63.6771 80.8164C63.6771 80.8164 62.8433 80.2937 62.9296 80.2336L70.1593 75.4556Z" fill="#D1B8B4"/>
<path d="M51.3899 25.4805V46.5004C51.3899 49.1455 55.4255 51.2914 60.4021 51.2914C65.3787 51.2914 69.4144 49.1455 69.4144 46.5004V25.3838L51.3899 25.4805Z" fill="#7FA521"/>
<path d="M51.3899 28.7948V42.2792C51.3899 44.9269 55.4255 47.0728 60.4021 47.0728C62.3839 47.1018 64.3503 46.7219 66.1785 45.9567V32.4723C64.3499 33.2362 62.3837 33.6161 60.4021 33.5884C55.4255 33.5884 51.3899 31.4425 51.3899 28.7948Z" fill="#EFE2E1"/>
<path d="M63.868 35.2612C62.7298 35.5116 61.5676 35.6369 60.4021 35.635C55.436 35.635 51.3899 33.4891 51.3899 30.8413V33.0317C51.3899 35.6794 55.4255 37.8253 60.4021 37.8253C61.5676 37.8272 62.7298 37.7019 63.868 37.4515V35.2612Z" fill="#422C2A"/>
<path d="M68.6172 21.3116C66.7301 20.0361 63.8079 19.2206 60.5146 19.2206C58.6838 19.2081 56.8625 19.4833 55.1172 20.0361L54.2651 19.9576L50.2007 22.3701V24.7068C50.2007 27.7362 54.8192 30.1957 60.5146 30.1957C66.21 30.1957 70.8285 27.7388 70.8285 24.7068V22.3649L68.6172 21.3116Z" fill="#DEC9C5"/>
<path d="M60.5197 16.8786C54.8243 16.8786 50.2058 19.333 50.2058 22.3675C50.2058 25.4021 54.8243 27.8564 60.5197 27.8564C66.2151 27.8564 70.8336 25.3995 70.8336 22.3675C70.8336 19.3356 66.2151 16.8786 60.5197 16.8786Z" fill="#EFE2E1"/>
<path d="M67.3627 18.7658C65.7709 17.6967 63.3166 17.0198 60.5669 17.0198C59.0304 17.0109 57.502 17.2428 56.0373 17.7072L55.3211 17.6392L51.9102 18.9461V21.6122C51.9102 24.1553 55.7864 26.215 60.5669 26.215C65.3475 26.215 69.2237 24.1553 69.2237 21.6122V18.9435L67.3627 18.7658Z" fill="#7FA521"/>
<path d="M60.5669 14.3381C55.7864 14.3381 51.9102 16.4003 51.9102 18.9435C51.9102 21.4867 55.7785 23.5542 60.5669 23.5542C65.3553 23.5542 69.2237 21.4919 69.2237 18.9513C69.2237 16.4108 65.3397 14.3381 60.5669 14.3381Z" fill="#97C941"/>
<path d="M41.6562 54.3364L42.6338 54.1378C43.4074 53.3052 44.3373 52.6328 45.3704 52.1592C47.83 50.9725 50.7182 50.6118 52.817 51.0954C53.2551 51.1914 53.6793 51.3425 54.0795 51.5449L55.6477 51.5946C55.6477 51.5946 55.6477 53.6621 55.6477 53.8424C55.5745 55.2173 54.2415 56.7672 51.9414 57.8755C48.5278 59.5221 44.2909 59.5796 42.477 58.0009C42.2019 57.7793 41.9848 57.4941 41.8446 57.1699C41.7043 56.8456 41.6451 56.4922 41.6719 56.1399L41.6562 54.3364Z" fill="#399EE2"/>
<path d="M45.3704 49.9532C41.9568 51.5998 40.6656 54.2136 42.4744 55.7923C44.2831 57.371 48.5252 57.3161 51.9388 55.6694C55.3524 54.0228 56.6436 51.4064 54.8348 49.8277C53.0261 48.249 48.784 48.2934 45.3704 49.9532Z" fill="#65B6F8"/>
<path d="M47.085 49.2997C50.692 50.8863 52.187 53.568 52.187 53.568L50.9298 54.3364C50.9298 54.3364 48.12 50.8706 45.3704 49.9532L47.085 49.2997Z" fill="#399EE2"/>
</g>
<g filter="url(#filter0_b_206:36980)">
<rect x="13" y="77" width="141" height="77" rx="10" fill="black" fill-opacity="0.8"/>
</g>
<path d="M61.512 103.138L61.4 104.552L59.706 104.468H59.146L59.076 109.144L59.16 112H57.256L57.354 109.312L57.284 104.468H56.724L55.002 104.552L54.876 104.398L55.002 102.984H61.4L61.512 103.138ZM64.3744 105.364C65.3264 105.364 66.0544 105.644 66.5584 106.204C67.0624 106.764 67.3144 107.571 67.3144 108.626C67.3144 109.765 67.0437 110.637 66.5024 111.244C65.961 111.841 65.1817 112.14 64.1644 112.14C63.2124 112.14 62.4844 111.86 61.9804 111.3C61.4764 110.74 61.2244 109.933 61.2244 108.878C61.2244 107.739 61.495 106.871 62.0364 106.274C62.5777 105.667 63.357 105.364 64.3744 105.364ZM64.2484 106.624C63.8004 106.624 63.4737 106.773 63.2684 107.072C63.0724 107.371 62.9744 107.851 62.9744 108.514C62.9744 109.373 63.077 109.984 63.2824 110.348C63.4877 110.712 63.8237 110.894 64.2904 110.894C64.7384 110.894 65.0604 110.749 65.2564 110.46C65.4617 110.161 65.5644 109.676 65.5644 109.004C65.5644 108.155 65.457 107.548 65.2424 107.184C65.037 106.811 64.7057 106.624 64.2484 106.624ZM76.3063 112L76.4183 107.94C76.4183 107.249 76.1243 106.904 75.5363 106.904C75.1163 106.904 74.6776 107.091 74.2203 107.464L74.1783 109.144L74.2623 112H72.4003L72.5123 107.94C72.5216 107.604 72.447 107.347 72.2883 107.17C72.139 106.993 71.9196 106.904 71.6303 106.904C71.2196 106.904 70.767 107.1 70.2723 107.492V109.13L70.3563 112H68.5083L68.6063 109.312L68.5363 105.616L70.2863 105.462V106.414H70.3843C70.8976 105.947 71.4623 105.611 72.0783 105.406C73.1236 105.406 73.791 105.756 74.0803 106.456H74.1643C74.6963 105.961 75.303 105.611 75.9843 105.406C76.6936 105.406 77.2303 105.569 77.5943 105.896C77.9676 106.213 78.145 106.675 78.1263 107.282L78.0843 109.144L78.1683 112H76.3063ZM84.8413 108.976L81.0613 109.004C81.1453 110.171 81.7379 110.754 82.8393 110.754C83.4179 110.754 84.0619 110.591 84.7713 110.264L84.9253 110.362L84.6453 111.748C83.9359 112.009 83.2686 112.14 82.6433 112.14C81.6166 112.14 80.8093 111.841 80.2213 111.244C79.6426 110.647 79.3533 109.821 79.3533 108.766C79.3533 107.721 79.6379 106.895 80.2073 106.288C80.7766 105.672 81.5466 105.364 82.5173 105.364C83.3479 105.364 83.9873 105.593 84.4353 106.05C84.8926 106.498 85.1213 107.128 85.1213 107.94C85.1213 108.155 85.0979 108.425 85.0513 108.752L84.8413 108.976ZM83.4973 107.73C83.4973 107.357 83.4133 107.077 83.2453 106.89C83.0773 106.694 82.8299 106.596 82.5033 106.596C82.1393 106.596 81.8359 106.717 81.5933 106.96C81.3506 107.193 81.1873 107.534 81.1033 107.982L83.4693 107.926L83.4973 107.73ZM90.7079 105.378C91.3426 105.378 91.9399 105.485 92.4999 105.7L92.2479 107.072L92.0239 107.142C91.7533 106.965 91.4826 106.829 91.2119 106.736C90.9413 106.643 90.7033 106.596 90.4979 106.596C90.2739 106.596 90.0966 106.657 89.9659 106.778C89.8353 106.89 89.7699 107.03 89.7699 107.198C89.7699 107.394 89.8539 107.553 90.0219 107.674C90.1993 107.795 90.4746 107.931 90.8479 108.08C91.2213 108.229 91.5293 108.374 91.7719 108.514C92.0146 108.654 92.2199 108.85 92.3879 109.102C92.5653 109.345 92.6539 109.648 92.6539 110.012C92.6539 110.385 92.5559 110.735 92.3599 111.062C92.1733 111.379 91.8839 111.641 91.4919 111.846C91.0999 112.042 90.6193 112.14 90.0499 112.14C89.3779 112.14 88.6826 112 87.9639 111.72L88.1739 110.264L88.3559 110.152C88.6453 110.395 88.9673 110.591 89.3219 110.74C89.6766 110.88 89.9893 110.95 90.2599 110.95C90.5119 110.95 90.7079 110.889 90.8479 110.768C90.9879 110.637 91.0579 110.483 91.0579 110.306C91.0579 110.11 90.9693 109.951 90.7919 109.83C90.6239 109.709 90.3533 109.573 89.9799 109.424C89.5973 109.256 89.2846 109.107 89.0419 108.976C88.7993 108.836 88.5893 108.64 88.4119 108.388C88.2439 108.136 88.1599 107.823 88.1599 107.45C88.1599 106.843 88.3886 106.349 88.8459 105.966C89.3033 105.574 89.9239 105.378 90.7079 105.378ZM98.937 108.976L95.157 109.004C95.241 110.171 95.8336 110.754 96.935 110.754C97.5136 110.754 98.1576 110.591 98.867 110.264L99.021 110.362L98.741 111.748C98.0316 112.009 97.3643 112.14 96.739 112.14C95.7123 112.14 94.905 111.841 94.317 111.244C93.7383 110.647 93.449 109.821 93.449 108.766C93.449 107.721 93.7336 106.895 94.303 106.288C94.8723 105.672 95.6423 105.364 96.613 105.364C97.4436 105.364 98.083 105.593 98.531 106.05C98.9883 106.498 99.217 107.128 99.217 107.94C99.217 108.155 99.1936 108.425 99.147 108.752L98.937 108.976ZM97.593 107.73C97.593 107.357 97.509 107.077 97.341 106.89C97.173 106.694 96.9256 106.596 96.599 106.596C96.235 106.596 95.9316 106.717 95.689 106.96C95.4463 107.193 95.283 107.534 95.199 107.982L97.565 107.926L97.593 107.73ZM106.716 110.782L106.548 111.762C106.203 111.986 105.848 112.103 105.484 112.112C105.214 112.065 104.99 111.958 104.812 111.79C104.635 111.622 104.5 111.379 104.406 111.062H104.28C103.748 111.585 103.198 111.925 102.628 112.084C101.919 112.084 101.378 111.925 101.004 111.608C100.64 111.281 100.463 110.815 100.472 110.208L100.5 108.556L100.43 105.616L102.236 105.462L102.194 109.592C102.185 109.919 102.25 110.166 102.39 110.334C102.53 110.502 102.74 110.586 103.02 110.586C103.431 110.586 103.837 110.404 104.238 110.04V105.616L106.016 105.462L105.89 110.306C105.89 110.455 105.914 110.563 105.96 110.628C106.016 110.693 106.1 110.726 106.212 110.726C106.315 110.726 106.441 110.707 106.59 110.67L106.716 110.782ZM109.999 105.378C110.634 105.378 111.231 105.485 111.791 105.7L111.539 107.072L111.315 107.142C111.044 106.965 110.774 106.829 110.503 106.736C110.232 106.643 109.994 106.596 109.789 106.596C109.565 106.596 109.388 106.657 109.257 106.778C109.126 106.89 109.061 107.03 109.061 107.198C109.061 107.394 109.145 107.553 109.313 107.674C109.49 107.795 109.766 107.931 110.139 108.08C110.512 108.229 110.82 108.374 111.063 108.514C111.306 108.654 111.511 108.85 111.679 109.102C111.856 109.345 111.945 109.648 111.945 110.012C111.945 110.385 111.847 110.735 111.651 111.062C111.464 111.379 111.175 111.641 110.783 111.846C110.391 112.042 109.91 112.14 109.341 112.14C108.669 112.14 107.974 112 107.255 111.72L107.465 110.264L107.647 110.152C107.936 110.395 108.258 110.591 108.613 110.74C108.968 110.88 109.28 110.95 109.551 110.95C109.803 110.95 109.999 110.889 110.139 110.768C110.279 110.637 110.349 110.483 110.349 110.306C110.349 110.11 110.26 109.951 110.083 109.83C109.915 109.709 109.644 109.573 109.271 109.424C108.888 109.256 108.576 109.107 108.333 108.976C108.09 108.836 107.88 108.64 107.703 108.388C107.535 108.136 107.451 107.823 107.451 107.45C107.451 106.843 107.68 106.349 108.137 105.966C108.594 105.574 109.215 105.378 109.999 105.378ZM50.6237 128L50.7357 123.94C50.7357 123.249 50.4417 122.904 49.8537 122.904C49.4337 122.904 48.995 123.091 48.5377 123.464L48.4957 125.144L48.5797 128H46.7177L46.8297 123.94C46.839 123.604 46.7643 123.347 46.6057 123.17C46.4563 122.993 46.237 122.904 45.9477 122.904C45.537 122.904 45.0843 123.1 44.5897 123.492V125.13L44.6737 128H42.8257L42.9237 125.312L42.8537 121.616L44.6037 121.462V122.414H44.7017C45.215 121.947 45.7797 121.611 46.3957 121.406C47.441 121.406 48.1083 121.756 48.3977 122.456H48.4817C49.0137 121.961 49.6203 121.611 50.3017 121.406C51.011 121.406 51.5477 121.569 51.9117 121.896C52.285 122.213 52.4623 122.675 52.4437 123.282L52.4017 125.144L52.4857 128H50.6237ZM59.1586 124.976L55.3786 125.004C55.4626 126.171 56.0553 126.754 57.1566 126.754C57.7353 126.754 58.3793 126.591 59.0886 126.264L59.2426 126.362L58.9626 127.748C58.2533 128.009 57.586 128.14 56.9606 128.14C55.934 128.14 55.1266 127.841 54.5386 127.244C53.96 126.647 53.6706 125.821 53.6706 124.766C53.6706 123.721 53.9553 122.895 54.5246 122.288C55.094 121.672 55.864 121.364 56.8346 121.364C57.6653 121.364 58.3046 121.593 58.7526 122.05C59.21 122.498 59.4386 123.128 59.4386 123.94C59.4386 124.155 59.4153 124.425 59.3686 124.752L59.1586 124.976ZM57.8146 123.73C57.8146 123.357 57.7306 123.077 57.5626 122.89C57.3946 122.694 57.1473 122.596 56.8206 122.596C56.4566 122.596 56.1533 122.717 55.9106 122.96C55.668 123.193 55.5046 123.534 55.4206 123.982L57.7866 123.926L57.8146 123.73ZM66.1542 125.13L66.1962 126.306C66.1962 126.465 66.2148 126.577 66.2522 126.642C66.2988 126.698 66.3782 126.726 66.4902 126.726C66.5928 126.726 66.7188 126.707 66.8682 126.67L66.9942 126.782L66.8402 127.762C66.5228 127.958 66.1775 128.075 65.8042 128.112C65.5148 128.084 65.2722 127.986 65.0762 127.818C64.8802 127.65 64.7448 127.421 64.6702 127.132H64.5582C64.1008 127.552 63.6342 127.874 63.1582 128.098C62.2435 128.098 61.5342 127.809 61.0302 127.23C60.5262 126.642 60.2742 125.83 60.2742 124.794C60.2742 123.693 60.5635 122.848 61.1422 122.26C61.7208 121.672 62.5235 121.378 63.5502 121.378C63.8208 121.378 64.1195 121.406 64.4462 121.462L64.4182 118.312L66.2662 118.172L66.1542 125.13ZM63.4242 122.638C62.4908 122.638 62.0242 123.231 62.0242 124.416C62.0242 125.153 62.1362 125.709 62.3602 126.082C62.5842 126.455 62.9108 126.642 63.3402 126.642C63.7508 126.642 64.1288 126.451 64.4742 126.068L64.5022 125.298L64.4602 122.89C64.0962 122.722 63.7508 122.638 63.4242 122.638ZM68.2173 125.312L68.1473 121.616L69.9813 121.462L69.8973 125.13L69.9813 128H68.1193L68.2173 125.312ZM69.0993 118.298C69.3886 118.298 69.6126 118.382 69.7713 118.55C69.9393 118.718 70.0233 118.951 70.0233 119.25C70.0233 119.567 69.9346 119.819 69.7573 120.006C69.58 120.193 69.3373 120.286 69.0293 120.286C68.7213 120.286 68.4833 120.202 68.3153 120.034C68.1566 119.866 68.0773 119.628 68.0773 119.32C68.0773 119.012 68.166 118.765 68.3433 118.578C68.53 118.391 68.782 118.298 69.0993 118.298ZM74.4157 121.364C74.7237 121.364 75.027 121.397 75.3257 121.462C75.6337 121.518 75.9044 121.602 76.1377 121.714L75.8297 123.198L75.6757 123.268C75.1997 123.007 74.775 122.876 74.4017 122.876C73.9724 122.876 73.641 123.03 73.4077 123.338C73.1744 123.646 73.0577 124.085 73.0577 124.654C73.0577 125.307 73.1837 125.807 73.4357 126.152C73.6877 126.497 74.047 126.67 74.5137 126.67C74.9337 126.67 75.4004 126.553 75.9137 126.32L76.0537 126.432L75.8717 127.874C75.3117 128.051 74.7377 128.14 74.1497 128.14C73.2537 128.14 72.5537 127.851 72.0497 127.272C71.5457 126.684 71.2937 125.867 71.2937 124.822C71.2937 123.739 71.569 122.895 72.1197 122.288C72.6704 121.672 73.4357 121.364 74.4157 121.364ZM79.5537 121.364C80.2724 121.364 80.8324 121.527 81.2337 121.854C81.6444 122.171 81.8497 122.619 81.8497 123.198C81.8497 123.366 81.8217 123.898 81.7657 124.794C81.7564 125.055 81.7424 125.326 81.7237 125.606C81.705 125.877 81.6957 126.11 81.6957 126.306C81.6957 126.465 81.719 126.577 81.7657 126.642C81.8124 126.698 81.8964 126.726 82.0177 126.726C82.111 126.726 82.2324 126.707 82.3817 126.67L82.5217 126.782L82.3537 127.762C82.055 127.958 81.7144 128.075 81.3317 128.112C81.0517 128.084 80.8184 127.986 80.6317 127.818C80.445 127.641 80.319 127.398 80.2537 127.09H80.1557C79.689 127.585 79.2084 127.93 78.7137 128.126C78.0417 128.117 77.5144 127.939 77.1317 127.594C76.749 127.249 76.5577 126.777 76.5577 126.18C76.5577 125.713 76.6744 125.349 76.9077 125.088C77.1504 124.817 77.5144 124.635 77.9997 124.542L80.1417 124.136V123.562C80.1417 122.955 79.843 122.652 79.2457 122.652C78.9564 122.652 78.6484 122.717 78.3217 122.848C78.0044 122.979 77.645 123.184 77.2437 123.464L77.1037 123.38L76.8937 122.148C77.295 121.896 77.7244 121.705 78.1817 121.574C78.639 121.434 79.0964 121.364 79.5537 121.364ZM78.6437 125.396C78.4944 125.433 78.3824 125.499 78.3077 125.592C78.2424 125.676 78.2097 125.807 78.2097 125.984C78.2097 126.227 78.275 126.418 78.4057 126.558C78.5364 126.689 78.7184 126.754 78.9517 126.754C79.3157 126.754 79.6984 126.539 80.0997 126.11L80.1277 125.074L78.6437 125.396ZM91.4479 128L91.5599 123.94C91.5599 123.249 91.2659 122.904 90.6779 122.904C90.2579 122.904 89.8192 123.091 89.3619 123.464L89.3199 125.144L89.4039 128H87.5419L87.6539 123.94C87.6632 123.604 87.5886 123.347 87.4299 123.17C87.2806 122.993 87.0612 122.904 86.7719 122.904C86.3612 122.904 85.9086 123.1 85.4139 123.492V125.13L85.4979 128H83.6499L83.7479 125.312L83.6779 121.616L85.4279 121.462V122.414H85.5259C86.0392 121.947 86.6039 121.611 87.2199 121.406C88.2652 121.406 88.9326 121.756 89.2219 122.456H89.3059C89.8379 121.961 90.4446 121.611 91.1259 121.406C91.8352 121.406 92.3719 121.569 92.7359 121.896C93.1092 122.213 93.2866 122.675 93.2679 123.282L93.2259 125.144L93.3099 128H91.4479ZM99.9829 124.976L96.2029 125.004C96.2869 126.171 96.8795 126.754 97.9809 126.754C98.5595 126.754 99.2035 126.591 99.9129 126.264L100.067 126.362L99.7869 127.748C99.0775 128.009 98.4102 128.14 97.7849 128.14C96.7582 128.14 95.9509 127.841 95.3629 127.244C94.7842 126.647 94.4949 125.821 94.4949 124.766C94.4949 123.721 94.7795 122.895 95.3489 122.288C95.9182 121.672 96.6882 121.364 97.6589 121.364C98.4895 121.364 99.1289 121.593 99.5769 122.05C100.034 122.498 100.263 123.128 100.263 123.94C100.263 124.155 100.24 124.425 100.193 124.752L99.9829 124.976ZM98.6389 123.73C98.6389 123.357 98.5549 123.077 98.3869 122.89C98.2189 122.694 97.9715 122.596 97.6449 122.596C97.2809 122.596 96.9775 122.717 96.7349 122.96C96.4922 123.193 96.3289 123.534 96.2449 123.982L98.6109 123.926L98.6389 123.73ZM105.55 123.94C105.56 123.613 105.485 123.361 105.326 123.184C105.177 122.997 104.958 122.904 104.668 122.904C104.248 122.904 103.8 123.105 103.324 123.506V125.13L103.408 128H101.546L101.644 125.312L101.574 121.616L103.338 121.462V122.414H103.436C103.95 121.947 104.51 121.611 105.116 121.406C105.826 121.406 106.367 121.569 106.74 121.896C107.114 122.213 107.291 122.675 107.272 123.282L107.23 125.144L107.314 128H105.438L105.55 123.94ZM111.589 126.628C111.887 126.628 112.2 126.549 112.527 126.39L112.681 126.53L112.499 127.636C112.023 127.879 111.537 128.028 111.043 128.084C109.783 127.953 109.153 127.337 109.153 126.236L109.223 125.074L109.209 122.666H108.341L108.271 122.568L108.369 121.546H109.195V120.468L110.889 119.922L111.015 120.034L110.973 121.546H112.639L112.695 121.644L112.611 122.666H110.945L110.861 125.802C110.861 126.101 110.917 126.315 111.029 126.446C111.141 126.567 111.327 126.628 111.589 126.628ZM116.293 121.364C117.245 121.364 117.973 121.644 118.477 122.204C118.981 122.764 119.233 123.571 119.233 124.626C119.233 125.765 118.963 126.637 118.421 127.244C117.88 127.841 117.101 128.14 116.083 128.14C115.131 128.14 114.403 127.86 113.899 127.3C113.395 126.74 113.143 125.933 113.143 124.878C113.143 123.739 113.414 122.871 113.955 122.274C114.497 121.667 115.276 121.364 116.293 121.364ZM116.167 122.624C115.719 122.624 115.393 122.773 115.187 123.072C114.991 123.371 114.893 123.851 114.893 124.514C114.893 125.373 114.996 125.984 115.201 126.348C115.407 126.712 115.743 126.894 116.209 126.894C116.657 126.894 116.979 126.749 117.175 126.46C117.381 126.161 117.483 125.676 117.483 125.004C117.483 124.155 117.376 123.548 117.161 123.184C116.956 122.811 116.625 122.624 116.167 122.624ZM122.693 121.378C123.328 121.378 123.925 121.485 124.485 121.7L124.233 123.072L124.009 123.142C123.739 122.965 123.468 122.829 123.197 122.736C122.927 122.643 122.689 122.596 122.483 122.596C122.259 122.596 122.082 122.657 121.951 122.778C121.821 122.89 121.755 123.03 121.755 123.198C121.755 123.394 121.839 123.553 122.007 123.674C122.185 123.795 122.46 123.931 122.833 124.08C123.207 124.229 123.515 124.374 123.757 124.514C124 124.654 124.205 124.85 124.373 125.102C124.551 125.345 124.639 125.648 124.639 126.012C124.639 126.385 124.541 126.735 124.345 127.062C124.159 127.379 123.869 127.641 123.477 127.846C123.085 128.042 122.605 128.14 122.035 128.14C121.363 128.14 120.668 128 119.949 127.72L120.159 126.264L120.341 126.152C120.631 126.395 120.953 126.591 121.307 126.74C121.662 126.88 121.975 126.95 122.245 126.95C122.497 126.95 122.693 126.889 122.833 126.768C122.973 126.637 123.043 126.483 123.043 126.306C123.043 126.11 122.955 125.951 122.777 125.83C122.609 125.709 122.339 125.573 121.965 125.424C121.583 125.256 121.27 125.107 121.027 124.976C120.785 124.836 120.575 124.64 120.397 124.388C120.229 124.136 120.145 123.823 120.145 123.45C120.145 122.843 120.374 122.349 120.831 121.966C121.289 121.574 121.909 121.378 122.693 121.378Z" fill="white"/>
<defs>
<filter id="filter0_b_206:36980" x="3" y="67" width="161" height="97" filterUnits="userSpaceOnUse" color-interpolation-filters="sRGB">
<feFlood flood-opacity="0" result="BackgroundImageFix"/>
<feGaussianBlur in="BackgroundImage" stdDeviation="5"/>
<feComposite in2="SourceAlpha" operator="in" result="effect1_backgroundBlur_206:36980"/>
<feBlend mode="normal" in="SourceGraphic" in2="effect1_backgroundBlur_206:36980" result="shape"/>
</filter>
</defs>
</svg>
