<svg width="167" height="167" viewBox="0 0 167 167" fill="none" xmlns="http://www.w3.org/2000/svg">
<mask id="mask0_206:36964" style="mask-type:alpha" maskUnits="userSpaceOnUse" x="0" y="0" width="167" height="167">
<rect x="1" y="1" width="165" height="165" rx="8" fill="#5988D6" stroke="#EDE6FC" stroke-opacity="0.3"/>
</mask>
<g mask="url(#mask0_206:36964)">
<rect x="1" y="1" width="165" height="165" rx="8" fill="#FAE28B" stroke="#EDE6FC" stroke-opacity="0.3"/>
<path d="M111.486 146.989C109.881 147.394 104.715 136.007 104.715 136.007C104.715 136.007 101.799 134.521 97.6683 132.272C95.7321 131.221 93.5315 130 91.2345 128.694C82.8164 123.859 73.1958 117.863 70.965 114.309C70.4728 113.539 70.1589 112.667 70.0465 111.758C69.9341 110.849 70.0261 109.926 70.3156 109.057C71.7166 104.313 77.5311 100.312 77.5311 100.312L79.4673 99L82.6781 102.161L89.581 108.961L87.5426 110.574L85.7387 111.976C91.6434 114.998 94.3432 119.749 97.0009 122.801C97.3797 123.236 97.7645 123.654 98.1553 124.065C102.166 128.295 106.712 131.233 109.412 132.073C110.039 132.267 110.586 132.662 110.97 133.198C111.353 133.733 111.551 134.381 111.534 135.04C111.509 135.938 111.32 136.823 110.975 137.651C110.368 139.005 113.091 146.578 111.486 146.989Z" fill="#FFA6A6"/>
<path d="M97.3771 129.51C97.4618 130.746 97.5464 131.981 97.5102 133C95.5629 131.925 93.3495 130.678 91.0393 129.344C90.483 127.843 89.8661 126.015 89.1827 123.785C87.1992 122.395 77.9404 115.861 70 109.277C71.4091 104.429 77.257 100.34 77.257 100.34L79.2043 99L82.4337 102.23C82.857 103.052 83.2138 103.861 83.5646 104.645C84.0286 105.782 84.5828 106.879 85.2216 107.925C85.899 108.956 86.6065 109.926 87.3262 110.827L85.5119 112.26C91.4506 115.348 94.1659 120.203 96.8389 123.322C97.2199 123.767 97.6069 124.193 98 124.613C97.8111 125.124 97.5806 125.617 97.3106 126.089C97.2252 127.229 97.2474 128.375 97.3771 129.51Z" fill="#FF6767"/>
<path d="M109.448 71.7426L111.953 71C111.953 71 117.274 83.5029 103.923 97.2841L89.2123 110C89.2123 110 80.865 107.249 77 99.4024L82.9504 93.364L109.448 71.7426Z" fill="#FF7F00"/>
<path d="M73 60.8887C73 60.8887 75.4629 73.196 75.0172 82L81 79.4654L78.9257 60.9436L77 59L73 60.8887Z" fill="#FF6767"/>
<path d="M90.4811 127C89.0708 127.165 85.904 116.99 85.904 116.99C85.904 116.99 62.3267 101.044 59.5009 95.0056C56.6752 88.9668 66.5989 83.9002 66.5989 83.9002L68.3915 83L73.7899 91.6879V95.0056C77.3648 97.4489 88.4044 113.482 90.76 114.346C91.152 114.494 91.4851 114.764 91.7088 115.117C91.9325 115.469 92.0347 115.885 91.9999 116.301C91.8946 117.276 91.5792 118.216 91.0751 119.058C90.3984 120.133 91.8914 126.83 90.4811 127Z" fill="#FFA6A6"/>
<path d="M83 106C81.8259 103.923 80.4141 101.973 78.7897 100.183C75.7578 96.757 68.5156 94.7362 68.5156 94.7362L70.0316 94.3356C66.6366 90.0548 67.0123 84.0463 67.0123 84.0463L69.2226 83L75.8788 93.1219V96.9782C80.2738 99.7941 81.5796 103.106 83 106Z" fill="#FF6767"/>
<path d="M77.3819 76.4797L84.291 72.8085L111.872 71C111.872 71 118.026 86.1129 101.582 91.5745C86.3076 96.2947 75.7003 97 75.7003 97C75.7003 97 69.9732 95.9511 67 83.0385L77.3819 76.4797Z" fill="#D9917A"/>
<path d="M106.879 47.3378C107.117 37.5825 105.974 27.8426 103.486 18.4074C103.697 18.2499 103.891 18.0704 104.064 17.8718C104.161 17.7544 104.233 17.6187 104.277 17.4729C104.321 17.3271 104.335 17.174 104.319 17.0226C104.303 16.8712 104.256 16.7245 104.183 16.5912C104.109 16.4579 104.01 16.3406 103.891 16.2463C103.771 16.1519 103.634 16.0823 103.488 16.0416C103.341 16.0009 103.188 15.9899 103.037 16.0093C102.886 16.0286 102.74 16.0779 102.609 16.1542C102.477 16.2306 102.362 16.3325 102.27 16.4539C102.119 16.6618 101.993 16.8864 101.893 17.1233C84.8496 16.4047 67.8003 18.4076 51.3863 23.0567C51.2331 22.8495 51.0578 22.6597 50.8633 22.4907C50.7435 22.3976 50.6066 22.329 50.4604 22.2889C50.3141 22.2488 50.1614 22.2379 50.0109 22.2568C49.8604 22.2757 49.7151 22.3241 49.5833 22.3992C49.4515 22.4744 49.3358 22.5747 49.2428 22.6946C49.1498 22.8145 49.0812 22.9515 49.0411 23.0979C49.001 23.2443 48.9901 23.3971 49.009 23.5477C49.0279 23.6983 49.0763 23.8437 49.1514 23.9756C49.2264 24.1075 49.3267 24.2233 49.4465 24.3164C49.6608 24.4707 49.8912 24.6013 50.1337 24.7059C49.8938 34.4593 51.0361 44.1976 53.5267 53.6302C53.3143 53.786 53.1204 53.9657 52.949 54.1658C52.7686 54.4045 52.6889 54.7044 52.7269 55.0012C52.7648 55.2981 52.9175 55.5682 53.1522 55.7537C53.3869 55.9392 53.6848 56.0253 53.9822 55.9935C54.2796 55.9617 54.5526 55.8146 54.7429 55.5837C54.8917 55.3744 55.0181 55.1501 55.1199 54.9143C72.1635 55.6325 89.2127 53.6296 105.627 48.9809C105.778 49.1877 105.952 49.3774 106.144 49.5469C106.262 49.6404 106.397 49.7097 106.541 49.751C106.686 49.7923 106.837 49.8047 106.986 49.7874C107.136 49.7702 107.28 49.7237 107.412 49.6506C107.543 49.5774 107.659 49.4791 107.752 49.3613C107.846 49.2434 107.915 49.1082 107.956 48.9636C107.997 48.8189 108.01 48.6675 107.992 48.518C107.975 48.3685 107.929 48.2239 107.856 48.0924C107.783 47.961 107.684 47.8451 107.567 47.7516C107.354 47.5881 107.123 47.4493 106.879 47.3378Z" fill="#FFE7E7"/>
<path d="M72.9714 33.7622C71.0608 30.9451 67.4952 29.354 64.5138 28.029C61.2586 26.5864 57.7356 25.4225 54.1701 26.3078C53.8719 26.3821 53.9997 26.8403 54.2918 26.7722C58.0764 25.8559 61.721 27.4408 65.1101 29.0134C67.9455 30.3322 70.2516 32.1091 72.7523 33.9665C72.8984 34.0779 73.0687 33.886 72.9714 33.7622Z" fill="#DAB1B1"/>
<path d="M76.884 39.5822C73.8001 37.8157 69.4621 37.8713 66.0208 37.581C62.1191 37.2599 58.0416 36.599 54.158 37.334C53.8793 37.3896 54.0005 37.8096 54.2792 37.7663C57.9629 37.2228 61.7798 37.9454 65.4574 38.2851C67.4325 38.4642 69.4076 38.631 71.3706 38.9028C73.1882 39.1622 74.9149 39.7427 76.7083 39.996C76.9506 40.0392 77.1263 39.7242 76.884 39.5822Z" fill="#DAB1B1"/>
<path d="M81.7764 43.0014C78.162 43.0972 74.5106 43.8131 70.9887 44.4894C67.2543 45.2062 63.6074 46.2617 60.1023 47.6402C59.8865 47.7248 60.0468 48.063 60.2627 47.9897C63.6351 46.8387 67.1021 45.9341 70.631 45.2842C74.3317 44.5571 78.1743 44.2753 81.8257 43.3621C81.8781 43.3562 81.9257 43.3314 81.9581 43.2934C81.9905 43.2553 82.005 43.2071 81.9985 43.1592C81.9919 43.1114 81.9648 43.0679 81.9232 43.0383C81.8816 43.0087 81.8288 42.9954 81.7764 43.0014Z" fill="#DAB1B1"/>
<path d="M97.9442 20.2008C97.9339 20.1593 97.9127 20.1214 97.8827 20.0912C97.8527 20.061 97.815 20.0396 97.7738 20.0293C96.5878 19.7879 95.0296 21.1028 94.0391 21.6492C92.3239 22.5929 90.666 23.6386 89.0742 24.7809C86.2984 26.7692 83.1883 29.45 82.0086 32.7787C81.9518 32.9375 82.1915 33.0836 82.2988 32.9438C84.3996 30.2631 86.3174 27.7983 89.0553 25.7147C90.3652 24.7426 91.7256 23.8414 93.1307 23.0149C93.7111 22.6655 97.1998 20.1944 97.7297 20.5819C97.8622 20.6836 98.0325 20.5184 97.9946 20.3787L97.9442 20.2008Z" fill="#DAB1B1"/>
<path d="M99.8653 29C98.7367 29.1671 97.68 29.6405 96.8173 30.3656C95.4273 31.3529 94.0801 32.3993 92.7512 33.4634C90.0811 35.6212 87.0452 37.9386 85.0274 40.7171C84.9237 40.8649 85.1371 41.0777 85.2895 40.9713C87.7279 39.2332 89.764 36.9868 91.9952 35.0595C94.4337 33.0082 96.9575 30.6139 99.9202 29.3251C99.9491 29.3053 99.9717 29.278 99.9854 29.2463C99.999 29.2146 100.003 29.1798 99.9975 29.1459C99.9918 29.112 99.9764 29.0804 99.953 29.0546C99.9296 29.0288 99.8992 29.0099 99.8653 29Z" fill="#DAB1B1"/>
<path d="M73.5713 52.8877C72.7204 49.8981 72.8221 46.7178 73.8624 43.7886C74.9026 40.8595 76.8297 38.3269 79.376 36.5428C80.5643 35.652 81.9815 35.1173 83.4623 35.0012C88.2226 34.8919 97.0997 42.5029 100.463 47.9472C103.135 52.2383 103.263 52.1533 112 70.5072C112 70.5072 109.571 76 96.6747 75.2595C83.778 74.5191 77.6455 76 77.6455 76C77.6455 76 77.0383 62.2649 74.6824 56.238C74.2372 55.0727 73.8668 53.9559 73.5713 52.8877Z" fill="#B84A4A"/>
<path d="M84.034 44L87.3233 55.9304L74 54.242L91 60L89.4752 50.327L84.034 44Z" fill="#752222"/>
<path d="M76.3458 39C76.3458 39 68.8198 44.1936 71.6273 61.4454C74.2225 62.4305 76.6525 62.0128 79 60.903L76.3458 39Z" fill="#B84A4A"/>
<path d="M101.431 51.3699L92.3613 56.9843L68.9766 52.3305C68.9766 52.3305 68.8487 50.3258 67.2771 49.8187C65.7055 49.3115 66.6192 47.098 65.736 47.4321C64.8527 47.7662 64.8588 49.6993 65.736 50.6301C65.736 50.6301 61.2954 46.5013 60.6802 47.0503C60.065 47.5992 63.7806 50.9821 63.7806 50.9821C63.7806 50.9821 59.7969 48.3927 59.3096 48.8999C58.8223 49.407 62.9644 52.068 62.9644 52.068C62.9644 52.068 59.3096 50.5645 59.0173 51.0418C58.7249 51.5191 62.2457 53.2494 62.2457 53.2494C62.2457 53.2494 59.5715 52.7721 59.4071 53.0883C59.2426 53.4045 63.6284 56.0059 67.2466 56.5428C88.9927 67.6643 103.186 65.928 105.75 61.9783C107.261 59.6812 101.431 51.3699 101.431 51.3699Z" fill="#FFA6A6"/>
<path d="M88 56.27L89.404 59.1721L95 62L90.7946 57.4443L89.8877 56L88 56.27Z" fill="#FF6767"/>
<path d="M90 58.4877C90 58.4877 97.7562 61.0523 103 54.7052L101.276 52L90 58.4877Z" fill="#FF6767"/>
<path d="M81 35.9197L89.4416 58C89.4416 58 99.8792 58 103 50.3168L95.0404 39.8027C93.95 38.2628 92.4789 37.0042 90.7579 36.1384C88.4713 35.0746 85.1405 34.324 81 35.9197Z" fill="#B84A4A"/>
<path d="M80.8076 39.539C80.391 42.4239 77.4808 48.3367 75.8203 47.985C74.1598 47.6333 76.0961 41.2973 76.0961 41.2973L74.9871 38.6926C74.9871 38.6926 73.5848 41.196 71.9948 41.2914C71.8104 41.3049 71.6252 41.2827 71.4491 41.2258C64.0385 39.6761 63 28.6253 63 28.6253V26.3723L64.5197 25.6689L71.4491 24L80.8076 34.5381C81.0641 36.1949 81.0641 37.8822 80.8076 39.539Z" fill="#FFA6A6"/>
<path d="M63.1733 29.6696C63.1733 29.6696 63.1193 27.2692 64.8237 27.2692C66.5282 27.2692 66.9483 28.4356 69.2169 28.497C71.4856 28.5584 74.6724 28.5339 76.731 30.9957C78.7895 33.4575 79.3537 35.7105 83.6028 36.4349C87.852 37.1594 99.6933 61.1573 104.801 58.8428C109.908 56.5284 113.089 48.2773 109.404 39.0686C106.199 31.0877 97.8387 30.4738 91.0389 27.5516C87.2401 25.969 83.7758 23.651 80.8361 20.7249C77.0791 16.8634 70.6333 15.0707 65.0998 20.0005C60.7606 23.8927 61.8469 28.6321 63.1733 29.6696Z" fill="#090738"/>
<path d="M76.2298 48C74.3874 47.654 76.5348 41.4208 76.5348 41.4208L75.3086 38.8584C75.3086 38.8584 73.7581 41.3212 72 41.415C72.3828 41.3563 76.0676 38.829 77.0537 35L79 40.9928C79 40.9928 74.1798 45.1737 76.2298 48Z" fill="#FF6767"/>
</g>
<g filter="url(#filter0_b_206:36964)">
<rect x="13" y="77" width="141" height="77" rx="10" fill="black" fill-opacity="0.8"/>
</g>
<path d="M40.4682 115.324C41.0842 115.473 41.5369 115.725 41.8262 116.08C42.1249 116.425 42.2742 116.883 42.2742 117.452C42.2742 119.197 40.9069 120.07 38.1722 120.07C37.3695 120.07 36.5482 120.047 35.7082 120L35.8062 117.312L35.7082 110.984L38.9142 110.97C39.8382 110.97 40.5569 111.166 41.0702 111.558C41.5835 111.941 41.8402 112.496 41.8402 113.224C41.8402 113.709 41.7189 114.134 41.4762 114.498C41.2429 114.862 40.9069 115.137 40.4682 115.324ZM39.8942 113.476C39.8942 113.065 39.7729 112.776 39.5302 112.608C39.2875 112.431 38.8629 112.342 38.2562 112.342H37.5702L37.5282 114.792L38.8442 114.834C39.1989 114.741 39.4602 114.587 39.6282 114.372C39.8055 114.157 39.8942 113.859 39.8942 113.476ZM38.4942 118.712C39.0822 118.712 39.5349 118.595 39.8522 118.362C40.1789 118.129 40.3422 117.793 40.3422 117.354C40.3422 116.691 39.9129 116.281 39.0542 116.122L37.5002 116.15L37.4862 117.144L37.5282 118.656C37.8549 118.693 38.1769 118.712 38.4942 118.712ZM46.1976 113.364C47.1496 113.364 47.8776 113.644 48.3816 114.204C48.8856 114.764 49.1376 115.571 49.1376 116.626C49.1376 117.765 48.8669 118.637 48.3256 119.244C47.7843 119.841 47.0049 120.14 45.9876 120.14C45.0356 120.14 44.3076 119.86 43.8036 119.3C43.2996 118.74 43.0476 117.933 43.0476 116.878C43.0476 115.739 43.3183 114.871 43.8596 114.274C44.4009 113.667 45.1803 113.364 46.1976 113.364ZM46.0716 114.624C45.6236 114.624 45.2969 114.773 45.0916 115.072C44.8956 115.371 44.7976 115.851 44.7976 116.514C44.7976 117.373 44.9003 117.984 45.1056 118.348C45.3109 118.712 45.6469 118.894 46.1136 118.894C46.5616 118.894 46.8836 118.749 47.0796 118.46C47.2849 118.161 47.3876 117.676 47.3876 117.004C47.3876 116.155 47.2803 115.548 47.0656 115.184C46.8603 114.811 46.5289 114.624 46.0716 114.624ZM52.9756 113.364C53.6942 113.364 54.2542 113.527 54.6556 113.854C55.0662 114.171 55.2716 114.619 55.2716 115.198C55.2716 115.366 55.2436 115.898 55.1876 116.794C55.1782 117.055 55.1642 117.326 55.1456 117.606C55.1269 117.877 55.1176 118.11 55.1176 118.306C55.1176 118.465 55.1409 118.577 55.1876 118.642C55.2342 118.698 55.3182 118.726 55.4396 118.726C55.5329 118.726 55.6542 118.707 55.8036 118.67L55.9436 118.782L55.7756 119.762C55.4769 119.958 55.1362 120.075 54.7536 120.112C54.4736 120.084 54.2402 119.986 54.0536 119.818C53.8669 119.641 53.7409 119.398 53.6756 119.09H53.5776C53.1109 119.585 52.6302 119.93 52.1356 120.126C51.4636 120.117 50.9362 119.939 50.5536 119.594C50.1709 119.249 49.9796 118.777 49.9796 118.18C49.9796 117.713 50.0962 117.349 50.3296 117.088C50.5722 116.817 50.9362 116.635 51.4216 116.542L53.5636 116.136V115.562C53.5636 114.955 53.2649 114.652 52.6676 114.652C52.3782 114.652 52.0702 114.717 51.7436 114.848C51.4262 114.979 51.0669 115.184 50.6656 115.464L50.5256 115.38L50.3156 114.148C50.7169 113.896 51.1462 113.705 51.6036 113.574C52.0609 113.434 52.5182 113.364 52.9756 113.364ZM52.0656 117.396C51.9162 117.433 51.8042 117.499 51.7296 117.592C51.6642 117.676 51.6316 117.807 51.6316 117.984C51.6316 118.227 51.6969 118.418 51.8276 118.558C51.9582 118.689 52.1402 118.754 52.3736 118.754C52.7376 118.754 53.1202 118.539 53.5216 118.11L53.5496 117.074L52.0656 117.396ZM63.2769 115.94C63.2863 115.613 63.2116 115.361 63.0529 115.184C62.9036 114.997 62.6843 114.904 62.3949 114.904C61.9749 114.904 61.5269 115.105 61.0509 115.506V117.13L61.1349 120H59.2729L59.3709 117.312L59.3009 113.616L61.0649 113.462V114.414H61.1629C61.6763 113.947 62.2363 113.611 62.8429 113.406C63.5523 113.406 64.0936 113.569 64.4669 113.896C64.8403 114.213 65.0176 114.675 64.9989 115.282L64.9569 117.144L65.0409 120H63.1649L63.2769 115.94ZM69.3851 113.364C70.3371 113.364 71.0651 113.644 71.5691 114.204C72.0731 114.764 72.3251 115.571 72.3251 116.626C72.3251 117.765 72.0544 118.637 71.5131 119.244C70.9718 119.841 70.1924 120.14 69.1751 120.14C68.2231 120.14 67.4951 119.86 66.9911 119.3C66.4871 118.74 66.2351 117.933 66.2351 116.878C66.2351 115.739 66.5058 114.871 67.0471 114.274C67.5884 113.667 68.3678 113.364 69.3851 113.364ZM69.2591 114.624C68.8111 114.624 68.4844 114.773 68.2791 115.072C68.0831 115.371 67.9851 115.851 67.9851 116.514C67.9851 117.373 68.0878 117.984 68.2931 118.348C68.4984 118.712 68.8344 118.894 69.3011 118.894C69.7491 118.894 70.0711 118.749 70.2671 118.46C70.4724 118.161 70.5751 117.676 70.5751 117.004C70.5751 116.155 70.4678 115.548 70.2531 115.184C70.0478 114.811 69.7164 114.624 69.2591 114.624ZM73.7271 117.312L73.6571 113.616L75.4911 113.462L75.4071 117.13L75.4911 120H73.6291L73.7271 117.312ZM74.6091 110.298C74.8984 110.298 75.1224 110.382 75.2811 110.55C75.4491 110.718 75.5331 110.951 75.5331 111.25C75.5331 111.567 75.4444 111.819 75.2671 112.006C75.0897 112.193 74.8471 112.286 74.5391 112.286C74.2311 112.286 73.9931 112.202 73.8251 112.034C73.6664 111.866 73.5871 111.628 73.5871 111.32C73.5871 111.012 73.6757 110.765 73.8531 110.578C74.0397 110.391 74.2917 110.298 74.6091 110.298ZM79.8835 118.628C80.1821 118.628 80.4948 118.549 80.8215 118.39L80.9755 118.53L80.7935 119.636C80.3175 119.879 79.8321 120.028 79.3375 120.084C78.0775 119.953 77.4475 119.337 77.4475 118.236L77.5175 117.074L77.5035 114.666H76.6355L76.5655 114.568L76.6635 113.546H77.4895V112.468L79.1835 111.922L79.3095 112.034L79.2675 113.546H80.9335L80.9895 113.644L80.9055 114.666H79.2395L79.1555 117.802C79.1555 118.101 79.2115 118.315 79.3235 118.446C79.4355 118.567 79.6221 118.628 79.8835 118.628ZM86.9262 116.976L83.1462 117.004C83.2302 118.171 83.8229 118.754 84.9242 118.754C85.5029 118.754 86.1469 118.591 86.8562 118.264L87.0102 118.362L86.7302 119.748C86.0209 120.009 85.3536 120.14 84.7282 120.14C83.7016 120.14 82.8942 119.841 82.3062 119.244C81.7276 118.647 81.4382 117.821 81.4382 116.766C81.4382 115.721 81.7229 114.895 82.2922 114.288C82.8616 113.672 83.6316 113.364 84.6022 113.364C85.4329 113.364 86.0722 113.593 86.5202 114.05C86.9776 114.498 87.2062 115.128 87.2062 115.94C87.2062 116.155 87.1829 116.425 87.1362 116.752L86.9262 116.976ZM85.5822 115.73C85.5822 115.357 85.4982 115.077 85.3302 114.89C85.1622 114.694 84.9149 114.596 84.5882 114.596C84.2242 114.596 83.9209 114.717 83.6782 114.96C83.4356 115.193 83.2722 115.534 83.1882 115.982L85.5542 115.926L85.5822 115.73ZM96.0409 117.13L96.0829 118.306C96.0829 118.465 96.1015 118.577 96.1389 118.642C96.1855 118.698 96.2649 118.726 96.3769 118.726C96.4795 118.726 96.6055 118.707 96.7549 118.67L96.8809 118.782L96.7269 119.762C96.4095 119.958 96.0642 120.075 95.6909 120.112C95.4015 120.084 95.1589 119.986 94.9629 119.818C94.7669 119.65 94.6315 119.421 94.5569 119.132H94.4449C93.9875 119.552 93.5209 119.874 93.0449 120.098C92.1302 120.098 91.4209 119.809 90.9169 119.23C90.4129 118.642 90.1609 117.83 90.1609 116.794C90.1609 115.693 90.4502 114.848 91.0289 114.26C91.6075 113.672 92.4102 113.378 93.4369 113.378C93.7075 113.378 94.0062 113.406 94.3329 113.462L94.3049 110.312L96.1529 110.172L96.0409 117.13ZM93.3109 114.638C92.3775 114.638 91.9109 115.231 91.9109 116.416C91.9109 117.153 92.0229 117.709 92.2469 118.082C92.4709 118.455 92.7975 118.642 93.2269 118.642C93.6375 118.642 94.0155 118.451 94.3609 118.068L94.3889 117.298L94.3469 114.89C93.9829 114.722 93.6375 114.638 93.3109 114.638ZM103.018 116.976L99.238 117.004C99.322 118.171 99.9147 118.754 101.016 118.754C101.595 118.754 102.239 118.591 102.948 118.264L103.102 118.362L102.822 119.748C102.113 120.009 101.445 120.14 100.82 120.14C99.7934 120.14 98.986 119.841 98.398 119.244C97.8194 118.647 97.53 117.821 97.53 116.766C97.53 115.721 97.8147 114.895 98.384 114.288C98.9534 113.672 99.7234 113.364 100.694 113.364C101.525 113.364 102.164 113.593 102.612 114.05C103.069 114.498 103.298 115.128 103.298 115.94C103.298 116.155 103.275 116.425 103.228 116.752L103.018 116.976ZM101.674 115.73C101.674 115.357 101.59 115.077 101.422 114.89C101.254 114.694 101.007 114.596 100.68 114.596C100.316 114.596 100.013 114.717 99.77 114.96C99.5274 115.193 99.364 115.534 99.28 115.982L101.646 115.926L101.674 115.73ZM108.885 113.378C109.519 113.378 110.117 113.485 110.677 113.7L110.425 115.072L110.201 115.142C109.93 114.965 109.659 114.829 109.389 114.736C109.118 114.643 108.88 114.596 108.675 114.596C108.451 114.596 108.273 114.657 108.143 114.778C108.012 114.89 107.947 115.03 107.947 115.198C107.947 115.394 108.031 115.553 108.199 115.674C108.376 115.795 108.651 115.931 109.025 116.08C109.398 116.229 109.706 116.374 109.949 116.514C110.191 116.654 110.397 116.85 110.565 117.102C110.742 117.345 110.831 117.648 110.831 118.012C110.831 118.385 110.733 118.735 110.537 119.062C110.35 119.379 110.061 119.641 109.669 119.846C109.277 120.042 108.796 120.14 108.227 120.14C107.555 120.14 106.859 120 106.141 119.72L106.351 118.264L106.533 118.152C106.822 118.395 107.144 118.591 107.499 118.74C107.853 118.88 108.166 118.95 108.437 118.95C108.689 118.95 108.885 118.889 109.025 118.768C109.165 118.637 109.235 118.483 109.235 118.306C109.235 118.11 109.146 117.951 108.969 117.83C108.801 117.709 108.53 117.573 108.157 117.424C107.774 117.256 107.461 117.107 107.219 116.976C106.976 116.836 106.766 116.64 106.589 116.388C106.421 116.136 106.337 115.823 106.337 115.45C106.337 114.843 106.565 114.349 107.023 113.966C107.48 113.574 108.101 113.378 108.885 113.378ZM114.776 113.364C115.728 113.364 116.456 113.644 116.96 114.204C117.464 114.764 117.716 115.571 117.716 116.626C117.716 117.765 117.445 118.637 116.904 119.244C116.362 119.841 115.583 120.14 114.566 120.14C113.614 120.14 112.886 119.86 112.382 119.3C111.878 118.74 111.626 117.933 111.626 116.878C111.626 115.739 111.896 114.871 112.438 114.274C112.979 113.667 113.758 113.364 114.776 113.364ZM114.65 114.624C114.202 114.624 113.875 114.773 113.67 115.072C113.474 115.371 113.376 115.851 113.376 116.514C113.376 117.373 113.478 117.984 113.684 118.348C113.889 118.712 114.225 118.894 114.692 118.894C115.14 118.894 115.462 118.749 115.658 118.46C115.863 118.161 115.966 117.676 115.966 117.004C115.966 116.155 115.858 115.548 115.644 115.184C115.438 114.811 115.107 114.624 114.65 114.624ZM122.914 115.94C122.923 115.613 122.848 115.361 122.69 115.184C122.54 114.997 122.321 114.904 122.032 114.904C121.612 114.904 121.164 115.105 120.688 115.506V117.13L120.772 120H118.91L119.008 117.312L118.938 113.616L120.702 113.462V114.414H120.8C121.313 113.947 121.873 113.611 122.48 113.406C123.189 113.406 123.73 113.569 124.104 113.896C124.477 114.213 124.654 114.675 124.636 115.282L124.594 117.144L124.678 120H122.802L122.914 115.94ZM129.022 113.364C129.974 113.364 130.702 113.644 131.206 114.204C131.71 114.764 131.962 115.571 131.962 116.626C131.962 117.765 131.691 118.637 131.15 119.244C130.608 119.841 129.829 120.14 128.812 120.14C127.86 120.14 127.132 119.86 126.628 119.3C126.124 118.74 125.872 117.933 125.872 116.878C125.872 115.739 126.142 114.871 126.684 114.274C127.225 113.667 128.004 113.364 129.022 113.364ZM128.896 114.624C128.448 114.624 128.121 114.773 127.916 115.072C127.72 115.371 127.622 115.851 127.622 116.514C127.622 117.373 127.724 117.984 127.93 118.348C128.135 118.712 128.471 118.894 128.938 118.894C129.386 118.894 129.708 118.749 129.904 118.46C130.109 118.161 130.212 117.676 130.212 117.004C130.212 116.155 130.104 115.548 129.89 115.184C129.684 114.811 129.353 114.624 128.896 114.624Z" fill="white"/>
<defs>
<filter id="filter0_b_206:36964" x="3" y="67" width="161" height="97" filterUnits="userSpaceOnUse" color-interpolation-filters="sRGB">
<feFlood flood-opacity="0" result="BackgroundImageFix"/>
<feGaussianBlur in="BackgroundImage" stdDeviation="5"/>
<feComposite in2="SourceAlpha" operator="in" result="effect1_backgroundBlur_206:36964"/>
<feBlend mode="normal" in="SourceGraphic" in2="effect1_backgroundBlur_206:36964" result="shape"/>
</filter>
</defs>
</svg>
