<svg width="167" height="167" viewBox="0 0 167 167" fill="none" xmlns="http://www.w3.org/2000/svg">
<mask id="mask0_206:36996" style="mask-type:alpha" maskUnits="userSpaceOnUse" x="0" y="0" width="167" height="167">
<rect x="1" y="1" width="165" height="165" rx="8" fill="#5988D6" stroke="#EDE6FC" stroke-opacity="0.3"/>
</mask>
<g mask="url(#mask0_206:36996)">
<rect x="1" y="1" width="165" height="165" rx="8" fill="#7A83D9" stroke="#EDE6FC" stroke-opacity="0.3"/>
<path d="M81.5974 56.1117L44.2136 18.7279L33.4166 29.525L70.8004 66.9088L81.5974 56.1117Z" fill="#D79EE3"/>
<path d="M84.8359 59.3495L47.4521 21.9657L36.6551 32.7628L74.0389 70.1466L84.8359 59.3495Z" fill="#D79EE3"/>
<path d="M83.2122 57.7306L45.8284 20.3468L35.0313 31.1439L72.4151 68.5277L83.2122 57.7306Z" fill="#AE5DC4"/>
<path d="M71.8543 50.3071L76.4137 56.8892C76.9986 57.7337 77.2241 58.7759 77.0406 59.7866C76.8571 60.7974 76.2796 61.6938 75.4352 62.2787L75.1759 62.4584C74.3322 63.0427 73.291 63.2681 72.2812 63.0847C71.2714 62.9014 70.3759 62.3245 69.7915 61.4808L65.23 54.8957C64.9405 54.4777 64.7362 54.0068 64.6288 53.5098C64.5213 53.0128 64.5129 52.4995 64.604 51.9992C64.695 51.499 64.8838 51.0216 65.1595 50.5943C65.4352 50.1671 65.7923 49.7983 66.2106 49.5092L66.4699 49.3296C67.3135 48.7452 68.3548 48.5199 69.3646 48.7032C70.3743 48.8865 71.2699 49.4635 71.8543 50.3071Z" fill="#F6AB45"/>
<path d="M71.3852 61.7343L67.0058 55.4109C66.4004 54.5327 66.1674 53.4504 66.3577 52.4008C66.5481 51.3512 67.1465 50.4197 68.0218 49.8101C68.709 49.336 69.5272 49.0885 70.3619 49.1022C69.7209 48.7953 69.0102 48.6632 68.3017 48.7193C67.5932 48.7753 66.9121 49.0175 66.3273 49.4213C65.4509 50.031 64.8518 50.9632 64.6614 52.0137C64.471 53.0641 64.7046 54.1473 65.3113 55.0258L69.6907 61.3492C70.0583 61.8768 70.5468 62.3088 71.1152 62.6093C71.6837 62.9098 72.3158 63.0701 72.9588 63.0768C72.3246 62.7765 71.7816 62.3133 71.3852 61.7343Z" fill="#E28617"/>
<path d="M52.3906 32.9112L47.8246 26.3424C46.6064 24.59 44.1983 24.1569 42.4458 25.375L42.1842 25.5569C40.4317 26.7751 39.9986 29.1832 41.2168 30.9357L45.7828 37.5044C47.001 39.2568 49.4091 39.6899 51.1616 38.4718L51.4232 38.2899C53.1757 37.0717 53.6088 34.6636 52.3906 32.9112Z" fill="#F6AB45"/>
<path d="M47.4964 37.8492L43.1169 31.5258C42.5092 30.647 42.2748 29.563 42.4653 28.5116C42.6558 27.4602 43.2555 26.5273 44.1329 25.9176C44.819 25.444 45.6358 25.1965 46.4694 25.2097C45.8283 24.9028 45.1176 24.7707 44.4091 24.8268C43.7007 24.8828 43.0195 25.125 42.4347 25.5288C41.5567 26.138 40.9562 27.0706 40.765 28.122C40.5739 29.1734 40.8076 30.2577 41.415 31.137L45.7945 37.4604C46.1625 37.9872 46.6511 38.4186 47.2196 38.7184C47.788 39.0183 48.4199 39.178 49.0626 39.1843C48.4326 38.8841 47.8925 38.4237 47.4964 37.8492Z" fill="#E28617"/>
<path d="M57.5203 38.3903L64.3479 42.5448C65.2247 43.0783 65.8536 43.9382 66.0963 44.9354C66.339 45.9326 66.1756 46.9853 65.6422 47.862L65.4782 48.1315C65.2143 48.5661 64.8673 48.9445 64.4571 49.2449C64.0469 49.5454 63.5815 49.7621 63.0875 49.8826C62.5935 50.003 62.0806 50.025 61.5782 49.9471C61.0757 49.8693 60.5935 49.6932 60.1591 49.4289L53.3315 45.2743C52.4547 44.7409 51.8258 43.881 51.5831 42.8838C51.3404 41.8866 51.5038 40.8339 52.0372 39.9571L52.2012 39.6877C52.7349 38.8107 53.5949 38.1814 54.5922 37.9381C55.5896 37.6948 56.6428 37.8575 57.5203 38.3903Z" fill="#F6AB45"/>
<path d="M61.7387 49.0288L55.1659 45.0419C54.2549 44.4851 53.6016 43.59 53.3493 42.5526C53.097 41.5151 53.2662 40.42 53.8198 39.507C54.249 38.7954 54.8903 38.2362 55.6537 37.9079C54.9455 37.8892 54.2449 38.0573 53.6222 38.3953C52.9996 38.7334 52.477 39.2294 52.1069 39.8335C51.5524 40.7472 51.3832 41.8435 51.6362 42.8819C51.8893 43.9203 52.544 44.8158 53.4567 45.372L60.0258 49.3699C60.5764 49.7027 61.1986 49.8989 61.8405 49.9423C62.4824 49.9857 63.1253 49.875 63.7157 49.6194C63.0164 49.5989 62.3347 49.3953 61.7387 49.0288Z" fill="#E28617"/>
<g style="mix-blend-mode:multiply">
<g style="mix-blend-mode:multiply">
<path d="M72.5259 68.4245C69.3752 62.5853 63.7231 55.2422 56.4937 48.0128C49.0773 40.6001 41.5435 34.8415 35.6345 31.7422L72.4196 68.5162L72.5259 68.4245Z" fill="#D79EE3"/>
</g>
<g style="mix-blend-mode:multiply">
<path d="M62.6373 41.8728C69.863 49.0985 77.2061 54.7544 83.0454 57.9014L83.2178 57.7327L46.2236 20.7385C49.2863 26.7025 55.1072 34.3427 62.6373 41.8728Z" fill="#D79EE3"/>
</g>
</g>
<path d="M45.4423 28.2027C45.3539 28.1168 45.2351 28.0691 45.1118 28.07C44.9885 28.0709 44.8705 28.1203 44.7833 28.2075C44.6961 28.2947 44.6467 28.4127 44.6458 28.536C44.6449 28.6594 44.6925 28.7781 44.7784 28.8666C44.8669 28.9525 44.9856 29.0002 45.109 28.9993C45.2323 28.9983 45.3503 28.949 45.4375 28.8618C45.5247 28.7746 45.5741 28.6565 45.575 28.5332C45.5759 28.4099 45.5283 28.2912 45.4423 28.2027Z" fill="#E28617"/>
<path d="M46.9462 30.4804C46.8635 30.3992 46.7519 30.3541 46.636 30.3552C46.5201 30.3562 46.4094 30.4032 46.3281 30.4859C46.2469 30.5686 46.2019 30.6802 46.2029 30.7961C46.2039 30.912 46.251 31.0227 46.3336 31.104C46.4163 31.1852 46.5279 31.2302 46.6438 31.2292C46.7597 31.2282 46.8705 31.1811 46.9517 31.0984C47.0329 31.0158 47.078 30.9042 47.0769 30.7883C47.0759 30.6724 47.0289 30.5616 46.9462 30.4804Z" fill="#E28617"/>
<path d="M48.7581 33.0773C48.6738 32.9958 48.561 32.9507 48.4439 32.9515C48.3267 32.9523 48.2146 32.999 48.1315 33.0816C48.0484 33.1642 48.001 33.2761 47.9995 33.3932C47.9981 33.5104 48.0426 33.6235 48.1235 33.7081C48.2077 33.7896 48.3205 33.8347 48.4377 33.8339C48.5548 33.8331 48.667 33.7864 48.7501 33.7038C48.8332 33.6212 48.8805 33.5093 48.882 33.3922C48.8835 33.275 48.839 33.162 48.7581 33.0773Z" fill="#E28617"/>
<path d="M50.526 35.5347C50.451 35.4794 50.3652 35.4407 50.2741 35.421C50.183 35.4014 50.0889 35.4014 49.9978 35.421C49.9084 35.4459 49.8271 35.4935 49.7616 35.5593C49.6962 35.625 49.649 35.7066 49.6246 35.7961C49.6002 35.8856 49.5994 35.9798 49.6224 36.0697C49.6454 36.1595 49.6913 36.2419 49.7557 36.3087C49.825 36.3714 49.9099 36.4144 50.0015 36.4334H50.0895H50.1592C50.2444 36.4345 50.3295 36.4246 50.4123 36.404C50.4979 36.3738 50.5735 36.3205 50.6306 36.2499C50.6878 36.1793 50.7242 36.0943 50.736 36.0043C50.7478 35.9143 50.7344 35.8227 50.6973 35.7398C50.6602 35.657 50.6009 35.586 50.526 35.5347Z" fill="#E28617"/>
<path d="M55.5914 40.7358C55.5331 40.6927 55.4653 40.6644 55.3937 40.6533C55.3221 40.6422 55.2489 40.6487 55.1803 40.6721C55.1118 40.6956 55.05 40.7353 55.0002 40.7879C54.9504 40.8405 54.9141 40.9045 54.8945 40.9742V41.0072C54.8757 41.088 54.8806 41.1725 54.9086 41.2505C54.9365 41.3286 54.9862 41.3971 55.0519 41.4477C55.1176 41.4983 55.1965 41.529 55.2791 41.5361C55.3617 41.5432 55.4446 41.5264 55.518 41.4877H55.551C55.617 41.4513 55.6725 41.3987 55.7126 41.3349C55.7526 41.2711 55.7757 41.1981 55.7797 41.1229C55.7837 41.0477 55.7686 40.9727 55.7356 40.905C55.7027 40.8373 55.653 40.779 55.5914 40.7358Z" fill="#E28617"/>
<path d="M58.0343 42.7421C58.3057 42.3753 57.7225 41.9572 57.4107 42.2653C57.3387 42.341 57.2986 42.4414 57.2986 42.5459C57.2986 42.6503 57.3387 42.7508 57.4107 42.8265C57.4545 42.8681 57.5071 42.8993 57.5645 42.9179C57.622 42.9364 57.6829 42.9419 57.7427 42.9338C57.8026 42.9257 57.8598 42.9043 57.9103 42.8711C57.9607 42.8379 58.0031 42.7938 58.0343 42.7421Z" fill="#E28617"/>
<path d="M60.6969 43.9892C60.6196 43.9123 60.5149 43.8693 60.4059 43.8697C60.2969 43.87 60.1924 43.9137 60.1156 43.991C60.0387 44.0683 59.9958 44.173 59.9961 44.2821C59.9964 44.3911 60.0401 44.4955 60.1174 44.5724C60.1557 44.6104 60.2011 44.6406 60.2511 44.6611C60.301 44.6816 60.3545 44.692 60.4085 44.6919C60.4625 44.6917 60.5159 44.6809 60.5657 44.6601C60.6155 44.6393 60.6607 44.6088 60.6988 44.5705C60.7368 44.5322 60.767 44.4868 60.7875 44.4369C60.808 44.387 60.8184 44.3335 60.8183 44.2795C60.8181 44.2255 60.8073 44.1721 60.7865 44.1223C60.7657 44.0725 60.7352 44.0272 60.6969 43.9892Z" fill="#E28617"/>
<path d="M63.6423 45.4563C63.5876 45.4024 63.5197 45.3638 63.4453 45.3442C63.371 45.3247 63.2929 45.3249 63.2187 45.345C63.1445 45.365 63.0769 45.4041 63.0225 45.4584C62.9681 45.5127 62.9289 45.5802 62.9087 45.6544V45.7057C62.8916 45.7743 62.8925 45.8461 62.9112 45.9143C62.9299 45.9824 62.966 46.0445 63.0157 46.0947C63.0655 46.1448 63.1274 46.1813 63.1954 46.2006C63.2634 46.2198 63.3352 46.2212 63.4039 46.2046H63.4589C63.5348 46.184 63.6038 46.1435 63.6588 46.0872C63.7137 46.0309 63.7525 45.9609 63.7713 45.8845C63.79 45.8081 63.7879 45.7281 63.7652 45.6528C63.7425 45.5775 63.7001 45.5097 63.6423 45.4563Z" fill="#E28617"/>
<path d="M69.2872 52.3189V52.2786C69.3128 52.1737 69.3041 52.0634 69.2626 51.9637C69.221 51.8641 69.1486 51.7803 69.0561 51.7247C68.9622 51.6722 68.8539 51.6517 68.7473 51.6663C68.6408 51.6808 68.5419 51.7297 68.4656 51.8054L68.4362 51.8348C68.3828 51.8904 68.3426 51.9574 68.3186 52.0307C68.2947 52.1041 68.2875 52.1819 68.2977 52.2583C68.308 52.3348 68.3353 52.408 68.3777 52.4725C68.4201 52.5369 68.4764 52.591 68.5426 52.6307C68.6102 52.67 68.686 52.6931 68.7641 52.6981C68.8421 52.7032 68.9203 52.6901 68.9924 52.6599C69.0645 52.6297 69.1287 52.5832 69.1798 52.524C69.231 52.4649 69.2677 52.3947 69.2872 52.3189Z" fill="#E28617"/>
<path d="M70.9268 54.4536C70.9589 54.3415 70.9487 54.2215 70.8983 54.1163C70.8479 54.0111 70.7606 53.9281 70.6531 53.8829C70.5455 53.8377 70.4252 53.8335 70.3148 53.8711C70.2043 53.9087 70.1115 53.9854 70.0539 54.0868C69.6871 54.714 70.8131 55.1285 70.9268 54.4536Z" fill="#E28617"/>
<path d="M72.6543 56.9037C72.5609 56.8108 72.4345 56.7588 72.3027 56.7592C72.171 56.7595 72.0448 56.8122 71.9519 56.9056C71.859 56.999 71.807 57.1254 71.8074 57.2572C71.8077 57.3889 71.8604 57.5151 71.9538 57.608C72 57.654 72.0549 57.6904 72.1152 57.7152C72.1755 57.74 72.2401 57.7527 72.3053 57.7525C72.3706 57.7524 72.4351 57.7393 72.4953 57.7142C72.5555 57.6891 72.6102 57.6524 72.6562 57.6061C72.7022 57.5599 72.7386 57.505 72.7634 57.4447C72.7882 57.3844 72.8009 57.3198 72.8007 57.2546C72.8005 57.1893 72.7875 57.1248 72.7624 57.0646C72.7373 57.0044 72.7006 56.9497 72.6543 56.9037Z" fill="#E28617"/>
<path d="M74.7376 59.739C74.726 59.7083 74.7112 59.6788 74.6936 59.651C74.6335 59.5476 74.538 59.4694 74.4247 59.431C74.3114 59.3926 74.1881 59.3964 74.0774 59.4419C73.9688 59.4893 73.88 59.5731 73.8265 59.6789C73.7729 59.7847 73.7579 59.9058 73.784 60.0214C73.8023 60.1425 73.865 60.2523 73.9601 60.3295C74.0454 60.4096 74.1563 60.4568 74.2731 60.4629C74.3899 60.4689 74.5051 60.4335 74.5983 60.3627C74.6914 60.292 74.7565 60.1905 74.7821 60.0763C74.8076 59.9622 74.7918 59.8427 74.7376 59.739Z" fill="#E28617"/>
<path d="M58.7165 63.891L56.7029 68.0651L79.363 71.4065L97.4052 77L96.8587 73.035L80.1993 66.0404L58.7165 63.891Z" fill="#2B3381"/>
<path d="M107.154 26.4201C106.747 26.4604 87.1679 22.3854 87.1679 22.3854L70.0573 17.8996L68.8872 12.6032L85.5357 17.3458L108.915 22.18L107.154 26.4201Z" fill="#2B3381"/>
<path d="M73.0724 18.6075C73.1604 18.2407 71.8877 13.9677 71.8877 13.9677L75.2585 18.3141L79.1574 19.2091L79.4142 16.3555L81.2078 20.0747L85.5138 20.9293L87.6852 18.3838L88.6205 22.965L90.6158 19.4548L90.9533 23.7646L97.8012 25.0703C97.8012 25.0703 102.03 20.4818 101.788 20.955C101.546 21.4281 100.596 25.5801 100.596 25.5801L105.628 22.103L103.556 26.5045L86.5555 26.1817L73.0724 18.6075Z" fill="#131956"/>
<path d="M62.839 61.5473L60.6089 67.7827L65.4065 62.6476C65.4065 62.6476 63.4148 68.8097 63.5285 68.3035C63.6422 67.7973 67.4861 61.7343 67.4861 61.7343L76.289 63.4216L78.6401 63.5646C78.6401 63.5646 74.4514 70.2805 74.7925 69.9614C75.1336 69.6423 81.5928 65.6993 81.5928 65.6993L85.0882 68.3512L86.8048 72.9837L89.1779 67.8487L94.6577 74.5352L93.3299 67.0491C93.3299 67.0491 69.9876 59.1815 69.3311 59.1632C68.6745 59.1448 62.839 61.5473 62.839 61.5473Z" fill="#131956"/>
<path d="M69.4778 26.7832C69.6906 26.4348 69.8116 16.6672 69.8116 16.6672L107.693 25.2354L103.142 34.1189L96.2973 65.1124L96.8585 73.0497C96.8585 73.0497 79.0693 67.5149 78.6622 67.5479C78.255 67.5809 58.72 63.88 58.72 63.88L63.0701 55.8767L69.4778 26.7832Z" fill="#4A53A9"/>
<path d="M98.6878 39.1023C100.002 33.3725 95.1567 27.3716 87.8652 25.6989C80.5737 24.0263 73.5972 27.3152 72.2828 33.045C70.9684 38.7748 75.8138 44.7756 83.1053 46.4483C90.3969 48.121 97.3734 44.832 98.6878 39.1023Z" fill="#FF9C31"/>
<path d="M97.1071 39.0743C98.2064 34.2823 93.862 29.1967 87.4036 27.7152C80.9453 26.2336 74.8186 28.9172 73.7194 33.7092C72.6201 38.5011 76.9645 43.5867 83.4229 45.0683C89.8812 46.5498 96.0078 43.8662 97.1071 39.0743Z" fill="white"/>
<path d="M69.621 60.8359L65.9602 59.9961C65.2692 59.8376 64.5805 60.2693 64.4219 60.9603L64.39 61.0997C64.2314 61.7908 64.6631 62.4795 65.3542 62.638L69.015 63.4778C69.706 63.6363 70.3948 63.2046 70.5533 62.5136L70.5853 62.3742C70.7438 61.6831 70.3121 60.9944 69.621 60.8359Z" fill="#981B17"/>
<path d="M90.5022 54.582L91.6282 55.73L93.1944 56.0895L93.5172 57.663L94.6395 58.811L94.0637 60.3112L94.3865 61.8847L93.088 62.8347L92.5085 64.3348L90.9056 64.4302L89.6072 65.3802L88.2061 64.5916L86.6032 64.6906L85.8477 63.2712L84.4465 62.4862L84.5786 60.8834L83.8267 59.4639L84.8023 58.1875L84.9344 56.5846L86.4455 56.0418L87.4248 54.7654L88.991 55.1248L90.5022 54.582Z" fill="#FFD527"/>
<path d="M92.8069 60.7202C93.253 58.7754 92.0381 56.8371 90.0933 56.391C88.1485 55.9448 86.2102 57.1598 85.7641 59.1046C85.318 61.0494 86.5329 62.9876 88.4777 63.4337C90.4225 63.8799 92.3607 62.665 92.8069 60.7202Z" fill="#FF9C31"/>
<path d="M73.7472 48.3429C72.5955 48.7354 68.0583 52.0768 67.101 52.7884C67.0806 52.803 67.0639 52.8223 67.0524 52.8446C67.0409 52.8669 67.0349 52.8917 67.0349 52.9168C67.0349 52.9419 67.0409 52.9666 67.0524 52.989C67.0639 53.0113 67.0806 53.0306 67.101 53.0452L74.9686 58.4699C74.994 58.4867 75.0237 58.4959 75.0541 58.4965C75.0846 58.4971 75.1146 58.4891 75.1407 58.4734C75.1668 58.4576 75.1879 58.4348 75.2016 58.4076C75.2153 58.3804 75.221 58.3499 75.218 58.3195L73.9563 48.475C73.9531 48.4516 73.9448 48.4293 73.9321 48.4094C73.9194 48.3896 73.9024 48.3728 73.8825 48.3602C73.8626 48.3476 73.8401 48.3396 73.8168 48.3366C73.7934 48.3336 73.7696 48.3358 73.7472 48.3429Z" fill="#FFBF1F"/>
<path d="M86.1337 49.9128C84.9416 49.546 80.4815 48.0789 79.4545 47.7561C79.4305 47.7485 79.4051 47.7467 79.3804 47.7509C79.3556 47.7551 79.3322 47.7652 79.3121 47.7802C79.292 47.7953 79.2758 47.815 79.2649 47.8375C79.2539 47.8601 79.2485 47.885 79.2491 47.9101L79.4141 56.3462C79.4149 56.3773 79.4247 56.4075 79.4423 56.4331C79.4598 56.4587 79.4844 56.4788 79.5131 56.4908C79.5418 56.5028 79.5733 56.5063 79.6039 56.5008C79.6345 56.4953 79.6628 56.4811 79.6855 56.4599L86.196 50.1769C86.2147 50.1574 86.2283 50.1336 86.2354 50.1076C86.2426 50.0815 86.243 50.0541 86.2368 50.0278C86.2306 50.0016 86.2179 49.9773 86.1999 49.9572C86.1819 49.9371 86.1591 49.9218 86.1337 49.9128Z" fill="#FFBF1F"/>
<path d="M103.142 34.1079L106.964 26.6438L102.074 32.4061L94.3865 61.8847L96.8586 73.035L96.2974 65.0978L103.142 34.1079Z" fill="#2B3381"/>
<path d="M71.5208 27.117L69.7786 18.9046C69.7272 21.8096 69.6245 26.5411 69.4778 26.7832L63.0701 55.8877L58.7163 63.891L64.8673 56.6983L71.5208 27.117Z" fill="#2B3381"/>
<path d="M94.0161 31.0416C94.1038 31.9499 94.0443 32.8664 93.84 33.7558C92.5269 39.485 85.5506 42.7751 78.2589 41.0916C77.2723 40.8652 76.3076 40.5522 75.376 40.1562C77.1109 42.4267 79.9681 44.2643 83.4453 45.0602C89.9044 46.5273 96.0297 43.8571 97.1301 39.0632C97.7573 36.239 96.4882 33.279 94.0161 31.0416Z" fill="#F4EFE6"/>
<path d="M99.1252 33.7155C99.1252 33.7155 93.5134 31.6321 90.0619 39.1806C86.6104 46.7291 88.0813 59.3759 83.7312 61.0264C79.3811 62.677 72.6652 58.4883 69.3311 59.1925C65.997 59.8967 64.1704 62.6476 64.1704 62.6476C64.1704 62.6476 77.9249 65.0061 78.4274 65.1198C78.9299 65.2335 92.2993 68.6996 92.2993 68.6996C92.2993 68.6996 96.8475 41.9278 99.1252 33.7155Z" fill="url(#paint0_linear_206:36996)"/>
<path d="M95.9452 49.0032L89.8895 42.8925C89.8688 42.8706 89.8423 42.8551 89.813 42.8478C89.7838 42.8405 89.753 42.8418 89.7245 42.8514C89.6959 42.8611 89.6707 42.8787 89.6519 42.9022C89.633 42.9258 89.6213 42.9542 89.6181 42.9842L88.3894 52.1539C88.3853 52.1814 88.3886 52.2096 88.399 52.2355C88.4094 52.2614 88.4264 52.2841 88.4484 52.3013C88.4704 52.3184 88.4966 52.3294 88.5242 52.3332C88.5519 52.3369 88.58 52.3333 88.6058 52.3226L95.8938 49.2709C95.9191 49.2609 95.9415 49.2447 95.9589 49.2238C95.9763 49.2029 95.988 49.1779 95.9932 49.1512C95.9983 49.1244 95.9966 49.0969 95.9882 49.071C95.9798 49.0451 95.965 49.0218 95.9452 49.0032Z" fill="#FFDF22"/>
<path d="M78.7906 41.0769C77.107 40.6661 70.6662 39.5437 69.3605 39.3163C69.3347 39.3128 69.3085 39.3155 69.284 39.3242C69.2595 39.333 69.2375 39.3475 69.2199 39.3666C69.2022 39.3857 69.1895 39.4088 69.1826 39.4339C69.1758 39.4589 69.1752 39.4853 69.1807 39.5107L70.6479 46.0432C70.6534 46.0679 70.6647 46.0909 70.681 46.1103C70.6973 46.1297 70.718 46.1449 70.7414 46.1547C70.7647 46.1644 70.7901 46.1683 70.8153 46.1661C70.8406 46.164 70.8649 46.1558 70.8863 46.1422L78.8272 41.374C78.8572 41.3598 78.8818 41.3365 78.8978 41.3074C78.9137 41.2784 78.9201 41.2451 78.9161 41.2122C78.912 41.1793 78.8977 41.1485 78.8752 41.1243C78.8526 41.1 78.823 41.0834 78.7906 41.0769Z" fill="#FFDF22"/>
<path d="M92.4349 31.192L96.5283 25.6352C96.5426 25.6155 96.5613 25.5994 96.583 25.5884C96.6047 25.5773 96.6286 25.5716 96.653 25.5716C96.6773 25.5716 96.7013 25.5773 96.723 25.5884C96.7446 25.5994 96.7634 25.6155 96.7777 25.6352L100.787 30.5978C100.805 30.6201 100.817 30.647 100.821 30.6755C100.824 30.704 100.821 30.733 100.809 30.7594C100.798 30.7859 100.78 30.8087 100.756 30.8255C100.733 30.8423 100.705 30.8523 100.677 30.8546L92.5743 31.4487C92.5431 31.4522 92.5117 31.4463 92.4839 31.4318C92.4561 31.4173 92.4332 31.3948 92.4183 31.3672C92.4033 31.3397 92.3969 31.3083 92.3999 31.2771C92.4028 31.2459 92.415 31.2162 92.4349 31.192Z" fill="#FFBF1F"/>
<path d="M79.5387 65.4792C76.5384 67.801 37.8203 66.6456 37.835 65.769V55.1322C37.791 53.5146 76.443 53.9694 79.5387 55.4989C79.4396 55.1285 79.5387 65.3838 79.5387 65.4792Z" fill="#FFD108"/>
<path d="M37.8314 55.0221L35.1245 53.5843V67.4232L37.8314 65.9047V55.0221Z" fill="#FFBF00"/>
<path d="M73.2485 56.8524L74.0958 57.5163L75.1411 57.2559L75.6436 58.2058L76.7036 58.3929L76.7806 59.4639L77.6719 60.0691L77.3051 61.0778L77.8737 61.9911L77.1254 62.765L77.2758 63.8324L76.2781 64.2322L75.981 65.2665L74.9063 65.2298L74.2131 66.0551L73.2485 65.5819L72.2802 66.0551L71.5906 65.2298L70.5122 65.2665L70.2188 64.2322L69.2212 63.8324L69.3679 62.765L68.6233 61.9911L69.1918 61.0778L68.825 60.0691L69.7163 59.4639L69.7897 58.3929L70.8497 58.2058L71.3559 57.2559L72.4012 57.5163L73.2485 56.8524Z" fill="white"/>
<path d="M32.1243 53.5036V67.3388H35.1246V53.5843L32.1243 53.5036Z" fill="#FFD108"/>
<path d="M79.2454 55.0221L81.9559 53.5843V67.4232L79.2454 65.9047V55.0221Z" fill="#FFBF00"/>
<path d="M84.9564 53.5036V67.3388H81.9561V53.5843L84.9564 53.5036Z" fill="#FFD108"/>
<path d="M48.769 60.3992C48.7659 58.2626 49.1383 56.1421 49.8693 54.1345C45.9374 54.1822 42.5153 54.3069 40.3329 54.5196C39.5029 56.6419 39.0811 58.9017 39.0895 61.1805C39.0885 62.854 39.3155 64.5199 39.7644 66.1321C40.2632 66.1798 40.8464 66.2275 41.5103 66.2752C41.4516 65.681 41.4149 65.0758 41.4149 64.4632C41.4068 62.0094 41.8985 59.5795 42.86 57.3219C42.8014 57.9198 42.7684 58.5286 42.7684 59.1558C42.7594 61.6674 43.274 64.1533 44.2795 66.4549L45.5486 66.5172C45.2454 65.1813 45.0916 63.8158 45.0901 62.4459C45.0837 59.9922 45.5754 57.5627 46.5353 55.3046C46.4766 55.9024 46.4436 56.5113 46.4436 57.1385C46.4193 60.5113 47.3611 63.8205 49.1578 66.675L49.8693 66.697C49.1339 64.6791 48.7614 62.5469 48.769 60.3992Z" fill="#FF7110"/>
<path d="M56.2587 54.1235H53.8342C54.0046 58.0641 55.5368 61.8235 58.1696 64.7603C56.8101 62.1703 56.1073 59.286 56.123 56.3609C56.1224 55.613 56.1677 54.8658 56.2587 54.1235Z" fill="#FF7110"/>
<path d="M50.1482 54.1308C50.1482 54.4463 50.1226 54.7617 50.1226 55.0771C50.1226 59.6987 51.8061 63.858 54.491 66.7666C53.1331 64.176 52.4304 61.2921 52.4443 58.3672C52.4416 56.9347 52.6066 55.5067 52.9358 54.1125L50.1482 54.1308Z" fill="#FF7110"/>
<path d="M59.7984 54.3032C59.7984 54.2592 59.7984 54.2115 59.7984 54.1639L57.7371 54.1382C58.2509 57.329 59.6762 60.3032 61.8414 62.7027C60.4848 60.1117 59.7834 57.2279 59.7984 54.3032Z" fill="#FF7110"/>
<path d="M72.878 56.6067C72.5303 55.9557 72.2276 55.2817 71.972 54.5893L71.2825 54.549C71.7555 55.2785 72.2893 55.9668 72.878 56.6067Z" fill="#FF7110"/>
<path d="M65.5237 60.6707C64.467 58.6737 63.8045 56.4919 63.5724 54.2445L61.9109 54.2115C62.604 56.6131 63.8401 58.8231 65.5237 60.6707Z" fill="#FF7110"/>
<path d="M69.199 58.6386C68.4899 57.2931 67.9608 55.8601 67.6255 54.3766L66.3857 54.3326C67.0838 55.911 68.034 57.3653 69.199 58.6386Z" fill="#FF7110"/>
<path d="M75.9591 59.9664C75.9591 59.9664 70.824 63.2675 73.7327 64.5109C76.6413 65.7543 75.9591 59.9664 75.9591 59.9664Z" fill="#E77A04"/>
<path d="M68.3115 62.6733C68.3115 62.6733 72.1848 58.1252 73.0541 60.8394C73.9234 63.5536 68.3115 62.6733 68.3115 62.6733Z" fill="#E77A04"/>
<g style="mix-blend-mode:screen" opacity="0.54">
<path d="M41.8 56.2875C37.3509 57.9344 37.5306 62.5779 41.0261 64.1148C44.5216 65.6516 50.4122 59.8564 56.4312 60.1461C62.4502 60.4359 69.6869 61.694 69.3971 57.8244C69.1073 53.9548 46.2528 54.6443 41.8 56.2875Z" fill="#FFCC0F"/>
</g>
<path d="M125.593 29.8569L119.643 33.7888L128.27 46.8465L134.216 42.9145L130.038 37.9042L125.593 29.8569Z" fill="#844123"/>
<path d="M84.8611 56.768L91.0304 52.693L99.6536 65.7507L93.4879 69.8257L90.6123 64.4192L84.8611 56.768Z" fill="#844123"/>
<path d="M130.962 45.0969L96.9723 67.5516L94.4085 62.798L88.3198 54.4536L122.31 31.9989L128.021 40.8128L130.962 45.0969Z" fill="#B26742"/>
<path d="M119.467 43.8336L114.111 47.3717L117.851 53.0333L123.207 49.4953L119.467 43.8336Z" fill="#4E1317"/>
<path d="M112.89 48.1853L107.534 51.7233L111.274 57.385L116.63 53.8469L112.89 48.1853Z" fill="#4E1317"/>
<path d="M99.7313 56.8768L94.3757 60.4149L98.116 66.0765L103.472 62.5384L99.7313 56.8768Z" fill="#4E1317"/>
<path d="M106.31 52.5282L100.955 56.0663L104.695 61.7279L110.05 58.1898L106.31 52.5282Z" fill="#4E1317"/>
<path d="M125.677 39.8803L120.349 43.4106L124.081 49.0427L129.409 45.5123L125.677 39.8803Z" fill="#4E1317"/>
<path d="M95.484 50.4488L90.1284 53.9869L93.8687 59.6485L99.2243 56.1104L95.484 50.4488Z" fill="#4E1317"/>
<path d="M121.805 33.0587L116.45 36.5967L120.19 42.2584L125.546 38.7203L121.805 33.0587Z" fill="#4E1317"/>
<path d="M108.644 41.7522L103.288 45.2903L107.028 50.9519L112.384 47.4138L108.644 41.7522Z" fill="#4E1317"/>
<path d="M115.223 37.4073L109.867 40.9453L113.607 46.607L118.963 43.0689L115.223 37.4073Z" fill="#4E1317"/>
<path d="M102.063 46.1039L96.7075 49.6419L100.448 55.3036L105.803 51.7655L102.063 46.1039Z" fill="#4E1317"/>
<g style="mix-blend-mode:multiply">
<g style="mix-blend-mode:multiply">
<path d="M108.112 44.9428C114.93 40.435 120.498 35.9565 123.025 33.1029L122.31 32.0026L88.4629 54.3766C90.0144 55.3119 98.5532 51.2552 108.112 44.9428Z" fill="#A8A19E"/>
</g>
<g style="mix-blend-mode:multiply">
<path d="M97.1152 67.4562L130.962 45.0822L130.229 43.9818C126.612 45.1922 120.326 48.552 113.5 53.0525C103.937 59.3869 96.8475 65.6443 97.1152 67.4562Z" fill="#A8A19E"/>
</g>
</g>
<path d="M111.609 52.5652C114.736 50.4995 116.456 47.5918 115.451 46.0707C114.446 44.5495 111.097 44.9909 107.97 47.0566C104.843 49.1223 103.123 52.03 104.128 53.5512C105.133 55.0723 108.482 54.6309 111.609 52.5652Z" fill="#C66C00"/>
<path d="M83.5 99.3095C72.5914 99.3095 61.9278 96.0748 52.8577 90.0143C43.7875 83.9538 36.7181 75.3398 32.5436 65.2616C28.3691 55.1834 27.2769 44.0936 29.405 33.3946C31.5332 22.6957 36.7861 12.868 44.4997 5.15448C52.2132 -2.55905 62.0408 -7.81203 72.7398 -9.94019C83.4388 -12.0684 94.5286 -10.9761 104.607 -6.80157C114.685 -2.62704 123.299 4.44229 129.359 13.5124C135.42 22.5826 138.655 33.2462 138.655 44.1548C138.638 58.7777 132.822 72.7971 122.482 83.1371C112.142 93.4771 98.123 99.2933 83.5 99.3095ZM83.5 -2.21387C74.3291 -2.21387 65.3642 0.505603 57.7389 5.60066C50.1136 10.6957 44.1705 17.9375 40.6609 26.4103C37.1514 34.883 36.2331 44.2062 38.0223 53.2009C39.8114 62.1955 44.2276 70.4576 50.7124 76.9424C57.1972 83.4271 65.4593 87.8433 74.4539 89.6325C83.4486 91.4216 92.7717 90.5034 101.245 86.9938C109.717 83.4843 116.959 77.5411 122.054 69.9158C127.149 62.2906 129.869 53.3256 129.869 44.1548C129.855 31.8613 124.965 20.0754 116.272 11.3826C107.579 2.68982 95.7934 -2.19992 83.5 -2.21387Z" fill="#CF4339"/>
<path d="M118.926 79.5892L48.0745 8.74243" stroke="#CF4339" stroke-width="10" stroke-miterlimit="10"/>
</g>
<g filter="url(#filter0_b_206:36996)">
<rect x="13" y="77" width="141" height="77" rx="10" fill="black" fill-opacity="0.8"/>
</g>
<path d="M29.9817 120H28.0497L27.8257 118.824L27.5877 117.984L25.8237 117.942L24.2697 117.984L24.0317 118.726L23.7937 120H21.9177L24.9697 110.984H27.2237L29.9817 120ZM27.1817 116.514L26.1177 112.762H25.9917L24.7597 116.514L25.9637 116.542L27.1817 116.514ZM32.9972 117.13L33.0952 120H31.2332L31.3312 117.298L31.2472 110.312L33.1092 110.172L32.9972 117.13ZM34.981 117.312L34.911 113.616L36.745 113.462L36.661 117.13L36.745 120H34.883L34.981 117.312ZM35.863 110.298C36.1523 110.298 36.3763 110.382 36.535 110.55C36.703 110.718 36.787 110.951 36.787 111.25C36.787 111.567 36.6983 111.819 36.521 112.006C36.3436 112.193 36.101 112.286 35.793 112.286C35.485 112.286 35.247 112.202 35.079 112.034C34.9203 111.866 34.841 111.628 34.841 111.32C34.841 111.012 34.9296 110.765 35.107 110.578C35.2936 110.391 35.5456 110.298 35.863 110.298ZM46.3034 120L46.4154 115.94C46.4154 115.249 46.1214 114.904 45.5334 114.904C45.1134 114.904 44.6747 115.091 44.2174 115.464L44.1754 117.144L44.2594 120H42.3974L42.5094 115.94C42.5187 115.604 42.444 115.347 42.2854 115.17C42.136 114.993 41.9167 114.904 41.6274 114.904C41.2167 114.904 40.764 115.1 40.2694 115.492V117.13L40.3534 120H38.5054L38.6034 117.312L38.5334 113.616L40.2834 113.462V114.414H40.3814C40.8947 113.947 41.4594 113.611 42.0754 113.406C43.1207 113.406 43.788 113.756 44.0774 114.456H44.1614C44.6934 113.961 45.3 113.611 45.9814 113.406C46.6907 113.406 47.2274 113.569 47.5914 113.896C47.9647 114.213 48.142 114.675 48.1234 115.282L48.0814 117.144L48.1654 120H46.3034ZM54.8383 116.976L51.0583 117.004C51.1423 118.171 51.735 118.754 52.8363 118.754C53.415 118.754 54.059 118.591 54.7683 118.264L54.9223 118.362L54.6423 119.748C53.933 120.009 53.2657 120.14 52.6403 120.14C51.6137 120.14 50.8063 119.841 50.2183 119.244C49.6397 118.647 49.3503 117.821 49.3503 116.766C49.3503 115.721 49.635 114.895 50.2043 114.288C50.7737 113.672 51.5437 113.364 52.5143 113.364C53.345 113.364 53.9843 113.593 54.4323 114.05C54.8897 114.498 55.1183 115.128 55.1183 115.94C55.1183 116.155 55.095 116.425 55.0483 116.752L54.8383 116.976ZM53.4943 115.73C53.4943 115.357 53.4103 115.077 53.2423 114.89C53.0743 114.694 52.827 114.596 52.5003 114.596C52.1363 114.596 51.833 114.717 51.5903 114.96C51.3477 115.193 51.1843 115.534 51.1003 115.982L53.4663 115.926L53.4943 115.73ZM60.4059 115.94C60.4152 115.613 60.3405 115.361 60.1819 115.184C60.0325 114.997 59.8132 114.904 59.5239 114.904C59.1039 114.904 58.6559 115.105 58.1799 115.506V117.13L58.2639 120H56.4019L56.4999 117.312L56.4299 113.616L58.1939 113.462V114.414H58.2919C58.8052 113.947 59.3652 113.611 59.9719 113.406C60.6812 113.406 61.2225 113.569 61.5959 113.896C61.9692 114.213 62.1465 114.675 62.1279 115.282L62.0859 117.144L62.1699 120H60.2939L60.4059 115.94ZM66.444 118.628C66.7427 118.628 67.0553 118.549 67.382 118.39L67.536 118.53L67.354 119.636C66.878 119.879 66.3927 120.028 65.898 120.084C64.638 119.953 64.008 119.337 64.008 118.236L64.078 117.074L64.064 114.666H63.196L63.126 114.568L63.224 113.546H64.05V112.468L65.744 111.922L65.87 112.034L65.828 113.546H67.494L67.55 113.644L67.466 114.666H65.8L65.716 117.802C65.716 118.101 65.772 118.315 65.884 118.446C65.996 118.567 66.1827 118.628 66.444 118.628ZM71.1045 113.364C71.8231 113.364 72.3831 113.527 72.7845 113.854C73.1951 114.171 73.4005 114.619 73.4005 115.198C73.4005 115.366 73.3725 115.898 73.3165 116.794C73.3071 117.055 73.2931 117.326 73.2745 117.606C73.2558 117.877 73.2465 118.11 73.2465 118.306C73.2465 118.465 73.2698 118.577 73.3165 118.642C73.3631 118.698 73.4471 118.726 73.5685 118.726C73.6618 118.726 73.7831 118.707 73.9325 118.67L74.0725 118.782L73.9045 119.762C73.6058 119.958 73.2651 120.075 72.8825 120.112C72.6025 120.084 72.3691 119.986 72.1825 119.818C71.9958 119.641 71.8698 119.398 71.8045 119.09H71.7065C71.2398 119.585 70.7591 119.93 70.2645 120.126C69.5925 120.117 69.0651 119.939 68.6825 119.594C68.2998 119.249 68.1085 118.777 68.1085 118.18C68.1085 117.713 68.2251 117.349 68.4585 117.088C68.7011 116.817 69.0651 116.635 69.5505 116.542L71.6925 116.136V115.562C71.6925 114.955 71.3938 114.652 70.7965 114.652C70.5071 114.652 70.1991 114.717 69.8725 114.848C69.5551 114.979 69.1958 115.184 68.7945 115.464L68.6545 115.38L68.4445 114.148C68.8458 113.896 69.2751 113.705 69.7325 113.574C70.1898 113.434 70.6471 113.364 71.1045 113.364ZM70.1945 117.396C70.0451 117.433 69.9331 117.499 69.8585 117.592C69.7931 117.676 69.7605 117.807 69.7605 117.984C69.7605 118.227 69.8258 118.418 69.9565 118.558C70.0871 118.689 70.2691 118.754 70.5025 118.754C70.8665 118.754 71.2491 118.539 71.6505 118.11L71.6785 117.074L70.1945 117.396ZM77.9567 113.364C78.2647 113.364 78.568 113.397 78.8667 113.462C79.1747 113.518 79.4454 113.602 79.6787 113.714L79.3707 115.198L79.2167 115.268C78.7407 115.007 78.316 114.876 77.9427 114.876C77.5134 114.876 77.182 115.03 76.9487 115.338C76.7154 115.646 76.5987 116.085 76.5987 116.654C76.5987 117.307 76.7247 117.807 76.9767 118.152C77.2287 118.497 77.588 118.67 78.0547 118.67C78.4747 118.67 78.9414 118.553 79.4547 118.32L79.5947 118.432L79.4127 119.874C78.8527 120.051 78.2787 120.14 77.6907 120.14C76.7947 120.14 76.0947 119.851 75.5907 119.272C75.0867 118.684 74.8347 117.867 74.8347 116.822C74.8347 115.739 75.11 114.895 75.6607 114.288C76.2114 113.672 76.9767 113.364 77.9567 113.364ZM77.9427 120.672L78.4187 120.938C78.624 121.05 78.7687 121.171 78.8527 121.302C78.946 121.442 78.9927 121.596 78.9927 121.764C78.9927 122.072 78.8714 122.324 78.6287 122.52C78.386 122.716 78.0687 122.814 77.6767 122.814C77.2567 122.814 76.874 122.683 76.5287 122.422L76.6547 121.638L76.7387 121.596C77.0187 121.876 77.294 122.016 77.5647 122.016C77.7887 122.016 77.9007 121.918 77.9007 121.722C77.9007 121.657 77.882 121.601 77.8447 121.554C77.8074 121.517 77.7467 121.479 77.6627 121.442L76.9767 121.05L77.2987 119.636H78.1947L77.9427 120.672ZM83.0947 113.364C83.8134 113.364 84.3734 113.527 84.7747 113.854C85.1854 114.171 85.3907 114.619 85.3907 115.198C85.3907 115.366 85.3627 115.898 85.3067 116.794C85.2974 117.055 85.2834 117.326 85.2647 117.606C85.246 117.877 85.2367 118.11 85.2367 118.306C85.2367 118.465 85.26 118.577 85.3067 118.642C85.3534 118.698 85.4374 118.726 85.5587 118.726C85.652 118.726 85.7734 118.707 85.9227 118.67L86.0627 118.782L85.8947 119.762C85.596 119.958 85.2554 120.075 84.8727 120.112C84.5927 120.084 84.3594 119.986 84.1727 119.818C83.986 119.641 83.86 119.398 83.7947 119.09H83.6967C83.23 119.585 82.7494 119.93 82.2547 120.126C81.5827 120.117 81.0554 119.939 80.6727 119.594C80.29 119.249 80.0987 118.777 80.0987 118.18C80.0987 117.713 80.2154 117.349 80.4487 117.088C80.6914 116.817 81.0554 116.635 81.5407 116.542L83.6827 116.136V115.562C83.6827 114.955 83.384 114.652 82.7867 114.652C82.4974 114.652 82.1894 114.717 81.8627 114.848C81.5454 114.979 81.186 115.184 80.7847 115.464L80.6447 115.38L80.4347 114.148C80.836 113.896 81.2654 113.705 81.7227 113.574C82.18 113.434 82.6374 113.364 83.0947 113.364ZM82.1847 117.396C82.0354 117.433 81.9234 117.499 81.8487 117.592C81.7834 117.676 81.7507 117.807 81.7507 117.984C81.7507 118.227 81.816 118.418 81.9467 118.558C82.0774 118.689 82.2594 118.754 82.4927 118.754C82.8567 118.754 83.2394 118.539 83.6407 118.11L83.6687 117.074L82.1847 117.396ZM85.3907 110.732V110.886L84.4107 112.132L84.2287 112.202C83.9767 112.174 83.5894 112.085 83.0667 111.936C83.02 111.927 82.866 111.889 82.6047 111.824C82.3527 111.749 82.1754 111.712 82.0727 111.712C81.97 111.712 81.8674 111.754 81.7647 111.838C81.6714 111.922 81.5687 112.025 81.4567 112.146C81.3447 112.267 81.2607 112.361 81.2047 112.426H81.0367L80.4767 111.88V111.726L81.4707 110.48L81.6387 110.41C81.8627 110.438 82.2594 110.531 82.8287 110.69C83.3514 110.83 83.6734 110.9 83.7947 110.9C83.9067 110.9 84.014 110.853 84.1167 110.76C84.2287 110.667 84.3407 110.559 84.4527 110.438C84.5647 110.317 84.6394 110.233 84.6767 110.186H84.8447L85.3907 110.732ZM89.9749 113.364C90.9269 113.364 91.6549 113.644 92.1589 114.204C92.6629 114.764 92.9149 115.571 92.9149 116.626C92.9149 117.765 92.6443 118.637 92.1029 119.244C91.5616 119.841 90.7823 120.14 89.7649 120.14C88.8129 120.14 88.0849 119.86 87.5809 119.3C87.0769 118.74 86.8249 117.933 86.8249 116.878C86.8249 115.739 87.0956 114.871 87.6369 114.274C88.1783 113.667 88.9576 113.364 89.9749 113.364ZM89.8489 114.624C89.4009 114.624 89.0743 114.773 88.8689 115.072C88.6729 115.371 88.5749 115.851 88.5749 116.514C88.5749 117.373 88.6776 117.984 88.8829 118.348C89.0883 118.712 89.4243 118.894 89.8909 118.894C90.3389 118.894 90.6609 118.749 90.8569 118.46C91.0623 118.161 91.1649 117.676 91.1649 117.004C91.1649 116.155 91.0576 115.548 90.8429 115.184C90.6376 114.811 90.3063 114.624 89.8489 114.624ZM98.4941 113.378C99.1287 113.378 99.7261 113.485 100.286 113.7L100.034 115.072L99.8101 115.142C99.5394 114.965 99.2687 114.829 98.9981 114.736C98.7274 114.643 98.4894 114.596 98.2841 114.596C98.0601 114.596 97.8827 114.657 97.7521 114.778C97.6214 114.89 97.5561 115.03 97.5561 115.198C97.5561 115.394 97.6401 115.553 97.8081 115.674C97.9854 115.795 98.2607 115.931 98.6341 116.08C99.0074 116.229 99.3154 116.374 99.5581 116.514C99.8007 116.654 100.006 116.85 100.174 117.102C100.351 117.345 100.44 117.648 100.44 118.012C100.44 118.385 100.342 118.735 100.146 119.062C99.9594 119.379 99.6701 119.641 99.2781 119.846C98.8861 120.042 98.4054 120.14 97.8361 120.14C97.1641 120.14 96.4687 120 95.7501 119.72L95.9601 118.264L96.1421 118.152C96.4314 118.395 96.7534 118.591 97.1081 118.74C97.4627 118.88 97.7754 118.95 98.0461 118.95C98.2981 118.95 98.4941 118.889 98.6341 118.768C98.7741 118.637 98.8441 118.483 98.8441 118.306C98.8441 118.11 98.7554 117.951 98.5781 117.83C98.4101 117.709 98.1394 117.573 97.7661 117.424C97.3834 117.256 97.0707 117.107 96.8281 116.976C96.5854 116.836 96.3754 116.64 96.1981 116.388C96.0301 116.136 95.9461 115.823 95.9461 115.45C95.9461 114.843 96.1747 114.349 96.6321 113.966C97.0894 113.574 97.7101 113.378 98.4941 113.378ZM104.245 113.364C104.964 113.364 105.524 113.527 105.925 113.854C106.336 114.171 106.541 114.619 106.541 115.198C106.541 115.366 106.513 115.898 106.457 116.794C106.448 117.055 106.434 117.326 106.415 117.606C106.396 117.877 106.387 118.11 106.387 118.306C106.387 118.465 106.41 118.577 106.457 118.642C106.504 118.698 106.588 118.726 106.709 118.726C106.802 118.726 106.924 118.707 107.073 118.67L107.213 118.782L107.045 119.762C106.746 119.958 106.406 120.075 106.023 120.112C105.743 120.084 105.51 119.986 105.323 119.818C105.136 119.641 105.01 119.398 104.945 119.09H104.847C104.38 119.585 103.9 119.93 103.405 120.126C102.733 120.117 102.206 119.939 101.823 119.594C101.44 119.249 101.249 118.777 101.249 118.18C101.249 117.713 101.366 117.349 101.599 117.088C101.842 116.817 102.206 116.635 102.691 116.542L104.833 116.136V115.562C104.833 114.955 104.534 114.652 103.937 114.652C103.648 114.652 103.34 114.717 103.013 114.848C102.696 114.979 102.336 115.184 101.935 115.464L101.795 115.38L101.585 114.148C101.986 113.896 102.416 113.705 102.873 113.574C103.33 113.434 103.788 113.364 104.245 113.364ZM103.335 117.396C103.186 117.433 103.074 117.499 102.999 117.592C102.934 117.676 102.901 117.807 102.901 117.984C102.901 118.227 102.966 118.418 103.097 118.558C103.228 118.689 103.41 118.754 103.643 118.754C104.007 118.754 104.39 118.539 104.791 118.11L104.819 117.074L103.335 117.396ZM114.639 118.782L114.471 119.762C114.126 119.986 113.771 120.103 113.407 120.112C113.137 120.065 112.913 119.958 112.735 119.79C112.558 119.622 112.423 119.379 112.329 119.062H112.203C111.671 119.585 111.121 119.925 110.551 120.084C109.842 120.084 109.301 119.925 108.927 119.608C108.563 119.281 108.386 118.815 108.395 118.208L108.423 116.556L108.353 113.616L110.159 113.462L110.117 117.592C110.108 117.919 110.173 118.166 110.313 118.334C110.453 118.502 110.663 118.586 110.943 118.586C111.354 118.586 111.76 118.404 112.161 118.04V113.616L113.939 113.462L113.813 118.306C113.813 118.455 113.837 118.563 113.883 118.628C113.939 118.693 114.023 118.726 114.135 118.726C114.238 118.726 114.364 118.707 114.513 118.67L114.639 118.782ZM121.17 117.13L121.212 118.306C121.212 118.465 121.23 118.577 121.268 118.642C121.314 118.698 121.394 118.726 121.506 118.726C121.608 118.726 121.734 118.707 121.884 118.67L122.01 118.782L121.856 119.762C121.538 119.958 121.193 120.075 120.82 120.112C120.53 120.084 120.288 119.986 120.092 119.818C119.896 119.65 119.76 119.421 119.686 119.132H119.574C119.116 119.552 118.65 119.874 118.174 120.098C117.259 120.098 116.55 119.809 116.046 119.23C115.542 118.642 115.29 117.83 115.29 116.794C115.29 115.693 115.579 114.848 116.158 114.26C116.736 113.672 117.539 113.378 118.566 113.378C118.836 113.378 119.135 113.406 119.462 113.462L119.434 110.312L121.282 110.172L121.17 117.13ZM118.44 114.638C117.506 114.638 117.04 115.231 117.04 116.416C117.04 117.153 117.152 117.709 117.376 118.082C117.6 118.455 117.926 118.642 118.356 118.642C118.766 118.642 119.144 118.451 119.49 118.068L119.518 117.298L119.476 114.89C119.112 114.722 118.766 114.638 118.44 114.638ZM125.669 113.364C126.388 113.364 126.948 113.527 127.349 113.854C127.76 114.171 127.965 114.619 127.965 115.198C127.965 115.366 127.937 115.898 127.881 116.794C127.872 117.055 127.858 117.326 127.839 117.606C127.82 117.877 127.811 118.11 127.811 118.306C127.811 118.465 127.834 118.577 127.881 118.642C127.928 118.698 128.012 118.726 128.133 118.726C128.226 118.726 128.348 118.707 128.497 118.67L128.637 118.782L128.469 119.762C128.17 119.958 127.83 120.075 127.447 120.112C127.167 120.084 126.934 119.986 126.747 119.818C126.56 119.641 126.434 119.398 126.369 119.09H126.271C125.804 119.585 125.324 119.93 124.829 120.126C124.157 120.117 123.63 119.939 123.247 119.594C122.864 119.249 122.673 118.777 122.673 118.18C122.673 117.713 122.79 117.349 123.023 117.088C123.266 116.817 123.63 116.635 124.115 116.542L126.257 116.136V115.562C126.257 114.955 125.958 114.652 125.361 114.652C125.072 114.652 124.764 114.717 124.437 114.848C124.12 114.979 123.76 115.184 123.359 115.464L123.219 115.38L123.009 114.148C123.41 113.896 123.84 113.705 124.297 113.574C124.754 113.434 125.212 113.364 125.669 113.364ZM124.759 117.396C124.61 117.433 124.498 117.499 124.423 117.592C124.358 117.676 124.325 117.807 124.325 117.984C124.325 118.227 124.39 118.418 124.521 118.558C124.652 118.689 124.834 118.754 125.067 118.754C125.431 118.754 125.814 118.539 126.215 118.11L126.243 117.074L124.759 117.396ZM126.887 109.878L127.559 110.886L127.531 111.068C127.326 111.199 127.172 111.292 127.069 111.348C125.902 112.067 125.146 112.524 124.801 112.72L124.619 112.706L124.171 112.006C125.254 111.138 126.098 110.424 126.705 109.864L126.887 109.878ZM130.969 114.526L131.949 118.25H132.047L133.223 114.624L133.461 113.49H135.085L132.901 120H130.899L129.051 113.532L130.787 113.448L130.969 114.526ZM140.862 116.976L137.082 117.004C137.166 118.171 137.758 118.754 138.86 118.754C139.438 118.754 140.082 118.591 140.792 118.264L140.946 118.362L140.666 119.748C139.956 120.009 139.289 120.14 138.664 120.14C137.637 120.14 136.83 119.841 136.242 119.244C135.663 118.647 135.374 117.821 135.374 116.766C135.374 115.721 135.658 114.895 136.228 114.288C136.797 113.672 137.567 113.364 138.538 113.364C139.368 113.364 140.008 113.593 140.456 114.05C140.913 114.498 141.142 115.128 141.142 115.94C141.142 116.155 141.118 116.425 141.072 116.752L140.862 116.976ZM139.518 115.73C139.518 115.357 139.434 115.077 139.266 114.89C139.098 114.694 138.85 114.596 138.524 114.596C138.16 114.596 137.856 114.717 137.614 114.96C137.371 115.193 137.208 115.534 137.124 115.982L139.49 115.926L139.518 115.73ZM144.191 117.13L144.289 120H142.427L142.525 117.298L142.441 110.312L144.303 110.172L144.191 117.13Z" fill="white"/>
<defs>
<filter id="filter0_b_206:36996" x="3" y="67" width="161" height="97" filterUnits="userSpaceOnUse" color-interpolation-filters="sRGB">
<feFlood flood-opacity="0" result="BackgroundImageFix"/>
<feGaussianBlur in="BackgroundImage" stdDeviation="5"/>
<feComposite in2="SourceAlpha" operator="in" result="effect1_backgroundBlur_206:36996"/>
<feBlend mode="normal" in="SourceGraphic" in2="effect1_backgroundBlur_206:36996" result="shape"/>
</filter>
<linearGradient id="paint0_linear_206:36996" x1="98.8516" y1="52.034" x2="69.901" y2="45.5245" gradientUnits="userSpaceOnUse">
<stop stop-color="white" stop-opacity="0.5"/>
<stop offset="1" stop-color="white" stop-opacity="0"/>
</linearGradient>
</defs>
</svg>
