<svg width="167" height="167" viewBox="0 0 167 167" fill="none" xmlns="http://www.w3.org/2000/svg">
<mask id="mask0_206:37030" style="mask-type:alpha" maskUnits="userSpaceOnUse" x="0" y="0" width="167" height="167">
<rect x="1" y="1" width="165" height="165" rx="8" fill="#5988D6" stroke="#EDE6FC" stroke-opacity="0.3"/>
</mask>
<g mask="url(#mask0_206:37030)">
<rect x="1" y="1" width="165" height="165" rx="8" fill="#D97A7A" stroke="#EDE6FC" stroke-opacity="0.3"/>
<path d="M83.5499 108.9C73.9674 108.9 64.6001 106.058 56.6325 100.735C48.6649 95.4109 42.455 87.8441 38.7879 78.991C35.1208 70.1379 34.1614 60.3962 36.0308 50.9979C37.9003 41.5995 42.5147 32.9665 49.2905 26.1906C56.0664 19.4148 64.6994 14.8004 74.0977 12.9309C83.4961 11.0615 93.2378 12.0209 102.091 15.688C110.944 19.3551 118.511 25.565 123.835 33.5326C129.158 41.5002 132 50.8675 132 60.45C131.986 73.2953 126.876 85.6105 117.793 94.6935C108.71 103.777 96.3953 108.886 83.5499 108.9ZM83.5499 19.718C75.4939 19.718 67.6187 22.1069 60.9204 26.5826C54.2221 31.0583 49.0014 37.4197 45.9185 44.8625C42.8355 52.3053 42.0289 60.4952 43.6005 68.3964C45.1722 76.2976 49.0516 83.5554 54.748 89.2518C60.4445 94.9483 67.7022 98.8277 75.6035 100.399C83.5047 101.971 91.6945 101.164 99.1373 98.0814C106.58 94.9985 112.942 89.7778 117.417 83.0795C121.893 76.3811 124.282 68.506 124.282 60.45C124.27 49.651 119.974 39.2977 112.338 31.6617C104.702 24.0256 94.3489 19.7303 83.5499 19.718Z" fill="#CF4339"/>
<path d="M108.541 37.1724C108.471 37.0825 108.393 36.9986 108.309 36.9216C108.221 36.8483 108.12 36.7942 108.028 36.7248C107.725 36.4342 107.451 36.115 107.209 35.7716C107.046 35.6031 106.869 35.4483 106.681 35.3085C106.388 35.0692 106.106 34.8145 105.836 34.5367C105.528 34.1987 105.182 33.897 104.805 33.6375H104.774L103.578 34.83L109.066 40.3175L110.258 39.1212C110.264 39.0945 110.264 39.0669 110.258 39.0402C109.645 38.4536 109.077 37.8284 108.541 37.1724Z" fill="#CF4339"/>
<path d="M105.836 34.5483C106.106 34.8145 106.387 35.0692 106.681 35.3201C106.869 35.4598 107.046 35.6147 107.209 35.7832C107.451 36.1266 107.725 36.4458 108.028 36.7363C108.12 36.8058 108.221 36.8598 108.309 36.9331C108.393 37.0102 108.471 37.0941 108.541 37.184C109.077 37.84 109.644 38.4652 110.243 39.0672C110.174 38.9237 110.097 38.7845 110.011 38.6504C109.974 38.5421 109.952 38.4291 109.945 38.3147C109.812 37.9022 109.539 37.5489 109.174 37.3152C108.435 36.6449 107.742 35.9269 107.098 35.1657C106.844 34.8454 106.535 34.5723 106.187 34.3592C106.013 34.2666 105.828 34.201 105.666 34.0968C105.388 33.9231 105.118 33.6375 104.794 33.6607C105.174 33.9158 105.523 34.2136 105.836 34.5483Z" fill="#CF4339"/>
<path d="M108.695 40.7034C107.758 39.8965 106.9 39.0024 106.133 38.033C106.006 37.8748 105.882 37.7088 105.747 37.5622C105.567 37.3911 105.372 37.2362 105.164 37.0991C104.469 36.528 103.824 35.8993 103.235 35.2197L71.6448 66.8097L77.1285 72.2972L108.695 40.7034Z" fill="#FCFCFC"/>
<path d="M71.616 66.8082L57.0991 81.3251L62.5866 86.8126L77.1035 72.2956L71.616 66.8082Z" fill="#E09230"/>
<g style="mix-blend-mode:screen" opacity="0.4">
<g style="mix-blend-mode:screen" opacity="0.4">
<path d="M71.5485 68.4806C71.6849 68.4806 71.7955 68.3701 71.7955 68.2337C71.7955 68.0973 71.6849 67.9867 71.5485 67.9867C71.4121 67.9867 71.3015 68.0973 71.3015 68.2337C71.3015 68.3701 71.4121 68.4806 71.5485 68.4806Z" fill="#E09230"/>
</g>
<g style="mix-blend-mode:screen" opacity="0.4">
<path d="M72.7602 69.4415C72.7945 69.4069 72.8177 69.3629 72.827 69.315C72.8363 69.2672 72.8313 69.2177 72.8125 69.1727C72.7937 69.1278 72.7621 69.0893 72.7216 69.0623C72.681 69.0353 72.6333 69.0209 72.5846 69.0209C72.5359 69.0209 72.4882 69.0353 72.4477 69.0623C72.4071 69.0893 72.3755 69.1278 72.3567 69.1727C72.3379 69.2177 72.3329 69.2672 72.3422 69.315C72.3515 69.3629 72.3748 69.4069 72.409 69.4415C72.4559 69.4875 72.519 69.5133 72.5846 69.5133C72.6503 69.5133 72.7133 69.4875 72.7602 69.4415Z" fill="#E09230"/>
</g>
<g style="mix-blend-mode:screen" opacity="0.4">
<path d="M73.7906 70.4758C73.8366 70.4289 73.8623 70.3658 73.8623 70.3002C73.8623 70.2345 73.8366 70.1715 73.7906 70.1246C73.768 70.1015 73.7409 70.0831 73.7111 70.0706C73.6813 70.0581 73.6493 70.0516 73.617 70.0516C73.5846 70.0516 73.5526 70.0581 73.5227 70.0706C73.4929 70.0831 73.4659 70.1015 73.4433 70.1246C73.3973 70.1715 73.3716 70.2345 73.3716 70.3002C73.3716 70.3658 73.3973 70.4289 73.4433 70.4758C73.4659 70.4989 73.4929 70.5172 73.5227 70.5298C73.5526 70.5423 73.5846 70.5487 73.617 70.5487C73.6493 70.5487 73.6813 70.5423 73.7111 70.5298C73.7409 70.5172 73.768 70.4989 73.7906 70.4758Z" fill="#E09230"/>
</g>
<g style="mix-blend-mode:screen" opacity="0.4">
<path d="M74.651 71.5833C74.7874 71.5833 74.898 71.4727 74.898 71.3363C74.898 71.1999 74.7874 71.0893 74.651 71.0893C74.5146 71.0893 74.4041 71.1999 74.4041 71.3363C74.4041 71.4727 74.5146 71.5833 74.651 71.5833Z" fill="#E09230"/>
</g>
<g style="mix-blend-mode:screen" opacity="0.4">
<path d="M75.8589 72.5442C75.8931 72.5096 75.9164 72.4655 75.9257 72.4177C75.935 72.3699 75.93 72.3203 75.9112 72.2754C75.8924 72.2304 75.8608 72.192 75.8202 72.165C75.7797 72.1379 75.732 72.1235 75.6833 72.1235C75.6346 72.1235 75.5869 72.1379 75.5464 72.165C75.5058 72.192 75.4741 72.2304 75.4553 72.2754C75.4366 72.3203 75.4315 72.3699 75.4408 72.4177C75.4501 72.4655 75.4734 72.5096 75.5077 72.5442C75.5546 72.5902 75.6176 72.6159 75.6833 72.6159C75.7489 72.6159 75.812 72.5902 75.8589 72.5442Z" fill="#E09230"/>
</g>
<g style="mix-blend-mode:screen" opacity="0.4">
<path d="M70.7343 69.2949C70.8707 69.2949 70.9813 69.1843 70.9813 69.0479C70.9813 68.9115 70.8707 68.8009 70.7343 68.8009C70.5979 68.8009 70.4873 68.9115 70.4873 69.0479C70.4873 69.1843 70.5979 69.2949 70.7343 69.2949Z" fill="#E09230"/>
</g>
<g style="mix-blend-mode:screen" opacity="0.4">
<path d="M71.946 70.2558C71.9802 70.2212 72.0035 70.1772 72.0128 70.1293C72.0221 70.0815 72.0171 70.032 71.9983 69.987C71.9795 69.942 71.9479 69.9036 71.9073 69.8766C71.8668 69.8496 71.8191 69.8351 71.7704 69.8351C71.7217 69.8351 71.674 69.8496 71.6335 69.8766C71.5929 69.9036 71.5613 69.942 71.5425 69.987C71.5237 70.032 71.5187 70.0815 71.528 70.1293C71.5373 70.1772 71.5606 70.2212 71.5948 70.2558C71.6417 70.3018 71.7047 70.3275 71.7704 70.3275C71.8361 70.3275 71.8991 70.3018 71.946 70.2558Z" fill="#E09230"/>
</g>
<g style="mix-blend-mode:screen" opacity="0.4">
<path d="M72.9764 71.29C73.0224 71.2431 73.0481 71.1801 73.0481 71.1144C73.0481 71.0488 73.0224 70.9857 72.9764 70.9388C72.9538 70.9157 72.9267 70.8974 72.8969 70.8849C72.8671 70.8723 72.8351 70.8659 72.8027 70.8659C72.7704 70.8659 72.7384 70.8723 72.7085 70.8849C72.6787 70.8974 72.6517 70.9157 72.6291 70.9388C72.5831 70.9857 72.5574 71.0488 72.5574 71.1144C72.5574 71.1801 72.5831 71.2431 72.6291 71.29C72.6517 71.3131 72.6787 71.3315 72.7085 71.344C72.7384 71.3565 72.7704 71.363 72.8027 71.363C72.8351 71.363 72.8671 71.3565 72.8969 71.344C72.9267 71.3315 72.9538 71.3131 72.9764 71.29Z" fill="#E09230"/>
</g>
<g style="mix-blend-mode:screen" opacity="0.4">
<path d="M74.0105 72.3242C74.0565 72.2773 74.0823 72.2143 74.0823 72.1487C74.0823 72.083 74.0565 72.0199 74.0105 71.9731C73.9759 71.9388 73.9319 71.9155 73.884 71.9062C73.8362 71.8969 73.7867 71.902 73.7417 71.9207C73.6967 71.9395 73.6583 71.9712 73.6313 72.0117C73.6043 72.0523 73.5898 72.0999 73.5898 72.1487C73.5898 72.1974 73.6043 72.245 73.6313 72.2856C73.6583 72.3261 73.6967 72.3578 73.7417 72.3766C73.7867 72.3953 73.8362 72.4004 73.884 72.3911C73.9319 72.3818 73.9759 72.3585 74.0105 72.3242Z" fill="#E09230"/>
</g>
<g style="mix-blend-mode:screen" opacity="0.4">
<path d="M74.871 73.4279C75.0074 73.4279 75.118 73.3173 75.118 73.1809C75.118 73.0445 75.0074 72.934 74.871 72.934C74.7346 72.934 74.624 73.0445 74.624 73.1809C74.624 73.3173 74.7346 73.4279 74.871 73.4279Z" fill="#E09230"/>
</g>
<g style="mix-blend-mode:screen" opacity="0.4">
<path d="M70.0975 70.0358C70.1206 70.0132 70.1389 69.9862 70.1515 69.9564C70.164 69.9265 70.1705 69.8945 70.1705 69.8622C70.1705 69.8298 70.164 69.7978 70.1515 69.768C70.1389 69.7382 70.1206 69.7112 70.0975 69.6885C70.0506 69.6426 69.9875 69.6168 69.9219 69.6168C69.8562 69.6168 69.7932 69.6426 69.7463 69.6885C69.7232 69.7112 69.7049 69.7382 69.6923 69.768C69.6798 69.7978 69.6733 69.8298 69.6733 69.8622C69.6733 69.8945 69.6798 69.9265 69.6923 69.9564C69.7049 69.9862 69.7232 70.0132 69.7463 70.0358C69.7932 70.0818 69.8562 70.1075 69.9219 70.1075C69.9875 70.1075 70.0506 70.0818 70.0975 70.0358Z" fill="#E09230"/>
</g>
<g style="mix-blend-mode:screen" opacity="0.4">
<path d="M71.1316 71.0701C71.1658 71.0354 71.1891 70.9914 71.1984 70.9436C71.2077 70.8957 71.2027 70.8462 71.1839 70.8012C71.1651 70.7563 71.1335 70.7178 71.0929 70.6908C71.0524 70.6638 71.0047 70.6494 70.956 70.6494C70.9073 70.6494 70.8596 70.6638 70.8191 70.6908C70.7785 70.7178 70.7468 70.7563 70.728 70.8012C70.7093 70.8462 70.7042 70.8957 70.7135 70.9436C70.7228 70.9914 70.7461 71.0354 70.7804 71.0701C70.8273 71.116 70.8903 71.1418 70.956 71.1418C71.0217 71.1418 71.0847 71.116 71.1316 71.0701Z" fill="#E09230"/>
</g>
<g style="mix-blend-mode:screen" opacity="0.4">
<path d="M71.9884 72.1776C72.1248 72.1776 72.2354 72.067 72.2354 71.9306C72.2354 71.7942 72.1248 71.6836 71.9884 71.6836C71.852 71.6836 71.7415 71.7942 71.7415 71.9306C71.7415 72.067 71.852 72.1776 71.9884 72.1776Z" fill="#E09230"/>
</g>
<g style="mix-blend-mode:screen" opacity="0.4">
<path d="M73.1964 73.1385C73.2423 73.0916 73.2681 73.0286 73.2681 72.9629C73.2681 72.8972 73.2423 72.8342 73.1964 72.7873C73.1737 72.7642 73.1467 72.7459 73.1169 72.7333C73.0871 72.7208 73.0551 72.7143 73.0227 72.7143C72.9904 72.7143 72.9584 72.7208 72.9286 72.7333C72.8987 72.7459 72.8717 72.7642 72.8491 72.7873C72.8031 72.8342 72.7773 72.8972 72.7773 72.9629C72.7773 73.0286 72.8031 73.0916 72.8491 73.1385C72.8717 73.1616 72.8987 73.1799 72.9286 73.1925C72.9584 73.205 72.9904 73.2115 73.0227 73.2115C73.0551 73.2115 73.0871 73.205 73.1169 73.1925C73.1467 73.1799 73.1737 73.1616 73.1964 73.1385Z" fill="#E09230"/>
</g>
<g style="mix-blend-mode:screen" opacity="0.4">
<path d="M74.2304 74.1727C74.2647 74.1381 74.288 74.0941 74.2973 74.0462C74.3066 73.9984 74.3015 73.9489 74.2828 73.9039C74.264 73.8589 74.2323 73.8205 74.1918 73.7935C74.1512 73.7665 74.1036 73.752 74.0549 73.752C74.0061 73.752 73.9585 73.7665 73.9179 73.7935C73.8774 73.8205 73.8457 73.8589 73.8269 73.9039C73.8081 73.9489 73.8031 73.9984 73.8124 74.0462C73.8217 74.0941 73.845 74.1381 73.8793 74.1727C73.9261 74.2187 73.9892 74.2444 74.0549 74.2444C74.1205 74.2444 74.1836 74.2187 74.2304 74.1727Z" fill="#E09230"/>
</g>
<g style="mix-blend-mode:screen" opacity="0.4">
<path d="M69.2831 70.8501C69.3174 70.8154 69.3407 70.7714 69.35 70.7236C69.3593 70.6758 69.3542 70.6262 69.3355 70.5813C69.3167 70.5363 69.2851 70.4979 69.2445 70.4709C69.2039 70.4438 69.1563 70.4294 69.1076 70.4294C69.0588 70.4294 69.0112 70.4438 68.9706 70.4709C68.9301 70.4979 68.8984 70.5363 68.8797 70.5813C68.8609 70.6262 68.8558 70.6758 68.8651 70.7236C68.8745 70.7714 68.8977 70.8154 68.932 70.8501C68.9789 70.896 69.0419 70.9218 69.1076 70.9218C69.1732 70.9218 69.2362 70.896 69.2831 70.8501Z" fill="#E09230"/>
</g>
<g style="mix-blend-mode:screen" opacity="0.4">
<path d="M70.3174 71.8843C70.3516 71.8497 70.3749 71.8056 70.3842 71.7578C70.3935 71.71 70.3885 71.6604 70.3697 71.6155C70.3509 71.5705 70.3193 71.5321 70.2787 71.5051C70.2382 71.478 70.1905 71.4636 70.1418 71.4636C70.0931 71.4636 70.0454 71.478 70.0048 71.5051C69.9643 71.5321 69.9326 71.5705 69.9138 71.6155C69.8951 71.6604 69.89 71.71 69.8993 71.7578C69.9086 71.8056 69.9319 71.8497 69.9662 71.8843C70.0131 71.9303 70.0761 71.956 70.1418 71.956C70.2074 71.956 70.2705 71.9303 70.3174 71.8843Z" fill="#E09230"/>
</g>
<g style="mix-blend-mode:screen" opacity="0.4">
<path d="M71.3515 72.9185C71.3858 72.8839 71.409 72.8399 71.4183 72.792C71.4276 72.7442 71.4226 72.6947 71.4039 72.6497C71.3851 72.6047 71.3534 72.5663 71.3129 72.5393C71.2723 72.5123 71.2247 72.4979 71.1759 72.4979C71.1272 72.4979 71.0795 72.5123 71.039 72.5393C70.9984 72.5663 70.9668 72.6047 70.948 72.6497C70.9292 72.6947 70.9242 72.7442 70.9335 72.792C70.9428 72.8399 70.9661 72.8839 71.0004 72.9185C71.0472 72.9645 71.1103 72.9902 71.1759 72.9902C71.2416 72.9902 71.3046 72.9645 71.3515 72.9185Z" fill="#E09230"/>
</g>
<g style="mix-blend-mode:screen" opacity="0.4">
<path d="M72.2084 74.0222C72.3448 74.0222 72.4554 73.9116 72.4554 73.7752C72.4554 73.6388 72.3448 73.5282 72.2084 73.5282C72.072 73.5282 71.9614 73.6388 71.9614 73.7752C71.9614 73.9116 72.072 74.0222 72.2084 74.0222Z" fill="#E09230"/>
</g>
<g style="mix-blend-mode:screen" opacity="0.4">
<path d="M73.2426 75.0564C73.379 75.0564 73.4896 74.9458 73.4896 74.8094C73.4896 74.673 73.379 74.5625 73.2426 74.5625C73.1062 74.5625 72.9956 74.673 72.9956 74.8094C72.9956 74.9458 73.1062 75.0564 73.2426 75.0564Z" fill="#E09230"/>
</g>
<g style="mix-blend-mode:screen" opacity="0.4">
<path d="M68.4689 71.6644C68.5032 71.6297 68.5265 71.5857 68.5358 71.5379C68.5451 71.49 68.54 71.4405 68.5213 71.3955C68.5025 71.3505 68.4708 71.3121 68.4303 71.2851C68.3897 71.2581 68.3421 71.2437 68.2934 71.2437C68.2446 71.2437 68.197 71.2581 68.1564 71.2851C68.1159 71.3121 68.0842 71.3505 68.0654 71.3955C68.0467 71.4405 68.0416 71.49 68.0509 71.5379C68.0603 71.5857 68.0835 71.6297 68.1178 71.6644C68.1647 71.7103 68.2277 71.736 68.2934 71.736C68.359 71.736 68.422 71.7103 68.4689 71.6644Z" fill="#E09230"/>
</g>
<g style="mix-blend-mode:screen" opacity="0.4">
<path d="M69.3256 72.7719C69.462 72.7719 69.5726 72.6613 69.5726 72.5249C69.5726 72.3885 69.462 72.2779 69.3256 72.2779C69.1892 72.2779 69.0786 72.3885 69.0786 72.5249C69.0786 72.6613 69.1892 72.7719 69.3256 72.7719Z" fill="#E09230"/>
</g>
<g style="mix-blend-mode:screen" opacity="0.4">
<path d="M70.5373 73.7328C70.5716 73.6981 70.5948 73.6541 70.6041 73.6063C70.6134 73.5584 70.6084 73.5089 70.5896 73.464C70.5708 73.419 70.5392 73.3806 70.4987 73.3535C70.4581 73.3265 70.4104 73.3121 70.3617 73.3121C70.313 73.3121 70.2653 73.3265 70.2248 73.3535C70.1842 73.3806 70.1526 73.419 70.1338 73.464C70.115 73.5089 70.11 73.5584 70.1193 73.6063C70.1286 73.6541 70.1519 73.6981 70.1861 73.7328C70.233 73.7787 70.2961 73.8045 70.3617 73.8045C70.4274 73.8045 70.4904 73.7787 70.5373 73.7328Z" fill="#E09230"/>
</g>
<g style="mix-blend-mode:screen" opacity="0.4">
<path d="M71.5677 74.767C71.6137 74.7201 71.6394 74.6571 71.6394 74.5914C71.6394 74.5258 71.6137 74.4627 71.5677 74.4158C71.5451 74.3927 71.518 74.3744 71.4882 74.3618C71.4584 74.3493 71.4264 74.3428 71.3941 74.3428C71.3617 74.3428 71.3297 74.3493 71.2998 74.3618C71.27 74.3744 71.243 74.3927 71.2204 74.4158C71.1744 74.4627 71.1487 74.5258 71.1487 74.5914C71.1487 74.6571 71.1744 74.7201 71.2204 74.767C71.243 74.7901 71.27 74.8085 71.2998 74.821C71.3297 74.8335 71.3617 74.84 71.3941 74.84C71.4264 74.84 71.4584 74.8335 71.4882 74.821C71.518 74.8085 71.5451 74.7901 71.5677 74.767Z" fill="#E09230"/>
</g>
<g style="mix-blend-mode:screen" opacity="0.4">
<path d="M72.6021 75.7973C72.6404 75.7499 72.6598 75.69 72.6565 75.6291C72.6533 75.5682 72.6277 75.5107 72.5846 75.4676C72.5414 75.4244 72.4839 75.3988 72.423 75.3956C72.3621 75.3923 72.3022 75.4117 72.2548 75.45C72.2165 75.4975 72.1971 75.5574 72.2003 75.6183C72.2035 75.6792 72.2292 75.7367 72.2723 75.7798C72.3154 75.8229 72.3729 75.8486 72.4338 75.8518C72.4947 75.855 72.5546 75.8356 72.6021 75.7973Z" fill="#E09230"/>
</g>
<g style="mix-blend-mode:screen" opacity="0.4">
<path d="M67.6547 72.4786C67.689 72.4439 67.7122 72.3999 67.7216 72.3521C67.7309 72.3043 67.7258 72.2547 67.707 72.2098C67.6883 72.1648 67.6566 72.1264 67.6161 72.0994C67.5755 72.0723 67.5279 72.0579 67.4791 72.0579C67.4304 72.0579 67.3828 72.0723 67.3422 72.0994C67.3016 72.1264 67.27 72.1648 67.2512 72.2098C67.2325 72.2547 67.2274 72.3043 67.2367 72.3521C67.246 72.3999 67.2693 72.4439 67.3035 72.4786C67.3504 72.5245 67.4135 72.5503 67.4791 72.5503C67.5448 72.5503 67.6078 72.5245 67.6547 72.4786Z" fill="#E09230"/>
</g>
<g style="mix-blend-mode:screen" opacity="0.4">
<path d="M68.6772 73.5128C68.7115 73.4782 68.7348 73.4342 68.7441 73.3863C68.7534 73.3385 68.7483 73.289 68.7296 73.244C68.7108 73.199 68.6791 73.1606 68.6386 73.1336C68.598 73.1066 68.5504 73.0921 68.5017 73.0921C68.4529 73.0921 68.4053 73.1066 68.3647 73.1336C68.3242 73.1606 68.2925 73.199 68.2737 73.244C68.2549 73.289 68.2499 73.3385 68.2592 73.3863C68.2685 73.4342 68.2918 73.4782 68.326 73.5128C68.3729 73.5588 68.436 73.5845 68.5017 73.5845C68.5673 73.5845 68.6303 73.5588 68.6772 73.5128Z" fill="#E09230"/>
</g>
<g style="mix-blend-mode:screen" opacity="0.4">
<path d="M69.5456 74.6204C69.682 74.6204 69.7925 74.5098 69.7925 74.3734C69.7925 74.237 69.682 74.1264 69.5456 74.1264C69.4092 74.1264 69.2986 74.237 69.2986 74.3734C69.2986 74.5098 69.4092 74.6204 69.5456 74.6204Z" fill="#E09230"/>
</g>
<g style="mix-blend-mode:screen" opacity="0.4">
<path d="M70.5797 75.6507C70.7161 75.6507 70.8267 75.5401 70.8267 75.4037C70.8267 75.2673 70.7161 75.1568 70.5797 75.1568C70.4433 75.1568 70.3328 75.2673 70.3328 75.4037C70.3328 75.5401 70.4433 75.6507 70.5797 75.6507Z" fill="#E09230"/>
</g>
<g style="mix-blend-mode:screen" opacity="0.4">
<path d="M71.6139 76.6849C71.7503 76.6849 71.8609 76.5744 71.8609 76.438C71.8609 76.3016 71.7503 76.191 71.6139 76.191C71.4775 76.191 71.3669 76.3016 71.3669 76.438C71.3669 76.5744 71.4775 76.6849 71.6139 76.6849Z" fill="#E09230"/>
</g>
<g style="mix-blend-mode:screen" opacity="0.4">
<path d="M66.6669 73.3662C66.8033 73.3662 66.9139 73.2556 66.9139 73.1192C66.9139 72.9828 66.8033 72.8722 66.6669 72.8722C66.5305 72.8722 66.4199 72.9828 66.4199 73.1192C66.4199 73.2556 66.5305 73.3662 66.6669 73.3662Z" fill="#E09230"/>
</g>
<g style="mix-blend-mode:screen" opacity="0.4">
<path d="M67.8747 74.3271C67.909 74.2924 67.9323 74.2484 67.9416 74.2006C67.9509 74.1527 67.9458 74.1032 67.9271 74.0583C67.9083 74.0133 67.8766 73.9749 67.8361 73.9478C67.7955 73.9208 67.7478 73.9064 67.6991 73.9064C67.6504 73.9064 67.6027 73.9208 67.5622 73.9478C67.5216 73.9749 67.49 74.0133 67.4712 74.0583C67.4524 74.1032 67.4474 74.1527 67.4567 74.2006C67.466 74.2484 67.4893 74.2924 67.5235 74.3271C67.5704 74.373 67.6335 74.3988 67.6991 74.3988C67.7648 74.3988 67.8278 74.373 67.8747 74.3271Z" fill="#E09230"/>
</g>
<g style="mix-blend-mode:screen" opacity="0.4">
<path d="M68.9089 75.3613C68.9431 75.3266 68.9664 75.2826 68.9757 75.2348C68.985 75.187 68.98 75.1374 68.9612 75.0925C68.9424 75.0475 68.9108 75.0091 68.8702 74.9821C68.8297 74.955 68.782 74.9406 68.7333 74.9406C68.6846 74.9406 68.6369 74.955 68.5964 74.9821C68.5558 75.0091 68.5242 75.0475 68.5054 75.0925C68.4866 75.1374 68.4816 75.187 68.4909 75.2348C68.5002 75.2826 68.5234 75.3266 68.5577 75.3613C68.6046 75.4072 68.6676 75.433 68.7333 75.433C68.7989 75.433 68.862 75.4072 68.9089 75.3613Z" fill="#E09230"/>
</g>
<g style="mix-blend-mode:screen" opacity="0.4">
<path d="M69.7655 76.465C69.9019 76.465 70.0125 76.3544 70.0125 76.218C70.0125 76.0816 69.9019 75.971 69.7655 75.971C69.6291 75.971 69.5186 76.0816 69.5186 76.218C69.5186 76.3544 69.6291 76.465 69.7655 76.465Z" fill="#E09230"/>
</g>
<g style="mix-blend-mode:screen" opacity="0.4">
<path d="M70.9927 77.4259C71.0275 77.3914 71.0512 77.3474 71.061 77.2995C71.0708 77.2515 71.066 77.2017 71.0474 77.1564C71.0288 77.1111 70.9972 77.0723 70.9565 77.0451C70.9158 77.0178 70.868 77.0033 70.819 77.0033C70.77 77.0033 70.7222 77.0178 70.6815 77.0451C70.6408 77.0723 70.6092 77.1111 70.5905 77.1564C70.5719 77.2017 70.5672 77.2515 70.577 77.2995C70.5867 77.3474 70.6105 77.3914 70.6453 77.4259C70.668 77.449 70.695 77.4673 70.7248 77.4798C70.7546 77.4924 70.7867 77.4988 70.819 77.4988C70.8514 77.4988 70.8834 77.4924 70.9132 77.4798C70.943 77.4673 70.97 77.449 70.9927 77.4259Z" fill="#E09230"/>
</g>
<g style="mix-blend-mode:screen" opacity="0.4">
<path d="M66.0261 74.1071C66.0604 74.0725 66.0836 74.0284 66.0929 73.9806C66.1023 73.9328 66.0972 73.8833 66.0784 73.8383C66.0597 73.7933 66.028 73.7549 65.9874 73.7279C65.9469 73.7009 65.8993 73.6864 65.8505 73.6864C65.8018 73.6864 65.7541 73.7009 65.7136 73.7279C65.673 73.7549 65.6413 73.7933 65.6226 73.8383C65.6038 73.8833 65.5988 73.9328 65.6081 73.9806C65.6174 74.0284 65.6406 74.0725 65.6749 74.1071C65.7218 74.1531 65.7849 74.1788 65.8505 74.1788C65.9162 74.1788 65.9792 74.1531 66.0261 74.1071Z" fill="#E09230"/>
</g>
<g style="mix-blend-mode:screen" opacity="0.4">
<path d="M67.0603 75.1413C67.0945 75.1067 67.1178 75.0627 67.1271 75.0148C67.1364 74.967 67.1313 74.9175 67.1126 74.8725C67.0938 74.8275 67.0622 74.7891 67.0216 74.7621C66.981 74.7351 66.9334 74.7207 66.8847 74.7207C66.8359 74.7207 66.7883 74.7351 66.7477 74.7621C66.7072 74.7891 66.6755 74.8275 66.6568 74.8725C66.638 74.9175 66.6329 74.967 66.6422 75.0148C66.6516 75.0627 66.6748 75.1067 66.7091 75.1413C66.756 75.1873 66.819 75.213 66.8847 75.213C66.9503 75.213 67.0134 75.1873 67.0603 75.1413Z" fill="#E09230"/>
</g>
<g style="mix-blend-mode:screen" opacity="0.4">
<path d="M68.0947 76.1755C68.129 76.1409 68.1522 76.0969 68.1615 76.049C68.1709 76.0012 68.1658 75.9517 68.147 75.9067C68.1283 75.8617 68.0966 75.8233 68.0561 75.7963C68.0155 75.7693 67.9679 75.7549 67.9191 75.7549C67.8704 75.7549 67.8227 75.7693 67.7822 75.7963C67.7416 75.8233 67.71 75.8617 67.6912 75.9067C67.6724 75.9517 67.6674 76.0012 67.6767 76.049C67.686 76.0969 67.7092 76.1409 67.7435 76.1755C67.7904 76.2215 67.8535 76.2472 67.9191 76.2472C67.9848 76.2472 68.0478 76.2215 68.0947 76.1755Z" fill="#E09230"/>
</g>
<g style="mix-blend-mode:screen" opacity="0.4">
<path d="M68.9513 77.2792C69.0877 77.2792 69.1983 77.1687 69.1983 77.0323C69.1983 76.8959 69.0877 76.7853 68.9513 76.7853C68.8149 76.7853 68.7043 76.8959 68.7043 77.0323C68.7043 77.1687 68.8149 77.2792 68.9513 77.2792Z" fill="#E09230"/>
</g>
<g style="mix-blend-mode:screen" opacity="0.4">
<path d="M69.9855 78.3134C70.1219 78.3134 70.2325 78.2029 70.2325 78.0665C70.2325 77.9301 70.1219 77.8195 69.9855 77.8195C69.8491 77.8195 69.7385 77.9301 69.7385 78.0665C69.7385 78.2029 69.8491 78.3134 69.9855 78.3134Z" fill="#E09230"/>
</g>
<g style="mix-blend-mode:screen" opacity="0.4">
<path d="M65.2043 74.9214C65.2386 74.8867 65.2619 74.8427 65.2712 74.7949C65.2805 74.747 65.2754 74.6975 65.2567 74.6525C65.2379 74.6076 65.2062 74.5691 65.1657 74.5421C65.1251 74.5151 65.0775 74.5007 65.0287 74.5007C64.98 74.5007 64.9324 74.5151 64.8918 74.5421C64.8513 74.5691 64.8196 74.6076 64.8008 74.6525C64.782 74.6975 64.777 74.747 64.7863 74.7949C64.7956 74.8427 64.8189 74.8867 64.8531 74.9214C64.9 74.9673 64.9631 74.9931 65.0287 74.9931C65.0944 74.9931 65.1574 74.9673 65.2043 74.9214Z" fill="#E09230"/>
</g>
<g style="mix-blend-mode:screen" opacity="0.4">
<path d="M66.246 75.9556C66.2803 75.9209 66.3036 75.8769 66.3129 75.8291C66.3222 75.7812 66.3171 75.7317 66.2984 75.6868C66.2796 75.6418 66.2479 75.6034 66.2074 75.5764C66.1668 75.5493 66.1192 75.5349 66.0705 75.5349C66.0217 75.5349 65.9741 75.5493 65.9335 75.5764C65.893 75.6034 65.8613 75.6418 65.8425 75.6868C65.8238 75.7317 65.8187 75.7812 65.828 75.8291C65.8373 75.8769 65.8606 75.9209 65.8949 75.9556C65.9418 76.0015 66.0048 76.0273 66.0705 76.0273C66.1361 76.0273 66.1991 76.0015 66.246 75.9556Z" fill="#E09230"/>
</g>
<g style="mix-blend-mode:screen" opacity="0.4">
<path d="M67.1029 77.0593C67.2393 77.0593 67.3499 76.9487 67.3499 76.8123C67.3499 76.6759 67.2393 76.5653 67.1029 76.5653C66.9665 76.5653 66.856 76.6759 66.856 76.8123C66.856 76.9487 66.9665 77.0593 67.1029 77.0593Z" fill="#E09230"/>
</g>
<g style="mix-blend-mode:screen" opacity="0.4">
<path d="M68.1371 78.0935C68.2735 78.0935 68.3841 77.9829 68.3841 77.8465C68.3841 77.7101 68.2735 77.5995 68.1371 77.5995C68.0007 77.5995 67.8901 77.7101 67.8901 77.8465C67.8901 77.9829 68.0007 78.0935 68.1371 78.0935Z" fill="#E09230"/>
</g>
<g style="mix-blend-mode:screen" opacity="0.4">
<path d="M69.3488 79.066C69.3831 79.0313 69.4064 78.9873 69.4157 78.9395C69.425 78.8916 69.42 78.8421 69.4012 78.7971C69.3824 78.7522 69.3508 78.7138 69.3102 78.6867C69.2697 78.6597 69.222 78.6453 69.1733 78.6453C69.1245 78.6453 69.0769 78.6597 69.0363 78.6867C68.9958 78.7138 68.9641 78.7522 68.9453 78.7971C68.9266 78.8421 68.9215 78.8916 68.9308 78.9395C68.9401 78.9873 68.9634 79.0313 68.9977 79.066C69.0446 79.1119 69.1076 79.1377 69.1733 79.1377C69.2389 79.1377 69.302 79.1119 69.3488 79.066Z" fill="#E09230"/>
</g>
<g style="mix-blend-mode:screen" opacity="0.4">
<path d="M64.224 75.8089C64.3604 75.8089 64.471 75.6984 64.471 75.5619C64.471 75.4255 64.3604 75.315 64.224 75.315C64.0876 75.315 63.9771 75.4255 63.9771 75.5619C63.9771 75.6984 64.0876 75.8089 64.224 75.8089Z" fill="#E09230"/>
</g>
<g style="mix-blend-mode:screen" opacity="0.4">
<path d="M65.2582 76.8393C65.3946 76.8393 65.5052 76.7287 65.5052 76.5923C65.5052 76.4559 65.3946 76.3453 65.2582 76.3453C65.1218 76.3453 65.0112 76.4559 65.0112 76.5923C65.0112 76.7287 65.1218 76.8393 65.2582 76.8393Z" fill="#E09230"/>
</g>
<g style="mix-blend-mode:screen" opacity="0.4">
<path d="M66.466 77.8041C66.5003 77.7694 66.5236 77.7254 66.5329 77.6776C66.5422 77.6297 66.5371 77.5802 66.5184 77.5352C66.4996 77.4903 66.4679 77.4518 66.4274 77.4248C66.3868 77.3978 66.3392 77.3834 66.2904 77.3834C66.2417 77.3834 66.1941 77.3978 66.1535 77.4248C66.113 77.4518 66.0813 77.4903 66.0625 77.5352C66.0437 77.5802 66.0387 77.6297 66.048 77.6776C66.0573 77.7254 66.0806 77.7694 66.1149 77.8041C66.1617 77.85 66.2248 77.8758 66.2904 77.8758C66.3561 77.8758 66.4191 77.85 66.466 77.8041Z" fill="#E09230"/>
</g>
<g style="mix-blend-mode:screen" opacity="0.4">
<path d="M67.3229 78.9077C67.4593 78.9077 67.5699 78.7971 67.5699 78.6607C67.5699 78.5243 67.4593 78.4138 67.3229 78.4138C67.1865 78.4138 67.0759 78.5243 67.0759 78.6607C67.0759 78.7971 67.1865 78.9077 67.3229 78.9077Z" fill="#E09230"/>
</g>
<g style="mix-blend-mode:screen" opacity="0.4">
<path d="M68.5346 79.8686C68.5689 79.834 68.5922 79.79 68.6015 79.7421C68.6108 79.6943 68.6057 79.6448 68.587 79.5998C68.5682 79.5548 68.5365 79.5164 68.496 79.4894C68.4554 79.4624 68.4078 79.448 68.3591 79.448C68.3103 79.448 68.2627 79.4624 68.2221 79.4894C68.1816 79.5164 68.1499 79.5548 68.1311 79.5998C68.1123 79.6448 68.1073 79.6943 68.1166 79.7421C68.1259 79.79 68.1492 79.834 68.1835 79.8686C68.2303 79.9146 68.2934 79.9403 68.3591 79.9403C68.4247 79.9403 68.4878 79.9146 68.5346 79.8686Z" fill="#E09230"/>
</g>
<g style="mix-blend-mode:screen" opacity="0.4">
<path d="M63.5836 76.5499C63.6295 76.503 63.6553 76.4399 63.6553 76.3743C63.6553 76.3086 63.6295 76.2456 63.5836 76.1987C63.5609 76.1756 63.5339 76.1572 63.5041 76.1447C63.4743 76.1322 63.4422 76.1257 63.4099 76.1257C63.3775 76.1257 63.3455 76.1322 63.3157 76.1447C63.2859 76.1572 63.2589 76.1756 63.2362 76.1987C63.1903 76.2456 63.1646 76.3086 63.1646 76.3743C63.1646 76.4399 63.1903 76.503 63.2362 76.5499C63.2589 76.573 63.2859 76.5913 63.3157 76.6039C63.3455 76.6164 63.3775 76.6228 63.4099 76.6228C63.4422 76.6228 63.4743 76.6164 63.5041 76.6039C63.5339 76.5913 63.5609 76.573 63.5836 76.5499Z" fill="#E09230"/>
</g>
<g style="mix-blend-mode:screen" opacity="0.4">
<path d="M64.444 77.6536C64.5804 77.6536 64.691 77.543 64.691 77.4066C64.691 77.2702 64.5804 77.1596 64.444 77.1596C64.3076 77.1596 64.197 77.2702 64.197 77.4066C64.197 77.543 64.3076 77.6536 64.444 77.6536Z" fill="#E09230"/>
</g>
<g style="mix-blend-mode:screen" opacity="0.4">
<path d="M65.4745 78.6878C65.6109 78.6878 65.7215 78.5772 65.7215 78.4408C65.7215 78.3044 65.6109 78.1938 65.4745 78.1938C65.3381 78.1938 65.2275 78.3044 65.2275 78.4408C65.2275 78.5772 65.3381 78.6878 65.4745 78.6878Z" fill="#E09230"/>
</g>
<g style="mix-blend-mode:screen" opacity="0.4">
<path d="M66.686 79.6487C66.7202 79.614 66.7435 79.57 66.7528 79.5222C66.7621 79.4743 66.7571 79.4248 66.7383 79.3798C66.7195 79.3349 66.6879 79.2964 66.6473 79.2694C66.6068 79.2424 66.5591 79.228 66.5104 79.228C66.4617 79.228 66.414 79.2424 66.3735 79.2694C66.3329 79.2964 66.3013 79.3349 66.2825 79.3798C66.2637 79.4248 66.2587 79.4743 66.268 79.5222C66.2773 79.57 66.3006 79.614 66.3348 79.6487C66.3817 79.6946 66.4447 79.7204 66.5104 79.7204C66.576 79.7204 66.6391 79.6946 66.686 79.6487Z" fill="#E09230"/>
</g>
<g style="mix-blend-mode:screen" opacity="0.4">
<path d="M67.7202 80.6829C67.7545 80.6482 67.7777 80.6042 67.787 80.5564C67.7963 80.5085 67.7913 80.459 67.7725 80.4141C67.7538 80.3691 67.7221 80.3307 67.6815 80.3036C67.641 80.2766 67.5933 80.2622 67.5446 80.2622C67.4958 80.2622 67.4482 80.2766 67.4077 80.3036C67.3671 80.3307 67.3354 80.3691 67.3167 80.4141C67.2979 80.459 67.2928 80.5085 67.3022 80.5564C67.3115 80.6042 67.3347 80.6482 67.369 80.6829C67.4159 80.7288 67.4789 80.7546 67.5446 80.7546C67.6102 80.7546 67.6733 80.7288 67.7202 80.6829Z" fill="#E09230"/>
</g>
<g style="mix-blend-mode:screen" opacity="0.4">
<path d="M62.5956 77.4336C62.732 77.4336 62.8426 77.323 62.8426 77.1866C62.8426 77.0502 62.732 76.9396 62.5956 76.9396C62.4592 76.9396 62.3486 77.0502 62.3486 77.1866C62.3486 77.323 62.4592 77.4336 62.5956 77.4336Z" fill="#E09230"/>
</g>
<g style="mix-blend-mode:screen" opacity="0.4">
<path d="M63.6298 78.4678C63.7662 78.4678 63.8768 78.3572 63.8768 78.2208C63.8768 78.0844 63.7662 77.9738 63.6298 77.9738C63.4934 77.9738 63.3828 78.0844 63.3828 78.2208C63.3828 78.3572 63.4934 78.4678 63.6298 78.4678Z" fill="#E09230"/>
</g>
<g style="mix-blend-mode:screen" opacity="0.4">
<path d="M64.664 79.502C64.8004 79.502 64.9109 79.3914 64.9109 79.255C64.9109 79.1186 64.8004 79.0081 64.664 79.0081C64.5276 79.0081 64.417 79.1186 64.417 79.255C64.417 79.3914 64.5276 79.502 64.664 79.502Z" fill="#E09230"/>
</g>
<g style="mix-blend-mode:screen" opacity="0.4">
<path d="M65.8718 80.4629C65.906 80.4283 65.9293 80.3842 65.9386 80.3364C65.9479 80.2886 65.9429 80.2391 65.9241 80.1941C65.9053 80.1491 65.8737 80.1107 65.8331 80.0837C65.7926 80.0567 65.7449 80.0422 65.6962 80.0422C65.6475 80.0422 65.5998 80.0567 65.5593 80.0837C65.5187 80.1107 65.487 80.1491 65.4682 80.1941C65.4495 80.2391 65.4445 80.2886 65.4538 80.3364C65.4631 80.3842 65.4863 80.4283 65.5206 80.4629C65.5675 80.5089 65.6305 80.5346 65.6962 80.5346C65.7619 80.5346 65.8249 80.5089 65.8718 80.4629Z" fill="#E09230"/>
</g>
<g style="mix-blend-mode:screen" opacity="0.4">
<path d="M66.906 81.4971C66.9403 81.4625 66.9635 81.4185 66.9728 81.3706C66.9821 81.3228 66.9771 81.2733 66.9583 81.2283C66.9395 81.1833 66.9079 81.1449 66.8673 81.1179C66.8267 81.0909 66.7791 81.0765 66.7304 81.0765C66.6816 81.0765 66.634 81.0909 66.5934 81.1179C66.5529 81.1449 66.5212 81.1833 66.5025 81.2283C66.4837 81.2733 66.4786 81.3228 66.4879 81.3706C66.4973 81.4185 66.5205 81.4625 66.5548 81.4971C66.6017 81.5431 66.6647 81.5688 66.7304 81.5688C66.796 81.5688 66.8591 81.5431 66.906 81.4971Z" fill="#E09230"/>
</g>
<g style="mix-blend-mode:screen" opacity="0.4">
<path d="M61.9549 78.1784C61.9785 78.1557 61.9973 78.1285 62.0103 78.0985C62.0233 78.0685 62.0302 78.0362 62.0306 78.0035C62.031 77.9707 62.0249 77.9383 62.0127 77.9079C62.0004 77.8776 61.9822 77.85 61.9592 77.8268C61.9362 77.8035 61.9088 77.785 61.8786 77.7725C61.8484 77.7599 61.8161 77.7534 61.7833 77.7534C61.7506 77.7535 61.7183 77.76 61.6881 77.7727C61.6579 77.7854 61.6306 77.8039 61.6076 77.8272C61.5617 77.8741 61.5359 77.9371 61.5359 78.0028C61.5359 78.0684 61.5617 78.1315 61.6076 78.1784C61.6303 78.2015 61.6573 78.2198 61.6871 78.2324C61.7169 78.2449 61.7489 78.2513 61.7813 78.2513C61.8136 78.2513 61.8456 78.2449 61.8754 78.2324C61.9053 78.2198 61.9323 78.2015 61.9549 78.1784Z" fill="#E09230"/>
</g>
<g style="mix-blend-mode:screen" opacity="0.4">
<path d="M62.8156 79.2821C62.952 79.2821 63.0626 79.1715 63.0626 79.0351C63.0626 78.8987 62.952 78.7881 62.8156 78.7881C62.6792 78.7881 62.5686 78.8987 62.5686 79.0351C62.5686 79.1715 62.6792 79.2821 62.8156 79.2821Z" fill="#E09230"/>
</g>
<g style="mix-blend-mode:screen" opacity="0.4">
<path d="M64.0232 80.243C64.0463 80.2203 64.0647 80.1933 64.0773 80.1635C64.0898 80.1337 64.0962 80.1016 64.0962 80.0693C64.0962 80.037 64.0898 80.0049 64.0773 79.9751C64.0647 79.9453 64.0463 79.9183 64.0232 79.8956C63.9763 79.8497 63.9133 79.8239 63.8477 79.8239C63.782 79.8239 63.719 79.8497 63.6721 79.8956C63.649 79.9183 63.6306 79.9453 63.6181 79.9751C63.6056 80.0049 63.5991 80.037 63.5991 80.0693C63.5991 80.1016 63.6056 80.1337 63.6181 80.1635C63.6306 80.1933 63.649 80.2203 63.6721 80.243C63.719 80.2889 63.782 80.3147 63.8477 80.3147C63.9133 80.3147 63.9763 80.2889 64.0232 80.243Z" fill="#E09230"/>
</g>
<g style="mix-blend-mode:screen" opacity="0.4">
<path d="M65.0576 81.2772C65.0919 81.2425 65.1151 81.1985 65.1244 81.1507C65.1337 81.1028 65.1287 81.0533 65.1099 81.0083C65.0912 80.9634 65.0595 80.925 65.019 80.8979C64.9784 80.8709 64.9308 80.8565 64.882 80.8565C64.8333 80.8565 64.7856 80.8709 64.7451 80.8979C64.7045 80.925 64.6728 80.9634 64.6541 81.0083C64.6353 81.0533 64.6302 81.1028 64.6396 81.1507C64.6489 81.1985 64.6721 81.2425 64.7064 81.2772C64.7533 81.3231 64.8164 81.3489 64.882 81.3489C64.9477 81.3489 65.0107 81.3231 65.0576 81.2772Z" fill="#E09230"/>
</g>
<g style="mix-blend-mode:screen" opacity="0.4">
<path d="M65.9142 82.3847C66.0506 82.3847 66.1612 82.2741 66.1612 82.1377C66.1612 82.0013 66.0506 81.8907 65.9142 81.8907C65.7778 81.8907 65.6672 82.0013 65.6672 82.1377C65.6672 82.2741 65.7778 82.3847 65.9142 82.3847Z" fill="#E09230"/>
</g>
<g style="mix-blend-mode:screen" opacity="0.4">
<path d="M60.9669 79.0621C61.1033 79.0621 61.2139 78.9515 61.2139 78.8151C61.2139 78.6787 61.1033 78.5681 60.9669 78.5681C60.8305 78.5681 60.72 78.6787 60.72 78.8151C60.72 78.9515 60.8305 79.0621 60.9669 79.0621Z" fill="#E09230"/>
</g>
<g style="mix-blend-mode:screen" opacity="0.4">
<path d="M62.0011 80.0963C62.1375 80.0963 62.2481 79.9857 62.2481 79.8493C62.2481 79.7129 62.1375 79.6024 62.0011 79.6024C61.8647 79.6024 61.7542 79.7129 61.7542 79.8493C61.7542 79.9857 61.8647 80.0963 62.0011 80.0963Z" fill="#E09230"/>
</g>
<g style="mix-blend-mode:screen" opacity="0.4">
<path d="M63.2089 81.0572C63.2432 81.0226 63.2664 80.9785 63.2758 80.9307C63.2851 80.8829 63.28 80.8334 63.2612 80.7884C63.2425 80.7434 63.2108 80.705 63.1703 80.678C63.1297 80.651 63.0821 80.6365 63.0333 80.6365C62.9846 80.6365 62.937 80.651 62.8964 80.678C62.8558 80.705 62.8242 80.7434 62.8054 80.7884C62.7867 80.8334 62.7816 80.8829 62.7909 80.9307C62.8002 80.9785 62.8235 81.0226 62.8578 81.0572C62.9047 81.1032 62.9677 81.1289 63.0333 81.1289C63.099 81.1289 63.162 81.1032 63.2089 81.0572Z" fill="#E09230"/>
</g>
<g style="mix-blend-mode:screen" opacity="0.4">
<path d="M64.2434 82.0914C64.2777 82.0568 64.3009 82.0128 64.3102 81.9649C64.3195 81.9171 64.3145 81.8676 64.2957 81.8226C64.2769 81.7776 64.2453 81.7392 64.2047 81.7122C64.1641 81.6852 64.1165 81.6707 64.0678 81.6707C64.0191 81.6707 63.9714 81.6852 63.9309 81.7122C63.8903 81.7392 63.8586 81.7776 63.8399 81.8226C63.8211 81.8676 63.816 81.9171 63.8254 81.9649C63.8347 82.0128 63.8579 82.0568 63.8922 82.0914C63.9391 82.1374 64.0022 82.1631 64.0678 82.1631C64.1335 82.1631 64.1965 82.1374 64.2434 82.0914Z" fill="#E09230"/>
</g>
<g style="mix-blend-mode:screen" opacity="0.4">
<path d="M65.2775 83.1256C65.3118 83.091 65.335 83.047 65.3444 82.9992C65.3537 82.9513 65.3486 82.9018 65.3298 82.8568C65.3111 82.8119 65.2794 82.7734 65.2389 82.7464C65.1983 82.7194 65.1507 82.705 65.1019 82.705C65.0532 82.705 65.0056 82.7194 64.965 82.7464C64.9244 82.7734 64.8928 82.8119 64.874 82.8568C64.8553 82.9018 64.8502 82.9513 64.8595 82.9992C64.8688 83.047 64.8921 83.091 64.9264 83.1256C64.9733 83.1716 65.0363 83.1974 65.1019 83.1974C65.1676 83.1974 65.2306 83.1716 65.2775 83.1256Z" fill="#E09230"/>
</g>
<g style="mix-blend-mode:screen" opacity="0.4">
<path d="M60.1527 79.8763C60.2891 79.8763 60.3997 79.7658 60.3997 79.6294C60.3997 79.493 60.2891 79.3824 60.1527 79.3824C60.0163 79.3824 59.9058 79.493 59.9058 79.6294C59.9058 79.7658 60.0163 79.8763 60.1527 79.8763Z" fill="#E09230"/>
</g>
<g style="mix-blend-mode:screen" opacity="0.4">
<path d="M61.3452 80.8372C61.38 80.8028 61.4038 80.7588 61.4135 80.7108C61.4233 80.6628 61.4186 80.613 61.4 80.5678C61.3814 80.5225 61.3497 80.4837 61.3091 80.4565C61.2684 80.4292 61.2205 80.4146 61.1716 80.4146C61.1226 80.4146 61.0747 80.4292 61.034 80.4565C60.9934 80.4837 60.9617 80.5225 60.9431 80.5678C60.9245 80.613 60.9198 80.6628 60.9295 80.7108C60.9393 80.7588 60.9631 80.8028 60.9979 80.8372C61.0205 80.8603 61.0475 80.8787 61.0773 80.8912C61.1072 80.9038 61.1392 80.9102 61.1716 80.9102C61.2039 80.9102 61.2359 80.9038 61.2657 80.8912C61.2955 80.8787 61.3226 80.8603 61.3452 80.8372Z" fill="#E09230"/>
</g>
<g style="mix-blend-mode:screen" opacity="0.4">
<path d="M62.3948 81.8714C62.4407 81.8246 62.4665 81.7615 62.4665 81.6959C62.4665 81.6302 62.4407 81.5672 62.3948 81.5203C62.3601 81.486 62.3161 81.4627 62.2683 81.4534C62.2205 81.4441 62.171 81.4492 62.126 81.4679C62.081 81.4867 62.0426 81.5184 62.0156 81.5589C61.9886 81.5995 61.9741 81.6471 61.9741 81.6959C61.9741 81.7446 61.9886 81.7922 62.0156 81.8328C62.0426 81.8733 62.081 81.905 62.126 81.9238C62.171 81.9425 62.2205 81.9476 62.2683 81.9383C62.3161 81.929 62.3601 81.9057 62.3948 81.8714Z" fill="#E09230"/>
</g>
<g style="mix-blend-mode:screen" opacity="0.4">
<path d="M63.2555 82.979C63.3919 82.979 63.5025 82.8684 63.5025 82.732C63.5025 82.5956 63.3919 82.485 63.2555 82.485C63.1191 82.485 63.0085 82.5956 63.0085 82.732C63.0085 82.8684 63.1191 82.979 63.2555 82.979Z" fill="#E09230"/>
</g>
<g style="mix-blend-mode:screen" opacity="0.4">
<path d="M64.4633 83.9399C64.4976 83.9052 64.5208 83.8612 64.5301 83.8134C64.5395 83.7656 64.5344 83.716 64.5156 83.6711C64.4969 83.6261 64.4652 83.5877 64.4247 83.5607C64.3841 83.5336 64.3365 83.5192 64.2877 83.5192C64.239 83.5192 64.1914 83.5336 64.1508 83.5607C64.1102 83.5877 64.0786 83.6261 64.0598 83.6711C64.0411 83.716 64.036 83.7656 64.0453 83.8134C64.0546 83.8612 64.0779 83.9052 64.1122 83.9399C64.1591 83.9859 64.2221 84.0116 64.2877 84.0116C64.3534 84.0116 64.4164 83.9859 64.4633 83.9399Z" fill="#E09230"/>
</g>
<g style="mix-blend-mode:screen" opacity="0.4">
<path d="M59.3385 80.6906C59.4749 80.6906 59.5855 80.58 59.5855 80.4436C59.5855 80.3072 59.4749 80.1967 59.3385 80.1967C59.2021 80.1967 59.0916 80.3072 59.0916 80.4436C59.0916 80.58 59.2021 80.6906 59.3385 80.6906Z" fill="#E09230"/>
</g>
<g style="mix-blend-mode:screen" opacity="0.4">
<path d="M60.5464 81.6515C60.57 81.6291 60.5887 81.6022 60.6016 81.5724C60.6144 81.5425 60.621 81.5103 60.621 81.4778C60.621 81.4453 60.6144 81.4132 60.6016 81.3833C60.5887 81.3535 60.57 81.3265 60.5464 81.3042C60.5119 81.2694 60.4679 81.2456 60.4199 81.2358C60.372 81.2261 60.3222 81.2308 60.2769 81.2494C60.2316 81.268 60.1928 81.2997 60.1656 81.3403C60.1383 81.381 60.1238 81.4289 60.1238 81.4778C60.1238 81.5268 60.1383 81.5747 60.1656 81.6153C60.1928 81.656 60.2316 81.6877 60.2769 81.7063C60.3222 81.7249 60.372 81.7296 60.4199 81.7199C60.4679 81.7101 60.5119 81.6863 60.5464 81.6515Z" fill="#E09230"/>
</g>
<g style="mix-blend-mode:screen" opacity="0.4">
<path d="M61.5806 82.6857C61.6266 82.6388 61.6523 82.5758 61.6523 82.5101C61.6523 82.4445 61.6266 82.3814 61.5806 82.3345C61.558 82.3114 61.531 82.2931 61.5012 82.2806C61.4714 82.268 61.4393 82.2616 61.407 82.2616C61.3747 82.2616 61.3426 82.268 61.3128 82.2806C61.283 82.2931 61.256 82.3114 61.2333 82.3345C61.1874 82.3814 61.1616 82.4445 61.1616 82.5101C61.1616 82.5758 61.1874 82.6388 61.2333 82.6857C61.256 82.7088 61.283 82.7272 61.3128 82.7397C61.3426 82.7522 61.3747 82.7587 61.407 82.7587C61.4393 82.7587 61.4714 82.7522 61.5012 82.7397C61.531 82.7272 61.558 82.7088 61.5806 82.6857Z" fill="#E09230"/>
</g>
<g style="mix-blend-mode:screen" opacity="0.4">
<path d="M62.615 83.7199C62.6492 83.6853 62.6725 83.6413 62.6818 83.5934C62.6911 83.5456 62.6861 83.4961 62.6673 83.4511C62.6485 83.4061 62.6168 83.3677 62.5763 83.3407C62.5357 83.3137 62.4881 83.2993 62.4393 83.2993C62.3906 83.2993 62.343 83.3137 62.3024 83.3407C62.2618 83.3677 62.2302 83.4061 62.2114 83.4511C62.1927 83.4961 62.1876 83.5456 62.1969 83.5934C62.2062 83.6413 62.2295 83.6853 62.2638 83.7199C62.3107 83.7659 62.3737 83.7916 62.4393 83.7916C62.505 83.7916 62.5681 83.7659 62.615 83.7199Z" fill="#E09230"/>
</g>
<g style="mix-blend-mode:screen" opacity="0.4">
<path d="M63.4716 84.8275C63.608 84.8275 63.7186 84.7169 63.7186 84.5805C63.7186 84.4441 63.608 84.3335 63.4716 84.3335C63.3352 84.3335 63.2246 84.4441 63.2246 84.5805C63.2246 84.7169 63.3352 84.8275 63.4716 84.8275Z" fill="#E09230"/>
</g>
<g style="mix-blend-mode:screen" opacity="0.4">
<path d="M58.7017 81.4315C58.7248 81.4089 58.7432 81.3819 58.7557 81.3521C58.7683 81.3222 58.7747 81.2902 58.7747 81.2579C58.7747 81.2255 58.7683 81.1935 58.7557 81.1637C58.7432 81.1339 58.7248 81.1069 58.7017 81.0842C58.6549 81.0383 58.5918 81.0125 58.5261 81.0125C58.4605 81.0125 58.3974 81.0383 58.3506 81.0842C58.3275 81.1069 58.3091 81.1339 58.2966 81.1637C58.284 81.1935 58.2776 81.2255 58.2776 81.2579C58.2776 81.2902 58.284 81.3222 58.2966 81.3521C58.3091 81.3819 58.3275 81.4089 58.3506 81.4315C58.3974 81.4775 58.4605 81.5032 58.5261 81.5032C58.5918 81.5032 58.6549 81.4775 58.7017 81.4315Z" fill="#E09230"/>
</g>
<g style="mix-blend-mode:screen" opacity="0.4">
<path d="M59.736 82.4657C59.7703 82.4311 59.7935 82.3871 59.8029 82.3392C59.8122 82.2914 59.8071 82.2419 59.7883 82.1969C59.7696 82.152 59.7379 82.1135 59.6974 82.0865C59.6568 82.0595 59.6092 82.0451 59.5604 82.0451C59.5117 82.0451 59.4641 82.0595 59.4235 82.0865C59.3829 82.1135 59.3513 82.152 59.3325 82.1969C59.3138 82.2419 59.3087 82.2914 59.318 82.3392C59.3273 82.3871 59.3506 82.4311 59.3849 82.4657C59.4318 82.5117 59.4948 82.5375 59.5604 82.5375C59.6261 82.5375 59.6891 82.5117 59.736 82.4657Z" fill="#E09230"/>
</g>
<g style="mix-blend-mode:screen" opacity="0.4">
<path d="M60.7664 83.4999C60.8124 83.4531 60.8381 83.39 60.8381 83.3244C60.8381 83.2587 60.8124 83.1957 60.7664 83.1488C60.7438 83.1257 60.7168 83.1073 60.687 83.0948C60.6571 83.0823 60.6251 83.0758 60.5928 83.0758C60.5604 83.0758 60.5284 83.0823 60.4986 83.0948C60.4688 83.1073 60.4417 83.1257 60.4191 83.1488C60.3731 83.1957 60.3474 83.2587 60.3474 83.3244C60.3474 83.39 60.3731 83.4531 60.4191 83.4999C60.4417 83.5231 60.4688 83.5414 60.4986 83.5539C60.5284 83.5665 60.5604 83.5729 60.5928 83.5729C60.6251 83.5729 60.6571 83.5665 60.687 83.5539C60.7168 83.5414 60.7438 83.5231 60.7664 83.4999Z" fill="#E09230"/>
</g>
<g style="mix-blend-mode:screen" opacity="0.4">
<path d="M61.8005 84.5342C61.8348 84.4995 61.858 84.4555 61.8673 84.4077C61.8766 84.3599 61.8716 84.3103 61.8528 84.2654C61.8341 84.2204 61.8024 84.182 61.7618 84.155C61.7213 84.1279 61.6736 84.1135 61.6249 84.1135C61.5762 84.1135 61.5285 84.1279 61.488 84.155C61.4474 84.182 61.4158 84.2204 61.397 84.2654C61.3782 84.3103 61.3732 84.3599 61.3825 84.4077C61.3918 84.4555 61.4151 84.4995 61.4493 84.5342C61.4962 84.5802 61.5592 84.6059 61.6249 84.6059C61.6906 84.6059 61.7536 84.5802 61.8005 84.5342Z" fill="#E09230"/>
</g>
<g style="mix-blend-mode:screen" opacity="0.4">
<path d="M62.8347 85.5684C62.869 85.5338 62.8922 85.4897 62.9015 85.4419C62.9108 85.3941 62.9058 85.3445 62.887 85.2996C62.8683 85.2546 62.8366 85.2162 62.7961 85.1892C62.7555 85.1621 62.7079 85.1477 62.6591 85.1477C62.6104 85.1477 62.5627 85.1621 62.5222 85.1892C62.4816 85.2162 62.4499 85.2546 62.4312 85.2996C62.4124 85.3445 62.4073 85.3941 62.4167 85.4419C62.426 85.4897 62.4492 85.5338 62.4835 85.5684C62.5304 85.6144 62.5935 85.6401 62.6591 85.6401C62.7248 85.6401 62.7878 85.6144 62.8347 85.5684Z" fill="#E09230"/>
</g>
</g>
<g style="mix-blend-mode:multiply" opacity="0.4">
<path d="M108.788 40.6057L106.308 38.1253L74.6245 69.8087L77.1049 72.2891L108.788 40.6057Z" fill="#D8D6C7"/>
</g>
<g style="mix-blend-mode:multiply" opacity="0.4">
<path d="M77.1018 72.2943L74.6213 69.8139L60.1044 84.3308L62.5849 86.8112L77.1018 72.2943Z" fill="#E09230"/>
</g>
<path d="M109.066 40.3329L108.68 40.7188C106.636 39.1197 104.793 37.2784 103.192 35.2352L103.578 34.8493C104.107 35.378 104.859 35.5902 105.415 36.088C105.701 36.3427 105.971 36.6167 106.237 36.8907C106.916 37.5879 107.597 38.2838 108.279 38.9784C108.648 39.3587 108.918 39.8238 109.066 40.3329Z" fill="#A2A195"/>
<path d="M114.669 91.5769L52.4307 29.3424" stroke="#CF4339" stroke-width="10" stroke-miterlimit="10"/>
</g>
</svg>
