<svg width="167" height="167" viewBox="0 0 167 167" fill="none" xmlns="http://www.w3.org/2000/svg">
<mask id="mask0_206:36940" style="mask-type:alpha" maskUnits="userSpaceOnUse" x="0" y="0" width="167" height="167">
<rect x="1" y="1" width="165" height="165" rx="8" fill="#5988D6" stroke="#EDE6FC" stroke-opacity="0.3"/>
</mask>
<g mask="url(#mask0_206:36940)">
<rect x="1" y="1" width="165" height="165" rx="8" fill="#7AC2D9" stroke="#EDE6FC" stroke-opacity="0.3"/>
</g>
<g clip-path="url(#clip0_206:36940)">
<path opacity="0.63" d="M97.6954 43.2935C97.6149 43.2495 97.5463 43.1869 97.4952 43.1107C97.4441 43.0346 97.4122 42.9473 97.402 42.8562C97.3919 42.7651 97.4039 42.6729 97.437 42.5874C97.4701 42.5019 97.5233 42.4256 97.5922 42.3651L97.439 42.2412C97.2966 42.1217 97.206 41.9518 97.186 41.767C97.1661 41.5822 97.2184 41.3969 97.332 41.2498C95.5177 40.95 93.7106 40.6625 91.8931 40.4136C86.3465 39.6314 80.728 39.2336 75.279 37.7011L67.0197 54.8477L74.1798 62.6673L91.0435 67.2688L101.189 64.1793L102.765 45.5837C100.957 45.1169 99.2415 44.3421 97.6954 43.2935Z" fill="#D6D6D6"/>
<path d="M75.4196 37.5628L81.8075 42.5459L94.3128 46.1037L102.628 45.9816C102.628 45.9816 98.3132 40.0219 95.0365 38.8437C91.7598 37.6654 84.5399 35.1304 81.5403 34.9271C78.5407 34.7239 75.4196 37.5628 75.4196 37.5628Z" fill="#D6D6D6"/>
<path opacity="0.8" d="M80.9125 20.7723L63.8482 56.2134L72.0994 65.2157L89.0868 25.116L80.9125 20.7723Z" fill="#A3D6E2"/>
<path opacity="0.8" d="M106.543 27.7747L103.228 66.9619L91.5369 70.5275L97.2965 27.3572L106.543 27.7747Z" fill="#A3D6E2"/>
<path opacity="0.8" d="M89.0867 25.116L97.2964 27.3572L91.5369 70.5275L72.0993 65.2157L89.0867 25.116Z" fill="#BDEAF2"/>
<path d="M84.2476 11.4167L80.6804 19.8612C80.7423 20.011 80.7909 20.1661 80.8254 20.3245C81.1016 22.6554 86.1964 25.7805 92.9089 27.6205C100.037 29.5306 106.326 29.321 107.226 27.1191L108.452 18.0264L84.2476 11.4167Z" fill="#2C2D2B"/>
<path d="M108.481 18.0342C107.834 20.449 101.871 20.9114 95.1749 19.0862C88.4792 17.2611 83.5812 13.8263 84.2476 11.4167C84.914 9.00707 90.8601 8.5298 97.5559 10.355C104.252 12.1802 109.137 15.6219 108.481 18.0342Z" fill="#424242"/>
<path d="M95.1084 17.5569C95.5445 17.6737 95.9879 17.7614 96.4357 17.8194C96.6108 17.8454 96.7893 17.8032 96.9341 17.7013C97.079 17.5994 97.1791 17.4458 97.2138 17.2721C97.2114 17.0858 97.1441 16.9061 97.0234 16.7641C96.9026 16.6222 96.7361 16.5268 96.5526 16.4945C96.1141 16.3951 95.6697 16.3244 95.222 16.2829C95.0534 16.2561 94.881 16.2956 94.741 16.3932C94.6009 16.4908 94.5041 16.6389 94.4709 16.8064C94.4747 16.9857 94.5401 17.1582 94.6562 17.2949C94.7724 17.4317 94.932 17.5242 95.1084 17.5569Z" fill="#A3A3A3"/>
<path d="M95.5034 12.5278C95.7831 12.6494 96.0794 12.7288 96.3824 12.7634C96.5603 12.8316 96.7448 12.8811 96.933 12.9109C97.1559 12.9167 97.3776 12.8775 97.585 12.7957C97.7052 12.7503 97.8104 12.6722 97.8886 12.5703C97.9669 12.4683 98.0151 12.3465 98.0278 12.2186C98.0406 12.0907 98.0173 11.9618 97.9608 11.8465C97.9042 11.7311 97.8165 11.6338 97.7076 11.5655C97.5283 11.412 97.3199 11.2962 97.0948 11.2253C96.9076 11.184 96.7174 11.1573 96.5261 11.1454C96.2367 11.0969 95.9417 11.0911 95.6507 11.1283C94.8601 11.2581 94.7895 12.1398 95.506 12.5182L95.5034 12.5278Z" fill="#A3A3A3"/>
<path d="M87.7848 13.3998C88.345 13.5499 88.9039 13.7825 89.4848 13.8553C90.6595 14.108 91.0133 12.8259 89.8627 12.4451C89.3025 12.295 88.7229 12.1397 88.153 11.987C87.0519 11.6919 86.7025 12.9959 87.7958 13.32L87.7848 13.3998Z" fill="#A3A3A3"/>
<path d="M102.948 16.8519C103.116 17.0036 103.315 17.117 103.532 17.1844C103.729 17.2283 103.928 17.2576 104.129 17.2721C104.465 17.35 104.811 17.3657 105.152 17.3184C105.317 17.305 105.471 17.2366 105.592 17.1241C105.712 17.0116 105.791 16.8618 105.815 16.6988C105.82 16.5274 105.773 16.3585 105.681 16.2138C105.588 16.0692 105.455 15.9555 105.298 15.8872C104.911 15.7386 104.503 15.657 104.089 15.6462C103.922 15.6285 103.755 15.6216 103.587 15.6256C103.347 15.6456 103.116 15.7306 102.921 15.8715C102.563 16.0862 102.656 16.5875 102.977 16.8597L102.948 16.8519Z" fill="#A3A3A3"/>
<path d="M95.5092 14.7863C95.7313 14.8458 95.9438 14.9027 96.1757 14.9648C96.4075 15.027 96.9552 14.9149 97.0257 14.6129C97.043 14.4438 96.9964 14.2743 96.895 14.1379C96.7935 14.0015 96.6447 13.9081 96.4778 13.8759C96.2565 13.8011 96.0307 13.7406 95.8016 13.6948C95.6323 13.6562 95.4558 13.6624 95.2895 13.7128C95.2193 13.7426 95.156 13.7866 95.1037 13.8421C95.0515 13.8976 95.0113 13.9633 94.9858 14.0352C94.9688 14.1087 94.9695 14.1852 94.9876 14.2584C95.0058 14.3316 95.0409 14.3995 95.0902 14.4566C95.2004 14.595 95.3502 14.6965 95.5195 14.7476L95.5092 14.7863Z" fill="#A3A3A3"/>
<path d="M99.8233 14.1408C100.193 14.272 100.583 14.3345 100.975 14.3251C101.103 14.3594 101.239 14.3415 101.354 14.2752C101.469 14.2089 101.553 14.0996 101.587 13.9716C101.622 13.8435 101.604 13.707 101.537 13.5921C101.471 13.4773 101.362 13.3935 101.234 13.3592C100.9 13.152 100.532 13.0077 100.147 12.9334C99.7508 12.8273 99.3016 12.9968 99.2381 13.3111C99.2201 13.4918 99.2702 13.6728 99.3786 13.8186C99.4869 13.9644 99.6457 14.0646 99.824 14.0996L99.8233 14.1408Z" fill="#A3A3A3"/>
<path d="M99.6128 16.5484C99.6318 16.6149 99.6647 16.6766 99.7092 16.7295C99.8134 16.8656 99.9549 16.9683 100.117 17.025L100.3 17.0742L100.522 17.1338L100.731 17.1276C100.849 17.1068 100.962 17.0588 101.058 16.9875C101.145 16.9223 101.207 16.8291 101.233 16.7236C101.261 16.6192 101.255 16.5082 101.214 16.408C101.168 16.3016 101.097 16.208 101.007 16.1352C100.934 16.066 100.843 16.0169 100.745 15.9926L100.61 15.9563C100.492 15.8983 100.364 15.864 100.233 15.8554C100.072 15.8629 99.9163 15.9186 99.7867 16.0153C99.7077 16.0779 99.651 16.1644 99.6249 16.2618C99.5988 16.3592 99.6047 16.4624 99.6418 16.5562L99.6128 16.5484Z" fill="#A3A3A3"/>
<path d="M91.3741 15.4589C91.8219 15.6581 92.317 15.7262 92.802 15.6552C92.9079 15.6509 93.0087 15.6086 93.0859 15.5359C93.1631 15.4632 93.2115 15.3651 93.2221 15.2597C93.2327 15.1542 93.2049 15.0484 93.1438 14.9618C93.0826 14.8752 92.9923 14.8136 92.8893 14.7883C92.6807 14.6962 92.4592 14.6368 92.2325 14.6123C91.981 14.5432 91.7181 14.5256 91.4596 14.5604C91.3512 14.5709 91.2498 14.6186 91.1727 14.6955C91.0956 14.7724 91.0476 14.8737 91.0369 14.9821C91.0262 15.0904 91.0535 15.1992 91.114 15.2897C91.1746 15.3802 91.2647 15.4468 91.3689 15.4783L91.3741 15.4589Z" fill="#A3A3A3"/>
<path d="M91.6783 12.0826C91.8717 12.2682 92.1164 12.3914 92.3806 12.4365C92.646 12.4947 92.9222 12.4792 93.1794 12.3917C93.2457 12.3702 93.3067 12.3352 93.3586 12.2887C93.4106 12.2423 93.4522 12.1855 93.4809 12.1221C93.5096 12.0586 93.5247 11.9898 93.5253 11.9202C93.5259 11.8506 93.5119 11.7815 93.4843 11.7176C93.4368 11.6103 93.3674 11.5141 93.2804 11.4352C93.1188 11.3078 92.9219 11.2333 92.7164 11.222C92.614 11.2071 92.5097 11.2145 92.4104 11.2435L92.4684 11.2591L92.3911 11.2383C92.3143 11.2261 92.2358 11.2298 92.1605 11.249L92.2184 11.2645C92.1701 11.2516 92.1218 11.2387 92.0735 11.2257C91.9632 11.212 91.8512 11.232 91.7525 11.2832C91.6538 11.3344 91.5729 11.4143 91.5205 11.5124C91.482 11.6105 91.4768 11.7185 91.5058 11.8198C91.5348 11.9211 91.5963 12.0101 91.6809 12.073L91.6783 12.0826Z" fill="#A3A3A3"/>
<path d="M95.1287 17.7902C95.5647 17.9072 96.0082 17.9949 96.456 18.0526C96.6319 18.0789 96.8113 18.0373 96.9576 17.9361C97.104 17.835 97.2063 17.6819 97.2438 17.508C97.2395 17.3222 97.1715 17.1435 97.0511 17.0019C96.9307 16.8603 96.7652 16.7644 96.5825 16.7303C96.1443 16.63 95.6997 16.5593 95.252 16.5187C95.0834 16.4919 94.911 16.5315 94.7709 16.6291C94.6309 16.7267 94.5341 16.8747 94.5009 17.0422C94.501 17.2207 94.564 17.3936 94.6788 17.5303C94.7936 17.6671 94.9528 17.7591 95.1287 17.7902Z" fill="#2C2D2B"/>
<path d="M95.5162 12.79C95.7881 12.9295 96.079 13.0284 96.3796 13.0835C96.5603 13.1429 96.744 13.1922 96.9302 13.231C97.1547 13.2358 97.3778 13.1933 97.5848 13.1062C97.705 13.0616 97.8103 12.9843 97.8891 12.8831C97.9678 12.7819 98.0168 12.6608 98.0306 12.5333C98.0443 12.4058 98.0222 12.277 97.9668 12.1614C97.9115 12.0458 97.8249 11.9478 97.717 11.8786C97.5336 11.7261 97.3208 11.6127 97.0919 11.5455C96.9091 11.5018 96.723 11.4727 96.5355 11.4585C96.2421 11.4078 95.9424 11.4044 95.6479 11.4484C94.8696 11.5712 94.7893 12.4503 95.5058 12.8287L95.5162 12.79Z" fill="#2C2D2B"/>
<path d="M87.8024 13.6427C88.3627 13.7928 88.9338 14.0183 89.5121 14.1008C90.6712 14.4114 91.031 13.0687 89.8874 12.7002C89.3272 12.5501 88.7476 12.3948 88.1874 12.2447C87.0862 11.9496 86.7272 13.251 87.8276 13.5873L87.8024 13.6427Z" fill="#2C2D2B"/>
<path d="M102.966 17.0948C103.135 17.2514 103.338 17.3662 103.559 17.4298C103.753 17.4727 103.949 17.5012 104.147 17.5149C104.481 17.5947 104.827 17.6136 105.167 17.5709C105.331 17.5511 105.484 17.4793 105.604 17.366C105.724 17.2527 105.804 17.104 105.833 16.9417C105.836 16.7705 105.789 16.6022 105.697 16.4578C105.605 16.3134 105.472 16.1994 105.315 16.1301C104.929 15.9793 104.519 15.9009 104.104 15.8987C103.935 15.8769 103.765 15.866 103.595 15.8659C103.356 15.8913 103.127 15.9758 102.929 16.1118C102.581 16.3291 102.672 16.84 102.985 17.1L102.966 17.0948Z" fill="#2C2D2B"/>
<path d="M95.5294 15.0195C95.7507 15.0942 95.9765 15.1548 96.2055 15.2006C96.5726 15.299 96.985 15.1507 97.0459 14.8461C97.0656 14.6765 97.0199 14.5059 96.9181 14.369C96.8163 14.232 96.666 14.1391 96.498 14.1091C96.2758 14.0496 96.0537 13.9901 95.8315 13.9305C95.6576 13.8921 95.4766 13.9008 95.3072 13.9557C95.2374 13.982 95.1748 14.0242 95.1242 14.0789C95.0736 14.1336 95.0364 14.1994 95.0156 14.271C95.0002 14.3449 95.0004 14.4212 95.0163 14.495C95.0322 14.5688 95.0634 14.6384 95.1079 14.6994C95.2248 14.8294 95.3737 14.9264 95.5398 14.9808L95.5294 15.0195Z" fill="#2C2D2B"/>
<path d="M99.8532 14.3766C100.221 14.5108 100.611 14.5766 101.002 14.5706C101.12 14.5781 101.236 14.5446 101.332 14.4759C101.428 14.4072 101.497 14.3074 101.527 14.1936C101.558 14.0798 101.548 13.959 101.499 13.8516C101.451 13.7443 101.366 13.657 101.261 13.6047C100.928 13.3965 100.56 13.2521 100.174 13.1789C99.7878 13.0754 99.3386 13.2449 99.2751 13.5591C99.2522 13.7408 99.3005 13.9242 99.4096 14.0711C99.5188 14.218 99.6805 14.3171 99.861 14.3477L99.8532 14.3766Z" fill="#2C2D2B"/>
<path d="M99.6404 16.7939C99.6821 16.9061 99.7497 17.0069 99.8377 17.0881C99.9257 17.1692 100.032 17.2284 100.147 17.2609L100.321 17.3075L100.543 17.367L100.764 17.3537C100.882 17.3398 100.994 17.2948 101.089 17.2234C101.169 17.1526 101.229 17.0614 101.263 16.9595C101.292 16.8521 101.287 16.738 101.247 16.6342C101.201 16.5278 101.13 16.4341 101.04 16.3614C100.968 16.2961 100.881 16.2482 100.788 16.2213L100.643 16.1825C100.525 16.1245 100.397 16.0902 100.266 16.0816C100.108 16.0821 99.9552 16.1359 99.8318 16.2344C99.7503 16.2973 99.6917 16.3853 99.665 16.4847C99.6384 16.5842 99.6451 16.6897 99.6842 16.7849L99.6404 16.7939Z" fill="#2C2D2B"/>
<path d="M91.3946 15.6922C91.8453 15.893 92.3438 15.962 92.8321 15.891C92.9381 15.8868 93.0389 15.8444 93.1161 15.7717C93.1933 15.6991 93.2416 15.601 93.2523 15.4955C93.2629 15.39 93.2351 15.2842 93.1739 15.1976C93.1128 15.111 93.0225 15.0494 92.9195 15.0241C92.7093 14.9367 92.4884 14.8775 92.2626 14.8481C92.0072 14.7832 91.7421 14.7648 91.4801 14.7937C91.3717 14.8041 91.2703 14.8519 91.1932 14.9288C91.1161 15.0057 91.0681 15.107 91.0574 15.2153C91.0467 15.3237 91.074 15.4324 91.1345 15.5229C91.1951 15.6134 91.2852 15.6801 91.3894 15.7115L91.3946 15.6922Z" fill="#2C2D2B"/>
<path d="M91.689 12.3133C91.8872 12.4984 92.1327 12.6251 92.3985 12.6793C92.6644 12.7294 92.9386 12.714 93.1973 12.6346C93.2627 12.6118 93.3227 12.576 93.3738 12.5294C93.4249 12.4827 93.466 12.4261 93.4945 12.363C93.523 12.2999 93.5384 12.2317 93.5397 12.1625C93.541 12.0933 93.5282 12.0246 93.5021 11.9605C93.4571 11.8485 93.3835 11.7502 93.2886 11.6755C93.1345 11.5424 92.9402 11.4648 92.7368 11.4552C92.6596 11.4345 92.505 11.3931 92.4186 11.4838C92.5345 11.5149 92.5764 11.4743 92.4862 11.5019L92.4089 11.4812L92.1686 11.4893C92.1107 11.4738 92.1686 11.4893 92.2363 11.5074L92.0817 11.466C91.9728 11.452 91.8622 11.4708 91.7641 11.5202C91.6659 11.5695 91.5849 11.6471 91.5313 11.743C91.496 11.8415 91.4925 11.9485 91.5213 12.0491C91.55 12.1497 91.6096 12.2387 91.6916 12.3036L91.689 12.3133Z" fill="#2C2D2B"/>
</g>
<g filter="url(#filter0_b_206:36940)">
<rect x="13" y="77" width="141" height="77" rx="10" fill="black" fill-opacity="0.8"/>
</g>
<path d="M53.1755 104H51.4955L51.3555 101.27L51.0335 97.798H50.8935L48.8775 103.048H47.4075L45.5735 97.798H45.4475L45.0975 101.088L44.9015 104H43.3055L44.2155 94.984H46.3995L46.7635 96.314L48.1915 100.584H48.3175L49.8155 96.314L50.2215 94.984H52.3635L53.1755 104ZM60.697 102.782L60.529 103.762C60.1836 103.986 59.829 104.103 59.465 104.112C59.1943 104.065 58.9703 103.958 58.793 103.79C58.6156 103.622 58.4803 103.379 58.387 103.062H58.261C57.729 103.585 57.1783 103.925 56.609 104.084C55.8996 104.084 55.3583 103.925 54.985 103.608C54.621 103.281 54.4436 102.815 54.453 102.208L54.481 100.556L54.411 97.616L56.217 97.462L56.175 101.592C56.1656 101.919 56.231 102.166 56.371 102.334C56.511 102.502 56.721 102.586 57.001 102.586C57.4116 102.586 57.8176 102.404 58.219 102.04V97.616L59.997 97.462L59.871 102.306C59.871 102.455 59.8943 102.563 59.941 102.628C59.997 102.693 60.081 102.726 60.193 102.726C60.2956 102.726 60.4216 102.707 60.571 102.67L60.697 102.782ZM61.9214 101.312L61.8514 97.616L63.6854 97.462L63.6014 101.13L63.6854 104H61.8234L61.9214 101.312ZM62.8034 94.298C63.0927 94.298 63.3167 94.382 63.4754 94.55C63.6434 94.718 63.7274 94.9513 63.7274 95.25C63.7274 95.5673 63.6387 95.8193 63.4614 96.006C63.2841 96.1927 63.0414 96.286 62.7334 96.286C62.4254 96.286 62.1874 96.202 62.0194 96.034C61.8607 95.866 61.7814 95.628 61.7814 95.32C61.7814 95.012 61.8701 94.7647 62.0474 94.578C62.2341 94.3913 62.4861 94.298 62.8034 94.298ZM68.0778 102.628C68.3765 102.628 68.6891 102.549 69.0158 102.39L69.1698 102.53L68.9878 103.636C68.5118 103.879 68.0265 104.028 67.5318 104.084C66.2718 103.953 65.6418 103.337 65.6418 102.236L65.7118 101.074L65.6978 98.666H64.8298L64.7598 98.568L64.8578 97.546H65.6838V96.468L67.3778 95.922L67.5038 96.034L67.4618 97.546H69.1278L69.1838 97.644L69.0998 98.666H67.4338L67.3498 101.802C67.3498 102.101 67.4058 102.315 67.5178 102.446C67.6298 102.567 67.8165 102.628 68.0778 102.628ZM72.7826 97.364C73.7346 97.364 74.4626 97.644 74.9666 98.204C75.4706 98.764 75.7226 99.5713 75.7226 100.626C75.7226 101.765 75.4519 102.637 74.9106 103.244C74.3692 103.841 73.5899 104.14 72.5726 104.14C71.6206 104.14 70.8926 103.86 70.3886 103.3C69.8846 102.74 69.6326 101.933 69.6326 100.878C69.6326 99.7393 69.9032 98.8713 70.4446 98.274C70.9859 97.6673 71.7652 97.364 72.7826 97.364ZM72.6566 98.624C72.2086 98.624 71.8819 98.7733 71.6766 99.072C71.4806 99.3707 71.3826 99.8513 71.3826 100.514C71.3826 101.373 71.4852 101.984 71.6906 102.348C71.8959 102.712 72.2319 102.894 72.6986 102.894C73.1466 102.894 73.4686 102.749 73.6646 102.46C73.8699 102.161 73.9726 101.676 73.9726 101.004C73.9726 100.155 73.8652 99.548 73.6506 99.184C73.4452 98.8107 73.1139 98.624 72.6566 98.624ZM81.3017 97.378C81.9363 97.378 82.5337 97.4853 83.0937 97.7L82.8417 99.072L82.6177 99.142C82.347 98.9647 82.0763 98.8293 81.8057 98.736C81.535 98.6427 81.297 98.596 81.0917 98.596C80.8677 98.596 80.6903 98.6567 80.5597 98.778C80.429 98.89 80.3637 99.03 80.3637 99.198C80.3637 99.394 80.4477 99.5527 80.6157 99.674C80.793 99.7953 81.0683 99.9307 81.4417 100.08C81.815 100.229 82.123 100.374 82.3657 100.514C82.6083 100.654 82.8137 100.85 82.9817 101.102C83.159 101.345 83.2477 101.648 83.2477 102.012C83.2477 102.385 83.1497 102.735 82.9537 103.062C82.767 103.379 82.4777 103.641 82.0857 103.846C81.6937 104.042 81.213 104.14 80.6437 104.14C79.9717 104.14 79.2763 104 78.5577 103.72L78.7677 102.264L78.9497 102.152C79.239 102.395 79.561 102.591 79.9157 102.74C80.2703 102.88 80.583 102.95 80.8537 102.95C81.1057 102.95 81.3017 102.889 81.4417 102.768C81.5817 102.637 81.6517 102.483 81.6517 102.306C81.6517 102.11 81.563 101.951 81.3857 101.83C81.2177 101.709 80.947 101.573 80.5737 101.424C80.191 101.256 79.8783 101.107 79.6357 100.976C79.393 100.836 79.183 100.64 79.0057 100.388C78.8377 100.136 78.7537 99.8233 78.7537 99.45C78.7537 98.8433 78.9823 98.3487 79.4397 97.966C79.897 97.574 80.5177 97.378 81.3017 97.378ZM87.0527 97.364C87.7714 97.364 88.3314 97.5273 88.7327 97.854C89.1434 98.1713 89.3487 98.6193 89.3487 99.198C89.3487 99.366 89.3207 99.898 89.2647 100.794C89.2554 101.055 89.2414 101.326 89.2227 101.606C89.2041 101.877 89.1947 102.11 89.1947 102.306C89.1947 102.465 89.2181 102.577 89.2647 102.642C89.3114 102.698 89.3954 102.726 89.5167 102.726C89.6101 102.726 89.7314 102.707 89.8807 102.67L90.0207 102.782L89.8527 103.762C89.5541 103.958 89.2134 104.075 88.8307 104.112C88.5507 104.084 88.3174 103.986 88.1307 103.818C87.9441 103.641 87.8181 103.398 87.7527 103.09H87.6547C87.1881 103.585 86.7074 103.93 86.2127 104.126C85.5407 104.117 85.0134 103.939 84.6307 103.594C84.2481 103.249 84.0567 102.777 84.0567 102.18C84.0567 101.713 84.1734 101.349 84.4067 101.088C84.6494 100.817 85.0134 100.635 85.4987 100.542L87.6407 100.136V99.562C87.6407 98.9553 87.3421 98.652 86.7447 98.652C86.4554 98.652 86.1474 98.7173 85.8207 98.848C85.5034 98.9787 85.1441 99.184 84.7427 99.464L84.6027 99.38L84.3927 98.148C84.7941 97.896 85.2234 97.7047 85.6807 97.574C86.1381 97.434 86.5954 97.364 87.0527 97.364ZM86.1427 101.396C85.9934 101.433 85.8814 101.499 85.8067 101.592C85.7414 101.676 85.7087 101.807 85.7087 101.984C85.7087 102.227 85.7741 102.418 85.9047 102.558C86.0354 102.689 86.2174 102.754 86.4507 102.754C86.8147 102.754 87.1974 102.539 87.5987 102.11L87.6267 101.074L86.1427 101.396ZM93.051 101.13L93.149 104H91.287L91.385 101.298L91.301 94.312L93.163 94.172L93.051 101.13ZM100.472 97.406C101.284 97.406 101.909 97.6813 102.348 98.232C102.786 98.7827 103.006 99.562 103.006 100.57C103.006 101.709 102.721 102.591 102.152 103.216C101.592 103.832 100.798 104.14 99.7718 104.14C99.4732 104.14 99.1605 104.112 98.8338 104.056L98.8758 106.59H97.0278L97.1258 101.312L97.0418 97.616L98.8198 97.462L98.8058 98.414H98.9038C99.1652 98.162 99.4172 97.9613 99.6598 97.812C99.9025 97.6533 100.173 97.518 100.472 97.406ZM99.7858 102.922C100.271 102.922 100.64 102.749 100.892 102.404C101.144 102.059 101.27 101.55 101.27 100.878C101.27 100.225 101.162 99.7347 100.948 99.408C100.742 99.072 100.434 98.904 100.024 98.904C99.6225 98.904 99.2165 99.1047 98.8058 99.506L98.7918 101.13L98.8198 102.712C99.1558 102.852 99.4778 102.922 99.7858 102.922ZM106.976 97.364C107.928 97.364 108.656 97.644 109.16 98.204C109.664 98.764 109.916 99.5713 109.916 100.626C109.916 101.765 109.645 102.637 109.104 103.244C108.563 103.841 107.783 104.14 106.766 104.14C105.814 104.14 105.086 103.86 104.582 103.3C104.078 102.74 103.826 101.933 103.826 100.878C103.826 99.7393 104.097 98.8713 104.638 98.274C105.179 97.6673 105.959 97.364 106.976 97.364ZM106.85 98.624C106.402 98.624 106.075 98.7733 105.87 99.072C105.674 99.3707 105.576 99.8513 105.576 100.514C105.576 101.373 105.679 101.984 105.884 102.348C106.089 102.712 106.425 102.894 106.892 102.894C107.34 102.894 107.662 102.749 107.858 102.46C108.063 102.161 108.166 101.676 108.166 101.004C108.166 100.155 108.059 99.548 107.844 99.184C107.639 98.8107 107.307 98.624 106.85 98.624ZM116.624 101.13L116.666 102.306C116.666 102.465 116.685 102.577 116.722 102.642C116.769 102.698 116.848 102.726 116.96 102.726C117.063 102.726 117.189 102.707 117.338 102.67L117.464 102.782L117.31 103.762C116.993 103.958 116.647 104.075 116.274 104.112C115.985 104.084 115.742 103.986 115.546 103.818C115.35 103.65 115.215 103.421 115.14 103.132H115.028C114.571 103.552 114.104 103.874 113.628 104.098C112.713 104.098 112.004 103.809 111.5 103.23C110.996 102.642 110.744 101.83 110.744 100.794C110.744 99.6927 111.033 98.848 111.612 98.26C112.191 97.672 112.993 97.378 114.02 97.378C114.291 97.378 114.589 97.406 114.916 97.462L114.888 94.312L116.736 94.172L116.624 101.13ZM113.894 98.638C112.961 98.638 112.494 99.2307 112.494 100.416C112.494 101.153 112.606 101.709 112.83 102.082C113.054 102.455 113.381 102.642 113.81 102.642C114.221 102.642 114.599 102.451 114.944 102.068L114.972 101.298L114.93 98.89C114.566 98.722 114.221 98.638 113.894 98.638ZM123.601 100.976L119.821 101.004C119.905 102.171 120.498 102.754 121.599 102.754C122.178 102.754 122.822 102.591 123.531 102.264L123.685 102.362L123.405 103.748C122.696 104.009 122.028 104.14 121.403 104.14C120.376 104.14 119.569 103.841 118.981 103.244C118.402 102.647 118.113 101.821 118.113 100.766C118.113 99.7207 118.398 98.8947 118.967 98.288C119.536 97.672 120.306 97.364 121.277 97.364C122.108 97.364 122.747 97.5927 123.195 98.05C123.652 98.498 123.881 99.128 123.881 99.94C123.881 100.155 123.858 100.425 123.811 100.752L123.601 100.976ZM122.257 99.73C122.257 99.3567 122.173 99.0767 122.005 98.89C121.837 98.694 121.59 98.596 121.263 98.596C120.899 98.596 120.596 98.7173 120.353 98.96C120.11 99.1933 119.947 99.534 119.863 99.982L122.229 99.926L122.257 99.73ZM25.7959 113.364C26.5145 113.364 27.0745 113.527 27.4759 113.854C27.8865 114.171 28.0919 114.619 28.0919 115.198C28.0919 115.366 28.0639 115.898 28.0079 116.794C27.9985 117.055 27.9845 117.326 27.9659 117.606C27.9472 117.877 27.9379 118.11 27.9379 118.306C27.9379 118.465 27.9612 118.577 28.0079 118.642C28.0545 118.698 28.1385 118.726 28.2599 118.726C28.3532 118.726 28.4745 118.707 28.6239 118.67L28.7639 118.782L28.5959 119.762C28.2972 119.958 27.9565 120.075 27.5739 120.112C27.2939 120.084 27.0605 119.986 26.8739 119.818C26.6872 119.641 26.5612 119.398 26.4959 119.09H26.3979C25.9312 119.585 25.4505 119.93 24.9559 120.126C24.2839 120.117 23.7565 119.939 23.3739 119.594C22.9912 119.249 22.7999 118.777 22.7999 118.18C22.7999 117.713 22.9165 117.349 23.1499 117.088C23.3925 116.817 23.7565 116.635 24.2419 116.542L26.3839 116.136V115.562C26.3839 114.955 26.0852 114.652 25.4879 114.652C25.1985 114.652 24.8905 114.717 24.5639 114.848C24.2465 114.979 23.8872 115.184 23.4859 115.464L23.3459 115.38L23.1359 114.148C23.5372 113.896 23.9665 113.705 24.4239 113.574C24.8812 113.434 25.3385 113.364 25.7959 113.364ZM24.8859 117.396C24.7365 117.433 24.6245 117.499 24.5499 117.592C24.4845 117.676 24.4519 117.807 24.4519 117.984C24.4519 118.227 24.5172 118.418 24.6479 118.558C24.7785 118.689 24.9605 118.754 25.1939 118.754C25.5579 118.754 25.9405 118.539 26.3419 118.11L26.3699 117.074L24.8859 117.396ZM36.1901 118.782L36.0221 119.762C35.6768 119.986 35.3221 120.103 34.9581 120.112C34.6875 120.065 34.4635 119.958 34.2861 119.79C34.1088 119.622 33.9735 119.379 33.8801 119.062H33.7541C33.2221 119.585 32.6715 119.925 32.1021 120.084C31.3928 120.084 30.8515 119.925 30.4781 119.608C30.1141 119.281 29.9368 118.815 29.9461 118.208L29.9741 116.556L29.9041 113.616L31.7101 113.462L31.6681 117.592C31.6588 117.919 31.7241 118.166 31.8641 118.334C32.0041 118.502 32.2141 118.586 32.4941 118.586C32.9048 118.586 33.3108 118.404 33.7121 118.04V113.616L35.4901 113.462L35.3641 118.306C35.3641 118.455 35.3875 118.563 35.4341 118.628C35.4901 118.693 35.5741 118.726 35.6861 118.726C35.7888 118.726 35.9148 118.707 36.0641 118.67L36.1901 118.782ZM45.0045 120L45.1165 115.94C45.1165 115.249 44.8225 114.904 44.2345 114.904C43.8145 114.904 43.3759 115.091 42.9185 115.464L42.8765 117.144L42.9605 120H41.0985L41.2105 115.94C41.2199 115.604 41.1452 115.347 40.9865 115.17C40.8372 114.993 40.6179 114.904 40.3285 114.904C39.9179 114.904 39.4652 115.1 38.9705 115.492V117.13L39.0545 120H37.2065L37.3045 117.312L37.2345 113.616L38.9845 113.462V114.414H39.0825C39.5959 113.947 40.1605 113.611 40.7765 113.406C41.8219 113.406 42.4892 113.756 42.7785 114.456H42.8625C43.3945 113.961 44.0012 113.611 44.6825 113.406C45.3919 113.406 45.9285 113.569 46.2925 113.896C46.6659 114.213 46.8432 114.675 46.8245 115.282L46.7825 117.144L46.8665 120H45.0045ZM53.5395 116.976L49.7595 117.004C49.8435 118.171 50.4362 118.754 51.5375 118.754C52.1162 118.754 52.7602 118.591 53.4695 118.264L53.6235 118.362L53.3435 119.748C52.6342 120.009 51.9668 120.14 51.3415 120.14C50.3148 120.14 49.5075 119.841 48.9195 119.244C48.3408 118.647 48.0515 117.821 48.0515 116.766C48.0515 115.721 48.3362 114.895 48.9055 114.288C49.4748 113.672 50.2448 113.364 51.2155 113.364C52.0462 113.364 52.6855 113.593 53.1335 114.05C53.5908 114.498 53.8195 115.128 53.8195 115.94C53.8195 116.155 53.7962 116.425 53.7495 116.752L53.5395 116.976ZM52.1955 115.73C52.1955 115.357 52.1115 115.077 51.9435 114.89C51.7755 114.694 51.5282 114.596 51.2015 114.596C50.8375 114.596 50.5342 114.717 50.2915 114.96C50.0488 115.193 49.8855 115.534 49.8015 115.982L52.1675 115.926L52.1955 115.73ZM59.107 115.94C59.1164 115.613 59.0417 115.361 58.883 115.184C58.7337 114.997 58.5144 114.904 58.225 114.904C57.805 114.904 57.357 115.105 56.881 115.506V117.13L56.965 120H55.103L55.201 117.312L55.131 113.616L56.895 113.462V114.414H56.993C57.5064 113.947 58.0664 113.611 58.673 113.406C59.3824 113.406 59.9237 113.569 60.297 113.896C60.6704 114.213 60.8477 114.675 60.829 115.282L60.787 117.144L60.871 120H58.995L59.107 115.94ZM65.1452 118.628C65.4438 118.628 65.7565 118.549 66.0832 118.39L66.2372 118.53L66.0552 119.636C65.5792 119.879 65.0938 120.028 64.5992 120.084C63.3392 119.953 62.7092 119.337 62.7092 118.236L62.7792 117.074L62.7652 114.666H61.8972L61.8272 114.568L61.9252 113.546H62.7512V112.468L64.4452 111.922L64.5712 112.034L64.5292 113.546H66.1952L66.2512 113.644L66.1672 114.666H64.5012L64.4172 117.802C64.4172 118.101 64.4732 118.315 64.5852 118.446C64.6972 118.567 64.8838 118.628 65.1452 118.628ZM69.8056 113.364C70.5243 113.364 71.0843 113.527 71.4856 113.854C71.8963 114.171 72.1016 114.619 72.1016 115.198C72.1016 115.366 72.0736 115.898 72.0176 116.794C72.0083 117.055 71.9943 117.326 71.9756 117.606C71.957 117.877 71.9476 118.11 71.9476 118.306C71.9476 118.465 71.971 118.577 72.0176 118.642C72.0643 118.698 72.1483 118.726 72.2696 118.726C72.363 118.726 72.4843 118.707 72.6336 118.67L72.7736 118.782L72.6056 119.762C72.307 119.958 71.9663 120.075 71.5836 120.112C71.3036 120.084 71.0703 119.986 70.8836 119.818C70.697 119.641 70.571 119.398 70.5056 119.09H70.4076C69.941 119.585 69.4603 119.93 68.9656 120.126C68.2936 120.117 67.7663 119.939 67.3836 119.594C67.001 119.249 66.8096 118.777 66.8096 118.18C66.8096 117.713 66.9263 117.349 67.1596 117.088C67.4023 116.817 67.7663 116.635 68.2516 116.542L70.3936 116.136V115.562C70.3936 114.955 70.095 114.652 69.4976 114.652C69.2083 114.652 68.9003 114.717 68.5736 114.848C68.2563 114.979 67.897 115.184 67.4956 115.464L67.3556 115.38L67.1456 114.148C67.547 113.896 67.9763 113.705 68.4336 113.574C68.891 113.434 69.3483 113.364 69.8056 113.364ZM68.8956 117.396C68.7463 117.433 68.6343 117.499 68.5596 117.592C68.4943 117.676 68.4616 117.807 68.4616 117.984C68.4616 118.227 68.527 118.418 68.6576 118.558C68.7883 118.689 68.9703 118.754 69.2036 118.754C69.5676 118.754 69.9503 118.539 70.3516 118.11L70.3796 117.074L68.8956 117.396ZM77.4999 113.476C77.5839 113.476 77.7005 113.485 77.8499 113.504V115.226L77.6539 115.296C77.4952 115.231 77.3225 115.198 77.1359 115.198C76.5945 115.198 76.1045 115.548 75.6659 116.248V117.13L75.7639 120H73.9019L74.0139 117.312L73.9299 113.616L75.6939 113.462L75.6799 114.736H75.7919C76.2492 113.896 76.8185 113.476 77.4999 113.476ZM83.0722 113.378C83.7068 113.378 84.3042 113.485 84.8642 113.7L84.6122 115.072L84.3882 115.142C84.1175 114.965 83.8468 114.829 83.5762 114.736C83.3055 114.643 83.0675 114.596 82.8622 114.596C82.6382 114.596 82.4608 114.657 82.3302 114.778C82.1995 114.89 82.1342 115.03 82.1342 115.198C82.1342 115.394 82.2182 115.553 82.3862 115.674C82.5635 115.795 82.8388 115.931 83.2122 116.08C83.5855 116.229 83.8935 116.374 84.1362 116.514C84.3788 116.654 84.5842 116.85 84.7522 117.102C84.9295 117.345 85.0182 117.648 85.0182 118.012C85.0182 118.385 84.9202 118.735 84.7242 119.062C84.5375 119.379 84.2482 119.641 83.8562 119.846C83.4642 120.042 82.9835 120.14 82.4142 120.14C81.7422 120.14 81.0468 120 80.3282 119.72L80.5382 118.264L80.7202 118.152C81.0095 118.395 81.3315 118.591 81.6862 118.74C82.0408 118.88 82.3535 118.95 82.6242 118.95C82.8762 118.95 83.0722 118.889 83.2122 118.768C83.3522 118.637 83.4222 118.483 83.4222 118.306C83.4222 118.11 83.3335 117.951 83.1562 117.83C82.9882 117.709 82.7175 117.573 82.3442 117.424C81.9615 117.256 81.6488 117.107 81.4062 116.976C81.1635 116.836 80.9535 116.64 80.7762 116.388C80.6082 116.136 80.5242 115.823 80.5242 115.45C80.5242 114.843 80.7528 114.349 81.2102 113.966C81.6675 113.574 82.2882 113.378 83.0722 113.378ZM92.4772 118.782L92.3092 119.762C91.9639 119.986 91.6092 120.103 91.2452 120.112C90.9746 120.065 90.7506 119.958 90.5732 119.79C90.3959 119.622 90.2606 119.379 90.1672 119.062H90.0412C89.5092 119.585 88.9586 119.925 88.3892 120.084C87.6799 120.084 87.1386 119.925 86.7652 119.608C86.4012 119.281 86.2239 118.815 86.2332 118.208L86.2612 116.556L86.1912 113.616L87.9972 113.462L87.9552 117.592C87.9459 117.919 88.0112 118.166 88.1512 118.334C88.2912 118.502 88.5012 118.586 88.7812 118.586C89.1919 118.586 89.5979 118.404 89.9992 118.04V113.616L91.7772 113.462L91.6512 118.306C91.6512 118.455 91.6746 118.563 91.7212 118.628C91.7772 118.693 91.8612 118.726 91.9732 118.726C92.0759 118.726 92.2019 118.707 92.3512 118.67L92.4772 118.782ZM96.1377 113.364C96.8563 113.364 97.4163 113.527 97.8177 113.854C98.2283 114.171 98.4337 114.619 98.4337 115.198C98.4337 115.366 98.4057 115.898 98.3497 116.794C98.3403 117.055 98.3263 117.326 98.3077 117.606C98.289 117.877 98.2797 118.11 98.2797 118.306C98.2797 118.465 98.303 118.577 98.3497 118.642C98.3963 118.698 98.4803 118.726 98.6017 118.726C98.695 118.726 98.8163 118.707 98.9657 118.67L99.1057 118.782L98.9377 119.762C98.639 119.958 98.2983 120.075 97.9157 120.112C97.6357 120.084 97.4023 119.986 97.2157 119.818C97.029 119.641 96.903 119.398 96.8377 119.09H96.7397C96.273 119.585 95.7923 119.93 95.2977 120.126C94.6257 120.117 94.0983 119.939 93.7157 119.594C93.333 119.249 93.1417 118.777 93.1417 118.18C93.1417 117.713 93.2583 117.349 93.4917 117.088C93.7343 116.817 94.0983 116.635 94.5837 116.542L96.7257 116.136V115.562C96.7257 114.955 96.427 114.652 95.8297 114.652C95.5403 114.652 95.2323 114.717 94.9057 114.848C94.5883 114.979 94.229 115.184 93.8277 115.464L93.6877 115.38L93.4777 114.148C93.879 113.896 94.3083 113.705 94.7657 113.574C95.223 113.434 95.6803 113.364 96.1377 113.364ZM95.2277 117.396C95.0783 117.433 94.9663 117.499 94.8917 117.592C94.8263 117.676 94.7937 117.807 94.7937 117.984C94.7937 118.227 94.859 118.418 94.9897 118.558C95.1203 118.689 95.3023 118.754 95.5357 118.754C95.8997 118.754 96.2823 118.539 96.6837 118.11L96.7117 117.074L95.2277 117.396ZM105.879 113.406C106.691 113.406 107.316 113.681 107.755 114.232C108.194 114.783 108.413 115.562 108.413 116.57C108.413 117.709 108.128 118.591 107.559 119.216C106.999 119.832 106.206 120.14 105.179 120.14C104.88 120.14 104.568 120.112 104.241 120.056L104.283 122.59H102.435L102.533 117.312L102.449 113.616L104.227 113.462L104.213 114.414H104.311C104.572 114.162 104.824 113.961 105.067 113.812C105.31 113.653 105.58 113.518 105.879 113.406ZM105.193 118.922C105.678 118.922 106.047 118.749 106.299 118.404C106.551 118.059 106.677 117.55 106.677 116.878C106.677 116.225 106.57 115.735 106.355 115.408C106.15 115.072 105.842 114.904 105.431 114.904C105.03 114.904 104.624 115.105 104.213 115.506L104.199 117.13L104.227 118.712C104.563 118.852 104.885 118.922 105.193 118.922ZM113.197 113.476C113.281 113.476 113.398 113.485 113.547 113.504V115.226L113.351 115.296C113.192 115.231 113.02 115.198 112.833 115.198C112.292 115.198 111.802 115.548 111.363 116.248V117.13L111.461 120H109.599L109.711 117.312L109.627 113.616L111.391 113.462L111.377 114.736H111.489C111.946 113.896 112.516 113.476 113.197 113.476ZM119.506 116.976L115.726 117.004C115.81 118.171 116.403 118.754 117.504 118.754C118.083 118.754 118.727 118.591 119.436 118.264L119.59 118.362L119.31 119.748C118.601 120.009 117.934 120.14 117.308 120.14C116.282 120.14 115.474 119.841 114.886 119.244C114.308 118.647 114.018 117.821 114.018 116.766C114.018 115.721 114.303 114.895 114.872 114.288C115.442 113.672 116.212 113.364 117.182 113.364C118.013 113.364 118.652 113.593 119.1 114.05C119.558 114.498 119.786 115.128 119.786 115.94C119.786 116.155 119.763 116.425 119.716 116.752L119.506 116.976ZM118.162 115.73C118.162 115.357 118.078 115.077 117.91 114.89C117.742 114.694 117.495 114.596 117.168 114.596C116.804 114.596 116.501 114.717 116.258 114.96C116.016 115.193 115.852 115.534 115.768 115.982L118.134 115.926L118.162 115.73ZM123.254 113.378C123.888 113.378 124.486 113.485 125.046 113.7L124.794 115.072L124.57 115.142C124.299 114.965 124.028 114.829 123.758 114.736C123.487 114.643 123.249 114.596 123.044 114.596C122.82 114.596 122.642 114.657 122.512 114.778C122.381 114.89 122.316 115.03 122.316 115.198C122.316 115.394 122.4 115.553 122.568 115.674C122.745 115.795 123.02 115.931 123.394 116.08C123.767 116.229 124.075 116.374 124.318 116.514C124.56 116.654 124.766 116.85 124.934 117.102C125.111 117.345 125.2 117.648 125.2 118.012C125.2 118.385 125.102 118.735 124.906 119.062C124.719 119.379 124.43 119.641 124.038 119.846C123.646 120.042 123.165 120.14 122.596 120.14C121.924 120.14 121.228 120 120.51 119.72L120.72 118.264L120.902 118.152C121.191 118.395 121.513 118.591 121.868 118.74C122.222 118.88 122.535 118.95 122.806 118.95C123.058 118.95 123.254 118.889 123.394 118.768C123.534 118.637 123.604 118.483 123.604 118.306C123.604 118.11 123.515 117.951 123.338 117.83C123.17 117.709 122.899 117.573 122.526 117.424C122.143 117.256 121.83 117.107 121.588 116.976C121.345 116.836 121.135 116.64 120.958 116.388C120.79 116.136 120.706 115.823 120.706 115.45C120.706 114.843 120.934 114.349 121.392 113.966C121.849 113.574 122.47 113.378 123.254 113.378ZM128.627 113.378C129.262 113.378 129.859 113.485 130.419 113.7L130.167 115.072L129.943 115.142C129.672 114.965 129.402 114.829 129.131 114.736C128.86 114.643 128.622 114.596 128.417 114.596C128.193 114.596 128.016 114.657 127.885 114.778C127.754 114.89 127.689 115.03 127.689 115.198C127.689 115.394 127.773 115.553 127.941 115.674C128.118 115.795 128.394 115.931 128.767 116.08C129.14 116.229 129.448 116.374 129.691 116.514C129.934 116.654 130.139 116.85 130.307 117.102C130.484 117.345 130.573 117.648 130.573 118.012C130.573 118.385 130.475 118.735 130.279 119.062C130.092 119.379 129.803 119.641 129.411 119.846C129.019 120.042 128.538 120.14 127.969 120.14C127.297 120.14 126.602 120 125.883 119.72L126.093 118.264L126.275 118.152C126.564 118.395 126.886 118.591 127.241 118.74C127.596 118.88 127.908 118.95 128.179 118.95C128.431 118.95 128.627 118.889 128.767 118.768C128.907 118.637 128.977 118.483 128.977 118.306C128.977 118.11 128.888 117.951 128.711 117.83C128.543 117.709 128.272 117.573 127.899 117.424C127.516 117.256 127.204 117.107 126.961 116.976C126.718 116.836 126.508 116.64 126.331 116.388C126.163 116.136 126.079 115.823 126.079 115.45C126.079 114.843 126.308 114.349 126.765 113.966C127.222 113.574 127.843 113.378 128.627 113.378ZM134.378 113.364C135.097 113.364 135.657 113.527 136.058 113.854C136.469 114.171 136.674 114.619 136.674 115.198C136.674 115.366 136.646 115.898 136.59 116.794C136.581 117.055 136.567 117.326 136.548 117.606C136.529 117.877 136.52 118.11 136.52 118.306C136.52 118.465 136.543 118.577 136.59 118.642C136.637 118.698 136.721 118.726 136.842 118.726C136.935 118.726 137.057 118.707 137.206 118.67L137.346 118.782L137.178 119.762C136.879 119.958 136.539 120.075 136.156 120.112C135.876 120.084 135.643 119.986 135.456 119.818C135.269 119.641 135.143 119.398 135.078 119.09H134.98C134.513 119.585 134.033 119.93 133.538 120.126C132.866 120.117 132.339 119.939 131.956 119.594C131.573 119.249 131.382 118.777 131.382 118.18C131.382 117.713 131.499 117.349 131.732 117.088C131.975 116.817 132.339 116.635 132.824 116.542L134.966 116.136V115.562C134.966 114.955 134.667 114.652 134.07 114.652C133.781 114.652 133.473 114.717 133.146 114.848C132.829 114.979 132.469 115.184 132.068 115.464L131.928 115.38L131.718 114.148C132.119 113.896 132.549 113.705 133.006 113.574C133.463 113.434 133.921 113.364 134.378 113.364ZM133.468 117.396C133.319 117.433 133.207 117.499 133.132 117.592C133.067 117.676 133.034 117.807 133.034 117.984C133.034 118.227 133.099 118.418 133.23 118.558C133.361 118.689 133.543 118.754 133.776 118.754C134.14 118.754 134.523 118.539 134.924 118.11L134.952 117.074L133.468 117.396ZM136.674 110.732V110.886L135.694 112.132L135.512 112.202C135.26 112.174 134.873 112.085 134.35 111.936C134.303 111.927 134.149 111.889 133.888 111.824C133.636 111.749 133.459 111.712 133.356 111.712C133.253 111.712 133.151 111.754 133.048 111.838C132.955 111.922 132.852 112.025 132.74 112.146C132.628 112.267 132.544 112.361 132.488 112.426H132.32L131.76 111.88V111.726L132.754 110.48L132.922 110.41C133.146 110.438 133.543 110.531 134.112 110.69C134.635 110.83 134.957 110.9 135.078 110.9C135.19 110.9 135.297 110.853 135.4 110.76C135.512 110.667 135.624 110.559 135.736 110.438C135.848 110.317 135.923 110.233 135.96 110.186H136.128L136.674 110.732ZM141.258 113.364C142.21 113.364 142.938 113.644 143.442 114.204C143.946 114.764 144.198 115.571 144.198 116.626C144.198 117.765 143.927 118.637 143.386 119.244C142.845 119.841 142.065 120.14 141.048 120.14C140.096 120.14 139.368 119.86 138.864 119.3C138.36 118.74 138.108 117.933 138.108 116.878C138.108 115.739 138.379 114.871 138.92 114.274C139.461 113.667 140.241 113.364 141.258 113.364ZM141.132 114.624C140.684 114.624 140.357 114.773 140.152 115.072C139.956 115.371 139.858 115.851 139.858 116.514C139.858 117.373 139.961 117.984 140.166 118.348C140.371 118.712 140.707 118.894 141.174 118.894C141.622 118.894 141.944 118.749 142.14 118.46C142.345 118.161 142.448 117.676 142.448 117.004C142.448 116.155 142.341 115.548 142.126 115.184C141.921 114.811 141.589 114.624 141.132 114.624ZM66.039 129.364C66.7577 129.364 67.3177 129.527 67.719 129.854C68.1297 130.171 68.335 130.619 68.335 131.198C68.335 131.366 68.307 131.898 68.251 132.794C68.2417 133.055 68.2277 133.326 68.209 133.606C68.1904 133.877 68.181 134.11 68.181 134.306C68.181 134.465 68.2044 134.577 68.251 134.642C68.2977 134.698 68.3817 134.726 68.503 134.726C68.5964 134.726 68.7177 134.707 68.867 134.67L69.007 134.782L68.839 135.762C68.5404 135.958 68.1997 136.075 67.817 136.112C67.537 136.084 67.3037 135.986 67.117 135.818C66.9304 135.641 66.8044 135.398 66.739 135.09H66.641C66.1744 135.585 65.6937 135.93 65.199 136.126C64.527 136.117 63.9997 135.939 63.617 135.594C63.2344 135.249 63.043 134.777 63.043 134.18C63.043 133.713 63.1597 133.349 63.393 133.088C63.6357 132.817 63.9997 132.635 64.485 132.542L66.627 132.136V131.562C66.627 130.955 66.3284 130.652 65.731 130.652C65.4417 130.652 65.1337 130.717 64.807 130.848C64.4897 130.979 64.1304 131.184 63.729 131.464L63.589 131.38L63.379 130.148C63.7804 129.896 64.2097 129.705 64.667 129.574C65.1244 129.434 65.5817 129.364 66.039 129.364ZM65.129 133.396C64.9797 133.433 64.8677 133.499 64.793 133.592C64.7277 133.676 64.695 133.807 64.695 133.984C64.695 134.227 64.7604 134.418 64.891 134.558C65.0217 134.689 65.2037 134.754 65.437 134.754C65.801 134.754 66.1837 134.539 66.585 134.11L66.613 133.074L65.129 133.396ZM73.7333 129.476C73.8173 129.476 73.9339 129.485 74.0833 129.504V131.226L73.8873 131.296C73.7286 131.231 73.5559 131.198 73.3693 131.198C72.8279 131.198 72.3379 131.548 71.8993 132.248V133.13L71.9973 136H70.1353L70.2473 133.312L70.1633 129.616L71.9273 129.462L71.9133 130.736H72.0253C72.4826 129.896 73.0519 129.476 73.7333 129.476ZM77.6891 134.628C77.9878 134.628 78.3005 134.549 78.6271 134.39L78.7811 134.53L78.5991 135.636C78.1231 135.879 77.6378 136.028 77.1431 136.084C75.8831 135.953 75.2531 135.337 75.2531 134.236L75.3231 133.074L75.3091 130.666H74.4411L74.3711 130.568L74.4691 129.546H75.2951V128.468L76.9891 127.922L77.1151 128.034L77.0731 129.546H78.7391L78.7951 129.644L78.7111 130.666H77.0451L76.9611 133.802C76.9611 134.101 77.0171 134.315 77.1291 134.446C77.2411 134.567 77.4278 134.628 77.6891 134.628ZM84.7319 132.976L80.9519 133.004C81.0359 134.171 81.6286 134.754 82.7299 134.754C83.3086 134.754 83.9526 134.591 84.6619 134.264L84.8159 134.362L84.5359 135.748C83.8266 136.009 83.1592 136.14 82.5339 136.14C81.5072 136.14 80.6999 135.841 80.1119 135.244C79.5332 134.647 79.2439 133.821 79.2439 132.766C79.2439 131.721 79.5286 130.895 80.0979 130.288C80.6672 129.672 81.4372 129.364 82.4079 129.364C83.2386 129.364 83.8779 129.593 84.3259 130.05C84.7832 130.498 85.0119 131.128 85.0119 131.94C85.0119 132.155 84.9886 132.425 84.9419 132.752L84.7319 132.976ZM83.3879 131.73C83.3879 131.357 83.3039 131.077 83.1359 130.89C82.9679 130.694 82.7206 130.596 82.3939 130.596C82.0299 130.596 81.7266 130.717 81.4839 130.96C81.2412 131.193 81.0779 131.534 80.9939 131.982L83.3599 131.926L83.3879 131.73ZM89.8934 129.476C89.9774 129.476 90.0941 129.485 90.2434 129.504V131.226L90.0474 131.296C89.8887 131.231 89.7161 131.198 89.5294 131.198C88.9881 131.198 88.4981 131.548 88.0594 132.248V133.13L88.1574 136H86.2954L86.4074 133.312L86.3234 129.616L88.0874 129.462L88.0734 130.736H88.1854C88.6427 129.896 89.2121 129.476 89.8934 129.476ZM91.2886 133.312L91.2186 129.616L93.0526 129.462L92.9686 133.13L93.0526 136H91.1906L91.2886 133.312ZM92.1706 126.298C92.4599 126.298 92.6839 126.382 92.8426 126.55C93.0106 126.718 93.0946 126.951 93.0946 127.25C93.0946 127.567 93.0059 127.819 92.8286 128.006C92.6513 128.193 92.4086 128.286 92.1006 128.286C91.7926 128.286 91.5546 128.202 91.3866 128.034C91.2279 127.866 91.1486 127.628 91.1486 127.32C91.1486 127.012 91.2373 126.765 91.4146 126.578C91.6013 126.391 91.8533 126.298 92.1706 126.298ZM97.375 129.364C98.0937 129.364 98.6537 129.527 99.055 129.854C99.4657 130.171 99.671 130.619 99.671 131.198C99.671 131.366 99.643 131.898 99.587 132.794C99.5777 133.055 99.5637 133.326 99.545 133.606C99.5263 133.877 99.517 134.11 99.517 134.306C99.517 134.465 99.5403 134.577 99.587 134.642C99.6337 134.698 99.7177 134.726 99.839 134.726C99.9323 134.726 100.054 134.707 100.203 134.67L100.343 134.782L100.175 135.762C99.8763 135.958 99.5357 136.075 99.153 136.112C98.873 136.084 98.6397 135.986 98.453 135.818C98.2663 135.641 98.1403 135.398 98.075 135.09H97.977C97.5103 135.585 97.0297 135.93 96.535 136.126C95.863 136.117 95.3357 135.939 94.953 135.594C94.5703 135.249 94.379 134.777 94.379 134.18C94.379 133.713 94.4957 133.349 94.729 133.088C94.9717 132.817 95.3357 132.635 95.821 132.542L97.963 132.136V131.562C97.963 130.955 97.6643 130.652 97.067 130.652C96.7777 130.652 96.4697 130.717 96.143 130.848C95.8257 130.979 95.4663 131.184 95.065 131.464L94.925 131.38L94.715 130.148C95.1163 129.896 95.5457 129.705 96.003 129.574C96.4603 129.434 96.9177 129.364 97.375 129.364ZM96.465 133.396C96.3157 133.433 96.2037 133.499 96.129 133.592C96.0637 133.676 96.031 133.807 96.031 133.984C96.031 134.227 96.0963 134.418 96.227 134.558C96.3577 134.689 96.5397 134.754 96.773 134.754C97.137 134.754 97.5197 134.539 97.921 134.11L97.949 133.074L96.465 133.396ZM103.373 133.13L103.471 136H101.609L101.707 133.298L101.623 126.312L103.485 126.172L103.373 133.13Z" fill="white"/>
<defs>
<filter id="filter0_b_206:36940" x="3" y="67" width="161" height="97" filterUnits="userSpaceOnUse" color-interpolation-filters="sRGB">
<feFlood flood-opacity="0" result="BackgroundImageFix"/>
<feGaussianBlur in="BackgroundImage" stdDeviation="5"/>
<feComposite in2="SourceAlpha" operator="in" result="effect1_backgroundBlur_206:36940"/>
<feBlend mode="normal" in="SourceGraphic" in2="effect1_backgroundBlur_206:36940" result="shape"/>
</filter>
<clipPath id="clip0_206:36940">
<rect width="40.82" height="59.68" fill="white" transform="translate(77.5708 5) rotate(15)"/>
</clipPath>
</defs>
</svg>
