<svg width="167" height="167" viewBox="0 0 167 167" fill="none" xmlns="http://www.w3.org/2000/svg">
<mask id="mask0_206:37004" style="mask-type:alpha" maskUnits="userSpaceOnUse" x="0" y="0" width="167" height="167">
<rect x="1" y="1" width="165" height="165" rx="8" fill="#5988D6" stroke="#EDE6FC" stroke-opacity="0.3"/>
</mask>
<g mask="url(#mask0_206:37004)">
<rect x="1" y="1" width="165" height="165" rx="8" fill="#7A83D9" stroke="#EDE6FC" stroke-opacity="0.3"/>
<path d="M81.5974 56.1117L44.2136 18.7279L33.4166 29.525L70.8004 66.9087L81.5974 56.1117Z" fill="#D79EE3"/>
<path d="M84.8359 59.3495L47.4521 21.9657L36.6551 32.7628L74.0389 70.1465L84.8359 59.3495Z" fill="#D79EE3"/>
<path d="M83.2122 57.7306L45.8284 20.3468L35.0313 31.1439L72.4151 68.5276L83.2122 57.7306Z" fill="#AE5DC4"/>
<path d="M71.8543 50.3071L76.4137 56.8892C76.9986 57.7337 77.2241 58.7759 77.0406 59.7866C76.8571 60.7974 76.2796 61.6938 75.4352 62.2788L75.1759 62.4584C74.3322 63.0428 73.291 63.2681 72.2812 63.0847C71.2714 62.9014 70.3759 62.3245 69.7915 61.4808L65.23 54.8957C64.9405 54.4777 64.7362 54.0068 64.6288 53.5098C64.5213 53.0128 64.5129 52.4995 64.604 51.9993C64.695 51.499 64.8838 51.0216 65.1595 50.5944C65.4352 50.1671 65.7923 49.7984 66.2106 49.5092L66.4699 49.3296C67.3135 48.7452 68.3548 48.5199 69.3646 48.7032C70.3743 48.8865 71.2699 49.4635 71.8543 50.3071Z" fill="#F6AB45"/>
<path d="M71.3852 61.7343L67.0058 55.4109C66.4004 54.5326 66.1674 53.4504 66.3577 52.4008C66.5481 51.3512 67.1465 50.4197 68.0218 49.8101C68.709 49.336 69.5272 49.0885 70.3619 49.1022C69.7209 48.7953 69.0102 48.6632 68.3017 48.7192C67.5932 48.7753 66.9121 49.0174 66.3273 49.4213C65.4509 50.031 64.8518 50.9631 64.6614 52.0136C64.471 53.0641 64.7046 54.1472 65.3113 55.0258L69.6907 61.3492C70.0583 61.8767 70.5468 62.3088 71.1152 62.6093C71.6837 62.9098 72.3158 63.07 72.9588 63.0767C72.3246 62.7765 71.7816 62.3132 71.3852 61.7343Z" fill="#E28617"/>
<path d="M52.3906 32.9112L47.8246 26.3424C46.6064 24.59 44.1983 24.1569 42.4458 25.375L42.1842 25.5569C40.4317 26.7751 39.9986 29.1832 41.2168 30.9357L45.7828 37.5044C47.001 39.2568 49.4091 39.69 51.1616 38.4718L51.4232 38.2899C53.1757 37.0717 53.6088 34.6636 52.3906 32.9112Z" fill="#F6AB45"/>
<path d="M47.4964 37.8491L43.1169 31.5257C42.5092 30.6469 42.2748 29.5629 42.4653 28.5115C42.6558 27.4602 43.2555 26.5273 44.1329 25.9176C44.819 25.444 45.6358 25.1965 46.4694 25.2096C45.8283 24.9028 45.1176 24.7707 44.4091 24.8267C43.7007 24.8827 43.0195 25.1249 42.4347 25.5288C41.5567 26.1379 40.9562 27.0705 40.765 28.122C40.5739 29.1734 40.8076 30.2577 41.415 31.1369L45.7945 37.4603C46.1625 37.9872 46.6511 38.4185 47.2196 38.7184C47.788 39.0182 48.4199 39.1779 49.0626 39.1842C48.4326 38.8841 47.8925 38.4237 47.4964 37.8491Z" fill="#E28617"/>
<path d="M57.5203 38.3903L64.3479 42.5449C65.2247 43.0783 65.8536 43.9382 66.0963 44.9354C66.339 45.9326 66.1756 46.9853 65.6422 47.8621L65.4782 48.1315C65.2143 48.5662 64.8673 48.9445 64.4571 49.245C64.0469 49.5454 63.5815 49.7621 63.0875 49.8826C62.5935 50.0031 62.0806 50.025 61.5782 49.9472C61.0757 49.8693 60.5935 49.6932 60.1591 49.4289L53.3315 45.2744C52.4547 44.7409 51.8258 43.881 51.5831 42.8838C51.3404 41.8866 51.5038 40.8339 52.0372 39.9572L52.2012 39.6877C52.7349 38.8107 53.5949 38.1814 54.5922 37.9381C55.5896 37.6949 56.6428 37.8575 57.5203 38.3903Z" fill="#F6AB45"/>
<path d="M61.7387 49.0288L55.1659 45.0418C54.2549 44.4851 53.6016 43.59 53.3493 42.5526C53.097 41.5151 53.2662 40.42 53.8198 39.507C54.249 38.7954 54.8903 38.2361 55.6537 37.9078C54.9455 37.8891 54.2449 38.0573 53.6222 38.3953C52.9996 38.7333 52.477 39.2294 52.1069 39.8335C51.5524 40.7472 51.3832 41.8435 51.6362 42.8819C51.8893 43.9203 52.544 44.8158 53.4567 45.3719L60.0258 49.3699C60.5764 49.7027 61.1986 49.8989 61.8405 49.9423C62.4824 49.9857 63.1253 49.875 63.7157 49.6193C63.0164 49.5989 62.3347 49.3952 61.7387 49.0288Z" fill="#E28617"/>
<g style="mix-blend-mode:multiply">
<g style="mix-blend-mode:multiply">
<path d="M72.5259 68.4245C69.3752 62.5852 63.7231 55.2422 56.4937 48.0128C49.0773 40.6 41.5435 34.8415 35.6345 31.7421L72.4196 68.5162L72.5259 68.4245Z" fill="#D79EE3"/>
</g>
<g style="mix-blend-mode:multiply">
<path d="M62.6373 41.8728C69.863 49.0985 77.2061 54.7543 83.0454 57.9014L83.2178 57.7327L46.2236 20.7385C49.2863 26.7025 55.1072 34.3426 62.6373 41.8728Z" fill="#D79EE3"/>
</g>
</g>
<path d="M45.4423 28.2026C45.3539 28.1167 45.2351 28.0691 45.1118 28.07C44.9885 28.0709 44.8705 28.1203 44.7833 28.2075C44.6961 28.2947 44.6467 28.4127 44.6458 28.536C44.6449 28.6593 44.6925 28.7781 44.7784 28.8665C44.8669 28.9524 44.9856 29.0001 45.109 28.9992C45.2323 28.9983 45.3503 28.9489 45.4375 28.8617C45.5247 28.7745 45.5741 28.6565 45.575 28.5332C45.5759 28.4098 45.5283 28.2911 45.4423 28.2026Z" fill="#E28617"/>
<path d="M46.9462 30.4804C46.8635 30.3992 46.7519 30.3541 46.636 30.3552C46.5201 30.3562 46.4094 30.4032 46.3281 30.4859C46.2469 30.5686 46.2019 30.6802 46.2029 30.7961C46.2039 30.912 46.251 31.0227 46.3336 31.104C46.4163 31.1852 46.5279 31.2302 46.6438 31.2292C46.7597 31.2282 46.8705 31.1812 46.9517 31.0985C47.0329 31.0158 47.078 30.9042 47.0769 30.7883C47.0759 30.6724 47.0289 30.5617 46.9462 30.4804Z" fill="#E28617"/>
<path d="M48.7581 33.0772C48.6738 32.9958 48.561 32.9506 48.4439 32.9514C48.3267 32.9522 48.2146 32.999 48.1315 33.0816C48.0484 33.1642 48.001 33.2761 47.9995 33.3932C47.9981 33.5104 48.0426 33.6234 48.1235 33.7081C48.2077 33.7895 48.3205 33.8347 48.4377 33.8339C48.5548 33.8331 48.667 33.7864 48.7501 33.7038C48.8332 33.6212 48.8805 33.5093 48.882 33.3921C48.8835 33.275 48.839 33.1619 48.7581 33.0772Z" fill="#E28617"/>
<path d="M50.526 35.5347C50.451 35.4794 50.3652 35.4406 50.2741 35.421C50.183 35.4014 50.0889 35.4014 49.9978 35.421C49.9084 35.4459 49.8271 35.4935 49.7616 35.5592C49.6962 35.625 49.649 35.7066 49.6246 35.796C49.6002 35.8855 49.5994 35.9798 49.6224 36.0697C49.6454 36.1595 49.6913 36.2419 49.7557 36.3086C49.825 36.3714 49.9099 36.4144 50.0015 36.4333H50.0895H50.1592C50.2444 36.4345 50.3295 36.4246 50.4123 36.404C50.4979 36.3738 50.5735 36.3204 50.6306 36.2499C50.6878 36.1793 50.7242 36.0943 50.736 36.0043C50.7478 35.9142 50.7344 35.8227 50.6973 35.7398C50.6602 35.6569 50.6009 35.5859 50.526 35.5347Z" fill="#E28617"/>
<path d="M55.5914 40.7358C55.5331 40.6927 55.4653 40.6644 55.3937 40.6533C55.3221 40.6422 55.2489 40.6487 55.1803 40.6721C55.1118 40.6956 55.05 40.7353 55.0002 40.7879C54.9504 40.8405 54.9141 40.9045 54.8945 40.9742V41.0072C54.8757 41.088 54.8806 41.1725 54.9086 41.2505C54.9365 41.3286 54.9862 41.3971 55.0519 41.4477C55.1176 41.4983 55.1965 41.529 55.2791 41.5361C55.3617 41.5432 55.4446 41.5264 55.518 41.4877H55.551C55.617 41.4513 55.6725 41.3987 55.7126 41.3349C55.7526 41.2711 55.7757 41.1981 55.7797 41.1229C55.7837 41.0477 55.7686 40.9727 55.7356 40.905C55.7027 40.8373 55.653 40.779 55.5914 40.7358Z" fill="#E28617"/>
<path d="M58.0343 42.7421C58.3057 42.3753 57.7225 41.9572 57.4107 42.2653C57.3387 42.3409 57.2986 42.4414 57.2986 42.5459C57.2986 42.6503 57.3387 42.7508 57.4107 42.8264C57.4545 42.868 57.5071 42.8993 57.5645 42.9179C57.622 42.9364 57.6829 42.9419 57.7427 42.9338C57.8026 42.9257 57.8598 42.9042 57.9103 42.8711C57.9607 42.8379 58.0031 42.7938 58.0343 42.7421Z" fill="#E28617"/>
<path d="M60.6969 43.9892C60.6196 43.9123 60.5149 43.8693 60.4059 43.8697C60.2969 43.87 60.1924 43.9137 60.1156 43.991C60.0387 44.0683 59.9958 44.173 59.9961 44.2821C59.9964 44.3911 60.0401 44.4955 60.1174 44.5724C60.1557 44.6104 60.2011 44.6406 60.2511 44.6611C60.301 44.6816 60.3545 44.692 60.4085 44.6919C60.4625 44.6917 60.5159 44.6809 60.5657 44.6601C60.6155 44.6393 60.6607 44.6088 60.6988 44.5705C60.7368 44.5322 60.767 44.4868 60.7875 44.4369C60.808 44.387 60.8184 44.3335 60.8183 44.2795C60.8181 44.2255 60.8073 44.1721 60.7865 44.1223C60.7657 44.0725 60.7352 44.0272 60.6969 43.9892Z" fill="#E28617"/>
<path d="M63.6423 45.4563C63.5876 45.4024 63.5197 45.3638 63.4453 45.3442C63.371 45.3247 63.2929 45.325 63.2187 45.345C63.1445 45.365 63.0769 45.4041 63.0225 45.4584C62.9681 45.5127 62.9289 45.5803 62.9087 45.6544V45.7057C62.8916 45.7743 62.8925 45.8461 62.9112 45.9143C62.9299 45.9824 62.966 46.0446 63.0157 46.0947C63.0655 46.1449 63.1274 46.1813 63.1954 46.2006C63.2634 46.2198 63.3352 46.2212 63.4039 46.2046H63.4589C63.5348 46.184 63.6038 46.1435 63.6588 46.0872C63.7137 46.0309 63.7525 45.9609 63.7713 45.8845C63.79 45.8082 63.7879 45.7281 63.7652 45.6528C63.7425 45.5775 63.7001 45.5097 63.6423 45.4563Z" fill="#E28617"/>
<path d="M69.2872 52.3189V52.2785C69.3128 52.1736 69.3041 52.0633 69.2626 51.9637C69.221 51.864 69.1486 51.7803 69.0561 51.7247C68.9622 51.6722 68.8539 51.6517 68.7473 51.6662C68.6408 51.6808 68.5419 51.7296 68.4656 51.8054L68.4362 51.8347C68.3828 51.8904 68.3426 51.9574 68.3186 52.0307C68.2947 52.104 68.2875 52.1818 68.2977 52.2583C68.308 52.3348 68.3353 52.408 68.3777 52.4724C68.4201 52.5369 68.4764 52.591 68.5426 52.6307C68.6102 52.67 68.686 52.693 68.7641 52.6981C68.8421 52.7032 68.9203 52.6901 68.9924 52.6599C69.0645 52.6297 69.1287 52.5832 69.1798 52.524C69.231 52.4649 69.2677 52.3946 69.2872 52.3189Z" fill="#E28617"/>
<path d="M70.9268 54.4536C70.9589 54.3414 70.9487 54.2214 70.8983 54.1163C70.8479 54.0111 70.7606 53.9281 70.6531 53.8829C70.5455 53.8377 70.4252 53.8335 70.3148 53.8711C70.2043 53.9086 70.1115 53.9854 70.0539 54.0868C69.6871 54.714 70.8131 55.1285 70.9268 54.4536Z" fill="#E28617"/>
<path d="M72.6543 56.9037C72.5609 56.8108 72.4345 56.7588 72.3027 56.7592C72.171 56.7595 72.0448 56.8122 71.9519 56.9055C71.859 56.9989 71.807 57.1254 71.8074 57.2571C71.8077 57.3888 71.8604 57.515 71.9538 57.6079C72 57.6539 72.0549 57.6904 72.1152 57.7152C72.1755 57.74 72.2401 57.7527 72.3053 57.7525C72.3706 57.7523 72.4351 57.7393 72.4953 57.7142C72.5555 57.6891 72.6102 57.6523 72.6562 57.6061C72.7022 57.5599 72.7386 57.505 72.7634 57.4447C72.7882 57.3844 72.8009 57.3198 72.8007 57.2545C72.8005 57.1893 72.7875 57.1248 72.7624 57.0646C72.7373 57.0044 72.7006 56.9497 72.6543 56.9037Z" fill="#E28617"/>
<path d="M74.7376 59.739C74.726 59.7082 74.7112 59.6787 74.6936 59.6509C74.6335 59.5475 74.538 59.4694 74.4247 59.431C74.3114 59.3925 74.1881 59.3964 74.0774 59.4419C73.9688 59.4893 73.88 59.5731 73.8265 59.6789C73.7729 59.7846 73.7579 59.9057 73.784 60.0214C73.8023 60.1424 73.865 60.2523 73.9601 60.3295C74.0454 60.4095 74.1563 60.4568 74.2731 60.4628C74.3899 60.4689 74.5051 60.4334 74.5983 60.3627C74.6914 60.2919 74.7565 60.1905 74.7821 60.0763C74.8076 59.9622 74.7918 59.8426 74.7376 59.739Z" fill="#E28617"/>
<path d="M58.7165 63.8911L56.7029 68.0651L79.363 71.4065L97.4052 77L96.8587 73.0351L80.1993 66.0404L58.7165 63.8911Z" fill="#C80C03"/>
<path d="M107.154 26.4201C106.747 26.4604 87.1679 22.3854 87.1679 22.3854L70.0573 17.8996L68.8872 12.6032L85.5357 17.3458L108.915 22.18L107.154 26.4201Z" fill="#C80C03"/>
<path d="M73.0724 18.6075C73.1604 18.2407 71.8877 13.9677 71.8877 13.9677L75.2585 18.3141L79.1574 19.209L79.4142 16.3554L81.2078 20.0747L85.5138 20.9293L87.6852 18.3838L88.6205 22.9649L90.6158 19.4548L90.9533 23.7645L97.8012 25.0703C97.8012 25.0703 102.03 20.4818 101.788 20.9549C101.546 21.4281 100.596 25.5801 100.596 25.5801L105.628 22.103L103.556 26.5044L86.5555 26.1817L73.0724 18.6075Z" fill="#981B17"/>
<path d="M62.839 61.5472L60.6089 67.7826L65.4065 62.6476C65.4065 62.6476 63.4148 68.8096 63.5285 68.3035C63.6422 67.7973 67.4861 61.7343 67.4861 61.7343L76.289 63.4215L78.6401 63.5646C78.6401 63.5646 74.4514 70.2804 74.7925 69.9613C75.1336 69.6422 81.5928 65.6993 81.5928 65.6993L85.0882 68.3511L86.8048 72.9837L89.1779 67.8486L94.6577 74.5352L93.3299 67.049C93.3299 67.049 69.9876 59.1815 69.3311 59.1631C68.6745 59.1448 62.839 61.5472 62.839 61.5472Z" fill="#981B17"/>
<path d="M69.4778 26.7832C69.6906 26.4348 69.8116 16.6672 69.8116 16.6672L107.693 25.2354L103.142 34.119L96.2973 65.1124L96.8585 73.0497C96.8585 73.0497 79.0693 67.5149 78.6622 67.5479C78.255 67.5809 58.72 63.88 58.72 63.88L63.0701 55.8768L69.4778 26.7832Z" fill="#FF2222"/>
<path d="M98.6878 39.1023C100.002 33.3725 95.1567 27.3716 87.8652 25.6989C80.5737 24.0263 73.5972 27.3152 72.2828 33.045C70.9684 38.7748 75.8138 44.7756 83.1053 46.4483C90.3969 48.121 97.3734 44.832 98.6878 39.1023Z" fill="#FF9C31"/>
<path d="M97.1071 39.0742C98.2064 34.2823 93.862 29.1967 87.4036 27.7151C80.9453 26.2336 74.8186 28.9172 73.7194 33.7091C72.6201 38.5011 76.9645 43.5867 83.4229 45.0682C89.8812 46.5498 96.0078 43.8662 97.1071 39.0742Z" fill="white"/>
<path d="M69.621 60.8359L65.9602 59.9961C65.2692 59.8376 64.5805 60.2693 64.4219 60.9603L64.39 61.0997C64.2314 61.7908 64.6631 62.4795 65.3542 62.638L69.015 63.4778C69.706 63.6363 70.3948 63.2046 70.5533 62.5136L70.5853 62.3742C70.7438 61.6831 70.3121 60.9944 69.621 60.8359Z" fill="#981B17"/>
<path d="M90.5022 54.582L91.6282 55.73L93.1944 56.0895L93.5172 57.663L94.6395 58.811L94.0637 60.3112L94.3865 61.8847L93.088 62.8347L92.5085 64.3348L90.9056 64.4302L89.6072 65.3802L88.2061 64.5916L86.6032 64.6906L85.8477 63.2712L84.4465 62.4862L84.5786 60.8834L83.8267 59.4639L84.8023 58.1875L84.9344 56.5846L86.4455 56.0418L87.4248 54.7654L88.991 55.1248L90.5022 54.582Z" fill="#FFD527"/>
<path d="M92.8069 60.7201C93.253 58.7753 92.0381 56.8371 90.0933 56.3909C88.1485 55.9448 86.2102 57.1597 85.7641 59.1045C85.318 61.0493 86.5329 62.9876 88.4777 63.4337C90.4225 63.8798 92.3607 62.6649 92.8069 60.7201Z" fill="#FF9C31"/>
<path d="M73.7472 48.3429C72.5955 48.7354 68.0583 52.0768 67.101 52.7884C67.0806 52.803 67.0639 52.8222 67.0524 52.8446C67.0409 52.8669 67.0349 52.8916 67.0349 52.9168C67.0349 52.9419 67.0409 52.9666 67.0524 52.989C67.0639 53.0113 67.0806 53.0305 67.101 53.0451L74.9686 58.4699C74.994 58.4867 75.0237 58.4959 75.0541 58.4965C75.0846 58.4971 75.1146 58.4891 75.1407 58.4734C75.1668 58.4576 75.1879 58.4348 75.2016 58.4076C75.2153 58.3804 75.221 58.3499 75.218 58.3195L73.9563 48.475C73.9531 48.4516 73.9448 48.4292 73.9321 48.4094C73.9194 48.3896 73.9024 48.3728 73.8825 48.3602C73.8626 48.3476 73.8401 48.3395 73.8168 48.3366C73.7934 48.3336 73.7696 48.3358 73.7472 48.3429Z" fill="#FFBF1F"/>
<path d="M86.1337 49.9128C84.9416 49.546 80.4815 48.0788 79.4545 47.7561C79.4305 47.7485 79.4051 47.7467 79.3804 47.7509C79.3556 47.7551 79.3322 47.7651 79.3121 47.7802C79.292 47.7953 79.2758 47.8149 79.2649 47.8375C79.2539 47.8601 79.2485 47.885 79.2491 47.9101L79.4141 56.3462C79.4149 56.3773 79.4247 56.4074 79.4423 56.4331C79.4598 56.4587 79.4844 56.4787 79.5131 56.4908C79.5418 56.5028 79.5733 56.5062 79.6039 56.5008C79.6345 56.4953 79.6628 56.4811 79.6855 56.4599L86.196 50.1768C86.2147 50.1574 86.2283 50.1336 86.2354 50.1075C86.2426 50.0815 86.243 50.0541 86.2368 50.0278C86.2306 50.0015 86.2179 49.9772 86.1999 49.9571C86.1819 49.937 86.1591 49.9218 86.1337 49.9128Z" fill="#FFBF1F"/>
<path d="M103.142 34.1079L106.964 26.6438L102.074 32.406L94.3865 61.8847L96.8586 73.035L96.2974 65.0977L103.142 34.1079Z" fill="#DD0A0A"/>
<path d="M71.5208 27.117L69.7786 18.9046C69.7272 21.8096 69.6245 26.5411 69.4778 26.7832L63.0701 55.8877L58.7163 63.891L64.8673 56.6983L71.5208 27.117Z" fill="#DD0A0A"/>
<path d="M94.0161 31.0416C94.1038 31.9499 94.0443 32.8664 93.84 33.7558C92.5269 39.485 85.5506 42.7751 78.2589 41.0915C77.2723 40.8651 76.3076 40.5521 75.376 40.1562C77.1109 42.4266 79.9681 44.2642 83.4453 45.0602C89.9044 46.5273 96.0297 43.8571 97.1301 39.0632C97.7573 36.2389 96.4882 33.279 94.0161 31.0416Z" fill="#F4EFE6"/>
<path d="M99.1252 33.7154C99.1252 33.7154 93.5134 31.6321 90.0619 39.1806C86.6104 46.729 88.0813 59.3759 83.7312 61.0264C79.3811 62.6769 72.6652 58.4882 69.3311 59.1925C65.997 59.8967 64.1704 62.6476 64.1704 62.6476C64.1704 62.6476 77.9249 65.006 78.4274 65.1197C78.9299 65.2334 92.2993 68.6996 92.2993 68.6996C92.2993 68.6996 96.8475 41.9278 99.1252 33.7154Z" fill="url(#paint0_linear_206:37004)"/>
<path d="M95.9452 49.0032L89.8895 42.8925C89.8688 42.8706 89.8423 42.8551 89.813 42.8478C89.7838 42.8405 89.753 42.8418 89.7245 42.8514C89.6959 42.8611 89.6707 42.8787 89.6519 42.9022C89.633 42.9258 89.6213 42.9542 89.6181 42.9842L88.3894 52.1539C88.3853 52.1814 88.3886 52.2096 88.399 52.2355C88.4094 52.2614 88.4264 52.2841 88.4484 52.3013C88.4704 52.3184 88.4966 52.3294 88.5242 52.3332C88.5519 52.3369 88.58 52.3333 88.6058 52.3226L95.8938 49.2709C95.9191 49.2609 95.9415 49.2447 95.9589 49.2238C95.9763 49.2029 95.988 49.1779 95.9932 49.1512C95.9983 49.1244 95.9966 49.0969 95.9882 49.071C95.9798 49.0451 95.965 49.0218 95.9452 49.0032Z" fill="#FFDF22"/>
<path d="M78.7906 41.0769C77.107 40.6661 70.6662 39.5437 69.3605 39.3163C69.3347 39.3127 69.3085 39.3154 69.284 39.3242C69.2595 39.333 69.2375 39.3475 69.2199 39.3666C69.2022 39.3857 69.1895 39.4087 69.1826 39.4338C69.1758 39.4589 69.1752 39.4853 69.1807 39.5107L70.6479 46.0431C70.6534 46.0679 70.6647 46.0909 70.681 46.1103C70.6973 46.1297 70.718 46.1449 70.7414 46.1546C70.7647 46.1643 70.7901 46.1683 70.8153 46.1661C70.8406 46.1639 70.8649 46.1557 70.8863 46.1422L78.8272 41.374C78.8572 41.3597 78.8818 41.3365 78.8978 41.3074C78.9137 41.2784 78.9201 41.2451 78.9161 41.2122C78.912 41.1793 78.8977 41.1485 78.8752 41.1242C78.8526 41.0999 78.823 41.0834 78.7906 41.0769Z" fill="#FFDF22"/>
<path d="M92.4349 31.192L96.5283 25.6351C96.5426 25.6154 96.5613 25.5994 96.583 25.5884C96.6047 25.5773 96.6286 25.5715 96.653 25.5715C96.6773 25.5715 96.7013 25.5773 96.723 25.5884C96.7446 25.5994 96.7634 25.6154 96.7777 25.6351L100.787 30.5978C100.805 30.6201 100.817 30.6469 100.821 30.6754C100.824 30.7039 100.821 30.733 100.809 30.7594C100.798 30.7859 100.78 30.8087 100.756 30.8255C100.733 30.8422 100.705 30.8523 100.677 30.8545L92.5743 31.4487C92.5431 31.4522 92.5117 31.4463 92.4839 31.4318C92.4561 31.4172 92.4332 31.3948 92.4183 31.3672C92.4033 31.3396 92.3969 31.3083 92.3999 31.277C92.4028 31.2458 92.415 31.2162 92.4349 31.192Z" fill="#FFBF1F"/>
<path d="M79.5387 65.4792C76.5384 67.8009 37.8203 66.6456 37.835 65.7689V55.1321C37.791 53.5146 76.443 53.9694 79.5387 55.4989C79.4396 55.1285 79.5387 65.3838 79.5387 65.4792Z" fill="#FFD108"/>
<path d="M37.8314 55.0221L35.1245 53.5843V67.4232L37.8314 65.9047V55.0221Z" fill="#FFBF00"/>
<path d="M73.2485 56.8524L74.0958 57.5162L75.1411 57.2558L75.6436 58.2058L76.7036 58.3929L76.7806 59.4639L77.6719 60.0691L77.3051 61.0777L77.8737 61.991L77.1254 62.765L77.2758 63.8323L76.2781 64.2321L75.981 65.2664L74.9063 65.2298L74.2131 66.055L73.2485 65.5819L72.2802 66.055L71.5906 65.2298L70.5122 65.2664L70.2188 64.2321L69.2212 63.8323L69.3679 62.765L68.6233 61.991L69.1918 61.0777L68.825 60.0691L69.7163 59.4639L69.7897 58.3929L70.8497 58.2058L71.3559 57.2558L72.4012 57.5162L73.2485 56.8524Z" fill="white"/>
<path d="M32.1243 53.5036V67.3388H35.1246V53.5843L32.1243 53.5036Z" fill="#FFD108"/>
<path d="M79.2454 55.0221L81.9559 53.5843V67.4232L79.2454 65.9047V55.0221Z" fill="#FFBF00"/>
<path d="M84.9564 53.5036V67.3388H81.9561V53.5843L84.9564 53.5036Z" fill="#FFD108"/>
<path d="M48.769 60.3992C48.7659 58.2627 49.1383 56.1422 49.8693 54.1345C45.9374 54.1822 42.5153 54.3069 40.3329 54.5196C39.5029 56.6419 39.0811 58.9018 39.0895 61.1805C39.0885 62.854 39.3155 64.5199 39.7644 66.1321C40.2632 66.1798 40.8464 66.2275 41.5103 66.2752C41.4516 65.681 41.4149 65.0758 41.4149 64.4632C41.4068 62.0094 41.8985 59.5795 42.86 57.3219C42.8014 57.9198 42.7684 58.5286 42.7684 59.1558C42.7594 61.6674 43.274 64.1533 44.2795 66.4549L45.5486 66.5173C45.2454 65.1813 45.0916 63.8158 45.0901 62.4459C45.0837 59.9922 45.5754 57.5627 46.5353 55.3046C46.4766 55.9024 46.4436 56.5113 46.4436 57.1385C46.4193 60.5113 47.3611 63.8205 49.1578 66.675L49.8693 66.697C49.1339 64.6791 48.7614 62.547 48.769 60.3992Z" fill="#FF7110"/>
<path d="M56.2587 54.1235H53.8342C54.0046 58.064 55.5368 61.8234 58.1696 64.7603C56.8101 62.1703 56.1073 59.286 56.123 56.3609C56.1224 55.613 56.1677 54.8658 56.2587 54.1235Z" fill="#FF7110"/>
<path d="M50.1482 54.1308C50.1482 54.4463 50.1226 54.7617 50.1226 55.0771C50.1226 59.6987 51.8061 63.858 54.491 66.7666C53.1331 64.176 52.4304 61.2921 52.4443 58.3672C52.4416 56.9347 52.6066 55.5067 52.9358 54.1125L50.1482 54.1308Z" fill="#FF7110"/>
<path d="M59.7984 54.3032C59.7984 54.2592 59.7984 54.2115 59.7984 54.1639L57.7371 54.1382C58.2509 57.329 59.6762 60.3032 61.8414 62.7027C60.4848 60.1117 59.7834 57.2279 59.7984 54.3032Z" fill="#FF7110"/>
<path d="M72.878 56.6066C72.5303 55.9557 72.2276 55.2816 71.972 54.5893L71.2825 54.549C71.7555 55.2785 72.2893 55.9668 72.878 56.6066Z" fill="#FF7110"/>
<path d="M65.5237 60.6706C64.467 58.6736 63.8045 56.4919 63.5724 54.2445L61.9109 54.2115C62.604 56.6131 63.8401 58.8231 65.5237 60.6706Z" fill="#FF7110"/>
<path d="M69.199 58.6387C68.4899 57.2931 67.9608 55.8601 67.6255 54.3766L66.3857 54.3326C67.0838 55.911 68.034 57.3653 69.199 58.6387Z" fill="#FF7110"/>
<path d="M75.9591 59.9664C75.9591 59.9664 70.824 63.2675 73.7327 64.5109C76.6413 65.7543 75.9591 59.9664 75.9591 59.9664Z" fill="#E77A04"/>
<path d="M68.3115 62.6733C68.3115 62.6733 72.1848 58.1252 73.0541 60.8394C73.9234 63.5536 68.3115 62.6733 68.3115 62.6733Z" fill="#E77A04"/>
<g style="mix-blend-mode:screen" opacity="0.54">
<path d="M41.8 56.2875C37.3509 57.9344 37.5306 62.5779 41.0261 64.1147C44.5216 65.6516 50.4122 59.8563 56.4312 60.1461C62.4502 60.4359 69.6869 61.6939 69.3971 57.8243C69.1073 53.9547 46.2528 54.6443 41.8 56.2875Z" fill="#FFCC0F"/>
</g>
<path d="M125.593 29.8569L119.643 33.7888L128.27 46.8464L134.216 42.9145L130.038 37.9042L125.593 29.8569Z" fill="#844123"/>
<path d="M84.8611 56.768L91.0304 52.693L99.6536 65.7506L93.4879 69.8256L90.6123 64.4192L84.8611 56.768Z" fill="#844123"/>
<path d="M130.962 45.0969L96.9723 67.5516L94.4085 62.798L88.3198 54.4536L122.31 31.9989L128.021 40.8128L130.962 45.0969Z" fill="#B26742"/>
<path d="M119.467 43.8336L114.111 47.3716L117.851 53.0333L123.207 49.4952L119.467 43.8336Z" fill="#4E1317"/>
<path d="M112.89 48.1852L107.534 51.7233L111.274 57.385L116.63 53.8469L112.89 48.1852Z" fill="#4E1317"/>
<path d="M99.7313 56.8768L94.3757 60.4149L98.116 66.0765L103.472 62.5384L99.7313 56.8768Z" fill="#4E1317"/>
<path d="M106.31 52.5281L100.955 56.0662L104.695 61.7279L110.05 58.1898L106.31 52.5281Z" fill="#4E1317"/>
<path d="M125.677 39.8803L120.349 43.4106L124.081 49.0427L129.409 45.5123L125.677 39.8803Z" fill="#4E1317"/>
<path d="M95.484 50.4488L90.1284 53.9869L93.8687 59.6485L99.2243 56.1104L95.484 50.4488Z" fill="#4E1317"/>
<path d="M121.805 33.0587L116.45 36.5967L120.19 42.2584L125.546 38.7203L121.805 33.0587Z" fill="#4E1317"/>
<path d="M108.644 41.7522L103.288 45.2903L107.028 50.9519L112.384 47.4138L108.644 41.7522Z" fill="#4E1317"/>
<path d="M115.223 37.4072L109.867 40.9453L113.607 46.607L118.963 43.0689L115.223 37.4072Z" fill="#4E1317"/>
<path d="M102.063 46.1038L96.7075 49.6419L100.448 55.3036L105.803 51.7655L102.063 46.1038Z" fill="#4E1317"/>
<g style="mix-blend-mode:multiply">
<g style="mix-blend-mode:multiply">
<path d="M108.112 44.9428C114.93 40.435 120.498 35.9565 123.025 33.1029L122.31 32.0026L88.4629 54.3766C90.0144 55.3119 98.5532 51.2552 108.112 44.9428Z" fill="#A8A19E"/>
</g>
<g style="mix-blend-mode:multiply">
<path d="M97.1152 67.4562L130.962 45.0822L130.229 43.9818C126.612 45.1922 120.326 48.552 113.5 53.0525C103.937 59.3869 96.8475 65.6442 97.1152 67.4562Z" fill="#A8A19E"/>
</g>
</g>
<path d="M111.609 52.5652C114.736 50.4996 116.456 47.5918 115.451 46.0707C114.446 44.5495 111.097 44.9909 107.97 47.0566C104.843 49.1223 103.123 52.03 104.128 53.5512C105.133 55.0724 108.482 54.6309 111.609 52.5652Z" fill="#C66C00"/>
<path d="M83.5 99.3095C72.5914 99.3095 61.9278 96.0748 52.8577 90.0143C43.7875 83.9538 36.7181 75.3398 32.5436 65.2616C28.3691 55.1834 27.2769 44.0936 29.405 33.3946C31.5332 22.6957 36.7861 12.868 44.4997 5.15448C52.2132 -2.55905 62.0408 -7.81203 72.7398 -9.94019C83.4388 -12.0684 94.5286 -10.9761 104.607 -6.80157C114.685 -2.62704 123.299 4.44229 129.359 13.5124C135.42 22.5826 138.655 33.2462 138.655 44.1548C138.638 58.7777 132.822 72.7971 122.482 83.1371C112.142 93.4771 98.123 99.2933 83.5 99.3095ZM83.5 -2.21387C74.3291 -2.21387 65.3642 0.505603 57.7389 5.60066C50.1136 10.6957 44.1705 17.9375 40.6609 26.4103C37.1514 34.883 36.2331 44.2062 38.0223 53.2009C39.8114 62.1955 44.2276 70.4576 50.7124 76.9424C57.1972 83.4271 65.4593 87.8433 74.4539 89.6325C83.4486 91.4216 92.7717 90.5034 101.245 86.9938C109.717 83.4843 116.959 77.5411 122.054 69.9158C127.149 62.2906 129.869 53.3256 129.869 44.1548C129.855 31.8613 124.965 20.0754 116.272 11.3826C107.579 2.68982 95.7934 -2.19992 83.5 -2.21387Z" fill="#CF4339"/>
<path d="M118.926 79.5892L48.0745 8.74243" stroke="#CF4339" stroke-width="10" stroke-miterlimit="10"/>
</g>
<g filter="url(#filter0_b_206:37004)">
<rect x="13" y="77" width="141" height="77" rx="10" fill="black" fill-opacity="0.8"/>
</g>
<path d="M36.8625 94.97C37.8052 94.97 38.5285 95.208 39.0325 95.684C39.5458 96.16 39.8025 96.8413 39.8025 97.728C39.8025 98.4093 39.6532 99.0067 39.3545 99.52C39.0558 100.024 38.6265 100.416 38.0665 100.696C37.5158 100.976 36.8672 101.116 36.1205 101.116H35.2245V101.144L35.3085 104H33.4045L33.5025 101.312L33.4045 94.984L36.8625 94.97ZM36.5405 99.73C37.3992 99.4873 37.8285 98.876 37.8285 97.896C37.8285 97.392 37.6978 97.0187 37.4365 96.776C37.1845 96.524 36.7925 96.3887 36.2605 96.37L35.3085 96.426L35.2525 99.674L36.5405 99.73ZM44.4071 97.476C44.4911 97.476 44.6077 97.4853 44.7571 97.504V99.226L44.5611 99.296C44.4024 99.2307 44.2297 99.198 44.0431 99.198C43.5017 99.198 43.0117 99.548 42.5731 100.248V101.13L42.6711 104H40.8091L40.9211 101.312L40.8371 97.616L42.6011 97.462L42.5871 98.736H42.6991C43.1564 97.896 43.7257 97.476 44.4071 97.476ZM45.8023 101.312L45.7323 97.616L47.5663 97.462L47.4823 101.13L47.5663 104H45.7043L45.8023 101.312ZM46.6843 94.298C46.9736 94.298 47.1976 94.382 47.3563 94.55C47.5243 94.718 47.6083 94.9513 47.6083 95.25C47.6083 95.5673 47.5196 95.8193 47.3423 96.006C47.1649 96.1927 46.9223 96.286 46.6143 96.286C46.3063 96.286 46.0683 96.202 45.9003 96.034C45.7416 95.866 45.6623 95.628 45.6623 95.32C45.6623 95.012 45.7509 94.7647 45.9283 94.578C46.1149 94.3913 46.3669 94.298 46.6843 94.298ZM52.0287 97.364C52.9807 97.364 53.7087 97.644 54.2127 98.204C54.7167 98.764 54.9687 99.5713 54.9687 100.626C54.9687 101.765 54.698 102.637 54.1567 103.244C53.6153 103.841 52.836 104.14 51.8187 104.14C50.8667 104.14 50.1387 103.86 49.6347 103.3C49.1307 102.74 48.8787 101.933 48.8787 100.878C48.8787 99.7393 49.1493 98.8713 49.6907 98.274C50.232 97.6673 51.0113 97.364 52.0287 97.364ZM51.9027 98.624C51.4547 98.624 51.128 98.7733 50.9227 99.072C50.7267 99.3707 50.6287 99.8513 50.6287 100.514C50.6287 101.373 50.7313 101.984 50.9367 102.348C51.142 102.712 51.478 102.894 51.9447 102.894C52.3927 102.894 52.7147 102.749 52.9107 102.46C53.116 102.161 53.2187 101.676 53.2187 101.004C53.2187 100.155 53.1113 99.548 52.8967 99.184C52.6913 98.8107 52.36 98.624 51.9027 98.624ZM59.7606 97.476C59.8446 97.476 59.9613 97.4853 60.1106 97.504V99.226L59.9146 99.296C59.7559 99.2307 59.5833 99.198 59.3966 99.198C58.8553 99.198 58.3653 99.548 57.9266 100.248V101.13L58.0246 104H56.1626L56.2746 101.312L56.1906 97.616L57.9546 97.462L57.9406 98.736H58.0526C58.5099 97.896 59.0793 97.476 59.7606 97.476ZM61.1558 101.312L61.0858 97.616L62.9198 97.462L62.8358 101.13L62.9198 104H61.0578L61.1558 101.312ZM62.0378 94.298C62.3271 94.298 62.5511 94.382 62.7098 94.55C62.8778 94.718 62.9618 94.9513 62.9618 95.25C62.9618 95.5673 62.8731 95.8193 62.6958 96.006C62.5184 96.1927 62.2758 96.286 61.9678 96.286C61.6598 96.286 61.4218 96.202 61.2538 96.034C61.0951 95.866 61.0158 95.628 61.0158 95.32C61.0158 95.012 61.1044 94.7647 61.2818 94.578C61.4684 94.3913 61.7204 94.298 62.0378 94.298ZM65.7582 97.49H68.5862L69.3002 97.476L69.3142 98.582L66.1642 102.81H68.1382L69.3282 102.698L69.4262 102.824L69.3002 104.028L67.6762 104H65.1002L64.2042 104.042V102.95L67.3822 98.694H65.5062L64.3442 98.792L64.2322 98.666L64.3722 97.462L65.7582 97.49ZM75.5581 100.976L71.7781 101.004C71.8621 102.171 72.4547 102.754 73.5561 102.754C74.1347 102.754 74.7787 102.591 75.4881 102.264L75.6421 102.362L75.3621 103.748C74.6527 104.009 73.9854 104.14 73.3601 104.14C72.3334 104.14 71.5261 103.841 70.9381 103.244C70.3594 102.647 70.0701 101.821 70.0701 100.766C70.0701 99.7207 70.3547 98.8947 70.9241 98.288C71.4934 97.672 72.2634 97.364 73.2341 97.364C74.0647 97.364 74.7041 97.5927 75.1521 98.05C75.6094 98.498 75.8381 99.128 75.8381 99.94C75.8381 100.155 75.8147 100.425 75.7681 100.752L75.5581 100.976ZM74.2141 99.73C74.2141 99.3567 74.1301 99.0767 73.9621 98.89C73.7941 98.694 73.5467 98.596 73.2201 98.596C72.8561 98.596 72.5527 98.7173 72.3101 98.96C72.0674 99.1933 71.9041 99.534 71.8201 99.982L74.1861 99.926L74.2141 99.73ZM81.8027 97.364C82.5214 97.364 83.0814 97.5273 83.4827 97.854C83.8934 98.1713 84.0987 98.6193 84.0987 99.198C84.0987 99.366 84.0707 99.898 84.0147 100.794C84.0054 101.055 83.9914 101.326 83.9727 101.606C83.9541 101.877 83.9447 102.11 83.9447 102.306C83.9447 102.465 83.9681 102.577 84.0147 102.642C84.0614 102.698 84.1454 102.726 84.2667 102.726C84.3601 102.726 84.4814 102.707 84.6307 102.67L84.7707 102.782L84.6027 103.762C84.3041 103.958 83.9634 104.075 83.5807 104.112C83.3007 104.084 83.0674 103.986 82.8807 103.818C82.6941 103.641 82.5681 103.398 82.5027 103.09H82.4047C81.9381 103.585 81.4574 103.93 80.9627 104.126C80.2907 104.117 79.7634 103.939 79.3807 103.594C78.9981 103.249 78.8067 102.777 78.8067 102.18C78.8067 101.713 78.9234 101.349 79.1567 101.088C79.3994 100.817 79.7634 100.635 80.2487 100.542L82.3907 100.136V99.562C82.3907 98.9553 82.0921 98.652 81.4947 98.652C81.2054 98.652 80.8974 98.7173 80.5707 98.848C80.2534 98.9787 79.8941 99.184 79.4927 99.464L79.3527 99.38L79.1427 98.148C79.5441 97.896 79.9734 97.7047 80.4307 97.574C80.8881 97.434 81.3454 97.364 81.8027 97.364ZM80.8927 101.396C80.7434 101.433 80.6314 101.499 80.5567 101.592C80.4914 101.676 80.4587 101.807 80.4587 101.984C80.4587 102.227 80.5241 102.418 80.6547 102.558C80.7854 102.689 80.9674 102.754 81.2007 102.754C81.5647 102.754 81.9474 102.539 82.3487 102.11L82.3767 101.074L80.8927 101.396ZM87.801 101.13L87.899 104H86.037L86.135 101.298L86.051 94.312L87.913 94.172L87.801 101.13ZM89.7847 101.312L89.7147 97.616L91.5487 97.462L91.4647 101.13L91.5487 104H89.6867L89.7847 101.312ZM90.6667 94.298C90.956 94.298 91.18 94.382 91.3387 94.55C91.5067 94.718 91.5907 94.9513 91.5907 95.25C91.5907 95.5673 91.502 95.8193 91.3247 96.006C91.1474 96.1927 90.9047 96.286 90.5967 96.286C90.2887 96.286 90.0507 96.202 89.8827 96.034C89.724 95.866 89.6447 95.628 89.6447 95.32C89.6447 95.012 89.7334 94.7647 89.9107 94.578C90.0974 94.3913 90.3494 94.298 90.6667 94.298ZM101.107 104L101.219 99.94C101.219 99.2493 100.925 98.904 100.337 98.904C99.9171 98.904 99.4784 99.0907 99.0211 99.464L98.9791 101.144L99.0631 104H97.2011L97.3131 99.94C97.3224 99.604 97.2477 99.3473 97.0891 99.17C96.9397 98.9927 96.7204 98.904 96.4311 98.904C96.0204 98.904 95.5677 99.1 95.0731 99.492V101.13L95.1571 104H93.3091L93.4071 101.312L93.3371 97.616L95.0871 97.462V98.414H95.1851C95.6984 97.9473 96.2631 97.6113 96.8791 97.406C97.9244 97.406 98.5917 97.756 98.8811 98.456H98.9651C99.4971 97.9613 100.104 97.6113 100.785 97.406C101.494 97.406 102.031 97.5693 102.395 97.896C102.768 98.2133 102.946 98.6753 102.927 99.282L102.885 101.144L102.969 104H101.107ZM109.642 100.976L105.862 101.004C105.946 102.171 106.539 102.754 107.64 102.754C108.219 102.754 108.863 102.591 109.572 102.264L109.726 102.362L109.446 103.748C108.737 104.009 108.069 104.14 107.444 104.14C106.417 104.14 105.61 103.841 105.022 103.244C104.443 102.647 104.154 101.821 104.154 100.766C104.154 99.7207 104.439 98.8947 105.008 98.288C105.577 97.672 106.347 97.364 107.318 97.364C108.149 97.364 108.788 97.5927 109.236 98.05C109.693 98.498 109.922 99.128 109.922 99.94C109.922 100.155 109.899 100.425 109.852 100.752L109.642 100.976ZM108.298 99.73C108.298 99.3567 108.214 99.0767 108.046 98.89C107.878 98.694 107.631 98.596 107.304 98.596C106.94 98.596 106.637 98.7173 106.394 98.96C106.151 99.1933 105.988 99.534 105.904 99.982L108.27 99.926L108.298 99.73ZM115.21 99.94C115.219 99.6133 115.144 99.3613 114.986 99.184C114.836 98.9973 114.617 98.904 114.328 98.904C113.908 98.904 113.46 99.1047 112.984 99.506V101.13L113.068 104H111.206L111.304 101.312L111.234 97.616L112.998 97.462V98.414H113.096C113.609 97.9473 114.169 97.6113 114.776 97.406C115.485 97.406 116.026 97.5693 116.4 97.896C116.773 98.2133 116.95 98.6753 116.932 99.282L116.89 101.144L116.974 104H115.098L115.21 99.94ZM121.248 102.628C121.546 102.628 121.859 102.549 122.186 102.39L122.34 102.53L122.158 103.636C121.682 103.879 121.196 104.028 120.702 104.084C119.442 103.953 118.812 103.337 118.812 102.236L118.882 101.074L118.868 98.666H118L117.93 98.568L118.028 97.546H118.854V96.468L120.548 95.922L120.674 96.034L120.632 97.546H122.298L122.354 97.644L122.27 98.666H120.604L120.52 101.802C120.52 102.101 120.576 102.315 120.688 102.446C120.8 102.567 120.986 102.628 121.248 102.628ZM125.952 97.364C126.904 97.364 127.632 97.644 128.136 98.204C128.64 98.764 128.892 99.5713 128.892 100.626C128.892 101.765 128.622 102.637 128.08 103.244C127.539 103.841 126.76 104.14 125.742 104.14C124.79 104.14 124.062 103.86 123.558 103.3C123.054 102.74 122.802 101.933 122.802 100.878C122.802 99.7393 123.073 98.8713 123.614 98.274C124.156 97.6673 124.935 97.364 125.952 97.364ZM125.826 98.624C125.378 98.624 125.052 98.7733 124.846 99.072C124.65 99.3707 124.552 99.8513 124.552 100.514C124.552 101.373 124.655 101.984 124.86 102.348C125.066 102.712 125.402 102.894 125.868 102.894C126.316 102.894 126.638 102.749 126.834 102.46C127.04 102.161 127.142 101.676 127.142 101.004C127.142 100.155 127.035 99.548 126.82 99.184C126.615 98.8107 126.284 98.624 125.826 98.624ZM132.352 97.378C132.987 97.378 133.584 97.4853 134.144 97.7L133.892 99.072L133.668 99.142C133.398 98.9647 133.127 98.8293 132.856 98.736C132.586 98.6427 132.348 98.596 132.142 98.596C131.918 98.596 131.741 98.6567 131.61 98.778C131.48 98.89 131.414 99.03 131.414 99.198C131.414 99.394 131.498 99.5527 131.666 99.674C131.844 99.7953 132.119 99.9307 132.492 100.08C132.866 100.229 133.174 100.374 133.416 100.514C133.659 100.654 133.864 100.85 134.032 101.102C134.21 101.345 134.298 101.648 134.298 102.012C134.298 102.385 134.2 102.735 134.004 103.062C133.818 103.379 133.528 103.641 133.136 103.846C132.744 104.042 132.264 104.14 131.694 104.14C131.022 104.14 130.327 104 129.608 103.72L129.818 102.264L130 102.152C130.29 102.395 130.612 102.591 130.966 102.74C131.321 102.88 131.634 102.95 131.904 102.95C132.156 102.95 132.352 102.889 132.492 102.768C132.632 102.637 132.702 102.483 132.702 102.306C132.702 102.11 132.614 101.951 132.436 101.83C132.268 101.709 131.998 101.573 131.624 101.424C131.242 101.256 130.929 101.107 130.686 100.976C130.444 100.836 130.234 100.64 130.056 100.388C129.888 100.136 129.804 99.8233 129.804 99.45C129.804 98.8433 130.033 98.3487 130.49 97.966C130.948 97.574 131.568 97.378 132.352 97.378ZM33.0143 115.94C33.0236 115.613 32.9489 115.361 32.7903 115.184C32.6409 114.997 32.4216 114.904 32.1323 114.904C31.7123 114.904 31.2643 115.105 30.7883 115.506V117.13L30.8723 120H29.0103L29.1083 117.312L29.0383 113.616L30.8023 113.462V114.414H30.9003C31.4136 113.947 31.9736 113.611 32.5803 113.406C33.2896 113.406 33.8309 113.569 34.2043 113.896C34.5776 114.213 34.7549 114.675 34.7363 115.282L34.6943 117.144L34.7783 120H32.9023L33.0143 115.94ZM38.9824 113.364C39.7011 113.364 40.2611 113.527 40.6624 113.854C41.0731 114.171 41.2784 114.619 41.2784 115.198C41.2784 115.366 41.2504 115.898 41.1944 116.794C41.1851 117.055 41.1711 117.326 41.1524 117.606C41.1337 117.877 41.1244 118.11 41.1244 118.306C41.1244 118.465 41.1477 118.577 41.1944 118.642C41.2411 118.698 41.3251 118.726 41.4464 118.726C41.5397 118.726 41.6611 118.707 41.8104 118.67L41.9504 118.782L41.7824 119.762C41.4837 119.958 41.1431 120.075 40.7604 120.112C40.4804 120.084 40.2471 119.986 40.0604 119.818C39.8737 119.641 39.7477 119.398 39.6824 119.09H39.5844C39.1177 119.585 38.6371 119.93 38.1424 120.126C37.4704 120.117 36.9431 119.939 36.5604 119.594C36.1777 119.249 35.9864 118.777 35.9864 118.18C35.9864 117.713 36.1031 117.349 36.3364 117.088C36.5791 116.817 36.9431 116.635 37.4284 116.542L39.5704 116.136V115.562C39.5704 114.955 39.2717 114.652 38.6744 114.652C38.3851 114.652 38.0771 114.717 37.7504 114.848C37.4331 114.979 37.0737 115.184 36.6724 115.464L36.5324 115.38L36.3224 114.148C36.7237 113.896 37.1531 113.705 37.6104 113.574C38.0677 113.434 38.5251 113.364 38.9824 113.364ZM38.0724 117.396C37.9231 117.433 37.8111 117.499 37.7364 117.592C37.6711 117.676 37.6384 117.807 37.6384 117.984C37.6384 118.227 37.7037 118.418 37.8344 118.558C37.9651 118.689 38.1471 118.754 38.3804 118.754C38.7444 118.754 39.1271 118.539 39.5284 118.11L39.5564 117.074L38.0724 117.396ZM45.7926 118.628C46.0913 118.628 46.404 118.549 46.7306 118.39L46.8846 118.53L46.7026 119.636C46.2266 119.879 45.7413 120.028 45.2466 120.084C43.9866 119.953 43.3566 119.337 43.3566 118.236L43.4266 117.074L43.4126 114.666H42.5446L42.4746 114.568L42.5726 113.546H43.3986V112.468L45.0926 111.922L45.2186 112.034L45.1766 113.546H46.8426L46.8986 113.644L46.8146 114.666H45.1486L45.0646 117.802C45.0646 118.101 45.1206 118.315 45.2326 118.446C45.3446 118.567 45.5313 118.628 45.7926 118.628ZM54.1071 118.782L53.9391 119.762C53.5938 119.986 53.2391 120.103 52.8751 120.112C52.6044 120.065 52.3804 119.958 52.2031 119.79C52.0258 119.622 51.8904 119.379 51.7971 119.062H51.6711C51.1391 119.585 50.5884 119.925 50.0191 120.084C49.3098 120.084 48.7684 119.925 48.3951 119.608C48.0311 119.281 47.8538 118.815 47.8631 118.208L47.8911 116.556L47.8211 113.616L49.6271 113.462L49.5851 117.592C49.5758 117.919 49.6411 118.166 49.7811 118.334C49.9211 118.502 50.1311 118.586 50.4111 118.586C50.8218 118.586 51.2278 118.404 51.6291 118.04V113.616L53.4071 113.462L53.2811 118.306C53.2811 118.455 53.3044 118.563 53.3511 118.628C53.4071 118.693 53.4911 118.726 53.6031 118.726C53.7058 118.726 53.8318 118.707 53.9811 118.67L54.1071 118.782ZM58.7215 113.476C58.8055 113.476 58.9222 113.485 59.0715 113.504V115.226L58.8755 115.296C58.7169 115.231 58.5442 115.198 58.3575 115.198C57.8162 115.198 57.3262 115.548 56.8875 116.248V117.13L56.9855 120H55.1235L55.2355 117.312L55.1515 113.616L56.9155 113.462L56.9015 114.736H57.0135C57.4709 113.896 58.0402 113.476 58.7215 113.476ZM62.416 113.364C63.1347 113.364 63.6947 113.527 64.096 113.854C64.5067 114.171 64.712 114.619 64.712 115.198C64.712 115.366 64.684 115.898 64.628 116.794C64.6187 117.055 64.6047 117.326 64.586 117.606C64.5673 117.877 64.558 118.11 64.558 118.306C64.558 118.465 64.5813 118.577 64.628 118.642C64.6747 118.698 64.7587 118.726 64.88 118.726C64.9733 118.726 65.0947 118.707 65.244 118.67L65.384 118.782L65.216 119.762C64.9173 119.958 64.5767 120.075 64.194 120.112C63.914 120.084 63.6807 119.986 63.494 119.818C63.3073 119.641 63.1813 119.398 63.116 119.09H63.018C62.5513 119.585 62.0707 119.93 61.576 120.126C60.904 120.117 60.3767 119.939 59.994 119.594C59.6113 119.249 59.42 118.777 59.42 118.18C59.42 117.713 59.5367 117.349 59.77 117.088C60.0127 116.817 60.3767 116.635 60.862 116.542L63.004 116.136V115.562C63.004 114.955 62.7053 114.652 62.108 114.652C61.8187 114.652 61.5107 114.717 61.184 114.848C60.8667 114.979 60.5073 115.184 60.106 115.464L59.966 115.38L59.756 114.148C60.1573 113.896 60.5867 113.705 61.044 113.574C61.5013 113.434 61.9587 113.364 62.416 113.364ZM61.506 117.396C61.3567 117.433 61.2447 117.499 61.17 117.592C61.1047 117.676 61.072 117.807 61.072 117.984C61.072 118.227 61.1373 118.418 61.268 118.558C61.3987 118.689 61.5807 118.754 61.814 118.754C62.178 118.754 62.5607 118.539 62.962 118.11L62.99 117.074L61.506 117.396ZM66.7202 117.312L66.6502 113.616L68.4842 113.462L68.4002 117.13L68.4842 120H66.6222L66.7202 117.312ZM67.6022 110.298C67.8916 110.298 68.1156 110.382 68.2742 110.55C68.4422 110.718 68.5262 110.951 68.5262 111.25C68.5262 111.567 68.4376 111.819 68.2602 112.006C68.0829 112.193 67.8402 112.286 67.5322 112.286C67.2242 112.286 66.9862 112.202 66.8182 112.034C66.6596 111.866 66.5802 111.628 66.5802 111.32C66.5802 111.012 66.6689 110.765 66.8462 110.578C67.0329 110.391 67.2849 110.298 67.6022 110.298ZM72.4286 113.378C73.0633 113.378 73.6606 113.485 74.2206 113.7L73.9686 115.072L73.7446 115.142C73.474 114.965 73.2033 114.829 72.9326 114.736C72.662 114.643 72.424 114.596 72.2186 114.596C71.9946 114.596 71.8173 114.657 71.6866 114.778C71.556 114.89 71.4906 115.03 71.4906 115.198C71.4906 115.394 71.5746 115.553 71.7426 115.674C71.92 115.795 72.1953 115.931 72.5686 116.08C72.942 116.229 73.25 116.374 73.4926 116.514C73.7353 116.654 73.9406 116.85 74.1086 117.102C74.286 117.345 74.3746 117.648 74.3746 118.012C74.3746 118.385 74.2766 118.735 74.0806 119.062C73.894 119.379 73.6046 119.641 73.2126 119.846C72.8206 120.042 72.34 120.14 71.7706 120.14C71.0986 120.14 70.4033 120 69.6846 119.72L69.8946 118.264L70.0766 118.152C70.366 118.395 70.688 118.591 71.0426 118.74C71.3973 118.88 71.71 118.95 71.9806 118.95C72.2326 118.95 72.4286 118.889 72.5686 118.768C72.7086 118.637 72.7786 118.483 72.7786 118.306C72.7786 118.11 72.69 117.951 72.5126 117.83C72.3446 117.709 72.074 117.573 71.7006 117.424C71.318 117.256 71.0053 117.107 70.7626 116.976C70.52 116.836 70.31 116.64 70.1326 116.388C69.9646 116.136 69.8806 115.823 69.8806 115.45C69.8806 114.843 70.1093 114.349 70.5666 113.966C71.024 113.574 71.6446 113.378 72.4286 113.378ZM82.7768 116.976L78.9968 117.004C79.0808 118.171 79.6735 118.754 80.7748 118.754C81.3535 118.754 81.9975 118.591 82.7068 118.264L82.8608 118.362L82.5808 119.748C81.8715 120.009 81.2041 120.14 80.5788 120.14C79.5521 120.14 78.7448 119.841 78.1568 119.244C77.5781 118.647 77.2888 117.821 77.2888 116.766C77.2888 115.721 77.5735 114.895 78.1428 114.288C78.7121 113.672 79.4821 113.364 80.4528 113.364C81.2835 113.364 81.9228 113.593 82.3708 114.05C82.8281 114.498 83.0568 115.128 83.0568 115.94C83.0568 116.155 83.0335 116.425 82.9868 116.752L82.7768 116.976ZM81.4328 115.73C81.4328 115.357 81.3488 115.077 81.1808 114.89C81.0128 114.694 80.7655 114.596 80.4388 114.596C80.0748 114.596 79.7715 114.717 79.5288 114.96C79.2861 115.193 79.1228 115.534 79.0388 115.982L81.4048 115.926L81.4328 115.73ZM90.0575 113.476C90.1415 113.476 90.2581 113.485 90.4075 113.504V115.226L90.2115 115.296C90.0528 115.231 89.8801 115.198 89.6935 115.198C89.1521 115.198 88.6621 115.548 88.2235 116.248V117.13L88.3215 120H86.4595L86.5715 117.312L86.4875 113.616L88.2515 113.462L88.2375 114.736H88.3495C88.8068 113.896 89.3761 113.476 90.0575 113.476ZM96.3667 116.976L92.5867 117.004C92.6707 118.171 93.2633 118.754 94.3647 118.754C94.9433 118.754 95.5873 118.591 96.2967 118.264L96.4507 118.362L96.1707 119.748C95.4613 120.009 94.794 120.14 94.1687 120.14C93.142 120.14 92.3347 119.841 91.7467 119.244C91.168 118.647 90.8787 117.821 90.8787 116.766C90.8787 115.721 91.1633 114.895 91.7327 114.288C92.302 113.672 93.072 113.364 94.0427 113.364C94.8733 113.364 95.5127 113.593 95.9607 114.05C96.418 114.498 96.6467 115.128 96.6467 115.94C96.6467 116.155 96.6233 116.425 96.5767 116.752L96.3667 116.976ZM95.0227 115.73C95.0227 115.357 94.9387 115.077 94.7707 114.89C94.6027 114.694 94.3553 114.596 94.0287 114.596C93.6647 114.596 93.3613 114.717 93.1187 114.96C92.876 115.193 92.7127 115.534 92.6287 115.982L94.9947 115.926L95.0227 115.73ZM103.362 117.13L103.404 118.306C103.404 118.465 103.423 118.577 103.46 118.642C103.507 118.698 103.586 118.726 103.698 118.726C103.801 118.726 103.927 118.707 104.076 118.67L104.202 118.782L104.048 119.762C103.731 119.958 103.386 120.075 103.012 120.112C102.723 120.084 102.48 119.986 102.284 119.818C102.088 119.65 101.953 119.421 101.878 119.132H101.766C101.309 119.552 100.842 119.874 100.366 120.098C99.4515 120.098 98.7422 119.809 98.2382 119.23C97.7342 118.642 97.4822 117.83 97.4822 116.794C97.4822 115.693 97.7715 114.848 98.3502 114.26C98.9288 113.672 99.7315 113.378 100.758 113.378C101.029 113.378 101.328 113.406 101.654 113.462L101.626 110.312L103.474 110.172L103.362 117.13ZM100.632 114.638C99.6988 114.638 99.2322 115.231 99.2322 116.416C99.2322 117.153 99.3442 117.709 99.5682 118.082C99.7922 118.455 100.119 118.642 100.548 118.642C100.959 118.642 101.337 118.451 101.682 118.068L101.71 117.298L101.668 114.89C101.304 114.722 100.959 114.638 100.632 114.638ZM111.515 118.782L111.347 119.762C111.002 119.986 110.647 120.103 110.283 120.112C110.013 120.065 109.789 119.958 109.611 119.79C109.434 119.622 109.299 119.379 109.205 119.062H109.079C108.547 119.585 107.997 119.925 107.427 120.084C106.718 120.084 106.177 119.925 105.803 119.608C105.439 119.281 105.262 118.815 105.271 118.208L105.299 116.556L105.229 113.616L107.035 113.462L106.993 117.592C106.984 117.919 107.049 118.166 107.189 118.334C107.329 118.502 107.539 118.586 107.819 118.586C108.23 118.586 108.636 118.404 109.037 118.04V113.616L110.815 113.462L110.689 118.306C110.689 118.455 110.713 118.563 110.759 118.628C110.815 118.693 110.899 118.726 111.011 118.726C111.114 118.726 111.24 118.707 111.389 118.67L111.515 118.782ZM113.692 113.49H116.52L117.234 113.476L117.248 114.582L114.098 118.81H116.072L117.262 118.698L117.36 118.824L117.234 120.028L115.61 120H113.034L112.138 120.042V118.95L115.316 114.694H113.44L112.278 114.792L112.166 114.666L112.306 113.462L113.692 113.49ZM121.109 113.364C121.828 113.364 122.388 113.527 122.789 113.854C123.2 114.171 123.405 114.619 123.405 115.198C123.405 115.366 123.377 115.898 123.321 116.794C123.312 117.055 123.298 117.326 123.279 117.606C123.261 117.877 123.251 118.11 123.251 118.306C123.251 118.465 123.275 118.577 123.321 118.642C123.368 118.698 123.452 118.726 123.573 118.726C123.667 118.726 123.788 118.707 123.937 118.67L124.077 118.782L123.909 119.762C123.611 119.958 123.27 120.075 122.887 120.112C122.607 120.084 122.374 119.986 122.187 119.818C122.001 119.641 121.875 119.398 121.809 119.09H121.711C121.245 119.585 120.764 119.93 120.269 120.126C119.597 120.117 119.07 119.939 118.687 119.594C118.305 119.249 118.113 118.777 118.113 118.18C118.113 117.713 118.23 117.349 118.463 117.088C118.706 116.817 119.07 116.635 119.555 116.542L121.697 116.136V115.562C121.697 114.955 121.399 114.652 120.801 114.652C120.512 114.652 120.204 114.717 119.877 114.848C119.56 114.979 119.201 115.184 118.799 115.464L118.659 115.38L118.449 114.148C118.851 113.896 119.28 113.705 119.737 113.574C120.195 113.434 120.652 113.364 121.109 113.364ZM120.199 117.396C120.05 117.433 119.938 117.499 119.863 117.592C119.798 117.676 119.765 117.807 119.765 117.984C119.765 118.227 119.831 118.418 119.961 118.558C120.092 118.689 120.274 118.754 120.507 118.754C120.871 118.754 121.254 118.539 121.655 118.11L121.683 117.074L120.199 117.396ZM130.109 113.364C131.061 113.364 131.789 113.644 132.293 114.204C132.797 114.764 133.049 115.571 133.049 116.626C133.049 117.765 132.778 118.637 132.237 119.244C131.695 119.841 130.916 120.14 129.899 120.14C128.947 120.14 128.219 119.86 127.715 119.3C127.211 118.74 126.959 117.933 126.959 116.878C126.959 115.739 127.229 114.871 127.771 114.274C128.312 113.667 129.091 113.364 130.109 113.364ZM129.983 114.624C129.535 114.624 129.208 114.773 129.003 115.072C128.807 115.371 128.709 115.851 128.709 116.514C128.709 117.373 128.811 117.984 129.017 118.348C129.222 118.712 129.558 118.894 130.025 118.894C130.473 118.894 130.795 118.749 130.991 118.46C131.196 118.161 131.299 117.676 131.299 117.004C131.299 116.155 131.191 115.548 130.977 115.184C130.771 114.811 130.44 114.624 129.983 114.624ZM136.509 113.378C137.143 113.378 137.741 113.485 138.301 113.7L138.049 115.072L137.825 115.142C137.554 114.965 137.283 114.829 137.013 114.736C136.742 114.643 136.504 114.596 136.299 114.596C136.075 114.596 135.897 114.657 135.767 114.778C135.636 114.89 135.571 115.03 135.571 115.198C135.571 115.394 135.655 115.553 135.823 115.674C136 115.795 136.275 115.931 136.649 116.08C137.022 116.229 137.33 116.374 137.573 116.514C137.815 116.654 138.021 116.85 138.189 117.102C138.366 117.345 138.455 117.648 138.455 118.012C138.455 118.385 138.357 118.735 138.161 119.062C137.974 119.379 137.685 119.641 137.293 119.846C136.901 120.042 136.42 120.14 135.851 120.14C135.179 120.14 134.483 120 133.765 119.72L133.975 118.264L134.157 118.152C134.446 118.395 134.768 118.591 135.123 118.74C135.477 118.88 135.79 118.95 136.061 118.95C136.313 118.95 136.509 118.889 136.649 118.768C136.789 118.637 136.859 118.483 136.859 118.306C136.859 118.11 136.77 117.951 136.593 117.83C136.425 117.709 136.154 117.573 135.781 117.424C135.398 117.256 135.085 117.107 134.843 116.976C134.6 116.836 134.39 116.64 134.213 116.388C134.045 116.136 133.961 115.823 133.961 115.45C133.961 114.843 134.189 114.349 134.647 113.966C135.104 113.574 135.725 113.378 136.509 113.378ZM42.9304 134.782L42.7624 135.762C42.417 135.986 42.0624 136.103 41.6984 136.112C41.4277 136.065 41.2037 135.958 41.0264 135.79C40.849 135.622 40.7137 135.379 40.6204 135.062H40.4944C39.9624 135.585 39.4117 135.925 38.8424 136.084C38.133 136.084 37.5917 135.925 37.2184 135.608C36.8544 135.281 36.677 134.815 36.6864 134.208L36.7144 132.556L36.6444 129.616L38.4504 129.462L38.4084 133.592C38.399 133.919 38.4644 134.166 38.6044 134.334C38.7444 134.502 38.9544 134.586 39.2344 134.586C39.645 134.586 40.051 134.404 40.4524 134.04V129.616L42.2304 129.462L42.1044 134.306C42.1044 134.455 42.1277 134.563 42.1744 134.628C42.2304 134.693 42.3144 134.726 42.4264 134.726C42.529 134.726 42.655 134.707 42.8044 134.67L42.9304 134.782ZM45.8488 133.13L45.9468 136H44.0848L44.1828 133.298L44.0988 126.312L45.9608 126.172L45.8488 133.13ZM50.3385 134.628C50.6372 134.628 50.9499 134.549 51.2765 134.39L51.4305 134.53L51.2485 135.636C50.7725 135.879 50.2872 136.028 49.7925 136.084C48.5325 135.953 47.9025 135.337 47.9025 134.236L47.9725 133.074L47.9585 130.666H47.0905L47.0205 130.568L47.1185 129.546H47.9445V128.468L49.6385 127.922L49.7645 128.034L49.7225 129.546H51.3885L51.4445 129.644L51.3605 130.666H49.6945L49.6105 133.802C49.6105 134.101 49.6665 134.315 49.7785 134.446C49.8905 134.567 50.0772 134.628 50.3385 134.628ZM56.035 129.476C56.119 129.476 56.2357 129.485 56.385 129.504V131.226L56.189 131.296C56.0303 131.231 55.8577 131.198 55.671 131.198C55.1297 131.198 54.6397 131.548 54.201 132.248V133.13L54.299 136H52.437L52.549 133.312L52.465 129.616L54.229 129.462L54.215 130.736H54.327C54.7843 129.896 55.3537 129.476 56.035 129.476ZM59.7295 129.364C60.4481 129.364 61.0081 129.527 61.4095 129.854C61.8201 130.171 62.0255 130.619 62.0255 131.198C62.0255 131.366 61.9975 131.898 61.9415 132.794C61.9321 133.055 61.9181 133.326 61.8995 133.606C61.8808 133.877 61.8715 134.11 61.8715 134.306C61.8715 134.465 61.8948 134.577 61.9415 134.642C61.9881 134.698 62.0721 134.726 62.1935 134.726C62.2868 134.726 62.4081 134.707 62.5575 134.67L62.6975 134.782L62.5295 135.762C62.2308 135.958 61.8901 136.075 61.5075 136.112C61.2275 136.084 60.9941 135.986 60.8075 135.818C60.6208 135.641 60.4948 135.398 60.4295 135.09H60.3315C59.8648 135.585 59.3841 135.93 58.8895 136.126C58.2175 136.117 57.6901 135.939 57.3075 135.594C56.9248 135.249 56.7335 134.777 56.7335 134.18C56.7335 133.713 56.8501 133.349 57.0835 133.088C57.3261 132.817 57.6901 132.635 58.1755 132.542L60.3175 132.136V131.562C60.3175 130.955 60.0188 130.652 59.4215 130.652C59.1321 130.652 58.8241 130.717 58.4975 130.848C58.1801 130.979 57.8208 131.184 57.4195 131.464L57.2795 131.38L57.0695 130.148C57.4708 129.896 57.9001 129.705 58.3575 129.574C58.8148 129.434 59.2721 129.364 59.7295 129.364ZM58.8195 133.396C58.6701 133.433 58.5581 133.499 58.4835 133.592C58.4181 133.676 58.3855 133.807 58.3855 133.984C58.3855 134.227 58.4508 134.418 58.5815 134.558C58.7121 134.689 58.8941 134.754 59.1275 134.754C59.4915 134.754 59.8741 134.539 60.2755 134.11L60.3035 133.074L58.8195 133.396ZM67.3517 129.406C68.1637 129.406 68.789 129.681 69.2277 130.232C69.6664 130.783 69.8857 131.562 69.8857 132.57C69.8857 133.709 69.601 134.591 69.0317 135.216C68.4717 135.832 67.6784 136.14 66.6517 136.14C66.353 136.14 66.0404 136.112 65.7137 136.056L65.7557 138.59H63.9077L64.0057 133.312L63.9217 129.616L65.6997 129.462L65.6857 130.414H65.7837C66.045 130.162 66.297 129.961 66.5397 129.812C66.7824 129.653 67.053 129.518 67.3517 129.406ZM66.6657 134.922C67.151 134.922 67.5197 134.749 67.7717 134.404C68.0237 134.059 68.1497 133.55 68.1497 132.878C68.1497 132.225 68.0424 131.735 67.8277 131.408C67.6224 131.072 67.3144 130.904 66.9037 130.904C66.5024 130.904 66.0964 131.105 65.6857 131.506L65.6717 133.13L65.6997 134.712C66.0357 134.852 66.3577 134.922 66.6657 134.922ZM74.6698 129.476C74.7538 129.476 74.8704 129.485 75.0198 129.504V131.226L74.8238 131.296C74.6651 131.231 74.4924 131.198 74.3058 131.198C73.7644 131.198 73.2744 131.548 72.8358 132.248V133.13L72.9338 136H71.0718L71.1838 133.312L71.0998 129.616L72.8638 129.462L72.8498 130.736H72.9618C73.4191 129.896 73.9884 129.476 74.6698 129.476ZM78.641 129.364C79.593 129.364 80.321 129.644 80.825 130.204C81.329 130.764 81.581 131.571 81.581 132.626C81.581 133.765 81.3103 134.637 80.769 135.244C80.2276 135.841 79.4483 136.14 78.431 136.14C77.479 136.14 76.751 135.86 76.247 135.3C75.743 134.74 75.491 133.933 75.491 132.878C75.491 131.739 75.7616 130.871 76.303 130.274C76.8443 129.667 77.6236 129.364 78.641 129.364ZM78.515 130.624C78.067 130.624 77.7403 130.773 77.535 131.072C77.339 131.371 77.241 131.851 77.241 132.514C77.241 133.373 77.3436 133.984 77.549 134.348C77.7543 134.712 78.0903 134.894 78.557 134.894C79.005 134.894 79.327 134.749 79.523 134.46C79.7283 134.161 79.831 133.676 79.831 133.004C79.831 132.155 79.7236 131.548 79.509 131.184C79.3036 130.811 78.9723 130.624 78.515 130.624ZM85.5309 129.364C85.8389 129.364 86.1423 129.397 86.4409 129.462C86.7489 129.518 87.0196 129.602 87.2529 129.714L86.9449 131.198L86.7909 131.268C86.3149 131.007 85.8903 130.876 85.5169 130.876C85.0876 130.876 84.7563 131.03 84.5229 131.338C84.2896 131.646 84.1729 132.085 84.1729 132.654C84.1729 133.307 84.2989 133.807 84.5509 134.152C84.8029 134.497 85.1623 134.67 85.6289 134.67C86.0489 134.67 86.5156 134.553 87.0289 134.32L87.1689 134.432L86.9869 135.874C86.4269 136.051 85.8529 136.14 85.2649 136.14C84.3689 136.14 83.6689 135.851 83.1649 135.272C82.6609 134.684 82.4089 133.867 82.4089 132.822C82.4089 131.739 82.6843 130.895 83.2349 130.288C83.7856 129.672 84.5509 129.364 85.5309 129.364ZM93.2836 132.976L89.5036 133.004C89.5876 134.171 90.1803 134.754 91.2816 134.754C91.8603 134.754 92.5043 134.591 93.2136 134.264L93.3676 134.362L93.0876 135.748C92.3783 136.009 91.711 136.14 91.0856 136.14C90.059 136.14 89.2516 135.841 88.6636 135.244C88.085 134.647 87.7956 133.821 87.7956 132.766C87.7956 131.721 88.0803 130.895 88.6496 130.288C89.219 129.672 89.989 129.364 90.9596 129.364C91.7903 129.364 92.4296 129.593 92.8776 130.05C93.335 130.498 93.5636 131.128 93.5636 131.94C93.5636 132.155 93.5403 132.425 93.4936 132.752L93.2836 132.976ZM91.9396 131.73C91.9396 131.357 91.8556 131.077 91.6876 130.89C91.5196 130.694 91.2723 130.596 90.9456 130.596C90.5816 130.596 90.2783 130.717 90.0356 130.96C89.793 131.193 89.6296 131.534 89.5456 131.982L91.9116 131.926L91.9396 131.73ZM97.0312 129.378C97.6658 129.378 98.2632 129.485 98.8232 129.7L98.5712 131.072L98.3472 131.142C98.0765 130.965 97.8058 130.829 97.5352 130.736C97.2645 130.643 97.0265 130.596 96.8212 130.596C96.5972 130.596 96.4198 130.657 96.2892 130.778C96.1585 130.89 96.0932 131.03 96.0932 131.198C96.0932 131.394 96.1772 131.553 96.3452 131.674C96.5225 131.795 96.7978 131.931 97.1712 132.08C97.5445 132.229 97.8525 132.374 98.0952 132.514C98.3378 132.654 98.5432 132.85 98.7112 133.102C98.8885 133.345 98.9772 133.648 98.9772 134.012C98.9772 134.385 98.8792 134.735 98.6832 135.062C98.4965 135.379 98.2072 135.641 97.8152 135.846C97.4232 136.042 96.9425 136.14 96.3732 136.14C95.7012 136.14 95.0058 136 94.2872 135.72L94.4972 134.264L94.6792 134.152C94.9685 134.395 95.2905 134.591 95.6452 134.74C95.9998 134.88 96.3125 134.95 96.5832 134.95C96.8352 134.95 97.0312 134.889 97.1712 134.768C97.3112 134.637 97.3812 134.483 97.3812 134.306C97.3812 134.11 97.2925 133.951 97.1152 133.83C96.9472 133.709 96.6765 133.573 96.3032 133.424C95.9205 133.256 95.6078 133.107 95.3652 132.976C95.1225 132.836 94.9125 132.64 94.7352 132.388C94.5672 132.136 94.4832 131.823 94.4832 131.45C94.4832 130.843 94.7118 130.349 95.1692 129.966C95.6265 129.574 96.2472 129.378 97.0312 129.378ZM102.404 129.378C103.039 129.378 103.636 129.485 104.196 129.7L103.944 131.072L103.72 131.142C103.45 130.965 103.179 130.829 102.908 130.736C102.638 130.643 102.4 130.596 102.194 130.596C101.97 130.596 101.793 130.657 101.662 130.778C101.532 130.89 101.466 131.03 101.466 131.198C101.466 131.394 101.55 131.553 101.718 131.674C101.896 131.795 102.171 131.931 102.544 132.08C102.918 132.229 103.226 132.374 103.468 132.514C103.711 132.654 103.916 132.85 104.084 133.102C104.262 133.345 104.35 133.648 104.35 134.012C104.35 134.385 104.252 134.735 104.056 135.062C103.87 135.379 103.58 135.641 103.188 135.846C102.796 136.042 102.316 136.14 101.746 136.14C101.074 136.14 100.379 136 99.6602 135.72L99.8702 134.264L100.052 134.152C100.342 134.395 100.664 134.591 101.018 134.74C101.373 134.88 101.686 134.95 101.956 134.95C102.208 134.95 102.404 134.889 102.544 134.768C102.684 134.637 102.754 134.483 102.754 134.306C102.754 134.11 102.666 133.951 102.488 133.83C102.32 133.709 102.05 133.573 101.676 133.424C101.294 133.256 100.981 133.107 100.738 132.976C100.496 132.836 100.286 132.64 100.108 132.388C99.9402 132.136 99.8562 131.823 99.8562 131.45C99.8562 130.843 100.085 130.349 100.542 129.966C101 129.574 101.62 129.378 102.404 129.378ZM108.155 129.364C108.874 129.364 109.434 129.527 109.835 129.854C110.246 130.171 110.451 130.619 110.451 131.198C110.451 131.366 110.423 131.898 110.367 132.794C110.358 133.055 110.344 133.326 110.325 133.606C110.307 133.877 110.297 134.11 110.297 134.306C110.297 134.465 110.321 134.577 110.367 134.642C110.414 134.698 110.498 134.726 110.619 134.726C110.713 134.726 110.834 134.707 110.983 134.67L111.123 134.782L110.955 135.762C110.657 135.958 110.316 136.075 109.933 136.112C109.653 136.084 109.42 135.986 109.233 135.818C109.047 135.641 108.921 135.398 108.855 135.09H108.757C108.291 135.585 107.81 135.93 107.315 136.126C106.643 136.117 106.116 135.939 105.733 135.594C105.351 135.249 105.159 134.777 105.159 134.18C105.159 133.713 105.276 133.349 105.509 133.088C105.752 132.817 106.116 132.635 106.601 132.542L108.743 132.136V131.562C108.743 130.955 108.445 130.652 107.847 130.652C107.558 130.652 107.25 130.717 106.923 130.848C106.606 130.979 106.247 131.184 105.845 131.464L105.705 131.38L105.495 130.148C105.897 129.896 106.326 129.705 106.783 129.574C107.241 129.434 107.698 129.364 108.155 129.364ZM107.245 133.396C107.096 133.433 106.984 133.499 106.909 133.592C106.844 133.676 106.811 133.807 106.811 133.984C106.811 134.227 106.877 134.418 107.007 134.558C107.138 134.689 107.32 134.754 107.553 134.754C107.917 134.754 108.3 134.539 108.701 134.11L108.729 133.074L107.245 133.396ZM117.765 133.13L117.807 134.306C117.807 134.465 117.826 134.577 117.863 134.642C117.91 134.698 117.989 134.726 118.101 134.726C118.204 134.726 118.33 134.707 118.479 134.67L118.605 134.782L118.451 135.762C118.134 135.958 117.789 136.075 117.415 136.112C117.126 136.084 116.883 135.986 116.687 135.818C116.491 135.65 116.356 135.421 116.281 135.132H116.169C115.712 135.552 115.245 135.874 114.769 136.098C113.855 136.098 113.145 135.809 112.641 135.23C112.137 134.642 111.885 133.83 111.885 132.794C111.885 131.693 112.175 130.848 112.753 130.26C113.332 129.672 114.135 129.378 115.161 129.378C115.432 129.378 115.731 129.406 116.057 129.462L116.029 126.312L117.877 126.172L117.765 133.13ZM115.035 130.638C114.102 130.638 113.635 131.231 113.635 132.416C113.635 133.153 113.747 133.709 113.971 134.082C114.195 134.455 114.522 134.642 114.951 134.642C115.362 134.642 115.74 134.451 116.085 134.068L116.113 133.298L116.071 130.89C115.707 130.722 115.362 130.638 115.035 130.638ZM122.405 129.364C123.357 129.364 124.085 129.644 124.589 130.204C125.093 130.764 125.345 131.571 125.345 132.626C125.345 133.765 125.074 134.637 124.533 135.244C123.991 135.841 123.212 136.14 122.195 136.14C121.243 136.14 120.515 135.86 120.011 135.3C119.507 134.74 119.255 133.933 119.255 132.878C119.255 131.739 119.525 130.871 120.067 130.274C120.608 129.667 121.387 129.364 122.405 129.364ZM122.279 130.624C121.831 130.624 121.504 130.773 121.299 131.072C121.103 131.371 121.005 131.851 121.005 132.514C121.005 133.373 121.107 133.984 121.313 134.348C121.518 134.712 121.854 134.894 122.321 134.894C122.769 134.894 123.091 134.749 123.287 134.46C123.492 134.161 123.595 133.676 123.595 133.004C123.595 132.155 123.487 131.548 123.273 131.184C123.067 130.811 122.736 130.624 122.279 130.624ZM128.805 129.378C129.439 129.378 130.037 129.485 130.597 129.7L130.345 131.072L130.121 131.142C129.85 130.965 129.579 130.829 129.309 130.736C129.038 130.643 128.8 130.596 128.595 130.596C128.371 130.596 128.193 130.657 128.063 130.778C127.932 130.89 127.867 131.03 127.867 131.198C127.867 131.394 127.951 131.553 128.119 131.674C128.296 131.795 128.571 131.931 128.945 132.08C129.318 132.229 129.626 132.374 129.869 132.514C130.111 132.654 130.317 132.85 130.485 133.102C130.662 133.345 130.751 133.648 130.751 134.012C130.751 134.385 130.653 134.735 130.457 135.062C130.27 135.379 129.981 135.641 129.589 135.846C129.197 136.042 128.716 136.14 128.147 136.14C127.475 136.14 126.779 136 126.061 135.72L126.271 134.264L126.453 134.152C126.742 134.395 127.064 134.591 127.419 134.74C127.773 134.88 128.086 134.95 128.357 134.95C128.609 134.95 128.805 134.889 128.945 134.768C129.085 134.637 129.155 134.483 129.155 134.306C129.155 134.11 129.066 133.951 128.889 133.83C128.721 133.709 128.45 133.573 128.077 133.424C127.694 133.256 127.381 133.107 127.139 132.976C126.896 132.836 126.686 132.64 126.509 132.388C126.341 132.136 126.257 131.823 126.257 131.45C126.257 130.843 126.485 130.349 126.943 129.966C127.4 129.574 128.021 129.378 128.805 129.378Z" fill="white"/>
<defs>
<filter id="filter0_b_206:37004" x="3" y="67" width="161" height="97" filterUnits="userSpaceOnUse" color-interpolation-filters="sRGB">
<feFlood flood-opacity="0" result="BackgroundImageFix"/>
<feGaussianBlur in="BackgroundImage" stdDeviation="5"/>
<feComposite in2="SourceAlpha" operator="in" result="effect1_backgroundBlur_206:37004"/>
<feBlend mode="normal" in="SourceGraphic" in2="effect1_backgroundBlur_206:37004" result="shape"/>
</filter>
<linearGradient id="paint0_linear_206:37004" x1="98.8516" y1="52.034" x2="69.901" y2="45.5245" gradientUnits="userSpaceOnUse">
<stop stop-color="white" stop-opacity="0.5"/>
<stop offset="1" stop-color="white" stop-opacity="0"/>
</linearGradient>
</defs>
</svg>
