<svg width="167" height="167" viewBox="0 0 167 167" fill="none" xmlns="http://www.w3.org/2000/svg">
<mask id="mask0_206:37012" style="mask-type:alpha" maskUnits="userSpaceOnUse" x="0" y="0" width="167" height="167">
<rect x="1" y="1" width="165" height="165" rx="8" fill="#5988D6" stroke="#EDE6FC" stroke-opacity="0.3"/>
</mask>
<g mask="url(#mask0_206:37012)">
<rect x="1" y="1" width="165" height="165" rx="8" fill="#D9917A" stroke="#EDE6FC" stroke-opacity="0.3"/>
<path d="M115.98 27.61C115.98 27.61 118.98 33.92 116.92 34.3C114.09 34.82 112.92 29.59 112.92 29.59L115.98 27.61Z" fill="#163342"/>
<path d="M116.52 33.84C116.52 33.84 118.14 32.56 118.83 31.84C119.52 31.12 122.56 26.28 123.18 25.33C123.8 24.38 124.49 22.51 124.91 21.71C125.33 20.91 129.46 14.71 129.46 14.71L131.05 15.38C131.05 15.38 128.2 22.57 127.47 23.77C126.74 24.97 126.02 27.4 125.47 28.46C124.92 29.52 121.89 33.78 121.37 34.76C120.952 35.6885 120.617 36.6523 120.37 37.64C120.37 37.64 115.81 36.47 116.52 33.84Z" fill="#8E4F3A"/>
<path d="M110.58 30.6C110.746 31.8359 110.796 33.0847 110.73 34.33C110.58 35.85 114.9 34.74 114.9 34.74C114.763 33.2402 114.807 31.7294 115.03 30.24C115.38 29.05 110.58 30.6 110.58 30.6Z" fill="#8E4F3A"/>
<path d="M106.25 53.15C106.25 53.15 105.67 54.58 105.25 55.57C104.11 58.0884 103.202 60.706 102.54 63.39C102.04 66.23 101.29 71.39 101.18 72.79C101.022 74.4227 100.614 76.0214 99.97 77.53C98.9734 79.6618 98.2994 81.93 97.97 84.26C97.83 86.43 96.71 96.03 96.71 96.03C96.71 96.03 97.7099 96.88 99.3599 95.71C99.3599 95.71 102.11 86.64 102.79 85.3C103.635 83.367 104.23 81.3339 104.56 79.25C104.66 77.99 105.8 76.57 106.75 73.65C107.7 70.73 111.75 62.31 112.11 60.65C112.11 60.65 112.11 59.91 113.11 60.05L112.47 52.82L106.25 53.15Z" fill="#FAA146"/>
<path d="M118.94 53.21C118.94 53.21 119.57 54.75 119.94 55.73C121.076 58.2515 121.976 60.8727 122.63 63.56C123.13 66.4 123.87 71.56 123.98 72.96C124.135 74.5921 124.539 76.1908 125.18 77.7C126.184 79.8322 126.859 82.1049 127.18 84.44C127.31 86.61 128.43 96.2 128.43 96.2C128.43 96.2 127.43 97.05 125.78 95.88C125.78 95.88 123.05 86.8 122.38 85.47C121.542 83.535 120.951 81.5024 120.62 79.42C120.53 78.16 119.39 76.73 118.43 73.81C117.47 70.89 113.43 62.42 112.88 60.7C112.871 60.6058 112.836 60.5159 112.78 60.44C112.728 60.3566 112.656 60.2878 112.57 60.24C112.489 60.1895 112.395 60.1618 112.3 60.16C112.204 60.1397 112.105 60.1397 112.01 60.16L106.38 52.67L118.94 53.21Z" fill="#FAA146"/>
<path d="M99.62 94.95C99.5321 95.0307 99.4306 95.0951 99.32 95.14C99.2041 95.1794 99.0825 95.1996 98.96 95.2C98.57 95.2 97.38 94.75 96.88 94.98C96.38 95.21 96.22 97.51 95.25 98.12C94.28 98.73 91.38 100.64 91.62 102.12C91.86 103.6 95.88 102.98 96.86 101.7C97.84 100.42 98.78 100.97 99.57 100.06C100.36 99.15 99.54 95.81 99.62 94.95Z" fill="#EB7171"/>
<path d="M125.54 95.14C125.728 95.2959 125.966 95.3777 126.21 95.37C126.6 95.37 127.79 94.92 128.29 95.16C128.79 95.4 128.94 97.69 129.9 98.3C130.86 98.91 133.77 100.82 133.53 102.3C133.29 103.78 129.26 103.15 128.28 101.87C127.3 100.59 126.37 101.13 125.58 100.23C124.79 99.33 125.62 96 125.54 95.14Z" fill="#EB7171"/>
<path d="M109.28 24.76C109.28 24.76 108.89 24.29 108.74 24.76C108.753 25.4767 108.885 26.1863 109.13 26.86C109.13 26.86 109.37 27.65 109.46 27.55C109.453 26.6173 109.393 25.6858 109.28 24.76Z" fill="#8E4F3A"/>
<path d="M116.16 24.82C116.16 24.82 116.56 24.35 116.7 24.82C116.693 25.5373 116.561 26.2479 116.31 26.92C116.31 26.92 116.08 27.71 115.98 27.61C115.987 26.6773 116.047 25.7458 116.16 24.82Z" fill="#8E4F3A"/>
<path d="M113.38 20.24C113.38 20.24 117 20.79 116.47 26.48C115.94 32.17 112.75 31.72 112.53 31.72C112.31 31.72 109.33 31.84 109.07 24.89C109.03 24.89 108.91 19.76 113.38 20.24Z" fill="#8E4F3A"/>
<path d="M109.73 24.55C109.73 24.55 113.73 25.74 115.66 25.36C115.66 25.36 115.78 26.08 116.06 26.11C116.34 26.14 116.48 24.76 116.48 24.76C116.48 24.76 116.57 20.13 112.38 20.09C108.19 20.05 109.04 25.09 109.04 25.09L109.1 25.95C109.1 25.95 109.7 26.2 109.73 24.55Z" fill="#163342"/>
<path d="M111.07 31.17C111.525 31.5305 112.084 31.7349 112.664 31.7529C113.243 31.7709 113.814 31.6016 114.29 31.27C114.113 31.554 113.867 31.7888 113.575 31.9531C113.283 32.1173 112.955 32.2057 112.62 32.21C112.293 32.1886 111.977 32.0812 111.705 31.8985C111.433 31.7159 111.214 31.4646 111.07 31.17Z" fill="#633029"/>
<path d="M114.83 33.19C115.375 33.4527 115.94 33.6702 116.52 33.84C117.952 34.6969 119.275 35.7244 120.46 36.9C120.19 38.1385 119.819 39.3525 119.35 40.53C118.637 43.1232 118.086 45.7583 117.7 48.42C117.84 48.87 119.09 53.35 119.15 53.71C110.45 55.42 105.93 53.95 105.93 53.95C106.535 52.2665 107.007 50.5377 107.34 48.78C107.061 46.4385 106.576 44.1262 105.89 41.87C105.3 40.53 104.32 37.16 104.32 37.16C104.32 37.16 108.12 34.21 108.23 34.01C108.34 33.81 110.23 33.45 110.77 33.2L114.83 33.19Z" fill="#8E4F3A"/>
<path d="M108.48 33.87C107.606 33.2477 106.765 32.5802 105.96 31.87C105.27 31.18 102.23 26.3 101.62 25.35C101.01 24.4 100.31 22.53 99.89 21.73C99.47 20.93 95.34 14.73 95.34 14.73L93.74 15.4C93.74 15.4 96.59 22.59 97.32 23.79C98.05 24.99 98.77 27.42 99.32 28.48C99.87 29.54 102.9 33.8 103.42 34.78C103.838 35.7085 104.173 36.6723 104.42 37.66C104.42 37.66 109.19 36.5 108.48 33.87Z" fill="#8E4F3A"/>
<path d="M116.52 33.84C116.52 33.84 118.36 39.48 118.99 41.84C118.99 41.84 117.99 46.15 117.92 46.84C114.329 46.2424 110.659 46.3034 107.09 47.02C107.09 47.02 105.92 41.95 105.81 41.66C107.088 39.213 107.988 36.5866 108.48 33.87C108.848 33.6455 109.269 33.5246 109.7 33.52C109.7 33.52 109.19 39.15 112.9 39.1C116.61 39.05 115.47 33.47 115.47 33.47C115.831 33.5587 116.183 33.6827 116.52 33.84Z" fill="#FAA146"/>
<path d="M96.25 16.1C96.045 15.7979 95.9022 15.4579 95.83 15.1C95.83 14.79 95.83 14.34 95.83 14.1C95.783 13.5095 95.6859 12.9241 95.54 12.35C95.2982 12.0537 95.0744 11.7432 94.87 11.42C94.8 11.18 94.72 10.68 94.51 10.75C94.3 10.82 94.25 11.29 94.25 11.29C94.2285 11.2305 94.1903 11.1784 94.14 11.14C94.0919 11.1011 94.0319 11.08 93.97 11.08C93.8753 11.0718 93.7801 11.0888 93.6941 11.1292C93.6081 11.1696 93.5342 11.232 93.48 11.31C93.48 11.31 93.26 11.14 93.09 11.19C92.9978 11.2119 92.9099 11.2491 92.83 11.3C92.757 11.3607 92.6931 11.4314 92.64 11.51C92.4962 11.4782 92.3457 11.5033 92.22 11.58C92.1325 11.6208 92.0593 11.687 92.01 11.77C91.9595 11.8549 91.932 11.9513 91.93 12.05C91.93 12.05 91.53 12.16 91.51 12.39C91.5138 12.5914 91.5509 12.7908 91.62 12.98C91.9645 13.9045 92.5191 14.7364 93.24 15.41C93.8017 15.9899 94.2525 16.6677 94.57 17.41L96.25 16.1Z" fill="#8E4F3A"/>
<path d="M95.9601 10.95L90.55 13.49L91.0201 14.49L96.4301 11.95L95.9601 10.95Z" fill="#B85858"/>
<path d="M94.3801 11.39C94.3801 11.39 95.0101 12.66 94.8101 13.1C94.6101 13.54 94.35 13.1 94.35 13.1C94.35 13.1 94.6101 13.54 94.2801 13.79C93.9501 14.04 93.6801 13.5 93.6801 13.5C93.6951 13.5523 93.6951 13.6077 93.6801 13.66C93.6942 13.709 93.6942 13.761 93.6801 13.81C93.6514 13.8567 93.614 13.8974 93.5701 13.93C93.5266 13.9654 93.475 13.9894 93.42 14C93.01 14.12 92.8801 13.62 92.8801 13.62C92.8801 13.62 92.73 14.25 92.3 13.95C92.0737 13.7569 91.8907 13.518 91.7632 13.2492C91.6356 12.9803 91.5664 12.6875 91.5601 12.39C91.5601 12.39 91.56 12.14 91.98 12.05C91.9815 11.9632 92.0029 11.8779 92.0424 11.8006C92.0819 11.7233 92.1386 11.656 92.208 11.6039C92.2775 11.5518 92.3579 11.5163 92.4432 11.5C92.5285 11.4837 92.6163 11.4872 92.7001 11.51C92.7001 11.51 93.1001 10.91 93.5301 11.31C93.5814 11.2413 93.6495 11.187 93.7278 11.1522C93.8062 11.1174 93.8922 11.1034 93.9775 11.1114C94.0629 11.1194 94.1447 11.1493 94.2152 11.1981C94.2857 11.2469 94.3425 11.313 94.3801 11.39Z" fill="#693A2B"/>
<path d="M94.3799 8.25001L94.7699 8.06004C94.9277 8.00009 95.102 8.00009 95.2599 8.06004C95.4175 8.11481 95.547 8.22987 95.6199 8.38001L98.2599 13.82C98.2941 13.8954 98.3119 13.9772 98.3119 14.06C98.3119 14.1428 98.2941 14.2247 98.2599 14.3C98.2055 14.4603 98.0906 14.5931 97.9399 14.67L97.5398 14.86C97.4632 14.8918 97.3824 14.912 97.2999 14.92H97.0599C96.9812 14.8926 96.9095 14.8482 96.8498 14.79C96.7834 14.7416 96.7316 14.6759 96.6999 14.6L94.0499 9.16001C94.0112 9.08587 93.9906 9.00364 93.9899 8.92002C93.9695 8.83793 93.9695 8.75212 93.9899 8.67002C94.0173 8.59136 94.0617 8.51969 94.1199 8.46003C94.1857 8.36755 94.2756 8.29489 94.3799 8.25001Z" fill="#EB7171"/>
<path d="M92.04 17.43L92.73 17.1C92.8413 17.0442 92.926 16.9466 92.9653 16.8285C93.0047 16.7104 92.9956 16.5814 92.94 16.47L90.16 10.74C90.1041 10.6288 90.007 10.5437 89.8895 10.5026C89.7719 10.4616 89.6431 10.4678 89.53 10.52L88.84 10.85C88.7287 10.9058 88.6441 11.0035 88.6047 11.1216C88.5653 11.2397 88.5744 11.3686 88.63 11.48L91.41 17.21C91.4368 17.266 91.4743 17.3161 91.5205 17.3575C91.5667 17.3989 91.6206 17.4308 91.6792 17.4512C91.7378 17.4717 91.7998 17.4803 91.8617 17.4767C91.9236 17.4731 91.9842 17.4572 92.04 17.43Z" fill="#EB7171"/>
<path d="M128.54 16.1C128.74 15.795 128.882 15.4561 128.96 15.1C128.96 14.79 128.96 14.34 128.96 14.1C129.009 13.5104 129.102 12.9253 129.24 12.35C129.489 12.0566 129.716 11.7458 129.92 11.42C129.99 11.18 130.07 10.68 130.28 10.75C130.49 10.82 130.54 11.29 130.54 11.29C130.558 11.2312 130.593 11.179 130.64 11.14C130.688 11.1011 130.748 11.08 130.81 11.08C130.906 11.0711 131.003 11.0876 131.091 11.128C131.179 11.1683 131.254 11.2312 131.31 11.31C131.31 11.31 131.53 11.14 131.69 11.19C131.782 11.2119 131.87 11.2491 131.95 11.3C132.029 11.3573 132.097 11.4284 132.15 11.51C132.294 11.4782 132.444 11.5033 132.57 11.58C132.653 11.6242 132.722 11.6898 132.77 11.77C132.819 11.856 132.85 11.9514 132.86 12.05C132.86 12.05 133.26 12.16 133.28 12.39C133.276 12.5914 133.239 12.7908 133.17 12.98C132.817 13.9004 132.264 14.7305 131.55 15.41C130.988 15.9899 130.538 16.6677 130.22 17.41L128.54 16.1Z" fill="#8E4F3A"/>
<path d="M128.83 10.94L128.36 11.94L133.77 14.48L134.23 13.48L128.83 10.94Z" fill="#B85858"/>
<path d="M130.38 11.39C130.38 11.39 129.75 12.66 129.96 13.1C130.17 13.54 130.41 13.1 130.41 13.1C130.41 13.1 130.15 13.54 130.48 13.79C130.81 14.04 131.08 13.5 131.08 13.5C131.07 13.5528 131.07 13.6072 131.08 13.66C131.074 13.7098 131.074 13.7602 131.08 13.81C131.109 13.8595 131.151 13.9008 131.2 13.93C131.239 13.9667 131.288 13.991 131.34 14C131.76 14.12 131.88 13.62 131.88 13.62C131.88 13.62 132.04 14.25 132.47 13.95C132.694 13.7549 132.875 13.5156 133.003 13.2472C133.13 12.9787 133.201 12.687 133.21 12.39C133.21 12.39 133.21 12.14 132.78 12.05C132.78 11.9636 132.76 11.8784 132.722 11.801C132.684 11.7236 132.628 11.6561 132.559 11.6038C132.49 11.5515 132.41 11.5158 132.326 11.4996C132.241 11.4833 132.153 11.4869 132.07 11.51C132.07 11.51 131.66 10.91 131.23 11.31C131.179 11.2413 131.111 11.187 131.032 11.1522C130.954 11.1174 130.868 11.1034 130.783 11.1114C130.697 11.1194 130.615 11.1493 130.545 11.1981C130.474 11.2469 130.418 11.313 130.38 11.39Z" fill="#693A2B"/>
<path d="M130.38 8.25L129.98 8.06002C129.825 8.00074 129.655 8.00074 129.5 8.06002C129.342 8.11792 129.21 8.23173 129.13 8.38L126.48 13.82C126.42 13.9743 126.42 14.1457 126.48 14.3C126.541 14.4595 126.659 14.5911 126.81 14.67L127.2 14.86C127.358 14.92 127.532 14.92 127.69 14.86C127.848 14.8052 127.977 14.6901 128.05 14.54L130.69 9.1C130.724 9.02463 130.742 8.94281 130.742 8.86001C130.742 8.77722 130.724 8.69539 130.69 8.62002C130.665 8.541 130.625 8.46763 130.572 8.40414C130.519 8.34065 130.453 8.28826 130.38 8.25Z" fill="#EB7171"/>
<path d="M135.95 10.86L135.26 10.53C135.203 10.5052 135.142 10.4924 135.08 10.4924C135.018 10.4924 134.957 10.5052 134.9 10.53C134.783 10.5685 134.686 10.651 134.63 10.76L131.85 16.5C131.805 16.6123 131.805 16.7377 131.85 16.85C131.87 16.9089 131.901 16.9631 131.942 17.0096C131.984 17.056 132.034 17.0935 132.09 17.12L132.78 17.46C132.896 17.5047 133.024 17.5047 133.14 17.46C133.256 17.4149 133.352 17.3297 133.41 17.22L136.19 11.5C136.216 11.4429 136.233 11.3822 136.24 11.32C136.25 11.257 136.25 11.193 136.24 11.13C136.22 11.0717 136.189 11.0175 136.15 10.97C136.091 10.9204 136.023 10.8831 135.95 10.86Z" fill="#EB7171"/>
<path d="M35.9999 94.52C35.5104 95.3661 34.8816 96.1234 34.1399 96.76C33.3499 97.21 30.5799 99.03 30.1399 100.07C29.8099 100.81 30.1399 101.7 32.9199 101.22C35.6999 100.74 35.6199 98.72 37.6399 98.15C38.9899 97.76 39.1399 97.54 39.1399 96.61C39.1399 96.35 38.8299 95.7 38.9399 95.22C39.0499 94.74 35.9999 94.52 35.9999 94.52Z" fill="#8E4F3A"/>
<path d="M79.6999 96.49C80.1706 97.2796 80.7765 97.9803 81.4899 98.56C82.2799 99.01 85.0499 100.83 85.4899 101.87C85.8199 102.61 85.4899 103.5 82.6999 103.03C79.9099 102.56 79.9999 100.52 77.9899 99.95C76.6399 99.56 76.4799 99.34 76.4899 98.41C76.4899 98.15 76.9299 97.31 76.8199 96.83C76.7099 96.35 79.6999 96.49 79.6999 96.49Z" fill="#8E4F3A"/>
<path d="M48.5901 41.14C48.5901 41.14 47.27 40.66 47.38 40.04C48.2951 37.8503 49.4134 35.7511 50.7201 33.77C52.4699 31.7138 53.927 29.4254 55.05 26.97C55.34 26.06 64.11 16.27 64.5 15.78L65.99 16.88C65.99 16.88 60.4601 26.57 59.5901 27.76C58.7201 28.95 55.5401 36.09 55.2101 36.36C54.8801 36.63 48.5901 41.14 48.5901 41.14Z" fill="#E55353"/>
<path d="M65.99 16.88C65.99 16.88 66.52 16.08 67.09 16.03C67.9526 15.9961 68.8023 15.8099 69.6 15.48C69.74 15.21 69.54 15 69.24 15.03C68.94 15.06 67.49 15.17 67.5 15.03C67.59 13.5 71.01 11.03 71.02 10.78C71.0353 10.7176 71.0353 10.6524 71.02 10.59C70.9953 10.5264 70.9579 10.4686 70.91 10.42C70.8646 10.3755 70.8099 10.3414 70.75 10.32C70.6882 10.3001 70.6218 10.3001 70.56 10.32C69.3848 10.8538 68.277 11.5252 67.26 12.32C66.1317 13.3065 65.2047 14.5017 64.53 15.84L65.99 16.88Z" fill="#8E4F3A"/>
<path d="M54.69 56.33C54.69 56.33 54 57.66 53.69 58.08C53.38 58.5 45.61 70.77 44.69 72.85C43.77 74.93 43.18 76.03 42.69 76.85C42.33 77.51 40.82 81.6 39.69 84.85C38.56 88.1 36.2399 93.75 35.8499 94.42C35.4599 95.09 39.0499 95.14 39.0499 95.14C39.0499 95.14 43.58 87.49 44.7 86.05C45.953 84.3309 46.8691 82.39 47.4 80.33C47.76 78.63 52.46 74.16 53.4 72.66C54.34 71.16 57.94 66.1 58.56 64.99C58.7492 64.6959 59.0175 64.461 59.3341 64.3125C59.6507 64.1639 60.0028 64.1076 60.3499 64.15L61.2899 57.81L54.69 56.33Z" fill="#FAA146"/>
<path d="M66.7599 56.23C66.7599 56.23 67.2599 57.65 67.4799 58.1C67.6999 58.55 72.0599 67.22 72.7499 69.67C73.3599 71.84 74.9799 77.19 75.3699 78.31C75.6099 79.02 76.7599 83.17 77.3699 86.56C77.9799 89.95 79.5899 95.62 79.8799 96.34C80.1699 97.06 76.6599 97.23 76.6599 97.23C76.6599 97.23 73.1399 88.64 72.2399 87.05C71.252 85.1846 70.6276 83.1485 70.3999 81.05C70.2899 79.31 66.6199 73.77 65.6099 72.45C64.5999 71.13 62.2299 65.79 61.3299 64.88C60.4299 63.97 59.8499 64.05 59.8499 64.05V56.81L66.7599 56.23Z" fill="#FAA146"/>
<path d="M42.45 47.25C42.45 47.25 41.23 46.55 40.81 47.03C39.6937 49.1231 38.7666 51.3118 38.04 53.57C37.5483 56.213 36.69 58.7744 35.49 61.18C34.95 61.98 32.89 74.86 32.76 75.47L34.57 75.89C34.57 75.89 38.57 65.53 39 64.1C39.43 62.67 42.94 55.72 42.94 55.3C42.94 54.88 42.45 47.25 42.45 47.25Z" fill="#E55353"/>
<path d="M41.3101 43.98C41.3101 43.98 40.09 46.44 39.86 46.98C39.035 49.0967 38.4252 51.2911 38.04 53.53C39.3363 54.7549 40.8179 55.7673 42.4301 56.53C42.4301 56.53 44.29 53.32 44.48 53.22C46.2919 54.3609 47.9692 55.7028 49.48 57.22C50.28 58.09 50.4801 61.95 50.8201 62.54C51.1601 63.13 65.4001 59.41 66.8201 56.17C66.8201 56.17 62.9901 49.97 62.3901 49.09C61.7901 48.21 55.5501 39.98 55.1901 39.52C54.8301 39.06 55.7201 35.44 55.7201 35.44C55.7201 35.44 53.35 32.96 51.48 32.88C51.48 32.88 48.9901 35.4 48.5601 35.69C47.0464 36.8407 45.6646 38.1554 44.4401 39.61C43.7401 40.74 41.3101 43.98 41.3101 43.98Z" fill="#E55353"/>
<path d="M34.5699 75.89C34.5699 75.89 34.2799 76.8 34.5699 77.26C34.8599 77.72 35.8499 79.26 35.7399 79.51C35.6299 79.76 35.33 79.76 35.15 79.51C34.97 79.26 34.15 78.09 34.02 78.21C32.88 79.26 33.1399 83.4 32.9399 83.59C32.8929 83.6325 32.8388 83.6663 32.78 83.69C32.717 83.6996 32.6529 83.6996 32.59 83.69C32.5237 83.6807 32.4595 83.6604 32.4 83.63C32.3417 83.6015 32.2905 83.5605 32.2499 83.51C31.9197 82.2761 31.7384 81.007 31.71 79.73C31.7654 78.2459 32.1049 76.7863 32.71 75.43L34.5699 75.89Z" fill="#8E4F3A"/>
<path d="M39.28 42.45C40.2009 42.8309 41.0096 43.4401 41.63 44.22C41.8757 44.4785 42.1767 44.678 42.5106 44.8035C42.8444 44.929 43.2023 44.9772 43.5574 44.9445C43.9126 44.9117 44.2556 44.799 44.5609 44.6146C44.8662 44.4302 45.1257 44.1791 45.32 43.88C45.5563 43.6161 45.7333 43.3047 45.8392 42.9667C45.945 42.6287 45.9772 42.2719 45.9337 41.9204C45.8901 41.5689 45.7717 41.2308 45.5865 40.9288C45.4013 40.6269 45.1536 40.3682 44.86 40.17C44.86 40.17 43.72 40.24 41.86 38.54C40 36.84 39.28 42.45 39.28 42.45Z" fill="#8E4F3A"/>
<path d="M31.6999 35.67C31.6999 35.67 30.2199 39 35.4399 41.67C40.6599 44.34 41.9999 41.42 42.1199 41.23C42.2399 41.04 43.9599 38.62 38.1199 34.62C38.0899 34.56 33.6999 31.67 31.6999 35.67Z" fill="#8E4F3A"/>
<path d="M34.0201 40.77C34.0201 40.77 33.4301 40.87 33.7201 41.23C34.4806 41.6328 35.2959 41.9226 36.14 42.09C36.14 42.09 36.32 42.09 36.3 42C35.5656 41.5442 34.8043 41.1334 34.0201 40.77Z" fill="#8E4F3A"/>
<path d="M37.9901 34.6C37.9901 34.6 37.8301 34.04 38.2901 34.15C38.7501 34.26 40.0801 35.86 40.1201 35.92C40.1601 35.98 40.2301 36.07 40.1201 36.1C39.3816 35.6417 38.6704 35.1409 37.9901 34.6Z" fill="#8E4F3A"/>
<path d="M34.7699 41.25L35.6599 41.2C35.143 40.8979 34.6453 40.564 34.1699 40.2C34.0099 40 33.6199 39.95 33.4999 39.8C33.3799 39.65 33.7299 35.73 37.0299 34.63C37.0299 34.63 37.6099 35.35 37.8299 35.19C38.0499 35.03 39.4499 36.06 39.4499 36.06L39.2699 35.44C39.2699 35.44 37.0299 33.44 36.5899 33.23C36.1499 33.02 33.5399 31.11 30.9399 36.01C30.6411 36.5712 30.5093 37.2063 30.5599 37.84C30.5701 38.2519 30.6824 38.6547 30.8866 39.0125C31.0907 39.3702 31.3805 39.6718 31.7299 39.89C32.7199 40.38 33.7399 40.84 34.7699 41.25Z" fill="#434343"/>
<path d="M42.3801 39.1C42.3801 39.1 43.0901 41.46 40.0901 42.57C40.5561 42.6138 41.0257 42.5398 41.4556 42.3545C41.8855 42.1693 42.2619 41.8788 42.55 41.51C42.7884 41.1447 42.9007 40.7115 42.8701 40.2764C42.8394 39.8413 42.6673 39.4282 42.3801 39.1Z" fill="#633029"/>
</g>
<g filter="url(#filter0_b_206:37012)">
<rect x="13" y="77" width="141" height="77" rx="10" fill="black" fill-opacity="0.8"/>
</g>
<path d="M41.3942 117.144L41.4502 120H39.5602L39.6442 117.312L39.6302 116.262L37.6002 116.248L35.7662 116.276L35.7522 117.144L35.8222 120H33.9322L34.0302 117.312L33.9322 110.984H35.8502L35.7942 114.708L37.7262 114.736L39.6162 114.708L39.5602 110.984H41.4922L41.3942 117.144ZM45.7295 113.364C46.4481 113.364 47.0081 113.527 47.4095 113.854C47.8201 114.171 48.0255 114.619 48.0255 115.198C48.0255 115.366 47.9975 115.898 47.9415 116.794C47.9321 117.055 47.9181 117.326 47.8995 117.606C47.8808 117.877 47.8715 118.11 47.8715 118.306C47.8715 118.465 47.8948 118.577 47.9415 118.642C47.9881 118.698 48.0721 118.726 48.1935 118.726C48.2868 118.726 48.4081 118.707 48.5575 118.67L48.6975 118.782L48.5295 119.762C48.2308 119.958 47.8901 120.075 47.5075 120.112C47.2275 120.084 46.9941 119.986 46.8075 119.818C46.6208 119.641 46.4948 119.398 46.4295 119.09H46.3315C45.8648 119.585 45.3841 119.93 44.8895 120.126C44.2175 120.117 43.6901 119.939 43.3075 119.594C42.9248 119.249 42.7335 118.777 42.7335 118.18C42.7335 117.713 42.8501 117.349 43.0835 117.088C43.3261 116.817 43.6901 116.635 44.1755 116.542L46.3175 116.136V115.562C46.3175 114.955 46.0188 114.652 45.4215 114.652C45.1321 114.652 44.8241 114.717 44.4975 114.848C44.1801 114.979 43.8208 115.184 43.4195 115.464L43.2795 115.38L43.0695 114.148C43.4708 113.896 43.9001 113.705 44.3575 113.574C44.8148 113.434 45.2721 113.364 45.7295 113.364ZM44.8195 117.396C44.6701 117.433 44.5581 117.499 44.4835 117.592C44.4181 117.676 44.3855 117.807 44.3855 117.984C44.3855 118.227 44.4508 118.418 44.5815 118.558C44.7121 118.689 44.8941 118.754 45.1275 118.754C45.4915 118.754 45.8741 118.539 46.2755 118.11L46.3035 117.074L44.8195 117.396ZM46.9475 109.878L47.6195 110.886L47.5915 111.068C47.3861 111.199 47.2321 111.292 47.1295 111.348C45.9628 112.067 45.2068 112.524 44.8615 112.72L44.6795 112.706L44.2315 112.006C45.3141 111.138 46.1588 110.424 46.7655 109.864L46.9475 109.878ZM53.4217 113.406C54.243 113.406 54.8684 113.686 55.2977 114.246C55.7364 114.797 55.9557 115.567 55.9557 116.556C55.9557 117.704 55.671 118.591 55.1017 119.216C54.5324 119.832 53.7437 120.14 52.7357 120.14C52.2597 120.14 51.737 120.033 51.1677 119.818L50.1877 120.168L49.9637 119.986L50.0617 117.326L49.9777 110.312L51.8257 110.172L51.7697 114.414H51.8537C52.115 114.162 52.367 113.961 52.6097 113.812C52.8524 113.653 53.123 113.518 53.4217 113.406ZM52.7357 118.922C53.2024 118.922 53.5664 118.754 53.8277 118.418C54.089 118.082 54.2197 117.569 54.2197 116.878C54.2197 116.234 54.1124 115.744 53.8977 115.408C53.6924 115.072 53.3797 114.904 52.9597 114.904C52.577 114.904 52.1757 115.1 51.7557 115.492L51.7277 117.088L51.7557 118.67C52.101 118.838 52.4277 118.922 52.7357 118.922ZM57.3618 117.312L57.2918 113.616L59.1258 113.462L59.0418 117.13L59.1258 120H57.2638L57.3618 117.312ZM58.2438 110.298C58.5332 110.298 58.7572 110.382 58.9158 110.55C59.0838 110.718 59.1678 110.951 59.1678 111.25C59.1678 111.567 59.0792 111.819 58.9018 112.006C58.7245 112.193 58.4818 112.286 58.1738 112.286C57.8658 112.286 57.6278 112.202 57.4598 112.034C57.3012 111.866 57.2218 111.628 57.2218 111.32C57.2218 111.012 57.3105 110.765 57.4878 110.578C57.6745 110.391 57.9265 110.298 58.2438 110.298ZM63.5182 118.628C63.8169 118.628 64.1296 118.549 64.4562 118.39L64.6102 118.53L64.4282 119.636C63.9522 119.879 63.4669 120.028 62.9722 120.084C61.7122 119.953 61.0822 119.337 61.0822 118.236L61.1522 117.074L61.1382 114.666H60.2702L60.2002 114.568L60.2982 113.546H61.1242V112.468L62.8182 111.922L62.9442 112.034L62.9022 113.546H64.5682L64.6242 113.644L64.5402 114.666H62.8742L62.7902 117.802C62.7902 118.101 62.8462 118.315 62.9582 118.446C63.0702 118.567 63.2569 118.628 63.5182 118.628ZM68.223 113.364C69.175 113.364 69.903 113.644 70.407 114.204C70.911 114.764 71.163 115.571 71.163 116.626C71.163 117.765 70.8923 118.637 70.351 119.244C69.8097 119.841 69.0303 120.14 68.013 120.14C67.061 120.14 66.333 119.86 65.829 119.3C65.325 118.74 65.073 117.933 65.073 116.878C65.073 115.739 65.3437 114.871 65.885 114.274C66.4263 113.667 67.2057 113.364 68.223 113.364ZM68.097 114.624C67.649 114.624 67.3223 114.773 67.117 115.072C66.921 115.371 66.823 115.851 66.823 116.514C66.823 117.373 66.9257 117.984 67.131 118.348C67.3363 118.712 67.6723 118.894 68.139 118.894C68.587 118.894 68.909 118.749 69.105 118.46C69.3103 118.161 69.413 117.676 69.413 117.004C69.413 116.155 69.3057 115.548 69.091 115.184C68.8857 114.811 68.5543 114.624 68.097 114.624ZM74.623 113.378C75.2576 113.378 75.855 113.485 76.415 113.7L76.163 115.072L75.939 115.142C75.6683 114.965 75.3976 114.829 75.127 114.736C74.8563 114.643 74.6183 114.596 74.413 114.596C74.189 114.596 74.0116 114.657 73.881 114.778C73.7503 114.89 73.685 115.03 73.685 115.198C73.685 115.394 73.769 115.553 73.937 115.674C74.1143 115.795 74.3896 115.931 74.763 116.08C75.1363 116.229 75.4443 116.374 75.687 116.514C75.9296 116.654 76.135 116.85 76.303 117.102C76.4803 117.345 76.569 117.648 76.569 118.012C76.569 118.385 76.471 118.735 76.275 119.062C76.0883 119.379 75.799 119.641 75.407 119.846C75.015 120.042 74.5343 120.14 73.965 120.14C73.293 120.14 72.5976 120 71.879 119.72L72.089 118.264L72.271 118.152C72.5603 118.395 72.8823 118.591 73.237 118.74C73.5916 118.88 73.9043 118.95 74.175 118.95C74.427 118.95 74.623 118.889 74.763 118.768C74.903 118.637 74.973 118.483 74.973 118.306C74.973 118.11 74.8843 117.951 74.707 117.83C74.539 117.709 74.2683 117.573 73.895 117.424C73.5123 117.256 73.1996 117.107 72.957 116.976C72.7143 116.836 72.5043 116.64 72.327 116.388C72.159 116.136 72.075 115.823 72.075 115.45C72.075 114.843 72.3036 114.349 72.761 113.966C73.2183 113.574 73.839 113.378 74.623 113.378ZM82.1151 113.378C82.7498 113.378 83.3471 113.485 83.9071 113.7L83.6551 115.072L83.4311 115.142C83.1605 114.965 82.8898 114.829 82.6191 114.736C82.3485 114.643 82.1105 114.596 81.9051 114.596C81.6811 114.596 81.5038 114.657 81.3731 114.778C81.2425 114.89 81.1771 115.03 81.1771 115.198C81.1771 115.394 81.2611 115.553 81.4291 115.674C81.6065 115.795 81.8818 115.931 82.2551 116.08C82.6285 116.229 82.9365 116.374 83.1791 116.514C83.4218 116.654 83.6271 116.85 83.7951 117.102C83.9725 117.345 84.0611 117.648 84.0611 118.012C84.0611 118.385 83.9631 118.735 83.7671 119.062C83.5805 119.379 83.2911 119.641 82.8991 119.846C82.5071 120.042 82.0265 120.14 81.4571 120.14C80.7851 120.14 80.0898 120 79.3711 119.72L79.5811 118.264L79.7631 118.152C80.0525 118.395 80.3745 118.591 80.7291 118.74C81.0838 118.88 81.3965 118.95 81.6671 118.95C81.9191 118.95 82.1151 118.889 82.2551 118.768C82.3951 118.637 82.4651 118.483 82.4651 118.306C82.4651 118.11 82.3765 117.951 82.1991 117.83C82.0311 117.709 81.7605 117.573 81.3871 117.424C81.0045 117.256 80.6918 117.107 80.4491 116.976C80.2065 116.836 79.9965 116.64 79.8191 116.388C79.6511 116.136 79.5671 115.823 79.5671 115.45C79.5671 114.843 79.7958 114.349 80.2531 113.966C80.7105 113.574 81.3311 113.378 82.1151 113.378ZM87.8662 113.364C88.5849 113.364 89.1449 113.527 89.5462 113.854C89.9569 114.171 90.1622 114.619 90.1622 115.198C90.1622 115.366 90.1342 115.898 90.0782 116.794C90.0689 117.055 90.0549 117.326 90.0362 117.606C90.0175 117.877 90.0082 118.11 90.0082 118.306C90.0082 118.465 90.0315 118.577 90.0782 118.642C90.1249 118.698 90.2089 118.726 90.3302 118.726C90.4235 118.726 90.5449 118.707 90.6942 118.67L90.8342 118.782L90.6662 119.762C90.3675 119.958 90.0269 120.075 89.6442 120.112C89.3642 120.084 89.1309 119.986 88.9442 119.818C88.7575 119.641 88.6315 119.398 88.5662 119.09H88.4682C88.0015 119.585 87.5209 119.93 87.0262 120.126C86.3542 120.117 85.8269 119.939 85.4442 119.594C85.0615 119.249 84.8702 118.777 84.8702 118.18C84.8702 117.713 84.9869 117.349 85.2202 117.088C85.4629 116.817 85.8269 116.635 86.3122 116.542L88.4542 116.136V115.562C88.4542 114.955 88.1555 114.652 87.5582 114.652C87.2689 114.652 86.9609 114.717 86.6342 114.848C86.3169 114.979 85.9575 115.184 85.5562 115.464L85.4162 115.38L85.2062 114.148C85.6075 113.896 86.0369 113.705 86.4942 113.574C86.9515 113.434 87.4089 113.364 87.8662 113.364ZM86.9562 117.396C86.8069 117.433 86.6949 117.499 86.6202 117.592C86.5549 117.676 86.5222 117.807 86.5222 117.984C86.5222 118.227 86.5875 118.418 86.7182 118.558C86.8489 118.689 87.0309 118.754 87.2642 118.754C87.6282 118.754 88.0109 118.539 88.4122 118.11L88.4402 117.074L86.9562 117.396ZM98.2604 118.782L98.0924 119.762C97.7471 119.986 97.3924 120.103 97.0284 120.112C96.7578 120.065 96.5338 119.958 96.3564 119.79C96.1791 119.622 96.0438 119.379 95.9504 119.062H95.8244C95.2924 119.585 94.7418 119.925 94.1724 120.084C93.4631 120.084 92.9218 119.925 92.5484 119.608C92.1844 119.281 92.0071 118.815 92.0164 118.208L92.0444 116.556L91.9744 113.616L93.7804 113.462L93.7384 117.592C93.7291 117.919 93.7944 118.166 93.9344 118.334C94.0744 118.502 94.2844 118.586 94.5644 118.586C94.9751 118.586 95.3811 118.404 95.7824 118.04V113.616L97.5604 113.462L97.4344 118.306C97.4344 118.455 97.4578 118.563 97.5044 118.628C97.5604 118.693 97.6444 118.726 97.7564 118.726C97.8591 118.726 97.9851 118.707 98.1344 118.67L98.2604 118.782ZM104.791 117.13L104.833 118.306C104.833 118.465 104.852 118.577 104.889 118.642C104.936 118.698 105.015 118.726 105.127 118.726C105.23 118.726 105.356 118.707 105.505 118.67L105.631 118.782L105.477 119.762C105.16 119.958 104.814 120.075 104.441 120.112C104.152 120.084 103.909 119.986 103.713 119.818C103.517 119.65 103.382 119.421 103.307 119.132H103.195C102.738 119.552 102.271 119.874 101.795 120.098C100.88 120.098 100.171 119.809 99.6669 119.23C99.1629 118.642 98.9109 117.83 98.9109 116.794C98.9109 115.693 99.2002 114.848 99.7789 114.26C100.358 113.672 101.16 113.378 102.187 113.378C102.458 113.378 102.756 113.406 103.083 113.462L103.055 110.312L104.903 110.172L104.791 117.13ZM102.061 114.638C101.128 114.638 100.661 115.231 100.661 116.416C100.661 117.153 100.773 117.709 100.997 118.082C101.221 118.455 101.548 118.642 101.977 118.642C102.388 118.642 102.766 118.451 103.111 118.068L103.139 117.298L103.097 114.89C102.733 114.722 102.388 114.638 102.061 114.638ZM109.29 113.364C110.009 113.364 110.569 113.527 110.97 113.854C111.381 114.171 111.586 114.619 111.586 115.198C111.586 115.366 111.558 115.898 111.502 116.794C111.493 117.055 111.479 117.326 111.46 117.606C111.441 117.877 111.432 118.11 111.432 118.306C111.432 118.465 111.455 118.577 111.502 118.642C111.549 118.698 111.633 118.726 111.754 118.726C111.847 118.726 111.969 118.707 112.118 118.67L112.258 118.782L112.09 119.762C111.791 119.958 111.451 120.075 111.068 120.112C110.788 120.084 110.555 119.986 110.368 119.818C110.181 119.641 110.055 119.398 109.99 119.09H109.892C109.425 119.585 108.945 119.93 108.45 120.126C107.778 120.117 107.251 119.939 106.868 119.594C106.485 119.249 106.294 118.777 106.294 118.18C106.294 117.713 106.411 117.349 106.644 117.088C106.887 116.817 107.251 116.635 107.736 116.542L109.878 116.136V115.562C109.878 114.955 109.579 114.652 108.982 114.652C108.693 114.652 108.385 114.717 108.058 114.848C107.741 114.979 107.381 115.184 106.98 115.464L106.84 115.38L106.63 114.148C107.031 113.896 107.461 113.705 107.918 113.574C108.375 113.434 108.833 113.364 109.29 113.364ZM108.38 117.396C108.231 117.433 108.119 117.499 108.044 117.592C107.979 117.676 107.946 117.807 107.946 117.984C107.946 118.227 108.011 118.418 108.142 118.558C108.273 118.689 108.455 118.754 108.688 118.754C109.052 118.754 109.435 118.539 109.836 118.11L109.864 117.074L108.38 117.396ZM110.508 109.878L111.18 110.886L111.152 111.068C110.947 111.199 110.793 111.292 110.69 111.348C109.523 112.067 108.767 112.524 108.422 112.72L108.24 112.706L107.792 112.006C108.875 111.138 109.719 110.424 110.326 109.864L110.508 109.878ZM114.591 114.526L115.571 118.25H115.669L116.845 114.624L117.083 113.49H118.707L116.523 120H114.521L112.673 113.532L114.409 113.448L114.591 114.526ZM124.483 116.976L120.703 117.004C120.787 118.171 121.38 118.754 122.481 118.754C123.06 118.754 123.704 118.591 124.413 118.264L124.567 118.362L124.287 119.748C123.578 120.009 122.91 120.14 122.285 120.14C121.258 120.14 120.451 119.841 119.863 119.244C119.284 118.647 118.995 117.821 118.995 116.766C118.995 115.721 119.28 114.895 119.849 114.288C120.418 113.672 121.188 113.364 122.159 113.364C122.99 113.364 123.629 113.593 124.077 114.05C124.534 114.498 124.763 115.128 124.763 115.94C124.763 116.155 124.74 116.425 124.693 116.752L124.483 116.976ZM123.139 115.73C123.139 115.357 123.055 115.077 122.887 114.89C122.719 114.694 122.472 114.596 122.145 114.596C121.781 114.596 121.478 114.717 121.235 114.96C120.992 115.193 120.829 115.534 120.745 115.982L123.111 115.926L123.139 115.73ZM126.172 117.312L126.102 113.616L127.936 113.462L127.852 117.13L127.936 120H126.074L126.172 117.312ZM127.054 110.298C127.344 110.298 127.568 110.382 127.726 110.55C127.894 110.718 127.978 110.951 127.978 111.25C127.978 111.567 127.89 111.819 127.712 112.006C127.535 112.193 127.292 112.286 126.984 112.286C126.676 112.286 126.438 112.202 126.27 112.034C126.112 111.866 126.032 111.628 126.032 111.32C126.032 111.012 126.121 110.765 126.298 110.578C126.485 110.391 126.737 110.298 127.054 110.298ZM131.881 113.378C132.515 113.378 133.113 113.485 133.673 113.7L133.421 115.072L133.197 115.142C132.926 114.965 132.655 114.829 132.385 114.736C132.114 114.643 131.876 114.596 131.671 114.596C131.447 114.596 131.269 114.657 131.139 114.778C131.008 114.89 130.943 115.03 130.943 115.198C130.943 115.394 131.027 115.553 131.195 115.674C131.372 115.795 131.647 115.931 132.021 116.08C132.394 116.229 132.702 116.374 132.945 116.514C133.187 116.654 133.393 116.85 133.561 117.102C133.738 117.345 133.827 117.648 133.827 118.012C133.827 118.385 133.729 118.735 133.533 119.062C133.346 119.379 133.057 119.641 132.665 119.846C132.273 120.042 131.792 120.14 131.223 120.14C130.551 120.14 129.855 120 129.137 119.72L129.347 118.264L129.529 118.152C129.818 118.395 130.14 118.591 130.495 118.74C130.849 118.88 131.162 118.95 131.433 118.95C131.685 118.95 131.881 118.889 132.021 118.768C132.161 118.637 132.231 118.483 132.231 118.306C132.231 118.11 132.142 117.951 131.965 117.83C131.797 117.709 131.526 117.573 131.153 117.424C130.77 117.256 130.457 117.107 130.215 116.976C129.972 116.836 129.762 116.64 129.585 116.388C129.417 116.136 129.333 115.823 129.333 115.45C129.333 114.843 129.561 114.349 130.019 113.966C130.476 113.574 131.097 113.378 131.881 113.378Z" fill="white"/>
<defs>
<filter id="filter0_b_206:37012" x="3" y="67" width="161" height="97" filterUnits="userSpaceOnUse" color-interpolation-filters="sRGB">
<feFlood flood-opacity="0" result="BackgroundImageFix"/>
<feGaussianBlur in="BackgroundImage" stdDeviation="5"/>
<feComposite in2="SourceAlpha" operator="in" result="effect1_backgroundBlur_206:37012"/>
<feBlend mode="normal" in="SourceGraphic" in2="effect1_backgroundBlur_206:37012" result="shape"/>
</filter>
</defs>
</svg>
