<svg width="167" height="167" viewBox="0 0 167 167" fill="none" xmlns="http://www.w3.org/2000/svg">
<mask id="mask0_206:36924" style="mask-type:alpha" maskUnits="userSpaceOnUse" x="0" y="0" width="167" height="167">
<rect x="1" y="1" width="165" height="165" rx="8" fill="#5988D6" stroke="#EDE6FC" stroke-opacity="0.3"/>
</mask>
<g mask="url(#mask0_206:36924)">
<rect x="1" y="1" width="165" height="165" rx="8" fill="#CEE2F2" stroke="#EDE6FC" stroke-opacity="0.3"/>
<path d="M69.2359 44.5762L64.4658 36.426C67.2829 31.7123 68.2351 26.1153 67.1352 20.7353C66.0352 15.3552 62.9627 10.5811 58.5216 7.35133C54.0805 4.12156 48.5919 2.6697 43.1347 3.28112C37.6775 3.89254 32.6463 6.52303 29.0301 10.6555C25.4138 14.7881 23.474 20.1237 23.592 25.6138C23.7099 31.1039 25.8771 36.3514 29.6675 40.3248C33.4579 44.2982 38.5974 46.7101 44.0758 47.0866C49.5543 47.4631 54.9754 45.7769 59.2737 42.3593L69.2359 44.5762Z" fill="#FAFAFA"/>
<path d="M69.2354 44.576L59.2561 42.4106C59.2448 42.4081 59.2349 42.4014 59.2285 42.3918C59.2221 42.3822 59.2197 42.3705 59.2217 42.3591L59.2835 42.4209C57.9041 43.5195 56.3997 44.4513 54.8017 45.1971C51.8383 46.5758 48.6019 47.2679 45.3338 47.2218C44.0999 47.2142 42.869 47.0993 41.655 46.8786C37.3588 46.0986 33.3903 44.0623 30.2513 41.0272C27.1122 37.992 24.9436 34.0942 24.0196 29.8266C23.3411 26.6035 23.3786 23.2706 24.1295 20.0635C24.9332 16.7086 26.5129 13.5891 28.7416 10.9559C29.3148 10.2793 29.9254 9.63544 30.5707 9.02728C31.2165 8.43178 31.896 7.87379 32.6057 7.35605C34.0014 6.32884 35.5167 5.47496 37.1183 4.81318C38.6832 4.15992 40.3184 3.69009 41.9913 3.41306C43.6232 3.14899 45.2792 3.06498 46.9295 3.16255C50.0996 3.34678 53.1914 4.22044 55.9891 5.72258C59.5661 7.62716 62.5464 10.4843 64.6002 13.9777C66.654 17.4712 67.7012 21.4647 67.6259 25.5165C67.5942 27.6122 67.2614 29.6925 66.6376 31.6935C66.1132 33.3553 65.3969 34.9504 64.5031 36.4463V36.4052L69.2354 44.576L64.431 36.4463C64.4277 36.44 64.426 36.4329 64.426 36.4257C64.426 36.4186 64.4277 36.4115 64.431 36.4052C65.3163 34.9121 66.0235 33.3203 66.5381 31.6626C67.1542 29.6698 67.4801 27.5987 67.5058 25.513C67.5333 23.1181 67.1741 20.7345 66.442 18.4541C64.6824 13.0644 60.911 8.56159 55.9136 5.88387C53.1349 4.39668 50.0656 3.53247 46.9192 3.35129C45.2815 3.25555 43.6382 3.33956 42.0188 3.6018C40.361 3.87307 38.7398 4.33364 37.187 4.97447C35.6041 5.63463 34.1063 6.48262 32.7258 7.50018C32.0221 8.01349 31.3494 8.5681 30.7114 9.16111C30.0691 9.76185 29.4629 10.4001 28.896 11.0726C26.688 13.6764 25.1213 16.7617 24.3216 20.0807C23.5705 23.2655 23.5306 26.5767 24.2049 29.7786C25.1168 34.0189 27.2667 37.8931 30.3824 40.9103C33.498 43.9276 37.4392 45.9522 41.7065 46.7276C44.0543 47.1428 46.453 47.1834 48.8135 46.8477C50.8768 46.5464 52.8864 45.9513 54.7811 45.0804C56.3709 44.3437 57.8682 43.4222 59.2423 42.3351C59.2506 42.3271 59.2617 42.3227 59.2732 42.3227C59.2847 42.3227 59.2958 42.3271 59.3041 42.3351C59.3106 42.3421 59.3142 42.3513 59.3142 42.3608C59.3142 42.3704 59.3106 42.3796 59.3041 42.3866L59.2801 42.3179L69.2354 44.576Z" fill="#263238"/>
<path d="M53.2273 14.8837L38.324 14.7614C37.3992 14.7538 36.6433 15.4974 36.6357 16.4223L36.4933 33.7757C36.4857 34.7005 37.2293 35.4564 38.1542 35.464L53.0574 35.5863C53.9823 35.5938 54.7382 34.8502 54.7458 33.9254L54.8881 16.572C54.8957 15.6472 54.1521 14.8913 53.2273 14.8837Z" fill="#FF725E"/>
<path d="M39.5885 21.4358L39.5788 22.6197C39.5655 24.2419 40.8698 25.5679 42.4921 25.5812L49.3312 25.6373C50.9535 25.6506 52.2794 24.3462 52.2927 22.724L52.3024 21.5401C52.3157 19.9178 51.0114 18.5919 49.3891 18.5786L42.55 18.5225C40.9277 18.5091 39.6018 19.8135 39.5885 21.4358Z" fill="white"/>
<path d="M49.3319 25.6365C49.7816 25.6091 50.2214 25.4924 50.6256 25.2934C51.0938 25.0603 51.49 24.7045 51.7718 24.2639C51.9507 23.9918 52.0786 23.6895 52.1493 23.3716C52.2214 23.0126 52.2491 22.6461 52.2317 22.2804C52.2463 21.8762 52.2337 21.4715 52.1939 21.069C52.1284 20.6412 51.9639 20.2346 51.7135 19.8816C51.4386 19.4911 51.0713 19.1749 50.6443 18.9611C50.2173 18.7473 49.744 18.6426 49.2667 18.6565L42.5543 18.6085C41.9895 18.6071 41.4369 18.7728 40.9661 19.0849C40.4952 19.3969 40.1273 19.8413 39.9085 20.3621C39.8064 20.6129 39.7372 20.8759 39.7026 21.1445C39.682 21.4053 39.682 21.6798 39.682 21.9509C39.6355 22.4688 39.6761 22.9908 39.8021 23.4952C39.9448 23.9501 40.1987 24.3622 40.5409 24.6941C40.8831 25.0261 41.3026 25.2675 41.7616 25.3963C42.1866 25.4946 42.6231 25.5339 43.0588 25.513L44.2839 25.5302L47.9798 25.5885L48.9853 25.616H49.2461H49.3353H49.2461H48.9853H47.9798H43.0554C42.6062 25.64 42.1558 25.6019 41.717 25.5027C41.2299 25.3706 40.7838 25.1182 40.4198 24.7686C40.0558 24.419 39.7856 23.9834 39.634 23.502C39.4993 22.9816 39.4529 22.4422 39.4967 21.9063C39.4967 21.6352 39.4967 21.3641 39.5173 21.0793C39.5516 20.794 39.6243 20.5146 39.7335 20.2488C39.9631 19.7016 40.3471 19.233 40.8385 18.9002C41.0905 18.7342 41.3642 18.6037 41.6518 18.5124C41.9453 18.4278 42.2489 18.3839 42.5543 18.382L49.2667 18.4438C49.7704 18.4317 50.2692 18.5448 50.7184 18.773C51.1676 19.0012 51.5532 19.3373 51.8404 19.7512C52.1016 20.1255 52.272 20.5556 52.338 21.0072C52.3758 21.4179 52.385 21.8307 52.3655 22.2426C52.3784 22.6182 52.345 22.9939 52.266 23.3613C52.1891 23.6914 52.0518 24.0044 51.861 24.2845C51.5621 24.7321 51.1452 25.0884 50.6565 25.314C50.35 25.4594 50.0199 25.5489 49.6819 25.5782C49.5951 25.5845 49.5079 25.5845 49.4211 25.5782C49.3957 25.6036 49.3653 25.6234 49.3319 25.6365Z" fill="#263238"/>
<g opacity="0.4">
<path opacity="0.4" d="M42.6538 14.7993C42.9215 16.2853 44.3937 17.6957 45.9002 17.6202C46.6421 17.587 47.3476 17.2896 47.8895 16.7817C48.4313 16.2739 48.7737 15.589 48.8548 14.8508" fill="black"/>
</g>
<path d="M46.8854 17.356C46.5633 17.5357 46.2006 17.63 45.8318 17.63C45.463 17.63 45.1004 17.5357 44.7783 17.356L44.8298 11.3608C44.8361 11.0844 44.9508 10.8215 45.1492 10.6289C45.3476 10.4363 45.6137 10.3295 45.8902 10.3313C46.1672 10.3376 46.4306 10.4528 46.6233 10.6519C46.816 10.851 46.9225 11.1181 46.9197 11.3951L46.8854 17.356Z" fill="#455A64"/>
<path d="M46.1941 11.299L45.5798 11.2939L45.5591 13.823L46.1733 13.828L46.1941 11.299Z" fill="white"/>
<path d="M45.4881 30.5816C45.4641 30.5816 45.4881 30.3345 45.3715 29.9158C45.2135 29.3259 44.8633 28.8054 44.3763 28.4368C44.0208 28.1644 43.6026 27.9858 43.16 27.9175C42.7174 27.8491 42.2648 27.8932 41.8437 28.0456C41.3447 28.2203 40.9104 28.5421 40.598 28.9687C40.2592 29.4222 40.0741 29.9721 40.0698 30.5382C40.0655 31.1043 40.2421 31.6569 40.574 32.1156C40.8794 32.5464 41.3075 32.8752 41.8025 33.0593C42.2209 33.218 42.6723 33.2698 43.1158 33.2099C43.5593 33.15 43.9807 32.9802 44.342 32.7161C44.8393 32.3565 45.2017 31.8406 45.3715 31.2508C45.4847 30.8355 45.4744 30.5885 45.4984 30.5885C45.5081 30.6475 45.5081 30.7078 45.4984 30.7669C45.4976 30.9371 45.4757 31.1065 45.4332 31.2714C45.2873 31.8908 44.9306 32.4403 44.4243 32.8259C44.1242 33.0529 43.7818 33.2178 43.4171 33.3109C43.0525 33.404 42.673 33.4235 42.3008 33.3682C41.9285 33.3129 41.571 33.184 41.2492 32.989C40.9274 32.7939 40.6477 32.5366 40.4264 32.2322C40.0693 31.7417 39.8792 31.1495 39.8841 30.5427C39.8891 29.936 40.0888 29.3469 40.4539 28.8623C40.6788 28.5597 40.9623 28.3054 41.2875 28.1144C41.6127 27.9235 41.9729 27.7999 42.3468 27.7509C42.7207 27.7019 43.1006 27.7286 43.464 27.8293C43.8273 27.9301 44.1668 28.1028 44.4621 28.3373C44.9621 28.7302 45.3102 29.2845 45.447 29.9056C45.4841 30.0723 45.5025 30.2426 45.5019 30.4134C45.5054 30.4699 45.5008 30.5265 45.4881 30.5816Z" fill="#263238"/>
<path d="M41.2811 30.5473C41.3017 30.5473 41.5351 30.6708 41.8954 30.8493C42.2557 31.0277 42.7499 31.316 43.3436 31.6557L43.2063 31.7312C43.2063 31.3675 43.2063 30.9728 43.2063 30.5644C43.2063 30.1561 43.2063 29.7614 43.2063 29.3942L43.3401 29.4732C42.7396 29.8163 42.2283 30.0874 41.8783 30.2556C41.5282 30.4237 41.2811 30.5473 41.2606 30.5473C41.24 30.5473 41.4287 30.4272 41.789 30.2041C42.1494 29.9811 42.6641 29.6722 43.2509 29.329L43.3848 29.2535V29.408C43.3848 29.7752 43.3848 30.1698 43.3848 30.5782C43.3848 30.9865 43.3848 31.3812 43.3848 31.7484V31.9028L43.2509 31.8239C42.6675 31.4807 42.1699 31.1718 41.8028 30.9248C41.4356 30.6777 41.2537 30.5473 41.2811 30.5473Z" fill="#263238"/>
<path d="M46.01 30.585C46.0306 30.585 46.01 30.8321 46.1267 31.2508C46.284 31.842 46.6342 32.3638 47.1219 32.7333C47.4783 33.0036 47.8965 33.181 48.3387 33.2493C48.7808 33.3176 49.233 33.2747 49.6545 33.1245C50.1687 32.9382 50.614 32.5997 50.931 32.154C51.2479 31.7083 51.4215 31.1765 51.4286 30.6296C51.4294 30.0637 51.253 29.5117 50.9242 29.0511C50.617 28.6227 50.1894 28.2954 49.6956 28.1108C49.2775 27.9508 48.8258 27.8983 48.3821 27.9583C47.9384 28.0182 47.5169 28.1887 47.1562 28.454C46.6589 28.8136 46.2964 29.3295 46.1267 29.9193C46.01 30.338 46.0203 30.585 45.9997 30.5816C45.9907 30.5236 45.9907 30.4646 45.9997 30.4066C46.0037 30.2366 46.0255 30.0675 46.0649 29.9021C46.2162 29.2797 46.5804 28.7298 47.0944 28.3476C47.4433 28.0801 47.8499 27.8979 48.2818 27.8157C48.8434 27.7111 49.4236 27.7786 49.9462 28.0095C50.4688 28.2404 50.9094 28.6238 51.2103 29.1095C51.5112 29.5951 51.6583 30.1604 51.6324 30.7311C51.6064 31.3018 51.4086 31.8514 51.0649 32.3077C50.7443 32.7371 50.3082 33.0664 49.8075 33.2572C49.3068 33.448 48.7622 33.4924 48.2372 33.3853C47.7099 33.2788 47.2248 33.0219 46.8405 32.6455C46.4562 32.2691 46.1892 31.7895 46.0718 31.2645C46.0322 31.0993 46.0126 30.9299 46.0134 30.76C46.0046 30.7021 46.0034 30.6433 46.01 30.585Z" fill="#263238"/>
<path d="M50.224 30.6193C50.2068 30.6193 49.97 30.4992 49.6132 30.3173C49.2563 30.1355 48.7587 29.8506 48.165 29.5109L48.2988 29.4354C48.2988 29.8026 48.2988 30.1938 48.2988 30.6056C48.2988 31.0174 48.2988 31.4086 48.2988 31.7724L48.165 31.6969C48.7621 31.3537 49.2768 31.0826 49.6234 30.9145C49.97 30.7463 50.224 30.6228 50.2411 30.6193C50.0742 30.7455 49.8987 30.8602 49.7161 30.9625C49.3421 31.2027 48.841 31.4944 48.2508 31.8376L48.1169 31.9165V31.7586C48.1169 31.3915 48.1169 31.0003 48.1169 30.5885C48.1169 30.1766 48.1169 29.7854 48.1169 29.4217V29.2638L48.2473 29.3428C48.8307 29.6859 49.3283 29.9982 49.6989 30.2419C49.8804 30.3585 50.0556 30.4845 50.224 30.6193Z" fill="#263238"/>
<path d="M45.5882 22.8706C45.5882 23.4746 45.0666 23.8452 44.2533 23.8384C43.44 23.8315 42.9424 23.454 42.9458 22.8501C42.9448 22.6709 43.0018 22.4963 43.1081 22.3522C43.2145 22.2081 43.3646 22.1023 43.5361 22.0505C43.3956 21.9909 43.2764 21.8902 43.1943 21.7615C43.1122 21.6329 43.0711 21.4823 43.0762 21.3298C43.0762 20.7739 43.5635 20.4342 44.2807 20.4376C44.998 20.441 45.4853 20.7808 45.4818 21.3504C45.4837 21.5037 45.4392 21.6539 45.354 21.7813C45.2689 21.9087 45.1471 22.0073 45.0048 22.0642C45.1761 22.1176 45.3256 22.225 45.4307 22.3703C45.5359 22.5157 45.5911 22.6912 45.5882 22.8706ZM45.1112 22.8535C45.1112 22.4863 44.7955 22.2564 44.267 22.2529C43.7385 22.2495 43.4228 22.4726 43.4228 22.8398C43.4228 23.2069 43.7282 23.4506 44.2567 23.454C44.7852 23.4575 45.1078 23.2275 45.1112 22.8535ZM43.5464 21.3538C43.5464 21.697 43.814 21.8892 44.2704 21.8926C44.7269 21.896 45.0117 21.6936 45.0151 21.3641C45.0185 21.0347 44.7234 20.8254 44.2773 20.8219C43.8312 20.8185 43.5498 21.021 43.5464 21.3538Z" fill="#455A64"/>
<path d="M46.0545 23.5158C46.0538 23.4716 46.0624 23.4278 46.0798 23.3872C46.0971 23.3466 46.1228 23.3101 46.1551 23.28C46.1875 23.2499 46.2258 23.227 46.2675 23.2126C46.3093 23.1982 46.3536 23.1928 46.3976 23.1967C46.4412 23.1964 46.4844 23.2054 46.5243 23.223C46.5642 23.2406 46.5999 23.2665 46.6291 23.2989C46.6583 23.3313 46.6803 23.3696 46.6936 23.4111C46.7069 23.4526 46.7113 23.4965 46.7065 23.5398C46.7079 23.582 46.7007 23.624 46.6854 23.6633C46.6701 23.7026 46.647 23.7384 46.6175 23.7686C46.588 23.7987 46.5527 23.8226 46.5138 23.8387C46.4748 23.8548 46.4329 23.8629 46.3908 23.8624C46.345 23.865 46.2992 23.8578 46.2565 23.8412C46.2138 23.8245 46.1752 23.7989 46.1433 23.766C46.1114 23.7332 46.087 23.6938 46.0716 23.6506C46.0563 23.6074 46.0504 23.5615 46.0545 23.5158Z" fill="#455A64"/>
<path d="M49.4794 22.8466C49.4794 23.4197 49.0607 23.8761 48.2131 23.8761C47.7712 23.8833 47.3405 23.7365 46.9949 23.4609L47.2179 23.0868C47.4923 23.3263 47.8455 23.4559 48.2097 23.4506C48.7141 23.4506 49.0024 23.2241 49.0024 22.8638C49.0024 22.5034 48.7725 22.2564 48.0038 22.2495H47.2454L47.4376 20.5131H49.3113V20.9283H47.8356L47.7395 21.8411H48.1102C49.0985 21.8411 49.4828 22.2564 49.4794 22.8466Z" fill="#455A64"/>
<path d="M48.8682 14.8508C48.8874 14.9644 48.8874 15.0804 48.8682 15.194C48.8134 15.5207 48.697 15.8339 48.5251 16.1171C48.2776 16.5446 47.9317 16.907 47.5162 17.1741C47.0059 17.5085 46.4104 17.6896 45.8003 17.6957C45.1886 17.6832 44.5965 17.4778 44.1085 17.1089C43.7092 16.8258 43.3699 16.4666 43.1099 16.0519C42.9319 15.7752 42.7998 15.4716 42.7187 15.1528C42.6822 15.0421 42.6648 14.9261 42.6672 14.8096C42.8011 15.2264 42.9879 15.6243 43.2231 15.9936C43.4844 16.3853 43.8174 16.7242 44.2046 16.9922C44.6657 17.3324 45.2206 17.5217 45.7935 17.5344C46.3172 17.5217 46.8297 17.3797 47.2854 17.1211C47.741 16.8624 48.1256 16.4951 48.405 16.0519C48.6241 15.6796 48.7806 15.2738 48.8682 14.8508Z" fill="#263238"/>
<path d="M79.0204 45.1783C77.755 32.801 76.389 24.6201 80.5027 12.5915L88.9366 14.4508C92.601 25.9707 92.3815 38.3144 92.1284 50.3998C92.1052 51.4896 92.0665 52.6387 91.4906 53.5658C90.3389 55.4173 87.7281 55.5051 85.5512 55.3734C83.6066 55.265 79.7693 56.8118 78.4161 55.4096C77.1559 54.1107 79.2012 46.9859 79.0204 45.1783Z" fill="#263238"/>
<path d="M120.395 47.833L112.968 45.4804L105.724 45.2738L85.3626 47.8071L73.0034 78.5604L77.8092 99.9294L74.6432 111H117.42C117.42 111 121.831 59.3348 121.707 58.8364C121.583 58.338 120.39 47.8355 120.39 47.8355" fill="#455A64"/>
<path d="M85.3627 47.8071C85.3627 47.8071 75.4103 49.0492 71.2295 55.0868C68.0093 59.735 60.1589 75.0329 60.1589 75.0329L54.6921 72.2724C54.6921 72.2724 51.2033 83.7845 51.1078 85.9589C50.9606 89.2591 51.286 96.4587 53.9484 98.6925C57.0833 101.324 62.6302 98.5634 64.3449 97.2154C66.6071 95.4335 74.0675 81.636 74.0675 81.636L85.3627 47.8071Z" fill="#455A64"/>
<path d="M77.8147 99.9294C77.8147 99.9294 77.8147 99.8958 77.7862 99.8287C77.7578 99.7615 77.7398 99.6582 77.7088 99.5317L77.4247 98.3877C77.1846 97.3832 76.8385 95.9448 76.4124 94.1707C75.9863 92.3966 75.4828 90.2662 74.925 87.9111C74.6461 86.7335 74.3543 85.4966 74.0496 84.2157C73.9773 83.8955 73.8895 83.5753 73.8301 83.2448C73.7707 82.9142 73.7061 82.5811 73.6519 82.2454C73.5331 81.574 73.4324 80.8897 73.3446 80.195C73.1665 78.8428 73.1077 77.4774 73.169 76.1149C73.2371 74.8452 73.4326 73.5856 73.7526 72.355C74.3081 70.28 75.0257 68.2518 75.8985 66.289C76.6294 64.6079 77.2801 63.2754 77.7294 62.3561L78.2459 61.2999C78.3027 61.1837 78.3492 61.0933 78.3854 61.0262C78.3999 60.9946 78.4171 60.9643 78.437 60.9358C78.437 60.9358 78.437 60.9694 78.3957 61.0339L78.2691 61.3128C78.1504 61.5642 77.9834 61.9197 77.7682 62.3793C77.3343 63.3064 76.6965 64.6441 75.976 66.3252C75.1204 68.2894 74.4142 70.3154 73.8636 72.386C73.5509 73.6097 73.3598 74.8613 73.2929 76.1226C73.234 77.4775 73.2936 78.835 73.4711 80.1795C73.5589 80.8681 73.6605 81.549 73.7758 82.2222C73.8301 82.5579 73.8946 82.8884 73.9514 83.2164C74.0083 83.5443 74.0986 83.8671 74.171 84.1873C74.4705 85.4785 74.7623 86.7077 75.036 87.8853C75.5861 90.243 76.069 92.3631 76.4977 94.1501C76.9263 95.9371 77.2388 97.3703 77.4686 98.3748C77.5797 98.8706 77.6675 99.2554 77.7269 99.5265C77.7527 99.6531 77.7759 99.7512 77.7914 99.8261C77.8027 99.8596 77.8105 99.8942 77.8147 99.9294Z" fill="#263238"/>
<path d="M63.583 69.9199C63.5951 69.9361 63.6038 69.9545 63.6088 69.9741L63.6734 70.1394C63.742 70.3551 63.7963 70.575 63.8361 70.7979C63.9616 71.6196 64.0083 72.4515 63.9755 73.2821C63.9755 74.3331 63.8361 75.5804 63.8955 76.9594C63.979 78.4584 64.1846 79.9482 64.5101 81.4139C65.1712 84.5412 65.9923 87.3404 66.137 89.4502C66.216 90.2773 66.216 91.11 66.137 91.937C66.1165 92.1655 66.0811 92.3924 66.0311 92.6162C66.0104 92.6833 65.9949 92.7376 65.982 92.7841C65.9774 92.8037 65.9704 92.8228 65.9614 92.8409C65.9579 92.8212 65.9579 92.8011 65.9614 92.7815C65.9614 92.735 65.982 92.6782 65.9975 92.6085C66.0388 92.3881 66.0681 92.1657 66.0853 91.9422C66.1427 91.1179 66.1289 90.2902 66.044 89.4683C65.8736 87.3766 65.042 84.5851 64.3784 81.463C64.051 79.99 63.848 78.4922 63.7715 76.9852C63.7199 75.5907 63.8593 74.346 63.88 73.3002C63.9219 72.4743 63.8899 71.6464 63.7844 70.8263C63.7518 70.6043 63.7061 70.3844 63.6476 70.1678C63.6269 70.1006 63.6114 70.0464 63.5959 69.9999C63.5889 69.9737 63.5846 69.9469 63.583 69.9199Z" fill="#263238"/>
<path d="M69.0734 70.4854C69.0398 70.5009 68.4433 69.3543 67.7435 67.9211C67.0437 66.4879 66.5014 65.3155 66.5349 65.3C66.5685 65.2845 67.1624 66.4311 67.8648 67.8617C68.5672 69.2923 69.107 70.4699 69.0734 70.4854Z" fill="white"/>
<path d="M73.3366 67.619C73.3676 67.6422 72.1849 69.2846 70.6975 71.2859C69.21 73.2872 67.9808 74.9012 67.9524 74.8728C67.924 74.8444 69.1016 73.2098 70.589 71.2059C72.0764 69.202 73.3082 67.5983 73.3366 67.619Z" fill="white"/>
<path d="M72.9364 73.5455C72.6691 73.2661 72.4351 72.9568 72.2391 72.6236C72.0063 72.3152 71.8105 71.9807 71.6555 71.6268C71.9228 71.9061 72.1568 72.2154 72.3528 72.5487C72.5856 72.857 72.7814 73.1915 72.9364 73.5455Z" fill="white"/>
<path d="M78.6847 68.3265C78.7157 68.342 78.0727 69.6487 77.2463 71.242C76.42 72.8353 75.7201 74.1136 75.6969 74.0981C75.6737 74.0826 76.3089 72.7734 77.1353 71.18C77.9616 69.5867 78.6615 68.3085 78.6847 68.3265Z" fill="white"/>
<path d="M81.4506 73.5377C81.2834 73.4519 81.1302 73.3414 80.9961 73.2098C80.6536 72.9167 80.3382 72.5935 80.0535 72.244C79.7619 71.8973 79.5026 71.5248 79.2788 71.131C79.1754 70.9717 79.097 70.7975 79.0464 70.6145C79.0825 70.5938 79.4802 71.3479 80.1439 72.151C80.8076 72.9541 81.4764 73.5067 81.4506 73.5377Z" fill="white"/>
<path d="M85.7447 67.5079C85.562 67.7053 85.3653 67.8891 85.156 68.058C84.7841 68.3885 84.2702 68.8482 83.715 69.3646C83.1598 69.8811 82.6821 70.3614 82.3128 70.7075C82.1307 70.9055 81.9329 71.0886 81.7214 71.2549C81.875 71.0351 82.0478 70.8294 82.2379 70.6403C82.5762 70.2762 83.0591 69.7856 83.6169 69.2665C84.1747 68.7475 84.6963 68.2981 85.0862 67.9753C85.2895 67.7978 85.5101 67.6412 85.7447 67.5079Z" fill="white"/>
<path d="M88.4978 75.3661C88.4693 75.3893 87.5268 74.3331 86.3906 72.9825C85.2543 71.632 84.3582 70.537 84.3866 70.5138C84.415 70.4906 85.3576 71.5467 86.4938 72.8973C87.6301 74.2479 88.5236 75.3402 88.4978 75.3661Z" fill="white"/>
<path d="M91.5114 69.0703C91.0883 69.5745 90.631 70.049 90.1428 70.4905C89.6859 70.9645 89.1976 71.4071 88.6812 71.8153C89.1039 71.3156 89.5603 70.8454 90.0472 70.4079C90.5045 69.9294 90.9937 69.4825 91.5114 69.0703Z" fill="white"/>
<path d="M96.2709 74.5397C96.0311 74.4129 95.8052 74.2615 95.5969 74.0878C94.5568 73.293 93.6275 72.3629 92.8338 71.3221C92.6601 71.1138 92.5086 70.8879 92.3818 70.6481C92.5662 70.8424 92.7386 71.0476 92.8983 71.2627C93.2159 71.6474 93.673 72.1639 94.2076 72.701C94.7421 73.2382 95.2612 73.6927 95.6459 74.0129C95.8656 74.1745 96.0744 74.3505 96.2709 74.5397Z" fill="white"/>
<path d="M99.1913 69.344C99.0547 69.4984 98.9053 69.6409 98.7446 69.7701C98.4605 70.0283 98.0758 70.3821 97.6678 70.803C97.2597 71.2239 96.9137 71.6087 96.6632 71.8954C96.538 72.0594 96.398 72.2115 96.2449 72.3499C96.339 72.1644 96.4552 71.991 96.5909 71.8334C96.8949 71.4377 97.2226 71.0609 97.5722 70.7049C97.9224 70.3495 98.2932 70.0149 98.6826 69.7029C98.8357 69.5615 99.0067 69.4408 99.1913 69.344Z" fill="white"/>
<path d="M103.173 75.3144C103.147 75.3402 102.308 74.4984 101.298 73.437C100.289 72.3757 99.4906 71.4899 99.5216 71.4641C100.178 72.0586 100.804 72.686 101.396 73.3441C102.404 74.4106 103.199 75.2912 103.173 75.3144Z" fill="white"/>
<path d="M105.769 68.1458C105.6 68.3577 105.416 68.557 105.219 68.7423C104.875 69.1038 104.405 69.6074 103.909 70.1858C103.414 70.7643 102.987 71.3066 102.683 71.7042C102.526 71.9276 102.354 72.1391 102.166 72.3369C102.288 72.0943 102.431 71.8635 102.595 71.6474C102.882 71.2343 103.297 70.679 103.796 70.098C104.294 69.517 104.777 69.0212 105.141 68.6751C105.332 68.4784 105.543 68.3011 105.769 68.1458Z" fill="white"/>
<path d="M108.694 74.1833C108.49 74.0636 108.299 73.9234 108.124 73.765C107.783 73.4861 107.326 73.0833 106.833 72.6159C106.339 72.1484 105.939 71.6991 105.65 71.366C105.483 71.1955 105.337 71.0066 105.213 70.803C105.398 70.9559 105.571 71.1225 105.73 71.3014C106.032 71.6191 106.455 72.0529 106.936 72.5203C107.416 72.9877 107.86 73.3957 108.183 73.6927C108.368 73.8408 108.539 74.005 108.694 74.1833Z" fill="white"/>
<path d="M113.846 68.0838C113.7 68.2957 113.532 68.4921 113.345 68.67C113.017 69.0186 112.547 69.4809 111.997 69.9612C111.447 70.4415 110.926 70.8418 110.538 71.1181C110.336 71.2787 110.118 71.4188 109.887 71.5364C110.073 71.3578 110.272 71.193 110.481 71.0432C110.853 70.7488 111.365 70.3356 111.909 69.8605C112.454 69.3853 112.942 68.9334 113.278 68.6054C113.455 68.4183 113.645 68.244 113.846 68.0838Z" fill="white"/>
<path d="M118.453 68.6958C118.479 68.912 118.479 69.1304 118.453 69.3466C118.435 69.7494 118.388 70.3046 118.306 70.914C118.223 71.5235 118.12 72.0684 118.032 72.4635C117.998 72.6791 117.938 72.8898 117.854 73.091C117.863 72.8737 117.892 72.6576 117.939 72.4454C118.004 72.0503 118.091 71.5028 118.174 70.896C118.257 70.2891 118.316 69.7391 118.36 69.3466C118.368 69.127 118.399 68.9089 118.453 68.6958Z" fill="white"/>
<g opacity="0.3">
<path opacity="0.3" d="M91.9993 74.8186C91.4622 74.2014 90.8966 73.5662 90.1452 73.2408C89.1122 72.7966 87.9321 73.011 86.832 73.2408C82.2509 74.1911 77.6887 75.2361 73.1455 76.3758L73.6129 76.869C75.0719 78.7722 77.8222 79.0072 80.216 78.8858C82.6098 78.7644 85.2232 78.5088 87.2064 79.8568C88.9689 81.1116 90.4961 82.6677 91.7178 84.4534C95.1627 89.5871 97.6314 92.2418 101.471 95.6014C105.482 99.1134 108.96 103.09 114.218 102.174C107.128 92.803 99.7223 83.6847 91.9993 74.8186Z" fill="black"/>
</g>
<path d="M54.5888 73.0135L55.1931 70.7281C55.1931 70.7281 49.3699 65.8862 50.3512 63.8022C50.4375 63.474 50.6283 63.1828 50.8948 62.9727C51.1613 62.7626 51.489 62.645 51.8283 62.6376C51.8283 62.6376 51.1543 61.2276 52.0865 60.1869C53.0187 59.1463 54.0491 59.5749 54.0491 59.5749C54.0491 59.5749 53.5585 58.103 53.8658 57.429C53.9165 57.3168 53.9761 57.2089 54.0439 57.1062C54.2403 56.8067 54.5087 56.5613 54.8245 56.3926C55.1403 56.2238 55.4935 56.1371 55.8516 56.1404H56.3267L55.3584 52.6284C55.2297 52.1612 55.235 51.6672 55.3739 51.2029L55.5546 50.5935C55.7123 50.0884 56.0553 49.6617 56.5147 49.3992C56.9741 49.1366 57.5159 49.0578 58.0311 49.1784C58.7671 49.3591 59.3223 49.6793 59.3223 50.2578V50.5651L58.0879 51.2391C58.0879 51.2391 59.973 55.9467 60.1564 56.2049C60.3397 56.4632 62.1809 58.6582 62.1809 58.6582C62.1809 58.6582 62.3643 55.9002 63.5883 55.7143C64.8124 55.5284 65.2436 56.2669 65.0603 56.8196C64.8769 57.3722 64.8976 58.0772 65.1016 58.919C65.1016 58.919 64.4483 64.9101 64.5077 66.5034C64.567 68.0967 63.8337 68.0967 63.8337 68.0967C63.8337 68.0967 63.7123 70.364 63.2836 71.5906C62.8549 72.8172 58.9323 77.3493 57.1531 76.8638C55.3739 76.3783 54.5888 73.0135 54.5888 73.0135Z" fill="#D38176"/>
<path d="M51.7766 62.5369C51.8282 62.5487 51.8785 62.566 51.9264 62.5885L52.3447 62.759L53.8786 63.4071L56.1434 64.3833L57.481 64.9643C57.7221 65.0611 57.9574 65.1715 58.186 65.2948C58.4379 65.4231 58.6383 65.6336 58.7541 65.8914C58.8109 66.0506 58.8035 66.2256 58.7335 66.3794C58.6626 66.5244 58.5491 66.6443 58.4081 66.7229C58.147 66.8695 57.8571 66.9576 57.5585 66.9811C56.1412 67.1616 54.7036 66.8761 53.4629 66.1677H53.5145C53.1026 66.5647 52.5621 66.801 51.9909 66.8339C51.9508 66.8412 51.9097 66.8412 51.8696 66.8339C51.8696 66.8339 52.0374 66.8339 52.3318 66.7487C52.7543 66.638 53.1406 66.4191 53.4526 66.1134L53.4758 66.0902L53.5042 66.1057C54.2617 66.5194 55.0922 66.7824 55.9497 66.8804C56.4794 66.9405 57.0144 66.9362 57.543 66.8675C57.8215 66.8469 58.0926 66.7677 58.3384 66.6351C58.4555 66.5681 58.5506 66.4685 58.6121 66.3484C58.6674 66.2262 58.6729 66.0873 58.6276 65.9611C58.5175 65.7364 58.3358 65.5547 58.1111 65.4446C57.8884 65.3216 57.6581 65.213 57.4216 65.1192L56.0891 64.5304L53.8347 63.5259L52.3189 62.839L51.9109 62.6453C51.861 62.6161 51.8157 62.5795 51.7766 62.5369Z" fill="#794742"/>
<path d="M53.6797 59.5052C53.7252 59.5095 53.7702 59.5181 53.814 59.531C53.9402 59.5588 54.0645 59.595 54.1859 59.6395C54.6346 59.8034 55.0607 60.0239 55.4538 60.2954C56.4738 60.941 57.6359 62.1908 59.3661 62.8364C59.7855 63.0103 60.1751 63.2491 60.5204 63.544C60.8376 63.8387 61.0529 64.2267 61.135 64.6518C61.1773 64.8452 61.1729 65.0459 61.1222 65.2372C61.0714 65.4285 60.9758 65.605 60.8432 65.7519C60.5955 65.992 60.2661 66.1294 59.9213 66.1367C59.6441 66.1449 59.3683 66.0965 59.1104 65.9947C58.9187 65.9204 58.7338 65.8297 58.5578 65.7235C58.4106 65.6383 58.2996 65.5686 58.2298 65.5169C58.1904 65.495 58.154 65.4681 58.1214 65.4369C58.2786 65.51 58.432 65.591 58.581 65.6796C58.7599 65.7747 58.9455 65.8567 59.1362 65.9249C59.3842 66.0146 59.6476 66.0541 59.9109 66.0411C60.2285 66.0293 60.5299 65.8984 60.7554 65.6744C60.875 65.5405 60.9608 65.3799 61.0058 65.2061C61.0507 65.0322 61.0534 64.8502 61.0136 64.6751C60.9355 64.278 60.7329 63.9162 60.4352 63.6421C60.098 63.3591 59.7202 63.1284 59.3144 62.9578C58.9004 62.7864 58.4968 62.5906 58.1059 62.3716C57.7471 62.1577 57.4021 61.9213 57.0729 61.664C56.4428 61.1786 55.9005 60.7112 55.4047 60.3729C55.0221 60.0969 54.6088 59.8664 54.1729 59.686C53.8579 59.562 53.6771 59.5207 53.6797 59.5052Z" fill="#794742"/>
<path d="M55.8411 56.205C55.8939 56.2204 55.9443 56.243 55.9909 56.2721L56.4015 56.4916L57.9019 57.318L60.1175 58.5575C60.571 58.7833 60.9915 59.07 61.3674 59.4097C61.5744 59.5986 61.7333 59.8343 61.8308 60.0971C61.9282 60.3598 61.9615 60.6421 61.9277 60.9203C61.8744 61.2074 61.7172 61.4648 61.4862 61.6434C61.2583 61.8084 60.9912 61.9108 60.7115 61.9404C60.1964 61.9816 59.6814 61.8596 59.2395 61.5917C58.8134 61.3593 58.4441 61.0908 58.0826 60.8713C57.7211 60.6518 57.3802 60.4529 57.0497 60.2902C56.5434 60.03 56.0099 59.8265 55.4589 59.6834C55.069 59.5878 54.8469 59.562 54.8469 59.5491C54.9019 59.5434 54.9573 59.5434 55.0122 59.5491C55.1668 59.5648 55.3203 59.5898 55.4719 59.624C56.0326 59.7482 56.5763 59.9399 57.091 60.1947C57.419 60.3522 57.7676 60.5433 58.1239 60.7654C58.4803 60.9875 58.8625 61.2483 59.2782 61.473C59.6987 61.7265 60.1887 61.8405 60.6779 61.7983C60.9303 61.7698 61.1707 61.6754 61.3751 61.5246C61.5802 61.3681 61.7193 61.1406 61.7651 60.8868C61.796 60.63 61.7653 60.3696 61.6755 60.1271C61.5856 59.8846 61.4393 59.667 61.2486 59.4923C60.8815 59.1613 60.4726 58.88 60.0323 58.6556L57.8295 57.3903L56.3499 56.5252L55.9522 56.285C55.914 56.26 55.8769 56.2333 55.8411 56.205Z" fill="#794742"/>
<path d="M59.2989 50.2655C59.2989 50.2655 59.3196 50.312 59.3325 50.405C59.3282 50.4627 59.3178 50.5198 59.3015 50.5754C59.2714 50.645 59.2333 50.7109 59.1879 50.7717C58.9001 51.0906 58.5261 51.3193 58.1111 51.4302C57.7077 51.5598 57.2844 51.6157 56.8612 51.5954C56.6825 51.5958 56.506 51.5561 56.3447 51.4792C56.3447 51.456 56.5436 51.4999 56.8612 51.4999C57.27 51.4935 57.6755 51.4265 58.0646 51.3011C58.4524 51.1935 58.8073 50.9911 59.0975 50.7123C59.1429 50.6616 59.1827 50.6062 59.2163 50.547C59.237 50.4902 59.2525 50.4411 59.2654 50.4024C59.2664 50.3549 59.2779 50.3082 59.2989 50.2655Z" fill="#794742"/>
<path d="M60.7242 70.4079C60.5192 69.7481 60.2125 69.1243 59.8152 68.5589C59.382 68.0206 58.8671 67.5535 58.2891 67.1748C58.4868 67.2361 58.6728 67.3304 58.8391 67.4537C59.2567 67.7339 59.6234 68.0832 59.9237 68.4866C60.2242 68.8869 60.4555 69.3347 60.608 69.8114C60.6801 70.0022 60.7194 70.2039 60.7242 70.4079Z" fill="#794742"/>
<path d="M59.0022 71.9083C59.0022 71.9083 58.9532 71.9573 58.8473 72.0193C58.6978 72.1071 58.5383 72.1764 58.3721 72.2259C57.8188 72.3988 57.225 72.3925 56.6755 72.2078C56.1266 72.0139 55.6525 71.6526 55.3198 71.1749C55.2167 71.0337 55.1301 70.8812 55.0616 70.7204C55.031 70.6637 55.0125 70.6013 55.0073 70.537C55.0306 70.537 55.1261 70.7798 55.3869 71.1181C55.7231 71.5596 56.183 71.8911 56.7082 72.0704C57.2333 72.2498 57.8 72.2688 58.336 72.1252C58.7595 72.0296 58.9919 71.8876 59.0022 71.9083Z" fill="#794742"/>
<path d="M62.5993 68.8404C62.4487 68.8899 62.2888 68.904 62.1319 68.8817C61.7499 68.8549 61.3798 68.7371 61.0525 68.5383C60.7252 68.3401 60.4491 68.0677 60.2468 67.7429C60.1549 67.6139 60.0939 67.4654 60.0686 67.3091C60.0893 67.3091 60.1616 67.464 60.3268 67.6913C60.5408 67.9852 60.8112 68.2337 61.1222 68.4221C61.4351 68.6095 61.7816 68.734 62.1422 68.7888C62.2955 68.7965 62.4482 68.8137 62.5993 68.8404Z" fill="#794742"/>
<path d="M63.7071 64.2671C63.5138 64.3051 63.3145 64.2998 63.1235 64.2516C62.6536 64.1639 62.2176 63.9468 61.8645 63.6247C61.5113 63.3026 61.2551 62.8883 61.1248 62.4284C61.0587 62.2432 61.0349 62.0456 61.055 61.85C61.0783 61.85 61.0989 62.0695 61.2151 62.4C61.3664 62.8296 61.6199 63.216 61.9537 63.5259C62.2918 63.831 62.6998 64.0482 63.1416 64.1586C63.4773 64.2438 63.7071 64.2438 63.7071 64.2671Z" fill="#794742"/>
<path d="M57.6516 51.6471L62.7156 61.8861C62.7156 61.8861 64.265 63.5517 64.4355 64.7913L66.6434 67.7016L68.1928 66.7229L67.1314 63.309C67.1314 63.309 65.5536 61.6666 65.5536 60.3186L59.7846 50.5677L57.6516 51.6471Z" fill="#FF725E"/>
<path d="M65.5662 60.3212C65.1705 60.6959 64.7267 61.0163 64.2466 61.2741C63.7881 61.5705 63.2875 61.796 62.7617 61.9429C62.7462 61.9042 63.4099 61.6124 64.1795 61.1682C64.949 60.7241 65.5429 60.2902 65.5662 60.3212Z" fill="#263238"/>
<path d="M67.1029 63.3116C66.6915 63.6109 66.2552 63.8744 65.7988 64.0992C65.3639 64.3641 64.9058 64.5889 64.4302 64.7706C64.8372 64.4716 65.2692 64.2081 65.7214 63.983C66.1607 63.7181 66.6231 63.4933 67.1029 63.3116Z" fill="#263238"/>
<path d="M61.3418 53.1836C60.9937 53.4529 60.6201 53.6873 60.2262 53.8834C59.8531 54.1174 59.4567 54.3121 59.0435 54.4644C59.3912 54.1934 59.7659 53.9589 60.1616 53.7646C60.5337 53.5304 60.9292 53.3357 61.3418 53.1836Z" fill="#263238"/>
<path d="M63.4334 58.5058L63.4799 58.4851C63.6026 58.4262 63.7436 58.4181 63.8722 58.4626C64.0008 58.5071 64.1067 58.6006 64.1668 58.7227L65.303 60.9539C65.3352 61.0152 65.3547 61.0824 65.3604 61.1514C65.3661 61.2204 65.3579 61.2898 65.3362 61.3556C65.3145 61.4214 65.2799 61.4821 65.2342 61.5342C65.1886 61.5863 65.1329 61.6287 65.0706 61.6588C65.0104 61.6903 64.9446 61.7095 64.877 61.7155C64.8094 61.7215 64.7412 61.714 64.6765 61.6937C64.6117 61.6733 64.5516 61.6403 64.4996 61.5967C64.4476 61.553 64.4047 61.4996 64.3734 61.4393L63.1906 59.2288C63.1558 59.1661 63.1344 59.0968 63.1279 59.0253C63.1213 58.9539 63.1297 58.8818 63.1526 58.8138C63.1754 58.7458 63.2122 58.6832 63.2605 58.6302C63.3089 58.5772 63.3678 58.5348 63.4334 58.5058Z" fill="#455A64"/>
<path d="M104.622 95.8829L94.5508 82.4779L102.04 74.7721L111.388 83.2526L113.844 68.6958L118.28 48.2952C118.28 48.2952 127.233 51.2675 127.233 59.3038C127.233 67.3401 124.212 92.3166 122.195 96.2315C121.454 97.6699 120.803 99.2296 119.819 100.301C118.125 102.145 115.899 103.015 113.805 102.605C107.899 101.438 104.622 95.8829 104.622 95.8829Z" fill="#455A64"/>
<path d="M65.7727 71.2524C65.7727 71.2524 65.7417 69.7624 67.5959 69.7959C67.5959 69.7959 68.7889 69.8269 70.2789 71.7172L71.5701 72.1794L66.6766 67.7068C66.6766 67.7068 67.614 66.4518 68.6417 66.7487C69.6695 67.0457 70.2454 68.4712 71.3713 68.8998C72.4972 69.3285 73.9898 70.5242 73.9898 70.5242L77.3004 71.0871L77.5999 70.723L70.8574 63.9805C70.8574 63.9805 71.9885 62.3975 73.3468 63.464C74.7051 64.5305 76.771 66.6196 77.1687 66.9192C77.5664 67.2187 79.0564 68.2439 79.0564 68.2439L81.6387 68.7062L83.56 68.0115C83.56 68.0115 83.0642 66.5215 84.4199 66.1884C85.7757 65.8552 88.859 67.2497 88.859 67.2497C89.6398 66.703 90.5736 66.4174 91.5266 66.4337C93.1845 66.4337 94.4601 67.8927 94.5583 69.016C94.6564 70.1394 91.2012 74.5346 91.2012 74.5346L89.7887 75.3945L81.0758 76.7502L79.4515 76.5849L75.5599 77.3467L67.7508 74.798C67.7508 74.798 67.0562 73.5068 68.3138 73.2744L65.7727 71.2524Z" fill="#D38176"/>
<path d="M79.8058 73.3983C79.8058 73.4112 79.6457 73.357 79.3539 73.3312C78.9409 73.3131 78.5278 73.3655 78.1324 73.4861C77.6159 73.6178 77.0426 73.858 76.3532 74.0026C75.5999 74.1464 74.8248 74.1306 74.0781 73.9561C73.2827 73.7986 72.5519 73.5584 71.8779 73.388C71.2872 73.2252 70.6816 73.1223 70.0703 73.0807C69.657 73.0597 69.2428 73.0935 68.8385 73.1814C68.5544 73.2485 68.4021 73.3105 68.3969 73.2976C68.3918 73.2847 68.4331 73.2743 68.5028 73.2459C68.6076 73.2005 68.7154 73.1625 68.8256 73.1323C69.2317 73.0218 69.6522 72.9731 70.0729 72.9877C70.6941 73.0127 71.3108 73.1063 71.9115 73.2666C72.5907 73.4345 73.3215 73.6694 74.1065 73.8244C74.837 73.9942 75.5943 74.0136 76.3325 73.8812C77.0065 73.7392 77.5953 73.5068 78.1117 73.3854C78.5182 73.2731 78.9415 73.2346 79.3616 73.2718C79.4746 73.2872 79.586 73.3123 79.6947 73.3467C79.7343 73.3578 79.7718 73.3752 79.8058 73.3983Z" fill="#794742"/>
<path d="M77.7758 73.1013C77.4045 73.0136 77.0274 72.9532 76.6473 72.9205C76.2351 72.8966 75.8215 72.9226 75.4155 72.998C75.175 73.0428 74.9371 73.1005 74.7028 73.171C74.4432 73.2597 74.1671 73.2896 73.8945 73.2588C73.3896 73.1423 72.9031 72.9572 72.4484 72.7088L71.3302 72.1484C71.079 72.0218 70.8202 71.9106 70.5555 71.8153C70.3696 71.7456 70.2611 71.7301 70.2637 71.7172C70.2663 71.7043 70.2921 71.7172 70.3438 71.7172C70.4206 71.7255 70.4966 71.7402 70.571 71.7611C70.8435 71.8402 71.1094 71.9404 71.3664 72.0606C71.6918 72.2052 72.0714 72.3937 72.4975 72.5952C72.9439 72.8259 73.4176 72.9994 73.9074 73.1116C74.1626 73.1386 74.4207 73.1104 74.6641 73.029C74.9014 72.9583 75.1429 72.9023 75.3871 72.8611C75.8033 72.7906 76.2267 72.7733 76.6473 72.8095C76.9301 72.8342 77.2096 72.8878 77.4814 72.9696C77.5855 72.9986 77.6848 73.043 77.7758 73.1013Z" fill="#794742"/>
<path d="M79.0515 68.7965C79.0773 68.8275 78.7442 69.1141 78.4678 69.5712C78.1915 70.0283 78.0805 70.4518 78.0417 70.4441C78.0491 70.1061 78.157 69.7779 78.3516 69.5015C78.5075 69.2006 78.7517 68.9546 79.0515 68.7965Z" fill="#794742"/>
<path d="M82.0857 70.9244C82.0444 70.9244 82.0857 70.4854 82.0134 69.9637C81.9411 69.4421 81.7551 69.0418 81.7964 69.0237C81.9962 69.2916 82.117 69.6101 82.1451 69.9431C82.2163 70.2694 82.1957 70.609 82.0857 70.9244Z" fill="#794742"/>
<path d="M86.3078 70.4079C86.0507 70.5363 85.7839 70.6442 85.5098 70.7307C85.014 70.914 84.3194 71.1542 83.5576 71.4228C83.3691 71.4899 83.1806 71.5493 83.0024 71.619L82.4859 71.8204L81.6208 72.1587C81.3578 72.2738 81.0857 72.3671 80.8074 72.4376C81.0554 72.2949 81.3145 72.1723 81.5821 72.0709L82.442 71.7068L82.9585 71.4951C83.1367 71.4253 83.3252 71.3634 83.5163 71.2962C84.291 71.038 84.9779 70.8004 85.4814 70.6403C85.7502 70.5409 86.0266 70.4631 86.3078 70.4079Z" fill="#794742"/>
<path d="M90.3698 71.854C90.2674 71.8332 90.1671 71.8029 90.0703 71.7636L89.2698 71.4744C88.5932 71.2317 87.6584 70.8985 86.6151 70.5577C86.0986 70.3821 85.5821 70.24 85.1457 70.0619C84.7425 69.913 84.3741 69.6827 84.0637 69.3853C83.8557 69.1828 83.6983 68.9342 83.6041 68.6596C83.5634 68.5607 83.5457 68.4539 83.5524 68.3472C83.5524 68.3472 83.5782 68.4556 83.6531 68.6416C83.7631 68.8981 83.9259 69.1286 84.1309 69.3181C84.4399 69.5951 84.8006 69.8083 85.1922 69.9456C85.6312 70.1135 86.1374 70.2529 86.659 70.4285C87.6919 70.772 88.6345 71.1206 89.3033 71.3866C89.6364 71.5183 89.905 71.6319 90.078 71.7146C90.1814 71.747 90.2797 71.7939 90.3698 71.854Z" fill="#794742"/>
<path d="M91.519 67.872C91.3076 67.8905 91.0945 67.873 90.8889 67.8204C90.3901 67.7216 89.897 67.5957 89.4118 67.4434C88.8437 67.2678 88.335 67.087 87.9734 66.9424C87.7723 66.8805 87.5798 66.7937 87.4001 66.6841C87.6074 66.7237 87.8106 66.7825 88.007 66.8597L89.4505 67.322C90.0161 67.495 90.5325 67.6422 90.9096 67.7352C91.2866 67.8281 91.5216 67.854 91.519 67.872Z" fill="#794742"/>
<path d="M89.6262 75.4177L95.0182 82.0802L101.105 75.7379L94.2022 68.1948L89.6262 75.4177Z" fill="#D38176"/>
<path d="M124.56 85.7472C124.56 85.7472 124.56 85.8169 124.532 85.9537C124.503 86.0906 124.477 86.2946 124.436 86.558C124.351 87.0745 124.222 87.8699 124.038 88.8821C123.855 89.8944 123.615 91.1133 123.279 92.5233C122.915 94.1258 122.431 95.6985 121.831 97.2283C121.478 98.1218 121.001 98.9614 120.415 99.7229C119.762 100.538 118.963 101.225 118.06 101.75C117.089 102.308 116 102.629 114.881 102.687C113.694 102.726 112.513 102.503 111.421 102.034C110.277 101.547 109.218 100.88 108.286 100.056C107.319 99.198 106.428 98.258 105.624 97.2464C104.796 96.2255 103.977 95.171 103.168 94.083C102.359 92.995 101.535 91.8957 100.697 90.7853L94.4989 82.5218L94.4653 82.4779L94.5041 82.4366L101.993 74.736L102.029 74.6998L102.065 74.7282C102.582 75.1337 103.026 75.552 103.486 75.96L104.815 77.1634L107.282 79.4204L111.413 83.2294C112.748 84.1922 113.758 85.5388 114.308 87.09C114.388 87.327 114.45 87.5695 114.494 87.8156C114.535 87.9922 114.562 88.1719 114.574 88.3527C114.574 88.4948 114.592 88.611 114.597 88.6833C114.603 88.7556 114.597 88.7943 114.597 88.7943C114.597 88.7943 114.597 88.7582 114.582 88.6833C114.566 88.6084 114.564 88.4974 114.548 88.3553C114.533 88.1751 114.504 87.9964 114.461 87.8208C114.412 87.5774 114.347 87.3376 114.267 87.1029C114.039 86.4502 113.719 85.8336 113.317 85.272C113.066 84.914 112.786 84.5772 112.48 84.2649C112.139 83.9073 111.767 83.5814 111.367 83.2913L107.235 79.5004L104.766 77.2383L103.431 76.0375C102.977 75.6346 102.512 75.206 102.024 74.8186H102.096L94.6074 82.5295V82.4469L100.805 90.7104C101.642 91.8243 102.465 92.9235 103.276 94.0081C104.087 95.0927 104.904 96.1463 105.727 97.1689C106.531 98.1727 107.419 99.1057 108.382 99.9579C109.303 100.772 110.349 101.432 111.48 101.913C112.554 102.377 113.717 102.6 114.887 102.563C115.984 102.51 117.052 102.199 118.006 101.654C118.898 101.14 119.686 100.464 120.33 99.6609C120.913 98.9087 121.388 98.0786 121.74 97.1947C122.344 95.6712 122.833 94.1044 123.202 92.5078C123.545 91.1004 123.791 89.8763 123.977 88.877C124.162 87.8776 124.307 87.0951 124.4 86.5528C124.446 86.2946 124.483 86.0906 124.508 85.9512C124.534 85.8117 124.56 85.7472 124.56 85.7472Z" fill="#263238"/>
<path d="M114.497 59.3967C114.5 59.4173 114.5 59.4382 114.497 59.4587C114.497 59.5078 114.476 59.5646 114.463 59.6369C114.43 59.8047 114.381 60.032 114.321 60.3186C114.195 60.9074 114.017 61.7622 113.805 62.8209C113.379 64.9359 112.842 67.8669 112.369 71.1232C111.896 74.3796 111.581 77.3467 111.39 79.4952C111.292 80.5695 111.22 81.4397 111.173 82.0414C111.15 82.3332 111.129 82.5579 111.117 82.7335C111.117 82.8058 111.104 82.8652 111.098 82.9143C111.1 82.9349 111.1 82.9556 111.098 82.9762C111.094 82.9558 111.094 82.9347 111.098 82.9143C111.098 82.8652 111.098 82.8058 111.098 82.7335C111.098 82.5631 111.117 82.3306 111.129 82.0388C111.16 81.4346 111.217 80.5643 111.302 79.4875C111.47 77.3364 111.772 74.3667 112.242 71.1051C112.712 67.8436 113.275 64.9075 113.72 62.8003C113.944 61.7441 114.135 60.8919 114.28 60.3057C114.35 60.0217 114.404 59.7892 114.445 59.6317L114.492 59.4561C114.489 59.4174 114.497 59.3967 114.497 59.3967Z" fill="#263238"/>
<path d="M118.154 74.9219C118.154 74.9219 118.081 74.8806 117.965 74.785C117.849 74.6895 117.686 74.5449 117.49 74.3641C116.979 73.8872 116.493 73.3847 116.033 72.8586C115.575 72.3343 115.144 71.787 114.742 71.2188C114.587 71.0019 114.466 70.8211 114.386 70.7023C114.339 70.6395 114.301 70.5698 114.275 70.4957C114.47 70.709 114.652 70.9341 114.82 71.1697C115.148 71.5907 115.607 72.1665 116.145 72.7785C116.682 73.3905 117.193 73.9225 117.567 74.3021C117.774 74.4974 117.97 74.7043 118.154 74.9219Z" fill="white"/>
<path d="M121.152 67.6138C120.802 68.3609 120.413 69.0893 119.987 69.7959C119.597 70.5257 119.166 71.2326 118.696 71.9135C119.045 71.1658 119.433 70.4374 119.86 69.7314C120.251 69.0021 120.682 68.2951 121.152 67.6138Z" fill="white"/>
<path d="M125.425 75.2318C125.392 75.2447 124.865 74.0749 124.253 72.6184C123.641 71.162 123.168 69.9663 123.202 69.9534C123.235 69.9405 123.762 71.1077 124.374 72.5668C124.986 74.0258 125.469 75.2163 125.425 75.2318Z" fill="white"/>
<path d="M95.4494 2.17431C96.9575 2.03744 98.4759 2.43254 99.8523 3.05747C103.264 4.60689 105.885 7.5766 107.62 10.8975C109.355 14.2184 110.28 17.8983 111.008 21.573C111.943 26.2722 112.583 31.0252 112.924 35.8043C113.028 37.2453 113.789 47.7168 113.957 49.8472L91.5811 4.27118C92.4461 3.02907 93.9413 2.31117 95.4494 2.17431Z" fill="#263238"/>
<path d="M103.254 10.8226L93.2753 6.80188L90.662 7.09369C84.7871 7.09369 80.7018 13.5496 80.6424 18.3063C80.5727 23.5924 80.6992 30.0508 81.5204 33.9528C83.1731 41.7954 89.283 42.4978 89.283 42.4978C89.283 42.4978 89.2133 44.6412 89.1487 47.2726C89.1223 48.3936 89.3232 49.5084 89.7394 50.5498C90.1555 51.5911 90.7782 52.5373 91.5699 53.3315C92.3616 54.1256 93.306 54.7512 94.346 55.1705C95.3861 55.5898 96.5003 55.7941 97.6214 55.7711C99.7876 55.728 101.851 54.8395 103.371 53.2954C104.891 51.7514 105.747 49.6742 105.756 47.5076L105.882 13.5263C105.863 12.8282 105.582 12.1629 105.095 11.6622C104.608 11.1615 103.951 10.8618 103.254 10.8226Z" fill="#D38176"/>
<path d="M83.1882 24.083C83.1983 24.3483 83.3123 24.5991 83.5055 24.7812C83.6987 24.9633 83.9557 25.0622 84.2212 25.0566C84.3507 25.0607 84.4798 25.0388 84.6007 24.9922C84.7216 24.9455 84.8319 24.8751 84.9251 24.785C85.0183 24.695 85.0925 24.5871 85.1432 24.4679C85.194 24.3486 85.2203 24.2204 85.2205 24.0908C85.2104 23.8255 85.0965 23.5747 84.9033 23.3926C84.7101 23.2105 84.4531 23.1116 84.1876 23.1172C84.0581 23.1131 83.929 23.135 83.8081 23.1816C83.6872 23.2283 83.5769 23.2987 83.4837 23.3888C83.3905 23.4788 83.3163 23.5867 83.2656 23.7059C83.2148 23.8252 83.1885 23.9534 83.1882 24.083Z" fill="#263238"/>
<path d="M82.2072 21.0048C82.3415 21.1314 83.08 20.5245 84.1724 20.4729C85.2647 20.4212 86.0911 20.9274 86.2021 20.7879C86.2563 20.7259 86.1169 20.4935 85.7554 20.2559C85.2671 19.9528 84.6971 19.8076 84.1233 19.8402C83.5571 19.8675 83.0143 20.0747 82.5739 20.4315C82.2459 20.7053 82.1426 20.9506 82.2072 21.0048Z" fill="#263238"/>
<path d="M89.3911 29.5473C89.3911 29.4853 88.7093 29.4027 87.6015 29.3174C87.3226 29.3019 87.054 29.2606 86.9998 29.0721C86.9456 28.8836 87.0256 28.5556 87.1444 28.2354C87.3717 27.5485 87.6092 26.828 87.8623 26.074C88.8539 22.9958 89.5589 20.4703 89.4324 20.4315C89.3059 20.3928 88.3994 22.8564 87.4104 25.9345L86.7287 28.1063C86.6383 28.4291 86.4704 28.7984 86.6383 29.209C86.6835 29.3052 86.75 29.3898 86.8327 29.4565C86.9155 29.5232 87.0124 29.5701 87.116 29.5937C87.2731 29.6262 87.4334 29.6401 87.5938 29.6351C88.7016 29.6402 89.3885 29.6067 89.3911 29.5473Z" fill="#263238"/>
<path d="M89.2853 42.4978C93.0116 42.3674 96.6286 41.2052 99.7335 39.1407C99.7335 39.1407 97.1873 44.7625 89.2336 44.4191L89.2853 42.4978Z" fill="#794742"/>
<path d="M89.9825 32.1555C90.1768 31.8831 90.4375 31.6649 90.7399 31.5216C91.0423 31.3783 91.3762 31.3147 91.7101 31.3368C91.952 31.3458 92.1895 31.4038 92.4083 31.5072C92.6271 31.6106 92.8227 31.7574 92.9832 31.9385C93.1373 32.1125 93.2345 32.3294 93.2617 32.5602C93.289 32.7911 93.2449 33.0247 93.1356 33.2297C92.8618 33.6584 92.2498 33.7849 91.723 33.6636C91.1978 33.5075 90.7088 33.2485 90.2846 32.9018C90.1582 32.8193 90.0472 32.7153 89.9567 32.5945C89.9139 32.5358 89.8893 32.4658 89.8861 32.3932C89.8829 32.3206 89.9012 32.2487 89.9386 32.1864" fill="#794742"/>
<path d="M92.6295 30.1412C92.4513 30.1412 92.5081 31.3239 91.5371 32.2071C90.5662 33.0903 89.2982 33.0334 89.2957 33.1987C89.2957 33.2736 89.59 33.4156 90.122 33.4027C90.8168 33.3781 91.4807 33.1093 91.9968 32.6435C92.4901 32.1951 92.7908 31.5732 92.8361 30.9082C92.8671 30.4175 92.7199 30.1231 92.6295 30.1412Z" fill="#263238"/>
<path d="M82.8837 17.9551C83.0877 18.1926 83.8263 17.8982 84.7301 17.8414C85.6339 17.7846 86.4086 17.9241 86.5713 17.6555C86.641 17.5264 86.5093 17.2836 86.1633 17.0667C85.6997 16.8083 85.1698 16.6931 84.6407 16.7359C84.1116 16.7786 83.6071 16.9773 83.191 17.3069C82.8837 17.578 82.7933 17.8389 82.8837 17.9551Z" fill="#263238"/>
<path d="M95.4156 24.0184C95.4206 24.2824 95.3226 24.538 95.1422 24.7308C94.9619 24.9237 94.7135 25.0387 94.4498 25.0514C94.3209 25.063 94.1909 25.0489 94.0675 25.0097C93.9441 24.9705 93.8297 24.9071 93.7312 24.8231C93.6326 24.7392 93.5517 24.6365 93.4933 24.5209C93.4349 24.4053 93.4001 24.2793 93.3911 24.1501C93.386 23.8862 93.4841 23.6306 93.6644 23.4378C93.8447 23.2449 94.0931 23.1299 94.3569 23.1172C94.4858 23.1055 94.6158 23.1197 94.7392 23.1589C94.8626 23.1981 94.9769 23.2615 95.0755 23.3455C95.1741 23.4294 95.255 23.5321 95.3134 23.6477C95.3718 23.7632 95.4065 23.8893 95.4156 24.0184Z" fill="#263238"/>
<path d="M97.2776 20.8783C97.1536 21.0126 96.3763 20.4522 95.284 20.4703C94.1917 20.4884 93.3989 21.0436 93.2775 20.9093C93.2181 20.8525 93.3447 20.6097 93.6907 20.3515C94.1595 20.0187 94.7194 19.8384 95.2943 19.835C95.8624 19.826 96.4186 19.9978 96.8825 20.3257C97.2337 20.5684 97.3499 20.8266 97.2776 20.8783Z" fill="#263238"/>
<path d="M96.8129 17.4128C96.6244 17.671 95.8678 17.4128 94.9614 17.4128C94.055 17.4128 93.2932 17.6013 93.1124 17.3431C93.0349 17.2191 93.1511 16.9686 93.4843 16.7285C93.931 16.4422 94.4525 16.2949 94.9829 16.305C95.5133 16.3151 96.0289 16.4822 96.4643 16.7853C96.7871 17.0383 96.8956 17.2914 96.8129 17.4128Z" fill="#263238"/>
<path d="M94.4371 5.96004C96.9626 4.9271 100.828 5.28605 102.998 6.93359C105.167 8.58113 106.52 11.1583 107.016 13.8362C107.512 16.5141 106.848 20.4832 106.14 23.1146C102.05 17.8466 97.8406 11.7703 93.8948 6.39388L94.4371 5.96004Z" fill="#263238"/>
<path d="M92.4925 3.56619C78.633 1.61392 79.9449 19.3341 79.9449 19.3341C85.9876 15.0189 92.0484 6.77089 92.0484 6.77089L94.233 6.40161L92.4925 3.56619Z" fill="#263238"/>
<path d="M104.307 26.8797C104.278 26.2909 104.888 24.868 105.466 24.7493C107.016 24.429 109.812 24.4135 110.037 28.3646C110.342 33.7565 104.872 32.9508 104.849 32.7959C104.826 32.6409 104.402 28.912 104.307 26.8797Z" fill="#D38176"/>
<path d="M106.381 30.6396C106.404 30.6216 106.479 30.7016 106.639 30.7636C106.867 30.8472 107.119 30.8389 107.341 30.7403C107.899 30.4976 108.325 29.568 108.297 28.5944C108.285 28.1314 108.169 27.6769 107.958 27.2645C107.77 26.8797 107.501 26.6189 107.212 26.5853C107.103 26.562 106.989 26.5779 106.89 26.6304C106.791 26.6828 106.714 26.7683 106.672 26.872C106.608 27.0269 106.649 27.1302 106.621 27.1431C106.592 27.156 106.499 27.0605 106.53 26.8358C106.553 26.7 106.621 26.576 106.724 26.4846C106.868 26.3634 107.053 26.3039 107.24 26.3193C107.656 26.3193 108.051 26.686 108.273 27.0941C108.529 27.5472 108.67 28.0561 108.684 28.5763C108.71 29.6661 108.211 30.7145 107.447 30.9831C107.305 31.0354 107.152 31.0549 107.001 31.0402C106.85 31.0254 106.704 30.9768 106.574 30.8979C106.396 30.7817 106.362 30.6629 106.381 30.6396Z" fill="#794742"/>
<path d="M91.2917 6.4016C91.9588 6.29417 92.6424 6.36637 93.2724 6.61077C93.7039 6.75861 94.1249 6.93547 94.5326 7.14015L94.8631 7.30542C94.9638 7.35707 95.1213 7.4552 95.2505 7.53525C95.5099 7.71319 95.7559 7.90998 95.9864 8.12403C96.4479 8.55454 96.8793 9.01614 97.2776 9.50559L97.8793 10.2209C97.9774 10.3371 98.0781 10.4507 98.1763 10.5566L98.5094 10.9156C99.4184 11.902 100.449 12.9685 101.541 14.2003C102.759 15.5363 103.84 16.9915 104.766 18.5438C105.279 19.4238 105.719 20.3445 106.081 21.2966C106.433 22.2752 106.727 23.2738 106.961 24.287C107.437 26.3787 107.702 28.513 107.752 30.6577C107.784 31.9353 107.746 33.2138 107.638 34.4873C109.579 36.1675 111.159 38.2237 112.283 40.5317C113.407 42.8397 114.051 45.3516 114.177 47.9156C114.386 49.292 113.603 50.9602 112.49 51.9854C112.291 52.2545 112.071 52.5075 111.832 52.742C111.265 53.3199 110.595 53.7867 109.856 54.1184C109.334 54.3471 108.777 54.4843 108.209 54.5238C107.493 54.5774 106.775 54.442 106.127 54.1313C105.428 53.7745 104.826 53.2524 104.374 52.6103C103.936 51.9931 103.588 51.3166 103.341 50.6012C102.802 49.111 102.531 47.5375 102.538 45.953C102.552 44.2822 102.703 42.6154 102.987 40.969C103.245 39.2957 103.56 37.6429 103.739 35.9644C103.934 34.2355 104.009 32.4952 103.966 30.7558C103.923 28.8473 103.712 26.9463 103.336 25.0746C103.159 24.203 102.938 23.3411 102.672 22.4923C102.41 21.7071 102.088 20.9431 101.709 20.2069C100.948 18.7933 100.071 17.4458 99.0853 16.1784C98.1504 14.9234 97.2208 13.7355 96.4125 12.6044L96.1104 12.1783C96.0019 12.0234 95.9038 11.8736 95.8108 11.729C95.6223 11.4372 95.4596 11.166 95.2944 10.9078C94.9819 10.3913 94.7004 9.94201 94.4215 9.57015C94.2958 9.40069 94.1604 9.2386 94.0161 9.08467C93.9412 9.01494 93.9025 8.96588 93.8018 8.88324L93.5435 8.66374C93.1975 8.3771 92.8902 8.14727 92.6061 7.93035C92.1836 7.61802 91.725 7.3579 91.2401 7.15565C90.9018 7.01878 90.6745 6.94648 90.6487 6.81219C90.6229 6.67791 90.8217 6.50747 91.2917 6.4016Z" fill="#263238"/>
<path d="M126.066 54.9732C125.033 53.4883 123.716 52.0112 121.991 51.3243C120.057 50.5496 116.886 51.5825 115.019 52.5199C113.151 53.4573 111.277 54.5858 109.193 54.6065C108.282 54.6459 107.386 54.3573 106.67 53.793C105.985 53.2043 105.611 52.2152 105.895 51.3605C106.29 50.2061 107.625 49.7336 108.588 48.9847C110.076 47.8355 110.747 45.922 111.093 44.0782C111.439 42.2344 111.54 40.3157 112.227 38.5649C114.197 39.8044 112.862 43.3577 114.626 44.8813C115.566 45.6948 116.95 45.5424 118.195 45.6973C120.116 45.9375 123.07 47.2261 124.106 48.8607C125.141 50.4954 126.833 52.8479 126.053 54.9783" fill="#263238"/>
<path d="M104.304 29.6351C104.304 36.579 102.352 44.1557 102.768 48.4682C103.184 52.7807 103.214 55.1539 103.302 59.4845C103.382 63.6104 102.493 67.6974 100.707 71.4176C103.674 70.6661 106.835 69.801 108.844 67.4924C111.096 64.9101 111.323 61.1966 111.741 57.7905C112.16 54.3844 114.215 52.3392 117.257 51.6161L104.304 29.6351Z" fill="#263238"/>
</g>
<g filter="url(#filter0_b_206:36924)">
<rect x="13" y="77" width="141" height="77" rx="10" fill="black" fill-opacity="0.8"/>
</g>
<path d="M40.5038 95.496L40.4618 97.932L41.7218 97.946L43.2478 97.904L43.3738 98.044L43.2338 99.458L41.5678 99.416L40.4338 99.43L40.4198 100.144L40.5038 103H38.5998L38.6978 100.312L38.5998 93.984H43.9618L44.0738 94.138L43.9338 95.566L41.7918 95.482L40.5038 95.496ZM44.8726 100.312L44.8026 96.616L46.6366 96.462L46.5526 100.13L46.6366 103H44.7746L44.8726 100.312ZM45.7546 93.298C46.0439 93.298 46.2679 93.382 46.4266 93.55C46.5946 93.718 46.6786 93.9513 46.6786 94.25C46.6786 94.5673 46.5899 94.8193 46.4126 95.006C46.2352 95.1927 45.9926 95.286 45.6846 95.286C45.3766 95.286 45.1386 95.202 44.9706 95.034C44.8119 94.866 44.7326 94.628 44.7326 94.32C44.7326 94.012 44.8212 93.7647 44.9986 93.578C45.1852 93.3913 45.4372 93.298 45.7546 93.298ZM53.787 96.378L53.941 96.462L53.829 100.13L53.927 105.59H52.079L52.163 102.65V102.3H52.051C51.6683 102.627 51.2483 102.893 50.791 103.098C49.8856 103.098 49.1856 102.809 48.691 102.23C48.1963 101.642 47.949 100.839 47.949 99.822C47.949 98.7113 48.2383 97.862 48.817 97.274C49.3956 96.6767 50.1703 96.378 51.141 96.378C51.645 96.378 52.205 96.4807 52.821 96.686L53.787 96.378ZM51.085 97.638C50.161 97.638 49.699 98.254 49.699 99.486C49.699 100.186 49.8063 100.723 50.021 101.096C50.245 101.46 50.567 101.642 50.987 101.642C51.183 101.642 51.3743 101.6 51.561 101.516C51.757 101.423 51.9576 101.273 52.163 101.068L52.177 100.326L52.135 97.932C51.7616 97.736 51.4116 97.638 51.085 97.638ZM61.8727 101.782L61.7047 102.762C61.3594 102.986 61.0047 103.103 60.6407 103.112C60.3701 103.065 60.1461 102.958 59.9687 102.79C59.7914 102.622 59.6561 102.379 59.5627 102.062H59.4367C58.9047 102.585 58.3541 102.925 57.7847 103.084C57.0754 103.084 56.5341 102.925 56.1607 102.608C55.7967 102.281 55.6194 101.815 55.6287 101.208L55.6567 99.556L55.5867 96.616L57.3927 96.462L57.3507 100.592C57.3414 100.919 57.4067 101.166 57.5467 101.334C57.6867 101.502 57.8967 101.586 58.1767 101.586C58.5874 101.586 58.9934 101.404 59.3947 101.04V96.616L61.1727 96.462L61.0467 101.306C61.0467 101.455 61.0701 101.563 61.1167 101.628C61.1727 101.693 61.2567 101.726 61.3687 101.726C61.4714 101.726 61.5974 101.707 61.7467 101.67L61.8727 101.782ZM68.0112 99.976L64.2312 100.004C64.3152 101.171 64.9079 101.754 66.0092 101.754C66.5879 101.754 67.2319 101.591 67.9412 101.264L68.0952 101.362L67.8152 102.748C67.1059 103.009 66.4385 103.14 65.8132 103.14C64.7865 103.14 63.9792 102.841 63.3912 102.244C62.8125 101.647 62.5232 100.821 62.5232 99.766C62.5232 98.7207 62.8079 97.8947 63.3772 97.288C63.9465 96.672 64.7165 96.364 65.6872 96.364C66.5179 96.364 67.1572 96.5927 67.6052 97.05C68.0625 97.498 68.2912 98.128 68.2912 98.94C68.2912 99.1547 68.2679 99.4253 68.2212 99.752L68.0112 99.976ZM66.6672 98.73C66.6672 98.3567 66.5832 98.0767 66.4152 97.89C66.2472 97.694 65.9999 97.596 65.6732 97.596C65.3092 97.596 65.0059 97.7173 64.7632 97.96C64.5205 98.1933 64.3572 98.534 64.2732 98.982L66.6392 98.926L66.6672 98.73ZM77.1258 100.13L77.1678 101.306C77.1678 101.465 77.1865 101.577 77.2238 101.642C77.2705 101.698 77.3498 101.726 77.4618 101.726C77.5645 101.726 77.6905 101.707 77.8398 101.67L77.9658 101.782L77.8118 102.762C77.4945 102.958 77.1492 103.075 76.7758 103.112C76.4865 103.084 76.2438 102.986 76.0478 102.818C75.8518 102.65 75.7165 102.421 75.6418 102.132H75.5298C75.0725 102.552 74.6058 102.874 74.1298 103.098C73.2152 103.098 72.5058 102.809 72.0018 102.23C71.4978 101.642 71.2458 100.83 71.2458 99.794C71.2458 98.6927 71.5352 97.848 72.1138 97.26C72.6925 96.672 73.4952 96.378 74.5218 96.378C74.7925 96.378 75.0912 96.406 75.4178 96.462L75.3898 93.312L77.2378 93.172L77.1258 100.13ZM74.3958 97.638C73.4625 97.638 72.9958 98.2307 72.9958 99.416C72.9958 100.153 73.1078 100.709 73.3318 101.082C73.5558 101.455 73.8825 101.642 74.3118 101.642C74.7225 101.642 75.1005 101.451 75.4458 101.068L75.4738 100.298L75.4318 97.89C75.0678 97.722 74.7225 97.638 74.3958 97.638ZM84.103 99.976L80.323 100.004C80.407 101.171 80.9997 101.754 82.101 101.754C82.6797 101.754 83.3237 101.591 84.033 101.264L84.187 101.362L83.907 102.748C83.1977 103.009 82.5303 103.14 81.905 103.14C80.8783 103.14 80.071 102.841 79.483 102.244C78.9043 101.647 78.615 100.821 78.615 99.766C78.615 98.7207 78.8997 97.8947 79.469 97.288C80.0383 96.672 80.8083 96.364 81.779 96.364C82.6097 96.364 83.249 96.5927 83.697 97.05C84.1543 97.498 84.383 98.128 84.383 98.94C84.383 99.1547 84.3597 99.4253 84.313 99.752L84.103 99.976ZM82.759 98.73C82.759 98.3567 82.675 98.0767 82.507 97.89C82.339 97.694 82.0917 97.596 81.765 97.596C81.401 97.596 81.0977 97.7173 80.855 97.96C80.6123 98.1933 80.449 98.534 80.365 98.982L82.731 98.926L82.759 98.73ZM90.4876 96.364C91.4396 96.364 92.1676 96.644 92.6716 97.204C93.1756 97.764 93.4276 98.5713 93.4276 99.626C93.4276 100.765 93.157 101.637 92.6156 102.244C92.0743 102.841 91.295 103.14 90.2776 103.14C89.3256 103.14 88.5976 102.86 88.0936 102.3C87.5896 101.74 87.3376 100.933 87.3376 99.878C87.3376 98.7393 87.6083 97.8713 88.1496 97.274C88.691 96.6673 89.4703 96.364 90.4876 96.364ZM90.3616 97.624C89.9136 97.624 89.587 97.7733 89.3816 98.072C89.1856 98.3707 89.0876 98.8513 89.0876 99.514C89.0876 100.373 89.1903 100.984 89.3956 101.348C89.601 101.712 89.937 101.894 90.4036 101.894C90.8516 101.894 91.1736 101.749 91.3696 101.46C91.575 101.161 91.6776 100.676 91.6776 100.004C91.6776 99.1547 91.5703 98.548 91.3556 98.184C91.1503 97.8107 90.819 97.624 90.3616 97.624ZM96.5236 100.13L96.6216 103H94.7596L94.8576 100.298L94.7736 93.312L96.6356 93.172L96.5236 100.13ZM102.441 98.94C102.451 98.604 102.381 98.3473 102.231 98.17C102.082 97.9927 101.863 97.904 101.573 97.904C101.153 97.904 100.705 98.1047 100.229 98.506L100.201 100.13L100.299 103H98.4373L98.5353 100.298L98.4513 93.312L100.313 93.172L100.243 97.414H100.327C100.841 96.9473 101.405 96.6113 102.021 96.406C102.731 96.406 103.267 96.5693 103.631 96.896C104.005 97.2133 104.187 97.6753 104.177 98.282L104.135 100.144L104.205 103H102.343L102.441 98.94ZM108.548 96.364C109.5 96.364 110.228 96.644 110.732 97.204C111.236 97.764 111.488 98.5713 111.488 99.626C111.488 100.765 111.218 101.637 110.676 102.244C110.135 102.841 109.356 103.14 108.338 103.14C107.386 103.14 106.658 102.86 106.154 102.3C105.65 101.74 105.398 100.933 105.398 99.878C105.398 98.7393 105.669 97.8713 106.21 97.274C106.752 96.6673 107.531 96.364 108.548 96.364ZM108.422 97.624C107.974 97.624 107.648 97.7733 107.442 98.072C107.246 98.3707 107.148 98.8513 107.148 99.514C107.148 100.373 107.251 100.984 107.456 101.348C107.662 101.712 107.998 101.894 108.464 101.894C108.912 101.894 109.234 101.749 109.43 101.46C109.636 101.161 109.738 100.676 109.738 100.004C109.738 99.1547 109.631 98.548 109.416 98.184C109.211 97.8107 108.88 97.624 108.422 97.624ZM118.887 98.94C118.897 98.6133 118.822 98.3613 118.663 98.184C118.514 97.9973 118.295 97.904 118.005 97.904C117.585 97.904 117.137 98.1047 116.661 98.506V100.13L116.745 103H114.883L114.981 100.312L114.911 96.616L116.675 96.462V97.414H116.773C117.287 96.9473 117.847 96.6113 118.453 96.406C119.163 96.406 119.704 96.5693 120.077 96.896C120.451 97.2133 120.628 97.6753 120.609 98.282L120.567 100.144L120.651 103H118.775L118.887 98.94ZM124.995 96.364C125.947 96.364 126.675 96.644 127.179 97.204C127.683 97.764 127.935 98.5713 127.935 99.626C127.935 100.765 127.665 101.637 127.123 102.244C126.582 102.841 125.803 103.14 124.785 103.14C123.833 103.14 123.105 102.86 122.601 102.3C122.097 101.74 121.845 100.933 121.845 99.878C121.845 98.7393 122.116 97.8713 122.657 97.274C123.199 96.6673 123.978 96.364 124.995 96.364ZM124.869 97.624C124.421 97.624 124.095 97.7733 123.889 98.072C123.693 98.3707 123.595 98.8513 123.595 99.514C123.595 100.373 123.698 100.984 123.903 101.348C124.109 101.712 124.445 101.894 124.911 101.894C125.359 101.894 125.681 101.749 125.877 101.46C126.083 101.161 126.185 100.676 126.185 100.004C126.185 99.1547 126.078 98.548 125.863 98.184C125.658 97.8107 125.327 97.624 124.869 97.624ZM131.395 96.378C132.03 96.378 132.627 96.4853 133.187 96.7L132.935 98.072L132.711 98.142C132.441 97.9647 132.17 97.8293 131.899 97.736C131.629 97.6427 131.391 97.596 131.185 97.596C130.961 97.596 130.784 97.6567 130.653 97.778C130.523 97.89 130.457 98.03 130.457 98.198C130.457 98.394 130.541 98.5527 130.709 98.674C130.887 98.7953 131.162 98.9307 131.535 99.08C131.909 99.2293 132.217 99.374 132.459 99.514C132.702 99.654 132.907 99.85 133.075 100.102C133.253 100.345 133.341 100.648 133.341 101.012C133.341 101.385 133.243 101.735 133.047 102.062C132.861 102.379 132.571 102.641 132.179 102.846C131.787 103.042 131.307 103.14 130.737 103.14C130.065 103.14 129.37 103 128.651 102.72L128.861 101.264L129.043 101.152C129.333 101.395 129.655 101.591 130.009 101.74C130.364 101.88 130.677 101.95 130.947 101.95C131.199 101.95 131.395 101.889 131.535 101.768C131.675 101.637 131.745 101.483 131.745 101.306C131.745 101.11 131.657 100.951 131.479 100.83C131.311 100.709 131.041 100.573 130.667 100.424C130.285 100.256 129.972 100.107 129.729 99.976C129.487 99.836 129.277 99.64 129.099 99.388C128.931 99.136 128.847 98.8233 128.847 98.45C128.847 97.8433 129.076 97.3487 129.533 96.966C129.991 96.574 130.611 96.378 131.395 96.378ZM36.5416 114.94C36.5509 114.613 36.4763 114.361 36.3176 114.184C36.1683 113.997 35.9489 113.904 35.6596 113.904C35.2396 113.904 34.7916 114.105 34.3156 114.506V116.13L34.3996 119H32.5376L32.6356 116.312L32.5656 112.616L34.3296 112.462V113.414H34.4276C34.9409 112.947 35.5009 112.611 36.1076 112.406C36.8169 112.406 37.3583 112.569 37.7316 112.896C38.1049 113.213 38.2823 113.675 38.2636 114.282L38.2216 116.144L38.3056 119H36.4296L36.5416 114.94ZM40.0738 116.312L40.0038 112.616L41.8378 112.462L41.7538 116.13L41.8378 119H39.9758L40.0738 116.312ZM42.2718 108.878L42.9438 109.886L42.9158 110.068C42.7104 110.199 42.5564 110.292 42.4538 110.348C41.2871 111.067 40.5311 111.524 40.1858 111.72L40.0038 111.706L39.5557 111.006C40.6384 110.138 41.4831 109.424 42.0898 108.864L42.2718 108.878ZM44.8161 113.526L45.7961 117.25H45.8941L47.0701 113.624L47.3081 112.49H48.9321L46.7481 119H44.7461L42.8981 112.532L44.6341 112.448L44.8161 113.526ZM54.7085 115.976L50.9285 116.004C51.0125 117.171 51.6051 117.754 52.7065 117.754C53.2851 117.754 53.9291 117.591 54.6385 117.264L54.7925 117.362L54.5125 118.748C53.8031 119.009 53.1358 119.14 52.5105 119.14C51.4838 119.14 50.6765 118.841 50.0885 118.244C49.5098 117.647 49.2205 116.821 49.2205 115.766C49.2205 114.721 49.5051 113.895 50.0745 113.288C50.6438 112.672 51.4138 112.364 52.3845 112.364C53.2151 112.364 53.8545 112.593 54.3025 113.05C54.7598 113.498 54.9885 114.128 54.9885 114.94C54.9885 115.155 54.9651 115.425 54.9185 115.752L54.7085 115.976ZM53.3645 114.73C53.3645 114.357 53.2805 114.077 53.1125 113.89C52.9445 113.694 52.6971 113.596 52.3705 113.596C52.0065 113.596 51.7031 113.717 51.4605 113.96C51.2178 114.193 51.0545 114.534 50.9705 114.982L53.3365 114.926L53.3645 114.73ZM56.398 116.312L56.328 112.616L58.162 112.462L58.078 116.13L58.162 119H56.3L56.398 116.312ZM57.28 109.298C57.5693 109.298 57.7933 109.382 57.952 109.55C58.12 109.718 58.204 109.951 58.204 110.25C58.204 110.567 58.1153 110.819 57.938 111.006C57.7606 111.193 57.518 111.286 57.21 111.286C56.902 111.286 56.664 111.202 56.496 111.034C56.3373 110.866 56.258 110.628 56.258 110.32C56.258 110.012 56.3466 109.765 56.524 109.578C56.7106 109.391 56.9626 109.298 57.28 109.298ZM62.1064 112.378C62.741 112.378 63.3384 112.485 63.8984 112.7L63.6464 114.072L63.4224 114.142C63.1517 113.965 62.881 113.829 62.6104 113.736C62.3397 113.643 62.1017 113.596 61.8964 113.596C61.6724 113.596 61.495 113.657 61.3644 113.778C61.2337 113.89 61.1684 114.03 61.1684 114.198C61.1684 114.394 61.2524 114.553 61.4204 114.674C61.5977 114.795 61.873 114.931 62.2464 115.08C62.6197 115.229 62.9277 115.374 63.1704 115.514C63.413 115.654 63.6184 115.85 63.7864 116.102C63.9637 116.345 64.0524 116.648 64.0524 117.012C64.0524 117.385 63.9544 117.735 63.7584 118.062C63.5717 118.379 63.2824 118.641 62.8904 118.846C62.4984 119.042 62.0177 119.14 61.4484 119.14C60.7764 119.14 60.081 119 59.3624 118.72L59.5724 117.264L59.7544 117.152C60.0437 117.395 60.3657 117.591 60.7204 117.74C61.075 117.88 61.3877 117.95 61.6584 117.95C61.9104 117.95 62.1064 117.889 62.2464 117.768C62.3864 117.637 62.4564 117.483 62.4564 117.306C62.4564 117.11 62.3677 116.951 62.1904 116.83C62.0224 116.709 61.7517 116.573 61.3784 116.424C60.9957 116.256 60.683 116.107 60.4404 115.976C60.1977 115.836 59.9877 115.64 59.8104 115.388C59.6424 115.136 59.5584 114.823 59.5584 114.45C59.5584 113.843 59.787 113.349 60.2444 112.966C60.7017 112.574 61.3224 112.378 62.1064 112.378ZM72.8465 116.13L72.8885 117.306C72.8885 117.465 72.9072 117.577 72.9445 117.642C72.9912 117.698 73.0705 117.726 73.1825 117.726C73.2852 117.726 73.4112 117.707 73.5605 117.67L73.6865 117.782L73.5325 118.762C73.2152 118.958 72.8699 119.075 72.4965 119.112C72.2072 119.084 71.9645 118.986 71.7685 118.818C71.5725 118.65 71.4372 118.421 71.3625 118.132H71.2505C70.7932 118.552 70.3265 118.874 69.8505 119.098C68.9359 119.098 68.2265 118.809 67.7225 118.23C67.2185 117.642 66.9665 116.83 66.9665 115.794C66.9665 114.693 67.2559 113.848 67.8345 113.26C68.4132 112.672 69.2159 112.378 70.2425 112.378C70.5132 112.378 70.8119 112.406 71.1385 112.462L71.1105 109.312L72.9585 109.172L72.8465 116.13ZM70.1165 113.638C69.1832 113.638 68.7165 114.231 68.7165 115.416C68.7165 116.153 68.8285 116.709 69.0525 117.082C69.2765 117.455 69.6032 117.642 70.0325 117.642C70.4432 117.642 70.8212 117.451 71.1665 117.068L71.1945 116.298L71.1525 113.89C70.7885 113.722 70.4432 113.638 70.1165 113.638ZM79.8237 115.976L76.0437 116.004C76.1277 117.171 76.7204 117.754 77.8217 117.754C78.4004 117.754 79.0444 117.591 79.7537 117.264L79.9077 117.362L79.6277 118.748C78.9184 119.009 78.251 119.14 77.6257 119.14C76.599 119.14 75.7917 118.841 75.2037 118.244C74.625 117.647 74.3357 116.821 74.3357 115.766C74.3357 114.721 74.6204 113.895 75.1897 113.288C75.759 112.672 76.529 112.364 77.4997 112.364C78.3304 112.364 78.9697 112.593 79.4177 113.05C79.875 113.498 80.1037 114.128 80.1037 114.94C80.1037 115.155 80.0804 115.425 80.0337 115.752L79.8237 115.976ZM78.4797 114.73C78.4797 114.357 78.3957 114.077 78.2277 113.89C78.0597 113.694 77.8124 113.596 77.4857 113.596C77.1217 113.596 76.8184 113.717 76.5757 113.96C76.333 114.193 76.1697 114.534 76.0857 114.982L78.4517 114.926L78.4797 114.73ZM86.0683 112.364C86.787 112.364 87.347 112.527 87.7483 112.854C88.159 113.171 88.3643 113.619 88.3643 114.198C88.3643 114.366 88.3363 114.898 88.2803 115.794C88.271 116.055 88.257 116.326 88.2383 116.606C88.2197 116.877 88.2103 117.11 88.2103 117.306C88.2103 117.465 88.2337 117.577 88.2803 117.642C88.327 117.698 88.411 117.726 88.5323 117.726C88.6257 117.726 88.747 117.707 88.8963 117.67L89.0363 117.782L88.8683 118.762C88.5697 118.958 88.229 119.075 87.8463 119.112C87.5663 119.084 87.333 118.986 87.1463 118.818C86.9597 118.641 86.8337 118.398 86.7683 118.09H86.6703C86.2037 118.585 85.723 118.93 85.2283 119.126C84.5563 119.117 84.029 118.939 83.6463 118.594C83.2637 118.249 83.0723 117.777 83.0723 117.18C83.0723 116.713 83.189 116.349 83.4223 116.088C83.665 115.817 84.029 115.635 84.5143 115.542L86.6563 115.136V114.562C86.6563 113.955 86.3577 113.652 85.7603 113.652C85.471 113.652 85.163 113.717 84.8363 113.848C84.519 113.979 84.1597 114.184 83.7583 114.464L83.6183 114.38L83.4083 113.148C83.8097 112.896 84.239 112.705 84.6963 112.574C85.1537 112.434 85.611 112.364 86.0683 112.364ZM85.1583 116.396C85.009 116.433 84.897 116.499 84.8223 116.592C84.757 116.676 84.7243 116.807 84.7243 116.984C84.7243 117.227 84.7897 117.418 84.9203 117.558C85.051 117.689 85.233 117.754 85.4663 117.754C85.8303 117.754 86.213 117.539 86.6143 117.11L86.6423 116.074L85.1583 116.396ZM92.9206 112.364C93.2286 112.364 93.5319 112.397 93.8306 112.462C94.1386 112.518 94.4092 112.602 94.6426 112.714L94.3346 114.198L94.1806 114.268C93.7046 114.007 93.2799 113.876 92.9066 113.876C92.4772 113.876 92.1459 114.03 91.9126 114.338C91.6792 114.646 91.5626 115.085 91.5626 115.654C91.5626 116.307 91.6886 116.807 91.9406 117.152C92.1926 117.497 92.5519 117.67 93.0186 117.67C93.4386 117.67 93.9052 117.553 94.4186 117.32L94.5586 117.432L94.3766 118.874C93.8166 119.051 93.2426 119.14 92.6546 119.14C91.7586 119.14 91.0586 118.851 90.5546 118.272C90.0506 117.684 89.7986 116.867 89.7986 115.822C89.7986 114.739 90.0739 113.895 90.6246 113.288C91.1752 112.672 91.9406 112.364 92.9206 112.364ZM92.9066 119.672L93.3826 119.938C93.5879 120.05 93.7326 120.171 93.8166 120.302C93.9099 120.442 93.9566 120.596 93.9566 120.764C93.9566 121.072 93.8352 121.324 93.5926 121.52C93.3499 121.716 93.0326 121.814 92.6406 121.814C92.2206 121.814 91.8379 121.683 91.4926 121.422L91.6186 120.638L91.7026 120.596C91.9826 120.876 92.2579 121.016 92.5286 121.016C92.7526 121.016 92.8646 120.918 92.8646 120.722C92.8646 120.657 92.8459 120.601 92.8086 120.554C92.7712 120.517 92.7106 120.479 92.6266 120.442L91.9406 120.05L92.2626 118.636H93.1586L92.9066 119.672ZM101.849 117.782L101.681 118.762C101.336 118.986 100.981 119.103 100.617 119.112C100.347 119.065 100.123 118.958 99.9453 118.79C99.768 118.622 99.6326 118.379 99.5393 118.062H99.4133C98.8813 118.585 98.3306 118.925 97.7613 119.084C97.052 119.084 96.5106 118.925 96.1373 118.608C95.7733 118.281 95.596 117.815 95.6053 117.208L95.6333 115.556L95.5633 112.616L97.3693 112.462L97.3273 116.592C97.318 116.919 97.3833 117.166 97.5233 117.334C97.6633 117.502 97.8733 117.586 98.1533 117.586C98.564 117.586 98.97 117.404 99.3713 117.04V112.616L101.149 112.462L101.023 117.306C101.023 117.455 101.047 117.563 101.093 117.628C101.149 117.693 101.233 117.726 101.345 117.726C101.448 117.726 101.574 117.707 101.723 117.67L101.849 117.782ZM99.7493 108.878L100.421 109.886L100.393 110.068C100.188 110.199 100.034 110.292 99.9313 110.348C98.7646 111.067 98.0086 111.524 97.6633 111.72L97.4813 111.706L97.0333 111.006C98.116 110.138 98.9606 109.424 99.5673 108.864L99.7493 108.878ZM105.622 112.364C105.93 112.364 106.233 112.397 106.532 112.462C106.84 112.518 107.11 112.602 107.344 112.714L107.036 114.198L106.882 114.268C106.406 114.007 105.981 113.876 105.608 113.876C105.178 113.876 104.847 114.03 104.614 114.338C104.38 114.646 104.264 115.085 104.264 115.654C104.264 116.307 104.39 116.807 104.642 117.152C104.894 117.497 105.253 117.67 105.72 117.67C106.14 117.67 106.606 117.553 107.12 117.32L107.26 117.432L107.078 118.874C106.518 119.051 105.944 119.14 105.356 119.14C104.46 119.14 103.76 118.851 103.256 118.272C102.752 117.684 102.5 116.867 102.5 115.822C102.5 114.739 102.775 113.895 103.326 113.288C103.876 112.672 104.642 112.364 105.622 112.364ZM110.76 112.364C111.478 112.364 112.038 112.527 112.44 112.854C112.85 113.171 113.056 113.619 113.056 114.198C113.056 114.366 113.028 114.898 112.972 115.794C112.962 116.055 112.948 116.326 112.93 116.606C112.911 116.877 112.902 117.11 112.902 117.306C112.902 117.465 112.925 117.577 112.972 117.642C113.018 117.698 113.102 117.726 113.224 117.726C113.317 117.726 113.438 117.707 113.588 117.67L113.728 117.782L113.56 118.762C113.261 118.958 112.92 119.075 112.538 119.112C112.258 119.084 112.024 118.986 111.838 118.818C111.651 118.641 111.525 118.398 111.46 118.09H111.362C110.895 118.585 110.414 118.93 109.92 119.126C109.248 119.117 108.72 118.939 108.338 118.594C107.955 118.249 107.764 117.777 107.764 117.18C107.764 116.713 107.88 116.349 108.114 116.088C108.356 115.817 108.72 115.635 109.206 115.542L111.348 115.136V114.562C111.348 113.955 111.049 113.652 110.452 113.652C110.162 113.652 109.854 113.717 109.528 113.848C109.21 113.979 108.851 114.184 108.45 114.464L108.31 114.38L108.1 113.148C108.501 112.896 108.93 112.705 109.388 112.574C109.845 112.434 110.302 112.364 110.76 112.364ZM109.85 116.396C109.7 116.433 109.588 116.499 109.514 116.592C109.448 116.676 109.416 116.807 109.416 116.984C109.416 117.227 109.481 117.418 109.612 117.558C109.742 117.689 109.924 117.754 110.158 117.754C110.522 117.754 110.904 117.539 111.306 117.11L111.334 116.074L109.85 116.396ZM118.454 112.476C118.538 112.476 118.655 112.485 118.804 112.504V114.226L118.608 114.296C118.449 114.231 118.277 114.198 118.09 114.198C117.549 114.198 117.059 114.548 116.62 115.248V116.13L116.718 119H114.856L114.968 116.312L114.884 112.616L116.648 112.462L116.634 113.736H116.746C117.203 112.896 117.773 112.476 118.454 112.476ZM125.846 114.94C125.856 114.613 125.781 114.361 125.622 114.184C125.473 113.997 125.254 113.904 124.964 113.904C124.544 113.904 124.096 114.105 123.62 114.506V116.13L123.704 119H121.842L121.94 116.312L121.87 112.616L123.634 112.462V113.414H123.732C124.246 112.947 124.806 112.611 125.412 112.406C126.122 112.406 126.663 112.569 127.036 112.896C127.41 113.213 127.587 113.675 127.568 114.282L127.526 116.144L127.61 119H125.734L125.846 114.94ZM131.954 112.364C132.906 112.364 133.634 112.644 134.138 113.204C134.642 113.764 134.894 114.571 134.894 115.626C134.894 116.765 134.624 117.637 134.082 118.244C133.541 118.841 132.762 119.14 131.744 119.14C130.792 119.14 130.064 118.86 129.56 118.3C129.056 117.74 128.804 116.933 128.804 115.878C128.804 114.739 129.075 113.871 129.616 113.274C130.158 112.667 130.937 112.364 131.954 112.364ZM131.828 113.624C131.38 113.624 131.054 113.773 130.848 114.072C130.652 114.371 130.554 114.851 130.554 115.514C130.554 116.373 130.657 116.984 130.862 117.348C131.068 117.712 131.404 117.894 131.87 117.894C132.318 117.894 132.64 117.749 132.836 117.46C133.042 117.161 133.144 116.676 133.144 116.004C133.144 115.155 133.037 114.548 132.822 114.184C132.617 113.811 132.286 113.624 131.828 113.624ZM66.3583 128.378C66.993 128.378 67.5903 128.485 68.1503 128.7L67.8983 130.072L67.6743 130.142C67.4036 129.965 67.133 129.829 66.8623 129.736C66.5916 129.643 66.3536 129.596 66.1483 129.596C65.9243 129.596 65.747 129.657 65.6163 129.778C65.4856 129.89 65.4203 130.03 65.4203 130.198C65.4203 130.394 65.5043 130.553 65.6723 130.674C65.8496 130.795 66.125 130.931 66.4983 131.08C66.8716 131.229 67.1796 131.374 67.4223 131.514C67.665 131.654 67.8703 131.85 68.0383 132.102C68.2156 132.345 68.3043 132.648 68.3043 133.012C68.3043 133.385 68.2063 133.735 68.0103 134.062C67.8236 134.379 67.5343 134.641 67.1423 134.846C66.7503 135.042 66.2696 135.14 65.7003 135.14C65.0283 135.14 64.333 135 63.6143 134.72L63.8243 133.264L64.0063 133.152C64.2956 133.395 64.6176 133.591 64.9723 133.74C65.327 133.88 65.6396 133.95 65.9103 133.95C66.1623 133.95 66.3583 133.889 66.4983 133.768C66.6383 133.637 66.7083 133.483 66.7083 133.306C66.7083 133.11 66.6196 132.951 66.4423 132.83C66.2743 132.709 66.0036 132.573 65.6303 132.424C65.2476 132.256 64.935 132.107 64.6923 131.976C64.4496 131.836 64.2396 131.64 64.0623 131.388C63.8943 131.136 63.8103 130.823 63.8103 130.45C63.8103 129.843 64.039 129.349 64.4963 128.966C64.9536 128.574 65.5743 128.378 66.3583 128.378ZM72.1094 128.364C72.828 128.364 73.388 128.527 73.7894 128.854C74.2 129.171 74.4054 129.619 74.4054 130.198C74.4054 130.366 74.3774 130.898 74.3214 131.794C74.312 132.055 74.298 132.326 74.2794 132.606C74.2607 132.877 74.2514 133.11 74.2514 133.306C74.2514 133.465 74.2747 133.577 74.3214 133.642C74.368 133.698 74.452 133.726 74.5734 133.726C74.6667 133.726 74.788 133.707 74.9374 133.67L75.0774 133.782L74.9094 134.762C74.6107 134.958 74.27 135.075 73.8874 135.112C73.6074 135.084 73.374 134.986 73.1874 134.818C73.0007 134.641 72.8747 134.398 72.8094 134.09H72.7114C72.2447 134.585 71.764 134.93 71.2694 135.126C70.5974 135.117 70.07 134.939 69.6874 134.594C69.3047 134.249 69.1134 133.777 69.1134 133.18C69.1134 132.713 69.23 132.349 69.4634 132.088C69.706 131.817 70.07 131.635 70.5554 131.542L72.6974 131.136V130.562C72.6974 129.955 72.3987 129.652 71.8014 129.652C71.512 129.652 71.204 129.717 70.8774 129.848C70.56 129.979 70.2007 130.184 69.7994 130.464L69.6594 130.38L69.4494 129.148C69.8507 128.896 70.28 128.705 70.7374 128.574C71.1947 128.434 71.652 128.364 72.1094 128.364ZM71.1994 132.396C71.05 132.433 70.938 132.499 70.8634 132.592C70.798 132.676 70.7654 132.807 70.7654 132.984C70.7654 133.227 70.8307 133.418 70.9614 133.558C71.092 133.689 71.274 133.754 71.5074 133.754C71.8714 133.754 72.254 133.539 72.6554 133.11L72.6834 132.074L71.1994 132.396ZM80.2096 130.94C80.2189 130.613 80.1442 130.361 79.9856 130.184C79.8362 129.997 79.6169 129.904 79.3276 129.904C78.9076 129.904 78.4596 130.105 77.9836 130.506V132.13L78.0676 135H76.2056L76.3036 132.312L76.2336 128.616L77.9976 128.462V129.414H78.0956C78.6089 128.947 79.1689 128.611 79.7756 128.406C80.4849 128.406 81.0262 128.569 81.3996 128.896C81.7729 129.213 81.9502 129.675 81.9316 130.282L81.8896 132.144L81.9736 135H80.0976L80.2096 130.94ZM89.8737 129.372C89.6217 129.437 89.2624 129.507 88.7957 129.582L88.7677 129.638C88.9077 129.918 88.9777 130.231 88.9777 130.576C88.9777 131.276 88.7211 131.836 88.2077 132.256C87.7037 132.667 87.0177 132.872 86.1497 132.872C85.8884 132.872 85.6177 132.849 85.3377 132.802C85.2537 132.886 85.1977 132.951 85.1697 132.998C85.1417 133.045 85.1277 133.101 85.1277 133.166C85.1277 133.334 85.2397 133.451 85.4637 133.516C85.6877 133.581 86.0424 133.647 86.5277 133.712C87.0784 133.777 87.5357 133.857 87.8997 133.95C88.2731 134.043 88.5904 134.207 88.8517 134.44C89.1224 134.673 89.2577 135.005 89.2577 135.434C89.2577 135.873 89.1177 136.265 88.8377 136.61C88.5671 136.965 88.1891 137.24 87.7037 137.436C87.2184 137.632 86.6677 137.73 86.0517 137.73C85.2024 137.73 84.5491 137.557 84.0917 137.212C83.6344 136.867 83.4057 136.409 83.4057 135.84C83.6951 135.439 84.0824 135.089 84.5677 134.79V134.72C84.2504 134.608 84.0031 134.454 83.8257 134.258C83.6484 134.053 83.5597 133.782 83.5597 133.446C83.8117 133.138 84.1291 132.853 84.5117 132.592V132.522C84.1757 132.335 83.9191 132.093 83.7417 131.794C83.5737 131.486 83.4897 131.127 83.4897 130.716C83.4897 129.988 83.7417 129.419 84.2457 129.008C84.7497 128.597 85.4357 128.392 86.3037 128.392C86.8077 128.392 87.2651 128.476 87.6757 128.644C88.3477 128.523 89.0337 128.336 89.7337 128.084L89.8737 128.21V129.372ZM86.2057 131.752C86.5884 131.752 86.8777 131.654 87.0737 131.458C87.2697 131.262 87.3677 130.977 87.3677 130.604C87.3677 129.895 87.0037 129.54 86.2757 129.54C85.4917 129.54 85.0997 129.899 85.0997 130.618C85.0997 130.991 85.1931 131.276 85.3797 131.472C85.5664 131.659 85.8417 131.752 86.2057 131.752ZM87.6897 135.77C87.6897 135.518 87.5544 135.345 87.2837 135.252C87.0224 135.159 86.6164 135.079 86.0657 135.014L85.5897 134.944C85.3657 135.093 85.1977 135.238 85.0857 135.378C84.9737 135.518 84.9177 135.667 84.9177 135.826C84.9177 136.069 85.0297 136.265 85.2537 136.414C85.4777 136.563 85.8044 136.638 86.2337 136.638C86.6724 136.638 87.0224 136.559 87.2837 136.4C87.5544 136.251 87.6897 136.041 87.6897 135.77ZM96.8317 133.782L96.6637 134.762C96.3184 134.986 95.9637 135.103 95.5997 135.112C95.3291 135.065 95.1051 134.958 94.9277 134.79C94.7504 134.622 94.6151 134.379 94.5217 134.062H94.3957C93.8637 134.585 93.3131 134.925 92.7437 135.084C92.0344 135.084 91.4931 134.925 91.1197 134.608C90.7557 134.281 90.5784 133.815 90.5877 133.208L90.6157 131.556L90.5457 128.616L92.3517 128.462L92.3097 132.592C92.3004 132.919 92.3657 133.166 92.5057 133.334C92.6457 133.502 92.8557 133.586 93.1357 133.586C93.5464 133.586 93.9524 133.404 94.3537 133.04V128.616L96.1317 128.462L96.0057 133.306C96.0057 133.455 96.0291 133.563 96.0757 133.628C96.1317 133.693 96.2157 133.726 96.3277 133.726C96.4304 133.726 96.5564 133.707 96.7057 133.67L96.8317 133.782ZM102.97 131.976L99.1902 132.004C99.2742 133.171 99.8668 133.754 100.968 133.754C101.547 133.754 102.191 133.591 102.9 133.264L103.054 133.362L102.774 134.748C102.065 135.009 101.398 135.14 100.772 135.14C99.7455 135.14 98.9382 134.841 98.3502 134.244C97.7715 133.647 97.4822 132.821 97.4822 131.766C97.4822 130.721 97.7668 129.895 98.3362 129.288C98.9055 128.672 99.6755 128.364 100.646 128.364C101.477 128.364 102.116 128.593 102.564 129.05C103.022 129.498 103.25 130.128 103.25 130.94C103.25 131.155 103.227 131.425 103.18 131.752L102.97 131.976ZM101.626 130.73C101.626 130.357 101.542 130.077 101.374 129.89C101.206 129.694 100.959 129.596 100.632 129.596C100.268 129.596 99.9648 129.717 99.7222 129.96C99.4795 130.193 99.3162 130.534 99.2322 130.982L101.598 130.926L101.626 130.73Z" fill="white"/>
<defs>
<filter id="filter0_b_206:36924" x="3" y="67" width="161" height="97" filterUnits="userSpaceOnUse" color-interpolation-filters="sRGB">
<feFlood flood-opacity="0" result="BackgroundImageFix"/>
<feGaussianBlur in="BackgroundImage" stdDeviation="5"/>
<feComposite in2="SourceAlpha" operator="in" result="effect1_backgroundBlur_206:36924"/>
<feBlend mode="normal" in="SourceGraphic" in2="effect1_backgroundBlur_206:36924" result="shape"/>
</filter>
</defs>
</svg>
