<svg width="167" height="167" viewBox="0 0 167 167" fill="none" xmlns="http://www.w3.org/2000/svg">
<mask id="mask0_206:36956" style="mask-type:alpha" maskUnits="userSpaceOnUse" x="0" y="0" width="167" height="167">
<rect x="1" y="1" width="165" height="165" rx="8" fill="#5988D6" stroke="#EDE6FC" stroke-opacity="0.3"/>
</mask>
<g mask="url(#mask0_206:36956)">
<rect x="1" y="1" width="165" height="165" rx="8" fill="#A9D97A" stroke="#EDE6FC" stroke-opacity="0.3"/>
<path d="M91.0258 6.12533C91.6081 5.75678 92.3103 5.6274 92.9857 5.76419C93.6612 5.90099 94.2576 6.29341 94.6507 6.85949C96.4631 8.91282 95.6601 10.9776 95.7175 12.9392C95.7748 14.9007 93.9969 19.3171 94.8342 21.1869C95.1013 21.6301 95.2424 22.1377 95.2424 22.6552C95.2424 23.1726 95.1013 23.6803 94.8342 24.1235C94.8342 24.1235 89.0987 25.9359 89.2937 17.1491C89.4887 8.36221 91.0258 6.12533 91.0258 6.12533Z" fill="#252E3B"/>
<path d="M73.1537 111.396C61.0402 109.664 53.7676 105.236 51.5307 98.2154C50.0853 93.7302 50.7277 88.1667 53.412 81.6626C56.0864 75.5535 59.5038 69.7975 63.5869 64.5247C68.6603 57.7998 74.24 51.4723 80.2773 45.5974L80.6673 45.9989C74.6541 51.8637 69.0938 58.1756 64.0342 64.8803C59.9796 70.1164 56.5817 75.8295 53.9166 81.892C51.2898 88.247 50.6703 93.6958 52.0583 98.0548C54.2264 104.846 61.35 109.147 73.234 110.845C100.948 114.791 114.53 98.9381 115.987 70.9027C116.32 64.4792 116.009 58.0385 115.058 51.6771L115.62 51.5853C116.571 57.9814 116.882 64.4563 116.549 70.9142C116.318 76.6301 115.373 82.2947 113.739 87.7767C107.728 107.151 93.1937 114.241 73.1537 111.396Z" fill="#962E2E"/>
<path d="M88.8577 82.7524L86.942 85.1957C86.3928 84.3952 85.7952 83.629 85.1525 82.9014C84.6822 82.3279 84.143 81.697 83.5695 81.0202C81.4129 78.4736 78.7058 75.4108 77.0654 73.6557C76.6291 73.1561 76.1576 72.6884 75.6544 72.2563C74.0845 70.8124 72.9014 68.9983 72.2131 66.9796C71.8919 65.3851 72.6375 62.6664 73.234 60.5787C74.2715 57.2545 75.5956 54.0266 77.1916 50.9315C77.9713 49.5842 78.65 48.1808 79.222 46.733C90.3375 40.9057 88.8577 48.7864 87.8826 51.9639C86.9076 55.1414 79.8529 64.823 78.9925 65.9816C78.1322 67.1401 78.9237 67.6564 79.9561 68.4708C81.2304 69.7519 82.2639 71.2518 83.0074 72.8987C83.4318 73.954 88.8577 82.7524 88.8577 82.7524Z" fill="#EEA987"/>
<path d="M86.3455 86.5149C86.3455 86.5149 86.1046 90.048 85.1984 91.0001C84.2922 91.9522 81.9291 93.9252 82.9042 94.7282C83.8792 95.5312 87.6303 95.0609 88.938 92.5257C90.2457 89.9906 92.8726 89.268 92.3793 87.054C91.886 84.8401 90.0851 85.4136 88.6627 82.695C87.2403 79.9763 86.3455 86.5149 86.3455 86.5149Z" fill="#DBDFF0"/>
<path d="M94.1692 53.1684C93.1329 56.251 91.8793 59.2563 90.4181 62.1617C89.856 63.3088 87.7224 66.9107 87.8715 68.5052C87.9862 69.8588 88.8466 72.1301 89.2596 74.0687C89.3284 74.4128 89.3857 74.7455 89.4316 75.0552C89.6725 77.143 89.6381 88.6255 89.8905 90.2544C90.1428 91.8833 90.1772 92.2045 90.1772 92.2045C89.7363 92.5065 89.2368 92.7125 88.7112 92.8093C88.1856 92.9061 87.6455 92.8916 87.1259 92.7666C87.1259 92.7666 85.2791 82.9588 84.7055 81.0087C84.4302 80.0566 83.5584 77.5674 82.8127 75.1126C82.1037 73.1216 81.5551 71.077 81.1724 68.9985C81.1036 67.2663 82.0901 60.9687 82.3195 57.8371C82.5489 54.7055 85.0038 47.5131 85.0038 47.5131C85.0038 47.5131 88.4451 45.3336 94.1806 47.5131C94.8019 49.3477 94.7978 51.3363 94.1692 53.1684Z" fill="#EEA987"/>
<path d="M90.0852 91.8489C89.9087 91.9933 89.7052 92.101 89.4866 92.166C89.268 92.231 89.0387 92.2519 88.8119 92.2275C88.1581 92.0783 86.9077 92.3422 86.7012 92.9272C86.4948 93.5123 85.5541 96.4489 84.5447 97.2748C83.5352 98.1007 78.6141 101.863 80.9083 102.827C82.331 103.22 83.8439 103.132 85.2113 102.576C86.5787 102.02 87.7237 101.027 88.4678 99.7525C89.9132 97.0224 91.3815 97.2518 91.0488 94.9806C90.9597 93.8789 90.6308 92.8101 90.0852 91.8489Z" fill="#DBDFF0"/>
<path d="M87.8941 51.9294C87.2747 53.9827 84.1086 58.6974 81.734 62.1158C81.2523 62.7926 80.8164 63.4235 80.4264 63.9626C79.7267 64.9492 79.1875 65.6718 79.0154 65.9357C78.1895 67.0828 78.9351 67.6104 79.9675 68.4249C80.3966 68.792 80.7816 69.2077 81.1146 69.6638C79.5206 70.6995 78.1513 72.0453 77.0883 73.6213C76.3885 72.8642 72.7637 70.2717 72.1787 66.8992C71.9034 65.3048 72.6031 62.6205 73.211 60.5213C74.2737 57.2031 75.6129 53.9799 77.2145 50.8856C77.9988 49.5407 78.6776 48.137 79.2448 46.6871C90.3374 40.8598 88.8577 48.7404 87.8941 51.9294Z" fill="#285173"/>
<path d="M94.169 53.1683C93.1327 56.251 91.8792 59.2563 90.418 62.1617C89.8559 63.3088 87.7223 66.9107 87.8714 68.5052C87.9861 69.8588 88.8465 72.1301 89.2594 74.0687C87.0737 74.1285 84.9056 74.4796 82.8126 75.1126C82.0943 73.1181 81.5192 71.0749 81.0919 68.9985C81.0231 67.2663 81.9064 61.2899 82.1129 58.1353C82.3194 54.9808 84.9922 47.4672 84.9922 47.4672C84.9922 47.4672 88.3647 45.2877 94.169 47.4672C94.8152 49.3127 94.8152 51.3229 94.169 53.1683Z" fill="#285173"/>
<path d="M83.5697 80.9743C83.5249 79.4049 83.3986 77.8389 83.1912 76.2827C83.7877 78.2213 85.1183 82.7179 85.1527 82.8671L83.5697 80.9743Z" fill="#A77860"/>
<path d="M83.2025 53.1683C82.6978 55.107 81.7456 62.1158 81.7456 62.1158C81.2753 62.7926 80.828 63.4235 80.438 63.9627C80.4724 59.7642 83.1222 53.3404 83.2025 53.1683Z" fill="#1D3B54"/>
<path d="M109.081 46.9281C109.677 47.1303 110.3 47.2424 110.928 47.2608C111.972 47.2608 113.096 48.9356 113.303 49.3829C113.315 49.4435 113.315 49.5058 113.303 49.5664C113.314 49.6271 113.314 49.6893 113.303 49.75C113.279 49.8064 113.244 49.8572 113.2 49.8991C113.156 49.9443 113.1 49.9761 113.039 49.9909C113.039 49.9909 110.034 48.6029 109.058 48.8438C108.083 49.0847 107.911 48.6947 107.911 48.6947L109.081 46.9281Z" fill="#EEA987"/>
<path d="M115.012 52.8587L108.439 48.947L109.116 47.6852L115.895 51.3215L115.012 52.8587Z" fill="#EB4747"/>
<path d="M107.934 48.7061C108.107 49.2219 108.393 49.6924 108.772 50.0826C109.718 50.8413 110.795 51.4206 111.949 51.7918C112.33 51.0913 112.456 50.2804 112.305 49.4976C111.995 49.0043 111.708 49.8647 111.708 49.8647C111.708 49.8647 111.789 48.5111 111.41 48.5684C111.032 48.6258 111.009 49.4288 111.009 49.4288C111.009 49.4288 111.009 48.2816 110.641 48.4537C110.274 48.6258 110.229 49.0961 110.229 49.0961C110.229 49.0961 110.229 48.1325 109.896 48.2013C109.563 48.2702 109.162 49.532 108.909 49.2911C108.606 49.0626 108.279 48.8665 107.934 48.7061Z" fill="#EEA987"/>
<path d="M92.3795 20.0857C92.3577 20.6107 92.4723 21.1324 92.7122 21.5999C93.0678 22.0473 96.36 23.1026 97.0598 24.2382C97.7595 25.3739 95.7864 30.88 95.2932 32.3598C94.7999 33.8395 92.8498 36.9482 92.804 38.0036C92.677 39.5534 92.677 41.111 92.804 42.6608C93.0219 43.5326 94.0429 46.756 94.1805 47.4787C94.1805 47.4787 84.9348 49.119 79.2681 46.6986C79.8697 44.7499 80.3298 42.7602 80.6446 40.7451C80.6446 39.598 80.6446 35.239 80.8281 34.0575C81.0117 32.876 78.6601 30.3868 79.9793 28.8726C81.2984 27.3584 84.6824 24.2841 85.3477 23.6762C86.0131 23.0682 87.642 21.7605 87.642 21.7605C87.9048 21.4095 88.1172 21.0233 88.2729 20.6134C88.4833 20.0099 88.5654 19.3691 88.5138 18.7321L92.7008 17.0688C92.5356 18.0674 92.4284 19.0747 92.3795 20.0857Z" fill="#EB4747"/>
<path d="M94.3524 23.8597C94.7424 23.7106 96.0272 22.5176 97.1743 24.3071C98.0826 25.9245 98.6231 27.7222 98.7573 29.5723C98.8491 30.7194 99.7668 35.9503 99.9847 36.8221C100.203 37.6939 100.742 38.1068 101.832 39.1163C102.921 40.1257 109.07 46.9281 109.563 47.3296L107.969 48.8094C107.969 48.8094 98.7917 42.1217 97.9543 41.0319C96.9636 39.7026 96.2569 38.1837 95.878 36.5697C95.1898 34.2755 93.0562 28.6087 92.9414 27.714C92.8267 26.8193 92.3793 24.6398 94.3524 23.8597Z" fill="#EEA987"/>
<path d="M93.6182 31.1782C95.3369 30.281 97.2083 29.713 99.1358 29.5035C99.1358 29.5035 98.3098 22.5175 94.857 23.1829C91.4042 23.8482 92.907 28.5743 93.6182 31.1782Z" fill="#EB4747"/>
<path d="M92.6776 21.5999C92.6776 21.5999 89.8787 25.2363 86.9421 25.0412C84.0055 24.8462 87.55 21.7605 87.55 21.7605C87.7209 21.4555 87.8667 21.1371 87.9859 20.8084C88.1001 20.5214 88.1921 20.2261 88.2612 19.9251C88.3661 19.5243 88.4201 19.112 88.4218 18.6977L92.7808 16.4035C92.7808 16.4035 92.0238 20.6019 92.6776 21.5999Z" fill="#EEA987"/>
<path d="M88.938 19.9825C88.2382 19.9825 86.2652 19.8792 85.0607 15.394C83.581 9.97966 86.0243 6.98568 88.2268 6.3433C90.4292 5.70092 92.517 6.34331 93.8132 9.15373C93.8132 9.15373 94.7653 11.3447 93.6297 15.394C92.4941 19.4433 89.6262 19.9595 88.938 19.9825Z" fill="#EEA987"/>
<path d="M90.0851 9.83053C90.0851 9.83053 87.1141 10.1861 84.5675 14.5107C84.5675 14.5107 82.9845 9.56668 86.2537 7.08892C89.523 4.61116 91.9893 6.44656 92.907 7.39866C92.907 7.39866 94.0541 7.60513 94.2721 9.86494C94.49 12.1248 96.1189 15.3711 92.8726 17.1606C92.9882 16.1277 92.9457 15.0834 92.7464 14.0634C92.3793 13.4898 91.4502 13.9487 90.0851 9.83053Z" fill="#252E3B"/>
<path d="M92.5516 13.0768C92.6777 12.6753 93.0792 12.4918 93.3316 12.9047C93.5839 13.3177 93.4004 14.9466 92.8039 15.199C92.2074 15.4513 92.2877 13.8798 92.5516 13.0768Z" fill="#EEA987"/>
<path d="M91.5075 18.9042C91.1679 19.5095 90.6655 20.0077 90.0573 20.3422C89.4491 20.6767 88.7593 20.8342 88.0662 20.7969C88.1819 20.5144 88.274 20.2228 88.3415 19.9251C88.9119 20.0021 89.4924 19.9505 90.0403 19.7738C90.5881 19.5971 91.0895 19.3 91.5075 18.9042Z" fill="#A77860"/>
</g>
<g filter="url(#filter0_b_206:36956)">
<rect x="13" y="77" width="141" height="77" rx="10" fill="black" fill-opacity="0.8"/>
</g>
<path d="M47.9391 96H46.2591L46.1191 93.27L45.7971 89.798H45.6571L43.6411 95.048H42.1711L40.3371 89.798H40.2111L39.8611 93.088L39.6651 96H38.0691L38.9791 86.984H41.1631L41.5271 88.314L42.9551 92.584H43.0811L44.5791 88.314L44.9851 86.984H47.1271L47.9391 96ZM54.2846 92.976L50.5046 93.004C50.5886 94.1707 51.1813 94.754 52.2826 94.754C52.8613 94.754 53.5053 94.5907 54.2146 94.264L54.3686 94.362L54.0886 95.748C53.3793 96.0093 52.712 96.14 52.0866 96.14C51.06 96.14 50.2526 95.8413 49.6646 95.244C49.086 94.6467 48.7966 93.8207 48.7966 92.766C48.7966 91.7207 49.0813 90.8947 49.6506 90.288C50.22 89.672 50.99 89.364 51.9606 89.364C52.7913 89.364 53.4306 89.5927 53.8786 90.05C54.336 90.498 54.5646 91.128 54.5646 91.94C54.5646 92.1547 54.5413 92.4253 54.4946 92.752L54.2846 92.976ZM52.9406 91.73C52.9406 91.3567 52.8566 91.0767 52.6886 90.89C52.5206 90.694 52.2733 90.596 51.9466 90.596C51.5826 90.596 51.2793 90.7173 51.0366 90.96C50.794 91.1933 50.6306 91.534 50.5466 91.982L52.9126 91.926L52.9406 91.73ZM57.6135 93.13L57.7115 96H55.8495L55.9475 93.298L55.8635 86.312L57.7255 86.172L57.6135 93.13ZM63.5312 91.94C63.5405 91.604 63.4705 91.3473 63.3212 91.17C63.1719 90.9927 62.9525 90.904 62.6632 90.904C62.2432 90.904 61.7952 91.1047 61.3192 91.506L61.2912 93.13L61.3892 96H59.5272L59.6252 93.298L59.5412 86.312L61.4032 86.172L61.3332 90.414H61.4172C61.9305 89.9473 62.4952 89.6113 63.1112 89.406C63.8205 89.406 64.3572 89.5693 64.7212 89.896C65.0945 90.2133 65.2765 90.6753 65.2672 91.282L65.2252 93.144L65.2952 96H63.4332L63.5312 91.94ZM69.638 89.364C70.59 89.364 71.318 89.644 71.822 90.204C72.326 90.764 72.578 91.5713 72.578 92.626C72.578 93.7647 72.3074 94.6373 71.766 95.244C71.2247 95.8413 70.4454 96.14 69.428 96.14C68.476 96.14 67.748 95.86 67.244 95.3C66.74 94.74 66.488 93.9327 66.488 92.878C66.488 91.7393 66.7587 90.8713 67.3 90.274C67.8414 89.6673 68.6207 89.364 69.638 89.364ZM69.512 90.624C69.064 90.624 68.7374 90.7733 68.532 91.072C68.336 91.3707 68.238 91.8513 68.238 92.514C68.238 93.3727 68.3407 93.984 68.546 94.348C68.7514 94.712 69.0874 94.894 69.554 94.894C70.002 94.894 70.324 94.7493 70.52 94.46C70.7254 94.1613 70.828 93.676 70.828 93.004C70.828 92.1547 70.7207 91.548 70.506 91.184C70.3007 90.8107 69.9694 90.624 69.512 90.624ZM77.37 89.476C77.454 89.476 77.5706 89.4853 77.72 89.504V91.226L77.524 91.296C77.3653 91.2307 77.1926 91.198 77.006 91.198C76.4646 91.198 75.9746 91.548 75.536 92.248V93.13L75.634 96H73.772L73.884 93.312L73.8 89.616L75.564 89.462L75.55 90.736H75.662C76.1193 89.896 76.6886 89.476 77.37 89.476ZM81.0644 89.364C81.7831 89.364 82.3431 89.5273 82.7444 89.854C83.1551 90.1713 83.3604 90.6193 83.3604 91.198C83.3604 91.366 83.3324 91.898 83.2764 92.794C83.2671 93.0553 83.2531 93.326 83.2344 93.606C83.2158 93.8767 83.2064 94.11 83.2064 94.306C83.2064 94.4647 83.2298 94.5767 83.2764 94.642C83.3231 94.698 83.4071 94.726 83.5284 94.726C83.6218 94.726 83.7431 94.7073 83.8924 94.67L84.0324 94.782L83.8644 95.762C83.5658 95.958 83.2251 96.0747 82.8424 96.112C82.5624 96.084 82.3291 95.986 82.1424 95.818C81.9558 95.6407 81.8298 95.398 81.7644 95.09H81.6664C81.1998 95.5847 80.7191 95.93 80.2244 96.126C79.5524 96.1167 79.0251 95.9393 78.6424 95.594C78.2598 95.2487 78.0684 94.7773 78.0684 94.18C78.0684 93.7133 78.1851 93.3493 78.4184 93.088C78.6611 92.8173 79.0251 92.6353 79.5104 92.542L81.6524 92.136V91.562C81.6524 90.9553 81.3538 90.652 80.7564 90.652C80.4671 90.652 80.1591 90.7173 79.8324 90.848C79.5151 90.9787 79.1558 91.184 78.7544 91.464L78.6144 91.38L78.4044 90.148C78.8058 89.896 79.2351 89.7047 79.6924 89.574C80.1498 89.434 80.6071 89.364 81.0644 89.364ZM80.1544 93.396C80.0051 93.4333 79.8931 93.4987 79.8184 93.592C79.7531 93.676 79.7204 93.8067 79.7204 93.984C79.7204 94.2267 79.7858 94.418 79.9164 94.558C80.0471 94.6887 80.2291 94.754 80.4624 94.754C80.8264 94.754 81.2091 94.5393 81.6104 94.11L81.6384 93.074L80.1544 93.396ZM90.8058 89.406C91.6178 89.406 92.2431 89.6813 92.6818 90.232C93.1205 90.7827 93.3398 91.562 93.3398 92.57C93.3398 93.7087 93.0551 94.5907 92.4858 95.216C91.9258 95.832 91.1325 96.14 90.1058 96.14C89.8071 96.14 89.4945 96.112 89.1678 96.056L89.2098 98.59H87.3618L87.4598 93.312L87.3758 89.616L89.1538 89.462L89.1398 90.414H89.2378C89.4991 90.162 89.7511 89.9613 89.9938 89.812C90.2365 89.6533 90.5071 89.518 90.8058 89.406ZM90.1198 94.922C90.6051 94.922 90.9738 94.7493 91.2258 94.404C91.4778 94.0587 91.6038 93.55 91.6038 92.878C91.6038 92.2247 91.4965 91.7347 91.2818 91.408C91.0765 91.072 90.7685 90.904 90.3578 90.904C89.9565 90.904 89.5505 91.1047 89.1398 91.506L89.1258 93.13L89.1538 94.712C89.4898 94.852 89.8118 94.922 90.1198 94.922ZM98.1239 89.476C98.2079 89.476 98.3245 89.4853 98.4739 89.504V91.226L98.2779 91.296C98.1192 91.2307 97.9465 91.198 97.7599 91.198C97.2185 91.198 96.7285 91.548 96.2899 92.248V93.13L96.3879 96H94.5259L94.6379 93.312L94.5539 89.616L96.3179 89.462L96.3039 90.736H96.4159C96.8732 89.896 97.4425 89.476 98.1239 89.476ZM104.433 92.976L100.653 93.004C100.737 94.1707 101.33 94.754 102.431 94.754C103.01 94.754 103.654 94.5907 104.363 94.264L104.517 94.362L104.237 95.748C103.528 96.0093 102.86 96.14 102.235 96.14C101.208 96.14 100.401 95.8413 99.8131 95.244C99.2344 94.6467 98.9451 93.8207 98.9451 92.766C98.9451 91.7207 99.2297 90.8947 99.7991 90.288C100.368 89.672 101.138 89.364 102.109 89.364C102.94 89.364 103.579 89.5927 104.027 90.05C104.484 90.498 104.713 91.128 104.713 91.94C104.713 92.1547 104.69 92.4253 104.643 92.752L104.433 92.976ZM103.089 91.73C103.089 91.3567 103.005 91.0767 102.837 90.89C102.669 90.694 102.422 90.596 102.095 90.596C101.731 90.596 101.428 90.7173 101.185 90.96C100.942 91.1933 100.779 91.534 100.695 91.982L103.061 91.926L103.089 91.73ZM108.181 89.378C108.815 89.378 109.413 89.4853 109.973 89.7L109.721 91.072L109.497 91.142C109.226 90.9647 108.955 90.8293 108.685 90.736C108.414 90.6427 108.176 90.596 107.971 90.596C107.747 90.596 107.569 90.6567 107.439 90.778C107.308 90.89 107.243 91.03 107.243 91.198C107.243 91.394 107.327 91.5527 107.495 91.674C107.672 91.7953 107.947 91.9307 108.321 92.08C108.694 92.2293 109.002 92.374 109.245 92.514C109.487 92.654 109.693 92.85 109.861 93.102C110.038 93.3447 110.127 93.648 110.127 94.012C110.127 94.3853 110.029 94.7353 109.833 95.062C109.646 95.3793 109.357 95.6407 108.965 95.846C108.573 96.042 108.092 96.14 107.523 96.14C106.851 96.14 106.155 96 105.437 95.72L105.647 94.264L105.829 94.152C106.118 94.3947 106.44 94.5907 106.795 94.74C107.149 94.88 107.462 94.95 107.733 94.95C107.985 94.95 108.181 94.8893 108.321 94.768C108.461 94.6373 108.531 94.4833 108.531 94.306C108.531 94.11 108.442 93.9513 108.265 93.83C108.097 93.7087 107.826 93.5733 107.453 93.424C107.07 93.256 106.757 93.1067 106.515 92.976C106.272 92.836 106.062 92.64 105.885 92.388C105.717 92.136 105.633 91.8233 105.633 91.45C105.633 90.8433 105.861 90.3487 106.319 89.966C106.776 89.574 107.397 89.378 108.181 89.378ZM113.554 89.378C114.188 89.378 114.786 89.4853 115.346 89.7L115.094 91.072L114.87 91.142C114.599 90.9647 114.328 90.8293 114.058 90.736C113.787 90.6427 113.549 90.596 113.344 90.596C113.12 90.596 112.942 90.6567 112.812 90.778C112.681 90.89 112.616 91.03 112.616 91.198C112.616 91.394 112.7 91.5527 112.868 91.674C113.045 91.7953 113.32 91.9307 113.694 92.08C114.067 92.2293 114.375 92.374 114.618 92.514C114.86 92.654 115.066 92.85 115.234 93.102C115.411 93.3447 115.5 93.648 115.5 94.012C115.5 94.3853 115.402 94.7353 115.206 95.062C115.019 95.3793 114.73 95.6407 114.338 95.846C113.946 96.042 113.465 96.14 112.896 96.14C112.224 96.14 111.528 96 110.81 95.72L111.02 94.264L111.202 94.152C111.491 94.3947 111.813 94.5907 112.168 94.74C112.522 94.88 112.835 94.95 113.106 94.95C113.358 94.95 113.554 94.8893 113.694 94.768C113.834 94.6373 113.904 94.4833 113.904 94.306C113.904 94.11 113.815 93.9513 113.638 93.83C113.47 93.7087 113.199 93.5733 112.826 93.424C112.443 93.256 112.13 93.1067 111.888 92.976C111.645 92.836 111.435 92.64 111.258 92.388C111.09 92.136 111.006 91.8233 111.006 91.45C111.006 90.8433 111.234 90.3487 111.692 89.966C112.149 89.574 112.77 89.378 113.554 89.378ZM119.305 89.364C120.023 89.364 120.583 89.5273 120.985 89.854C121.395 90.1713 121.601 90.6193 121.601 91.198C121.601 91.366 121.573 91.898 121.517 92.794C121.507 93.0553 121.493 93.326 121.475 93.606C121.456 93.8767 121.447 94.11 121.447 94.306C121.447 94.4647 121.47 94.5767 121.517 94.642C121.563 94.698 121.647 94.726 121.769 94.726C121.862 94.726 121.983 94.7073 122.133 94.67L122.273 94.782L122.105 95.762C121.806 95.958 121.465 96.0747 121.083 96.112C120.803 96.084 120.569 95.986 120.383 95.818C120.196 95.6407 120.07 95.398 120.005 95.09H119.907C119.44 95.5847 118.959 95.93 118.465 96.126C117.793 96.1167 117.265 95.9393 116.883 95.594C116.5 95.2487 116.309 94.7773 116.309 94.18C116.309 93.7133 116.425 93.3493 116.659 93.088C116.901 92.8173 117.265 92.6353 117.751 92.542L119.893 92.136V91.562C119.893 90.9553 119.594 90.652 118.997 90.652C118.707 90.652 118.399 90.7173 118.073 90.848C117.755 90.9787 117.396 91.184 116.995 91.464L116.855 91.38L116.645 90.148C117.046 89.896 117.475 89.7047 117.933 89.574C118.39 89.434 118.847 89.364 119.305 89.364ZM118.395 93.396C118.245 93.4333 118.133 93.4987 118.059 93.592C117.993 93.676 117.961 93.8067 117.961 93.984C117.961 94.2267 118.026 94.418 118.157 94.558C118.287 94.6887 118.469 94.754 118.703 94.754C119.067 94.754 119.449 94.5393 119.851 94.11L119.879 93.074L118.395 93.396ZM121.601 86.732V86.886L120.621 88.132L120.439 88.202C120.187 88.174 119.799 88.0853 119.277 87.936C119.23 87.9267 119.076 87.8893 118.815 87.824C118.563 87.7493 118.385 87.712 118.283 87.712C118.18 87.712 118.077 87.754 117.975 87.838C117.881 87.922 117.779 88.0247 117.667 88.146C117.555 88.2673 117.471 88.3607 117.415 88.426H117.247L116.687 87.88V87.726L117.681 86.48L117.849 86.41C118.073 86.438 118.469 86.5313 119.039 86.69C119.561 86.83 119.883 86.9 120.005 86.9C120.117 86.9 120.224 86.8533 120.327 86.76C120.439 86.6667 120.551 86.5593 120.663 86.438C120.775 86.3167 120.849 86.2327 120.887 86.186H121.055L121.601 86.732ZM126.185 89.364C127.137 89.364 127.865 89.644 128.369 90.204C128.873 90.764 129.125 91.5713 129.125 92.626C129.125 93.7647 128.854 94.6373 128.313 95.244C127.772 95.8413 126.992 96.14 125.975 96.14C125.023 96.14 124.295 95.86 123.791 95.3C123.287 94.74 123.035 93.9327 123.035 92.878C123.035 91.7393 123.306 90.8713 123.847 90.274C124.388 89.6673 125.168 89.364 126.185 89.364ZM126.059 90.624C125.611 90.624 125.284 90.7733 125.079 91.072C124.883 91.3707 124.785 91.8513 124.785 92.514C124.785 93.3727 124.888 93.984 125.093 94.348C125.298 94.712 125.634 94.894 126.101 94.894C126.549 94.894 126.871 94.7493 127.067 94.46C127.272 94.1613 127.375 93.676 127.375 93.004C127.375 92.1547 127.268 91.548 127.053 91.184C126.848 90.8107 126.516 90.624 126.059 90.624ZM38.9551 105.364C39.6737 105.364 40.2337 105.527 40.6351 105.854C41.0457 106.171 41.2511 106.619 41.2511 107.198C41.2511 107.366 41.2231 107.898 41.1671 108.794C41.1577 109.055 41.1437 109.326 41.1251 109.606C41.1064 109.877 41.0971 110.11 41.0971 110.306C41.0971 110.465 41.1204 110.577 41.1671 110.642C41.2137 110.698 41.2977 110.726 41.4191 110.726C41.5124 110.726 41.6337 110.707 41.7831 110.67L41.9231 110.782L41.7551 111.762C41.4564 111.958 41.1157 112.075 40.7331 112.112C40.4531 112.084 40.2197 111.986 40.0331 111.818C39.8464 111.641 39.7204 111.398 39.6551 111.09H39.5571C39.0904 111.585 38.6097 111.93 38.1151 112.126C37.4431 112.117 36.9157 111.939 36.5331 111.594C36.1504 111.249 35.9591 110.777 35.9591 110.18C35.9591 109.713 36.0757 109.349 36.3091 109.088C36.5517 108.817 36.9157 108.635 37.4011 108.542L39.5431 108.136V107.562C39.5431 106.955 39.2444 106.652 38.6471 106.652C38.3577 106.652 38.0497 106.717 37.7231 106.848C37.4057 106.979 37.0464 107.184 36.6451 107.464L36.5051 107.38L36.2951 106.148C36.6964 105.896 37.1257 105.705 37.5831 105.574C38.0404 105.434 38.4977 105.364 38.9551 105.364ZM38.0451 109.396C37.8957 109.433 37.7837 109.499 37.7091 109.592C37.6437 109.676 37.6111 109.807 37.6111 109.984C37.6111 110.227 37.6764 110.418 37.8071 110.558C37.9377 110.689 38.1197 110.754 38.3531 110.754C38.7171 110.754 39.0997 110.539 39.5011 110.11L39.5291 109.074L38.0451 109.396ZM46.6493 105.476C46.7333 105.476 46.8499 105.485 46.9993 105.504V107.226L46.8033 107.296C46.6446 107.231 46.4719 107.198 46.2853 107.198C45.7439 107.198 45.2539 107.548 44.8153 108.248V109.13L44.9133 112H43.0513L43.1633 109.312L43.0793 105.616L44.8433 105.462L44.8293 106.736H44.9413C45.3986 105.896 45.9679 105.476 46.6493 105.476ZM50.6051 110.628C50.9038 110.628 51.2165 110.549 51.5431 110.39L51.6971 110.53L51.5151 111.636C51.0391 111.879 50.5538 112.028 50.0591 112.084C48.7991 111.953 48.1691 111.337 48.1691 110.236L48.2391 109.074L48.2251 106.666H47.3571L47.2871 106.568L47.3851 105.546H48.2111V104.468L49.9051 103.922L50.0311 104.034L49.9891 105.546H51.6551L51.7111 105.644L51.6271 106.666H49.9611L49.8771 109.802C49.8771 110.101 49.9331 110.315 50.0451 110.446C50.1571 110.567 50.3438 110.628 50.6051 110.628ZM57.6479 108.976L53.8679 109.004C53.9519 110.171 54.5446 110.754 55.6459 110.754C56.2246 110.754 56.8686 110.591 57.5779 110.264L57.7319 110.362L57.4519 111.748C56.7426 112.009 56.0752 112.14 55.4499 112.14C54.4232 112.14 53.6159 111.841 53.0279 111.244C52.4492 110.647 52.1599 109.821 52.1599 108.766C52.1599 107.721 52.4446 106.895 53.0139 106.288C53.5832 105.672 54.3532 105.364 55.3239 105.364C56.1546 105.364 56.7939 105.593 57.2419 106.05C57.6992 106.498 57.9279 107.128 57.9279 107.94C57.9279 108.155 57.9046 108.425 57.8579 108.752L57.6479 108.976ZM56.3039 107.73C56.3039 107.357 56.2199 107.077 56.0519 106.89C55.8839 106.694 55.6366 106.596 55.3099 106.596C54.9459 106.596 54.6426 106.717 54.3999 106.96C54.1572 107.193 53.9939 107.534 53.9099 107.982L56.2759 107.926L56.3039 107.73ZM62.8094 105.476C62.8934 105.476 63.0101 105.485 63.1594 105.504V107.226L62.9634 107.296C62.8048 107.231 62.6321 107.198 62.4454 107.198C61.9041 107.198 61.4141 107.548 60.9754 108.248V109.13L61.0734 112H59.2114L59.3234 109.312L59.2394 105.616L61.0034 105.462L60.9894 106.736H61.1014C61.5588 105.896 62.1281 105.476 62.8094 105.476ZM64.2046 109.312L64.1346 105.616L65.9686 105.462L65.8846 109.13L65.9686 112H64.1066L64.2046 109.312ZM65.0866 102.298C65.3759 102.298 65.5999 102.382 65.7586 102.55C65.9266 102.718 66.0106 102.951 66.0106 103.25C66.0106 103.567 65.9219 103.819 65.7446 104.006C65.5673 104.193 65.3246 104.286 65.0166 104.286C64.7086 104.286 64.4706 104.202 64.3026 104.034C64.1439 103.866 64.0646 103.628 64.0646 103.32C64.0646 103.012 64.1533 102.765 64.3306 102.578C64.5173 102.391 64.7693 102.298 65.0866 102.298ZM70.291 105.364C71.0097 105.364 71.5697 105.527 71.971 105.854C72.3817 106.171 72.587 106.619 72.587 107.198C72.587 107.366 72.559 107.898 72.503 108.794C72.4937 109.055 72.4797 109.326 72.461 109.606C72.4423 109.877 72.433 110.11 72.433 110.306C72.433 110.465 72.4563 110.577 72.503 110.642C72.5497 110.698 72.6337 110.726 72.755 110.726C72.8483 110.726 72.9697 110.707 73.119 110.67L73.259 110.782L73.091 111.762C72.7923 111.958 72.4517 112.075 72.069 112.112C71.789 112.084 71.5557 111.986 71.369 111.818C71.1823 111.641 71.0563 111.398 70.991 111.09H70.893C70.4263 111.585 69.9457 111.93 69.451 112.126C68.779 112.117 68.2517 111.939 67.869 111.594C67.4863 111.249 67.295 110.777 67.295 110.18C67.295 109.713 67.4117 109.349 67.645 109.088C67.8877 108.817 68.2517 108.635 68.737 108.542L70.879 108.136V107.562C70.879 106.955 70.5803 106.652 69.983 106.652C69.6937 106.652 69.3857 106.717 69.059 106.848C68.7417 106.979 68.3823 107.184 67.981 107.464L67.841 107.38L67.631 106.148C68.0323 105.896 68.4617 105.705 68.919 105.574C69.3763 105.434 69.8337 105.364 70.291 105.364ZM69.381 109.396C69.2317 109.433 69.1197 109.499 69.045 109.592C68.9797 109.676 68.947 109.807 68.947 109.984C68.947 110.227 69.0123 110.418 69.143 110.558C69.2737 110.689 69.4557 110.754 69.689 110.754C70.053 110.754 70.4357 110.539 70.837 110.11L70.865 109.074L69.381 109.396ZM76.2892 109.13L76.3872 112H74.5252L74.6232 109.298L74.5392 102.312L76.4012 102.172L76.2892 109.13ZM79.295 110.152C79.715 110.488 79.925 110.889 79.925 111.356C79.925 112.168 79.3603 112.975 78.231 113.778L77.629 113.246L77.615 113.106C78.1283 112.677 78.385 112.219 78.385 111.734C78.385 111.417 78.2356 111.137 77.937 110.894L77.951 110.74C78.3803 110.479 78.8283 110.283 79.295 110.152ZM87.4693 107.94C87.4787 107.613 87.404 107.361 87.2453 107.184C87.096 106.997 86.8767 106.904 86.5873 106.904C86.1673 106.904 85.7193 107.105 85.2433 107.506V109.13L85.3273 112H83.4653L83.5633 109.312L83.4933 105.616L85.2573 105.462V106.414H85.3553C85.8687 105.947 86.4287 105.611 87.0353 105.406C87.7447 105.406 88.286 105.569 88.6593 105.896C89.0327 106.213 89.21 106.675 89.1913 107.282L89.1493 109.144L89.2333 112H87.3573L87.4693 107.94ZM91.0015 109.312L90.9315 105.616L92.7655 105.462L92.6815 109.13L92.7655 112H90.9035L91.0015 109.312ZM93.1995 101.878L93.8715 102.886L93.8435 103.068C93.6382 103.199 93.4842 103.292 93.3815 103.348C92.2148 104.067 91.4588 104.524 91.1135 104.72L90.9315 104.706L90.4835 104.006C91.5662 103.138 92.4108 102.424 93.0175 101.864L93.1995 101.878ZM95.7439 106.526L96.7239 110.25H96.8219L97.9979 106.624L98.2359 105.49H99.8599L97.6759 112H95.6739L93.8259 105.532L95.5619 105.448L95.7439 106.526ZM105.636 108.976L101.856 109.004C101.94 110.171 102.533 110.754 103.634 110.754C104.213 110.754 104.857 110.591 105.566 110.264L105.72 110.362L105.44 111.748C104.731 112.009 104.064 112.14 103.438 112.14C102.412 112.14 101.604 111.841 101.016 111.244C100.438 110.647 100.148 109.821 100.148 108.766C100.148 107.721 100.433 106.895 101.002 106.288C101.572 105.672 102.342 105.364 103.312 105.364C104.143 105.364 104.782 105.593 105.23 106.05C105.688 106.498 105.916 107.128 105.916 107.94C105.916 108.155 105.893 108.425 105.846 108.752L105.636 108.976ZM104.292 107.73C104.292 107.357 104.208 107.077 104.04 106.89C103.872 106.694 103.625 106.596 103.298 106.596C102.934 106.596 102.631 106.717 102.388 106.96C102.146 107.193 101.982 107.534 101.898 107.982L104.264 107.926L104.292 107.73ZM107.326 109.312L107.256 105.616L109.09 105.462L109.006 109.13L109.09 112H107.228L107.326 109.312ZM108.208 102.298C108.497 102.298 108.721 102.382 108.88 102.55C109.048 102.718 109.132 102.951 109.132 103.25C109.132 103.567 109.043 103.819 108.866 104.006C108.688 104.193 108.446 104.286 108.138 104.286C107.83 104.286 107.592 104.202 107.424 104.034C107.265 103.866 107.186 103.628 107.186 103.32C107.186 103.012 107.274 102.765 107.452 102.578C107.638 102.391 107.89 102.298 108.208 102.298ZM113.034 105.378C113.669 105.378 114.266 105.485 114.826 105.7L114.574 107.072L114.35 107.142C114.079 106.965 113.809 106.829 113.538 106.736C113.267 106.643 113.029 106.596 112.824 106.596C112.6 106.596 112.423 106.657 112.292 106.778C112.161 106.89 112.096 107.03 112.096 107.198C112.096 107.394 112.18 107.553 112.348 107.674C112.525 107.795 112.801 107.931 113.174 108.08C113.547 108.229 113.855 108.374 114.098 108.514C114.341 108.654 114.546 108.85 114.714 109.102C114.891 109.345 114.98 109.648 114.98 110.012C114.98 110.385 114.882 110.735 114.686 111.062C114.499 111.379 114.21 111.641 113.818 111.846C113.426 112.042 112.945 112.14 112.376 112.14C111.704 112.14 111.009 112 110.29 111.72L110.5 110.264L110.682 110.152C110.971 110.395 111.293 110.591 111.648 110.74C112.003 110.88 112.315 110.95 112.586 110.95C112.838 110.95 113.034 110.889 113.174 110.768C113.314 110.637 113.384 110.483 113.384 110.306C113.384 110.11 113.295 109.951 113.118 109.83C112.95 109.709 112.679 109.573 112.306 109.424C111.923 109.256 111.611 109.107 111.368 108.976C111.125 108.836 110.915 108.64 110.738 108.388C110.57 108.136 110.486 107.823 110.486 107.45C110.486 106.843 110.715 106.349 111.172 105.966C111.629 105.574 112.25 105.378 113.034 105.378ZM123.774 109.13L123.816 110.306C123.816 110.465 123.835 110.577 123.872 110.642C123.919 110.698 123.998 110.726 124.11 110.726C124.213 110.726 124.339 110.707 124.488 110.67L124.614 110.782L124.46 111.762C124.143 111.958 123.798 112.075 123.424 112.112C123.135 112.084 122.892 111.986 122.696 111.818C122.5 111.65 122.365 111.421 122.29 111.132H122.178C121.721 111.552 121.254 111.874 120.778 112.098C119.864 112.098 119.154 111.809 118.65 111.23C118.146 110.642 117.894 109.83 117.894 108.794C117.894 107.693 118.184 106.848 118.762 106.26C119.341 105.672 120.144 105.378 121.17 105.378C121.441 105.378 121.74 105.406 122.066 105.462L122.038 102.312L123.886 102.172L123.774 109.13ZM121.044 106.638C120.111 106.638 119.644 107.231 119.644 108.416C119.644 109.153 119.756 109.709 119.98 110.082C120.204 110.455 120.531 110.642 120.96 110.642C121.371 110.642 121.749 110.451 122.094 110.068L122.122 109.298L122.08 106.89C121.716 106.722 121.371 106.638 121.044 106.638ZM130.751 108.976L126.971 109.004C127.055 110.171 127.648 110.754 128.749 110.754C129.328 110.754 129.972 110.591 130.681 110.264L130.835 110.362L130.555 111.748C129.846 112.009 129.179 112.14 128.553 112.14C127.527 112.14 126.719 111.841 126.131 111.244C125.553 110.647 125.263 109.821 125.263 108.766C125.263 107.721 125.548 106.895 126.117 106.288C126.687 105.672 127.457 105.364 128.427 105.364C129.258 105.364 129.897 105.593 130.345 106.05C130.803 106.498 131.031 107.128 131.031 107.94C131.031 108.155 131.008 108.425 130.961 108.752L130.751 108.976ZM129.407 107.73C129.407 107.357 129.323 107.077 129.155 106.89C128.987 106.694 128.74 106.596 128.413 106.596C128.049 106.596 127.746 106.717 127.503 106.96C127.261 107.193 127.097 107.534 127.013 107.982L129.379 107.926L129.407 107.73ZM41.8923 122.372C41.6403 122.437 41.2809 122.507 40.8143 122.582L40.7863 122.638C40.9263 122.918 40.9963 123.231 40.9963 123.576C40.9963 124.276 40.7396 124.836 40.2263 125.256C39.7223 125.667 39.0363 125.872 38.1683 125.872C37.9069 125.872 37.6363 125.849 37.3563 125.802C37.2723 125.886 37.2163 125.951 37.1883 125.998C37.1603 126.045 37.1463 126.101 37.1463 126.166C37.1463 126.334 37.2583 126.451 37.4823 126.516C37.7063 126.581 38.0609 126.647 38.5463 126.712C39.0969 126.777 39.5543 126.857 39.9183 126.95C40.2916 127.043 40.6089 127.207 40.8703 127.44C41.1409 127.673 41.2763 128.005 41.2763 128.434C41.2763 128.873 41.1363 129.265 40.8563 129.61C40.5856 129.965 40.2076 130.24 39.7223 130.436C39.2369 130.632 38.6863 130.73 38.0703 130.73C37.2209 130.73 36.5676 130.557 36.1103 130.212C35.6529 129.867 35.4243 129.409 35.4243 128.84C35.7136 128.439 36.1009 128.089 36.5863 127.79V127.72C36.2689 127.608 36.0216 127.454 35.8443 127.258C35.6669 127.053 35.5783 126.782 35.5783 126.446C35.8303 126.138 36.1476 125.853 36.5303 125.592V125.522C36.1943 125.335 35.9376 125.093 35.7603 124.794C35.5923 124.486 35.5083 124.127 35.5083 123.716C35.5083 122.988 35.7603 122.419 36.2643 122.008C36.7683 121.597 37.4543 121.392 38.3223 121.392C38.8263 121.392 39.2836 121.476 39.6943 121.644C40.3663 121.523 41.0523 121.336 41.7523 121.084L41.8923 121.21V122.372ZM38.2243 124.752C38.6069 124.752 38.8963 124.654 39.0923 124.458C39.2883 124.262 39.3863 123.977 39.3863 123.604C39.3863 122.895 39.0223 122.54 38.2943 122.54C37.5103 122.54 37.1183 122.899 37.1183 123.618C37.1183 123.991 37.2116 124.276 37.3983 124.472C37.5849 124.659 37.8603 124.752 38.2243 124.752ZM39.7083 128.77C39.7083 128.518 39.5729 128.345 39.3023 128.252C39.0409 128.159 38.6349 128.079 38.0843 128.014L37.6083 127.944C37.3843 128.093 37.2163 128.238 37.1043 128.378C36.9923 128.518 36.9363 128.667 36.9363 128.826C36.9363 129.069 37.0483 129.265 37.2723 129.414C37.4963 129.563 37.8229 129.638 38.2523 129.638C38.6909 129.638 39.0409 129.559 39.3023 129.4C39.5729 129.251 39.7083 129.041 39.7083 128.77ZM45.2816 121.364C46.2336 121.364 46.9616 121.644 47.4656 122.204C47.9696 122.764 48.2216 123.571 48.2216 124.626C48.2216 125.765 47.9509 126.637 47.4096 127.244C46.8683 127.841 46.0889 128.14 45.0716 128.14C44.1196 128.14 43.3916 127.86 42.8876 127.3C42.3836 126.74 42.1316 125.933 42.1316 124.878C42.1316 123.739 42.4023 122.871 42.9436 122.274C43.4849 121.667 44.2643 121.364 45.2816 121.364ZM45.1556 122.624C44.7076 122.624 44.3809 122.773 44.1756 123.072C43.9796 123.371 43.8816 123.851 43.8816 124.514C43.8816 125.373 43.9843 125.984 44.1896 126.348C44.3949 126.712 44.7309 126.894 45.1976 126.894C45.6456 126.894 45.9676 126.749 46.1636 126.46C46.3689 126.161 46.4716 125.676 46.4716 125.004C46.4716 124.155 46.3643 123.548 46.1496 123.184C45.9443 122.811 45.6129 122.624 45.1556 122.624ZM53.0135 121.476C53.0975 121.476 53.2142 121.485 53.3635 121.504V123.226L53.1675 123.296C53.0089 123.231 52.8362 123.198 52.6495 123.198C52.1082 123.198 51.6182 123.548 51.1795 124.248V125.13L51.2775 128H49.4155L49.5275 125.312L49.4435 121.616L51.2075 121.462L51.1935 122.736H51.3055C51.7629 121.896 52.3322 121.476 53.0135 121.476ZM59.7147 125.13L59.7567 126.306C59.7567 126.465 59.7754 126.577 59.8127 126.642C59.8594 126.698 59.9387 126.726 60.0507 126.726C60.1534 126.726 60.2794 126.707 60.4287 126.67L60.5547 126.782L60.4007 127.762C60.0834 127.958 59.738 128.075 59.3647 128.112C59.0754 128.084 58.8327 127.986 58.6367 127.818C58.4407 127.65 58.3054 127.421 58.2307 127.132H58.1187C57.6614 127.552 57.1947 127.874 56.7187 128.098C55.804 128.098 55.0947 127.809 54.5907 127.23C54.0867 126.642 53.8347 125.83 53.8347 124.794C53.8347 123.693 54.124 122.848 54.7027 122.26C55.2814 121.672 56.084 121.378 57.1107 121.378C57.3814 121.378 57.68 121.406 58.0067 121.462L57.9787 118.312L59.8267 118.172L59.7147 125.13ZM56.9847 122.638C56.0514 122.638 55.5847 123.231 55.5847 124.416C55.5847 125.153 55.6967 125.709 55.9207 126.082C56.1447 126.455 56.4714 126.642 56.9007 126.642C57.3114 126.642 57.6894 126.451 58.0347 126.068L58.0627 125.298L58.0207 122.89C57.6567 122.722 57.3114 122.638 56.9847 122.638ZM67.8679 126.782L67.6999 127.762C67.3545 127.986 66.9999 128.103 66.6359 128.112C66.3652 128.065 66.1412 127.958 65.9639 127.79C65.7865 127.622 65.6512 127.379 65.5579 127.062H65.4319C64.8999 127.585 64.3492 127.925 63.7799 128.084C63.0705 128.084 62.5292 127.925 62.1559 127.608C61.7919 127.281 61.6145 126.815 61.6239 126.208L61.6519 124.556L61.5819 121.616L63.3879 121.462L63.3459 125.592C63.3365 125.919 63.4019 126.166 63.5419 126.334C63.6819 126.502 63.8919 126.586 64.1719 126.586C64.5825 126.586 64.9885 126.404 65.3899 126.04V121.616L67.1679 121.462L67.0419 126.306C67.0419 126.455 67.0652 126.563 67.1119 126.628C67.1679 126.693 67.2519 126.726 67.3639 126.726C67.4665 126.726 67.5925 126.707 67.7419 126.67L67.8679 126.782ZM72.4823 121.476C72.5663 121.476 72.6829 121.485 72.8323 121.504V123.226L72.6363 123.296C72.4776 123.231 72.3049 123.198 72.1183 123.198C71.5769 123.198 71.0869 123.548 70.6483 124.248V125.13L70.7463 128H68.8843L68.9963 125.312L68.9123 121.616L70.6763 121.462L70.6623 122.736H70.7743C71.2316 121.896 71.8009 121.476 72.4823 121.476ZM76.1767 121.364C76.8954 121.364 77.4554 121.527 77.8567 121.854C78.2674 122.171 78.4727 122.619 78.4727 123.198C78.4727 123.366 78.4447 123.898 78.3887 124.794C78.3794 125.055 78.3654 125.326 78.3467 125.606C78.3281 125.877 78.3187 126.11 78.3187 126.306C78.3187 126.465 78.3421 126.577 78.3887 126.642C78.4354 126.698 78.5194 126.726 78.6407 126.726C78.7341 126.726 78.8554 126.707 79.0047 126.67L79.1447 126.782L78.9767 127.762C78.6781 127.958 78.3374 128.075 77.9547 128.112C77.6747 128.084 77.4414 127.986 77.2547 127.818C77.0681 127.641 76.9421 127.398 76.8767 127.09H76.7787C76.3121 127.585 75.8314 127.93 75.3367 128.126C74.6647 128.117 74.1374 127.939 73.7547 127.594C73.3721 127.249 73.1807 126.777 73.1807 126.18C73.1807 125.713 73.2974 125.349 73.5307 125.088C73.7734 124.817 74.1374 124.635 74.6227 124.542L76.7647 124.136V123.562C76.7647 122.955 76.4661 122.652 75.8687 122.652C75.5794 122.652 75.2714 122.717 74.9447 122.848C74.6274 122.979 74.2681 123.184 73.8667 123.464L73.7267 123.38L73.5167 122.148C73.9181 121.896 74.3474 121.705 74.8047 121.574C75.2621 121.434 75.7194 121.364 76.1767 121.364ZM75.2667 125.396C75.1174 125.433 75.0054 125.499 74.9307 125.592C74.8654 125.676 74.8327 125.807 74.8327 125.984C74.8327 126.227 74.8981 126.418 75.0287 126.558C75.1594 126.689 75.3414 126.754 75.5747 126.754C75.9387 126.754 76.3214 126.539 76.7227 126.11L76.7507 125.074L75.2667 125.396ZM87.5141 124.976L83.7341 125.004C83.8181 126.171 84.4108 126.754 85.5121 126.754C86.0908 126.754 86.7348 126.591 87.4441 126.264L87.5981 126.362L87.3181 127.748C86.6088 128.009 85.9415 128.14 85.3161 128.14C84.2895 128.14 83.4821 127.841 82.8941 127.244C82.3155 126.647 82.0261 125.821 82.0261 124.766C82.0261 123.721 82.3108 122.895 82.8801 122.288C83.4495 121.672 84.2195 121.364 85.1901 121.364C86.0208 121.364 86.6601 121.593 87.1081 122.05C87.5655 122.498 87.7941 123.128 87.7941 123.94C87.7941 124.155 87.7708 124.425 87.7241 124.752L87.5141 124.976ZM86.1701 123.73C86.1701 123.357 86.0861 123.077 85.9181 122.89C85.7501 122.694 85.5028 122.596 85.1761 122.596C84.8121 122.596 84.5088 122.717 84.2661 122.96C84.0235 123.193 83.8601 123.534 83.7761 123.982L86.1421 123.926L86.1701 123.73ZM93.7588 121.364C94.4774 121.364 95.0374 121.527 95.4388 121.854C95.8494 122.171 96.0548 122.619 96.0548 123.198C96.0548 123.366 96.0268 123.898 95.9708 124.794C95.9614 125.055 95.9474 125.326 95.9288 125.606C95.9101 125.877 95.9008 126.11 95.9008 126.306C95.9008 126.465 95.9241 126.577 95.9708 126.642C96.0174 126.698 96.1014 126.726 96.2228 126.726C96.3161 126.726 96.4374 126.707 96.5868 126.67L96.7268 126.782L96.5588 127.762C96.2601 127.958 95.9194 128.075 95.5368 128.112C95.2568 128.084 95.0234 127.986 94.8368 127.818C94.6501 127.641 94.5241 127.398 94.4588 127.09H94.3608C93.8941 127.585 93.4134 127.93 92.9188 128.126C92.2468 128.117 91.7194 127.939 91.3368 127.594C90.9541 127.249 90.7628 126.777 90.7628 126.18C90.7628 125.713 90.8794 125.349 91.1128 125.088C91.3554 124.817 91.7194 124.635 92.2048 124.542L94.3468 124.136V123.562C94.3468 122.955 94.0481 122.652 93.4508 122.652C93.1614 122.652 92.8534 122.717 92.5268 122.848C92.2094 122.979 91.8501 123.184 91.4488 123.464L91.3088 123.38L91.0988 122.148C91.5001 121.896 91.9294 121.705 92.3868 121.574C92.8441 121.434 93.3014 121.364 93.7588 121.364ZM92.8488 125.396C92.6994 125.433 92.5874 125.499 92.5128 125.592C92.4474 125.676 92.4148 125.807 92.4148 125.984C92.4148 126.227 92.4801 126.418 92.6108 126.558C92.7414 126.689 92.9234 126.754 93.1568 126.754C93.5208 126.754 93.9034 126.539 94.3048 126.11L94.3328 125.074L92.8488 125.396ZM100.611 121.364C100.919 121.364 101.222 121.397 101.521 121.462C101.829 121.518 102.1 121.602 102.333 121.714L102.025 123.198L101.871 123.268C101.395 123.007 100.97 122.876 100.597 122.876C100.168 122.876 99.8363 123.03 99.603 123.338C99.3697 123.646 99.253 124.085 99.253 124.654C99.253 125.307 99.379 125.807 99.631 126.152C99.883 126.497 100.242 126.67 100.709 126.67C101.129 126.67 101.596 126.553 102.109 126.32L102.249 126.432L102.067 127.874C101.507 128.051 100.933 128.14 100.345 128.14C99.449 128.14 98.749 127.851 98.245 127.272C97.741 126.684 97.489 125.867 97.489 124.822C97.489 123.739 97.7643 122.895 98.315 122.288C98.8657 121.672 99.631 121.364 100.611 121.364ZM100.597 128.672L101.073 128.938C101.278 129.05 101.423 129.171 101.507 129.302C101.6 129.442 101.647 129.596 101.647 129.764C101.647 130.072 101.526 130.324 101.283 130.52C101.04 130.716 100.723 130.814 100.331 130.814C99.911 130.814 99.5283 130.683 99.183 130.422L99.309 129.638L99.393 129.596C99.673 129.876 99.9483 130.016 100.219 130.016C100.443 130.016 100.555 129.918 100.555 129.722C100.555 129.657 100.536 129.601 100.499 129.554C100.462 129.517 100.401 129.479 100.317 129.442L99.631 129.05L99.953 127.636H100.849L100.597 128.672ZM105.749 121.364C106.468 121.364 107.028 121.527 107.429 121.854C107.84 122.171 108.045 122.619 108.045 123.198C108.045 123.366 108.017 123.898 107.961 124.794C107.952 125.055 107.938 125.326 107.919 125.606C107.9 125.877 107.891 126.11 107.891 126.306C107.891 126.465 107.914 126.577 107.961 126.642C108.008 126.698 108.092 126.726 108.213 126.726C108.306 126.726 108.428 126.707 108.577 126.67L108.717 126.782L108.549 127.762C108.25 127.958 107.91 128.075 107.527 128.112C107.247 128.084 107.014 127.986 106.827 127.818C106.64 127.641 106.514 127.398 106.449 127.09H106.351C105.884 127.585 105.404 127.93 104.909 128.126C104.237 128.117 103.71 127.939 103.327 127.594C102.944 127.249 102.753 126.777 102.753 126.18C102.753 125.713 102.87 125.349 103.103 125.088C103.346 124.817 103.71 124.635 104.195 124.542L106.337 124.136V123.562C106.337 122.955 106.038 122.652 105.441 122.652C105.152 122.652 104.844 122.717 104.517 122.848C104.2 122.979 103.84 123.184 103.439 123.464L103.299 123.38L103.089 122.148C103.49 121.896 103.92 121.705 104.377 121.574C104.834 121.434 105.292 121.364 105.749 121.364ZM104.839 125.396C104.69 125.433 104.578 125.499 104.503 125.592C104.438 125.676 104.405 125.807 104.405 125.984C104.405 126.227 104.47 126.418 104.601 126.558C104.732 126.689 104.914 126.754 105.147 126.754C105.511 126.754 105.894 126.539 106.295 126.11L106.323 125.074L104.839 125.396ZM108.045 118.732V118.886L107.065 120.132L106.883 120.202C106.631 120.174 106.244 120.085 105.721 119.936C105.674 119.927 105.52 119.889 105.259 119.824C105.007 119.749 104.83 119.712 104.727 119.712C104.624 119.712 104.522 119.754 104.419 119.838C104.326 119.922 104.223 120.025 104.111 120.146C103.999 120.267 103.915 120.361 103.859 120.426H103.691L103.131 119.88V119.726L104.125 118.48L104.293 118.41C104.517 118.438 104.914 118.531 105.483 118.69C106.006 118.83 106.328 118.9 106.449 118.9C106.561 118.9 106.668 118.853 106.771 118.76C106.883 118.667 106.995 118.559 107.107 118.438C107.219 118.317 107.294 118.233 107.331 118.186H107.499L108.045 118.732ZM112.629 121.364C113.581 121.364 114.309 121.644 114.813 122.204C115.317 122.764 115.569 123.571 115.569 124.626C115.569 125.765 115.299 126.637 114.757 127.244C114.216 127.841 113.437 128.14 112.419 128.14C111.467 128.14 110.739 127.86 110.235 127.3C109.731 126.74 109.479 125.933 109.479 124.878C109.479 123.739 109.75 122.871 110.291 122.274C110.833 121.667 111.612 121.364 112.629 121.364ZM112.503 122.624C112.055 122.624 111.729 122.773 111.523 123.072C111.327 123.371 111.229 123.851 111.229 124.514C111.229 125.373 111.332 125.984 111.537 126.348C111.743 126.712 112.079 126.894 112.545 126.894C112.993 126.894 113.315 126.749 113.511 126.46C113.717 126.161 113.819 125.676 113.819 125.004C113.819 124.155 113.712 123.548 113.497 123.184C113.292 122.811 112.961 122.624 112.503 122.624ZM124.396 125.13L124.438 126.306C124.438 126.465 124.457 126.577 124.494 126.642C124.541 126.698 124.62 126.726 124.732 126.726C124.835 126.726 124.961 126.707 125.11 126.67L125.236 126.782L125.082 127.762C124.765 127.958 124.42 128.075 124.046 128.112C123.757 128.084 123.514 127.986 123.318 127.818C123.122 127.65 122.987 127.421 122.912 127.132H122.8C122.343 127.552 121.876 127.874 121.4 128.098C120.486 128.098 119.776 127.809 119.272 127.23C118.768 126.642 118.516 125.83 118.516 124.794C118.516 123.693 118.806 122.848 119.384 122.26C119.963 121.672 120.766 121.378 121.792 121.378C122.063 121.378 122.362 121.406 122.688 121.462L122.66 118.312L124.508 118.172L124.396 125.13ZM121.666 122.638C120.733 122.638 120.266 123.231 120.266 124.416C120.266 125.153 120.378 125.709 120.602 126.082C120.826 126.455 121.153 126.642 121.582 126.642C121.993 126.642 122.371 126.451 122.716 126.068L122.744 125.298L122.702 122.89C122.338 122.722 121.993 122.638 121.666 122.638ZM128.895 121.364C129.614 121.364 130.174 121.527 130.575 121.854C130.986 122.171 131.191 122.619 131.191 123.198C131.191 123.366 131.163 123.898 131.107 124.794C131.098 125.055 131.084 125.326 131.065 125.606C131.047 125.877 131.037 126.11 131.037 126.306C131.037 126.465 131.061 126.577 131.107 126.642C131.154 126.698 131.238 126.726 131.359 126.726C131.453 126.726 131.574 126.707 131.723 126.67L131.863 126.782L131.695 127.762C131.397 127.958 131.056 128.075 130.673 128.112C130.393 128.084 130.16 127.986 129.973 127.818C129.787 127.641 129.661 127.398 129.595 127.09H129.497C129.031 127.585 128.55 127.93 128.055 128.126C127.383 128.117 126.856 127.939 126.473 127.594C126.091 127.249 125.899 126.777 125.899 126.18C125.899 125.713 126.016 125.349 126.249 125.088C126.492 124.817 126.856 124.635 127.341 124.542L129.483 124.136V123.562C129.483 122.955 129.185 122.652 128.587 122.652C128.298 122.652 127.99 122.717 127.663 122.848C127.346 122.979 126.987 123.184 126.585 123.464L126.445 123.38L126.235 122.148C126.637 121.896 127.066 121.705 127.523 121.574C127.981 121.434 128.438 121.364 128.895 121.364ZM127.985 125.396C127.836 125.433 127.724 125.499 127.649 125.592C127.584 125.676 127.551 125.807 127.551 125.984C127.551 126.227 127.617 126.418 127.747 126.558C127.878 126.689 128.06 126.754 128.293 126.754C128.657 126.754 129.04 126.539 129.441 126.11L129.469 125.074L127.985 125.396ZM61.8667 141.312L61.7967 137.616L63.6307 137.462L63.5467 141.13L63.6307 144H61.7687L61.8667 141.312ZM62.7487 134.298C63.0381 134.298 63.2621 134.382 63.4207 134.55C63.5887 134.718 63.6727 134.951 63.6727 135.25C63.6727 135.567 63.5841 135.819 63.4067 136.006C63.2294 136.193 62.9867 136.286 62.6787 136.286C62.3707 136.286 62.1327 136.202 61.9647 136.034C61.8061 135.866 61.7267 135.628 61.7267 135.32C61.7267 135.012 61.8154 134.765 61.9927 134.578C62.1794 134.391 62.4314 134.298 62.7487 134.298ZM69.3951 139.94C69.4044 139.613 69.3298 139.361 69.1711 139.184C69.0218 138.997 68.8024 138.904 68.5131 138.904C68.0931 138.904 67.6451 139.105 67.1691 139.506V141.13L67.2531 144H65.3911L65.4891 141.312L65.4191 137.616L67.1831 137.462V138.414H67.2811C67.7944 137.947 68.3544 137.611 68.9611 137.406C69.6704 137.406 70.2118 137.569 70.5851 137.896C70.9584 138.213 71.1358 138.675 71.1171 139.282L71.0751 141.144L71.1591 144H69.2831L69.3951 139.94ZM74.9853 137.378C75.6199 137.378 76.2173 137.485 76.7773 137.7L76.5253 139.072L76.3013 139.142C76.0306 138.965 75.7599 138.829 75.4893 138.736C75.2186 138.643 74.9806 138.596 74.7753 138.596C74.5513 138.596 74.3739 138.657 74.2433 138.778C74.1126 138.89 74.0473 139.03 74.0473 139.198C74.0473 139.394 74.1313 139.553 74.2993 139.674C74.4766 139.795 74.7519 139.931 75.1253 140.08C75.4986 140.229 75.8066 140.374 76.0493 140.514C76.2919 140.654 76.4973 140.85 76.6653 141.102C76.8426 141.345 76.9313 141.648 76.9313 142.012C76.9313 142.385 76.8333 142.735 76.6373 143.062C76.4506 143.379 76.1613 143.641 75.7693 143.846C75.3773 144.042 74.8966 144.14 74.3273 144.14C73.6553 144.14 72.9599 144 72.2413 143.72L72.4513 142.264L72.6333 142.152C72.9226 142.395 73.2446 142.591 73.5993 142.74C73.9539 142.88 74.2666 142.95 74.5373 142.95C74.7893 142.95 74.9853 142.889 75.1253 142.768C75.2653 142.637 75.3353 142.483 75.3353 142.306C75.3353 142.11 75.2466 141.951 75.0693 141.83C74.9013 141.709 74.6306 141.573 74.2573 141.424C73.8746 141.256 73.5619 141.107 73.3193 140.976C73.0766 140.836 72.8666 140.64 72.6893 140.388C72.5213 140.136 72.4373 139.823 72.4373 139.45C72.4373 138.843 72.6659 138.349 73.1233 137.966C73.5806 137.574 74.2013 137.378 74.9853 137.378ZM84.3903 142.782L84.2223 143.762C83.877 143.986 83.5223 144.103 83.1583 144.112C82.8876 144.065 82.6636 143.958 82.4863 143.79C82.309 143.622 82.1736 143.379 82.0803 143.062H81.9543C81.4223 143.585 80.8716 143.925 80.3023 144.084C79.593 144.084 79.0516 143.925 78.6783 143.608C78.3143 143.281 78.137 142.815 78.1463 142.208L78.1743 140.556L78.1043 137.616L79.9103 137.462L79.8683 141.592C79.859 141.919 79.9243 142.166 80.0643 142.334C80.2043 142.502 80.4143 142.586 80.6943 142.586C81.105 142.586 81.511 142.404 81.9123 142.04V137.616L83.6903 137.462L83.5643 142.306C83.5643 142.455 83.5876 142.563 83.6343 142.628C83.6903 142.693 83.7743 142.726 83.8863 142.726C83.989 142.726 84.115 142.707 84.2643 142.67L84.3903 142.782ZM87.3088 141.13L87.4068 144H85.5448L85.6428 141.298L85.5588 134.312L87.4208 134.172L87.3088 141.13ZM89.2925 141.312L89.2225 137.616L91.0565 137.462L90.9725 141.13L91.0565 144H89.1945L89.2925 141.312ZM90.1745 134.298C90.4638 134.298 90.6878 134.382 90.8465 134.55C91.0145 134.718 91.0985 134.951 91.0985 135.25C91.0985 135.567 91.0098 135.819 90.8325 136.006C90.6552 136.193 90.4125 136.286 90.1045 136.286C89.7965 136.286 89.5585 136.202 89.3905 136.034C89.2318 135.866 89.1525 135.628 89.1525 135.32C89.1525 135.012 89.2412 134.765 89.4185 134.578C89.6052 134.391 89.8572 134.298 90.1745 134.298ZM96.8209 139.94C96.8302 139.613 96.7556 139.361 96.5969 139.184C96.4476 138.997 96.2282 138.904 95.9389 138.904C95.5189 138.904 95.0709 139.105 94.5949 139.506V141.13L94.6789 144H92.8169L92.9149 141.312L92.8449 137.616L94.6089 137.462V138.414H94.7069C95.2202 137.947 95.7802 137.611 96.3869 137.406C97.0962 137.406 97.6376 137.569 98.0109 137.896C98.3842 138.213 98.5616 138.675 98.5429 139.282L98.5009 141.144L98.5849 144H96.7089L96.8209 139.94ZM102.789 137.364C103.508 137.364 104.068 137.527 104.469 137.854C104.88 138.171 105.085 138.619 105.085 139.198C105.085 139.366 105.057 139.898 105.001 140.794C104.992 141.055 104.978 141.326 104.959 141.606C104.94 141.877 104.931 142.11 104.931 142.306C104.931 142.465 104.954 142.577 105.001 142.642C105.048 142.698 105.132 142.726 105.253 142.726C105.346 142.726 105.468 142.707 105.617 142.67L105.757 142.782L105.589 143.762C105.29 143.958 104.95 144.075 104.567 144.112C104.287 144.084 104.054 143.986 103.867 143.818C103.68 143.641 103.554 143.398 103.489 143.09H103.391C102.924 143.585 102.444 143.93 101.949 144.126C101.277 144.117 100.75 143.939 100.367 143.594C99.9844 143.249 99.793 142.777 99.793 142.18C99.793 141.713 99.9097 141.349 100.143 141.088C100.386 140.817 100.75 140.635 101.235 140.542L103.377 140.136V139.562C103.377 138.955 103.078 138.652 102.481 138.652C102.192 138.652 101.884 138.717 101.557 138.848C101.24 138.979 100.88 139.184 100.479 139.464L100.339 139.38L100.129 138.148C100.53 137.896 100.96 137.705 101.417 137.574C101.874 137.434 102.332 137.364 102.789 137.364ZM101.879 141.396C101.73 141.433 101.618 141.499 101.543 141.592C101.478 141.676 101.445 141.807 101.445 141.984C101.445 142.227 101.51 142.418 101.641 142.558C101.772 142.689 101.954 142.754 102.187 142.754C102.551 142.754 102.934 142.539 103.335 142.11L103.363 141.074L101.879 141.396Z" fill="white"/>
<defs>
<filter id="filter0_b_206:36956" x="3" y="67" width="161" height="97" filterUnits="userSpaceOnUse" color-interpolation-filters="sRGB">
<feFlood flood-opacity="0" result="BackgroundImageFix"/>
<feGaussianBlur in="BackgroundImage" stdDeviation="5"/>
<feComposite in2="SourceAlpha" operator="in" result="effect1_backgroundBlur_206:36956"/>
<feBlend mode="normal" in="SourceGraphic" in2="effect1_backgroundBlur_206:36956" result="shape"/>
</filter>
</defs>
</svg>
