<svg width="167" height="167" viewBox="0 0 167 167" fill="none" xmlns="http://www.w3.org/2000/svg">
<mask id="mask0_206:36932" style="mask-type:alpha" maskUnits="userSpaceOnUse" x="0" y="0" width="167" height="167">
<rect x="1" y="1" width="165" height="165" rx="8" fill="#5988D6" stroke="#EDE6FC" stroke-opacity="0.3"/>
</mask>
<g mask="url(#mask0_206:36932)">
<rect x="1" y="1" width="165" height="165" rx="8" fill="#7AC2D9" stroke="#EDE6FC" stroke-opacity="0.3"/>
</g>
<g clip-path="url(#clip0_206:36932)">
<path opacity="0.63" d="M97.6954 43.2935C97.6149 43.2495 97.5463 43.1868 97.4952 43.1107C97.4441 43.0346 97.4122 42.9473 97.402 42.8562C97.3919 42.7651 97.4039 42.6728 97.437 42.5874C97.4701 42.5019 97.5233 42.4256 97.5922 42.3651L97.439 42.2412C97.2966 42.1217 97.206 41.9518 97.186 41.767C97.1661 41.5822 97.2184 41.3969 97.332 41.2498C95.5177 40.95 93.7106 40.6625 91.8931 40.4136C86.3465 39.6314 80.728 39.2336 75.279 37.7011L67.0197 54.8477L74.1798 62.6673L91.0435 67.2688L101.189 64.1793L102.765 45.5837C100.957 45.1168 99.2415 44.3421 97.6954 43.2935Z" fill="#D6D6D6"/>
<path d="M75.4196 37.5628L81.8075 42.5459L94.3128 46.1037L102.628 45.9816C102.628 45.9816 98.3132 40.0219 95.0365 38.8437C91.7598 37.6654 84.5399 35.1304 81.5403 34.9271C78.5407 34.7239 75.4196 37.5628 75.4196 37.5628Z" fill="#D6D6D6"/>
<path opacity="0.8" d="M80.9125 20.7723L63.8482 56.2134L72.0994 65.2157L89.0868 25.116L80.9125 20.7723Z" fill="#A3D6E2"/>
<path opacity="0.8" d="M106.543 27.7747L103.228 66.9619L91.5369 70.5275L97.2965 27.3572L106.543 27.7747Z" fill="#A3D6E2"/>
<path opacity="0.8" d="M89.0867 25.116L97.2964 27.3572L91.5369 70.5275L72.0993 65.2157L89.0867 25.116Z" fill="#BDEAF2"/>
<path d="M84.2476 11.4167L80.6804 19.8612C80.7423 20.0111 80.7909 20.1661 80.8254 20.3245C81.1016 22.6554 86.1964 25.7805 92.9089 27.6205C100.037 29.5306 106.326 29.3211 107.226 27.1191L108.452 18.0264L84.2476 11.4167Z" fill="#2C2D2B"/>
<path d="M108.481 18.0342C107.834 20.449 101.871 20.9114 95.1749 19.0862C88.4792 17.261 83.5812 13.8263 84.2476 11.4167C84.914 9.00706 90.8601 8.52978 97.5559 10.355C104.252 12.1801 109.137 15.6219 108.481 18.0342Z" fill="#424242"/>
<path d="M95.1084 17.5569C95.5445 17.6737 95.9879 17.7614 96.4357 17.8194C96.6108 17.8455 96.7893 17.8032 96.9341 17.7013C97.079 17.5995 97.1791 17.4458 97.2138 17.2722C97.2114 17.0858 97.1441 16.9061 97.0234 16.7642C96.9026 16.6222 96.7361 16.5268 96.5526 16.4945C96.1141 16.3951 95.6697 16.3244 95.222 16.2829C95.0534 16.2561 94.881 16.2957 94.741 16.3933C94.6009 16.4909 94.5041 16.6389 94.4709 16.8064C94.4747 16.9857 94.5401 17.1583 94.6562 17.295C94.7724 17.4317 94.932 17.5242 95.1084 17.5569Z" fill="#A3A3A3"/>
<path d="M95.5034 12.5278C95.7831 12.6494 96.0794 12.7288 96.3824 12.7634C96.5603 12.8316 96.7448 12.8811 96.933 12.9109C97.1559 12.9167 97.3776 12.8775 97.585 12.7957C97.7052 12.7503 97.8104 12.6722 97.8886 12.5703C97.9669 12.4683 98.0151 12.3465 98.0278 12.2186C98.0406 12.0907 98.0173 11.9618 97.9608 11.8465C97.9042 11.7311 97.8165 11.6338 97.7076 11.5655C97.5283 11.4119 97.3199 11.2962 97.0948 11.2253C96.9076 11.184 96.7174 11.1573 96.5261 11.1454C96.2367 11.0969 95.9417 11.0911 95.6507 11.1282C94.8601 11.2581 94.7895 12.1398 95.506 12.5182L95.5034 12.5278Z" fill="#A3A3A3"/>
<path d="M87.7848 13.3998C88.345 13.5499 88.9039 13.7825 89.4848 13.8553C90.6595 14.1079 91.0133 12.8258 89.8627 12.4451C89.3025 12.2949 88.7229 12.1397 88.153 11.9869C87.0519 11.6919 86.7025 12.9959 87.7958 13.3199L87.7848 13.3998Z" fill="#A3A3A3"/>
<path d="M102.948 16.8519C103.116 17.0036 103.315 17.117 103.532 17.1844C103.729 17.2283 103.928 17.2576 104.129 17.2721C104.465 17.35 104.811 17.3657 105.152 17.3184C105.317 17.3051 105.471 17.2366 105.592 17.1241C105.712 17.0116 105.791 16.8618 105.815 16.6988C105.82 16.5274 105.773 16.3585 105.681 16.2138C105.588 16.0692 105.455 15.9555 105.298 15.8872C104.911 15.7386 104.503 15.657 104.089 15.6462C103.922 15.6285 103.755 15.6216 103.587 15.6256C103.347 15.6456 103.116 15.7306 102.921 15.8715C102.563 16.0862 102.656 16.5875 102.977 16.8597L102.948 16.8519Z" fill="#A3A3A3"/>
<path d="M95.5092 14.7862C95.7313 14.8458 95.9438 14.9027 96.1757 14.9648C96.4075 15.0269 96.9552 14.9149 97.0257 14.6129C97.043 14.4438 96.9964 14.2743 96.895 14.1379C96.7935 14.0015 96.6447 13.9081 96.4778 13.8759C96.2565 13.8011 96.0307 13.7406 95.8016 13.6948C95.6323 13.6562 95.4558 13.6624 95.2895 13.7128C95.2193 13.7426 95.156 13.7866 95.1037 13.8421C95.0515 13.8976 95.0113 13.9633 94.9858 14.0352C94.9688 14.1087 94.9695 14.1852 94.9876 14.2584C95.0058 14.3316 95.0409 14.3995 95.0902 14.4566C95.2004 14.595 95.3502 14.6965 95.5195 14.7476L95.5092 14.7862Z" fill="#A3A3A3"/>
<path d="M99.8233 14.1408C100.193 14.2721 100.583 14.3345 100.975 14.3251C101.103 14.3595 101.239 14.3415 101.354 14.2752C101.469 14.2089 101.553 14.0997 101.587 13.9716C101.622 13.8435 101.604 13.707 101.537 13.5922C101.471 13.4773 101.362 13.3935 101.234 13.3592C100.9 13.152 100.532 13.0077 100.147 12.9334C99.7508 12.8273 99.3016 12.9968 99.2381 13.3111C99.2201 13.4919 99.2702 13.6728 99.3786 13.8186C99.4869 13.9644 99.6457 14.0646 99.824 14.0996L99.8233 14.1408Z" fill="#A3A3A3"/>
<path d="M99.6128 16.5484C99.6318 16.6149 99.6647 16.6767 99.7092 16.7296C99.8134 16.8656 99.9549 16.9683 100.117 17.0251L100.3 17.0742L100.522 17.1338L100.731 17.1276C100.849 17.1068 100.962 17.0588 101.058 16.9875C101.145 16.9223 101.207 16.8291 101.233 16.7236C101.261 16.6192 101.255 16.5082 101.214 16.408C101.168 16.3016 101.097 16.208 101.007 16.1352C100.934 16.066 100.843 16.0169 100.745 15.9926L100.61 15.9563C100.492 15.8983 100.364 15.864 100.233 15.8554C100.072 15.8629 99.9163 15.9186 99.7867 16.0153C99.7077 16.078 99.651 16.1644 99.6249 16.2618C99.5988 16.3592 99.6047 16.4624 99.6418 16.5562L99.6128 16.5484Z" fill="#A3A3A3"/>
<path d="M91.3741 15.459C91.8219 15.6582 92.317 15.7262 92.802 15.6552C92.9079 15.6509 93.0087 15.6086 93.0859 15.5359C93.1631 15.4632 93.2115 15.3651 93.2221 15.2597C93.2327 15.1542 93.2049 15.0484 93.1438 14.9618C93.0826 14.8752 92.9923 14.8136 92.8893 14.7883C92.6807 14.6962 92.4592 14.6369 92.2325 14.6123C91.981 14.5432 91.7181 14.5256 91.4596 14.5605C91.3512 14.5709 91.2498 14.6187 91.1727 14.6956C91.0956 14.7725 91.0476 14.8737 91.0369 14.9821C91.0262 15.0905 91.0535 15.1992 91.114 15.2897C91.1746 15.3802 91.2647 15.4468 91.3689 15.4783L91.3741 15.459Z" fill="#A3A3A3"/>
<path d="M91.6783 12.0826C91.8717 12.2682 92.1164 12.3914 92.3806 12.4365C92.646 12.4947 92.9222 12.4792 93.1794 12.3917C93.2457 12.3702 93.3067 12.3352 93.3586 12.2887C93.4106 12.2423 93.4522 12.1856 93.4809 12.1221C93.5096 12.0586 93.5247 11.9899 93.5253 11.9202C93.5259 11.8506 93.5119 11.7816 93.4843 11.7176C93.4368 11.6103 93.3674 11.5141 93.2804 11.4353C93.1188 11.3078 92.9219 11.2334 92.7164 11.222C92.614 11.2071 92.5097 11.2145 92.4104 11.2435L92.4684 11.2591L92.3911 11.2384C92.3143 11.2262 92.2358 11.2298 92.1605 11.249L92.2184 11.2646C92.1701 11.2516 92.1218 11.2387 92.0735 11.2257C91.9632 11.212 91.8512 11.2321 91.7525 11.2832C91.6538 11.3344 91.5729 11.4143 91.5205 11.5124C91.482 11.6105 91.4768 11.7185 91.5058 11.8198C91.5348 11.9211 91.5963 12.0101 91.6809 12.073L91.6783 12.0826Z" fill="#A3A3A3"/>
<path d="M95.1287 17.7901C95.5647 17.9072 96.0082 17.9949 96.456 18.0526C96.6319 18.0789 96.8113 18.0373 96.9576 17.9361C97.104 17.8349 97.2063 17.6819 97.2438 17.508C97.2395 17.3221 97.1715 17.1435 97.0511 17.0019C96.9307 16.8603 96.7652 16.7644 96.5825 16.7303C96.1443 16.63 95.6997 16.5593 95.252 16.5187C95.0834 16.4919 94.911 16.5315 94.7709 16.6291C94.6309 16.7267 94.5341 16.8747 94.5009 17.0422C94.501 17.2207 94.564 17.3936 94.6788 17.5303C94.7936 17.6671 94.9528 17.7591 95.1287 17.7901Z" fill="#2C2D2B"/>
<path d="M95.5162 12.79C95.7881 12.9295 96.079 13.0283 96.3796 13.0835C96.5603 13.1429 96.744 13.1921 96.9302 13.231C97.1547 13.2358 97.3778 13.1933 97.5848 13.1062C97.705 13.0615 97.8103 12.9843 97.8891 12.8831C97.9678 12.7819 98.0168 12.6608 98.0306 12.5333C98.0443 12.4058 98.0222 12.277 97.9668 12.1614C97.9115 12.0457 97.8249 11.9478 97.717 11.8786C97.5336 11.7261 97.3208 11.6127 97.0919 11.5455C96.9091 11.5018 96.723 11.4727 96.5355 11.4585C96.2421 11.4078 95.9424 11.4044 95.6479 11.4484C94.8696 11.5711 94.7893 12.4503 95.5058 12.8287L95.5162 12.79Z" fill="#2C2D2B"/>
<path d="M87.8024 13.6427C88.3627 13.7928 88.9338 14.0183 89.5121 14.1008C90.6712 14.4114 91.031 13.0687 89.8874 12.7002C89.3272 12.5501 88.7476 12.3948 88.1874 12.2447C87.0862 11.9496 86.7272 13.251 87.8276 13.5873L87.8024 13.6427Z" fill="#2C2D2B"/>
<path d="M102.966 17.0948C103.135 17.2515 103.338 17.3662 103.559 17.4298C103.753 17.4728 103.949 17.5012 104.147 17.5149C104.481 17.5947 104.827 17.6137 105.167 17.5709C105.331 17.5511 105.484 17.4793 105.604 17.366C105.724 17.2528 105.804 17.104 105.833 16.9417C105.836 16.7705 105.789 16.6022 105.697 16.4578C105.605 16.3134 105.472 16.1994 105.315 16.1301C104.929 15.9793 104.519 15.9009 104.104 15.8987C103.935 15.8769 103.765 15.866 103.595 15.8659C103.356 15.8913 103.127 15.9758 102.929 16.1118C102.581 16.3291 102.672 16.84 102.985 17.1L102.966 17.0948Z" fill="#2C2D2B"/>
<path d="M95.5294 15.0195C95.7507 15.0943 95.9765 15.1548 96.2055 15.2006C96.5726 15.299 96.985 15.1507 97.0459 14.8461C97.0656 14.6765 97.0199 14.5059 96.9181 14.369C96.8163 14.232 96.666 14.1391 96.498 14.1091C96.2758 14.0496 96.0537 13.9901 95.8315 13.9306C95.6576 13.8921 95.4766 13.9008 95.3072 13.9557C95.2374 13.982 95.1748 14.0242 95.1242 14.0789C95.0736 14.1336 95.0364 14.1994 95.0156 14.271C95.0002 14.3449 95.0004 14.4212 95.0163 14.495C95.0322 14.5688 95.0634 14.6385 95.1079 14.6995C95.2248 14.8294 95.3737 14.9264 95.5398 14.9808L95.5294 15.0195Z" fill="#2C2D2B"/>
<path d="M99.8532 14.3766C100.221 14.5108 100.611 14.5766 101.002 14.5706C101.12 14.5781 101.236 14.5446 101.332 14.4759C101.428 14.4072 101.497 14.3074 101.527 14.1936C101.558 14.0798 101.548 13.959 101.499 13.8516C101.451 13.7442 101.366 13.657 101.261 13.6047C100.928 13.3965 100.56 13.2521 100.174 13.1789C99.7878 13.0753 99.3386 13.2449 99.2751 13.5591C99.2522 13.7407 99.3005 13.9241 99.4096 14.0711C99.5188 14.218 99.6805 14.3171 99.861 14.3476L99.8532 14.3766Z" fill="#2C2D2B"/>
<path d="M99.6404 16.7939C99.6821 16.9061 99.7497 17.0069 99.8377 17.088C99.9257 17.1692 100.032 17.2284 100.147 17.2609L100.321 17.3074L100.543 17.367L100.764 17.3537C100.882 17.3398 100.994 17.2948 101.089 17.2233C101.169 17.1525 101.229 17.0614 101.263 16.9594C101.292 16.852 101.287 16.738 101.247 16.6341C101.201 16.5277 101.13 16.4341 101.04 16.3614C100.968 16.2961 100.881 16.2482 100.788 16.2213L100.643 16.1825C100.525 16.1244 100.397 16.0901 100.266 16.0815C100.108 16.082 99.9552 16.1359 99.8318 16.2343C99.7503 16.2973 99.6917 16.3852 99.665 16.4847C99.6384 16.5842 99.6451 16.6897 99.6842 16.7849L99.6404 16.7939Z" fill="#2C2D2B"/>
<path d="M91.3946 15.6922C91.8453 15.893 92.3438 15.9619 92.8321 15.891C92.9381 15.8867 93.0389 15.8444 93.1161 15.7717C93.1933 15.699 93.2416 15.6009 93.2523 15.4955C93.2629 15.39 93.2351 15.2842 93.1739 15.1976C93.1128 15.111 93.0225 15.0494 92.9195 15.0241C92.7093 14.9367 92.4884 14.8775 92.2626 14.8481C92.0072 14.7832 91.7421 14.7648 91.4801 14.7937C91.3717 14.8041 91.2703 14.8519 91.1932 14.9288C91.1161 15.0057 91.0681 15.1069 91.0574 15.2153C91.0467 15.3237 91.074 15.4324 91.1345 15.5229C91.1951 15.6134 91.2852 15.68 91.3894 15.7115L91.3946 15.6922Z" fill="#2C2D2B"/>
<path d="M91.689 12.3133C91.8872 12.4984 92.1327 12.6251 92.3985 12.6794C92.6644 12.7294 92.9386 12.714 93.1973 12.6346C93.2627 12.6118 93.3227 12.5761 93.3738 12.5294C93.4249 12.4827 93.466 12.4261 93.4945 12.363C93.523 12.3 93.5384 12.2318 93.5397 12.1626C93.541 12.0934 93.5282 12.0246 93.5021 11.9605C93.4571 11.8485 93.3835 11.7502 93.2886 11.6755C93.1345 11.5424 92.9402 11.4649 92.7368 11.4552C92.6596 11.4345 92.505 11.3931 92.4186 11.4838C92.5345 11.5149 92.5764 11.4744 92.4862 11.5019L92.4089 11.4812L92.1686 11.4893C92.1107 11.4738 92.1686 11.4893 92.2363 11.5074L92.0817 11.466C91.9728 11.452 91.8622 11.4708 91.7641 11.5202C91.6659 11.5696 91.5849 11.6472 91.5313 11.743C91.496 11.8415 91.4925 11.9485 91.5213 12.0491C91.55 12.1497 91.6096 12.2387 91.6916 12.3036L91.689 12.3133Z" fill="#2C2D2B"/>
</g>
<g filter="url(#filter0_b_206:36932)">
<rect x="13" y="77" width="141" height="77" rx="10" fill="black" fill-opacity="0.8"/>
</g>
<path d="M30.4051 108.416C31.1331 109.573 31.8564 110.619 32.5751 111.552L32.5471 111.762C31.9404 111.977 31.3197 112.103 30.6851 112.14L30.4891 111.986C29.8171 110.829 29.2711 109.821 28.8511 108.962H27.4931V109.144L27.5771 112H25.6731L25.7711 109.312L25.6731 102.984L29.1311 102.97C30.0737 102.97 30.8017 103.203 31.3151 103.67C31.8284 104.127 32.0851 104.785 32.0851 105.644C32.0851 106.223 31.9357 106.755 31.6371 107.24C31.3477 107.716 30.9371 108.108 30.4051 108.416ZM27.5211 107.492L28.9071 107.548C29.7004 107.277 30.0971 106.703 30.0971 105.826C30.0971 105.35 29.9664 104.995 29.7051 104.762C29.4531 104.519 29.0611 104.389 28.5291 104.37L27.5771 104.426L27.5211 107.492ZM38.268 108.976L34.488 109.004C34.572 110.171 35.1647 110.754 36.266 110.754C36.8447 110.754 37.4887 110.591 38.198 110.264L38.352 110.362L38.072 111.748C37.3627 112.009 36.6954 112.14 36.07 112.14C35.0434 112.14 34.236 111.841 33.648 111.244C33.0694 110.647 32.78 109.821 32.78 108.766C32.78 107.721 33.0647 106.895 33.634 106.288C34.2034 105.672 34.9734 105.364 35.944 105.364C36.7747 105.364 37.414 105.593 37.862 106.05C38.3194 106.498 38.548 107.128 38.548 107.94C38.548 108.155 38.5247 108.425 38.478 108.752L38.268 108.976ZM36.924 107.73C36.924 107.357 36.84 107.077 36.672 106.89C36.504 106.694 36.2567 106.596 35.93 106.596C35.566 106.596 35.2627 106.717 35.02 106.96C34.7774 107.193 34.614 107.534 34.53 107.982L36.896 107.926L36.924 107.73ZM45.2635 109.13L45.3055 110.306C45.3055 110.465 45.3242 110.577 45.3615 110.642C45.4082 110.698 45.4875 110.726 45.5995 110.726C45.7022 110.726 45.8282 110.707 45.9775 110.67L46.1035 110.782L45.9495 111.762C45.6322 111.958 45.2869 112.075 44.9135 112.112C44.6242 112.084 44.3815 111.986 44.1855 111.818C43.9895 111.65 43.8542 111.421 43.7795 111.132H43.6675C43.2102 111.552 42.7435 111.874 42.2675 112.098C41.3529 112.098 40.6435 111.809 40.1395 111.23C39.6355 110.642 39.3835 109.83 39.3835 108.794C39.3835 107.693 39.6729 106.848 40.2515 106.26C40.8302 105.672 41.6329 105.378 42.6595 105.378C42.9302 105.378 43.2289 105.406 43.5555 105.462L43.5275 102.312L45.3755 102.172L45.2635 109.13ZM42.5335 106.638C41.6002 106.638 41.1335 107.231 41.1335 108.416C41.1335 109.153 41.2455 109.709 41.4695 110.082C41.6935 110.455 42.0202 110.642 42.4495 110.642C42.8602 110.642 43.2382 110.451 43.5835 110.068L43.6115 109.298L43.5695 106.89C43.2055 106.722 42.8602 106.638 42.5335 106.638ZM53.4167 110.782L53.2487 111.762C52.9033 111.986 52.5487 112.103 52.1847 112.112C51.914 112.065 51.69 111.958 51.5127 111.79C51.3353 111.622 51.2 111.379 51.1067 111.062H50.9807C50.4487 111.585 49.898 111.925 49.3287 112.084C48.6193 112.084 48.078 111.925 47.7047 111.608C47.3407 111.281 47.1633 110.815 47.1727 110.208L47.2007 108.556L47.1307 105.616L48.9367 105.462L48.8947 109.592C48.8853 109.919 48.9507 110.166 49.0907 110.334C49.2307 110.502 49.4407 110.586 49.7207 110.586C50.1313 110.586 50.5373 110.404 50.9387 110.04V105.616L52.7167 105.462L52.5907 110.306C52.5907 110.455 52.614 110.563 52.6607 110.628C52.7167 110.693 52.8007 110.726 52.9127 110.726C53.0153 110.726 53.1413 110.707 53.2907 110.67L53.4167 110.782ZM55.5931 105.49H58.4211L59.1351 105.476L59.1491 106.582L55.9991 110.81H57.9731L59.1631 110.698L59.2611 110.824L59.1351 112.028L57.5111 112H54.9351L54.0391 112.042V110.95L57.2171 106.694H55.3411L54.1791 106.792L54.0671 106.666L54.2071 105.462L55.5931 105.49ZM63.0107 105.364C63.7294 105.364 64.2894 105.527 64.6907 105.854C65.1014 106.171 65.3067 106.619 65.3067 107.198C65.3067 107.366 65.2787 107.898 65.2227 108.794C65.2134 109.055 65.1994 109.326 65.1807 109.606C65.1621 109.877 65.1527 110.11 65.1527 110.306C65.1527 110.465 65.1761 110.577 65.2227 110.642C65.2694 110.698 65.3534 110.726 65.4747 110.726C65.5681 110.726 65.6894 110.707 65.8387 110.67L65.9787 110.782L65.8107 111.762C65.5121 111.958 65.1714 112.075 64.7887 112.112C64.5087 112.084 64.2754 111.986 64.0887 111.818C63.9021 111.641 63.7761 111.398 63.7107 111.09H63.6127C63.1461 111.585 62.6654 111.93 62.1707 112.126C61.4987 112.117 60.9714 111.939 60.5887 111.594C60.2061 111.249 60.0147 110.777 60.0147 110.18C60.0147 109.713 60.1314 109.349 60.3647 109.088C60.6074 108.817 60.9714 108.635 61.4567 108.542L63.5987 108.136V107.562C63.5987 106.955 63.3001 106.652 62.7027 106.652C62.4134 106.652 62.1054 106.717 61.7787 106.848C61.4614 106.979 61.1021 107.184 60.7007 107.464L60.5607 107.38L60.3507 106.148C60.7521 105.896 61.1814 105.705 61.6387 105.574C62.0961 105.434 62.5534 105.364 63.0107 105.364ZM62.1007 109.396C61.9514 109.433 61.8394 109.499 61.7647 109.592C61.6994 109.676 61.6667 109.807 61.6667 109.984C61.6667 110.227 61.7321 110.418 61.8627 110.558C61.9934 110.689 62.1754 110.754 62.4087 110.754C62.7727 110.754 63.1554 110.539 63.5567 110.11L63.5847 109.074L62.1007 109.396ZM71.8701 105.364C72.5888 105.364 73.1488 105.527 73.5501 105.854C73.9608 106.171 74.1661 106.619 74.1661 107.198C74.1661 107.366 74.1381 107.898 74.0821 108.794C74.0728 109.055 74.0588 109.326 74.0401 109.606C74.0214 109.877 74.0121 110.11 74.0121 110.306C74.0121 110.465 74.0354 110.577 74.0821 110.642C74.1288 110.698 74.2128 110.726 74.3341 110.726C74.4274 110.726 74.5488 110.707 74.6981 110.67L74.8381 110.782L74.6701 111.762C74.3714 111.958 74.0308 112.075 73.6481 112.112C73.3681 112.084 73.1348 111.986 72.9481 111.818C72.7614 111.641 72.6354 111.398 72.5701 111.09H72.4721C72.0054 111.585 71.5248 111.93 71.0301 112.126C70.3581 112.117 69.8308 111.939 69.4481 111.594C69.0654 111.249 68.8741 110.777 68.8741 110.18C68.8741 109.713 68.9908 109.349 69.2241 109.088C69.4668 108.817 69.8308 108.635 70.3161 108.542L72.4581 108.136V107.562C72.4581 106.955 72.1594 106.652 71.5621 106.652C71.2728 106.652 70.9648 106.717 70.6381 106.848C70.3208 106.979 69.9614 107.184 69.5601 107.464L69.4201 107.38L69.2101 106.148C69.6114 105.896 70.0408 105.705 70.4981 105.574C70.9554 105.434 71.4128 105.364 71.8701 105.364ZM70.9601 109.396C70.8108 109.433 70.6988 109.499 70.6241 109.592C70.5588 109.676 70.5261 109.807 70.5261 109.984C70.5261 110.227 70.5914 110.418 70.7221 110.558C70.8528 110.689 71.0348 110.754 71.2681 110.754C71.6321 110.754 72.0148 110.539 72.4161 110.11L72.4441 109.074L70.9601 109.396ZM83.5575 105.378L83.7115 105.462L83.5995 109.13L83.6975 114.59H81.8495L81.9335 111.65V111.3H81.8215C81.4388 111.627 81.0188 111.893 80.5615 112.098C79.6561 112.098 78.9561 111.809 78.4615 111.23C77.9668 110.642 77.7195 109.839 77.7195 108.822C77.7195 107.711 78.0088 106.862 78.5875 106.274C79.1661 105.677 79.9408 105.378 80.9115 105.378C81.4155 105.378 81.9755 105.481 82.5915 105.686L83.5575 105.378ZM80.8555 106.638C79.9315 106.638 79.4695 107.254 79.4695 108.486C79.4695 109.186 79.5768 109.723 79.7915 110.096C80.0155 110.46 80.3375 110.642 80.7575 110.642C80.9535 110.642 81.1448 110.6 81.3315 110.516C81.5275 110.423 81.7281 110.273 81.9335 110.068L81.9475 109.326L81.9055 106.932C81.5321 106.736 81.1821 106.638 80.8555 106.638ZM91.6432 110.782L91.4752 111.762C91.1299 111.986 90.7752 112.103 90.4112 112.112C90.1406 112.065 89.9166 111.958 89.7392 111.79C89.5619 111.622 89.4266 111.379 89.3332 111.062H89.2072C88.6752 111.585 88.1246 111.925 87.5552 112.084C86.8459 112.084 86.3046 111.925 85.9312 111.608C85.5672 111.281 85.3899 110.815 85.3992 110.208L85.4272 108.556L85.3572 105.616L87.1632 105.462L87.1212 109.592C87.1119 109.919 87.1772 110.166 87.3172 110.334C87.4572 110.502 87.6672 110.586 87.9472 110.586C88.3579 110.586 88.7639 110.404 89.1652 110.04V105.616L90.9432 105.462L90.8172 110.306C90.8172 110.455 90.8406 110.563 90.8872 110.628C90.9432 110.693 91.0272 110.726 91.1392 110.726C91.2419 110.726 91.3679 110.707 91.5172 110.67L91.6432 110.782ZM95.3037 105.364C96.0224 105.364 96.5824 105.527 96.9837 105.854C97.3944 106.171 97.5997 106.619 97.5997 107.198C97.5997 107.366 97.5717 107.898 97.5157 108.794C97.5064 109.055 97.4924 109.326 97.4737 109.606C97.455 109.877 97.4457 110.11 97.4457 110.306C97.4457 110.465 97.469 110.577 97.5157 110.642C97.5624 110.698 97.6464 110.726 97.7677 110.726C97.861 110.726 97.9824 110.707 98.1317 110.67L98.2717 110.782L98.1037 111.762C97.805 111.958 97.4644 112.075 97.0817 112.112C96.8017 112.084 96.5684 111.986 96.3817 111.818C96.195 111.641 96.069 111.398 96.0037 111.09H95.9057C95.439 111.585 94.9584 111.93 94.4637 112.126C93.7917 112.117 93.2644 111.939 92.8817 111.594C92.499 111.249 92.3077 110.777 92.3077 110.18C92.3077 109.713 92.4244 109.349 92.6577 109.088C92.9004 108.817 93.2644 108.635 93.7497 108.542L95.8917 108.136V107.562C95.8917 106.955 95.593 106.652 94.9957 106.652C94.7064 106.652 94.3984 106.717 94.0717 106.848C93.7544 106.979 93.395 107.184 92.9937 107.464L92.8537 107.38L92.6437 106.148C93.045 105.896 93.4744 105.705 93.9317 105.574C94.389 105.434 94.8464 105.364 95.3037 105.364ZM94.3937 109.396C94.2444 109.433 94.1324 109.499 94.0577 109.592C93.9924 109.676 93.9597 109.807 93.9597 109.984C93.9597 110.227 94.025 110.418 94.1557 110.558C94.2864 110.689 94.4684 110.754 94.7017 110.754C95.0657 110.754 95.4484 110.539 95.8497 110.11L95.8777 109.074L94.3937 109.396ZM103.404 107.94C103.413 107.613 103.339 107.361 103.18 107.184C103.031 106.997 102.811 106.904 102.522 106.904C102.102 106.904 101.654 107.105 101.178 107.506V109.13L101.262 112H99.3999L99.4979 109.312L99.4279 105.616L101.192 105.462V106.414H101.29C101.803 105.947 102.363 105.611 102.97 105.406C103.679 105.406 104.221 105.569 104.594 105.896C104.967 106.213 105.145 106.675 105.126 107.282L105.084 109.144L105.168 112H103.292L103.404 107.94ZM109.442 110.628C109.741 110.628 110.053 110.549 110.38 110.39L110.534 110.53L110.352 111.636C109.876 111.879 109.391 112.028 108.896 112.084C107.636 111.953 107.006 111.337 107.006 110.236L107.076 109.074L107.062 106.666H106.194L106.124 106.568L106.222 105.546H107.048V104.468L108.742 103.922L108.868 104.034L108.826 105.546H110.492L110.548 105.644L110.464 106.666H108.798L108.714 109.802C108.714 110.101 108.77 110.315 108.882 110.446C108.994 110.567 109.181 110.628 109.442 110.628ZM111.667 109.312L111.597 105.616L113.431 105.462L113.347 109.13L113.431 112H111.569L111.667 109.312ZM112.549 102.298C112.838 102.298 113.062 102.382 113.221 102.55C113.389 102.718 113.473 102.951 113.473 103.25C113.473 103.567 113.384 103.819 113.207 104.006C113.029 104.193 112.787 104.286 112.479 104.286C112.171 104.286 111.933 104.202 111.765 104.034C111.606 103.866 111.527 103.628 111.527 103.32C111.527 103.012 111.615 102.765 111.793 102.578C111.979 102.391 112.231 102.298 112.549 102.298ZM120.623 109.13L120.665 110.306C120.665 110.465 120.684 110.577 120.721 110.642C120.768 110.698 120.847 110.726 120.959 110.726C121.062 110.726 121.188 110.707 121.337 110.67L121.463 110.782L121.309 111.762C120.992 111.958 120.646 112.075 120.273 112.112C119.984 112.084 119.741 111.986 119.545 111.818C119.349 111.65 119.214 111.421 119.139 111.132H119.027C118.57 111.552 118.103 111.874 117.627 112.098C116.712 112.098 116.003 111.809 115.499 111.23C114.995 110.642 114.743 109.83 114.743 108.794C114.743 107.693 115.032 106.848 115.611 106.26C116.19 105.672 116.992 105.378 118.019 105.378C118.29 105.378 118.588 105.406 118.915 105.462L118.887 102.312L120.735 102.172L120.623 109.13ZM117.893 106.638C116.96 106.638 116.493 107.231 116.493 108.416C116.493 109.153 116.605 109.709 116.829 110.082C117.053 110.455 117.38 110.642 117.809 110.642C118.22 110.642 118.598 110.451 118.943 110.068L118.971 109.298L118.929 106.89C118.565 106.722 118.22 106.638 117.893 106.638ZM125.122 105.364C125.841 105.364 126.401 105.527 126.802 105.854C127.213 106.171 127.418 106.619 127.418 107.198C127.418 107.366 127.39 107.898 127.334 108.794C127.325 109.055 127.311 109.326 127.292 109.606C127.273 109.877 127.264 110.11 127.264 110.306C127.264 110.465 127.287 110.577 127.334 110.642C127.381 110.698 127.465 110.726 127.586 110.726C127.679 110.726 127.801 110.707 127.95 110.67L128.09 110.782L127.922 111.762C127.623 111.958 127.283 112.075 126.9 112.112C126.62 112.084 126.387 111.986 126.2 111.818C126.013 111.641 125.887 111.398 125.822 111.09H125.724C125.257 111.585 124.777 111.93 124.282 112.126C123.61 112.117 123.083 111.939 122.7 111.594C122.317 111.249 122.126 110.777 122.126 110.18C122.126 109.713 122.243 109.349 122.476 109.088C122.719 108.817 123.083 108.635 123.568 108.542L125.71 108.136V107.562C125.71 106.955 125.411 106.652 124.814 106.652C124.525 106.652 124.217 106.717 123.89 106.848C123.573 106.979 123.213 107.184 122.812 107.464L122.672 107.38L122.462 106.148C122.863 105.896 123.293 105.705 123.75 105.574C124.207 105.434 124.665 105.364 125.122 105.364ZM124.212 109.396C124.063 109.433 123.951 109.499 123.876 109.592C123.811 109.676 123.778 109.807 123.778 109.984C123.778 110.227 123.843 110.418 123.974 110.558C124.105 110.689 124.287 110.754 124.52 110.754C124.884 110.754 125.267 110.539 125.668 110.11L125.696 109.074L124.212 109.396ZM134.732 109.13L134.774 110.306C134.774 110.465 134.793 110.577 134.83 110.642C134.877 110.698 134.956 110.726 135.068 110.726C135.171 110.726 135.297 110.707 135.446 110.67L135.572 110.782L135.418 111.762C135.101 111.958 134.756 112.075 134.382 112.112C134.093 112.084 133.85 111.986 133.654 111.818C133.458 111.65 133.323 111.421 133.248 111.132H133.136C132.679 111.552 132.212 111.874 131.736 112.098C130.822 112.098 130.112 111.809 129.608 111.23C129.104 110.642 128.852 109.83 128.852 108.794C128.852 107.693 129.142 106.848 129.72 106.26C130.299 105.672 131.102 105.378 132.128 105.378C132.399 105.378 132.698 105.406 133.024 105.462L132.996 102.312L134.844 102.172L134.732 109.13ZM132.002 106.638C131.069 106.638 130.602 107.231 130.602 108.416C130.602 109.153 130.714 109.709 130.938 110.082C131.162 110.455 131.489 110.642 131.918 110.642C132.329 110.642 132.707 110.451 133.052 110.068L133.08 109.298L133.038 106.89C132.674 106.722 132.329 106.638 132.002 106.638ZM141.709 108.976L137.929 109.004C138.013 110.171 138.606 110.754 139.707 110.754C140.286 110.754 140.93 110.591 141.639 110.264L141.793 110.362L141.513 111.748C140.804 112.009 140.137 112.14 139.511 112.14C138.485 112.14 137.677 111.841 137.089 111.244C136.511 110.647 136.221 109.821 136.221 108.766C136.221 107.721 136.506 106.895 137.075 106.288C137.645 105.672 138.415 105.364 139.385 105.364C140.216 105.364 140.855 105.593 141.303 106.05C141.761 106.498 141.989 107.128 141.989 107.94C141.989 108.155 141.966 108.425 141.919 108.752L141.709 108.976ZM140.365 107.73C140.365 107.357 140.281 107.077 140.113 106.89C139.945 106.694 139.698 106.596 139.371 106.596C139.007 106.596 138.704 106.717 138.461 106.96C138.219 107.193 138.055 107.534 137.971 107.982L140.337 107.926L140.365 107.73ZM73.1542 125.13L73.1962 126.306C73.1962 126.465 73.2148 126.577 73.2522 126.642C73.2988 126.698 73.3782 126.726 73.4902 126.726C73.5928 126.726 73.7188 126.707 73.8682 126.67L73.9942 126.782L73.8402 127.762C73.5228 127.958 73.1775 128.075 72.8042 128.112C72.5148 128.084 72.2722 127.986 72.0762 127.818C71.8802 127.65 71.7448 127.421 71.6702 127.132H71.5582C71.1008 127.552 70.6342 127.874 70.1582 128.098C69.2435 128.098 68.5342 127.809 68.0302 127.23C67.5262 126.642 67.2742 125.83 67.2742 124.794C67.2742 123.693 67.5635 122.848 68.1422 122.26C68.7208 121.672 69.5235 121.378 70.5502 121.378C70.8208 121.378 71.1195 121.406 71.4462 121.462L71.4182 118.312L73.2662 118.172L73.1542 125.13ZM70.4242 122.638C69.4908 122.638 69.0242 123.231 69.0242 124.416C69.0242 125.153 69.1362 125.709 69.3602 126.082C69.5842 126.455 69.9108 126.642 70.3402 126.642C70.7508 126.642 71.1288 126.451 71.4742 126.068L71.5022 125.298L71.4602 122.89C71.0962 122.722 70.7508 122.638 70.4242 122.638ZM80.1313 124.976L76.3513 125.004C76.4353 126.171 77.028 126.754 78.1293 126.754C78.708 126.754 79.352 126.591 80.0613 126.264L80.2153 126.362L79.9353 127.748C79.226 128.009 78.5586 128.14 77.9333 128.14C76.9066 128.14 76.0993 127.841 75.5113 127.244C74.9326 126.647 74.6433 125.821 74.6433 124.766C74.6433 123.721 74.928 122.895 75.4973 122.288C76.0666 121.672 76.8366 121.364 77.8073 121.364C78.638 121.364 79.2773 121.593 79.7253 122.05C80.1826 122.498 80.4113 123.128 80.4113 123.94C80.4113 124.155 80.388 124.425 80.3413 124.752L80.1313 124.976ZM78.7873 123.73C78.7873 123.357 78.7033 123.077 78.5353 122.89C78.3673 122.694 78.12 122.596 77.7933 122.596C77.4293 122.596 77.126 122.717 76.8833 122.96C76.6406 123.193 76.4773 123.534 76.3933 123.982L78.7593 123.926L78.7873 123.73ZM86.95 118.872C87.7153 118.872 88.476 119.026 89.232 119.334L88.924 120.972L88.644 121.084C88.3266 120.86 87.9953 120.683 87.65 120.552C87.314 120.421 87.006 120.356 86.726 120.356C86.3526 120.356 86.054 120.459 85.83 120.664C85.606 120.86 85.494 121.089 85.494 121.35C85.494 121.621 85.6153 121.849 85.858 122.036C86.11 122.223 86.502 122.442 87.034 122.694C87.5473 122.927 87.9626 123.147 88.28 123.352C88.6066 123.548 88.882 123.809 89.106 124.136C89.3393 124.463 89.456 124.864 89.456 125.34C89.456 125.853 89.316 126.325 89.036 126.754C88.756 127.174 88.3593 127.51 87.846 127.762C87.3326 128.005 86.74 128.126 86.068 128.126C85.1813 128.126 84.29 127.935 83.394 127.552L83.66 125.788L83.87 125.676C84.2433 126.003 84.6493 126.255 85.088 126.432C85.536 126.6 85.9326 126.684 86.278 126.684C86.6886 126.684 87.006 126.586 87.23 126.39C87.4633 126.185 87.58 125.942 87.58 125.662C87.58 125.363 87.454 125.121 87.202 124.934C86.9593 124.747 86.5626 124.523 86.012 124.262C85.508 124.038 85.0973 123.828 84.78 123.632C84.4626 123.436 84.192 123.175 83.968 122.848C83.744 122.521 83.632 122.125 83.632 121.658C83.632 121.135 83.772 120.664 84.052 120.244C84.332 119.815 84.724 119.479 85.228 119.236C85.732 118.993 86.306 118.872 86.95 118.872ZM93.1299 121.364C93.8485 121.364 94.4085 121.527 94.8099 121.854C95.2205 122.171 95.4259 122.619 95.4259 123.198C95.4259 123.366 95.3979 123.898 95.3419 124.794C95.3325 125.055 95.3185 125.326 95.2999 125.606C95.2812 125.877 95.2719 126.11 95.2719 126.306C95.2719 126.465 95.2952 126.577 95.3419 126.642C95.3885 126.698 95.4725 126.726 95.5939 126.726C95.6872 126.726 95.8085 126.707 95.9579 126.67L96.0979 126.782L95.9299 127.762C95.6312 127.958 95.2905 128.075 94.9079 128.112C94.6279 128.084 94.3945 127.986 94.2079 127.818C94.0212 127.641 93.8952 127.398 93.8299 127.09H93.7319C93.2652 127.585 92.7845 127.93 92.2899 128.126C91.6179 128.117 91.0905 127.939 90.7079 127.594C90.3252 127.249 90.1339 126.777 90.1339 126.18C90.1339 125.713 90.2505 125.349 90.4839 125.088C90.7265 124.817 91.0905 124.635 91.5759 124.542L93.7179 124.136V123.562C93.7179 122.955 93.4192 122.652 92.8219 122.652C92.5325 122.652 92.2245 122.717 91.8979 122.848C91.5805 122.979 91.2212 123.184 90.8199 123.464L90.6799 123.38L90.4699 122.148C90.8712 121.896 91.3005 121.705 91.7579 121.574C92.2152 121.434 92.6725 121.364 93.1299 121.364ZM92.2199 125.396C92.0705 125.433 91.9585 125.499 91.8839 125.592C91.8185 125.676 91.7859 125.807 91.7859 125.984C91.7859 126.227 91.8512 126.418 91.9819 126.558C92.1125 126.689 92.2945 126.754 92.5279 126.754C92.8919 126.754 93.2745 126.539 93.6759 126.11L93.7039 125.074L92.2199 125.396ZM99.1281 125.13L99.2261 128H97.3641L97.4621 125.298L97.3781 118.312L99.2401 118.172L99.1281 125.13Z" fill="white"/>
<defs>
<filter id="filter0_b_206:36932" x="3" y="67" width="161" height="97" filterUnits="userSpaceOnUse" color-interpolation-filters="sRGB">
<feFlood flood-opacity="0" result="BackgroundImageFix"/>
<feGaussianBlur in="BackgroundImage" stdDeviation="5"/>
<feComposite in2="SourceAlpha" operator="in" result="effect1_backgroundBlur_206:36932"/>
<feBlend mode="normal" in="SourceGraphic" in2="effect1_backgroundBlur_206:36932" result="shape"/>
</filter>
<clipPath id="clip0_206:36932">
<rect width="40.82" height="59.68" fill="white" transform="translate(77.5708 5) rotate(15)"/>
</clipPath>
</defs>
</svg>
