<svg width="167" height="167" viewBox="0 0 167 167" fill="none" xmlns="http://www.w3.org/2000/svg">
<mask id="mask0_206:37133" style="mask-type:alpha" maskUnits="userSpaceOnUse" x="0" y="0" width="167" height="167">
<rect x="1" y="1" width="165" height="165" rx="8" fill="#5988D6" stroke="#EDE6FC" stroke-opacity="0.3"/>
</mask>
<g mask="url(#mask0_206:37133)">
<rect x="1" y="1" width="165" height="165" rx="8" fill="#A9D97A" stroke="#EDE6FC" stroke-opacity="0.3"/>
<path d="M97.6115 55.5691L87.6713 71.1191C87.6713 71.1191 86.3612 71.8734 86.5353 71.5985C86.7094 71.3237 97.2236 54.8851 97.2236 54.8851L97.6115 55.5691Z" fill="#E5ECF3"/>
<path d="M97.4531 62.266C97.4235 62.3581 97.4008 62.4315 97.3849 62.4836L90.0463 70.4281L85.554 68.0674L89.815 57.9379C91.4112 56.6533 92.7134 54.3111 93.6102 52.3363C94.0713 51.3211 94.4339 50.3829 94.6813 49.6987C94.8051 49.3563 94.9002 49.077 94.9646 48.8828C94.9967 48.7856 95.0212 48.7097 95.0378 48.6578L95.0454 48.6335L114.667 19.1943L120.3 22.8743L103.095 53.4206C101.199 54.5633 99.7754 56.8619 98.8324 58.8179C98.3477 59.8234 97.9797 60.7607 97.7328 61.4463C97.6093 61.7894 97.5159 62.0702 97.4531 62.266Z" fill="url(#paint0_linear_206:37133)" stroke="#FBFDF8" stroke-width="0.8"/>
<path d="M103.404 53.7497C101.765 53.2624 100.199 52.5595 98.7453 51.6594C97.221 50.8789 95.8233 49.8726 94.5994 48.6746C94.6804 48.5718 96.514 49.917 98.9277 51.311C101.341 52.7049 103.451 53.638 103.404 53.7497Z" fill="#263238"/>
<path d="M97.6897 62.614C96.2314 61.9659 94.8312 61.1939 93.5047 60.3066C92.1029 59.5407 90.7739 58.6487 89.534 57.6416C90.9848 58.2784 92.3782 59.0386 93.6988 59.9139C95.1077 60.692 96.4434 61.5957 97.6897 62.614Z" fill="#263238"/>
<path d="M116.168 31.0776C114.89 30.5544 113.668 29.907 112.517 29.1446C111.296 28.4979 110.145 27.7266 109.083 26.8429C110.365 27.3625 111.59 28.0126 112.738 28.7829C113.958 29.4264 115.108 30.1954 116.168 31.0776Z" fill="#263238"/>
<path d="M104.99 45.1077L105.119 45.2015C105.471 45.4425 105.714 45.8128 105.795 46.232C105.876 46.6512 105.788 47.0854 105.551 47.4402L101.272 54.0264C101.156 54.21 101.004 54.3684 100.825 54.4922C100.647 54.6159 100.445 54.7025 100.232 54.7468C100.02 54.791 99.8004 54.792 99.5873 54.7498C99.3742 54.7075 99.1718 54.6228 98.9921 54.5008C98.8123 54.3866 98.6568 54.238 98.5345 54.0637C98.4122 53.8893 98.3255 53.6926 98.2793 53.4847C98.2332 53.2768 98.2284 53.0618 98.2654 52.8521C98.3023 52.6423 98.3803 52.4419 98.4948 52.2624L102.645 45.5823C102.761 45.3893 102.915 45.2225 103.099 45.0926C103.283 44.9627 103.492 44.8725 103.713 44.8279C103.933 44.7832 104.161 44.7851 104.381 44.8332C104.601 44.8814 104.808 44.9748 104.99 45.1077Z" fill="#455A64"/>
<rect x="123.262" y="23.937" width="7.81302" height="2.8911" transform="rotate(118.804 123.262 23.937)" fill="#263238"/>
<rect x="119.932" y="29.9973" width="11.8244" height="1.41891" transform="rotate(118.804 119.932 29.9973)" fill="#263238"/>
<path opacity="0.5" d="M56.2072 61.6979L66.413 68.288C66.413 68.288 88.2324 35.1665 88.8401 33.8839C89.4478 32.6013 87.6674 31.3095 87.1941 30.3506C86.7208 29.3917 87.9637 28.3718 87.9637 28.3718L86.7147 27.0617L85.4198 26.2249L83.7128 25.6295C83.7128 25.6295 83.2944 27.1777 82.2256 27.1411C81.1567 27.1044 79.242 26.0173 78.3259 27.0983C78.2159 27.2266 77.8159 27.8221 77.1929 28.7718L76.8875 29.236L75.6171 31.1935L75.3118 31.6577L74.0505 33.6213L73.7451 34.0854C73.342 34.7145 72.9206 35.3711 72.487 36.0521L72.1816 36.5163C71.7754 37.1576 71.354 37.8141 70.9265 38.4829L70.6211 38.9501L69.366 40.9168L69.0606 41.384C68.6453 42.0345 68.23 42.6941 67.8086 43.3507L67.5032 43.8179L66.2511 45.7876C66.1503 45.9434 66.0526 46.093 65.9457 46.2548C60.9222 54.2467 56.2072 61.6979 56.2072 61.6979Z" fill="white"/>
<path opacity="0.85" d="M87.2582 36.421L87.4013 36.1987L87.2582 36.421Z" fill="#7BAED7"/>
<path opacity="0.85" d="M86.9773 36.879L87.1387 36.6293L86.9773 36.879Z" fill="#7BAED7"/>
<path opacity="0.85" d="M87.5117 36.0271L87.6579 35.8017L87.5117 36.0271Z" fill="#7BAED7"/>
<path opacity="0.85" d="M87.759 35.6423L87.89 35.4352L87.759 35.6423Z" fill="#7BAED7"/>
<path opacity="0.85" d="M86.6414 37.3858L86.8363 37.0812L86.6414 37.3858Z" fill="#7BAED7"/>
<path opacity="0.85" d="M85.9329 38.4829L86.5284 37.5668L85.9329 38.4829Z" fill="#7BAED7"/>
<path opacity="0.85" d="M88.1805 34.9767C88.214 34.9189 88.2475 34.8671 88.281 34.8153C88.2475 34.8793 88.214 34.9189 88.1805 34.9767Z" fill="#7BAED7"/>
<path opacity="0.85" d="M87.9789 35.2942L88.0977 35.1054L87.9789 35.2942Z" fill="#7BAED7"/>
<path opacity="0.85" d="M88.7271 34.0885C88.7454 34.058 88.7606 34.0335 88.7729 34.0091C88.7606 34.0335 88.7454 34.058 88.7271 34.0885Z" fill="#7BAED7"/>
<path d="M86.6719 29.4528C86.5223 29.9353 86.4673 30.369 86.6047 30.6469C86.8199 31.0359 87.078 31.3995 87.3743 31.731C88.0247 32.528 88.4675 33.1235 88.2477 33.5938C87.9728 34.1557 83.4501 41.1184 77.9899 49.4552C77.8556 49.3667 77.7212 49.2781 77.596 49.1804C76.7531 48.5696 75.9989 47.8367 75.2049 47.168C74.4133 46.4769 73.5574 45.8634 72.6488 45.3357C71.8518 44.8959 70.9845 44.5814 70.1478 44.221C69.6192 43.9947 69.1043 43.7377 68.6056 43.4515L69.9798 41.2894L73.0733 36.4063L74.3284 34.4397L74.6338 33.9786C75.0766 33.2823 75.5011 32.6227 75.895 32.015L76.2004 31.5477L77.4708 29.5933L77.7762 29.1322C78.6496 27.8007 78.8236 27.5656 78.8603 27.5228C78.9183 27.452 78.9927 27.3965 79.0771 27.361C79.5046 27.1716 80.2528 27.361 80.9094 27.5503C81.3344 27.6837 81.7726 27.7708 82.2164 27.8099C82.4725 27.8166 82.727 27.7665 82.9615 27.6633C83.2864 27.4482 83.5655 27.1712 83.783 26.8479C84.0273 26.5426 84.2655 26.1853 84.464 25.8768L85.4321 26.2189L86.7269 27.0525L87.414 27.7732C87.108 28.3053 86.8593 28.8683 86.6719 29.4528Z" fill="#89C5E4"/>
<path opacity="0.85" d="M88.5774 34.3358L88.5043 34.4546L88.5774 34.3358Z" fill="#7BAED7"/>
<path opacity="0.85" d="M85.493 39.154C85.554 39.0626 85.6118 38.9713 85.6697 38.8799C85.6118 38.9773 85.554 39.0687 85.493 39.154Z" fill="#7BAED7"/>
<path opacity="0.85" d="M88.3575 34.6928L88.4398 34.5588L88.3575 34.6928Z" fill="#7BAED7"/>
<path opacity="0.85" d="M88.6294 34.2501L88.6873 34.1526L88.6294 34.2501Z" fill="#7BAED7"/>
<path opacity="0.85" d="M81.1903 45.7723L81.4102 45.4364L81.1903 45.7723Z" fill="#7BAED7"/>
<path opacity="0.85" d="M80.8177 46.3399L80.9365 46.1602L80.8177 46.3399Z" fill="#7BAED7"/>
<path opacity="0.85" d="M81.7065 44.9808L81.871 44.728L81.7065 44.9808Z" fill="#7BAED7"/>
<path opacity="0.85" d="M82.1827 44.251L82.3198 44.0408L82.1827 44.251Z" fill="#7BAED7"/>
<path opacity="0.85" d="M69.0973 41.384L68.0193 43.0789L69.0973 41.384Z" fill="#7BAED7"/>
<path opacity="0.85" d="M88.8401 33.8839C88.8275 33.9112 88.8133 33.9378 88.7974 33.9633C88.8096 33.9297 88.831 33.9053 88.8401 33.8839Z" fill="#7BAED7"/>
<path opacity="0.85" d="M85.1267 39.7282L85.2881 39.4785L85.1267 39.7282Z" fill="#7BAED7"/>
<path opacity="0.85" d="M83.9235 41.5727L84.0879 41.3199L83.9235 41.5727Z" fill="#7BAED7"/>
<path opacity="0.85" d="M84.3143 40.9862L84.5245 40.6633L84.3143 40.9862Z" fill="#7BAED7"/>
<path opacity="0.85" d="M84.7328 40.3329L84.8942 40.0831L84.7328 40.3329Z" fill="#7BAED7"/>
<path opacity="0.85" d="M83.4868 42.2475L83.6574 41.9886L83.4868 42.2475Z" fill="#7BAED7"/>
<path opacity="0.85" d="M82.592 43.6225L82.818 43.2774L82.592 43.6225Z" fill="#7BAED7"/>
<path opacity="0.85" d="M83.0074 42.972L83.2456 42.6055L83.0074 42.972Z" fill="#7BAED7"/>
<path d="M55.4423 80.9254L75.8864 49.251L69.9312 45.4073L49.4871 77.0817L55.4423 80.9254Z" fill="white"/>
<path d="M55.4409 80.9228L64.2064 67.3422L61.1249 65.3532L52.3594 78.9338L55.4409 80.9228Z" fill="#D8DDE2"/>
<path d="M89.1486 21.1129L99.0887 5.56291C99.0887 5.56291 100.399 4.80862 100.225 5.08346C100.051 5.35831 89.5364 21.7969 89.5364 21.7969L89.1486 21.1129Z" fill="#E5ECF3"/>
<path d="M46.3617 76.973C45.812 76.402 46.777 74.5789 48.0352 75.4461C49.2934 76.3134 57.1386 80.6071 57.502 82.0179C57.789 83.0959 56.6408 83.7342 56.0545 83.4196C55.4682 83.1051 47.1893 77.8342 46.3617 76.973Z" fill="#25405D"/>
<path d="M74.5513 51.315L75.8858 49.2415L69.9309 45.3967L69.2224 46.5083L74.5513 51.315Z" fill="#B5BBC5"/>
<path d="M62.2201 70.4073L63.5546 68.3338L57.5997 64.4891L56.8882 65.5976L62.2201 70.4073Z" fill="#B1BAC5"/>
<path d="M67.7383 44.789C67.7383 44.789 77.1806 50.808 77.0829 50.8508C76.9852 50.8935 78.2128 49.046 78.2128 49.046C78.2128 49.046 75.9194 44.4164 75.1315 43.7659C74.3437 43.1155 68.917 42.9231 68.917 42.9231L67.7383 44.789Z" fill="#415972"/>
<path opacity="0.9" d="M87.1941 30.3476C87.6674 31.3065 89.4509 32.6044 88.837 33.8839C88.2232 35.1635 66.413 68.2881 66.413 68.2881L56.2072 61.698C56.2072 61.698 60.9222 54.2467 66.0007 46.2549L66.3061 45.7876C66.7214 45.1341 67.1428 44.4776 67.5581 43.8179L67.8635 43.3538L69.1156 41.3871C69.2164 41.2314 69.3171 41.0817 69.421 40.9168C69.8454 40.2541 70.2669 39.5945 70.6761 38.9502L70.9815 38.4829C71.4059 37.8111 71.8274 37.1545 72.2335 36.5193L72.5389 36.0521C72.9725 35.3711 73.394 34.7145 73.7971 34.0855L74.1024 33.6182L75.3606 31.6577L75.666 31.1935C76.1424 30.4575 76.5669 29.7979 76.9333 29.236L77.2387 28.7718C77.8495 27.8221 78.2617 27.2266 78.3717 27.0984C79.2878 26.0143 81.2056 27.0984 82.2714 27.1442C82.4861 27.125 82.6933 27.0552 82.8759 26.9406C83.0585 26.8259 83.2113 26.6696 83.3219 26.4845C83.5697 26.1423 83.7748 25.771 83.9326 25.3791C83.9876 25.2355 84.0181 25.1439 84.0181 25.1439L84.8091 25.4493C84.7511 25.5379 84.6869 25.6356 84.6136 25.7547C84.3815 26.1028 84.0792 26.5212 83.7891 26.8785C83.5746 27.1869 83.308 27.4556 83.0012 27.6725C82.7667 27.7757 82.5122 27.8257 82.2561 27.8191C81.8123 27.7799 81.3741 27.6929 80.9491 27.5595C80.2864 27.3824 79.5382 27.1808 79.1168 27.3701C79.0324 27.4056 78.958 27.4612 78.9 27.532C78.8633 27.5748 78.6893 27.8099 77.8159 29.1414L77.5105 29.6025L76.2401 31.5569L75.9347 32.0241C75.5408 32.6349 75.1163 33.2915 74.6735 33.9877L74.3681 34.4489L73.0733 36.4064L69.9645 41.2924L66.5687 46.6274C62.3209 53.3153 58.3234 59.6244 57.1355 61.5056L66.2114 67.3567C74.9453 54.094 87.7591 34.5496 88.2263 33.5938C88.4462 33.1235 88.0034 32.528 87.3529 31.731C87.0566 31.3995 86.7985 31.0359 86.5833 30.6469C86.4459 30.3659 86.5039 29.917 86.6597 29.4254C86.8508 28.856 87.0973 28.3067 87.3957 27.7855L87.9545 28.3748C87.9545 28.3748 87.1513 29.0345 87.0872 29.7949C87.0664 29.9857 87.1036 30.1783 87.1941 30.3476Z" fill="white"/>
<g style="mix-blend-mode:multiply">
<path d="M87.0993 29.7979C87.078 29.9864 87.1109 30.1771 87.194 30.3476C87.6674 31.3065 89.4508 32.6044 88.837 33.8839C88.2231 35.1635 66.4129 68.2881 66.4129 68.2881L61.4474 65.0816L85.3129 28.2435L86.2657 26.7716L86.7146 27.077L88.0827 28.2558C88.0155 28.2985 87.1818 29.0284 87.0993 29.7979Z" fill="#DEE2E7"/>
</g>
<g style="mix-blend-mode:multiply">
<path d="M88.0798 28.2465C88.0156 28.2985 87.1819 29.0283 87.0995 29.7979L86.672 29.4284L85.3191 28.2496L83.7434 26.8846L83.2822 26.4906C83.53 26.1483 83.7351 25.7771 83.893 25.3851L84.574 25.7607L85.4321 26.2341L86.278 26.7777L86.7269 27.083L88.0798 28.2465Z" fill="#D6DBE0"/>
</g>
<path d="M83.1021 25.5959C83.1021 25.5959 83.2242 25.1012 84.0548 24.4202C85.0168 23.6292 88.8615 20.7312 89.2005 20.8075C89.5395 20.8839 90.0403 21.1892 90.0128 21.574C89.9914 21.8977 88.9562 27.1961 88.718 28.0114C88.4798 28.8268 88.0645 28.8024 88.0645 28.8024L83.1021 25.5959Z" fill="#25405D"/>
<path d="M53.08 61.3529C52.2341 60.565 53.2601 58.4884 55.1291 59.7649C56.998 61.0414 68.4314 67.5521 69.1766 69.3355C69.7415 70.7036 68.2757 71.2991 67.4206 70.8196C66.5656 70.3402 54.3565 62.5377 53.08 61.3529Z" fill="#25405D"/>
<path d="M79.8434 30.5823L79.8781 30.5284C79.9548 30.4093 79.9204 30.2506 79.8013 30.1739L78.6023 29.4017C78.4832 29.325 78.3244 29.3594 78.2477 29.4785L78.213 29.5324C78.1363 29.6516 78.1707 29.8103 78.2898 29.887L79.4888 30.6591C79.6079 30.7358 79.7667 30.7014 79.8434 30.5823Z" fill="#25405D"/>
<path d="M78.7046 32.3329L78.6682 32.3894C78.6314 32.4466 78.5733 32.4867 78.5068 32.5011C78.4403 32.5155 78.3708 32.5028 78.3136 32.466L77.115 31.6932C77.0578 31.6564 77.0176 31.5983 77.0033 31.5318C76.9889 31.4653 77.0015 31.3958 77.0384 31.3386L77.0748 31.2822C77.1117 31.225 77.1697 31.1848 77.2362 31.1704C77.3027 31.1561 77.3722 31.1687 77.4294 31.2056L78.6306 31.98C78.6586 31.998 78.6827 32.0214 78.7017 32.0487C78.7206 32.0761 78.734 32.1069 78.741 32.1395C78.748 32.172 78.7486 32.2056 78.7426 32.2384C78.7367 32.2711 78.7243 32.3024 78.7063 32.3303L78.7046 32.3329Z" fill="#25405D"/>
<path d="M77.5163 34.1682L77.48 34.2247C77.4436 34.2812 77.3863 34.321 77.3206 34.3352C77.2549 34.3495 77.1862 34.337 77.1297 34.3007L75.9278 33.5273C75.8706 33.4905 75.8304 33.4325 75.8159 33.366C75.8015 33.2995 75.8141 33.23 75.8509 33.1728L75.8873 33.1163C75.9053 33.0883 75.9286 33.0641 75.956 33.0452C75.9833 33.0262 76.0142 33.0128 76.0467 33.0057C76.0792 32.9987 76.1128 32.9981 76.1456 33.004C76.1783 33.01 76.2096 33.0223 76.2376 33.0403L77.4394 33.8136C77.4966 33.8505 77.5369 33.9085 77.5513 33.975C77.5657 34.0415 77.5532 34.111 77.5163 34.1682Z" fill="#25405D"/>
<path d="M77.1748 36.6086L77.2095 36.5547C77.2862 36.4356 77.2518 36.2769 77.1327 36.2002L75.053 34.8609C74.9339 34.7842 74.7752 34.8186 74.6985 34.9377L74.6638 34.9916C74.5871 35.1107 74.6214 35.2695 74.7406 35.3462L76.8202 36.6854C76.9393 36.7621 77.0981 36.7278 77.1748 36.6086Z" fill="#25405D"/>
<path d="M75.1057 37.8671L75.1404 37.8132C75.2171 37.6941 75.1827 37.5354 75.0636 37.4587L73.8646 36.6865C73.7455 36.6098 73.5868 36.6442 73.51 36.7633L73.4753 36.8172C73.3986 36.9363 73.433 37.0951 73.5521 37.1718L74.7511 37.9439C74.8703 38.0206 75.029 37.9862 75.1057 37.8671Z" fill="#25405D"/>
<path d="M73.9127 39.6683L73.9474 39.6144C74.0241 39.4953 73.9897 39.3366 73.8706 39.2599L72.6716 38.4877C72.5525 38.411 72.3938 38.4454 72.3171 38.5645L72.2823 38.6184C72.2056 38.7375 72.24 38.8963 72.3591 38.973L73.5581 39.7451C73.6773 39.8218 73.836 39.7874 73.9127 39.6683Z" fill="#25405D"/>
<path d="M72.9054 41.4593L72.8691 41.5157C72.8328 41.5722 72.7756 41.612 72.71 41.6262C72.6444 41.6405 72.5758 41.6281 72.5194 41.5918L71.3189 40.82C71.2617 40.7833 71.2215 40.7254 71.2071 40.659C71.1926 40.5926 71.2052 40.5232 71.2419 40.466L71.2782 40.4096C71.3145 40.3531 71.3717 40.3134 71.4373 40.2991C71.5029 40.2849 71.5715 40.2973 71.628 40.3336L72.8285 41.1053C72.8568 41.1235 72.8812 41.1471 72.9004 41.1747C72.9196 41.2024 72.9331 41.2335 72.9403 41.2664C72.9474 41.2992 72.948 41.3332 72.942 41.3663C72.9361 41.3994 72.9236 41.431 72.9054 41.4593Z" fill="#25405D"/>
<path d="M72.5091 43.9378L72.5439 43.8839C72.6206 43.7648 72.5862 43.606 72.4671 43.5293L70.3874 42.1901C70.2683 42.1134 70.1095 42.1478 70.0328 42.2669L69.9981 42.3208C69.9214 42.4399 69.9558 42.5987 70.0749 42.6754L72.1546 44.0146C72.2737 44.0913 72.4324 44.0569 72.5091 43.9378Z" fill="#25405D"/>
<path d="M70.5169 45.1904L70.5515 45.1366C70.628 45.0176 70.5936 44.8591 70.4746 44.7826L69.2766 44.0125C69.1576 43.9359 68.9991 43.9704 68.9226 44.0894L68.888 44.1433C68.8115 44.2623 68.846 44.4208 68.965 44.4973L70.1629 45.2674C70.2819 45.3439 70.4404 45.3094 70.5169 45.1904Z" fill="#25405D"/>
<path d="M69.1968 46.9538L69.2314 46.8998C69.308 46.7806 69.2735 46.6219 69.1543 46.5453L67.9546 45.7742C67.8355 45.6976 67.6767 45.7322 67.6001 45.8513L67.5655 45.9053C67.4889 46.0245 67.5234 46.1832 67.6426 46.2598L68.8423 47.0309C68.9614 47.1075 69.1202 47.0729 69.1968 46.9538Z" fill="#25405D"/>
<path d="M68.0167 48.7896L68.0514 48.7357C68.1281 48.6166 68.0937 48.4578 67.9746 48.3811L66.7756 47.609C66.6565 47.5323 66.4978 47.5667 66.4211 47.6858L66.3863 47.7397C66.3096 47.8588 66.344 48.0176 66.4631 48.0943L67.6621 48.8664C67.7813 48.9431 67.94 48.9087 68.0167 48.7896Z" fill="#25405D"/>
<path d="M67.7522 51.1062L67.7109 51.1703C67.6741 51.2275 67.616 51.2678 67.5495 51.2822C67.483 51.2966 67.4136 51.284 67.3564 51.2471L65.2741 49.9062C65.2461 49.8882 65.222 49.8649 65.203 49.8375C65.184 49.8101 65.1707 49.7793 65.1636 49.7468C65.1566 49.7143 65.156 49.6807 65.1619 49.6479C65.1679 49.6152 65.1802 49.5839 65.1982 49.5559L65.2346 49.4994C65.2529 49.4711 65.2765 49.4466 65.3042 49.4275C65.3319 49.4083 65.3631 49.3947 65.396 49.3876C65.4289 49.3805 65.4629 49.3799 65.4961 49.3859C65.5292 49.3919 65.5608 49.4044 65.5892 49.4226L67.6714 50.7635C67.6997 50.7818 67.7242 50.8054 67.7434 50.8331C67.7626 50.8608 67.7761 50.892 67.7832 50.9249C67.7904 50.9578 67.7909 50.9918 67.7849 51.025C67.7789 51.0581 67.7664 51.0898 67.7482 51.1181L67.7522 51.1062Z" fill="#25405D"/>
<path d="M65.7264 52.4658L65.7611 52.4118C65.8377 52.2927 65.8032 52.1339 65.684 52.0574L64.4843 51.2863C64.3651 51.2097 64.2064 51.2442 64.1298 51.3634L64.0951 51.4173C64.0185 51.5365 64.053 51.6952 64.1722 51.7718L65.3719 52.5429C65.4911 52.6195 65.6498 52.585 65.7264 52.4658Z" fill="#25405D"/>
<path d="M64.6771 54.4056L64.7117 54.3518C64.7882 54.2328 64.7537 54.0743 64.6347 53.9978L63.4368 53.2277C63.3178 53.1512 63.1593 53.1856 63.0828 53.3046L63.0482 53.3585C62.9717 53.4775 63.0061 53.636 63.1251 53.7125L64.3231 54.4826C64.4421 54.5591 64.6006 54.5246 64.6771 54.4056Z" fill="#25405D"/>
<path d="M63.3856 56.0503L63.3493 56.1067C63.3129 56.1633 63.2555 56.203 63.1898 56.2173C63.1241 56.2315 63.0555 56.2191 62.9989 56.1827L61.8048 55.4143C61.7476 55.3775 61.7073 55.3195 61.6929 55.253C61.6785 55.1865 61.6911 55.117 61.7279 55.0598L61.7642 55.0033C61.8006 54.9468 61.8579 54.907 61.9236 54.8928C61.9893 54.8785 62.058 54.8909 62.1145 54.9273L63.3164 55.7007C63.371 55.7386 63.4087 55.7963 63.4216 55.8615C63.4345 55.9267 63.4216 55.9944 63.3856 56.0503Z" fill="#25405D"/>
</g>
<g filter="url(#filter0_b_206:37133)">
<rect x="13" y="77" width="141" height="77" rx="10" fill="black" fill-opacity="0.8"/>
</g>
<path d="M29.4628 94.872C30.3401 94.872 31.1288 95.054 31.8288 95.418L31.4928 97L31.3388 97.07C31.0588 96.874 30.7508 96.72 30.4148 96.608C30.0788 96.496 29.7335 96.44 29.3788 96.44C27.8948 96.44 27.1528 97.4153 27.1528 99.366C27.1528 100.421 27.3441 101.214 27.7268 101.746C28.1188 102.269 28.6881 102.53 29.4348 102.53C29.7801 102.53 30.1348 102.479 30.4988 102.376C30.8721 102.264 31.2081 102.115 31.5068 101.928L31.6748 102.026L31.5208 103.636C30.8115 103.963 30.0648 104.126 29.2808 104.126C27.9368 104.126 26.9101 103.734 26.2008 102.95C25.5008 102.166 25.1508 101.041 25.1508 99.576C25.1508 98.0827 25.5241 96.9253 26.2708 96.104C27.0268 95.2827 28.0908 94.872 29.4628 94.872ZM35.3285 97.364C36.2805 97.364 37.0085 97.644 37.5125 98.204C38.0165 98.764 38.2685 99.5713 38.2685 100.626C38.2685 101.765 37.9978 102.637 37.4565 103.244C36.9151 103.841 36.1358 104.14 35.1185 104.14C34.1665 104.14 33.4385 103.86 32.9345 103.3C32.4305 102.74 32.1785 101.933 32.1785 100.878C32.1785 99.7393 32.4491 98.8713 32.9905 98.274C33.5318 97.6673 34.3111 97.364 35.3285 97.364ZM35.2025 98.624C34.7545 98.624 34.4278 98.7733 34.2225 99.072C34.0265 99.3707 33.9285 99.8513 33.9285 100.514C33.9285 101.373 34.0311 101.984 34.2365 102.348C34.4418 102.712 34.7778 102.894 35.2445 102.894C35.6925 102.894 36.0145 102.749 36.2105 102.46C36.4158 102.161 36.5185 101.676 36.5185 101.004C36.5185 100.155 36.4111 99.548 36.1965 99.184C35.9911 98.8107 35.6598 98.624 35.2025 98.624ZM43.4664 99.94C43.4757 99.6133 43.4011 99.3613 43.2424 99.184C43.0931 98.9973 42.8737 98.904 42.5844 98.904C42.1644 98.904 41.7164 99.1047 41.2404 99.506V101.13L41.3244 104H39.4624L39.5604 101.312L39.4904 97.616L41.2544 97.462V98.414H41.3524C41.8657 97.9473 42.4257 97.6113 43.0324 97.406C43.7417 97.406 44.2831 97.5693 44.6564 97.896C45.0297 98.2133 45.2071 98.6753 45.1884 99.282L45.1464 101.144L45.2304 104H43.3544L43.4664 99.94ZM50.1238 94.144C50.5065 94.144 50.9125 94.186 51.3418 94.27L51.2158 95.656L51.0898 95.74C50.6512 95.5533 50.2685 95.46 49.9418 95.46C49.3632 95.46 49.0692 95.7913 49.0598 96.454L49.0458 97.546H50.6278L50.6838 97.644L50.5998 98.666H49.0178L48.9758 101.13L49.0738 104H47.2118L47.3238 101.298L47.2958 98.666H46.3158L46.2458 98.568L46.3438 97.546H47.2818L47.2678 96.776C47.2678 95.936 47.5152 95.2873 48.0098 94.83C48.5138 94.3727 49.2185 94.144 50.1238 94.144ZM53.9085 97.364C54.8605 97.364 55.5885 97.644 56.0925 98.204C56.5965 98.764 56.8485 99.5713 56.8485 100.626C56.8485 101.765 56.5779 102.637 56.0365 103.244C55.4952 103.841 54.7159 104.14 53.6985 104.14C52.7465 104.14 52.0185 103.86 51.5145 103.3C51.0105 102.74 50.7585 101.933 50.7585 100.878C50.7585 99.7393 51.0292 98.8713 51.5705 98.274C52.1119 97.6673 52.8912 97.364 53.9085 97.364ZM53.7825 98.624C53.3345 98.624 53.0079 98.7733 52.8025 99.072C52.6065 99.3707 52.5085 99.8513 52.5085 100.514C52.5085 101.373 52.6112 101.984 52.8165 102.348C53.0219 102.712 53.3579 102.894 53.8245 102.894C54.2725 102.894 54.5945 102.749 54.7905 102.46C54.9959 102.161 55.0985 101.676 55.0985 101.004C55.0985 100.155 54.9912 99.548 54.7765 99.184C54.5712 98.8107 54.2399 98.624 53.7825 98.624ZM61.6405 97.476C61.7245 97.476 61.8411 97.4853 61.9905 97.504V99.226L61.7945 99.296C61.6358 99.2307 61.4631 99.198 61.2765 99.198C60.7351 99.198 60.2451 99.548 59.8065 100.248V101.13L59.9045 104H58.0425L58.1545 101.312L58.0705 97.616L59.8345 97.462L59.8205 98.736H59.9325C60.3898 97.896 60.9591 97.476 61.6405 97.476ZM70.7077 104L70.8197 99.94C70.8197 99.2493 70.5257 98.904 69.9377 98.904C69.5177 98.904 69.079 99.0907 68.6217 99.464L68.5797 101.144L68.6637 104H66.8017L66.9137 99.94C66.923 99.604 66.8483 99.3473 66.6897 99.17C66.5403 98.9927 66.321 98.904 66.0317 98.904C65.621 98.904 65.1683 99.1 64.6737 99.492V101.13L64.7577 104H62.9097L63.0077 101.312L62.9377 97.616L64.6877 97.462V98.414H64.7857C65.299 97.9473 65.8637 97.6113 66.4797 97.406C67.525 97.406 68.1923 97.756 68.4817 98.456H68.5657C69.0977 97.9613 69.7043 97.6113 70.3857 97.406C71.095 97.406 71.6317 97.5693 71.9957 97.896C72.369 98.2133 72.5463 98.6753 72.5277 99.282L72.4857 101.144L72.5697 104H70.7077ZM79.2426 100.976L75.4626 101.004C75.5466 102.171 76.1393 102.754 77.2406 102.754C77.8193 102.754 78.4633 102.591 79.1726 102.264L79.3266 102.362L79.0466 103.748C78.3373 104.009 77.67 104.14 77.0446 104.14C76.018 104.14 75.2106 103.841 74.6226 103.244C74.044 102.647 73.7546 101.821 73.7546 100.766C73.7546 99.7207 74.0393 98.8947 74.6086 98.288C75.178 97.672 75.948 97.364 76.9186 97.364C77.7493 97.364 78.3886 97.5927 78.8366 98.05C79.294 98.498 79.5226 99.128 79.5226 99.94C79.5226 100.155 79.4993 100.425 79.4526 100.752L79.2426 100.976ZM77.8986 99.73C77.8986 99.3567 77.8146 99.0767 77.6466 98.89C77.4786 98.694 77.2313 98.596 76.9046 98.596C76.5406 98.596 76.2373 98.7173 75.9946 98.96C75.752 99.1933 75.5886 99.534 75.5046 99.982L77.8706 99.926L77.8986 99.73ZM85.6273 97.364C86.5793 97.364 87.3073 97.644 87.8113 98.204C88.3153 98.764 88.5673 99.5713 88.5673 100.626C88.5673 101.765 88.2966 102.637 87.7553 103.244C87.214 103.841 86.4346 104.14 85.4173 104.14C84.4653 104.14 83.7373 103.86 83.2333 103.3C82.7293 102.74 82.4773 101.933 82.4773 100.878C82.4773 99.7393 82.748 98.8713 83.2893 98.274C83.8306 97.6673 84.61 97.364 85.6273 97.364ZM85.5013 98.624C85.0533 98.624 84.7266 98.7733 84.5213 99.072C84.3253 99.3707 84.2273 99.8513 84.2273 100.514C84.2273 101.373 84.33 101.984 84.5353 102.348C84.7406 102.712 85.0766 102.894 85.5433 102.894C85.9913 102.894 86.3133 102.749 86.5093 102.46C86.7146 102.161 86.8173 101.676 86.8173 101.004C86.8173 100.155 86.71 99.548 86.4953 99.184C86.29 98.8107 85.9586 98.624 85.5013 98.624ZM94.5944 102.628C94.8931 102.628 95.2057 102.549 95.5324 102.39L95.6864 102.53L95.5044 103.636C95.0284 103.879 94.5431 104.028 94.0484 104.084C92.7884 103.953 92.1584 103.337 92.1584 102.236L92.2284 101.074L92.2144 98.666H91.3464L91.2764 98.568L91.3744 97.546H92.2004V96.468L93.8944 95.922L94.0204 96.034L93.9784 97.546H95.6444L95.7004 97.644L95.6164 98.666H93.9504L93.8664 101.802C93.8664 102.101 93.9224 102.315 94.0344 102.446C94.1464 102.567 94.3331 102.628 94.5944 102.628ZM99.2549 97.364C99.9735 97.364 100.534 97.5273 100.935 97.854C101.346 98.1713 101.551 98.6193 101.551 99.198C101.551 99.366 101.523 99.898 101.467 100.794C101.458 101.055 101.444 101.326 101.425 101.606C101.406 101.877 101.397 102.11 101.397 102.306C101.397 102.465 101.42 102.577 101.467 102.642C101.514 102.698 101.598 102.726 101.719 102.726C101.812 102.726 101.934 102.707 102.083 102.67L102.223 102.782L102.055 103.762C101.756 103.958 101.416 104.075 101.033 104.112C100.753 104.084 100.52 103.986 100.333 103.818C100.146 103.641 100.02 103.398 99.9549 103.09H99.8569C99.3902 103.585 98.9095 103.93 98.4149 104.126C97.7429 104.117 97.2155 103.939 96.8329 103.594C96.4502 103.249 96.2589 102.777 96.2589 102.18C96.2589 101.713 96.3755 101.349 96.6089 101.088C96.8515 100.817 97.2155 100.635 97.7009 100.542L99.8429 100.136V99.562C99.8429 98.9553 99.5442 98.652 98.9469 98.652C98.6575 98.652 98.3495 98.7173 98.0229 98.848C97.7055 98.9787 97.3462 99.184 96.9449 99.464L96.8049 99.38L96.5949 98.148C96.9962 97.896 97.4255 97.7047 97.8829 97.574C98.3402 97.434 98.7975 97.364 99.2549 97.364ZM98.3449 101.396C98.1955 101.433 98.0835 101.499 98.0089 101.592C97.9435 101.676 97.9109 101.807 97.9109 101.984C97.9109 102.227 97.9762 102.418 98.1069 102.558C98.2375 102.689 98.4195 102.754 98.6529 102.754C99.0169 102.754 99.3995 102.539 99.8009 102.11L99.8289 101.074L98.3449 101.396ZM111.149 104L111.261 99.94C111.261 99.2493 110.967 98.904 110.379 98.904C109.959 98.904 109.52 99.0907 109.063 99.464L109.021 101.144L109.105 104H107.243L107.355 99.94C107.364 99.604 107.29 99.3473 107.131 99.17C106.982 98.9927 106.762 98.904 106.473 98.904C106.062 98.904 105.61 99.1 105.115 99.492V101.13L105.199 104H103.351L103.449 101.312L103.379 97.616L105.129 97.462V98.414H105.227C105.74 97.9473 106.305 97.6113 106.921 97.406C107.966 97.406 108.634 97.756 108.923 98.456H109.007C109.539 97.9613 110.146 97.6113 110.827 97.406C111.536 97.406 112.073 97.5693 112.437 97.896C112.81 98.2133 112.988 98.6753 112.969 99.282L112.927 101.144L113.011 104H111.149ZM117.206 97.364C117.925 97.364 118.485 97.5273 118.886 97.854C119.297 98.1713 119.502 98.6193 119.502 99.198C119.502 99.366 119.474 99.898 119.418 100.794C119.409 101.055 119.395 101.326 119.376 101.606C119.357 101.877 119.348 102.11 119.348 102.306C119.348 102.465 119.371 102.577 119.418 102.642C119.465 102.698 119.549 102.726 119.67 102.726C119.763 102.726 119.885 102.707 120.034 102.67L120.174 102.782L120.006 103.762C119.707 103.958 119.367 104.075 118.984 104.112C118.704 104.084 118.471 103.986 118.284 103.818C118.097 103.641 117.971 103.398 117.906 103.09H117.808C117.341 103.585 116.861 103.93 116.366 104.126C115.694 104.117 115.167 103.939 114.784 103.594C114.401 103.249 114.21 102.777 114.21 102.18C114.21 101.713 114.327 101.349 114.56 101.088C114.803 100.817 115.167 100.635 115.652 100.542L117.794 100.136V99.562C117.794 98.9553 117.495 98.652 116.898 98.652C116.609 98.652 116.301 98.7173 115.974 98.848C115.657 98.9787 115.297 99.184 114.896 99.464L114.756 99.38L114.546 98.148C114.947 97.896 115.377 97.7047 115.834 97.574C116.291 97.434 116.749 97.364 117.206 97.364ZM116.296 101.396C116.147 101.433 116.035 101.499 115.96 101.592C115.895 101.676 115.862 101.807 115.862 101.984C115.862 102.227 115.927 102.418 116.058 102.558C116.189 102.689 116.371 102.754 116.604 102.754C116.968 102.754 117.351 102.539 117.752 102.11L117.78 101.074L116.296 101.396ZM125.306 99.94C125.316 99.6133 125.241 99.3613 125.082 99.184C124.933 98.9973 124.714 98.904 124.424 98.904C124.004 98.904 123.556 99.1047 123.08 99.506V101.13L123.164 104H121.302L121.4 101.312L121.33 97.616L123.094 97.462V98.414H123.192C123.706 97.9473 124.266 97.6113 124.872 97.406C125.582 97.406 126.123 97.5693 126.496 97.896C126.87 98.2133 127.047 98.6753 127.028 99.282L126.986 101.144L127.07 104H125.194L125.306 99.94ZM132.772 99.94C132.782 99.604 132.712 99.3473 132.562 99.17C132.413 98.9927 132.194 98.904 131.904 98.904C131.484 98.904 131.036 99.1047 130.56 99.506L130.532 101.13L130.63 104H128.768L128.866 101.298L128.782 94.312L130.644 94.172L130.574 98.414H130.658C131.172 97.9473 131.736 97.6113 132.352 97.406C133.062 97.406 133.598 97.5693 133.962 97.896C134.336 98.2133 134.518 98.6753 134.508 99.282L134.466 101.144L134.536 104H132.674L132.772 99.94ZM138.879 97.364C139.831 97.364 140.559 97.644 141.063 98.204C141.567 98.764 141.819 99.5713 141.819 100.626C141.819 101.765 141.549 102.637 141.007 103.244C140.466 103.841 139.687 104.14 138.669 104.14C137.717 104.14 136.989 103.86 136.485 103.3C135.981 102.74 135.729 101.933 135.729 100.878C135.729 99.7393 136 98.8713 136.541 98.274C137.083 97.6673 137.862 97.364 138.879 97.364ZM138.753 98.624C138.305 98.624 137.979 98.7733 137.773 99.072C137.577 99.3707 137.479 99.8513 137.479 100.514C137.479 101.373 137.582 101.984 137.787 102.348C137.993 102.712 138.329 102.894 138.795 102.894C139.243 102.894 139.565 102.749 139.761 102.46C139.967 102.161 140.069 101.676 140.069 101.004C140.069 100.155 139.962 99.548 139.747 99.184C139.542 98.8107 139.211 98.624 138.753 98.624ZM30.7167 117.13L30.7587 118.306C30.7587 118.465 30.7773 118.577 30.8147 118.642C30.8613 118.698 30.9407 118.726 31.0527 118.726C31.1553 118.726 31.2813 118.707 31.4307 118.67L31.5567 118.782L31.4027 119.762C31.0853 119.958 30.74 120.075 30.3667 120.112C30.0773 120.084 29.8347 119.986 29.6387 119.818C29.4427 119.65 29.3073 119.421 29.2327 119.132H29.1207C28.6633 119.552 28.1967 119.874 27.7207 120.098C26.806 120.098 26.0967 119.809 25.5927 119.23C25.0887 118.642 24.8367 117.83 24.8367 116.794C24.8367 115.693 25.126 114.848 25.7047 114.26C26.2833 113.672 27.086 113.378 28.1127 113.378C28.3833 113.378 28.682 113.406 29.0087 113.462L28.9807 110.312L30.8287 110.172L30.7167 117.13ZM27.9867 114.638C27.0533 114.638 26.5867 115.231 26.5867 116.416C26.5867 117.153 26.6987 117.709 26.9227 118.082C27.1467 118.455 27.4733 118.642 27.9027 118.642C28.3133 118.642 28.6913 118.451 29.0367 118.068L29.0647 117.298L29.0227 114.89C28.6587 114.722 28.3133 114.638 27.9867 114.638ZM35.2158 113.364C35.9345 113.364 36.4945 113.527 36.8958 113.854C37.3065 114.171 37.5118 114.619 37.5118 115.198C37.5118 115.366 37.4838 115.898 37.4278 116.794C37.4185 117.055 37.4045 117.326 37.3858 117.606C37.3671 117.877 37.3578 118.11 37.3578 118.306C37.3578 118.465 37.3811 118.577 37.4278 118.642C37.4745 118.698 37.5585 118.726 37.6798 118.726C37.7731 118.726 37.8945 118.707 38.0438 118.67L38.1838 118.782L38.0158 119.762C37.7171 119.958 37.3765 120.075 36.9938 120.112C36.7138 120.084 36.4805 119.986 36.2938 119.818C36.1071 119.641 35.9811 119.398 35.9158 119.09H35.8178C35.3511 119.585 34.8705 119.93 34.3758 120.126C33.7038 120.117 33.1765 119.939 32.7938 119.594C32.4111 119.249 32.2198 118.777 32.2198 118.18C32.2198 117.713 32.3365 117.349 32.5698 117.088C32.8125 116.817 33.1765 116.635 33.6618 116.542L35.8038 116.136V115.562C35.8038 114.955 35.5051 114.652 34.9078 114.652C34.6185 114.652 34.3105 114.717 33.9838 114.848C33.6665 114.979 33.3071 115.184 32.9058 115.464L32.7658 115.38L32.5558 114.148C32.9571 113.896 33.3865 113.705 33.8438 113.574C34.3011 113.434 34.7585 113.364 35.2158 113.364ZM34.3058 117.396C34.1565 117.433 34.0445 117.499 33.9698 117.592C33.9045 117.676 33.8718 117.807 33.8718 117.984C33.8718 118.227 33.9371 118.418 34.0678 118.558C34.1985 118.689 34.3805 118.754 34.6138 118.754C34.9778 118.754 35.3605 118.539 35.7618 118.11L35.7898 117.074L34.3058 117.396ZM44.0752 113.364C44.7938 113.364 45.3538 113.527 45.7552 113.854C46.1658 114.171 46.3712 114.619 46.3712 115.198C46.3712 115.366 46.3432 115.898 46.2872 116.794C46.2778 117.055 46.2638 117.326 46.2452 117.606C46.2265 117.877 46.2172 118.11 46.2172 118.306C46.2172 118.465 46.2405 118.577 46.2872 118.642C46.3338 118.698 46.4178 118.726 46.5392 118.726C46.6325 118.726 46.7538 118.707 46.9032 118.67L47.0432 118.782L46.8752 119.762C46.5765 119.958 46.2358 120.075 45.8532 120.112C45.5732 120.084 45.3398 119.986 45.1532 119.818C44.9665 119.641 44.8405 119.398 44.7752 119.09H44.6772C44.2105 119.585 43.7298 119.93 43.2352 120.126C42.5632 120.117 42.0358 119.939 41.6532 119.594C41.2705 119.249 41.0792 118.777 41.0792 118.18C41.0792 117.713 41.1958 117.349 41.4292 117.088C41.6718 116.817 42.0358 116.635 42.5212 116.542L44.6632 116.136V115.562C44.6632 114.955 44.3645 114.652 43.7672 114.652C43.4778 114.652 43.1698 114.717 42.8432 114.848C42.5258 114.979 42.1665 115.184 41.7652 115.464L41.6252 115.38L41.4152 114.148C41.8165 113.896 42.2458 113.705 42.7032 113.574C43.1605 113.434 43.6178 113.364 44.0752 113.364ZM43.1652 117.396C43.0158 117.433 42.9038 117.499 42.8292 117.592C42.7638 117.676 42.7312 117.807 42.7312 117.984C42.7312 118.227 42.7965 118.418 42.9272 118.558C43.0578 118.689 43.2398 118.754 43.4732 118.754C43.8372 118.754 44.2198 118.539 44.6212 118.11L44.6492 117.074L43.1652 117.396ZM54.5114 114.372C54.2594 114.437 53.9001 114.507 53.4334 114.582L53.4054 114.638C53.5454 114.918 53.6154 115.231 53.6154 115.576C53.6154 116.276 53.3587 116.836 52.8454 117.256C52.3414 117.667 51.6554 117.872 50.7874 117.872C50.5261 117.872 50.2554 117.849 49.9754 117.802C49.8914 117.886 49.8354 117.951 49.8074 117.998C49.7794 118.045 49.7654 118.101 49.7654 118.166C49.7654 118.334 49.8774 118.451 50.1014 118.516C50.3254 118.581 50.6801 118.647 51.1654 118.712C51.7161 118.777 52.1734 118.857 52.5374 118.95C52.9107 119.043 53.2281 119.207 53.4894 119.44C53.7601 119.673 53.8954 120.005 53.8954 120.434C53.8954 120.873 53.7554 121.265 53.4754 121.61C53.2047 121.965 52.8267 122.24 52.3414 122.436C51.8561 122.632 51.3054 122.73 50.6894 122.73C49.8401 122.73 49.1867 122.557 48.7294 122.212C48.2721 121.867 48.0434 121.409 48.0434 120.84C48.3327 120.439 48.7201 120.089 49.2054 119.79V119.72C48.8881 119.608 48.6407 119.454 48.4634 119.258C48.2861 119.053 48.1974 118.782 48.1974 118.446C48.4494 118.138 48.7667 117.853 49.1494 117.592V117.522C48.8134 117.335 48.5567 117.093 48.3794 116.794C48.2114 116.486 48.1274 116.127 48.1274 115.716C48.1274 114.988 48.3794 114.419 48.8834 114.008C49.3874 113.597 50.0734 113.392 50.9414 113.392C51.4454 113.392 51.9027 113.476 52.3134 113.644C52.9854 113.523 53.6714 113.336 54.3714 113.084L54.5114 113.21V114.372ZM50.8434 116.752C51.2261 116.752 51.5154 116.654 51.7114 116.458C51.9074 116.262 52.0054 115.977 52.0054 115.604C52.0054 114.895 51.6414 114.54 50.9134 114.54C50.1294 114.54 49.7374 114.899 49.7374 115.618C49.7374 115.991 49.8307 116.276 50.0174 116.472C50.2041 116.659 50.4794 116.752 50.8434 116.752ZM52.3274 120.77C52.3274 120.518 52.1921 120.345 51.9214 120.252C51.6601 120.159 51.2541 120.079 50.7034 120.014L50.2274 119.944C50.0034 120.093 49.8354 120.238 49.7234 120.378C49.6114 120.518 49.5554 120.667 49.5554 120.826C49.5554 121.069 49.6674 121.265 49.8914 121.414C50.1154 121.563 50.4421 121.638 50.8714 121.638C51.3101 121.638 51.6601 121.559 51.9214 121.4C52.1921 121.251 52.3274 121.041 52.3274 120.77ZM61.4694 118.782L61.3014 119.762C60.9561 119.986 60.6014 120.103 60.2374 120.112C59.9667 120.065 59.7427 119.958 59.5654 119.79C59.3881 119.622 59.2527 119.379 59.1594 119.062H59.0334C58.5014 119.585 57.9507 119.925 57.3814 120.084C56.6721 120.084 56.1307 119.925 55.7574 119.608C55.3934 119.281 55.2161 118.815 55.2254 118.208L55.2534 116.556L55.1834 113.616L56.9894 113.462L56.9474 117.592C56.9381 117.919 57.0034 118.166 57.1434 118.334C57.2834 118.502 57.4934 118.586 57.7734 118.586C58.1841 118.586 58.5901 118.404 58.9914 118.04V113.616L60.7694 113.462L60.6434 118.306C60.6434 118.455 60.6667 118.563 60.7134 118.628C60.7694 118.693 60.8534 118.726 60.9654 118.726C61.0681 118.726 61.1941 118.707 61.3434 118.67L61.4694 118.782ZM64.3879 117.13L64.4859 120H62.6239L62.7219 117.298L62.6379 110.312L64.4999 110.172L64.3879 117.13ZM70.3056 115.94C70.3149 115.604 70.2449 115.347 70.0956 115.17C69.9463 114.993 69.7269 114.904 69.4376 114.904C69.0176 114.904 68.5696 115.105 68.0936 115.506L68.0656 117.13L68.1636 120H66.3016L66.3996 117.298L66.3156 110.312L68.1776 110.172L68.1076 114.414H68.1916C68.7049 113.947 69.2696 113.611 69.8856 113.406C70.5949 113.406 71.1316 113.569 71.4956 113.896C71.8689 114.213 72.0509 114.675 72.0416 115.282L71.9996 117.144L72.0696 120H70.2076L70.3056 115.94ZM76.2724 113.364C76.9911 113.364 77.5511 113.527 77.9524 113.854C78.3631 114.171 78.5684 114.619 78.5684 115.198C78.5684 115.366 78.5404 115.898 78.4844 116.794C78.4751 117.055 78.4611 117.326 78.4424 117.606C78.4238 117.877 78.4144 118.11 78.4144 118.306C78.4144 118.465 78.4378 118.577 78.4844 118.642C78.5311 118.698 78.6151 118.726 78.7364 118.726C78.8298 118.726 78.9511 118.707 79.1004 118.67L79.2404 118.782L79.0724 119.762C78.7738 119.958 78.4331 120.075 78.0504 120.112C77.7704 120.084 77.5371 119.986 77.3504 119.818C77.1638 119.641 77.0378 119.398 76.9724 119.09H76.8744C76.4078 119.585 75.9271 119.93 75.4324 120.126C74.7604 120.117 74.2331 119.939 73.8504 119.594C73.4678 119.249 73.2764 118.777 73.2764 118.18C73.2764 117.713 73.3931 117.349 73.6264 117.088C73.8691 116.817 74.2331 116.635 74.7184 116.542L76.8604 116.136V115.562C76.8604 114.955 76.5618 114.652 75.9644 114.652C75.6751 114.652 75.3671 114.717 75.0404 114.848C74.7231 114.979 74.3638 115.184 73.9624 115.464L73.8224 115.38L73.6124 114.148C74.0138 113.896 74.4431 113.705 74.9004 113.574C75.3578 113.434 75.8151 113.364 76.2724 113.364ZM75.3624 117.396C75.2131 117.433 75.1011 117.499 75.0264 117.592C74.9611 117.676 74.9284 117.807 74.9284 117.984C74.9284 118.227 74.9938 118.418 75.1244 118.558C75.2551 118.689 75.4371 118.754 75.6704 118.754C76.0344 118.754 76.4171 118.539 76.8184 118.11L76.8464 117.074L75.3624 117.396ZM81.5987 118.152C82.0187 118.488 82.2287 118.889 82.2287 119.356C82.2287 120.168 81.664 120.975 80.5347 121.778L79.9327 121.246L79.9187 121.106C80.432 120.677 80.6887 120.219 80.6887 119.734C80.6887 119.417 80.5393 119.137 80.2407 118.894L80.2547 118.74C80.684 118.479 81.132 118.283 81.5987 118.152ZM91.201 117.13L91.243 118.306C91.243 118.465 91.2617 118.577 91.299 118.642C91.3457 118.698 91.425 118.726 91.537 118.726C91.6397 118.726 91.7657 118.707 91.915 118.67L92.041 118.782L91.887 119.762C91.5697 119.958 91.2244 120.075 90.851 120.112C90.5617 120.084 90.319 119.986 90.123 119.818C89.927 119.65 89.7917 119.421 89.717 119.132H89.605C89.1477 119.552 88.681 119.874 88.205 120.098C87.2904 120.098 86.581 119.809 86.077 119.23C85.573 118.642 85.321 117.83 85.321 116.794C85.321 115.693 85.6104 114.848 86.189 114.26C86.7677 113.672 87.5704 113.378 88.597 113.378C88.8677 113.378 89.1664 113.406 89.493 113.462L89.465 110.312L91.313 110.172L91.201 117.13ZM88.471 114.638C87.5377 114.638 87.071 115.231 87.071 116.416C87.071 117.153 87.183 117.709 87.407 118.082C87.631 118.455 87.9577 118.642 88.387 118.642C88.7977 118.642 89.1757 118.451 89.521 118.068L89.549 117.298L89.507 114.89C89.143 114.722 88.7977 114.638 88.471 114.638ZM98.1782 116.976L94.3982 117.004C94.4822 118.171 95.0748 118.754 96.1762 118.754C96.7548 118.754 97.3988 118.591 98.1082 118.264L98.2622 118.362L97.9822 119.748C97.2728 120.009 96.6055 120.14 95.9802 120.14C94.9535 120.14 94.1462 119.841 93.5582 119.244C92.9795 118.647 92.6902 117.821 92.6902 116.766C92.6902 115.721 92.9748 114.895 93.5442 114.288C94.1135 113.672 94.8835 113.364 95.8542 113.364C96.6848 113.364 97.3242 113.593 97.7722 114.05C98.2295 114.498 98.4582 115.128 98.4582 115.94C98.4582 116.155 98.4348 116.425 98.3882 116.752L98.1782 116.976ZM96.8342 115.73C96.8342 115.357 96.7502 115.077 96.5822 114.89C96.4142 114.694 96.1668 114.596 95.8402 114.596C95.4762 114.596 95.1728 114.717 94.9302 114.96C94.6875 115.193 94.5242 115.534 94.4402 115.982L96.8062 115.926L96.8342 115.73ZM100.96 114.526L101.94 118.25H102.038L103.214 114.624L103.452 113.49H105.076L102.892 120H100.89L99.0417 113.532L100.778 113.448L100.96 114.526ZM108.514 113.364C109.466 113.364 110.194 113.644 110.698 114.204C111.202 114.764 111.454 115.571 111.454 116.626C111.454 117.765 111.183 118.637 110.642 119.244C110.101 119.841 109.321 120.14 108.304 120.14C107.352 120.14 106.624 119.86 106.12 119.3C105.616 118.74 105.364 117.933 105.364 116.878C105.364 115.739 105.635 114.871 106.176 114.274C106.717 113.667 107.497 113.364 108.514 113.364ZM108.388 114.624C107.94 114.624 107.613 114.773 107.408 115.072C107.212 115.371 107.114 115.851 107.114 116.514C107.114 117.373 107.217 117.984 107.422 118.348C107.627 118.712 107.963 118.894 108.43 118.894C108.878 118.894 109.2 118.749 109.396 118.46C109.601 118.161 109.704 117.676 109.704 117.004C109.704 116.155 109.597 115.548 109.382 115.184C109.177 114.811 108.845 114.624 108.388 114.624ZM118.237 110.144C118.62 110.144 119.026 110.186 119.455 110.27L119.329 111.656L119.203 111.74C118.764 111.553 118.382 111.46 118.055 111.46C117.476 111.46 117.182 111.791 117.173 112.454L117.159 113.546H118.741L118.797 113.644L118.713 114.666H117.131L117.089 117.13L117.187 120H115.325L115.437 117.298L115.409 114.666H114.429L114.359 114.568L114.457 113.546H115.395L115.381 112.776C115.381 111.936 115.628 111.287 116.123 110.83C116.627 110.373 117.332 110.144 118.237 110.144ZM121.937 113.364C122.655 113.364 123.215 113.527 123.617 113.854C124.027 114.171 124.233 114.619 124.233 115.198C124.233 115.366 124.205 115.898 124.149 116.794C124.139 117.055 124.125 117.326 124.107 117.606C124.088 117.877 124.079 118.11 124.079 118.306C124.079 118.465 124.102 118.577 124.149 118.642C124.195 118.698 124.279 118.726 124.401 118.726C124.494 118.726 124.615 118.707 124.765 118.67L124.905 118.782L124.737 119.762C124.438 119.958 124.097 120.075 123.715 120.112C123.435 120.084 123.201 119.986 123.015 119.818C122.828 119.641 122.702 119.398 122.637 119.09H122.539C122.072 119.585 121.591 119.93 121.097 120.126C120.425 120.117 119.897 119.939 119.515 119.594C119.132 119.249 118.941 118.777 118.941 118.18C118.941 117.713 119.057 117.349 119.291 117.088C119.533 116.817 119.897 116.635 120.383 116.542L122.525 116.136V115.562C122.525 114.955 122.226 114.652 121.629 114.652C121.339 114.652 121.031 114.717 120.705 114.848C120.387 114.979 120.028 115.184 119.627 115.464L119.487 115.38L119.277 114.148C119.678 113.896 120.107 113.705 120.565 113.574C121.022 113.434 121.479 113.364 121.937 113.364ZM121.027 117.396C120.877 117.433 120.765 117.499 120.691 117.592C120.625 117.676 120.593 117.807 120.593 117.984C120.593 118.227 120.658 118.418 120.789 118.558C120.919 118.689 121.101 118.754 121.335 118.754C121.699 118.754 122.081 118.539 122.483 118.11L122.511 117.074L121.027 117.396ZM127.193 113.49H130.021L130.735 113.476L130.749 114.582L127.599 118.81H129.573L130.763 118.698L130.861 118.824L130.735 120.028L129.111 120H126.535L125.639 120.042V118.95L128.817 114.694H126.941L125.779 114.792L125.667 114.666L125.807 113.462L127.193 113.49ZM136.993 116.976L133.213 117.004C133.297 118.171 133.889 118.754 134.991 118.754C135.569 118.754 136.213 118.591 136.923 118.264L137.077 118.362L136.797 119.748C136.087 120.009 135.42 120.14 134.795 120.14C133.768 120.14 132.961 119.841 132.373 119.244C131.794 118.647 131.505 117.821 131.505 116.766C131.505 115.721 131.789 114.895 132.359 114.288C132.928 113.672 133.698 113.364 134.669 113.364C135.499 113.364 136.139 113.593 136.587 114.05C137.044 114.498 137.273 115.128 137.273 115.94C137.273 116.155 137.249 116.425 137.203 116.752L136.993 116.976ZM135.649 115.73C135.649 115.357 135.565 115.077 135.397 114.89C135.229 114.694 134.981 114.596 134.655 114.596C134.291 114.596 133.987 114.717 133.745 114.96C133.502 115.193 133.339 115.534 133.255 115.982L135.621 115.926L135.649 115.73ZM142.154 113.476C142.238 113.476 142.355 113.485 142.504 113.504V115.226L142.308 115.296C142.149 115.231 141.977 115.198 141.79 115.198C141.249 115.198 140.759 115.548 140.32 116.248V117.13L140.418 120H138.556L138.668 117.312L138.584 113.616L140.348 113.462L140.334 114.736H140.446C140.903 113.896 141.473 113.476 142.154 113.476ZM35.7595 134.782L35.5915 135.762C35.2461 135.986 34.8915 136.103 34.5275 136.112C34.2568 136.065 34.0328 135.958 33.8555 135.79C33.6781 135.622 33.5428 135.379 33.4495 135.062H33.3235C32.7915 135.585 32.2408 135.925 31.6715 136.084C30.9621 136.084 30.4208 135.925 30.0475 135.608C29.6835 135.281 29.5061 134.815 29.5155 134.208L29.5435 132.556L29.4735 129.616L31.2795 129.462L31.2375 133.592C31.2281 133.919 31.2935 134.166 31.4335 134.334C31.5735 134.502 31.7835 134.586 32.0635 134.586C32.4741 134.586 32.8801 134.404 33.2815 134.04V129.616L35.0595 129.462L34.9335 134.306C34.9335 134.455 34.9568 134.563 35.0035 134.628C35.0595 134.693 35.1435 134.726 35.2555 134.726C35.3581 134.726 35.4841 134.707 35.6335 134.67L35.7595 134.782ZM44.5739 136L44.6859 131.94C44.6859 131.249 44.3919 130.904 43.8039 130.904C43.3839 130.904 42.9452 131.091 42.4879 131.464L42.4459 133.144L42.5299 136H40.6679L40.7799 131.94C40.7892 131.604 40.7145 131.347 40.5559 131.17C40.4065 130.993 40.1872 130.904 39.8979 130.904C39.4872 130.904 39.0345 131.1 38.5399 131.492V133.13L38.6239 136H36.7759L36.8739 133.312L36.8039 129.616L38.5539 129.462V130.414H38.6519C39.1652 129.947 39.7299 129.611 40.3459 129.406C41.3912 129.406 42.0585 129.756 42.3479 130.456H42.4319C42.9639 129.961 43.5705 129.611 44.2519 129.406C44.9612 129.406 45.4979 129.569 45.8619 129.896C46.2352 130.213 46.4125 130.675 46.3939 131.282L46.3519 133.144L46.4359 136H44.5739ZM50.6308 129.364C51.3495 129.364 51.9095 129.527 52.3108 129.854C52.7215 130.171 52.9268 130.619 52.9268 131.198C52.9268 131.366 52.8988 131.898 52.8428 132.794C52.8335 133.055 52.8195 133.326 52.8008 133.606C52.7822 133.877 52.7728 134.11 52.7728 134.306C52.7728 134.465 52.7962 134.577 52.8428 134.642C52.8895 134.698 52.9735 134.726 53.0948 134.726C53.1882 134.726 53.3095 134.707 53.4588 134.67L53.5988 134.782L53.4308 135.762C53.1322 135.958 52.7915 136.075 52.4088 136.112C52.1288 136.084 51.8955 135.986 51.7088 135.818C51.5222 135.641 51.3962 135.398 51.3308 135.09H51.2328C50.7662 135.585 50.2855 135.93 49.7908 136.126C49.1188 136.117 48.5915 135.939 48.2088 135.594C47.8262 135.249 47.6348 134.777 47.6348 134.18C47.6348 133.713 47.7515 133.349 47.9848 133.088C48.2275 132.817 48.5915 132.635 49.0768 132.542L51.2188 132.136V131.562C51.2188 130.955 50.9202 130.652 50.3228 130.652C50.0335 130.652 49.7255 130.717 49.3988 130.848C49.0815 130.979 48.7222 131.184 48.3208 131.464L48.1808 131.38L47.9708 130.148C48.3722 129.896 48.8015 129.705 49.2588 129.574C49.7162 129.434 50.1735 129.364 50.6308 129.364ZM49.7208 133.396C49.5715 133.433 49.4595 133.499 49.3848 133.592C49.3195 133.676 49.2868 133.807 49.2868 133.984C49.2868 134.227 49.3522 134.418 49.4828 134.558C49.6135 134.689 49.7955 134.754 50.0288 134.754C50.3928 134.754 50.7755 134.539 51.1768 134.11L51.2048 133.074L49.7208 133.396ZM60.3722 129.406C61.1842 129.406 61.8096 129.681 62.2482 130.232C62.6869 130.783 62.9062 131.562 62.9062 132.57C62.9062 133.709 62.6216 134.591 62.0522 135.216C61.4922 135.832 60.6989 136.14 59.6722 136.14C59.3736 136.14 59.0609 136.112 58.7342 136.056L58.7762 138.59H56.9282L57.0262 133.312L56.9422 129.616L58.7202 129.462L58.7062 130.414H58.8042C59.0656 130.162 59.3176 129.961 59.5602 129.812C59.8029 129.653 60.0736 129.518 60.3722 129.406ZM59.6862 134.922C60.1716 134.922 60.5402 134.749 60.7922 134.404C61.0442 134.059 61.1702 133.55 61.1702 132.878C61.1702 132.225 61.0629 131.735 60.8482 131.408C60.6429 131.072 60.3349 130.904 59.9242 130.904C59.5229 130.904 59.1169 131.105 58.7062 131.506L58.6922 133.13L58.7202 134.712C59.0562 134.852 59.3782 134.922 59.6862 134.922ZM67.6903 129.476C67.7743 129.476 67.8909 129.485 68.0403 129.504V131.226L67.8443 131.296C67.6856 131.231 67.5129 131.198 67.3263 131.198C66.7849 131.198 66.2949 131.548 65.8563 132.248V133.13L65.9543 136H64.0923L64.2043 133.312L64.1203 129.616L65.8843 129.462L65.8703 130.736H65.9823C66.4396 129.896 67.0089 129.476 67.6903 129.476ZM73.9995 132.976L70.2195 133.004C70.3035 134.171 70.8961 134.754 71.9975 134.754C72.5761 134.754 73.2201 134.591 73.9295 134.264L74.0835 134.362L73.8035 135.748C73.0941 136.009 72.4268 136.14 71.8015 136.14C70.7748 136.14 69.9675 135.841 69.3795 135.244C68.8008 134.647 68.5115 133.821 68.5115 132.766C68.5115 131.721 68.7961 130.895 69.3655 130.288C69.9348 129.672 70.7048 129.364 71.6755 129.364C72.5061 129.364 73.1455 129.593 73.5935 130.05C74.0508 130.498 74.2795 131.128 74.2795 131.94C74.2795 132.155 74.2561 132.425 74.2095 132.752L73.9995 132.976ZM72.6555 131.73C72.6555 131.357 72.5715 131.077 72.4035 130.89C72.2355 130.694 71.9881 130.596 71.6615 130.596C71.2975 130.596 70.9941 130.717 70.7515 130.96C70.5088 131.193 70.3455 131.534 70.2615 131.982L72.6275 131.926L72.6555 131.73ZM81.6843 130.372C81.4323 130.437 81.0729 130.507 80.6063 130.582L80.5783 130.638C80.7183 130.918 80.7883 131.231 80.7883 131.576C80.7883 132.276 80.5316 132.836 80.0183 133.256C79.5143 133.667 78.8283 133.872 77.9603 133.872C77.6989 133.872 77.4283 133.849 77.1483 133.802C77.0643 133.886 77.0083 133.951 76.9803 133.998C76.9523 134.045 76.9383 134.101 76.9383 134.166C76.9383 134.334 77.0503 134.451 77.2743 134.516C77.4983 134.581 77.8529 134.647 78.3383 134.712C78.8889 134.777 79.3463 134.857 79.7103 134.95C80.0836 135.043 80.4009 135.207 80.6623 135.44C80.9329 135.673 81.0683 136.005 81.0683 136.434C81.0683 136.873 80.9283 137.265 80.6483 137.61C80.3776 137.965 79.9996 138.24 79.5143 138.436C79.0289 138.632 78.4783 138.73 77.8623 138.73C77.0129 138.73 76.3596 138.557 75.9023 138.212C75.4449 137.867 75.2163 137.409 75.2163 136.84C75.5056 136.439 75.8929 136.089 76.3783 135.79V135.72C76.0609 135.608 75.8136 135.454 75.6363 135.258C75.4589 135.053 75.3703 134.782 75.3703 134.446C75.6223 134.138 75.9396 133.853 76.3223 133.592V133.522C75.9863 133.335 75.7296 133.093 75.5523 132.794C75.3843 132.486 75.3003 132.127 75.3003 131.716C75.3003 130.988 75.5523 130.419 76.0563 130.008C76.5603 129.597 77.2463 129.392 78.1143 129.392C78.6183 129.392 79.0756 129.476 79.4863 129.644C80.1583 129.523 80.8443 129.336 81.5443 129.084L81.6843 129.21V130.372ZM78.0163 132.752C78.3989 132.752 78.6883 132.654 78.8843 132.458C79.0803 132.262 79.1783 131.977 79.1783 131.604C79.1783 130.895 78.8143 130.54 78.0863 130.54C77.3023 130.54 76.9103 130.899 76.9103 131.618C76.9103 131.991 77.0036 132.276 77.1903 132.472C77.3769 132.659 77.6523 132.752 78.0163 132.752ZM79.5003 136.77C79.5003 136.518 79.3649 136.345 79.0943 136.252C78.8329 136.159 78.4269 136.079 77.8763 136.014L77.4003 135.944C77.1763 136.093 77.0083 136.238 76.8963 136.378C76.7843 136.518 76.7283 136.667 76.7283 136.826C76.7283 137.069 76.8403 137.265 77.0643 137.414C77.2883 137.563 77.6149 137.638 78.0443 137.638C78.4829 137.638 78.8329 137.559 79.0943 137.4C79.3649 137.251 79.5003 137.041 79.5003 136.77ZM84.8242 129.364C85.5429 129.364 86.1029 129.527 86.5042 129.854C86.9149 130.171 87.1202 130.619 87.1202 131.198C87.1202 131.366 87.0922 131.898 87.0362 132.794C87.0269 133.055 87.0129 133.326 86.9942 133.606C86.9755 133.877 86.9662 134.11 86.9662 134.306C86.9662 134.465 86.9895 134.577 87.0362 134.642C87.0829 134.698 87.1669 134.726 87.2882 134.726C87.3815 134.726 87.5029 134.707 87.6522 134.67L87.7922 134.782L87.6242 135.762C87.3255 135.958 86.9849 136.075 86.6022 136.112C86.3222 136.084 86.0889 135.986 85.9022 135.818C85.7155 135.641 85.5895 135.398 85.5242 135.09H85.4262C84.9595 135.585 84.4789 135.93 83.9842 136.126C83.3122 136.117 82.7849 135.939 82.4022 135.594C82.0195 135.249 81.8282 134.777 81.8282 134.18C81.8282 133.713 81.9449 133.349 82.1782 133.088C82.4209 132.817 82.7849 132.635 83.2702 132.542L85.4122 132.136V131.562C85.4122 130.955 85.1135 130.652 84.5162 130.652C84.2269 130.652 83.9189 130.717 83.5922 130.848C83.2749 130.979 82.9155 131.184 82.5142 131.464L82.3742 131.38L82.1642 130.148C82.5655 129.896 82.9949 129.705 83.4522 129.574C83.9095 129.434 84.3669 129.364 84.8242 129.364ZM83.9142 133.396C83.7649 133.433 83.6529 133.499 83.5782 133.592C83.5129 133.676 83.4802 133.807 83.4802 133.984C83.4802 134.227 83.5455 134.418 83.6762 134.558C83.8069 134.689 83.9889 134.754 84.2222 134.754C84.5862 134.754 84.9689 134.539 85.3702 134.11L85.3982 133.074L83.9142 133.396ZM93.7956 129.364C94.1036 129.364 94.4069 129.397 94.7056 129.462C95.0136 129.518 95.2842 129.602 95.5176 129.714L95.2096 131.198L95.0556 131.268C94.5796 131.007 94.1549 130.876 93.7816 130.876C93.3522 130.876 93.0209 131.03 92.7876 131.338C92.5542 131.646 92.4376 132.085 92.4376 132.654C92.4376 133.307 92.5636 133.807 92.8156 134.152C93.0676 134.497 93.4269 134.67 93.8936 134.67C94.3136 134.67 94.7802 134.553 95.2936 134.32L95.4336 134.432L95.2516 135.874C94.6916 136.051 94.1176 136.14 93.5296 136.14C92.6336 136.14 91.9336 135.851 91.4296 135.272C90.9256 134.684 90.6736 133.867 90.6736 132.822C90.6736 131.739 90.9489 130.895 91.4996 130.288C92.0502 129.672 92.8156 129.364 93.7956 129.364ZM102.724 134.782L102.556 135.762C102.211 135.986 101.856 136.103 101.492 136.112C101.222 136.065 100.998 135.958 100.82 135.79C100.643 135.622 100.508 135.379 100.414 135.062H100.288C99.7563 135.585 99.2056 135.925 98.6363 136.084C97.927 136.084 97.3856 135.925 97.0123 135.608C96.6483 135.281 96.471 134.815 96.4803 134.208L96.5083 132.556L96.4383 129.616L98.2443 129.462L98.2023 133.592C98.193 133.919 98.2583 134.166 98.3983 134.334C98.5383 134.502 98.7483 134.586 99.0283 134.586C99.439 134.586 99.845 134.404 100.246 134.04V129.616L102.024 129.462L101.898 134.306C101.898 134.455 101.922 134.563 101.968 134.628C102.024 134.693 102.108 134.726 102.22 134.726C102.323 134.726 102.449 134.707 102.598 134.67L102.724 134.782ZM106.455 134.628C106.753 134.628 107.066 134.549 107.393 134.39L107.547 134.53L107.365 135.636C106.889 135.879 106.403 136.028 105.909 136.084C104.649 135.953 104.019 135.337 104.019 134.236L104.089 133.074L104.075 130.666H103.207L103.137 130.568L103.235 129.546H104.061V128.468L105.755 127.922L105.881 128.034L105.839 129.546H107.505L107.561 129.644L107.477 130.666H105.811L105.727 133.802C105.727 134.101 105.783 134.315 105.895 134.446C106.007 134.567 106.193 134.628 106.455 134.628ZM111.115 129.364C111.834 129.364 112.394 129.527 112.795 129.854C113.206 130.171 113.411 130.619 113.411 131.198C113.411 131.366 113.383 131.898 113.327 132.794C113.318 133.055 113.304 133.326 113.285 133.606C113.267 133.877 113.257 134.11 113.257 134.306C113.257 134.465 113.281 134.577 113.327 134.642C113.374 134.698 113.458 134.726 113.579 134.726C113.673 134.726 113.794 134.707 113.943 134.67L114.083 134.782L113.915 135.762C113.617 135.958 113.276 136.075 112.893 136.112C112.613 136.084 112.38 135.986 112.193 135.818C112.007 135.641 111.881 135.398 111.815 135.09H111.717C111.251 135.585 110.77 135.93 110.275 136.126C109.603 136.117 109.076 135.939 108.693 135.594C108.311 135.249 108.119 134.777 108.119 134.18C108.119 133.713 108.236 133.349 108.469 133.088C108.712 132.817 109.076 132.635 109.561 132.542L111.703 132.136V131.562C111.703 130.955 111.405 130.652 110.807 130.652C110.518 130.652 110.21 130.717 109.883 130.848C109.566 130.979 109.207 131.184 108.805 131.464L108.665 131.38L108.455 130.148C108.857 129.896 109.286 129.705 109.743 129.574C110.201 129.434 110.658 129.364 111.115 129.364ZM110.205 133.396C110.056 133.433 109.944 133.499 109.869 133.592C109.804 133.676 109.771 133.807 109.771 133.984C109.771 134.227 109.837 134.418 109.967 134.558C110.098 134.689 110.28 134.754 110.513 134.754C110.877 134.754 111.26 134.539 111.661 134.11L111.689 133.074L110.205 133.396ZM108.805 127.922C109.337 127.437 109.995 126.779 110.779 125.948H111.185C111.913 126.751 112.567 127.409 113.145 127.922L112.683 128.636H112.501C111.885 128.151 111.377 127.721 110.975 127.348C110.611 127.693 110.107 128.123 109.463 128.636H109.281L108.805 127.922ZM119.215 131.94C119.225 131.613 119.15 131.361 118.991 131.184C118.842 130.997 118.623 130.904 118.333 130.904C117.913 130.904 117.465 131.105 116.989 131.506V133.13L117.073 136H115.211L115.309 133.312L115.239 129.616L117.003 129.462V130.414H117.101C117.615 129.947 118.175 129.611 118.781 129.406C119.491 129.406 120.032 129.569 120.405 129.896C120.779 130.213 120.956 130.675 120.937 131.282L120.895 133.144L120.979 136H119.103L119.215 131.94ZM127.662 132.976L123.882 133.004C123.966 134.171 124.558 134.754 125.66 134.754C126.238 134.754 126.882 134.591 127.592 134.264L127.746 134.362L127.466 135.748C126.756 136.009 126.089 136.14 125.464 136.14C124.437 136.14 123.63 135.841 123.042 135.244C122.463 134.647 122.174 133.821 122.174 132.766C122.174 131.721 122.458 130.895 123.028 130.288C123.597 129.672 124.367 129.364 125.338 129.364C126.168 129.364 126.808 129.593 127.256 130.05C127.713 130.498 127.942 131.128 127.942 131.94C127.942 132.155 127.918 132.425 127.872 132.752L127.662 132.976ZM126.318 131.73C126.318 131.357 126.234 131.077 126.066 130.89C125.898 130.694 125.65 130.596 125.324 130.596C124.96 130.596 124.656 130.717 124.414 130.96C124.171 131.193 124.008 131.534 123.924 131.982L126.29 131.926L126.318 131.73ZM131.787 129.364C132.506 129.364 133.066 129.527 133.467 129.854C133.878 130.171 134.083 130.619 134.083 131.198C134.083 131.366 134.055 131.898 133.999 132.794C133.99 133.055 133.976 133.326 133.957 133.606C133.938 133.877 133.929 134.11 133.929 134.306C133.929 134.465 133.952 134.577 133.999 134.642C134.046 134.698 134.13 134.726 134.251 134.726C134.344 134.726 134.466 134.707 134.615 134.67L134.755 134.782L134.587 135.762C134.288 135.958 133.948 136.075 133.565 136.112C133.285 136.084 133.052 135.986 132.865 135.818C132.678 135.641 132.552 135.398 132.487 135.09H132.389C131.922 135.585 131.442 135.93 130.947 136.126C130.275 136.117 129.748 135.939 129.365 135.594C128.982 135.249 128.791 134.777 128.791 134.18C128.791 133.713 128.908 133.349 129.141 133.088C129.384 132.817 129.748 132.635 130.233 132.542L132.375 132.136V131.562C132.375 130.955 132.076 130.652 131.479 130.652C131.19 130.652 130.882 130.717 130.555 130.848C130.238 130.979 129.878 131.184 129.477 131.464L129.337 131.38L129.127 130.148C129.528 129.896 129.958 129.705 130.415 129.574C130.872 129.434 131.33 129.364 131.787 129.364ZM130.877 133.396C130.728 133.433 130.616 133.499 130.541 133.592C130.476 133.676 130.443 133.807 130.443 133.984C130.443 134.227 130.508 134.418 130.639 134.558C130.77 134.689 130.952 134.754 131.185 134.754C131.549 134.754 131.932 134.539 132.333 134.11L132.361 133.074L130.877 133.396ZM136.749 134.11C137.039 134.11 137.263 134.194 137.421 134.362C137.589 134.53 137.673 134.763 137.673 135.062C137.673 135.379 137.585 135.631 137.407 135.818C137.23 136.005 136.987 136.098 136.679 136.098C136.371 136.098 136.133 136.014 135.965 135.846C135.807 135.678 135.727 135.44 135.727 135.132C135.727 134.824 135.816 134.577 135.993 134.39C136.18 134.203 136.432 134.11 136.749 134.11Z" fill="white"/>
<defs>
<filter id="filter0_b_206:37133" x="3" y="67" width="161" height="97" filterUnits="userSpaceOnUse" color-interpolation-filters="sRGB">
<feFlood flood-opacity="0" result="BackgroundImageFix"/>
<feGaussianBlur in="BackgroundImage" stdDeviation="5"/>
<feComposite in2="SourceAlpha" operator="in" result="effect1_backgroundBlur_206:37133"/>
<feBlend mode="normal" in="SourceGraphic" in2="effect1_backgroundBlur_206:37133" result="shape"/>
</filter>
<linearGradient id="paint0_linear_206:37133" x1="106.429" y1="48.694" x2="98.0524" y2="43.495" gradientUnits="userSpaceOnUse">
<stop stop-color="#4273D3"/>
<stop offset="0.484375" stop-color="#4273D3"/>
<stop offset="0.510417" stop-color="#4C88FB"/>
<stop offset="1" stop-color="#4D89FE"/>
</linearGradient>
</defs>
</svg>
