<svg width="167" height="167" viewBox="0 0 167 167" fill="none" xmlns="http://www.w3.org/2000/svg">
<mask id="mask0_206:37157" style="mask-type:alpha" maskUnits="userSpaceOnUse" x="0" y="0" width="167" height="167">
<rect x="1" y="1" width="165" height="165" rx="8" fill="#5988D6" stroke="#EDE6FC" stroke-opacity="0.3"/>
</mask>
<g mask="url(#mask0_206:37157)">
<rect x="1" y="1" width="165" height="165" rx="8" fill="#A97AD9" stroke="#EDE6FC" stroke-opacity="0.3"/>
<g clip-path="url(#clip0_206:37157)">
<path d="M67.8386 57.4277L61.7205 51.3186L52.5902 60.7165L58.5814 66.7083L58.5821 66.7076C59.768 67.8908 61.4045 68.6228 63.2114 68.6228C66.8306 68.6228 69.7655 65.688 69.7655 62.0687C69.7655 60.2556 69.0287 58.6143 67.8386 57.4277Z" fill="#6C39A0"/>
<path d="M55.9129 45.5199C54.7455 44.4464 53.1932 43.7861 51.483 43.7861C47.863 43.7861 44.9288 46.7203 44.9288 50.3403C44.9288 52.0505 45.5898 53.6035 46.6633 54.7702L46.6536 54.7798L52.5903 60.7165L61.7205 51.3185L55.9129 45.5199Z" fill="#FCDBAA"/>
</g>
<rect x="51.9772" y="51.5614" width="2" height="13.9775" rx="1" transform="rotate(-45 51.9772 51.5614)" fill="url(#paint0_linear_206:37157)" fill-opacity="0.8"/>
<g clip-path="url(#clip1_206:37157)">
<path d="M91.4817 37.3748L97.5908 31.2567L88.1929 22.1264L82.201 28.1176L82.2017 28.1183C81.0185 29.3042 80.2865 30.9407 80.2865 32.7476C80.2865 36.3668 83.2214 39.3017 86.8407 39.3017C88.6537 39.3017 90.295 38.5649 91.4817 37.3748Z" fill="#6C39A0"/>
<path d="M103.39 25.449C104.463 24.2817 105.123 22.7294 105.123 21.0191C105.123 17.3992 102.189 14.465 98.5692 14.465C96.8589 14.465 95.3059 15.1259 94.1393 16.1994L94.1296 16.1898L88.1929 22.1264L97.5909 31.2567L103.39 25.449Z" fill="#FCDBAA"/>
</g>
<rect x="97.348" y="21.5134" width="2" height="13.9775" rx="1" transform="rotate(45 97.348 21.5134)" fill="url(#paint1_linear_206:37157)" fill-opacity="0.8"/>
<g clip-path="url(#clip2_206:37157)">
<path d="M57.1308 11.5914L55.3692 20.056L68.2325 22.5495L69.9655 14.2554L69.9645 14.2552C70.3051 12.6149 70.0215 10.8448 69.0321 9.33289C67.0503 6.30448 62.9874 5.45583 59.959 7.43769C58.4419 8.43051 57.472 9.9458 57.1308 11.5914Z" fill="#6C39A0"/>
<path d="M53.6973 28.0908C53.4383 29.6554 53.7359 31.3158 54.6724 32.7469C56.6546 35.7759 60.7165 36.6244 63.7455 34.6421C65.1766 33.7056 66.1141 32.3022 66.5025 30.7651L66.5159 30.7679L68.2325 22.5495L55.3692 20.056L53.6973 28.0908Z" fill="#FCDBAA"/>
</g>
<rect x="60.9077" y="28.0757" width="2" height="13.9775" rx="1" transform="rotate(-168.202 60.9077 28.0757)" fill="url(#paint2_linear_206:37157)" fill-opacity="0.8"/>
<g clip-path="url(#clip3_206:37157)">
<path d="M84.0933 55.2626L86.5212 63.5607L99.0451 59.7092L96.6722 51.575L96.6713 51.5753C96.2001 49.9676 95.1171 48.5391 93.5327 47.6704C90.3591 45.9305 86.3747 47.0931 84.6348 50.2667C83.7632 51.8566 83.6203 53.65 84.0933 55.2626Z" fill="#6C39A0"/>
<path d="M88.8261 71.4373C89.3336 72.9398 90.3774 74.265 91.8771 75.0872C95.0513 76.8274 99.0347 75.6651 100.775 72.4909C101.597 70.9912 101.764 69.3117 101.384 67.7727L101.397 67.7688L99.0451 59.7092L86.5212 63.5607L88.8261 71.4373Z" fill="#FCDBAA"/>
</g>
<rect x="95.1815" y="68.0317" width="2" height="13.9775" rx="1" transform="rotate(163.733 95.1815 68.0317)" fill="url(#paint3_linear_206:37157)" fill-opacity="0.8"/>
<g clip-path="url(#clip4_206:37157)">
<path d="M128.628 40.8869L120.526 37.8702L116.123 50.2111L124.061 53.1738L124.062 53.1729C125.632 53.7567 127.425 53.743 129.068 52.9926C132.361 51.4896 133.812 47.6009 132.309 44.3085C131.556 42.6592 130.204 41.4721 128.628 40.8869Z" fill="#6C39A0"/>
<path d="M112.835 35.0071C111.327 34.5153 109.64 34.5593 108.085 35.2696C104.792 36.7729 103.341 40.6606 104.844 43.9537C105.555 45.5095 106.801 46.6477 108.262 47.2632L108.257 47.276L116.123 50.2111L120.526 37.8702L112.835 35.0071Z" fill="#FCDBAA"/>
</g>
<rect x="112.515" y="40.1241" width="2" height="13.9775" rx="1" transform="rotate(-69.5374 112.515 40.1241)" fill="url(#paint4_linear_206:37157)" fill-opacity="0.8"/>
</g>
<g filter="url(#filter0_b_206:37157)">
<rect x="13" y="77" width="141" height="77" rx="10" fill="black" fill-opacity="0.8"/>
</g>
<path d="M38.328 86.858C39.5973 86.858 40.5727 87.2453 41.254 88.02C41.9447 88.7853 42.29 89.8773 42.29 91.296C42.29 92.8453 41.9167 94.04 41.17 94.88C40.4233 95.72 39.3687 96.14 38.006 96.14C36.746 96.14 35.7707 95.748 35.08 94.964C34.3987 94.1707 34.058 93.0507 34.058 91.604C34.058 90.0827 34.4267 88.9113 35.164 88.09C35.9107 87.2687 36.9653 86.858 38.328 86.858ZM38.16 88.384C37.4133 88.384 36.872 88.6173 36.536 89.084C36.2 89.5507 36.032 90.3113 36.032 91.366C36.032 92.57 36.1953 93.4287 36.522 93.942C36.858 94.4553 37.4087 94.712 38.174 94.712C38.9207 94.712 39.462 94.4787 39.798 94.012C40.134 93.536 40.302 92.7613 40.302 91.688C40.302 90.5027 40.134 89.658 39.798 89.154C39.4713 88.6407 38.9253 88.384 38.16 88.384ZM48.2673 94.628C48.5659 94.628 48.8786 94.5487 49.2053 94.39L49.3593 94.53L49.1773 95.636C48.7013 95.8787 48.2159 96.028 47.7213 96.084C46.4613 95.9533 45.8313 95.3373 45.8313 94.236L45.9013 93.074L45.8873 90.666H45.0193L44.9493 90.568L45.0473 89.546H45.8733V88.468L47.5673 87.922L47.6933 88.034L47.6513 89.546H49.3173L49.3733 89.644L49.2893 90.666H47.6233L47.5393 93.802C47.5393 94.1007 47.5953 94.3153 47.7073 94.446C47.8193 94.5673 48.0059 94.628 48.2673 94.628ZM53.9637 89.476C54.0477 89.476 54.1644 89.4853 54.3137 89.504V91.226L54.1177 91.296C53.9591 91.2307 53.7864 91.198 53.5997 91.198C53.0584 91.198 52.5684 91.548 52.1297 92.248V93.13L52.2277 96H50.3657L50.4777 93.312L50.3937 89.616L52.1577 89.462L52.1437 90.736H52.2557C52.7131 89.896 53.2824 89.476 53.9637 89.476ZM57.6582 89.364C58.3769 89.364 58.9369 89.5273 59.3382 89.854C59.7489 90.1713 59.9542 90.6193 59.9542 91.198C59.9542 91.366 59.9262 91.898 59.8702 92.794C59.8609 93.0553 59.8469 93.326 59.8282 93.606C59.8095 93.8767 59.8002 94.11 59.8002 94.306C59.8002 94.4647 59.8235 94.5767 59.8702 94.642C59.9169 94.698 60.0009 94.726 60.1222 94.726C60.2155 94.726 60.3369 94.7073 60.4862 94.67L60.6262 94.782L60.4582 95.762C60.1595 95.958 59.8189 96.0747 59.4362 96.112C59.1562 96.084 58.9229 95.986 58.7362 95.818C58.5495 95.6407 58.4235 95.398 58.3582 95.09H58.2602C57.7935 95.5847 57.3129 95.93 56.8182 96.126C56.1462 96.1167 55.6189 95.9393 55.2362 95.594C54.8535 95.2487 54.6622 94.7773 54.6622 94.18C54.6622 93.7133 54.7789 93.3493 55.0122 93.088C55.2549 92.8173 55.6189 92.6353 56.1042 92.542L58.2462 92.136V91.562C58.2462 90.9553 57.9475 90.652 57.3502 90.652C57.0609 90.652 56.7529 90.7173 56.4262 90.848C56.1089 90.9787 55.7495 91.184 55.3482 91.464L55.2082 91.38L54.9982 90.148C55.3995 89.896 55.8289 89.7047 56.2862 89.574C56.7435 89.434 57.2009 89.364 57.6582 89.364ZM56.7482 93.396C56.5989 93.4333 56.4869 93.4987 56.4122 93.592C56.3469 93.676 56.3142 93.8067 56.3142 93.984C56.3142 94.2267 56.3795 94.418 56.5102 94.558C56.6409 94.6887 56.8229 94.754 57.0562 94.754C57.4202 94.754 57.8029 94.5393 58.2042 94.11L58.2322 93.074L56.7482 93.396ZM64.4684 94.628C64.7671 94.628 65.0798 94.5487 65.4064 94.39L65.5604 94.53L65.3784 95.636C64.9024 95.8787 64.4171 96.028 63.9224 96.084C62.6624 95.9533 62.0324 95.3373 62.0324 94.236L62.1024 93.074L62.0884 90.666H61.2204L61.1504 90.568L61.2484 89.546H62.0744V88.468L63.7684 87.922L63.8944 88.034L63.8524 89.546H65.5184L65.5744 89.644L65.4904 90.666H63.8244L63.7404 93.802C63.7404 94.1007 63.7964 94.3153 63.9084 94.446C64.0204 94.5673 64.2071 94.628 64.4684 94.628ZM69.1289 89.364C69.8476 89.364 70.4076 89.5273 70.8089 89.854C71.2196 90.1713 71.4249 90.6193 71.4249 91.198C71.4249 91.366 71.3969 91.898 71.3409 92.794C71.3316 93.0553 71.3176 93.326 71.2989 93.606C71.2802 93.8767 71.2709 94.11 71.2709 94.306C71.2709 94.4647 71.2942 94.5767 71.3409 94.642C71.3876 94.698 71.4716 94.726 71.5929 94.726C71.6862 94.726 71.8076 94.7073 71.9569 94.67L72.0969 94.782L71.9289 95.762C71.6302 95.958 71.2896 96.0747 70.9069 96.112C70.6269 96.084 70.3936 95.986 70.2069 95.818C70.0202 95.6407 69.8942 95.398 69.8289 95.09H69.7309C69.2642 95.5847 68.7836 95.93 68.2889 96.126C67.6169 96.1167 67.0896 95.9393 66.7069 95.594C66.3242 95.2487 66.1329 94.7773 66.1329 94.18C66.1329 93.7133 66.2496 93.3493 66.4829 93.088C66.7256 92.8173 67.0896 92.6353 67.5749 92.542L69.7169 92.136V91.562C69.7169 90.9553 69.4182 90.652 68.8209 90.652C68.5316 90.652 68.2236 90.7173 67.8969 90.848C67.5796 90.9787 67.2202 91.184 66.8189 91.464L66.6789 91.38L66.4689 90.148C66.8702 89.896 67.2996 89.7047 67.7569 89.574C68.2142 89.434 68.6716 89.364 69.1289 89.364ZM68.2189 93.396C68.0696 93.4333 67.9576 93.4987 67.8829 93.592C67.8176 93.676 67.7849 93.8067 67.7849 93.984C67.7849 94.2267 67.8502 94.418 67.9809 94.558C68.1116 94.6887 68.2936 94.754 68.5269 94.754C68.8909 94.754 69.2736 94.5393 69.6749 94.11L69.7029 93.074L68.2189 93.396ZM81.0231 96L81.1351 91.94C81.1351 91.2493 80.8411 90.904 80.2531 90.904C79.8331 90.904 79.3944 91.0907 78.9371 91.464L78.8951 93.144L78.9791 96H77.1171L77.2291 91.94C77.2384 91.604 77.1638 91.3473 77.0051 91.17C76.8558 90.9927 76.6364 90.904 76.3471 90.904C75.9364 90.904 75.4838 91.1 74.9891 91.492V93.13L75.0731 96H73.2251L73.3231 93.312L73.2531 89.616L75.0031 89.462V90.414H75.1011C75.6144 89.9473 76.1791 89.6113 76.7951 89.406C77.8404 89.406 78.5078 89.756 78.7971 90.456H78.8811C79.4131 89.9613 80.0198 89.6113 80.7011 89.406C81.4104 89.406 81.9471 89.5693 82.3111 89.896C82.6844 90.2133 82.8618 90.6753 82.8431 91.282L82.8011 93.144L82.8851 96H81.0231ZM89.5581 92.976L85.7781 93.004C85.8621 94.1707 86.4547 94.754 87.5561 94.754C88.1347 94.754 88.7787 94.5907 89.4881 94.264L89.6421 94.362L89.3621 95.748C88.6527 96.0093 87.9854 96.14 87.3601 96.14C86.3334 96.14 85.5261 95.8413 84.9381 95.244C84.3594 94.6467 84.0701 93.8207 84.0701 92.766C84.0701 91.7207 84.3547 90.8947 84.9241 90.288C85.4934 89.672 86.2634 89.364 87.2341 89.364C88.0647 89.364 88.7041 89.5927 89.1521 90.05C89.6094 90.498 89.8381 91.128 89.8381 91.94C89.8381 92.1547 89.8147 92.4253 89.7681 92.752L89.5581 92.976ZM88.2141 91.73C88.2141 91.3567 88.1301 91.0767 87.9621 90.89C87.7941 90.694 87.5467 90.596 87.2201 90.596C86.8561 90.596 86.5527 90.7173 86.3101 90.96C86.0674 91.1933 85.9041 91.534 85.8201 91.982L88.1861 91.926L88.2141 91.73ZM95.1256 91.94C95.1349 91.6133 95.0602 91.3613 94.9016 91.184C94.7522 90.9973 94.5329 90.904 94.2436 90.904C93.8236 90.904 93.3756 91.1047 92.8996 91.506V93.13L92.9836 96H91.1216L91.2196 93.312L91.1496 89.616L92.9136 89.462V90.414H93.0116C93.5249 89.9473 94.0849 89.6113 94.6916 89.406C95.4009 89.406 95.9422 89.5693 96.3156 89.896C96.6889 90.2133 96.8662 90.6753 96.8476 91.282L96.8056 93.144L96.8896 96H95.0136L95.1256 91.94ZM101.164 94.628C101.462 94.628 101.775 94.5487 102.102 94.39L102.256 94.53L102.074 95.636C101.598 95.8787 101.112 96.028 100.618 96.084C99.3577 95.9533 98.7277 95.3373 98.7277 94.236L98.7977 93.074L98.7837 90.666H97.9157L97.8457 90.568L97.9437 89.546H98.7697V88.468L100.464 87.922L100.59 88.034L100.548 89.546H102.214L102.27 89.644L102.186 90.666H100.52L100.436 93.802C100.436 94.1007 100.492 94.3153 100.604 94.446C100.716 94.5673 100.902 94.628 101.164 94.628ZM105.869 89.364C106.821 89.364 107.549 89.644 108.053 90.204C108.557 90.764 108.809 91.5713 108.809 92.626C108.809 93.7647 108.538 94.6373 107.997 95.244C107.455 95.8413 106.676 96.14 105.659 96.14C104.707 96.14 103.979 95.86 103.475 95.3C102.971 94.74 102.719 93.9327 102.719 92.878C102.719 91.7393 102.989 90.8713 103.531 90.274C104.072 89.6673 104.851 89.364 105.869 89.364ZM105.743 90.624C105.295 90.624 104.968 90.7733 104.763 91.072C104.567 91.3707 104.469 91.8513 104.469 92.514C104.469 93.3727 104.571 93.984 104.777 94.348C104.982 94.712 105.318 94.894 105.785 94.894C106.233 94.894 106.555 94.7493 106.751 94.46C106.956 94.1613 107.059 93.676 107.059 93.004C107.059 92.1547 106.951 91.548 106.737 91.184C106.531 90.8107 106.2 90.624 105.743 90.624ZM114.906 89.364C115.858 89.364 116.586 89.644 117.09 90.204C117.594 90.764 117.846 91.5713 117.846 92.626C117.846 93.7647 117.575 94.6373 117.034 95.244C116.492 95.8413 115.713 96.14 114.696 96.14C113.744 96.14 113.016 95.86 112.512 95.3C112.008 94.74 111.756 93.9327 111.756 92.878C111.756 91.7393 112.026 90.8713 112.568 90.274C113.109 89.6673 113.888 89.364 114.906 89.364ZM114.78 90.624C114.332 90.624 114.005 90.7733 113.8 91.072C113.604 91.3707 113.506 91.8513 113.506 92.514C113.506 93.3727 113.608 93.984 113.814 94.348C114.019 94.712 114.355 94.894 114.822 94.894C115.27 94.894 115.592 94.7493 115.788 94.46C115.993 94.1613 116.096 93.676 116.096 93.004C116.096 92.1547 115.988 91.548 115.774 91.184C115.568 90.8107 115.237 90.624 114.78 90.624ZM122.638 89.476C122.722 89.476 122.838 89.4853 122.988 89.504V91.226L122.792 91.296C122.633 91.2307 122.46 91.198 122.274 91.198C121.732 91.198 121.242 91.548 120.804 92.248V93.13L120.902 96H119.04L119.152 93.312L119.068 89.616L120.832 89.462L120.818 90.736H120.93C121.387 89.896 121.956 89.476 122.638 89.476ZM126.332 89.364C127.051 89.364 127.611 89.5273 128.012 89.854C128.423 90.1713 128.628 90.6193 128.628 91.198C128.628 91.366 128.6 91.898 128.544 92.794C128.535 93.0553 128.521 93.326 128.502 93.606C128.483 93.8767 128.474 94.11 128.474 94.306C128.474 94.4647 128.497 94.5767 128.544 94.642C128.591 94.698 128.675 94.726 128.796 94.726C128.889 94.726 129.011 94.7073 129.16 94.67L129.3 94.782L129.132 95.762C128.833 95.958 128.493 96.0747 128.11 96.112C127.83 96.084 127.597 95.986 127.41 95.818C127.223 95.6407 127.097 95.398 127.032 95.09H126.934C126.467 95.5847 125.987 95.93 125.492 96.126C124.82 96.1167 124.293 95.9393 123.91 95.594C123.527 95.2487 123.336 94.7773 123.336 94.18C123.336 93.7133 123.453 93.3493 123.686 93.088C123.929 92.8173 124.293 92.6353 124.778 92.542L126.92 92.136V91.562C126.92 90.9553 126.621 90.652 126.024 90.652C125.735 90.652 125.427 90.7173 125.1 90.848C124.783 90.9787 124.423 91.184 124.022 91.464L123.882 91.38L123.672 90.148C124.073 89.896 124.503 89.7047 124.96 89.574C125.417 89.434 125.875 89.364 126.332 89.364ZM125.422 93.396C125.273 93.4333 125.161 93.4987 125.086 93.592C125.021 93.676 124.988 93.8067 124.988 93.984C124.988 94.2267 125.053 94.418 125.184 94.558C125.315 94.6887 125.497 94.754 125.73 94.754C126.094 94.754 126.477 94.5393 126.878 94.11L126.906 93.074L125.422 93.396ZM132.33 93.13L132.428 96H130.566L130.664 93.298L130.58 86.312L132.442 86.172L132.33 93.13ZM50.1867 105.406C50.9987 105.406 51.624 105.681 52.0627 106.232C52.5013 106.783 52.7207 107.562 52.7207 108.57C52.7207 109.709 52.436 110.591 51.8667 111.216C51.3067 111.832 50.5133 112.14 49.4867 112.14C49.188 112.14 48.8753 112.112 48.5487 112.056L48.5907 114.59H46.7427L46.8407 109.312L46.7567 105.616L48.5347 105.462L48.5207 106.414H48.6187C48.88 106.162 49.132 105.961 49.3747 105.812C49.6173 105.653 49.888 105.518 50.1867 105.406ZM49.5007 110.922C49.986 110.922 50.3547 110.749 50.6067 110.404C50.8587 110.059 50.9847 109.55 50.9847 108.878C50.9847 108.225 50.8773 107.735 50.6627 107.408C50.4573 107.072 50.1493 106.904 49.7387 106.904C49.3373 106.904 48.9313 107.105 48.5207 107.506L48.5067 109.13L48.5347 110.712C48.8707 110.852 49.1927 110.922 49.5007 110.922ZM56.6908 105.364C57.6428 105.364 58.3708 105.644 58.8748 106.204C59.3788 106.764 59.6308 107.571 59.6308 108.626C59.6308 109.765 59.3601 110.637 58.8188 111.244C58.2774 111.841 57.4981 112.14 56.4808 112.14C55.5288 112.14 54.8008 111.86 54.2968 111.3C53.7928 110.74 53.5408 109.933 53.5408 108.878C53.5408 107.739 53.8114 106.871 54.3528 106.274C54.8941 105.667 55.6734 105.364 56.6908 105.364ZM56.5648 106.624C56.1168 106.624 55.7901 106.773 55.5848 107.072C55.3888 107.371 55.2908 107.851 55.2908 108.514C55.2908 109.373 55.3934 109.984 55.5988 110.348C55.8041 110.712 56.1401 110.894 56.6068 110.894C57.0548 110.894 57.3768 110.749 57.5728 110.46C57.7781 110.161 57.8808 109.676 57.8808 109.004C57.8808 108.155 57.7734 107.548 57.5588 107.184C57.3534 106.811 57.0221 106.624 56.5648 106.624ZM66.3387 109.13L66.3807 110.306C66.3807 110.465 66.3994 110.577 66.4367 110.642C66.4834 110.698 66.5627 110.726 66.6747 110.726C66.7774 110.726 66.9034 110.707 67.0527 110.67L67.1787 110.782L67.0247 111.762C66.7074 111.958 66.3621 112.075 65.9887 112.112C65.6994 112.084 65.4567 111.986 65.2607 111.818C65.0647 111.65 64.9294 111.421 64.8547 111.132H64.7427C64.2854 111.552 63.8187 111.874 63.3427 112.098C62.4281 112.098 61.7187 111.809 61.2147 111.23C60.7107 110.642 60.4587 109.83 60.4587 108.794C60.4587 107.693 60.7481 106.848 61.3267 106.26C61.9054 105.672 62.7081 105.378 63.7347 105.378C64.0054 105.378 64.3041 105.406 64.6307 105.462L64.6027 102.312L66.4507 102.172L66.3387 109.13ZM63.6087 106.638C62.6754 106.638 62.2087 107.231 62.2087 108.416C62.2087 109.153 62.3207 109.709 62.5447 110.082C62.7687 110.455 63.0954 110.642 63.5247 110.642C63.9354 110.642 64.3134 110.451 64.6587 110.068L64.6867 109.298L64.6447 106.89C64.2807 106.722 63.9354 106.638 63.6087 106.638ZM73.3159 108.976L69.5359 109.004C69.6199 110.171 70.2125 110.754 71.3139 110.754C71.8925 110.754 72.5365 110.591 73.2459 110.264L73.3999 110.362L73.1199 111.748C72.4105 112.009 71.7432 112.14 71.1179 112.14C70.0912 112.14 69.2839 111.841 68.6959 111.244C68.1172 110.647 67.8279 109.821 67.8279 108.766C67.8279 107.721 68.1125 106.895 68.6819 106.288C69.2512 105.672 70.0212 105.364 70.9919 105.364C71.8225 105.364 72.4619 105.593 72.9099 106.05C73.3672 106.498 73.5959 107.128 73.5959 107.94C73.5959 108.155 73.5725 108.425 73.5259 108.752L73.3159 108.976ZM71.9719 107.73C71.9719 107.357 71.8879 107.077 71.7199 106.89C71.5519 106.694 71.3045 106.596 70.9779 106.596C70.6139 106.596 70.3105 106.717 70.0679 106.96C69.8252 107.193 69.6619 107.534 69.5779 107.982L71.9439 107.926L71.9719 107.73ZM79.5605 105.364C80.2792 105.364 80.8392 105.527 81.2405 105.854C81.6512 106.171 81.8565 106.619 81.8565 107.198C81.8565 107.366 81.8285 107.898 81.7725 108.794C81.7632 109.055 81.7492 109.326 81.7305 109.606C81.7119 109.877 81.7025 110.11 81.7025 110.306C81.7025 110.465 81.7259 110.577 81.7725 110.642C81.8192 110.698 81.9032 110.726 82.0245 110.726C82.1179 110.726 82.2392 110.707 82.3885 110.67L82.5285 110.782L82.3605 111.762C82.0619 111.958 81.7212 112.075 81.3385 112.112C81.0585 112.084 80.8252 111.986 80.6385 111.818C80.4519 111.641 80.3259 111.398 80.2605 111.09H80.1625C79.6959 111.585 79.2152 111.93 78.7205 112.126C78.0485 112.117 77.5212 111.939 77.1385 111.594C76.7559 111.249 76.5645 110.777 76.5645 110.18C76.5645 109.713 76.6812 109.349 76.9145 109.088C77.1572 108.817 77.5212 108.635 78.0065 108.542L80.1485 108.136V107.562C80.1485 106.955 79.8499 106.652 79.2525 106.652C78.9632 106.652 78.6552 106.717 78.3285 106.848C78.0112 106.979 77.6519 107.184 77.2505 107.464L77.1105 107.38L76.9005 106.148C77.3019 105.896 77.7312 105.705 78.1885 105.574C78.6459 105.434 79.1032 105.364 79.5605 105.364ZM78.6505 109.396C78.5012 109.433 78.3892 109.499 78.3145 109.592C78.2492 109.676 78.2165 109.807 78.2165 109.984C78.2165 110.227 78.2819 110.418 78.4125 110.558C78.5432 110.689 78.7252 110.754 78.9585 110.754C79.3225 110.754 79.7052 110.539 80.1065 110.11L80.1345 109.074L78.6505 109.396ZM85.9228 105.378C86.5574 105.378 87.1548 105.485 87.7148 105.7L87.4628 107.072L87.2388 107.142C86.9681 106.965 86.6974 106.829 86.4268 106.736C86.1561 106.643 85.9181 106.596 85.7128 106.596C85.4888 106.596 85.3114 106.657 85.1808 106.778C85.0501 106.89 84.9848 107.03 84.9848 107.198C84.9848 107.394 85.0688 107.553 85.2368 107.674C85.4141 107.795 85.6894 107.931 86.0628 108.08C86.4361 108.229 86.7441 108.374 86.9868 108.514C87.2294 108.654 87.4348 108.85 87.6028 109.102C87.7801 109.345 87.8688 109.648 87.8688 110.012C87.8688 110.385 87.7708 110.735 87.5748 111.062C87.3881 111.379 87.0988 111.641 86.7068 111.846C86.3148 112.042 85.8341 112.14 85.2648 112.14C84.5928 112.14 83.8974 112 83.1788 111.72L83.3888 110.264L83.5708 110.152C83.8601 110.395 84.1821 110.591 84.5368 110.74C84.8914 110.88 85.2041 110.95 85.4748 110.95C85.7268 110.95 85.9228 110.889 86.0628 110.768C86.2028 110.637 86.2728 110.483 86.2728 110.306C86.2728 110.11 86.1841 109.951 86.0068 109.83C85.8388 109.709 85.5681 109.573 85.1948 109.424C84.8121 109.256 84.4994 109.107 84.2568 108.976C84.0141 108.836 83.8041 108.64 83.6268 108.388C83.4588 108.136 83.3748 107.823 83.3748 107.45C83.3748 106.843 83.6034 106.349 84.0608 105.966C84.5181 105.574 85.1388 105.378 85.9228 105.378ZM91.2958 105.378C91.9305 105.378 92.5278 105.485 93.0878 105.7L92.8358 107.072L92.6118 107.142C92.3411 106.965 92.0705 106.829 91.7998 106.736C91.5291 106.643 91.2911 106.596 91.0858 106.596C90.8618 106.596 90.6845 106.657 90.5538 106.778C90.4231 106.89 90.3578 107.03 90.3578 107.198C90.3578 107.394 90.4418 107.553 90.6098 107.674C90.7871 107.795 91.0625 107.931 91.4358 108.08C91.8091 108.229 92.1171 108.374 92.3598 108.514C92.6025 108.654 92.8078 108.85 92.9758 109.102C93.1531 109.345 93.2418 109.648 93.2418 110.012C93.2418 110.385 93.1438 110.735 92.9478 111.062C92.7611 111.379 92.4718 111.641 92.0798 111.846C91.6878 112.042 91.2071 112.14 90.6378 112.14C89.9658 112.14 89.2705 112 88.5518 111.72L88.7618 110.264L88.9438 110.152C89.2331 110.395 89.5551 110.591 89.9098 110.74C90.2645 110.88 90.5771 110.95 90.8478 110.95C91.0998 110.95 91.2958 110.889 91.4358 110.768C91.5758 110.637 91.6458 110.483 91.6458 110.306C91.6458 110.11 91.5571 109.951 91.3798 109.83C91.2118 109.709 90.9411 109.573 90.5678 109.424C90.1851 109.256 89.8725 109.107 89.6298 108.976C89.3871 108.836 89.1771 108.64 88.9998 108.388C88.8318 108.136 88.7478 107.823 88.7478 107.45C88.7478 106.843 88.9765 106.349 89.4338 105.966C89.8911 105.574 90.5118 105.378 91.2958 105.378ZM97.1869 105.364C98.1389 105.364 98.8669 105.644 99.3709 106.204C99.8749 106.764 100.127 107.571 100.127 108.626C100.127 109.765 99.8562 110.637 99.3149 111.244C98.7735 111.841 97.9942 112.14 96.9769 112.14C96.0249 112.14 95.2969 111.86 94.7929 111.3C94.2889 110.74 94.0369 109.933 94.0369 108.878C94.0369 107.739 94.3075 106.871 94.8489 106.274C95.3902 105.667 96.1695 105.364 97.1869 105.364ZM97.0609 106.624C96.6129 106.624 96.2862 106.773 96.0809 107.072C95.8849 107.371 95.7869 107.851 95.7869 108.514C95.7869 109.373 95.8895 109.984 96.0949 110.348C96.3002 110.712 96.6362 110.894 97.1029 110.894C97.5509 110.894 97.8729 110.749 98.0689 110.46C98.2742 110.161 98.3769 109.676 98.3769 109.004C98.3769 108.155 98.2695 107.548 98.0549 107.184C97.8495 106.811 97.5182 106.624 97.0609 106.624ZM104.077 105.364C104.385 105.364 104.688 105.397 104.987 105.462C105.295 105.518 105.565 105.602 105.799 105.714L105.491 107.198L105.337 107.268C104.861 107.007 104.436 106.876 104.063 106.876C103.633 106.876 103.302 107.03 103.069 107.338C102.835 107.646 102.719 108.085 102.719 108.654C102.719 109.307 102.845 109.807 103.097 110.152C103.349 110.497 103.708 110.67 104.175 110.67C104.595 110.67 105.061 110.553 105.575 110.32L105.715 110.432L105.533 111.874C104.973 112.051 104.399 112.14 103.811 112.14C102.915 112.14 102.215 111.851 101.711 111.272C101.207 110.684 100.955 109.867 100.955 108.822C100.955 107.739 101.23 106.895 101.781 106.288C102.331 105.672 103.097 105.364 104.077 105.364ZM106.916 109.312L106.846 105.616L108.68 105.462L108.596 109.13L108.68 112H106.818L106.916 109.312ZM107.798 102.298C108.087 102.298 108.311 102.382 108.47 102.55C108.638 102.718 108.722 102.951 108.722 103.25C108.722 103.567 108.633 103.819 108.456 104.006C108.278 104.193 108.036 104.286 107.728 104.286C107.42 104.286 107.182 104.202 107.014 104.034C106.855 103.866 106.776 103.628 106.776 103.32C106.776 103.012 106.864 102.765 107.042 102.578C107.228 102.391 107.48 102.298 107.798 102.298ZM113.002 105.364C113.721 105.364 114.281 105.527 114.682 105.854C115.093 106.171 115.298 106.619 115.298 107.198C115.298 107.366 115.27 107.898 115.214 108.794C115.205 109.055 115.191 109.326 115.172 109.606C115.153 109.877 115.144 110.11 115.144 110.306C115.144 110.465 115.167 110.577 115.214 110.642C115.261 110.698 115.345 110.726 115.466 110.726C115.559 110.726 115.681 110.707 115.83 110.67L115.97 110.782L115.802 111.762C115.503 111.958 115.163 112.075 114.78 112.112C114.5 112.084 114.267 111.986 114.08 111.818C113.893 111.641 113.767 111.398 113.702 111.09H113.604C113.137 111.585 112.657 111.93 112.162 112.126C111.49 112.117 110.963 111.939 110.58 111.594C110.197 111.249 110.006 110.777 110.006 110.18C110.006 109.713 110.123 109.349 110.356 109.088C110.599 108.817 110.963 108.635 111.448 108.542L113.59 108.136V107.562C113.59 106.955 113.291 106.652 112.694 106.652C112.405 106.652 112.097 106.717 111.77 106.848C111.453 106.979 111.093 107.184 110.692 107.464L110.552 107.38L110.342 106.148C110.743 105.896 111.173 105.705 111.63 105.574C112.087 105.434 112.545 105.364 113.002 105.364ZM112.092 109.396C111.943 109.433 111.831 109.499 111.756 109.592C111.691 109.676 111.658 109.807 111.658 109.984C111.658 110.227 111.723 110.418 111.854 110.558C111.985 110.689 112.167 110.754 112.4 110.754C112.764 110.754 113.147 110.539 113.548 110.11L113.576 109.074L112.092 109.396ZM120.696 105.476C120.78 105.476 120.897 105.485 121.046 105.504V107.226L120.85 107.296C120.691 107.231 120.519 107.198 120.332 107.198C119.791 107.198 119.301 107.548 118.862 108.248V109.13L118.96 112H117.098L117.21 109.312L117.126 105.616L118.89 105.462L118.876 106.736H118.988C119.445 105.896 120.015 105.476 120.696 105.476ZM60.993 125.13L61.035 126.306C61.035 126.465 61.0537 126.577 61.091 126.642C61.1377 126.698 61.217 126.726 61.329 126.726C61.4317 126.726 61.5577 126.707 61.707 126.67L61.833 126.782L61.679 127.762C61.3617 127.958 61.0164 128.075 60.643 128.112C60.3537 128.084 60.111 127.986 59.915 127.818C59.719 127.65 59.5837 127.421 59.509 127.132H59.397C58.9397 127.552 58.473 127.874 57.997 128.098C57.0824 128.098 56.373 127.809 55.869 127.23C55.365 126.642 55.113 125.83 55.113 124.794C55.113 123.693 55.4024 122.848 55.981 122.26C56.5597 121.672 57.3624 121.378 58.389 121.378C58.6597 121.378 58.9584 121.406 59.285 121.462L59.257 118.312L61.105 118.172L60.993 125.13ZM58.263 122.638C57.3297 122.638 56.863 123.231 56.863 124.416C56.863 125.153 56.975 125.709 57.199 126.082C57.423 126.455 57.7497 126.642 58.179 126.642C58.5897 126.642 58.9677 126.451 59.313 126.068L59.341 125.298L59.299 122.89C58.935 122.722 58.5897 122.638 58.263 122.638ZM63.0562 125.312L62.9862 121.616L64.8202 121.462L64.7362 125.13L64.8202 128H62.9582L63.0562 125.312ZM63.9382 118.298C64.2275 118.298 64.4515 118.382 64.6102 118.55C64.7782 118.718 64.8622 118.951 64.8622 119.25C64.8622 119.567 64.7735 119.819 64.5962 120.006C64.4188 120.193 64.1762 120.286 63.8682 120.286C63.5602 120.286 63.3222 120.202 63.1542 120.034C62.9955 119.866 62.9162 119.628 62.9162 119.32C62.9162 119.012 63.0048 118.765 63.1822 118.578C63.3688 118.391 63.6208 118.298 63.9382 118.298ZM69.9686 118.144C70.3512 118.144 70.7572 118.186 71.1866 118.27L71.0606 119.656L70.9346 119.74C70.4959 119.553 70.1132 119.46 69.7866 119.46C69.2079 119.46 68.9139 119.791 68.9046 120.454L68.8906 121.546H70.4726L70.5286 121.644L70.4446 122.666H68.8626L68.8206 125.13L68.9186 128H67.0566L67.1686 125.298L67.1406 122.666H66.1606L66.0906 122.568L66.1886 121.546H67.1266L67.1126 120.776C67.1126 119.936 67.3599 119.287 67.8546 118.83C68.3586 118.373 69.0632 118.144 69.9686 118.144ZM76.0913 124.976L72.3113 125.004C72.3953 126.171 72.9879 126.754 74.0893 126.754C74.6679 126.754 75.3119 126.591 76.0213 126.264L76.1753 126.362L75.8953 127.748C75.1859 128.009 74.5186 128.14 73.8933 128.14C72.8666 128.14 72.0593 127.841 71.4713 127.244C70.8926 126.647 70.6033 125.821 70.6033 124.766C70.6033 123.721 70.8879 122.895 71.4573 122.288C72.0266 121.672 72.7966 121.364 73.7673 121.364C74.5979 121.364 75.2373 121.593 75.6853 122.05C76.1426 122.498 76.3713 123.128 76.3713 123.94C76.3713 124.155 76.3479 124.425 76.3013 124.752L76.0913 124.976ZM74.7473 123.73C74.7473 123.357 74.6633 123.077 74.4953 122.89C74.3273 122.694 74.0799 122.596 73.7533 122.596C73.3893 122.596 73.0859 122.717 72.8433 122.96C72.6006 123.193 72.4373 123.534 72.3533 123.982L74.7193 123.926L74.7473 123.73ZM81.2528 121.476C81.3368 121.476 81.4534 121.485 81.6028 121.504V123.226L81.4068 123.296C81.2481 123.231 81.0754 123.198 80.8888 123.198C80.3474 123.198 79.8574 123.548 79.4188 124.248V125.13L79.5168 128H77.6548L77.7668 125.312L77.6828 121.616L79.4468 121.462L79.4328 122.736H79.5448C80.0021 121.896 80.5714 121.476 81.2528 121.476ZM87.562 124.976L83.782 125.004C83.866 126.171 84.4586 126.754 85.56 126.754C86.1386 126.754 86.7826 126.591 87.492 126.264L87.646 126.362L87.366 127.748C86.6566 128.009 85.9893 128.14 85.364 128.14C84.3373 128.14 83.53 127.841 82.942 127.244C82.3633 126.647 82.074 125.821 82.074 124.766C82.074 123.721 82.3586 122.895 82.928 122.288C83.4973 121.672 84.2673 121.364 85.238 121.364C86.0686 121.364 86.708 121.593 87.156 122.05C87.6133 122.498 87.842 123.128 87.842 123.94C87.842 124.155 87.8186 124.425 87.772 124.752L87.562 124.976ZM86.218 123.73C86.218 123.357 86.134 123.077 85.966 122.89C85.798 122.694 85.5506 122.596 85.224 122.596C84.86 122.596 84.5566 122.717 84.314 122.96C84.0713 123.193 83.908 123.534 83.824 123.982L86.19 123.926L86.218 123.73ZM93.1295 123.94C93.1388 123.613 93.0642 123.361 92.9055 123.184C92.7562 122.997 92.5368 122.904 92.2475 122.904C91.8275 122.904 91.3795 123.105 90.9035 123.506V125.13L90.9875 128H89.1255L89.2235 125.312L89.1535 121.616L90.9175 121.462V122.414H91.0155C91.5288 121.947 92.0888 121.611 92.6955 121.406C93.4048 121.406 93.9462 121.569 94.3195 121.896C94.6928 122.213 94.8702 122.675 94.8515 123.282L94.8095 125.144L94.8935 128H93.0175L93.1295 123.94ZM99.1676 126.628C99.4663 126.628 99.779 126.549 100.106 126.39L100.26 126.53L100.078 127.636C99.6016 127.879 99.1163 128.028 98.6216 128.084C97.3616 127.953 96.7316 127.337 96.7316 126.236L96.8016 125.074L96.7876 122.666H95.9196L95.8496 122.568L95.9476 121.546H96.7736V120.468L98.4676 119.922L98.5936 120.034L98.5516 121.546H100.218L100.274 121.644L100.19 122.666H98.5236L98.4396 125.802C98.4396 126.101 98.4956 126.315 98.6076 126.446C98.7196 126.567 98.9063 126.628 99.1676 126.628ZM106.21 124.976L102.43 125.004C102.514 126.171 103.107 126.754 104.208 126.754C104.787 126.754 105.431 126.591 106.14 126.264L106.294 126.362L106.014 127.748C105.305 128.009 104.638 128.14 104.012 128.14C102.986 128.14 102.178 127.841 101.59 127.244C101.012 126.647 100.722 125.821 100.722 124.766C100.722 123.721 101.007 122.895 101.576 122.288C102.146 121.672 102.916 121.364 103.886 121.364C104.717 121.364 105.356 121.593 105.804 122.05C106.262 122.498 106.49 123.128 106.49 123.94C106.49 124.155 106.467 124.425 106.42 124.752L106.21 124.976ZM104.866 123.73C104.866 123.357 104.782 123.077 104.614 122.89C104.446 122.694 104.199 122.596 103.872 122.596C103.508 122.596 103.205 122.717 102.962 122.96C102.72 123.193 102.556 123.534 102.472 123.982L104.838 123.926L104.866 123.73ZM109.958 121.378C110.593 121.378 111.19 121.485 111.75 121.7L111.498 123.072L111.274 123.142C111.003 122.965 110.733 122.829 110.462 122.736C110.191 122.643 109.953 122.596 109.748 122.596C109.524 122.596 109.347 122.657 109.216 122.778C109.085 122.89 109.02 123.03 109.02 123.198C109.02 123.394 109.104 123.553 109.272 123.674C109.449 123.795 109.725 123.931 110.098 124.08C110.471 124.229 110.779 124.374 111.022 124.514C111.265 124.654 111.47 124.85 111.638 125.102C111.815 125.345 111.904 125.648 111.904 126.012C111.904 126.385 111.806 126.735 111.61 127.062C111.423 127.379 111.134 127.641 110.742 127.846C110.35 128.042 109.869 128.14 109.3 128.14C108.628 128.14 107.933 128 107.214 127.72L107.424 126.264L107.606 126.152C107.895 126.395 108.217 126.591 108.572 126.74C108.927 126.88 109.239 126.95 109.51 126.95C109.762 126.95 109.958 126.889 110.098 126.768C110.238 126.637 110.308 126.483 110.308 126.306C110.308 126.11 110.219 125.951 110.042 125.83C109.874 125.709 109.603 125.573 109.23 125.424C108.847 125.256 108.535 125.107 108.292 124.976C108.049 124.836 107.839 124.64 107.662 124.388C107.494 124.136 107.41 123.823 107.41 123.45C107.41 122.843 107.639 122.349 108.096 121.966C108.553 121.574 109.174 121.378 109.958 121.378ZM49.1129 144L49.2249 139.94C49.2249 139.249 48.9309 138.904 48.3429 138.904C47.9229 138.904 47.4843 139.091 47.0269 139.464L46.9849 141.144L47.0689 144H45.2069L45.3189 139.94C45.3283 139.604 45.2536 139.347 45.0949 139.17C44.9456 138.993 44.7263 138.904 44.4369 138.904C44.0263 138.904 43.5736 139.1 43.0789 139.492V141.13L43.1629 144H41.3149L41.4129 141.312L41.3429 137.616L43.0929 137.462V138.414H43.1909C43.7043 137.947 44.2689 137.611 44.8849 137.406C45.9303 137.406 46.5976 137.756 46.8869 138.456H46.9709C47.5029 137.961 48.1096 137.611 48.7909 137.406C49.5003 137.406 50.0369 137.569 50.4009 137.896C50.7743 138.213 50.9516 138.675 50.9329 139.282L50.8909 141.144L50.9749 144H49.1129ZM57.6479 140.976L53.8679 141.004C53.9519 142.171 54.5446 142.754 55.6459 142.754C56.2246 142.754 56.8686 142.591 57.5779 142.264L57.7319 142.362L57.4519 143.748C56.7426 144.009 56.0752 144.14 55.4499 144.14C54.4232 144.14 53.6159 143.841 53.0279 143.244C52.4492 142.647 52.1599 141.821 52.1599 140.766C52.1599 139.721 52.4446 138.895 53.0139 138.288C53.5832 137.672 54.3532 137.364 55.3239 137.364C56.1546 137.364 56.7939 137.593 57.2419 138.05C57.6992 138.498 57.9279 139.128 57.9279 139.94C57.9279 140.155 57.9046 140.425 57.8579 140.752L57.6479 140.976ZM56.3039 139.73C56.3039 139.357 56.2199 139.077 56.0519 138.89C55.8839 138.694 55.6366 138.596 55.3099 138.596C54.9459 138.596 54.6426 138.717 54.3999 138.96C54.1572 139.193 53.9939 139.534 53.9099 139.982L56.2759 139.926L56.3039 139.73ZM64.6434 141.13L64.6854 142.306C64.6854 142.465 64.7041 142.577 64.7414 142.642C64.7881 142.698 64.8674 142.726 64.9794 142.726C65.0821 142.726 65.2081 142.707 65.3574 142.67L65.4834 142.782L65.3294 143.762C65.0121 143.958 64.6668 144.075 64.2934 144.112C64.0041 144.084 63.7614 143.986 63.5654 143.818C63.3694 143.65 63.2341 143.421 63.1594 143.132H63.0474C62.5901 143.552 62.1234 143.874 61.6474 144.098C60.7328 144.098 60.0234 143.809 59.5194 143.23C59.0154 142.642 58.7634 141.83 58.7634 140.794C58.7634 139.693 59.0528 138.848 59.6314 138.26C60.2101 137.672 61.0128 137.378 62.0394 137.378C62.3101 137.378 62.6088 137.406 62.9354 137.462L62.9074 134.312L64.7554 134.172L64.6434 141.13ZM61.9134 138.638C60.9801 138.638 60.5134 139.231 60.5134 140.416C60.5134 141.153 60.6254 141.709 60.8494 142.082C61.0734 142.455 61.4001 142.642 61.8294 142.642C62.2401 142.642 62.6181 142.451 62.9634 142.068L62.9914 141.298L62.9494 138.89C62.5854 138.722 62.2401 138.638 61.9134 138.638ZM66.7066 141.312L66.6366 137.616L68.4706 137.462L68.3866 141.13L68.4706 144H66.6086L66.7066 141.312ZM67.5886 134.298C67.8779 134.298 68.1019 134.382 68.2606 134.55C68.4286 134.718 68.5126 134.951 68.5126 135.25C68.5126 135.567 68.4239 135.819 68.2466 136.006C68.0692 136.193 67.8266 136.286 67.5186 136.286C67.2106 136.286 66.9726 136.202 66.8046 136.034C66.6459 135.866 66.5666 135.628 66.5666 135.32C66.5666 135.012 66.6552 134.765 66.8326 134.578C67.0192 134.391 67.2712 134.298 67.5886 134.298ZM72.905 137.364C73.213 137.364 73.5163 137.397 73.815 137.462C74.123 137.518 74.3936 137.602 74.627 137.714L74.319 139.198L74.165 139.268C73.689 139.007 73.2643 138.876 72.891 138.876C72.4616 138.876 72.1303 139.03 71.897 139.338C71.6636 139.646 71.547 140.085 71.547 140.654C71.547 141.307 71.673 141.807 71.925 142.152C72.177 142.497 72.5363 142.67 73.003 142.67C73.423 142.67 73.8896 142.553 74.403 142.32L74.543 142.432L74.361 143.874C73.801 144.051 73.227 144.14 72.639 144.14C71.743 144.14 71.043 143.851 70.539 143.272C70.035 142.684 69.783 141.867 69.783 140.822C69.783 139.739 70.0583 138.895 70.609 138.288C71.1596 137.672 71.925 137.364 72.905 137.364ZM78.043 137.364C78.7616 137.364 79.3216 137.527 79.723 137.854C80.1336 138.171 80.339 138.619 80.339 139.198C80.339 139.366 80.311 139.898 80.255 140.794C80.2456 141.055 80.2316 141.326 80.213 141.606C80.1943 141.877 80.185 142.11 80.185 142.306C80.185 142.465 80.2083 142.577 80.255 142.642C80.3016 142.698 80.3856 142.726 80.507 142.726C80.6003 142.726 80.7216 142.707 80.871 142.67L81.011 142.782L80.843 143.762C80.5443 143.958 80.2036 144.075 79.821 144.112C79.541 144.084 79.3076 143.986 79.121 143.818C78.9343 143.641 78.8083 143.398 78.743 143.09H78.645C78.1783 143.585 77.6976 143.93 77.203 144.126C76.531 144.117 76.0036 143.939 75.621 143.594C75.2383 143.249 75.047 142.777 75.047 142.18C75.047 141.713 75.1636 141.349 75.397 141.088C75.6396 140.817 76.0036 140.635 76.489 140.542L78.631 140.136V139.562C78.631 138.955 78.3323 138.652 77.735 138.652C77.4456 138.652 77.1376 138.717 76.811 138.848C76.4936 138.979 76.1343 139.184 75.733 139.464L75.593 139.38L75.383 138.148C75.7843 137.896 76.2136 137.705 76.671 137.574C77.1283 137.434 77.5856 137.364 78.043 137.364ZM77.133 141.396C76.9836 141.433 76.8716 141.499 76.797 141.592C76.7316 141.676 76.699 141.807 76.699 141.984C76.699 142.227 76.7643 142.418 76.895 142.558C77.0256 142.689 77.2076 142.754 77.441 142.754C77.805 142.754 78.1876 142.539 78.589 142.11L78.617 141.074L77.133 141.396ZM89.9372 144L90.0492 139.94C90.0492 139.249 89.7552 138.904 89.1672 138.904C88.7472 138.904 88.3085 139.091 87.8512 139.464L87.8092 141.144L87.8932 144H86.0312L86.1432 139.94C86.1525 139.604 86.0778 139.347 85.9192 139.17C85.7698 138.993 85.5505 138.904 85.2612 138.904C84.8505 138.904 84.3978 139.1 83.9032 139.492V141.13L83.9872 144H82.1392L82.2372 141.312L82.1672 137.616L83.9172 137.462V138.414H84.0152C84.5285 137.947 85.0932 137.611 85.7092 137.406C86.7545 137.406 87.4218 137.756 87.7112 138.456H87.7952C88.3272 137.961 88.9338 137.611 89.6152 137.406C90.3245 137.406 90.8612 137.569 91.2252 137.896C91.5985 138.213 91.7758 138.675 91.7572 139.282L91.7152 141.144L91.7992 144H89.9372ZM98.4721 140.976L94.6921 141.004C94.7761 142.171 95.3688 142.754 96.4701 142.754C97.0488 142.754 97.6928 142.591 98.4021 142.264L98.5561 142.362L98.2761 143.748C97.5668 144.009 96.8995 144.14 96.2741 144.14C95.2475 144.14 94.4401 143.841 93.8521 143.244C93.2735 142.647 92.9841 141.821 92.9841 140.766C92.9841 139.721 93.2688 138.895 93.8381 138.288C94.4075 137.672 95.1775 137.364 96.1481 137.364C96.9788 137.364 97.6181 137.593 98.0661 138.05C98.5235 138.498 98.7521 139.128 98.7521 139.94C98.7521 140.155 98.7288 140.425 98.6821 140.752L98.4721 140.976ZM97.1281 139.73C97.1281 139.357 97.0441 139.077 96.8761 138.89C96.7081 138.694 96.4608 138.596 96.1341 138.596C95.7701 138.596 95.4668 138.717 95.2241 138.96C94.9815 139.193 94.8181 139.534 94.7341 139.982L97.1001 139.926L97.1281 139.73ZM104.04 139.94C104.049 139.613 103.974 139.361 103.816 139.184C103.666 138.997 103.447 138.904 103.158 138.904C102.738 138.904 102.29 139.105 101.814 139.506V141.13L101.898 144H100.036L100.134 141.312L100.064 137.616L101.828 137.462V138.414H101.926C102.439 137.947 102.999 137.611 103.606 137.406C104.315 137.406 104.856 137.569 105.23 137.896C105.603 138.213 105.78 138.675 105.762 139.282L105.72 141.144L105.804 144H103.928L104.04 139.94ZM110.078 142.628C110.376 142.628 110.689 142.549 111.016 142.39L111.17 142.53L110.988 143.636C110.512 143.879 110.026 144.028 109.532 144.084C108.272 143.953 107.642 143.337 107.642 142.236L107.712 141.074L107.698 138.666H106.83L106.76 138.568L106.858 137.546H107.684V136.468L109.378 135.922L109.504 136.034L109.462 137.546H111.128L111.184 137.644L111.1 138.666H109.434L109.35 141.802C109.35 142.101 109.406 142.315 109.518 142.446C109.63 142.567 109.816 142.628 110.078 142.628ZM114.783 137.364C115.735 137.364 116.463 137.644 116.967 138.204C117.471 138.764 117.723 139.571 117.723 140.626C117.723 141.765 117.452 142.637 116.911 143.244C116.369 143.841 115.59 144.14 114.573 144.14C113.621 144.14 112.893 143.86 112.389 143.3C111.885 142.74 111.633 141.933 111.633 140.878C111.633 139.739 111.903 138.871 112.445 138.274C112.986 137.667 113.765 137.364 114.783 137.364ZM114.657 138.624C114.209 138.624 113.882 138.773 113.677 139.072C113.481 139.371 113.383 139.851 113.383 140.514C113.383 141.373 113.485 141.984 113.691 142.348C113.896 142.712 114.232 142.894 114.699 142.894C115.147 142.894 115.469 142.749 115.665 142.46C115.87 142.161 115.973 141.676 115.973 141.004C115.973 140.155 115.865 139.548 115.651 139.184C115.445 138.811 115.114 138.624 114.657 138.624ZM121.183 137.378C121.817 137.378 122.415 137.485 122.975 137.7L122.723 139.072L122.499 139.142C122.228 138.965 121.957 138.829 121.687 138.736C121.416 138.643 121.178 138.596 120.973 138.596C120.749 138.596 120.571 138.657 120.441 138.778C120.31 138.89 120.245 139.03 120.245 139.198C120.245 139.394 120.329 139.553 120.497 139.674C120.674 139.795 120.949 139.931 121.323 140.08C121.696 140.229 122.004 140.374 122.247 140.514C122.489 140.654 122.695 140.85 122.863 141.102C123.04 141.345 123.129 141.648 123.129 142.012C123.129 142.385 123.031 142.735 122.835 143.062C122.648 143.379 122.359 143.641 121.967 143.846C121.575 144.042 121.094 144.14 120.525 144.14C119.853 144.14 119.157 144 118.439 143.72L118.649 142.264L118.831 142.152C119.12 142.395 119.442 142.591 119.797 142.74C120.151 142.88 120.464 142.95 120.735 142.95C120.987 142.95 121.183 142.889 121.323 142.768C121.463 142.637 121.533 142.483 121.533 142.306C121.533 142.11 121.444 141.951 121.267 141.83C121.099 141.709 120.828 141.573 120.455 141.424C120.072 141.256 119.759 141.107 119.517 140.976C119.274 140.836 119.064 140.64 118.887 140.388C118.719 140.136 118.635 139.823 118.635 139.45C118.635 138.843 118.863 138.349 119.321 137.966C119.778 137.574 120.399 137.378 121.183 137.378ZM124.978 142.11C125.267 142.11 125.491 142.194 125.65 142.362C125.818 142.53 125.902 142.763 125.902 143.062C125.902 143.379 125.813 143.631 125.636 143.818C125.459 144.005 125.216 144.098 124.908 144.098C124.6 144.098 124.362 144.014 124.194 143.846C124.035 143.678 123.956 143.44 123.956 143.132C123.956 142.824 124.045 142.577 124.222 142.39C124.409 142.203 124.661 142.11 124.978 142.11Z" fill="white"/>
<defs>
<filter id="filter0_b_206:37157" x="3" y="67" width="161" height="97" filterUnits="userSpaceOnUse" color-interpolation-filters="sRGB">
<feFlood flood-opacity="0" result="BackgroundImageFix"/>
<feGaussianBlur in="BackgroundImage" stdDeviation="5"/>
<feComposite in2="SourceAlpha" operator="in" result="effect1_backgroundBlur_206:37157"/>
<feBlend mode="normal" in="SourceGraphic" in2="effect1_backgroundBlur_206:37157" result="shape"/>
</filter>
<linearGradient id="paint0_linear_206:37157" x1="52.9772" y1="51.5614" x2="52.9772" y2="65.5389" gradientUnits="userSpaceOnUse">
<stop stop-color="white"/>
<stop offset="1" stop-color="white" stop-opacity="0"/>
</linearGradient>
<linearGradient id="paint1_linear_206:37157" x1="98.348" y1="21.5134" x2="98.348" y2="35.4908" gradientUnits="userSpaceOnUse">
<stop stop-color="white"/>
<stop offset="1" stop-color="white" stop-opacity="0"/>
</linearGradient>
<linearGradient id="paint2_linear_206:37157" x1="61.9077" y1="28.0757" x2="61.9077" y2="42.0532" gradientUnits="userSpaceOnUse">
<stop stop-color="white"/>
<stop offset="1" stop-color="white" stop-opacity="0"/>
</linearGradient>
<linearGradient id="paint3_linear_206:37157" x1="96.1815" y1="68.0317" x2="96.1815" y2="82.0092" gradientUnits="userSpaceOnUse">
<stop stop-color="white"/>
<stop offset="1" stop-color="white" stop-opacity="0"/>
</linearGradient>
<linearGradient id="paint4_linear_206:37157" x1="113.515" y1="40.1241" x2="113.515" y2="54.1016" gradientUnits="userSpaceOnUse">
<stop stop-color="white"/>
<stop offset="1" stop-color="white" stop-opacity="0"/>
</linearGradient>
<clipPath id="clip0_206:37157">
<rect width="24.8367" height="24.8367" fill="white" transform="translate(44.9288 43.7861)"/>
</clipPath>
<clipPath id="clip1_206:37157">
<rect width="24.8367" height="24.8367" fill="white" transform="translate(105.123 14.465) rotate(90)"/>
</clipPath>
<clipPath id="clip2_206:37157">
<rect width="24.8367" height="24.8367" fill="white" transform="translate(58.2614 38.2311) rotate(-123.202)"/>
</clipPath>
<clipPath id="clip3_206:37157">
<rect width="24.8367" height="24.8367" fill="white" transform="translate(97.6241 78.238) rotate(-151.267)"/>
</clipPath>
<clipPath id="clip4_206:37157">
<rect width="24.8367" height="24.8367" fill="white" transform="translate(102.122 37.9914) rotate(-24.5374)"/>
</clipPath>
</defs>
</svg>
