<svg width="167" height="167" viewBox="0 0 167 167" fill="none" xmlns="http://www.w3.org/2000/svg">
<mask id="mask0_206:37117" style="mask-type:alpha" maskUnits="userSpaceOnUse" x="0" y="0" width="167" height="167">
<rect x="1" y="1" width="165" height="165" rx="8" fill="#5988D6" stroke="#EDE6FC" stroke-opacity="0.3"/>
</mask>
<g mask="url(#mask0_206:37117)">
<rect x="1" y="1" width="165" height="165" rx="8" fill="#7AC2D9" stroke="#EDE6FC" stroke-opacity="0.3"/>
<path d="M114.178 7.39374H46.8591C45.3008 7.39374 44.0375 8.65702 44.0375 10.2154V100.94C44.0375 102.498 45.3008 103.762 46.8591 103.762H114.178C115.737 103.762 117 102.498 117 100.94V10.2154C117 8.65702 115.737 7.39374 114.178 7.39374Z" fill="#455A64"/>
<path d="M112.114 11.9474H48.9236V97.1406H112.114V11.9474Z" fill="white"/>
<path d="M112.114 97.1406C112.114 96.5595 112.086 62.3901 112.047 11.9474L112.114 12.0145H48.9292L49.0018 11.9418C49.0018 43.7171 49.0018 73.1541 49.0018 97.149L48.9432 97.0903L112.133 97.149L48.9432 97.2077H48.8817V97.149C48.8817 73.1681 48.8817 43.7311 48.8817 11.9558V11.8832H48.9599H112.145H112.209V11.9614C112.142 62.3901 112.114 96.5595 112.114 97.1406Z" fill="#263238"/>
<rect x="55.7096" y="19.6827" width="8.00073" height="8.00073" fill="#FF725E"/>
<path d="M90.1723 20.1971H79.3273V22.8819H90.1723V20.1971Z" fill="#E0E0E0"/>
<path d="M106.074 21.8901C106.074 21.932 103.107 21.9627 99.4473 21.9627C95.7876 21.9627 92.8235 21.932 92.8235 21.8901C92.8235 21.8482 95.7876 21.8174 99.4473 21.8174C103.107 21.8174 106.074 21.851 106.074 21.8901Z" fill="#263238"/>
<path d="M105.839 25.1112C105.839 25.1503 99.9054 25.1838 92.5888 25.1838C85.2721 25.1838 79.3384 25.1503 79.3384 25.1112C79.3384 25.0721 85.2693 25.0386 92.5888 25.0386C99.9082 25.0386 105.839 25.0693 105.839 25.1112Z" fill="#263238"/>
<path d="M105.839 28.2653C105.839 28.3044 99.9054 28.3379 92.5888 28.3379C85.2721 28.3379 79.3384 28.3044 79.3384 28.2653C79.3384 28.2262 85.2693 28.1926 92.5888 28.1926C99.9082 28.1926 105.839 28.2234 105.839 28.2653Z" fill="#263238"/>
<path d="M109.96 36.6743C109.96 36.7134 96.7765 36.7469 80.5201 36.7469C64.2637 36.7469 51.0831 36.7134 51.0831 36.6743C51.0831 36.6351 64.2609 36.6016 80.5257 36.6016C96.7905 36.6016 109.96 36.6324 109.96 36.6743Z" fill="#263238"/>
<path d="M109.96 84.3009C109.96 84.34 96.7765 84.3735 80.5201 84.3735C64.2637 84.3735 51.0775 84.34 51.0775 84.3009C51.0775 84.2617 64.2553 84.2282 80.5201 84.2282C96.7849 84.2282 109.96 84.2589 109.96 84.3009Z" fill="#263238"/>
<path d="M74.0975 41.4962H55.9302V44.9044H74.0975V41.4962Z" fill="#E0E0E0"/>
<path d="M63.7944 89.1647H55.9302V92.573H63.7944V89.1647Z" fill="#E0E0E0"/>
<path d="M90.1975 89.1647H82.3333V92.573H90.1975V89.1647Z" fill="#E0E0E0"/>
<path d="M76.9721 91.5225C76.9721 91.5644 74.5165 91.5952 71.4881 91.5952C68.4598 91.5952 66.0042 91.5644 66.0042 91.5225C66.0042 91.4806 68.457 91.4499 71.4881 91.4499C74.5193 91.4499 76.9721 91.4834 76.9721 91.5225Z" fill="#263238"/>
<path d="M105.211 91.5225C105.211 91.5644 102.755 91.5952 99.7267 91.5952C96.6983 91.5952 94.2399 91.5644 94.2399 91.5225C94.2399 91.4806 96.6955 91.4499 99.7267 91.4499C102.758 91.4499 105.211 91.4834 105.211 91.5225Z" fill="#263238"/>
<path d="M104.56 50.0336C104.56 50.0727 93.7984 50.1063 80.534 50.1063C67.2697 50.1063 56.5084 50.0727 56.5084 50.0336C56.5084 49.9945 67.2669 49.961 80.534 49.961C93.8012 49.961 104.56 49.9945 104.56 50.0336Z" fill="#263238"/>
<path d="M105.496 53.9224C105.496 53.9643 94.522 53.9951 80.9923 53.9951C67.4625 53.9951 56.4889 53.9643 56.4889 53.9224C56.4889 53.8805 67.4569 53.8498 80.9923 53.8498C94.5276 53.8498 105.496 53.8833 105.496 53.9224Z" fill="#263238"/>
<path d="M80.2435 57.814C80.2435 57.8531 74.7987 57.8867 68.0855 57.8867C61.3722 57.8867 55.9274 57.8531 55.9274 57.814C55.9274 57.7749 61.3695 57.7414 68.0855 57.7414C74.8015 57.7414 80.2435 57.7777 80.2435 57.814Z" fill="#263238"/>
<path d="M105.132 71.9249L104.973 71.978C104.864 72.0115 104.694 72.0646 104.495 72.1232C103.883 72.3055 103.259 72.4511 102.629 72.5591C102.168 72.64 101.701 72.6839 101.232 72.6904C100.68 72.7027 100.128 72.6339 99.5954 72.4864C98.9792 72.3109 98.4115 71.9965 97.9359 71.5673C97.401 71.0789 97.0492 70.4225 96.9386 69.7067C96.8806 69.3184 96.9288 68.9216 97.0782 68.5585C97.2411 68.1818 97.51 67.8605 97.8521 67.6338C98.0286 67.5103 98.2281 67.4234 98.4387 67.3783C98.6494 67.3332 98.8669 67.3308 99.0785 67.3712C99.2926 67.4238 99.494 67.5188 99.6708 67.6506C99.8434 67.7955 99.9882 67.9706 100.098 68.1674C100.301 68.5768 100.403 69.0291 100.394 69.486C100.398 69.9541 100.312 70.4186 100.143 70.8549C99.7782 71.759 99.1771 72.5483 98.4024 73.1401C98.0034 73.4474 97.568 73.7045 97.1062 73.9056C96.6304 74.1051 96.1309 74.2422 95.62 74.3135C95.0979 74.3895 94.5671 74.3829 94.0471 74.2939C93.7828 74.2521 93.5222 74.1895 93.2677 74.1068C93.0131 74.0131 92.7648 73.9029 92.5245 73.7771C92.0452 73.5097 91.6183 73.1576 91.2646 72.7378C90.9001 72.3086 90.6442 71.7978 90.5187 71.2488C90.3837 70.6843 90.454 70.0901 90.717 69.5726C90.9803 69.0499 91.4153 68.6337 91.9491 68.3937C92.2194 68.2712 92.5166 68.2202 92.8123 68.2456C93.1063 68.2717 93.3875 68.378 93.6253 68.5529C94.0808 68.9108 94.3946 69.4186 94.5108 69.9861C94.6393 70.5295 94.6696 71.0915 94.6003 71.6455C94.5452 72.1887 94.4251 72.7233 94.2427 73.2379C93.8978 74.2493 93.2916 75.1514 92.4854 75.8528C91.702 76.5254 90.7219 76.9263 89.6917 76.9954C88.7402 77.0923 87.7852 76.8473 86.9979 76.3041C86.2106 75.761 85.6424 74.9553 85.3951 74.0313C85.1436 73.2063 85.177 72.3207 85.4901 71.517C85.6373 71.1341 85.8913 70.8015 86.222 70.5588C86.3863 70.4361 86.5781 70.3555 86.7808 70.3241C86.9794 70.2948 87.1821 70.3332 87.3562 70.4331C87.5157 70.5369 87.6491 70.6761 87.746 70.8399C87.8429 71.0037 87.9007 71.1876 87.915 71.3773C87.9616 71.7245 87.9475 72.0771 87.8731 72.4194C87.7653 73.0443 87.5775 73.6527 87.3143 74.2297C86.8866 75.153 86.282 75.9834 85.5347 76.6741C85.0658 77.1124 84.5372 77.482 83.9647 77.7721C83.8165 77.8486 83.6645 77.9176 83.5093 77.9788L83.3529 78.0403L83.5038 77.9648C83.6043 77.9145 83.7608 77.8531 83.9508 77.7441C84.5146 77.4444 85.0345 77.0684 85.4957 76.6267C86.6965 75.5004 87.5027 74.0173 87.7949 72.397C87.8644 72.0635 87.8767 71.7206 87.8312 71.3829C87.8176 71.2091 87.7648 71.0406 87.6767 70.8901C87.5886 70.7396 87.4676 70.6111 87.3227 70.5141C87.1667 70.429 86.9877 70.3958 86.8115 70.4191C86.6302 70.4521 86.459 70.5267 86.3114 70.637C85.9981 70.8692 85.7577 71.1862 85.6186 71.5505C85.3158 72.3327 85.2872 73.1945 85.5375 73.995C85.7811 74.8583 86.3062 75.6155 87.0294 76.1461C87.8116 76.6898 88.7596 76.9419 89.7085 76.8585C90.7069 76.7876 91.6556 76.3956 92.4128 75.7411C93.199 75.0554 93.7891 74.1733 94.1225 73.1848C94.3018 72.6802 94.42 72.1559 94.4745 71.6232C94.5425 71.0858 94.5122 70.5406 94.3851 70.014C94.2745 69.4791 93.9775 69.0009 93.547 68.6647C93.3274 68.5061 93.0693 68.4093 92.7996 68.3843C92.5299 68.3592 92.2584 68.4068 92.0133 68.5222C91.5088 68.7497 91.0982 69.1444 90.8511 69.6397C90.6044 70.1263 90.5391 70.6849 90.6667 71.2153C90.802 71.733 91.0438 72.2169 91.3767 72.6359C91.7096 73.0548 92.1262 73.3998 92.6 73.6486C92.8325 73.7696 93.0723 73.8759 93.318 73.9671C93.5653 74.0475 93.8184 74.1092 94.075 74.1515C94.5814 74.2361 95.0977 74.2427 95.606 74.171C96.1053 74.1022 96.5936 73.9689 97.0587 73.7743C97.5102 73.5782 97.9361 73.3277 98.327 73.0284C99.0845 72.4497 99.6722 71.6777 100.028 70.7934C100.193 70.3724 100.278 69.9242 100.277 69.472C100.287 69.0357 100.191 68.6034 99.9976 68.2121C99.8947 68.0298 99.7615 67.8664 99.6037 67.7288C99.4387 67.5982 99.2485 67.5031 99.045 67.4494C98.8486 67.4118 98.6466 67.4136 98.4509 67.4549C98.2552 67.4961 98.0697 67.5759 97.9052 67.6897C97.5799 67.9036 97.3237 68.2074 97.1676 68.5641C97.0258 68.9096 96.9786 69.2866 97.0307 69.6564C97.1362 70.3507 97.4752 70.9883 97.9918 71.4639C98.4549 71.8856 99.0081 72.1961 99.6093 72.3719C100.134 72.5211 100.678 72.5927 101.224 72.5842C101.684 72.5812 102.142 72.5419 102.596 72.4669C103.226 72.3654 103.85 72.2293 104.465 72.059L104.945 71.9277L105.132 71.9249Z" fill="#263238"/>
<path d="M91.0635 6.5752H69.9768V14.6377H91.0635V6.5752Z" fill="#E0E0E0"/>
<path d="M91.0607 14.6349C91.0607 14.6349 91.0607 14.5846 91.0607 14.4897C91.0607 14.3947 91.0607 14.2522 91.0607 14.0706C91.0607 13.699 91.0607 13.1627 91.0607 12.4698C91.0607 11.073 91.0607 9.06992 91.0327 6.57517L91.083 6.62545L69.9768 6.65339L70.0494 6.58076C70.0494 9.39678 70.0494 12.1206 70.0494 14.6405L69.9796 14.5707L85.0654 14.6042L89.4627 14.6238H90.6416H90.9489H91.0551C91.0225 14.6265 90.9898 14.6265 90.9573 14.6238H90.6584H89.4934L85.1129 14.6433L69.9684 14.674H69.8986V14.6042C69.8986 12.0899 69.8986 9.36046 69.8986 6.54444L69.9712 6.4718L91.0551 6.49415H91.1054V6.54444C91.1054 9.05875 91.0858 11.0702 91.0802 12.4698C91.0802 13.1571 91.0802 13.6907 91.0802 14.0594C91.0802 14.2354 91.0802 14.3723 91.0802 14.4701C91.0777 14.5254 91.0711 14.5805 91.0607 14.6349Z" fill="#263238"/>
<path d="M40.4338 118.741L38.5788 125.318C38.5788 125.318 44.4818 129.458 44.2555 130.707L31.684 127.483L34.1592 117.113L40.4338 118.741Z" fill="#455A64"/>
<path d="M34.8268 123.764C34.6954 123.771 34.571 123.826 34.4776 123.919C34.3843 124.012 34.3286 124.136 34.3212 124.267C34.3217 124.399 34.3726 124.526 34.4635 124.621C34.5544 124.717 34.6784 124.774 34.8101 124.781C34.95 124.774 35.082 124.714 35.1798 124.613C35.2776 124.513 35.3341 124.379 35.3381 124.239C35.3129 123.974 35.0252 123.697 34.7793 123.762" fill="#E0E0E0"/>
<g opacity="0.6">
<path opacity="0.6" d="M31.6783 127.483L31.9577 126.449L43.9091 129.927C43.9091 129.927 44.4092 130.318 44.2471 130.707L31.6783 127.483Z" fill="white"/>
</g>
<path d="M38.791 125.304C38.7743 125.368 38.4586 125.318 38.1066 125.443C37.7546 125.569 37.5311 125.79 37.4808 125.751C37.4305 125.712 37.6093 125.371 38.0395 125.228C38.4697 125.086 38.8273 125.251 38.791 125.304Z" fill="#263238"/>
<path d="M39.9811 126.203C39.9811 126.267 39.7017 126.307 39.4223 126.519C39.143 126.731 39.02 126.997 38.9614 126.98C38.9027 126.963 38.9474 126.594 39.2938 126.337C39.6402 126.08 39.995 126.142 39.9811 126.203Z" fill="#263238"/>
<path d="M40.3359 128.011C40.2772 128.011 40.2688 127.675 40.5091 127.371C40.7494 127.066 41.0678 127.002 41.0846 127.061C41.1014 127.12 40.8751 127.259 40.6823 127.513C40.4895 127.768 40.3974 128.022 40.3359 128.011Z" fill="#263238"/>
<path d="M39.0703 123.759C39.0312 123.809 38.7686 123.65 38.4166 123.586C38.0646 123.521 37.7657 123.563 37.7461 123.502C37.7265 123.44 38.0422 123.281 38.4585 123.362C38.8747 123.443 39.101 123.708 39.0703 123.759Z" fill="#263238"/>
<path d="M36.0224 120.289L35.7431 127.128C35.7431 127.128 42.4311 129.732 42.4954 131L29.5299 130.897L29.5579 120.219L36.0224 120.289Z" fill="#455A64"/>
<path d="M31.7258 126.522C31.601 126.564 31.4952 126.65 31.4272 126.763C31.3592 126.876 31.3333 127.009 31.3542 127.139C31.3849 127.267 31.4641 127.378 31.5751 127.449C31.686 127.52 31.8202 127.545 31.9493 127.519C32.0828 127.476 32.196 127.386 32.2676 127.266C32.3391 127.145 32.3641 127.003 32.3376 126.865C32.2931 126.735 32.1987 126.627 32.0753 126.566C31.9518 126.505 31.8091 126.495 31.6783 126.538" fill="#E0E0E0"/>
<g opacity="0.6">
<path opacity="0.6" d="M29.5188 130.897L29.5635 129.821L41.9786 130.321C41.9786 130.321 42.5541 130.584 42.4842 131L29.5188 130.897Z" fill="white"/>
</g>
<path d="M35.9414 127.061C35.9414 127.125 35.6229 127.153 35.31 127.357C34.9971 127.561 34.8267 127.835 34.7708 127.81C34.715 127.784 34.81 127.41 35.1927 127.167C35.5754 126.924 35.9554 127.005 35.9414 127.061Z" fill="#263238"/>
<path d="M37.2964 127.65C37.3104 127.715 37.0366 127.821 36.8187 128.095C36.6008 128.368 36.5394 128.653 36.4751 128.653C36.4108 128.653 36.3745 128.282 36.6511 127.949C36.9277 127.617 37.2964 127.589 37.2964 127.65Z" fill="#263238"/>
<path d="M38.0563 129.324C38.0004 129.324 37.9138 129.014 38.0786 128.659C38.2435 128.304 38.5424 128.164 38.5675 128.22C38.5927 128.276 38.4083 128.463 38.2882 128.757C38.168 129.05 38.1205 129.318 38.0563 129.324Z" fill="#263238"/>
<path d="M35.838 125.496C35.8129 125.555 35.5223 125.463 35.1647 125.496C34.8071 125.53 34.5278 125.633 34.4942 125.577C34.4607 125.522 34.7317 125.298 35.1536 125.273C35.5754 125.248 35.8715 125.446 35.838 125.496Z" fill="#263238"/>
<path d="M28.0018 70.2347V75.6572L29.4182 96.7299C29.4182 96.7299 28.5381 106.949 27.9962 112.721C27.524 117.733 28.2951 126.457 28.2951 126.457H36.556L39.5089 97.3557L41.3416 79.1968L44.5292 70.9359L28.0018 70.2347Z" fill="#263238"/>
<path d="M49.7367 71.179L48.1555 100.574L39.8052 122.585L39.4224 123.91L34.4916 122.689L38.1597 70.6063L49.7367 71.179Z" fill="#263238"/>
<path d="M41.3052 79.4064C41.3082 79.4473 41.3082 79.4884 41.3052 79.5293C41.3052 79.6187 41.3052 79.736 41.3052 79.8869C41.3052 80.211 41.2829 80.6747 41.2633 81.267C41.2326 82.4626 41.1488 84.1947 41.0287 86.3319C40.78 90.6034 40.3163 96.5037 39.5899 102.993C38.8636 109.483 38.0897 115.347 37.5142 119.588C37.2349 121.7 36.9862 123.412 36.8214 124.616C36.7376 125.203 36.6705 125.661 36.6258 125.983C36.6035 126.131 36.5839 126.248 36.57 126.335C36.565 126.375 36.5576 126.415 36.5476 126.455C36.5439 126.415 36.5439 126.375 36.5476 126.335C36.5476 126.245 36.57 126.128 36.5867 125.977C36.6258 125.656 36.6817 125.198 36.7543 124.608C36.908 123.415 37.1287 121.7 37.3997 119.579C37.9584 115.336 38.7183 109.475 39.4307 102.985C40.1431 96.4953 40.6348 90.6034 40.9113 86.3319C41.0454 84.1975 41.146 82.4682 41.1907 81.2725C41.2214 80.6803 41.2438 80.2193 41.2606 79.8953C41.2606 79.7444 41.2773 79.6159 41.2829 79.5377C41.2855 79.4932 41.293 79.4492 41.3052 79.4064Z" fill="#455A64"/>
<path d="M41.8334 72.0534C41.8312 72.1369 41.8044 72.2178 41.7565 72.2862C41.7085 72.3545 41.6414 72.4072 41.5637 72.4376C41.4859 72.4681 41.4009 72.4749 41.3193 72.4573C41.2376 72.4397 41.163 72.3984 41.1048 72.3385C41.0465 72.2787 41.0071 72.2031 40.9916 72.121C40.9761 72.039 40.9852 71.9542 41.0176 71.8772C41.05 71.8003 41.1045 71.7346 41.174 71.6884C41.2436 71.6422 41.3252 71.6176 41.4087 71.6176C41.4652 71.6183 41.521 71.6301 41.573 71.6524C41.6249 71.6747 41.6719 71.707 41.7113 71.7475C41.7508 71.788 41.7818 71.8358 41.8028 71.8883C41.8237 71.9408 41.8341 71.9969 41.8334 72.0534Z" fill="#455A64"/>
<path d="M49.0884 76.1601C48.8687 76.0029 48.673 75.8147 48.5073 75.6014C48.0799 75.0971 47.7297 74.5322 47.4681 73.9252C47.2042 73.3203 47.0292 72.6804 46.9484 72.0255C46.9018 71.755 46.8952 71.4792 46.9289 71.2069C46.954 71.2069 46.9708 71.517 47.0574 72.0087C47.27 73.2873 47.7971 74.4931 48.5911 75.5176C48.8928 75.9199 49.1052 76.1406 49.0884 76.1601Z" fill="#455A64"/>
<path d="M48.1024 43.7171C48.1024 43.7171 49.6836 44.3345 50.4128 46.6477C50.9212 48.2568 53.3042 60.2361 53.3042 60.2361L49.9826 62.4236L48.636 51.2209L48.1024 43.7171Z" fill="#E0E0E0"/>
<path d="M35.4805 37.9929L34.4412 39.8367C34.4412 39.8367 27.4961 43.3679 27.5213 43.7171C27.5213 43.7171 27.9068 56.8949 27.9794 66.5638C28.0074 70.2151 27.8733 73.5704 27.8006 75.1823C27.6079 79.4147 27.457 95.8555 27.457 95.8555L52.6002 95.2605L48.0995 43.7227L44.5516 42.1694L44.099 41.2391L42.4703 39.9149L35.4805 37.9929Z" fill="#E0E0E0"/>
<path d="M46.4988 95.4002C46.5025 95.3621 46.5025 95.3237 46.4988 95.2856C46.4988 95.2046 46.4987 95.0956 46.4848 94.9588C46.468 94.6598 46.4457 94.2352 46.4177 93.696C46.3507 92.5786 46.2585 91.0057 46.1384 89.0501C45.9009 85.1222 45.5796 79.7081 45.2137 73.7268C44.8477 67.7456 44.5571 62.3314 44.3309 58.4007C44.2275 56.4451 44.1437 54.8611 44.0822 53.7548C44.0515 53.2128 44.0291 52.791 44.0124 52.4921C44.0124 52.3552 43.9956 52.2462 43.99 52.1652C43.9943 52.1281 43.9943 52.0906 43.99 52.0535C43.9869 52.0906 43.9869 52.128 43.99 52.1652C43.99 52.2462 43.99 52.3552 43.99 52.4949C43.99 52.791 44.0152 53.2156 44.0319 53.7576C44.071 54.8555 44.1437 56.4451 44.2331 58.4063C44.4202 62.3314 44.7136 67.7511 45.0712 73.738C45.4288 79.7248 45.7752 85.1362 46.0406 89.0557C46.1747 91.0113 46.2864 92.5925 46.3618 93.6988C46.4038 94.2408 46.4373 94.6626 46.4596 94.9588L46.4876 95.2884C46.4879 95.3259 46.4917 95.3633 46.4988 95.4002Z" fill="#263238"/>
<path d="M42.4731 39.9177L43.0598 43.9518L44.1046 52.0534L39.551 44.2395L35.5979 39.0601L42.11 43.6249L42.1938 39.8395" fill="#FF725E"/>
<path d="M34.4105 40.0825C34.4433 40.1911 34.4854 40.2968 34.5362 40.3982L34.9245 41.2726L36.3382 44.3457L36.3549 44.3848H37.3495L37.3048 44.2563L36.6063 44.815L36.5421 44.8681L36.6008 44.9268L37.9278 46.223L42.1853 50.3549L43.4872 51.5925C43.6325 51.7294 43.7665 51.8383 43.8476 51.9249C43.8876 51.9655 43.9316 52.002 43.9789 52.0339C43.9789 52.0339 43.9453 51.9836 43.8671 51.9026L43.5403 51.5701L42.2719 50.2962L38.0451 46.1336L36.7153 44.8402V44.9491L37.3942 44.368L37.5478 44.2395H36.3968L36.4583 44.2786C35.8632 43.0382 35.3604 41.9878 34.9944 41.2279L34.5726 40.3703C34.5261 40.2703 34.4719 40.1741 34.4105 40.0825Z" fill="#263238"/>
<path d="M44.099 52.0534C44.1441 51.8888 44.175 51.7205 44.1912 51.5506C44.2415 51.2014 44.3057 50.7376 44.384 50.1761C44.5404 49.0139 44.7471 47.4103 44.965 45.6336L45.1662 43.9797V43.9154L45.1019 43.8987L43.9621 43.6193V43.7534L45.1103 43.5495H45.1857L45.1522 43.4796C44.8449 42.8091 44.5935 42.2532 44.3979 41.8425C44.3141 41.6637 44.2415 41.5157 44.1828 41.3955C44.1612 41.3414 44.1321 41.2906 44.0962 41.2447C44.1074 41.3019 44.1262 41.3573 44.1521 41.4095L44.3365 41.8677L45.0461 43.5271L45.088 43.4461L43.9398 43.6333L43.6101 43.6864L43.9342 43.7674L45.074 44.0467L45.0181 43.9657C44.9539 44.4909 44.884 45.0469 44.8114 45.6196C44.5935 47.3936 44.4035 49.0027 44.275 50.1677C44.2163 50.7264 44.166 51.1958 44.1297 51.5478C44.1082 51.7154 44.0979 51.8844 44.099 52.0534Z" fill="#263238"/>
<path d="M40.2185 73.6151H40.0565L39.5704 73.6458L37.7154 73.7827L31.0721 74.2911H31.005V74.3582C31.1112 75.607 31.2285 76.9647 31.3514 78.3978C31.4129 79.113 31.4762 79.8468 31.5414 80.5993C31.5749 80.9764 31.6084 81.3563 31.6392 81.7391C31.6512 81.9362 31.682 82.1317 31.7314 82.3229C31.7897 82.5216 31.8783 82.71 31.994 82.8817C32.3705 83.3891 32.9314 83.7283 33.5556 83.8259C34.1432 83.8979 34.735 83.9287 35.3268 83.9181C36.4441 83.9212 37.5583 83.7994 38.6485 83.555C38.9066 83.492 39.1597 83.4098 39.4056 83.3091C39.5276 83.2581 39.6453 83.1974 39.7576 83.1275C39.8144 83.0895 39.8677 83.0465 39.9168 82.999C39.9619 82.9495 40.0039 82.8973 40.0425 82.8426C40.2803 82.404 40.4284 81.9225 40.4784 81.4262C40.5857 80.5542 40.6296 79.6756 40.6097 78.7973C40.5845 77.1882 40.4672 75.8919 40.3834 75.0007C40.3387 74.5537 40.2968 74.2073 40.2661 73.9726C40.2661 73.8609 40.2409 73.7743 40.2297 73.6933C40.2262 73.6631 40.2206 73.6333 40.213 73.6039C40.2087 73.6345 40.2087 73.6655 40.213 73.6961C40.213 73.7659 40.213 73.8525 40.2353 73.9754C40.2549 74.2213 40.2828 74.5649 40.3219 75.0035C40.389 75.9003 40.4867 77.1965 40.4979 78.7973C40.5134 79.6696 40.4639 80.5417 40.3499 81.4066C40.3004 81.8835 40.1571 82.3459 39.928 82.7671C39.7854 82.9642 39.5824 83.1094 39.3497 83.1806C39.1105 83.2789 38.8639 83.3583 38.6122 83.4181C37.535 83.6532 36.4349 83.7675 35.3324 83.7589C34.7498 83.7675 34.1674 83.7358 33.5892 83.6639C33.0039 83.576 32.4775 83.2595 32.1253 82.7839C32.0199 82.6292 31.938 82.4597 31.8822 82.281C31.8352 82.0982 31.8071 81.9109 31.7984 81.7223C31.7621 81.3396 31.7314 80.9596 31.6978 80.5853C31.6308 79.8338 31.5665 79.0963 31.5023 78.3811C31.3766 76.9479 31.2536 75.5874 31.1447 74.3442L31.0832 74.4168L37.6735 73.8553L39.5397 73.6849L40.037 73.6374C40.0979 73.6336 40.1585 73.6261 40.2185 73.6151Z" fill="#263238"/>
<g opacity="0.3">
<path opacity="0.3" d="M31.7453 82.1442C32.4549 83.9936 34.3099 84.0997 36.3018 83.8204C38.1763 83.541 39.981 83.1527 40.1207 82.6163C40.0704 83.5969 39.3497 84.3484 38.4445 84.7423C37.5255 85.0935 36.5388 85.232 35.5586 85.1474C34.5333 85.1027 33.6478 85.1474 32.8013 84.5635C31.9548 83.9796 31.7425 82.9879 31.7453 82.1442Z" fill="black"/>
</g>
<path d="M50.7619 74.1878C50.7547 74.1651 50.75 74.1416 50.7479 74.1179L50.7228 73.9168C50.7023 73.7305 50.6743 73.4707 50.6389 73.1373L50.3596 70.2654C50.1277 67.8405 49.8204 64.4881 49.4963 60.7865C49.1723 57.0849 48.8929 53.7297 48.7085 51.288C48.6163 50.0755 48.5465 49.0922 48.5074 48.4105C48.485 48.0697 48.4767 47.8071 48.4711 47.6255C48.4711 47.5445 48.4711 47.4774 48.4711 47.4215C48.4668 47.3994 48.4668 47.3766 48.4711 47.3545C48.5381 48.1395 49.0047 53.4782 49.6416 60.7641C49.9601 64.4602 50.2506 67.807 50.4602 70.2459C50.5579 71.45 50.6389 72.4277 50.6948 73.1206C50.72 73.4502 50.7395 73.7128 50.7535 73.9028C50.7535 73.9838 50.7535 74.0509 50.7535 74.1067C50.7602 74.1332 50.763 74.1605 50.7619 74.1878Z" fill="#263238"/>
<path d="M54.4077 60.5015C54.5134 60.8898 54.5522 61.2932 54.5223 61.6944C54.4636 62.3035 54.4357 63.8065 52.807 64.3205C51.1782 64.8345 50.3904 64.3456 49.8876 63.6556L49.6417 60.6636L51.3822 59.5126L54.4077 60.5015Z" fill="#E0E0E0"/>
<g opacity="0.3">
<path opacity="0.3" d="M40.7968 62.4236C40.7968 62.4236 36.6315 66.5387 33.3964 67.1337C30.1613 67.7288 29.0047 66.575 28.1443 63.6779L40.7968 62.4236Z" fill="black"/>
</g>
<path d="M27.5967 43.6138C27.5967 43.6138 24.9483 46.0694 25.7026 51.8747C26.401 57.2721 27.6581 64.7898 29.3008 65.6615C30.9435 66.5331 34.5334 66.0973 37.151 64.6138C39.7687 63.1304 47.3536 59.1215 47.3536 59.1215L44.2135 53.5341L34.0976 57.4453C34.0976 57.4453 32.7901 48.5055 32.0051 46.955" fill="#E0E0E0"/>
<path d="M31.9744 46.8488C31.9744 46.8488 32.0024 46.9047 32.0526 47.0192C32.0778 47.0751 32.1085 47.1477 32.142 47.2315C32.1756 47.3154 32.2035 47.4243 32.2426 47.5389C32.3907 48.0026 32.5667 48.6982 32.7622 49.6034C33.1506 51.4109 33.6227 54.0509 34.12 57.3335L34.0473 57.2888L44.1577 53.3497L44.2135 53.3301L44.2443 53.3832L47.3871 58.9706L47.4235 59.0348L47.3564 59.0712L40.8695 62.566L37.6875 64.2786C37.1679 64.5579 36.6454 64.8373 36.1063 65.0831C35.5681 65.3062 35.0156 65.4928 34.4524 65.6419C33.3551 65.9492 32.2162 66.0812 31.0777 66.033C30.5211 66.013 29.9721 65.8978 29.4545 65.6922L29.2673 65.6084C29.2031 65.5749 29.1414 65.5366 29.083 65.4938C28.9798 65.4051 28.8862 65.3058 28.8036 65.1977C28.6389 64.9832 28.4958 64.753 28.3762 64.5104C27.9321 63.5729 27.5839 62.593 27.3369 61.5855C27.0827 60.6161 26.8788 59.6634 26.6972 58.7387C26.3396 56.8921 26.0742 55.16 25.8591 53.576C25.6439 51.992 25.44 50.5504 25.5015 49.2737C25.5224 48.1833 25.7108 47.1025 26.0602 46.0694C26.2895 45.4189 26.6123 44.8054 27.0184 44.2479C27.1242 44.104 27.24 43.9677 27.3648 43.84C27.4075 43.7958 27.4532 43.7548 27.5017 43.7171C27.5017 43.7171 27.457 43.759 27.376 43.8484C27.2578 43.982 27.1468 44.1219 27.0436 44.2675C26.6496 44.8276 26.3373 45.4409 26.1161 46.0889C25.7695 47.117 25.5811 48.1918 25.5573 49.2765C25.5071 50.5449 25.7082 51.978 25.9373 53.562C26.1664 55.146 26.4374 56.8725 26.8005 58.7164C26.9849 59.6355 27.1861 60.5853 27.4431 61.5519C27.6823 62.5496 28.0201 63.521 28.4516 64.4518C28.5671 64.6857 28.7056 64.9074 28.865 65.1139C28.9476 65.217 29.0413 65.3107 29.1444 65.3932C29.1963 65.43 29.2505 65.4636 29.3065 65.4938L29.4853 65.572C29.9884 65.7688 30.521 65.8793 31.0609 65.8989C32.1835 65.945 33.3063 65.8139 34.3882 65.5106C34.9442 65.359 35.49 65.1724 36.0225 64.9518C36.5561 64.72 37.0645 64.435 37.5897 64.1529L40.7717 62.4375L47.2614 58.9454L47.2307 59.0488C46.1412 57.0932 45.0879 55.2298 44.0962 53.4614L44.1828 53.4922L34.0613 57.4033L33.997 57.4257V57.3586C33.5109 54.0761 33.0584 51.436 32.6868 49.6257C32.5024 48.7206 32.3348 48.0222 32.1951 47.5584C32.1616 47.4439 32.1309 47.3405 32.1029 47.2511L32.0219 47.036C31.994 46.9103 31.9744 46.8488 31.9744 46.8488Z" fill="#263238"/>
<path d="M35.5978 53.5425H40.618V51.8719H35.5978V53.5425Z" fill="white"/>
<path d="M36.6343 52.6066C37.6759 52.5097 38.7243 52.5097 39.766 52.6066C38.7243 52.7034 37.6759 52.7034 36.6343 52.6066Z" fill="#263238"/>
<g opacity="0.3">
<path opacity="0.3" d="M43.8476 51.9445L36.4611 45.9521L36.6371 45.4269H35.9918L34.9274 41.2755L36.4611 44.2898L37.3523 44.2479L36.7069 44.8402L43.8476 51.9445Z" fill="black"/>
</g>
<path d="M34.7206 45.1112L35 44.9994C35 44.9994 34.3937 43.5411 33.8015 42.0102C33.5863 41.5402 33.4996 41.0216 33.55 40.5072C33.5829 40.3456 33.672 40.2009 33.8013 40.0986C33.9307 39.9963 34.092 39.9431 34.2569 39.9484L34.4524 39.8451L34.553 39.6663C34.0362 39.5545 33.3433 39.9875 33.2623 40.4653C33.2061 41.0334 33.3025 41.6063 33.5417 42.1247C34.1116 43.6501 34.715 45.0972 34.7206 45.1112Z" fill="#455A64"/>
<path d="M34.2848 48.4859L34.6564 48.3407C34.3519 47.5584 33.9356 46.1672 34.1144 45.7761C34.2023 45.6365 34.3191 45.5174 34.4569 45.4268C34.5947 45.3362 34.7504 45.2762 34.9134 45.2509C35.1127 45.1971 35.3217 45.1906 35.524 45.2318C35.7262 45.273 35.916 45.3609 36.0783 45.4883C36.503 45.8487 37.1455 47.117 37.3578 47.578L37.721 47.4104C37.6875 47.3405 36.9164 45.6755 36.3242 45.1754C36.1153 45.0078 35.87 44.8914 35.6081 44.8357C35.3461 44.7799 35.0747 44.7862 34.8156 44.8541C34.5923 44.8912 34.3801 44.9776 34.1945 45.1072C34.0089 45.2367 33.8546 45.406 33.7428 45.6029C33.4523 46.2677 34.1451 48.12 34.2848 48.4859Z" fill="#455A64"/>
<path d="M38.2965 54.5426C38.7546 54.5426 39.2072 54.2996 39.6402 53.8107L39.4894 53.6766C39.0145 54.2158 38.5256 54.4281 38.0367 54.3136C36.0504 53.847 34.539 48.3295 34.5222 48.2736L34.3295 48.3239C34.3937 48.5558 35.8883 54.0146 37.9892 54.5091C38.0901 54.5311 38.1931 54.5424 38.2965 54.5426Z" fill="#263238"/>
<path d="M39.2576 54.0397C39.2986 54.0792 39.3522 54.1028 39.409 54.1064C39.4658 54.1099 39.522 54.0933 39.5677 54.0593L39.9979 53.738C40.03 53.7179 40.0577 53.6915 40.0793 53.6604C40.1009 53.6293 40.1159 53.5941 40.1235 53.557C40.1311 53.5199 40.131 53.4817 40.1233 53.4446C40.1157 53.4075 40.1006 53.3723 40.0789 53.3413C40.0557 53.304 40.024 53.2727 39.9864 53.2499C39.9488 53.2272 39.9063 53.2136 39.8625 53.2104C39.8187 53.2071 39.7747 53.2142 39.7342 53.2311C39.6936 53.2481 39.6576 53.2743 39.6291 53.3078L39.2408 53.7101C39.2016 53.757 39.1815 53.8171 39.1846 53.8782C39.1877 53.9393 39.2138 53.997 39.2576 54.0397Z" fill="#263238"/>
<path d="M37.4528 54.7242C37.711 54.7441 37.9701 54.6993 38.2067 54.594C38.4432 54.4886 38.6498 54.326 38.8078 54.1208C40.0286 52.4054 37.7266 47.6506 37.6288 47.4495L37.45 47.5389C37.4724 47.5864 39.7995 52.3887 38.6457 54.0034C38.3468 54.4253 37.8076 54.5929 37.0757 54.5007L37.0505 54.6991C37.184 54.7153 37.3184 54.7237 37.4528 54.7242Z" fill="#263238"/>
<path d="M37.4892 54.6181C37.4848 54.6747 37.4605 54.7279 37.4206 54.7683C37.3807 54.8087 37.3278 54.8336 37.2713 54.8388L36.7349 54.8807C36.6977 54.8866 36.6597 54.8849 36.6233 54.8758C36.5868 54.8666 36.5525 54.8502 36.5225 54.8275C36.4925 54.8049 36.4674 54.7763 36.4486 54.7437C36.4299 54.711 36.418 54.675 36.4136 54.6376C36.4066 54.5954 36.4093 54.5522 36.4216 54.5112C36.434 54.4702 36.4555 54.4326 36.4847 54.4013C36.5138 54.37 36.5498 54.3458 36.5898 54.3306C36.6298 54.3154 36.6727 54.3095 36.7153 54.3135L37.274 54.361C37.3363 54.3674 37.3936 54.3978 37.4338 54.4458C37.474 54.4938 37.4939 54.5556 37.4892 54.6181Z" fill="#263238"/>
<path d="M47.0519 48.7849C47.8357 48.7849 48.4711 48.1495 48.4711 47.3657C48.4711 46.5819 47.8357 45.9465 47.0519 45.9465C46.2681 45.9465 45.6327 46.5819 45.6327 47.3657C45.6327 48.1495 46.2681 48.7849 47.0519 48.7849Z" fill="#263238"/>
<path d="M47.0519 48.7849C47.8357 48.7849 48.4711 48.1495 48.4711 47.3657C48.4711 46.5819 47.8357 45.9465 47.0519 45.9465C46.2681 45.9465 45.6327 46.5819 45.6327 47.3657C45.6327 48.1495 46.2681 48.7849 47.0519 48.7849Z" fill="#263238"/>
<path d="M46.0015 47.3656C46.0015 47.5735 46.0632 47.7767 46.1787 47.9495C46.2942 48.1223 46.4585 48.2569 46.6506 48.3363C46.8427 48.4158 47.054 48.4364 47.2579 48.3956C47.4617 48.3549 47.6488 48.2546 47.7956 48.1074C47.9424 47.9602 48.0423 47.7728 48.0825 47.5688C48.1227 47.3649 48.1015 47.1536 48.0215 46.9617C47.9416 46.7698 47.8066 46.6059 47.6334 46.4909C47.4603 46.3758 47.257 46.3146 47.0491 46.3152C46.9113 46.3152 46.7748 46.3424 46.6475 46.3952C46.5203 46.448 46.4046 46.5254 46.3073 46.623C46.21 46.7206 46.1329 46.8364 46.0804 46.9638C46.0279 47.0913 46.0011 47.2278 46.0015 47.3656Z" fill="#E0E0E0"/>
<path d="M44.0375 41.1805C44.1716 41.376 45.655 44.5049 46.4652 46.0834L46.7027 45.9632C46.5825 45.7286 44.4258 41.2782 44.2582 41.0324L42.7021 39.7445L42.6462 40.0406L44.0375 41.1805Z" fill="#455A64"/>
<path d="M43.4425 47.3293C44.4705 48.3546 47.0742 51.0253 47.0742 51.0253L47.7727 50.6035L44.1046 46.6924C44.0302 46.6131 43.9301 46.5628 43.8221 46.5505C43.7142 46.5383 43.6053 46.5648 43.5151 46.6253C43.4591 46.663 43.4121 46.7126 43.3773 46.7705C43.3426 46.8284 43.321 46.8932 43.3141 46.9603C43.3072 47.0275 43.3151 47.0953 43.3372 47.1591C43.3594 47.2229 43.3953 47.281 43.4425 47.3293Z" fill="#263238"/>
<path d="M44.1829 53.4168L45.0573 50.9555C45.1455 50.6879 45.3135 50.4537 45.5388 50.2844C45.764 50.1151 46.0357 50.0188 46.3172 50.0085H46.4485C46.9737 50.0672 49.6473 50.2432 49.6473 50.2432L50.6838 51.4025C50.7674 51.5002 50.8133 51.6246 50.8133 51.7531C50.8133 51.8817 50.7674 52.0061 50.6838 52.1037L50.9799 54.1962L50.3932 54.5929L50.4491 56.0568C50.4491 56.0568 49.9267 56.406 49.6948 56.2887L49.4629 56.1713L49.1277 55.8221L48.1387 57.219L46.7726 58.0096L44.1829 53.4168Z" fill="#FFBF9D"/>
<path d="M50.6977 52.2183C50.5809 52.0761 50.4559 51.9408 50.3234 51.8132C50.1751 51.6849 50.0059 51.5828 49.8233 51.5114C49.5859 51.4554 49.3435 51.4226 49.0997 51.4137C48.458 51.378 47.82 51.2921 47.1917 51.1566C47.8341 51.1414 48.4768 51.1769 49.1137 51.2628C49.3697 51.2726 49.6238 51.312 49.8708 51.3801C50.0666 51.4631 50.2448 51.5826 50.396 51.7321C50.5474 51.8565 50.6535 52.0274 50.6977 52.2183Z" fill="#FF9A6C"/>
<path d="M50.6389 54.1459C50.58 53.9622 50.5081 53.783 50.4238 53.6095C50.1852 53.2138 49.8215 52.9091 49.3901 52.7435C48.9524 52.5851 48.4895 52.5075 48.024 52.5144C47.8274 52.526 47.63 52.5195 47.4346 52.4948C47.6237 52.4321 47.822 52.4019 48.0212 52.4054C48.5047 52.368 48.9905 52.4347 49.446 52.601C49.9095 52.7773 50.2915 53.1185 50.5188 53.5592C50.6238 53.7356 50.6661 53.9424 50.6389 54.1459Z" fill="#FF9A6C"/>
<path d="M50.3764 55.9394C50.2789 55.7636 50.2307 55.5648 50.2367 55.3639C50.2249 55.158 50.1806 54.9553 50.1054 54.7633C50.0534 54.6535 49.9752 54.5582 49.8778 54.4856C49.7804 54.413 49.6667 54.3655 49.5467 54.347C49.0861 54.2487 48.6194 54.1815 48.1498 54.1459C47.9504 54.1374 47.7543 54.0919 47.5715 54.0118C47.7684 54.0071 47.9654 54.0165 48.161 54.0397C48.6392 54.0436 49.1158 54.0969 49.583 54.199C49.7237 54.234 49.8565 54.2956 49.9741 54.3806C50.0917 54.4625 50.1852 54.5744 50.2451 54.7046C50.3214 54.912 50.3583 55.1318 50.354 55.3528C50.3429 55.7187 50.3931 55.9338 50.3764 55.9394Z" fill="#FF9A6C"/>
<path d="M51.8347 51.3187L40.3052 63.2282L40.7466 63.678L49.0103 62.7477L60.1263 52.1596L60.1124 51.6484L51.8347 51.3187Z" fill="#455A64"/>
<g opacity="0.3">
<path opacity="0.3" d="M53.9942 56.8725C53.7229 56.6249 53.4028 56.4369 53.0544 56.3204C52.7061 56.204 52.3372 56.1618 51.9716 56.1965C51.2371 56.2706 50.5415 56.5624 49.9741 57.0346C49.4935 57.3846 49.1435 57.8851 48.9795 58.4565C48.7449 59.4567 49.569 60.8563 50.477 61.3424C51.628 60.4177 52.7482 59.0013 53.8992 58.0766C54.0865 57.9565 54.2274 57.7762 54.2987 57.5654C54.3079 57.4338 54.285 57.3021 54.232 57.1814C54.1789 57.0607 54.0973 56.9547 53.9942 56.8725Z" fill="black"/>
</g>
<path d="M60.0788 52.1344C60.0288 52.1418 59.978 52.1418 59.928 52.1344H59.4866L57.8355 52.1177L52.0861 52.0059L52.1392 51.9836L49.2505 54.984L43.2609 61.1552C42.4954 61.9319 41.8641 62.5521 41.431 63.0102L40.9282 63.5103C40.8724 63.5711 40.8117 63.6272 40.7466 63.6779C40.7961 63.6109 40.8503 63.5474 40.9086 63.4879L41.3891 62.9711L43.1827 61.0798L49.1416 54.8834C50.1613 53.8274 51.1419 52.8161 52.0358 51.8942L52.0582 51.8718H52.0889L57.8355 52.0367L59.4894 52.0981L59.928 52.1177C59.9786 52.1196 60.029 52.1252 60.0788 52.1344Z" fill="#263238"/>
<path d="M52.8628 55.6293C52.8628 55.6293 53.9803 55.6489 54.3435 55.8305C54.7066 56.0121 55.7096 57.082 55.7096 57.082C55.7096 57.082 55.7096 57.8084 55.4302 57.8363C55.4655 57.9989 55.4852 58.1645 55.4889 58.3308C55.5196 58.7387 55.5755 58.9706 55.0251 59.3198C55.0251 59.3198 55.081 59.9875 54.8798 60.1579C54.7414 60.2731 54.5958 60.3795 54.444 60.4764C54.444 60.4764 54.4105 61.2139 53.4243 61.2027L52.5024 61.6106C52.5024 61.6106 50.4463 61.4178 50.6614 61.1776C50.8765 60.9373 51.3626 59.7333 51.3626 59.7333C51.3626 59.7333 49.9658 58.7052 49.9853 58.3867C50.0049 58.0682 50.1306 58.0375 50.1306 58.0375C50.1306 58.0375 50.0719 57.4285 50.5664 57.3698C50.5664 57.3698 50.9435 56.6127 51.3207 56.5848C51.6978 56.5568 54.2568 57.4843 54.2568 57.4843L53.2986 56.6714C53.2986 56.6714 52.3376 56.5261 52.3683 56.2076C52.399 55.8891 52.8628 55.6293 52.8628 55.6293Z" fill="#FFBF9D"/>
<path d="M52.6922 59.4539C52.248 59.2683 51.8144 59.0585 51.3932 58.8253C50.9498 58.639 50.5162 58.4301 50.0941 58.1995C50.5722 58.2902 51.0331 58.4552 51.4602 58.6884C51.9077 58.879 52.3232 59.1372 52.6922 59.4539Z" fill="#FF9A6C"/>
<path d="M54.0222 58.5683C53.449 58.4357 52.8883 58.2543 52.346 58.0263C51.7886 57.8463 51.2482 57.6172 50.7312 57.3419C51.3045 57.474 51.8653 57.6554 52.4074 57.8838C52.9648 58.064 53.5051 58.293 54.0222 58.5683Z" fill="#FF9A6C"/>
<path d="M35.8269 32.8245C35.4484 31.5586 35.181 30.2621 35.0279 28.9497C34.8727 27.6318 35.0494 26.2959 35.5419 25.0637C35.6201 24.8793 36.2794 23.6529 36.4778 23.6836C36.6175 23.706 36.1984 24.8598 36.2571 24.9855C36.8445 26.2295 37.0394 27.6229 36.8158 28.9804C36.6293 30.2944 36.2976 31.5836 35.8269 32.8245Z" fill="#263238"/>
<path d="M35.9553 27.7875C36.0168 24.477 37.9975 21.7532 41.3052 21.9068L41.6097 21.9404C43.0909 22.0938 44.4599 22.7999 45.4436 23.9178C46.4274 25.0356 46.9538 26.4832 46.9177 27.9719C46.8451 30.841 46.7305 34.0091 46.5517 35.5344C46.1802 38.6913 42.9675 38.8477 42.9675 38.8477L42.2383 43.7171L35.4888 39.0293L35.9553 27.7875Z" fill="#FFBF9D"/>
<path d="M42.9591 38.8729C41.4996 38.7154 40.116 38.1424 38.9725 37.2218C38.9725 37.2218 39.6039 39.9233 42.7859 39.9736L42.9591 38.8729Z" fill="#FF9A6C"/>
<path d="M45.7026 30.6148C45.6912 30.7324 45.6343 30.8409 45.544 30.9171C45.4537 30.9933 45.3372 31.0312 45.2193 31.0226C45.1615 31.0212 45.1045 31.0082 45.0517 30.9844C44.999 30.9606 44.9516 30.9265 44.9122 30.884C44.8729 30.8416 44.8425 30.7917 44.8228 30.7373C44.8031 30.6829 44.7945 30.625 44.7975 30.5673C44.8095 30.4497 44.8665 30.3413 44.9566 30.2648C45.0466 30.1883 45.1628 30.1495 45.2808 30.1566C45.3387 30.1584 45.3958 30.1717 45.4485 30.1958C45.5013 30.2199 45.5487 30.2543 45.588 30.297C45.6273 30.3397 45.6577 30.3898 45.6773 30.4443C45.697 30.4989 45.7056 30.5568 45.7026 30.6148Z" fill="#263238"/>
<path d="M46.0937 29.2123C46.0322 29.2654 45.7165 28.9748 45.2304 28.9329C44.7443 28.891 44.3644 29.0894 44.3169 29.0251C44.2694 28.9609 44.3616 28.8938 44.5292 28.7988C44.7548 28.6746 45.0136 28.6238 45.2695 28.6536C45.5223 28.6788 45.7603 28.7845 45.9484 28.9553C46.0853 29.0754 46.1244 29.1872 46.0937 29.2123Z" fill="#263238"/>
<path d="M41.5512 30.4192C41.5398 30.537 41.483 30.6458 41.3928 30.7225C41.3026 30.7992 41.1861 30.8377 41.0679 30.8299C41.0099 30.8284 40.9528 30.8154 40.8999 30.7917C40.8471 30.7679 40.7994 30.7338 40.7599 30.6914C40.7204 30.649 40.6897 30.5991 40.6696 30.5447C40.6496 30.4903 40.6406 30.4324 40.6433 30.3745C40.6546 30.2566 40.7114 30.1478 40.8017 30.0712C40.8919 29.9945 41.0084 29.956 41.1266 29.9638C41.1844 29.9656 41.2413 29.9789 41.2941 30.0028C41.3468 30.0267 41.3942 30.0608 41.4337 30.1031C41.4732 30.1454 41.5039 30.1951 41.524 30.2494C41.5442 30.3036 41.5535 30.3614 41.5512 30.4192Z" fill="#263238"/>
<path d="M41.3053 28.9078C41.2439 28.9581 40.9282 28.6703 40.4421 28.6284C39.956 28.5865 39.5761 28.7849 39.5286 28.7206C39.4811 28.6564 39.5733 28.5893 39.7409 28.4943C39.9665 28.37 40.2253 28.3193 40.4812 28.3491C40.7334 28.3746 40.971 28.4792 41.1601 28.648C41.3053 28.7709 41.3472 28.8827 41.3053 28.9078Z" fill="#263238"/>
<path d="M42.6658 32.8217C42.9305 32.7688 43.2008 32.7491 43.4704 32.7631C43.5961 32.7631 43.7162 32.7631 43.7497 32.6681C43.7735 32.5408 43.7579 32.4092 43.705 32.2909L43.4257 31.3076C43.0569 29.9107 42.8055 28.7653 42.8669 28.7513C42.9284 28.7374 43.2664 29.8688 43.6352 31.2657C43.7218 31.6093 43.8056 31.9389 43.8866 32.2518C43.9431 32.4118 43.9431 32.5863 43.8866 32.7463C43.8636 32.7878 43.8316 32.8237 43.7929 32.8512C43.7542 32.8788 43.7099 32.8973 43.6631 32.9056C43.5917 32.9148 43.5194 32.9148 43.448 32.9056C43.1848 32.9105 42.922 32.8824 42.6658 32.8217Z" fill="#263238"/>
<path d="M41.202 33.0062C41.2802 33.0062 41.2271 33.537 41.6378 33.9588C42.0484 34.3806 42.6156 34.3834 42.6128 34.4561C42.61 34.5287 42.4787 34.5455 42.2384 34.5259C41.9301 34.4979 41.6413 34.3624 41.4227 34.1432C41.2125 33.9311 41.0933 33.6455 41.0902 33.347C41.093 33.1235 41.1656 33.0006 41.202 33.0062Z" fill="#263238"/>
<path d="M41.498 26.9327C41.4366 27.0612 40.9589 26.9327 40.3806 26.955C39.8023 26.9774 39.3273 27.0696 39.2631 26.955C39.2352 26.8964 39.3301 26.779 39.5285 26.6757C39.7938 26.5475 40.0846 26.481 40.3792 26.481C40.6738 26.481 40.9646 26.5475 41.2298 26.6757C41.431 26.7679 41.526 26.874 41.498 26.9327Z" fill="#263238"/>
<path d="M46.0546 27.5752C45.9596 27.6786 45.6355 27.5277 45.2332 27.4802C44.8309 27.4328 44.4845 27.4802 44.4175 27.3517C44.3895 27.2931 44.4538 27.1869 44.613 27.0975C44.8258 26.9925 45.0654 26.9545 45.3003 26.9886C45.5354 27.0141 45.7569 27.1117 45.9344 27.2679C46.0713 27.4076 46.1076 27.5249 46.0546 27.5752Z" fill="#263238"/>
<path d="M35.9665 30.1538C35.9135 30.1258 33.8629 29.2821 33.7036 31.45C33.5444 33.6179 35.7542 33.3302 35.7626 33.2687C35.771 33.2073 35.9665 30.1538 35.9665 30.1538Z" fill="#FFBF9D"/>
<path d="M35.1592 32.3971C35.1592 32.3971 35.1201 32.4223 35.0558 32.4474C34.9639 32.4773 34.8641 32.4713 34.7765 32.4307C34.5558 32.3301 34.3882 31.9529 34.4077 31.5618C34.4156 31.3753 34.4653 31.193 34.553 31.0282C34.5764 30.96 34.6166 30.8987 34.6698 30.8499C34.7229 30.8011 34.7875 30.7664 34.8575 30.7489C34.9018 30.7401 34.9477 30.7473 34.9872 30.7693C35.0266 30.7913 35.0569 30.8267 35.0726 30.869C35.0978 30.9304 35.0726 30.9724 35.0922 30.9779C35.1117 30.9835 35.1397 30.9444 35.1285 30.855C35.1219 30.7998 35.095 30.749 35.0531 30.7125C35.0254 30.688 34.9931 30.6691 34.9581 30.6572C34.9231 30.6452 34.886 30.6403 34.8491 30.6427C34.7587 30.6534 34.6726 30.6874 34.5992 30.7412C34.5257 30.7951 34.4675 30.867 34.4301 30.95C34.3244 31.1313 34.264 31.3354 34.2541 31.5451C34.2373 31.9809 34.4301 32.4055 34.7374 32.5201C34.7943 32.5408 34.8551 32.5488 34.9154 32.5435C34.9757 32.5382 35.0342 32.5197 35.0866 32.4893C35.1592 32.4502 35.1592 32.4027 35.1592 32.3971Z" fill="#FF9A6C"/>
<path d="M45.736 24.2871C46.0992 24.1167 45.1186 22.9126 44.2805 22.4656C43.015 21.7895 41.0482 21.2978 39.8246 21.5604C38.3523 21.8789 37.1035 22.5215 36.2906 23.7954C35.5051 25.0919 35.078 26.5736 35.053 28.0893C35.0054 28.5489 35.0816 29.0128 35.2737 29.433C35.553 29.9331 36.1118 30.2711 36.0392 30.9304C36.023 31.0495 36.0308 31.1707 36.0619 31.2867C36.0931 31.4028 36.1471 31.5115 36.2207 31.6065C36.5923 32.0563 37.1035 31.6903 37.3522 31.3076C37.883 30.489 38.0003 29.4777 38.1065 28.5139C38.2197 27.8285 38.2197 27.1292 38.1065 26.4438C38.0254 26.075 37.8746 25.723 37.8271 25.3515C37.7841 25.1672 37.7819 24.9757 37.8205 24.7904C37.8591 24.6051 37.9376 24.4305 38.0506 24.2787C38.1069 24.2163 38.1696 24.1602 38.2378 24.1111C38.5571 23.8663 38.9361 23.7114 39.3354 23.6622C39.7347 23.6131 40.1399 23.6716 40.509 23.8317C41.7047 24.3402 43.7469 25.1196 44.3196 24.7424C45.1409 24.1837 45.3533 23.8177 45.3533 23.8177L45.736 24.2871Z" fill="#263238"/>
<path d="M124.141 64.5637C136.213 64.5637 146 54.7773 146 42.7051C146 30.6328 136.213 20.8464 124.141 20.8464C112.069 20.8464 102.283 30.6328 102.283 42.7051C102.283 54.7773 112.069 64.5637 124.141 64.5637Z" fill="#FF725E"/>
<path opacity="0.55" d="M124.141 62.5712C135.113 62.5712 144.007 53.6768 144.007 42.705C144.007 31.7333 135.113 22.8389 124.141 22.8389C113.169 22.8389 104.275 31.7333 104.275 42.705C104.275 53.6768 113.169 62.5712 124.141 62.5712Z" fill="white"/>
<path d="M124.141 60.5437C133.993 60.5437 141.98 52.5571 141.98 42.705C141.98 32.853 133.993 24.8664 124.141 24.8664C114.289 24.8664 106.303 32.853 106.303 42.705C106.303 52.5571 114.289 60.5437 124.141 60.5437Z" fill="white"/>
<path d="M124.129 25.6469H124.094C123.837 25.6469 123.63 25.8545 123.63 26.1106V28.4324C123.63 28.6886 123.837 28.8962 124.094 28.8962H124.129C124.385 28.8962 124.592 28.6886 124.592 28.4324V26.1106C124.592 25.8545 124.385 25.6469 124.129 25.6469Z" fill="#373449"/>
<path d="M124.189 56.5139H124.154C123.898 56.5139 123.69 56.7215 123.69 56.9776V59.2994C123.69 59.5556 123.898 59.7632 124.154 59.7632H124.189C124.445 59.7632 124.653 59.5556 124.653 59.2994V56.9776C124.653 56.7215 124.445 56.5139 124.189 56.5139Z" fill="#373449"/>
<path d="M141.199 42.6924V42.6574C141.199 42.4013 140.992 42.1936 140.736 42.1936H138.414C138.158 42.1936 137.95 42.4013 137.95 42.6574V42.6924C137.95 42.9486 138.158 43.1562 138.414 43.1562H140.736C140.992 43.1562 141.199 42.9486 141.199 42.6924Z" fill="#373449"/>
<path d="M110.332 42.7527V42.7176C110.332 42.4615 110.125 42.2538 109.869 42.2538H107.547C107.291 42.2538 107.083 42.4615 107.083 42.7176V42.7527C107.083 43.0088 107.291 43.2165 107.547 43.2165H109.869C110.125 43.2165 110.332 43.0088 110.332 42.7527Z" fill="#373449"/>
<path d="M135.833 30.9941L135.809 30.9694C135.628 30.7882 135.334 30.7881 135.153 30.9691L134.304 31.817C134.123 31.998 134.123 32.2917 134.304 32.4729L134.329 32.4976C134.51 32.6788 134.804 32.6789 134.985 32.4979L135.833 31.65C136.014 31.469 136.014 31.1753 135.833 30.9941Z" fill="#373449"/>
<path d="M114.153 52.7554L114.128 52.7306C113.947 52.5494 113.654 52.5493 113.472 52.7304L112.429 53.7733C112.247 53.9544 112.247 54.248 112.428 54.4292L112.453 54.454C112.634 54.6352 112.928 54.6353 113.109 54.4542L114.153 53.4113C114.334 53.2302 114.334 52.9366 114.153 52.7554Z" fill="#373449"/>
<path d="M135.855 54.4106L135.879 54.3858C136.061 54.2048 136.061 53.9111 135.88 53.7299L135.032 52.8815C134.851 52.7003 134.557 52.7002 134.376 52.8813L134.351 52.906C134.17 53.0871 134.17 53.3808 134.351 53.5619L135.199 54.4104C135.38 54.5915 135.673 54.5916 135.855 54.4106Z" fill="#373449"/>
<path d="M114.089 32.7325L114.114 32.7077C114.295 32.5267 114.295 32.233 114.114 32.0518L113.071 31.0081C112.89 30.827 112.597 30.8269 112.416 31.0079L112.391 31.0327C112.21 31.2137 112.21 31.5074 112.391 31.6886L113.434 32.7323C113.615 32.9134 113.908 32.9135 114.089 32.7325Z" fill="#373449"/>
<path d="M124.155 30.7556H124.115C123.832 30.7556 123.603 30.9846 123.603 31.2671V42.4696C123.603 42.7521 123.832 42.9811 124.115 42.9811H124.155C124.438 42.9811 124.667 42.7521 124.667 42.4696V31.2671C124.667 30.9846 124.438 30.7556 124.155 30.7556Z" fill="#FF725E"/>
<path d="M132.373 43.4V43.3594C132.373 43.0769 132.144 42.848 131.862 42.848H124.115C123.832 42.848 123.603 43.0769 123.603 43.3594V43.4C123.603 43.6825 123.832 43.9115 124.115 43.9115H131.862C132.144 43.9115 132.373 43.6825 132.373 43.4Z" fill="#FF725E"/>
<path d="M132.174 35.4734L124.201 42.649" stroke="#373449" stroke-width="2" stroke-miterlimit="10" stroke-linecap="round"/>
<path d="M124.141 44.6317C125.205 44.6317 126.068 43.7691 126.068 42.705C126.068 41.641 125.205 40.7784 124.141 40.7784C123.077 40.7784 122.215 41.641 122.215 42.705C122.215 43.7691 123.077 44.6317 124.141 44.6317Z" fill="#FF725E"/>
</g>
<g filter="url(#filter0_b_206:37117)">
<rect x="13" y="77" width="141" height="77" rx="10" fill="black" fill-opacity="0.8"/>
</g>
<path d="M36.3196 86.928C37.6262 86.928 38.6296 87.292 39.3296 88.02C40.0296 88.748 40.3796 89.7933 40.3796 91.156C40.3796 92.752 39.9876 93.9747 39.2036 94.824C38.4196 95.6733 37.2996 96.098 35.8436 96.098C35.4049 96.098 34.8776 96.0887 34.2616 96.07C33.6549 96.0513 33.1322 96.028 32.6936 96L32.7916 93.312L32.6936 86.984L36.3196 86.928ZM36.1796 94.628C37.6636 94.628 38.4056 93.6153 38.4056 91.59C38.4056 90.4887 38.2236 89.6907 37.8596 89.196C37.5049 88.692 36.9449 88.44 36.1796 88.44C35.6849 88.44 35.1576 88.4633 34.5976 88.51L34.5136 93.144L34.5556 94.53C35.2089 94.5953 35.7502 94.628 36.1796 94.628ZM46.6147 92.976L42.8347 93.004C42.9187 94.1707 43.5114 94.754 44.6127 94.754C45.1914 94.754 45.8354 94.5907 46.5447 94.264L46.6987 94.362L46.4187 95.748C45.7094 96.0093 45.042 96.14 44.4167 96.14C43.39 96.14 42.5827 95.8413 41.9947 95.244C41.416 94.6467 41.1267 93.8207 41.1267 92.766C41.1267 91.7207 41.4114 90.8947 41.9807 90.288C42.55 89.672 43.32 89.364 44.2907 89.364C45.1214 89.364 45.7607 89.5927 46.2087 90.05C46.666 90.498 46.8947 91.128 46.8947 91.94C46.8947 92.1547 46.8714 92.4253 46.8247 92.752L46.6147 92.976ZM45.2707 91.73C45.2707 91.3567 45.1867 91.0767 45.0187 90.89C44.8507 90.694 44.6034 90.596 44.2767 90.596C43.9127 90.596 43.6094 90.7173 43.3667 90.96C43.124 91.1933 42.9607 91.534 42.8767 91.982L45.2427 91.926L45.2707 91.73ZM49.3962 90.526L50.3762 94.25H50.4742L51.6502 90.624L51.8882 89.49H53.5122L51.3282 96H49.3262L47.4782 89.532L49.2142 89.448L49.3962 90.526ZM56.9505 89.364C57.9025 89.364 58.6305 89.644 59.1345 90.204C59.6385 90.764 59.8905 91.5713 59.8905 92.626C59.8905 93.7647 59.6199 94.6373 59.0785 95.244C58.5372 95.8413 57.7579 96.14 56.7405 96.14C55.7885 96.14 55.0605 95.86 54.5565 95.3C54.0525 94.74 53.8005 93.9327 53.8005 92.878C53.8005 91.7393 54.0712 90.8713 54.6125 90.274C55.1539 89.6673 55.9332 89.364 56.9505 89.364ZM56.8245 90.624C56.3765 90.624 56.0499 90.7733 55.8445 91.072C55.6485 91.3707 55.5505 91.8513 55.5505 92.514C55.5505 93.3727 55.6532 93.984 55.8585 94.348C56.0639 94.712 56.3999 94.894 56.8665 94.894C57.3145 94.894 57.6365 94.7493 57.8325 94.46C58.0379 94.1613 58.1405 93.676 58.1405 93.004C58.1405 92.1547 58.0332 91.548 57.8185 91.184C57.6132 90.8107 57.2819 90.624 56.8245 90.624ZM65.9176 94.628C66.2163 94.628 66.529 94.5487 66.8556 94.39L67.0096 94.53L66.8276 95.636C66.3516 95.8787 65.8663 96.028 65.3716 96.084C64.1116 95.9533 63.4816 95.3373 63.4816 94.236L63.5516 93.074L63.5376 90.666H62.6696L62.5996 90.568L62.6976 89.546H63.5236V88.468L65.2176 87.922L65.3436 88.034L65.3016 89.546H66.9676L67.0236 89.644L66.9396 90.666H65.2736L65.1896 93.802C65.1896 94.1007 65.2456 94.3153 65.3576 94.446C65.4696 94.5673 65.6563 94.628 65.9176 94.628ZM70.6224 89.364C71.5744 89.364 72.3024 89.644 72.8064 90.204C73.3104 90.764 73.5624 91.5713 73.5624 92.626C73.5624 93.7647 73.2917 94.6373 72.7504 95.244C72.2091 95.8413 71.4297 96.14 70.4124 96.14C69.4604 96.14 68.7324 95.86 68.2284 95.3C67.7244 94.74 67.4724 93.9327 67.4724 92.878C67.4724 91.7393 67.7431 90.8713 68.2844 90.274C68.8257 89.6673 69.6051 89.364 70.6224 89.364ZM70.4964 90.624C70.0484 90.624 69.7217 90.7733 69.5164 91.072C69.3204 91.3707 69.2224 91.8513 69.2224 92.514C69.2224 93.3727 69.3251 93.984 69.5304 94.348C69.7357 94.712 70.0717 94.894 70.5384 94.894C70.9864 94.894 71.3084 94.7493 71.5044 94.46C71.7097 94.1613 71.8124 93.676 71.8124 93.004C71.8124 92.1547 71.7051 91.548 71.4904 91.184C71.2851 90.8107 70.9537 90.624 70.4964 90.624ZM82.5543 96L82.6663 91.94C82.6663 91.2493 82.3723 90.904 81.7843 90.904C81.3643 90.904 80.9257 91.0907 80.4683 91.464L80.4263 93.144L80.5103 96H78.6483L78.7603 91.94C78.7697 91.604 78.695 91.3473 78.5363 91.17C78.387 90.9927 78.1677 90.904 77.8783 90.904C77.4677 90.904 77.015 91.1 76.5203 91.492V93.13L76.6043 96H74.7563L74.8543 93.312L74.7843 89.616L76.5343 89.462V90.414H76.6323C77.1457 89.9473 77.7103 89.6113 78.3263 89.406C79.3717 89.406 80.039 89.756 80.3283 90.456H80.4123C80.9443 89.9613 81.551 89.6113 82.2323 89.406C82.9417 89.406 83.4783 89.5693 83.8423 89.896C84.2157 90.2133 84.393 90.6753 84.3743 91.282L84.3323 93.144L84.4163 96H82.5543ZM88.6113 89.364C89.33 89.364 89.89 89.5273 90.2913 89.854C90.702 90.1713 90.9073 90.6193 90.9073 91.198C90.9073 91.366 90.8793 91.898 90.8233 92.794C90.814 93.0553 90.8 93.326 90.7813 93.606C90.7626 93.8767 90.7533 94.11 90.7533 94.306C90.7533 94.4647 90.7766 94.5767 90.8233 94.642C90.87 94.698 90.954 94.726 91.0753 94.726C91.1686 94.726 91.29 94.7073 91.4393 94.67L91.5793 94.782L91.4113 95.762C91.1126 95.958 90.772 96.0747 90.3893 96.112C90.1093 96.084 89.876 95.986 89.6893 95.818C89.5026 95.6407 89.3766 95.398 89.3113 95.09H89.2133C88.7466 95.5847 88.266 95.93 87.7713 96.126C87.0993 96.1167 86.572 95.9393 86.1893 95.594C85.8066 95.2487 85.6153 94.7773 85.6153 94.18C85.6153 93.7133 85.732 93.3493 85.9653 93.088C86.208 92.8173 86.572 92.6353 87.0573 92.542L89.1993 92.136V91.562C89.1993 90.9553 88.9006 90.652 88.3033 90.652C88.014 90.652 87.706 90.7173 87.3793 90.848C87.062 90.9787 86.7026 91.184 86.3013 91.464L86.1613 91.38L85.9513 90.148C86.3526 89.896 86.782 89.7047 87.2393 89.574C87.6966 89.434 88.154 89.364 88.6113 89.364ZM87.7013 93.396C87.552 93.4333 87.44 93.4987 87.3653 93.592C87.3 93.676 87.2673 93.8067 87.2673 93.984C87.2673 94.2267 87.3326 94.418 87.4633 94.558C87.594 94.6887 87.776 94.754 88.0093 94.754C88.3733 94.754 88.756 94.5393 89.1573 94.11L89.1853 93.074L87.7013 93.396ZM96.3055 89.476C96.3895 89.476 96.5062 89.4853 96.6555 89.504V91.226L96.4595 91.296C96.3008 91.2307 96.1282 91.198 95.9415 91.198C95.4002 91.198 94.9102 91.548 94.4715 92.248V93.13L94.5695 96H92.7075L92.8195 93.312L92.7355 89.616L94.4995 89.462L94.4855 90.736H94.5975C95.0548 89.896 95.6242 89.476 96.3055 89.476ZM107.492 96L107.604 91.94C107.604 91.2493 107.31 90.904 106.722 90.904C106.302 90.904 105.863 91.0907 105.406 91.464L105.364 93.144L105.448 96H103.586L103.698 91.94C103.707 91.604 103.633 91.3473 103.474 91.17C103.325 90.9927 103.105 90.904 102.816 90.904C102.405 90.904 101.953 91.1 101.458 91.492V93.13L101.542 96H99.6938L99.7918 93.312L99.7218 89.616L101.472 89.462V90.414H101.57C102.083 89.9473 102.648 89.6113 103.264 89.406C104.309 89.406 104.977 89.756 105.266 90.456H105.35C105.882 89.9613 106.489 89.6113 107.17 89.406C107.879 89.406 108.416 89.5693 108.78 89.896C109.153 90.2133 109.331 90.6753 109.312 91.282L109.27 93.144L109.354 96H107.492ZM111.113 93.312L111.043 89.616L112.877 89.462L112.793 93.13L112.877 96H111.015L111.113 93.312ZM111.995 86.298C112.284 86.298 112.508 86.382 112.667 86.55C112.835 86.718 112.919 86.9513 112.919 87.25C112.919 87.5673 112.83 87.8193 112.653 88.006C112.475 88.1927 112.233 88.286 111.925 88.286C111.617 88.286 111.379 88.202 111.211 88.034C111.052 87.866 110.973 87.628 110.973 87.32C110.973 87.012 111.061 86.7647 111.239 86.578C111.425 86.3913 111.677 86.298 111.995 86.298ZM118.641 91.94C118.651 91.6133 118.576 91.3613 118.417 91.184C118.268 90.9973 118.049 90.904 117.759 90.904C117.339 90.904 116.891 91.1047 116.415 91.506V93.13L116.499 96H114.637L114.735 93.312L114.665 89.616L116.429 89.462V90.414H116.527C117.041 89.9473 117.601 89.6113 118.207 89.406C118.917 89.406 119.458 89.5693 119.831 89.896C120.205 90.2133 120.382 90.6753 120.363 91.282L120.321 93.144L120.405 96H118.529L118.641 91.94ZM126.107 91.94C126.117 91.604 126.047 91.3473 125.897 91.17C125.748 90.9927 125.529 90.904 125.239 90.904C124.819 90.904 124.371 91.1047 123.895 91.506L123.867 93.13L123.965 96H122.103L122.201 93.298L122.117 86.312L123.979 86.172L123.909 90.414H123.993C124.507 89.9473 125.071 89.6113 125.687 89.406C126.397 89.406 126.933 89.5693 127.297 89.896C127.671 90.2133 127.853 90.6753 127.843 91.282L127.801 93.144L127.871 96H126.009L126.107 91.94ZM132.074 89.364C132.793 89.364 133.353 89.5273 133.754 89.854C134.165 90.1713 134.37 90.6193 134.37 91.198C134.37 91.366 134.342 91.898 134.286 92.794C134.277 93.0553 134.263 93.326 134.244 93.606C134.226 93.8767 134.216 94.11 134.216 94.306C134.216 94.4647 134.24 94.5767 134.286 94.642C134.333 94.698 134.417 94.726 134.538 94.726C134.632 94.726 134.753 94.7073 134.902 94.67L135.042 94.782L134.874 95.762C134.576 95.958 134.235 96.0747 133.852 96.112C133.572 96.084 133.339 95.986 133.152 95.818C132.966 95.6407 132.84 95.398 132.774 95.09H132.676C132.21 95.5847 131.729 95.93 131.234 96.126C130.562 96.1167 130.035 95.9393 129.652 95.594C129.27 95.2487 129.078 94.7773 129.078 94.18C129.078 93.7133 129.195 93.3493 129.428 93.088C129.671 92.8173 130.035 92.6353 130.52 92.542L132.662 92.136V91.562C132.662 90.9553 132.364 90.652 131.766 90.652C131.477 90.652 131.169 90.7173 130.842 90.848C130.525 90.9787 130.166 91.184 129.764 91.464L129.624 91.38L129.414 90.148C129.816 89.896 130.245 89.7047 130.702 89.574C131.16 89.434 131.617 89.364 132.074 89.364ZM131.164 93.396C131.015 93.4333 130.903 93.4987 130.828 93.592C130.763 93.676 130.73 93.8067 130.73 93.984C130.73 94.2267 130.796 94.418 130.926 94.558C131.057 94.6887 131.239 94.754 131.472 94.754C131.836 94.754 132.219 94.5393 132.62 94.11L132.648 93.074L131.164 93.396ZM54.11 112L54.222 107.94C54.222 107.249 53.928 106.904 53.34 106.904C52.92 106.904 52.4813 107.091 52.024 107.464L51.982 109.144L52.066 112H50.204L50.316 107.94C50.3253 107.604 50.2507 107.347 50.092 107.17C49.9427 106.993 49.7233 106.904 49.434 106.904C49.0233 106.904 48.5707 107.1 48.076 107.492V109.13L48.16 112H46.312L46.41 109.312L46.34 105.616L48.09 105.462V106.414H48.188C48.7013 105.947 49.266 105.611 49.882 105.406C50.9273 105.406 51.5947 105.756 51.884 106.456H51.968C52.5 105.961 53.1067 105.611 53.788 105.406C54.4973 105.406 55.034 105.569 55.398 105.896C55.7713 106.213 55.9487 106.675 55.93 107.282L55.888 109.144L55.972 112H54.11ZM62.645 108.976L58.865 109.004C58.949 110.171 59.5416 110.754 60.643 110.754C61.2216 110.754 61.8656 110.591 62.575 110.264L62.729 110.362L62.449 111.748C61.7396 112.009 61.0723 112.14 60.447 112.14C59.4203 112.14 58.613 111.841 58.025 111.244C57.4463 110.647 57.157 109.821 57.157 108.766C57.157 107.721 57.4416 106.895 58.011 106.288C58.5803 105.672 59.3503 105.364 60.321 105.364C61.1516 105.364 61.791 105.593 62.239 106.05C62.6963 106.498 62.925 107.128 62.925 107.94C62.925 108.155 62.9016 108.425 62.855 108.752L62.645 108.976ZM61.301 107.73C61.301 107.357 61.217 107.077 61.049 106.89C60.881 106.694 60.6336 106.596 60.307 106.596C59.943 106.596 59.6396 106.717 59.397 106.96C59.1543 107.193 58.991 107.534 58.907 107.982L61.273 107.926L61.301 107.73ZM69.6405 109.13L69.6825 110.306C69.6825 110.465 69.7012 110.577 69.7385 110.642C69.7852 110.698 69.8645 110.726 69.9765 110.726C70.0792 110.726 70.2052 110.707 70.3545 110.67L70.4805 110.782L70.3265 111.762C70.0092 111.958 69.6638 112.075 69.2905 112.112C69.0012 112.084 68.7585 111.986 68.5625 111.818C68.3665 111.65 68.2312 111.421 68.1565 111.132H68.0445C67.5872 111.552 67.1205 111.874 66.6445 112.098C65.7298 112.098 65.0205 111.809 64.5165 111.23C64.0125 110.642 63.7605 109.83 63.7605 108.794C63.7605 107.693 64.0498 106.848 64.6285 106.26C65.2072 105.672 66.0098 105.378 67.0365 105.378C67.3072 105.378 67.6058 105.406 67.9325 105.462L67.9045 102.312L69.7525 102.172L69.6405 109.13ZM66.9105 106.638C65.9772 106.638 65.5105 107.231 65.5105 108.416C65.5105 109.153 65.6225 109.709 65.8465 110.082C66.0705 110.455 66.3972 110.642 66.8265 110.642C67.2372 110.642 67.6152 110.451 67.9605 110.068L67.9885 109.298L67.9465 106.89C67.5825 106.722 67.2372 106.638 66.9105 106.638ZM71.7036 109.312L71.6336 105.616L73.4676 105.462L73.3836 109.13L73.4676 112H71.6056L71.7036 109.312ZM72.5856 102.298C72.875 102.298 73.099 102.382 73.2576 102.55C73.4256 102.718 73.5096 102.951 73.5096 103.25C73.5096 103.567 73.421 103.819 73.2436 104.006C73.0663 104.193 72.8236 104.286 72.5156 104.286C72.2076 104.286 71.9696 104.202 71.8016 104.034C71.643 103.866 71.5636 103.628 71.5636 103.32C71.5636 103.012 71.6523 102.765 71.8296 102.578C72.0163 102.391 72.2683 102.298 72.5856 102.298ZM77.902 105.364C78.21 105.364 78.5134 105.397 78.812 105.462C79.12 105.518 79.3907 105.602 79.624 105.714L79.316 107.198L79.162 107.268C78.686 107.007 78.2614 106.876 77.888 106.876C77.4587 106.876 77.1274 107.03 76.894 107.338C76.6607 107.646 76.544 108.085 76.544 108.654C76.544 109.307 76.67 109.807 76.922 110.152C77.174 110.497 77.5334 110.67 78 110.67C78.42 110.67 78.8867 110.553 79.4 110.32L79.54 110.432L79.358 111.874C78.798 112.051 78.224 112.14 77.636 112.14C76.74 112.14 76.04 111.851 75.536 111.272C75.032 110.684 74.78 109.867 74.78 108.822C74.78 107.739 75.0554 106.895 75.606 106.288C76.1567 105.672 76.922 105.364 77.902 105.364ZM83.04 105.364C83.7587 105.364 84.3187 105.527 84.72 105.854C85.1307 106.171 85.336 106.619 85.336 107.198C85.336 107.366 85.308 107.898 85.252 108.794C85.2427 109.055 85.2287 109.326 85.21 109.606C85.1914 109.877 85.182 110.11 85.182 110.306C85.182 110.465 85.2054 110.577 85.252 110.642C85.2987 110.698 85.3827 110.726 85.504 110.726C85.5974 110.726 85.7187 110.707 85.868 110.67L86.008 110.782L85.84 111.762C85.5414 111.958 85.2007 112.075 84.818 112.112C84.538 112.084 84.3047 111.986 84.118 111.818C83.9314 111.641 83.8054 111.398 83.74 111.09H83.642C83.1754 111.585 82.6947 111.93 82.2 112.126C81.528 112.117 81.0007 111.939 80.618 111.594C80.2354 111.249 80.044 110.777 80.044 110.18C80.044 109.713 80.1607 109.349 80.394 109.088C80.6367 108.817 81.0007 108.635 81.486 108.542L83.628 108.136V107.562C83.628 106.955 83.3294 106.652 82.732 106.652C82.4427 106.652 82.1347 106.717 81.808 106.848C81.4907 106.979 81.1314 107.184 80.73 107.464L80.59 107.38L80.38 106.148C80.7814 105.896 81.2107 105.705 81.668 105.574C82.1254 105.434 82.5827 105.364 83.04 105.364ZM82.13 109.396C81.9807 109.433 81.8687 109.499 81.794 109.592C81.7287 109.676 81.696 109.807 81.696 109.984C81.696 110.227 81.7614 110.418 81.892 110.558C82.0227 110.689 82.2047 110.754 82.438 110.754C82.802 110.754 83.1847 110.539 83.586 110.11L83.614 109.074L82.13 109.396ZM89.8923 105.364C90.2003 105.364 90.5036 105.397 90.8023 105.462C91.1103 105.518 91.3809 105.602 91.6143 105.714L91.3063 107.198L91.1523 107.268C90.6763 107.007 90.2516 106.876 89.8783 106.876C89.4489 106.876 89.1176 107.03 88.8843 107.338C88.6509 107.646 88.5343 108.085 88.5343 108.654C88.5343 109.307 88.6603 109.807 88.9123 110.152C89.1643 110.497 89.5236 110.67 89.9903 110.67C90.4103 110.67 90.8769 110.553 91.3903 110.32L91.5303 110.432L91.3483 111.874C90.7883 112.051 90.2143 112.14 89.6263 112.14C88.7303 112.14 88.0303 111.851 87.5263 111.272C87.0223 110.684 86.7703 109.867 86.7703 108.822C86.7703 107.739 87.0456 106.895 87.5963 106.288C88.1469 105.672 88.9123 105.364 89.8923 105.364ZM89.8783 112.672L90.3543 112.938C90.5596 113.05 90.7043 113.171 90.7883 113.302C90.8816 113.442 90.9283 113.596 90.9283 113.764C90.9283 114.072 90.8069 114.324 90.5643 114.52C90.3216 114.716 90.0043 114.814 89.6123 114.814C89.1923 114.814 88.8096 114.683 88.4643 114.422L88.5903 113.638L88.6743 113.596C88.9543 113.876 89.2296 114.016 89.5003 114.016C89.7243 114.016 89.8363 113.918 89.8363 113.722C89.8363 113.657 89.8176 113.601 89.7803 113.554C89.7429 113.517 89.6823 113.479 89.5983 113.442L88.9123 113.05L89.2343 111.636H90.1303L89.8783 112.672ZM95.0303 105.364C95.7489 105.364 96.3089 105.527 96.7103 105.854C97.1209 106.171 97.3263 106.619 97.3263 107.198C97.3263 107.366 97.2983 107.898 97.2423 108.794C97.2329 109.055 97.2189 109.326 97.2003 109.606C97.1816 109.877 97.1723 110.11 97.1723 110.306C97.1723 110.465 97.1956 110.577 97.2423 110.642C97.2889 110.698 97.3729 110.726 97.4943 110.726C97.5876 110.726 97.7089 110.707 97.8583 110.67L97.9983 110.782L97.8303 111.762C97.5316 111.958 97.1909 112.075 96.8083 112.112C96.5283 112.084 96.2949 111.986 96.1083 111.818C95.9216 111.641 95.7956 111.398 95.7303 111.09H95.6323C95.1656 111.585 94.6849 111.93 94.1903 112.126C93.5183 112.117 92.9909 111.939 92.6083 111.594C92.2256 111.249 92.0343 110.777 92.0343 110.18C92.0343 109.713 92.1509 109.349 92.3843 109.088C92.6269 108.817 92.9909 108.635 93.4763 108.542L95.6183 108.136V107.562C95.6183 106.955 95.3196 106.652 94.7223 106.652C94.4329 106.652 94.1249 106.717 93.7983 106.848C93.4809 106.979 93.1216 107.184 92.7203 107.464L92.5803 107.38L92.3703 106.148C92.7716 105.896 93.2009 105.705 93.6583 105.574C94.1156 105.434 94.5729 105.364 95.0303 105.364ZM94.1203 109.396C93.9709 109.433 93.8589 109.499 93.7843 109.592C93.7189 109.676 93.6863 109.807 93.6863 109.984C93.6863 110.227 93.7516 110.418 93.8823 110.558C94.0129 110.689 94.1949 110.754 94.4283 110.754C94.7923 110.754 95.1749 110.539 95.5763 110.11L95.6043 109.074L94.1203 109.396ZM97.3263 102.732V102.886L96.3463 104.132L96.1643 104.202C95.9123 104.174 95.5249 104.085 95.0023 103.936C94.9556 103.927 94.8016 103.889 94.5403 103.824C94.2883 103.749 94.1109 103.712 94.0083 103.712C93.9056 103.712 93.8029 103.754 93.7003 103.838C93.6069 103.922 93.5043 104.025 93.3923 104.146C93.2803 104.267 93.1963 104.361 93.1403 104.426H92.9723L92.4123 103.88V103.726L93.4063 102.48L93.5743 102.41C93.7983 102.438 94.1949 102.531 94.7643 102.69C95.2869 102.83 95.6089 102.9 95.7303 102.9C95.8423 102.9 95.9496 102.853 96.0523 102.76C96.1643 102.667 96.2763 102.559 96.3883 102.438C96.5003 102.317 96.5749 102.233 96.6123 102.186H96.7803L97.3263 102.732ZM101.91 105.364C102.862 105.364 103.59 105.644 104.094 106.204C104.598 106.764 104.85 107.571 104.85 108.626C104.85 109.765 104.58 110.637 104.038 111.244C103.497 111.841 102.718 112.14 101.7 112.14C100.748 112.14 100.02 111.86 99.5165 111.3C99.0125 110.74 98.7605 109.933 98.7605 108.878C98.7605 107.739 99.0312 106.871 99.5725 106.274C100.114 105.667 100.893 105.364 101.91 105.364ZM101.784 106.624C101.336 106.624 101.01 106.773 100.804 107.072C100.608 107.371 100.51 107.851 100.51 108.514C100.51 109.373 100.613 109.984 100.818 110.348C101.024 110.712 101.36 110.894 101.826 110.894C102.274 110.894 102.596 110.749 102.792 110.46C102.998 110.161 103.1 109.676 103.1 109.004C103.1 108.155 102.993 107.548 102.778 107.184C102.573 106.811 102.242 106.624 101.784 106.624ZM112.25 107.94C112.259 107.613 112.184 107.361 112.026 107.184C111.876 106.997 111.657 106.904 111.368 106.904C110.948 106.904 110.5 107.105 110.024 107.506V109.13L110.108 112H108.246L108.344 109.312L108.274 105.616L110.038 105.462V106.414H110.136C110.649 105.947 111.209 105.611 111.816 105.406C112.525 105.406 113.066 105.569 113.44 105.896C113.813 106.213 113.99 106.675 113.972 107.282L113.93 109.144L114.014 112H112.138L112.25 107.94ZM118.218 105.364C118.936 105.364 119.496 105.527 119.898 105.854C120.308 106.171 120.514 106.619 120.514 107.198C120.514 107.366 120.486 107.898 120.43 108.794C120.42 109.055 120.406 109.326 120.388 109.606C120.369 109.877 120.36 110.11 120.36 110.306C120.36 110.465 120.383 110.577 120.43 110.642C120.476 110.698 120.56 110.726 120.682 110.726C120.775 110.726 120.896 110.707 121.046 110.67L121.186 110.782L121.018 111.762C120.719 111.958 120.378 112.075 119.996 112.112C119.716 112.084 119.482 111.986 119.296 111.818C119.109 111.641 118.983 111.398 118.918 111.09H118.82C118.353 111.585 117.872 111.93 117.378 112.126C116.706 112.117 116.178 111.939 115.796 111.594C115.413 111.249 115.222 110.777 115.222 110.18C115.222 109.713 115.338 109.349 115.572 109.088C115.814 108.817 116.178 108.635 116.664 108.542L118.806 108.136V107.562C118.806 106.955 118.507 106.652 117.91 106.652C117.62 106.652 117.312 106.717 116.986 106.848C116.668 106.979 116.309 107.184 115.908 107.464L115.768 107.38L115.558 106.148C115.959 105.896 116.388 105.705 116.846 105.574C117.303 105.434 117.76 105.364 118.218 105.364ZM117.308 109.396C117.158 109.433 117.046 109.499 116.972 109.592C116.906 109.676 116.874 109.807 116.874 109.984C116.874 110.227 116.939 110.418 117.07 110.558C117.2 110.689 117.382 110.754 117.616 110.754C117.98 110.754 118.362 110.539 118.764 110.11L118.792 109.074L117.308 109.396ZM28.5213 121.378L28.6753 121.462L28.5633 125.13L28.6613 130.59H26.8133L26.8973 127.65V127.3H26.7853C26.4027 127.627 25.9827 127.893 25.5253 128.098C24.62 128.098 23.92 127.809 23.4253 127.23C22.9307 126.642 22.6833 125.839 22.6833 124.822C22.6833 123.711 22.9727 122.862 23.5513 122.274C24.13 121.677 24.9047 121.378 25.8753 121.378C26.3793 121.378 26.9393 121.481 27.5553 121.686L28.5213 121.378ZM25.8193 122.638C24.8953 122.638 24.4333 123.254 24.4333 124.486C24.4333 125.186 24.5407 125.723 24.7553 126.096C24.9793 126.46 25.3013 126.642 25.7213 126.642C25.9173 126.642 26.1087 126.6 26.2953 126.516C26.4913 126.423 26.692 126.273 26.8973 126.068L26.9113 125.326L26.8693 122.932C26.496 122.736 26.146 122.638 25.8193 122.638ZM36.6071 126.782L36.4391 127.762C36.0938 127.986 35.7391 128.103 35.3751 128.112C35.1044 128.065 34.8804 127.958 34.7031 127.79C34.5258 127.622 34.3904 127.379 34.2971 127.062H34.1711C33.6391 127.585 33.0884 127.925 32.5191 128.084C31.8098 128.084 31.2684 127.925 30.8951 127.608C30.5311 127.281 30.3538 126.815 30.3631 126.208L30.3911 124.556L30.3211 121.616L32.1271 121.462L32.0851 125.592C32.0758 125.919 32.1411 126.166 32.2811 126.334C32.4211 126.502 32.6311 126.586 32.9111 126.586C33.3218 126.586 33.7278 126.404 34.1291 126.04V121.616L35.9071 121.462L35.7811 126.306C35.7811 126.455 35.8044 126.563 35.8511 126.628C35.9071 126.693 35.9911 126.726 36.1031 126.726C36.2058 126.726 36.3318 126.707 36.4811 126.67L36.6071 126.782ZM40.2676 121.364C40.9862 121.364 41.5462 121.527 41.9476 121.854C42.3582 122.171 42.5636 122.619 42.5636 123.198C42.5636 123.366 42.5356 123.898 42.4796 124.794C42.4702 125.055 42.4562 125.326 42.4376 125.606C42.4189 125.877 42.4096 126.11 42.4096 126.306C42.4096 126.465 42.4329 126.577 42.4796 126.642C42.5262 126.698 42.6102 126.726 42.7316 126.726C42.8249 126.726 42.9462 126.707 43.0956 126.67L43.2356 126.782L43.0676 127.762C42.7689 127.958 42.4282 128.075 42.0456 128.112C41.7656 128.084 41.5322 127.986 41.3456 127.818C41.1589 127.641 41.0329 127.398 40.9676 127.09H40.8696C40.4029 127.585 39.9222 127.93 39.4276 128.126C38.7556 128.117 38.2282 127.939 37.8456 127.594C37.4629 127.249 37.2716 126.777 37.2716 126.18C37.2716 125.713 37.3882 125.349 37.6216 125.088C37.8642 124.817 38.2282 124.635 38.7136 124.542L40.8556 124.136V123.562C40.8556 122.955 40.5569 122.652 39.9596 122.652C39.6702 122.652 39.3622 122.717 39.0356 122.848C38.7182 122.979 38.3589 123.184 37.9576 123.464L37.8176 123.38L37.6076 122.148C38.0089 121.896 38.4382 121.705 38.8956 121.574C39.3529 121.434 39.8102 121.364 40.2676 121.364ZM39.3576 125.396C39.2082 125.433 39.0962 125.499 39.0216 125.592C38.9562 125.676 38.9236 125.807 38.9236 125.984C38.9236 126.227 38.9889 126.418 39.1196 126.558C39.2502 126.689 39.4322 126.754 39.6656 126.754C40.0296 126.754 40.4122 126.539 40.8136 126.11L40.8416 125.074L39.3576 125.396ZM48.3678 123.94C48.3771 123.613 48.3024 123.361 48.1438 123.184C47.9944 122.997 47.7751 122.904 47.4858 122.904C47.0658 122.904 46.6178 123.105 46.1418 123.506V125.13L46.2258 128H44.3638L44.4618 125.312L44.3918 121.616L46.1558 121.462V122.414H46.2538C46.7671 121.947 47.3271 121.611 47.9338 121.406C48.6431 121.406 49.1844 121.569 49.5578 121.896C49.9311 122.213 50.1084 122.675 50.0898 123.282L50.0478 125.144L50.1318 128H48.2558L48.3678 123.94ZM54.4059 126.628C54.7046 126.628 55.0173 126.549 55.3439 126.39L55.4979 126.53L55.3159 127.636C54.8399 127.879 54.3546 128.028 53.8599 128.084C52.5999 127.953 51.9699 127.337 51.9699 126.236L52.0399 125.074L52.0259 122.666H51.1579L51.0879 122.568L51.1859 121.546H52.0119V120.468L53.7059 119.922L53.8319 120.034L53.7899 121.546H55.4559L55.5119 121.644L55.4279 122.666H53.7619L53.6779 125.802C53.6779 126.101 53.7339 126.315 53.8459 126.446C53.9579 126.567 54.1446 126.628 54.4059 126.628ZM56.6304 125.312L56.5604 121.616L58.3944 121.462L58.3104 125.13L58.3944 128H56.5324L56.6304 125.312ZM57.5124 118.298C57.8017 118.298 58.0257 118.382 58.1844 118.55C58.3524 118.718 58.4364 118.951 58.4364 119.25C58.4364 119.567 58.3477 119.819 58.1704 120.006C57.9931 120.193 57.7504 120.286 57.4424 120.286C57.1344 120.286 56.8964 120.202 56.7284 120.034C56.5697 119.866 56.4904 119.628 56.4904 119.32C56.4904 119.012 56.5791 118.765 56.7564 118.578C56.9431 118.391 57.1951 118.298 57.5124 118.298ZM65.5868 125.13L65.6288 126.306C65.6288 126.465 65.6474 126.577 65.6848 126.642C65.7314 126.698 65.8108 126.726 65.9228 126.726C66.0254 126.726 66.1514 126.707 66.3008 126.67L66.4268 126.782L66.2728 127.762C65.9554 127.958 65.6101 128.075 65.2368 128.112C64.9474 128.084 64.7048 127.986 64.5088 127.818C64.3128 127.65 64.1774 127.421 64.1028 127.132H63.9908C63.5334 127.552 63.0668 127.874 62.5908 128.098C61.6761 128.098 60.9668 127.809 60.4628 127.23C59.9588 126.642 59.7068 125.83 59.7068 124.794C59.7068 123.693 59.9961 122.848 60.5748 122.26C61.1534 121.672 61.9561 121.378 62.9828 121.378C63.2534 121.378 63.5521 121.406 63.8788 121.462L63.8508 118.312L65.6988 118.172L65.5868 125.13ZM62.8568 122.638C61.9234 122.638 61.4568 123.231 61.4568 124.416C61.4568 125.153 61.5688 125.709 61.7928 126.082C62.0168 126.455 62.3434 126.642 62.7728 126.642C63.1834 126.642 63.5614 126.451 63.9068 126.068L63.9348 125.298L63.8928 122.89C63.5288 122.722 63.1834 122.638 62.8568 122.638ZM70.0859 121.364C70.8046 121.364 71.3646 121.527 71.7659 121.854C72.1766 122.171 72.3819 122.619 72.3819 123.198C72.3819 123.366 72.3539 123.898 72.2979 124.794C72.2886 125.055 72.2746 125.326 72.2559 125.606C72.2373 125.877 72.2279 126.11 72.2279 126.306C72.2279 126.465 72.2513 126.577 72.2979 126.642C72.3446 126.698 72.4286 126.726 72.5499 126.726C72.6433 126.726 72.7646 126.707 72.9139 126.67L73.0539 126.782L72.8859 127.762C72.5873 127.958 72.2466 128.075 71.8639 128.112C71.5839 128.084 71.3506 127.986 71.1639 127.818C70.9773 127.641 70.8513 127.398 70.7859 127.09H70.6879C70.2213 127.585 69.7406 127.93 69.2459 128.126C68.5739 128.117 68.0466 127.939 67.6639 127.594C67.2813 127.249 67.0899 126.777 67.0899 126.18C67.0899 125.713 67.2066 125.349 67.4399 125.088C67.6826 124.817 68.0466 124.635 68.5319 124.542L70.6739 124.136V123.562C70.6739 122.955 70.3753 122.652 69.7779 122.652C69.4886 122.652 69.1806 122.717 68.8539 122.848C68.5366 122.979 68.1773 123.184 67.7759 123.464L67.6359 123.38L67.4259 122.148C67.8273 121.896 68.2566 121.705 68.7139 121.574C69.1713 121.434 69.6286 121.364 70.0859 121.364ZM69.1759 125.396C69.0266 125.433 68.9146 125.499 68.8399 125.592C68.7746 125.676 68.7419 125.807 68.7419 125.984C68.7419 126.227 68.8073 126.418 68.9379 126.558C69.0686 126.689 69.2506 126.754 69.4839 126.754C69.8479 126.754 70.2306 126.539 70.6319 126.11L70.6599 125.074L69.1759 125.396ZM79.6962 125.13L79.7382 126.306C79.7382 126.465 79.7568 126.577 79.7942 126.642C79.8408 126.698 79.9202 126.726 80.0322 126.726C80.1348 126.726 80.2608 126.707 80.4102 126.67L80.5362 126.782L80.3822 127.762C80.0648 127.958 79.7195 128.075 79.3462 128.112C79.0568 128.084 78.8142 127.986 78.6182 127.818C78.4222 127.65 78.2868 127.421 78.2122 127.132H78.1002C77.6428 127.552 77.1762 127.874 76.7002 128.098C75.7855 128.098 75.0762 127.809 74.5722 127.23C74.0682 126.642 73.8162 125.83 73.8162 124.794C73.8162 123.693 74.1055 122.848 74.6842 122.26C75.2628 121.672 76.0655 121.378 77.0922 121.378C77.3628 121.378 77.6615 121.406 77.9882 121.462L77.9602 118.312L79.8082 118.172L79.6962 125.13ZM76.9662 122.638C76.0328 122.638 75.5662 123.231 75.5662 124.416C75.5662 125.153 75.6782 125.709 75.9022 126.082C76.1262 126.455 76.4528 126.642 76.8822 126.642C77.2928 126.642 77.6708 126.451 78.0162 126.068L78.0442 125.298L78.0022 122.89C77.6382 122.722 77.2928 122.638 76.9662 122.638ZM86.6733 124.976L82.8933 125.004C82.9773 126.171 83.57 126.754 84.6713 126.754C85.25 126.754 85.894 126.591 86.6033 126.264L86.7573 126.362L86.4773 127.748C85.768 128.009 85.1006 128.14 84.4753 128.14C83.4486 128.14 82.6413 127.841 82.0533 127.244C81.4746 126.647 81.1853 125.821 81.1853 124.766C81.1853 123.721 81.47 122.895 82.0393 122.288C82.6086 121.672 83.3786 121.364 84.3493 121.364C85.18 121.364 85.8193 121.593 86.2673 122.05C86.7246 122.498 86.9533 123.128 86.9533 123.94C86.9533 124.155 86.93 124.425 86.8833 124.752L86.6733 124.976ZM85.3293 123.73C85.3293 123.357 85.2453 123.077 85.0773 122.89C84.9093 122.694 84.662 122.596 84.3353 122.596C83.9713 122.596 83.668 122.717 83.4253 122.96C83.1826 123.193 83.0193 123.534 82.9353 123.982L85.3013 123.926L85.3293 123.73ZM95.396 124.976L91.616 125.004C91.7 126.171 92.2926 126.754 93.394 126.754C93.9726 126.754 94.6166 126.591 95.326 126.264L95.48 126.362L95.2 127.748C94.4906 128.009 93.8233 128.14 93.198 128.14C92.1713 128.14 91.364 127.841 90.776 127.244C90.1973 126.647 89.908 125.821 89.908 124.766C89.908 123.721 90.1926 122.895 90.762 122.288C91.3313 121.672 92.1013 121.364 93.072 121.364C93.9026 121.364 94.542 121.593 94.99 122.05C95.4473 122.498 95.676 123.128 95.676 123.94C95.676 124.155 95.6526 124.425 95.606 124.752L95.396 124.976ZM94.052 123.73C94.052 123.357 93.968 123.077 93.8 122.89C93.632 122.694 93.3846 122.596 93.058 122.596C92.694 122.596 92.3906 122.717 92.148 122.96C91.9053 123.193 91.742 123.534 91.658 123.982L94.024 123.926L94.052 123.73ZM103.139 123.94C103.148 123.604 103.078 123.347 102.929 123.17C102.779 122.993 102.56 122.904 102.271 122.904C101.851 122.904 101.403 123.105 100.927 123.506L100.899 125.13L100.997 128H99.1346L99.2326 125.298L99.1486 118.312L101.011 118.172L100.941 122.414H101.025C101.538 121.947 102.103 121.611 102.719 121.406C103.428 121.406 103.965 121.569 104.329 121.896C104.702 122.213 104.884 122.675 104.875 123.282L104.833 125.144L104.903 128H103.041L103.139 123.94ZM109.245 121.364C110.197 121.364 110.925 121.644 111.429 122.204C111.933 122.764 112.185 123.571 112.185 124.626C112.185 125.765 111.915 126.637 111.373 127.244C110.832 127.841 110.053 128.14 109.035 128.14C108.083 128.14 107.355 127.86 106.851 127.3C106.347 126.74 106.095 125.933 106.095 124.878C106.095 123.739 106.366 122.871 106.907 122.274C107.449 121.667 108.228 121.364 109.245 121.364ZM109.119 122.624C108.671 122.624 108.345 122.773 108.139 123.072C107.943 123.371 107.845 123.851 107.845 124.514C107.845 125.373 107.948 125.984 108.153 126.348C108.359 126.712 108.695 126.894 109.161 126.894C109.609 126.894 109.931 126.749 110.127 126.46C110.333 126.161 110.435 125.676 110.435 125.004C110.435 124.155 110.328 123.548 110.113 123.184C109.908 122.811 109.577 122.624 109.119 122.624ZM116.977 121.476C117.061 121.476 117.178 121.485 117.327 121.504V123.226L117.131 123.296C116.973 123.231 116.8 123.198 116.613 123.198C116.072 123.198 115.582 123.548 115.143 124.248V125.13L115.241 128H113.379L113.491 125.312L113.407 121.616L115.171 121.462L115.157 122.736H115.269C115.727 121.896 116.296 121.476 116.977 121.476ZM120.672 121.364C121.391 121.364 121.951 121.527 122.352 121.854C122.763 122.171 122.968 122.619 122.968 123.198C122.968 123.366 122.94 123.898 122.884 124.794C122.875 125.055 122.861 125.326 122.842 125.606C122.823 125.877 122.814 126.11 122.814 126.306C122.814 126.465 122.837 126.577 122.884 126.642C122.931 126.698 123.015 126.726 123.136 126.726C123.229 126.726 123.351 126.707 123.5 126.67L123.64 126.782L123.472 127.762C123.173 127.958 122.833 128.075 122.45 128.112C122.17 128.084 121.937 127.986 121.75 127.818C121.563 127.641 121.437 127.398 121.372 127.09H121.274C120.807 127.585 120.327 127.93 119.832 128.126C119.16 128.117 118.633 127.939 118.25 127.594C117.867 127.249 117.676 126.777 117.676 126.18C117.676 125.713 117.793 125.349 118.026 125.088C118.269 124.817 118.633 124.635 119.118 124.542L121.26 124.136V123.562C121.26 122.955 120.961 122.652 120.364 122.652C120.075 122.652 119.767 122.717 119.44 122.848C119.123 122.979 118.763 123.184 118.362 123.464L118.222 123.38L118.012 122.148C118.413 121.896 118.843 121.705 119.3 121.574C119.757 121.434 120.215 121.364 120.672 121.364ZM119.762 125.396C119.613 125.433 119.501 125.499 119.426 125.592C119.361 125.676 119.328 125.807 119.328 125.984C119.328 126.227 119.393 126.418 119.524 126.558C119.655 126.689 119.837 126.754 120.07 126.754C120.434 126.754 120.817 126.539 121.218 126.11L121.246 125.074L119.762 125.396ZM121.89 117.878L122.562 118.886L122.534 119.068C122.329 119.199 122.175 119.292 122.072 119.348C120.905 120.067 120.149 120.524 119.804 120.72L119.622 120.706L119.174 120.006C120.257 119.138 121.101 118.424 121.708 117.864L121.89 117.878ZM128.366 121.476C128.45 121.476 128.567 121.485 128.716 121.504V123.226L128.52 123.296C128.361 123.231 128.189 123.198 128.002 123.198C127.461 123.198 126.971 123.548 126.532 124.248V125.13L126.63 128H124.768L124.88 125.312L124.796 121.616L126.56 121.462L126.546 122.736H126.658C127.115 121.896 127.685 121.476 128.366 121.476ZM129.761 125.312L129.691 121.616L131.525 121.462L131.441 125.13L131.525 128H129.663L129.761 125.312ZM130.643 118.298C130.933 118.298 131.157 118.382 131.315 118.55C131.483 118.718 131.567 118.951 131.567 119.25C131.567 119.567 131.479 119.819 131.301 120.006C131.124 120.193 130.881 120.286 130.573 120.286C130.265 120.286 130.027 120.202 129.859 120.034C129.701 119.866 129.621 119.628 129.621 119.32C129.621 119.012 129.71 118.765 129.887 118.578C130.074 118.391 130.326 118.298 130.643 118.298ZM135.988 121.364C136.94 121.364 137.668 121.644 138.172 122.204C138.676 122.764 138.928 123.571 138.928 124.626C138.928 125.765 138.657 126.637 138.116 127.244C137.574 127.841 136.795 128.14 135.778 128.14C134.826 128.14 134.098 127.86 133.594 127.3C133.09 126.74 132.838 125.933 132.838 124.878C132.838 123.739 133.108 122.871 133.65 122.274C134.191 121.667 134.97 121.364 135.988 121.364ZM135.862 122.624C135.414 122.624 135.087 122.773 134.882 123.072C134.686 123.371 134.588 123.851 134.588 124.514C134.588 125.373 134.69 125.984 134.896 126.348C135.101 126.712 135.437 126.894 135.904 126.894C136.352 126.894 136.674 126.749 136.87 126.46C137.075 126.161 137.178 125.676 137.178 125.004C137.178 124.155 137.07 123.548 136.856 123.184C136.65 122.811 136.319 122.624 135.862 122.624ZM142.388 121.378C143.022 121.378 143.62 121.485 144.18 121.7L143.928 123.072L143.704 123.142C143.433 122.965 143.162 122.829 142.892 122.736C142.621 122.643 142.383 122.596 142.178 122.596C141.954 122.596 141.776 122.657 141.646 122.778C141.515 122.89 141.45 123.03 141.45 123.198C141.45 123.394 141.534 123.553 141.702 123.674C141.879 123.795 142.154 123.931 142.528 124.08C142.901 124.229 143.209 124.374 143.452 124.514C143.694 124.654 143.9 124.85 144.068 125.102C144.245 125.345 144.334 125.648 144.334 126.012C144.334 126.385 144.236 126.735 144.04 127.062C143.853 127.379 143.564 127.641 143.172 127.846C142.78 128.042 142.299 128.14 141.73 128.14C141.058 128.14 140.362 128 139.644 127.72L139.854 126.264L140.036 126.152C140.325 126.395 140.647 126.591 141.002 126.74C141.356 126.88 141.669 126.95 141.94 126.95C142.192 126.95 142.388 126.889 142.528 126.768C142.668 126.637 142.738 126.483 142.738 126.306C142.738 126.11 142.649 125.951 142.472 125.83C142.304 125.709 142.033 125.573 141.66 125.424C141.277 125.256 140.964 125.107 140.722 124.976C140.479 124.836 140.269 124.64 140.092 124.388C139.924 124.136 139.84 123.823 139.84 123.45C139.84 122.843 140.068 122.349 140.526 121.966C140.983 121.574 141.604 121.378 142.388 121.378ZM56.104 141.312L56.034 137.616L57.868 137.462L57.784 141.13L57.868 144H56.006L56.104 141.312ZM56.986 134.298C57.2754 134.298 57.4994 134.382 57.658 134.55C57.826 134.718 57.91 134.951 57.91 135.25C57.91 135.567 57.8214 135.819 57.644 136.006C57.4667 136.193 57.224 136.286 56.916 136.286C56.608 136.286 56.37 136.202 56.202 136.034C56.0434 135.866 55.964 135.628 55.964 135.32C55.964 135.012 56.0527 134.765 56.23 134.578C56.4167 134.391 56.6687 134.298 56.986 134.298ZM63.6324 139.94C63.6417 139.613 63.5671 139.361 63.4084 139.184C63.2591 138.997 63.0397 138.904 62.7504 138.904C62.3304 138.904 61.8824 139.105 61.4064 139.506V141.13L61.4904 144H59.6284L59.7264 141.312L59.6564 137.616L61.4204 137.462V138.414H61.5184C62.0317 137.947 62.5917 137.611 63.1984 137.406C63.9077 137.406 64.4491 137.569 64.8224 137.896C65.1957 138.213 65.3731 138.675 65.3544 139.282L65.3124 141.144L65.3964 144H63.5204L63.6324 139.94ZM72.4706 141.13L72.5126 142.306C72.5126 142.465 72.5312 142.577 72.5686 142.642C72.6152 142.698 72.6946 142.726 72.8066 142.726C72.9092 142.726 73.0352 142.707 73.1846 142.67L73.3106 142.782L73.1566 143.762C72.8392 143.958 72.4939 144.075 72.1206 144.112C71.8312 144.084 71.5886 143.986 71.3926 143.818C71.1966 143.65 71.0612 143.421 70.9866 143.132H70.8746C70.4172 143.552 69.9506 143.874 69.4746 144.098C68.5599 144.098 67.8506 143.809 67.3466 143.23C66.8426 142.642 66.5906 141.83 66.5906 140.794C66.5906 139.693 66.8799 138.848 67.4586 138.26C68.0372 137.672 68.8399 137.378 69.8666 137.378C70.1372 137.378 70.4359 137.406 70.7626 137.462L70.7346 134.312L72.5826 134.172L72.4706 141.13ZM69.7406 138.638C68.8072 138.638 68.3406 139.231 68.3406 140.416C68.3406 141.153 68.4526 141.709 68.6766 142.082C68.9006 142.455 69.2272 142.642 69.6566 142.642C70.0672 142.642 70.4452 142.451 70.7906 142.068L70.8186 141.298L70.7766 138.89C70.4126 138.722 70.0672 138.638 69.7406 138.638ZM74.5337 141.312L74.4637 137.616L76.2977 137.462L76.2137 141.13L76.2977 144H74.4357L74.5337 141.312ZM75.4157 134.298C75.705 134.298 75.929 134.382 76.0877 134.55C76.2557 134.718 76.3397 134.951 76.3397 135.25C76.3397 135.567 76.251 135.819 76.0737 136.006C75.8964 136.193 75.6537 136.286 75.3457 136.286C75.0377 136.286 74.7997 136.202 74.6317 136.034C74.473 135.866 74.3937 135.628 74.3937 135.32C74.3937 135.012 74.4824 134.765 74.6597 134.578C74.8464 134.391 75.0984 134.298 75.4157 134.298ZM80.7321 137.364C81.0401 137.364 81.3434 137.397 81.6421 137.462C81.9501 137.518 82.2208 137.602 82.4541 137.714L82.1461 139.198L81.9921 139.268C81.5161 139.007 81.0914 138.876 80.7181 138.876C80.2888 138.876 79.9574 139.03 79.7241 139.338C79.4908 139.646 79.3741 140.085 79.3741 140.654C79.3741 141.307 79.5001 141.807 79.7521 142.152C80.0041 142.497 80.3634 142.67 80.8301 142.67C81.2501 142.67 81.7168 142.553 82.2301 142.32L82.3701 142.432L82.1881 143.874C81.6281 144.051 81.0541 144.14 80.4661 144.14C79.5701 144.14 78.8701 143.851 78.3661 143.272C77.8621 142.684 77.6101 141.867 77.6101 140.822C77.6101 139.739 77.8854 138.895 78.4361 138.288C78.9868 137.672 79.7521 137.364 80.7321 137.364ZM85.8701 137.364C86.5888 137.364 87.1488 137.527 87.5501 137.854C87.9608 138.171 88.1661 138.619 88.1661 139.198C88.1661 139.366 88.1381 139.898 88.0821 140.794C88.0728 141.055 88.0588 141.326 88.0401 141.606C88.0214 141.877 88.0121 142.11 88.0121 142.306C88.0121 142.465 88.0354 142.577 88.0821 142.642C88.1288 142.698 88.2128 142.726 88.3341 142.726C88.4274 142.726 88.5488 142.707 88.6981 142.67L88.8381 142.782L88.6701 143.762C88.3714 143.958 88.0308 144.075 87.6481 144.112C87.3681 144.084 87.1348 143.986 86.9481 143.818C86.7614 143.641 86.6354 143.398 86.5701 143.09H86.4721C86.0054 143.585 85.5248 143.93 85.0301 144.126C84.3581 144.117 83.8308 143.939 83.4481 143.594C83.0654 143.249 82.8741 142.777 82.8741 142.18C82.8741 141.713 82.9908 141.349 83.2241 141.088C83.4668 140.817 83.8308 140.635 84.3161 140.542L86.4581 140.136V139.562C86.4581 138.955 86.1594 138.652 85.5621 138.652C85.2728 138.652 84.9648 138.717 84.6381 138.848C84.3208 138.979 83.9614 139.184 83.5601 139.464L83.4201 139.38L83.2101 138.148C83.6114 137.896 84.0408 137.705 84.4981 137.574C84.9554 137.434 85.4128 137.364 85.8701 137.364ZM84.9601 141.396C84.8108 141.433 84.6988 141.499 84.6241 141.592C84.5588 141.676 84.5261 141.807 84.5261 141.984C84.5261 142.227 84.5914 142.418 84.7221 142.558C84.8528 142.689 85.0348 142.754 85.2681 142.754C85.6321 142.754 86.0148 142.539 86.4161 142.11L86.4441 141.074L84.9601 141.396ZM95.4803 141.13L95.5223 142.306C95.5223 142.465 95.541 142.577 95.5783 142.642C95.625 142.698 95.7043 142.726 95.8163 142.726C95.919 142.726 96.045 142.707 96.1943 142.67L96.3203 142.782L96.1663 143.762C95.849 143.958 95.5037 144.075 95.1303 144.112C94.841 144.084 94.5983 143.986 94.4023 143.818C94.2063 143.65 94.071 143.421 93.9963 143.132H93.8843C93.427 143.552 92.9603 143.874 92.4843 144.098C91.5697 144.098 90.8603 143.809 90.3563 143.23C89.8523 142.642 89.6003 141.83 89.6003 140.794C89.6003 139.693 89.8897 138.848 90.4683 138.26C91.047 137.672 91.8497 137.378 92.8763 137.378C93.147 137.378 93.4457 137.406 93.7723 137.462L93.7443 134.312L95.5923 134.172L95.4803 141.13ZM92.7503 138.638C91.817 138.638 91.3503 139.231 91.3503 140.416C91.3503 141.153 91.4623 141.709 91.6863 142.082C91.9103 142.455 92.237 142.642 92.6663 142.642C93.077 142.642 93.455 142.451 93.8003 142.068L93.8283 141.298L93.7863 138.89C93.4223 138.722 93.077 138.638 92.7503 138.638ZM100.119 137.364C101.071 137.364 101.799 137.644 102.303 138.204C102.807 138.764 103.059 139.571 103.059 140.626C103.059 141.765 102.789 142.637 102.247 143.244C101.706 143.841 100.927 144.14 99.9095 144.14C98.9575 144.14 98.2295 143.86 97.7255 143.3C97.2215 142.74 96.9695 141.933 96.9695 140.878C96.9695 139.739 97.2401 138.871 97.7815 138.274C98.3228 137.667 99.1021 137.364 100.119 137.364ZM99.9935 138.624C99.5455 138.624 99.2188 138.773 99.0135 139.072C98.8175 139.371 98.7195 139.851 98.7195 140.514C98.7195 141.373 98.8221 141.984 99.0275 142.348C99.2328 142.712 99.5688 142.894 100.035 142.894C100.483 142.894 100.805 142.749 101.001 142.46C101.207 142.161 101.309 141.676 101.309 141.004C101.309 140.155 101.202 139.548 100.987 139.184C100.782 138.811 100.451 138.624 99.9935 138.624ZM106.519 137.378C107.154 137.378 107.751 137.485 108.311 137.7L108.059 139.072L107.835 139.142C107.565 138.965 107.294 138.829 107.023 138.736C106.753 138.643 106.515 138.596 106.309 138.596C106.085 138.596 105.908 138.657 105.777 138.778C105.647 138.89 105.581 139.03 105.581 139.198C105.581 139.394 105.665 139.553 105.833 139.674C106.011 139.795 106.286 139.931 106.659 140.08C107.033 140.229 107.341 140.374 107.583 140.514C107.826 140.654 108.031 140.85 108.199 141.102C108.377 141.345 108.465 141.648 108.465 142.012C108.465 142.385 108.367 142.735 108.171 143.062C107.985 143.379 107.695 143.641 107.303 143.846C106.911 144.042 106.431 144.14 105.861 144.14C105.189 144.14 104.494 144 103.775 143.72L103.985 142.264L104.167 142.152C104.457 142.395 104.779 142.591 105.133 142.74C105.488 142.88 105.801 142.95 106.071 142.95C106.323 142.95 106.519 142.889 106.659 142.768C106.799 142.637 106.869 142.483 106.869 142.306C106.869 142.11 106.781 141.951 106.603 141.83C106.435 141.709 106.165 141.573 105.791 141.424C105.409 141.256 105.096 141.107 104.853 140.976C104.611 140.836 104.401 140.64 104.223 140.388C104.055 140.136 103.971 139.823 103.971 139.45C103.971 138.843 104.2 138.349 104.657 137.966C105.115 137.574 105.735 137.378 106.519 137.378ZM110.315 142.11C110.604 142.11 110.828 142.194 110.987 142.362C111.155 142.53 111.239 142.763 111.239 143.062C111.239 143.379 111.15 143.631 110.973 143.818C110.795 144.005 110.553 144.098 110.245 144.098C109.937 144.098 109.699 144.014 109.531 143.846C109.372 143.678 109.293 143.44 109.293 143.132C109.293 142.824 109.381 142.577 109.559 142.39C109.745 142.203 109.997 142.11 110.315 142.11Z" fill="white"/>
<defs>
<filter id="filter0_b_206:37117" x="3" y="67" width="161" height="97" filterUnits="userSpaceOnUse" color-interpolation-filters="sRGB">
<feFlood flood-opacity="0" result="BackgroundImageFix"/>
<feGaussianBlur in="BackgroundImage" stdDeviation="5"/>
<feComposite in2="SourceAlpha" operator="in" result="effect1_backgroundBlur_206:37117"/>
<feBlend mode="normal" in="SourceGraphic" in2="effect1_backgroundBlur_206:37117" result="shape"/>
</filter>
</defs>
</svg>
