<svg width="167" height="167" viewBox="0 0 167 167" fill="none" xmlns="http://www.w3.org/2000/svg">
<mask id="mask0_206:37213" style="mask-type:alpha" maskUnits="userSpaceOnUse" x="0" y="0" width="167" height="167">
<rect x="1" y="1" width="165" height="165" rx="8" fill="#5988D6" stroke="#EDE6FC" stroke-opacity="0.3"/>
</mask>
<g mask="url(#mask0_206:37213)">
<rect x="1" y="1" width="165" height="165" rx="8" fill="#D97A7A" stroke="#EDE6FC" stroke-opacity="0.3"/>
<path opacity="0.5" d="M56.7644 49.3902L67.7239 56.467C67.7239 56.467 91.1548 20.8993 91.8074 19.522C92.46 18.1447 90.5481 16.7575 90.0398 15.7278C89.5315 14.6981 90.8662 13.6028 90.8662 13.6028L89.525 12.1959L88.1345 11.2974L86.3014 10.6579C86.3014 10.6579 85.8521 12.3206 84.7043 12.2812C83.5566 12.2418 81.5004 11.0744 80.5166 12.2353C80.3986 12.373 79.969 13.0125 79.3 14.0324L78.9721 14.5308L77.6079 16.6329L77.2799 17.1313L75.9256 19.24L75.5976 19.7384C75.1648 20.4139 74.7122 21.119 74.2465 21.8503L73.9186 22.3488C73.4825 23.0374 73.0299 23.7425 72.5708 24.4607L72.2429 24.9624L70.8951 27.0743L70.5671 27.576C70.1211 28.2745 69.6751 28.9829 69.2226 29.6879L68.8947 30.1897L67.5501 32.3048C67.4419 32.4721 67.337 32.6328 67.2222 32.8066C61.8277 41.3886 56.7644 49.3902 56.7644 49.3902Z" fill="white"/>
<path opacity="0.85" d="M90.1086 22.2471L90.2628 22.0077L90.1086 22.2471Z" fill="#7BAED7"/>
<path opacity="0.85" d="M89.807 22.739L89.9808 22.4701L89.807 22.739Z" fill="#7BAED7"/>
<path opacity="0.85" d="M90.3809 21.8241L90.5383 21.5814L90.3809 21.8241Z" fill="#7BAED7"/>
<path opacity="0.85" d="M90.6465 21.4109L90.7875 21.1879L90.6465 21.4109Z" fill="#7BAED7"/>
<path opacity="0.85" d="M89.4463 23.2834L89.6562 22.9554L89.4463 23.2834Z" fill="#7BAED7"/>
<path opacity="0.85" d="M88.6855 24.4606L89.325 23.4768L88.6855 24.4606Z" fill="#7BAED7"/>
<path opacity="0.85" d="M91.0991 20.696C91.1352 20.6337 91.1713 20.5779 91.2073 20.5222C91.1713 20.591 91.1352 20.6337 91.0991 20.696Z" fill="#7BAED7"/>
<path opacity="0.85" d="M90.8826 21.037L91.0105 20.8337L90.8826 21.037Z" fill="#7BAED7"/>
<path opacity="0.85" d="M91.686 19.7417C91.7057 19.7089 91.7221 19.6826 91.7352 19.6564C91.7221 19.6826 91.7057 19.7089 91.686 19.7417Z" fill="#7BAED7"/>
<path d="M89.4792 14.7637C89.3185 15.2818 89.2594 15.7475 89.407 16.0459C89.6381 16.4636 89.9153 16.8541 90.2334 17.21C90.9319 18.0659 91.4074 18.7054 91.1713 19.2104C90.8762 19.8138 86.0195 27.2907 80.156 36.2433C80.0117 36.1482 79.8674 36.0531 79.733 35.9482C78.8279 35.2923 78.0179 34.5053 77.1653 33.7871C76.3153 33.045 75.3961 32.3862 74.4205 31.8195C73.5645 31.3473 72.6332 31.0095 71.7347 30.6225C71.1671 30.3794 70.6141 30.1035 70.0786 29.7961L71.5543 27.4744L74.8763 22.2307L76.2241 20.1188L76.552 19.6236C77.0275 18.8759 77.4834 18.1676 77.9064 17.515L78.2343 17.0133L79.5985 14.9145L79.9265 14.4193C80.8643 12.9895 81.0513 12.737 81.0906 12.6911C81.1529 12.6151 81.2328 12.5554 81.3235 12.5173C81.7826 12.314 82.586 12.5173 83.2911 12.7206C83.7475 12.8639 84.2181 12.9574 84.6946 12.9994C84.9697 13.0065 85.2429 12.9528 85.4948 12.842C85.8436 12.611 86.1434 12.3135 86.3769 11.9664C86.6393 11.6384 86.8951 11.2548 87.1082 10.9236L88.1478 11.2908L89.5382 12.1861L90.276 12.96C89.9475 13.5314 89.6804 14.136 89.4792 14.7637Z" fill="#D69D9D"/>
<path opacity="0.85" d="M91.5254 20.0073L91.4467 20.1352L91.5254 20.0073Z" fill="#7BAED7"/>
<path opacity="0.85" d="M88.2133 25.1821C88.2788 25.0837 88.3412 24.9853 88.4035 24.887C88.3412 24.9919 88.2788 25.0903 88.2133 25.1821Z" fill="#7BAED7"/>
<path opacity="0.85" d="M91.2892 20.391L91.3777 20.2467L91.2892 20.391Z" fill="#7BAED7"/>
<path opacity="0.85" d="M91.5812 19.9155L91.6435 19.8105L91.5812 19.9155Z" fill="#7BAED7"/>
<path opacity="0.85" d="M83.5927 32.2884L83.8288 31.9277L83.5927 32.2884Z" fill="#7BAED7"/>
<path opacity="0.85" d="M83.1926 32.8984L83.3205 32.7049L83.1926 32.8984Z" fill="#7BAED7"/>
<path opacity="0.85" d="M84.1469 31.4391L84.3239 31.1669L84.1469 31.4391Z" fill="#7BAED7"/>
<path opacity="0.85" d="M84.6584 30.6553L84.806 30.429L84.6584 30.6553Z" fill="#7BAED7"/>
<path opacity="0.85" d="M70.6065 27.576L69.4489 29.3961L70.6065 27.576Z" fill="#7BAED7"/>
<path opacity="0.85" d="M91.8074 19.522C91.7939 19.5513 91.7785 19.5798 91.7615 19.6072C91.7746 19.5712 91.7976 19.5449 91.8074 19.522Z" fill="#7BAED7"/>
<path opacity="0.85" d="M87.8197 25.7986L87.9935 25.5297L87.8197 25.7986Z" fill="#7BAED7"/>
<path opacity="0.85" d="M86.5277 27.7793L86.7048 27.5071L86.5277 27.7793Z" fill="#7BAED7"/>
<path opacity="0.85" d="M86.9474 27.1497L87.1737 26.8021L86.9474 27.1497Z" fill="#7BAED7"/>
<path opacity="0.85" d="M87.3967 26.4479L87.5705 26.179L87.3967 26.4479Z" fill="#7BAED7"/>
<path opacity="0.85" d="M86.0587 28.5041L86.2424 28.2253L86.0587 28.5041Z" fill="#7BAED7"/>
<path opacity="0.85" d="M85.0979 29.9798L85.3406 29.6092L85.0979 29.9798Z" fill="#7BAED7"/>
<path opacity="0.85" d="M85.5438 29.2813L85.7996 28.8878L85.5438 29.2813Z" fill="#7BAED7"/>
<path d="M55.943 70.0377L77.897 36.024L71.502 31.8964L49.5481 65.9101L55.943 70.0377Z" fill="white"/>
<path d="M55.9415 70.0348L65.3544 55.4512L62.0453 53.3154L52.6324 67.8989L55.9415 70.0348Z" fill="#D8DDE2"/>
<path d="M92.1385 5.80777L102.813 -10.8906C102.813 -10.8906 104.22 -11.7006 104.033 -11.4055C103.846 -11.1103 92.555 6.54234 92.555 6.54234L92.1385 5.80777Z" fill="#B1BAC5"/>
<path d="M46.1917 65.7934C45.6014 65.1802 46.6377 63.2224 47.9888 64.1538C49.3399 65.0851 57.7645 69.6958 58.1547 71.2109C58.463 72.3685 57.23 73.0539 56.6003 72.7161C55.9707 72.3783 47.0804 66.7182 46.1917 65.7934Z" fill="#25405D"/>
<path d="M76.4634 38.2404L77.8965 36.0138L71.5018 31.8851L70.741 33.0787L76.4634 38.2404Z" fill="#B5BBC5"/>
<path d="M63.2214 58.7428L64.6545 56.5161L58.2598 52.3875L57.4957 53.5779L63.2214 58.7428Z" fill="#B1BAC5"/>
<path d="M69.1472 31.2325C69.1472 31.2325 79.2869 37.696 79.182 37.7419C79.077 37.7879 80.3953 35.8039 80.3953 35.8039C80.3953 35.8039 77.9326 30.8324 77.0865 30.1339C76.2404 29.4354 70.413 29.2288 70.413 29.2288L69.1472 31.2325Z" fill="#415972"/>
<path opacity="0.9" d="M90.0398 15.7245C90.5481 16.7542 92.4633 18.1479 91.8041 19.522C91.145 20.896 67.7239 56.467 67.7239 56.467L56.7644 49.3902C56.7644 49.3902 61.8277 41.3886 67.2812 32.8066L67.6092 32.3048C68.0552 31.603 68.5077 30.898 68.9537 30.1896L69.2816 29.6912L70.6262 27.5793C70.7344 27.412 70.8426 27.2514 70.9541 27.0743C71.4099 26.3627 71.8625 25.6543 72.3019 24.9624L72.6298 24.4606C73.0857 23.7392 73.5382 23.0341 73.9744 22.352L74.3023 21.8503C74.768 21.119 75.2205 20.4139 75.6534 19.7384L75.9813 19.2367L77.3324 17.1313L77.6603 16.6329C78.1719 15.8425 78.6277 15.1342 79.0213 14.5308L79.3492 14.0324C80.0051 13.0125 80.4478 12.373 80.5658 12.2353C81.5496 11.0711 83.609 12.2353 84.7535 12.2845C84.9841 12.2639 85.2066 12.189 85.4027 12.0658C85.5988 11.9427 85.7629 11.7749 85.8816 11.5761C86.1477 11.2086 86.368 10.8099 86.5375 10.389C86.5965 10.2349 86.6293 10.1365 86.6293 10.1365L87.4787 10.4644C87.4164 10.5595 87.3475 10.6645 87.2688 10.7924C87.0196 11.1662 86.6949 11.6155 86.3834 11.9992C86.153 12.3304 85.8667 12.6189 85.5373 12.8518C85.2854 12.9626 85.0122 13.0164 84.7371 13.0092C84.2606 12.9672 83.79 12.8737 83.3336 12.7305C82.622 12.5403 81.8185 12.3238 81.366 12.5271C81.2754 12.5652 81.1954 12.6249 81.1332 12.7009C81.0938 12.7469 80.9069 12.9994 79.969 14.4292L79.6411 14.9243L78.2768 17.0231L77.9489 17.5248C77.5259 18.1807 77.0701 18.8858 76.5945 19.6335L76.2666 20.1286L74.8762 22.2307L71.5378 27.4776L67.8912 33.2066C63.3296 40.3884 59.037 47.1635 57.7613 49.1836L67.5075 55.4668C76.8864 41.2246 90.6465 20.2369 91.1482 19.2104C91.3844 18.7054 90.9088 18.0659 90.2104 17.21C89.8922 16.8541 89.615 16.4636 89.384 16.0459C89.2364 15.7442 89.2987 15.2621 89.4659 14.7341C89.6712 14.1227 89.9359 13.5329 90.2563 12.9731L90.8564 13.606C90.8564 13.606 89.9939 14.3144 89.925 15.1309C89.9026 15.3358 89.9427 15.5427 90.0398 15.7245Z" fill="white"/>
<g style="mix-blend-mode:multiply">
<path d="M89.9381 15.1342C89.9153 15.3366 89.9505 15.5414 90.0398 15.7245C90.5481 16.7542 92.4632 18.1479 91.8041 19.5219C91.1449 20.896 67.7239 56.4669 67.7239 56.4669L62.3917 53.0236L88.0197 13.465L89.0429 11.8844L89.525 12.2123L90.9941 13.4781C90.9219 13.524 90.0267 14.3078 89.9381 15.1342Z" fill="#DEE2E7"/>
</g>
<g style="mix-blend-mode:multiply">
<path d="M90.9908 13.4683C90.922 13.5241 90.0267 14.3078 89.9382 15.1342L89.4791 14.7374L88.0263 13.4716L86.3342 12.0057L85.839 11.5827C86.1051 11.2151 86.3254 10.8165 86.4949 10.3956L87.2262 10.7989L88.1476 11.3072L89.056 11.8909L89.5381 12.2189L90.9908 13.4683Z" fill="#D6DBE0"/>
</g>
<path d="M85.6455 10.6218C85.6455 10.6218 85.7767 10.0906 86.6687 9.35929C87.7016 8.50994 91.8303 5.39785 92.1943 5.47983C92.5583 5.56181 93.0962 5.88975 93.0666 6.30294C93.0437 6.65055 91.932 12.3402 91.6762 13.2158C91.4204 14.0914 90.9744 14.0651 90.9744 14.0651L85.6455 10.6218Z" fill="#25405D"/>
<path d="M53.4064 49.0196C52.4981 48.1735 53.5999 45.9436 55.6069 47.3143C57.6138 48.6851 69.8917 55.6766 70.6918 57.5918C71.2985 59.0609 69.7244 59.7004 68.8062 59.1855C67.888 58.6707 54.7772 50.292 53.4064 49.0196Z" fill="#25405D"/>
<path d="M82.1462 15.9766L82.1835 15.9187C82.2659 15.7908 82.229 15.6203 82.101 15.5379L80.8135 14.7088C80.6856 14.6264 80.5151 14.6633 80.4327 14.7912L80.3954 14.8491C80.3131 14.9771 80.35 15.1475 80.4779 15.2299L81.7655 16.059C81.8934 16.1414 82.0638 16.1045 82.1462 15.9766Z" fill="#25405D"/>
<path d="M80.9235 17.8564L80.8844 17.9171C80.8448 17.9785 80.7825 18.0216 80.711 18.0371C80.6396 18.0525 80.565 18.0389 80.5036 17.9993L79.2165 17.1695C79.1551 17.1299 79.1119 17.0676 79.0965 16.9961C79.0811 16.9247 79.0946 16.8501 79.1342 16.7887L79.1733 16.7281C79.2129 16.6667 79.2753 16.6235 79.3467 16.6081C79.4181 16.5927 79.4927 16.6062 79.5541 16.6458L80.844 17.4774C80.874 17.4968 80.9 17.5219 80.9203 17.5513C80.9407 17.5807 80.955 17.6138 80.9626 17.6487C80.9701 17.6837 80.9707 17.7197 80.9643 17.7549C80.9579 17.7901 80.9446 17.8236 80.9253 17.8537L80.9235 17.8564Z" fill="#25405D"/>
<path d="M79.6473 19.8273L79.6083 19.8879C79.5692 19.9486 79.5076 19.9913 79.4371 20.0066C79.3666 20.0219 79.2928 20.0086 79.2321 19.9695L77.9415 19.1391C77.8801 19.0995 77.8368 19.0372 77.8213 18.9658C77.8059 18.8944 77.8194 18.8198 77.8589 18.7584L77.8979 18.6977C77.9173 18.6676 77.9424 18.6417 77.9717 18.6213C78.0011 18.6009 78.0342 18.5866 78.0691 18.579C78.1041 18.5714 78.1401 18.5708 78.1753 18.5771C78.2105 18.5835 78.2441 18.5967 78.2741 18.6161L79.5647 19.4466C79.6262 19.4861 79.6694 19.5484 79.6849 19.6198C79.7004 19.6912 79.6869 19.7658 79.6473 19.8273Z" fill="#25405D"/>
<path d="M79.2806 22.4479L79.3179 22.39C79.4003 22.2621 79.3633 22.0916 79.2354 22.0093L77.0022 20.5711C76.8743 20.4888 76.7038 20.5257 76.6214 20.6536L76.5841 20.7115C76.5018 20.8394 76.5387 21.0099 76.6666 21.0922L78.8999 22.5304C79.0278 22.6127 79.1982 22.5758 79.2806 22.4479Z" fill="#25405D"/>
<path d="M77.0587 23.7994L77.096 23.7415C77.1783 23.6136 77.1414 23.4431 77.0135 23.3608L75.7259 22.5316C75.598 22.4493 75.4276 22.4862 75.3452 22.6141L75.3079 22.672C75.2256 22.7999 75.2625 22.9704 75.3904 23.0527L76.678 23.8819C76.8059 23.9642 76.9763 23.9273 77.0587 23.7994Z" fill="#25405D"/>
<path d="M75.7776 25.7336L75.8148 25.6757C75.8972 25.5478 75.8603 25.3773 75.7324 25.2949L74.4448 24.4658C74.3169 24.3834 74.1464 24.4203 74.0641 24.5483L74.0268 24.6062C73.9444 24.7341 73.9813 24.9045 74.1092 24.9869L75.3968 25.816C75.5247 25.8984 75.6952 25.8615 75.7776 25.7336Z" fill="#25405D"/>
<path d="M74.696 27.6569L74.657 27.7175C74.618 27.7781 74.5566 27.8208 74.4861 27.8361C74.4157 27.8514 74.342 27.8381 74.2814 27.7991L72.9922 26.9704C72.9309 26.9309 72.8877 26.8687 72.8722 26.7974C72.8567 26.7261 72.8701 26.6516 72.9096 26.5902L72.9486 26.5296C72.9875 26.469 73.049 26.4263 73.1194 26.411C73.1899 26.3957 73.2635 26.409 73.3242 26.448L74.6133 27.2767C74.6437 27.2963 74.67 27.3216 74.6906 27.3513C74.7112 27.3809 74.7257 27.4144 74.7334 27.4497C74.7411 27.485 74.7417 27.5214 74.7353 27.557C74.7289 27.5925 74.7155 27.6265 74.696 27.6569Z" fill="#25405D"/>
<path d="M74.2702 30.3184L74.3075 30.2605C74.3899 30.1326 74.353 29.9621 74.2251 29.8797L71.9918 28.4416C71.8639 28.3592 71.6934 28.3961 71.6111 28.5241L71.5738 28.5819C71.4914 28.7099 71.5283 28.8803 71.6562 28.9627L73.8895 30.4008C74.0174 30.4832 74.1879 30.4463 74.2702 30.3184Z" fill="#25405D"/>
<path d="M72.1311 31.6635L72.1683 31.6057C72.2504 31.4779 72.2134 31.3077 72.0856 31.2255L70.7992 30.3985C70.6714 30.3164 70.5012 30.3534 70.4191 30.4812L70.3819 30.539C70.2997 30.6668 70.3367 30.837 70.4645 30.9192L71.7509 31.7461C71.8787 31.8283 72.0489 31.7913 72.1311 31.6635Z" fill="#25405D"/>
<path d="M70.7132 33.5571L70.7505 33.4992C70.8327 33.3712 70.7957 33.2007 70.6677 33.1185L69.3794 32.2905C69.2514 32.2082 69.081 32.2453 68.9987 32.3733L68.9615 32.4312C68.8792 32.5592 68.9163 32.7296 69.0443 32.8119L70.3326 33.6399C70.4606 33.7221 70.631 33.6851 70.7132 33.5571Z" fill="#25405D"/>
<path d="M69.4461 35.5285L69.4834 35.4706C69.5658 35.3427 69.5289 35.1722 69.401 35.0899L68.1134 34.2607C67.9855 34.1784 67.815 34.2153 67.7327 34.3432L67.6954 34.4011C67.613 34.529 67.6499 34.6994 67.7778 34.7818L69.0654 35.611C69.1933 35.6933 69.3638 35.6564 69.4461 35.5285Z" fill="#25405D"/>
<path d="M69.1622 38.0162L69.1178 38.0851C69.0783 38.1465 69.0159 38.1897 68.9445 38.2052C68.8731 38.2206 68.7985 38.2071 68.7371 38.1675L66.5011 36.7276C66.471 36.7083 66.4451 36.6832 66.4247 36.6538C66.4043 36.6244 66.39 36.5913 66.3824 36.5564C66.3748 36.5215 66.3742 36.4854 66.3806 36.4502C66.387 36.415 66.4002 36.3815 66.4196 36.3514L66.4586 36.2908C66.4782 36.2604 66.5036 36.2341 66.5333 36.2135C66.5631 36.1929 66.5966 36.1783 66.6319 36.1707C66.6673 36.163 66.7038 36.1624 66.7394 36.1689C66.775 36.1753 66.809 36.1887 66.8394 36.2083L69.0754 37.6482C69.1058 37.6678 69.1321 37.6932 69.1527 37.7229C69.1733 37.7527 69.1878 37.7862 69.1955 37.8215C69.2032 37.8569 69.2038 37.8934 69.1973 37.929C69.1909 37.9646 69.1775 37.9985 69.1579 38.029L69.1622 38.0162Z" fill="#25405D"/>
<path d="M66.9867 39.4762L67.0239 39.4183C67.1062 39.2903 67.0691 39.1199 66.9411 39.0376L65.6528 38.2096C65.5248 38.1273 65.3544 38.1644 65.2722 38.2924L65.2349 38.3503C65.1527 38.4783 65.1897 38.6487 65.3177 38.731L66.606 39.559C66.734 39.6413 66.9044 39.6042 66.9867 39.4762Z" fill="#25405D"/>
<path d="M65.86 41.5593L65.8971 41.5015C65.9793 41.3737 65.9423 41.2035 65.8145 41.1213L64.5281 40.2944C64.4003 40.2122 64.2301 40.2492 64.1479 40.377L64.1108 40.4348C64.0286 40.5626 64.0656 40.7328 64.1934 40.815L65.4798 41.642C65.6076 41.7241 65.7778 41.6871 65.86 41.5593Z" fill="#25405D"/>
<path d="M64.473 43.3254L64.434 43.3861C64.3949 43.4468 64.3333 43.4895 64.2628 43.5048C64.1922 43.5201 64.1185 43.5067 64.0578 43.4677L62.7754 42.6425C62.714 42.603 62.6708 42.5407 62.6553 42.4693C62.6398 42.3979 62.6533 42.3233 62.6929 42.2618L62.7319 42.2011C62.771 42.1404 62.8325 42.0977 62.9031 42.0824C62.9736 42.0671 63.0474 42.0805 63.1081 42.1195L64.3987 42.95C64.4573 42.9908 64.4978 43.0527 64.5117 43.1227C64.5255 43.1927 64.5117 43.2654 64.473 43.3254Z" fill="#25405D"/>
<path opacity="0.5" d="M90.6334 73.3883L90.7088 73.4211C91.4079 73.6902 92.1333 73.8847 92.8732 74.0016C94.7482 74.3189 96.6449 74.491 98.5464 74.5164C99.8188 74.5492 101.098 74.5689 102.37 74.4869C102.806 74.4869 103.242 74.5066 103.682 74.5099C105.565 74.5313 107.447 74.4393 109.319 74.2344C110.188 74.1437 111.049 73.9914 111.897 73.7786C112.542 73.6352 113.156 73.3775 113.71 73.0178C114.233 72.5836 114.6 71.9907 114.756 71.3289C115.007 70.4197 115.168 69.4884 115.238 68.548C115.381 66.6934 115.43 64.8327 115.386 62.9732C115.369 61.1564 115.415 59.3298 115.432 57.5098C115.451 55.1202 115.461 52.7296 115.461 50.3379C115.461 49.2885 115.461 48.2489 115.461 47.2061C115.461 46.3338 115.461 45.4517 115.425 44.5826C115.351 43.1504 115.1 41.7328 114.677 40.3621C114.407 39.5302 114.054 38.7272 113.625 37.9649C113.326 37.4009 113.002 36.8467 112.677 36.2958C112.303 35.6399 111.893 35.0103 111.526 34.3577C111.265 33.9278 111.103 33.4448 111.054 32.9443C110.995 32.3638 110.972 31.7801 110.962 31.1964C110.962 30.7602 110.946 30.3241 110.942 29.8847C110.944 29.8584 110.944 29.8322 110.942 29.806C110.942 29.4616 110.942 29.114 110.942 28.7697C110.943 28.7414 110.938 28.7133 110.927 28.6871C110.917 28.6609 110.901 28.637 110.881 28.6168C110.861 28.5967 110.838 28.5807 110.812 28.5698C110.785 28.5589 110.757 28.5532 110.729 28.5532H108.971H104.761C103.056 28.5532 101.354 28.5532 99.6516 28.5369H95.2474C94.7621 28.5369 94.2636 28.5369 93.7914 28.5369C93.5618 28.5369 93.329 28.5172 93.0995 28.5369H93.0863C93.0286 28.5376 92.9733 28.5605 92.9318 28.6007C92.8903 28.641 92.8658 28.6956 92.8633 28.7533C92.8633 29.1009 92.8633 29.4452 92.8633 29.7896C92.8633 30.0355 92.8633 30.2847 92.8633 30.5241C92.8633 30.8521 92.8633 31.18 92.8404 31.5079C92.8207 31.9933 92.7978 32.4917 92.7486 32.964C92.6898 33.4679 92.5208 33.9527 92.2534 34.3839C91.4598 35.7416 90.5973 37.05 89.8693 38.447C89.2322 39.717 88.79 41.0756 88.5576 42.4773C88.187 44.5269 88.2296 46.6224 88.2296 48.708C88.1881 51.008 88.1673 53.3319 88.1673 55.6799C88.1673 57.7951 88.1673 59.9037 88.1837 62.0189C88.1837 63.6585 88.1345 65.2982 88.1837 66.9379C88.2168 67.9552 88.3143 68.9695 88.4756 69.9745C88.575 70.7891 88.8264 71.5778 89.2167 72.2996C89.56 72.805 90.0567 73.1867 90.6334 73.3883Z" fill="white"/>
<path d="M115.432 57.5098C115.451 55.1203 115.461 52.7296 115.461 50.3379C115.461 49.2885 115.461 48.249 115.461 47.2061C115.461 46.3338 115.461 45.4517 115.425 44.5827C115.366 43.5063 115.212 42.4374 114.963 41.3886L88.7937 41.1558C88.6855 41.5755 88.5871 41.9953 88.5117 42.4249C88.1411 44.4744 88.1837 46.5699 88.1837 48.6556C88.1728 50.9905 88.1673 53.3319 88.1673 55.6799C88.1673 57.7951 88.1673 59.9037 88.1837 62.0189C88.1837 63.6586 88.1345 65.2982 88.1837 66.9379C88.2168 67.9553 88.3143 68.9695 88.4756 69.9746C88.575 70.7891 88.8264 71.5778 89.2167 72.2996C89.5588 72.8027 90.053 73.1831 90.6268 73.3851L90.7023 73.4179C91.4013 73.6869 92.1268 73.8815 92.8666 73.9983C94.7416 74.3156 96.6384 74.4877 98.5399 74.5132C99.8123 74.546 101.091 74.5656 102.364 74.4837C102.8 74.4837 103.236 74.5033 103.675 74.5066C105.558 74.5281 107.441 74.4361 109.312 74.2312C110.181 74.1405 111.043 73.9881 111.89 73.7753C112.536 73.6322 113.15 73.3733 113.704 73.0112C114.227 72.5789 114.595 71.9868 114.75 71.3257C115 70.4165 115.161 69.4852 115.232 68.5448C115.375 66.6902 115.424 64.8295 115.379 62.9699C115.386 61.1564 115.415 59.3298 115.432 57.5098Z" fill="#D69D9D"/>
<path opacity="0.9" d="M90.6301 73.3883C91.353 73.6712 92.1038 73.8768 92.8699 74.0016C94.7453 74.315 96.6419 74.485 98.5432 74.5099C99.8156 74.5459 101.098 74.5623 102.37 74.4836C102.807 74.4968 103.245 74.5033 103.682 74.5033C105.567 74.5291 107.452 74.4382 109.326 74.2311C110.193 74.1391 111.054 73.9856 111.9 73.772C112.545 73.6301 113.16 73.3723 113.713 73.0112C114.237 72.5787 114.606 71.9868 114.763 71.3256C115.013 70.4167 115.172 69.4852 115.238 68.5448C115.383 66.6902 115.432 64.8295 115.386 62.9699C115.386 61.1499 115.422 59.3265 115.435 57.5065C115.453 55.117 115.462 52.7252 115.465 50.3313C115.465 49.2885 115.465 48.2457 115.465 47.2028C115.465 46.3273 115.465 45.4484 115.428 44.5794C115.356 43.1491 115.104 41.7335 114.681 40.3654C114.225 38.9094 113.448 37.6042 112.68 36.2925C112.303 35.6366 111.9 35.0103 111.526 34.361C111.268 33.9288 111.108 33.4452 111.057 32.9443C110.959 31.931 110.955 30.9045 110.949 29.8847C110.949 29.5141 110.949 29.1403 110.949 28.7664C110.949 28.7099 110.926 28.6557 110.886 28.6157C110.846 28.5757 110.792 28.5533 110.736 28.5533H110.05C110.05 29.032 109.998 30.006 109.998 30.006C109.998 30.9898 109.998 32.0195 110.109 33.0394C110.174 33.6745 110.376 34.2879 110.703 34.8365C110.913 35.207 111.136 35.571 111.359 35.935C111.529 36.2138 111.687 36.4958 111.864 36.7778L111.943 36.909C112.674 38.165 113.369 39.3521 113.779 40.654C114.179 41.9464 114.414 43.2839 114.481 44.6351C114.52 45.3074 114.517 46.0026 114.517 46.6781V47.216C114.517 48.2588 114.517 49.2983 114.517 50.3412C114.517 52.7329 114.506 55.1224 114.484 57.5098C114.484 58.1657 114.484 58.8215 114.461 59.4774C114.445 60.6284 114.428 61.8156 114.435 62.9896V63.0715C114.479 64.8688 114.43 66.6671 114.291 68.4595C114.226 69.3361 114.079 70.2047 113.851 71.0535C113.771 71.3416 113.652 71.6174 113.497 71.8733C113.405 72.017 113.288 72.1435 113.153 72.2471C112.694 72.5379 112.188 72.7445 111.657 72.8571C110.854 73.0588 110.038 73.2034 109.214 73.29C107.38 73.4931 105.534 73.5829 103.688 73.5589C103.259 73.5589 102.829 73.5589 102.4 73.5359H102.311C101.144 73.6081 99.973 73.5982 98.5727 73.5621C96.7197 73.5352 94.8713 73.3674 93.0437 73.0604C92.3436 72.9499 91.6576 72.7641 90.9974 72.5062C90.6097 72.3787 90.273 72.1305 90.0366 71.7979C89.7137 71.1847 89.5048 70.518 89.4201 69.8303C89.2671 68.8652 89.1751 67.8915 89.1446 66.9149C89.102 65.8951 89.1118 64.8522 89.1216 63.8389C89.1216 63.2355 89.1216 62.6321 89.1216 62.0287C89.1041 59.9168 89.0976 57.806 89.102 55.6963C89.102 53.3527 89.1096 51.008 89.1249 48.6621V47.7538C89.0791 46.033 89.1822 44.3115 89.4332 42.6085C89.6514 41.298 90.0683 40.0285 90.6695 38.8438C91.1351 37.942 91.6828 37.0467 92.2108 36.181C92.4829 35.7317 92.7584 35.2825 93.024 34.8299C93.3623 34.2808 93.575 33.6638 93.6471 33.023C93.7029 32.5016 93.7258 31.9867 93.7422 31.5047C93.7652 30.9439 93.8242 29.3764 93.8406 28.5139H93.7783C93.5487 28.5139 93.3159 28.4942 93.0864 28.5139C93.0286 28.5139 92.9732 28.5366 92.9321 28.5771C92.891 28.6176 92.8675 28.6726 92.8666 28.7303C92.8666 29.6453 92.8666 30.5569 92.8207 31.4719C92.8011 31.9572 92.7781 32.4557 92.7289 32.9279C92.6695 33.4317 92.5005 33.9164 92.2337 34.3478C91.4401 35.7022 90.5744 37.0139 89.8529 38.4077C89.2091 39.6774 88.7614 41.0374 88.5248 42.4412C88.1575 44.4875 88.2133 46.583 88.1969 48.672C88.1772 50.9959 88.1673 53.3319 88.1673 55.6799C88.1673 57.7918 88.1739 59.9048 88.187 62.0189C88.187 63.6585 88.1378 65.2982 88.187 66.9379C88.2201 67.9552 88.3176 68.9695 88.4789 69.9745C88.5776 70.7897 88.8302 71.5787 89.2233 72.2996C89.5635 72.8038 90.0567 73.1855 90.6301 73.3883Z" fill="white"/>
<path d="M92.8338 68.4693C93.1385 68.5617 93.4498 68.6308 93.7651 68.6759C94.0405 68.7218 94.3127 68.7513 94.5915 68.7776C95.6277 68.8727 96.6706 68.8628 97.7134 68.8661L103.147 68.8858C103.36 68.8858 103.583 68.8858 103.803 68.8858H105.138C106.013 68.8858 106.886 68.9022 107.761 68.8858C108.36 68.8744 108.958 68.8317 109.552 68.7579C110.054 68.7119 110.548 68.5948 111.018 68.4103C112.379 67.8102 112.625 66.2656 112.674 64.9408C112.838 60.3497 113.08 55.7225 113.08 51.1151C113.08 49.659 113.08 48.1965 112.943 46.747C112.909 46.1634 112.799 45.5867 112.615 45.0319C112.231 44.012 110.886 43.9891 109.972 43.8349L109.834 43.8153C109.352 43.7476 108.867 43.7093 108.381 43.7005C107.568 43.6579 106.741 43.6251 105.938 43.6054C104.695 43.5759 103.446 43.5464 102.2 43.5726C101.563 43.5726 100.924 43.5726 100.288 43.5726C97.7298 43.5923 95.0407 43.4513 92.5288 43.9956C92.164 44.0487 91.8169 44.1869 91.5155 44.399C91.1557 44.7347 90.9287 45.1887 90.876 45.6779C90.3972 48.5244 90.5874 51.4988 90.6169 54.3682C90.6366 56.3358 90.677 58.3034 90.7383 60.271C90.7874 62.0025 90.5317 64.0881 90.9514 65.7737C91.0256 66.5602 91.3471 67.303 91.8696 67.8954C92.1408 68.1606 92.4714 68.3573 92.8338 68.4693Z" fill="white"/>
<path d="M93.0405 48.8884L92.9716 51.6529C92.9685 51.7804 92.9909 51.9073 93.0374 52.0261C93.0839 52.1449 93.1536 52.2533 93.2425 52.3449C93.3313 52.4364 93.4375 52.5094 93.5548 52.5595C93.6722 52.6096 93.7983 52.6358 93.9259 52.6367L109.703 52.817C109.831 52.8201 109.958 52.7976 110.077 52.7509C110.196 52.7042 110.304 52.6342 110.396 52.545C110.488 52.4558 110.56 52.3493 110.61 52.2315C110.66 52.1138 110.686 51.9873 110.687 51.8595V48.9605C110.687 48.7054 110.585 48.4607 110.405 48.28C110.225 48.0992 109.981 47.9973 109.726 47.9964L94.0046 47.9505C93.7531 47.9496 93.5113 48.0473 93.331 48.2226C93.1508 48.398 93.0465 48.637 93.0405 48.8884Z" fill="#F39F9F"/>
<path d="M96.5034 56.5096C96.4994 56.5731 96.5083 56.6367 96.5297 56.6966C96.551 56.7565 96.5843 56.8115 96.6276 56.8581C96.6708 56.9047 96.7231 56.9421 96.7812 56.9679C96.8394 56.9936 96.9022 57.0073 96.9658 57.0081L106.659 57.0638C106.721 57.0643 106.782 57.0526 106.839 57.0293C106.896 57.0061 106.947 56.9719 106.991 56.9286C107.034 56.8853 107.069 56.8339 107.093 56.7771C107.116 56.7204 107.128 56.6596 107.128 56.5982V56.5719C107.129 56.5104 107.118 56.4493 107.095 56.3922C107.072 56.3351 107.038 56.2832 106.994 56.2396C106.951 56.1959 106.899 56.1613 106.842 56.1379C106.785 56.1144 106.724 56.1026 106.663 56.103L96.9723 56.0735C96.8534 56.0732 96.7389 56.1181 96.6518 56.199C96.5647 56.28 96.5117 56.391 96.5034 56.5096Z" fill="#C4CBD3"/>
<path d="M96.4935 59.4971C96.49 59.5607 96.4994 59.6244 96.5211 59.6843C96.5428 59.7442 96.5764 59.7991 96.6199 59.8457C96.6635 59.8923 96.7159 59.9296 96.7742 59.9553C96.8325 59.9811 96.8955 59.9947 96.9592 59.9955L106.65 60.0513C106.774 60.0513 106.893 60.0024 106.981 59.9153C107.07 59.8281 107.12 59.7097 107.122 59.5856V59.5594C107.122 59.4356 107.073 59.3168 106.986 59.2289C106.898 59.1411 106.78 59.0913 106.656 59.0904L96.9625 59.0609C96.8436 59.0606 96.729 59.1055 96.642 59.1865C96.5549 59.2674 96.5018 59.3785 96.4935 59.4971Z" fill="#C4CBD3"/>
<path d="M96.487 62.4845C96.4825 62.5481 96.4911 62.6119 96.5123 62.6721C96.5335 62.7322 96.5668 62.7873 96.6101 62.834C96.6535 62.8808 96.7059 62.9181 96.7643 62.9437C96.8226 62.9693 96.8856 62.9827 96.9494 62.983L106.643 63.0388C106.767 63.0388 106.886 62.9898 106.974 62.9026C107.061 62.8153 107.111 62.6969 107.112 62.5731V62.5469C107.112 62.4854 107.101 62.4245 107.078 62.3676C107.054 62.3108 107.02 62.2591 106.977 62.2155C106.934 62.1719 106.882 62.1373 106.825 62.1137C106.769 62.0901 106.708 62.0779 106.646 62.0779L96.9527 62.0484C96.8341 62.0482 96.7199 62.0931 96.6334 62.1742C96.5469 62.2552 96.4945 62.3662 96.487 62.4845Z" fill="#C4CBD3"/>
<g style="mix-blend-mode:multiply">
<path d="M92.8174 31.1374C92.8174 30.9209 92.8174 30.7012 92.8174 30.4815C92.8174 30.2618 92.8174 29.9929 92.8174 29.7469C92.8174 29.419 92.8174 29.0583 92.8174 28.7107C92.8199 28.6529 92.8444 28.5984 92.8859 28.5581C92.9273 28.5179 92.9826 28.495 93.0404 28.4942H93.0863C93.3158 28.4942 93.5487 28.4942 93.7782 28.4942C94.2636 28.4942 94.762 28.4942 95.2343 28.4942H99.6384C101.34 28.4942 103.042 28.4942 104.748 28.5106H108.958H110.716C110.744 28.5106 110.772 28.5162 110.798 28.5272C110.824 28.5381 110.848 28.5541 110.868 28.5742C110.888 28.5944 110.903 28.6182 110.914 28.6445C110.924 28.6707 110.93 28.6988 110.929 28.7271C110.929 29.055 110.929 29.419 110.929 29.7633C110.931 29.7895 110.931 29.8158 110.929 29.842C110.929 30.2815 110.929 30.7176 110.949 31.1538L92.8174 31.1374Z" fill="#C4CBD3"/>
</g>
<path d="M91.9614 29.7436H93.6667H96.1131C97.6412 29.7436 99.1661 29.7141 100.704 29.7076C101.832 29.7076 102.958 29.7076 104.082 29.7076C105.925 29.7338 107.768 29.7928 109.617 29.8027H110.955H111.516C111.844 29.8027 112.211 29.8289 112.552 29.8027C112.912 29.7859 113.255 29.6404 113.517 29.3928C113.666 29.2513 113.788 29.0834 113.877 28.8976C114.5 27.5662 114.464 25.9232 114.356 24.4901C114.354 24.411 114.346 24.3321 114.333 24.254C114.294 23.8164 114.14 23.3969 113.886 23.0385C113.632 22.6801 113.287 22.3956 112.887 22.2143C111.1 21.3584 108.919 21.7913 107.017 21.7913C104.957 21.7913 102.895 21.7913 100.829 21.7913C100.212 21.7913 99.5892 21.7913 98.9694 21.7913C97.5899 21.7913 96.206 21.7989 94.8177 21.8142C93.6536 21.8142 92.1484 21.5978 91.0432 22.0339C90.5295 22.2602 90.102 22.6452 89.8233 23.1325C89.4101 23.8408 89.4659 24.6935 89.4954 25.4838C89.5063 26.3465 89.583 27.2071 89.7249 28.0581C89.7887 28.4801 89.9554 28.8799 90.2103 29.2222C90.2889 29.3216 90.3817 29.4089 90.4857 29.4813C90.8989 29.7928 91.4466 29.7469 91.9614 29.7436Z" fill="#DCDCE1"/>
<g style="mix-blend-mode:multiply">
<path d="M115.425 44.5794C115.351 43.1471 115.1 41.7295 114.678 40.3589C114.407 39.5269 114.054 38.7239 113.625 37.9617C113.326 37.3976 113.002 36.8434 112.677 36.2925C112.303 35.6366 111.893 35.007 111.526 34.3544C111.265 33.9245 111.104 33.4415 111.054 32.941C110.995 32.3606 110.972 31.7768 110.962 31.1931C110.962 30.757 110.946 30.3208 110.942 29.8814C110.944 29.8552 110.944 29.8289 110.942 29.8027H111.503C111.831 29.8027 112.198 29.8289 112.539 29.8027C112.899 29.7859 113.242 29.6404 113.504 29.3928C113.653 29.2513 113.775 29.0834 113.864 28.8976C114.487 27.5662 114.451 25.9232 114.343 24.4901C114.341 24.411 114.333 24.3321 114.32 24.254C114.281 23.8164 114.127 23.3969 113.873 23.0385C113.619 22.6801 113.274 22.3956 112.874 22.2143C111.087 21.3584 108.906 21.7913 107.004 21.7913H102.596V74.4836C102.954 74.4836 103.311 74.5 103.672 74.5033C105.555 74.5247 107.437 74.4327 109.309 74.2278C110.178 74.1372 111.039 73.9848 111.887 73.772C112.532 73.6286 113.146 73.3709 113.7 73.0112C114.223 72.577 114.591 71.9841 114.746 71.3223C114.997 70.4132 115.158 69.4818 115.228 68.5415C115.371 66.6868 115.421 64.8262 115.376 62.9666C115.36 61.1498 115.406 59.3232 115.422 57.5032C115.442 55.1137 115.451 52.723 115.451 50.3313C115.451 49.2819 115.451 48.2424 115.451 47.1996C115.458 46.3338 115.474 45.4517 115.425 44.5794Z" fill="#DEE2E7"/>
</g>
</g>
</svg>
