<svg width="167" height="167" viewBox="0 0 167 167" fill="none" xmlns="http://www.w3.org/2000/svg">
<mask id="mask0_206:37109" style="mask-type:alpha" maskUnits="userSpaceOnUse" x="0" y="0" width="167" height="167">
<rect x="1" y="1" width="165" height="165" rx="8" fill="#5988D6" stroke="#EDE6FC" stroke-opacity="0.3"/>
</mask>
<g mask="url(#mask0_206:37109)">
<rect x="1" y="1" width="165" height="165" rx="8" fill="#7AC2D9" stroke="#EDE6FC" stroke-opacity="0.3"/>
<path d="M114.178 7.39371H46.8591C45.3008 7.39371 44.0375 8.657 44.0375 10.2153V100.94C44.0375 102.498 45.3008 103.762 46.8591 103.762H114.178C115.737 103.762 117 102.498 117 100.94V10.2153C117 8.657 115.737 7.39371 114.178 7.39371Z" fill="#455A64"/>
<path d="M112.114 11.9474H48.9236V97.1406H112.114V11.9474Z" fill="white"/>
<path d="M112.114 97.1406C112.114 96.5595 112.086 62.3901 112.047 11.9474L112.114 12.0145H48.9292L49.0018 11.9418C49.0018 43.7171 49.0018 73.1541 49.0018 97.149L48.9432 97.0903L112.133 97.149L48.9432 97.2077H48.8817V97.149C48.8817 73.1681 48.8817 43.7311 48.8817 11.9558V11.8832H48.9599H112.145H112.209V11.9614C112.142 62.3901 112.114 96.5595 112.114 97.1406Z" fill="#263238"/>
<rect x="55.7096" y="19.6827" width="8.00073" height="8.00073" fill="#FF725E"/>
<path d="M90.1723 20.1971H79.3273V22.8819H90.1723V20.1971Z" fill="#E0E0E0"/>
<path d="M106.074 21.8901C106.074 21.932 103.107 21.9627 99.4473 21.9627C95.7876 21.9627 92.8235 21.932 92.8235 21.8901C92.8235 21.8482 95.7876 21.8175 99.4473 21.8175C103.107 21.8175 106.074 21.851 106.074 21.8901Z" fill="#263238"/>
<path d="M105.839 25.1112C105.839 25.1503 99.9054 25.1839 92.5888 25.1839C85.2721 25.1839 79.3384 25.1503 79.3384 25.1112C79.3384 25.0721 85.2693 25.0386 92.5888 25.0386C99.9082 25.0386 105.839 25.0693 105.839 25.1112Z" fill="#263238"/>
<path d="M105.839 28.2653C105.839 28.3044 99.9054 28.3379 92.5888 28.3379C85.2721 28.3379 79.3384 28.3044 79.3384 28.2653C79.3384 28.2262 85.2693 28.1926 92.5888 28.1926C99.9082 28.1926 105.839 28.2234 105.839 28.2653Z" fill="#263238"/>
<path d="M109.96 36.6743C109.96 36.7134 96.7765 36.7469 80.5201 36.7469C64.2637 36.7469 51.0831 36.7134 51.0831 36.6743C51.0831 36.6351 64.2609 36.6016 80.5257 36.6016C96.7905 36.6016 109.96 36.6323 109.96 36.6743Z" fill="#263238"/>
<path d="M109.96 84.3009C109.96 84.34 96.7765 84.3735 80.5201 84.3735C64.2637 84.3735 51.0775 84.34 51.0775 84.3009C51.0775 84.2618 64.2553 84.2282 80.5201 84.2282C96.7849 84.2282 109.96 84.259 109.96 84.3009Z" fill="#263238"/>
<path d="M74.0975 41.4961H55.9302V44.9044H74.0975V41.4961Z" fill="#E0E0E0"/>
<path d="M63.7944 89.1647H55.9302V92.573H63.7944V89.1647Z" fill="#E0E0E0"/>
<path d="M90.1975 89.1647H82.3333V92.573H90.1975V89.1647Z" fill="#E0E0E0"/>
<path d="M76.9721 91.5225C76.9721 91.5644 74.5165 91.5952 71.4881 91.5952C68.4598 91.5952 66.0042 91.5644 66.0042 91.5225C66.0042 91.4806 68.457 91.4499 71.4881 91.4499C74.5193 91.4499 76.9721 91.4834 76.9721 91.5225Z" fill="#263238"/>
<path d="M105.211 91.5225C105.211 91.5644 102.755 91.5952 99.7267 91.5952C96.6983 91.5952 94.2399 91.5644 94.2399 91.5225C94.2399 91.4806 96.6955 91.4499 99.7267 91.4499C102.758 91.4499 105.211 91.4834 105.211 91.5225Z" fill="#263238"/>
<path d="M104.56 50.0336C104.56 50.0727 93.7984 50.1063 80.534 50.1063C67.2697 50.1063 56.5084 50.0727 56.5084 50.0336C56.5084 49.9945 67.2669 49.961 80.534 49.961C93.8012 49.961 104.56 49.9945 104.56 50.0336Z" fill="#263238"/>
<path d="M105.496 53.9224C105.496 53.9643 94.522 53.9951 80.9923 53.9951C67.4625 53.9951 56.4889 53.9643 56.4889 53.9224C56.4889 53.8805 67.4569 53.8498 80.9923 53.8498C94.5276 53.8498 105.496 53.8833 105.496 53.9224Z" fill="#263238"/>
<path d="M80.2435 57.814C80.2435 57.8531 74.7987 57.8867 68.0855 57.8867C61.3722 57.8867 55.9274 57.8531 55.9274 57.814C55.9274 57.7749 61.3695 57.7414 68.0855 57.7414C74.8015 57.7414 80.2435 57.7777 80.2435 57.814Z" fill="#263238"/>
<path d="M105.132 71.9249L104.973 71.978C104.864 72.0115 104.694 72.0646 104.495 72.1232C103.883 72.3055 103.259 72.4511 102.629 72.5591C102.168 72.64 101.701 72.6839 101.232 72.6904C100.68 72.7027 100.128 72.6339 99.5954 72.4864C98.9792 72.3109 98.4115 71.9965 97.9359 71.5673C97.401 71.0789 97.0492 70.4225 96.9386 69.7067C96.8806 69.3184 96.9288 68.9216 97.0782 68.5585C97.2411 68.1818 97.51 67.8605 97.8521 67.6338C98.0286 67.5103 98.2281 67.4234 98.4387 67.3783C98.6494 67.3332 98.8669 67.3308 99.0785 67.3712C99.2926 67.4238 99.494 67.5188 99.6708 67.6506C99.8434 67.7955 99.9882 67.9706 100.098 68.1674C100.301 68.5768 100.403 69.0291 100.394 69.486C100.398 69.9541 100.312 70.4186 100.143 70.8549C99.7782 71.759 99.1771 72.5483 98.4024 73.1401C98.0034 73.4474 97.568 73.7045 97.1062 73.9056C96.6304 74.1051 96.1309 74.2422 95.62 74.3135C95.0979 74.3895 94.5671 74.3829 94.0471 74.2939C93.7828 74.2521 93.5222 74.1895 93.2677 74.1068C93.0131 74.0131 92.7648 73.9029 92.5245 73.7771C92.0452 73.5097 91.6183 73.1576 91.2646 72.7378C90.9001 72.3086 90.6442 71.7978 90.5187 71.2488C90.3837 70.6843 90.454 70.0901 90.717 69.5726C90.9803 69.0499 91.4153 68.6337 91.9491 68.3937C92.2194 68.2712 92.5166 68.2202 92.8123 68.2456C93.1063 68.2717 93.3875 68.378 93.6253 68.5529C94.0808 68.9108 94.3946 69.4186 94.5108 69.9861C94.6393 70.5295 94.6696 71.0915 94.6003 71.6455C94.5452 72.1887 94.4251 72.7233 94.2427 73.2379C93.8978 74.2493 93.2916 75.1514 92.4854 75.8528C91.702 76.5254 90.7219 76.9263 89.6917 76.9954C88.7402 77.0923 87.7852 76.8473 86.9979 76.3041C86.2106 75.761 85.6424 74.9553 85.3951 74.0313C85.1436 73.2063 85.177 72.3207 85.4901 71.517C85.6373 71.1341 85.8913 70.8015 86.222 70.5588C86.3863 70.4361 86.5781 70.3555 86.7808 70.3241C86.9794 70.2948 87.1821 70.3332 87.3562 70.4331C87.5157 70.5369 87.6491 70.6761 87.746 70.8399C87.8429 71.0037 87.9007 71.1876 87.915 71.3773C87.9616 71.7245 87.9475 72.0771 87.8731 72.4194C87.7653 73.0443 87.5775 73.6527 87.3143 74.2297C86.8866 75.153 86.282 75.9834 85.5347 76.6741C85.0658 77.1124 84.5372 77.482 83.9647 77.7721C83.8165 77.8486 83.6645 77.9176 83.5093 77.9788L83.3529 78.0403L83.5038 77.9648C83.6043 77.9145 83.7608 77.8531 83.9508 77.7441C84.5146 77.4444 85.0345 77.0684 85.4957 76.6267C86.6965 75.5004 87.5027 74.0173 87.7949 72.397C87.8644 72.0635 87.8767 71.7206 87.8312 71.3829C87.8176 71.2091 87.7648 71.0406 87.6767 70.8901C87.5886 70.7396 87.4676 70.6111 87.3227 70.5141C87.1667 70.429 86.9877 70.3958 86.8115 70.4191C86.6302 70.4521 86.459 70.5267 86.3114 70.637C85.9981 70.8692 85.7577 71.1862 85.6186 71.5505C85.3158 72.3327 85.2872 73.1945 85.5375 73.995C85.7811 74.8583 86.3062 75.6155 87.0294 76.1461C87.8116 76.6898 88.7596 76.9419 89.7085 76.8585C90.7069 76.7876 91.6556 76.3956 92.4128 75.7411C93.199 75.0554 93.7891 74.1733 94.1225 73.1848C94.3018 72.6802 94.42 72.1559 94.4745 71.6232C94.5425 71.0858 94.5122 70.5406 94.3851 70.014C94.2745 69.4791 93.9775 69.0009 93.547 68.6647C93.3274 68.5061 93.0693 68.4093 92.7996 68.3843C92.5299 68.3592 92.2584 68.4068 92.0133 68.5222C91.5088 68.7497 91.0982 69.1444 90.8511 69.6397C90.6044 70.1263 90.5391 70.6849 90.6667 71.2153C90.802 71.733 91.0438 72.2169 91.3767 72.6359C91.7096 73.0548 92.1262 73.3998 92.6 73.6486C92.8325 73.7696 93.0723 73.8759 93.318 73.9671C93.5653 74.0475 93.8184 74.1092 94.075 74.1515C94.5814 74.2361 95.0977 74.2427 95.606 74.171C96.1053 74.1022 96.5936 73.9689 97.0587 73.7743C97.5102 73.5782 97.9361 73.3277 98.327 73.0284C99.0845 72.4497 99.6722 71.6777 100.028 70.7934C100.193 70.3724 100.278 69.9242 100.277 69.472C100.287 69.0357 100.191 68.6034 99.9976 68.2121C99.8947 68.0298 99.7615 67.8664 99.6037 67.7288C99.4387 67.5982 99.2485 67.5031 99.045 67.4494C98.8486 67.4118 98.6466 67.4136 98.4509 67.4549C98.2552 67.4961 98.0697 67.5759 97.9052 67.6897C97.5799 67.9036 97.3237 68.2074 97.1676 68.5641C97.0258 68.9096 96.9786 69.2866 97.0307 69.6564C97.1362 70.3507 97.4752 70.9883 97.9918 71.4639C98.4549 71.8856 99.0081 72.1961 99.6093 72.3719C100.134 72.5211 100.678 72.5927 101.224 72.5842C101.684 72.5812 102.142 72.5419 102.596 72.4669C103.226 72.3654 103.85 72.2293 104.465 72.059L104.945 71.9277L105.132 71.9249Z" fill="#263238"/>
<path d="M91.0635 6.57517H69.9768V14.6377H91.0635V6.57517Z" fill="#E0E0E0"/>
<path d="M91.0607 14.6349C91.0607 14.6349 91.0607 14.5846 91.0607 14.4897C91.0607 14.3947 91.0607 14.2522 91.0607 14.0706C91.0607 13.699 91.0607 13.1627 91.0607 12.4698C91.0607 11.073 91.0607 9.06992 91.0327 6.57517L91.083 6.62545L69.9768 6.65339L70.0494 6.58076C70.0494 9.39678 70.0494 12.1206 70.0494 14.6405L69.9796 14.5707L85.0654 14.6042L89.4627 14.6238H90.6416H90.9489H91.0551C91.0225 14.6265 90.9898 14.6265 90.9573 14.6238H90.6584H89.4934L85.1129 14.6433L69.9684 14.674H69.8986V14.6042C69.8986 12.0899 69.8986 9.36046 69.8986 6.54444L69.9712 6.4718L91.0551 6.49415H91.1054V6.54444C91.1054 9.05875 91.0858 11.0702 91.0802 12.4698C91.0802 13.1571 91.0802 13.6907 91.0802 14.0594C91.0802 14.2354 91.0802 14.3723 91.0802 14.4701C91.0777 14.5254 91.0711 14.5805 91.0607 14.6349Z" fill="#263238"/>
<path d="M40.4338 118.741L38.5788 125.318C38.5788 125.318 44.4818 129.458 44.2555 130.707L31.684 127.483L34.1592 117.113L40.4338 118.741Z" fill="#455A64"/>
<path d="M34.8268 123.764C34.6954 123.771 34.571 123.826 34.4776 123.919C34.3843 124.012 34.3286 124.136 34.3212 124.267C34.3217 124.399 34.3726 124.526 34.4635 124.621C34.5544 124.717 34.6784 124.774 34.8101 124.781C34.95 124.774 35.082 124.714 35.1798 124.613C35.2776 124.513 35.3341 124.379 35.3381 124.239C35.3129 123.974 35.0252 123.697 34.7793 123.762" fill="#E0E0E0"/>
<g opacity="0.6">
<path opacity="0.6" d="M31.6783 127.483L31.9577 126.449L43.9091 129.927C43.9091 129.927 44.4092 130.318 44.2471 130.707L31.6783 127.483Z" fill="white"/>
</g>
<path d="M38.791 125.304C38.7743 125.368 38.4586 125.318 38.1066 125.443C37.7546 125.569 37.5311 125.79 37.4808 125.751C37.4305 125.712 37.6093 125.371 38.0395 125.228C38.4697 125.086 38.8273 125.251 38.791 125.304Z" fill="#263238"/>
<path d="M39.9811 126.203C39.9811 126.267 39.7017 126.307 39.4223 126.519C39.143 126.731 39.02 126.997 38.9614 126.98C38.9027 126.963 38.9474 126.594 39.2938 126.337C39.6402 126.08 39.995 126.142 39.9811 126.203Z" fill="#263238"/>
<path d="M40.3359 128.011C40.2772 128.011 40.2688 127.676 40.5091 127.371C40.7494 127.066 41.0678 127.002 41.0846 127.061C41.1014 127.12 40.8751 127.259 40.6823 127.513C40.4895 127.768 40.3974 128.022 40.3359 128.011Z" fill="#263238"/>
<path d="M39.0703 123.759C39.0312 123.809 38.7686 123.65 38.4166 123.586C38.0646 123.521 37.7657 123.563 37.7461 123.502C37.7265 123.44 38.0422 123.281 38.4585 123.362C38.8747 123.443 39.101 123.708 39.0703 123.759Z" fill="#263238"/>
<path d="M36.0224 120.289L35.7431 127.128C35.7431 127.128 42.4311 129.732 42.4954 131L29.5299 130.897L29.5579 120.219L36.0224 120.289Z" fill="#455A64"/>
<path d="M31.7258 126.522C31.601 126.564 31.4952 126.65 31.4272 126.763C31.3592 126.876 31.3333 127.009 31.3542 127.139C31.3849 127.267 31.4641 127.378 31.5751 127.449C31.686 127.52 31.8202 127.545 31.9493 127.519C32.0828 127.476 32.196 127.386 32.2676 127.266C32.3391 127.145 32.3641 127.003 32.3376 126.865C32.2931 126.735 32.1987 126.627 32.0753 126.566C31.9518 126.505 31.8091 126.495 31.6783 126.538" fill="#E0E0E0"/>
<g opacity="0.6">
<path opacity="0.6" d="M29.5188 130.897L29.5635 129.821L41.9786 130.321C41.9786 130.321 42.5541 130.584 42.4842 131L29.5188 130.897Z" fill="white"/>
</g>
<path d="M35.9414 127.061C35.9414 127.125 35.6229 127.153 35.31 127.357C34.9971 127.561 34.8267 127.835 34.7708 127.81C34.715 127.784 34.81 127.41 35.1927 127.167C35.5754 126.924 35.9554 127.005 35.9414 127.061Z" fill="#263238"/>
<path d="M37.2964 127.65C37.3104 127.715 37.0366 127.821 36.8187 128.095C36.6008 128.368 36.5394 128.653 36.4751 128.653C36.4108 128.653 36.3745 128.282 36.6511 127.949C36.9277 127.617 37.2964 127.589 37.2964 127.65Z" fill="#263238"/>
<path d="M38.0563 129.324C38.0004 129.324 37.9138 129.014 38.0786 128.659C38.2435 128.304 38.5424 128.164 38.5675 128.22C38.5927 128.276 38.4083 128.463 38.2882 128.757C38.168 129.05 38.1205 129.318 38.0563 129.324Z" fill="#263238"/>
<path d="M35.838 125.496C35.8129 125.555 35.5223 125.463 35.1647 125.496C34.8071 125.53 34.5278 125.633 34.4942 125.577C34.4607 125.522 34.7317 125.298 35.1536 125.273C35.5754 125.248 35.8715 125.446 35.838 125.496Z" fill="#263238"/>
<path d="M28.0018 70.2347V75.6572L29.4182 96.7299C29.4182 96.7299 28.5381 106.949 27.9962 112.721C27.524 117.733 28.2951 126.457 28.2951 126.457H36.556L39.5089 97.3557L41.3416 79.1968L44.5292 70.9359L28.0018 70.2347Z" fill="#263238"/>
<path d="M49.7367 71.179L48.1555 100.574L39.8052 122.585L39.4224 123.91L34.4916 122.689L38.1597 70.6063L49.7367 71.179Z" fill="#263238"/>
<path d="M41.3052 79.4064C41.3082 79.4473 41.3082 79.4884 41.3052 79.5293C41.3052 79.6187 41.3052 79.736 41.3052 79.8869C41.3052 80.2109 41.2829 80.6747 41.2633 81.2669C41.2326 82.4626 41.1488 84.1947 41.0287 86.3319C40.78 90.6034 40.3163 96.5037 39.5899 102.993C38.8636 109.483 38.0897 115.347 37.5142 119.588C37.2349 121.7 36.9862 123.412 36.8214 124.616C36.7376 125.203 36.6705 125.661 36.6258 125.983C36.6035 126.131 36.5839 126.248 36.57 126.335C36.565 126.375 36.5576 126.415 36.5476 126.455C36.5439 126.415 36.5439 126.374 36.5476 126.335C36.5476 126.245 36.57 126.128 36.5867 125.977C36.6258 125.656 36.6817 125.198 36.7543 124.608C36.908 123.415 37.1287 121.7 37.3997 119.579C37.9584 115.336 38.7183 109.475 39.4307 102.985C40.1431 96.4953 40.6348 90.6034 40.9113 86.3319C41.0454 84.1975 41.146 82.4682 41.1907 81.2725C41.2214 80.6803 41.2438 80.2193 41.2606 79.8953C41.2606 79.7444 41.2773 79.6159 41.2829 79.5377C41.2855 79.4932 41.293 79.4492 41.3052 79.4064Z" fill="#455A64"/>
<path d="M41.8334 72.0534C41.8312 72.1369 41.8044 72.2178 41.7565 72.2862C41.7085 72.3545 41.6414 72.4072 41.5637 72.4377C41.4859 72.4681 41.4009 72.4749 41.3193 72.4573C41.2376 72.4397 41.163 72.3984 41.1048 72.3386C41.0465 72.2787 41.0071 72.2031 40.9916 72.121C40.9761 72.039 40.9852 71.9542 41.0176 71.8772C41.05 71.8003 41.1045 71.7346 41.174 71.6884C41.2436 71.6422 41.3252 71.6176 41.4087 71.6176C41.4652 71.6183 41.521 71.6302 41.573 71.6524C41.6249 71.6747 41.6719 71.7071 41.7113 71.7475C41.7508 71.788 41.7818 71.8358 41.8028 71.8883C41.8237 71.9408 41.8341 71.9969 41.8334 72.0534Z" fill="#455A64"/>
<path d="M49.0884 76.1601C48.8687 76.0029 48.673 75.8147 48.5073 75.6014C48.0799 75.0971 47.7297 74.5322 47.4681 73.9252C47.2042 73.3203 47.0292 72.6804 46.9484 72.0254C46.9018 71.755 46.8952 71.4792 46.9289 71.2069C46.954 71.2069 46.9708 71.517 47.0574 72.0087C47.27 73.2873 47.7971 74.4931 48.5911 75.5176C48.8928 75.9198 49.1052 76.1405 49.0884 76.1601Z" fill="#455A64"/>
<path d="M48.1024 43.7171C48.1024 43.7171 49.6836 44.3345 50.4128 46.6477C50.9212 48.2568 53.3042 60.2361 53.3042 60.2361L49.9826 62.4236L48.636 51.2209L48.1024 43.7171Z" fill="#E0E0E0"/>
<path d="M35.4805 37.9929L34.4412 39.8367C34.4412 39.8367 27.4961 43.3679 27.5213 43.7171C27.5213 43.7171 27.9068 56.8949 27.9794 66.5638C28.0074 70.2152 27.8733 73.5704 27.8006 75.1823C27.6079 79.4147 27.457 95.8555 27.457 95.8555L52.6002 95.2605L48.0995 43.7227L44.5516 42.1694L44.099 41.2391L42.4703 39.9149L35.4805 37.9929Z" fill="#E0E0E0"/>
<path d="M46.4988 95.4001C46.5025 95.3621 46.5025 95.3237 46.4988 95.2856C46.4988 95.2046 46.4987 95.0956 46.4848 94.9587C46.468 94.6598 46.4457 94.2352 46.4177 93.696C46.3507 92.5785 46.2585 91.0057 46.1384 89.0501C45.9009 85.1222 45.5796 79.7081 45.2137 73.7268C44.8477 67.7455 44.5571 62.3314 44.3309 58.4007C44.2275 56.4451 44.1437 54.8611 44.0822 53.7548C44.0515 53.2128 44.0291 52.791 44.0124 52.4921C44.0124 52.3552 43.9956 52.2462 43.99 52.1652C43.9943 52.1281 43.9943 52.0906 43.99 52.0534C43.9869 52.0906 43.9869 52.128 43.99 52.1652C43.99 52.2462 43.99 52.3552 43.99 52.4948C43.99 52.791 44.0152 53.2156 44.0319 53.7576C44.071 54.8555 44.1437 56.4451 44.2331 58.4063C44.4202 62.3314 44.7136 67.7511 45.0712 73.738C45.4288 79.7248 45.7752 85.1362 46.0406 89.0557C46.1747 91.0113 46.2864 92.5925 46.3618 93.6988C46.4038 94.2408 46.4373 94.6626 46.4596 94.9587L46.4876 95.2884C46.4879 95.3259 46.4917 95.3633 46.4988 95.4001Z" fill="#263238"/>
<path d="M42.4731 39.9177L43.0598 43.9518L44.1046 52.0534L39.551 44.2395L35.5979 39.0601L42.11 43.6249L42.1938 39.8395" fill="#FF725E"/>
<path d="M34.4105 40.0825C34.4433 40.1912 34.4854 40.2968 34.5362 40.3982L34.9245 41.2726L36.3382 44.3457L36.3549 44.3848H37.3495L37.3048 44.2563L36.6063 44.815L36.5421 44.8681L36.6008 44.9268L37.9278 46.223L42.1853 50.3549L43.4872 51.5925C43.6325 51.7294 43.7665 51.8383 43.8476 51.9249C43.8876 51.9655 43.9316 52.002 43.9789 52.0339C43.9789 52.0339 43.9453 51.9836 43.8671 51.9026L43.5403 51.5701L42.2719 50.2962L38.0451 46.1336L36.7153 44.8402V44.9491L37.3942 44.368L37.5478 44.2395H36.3968L36.4583 44.2786C35.8632 43.0382 35.3604 41.9878 34.9944 41.2279L34.5726 40.3703C34.5261 40.2703 34.4719 40.1741 34.4105 40.0825Z" fill="#263238"/>
<path d="M44.099 52.0534C44.1441 51.8888 44.175 51.7205 44.1912 51.5506C44.2415 51.2014 44.3057 50.7376 44.384 50.1761C44.5404 49.0139 44.7471 47.4103 44.965 45.6336L45.1662 43.9797V43.9155L45.1019 43.8987L43.9621 43.6193V43.7534L45.1103 43.5495H45.1857L45.1522 43.4796C44.8449 42.8092 44.5935 42.2532 44.3979 41.8426C44.3141 41.6638 44.2415 41.5157 44.1828 41.3956C44.1612 41.3414 44.1321 41.2906 44.0962 41.2447C44.1074 41.3019 44.1262 41.3573 44.1521 41.4095L44.3365 41.8677L45.0461 43.5271L45.088 43.4461L43.9398 43.6333L43.6101 43.6864L43.9342 43.7674L45.074 44.0468L45.0181 43.9657C44.9539 44.491 44.884 45.0469 44.8114 45.6196C44.5935 47.3936 44.4035 49.0027 44.275 50.1677C44.2163 50.7264 44.166 51.1958 44.1297 51.5478C44.1082 51.7155 44.0979 51.8844 44.099 52.0534Z" fill="#263238"/>
<path d="M40.2185 73.6151H40.0565L39.5704 73.6458L37.7154 73.7827L31.0721 74.2911H31.005V74.3582C31.1112 75.6069 31.2285 76.9647 31.3514 78.3978C31.4129 79.113 31.4762 79.8468 31.5414 80.5992C31.5749 80.9764 31.6084 81.3563 31.6392 81.7391C31.6512 81.9362 31.682 82.1317 31.7314 82.3229C31.7897 82.5216 31.8783 82.71 31.994 82.8817C32.3705 83.3891 32.9314 83.7283 33.5556 83.8259C34.1432 83.8979 34.735 83.9287 35.3268 83.9181C36.4441 83.9212 37.5583 83.7993 38.6485 83.5549C38.9066 83.492 39.1597 83.4098 39.4056 83.3091C39.5276 83.2581 39.6453 83.1974 39.7576 83.1275C39.8144 83.0895 39.8677 83.0465 39.9168 82.999C39.9619 82.9495 40.0039 82.8973 40.0425 82.8426C40.2803 82.404 40.4284 81.9225 40.4784 81.4262C40.5857 80.5542 40.6296 79.6756 40.6097 78.7973C40.5845 77.1882 40.4672 75.8919 40.3834 75.0007C40.3387 74.5537 40.2968 74.2073 40.2661 73.9726C40.2661 73.8609 40.2409 73.7743 40.2297 73.6933C40.2262 73.6631 40.2206 73.6333 40.213 73.6039C40.2087 73.6345 40.2087 73.6655 40.213 73.6961C40.213 73.7659 40.213 73.8525 40.2353 73.9754C40.2549 74.2213 40.2828 74.5649 40.3219 75.0035C40.389 75.9003 40.4867 77.1965 40.4979 78.7973C40.5134 79.6696 40.4639 80.5417 40.3499 81.4066C40.3004 81.8835 40.1571 82.3459 39.928 82.7671C39.7854 82.9642 39.5824 83.1094 39.3497 83.1806C39.1105 83.2789 38.8639 83.3583 38.6122 83.4181C37.535 83.6532 36.4349 83.7675 35.3324 83.7589C34.7498 83.7675 34.1674 83.7358 33.5892 83.6639C33.0039 83.576 32.4775 83.2595 32.1253 82.7839C32.0199 82.6292 31.938 82.4597 31.8822 82.281C31.8352 82.0982 31.8071 81.9109 31.7984 81.7223C31.7621 81.3396 31.7314 80.9596 31.6978 80.5853C31.6308 79.8338 31.5665 79.0962 31.5023 78.3811C31.3766 76.9479 31.2536 75.5874 31.1447 74.3442L31.0832 74.4168L37.6735 73.8553L39.5397 73.6849L40.037 73.6374C40.0979 73.6336 40.1585 73.6261 40.2185 73.6151Z" fill="#263238"/>
<g opacity="0.3">
<path opacity="0.3" d="M31.7453 82.1441C32.4549 83.9936 34.3099 84.0997 36.3018 83.8204C38.1763 83.541 39.981 83.1527 40.1207 82.6163C40.0704 83.5969 39.3497 84.3484 38.4445 84.7423C37.5255 85.0935 36.5388 85.232 35.5586 85.1474C34.5333 85.1027 33.6478 85.1474 32.8013 84.5635C31.9548 83.9796 31.7425 82.9878 31.7453 82.1441Z" fill="black"/>
</g>
<path d="M50.7619 74.1877C50.7547 74.165 50.75 74.1416 50.7479 74.1179L50.7228 73.9168C50.7023 73.7305 50.6743 73.4707 50.6389 73.1373L50.3596 70.2654C50.1277 67.8405 49.8204 64.4881 49.4963 60.7865C49.1723 57.0849 48.8929 53.7297 48.7085 51.288C48.6163 50.0755 48.5465 49.0921 48.5074 48.4105C48.485 48.0697 48.4767 47.8071 48.4711 47.6255C48.4711 47.5445 48.4711 47.4774 48.4711 47.4215C48.4668 47.3994 48.4668 47.3766 48.4711 47.3545C48.5381 48.1395 49.0047 53.4782 49.6416 60.7641C49.9601 64.4602 50.2506 67.807 50.4602 70.2459C50.5579 71.4499 50.6389 72.4277 50.6948 73.1206C50.72 73.4502 50.7395 73.7128 50.7535 73.9028C50.7535 73.9838 50.7535 74.0509 50.7535 74.1067C50.7602 74.1332 50.763 74.1605 50.7619 74.1877Z" fill="#263238"/>
<path d="M54.4077 60.5015C54.5134 60.8898 54.5522 61.2932 54.5223 61.6944C54.4636 62.3034 54.4357 63.8064 52.807 64.3205C51.1782 64.8345 50.3904 64.3456 49.8876 63.6556L49.6417 60.6636L51.3822 59.5126L54.4077 60.5015Z" fill="#E0E0E0"/>
<g opacity="0.3">
<path opacity="0.3" d="M40.7968 62.4236C40.7968 62.4236 36.6315 66.5387 33.3964 67.1337C30.1613 67.7288 29.0047 66.575 28.1443 63.6779L40.7968 62.4236Z" fill="black"/>
</g>
<path d="M27.5967 43.6137C27.5967 43.6137 24.9483 46.0694 25.7026 51.8747C26.401 57.272 27.6581 64.7898 29.3008 65.6615C30.9435 66.5331 34.5334 66.0973 37.151 64.6138C39.7687 63.1304 47.3536 59.1215 47.3536 59.1215L44.2135 53.5341L34.0976 57.4452C34.0976 57.4452 32.7901 48.5055 32.0051 46.955" fill="#E0E0E0"/>
<path d="M31.9744 46.8488C31.9744 46.8488 32.0024 46.9047 32.0526 47.0192C32.0778 47.0751 32.1085 47.1478 32.142 47.2316C32.1756 47.3154 32.2035 47.4243 32.2426 47.5389C32.3907 48.0026 32.5667 48.6982 32.7622 49.6034C33.1506 51.4109 33.6227 54.0509 34.12 57.3335L34.0473 57.2888L44.1577 53.3497L44.2135 53.3302L44.2443 53.3832L47.3871 58.9706L47.4235 59.0348L47.3564 59.0712L40.8695 62.5661L37.6875 64.2786C37.1679 64.5579 36.6454 64.8373 36.1063 65.0832C35.5681 65.3062 35.0156 65.4928 34.4524 65.6419C33.3551 65.9492 32.2162 66.0813 31.0777 66.033C30.5211 66.0131 29.9721 65.8978 29.4545 65.6922L29.2673 65.6084C29.2031 65.5749 29.1414 65.5366 29.083 65.4938C28.9798 65.4051 28.8862 65.3059 28.8036 65.1977C28.6389 64.9832 28.4958 64.753 28.3762 64.5105C27.9321 63.573 27.5839 62.593 27.3369 61.5855C27.0827 60.6161 26.8788 59.6634 26.6972 58.7387C26.3396 56.8921 26.0742 55.16 25.8591 53.576C25.6439 51.992 25.44 50.5504 25.5015 49.2737C25.5224 48.1833 25.7108 47.1026 26.0602 46.0694C26.2895 45.419 26.6123 44.8054 27.0184 44.2479C27.1242 44.104 27.24 43.9677 27.3648 43.84C27.4075 43.7959 27.4532 43.7548 27.5017 43.7171C27.5017 43.7171 27.457 43.759 27.376 43.8484C27.2578 43.982 27.1468 44.1219 27.0436 44.2675C26.6496 44.8276 26.3373 45.4409 26.1161 46.0889C25.7695 47.117 25.5811 48.1918 25.5573 49.2765C25.5071 50.5449 25.7082 51.978 25.9373 53.562C26.1664 55.146 26.4374 56.8725 26.8005 58.7164C26.9849 59.6355 27.1861 60.5853 27.4431 61.5519C27.6823 62.5496 28.0201 63.521 28.4516 64.4518C28.5671 64.6857 28.7056 64.9075 28.865 65.1139C28.9476 65.217 29.0413 65.3107 29.1444 65.3933C29.1963 65.43 29.2505 65.4636 29.3065 65.4938L29.4853 65.572C29.9884 65.7688 30.521 65.8793 31.0609 65.8989C32.1835 65.945 33.3063 65.8139 34.3882 65.5106C34.9442 65.3591 35.49 65.1724 36.0225 64.9519C36.5561 64.72 37.0645 64.435 37.5897 64.1529L40.7717 62.4375L47.2614 58.9454L47.2307 59.0488C46.1412 57.0932 45.0879 55.2299 44.0962 53.4615L44.1828 53.4922L34.0613 57.4033L33.997 57.4257V57.3586C33.5109 54.0761 33.0584 51.436 32.6868 49.6257C32.5024 48.7206 32.3348 48.0222 32.1951 47.5584C32.1616 47.4439 32.1309 47.3405 32.1029 47.2511L32.0219 47.036C31.994 46.9103 31.9744 46.8488 31.9744 46.8488Z" fill="#263238"/>
<path d="M35.5978 53.5425H40.618V51.8719H35.5978V53.5425Z" fill="white"/>
<path d="M36.6343 52.6066C37.6759 52.5098 38.7243 52.5098 39.766 52.6066C38.7243 52.7034 37.6759 52.7034 36.6343 52.6066Z" fill="#263238"/>
<g opacity="0.3">
<path opacity="0.3" d="M43.8476 51.9445L36.4611 45.9521L36.6371 45.4268H35.9918L34.9274 41.2754L36.4611 44.2898L37.3523 44.2479L36.7069 44.8402L43.8476 51.9445Z" fill="black"/>
</g>
<path d="M34.7206 45.1112L35 44.9994C35 44.9994 34.3937 43.5411 33.8015 42.0102C33.5863 41.5402 33.4996 41.0216 33.55 40.5072C33.5829 40.3456 33.672 40.2009 33.8013 40.0986C33.9307 39.9963 34.092 39.9431 34.2569 39.9484L34.4524 39.8451L34.553 39.6663C34.0362 39.5545 33.3433 39.9876 33.2623 40.4653C33.2061 41.0334 33.3025 41.6063 33.5417 42.1247C34.1116 43.6501 34.715 45.0972 34.7206 45.1112Z" fill="#455A64"/>
<path d="M34.2848 48.4859L34.6564 48.3406C34.3519 47.5584 33.9356 46.1672 34.1144 45.776C34.2023 45.6365 34.3191 45.5174 34.4569 45.4268C34.5947 45.3362 34.7504 45.2762 34.9134 45.2508C35.1127 45.1971 35.3217 45.1906 35.524 45.2318C35.7262 45.273 35.916 45.3608 36.0783 45.4883C36.503 45.8487 37.1455 47.117 37.3578 47.578L37.721 47.4103C37.6875 47.3405 36.9164 45.6755 36.3242 45.1754C36.1153 45.0078 35.87 44.8914 35.6081 44.8356C35.3461 44.7799 35.0747 44.7862 34.8156 44.8541C34.5923 44.8912 34.3801 44.9776 34.1945 45.1071C34.0089 45.2367 33.8546 45.406 33.7428 45.6028C33.4523 46.2677 34.1451 48.1199 34.2848 48.4859Z" fill="#455A64"/>
<path d="M38.2965 54.5426C38.7546 54.5426 39.2072 54.2996 39.6402 53.8107L39.4894 53.6766C39.0145 54.2158 38.5256 54.4281 38.0367 54.3135C36.0504 53.847 34.539 48.3295 34.5222 48.2736L34.3295 48.3239C34.3937 48.5558 35.8883 54.0146 37.9892 54.5091C38.0901 54.5311 38.1931 54.5424 38.2965 54.5426Z" fill="#263238"/>
<path d="M39.2576 54.0397C39.2986 54.0792 39.3522 54.1028 39.409 54.1064C39.4658 54.11 39.522 54.0933 39.5677 54.0593L39.9979 53.738C40.03 53.7179 40.0577 53.6916 40.0793 53.6604C40.1009 53.6293 40.1159 53.5942 40.1235 53.5571C40.1311 53.52 40.131 53.4817 40.1233 53.4446C40.1157 53.4075 40.1006 53.3724 40.0789 53.3413C40.0557 53.304 40.024 53.2727 39.9864 53.25C39.9488 53.2272 39.9063 53.2137 39.8625 53.2104C39.8187 53.2071 39.7747 53.2142 39.7342 53.2312C39.6936 53.2481 39.6576 53.2744 39.6291 53.3078L39.2408 53.7101C39.2016 53.7571 39.1815 53.8171 39.1846 53.8782C39.1877 53.9393 39.2138 53.997 39.2576 54.0397Z" fill="#263238"/>
<path d="M37.4528 54.7242C37.711 54.7441 37.9701 54.6993 38.2067 54.594C38.4432 54.4886 38.6498 54.326 38.8078 54.1208C40.0286 52.4055 37.7266 47.6506 37.6288 47.4495L37.45 47.5389C37.4724 47.5864 39.7995 52.3887 38.6457 54.0034C38.3468 54.4253 37.8076 54.5929 37.0757 54.5007L37.0505 54.6991C37.184 54.7153 37.3184 54.7237 37.4528 54.7242Z" fill="#263238"/>
<path d="M37.4892 54.618C37.4848 54.6746 37.4605 54.7279 37.4206 54.7683C37.3807 54.8087 37.3278 54.8336 37.2713 54.8387L36.7349 54.8807C36.6977 54.8866 36.6597 54.8849 36.6233 54.8758C36.5868 54.8666 36.5525 54.8502 36.5225 54.8275C36.4925 54.8048 36.4674 54.7763 36.4486 54.7437C36.4299 54.711 36.418 54.675 36.4136 54.6376C36.4066 54.5954 36.4093 54.5521 36.4216 54.5112C36.434 54.4702 36.4555 54.4326 36.4847 54.4013C36.5138 54.37 36.5498 54.3458 36.5898 54.3306C36.6298 54.3154 36.6727 54.3095 36.7153 54.3135L37.274 54.361C37.3363 54.3674 37.3936 54.3978 37.4338 54.4458C37.474 54.4938 37.4939 54.5556 37.4892 54.618Z" fill="#263238"/>
<path d="M47.0519 48.7848C47.8357 48.7848 48.4711 48.1495 48.4711 47.3657C48.4711 46.5819 47.8357 45.9465 47.0519 45.9465C46.2681 45.9465 45.6327 46.5819 45.6327 47.3657C45.6327 48.1495 46.2681 48.7848 47.0519 48.7848Z" fill="#263238"/>
<path d="M47.0519 48.7848C47.8357 48.7848 48.4711 48.1495 48.4711 47.3657C48.4711 46.5819 47.8357 45.9465 47.0519 45.9465C46.2681 45.9465 45.6327 46.5819 45.6327 47.3657C45.6327 48.1495 46.2681 48.7848 47.0519 48.7848Z" fill="#263238"/>
<path d="M46.0015 47.3657C46.0015 47.5735 46.0632 47.7767 46.1787 47.9495C46.2942 48.1223 46.4585 48.257 46.6506 48.3364C46.8427 48.4158 47.054 48.4364 47.2579 48.3957C47.4617 48.3549 47.6488 48.2546 47.7956 48.1074C47.9424 47.9602 48.0423 47.7728 48.0825 47.5689C48.1227 47.3649 48.1015 47.1536 48.0215 46.9617C47.9416 46.7698 47.8066 46.606 47.6334 46.4909C47.4603 46.3758 47.257 46.3147 47.0491 46.3152C46.9113 46.3152 46.7748 46.3424 46.6475 46.3952C46.5203 46.4481 46.4046 46.5255 46.3073 46.6231C46.21 46.7206 46.1329 46.8365 46.0804 46.9639C46.0279 47.0913 46.0011 47.2278 46.0015 47.3657Z" fill="#E0E0E0"/>
<path d="M44.0375 41.1805C44.1716 41.376 45.655 44.5049 46.4652 46.0834L46.7027 45.9632C46.5825 45.7286 44.4258 41.2782 44.2582 41.0324L42.7021 39.7445L42.6462 40.0406L44.0375 41.1805Z" fill="#455A64"/>
<path d="M43.4425 47.3293C44.4705 48.3546 47.0742 51.0254 47.0742 51.0254L47.7727 50.6035L44.1046 46.6924C44.0302 46.6131 43.9301 46.5628 43.8221 46.5506C43.7142 46.5383 43.6053 46.5648 43.5151 46.6253C43.4591 46.663 43.4121 46.7126 43.3773 46.7705C43.3426 46.8284 43.321 46.8932 43.3141 46.9603C43.3072 47.0275 43.3151 47.0954 43.3372 47.1591C43.3594 47.2229 43.3953 47.281 43.4425 47.3293Z" fill="#263238"/>
<path d="M44.1829 53.4168L45.0573 50.9555C45.1455 50.6879 45.3135 50.4537 45.5388 50.2844C45.764 50.1151 46.0357 50.0188 46.3172 50.0085H46.4485C46.9737 50.0671 49.6473 50.2431 49.6473 50.2431L50.6838 51.4025C50.7674 51.5002 50.8133 51.6245 50.8133 51.7531C50.8133 51.8817 50.7674 52.0061 50.6838 52.1037L50.9799 54.1962L50.3932 54.5929L50.4491 56.0568C50.4491 56.0568 49.9267 56.406 49.6948 56.2887L49.4629 56.1713L49.1277 55.8221L48.1387 57.219L46.7726 58.0096L44.1829 53.4168Z" fill="#FFBF9D"/>
<path d="M50.6977 52.2183C50.5809 52.0761 50.4559 51.9408 50.3234 51.8132C50.1751 51.6849 50.0059 51.5829 49.8233 51.5115C49.5859 51.4554 49.3435 51.4226 49.0997 51.4137C48.458 51.378 47.82 51.2921 47.1917 51.1567C47.8341 51.1414 48.4768 51.1769 49.1137 51.2628C49.3697 51.2726 49.6238 51.312 49.8708 51.3802C50.0666 51.4631 50.2448 51.5826 50.396 51.7322C50.5474 51.8565 50.6535 52.0274 50.6977 52.2183Z" fill="#FF9A6C"/>
<path d="M50.6389 54.1459C50.58 53.9622 50.5081 53.783 50.4238 53.6095C50.1852 53.2138 49.8215 52.9091 49.3901 52.7435C48.9524 52.5851 48.4895 52.5075 48.024 52.5144C47.8274 52.526 47.63 52.5195 47.4346 52.4948C47.6237 52.4322 47.822 52.4019 48.0212 52.4055C48.5047 52.368 48.9905 52.4347 49.446 52.601C49.9095 52.7773 50.2915 53.1185 50.5188 53.5592C50.6238 53.7357 50.6661 53.9424 50.6389 54.1459Z" fill="#FF9A6C"/>
<path d="M50.3764 55.9395C50.2789 55.7637 50.2307 55.5649 50.2367 55.364C50.2249 55.1581 50.1806 54.9554 50.1054 54.7633C50.0534 54.6535 49.9752 54.5582 49.8778 54.4856C49.7804 54.4131 49.6667 54.3655 49.5467 54.3471C49.0861 54.2487 48.6194 54.1815 48.1498 54.1459C47.9504 54.1374 47.7543 54.0919 47.5715 54.0118C47.7684 54.0071 47.9654 54.0165 48.161 54.0397C48.6392 54.0436 49.1158 54.097 49.583 54.199C49.7237 54.234 49.8565 54.2956 49.9741 54.3806C50.0917 54.4625 50.1852 54.5744 50.2451 54.7046C50.3214 54.912 50.3583 55.1318 50.354 55.3528C50.3429 55.7188 50.3931 55.9339 50.3764 55.9395Z" fill="#FF9A6C"/>
<path d="M51.8347 51.3187L40.3052 63.2282L40.7466 63.6779L49.0103 62.7476L60.1263 52.1596L60.1124 51.6484L51.8347 51.3187Z" fill="#455A64"/>
<g opacity="0.3">
<path opacity="0.3" d="M53.9942 56.8725C53.7229 56.6249 53.4028 56.4369 53.0544 56.3204C52.7061 56.204 52.3372 56.1618 51.9716 56.1965C51.2371 56.2706 50.5415 56.5624 49.9741 57.0346C49.4935 57.3847 49.1435 57.8851 48.9795 58.4566C48.7449 59.4567 49.569 60.8563 50.477 61.3424C51.628 60.4177 52.7482 59.0013 53.8992 58.0766C54.0865 57.9565 54.2274 57.7762 54.2987 57.5654C54.3079 57.4339 54.285 57.3021 54.232 57.1814C54.1789 57.0607 54.0973 56.9547 53.9942 56.8725Z" fill="black"/>
</g>
<path d="M60.0788 52.1345C60.0288 52.1418 59.978 52.1418 59.928 52.1345H59.4866L57.8355 52.1177L52.0861 52.006L52.1392 51.9836L49.2505 54.984L43.2609 61.1553C42.4954 61.9319 41.8641 62.5521 41.431 63.0103L40.9282 63.5103C40.8724 63.5711 40.8117 63.6272 40.7466 63.6779C40.7961 63.6109 40.8503 63.5475 40.9086 63.488L41.3891 62.9711L43.1827 61.0798L49.1416 54.8834C50.1613 53.8274 51.1419 52.8161 52.0358 51.8942L52.0582 51.8719H52.0889L57.8355 52.0367L59.4894 52.0981L59.928 52.1177C59.9786 52.1196 60.029 52.1252 60.0788 52.1345Z" fill="#263238"/>
<path d="M52.8628 55.6293C52.8628 55.6293 53.9803 55.6489 54.3435 55.8305C54.7066 56.0121 55.7096 57.0821 55.7096 57.0821C55.7096 57.0821 55.7096 57.8084 55.4302 57.8364C55.4655 57.9989 55.4852 58.1645 55.4889 58.3308C55.5196 58.7387 55.5755 58.9706 55.0251 59.3198C55.0251 59.3198 55.081 59.9875 54.8798 60.1579C54.7414 60.2731 54.5958 60.3795 54.444 60.4764C54.444 60.4764 54.4105 61.2139 53.4243 61.2027L52.5024 61.6106C52.5024 61.6106 50.4463 61.4179 50.6614 61.1776C50.8765 60.9373 51.3626 59.7333 51.3626 59.7333C51.3626 59.7333 49.9658 58.7052 49.9853 58.3867C50.0049 58.0682 50.1306 58.0375 50.1306 58.0375C50.1306 58.0375 50.0719 57.4285 50.5664 57.3698C50.5664 57.3698 50.9435 56.6127 51.3207 56.5848C51.6978 56.5569 54.2568 57.4844 54.2568 57.4844L53.2986 56.6714C53.2986 56.6714 52.3376 56.5261 52.3683 56.2076C52.399 55.8892 52.8628 55.6293 52.8628 55.6293Z" fill="#FFBF9D"/>
<path d="M52.6922 59.4539C52.248 59.2683 51.8144 59.0585 51.3932 58.8253C50.9498 58.639 50.5162 58.4301 50.0941 58.1995C50.5722 58.2902 51.0331 58.4552 51.4602 58.6884C51.9077 58.879 52.3232 59.1372 52.6922 59.4539Z" fill="#FF9A6C"/>
<path d="M54.0222 58.5683C53.449 58.4357 52.8883 58.2544 52.346 58.0263C51.7886 57.8463 51.2482 57.6172 50.7312 57.3419C51.3045 57.4741 51.8653 57.6554 52.4074 57.8838C52.9648 58.064 53.5051 58.293 54.0222 58.5683Z" fill="#FF9A6C"/>
<path d="M35.8269 32.8246C35.4484 31.5586 35.181 30.2621 35.0279 28.9497C34.8727 27.6318 35.0494 26.296 35.5419 25.0637C35.6201 24.8793 36.2794 23.6529 36.4778 23.6836C36.6175 23.706 36.1984 24.8598 36.2571 24.9855C36.8445 26.2296 37.0394 27.623 36.8158 28.9805C36.6293 30.2944 36.2976 31.5837 35.8269 32.8246Z" fill="#263238"/>
<path d="M35.9553 27.7876C36.0168 24.477 37.9975 21.7532 41.3052 21.9069L41.6097 21.9404C43.0909 22.0939 44.4599 22.7999 45.4436 23.9178C46.4274 25.0357 46.9538 26.4833 46.9177 27.9719C46.8451 30.841 46.7305 34.0091 46.5517 35.5344C46.1802 38.6913 42.9675 38.8477 42.9675 38.8477L42.2383 43.7171L35.4888 39.0293L35.9553 27.7876Z" fill="#FFBF9D"/>
<path d="M42.9591 38.8729C41.4996 38.7154 40.116 38.1424 38.9725 37.2218C38.9725 37.2218 39.6039 39.9233 42.7859 39.9736L42.9591 38.8729Z" fill="#FF9A6C"/>
<path d="M45.7026 30.6148C45.6912 30.7324 45.6343 30.8409 45.544 30.9171C45.4537 30.9933 45.3372 31.0312 45.2193 31.0226C45.1615 31.0212 45.1045 31.0082 45.0517 30.9844C44.999 30.9606 44.9516 30.9265 44.9122 30.884C44.8729 30.8416 44.8425 30.7917 44.8228 30.7373C44.8031 30.6829 44.7945 30.6251 44.7975 30.5673C44.8095 30.4497 44.8665 30.3413 44.9566 30.2648C45.0466 30.1883 45.1628 30.1495 45.2808 30.1566C45.3387 30.1584 45.3958 30.1717 45.4485 30.1958C45.5013 30.2199 45.5487 30.2543 45.588 30.297C45.6273 30.3397 45.6577 30.3898 45.6773 30.4443C45.697 30.4989 45.7056 30.5568 45.7026 30.6148Z" fill="#263238"/>
<path d="M46.0937 29.2123C46.0322 29.2654 45.7165 28.9749 45.2304 28.933C44.7443 28.8911 44.3644 29.0894 44.3169 29.0252C44.2694 28.9609 44.3616 28.8939 44.5292 28.7989C44.7548 28.6746 45.0136 28.6238 45.2695 28.6536C45.5223 28.6788 45.7603 28.7846 45.9484 28.9553C46.0853 29.0754 46.1244 29.1872 46.0937 29.2123Z" fill="#263238"/>
<path d="M41.5512 30.4192C41.5398 30.5371 41.483 30.6458 41.3928 30.7225C41.3026 30.7992 41.1861 30.8377 41.0679 30.8299C41.0099 30.8284 40.9528 30.8155 40.8999 30.7917C40.8471 30.7679 40.7994 30.7338 40.7599 30.6914C40.7204 30.649 40.6897 30.5991 40.6696 30.5447C40.6496 30.4903 40.6406 30.4324 40.6433 30.3745C40.6546 30.2567 40.7114 30.1479 40.8017 30.0712C40.8919 29.9945 41.0084 29.956 41.1266 29.9638C41.1844 29.9656 41.2413 29.9789 41.2941 30.0028C41.3468 30.0267 41.3942 30.0608 41.4337 30.1031C41.4732 30.1454 41.5039 30.1952 41.524 30.2494C41.5442 30.3037 41.5535 30.3614 41.5512 30.4192Z" fill="#263238"/>
<path d="M41.3053 28.9078C41.2439 28.9581 40.9282 28.6704 40.4421 28.6285C39.956 28.5866 39.5761 28.7849 39.5286 28.7206C39.4811 28.6564 39.5733 28.5893 39.7409 28.4944C39.9665 28.3701 40.2253 28.3193 40.4812 28.3491C40.7334 28.3746 40.971 28.4793 41.1601 28.648C41.3053 28.7709 41.3472 28.8827 41.3053 28.9078Z" fill="#263238"/>
<path d="M42.6658 32.8218C42.9305 32.7689 43.2008 32.7492 43.4704 32.7631C43.5961 32.7631 43.7162 32.7631 43.7497 32.6681C43.7735 32.5408 43.7579 32.4092 43.705 32.291L43.4257 31.3076C43.0569 29.9108 42.8055 28.7653 42.8669 28.7514C42.9284 28.7374 43.2664 29.8688 43.6352 31.2657C43.7218 31.6093 43.8056 31.939 43.8866 32.2519C43.9431 32.4118 43.9431 32.5863 43.8866 32.7463C43.8636 32.7879 43.8316 32.8237 43.7929 32.8513C43.7542 32.8788 43.7099 32.8974 43.6631 32.9056C43.5917 32.9148 43.5194 32.9148 43.448 32.9056C43.1848 32.9105 42.922 32.8824 42.6658 32.8218Z" fill="#263238"/>
<path d="M41.202 33.0061C41.2802 33.0061 41.2271 33.5369 41.6378 33.9588C42.0484 34.3806 42.6156 34.3834 42.6128 34.4561C42.61 34.5287 42.4787 34.5455 42.2384 34.5259C41.9301 34.4978 41.6413 34.3624 41.4227 34.1432C41.2125 33.9311 41.0933 33.6455 41.0902 33.347C41.093 33.1235 41.1656 33.0006 41.202 33.0061Z" fill="#263238"/>
<path d="M41.498 26.9327C41.4366 27.0612 40.9589 26.9327 40.3806 26.955C39.8023 26.9774 39.3273 27.0696 39.2631 26.955C39.2352 26.8964 39.3301 26.779 39.5285 26.6757C39.7938 26.5475 40.0846 26.481 40.3792 26.481C40.6738 26.481 40.9646 26.5475 41.2298 26.6757C41.431 26.7679 41.526 26.874 41.498 26.9327Z" fill="#263238"/>
<path d="M46.0546 27.5752C45.9596 27.6786 45.6355 27.5278 45.2332 27.4803C44.8309 27.4328 44.4845 27.4803 44.4175 27.3517C44.3895 27.2931 44.4538 27.1869 44.613 27.0975C44.8258 26.9926 45.0654 26.9546 45.3003 26.9886C45.5354 27.0142 45.7569 27.1117 45.9344 27.2679C46.0713 27.4076 46.1076 27.525 46.0546 27.5752Z" fill="#263238"/>
<path d="M35.9665 30.1538C35.9135 30.1259 33.8629 29.2822 33.7036 31.4501C33.5444 33.618 35.7542 33.3302 35.7626 33.2688C35.771 33.2073 35.9665 30.1538 35.9665 30.1538Z" fill="#FFBF9D"/>
<path d="M35.1592 32.3971C35.1592 32.3971 35.1201 32.4223 35.0558 32.4474C34.9639 32.4773 34.8641 32.4713 34.7765 32.4307C34.5558 32.3301 34.3882 31.9529 34.4077 31.5618C34.4156 31.3753 34.4653 31.193 34.553 31.0282C34.5764 30.96 34.6166 30.8987 34.6698 30.8499C34.7229 30.8011 34.7875 30.7664 34.8575 30.7489C34.9018 30.7401 34.9477 30.7473 34.9872 30.7693C35.0266 30.7913 35.0569 30.8267 35.0726 30.869C35.0978 30.9304 35.0726 30.9724 35.0922 30.9779C35.1117 30.9835 35.1397 30.9444 35.1285 30.855C35.1219 30.7998 35.095 30.749 35.0531 30.7125C35.0254 30.688 34.9931 30.6691 34.9581 30.6572C34.9231 30.6452 34.886 30.6403 34.8491 30.6427C34.7587 30.6534 34.6726 30.6874 34.5992 30.7412C34.5257 30.7951 34.4675 30.867 34.4301 30.95C34.3244 31.1313 34.264 31.3354 34.2541 31.5451C34.2373 31.9809 34.4301 32.4055 34.7374 32.5201C34.7943 32.5408 34.8551 32.5488 34.9154 32.5435C34.9757 32.5382 35.0342 32.5197 35.0866 32.4893C35.1592 32.4502 35.1592 32.4027 35.1592 32.3971Z" fill="#FF9A6C"/>
<path d="M45.736 24.2871C46.0992 24.1167 45.1186 22.9126 44.2805 22.4656C43.015 21.7895 41.0482 21.2978 39.8246 21.5605C38.3523 21.8789 37.1035 22.5215 36.2906 23.7954C35.5051 25.0919 35.078 26.5737 35.053 28.0893C35.0054 28.5489 35.0816 29.0128 35.2737 29.433C35.553 29.9331 36.1118 30.2711 36.0392 30.9304C36.023 31.0496 36.0308 31.1707 36.0619 31.2867C36.0931 31.4028 36.1471 31.5115 36.2207 31.6065C36.5923 32.0563 37.1035 31.6903 37.3522 31.3076C37.883 30.489 38.0003 29.4777 38.1065 28.5139C38.2197 27.8285 38.2197 27.1292 38.1065 26.4438C38.0254 26.075 37.8746 25.723 37.8271 25.3515C37.7841 25.1672 37.7819 24.9757 37.8205 24.7904C37.8591 24.6052 37.9376 24.4305 38.0506 24.2787C38.1069 24.2163 38.1696 24.1602 38.2378 24.1111C38.5571 23.8663 38.9361 23.7114 39.3354 23.6622C39.7347 23.6131 40.1399 23.6716 40.509 23.8317C41.7047 24.3402 43.7469 25.1196 44.3196 24.7425C45.1409 24.1837 45.3533 23.8177 45.3533 23.8177L45.736 24.2871Z" fill="#263238"/>
<path d="M124.141 64.5637C136.213 64.5637 146 54.7773 146 42.7051C146 30.6328 136.213 20.8464 124.141 20.8464C112.069 20.8464 102.283 30.6328 102.283 42.7051C102.283 54.7773 112.069 64.5637 124.141 64.5637Z" fill="#FF725E"/>
<path opacity="0.55" d="M124.141 62.5712C135.113 62.5712 144.007 53.6768 144.007 42.7051C144.007 31.7333 135.113 22.8389 124.141 22.8389C113.169 22.8389 104.275 31.7333 104.275 42.7051C104.275 53.6768 113.169 62.5712 124.141 62.5712Z" fill="white"/>
<path d="M124.141 60.5437C133.993 60.5437 141.98 52.5571 141.98 42.7051C141.98 32.853 133.993 24.8664 124.141 24.8664C114.289 24.8664 106.303 32.853 106.303 42.7051C106.303 52.5571 114.289 60.5437 124.141 60.5437Z" fill="white"/>
<path d="M124.129 25.6469H124.094C123.837 25.6469 123.63 25.8545 123.63 26.1107V28.4325C123.63 28.6886 123.837 28.8963 124.094 28.8963H124.129C124.385 28.8963 124.592 28.6886 124.592 28.4325V26.1107C124.592 25.8545 124.385 25.6469 124.129 25.6469Z" fill="#373449"/>
<path d="M124.189 56.5139H124.154C123.898 56.5139 123.69 56.7215 123.69 56.9776V59.2994C123.69 59.5556 123.898 59.7632 124.154 59.7632H124.189C124.445 59.7632 124.653 59.5556 124.653 59.2994V56.9776C124.653 56.7215 124.445 56.5139 124.189 56.5139Z" fill="#373449"/>
<path d="M141.199 42.6924V42.6574C141.199 42.4013 140.992 42.1936 140.736 42.1936H138.414C138.158 42.1936 137.95 42.4013 137.95 42.6574V42.6924C137.95 42.9486 138.158 43.1562 138.414 43.1562H140.736C140.992 43.1562 141.199 42.9486 141.199 42.6924Z" fill="#373449"/>
<path d="M110.332 42.7527V42.7177C110.332 42.4615 110.125 42.2539 109.869 42.2539H107.547C107.291 42.2539 107.083 42.4615 107.083 42.7177V42.7527C107.083 43.0088 107.291 43.2165 107.547 43.2165H109.869C110.125 43.2165 110.332 43.0088 110.332 42.7527Z" fill="#373449"/>
<path d="M135.833 30.9941L135.809 30.9693C135.628 30.7882 135.334 30.7881 135.153 30.9691L134.304 31.8169C134.123 31.998 134.123 32.2917 134.304 32.4729L134.329 32.4976C134.51 32.6788 134.804 32.6789 134.985 32.4979L135.833 31.65C136.014 31.469 136.014 31.1753 135.833 30.9941Z" fill="#373449"/>
<path d="M114.153 52.7554L114.128 52.7306C113.947 52.5494 113.654 52.5493 113.472 52.7304L112.429 53.7733C112.247 53.9544 112.247 54.248 112.428 54.4292L112.453 54.454C112.634 54.6352 112.928 54.6353 113.109 54.4542L114.153 53.4113C114.334 53.2302 114.334 52.9366 114.153 52.7554Z" fill="#373449"/>
<path d="M135.855 54.4106L135.879 54.3858C136.061 54.2048 136.061 53.9111 135.88 53.7299L135.032 52.8815C134.851 52.7003 134.557 52.7002 134.376 52.8813L134.351 52.906C134.17 53.0871 134.17 53.3807 134.351 53.5619L135.199 54.4104C135.38 54.5915 135.673 54.5916 135.855 54.4106Z" fill="#373449"/>
<path d="M114.089 32.7325L114.114 32.7077C114.295 32.5267 114.295 32.233 114.114 32.0518L113.071 31.0081C112.89 30.827 112.597 30.8268 112.416 31.0079L112.391 31.0327C112.21 31.2137 112.21 31.5074 112.391 31.6886L113.434 32.7323C113.615 32.9134 113.908 32.9135 114.089 32.7325Z" fill="#373449"/>
<path d="M124.155 30.7556H124.115C123.832 30.7556 123.603 30.9846 123.603 31.2671V42.4697C123.603 42.7521 123.832 42.9811 124.115 42.9811H124.155C124.438 42.9811 124.667 42.7521 124.667 42.4697V31.2671C124.667 30.9846 124.438 30.7556 124.155 30.7556Z" fill="#FF725E"/>
<path d="M132.373 43.4V43.3594C132.373 43.077 132.144 42.848 131.862 42.848H124.115C123.832 42.848 123.603 43.077 123.603 43.3594V43.4C123.603 43.6825 123.832 43.9115 124.115 43.9115H131.862C132.144 43.9115 132.373 43.6825 132.373 43.4Z" fill="#FF725E"/>
<path d="M132.174 35.4735L124.201 42.649" stroke="#373449" stroke-width="2" stroke-miterlimit="10" stroke-linecap="round"/>
<path d="M124.141 44.6317C125.205 44.6317 126.068 43.7691 126.068 42.7051C126.068 41.641 125.205 40.7784 124.141 40.7784C123.077 40.7784 122.215 41.641 122.215 42.7051C122.215 43.7691 123.077 44.6317 124.141 44.6317Z" fill="#FF725E"/>
</g>
<g filter="url(#filter0_b_206:37109)">
<rect x="13" y="77" width="141" height="77" rx="10" fill="black" fill-opacity="0.8"/>
</g>
<path d="M51.9841 86.872C52.7495 86.872 53.5101 87.026 54.2661 87.334L53.9581 88.972L53.6781 89.084C53.3608 88.86 53.0295 88.6827 52.6841 88.552C52.3481 88.4213 52.0401 88.356 51.7601 88.356C51.3868 88.356 51.0881 88.4587 50.8641 88.664C50.6401 88.86 50.5281 89.0887 50.5281 89.35C50.5281 89.6207 50.6495 89.8493 50.8921 90.036C51.1441 90.2227 51.5361 90.442 52.0681 90.694C52.5815 90.9273 52.9968 91.1467 53.3141 91.352C53.6408 91.548 53.9161 91.8093 54.1401 92.136C54.3735 92.4627 54.4901 92.864 54.4901 93.34C54.4901 93.8533 54.3501 94.3247 54.0701 94.754C53.7901 95.174 53.3935 95.51 52.8801 95.762C52.3668 96.0047 51.7741 96.126 51.1021 96.126C50.2155 96.126 49.3241 95.9347 48.4281 95.552L48.6941 93.788L48.9041 93.676C49.2775 94.0027 49.6835 94.2547 50.1221 94.432C50.5701 94.6 50.9668 94.684 51.3121 94.684C51.7228 94.684 52.0401 94.586 52.2641 94.39C52.4975 94.1847 52.6141 93.942 52.6141 93.662C52.6141 93.3633 52.4881 93.1207 52.2361 92.934C51.9935 92.7473 51.5968 92.5233 51.0461 92.262C50.5421 92.038 50.1315 91.828 49.8141 91.632C49.4968 91.436 49.2261 91.1747 49.0021 90.848C48.7781 90.5213 48.6661 90.1247 48.6661 89.658C48.6661 89.1353 48.8061 88.664 49.0861 88.244C49.3661 87.8147 49.7581 87.4787 50.2621 87.236C50.7661 86.9933 51.3401 86.872 51.9841 86.872ZM58.304 89.364C59.256 89.364 59.984 89.644 60.488 90.204C60.992 90.764 61.244 91.5713 61.244 92.626C61.244 93.7647 60.9734 94.6373 60.432 95.244C59.8907 95.8413 59.1114 96.14 58.094 96.14C57.142 96.14 56.414 95.86 55.91 95.3C55.406 94.74 55.154 93.9327 55.154 92.878C55.154 91.7393 55.4247 90.8713 55.966 90.274C56.5074 89.6673 57.2867 89.364 58.304 89.364ZM58.178 90.624C57.73 90.624 57.4034 90.7733 57.198 91.072C57.002 91.3707 56.904 91.8513 56.904 92.514C56.904 93.3727 57.0067 93.984 57.212 94.348C57.4174 94.712 57.7534 94.894 58.22 94.894C58.668 94.894 58.99 94.7493 59.186 94.46C59.3914 94.1613 59.494 93.676 59.494 93.004C59.494 92.1547 59.3867 91.548 59.172 91.184C58.9667 90.8107 58.6354 90.624 58.178 90.624ZM68.736 94.782L68.568 95.762C68.2227 95.986 67.868 96.1027 67.504 96.112C67.2333 96.0653 67.0093 95.958 66.832 95.79C66.6547 95.622 66.5193 95.3793 66.426 95.062H66.3C65.768 95.5847 65.2173 95.9253 64.648 96.084C63.9387 96.084 63.3973 95.9253 63.024 95.608C62.66 95.2813 62.4827 94.8147 62.492 94.208L62.52 92.556L62.45 89.616L64.256 89.462L64.214 93.592C64.2047 93.9187 64.27 94.166 64.41 94.334C64.55 94.502 64.76 94.586 65.04 94.586C65.4507 94.586 65.8567 94.404 66.258 94.04V89.616L68.036 89.462L67.91 94.306C67.91 94.4553 67.9333 94.5627 67.98 94.628C68.036 94.6933 68.12 94.726 68.232 94.726C68.3347 94.726 68.4607 94.7073 68.61 94.67L68.736 94.782ZM74.5856 94.628C74.8843 94.628 75.1969 94.5487 75.5236 94.39L75.6776 94.53L75.4956 95.636C75.0196 95.8787 74.5343 96.028 74.0396 96.084C72.7796 95.9533 72.1496 95.3373 72.1496 94.236L72.2196 93.074L72.2056 90.666H71.3376L71.2676 90.568L71.3656 89.546H72.1916V88.468L73.8856 87.922L74.0116 88.034L73.9696 89.546H75.6356L75.6916 89.644L75.6076 90.666H73.9416L73.8576 93.802C73.8576 94.1007 73.9136 94.3153 74.0256 94.446C74.1376 94.5673 74.3243 94.628 74.5856 94.628ZM79.2461 89.364C79.9647 89.364 80.5247 89.5273 80.9261 89.854C81.3367 90.1713 81.5421 90.6193 81.5421 91.198C81.5421 91.366 81.5141 91.898 81.4581 92.794C81.4487 93.0553 81.4347 93.326 81.4161 93.606C81.3974 93.8767 81.3881 94.11 81.3881 94.306C81.3881 94.4647 81.4114 94.5767 81.4581 94.642C81.5047 94.698 81.5887 94.726 81.7101 94.726C81.8034 94.726 81.9247 94.7073 82.0741 94.67L82.2141 94.782L82.0461 95.762C81.7474 95.958 81.4067 96.0747 81.0241 96.112C80.7441 96.084 80.5107 95.986 80.3241 95.818C80.1374 95.6407 80.0114 95.398 79.9461 95.09H79.8481C79.3814 95.5847 78.9007 95.93 78.4061 96.126C77.7341 96.1167 77.2067 95.9393 76.8241 95.594C76.4414 95.2487 76.2501 94.7773 76.2501 94.18C76.2501 93.7133 76.3667 93.3493 76.6001 93.088C76.8427 92.8173 77.2067 92.6353 77.6921 92.542L79.8341 92.136V91.562C79.8341 90.9553 79.5354 90.652 78.9381 90.652C78.6487 90.652 78.3407 90.7173 78.0141 90.848C77.6967 90.9787 77.3374 91.184 76.9361 91.464L76.7961 91.38L76.5861 90.148C76.9874 89.896 77.4167 89.7047 77.8741 89.574C78.3314 89.434 78.7887 89.364 79.2461 89.364ZM78.3361 93.396C78.1867 93.4333 78.0747 93.4987 78.0001 93.592C77.9347 93.676 77.9021 93.8067 77.9021 93.984C77.9021 94.2267 77.9674 94.418 78.0981 94.558C78.2287 94.6887 78.4107 94.754 78.6441 94.754C79.0081 94.754 79.3907 94.5393 79.7921 94.11L79.8201 93.074L78.3361 93.396ZM91.1403 96L91.2523 91.94C91.2523 91.2493 90.9583 90.904 90.3703 90.904C89.9503 90.904 89.5116 91.0907 89.0543 91.464L89.0123 93.144L89.0963 96H87.2343L87.3463 91.94C87.3556 91.604 87.2809 91.3473 87.1223 91.17C86.9729 90.9927 86.7536 90.904 86.4643 90.904C86.0536 90.904 85.6009 91.1 85.1063 91.492V93.13L85.1903 96H83.3423L83.4403 93.312L83.3703 89.616L85.1203 89.462V90.414H85.2183C85.7316 89.9473 86.2963 89.6113 86.9123 89.406C87.9576 89.406 88.6249 89.756 88.9143 90.456H88.9983C89.5303 89.9613 90.1369 89.6113 90.8183 89.406C91.5276 89.406 92.0643 89.5693 92.4283 89.896C92.8016 90.2133 92.9789 90.6753 92.9603 91.282L92.9183 93.144L93.0023 96H91.1403ZM98.1493 89.406C98.9706 89.406 99.5959 89.686 100.025 90.246C100.464 90.7967 100.683 91.5667 100.683 92.556C100.683 93.704 100.399 94.5907 99.8293 95.216C99.2599 95.832 98.4713 96.14 97.4633 96.14C96.9873 96.14 96.4646 96.0327 95.8953 95.818L94.9153 96.168L94.6913 95.986L94.7893 93.326L94.7052 86.312L96.5533 86.172L96.4973 90.414H96.5813C96.8426 90.162 97.0946 89.9613 97.3373 89.812C97.5799 89.6533 97.8506 89.518 98.1493 89.406ZM97.4633 94.922C97.9299 94.922 98.2939 94.754 98.5553 94.418C98.8166 94.082 98.9473 93.5687 98.9473 92.878C98.9473 92.234 98.8399 91.744 98.6253 91.408C98.4199 91.072 98.1073 90.904 97.6873 90.904C97.3046 90.904 96.9033 91.1 96.4833 91.492L96.4553 93.088L96.4833 94.67C96.8286 94.838 97.1553 94.922 97.4633 94.922ZM107.003 92.976L103.223 93.004C103.307 94.1707 103.9 94.754 105.001 94.754C105.58 94.754 106.224 94.5907 106.933 94.264L107.087 94.362L106.807 95.748C106.098 96.0093 105.431 96.14 104.805 96.14C103.779 96.14 102.971 95.8413 102.383 95.244C101.805 94.6467 101.515 93.8207 101.515 92.766C101.515 91.7207 101.8 90.8947 102.369 90.288C102.939 89.672 103.709 89.364 104.679 89.364C105.51 89.364 106.149 89.5927 106.597 90.05C107.055 90.498 107.283 91.128 107.283 91.94C107.283 92.1547 107.26 92.4253 107.213 92.752L107.003 92.976ZM105.659 91.73C105.659 91.3567 105.575 91.0767 105.407 90.89C105.239 90.694 104.992 90.596 104.665 90.596C104.301 90.596 103.998 90.7173 103.755 90.96C103.513 91.1933 103.349 91.534 103.265 91.982L105.631 91.926L105.659 91.73ZM105.897 85.892L106.569 86.9L106.541 87.082C106.336 87.2127 106.182 87.306 106.079 87.362C104.913 88.0807 104.157 88.538 103.811 88.734L103.629 88.72L103.181 88.02C104.264 87.152 105.109 86.438 105.715 85.878L105.897 85.892ZM116.365 96L116.477 91.94C116.477 91.2493 116.183 90.904 115.595 90.904C115.175 90.904 114.736 91.0907 114.279 91.464L114.237 93.144L114.321 96H112.459L112.571 91.94C112.58 91.604 112.506 91.3473 112.347 91.17C112.198 90.9927 111.978 90.904 111.689 90.904C111.278 90.904 110.826 91.1 110.331 91.492V93.13L110.415 96H108.567L108.665 93.312L108.595 89.616L110.345 89.462V90.414H110.443C110.956 89.9473 111.521 89.6113 112.137 89.406C113.182 89.406 113.85 89.756 114.139 90.456H114.223C114.755 89.9613 115.362 89.6113 116.043 89.406C116.752 89.406 117.289 89.5693 117.653 89.896C118.026 90.2133 118.204 90.6753 118.185 91.282L118.143 93.144L118.227 96H116.365ZM27.7069 105.476C27.7909 105.476 27.9075 105.485 28.0569 105.504V107.226L27.8609 107.296C27.7022 107.231 27.5295 107.198 27.3429 107.198C26.8015 107.198 26.3115 107.548 25.8729 108.248V109.13L25.9709 112H24.1089L24.2209 109.312L24.1369 105.616L25.9009 105.462L25.8869 106.736H25.9989C26.4562 105.896 27.0255 105.476 27.7069 105.476ZM34.0161 108.976L30.2361 109.004C30.3201 110.171 30.9127 110.754 32.0141 110.754C32.5927 110.754 33.2367 110.591 33.9461 110.264L34.1001 110.362L33.8201 111.748C33.1107 112.009 32.4434 112.14 31.8181 112.14C30.7914 112.14 29.9841 111.841 29.3961 111.244C28.8174 110.647 28.5281 109.821 28.5281 108.766C28.5281 107.721 28.8127 106.895 29.3821 106.288C29.9514 105.672 30.7214 105.364 31.6921 105.364C32.5227 105.364 33.1621 105.593 33.6101 106.05C34.0674 106.498 34.2961 107.128 34.2961 107.94C34.2961 108.155 34.2727 108.425 34.2261 108.752L34.0161 108.976ZM32.6721 107.73C32.6721 107.357 32.5881 107.077 32.4201 106.89C32.2521 106.694 32.0047 106.596 31.6781 106.596C31.3141 106.596 31.0107 106.717 30.7681 106.96C30.5254 107.193 30.3621 107.534 30.2781 107.982L32.6441 107.926L32.6721 107.73ZM37.7636 105.378C38.3983 105.378 38.9956 105.485 39.5556 105.7L39.3036 107.072L39.0796 107.142C38.8089 106.965 38.5383 106.829 38.2676 106.736C37.9969 106.643 37.7589 106.596 37.5536 106.596C37.3296 106.596 37.1523 106.657 37.0216 106.778C36.8909 106.89 36.8256 107.03 36.8256 107.198C36.8256 107.394 36.9096 107.553 37.0776 107.674C37.2549 107.795 37.5303 107.931 37.9036 108.08C38.2769 108.229 38.5849 108.374 38.8276 108.514C39.0703 108.654 39.2756 108.85 39.4436 109.102C39.6209 109.345 39.7096 109.648 39.7096 110.012C39.7096 110.385 39.6116 110.735 39.4156 111.062C39.2289 111.379 38.9396 111.641 38.5476 111.846C38.1556 112.042 37.6749 112.14 37.1056 112.14C36.4336 112.14 35.7383 112 35.0196 111.72L35.2296 110.264L35.4116 110.152C35.7009 110.395 36.0229 110.591 36.3776 110.74C36.7323 110.88 37.0449 110.95 37.3156 110.95C37.5676 110.95 37.7636 110.889 37.9036 110.768C38.0436 110.637 38.1136 110.483 38.1136 110.306C38.1136 110.11 38.0249 109.951 37.8476 109.83C37.6796 109.709 37.4089 109.573 37.0356 109.424C36.6529 109.256 36.3403 109.107 36.0976 108.976C35.8549 108.836 35.6449 108.64 35.4676 108.388C35.2996 108.136 35.2156 107.823 35.2156 107.45C35.2156 106.843 35.4443 106.349 35.9016 105.966C36.3589 105.574 36.9796 105.378 37.7636 105.378ZM44.3966 105.406C45.2086 105.406 45.834 105.681 46.2726 106.232C46.7113 106.783 46.9306 107.562 46.9306 108.57C46.9306 109.709 46.646 110.591 46.0766 111.216C45.5166 111.832 44.7233 112.14 43.6966 112.14C43.398 112.14 43.0853 112.112 42.7586 112.056L42.8006 114.59H40.9526L41.0506 109.312L40.9666 105.616L42.7446 105.462L42.7306 106.414H42.8286C43.09 106.162 43.342 105.961 43.5846 105.812C43.8273 105.653 44.098 105.518 44.3966 105.406ZM43.7106 110.922C44.196 110.922 44.5646 110.749 44.8166 110.404C45.0686 110.059 45.1946 109.55 45.1946 108.878C45.1946 108.225 45.0873 107.735 44.8726 107.408C44.6673 107.072 44.3593 106.904 43.9486 106.904C43.5473 106.904 43.1413 107.105 42.7306 107.506L42.7166 109.13L42.7446 110.712C43.0806 110.852 43.4026 110.922 43.7106 110.922ZM50.9007 105.364C51.8527 105.364 52.5807 105.644 53.0847 106.204C53.5887 106.764 53.8407 107.571 53.8407 108.626C53.8407 109.765 53.5701 110.637 53.0287 111.244C52.4874 111.841 51.7081 112.14 50.6907 112.14C49.7387 112.14 49.0107 111.86 48.5067 111.3C48.0027 110.74 47.7507 109.933 47.7507 108.878C47.7507 107.739 48.0214 106.871 48.5627 106.274C49.1041 105.667 49.8834 105.364 50.9007 105.364ZM50.7747 106.624C50.3267 106.624 50.0001 106.773 49.7947 107.072C49.5987 107.371 49.5007 107.851 49.5007 108.514C49.5007 109.373 49.6034 109.984 49.8087 110.348C50.0141 110.712 50.3501 110.894 50.8167 110.894C51.2647 110.894 51.5867 110.749 51.7827 110.46C51.9881 110.161 52.0907 109.676 52.0907 109.004C52.0907 108.155 51.9834 107.548 51.7687 107.184C51.5634 106.811 51.2321 106.624 50.7747 106.624ZM59.0387 107.94C59.048 107.613 58.9733 107.361 58.8147 107.184C58.6653 106.997 58.446 106.904 58.1567 106.904C57.7367 106.904 57.2887 107.105 56.8127 107.506V109.13L56.8967 112H55.0347L55.1327 109.312L55.0627 105.616L56.8267 105.462V106.414H56.9247C57.438 105.947 57.998 105.611 58.6047 105.406C59.314 105.406 59.8553 105.569 60.2287 105.896C60.602 106.213 60.7793 106.675 60.7607 107.282L60.7187 109.144L60.8027 112H58.9267L59.0387 107.94ZM64.6288 105.378C65.2635 105.378 65.8608 105.485 66.4208 105.7L66.1688 107.072L65.9448 107.142C65.6742 106.965 65.4035 106.829 65.1328 106.736C64.8622 106.643 64.6242 106.596 64.4188 106.596C64.1948 106.596 64.0175 106.657 63.8868 106.778C63.7562 106.89 63.6908 107.03 63.6908 107.198C63.6908 107.394 63.7748 107.553 63.9428 107.674C64.1202 107.795 64.3955 107.931 64.7688 108.08C65.1422 108.229 65.4502 108.374 65.6928 108.514C65.9355 108.654 66.1408 108.85 66.3088 109.102C66.4862 109.345 66.5748 109.648 66.5748 110.012C66.5748 110.385 66.4768 110.735 66.2808 111.062C66.0942 111.379 65.8048 111.641 65.4128 111.846C65.0208 112.042 64.5402 112.14 63.9708 112.14C63.2988 112.14 62.6035 112 61.8848 111.72L62.0948 110.264L62.2768 110.152C62.5662 110.395 62.8882 110.591 63.2428 110.74C63.5975 110.88 63.9102 110.95 64.1808 110.95C64.4328 110.95 64.6288 110.889 64.7688 110.768C64.9088 110.637 64.9788 110.483 64.9788 110.306C64.9788 110.11 64.8902 109.951 64.7128 109.83C64.5448 109.709 64.2742 109.573 63.9008 109.424C63.5182 109.256 63.2055 109.107 62.9628 108.976C62.7202 108.836 62.5102 108.64 62.3328 108.388C62.1648 108.136 62.0808 107.823 62.0808 107.45C62.0808 106.843 62.3095 106.349 62.7668 105.966C63.2242 105.574 63.8448 105.378 64.6288 105.378ZM70.3799 105.364C71.0985 105.364 71.6585 105.527 72.0599 105.854C72.4705 106.171 72.6759 106.619 72.6759 107.198C72.6759 107.366 72.6479 107.898 72.5919 108.794C72.5825 109.055 72.5685 109.326 72.5499 109.606C72.5312 109.877 72.5219 110.11 72.5219 110.306C72.5219 110.465 72.5452 110.577 72.5919 110.642C72.6385 110.698 72.7225 110.726 72.8439 110.726C72.9372 110.726 73.0585 110.707 73.2079 110.67L73.3479 110.782L73.1799 111.762C72.8812 111.958 72.5405 112.075 72.1579 112.112C71.8779 112.084 71.6445 111.986 71.4579 111.818C71.2712 111.641 71.1452 111.398 71.0799 111.09H70.9819C70.5152 111.585 70.0345 111.93 69.5399 112.126C68.8679 112.117 68.3405 111.939 67.9579 111.594C67.5752 111.249 67.3839 110.777 67.3839 110.18C67.3839 109.713 67.5005 109.349 67.7339 109.088C67.9765 108.817 68.3405 108.635 68.8259 108.542L70.9679 108.136V107.562C70.9679 106.955 70.6692 106.652 70.0719 106.652C69.7825 106.652 69.4745 106.717 69.1479 106.848C68.8305 106.979 68.4712 107.184 68.0699 107.464L67.9299 107.38L67.7199 106.148C68.1212 105.896 68.5505 105.705 69.0079 105.574C69.4652 105.434 69.9225 105.364 70.3799 105.364ZM69.4699 109.396C69.3205 109.433 69.2085 109.499 69.1339 109.592C69.0685 109.676 69.0359 109.807 69.0359 109.984C69.0359 110.227 69.1012 110.418 69.2319 110.558C69.3625 110.689 69.5445 110.754 69.7779 110.754C70.1419 110.754 70.5245 110.539 70.9259 110.11L70.9539 109.074L69.4699 109.396ZM71.5979 101.878L72.2699 102.886L72.2419 103.068C72.0365 103.199 71.8825 103.292 71.7799 103.348C70.6132 104.067 69.8572 104.524 69.5119 104.72L69.3299 104.706L68.8819 104.006C69.9645 103.138 70.8092 102.424 71.4159 101.864L71.5979 101.878ZM75.6804 106.526L76.6604 110.25H76.7584L77.9344 106.624L78.1724 105.49H79.7964L77.6124 112H75.6104L73.7624 105.532L75.4984 105.448L75.6804 106.526ZM85.5727 108.976L81.7927 109.004C81.8767 110.171 82.4694 110.754 83.5707 110.754C84.1494 110.754 84.7934 110.591 85.5027 110.264L85.6567 110.362L85.3767 111.748C84.6674 112.009 84 112.14 83.3747 112.14C82.348 112.14 81.5407 111.841 80.9527 111.244C80.374 110.647 80.0847 109.821 80.0847 108.766C80.0847 107.721 80.3694 106.895 80.9387 106.288C81.508 105.672 82.278 105.364 83.2487 105.364C84.0794 105.364 84.7187 105.593 85.1667 106.05C85.624 106.498 85.8527 107.128 85.8527 107.94C85.8527 108.155 85.8294 108.425 85.7827 108.752L85.5727 108.976ZM84.2287 107.73C84.2287 107.357 84.1447 107.077 83.9767 106.89C83.8087 106.694 83.5614 106.596 83.2347 106.596C82.8707 106.596 82.5674 106.717 82.3247 106.96C82.082 107.193 81.9187 107.534 81.8347 107.982L84.2007 107.926L84.2287 107.73ZM88.9015 109.13L88.9995 112H87.1375L87.2355 109.298L87.1515 102.312L89.0135 102.172L88.9015 109.13ZM96.3224 105.406C97.1344 105.406 97.7597 105.681 98.1984 106.232C98.6371 106.783 98.8564 107.562 98.8564 108.57C98.8564 109.709 98.5717 110.591 98.0024 111.216C97.4424 111.832 96.6491 112.14 95.6224 112.14C95.3237 112.14 95.0111 112.112 94.6844 112.056L94.7264 114.59H92.8784L92.9764 109.312L92.8924 105.616L94.6704 105.462L94.6564 106.414H94.7544C95.0157 106.162 95.2677 105.961 95.5104 105.812C95.7531 105.653 96.0237 105.518 96.3224 105.406ZM95.6364 110.922C96.1217 110.922 96.4904 110.749 96.7424 110.404C96.9944 110.059 97.1204 109.55 97.1204 108.878C97.1204 108.225 97.0131 107.735 96.7984 107.408C96.5931 107.072 96.2851 106.904 95.8744 106.904C95.4731 106.904 95.0671 107.105 94.6564 107.506L94.6424 109.13L94.6704 110.712C95.0064 110.852 95.3284 110.922 95.6364 110.922ZM105.165 108.976L101.385 109.004C101.469 110.171 102.061 110.754 103.163 110.754C103.741 110.754 104.385 110.591 105.095 110.264L105.249 110.362L104.969 111.748C104.259 112.009 103.592 112.14 102.967 112.14C101.94 112.14 101.133 111.841 100.545 111.244C99.9658 110.647 99.6765 109.821 99.6765 108.766C99.6765 107.721 99.9612 106.895 100.531 106.288C101.1 105.672 101.87 105.364 102.841 105.364C103.671 105.364 104.311 105.593 104.759 106.05C105.216 106.498 105.445 107.128 105.445 107.94C105.445 108.155 105.421 108.425 105.375 108.752L105.165 108.976ZM103.821 107.73C103.821 107.357 103.737 107.077 103.569 106.89C103.401 106.694 103.153 106.596 102.827 106.596C102.463 106.596 102.159 106.717 101.917 106.96C101.674 107.193 101.511 107.534 101.427 107.982L103.793 107.926L103.821 107.73ZM108.493 109.13L108.591 112H106.729L106.827 109.298L106.743 102.312L108.605 102.172L108.493 109.13ZM113.053 105.364C114.005 105.364 114.733 105.644 115.237 106.204C115.741 106.764 115.993 107.571 115.993 108.626C115.993 109.765 115.722 110.637 115.181 111.244C114.64 111.841 113.86 112.14 112.843 112.14C111.891 112.14 111.163 111.86 110.659 111.3C110.155 110.74 109.903 109.933 109.903 108.878C109.903 107.739 110.174 106.871 110.715 106.274C111.256 105.667 112.036 105.364 113.053 105.364ZM112.927 106.624C112.479 106.624 112.152 106.773 111.947 107.072C111.751 107.371 111.653 107.851 111.653 108.514C111.653 109.373 111.756 109.984 111.961 110.348C112.166 110.712 112.502 110.894 112.969 110.894C113.417 110.894 113.739 110.749 113.935 110.46C114.14 110.161 114.243 109.676 114.243 109.004C114.243 108.155 114.136 107.548 113.921 107.184C113.716 106.811 113.384 106.624 112.927 106.624ZM127.186 112L127.298 107.94C127.298 107.249 127.004 106.904 126.416 106.904C125.996 106.904 125.558 107.091 125.1 107.464L125.058 109.144L125.142 112H123.28L123.392 107.94C123.402 107.604 123.327 107.347 123.168 107.17C123.019 106.993 122.8 106.904 122.51 106.904C122.1 106.904 121.647 107.1 121.152 107.492V109.13L121.236 112H119.388L119.486 109.312L119.416 105.616L121.166 105.462V106.414H121.264C121.778 105.947 122.342 105.611 122.958 105.406C124.004 105.406 124.671 105.756 124.96 106.456H125.044C125.576 105.961 126.183 105.611 126.864 105.406C127.574 105.406 128.11 105.569 128.474 105.896C128.848 106.213 129.025 106.675 129.006 107.282L128.964 109.144L129.048 112H127.186ZM135.721 108.976L131.941 109.004C132.025 110.171 132.618 110.754 133.719 110.754C134.298 110.754 134.942 110.591 135.651 110.264L135.805 110.362L135.525 111.748C134.816 112.009 134.148 112.14 133.523 112.14C132.496 112.14 131.689 111.841 131.101 111.244C130.522 110.647 130.233 109.821 130.233 108.766C130.233 107.721 130.518 106.895 131.087 106.288C131.656 105.672 132.426 105.364 133.397 105.364C134.228 105.364 134.867 105.593 135.315 106.05C135.772 106.498 136.001 107.128 136.001 107.94C136.001 108.155 135.978 108.425 135.931 108.752L135.721 108.976ZM134.377 107.73C134.377 107.357 134.293 107.077 134.125 106.89C133.957 106.694 133.71 106.596 133.383 106.596C133.019 106.596 132.716 106.717 132.473 106.96C132.23 107.193 132.067 107.534 131.983 107.982L134.349 107.926L134.377 107.73ZM143.501 110.782L143.333 111.762C142.987 111.986 142.633 112.103 142.269 112.112C141.998 112.065 141.774 111.958 141.597 111.79C141.419 111.622 141.284 111.379 141.191 111.062H141.065C140.533 111.585 139.982 111.925 139.413 112.084C138.703 112.084 138.162 111.925 137.789 111.608C137.425 111.281 137.247 110.815 137.257 110.208L137.285 108.556L137.215 105.616L139.021 105.462L138.979 109.592C138.969 109.919 139.035 110.166 139.175 110.334C139.315 110.502 139.525 110.586 139.805 110.586C140.215 110.586 140.621 110.404 141.023 110.04V105.616L142.801 105.462L142.675 110.306C142.675 110.455 142.698 110.563 142.745 110.628C142.801 110.693 142.885 110.726 142.997 110.726C143.099 110.726 143.225 110.707 143.375 110.67L143.501 110.782ZM46.5583 126.628C46.8569 126.628 47.1696 126.549 47.4963 126.39L47.6503 126.53L47.4683 127.636C46.9923 127.879 46.5069 128.028 46.0123 128.084C44.7523 127.953 44.1223 127.337 44.1223 126.236L44.1923 125.074L44.1783 122.666H43.3103L43.2403 122.568L43.3383 121.546H44.1643V120.468L45.8583 119.922L45.9843 120.034L45.9423 121.546H47.6083L47.6643 121.644L47.5803 122.666H45.9143L45.8303 125.802C45.8303 126.101 45.8863 126.315 45.9983 126.446C46.1103 126.567 46.2969 126.628 46.5583 126.628ZM52.2547 121.476C52.3387 121.476 52.4554 121.485 52.6047 121.504V123.226L52.4087 123.296C52.2501 123.231 52.0774 123.198 51.8907 123.198C51.3494 123.198 50.8594 123.548 50.4207 124.248V125.13L50.5187 128H48.6567L48.7687 125.312L48.6847 121.616L50.4487 121.462L50.4347 122.736H50.5467C51.0041 121.896 51.5734 121.476 52.2547 121.476ZM55.9492 121.364C56.6679 121.364 57.2279 121.527 57.6292 121.854C58.0399 122.171 58.2452 122.619 58.2452 123.198C58.2452 123.366 58.2172 123.898 58.1612 124.794C58.1519 125.055 58.1379 125.326 58.1192 125.606C58.1005 125.877 58.0912 126.11 58.0912 126.306C58.0912 126.465 58.1145 126.577 58.1612 126.642C58.2079 126.698 58.2919 126.726 58.4132 126.726C58.5065 126.726 58.6279 126.707 58.7772 126.67L58.9172 126.782L58.7492 127.762C58.4505 127.958 58.1099 128.075 57.7272 128.112C57.4472 128.084 57.2139 127.986 57.0272 127.818C56.8405 127.641 56.7145 127.398 56.6492 127.09H56.5512C56.0845 127.585 55.6039 127.93 55.1092 128.126C54.4372 128.117 53.9099 127.939 53.5272 127.594C53.1445 127.249 52.9532 126.777 52.9532 126.18C52.9532 125.713 53.0699 125.349 53.3032 125.088C53.5459 124.817 53.9099 124.635 54.3952 124.542L56.5372 124.136V123.562C56.5372 122.955 56.2385 122.652 55.6412 122.652C55.3519 122.652 55.0439 122.717 54.7172 122.848C54.3999 122.979 54.0405 123.184 53.6392 123.464L53.4992 123.38L53.2892 122.148C53.6905 121.896 54.1199 121.705 54.5772 121.574C55.0345 121.434 55.4919 121.364 55.9492 121.364ZM55.0392 125.396C54.8899 125.433 54.7779 125.499 54.7032 125.592C54.6379 125.676 54.6052 125.807 54.6052 125.984C54.6052 126.227 54.6705 126.418 54.8012 126.558C54.9319 126.689 55.1139 126.754 55.3472 126.754C55.7112 126.754 56.0939 126.539 56.4952 126.11L56.5232 125.074L55.0392 125.396ZM62.7594 126.628C63.0581 126.628 63.3708 126.549 63.6974 126.39L63.8514 126.53L63.6694 127.636C63.1934 127.879 62.7081 128.028 62.2134 128.084C60.9534 127.953 60.3234 127.337 60.3234 126.236L60.3934 125.074L60.3794 122.666H59.5114L59.4414 122.568L59.5394 121.546H60.3654V120.468L62.0594 119.922L62.1854 120.034L62.1434 121.546H63.8094L63.8654 121.644L63.7814 122.666H62.1154L62.0314 125.802C62.0314 126.101 62.0874 126.315 62.1994 126.446C62.3114 126.567 62.4981 126.628 62.7594 126.628ZM67.4199 121.364C68.1386 121.364 68.6986 121.527 69.0999 121.854C69.5106 122.171 69.7159 122.619 69.7159 123.198C69.7159 123.366 69.6879 123.898 69.6319 124.794C69.6226 125.055 69.6086 125.326 69.5899 125.606C69.5712 125.877 69.5619 126.11 69.5619 126.306C69.5619 126.465 69.5852 126.577 69.6319 126.642C69.6786 126.698 69.7626 126.726 69.8839 126.726C69.9772 126.726 70.0986 126.707 70.2479 126.67L70.3879 126.782L70.2199 127.762C69.9212 127.958 69.5806 128.075 69.1979 128.112C68.9179 128.084 68.6846 127.986 68.4979 127.818C68.3112 127.641 68.1852 127.398 68.1199 127.09H68.0219C67.5552 127.585 67.0746 127.93 66.5799 128.126C65.9079 128.117 65.3806 127.939 64.9979 127.594C64.6152 127.249 64.4239 126.777 64.4239 126.18C64.4239 125.713 64.5406 125.349 64.7739 125.088C65.0166 124.817 65.3806 124.635 65.8659 124.542L68.0079 124.136V123.562C68.0079 122.955 67.7092 122.652 67.1119 122.652C66.8226 122.652 66.5146 122.717 66.1879 122.848C65.8706 122.979 65.5112 123.184 65.1099 123.464L64.9699 123.38L64.7599 122.148C65.1612 121.896 65.5906 121.705 66.0479 121.574C66.5052 121.434 66.9626 121.364 67.4199 121.364ZM66.5099 125.396C66.3606 125.433 66.2486 125.499 66.1739 125.592C66.1086 125.676 66.0759 125.807 66.0759 125.984C66.0759 126.227 66.1412 126.418 66.2719 126.558C66.4026 126.689 66.5846 126.754 66.8179 126.754C67.1819 126.754 67.5646 126.539 67.9659 126.11L67.9939 125.074L66.5099 125.396ZM79.3141 128L79.4261 123.94C79.4261 123.249 79.1321 122.904 78.5441 122.904C78.1241 122.904 77.6854 123.091 77.2281 123.464L77.1861 125.144L77.2701 128H75.4081L75.5201 123.94C75.5294 123.604 75.4548 123.347 75.2961 123.17C75.1468 122.993 74.9274 122.904 74.6381 122.904C74.2274 122.904 73.7748 123.1 73.2801 123.492V125.13L73.3641 128H71.5161L71.6141 125.312L71.5441 121.616L73.2941 121.462V122.414H73.3921C73.9054 121.947 74.4701 121.611 75.0861 121.406C76.1314 121.406 76.7988 121.756 77.0881 122.456H77.1721C77.7041 121.961 78.3108 121.611 78.9921 121.406C79.7014 121.406 80.2381 121.569 80.6021 121.896C80.9754 122.213 81.1528 122.675 81.1341 123.282L81.0921 125.144L81.1761 128H79.3141ZM87.8491 124.976L84.0691 125.004C84.1531 126.171 84.7457 126.754 85.8471 126.754C86.4257 126.754 87.0697 126.591 87.7791 126.264L87.9331 126.362L87.6531 127.748C86.9437 128.009 86.2764 128.14 85.6511 128.14C84.6244 128.14 83.8171 127.841 83.2291 127.244C82.6504 126.647 82.3611 125.821 82.3611 124.766C82.3611 123.721 82.6457 122.895 83.2151 122.288C83.7844 121.672 84.5544 121.364 85.5251 121.364C86.3557 121.364 86.9951 121.593 87.4431 122.05C87.9004 122.498 88.1291 123.128 88.1291 123.94C88.1291 124.155 88.1057 124.425 88.0591 124.752L87.8491 124.976ZM86.5051 123.73C86.5051 123.357 86.4211 123.077 86.2531 122.89C86.0851 122.694 85.8377 122.596 85.5111 122.596C85.1471 122.596 84.8437 122.717 84.6011 122.96C84.3584 123.193 84.1951 123.534 84.1111 123.982L86.4771 123.926L86.5051 123.73ZM93.4166 123.94C93.4259 123.613 93.3513 123.361 93.1926 123.184C93.0433 122.997 92.8239 122.904 92.5346 122.904C92.1146 122.904 91.6666 123.105 91.1906 123.506V125.13L91.2746 128H89.4126L89.5106 125.312L89.4406 121.616L91.2046 121.462V122.414H91.3026C91.8159 121.947 92.3759 121.611 92.9826 121.406C93.6919 121.406 94.2333 121.569 94.6066 121.896C94.9799 122.213 95.1573 122.675 95.1386 123.282L95.0966 125.144L95.1806 128H93.3046L93.4166 123.94ZM99.4548 126.628C99.7534 126.628 100.066 126.549 100.393 126.39L100.547 126.53L100.365 127.636C99.8888 127.879 99.4034 128.028 98.9088 128.084C97.6488 127.953 97.0188 127.337 97.0188 126.236L97.0888 125.074L97.0748 122.666H96.2068L96.1368 122.568L96.2348 121.546H97.0608V120.468L98.7548 119.922L98.8808 120.034L98.8388 121.546H100.505L100.561 121.644L100.477 122.666H98.8108L98.7268 125.802C98.7268 126.101 98.7828 126.315 98.8948 126.446C99.0068 126.567 99.1934 126.628 99.4548 126.628ZM104.16 121.364C105.112 121.364 105.84 121.644 106.344 122.204C106.848 122.764 107.1 123.571 107.1 124.626C107.1 125.765 106.829 126.637 106.288 127.244C105.746 127.841 104.967 128.14 103.95 128.14C102.998 128.14 102.27 127.86 101.766 127.3C101.262 126.74 101.01 125.933 101.01 124.878C101.01 123.739 101.28 122.871 101.822 122.274C102.363 121.667 103.142 121.364 104.16 121.364ZM104.034 122.624C103.586 122.624 103.259 122.773 103.054 123.072C102.858 123.371 102.76 123.851 102.76 124.514C102.76 125.373 102.862 125.984 103.068 126.348C103.273 126.712 103.609 126.894 104.076 126.894C104.524 126.894 104.846 126.749 105.042 126.46C105.247 126.161 105.35 125.676 105.35 125.004C105.35 124.155 105.242 123.548 105.028 123.184C104.822 122.811 104.491 122.624 104.034 122.624ZM115.927 125.13L115.969 126.306C115.969 126.465 115.987 126.577 116.025 126.642C116.071 126.698 116.151 126.726 116.263 126.726C116.365 126.726 116.491 126.707 116.641 126.67L116.767 126.782L116.613 127.762C116.295 127.958 115.95 128.075 115.577 128.112C115.287 128.084 115.045 127.986 114.849 127.818C114.653 127.65 114.517 127.421 114.443 127.132H114.331C113.873 127.552 113.407 127.874 112.931 128.098C112.016 128.098 111.307 127.809 110.803 127.23C110.299 126.642 110.047 125.83 110.047 124.794C110.047 123.693 110.336 122.848 110.915 122.26C111.493 121.672 112.296 121.378 113.323 121.378C113.593 121.378 113.892 121.406 114.219 121.462L114.191 118.312L116.039 118.172L115.927 125.13ZM113.197 122.638C112.263 122.638 111.797 123.231 111.797 124.416C111.797 125.153 111.909 125.709 112.133 126.082C112.357 126.455 112.683 126.642 113.113 126.642C113.523 126.642 113.901 126.451 114.247 126.068L114.275 125.298L114.233 122.89C113.869 122.722 113.523 122.638 113.197 122.638ZM120.566 121.364C121.518 121.364 122.246 121.644 122.75 122.204C123.254 122.764 123.506 123.571 123.506 124.626C123.506 125.765 123.235 126.637 122.694 127.244C122.152 127.841 121.373 128.14 120.356 128.14C119.404 128.14 118.676 127.86 118.172 127.3C117.668 126.74 117.416 125.933 117.416 124.878C117.416 123.739 117.686 122.871 118.228 122.274C118.769 121.667 119.548 121.364 120.566 121.364ZM120.44 122.624C119.992 122.624 119.665 122.773 119.46 123.072C119.264 123.371 119.166 123.851 119.166 124.514C119.166 125.373 119.268 125.984 119.474 126.348C119.679 126.712 120.015 126.894 120.482 126.894C120.93 126.894 121.252 126.749 121.448 126.46C121.653 126.161 121.756 125.676 121.756 125.004C121.756 124.155 121.648 123.548 121.434 123.184C121.228 122.811 120.897 122.624 120.44 122.624ZM61.6535 134.928C62.9602 134.928 63.9635 135.292 64.6635 136.02C65.3635 136.748 65.7135 137.793 65.7135 139.156C65.7135 140.752 65.3215 141.975 64.5375 142.824C63.7535 143.673 62.6335 144.098 61.1775 144.098C60.7389 144.098 60.2115 144.089 59.5955 144.07C58.9889 144.051 58.4662 144.028 58.0275 144L58.1255 141.312L58.0275 134.984L61.6535 134.928ZM61.5135 142.628C62.9975 142.628 63.7395 141.615 63.7395 139.59C63.7395 138.489 63.5575 137.691 63.1935 137.196C62.8389 136.692 62.2789 136.44 61.5135 136.44C61.0189 136.44 60.4915 136.463 59.9315 136.51L59.8475 141.144L59.8895 142.53C60.5429 142.595 61.0842 142.628 61.5135 142.628ZM67.0894 141.312L67.0194 137.616L68.8534 137.462L68.7694 141.13L68.8534 144H66.9914L67.0894 141.312ZM67.9714 134.298C68.2607 134.298 68.4847 134.382 68.6434 134.55C68.8114 134.718 68.8954 134.951 68.8954 135.25C68.8954 135.567 68.8067 135.819 68.6294 136.006C68.452 136.193 68.2094 136.286 67.9014 136.286C67.5934 136.286 67.3554 136.202 67.1874 136.034C67.0287 135.866 66.9494 135.628 66.9494 135.32C66.9494 135.012 67.038 134.765 67.2154 134.578C67.402 134.391 67.654 134.298 67.9714 134.298ZM73.1758 137.364C73.8944 137.364 74.4544 137.527 74.8558 137.854C75.2664 138.171 75.4718 138.619 75.4718 139.198C75.4718 139.366 75.4438 139.898 75.3878 140.794C75.3784 141.055 75.3644 141.326 75.3458 141.606C75.3271 141.877 75.3178 142.11 75.3178 142.306C75.3178 142.465 75.3411 142.577 75.3878 142.642C75.4344 142.698 75.5184 142.726 75.6398 142.726C75.7331 142.726 75.8544 142.707 76.0038 142.67L76.1438 142.782L75.9758 143.762C75.6771 143.958 75.3364 144.075 74.9538 144.112C74.6738 144.084 74.4404 143.986 74.2538 143.818C74.0671 143.641 73.9411 143.398 73.8758 143.09H73.7778C73.3111 143.585 72.8304 143.93 72.3358 144.126C71.6638 144.117 71.1364 143.939 70.7538 143.594C70.3711 143.249 70.1798 142.777 70.1798 142.18C70.1798 141.713 70.2964 141.349 70.5298 141.088C70.7724 140.817 71.1364 140.635 71.6218 140.542L73.7638 140.136V139.562C73.7638 138.955 73.4651 138.652 72.8678 138.652C72.5784 138.652 72.2704 138.717 71.9438 138.848C71.6264 138.979 71.2671 139.184 70.8658 139.464L70.7258 139.38L70.5158 138.148C70.9171 137.896 71.3464 137.705 71.8038 137.574C72.2611 137.434 72.7184 137.364 73.1758 137.364ZM72.2658 141.396C72.1164 141.433 72.0044 141.499 71.9298 141.592C71.8644 141.676 71.8318 141.807 71.8318 141.984C71.8318 142.227 71.8971 142.418 72.0278 142.558C72.1584 142.689 72.3404 142.754 72.5738 142.754C72.9378 142.754 73.3204 142.539 73.7218 142.11L73.7498 141.074L72.2658 141.396ZM80.868 137.406C81.6893 137.406 82.3147 137.686 82.744 138.246C83.1827 138.797 83.402 139.567 83.402 140.556C83.402 141.704 83.1173 142.591 82.548 143.216C81.9787 143.832 81.19 144.14 80.182 144.14C79.706 144.14 79.1833 144.033 78.614 143.818L77.634 144.168L77.41 143.986L77.508 141.326L77.424 134.312L79.272 134.172L79.216 138.414H79.3C79.5613 138.162 79.8133 137.961 80.056 137.812C80.2987 137.653 80.5693 137.518 80.868 137.406ZM80.182 142.922C80.6487 142.922 81.0127 142.754 81.274 142.418C81.5353 142.082 81.666 141.569 81.666 140.878C81.666 140.234 81.5587 139.744 81.344 139.408C81.1387 139.072 80.826 138.904 80.406 138.904C80.0233 138.904 79.622 139.1 79.202 139.492L79.174 141.088L79.202 142.67C79.5473 142.838 79.874 142.922 80.182 142.922ZM89.7221 140.976L85.9421 141.004C86.0261 142.171 86.6188 142.754 87.7201 142.754C88.2988 142.754 88.9428 142.591 89.6521 142.264L89.8061 142.362L89.5261 143.748C88.8168 144.009 88.1495 144.14 87.5241 144.14C86.4975 144.14 85.6901 143.841 85.1021 143.244C84.5235 142.647 84.2341 141.821 84.2341 140.766C84.2341 139.721 84.5188 138.895 85.0881 138.288C85.6575 137.672 86.4275 137.364 87.3981 137.364C88.2288 137.364 88.8681 137.593 89.3161 138.05C89.7735 138.498 90.0021 139.128 90.0021 139.94C90.0021 140.155 89.9788 140.425 89.9321 140.752L89.7221 140.976ZM88.3781 139.73C88.3781 139.357 88.2941 139.077 88.1261 138.89C87.9581 138.694 87.7108 138.596 87.3841 138.596C87.0201 138.596 86.7168 138.717 86.4741 138.96C86.2315 139.193 86.0681 139.534 85.9841 139.982L88.3501 139.926L88.3781 139.73ZM93.9176 142.628C94.2163 142.628 94.529 142.549 94.8556 142.39L95.0096 142.53L94.8276 143.636C94.3516 143.879 93.8663 144.028 93.3716 144.084C92.1116 143.953 91.4816 143.337 91.4816 142.236L91.5516 141.074L91.5376 138.666H90.6696L90.5996 138.568L90.6976 137.546H91.5236V136.468L93.2176 135.922L93.3436 136.034L93.3016 137.546H94.9676L95.0236 137.644L94.9396 138.666H93.2736L93.1896 141.802C93.1896 142.101 93.2456 142.315 93.3576 142.446C93.4696 142.567 93.6563 142.628 93.9176 142.628ZM100.96 140.976L97.1804 141.004C97.2644 142.171 97.8571 142.754 98.9584 142.754C99.5371 142.754 100.181 142.591 100.89 142.264L101.044 142.362L100.764 143.748C100.055 144.009 99.3877 144.14 98.7624 144.14C97.7357 144.14 96.9284 143.841 96.3404 143.244C95.7617 142.647 95.4724 141.821 95.4724 140.766C95.4724 139.721 95.7571 138.895 96.3264 138.288C96.8957 137.672 97.6657 137.364 98.6364 137.364C99.4671 137.364 100.106 137.593 100.554 138.05C101.012 138.498 101.24 139.128 101.24 139.94C101.24 140.155 101.217 140.425 101.17 140.752L100.96 140.976ZM99.6164 139.73C99.6164 139.357 99.5324 139.077 99.3644 138.89C99.1964 138.694 98.9491 138.596 98.6224 138.596C98.2584 138.596 97.9551 138.717 97.7124 138.96C97.4697 139.193 97.3064 139.534 97.2224 139.982L99.5884 139.926L99.6164 139.73ZM104.708 137.378C105.343 137.378 105.94 137.485 106.5 137.7L106.248 139.072L106.024 139.142C105.753 138.965 105.483 138.829 105.212 138.736C104.941 138.643 104.703 138.596 104.498 138.596C104.274 138.596 104.097 138.657 103.966 138.778C103.835 138.89 103.77 139.03 103.77 139.198C103.77 139.394 103.854 139.553 104.022 139.674C104.199 139.795 104.475 139.931 104.848 140.08C105.221 140.229 105.529 140.374 105.772 140.514C106.015 140.654 106.22 140.85 106.388 141.102C106.565 141.345 106.654 141.648 106.654 142.012C106.654 142.385 106.556 142.735 106.36 143.062C106.173 143.379 105.884 143.641 105.492 143.846C105.1 144.042 104.619 144.14 104.05 144.14C103.378 144.14 102.683 144 101.964 143.72L102.174 142.264L102.356 142.152C102.645 142.395 102.967 142.591 103.322 142.74C103.677 142.88 103.989 142.95 104.26 142.95C104.512 142.95 104.708 142.889 104.848 142.768C104.988 142.637 105.058 142.483 105.058 142.306C105.058 142.11 104.969 141.951 104.792 141.83C104.624 141.709 104.353 141.573 103.98 141.424C103.597 141.256 103.285 141.107 103.042 140.976C102.799 140.836 102.589 140.64 102.412 140.388C102.244 140.136 102.16 139.823 102.16 139.45C102.16 138.843 102.389 138.349 102.846 137.966C103.303 137.574 103.924 137.378 104.708 137.378ZM108.503 142.11C108.793 142.11 109.017 142.194 109.175 142.362C109.343 142.53 109.427 142.763 109.427 143.062C109.427 143.379 109.339 143.631 109.161 143.818C108.984 144.005 108.741 144.098 108.433 144.098C108.125 144.098 107.887 144.014 107.719 143.846C107.561 143.678 107.481 143.44 107.481 143.132C107.481 142.824 107.57 142.577 107.747 142.39C107.934 142.203 108.186 142.11 108.503 142.11Z" fill="white"/>
<defs>
<filter id="filter0_b_206:37109" x="3" y="67" width="161" height="97" filterUnits="userSpaceOnUse" color-interpolation-filters="sRGB">
<feFlood flood-opacity="0" result="BackgroundImageFix"/>
<feGaussianBlur in="BackgroundImage" stdDeviation="5"/>
<feComposite in2="SourceAlpha" operator="in" result="effect1_backgroundBlur_206:37109"/>
<feBlend mode="normal" in="SourceGraphic" in2="effect1_backgroundBlur_206:37109" result="shape"/>
</filter>
</defs>
</svg>
