<svg width="167" height="167" viewBox="0 0 167 167" fill="none" xmlns="http://www.w3.org/2000/svg">
<mask id="mask0_152:8156" style="mask-type:alpha" maskUnits="userSpaceOnUse" x="0" y="0" width="167" height="167">
<rect x="1" y="1" width="165" height="165" rx="8" fill="#5988D6" stroke="#EDE6FC" stroke-opacity="0.3"/>
</mask>
<g mask="url(#mask0_152:8156)">
<rect x="1" y="1" width="165" height="165" rx="8" fill="#7A84D9" stroke="#EDE6FC" stroke-opacity="0.3"/>
<mask id="mask1_152:8156" style="mask-type:alpha" maskUnits="userSpaceOnUse" x="54" y="33" width="47" height="48">
<circle cx="77.3" cy="57.036" r="23.1652" fill="#C4C4C4"/>
</mask>
<g mask="url(#mask1_152:8156)">
<path d="M81.0858 65.293C74.5055 71.8733 66.703 71.9654 63.977 69.2412C61.251 66.5152 61.3449 58.7127 67.9252 52.1324L100.827 19.2309C107.407 12.6524 115.206 12.5585 117.934 15.2827C120.658 18.0087 120.568 25.8112 113.986 32.3915L81.0858 65.293Z" fill="#EDB980"/>
<path d="M101.296 24.9663C104.022 27.6923 106.091 30.0376 107.546 28.5859C107.81 28.3216 107.965 27.9791 108.069 27.6036C108.038 27.5289 108.007 27.4524 107.998 27.3672C107.776 25.3714 103.808 21.0372 100.905 19.1596L100.827 19.2327L98.2641 21.7952C99.0255 22.7323 100.114 23.7841 101.296 24.9663ZM93.398 32.8626C96.124 35.5886 98.1963 37.9339 99.6514 36.4822C99.9157 36.218 100.07 35.8738 100.175 35.4965C100.143 35.4217 100.112 35.347 100.103 35.2618C99.8826 33.266 95.9119 28.9284 93.005 27.0525L90.3677 29.6898C91.1274 30.6287 92.2158 31.6805 93.398 32.8626ZM85.5051 40.759C88.2293 43.485 90.3016 45.832 91.7551 44.3769C92.0193 44.1126 92.174 43.7701 92.2783 43.3946C92.2471 43.3198 92.2158 43.2434 92.2053 43.1582C91.9828 41.1623 88.012 36.8265 85.107 34.9506L82.4696 37.5879C83.2328 38.525 84.3211 39.5768 85.5051 40.759ZM77.6087 48.6554C80.333 51.3796 82.4053 53.7301 83.8604 52.275C84.1247 52.0107 84.2794 51.6665 84.3837 51.291C84.3524 51.2162 84.3211 51.1397 84.3107 51.0545C84.0899 49.0587 80.1191 44.7211 77.2141 42.8452L74.5767 45.4826C75.3365 46.4214 76.4248 47.4732 77.6087 48.6554ZM69.7124 56.55C72.4366 59.276 74.5089 61.6247 75.9641 60.1696C76.2283 59.9053 76.3831 59.5611 76.4874 59.1856C76.4561 59.1108 76.4248 59.0361 76.4144 58.9509C76.1918 56.9551 72.221 52.6174 69.316 50.7416L67.9234 52.1341C67.4957 52.5618 67.0976 52.9964 66.7221 53.4328C67.4818 54.3577 68.5528 55.3904 69.7124 56.55Z" fill="#E5A157"/>
<path d="M102.229 17.9479C102.01 18.1322 101.127 18.9371 100.905 19.1579C103.808 21.0355 107.775 25.3714 107.998 27.3655C108.006 27.4506 108.038 27.5271 108.071 27.6019C108.205 27.9183 108.509 28.1391 108.862 28.1391L108.961 28.1339C109.437 28.08 109.782 27.6506 109.728 27.1725C109.443 24.6481 105.586 20.2184 102.229 17.9479ZM94.2617 25.7956L93.0031 27.0543C95.9081 28.9301 99.8806 33.2677 100.101 35.2635C100.11 35.3487 100.141 35.4235 100.173 35.4982C100.305 35.8164 100.611 36.0372 100.964 36.0372L101.063 36.032C101.539 35.9781 101.883 35.5487 101.83 35.0723C101.548 32.5271 97.638 28.0487 94.2617 25.7956ZM86.3671 33.6902L85.1084 34.9489C88.0135 36.8247 91.9843 41.1623 92.2068 43.1564C92.2155 43.2416 92.2468 43.3181 92.2798 43.3929C92.4137 43.7093 92.7179 43.9301 93.0691 43.9301L93.1682 43.9249C93.6446 43.871 93.9888 43.4415 93.9349 42.9652C93.6515 40.4217 89.7416 35.945 86.3671 33.6902ZM78.4708 41.5848L77.2121 42.8435C80.1172 44.7194 84.0879 49.057 84.3087 51.0528C84.3174 51.138 84.3487 51.2145 84.3817 51.2892C84.5156 51.6074 84.8199 51.8264 85.1728 51.8264L85.2701 51.8212C85.7465 51.7691 86.0907 51.3396 86.0386 50.8615C85.7552 48.3181 81.847 43.8397 78.4708 41.5848ZM70.5744 49.4829L69.3157 50.7416C72.2208 52.6175 76.1916 56.9551 76.4141 58.9509C76.4228 59.0361 76.4541 59.1108 76.4871 59.1856C76.621 59.502 76.9252 59.7228 77.2782 59.7228C77.3112 59.7228 77.3425 59.721 77.3755 59.7176C77.8519 59.6654 78.1961 59.2343 78.1439 58.7562C77.8588 56.2144 73.9489 51.736 70.5744 49.4829Z" fill="#FFD983"/>
</g>
<mask id="mask2_152:8156" style="mask-type:alpha" maskUnits="userSpaceOnUse" x="99" y="9" width="47" height="47">
<circle cx="122.356" cy="32.1897" r="23.1652" transform="rotate(30 122.356 32.1897)" fill="#C4C4C4"/>
</mask>
<g mask="url(#mask2_152:8156)">
<g clip-path="url(#clip0_152:8156)">
<path d="M84.3498 53.5693C75.3609 55.9779 68.5577 52.1564 67.5591 48.4342C66.5613 44.7104 70.5438 38.0002 79.5327 35.5916L124.477 23.5488C133.465 21.1418 140.266 24.96 141.266 28.6831C142.262 32.406 138.283 39.118 129.293 41.5257L84.3498 53.5693Z" fill="#EDB980"/>
<path d="M122.016 28.7505C123.014 32.4743 123.633 35.5397 125.619 35.0101C125.98 34.9134 126.285 34.6942 126.563 34.4211C126.573 34.3407 126.584 34.2588 126.619 34.1807C127.425 32.341 126.156 26.6039 124.58 23.5262L124.476 23.5503L120.975 24.4883C121.166 25.6805 121.583 27.1356 122.016 28.7505ZM111.228 31.6399C112.225 35.3637 112.847 38.4309 114.833 37.9013C115.194 37.8045 115.501 37.5838 115.78 37.3092C115.79 37.2289 115.8 37.1485 115.835 37.0703C116.642 35.2315 115.372 29.4896 113.792 26.4117L110.19 27.377C110.378 28.5699 110.795 30.025 111.228 31.6399ZM100.444 34.5319C101.44 38.2548 102.061 41.3235 104.048 40.79C104.409 40.6933 104.714 40.4741 104.992 40.201C105.002 40.1206 105.013 40.0387 105.047 39.9597C105.852 38.12 104.581 32.3797 103.003 29.3026L99.4007 30.2679C99.5932 31.4611 100.01 32.9161 100.444 34.5319ZM89.6574 37.4221C90.6545 41.1436 91.2739 44.2153 93.2617 43.6827C93.6227 43.5859 93.9288 43.3652 94.2069 43.0921C94.2172 43.0118 94.2283 42.9299 94.2619 42.8509C95.0686 41.0121 93.7986 35.2702 92.2207 32.1931L88.618 33.1584C88.8065 34.3513 89.2231 35.8064 89.6574 37.4221ZM78.8716 40.3109C79.8679 44.0338 80.4882 47.1041 82.476 46.5714C82.8369 46.4747 83.143 46.254 83.4211 45.9809C83.4314 45.9005 83.4417 45.8201 83.4753 45.7411C84.2805 43.9014 83.0105 38.1596 81.4325 35.0825L79.5303 35.5922C78.946 35.7488 78.3839 35.9261 77.8406 36.1162C78.0361 37.2971 78.4472 38.7269 78.8716 40.3109Z" fill="#E5A157"/>
<path d="M126.333 23.139C126.051 23.1891 124.884 23.4446 124.581 23.5246C126.157 26.6023 127.424 32.3409 126.62 34.1791C126.585 34.2572 126.574 34.3391 126.565 34.4204C126.523 34.7613 126.676 35.1047 126.981 35.2811L127.07 35.3261C127.509 35.5176 128.022 35.3179 128.215 34.8769C129.23 32.5482 128.105 26.7839 126.333 23.139ZM115.509 25.9515L113.79 26.4122C115.368 29.4893 116.639 35.232 115.833 37.0709C115.797 37.149 115.787 37.2294 115.777 37.3098C115.732 37.6514 115.887 37.9956 116.192 38.172L116.281 38.217C116.72 38.4085 117.233 38.2088 117.425 37.7693C118.453 35.4243 117.307 29.5909 115.509 25.9515ZM104.725 28.8411L103.006 29.3019C104.583 32.3789 105.853 38.1208 105.049 39.959C105.014 40.0371 105.003 40.119 104.994 40.2003C104.952 40.5412 105.105 40.8846 105.409 41.0601L105.498 41.1052C105.937 41.2967 106.45 41.0969 106.641 40.6574C107.668 38.313 106.52 32.4811 104.725 28.8411ZM93.9392 31.7299L92.2198 32.1906C93.7977 35.2677 95.0677 41.0096 94.261 42.8484C94.226 42.9265 94.2148 43.0084 94.206 43.0897C94.1629 43.4321 94.3169 43.7739 94.6225 43.9504L94.7094 43.9946C95.148 44.1876 95.6608 43.9878 95.8547 43.5477C96.881 41.2033 95.7357 35.3708 93.9392 31.7299ZM83.1517 34.6217L81.4323 35.0824C83.0102 38.1595 84.2802 43.9013 83.475 45.741C83.44 45.8192 83.4297 45.8995 83.4209 45.9808C83.3787 46.3218 83.5317 46.6651 83.8374 46.8415C83.866 46.8581 83.894 46.8722 83.9243 46.8857C84.3629 47.0787 84.8766 46.8774 85.0705 46.4373C86.0944 44.0936 84.9475 38.2602 83.1517 34.6217Z" fill="#FFD983"/>
</g>
</g>
<g clip-path="url(#clip1_152:8156)">
<path d="M35.1068 53.5697C30.9814 56.9344 27.0203 60.6554 22.6213 64.3464C22.4826 64.4523 22.3364 64.548 22.1996 64.6607C21.9135 64.8946 21.649 65.1447 21.381 65.3909L21.1586 65.5782L21.1667 65.5809C15.3214 71.1697 14.299 79.9284 19.0362 85.7391C24.0384 91.879 33.57 92.3948 40.3212 86.8874C47.0752 81.3817 48.4902 71.9432 43.4856 65.8039C43.3129 65.5899 43.1192 65.3986 42.9335 65.2004C42.7491 60.4978 46.01 59.4792 46.01 59.4792C46.01 59.4792 39.6897 49.8319 35.1068 53.5697ZM36.6984 82.4407C32.3993 85.9453 26.4806 85.7974 23.48 82.1147C20.4755 78.4355 21.5272 72.6085 25.824 69.1046C30.1208 65.6006 36.039 65.7462 39.0389 69.4266C42.0423 73.111 40.9959 78.939 36.6984 82.4407Z" fill="#2F5CA7"/>
<path d="M84.2947 15.4098C82.0753 13.1484 77.2834 11.9177 75.0203 14.14L34.8731 53.7602C36.6867 55.9829 41.9765 59.0719 46.0123 59.4787L84.2947 15.4098Z" fill="#99AAB5"/>
<path d="M3.63617 28.2746C2.43836 35.6731 7.70378 42.7494 15.5603 44.6668L15.5553 44.6755L15.8445 44.7282C16.1974 44.808 16.5521 44.8947 16.9162 44.9518C17.0904 44.9788 17.2626 44.9892 17.4379 45.011C23.093 46.0079 28.3846 47.2521 33.6391 48.1011C39.4763 49.0443 40.1284 37.5288 40.1284 37.5288C40.1284 37.5288 36.795 38.2771 34.6041 34.1147C34.6652 33.8478 34.7356 33.5883 34.7799 33.3136C36.0449 25.4968 30.1009 18.0326 21.4976 16.637C12.8979 15.2453 4.90117 20.4578 3.63617 28.2746ZM20.5836 22.2993C26.0574 23.1877 29.8764 27.7071 29.1175 32.3996C28.3598 37.0869 23.3073 40.1721 17.8335 39.2837C12.3616 38.4021 8.53968 33.8811 9.29914 29.1909C10.0563 24.5013 15.1088 21.4161 20.5836 22.2993Z" fill="#1D4B96"/>
<path d="M95.3187 56.552C94.5273 59.6201 90.9928 63.0819 87.9217 62.2889L33.3431 48.0504C33.8024 45.2186 36.8391 39.8986 40.1308 37.5284L95.3187 56.552Z" fill="#CCD6DD"/>
<path d="M48.8145 43.1287C50.7918 42.5989 52.8238 43.7759 53.3524 45.7487C53.8823 47.7261 52.7098 49.7568 50.7324 50.2867C48.7551 50.8165 46.7243 49.644 46.1945 47.6667C45.6653 45.6916 46.8371 43.6586 48.8145 43.1287Z" fill="#99AAB5"/>
</g>
</g>
<g filter="url(#filter0_b_152:8156)">
<rect x="13" y="77" width="141" height="77" rx="10" fill="black" fill-opacity="0.8"/>
</g>
<path d="M37.9257 85.872C38.803 85.872 39.5917 86.054 40.2917 86.418L39.9557 88L39.8017 88.07C39.5217 87.874 39.2137 87.72 38.8777 87.608C38.5417 87.496 38.1963 87.44 37.8417 87.44C36.3577 87.44 35.6157 88.4153 35.6157 90.366C35.6157 91.4207 35.807 92.214 36.1897 92.746C36.5817 93.2687 37.151 93.53 37.8977 93.53C38.243 93.53 38.5977 93.4787 38.9617 93.376C39.335 93.264 39.671 93.1147 39.9697 92.928L40.1377 93.026L39.9837 94.636C39.2743 94.9627 38.5277 95.126 37.7437 95.126C36.3997 95.126 35.373 94.734 34.6637 93.95C33.9637 93.166 33.6137 92.0413 33.6137 90.576C33.6137 89.0827 33.987 87.9253 34.7337 87.104C35.4897 86.2827 36.5537 85.872 37.9257 85.872ZM43.7914 88.364C44.7434 88.364 45.4714 88.644 45.9754 89.204C46.4794 89.764 46.7314 90.5713 46.7314 91.626C46.7314 92.7647 46.4607 93.6373 45.9194 94.244C45.378 94.8413 44.5987 95.14 43.5814 95.14C42.6294 95.14 41.9014 94.86 41.3974 94.3C40.8934 93.74 40.6414 92.9327 40.6414 91.878C40.6414 90.7393 40.912 89.8713 41.4534 89.274C41.9947 88.6673 42.774 88.364 43.7914 88.364ZM43.6654 89.624C43.2174 89.624 42.8907 89.7733 42.6854 90.072C42.4894 90.3707 42.3914 90.8513 42.3914 91.514C42.3914 92.3727 42.494 92.984 42.6994 93.348C42.9047 93.712 43.2407 93.894 43.7074 93.894C44.1554 93.894 44.4774 93.7493 44.6734 93.46C44.8787 93.1613 44.9814 92.676 44.9814 92.004C44.9814 91.1547 44.874 90.548 44.6594 90.184C44.454 89.8107 44.1227 89.624 43.6654 89.624ZM55.7233 95L55.8353 90.94C55.8353 90.2493 55.5413 89.904 54.9533 89.904C54.5333 89.904 54.0946 90.0907 53.6373 90.464L53.5953 92.144L53.6793 95H51.8173L51.9293 90.94C51.9386 90.604 51.864 90.3473 51.7053 90.17C51.556 89.9927 51.3366 89.904 51.0473 89.904C50.6366 89.904 50.184 90.1 49.6893 90.492V92.13L49.7733 95H47.9253L48.0233 92.312L47.9533 88.616L49.7033 88.462V89.414H49.8013C50.3146 88.9473 50.8793 88.6113 51.4953 88.406C52.5406 88.406 53.208 88.756 53.4973 89.456H53.5813C54.1133 88.9613 54.72 88.6113 55.4013 88.406C56.1106 88.406 56.6473 88.5693 57.0113 88.896C57.3846 89.2133 57.562 89.6753 57.5433 90.282L57.5013 92.144L57.5853 95H55.7233ZM65.2014 85.928C66.5081 85.928 67.5114 86.292 68.2114 87.02C68.9114 87.748 69.2614 88.7933 69.2614 90.156C69.2614 91.752 68.8694 92.9747 68.0854 93.824C67.3014 94.6733 66.1814 95.098 64.7254 95.098C64.2867 95.098 63.7594 95.0887 63.1434 95.07C62.5367 95.0513 62.0141 95.028 61.5754 95L61.6734 92.312L61.5754 85.984L65.2014 85.928ZM65.0614 93.628C66.5454 93.628 67.2874 92.6153 67.2874 90.59C67.2874 89.4887 67.1054 88.6907 66.7414 88.196C66.3867 87.692 65.8267 87.44 65.0614 87.44C64.5667 87.44 64.0394 87.4633 63.4794 87.51L63.3954 92.144L63.4374 93.53C64.0907 93.5953 64.6321 93.628 65.0614 93.628ZM70.6372 92.312L70.5672 88.616L72.4012 88.462L72.3172 92.13L72.4012 95H70.5392L70.6372 92.312ZM71.5192 85.298C71.8086 85.298 72.0326 85.382 72.1912 85.55C72.3592 85.718 72.4432 85.9513 72.4432 86.25C72.4432 86.5673 72.3546 86.8193 72.1772 87.006C71.9999 87.1927 71.7572 87.286 71.4492 87.286C71.1412 87.286 70.9032 87.202 70.7352 87.034C70.5766 86.866 70.4972 86.628 70.4972 86.32C70.4972 86.012 70.5859 85.7647 70.7632 85.578C70.9499 85.3913 71.2019 85.298 71.5192 85.298ZM76.7236 88.364C77.4423 88.364 78.0023 88.5273 78.4036 88.854C78.8143 89.1713 79.0196 89.6193 79.0196 90.198C79.0196 90.366 78.9916 90.898 78.9356 91.794C78.9263 92.0553 78.9123 92.326 78.8936 92.606C78.875 92.8767 78.8656 93.11 78.8656 93.306C78.8656 93.4647 78.889 93.5767 78.9356 93.642C78.9823 93.698 79.0663 93.726 79.1876 93.726C79.281 93.726 79.4023 93.7073 79.5516 93.67L79.6916 93.782L79.5236 94.762C79.225 94.958 78.8843 95.0747 78.5016 95.112C78.2216 95.084 77.9883 94.986 77.8016 94.818C77.615 94.6407 77.489 94.398 77.4236 94.09H77.3256C76.859 94.5847 76.3783 94.93 75.8836 95.126C75.2116 95.1167 74.6843 94.9393 74.3016 94.594C73.919 94.2487 73.7276 93.7773 73.7276 93.18C73.7276 92.7133 73.8443 92.3493 74.0776 92.088C74.3203 91.8173 74.6843 91.6353 75.1696 91.542L77.3116 91.136V90.562C77.3116 89.9553 77.013 89.652 76.4156 89.652C76.1263 89.652 75.8183 89.7173 75.4916 89.848C75.1743 89.9787 74.815 90.184 74.4136 90.464L74.2736 90.38L74.0636 89.148C74.465 88.896 74.8943 88.7047 75.3516 88.574C75.809 88.434 76.2663 88.364 76.7236 88.364ZM75.8136 92.396C75.6643 92.4333 75.5523 92.4987 75.4776 92.592C75.4123 92.676 75.3796 92.8067 75.3796 92.984C75.3796 93.2267 75.445 93.418 75.5756 93.558C75.7063 93.6887 75.8883 93.754 76.1216 93.754C76.4856 93.754 76.8683 93.5393 77.2696 93.11L77.2976 92.074L75.8136 92.396ZM84.4159 88.406C85.2372 88.406 85.8625 88.686 86.2919 89.246C86.7305 89.7967 86.9499 90.5667 86.9499 91.556C86.9499 92.704 86.6652 93.5907 86.0959 94.216C85.5265 94.832 84.7379 95.14 83.7299 95.14C83.2539 95.14 82.7312 95.0327 82.1619 94.818L81.1819 95.168L80.9579 94.986L81.0559 92.326L80.9719 85.312L82.8199 85.172L82.7639 89.414H82.8479C83.1092 89.162 83.3612 88.9613 83.6039 88.812C83.8465 88.6533 84.1172 88.518 84.4159 88.406ZM83.7299 93.922C84.1965 93.922 84.5605 93.754 84.8219 93.418C85.0832 93.082 85.2139 92.5687 85.2139 91.878C85.2139 91.234 85.1065 90.744 84.8919 90.408C84.6865 90.072 84.3739 89.904 83.9539 89.904C83.5712 89.904 83.1699 90.1 82.7499 90.492L82.7219 92.088L82.7499 93.67C83.0952 93.838 83.4219 93.922 83.7299 93.922ZM93.27 91.976L89.49 92.004C89.574 93.1707 90.1666 93.754 91.268 93.754C91.8466 93.754 92.4906 93.5907 93.2 93.264L93.354 93.362L93.074 94.748C92.3646 95.0093 91.6973 95.14 91.072 95.14C90.0453 95.14 89.238 94.8413 88.65 94.244C88.0713 93.6467 87.782 92.8207 87.782 91.766C87.782 90.7207 88.0666 89.8947 88.636 89.288C89.2053 88.672 89.9753 88.364 90.946 88.364C91.7766 88.364 92.416 88.5927 92.864 89.05C93.3213 89.498 93.55 90.128 93.55 90.94C93.55 91.1547 93.5266 91.4253 93.48 91.752L93.27 91.976ZM91.926 90.73C91.926 90.3567 91.842 90.0767 91.674 89.89C91.506 89.694 91.2586 89.596 90.932 89.596C90.568 89.596 90.2646 89.7173 90.022 89.96C89.7793 90.1933 89.616 90.534 89.532 90.982L91.898 90.926L91.926 90.73ZM97.4655 93.628C97.7642 93.628 98.0768 93.5487 98.4035 93.39L98.5575 93.53L98.3755 94.636C97.8995 94.8787 97.4142 95.028 96.9195 95.084C95.6595 94.9533 95.0295 94.3373 95.0295 93.236L95.0995 92.074L95.0855 89.666H94.2175L94.1475 89.568L94.2455 88.546H95.0715V87.468L96.7655 86.922L96.8915 87.034L96.8495 88.546H98.5155L98.5715 88.644L98.4875 89.666H96.8215L96.7375 92.802C96.7375 93.1007 96.7935 93.3153 96.9055 93.446C97.0175 93.5673 97.2042 93.628 97.4655 93.628ZM104.508 91.976L100.728 92.004C100.812 93.1707 101.405 93.754 102.506 93.754C103.085 93.754 103.729 93.5907 104.438 93.264L104.592 93.362L104.312 94.748C103.603 95.0093 102.936 95.14 102.31 95.14C101.284 95.14 100.476 94.8413 99.8883 94.244C99.3096 93.6467 99.0203 92.8207 99.0203 91.766C99.0203 90.7207 99.3049 89.8947 99.8743 89.288C100.444 88.672 101.214 88.364 102.184 88.364C103.015 88.364 103.654 88.5927 104.102 89.05C104.56 89.498 104.788 90.128 104.788 90.94C104.788 91.1547 104.765 91.4253 104.718 91.752L104.508 91.976ZM103.164 90.73C103.164 90.3567 103.08 90.0767 102.912 89.89C102.744 89.694 102.497 89.596 102.17 89.596C101.806 89.596 101.503 89.7173 101.26 89.96C101.018 90.1933 100.854 90.534 100.77 90.982L103.136 90.926L103.164 90.73ZM108.256 88.378C108.89 88.378 109.488 88.4853 110.048 88.7L109.796 90.072L109.572 90.142C109.301 89.9647 109.03 89.8293 108.76 89.736C108.489 89.6427 108.251 89.596 108.046 89.596C107.822 89.596 107.644 89.6567 107.514 89.778C107.383 89.89 107.318 90.03 107.318 90.198C107.318 90.394 107.402 90.5527 107.57 90.674C107.747 90.7953 108.022 90.9307 108.396 91.08C108.769 91.2293 109.077 91.374 109.32 91.514C109.562 91.654 109.768 91.85 109.936 92.102C110.113 92.3447 110.202 92.648 110.202 93.012C110.202 93.3853 110.104 93.7353 109.908 94.062C109.721 94.3793 109.432 94.6407 109.04 94.846C108.648 95.042 108.167 95.14 107.598 95.14C106.926 95.14 106.23 95 105.512 94.72L105.722 93.264L105.904 93.152C106.193 93.3947 106.515 93.5907 106.87 93.74C107.224 93.88 107.537 93.95 107.808 93.95C108.06 93.95 108.256 93.8893 108.396 93.768C108.536 93.6373 108.606 93.4833 108.606 93.306C108.606 93.11 108.517 92.9513 108.34 92.83C108.172 92.7087 107.901 92.5733 107.528 92.424C107.145 92.256 106.832 92.1067 106.59 91.976C106.347 91.836 106.137 91.64 105.96 91.388C105.792 91.136 105.708 90.8233 105.708 90.45C105.708 89.8433 105.936 89.3487 106.394 88.966C106.851 88.574 107.472 88.378 108.256 88.378ZM117.568 90.94C117.577 90.6133 117.503 90.3613 117.344 90.184C117.195 89.9973 116.975 89.904 116.686 89.904C116.266 89.904 115.818 90.1047 115.342 90.506V92.13L115.426 95H113.564L113.662 92.312L113.592 88.616L115.356 88.462V89.414H115.454C115.967 88.9473 116.527 88.6113 117.134 88.406C117.843 88.406 118.385 88.5693 118.758 88.896C119.131 89.2133 119.309 89.6753 119.29 90.282L119.248 92.144L119.332 95H117.456L117.568 90.94ZM123.536 88.364C124.255 88.364 124.815 88.5273 125.216 88.854C125.627 89.1713 125.832 89.6193 125.832 90.198C125.832 90.366 125.804 90.898 125.748 91.794C125.739 92.0553 125.725 92.326 125.706 92.606C125.687 92.8767 125.678 93.11 125.678 93.306C125.678 93.4647 125.701 93.5767 125.748 93.642C125.795 93.698 125.879 93.726 126 93.726C126.093 93.726 126.215 93.7073 126.364 93.67L126.504 93.782L126.336 94.762C126.037 94.958 125.697 95.0747 125.314 95.112C125.034 95.084 124.801 94.986 124.614 94.818C124.427 94.6407 124.301 94.398 124.236 94.09H124.138C123.671 94.5847 123.191 94.93 122.696 95.126C122.024 95.1167 121.497 94.9393 121.114 94.594C120.731 94.2487 120.54 93.7773 120.54 93.18C120.54 92.7133 120.657 92.3493 120.89 92.088C121.133 91.8173 121.497 91.6353 121.982 91.542L124.124 91.136V90.562C124.124 89.9553 123.825 89.652 123.228 89.652C122.939 89.652 122.631 89.7173 122.304 89.848C121.987 89.9787 121.627 90.184 121.226 90.464L121.086 90.38L120.876 89.148C121.277 88.896 121.707 88.7047 122.164 88.574C122.621 88.434 123.079 88.364 123.536 88.364ZM122.626 92.396C122.477 92.4333 122.365 92.4987 122.29 92.592C122.225 92.676 122.192 92.8067 122.192 92.984C122.192 93.2267 122.257 93.418 122.388 93.558C122.519 93.6887 122.701 93.754 122.934 93.754C123.298 93.754 123.681 93.5393 124.082 93.11L124.11 92.074L122.626 92.396ZM125.832 85.732V85.886L124.852 87.132L124.67 87.202C124.418 87.174 124.031 87.0853 123.508 86.936C123.461 86.9267 123.307 86.8893 123.046 86.824C122.794 86.7493 122.617 86.712 122.514 86.712C122.411 86.712 122.309 86.754 122.206 86.838C122.113 86.922 122.01 87.0247 121.898 87.146C121.786 87.2673 121.702 87.3607 121.646 87.426H121.478L120.918 86.88V86.726L121.912 85.48L122.08 85.41C122.304 85.438 122.701 85.5313 123.27 85.69C123.793 85.83 124.115 85.9 124.236 85.9C124.348 85.9 124.455 85.8533 124.558 85.76C124.67 85.6667 124.782 85.5593 124.894 85.438C125.006 85.3167 125.081 85.2327 125.118 85.186H125.286L125.832 85.732ZM130.416 88.364C131.368 88.364 132.096 88.644 132.6 89.204C133.104 89.764 133.356 90.5713 133.356 91.626C133.356 92.7647 133.086 93.6373 132.544 94.244C132.003 94.8413 131.224 95.14 130.206 95.14C129.254 95.14 128.526 94.86 128.022 94.3C127.518 93.74 127.266 92.9327 127.266 91.878C127.266 90.7393 127.537 89.8713 128.078 89.274C128.62 88.6673 129.399 88.364 130.416 88.364ZM130.29 89.624C129.842 89.624 129.516 89.7733 129.31 90.072C129.114 90.3707 129.016 90.8513 129.016 91.514C129.016 92.3727 129.119 92.984 129.324 93.348C129.53 93.712 129.866 93.894 130.332 93.894C130.78 93.894 131.102 93.7493 131.298 93.46C131.504 93.1613 131.606 92.676 131.606 92.004C131.606 91.1547 131.499 90.548 131.284 90.184C131.079 89.8107 130.748 89.624 130.29 89.624ZM42.8517 104.406C43.6637 104.406 44.289 104.681 44.7277 105.232C45.1664 105.783 45.3857 106.562 45.3857 107.57C45.3857 108.709 45.101 109.591 44.5317 110.216C43.9717 110.832 43.1784 111.14 42.1517 111.14C41.853 111.14 41.5404 111.112 41.2137 111.056L41.2557 113.59H39.4077L39.5057 108.312L39.4217 104.616L41.1997 104.462L41.1857 105.414H41.2837C41.545 105.162 41.797 104.961 42.0397 104.812C42.2824 104.653 42.553 104.518 42.8517 104.406ZM42.1657 109.922C42.651 109.922 43.0197 109.749 43.2717 109.404C43.5237 109.059 43.6497 108.55 43.6497 107.878C43.6497 107.225 43.5424 106.735 43.3277 106.408C43.1224 106.072 42.8144 105.904 42.4037 105.904C42.0024 105.904 41.5964 106.105 41.1857 106.506L41.1717 108.13L41.1997 109.712C41.5357 109.852 41.8577 109.922 42.1657 109.922ZM50.1698 104.476C50.2538 104.476 50.3704 104.485 50.5198 104.504V106.226L50.3238 106.296C50.1651 106.231 49.9924 106.198 49.8058 106.198C49.2644 106.198 48.7744 106.548 48.3358 107.248V108.13L48.4338 111H46.5718L46.6838 108.312L46.5998 104.616L48.3638 104.462L48.3498 105.736H48.4618C48.9191 104.896 49.4884 104.476 50.1698 104.476ZM56.479 107.976L52.699 108.004C52.783 109.171 53.3756 109.754 54.477 109.754C55.0556 109.754 55.6996 109.591 56.409 109.264L56.563 109.362L56.283 110.748C55.5736 111.009 54.9063 111.14 54.281 111.14C53.2543 111.14 52.447 110.841 51.859 110.244C51.2803 109.647 50.991 108.821 50.991 107.766C50.991 106.721 51.2756 105.895 51.845 105.288C52.4143 104.672 53.1843 104.364 54.155 104.364C54.9856 104.364 55.625 104.593 56.073 105.05C56.5303 105.498 56.759 106.128 56.759 106.94C56.759 107.155 56.7356 107.425 56.689 107.752L56.479 107.976ZM55.135 106.73C55.135 106.357 55.051 106.077 54.883 105.89C54.715 105.694 54.4676 105.596 54.141 105.596C53.777 105.596 53.4736 105.717 53.231 105.96C52.9883 106.193 52.825 106.534 52.741 106.982L55.107 106.926L55.135 106.73ZM60.7165 104.364C61.0245 104.364 61.3278 104.397 61.6265 104.462C61.9345 104.518 62.2051 104.602 62.4385 104.714L62.1305 106.198L61.9765 106.268C61.5005 106.007 61.0758 105.876 60.7025 105.876C60.2731 105.876 59.9418 106.03 59.7085 106.338C59.4751 106.646 59.3585 107.085 59.3585 107.654C59.3585 108.307 59.4845 108.807 59.7365 109.152C59.9885 109.497 60.3478 109.67 60.8145 109.67C61.2345 109.67 61.7011 109.553 62.2145 109.32L62.3545 109.432L62.1725 110.874C61.6125 111.051 61.0385 111.14 60.4505 111.14C59.5545 111.14 58.8545 110.851 58.3505 110.272C57.8465 109.684 57.5945 108.867 57.5945 107.822C57.5945 106.739 57.8698 105.895 58.4205 105.288C58.9711 104.672 59.7365 104.364 60.7165 104.364ZM63.5552 108.312L63.4852 104.616L65.3192 104.462L65.2352 108.13L65.3192 111H63.4572L63.5552 108.312ZM64.4372 101.298C64.7265 101.298 64.9505 101.382 65.1092 101.55C65.2772 101.718 65.3612 101.951 65.3612 102.25C65.3612 102.567 65.2725 102.819 65.0952 103.006C64.9179 103.193 64.6752 103.286 64.3672 103.286C64.0592 103.286 63.8212 103.202 63.6532 103.034C63.4945 102.866 63.4152 102.628 63.4152 102.32C63.4152 102.012 63.5039 101.765 63.6812 101.578C63.8679 101.391 64.1199 101.298 64.4372 101.298ZM69.2636 104.378C69.8983 104.378 70.4956 104.485 71.0556 104.7L70.8036 106.072L70.5796 106.142C70.3089 105.965 70.0383 105.829 69.7676 105.736C69.4969 105.643 69.2589 105.596 69.0536 105.596C68.8296 105.596 68.6523 105.657 68.5216 105.778C68.3909 105.89 68.3256 106.03 68.3256 106.198C68.3256 106.394 68.4096 106.553 68.5776 106.674C68.7549 106.795 69.0303 106.931 69.4036 107.08C69.7769 107.229 70.0849 107.374 70.3276 107.514C70.5703 107.654 70.7756 107.85 70.9436 108.102C71.1209 108.345 71.2096 108.648 71.2096 109.012C71.2096 109.385 71.1116 109.735 70.9156 110.062C70.7289 110.379 70.4396 110.641 70.0476 110.846C69.6556 111.042 69.1749 111.14 68.6056 111.14C67.9336 111.14 67.2383 111 66.5196 110.72L66.7296 109.264L66.9116 109.152C67.2009 109.395 67.5229 109.591 67.8776 109.74C68.2323 109.88 68.5449 109.95 68.8156 109.95C69.0676 109.95 69.2636 109.889 69.4036 109.768C69.5436 109.637 69.6136 109.483 69.6136 109.306C69.6136 109.11 69.5249 108.951 69.3476 108.83C69.1796 108.709 68.9089 108.573 68.5356 108.424C68.1529 108.256 67.8403 108.107 67.5976 107.976C67.3549 107.836 67.1449 107.64 66.9676 107.388C66.7996 107.136 66.7156 106.823 66.7156 106.45C66.7156 105.843 66.9443 105.349 67.4016 104.966C67.8589 104.574 68.4796 104.378 69.2636 104.378ZM75.1546 104.364C76.1066 104.364 76.8346 104.644 77.3386 105.204C77.8426 105.764 78.0946 106.571 78.0946 107.626C78.0946 108.765 77.824 109.637 77.2826 110.244C76.7413 110.841 75.962 111.14 74.9446 111.14C73.9926 111.14 73.2646 110.86 72.7606 110.3C72.2566 109.74 72.0046 108.933 72.0046 107.878C72.0046 106.739 72.2753 105.871 72.8166 105.274C73.358 104.667 74.1373 104.364 75.1546 104.364ZM75.0286 105.624C74.5806 105.624 74.254 105.773 74.0486 106.072C73.8526 106.371 73.7546 106.851 73.7546 107.514C73.7546 108.373 73.8573 108.984 74.0626 109.348C74.268 109.712 74.604 109.894 75.0706 109.894C75.5186 109.894 75.8406 109.749 76.0366 109.46C76.242 109.161 76.3446 108.676 76.3446 108.004C76.3446 107.155 76.2373 106.548 76.0226 106.184C75.8173 105.811 75.486 105.624 75.0286 105.624ZM84.1637 104.364C84.4717 104.364 84.7751 104.397 85.0737 104.462C85.3817 104.518 85.6524 104.602 85.8857 104.714L85.5777 106.198L85.4237 106.268C84.9477 106.007 84.5231 105.876 84.1497 105.876C83.7204 105.876 83.3891 106.03 83.1557 106.338C82.9224 106.646 82.8057 107.085 82.8057 107.654C82.8057 108.307 82.9317 108.807 83.1837 109.152C83.4357 109.497 83.7951 109.67 84.2617 109.67C84.6817 109.67 85.1484 109.553 85.6617 109.32L85.8017 109.432L85.6197 110.874C85.0597 111.051 84.4857 111.14 83.8977 111.14C83.0017 111.14 82.3017 110.851 81.7977 110.272C81.2937 109.684 81.0417 108.867 81.0417 107.822C81.0417 106.739 81.3171 105.895 81.8677 105.288C82.4184 104.672 83.1837 104.364 84.1637 104.364ZM89.5785 104.364C90.5305 104.364 91.2585 104.644 91.7625 105.204C92.2665 105.764 92.5185 106.571 92.5185 107.626C92.5185 108.765 92.2478 109.637 91.7065 110.244C91.1651 110.841 90.3858 111.14 89.3685 111.14C88.4165 111.14 87.6885 110.86 87.1845 110.3C86.6805 109.74 86.4285 108.933 86.4285 107.878C86.4285 106.739 86.6991 105.871 87.2405 105.274C87.7818 104.667 88.5611 104.364 89.5785 104.364ZM89.4525 105.624C89.0045 105.624 88.6778 105.773 88.4725 106.072C88.2765 106.371 88.1785 106.851 88.1785 107.514C88.1785 108.373 88.2811 108.984 88.4865 109.348C88.6918 109.712 89.0278 109.894 89.4945 109.894C89.9425 109.894 90.2645 109.749 90.4605 109.46C90.6658 109.161 90.7685 108.676 90.7685 108.004C90.7685 107.155 90.6611 106.548 90.4465 106.184C90.2411 105.811 89.9098 105.624 89.4525 105.624ZM97.3104 104.476C97.3944 104.476 97.5111 104.485 97.6604 104.504V106.226L97.4644 106.296C97.3057 106.231 97.1331 106.198 96.9464 106.198C96.4051 106.198 95.9151 106.548 95.4764 107.248V108.13L95.5744 111H93.7124L93.8244 108.312L93.7404 104.616L95.5044 104.462L95.4904 105.736H95.6024C96.0597 104.896 96.6291 104.476 97.3104 104.476ZM101.266 109.628C101.565 109.628 101.878 109.549 102.204 109.39L102.358 109.53L102.176 110.636C101.7 110.879 101.215 111.028 100.72 111.084C99.4603 110.953 98.8303 110.337 98.8303 109.236L98.9003 108.074L98.8863 105.666H98.0183L97.9483 105.568L98.0463 104.546H98.8723V103.468L100.566 102.922L100.692 103.034L100.65 104.546H102.316L102.372 104.644L102.288 105.666H100.622L100.538 108.802C100.538 109.101 100.594 109.315 100.706 109.446C100.818 109.567 101.005 109.628 101.266 109.628ZM105.927 104.364C106.645 104.364 107.205 104.527 107.607 104.854C108.017 105.171 108.223 105.619 108.223 106.198C108.223 106.366 108.195 106.898 108.139 107.794C108.129 108.055 108.115 108.326 108.097 108.606C108.078 108.877 108.069 109.11 108.069 109.306C108.069 109.465 108.092 109.577 108.139 109.642C108.185 109.698 108.269 109.726 108.391 109.726C108.484 109.726 108.605 109.707 108.755 109.67L108.895 109.782L108.727 110.762C108.428 110.958 108.087 111.075 107.705 111.112C107.425 111.084 107.191 110.986 107.005 110.818C106.818 110.641 106.692 110.398 106.627 110.09H106.529C106.062 110.585 105.581 110.93 105.087 111.126C104.415 111.117 103.887 110.939 103.505 110.594C103.122 110.249 102.931 109.777 102.931 109.18C102.931 108.713 103.047 108.349 103.281 108.088C103.523 107.817 103.887 107.635 104.373 107.542L106.515 107.136V106.562C106.515 105.955 106.216 105.652 105.619 105.652C105.329 105.652 105.021 105.717 104.695 105.848C104.377 105.979 104.018 106.184 103.617 106.464L103.477 106.38L103.267 105.148C103.668 104.896 104.097 104.705 104.555 104.574C105.012 104.434 105.469 104.364 105.927 104.364ZM105.017 108.396C104.867 108.433 104.755 108.499 104.681 108.592C104.615 108.676 104.583 108.807 104.583 108.984C104.583 109.227 104.648 109.418 104.779 109.558C104.909 109.689 105.091 109.754 105.325 109.754C105.689 109.754 106.071 109.539 106.473 109.11L106.501 108.074L105.017 108.396ZM113.621 104.476C113.705 104.476 113.822 104.485 113.971 104.504V106.226L113.775 106.296C113.616 106.231 113.444 106.198 113.257 106.198C112.716 106.198 112.226 106.548 111.787 107.248V108.13L111.885 111H110.023L110.135 108.312L110.051 104.616L111.815 104.462L111.801 105.736H111.913C112.37 104.896 112.94 104.476 113.621 104.476ZM119.711 104.364C120.663 104.364 121.391 104.644 121.895 105.204C122.399 105.764 122.651 106.571 122.651 107.626C122.651 108.765 122.381 109.637 121.839 110.244C121.298 110.841 120.519 111.14 119.501 111.14C118.549 111.14 117.821 110.86 117.317 110.3C116.813 109.74 116.561 108.933 116.561 107.878C116.561 106.739 116.832 105.871 117.373 105.274C117.915 104.667 118.694 104.364 119.711 104.364ZM119.585 105.624C119.137 105.624 118.811 105.773 118.605 106.072C118.409 106.371 118.311 106.851 118.311 107.514C118.311 108.373 118.414 108.984 118.619 109.348C118.825 109.712 119.161 109.894 119.627 109.894C120.075 109.894 120.397 109.749 120.593 109.46C120.799 109.161 120.901 108.676 120.901 108.004C120.901 107.155 120.794 106.548 120.579 106.184C120.374 105.811 120.043 105.624 119.585 105.624ZM126.111 104.378C126.746 104.378 127.343 104.485 127.903 104.7L127.651 106.072L127.427 106.142C127.157 105.965 126.886 105.829 126.615 105.736C126.345 105.643 126.107 105.596 125.901 105.596C125.677 105.596 125.5 105.657 125.369 105.778C125.239 105.89 125.173 106.03 125.173 106.198C125.173 106.394 125.257 106.553 125.425 106.674C125.603 106.795 125.878 106.931 126.251 107.08C126.625 107.229 126.933 107.374 127.175 107.514C127.418 107.654 127.623 107.85 127.791 108.102C127.969 108.345 128.057 108.648 128.057 109.012C128.057 109.385 127.959 109.735 127.763 110.062C127.577 110.379 127.287 110.641 126.895 110.846C126.503 111.042 126.023 111.14 125.453 111.14C124.781 111.14 124.086 111 123.367 110.72L123.577 109.264L123.759 109.152C124.049 109.395 124.371 109.591 124.725 109.74C125.08 109.88 125.393 109.95 125.663 109.95C125.915 109.95 126.111 109.889 126.251 109.768C126.391 109.637 126.461 109.483 126.461 109.306C126.461 109.11 126.373 108.951 126.195 108.83C126.027 108.709 125.757 108.573 125.383 108.424C125.001 108.256 124.688 108.107 124.445 107.976C124.203 107.836 123.993 107.64 123.815 107.388C123.647 107.136 123.563 106.823 123.563 106.45C123.563 105.843 123.792 105.349 124.249 104.966C124.707 104.574 125.327 104.378 126.111 104.378ZM43.7565 120.364C44.0645 120.364 44.3678 120.397 44.6665 120.462C44.9745 120.518 45.2452 120.602 45.4785 120.714L45.1705 122.198L45.0165 122.268C44.5405 122.007 44.1158 121.876 43.7425 121.876C43.3132 121.876 42.9818 122.03 42.7485 122.338C42.5152 122.646 42.3985 123.085 42.3985 123.654C42.3985 124.307 42.5245 124.807 42.7765 125.152C43.0285 125.497 43.3878 125.67 43.8545 125.67C44.2745 125.67 44.7412 125.553 45.2545 125.32L45.3945 125.432L45.2125 126.874C44.6525 127.051 44.0785 127.14 43.4905 127.14C42.5945 127.14 41.8945 126.851 41.3905 126.272C40.8865 125.684 40.6345 124.867 40.6345 123.822C40.6345 122.739 40.9098 121.895 41.4605 121.288C42.0112 120.672 42.7765 120.364 43.7565 120.364ZM48.8945 120.364C49.6132 120.364 50.1732 120.527 50.5745 120.854C50.9852 121.171 51.1905 121.619 51.1905 122.198C51.1905 122.366 51.1625 122.898 51.1065 123.794C51.0972 124.055 51.0832 124.326 51.0645 124.606C51.0458 124.877 51.0365 125.11 51.0365 125.306C51.0365 125.465 51.0598 125.577 51.1065 125.642C51.1532 125.698 51.2372 125.726 51.3585 125.726C51.4518 125.726 51.5732 125.707 51.7225 125.67L51.8625 125.782L51.6945 126.762C51.3958 126.958 51.0552 127.075 50.6725 127.112C50.3925 127.084 50.1592 126.986 49.9725 126.818C49.7858 126.641 49.6598 126.398 49.5945 126.09H49.4965C49.0298 126.585 48.5492 126.93 48.0545 127.126C47.3825 127.117 46.8552 126.939 46.4725 126.594C46.0898 126.249 45.8985 125.777 45.8985 125.18C45.8985 124.713 46.0152 124.349 46.2485 124.088C46.4912 123.817 46.8552 123.635 47.3405 123.542L49.4825 123.136V122.562C49.4825 121.955 49.1838 121.652 48.5865 121.652C48.2972 121.652 47.9892 121.717 47.6625 121.848C47.3452 121.979 46.9858 122.184 46.5845 122.464L46.4445 122.38L46.2345 121.148C46.6358 120.896 47.0652 120.705 47.5225 120.574C47.9798 120.434 48.4372 120.364 48.8945 120.364ZM47.9845 124.396C47.8352 124.433 47.7232 124.499 47.6485 124.592C47.5832 124.676 47.5505 124.807 47.5505 124.984C47.5505 125.227 47.6158 125.418 47.7465 125.558C47.8772 125.689 48.0592 125.754 48.2925 125.754C48.6565 125.754 49.0392 125.539 49.4405 125.11L49.4685 124.074L47.9845 124.396ZM56.5887 120.476C56.6727 120.476 56.7894 120.485 56.9387 120.504V122.226L56.7427 122.296C56.5841 122.231 56.4114 122.198 56.2247 122.198C55.6834 122.198 55.1934 122.548 54.7547 123.248V124.13L54.8527 127H52.9907L53.1027 124.312L53.0187 120.616L54.7827 120.462L54.7687 121.736H54.8807C55.3381 120.896 55.9074 120.476 56.5887 120.476ZM61.2489 120.406C62.0702 120.406 62.6955 120.686 63.1249 121.246C63.5635 121.797 63.7829 122.567 63.7829 123.556C63.7829 124.704 63.4982 125.591 62.9289 126.216C62.3595 126.832 61.5709 127.14 60.5629 127.14C60.0869 127.14 59.5642 127.033 58.9949 126.818L58.0149 127.168L57.7909 126.986L57.8889 124.326L57.8049 117.312L59.6529 117.172L59.5969 121.414H59.6809C59.9422 121.162 60.1942 120.961 60.4369 120.812C60.6795 120.653 60.9502 120.518 61.2489 120.406ZM60.5629 125.922C61.0295 125.922 61.3935 125.754 61.6549 125.418C61.9162 125.082 62.0469 124.569 62.0469 123.878C62.0469 123.234 61.9395 122.744 61.7249 122.408C61.5195 122.072 61.2069 121.904 60.7869 121.904C60.4042 121.904 60.0029 122.1 59.5829 122.492L59.5549 124.088L59.5829 125.67C59.9282 125.838 60.2549 125.922 60.5629 125.922ZM67.765 120.364C68.717 120.364 69.445 120.644 69.949 121.204C70.453 121.764 70.705 122.571 70.705 123.626C70.705 124.765 70.4343 125.637 69.893 126.244C69.3517 126.841 68.5723 127.14 67.555 127.14C66.603 127.14 65.875 126.86 65.371 126.3C64.867 125.74 64.615 124.933 64.615 123.878C64.615 122.739 64.8857 121.871 65.427 121.274C65.9683 120.667 66.7477 120.364 67.765 120.364ZM67.639 121.624C67.191 121.624 66.8643 121.773 66.659 122.072C66.463 122.371 66.365 122.851 66.365 123.514C66.365 124.373 66.4677 124.984 66.673 125.348C66.8783 125.712 67.2143 125.894 67.681 125.894C68.129 125.894 68.451 125.749 68.647 125.46C68.8523 125.161 68.955 124.676 68.955 124.004C68.955 123.155 68.8477 122.548 68.633 122.184C68.4277 121.811 68.0963 121.624 67.639 121.624ZM72.107 124.312L72.037 120.616L73.871 120.462L73.787 124.13L73.871 127H72.009L72.107 124.312ZM72.989 117.298C73.2783 117.298 73.5023 117.382 73.661 117.55C73.829 117.718 73.913 117.951 73.913 118.25C73.913 118.567 73.8243 118.819 73.647 119.006C73.4696 119.193 73.227 119.286 72.919 119.286C72.611 119.286 72.373 119.202 72.205 119.034C72.0463 118.866 71.967 118.628 71.967 118.32C71.967 118.012 72.0556 117.765 72.233 117.578C72.4196 117.391 72.6716 117.298 72.989 117.298ZM81.0633 124.13L81.1053 125.306C81.1053 125.465 81.124 125.577 81.1613 125.642C81.208 125.698 81.2873 125.726 81.3993 125.726C81.502 125.726 81.628 125.707 81.7773 125.67L81.9033 125.782L81.7493 126.762C81.432 126.958 81.0867 127.075 80.7133 127.112C80.424 127.084 80.1813 126.986 79.9853 126.818C79.7893 126.65 79.654 126.421 79.5793 126.132H79.4673C79.01 126.552 78.5433 126.874 78.0673 127.098C77.1527 127.098 76.4433 126.809 75.9393 126.23C75.4353 125.642 75.1833 124.83 75.1833 123.794C75.1833 122.693 75.4727 121.848 76.0513 121.26C76.63 120.672 77.4327 120.378 78.4593 120.378C78.73 120.378 79.0287 120.406 79.3553 120.462L79.3273 117.312L81.1753 117.172L81.0633 124.13ZM78.3333 121.638C77.4 121.638 76.9333 122.231 76.9333 123.416C76.9333 124.153 77.0453 124.709 77.2693 125.082C77.4933 125.455 77.82 125.642 78.2493 125.642C78.66 125.642 79.038 125.451 79.3833 125.068L79.4113 124.298L79.3693 121.89C79.0053 121.722 78.66 121.638 78.3333 121.638ZM86.5985 120.476C86.6825 120.476 86.7992 120.485 86.9485 120.504V122.226L86.7525 122.296C86.5938 122.231 86.4212 122.198 86.2345 122.198C85.6932 122.198 85.2032 122.548 84.7645 123.248V124.13L84.8625 127H83.0005L83.1125 124.312L83.0285 120.616L84.7925 120.462L84.7785 121.736H84.8905C85.3478 120.896 85.9172 120.476 86.5985 120.476ZM90.293 120.364C91.0116 120.364 91.5716 120.527 91.973 120.854C92.3836 121.171 92.589 121.619 92.589 122.198C92.589 122.366 92.561 122.898 92.505 123.794C92.4956 124.055 92.4816 124.326 92.463 124.606C92.4443 124.877 92.435 125.11 92.435 125.306C92.435 125.465 92.4583 125.577 92.505 125.642C92.5516 125.698 92.6356 125.726 92.757 125.726C92.8503 125.726 92.9716 125.707 93.121 125.67L93.261 125.782L93.093 126.762C92.7943 126.958 92.4536 127.075 92.071 127.112C91.791 127.084 91.5576 126.986 91.371 126.818C91.1843 126.641 91.0583 126.398 90.993 126.09H90.895C90.4283 126.585 89.9476 126.93 89.453 127.126C88.781 127.117 88.2536 126.939 87.871 126.594C87.4883 126.249 87.297 125.777 87.297 125.18C87.297 124.713 87.4136 124.349 87.647 124.088C87.8896 123.817 88.2536 123.635 88.739 123.542L90.881 123.136V122.562C90.881 121.955 90.5823 121.652 89.985 121.652C89.6956 121.652 89.3876 121.717 89.061 121.848C88.7436 121.979 88.3843 122.184 87.983 122.464L87.843 122.38L87.633 121.148C88.0343 120.896 88.4636 120.705 88.921 120.574C89.3783 120.434 89.8356 120.364 90.293 120.364ZM89.383 124.396C89.2336 124.433 89.1216 124.499 89.047 124.592C88.9816 124.676 88.949 124.807 88.949 124.984C88.949 125.227 89.0143 125.418 89.145 125.558C89.2756 125.689 89.4576 125.754 89.691 125.754C90.055 125.754 90.4376 125.539 90.839 125.11L90.867 124.074L89.383 124.396ZM97.1032 125.628C97.4019 125.628 97.7145 125.549 98.0412 125.39L98.1952 125.53L98.0132 126.636C97.5372 126.879 97.0519 127.028 96.5572 127.084C95.2972 126.953 94.6672 126.337 94.6672 125.236L94.7372 124.074L94.7232 121.666H93.8552L93.7852 121.568L93.8832 120.546H94.7092V119.468L96.4032 118.922L96.5292 119.034L96.4872 120.546H98.1532L98.2092 120.644L98.1252 121.666H96.4592L96.3752 124.802C96.3752 125.101 96.4312 125.315 96.5432 125.446C96.6552 125.567 96.8419 125.628 97.1032 125.628ZM101.808 120.364C102.76 120.364 103.488 120.644 103.992 121.204C104.496 121.764 104.748 122.571 104.748 123.626C104.748 124.765 104.477 125.637 103.936 126.244C103.395 126.841 102.615 127.14 101.598 127.14C100.646 127.14 99.918 126.86 99.414 126.3C98.91 125.74 98.658 124.933 98.658 123.878C98.658 122.739 98.9286 121.871 99.47 121.274C100.011 120.667 100.791 120.364 101.808 120.364ZM101.682 121.624C101.234 121.624 100.907 121.773 100.702 122.072C100.506 122.371 100.408 122.851 100.408 123.514C100.408 124.373 100.511 124.984 100.716 125.348C100.921 125.712 101.257 125.894 101.724 125.894C102.172 125.894 102.494 125.749 102.69 125.46C102.895 125.161 102.998 124.676 102.998 124.004C102.998 123.155 102.891 122.548 102.676 122.184C102.471 121.811 102.139 121.624 101.682 121.624ZM108.208 120.378C108.843 120.378 109.44 120.485 110 120.7L109.748 122.072L109.524 122.142C109.253 121.965 108.983 121.829 108.712 121.736C108.441 121.643 108.203 121.596 107.998 121.596C107.774 121.596 107.597 121.657 107.466 121.778C107.335 121.89 107.27 122.03 107.27 122.198C107.27 122.394 107.354 122.553 107.522 122.674C107.699 122.795 107.975 122.931 108.348 123.08C108.721 123.229 109.029 123.374 109.272 123.514C109.515 123.654 109.72 123.85 109.888 124.102C110.065 124.345 110.154 124.648 110.154 125.012C110.154 125.385 110.056 125.735 109.86 126.062C109.673 126.379 109.384 126.641 108.992 126.846C108.6 127.042 108.119 127.14 107.55 127.14C106.878 127.14 106.183 127 105.464 126.72L105.674 125.264L105.856 125.152C106.145 125.395 106.467 125.591 106.822 125.74C107.177 125.88 107.489 125.95 107.76 125.95C108.012 125.95 108.208 125.889 108.348 125.768C108.488 125.637 108.558 125.483 108.558 125.306C108.558 125.11 108.469 124.951 108.292 124.83C108.124 124.709 107.853 124.573 107.48 124.424C107.097 124.256 106.785 124.107 106.542 123.976C106.299 123.836 106.089 123.64 105.912 123.388C105.744 123.136 105.66 122.823 105.66 122.45C105.66 121.843 105.889 121.349 106.346 120.966C106.803 120.574 107.424 120.378 108.208 120.378ZM118.948 124.13L118.99 125.306C118.99 125.465 119.009 125.577 119.046 125.642C119.093 125.698 119.172 125.726 119.284 125.726C119.387 125.726 119.513 125.707 119.662 125.67L119.788 125.782L119.634 126.762C119.317 126.958 118.971 127.075 118.598 127.112C118.309 127.084 118.066 126.986 117.87 126.818C117.674 126.65 117.539 126.421 117.464 126.132H117.352C116.895 126.552 116.428 126.874 115.952 127.098C115.037 127.098 114.328 126.809 113.824 126.23C113.32 125.642 113.068 124.83 113.068 123.794C113.068 122.693 113.357 121.848 113.936 121.26C114.515 120.672 115.317 120.378 116.344 120.378C116.615 120.378 116.913 120.406 117.24 120.462L117.212 117.312L119.06 117.172L118.948 124.13ZM116.218 121.638C115.285 121.638 114.818 122.231 114.818 123.416C114.818 124.153 114.93 124.709 115.154 125.082C115.378 125.455 115.705 125.642 116.134 125.642C116.545 125.642 116.923 125.451 117.268 125.068L117.296 124.298L117.254 121.89C116.89 121.722 116.545 121.638 116.218 121.638ZM123.447 120.364C124.166 120.364 124.726 120.527 125.127 120.854C125.538 121.171 125.743 121.619 125.743 122.198C125.743 122.366 125.715 122.898 125.659 123.794C125.65 124.055 125.636 124.326 125.617 124.606C125.599 124.877 125.589 125.11 125.589 125.306C125.589 125.465 125.613 125.577 125.659 125.642C125.706 125.698 125.79 125.726 125.911 125.726C126.005 125.726 126.126 125.707 126.275 125.67L126.415 125.782L126.247 126.762C125.949 126.958 125.608 127.075 125.225 127.112C124.945 127.084 124.712 126.986 124.525 126.818C124.339 126.641 124.213 126.398 124.147 126.09H124.049C123.583 126.585 123.102 126.93 122.607 127.126C121.935 127.117 121.408 126.939 121.025 126.594C120.643 126.249 120.451 125.777 120.451 125.18C120.451 124.713 120.568 124.349 120.801 124.088C121.044 123.817 121.408 123.635 121.893 123.542L124.035 123.136V122.562C124.035 121.955 123.737 121.652 123.139 121.652C122.85 121.652 122.542 121.717 122.215 121.848C121.898 121.979 121.539 122.184 121.137 122.464L120.997 122.38L120.787 121.148C121.189 120.896 121.618 120.705 122.075 120.574C122.533 120.434 122.99 120.364 123.447 120.364ZM122.537 124.396C122.388 124.433 122.276 124.499 122.201 124.592C122.136 124.676 122.103 124.807 122.103 124.984C122.103 125.227 122.169 125.418 122.299 125.558C122.43 125.689 122.612 125.754 122.845 125.754C123.209 125.754 123.592 125.539 123.993 125.11L124.021 124.074L122.537 124.396ZM50.6855 136.364C51.4042 136.364 51.9642 136.527 52.3655 136.854C52.7762 137.171 52.9815 137.619 52.9815 138.198C52.9815 138.366 52.9535 138.898 52.8975 139.794C52.8882 140.055 52.8742 140.326 52.8555 140.606C52.8369 140.877 52.8275 141.11 52.8275 141.306C52.8275 141.465 52.8509 141.577 52.8975 141.642C52.9442 141.698 53.0282 141.726 53.1495 141.726C53.2429 141.726 53.3642 141.707 53.5135 141.67L53.6535 141.782L53.4855 142.762C53.1869 142.958 52.8462 143.075 52.4635 143.112C52.1835 143.084 51.9502 142.986 51.7635 142.818C51.5769 142.641 51.4509 142.398 51.3855 142.09H51.2875C50.8209 142.585 50.3402 142.93 49.8455 143.126C49.1735 143.117 48.6462 142.939 48.2635 142.594C47.8809 142.249 47.6895 141.777 47.6895 141.18C47.6895 140.713 47.8062 140.349 48.0395 140.088C48.2822 139.817 48.6462 139.635 49.1315 139.542L51.2735 139.136V138.562C51.2735 137.955 50.9749 137.652 50.3775 137.652C50.0882 137.652 49.7802 137.717 49.4535 137.848C49.1362 137.979 48.7769 138.184 48.3755 138.464L48.2355 138.38L48.0255 137.148C48.4269 136.896 48.8562 136.705 49.3135 136.574C49.7709 136.434 50.2282 136.364 50.6855 136.364ZM49.7755 140.396C49.6262 140.433 49.5142 140.499 49.4395 140.592C49.3742 140.676 49.3415 140.807 49.3415 140.984C49.3415 141.227 49.4069 141.418 49.5375 141.558C49.6682 141.689 49.8502 141.754 50.0835 141.754C50.4475 141.754 50.8302 141.539 51.2315 141.11L51.2595 140.074L49.7755 140.396ZM56.6838 140.13L56.7818 143H54.9198L55.0178 140.298L54.9338 133.312L56.7958 133.172L56.6838 140.13ZM58.6675 140.312L58.5975 136.616L60.4315 136.462L60.3475 140.13L60.4315 143H58.5695L58.6675 140.312ZM59.5495 133.298C59.8388 133.298 60.0628 133.382 60.2215 133.55C60.3895 133.718 60.4735 133.951 60.4735 134.25C60.4735 134.567 60.3848 134.819 60.2075 135.006C60.0302 135.193 59.7875 135.286 59.4795 135.286C59.1715 135.286 58.9335 135.202 58.7655 135.034C58.6068 134.866 58.5275 134.628 58.5275 134.32C58.5275 134.012 58.6162 133.765 58.7935 133.578C58.9802 133.391 59.2322 133.298 59.5495 133.298ZM69.9899 143L70.1019 138.94C70.1019 138.249 69.8079 137.904 69.2199 137.904C68.7999 137.904 68.3612 138.091 67.9039 138.464L67.8619 140.144L67.9459 143H66.0839L66.1959 138.94C66.2052 138.604 66.1306 138.347 65.9719 138.17C65.8226 137.993 65.6032 137.904 65.3139 137.904C64.9032 137.904 64.4506 138.1 63.9559 138.492V140.13L64.0399 143H62.1919L62.2899 140.312L62.2199 136.616L63.9699 136.462V137.414H64.0679C64.5812 136.947 65.1459 136.611 65.7619 136.406C66.8072 136.406 67.4746 136.756 67.7639 137.456H67.8479C68.3799 136.961 68.9866 136.611 69.6679 136.406C70.3772 136.406 70.9139 136.569 71.2779 136.896C71.6512 137.213 71.8286 137.675 71.8099 138.282L71.7679 140.144L71.8519 143H69.9899ZM78.5249 139.976L74.7449 140.004C74.8289 141.171 75.4215 141.754 76.5229 141.754C77.1015 141.754 77.7455 141.591 78.4549 141.264L78.6089 141.362L78.3289 142.748C77.6195 143.009 76.9522 143.14 76.3269 143.14C75.3002 143.14 74.4929 142.841 73.9049 142.244C73.3262 141.647 73.0369 140.821 73.0369 139.766C73.0369 138.721 73.3215 137.895 73.8909 137.288C74.4602 136.672 75.2302 136.364 76.2009 136.364C77.0315 136.364 77.6709 136.593 78.1189 137.05C78.5762 137.498 78.8049 138.128 78.8049 138.94C78.8049 139.155 78.7815 139.425 78.7349 139.752L78.5249 139.976ZM77.1809 138.73C77.1809 138.357 77.0969 138.077 76.9289 137.89C76.7609 137.694 76.5135 137.596 76.1869 137.596C75.8229 137.596 75.5195 137.717 75.2769 137.96C75.0342 138.193 74.8709 138.534 74.7869 138.982L77.1529 138.926L77.1809 138.73ZM84.0924 138.94C84.1017 138.613 84.027 138.361 83.8684 138.184C83.719 137.997 83.4997 137.904 83.2104 137.904C82.7904 137.904 82.3424 138.105 81.8664 138.506V140.13L81.9504 143H80.0884L80.1864 140.312L80.1164 136.616L81.8804 136.462V137.414H81.9784C82.4917 136.947 83.0517 136.611 83.6584 136.406C84.3677 136.406 84.909 136.569 85.2824 136.896C85.6557 137.213 85.833 137.675 85.8144 138.282L85.7724 140.144L85.8564 143H83.9804L84.0924 138.94ZM90.1305 141.628C90.4292 141.628 90.7419 141.549 91.0685 141.39L91.2225 141.53L91.0405 142.636C90.5645 142.879 90.0792 143.028 89.5845 143.084C88.3245 142.953 87.6945 142.337 87.6945 141.236L87.7645 140.074L87.7505 137.666H86.8825L86.8125 137.568L86.9105 136.546H87.7365V135.468L89.4305 134.922L89.5565 135.034L89.5145 136.546H91.1805L91.2365 136.644L91.1525 137.666H89.4865L89.4025 140.802C89.4025 141.101 89.4585 141.315 89.5705 141.446C89.6825 141.567 89.8692 141.628 90.1305 141.628ZM94.791 136.364C95.5097 136.364 96.0697 136.527 96.471 136.854C96.8817 137.171 97.087 137.619 97.087 138.198C97.087 138.366 97.059 138.898 97.003 139.794C96.9937 140.055 96.9797 140.326 96.961 140.606C96.9423 140.877 96.933 141.11 96.933 141.306C96.933 141.465 96.9563 141.577 97.003 141.642C97.0497 141.698 97.1337 141.726 97.255 141.726C97.3483 141.726 97.4697 141.707 97.619 141.67L97.759 141.782L97.591 142.762C97.2923 142.958 96.9517 143.075 96.569 143.112C96.289 143.084 96.0557 142.986 95.869 142.818C95.6823 142.641 95.5563 142.398 95.491 142.09H95.393C94.9263 142.585 94.4457 142.93 93.951 143.126C93.279 143.117 92.7517 142.939 92.369 142.594C91.9863 142.249 91.795 141.777 91.795 141.18C91.795 140.713 91.9117 140.349 92.145 140.088C92.3877 139.817 92.7517 139.635 93.237 139.542L95.379 139.136V138.562C95.379 137.955 95.0803 137.652 94.483 137.652C94.1937 137.652 93.8857 137.717 93.559 137.848C93.2417 137.979 92.8823 138.184 92.481 138.464L92.341 138.38L92.131 137.148C92.5323 136.896 92.9617 136.705 93.419 136.574C93.8763 136.434 94.3337 136.364 94.791 136.364ZM93.881 140.396C93.7317 140.433 93.6197 140.499 93.545 140.592C93.4797 140.676 93.447 140.807 93.447 140.984C93.447 141.227 93.5123 141.418 93.643 141.558C93.7737 141.689 93.9557 141.754 94.189 141.754C94.553 141.754 94.9357 141.539 95.337 141.11L95.365 140.074L93.881 140.396ZM101.643 136.364C101.951 136.364 102.255 136.397 102.553 136.462C102.861 136.518 103.132 136.602 103.365 136.714L103.057 138.198L102.903 138.268C102.427 138.007 102.003 137.876 101.629 137.876C101.2 137.876 100.869 138.03 100.635 138.338C100.402 138.646 100.285 139.085 100.285 139.654C100.285 140.307 100.411 140.807 100.663 141.152C100.915 141.497 101.275 141.67 101.741 141.67C102.161 141.67 102.628 141.553 103.141 141.32L103.281 141.432L103.099 142.874C102.539 143.051 101.965 143.14 101.377 143.14C100.481 143.14 99.7812 142.851 99.2772 142.272C98.7732 141.684 98.5212 140.867 98.5212 139.822C98.5212 138.739 98.7966 137.895 99.3472 137.288C99.8979 136.672 100.663 136.364 101.643 136.364ZM101.629 143.672L102.105 143.938C102.311 144.05 102.455 144.171 102.539 144.302C102.633 144.442 102.679 144.596 102.679 144.764C102.679 145.072 102.558 145.324 102.315 145.52C102.073 145.716 101.755 145.814 101.363 145.814C100.943 145.814 100.561 145.683 100.215 145.422L100.341 144.638L100.425 144.596C100.705 144.876 100.981 145.016 101.251 145.016C101.475 145.016 101.587 144.918 101.587 144.722C101.587 144.657 101.569 144.601 101.531 144.554C101.494 144.517 101.433 144.479 101.349 144.442L100.663 144.05L100.985 142.636H101.881L101.629 143.672ZM106.781 136.364C107.5 136.364 108.06 136.527 108.461 136.854C108.872 137.171 109.077 137.619 109.077 138.198C109.077 138.366 109.049 138.898 108.993 139.794C108.984 140.055 108.97 140.326 108.951 140.606C108.933 140.877 108.923 141.11 108.923 141.306C108.923 141.465 108.947 141.577 108.993 141.642C109.04 141.698 109.124 141.726 109.245 141.726C109.339 141.726 109.46 141.707 109.609 141.67L109.749 141.782L109.581 142.762C109.283 142.958 108.942 143.075 108.559 143.112C108.279 143.084 108.046 142.986 107.859 142.818C107.673 142.641 107.547 142.398 107.481 142.09H107.383C106.917 142.585 106.436 142.93 105.941 143.126C105.269 143.117 104.742 142.939 104.359 142.594C103.977 142.249 103.785 141.777 103.785 141.18C103.785 140.713 103.902 140.349 104.135 140.088C104.378 139.817 104.742 139.635 105.227 139.542L107.369 139.136V138.562C107.369 137.955 107.071 137.652 106.473 137.652C106.184 137.652 105.876 137.717 105.549 137.848C105.232 137.979 104.873 138.184 104.471 138.464L104.331 138.38L104.121 137.148C104.523 136.896 104.952 136.705 105.409 136.574C105.867 136.434 106.324 136.364 106.781 136.364ZM105.871 140.396C105.722 140.433 105.61 140.499 105.535 140.592C105.47 140.676 105.437 140.807 105.437 140.984C105.437 141.227 105.503 141.418 105.633 141.558C105.764 141.689 105.946 141.754 106.179 141.754C106.543 141.754 106.926 141.539 107.327 141.11L107.355 140.074L105.871 140.396ZM109.077 133.732V133.886L108.097 135.132L107.915 135.202C107.663 135.174 107.276 135.085 106.753 134.936C106.707 134.927 106.553 134.889 106.291 134.824C106.039 134.749 105.862 134.712 105.759 134.712C105.657 134.712 105.554 134.754 105.451 134.838C105.358 134.922 105.255 135.025 105.143 135.146C105.031 135.267 104.947 135.361 104.891 135.426H104.723L104.163 134.88V134.726L105.157 133.48L105.325 133.41C105.549 133.438 105.946 133.531 106.515 133.69C107.038 133.83 107.36 133.9 107.481 133.9C107.593 133.9 107.701 133.853 107.803 133.76C107.915 133.667 108.027 133.559 108.139 133.438C108.251 133.317 108.326 133.233 108.363 133.186H108.531L109.077 133.732ZM113.661 136.364C114.613 136.364 115.341 136.644 115.845 137.204C116.349 137.764 116.601 138.571 116.601 139.626C116.601 140.765 116.331 141.637 115.789 142.244C115.248 142.841 114.469 143.14 113.451 143.14C112.499 143.14 111.771 142.86 111.267 142.3C110.763 141.74 110.511 140.933 110.511 139.878C110.511 138.739 110.782 137.871 111.323 137.274C111.865 136.667 112.644 136.364 113.661 136.364ZM113.535 137.624C113.087 137.624 112.761 137.773 112.555 138.072C112.359 138.371 112.261 138.851 112.261 139.514C112.261 140.373 112.364 140.984 112.569 141.348C112.775 141.712 113.111 141.894 113.577 141.894C114.025 141.894 114.347 141.749 114.543 141.46C114.749 141.161 114.851 140.676 114.851 140.004C114.851 139.155 114.744 138.548 114.529 138.184C114.324 137.811 113.993 137.624 113.535 137.624ZM118.169 141.11C118.459 141.11 118.683 141.194 118.841 141.362C119.009 141.53 119.093 141.763 119.093 142.062C119.093 142.379 119.005 142.631 118.827 142.818C118.65 143.005 118.407 143.098 118.099 143.098C117.791 143.098 117.553 143.014 117.385 142.846C117.227 142.678 117.147 142.44 117.147 142.132C117.147 141.824 117.236 141.577 117.413 141.39C117.6 141.203 117.852 141.11 118.169 141.11Z" fill="white"/>
<defs>
<filter id="filter0_b_152:8156" x="3" y="67" width="161" height="97" filterUnits="userSpaceOnUse" color-interpolation-filters="sRGB">
<feFlood flood-opacity="0" result="BackgroundImageFix"/>
<feGaussianBlur in="BackgroundImage" stdDeviation="5"/>
<feComposite in2="SourceAlpha" operator="in" result="effect1_backgroundBlur_152:8156"/>
<feBlend mode="normal" in="SourceGraphic" in2="effect1_backgroundBlur_152:8156" result="shape"/>
</filter>
<clipPath id="clip0_152:8156">
<rect width="62.5867" height="62.5867" fill="white" transform="translate(92.3235 -4.38982) rotate(30)"/>
</clipPath>
<clipPath id="clip1_152:8156">
<rect width="85.3957" height="85.3957" fill="white" transform="translate(20.9655 98.6308) rotate(-105)"/>
</clipPath>
</defs>
</svg>
