<svg width="167" height="167" viewBox="0 0 167 167" fill="none" xmlns="http://www.w3.org/2000/svg">
<mask id="mask0_152:11539" style="mask-type:alpha" maskUnits="userSpaceOnUse" x="0" y="0" width="167" height="167">
<rect x="1" y="1" width="165" height="165" rx="8" fill="#5988D6" stroke="#EDE6FC" stroke-opacity="0.3"/>
</mask>
<g mask="url(#mask0_152:11539)">
<rect x="1" y="1" width="165" height="165" rx="8" fill="#D97A7A" stroke="#EDE6FC" stroke-opacity="0.3"/>
<path d="M115.409 45.2422L72.8639 69.8442C71.1852 70.8139 68.4643 70.8139 66.7855 69.8442L51.5914 61.0579C50.7521 60.5722 50.3333 59.9375 50.3333 59.301V55.871L94.1346 32.9421C95.8133 31.9725 98.5342 31.9725 100.213 32.9421L116.665 40.0497C116.665 41.0882 116.656 42.8358 116.665 43.463C116.676 44.1051 116.258 44.7509 115.409 45.2422Z" fill="#99AAB5"/>
<path d="M115.409 41.8624L72.8639 66.4645C71.1852 67.4341 68.4643 67.4341 66.7855 66.4645L51.5914 57.6782C49.9127 56.7085 49.9127 55.134 51.5914 54.1644L94.1364 29.5624C95.8152 28.5927 98.5361 28.5927 100.215 29.5624L115.409 38.3487C117.086 39.3183 117.086 40.8928 115.409 41.8624Z" fill="#CCD6DD"/>
<path d="M111.417 39.3816V24.3382L98.3889 16.8175L74.1163 30.7795V45.8229L87.144 53.3455L111.417 39.3816Z" fill="#FFE8B6"/>
<path d="M111.417 39.3816V24.3382L87.144 38.3021L74.1163 30.7795V45.8229L87.144 53.3455L111.417 39.3816Z" fill="#FFD983"/>
<path d="M111.417 39.3816V24.3382L87.1441 38.3021V53.3455L111.417 39.3816Z" fill="#FFCC4D"/>
<path d="M81.9776 56.6732V52.9286L68.9498 45.4079L55.5833 52.9938V56.7383L68.6111 64.2591L81.9776 56.6732Z" fill="#FFE8B6"/>
<path d="M81.9776 56.6732V52.9286L68.9498 60.4829L55.5833 52.9938V56.7383L68.6111 64.2591L81.9776 56.6732Z" fill="#FFD983"/>
<path d="M81.9776 56.6732V52.9286L68.9498 60.4829L68.6111 64.2591L81.9776 56.6732Z" fill="#FFCC4D"/>
</g>
<g filter="url(#filter0_b_152:11539)">
<rect x="13" y="77" width="141" height="77" rx="10" fill="black" fill-opacity="0.8"/>
</g>
<path d="M30.6623 86.97C31.605 86.97 32.3283 87.208 32.8323 87.684C33.3456 88.16 33.6023 88.8413 33.6023 89.728C33.6023 90.4093 33.453 91.0067 33.1543 91.52C32.8556 92.024 32.4263 92.416 31.8663 92.696C31.3156 92.976 30.667 93.116 29.9203 93.116H29.0243V93.144L29.1083 96H27.2043L27.3023 93.312L27.2043 86.984L30.6623 86.97ZM30.3403 91.73C31.199 91.4873 31.6283 90.876 31.6283 89.896C31.6283 89.392 31.4976 89.0187 31.2363 88.776C30.9843 88.524 30.5923 88.3887 30.0603 88.37L29.1083 88.426L29.0523 91.674L30.3403 91.73ZM38.2069 89.476C38.2909 89.476 38.4075 89.4853 38.5569 89.504V91.226L38.3609 91.296C38.2022 91.2307 38.0295 91.198 37.8429 91.198C37.3015 91.198 36.8115 91.548 36.3729 92.248V93.13L36.4709 96H34.6089L34.7209 93.312L34.6369 89.616L36.4009 89.462L36.3869 90.736H36.4989C36.9562 89.896 37.5255 89.476 38.2069 89.476ZM42.1781 89.364C43.1301 89.364 43.8581 89.644 44.3621 90.204C44.8661 90.764 45.1181 91.5713 45.1181 92.626C45.1181 93.7647 44.8474 94.6373 44.3061 95.244C43.7647 95.8413 42.9854 96.14 41.9681 96.14C41.0161 96.14 40.2881 95.86 39.7841 95.3C39.2801 94.74 39.0281 93.9327 39.0281 92.878C39.0281 91.7393 39.2987 90.8713 39.8401 90.274C40.3814 89.6673 41.1607 89.364 42.1781 89.364ZM42.0521 90.624C41.6041 90.624 41.2774 90.7733 41.0721 91.072C40.8761 91.3707 40.7781 91.8513 40.7781 92.514C40.7781 93.3727 40.8807 93.984 41.0861 94.348C41.2914 94.712 41.6274 94.894 42.0941 94.894C42.5421 94.894 42.8641 94.7493 43.0601 94.46C43.2654 94.1613 43.3681 93.676 43.3681 93.004C43.3681 92.1547 43.2607 91.548 43.0461 91.184C42.8407 90.8107 42.5094 90.624 42.0521 90.624ZM49.026 94.628C49.3247 94.628 49.6374 94.5487 49.964 94.39L50.118 94.53L49.936 95.636C49.46 95.8787 48.9747 96.028 48.48 96.084C47.22 95.9533 46.59 95.3373 46.59 94.236L46.66 93.074L46.646 90.666H45.778L45.708 90.568L45.806 89.546H46.632V88.468L48.326 87.922L48.452 88.034L48.41 89.546H50.076L50.132 89.644L50.048 90.666H48.382L48.298 93.802C48.298 94.1007 48.354 94.3153 48.466 94.446C48.578 94.5673 48.7647 94.628 49.026 94.628ZM56.0688 92.976L52.2888 93.004C52.3728 94.1707 52.9655 94.754 54.0668 94.754C54.6455 94.754 55.2895 94.5907 55.9988 94.264L56.1528 94.362L55.8728 95.748C55.1635 96.0093 54.4961 96.14 53.8708 96.14C52.8441 96.14 52.0368 95.8413 51.4488 95.244C50.8701 94.6467 50.5808 93.8207 50.5808 92.766C50.5808 91.7207 50.8655 90.8947 51.4348 90.288C52.0041 89.672 52.7741 89.364 53.7448 89.364C54.5755 89.364 55.2148 89.5927 55.6628 90.05C56.1201 90.498 56.3488 91.128 56.3488 91.94C56.3488 92.1547 56.3255 92.4253 56.2788 92.752L56.0688 92.976ZM54.7248 91.73C54.7248 91.3567 54.6408 91.0767 54.4728 90.89C54.3048 90.694 54.0575 90.596 53.7308 90.596C53.3668 90.596 53.0635 90.7173 52.8208 90.96C52.5781 91.1933 52.4148 91.534 52.3308 91.982L54.6968 91.926L54.7248 91.73ZM57.7583 93.312L57.6883 89.616L59.5223 89.462L59.4383 93.13L59.5223 96H57.6603L57.7583 93.312ZM59.9563 85.878L60.6283 86.886L60.6003 87.068C60.395 87.1987 60.241 87.292 60.1383 87.348C58.9717 88.0667 58.2157 88.524 57.8703 88.72L57.6883 88.706L57.2403 88.006C58.323 87.138 59.1677 86.424 59.7743 85.864L59.9563 85.878ZM65.2867 91.94C65.296 91.6133 65.2214 91.3613 65.0627 91.184C64.9134 90.9973 64.694 90.904 64.4047 90.904C63.9847 90.904 63.5367 91.1047 63.0607 91.506V93.13L63.1447 96H61.2827L61.3807 93.312L61.3107 89.616L63.0747 89.462V90.414H63.1727C63.686 89.9473 64.246 89.6113 64.8527 89.406C65.562 89.406 66.1034 89.5693 66.4767 89.896C66.85 90.2133 67.0274 90.6753 67.0087 91.282L66.9667 93.144L67.0507 96H65.1747L65.2867 91.94ZM71.2549 89.364C71.9735 89.364 72.5335 89.5273 72.9349 89.854C73.3455 90.1713 73.5509 90.6193 73.5509 91.198C73.5509 91.366 73.5229 91.898 73.4669 92.794C73.4575 93.0553 73.4435 93.326 73.4249 93.606C73.4062 93.8767 73.3969 94.11 73.3969 94.306C73.3969 94.4647 73.4202 94.5767 73.4669 94.642C73.5135 94.698 73.5975 94.726 73.7189 94.726C73.8122 94.726 73.9335 94.7073 74.0829 94.67L74.2229 94.782L74.0549 95.762C73.7562 95.958 73.4155 96.0747 73.0329 96.112C72.7529 96.084 72.5195 95.986 72.3329 95.818C72.1462 95.6407 72.0202 95.398 71.9549 95.09H71.8569C71.3902 95.5847 70.9095 95.93 70.4149 96.126C69.7429 96.1167 69.2155 95.9393 68.8329 95.594C68.4502 95.2487 68.2589 94.7773 68.2589 94.18C68.2589 93.7133 68.3755 93.3493 68.6089 93.088C68.8515 92.8173 69.2155 92.6353 69.7009 92.542L71.8429 92.136V91.562C71.8429 90.9553 71.5442 90.652 70.9469 90.652C70.6575 90.652 70.3495 90.7173 70.0229 90.848C69.7055 90.9787 69.3462 91.184 68.9449 91.464L68.8049 91.38L68.5949 90.148C68.9962 89.896 69.4255 89.7047 69.8829 89.574C70.3402 89.434 70.7975 89.364 71.2549 89.364ZM70.3449 93.396C70.1955 93.4333 70.0835 93.4987 70.0089 93.592C69.9435 93.676 69.9109 93.8067 69.9109 93.984C69.9109 94.2267 69.9762 94.418 70.1069 94.558C70.2375 94.6887 70.4195 94.754 70.6529 94.754C71.0169 94.754 71.3995 94.5393 71.8009 94.11L71.8289 93.074L70.3449 93.396ZM77.6171 89.378C78.2518 89.378 78.8491 89.4853 79.4091 89.7L79.1571 91.072L78.9331 91.142C78.6624 90.9647 78.3918 90.8293 78.1211 90.736C77.8504 90.6427 77.6124 90.596 77.4071 90.596C77.1831 90.596 77.0058 90.6567 76.8751 90.778C76.7444 90.89 76.6791 91.03 76.6791 91.198C76.6791 91.394 76.7631 91.5527 76.9311 91.674C77.1084 91.7953 77.3838 91.9307 77.7571 92.08C78.1304 92.2293 78.4384 92.374 78.6811 92.514C78.9238 92.654 79.1291 92.85 79.2971 93.102C79.4744 93.3447 79.5631 93.648 79.5631 94.012C79.5631 94.3853 79.4651 94.7353 79.2691 95.062C79.0824 95.3793 78.7931 95.6407 78.4011 95.846C78.0091 96.042 77.5284 96.14 76.9591 96.14C76.2871 96.14 75.5918 96 74.8731 95.72L75.0831 94.264L75.2651 94.152C75.5544 94.3947 75.8764 94.5907 76.2311 94.74C76.5858 94.88 76.8984 94.95 77.1691 94.95C77.4211 94.95 77.6171 94.8893 77.7571 94.768C77.8971 94.6373 77.9671 94.4833 77.9671 94.306C77.9671 94.11 77.8784 93.9513 77.7011 93.83C77.5331 93.7087 77.2624 93.5733 76.8891 93.424C76.5064 93.256 76.1938 93.1067 75.9511 92.976C75.7084 92.836 75.4984 92.64 75.3211 92.388C75.1531 92.136 75.0691 91.8233 75.0691 91.45C75.0691 90.8433 75.2978 90.3487 75.7551 89.966C76.2124 89.574 76.8331 89.378 77.6171 89.378ZM87.9653 92.976L84.1853 93.004C84.2693 94.1707 84.862 94.754 85.9633 94.754C86.542 94.754 87.186 94.5907 87.8953 94.264L88.0493 94.362L87.7693 95.748C87.06 96.0093 86.3926 96.14 85.7673 96.14C84.7406 96.14 83.9333 95.8413 83.3453 95.244C82.7666 94.6467 82.4773 93.8207 82.4773 92.766C82.4773 91.7207 82.762 90.8947 83.3313 90.288C83.9006 89.672 84.6706 89.364 85.6413 89.364C86.472 89.364 87.1113 89.5927 87.5593 90.05C88.0166 90.498 88.2453 91.128 88.2453 91.94C88.2453 92.1547 88.222 92.4253 88.1753 92.752L87.9653 92.976ZM86.6213 91.73C86.6213 91.3567 86.5373 91.0767 86.3693 90.89C86.2013 90.694 85.954 90.596 85.6273 90.596C85.2633 90.596 84.96 90.7173 84.7173 90.96C84.4746 91.1933 84.3113 91.534 84.2273 91.982L86.5933 91.926L86.6213 91.73ZM97.9059 90.372C97.6539 90.4373 97.2946 90.5073 96.8279 90.582L96.7999 90.638C96.9399 90.918 97.0099 91.2307 97.0099 91.576C97.0099 92.276 96.7533 92.836 96.2399 93.256C95.7359 93.6667 95.0499 93.872 94.1819 93.872C93.9206 93.872 93.6499 93.8487 93.3699 93.802C93.2859 93.886 93.2299 93.9513 93.2019 93.998C93.1739 94.0447 93.1599 94.1007 93.1599 94.166C93.1599 94.334 93.2719 94.4507 93.4959 94.516C93.7199 94.5813 94.0746 94.6467 94.5599 94.712C95.1106 94.7773 95.5679 94.8567 95.9319 94.95C96.3053 95.0433 96.6226 95.2067 96.8839 95.44C97.1546 95.6733 97.2899 96.0047 97.2899 96.434C97.2899 96.8727 97.1499 97.2647 96.8699 97.61C96.5993 97.9647 96.2213 98.24 95.7359 98.436C95.2506 98.632 94.6999 98.73 94.0839 98.73C93.2346 98.73 92.5813 98.5573 92.1239 98.212C91.6666 97.8667 91.4379 97.4093 91.4379 96.84C91.7273 96.4387 92.1146 96.0887 92.5999 95.79V95.72C92.2826 95.608 92.0353 95.454 91.8579 95.258C91.6806 95.0527 91.5919 94.782 91.5919 94.446C91.8439 94.138 92.1613 93.8533 92.5439 93.592V93.522C92.2079 93.3353 91.9513 93.0927 91.7739 92.794C91.6059 92.486 91.5219 92.1267 91.5219 91.716C91.5219 90.988 91.7739 90.4187 92.2779 90.008C92.7819 89.5973 93.4679 89.392 94.3359 89.392C94.8399 89.392 95.2973 89.476 95.7079 89.644C96.3799 89.5227 97.0659 89.336 97.7659 89.084L97.9059 89.21V90.372ZM94.2379 92.752C94.6206 92.752 94.9099 92.654 95.1059 92.458C95.3019 92.262 95.3999 91.9773 95.3999 91.604C95.3999 90.8947 95.0359 90.54 94.3079 90.54C93.5239 90.54 93.1319 90.8993 93.1319 91.618C93.1319 91.9913 93.2253 92.276 93.4119 92.472C93.5986 92.6587 93.8739 92.752 94.2379 92.752ZM95.7219 96.77C95.7219 96.518 95.5866 96.3453 95.3159 96.252C95.0546 96.1587 94.6486 96.0793 94.0979 96.014L93.6219 95.944C93.3979 96.0933 93.2299 96.238 93.1179 96.378C93.0059 96.518 92.9499 96.6673 92.9499 96.826C92.9499 97.0687 93.0619 97.2647 93.2859 97.414C93.5099 97.5633 93.8366 97.638 94.2659 97.638C94.7046 97.638 95.0546 97.5587 95.3159 97.4C95.5866 97.2507 95.7219 97.0407 95.7219 96.77ZM101.295 89.364C102.247 89.364 102.975 89.644 103.479 90.204C103.983 90.764 104.235 91.5713 104.235 92.626C104.235 93.7647 103.965 94.6373 103.423 95.244C102.882 95.8413 102.103 96.14 101.085 96.14C100.133 96.14 99.4053 95.86 98.9013 95.3C98.3973 94.74 98.1453 93.9327 98.1453 92.878C98.1453 91.7393 98.4159 90.8713 98.9573 90.274C99.4986 89.6673 100.278 89.364 101.295 89.364ZM101.169 90.624C100.721 90.624 100.395 90.7733 100.189 91.072C99.9933 91.3707 99.8953 91.8513 99.8953 92.514C99.8953 93.3727 99.9979 93.984 100.203 94.348C100.409 94.712 100.745 94.894 101.211 94.894C101.659 94.894 101.981 94.7493 102.177 94.46C102.383 94.1613 102.485 93.676 102.485 93.004C102.485 92.1547 102.378 91.548 102.163 91.184C101.958 90.8107 101.627 90.624 101.169 90.624ZM109.027 89.476C109.111 89.476 109.228 89.4853 109.377 89.504V91.226L109.181 91.296C109.023 91.2307 108.85 91.198 108.663 91.198C108.122 91.198 107.632 91.548 107.193 92.248V93.13L107.291 96H105.429L105.541 93.312L105.457 89.616L107.221 89.462L107.207 90.736H107.319C107.777 89.896 108.346 89.476 109.027 89.476ZM115.728 93.13L115.77 94.306C115.77 94.4647 115.789 94.5767 115.826 94.642C115.873 94.698 115.952 94.726 116.064 94.726C116.167 94.726 116.293 94.7073 116.442 94.67L116.568 94.782L116.414 95.762C116.097 95.958 115.752 96.0747 115.378 96.112C115.089 96.084 114.846 95.986 114.65 95.818C114.454 95.65 114.319 95.4213 114.244 95.132H114.132C113.675 95.552 113.208 95.874 112.732 96.098C111.818 96.098 111.108 95.8087 110.604 95.23C110.1 94.642 109.848 93.83 109.848 92.794C109.848 91.6927 110.138 90.848 110.716 90.26C111.295 89.672 112.098 89.378 113.124 89.378C113.395 89.378 113.694 89.406 114.02 89.462L113.992 86.312L115.84 86.172L115.728 93.13ZM112.998 90.638C112.065 90.638 111.598 91.2307 111.598 92.416C111.598 93.1533 111.71 93.7087 111.934 94.082C112.158 94.4553 112.485 94.642 112.914 94.642C113.325 94.642 113.703 94.4507 114.048 94.068L114.076 93.298L114.034 90.89C113.67 90.722 113.325 90.638 112.998 90.638ZM123.882 94.782L123.714 95.762C123.368 95.986 123.014 96.1027 122.65 96.112C122.379 96.0653 122.155 95.958 121.978 95.79C121.8 95.622 121.665 95.3793 121.572 95.062H121.446C120.914 95.5847 120.363 95.9253 119.794 96.084C119.084 96.084 118.543 95.9253 118.17 95.608C117.806 95.2813 117.628 94.8147 117.638 94.208L117.666 92.556L117.596 89.616L119.402 89.462L119.36 93.592C119.35 93.9187 119.416 94.166 119.556 94.334C119.696 94.502 119.906 94.586 120.186 94.586C120.596 94.586 121.002 94.404 121.404 94.04V89.616L123.182 89.462L123.056 94.306C123.056 94.4553 123.079 94.5627 123.126 94.628C123.182 94.6933 123.266 94.726 123.378 94.726C123.48 94.726 123.606 94.7073 123.756 94.67L123.882 94.782ZM128.496 89.476C128.58 89.476 128.697 89.4853 128.846 89.504V91.226L128.65 91.296C128.491 91.2307 128.319 91.198 128.132 91.198C127.591 91.198 127.101 91.548 126.662 92.248V93.13L126.76 96H124.898L125.01 93.312L124.926 89.616L126.69 89.462L126.676 90.736H126.788C127.245 89.896 127.815 89.476 128.496 89.476ZM132.19 89.364C132.909 89.364 133.469 89.5273 133.87 89.854C134.281 90.1713 134.486 90.6193 134.486 91.198C134.486 91.366 134.458 91.898 134.402 92.794C134.393 93.0553 134.379 93.326 134.36 93.606C134.342 93.8767 134.332 94.11 134.332 94.306C134.332 94.4647 134.356 94.5767 134.402 94.642C134.449 94.698 134.533 94.726 134.654 94.726C134.748 94.726 134.869 94.7073 135.018 94.67L135.158 94.782L134.99 95.762C134.692 95.958 134.351 96.0747 133.968 96.112C133.688 96.084 133.455 95.986 133.268 95.818C133.082 95.6407 132.956 95.398 132.89 95.09H132.792C132.326 95.5847 131.845 95.93 131.35 96.126C130.678 96.1167 130.151 95.9393 129.768 95.594C129.386 95.2487 129.194 94.7773 129.194 94.18C129.194 93.7133 129.311 93.3493 129.544 93.088C129.787 92.8173 130.151 92.6353 130.636 92.542L132.778 92.136V91.562C132.778 90.9553 132.48 90.652 131.882 90.652C131.593 90.652 131.285 90.7173 130.958 90.848C130.641 90.9787 130.282 91.184 129.88 91.464L129.74 91.38L129.53 90.148C129.932 89.896 130.361 89.7047 130.818 89.574C131.276 89.434 131.733 89.364 132.19 89.364ZM131.28 93.396C131.131 93.4333 131.019 93.4987 130.944 93.592C130.879 93.676 130.846 93.8067 130.846 93.984C130.846 94.2267 130.912 94.418 131.042 94.558C131.173 94.6887 131.355 94.754 131.588 94.754C131.952 94.754 132.335 94.5393 132.736 94.11L132.764 93.074L131.28 93.396ZM138.553 89.378C139.187 89.378 139.785 89.4853 140.345 89.7L140.093 91.072L139.869 91.142C139.598 90.9647 139.327 90.8293 139.057 90.736C138.786 90.6427 138.548 90.596 138.343 90.596C138.119 90.596 137.941 90.6567 137.811 90.778C137.68 90.89 137.615 91.03 137.615 91.198C137.615 91.394 137.699 91.5527 137.867 91.674C138.044 91.7953 138.319 91.9307 138.693 92.08C139.066 92.2293 139.374 92.374 139.617 92.514C139.859 92.654 140.065 92.85 140.233 93.102C140.41 93.3447 140.499 93.648 140.499 94.012C140.499 94.3853 140.401 94.7353 140.205 95.062C140.018 95.3793 139.729 95.6407 139.337 95.846C138.945 96.042 138.464 96.14 137.895 96.14C137.223 96.14 136.527 96 135.809 95.72L136.019 94.264L136.201 94.152C136.49 94.3947 136.812 94.5907 137.167 94.74C137.521 94.88 137.834 94.95 138.105 94.95C138.357 94.95 138.553 94.8893 138.693 94.768C138.833 94.6373 138.903 94.4833 138.903 94.306C138.903 94.11 138.814 93.9513 138.637 93.83C138.469 93.7087 138.198 93.5733 137.825 93.424C137.442 93.256 137.129 93.1067 136.887 92.976C136.644 92.836 136.434 92.64 136.257 92.388C136.089 92.136 136.005 91.8233 136.005 91.45C136.005 90.8433 136.233 90.3487 136.691 89.966C137.148 89.574 137.769 89.378 138.553 89.378ZM58.1401 108.976L54.3601 109.004C54.4441 110.171 55.0368 110.754 56.1381 110.754C56.7168 110.754 57.3608 110.591 58.0701 110.264L58.2241 110.362L57.9441 111.748C57.2348 112.009 56.5674 112.14 55.9421 112.14C54.9154 112.14 54.1081 111.841 53.5201 111.244C52.9414 110.647 52.6521 109.821 52.6521 108.766C52.6521 107.721 52.9368 106.895 53.5061 106.288C54.0754 105.672 54.8454 105.364 55.8161 105.364C56.6468 105.364 57.2861 105.593 57.7341 106.05C58.1914 106.498 58.4201 107.128 58.4201 107.94C58.4201 108.155 58.3968 108.425 58.3501 108.752L58.1401 108.976ZM56.7961 107.73C56.7961 107.357 56.7121 107.077 56.5441 106.89C56.3761 106.694 56.1288 106.596 55.8021 106.596C55.4381 106.596 55.1348 106.717 54.8921 106.96C54.6494 107.193 54.4861 107.534 54.4021 107.982L56.7681 107.926L56.7961 107.73ZM67.5016 112L67.6136 107.94C67.6136 107.249 67.3196 106.904 66.7316 106.904C66.3116 106.904 65.8729 107.091 65.4156 107.464L65.3736 109.144L65.4576 112H63.5956L63.7076 107.94C63.7169 107.604 63.6423 107.347 63.4836 107.17C63.3343 106.993 63.1149 106.904 62.8256 106.904C62.4149 106.904 61.9623 107.1 61.4676 107.492V109.13L61.5516 112H59.7036L59.8016 109.312L59.7316 105.616L61.4816 105.462V106.414H61.5796C62.0929 105.947 62.6576 105.611 63.2736 105.406C64.3189 105.406 64.9863 105.756 65.2756 106.456H65.3596C65.8916 105.961 66.4983 105.611 67.1796 105.406C67.8889 105.406 68.4256 105.569 68.7896 105.896C69.1629 106.213 69.3403 106.675 69.3216 107.282L69.2796 109.144L69.3636 112H67.5016ZM78.1557 108.976L74.3757 109.004C74.4597 110.171 75.0524 110.754 76.1537 110.754C76.7324 110.754 77.3764 110.591 78.0857 110.264L78.2397 110.362L77.9597 111.748C77.2504 112.009 76.5831 112.14 75.9577 112.14C74.9311 112.14 74.1237 111.841 73.5357 111.244C72.9571 110.647 72.6677 109.821 72.6677 108.766C72.6677 107.721 72.9524 106.895 73.5217 106.288C74.0911 105.672 74.8611 105.364 75.8317 105.364C76.6624 105.364 77.3017 105.593 77.7497 106.05C78.2071 106.498 78.4357 107.128 78.4357 107.94C78.4357 108.155 78.4124 108.425 78.3657 108.752L78.1557 108.976ZM76.8117 107.73C76.8117 107.357 76.7277 107.077 76.5597 106.89C76.3917 106.694 76.1444 106.596 75.8177 106.596C75.4537 106.596 75.1504 106.717 74.9077 106.96C74.6651 107.193 74.5017 107.534 74.4177 107.982L76.7837 107.926L76.8117 107.73ZM81.3292 106.218L82.2252 107.674L83.1072 106.162L83.4572 105.504H85.0952L83.2192 108.696L85.1792 111.944L83.2192 112.084L82.8972 111.258L81.9732 109.76L81.0072 111.342L80.6992 112H79.0612L80.9512 108.738L79.0472 105.546L81.0352 105.448L81.3292 106.218ZM88.6276 105.364C88.9356 105.364 89.2389 105.397 89.5376 105.462C89.8456 105.518 90.1163 105.602 90.3496 105.714L90.0416 107.198L89.8876 107.268C89.4116 107.007 88.9869 106.876 88.6136 106.876C88.1843 106.876 87.8529 107.03 87.6196 107.338C87.3863 107.646 87.2696 108.085 87.2696 108.654C87.2696 109.307 87.3956 109.807 87.6476 110.152C87.8996 110.497 88.2589 110.67 88.7256 110.67C89.1456 110.67 89.6123 110.553 90.1256 110.32L90.2656 110.432L90.0836 111.874C89.5236 112.051 88.9496 112.14 88.3616 112.14C87.4656 112.14 86.7656 111.851 86.2616 111.272C85.7576 110.684 85.5056 109.867 85.5056 108.822C85.5056 107.739 85.7809 106.895 86.3316 106.288C86.8823 105.672 87.6476 105.364 88.6276 105.364ZM96.3803 108.976L92.6003 109.004C92.6843 110.171 93.277 110.754 94.3783 110.754C94.957 110.754 95.601 110.591 96.3103 110.264L96.4643 110.362L96.1843 111.748C95.475 112.009 94.8077 112.14 94.1823 112.14C93.1557 112.14 92.3483 111.841 91.7603 111.244C91.1817 110.647 90.8923 109.821 90.8923 108.766C90.8923 107.721 91.177 106.895 91.7463 106.288C92.3157 105.672 93.0857 105.364 94.0563 105.364C94.887 105.364 95.5263 105.593 95.9743 106.05C96.4317 106.498 96.6603 107.128 96.6603 107.94C96.6603 108.155 96.637 108.425 96.5903 108.752L96.3803 108.976ZM95.0363 107.73C95.0363 107.357 94.9523 107.077 94.7843 106.89C94.6163 106.694 94.369 106.596 94.0423 106.596C93.6783 106.596 93.375 106.717 93.1323 106.96C92.8897 107.193 92.7263 107.534 92.6423 107.982L95.0083 107.926L95.0363 107.73ZM100.128 105.378C100.763 105.378 101.36 105.485 101.92 105.7L101.668 107.072L101.444 107.142C101.173 106.965 100.903 106.829 100.632 106.736C100.361 106.643 100.123 106.596 99.9178 106.596C99.6938 106.596 99.5165 106.657 99.3858 106.778C99.2552 106.89 99.1898 107.03 99.1898 107.198C99.1898 107.394 99.2738 107.553 99.4418 107.674C99.6192 107.795 99.8945 107.931 100.268 108.08C100.641 108.229 100.949 108.374 101.192 108.514C101.435 108.654 101.64 108.85 101.808 109.102C101.985 109.345 102.074 109.648 102.074 110.012C102.074 110.385 101.976 110.735 101.78 111.062C101.593 111.379 101.304 111.641 100.912 111.846C100.52 112.042 100.039 112.14 99.4698 112.14C98.7978 112.14 98.1025 112 97.3838 111.72L97.5938 110.264L97.7758 110.152C98.0652 110.395 98.3872 110.591 98.7418 110.74C99.0965 110.88 99.4092 110.95 99.6798 110.95C99.9318 110.95 100.128 110.889 100.268 110.768C100.408 110.637 100.478 110.483 100.478 110.306C100.478 110.11 100.389 109.951 100.212 109.83C100.044 109.709 99.7732 109.573 99.3998 109.424C99.0172 109.256 98.7045 109.107 98.4618 108.976C98.2192 108.836 98.0092 108.64 97.8318 108.388C97.6638 108.136 97.5798 107.823 97.5798 107.45C97.5798 106.843 97.8085 106.349 98.2658 105.966C98.7232 105.574 99.3438 105.378 100.128 105.378ZM105.501 105.378C106.136 105.378 106.733 105.485 107.293 105.7L107.041 107.072L106.817 107.142C106.546 106.965 106.276 106.829 106.005 106.736C105.734 106.643 105.496 106.596 105.291 106.596C105.067 106.596 104.89 106.657 104.759 106.778C104.628 106.89 104.563 107.03 104.563 107.198C104.563 107.394 104.647 107.553 104.815 107.674C104.992 107.795 105.268 107.931 105.641 108.08C106.014 108.229 106.322 108.374 106.565 108.514C106.808 108.654 107.013 108.85 107.181 109.102C107.358 109.345 107.447 109.648 107.447 110.012C107.447 110.385 107.349 110.735 107.153 111.062C106.966 111.379 106.677 111.641 106.285 111.846C105.893 112.042 105.412 112.14 104.843 112.14C104.171 112.14 103.476 112 102.757 111.72L102.967 110.264L103.149 110.152C103.438 110.395 103.76 110.591 104.115 110.74C104.47 110.88 104.782 110.95 105.053 110.95C105.305 110.95 105.501 110.889 105.641 110.768C105.781 110.637 105.851 110.483 105.851 110.306C105.851 110.11 105.762 109.951 105.585 109.83C105.417 109.709 105.146 109.573 104.773 109.424C104.39 109.256 104.078 109.107 103.835 108.976C103.592 108.836 103.382 108.64 103.205 108.388C103.037 108.136 102.953 107.823 102.953 107.45C102.953 106.843 103.182 106.349 103.639 105.966C104.096 105.574 104.717 105.378 105.501 105.378ZM111.392 105.364C112.344 105.364 113.072 105.644 113.576 106.204C114.08 106.764 114.332 107.571 114.332 108.626C114.332 109.765 114.061 110.637 113.52 111.244C112.979 111.841 112.199 112.14 111.182 112.14C110.23 112.14 109.502 111.86 108.998 111.3C108.494 110.74 108.242 109.933 108.242 108.878C108.242 107.739 108.513 106.871 109.054 106.274C109.595 105.667 110.375 105.364 111.392 105.364ZM111.266 106.624C110.818 106.624 110.491 106.773 110.286 107.072C110.09 107.371 109.992 107.851 109.992 108.514C109.992 109.373 110.095 109.984 110.3 110.348C110.505 110.712 110.841 110.894 111.308 110.894C111.756 110.894 112.078 110.749 112.274 110.46C112.479 110.161 112.582 109.676 112.582 109.004C112.582 108.155 112.475 107.548 112.26 107.184C112.055 106.811 111.723 106.624 111.266 106.624ZM26.4453 121.364C27.164 121.364 27.724 121.527 28.1253 121.854C28.536 122.171 28.7413 122.619 28.7413 123.198C28.7413 123.366 28.7133 123.898 28.6573 124.794C28.648 125.055 28.634 125.326 28.6153 125.606C28.5966 125.877 28.5873 126.11 28.5873 126.306C28.5873 126.465 28.6106 126.577 28.6573 126.642C28.704 126.698 28.788 126.726 28.9093 126.726C29.0026 126.726 29.124 126.707 29.2733 126.67L29.4133 126.782L29.2453 127.762C28.9466 127.958 28.606 128.075 28.2233 128.112C27.9433 128.084 27.71 127.986 27.5233 127.818C27.3366 127.641 27.2106 127.398 27.1453 127.09H27.0473C26.5806 127.585 26.1 127.93 25.6053 128.126C24.9333 128.117 24.406 127.939 24.0233 127.594C23.6406 127.249 23.4493 126.777 23.4493 126.18C23.4493 125.713 23.566 125.349 23.7993 125.088C24.042 124.817 24.406 124.635 24.8913 124.542L27.0333 124.136V123.562C27.0333 122.955 26.7346 122.652 26.1373 122.652C25.848 122.652 25.54 122.717 25.2133 122.848C24.896 122.979 24.5366 123.184 24.1353 123.464L23.9953 123.38L23.7853 122.148C24.1866 121.896 24.616 121.705 25.0733 121.574C25.5306 121.434 25.988 121.364 26.4453 121.364ZM25.5353 125.396C25.386 125.433 25.274 125.499 25.1993 125.592C25.134 125.676 25.1013 125.807 25.1013 125.984C25.1013 126.227 25.1666 126.418 25.2973 126.558C25.428 126.689 25.61 126.754 25.8433 126.754C26.2073 126.754 26.59 126.539 26.9913 126.11L27.0193 125.074L25.5353 125.396ZM36.8395 126.782L36.6715 127.762C36.3262 127.986 35.9715 128.103 35.6075 128.112C35.3369 128.065 35.1129 127.958 34.9355 127.79C34.7582 127.622 34.6229 127.379 34.5295 127.062H34.4035C33.8715 127.585 33.3209 127.925 32.7515 128.084C32.0422 128.084 31.5009 127.925 31.1275 127.608C30.7635 127.281 30.5862 126.815 30.5955 126.208L30.6235 124.556L30.5535 121.616L32.3595 121.462L32.3175 125.592C32.3082 125.919 32.3735 126.166 32.5135 126.334C32.6535 126.502 32.8635 126.586 33.1435 126.586C33.5542 126.586 33.9602 126.404 34.3615 126.04V121.616L36.1395 121.462L36.0135 126.306C36.0135 126.455 36.0369 126.563 36.0835 126.628C36.1395 126.693 36.2235 126.726 36.3355 126.726C36.4382 126.726 36.5642 126.707 36.7135 126.67L36.8395 126.782ZM45.654 128L45.766 123.94C45.766 123.249 45.472 122.904 44.884 122.904C44.464 122.904 44.0253 123.091 43.568 123.464L43.526 125.144L43.61 128H41.748L41.86 123.94C41.8693 123.604 41.7946 123.347 41.636 123.17C41.4866 122.993 41.2673 122.904 40.978 122.904C40.5673 122.904 40.1146 123.1 39.62 123.492V125.13L39.704 128H37.856L37.954 125.312L37.884 121.616L39.634 121.462V122.414H39.732C40.2453 121.947 40.81 121.611 41.426 121.406C42.4713 121.406 43.1386 121.756 43.428 122.456H43.512C44.044 121.961 44.6506 121.611 45.332 121.406C46.0413 121.406 46.578 121.569 46.942 121.896C47.3153 122.213 47.4926 122.675 47.474 123.282L47.432 125.144L47.516 128H45.654ZM54.1889 124.976L50.4089 125.004C50.4929 126.171 51.0856 126.754 52.1869 126.754C52.7656 126.754 53.4096 126.591 54.1189 126.264L54.2729 126.362L53.9929 127.748C53.2836 128.009 52.6163 128.14 51.9909 128.14C50.9643 128.14 50.1569 127.841 49.5689 127.244C48.9903 126.647 48.7009 125.821 48.7009 124.766C48.7009 123.721 48.9856 122.895 49.5549 122.288C50.1243 121.672 50.8943 121.364 51.8649 121.364C52.6956 121.364 53.3349 121.593 53.7829 122.05C54.2403 122.498 54.4689 123.128 54.4689 123.94C54.4689 124.155 54.4456 124.425 54.3989 124.752L54.1889 124.976ZM52.8449 123.73C52.8449 123.357 52.7609 123.077 52.5929 122.89C52.4249 122.694 52.1776 122.596 51.8509 122.596C51.4869 122.596 51.1836 122.717 50.9409 122.96C50.6983 123.193 50.5349 123.534 50.4509 123.982L52.8169 123.926L52.8449 123.73ZM59.7564 123.94C59.7658 123.613 59.6911 123.361 59.5324 123.184C59.3831 122.997 59.1638 122.904 58.8744 122.904C58.4544 122.904 58.0064 123.105 57.5304 123.506V125.13L57.6144 128H55.7524L55.8504 125.312L55.7804 121.616L57.5444 121.462V122.414H57.6424C58.1558 121.947 58.7158 121.611 59.3224 121.406C60.0318 121.406 60.5731 121.569 60.9464 121.896C61.3198 122.213 61.4971 122.675 61.4784 123.282L61.4364 125.144L61.5204 128H59.6444L59.7564 123.94ZM65.7946 126.628C66.0933 126.628 66.4059 126.549 66.7326 126.39L66.8866 126.53L66.7046 127.636C66.2286 127.879 65.7433 128.028 65.2486 128.084C63.9886 127.953 63.3586 127.337 63.3586 126.236L63.4286 125.074L63.4146 122.666H62.5466L62.4766 122.568L62.5746 121.546H63.4006V120.468L65.0946 119.922L65.2206 120.034L65.1786 121.546H66.8446L66.9006 121.644L66.8166 122.666H65.1506L65.0666 125.802C65.0666 126.101 65.1226 126.315 65.2346 126.446C65.3466 126.567 65.5333 126.628 65.7946 126.628ZM70.4551 121.364C71.1737 121.364 71.7337 121.527 72.1351 121.854C72.5457 122.171 72.7511 122.619 72.7511 123.198C72.7511 123.366 72.7231 123.898 72.6671 124.794C72.6577 125.055 72.6437 125.326 72.6251 125.606C72.6064 125.877 72.5971 126.11 72.5971 126.306C72.5971 126.465 72.6204 126.577 72.6671 126.642C72.7137 126.698 72.7977 126.726 72.9191 126.726C73.0124 126.726 73.1337 126.707 73.2831 126.67L73.4231 126.782L73.2551 127.762C72.9564 127.958 72.6157 128.075 72.2331 128.112C71.9531 128.084 71.7197 127.986 71.5331 127.818C71.3464 127.641 71.2204 127.398 71.1551 127.09H71.0571C70.5904 127.585 70.1097 127.93 69.6151 128.126C68.9431 128.117 68.4157 127.939 68.0331 127.594C67.6504 127.249 67.4591 126.777 67.4591 126.18C67.4591 125.713 67.5757 125.349 67.8091 125.088C68.0517 124.817 68.4157 124.635 68.9011 124.542L71.0431 124.136V123.562C71.0431 122.955 70.7444 122.652 70.1471 122.652C69.8577 122.652 69.5497 122.717 69.2231 122.848C68.9057 122.979 68.5464 123.184 68.1451 123.464L68.0051 123.38L67.7951 122.148C68.1964 121.896 68.6257 121.705 69.0831 121.574C69.5404 121.434 69.9977 121.364 70.4551 121.364ZM69.5451 125.396C69.3957 125.433 69.2837 125.499 69.2091 125.592C69.1437 125.676 69.1111 125.807 69.1111 125.984C69.1111 126.227 69.1764 126.418 69.3071 126.558C69.4377 126.689 69.6197 126.754 69.8531 126.754C70.2171 126.754 70.5997 126.539 71.0011 126.11L71.0291 125.074L69.5451 125.396ZM82.3493 128L82.4613 123.94C82.4613 123.249 82.1673 122.904 81.5793 122.904C81.1593 122.904 80.7206 123.091 80.2633 123.464L80.2213 125.144L80.3053 128H78.4433L78.5553 123.94C78.5646 123.604 78.4899 123.347 78.3313 123.17C78.1819 122.993 77.9626 122.904 77.6733 122.904C77.2626 122.904 76.8099 123.1 76.3153 123.492V125.13L76.3993 128H74.5513L74.6493 125.312L74.5793 121.616L76.3293 121.462V122.414H76.4273C76.9406 121.947 77.5053 121.611 78.1213 121.406C79.1666 121.406 79.8339 121.756 80.1233 122.456H80.2073C80.7393 121.961 81.3459 121.611 82.0273 121.406C82.7366 121.406 83.2733 121.569 83.6373 121.896C84.0106 122.213 84.1879 122.675 84.1693 123.282L84.1273 125.144L84.2113 128H82.3493ZM90.5254 121.364C91.244 121.364 91.804 121.527 92.2054 121.854C92.616 122.171 92.8214 122.619 92.8214 123.198C92.8214 123.366 92.7934 123.898 92.7374 124.794C92.728 125.055 92.714 125.326 92.6954 125.606C92.6767 125.877 92.6674 126.11 92.6674 126.306C92.6674 126.465 92.6907 126.577 92.7374 126.642C92.784 126.698 92.868 126.726 92.9894 126.726C93.0827 126.726 93.204 126.707 93.3534 126.67L93.4934 126.782L93.3254 127.762C93.0267 127.958 92.686 128.075 92.3034 128.112C92.0234 128.084 91.79 127.986 91.6034 127.818C91.4167 127.641 91.2907 127.398 91.2254 127.09H91.1274C90.6607 127.585 90.18 127.93 89.6854 128.126C89.0134 128.117 88.486 127.939 88.1034 127.594C87.7207 127.249 87.5294 126.777 87.5294 126.18C87.5294 125.713 87.646 125.349 87.8794 125.088C88.122 124.817 88.486 124.635 88.9714 124.542L91.1134 124.136V123.562C91.1134 122.955 90.8147 122.652 90.2174 122.652C89.928 122.652 89.62 122.717 89.2934 122.848C88.976 122.979 88.6167 123.184 88.2154 123.464L88.0754 123.38L87.8654 122.148C88.2667 121.896 88.696 121.705 89.1534 121.574C89.6107 121.434 90.068 121.364 90.5254 121.364ZM89.6154 125.396C89.466 125.433 89.354 125.499 89.2794 125.592C89.214 125.676 89.1814 125.807 89.1814 125.984C89.1814 126.227 89.2467 126.418 89.3774 126.558C89.508 126.689 89.69 126.754 89.9234 126.754C90.2874 126.754 90.67 126.539 91.0714 126.11L91.0994 125.074L89.6154 125.396ZM103.081 122.372C102.829 122.437 102.469 122.507 102.003 122.582L101.975 122.638C102.115 122.918 102.185 123.231 102.185 123.576C102.185 124.276 101.928 124.836 101.415 125.256C100.911 125.667 100.225 125.872 99.3568 125.872C99.0954 125.872 98.8248 125.849 98.5448 125.802C98.4608 125.886 98.4048 125.951 98.3768 125.998C98.3488 126.045 98.3348 126.101 98.3348 126.166C98.3348 126.334 98.4468 126.451 98.6708 126.516C98.8948 126.581 99.2494 126.647 99.7348 126.712C100.285 126.777 100.743 126.857 101.107 126.95C101.48 127.043 101.797 127.207 102.059 127.44C102.329 127.673 102.465 128.005 102.465 128.434C102.465 128.873 102.325 129.265 102.045 129.61C101.774 129.965 101.396 130.24 100.911 130.436C100.425 130.632 99.8748 130.73 99.2588 130.73C98.4094 130.73 97.7561 130.557 97.2988 130.212C96.8414 129.867 96.6128 129.409 96.6128 128.84C96.9021 128.439 97.2894 128.089 97.7748 127.79V127.72C97.4574 127.608 97.2101 127.454 97.0328 127.258C96.8554 127.053 96.7668 126.782 96.7668 126.446C97.0188 126.138 97.3361 125.853 97.7188 125.592V125.522C97.3828 125.335 97.1261 125.093 96.9488 124.794C96.7808 124.486 96.6968 124.127 96.6968 123.716C96.6968 122.988 96.9488 122.419 97.4528 122.008C97.9568 121.597 98.6428 121.392 99.5108 121.392C100.015 121.392 100.472 121.476 100.883 121.644C101.555 121.523 102.241 121.336 102.941 121.084L103.081 121.21V122.372ZM99.4128 124.752C99.7954 124.752 100.085 124.654 100.281 124.458C100.477 124.262 100.575 123.977 100.575 123.604C100.575 122.895 100.211 122.54 99.4828 122.54C98.6988 122.54 98.3068 122.899 98.3068 123.618C98.3068 123.991 98.4001 124.276 98.5868 124.472C98.7734 124.659 99.0488 124.752 99.4128 124.752ZM100.897 128.77C100.897 128.518 100.761 128.345 100.491 128.252C100.229 128.159 99.8234 128.079 99.2728 128.014L98.7968 127.944C98.5728 128.093 98.4048 128.238 98.2928 128.378C98.1808 128.518 98.1248 128.667 98.1248 128.826C98.1248 129.069 98.2368 129.265 98.4608 129.414C98.6848 129.563 99.0114 129.638 99.4408 129.638C99.8794 129.638 100.229 129.559 100.491 129.4C100.761 129.251 100.897 129.041 100.897 128.77ZM105.643 125.13L105.741 128H103.879L103.977 125.298L103.893 118.312L105.755 118.172L105.643 125.13ZM107.626 125.312L107.556 121.616L109.39 121.462L109.306 125.13L109.39 128H107.528L107.626 125.312ZM108.508 118.298C108.798 118.298 109.022 118.382 109.18 118.55C109.348 118.718 109.432 118.951 109.432 119.25C109.432 119.567 109.344 119.819 109.166 120.006C108.989 120.193 108.746 120.286 108.438 120.286C108.13 120.286 107.892 120.202 107.724 120.034C107.566 119.866 107.486 119.628 107.486 119.32C107.486 119.012 107.575 118.765 107.752 118.578C107.939 118.391 108.191 118.298 108.508 118.298ZM113.825 121.364C114.133 121.364 114.436 121.397 114.735 121.462C115.043 121.518 115.314 121.602 115.547 121.714L115.239 123.198L115.085 123.268C114.609 123.007 114.184 122.876 113.811 122.876C113.382 122.876 113.05 123.03 112.817 123.338C112.584 123.646 112.467 124.085 112.467 124.654C112.467 125.307 112.593 125.807 112.845 126.152C113.097 126.497 113.456 126.67 113.923 126.67C114.343 126.67 114.81 126.553 115.323 126.32L115.463 126.432L115.281 127.874C114.721 128.051 114.147 128.14 113.559 128.14C112.663 128.14 111.963 127.851 111.459 127.272C110.955 126.684 110.703 125.867 110.703 124.822C110.703 123.739 110.978 122.895 111.529 122.288C112.08 121.672 112.845 121.364 113.825 121.364ZM121.578 124.976L117.798 125.004C117.882 126.171 118.474 126.754 119.576 126.754C120.154 126.754 120.798 126.591 121.508 126.264L121.662 126.362L121.382 127.748C120.672 128.009 120.005 128.14 119.38 128.14C118.353 128.14 117.546 127.841 116.958 127.244C116.379 126.647 116.09 125.821 116.09 124.766C116.09 123.721 116.374 122.895 116.944 122.288C117.513 121.672 118.283 121.364 119.254 121.364C120.084 121.364 120.724 121.593 121.172 122.05C121.629 122.498 121.858 123.128 121.858 123.94C121.858 124.155 121.834 124.425 121.788 124.752L121.578 124.976ZM120.234 123.73C120.234 123.357 120.15 123.077 119.982 122.89C119.814 122.694 119.566 122.596 119.24 122.596C118.876 122.596 118.572 122.717 118.33 122.96C118.087 123.193 117.924 123.534 117.84 123.982L120.206 123.926L120.234 123.73ZM130.939 128L131.051 123.94C131.051 123.249 130.757 122.904 130.169 122.904C129.749 122.904 129.31 123.091 128.853 123.464L128.811 125.144L128.895 128H127.033L127.145 123.94C127.154 123.604 127.08 123.347 126.921 123.17C126.772 122.993 126.552 122.904 126.263 122.904C125.852 122.904 125.4 123.1 124.905 123.492V125.13L124.989 128H123.141L123.239 125.312L123.169 121.616L124.919 121.462V122.414H125.017C125.53 121.947 126.095 121.611 126.711 121.406C127.756 121.406 128.424 121.756 128.713 122.456H128.797C129.329 121.961 129.936 121.611 130.617 121.406C131.326 121.406 131.863 121.569 132.227 121.896C132.6 122.213 132.778 122.675 132.759 123.282L132.717 125.144L132.801 128H130.939ZM134.56 125.312L134.49 121.616L136.324 121.462L136.24 125.13L136.324 128H134.462L134.56 125.312ZM135.442 118.298C135.731 118.298 135.955 118.382 136.114 118.55C136.282 118.718 136.366 118.951 136.366 119.25C136.366 119.567 136.277 119.819 136.1 120.006C135.923 120.193 135.68 120.286 135.372 120.286C135.064 120.286 134.826 120.202 134.658 120.034C134.499 119.866 134.42 119.628 134.42 119.32C134.42 119.012 134.509 118.765 134.686 118.578C134.873 118.391 135.125 118.298 135.442 118.298ZM140.646 121.364C141.365 121.364 141.925 121.527 142.326 121.854C142.737 122.171 142.942 122.619 142.942 123.198C142.942 123.366 142.914 123.898 142.858 124.794C142.849 125.055 142.835 125.326 142.816 125.606C142.798 125.877 142.788 126.11 142.788 126.306C142.788 126.465 142.812 126.577 142.858 126.642C142.905 126.698 142.989 126.726 143.11 126.726C143.204 126.726 143.325 126.707 143.474 126.67L143.614 126.782L143.446 127.762C143.148 127.958 142.807 128.075 142.424 128.112C142.144 128.084 141.911 127.986 141.724 127.818C141.538 127.641 141.412 127.398 141.346 127.09H141.248C140.782 127.585 140.301 127.93 139.806 128.126C139.134 128.117 138.607 127.939 138.224 127.594C137.842 127.249 137.65 126.777 137.65 126.18C137.65 125.713 137.767 125.349 138 125.088C138.243 124.817 138.607 124.635 139.092 124.542L141.234 124.136V123.562C141.234 122.955 140.936 122.652 140.338 122.652C140.049 122.652 139.741 122.717 139.414 122.848C139.097 122.979 138.738 123.184 138.336 123.464L138.196 123.38L137.986 122.148C138.388 121.896 138.817 121.705 139.274 121.574C139.732 121.434 140.189 121.364 140.646 121.364ZM139.736 125.396C139.587 125.433 139.475 125.499 139.4 125.592C139.335 125.676 139.302 125.807 139.302 125.984C139.302 126.227 139.368 126.418 139.498 126.558C139.629 126.689 139.811 126.754 140.044 126.754C140.408 126.754 140.791 126.539 141.192 126.11L141.22 125.074L139.736 125.396ZM50.2975 142.628C50.5962 142.628 50.9089 142.549 51.2355 142.39L51.3895 142.53L51.2075 143.636C50.7315 143.879 50.2462 144.028 49.7515 144.084C48.4915 143.953 47.8615 143.337 47.8615 142.236L47.9315 141.074L47.9175 138.666H47.0495L46.9795 138.568L47.0775 137.546H47.9035V136.468L49.5975 135.922L49.7235 136.034L49.6815 137.546H51.3475L51.4035 137.644L51.3195 138.666H49.6535L49.5695 141.802C49.5695 142.101 49.6255 142.315 49.7375 142.446C49.8495 142.567 50.0362 142.628 50.2975 142.628ZM54.958 137.364C55.6767 137.364 56.2367 137.527 56.638 137.854C57.0487 138.171 57.254 138.619 57.254 139.198C57.254 139.366 57.226 139.898 57.17 140.794C57.1607 141.055 57.1467 141.326 57.128 141.606C57.1093 141.877 57.1 142.11 57.1 142.306C57.1 142.465 57.1233 142.577 57.17 142.642C57.2167 142.698 57.3007 142.726 57.422 142.726C57.5153 142.726 57.6367 142.707 57.786 142.67L57.926 142.782L57.758 143.762C57.4593 143.958 57.1187 144.075 56.736 144.112C56.456 144.084 56.2227 143.986 56.036 143.818C55.8493 143.641 55.7233 143.398 55.658 143.09H55.56C55.0933 143.585 54.6127 143.93 54.118 144.126C53.446 144.117 52.9187 143.939 52.536 143.594C52.1533 143.249 51.962 142.777 51.962 142.18C51.962 141.713 52.0787 141.349 52.312 141.088C52.5547 140.817 52.9187 140.635 53.404 140.542L55.546 140.136V139.562C55.546 138.955 55.2473 138.652 54.65 138.652C54.3607 138.652 54.0527 138.717 53.726 138.848C53.4087 138.979 53.0493 139.184 52.648 139.464L52.508 139.38L52.298 138.148C52.6993 137.896 53.1287 137.705 53.586 137.574C54.0433 137.434 54.5007 137.364 54.958 137.364ZM54.048 141.396C53.8987 141.433 53.7867 141.499 53.712 141.592C53.6467 141.676 53.614 141.807 53.614 141.984C53.614 142.227 53.6793 142.418 53.81 142.558C53.9407 142.689 54.1227 142.754 54.356 142.754C54.72 142.754 55.1027 142.539 55.504 142.11L55.532 141.074L54.048 141.396ZM62.6522 137.476C62.7362 137.476 62.8529 137.485 63.0022 137.504V139.226L62.8062 139.296C62.6475 139.231 62.4749 139.198 62.2882 139.198C61.7469 139.198 61.2569 139.548 60.8182 140.248V141.13L60.9162 144H59.0542L59.1662 141.312L59.0822 137.616L60.8462 137.462L60.8322 138.736H60.9442C61.4015 137.896 61.9709 137.476 62.6522 137.476ZM69.3534 141.13L69.3954 142.306C69.3954 142.465 69.414 142.577 69.4514 142.642C69.498 142.698 69.5774 142.726 69.6894 142.726C69.792 142.726 69.918 142.707 70.0674 142.67L70.1934 142.782L70.0394 143.762C69.722 143.958 69.3767 144.075 69.0034 144.112C68.714 144.084 68.4714 143.986 68.2754 143.818C68.0794 143.65 67.944 143.421 67.8694 143.132H67.7574C67.3 143.552 66.8334 143.874 66.3574 144.098C65.4427 144.098 64.7334 143.809 64.2294 143.23C63.7254 142.642 63.4734 141.83 63.4734 140.794C63.4734 139.693 63.7627 138.848 64.3414 138.26C64.92 137.672 65.7227 137.378 66.7494 137.378C67.02 137.378 67.3187 137.406 67.6454 137.462L67.6174 134.312L69.4654 134.172L69.3534 141.13ZM66.6234 138.638C65.69 138.638 65.2234 139.231 65.2234 140.416C65.2234 141.153 65.3354 141.709 65.5594 142.082C65.7834 142.455 66.11 142.642 66.5394 142.642C66.95 142.642 67.328 142.451 67.6734 142.068L67.7014 141.298L67.6594 138.89C67.2954 138.722 66.95 138.638 66.6234 138.638ZM71.4165 141.312L71.3465 137.616L73.1805 137.462L73.0965 141.13L73.1805 144H71.3185L71.4165 141.312ZM72.2985 134.298C72.5879 134.298 72.8119 134.382 72.9705 134.55C73.1385 134.718 73.2225 134.951 73.2225 135.25C73.2225 135.567 73.1339 135.819 72.9565 136.006C72.7792 136.193 72.5365 136.286 72.2285 136.286C71.9205 136.286 71.6825 136.202 71.5145 136.034C71.3559 135.866 71.2765 135.628 71.2765 135.32C71.2765 135.012 71.3652 134.765 71.5425 134.578C71.7292 134.391 71.9812 134.298 72.2985 134.298ZM77.5029 137.364C78.2216 137.364 78.7816 137.527 79.1829 137.854C79.5936 138.171 79.7989 138.619 79.7989 139.198C79.7989 139.366 79.7709 139.898 79.7149 140.794C79.7056 141.055 79.6916 141.326 79.6729 141.606C79.6542 141.877 79.6449 142.11 79.6449 142.306C79.6449 142.465 79.6682 142.577 79.7149 142.642C79.7616 142.698 79.8456 142.726 79.9669 142.726C80.0602 142.726 80.1816 142.707 80.3309 142.67L80.4709 142.782L80.3029 143.762C80.0042 143.958 79.6636 144.075 79.2809 144.112C79.0009 144.084 78.7676 143.986 78.5809 143.818C78.3942 143.641 78.2682 143.398 78.2029 143.09H78.1049C77.6382 143.585 77.1576 143.93 76.6629 144.126C75.9909 144.117 75.4636 143.939 75.0809 143.594C74.6982 143.249 74.5069 142.777 74.5069 142.18C74.5069 141.713 74.6236 141.349 74.8569 141.088C75.0996 140.817 75.4636 140.635 75.9489 140.542L78.0909 140.136V139.562C78.0909 138.955 77.7922 138.652 77.1949 138.652C76.9056 138.652 76.5976 138.717 76.2709 138.848C75.9536 138.979 75.5942 139.184 75.1929 139.464L75.0529 139.38L74.8429 138.148C75.2442 137.896 75.6736 137.705 76.1309 137.574C76.5882 137.434 77.0456 137.364 77.5029 137.364ZM76.5929 141.396C76.4436 141.433 76.3316 141.499 76.2569 141.592C76.1916 141.676 76.1589 141.807 76.1589 141.984C76.1589 142.227 76.2242 142.418 76.3549 142.558C76.4856 142.689 76.6676 142.754 76.9009 142.754C77.2649 142.754 77.6476 142.539 78.0489 142.11L78.0769 141.074L76.5929 141.396ZM89.3971 144L89.5091 139.94C89.5091 139.249 89.2151 138.904 88.6271 138.904C88.2071 138.904 87.7685 139.091 87.3111 139.464L87.2691 141.144L87.3531 144H85.4911L85.6031 139.94C85.6125 139.604 85.5378 139.347 85.3791 139.17C85.2298 138.993 85.0105 138.904 84.7211 138.904C84.3105 138.904 83.8578 139.1 83.3631 139.492V141.13L83.4471 144H81.5991L81.6971 141.312L81.6271 137.616L83.3771 137.462V138.414H83.4751C83.9885 137.947 84.5531 137.611 85.1691 137.406C86.2145 137.406 86.8818 137.756 87.1711 138.456H87.2551C87.7871 137.961 88.3938 137.611 89.0751 137.406C89.7845 137.406 90.3211 137.569 90.6851 137.896C91.0585 138.213 91.2358 138.675 91.2171 139.282L91.1751 141.144L91.2591 144H89.3971ZM97.9321 140.976L94.1521 141.004C94.2361 142.171 94.8288 142.754 95.9301 142.754C96.5088 142.754 97.1528 142.591 97.8621 142.264L98.0161 142.362L97.7361 143.748C97.0268 144.009 96.3594 144.14 95.7341 144.14C94.7074 144.14 93.9001 143.841 93.3121 143.244C92.7334 142.647 92.4441 141.821 92.4441 140.766C92.4441 139.721 92.7288 138.895 93.2981 138.288C93.8674 137.672 94.6374 137.364 95.6081 137.364C96.4388 137.364 97.0781 137.593 97.5261 138.05C97.9834 138.498 98.2121 139.128 98.2121 139.94C98.2121 140.155 98.1888 140.425 98.1421 140.752L97.9321 140.976ZM96.5881 139.73C96.5881 139.357 96.5041 139.077 96.3361 138.89C96.1681 138.694 95.9208 138.596 95.5941 138.596C95.2301 138.596 94.9268 138.717 94.6841 138.96C94.4414 139.193 94.2781 139.534 94.1941 139.982L96.5601 139.926L96.5881 139.73ZM103.5 139.94C103.509 139.613 103.434 139.361 103.276 139.184C103.126 138.997 102.907 138.904 102.618 138.904C102.198 138.904 101.75 139.105 101.274 139.506V141.13L101.358 144H99.4956L99.5936 141.312L99.5236 137.616L101.288 137.462V138.414H101.386C101.899 137.947 102.459 137.611 103.066 137.406C103.775 137.406 104.316 137.569 104.69 137.896C105.063 138.213 105.24 138.675 105.222 139.282L105.18 141.144L105.264 144H103.388L103.5 139.94ZM109.538 142.628C109.836 142.628 110.149 142.549 110.476 142.39L110.63 142.53L110.448 143.636C109.972 143.879 109.486 144.028 108.992 144.084C107.732 143.953 107.102 143.337 107.102 142.236L107.172 141.074L107.158 138.666H106.29L106.22 138.568L106.318 137.546H107.144V136.468L108.838 135.922L108.964 136.034L108.922 137.546H110.588L110.644 137.644L110.56 138.666H108.894L108.81 141.802C108.81 142.101 108.866 142.315 108.978 142.446C109.09 142.567 109.276 142.628 109.538 142.628ZM116.581 140.976L112.801 141.004C112.885 142.171 113.477 142.754 114.579 142.754C115.157 142.754 115.801 142.591 116.511 142.264L116.665 142.362L116.385 143.748C115.675 144.009 115.008 144.14 114.383 144.14C113.356 144.14 112.549 143.841 111.961 143.244C111.382 142.647 111.093 141.821 111.093 140.766C111.093 139.721 111.377 138.895 111.947 138.288C112.516 137.672 113.286 137.364 114.257 137.364C115.087 137.364 115.727 137.593 116.175 138.05C116.632 138.498 116.861 139.128 116.861 139.94C116.861 140.155 116.837 140.425 116.791 140.752L116.581 140.976ZM115.237 139.73C115.237 139.357 115.153 139.077 114.985 138.89C114.817 138.694 114.569 138.596 114.243 138.596C113.879 138.596 113.575 138.717 113.333 138.96C113.09 139.193 112.927 139.534 112.843 139.982L115.209 139.926L115.237 139.73ZM118.627 142.11C118.917 142.11 119.141 142.194 119.299 142.362C119.467 142.53 119.551 142.763 119.551 143.062C119.551 143.379 119.463 143.631 119.285 143.818C119.108 144.005 118.865 144.098 118.557 144.098C118.249 144.098 118.011 144.014 117.843 143.846C117.685 143.678 117.605 143.44 117.605 143.132C117.605 142.824 117.694 142.577 117.871 142.39C118.058 142.203 118.31 142.11 118.627 142.11Z" fill="white"/>
<defs>
<filter id="filter0_b_152:11539" x="3" y="67" width="161" height="97" filterUnits="userSpaceOnUse" color-interpolation-filters="sRGB">
<feFlood flood-opacity="0" result="BackgroundImageFix"/>
<feGaussianBlur in="BackgroundImage" stdDeviation="5"/>
<feComposite in2="SourceAlpha" operator="in" result="effect1_backgroundBlur_152:11539"/>
<feBlend mode="normal" in="SourceGraphic" in2="effect1_backgroundBlur_152:11539" result="shape"/>
</filter>
</defs>
</svg>
