<svg width="167" height="167" viewBox="0 0 167 167" fill="none" xmlns="http://www.w3.org/2000/svg">
<mask id="mask0_206:36649" style="mask-type:alpha" maskUnits="userSpaceOnUse" x="0" y="0" width="167" height="167">
<rect x="1" y="1" width="165" height="165" rx="8" fill="#5988D6" stroke="#EDE6FC" stroke-opacity="0.3"/>
</mask>
<g mask="url(#mask0_206:36649)">
<rect x="1" y="1" width="165" height="165" rx="8" fill="#D9917A" stroke="#EDE6FC" stroke-opacity="0.3"/>
<path d="M77.7389 18.8028C77.7389 18.8028 76.1598 12.4892 80.0576 9.30062C83.9555 6.11202 88.2837 7.24257 90.4448 9.30062C92.6059 11.3587 95.2732 15.5263 92.7908 21.4458C90.3084 27.3653 89.7598 25.962 90.8722 30.3236C91.9845 34.6851 93.3182 37.6979 91.1207 39.6832C88.9233 41.6685 85.5195 41.1351 85.1982 38.6557C84.8769 36.1764 84.592 27.3471 84.3646 26.0529C84.1373 24.7587 77.7389 18.8028 77.7389 18.8028Z" fill="#1C4154"/>
<path d="M86.3227 29.3657C86.3227 29.3657 90.8389 31.1176 92.4878 31.3328C94.1366 31.548 93.5304 36.434 93.5304 36.434C93.5304 36.434 94.7094 39.8136 94.6276 42.0201C94.5155 44.9905 93.1121 45.7876 93.0182 45.9998C92.9242 46.212 91.6906 53.2287 91.5845 54.4502C91.4784 55.6717 91.927 57.2387 92.1907 58.248C92.4938 59.3846 93.5122 63.5583 93.5122 63.5583C93.5122 63.5583 85.2012 66.071 72.659 63.7856C72.659 63.7856 73.4774 60.5455 73.7714 58.9361C73.932 58.0692 74.4048 56.4082 74.1927 54.8139C73.9805 53.2196 72.2256 46.5211 72.1741 45.8846C72.1225 45.2481 68.6672 41.7382 71.7497 37.5403C71.7497 37.5403 72.5469 33.1817 72.759 32.0148C72.759 32.0148 78.1269 29.5688 79.5606 29.3566C80.9942 29.1445 86.3227 29.3657 86.3227 29.3657Z" fill="#EEA886"/>
<path d="M92.4877 31.3389C92.4877 31.3389 94.667 31.4026 96.3007 32.5998C97.9344 33.7971 99.0498 38.6618 99.3317 39.4559C99.6136 40.25 102.642 45.2754 103.16 46.8697C103.678 48.464 103.957 49.4612 104.196 49.3794C104.436 49.2975 107.618 44.3116 108.103 43.1022C108.649 41.7322 110.813 35.749 110.813 35.749L113.117 40.0348L113.271 40.3925C113.271 40.3925 111.053 46.3908 110.374 48.5428C109.695 50.6948 108.103 55.7566 107.343 56.4234C106.582 57.0902 103.675 58.0571 102.12 56.8204C100.565 55.5838 96.9402 49.8067 96.0218 47.8548C95.1035 45.9028 93.3122 42.7506 93.3122 42.7506C93.3122 42.7506 90.4297 33.3848 92.4877 31.3389Z" fill="#EEA886"/>
<path d="M72.7712 32.03C72.7712 32.03 70.4706 32.0027 69.3977 32.9575C68.3247 33.9122 66.2879 36.2279 65.809 38.2587C65.3301 40.2894 65.0512 43.96 64.4147 45.9513C63.7782 47.9427 61.9899 53.0863 61.0806 54.9594C60.1713 56.8326 59.3257 64.6586 58.768 66.5196C58.2103 68.3806 56.1644 74.6366 56.1644 74.6366L59.4075 76.2854C59.4075 76.2854 65.9848 61.8549 66.6213 59.6635C67.2578 57.4721 67.379 54.8139 67.9761 53.1681C68.5732 51.5223 71.2041 45.527 71.6133 44.3782C72.0225 43.2295 76.4629 32.5331 72.7712 32.03Z" fill="#EEA886"/>
<path d="M72.3286 64.7344C72.3286 64.7344 71.2011 67.0652 70.4585 68.6747C69.7159 70.2841 66.9213 77.025 65.8029 81.7079C64.6845 86.3908 62.2263 94.5896 61.9081 96.9356C61.5898 99.2816 60.4774 102.816 59.3923 104.695C58.3073 106.574 55.8158 112.109 55.3702 115.703C54.9247 119.298 52.1271 135.135 52.1271 135.135C52.1271 135.135 53.7214 136.651 56.6736 134.832C56.6736 134.832 62.2021 120.004 63.4933 117.859C64.7845 115.713 66.791 110.048 67.0729 107.962C67.3547 105.877 69.4401 103.625 71.3466 98.8481C73.2531 94.0713 80.9972 80.3985 82.0823 77.5888C82.0823 77.5888 82.4551 76.4491 83.5311 76.8098L83.1189 64.7344H72.3286Z" fill="#285173"/>
<path d="M93.8335 64.5586C93.8335 64.5586 95.0459 67.0652 95.7885 68.6626C96.5311 70.2599 99.65 77.2675 100.768 81.9383C101.887 86.609 104.018 94.5684 104.336 96.9144C104.654 99.2604 105.77 102.795 106.852 104.674C107.934 106.553 110.431 112.088 110.877 115.682C111.322 119.277 114.12 135.114 114.12 135.114C114.12 135.114 112.526 136.629 109.558 134.811C109.558 134.811 104.027 119.983 102.739 117.837C101.45 115.691 99.4409 110.026 99.156 107.941C98.871 105.856 96.7918 103.604 94.8822 98.827C92.9727 94.0501 85.2346 80.3773 84.1495 77.5676C84.1175 77.405 84.0484 77.252 83.9475 77.1205C83.8467 76.9891 83.7169 76.8826 83.5681 76.8096C83.4194 76.7365 83.2558 76.6988 83.09 76.6994C82.9243 76.7 82.761 76.7388 82.6128 76.8129L72.262 64.8738L93.8335 64.5586Z" fill="#285173"/>
<path d="M79.1726 11.7284C79.1726 11.7284 76.6205 15.7687 78.2148 21.4064C79.8091 27.044 82.0945 27.4017 83.9737 26.8318C86.2591 26.1377 88.4474 21.3761 88.8233 19.2544C89.1991 17.1327 90.6146 12.0164 85.1255 11.3738C82.6189 11.0555 80.0577 11.1434 79.1726 11.7284Z" fill="#EEA886"/>
<path d="M85.8711 25.1981C85.8711 25.1981 85.8286 31.3298 86.6682 33.0393C87.5078 34.7488 79.0908 33.691 79.0908 33.691C79.0908 33.691 80.1243 26.7621 79.7515 25.1011C79.3787 23.4402 85.8711 25.1981 85.8711 25.1981Z" fill="#EEA886"/>
<path d="M77.6904 17.7025C77.6904 17.7025 79.7758 12.8105 81.8308 12.9863C81.8308 12.9863 85.8438 18.2178 89.3688 20.2455C89.3688 20.2455 93.7092 13.1288 83.4978 10.0432C83.4978 10.0432 77.3085 7.59721 77.6904 17.7025Z" fill="#1C4154"/>
<path d="M80.1667 25.6589C80.1667 25.6589 81.5065 27.2744 82.9765 27.0198C83.812 26.8935 84.6016 26.5566 85.2709 26.0408C85.2709 26.0408 84.595 27.6472 82.8158 27.6472C81.2852 27.6472 80.1667 25.6589 80.1667 25.6589Z" fill="#A77860"/>
<path d="M90.266 30.7691C90.266 30.7691 92.8878 35.0337 93.5304 36.4401C93.5304 36.4401 96.9797 42.9627 93.0182 46.0059C92.7551 48.1041 92.3827 50.1872 91.9028 52.2467C91.9028 52.2467 83.1765 50.4584 73.735 52.5316C73.735 52.5316 72.1862 46.6848 72.1862 45.8998C72.1862 45.8998 68.4672 41.3533 71.7619 37.5555C71.7619 37.5555 74.6898 31.6268 74.9323 31.0782C74.9323 31.0782 81.6035 26.8227 90.266 30.7691Z" fill="#EB4747"/>
<path d="M123.537 34.0122C123.537 37.5373 121.061 40.3925 118.009 40.3925C114.956 40.3925 112.483 37.5373 112.483 34.0122C112.483 30.4872 114.956 27.6472 118.009 27.6472C121.061 27.6472 123.537 30.4902 123.537 34.0122Z" fill="#D1C0BA"/>
<path d="M120.558 34.4215C120.558 36.1885 119.315 37.6222 117.781 37.6222C116.248 37.6222 115.008 36.1885 115.008 34.4215C115.008 32.6544 116.251 31.2177 117.781 31.2177C119.312 31.2177 120.558 32.6514 120.558 34.4215Z" fill="#948884"/>
<path d="M113.268 40.3925C113.268 40.3925 115.102 38.1677 116.19 37.4767C117.278 36.7856 118.397 35.7763 118.263 34.7124C118.13 33.6485 117.014 31.151 116.323 31.0752C115.632 30.9995 113.056 31.8451 113.056 31.8451L110.807 35.749L113.268 40.3925Z" fill="#EEA886"/>
<path d="M115.817 33.4091C115.817 36.9311 113.344 39.7742 110.292 39.7742C107.24 39.7742 104.763 36.919 104.763 33.4091C104.763 29.8992 107.24 27.044 110.292 27.044C113.344 27.044 115.817 29.8871 115.817 33.4091Z" fill="#EDDAD3"/>
<path d="M112.929 33.4091C112.929 35.3065 111.598 36.8432 109.952 36.8432C108.306 36.8432 106.976 35.3065 106.976 33.4091C106.976 31.5117 108.309 29.975 109.952 29.975C111.595 29.975 112.929 31.5147 112.929 33.4091Z" fill="#CCBBB5"/>
<path d="M78.1754 29.7325C78.1754 29.7325 73.6289 39.7742 82.3097 40.053C90.9904 40.3319 87.6352 30.657 87.3957 29.7234C87.3957 29.7234 83.7979 27.4805 78.1754 29.7325Z" fill="#EEA886"/>
<path d="M57.1585 133.526C56.8311 133.792 56.4121 133.92 55.9916 133.88C55.3127 133.801 53.3213 132.971 52.4423 133.323C51.5633 133.674 51.0875 137.587 49.3749 138.545C47.6624 139.503 42.5189 142.485 42.7977 145.04C43.0766 147.595 50.0115 146.917 51.8058 144.804C53.6001 142.691 55.1399 143.728 56.5887 142.252C58.0375 140.776 56.9524 134.993 57.1585 133.526Z" fill="#CCBBB5"/>
<path d="M109.058 133.495C109.396 133.778 109.831 133.917 110.271 133.88C110.946 133.801 112.941 132.971 113.817 133.323C114.693 133.674 115.172 137.587 116.884 138.545C118.597 139.503 123.74 142.485 123.461 145.04C123.183 147.595 116.248 146.917 114.453 144.804C112.659 142.691 111.119 143.728 109.67 142.252C108.222 140.776 109.292 134.962 109.058 133.495Z" fill="#CCBBB5"/>
<path d="M72.6712 63.7918C72.6712 63.7918 82.1793 63.9979 93.5243 63.5645L94.0214 64.9557C94.0214 64.9557 85.6347 66.55 72.1377 65.1315L72.6712 63.7918Z" fill="#3B78AB"/>
<path d="M56.9615 73.3484C56.5812 73.7397 56.2733 74.1953 56.0522 74.6941C55.8764 75.2034 55.249 75.8884 54.955 76.2794C54.661 76.6704 53.5729 78.4829 53.4395 78.983C53.3789 79.1861 53.5153 80.5803 53.3486 80.9804C53.1819 81.3805 52.7424 82.1595 53.097 82.2898C53.4516 82.4201 54.0427 81.8291 54.0427 81.8291C54.0076 81.9312 54.0033 82.0413 54.0303 82.1458C54.0572 82.2503 54.1142 82.3447 54.1942 82.4171C54.7337 82.8233 55.1217 82.6384 55.1217 82.6384C55.1217 82.6384 55.2429 83.1051 55.5127 83.2203C55.6596 83.2972 55.8209 83.3426 55.9864 83.3536C56.1518 83.3645 56.3178 83.3408 56.4735 83.284C56.6409 83.4795 56.8715 83.6103 57.1252 83.6537C57.2923 83.6795 57.4632 83.6628 57.6221 83.605C57.781 83.5473 57.9229 83.4504 58.0345 83.3234C58.0345 83.3234 58.6983 83.6083 58.9832 83.3234C59.2681 83.0385 59.3196 82.6808 59.4772 82.4141C59.6348 82.1473 60.3562 79.4346 59.9288 77.322C59.5015 75.2094 60.7048 73.4393 60.7048 73.4393L56.9615 73.3484Z" fill="#EEA886"/>
<path d="M51.8342 78.5962L51.3858 80.4554L61.5159 82.8987L61.9643 81.0395L51.8342 78.5962Z" fill="#D1C0BA"/>
<path d="M53.9942 81.5593C53.9942 81.5593 54.5276 79.1345 55.2854 78.7587C56.0431 78.3829 55.8916 79.2588 55.8916 79.2588C55.8916 79.2588 56.0189 78.3829 56.7372 78.4071C57.4556 78.4314 57.2313 79.4558 57.2313 79.4558C57.2704 79.3678 57.3269 79.2885 57.3973 79.2227C57.4677 79.1569 57.5506 79.106 57.641 79.0729C57.7315 79.0398 57.8278 79.0253 57.924 79.0301C58.0203 79.035 58.1145 79.0592 58.2012 79.1012C58.8892 79.3831 58.5043 80.1924 58.5043 80.1924C58.5043 80.1924 59.4136 79.5043 59.653 80.3894C60.0774 81.8867 58.9559 83.3203 58.9559 83.3203C58.9559 83.3203 58.6528 83.6416 58.0072 83.3203C58.0072 83.3203 57.3131 84.1569 56.4493 83.2809C56.4493 83.2809 55.2369 83.6477 55.0975 82.6353C55.1065 82.6384 53.8033 82.9566 53.9942 81.5593Z" fill="#DB9C7C"/>
<path d="M50.7419 85.8634L49.5962 85.6027C49.3642 85.5478 49.163 85.4039 49.036 85.2021C48.909 85.0003 48.8664 84.7566 48.9173 84.5237L51.3421 73.8395C51.397 73.6074 51.5408 73.4062 51.7427 73.2792C51.9445 73.1522 52.1881 73.1096 52.4211 73.1605L53.5638 73.4212C53.7958 73.4761 53.997 73.6199 54.124 73.8218C54.251 74.0236 54.2936 74.2672 54.2427 74.5002L51.8179 85.1844C51.763 85.4158 51.6196 85.6165 51.4184 85.7434C51.2173 85.8704 50.9744 85.9134 50.7419 85.8634Z" fill="#EDDAD3"/>
<path d="M63.7152 75.8523L62.5686 75.5909C62.0839 75.4804 61.6014 75.7838 61.4909 76.2686L59.0552 86.9545C58.9447 87.4393 59.2481 87.9218 59.7329 88.0323L60.8795 88.2936C61.3642 88.4041 61.8467 88.1007 61.9572 87.616L64.3929 76.93C64.5033 76.4453 64.2 75.9628 63.7152 75.8523Z" fill="#EDDAD3"/>
</g>
<g filter="url(#filter0_b_206:36649)">
<rect x="13" y="77" width="141" height="77" rx="10" fill="black" fill-opacity="0.8"/>
</g>
<path d="M44.5964 104H42.9164L42.7764 101.27L42.4544 97.798H42.3144L40.2984 103.048H38.8284L36.9944 97.798H36.8684L36.5184 101.088L36.3224 104H34.7264L35.6364 94.984H37.8204L38.1844 96.314L39.6124 100.584H39.7384L41.2364 96.314L41.6424 94.984H43.7844L44.5964 104ZM50.9419 100.976L47.1619 101.004C47.2459 102.171 47.8385 102.754 48.9399 102.754C49.5185 102.754 50.1625 102.591 50.8719 102.264L51.0259 102.362L50.7459 103.748C50.0365 104.009 49.3692 104.14 48.7439 104.14C47.7172 104.14 46.9099 103.841 46.3219 103.244C45.7432 102.647 45.4539 101.821 45.4539 100.766C45.4539 99.7207 45.7385 98.8947 46.3079 98.288C46.8772 97.672 47.6472 97.364 48.6179 97.364C49.4485 97.364 50.0879 97.5927 50.5359 98.05C50.9932 98.498 51.2219 99.128 51.2219 99.94C51.2219 100.155 51.1985 100.425 51.1519 100.752L50.9419 100.976ZM49.5979 99.73C49.5979 99.3567 49.5139 99.0767 49.3459 98.89C49.1779 98.694 48.9305 98.596 48.6039 98.596C48.2399 98.596 47.9365 98.7173 47.6939 98.96C47.4512 99.1933 47.2879 99.534 47.2039 99.982L49.5699 99.926L49.5979 99.73ZM54.2707 101.13L54.3687 104H52.5067L52.6047 101.298L52.5207 94.312L54.3827 94.172L54.2707 101.13ZM60.1884 99.94C60.1977 99.604 60.1277 99.3473 59.9784 99.17C59.8291 98.9927 59.6097 98.904 59.3204 98.904C58.9004 98.904 58.4524 99.1047 57.9764 99.506L57.9484 101.13L58.0464 104H56.1844L56.2824 101.298L56.1984 94.312L58.0604 94.172L57.9904 98.414H58.0744C58.5877 97.9473 59.1524 97.6113 59.7684 97.406C60.4777 97.406 61.0144 97.5693 61.3784 97.896C61.7517 98.2133 61.9337 98.6753 61.9244 99.282L61.8824 101.144L61.9524 104H60.0904L60.1884 99.94ZM66.2953 97.364C67.2473 97.364 67.9753 97.644 68.4793 98.204C68.9833 98.764 69.2353 99.5713 69.2353 100.626C69.2353 101.765 68.9646 102.637 68.4233 103.244C67.8819 103.841 67.1026 104.14 66.0853 104.14C65.1333 104.14 64.4053 103.86 63.9013 103.3C63.3973 102.74 63.1453 101.933 63.1453 100.878C63.1453 99.7393 63.4159 98.8713 63.9573 98.274C64.4986 97.6673 65.2779 97.364 66.2953 97.364ZM66.1693 98.624C65.7213 98.624 65.3946 98.7733 65.1893 99.072C64.9933 99.3707 64.8953 99.8513 64.8953 100.514C64.8953 101.373 64.9979 101.984 65.2033 102.348C65.4086 102.712 65.7446 102.894 66.2113 102.894C66.6593 102.894 66.9813 102.749 67.1773 102.46C67.3826 102.161 67.4853 101.676 67.4853 101.004C67.4853 100.155 67.3779 99.548 67.1633 99.184C66.9579 98.8107 66.6266 98.624 66.1693 98.624ZM74.0272 97.476C74.1112 97.476 74.2279 97.4853 74.3772 97.504V99.226L74.1812 99.296C74.0225 99.2307 73.8499 99.198 73.6632 99.198C73.1219 99.198 72.6319 99.548 72.1932 100.248V101.13L72.2912 104H70.4292L70.5412 101.312L70.4572 97.616L72.2212 97.462L72.2072 98.736H72.3192C72.7765 97.896 73.3459 97.476 74.0272 97.476ZM77.7217 97.364C78.4403 97.364 79.0003 97.5273 79.4017 97.854C79.8123 98.1713 80.0177 98.6193 80.0177 99.198C80.0177 99.366 79.9897 99.898 79.9337 100.794C79.9243 101.055 79.9103 101.326 79.8917 101.606C79.873 101.877 79.8637 102.11 79.8637 102.306C79.8637 102.465 79.887 102.577 79.9337 102.642C79.9803 102.698 80.0643 102.726 80.1857 102.726C80.279 102.726 80.4003 102.707 80.5497 102.67L80.6897 102.782L80.5217 103.762C80.223 103.958 79.8823 104.075 79.4997 104.112C79.2197 104.084 78.9863 103.986 78.7997 103.818C78.613 103.641 78.487 103.398 78.4217 103.09H78.3237C77.857 103.585 77.3763 103.93 76.8817 104.126C76.2097 104.117 75.6823 103.939 75.2997 103.594C74.917 103.249 74.7257 102.777 74.7257 102.18C74.7257 101.713 74.8423 101.349 75.0757 101.088C75.3183 100.817 75.6823 100.635 76.1677 100.542L78.3097 100.136V99.562C78.3097 98.9553 78.011 98.652 77.4137 98.652C77.1243 98.652 76.8163 98.7173 76.4897 98.848C76.1723 98.9787 75.813 99.184 75.4117 99.464L75.2717 99.38L75.0617 98.148C75.463 97.896 75.8923 97.7047 76.3497 97.574C76.807 97.434 77.2643 97.364 77.7217 97.364ZM76.8117 101.396C76.6623 101.433 76.5503 101.499 76.4757 101.592C76.4103 101.676 76.3777 101.807 76.3777 101.984C76.3777 102.227 76.443 102.418 76.5737 102.558C76.7043 102.689 76.8863 102.754 77.1197 102.754C77.4837 102.754 77.8663 102.539 78.2677 102.11L78.2957 101.074L76.8117 101.396ZM89.6159 104L89.7279 99.94C89.7279 99.2493 89.4339 98.904 88.8459 98.904C88.4259 98.904 87.9872 99.0907 87.5299 99.464L87.4879 101.144L87.5719 104H85.7099L85.8219 99.94C85.8312 99.604 85.7565 99.3473 85.5979 99.17C85.4485 98.9927 85.2292 98.904 84.9399 98.904C84.5292 98.904 84.0765 99.1 83.5819 99.492V101.13L83.6659 104H81.8179L81.9159 101.312L81.8459 97.616L83.5959 97.462V98.414H83.6939C84.2072 97.9473 84.7719 97.6113 85.3879 97.406C86.4332 97.406 87.1005 97.756 87.3899 98.456H87.4739C88.0059 97.9613 88.6125 97.6113 89.2939 97.406C90.0032 97.406 90.5399 97.5693 90.9039 97.896C91.2772 98.2133 91.4545 98.6753 91.4359 99.282L91.3939 101.144L91.4779 104H89.6159ZM97.932 97.364C98.884 97.364 99.612 97.644 100.116 98.204C100.62 98.764 100.872 99.5713 100.872 100.626C100.872 101.765 100.601 102.637 100.06 103.244C99.5186 103.841 98.7393 104.14 97.722 104.14C96.77 104.14 96.042 103.86 95.538 103.3C95.034 102.74 94.782 101.933 94.782 100.878C94.782 99.7393 95.0526 98.8713 95.594 98.274C96.1353 97.6673 96.9146 97.364 97.932 97.364ZM97.806 98.624C97.358 98.624 97.0313 98.7733 96.826 99.072C96.63 99.3707 96.532 99.8513 96.532 100.514C96.532 101.373 96.6346 101.984 96.84 102.348C97.0453 102.712 97.3813 102.894 97.848 102.894C98.296 102.894 98.618 102.749 98.814 102.46C99.0193 102.161 99.122 101.676 99.122 101.004C99.122 100.155 99.0146 99.548 98.8 99.184C98.5946 98.8107 98.2633 98.624 97.806 98.624ZM107.781 97.406C108.602 97.406 109.228 97.686 109.657 98.246C110.096 98.7967 110.315 99.5667 110.315 100.556C110.315 101.704 110.03 102.591 109.461 103.216C108.892 103.832 108.103 104.14 107.095 104.14C106.619 104.14 106.096 104.033 105.527 103.818L104.547 104.168L104.323 103.986L104.421 101.326L104.337 94.312L106.185 94.172L106.129 98.414H106.213C106.474 98.162 106.726 97.9613 106.969 97.812C107.212 97.6533 107.482 97.518 107.781 97.406ZM107.095 102.922C107.562 102.922 107.926 102.754 108.187 102.418C108.448 102.082 108.579 101.569 108.579 100.878C108.579 100.234 108.472 99.744 108.257 99.408C108.052 99.072 107.739 98.904 107.319 98.904C106.936 98.904 106.535 99.1 106.115 99.492L106.087 101.088L106.115 102.67C106.46 102.838 106.787 102.922 107.095 102.922ZM116.635 100.976L112.855 101.004C112.939 102.171 113.532 102.754 114.633 102.754C115.212 102.754 115.856 102.591 116.565 102.264L116.719 102.362L116.439 103.748C115.73 104.009 115.063 104.14 114.437 104.14C113.411 104.14 112.603 103.841 112.015 103.244C111.437 102.647 111.147 101.821 111.147 100.766C111.147 99.7207 111.432 98.8947 112.001 98.288C112.571 97.672 113.341 97.364 114.311 97.364C115.142 97.364 115.781 97.5927 116.229 98.05C116.687 98.498 116.915 99.128 116.915 99.94C116.915 100.155 116.892 100.425 116.845 100.752L116.635 100.976ZM115.291 99.73C115.291 99.3567 115.207 99.0767 115.039 98.89C114.871 98.694 114.624 98.596 114.297 98.596C113.933 98.596 113.63 98.7173 113.387 98.96C113.145 99.1933 112.981 99.534 112.897 99.982L115.263 99.926L115.291 99.73ZM125.997 104L126.109 99.94C126.109 99.2493 125.815 98.904 125.227 98.904C124.807 98.904 124.368 99.0907 123.911 99.464L123.869 101.144L123.953 104H122.091L122.203 99.94C122.212 99.604 122.137 99.3473 121.979 99.17C121.829 98.9927 121.61 98.904 121.321 98.904C120.91 98.904 120.457 99.1 119.963 99.492V101.13L120.047 104H118.199L118.297 101.312L118.227 97.616L119.977 97.462V98.414H120.075C120.588 97.9473 121.153 97.6113 121.769 97.406C122.814 97.406 123.481 97.756 123.771 98.456H123.855C124.387 97.9613 124.993 97.6113 125.675 97.406C126.384 97.406 126.921 97.5693 127.285 97.896C127.658 98.2133 127.835 98.6753 127.817 99.282L127.775 101.144L127.859 104H125.997ZM132.502 99.688V100.836L129.17 101.354L129.016 101.2V100.038L132.348 99.534L132.502 99.688ZM28.6567 116.976L24.8767 117.004C24.9607 118.171 25.5534 118.754 26.6547 118.754C27.2334 118.754 27.8774 118.591 28.5867 118.264L28.7407 118.362L28.4607 119.748C27.7514 120.009 27.084 120.14 26.4587 120.14C25.432 120.14 24.6247 119.841 24.0367 119.244C23.458 118.647 23.1687 117.821 23.1687 116.766C23.1687 115.721 23.4534 114.895 24.0227 114.288C24.592 113.672 25.362 113.364 26.3327 113.364C27.1634 113.364 27.8027 113.593 28.2507 114.05C28.708 114.498 28.9367 115.128 28.9367 115.94C28.9367 116.155 28.9134 116.425 28.8667 116.752L28.6567 116.976ZM27.3127 115.73C27.3127 115.357 27.2287 115.077 27.0607 114.89C26.8927 114.694 26.6454 114.596 26.3187 114.596C25.9547 114.596 25.6514 114.717 25.4087 114.96C25.166 115.193 25.0027 115.534 24.9187 115.982L27.2847 115.926L27.3127 115.73ZM32.4042 113.378C33.0389 113.378 33.6362 113.485 34.1962 113.7L33.9442 115.072L33.7202 115.142C33.4495 114.965 33.1789 114.829 32.9082 114.736C32.6375 114.643 32.3995 114.596 32.1942 114.596C31.9702 114.596 31.7929 114.657 31.6622 114.778C31.5315 114.89 31.4662 115.03 31.4662 115.198C31.4662 115.394 31.5502 115.553 31.7182 115.674C31.8955 115.795 32.1709 115.931 32.5442 116.08C32.9175 116.229 33.2255 116.374 33.4682 116.514C33.7109 116.654 33.9162 116.85 34.0842 117.102C34.2615 117.345 34.3502 117.648 34.3502 118.012C34.3502 118.385 34.2522 118.735 34.0562 119.062C33.8695 119.379 33.5802 119.641 33.1882 119.846C32.7962 120.042 32.3155 120.14 31.7462 120.14C31.0742 120.14 30.3789 120 29.6602 119.72L29.8702 118.264L30.0522 118.152C30.3415 118.395 30.6635 118.591 31.0182 118.74C31.3729 118.88 31.6855 118.95 31.9562 118.95C32.2082 118.95 32.4042 118.889 32.5442 118.768C32.6842 118.637 32.7542 118.483 32.7542 118.306C32.7542 118.11 32.6655 117.951 32.4882 117.83C32.3202 117.709 32.0495 117.573 31.6762 117.424C31.2935 117.256 30.9809 117.107 30.7382 116.976C30.4955 116.836 30.2855 116.64 30.1082 116.388C29.9402 116.136 29.8562 115.823 29.8562 115.45C29.8562 114.843 30.0849 114.349 30.5422 113.966C30.9995 113.574 31.6202 113.378 32.4042 113.378ZM38.2253 118.628C38.5239 118.628 38.8366 118.549 39.1633 118.39L39.3173 118.53L39.1353 119.636C38.6593 119.879 38.1739 120.028 37.6793 120.084C36.4193 119.953 35.7893 119.337 35.7893 118.236L35.8593 117.074L35.8453 114.666H34.9773L34.9073 114.568L35.0053 113.546H35.8313V112.468L37.5253 111.922L37.6513 112.034L37.6093 113.546H39.2753L39.3313 113.644L39.2473 114.666H37.5813L37.4973 117.802C37.4973 118.101 37.5533 118.315 37.6653 118.446C37.7773 118.567 37.9639 118.628 38.2253 118.628ZM42.8857 113.364C43.6044 113.364 44.1644 113.527 44.5657 113.854C44.9764 114.171 45.1817 114.619 45.1817 115.198C45.1817 115.366 45.1537 115.898 45.0977 116.794C45.0884 117.055 45.0744 117.326 45.0557 117.606C45.0371 117.877 45.0277 118.11 45.0277 118.306C45.0277 118.465 45.0511 118.577 45.0977 118.642C45.1444 118.698 45.2284 118.726 45.3497 118.726C45.4431 118.726 45.5644 118.707 45.7137 118.67L45.8537 118.782L45.6857 119.762C45.3871 119.958 45.0464 120.075 44.6637 120.112C44.3837 120.084 44.1504 119.986 43.9637 119.818C43.7771 119.641 43.6511 119.398 43.5857 119.09H43.4877C43.0211 119.585 42.5404 119.93 42.0457 120.126C41.3737 120.117 40.8464 119.939 40.4637 119.594C40.0811 119.249 39.8897 118.777 39.8897 118.18C39.8897 117.713 40.0064 117.349 40.2397 117.088C40.4824 116.817 40.8464 116.635 41.3317 116.542L43.4737 116.136V115.562C43.4737 114.955 43.1751 114.652 42.5777 114.652C42.2884 114.652 41.9804 114.717 41.6537 114.848C41.3364 114.979 40.9771 115.184 40.5757 115.464L40.4357 115.38L40.2257 114.148C40.6271 113.896 41.0564 113.705 41.5137 113.574C41.9711 113.434 42.4284 113.364 42.8857 113.364ZM41.9757 117.396C41.8264 117.433 41.7144 117.499 41.6397 117.592C41.5744 117.676 41.5417 117.807 41.5417 117.984C41.5417 118.227 41.6071 118.418 41.7377 118.558C41.8684 118.689 42.0504 118.754 42.2837 118.754C42.6477 118.754 43.0304 118.539 43.4317 118.11L43.4597 117.074L41.9757 117.396ZM50.5799 113.476C50.6639 113.476 50.7806 113.485 50.9299 113.504V115.226L50.7339 115.296C50.5753 115.231 50.4026 115.198 50.2159 115.198C49.6746 115.198 49.1846 115.548 48.7459 116.248V117.13L48.8439 120H46.9819L47.0939 117.312L47.0099 113.616L48.7739 113.462L48.7599 114.736H48.8719C49.3293 113.896 49.8986 113.476 50.5799 113.476ZM51.9717 118.152C52.3917 118.488 52.6017 118.889 52.6017 119.356C52.6017 120.168 52.0371 120.975 50.9077 121.778L50.3057 121.246L50.2917 121.106C50.8051 120.677 51.0617 120.219 51.0617 119.734C51.0617 119.417 50.9124 119.137 50.6137 118.894L50.6277 118.74C51.0571 118.479 51.5051 118.283 51.9717 118.152ZM58.8441 113.364C59.7961 113.364 60.5241 113.644 61.0281 114.204C61.5321 114.764 61.7841 115.571 61.7841 116.626C61.7841 117.765 61.5134 118.637 60.9721 119.244C60.4308 119.841 59.6514 120.14 58.6341 120.14C57.6821 120.14 56.9541 119.86 56.4501 119.3C55.9461 118.74 55.6941 117.933 55.6941 116.878C55.6941 115.739 55.9648 114.871 56.5061 114.274C57.0474 113.667 57.8268 113.364 58.8441 113.364ZM58.7181 114.624C58.2701 114.624 57.9434 114.773 57.7381 115.072C57.5421 115.371 57.4441 115.851 57.4441 116.514C57.4441 117.373 57.5468 117.984 57.7521 118.348C57.9574 118.712 58.2934 118.894 58.7601 118.894C59.2081 118.894 59.5301 118.749 59.7261 118.46C59.9314 118.161 60.0341 117.676 60.0341 117.004C60.0341 116.155 59.9268 115.548 59.7121 115.184C59.5068 114.811 59.1754 114.624 58.7181 114.624ZM67.3632 113.378C67.9979 113.378 68.5952 113.485 69.1552 113.7L68.9032 115.072L68.6792 115.142C68.4085 114.965 68.1379 114.829 67.8672 114.736C67.5965 114.643 67.3585 114.596 67.1532 114.596C66.9292 114.596 66.7519 114.657 66.6212 114.778C66.4905 114.89 66.4252 115.03 66.4252 115.198C66.4252 115.394 66.5092 115.553 66.6772 115.674C66.8545 115.795 67.1299 115.931 67.5032 116.08C67.8765 116.229 68.1845 116.374 68.4272 116.514C68.6699 116.654 68.8752 116.85 69.0432 117.102C69.2205 117.345 69.3092 117.648 69.3092 118.012C69.3092 118.385 69.2112 118.735 69.0152 119.062C68.8285 119.379 68.5392 119.641 68.1472 119.846C67.7552 120.042 67.2745 120.14 66.7052 120.14C66.0332 120.14 65.3379 120 64.6192 119.72L64.8292 118.264L65.0112 118.152C65.3005 118.395 65.6225 118.591 65.9772 118.74C66.3319 118.88 66.6445 118.95 66.9152 118.95C67.1672 118.95 67.3632 118.889 67.5032 118.768C67.6432 118.637 67.7132 118.483 67.7132 118.306C67.7132 118.11 67.6245 117.951 67.4472 117.83C67.2792 117.709 67.0085 117.573 66.6352 117.424C66.2525 117.256 65.9399 117.107 65.6972 116.976C65.4545 116.836 65.2445 116.64 65.0672 116.388C64.8992 116.136 64.8152 115.823 64.8152 115.45C64.8152 114.843 65.0439 114.349 65.5012 113.966C65.9585 113.574 66.5792 113.378 67.3632 113.378ZM73.2542 113.364C74.2062 113.364 74.9342 113.644 75.4382 114.204C75.9422 114.764 76.1942 115.571 76.1942 116.626C76.1942 117.765 75.9236 118.637 75.3822 119.244C74.8409 119.841 74.0616 120.14 73.0442 120.14C72.0922 120.14 71.3642 119.86 70.8602 119.3C70.3562 118.74 70.1042 117.933 70.1042 116.878C70.1042 115.739 70.3749 114.871 70.9162 114.274C71.4576 113.667 72.2369 113.364 73.2542 113.364ZM73.1282 114.624C72.6802 114.624 72.3536 114.773 72.1482 115.072C71.9522 115.371 71.8542 115.851 71.8542 116.514C71.8542 117.373 71.9569 117.984 72.1622 118.348C72.3676 118.712 72.7036 118.894 73.1702 118.894C73.6182 118.894 73.9402 118.749 74.1362 118.46C74.3416 118.161 74.4442 117.676 74.4442 117.004C74.4442 116.155 74.3369 115.548 74.1222 115.184C73.9169 114.811 73.5856 114.624 73.1282 114.624ZM81.3922 115.94C81.4015 115.613 81.3268 115.361 81.1682 115.184C81.0188 114.997 80.7995 114.904 80.5102 114.904C80.0902 114.904 79.6422 115.105 79.1662 115.506V117.13L79.2502 120H77.3882L77.4862 117.312L77.4162 113.616L79.1802 113.462V114.414H79.2782C79.7915 113.947 80.3515 113.611 80.9582 113.406C81.6675 113.406 82.2088 113.569 82.5822 113.896C82.9555 114.213 83.1328 114.675 83.1142 115.282L83.0722 117.144L83.1562 120H81.2802L81.3922 115.94ZM87.5003 113.364C88.4523 113.364 89.1803 113.644 89.6843 114.204C90.1883 114.764 90.4403 115.571 90.4403 116.626C90.4403 117.765 90.1697 118.637 89.6283 119.244C89.087 119.841 88.3077 120.14 87.2903 120.14C86.3383 120.14 85.6103 119.86 85.1063 119.3C84.6023 118.74 84.3503 117.933 84.3503 116.878C84.3503 115.739 84.621 114.871 85.1623 114.274C85.7037 113.667 86.483 113.364 87.5003 113.364ZM87.3743 114.624C86.9263 114.624 86.5997 114.773 86.3943 115.072C86.1983 115.371 86.1003 115.851 86.1003 116.514C86.1003 117.373 86.203 117.984 86.4083 118.348C86.6137 118.712 86.9497 118.894 87.4163 118.894C87.8643 118.894 88.1863 118.749 88.3823 118.46C88.5877 118.161 88.6903 117.676 88.6903 117.004C88.6903 116.155 88.583 115.548 88.3683 115.184C88.163 114.811 87.8317 114.624 87.3743 114.624ZM98.8754 116.976L95.0954 117.004C95.1794 118.171 95.7721 118.754 96.8734 118.754C97.4521 118.754 98.0961 118.591 98.8054 118.264L98.9594 118.362L98.6794 119.748C97.9701 120.009 97.3028 120.14 96.6774 120.14C95.6508 120.14 94.8434 119.841 94.2554 119.244C93.6768 118.647 93.3874 117.821 93.3874 116.766C93.3874 115.721 93.6721 114.895 94.2414 114.288C94.8108 113.672 95.5808 113.364 96.5514 113.364C97.3821 113.364 98.0214 113.593 98.4694 114.05C98.9268 114.498 99.1554 115.128 99.1554 115.94C99.1554 116.155 99.1321 116.425 99.0854 116.752L98.8754 116.976ZM97.5314 115.73C97.5314 115.357 97.4474 115.077 97.2794 114.89C97.1114 114.694 96.8641 114.596 96.5374 114.596C96.1734 114.596 95.8701 114.717 95.6274 114.96C95.3848 115.193 95.2214 115.534 95.1374 115.982L97.5034 115.926L97.5314 115.73ZM106.002 113.406C106.814 113.406 107.439 113.681 107.878 114.232C108.317 114.783 108.536 115.562 108.536 116.57C108.536 117.709 108.251 118.591 107.682 119.216C107.122 119.832 106.329 120.14 105.302 120.14C105.003 120.14 104.691 120.112 104.364 120.056L104.406 122.59H102.558L102.656 117.312L102.572 113.616L104.35 113.462L104.336 114.414H104.434C104.695 114.162 104.947 113.961 105.19 113.812C105.433 113.653 105.703 113.518 106.002 113.406ZM105.316 118.922C105.801 118.922 106.17 118.749 106.422 118.404C106.674 118.059 106.8 117.55 106.8 116.878C106.8 116.225 106.693 115.735 106.478 115.408C106.273 115.072 105.965 114.904 105.554 114.904C105.153 114.904 104.747 115.105 104.336 115.506L104.322 117.13L104.35 118.712C104.686 118.852 105.008 118.922 105.316 118.922ZM113.32 113.476C113.404 113.476 113.521 113.485 113.67 113.504V115.226L113.474 115.296C113.315 115.231 113.143 115.198 112.956 115.198C112.415 115.198 111.925 115.548 111.486 116.248V117.13L111.584 120H109.722L109.834 117.312L109.75 113.616L111.514 113.462L111.5 114.736H111.612C112.069 113.896 112.639 113.476 113.32 113.476ZM119.629 116.976L115.849 117.004C115.933 118.171 116.526 118.754 117.627 118.754C118.206 118.754 118.85 118.591 119.559 118.264L119.713 118.362L119.433 119.748C118.724 120.009 118.057 120.14 117.431 120.14C116.405 120.14 115.597 119.841 115.009 119.244C114.431 118.647 114.141 117.821 114.141 116.766C114.141 115.721 114.426 114.895 114.995 114.288C115.565 113.672 116.335 113.364 117.305 113.364C118.136 113.364 118.775 113.593 119.223 114.05C119.681 114.498 119.909 115.128 119.909 115.94C119.909 116.155 119.886 116.425 119.839 116.752L119.629 116.976ZM118.285 115.73C118.285 115.357 118.201 115.077 118.033 114.89C117.865 114.694 117.618 114.596 117.291 114.596C116.927 114.596 116.624 114.717 116.381 114.96C116.139 115.193 115.975 115.534 115.891 115.982L118.257 115.926L118.285 115.73ZM122.411 114.526L123.391 118.25H123.489L124.665 114.624L124.903 113.49H126.527L124.343 120H122.341L120.493 113.532L122.229 113.448L122.411 114.526ZM127.553 117.312L127.483 113.616L129.317 113.462L129.233 117.13L129.317 120H127.455L127.553 117.312ZM128.435 110.298C128.725 110.298 128.949 110.382 129.107 110.55C129.275 110.718 129.359 110.951 129.359 111.25C129.359 111.567 129.271 111.819 129.093 112.006C128.916 112.193 128.673 112.286 128.365 112.286C128.057 112.286 127.819 112.202 127.651 112.034C127.493 111.866 127.413 111.628 127.413 111.32C127.413 111.012 127.502 110.765 127.679 110.578C127.866 110.391 128.118 110.298 128.435 110.298ZM135.082 115.94C135.091 115.613 135.016 115.361 134.858 115.184C134.708 114.997 134.489 114.904 134.2 114.904C133.78 114.904 133.332 115.105 132.856 115.506V117.13L132.94 120H131.078L131.176 117.312L131.106 113.616L132.87 113.462V114.414H132.968C133.481 113.947 134.041 113.611 134.648 113.406C135.357 113.406 135.898 113.569 136.272 113.896C136.645 114.213 136.822 114.675 136.804 115.282L136.762 117.144L136.846 120H134.97L135.082 115.94ZM143.528 116.976L139.748 117.004C139.832 118.171 140.424 118.754 141.526 118.754C142.104 118.754 142.748 118.591 143.458 118.264L143.612 118.362L143.332 119.748C142.622 120.009 141.955 120.14 141.33 120.14C140.303 120.14 139.496 119.841 138.908 119.244C138.329 118.647 138.04 117.821 138.04 116.766C138.04 115.721 138.324 114.895 138.894 114.288C139.463 113.672 140.233 113.364 141.204 113.364C142.034 113.364 142.674 113.593 143.122 114.05C143.579 114.498 143.808 115.128 143.808 115.94C143.808 116.155 143.784 116.425 143.738 116.752L143.528 116.976ZM142.184 115.73C142.184 115.357 142.1 115.077 141.932 114.89C141.764 114.694 141.516 114.596 141.19 114.596C140.826 114.596 140.522 114.717 140.28 114.96C140.037 115.193 139.874 115.534 139.79 115.982L142.156 115.926L142.184 115.73ZM66.954 133.13L66.996 134.306C66.996 134.465 67.0146 134.577 67.052 134.642C67.0986 134.698 67.178 134.726 67.29 134.726C67.3926 134.726 67.5186 134.707 67.668 134.67L67.794 134.782L67.64 135.762C67.3226 135.958 66.9773 136.075 66.604 136.112C66.3146 136.084 66.072 135.986 65.876 135.818C65.68 135.65 65.5446 135.421 65.47 135.132H65.358C64.9006 135.552 64.434 135.874 63.958 136.098C63.0433 136.098 62.334 135.809 61.83 135.23C61.326 134.642 61.074 133.83 61.074 132.794C61.074 131.693 61.3633 130.848 61.942 130.26C62.5206 129.672 63.3233 129.378 64.35 129.378C64.6206 129.378 64.9193 129.406 65.246 129.462L65.218 126.312L67.066 126.172L66.954 133.13ZM64.224 130.638C63.2906 130.638 62.824 131.231 62.824 132.416C62.824 133.153 62.936 133.709 63.16 134.082C63.384 134.455 63.7106 134.642 64.14 134.642C64.5506 134.642 64.9286 134.451 65.274 134.068L65.302 133.298L65.26 130.89C64.896 130.722 64.5506 130.638 64.224 130.638ZM71.5931 129.364C72.5451 129.364 73.2731 129.644 73.7771 130.204C74.2811 130.764 74.5331 131.571 74.5331 132.626C74.5331 133.765 74.2624 134.637 73.7211 135.244C73.1798 135.841 72.4004 136.14 71.3831 136.14C70.4311 136.14 69.7031 135.86 69.1991 135.3C68.6951 134.74 68.4431 133.933 68.4431 132.878C68.4431 131.739 68.7138 130.871 69.2551 130.274C69.7964 129.667 70.5758 129.364 71.5931 129.364ZM71.4671 130.624C71.0191 130.624 70.6924 130.773 70.4871 131.072C70.2911 131.371 70.1931 131.851 70.1931 132.514C70.1931 133.373 70.2958 133.984 70.5011 134.348C70.7064 134.712 71.0424 134.894 71.5091 134.894C71.9571 134.894 72.2791 134.749 72.4751 134.46C72.6804 134.161 72.7831 133.676 72.7831 133.004C72.7831 132.155 72.6758 131.548 72.4611 131.184C72.2558 130.811 71.9244 130.624 71.4671 130.624ZM80.8491 132.976L77.0691 133.004C77.1531 134.171 77.7457 134.754 78.8471 134.754C79.4257 134.754 80.0697 134.591 80.7791 134.264L80.9331 134.362L80.6531 135.748C79.9437 136.009 79.2764 136.14 78.6511 136.14C77.6244 136.14 76.8171 135.841 76.2291 135.244C75.6504 134.647 75.3611 133.821 75.3611 132.766C75.3611 131.721 75.6457 130.895 76.2151 130.288C76.7844 129.672 77.5544 129.364 78.5251 129.364C79.3557 129.364 79.9951 129.593 80.4431 130.05C80.9004 130.498 81.1291 131.128 81.1291 131.94C81.1291 132.155 81.1057 132.425 81.0591 132.752L80.8491 132.976ZM79.5051 131.73C79.5051 131.357 79.4211 131.077 79.2531 130.89C79.0851 130.694 78.8377 130.596 78.5111 130.596C78.1471 130.596 77.8437 130.717 77.6011 130.96C77.3584 131.193 77.1951 131.534 77.1111 131.982L79.4771 131.926L79.5051 131.73ZM86.4166 131.94C86.4259 131.613 86.3513 131.361 86.1926 131.184C86.0433 130.997 85.8239 130.904 85.5346 130.904C85.1146 130.904 84.6666 131.105 84.1906 131.506V133.13L84.2746 136H82.4126L82.5106 133.312L82.4406 129.616L84.2046 129.462V130.414H84.3026C84.8159 129.947 85.3759 129.611 85.9826 129.406C86.6919 129.406 87.2333 129.569 87.6066 129.896C87.9799 130.213 88.1573 130.675 88.1386 131.282L88.0966 133.144L88.1806 136H86.3046L86.4166 131.94ZM92.4968 129.364C92.8048 129.364 93.1081 129.397 93.4068 129.462C93.7148 129.518 93.9854 129.602 94.2188 129.714L93.9108 131.198L93.7568 131.268C93.2808 131.007 92.8561 130.876 92.4828 130.876C92.0534 130.876 91.7221 131.03 91.4888 131.338C91.2554 131.646 91.1388 132.085 91.1388 132.654C91.1388 133.307 91.2648 133.807 91.5168 134.152C91.7688 134.497 92.1281 134.67 92.5948 134.67C93.0148 134.67 93.4814 134.553 93.9948 134.32L94.1348 134.432L93.9528 135.874C93.3928 136.051 92.8188 136.14 92.2308 136.14C91.3348 136.14 90.6348 135.851 90.1308 135.272C89.6268 134.684 89.3748 133.867 89.3748 132.822C89.3748 131.739 89.6501 130.895 90.2008 130.288C90.7514 129.672 91.5168 129.364 92.4968 129.364ZM92.4828 136.672L92.9588 136.938C93.1641 137.05 93.3088 137.171 93.3928 137.302C93.4861 137.442 93.5328 137.596 93.5328 137.764C93.5328 138.072 93.4114 138.324 93.1688 138.52C92.9261 138.716 92.6088 138.814 92.2168 138.814C91.7968 138.814 91.4141 138.683 91.0688 138.422L91.1948 137.638L91.2788 137.596C91.5588 137.876 91.8341 138.016 92.1048 138.016C92.3288 138.016 92.4408 137.918 92.4408 137.722C92.4408 137.657 92.4221 137.601 92.3848 137.554C92.3474 137.517 92.2868 137.479 92.2028 137.442L91.5168 137.05L91.8388 135.636H92.7348L92.4828 136.672ZM97.6348 129.364C98.3534 129.364 98.9134 129.527 99.3148 129.854C99.7254 130.171 99.9308 130.619 99.9308 131.198C99.9308 131.366 99.9028 131.898 99.8468 132.794C99.8374 133.055 99.8234 133.326 99.8048 133.606C99.7861 133.877 99.7768 134.11 99.7768 134.306C99.7768 134.465 99.8001 134.577 99.8468 134.642C99.8934 134.698 99.9774 134.726 100.099 134.726C100.192 134.726 100.313 134.707 100.463 134.67L100.603 134.782L100.435 135.762C100.136 135.958 99.7954 136.075 99.4128 136.112C99.1328 136.084 98.8994 135.986 98.7128 135.818C98.5261 135.641 98.4001 135.398 98.3347 135.09H98.2368C97.7701 135.585 97.2894 135.93 96.7948 136.126C96.1228 136.117 95.5954 135.939 95.2128 135.594C94.8301 135.249 94.6388 134.777 94.6388 134.18C94.6388 133.713 94.7554 133.349 94.9888 133.088C95.2314 132.817 95.5954 132.635 96.0808 132.542L98.2228 132.136V131.562C98.2228 130.955 97.9241 130.652 97.3268 130.652C97.0374 130.652 96.7294 130.717 96.4028 130.848C96.0854 130.979 95.7261 131.184 95.3248 131.464L95.1848 131.38L94.9748 130.148C95.3761 129.896 95.8054 129.705 96.2628 129.574C96.7201 129.434 97.1774 129.364 97.6348 129.364ZM96.7248 133.396C96.5754 133.433 96.4634 133.499 96.3888 133.592C96.3234 133.676 96.2908 133.807 96.2908 133.984C96.2908 134.227 96.3561 134.418 96.4868 134.558C96.6174 134.689 96.7994 134.754 97.0328 134.754C97.3968 134.754 97.7794 134.539 98.1808 134.11L98.2088 133.074L96.7248 133.396ZM103.997 129.378C104.632 129.378 105.229 129.485 105.789 129.7L105.537 131.072L105.313 131.142C105.042 130.965 104.772 130.829 104.501 130.736C104.23 130.643 103.992 130.596 103.787 130.596C103.563 130.596 103.386 130.657 103.255 130.778C103.124 130.89 103.059 131.03 103.059 131.198C103.059 131.394 103.143 131.553 103.311 131.674C103.488 131.795 103.764 131.931 104.137 132.08C104.51 132.229 104.818 132.374 105.061 132.514C105.304 132.654 105.509 132.85 105.677 133.102C105.854 133.345 105.943 133.648 105.943 134.012C105.943 134.385 105.845 134.735 105.649 135.062C105.462 135.379 105.173 135.641 104.781 135.846C104.389 136.042 103.908 136.14 103.339 136.14C102.667 136.14 101.972 136 101.253 135.72L101.463 134.264L101.645 134.152C101.934 134.395 102.256 134.591 102.611 134.74C102.966 134.88 103.278 134.95 103.549 134.95C103.801 134.95 103.997 134.889 104.137 134.768C104.277 134.637 104.347 134.483 104.347 134.306C104.347 134.11 104.258 133.951 104.081 133.83C103.913 133.709 103.642 133.573 103.269 133.424C102.886 133.256 102.574 133.107 102.331 132.976C102.088 132.836 101.878 132.64 101.701 132.388C101.533 132.136 101.449 131.823 101.449 131.45C101.449 130.843 101.678 130.349 102.135 129.966C102.592 129.574 103.213 129.378 103.997 129.378Z" fill="white"/>
<defs>
<filter id="filter0_b_206:36649" x="3" y="67" width="161" height="97" filterUnits="userSpaceOnUse" color-interpolation-filters="sRGB">
<feFlood flood-opacity="0" result="BackgroundImageFix"/>
<feGaussianBlur in="BackgroundImage" stdDeviation="5"/>
<feComposite in2="SourceAlpha" operator="in" result="effect1_backgroundBlur_206:36649"/>
<feBlend mode="normal" in="SourceGraphic" in2="effect1_backgroundBlur_206:36649" result="shape"/>
</filter>
</defs>
</svg>
