<svg width="167" height="167" viewBox="0 0 167 167" fill="none" xmlns="http://www.w3.org/2000/svg">
<mask id="mask0_206:36546" style="mask-type:alpha" maskUnits="userSpaceOnUse" x="0" y="0" width="167" height="167">
<rect x="1" y="1" width="165" height="165" rx="8" fill="#5988D6" stroke="#EDE6FC" stroke-opacity="0.3"/>
</mask>
<g mask="url(#mask0_206:36546)">
<rect x="1" y="1" width="165" height="165" rx="8" fill="#7A83D9" stroke="#EDE6FC" stroke-opacity="0.3"/>
<path d="M109.383 12.2176C107.919 11.9593 106.414 12.0385 104.987 12.449C103.56 12.8595 102.25 13.5899 101.161 14.5827C97.6139 17.9241 98.7495 22.0974 99.4574 24.3178C100.165 26.5382 100.195 27.3772 99.7376 28.0787C99.2804 28.7803 97.1862 30.9718 96.906 31.6951C96.6258 32.4183 102.717 35.5862 102.717 35.5862L107.547 32.8378C107.547 32.8378 111.802 35.3403 112.229 35.1956C112.657 35.051 114.073 32.8378 115.348 27.6882C116.624 22.5385 116.337 18.6474 114.611 15.7254C112.886 12.8034 109.383 12.2176 109.383 12.2176Z" fill="#F6BA99"/>
<path d="M106.475 23.8005C106.475 23.8005 105.646 21.6624 104.237 23.512C102.827 25.3616 103.283 26.7896 103.922 27.0707L104.56 27.3592C104.404 28.4363 104.627 29.5299 105.199 30.4888C105.835 31.5701 106.639 32.5663 107.586 33.4483" stroke="#393762" stroke-width="0.5" stroke-miterlimit="10"/>
<path d="M115.069 18.9164C114.852 17.8372 114.49 16.7981 113.995 15.8324C112.395 12.8309 109.064 12.2232 109.064 12.2232C107.689 11.9552 106.275 12.0374 104.935 12.4632C103.594 12.8891 102.364 13.6469 101.34 14.6769C98.0085 18.1435 99.0752 22.4732 99.7401 24.7768C100.232 26.4876 100.357 27.4031 100.232 28.0559C101.272 28.1669 102.321 28.0832 103.335 27.8083C103.703 27.6959 104.047 27.5058 104.347 27.249C104.647 26.9922 104.897 26.6737 105.083 26.3118C105.269 25.9499 105.387 25.5518 105.431 25.1403C105.475 24.7287 105.443 24.312 105.337 23.9139C104.935 23.051 106.03 22.1805 106.03 22.1805C106.03 22.1805 106.826 24.4917 107.761 23.051C108.696 21.6102 107.069 19.5843 108.69 18.4287C110.31 17.2731 112.021 17.2731 114.023 18.4287C114.356 18.6279 114.707 18.7912 115.069 18.9164Z" fill="#393762"/>
<path d="M114.894 19.4407C114.894 19.4407 115.84 20.0825 117.213 18.2798C118.585 16.477 118.578 13.2898 117.483 14.119C116.957 14.5054 116.454 14.9219 115.975 15.3665C115.975 15.3665 114.887 10.5135 113.379 11.0399C112.967 11.1669 112.602 11.4174 112.333 11.7584C112.064 12.0995 111.903 12.5152 111.871 12.9508C111.871 12.9508 109.026 10.7371 108.457 11.4293C108.184 11.796 107.861 12.1214 107.497 12.3956C107.497 12.3956 107.774 12.5398 106.949 12.8138C106.349 13.0883 105.831 13.5187 105.448 14.0613C105.448 14.0613 109.958 14.6166 111.331 16.0011C112.703 17.3856 114.894 19.4407 114.894 19.4407Z" fill="#393762"/>
<path d="M105.261 42C105.261 42 107.838 42.8221 107.987 46.947C108.135 51.0718 111.419 61.6592 111.419 61.6592C111.419 61.6592 115.283 57.5343 115.998 56.7051C116.713 55.8758 118.15 55.6042 119.58 57.9418C121.009 60.2795 120.585 63.0318 118.433 66.3345C116.281 69.6373 112.275 74.5771 108.984 74.0266C105.693 73.4762 100.25 64.0183 100.109 62.8959C99.9674 61.7736 102.685 50.6572 103.087 48.87C103.489 47.0828 105.261 42 105.261 42Z" fill="#393762"/>
<path d="M74.994 82.2887C74.994 82.2887 73.0677 84.8969 73.7552 87.3626C74.2322 89.003 74.8305 90.606 75.5454 92.1585C75.5454 92.1585 71.0054 106.824 69.9026 109.839C68.7998 112.853 69.6233 113.131 66.7304 114.913C63.8374 116.694 57.5071 119.188 55.4377 125.737C53.882 130.652 51.9993 135.459 49.8021 140.125C48.9714 141.771 48.5632 142.733 46.773 142.733C44.9828 142.733 41.9538 141.907 41.6745 144.237C41.5343 146.427 41.5343 148.624 41.6745 150.815C41.6745 151.641 39.6121 153.01 40.4356 155.889C41.2591 158.768 42.7773 161.369 43.6008 161.639C44.4243 161.91 45.9423 161.504 46.0856 160.82C46.2288 160.136 44.5675 159.038 45.3695 156.544C46.1715 154.05 50.332 150.131 52.6736 147.907C55.0152 145.684 60.5505 135.985 64.6537 131.602C68.7569 127.22 73.4687 121.732 76.7699 118.853C80.071 115.974 86.7951 104.879 88.2273 102.406C89.6594 99.9333 91.0916 96.5198 91.0916 96.5198C91.0916 96.5198 105.557 99.2563 108.034 99.6696C109.712 99.9696 111.367 100.381 112.99 100.902C110.281 103.442 108.408 106.739 107.619 110.359C106.516 116.117 104.038 126.528 102.8 129.956C101.561 133.384 100.644 135.465 99.7849 137.246C98.9256 139.028 97.5794 141.358 98.5461 142.456C99.5128 143.553 104.74 144.237 107.361 144.65C109.982 145.064 115.073 144.921 116.169 143.938C117.265 142.954 117.415 142.427 116.72 142.292C116.026 142.156 112.18 139.683 111.078 138.729C109.975 137.774 109.151 136.12 109.287 135.436C109.423 134.752 115.618 121.184 118.375 115.704C121.131 110.224 124.16 100.625 124.984 98.4368C125.808 96.249 126.087 95.8286 125.263 94.7382C124.44 93.6479 119.341 89.7998 110.798 85.1392C102.255 80.4786 97.5794 80.3432 94.9657 79.937C92.3519 79.5308 87.9408 75.5473 82.0188 78.1555C76.0968 80.7637 74.994 82.2887 74.994 82.2887Z" fill="#F6BA99"/>
<path d="M106.357 41.0095C106.666 45.1324 106.527 49.2761 105.943 53.3697C104.986 60.5739 99.7632 71.3026 99.3488 73.8523C98.9345 76.4021 100.72 78.0901 100.17 78.8812C99.6203 79.6722 98.5272 79.9689 97.1484 79.9689C95.7695 79.9689 90.4185 78.6057 86.1605 79.425C81.9025 80.2443 77.2302 84.0442 76.2657 83.6628C75.3013 83.2814 73.7938 81.6216 74.7583 79.9971C75.7228 78.3726 76.6801 77.4121 77.5017 75.7593C78.3233 74.1066 82.4527 61.2308 83.41 57.0213C84.3673 52.8117 83.9601 47.9171 83.8244 44.5198C83.6886 41.1225 86.5678 35.5569 88.7682 34.7446C90.9686 33.9324 97.1484 35.5569 97.8342 35.5569C98.5201 35.5569 105.121 37.6122 106.357 41.0095Z" fill="#393762"/>
<path d="M102.886 39.3143C102.886 39.3143 106.019 43.329 106.422 43.0556C106.826 42.7822 108.332 41.3936 107.13 38.0695C105.927 34.7455 103.056 32.5367 100.058 29.9105C97.0592 27.2844 93.9404 23.2696 91.9037 25.5936C89.8669 27.9175 86.0551 33.3425 87.6605 35.1412C89.2658 36.9399 97.8653 37.3572 99.7677 38.0192C101.67 38.6811 102.886 39.3143 102.886 39.3143Z" fill="#7EB9F5"/>
<path d="M68.5534 68.2262C68.8826 69.4826 69.3742 70.6834 70.0141 71.7937C71.0803 73.6478 71.6133 75.6429 70.9488 76.3549C70.2842 77.0669 70.2564 77.0966 67.6188 77.9273C64.9812 78.7579 63.8944 78.2091 63.6244 77.4971C63.3544 76.7851 64.4205 75.9248 64.4205 75.9248C63.9376 75.8036 63.5059 75.5144 63.1927 75.1024C62.8796 74.6905 62.7027 74.1789 62.6898 73.6478C62.7737 71.7847 62.9516 69.9278 63.2228 68.0853L68.415 67.6552L68.5534 68.2262Z" fill="#F6BA99"/>
<path d="M61.629 65.7802C61.629 65.7802 61.4882 68.7441 62.3706 69.4832C63.253 70.2223 67.7911 69.4832 68.362 68.8904C68.933 68.2976 69.1035 64.4483 69.1035 64.4483L61.629 65.7802Z" fill="#7EB9F5"/>
<path d="M95.8277 38.9479C94.4676 37.6313 92.821 36.6297 91.0099 36.0175C88.1465 35.0756 79.0335 35.7454 72.6981 37.3571C66.3627 38.9689 63.7498 38.8084 62.7834 41.2295C61.8169 43.6506 60.3065 62.4264 60.5857 64.5754C60.8649 66.7244 65.2674 66.857 67.3291 66.3197C69.3908 65.7825 71.0444 64.4428 71.7388 61.624C72.4332 58.8052 72.2829 48.744 73.2493 47.6695C74.2157 46.595 85.6409 47.2648 88.8051 46.8602C91.9692 46.4555 94.174 45.5205 94.7252 44.7181" fill="#393762"/>
<path d="M117.952 56.0322C117.952 56.0322 115.808 57.1838 116.182 59.1008C116.555 61.0178 118.45 62.4289 119.211 62.3025C119.971 62.176 121.479 60.1259 121.479 60.1259C121.479 60.1259 121.729 55.0072 117.952 56.0322Z" fill="#7EB9F5"/>
<path d="M117.207 56.8629C117.207 56.8629 118.323 60.0228 119.715 60.1584C121.107 60.2939 121.811 59.4451 123.478 57.8259C125.146 56.2066 126.828 54.9726 126.828 52.7471C126.828 50.5216 126.269 47.54 125.015 47.3973C124.259 47.3168 123.494 47.412 122.782 47.6755C122.782 47.6755 122.369 46.8481 121.115 47.811C119.86 48.774 120.136 49.4588 119.44 50.6643C118.829 51.4859 118.569 52.5098 118.715 53.5175C118.787 54.0165 118.833 54.5189 118.853 55.0226L117.207 56.8629Z" fill="#F6BA99"/>
<path d="M122.76 48.4138C123.232 49.0586 124.014 52.3791 123.387 52.8756C122.76 53.372 121.668 54.365 121.351 53.2495C121.033 52.1341 120.414 50.5222 120.414 50.5222" stroke="#393762" stroke-width="0.5" stroke-miterlimit="10"/>
<path d="M111.395 85.0339C102.821 80.4357 98.117 80.3022 95.4916 79.9014C92.8661 79.5006 88.4353 75.5704 82.4868 78.1437C76.5382 80.717 75.4305 82.1935 75.4305 82.1935C75.4305 82.1935 73.4956 84.7667 74.1861 87.1994C74.6653 88.8179 75.2663 90.3994 75.9844 91.9311C75.9844 91.9311 71.4241 106.401 70.3164 109.375C70.2588 109.529 70.2228 109.649 70.1725 109.789C71.3953 110.204 72.8195 110.732 74.4882 111.4C76.6397 112.25 78.4342 113.786 79.5808 115.759C82.9094 111.38 85.9647 106.808 88.7302 102.07C90.1184 99.6369 91.6074 96.2621 91.6074 96.2621C91.6074 96.2621 106.137 98.962 108.626 99.3698C109.46 99.5033 110.295 99.6862 111.035 99.869C111.459 97.2341 112.329 94.6868 113.611 92.3319C114.977 89.9274 116.243 88.8165 117.207 88.2962C115.473 87.2838 113.546 86.187 111.395 85.0339Z" fill="#DA5955"/>
<path d="M116.216 143.745C117.337 142.812 117.483 142.28 116.776 142.149C116.07 142.017 112.16 139.619 111.038 138.693C109.917 137.767 109.08 136.163 109.218 135.5C109.262 135.286 109.946 133.765 110.958 131.63C109.761 131.977 108.509 132.117 107.259 132.044C105.603 131.766 103.983 131.324 102.424 130.724C101.267 133.717 100.349 135.597 99.5555 137.228C98.7618 138.859 97.3128 141.215 98.2958 142.28C99.2788 143.344 104.594 144.008 107.259 144.408C109.924 144.809 115.101 144.671 116.216 143.745Z" fill="#DECBB6"/>
<path d="M116.778 142.031C116.05 141.892 112.163 139.351 111.042 138.37C109.921 137.388 109.084 135.689 109.222 134.986C109.222 134.986 108.662 133.155 107.402 132.877C106.143 132.598 105.582 136.399 105.582 136.399L100.246 135.323C100.006 135.85 99.7802 136.348 99.5618 136.788C98.7173 138.619 97.3196 141.013 98.3024 142.141C99.2852 143.269 104.599 143.972 107.264 144.397C109.928 144.822 115.104 144.675 116.218 143.665C117.332 142.654 117.485 142.163 116.778 142.031Z" fill="#393762"/>
<path d="M51.4073 144.881C50.3222 143.976 49.535 142.768 49.1472 141.414C48.9411 141.866 48.6001 142.245 48.1704 142.499C47.7406 142.752 47.2429 142.869 46.7446 142.832C44.9621 142.832 41.9463 142.009 41.6682 144.328C41.5286 146.507 41.5286 148.692 41.6682 150.871C41.6682 151.693 39.6149 153.055 40.4348 155.919C41.2547 158.783 42.7662 161.37 43.5861 161.64C44.406 161.909 45.9175 161.505 46.0601 160.825C46.2027 160.144 44.5486 159.052 45.3471 156.571C46.1456 154.09 50.288 150.19 52.6194 147.979C53.1767 147.418 53.6848 146.811 54.138 146.164C53.1634 145.887 52.2409 145.454 51.4073 144.881Z" fill="#DECBB6"/>
<path d="M49.8621 151.176C49.7445 150.983 49.6158 150.796 49.4767 150.617C48.6077 149.513 47.1568 150.753 47.1568 150.753C46.2658 149.754 45.7997 148.477 45.8495 147.17C45.9628 145.564 47.4666 143.386 48.1165 142.49C47.7979 142.581 47.4669 142.627 47.1341 142.626C45.2449 142.626 42.0484 141.795 41.7537 144.138C41.6057 146.341 41.6057 148.55 41.7537 150.753C41.7537 151.584 39.5773 152.96 40.4464 155.856C41.3154 158.751 42.9174 161.367 43.7865 161.639C44.6555 161.911 46.2575 161.503 46.4087 160.815C46.5598 160.127 44.8066 159.023 45.653 156.515C46.2198 155.06 47.9956 153.039 49.8621 151.176Z" fill="#393762"/>
</g>
<g filter="url(#filter0_b_206:36546)">
<rect x="13" y="77" width="141" height="77" rx="10" fill="black" fill-opacity="0.8"/>
</g>
<path d="M61.7551 96H59.8231L59.5991 94.824L59.3611 93.984L57.5971 93.942L56.0431 93.984L55.8051 94.726L55.5671 96H53.6911L56.7431 86.984H58.9971L61.7551 96ZM58.9551 92.514L57.8911 88.762H57.7651L56.5331 92.514L57.7371 92.542L58.9551 92.514ZM65.1862 94.628C65.4849 94.628 65.7975 94.5487 66.1242 94.39L66.2782 94.53L66.0962 95.636C65.6202 95.8787 65.1349 96.028 64.6402 96.084C63.3802 95.9533 62.7502 95.3373 62.7502 94.236L62.8202 93.074L62.8062 90.666H61.9382L61.8682 90.568L61.9662 89.546H62.7922V88.468L64.4862 87.922L64.6122 88.034L64.5702 89.546H66.2362L66.2922 89.644L66.2082 90.666H64.5422L64.4582 93.802C64.4582 94.1007 64.5142 94.3153 64.6262 94.446C64.7382 94.5673 64.9249 94.628 65.1862 94.628ZM67.4107 93.312L67.3407 89.616L69.1747 89.462L69.0907 93.13L69.1747 96H67.3127L67.4107 93.312ZM68.2927 86.298C68.582 86.298 68.806 86.382 68.9647 86.55C69.1327 86.718 69.2167 86.9513 69.2167 87.25C69.2167 87.5673 69.128 87.8193 68.9507 88.006C68.7733 88.1927 68.5307 88.286 68.2227 88.286C67.9147 88.286 67.6767 88.202 67.5087 88.034C67.35 87.866 67.2707 87.628 67.2707 87.32C67.2707 87.012 67.3593 86.7647 67.5367 86.578C67.7233 86.3913 67.9753 86.298 68.2927 86.298ZM72.1531 90.526L73.1331 94.25H73.2311L74.4071 90.624L74.6451 89.49H76.2691L74.0851 96H72.0831L70.2351 89.532L71.9711 89.448L72.1531 90.526ZM77.2954 93.312L77.2254 89.616L79.0594 89.462L78.9754 93.13L79.0594 96H77.1974L77.2954 93.312ZM78.1774 86.298C78.4668 86.298 78.6908 86.382 78.8494 86.55C79.0174 86.718 79.1014 86.9513 79.1014 87.25C79.1014 87.5673 79.0128 87.8193 78.8354 88.006C78.6581 88.1927 78.4154 88.286 78.1074 88.286C77.7994 88.286 77.5614 88.202 77.3934 88.034C77.2348 87.866 77.1554 87.628 77.1554 87.32C77.1554 87.012 77.2441 86.7647 77.4214 86.578C77.6081 86.3913 77.8601 86.298 78.1774 86.298ZM86.2518 93.13L86.2938 94.306C86.2938 94.4647 86.3125 94.5767 86.3498 94.642C86.3965 94.698 86.4758 94.726 86.5878 94.726C86.6905 94.726 86.8165 94.7073 86.9658 94.67L87.0918 94.782L86.9378 95.762C86.6205 95.958 86.2752 96.0747 85.9018 96.112C85.6125 96.084 85.3698 95.986 85.1738 95.818C84.9778 95.65 84.8425 95.4213 84.7678 95.132H84.6558C84.1985 95.552 83.7318 95.874 83.2558 96.098C82.3412 96.098 81.6318 95.8087 81.1278 95.23C80.6238 94.642 80.3718 93.83 80.3718 92.794C80.3718 91.6927 80.6612 90.848 81.2398 90.26C81.8185 89.672 82.6212 89.378 83.6478 89.378C83.9185 89.378 84.2172 89.406 84.5438 89.462L84.5158 86.312L86.3638 86.172L86.2518 93.13ZM83.5218 90.638C82.5885 90.638 82.1218 91.2307 82.1218 92.416C82.1218 93.1533 82.2338 93.7087 82.4578 94.082C82.6818 94.4553 83.0085 94.642 83.4378 94.642C83.8485 94.642 84.2265 94.4507 84.5718 94.068L84.5998 93.298L84.5578 90.89C84.1938 90.722 83.8485 90.638 83.5218 90.638ZM90.751 89.364C91.4696 89.364 92.0296 89.5273 92.431 89.854C92.8416 90.1713 93.047 90.6193 93.047 91.198C93.047 91.366 93.019 91.898 92.963 92.794C92.9536 93.0553 92.9396 93.326 92.921 93.606C92.9023 93.8767 92.893 94.11 92.893 94.306C92.893 94.4647 92.9163 94.5767 92.963 94.642C93.0096 94.698 93.0936 94.726 93.215 94.726C93.3083 94.726 93.4296 94.7073 93.579 94.67L93.719 94.782L93.551 95.762C93.2523 95.958 92.9116 96.0747 92.529 96.112C92.249 96.084 92.0156 95.986 91.829 95.818C91.6423 95.6407 91.5163 95.398 91.451 95.09H91.353C90.8863 95.5847 90.4056 95.93 89.911 96.126C89.239 96.1167 88.7116 95.9393 88.329 95.594C87.9463 95.2487 87.755 94.7773 87.755 94.18C87.755 93.7133 87.8716 93.3493 88.105 93.088C88.3476 92.8173 88.7116 92.6353 89.197 92.542L91.339 92.136V91.562C91.339 90.9553 91.0403 90.652 90.443 90.652C90.1536 90.652 89.8456 90.7173 89.519 90.848C89.2016 90.9787 88.8423 91.184 88.441 91.464L88.301 91.38L88.091 90.148C88.4923 89.896 88.9216 89.7047 89.379 89.574C89.8363 89.434 90.2936 89.364 90.751 89.364ZM89.841 93.396C89.6916 93.4333 89.5796 93.4987 89.505 93.592C89.4396 93.676 89.407 93.8067 89.407 93.984C89.407 94.2267 89.4723 94.418 89.603 94.558C89.7336 94.6887 89.9156 94.754 90.149 94.754C90.513 94.754 90.8956 94.5393 91.297 94.11L91.325 93.074L89.841 93.396ZM100.361 93.13L100.403 94.306C100.403 94.4647 100.422 94.5767 100.459 94.642C100.506 94.698 100.585 94.726 100.697 94.726C100.8 94.726 100.926 94.7073 101.075 94.67L101.201 94.782L101.047 95.762C100.73 95.958 100.385 96.0747 100.011 96.112C99.7219 96.084 99.4792 95.986 99.2832 95.818C99.0872 95.65 98.9519 95.4213 98.8772 95.132H98.7652C98.3079 95.552 97.8412 95.874 97.3652 96.098C96.4505 96.098 95.7412 95.8087 95.2372 95.23C94.7332 94.642 94.4812 93.83 94.4812 92.794C94.4812 91.6927 94.7705 90.848 95.3492 90.26C95.9279 89.672 96.7305 89.378 97.7572 89.378C98.0279 89.378 98.3265 89.406 98.6532 89.462L98.6252 86.312L100.473 86.172L100.361 93.13ZM97.6312 90.638C96.6979 90.638 96.2312 91.2307 96.2312 92.416C96.2312 93.1533 96.3432 93.7087 96.5672 94.082C96.7912 94.4553 97.1179 94.642 97.5472 94.642C97.9579 94.642 98.3359 94.4507 98.6812 94.068L98.7092 93.298L98.6672 90.89C98.3032 90.722 97.9579 90.638 97.6312 90.638ZM107.338 92.976L103.558 93.004C103.642 94.1707 104.235 94.754 105.336 94.754C105.915 94.754 106.559 94.5907 107.268 94.264L107.422 94.362L107.142 95.748C106.433 96.0093 105.766 96.14 105.14 96.14C104.114 96.14 103.306 95.8413 102.718 95.244C102.14 94.6467 101.85 93.8207 101.85 92.766C101.85 91.7207 102.135 90.8947 102.704 90.288C103.274 89.672 104.044 89.364 105.014 89.364C105.845 89.364 106.484 89.5927 106.932 90.05C107.39 90.498 107.618 91.128 107.618 91.94C107.618 92.1547 107.595 92.4253 107.548 92.752L107.338 92.976ZM105.994 91.73C105.994 91.3567 105.91 91.0767 105.742 90.89C105.574 90.694 105.327 90.596 105 90.596C104.636 90.596 104.333 90.7173 104.09 90.96C103.848 91.1933 103.684 91.534 103.6 91.982L105.966 91.926L105.994 91.73ZM111.086 89.378C111.721 89.378 112.318 89.4853 112.878 89.7L112.626 91.072L112.402 91.142C112.131 90.9647 111.861 90.8293 111.59 90.736C111.319 90.6427 111.081 90.596 110.876 90.596C110.652 90.596 110.475 90.6567 110.344 90.778C110.213 90.89 110.148 91.03 110.148 91.198C110.148 91.394 110.232 91.5527 110.4 91.674C110.577 91.7953 110.853 91.9307 111.226 92.08C111.599 92.2293 111.907 92.374 112.15 92.514C112.393 92.654 112.598 92.85 112.766 93.102C112.943 93.3447 113.032 93.648 113.032 94.012C113.032 94.3853 112.934 94.7353 112.738 95.062C112.551 95.3793 112.262 95.6407 111.87 95.846C111.478 96.042 110.997 96.14 110.428 96.14C109.756 96.14 109.061 96 108.342 95.72L108.552 94.264L108.734 94.152C109.023 94.3947 109.345 94.5907 109.7 94.74C110.055 94.88 110.367 94.95 110.638 94.95C110.89 94.95 111.086 94.8893 111.226 94.768C111.366 94.6373 111.436 94.4833 111.436 94.306C111.436 94.11 111.347 93.9513 111.17 93.83C111.002 93.7087 110.731 93.5733 110.358 93.424C109.975 93.256 109.663 93.1067 109.42 92.976C109.177 92.836 108.967 92.64 108.79 92.388C108.622 92.136 108.538 91.8233 108.538 91.45C108.538 90.8433 108.767 90.3487 109.224 89.966C109.681 89.574 110.302 89.378 111.086 89.378ZM37.5539 105.406C38.3659 105.406 38.9912 105.681 39.4299 106.232C39.8685 106.783 40.0879 107.562 40.0879 108.57C40.0879 109.709 39.8032 110.591 39.2339 111.216C38.6739 111.832 37.8805 112.14 36.8539 112.14C36.5552 112.14 36.2425 112.112 35.9159 112.056L35.9579 114.59H34.1099L34.2079 109.312L34.1239 105.616L35.9019 105.462L35.8879 106.414H35.9859C36.2472 106.162 36.4992 105.961 36.7419 105.812C36.9845 105.653 37.2552 105.518 37.5539 105.406ZM36.8679 110.922C37.3532 110.922 37.7219 110.749 37.9739 110.404C38.2259 110.059 38.3519 109.55 38.3519 108.878C38.3519 108.225 38.2445 107.735 38.0299 107.408C37.8245 107.072 37.5165 106.904 37.1059 106.904C36.7045 106.904 36.2985 107.105 35.8879 107.506L35.8739 109.13L35.9019 110.712C36.2379 110.852 36.5599 110.922 36.8679 110.922ZM44.8719 105.476C44.9559 105.476 45.0726 105.485 45.2219 105.504V107.226L45.0259 107.296C44.8673 107.231 44.6946 107.198 44.5079 107.198C43.9666 107.198 43.4766 107.548 43.0379 108.248V109.13L43.1359 112H41.2739L41.3859 109.312L41.3019 105.616L43.0659 105.462L43.0519 106.736H43.1639C43.6213 105.896 44.1906 105.476 44.8719 105.476ZM48.8431 105.364C49.7951 105.364 50.5231 105.644 51.0271 106.204C51.5311 106.764 51.7831 107.571 51.7831 108.626C51.7831 109.765 51.5124 110.637 50.9711 111.244C50.4298 111.841 49.6504 112.14 48.6331 112.14C47.6811 112.14 46.9531 111.86 46.4491 111.3C45.9451 110.74 45.6931 109.933 45.6931 108.878C45.6931 107.739 45.9638 106.871 46.5051 106.274C47.0464 105.667 47.8258 105.364 48.8431 105.364ZM48.7171 106.624C48.2691 106.624 47.9424 106.773 47.7371 107.072C47.5411 107.371 47.4431 107.851 47.4431 108.514C47.4431 109.373 47.5458 109.984 47.7511 110.348C47.9564 110.712 48.2924 110.894 48.7591 110.894C49.2071 110.894 49.5291 110.749 49.7251 110.46C49.9304 110.161 50.0331 109.676 50.0331 109.004C50.0331 108.155 49.9258 107.548 49.7111 107.184C49.5058 106.811 49.1744 106.624 48.7171 106.624ZM59.3171 106.372C59.0651 106.437 58.7057 106.507 58.2391 106.582L58.2111 106.638C58.3511 106.918 58.4211 107.231 58.4211 107.576C58.4211 108.276 58.1644 108.836 57.6511 109.256C57.1471 109.667 56.4611 109.872 55.5931 109.872C55.3317 109.872 55.0611 109.849 54.7811 109.802C54.6971 109.886 54.6411 109.951 54.6131 109.998C54.5851 110.045 54.5711 110.101 54.5711 110.166C54.5711 110.334 54.6831 110.451 54.9071 110.516C55.1311 110.581 55.4857 110.647 55.9711 110.712C56.5217 110.777 56.9791 110.857 57.3431 110.95C57.7164 111.043 58.0337 111.207 58.2951 111.44C58.5657 111.673 58.7011 112.005 58.7011 112.434C58.7011 112.873 58.5611 113.265 58.2811 113.61C58.0104 113.965 57.6324 114.24 57.1471 114.436C56.6617 114.632 56.1111 114.73 55.4951 114.73C54.6457 114.73 53.9924 114.557 53.5351 114.212C53.0777 113.867 52.8491 113.409 52.8491 112.84C53.1384 112.439 53.5257 112.089 54.0111 111.79V111.72C53.6937 111.608 53.4464 111.454 53.2691 111.258C53.0917 111.053 53.0031 110.782 53.0031 110.446C53.2551 110.138 53.5724 109.853 53.9551 109.592V109.522C53.6191 109.335 53.3624 109.093 53.1851 108.794C53.0171 108.486 52.9331 108.127 52.9331 107.716C52.9331 106.988 53.1851 106.419 53.6891 106.008C54.1931 105.597 54.8791 105.392 55.7471 105.392C56.2511 105.392 56.7084 105.476 57.1191 105.644C57.7911 105.523 58.4771 105.336 59.1771 105.084L59.3171 105.21V106.372ZM55.6491 108.752C56.0317 108.752 56.3211 108.654 56.5171 108.458C56.7131 108.262 56.8111 107.977 56.8111 107.604C56.8111 106.895 56.4471 106.54 55.7191 106.54C54.9351 106.54 54.5431 106.899 54.5431 107.618C54.5431 107.991 54.6364 108.276 54.8231 108.472C55.0097 108.659 55.2851 108.752 55.6491 108.752ZM57.1331 112.77C57.1331 112.518 56.9977 112.345 56.7271 112.252C56.4657 112.159 56.0597 112.079 55.5091 112.014L55.0331 111.944C54.8091 112.093 54.6411 112.238 54.5291 112.378C54.4171 112.518 54.3611 112.667 54.3611 112.826C54.3611 113.069 54.4731 113.265 54.6971 113.414C54.9211 113.563 55.2477 113.638 55.6771 113.638C56.1157 113.638 56.4657 113.559 56.7271 113.4C56.9977 113.251 57.1331 113.041 57.1331 112.77ZM63.6571 105.476C63.7411 105.476 63.8577 105.485 64.0071 105.504V107.226L63.8111 107.296C63.6524 107.231 63.4797 107.198 63.2931 107.198C62.7517 107.198 62.2617 107.548 61.8231 108.248V109.13L61.9211 112H60.0591L60.1711 109.312L60.0871 105.616L61.8511 105.462L61.8371 106.736H61.9491C62.4064 105.896 62.9757 105.476 63.6571 105.476ZM67.3515 105.364C68.0702 105.364 68.6302 105.527 69.0315 105.854C69.4422 106.171 69.6475 106.619 69.6475 107.198C69.6475 107.366 69.6195 107.898 69.5635 108.794C69.5542 109.055 69.5402 109.326 69.5215 109.606C69.5029 109.877 69.4935 110.11 69.4935 110.306C69.4935 110.465 69.5169 110.577 69.5635 110.642C69.6102 110.698 69.6942 110.726 69.8155 110.726C69.9089 110.726 70.0302 110.707 70.1795 110.67L70.3195 110.782L70.1515 111.762C69.8529 111.958 69.5122 112.075 69.1295 112.112C68.8495 112.084 68.6162 111.986 68.4295 111.818C68.2429 111.641 68.1169 111.398 68.0515 111.09H67.9535C67.4869 111.585 67.0062 111.93 66.5115 112.126C65.8395 112.117 65.3122 111.939 64.9295 111.594C64.5469 111.249 64.3555 110.777 64.3555 110.18C64.3555 109.713 64.4722 109.349 64.7055 109.088C64.9482 108.817 65.3122 108.635 65.7975 108.542L67.9395 108.136V107.562C67.9395 106.955 67.6409 106.652 67.0435 106.652C66.7542 106.652 66.4462 106.717 66.1195 106.848C65.8022 106.979 65.4429 107.184 65.0415 107.464L64.9015 107.38L64.6915 106.148C65.0929 105.896 65.5222 105.705 65.9795 105.574C66.4369 105.434 66.8942 105.364 67.3515 105.364ZM66.4415 109.396C66.2922 109.433 66.1802 109.499 66.1055 109.592C66.0402 109.676 66.0075 109.807 66.0075 109.984C66.0075 110.227 66.0729 110.418 66.2035 110.558C66.3342 110.689 66.5162 110.754 66.7495 110.754C67.1135 110.754 67.4962 110.539 67.8975 110.11L67.9255 109.074L66.4415 109.396ZM79.2458 112L79.3578 107.94C79.3578 107.249 79.0638 106.904 78.4758 106.904C78.0558 106.904 77.6171 107.091 77.1598 107.464L77.1178 109.144L77.2018 112H75.3398L75.4518 107.94C75.4611 107.604 75.3864 107.347 75.2278 107.17C75.0784 106.993 74.8591 106.904 74.5698 106.904C74.1591 106.904 73.7064 107.1 73.2118 107.492V109.13L73.2958 112H71.4478L71.5458 109.312L71.4758 105.616L73.2258 105.462V106.414H73.3238C73.8371 105.947 74.4018 105.611 75.0178 105.406C76.0631 105.406 76.7304 105.756 77.0198 106.456H77.1038C77.6358 105.961 78.2424 105.611 78.9238 105.406C79.6331 105.406 80.1698 105.569 80.5338 105.896C80.9071 106.213 81.0844 106.675 81.0658 107.282L81.0238 109.144L81.1078 112H79.2458ZM85.3027 105.364C86.0214 105.364 86.5814 105.527 86.9827 105.854C87.3934 106.171 87.5987 106.619 87.5987 107.198C87.5987 107.366 87.5707 107.898 87.5147 108.794C87.5054 109.055 87.4914 109.326 87.4727 109.606C87.4541 109.877 87.4447 110.11 87.4447 110.306C87.4447 110.465 87.4681 110.577 87.5147 110.642C87.5614 110.698 87.6454 110.726 87.7667 110.726C87.8601 110.726 87.9814 110.707 88.1307 110.67L88.2707 110.782L88.1027 111.762C87.8041 111.958 87.4634 112.075 87.0807 112.112C86.8007 112.084 86.5674 111.986 86.3807 111.818C86.1941 111.641 86.0681 111.398 86.0027 111.09H85.9047C85.4381 111.585 84.9574 111.93 84.4627 112.126C83.7907 112.117 83.2634 111.939 82.8807 111.594C82.4981 111.249 82.3067 110.777 82.3067 110.18C82.3067 109.713 82.4234 109.349 82.6567 109.088C82.8994 108.817 83.2634 108.635 83.7487 108.542L85.8907 108.136V107.562C85.8907 106.955 85.5921 106.652 84.9947 106.652C84.7054 106.652 84.3974 106.717 84.0707 106.848C83.7534 106.979 83.3941 107.184 82.9927 107.464L82.8527 107.38L82.6427 106.148C83.0441 105.896 83.4734 105.705 83.9307 105.574C84.3881 105.434 84.8454 105.364 85.3027 105.364ZM84.3927 109.396C84.2434 109.433 84.1314 109.499 84.0567 109.592C83.9914 109.676 83.9587 109.807 83.9587 109.984C83.9587 110.227 84.0241 110.418 84.1547 110.558C84.2854 110.689 84.4674 110.754 84.7007 110.754C85.0647 110.754 85.4474 110.539 85.8487 110.11L85.8767 109.074L84.3927 109.396ZM94.913 109.13L94.955 110.306C94.955 110.465 94.9736 110.577 95.011 110.642C95.0576 110.698 95.137 110.726 95.249 110.726C95.3516 110.726 95.4776 110.707 95.627 110.67L95.753 110.782L95.599 111.762C95.2816 111.958 94.9363 112.075 94.563 112.112C94.2736 112.084 94.031 111.986 93.835 111.818C93.639 111.65 93.5036 111.421 93.429 111.132H93.317C92.8596 111.552 92.393 111.874 91.917 112.098C91.0023 112.098 90.293 111.809 89.789 111.23C89.285 110.642 89.033 109.83 89.033 108.794C89.033 107.693 89.3223 106.848 89.901 106.26C90.4796 105.672 91.2823 105.378 92.309 105.378C92.5796 105.378 92.8783 105.406 93.205 105.462L93.177 102.312L95.025 102.172L94.913 109.13ZM92.183 106.638C91.2496 106.638 90.783 107.231 90.783 108.416C90.783 109.153 90.895 109.709 91.119 110.082C91.343 110.455 91.6696 110.642 92.099 110.642C92.5096 110.642 92.8876 110.451 93.233 110.068L93.261 109.298L93.219 106.89C92.855 106.722 92.5096 106.638 92.183 106.638ZM99.4121 105.364C100.131 105.364 100.691 105.527 101.092 105.854C101.503 106.171 101.708 106.619 101.708 107.198C101.708 107.366 101.68 107.898 101.624 108.794C101.615 109.055 101.601 109.326 101.582 109.606C101.563 109.877 101.554 110.11 101.554 110.306C101.554 110.465 101.577 110.577 101.624 110.642C101.671 110.698 101.755 110.726 101.876 110.726C101.969 110.726 102.091 110.707 102.24 110.67L102.38 110.782L102.212 111.762C101.913 111.958 101.573 112.075 101.19 112.112C100.91 112.084 100.677 111.986 100.49 111.818C100.303 111.641 100.177 111.398 100.112 111.09H100.014C99.5474 111.585 99.0668 111.93 98.5721 112.126C97.9001 112.117 97.3728 111.939 96.9901 111.594C96.6074 111.249 96.4161 110.777 96.4161 110.18C96.4161 109.713 96.5328 109.349 96.7661 109.088C97.0088 108.817 97.3728 108.635 97.8581 108.542L100 108.136V107.562C100 106.955 99.7014 106.652 99.1041 106.652C98.8148 106.652 98.5068 106.717 98.1801 106.848C97.8628 106.979 97.5034 107.184 97.1021 107.464L96.9621 107.38L96.7521 106.148C97.1534 105.896 97.5828 105.705 98.0401 105.574C98.4974 105.434 98.9548 105.364 99.4121 105.364ZM98.5021 109.396C98.3528 109.433 98.2408 109.499 98.1661 109.592C98.1008 109.676 98.0681 109.807 98.0681 109.984C98.0681 110.227 98.1334 110.418 98.2641 110.558C98.3948 110.689 98.5768 110.754 98.8101 110.754C99.1741 110.754 99.5568 110.539 99.9581 110.11L99.9861 109.074L98.5021 109.396ZM105.774 105.378C106.409 105.378 107.006 105.485 107.566 105.7L107.314 107.072L107.09 107.142C106.82 106.965 106.549 106.829 106.278 106.736C106.008 106.643 105.77 106.596 105.564 106.596C105.34 106.596 105.163 106.657 105.032 106.778C104.902 106.89 104.836 107.03 104.836 107.198C104.836 107.394 104.92 107.553 105.088 107.674C105.266 107.795 105.541 107.931 105.914 108.08C106.288 108.229 106.596 108.374 106.838 108.514C107.081 108.654 107.286 108.85 107.454 109.102C107.632 109.345 107.72 109.648 107.72 110.012C107.72 110.385 107.622 110.735 107.426 111.062C107.24 111.379 106.95 111.641 106.558 111.846C106.166 112.042 105.686 112.14 105.116 112.14C104.444 112.14 103.749 112 103.03 111.72L103.24 110.264L103.422 110.152C103.712 110.395 104.034 110.591 104.388 110.74C104.743 110.88 105.056 110.95 105.326 110.95C105.578 110.95 105.774 110.889 105.914 110.768C106.054 110.637 106.124 110.483 106.124 110.306C106.124 110.11 106.036 109.951 105.858 109.83C105.69 109.709 105.42 109.573 105.046 109.424C104.664 109.256 104.351 109.107 104.108 108.976C103.866 108.836 103.656 108.64 103.478 108.388C103.31 108.136 103.226 107.823 103.226 107.45C103.226 106.843 103.455 106.349 103.912 105.966C104.37 105.574 104.99 105.378 105.774 105.378ZM113.757 105.364C114.065 105.364 114.368 105.397 114.667 105.462C114.975 105.518 115.245 105.602 115.479 105.714L115.171 107.198L115.017 107.268C114.541 107.007 114.116 106.876 113.743 106.876C113.313 106.876 112.982 107.03 112.749 107.338C112.515 107.646 112.399 108.085 112.399 108.654C112.399 109.307 112.525 109.807 112.777 110.152C113.029 110.497 113.388 110.67 113.855 110.67C114.275 110.67 114.741 110.553 115.255 110.32L115.395 110.432L115.213 111.874C114.653 112.051 114.079 112.14 113.491 112.14C112.595 112.14 111.895 111.851 111.391 111.272C110.887 110.684 110.635 109.867 110.635 108.822C110.635 107.739 110.91 106.895 111.461 106.288C112.011 105.672 112.777 105.364 113.757 105.364ZM119.171 105.364C120.123 105.364 120.851 105.644 121.355 106.204C121.859 106.764 122.111 107.571 122.111 108.626C122.111 109.765 121.841 110.637 121.299 111.244C120.758 111.841 119.979 112.14 118.961 112.14C118.009 112.14 117.281 111.86 116.777 111.3C116.273 110.74 116.021 109.933 116.021 108.878C116.021 107.739 116.292 106.871 116.833 106.274C117.375 105.667 118.154 105.364 119.171 105.364ZM119.045 106.624C118.597 106.624 118.271 106.773 118.065 107.072C117.869 107.371 117.771 107.851 117.771 108.514C117.771 109.373 117.874 109.984 118.079 110.348C118.285 110.712 118.621 110.894 119.087 110.894C119.535 110.894 119.857 110.749 120.053 110.46C120.259 110.161 120.361 109.676 120.361 109.004C120.361 108.155 120.254 107.548 120.039 107.184C119.834 106.811 119.503 106.624 119.045 106.624ZM131.103 112L131.215 107.94C131.215 107.249 130.921 106.904 130.333 106.904C129.913 106.904 129.475 107.091 129.017 107.464L128.975 109.144L129.059 112H127.197L127.309 107.94C127.319 107.604 127.244 107.347 127.085 107.17C126.936 106.993 126.717 106.904 126.427 106.904C126.017 106.904 125.564 107.1 125.069 107.492V109.13L125.153 112H123.305L123.403 109.312L123.333 105.616L125.083 105.462V106.414H125.181C125.695 105.947 126.259 105.611 126.875 105.406C127.921 105.406 128.588 105.756 128.877 106.456H128.961C129.493 105.961 130.1 105.611 130.781 105.406C131.491 105.406 132.027 105.569 132.391 105.896C132.765 106.213 132.942 106.675 132.923 107.282L132.881 109.144L132.965 112H131.103ZM57.07 128L57.182 123.94C57.182 123.249 56.888 122.904 56.3 122.904C55.88 122.904 55.4413 123.091 54.984 123.464L54.942 125.144L55.026 128H53.164L53.276 123.94C53.2853 123.604 53.2106 123.347 53.052 123.17C52.9026 122.993 52.6833 122.904 52.394 122.904C51.9833 122.904 51.5306 123.1 51.036 123.492V125.13L51.12 128H49.272L49.37 125.312L49.3 121.616L51.05 121.462V122.414H51.148C51.6613 121.947 52.226 121.611 52.842 121.406C53.8873 121.406 54.5546 121.756 54.844 122.456H54.928C55.46 121.961 56.0666 121.611 56.748 121.406C57.4573 121.406 57.994 121.569 58.358 121.896C58.7313 122.213 58.9086 122.675 58.89 123.282L58.848 125.144L58.932 128H57.07ZM63.2669 121.364C64.2189 121.364 64.9469 121.644 65.4509 122.204C65.9549 122.764 66.2069 123.571 66.2069 124.626C66.2069 125.765 65.9363 126.637 65.3949 127.244C64.8536 127.841 64.0743 128.14 63.0569 128.14C62.1049 128.14 61.3769 127.86 60.8729 127.3C60.3689 126.74 60.1169 125.933 60.1169 124.878C60.1169 123.739 60.3876 122.871 60.9289 122.274C61.4703 121.667 62.2496 121.364 63.2669 121.364ZM63.1409 122.624C62.6929 122.624 62.3663 122.773 62.1609 123.072C61.9649 123.371 61.8669 123.851 61.8669 124.514C61.8669 125.373 61.9696 125.984 62.1749 126.348C62.3803 126.712 62.7163 126.894 63.1829 126.894C63.6309 126.894 63.9529 126.749 64.1489 126.46C64.3543 126.161 64.4569 125.676 64.4569 125.004C64.4569 124.155 64.3496 123.548 64.1349 123.184C63.9296 122.811 63.5983 122.624 63.1409 122.624ZM68.5368 122.526L69.5168 126.25H69.6148L70.7908 122.624L71.0288 121.49H72.6528L70.4688 128H68.4668L66.6188 121.532L68.3548 121.448L68.5368 122.526ZM73.6792 125.312L73.6092 121.616L75.4432 121.462L75.3592 125.13L75.4432 128H73.5812L73.6792 125.312ZM74.5612 118.298C74.8506 118.298 75.0746 118.382 75.2332 118.55C75.4012 118.718 75.4852 118.951 75.4852 119.25C75.4852 119.567 75.3966 119.819 75.2192 120.006C75.0419 120.193 74.7992 120.286 74.4912 120.286C74.1832 120.286 73.9452 120.202 73.7772 120.034C73.6186 119.866 73.5392 119.628 73.5392 119.32C73.5392 119.012 73.6279 118.765 73.8052 118.578C73.9919 118.391 74.2439 118.298 74.5612 118.298ZM85.0016 128L85.1136 123.94C85.1136 123.249 84.8196 122.904 84.2316 122.904C83.8116 122.904 83.3729 123.091 82.9156 123.464L82.8736 125.144L82.9576 128H81.0956L81.2076 123.94C81.2169 123.604 81.1423 123.347 80.9836 123.17C80.8343 122.993 80.6149 122.904 80.3256 122.904C79.9149 122.904 79.4623 123.1 78.9676 123.492V125.13L79.0516 128H77.2036L77.3016 125.312L77.2316 121.616L78.9816 121.462V122.414H79.0796C79.5929 121.947 80.1576 121.611 80.7736 121.406C81.8189 121.406 82.4863 121.756 82.7756 122.456H82.8596C83.3916 121.961 83.9983 121.611 84.6796 121.406C85.3889 121.406 85.9256 121.569 86.2896 121.896C86.6629 122.213 86.8403 122.675 86.8216 123.282L86.7796 125.144L86.8636 128H85.0016ZM93.5366 124.976L89.7566 125.004C89.8406 126.171 90.4332 126.754 91.5346 126.754C92.1132 126.754 92.7572 126.591 93.4666 126.264L93.6206 126.362L93.3406 127.748C92.6312 128.009 91.9639 128.14 91.3386 128.14C90.3119 128.14 89.5046 127.841 88.9166 127.244C88.3379 126.647 88.0486 125.821 88.0486 124.766C88.0486 123.721 88.3332 122.895 88.9026 122.288C89.4719 121.672 90.2419 121.364 91.2126 121.364C92.0432 121.364 92.6826 121.593 93.1306 122.05C93.5879 122.498 93.8166 123.128 93.8166 123.94C93.8166 124.155 93.7932 124.425 93.7466 124.752L93.5366 124.976ZM92.1926 123.73C92.1926 123.357 92.1086 123.077 91.9406 122.89C91.7726 122.694 91.5252 122.596 91.1986 122.596C90.8346 122.596 90.5312 122.717 90.2886 122.96C90.0459 123.193 89.8826 123.534 89.7986 123.982L92.1646 123.926L92.1926 123.73ZM99.1041 123.94C99.1134 123.613 99.0388 123.361 98.8801 123.184C98.7308 122.997 98.5114 122.904 98.2221 122.904C97.8021 122.904 97.3541 123.105 96.8781 123.506V125.13L96.9621 128H95.1001L95.1981 125.312L95.1281 121.616L96.8921 121.462V122.414H96.9901C97.5034 121.947 98.0634 121.611 98.6701 121.406C99.3794 121.406 99.9208 121.569 100.294 121.896C100.667 122.213 100.845 122.675 100.826 123.282L100.784 125.144L100.868 128H98.9921L99.1041 123.94ZM105.142 126.628C105.441 126.628 105.754 126.549 106.08 126.39L106.234 126.53L106.052 127.636C105.576 127.879 105.091 128.028 104.596 128.084C103.336 127.953 102.706 127.337 102.706 126.236L102.776 125.074L102.762 122.666H101.894L101.824 122.568L101.922 121.546H102.748V120.468L104.442 119.922L104.568 120.034L104.526 121.546H106.192L106.248 121.644L106.164 122.666H104.498L104.414 125.802C104.414 126.101 104.47 126.315 104.582 126.446C104.694 126.567 104.881 126.628 105.142 126.628ZM109.847 121.364C110.799 121.364 111.527 121.644 112.031 122.204C112.535 122.764 112.787 123.571 112.787 124.626C112.787 125.765 112.516 126.637 111.975 127.244C111.434 127.841 110.654 128.14 109.637 128.14C108.685 128.14 107.957 127.86 107.453 127.3C106.949 126.74 106.697 125.933 106.697 124.878C106.697 123.739 106.968 122.871 107.509 122.274C108.05 121.667 108.83 121.364 109.847 121.364ZM109.721 122.624C109.273 122.624 108.946 122.773 108.741 123.072C108.545 123.371 108.447 123.851 108.447 124.514C108.447 125.373 108.55 125.984 108.755 126.348C108.96 126.712 109.296 126.894 109.763 126.894C110.211 126.894 110.533 126.749 110.729 126.46C110.934 126.161 111.037 125.676 111.037 125.004C111.037 124.155 110.93 123.548 110.715 123.184C110.51 122.811 110.178 122.624 109.721 122.624ZM116.247 121.378C116.882 121.378 117.479 121.485 118.039 121.7L117.787 123.072L117.563 123.142C117.292 122.965 117.022 122.829 116.751 122.736C116.48 122.643 116.242 122.596 116.037 122.596C115.813 122.596 115.636 122.657 115.505 122.778C115.374 122.89 115.309 123.03 115.309 123.198C115.309 123.394 115.393 123.553 115.561 123.674C115.738 123.795 116.014 123.931 116.387 124.08C116.76 124.229 117.068 124.374 117.311 124.514C117.554 124.654 117.759 124.85 117.927 125.102C118.104 125.345 118.193 125.648 118.193 126.012C118.193 126.385 118.095 126.735 117.899 127.062C117.712 127.379 117.423 127.641 117.031 127.846C116.639 128.042 116.158 128.14 115.589 128.14C114.917 128.14 114.222 128 113.503 127.72L113.713 126.264L113.895 126.152C114.184 126.395 114.506 126.591 114.861 126.74C115.216 126.88 115.528 126.95 115.799 126.95C116.051 126.95 116.247 126.889 116.387 126.768C116.527 126.637 116.597 126.483 116.597 126.306C116.597 126.11 116.508 125.951 116.331 125.83C116.163 125.709 115.892 125.573 115.519 125.424C115.136 125.256 114.824 125.107 114.581 124.976C114.338 124.836 114.128 124.64 113.951 124.388C113.783 124.136 113.699 123.823 113.699 123.45C113.699 122.843 113.928 122.349 114.385 121.966C114.842 121.574 115.463 121.378 116.247 121.378ZM55.2931 137.406C56.1051 137.406 56.7305 137.681 57.1691 138.232C57.6078 138.783 57.8271 139.562 57.8271 140.57C57.8271 141.709 57.5425 142.591 56.9731 143.216C56.4131 143.832 55.6198 144.14 54.5931 144.14C54.2945 144.14 53.9818 144.112 53.6551 144.056L53.6971 146.59H51.8491L51.9471 141.312L51.8631 137.616L53.6411 137.462L53.6271 138.414H53.7251C53.9865 138.162 54.2385 137.961 54.4811 137.812C54.7238 137.653 54.9945 137.518 55.2931 137.406ZM54.6071 142.922C55.0925 142.922 55.4611 142.749 55.7131 142.404C55.9651 142.059 56.0911 141.55 56.0911 140.878C56.0911 140.225 55.9838 139.735 55.7691 139.408C55.5638 139.072 55.2558 138.904 54.8451 138.904C54.4438 138.904 54.0378 139.105 53.6271 139.506L53.6131 141.13L53.6411 142.712C53.9771 142.852 54.2991 142.922 54.6071 142.922ZM60.9152 141.13L61.0132 144H59.1512L59.2492 141.298L59.1652 134.312L61.0272 134.172L60.9152 141.13ZM65.3349 137.364C66.0536 137.364 66.6136 137.527 67.0149 137.854C67.4256 138.171 67.6309 138.619 67.6309 139.198C67.6309 139.366 67.6029 139.898 67.5469 140.794C67.5376 141.055 67.5236 141.326 67.5049 141.606C67.4863 141.877 67.4769 142.11 67.4769 142.306C67.4769 142.465 67.5003 142.577 67.5469 142.642C67.5936 142.698 67.6776 142.726 67.7989 142.726C67.8923 142.726 68.0136 142.707 68.1629 142.67L68.3029 142.782L68.1349 143.762C67.8363 143.958 67.4956 144.075 67.1129 144.112C66.8329 144.084 66.5996 143.986 66.4129 143.818C66.2263 143.641 66.1003 143.398 66.0349 143.09H65.9369C65.4703 143.585 64.9896 143.93 64.4949 144.126C63.8229 144.117 63.2956 143.939 62.9129 143.594C62.5303 143.249 62.3389 142.777 62.3389 142.18C62.3389 141.713 62.4556 141.349 62.6889 141.088C62.9316 140.817 63.2956 140.635 63.7809 140.542L65.9229 140.136V139.562C65.9229 138.955 65.6243 138.652 65.0269 138.652C64.7376 138.652 64.4296 138.717 64.1029 138.848C63.7856 138.979 63.4263 139.184 63.0249 139.464L62.8849 139.38L62.6749 138.148C63.0763 137.896 63.5056 137.705 63.9629 137.574C64.4203 137.434 64.8776 137.364 65.3349 137.364ZM64.4249 141.396C64.2756 141.433 64.1636 141.499 64.0889 141.592C64.0236 141.676 63.9909 141.807 63.9909 141.984C63.9909 142.227 64.0563 142.418 64.1869 142.558C64.3176 142.689 64.4996 142.754 64.7329 142.754C65.0969 142.754 65.4796 142.539 65.8809 142.11L65.9089 141.074L64.4249 141.396ZM73.4351 139.94C73.4445 139.613 73.3698 139.361 73.2111 139.184C73.0618 138.997 72.8425 138.904 72.5531 138.904C72.1331 138.904 71.6851 139.105 71.2091 139.506V141.13L71.2931 144H69.4311L69.5291 141.312L69.4591 137.616L71.2231 137.462V138.414H71.3211C71.8345 137.947 72.3945 137.611 73.0011 137.406C73.7105 137.406 74.2518 137.569 74.6251 137.896C74.9985 138.213 75.1758 138.675 75.1571 139.282L75.1151 141.144L75.1991 144H73.3231L73.4351 139.94ZM81.8813 140.976L78.1013 141.004C78.1853 142.171 78.778 142.754 79.8793 142.754C80.458 142.754 81.102 142.591 81.8113 142.264L81.9653 142.362L81.6853 143.748C80.976 144.009 80.3086 144.14 79.6833 144.14C78.6566 144.14 77.8493 143.841 77.2613 143.244C76.6826 142.647 76.3933 141.821 76.3933 140.766C76.3933 139.721 76.678 138.895 77.2473 138.288C77.8166 137.672 78.5866 137.364 79.5573 137.364C80.388 137.364 81.0273 137.593 81.4753 138.05C81.9326 138.498 82.1613 139.128 82.1613 139.94C82.1613 140.155 82.138 140.425 82.0913 140.752L81.8813 140.976ZM80.5373 139.73C80.5373 139.357 80.4533 139.077 80.2853 138.89C80.1173 138.694 79.87 138.596 79.5433 138.596C79.1793 138.596 78.876 138.717 78.6333 138.96C78.3906 139.193 78.2273 139.534 78.1433 139.982L80.5093 139.926L80.5373 139.73ZM85.6708 137.49L85.5588 141.13L85.6428 143.622C85.6428 144.359 85.4655 144.971 85.1108 145.456C84.7562 145.941 84.1728 146.366 83.3608 146.73L82.7168 145.904V145.736C83.1368 145.503 83.4355 145.227 83.6128 144.91C83.7902 144.593 83.8788 144.182 83.8788 143.678L83.9068 141.312L83.8508 138.666H82.7168L82.6048 138.554L82.7028 137.546H83.8788L85.6148 137.448L85.6708 137.49ZM84.5928 134.298C84.8822 134.298 85.1062 134.382 85.2648 134.55C85.4328 134.718 85.5168 134.951 85.5168 135.25C85.5168 135.567 85.4282 135.819 85.2508 136.006C85.0735 136.193 84.8308 136.286 84.5228 136.286C84.2148 136.286 83.9768 136.202 83.8088 136.034C83.6502 135.866 83.5708 135.628 83.5708 135.32C83.5708 135.012 83.6595 134.765 83.8368 134.578C84.0235 134.391 84.2755 134.298 84.5928 134.298ZM89.999 137.364C90.7177 137.364 91.2777 137.527 91.679 137.854C92.0897 138.171 92.295 138.619 92.295 139.198C92.295 139.366 92.267 139.898 92.211 140.794C92.2017 141.055 92.1877 141.326 92.169 141.606C92.1503 141.877 92.141 142.11 92.141 142.306C92.141 142.465 92.1643 142.577 92.211 142.642C92.2577 142.698 92.3417 142.726 92.463 142.726C92.5563 142.726 92.6777 142.707 92.827 142.67L92.967 142.782L92.799 143.762C92.5003 143.958 92.1597 144.075 91.777 144.112C91.497 144.084 91.2637 143.986 91.077 143.818C90.8903 143.641 90.7643 143.398 90.699 143.09H90.601C90.1343 143.585 89.6537 143.93 89.159 144.126C88.487 144.117 87.9597 143.939 87.577 143.594C87.1943 143.249 87.003 142.777 87.003 142.18C87.003 141.713 87.1197 141.349 87.353 141.088C87.5957 140.817 87.9597 140.635 88.445 140.542L90.587 140.136V139.562C90.587 138.955 90.2883 138.652 89.691 138.652C89.4017 138.652 89.0937 138.717 88.767 138.848C88.4497 138.979 88.0903 139.184 87.689 139.464L87.549 139.38L87.339 138.148C87.7403 137.896 88.1697 137.705 88.627 137.574C89.0843 137.434 89.5417 137.364 89.999 137.364ZM89.089 141.396C88.9397 141.433 88.8277 141.499 88.753 141.592C88.6877 141.676 88.655 141.807 88.655 141.984C88.655 142.227 88.7203 142.418 88.851 142.558C88.9817 142.689 89.1637 142.754 89.397 142.754C89.761 142.754 90.1437 142.539 90.545 142.11L90.573 141.074L89.089 141.396ZM99.6092 141.13L99.6512 142.306C99.6512 142.465 99.6699 142.577 99.7072 142.642C99.7539 142.698 99.8332 142.726 99.9452 142.726C100.048 142.726 100.174 142.707 100.323 142.67L100.449 142.782L100.295 143.762C99.9779 143.958 99.6326 144.075 99.2592 144.112C98.9699 144.084 98.7272 143.986 98.5312 143.818C98.3352 143.65 98.1999 143.421 98.1252 143.132H98.0132C97.5559 143.552 97.0892 143.874 96.6132 144.098C95.6986 144.098 94.9892 143.809 94.4852 143.23C93.9812 142.642 93.7292 141.83 93.7292 140.794C93.7292 139.693 94.0186 138.848 94.5972 138.26C95.1759 137.672 95.9786 137.378 97.0052 137.378C97.2759 137.378 97.5746 137.406 97.9012 137.462L97.8732 134.312L99.7212 134.172L99.6092 141.13ZM96.8792 138.638C95.9459 138.638 95.4792 139.231 95.4792 140.416C95.4792 141.153 95.5912 141.709 95.8152 142.082C96.0392 142.455 96.3659 142.642 96.7952 142.642C97.2059 142.642 97.5839 142.451 97.9292 142.068L97.9572 141.298L97.9152 138.89C97.5512 138.722 97.2059 138.638 96.8792 138.638ZM104.248 137.364C105.2 137.364 105.928 137.644 106.432 138.204C106.936 138.764 107.188 139.571 107.188 140.626C107.188 141.765 106.918 142.637 106.376 143.244C105.835 143.841 105.056 144.14 104.038 144.14C103.086 144.14 102.358 143.86 101.854 143.3C101.35 142.74 101.098 141.933 101.098 140.878C101.098 139.739 101.369 138.871 101.91 138.274C102.452 137.667 103.231 137.364 104.248 137.364ZM104.122 138.624C103.674 138.624 103.348 138.773 103.142 139.072C102.946 139.371 102.848 139.851 102.848 140.514C102.848 141.373 102.951 141.984 103.156 142.348C103.362 142.712 103.698 142.894 104.164 142.894C104.612 142.894 104.934 142.749 105.13 142.46C105.336 142.161 105.438 141.676 105.438 141.004C105.438 140.155 105.331 139.548 105.116 139.184C104.911 138.811 104.58 138.624 104.122 138.624ZM110.648 137.378C111.283 137.378 111.88 137.485 112.44 137.7L112.188 139.072L111.964 139.142C111.694 138.965 111.423 138.829 111.152 138.736C110.882 138.643 110.644 138.596 110.438 138.596C110.214 138.596 110.037 138.657 109.906 138.778C109.776 138.89 109.71 139.03 109.71 139.198C109.71 139.394 109.794 139.553 109.962 139.674C110.14 139.795 110.415 139.931 110.788 140.08C111.162 140.229 111.47 140.374 111.712 140.514C111.955 140.654 112.16 140.85 112.328 141.102C112.506 141.345 112.594 141.648 112.594 142.012C112.594 142.385 112.496 142.735 112.3 143.062C112.114 143.379 111.824 143.641 111.432 143.846C111.04 144.042 110.56 144.14 109.99 144.14C109.318 144.14 108.623 144 107.904 143.72L108.114 142.264L108.296 142.152C108.586 142.395 108.908 142.591 109.262 142.74C109.617 142.88 109.93 142.95 110.2 142.95C110.452 142.95 110.648 142.889 110.788 142.768C110.928 142.637 110.998 142.483 110.998 142.306C110.998 142.11 110.91 141.951 110.732 141.83C110.564 141.709 110.294 141.573 109.92 141.424C109.538 141.256 109.225 141.107 108.982 140.976C108.74 140.836 108.53 140.64 108.352 140.388C108.184 140.136 108.1 139.823 108.1 139.45C108.1 138.843 108.329 138.349 108.786 137.966C109.244 137.574 109.864 137.378 110.648 137.378ZM114.444 142.11C114.733 142.11 114.957 142.194 115.116 142.362C115.284 142.53 115.368 142.763 115.368 143.062C115.368 143.379 115.279 143.631 115.102 143.818C114.924 144.005 114.682 144.098 114.374 144.098C114.066 144.098 113.828 144.014 113.66 143.846C113.501 143.678 113.422 143.44 113.422 143.132C113.422 142.824 113.51 142.577 113.688 142.39C113.874 142.203 114.126 142.11 114.444 142.11Z" fill="white"/>
<defs>
<filter id="filter0_b_206:36546" x="3" y="67" width="161" height="97" filterUnits="userSpaceOnUse" color-interpolation-filters="sRGB">
<feFlood flood-opacity="0" result="BackgroundImageFix"/>
<feGaussianBlur in="BackgroundImage" stdDeviation="5"/>
<feComposite in2="SourceAlpha" operator="in" result="effect1_backgroundBlur_206:36546"/>
<feBlend mode="normal" in="SourceGraphic" in2="effect1_backgroundBlur_206:36546" result="shape"/>
</filter>
</defs>
</svg>
