<svg width="167" height="167" viewBox="0 0 167 167" fill="none" xmlns="http://www.w3.org/2000/svg">
<mask id="mask0_206:36173" style="mask-type:alpha" maskUnits="userSpaceOnUse" x="0" y="0" width="167" height="167">
<rect x="1" y="1" width="165" height="165" rx="8" fill="#5988D6" stroke="#EDE6FC" stroke-opacity="0.3"/>
</mask>
<g mask="url(#mask0_206:36173)">
<rect x="1" y="1" width="165" height="165" rx="8" fill="#A9D97A" stroke="#EDE6FC" stroke-opacity="0.3"/>
<path d="M77.5923 155.492V159.858C77.592 160.031 77.523 160.197 77.4003 160.32C77.2777 160.442 77.1115 160.511 76.9382 160.511H66.6977C66.538 160.51 66.3828 160.458 66.2552 160.362C66.1276 160.266 66.0344 160.131 65.9896 159.978C65.9447 159.825 65.9505 159.661 66.0062 159.512C66.0619 159.362 66.1645 159.234 66.2986 159.148L71.9084 155.492C71.9084 155.492 74.2973 157.136 77.5923 155.492Z" fill="#45258F"/>
<path d="M100.172 155.492V159.858C100.172 159.944 100.189 160.029 100.222 160.108C100.255 160.187 100.303 160.259 100.364 160.32C100.425 160.381 100.497 160.429 100.576 160.462C100.655 160.494 100.741 160.511 100.826 160.511H111.066C111.225 160.51 111.381 160.458 111.508 160.362C111.636 160.266 111.729 160.131 111.774 159.978C111.819 159.825 111.813 159.661 111.757 159.512C111.702 159.362 111.599 159.234 111.465 159.148L105.855 155.492C105.855 155.492 103.466 157.136 100.172 155.492Z" fill="#45258F"/>
<path d="M42.6889 42.2864C42.6889 42.2864 43.7749 43.2496 43.7749 43.7142C43.7749 44.1789 44.7063 48.545 44.7063 50.5031C44.7063 52.4613 39.0584 53.9865 39.0584 53.9865L37.6136 50.5074C37.6136 50.5074 38.3884 43.945 38.4879 43.945C38.5874 43.945 42.6889 42.2864 42.6889 42.2864Z" fill="#EFAC7F"/>
<path d="M40.7106 40.034L38.6805 40.1493L35.7571 40.3155L38.0349 50.3327L39.2563 50.2639L41.2854 50.1485L42.5068 50.0787L43.6351 39.8678L40.7106 40.034Z" fill="#3797DB"/>
<path d="M44.0035 40.8034L35.4978 41.2871C35.4146 41.2912 35.3331 41.2624 35.271 41.207C35.2088 41.1515 35.1709 41.0739 35.1654 40.9908L35.14 40.5388C35.136 40.4556 35.1647 40.3741 35.2202 40.312C35.2756 40.2498 35.3533 40.2119 35.4364 40.2065L43.9421 39.7227C44.0251 39.719 44.1063 39.7479 44.1682 39.8033C44.2302 39.8587 44.2679 39.9362 44.2734 40.0191L44.2999 40.4711C44.3039 40.5543 44.2751 40.6357 44.2197 40.6979C44.1643 40.7601 44.0866 40.798 44.0035 40.8034Z" fill="#68B1E4"/>
<path opacity="0.3" d="M37.2844 42.7796C36.9676 42.7979 36.6554 42.8639 36.3583 42.9754L37.7343 49.0086C38.5603 48.9494 39.3289 48.5644 39.8711 47.9385C40.4133 47.3125 40.6846 46.4968 40.6254 45.6708C40.5662 44.8448 40.1812 44.0761 39.5553 43.5339C38.9293 42.9917 38.1136 42.7204 37.2876 42.7796H37.2844Z" fill="#DAEEF7"/>
<path d="M66.793 78.4292C72.1191 85.0106 82.7618 94.5039 82.7618 94.5039L77.5871 156.726C77.5871 156.726 72.4896 157.607 70.0467 156.058C70.0467 156.058 66.4458 96.8981 66.793 78.4292Z" fill="#2D185D"/>
<path d="M68.8082 80.8753C68.8252 79.9428 66.7517 82.6938 66.7908 81.9486C67.6048 66.4592 93.4553 79.4464 93.4553 79.4464L99.7647 84.8678L108.021 156.612C108.021 156.612 103.864 158.35 100.148 157.175L82.7628 95.2808C82.7628 95.2808 77.0758 93.2783 68.8082 80.8753Z" fill="#45258F"/>
<path d="M89.7698 30.0126L89.7995 37.1518L82.8518 36.0828L84.0108 28.0544L89.7698 30.0126Z" fill="#EFAC7F"/>
<path opacity="0.6" d="M83.4784 31.7505L84.0076 28.0544L89.7762 30.6868V32.0967C88.3907 32.4385 85.7911 32.7413 83.4784 31.7505Z" fill="#FC8D84"/>
<path d="M79.8045 15.4419L79.3843 20.3426L80.1601 20.8295L81.5933 14.863L79.8045 15.4419Z" fill="#5E2E0D"/>
<path d="M80.8482 19.8366C81.0599 20.9469 80.5126 21.9842 79.6235 22.1546C78.7344 22.325 77.8401 21.564 77.6273 20.4537C77.4146 19.3434 77.9618 18.3061 78.8509 18.1357C79.74 17.9653 80.6344 18.7263 80.8482 19.8366Z" fill="#D19369"/>
<path d="M79.94 25.8994C79.7717 25.4008 79.6498 24.8878 79.5759 24.3668C79.3483 22.9485 79.3811 21.4973 79.5071 20.2505C79.5346 19.9827 79.5462 19.7149 79.5526 19.4461C79.5824 18.2332 79.864 17.0398 80.3795 15.9415C80.8949 14.8433 81.633 13.8641 82.5468 13.0661C83.4607 12.2682 84.5304 11.6689 85.6882 11.3062C86.8459 10.9436 88.0664 10.8255 89.2722 10.9594C90.478 11.0934 91.6428 11.4765 92.6927 12.0844C93.7426 12.6923 94.6547 13.5118 95.3712 14.4909C96.0877 15.47 96.5928 16.5873 96.8546 17.7719C97.1165 18.9565 97.1292 20.1826 96.8921 21.3724C97.4891 21.1819 98.1062 21.2327 98.5856 21.5757C99.5139 22.234 99.5986 23.7063 98.774 24.8643C97.9495 26.0222 96.5301 26.4276 95.5987 25.7692C95.4724 25.6798 95.3594 25.5729 95.2632 25.4517C93.993 29.5638 89.8989 32.1199 85.7816 31.2213C83.8342 30.7956 82.1217 29.6453 80.991 28.0036C80.9064 27.8983 80.8276 27.7884 80.755 27.6745C80.4081 27.1203 80.1341 26.5237 79.94 25.8994Z" fill="#EFAC7F"/>
<path d="M89.0713 20.4495C89.01 20.6001 88.9983 20.7663 89.0379 20.924C89.0775 21.0817 89.1662 21.2227 89.2914 21.3266C89.4165 21.4304 89.5714 21.4917 89.7337 21.5016C89.896 21.5115 90.0572 21.4694 90.194 21.3815C90.3307 21.2936 90.436 21.1644 90.4944 21.0126C90.5528 20.8609 90.5613 20.6945 90.5187 20.5375C90.4762 20.3806 90.3848 20.2413 90.2577 20.1398C90.1307 20.0384 89.9746 19.98 89.8122 19.9732C89.6546 19.9664 89.4989 20.0086 89.3662 20.0938C89.2336 20.1791 89.1305 20.3033 89.0713 20.4495Z" fill="#333333"/>
<path d="M82.566 19.4767C82.505 19.6271 82.4935 19.7931 82.5331 19.9505C82.5727 20.1079 82.6614 20.2486 82.7864 20.3522C82.9113 20.4558 83.066 20.5169 83.228 20.5267C83.39 20.5365 83.5509 20.4945 83.6875 20.4068C83.824 20.319 83.929 20.19 83.9874 20.0386C84.0457 19.8871 84.0543 19.721 84.0119 19.5643C83.9695 19.4077 83.8783 19.2686 83.7516 19.1672C83.6248 19.0658 83.4691 19.0074 83.3069 19.0004C83.1494 18.9935 82.9935 19.0356 82.8608 19.1209C82.7281 19.2062 82.6252 19.3305 82.566 19.4767Z" fill="#333333"/>
<path d="M88.4541 18.8988C88.8309 18.8274 89.2128 18.7867 89.5962 18.7771C89.9532 18.7686 90.3096 18.811 90.6546 18.903C90.9998 18.9929 91.329 19.1358 91.6305 19.3264L91.7512 19.3942C91.7914 19.4175 91.8253 19.4492 91.8644 19.4746L92.0973 19.6376C92.2529 19.7498 92.3926 19.8821 92.5662 19.9975C92.493 19.808 92.4026 19.6255 92.2963 19.4524C92.1809 19.2809 92.0467 19.1229 91.8962 18.9814C91.5878 18.686 91.2088 18.4746 90.7954 18.3675C90.3838 18.2585 89.9519 18.2512 89.5369 18.3463C89.1346 18.4348 88.7618 18.625 88.4541 18.8988Z" fill="#5E2E0D"/>
<path d="M85.4154 18.3993C85.2097 18.041 84.9161 17.7412 84.5623 17.5282C84.1998 17.3047 83.788 17.1735 83.363 17.1461C82.9371 17.1142 82.5101 17.193 82.1236 17.3747C81.9359 17.4604 81.7583 17.5669 81.5944 17.6922C81.4386 17.8227 81.2945 17.9665 81.1636 18.122C81.3647 18.069 81.5404 17.9886 81.7235 17.9314L81.9966 17.852C82.0421 17.8404 82.0844 17.8213 82.1299 17.8118L82.2654 17.7864C82.6116 17.7027 82.9686 17.6727 83.3239 17.6975C83.6815 17.7212 84.034 17.7957 84.3707 17.9187C84.7314 18.0503 85.0807 18.211 85.4154 18.3993Z" fill="#5E2E0D"/>
<path d="M86.6083 18.522C86.6561 19.0715 86.6258 19.6249 86.5183 20.1658C86.4666 20.443 86.3893 20.7147 86.2876 20.9776C86.1812 21.2653 86.014 21.5267 85.7975 21.744C85.5244 21.9556 85.4006 22.0181 85.3191 22.2181C85.2365 22.3885 85.2736 22.6055 85.3614 22.8119C85.5572 23.2353 86.0049 23.5528 86.4971 23.7836C85.9563 23.7582 85.3593 23.5423 85.0058 23.0141C84.9096 22.8761 84.8457 22.7183 84.8188 22.5523C84.7919 22.3863 84.8026 22.2164 84.8502 22.0551C84.9687 21.6921 85.1942 21.5566 85.445 21.3576C85.6078 21.1889 85.7396 20.993 85.8345 20.7787C85.9447 20.545 86.0419 20.3054 86.1256 20.061C86.2907 19.5614 86.4421 19.0438 86.6083 18.522Z" fill="#D19369"/>
<path d="M78.5492 34.3914H83.1006C86.5035 37.8017 89.8037 34.3914 89.8037 34.3914H92.8531C92.8531 34.3914 100.931 76.7643 89.2819 78.8875C77.6326 81.0108 71.5179 77.2469 71.5179 77.2469V57.365L78.5492 34.3914Z" fill="#79AA4D"/>
<path d="M78.5492 34.3914C78.5492 34.3914 75.1166 34.5851 69.129 41.8238C63.1413 49.0625 59.4611 65.857 53.1781 59.7762C46.8952 53.6954 44.7666 50.6068 44.7666 50.6068C44.7666 50.6068 41.1901 51.7658 39.0637 53.9854C39.0637 53.9854 50.0843 74.2547 55.2083 75.3163C60.3322 76.378 71.5211 65.9543 71.5211 65.9543L78.5492 34.3914Z" fill="#3B77BE"/>
<path d="M92.8531 34.3914C92.8531 34.3914 105.612 36.4193 106.772 38.3076C107.932 40.1959 118.722 75.474 110.891 90.0965C110.891 90.0965 106.813 91.4418 103.023 90.2828V94.1927C103.023 94.1927 93.141 96.6536 86.3256 94.1927C86.3256 94.1874 85.7456 47.423 92.8531 34.3914Z" fill="#3797DB"/>
<path d="M78.5492 34.3914C78.5492 34.3914 72.0238 82.7488 73.9089 92.4484C73.9089 92.4484 67.9636 92.8824 64.4887 91.5794C64.4866 91.5805 64.1934 37.4333 78.5492 34.3914Z" fill="#3797DB"/>
<path d="M92.8531 34.3914L97.2277 41.1855L86.3256 94.1864C86.3256 94.1864 85.7456 47.423 92.8531 34.3914Z" fill="#3B77BE"/>
<path d="M73.3352 40.1948L78.5492 34.3914C78.5492 34.3914 72.0238 82.7488 73.9089 92.4484C69.4952 81.8607 73.3352 40.1948 73.3352 40.1948Z" fill="#3B77BE"/>
<path d="M90.1382 85.6775L90.4716 84.3354C90.5439 84.0437 90.7291 83.7927 90.9864 83.6376C91.2438 83.4824 91.5522 83.4359 91.8439 83.5082C92.1356 83.5805 92.3866 83.7657 92.5417 84.023C92.6968 84.2804 92.7434 84.5888 92.6711 84.8805L91.2654 90.5601C91.1932 90.8518 91.008 91.1028 90.7506 91.2579C90.4933 91.413 90.1848 91.4596 89.8932 91.3873C89.6015 91.315 89.3505 91.1298 89.1954 90.8725C89.0402 90.6151 88.9937 90.3067 89.066 90.015L89.3994 88.6729C89.3177 88.6532 89.2407 88.6175 89.1729 88.5678C89.1051 88.5182 89.0478 88.4555 89.0044 88.3836C88.961 88.3116 88.9323 88.2317 88.9199 88.1486C88.9076 88.0654 88.9119 87.9806 88.9326 87.8992L89.3602 86.1496C89.3801 86.0673 89.416 85.9899 89.4659 85.9216C89.5158 85.8533 89.5787 85.7955 89.651 85.7517C89.7233 85.7078 89.8036 85.6787 89.8872 85.6659C89.9708 85.6532 90.0561 85.6571 90.1382 85.6775Z" fill="#DAEEF7"/>
<path d="M90.517 97.2189L114.385 103.127C114.864 103.245 115.369 103.169 115.792 102.915C116.214 102.66 116.518 102.249 116.636 101.77L120.352 86.8058C120.47 86.3272 120.394 85.8211 120.139 85.3987C119.885 84.9763 119.473 84.6723 118.995 84.5535L95.1266 78.6452C94.6482 78.5269 94.1425 78.6034 93.7205 78.8578C93.2986 79.1123 92.9949 79.5239 92.8763 80.0021L89.1601 94.9665C89.1012 95.2035 89.0896 95.4498 89.1259 95.6913C89.1622 95.9327 89.2458 96.1647 89.3718 96.3739C89.4978 96.583 89.6638 96.7653 89.8603 96.9103C90.0568 97.0553 90.28 97.1602 90.517 97.2189Z" fill="#9ED16F"/>
<path d="M103.098 90.2966L104.819 90.7263C104.819 90.7263 106.195 90.8258 106.24 90.8141C106.286 90.8025 107.762 90.7602 107.762 90.7602L110.168 90.3146C109.815 91.8662 108.447 97.385 108.252 97.3797C108.03 97.3797 107.799 94.8034 107.555 94.8902C107.31 94.977 106.496 98.4308 106.276 98.2021C106.056 97.9735 106.425 94.6923 106.22 94.7092C106.016 94.7262 105.275 98.0667 104.832 97.9439C104.388 97.8211 105.322 94.1832 104.93 94.2287C104.538 94.2742 103.675 98.0243 103.289 97.8475C102.964 97.6983 103.826 93.4804 104.109 92.1414C104.117 92.1021 104.114 92.0613 104.101 92.0234C104.087 91.9855 104.064 91.9519 104.033 91.9262C104.002 91.9005 103.965 91.8836 103.926 91.8773C103.886 91.871 103.845 91.8756 103.808 91.8906C101.268 92.8824 101.018 92.8104 100.972 92.5077C100.953 92.3732 101.939 91.3952 103.098 90.2966Z" fill="#EFAC7F"/>
<path d="M113.365 81.4744C113.365 81.4744 112.238 89.0952 110.891 90.0912C110.891 90.0912 106.719 91.4333 102.895 90.3643V86.5983L102.807 78.4292H108.647L113.365 81.4744Z" fill="#3797DB"/>
<path d="M99.5732 56.1563L99.8706 57.3481C99.9701 57.7461 100.054 58.1462 100.146 58.5452L100.281 59.1453L100.407 59.7465C100.49 60.1477 100.577 60.5478 100.654 60.95C100.965 62.5588 101.243 64.1733 101.487 65.7935C101.731 67.4136 101.943 69.0365 102.122 70.6623C102.487 73.9181 102.754 77.182 102.922 80.4541C103.087 83.6971 103.185 86.9413 103.149 90.1918C103.678 90.4106 104.234 90.5569 104.803 90.6268C105.405 90.7053 106.012 90.736 106.619 90.7189C107.229 90.7039 107.837 90.6576 108.442 90.5802C109.047 90.503 109.652 90.4088 110.249 90.2765C109.063 90.5933 107.849 90.7897 106.625 90.8629C106.009 90.9013 105.391 90.891 104.778 90.8322C104.155 90.7773 103.545 90.6296 102.967 90.394L102.891 90.3633V90.2775C102.843 87.0111 102.702 83.7427 102.503 80.4816C102.304 77.2205 102.034 73.9626 101.689 70.7131C101.508 69.0895 101.316 67.4679 101.094 65.8496C100.872 64.2312 100.623 62.617 100.34 61.0082C100.056 59.3994 99.7404 57.7958 99.3869 56.2007C99.0334 54.6056 98.6206 53.0254 98.1697 51.4493C98.7053 52.9968 99.1562 54.5718 99.5732 56.1563Z" fill="#DAEEF7"/>
<path d="M79.7876 13.9167C77.4696 18.2447 87.0327 15.8431 87.0327 15.8431C85.5371 18.0764 93.7433 15.3837 93.7433 15.3837L93.7507 15.3954C93.2415 19.3751 95.8866 26.2889 90.3223 28.6143C90.2927 27.8681 90.117 26.9886 89.591 26.2053C88.8733 25.1363 87.673 24.4917 86.0219 24.2895C84.2595 24.0778 82.8825 24.4081 81.9278 25.2834C81.447 25.7325 81.0854 26.2941 80.8757 26.9177C79.3303 24.6695 79.3843 21.7058 79.3843 21.7058C79.3843 21.7058 76.7477 32.6597 85.0999 33.9204C93.4522 35.181 96.3767 25.7915 95.8961 22.4626C96.1533 21.9789 96.4899 21.5174 96.889 21.3703C97.6447 21.0898 98.1909 21.3354 98.3803 21.4455C98.4031 21.4636 98.4276 21.4795 98.4534 21.4931C103.111 1.75195 84.4882 6.60706 81.3128 8.15663C78.1375 9.7062 80.7148 10.2068 80.7148 10.2068C76.2619 13.3864 79.7876 13.9167 79.7876 13.9167ZM89.538 28.8948C88.6151 29.1743 87.5058 29.3479 86.1743 29.3923C83.9727 29.4664 82.4866 28.7191 81.4811 27.6649C81.6028 27.1082 81.8727 26.3948 82.4633 25.8571C83.2413 25.1469 84.4067 24.8812 85.9266 25.0675C87.3386 25.2411 88.3504 25.7692 88.9358 26.6372C89.4227 27.3611 89.5423 28.2121 89.538 28.8948Z" fill="#5E2E0D"/>
<path d="M87.6487 26.0445C87.2982 26.2404 86.924 26.3905 86.5352 26.4911C86.1511 26.5911 85.753 26.6269 85.3572 26.597C84.963 26.5605 84.5795 26.4483 84.2278 26.2667C83.8753 26.0757 83.5517 25.8355 83.2667 25.5533C83.516 25.8775 83.8241 26.1518 84.1749 26.362C84.3531 26.4659 84.5419 26.5507 84.738 26.615C84.9359 26.6756 85.1395 26.7164 85.3455 26.7367C85.7574 26.768 86.1714 26.7195 86.5648 26.5938C86.9553 26.475 87.322 26.2891 87.6487 26.0445Z" fill="#D19369"/>
<path d="M36.0704 43.3204C36.7943 42.7975 38.3291 41.7391 38.653 41.919C39.0764 42.1561 36.8166 44.0222 36.987 44.1418C37.1574 44.2614 39.6987 43.4009 39.7686 43.7184C39.831 44.0042 37.4283 45.2087 37.4537 45.3812C37.4791 45.5537 39.8935 45.1378 40.0311 45.4236C40.156 45.6818 37.7321 46.4767 37.7194 46.5879C37.6136 47.5405 40.283 47.1658 40.3348 47.4822C40.3719 47.7088 38.6 48.0676 37.5829 48.2539L37.9893 50.2173L37.6125 50.5041L35.775 44.0539C35.75 43.9162 35.7644 43.7743 35.8167 43.6445C35.8689 43.5147 35.9569 43.4023 36.0704 43.3204Z" fill="#EFAC7F"/>
<path d="M99.1572 17.0497C98.0715 17.8616 96.7491 18.2945 95.3934 18.2818C94.8348 18.2811 94.2782 18.2154 93.7348 18.0859C93.7221 17.8912 93.7126 17.6975 93.7041 17.507C94.6366 17.7716 97.0541 18.1897 99.1932 16.3014C99.1862 16.5448 99.1742 16.7943 99.1572 17.0497Z" fill="#D1EAF2"/>
<path d="M93.686 16.2918C93.6913 16.0992 93.7009 15.9108 93.7157 15.7277C94.3126 15.8431 97.307 16.2855 99.1 14.0871C99.1286 14.3337 99.1529 14.5867 99.1688 14.8481C97.8764 16.1267 96.1882 16.3988 94.9869 16.3988C94.551 16.3993 94.1159 16.3636 93.686 16.2918Z" fill="#D1EAF2"/>
</g>
<g filter="url(#filter0_b_206:36173)">
<rect x="13" y="77" width="141" height="77" rx="10" fill="black" fill-opacity="0.8"/>
</g>
<path d="M39.9016 110.432L40.0136 110.586L39.8876 112H34.2316L34.3296 109.312L34.2316 102.984H39.9436L40.0556 103.138L39.9156 104.552L37.7596 104.482L36.1356 104.496L36.0936 106.666L37.6476 106.694L39.1176 106.652L39.2296 106.792L39.1036 108.206L37.5076 108.164L36.0656 108.178L36.0516 109.144L36.0936 110.502L37.6756 110.516L39.9016 110.432ZM38.6556 99.596L39.1316 100.702L39.0756 100.87C38.1703 101.225 37.1623 101.589 36.0516 101.962L35.8836 101.906L35.5756 101.136C36.7236 100.557 37.6896 100.03 38.4736 99.554L38.6556 99.596ZM43.3618 109.312L43.2918 105.616L45.1258 105.462L45.0418 109.13L45.1258 112H43.2638L43.3618 109.312ZM44.2438 102.298C44.5332 102.298 44.7572 102.382 44.9158 102.55C45.0838 102.718 45.1678 102.951 45.1678 103.25C45.1678 103.567 45.0792 103.819 44.9018 104.006C44.7245 104.193 44.4818 104.286 44.1738 104.286C43.8658 104.286 43.6278 104.202 43.4598 104.034C43.3012 103.866 43.2218 103.628 43.2218 103.32C43.2218 103.012 43.3105 102.765 43.4878 102.578C43.6745 102.391 43.9265 102.298 44.2438 102.298ZM54.6842 112L54.7962 107.94C54.7962 107.249 54.5022 106.904 53.9142 106.904C53.4942 106.904 53.0556 107.091 52.5982 107.464L52.5562 109.144L52.6402 112H50.7782L50.8902 107.94C50.8996 107.604 50.8249 107.347 50.6662 107.17C50.5169 106.993 50.2976 106.904 50.0082 106.904C49.5976 106.904 49.1449 107.1 48.6502 107.492V109.13L48.7342 112H46.8862L46.9842 109.312L46.9142 105.616L48.6642 105.462V106.414H48.7622C49.2756 105.947 49.8402 105.611 50.4562 105.406C51.5016 105.406 52.1689 105.756 52.4582 106.456H52.5422C53.0742 105.961 53.6809 105.611 54.3622 105.406C55.0716 105.406 55.6082 105.569 55.9722 105.896C56.3456 106.213 56.5229 106.675 56.5042 107.282L56.4622 109.144L56.5462 112H54.6842ZM61.6232 105.406C62.4352 105.406 63.0605 105.681 63.4992 106.232C63.9379 106.783 64.1572 107.562 64.1572 108.57C64.1572 109.709 63.8725 110.591 63.3032 111.216C62.7432 111.832 61.9499 112.14 60.9232 112.14C60.6245 112.14 60.3119 112.112 59.9852 112.056L60.0272 114.59H58.1792L58.2772 109.312L58.1932 105.616L59.9712 105.462L59.9572 106.414H60.0552C60.3165 106.162 60.5685 105.961 60.8112 105.812C61.0539 105.653 61.3245 105.518 61.6232 105.406ZM60.9372 110.922C61.4225 110.922 61.7912 110.749 62.0432 110.404C62.2952 110.059 62.4212 109.55 62.4212 108.878C62.4212 108.225 62.3139 107.735 62.0992 107.408C61.8939 107.072 61.5859 106.904 61.1752 106.904C60.7739 106.904 60.3679 107.105 59.9572 107.506L59.9432 109.13L59.9712 110.712C60.3072 110.852 60.6292 110.922 60.9372 110.922ZM68.1273 105.364C69.0793 105.364 69.8073 105.644 70.3113 106.204C70.8153 106.764 71.0673 107.571 71.0673 108.626C71.0673 109.765 70.7966 110.637 70.2553 111.244C69.714 111.841 68.9346 112.14 67.9173 112.14C66.9653 112.14 66.2373 111.86 65.7333 111.3C65.2293 110.74 64.9773 109.933 64.9773 108.878C64.9773 107.739 65.248 106.871 65.7893 106.274C66.3306 105.667 67.11 105.364 68.1273 105.364ZM68.0013 106.624C67.5533 106.624 67.2266 106.773 67.0213 107.072C66.8253 107.371 66.7273 107.851 66.7273 108.514C66.7273 109.373 66.83 109.984 67.0353 110.348C67.2406 110.712 67.5766 110.894 68.0433 110.894C68.4913 110.894 68.8133 110.749 69.0093 110.46C69.2146 110.161 69.3173 109.676 69.3173 109.004C69.3173 108.155 69.21 107.548 68.9953 107.184C68.79 106.811 68.4586 106.624 68.0013 106.624ZM75.8592 105.476C75.9432 105.476 76.0599 105.485 76.2092 105.504V107.226L76.0132 107.296C75.8546 107.231 75.6819 107.198 75.4952 107.198C74.9539 107.198 74.4639 107.548 74.0252 108.248V109.13L74.1232 112H72.2612L72.3732 109.312L72.2892 105.616L74.0532 105.462L74.0392 106.736H74.1512C74.6086 105.896 75.1779 105.476 75.8592 105.476ZM79.8151 110.628C80.1138 110.628 80.4264 110.549 80.7531 110.39L80.9071 110.53L80.7251 111.636C80.2491 111.879 79.7638 112.028 79.2691 112.084C78.0091 111.953 77.3791 111.337 77.3791 110.236L77.4491 109.074L77.4351 106.666H76.5671L76.4971 106.568L76.5951 105.546H77.4211V104.468L79.1151 103.922L79.2411 104.034L79.1991 105.546H80.8651L80.9211 105.644L80.8371 106.666H79.1711L79.0871 109.802C79.0871 110.101 79.1431 110.315 79.2551 110.446C79.3671 110.567 79.5538 110.628 79.8151 110.628ZM84.4756 105.364C85.1942 105.364 85.7542 105.527 86.1556 105.854C86.5662 106.171 86.7716 106.619 86.7716 107.198C86.7716 107.366 86.7436 107.898 86.6876 108.794C86.6782 109.055 86.6642 109.326 86.6456 109.606C86.6269 109.877 86.6176 110.11 86.6176 110.306C86.6176 110.465 86.6409 110.577 86.6876 110.642C86.7342 110.698 86.8182 110.726 86.9396 110.726C87.0329 110.726 87.1542 110.707 87.3036 110.67L87.4436 110.782L87.2756 111.762C86.9769 111.958 86.6362 112.075 86.2536 112.112C85.9736 112.084 85.7402 111.986 85.5536 111.818C85.3669 111.641 85.2409 111.398 85.1756 111.09H85.0776C84.6109 111.585 84.1302 111.93 83.6356 112.126C82.9636 112.117 82.4362 111.939 82.0536 111.594C81.6709 111.249 81.4796 110.777 81.4796 110.18C81.4796 109.713 81.5962 109.349 81.8296 109.088C82.0722 108.817 82.4362 108.635 82.9216 108.542L85.0636 108.136V107.562C85.0636 106.955 84.7649 106.652 84.1676 106.652C83.8782 106.652 83.5702 106.717 83.2436 106.848C82.9262 106.979 82.5669 107.184 82.1656 107.464L82.0256 107.38L81.8156 106.148C82.2169 105.896 82.6462 105.705 83.1036 105.574C83.5609 105.434 84.0182 105.364 84.4756 105.364ZM83.5656 109.396C83.4162 109.433 83.3042 109.499 83.2296 109.592C83.1642 109.676 83.1316 109.807 83.1316 109.984C83.1316 110.227 83.1969 110.418 83.3276 110.558C83.4582 110.689 83.6402 110.754 83.8736 110.754C84.2376 110.754 84.6202 110.539 85.0216 110.11L85.0496 109.074L83.5656 109.396ZM92.5758 107.94C92.5851 107.613 92.5104 107.361 92.3518 107.184C92.2024 106.997 91.9831 106.904 91.6938 106.904C91.2738 106.904 90.8258 107.105 90.3498 107.506V109.13L90.4338 112H88.5718L88.6698 109.312L88.5998 105.616L90.3638 105.462V106.414H90.4618C90.9751 105.947 91.5351 105.611 92.1418 105.406C92.8511 105.406 93.3924 105.569 93.7658 105.896C94.1391 106.213 94.3164 106.675 94.2978 107.282L94.2558 109.144L94.3398 112H92.4638L92.5758 107.94ZM98.6139 110.628C98.9126 110.628 99.2253 110.549 99.5519 110.39L99.7059 110.53L99.5239 111.636C99.0479 111.879 98.5626 112.028 98.0679 112.084C96.8079 111.953 96.1779 111.337 96.1779 110.236L96.2479 109.074L96.2339 106.666H95.3659L95.2959 106.568L95.3939 105.546H96.2199V104.468L97.9139 103.922L98.0399 104.034L97.9979 105.546H99.6639L99.7199 105.644L99.6359 106.666H97.9699L97.8859 109.802C97.8859 110.101 97.9419 110.315 98.0539 110.446C98.1659 110.567 98.3526 110.628 98.6139 110.628ZM105.657 108.976L101.877 109.004C101.961 110.171 102.553 110.754 103.655 110.754C104.233 110.754 104.877 110.591 105.587 110.264L105.741 110.362L105.461 111.748C104.751 112.009 104.084 112.14 103.459 112.14C102.432 112.14 101.625 111.841 101.037 111.244C100.458 110.647 100.169 109.821 100.169 108.766C100.169 107.721 100.453 106.895 101.023 106.288C101.592 105.672 102.362 105.364 103.333 105.364C104.163 105.364 104.803 105.593 105.251 106.05C105.708 106.498 105.937 107.128 105.937 107.94C105.937 108.155 105.913 108.425 105.867 108.752L105.657 108.976ZM104.313 107.73C104.313 107.357 104.229 107.077 104.061 106.89C103.893 106.694 103.645 106.596 103.319 106.596C102.955 106.596 102.651 106.717 102.409 106.96C102.166 107.193 102.003 107.534 101.919 107.982L104.285 107.926L104.313 107.73ZM112.783 105.406C113.595 105.406 114.221 105.681 114.659 106.232C115.098 106.783 115.317 107.562 115.317 108.57C115.317 109.709 115.033 110.591 114.463 111.216C113.903 111.832 113.11 112.14 112.083 112.14C111.785 112.14 111.472 112.112 111.145 112.056L111.187 114.59H109.339L109.437 109.312L109.353 105.616L111.131 105.462L111.117 106.414H111.215C111.477 106.162 111.729 105.961 111.971 105.812C112.214 105.653 112.485 105.518 112.783 105.406ZM112.097 110.922C112.583 110.922 112.951 110.749 113.203 110.404C113.455 110.059 113.581 109.55 113.581 108.878C113.581 108.225 113.474 107.735 113.259 107.408C113.054 107.072 112.746 106.904 112.335 106.904C111.934 106.904 111.528 107.105 111.117 107.506L111.103 109.13L111.131 110.712C111.467 110.852 111.789 110.922 112.097 110.922ZM119.147 105.364C119.866 105.364 120.426 105.527 120.827 105.854C121.238 106.171 121.443 106.619 121.443 107.198C121.443 107.366 121.415 107.898 121.359 108.794C121.35 109.055 121.336 109.326 121.317 109.606C121.299 109.877 121.289 110.11 121.289 110.306C121.289 110.465 121.313 110.577 121.359 110.642C121.406 110.698 121.49 110.726 121.611 110.726C121.705 110.726 121.826 110.707 121.975 110.67L122.115 110.782L121.947 111.762C121.649 111.958 121.308 112.075 120.925 112.112C120.645 112.084 120.412 111.986 120.225 111.818C120.039 111.641 119.913 111.398 119.847 111.09H119.749C119.283 111.585 118.802 111.93 118.307 112.126C117.635 112.117 117.108 111.939 116.725 111.594C116.343 111.249 116.151 110.777 116.151 110.18C116.151 109.713 116.268 109.349 116.501 109.088C116.744 108.817 117.108 108.635 117.593 108.542L119.735 108.136V107.562C119.735 106.955 119.437 106.652 118.839 106.652C118.55 106.652 118.242 106.717 117.915 106.848C117.598 106.979 117.239 107.184 116.837 107.464L116.697 107.38L116.487 106.148C116.889 105.896 117.318 105.705 117.775 105.574C118.233 105.434 118.69 105.364 119.147 105.364ZM118.237 109.396C118.088 109.433 117.976 109.499 117.901 109.592C117.836 109.676 117.803 109.807 117.803 109.984C117.803 110.227 117.869 110.418 117.999 110.558C118.13 110.689 118.312 110.754 118.545 110.754C118.909 110.754 119.292 110.539 119.693 110.11L119.721 109.074L118.237 109.396ZM126.842 105.476C126.926 105.476 127.042 105.485 127.192 105.504V107.226L126.996 107.296C126.837 107.231 126.664 107.198 126.478 107.198C125.936 107.198 125.446 107.548 125.008 108.248V109.13L125.106 112H123.244L123.356 109.312L123.272 105.616L125.036 105.462L125.022 106.736H125.134C125.591 105.896 126.16 105.476 126.842 105.476ZM130.536 105.364C131.255 105.364 131.815 105.527 132.216 105.854C132.627 106.171 132.832 106.619 132.832 107.198C132.832 107.366 132.804 107.898 132.748 108.794C132.739 109.055 132.725 109.326 132.706 109.606C132.687 109.877 132.678 110.11 132.678 110.306C132.678 110.465 132.701 110.577 132.748 110.642C132.795 110.698 132.879 110.726 133 110.726C133.093 110.726 133.215 110.707 133.364 110.67L133.504 110.782L133.336 111.762C133.037 111.958 132.697 112.075 132.314 112.112C132.034 112.084 131.801 111.986 131.614 111.818C131.427 111.641 131.301 111.398 131.236 111.09H131.138C130.671 111.585 130.191 111.93 129.696 112.126C129.024 112.117 128.497 111.939 128.114 111.594C127.731 111.249 127.54 110.777 127.54 110.18C127.54 109.713 127.657 109.349 127.89 109.088C128.133 108.817 128.497 108.635 128.982 108.542L131.124 108.136V107.562C131.124 106.955 130.825 106.652 130.228 106.652C129.939 106.652 129.631 106.717 129.304 106.848C128.987 106.979 128.627 107.184 128.226 107.464L128.086 107.38L127.876 106.148C128.277 105.896 128.707 105.705 129.164 105.574C129.621 105.434 130.079 105.364 130.536 105.364ZM129.626 109.396C129.477 109.433 129.365 109.499 129.29 109.592C129.225 109.676 129.192 109.807 129.192 109.984C129.192 110.227 129.257 110.418 129.388 110.558C129.519 110.689 129.701 110.754 129.934 110.754C130.298 110.754 130.681 110.539 131.082 110.11L131.11 109.074L129.626 109.396ZM34.4088 128L34.5208 123.94C34.5208 123.249 34.2268 122.904 33.6388 122.904C33.2188 122.904 32.7802 123.091 32.3228 123.464L32.2808 125.144L32.3648 128H30.5028L30.6148 123.94C30.6242 123.604 30.5495 123.347 30.3908 123.17C30.2415 122.993 30.0222 122.904 29.7328 122.904C29.3222 122.904 28.8695 123.1 28.3748 123.492V125.13L28.4588 128H26.6108L26.7088 125.312L26.6388 121.616L28.3888 121.462V122.414H28.4868C29.0002 121.947 29.5648 121.611 30.1808 121.406C31.2262 121.406 31.8935 121.756 32.1828 122.456H32.2668C32.7988 121.961 33.4055 121.611 34.0868 121.406C34.7962 121.406 35.3328 121.569 35.6968 121.896C36.0702 122.213 36.2475 122.675 36.2288 123.282L36.1868 125.144L36.2708 128H34.4088ZM40.4658 121.364C41.1845 121.364 41.7445 121.527 42.1458 121.854C42.5565 122.171 42.7618 122.619 42.7618 123.198C42.7618 123.366 42.7338 123.898 42.6778 124.794C42.6685 125.055 42.6545 125.326 42.6358 125.606C42.6171 125.877 42.6078 126.11 42.6078 126.306C42.6078 126.465 42.6311 126.577 42.6778 126.642C42.7245 126.698 42.8085 126.726 42.9298 126.726C43.0231 126.726 43.1445 126.707 43.2938 126.67L43.4338 126.782L43.2658 127.762C42.9671 127.958 42.6265 128.075 42.2438 128.112C41.9638 128.084 41.7305 127.986 41.5438 127.818C41.3571 127.641 41.2311 127.398 41.1658 127.09H41.0678C40.6011 127.585 40.1205 127.93 39.6258 128.126C38.9538 128.117 38.4265 127.939 38.0438 127.594C37.6611 127.249 37.4698 126.777 37.4698 126.18C37.4698 125.713 37.5865 125.349 37.8198 125.088C38.0625 124.817 38.4265 124.635 38.9118 124.542L41.0538 124.136V123.562C41.0538 122.955 40.7551 122.652 40.1578 122.652C39.8685 122.652 39.5605 122.717 39.2338 122.848C38.9165 122.979 38.5571 123.184 38.1558 123.464L38.0158 123.38L37.8058 122.148C38.2071 121.896 38.6365 121.705 39.0938 121.574C39.5511 121.434 40.0085 121.364 40.4658 121.364ZM39.5558 125.396C39.4065 125.433 39.2945 125.499 39.2198 125.592C39.1545 125.676 39.1218 125.807 39.1218 125.984C39.1218 126.227 39.1871 126.418 39.3178 126.558C39.4485 126.689 39.6305 126.754 39.8638 126.754C40.2278 126.754 40.6105 126.539 41.0118 126.11L41.0398 125.074L39.5558 125.396ZM48.566 123.94C48.5753 123.613 48.5007 123.361 48.342 123.184C48.1927 122.997 47.9733 122.904 47.684 122.904C47.264 122.904 46.816 123.105 46.34 123.506V125.13L46.424 128H44.562L44.66 125.312L44.59 121.616L46.354 121.462V122.414H46.452C46.9653 121.947 47.5253 121.611 48.132 121.406C48.8413 121.406 49.3827 121.569 49.756 121.896C50.1293 122.213 50.3067 122.675 50.288 123.282L50.246 125.144L50.33 128H48.454L48.566 123.94ZM54.6042 126.628C54.9028 126.628 55.2155 126.549 55.5422 126.39L55.6962 126.53L55.5142 127.636C55.0382 127.879 54.5528 128.028 54.0582 128.084C52.7982 127.953 52.1682 127.337 52.1682 126.236L52.2382 125.074L52.2242 122.666H51.3562L51.2862 122.568L51.3842 121.546H52.2102V120.468L53.9042 119.922L54.0302 120.034L53.9882 121.546H55.6542L55.7102 121.644L55.6262 122.666H53.9602L53.8762 125.802C53.8762 126.101 53.9322 126.315 54.0442 126.446C54.1562 126.567 54.3428 126.628 54.6042 126.628ZM61.6469 124.976L57.8669 125.004C57.9509 126.171 58.5436 126.754 59.6449 126.754C60.2236 126.754 60.8676 126.591 61.5769 126.264L61.7309 126.362L61.4509 127.748C60.7416 128.009 60.0743 128.14 59.4489 128.14C58.4223 128.14 57.6149 127.841 57.0269 127.244C56.4483 126.647 56.1589 125.821 56.1589 124.766C56.1589 123.721 56.4436 122.895 57.0129 122.288C57.5823 121.672 58.3523 121.364 59.3229 121.364C60.1536 121.364 60.7929 121.593 61.2409 122.05C61.6983 122.498 61.9269 123.128 61.9269 123.94C61.9269 124.155 61.9036 124.425 61.8569 124.752L61.6469 124.976ZM60.3029 123.73C60.3029 123.357 60.2189 123.077 60.0509 122.89C59.8829 122.694 59.6356 122.596 59.3089 122.596C58.9449 122.596 58.6416 122.717 58.3989 122.96C58.1563 123.193 57.9929 123.534 57.9089 123.982L60.2749 123.926L60.3029 123.73ZM66.8084 121.476C66.8924 121.476 67.0091 121.485 67.1584 121.504V123.226L66.9624 123.296C66.8038 123.231 66.6311 123.198 66.4444 123.198C65.9031 123.198 65.4131 123.548 64.9744 124.248V125.13L65.0724 128H63.2104L63.3224 125.312L63.2384 121.616L65.0024 121.462L64.9884 122.736H65.1004C65.5578 121.896 66.1271 121.476 66.8084 121.476ZM72.7588 121.364C73.4774 121.364 74.0374 121.527 74.4388 121.854C74.8494 122.171 75.0548 122.619 75.0548 123.198C75.0548 123.366 75.0268 123.898 74.9708 124.794C74.9614 125.055 74.9474 125.326 74.9288 125.606C74.9101 125.877 74.9008 126.11 74.9008 126.306C74.9008 126.465 74.9241 126.577 74.9708 126.642C75.0174 126.698 75.1014 126.726 75.2228 126.726C75.3161 126.726 75.4374 126.707 75.5868 126.67L75.7268 126.782L75.5588 127.762C75.2601 127.958 74.9194 128.075 74.5368 128.112C74.2568 128.084 74.0234 127.986 73.8368 127.818C73.6501 127.641 73.5241 127.398 73.4588 127.09H73.3608C72.8941 127.585 72.4134 127.93 71.9188 128.126C71.2468 128.117 70.7194 127.939 70.3368 127.594C69.9541 127.249 69.7628 126.777 69.7628 126.18C69.7628 125.713 69.8794 125.349 70.1128 125.088C70.3554 124.817 70.7194 124.635 71.2048 124.542L73.3468 124.136V123.562C73.3468 122.955 73.0481 122.652 72.4508 122.652C72.1614 122.652 71.8534 122.717 71.5268 122.848C71.2094 122.979 70.8501 123.184 70.4488 123.464L70.3088 123.38L70.0988 122.148C70.5001 121.896 70.9294 121.705 71.3868 121.574C71.8441 121.434 72.3014 121.364 72.7588 121.364ZM71.8488 125.396C71.6994 125.433 71.5874 125.499 71.5128 125.592C71.4474 125.676 71.4148 125.807 71.4148 125.984C71.4148 126.227 71.4801 126.418 71.6108 126.558C71.7414 126.689 71.9234 126.754 72.1568 126.754C72.5208 126.754 72.9034 126.539 73.3048 126.11L73.3328 125.074L71.8488 125.396ZM83.1161 123.94C83.1255 123.604 83.0555 123.347 82.9061 123.17C82.7568 122.993 82.5375 122.904 82.2481 122.904C81.8281 122.904 81.3801 123.105 80.9041 123.506L80.8761 125.13L80.9741 128H79.1121L79.2101 125.298L79.1261 118.312L80.9881 118.172L80.9181 122.414H81.0021C81.5155 121.947 82.0801 121.611 82.6961 121.406C83.4055 121.406 83.9421 121.569 84.3061 121.896C84.6795 122.213 84.8615 122.675 84.8521 123.282L84.8101 125.144L84.8801 128H83.0181L83.1161 123.94ZM86.647 125.312L86.577 121.616L88.411 121.462L88.327 125.13L88.411 128H86.549L86.647 125.312ZM87.529 118.298C87.8183 118.298 88.0423 118.382 88.201 118.55C88.369 118.718 88.453 118.951 88.453 119.25C88.453 119.567 88.3643 119.819 88.187 120.006C88.0097 120.193 87.767 120.286 87.459 120.286C87.151 120.286 86.913 120.202 86.745 120.034C86.5863 119.866 86.507 119.628 86.507 119.32C86.507 119.012 86.5957 118.765 86.773 118.578C86.9597 118.391 87.2117 118.298 87.529 118.298ZM95.6034 125.13L95.6454 126.306C95.6454 126.465 95.664 126.577 95.7014 126.642C95.748 126.698 95.8274 126.726 95.9394 126.726C96.042 126.726 96.168 126.707 96.3174 126.67L96.4434 126.782L96.2894 127.762C95.972 127.958 95.6267 128.075 95.2534 128.112C94.964 128.084 94.7214 127.986 94.5254 127.818C94.3294 127.65 94.194 127.421 94.1194 127.132H94.0074C93.55 127.552 93.0834 127.874 92.6074 128.098C91.6927 128.098 90.9834 127.809 90.4794 127.23C89.9754 126.642 89.7234 125.83 89.7234 124.794C89.7234 123.693 90.0127 122.848 90.5914 122.26C91.17 121.672 91.9727 121.378 92.9994 121.378C93.27 121.378 93.5687 121.406 93.8954 121.462L93.8674 118.312L95.7154 118.172L95.6034 125.13ZM92.8734 122.638C91.94 122.638 91.4734 123.231 91.4734 124.416C91.4734 125.153 91.5854 125.709 91.8094 126.082C92.0334 126.455 92.36 126.642 92.7894 126.642C93.2 126.642 93.578 126.451 93.9234 126.068L93.9514 125.298L93.9094 122.89C93.5454 122.722 93.2 122.638 92.8734 122.638ZM101.139 121.476C101.223 121.476 101.339 121.485 101.489 121.504V123.226L101.293 123.296C101.134 123.231 100.961 123.198 100.775 123.198C100.233 123.198 99.7432 123.548 99.3045 124.248V125.13L99.4025 128H97.5405L97.6525 125.312L97.5685 121.616L99.3325 121.462L99.3185 122.736H99.4305C99.8879 121.896 100.457 121.476 101.139 121.476ZM104.833 121.364C105.552 121.364 106.112 121.527 106.513 121.854C106.924 122.171 107.129 122.619 107.129 123.198C107.129 123.366 107.101 123.898 107.045 124.794C107.036 125.055 107.022 125.326 107.003 125.606C106.984 125.877 106.975 126.11 106.975 126.306C106.975 126.465 106.998 126.577 107.045 126.642C107.092 126.698 107.176 126.726 107.297 126.726C107.39 126.726 107.512 126.707 107.661 126.67L107.801 126.782L107.633 127.762C107.334 127.958 106.994 128.075 106.611 128.112C106.331 128.084 106.098 127.986 105.911 127.818C105.724 127.641 105.598 127.398 105.533 127.09H105.435C104.968 127.585 104.488 127.93 103.993 128.126C103.321 128.117 102.794 127.939 102.411 127.594C102.028 127.249 101.837 126.777 101.837 126.18C101.837 125.713 101.954 125.349 102.187 125.088C102.43 124.817 102.794 124.635 103.279 124.542L105.421 124.136V123.562C105.421 122.955 105.122 122.652 104.525 122.652C104.236 122.652 103.928 122.717 103.601 122.848C103.284 122.979 102.924 123.184 102.523 123.464L102.383 123.38L102.173 122.148C102.574 121.896 103.004 121.705 103.461 121.574C103.918 121.434 104.376 121.364 104.833 121.364ZM103.923 125.396C103.774 125.433 103.662 125.499 103.587 125.592C103.522 125.676 103.489 125.807 103.489 125.984C103.489 126.227 103.554 126.418 103.685 126.558C103.816 126.689 103.998 126.754 104.231 126.754C104.595 126.754 104.978 126.539 105.379 126.11L105.407 125.074L103.923 125.396ZM111.643 126.628C111.942 126.628 112.255 126.549 112.581 126.39L112.735 126.53L112.553 127.636C112.077 127.879 111.592 128.028 111.097 128.084C109.837 127.953 109.207 127.337 109.207 126.236L109.277 125.074L109.263 122.666H108.395L108.325 122.568L108.423 121.546H109.249V120.468L110.943 119.922L111.069 120.034L111.027 121.546H112.693L112.749 121.644L112.665 122.666H110.999L110.915 125.802C110.915 126.101 110.971 126.315 111.083 126.446C111.195 126.567 111.382 126.628 111.643 126.628ZM116.304 121.364C117.022 121.364 117.582 121.527 117.984 121.854C118.394 122.171 118.6 122.619 118.6 123.198C118.6 123.366 118.572 123.898 118.516 124.794C118.506 125.055 118.492 125.326 118.474 125.606C118.455 125.877 118.446 126.11 118.446 126.306C118.446 126.465 118.469 126.577 118.516 126.642C118.562 126.698 118.646 126.726 118.768 126.726C118.861 126.726 118.982 126.707 119.132 126.67L119.272 126.782L119.104 127.762C118.805 127.958 118.464 128.075 118.082 128.112C117.802 128.084 117.568 127.986 117.382 127.818C117.195 127.641 117.069 127.398 117.004 127.09H116.906C116.439 127.585 115.958 127.93 115.464 128.126C114.792 128.117 114.264 127.939 113.882 127.594C113.499 127.249 113.308 126.777 113.308 126.18C113.308 125.713 113.424 125.349 113.658 125.088C113.9 124.817 114.264 124.635 114.75 124.542L116.892 124.136V123.562C116.892 122.955 116.593 122.652 115.996 122.652C115.706 122.652 115.398 122.717 115.072 122.848C114.754 122.979 114.395 123.184 113.994 123.464L113.854 123.38L113.644 122.148C114.045 121.896 114.474 121.705 114.932 121.574C115.389 121.434 115.846 121.364 116.304 121.364ZM115.394 125.396C115.244 125.433 115.132 125.499 115.058 125.592C114.992 125.676 114.96 125.807 114.96 125.984C114.96 126.227 115.025 126.418 115.156 126.558C115.286 126.689 115.468 126.754 115.702 126.754C116.066 126.754 116.448 126.539 116.85 126.11L116.878 125.074L115.394 125.396ZM123.156 121.364C123.464 121.364 123.767 121.397 124.066 121.462C124.374 121.518 124.645 121.602 124.878 121.714L124.57 123.198L124.416 123.268C123.94 123.007 123.515 122.876 123.142 122.876C122.713 122.876 122.381 123.03 122.148 123.338C121.915 123.646 121.798 124.085 121.798 124.654C121.798 125.307 121.924 125.807 122.176 126.152C122.428 126.497 122.787 126.67 123.254 126.67C123.674 126.67 124.141 126.553 124.654 126.32L124.794 126.432L124.612 127.874C124.052 128.051 123.478 128.14 122.89 128.14C121.994 128.14 121.294 127.851 120.79 127.272C120.286 126.684 120.034 125.867 120.034 124.822C120.034 123.739 120.309 122.895 120.86 122.288C121.411 121.672 122.176 121.364 123.156 121.364ZM123.142 128.672L123.618 128.938C123.823 129.05 123.968 129.171 124.052 129.302C124.145 129.442 124.192 129.596 124.192 129.764C124.192 130.072 124.071 130.324 123.828 130.52C123.585 130.716 123.268 130.814 122.876 130.814C122.456 130.814 122.073 130.683 121.728 130.422L121.854 129.638L121.938 129.596C122.218 129.876 122.493 130.016 122.764 130.016C122.988 130.016 123.1 129.918 123.1 129.722C123.1 129.657 123.081 129.601 123.044 129.554C123.007 129.517 122.946 129.479 122.862 129.442L122.176 129.05L122.498 127.636H123.394L123.142 128.672ZM128.294 121.364C129.013 121.364 129.573 121.527 129.974 121.854C130.385 122.171 130.59 122.619 130.59 123.198C130.59 123.366 130.562 123.898 130.506 124.794C130.497 125.055 130.483 125.326 130.464 125.606C130.445 125.877 130.436 126.11 130.436 126.306C130.436 126.465 130.459 126.577 130.506 126.642C130.553 126.698 130.637 126.726 130.758 126.726C130.851 126.726 130.973 126.707 131.122 126.67L131.262 126.782L131.094 127.762C130.795 127.958 130.455 128.075 130.072 128.112C129.792 128.084 129.559 127.986 129.372 127.818C129.185 127.641 129.059 127.398 128.994 127.09H128.896C128.429 127.585 127.949 127.93 127.454 128.126C126.782 128.117 126.255 127.939 125.872 127.594C125.489 127.249 125.298 126.777 125.298 126.18C125.298 125.713 125.415 125.349 125.648 125.088C125.891 124.817 126.255 124.635 126.74 124.542L128.882 124.136V123.562C128.882 122.955 128.583 122.652 127.986 122.652C127.697 122.652 127.389 122.717 127.062 122.848C126.745 122.979 126.385 123.184 125.984 123.464L125.844 123.38L125.634 122.148C126.035 121.896 126.465 121.705 126.922 121.574C127.379 121.434 127.837 121.364 128.294 121.364ZM127.384 125.396C127.235 125.433 127.123 125.499 127.048 125.592C126.983 125.676 126.95 125.807 126.95 125.984C126.95 126.227 127.015 126.418 127.146 126.558C127.277 126.689 127.459 126.754 127.692 126.754C128.056 126.754 128.439 126.539 128.84 126.11L128.868 125.074L127.384 125.396ZM130.59 118.732V118.886L129.61 120.132L129.428 120.202C129.176 120.174 128.789 120.085 128.266 119.936C128.219 119.927 128.065 119.889 127.804 119.824C127.552 119.749 127.375 119.712 127.272 119.712C127.169 119.712 127.067 119.754 126.964 119.838C126.871 119.922 126.768 120.025 126.656 120.146C126.544 120.267 126.46 120.361 126.404 120.426H126.236L125.676 119.88V119.726L126.67 118.48L126.838 118.41C127.062 118.438 127.459 118.531 128.028 118.69C128.551 118.83 128.873 118.9 128.994 118.9C129.106 118.9 129.213 118.853 129.316 118.76C129.428 118.667 129.54 118.559 129.652 118.438C129.764 118.317 129.839 118.233 129.876 118.186H130.044L130.59 118.732ZM135.174 121.364C136.126 121.364 136.854 121.644 137.358 122.204C137.862 122.764 138.114 123.571 138.114 124.626C138.114 125.765 137.843 126.637 137.302 127.244C136.761 127.841 135.981 128.14 134.964 128.14C134.012 128.14 133.284 127.86 132.78 127.3C132.276 126.74 132.024 125.933 132.024 124.878C132.024 123.739 132.295 122.871 132.836 122.274C133.377 121.667 134.157 121.364 135.174 121.364ZM135.048 122.624C134.6 122.624 134.273 122.773 134.068 123.072C133.872 123.371 133.774 123.851 133.774 124.514C133.774 125.373 133.877 125.984 134.082 126.348C134.287 126.712 134.623 126.894 135.09 126.894C135.538 126.894 135.86 126.749 136.056 126.46C136.261 126.161 136.364 125.676 136.364 125.004C136.364 124.155 136.257 123.548 136.042 123.184C135.837 122.811 135.505 122.624 135.048 122.624ZM139.682 126.11C139.971 126.11 140.195 126.194 140.354 126.362C140.522 126.53 140.606 126.763 140.606 127.062C140.606 127.379 140.517 127.631 140.34 127.818C140.163 128.005 139.92 128.098 139.612 128.098C139.304 128.098 139.066 128.014 138.898 127.846C138.739 127.678 138.66 127.44 138.66 127.132C138.66 126.824 138.749 126.577 138.926 126.39C139.113 126.203 139.365 126.11 139.682 126.11Z" fill="white"/>
<defs>
<filter id="filter0_b_206:36173" x="3" y="67" width="161" height="97" filterUnits="userSpaceOnUse" color-interpolation-filters="sRGB">
<feFlood flood-opacity="0" result="BackgroundImageFix"/>
<feGaussianBlur in="BackgroundImage" stdDeviation="5"/>
<feComposite in2="SourceAlpha" operator="in" result="effect1_backgroundBlur_206:36173"/>
<feBlend mode="normal" in="SourceGraphic" in2="effect1_backgroundBlur_206:36173" result="shape"/>
</filter>
</defs>
</svg>
