<svg width="167" height="167" viewBox="0 0 167 167" fill="none" xmlns="http://www.w3.org/2000/svg">
<mask id="mask0_206:36486" style="mask-type:alpha" maskUnits="userSpaceOnUse" x="0" y="0" width="167" height="167">
<rect x="1" y="1" width="165" height="165" rx="8" fill="#5988D6" stroke="#EDE6FC" stroke-opacity="0.3"/>
</mask>
<g mask="url(#mask0_206:36486)">
<rect x="1" y="1" width="165" height="165" rx="8" fill="#7A83D9" stroke="#EDE6FC" stroke-opacity="0.3"/>
<path d="M109.383 12.2176C107.919 11.9593 106.414 12.0385 104.987 12.449C103.56 12.8594 102.25 13.5899 101.161 14.5826C97.6139 17.9241 98.7495 22.0973 99.4574 24.3178C100.165 26.5382 100.195 27.3772 99.7376 28.0787C99.2804 28.7803 97.1862 30.9718 96.906 31.695C96.6258 32.4183 102.717 35.5862 102.717 35.5862L107.547 32.8378C107.547 32.8378 111.802 35.3403 112.229 35.1956C112.657 35.051 114.073 32.8378 115.348 27.6882C116.624 22.5385 116.337 18.6474 114.611 15.7254C112.886 12.8034 109.383 12.2176 109.383 12.2176Z" fill="#F6BA99"/>
<path d="M106.475 23.8006C106.475 23.8006 105.646 21.6624 104.237 23.512C102.827 25.3617 103.283 26.7896 103.922 27.0707L104.56 27.3593C104.404 28.4363 104.627 29.5299 105.199 30.4889C105.835 31.5701 106.639 32.5663 107.586 33.4483" stroke="#393762" stroke-width="0.5" stroke-miterlimit="10"/>
<path d="M115.069 18.9164C114.852 17.8372 114.49 16.7981 113.995 15.8324C112.395 12.8309 109.064 12.2231 109.064 12.2231C107.689 11.9552 106.275 12.0373 104.935 12.4632C103.594 12.8891 102.364 13.6469 101.34 14.6768C98.0085 18.1435 99.0752 22.4732 99.7401 24.7768C100.232 26.4876 100.357 27.4031 100.232 28.0559C101.272 28.1669 102.321 28.0832 103.335 27.8083C103.703 27.6959 104.047 27.5058 104.347 27.249C104.647 26.9922 104.897 26.6737 105.083 26.3118C105.269 25.9499 105.387 25.5518 105.431 25.1403C105.475 24.7287 105.443 24.312 105.337 23.9139C104.935 23.0509 106.03 22.1805 106.03 22.1805C106.03 22.1805 106.826 24.4916 107.761 23.0509C108.696 21.6102 107.069 19.5842 108.69 18.4287C110.31 17.2731 112.021 17.2731 114.023 18.4287C114.356 18.6279 114.707 18.7912 115.069 18.9164Z" fill="#393762"/>
<path d="M114.894 19.4407C114.894 19.4407 115.84 20.0825 117.213 18.2798C118.585 16.477 118.578 13.2898 117.483 14.119C116.957 14.5054 116.454 14.9219 115.975 15.3665C115.975 15.3665 114.887 10.5135 113.379 11.0399C112.967 11.1669 112.602 11.4174 112.333 11.7584C112.064 12.0995 111.903 12.5152 111.871 12.9508C111.871 12.9508 109.026 10.7371 108.457 11.4293C108.184 11.796 107.861 12.1214 107.497 12.3956C107.497 12.3956 107.774 12.5398 106.949 12.8138C106.349 13.0883 105.831 13.5187 105.448 14.0613C105.448 14.0613 109.958 14.6166 111.331 16.0011C112.703 17.3856 114.894 19.4407 114.894 19.4407Z" fill="#393762"/>
<path d="M105.261 42C105.261 42 107.838 42.8221 107.987 46.947C108.135 51.0718 111.419 61.6592 111.419 61.6592C111.419 61.6592 115.283 57.5343 115.998 56.7051C116.713 55.8758 118.15 55.6042 119.58 57.9418C121.009 60.2795 120.585 63.0318 118.433 66.3345C116.281 69.6373 112.275 74.5771 108.984 74.0266C105.693 73.4762 100.25 64.0183 100.109 62.8959C99.9674 61.7736 102.685 50.6572 103.087 48.87C103.489 47.0828 105.261 42 105.261 42Z" fill="#393762"/>
<path d="M74.994 82.2887C74.994 82.2887 73.0677 84.8969 73.7552 87.3626C74.2322 89.003 74.8305 90.606 75.5454 92.1585C75.5454 92.1585 71.0054 106.824 69.9026 109.839C68.7998 112.853 69.6233 113.131 66.7304 114.913C63.8374 116.694 57.5071 119.188 55.4377 125.737C53.882 130.652 51.9993 135.459 49.8021 140.125C48.9714 141.771 48.5632 142.733 46.773 142.733C44.9828 142.733 41.9538 141.907 41.6745 144.237C41.5343 146.427 41.5343 148.624 41.6745 150.815C41.6745 151.641 39.6121 153.01 40.4356 155.889C41.2591 158.768 42.7773 161.369 43.6008 161.639C44.4243 161.91 45.9423 161.504 46.0856 160.82C46.2288 160.136 44.5675 159.038 45.3695 156.544C46.1715 154.05 50.332 150.131 52.6736 147.907C55.0152 145.684 60.5505 135.985 64.6537 131.602C68.7569 127.22 73.4687 121.732 76.7699 118.853C80.071 115.974 86.7951 104.879 88.2273 102.406C89.6594 99.9333 91.0916 96.5198 91.0916 96.5198C91.0916 96.5198 105.557 99.2563 108.034 99.6696C109.712 99.9696 111.367 100.381 112.99 100.902C110.281 103.442 108.408 106.739 107.619 110.359C106.516 116.117 104.038 126.528 102.8 129.956C101.561 133.384 100.644 135.465 99.7849 137.246C98.9256 139.028 97.5794 141.358 98.5461 142.456C99.5128 143.553 104.74 144.237 107.361 144.65C109.982 145.064 115.073 144.921 116.169 143.938C117.265 142.954 117.415 142.427 116.72 142.292C116.026 142.156 112.18 139.683 111.078 138.729C109.975 137.774 109.151 136.12 109.287 135.436C109.423 134.752 115.618 121.184 118.375 115.704C121.131 110.224 124.16 100.625 124.984 98.4367C125.808 96.249 126.087 95.8285 125.263 94.7382C124.44 93.6479 119.341 89.7997 110.798 85.1392C102.255 80.4786 97.5794 80.3432 94.9657 79.937C92.3519 79.5308 87.9408 75.5472 82.0188 78.1555C76.0968 80.7637 74.994 82.2887 74.994 82.2887Z" fill="#F6BA99"/>
<path d="M106.357 41.0095C106.666 45.1324 106.527 49.2761 105.943 53.3697C104.986 60.574 99.7632 71.3026 99.3488 73.8524C98.9345 76.4021 100.72 78.0901 100.17 78.8812C99.6203 79.6723 98.5272 79.9689 97.1484 79.9689C95.7695 79.9689 90.4185 78.6058 86.1605 79.4251C81.9025 80.2444 77.2302 84.0442 76.2657 83.6628C75.3013 83.2814 73.7938 81.6216 74.7583 79.9972C75.7228 78.3727 76.6801 77.4121 77.5017 75.7594C78.3233 74.1066 82.4527 61.2308 83.41 57.0213C84.3673 52.8118 83.9601 47.9171 83.8244 44.5198C83.6886 41.1225 86.5678 35.5569 88.7682 34.7447C90.9686 33.9324 97.1484 35.5569 97.8342 35.5569C98.5201 35.5569 105.121 37.6122 106.357 41.0095Z" fill="#393762"/>
<path d="M102.886 39.3143C102.886 39.3143 106.019 43.329 106.422 43.0556C106.826 42.7822 108.332 41.3936 107.13 38.0695C105.927 34.7455 103.056 32.5367 100.058 29.9105C97.0592 27.2844 93.9404 23.2696 91.9037 25.5936C89.8669 27.9175 86.0551 33.3425 87.6605 35.1412C89.2658 36.9399 97.8653 37.3573 99.7677 38.0192C101.67 38.6811 102.886 39.3143 102.886 39.3143Z" fill="#7EB9F5"/>
<path d="M68.5534 68.2263C68.8826 69.4826 69.3742 70.6834 70.0141 71.7937C71.0803 73.6479 71.6133 75.643 70.9488 76.355C70.2842 77.067 70.2564 77.0966 67.6188 77.9273C64.9812 78.758 63.8944 78.2091 63.6244 77.4971C63.3544 76.7851 64.4205 75.9248 64.4205 75.9248C63.9376 75.8036 63.5059 75.5145 63.1927 75.1025C62.8796 74.6905 62.7027 74.179 62.6898 73.6479C62.7737 71.7847 62.9516 69.9279 63.2228 68.0853L68.415 67.6552L68.5534 68.2263Z" fill="#F6BA99"/>
<path d="M61.629 65.7801C61.629 65.7801 61.4882 68.7441 62.3706 69.4832C63.253 70.2222 67.7911 69.4832 68.362 68.8904C68.933 68.2976 69.1035 64.4483 69.1035 64.4483L61.629 65.7801Z" fill="#7EB9F5"/>
<path d="M95.8277 38.948C94.4676 37.6313 92.821 36.6298 91.0099 36.0175C88.1465 35.0756 79.0335 35.7454 72.6981 37.3572C66.3627 38.9689 63.7498 38.8084 62.7834 41.2295C61.8169 43.6506 60.3065 62.4264 60.5857 64.5754C60.8649 66.7244 65.2674 66.857 67.3291 66.3198C69.3908 65.7825 71.0444 64.4429 71.7388 61.6241C72.4332 58.8052 72.2829 48.744 73.2493 47.6695C74.2157 46.595 85.6409 47.2649 88.8051 46.8602C91.9692 46.4555 94.174 45.5205 94.7252 44.7182" fill="#393762"/>
<path d="M117.952 56.0322C117.952 56.0322 115.808 57.1838 116.182 59.1008C116.555 61.0178 118.45 62.4289 119.211 62.3025C119.971 62.176 121.479 60.1259 121.479 60.1259C121.479 60.1259 121.729 55.0072 117.952 56.0322Z" fill="#7EB9F5"/>
<path d="M117.207 56.8629C117.207 56.8629 118.323 60.0228 119.715 60.1583C121.107 60.2939 121.811 59.445 123.478 57.8258C125.146 56.2066 126.828 54.9726 126.828 52.7471C126.828 50.5216 126.269 47.5399 125.015 47.3973C124.259 47.3167 123.494 47.412 122.782 47.6755C122.782 47.6755 122.369 46.848 121.115 47.811C119.86 48.774 120.136 49.4587 119.44 50.6642C118.829 51.4859 118.569 52.5097 118.715 53.5175C118.787 54.0165 118.833 54.5188 118.853 55.0225L117.207 56.8629Z" fill="#F6BA99"/>
<path d="M122.76 48.4138C123.232 49.0585 124.014 52.3791 123.387 52.8755C122.76 53.372 121.668 54.3649 121.351 53.2495C121.033 52.1341 120.414 50.5222 120.414 50.5222" stroke="#393762" stroke-width="0.5" stroke-miterlimit="10"/>
<path d="M111.395 85.0339C102.821 80.4357 98.117 80.3021 95.4916 79.9014C92.8661 79.5006 88.4353 75.5704 82.4868 78.1437C76.5382 80.717 75.4305 82.1934 75.4305 82.1934C75.4305 82.1934 73.4956 84.7667 74.1861 87.1994C74.6653 88.8179 75.2663 90.3994 75.9844 91.9311C75.9844 91.9311 71.4241 106.401 70.3164 109.375C70.2588 109.529 70.2228 109.649 70.1725 109.789C71.3953 110.204 72.8195 110.732 74.4882 111.399C76.6397 112.25 78.4342 113.786 79.5808 115.759C82.9094 111.38 85.9647 106.808 88.7302 102.07C90.1184 99.6369 91.6074 96.2621 91.6074 96.2621C91.6074 96.2621 106.137 98.962 108.626 99.3697C109.46 99.5033 110.295 99.6861 111.035 99.8689C111.459 97.2341 112.329 94.6868 113.611 92.3319C114.977 89.9273 116.243 88.8165 117.207 88.2962C115.473 87.2838 113.546 86.1869 111.395 85.0339Z" fill="#DA5955"/>
<path d="M116.216 143.745C117.337 142.812 117.483 142.28 116.776 142.149C116.07 142.017 112.16 139.619 111.038 138.693C109.917 137.767 109.08 136.163 109.218 135.5C109.262 135.286 109.946 133.765 110.958 131.63C109.761 131.977 108.509 132.117 107.259 132.044C105.603 131.766 103.983 131.324 102.424 130.724C101.267 133.717 100.349 135.597 99.5555 137.228C98.7618 138.859 97.3128 141.215 98.2958 142.28C99.2788 143.344 104.594 144.008 107.259 144.409C109.924 144.809 115.101 144.671 116.216 143.745Z" fill="#DECBB6"/>
<path d="M116.778 142.031C116.05 141.892 112.163 139.351 111.042 138.37C109.921 137.388 109.084 135.689 109.222 134.986C109.222 134.986 108.662 133.155 107.402 132.877C106.143 132.598 105.582 136.399 105.582 136.399L100.246 135.323C100.006 135.85 99.7802 136.348 99.5618 136.788C98.7173 138.619 97.3196 141.013 98.3024 142.141C99.2852 143.269 104.599 143.972 107.264 144.397C109.928 144.822 115.104 144.675 116.218 143.665C117.332 142.654 117.485 142.163 116.778 142.031Z" fill="#393762"/>
<path d="M51.4073 144.88C50.3222 143.976 49.535 142.768 49.1472 141.414C48.9411 141.866 48.6001 142.245 48.1704 142.499C47.7406 142.752 47.2429 142.869 46.7446 142.832C44.9621 142.832 41.9463 142.009 41.6682 144.328C41.5286 146.506 41.5286 148.692 41.6682 150.871C41.6682 151.693 39.6149 153.055 40.4348 155.919C41.2547 158.783 42.7662 161.37 43.5861 161.64C44.406 161.909 45.9175 161.505 46.0601 160.825C46.2027 160.144 44.5486 159.052 45.3471 156.571C46.1456 154.09 50.288 150.19 52.6194 147.979C53.1767 147.418 53.6848 146.811 54.138 146.164C53.1634 145.887 52.2409 145.454 51.4073 144.88Z" fill="#DECBB6"/>
<path d="M49.8621 151.176C49.7445 150.983 49.6158 150.796 49.4767 150.617C48.6077 149.513 47.1568 150.753 47.1568 150.753C46.2658 149.754 45.7997 148.477 45.8495 147.17C45.9628 145.564 47.4666 143.386 48.1165 142.49C47.7979 142.581 47.4669 142.627 47.1341 142.626C45.2449 142.626 42.0484 141.795 41.7537 144.138C41.6057 146.341 41.6057 148.55 41.7537 150.753C41.7537 151.584 39.5773 152.96 40.4464 155.855C41.3154 158.751 42.9174 161.367 43.7865 161.639C44.6555 161.911 46.2575 161.503 46.4087 160.815C46.5598 160.127 44.8066 159.023 45.653 156.515C46.2198 155.06 47.9956 153.039 49.8621 151.176Z" fill="#393762"/>
</g>
<g filter="url(#filter0_b_206:36486)">
<rect x="13" y="77" width="141" height="77" rx="10" fill="black" fill-opacity="0.8"/>
</g>
<path d="M49.4993 118.432L49.6113 118.586L49.4853 120H43.8293L43.9273 117.312L43.8293 110.984H49.5413L49.6533 111.138L49.5133 112.552L47.3573 112.482L45.7333 112.496L45.6913 114.666L47.2453 114.694L48.7153 114.652L48.8273 114.792L48.7013 116.206L47.1053 116.164L45.6633 116.178L45.6493 117.144L45.6913 118.502L47.2733 118.516L49.4993 118.432ZM52.3244 114.218L53.2204 115.674L54.1024 114.162L54.4524 113.504H56.0904L54.2144 116.696L56.1744 119.944L54.2144 120.084L53.8924 119.258L52.9684 117.76L52.0024 119.342L51.6944 120H50.0564L51.9464 116.738L50.0424 113.546L52.0304 113.448L52.3244 114.218ZM61.9887 116.976L58.2087 117.004C58.2927 118.171 58.8854 118.754 59.9867 118.754C60.5654 118.754 61.2094 118.591 61.9187 118.264L62.0727 118.362L61.7927 119.748C61.0834 120.009 60.4161 120.14 59.7907 120.14C58.7641 120.14 57.9567 119.841 57.3687 119.244C56.7901 118.647 56.5007 117.821 56.5007 116.766C56.5007 115.721 56.7854 114.895 57.3547 114.288C57.9241 113.672 58.6941 113.364 59.6647 113.364C60.4954 113.364 61.1347 113.593 61.5827 114.05C62.0401 114.498 62.2687 115.128 62.2687 115.94C62.2687 116.155 62.2454 116.425 62.1987 116.752L61.9887 116.976ZM60.6447 115.73C60.6447 115.357 60.5607 115.077 60.3927 114.89C60.2247 114.694 59.9774 114.596 59.6507 114.596C59.2867 114.596 58.9834 114.717 58.7407 114.96C58.4981 115.193 58.3347 115.534 58.2507 115.982L60.6167 115.926L60.6447 115.73ZM67.1502 113.476C67.2342 113.476 67.3509 113.485 67.5002 113.504V115.226L67.3042 115.296C67.1456 115.231 66.9729 115.198 66.7862 115.198C66.2449 115.198 65.7549 115.548 65.3162 116.248V117.13L65.4142 120H63.5522L63.6642 117.312L63.5802 113.616L65.3442 113.462L65.3302 114.736H65.4422C65.8996 113.896 66.4689 113.476 67.1502 113.476ZM71.0934 113.364C71.4014 113.364 71.7048 113.397 72.0034 113.462C72.3114 113.518 72.5821 113.602 72.8154 113.714L72.5074 115.198L72.3534 115.268C71.8774 115.007 71.4528 114.876 71.0794 114.876C70.6501 114.876 70.3188 115.03 70.0854 115.338C69.8521 115.646 69.7354 116.085 69.7354 116.654C69.7354 117.307 69.8614 117.807 70.1134 118.152C70.3654 118.497 70.7248 118.67 71.1914 118.67C71.6114 118.67 72.0781 118.553 72.5914 118.32L72.7314 118.432L72.5494 119.874C71.9894 120.051 71.4154 120.14 70.8274 120.14C69.9314 120.14 69.2314 119.851 68.7274 119.272C68.2234 118.684 67.9714 117.867 67.9714 116.822C67.9714 115.739 68.2468 114.895 68.7974 114.288C69.3481 113.672 70.1134 113.364 71.0934 113.364ZM73.9321 117.312L73.8621 113.616L75.6961 113.462L75.6121 117.13L75.6961 120H73.8341L73.9321 117.312ZM76.1301 109.878L76.8021 110.886L76.7741 111.068C76.5688 111.199 76.4148 111.292 76.3121 111.348C75.1455 112.067 74.3895 112.524 74.0441 112.72L73.8621 112.706L73.4141 112.006C74.4968 111.138 75.3415 110.424 75.9481 109.864L76.1301 109.878ZM80.1305 113.364C80.4385 113.364 80.7419 113.397 81.0405 113.462C81.3485 113.518 81.6192 113.602 81.8525 113.714L81.5445 115.198L81.3905 115.268C80.9145 115.007 80.4899 114.876 80.1165 114.876C79.6872 114.876 79.3559 115.03 79.1225 115.338C78.8892 115.646 78.7725 116.085 78.7725 116.654C78.7725 117.307 78.8985 117.807 79.1505 118.152C79.4025 118.497 79.7619 118.67 80.2285 118.67C80.6485 118.67 81.1152 118.553 81.6285 118.32L81.7685 118.432L81.5865 119.874C81.0265 120.051 80.4525 120.14 79.8645 120.14C78.9685 120.14 78.2685 119.851 77.7645 119.272C77.2605 118.684 77.0085 117.867 77.0085 116.822C77.0085 115.739 77.2839 114.895 77.8345 114.288C78.3852 113.672 79.1505 113.364 80.1305 113.364ZM82.9693 117.312L82.8993 113.616L84.7333 113.462L84.6493 117.13L84.7333 120H82.8713L82.9693 117.312ZM83.8513 110.298C84.1406 110.298 84.3646 110.382 84.5233 110.55C84.6913 110.718 84.7753 110.951 84.7753 111.25C84.7753 111.567 84.6866 111.819 84.5093 112.006C84.3319 112.193 84.0893 112.286 83.7813 112.286C83.4733 112.286 83.2353 112.202 83.0673 112.034C82.9086 111.866 82.8293 111.628 82.8293 111.32C82.8293 111.012 82.9179 110.765 83.0953 110.578C83.2819 110.391 83.5339 110.298 83.8513 110.298ZM89.1956 113.364C90.1476 113.364 90.8756 113.644 91.3796 114.204C91.8836 114.764 92.1356 115.571 92.1356 116.626C92.1356 117.765 91.865 118.637 91.3236 119.244C90.7823 119.841 90.003 120.14 88.9856 120.14C88.0336 120.14 87.3056 119.86 86.8016 119.3C86.2976 118.74 86.0456 117.933 86.0456 116.878C86.0456 115.739 86.3163 114.871 86.8576 114.274C87.399 113.667 88.1783 113.364 89.1956 113.364ZM89.0696 114.624C88.6216 114.624 88.295 114.773 88.0896 115.072C87.8936 115.371 87.7956 115.851 87.7956 116.514C87.7956 117.373 87.8983 117.984 88.1036 118.348C88.309 118.712 88.645 118.894 89.1116 118.894C89.5596 118.894 89.8816 118.749 90.0776 118.46C90.283 118.161 90.3856 117.676 90.3856 117.004C90.3856 116.155 90.2783 115.548 90.0636 115.184C89.8583 114.811 89.527 114.624 89.0696 114.624ZM98.9188 110.144C99.3014 110.144 99.7074 110.186 100.137 110.27L100.011 111.656L99.8848 111.74C99.4461 111.553 99.0634 111.46 98.7368 111.46C98.1581 111.46 97.8641 111.791 97.8548 112.454L97.8408 113.546H99.4228L99.4788 113.644L99.3948 114.666H97.8128L97.7708 117.13L97.8688 120H96.0068L96.1188 117.298L96.0908 114.666H95.1108L95.0408 114.568L95.1388 113.546H96.0768L96.0628 112.776C96.0628 111.936 96.3101 111.287 96.8048 110.83C97.3088 110.373 98.0134 110.144 98.9188 110.144ZM100.264 117.312L100.194 113.616L102.028 113.462L101.944 117.13L102.028 120H100.166L100.264 117.312ZM102.462 109.878L103.134 110.886L103.106 111.068C102.901 111.199 102.747 111.292 102.644 111.348C101.478 112.067 100.722 112.524 100.376 112.72L100.194 112.706L99.7462 112.006C100.829 111.138 101.674 110.424 102.28 109.864L102.462 109.878ZM105.973 113.378C106.607 113.378 107.205 113.485 107.765 113.7L107.513 115.072L107.289 115.142C107.018 114.965 106.747 114.829 106.477 114.736C106.206 114.643 105.968 114.596 105.763 114.596C105.539 114.596 105.361 114.657 105.231 114.778C105.1 114.89 105.035 115.03 105.035 115.198C105.035 115.394 105.119 115.553 105.287 115.674C105.464 115.795 105.739 115.931 106.113 116.08C106.486 116.229 106.794 116.374 107.037 116.514C107.279 116.654 107.485 116.85 107.653 117.102C107.83 117.345 107.919 117.648 107.919 118.012C107.919 118.385 107.821 118.735 107.625 119.062C107.438 119.379 107.149 119.641 106.757 119.846C106.365 120.042 105.884 120.14 105.315 120.14C104.643 120.14 103.947 120 103.229 119.72L103.439 118.264L103.621 118.152C103.91 118.395 104.232 118.591 104.587 118.74C104.941 118.88 105.254 118.95 105.525 118.95C105.777 118.95 105.973 118.889 106.113 118.768C106.253 118.637 106.323 118.483 106.323 118.306C106.323 118.11 106.234 117.951 106.057 117.83C105.889 117.709 105.618 117.573 105.245 117.424C104.862 117.256 104.549 117.107 104.307 116.976C104.064 116.836 103.854 116.64 103.677 116.388C103.509 116.136 103.425 115.823 103.425 115.45C103.425 114.843 103.653 114.349 104.111 113.966C104.568 113.574 105.189 113.378 105.973 113.378ZM109.288 117.312L109.218 113.616L111.052 113.462L110.968 117.13L111.052 120H109.19L109.288 117.312ZM110.17 110.298C110.459 110.298 110.683 110.382 110.842 110.55C111.01 110.718 111.094 110.951 111.094 111.25C111.094 111.567 111.005 111.819 110.828 112.006C110.65 112.193 110.408 112.286 110.1 112.286C109.792 112.286 109.554 112.202 109.386 112.034C109.227 111.866 109.148 111.628 109.148 111.32C109.148 111.012 109.236 110.765 109.414 110.578C109.6 110.391 109.852 110.298 110.17 110.298ZM115.486 113.364C115.794 113.364 116.097 113.397 116.396 113.462C116.704 113.518 116.975 113.602 117.208 113.714L116.9 115.198L116.746 115.268C116.27 115.007 115.845 114.876 115.472 114.876C115.043 114.876 114.711 115.03 114.478 115.338C114.245 115.646 114.128 116.085 114.128 116.654C114.128 117.307 114.254 117.807 114.506 118.152C114.758 118.497 115.117 118.67 115.584 118.67C116.004 118.67 116.471 118.553 116.984 118.32L117.124 118.432L116.942 119.874C116.382 120.051 115.808 120.14 115.22 120.14C114.324 120.14 113.624 119.851 113.12 119.272C112.616 118.684 112.364 117.867 112.364 116.822C112.364 115.739 112.639 114.895 113.19 114.288C113.741 113.672 114.506 113.364 115.486 113.364ZM120.901 113.364C121.853 113.364 122.581 113.644 123.085 114.204C123.589 114.764 123.841 115.571 123.841 116.626C123.841 117.765 123.57 118.637 123.029 119.244C122.487 119.841 121.708 120.14 120.691 120.14C119.739 120.14 119.011 119.86 118.507 119.3C118.003 118.74 117.751 117.933 117.751 116.878C117.751 115.739 118.021 114.871 118.563 114.274C119.104 113.667 119.883 113.364 120.901 113.364ZM120.775 114.624C120.327 114.624 120 114.773 119.795 115.072C119.599 115.371 119.501 115.851 119.501 116.514C119.501 117.373 119.603 117.984 119.809 118.348C120.014 118.712 120.35 118.894 120.817 118.894C121.265 118.894 121.587 118.749 121.783 118.46C121.988 118.161 122.091 117.676 122.091 117.004C122.091 116.155 121.983 115.548 121.769 115.184C121.563 114.811 121.232 114.624 120.775 114.624Z" fill="white"/>
<defs>
<filter id="filter0_b_206:36486" x="3" y="67" width="161" height="97" filterUnits="userSpaceOnUse" color-interpolation-filters="sRGB">
<feFlood flood-opacity="0" result="BackgroundImageFix"/>
<feGaussianBlur in="BackgroundImage" stdDeviation="5"/>
<feComposite in2="SourceAlpha" operator="in" result="effect1_backgroundBlur_206:36486"/>
<feBlend mode="normal" in="SourceGraphic" in2="effect1_backgroundBlur_206:36486" result="shape"/>
</filter>
</defs>
</svg>
