<svg width="167" height="167" viewBox="0 0 167 167" fill="none" xmlns="http://www.w3.org/2000/svg">
<mask id="mask0_206:35678" style="mask-type:alpha" maskUnits="userSpaceOnUse" x="0" y="0" width="167" height="167">
<rect x="1" y="1" width="165" height="165" rx="8" fill="#5988D6" stroke="#EDE6FC" stroke-opacity="0.3"/>
</mask>
<g mask="url(#mask0_206:35678)">
<rect x="1" y="1" width="165" height="165" rx="8" fill="#CEE2F2" stroke="#EDE6FC" stroke-opacity="0.3"/>
<path d="M225.755 -50.9903H-136.082V56.8371H225.755V-50.9903Z" fill="#C7FEFF"/>
<path d="M231.544 11.9693L-141.151 -7.92813V-49.4525L231.544 -63.2928V11.9693Z" fill="#B0FFFF"/>
<path d="M-138.032 -9.75177L-138.257 -5.76071L235.162 12.3311L-138.032 -9.75177Z" fill="#E6FFFF"/>
<path d="M262.535 38.6114L258.306 41.7666L253.844 37.6923L254.6 30.7197L246.817 23.2803L242.464 27.2641L239.266 23.8629L239.418 20.1034L228.816 15.3235L223.511 23.8376L219.361 19.9768L219.332 12.4361L204.927 -0.611771L194.141 6.12202L191.67 4.12469L190.407 -11.6804L173.495 -19.1125L154.835 -13.4714L151.878 2.14544L148.864 3.89672L137.177 -3.83935L119.462 7.77923L118.709 15.2873L113.596 18.7356L108.342 9.75124L95.7684 13.4963L95.5803 17.2557L91.5964 20.335L87.0047 15.9567L77.398 22.6182L77.5933 29.6342L72.1043 33.2634L67.5741 29.721L56.3282 30.9911L57.2979 42.4577L67.6573 41.8172L81.1285 49.2566L162.162 53.2947L162.184 53.6023L249.144 56.9492L261.457 50.6569L270.391 52.1549L272.186 40.8149L262.535 38.6114Z" fill="#F3FFFD"/>
<path d="M-60.7654 178.133C-12.5888 183.183 38.8263 189.837 74.7833 179.734C115.535 168.268 170.051 161.887 254 160.772L253.754 30C169.526 31.0848 112.271 35.2037 71.4471 46.6739C35.4901 56.777 -13.3198 52.4068 -61.5 47.3574C-101.437 43.168 -137.278 41.2806 -162 47.4059L-160.875 178.081C-136.164 172.083 -100.5 173.97 -60.7654 178.133Z" fill="#4AC6C0"/>
<g style="mix-blend-mode:overlay" opacity="0.9">
<g style="mix-blend-mode:overlay" opacity="0.5">
<path d="M156.065 159.577C156.116 159.838 156.507 160.026 156.937 159.99C157.368 159.953 157.661 159.715 157.621 159.45C157.581 159.186 157.18 159.002 156.749 159.038C156.318 159.074 156.011 159.316 156.065 159.577Z" fill="#FFDC8D"/>
</g>
<g style="mix-blend-mode:overlay" opacity="0.5">
<path d="M155.996 145.252C155.888 145.614 156.275 145.976 156.861 146.026C157.447 146.077 158.012 145.834 158.124 145.469C158.236 145.104 157.849 144.745 157.259 144.698C156.669 144.651 156.105 144.886 155.996 145.252Z" fill="#FFDC8D"/>
</g>
<g style="mix-blend-mode:overlay" opacity="0.9">
<path d="M138.798 161.954C138.852 162.215 139.247 162.399 139.67 162.363C140.093 162.327 140.394 162.092 140.34 161.831C140.285 161.571 139.891 161.386 139.468 161.419C139.044 161.451 138.74 161.694 138.798 161.954Z" fill="#FFDC8D"/>
</g>
<g style="mix-blend-mode:overlay" opacity="0.9">
<path d="M151.195 138.276C151.133 138.496 151.365 138.703 151.712 138.739C152.059 138.775 152.4 138.623 152.465 138.402C152.53 138.182 152.298 137.972 151.947 137.939C151.596 137.907 151.26 138.051 151.195 138.276Z" fill="#FFDC8D"/>
</g>
<g style="mix-blend-mode:overlay" opacity="0.6">
<path d="M150.713 123.697C149.364 123.849 148.445 124.649 148.655 125.485C148.864 126.321 150.127 126.867 151.473 126.719C152.819 126.57 153.746 125.767 153.539 124.935C153.333 124.103 152.063 123.545 150.713 123.697Z" fill="#FFDC8D"/>
</g>
<g style="mix-blend-mode:overlay" opacity="0.5">
<path d="M163.157 97.171C162.69 97.2253 162.372 97.5112 162.433 97.8079C162.495 98.1046 162.933 98.2963 163.399 98.2421C163.866 98.1878 164.188 97.9019 164.123 97.6052C164.058 97.3085 163.609 97.1131 163.157 97.171Z" fill="#FFDC8D"/>
</g>
<g style="mix-blend-mode:overlay" opacity="0.9">
<path d="M158.815 112.48C159.242 112.318 159.394 111.974 159.177 111.71C159.012 111.573 158.813 111.484 158.602 111.452C158.39 111.419 158.174 111.445 157.975 111.525C157.552 111.688 157.4 112.032 157.632 112.296C157.794 112.43 157.99 112.518 158.198 112.551C158.406 112.583 158.619 112.559 158.815 112.48Z" fill="#FFDC8D"/>
</g>
<g style="mix-blend-mode:overlay" opacity="0.5">
<path d="M156.865 116.62C157.107 116.529 157.194 116.334 157.056 116.186C156.962 116.108 156.849 116.058 156.729 116.039C156.609 116.021 156.485 116.035 156.373 116.081C156.134 116.171 156.047 116.366 156.181 116.515C156.275 116.592 156.388 116.643 156.508 116.661C156.629 116.68 156.752 116.665 156.865 116.62Z" fill="#FFDC8D"/>
</g>
<g style="mix-blend-mode:overlay" opacity="0.9">
<path d="M148.191 118.226C148.51 118.107 148.622 117.846 148.441 117.647C148.316 117.546 148.167 117.479 148.007 117.455C147.848 117.431 147.686 117.45 147.536 117.51C147.214 117.633 147.102 117.872 147.283 118.089C147.408 118.191 147.559 118.257 147.718 118.281C147.878 118.306 148.042 118.287 148.191 118.226Z" fill="#FFDC8D"/>
</g>
<g style="mix-blend-mode:overlay" opacity="0.9">
<path d="M161.869 130.482C161.59 130.71 161.652 131.028 162.006 131.205C162.192 131.287 162.395 131.32 162.596 131.3C162.798 131.281 162.991 131.209 163.157 131.093C163.436 130.862 163.374 130.543 163.02 130.37C162.835 130.287 162.631 130.253 162.429 130.273C162.228 130.293 162.034 130.365 161.869 130.482Z" fill="#FFDC8D"/>
</g>
<g style="mix-blend-mode:overlay" opacity="0.9">
<path d="M129.64 108.214C130.132 108.214 130.574 107.975 130.621 107.672C130.668 107.368 130.306 107.118 129.81 107.114C129.314 107.111 128.877 107.353 128.829 107.657C128.782 107.961 129.144 108.207 129.64 108.214Z" fill="#FFDC8D"/>
</g>
<g style="mix-blend-mode:overlay" opacity="0.9">
<path d="M124.292 94.1859C124.603 94.1859 124.878 94.0339 124.904 93.8421C124.929 93.6503 124.705 93.4803 124.397 93.4803C124.089 93.4803 123.811 93.6323 123.782 93.8421C123.753 94.052 123.981 94.1859 124.292 94.1859Z" fill="#FFDC8D"/>
</g>
<g style="mix-blend-mode:overlay" opacity="0.9">
<path d="M99.1987 126.028C99.1191 126.248 99.3398 126.454 99.6908 126.494C99.8403 126.523 99.9951 126.507 100.135 126.447C100.275 126.387 100.394 126.286 100.476 126.158C100.556 125.937 100.335 125.731 99.9803 125.695C99.8316 125.665 99.6776 125.682 99.5383 125.741C99.3989 125.8 99.2806 125.9 99.1987 126.028Z" fill="#FFDC8D"/>
</g>
<g style="mix-blend-mode:overlay" opacity="0.6">
<path d="M76.2872 125.253C76.0665 125.912 76.7431 126.53 77.7961 126.639C78.849 126.748 79.8839 126.299 80.1046 125.64C80.3253 124.982 79.6559 124.356 78.5994 124.251C77.5428 124.146 76.5079 124.58 76.2872 125.253Z" fill="#FFDC8D"/>
</g>
<g style="mix-blend-mode:overlay" opacity="0.6">
<path d="M105.473 99.3927C106.801 99.6315 108.212 99.2371 108.679 98.4519C109.193 97.5799 108.378 96.5595 106.797 96.2556C105.216 95.9516 103.675 96.5342 103.429 97.4714C103.208 98.3217 104.138 99.1467 105.473 99.3927Z" fill="#FFDC8D"/>
</g>
<g style="mix-blend-mode:overlay" opacity="0.9">
<path d="M60.5545 127.797C60.4351 128.177 60.8332 128.539 61.4447 128.6C62.0562 128.662 62.646 128.405 62.769 128.021C62.8921 127.638 62.494 127.298 61.8825 127.218C61.271 127.138 60.6776 127.413 60.5545 127.797Z" fill="#FFDC8D"/>
</g>
<g style="mix-blend-mode:overlay" opacity="0.9">
<path d="M98.6415 107.614C98.6958 108.019 99.2602 108.298 99.9043 108.24C100.548 108.182 101.026 107.813 100.99 107.407C100.954 107.002 100.371 106.724 99.7234 106.781C99.0757 106.839 98.5872 107.212 98.6415 107.614Z" fill="#FFDC8D"/>
</g>
<g style="mix-blend-mode:overlay" opacity="0.9">
<path d="M83.0861 123.556C83.0101 123.777 83.2344 123.987 83.5854 124.023C83.7339 124.051 83.8875 124.035 84.0263 123.975C84.165 123.915 84.2825 123.814 84.3634 123.686C84.4394 123.466 84.215 123.256 83.8604 123.223C83.7127 123.191 83.5587 123.206 83.4198 123.265C83.2809 123.325 83.1642 123.427 83.0861 123.556Z" fill="#FFDC8D"/>
</g>
<g style="mix-blend-mode:overlay" opacity="0.9">
<path d="M85.5429 132.957C85.4669 133.174 85.6877 133.38 86.0386 133.413C86.1845 133.444 86.3364 133.43 86.4737 133.371C86.6111 133.313 86.727 133.214 86.8057 133.087C86.8817 132.87 86.6574 132.667 86.31 132.631C85.9626 132.595 85.6153 132.743 85.5429 132.957Z" fill="#FFDC8D"/>
</g>
<g style="mix-blend-mode:overlay" opacity="0.9">
<path d="M91.6363 115.997C91.5567 116.225 91.781 116.435 92.1356 116.471C92.2883 116.499 92.4458 116.479 92.5868 116.414C92.7278 116.349 92.8456 116.243 92.9244 116.11C93.0041 115.885 92.7797 115.672 92.4215 115.636C92.2693 115.609 92.1127 115.629 91.9724 115.694C91.8321 115.759 91.7149 115.864 91.6363 115.997Z" fill="#FFDC8D"/>
</g>
<g style="mix-blend-mode:overlay" opacity="0.9">
<path d="M107.257 132.07C107.282 132.291 107.597 132.432 107.955 132.414C108.313 132.396 108.585 132.182 108.556 131.962C108.527 131.741 108.216 131.6 107.858 131.622C107.499 131.643 107.228 131.853 107.257 132.07Z" fill="#FFDC8D"/>
</g>
<g style="mix-blend-mode:overlay" opacity="0.5">
<path d="M100.686 135.265C100.715 135.482 101.048 135.627 101.384 135.602C101.721 135.576 102.007 135.374 101.978 135.157C101.949 134.94 101.637 134.795 101.283 134.82C100.928 134.845 100.657 135.048 100.686 135.265Z" fill="#FFDC8D"/>
</g>
<g style="mix-blend-mode:overlay" opacity="0.5">
<path d="M105.882 121.259C105.911 121.483 106.244 121.62 106.605 121.62C106.967 121.62 107.242 121.382 107.213 121.157C107.184 120.933 106.852 120.795 106.49 120.795C106.128 120.795 105.856 121.038 105.882 121.259Z" fill="#FFDC8D"/>
</g>
<g style="mix-blend-mode:overlay" opacity="0.5">
<path d="M108.918 81.5505C109.301 81.5505 109.641 81.3588 109.67 81.1127C109.699 80.8667 109.417 80.6713 109.033 80.6677C108.65 80.664 108.31 80.863 108.277 81.1091C108.245 81.3551 108.52 81.5505 108.918 81.5505Z" fill="#FFDC8D"/>
</g>
<g style="mix-blend-mode:overlay" opacity="0.5">
<path d="M45.9219 142.31C45.9761 142.574 46.3669 142.759 46.7939 142.723C47.2209 142.686 47.5176 142.448 47.4778 142.187C47.438 141.927 47.0363 141.738 46.6094 141.771C46.1824 141.804 45.8784 142.032 45.9219 142.31Z" fill="#FFDC8D"/>
</g>
<g style="mix-blend-mode:overlay" opacity="0.5">
<path d="M40.6716 44.9761C40.4839 44.8568 40.2669 44.792 40.0446 44.7888C39.8223 44.7856 39.6034 44.8442 39.4124 44.958C39.3307 44.9917 39.2599 45.0474 39.208 45.1189C39.156 45.1904 39.1249 45.275 39.1182 45.3631C39.1114 45.4512 39.1293 45.5395 39.1697 45.6181C39.2102 45.6967 39.2716 45.7626 39.3473 45.8083C39.5354 45.9264 39.7523 45.9905 39.9743 45.9937C40.1964 45.9969 40.4151 45.939 40.6065 45.8264C40.6882 45.7927 40.759 45.737 40.8109 45.6655C40.8629 45.594 40.894 45.5094 40.9007 45.4213C40.9075 45.3331 40.8896 45.2448 40.8492 45.1662C40.8087 45.0876 40.7472 45.0218 40.6716 44.9761Z" fill="#FFDC8D"/>
</g>
<g style="mix-blend-mode:overlay" opacity="0.5">
<path d="M45.8639 127.974C45.7517 128.336 46.1389 128.698 46.7251 128.745C47.3112 128.792 47.8793 128.557 47.9879 128.188C48.0964 127.819 47.7129 127.464 47.1231 127.417C46.5333 127.37 45.9724 127.605 45.8639 127.974Z" fill="#FFDC8D"/>
</g>
<g style="mix-blend-mode:overlay" opacity="0.5">
<path d="M88.6837 134.958C88.709 135.12 88.9406 135.233 89.2083 135.211C89.4761 135.189 89.6714 135.041 89.6461 134.878C89.6208 134.715 89.3892 134.599 89.1215 134.625C88.8537 134.65 88.6583 134.795 88.6837 134.958Z" fill="#FFDC8D"/>
</g>
<g style="mix-blend-mode:overlay" opacity="0.5">
<path d="M71.2504 130.424C71.2143 130.532 71.3264 130.634 71.5001 130.652C71.5734 130.667 71.6497 130.659 71.7184 130.63C71.7871 130.6 71.8448 130.549 71.8837 130.485C71.9198 130.377 71.8041 130.275 71.6304 130.257C71.5576 130.243 71.4821 130.251 71.4142 130.281C71.3462 130.311 71.2891 130.36 71.2504 130.424Z" fill="#FFDC8D"/>
</g>
<g style="mix-blend-mode:overlay" opacity="0.6">
<path d="M113.48 47.5089C113.795 46.5283 112.876 45.631 111.425 45.508C109.974 45.3849 108.53 46.0761 108.241 47.0566C107.951 48.0372 108.852 48.9237 110.3 49.0504C111.747 49.177 113.165 48.4823 113.48 47.5089Z" fill="#FFDC8D"/>
</g>
<g style="mix-blend-mode:overlay" opacity="0.9">
<path d="M124.86 48.8984C125.052 48.3267 124.52 47.8129 123.673 47.7333C122.827 47.6537 121.991 48.0661 121.799 48.6342C121.607 49.2023 122.161 49.7198 122.99 49.7957C123.818 49.8717 124.672 49.4701 124.86 48.8984Z" fill="#FFDC8D"/>
</g>
<g style="mix-blend-mode:overlay" opacity="0.9">
<path d="M71.2179 72.8375C71.3048 72.5336 70.9972 72.2513 70.5304 72.2079C70.0637 72.1645 69.6186 72.3852 69.5318 72.6892C69.4449 72.9931 69.7525 73.279 70.2156 73.3188C70.6788 73.3586 71.1311 73.1378 71.2179 72.8375Z" fill="#FFDC8D"/>
</g>
<g style="mix-blend-mode:overlay" opacity="0.5">
<path d="M137 59.3591C137.188 58.82 136.685 58.3279 135.875 58.2555C135.064 58.1831 134.257 58.5667 134.065 59.1058C133.874 59.6449 134.376 60.1334 135.187 60.1913C135.998 60.2492 136.808 59.8946 137 59.3591Z" fill="#FFDC8D"/>
</g>
<g style="mix-blend-mode:overlay" opacity="0.5">
<path d="M110.112 45.3379C110.159 45.1751 110.007 45.0267 109.75 45.005C109.645 44.9882 109.538 45.0043 109.443 45.0509C109.347 45.0976 109.269 45.1725 109.218 45.2655C109.167 45.4284 109.319 45.5767 109.58 45.5984C109.684 45.6136 109.791 45.5969 109.886 45.5504C109.981 45.5039 110.06 45.4298 110.112 45.3379Z" fill="#FFDC8D"/>
</g>
<g style="mix-blend-mode:overlay" opacity="0.9">
<path d="M28.6659 144.677C28.7202 144.933 29.1109 145.118 29.5379 145.082C29.9649 145.046 30.2616 144.81 30.2037 144.55C30.1458 144.289 29.7586 144.109 29.3317 144.141C28.9047 144.174 28.608 144.412 28.6659 144.677Z" fill="#FFDC8D"/>
</g>
<g style="mix-blend-mode:overlay" opacity="0.9">
<path d="M18.8745 125.206C18.8166 125.423 19.0518 125.626 19.3991 125.662C19.7465 125.698 20.0721 125.55 20.1228 125.333C20.1735 125.116 19.9455 124.909 19.6018 124.873C19.258 124.837 18.9324 124.985 18.8745 125.206Z" fill="#FFDC8D"/>
</g>
<g style="mix-blend-mode:overlay" opacity="0.9">
<path d="M115.68 109.578C116.042 109.578 116.382 109.397 116.404 109.17C116.426 108.942 116.158 108.75 115.785 108.746C115.413 108.743 115.08 108.927 115.062 109.159C115.043 109.39 115.304 109.575 115.68 109.578Z" fill="#FFDC8D"/>
</g>
<g style="mix-blend-mode:overlay" opacity="0.9">
<path d="M41.0624 120.994C40.9972 121.215 41.2288 121.421 41.5798 121.458C41.9308 121.494 42.2673 121.342 42.3324 121.121C42.3975 120.9 42.1624 120.694 41.815 120.658C41.6701 120.627 41.519 120.643 41.3837 120.703C41.2484 120.764 41.1359 120.866 41.0624 120.994Z" fill="#FFDC8D"/>
</g>
<g style="mix-blend-mode:overlay" opacity="0.9">
<path d="M91.0284 25.7227C91.4156 25.6142 91.6218 25.3247 91.4952 25.0714C91.3876 24.9343 91.2388 24.8353 91.0707 24.7891C90.9027 24.7429 90.7243 24.7518 90.5617 24.8145C90.1781 24.9231 89.9682 25.2125 90.0985 25.4658C90.2066 25.6012 90.3547 25.699 90.5218 25.7452C90.6888 25.7913 90.8661 25.7835 91.0284 25.7227Z" fill="#FFDC8D"/>
</g>
<g style="mix-blend-mode:overlay" opacity="0.6">
<path d="M81.3095 59.6449C82.4203 59.3482 83.0137 58.5377 82.6338 57.8357C82.2538 57.1338 81.0453 56.7973 79.9345 57.1121C78.8236 57.4269 78.2338 58.2265 78.6174 58.9213C79.0009 59.616 80.2022 59.9453 81.3095 59.6449Z" fill="#FFDC8D"/>
</g>
<g style="mix-blend-mode:overlay" opacity="0.6">
<path d="M25.4998 100.294C26.5274 100.03 27.0412 99.295 26.6431 98.651C26.2451 98.0069 25.0945 97.6993 24.0669 97.9671C23.0392 98.2348 22.529 98.9657 22.9271 99.6098C23.3251 100.254 24.4758 100.554 25.4998 100.294Z" fill="#FFDC8D"/>
</g>
<g style="mix-blend-mode:overlay" opacity="0.9">
<path d="M43.085 61.7653C43.3723 61.8636 43.6813 61.8797 43.9772 61.812C44.2732 61.7442 44.5444 61.5952 44.7603 61.3818C45.0751 60.9765 44.8363 60.488 44.2284 60.2963C43.9412 60.1967 43.6319 60.1799 43.3357 60.2477C43.0395 60.3155 42.7683 60.4653 42.5531 60.6798C42.2383 61.0814 42.4771 61.5699 43.085 61.7653Z" fill="#FFDC8D"/>
</g>
<g style="mix-blend-mode:overlay" opacity="0.9">
<path d="M61.224 59.3772C61.5858 59.2795 61.7812 59.0153 61.6509 58.7729C61.5441 58.6456 61.401 58.5538 61.2407 58.5098C61.0804 58.4659 60.9104 58.4718 60.7536 58.5269C60.3918 58.6282 60.1964 58.8887 60.3267 59.1311C60.4335 59.2585 60.5766 59.3503 60.7369 59.3942C60.8972 59.4382 61.0671 59.4322 61.224 59.3772Z" fill="#FFDC8D"/>
</g>
<g style="mix-blend-mode:overlay" opacity="0.5">
<path d="M49.5835 54.2825C49.9454 54.1848 50.1372 53.9207 50.0033 53.6746C49.8959 53.547 49.7521 53.455 49.5912 53.4111C49.4302 53.3671 49.2597 53.3732 49.1023 53.4286C48.7405 53.5299 48.5487 53.7904 48.6826 54.0365C48.7894 54.165 48.9331 54.2575 49.0943 54.3015C49.2555 54.3455 49.4263 54.3389 49.5835 54.2825Z" fill="#FFDC8D"/>
</g>
<g style="mix-blend-mode:overlay" opacity="0.5">
<path d="M63.4239 48.7536C63.7857 48.6523 63.9884 48.3918 63.8545 48.1385C63.748 48.0075 63.6032 47.913 63.4404 47.8682C63.2776 47.8235 63.1048 47.8307 62.9463 47.8888C62.5845 47.9902 62.3854 48.2507 62.5157 48.5076C62.623 48.6376 62.768 48.731 62.9307 48.7751C63.0933 48.8192 63.2657 48.8117 63.4239 48.7536Z" fill="#FFDC8D"/>
</g>
<g style="mix-blend-mode:overlay" opacity="0.5">
<path d="M127.335 70.8474C127.972 70.6846 128.327 70.2359 128.131 69.8451C127.936 69.4543 127.263 69.2698 126.633 69.4362C126.004 69.6027 125.642 70.0477 125.841 70.4385C126.04 70.8293 126.687 71.0283 127.335 70.8474Z" fill="#FFDC8D"/>
</g>
<g style="mix-blend-mode:overlay" opacity="0.9">
<path d="M14.4674 55.4693C13.997 55.5308 13.6822 55.8312 13.7654 56.1423C13.8486 56.4535 14.2973 56.6525 14.7641 56.5874C15.2309 56.5223 15.5493 56.2256 15.466 55.9216C15.3828 55.6177 14.9377 55.4006 14.4674 55.4693Z" fill="#FFDC8D"/>
</g>
<g style="mix-blend-mode:overlay" opacity="0.9">
<path d="M4.53125 72.5951C4.07172 72.653 3.76778 72.9388 3.851 73.2355C3.93422 73.5322 4.37565 73.7312 4.83518 73.6733C5.29472 73.6155 5.59866 73.3296 5.51182 73.0329C5.42498 72.7362 4.99079 72.5372 4.53125 72.5951Z" fill="#FFDC8D"/>
</g>
<g style="mix-blend-mode:overlay" opacity="0.9">
<path d="M30.7934 56.4499C30.323 56.5114 29.9974 56.8117 30.0698 57.1229C30.1421 57.4341 30.5944 57.6331 31.0684 57.5716C31.5424 57.5101 31.8609 57.2098 31.7921 56.9022C31.7234 56.5946 31.2638 56.392 30.7934 56.4499Z" fill="#FFDC8D"/>
</g>
<g style="mix-blend-mode:overlay" opacity="0.9">
<path d="M11.7355 118.498C11.294 118.498 10.9394 118.729 10.9466 119.004C10.9539 119.279 11.3085 119.496 11.768 119.489C12.2276 119.482 12.5677 119.258 12.5568 118.986C12.546 118.715 12.1805 118.49 11.7355 118.498Z" fill="#FFDC8D"/>
</g>
<g style="mix-blend-mode:overlay" opacity="0.9">
<path d="M1.37978 93.824C1.74162 93.6431 1.80314 93.3138 1.52815 93.1003C1.36106 92.9843 1.1661 92.9147 0.963261 92.8988C0.760425 92.8829 0.556993 92.9212 0.373863 93.0099C0.0120261 93.1872 -0.049495 93.5165 0.229119 93.7336C0.396249 93.848 0.590464 93.9165 0.792369 93.9324C0.994275 93.9483 1.19683 93.9109 1.37978 93.824Z" fill="#FFDC8D"/>
</g>
<g style="mix-blend-mode:overlay" opacity="0.9">
<path d="M7.59606 83.9966C7.32468 84.239 7.40428 84.5755 7.77335 84.7492C7.96008 84.8334 8.16598 84.866 8.3696 84.8438C8.57322 84.8215 8.76715 84.7451 8.93126 84.6225C9.20264 84.3801 9.12304 84.04 8.75396 83.8699C8.5675 83.7846 8.36139 83.7513 8.15754 83.7736C7.95369 83.7959 7.75966 83.8729 7.59606 83.9966Z" fill="#FFDC8D"/>
</g>
<g style="mix-blend-mode:overlay" opacity="0.5">
<path d="M2.90668 95.7092C2.63892 95.9444 2.71853 96.2737 3.08398 96.4329C3.26764 96.516 3.4702 96.5485 3.67064 96.5268C3.87108 96.5052 4.06208 96.4303 4.22378 96.3099C4.49153 96.0747 4.41193 95.7454 4.04648 95.5862C3.86265 95.5038 3.66019 95.4718 3.45991 95.4934C3.25962 95.515 3.0687 95.5895 2.90668 95.7092Z" fill="#FFDC8D"/>
</g>
<g style="mix-blend-mode:overlay" opacity="0.9">
<path d="M97.3858 85.8636C96.9154 85.9215 96.5862 86.2074 96.6622 86.5005C96.7381 86.7935 97.1579 86.9926 97.6283 86.9347C98.0987 86.8768 98.4243 86.5945 98.352 86.2978C98.2796 86.0011 97.8526 85.7985 97.3858 85.8636Z" fill="#FFDC8D"/>
</g>
<g style="mix-blend-mode:overlay" opacity="0.9">
<path d="M94.3066 72.548C93.829 72.6095 93.4853 72.9099 93.5432 73.2029C93.6011 73.496 94.0353 73.7023 94.5093 73.6444C94.9833 73.5865 95.3307 73.2825 95.2728 72.9931C95.2149 72.7036 94.7698 72.4756 94.3066 72.548Z" fill="#FFDC8D"/>
</g>
<g style="mix-blend-mode:overlay" opacity="0.9">
<path d="M73.6349 81.6555C73.1572 81.7133 72.828 82.0173 72.9112 82.3031C72.9944 82.589 73.4105 82.8025 73.8809 82.7446C74.3513 82.6867 74.6842 82.3828 74.6046 82.0969C74.525 81.8111 74.1053 81.5976 73.6349 81.6555Z" fill="#FFDC8D"/>
</g>
<g style="mix-blend-mode:overlay" opacity="0.9">
<path d="M63.29 89.3264C62.8305 89.3807 62.5048 89.6593 62.5664 89.9524C62.6279 90.2455 63.0585 90.43 63.5216 90.3794C63.9848 90.3287 64.3068 90.0429 64.2453 89.7534C64.1838 89.4639 63.764 89.2721 63.29 89.3264Z" fill="#FFDC8D"/>
</g>
<g style="mix-blend-mode:overlay" opacity="0.6">
<path d="M40.5775 106.416C39.2314 106.568 38.3088 107.371 38.5186 108.203C38.7285 109.036 39.9949 109.586 41.341 109.437C42.687 109.289 43.6133 108.489 43.4034 107.653C43.1936 106.818 41.9416 106.264 40.5775 106.416Z" fill="#FFDC8D"/>
</g>
<g style="mix-blend-mode:overlay" opacity="0.5">
<path d="M69.0541 88.9501C68.5909 89.0044 68.2652 89.283 68.3304 89.5761C68.3955 89.8692 68.8188 90.0573 69.2856 90.003C69.7524 89.9488 70.0744 89.6701 70.0093 89.3771C69.9441 89.084 69.5208 88.8958 69.0541 88.9501Z" fill="#FFDC8D"/>
</g>
<g style="mix-blend-mode:overlay" opacity="0.5">
<path d="M53.0066 79.8897C52.5398 79.9439 52.2214 80.2515 52.2829 80.5265C52.3444 80.8015 52.7859 81.015 53.249 80.9607C53.7122 80.9064 54.0379 80.6206 53.9727 80.3239C53.9076 80.0272 53.4734 79.8354 53.0066 79.8897Z" fill="#FFDC8D"/>
</g>
<g style="mix-blend-mode:overlay" opacity="0.9">
<path d="M82.8581 89.254C82.3913 89.3083 82.0621 89.5905 82.1344 89.88C82.2068 90.1695 82.6193 90.3649 83.0861 90.3106C83.5528 90.2563 83.8857 89.9741 83.8097 89.6846C83.7338 89.3951 83.3249 89.1997 82.8581 89.254Z" fill="#FFDC8D"/>
</g>
<g style="mix-blend-mode:overlay" opacity="0.9">
<path d="M48.6754 95.2026C49.1024 95.0398 49.2544 94.6925 49.0156 94.4319C48.8519 94.2946 48.6537 94.2049 48.4425 94.1723C48.2314 94.1398 48.0153 94.1657 47.8179 94.2474C47.3909 94.4066 47.2389 94.754 47.456 95.0145C47.6221 95.1554 47.8239 95.2475 48.0392 95.2807C48.2544 95.3139 48.4746 95.2869 48.6754 95.2026Z" fill="#FFDC8D"/>
</g>
<g style="mix-blend-mode:overlay" opacity="0.9">
<path d="M31.3831 85.5923C31.6473 85.4909 31.745 85.2738 31.5858 85.1074C31.4842 85.0214 31.3609 84.9651 31.2294 84.9447C31.0979 84.9243 30.9633 84.9405 30.8404 84.9916C30.5726 85.0929 30.4786 85.31 30.6342 85.4765C30.7361 85.5631 30.8601 85.6198 30.9923 85.6402C31.1245 85.6607 31.2598 85.6441 31.3831 85.5923Z" fill="#FFDC8D"/>
</g>
<g style="mix-blend-mode:overlay" opacity="0.5">
<path d="M46.7288 99.324C46.9712 99.2335 47.0581 99.0381 46.9206 98.8897C46.8281 98.8108 46.7155 98.7593 46.5954 98.7407C46.4752 98.7222 46.3523 98.7375 46.2403 98.7848C45.9979 98.8753 45.9111 99.0707 46.0486 99.219C46.1418 99.2965 46.2544 99.3471 46.3742 99.3656C46.494 99.3841 46.6165 99.3697 46.7288 99.324Z" fill="#FFDC8D"/>
</g>
<g style="mix-blend-mode:overlay" opacity="0.9">
<path d="M38.0554 100.949C38.3775 100.826 38.4896 100.569 38.3087 100.37C38.1841 100.266 38.0339 100.199 37.874 100.174C37.7142 100.149 37.5505 100.168 37.4005 100.229C37.0821 100.352 36.9699 100.59 37.1508 100.807C37.2753 100.91 37.4248 100.977 37.5839 101.001C37.743 101.026 37.9058 101.008 38.0554 100.949Z" fill="#FFDC8D"/>
</g>
<g style="mix-blend-mode:overlay" opacity="0.9">
<path d="M103.11 87.2784C103.403 87.2024 103.559 86.9926 103.472 86.808C103.385 86.7064 103.269 86.6336 103.14 86.5993C103.011 86.565 102.874 86.571 102.748 86.6163C102.455 86.6922 102.3 86.9021 102.386 87.083C102.474 87.1845 102.589 87.2574 102.718 87.2922C102.847 87.3271 102.984 87.3223 103.11 87.2784Z" fill="#FFDC8D"/>
</g>
<g style="mix-blend-mode:overlay" opacity="0.9">
<path d="M77.8973 109.998C78.2773 109.824 78.3677 109.499 78.1072 109.274C77.9397 109.16 77.7451 109.09 77.5426 109.074C77.3401 109.057 77.1369 109.094 76.953 109.18C76.5911 109.358 76.4862 109.68 76.7467 109.904C76.9139 110.018 77.1079 110.087 77.3096 110.103C77.5113 110.12 77.7138 110.083 77.8973 109.998Z" fill="#FFDC8D"/>
</g>
<g style="mix-blend-mode:overlay" opacity="0.9">
<path d="M85.0002 100.399C84.7035 100.637 84.7542 100.967 85.1124 101.122C85.3024 101.204 85.5101 101.236 85.7159 101.215C85.9216 101.194 86.1187 101.121 86.2884 101.003C86.5851 100.764 86.5344 100.435 86.1762 100.279C85.9864 100.196 85.7786 100.164 85.5726 100.185C85.3666 100.206 85.1695 100.279 85.0002 100.399Z" fill="#FFDC8D"/>
</g>
<g style="mix-blend-mode:overlay" opacity="0.9">
<path d="M51.733 113.2C51.458 113.428 51.5158 113.747 51.8704 113.924C52.0549 114.005 52.257 114.036 52.4573 114.016C52.6576 113.996 52.8492 113.924 53.0138 113.808C53.2961 113.58 53.2346 113.262 52.88 113.085C52.695 113.003 52.4922 112.971 52.2912 112.992C52.0903 113.012 51.898 113.084 51.733 113.2Z" fill="#FFDC8D"/>
</g>
<g style="mix-blend-mode:overlay" opacity="0.9">
<path d="M117.084 151.736C117.005 151.942 117.214 152.141 117.558 152.174C117.703 152.203 117.853 152.19 117.99 152.134C118.127 152.079 118.245 151.985 118.329 151.863C118.412 151.653 118.199 151.457 117.855 151.421C117.71 151.393 117.56 151.408 117.423 151.464C117.286 151.52 117.168 151.614 117.084 151.736Z" fill="#FFDC8D"/>
</g>
<g style="mix-blend-mode:overlay" opacity="0.9">
<path d="M139.8 147.806C139.71 148.016 139.92 148.215 140.271 148.252C140.418 148.28 140.571 148.264 140.71 148.208C140.849 148.151 140.97 148.056 141.056 147.933C141.146 147.723 140.937 147.521 140.593 147.488C140.444 147.459 140.29 147.474 140.15 147.531C140.009 147.587 139.888 147.683 139.8 147.806Z" fill="#FFDC8D"/>
</g>
<g style="mix-blend-mode:overlay" opacity="0.6">
<path d="M126.481 127.942C127.541 127.696 128.135 126.997 127.809 126.378C127.483 125.76 126.362 125.463 125.302 125.713C124.241 125.962 123.648 126.661 123.977 127.276C124.307 127.891 125.425 128.199 126.481 127.942Z" fill="#FFDC8D"/>
</g>
<g style="mix-blend-mode:overlay" opacity="0.9">
<path d="M110.669 145.288C110.224 145.288 109.84 145.502 109.818 145.766C109.797 146.03 110.144 146.24 110.589 146.236C111.034 146.232 111.414 146.019 111.436 145.758C111.458 145.498 111.117 145.284 110.669 145.288Z" fill="#FFDC8D"/>
</g>
<g style="mix-blend-mode:overlay" opacity="0.9">
<path d="M103.013 121.664C103.374 121.494 103.497 121.179 103.24 120.94C103.074 120.827 102.881 120.76 102.681 120.743C102.481 120.727 102.28 120.762 102.097 120.846C101.735 121.016 101.619 121.331 101.869 121.57C102.036 121.682 102.228 121.75 102.428 121.767C102.629 121.783 102.83 121.748 103.013 121.664Z" fill="#FFDC8D"/>
</g>
<g style="mix-blend-mode:overlay" opacity="0.5">
<path d="M104.337 123.458C104.04 123.686 104.087 123.998 104.431 124.182C104.618 124.261 104.822 124.292 105.024 124.272C105.226 124.252 105.42 124.183 105.589 124.07C105.882 123.842 105.842 123.531 105.495 123.368C105.309 123.285 105.106 123.25 104.904 123.266C104.702 123.282 104.507 123.348 104.337 123.458Z" fill="#FFDC8D"/>
</g>
<g style="mix-blend-mode:overlay" opacity="0.6">
<path d="M140.922 133.865C139.554 134.002 138.541 134.766 138.661 135.566C138.78 136.365 139.989 136.893 141.353 136.756C142.717 136.618 143.737 135.859 143.618 135.059C143.498 134.259 142.293 133.724 140.922 133.865Z" fill="#FFDC8D"/>
</g>
<g style="mix-blend-mode:overlay" opacity="0.9">
<path d="M150.272 123.184C150.717 123.028 150.909 122.702 150.699 122.46C150.537 122.325 150.341 122.237 150.133 122.205C149.924 122.173 149.711 122.198 149.516 122.279C149.074 122.431 148.883 122.757 149.089 123.003C149.252 123.136 149.448 123.223 149.656 123.255C149.864 123.287 150.077 123.262 150.272 123.184Z" fill="#FFDC8D"/>
</g>
<g style="mix-blend-mode:overlay" opacity="0.9">
<path d="M134 113.924C134.275 113.826 134.391 113.62 134.257 113.461C134.158 113.379 134.038 113.325 133.911 113.305C133.784 113.284 133.653 113.298 133.533 113.345C133.258 113.443 133.143 113.649 133.276 113.808C133.376 113.89 133.495 113.944 133.623 113.965C133.75 113.985 133.88 113.971 134 113.924Z" fill="#FFDC8D"/>
</g>
<g style="mix-blend-mode:overlay" opacity="0.5">
<path d="M147.869 127.113C148.123 127.026 148.231 126.838 148.112 126.697C148.019 126.621 147.908 126.571 147.789 126.553C147.671 126.535 147.55 126.55 147.439 126.596C147.189 126.679 147.077 126.867 147.196 127.008C147.289 127.084 147.4 127.134 147.519 127.153C147.637 127.171 147.758 127.157 147.869 127.113Z" fill="#FFDC8D"/>
</g>
<g style="mix-blend-mode:overlay" opacity="0.9">
<path d="M138.997 128.626C139.33 128.51 139.471 128.264 139.312 128.072C139.189 127.972 139.042 127.906 138.886 127.882C138.729 127.858 138.569 127.876 138.422 127.934C138.085 128.05 137.944 128.296 138.103 128.488C138.227 128.588 138.375 128.653 138.532 128.678C138.689 128.702 138.849 128.684 138.997 128.626Z" fill="#FFDC8D"/>
</g>
<g style="mix-blend-mode:overlay" opacity="0.9">
<path d="M151.361 140.4C151.293 140.43 151.236 140.482 151.198 140.546C151.16 140.611 151.143 140.686 151.149 140.76C151.155 140.835 151.185 140.906 151.233 140.963C151.281 141.02 151.346 141.061 151.419 141.08C151.606 141.158 151.809 141.189 152.01 141.172C152.212 141.154 152.406 141.088 152.577 140.979C152.647 140.949 152.705 140.898 152.744 140.833C152.784 140.768 152.802 140.693 152.796 140.617C152.79 140.542 152.76 140.47 152.711 140.412C152.662 140.354 152.596 140.313 152.523 140.295C152.335 140.218 152.131 140.188 151.929 140.206C151.727 140.224 151.532 140.291 151.361 140.4Z" fill="#FFDC8D"/>
</g>
<g style="mix-blend-mode:overlay" opacity="0.5">
<path d="M79.276 111.829C78.9901 112.061 79.0444 112.383 79.3918 112.553C79.5789 112.634 79.7838 112.667 79.987 112.647C80.1903 112.628 80.3851 112.556 80.5533 112.441C80.8427 112.209 80.7921 111.887 80.4375 111.717C80.25 111.637 80.0454 111.605 79.8424 111.624C79.6394 111.644 79.4447 111.714 79.276 111.829Z" fill="#FFDC8D"/>
</g>
<g style="mix-blend-mode:overlay" opacity="0.9">
<path d="M118.796 77.9756C119.158 77.8815 119.375 77.6138 119.259 77.393C119.154 77.2673 119.013 77.1769 118.855 77.1342C118.697 77.0914 118.53 77.0984 118.376 77.1542C118.014 77.2483 117.797 77.516 117.917 77.7368C118.02 77.8626 118.161 77.9532 118.318 77.996C118.476 78.0387 118.643 78.0316 118.796 77.9756Z" fill="#FFDC8D"/>
</g>
</g>
<path d="M-164.747 63.0281C-161.631 67.3702 -160.513 71.1948 -155.563 74.6069C-140.931 84.7021 -123.436 85.339 -106.354 85.0712C-87.2197 84.7745 -69.5476 76.8322 -50.6307 76.3401C-27.0028 75.725 -4.08768 85.1255 19.6018 81.8834C32.0128 80.1864 44.3261 74.8783 55.7384 69.8596C61.5278 67.3267 68.4859 64.9024 72.4734 59.6486C74.0474 57.5716 75.9253 49.423 79.218 49.9586L91.8823 47.0639C96.427 45.9784 105.429 41.8643 110.987 36.6647C94.379 38.5498 79.7571 40.9307 66.7961 43.9014C30.8404 52.1911 -17.9677 48.6053 -66.1463 44.4623C-106.082 41.0248 -141.922 39.4761 -166.643 44.5021L-166.466 61.4469C-165.782 61.8392 -165.195 62.3795 -164.747 63.0281Z" fill="#69E0D7"/>
<path d="M107.626 45.8879C107.905 45.5659 107.919 42.7652 106.946 41.9294C105.972 41.0936 102.093 41.1297 101.818 41.4482C101.543 41.7666 103.24 44.256 104.214 45.0919C105.187 45.9277 107.355 46.2063 107.626 45.8879Z" fill="#2F5677"/>
<path d="M80.2058 40.6774C81.9607 30.0612 88.7524 20.0057 99.745 22.5675C114.989 26.1244 113.571 47.281 102.64 46.7744C89.2155 46.152 80.2058 40.6774 80.2058 40.6774Z" fill="#A83B46"/>
<path d="M31.8572 57.3654C46.6925 51.7569 65.3416 43.9774 72.1803 46.5102C75.7046 47.8201 74.4707 54.7601 67.2991 56.1677C59.9647 57.615 36.0726 60.3216 32.5157 63.8133C27.3596 68.879 -2.41958 83.0304 -2.41958 83.0304L-2.64392 82.115C-2.64392 82.115 17.0291 62.9738 31.8572 57.3654Z" fill="#FFAE85"/>
<path d="M12.271 41.2853C-7.60113 41.6472 -44.4072 49.1227 -49.4186 47.0747C-54.5748 44.9724 -56.811 38.3906 -60.556 35.4199C-62.7596 33.665 -99.5656 14.6758 -99.5656 14.6758L-100.17 15.9857C-91.1239 23.2839 -58.7793 50.0345 -52.5051 52.7628C-45.6302 55.7552 -12.1675 63.3248 9.23875 63.8278C32.9174 64.385 26.8602 41.0284 12.271 41.2853Z" fill="#FFCD9C"/>
<path d="M17.2751 45.2185C8.10982 40.3011 -38.3066 54.9302 -51.4739 50.8414C-58.2475 48.7355 -93.7436 18.6995 -99.9347 15.5008L-100.159 15.9821C-91.1131 23.2803 -59.0905 50.9283 -52.8126 53.6529C-45.9377 56.6489 -12.1566 63.3212 9.24963 63.8241C27.1859 64.2475 25.5938 49.6799 17.2751 45.2185Z" fill="#FFAE85"/>
<path d="M77.228 47.0241C78.9901 36.5308 71.5833 32.5506 62.7545 35.6588C53.7773 38.7995 47.134 46.6767 39.492 47.1869C32.7256 47.6428 16.6963 30.7486 -4.55805 50.4036C-4.60509 55.7878 -6.60966 57.4196 -2.78866 61.2117C-0.896575 63.0865 1.35103 64.5645 3.82219 65.5586C6.29336 66.5528 8.93828 67.0432 11.6016 67.0011C20.984 66.8563 31.0395 64.4863 39.5209 61.8196C48.2919 59.0588 57.5368 65.8758 60.0914 66.9287C62.6459 67.9817 74.9846 60.412 77.228 47.0241Z" fill="#4C8BC9"/>
<path d="M73.6132 36.0242C58.8032 42.1501 51.7872 53.2694 39.2387 53.2694C27.9819 53.2694 21.5774 39.6933 11.6378 41.7702C6.57204 42.7074 1.40864 44.8675 -4.58338 50.4036C-4.63042 55.7878 -6.63499 57.4196 -2.81399 61.2117C-0.921906 63.0865 1.3257 64.5645 3.79686 65.5586C6.26803 66.5528 8.9129 67.0432 11.5762 67.0011C20.9587 66.8563 31.0648 65.7926 39.5462 63.1258C48.3172 60.365 57.7684 67.2725 60.3265 68.329C62.8847 69.3856 74.9701 60.4012 77.2134 47.0132C78.147 41.5603 76.5766 37.8732 73.6132 36.0242Z" fill="#3E82BA"/>
<path d="M75.9868 51.9269L73.624 54.2282L76.1786 38.3834L78.0312 42.5337L75.9868 51.9269Z" fill="#5FA5DD"/>
<path d="M41.2975 56.193C34.5492 57.5065 22.6412 64.3705 4.48059 65.7998C6.75853 66.6263 9.16769 67.0321 11.5907 66.9974C20.9731 66.8527 31.0792 65.7889 39.5607 63.1222C48.3316 60.3614 57.7828 67.2688 60.341 68.3254C60.5427 68.3967 60.7579 68.4214 60.9706 68.3978C57.4427 54.2318 49.4461 54.6226 41.2975 56.193Z" fill="#438DBF"/>
<path d="M88.4159 36.7406C88.4159 36.7406 82.3117 39.7113 76.6562 40.7209L74.7277 52.3213C80.2529 50.5881 87.0554 47.053 89.458 44.2777L88.4159 36.7406Z" fill="#FFCD9C"/>
<path d="M82.5072 43.1669C80.4365 43.1824 78.3752 42.8872 76.3921 42.2912L74.7277 52.3033C80.2529 50.5701 87.0554 47.0349 89.458 44.2596L89.1577 42.1103C87.0158 42.8329 84.7676 43.1901 82.5072 43.1669Z" fill="#FFAE85"/>
<path d="M8.21478 42.7074C-12.2435 48.2398 -48.3512 65.561 -54.0682 64.7468C-59.9408 63.911 -63.9645 57.7019 -68.6104 55.596C-71.3496 54.3513 -114.347 44.2958 -114.347 44.2958L-114.625 45.8083C-103.372 51.0006 -63.0743 69.3964 -55.8774 70.5833C-47.9712 71.8859 -12.2073 70.8402 10.0565 65.7889C34.6687 60.2094 23.2165 38.6548 8.21478 42.7074Z" fill="#FFCD9C"/>
<path d="M22.3626 47.3316C20.9152 50.9826 17.1015 54.449 9.98415 56.6489C-11.6103 63.3067 -47.0703 69.2191 -54.9185 68.4737C-62.0467 67.8116 -103.079 49.1589 -114.405 44.7879L-114.339 44.2958L-114.618 45.8083C-103.365 51.0006 -63.0635 71.249 -55.8666 72.4359C-47.9604 73.7385 -11.3136 71.8533 10.9502 66.8057C26.1148 63.3646 27.2438 53.4684 22.3626 47.3316Z" fill="#FFAE85"/>
<path d="M76.4391 37.9166C76.0085 34.8663 70.9102 33.8243 65.0485 35.5864C59.1867 37.3486 54.7868 41.2455 55.221 44.2922C55.6552 47.3389 60.7499 48.381 66.608 46.6224C72.4661 44.8639 76.8697 40.9633 76.4391 37.9166Z" fill="#286B99"/>
<path d="M74.9411 38.3508C74.5793 35.6732 70.0708 34.7542 64.911 36.3028C59.7512 37.8515 55.8651 41.2745 56.2559 43.9521C56.6467 46.6297 61.119 47.5523 66.2824 46.0037C71.4458 44.455 75.3174 41.032 74.9411 38.3508Z" fill="#FFCD9C"/>
<path d="M74.9411 38.3508C74.6987 36.6538 72.8063 35.666 70.1396 35.5647C69.1047 37.8189 66.1051 38.5969 62.0597 39.809C60.1673 40.3771 58.1266 42.2008 56.5851 42.1393C56.3039 42.6982 56.1896 43.3263 56.2559 43.9484C56.6177 46.626 61.119 47.5487 66.2824 46.0001C71.4458 44.4514 75.3174 41.032 74.9411 38.3508Z" fill="#FFAE85"/>
<path d="M83.6035 56.3269C83.6035 56.3269 76.7286 44.2198 86.4403 36.9469C91.1152 33.4479 99.7667 28.7223 106.005 34.0522C112.051 39.2265 111.052 52.1875 83.6035 56.3269Z" fill="#FFCD9C"/>
<path d="M99.1444 46.3366C98.1312 44.1366 95.8879 41.9945 94.3392 42.6965C92.7905 43.3985 92.6024 46.6767 93.6155 48.8803C94.6287 51.0839 97.7006 52.3105 99.2312 51.6085C98.797 49.452 100.158 48.5365 99.1444 46.3366Z" fill="#FFAE85"/>
<path d="M88.2677 36.936L94.7048 45.9928L97.2738 45.4428L88.8503 36.4693L88.2677 36.936Z" fill="#FFAE85"/>
<path d="M92.0885 36.8022L91.705 37.8551C95.9711 39.0528 104.261 41.5929 106.946 46.0978L108.237 44.4225C108.237 44.4225 100.139 36.6538 92.0885 36.8022Z" fill="#FFAE85"/>
<path d="M85.9735 39.7765C93.402 40.5834 101.688 29.92 107.145 33.2634C107.145 33.2634 99.1517 25.2017 90.312 33.5456L85.9735 39.7765Z" fill="#7F3843"/>
<path d="M107.615 45.906C106.265 39.2337 88.1228 35.5176 80.8029 37.5258C83.3357 27.3365 91.3287 16.011 106.754 24.9665C115.666 30.1408 110.691 43.1162 107.615 45.906Z" fill="#4C8BC9"/>
<path d="M106.146 42.4432L107.778 44.7228C110.378 41.5811 111.641 37.5441 111.295 33.4805C111.295 33.4805 109.381 39.1867 106.146 42.4432Z" fill="#62A6DD"/>
<path d="M93.2717 28.8852C99.2131 26.6852 105.212 26.479 109.999 27.9227C109.15 26.7054 108.037 25.695 106.743 24.9665C91.2418 15.5841 83.2235 26.9421 80.792 37.5258L81.0597 37.4643C83.8531 33.9075 88.083 30.8029 93.2717 28.8852Z" fill="#62A6DD"/>
<path d="M106.848 25.5889C107.163 25.7718 107.467 25.9723 107.76 26.1895L108.002 26.374C108.205 26.5369 108.4 26.6961 108.588 26.8625L108.805 27.0688C109.004 27.2569 109.189 27.4523 109.366 27.6513L109.489 27.7888C110.685 29.2316 111.453 30.98 111.707 32.8365C111.561 30.7008 110.751 28.6641 109.392 27.0109L109.269 26.8734C109.095 26.6744 108.907 26.4826 108.711 26.2944C108.639 26.2257 108.567 26.1533 108.491 26.0882C108.302 25.9217 108.111 25.7553 107.904 25.5997L107.662 25.4152C107.37 25.198 107.067 24.9963 106.754 24.8109C91.2527 15.3091 83.2344 26.8119 80.8029 37.5259L81.1068 37.4535C83.7663 26.9964 91.7557 16.3367 106.848 25.5889Z" fill="#87C8F4"/>
<path d="M87.5873 34.32L94.9001 44.578L97.4112 43.9195L88.1265 33.7808L87.5873 34.32Z" fill="#495963"/>
<path d="M89.704 32.2394C86.0856 30.6365 84.5116 35.3222 81.9498 39.5774L86.585 40.3192C89.277 38.9804 93.2464 33.817 89.704 32.2394Z" fill="#FFCD9C"/>
<path d="M88.065 34.6456C85.8361 33.6723 84.8627 36.5489 83.2924 39.1541L86.1328 39.6136C87.8045 38.7923 90.2722 35.6009 88.065 34.6456Z" fill="#EF8F6F"/>
<path d="M85.5574 39.9827C86.5308 39.3965 86.9649 38.51 86.5271 37.989C86.0893 37.4679 84.9278 37.5222 83.9436 38.1048C82.9594 38.6873 82.4963 39.5883 82.9594 40.1094C83.4226 40.6304 84.5732 40.5689 85.5574 39.9827Z" fill="#FFCD9C"/>
<path d="M102.9 27.199C88.3978 26.0122 67.9214 34.6312 61.6182 37.5801C59.2699 40.5363 62.284 43.6771 69.0142 42.9751C75.8891 42.2514 100.132 30.2783 104.065 32.6628C109.779 36.1183 142.5 47.9902 142.5 47.9902L144.016 46.7708C144.016 46.7708 117.399 28.3895 102.9 27.199Z" fill="#FFCD9C"/>
<path d="M104.518 31.6568C100.382 29.1421 74.5394 40.7028 67.2954 41.2202C64.5672 41.412 62.3889 40.8584 60.8765 39.961C61.1225 42.3889 64.2235 44.6974 69.2711 44.1692C76.146 43.4455 100.66 31.143 104.601 33.5239C110.314 36.9795 142.5 47.9974 142.5 47.9974L141.349 47.205C136.414 45.4284 109.992 34.993 104.518 31.6568Z" fill="#FFAE85"/>
<path d="M98.0842 50.0671L98.9707 52.1006L100.328 51.5615L99.1335 49.3543L98.0842 50.0671Z" fill="#495963"/>
<path d="M100.121 45.5478C99.2095 43.2501 97.1759 41.8824 95.5766 42.4939C93.9773 43.1054 93.4056 45.4646 94.3283 47.7622C95.251 50.0599 97.2736 51.424 98.8766 50.8089C100.479 50.1938 101.033 47.8418 100.121 45.5478Z" fill="#495963"/>
<path d="M96.4342 47.2629C95.6393 47.2656 94.8475 47.1646 94.0787 46.9625C94.1436 47.2345 94.2271 47.5016 94.3284 47.7622C95.2402 50.0563 97.2737 51.424 98.8766 50.8089C100.288 50.2697 100.885 48.3592 100.375 46.3366C99.1595 46.9705 97.8046 47.2891 96.4342 47.2629Z" fill="#3D4C54"/>
<path d="M99.756 47.0313C99.2964 45.6599 98.0915 44.8603 97.0602 45.2511C96.029 45.6419 95.5659 47.0603 96.0254 48.4497C96.4849 49.8392 97.6899 50.6207 98.7211 50.2299C99.7523 49.8392 100.197 48.4063 99.756 47.0313Z" fill="#334047"/>
<g style="mix-blend-mode:multiply" opacity="0.3">
<g style="mix-blend-mode:multiply" opacity="0.3">
<path d="M39.8212 47.1471C39.7091 47.1471 39.5969 47.1869 39.4811 47.1905C38.3594 47.2665 36.9808 46.8649 35.3706 46.2353C30.8151 56.7285 22.4241 63.3863 16.9169 66.8165C18.2919 66.7442 19.6681 66.6501 21.0455 66.5343C32.6532 61.3564 37.6683 53.3852 39.8212 47.1471Z" fill="#334047"/>
</g>
<g style="mix-blend-mode:multiply" opacity="0.3">
<path d="M27.5731 64.783C41.2758 58.9936 48.281 49.8066 51.8559 41.5965C49.2398 43.3116 46.7215 44.9399 44.1705 46.0001C37.1292 58.8561 27.5731 64.783 27.5731 64.783Z" fill="#334047"/>
</g>
</g>
<path d="M93.6227 53.2042C93.6227 53.2042 95.7178 56.0085 96.5174 55.0134C96.9372 54.4888 98.7283 51.8076 98.7283 51.8076L93.6227 53.2042Z" fill="#FFCD9C"/>
<path d="M99.517 47.2629C99.1552 46.1593 98.1457 45.5333 97.2773 45.8589C96.4088 46.1846 95.9927 47.3497 96.3582 48.4497C96.7236 49.5497 97.7259 50.1829 98.5979 49.8536C99.47 49.5244 99.8825 48.3665 99.517 47.2629Z" fill="#CEE5EF"/>
<path d="M87.6632 51.7316C87.6632 51.7316 89.4724 49.1987 90.8546 52.0102C90.8546 52.0102 89.0563 50.7148 87.6632 51.7316Z" fill="#FFAE85"/>
<path d="M90.3336 53.3815C90.3336 52.9293 89.733 52.5674 88.9912 52.5674C88.2495 52.5674 87.6488 52.9293 87.6488 53.3815C87.6488 53.8338 88.2495 54.1957 88.9912 54.1957C89.733 54.1957 90.3336 53.8302 90.3336 53.3815Z" fill="#442E2E"/>
<path d="M147.088 48.7392C145.431 46.9083 141.704 44.6975 137.068 43.0475L137.134 45.5369C139.605 47.7803 142.116 51.8546 143.256 52.0934C143.643 52.1658 147.663 49.3652 147.088 48.7392Z" fill="#FFCD9C"/>
<path d="M142.239 51.178C143.006 52.0608 144.342 55.0894 144.845 54.7601C145.633 54.25 144.363 52.1006 143.672 50.8306C142.775 49.1698 142.239 51.178 142.239 51.178Z" fill="#FFCD9C"/>
<path d="M145.753 49.3688C146.643 50.0924 149.252 52.6506 149.715 52.2417C150.522 51.5181 147.583 48.8875 146.614 48.2326C145.134 47.2484 145.753 49.3688 145.753 49.3688Z" fill="#FFCD9C"/>
<path d="M144.559 47.603C144.432 45.2909 149.176 48.4533 149.653 47.328C150.33 45.7721 142.901 44.455 141.157 45.0919C142.308 45.6672 144.559 47.603 144.559 47.603Z" fill="#FFCD9C"/>
<path d="M144.464 50.7293C145.25 51.5796 147.721 54.6661 148.231 54.3477C149.027 53.8194 146.422 50.8378 145.698 49.8898C144.54 48.4497 144.464 50.7293 144.464 50.7293Z" fill="#FFCD9C"/>
<path d="M-7.03667 83.6926C-5.67616 82.2163 -2.66932 80.4361 1.03951 79.0647L0.923744 81.062C-1.09169 82.8712 -3.1831 86.1495 -4.09493 86.3485C-4.40249 86.4245 -7.50706 84.2136 -7.03667 83.6926Z" fill="#FFAE85"/>
<g style="mix-blend-mode:multiply">
<g style="mix-blend-mode:multiply">
<path d="M-34.1599 58.364C-43.8861 62.2104 -51.6619 65.0761 -54.0609 64.7324C-59.9335 63.8965 -63.9572 57.6874 -68.6032 55.5815C-70.9732 54.496 -103.448 46.8395 -112.183 44.7843C-114.998 43.7313 -114.575 42.3636 -116.163 41.6291C-117.205 41.1406 -119.322 42.8738 -121.525 42.7761C-127.13 42.5337 -128.093 43.9738 -128.093 43.9738C-127.59 45.6599 -122.759 44.1257 -113.981 46.0941C-101.914 51.7171 -62.944 71.2563 -55.8773 72.4214C-48.0617 73.7059 -12.1638 71.8823 10.1651 66.9613H10.2773L10.6391 66.9794C10.96 66.9794 11.282 66.9794 11.6053 66.9794C12.8862 66.9577 14.1815 66.9215 15.4841 66.8636C10.2176 70.7576 5.15941 74.9257 0.330399 79.3506C-0.726166 79.7631 -1.71399 80.2081 -2.61858 80.6677C-4.42776 80.4144 -9.49347 81.4492 -9.03032 82.5999C-8.73724 83.3489 -6.01259 81.6808 -5.22017 82.1946C-5.70074 82.5242 -6.15778 82.8869 -6.58792 83.2801L-6.64945 83.3163C-7.43464 83.841 -9.82635 85.9758 -9.20762 86.5439C-8.91814 86.8044 -7.45994 85.4837 -6.53364 84.6696L-6.23333 84.9482C-7.04022 85.9179 -8.63231 87.8429 -8.09318 88.2047C-7.75667 88.4363 -6.17902 86.6018 -5.3468 85.6718C-5.14417 85.813 -4.95242 85.9468 -4.77874 86.059C-5.32873 87.036 -5.91492 88.23 -5.42644 88.5376C-5.09717 88.7547 -4.23235 87.0468 -3.5919 86.0843C-2.68731 85.3281 -1.27254 83.3344 0.185654 81.8183C6.80727 78.6088 24.2153 70.0188 30.7428 65.2968C33.7223 64.7699 36.6661 64.0581 39.5571 63.1656C48.3281 60.4048 57.7792 67.3123 60.3374 68.3688C62.5591 69.2843 71.985 62.612 75.8964 52.0572L76.0014 51.9559V51.9161C77.8522 51.265 79.6643 50.5087 81.4289 49.651C81.7775 51.9929 82.5175 54.2595 83.618 56.3558C87.2166 55.8405 90.768 55.0371 94.2379 53.9532C94.9218 54.7059 96.0073 55.6937 96.5392 55.0387C96.8359 54.6769 97.8165 53.2296 98.3665 52.401C98.5763 52.3105 98.7826 52.22 98.9816 52.126L100.342 51.5868L100.284 51.4783C103.483 49.8174 105.679 47.9467 107.069 46.0507C107.261 46.0718 107.455 46.0312 107.622 45.9349C109.106 44.5817 111.038 40.8367 111.624 36.7443C119.585 39.9682 131.623 44.2307 138.064 46.4813C139.837 48.3629 141.537 50.8233 142.641 51.7569C143.408 52.9546 144.428 55.0641 144.852 54.7891C145.485 54.3802 144.794 52.9148 144.128 51.6954C144.352 51.5579 144.602 51.3914 144.852 51.2069C145.868 52.3756 147.786 54.6516 148.22 54.3585C148.922 53.8917 146.987 51.5145 146.006 50.3132C146.143 50.1938 146.277 50.0743 146.397 49.9513C147.537 50.9572 149.328 52.5964 149.704 52.2635C150.511 51.5398 147.573 48.9092 146.603 48.2543L146.523 48.2073C145.993 47.7293 145.431 47.2881 144.841 46.8866C145.868 46.2389 149.241 48.2905 149.642 47.3497C150.268 45.9024 143.929 44.6685 141.613 45.005C141.256 44.8241 140.887 44.6468 140.506 44.4731C136.993 42.1972 131.196 38.6005 124.864 35.268C102.372 37.3341 83.2526 40.1492 66.7781 43.9521C37.9397 50.6026 0.836975 49.6076 -37.5756 46.8178C-43.517 47.4727 -47.9097 47.7224 -49.4149 47.1037C-50.2586 46.7553 -51.0492 46.29 -51.7633 45.7215C-56.3658 45.3451 -60.9708 44.9592 -65.5782 44.5636C-59.7056 49.2168 -54.8787 52.7917 -52.8198 53.6855C-50.0554 54.8506 -42.9995 56.6345 -34.1599 58.364Z" fill="#6CE0DC"/>
</g>
</g>
<path d="M30.2072 49.3181C30.2072 49.3181 10.5233 55.4151 -74.758 45.9892L-124.417 42.6639C-124.417 42.6639 -5.87876 40.4821 30.2072 49.3181Z" fill="#85F9E3"/>
<path d="M97.2448 41.7195C97.2448 41.7195 196.786 41.9258 239.776 34.5986V31.6677C239.776 31.6677 138.914 32.0693 97.2448 41.7195Z" fill="#85F9E3"/>
<path d="M-73.7268 46.5175C-113.359 43.109 -148.334 43.2827 -172.508 48.1928L-176 44.882C-151.276 39.8561 -115.439 41.4047 -75.4998 44.8422C-27.3248 48.9816 24.085 54.4453 60.0443 46.1557C100.874 36.7479 155.519 31.4904 239.74 30.5967L240.648 34.7867C146.288 30.8753 91.933 42.5373 63.3913 49.5859C25.203 59.0226 -32.68 50.0418 -73.7268 46.5175Z" fill="#90F4E3"/>
<path d="M-74.758 45.9783C-26.5794 50.1214 24.8304 55.5815 60.7897 47.2918C101.536 37.8841 156.054 32.6483 240 31.7328L239.747 29.8042C155.522 30.6944 98.2688 34.87 57.45 44.2777C21.4942 52.5674 -27.314 48.9816 -75.4889 44.8386C-115.428 41.4011 -151.265 39.8525 -175.989 44.8784L-174.864 45.9422C-150.154 41.014 -114.491 42.5626 -74.758 45.9783Z" fill="#CCFFF5"/>
<path d="M-17.0378 55.397C-8.97974 57.7923 -0.393333 54.6733 6.31874 53.15L42.1948 46.3076C13.2985 56.9565 -8.82417 59.815 -18.2319 56.0772C-22.1651 54.5141 -31.8587 56.6164 -27.9689 59.9308C-24.0792 63.2452 -23.7752 58.9249 -23.7752 58.9249C-22.0312 60.1298 -23.9706 64.0811 -30.9143 61.6785C-37.8579 59.2759 -26.641 52.5457 -17.0378 55.397Z" fill="#CCFFF5"/>
<path d="M140.777 46.579C146.534 40.1311 158.688 37.8949 165.216 36.9361C171.743 35.9772 196.164 32.5434 196.164 32.5434C166.11 31.6207 145.684 37.5331 139.41 46.2534C136.786 49.8898 127.422 51.4204 129.148 45.6093C130.874 39.7982 133.248 45.0702 133.248 45.0702C134.159 42.8123 130.559 38.7054 125.761 44.6902C120.963 50.675 133.913 54.2572 140.777 46.579Z" fill="#CCFFF5"/>
<path d="M91.5892 65.1485C91.5843 64.9283 91.5144 64.7146 91.3884 64.534C91.2624 64.3534 91.0858 64.2141 90.8809 64.1334C90.676 64.0528 90.4519 64.0344 90.2366 64.0807C90.0213 64.1269 89.8245 64.2357 89.6708 64.3934C89.5171 64.5511 89.4134 64.7507 89.3727 64.9671C89.332 65.1835 89.356 65.4071 89.4419 65.6098C89.5278 65.8126 89.6716 65.9855 89.8554 66.1068C90.0391 66.2282 90.2546 66.2925 90.4748 66.2919C90.6231 66.29 90.7695 66.2589 90.9057 66.2004C91.042 66.1419 91.1654 66.0572 91.2689 65.951C91.3724 65.8448 91.4539 65.7193 91.5089 65.5816C91.5639 65.4439 91.5912 65.2967 91.5892 65.1485Z" fill="#CCFFF5"/>
<path d="M62.3817 52.6651C62.3753 52.3639 62.2801 52.0712 62.1081 51.8238C61.9361 51.5764 61.6949 51.3853 61.4147 51.2745C61.1345 51.1636 60.8278 51.1379 60.5331 51.2006C60.2384 51.2633 59.9687 51.4116 59.7579 51.6268C59.5471 51.8421 59.4045 52.1149 59.348 52.4108C59.2916 52.7068 59.3237 53.0129 59.4405 53.2907C59.5572 53.5684 59.7534 53.8056 60.0043 53.9724C60.2553 54.1392 60.5499 54.2282 60.8512 54.2282C61.2613 54.2235 61.6527 54.0562 61.9397 53.7632C62.2266 53.4701 62.3856 53.0752 62.3817 52.6651Z" fill="#CCFFF5"/>
<path d="M75.0641 62.2538C75.0584 62.0347 74.9883 61.8221 74.8624 61.6427C74.7366 61.4633 74.5605 61.325 74.3565 61.245C74.1524 61.1651 73.9293 61.1471 73.715 61.1933C73.5008 61.2395 73.3049 61.3479 73.152 61.5049C72.999 61.6618 72.8957 61.8604 72.855 62.0757C72.8142 62.2911 72.838 62.5137 72.9231 62.7156C73.0082 62.9176 73.151 63.09 73.3336 63.2112C73.5162 63.3324 73.7305 63.3971 73.9497 63.3972C74.0979 63.3953 74.2444 63.3642 74.3806 63.3057C74.5169 63.2473 74.6402 63.1625 74.7437 63.0563C74.8472 62.9501 74.9288 62.8246 74.9838 62.6869C75.0387 62.5492 75.0661 62.402 75.0641 62.2538Z" fill="#CCFFF5"/>
<path d="M63.7277 80.9499C63.7235 80.7296 63.6542 80.5154 63.5286 80.3344C63.403 80.1533 63.2267 80.0134 63.0219 79.9322C62.817 79.851 62.5927 79.8321 62.3772 79.878C62.1617 79.9238 61.9645 80.0324 61.8105 80.1899C61.6564 80.3475 61.5524 80.547 61.5114 80.7635C61.4704 80.9801 61.4942 81.2039 61.58 81.4068C61.6658 81.6098 61.8096 81.7829 61.9935 81.9044C62.1773 82.0259 62.3929 82.0903 62.6133 82.0897C62.9121 82.0859 63.1971 81.9637 63.4061 81.7501C63.615 81.5364 63.7306 81.2487 63.7277 80.9499Z" fill="#CCFFF5"/>
<path d="M22.9596 58.8778C22.9546 58.6586 22.885 58.4456 22.7596 58.2657C22.6341 58.0858 22.4584 57.9469 22.2543 57.8664C22.0503 57.786 21.8271 57.7675 21.6126 57.8133C21.3981 57.8591 21.2019 57.9672 21.0486 58.124C20.8952 58.2809 20.7916 58.4794 20.7506 58.6949C20.7096 58.9104 20.7331 59.1331 20.8181 59.3353C20.9032 59.5375 21.046 59.71 21.2287 59.8314C21.4114 59.9528 21.6258 60.0176 21.8451 60.0176C22.1439 60.0138 22.429 59.8917 22.6379 59.678C22.8468 59.4644 22.9625 59.1766 22.9596 58.8778Z" fill="#CCFFF5"/>
<path d="M51.1069 57.094C51.0998 56.7627 50.995 56.4409 50.8056 56.1689C50.6163 55.8969 50.3509 55.6869 50.0427 55.5652C49.7345 55.4435 49.3972 55.4155 49.0731 55.4848C48.7491 55.554 48.4527 55.7174 48.2212 55.9545C47.9896 56.1915 47.8332 56.4916 47.7715 56.8172C47.7099 57.1428 47.7458 57.4794 47.8747 57.7846C48.0036 58.0899 48.2198 58.3503 48.4961 58.5332C48.7724 58.7161 49.0966 58.8133 49.428 58.8127C49.8784 58.807 50.3082 58.6228 50.6229 58.3006C50.9377 57.9783 51.1117 57.5444 51.1069 57.094Z" fill="#CCFFF5"/>
<path d="M38.3702 58.5703C38.3745 58.2787 38.292 57.9924 38.133 57.7479C37.9741 57.5034 37.746 57.3117 37.4777 57.1973C37.2095 57.0829 36.9132 57.0509 36.6268 57.1054C36.3403 57.1599 36.0765 57.2984 35.869 57.5034C35.6615 57.7083 35.5197 57.9703 35.4617 58.2561C35.4036 58.5419 35.4319 58.8385 35.543 59.1081C35.6541 59.3778 35.8429 59.6083 36.0854 59.7702C36.3279 59.9322 36.6131 60.0183 36.9048 60.0176C37.0963 60.02 37.2865 59.9844 37.4642 59.9127C37.6419 59.841 37.8036 59.7348 37.9399 59.6002C38.0762 59.4655 38.1845 59.3052 38.2583 59.1284C38.3322 58.9516 38.3702 58.7619 38.3702 58.5703Z" fill="#CCFFF5"/>
<path d="M40.6462 68.054C40.642 67.8338 40.5728 67.6199 40.4474 67.4389C40.3219 67.2579 40.1459 67.118 39.9412 67.0367C39.7366 66.9553 39.5125 66.9363 39.297 66.9818C39.0816 67.0274 38.8844 67.1356 38.7302 67.2928C38.576 67.45 38.4716 67.6492 38.4302 67.8655C38.3888 68.0817 38.4122 68.3054 38.4974 68.5085C38.5827 68.7115 38.7259 68.8849 38.9093 69.0068C39.0926 69.1287 39.3079 69.1938 39.5281 69.1938C39.8273 69.19 40.1127 69.068 40.3222 68.8544C40.5317 68.6409 40.6482 68.3531 40.6462 68.054Z" fill="#CCFFF5"/>
<path d="M90.0659 58.4907C90.0631 58.3346 90.0141 58.1828 89.9254 58.0544C89.8366 57.9261 89.7119 57.8267 89.5668 57.769C89.4218 57.7112 89.263 57.6976 89.1102 57.7298C88.9575 57.762 88.8176 57.8385 88.7082 57.9499C88.5988 58.0613 88.5248 58.2025 88.4954 58.3558C88.466 58.5091 88.4825 58.6677 88.5428 58.8117C88.6032 58.9556 88.7048 59.0785 88.8348 59.165C88.9647 59.2514 89.1174 59.2976 89.2735 59.2976C89.3785 59.2966 89.4823 59.275 89.5789 59.234C89.6756 59.1929 89.7632 59.1332 89.8368 59.0583C89.9104 58.9833 89.9685 58.8946 90.0078 58.7973C90.0471 58.6999 90.0669 58.5957 90.0659 58.4907Z" fill="#CCFFF5"/>
<path d="M80.365 58.2844C80.3628 58.1282 80.3146 57.9761 80.2262 57.8472C80.1378 57.7183 80.0133 57.6184 79.8684 57.5601C79.7234 57.5018 79.5644 57.4876 79.4114 57.5194C79.2584 57.5512 79.1183 57.6275 79.0085 57.7388C78.8988 57.85 78.8244 57.9912 78.7947 58.1446C78.765 58.2981 78.7813 58.4568 78.8416 58.601C78.9018 58.7452 79.0034 58.8683 79.1335 58.9549C79.2636 59.0415 79.4163 59.0877 79.5726 59.0877C79.784 59.0858 79.9861 59.0002 80.1346 58.8497C80.2831 58.6991 80.3659 58.4959 80.365 58.2844Z" fill="#CCFFF5"/>
<path d="M80.727 69.9826C80.7234 69.8267 80.6739 69.6753 80.5847 69.5474C80.4955 69.4195 80.3705 69.3208 80.2255 69.2635C80.0804 69.2063 79.9217 69.1932 79.7692 69.2258C79.6167 69.2584 79.4771 69.3352 79.3681 69.4468C79.2591 69.5583 79.1854 69.6995 79.1563 69.8527C79.1271 70.0059 79.1439 70.1643 79.2043 70.308C79.2648 70.4517 79.3664 70.5745 79.4963 70.6608C79.6262 70.7471 79.7786 70.7931 79.9346 70.7931C80.147 70.7903 80.3496 70.7034 80.4981 70.5515C80.6466 70.3996 80.7289 70.195 80.727 69.9826Z" fill="#CCFFF5"/>
<path d="M86.6358 52.8569C86.6329 52.7008 86.584 52.549 86.4952 52.4206C86.4064 52.2922 86.2817 52.1929 86.1367 52.1352C85.9917 52.0774 85.8328 52.0638 85.6801 52.0959C85.5273 52.1281 85.3875 52.2047 85.2781 52.3161C85.1687 52.4275 85.0946 52.5687 85.0652 52.722C85.0358 52.8753 85.0523 53.0339 85.1127 53.1778C85.1731 53.3218 85.2746 53.4447 85.4046 53.5312C85.5346 53.6176 85.6872 53.6637 85.8433 53.6638C85.9483 53.6628 86.0521 53.6412 86.1488 53.6001C86.2454 53.5591 86.3331 53.4994 86.4067 53.4244C86.4802 53.3495 86.5384 53.2608 86.5777 53.1634C86.617 53.0661 86.6367 52.9619 86.6358 52.8569Z" fill="#CCFFF5"/>
<path d="M67.5777 53.8194C67.5741 53.6633 67.5246 53.5118 67.4352 53.3838C67.3458 53.2558 67.2206 53.1571 67.0753 53.1C66.9301 53.0429 66.7711 53.0299 66.6185 53.0628C66.4659 53.0957 66.3265 53.1729 66.2176 53.2848C66.1087 53.3966 66.0353 53.5382 66.0066 53.6916C65.9778 53.8451 65.9951 54.0036 66.0561 54.1472C66.1172 54.2909 66.2192 54.4134 66.3496 54.4992C66.48 54.5851 66.6328 54.6305 66.7889 54.6299C66.8941 54.6289 66.998 54.6072 67.0947 54.5658C67.1914 54.5245 67.2789 54.4644 67.3522 54.3891C67.4256 54.3137 67.4833 54.2245 67.522 54.1268C67.5607 54.029 67.5796 53.9245 67.5777 53.8194Z" fill="#CCFFF5"/>
<path d="M69.0793 68.5316C69.0765 68.414 69.0389 68.2999 68.9714 68.2036C68.904 68.1073 68.8096 68.033 68.7001 67.9901C68.5905 67.9473 68.4708 67.9377 68.3559 67.9627C68.2409 67.9876 68.1359 68.0459 68.054 68.1303C67.9721 68.2147 67.917 68.3215 67.8955 68.4371C67.874 68.5527 67.8872 68.6721 67.9333 68.7803C67.9794 68.8885 68.0565 68.9806 68.1548 69.0452C68.2531 69.1097 68.3683 69.1438 68.4859 69.1431C68.5651 69.1422 68.6433 69.1256 68.7161 69.0943C68.7888 69.063 68.8547 69.0176 68.9098 68.9608C68.965 68.904 69.0083 68.8368 69.0374 68.7632C69.0665 68.6895 69.0807 68.6108 69.0793 68.5316Z" fill="#CCFFF5"/>
<path d="M65.2873 60.213C65.2837 60.0571 65.2342 59.9057 65.145 59.7778C65.0558 59.6499 64.9308 59.5512 64.7858 59.4939C64.6407 59.4367 64.482 59.4236 64.3295 59.4562C64.1769 59.4888 64.0375 59.5656 63.9284 59.6771C63.8194 59.7887 63.7457 59.9298 63.7166 60.083C63.6875 60.2362 63.7041 60.3946 63.7646 60.5384C63.8251 60.6821 63.9266 60.8048 64.0565 60.8911C64.1864 60.9774 64.3389 61.0235 64.4948 61.0235C64.7072 61.0207 64.9099 60.9338 65.0584 60.7819C65.2069 60.63 65.2892 60.4254 65.2873 60.213Z" fill="#CCFFF5"/>
<path d="M85.637 59.4097C85.6334 59.2538 85.5839 59.1024 85.4947 58.9745C85.4055 58.8466 85.2806 58.7479 85.1355 58.6907C84.9904 58.6335 84.8317 58.6203 84.6792 58.6529C84.5267 58.6855 84.3872 58.7624 84.2782 58.8739C84.1691 58.9854 84.0955 59.1266 84.0663 59.2798C84.0372 59.433 84.0539 59.5914 84.1143 59.7351C84.1748 59.8789 84.2764 60.0016 84.4063 60.0879C84.5362 60.1742 84.6886 60.2202 84.8446 60.2203C85.057 60.2174 85.2596 60.1305 85.4081 59.9786C85.5566 59.8267 85.6389 59.6222 85.637 59.4097Z" fill="#CCFFF5"/>
<path style="mix-blend-mode:overlay" opacity="0.9" d="M230 -58H-162V174H230V-58Z" fill="url(#paint0_linear_206:35678)"/>
</g>
<g filter="url(#filter0_b_206:35678)">
<rect x="13" y="77" width="141" height="77" rx="10" fill="black" fill-opacity="0.8"/>
</g>
<path d="M34.7132 117.432L34.8252 117.586L34.6992 119H29.0432L29.1412 116.312L29.0432 109.984H34.7552L34.8672 110.138L34.7272 111.552L32.5712 111.482L30.9472 111.496L30.9052 113.666L32.4592 113.694L33.9292 113.652L34.0412 113.792L33.9152 115.206L32.3192 115.164L30.8772 115.178L30.8632 116.144L30.9052 117.502L32.4872 117.516L34.7132 117.432ZM37.5382 113.218L38.4342 114.674L39.3162 113.162L39.6662 112.504H41.3042L39.4282 115.696L41.3882 118.944L39.4282 119.084L39.1062 118.258L38.1822 116.76L37.2162 118.342L36.9082 119H35.2702L37.1602 115.738L35.2562 112.546L37.2442 112.448L37.5382 113.218ZM47.2026 115.976L43.4226 116.004C43.5066 117.171 44.0993 117.754 45.2006 117.754C45.7793 117.754 46.4233 117.591 47.1326 117.264L47.2866 117.362L47.0066 118.748C46.2973 119.009 45.6299 119.14 45.0046 119.14C43.9779 119.14 43.1706 118.841 42.5826 118.244C42.0039 117.647 41.7146 116.821 41.7146 115.766C41.7146 114.721 41.9993 113.895 42.5686 113.288C43.1379 112.672 43.9079 112.364 44.8786 112.364C45.7093 112.364 46.3486 112.593 46.7966 113.05C47.2539 113.498 47.4826 114.128 47.4826 114.94C47.4826 115.155 47.4593 115.425 47.4126 115.752L47.2026 115.976ZM45.8586 114.73C45.8586 114.357 45.7746 114.077 45.6066 113.89C45.4386 113.694 45.1913 113.596 44.8646 113.596C44.5006 113.596 44.1973 113.717 43.9546 113.96C43.7119 114.193 43.5486 114.534 43.4646 114.982L45.8306 114.926L45.8586 114.73ZM52.3641 112.476C52.4481 112.476 52.5648 112.485 52.7141 112.504V114.226L52.5181 114.296C52.3594 114.231 52.1868 114.198 52.0001 114.198C51.4588 114.198 50.9688 114.548 50.5301 115.248V116.13L50.6281 119H48.7661L48.8781 116.312L48.7941 112.616L50.5581 112.462L50.5441 113.736H50.6561C51.1134 112.896 51.6828 112.476 52.3641 112.476ZM56.3073 112.364C56.6153 112.364 56.9186 112.397 57.2173 112.462C57.5253 112.518 57.796 112.602 58.0293 112.714L57.7213 114.198L57.5673 114.268C57.0913 114.007 56.6666 113.876 56.2933 113.876C55.864 113.876 55.5326 114.03 55.2993 114.338C55.066 114.646 54.9493 115.085 54.9493 115.654C54.9493 116.307 55.0753 116.807 55.3273 117.152C55.5793 117.497 55.9386 117.67 56.4053 117.67C56.8253 117.67 57.292 117.553 57.8053 117.32L57.9453 117.432L57.7633 118.874C57.2033 119.051 56.6293 119.14 56.0413 119.14C55.1453 119.14 54.4453 118.851 53.9413 118.272C53.4373 117.684 53.1853 116.867 53.1853 115.822C53.1853 114.739 53.4606 113.895 54.0113 113.288C54.562 112.672 55.3273 112.364 56.3073 112.364ZM59.146 116.312L59.076 112.616L60.91 112.462L60.826 116.13L60.91 119H59.048L59.146 116.312ZM61.344 108.878L62.016 109.886L61.988 110.068C61.7827 110.199 61.6287 110.292 61.526 110.348C60.3593 111.067 59.6033 111.524 59.258 111.72L59.076 111.706L58.628 111.006C59.7107 110.138 60.5553 109.424 61.162 108.864L61.344 108.878ZM65.3444 112.364C65.6524 112.364 65.9557 112.397 66.2544 112.462C66.5624 112.518 66.8331 112.602 67.0664 112.714L66.7584 114.198L66.6044 114.268C66.1284 114.007 65.7037 113.876 65.3304 113.876C64.9011 113.876 64.5697 114.03 64.3364 114.338C64.1031 114.646 63.9864 115.085 63.9864 115.654C63.9864 116.307 64.1124 116.807 64.3644 117.152C64.6164 117.497 64.9757 117.67 65.4424 117.67C65.8624 117.67 66.3291 117.553 66.8424 117.32L66.9824 117.432L66.8004 118.874C66.2404 119.051 65.6664 119.14 65.0784 119.14C64.1824 119.14 63.4824 118.851 62.9784 118.272C62.4744 117.684 62.2224 116.867 62.2224 115.822C62.2224 114.739 62.4977 113.895 63.0484 113.288C63.5991 112.672 64.3644 112.364 65.3444 112.364ZM68.1831 116.312L68.1131 112.616L69.9471 112.462L69.8631 116.13L69.9471 119H68.0851L68.1831 116.312ZM69.0651 109.298C69.3545 109.298 69.5785 109.382 69.7371 109.55C69.9051 109.718 69.9891 109.951 69.9891 110.25C69.9891 110.567 69.9005 110.819 69.7231 111.006C69.5458 111.193 69.3031 111.286 68.9951 111.286C68.6871 111.286 68.4491 111.202 68.2811 111.034C68.1225 110.866 68.0431 110.628 68.0431 110.32C68.0431 110.012 68.1318 109.765 68.3091 109.578C68.4958 109.391 68.7478 109.298 69.0651 109.298ZM74.4095 112.364C75.3615 112.364 76.0895 112.644 76.5935 113.204C77.0975 113.764 77.3495 114.571 77.3495 115.626C77.3495 116.765 77.0788 117.637 76.5375 118.244C75.9962 118.841 75.2168 119.14 74.1995 119.14C73.2475 119.14 72.5195 118.86 72.0155 118.3C71.5115 117.74 71.2595 116.933 71.2595 115.878C71.2595 114.739 71.5302 113.871 72.0715 113.274C72.6128 112.667 73.3922 112.364 74.4095 112.364ZM74.2835 113.624C73.8355 113.624 73.5088 113.773 73.3035 114.072C73.1075 114.371 73.0095 114.851 73.0095 115.514C73.0095 116.373 73.1122 116.984 73.3175 117.348C73.5228 117.712 73.8588 117.894 74.3255 117.894C74.7735 117.894 75.0955 117.749 75.2915 117.46C75.4968 117.161 75.5995 116.676 75.5995 116.004C75.5995 115.155 75.4922 114.548 75.2775 114.184C75.0722 113.811 74.7408 113.624 74.2835 113.624ZM80.8095 112.378C81.4442 112.378 82.0415 112.485 82.6015 112.7L82.3495 114.072L82.1255 114.142C81.8548 113.965 81.5842 113.829 81.3135 113.736C81.0428 113.643 80.8048 113.596 80.5995 113.596C80.3755 113.596 80.1982 113.657 80.0675 113.778C79.9368 113.89 79.8715 114.03 79.8715 114.198C79.8715 114.394 79.9555 114.553 80.1235 114.674C80.3008 114.795 80.5762 114.931 80.9495 115.08C81.3228 115.229 81.6308 115.374 81.8735 115.514C82.1162 115.654 82.3215 115.85 82.4895 116.102C82.6668 116.345 82.7555 116.648 82.7555 117.012C82.7555 117.385 82.6575 117.735 82.4615 118.062C82.2748 118.379 81.9855 118.641 81.5935 118.846C81.2015 119.042 80.7208 119.14 80.1515 119.14C79.4795 119.14 78.7842 119 78.0655 118.72L78.2755 117.264L78.4575 117.152C78.7468 117.395 79.0688 117.591 79.4235 117.74C79.7782 117.88 80.0908 117.95 80.3615 117.95C80.6135 117.95 80.8095 117.889 80.9495 117.768C81.0895 117.637 81.1595 117.483 81.1595 117.306C81.1595 117.11 81.0708 116.951 80.8935 116.83C80.7255 116.709 80.4548 116.573 80.0815 116.424C79.6988 116.256 79.3862 116.107 79.1435 115.976C78.9008 115.836 78.6908 115.64 78.5135 115.388C78.3455 115.136 78.2615 114.823 78.2615 114.45C78.2615 113.843 78.4902 113.349 78.9475 112.966C79.4048 112.574 80.0255 112.378 80.8095 112.378ZM88.6797 112.364C89.3983 112.364 89.9583 112.527 90.3597 112.854C90.7703 113.171 90.9757 113.619 90.9757 114.198C90.9757 114.366 90.9477 114.898 90.8917 115.794C90.8823 116.055 90.8683 116.326 90.8497 116.606C90.831 116.877 90.8217 117.11 90.8217 117.306C90.8217 117.465 90.845 117.577 90.8917 117.642C90.9383 117.698 91.0223 117.726 91.1437 117.726C91.237 117.726 91.3583 117.707 91.5077 117.67L91.6477 117.782L91.4797 118.762C91.181 118.958 90.8403 119.075 90.4577 119.112C90.1777 119.084 89.9443 118.986 89.7577 118.818C89.571 118.641 89.445 118.398 89.3797 118.09H89.2817C88.815 118.585 88.3343 118.93 87.8397 119.126C87.1677 119.117 86.6403 118.939 86.2577 118.594C85.875 118.249 85.6837 117.777 85.6837 117.18C85.6837 116.713 85.8003 116.349 86.0337 116.088C86.2763 115.817 86.6403 115.635 87.1257 115.542L89.2677 115.136V114.562C89.2677 113.955 88.969 113.652 88.3717 113.652C88.0823 113.652 87.7743 113.717 87.4477 113.848C87.1303 113.979 86.771 114.184 86.3697 114.464L86.2297 114.38L86.0197 113.148C86.421 112.896 86.8503 112.705 87.3077 112.574C87.765 112.434 88.2223 112.364 88.6797 112.364ZM87.7697 116.396C87.6203 116.433 87.5083 116.499 87.4337 116.592C87.3683 116.676 87.3357 116.807 87.3357 116.984C87.3357 117.227 87.401 117.418 87.5317 117.558C87.6623 117.689 87.8443 117.754 88.0777 117.754C88.4417 117.754 88.8243 117.539 89.2257 117.11L89.2537 116.074L87.7697 116.396ZM97.8979 115.976L94.1179 116.004C94.2019 117.171 94.7946 117.754 95.8959 117.754C96.4746 117.754 97.1186 117.591 97.8279 117.264L97.9819 117.362L97.7019 118.748C96.9926 119.009 96.3252 119.14 95.6999 119.14C94.6732 119.14 93.8659 118.841 93.2779 118.244C92.6992 117.647 92.4099 116.821 92.4099 115.766C92.4099 114.721 92.6946 113.895 93.2639 113.288C93.8332 112.672 94.6032 112.364 95.5739 112.364C96.4046 112.364 97.0439 112.593 97.4919 113.05C97.9492 113.498 98.1779 114.128 98.1779 114.94C98.1779 115.155 98.1546 115.425 98.1079 115.752L97.8979 115.976ZM96.5539 114.73C96.5539 114.357 96.4699 114.077 96.3019 113.89C96.1339 113.694 95.8866 113.596 95.5599 113.596C95.1959 113.596 94.8926 113.717 94.6499 113.96C94.4072 114.193 94.2439 114.534 94.1599 114.982L96.5259 114.926L96.5539 114.73ZM103.059 112.476C103.143 112.476 103.26 112.485 103.409 112.504V114.226L103.213 114.296C103.055 114.231 102.882 114.198 102.695 114.198C102.154 114.198 101.664 114.548 101.225 115.248V116.13L101.323 119H99.4614L99.5734 116.312L99.4894 112.616L101.253 112.462L101.239 113.736H101.351C101.809 112.896 102.378 112.476 103.059 112.476ZM107.031 112.364C107.983 112.364 108.711 112.644 109.215 113.204C109.719 113.764 109.971 114.571 109.971 115.626C109.971 116.765 109.7 117.637 109.159 118.244C108.617 118.841 107.838 119.14 106.821 119.14C105.869 119.14 105.141 118.86 104.637 118.3C104.133 117.74 103.881 116.933 103.881 115.878C103.881 114.739 104.151 113.871 104.693 113.274C105.234 112.667 106.013 112.364 107.031 112.364ZM106.905 113.624C106.457 113.624 106.13 113.773 105.925 114.072C105.729 114.371 105.631 114.851 105.631 115.514C105.631 116.373 105.733 116.984 105.939 117.348C106.144 117.712 106.48 117.894 106.947 117.894C107.395 117.894 107.717 117.749 107.913 117.46C108.118 117.161 108.221 116.676 108.221 116.004C108.221 115.155 108.113 114.548 107.899 114.184C107.693 113.811 107.362 113.624 106.905 113.624ZM108.305 108.878L108.977 109.886L108.949 110.068C108.743 110.199 108.589 110.292 108.487 110.348C107.32 111.067 106.564 111.524 106.219 111.72L106.037 111.706L105.589 111.006C106.671 110.138 107.516 109.424 108.123 108.864L108.305 108.878ZM114.761 112.406C115.582 112.406 116.207 112.686 116.637 113.246C117.075 113.797 117.295 114.567 117.295 115.556C117.295 116.704 117.01 117.591 116.441 118.216C115.871 118.832 115.083 119.14 114.075 119.14C113.599 119.14 113.076 119.033 112.507 118.818L111.527 119.168L111.303 118.986L111.401 116.326L111.317 109.312L113.165 109.172L113.109 113.414H113.193C113.454 113.162 113.706 112.961 113.949 112.812C114.191 112.653 114.462 112.518 114.761 112.406ZM114.075 117.922C114.541 117.922 114.905 117.754 115.167 117.418C115.428 117.082 115.559 116.569 115.559 115.878C115.559 115.234 115.451 114.744 115.237 114.408C115.031 114.072 114.719 113.904 114.299 113.904C113.916 113.904 113.515 114.1 113.095 114.492L113.067 116.088L113.095 117.67C113.44 117.838 113.767 117.922 114.075 117.922ZM118.701 116.312L118.631 112.616L120.465 112.462L120.381 116.13L120.465 119H118.603L118.701 116.312ZM119.583 109.298C119.872 109.298 120.096 109.382 120.255 109.55C120.423 109.718 120.507 109.951 120.507 110.25C120.507 110.567 120.418 110.819 120.241 111.006C120.063 111.193 119.821 111.286 119.513 111.286C119.205 111.286 118.967 111.202 118.799 111.034C118.64 110.866 118.561 110.628 118.561 110.32C118.561 110.012 118.649 109.765 118.827 109.578C119.013 109.391 119.265 109.298 119.583 109.298ZM124.899 112.364C125.207 112.364 125.51 112.397 125.809 112.462C126.117 112.518 126.388 112.602 126.621 112.714L126.313 114.198L126.159 114.268C125.683 114.007 125.258 113.876 124.885 113.876C124.456 113.876 124.124 114.03 123.891 114.338C123.658 114.646 123.541 115.085 123.541 115.654C123.541 116.307 123.667 116.807 123.919 117.152C124.171 117.497 124.53 117.67 124.997 117.67C125.417 117.67 125.884 117.553 126.397 117.32L126.537 117.432L126.355 118.874C125.795 119.051 125.221 119.14 124.633 119.14C123.737 119.14 123.037 118.851 122.533 118.272C122.029 117.684 121.777 116.867 121.777 115.822C121.777 114.739 122.052 113.895 122.603 113.288C123.154 112.672 123.919 112.364 124.899 112.364ZM130.314 112.364C131.266 112.364 131.994 112.644 132.498 113.204C133.002 113.764 133.254 114.571 133.254 115.626C133.254 116.765 132.983 117.637 132.442 118.244C131.9 118.841 131.121 119.14 130.104 119.14C129.152 119.14 128.424 118.86 127.92 118.3C127.416 117.74 127.164 116.933 127.164 115.878C127.164 114.739 127.434 113.871 127.976 113.274C128.517 112.667 129.296 112.364 130.314 112.364ZM130.188 113.624C129.74 113.624 129.413 113.773 129.208 114.072C129.012 114.371 128.914 114.851 128.914 115.514C128.914 116.373 129.016 116.984 129.222 117.348C129.427 117.712 129.763 117.894 130.23 117.894C130.678 117.894 131 117.749 131.196 117.46C131.401 117.161 131.504 116.676 131.504 116.004C131.504 115.155 131.396 114.548 131.182 114.184C130.976 113.811 130.645 113.624 130.188 113.624ZM136.714 112.378C137.348 112.378 137.946 112.485 138.506 112.7L138.254 114.072L138.03 114.142C137.759 113.965 137.488 113.829 137.218 113.736C136.947 113.643 136.709 113.596 136.504 113.596C136.28 113.596 136.102 113.657 135.972 113.778C135.841 113.89 135.776 114.03 135.776 114.198C135.776 114.394 135.86 114.553 136.028 114.674C136.205 114.795 136.48 114.931 136.854 115.08C137.227 115.229 137.535 115.374 137.778 115.514C138.02 115.654 138.226 115.85 138.394 116.102C138.571 116.345 138.66 116.648 138.66 117.012C138.66 117.385 138.562 117.735 138.366 118.062C138.179 118.379 137.89 118.641 137.498 118.846C137.106 119.042 136.625 119.14 136.056 119.14C135.384 119.14 134.688 119 133.97 118.72L134.18 117.264L134.362 117.152C134.651 117.395 134.973 117.591 135.328 117.74C135.682 117.88 135.995 117.95 136.266 117.95C136.518 117.95 136.714 117.889 136.854 117.768C136.994 117.637 137.064 117.483 137.064 117.306C137.064 117.11 136.975 116.951 136.798 116.83C136.63 116.709 136.359 116.573 135.986 116.424C135.603 116.256 135.29 116.107 135.048 115.976C134.805 115.836 134.595 115.64 134.418 115.388C134.25 115.136 134.166 114.823 134.166 114.45C134.166 113.843 134.394 113.349 134.852 112.966C135.309 112.574 135.93 112.378 136.714 112.378Z" fill="white"/>
<defs>
<filter id="filter0_b_206:35678" x="3" y="67" width="161" height="97" filterUnits="userSpaceOnUse" color-interpolation-filters="sRGB">
<feFlood flood-opacity="0" result="BackgroundImageFix"/>
<feGaussianBlur in="BackgroundImage" stdDeviation="5"/>
<feComposite in2="SourceAlpha" operator="in" result="effect1_backgroundBlur_206:35678"/>
<feBlend mode="normal" in="SourceGraphic" in2="effect1_backgroundBlur_206:35678" result="shape"/>
</filter>
<linearGradient id="paint0_linear_206:35678" x1="17.7962" y1="0.305806" x2="92.9721" y2="137.587" gradientUnits="userSpaceOnUse">
<stop stop-color="#FFE5A8"/>
<stop offset="1" stop-color="#7F0051"/>
</linearGradient>
</defs>
</svg>
