<svg width="167" height="167" viewBox="0 0 167 167" fill="none" xmlns="http://www.w3.org/2000/svg">
<mask id="mask0_206:35888" style="mask-type:alpha" maskUnits="userSpaceOnUse" x="0" y="0" width="167" height="167">
<rect x="1" y="1" width="165" height="165" rx="8" fill="#5988D6" stroke="#EDE6FC" stroke-opacity="0.3"/>
</mask>
<g mask="url(#mask0_206:35888)">
<rect x="1" y="1" width="165" height="165" rx="8" fill="#7AC2D9" stroke="#EDE6FC" stroke-opacity="0.3"/>
<path d="M95.5695 37.8469L95.284 40.7494L93.2274 39.9236L93.5242 37.8469H95.5695Z" fill="url(#paint0_linear_206:35888)"/>
<path d="M106.966 24.9471L102.936 24.9077L103.227 25.6158C100.126 27.1803 97.9244 31.1332 97.9244 35.7661C97.9244 40.2827 100.017 44.1554 102.994 45.7955L102.985 46.6353L105.824 46.6233C105.941 46.6299 106.06 46.6353 106.178 46.6353C110.737 46.6353 114.431 41.7684 114.431 35.7655C114.431 30.1129 111.154 25.4693 106.966 24.9471Z" fill="url(#paint1_linear_206:35888)"/>
<path d="M103.308 46.6353C107.866 46.6353 111.561 41.769 111.561 35.7661C111.561 29.7633 107.866 24.897 103.308 24.897C98.7493 24.897 95.0541 29.7633 95.0541 35.7661C95.0541 41.769 98.7493 46.6353 103.308 46.6353Z" fill="url(#paint2_linear_206:35888)"/>
<path d="M109.552 45.1924C109.497 45.1909 109.445 45.1728 109.401 45.1406C109.357 45.1083 109.324 45.0633 109.306 45.0118C109.288 44.9602 109.287 44.9045 109.302 44.852C109.317 44.7996 109.347 44.7529 109.389 44.7183C109.425 44.6903 113.006 41.8165 112.635 34.57C112.266 27.3488 107.23 25.7716 107.179 25.7568C107.121 25.7303 107.073 25.6832 107.046 25.6244C107.019 25.5657 107.015 25.4991 107.033 25.4371C107.051 25.3752 107.092 25.3219 107.146 25.2873C107.201 25.2526 107.266 25.2389 107.33 25.2487C107.385 25.2647 112.777 26.9517 113.165 34.5426C113.55 42.086 109.87 45.0166 109.713 45.1376C109.667 45.1732 109.61 45.1925 109.552 45.1924Z" fill="url(#paint3_linear_206:35888)"/>
<path d="M62.4686 42.5975C62.3282 42.5975 60.2621 39.4068 61.3219 38.5189C62.3817 37.6309 66.0999 37.3327 66.3887 37.4685C66.6776 37.6042 66.8454 42.5948 66.8454 42.5948L62.4686 42.5975Z" fill="url(#paint4_linear_206:35888)"/>
<path d="M53.4315 39.719L53.719 39.6936L103.445 35.2506C103.445 35.2506 104.552 35.7294 103.445 36.624C102.337 37.5186 54.9139 42.2304 54.9139 42.2304L53.4315 39.719Z" fill="url(#paint5_linear_206:35888)"/>
<path d="M95.5695 38.1257C95.5695 38.1257 95.9921 37.2966 94.923 37.2966C93.8538 37.2966 93.6359 36.9697 93.6359 36.9697C93.6359 36.9697 94.487 36.3151 93.9635 36.2937C93.44 36.2723 92.7727 36.3606 92.5453 36.7517C92.318 37.1428 92.8944 38.1257 92.8944 38.1257C92.8944 38.1257 95.2994 38.6713 95.5695 38.1257Z" fill="url(#paint6_linear_206:35888)"/>
<path d="M68.3578 47.112L66.3801 51.0676C66.3801 51.0676 58.4702 67.1199 61.4944 67.0036C64.5186 66.8872 73.9409 53.3937 73.9409 53.3937L68.3578 47.112Z" fill="url(#paint7_linear_206:35888)"/>
<path d="M96.7349 75.8154C97.5981 75.8154 112.994 74.4661 114.564 77.6066C116.135 80.7471 113.549 113.423 113.549 113.423H109.538L107.323 86.0834L96.7343 88.0585L96.7349 75.8154Z" fill="url(#paint8_linear_206:35888)"/>
<path d="M93.7161 93.5252C93.7161 93.5252 84.1775 118.651 81.9677 118.419C79.7579 118.186 55.7944 113.998 55.7944 113.998L56.3761 109.927L78.4775 109.459L81.5023 89.684L93.7161 93.5252Z" fill="url(#paint9_linear_206:35888)"/>
<path d="M95.7694 91.2291L93.6566 95.0523L79.0284 92.1786V87.9422L95.7694 91.2291Z" fill="url(#paint10_linear_206:35888)"/>
<path d="M79.8736 34.2002C79.8736 34.2002 98.02 35.0694 99.2416 45.1931C100.463 55.3167 96.6246 74.3324 96.6246 74.3324L77.9553 72.5872C77.9553 72.5872 79.8743 53.3937 76.5592 51.3003L73.7089 55.0225L66.8461 47.3447C66.8461 47.3447 73.5919 36.2944 79.8736 34.2002Z" fill="#A9D97A"/>
<path d="M77.9219 72.5872C77.9219 72.5872 71.8862 90.7337 84.2738 91.9553C96.6614 93.1769 98.8933 88.9886 98.8933 88.9886V74.3324L77.6925 72.5872H77.9219Z" fill="url(#paint11_linear_206:35888)"/>
<path d="M84.0545 22.8711L80.8759 34.0672C80.8759 34.0672 86.3078 36.9864 90.3242 36.1974L91.4281 26.3285L84.0545 22.8711Z" fill="url(#paint12_linear_206:35888)"/>
<path d="M92.0839 15.113C92.1682 15.2661 93.9989 26.7096 93.9989 26.7096L87.4424 27.6163L84.0992 17.028C84.0992 17.028 90.6685 12.5422 92.0839 15.113Z" fill="url(#paint13_linear_206:35888)"/>
<path d="M86.3278 18.8292L87.653 24.5406C87.6697 24.6135 87.6965 24.6837 87.7326 24.7492C87.9539 25.1504 88.8171 26.4877 90.1263 25.5181C91.3144 24.6409 92.4116 23.8586 93.3511 23.7991C93.5543 23.7861 93.7551 23.8493 93.9142 23.9764C94.0734 24.1035 94.1794 24.2854 94.2116 24.4865C94.3774 25.5268 94.7084 27.8764 94.6843 29.9618C94.681 30.1661 94.6013 30.3618 94.461 30.5103C94.3207 30.6587 94.1298 30.7493 93.9261 30.7642C92.6557 30.8611 89.9671 30.9908 87.7801 30.589C87.6349 30.5628 87.4994 30.4979 87.388 30.4012C87.2765 30.3045 87.1932 30.1795 87.1469 30.0394C86.6882 28.6446 85.2747 24.4096 84.7024 23.2903C84.1621 22.2392 82.5668 22.0868 81.8942 22.0734C81.7846 22.0715 81.6766 22.0472 81.5767 22.0021C81.4768 21.9571 81.3871 21.8922 81.3131 21.8113C80.7863 21.2336 79.8201 19.8014 81.5599 18.4114C81.6461 18.3427 81.7176 18.2574 81.7702 18.1605C81.8227 18.0637 81.8552 17.9572 81.8657 17.8475C81.8761 17.7378 81.8644 17.6271 81.8312 17.522C81.7979 17.4169 81.7439 17.3196 81.6722 17.2359C81.0704 16.5292 80.478 15.3283 81.7531 14.064C83.0482 12.7795 84.5252 13.172 85.4078 13.6106C85.5804 13.695 85.7772 13.7159 85.9637 13.6698C86.1502 13.6238 86.3146 13.5136 86.4281 13.3586C86.5618 13.1774 86.7818 13.0537 87.1268 13.1225C87.2375 13.1425 87.3511 13.1391 87.4603 13.1126C87.5696 13.0861 87.6721 13.0371 87.7613 12.9686C87.8505 12.9002 87.9244 12.8139 87.9783 12.7153C88.0322 12.6166 88.0649 12.5078 88.0743 12.3957C88.1592 11.4891 88.6092 10.3825 90.2353 10.0696C93.117 9.51465 94.5526 12.3991 94.4997 14.4264C94.4469 16.4536 91.2904 16.8775 89.4971 16.5399C88.1344 16.2831 86.9623 17.5308 86.4789 18.1446C86.4042 18.2402 86.3519 18.3513 86.3257 18.4698C86.2996 18.5882 86.3003 18.7111 86.3278 18.8292Z" fill="url(#paint14_linear_206:35888)"/>
<path d="M85.2033 25.3644C85.2033 25.3644 85.1431 21.8287 83.7122 21.4957C82.2814 21.1627 80.7375 22.1964 81.9598 24.314C83.4802 26.9477 85.2033 25.3644 85.2033 25.3644Z" fill="url(#paint15_linear_206:35888)"/>
<path d="M62.6927 66.5222C62.6927 66.5222 65.1586 62.2069 65.5677 57.0585C65.9769 51.9101 65.5677 42.6918 65.5677 42.6918C65.5677 42.6918 68.8835 42.4912 68.7959 40.6565C68.7083 38.8218 67.6037 35.5081 66.8475 36.9924C66.4115 37.8341 66.0433 38.7092 65.7463 39.6094C65.7463 39.6094 62.1651 41.0055 62.2527 42.7519C62.3403 44.4984 54.847 70.7546 62.6927 66.5222Z" fill="url(#paint16_linear_206:35888)"/>
<path d="M47.9923 27.405L43.0284 27.3515L43.3855 28.3083C39.5663 30.4232 36.8537 35.7668 36.8537 42.0291C36.8537 48.1343 39.4312 53.369 43.0993 55.5875L43.0873 56.7241L46.5862 56.7088C46.7306 56.7175 46.8757 56.7241 47.0221 56.7241C52.6386 56.7241 57.1905 50.1462 57.1905 42.0318C57.1905 34.3881 53.1527 28.1111 47.9923 27.405Z" fill="url(#paint17_linear_206:35888)"/>
<path d="M43.4858 56.7215C49.1016 56.7215 53.6542 50.1435 53.6542 42.0291C53.6542 33.9148 49.1016 27.3368 43.4858 27.3368C37.8699 27.3368 33.3173 33.9148 33.3173 42.0291C33.3173 50.1435 37.8699 56.7215 43.4858 56.7215Z" fill="url(#paint18_linear_206:35888)"/>
<path d="M51.1783 54.6775C51.1244 54.6765 51.0721 54.6592 51.0282 54.6279C50.9843 54.5967 50.9508 54.5529 50.9322 54.5023C50.9137 54.4517 50.9108 54.3966 50.9241 54.3444C50.9373 54.2921 50.966 54.2451 51.0065 54.2095C51.0513 54.1714 55.4989 50.2646 55.0396 40.4051C54.5816 30.5763 48.3293 28.4267 48.2664 28.4066C48.2081 28.3785 48.1619 28.3303 48.1365 28.2708C48.111 28.2112 48.108 28.1445 48.128 28.083C48.148 28.0214 48.1897 27.9692 48.2453 27.936C48.3008 27.9028 48.3666 27.8909 48.4302 27.9025C48.4971 27.9245 55.0944 30.1885 55.5691 40.3803C56.0412 50.5207 51.5407 54.4515 51.3495 54.614C51.3016 54.6546 51.241 54.6771 51.1783 54.6775Z" fill="url(#paint19_linear_206:35888)"/>
<path d="M42.3591 41.2682C42.3591 41.2682 44.1042 41.7363 43.4062 42.7105C42.7082 43.6847 40.9637 43.682 40.9637 43.682L32.646 44.4382C32.646 44.4382 31.1925 42.6931 32.646 42.2284C34.0996 41.7637 42.3591 41.2682 42.3591 41.2682Z" fill="url(#paint20_linear_206:35888)"/>
<path d="M66.8455 38.4507C66.8455 38.4507 66.7292 36.3365 64.7808 36.6206C62.8324 36.9048 60.404 38.3818 61.5453 38.9521C62.6867 39.5225 66.1187 39.2116 66.8455 38.4507Z" fill="url(#paint21_linear_206:35888)"/>
<path d="M55.7082 113.998C55.7082 113.998 55.9549 110.363 56.3327 109.927C55.3151 108.619 53.941 107.135 52.2835 107.833C50.626 108.531 51.3347 122.403 51.3347 122.403C51.3347 122.403 57.5784 123.624 57.9267 122.403C58.2751 121.182 55.7082 120.047 55.7082 120.047V113.998Z" fill="url(#paint22_linear_206:35888)"/>
<path d="M109.274 118.956C109.274 118.956 108.163 122.814 109.274 122.798C110.384 122.782 124.459 123.152 124.459 123.152C124.459 123.152 125.128 118.833 119.645 118.956C114.163 119.078 114.016 118.041 114.016 118.041C114.016 118.041 110.015 119.426 109.274 118.956Z" fill="url(#paint23_linear_206:35888)"/>
<path d="M64.6972 109.753L64.0092 115.423L62.7883 115.211L62.3483 115.137L62.0969 115.092L61.661 115.015L55.7945 114C55.7945 114 55.3866 110.451 56.3775 109.927L62.0521 109.808L62.3516 109.802L62.7528 109.795L63.0497 109.787L64.6972 109.753Z" fill="white"/>
<path d="M62.3516 109.802L62.0969 115.092L61.6609 115.015L62.0521 109.808L62.3516 109.802Z" fill="url(#paint24_linear_206:35888)"/>
<path d="M63.0497 109.787L62.7882 115.211L62.3483 115.137L62.7535 109.795L63.0497 109.787Z" fill="url(#paint25_linear_206:35888)"/>
<path d="M114.015 118.042C114.015 118.042 110.538 120.217 109.217 119.168L109.381 114.341L109.397 113.92L109.405 113.633L109.421 113.215L109.45 112.338L113.811 112.081L113.835 112.778L113.845 113.098L113.858 113.48L113.869 113.798L114.015 118.042Z" fill="white"/>
<path d="M113.845 113.098L109.405 113.633L109.421 113.215L113.835 112.778L113.845 113.098Z" fill="url(#paint26_linear_206:35888)"/>
<path d="M113.869 113.798L109.381 114.341L109.397 113.92L113.858 113.48L113.869 113.798Z" fill="url(#paint27_linear_206:35888)"/>
<path d="M92.6972 36.5785C92.6972 36.5785 92.8643 36.1934 92.4926 36.2268C92.175 35.6545 93.7162 35.6251 94.9083 35.5087C96.1005 35.3924 96.3626 36.3017 95.8103 36.4869C95.258 36.6721 93.1899 37.0379 92.6972 36.5785Z" fill="url(#paint28_linear_206:35888)"/>
<path d="M93.6359 37.0559C93.6163 37.0561 93.5971 37.0497 93.5816 37.0376C93.5662 37.0256 93.5552 37.0087 93.5505 36.9896C93.5459 36.9705 93.5478 36.9505 93.556 36.9326C93.5642 36.9148 93.5782 36.9003 93.5957 36.8914C93.8525 36.7577 94.1253 36.5417 94.1206 36.4401C94.1206 36.4087 94.0685 36.3826 94.0377 36.3692C93.6078 36.1874 92.881 36.5585 92.8736 36.5625C92.8533 36.571 92.8305 36.5716 92.8098 36.5641C92.7891 36.5566 92.7719 36.5416 92.7618 36.522C92.7517 36.5024 92.7493 36.4798 92.7552 36.4585C92.761 36.4372 92.7747 36.419 92.7934 36.4074C92.8262 36.3906 93.6011 35.9941 94.1059 36.2068C94.2577 36.2736 94.2925 36.3639 94.2951 36.4308C94.3065 36.6982 93.7823 36.9877 93.6767 37.0439C93.6643 37.0512 93.6503 37.0553 93.6359 37.0559Z" fill="url(#paint29_linear_206:35888)"/>
<path d="M90.7006 92.1084C85.8296 92.1084 81.0249 90.6762 80.9587 90.6561C80.9147 90.6359 80.8794 90.6005 80.8595 90.5563C80.8395 90.5121 80.8363 90.4622 80.8503 90.4158C80.8643 90.3694 80.8947 90.3296 80.9358 90.3039C80.9768 90.2781 81.0258 90.2681 81.0737 90.2757C81.164 90.3024 90.151 92.981 95.8877 90.959C95.9355 90.9483 95.9856 90.9554 96.0285 90.9791C96.0714 91.0027 96.1042 91.0412 96.1207 91.0874C96.1371 91.1335 96.1361 91.1841 96.1178 91.2296C96.0996 91.275 96.0653 91.3122 96.0215 91.3341C94.4081 91.9018 92.5493 92.1084 90.7006 92.1084Z" fill="#7D97F4"/>
</g>
<g filter="url(#filter0_b_206:35888)">
<rect x="13" y="77" width="141" height="77" rx="10" fill="black" fill-opacity="0.8"/>
</g>
<path d="M39.4778 118.432L39.5898 118.586L39.4638 120H33.8078L33.9058 117.312L33.8078 110.984H39.5198L39.6318 111.138L39.4918 112.552L37.3358 112.482L35.7118 112.496L35.6698 114.666L37.2238 114.694L38.6938 114.652L38.8058 114.792L38.6798 116.206L37.0838 116.164L35.6418 116.178L35.6278 117.144L35.6698 118.502L37.2518 118.516L39.4778 118.432ZM42.3029 114.218L43.1989 115.674L44.0809 114.162L44.4309 113.504H46.0689L44.1929 116.696L46.1529 119.944L44.1929 120.084L43.8709 119.258L42.9469 117.76L41.9809 119.342L41.6729 120H40.0349L41.9249 116.738L40.0209 113.546L42.0089 113.448L42.3029 114.218ZM51.9672 116.976L48.1872 117.004C48.2712 118.171 48.8639 118.754 49.9652 118.754C50.5439 118.754 51.1879 118.591 51.8972 118.264L52.0512 118.362L51.7712 119.748C51.0619 120.009 50.3946 120.14 49.7692 120.14C48.7426 120.14 47.9352 119.841 47.3472 119.244C46.7686 118.647 46.4792 117.821 46.4792 116.766C46.4792 115.721 46.7639 114.895 47.3332 114.288C47.9026 113.672 48.6726 113.364 49.6432 113.364C50.4739 113.364 51.1132 113.593 51.5612 114.05C52.0186 114.498 52.2472 115.128 52.2472 115.94C52.2472 116.155 52.2239 116.425 52.1772 116.752L51.9672 116.976ZM50.6232 115.73C50.6232 115.357 50.5392 115.077 50.3712 114.89C50.2032 114.694 49.9559 114.596 49.6292 114.596C49.2652 114.596 48.9619 114.717 48.7192 114.96C48.4766 115.193 48.3132 115.534 48.2292 115.982L50.5952 115.926L50.6232 115.73ZM57.1288 113.476C57.2128 113.476 57.3294 113.485 57.4788 113.504V115.226L57.2828 115.296C57.1241 115.231 56.9514 115.198 56.7648 115.198C56.2234 115.198 55.7334 115.548 55.2948 116.248V117.13L55.3928 120H53.5308L53.6428 117.312L53.5588 113.616L55.3228 113.462L55.3088 114.736H55.4208C55.8781 113.896 56.4474 113.476 57.1288 113.476ZM61.0719 113.364C61.3799 113.364 61.6833 113.397 61.9819 113.462C62.2899 113.518 62.5606 113.602 62.7939 113.714L62.4859 115.198L62.3319 115.268C61.8559 115.007 61.4313 114.876 61.0579 114.876C60.6286 114.876 60.2973 115.03 60.0639 115.338C59.8306 115.646 59.7139 116.085 59.7139 116.654C59.7139 117.307 59.8399 117.807 60.0919 118.152C60.3439 118.497 60.7033 118.67 61.1699 118.67C61.5899 118.67 62.0566 118.553 62.5699 118.32L62.7099 118.432L62.5279 119.874C61.9679 120.051 61.3939 120.14 60.8059 120.14C59.9099 120.14 59.2099 119.851 58.7059 119.272C58.2019 118.684 57.9499 117.867 57.9499 116.822C57.9499 115.739 58.2253 114.895 58.7759 114.288C59.3266 113.672 60.0919 113.364 61.0719 113.364ZM63.9107 117.312L63.8407 113.616L65.6747 113.462L65.5907 117.13L65.6747 120H63.8127L63.9107 117.312ZM66.1087 109.878L66.7807 110.886L66.7527 111.068C66.5473 111.199 66.3933 111.292 66.2907 111.348C65.124 112.067 64.368 112.524 64.0227 112.72L63.8407 112.706L63.3927 112.006C64.4753 111.138 65.32 110.424 65.9267 109.864L66.1087 109.878ZM70.1091 113.364C70.4171 113.364 70.7204 113.397 71.0191 113.462C71.3271 113.518 71.5977 113.602 71.8311 113.714L71.5231 115.198L71.3691 115.268C70.8931 115.007 70.4684 114.876 70.0951 114.876C69.6657 114.876 69.3344 115.03 69.1011 115.338C68.8677 115.646 68.7511 116.085 68.7511 116.654C68.7511 117.307 68.8771 117.807 69.1291 118.152C69.3811 118.497 69.7404 118.67 70.2071 118.67C70.6271 118.67 71.0937 118.553 71.6071 118.32L71.7471 118.432L71.5651 119.874C71.0051 120.051 70.4311 120.14 69.8431 120.14C68.9471 120.14 68.2471 119.851 67.7431 119.272C67.2391 118.684 66.9871 117.867 66.9871 116.822C66.9871 115.739 67.2624 114.895 67.8131 114.288C68.3637 113.672 69.1291 113.364 70.1091 113.364ZM72.9478 117.312L72.8778 113.616L74.7118 113.462L74.6278 117.13L74.7118 120H72.8498L72.9478 117.312ZM73.8298 110.298C74.1191 110.298 74.3431 110.382 74.5018 110.55C74.6698 110.718 74.7538 110.951 74.7538 111.25C74.7538 111.567 74.6651 111.819 74.4878 112.006C74.3104 112.193 74.0678 112.286 73.7598 112.286C73.4518 112.286 73.2138 112.202 73.0458 112.034C72.8871 111.866 72.8078 111.628 72.8078 111.32C72.8078 111.012 72.8964 110.765 73.0738 110.578C73.2604 110.391 73.5124 110.298 73.8298 110.298ZM79.1742 113.364C80.1262 113.364 80.8542 113.644 81.3582 114.204C81.8622 114.764 82.1142 115.571 82.1142 116.626C82.1142 117.765 81.8435 118.637 81.3022 119.244C80.7608 119.841 79.9815 120.14 78.9642 120.14C78.0122 120.14 77.2842 119.86 76.7802 119.3C76.2762 118.74 76.0242 117.933 76.0242 116.878C76.0242 115.739 76.2948 114.871 76.8362 114.274C77.3775 113.667 78.1568 113.364 79.1742 113.364ZM79.0482 114.624C78.6002 114.624 78.2735 114.773 78.0682 115.072C77.8722 115.371 77.7742 115.851 77.7742 116.514C77.7742 117.373 77.8768 117.984 78.0822 118.348C78.2875 118.712 78.6235 118.894 79.0902 118.894C79.5382 118.894 79.8602 118.749 80.0562 118.46C80.2615 118.161 80.3642 117.676 80.3642 117.004C80.3642 116.155 80.2568 115.548 80.0422 115.184C79.8368 114.811 79.5055 114.624 79.0482 114.624ZM85.5741 113.378C86.2088 113.378 86.8061 113.485 87.3661 113.7L87.1141 115.072L86.8901 115.142C86.6195 114.965 86.3488 114.829 86.0781 114.736C85.8075 114.643 85.5695 114.596 85.3641 114.596C85.1401 114.596 84.9628 114.657 84.8321 114.778C84.7015 114.89 84.6361 115.03 84.6361 115.198C84.6361 115.394 84.7201 115.553 84.8881 115.674C85.0655 115.795 85.3408 115.931 85.7141 116.08C86.0875 116.229 86.3955 116.374 86.6381 116.514C86.8808 116.654 87.0861 116.85 87.2541 117.102C87.4315 117.345 87.5201 117.648 87.5201 118.012C87.5201 118.385 87.4221 118.735 87.2261 119.062C87.0395 119.379 86.7501 119.641 86.3581 119.846C85.9661 120.042 85.4855 120.14 84.9161 120.14C84.2441 120.14 83.5488 120 82.8301 119.72L83.0401 118.264L83.2221 118.152C83.5115 118.395 83.8335 118.591 84.1881 118.74C84.5428 118.88 84.8555 118.95 85.1261 118.95C85.3781 118.95 85.5741 118.889 85.7141 118.768C85.8541 118.637 85.9241 118.483 85.9241 118.306C85.9241 118.11 85.8355 117.951 85.6581 117.83C85.4901 117.709 85.2195 117.573 84.8461 117.424C84.4635 117.256 84.1508 117.107 83.9081 116.976C83.6655 116.836 83.4555 116.64 83.2781 116.388C83.1101 116.136 83.0261 115.823 83.0261 115.45C83.0261 114.843 83.2548 114.349 83.7121 113.966C84.1695 113.574 84.7901 113.378 85.5741 113.378ZM96.3143 117.13L96.3563 118.306C96.3563 118.465 96.375 118.577 96.4123 118.642C96.459 118.698 96.5383 118.726 96.6503 118.726C96.753 118.726 96.879 118.707 97.0283 118.67L97.1543 118.782L97.0003 119.762C96.683 119.958 96.3377 120.075 95.9643 120.112C95.675 120.084 95.4323 119.986 95.2363 119.818C95.0403 119.65 94.905 119.421 94.8303 119.132H94.7183C94.261 119.552 93.7943 119.874 93.3183 120.098C92.4037 120.098 91.6943 119.809 91.1903 119.23C90.6863 118.642 90.4343 117.83 90.4343 116.794C90.4343 115.693 90.7237 114.848 91.3023 114.26C91.881 113.672 92.6837 113.378 93.7103 113.378C93.981 113.378 94.2797 113.406 94.6063 113.462L94.5783 110.312L96.4263 110.172L96.3143 117.13ZM93.5843 114.638C92.651 114.638 92.1843 115.231 92.1843 116.416C92.1843 117.153 92.2963 117.709 92.5203 118.082C92.7443 118.455 93.071 118.642 93.5003 118.642C93.911 118.642 94.289 118.451 94.6343 118.068L94.6623 117.298L94.6203 114.89C94.2563 114.722 93.911 114.638 93.5843 114.638ZM103.291 116.976L99.5115 117.004C99.5955 118.171 100.188 118.754 101.289 118.754C101.868 118.754 102.512 118.591 103.221 118.264L103.375 118.362L103.095 119.748C102.386 120.009 101.719 120.14 101.093 120.14C100.067 120.14 99.2595 119.841 98.6715 119.244C98.0928 118.647 97.8035 117.821 97.8035 116.766C97.8035 115.721 98.0881 114.895 98.6575 114.288C99.2268 113.672 99.9968 113.364 100.967 113.364C101.798 113.364 102.437 113.593 102.885 114.05C103.343 114.498 103.571 115.128 103.571 115.94C103.571 116.155 103.548 116.425 103.501 116.752L103.291 116.976ZM101.947 115.73C101.947 115.357 101.863 115.077 101.695 114.89C101.527 114.694 101.28 114.596 100.953 114.596C100.589 114.596 100.286 114.717 100.043 114.96C99.8008 115.193 99.6375 115.534 99.5535 115.982L101.919 115.926L101.947 115.73ZM110.362 110.144C110.745 110.144 111.151 110.186 111.58 110.27L111.454 111.656L111.328 111.74C110.889 111.553 110.507 111.46 110.18 111.46C109.601 111.46 109.307 111.791 109.298 112.454L109.284 113.546H110.866L110.922 113.644L110.838 114.666H109.256L109.214 117.13L109.312 120H107.45L107.562 117.298L107.534 114.666H106.554L106.484 114.568L106.582 113.546H107.52L107.506 112.776C107.506 111.936 107.753 111.287 108.248 110.83C108.752 110.373 109.457 110.144 110.362 110.144ZM114.147 113.364C115.099 113.364 115.827 113.644 116.331 114.204C116.835 114.764 117.087 115.571 117.087 116.626C117.087 117.765 116.816 118.637 116.275 119.244C115.733 119.841 114.954 120.14 113.937 120.14C112.985 120.14 112.257 119.86 111.753 119.3C111.249 118.74 110.997 117.933 110.997 116.878C110.997 115.739 111.267 114.871 111.809 114.274C112.35 113.667 113.129 113.364 114.147 113.364ZM114.021 114.624C113.573 114.624 113.246 114.773 113.041 115.072C112.845 115.371 112.747 115.851 112.747 116.514C112.747 117.373 112.849 117.984 113.055 118.348C113.26 118.712 113.596 118.894 114.063 118.894C114.511 118.894 114.833 118.749 115.029 118.46C115.234 118.161 115.337 117.676 115.337 117.004C115.337 116.155 115.229 115.548 115.015 115.184C114.809 114.811 114.478 114.624 114.021 114.624ZM121.879 113.476C121.963 113.476 122.079 113.485 122.229 113.504V115.226L122.033 115.296C121.874 115.231 121.701 115.198 121.515 115.198C120.973 115.198 120.483 115.548 120.045 116.248V117.13L120.143 120H118.281L118.393 117.312L118.309 113.616L120.073 113.462L120.059 114.736H120.171C120.628 113.896 121.197 113.476 121.879 113.476ZM125.822 113.364C126.13 113.364 126.433 113.397 126.732 113.462C127.04 113.518 127.311 113.602 127.544 113.714L127.236 115.198L127.082 115.268C126.606 115.007 126.181 114.876 125.808 114.876C125.379 114.876 125.047 115.03 124.814 115.338C124.581 115.646 124.464 116.085 124.464 116.654C124.464 117.307 124.59 117.807 124.842 118.152C125.094 118.497 125.453 118.67 125.92 118.67C126.34 118.67 126.807 118.553 127.32 118.32L127.46 118.432L127.278 119.874C126.718 120.051 126.144 120.14 125.556 120.14C124.66 120.14 123.96 119.851 123.456 119.272C122.952 118.684 122.7 117.867 122.7 116.822C122.7 115.739 122.975 114.895 123.526 114.288C124.077 113.672 124.842 113.364 125.822 113.364ZM125.808 120.672L126.284 120.938C126.489 121.05 126.634 121.171 126.718 121.302C126.811 121.442 126.858 121.596 126.858 121.764C126.858 122.072 126.737 122.324 126.494 122.52C126.251 122.716 125.934 122.814 125.542 122.814C125.122 122.814 124.739 122.683 124.394 122.422L124.52 121.638L124.604 121.596C124.884 121.876 125.159 122.016 125.43 122.016C125.654 122.016 125.766 121.918 125.766 121.722C125.766 121.657 125.747 121.601 125.71 121.554C125.673 121.517 125.612 121.479 125.528 121.442L124.842 121.05L125.164 119.636H126.06L125.808 120.672ZM130.96 113.364C131.679 113.364 132.239 113.527 132.64 113.854C133.051 114.171 133.256 114.619 133.256 115.198C133.256 115.366 133.228 115.898 133.172 116.794C133.163 117.055 133.149 117.326 133.13 117.606C133.111 117.877 133.102 118.11 133.102 118.306C133.102 118.465 133.125 118.577 133.172 118.642C133.219 118.698 133.303 118.726 133.424 118.726C133.517 118.726 133.639 118.707 133.788 118.67L133.928 118.782L133.76 119.762C133.461 119.958 133.121 120.075 132.738 120.112C132.458 120.084 132.225 119.986 132.038 119.818C131.851 119.641 131.725 119.398 131.66 119.09H131.562C131.095 119.585 130.615 119.93 130.12 120.126C129.448 120.117 128.921 119.939 128.538 119.594C128.155 119.249 127.964 118.777 127.964 118.18C127.964 117.713 128.081 117.349 128.314 117.088C128.557 116.817 128.921 116.635 129.406 116.542L131.548 116.136V115.562C131.548 114.955 131.249 114.652 130.652 114.652C130.363 114.652 130.055 114.717 129.728 114.848C129.411 114.979 129.051 115.184 128.65 115.464L128.51 115.38L128.3 114.148C128.701 113.896 129.131 113.705 129.588 113.574C130.045 113.434 130.503 113.364 130.96 113.364ZM130.05 117.396C129.901 117.433 129.789 117.499 129.714 117.592C129.649 117.676 129.616 117.807 129.616 117.984C129.616 118.227 129.681 118.418 129.812 118.558C129.943 118.689 130.125 118.754 130.358 118.754C130.722 118.754 131.105 118.539 131.506 118.11L131.534 117.074L130.05 117.396Z" fill="white"/>
<defs>
<filter id="filter0_b_206:35888" x="3" y="67" width="161" height="97" filterUnits="userSpaceOnUse" color-interpolation-filters="sRGB">
<feFlood flood-opacity="0" result="BackgroundImageFix"/>
<feGaussianBlur in="BackgroundImage" stdDeviation="5"/>
<feComposite in2="SourceAlpha" operator="in" result="effect1_backgroundBlur_206:35888"/>
<feBlend mode="normal" in="SourceGraphic" in2="effect1_backgroundBlur_206:35888" result="shape"/>
</filter>
<linearGradient id="paint0_linear_206:35888" x1="94.4162" y1="39.2183" x2="94.1186" y2="41.1599" gradientUnits="userSpaceOnUse">
<stop stop-color="#FEBBBA"/>
<stop offset="1" stop-color="#FF928E"/>
</linearGradient>
<linearGradient id="paint1_linear_206:35888" x1="109.597" y1="31.0824" x2="74.5795" y2="79.0783" gradientUnits="userSpaceOnUse">
<stop stop-color="#E1473D"/>
<stop offset="1" stop-color="#E9605A"/>
</linearGradient>
<linearGradient id="paint2_linear_206:35888" x1="101.444" y1="41.2027" x2="121.197" y2="-16.4206" gradientUnits="userSpaceOnUse">
<stop stop-color="#FF928E"/>
<stop offset="1" stop-color="#FE7062"/>
</linearGradient>
<linearGradient id="paint3_linear_206:35888" x1="16374.6" y1="41658.2" x2="18944.8" y2="41985" gradientUnits="userSpaceOnUse">
<stop stop-color="#FF928E"/>
<stop offset="1" stop-color="#FE7062"/>
</linearGradient>
<linearGradient id="paint4_linear_206:35888" x1="8890.31" y1="10217.8" x2="8850.47" y2="10510.9" gradientUnits="userSpaceOnUse">
<stop stop-color="#FEBBBA"/>
<stop offset="1" stop-color="#FF928E"/>
</linearGradient>
<linearGradient id="paint5_linear_206:35888" x1="53.4315" y1="38.7368" x2="103.939" y2="38.7368" gradientUnits="userSpaceOnUse">
<stop stop-color="#09005D"/>
<stop offset="1" stop-color="#1A0F91"/>
</linearGradient>
<linearGradient id="paint6_linear_206:35888" x1="6324.12" y1="3998.6" x2="6303.54" y2="4102.88" gradientUnits="userSpaceOnUse">
<stop stop-color="#FEBBBA"/>
<stop offset="1" stop-color="#FF928E"/>
</linearGradient>
<linearGradient id="paint7_linear_206:35888" x1="19334.3" y1="44330.3" x2="21914.9" y2="44330.3" gradientUnits="userSpaceOnUse">
<stop stop-color="#FEBBBA"/>
<stop offset="1" stop-color="#FF928E"/>
</linearGradient>
<linearGradient id="paint8_linear_206:35888" x1="36854.8" y1="105644" x2="41883.2" y2="105644" gradientUnits="userSpaceOnUse">
<stop stop-color="#FEBBBA"/>
<stop offset="1" stop-color="#FF928E"/>
</linearGradient>
<linearGradient id="paint9_linear_206:35888" x1="52855.6" y1="84259.1" x2="74363.3" y2="84259.1" gradientUnits="userSpaceOnUse">
<stop stop-color="#FEBBBA"/>
<stop offset="1" stop-color="#FF928E"/>
</linearGradient>
<linearGradient id="paint10_linear_206:35888" x1="11854" y1="8754.56" x2="16045.6" y2="8754.56" gradientUnits="userSpaceOnUse">
<stop stop-color="#09005D"/>
<stop offset="1" stop-color="#1A0F91"/>
</linearGradient>
<linearGradient id="paint11_linear_206:35888" x1="38256" y1="51106.3" x2="45788.5" y2="51106.3" gradientUnits="userSpaceOnUse">
<stop stop-color="#09005D"/>
<stop offset="1" stop-color="#1A0F91"/>
</linearGradient>
<linearGradient id="paint12_linear_206:35888" x1="-48882.9" y1="17660" x2="-54507.9" y2="28088.2" gradientUnits="userSpaceOnUse">
<stop stop-color="#FEBBBA"/>
<stop offset="1" stop-color="#FF928E"/>
</linearGradient>
<linearGradient id="paint13_linear_206:35888" x1="-29035.2" y1="33109.4" x2="-30137.7" y2="36805.8" gradientUnits="userSpaceOnUse">
<stop stop-color="#FEBBBA"/>
<stop offset="1" stop-color="#FF928E"/>
</linearGradient>
<linearGradient id="paint14_linear_206:35888" x1="-41825" y1="51342" x2="-38886.9" y2="49724.8" gradientUnits="userSpaceOnUse">
<stop stop-color="#09005D"/>
<stop offset="1" stop-color="#1A0F91"/>
</linearGradient>
<linearGradient id="paint15_linear_206:35888" x1="-11319.7" y1="13022.8" x2="-10999.1" y2="12165.4" gradientUnits="userSpaceOnUse">
<stop stop-color="#FEBBBA"/>
<stop offset="1" stop-color="#FF928E"/>
</linearGradient>
<linearGradient id="paint16_linear_206:35888" x1="14490.7" y1="67612.6" x2="22575.3" y2="56976.4" gradientUnits="userSpaceOnUse">
<stop stop-color="#FEBBBA"/>
<stop offset="1" stop-color="#FF928E"/>
</linearGradient>
<linearGradient id="paint17_linear_206:35888" x1="25534" y1="59285.2" x2="16267.2" y2="73202" gradientUnits="userSpaceOnUse">
<stop stop-color="#E1473D"/>
<stop offset="1" stop-color="#E9605A"/>
</linearGradient>
<linearGradient id="paint18_linear_206:35888" x1="19873.5" y1="-28095.8" x2="7238.34" y2="-12472" gradientUnits="userSpaceOnUse">
<stop stop-color="#FF928E"/>
<stop offset="1" stop-color="#FE7062"/>
</linearGradient>
<linearGradient id="paint19_linear_206:35888" x1="10715.3" y1="50347.1" x2="15140.8" y2="49221.3" gradientUnits="userSpaceOnUse">
<stop stop-color="#FEBBBA"/>
<stop offset="1" stop-color="#FF928E"/>
</linearGradient>
<linearGradient id="paint20_linear_206:35888" x1="13016.1" y1="6431.82" x2="13009.8" y2="6580.61" gradientUnits="userSpaceOnUse">
<stop stop-color="#09005D"/>
<stop offset="1" stop-color="#1A0F91"/>
</linearGradient>
<linearGradient id="paint21_linear_206:35888" x1="8545.61" y1="5183.47" x2="8539.75" y2="5264.13" gradientUnits="userSpaceOnUse">
<stop stop-color="#FEBBBA"/>
<stop offset="1" stop-color="#FF928E"/>
</linearGradient>
<linearGradient id="paint22_linear_206:35888" x1="9017.17" y1="47468.2" x2="9703.75" y2="47468.2" gradientUnits="userSpaceOnUse">
<stop stop-color="#09005D"/>
<stop offset="1" stop-color="#1A0F91"/>
</linearGradient>
<linearGradient id="paint23_linear_206:35888" x1="34421.3" y1="16352.7" x2="38110.1" y2="16352.7" gradientUnits="userSpaceOnUse">
<stop stop-color="#09005D"/>
<stop offset="1" stop-color="#1A0F91"/>
</linearGradient>
<linearGradient id="paint24_linear_206:35888" x1="289.582" y1="3269.08" x2="2402.25" y2="5439.04" gradientUnits="userSpaceOnUse">
<stop stop-color="#FF928E"/>
<stop offset="1" stop-color="#FE7062"/>
</linearGradient>
<linearGradient id="paint25_linear_206:35888" x1="300.882" y1="3341.58" x2="2467.14" y2="5545.61" gradientUnits="userSpaceOnUse">
<stop stop-color="#FF928E"/>
<stop offset="1" stop-color="#FE7062"/>
</linearGradient>
<linearGradient id="paint26_linear_206:35888" x1="4809.8" y1="544.605" x2="4826.55" y2="1228.01" gradientUnits="userSpaceOnUse">
<stop stop-color="#FF928E"/>
<stop offset="1" stop-color="#FE7062"/>
</linearGradient>
<linearGradient id="paint27_linear_206:35888" x1="4854.78" y1="548.155" x2="4871.56" y2="1235.84" gradientUnits="userSpaceOnUse">
<stop stop-color="#FF928E"/>
<stop offset="1" stop-color="#FE7062"/>
</linearGradient>
<linearGradient id="paint28_linear_206:35888" x1="7255.21" y1="2518.3" x2="7247.99" y2="2585.44" gradientUnits="userSpaceOnUse">
<stop stop-color="#FEBBBA"/>
<stop offset="1" stop-color="#FF928E"/>
</linearGradient>
<linearGradient id="paint29_linear_206:35888" x1="3113.01" y1="1793.14" x2="3112.54" y2="1776.46" gradientUnits="userSpaceOnUse">
<stop stop-color="#FEBBBA"/>
<stop offset="1" stop-color="#FF928E"/>
</linearGradient>
</defs>
</svg>
