<svg width="167" height="167" viewBox="0 0 167 167" fill="none" xmlns="http://www.w3.org/2000/svg">
<mask id="mask0_206:35995" style="mask-type:alpha" maskUnits="userSpaceOnUse" x="0" y="0" width="167" height="167">
<rect x="1" y="1" width="165" height="165" rx="8" fill="#5988D6" stroke="#EDE6FC" stroke-opacity="0.3"/>
</mask>
<g mask="url(#mask0_206:35995)">
<rect x="1" y="1" width="165" height="165" rx="8" fill="#7AC2D9" stroke="#EDE6FC" stroke-opacity="0.3"/>
<path d="M95.5695 37.8469L95.284 40.7494L93.2274 39.9237L93.5242 37.8469H95.5695Z" fill="url(#paint0_linear_206:35995)"/>
<path d="M106.966 24.9472L102.936 24.9077L103.227 25.6158C100.126 27.1804 97.9244 31.1333 97.9244 35.7662C97.9244 40.2827 100.017 44.1554 102.994 45.7955L102.985 46.6353L105.824 46.6233C105.941 46.63 106.06 46.6353 106.178 46.6353C110.737 46.6353 114.431 41.7684 114.431 35.7655C114.431 30.1129 111.154 25.4694 106.966 24.9472Z" fill="url(#paint1_linear_206:35995)"/>
<path d="M103.308 46.6353C107.866 46.6353 111.561 41.769 111.561 35.7661C111.561 29.7633 107.866 24.897 103.308 24.897C98.7493 24.897 95.0541 29.7633 95.0541 35.7661C95.0541 41.769 98.7493 46.6353 103.308 46.6353Z" fill="url(#paint2_linear_206:35995)"/>
<path d="M109.552 45.1924C109.497 45.1909 109.445 45.1728 109.401 45.1405C109.357 45.1082 109.324 45.0633 109.306 45.0117C109.288 44.9602 109.287 44.9044 109.302 44.852C109.317 44.7996 109.347 44.7529 109.389 44.7183C109.425 44.6902 113.006 41.8165 112.635 34.57C112.266 27.3488 107.23 25.7715 107.179 25.7568C107.121 25.7302 107.073 25.6832 107.046 25.6244C107.019 25.5657 107.015 25.4991 107.033 25.4371C107.051 25.3751 107.092 25.3219 107.146 25.2873C107.201 25.2526 107.266 25.2389 107.33 25.2487C107.385 25.2647 112.777 26.9517 113.165 34.5425C113.55 42.086 109.87 45.0165 109.713 45.1376C109.667 45.1732 109.61 45.1924 109.552 45.1924Z" fill="url(#paint3_linear_206:35995)"/>
<path d="M62.4686 42.5975C62.3282 42.5975 60.2621 39.4068 61.3219 38.5189C62.3817 37.6309 66.0999 37.3327 66.3887 37.4685C66.6776 37.6042 66.8454 42.5948 66.8454 42.5948L62.4686 42.5975Z" fill="url(#paint4_linear_206:35995)"/>
<path d="M53.4315 39.719L53.719 39.6936L103.445 35.2506C103.445 35.2506 104.552 35.7293 103.445 36.624C102.337 37.5186 54.9139 42.2304 54.9139 42.2304L53.4315 39.719Z" fill="url(#paint5_linear_206:35995)"/>
<path d="M95.5695 38.1257C95.5695 38.1257 95.9921 37.2966 94.923 37.2966C93.8538 37.2966 93.6359 36.9697 93.6359 36.9697C93.6359 36.9697 94.487 36.3151 93.9635 36.2937C93.44 36.2723 92.7727 36.3605 92.5453 36.7517C92.318 37.1428 92.8944 38.1257 92.8944 38.1257C92.8944 38.1257 95.2994 38.6713 95.5695 38.1257Z" fill="url(#paint6_linear_206:35995)"/>
<path d="M68.3578 47.112L66.3801 51.0676C66.3801 51.0676 58.4702 67.1199 61.4944 67.0036C64.5186 66.8872 73.9409 53.3937 73.9409 53.3937L68.3578 47.112Z" fill="url(#paint7_linear_206:35995)"/>
<path d="M96.7349 75.8153C97.5981 75.8153 112.994 74.4661 114.564 77.6066C116.135 80.7471 113.549 113.423 113.549 113.423H109.538L107.323 86.0834L96.7343 88.0585L96.7349 75.8153Z" fill="url(#paint8_linear_206:35995)"/>
<path d="M93.7161 93.5252C93.7161 93.5252 84.1775 118.651 81.9677 118.419C79.7579 118.186 55.7944 113.998 55.7944 113.998L56.3761 109.927L78.4775 109.459L81.5023 89.684L93.7161 93.5252Z" fill="url(#paint9_linear_206:35995)"/>
<path d="M95.7694 91.2292L93.6566 95.0523L79.0284 92.1786V87.9422L95.7694 91.2292Z" fill="url(#paint10_linear_206:35995)"/>
<path d="M79.8736 34.2003C79.8736 34.2003 98.02 35.0695 99.2416 45.1931C100.463 55.3167 96.6246 74.3324 96.6246 74.3324L77.9553 72.5873C77.9553 72.5873 79.8743 53.3938 76.5592 51.3003L73.7089 55.0225L66.8461 47.3447C66.8461 47.3447 73.5919 36.2944 79.8736 34.2003Z" fill="#A9D97A"/>
<path d="M77.9219 72.5872C77.9219 72.5872 71.8862 90.7337 84.2738 91.9553C96.6614 93.1768 98.8933 88.9886 98.8933 88.9886V74.3323L77.6925 72.5872H77.9219Z" fill="url(#paint11_linear_206:35995)"/>
<path d="M84.0545 22.8711L80.8759 34.0672C80.8759 34.0672 86.3078 36.9864 90.3242 36.1974L91.4281 26.3286L84.0545 22.8711Z" fill="url(#paint12_linear_206:35995)"/>
<path d="M92.0839 15.113C92.1682 15.2661 93.9989 26.7096 93.9989 26.7096L87.4424 27.6163L84.0992 17.028C84.0992 17.028 90.6685 12.5422 92.0839 15.113Z" fill="url(#paint13_linear_206:35995)"/>
<path d="M86.3278 18.8292L87.653 24.5406C87.6697 24.6135 87.6965 24.6837 87.7326 24.7492C87.9539 25.1504 88.8171 26.4877 90.1263 25.5181C91.3144 24.6409 92.4116 23.8586 93.3511 23.7991C93.5543 23.7861 93.7551 23.8493 93.9142 23.9764C94.0734 24.1035 94.1794 24.2854 94.2116 24.4865C94.3774 25.5268 94.7084 27.8764 94.6843 29.9618C94.681 30.1661 94.6013 30.3618 94.461 30.5103C94.3207 30.6587 94.1298 30.7493 93.9261 30.7642C92.6557 30.8611 89.9671 30.9908 87.7801 30.589C87.6349 30.5628 87.4994 30.4979 87.388 30.4012C87.2765 30.3045 87.1932 30.1795 87.1469 30.0394C86.6882 28.6446 85.2747 24.4096 84.7024 23.2903C84.1621 22.2392 82.5668 22.0868 81.8942 22.0734C81.7846 22.0715 81.6766 22.0472 81.5767 22.0021C81.4768 21.9571 81.3871 21.8922 81.3131 21.8113C80.7863 21.2336 79.8201 19.8014 81.5599 18.4114C81.6461 18.3427 81.7176 18.2574 81.7702 18.1605C81.8227 18.0637 81.8552 17.9572 81.8657 17.8475C81.8761 17.7378 81.8644 17.6271 81.8312 17.522C81.7979 17.4169 81.7439 17.3196 81.6722 17.2359C81.0704 16.5292 80.478 15.3283 81.7531 14.064C83.0482 12.7795 84.5252 13.172 85.4078 13.6106C85.5804 13.695 85.7772 13.7159 85.9637 13.6698C86.1502 13.6238 86.3146 13.5136 86.4281 13.3586C86.5618 13.1774 86.7818 13.0537 87.1268 13.1225C87.2375 13.1425 87.3511 13.1391 87.4603 13.1126C87.5696 13.0861 87.6721 13.0371 87.7613 12.9686C87.8505 12.9002 87.9244 12.8139 87.9783 12.7153C88.0322 12.6166 88.0649 12.5078 88.0743 12.3957C88.1592 11.4891 88.6092 10.3825 90.2353 10.0696C93.117 9.51465 94.5526 12.3991 94.4997 14.4264C94.4469 16.4536 91.2904 16.8775 89.4971 16.5399C88.1344 16.2831 86.9623 17.5308 86.4789 18.1446C86.4042 18.2402 86.3519 18.3513 86.3257 18.4698C86.2996 18.5882 86.3003 18.7111 86.3278 18.8292Z" fill="url(#paint14_linear_206:35995)"/>
<path d="M85.2033 25.3643C85.2033 25.3643 85.1431 21.8287 83.7122 21.4957C82.2814 21.1627 80.7375 22.1964 81.9598 24.3139C83.4802 26.9476 85.2033 25.3643 85.2033 25.3643Z" fill="url(#paint15_linear_206:35995)"/>
<path d="M62.6927 66.5222C62.6927 66.5222 65.1586 62.2069 65.5677 57.0585C65.9769 51.9101 65.5677 42.6918 65.5677 42.6918C65.5677 42.6918 68.8835 42.4912 68.7959 40.6565C68.7083 38.8218 67.6037 35.5081 66.8475 36.9924C66.4115 37.8341 66.0433 38.7092 65.7463 39.6094C65.7463 39.6094 62.1651 41.0055 62.2527 42.7519C62.3403 44.4984 54.847 70.7546 62.6927 66.5222Z" fill="url(#paint16_linear_206:35995)"/>
<path d="M47.9923 27.405L43.0284 27.3515L43.3855 28.3083C39.5663 30.4232 36.8537 35.7668 36.8537 42.0291C36.8537 48.1343 39.4312 53.369 43.0993 55.5875L43.0873 56.7241L46.5862 56.7088C46.7306 56.7174 46.8757 56.7241 47.0221 56.7241C52.6386 56.7241 57.1905 50.1462 57.1905 42.0318C57.1905 34.3881 53.1527 28.1111 47.9923 27.405Z" fill="url(#paint17_linear_206:35995)"/>
<path d="M43.4858 56.7215C49.1016 56.7215 53.6542 50.1435 53.6542 42.0291C53.6542 33.9148 49.1016 27.3368 43.4858 27.3368C37.8699 27.3368 33.3173 33.9148 33.3173 42.0291C33.3173 50.1435 37.8699 56.7215 43.4858 56.7215Z" fill="url(#paint18_linear_206:35995)"/>
<path d="M51.1783 54.6775C51.1244 54.6765 51.0721 54.6592 51.0282 54.6279C50.9843 54.5967 50.9508 54.5529 50.9322 54.5023C50.9137 54.4517 50.9108 54.3966 50.9241 54.3444C50.9373 54.2921 50.966 54.2451 51.0065 54.2095C51.0513 54.1713 55.4989 50.2646 55.0396 40.405C54.5816 30.5763 48.3293 28.4267 48.2664 28.4066C48.2081 28.3785 48.1619 28.3303 48.1365 28.2707C48.111 28.2112 48.108 28.1445 48.128 28.0829C48.148 28.0214 48.1897 27.9692 48.2453 27.936C48.3008 27.9028 48.3666 27.8909 48.4302 27.9025C48.4971 27.9245 55.0944 30.1885 55.5691 40.3803C56.0412 50.5207 51.5407 54.4515 51.3495 54.614C51.3016 54.6546 51.241 54.677 51.1783 54.6775Z" fill="url(#paint19_linear_206:35995)"/>
<path d="M42.3591 41.2682C42.3591 41.2682 44.1042 41.7363 43.4062 42.7105C42.7082 43.6847 40.9637 43.682 40.9637 43.682L32.646 44.4382C32.646 44.4382 31.1925 42.6931 32.646 42.2284C34.0996 41.7637 42.3591 41.2682 42.3591 41.2682Z" fill="url(#paint20_linear_206:35995)"/>
<path d="M66.8455 38.4507C66.8455 38.4507 66.7292 36.3365 64.7808 36.6206C62.8324 36.9048 60.404 38.3818 61.5453 38.9521C62.6867 39.5225 66.1187 39.2116 66.8455 38.4507Z" fill="url(#paint21_linear_206:35995)"/>
<path d="M55.7082 113.998C55.7082 113.998 55.9549 110.363 56.3327 109.927C55.3151 108.619 53.941 107.135 52.2835 107.833C50.626 108.531 51.3347 122.403 51.3347 122.403C51.3347 122.403 57.5784 123.624 57.9267 122.403C58.2751 121.182 55.7082 120.048 55.7082 120.048V113.998Z" fill="url(#paint22_linear_206:35995)"/>
<path d="M109.274 118.956C109.274 118.956 108.163 122.814 109.274 122.798C110.384 122.782 124.459 123.152 124.459 123.152C124.459 123.152 125.128 118.833 119.645 118.956C114.163 119.078 114.016 118.041 114.016 118.041C114.016 118.041 110.015 119.426 109.274 118.956Z" fill="url(#paint23_linear_206:35995)"/>
<path d="M64.6972 109.753L64.0092 115.423L62.7883 115.211L62.3483 115.137L62.0969 115.092L61.661 115.015L55.7945 114C55.7945 114 55.3866 110.451 56.3775 109.927L62.0521 109.808L62.3516 109.801L62.7528 109.795L63.0497 109.787L64.6972 109.753Z" fill="white"/>
<path d="M62.3516 109.802L62.0969 115.092L61.6609 115.015L62.0521 109.808L62.3516 109.802Z" fill="url(#paint24_linear_206:35995)"/>
<path d="M63.0497 109.787L62.7882 115.211L62.3483 115.137L62.7535 109.795L63.0497 109.787Z" fill="url(#paint25_linear_206:35995)"/>
<path d="M114.015 118.042C114.015 118.042 110.538 120.217 109.217 119.168L109.381 114.341L109.397 113.92L109.405 113.633L109.421 113.215L109.45 112.338L113.811 112.081L113.835 112.778L113.845 113.099L113.858 113.48L113.869 113.798L114.015 118.042Z" fill="white"/>
<path d="M113.845 113.099L109.405 113.633L109.421 113.215L113.835 112.778L113.845 113.099Z" fill="url(#paint26_linear_206:35995)"/>
<path d="M113.869 113.798L109.381 114.341L109.397 113.92L113.858 113.48L113.869 113.798Z" fill="url(#paint27_linear_206:35995)"/>
<path d="M92.6972 36.5785C92.6972 36.5785 92.8643 36.1934 92.4926 36.2268C92.175 35.6545 93.7162 35.6251 94.9083 35.5087C96.1005 35.3924 96.3626 36.3017 95.8103 36.4869C95.258 36.6721 93.1899 37.0379 92.6972 36.5785Z" fill="url(#paint28_linear_206:35995)"/>
<path d="M93.6359 37.0559C93.6163 37.0561 93.5971 37.0497 93.5816 37.0376C93.5662 37.0256 93.5552 37.0086 93.5505 36.9896C93.5459 36.9705 93.5478 36.9504 93.556 36.9326C93.5642 36.9148 93.5782 36.9003 93.5957 36.8914C93.8525 36.7577 94.1253 36.5417 94.1206 36.4401C94.1206 36.4087 94.0685 36.3826 94.0377 36.3692C93.6078 36.1874 92.881 36.5584 92.8736 36.5625C92.8533 36.571 92.8305 36.5716 92.8098 36.5641C92.7891 36.5566 92.7719 36.5416 92.7618 36.522C92.7517 36.5024 92.7493 36.4797 92.7552 36.4585C92.761 36.4372 92.7747 36.419 92.7934 36.4073C92.8262 36.3906 93.6011 35.9941 94.1059 36.2068C94.2577 36.2736 94.2925 36.3639 94.2951 36.4307C94.3065 36.6982 93.7823 36.9877 93.6767 37.0439C93.6643 37.0512 93.6503 37.0553 93.6359 37.0559Z" fill="url(#paint29_linear_206:35995)"/>
<path d="M90.7006 92.1084C85.8296 92.1084 81.0249 90.6762 80.9587 90.6562C80.9147 90.636 80.8794 90.6005 80.8595 90.5563C80.8395 90.5121 80.8363 90.4622 80.8503 90.4158C80.8643 90.3694 80.8947 90.3297 80.9358 90.3039C80.9768 90.2782 81.0258 90.2681 81.0737 90.2757C81.164 90.3025 90.151 92.981 95.8877 90.9591C95.9355 90.9483 95.9856 90.9554 96.0285 90.9791C96.0714 91.0027 96.1042 91.0413 96.1207 91.0874C96.1371 91.1336 96.1361 91.1841 96.1178 91.2296C96.0996 91.275 96.0653 91.3122 96.0215 91.3342C94.4081 91.9018 92.5493 92.1084 90.7006 92.1084Z" fill="#7D97F4"/>
</g>
<g filter="url(#filter0_b_206:35995)">
<rect x="13" y="77" width="141" height="77" rx="10" fill="black" fill-opacity="0.8"/>
</g>
<path d="M47.4333 96H45.7533L45.6133 93.27L45.2913 89.798H45.1513L43.1353 95.048H41.6653L39.8313 89.798H39.7053L39.3553 93.088L39.1593 96H37.5633L38.4733 86.984H40.6573L41.0213 88.314L42.4493 92.584H42.5753L44.0733 88.314L44.4793 86.984H46.6213L47.4333 96ZM51.4408 89.364C52.3928 89.364 53.1208 89.644 53.6248 90.204C54.1288 90.764 54.3808 91.5713 54.3808 92.626C54.3808 93.7647 54.1101 94.6373 53.5688 95.244C53.0274 95.8413 52.2481 96.14 51.2308 96.14C50.2788 96.14 49.5508 95.86 49.0468 95.3C48.5428 94.74 48.2908 93.9327 48.2908 92.878C48.2908 91.7393 48.5614 90.8713 49.1028 90.274C49.6441 89.6673 50.4234 89.364 51.4408 89.364ZM51.3148 90.624C50.8668 90.624 50.5401 90.7733 50.3348 91.072C50.1388 91.3707 50.0408 91.8513 50.0408 92.514C50.0408 93.3727 50.1434 93.984 50.3488 94.348C50.5541 94.712 50.8901 94.894 51.3568 94.894C51.8048 94.894 52.1268 94.7493 52.3228 94.46C52.5281 94.1613 52.6308 93.676 52.6308 93.004C52.6308 92.1547 52.5234 91.548 52.3088 91.184C52.1034 90.8107 51.7721 90.624 51.3148 90.624ZM56.7107 90.526L57.6907 94.25H57.7887L58.9647 90.624L59.2027 89.49H60.8267L58.6427 96H56.6407L54.7927 89.532L56.5287 89.448L56.7107 90.526ZM61.853 93.312L61.783 89.616L63.617 89.462L63.533 93.13L63.617 96H61.755L61.853 93.312ZM62.735 86.298C63.0244 86.298 63.2484 86.382 63.407 86.55C63.575 86.718 63.659 86.9513 63.659 87.25C63.659 87.5673 63.5704 87.8193 63.393 88.006C63.2157 88.1927 62.973 88.286 62.665 88.286C62.357 88.286 62.119 88.202 61.951 88.034C61.7924 87.866 61.713 87.628 61.713 87.32C61.713 87.012 61.8017 86.7647 61.979 86.578C62.1657 86.3913 62.4177 86.298 62.735 86.298ZM73.1754 96L73.2874 91.94C73.2874 91.2493 72.9934 90.904 72.4054 90.904C71.9854 90.904 71.5468 91.0907 71.0894 91.464L71.0474 93.144L71.1314 96H69.2694L69.3814 91.94C69.3908 91.604 69.3161 91.3473 69.1574 91.17C69.0081 90.9927 68.7888 90.904 68.4994 90.904C68.0888 90.904 67.6361 91.1 67.1414 91.492V93.13L67.2254 96H65.3774L65.4754 93.312L65.4054 89.616L67.1554 89.462V90.414H67.2534C67.7668 89.9473 68.3314 89.6113 68.9474 89.406C69.9928 89.406 70.6601 89.756 70.9494 90.456H71.0334C71.5654 89.9613 72.1721 89.6113 72.8534 89.406C73.5628 89.406 74.0994 89.5693 74.4634 89.896C74.8368 90.2133 75.0141 90.6753 74.9954 91.282L74.9534 93.144L75.0374 96H73.1754ZM81.7104 92.976L77.9304 93.004C78.0144 94.1707 78.6071 94.754 79.7084 94.754C80.2871 94.754 80.9311 94.5907 81.6404 94.264L81.7944 94.362L81.5144 95.748C80.8051 96.0093 80.1377 96.14 79.5124 96.14C78.4857 96.14 77.6784 95.8413 77.0904 95.244C76.5117 94.6467 76.2224 93.8207 76.2224 92.766C76.2224 91.7207 76.5071 90.8947 77.0764 90.288C77.6457 89.672 78.4157 89.364 79.3864 89.364C80.2171 89.364 80.8564 89.5927 81.3044 90.05C81.7617 90.498 81.9904 91.128 81.9904 91.94C81.9904 92.1547 81.9671 92.4253 81.9204 92.752L81.7104 92.976ZM80.3664 91.73C80.3664 91.3567 80.2824 91.0767 80.1144 90.89C79.9464 90.694 79.6991 90.596 79.3724 90.596C79.0084 90.596 78.7051 90.7173 78.4624 90.96C78.2197 91.1933 78.0564 91.534 77.9724 91.982L80.3384 91.926L80.3664 91.73ZM87.2779 91.94C87.2873 91.6133 87.2126 91.3613 87.0539 91.184C86.9046 90.9973 86.6853 90.904 86.3959 90.904C85.9759 90.904 85.5279 91.1047 85.0519 91.506V93.13L85.1359 96H83.2739L83.3719 93.312L83.3019 89.616L85.0659 89.462V90.414H85.1639C85.6773 89.9473 86.2373 89.6113 86.8439 89.406C87.5533 89.406 88.0946 89.5693 88.4679 89.896C88.8413 90.2133 89.0186 90.6753 88.9999 91.282L88.9579 93.144L89.0419 96H87.1659L87.2779 91.94ZM93.3161 94.628C93.6147 94.628 93.9274 94.5487 94.2541 94.39L94.4081 94.53L94.2261 95.636C93.7501 95.8787 93.2647 96.028 92.7701 96.084C91.5101 95.9533 90.8801 95.3373 90.8801 94.236L90.9501 93.074L90.9361 90.666H90.0681L89.9981 90.568L90.0961 89.546H90.9221V88.468L92.6161 87.922L92.7421 88.034L92.7001 89.546H94.3661L94.4221 89.644L94.3381 90.666H92.6721L92.5881 93.802C92.5881 94.1007 92.6441 94.3153 92.7561 94.446C92.8681 94.5673 93.0547 94.628 93.3161 94.628ZM98.0208 89.364C98.9728 89.364 99.7008 89.644 100.205 90.204C100.709 90.764 100.961 91.5713 100.961 92.626C100.961 93.7647 100.69 94.6373 100.149 95.244C99.6075 95.8413 98.8282 96.14 97.8108 96.14C96.8588 96.14 96.1308 95.86 95.6268 95.3C95.1228 94.74 94.8708 93.9327 94.8708 92.878C94.8708 91.7393 95.1415 90.8713 95.6828 90.274C96.2242 89.6673 97.0035 89.364 98.0208 89.364ZM97.8948 90.624C97.4468 90.624 97.1202 90.7733 96.9148 91.072C96.7188 91.3707 96.6208 91.8513 96.6208 92.514C96.6208 93.3727 96.7235 93.984 96.9288 94.348C97.1342 94.712 97.4702 94.894 97.9368 94.894C98.3848 94.894 98.7068 94.7493 98.9028 94.46C99.1082 94.1613 99.2108 93.676 99.2108 93.004C99.2108 92.1547 99.1035 91.548 98.8888 91.184C98.6835 90.8107 98.3522 90.624 97.8948 90.624ZM104.421 89.378C105.055 89.378 105.653 89.4853 106.213 89.7L105.961 91.072L105.737 91.142C105.466 90.9647 105.195 90.8293 104.925 90.736C104.654 90.6427 104.416 90.596 104.211 90.596C103.987 90.596 103.809 90.6567 103.679 90.778C103.548 90.89 103.483 91.03 103.483 91.198C103.483 91.394 103.567 91.5527 103.735 91.674C103.912 91.7953 104.187 91.9307 104.561 92.08C104.934 92.2293 105.242 92.374 105.485 92.514C105.727 92.654 105.933 92.85 106.101 93.102C106.278 93.3447 106.367 93.648 106.367 94.012C106.367 94.3853 106.269 94.7353 106.073 95.062C105.886 95.3793 105.597 95.6407 105.205 95.846C104.813 96.042 104.332 96.14 103.763 96.14C103.091 96.14 102.395 96 101.677 95.72L101.887 94.264L102.069 94.152C102.358 94.3947 102.68 94.5907 103.035 94.74C103.389 94.88 103.702 94.95 103.973 94.95C104.225 94.95 104.421 94.8893 104.561 94.768C104.701 94.6373 104.771 94.4833 104.771 94.306C104.771 94.11 104.682 93.9513 104.505 93.83C104.337 93.7087 104.066 93.5733 103.693 93.424C103.31 93.256 102.997 93.1067 102.755 92.976C102.512 92.836 102.302 92.64 102.125 92.388C101.957 92.136 101.873 91.8233 101.873 91.45C101.873 90.8433 102.101 90.3487 102.559 89.966C103.016 89.574 103.637 89.378 104.421 89.378ZM115.119 89.378L115.273 89.462L115.161 93.13L115.259 98.59H113.411L113.495 95.65V95.3H113.383C113 95.6267 112.58 95.8927 112.123 96.098C111.218 96.098 110.518 95.8087 110.023 95.23C109.528 94.642 109.281 93.8393 109.281 92.822C109.281 91.7113 109.57 90.862 110.149 90.274C110.728 89.6767 111.502 89.378 112.473 89.378C112.977 89.378 113.537 89.4807 114.153 89.686L115.119 89.378ZM112.417 90.638C111.493 90.638 111.031 91.254 111.031 92.486C111.031 93.186 111.138 93.7227 111.353 94.096C111.577 94.46 111.899 94.642 112.319 94.642C112.515 94.642 112.706 94.6 112.893 94.516C113.089 94.4227 113.29 94.2733 113.495 94.068L113.509 93.326L113.467 90.932C113.094 90.736 112.744 90.638 112.417 90.638ZM123.205 94.782L123.037 95.762C122.691 95.986 122.337 96.1027 121.973 96.112C121.702 96.0653 121.478 95.958 121.301 95.79C121.123 95.622 120.988 95.3793 120.895 95.062H120.769C120.237 95.5847 119.686 95.9253 119.117 96.084C118.407 96.084 117.866 95.9253 117.493 95.608C117.129 95.2813 116.951 94.8147 116.961 94.208L116.989 92.556L116.919 89.616L118.725 89.462L118.683 93.592C118.673 93.9187 118.739 94.166 118.879 94.334C119.019 94.502 119.229 94.586 119.509 94.586C119.919 94.586 120.325 94.404 120.727 94.04V89.616L122.505 89.462L122.379 94.306C122.379 94.4553 122.402 94.5627 122.449 94.628C122.505 94.6933 122.589 94.726 122.701 94.726C122.803 94.726 122.929 94.7073 123.079 94.67L123.205 94.782ZM129.343 92.976L125.563 93.004C125.647 94.1707 126.24 94.754 127.341 94.754C127.92 94.754 128.564 94.5907 129.273 94.264L129.427 94.362L129.147 95.748C128.438 96.0093 127.771 96.14 127.145 96.14C126.119 96.14 125.311 95.8413 124.723 95.244C124.145 94.6467 123.855 93.8207 123.855 92.766C123.855 91.7207 124.14 90.8947 124.709 90.288C125.279 89.672 126.049 89.364 127.019 89.364C127.85 89.364 128.489 89.5927 128.937 90.05C129.395 90.498 129.623 91.128 129.623 91.94C129.623 92.1547 129.6 92.4253 129.553 92.752L129.343 92.976ZM127.999 91.73C127.999 91.3567 127.915 91.0767 127.747 90.89C127.579 90.694 127.332 90.596 127.005 90.596C126.641 90.596 126.338 90.7173 126.095 90.96C125.853 91.1933 125.689 91.534 125.605 91.982L127.971 91.926L127.999 91.73ZM34.2919 109.13L34.3339 110.306C34.3339 110.465 34.3525 110.577 34.3899 110.642C34.4365 110.698 34.5159 110.726 34.6279 110.726C34.7305 110.726 34.8565 110.707 35.0059 110.67L35.1319 110.782L34.9779 111.762C34.6605 111.958 34.3152 112.075 33.9419 112.112C33.6525 112.084 33.4099 111.986 33.2139 111.818C33.0179 111.65 32.8825 111.421 32.8079 111.132H32.6959C32.2385 111.552 31.7719 111.874 31.2959 112.098C30.3812 112.098 29.6719 111.809 29.1679 111.23C28.6639 110.642 28.4119 109.83 28.4119 108.794C28.4119 107.693 28.7012 106.848 29.2799 106.26C29.8585 105.672 30.6612 105.378 31.6879 105.378C31.9585 105.378 32.2572 105.406 32.5839 105.462L32.5559 102.312L34.4039 102.172L34.2919 109.13ZM31.5619 106.638C30.6285 106.638 30.1619 107.231 30.1619 108.416C30.1619 109.153 30.2739 109.709 30.4979 110.082C30.7219 110.455 31.0485 110.642 31.4779 110.642C31.8885 110.642 32.2665 110.451 32.6119 110.068L32.6399 109.298L32.5979 106.89C32.2339 106.722 31.8885 106.638 31.5619 106.638ZM41.269 108.976L37.489 109.004C37.573 110.171 38.1657 110.754 39.267 110.754C39.8457 110.754 40.4897 110.591 41.199 110.264L41.353 110.362L41.073 111.748C40.3637 112.009 39.6963 112.14 39.071 112.14C38.0443 112.14 37.237 111.841 36.649 111.244C36.0703 110.647 35.781 109.821 35.781 108.766C35.781 107.721 36.0657 106.895 36.635 106.288C37.2043 105.672 37.9743 105.364 38.945 105.364C39.7757 105.364 40.415 105.593 40.863 106.05C41.3203 106.498 41.549 107.128 41.549 107.94C41.549 108.155 41.5257 108.425 41.479 108.752L41.269 108.976ZM39.925 107.73C39.925 107.357 39.841 107.077 39.673 106.89C39.505 106.694 39.2577 106.596 38.931 106.596C38.567 106.596 38.2637 106.717 38.021 106.96C37.7783 107.193 37.615 107.534 37.531 107.982L39.897 107.926L39.925 107.73ZM42.9585 109.312L42.8885 105.616L44.7225 105.462L44.6385 109.13L44.7225 112H42.8605L42.9585 109.312ZM43.8405 102.298C44.1298 102.298 44.3538 102.382 44.5125 102.55C44.6805 102.718 44.7645 102.951 44.7645 103.25C44.7645 103.567 44.6758 103.819 44.4985 104.006C44.3212 104.193 44.0785 104.286 43.7705 104.286C43.4625 104.286 43.2245 104.202 43.0565 104.034C42.8978 103.866 42.8185 103.628 42.8185 103.32C42.8185 103.012 42.9072 102.765 43.0845 102.578C43.2712 102.391 43.5232 102.298 43.8405 102.298ZM48.0929 106.218L48.9889 107.674L49.8709 106.162L50.2209 105.504H51.8589L49.9829 108.696L51.9429 111.944L49.9829 112.084L49.6609 111.258L48.7369 109.76L47.7709 111.342L47.4629 112H45.8249L47.7149 108.738L45.8109 105.546L47.7989 105.448L48.0929 106.218ZM55.2793 105.364C55.9979 105.364 56.5579 105.527 56.9593 105.854C57.3699 106.171 57.5753 106.619 57.5753 107.198C57.5753 107.366 57.5473 107.898 57.4913 108.794C57.4819 109.055 57.4679 109.326 57.4493 109.606C57.4306 109.877 57.4213 110.11 57.4213 110.306C57.4213 110.465 57.4446 110.577 57.4913 110.642C57.5379 110.698 57.6219 110.726 57.7433 110.726C57.8366 110.726 57.9579 110.707 58.1073 110.67L58.2473 110.782L58.0793 111.762C57.7806 111.958 57.4399 112.075 57.0573 112.112C56.7773 112.084 56.5439 111.986 56.3573 111.818C56.1706 111.641 56.0446 111.398 55.9793 111.09H55.8813C55.4146 111.585 54.9339 111.93 54.4393 112.126C53.7673 112.117 53.2399 111.939 52.8573 111.594C52.4746 111.249 52.2833 110.777 52.2833 110.18C52.2833 109.713 52.3999 109.349 52.6333 109.088C52.8759 108.817 53.2399 108.635 53.7253 108.542L55.8673 108.136V107.562C55.8673 106.955 55.5686 106.652 54.9713 106.652C54.6819 106.652 54.3739 106.717 54.0473 106.848C53.7299 106.979 53.3706 107.184 52.9693 107.464L52.8293 107.38L52.6193 106.148C53.0206 105.896 53.4499 105.705 53.9073 105.574C54.3646 105.434 54.8219 105.364 55.2793 105.364ZM54.3693 109.396C54.2199 109.433 54.1079 109.499 54.0333 109.592C53.9679 109.676 53.9353 109.807 53.9353 109.984C53.9353 110.227 54.0006 110.418 54.1313 110.558C54.2619 110.689 54.4439 110.754 54.6773 110.754C55.0413 110.754 55.4239 110.539 55.8253 110.11L55.8533 109.074L54.3693 109.396ZM67.1735 112L67.2855 107.94C67.2855 107.249 66.9915 106.904 66.4035 106.904C65.9835 106.904 65.5448 107.091 65.0875 107.464L65.0455 109.144L65.1295 112H63.2675L63.3795 107.94C63.3888 107.604 63.3142 107.347 63.1555 107.17C63.0062 106.993 62.7868 106.904 62.4975 106.904C62.0868 106.904 61.6342 107.1 61.1395 107.492V109.13L61.2235 112H59.3755L59.4735 109.312L59.4035 105.616L61.1535 105.462V106.414H61.2515C61.7648 105.947 62.3295 105.611 62.9455 105.406C63.9908 105.406 64.6582 105.756 64.9475 106.456H65.0315C65.5635 105.961 66.1702 105.611 66.8515 105.406C67.5608 105.406 68.0975 105.569 68.4615 105.896C68.8348 106.213 69.0122 106.675 68.9935 107.282L68.9515 109.144L69.0355 112H67.1735ZM75.4896 105.364C76.4416 105.364 77.1696 105.644 77.6736 106.204C78.1776 106.764 78.4296 107.571 78.4296 108.626C78.4296 109.765 78.1589 110.637 77.6176 111.244C77.0763 111.841 76.2969 112.14 75.2796 112.14C74.3276 112.14 73.5996 111.86 73.0956 111.3C72.5916 110.74 72.3396 109.933 72.3396 108.878C72.3396 107.739 72.6103 106.871 73.1516 106.274C73.6929 105.667 74.4723 105.364 75.4896 105.364ZM75.3636 106.624C74.9156 106.624 74.5889 106.773 74.3836 107.072C74.1876 107.371 74.0896 107.851 74.0896 108.514C74.0896 109.373 74.1923 109.984 74.3976 110.348C74.6029 110.712 74.9389 110.894 75.4056 110.894C75.8536 110.894 76.1756 110.749 76.3716 110.46C76.5769 110.161 76.6796 109.676 76.6796 109.004C76.6796 108.155 76.5723 107.548 76.3576 107.184C76.1523 106.811 75.8209 106.624 75.3636 106.624ZM81.8896 105.378C82.5242 105.378 83.1216 105.485 83.6816 105.7L83.4296 107.072L83.2056 107.142C82.9349 106.965 82.6642 106.829 82.3936 106.736C82.1229 106.643 81.8849 106.596 81.6796 106.596C81.4556 106.596 81.2782 106.657 81.1476 106.778C81.0169 106.89 80.9516 107.03 80.9516 107.198C80.9516 107.394 81.0356 107.553 81.2036 107.674C81.3809 107.795 81.6562 107.931 82.0296 108.08C82.4029 108.229 82.7109 108.374 82.9536 108.514C83.1962 108.654 83.4016 108.85 83.5696 109.102C83.7469 109.345 83.8356 109.648 83.8356 110.012C83.8356 110.385 83.7376 110.735 83.5416 111.062C83.3549 111.379 83.0656 111.641 82.6736 111.846C82.2816 112.042 81.8009 112.14 81.2316 112.14C80.5596 112.14 79.8642 112 79.1456 111.72L79.3556 110.264L79.5376 110.152C79.8269 110.395 80.1489 110.591 80.5036 110.74C80.8582 110.88 81.1709 110.95 81.4416 110.95C81.6936 110.95 81.8896 110.889 82.0296 110.768C82.1696 110.637 82.2396 110.483 82.2396 110.306C82.2396 110.11 82.1509 109.951 81.9736 109.83C81.8056 109.709 81.5349 109.573 81.1616 109.424C80.7789 109.256 80.4662 109.107 80.2236 108.976C79.9809 108.836 79.7709 108.64 79.5936 108.388C79.4256 108.136 79.3416 107.823 79.3416 107.45C79.3416 106.843 79.5702 106.349 80.0276 105.966C80.4849 105.574 81.1056 105.378 81.8896 105.378ZM94.9958 112L95.1078 107.94C95.1078 107.249 94.8138 106.904 94.2258 106.904C93.8058 106.904 93.3671 107.091 92.9098 107.464L92.8678 109.144L92.9518 112H91.0898L91.2018 107.94C91.2111 107.604 91.1364 107.347 90.9778 107.17C90.8284 106.993 90.6091 106.904 90.3198 106.904C89.9091 106.904 89.4564 107.1 88.9618 107.492V109.13L89.0458 112H87.1978L87.2958 109.312L87.2258 105.616L88.9758 105.462V106.414H89.0738C89.5871 105.947 90.1518 105.611 90.7678 105.406C91.8131 105.406 92.4804 105.756 92.7698 106.456H92.8538C93.3858 105.961 93.9924 105.611 94.6738 105.406C95.3831 105.406 95.9198 105.569 96.2838 105.896C96.6571 106.213 96.8344 106.675 96.8158 107.282L96.7738 109.144L96.8578 112H94.9958ZM104.707 110.782L104.539 111.762C104.193 111.986 103.839 112.103 103.475 112.112C103.204 112.065 102.98 111.958 102.803 111.79C102.625 111.622 102.49 111.379 102.397 111.062H102.271C101.739 111.585 101.188 111.925 100.619 112.084C99.9094 112.084 99.3681 111.925 98.9947 111.608C98.6307 111.281 98.4534 110.815 98.4627 110.208L98.4907 108.556L98.4207 105.616L100.227 105.462L100.185 109.592C100.175 109.919 100.241 110.166 100.381 110.334C100.521 110.502 100.731 110.586 101.011 110.586C101.421 110.586 101.827 110.404 102.229 110.04V105.616L104.007 105.462L103.881 110.306C103.881 110.455 103.904 110.563 103.951 110.628C104.007 110.693 104.091 110.726 104.203 110.726C104.305 110.726 104.431 110.707 104.581 110.67L104.707 110.782ZM102.607 101.878L103.279 102.886L103.251 103.068C103.045 103.199 102.891 103.292 102.789 103.348C101.622 104.067 100.866 104.524 100.521 104.72L100.339 104.706L99.8907 104.006C100.973 103.138 101.818 102.424 102.425 101.864L102.607 101.878ZM107.989 105.378C108.624 105.378 109.221 105.485 109.781 105.7L109.529 107.072L109.305 107.142C109.035 106.965 108.764 106.829 108.493 106.736C108.223 106.643 107.985 106.596 107.779 106.596C107.555 106.596 107.378 106.657 107.247 106.778C107.117 106.89 107.051 107.03 107.051 107.198C107.051 107.394 107.135 107.553 107.303 107.674C107.481 107.795 107.756 107.931 108.129 108.08C108.503 108.229 108.811 108.374 109.053 108.514C109.296 108.654 109.501 108.85 109.669 109.102C109.847 109.345 109.935 109.648 109.935 110.012C109.935 110.385 109.837 110.735 109.641 111.062C109.455 111.379 109.165 111.641 108.773 111.846C108.381 112.042 107.901 112.14 107.331 112.14C106.659 112.14 105.964 112 105.245 111.72L105.455 110.264L105.637 110.152C105.927 110.395 106.249 110.591 106.603 110.74C106.958 110.88 107.271 110.95 107.541 110.95C107.793 110.95 107.989 110.889 108.129 110.768C108.269 110.637 108.339 110.483 108.339 110.306C108.339 110.11 108.251 109.951 108.073 109.83C107.905 109.709 107.635 109.573 107.261 109.424C106.879 109.256 106.566 109.107 106.323 108.976C106.081 108.836 105.871 108.64 105.693 108.388C105.525 108.136 105.441 107.823 105.441 107.45C105.441 106.843 105.67 106.349 106.127 105.966C106.585 105.574 107.205 105.378 107.989 105.378ZM113.852 105.364C114.16 105.364 114.464 105.397 114.762 105.462C115.07 105.518 115.341 105.602 115.574 105.714L115.266 107.198L115.112 107.268C114.636 107.007 114.212 106.876 113.838 106.876C113.409 106.876 113.078 107.03 112.844 107.338C112.611 107.646 112.494 108.085 112.494 108.654C112.494 109.307 112.62 109.807 112.872 110.152C113.124 110.497 113.484 110.67 113.95 110.67C114.37 110.67 114.837 110.553 115.35 110.32L115.49 110.432L115.308 111.874C114.748 112.051 114.174 112.14 113.586 112.14C112.69 112.14 111.99 111.851 111.486 111.272C110.982 110.684 110.73 109.867 110.73 108.822C110.73 107.739 111.006 106.895 111.556 106.288C112.107 105.672 112.872 105.364 113.852 105.364ZM122.781 110.782L122.613 111.762C122.268 111.986 121.913 112.103 121.549 112.112C121.278 112.065 121.054 111.958 120.877 111.79C120.7 111.622 120.564 111.379 120.471 111.062H120.345C119.813 111.585 119.262 111.925 118.693 112.084C117.984 112.084 117.442 111.925 117.069 111.608C116.705 111.281 116.528 110.815 116.537 110.208L116.565 108.556L116.495 105.616L118.301 105.462L118.259 109.592C118.25 109.919 118.315 110.166 118.455 110.334C118.595 110.502 118.805 110.586 119.085 110.586C119.496 110.586 119.902 110.404 120.303 110.04V105.616L122.081 105.462L121.955 110.306C121.955 110.455 121.978 110.563 122.025 110.628C122.081 110.693 122.165 110.726 122.277 110.726C122.38 110.726 122.506 110.707 122.655 110.67L122.781 110.782ZM125.699 109.13L125.797 112H123.935L124.033 109.298L123.949 102.312L125.811 102.172L125.699 109.13ZM130.259 105.364C131.211 105.364 131.939 105.644 132.443 106.204C132.947 106.764 133.199 107.571 133.199 108.626C133.199 109.765 132.928 110.637 132.387 111.244C131.846 111.841 131.066 112.14 130.049 112.14C129.097 112.14 128.369 111.86 127.865 111.3C127.361 110.74 127.109 109.933 127.109 108.878C127.109 107.739 127.38 106.871 127.921 106.274C128.462 105.667 129.242 105.364 130.259 105.364ZM130.133 106.624C129.685 106.624 129.358 106.773 129.153 107.072C128.957 107.371 128.859 107.851 128.859 108.514C128.859 109.373 128.962 109.984 129.167 110.348C129.372 110.712 129.708 110.894 130.175 110.894C130.623 110.894 130.945 110.749 131.141 110.46C131.346 110.161 131.449 109.676 131.449 109.004C131.449 108.155 131.342 107.548 131.127 107.184C130.922 106.811 130.59 106.624 130.133 106.624ZM136.659 105.378C137.294 105.378 137.891 105.485 138.451 105.7L138.199 107.072L137.975 107.142C137.704 106.965 137.434 106.829 137.163 106.736C136.892 106.643 136.654 106.596 136.449 106.596C136.225 106.596 136.048 106.657 135.917 106.778C135.786 106.89 135.721 107.03 135.721 107.198C135.721 107.394 135.805 107.553 135.973 107.674C136.15 107.795 136.426 107.931 136.799 108.08C137.172 108.229 137.48 108.374 137.723 108.514C137.966 108.654 138.171 108.85 138.339 109.102C138.516 109.345 138.605 109.648 138.605 110.012C138.605 110.385 138.507 110.735 138.311 111.062C138.124 111.379 137.835 111.641 137.443 111.846C137.051 112.042 136.57 112.14 136.001 112.14C135.329 112.14 134.634 112 133.915 111.72L134.125 110.264L134.307 110.152C134.596 110.395 134.918 110.591 135.273 110.74C135.628 110.88 135.94 110.95 136.211 110.95C136.463 110.95 136.659 110.889 136.799 110.768C136.939 110.637 137.009 110.483 137.009 110.306C137.009 110.11 136.92 109.951 136.743 109.83C136.575 109.709 136.304 109.573 135.931 109.424C135.548 109.256 135.236 109.107 134.993 108.976C134.75 108.836 134.54 108.64 134.363 108.388C134.195 108.136 134.111 107.823 134.111 107.45C134.111 106.843 134.34 106.349 134.797 105.966C135.254 105.574 135.875 105.378 136.659 105.378ZM56.7829 128L56.8949 123.94C56.8949 123.249 56.6009 122.904 56.0129 122.904C55.5929 122.904 55.1542 123.091 54.6969 123.464L54.6549 125.144L54.7389 128H52.8769L52.9889 123.94C52.9982 123.604 52.9235 123.347 52.7649 123.17C52.6155 122.993 52.3962 122.904 52.1069 122.904C51.6962 122.904 51.2435 123.1 50.7489 123.492V125.13L50.8329 128H48.9849L49.0829 125.312L49.0129 121.616L50.7629 121.462V122.414H50.8609C51.3742 121.947 51.9389 121.611 52.5549 121.406C53.6002 121.406 54.2675 121.756 54.5569 122.456H54.6409C55.1729 121.961 55.7795 121.611 56.4609 121.406C57.1702 121.406 57.7069 121.569 58.0709 121.896C58.4442 122.213 58.6215 122.675 58.6029 123.282L58.5609 125.144L58.6449 128H56.7829ZM62.8398 121.364C63.5585 121.364 64.1185 121.527 64.5198 121.854C64.9305 122.171 65.1358 122.619 65.1358 123.198C65.1358 123.366 65.1078 123.898 65.0518 124.794C65.0425 125.055 65.0285 125.326 65.0098 125.606C64.9912 125.877 64.9818 126.11 64.9818 126.306C64.9818 126.465 65.0052 126.577 65.0518 126.642C65.0985 126.698 65.1825 126.726 65.3038 126.726C65.3972 126.726 65.5185 126.707 65.6678 126.67L65.8078 126.782L65.6398 127.762C65.3412 127.958 65.0005 128.075 64.6178 128.112C64.3378 128.084 64.1045 127.986 63.9178 127.818C63.7312 127.641 63.6052 127.398 63.5398 127.09H63.4418C62.9752 127.585 62.4945 127.93 61.9998 128.126C61.3278 128.117 60.8005 127.939 60.4178 127.594C60.0352 127.249 59.8438 126.777 59.8438 126.18C59.8438 125.713 59.9605 125.349 60.1938 125.088C60.4365 124.817 60.8005 124.635 61.2858 124.542L63.4278 124.136V123.562C63.4278 122.955 63.1292 122.652 62.5318 122.652C62.2425 122.652 61.9345 122.717 61.6078 122.848C61.2905 122.979 60.9312 123.184 60.5298 123.464L60.3898 123.38L60.1798 122.148C60.5812 121.896 61.0105 121.705 61.4678 121.574C61.9252 121.434 62.3825 121.364 62.8398 121.364ZM61.9298 125.396C61.7805 125.433 61.6685 125.499 61.5938 125.592C61.5285 125.676 61.4958 125.807 61.4958 125.984C61.4958 126.227 61.5612 126.418 61.6918 126.558C61.8225 126.689 62.0045 126.754 62.2378 126.754C62.6018 126.754 62.9845 126.539 63.3858 126.11L63.4138 125.074L61.9298 125.396ZM67.1441 125.312L67.0741 121.616L68.9081 121.462L68.8241 125.13L68.9081 128H67.0461L67.1441 125.312ZM68.0261 118.298C68.3154 118.298 68.5394 118.382 68.6981 118.55C68.8661 118.718 68.9501 118.951 68.9501 119.25C68.9501 119.567 68.8614 119.819 68.6841 120.006C68.5067 120.193 68.2641 120.286 67.9561 120.286C67.6481 120.286 67.4101 120.202 67.2421 120.034C67.0834 119.866 67.0041 119.628 67.0041 119.32C67.0041 119.012 67.0927 118.765 67.2701 118.578C67.4567 118.391 67.7087 118.298 68.0261 118.298ZM72.8525 121.378C73.4871 121.378 74.0845 121.485 74.6445 121.7L74.3925 123.072L74.1685 123.142C73.8978 122.965 73.6271 122.829 73.3565 122.736C73.0858 122.643 72.8478 122.596 72.6425 122.596C72.4185 122.596 72.2411 122.657 72.1105 122.778C71.9798 122.89 71.9145 123.03 71.9145 123.198C71.9145 123.394 71.9985 123.553 72.1665 123.674C72.3438 123.795 72.6191 123.931 72.9925 124.08C73.3658 124.229 73.6738 124.374 73.9165 124.514C74.1591 124.654 74.3645 124.85 74.5325 125.102C74.7098 125.345 74.7985 125.648 74.7985 126.012C74.7985 126.385 74.7005 126.735 74.5045 127.062C74.3178 127.379 74.0285 127.641 73.6365 127.846C73.2445 128.042 72.7638 128.14 72.1945 128.14C71.5225 128.14 70.8271 128 70.1085 127.72L70.3185 126.264L70.5005 126.152C70.7898 126.395 71.1118 126.591 71.4665 126.74C71.8211 126.88 72.1338 126.95 72.4045 126.95C72.6565 126.95 72.8525 126.889 72.9925 126.768C73.1325 126.637 73.2025 126.483 73.2025 126.306C73.2025 126.11 73.1138 125.951 72.9365 125.83C72.7685 125.709 72.4978 125.573 72.1245 125.424C71.7418 125.256 71.4291 125.107 71.1865 124.976C70.9438 124.836 70.7338 124.64 70.5565 124.388C70.3885 124.136 70.3045 123.823 70.3045 123.45C70.3045 122.843 70.5331 122.349 70.9905 121.966C71.4478 121.574 72.0685 121.378 72.8525 121.378ZM81.5486 118.144C81.9313 118.144 82.3373 118.186 82.7666 118.27L82.6406 119.656L82.5146 119.74C82.076 119.553 81.6933 119.46 81.3666 119.46C80.788 119.46 80.494 119.791 80.4846 120.454L80.4706 121.546H82.0526L82.1086 121.644L82.0246 122.666H80.4426L80.4006 125.13L80.4986 128H78.6366L78.7486 125.298L78.7206 122.666H77.7406L77.6706 122.568L77.7686 121.546H78.7066L78.6926 120.776C78.6926 119.936 78.94 119.287 79.4346 118.83C79.9386 118.373 80.6433 118.144 81.5486 118.144ZM85.3333 121.364C86.2853 121.364 87.0133 121.644 87.5173 122.204C88.0213 122.764 88.2733 123.571 88.2733 124.626C88.2733 125.765 88.0027 126.637 87.4613 127.244C86.92 127.841 86.1407 128.14 85.1233 128.14C84.1713 128.14 83.4433 127.86 82.9393 127.3C82.4353 126.74 82.1833 125.933 82.1833 124.878C82.1833 123.739 82.454 122.871 82.9953 122.274C83.5367 121.667 84.316 121.364 85.3333 121.364ZM85.2073 122.624C84.7593 122.624 84.4327 122.773 84.2273 123.072C84.0313 123.371 83.9333 123.851 83.9333 124.514C83.9333 125.373 84.036 125.984 84.2413 126.348C84.4467 126.712 84.7827 126.894 85.2493 126.894C85.6973 126.894 86.0193 126.749 86.2153 126.46C86.4207 126.161 86.5233 125.676 86.5233 125.004C86.5233 124.155 86.416 123.548 86.2013 123.184C85.996 122.811 85.6647 122.624 85.2073 122.624ZM93.0653 121.476C93.1493 121.476 93.2659 121.485 93.4153 121.504V123.226L93.2193 123.296C93.0606 123.231 92.8879 123.198 92.7013 123.198C92.1599 123.198 91.6699 123.548 91.2313 124.248V125.13L91.3293 128H89.4673L89.5793 125.312L89.4953 121.616L91.2593 121.462L91.2453 122.736H91.3573C91.8146 121.896 92.3839 121.476 93.0653 121.476ZM97.0212 126.628C97.3198 126.628 97.6325 126.549 97.9592 126.39L98.1132 126.53L97.9312 127.636C97.4552 127.879 96.9698 128.028 96.4752 128.084C95.2152 127.953 94.5852 127.337 94.5852 126.236L94.6552 125.074L94.6412 122.666H93.7732L93.7032 122.568L93.8012 121.546H94.6272V120.468L96.3212 119.922L96.4472 120.034L96.4052 121.546H98.0712L98.1272 121.644L98.0432 122.666H96.3772L96.2932 125.802C96.2932 126.101 96.3492 126.315 96.4612 126.446C96.5732 126.567 96.7598 126.628 97.0212 126.628ZM104.064 124.976L100.284 125.004C100.368 126.171 100.961 126.754 102.062 126.754C102.641 126.754 103.285 126.591 103.994 126.264L104.148 126.362L103.868 127.748C103.159 128.009 102.491 128.14 101.866 128.14C100.839 128.14 100.032 127.841 99.4439 127.244C98.8653 126.647 98.5759 125.821 98.5759 124.766C98.5759 123.721 98.8606 122.895 99.4299 122.288C99.9993 121.672 100.769 121.364 101.74 121.364C102.571 121.364 103.21 121.593 103.658 122.05C104.115 122.498 104.344 123.128 104.344 123.94C104.344 124.155 104.321 124.425 104.274 124.752L104.064 124.976ZM102.72 123.73C102.72 123.357 102.636 123.077 102.468 122.89C102.3 122.694 102.053 122.596 101.726 122.596C101.362 122.596 101.059 122.717 100.816 122.96C100.573 123.193 100.41 123.534 100.326 123.982L102.692 123.926L102.72 123.73ZM107.811 121.378C108.446 121.378 109.043 121.485 109.603 121.7L109.351 123.072L109.127 123.142C108.857 122.965 108.586 122.829 108.315 122.736C108.045 122.643 107.807 122.596 107.601 122.596C107.377 122.596 107.2 122.657 107.069 122.778C106.939 122.89 106.873 123.03 106.873 123.198C106.873 123.394 106.957 123.553 107.125 123.674C107.303 123.795 107.578 123.931 107.951 124.08C108.325 124.229 108.633 124.374 108.875 124.514C109.118 124.654 109.323 124.85 109.491 125.102C109.669 125.345 109.757 125.648 109.757 126.012C109.757 126.385 109.659 126.735 109.463 127.062C109.277 127.379 108.987 127.641 108.595 127.846C108.203 128.042 107.723 128.14 107.153 128.14C106.481 128.14 105.786 128 105.067 127.72L105.277 126.264L105.459 126.152C105.749 126.395 106.071 126.591 106.425 126.74C106.78 126.88 107.093 126.95 107.363 126.95C107.615 126.95 107.811 126.889 107.951 126.768C108.091 126.637 108.161 126.483 108.161 126.306C108.161 126.11 108.073 125.951 107.895 125.83C107.727 125.709 107.457 125.573 107.083 125.424C106.701 125.256 106.388 125.107 106.145 124.976C105.903 124.836 105.693 124.64 105.515 124.388C105.347 124.136 105.263 123.823 105.263 123.45C105.263 122.843 105.492 122.349 105.949 121.966C106.407 121.574 107.027 121.378 107.811 121.378ZM118.16 124.976L114.38 125.004C114.464 126.171 115.056 126.754 116.158 126.754C116.736 126.754 117.38 126.591 118.09 126.264L118.244 126.362L117.964 127.748C117.254 128.009 116.587 128.14 115.962 128.14C114.935 128.14 114.128 127.841 113.54 127.244C112.961 126.647 112.672 125.821 112.672 124.766C112.672 123.721 112.956 122.895 113.526 122.288C114.095 121.672 114.865 121.364 115.836 121.364C116.666 121.364 117.306 121.593 117.754 122.05C118.211 122.498 118.44 123.128 118.44 123.94C118.44 124.155 118.416 124.425 118.37 124.752L118.16 124.976ZM116.816 123.73C116.816 123.357 116.732 123.077 116.564 122.89C116.396 122.694 116.148 122.596 115.822 122.596C115.458 122.596 115.154 122.717 114.912 122.96C114.669 123.193 114.506 123.534 114.422 123.982L116.788 123.926L116.816 123.73ZM57.4943 137.406C58.3063 137.406 58.9316 137.681 59.3703 138.232C59.809 138.783 60.0283 139.562 60.0283 140.57C60.0283 141.709 59.7436 142.591 59.1743 143.216C58.6143 143.832 57.821 144.14 56.7943 144.14C56.4956 144.14 56.183 144.112 55.8563 144.056L55.8983 146.59H54.0503L54.1483 141.312L54.0643 137.616L55.8423 137.462L55.8283 138.414H55.9263C56.1876 138.162 56.4396 137.961 56.6823 137.812C56.925 137.653 57.1956 137.518 57.4943 137.406ZM56.8083 142.922C57.2936 142.922 57.6623 142.749 57.9143 142.404C58.1663 142.059 58.2923 141.55 58.2923 140.878C58.2923 140.225 58.185 139.735 57.9703 139.408C57.765 139.072 57.457 138.904 57.0463 138.904C56.645 138.904 56.239 139.105 55.8283 139.506L55.8143 141.13L55.8423 142.712C56.1783 142.852 56.5003 142.922 56.8083 142.922ZM63.9984 137.364C64.9504 137.364 65.6784 137.644 66.1824 138.204C66.6864 138.764 66.9384 139.571 66.9384 140.626C66.9384 141.765 66.6677 142.637 66.1264 143.244C65.585 143.841 64.8057 144.14 63.7884 144.14C62.8364 144.14 62.1084 143.86 61.6044 143.3C61.1004 142.74 60.8484 141.933 60.8484 140.878C60.8484 139.739 61.119 138.871 61.6604 138.274C62.2017 137.667 62.981 137.364 63.9984 137.364ZM63.8724 138.624C63.4244 138.624 63.0977 138.773 62.8924 139.072C62.6964 139.371 62.5984 139.851 62.5984 140.514C62.5984 141.373 62.701 141.984 62.9064 142.348C63.1117 142.712 63.4477 142.894 63.9144 142.894C64.3624 142.894 64.6844 142.749 64.8804 142.46C65.0857 142.161 65.1884 141.676 65.1884 141.004C65.1884 140.155 65.081 139.548 64.8664 139.184C64.661 138.811 64.3297 138.624 63.8724 138.624ZM73.6464 141.13L73.6884 142.306C73.6884 142.465 73.707 142.577 73.7444 142.642C73.791 142.698 73.8704 142.726 73.9824 142.726C74.085 142.726 74.211 142.707 74.3604 142.67L74.4864 142.782L74.3324 143.762C74.015 143.958 73.6697 144.075 73.2964 144.112C73.007 144.084 72.7644 143.986 72.5684 143.818C72.3724 143.65 72.237 143.421 72.1624 143.132H72.0504C71.593 143.552 71.1264 143.874 70.6504 144.098C69.7357 144.098 69.0264 143.809 68.5224 143.23C68.0184 142.642 67.7664 141.83 67.7664 140.794C67.7664 139.693 68.0557 138.848 68.6344 138.26C69.213 137.672 70.0157 137.378 71.0424 137.378C71.313 137.378 71.6117 137.406 71.9384 137.462L71.9104 134.312L73.7584 134.172L73.6464 141.13ZM70.9164 138.638C69.983 138.638 69.5164 139.231 69.5164 140.416C69.5164 141.153 69.6284 141.709 69.8524 142.082C70.0764 142.455 70.403 142.642 70.8324 142.642C71.243 142.642 71.621 142.451 71.9664 142.068L71.9944 141.298L71.9524 138.89C71.5884 138.722 71.243 138.638 70.9164 138.638ZM80.6235 140.976L76.8435 141.004C76.9275 142.171 77.5202 142.754 78.6215 142.754C79.2002 142.754 79.8442 142.591 80.5535 142.264L80.7075 142.362L80.4275 143.748C79.7182 144.009 79.0508 144.14 78.4255 144.14C77.3988 144.14 76.5915 143.841 76.0035 143.244C75.4248 142.647 75.1355 141.821 75.1355 140.766C75.1355 139.721 75.4202 138.895 75.9895 138.288C76.5588 137.672 77.3288 137.364 78.2995 137.364C79.1302 137.364 79.7695 137.593 80.2175 138.05C80.6748 138.498 80.9035 139.128 80.9035 139.94C80.9035 140.155 80.8802 140.425 80.8335 140.752L80.6235 140.976ZM79.2795 139.73C79.2795 139.357 79.1955 139.077 79.0275 138.89C78.8595 138.694 78.6122 138.596 78.2855 138.596C77.9215 138.596 77.6182 138.717 77.3755 138.96C77.1328 139.193 76.9695 139.534 76.8855 139.982L79.2515 139.926L79.2795 139.73ZM85.785 137.476C85.869 137.476 85.9857 137.485 86.135 137.504V139.226L85.939 139.296C85.7803 139.231 85.6077 139.198 85.421 139.198C84.8797 139.198 84.3897 139.548 83.951 140.248V141.13L84.049 144H82.187L82.299 141.312L82.215 137.616L83.979 137.462L83.965 138.736H84.077C84.5343 137.896 85.1037 137.476 85.785 137.476ZM89.7562 137.364C90.7082 137.364 91.4362 137.644 91.9402 138.204C92.4442 138.764 92.6962 139.571 92.6962 140.626C92.6962 141.765 92.4255 142.637 91.8842 143.244C91.3429 143.841 90.5635 144.14 89.5462 144.14C88.5942 144.14 87.8662 143.86 87.3622 143.3C86.8582 142.74 86.6062 141.933 86.6062 140.878C86.6062 139.739 86.8769 138.871 87.4182 138.274C87.9595 137.667 88.7389 137.364 89.7562 137.364ZM89.6302 138.624C89.1822 138.624 88.8555 138.773 88.6502 139.072C88.4542 139.371 88.3562 139.851 88.3562 140.514C88.3562 141.373 88.4589 141.984 88.6642 142.348C88.8695 142.712 89.2055 142.894 89.6722 142.894C90.1202 142.894 90.4422 142.749 90.6382 142.46C90.8435 142.161 90.9462 141.676 90.9462 141.004C90.9462 140.155 90.8389 139.548 90.6242 139.184C90.4189 138.811 90.0875 138.624 89.6302 138.624ZM96.1562 137.378C96.7908 137.378 97.3882 137.485 97.9482 137.7L97.6962 139.072L97.4722 139.142C97.2015 138.965 96.9308 138.829 96.6602 138.736C96.3895 138.643 96.1515 138.596 95.9462 138.596C95.7222 138.596 95.5448 138.657 95.4142 138.778C95.2835 138.89 95.2182 139.03 95.2182 139.198C95.2182 139.394 95.3022 139.553 95.4702 139.674C95.6475 139.795 95.9228 139.931 96.2962 140.08C96.6695 140.229 96.9775 140.374 97.2202 140.514C97.4628 140.654 97.6682 140.85 97.8362 141.102C98.0135 141.345 98.1022 141.648 98.1022 142.012C98.1022 142.385 98.0042 142.735 97.8082 143.062C97.6215 143.379 97.3322 143.641 96.9402 143.846C96.5482 144.042 96.0675 144.14 95.4982 144.14C94.8262 144.14 94.1308 144 93.4122 143.72L93.6222 142.264L93.8042 142.152C94.0935 142.395 94.4155 142.591 94.7702 142.74C95.1248 142.88 95.4375 142.95 95.7082 142.95C95.9602 142.95 96.1562 142.889 96.2962 142.768C96.4362 142.637 96.5062 142.483 96.5062 142.306C96.5062 142.11 96.4175 141.951 96.2402 141.83C96.0722 141.709 95.8015 141.573 95.4282 141.424C95.0455 141.256 94.7328 141.107 94.4902 140.976C94.2475 140.836 94.0375 140.64 93.8602 140.388C93.6922 140.136 93.6082 139.823 93.6082 139.45C93.6082 138.843 93.8368 138.349 94.2942 137.966C94.7515 137.574 95.3722 137.378 96.1562 137.378ZM102.047 137.364C102.999 137.364 103.727 137.644 104.231 138.204C104.735 138.764 104.987 139.571 104.987 140.626C104.987 141.765 104.717 142.637 104.175 143.244C103.634 143.841 102.855 144.14 101.837 144.14C100.885 144.14 100.157 143.86 99.6532 143.3C99.1492 142.74 98.8972 141.933 98.8972 140.878C98.8972 139.739 99.1679 138.871 99.7092 138.274C100.251 137.667 101.03 137.364 102.047 137.364ZM101.921 138.624C101.473 138.624 101.147 138.773 100.941 139.072C100.745 139.371 100.647 139.851 100.647 140.514C100.647 141.373 100.75 141.984 100.955 142.348C101.161 142.712 101.497 142.894 101.963 142.894C102.411 142.894 102.733 142.749 102.929 142.46C103.135 142.161 103.237 141.676 103.237 141.004C103.237 140.155 103.13 139.548 102.915 139.184C102.71 138.811 102.379 138.624 101.921 138.624ZM108.447 137.378C109.082 137.378 109.679 137.485 110.239 137.7L109.987 139.072L109.763 139.142C109.493 138.965 109.222 138.829 108.951 138.736C108.681 138.643 108.443 138.596 108.237 138.596C108.013 138.596 107.836 138.657 107.705 138.778C107.575 138.89 107.509 139.03 107.509 139.198C107.509 139.394 107.593 139.553 107.761 139.674C107.939 139.795 108.214 139.931 108.587 140.08C108.961 140.229 109.269 140.374 109.511 140.514C109.754 140.654 109.959 140.85 110.127 141.102C110.305 141.345 110.393 141.648 110.393 142.012C110.393 142.385 110.295 142.735 110.099 143.062C109.913 143.379 109.623 143.641 109.231 143.846C108.839 144.042 108.359 144.14 107.789 144.14C107.117 144.14 106.422 144 105.703 143.72L105.913 142.264L106.095 142.152C106.385 142.395 106.707 142.591 107.061 142.74C107.416 142.88 107.729 142.95 107.999 142.95C108.251 142.95 108.447 142.889 108.587 142.768C108.727 142.637 108.797 142.483 108.797 142.306C108.797 142.11 108.709 141.951 108.531 141.83C108.363 141.709 108.093 141.573 107.719 141.424C107.337 141.256 107.024 141.107 106.781 140.976C106.539 140.836 106.329 140.64 106.151 140.388C105.983 140.136 105.899 139.823 105.899 139.45C105.899 138.843 106.128 138.349 106.585 137.966C107.043 137.574 107.663 137.378 108.447 137.378ZM112.242 142.11C112.532 142.11 112.756 142.194 112.914 142.362C113.082 142.53 113.166 142.763 113.166 143.062C113.166 143.379 113.078 143.631 112.9 143.818C112.723 144.005 112.48 144.098 112.172 144.098C111.864 144.098 111.626 144.014 111.458 143.846C111.3 143.678 111.22 143.44 111.22 143.132C111.22 142.824 111.309 142.577 111.486 142.39C111.673 142.203 111.925 142.11 112.242 142.11Z" fill="white"/>
<defs>
<filter id="filter0_b_206:35995" x="3" y="67" width="161" height="97" filterUnits="userSpaceOnUse" color-interpolation-filters="sRGB">
<feFlood flood-opacity="0" result="BackgroundImageFix"/>
<feGaussianBlur in="BackgroundImage" stdDeviation="5"/>
<feComposite in2="SourceAlpha" operator="in" result="effect1_backgroundBlur_206:35995"/>
<feBlend mode="normal" in="SourceGraphic" in2="effect1_backgroundBlur_206:35995" result="shape"/>
</filter>
<linearGradient id="paint0_linear_206:35995" x1="94.4162" y1="39.2183" x2="94.1186" y2="41.16" gradientUnits="userSpaceOnUse">
<stop stop-color="#FEBBBA"/>
<stop offset="1" stop-color="#FF928E"/>
</linearGradient>
<linearGradient id="paint1_linear_206:35995" x1="109.597" y1="31.0825" x2="74.5795" y2="79.0783" gradientUnits="userSpaceOnUse">
<stop stop-color="#E1473D"/>
<stop offset="1" stop-color="#E9605A"/>
</linearGradient>
<linearGradient id="paint2_linear_206:35995" x1="101.444" y1="41.2027" x2="121.197" y2="-16.4206" gradientUnits="userSpaceOnUse">
<stop stop-color="#FF928E"/>
<stop offset="1" stop-color="#FE7062"/>
</linearGradient>
<linearGradient id="paint3_linear_206:35995" x1="16374.6" y1="41658.2" x2="18944.8" y2="41985" gradientUnits="userSpaceOnUse">
<stop stop-color="#FF928E"/>
<stop offset="1" stop-color="#FE7062"/>
</linearGradient>
<linearGradient id="paint4_linear_206:35995" x1="8890.31" y1="10217.8" x2="8850.47" y2="10510.9" gradientUnits="userSpaceOnUse">
<stop stop-color="#FEBBBA"/>
<stop offset="1" stop-color="#FF928E"/>
</linearGradient>
<linearGradient id="paint5_linear_206:35995" x1="53.4315" y1="38.7368" x2="103.939" y2="38.7368" gradientUnits="userSpaceOnUse">
<stop stop-color="#09005D"/>
<stop offset="1" stop-color="#1A0F91"/>
</linearGradient>
<linearGradient id="paint6_linear_206:35995" x1="6324.12" y1="3998.6" x2="6303.54" y2="4102.88" gradientUnits="userSpaceOnUse">
<stop stop-color="#FEBBBA"/>
<stop offset="1" stop-color="#FF928E"/>
</linearGradient>
<linearGradient id="paint7_linear_206:35995" x1="19334.3" y1="44330.3" x2="21914.9" y2="44330.3" gradientUnits="userSpaceOnUse">
<stop stop-color="#FEBBBA"/>
<stop offset="1" stop-color="#FF928E"/>
</linearGradient>
<linearGradient id="paint8_linear_206:35995" x1="36854.8" y1="105644" x2="41883.2" y2="105644" gradientUnits="userSpaceOnUse">
<stop stop-color="#FEBBBA"/>
<stop offset="1" stop-color="#FF928E"/>
</linearGradient>
<linearGradient id="paint9_linear_206:35995" x1="52855.6" y1="84259.1" x2="74363.3" y2="84259.1" gradientUnits="userSpaceOnUse">
<stop stop-color="#FEBBBA"/>
<stop offset="1" stop-color="#FF928E"/>
</linearGradient>
<linearGradient id="paint10_linear_206:35995" x1="11854" y1="8754.56" x2="16045.6" y2="8754.56" gradientUnits="userSpaceOnUse">
<stop stop-color="#09005D"/>
<stop offset="1" stop-color="#1A0F91"/>
</linearGradient>
<linearGradient id="paint11_linear_206:35995" x1="38256" y1="51106.3" x2="45788.5" y2="51106.3" gradientUnits="userSpaceOnUse">
<stop stop-color="#09005D"/>
<stop offset="1" stop-color="#1A0F91"/>
</linearGradient>
<linearGradient id="paint12_linear_206:35995" x1="-48882.9" y1="17660" x2="-54507.9" y2="28088.2" gradientUnits="userSpaceOnUse">
<stop stop-color="#FEBBBA"/>
<stop offset="1" stop-color="#FF928E"/>
</linearGradient>
<linearGradient id="paint13_linear_206:35995" x1="-29035.2" y1="33109.4" x2="-30137.7" y2="36805.8" gradientUnits="userSpaceOnUse">
<stop stop-color="#FEBBBA"/>
<stop offset="1" stop-color="#FF928E"/>
</linearGradient>
<linearGradient id="paint14_linear_206:35995" x1="-41825" y1="51342" x2="-38886.9" y2="49724.8" gradientUnits="userSpaceOnUse">
<stop stop-color="#09005D"/>
<stop offset="1" stop-color="#1A0F91"/>
</linearGradient>
<linearGradient id="paint15_linear_206:35995" x1="-11319.7" y1="13022.8" x2="-10999.1" y2="12165.4" gradientUnits="userSpaceOnUse">
<stop stop-color="#FEBBBA"/>
<stop offset="1" stop-color="#FF928E"/>
</linearGradient>
<linearGradient id="paint16_linear_206:35995" x1="14490.7" y1="67612.6" x2="22575.3" y2="56976.4" gradientUnits="userSpaceOnUse">
<stop stop-color="#FEBBBA"/>
<stop offset="1" stop-color="#FF928E"/>
</linearGradient>
<linearGradient id="paint17_linear_206:35995" x1="25534" y1="59285.2" x2="16267.2" y2="73202" gradientUnits="userSpaceOnUse">
<stop stop-color="#E1473D"/>
<stop offset="1" stop-color="#E9605A"/>
</linearGradient>
<linearGradient id="paint18_linear_206:35995" x1="19873.5" y1="-28095.8" x2="7238.34" y2="-12472" gradientUnits="userSpaceOnUse">
<stop stop-color="#FF928E"/>
<stop offset="1" stop-color="#FE7062"/>
</linearGradient>
<linearGradient id="paint19_linear_206:35995" x1="10715.3" y1="50347.1" x2="15140.8" y2="49221.3" gradientUnits="userSpaceOnUse">
<stop stop-color="#FEBBBA"/>
<stop offset="1" stop-color="#FF928E"/>
</linearGradient>
<linearGradient id="paint20_linear_206:35995" x1="13016.1" y1="6431.82" x2="13009.8" y2="6580.61" gradientUnits="userSpaceOnUse">
<stop stop-color="#09005D"/>
<stop offset="1" stop-color="#1A0F91"/>
</linearGradient>
<linearGradient id="paint21_linear_206:35995" x1="8545.61" y1="5183.47" x2="8539.75" y2="5264.13" gradientUnits="userSpaceOnUse">
<stop stop-color="#FEBBBA"/>
<stop offset="1" stop-color="#FF928E"/>
</linearGradient>
<linearGradient id="paint22_linear_206:35995" x1="9017.17" y1="47468.2" x2="9703.75" y2="47468.2" gradientUnits="userSpaceOnUse">
<stop stop-color="#09005D"/>
<stop offset="1" stop-color="#1A0F91"/>
</linearGradient>
<linearGradient id="paint23_linear_206:35995" x1="34421.3" y1="16352.7" x2="38110.1" y2="16352.7" gradientUnits="userSpaceOnUse">
<stop stop-color="#09005D"/>
<stop offset="1" stop-color="#1A0F91"/>
</linearGradient>
<linearGradient id="paint24_linear_206:35995" x1="289.582" y1="3269.08" x2="2402.25" y2="5439.04" gradientUnits="userSpaceOnUse">
<stop stop-color="#FF928E"/>
<stop offset="1" stop-color="#FE7062"/>
</linearGradient>
<linearGradient id="paint25_linear_206:35995" x1="300.882" y1="3341.58" x2="2467.14" y2="5545.61" gradientUnits="userSpaceOnUse">
<stop stop-color="#FF928E"/>
<stop offset="1" stop-color="#FE7062"/>
</linearGradient>
<linearGradient id="paint26_linear_206:35995" x1="4809.8" y1="544.605" x2="4826.55" y2="1228.01" gradientUnits="userSpaceOnUse">
<stop stop-color="#FF928E"/>
<stop offset="1" stop-color="#FE7062"/>
</linearGradient>
<linearGradient id="paint27_linear_206:35995" x1="4854.78" y1="548.155" x2="4871.56" y2="1235.84" gradientUnits="userSpaceOnUse">
<stop stop-color="#FF928E"/>
<stop offset="1" stop-color="#FE7062"/>
</linearGradient>
<linearGradient id="paint28_linear_206:35995" x1="7255.21" y1="2518.3" x2="7247.99" y2="2585.44" gradientUnits="userSpaceOnUse">
<stop stop-color="#FEBBBA"/>
<stop offset="1" stop-color="#FF928E"/>
</linearGradient>
<linearGradient id="paint29_linear_206:35995" x1="3113.01" y1="1793.14" x2="3112.54" y2="1776.46" gradientUnits="userSpaceOnUse">
<stop stop-color="#FEBBBA"/>
<stop offset="1" stop-color="#FF928E"/>
</linearGradient>
</defs>
</svg>
