<svg width="167" height="167" viewBox="0 0 167 167" fill="none" xmlns="http://www.w3.org/2000/svg">
<mask id="mask0_206:37352" style="mask-type:alpha" maskUnits="userSpaceOnUse" x="0" y="0" width="167" height="167">
<rect x="1" y="1" width="165" height="165" rx="8" fill="#5988D6" stroke="#EDE6FC" stroke-opacity="0.3"/>
</mask>
<g mask="url(#mask0_206:37352)">
<rect x="1" y="1" width="165" height="165" rx="8" fill="#D97A7A" stroke="#EDE6FC" stroke-opacity="0.3"/>
<path d="M114.303 144.988H101.051C100.954 144.972 100.859 144.944 100.769 144.905C99.8843 144.462 100.161 141.075 100.268 140.029C100.289 139.834 100.303 139.72 100.303 139.72C100.303 139.72 104.963 135.992 105.604 138.846C105.624 138.935 105.648 139.023 105.672 139.109C106.481 141.779 110.096 142.992 112.187 143.327C113.783 143.596 114.197 144.522 114.303 144.988Z" fill="#AA443E"/>
<path d="M106.948 139.67C106.948 139.67 101.071 141.439 99.3 139.859C99.3 139.859 83.814 112.743 85.0784 106.865C85.205 106.171 85.0784 105.285 84.636 104.148C81.7923 96.3722 66.6849 79.6228 69.2138 66.3488C70.4783 60.0276 88.4283 70.96 88.4283 70.96L92.4109 85.7495L106.948 139.67Z" fill="#35488B"/>
<path d="M90.5188 78.74L84.6319 104.152C81.7882 96.3763 66.6808 79.6269 69.2097 66.3529C70.4782 60.0276 88.4283 70.96 88.4283 70.96L90.5188 78.74Z" fill="#2C3A64"/>
<path d="M67.4204 28.8982C67.4204 28.8982 69.3248 34.6216 74.6336 34.6659C74.6336 34.6659 76.577 32.6689 77.2951 30.9106C77.3836 30.6946 77.47 30.4857 77.5534 30.2861C78.3703 28.3108 78.8826 27.2233 78.8826 27.2233C78.7077 27.0525 73.007 21.5308 72.9154 21.7705C70.8886 27.1801 67.4204 28.8982 67.4204 28.8982Z" fill="#FFB27D"/>
<path d="M73.0895 23.3168C73.2603 24.7983 74.5638 28.0834 77.5536 30.2861C78.3705 28.3108 78.8828 27.2233 78.8828 27.2233C78.71 27.0947 73.037 22.8796 73.0895 23.3168Z" fill="#ED975D"/>
<path d="M80.393 27.5875C80.393 27.5875 72.0049 26.3282 72.8691 21.1172C73.7333 15.9061 73.2323 12.2332 78.6244 12.8155C84.0165 13.3978 84.7243 15.5594 84.8591 17.3702C84.9939 19.1809 82.5967 27.7799 80.393 27.5875Z" fill="#FFB27D"/>
<path d="M72.6099 22.5277C72.4782 22.5534 70.6263 22.4012 69.9863 14.9287C69.8834 13.7559 70.3979 11.5079 72.2847 10.0932C74.1716 8.67859 78.8137 8.83086 82.4383 9.53664C86.0629 10.2424 86.1133 12.4606 86.1421 14.6808C86.1771 17.0132 87.9251 19.6192 87.9251 19.6192C84.3725 20.0822 81.7994 16.364 80.4352 16.2621C79.0709 16.1603 77.8806 17.899 77.5452 18.4751C77.2098 19.0513 76.8661 19.504 75.5605 18.3496C74.255 17.1953 74.0132 20.2386 74.0512 20.8559C74.0512 20.8559 73.7076 22.3158 72.6099 22.5277Z" fill="#35488B"/>
<path d="M85.5968 144.988H72.3434C72.2468 144.972 72.1525 144.944 72.0625 144.905C71.1777 144.462 71.4545 141.075 71.5615 140.029C71.581 139.834 71.5965 139.72 71.5965 139.72C71.5965 139.72 76.2561 135.992 76.897 138.846C76.9176 138.935 76.9413 139.023 76.9659 139.109C77.7746 141.779 81.3899 142.992 83.4805 143.327C85.0762 143.596 85.4898 144.522 85.5968 144.988Z" fill="#AA443E"/>
<path d="M63.0798 70.995C63.0798 70.995 66.3474 93.6756 67.2147 105.233C67.5625 109.863 66.6489 115.98 67.2147 121.713C68.0625 130.292 70.2765 139.661 70.2765 139.661C70.2765 139.661 74.8106 141.547 77.9794 139.661C77.9794 139.661 79.4732 113.272 79.2634 109.64C79.0535 106.008 83.8797 66.9198 82.8262 66.7325C81.7727 66.5453 63.0798 70.995 63.0798 70.995Z" fill="#35488B"/>
<path d="M89.5662 74.6288C88.8717 74.9457 86.7225 75.4519 83.814 75.956C76.7346 76.9684 65.6108 77.7894 63.7147 75.0084C62.2609 72.7954 60.1138 59.0173 58.4676 47.0715C58.1508 44.8585 57.8349 42.772 57.5828 40.8142C56.697 34.5568 61.122 28.5505 67.4432 28.8674C67.4432 28.8674 71.1089 31.46 74.2057 31.1431C75.9125 31.0166 77.0504 30.4477 77.7459 30.0042C81.033 30.5742 83.245 31.2697 83.816 32.0269C85.6473 34.3665 85.5805 52.5696 86.0949 58.1325C86.6587 63.6944 91.9047 73.4919 89.5662 74.6288Z" fill="#AFD295"/>
<path d="M67.4205 28.8982C67.4205 28.8982 60.8226 27.4496 57.4676 30.2861C54.1126 33.1226 47.1216 51.2805 48.5816 53.3772C48.8954 53.8279 53.059 54.2744 54.6393 53.3772C56.2196 52.4801 67.4205 28.8982 67.4205 28.8982Z" fill="#AFD295"/>
<path d="M83.8139 75.956C76.7345 76.9684 65.6107 77.7894 63.7146 75.0084C62.2608 72.7954 60.1137 59.0173 58.4675 47.0715C58.5303 46.7557 58.5941 46.5653 58.7196 46.4388C58.7196 46.4388 64.9142 51.6858 66.0521 56.4257C67.0017 60.7241 79.5164 73.6175 83.8139 75.956Z" fill="#88B374"/>
<path d="M97.3409 49.0932C97.3409 49.0932 94.6855 51.7486 93.6114 52.5069C93.5486 52.6962 93.4221 52.7599 93.3583 52.7599C93.229 52.7277 93.1024 52.6854 92.9797 52.6334C92.4735 52.4451 91.6525 51.8103 90.5773 50.8648C90.135 50.4852 89.6926 50.1056 89.1874 49.6621C88.0495 48.4625 86.7182 47.1343 85.5865 45.6805C83.7531 43.4686 82.1728 41.0652 81.7304 39.0436C80.5298 33.4879 83.8159 32.0269 83.8159 32.0269C83.8159 32.0269 91.0197 37.3377 97.3409 49.0932Z" fill="#AFD295"/>
<path d="M95.2514 47.8298C95.2514 47.8298 94.3028 51.5593 93.6053 52.5069C93.5425 52.6962 93.4159 52.76 93.3522 52.76C93.2228 52.7277 93.0963 52.6854 92.9736 52.6334C92.4735 52.3176 91.5887 51.6179 90.5774 50.8648C90.135 50.4852 89.6926 50.1056 89.1874 49.6621C88.0496 48.4625 85.2264 49.9132 85.532 45.6178C86.2265 44.8585 95.2514 47.8298 95.2514 47.8298Z" fill="#88B374"/>
<path d="M93.3862 52.7497C93.3862 52.7497 102.669 52.4534 111.855 45.6384L111.703 42.9716C111.703 42.9716 97.8843 45.5715 95.9809 46.6909C94.0776 47.8102 93.3862 52.7497 93.3862 52.7497Z" fill="#FFB27D"/>
<path d="M81.8622 47.5201C81.2702 47.8037 80.7048 48.1397 80.1728 48.5243C76.0503 51.2414 71.7096 52.0038 69.473 52.2178C67.4509 52.2094 65.4532 52.6597 63.6302 53.5347C57.0344 56.6829 54.201 64.4835 57.2875 70.9538C60.374 77.4242 68.2312 80.1176 74.8239 76.9663C77.0152 75.9254 78.8815 74.307 80.2222 72.2851C82.6811 69.2336 85.9837 67.9929 87.7913 67.5165C88.2316 67.4528 88.6676 67.3625 89.0969 67.2459H89.1175C89.7509 67.0739 90.3676 66.8452 90.9601 66.5628C96.3162 64.003 98.6218 57.6675 96.1094 52.4102C93.597 47.1528 87.2183 44.9604 81.8622 47.5201Z" fill="#9E3530"/>
<path d="M117.94 43.6815L82.2285 60.7457C81.8295 60.9352 81.3718 60.9589 80.9554 60.8118C80.5389 60.6647 80.1977 60.3587 80.0062 59.9607C79.8168 59.5618 79.793 59.104 79.9401 58.6876C80.0872 58.2712 80.3932 57.9299 80.7912 57.7385L116.503 40.6732C116.902 40.4838 117.36 40.46 117.776 40.6071C118.193 40.7542 118.534 41.0602 118.725 41.4582C118.915 41.8573 118.939 42.3153 118.792 42.732C118.645 43.1486 118.339 43.4901 117.94 43.6815Z" fill="#B5453C"/>
<path d="M68.8929 69.3139L68.8394 69.3396C68.6358 69.4346 68.4031 69.4457 68.1914 69.3707C67.9797 69.2956 67.8059 69.1403 67.7077 68.9383L65.3002 63.8971C65.2047 63.6936 65.1932 63.4606 65.2683 63.2488C65.3434 63.0369 65.4991 62.8632 65.7014 62.7653L65.7549 62.7396C65.9584 62.6441 66.1914 62.6326 66.4032 62.7078C66.6151 62.7829 66.7888 62.9385 66.8867 63.1409L69.2941 68.1822C69.3894 68.3857 69.4007 68.6185 69.3256 68.8303C69.2505 69.0421 69.0951 69.2158 68.8929 69.3139Z" fill="#B5453C"/>
<path d="M69.6973 64.8899C68.9184 63.2602 69.7034 61.2632 71.4463 60.4278C73.1891 59.5924 75.2416 60.2365 76.0205 61.8682C76.7993 63.4999 76.0133 65.4948 74.2653 66.3302C72.5173 67.1657 70.4751 66.5165 69.6973 64.8899Z" fill="#B5453C"/>
<path d="M117.826 43.6959L116.343 44.4058C115.918 44.6069 115.43 44.6317 114.987 44.4748C114.544 44.3179 114.18 43.9921 113.976 43.5683L113.419 42.4027C113.218 41.9775 113.194 41.4903 113.35 41.0472C113.507 40.604 113.833 40.2407 114.256 40.0364L115.74 39.3275C116.165 39.1267 116.652 39.102 117.095 39.2589C117.539 39.4157 117.902 39.7414 118.106 40.165L118.664 41.3306C118.864 41.7557 118.888 42.2426 118.731 42.6855C118.575 43.1285 118.249 43.4916 117.826 43.6959Z" fill="#B5453C"/>
<path d="M111.855 46.589C111.855 46.589 117.119 45.5972 117.119 44.9532C117.119 44.3091 116.502 42.3646 115.237 42.9665C113.971 43.5684 111.855 46.589 111.855 46.589Z" fill="#FFB27D"/>
<path d="M48.5815 53.3772C48.5815 53.3772 59.6538 61.9608 68.9288 63.0802L69.9741 60.1182C69.9741 60.1182 58.0952 51.3247 56.0375 50.7177C53.9798 50.1107 49.5034 51.3772 48.5815 53.3772Z" fill="#FFB27D"/>
<path d="M69.974 60.1182C69.974 60.1182 72.0543 59.7756 72.8609 59.0327C73.6675 58.2899 74.077 57.2107 74.077 57.2107C74.077 57.2107 74.5976 57.3959 74.5225 58.0656C74.4474 58.7354 73.7426 59.3301 74.077 59.5153C74.4114 59.7005 78.2036 57.7385 78.3899 58.6644C78.5761 59.5904 76.791 62.3322 76.0472 63.0802C75.3034 63.8281 68.9287 63.0802 68.9287 63.0802L69.974 60.1182Z" fill="#FFB27D"/>
</g>
</svg>
