<svg width="167" height="167" viewBox="0 0 167 167" fill="none" xmlns="http://www.w3.org/2000/svg">
<mask id="mask0_206:37294" style="mask-type:alpha" maskUnits="userSpaceOnUse" x="0" y="0" width="167" height="167">
<rect x="1" y="1" width="165" height="165" rx="8" fill="#5988D6" stroke="#EDE6FC" stroke-opacity="0.3"/>
</mask>
<g mask="url(#mask0_206:37294)">
<rect x="1" y="1" width="165" height="165" rx="8" fill="#FAE28B" stroke="#EDE6FC" stroke-opacity="0.3"/>
<path d="M62.673 59.4643C61.5498 55.0969 50.9647 48.8241 53.7276 44.4216C55.4775 41.6337 69.387 53.743 69.387 53.743C75.8103 52.2137 76.9084 41.7791 75.5946 36.474C73.8948 29.4842 72.1348 22.5294 71.3977 15.4493C71.3003 14.8006 71.2651 14.1441 71.2924 13.4888C71.3655 12.1837 71.5483 10.8871 71.839 9.61276C72.215 8.17368 73.3683 7.4767 74.8475 7.49174C75.4612 7.51828 76.0501 7.74112 76.5276 8.12746C77.0051 8.51381 77.346 9.04324 77.5001 9.63783C77.9313 11.2023 78.2221 12.8068 78.5731 14.3913C79.1247 16.8583 79.601 19.3404 80.2428 21.7773C81.1554 25.2271 82.2235 28.6368 83.1561 32.0815C83.462 33.2047 83.9082 34.1574 85.0364 34.5887C85.5645 34.7294 86.1055 34.8168 86.651 34.8494C86.7734 34.3577 86.8274 33.8515 86.8115 33.3451C86.3077 30.1014 86.0979 26.8188 86.1847 23.5373C86.2449 19.3905 86.5608 15.2437 86.8867 11.107C87.0307 9.61244 87.3367 8.13795 87.7993 6.70951C88.2205 5.33561 89.9705 4.46314 91.3343 4.73391C92.0544 4.88852 92.6983 5.28873 93.1557 5.86596C93.6131 6.4432 93.8555 7.16154 93.8414 7.89789C93.8414 10.1543 93.8013 12.4107 93.8916 14.6621C94.0069 17.4049 94.2727 20.1376 94.393 22.8754C94.4983 24.9563 94.5635 27.0422 94.5635 29.1282C94.5635 30.5572 94.388 31.9863 94.3429 33.4203C94.3335 33.8536 94.4587 34.2791 94.7011 34.6383C94.9436 34.9975 95.2914 35.2727 95.6967 35.426C96.7948 35.9676 97.0405 35.8021 97.2762 34.6137C97.6445 32.51 98.1198 30.4264 98.7002 28.371C99.1615 26.8667 100.074 25.533 100.666 24.0738C102.085 20.5638 103.424 17.0138 104.823 13.4938C105.039 12.9548 105.329 12.4485 105.685 11.9895C105.952 11.6458 106.294 11.3677 106.685 11.1764C107.077 10.9851 107.506 10.8857 107.941 10.8857C108.377 10.8857 108.806 10.9851 109.197 11.1764C109.588 11.3677 109.931 11.6458 110.198 11.9895C110.523 12.3547 110.753 12.7934 110.87 13.2678C110.988 13.7422 110.987 14.238 110.87 14.7122C110.694 15.3942 110.559 16.0861 110.368 16.7631C109.666 19.0596 108.939 21.3511 108.232 23.6476C107.355 26.5057 106.527 29.3739 105.59 32.2119C104.968 34.1023 104.176 35.9325 103.504 37.8078C103.251 38.3315 103.144 38.9133 103.193 39.4926C103.302 39.9035 103.517 40.2784 103.818 40.5792C104.118 40.88 104.493 41.096 104.903 41.2055C105.314 41.3149 105.747 41.3138 106.157 41.2023C106.567 41.0909 106.941 40.8729 107.239 40.5706C108.593 39.2068 109.912 37.8128 111.251 36.4339C113.818 33.7457 116.196 30.8824 118.366 27.8646C118.861 27.2052 119.407 26.5865 120.001 26.0143C120.42 25.5671 120.977 25.2744 121.583 25.1834C122.189 25.0924 122.808 25.2085 123.34 25.5129C123.872 25.8223 124.28 26.3053 124.498 26.8805C124.715 27.4558 124.728 28.0883 124.534 28.6719C124.154 29.8536 123.65 30.9916 123.029 32.0665C120.47 36.3121 117.506 40.3003 114.179 43.9753C112.966 45.2729 111.953 46.743 111.171 48.3377C109.862 51.2159 109.255 54.3548 108.664 57.4435C108.136 60.3583 107.433 63.2384 106.558 66.068C105.956 67.9032 104.767 69.5479 103.88 71.2929C102.506 74.0056 101.102 76.6932 98.9861 78.9295C98.7581 79.1828 98.5871 79.482 98.4846 79.807C98.0785 81.0455 98.1888 82.6651 97.908 83.9337C97.5214 85.3867 97.3011 86.8787 97.2511 88.3814C97.1495 92.4401 96.8332 96.4905 96.3034 100.516C95.9123 103.815 95.9173 105.455 95.5162 108.067C94.8894 112.199 94.4482 116.591 93.7211 120.693C93.3801 122.619 93.2197 124.634 92.9339 126.58C92.6731 128.41 92.3472 129.894 92.282 131.288C92.0855 133.619 69.8884 253.073 69.387 255.357L39.7529 255.402C39.7529 255.402 73.604 91.44 74.2207 88.7675C75.008 85.3227 75.6949 81.8528 76.3167 78.373C76.5524 77.0693 76.7579 76.1767 76.5975 75.4246C71.6434 75.3544 63.7811 63.7815 62.673 59.4643Z" fill="url(#paint0_linear_206:37294)"/>
<path d="M117.166 71.5188L114.701 66.5899L119.22 63.7147L117.166 58.3751L121.684 54.8839L119.22 48.7228L124.559 47.4906L122.711 41.1241L128.05 39.4812V33.3201" stroke="#AD9335" stroke-width="2"/>
<path d="M55.9656 73.5726L57.1979 65.3578H51.4476V58.1698L46.3132 55.5L47.9563 48.1067M60.0731 12.5778L66.4396 16.8905L61.9214 21.8194L68.2879 25.7214L64.7966 31.6772L68.2879 33.5255L66.4396 38.0436" stroke="#AD9335" stroke-width="2"/>
</g>
<g filter="url(#filter0_b_206:37294)">
<rect x="13" y="77" width="141" height="77" rx="10" fill="black" fill-opacity="0.8"/>
</g>
<path d="M34.1423 94.872C34.9077 94.872 35.6683 95.026 36.4243 95.334L36.1163 96.972L35.8363 97.084C35.519 96.86 35.1877 96.6827 34.8423 96.552C34.5063 96.4213 34.1983 96.356 33.9183 96.356C33.545 96.356 33.2463 96.4587 33.0223 96.664C32.7983 96.86 32.6863 97.0887 32.6863 97.35C32.6863 97.6207 32.8077 97.8493 33.0503 98.036C33.3023 98.2227 33.6943 98.442 34.2263 98.694C34.7397 98.9273 35.155 99.1467 35.4723 99.352C35.799 99.548 36.0743 99.8093 36.2983 100.136C36.5317 100.463 36.6483 100.864 36.6483 101.34C36.6483 101.853 36.5083 102.325 36.2283 102.754C35.9483 103.174 35.5517 103.51 35.0383 103.762C34.525 104.005 33.9323 104.126 33.2603 104.126C32.3737 104.126 31.4823 103.935 30.5863 103.552L30.8523 101.788L31.0623 101.676C31.4357 102.003 31.8417 102.255 32.2803 102.432C32.7283 102.6 33.125 102.684 33.4703 102.684C33.881 102.684 34.1983 102.586 34.4223 102.39C34.6557 102.185 34.7723 101.942 34.7723 101.662C34.7723 101.363 34.6463 101.121 34.3943 100.934C34.1517 100.747 33.755 100.523 33.2043 100.262C32.7003 100.038 32.2897 99.828 31.9723 99.632C31.655 99.436 31.3843 99.1747 31.1603 98.848C30.9363 98.5213 30.8243 98.1247 30.8243 97.658C30.8243 97.1353 30.9643 96.664 31.2443 96.244C31.5243 95.8147 31.9163 95.4787 32.4203 95.236C32.9243 94.9933 33.4983 94.872 34.1423 94.872ZM38.105 101.312L38.035 97.616L39.869 97.462L39.785 101.13L39.869 104H38.007L38.105 101.312ZM38.987 94.298C39.2763 94.298 39.5003 94.382 39.659 94.55C39.827 94.718 39.911 94.9513 39.911 95.25C39.911 95.5673 39.8223 95.8193 39.645 96.006C39.4677 96.1927 39.225 96.286 38.917 96.286C38.609 96.286 38.371 96.202 38.203 96.034C38.0443 95.866 37.965 95.628 37.965 95.32C37.965 95.012 38.0537 94.7647 38.231 94.578C38.4177 94.3913 38.6697 94.298 38.987 94.298ZM45.6334 99.94C45.6427 99.6133 45.5681 99.3613 45.4094 99.184C45.2601 98.9973 45.0407 98.904 44.7514 98.904C44.3314 98.904 43.8834 99.1047 43.4074 99.506V101.13L43.4914 104H41.6294L41.7274 101.312L41.6574 97.616L43.4214 97.462V98.414H43.5194C44.0327 97.9473 44.5927 97.6113 45.1994 97.406C45.9087 97.406 46.4501 97.5693 46.8234 97.896C47.1967 98.2133 47.3741 98.6753 47.3554 99.282L47.3134 101.144L47.3974 104H45.5214L45.6334 99.94ZM51.6715 102.628C51.9702 102.628 52.2829 102.549 52.6095 102.39L52.7635 102.53L52.5815 103.636C52.1055 103.879 51.6202 104.028 51.1255 104.084C49.8655 103.953 49.2355 103.337 49.2355 102.236L49.3055 101.074L49.2915 98.666H48.4235L48.3535 98.568L48.4515 97.546H49.2775V96.468L50.9715 95.922L51.0975 96.034L51.0555 97.546H52.7215L52.7775 97.644L52.6935 98.666H51.0275L50.9435 101.802C50.9435 102.101 50.9995 102.315 51.1115 102.446C51.2235 102.567 51.4102 102.628 51.6715 102.628ZM56.3763 97.364C57.3283 97.364 58.0563 97.644 58.5603 98.204C59.0643 98.764 59.3163 99.5713 59.3163 100.626C59.3163 101.765 59.0456 102.637 58.5043 103.244C57.963 103.841 57.1836 104.14 56.1663 104.14C55.2143 104.14 54.4863 103.86 53.9823 103.3C53.4783 102.74 53.2263 101.933 53.2263 100.878C53.2263 99.7393 53.497 98.8713 54.0383 98.274C54.5796 97.6673 55.359 97.364 56.3763 97.364ZM56.2503 98.624C55.8023 98.624 55.4756 98.7733 55.2703 99.072C55.0743 99.3707 54.9763 99.8513 54.9763 100.514C54.9763 101.373 55.079 101.984 55.2843 102.348C55.4896 102.712 55.8256 102.894 56.2923 102.894C56.7403 102.894 57.0623 102.749 57.2583 102.46C57.4636 102.161 57.5663 101.676 57.5663 101.004C57.5663 100.155 57.459 99.548 57.2443 99.184C57.039 98.8107 56.7076 98.624 56.2503 98.624ZM68.3083 104L68.4203 99.94C68.4203 99.2493 68.1263 98.904 67.5383 98.904C67.1183 98.904 66.6796 99.0907 66.2223 99.464L66.1803 101.144L66.2643 104H64.4023L64.5143 99.94C64.5236 99.604 64.4489 99.3473 64.2903 99.17C64.1409 98.9927 63.9216 98.904 63.6323 98.904C63.2216 98.904 62.7689 99.1 62.2743 99.492V101.13L62.3583 104H60.5103L60.6083 101.312L60.5383 97.616L62.2883 97.462V98.414H62.3863C62.8996 97.9473 63.4643 97.6113 64.0803 97.406C65.1256 97.406 65.7929 97.756 66.0823 98.456H66.1663C66.6983 97.9613 67.3049 97.6113 67.9863 97.406C68.6956 97.406 69.2323 97.5693 69.5963 97.896C69.9696 98.2133 70.1469 98.6753 70.1283 99.282L70.0863 101.144L70.1703 104H68.3083ZM74.3652 97.364C75.0839 97.364 75.6439 97.5273 76.0452 97.854C76.4559 98.1713 76.6612 98.6193 76.6612 99.198C76.6612 99.366 76.6332 99.898 76.5772 100.794C76.5679 101.055 76.5539 101.326 76.5352 101.606C76.5166 101.877 76.5072 102.11 76.5072 102.306C76.5072 102.465 76.5306 102.577 76.5772 102.642C76.6239 102.698 76.7079 102.726 76.8292 102.726C76.9226 102.726 77.0439 102.707 77.1932 102.67L77.3332 102.782L77.1652 103.762C76.8666 103.958 76.5259 104.075 76.1432 104.112C75.8632 104.084 75.6299 103.986 75.4432 103.818C75.2566 103.641 75.1306 103.398 75.0652 103.09H74.9672C74.5006 103.585 74.0199 103.93 73.5252 104.126C72.8532 104.117 72.3259 103.939 71.9432 103.594C71.5606 103.249 71.3692 102.777 71.3692 102.18C71.3692 101.713 71.4859 101.349 71.7192 101.088C71.9619 100.817 72.3259 100.635 72.8112 100.542L74.9532 100.136V99.562C74.9532 98.9553 74.6546 98.652 74.0572 98.652C73.7679 98.652 73.4599 98.7173 73.1332 98.848C72.8159 98.9787 72.4566 99.184 72.0552 99.464L71.9152 99.38L71.7052 98.148C72.1066 97.896 72.5359 97.7047 72.9932 97.574C73.4506 97.434 73.9079 97.364 74.3652 97.364ZM73.4552 101.396C73.3059 101.433 73.1939 101.499 73.1192 101.592C73.0539 101.676 73.0212 101.807 73.0212 101.984C73.0212 102.227 73.0866 102.418 73.2172 102.558C73.3479 102.689 73.5299 102.754 73.7632 102.754C74.1272 102.754 74.5099 102.539 74.9112 102.11L74.9392 101.074L73.4552 101.396ZM80.7275 97.378C81.3621 97.378 81.9595 97.4853 82.5195 97.7L82.2675 99.072L82.0435 99.142C81.7728 98.9647 81.5021 98.8293 81.2315 98.736C80.9608 98.6427 80.7228 98.596 80.5175 98.596C80.2935 98.596 80.1161 98.6567 79.9855 98.778C79.8548 98.89 79.7895 99.03 79.7895 99.198C79.7895 99.394 79.8735 99.5527 80.0415 99.674C80.2188 99.7953 80.4941 99.9307 80.8675 100.08C81.2408 100.229 81.5488 100.374 81.7915 100.514C82.0341 100.654 82.2395 100.85 82.4075 101.102C82.5848 101.345 82.6735 101.648 82.6735 102.012C82.6735 102.385 82.5755 102.735 82.3795 103.062C82.1928 103.379 81.9035 103.641 81.5115 103.846C81.1195 104.042 80.6388 104.14 80.0695 104.14C79.3975 104.14 78.7021 104 77.9835 103.72L78.1935 102.264L78.3755 102.152C78.6648 102.395 78.9868 102.591 79.3415 102.74C79.6961 102.88 80.0088 102.95 80.2795 102.95C80.5315 102.95 80.7275 102.889 80.8675 102.768C81.0075 102.637 81.0775 102.483 81.0775 102.306C81.0775 102.11 80.9888 101.951 80.8115 101.83C80.6435 101.709 80.3728 101.573 79.9995 101.424C79.6168 101.256 79.3041 101.107 79.0615 100.976C78.8188 100.836 78.6088 100.64 78.4315 100.388C78.2635 100.136 78.1795 99.8233 78.1795 99.45C78.1795 98.8433 78.4081 98.3487 78.8655 97.966C79.3228 97.574 79.9435 97.378 80.7275 97.378ZM88.7096 97.364C89.0176 97.364 89.321 97.3967 89.6196 97.462C89.9276 97.518 90.1983 97.602 90.4316 97.714L90.1236 99.198L89.9696 99.268C89.4936 99.0067 89.069 98.876 88.6956 98.876C88.2663 98.876 87.935 99.03 87.7016 99.338C87.4683 99.646 87.3516 100.085 87.3516 100.654C87.3516 101.307 87.4776 101.807 87.7296 102.152C87.9816 102.497 88.341 102.67 88.8076 102.67C89.2276 102.67 89.6943 102.553 90.2076 102.32L90.3476 102.432L90.1656 103.874C89.6056 104.051 89.0316 104.14 88.4436 104.14C87.5476 104.14 86.8476 103.851 86.3436 103.272C85.8396 102.684 85.5876 101.867 85.5876 100.822C85.5876 99.7393 85.863 98.8947 86.4136 98.288C86.9643 97.672 87.7296 97.364 88.7096 97.364ZM94.1244 97.364C95.0764 97.364 95.8044 97.644 96.3084 98.204C96.8124 98.764 97.0644 99.5713 97.0644 100.626C97.0644 101.765 96.7937 102.637 96.2524 103.244C95.711 103.841 94.9317 104.14 93.9144 104.14C92.9624 104.14 92.2344 103.86 91.7304 103.3C91.2264 102.74 90.9744 101.933 90.9744 100.878C90.9744 99.7393 91.245 98.8713 91.7864 98.274C92.3277 97.6673 93.107 97.364 94.1244 97.364ZM93.9984 98.624C93.5504 98.624 93.2237 98.7733 93.0184 99.072C92.8224 99.3707 92.7244 99.8513 92.7244 100.514C92.7244 101.373 92.827 101.984 93.0324 102.348C93.2377 102.712 93.5737 102.894 94.0404 102.894C94.4884 102.894 94.8104 102.749 95.0064 102.46C95.2117 102.161 95.3144 101.676 95.3144 101.004C95.3144 100.155 95.207 99.548 94.9924 99.184C94.787 98.8107 94.4557 98.624 93.9984 98.624ZM101.856 97.476C101.94 97.476 102.057 97.4853 102.206 97.504V99.226L102.01 99.296C101.852 99.2307 101.679 99.198 101.492 99.198C100.951 99.198 100.461 99.548 100.022 100.248V101.13L100.12 104H98.2583L98.3703 101.312L98.2863 97.616L100.05 97.462L100.036 98.736H100.148C100.606 97.896 101.175 97.476 101.856 97.476ZM106.569 97.406C107.381 97.406 108.007 97.6813 108.445 98.232C108.884 98.7827 109.103 99.562 109.103 100.57C109.103 101.709 108.819 102.591 108.249 103.216C107.689 103.832 106.896 104.14 105.869 104.14C105.571 104.14 105.258 104.112 104.931 104.056L104.973 106.59H103.125L103.223 101.312L103.139 97.616L104.917 97.462L104.903 98.414H105.001C105.263 98.162 105.515 97.9613 105.757 97.812C106 97.6533 106.271 97.518 106.569 97.406ZM105.883 102.922C106.369 102.922 106.737 102.749 106.989 102.404C107.241 102.059 107.367 101.55 107.367 100.878C107.367 100.225 107.26 99.7347 107.045 99.408C106.84 99.072 106.532 98.904 106.121 98.904C105.72 98.904 105.314 99.1047 104.903 99.506L104.889 101.13L104.917 102.712C105.253 102.852 105.575 102.922 105.883 102.922ZM113.074 97.364C114.026 97.364 114.754 97.644 115.258 98.204C115.762 98.764 116.014 99.5713 116.014 100.626C116.014 101.765 115.743 102.637 115.202 103.244C114.66 103.841 113.881 104.14 112.864 104.14C111.912 104.14 111.184 103.86 110.68 103.3C110.176 102.74 109.924 101.933 109.924 100.878C109.924 99.7393 110.194 98.8713 110.736 98.274C111.277 97.6673 112.056 97.364 113.074 97.364ZM112.948 98.624C112.5 98.624 112.173 98.7733 111.968 99.072C111.772 99.3707 111.674 99.8513 111.674 100.514C111.674 101.373 111.776 101.984 111.982 102.348C112.187 102.712 112.523 102.894 112.99 102.894C113.438 102.894 113.76 102.749 113.956 102.46C114.161 102.161 114.264 101.676 114.264 101.004C114.264 100.155 114.156 99.548 113.942 99.184C113.736 98.8107 113.405 98.624 112.948 98.624ZM120.806 97.476C120.89 97.476 121.006 97.4853 121.156 97.504V99.226L120.96 99.296C120.801 99.2307 120.628 99.198 120.442 99.198C119.9 99.198 119.41 99.548 118.972 100.248V101.13L119.07 104H117.208L117.32 101.312L117.236 97.616L119 97.462L118.986 98.736H119.098C119.555 97.896 120.124 97.476 120.806 97.476ZM124.5 97.364C125.219 97.364 125.779 97.5273 126.18 97.854C126.591 98.1713 126.796 98.6193 126.796 99.198C126.796 99.366 126.768 99.898 126.712 100.794C126.703 101.055 126.689 101.326 126.67 101.606C126.651 101.877 126.642 102.11 126.642 102.306C126.642 102.465 126.665 102.577 126.712 102.642C126.759 102.698 126.843 102.726 126.964 102.726C127.057 102.726 127.179 102.707 127.328 102.67L127.468 102.782L127.3 103.762C127.001 103.958 126.661 104.075 126.278 104.112C125.998 104.084 125.765 103.986 125.578 103.818C125.391 103.641 125.265 103.398 125.2 103.09H125.102C124.635 103.585 124.155 103.93 123.66 104.126C122.988 104.117 122.461 103.939 122.078 103.594C121.695 103.249 121.504 102.777 121.504 102.18C121.504 101.713 121.621 101.349 121.854 101.088C122.097 100.817 122.461 100.635 122.946 100.542L125.088 100.136V99.562C125.088 98.9553 124.789 98.652 124.192 98.652C123.903 98.652 123.595 98.7173 123.268 98.848C122.951 98.9787 122.591 99.184 122.19 99.464L122.05 99.38L121.84 98.148C122.241 97.896 122.671 97.7047 123.128 97.574C123.585 97.434 124.043 97.364 124.5 97.364ZM123.59 101.396C123.441 101.433 123.329 101.499 123.254 101.592C123.189 101.676 123.156 101.807 123.156 101.984C123.156 102.227 123.221 102.418 123.352 102.558C123.483 102.689 123.665 102.754 123.898 102.754C124.262 102.754 124.645 102.539 125.046 102.11L125.074 101.074L123.59 101.396ZM128.804 101.312L128.734 97.616L130.568 97.462L130.484 101.13L130.568 104H128.706L128.804 101.312ZM129.686 94.298C129.976 94.298 130.2 94.382 130.358 94.55C130.526 94.718 130.61 94.9513 130.61 95.25C130.61 95.5673 130.522 95.8193 130.344 96.006C130.167 96.1927 129.924 96.286 129.616 96.286C129.308 96.286 129.07 96.202 128.902 96.034C128.744 95.866 128.664 95.628 128.664 95.32C128.664 95.012 128.753 94.7647 128.93 94.578C129.117 94.3913 129.369 94.298 129.686 94.298ZM134.513 97.378C135.147 97.378 135.745 97.4853 136.305 97.7L136.053 99.072L135.829 99.142C135.558 98.9647 135.287 98.8293 135.017 98.736C134.746 98.6427 134.508 98.596 134.303 98.596C134.079 98.596 133.901 98.6567 133.771 98.778C133.64 98.89 133.575 99.03 133.575 99.198C133.575 99.394 133.659 99.5527 133.827 99.674C134.004 99.7953 134.279 99.9307 134.653 100.08C135.026 100.229 135.334 100.374 135.577 100.514C135.819 100.654 136.025 100.85 136.193 101.102C136.37 101.345 136.459 101.648 136.459 102.012C136.459 102.385 136.361 102.735 136.165 103.062C135.978 103.379 135.689 103.641 135.297 103.846C134.905 104.042 134.424 104.14 133.855 104.14C133.183 104.14 132.487 104 131.769 103.72L131.979 102.264L132.161 102.152C132.45 102.395 132.772 102.591 133.127 102.74C133.481 102.88 133.794 102.95 134.065 102.95C134.317 102.95 134.513 102.889 134.653 102.768C134.793 102.637 134.863 102.483 134.863 102.306C134.863 102.11 134.774 101.951 134.597 101.83C134.429 101.709 134.158 101.573 133.785 101.424C133.402 101.256 133.089 101.107 132.847 100.976C132.604 100.836 132.394 100.64 132.217 100.388C132.049 100.136 131.965 99.8233 131.965 99.45C131.965 98.8433 132.193 98.3487 132.651 97.966C133.108 97.574 133.729 97.378 134.513 97.378ZM28.8927 113.406C29.7047 113.406 30.3301 113.681 30.7687 114.232C31.2074 114.783 31.4267 115.562 31.4267 116.57C31.4267 117.709 31.1421 118.591 30.5727 119.216C30.0127 119.832 29.2194 120.14 28.1927 120.14C27.8941 120.14 27.5814 120.112 27.2547 120.056L27.2967 122.59H25.4487L25.5467 117.312L25.4627 113.616L27.2407 113.462L27.2267 114.414H27.3247C27.5861 114.162 27.8381 113.961 28.0807 113.812C28.3234 113.653 28.5941 113.518 28.8927 113.406ZM28.2067 118.922C28.6921 118.922 29.0607 118.749 29.3127 118.404C29.5647 118.059 29.6907 117.55 29.6907 116.878C29.6907 116.225 29.5834 115.735 29.3687 115.408C29.1634 115.072 28.8554 114.904 28.4447 114.904C28.0434 114.904 27.6374 115.105 27.2267 115.506L27.2127 117.13L27.2407 118.712C27.5767 118.852 27.8987 118.922 28.2067 118.922ZM35.3968 113.364C36.3488 113.364 37.0768 113.644 37.5808 114.204C38.0848 114.764 38.3368 115.571 38.3368 116.626C38.3368 117.765 38.0662 118.637 37.5248 119.244C36.9835 119.841 36.2042 120.14 35.1868 120.14C34.2348 120.14 33.5068 119.86 33.0028 119.3C32.4988 118.74 32.2468 117.933 32.2468 116.878C32.2468 115.739 32.5175 114.871 33.0588 114.274C33.6002 113.667 34.3795 113.364 35.3968 113.364ZM35.2708 114.624C34.8228 114.624 34.4962 114.773 34.2908 115.072C34.0948 115.371 33.9968 115.851 33.9968 116.514C33.9968 117.373 34.0995 117.984 34.3048 118.348C34.5102 118.712 34.8462 118.894 35.3128 118.894C35.7608 118.894 36.0828 118.749 36.2788 118.46C36.4842 118.161 36.5868 117.676 36.5868 117.004C36.5868 116.155 36.4795 115.548 36.2648 115.184C36.0595 114.811 35.7282 114.624 35.2708 114.624ZM45.0448 117.13L45.0868 118.306C45.0868 118.465 45.1055 118.577 45.1428 118.642C45.1895 118.698 45.2688 118.726 45.3808 118.726C45.4835 118.726 45.6095 118.707 45.7588 118.67L45.8848 118.782L45.7308 119.762C45.4135 119.958 45.0681 120.075 44.6948 120.112C44.4055 120.084 44.1628 119.986 43.9668 119.818C43.7708 119.65 43.6355 119.421 43.5608 119.132H43.4488C42.9915 119.552 42.5248 119.874 42.0488 120.098C41.1341 120.098 40.4248 119.809 39.9208 119.23C39.4168 118.642 39.1648 117.83 39.1648 116.794C39.1648 115.693 39.4541 114.848 40.0328 114.26C40.6115 113.672 41.4141 113.378 42.4408 113.378C42.7115 113.378 43.0101 113.406 43.3368 113.462L43.3088 110.312L45.1568 110.172L45.0448 117.13ZM42.3148 114.638C41.3815 114.638 40.9148 115.231 40.9148 116.416C40.9148 117.153 41.0268 117.709 41.2508 118.082C41.4748 118.455 41.8015 118.642 42.2308 118.642C42.6415 118.642 43.0195 118.451 43.3648 118.068L43.3928 117.298L43.3508 114.89C42.9868 114.722 42.6415 114.638 42.3148 114.638ZM52.0219 116.976L48.2419 117.004C48.3259 118.171 48.9186 118.754 50.0199 118.754C50.5986 118.754 51.2426 118.591 51.9519 118.264L52.1059 118.362L51.8259 119.748C51.1166 120.009 50.4493 120.14 49.8239 120.14C48.7973 120.14 47.9899 119.841 47.4019 119.244C46.8233 118.647 46.5339 117.821 46.5339 116.766C46.5339 115.721 46.8186 114.895 47.3879 114.288C47.9573 113.672 48.7273 113.364 49.6979 113.364C50.5286 113.364 51.1679 113.593 51.6159 114.05C52.0733 114.498 52.3019 115.128 52.3019 115.94C52.3019 116.155 52.2786 116.425 52.2319 116.752L52.0219 116.976ZM50.6779 115.73C50.6779 115.357 50.5939 115.077 50.4259 114.89C50.2579 114.694 50.0106 114.596 49.6839 114.596C49.3199 114.596 49.0166 114.717 48.7739 114.96C48.5313 115.193 48.3679 115.534 48.2839 115.982L50.6499 115.926L50.6779 115.73ZM61.3834 120L61.4954 115.94C61.4954 115.249 61.2014 114.904 60.6134 114.904C60.1934 114.904 59.7548 115.091 59.2974 115.464L59.2554 117.144L59.3394 120H57.4774L57.5894 115.94C57.5988 115.604 57.5241 115.347 57.3654 115.17C57.2161 114.993 56.9968 114.904 56.7074 114.904C56.2968 114.904 55.8441 115.1 55.3494 115.492V117.13L55.4334 120H53.5854L53.6834 117.312L53.6134 113.616L55.3634 113.462V114.414H55.4614C55.9748 113.947 56.5394 113.611 57.1554 113.406C58.2008 113.406 58.8681 113.756 59.1574 114.456H59.2414C59.7734 113.961 60.3801 113.611 61.0614 113.406C61.7708 113.406 62.3074 113.569 62.6714 113.896C63.0448 114.213 63.2221 114.675 63.2034 115.282L63.1614 117.144L63.2454 120H61.3834ZM67.1236 117.312L67.0536 113.616L68.8876 113.462L68.8036 117.13L68.8876 120H67.0256L67.1236 117.312ZM68.0056 110.298C68.2949 110.298 68.5189 110.382 68.6776 110.55C68.8456 110.718 68.9296 110.951 68.9296 111.25C68.9296 111.567 68.8409 111.819 68.6636 112.006C68.4862 112.193 68.2436 112.286 67.9356 112.286C67.6276 112.286 67.3896 112.202 67.2216 112.034C67.0629 111.866 66.9836 111.628 66.9836 111.32C66.9836 111.012 67.0722 110.765 67.2496 110.578C67.4362 110.391 67.6882 110.298 68.0056 110.298ZM74.6519 115.94C74.6613 115.613 74.5866 115.361 74.4279 115.184C74.2786 114.997 74.0593 114.904 73.7699 114.904C73.3499 114.904 72.9019 115.105 72.4259 115.506V117.13L72.5099 120H70.6479L70.7459 117.312L70.6759 113.616L72.4399 113.462V114.414H72.5379C73.0513 113.947 73.6113 113.611 74.2179 113.406C74.9273 113.406 75.4686 113.569 75.8419 113.896C76.2153 114.213 76.3926 114.675 76.3739 115.282L76.3319 117.144L76.4159 120H74.5399L74.6519 115.94ZM83.4901 117.13L83.5321 118.306C83.5321 118.465 83.5508 118.577 83.5881 118.642C83.6348 118.698 83.7141 118.726 83.8261 118.726C83.9288 118.726 84.0548 118.707 84.2041 118.67L84.3301 118.782L84.1761 119.762C83.8588 119.958 83.5134 120.075 83.1401 120.112C82.8508 120.084 82.6081 119.986 82.4121 119.818C82.2161 119.65 82.0808 119.421 82.0061 119.132H81.8941C81.4368 119.552 80.9701 119.874 80.4941 120.098C79.5794 120.098 78.8701 119.809 78.3661 119.23C77.8621 118.642 77.6101 117.83 77.6101 116.794C77.6101 115.693 77.8994 114.848 78.4781 114.26C79.0568 113.672 79.8594 113.378 80.8861 113.378C81.1568 113.378 81.4554 113.406 81.7821 113.462L81.7541 110.312L83.6021 110.172L83.4901 117.13ZM80.7601 114.638C79.8268 114.638 79.3601 115.231 79.3601 116.416C79.3601 117.153 79.4721 117.709 79.6961 118.082C79.9201 118.455 80.2468 118.642 80.6761 118.642C81.0868 118.642 81.4648 118.451 81.8101 118.068L81.8381 117.298L81.7961 114.89C81.4321 114.722 81.0868 114.638 80.7601 114.638ZM85.5532 117.312L85.4832 113.616L87.3172 113.462L87.2332 117.13L87.3172 120H85.4552L85.5532 117.312ZM86.4352 110.298C86.7246 110.298 86.9486 110.382 87.1072 110.55C87.2752 110.718 87.3592 110.951 87.3592 111.25C87.3592 111.567 87.2706 111.819 87.0932 112.006C86.9159 112.193 86.6732 112.286 86.3652 112.286C86.0572 112.286 85.8192 112.202 85.6512 112.034C85.4926 111.866 85.4132 111.628 85.4132 111.32C85.4132 111.012 85.5019 110.765 85.6792 110.578C85.8659 110.391 86.1179 110.298 86.4352 110.298ZM91.7516 113.364C92.0596 113.364 92.363 113.397 92.6616 113.462C92.9696 113.518 93.2403 113.602 93.4736 113.714L93.1656 115.198L93.0116 115.268C92.5356 115.007 92.111 114.876 91.7376 114.876C91.3083 114.876 90.977 115.03 90.7436 115.338C90.5103 115.646 90.3936 116.085 90.3936 116.654C90.3936 117.307 90.5196 117.807 90.7716 118.152C91.0236 118.497 91.383 118.67 91.8496 118.67C92.2696 118.67 92.7363 118.553 93.2496 118.32L93.3896 118.432L93.2076 119.874C92.6476 120.051 92.0736 120.14 91.4856 120.14C90.5896 120.14 89.8896 119.851 89.3856 119.272C88.8816 118.684 88.6296 117.867 88.6296 116.822C88.6296 115.739 88.905 114.895 89.4556 114.288C90.0063 113.672 90.7716 113.364 91.7516 113.364ZM96.8896 113.364C97.6083 113.364 98.1683 113.527 98.5696 113.854C98.9803 114.171 99.1856 114.619 99.1856 115.198C99.1856 115.366 99.1576 115.898 99.1016 116.794C99.0923 117.055 99.0783 117.326 99.0596 117.606C99.041 117.877 99.0316 118.11 99.0316 118.306C99.0316 118.465 99.055 118.577 99.1016 118.642C99.1483 118.698 99.2323 118.726 99.3536 118.726C99.447 118.726 99.5683 118.707 99.7176 118.67L99.8576 118.782L99.6896 119.762C99.391 119.958 99.0503 120.075 98.6676 120.112C98.3876 120.084 98.1543 119.986 97.9676 119.818C97.781 119.641 97.655 119.398 97.5896 119.09H97.4916C97.025 119.585 96.5443 119.93 96.0496 120.126C95.3776 120.117 94.8503 119.939 94.4676 119.594C94.085 119.249 93.8936 118.777 93.8936 118.18C93.8936 117.713 94.0103 117.349 94.2436 117.088C94.4863 116.817 94.8503 116.635 95.3356 116.542L97.4776 116.136V115.562C97.4776 114.955 97.179 114.652 96.5816 114.652C96.2923 114.652 95.9843 114.717 95.6576 114.848C95.3403 114.979 94.981 115.184 94.5796 115.464L94.4396 115.38L94.2296 114.148C94.631 113.896 95.0603 113.705 95.5176 113.574C95.975 113.434 96.4323 113.364 96.8896 113.364ZM95.9796 117.396C95.8303 117.433 95.7183 117.499 95.6436 117.592C95.5783 117.676 95.5456 117.807 95.5456 117.984C95.5456 118.227 95.611 118.418 95.7416 118.558C95.8723 118.689 96.0543 118.754 96.2876 118.754C96.6516 118.754 97.0343 118.539 97.4356 118.11L97.4636 117.074L95.9796 117.396ZM104.584 113.476C104.668 113.476 104.785 113.485 104.934 113.504V115.226L104.738 115.296C104.579 115.231 104.407 115.198 104.22 115.198C103.679 115.198 103.189 115.548 102.75 116.248V117.13L102.848 120H100.986L101.098 117.312L101.014 113.616L102.778 113.462L102.764 114.736H102.876C103.333 113.896 103.903 113.476 104.584 113.476ZM113.362 113.378L113.516 113.462L113.404 117.13L113.502 122.59H111.654L111.738 119.65V119.3H111.626C111.243 119.627 110.823 119.893 110.366 120.098C109.461 120.098 108.761 119.809 108.266 119.23C107.771 118.642 107.524 117.839 107.524 116.822C107.524 115.711 107.813 114.862 108.392 114.274C108.971 113.677 109.745 113.378 110.716 113.378C111.22 113.378 111.78 113.481 112.396 113.686L113.362 113.378ZM110.66 114.638C109.736 114.638 109.274 115.254 109.274 116.486C109.274 117.186 109.381 117.723 109.596 118.096C109.82 118.46 110.142 118.642 110.562 118.642C110.758 118.642 110.949 118.6 111.136 118.516C111.332 118.423 111.533 118.273 111.738 118.068L111.752 117.326L111.71 114.932C111.337 114.736 110.987 114.638 110.66 114.638ZM121.448 118.782L121.28 119.762C120.935 119.986 120.58 120.103 120.216 120.112C119.945 120.065 119.721 119.958 119.544 119.79C119.367 119.622 119.231 119.379 119.138 119.062H119.012C118.48 119.585 117.929 119.925 117.36 120.084C116.651 120.084 116.109 119.925 115.736 119.608C115.372 119.281 115.195 118.815 115.204 118.208L115.232 116.556L115.162 113.616L116.968 113.462L116.926 117.592C116.917 117.919 116.982 118.166 117.122 118.334C117.262 118.502 117.472 118.586 117.752 118.586C118.163 118.586 118.569 118.404 118.97 118.04V113.616L120.748 113.462L120.622 118.306C120.622 118.455 120.645 118.563 120.692 118.628C120.748 118.693 120.832 118.726 120.944 118.726C121.047 118.726 121.173 118.707 121.322 118.67L121.448 118.782ZM127.586 116.976L123.806 117.004C123.89 118.171 124.483 118.754 125.584 118.754C126.163 118.754 126.807 118.591 127.516 118.264L127.67 118.362L127.39 119.748C126.681 120.009 126.014 120.14 125.388 120.14C124.362 120.14 123.554 119.841 122.966 119.244C122.388 118.647 122.098 117.821 122.098 116.766C122.098 115.721 122.383 114.895 122.952 114.288C123.522 113.672 124.292 113.364 125.262 113.364C126.093 113.364 126.732 113.593 127.18 114.05C127.638 114.498 127.866 115.128 127.866 115.94C127.866 116.155 127.843 116.425 127.796 116.752L127.586 116.976ZM126.242 115.73C126.242 115.357 126.158 115.077 125.99 114.89C125.822 114.694 125.575 114.596 125.248 114.596C124.884 114.596 124.581 114.717 124.338 114.96C124.096 115.193 123.932 115.534 123.848 115.982L126.214 115.926L126.242 115.73ZM134.582 117.13L134.624 118.306C134.624 118.465 134.643 118.577 134.68 118.642C134.727 118.698 134.806 118.726 134.918 118.726C135.021 118.726 135.147 118.707 135.296 118.67L135.422 118.782L135.268 119.762C134.951 119.958 134.605 120.075 134.232 120.112C133.943 120.084 133.7 119.986 133.504 119.818C133.308 119.65 133.173 119.421 133.098 119.132H132.986C132.529 119.552 132.062 119.874 131.586 120.098C130.671 120.098 129.962 119.809 129.458 119.23C128.954 118.642 128.702 117.83 128.702 116.794C128.702 115.693 128.991 114.848 129.57 114.26C130.149 113.672 130.951 113.378 131.978 113.378C132.249 113.378 132.547 113.406 132.874 113.462L132.846 110.312L134.694 110.172L134.582 117.13ZM131.852 114.638C130.919 114.638 130.452 115.231 130.452 116.416C130.452 117.153 130.564 117.709 130.788 118.082C131.012 118.455 131.339 118.642 131.768 118.642C132.179 118.642 132.557 118.451 132.902 118.068L132.93 117.298L132.888 114.89C132.524 114.722 132.179 114.638 131.852 114.638ZM139.081 113.364C139.8 113.364 140.36 113.527 140.761 113.854C141.172 114.171 141.377 114.619 141.377 115.198C141.377 115.366 141.349 115.898 141.293 116.794C141.284 117.055 141.27 117.326 141.251 117.606C141.232 117.877 141.223 118.11 141.223 118.306C141.223 118.465 141.246 118.577 141.293 118.642C141.34 118.698 141.424 118.726 141.545 118.726C141.638 118.726 141.76 118.707 141.909 118.67L142.049 118.782L141.881 119.762C141.582 119.958 141.242 120.075 140.859 120.112C140.579 120.084 140.346 119.986 140.159 119.818C139.972 119.641 139.846 119.398 139.781 119.09H139.683C139.216 119.585 138.736 119.93 138.241 120.126C137.569 120.117 137.042 119.939 136.659 119.594C136.276 119.249 136.085 118.777 136.085 118.18C136.085 117.713 136.202 117.349 136.435 117.088C136.678 116.817 137.042 116.635 137.527 116.542L139.669 116.136V115.562C139.669 114.955 139.37 114.652 138.773 114.652C138.484 114.652 138.176 114.717 137.849 114.848C137.532 114.979 137.172 115.184 136.771 115.464L136.631 115.38L136.421 114.148C136.822 113.896 137.252 113.705 137.709 113.574C138.166 113.434 138.624 113.364 139.081 113.364ZM138.171 117.396C138.022 117.433 137.91 117.499 137.835 117.592C137.77 117.676 137.737 117.807 137.737 117.984C137.737 118.227 137.802 118.418 137.933 118.558C138.064 118.689 138.246 118.754 138.479 118.754C138.843 118.754 139.226 118.539 139.627 118.11L139.655 117.074L138.171 117.396ZM31.1337 133.13L31.1757 134.306C31.1757 134.465 31.1943 134.577 31.2317 134.642C31.2783 134.698 31.3577 134.726 31.4697 134.726C31.5723 134.726 31.6983 134.707 31.8477 134.67L31.9737 134.782L31.8197 135.762C31.5023 135.958 31.157 136.075 30.7837 136.112C30.4943 136.084 30.2517 135.986 30.0557 135.818C29.8597 135.65 29.7243 135.421 29.6497 135.132H29.5377C29.0803 135.552 28.6137 135.874 28.1377 136.098C27.223 136.098 26.5137 135.809 26.0097 135.23C25.5057 134.642 25.2537 133.83 25.2537 132.794C25.2537 131.693 25.543 130.848 26.1217 130.26C26.7003 129.672 27.503 129.378 28.5297 129.378C28.8003 129.378 29.099 129.406 29.4257 129.462L29.3977 126.312L31.2457 126.172L31.1337 133.13ZM28.4037 130.638C27.4703 130.638 27.0037 131.231 27.0037 132.416C27.0037 133.153 27.1157 133.709 27.3397 134.082C27.5637 134.455 27.8903 134.642 28.3197 134.642C28.7303 134.642 29.1083 134.451 29.4537 134.068L29.4817 133.298L29.4397 130.89C29.0757 130.722 28.7303 130.638 28.4037 130.638ZM38.1108 132.976L34.3308 133.004C34.4148 134.171 35.0075 134.754 36.1088 134.754C36.6875 134.754 37.3315 134.591 38.0408 134.264L38.1948 134.362L37.9148 135.748C37.2055 136.009 36.5381 136.14 35.9128 136.14C34.8861 136.14 34.0788 135.841 33.4908 135.244C32.9121 134.647 32.6228 133.821 32.6228 132.766C32.6228 131.721 32.9075 130.895 33.4768 130.288C34.0461 129.672 34.8161 129.364 35.7868 129.364C36.6175 129.364 37.2568 129.593 37.7048 130.05C38.1621 130.498 38.3908 131.128 38.3908 131.94C38.3908 132.155 38.3675 132.425 38.3208 132.752L38.1108 132.976ZM36.7668 131.73C36.7668 131.357 36.6828 131.077 36.5148 130.89C36.3468 130.694 36.0995 130.596 35.7728 130.596C35.4088 130.596 35.1055 130.717 34.8628 130.96C34.6201 131.193 34.4568 131.534 34.3728 131.982L36.7388 131.926L36.7668 131.73ZM43.0115 130.526L43.9915 134.25H44.0895L45.2655 130.624L45.5035 129.49H47.1275L44.9435 136H42.9415L41.0935 129.532L42.8295 129.448L43.0115 130.526ZM50.4121 129.364C51.1308 129.364 51.6908 129.527 52.0921 129.854C52.5028 130.171 52.7081 130.619 52.7081 131.198C52.7081 131.366 52.6801 131.898 52.6241 132.794C52.6148 133.055 52.6008 133.326 52.5821 133.606C52.5634 133.877 52.5541 134.11 52.5541 134.306C52.5541 134.465 52.5774 134.577 52.6241 134.642C52.6708 134.698 52.7548 134.726 52.8761 134.726C52.9694 134.726 53.0908 134.707 53.2401 134.67L53.3801 134.782L53.2121 135.762C52.9134 135.958 52.5728 136.075 52.1901 136.112C51.9101 136.084 51.6768 135.986 51.4901 135.818C51.3034 135.641 51.1774 135.398 51.1121 135.09H51.0141C50.5474 135.585 50.0668 135.93 49.5721 136.126C48.9001 136.117 48.3728 135.939 47.9901 135.594C47.6074 135.249 47.4161 134.777 47.4161 134.18C47.4161 133.713 47.5328 133.349 47.7661 133.088C48.0088 132.817 48.3728 132.635 48.8581 132.542L51.0001 132.136V131.562C51.0001 130.955 50.7014 130.652 50.1041 130.652C49.8148 130.652 49.5068 130.717 49.1801 130.848C48.8628 130.979 48.5034 131.184 48.1021 131.464L47.9621 131.38L47.7521 130.148C48.1534 129.896 48.5828 129.705 49.0401 129.574C49.4974 129.434 49.9548 129.364 50.4121 129.364ZM49.5021 133.396C49.3528 133.433 49.2408 133.499 49.1661 133.592C49.1008 133.676 49.0681 133.807 49.0681 133.984C49.0681 134.227 49.1334 134.418 49.2641 134.558C49.3948 134.689 49.5768 134.754 49.8101 134.754C50.1741 134.754 50.5568 134.539 50.9581 134.11L50.9861 133.074L49.5021 133.396ZM56.4103 133.13L56.5083 136H54.6463L54.7443 133.298L54.6603 126.312L56.5223 126.172L56.4103 133.13ZM60.9701 129.364C61.9221 129.364 62.6501 129.644 63.1541 130.204C63.6581 130.764 63.9101 131.571 63.9101 132.626C63.9101 133.765 63.6394 134.637 63.0981 135.244C62.5567 135.841 61.7774 136.14 60.7601 136.14C59.8081 136.14 59.0801 135.86 58.5761 135.3C58.0721 134.74 57.8201 133.933 57.8201 132.878C57.8201 131.739 58.0907 130.871 58.6321 130.274C59.1734 129.667 59.9527 129.364 60.9701 129.364ZM60.8441 130.624C60.3961 130.624 60.0694 130.773 59.8641 131.072C59.6681 131.371 59.5701 131.851 59.5701 132.514C59.5701 133.373 59.6727 133.984 59.8781 134.348C60.0834 134.712 60.4194 134.894 60.8861 134.894C61.3341 134.894 61.6561 134.749 61.8521 134.46C62.0574 134.161 62.1601 133.676 62.1601 133.004C62.1601 132.155 62.0527 131.548 61.8381 131.184C61.6327 130.811 61.3014 130.624 60.8441 130.624ZM68.702 129.476C68.786 129.476 68.9027 129.485 69.052 129.504V131.226L68.856 131.296C68.6973 131.231 68.5247 131.198 68.338 131.198C67.7967 131.198 67.3067 131.548 66.868 132.248V133.13L66.966 136H65.104L65.216 133.312L65.132 129.616L66.896 129.462L66.882 130.736H66.994C67.4513 129.896 68.0207 129.476 68.702 129.476ZM75.0112 132.976L71.2312 133.004C71.3152 134.171 71.9079 134.754 73.0092 134.754C73.5879 134.754 74.2319 134.591 74.9412 134.264L75.0952 134.362L74.8152 135.748C74.1059 136.009 73.4385 136.14 72.8132 136.14C71.7865 136.14 70.9792 135.841 70.3912 135.244C69.8125 134.647 69.5232 133.821 69.5232 132.766C69.5232 131.721 69.8079 130.895 70.3772 130.288C70.9465 129.672 71.7165 129.364 72.6872 129.364C73.5179 129.364 74.1572 129.593 74.6052 130.05C75.0625 130.498 75.2912 131.128 75.2912 131.94C75.2912 132.155 75.2679 132.425 75.2212 132.752L75.0112 132.976ZM73.6672 131.73C73.6672 131.357 73.5832 131.077 73.4152 130.89C73.2472 130.694 72.9999 130.596 72.6732 130.596C72.3092 130.596 72.0059 130.717 71.7632 130.96C71.5205 131.193 71.3572 131.534 71.2732 131.982L73.6392 131.926L73.6672 131.73ZM78.7587 129.378C79.3934 129.378 79.9907 129.485 80.5507 129.7L80.2987 131.072L80.0747 131.142C79.804 130.965 79.5334 130.829 79.2627 130.736C78.992 130.643 78.754 130.596 78.5487 130.596C78.3247 130.596 78.1474 130.657 78.0167 130.778C77.886 130.89 77.8207 131.03 77.8207 131.198C77.8207 131.394 77.9047 131.553 78.0727 131.674C78.25 131.795 78.5254 131.931 78.8987 132.08C79.272 132.229 79.58 132.374 79.8227 132.514C80.0654 132.654 80.2707 132.85 80.4387 133.102C80.616 133.345 80.7047 133.648 80.7047 134.012C80.7047 134.385 80.6067 134.735 80.4107 135.062C80.224 135.379 79.9347 135.641 79.5427 135.846C79.1507 136.042 78.67 136.14 78.1007 136.14C77.4287 136.14 76.7334 136 76.0147 135.72L76.2247 134.264L76.4067 134.152C76.696 134.395 77.018 134.591 77.3727 134.74C77.7274 134.88 78.04 134.95 78.3107 134.95C78.5627 134.95 78.7587 134.889 78.8987 134.768C79.0387 134.637 79.1087 134.483 79.1087 134.306C79.1087 134.11 79.02 133.951 78.8427 133.83C78.6747 133.709 78.404 133.573 78.0307 133.424C77.648 133.256 77.3354 133.107 77.0927 132.976C76.85 132.836 76.64 132.64 76.4627 132.388C76.2947 132.136 76.2107 131.823 76.2107 131.45C76.2107 130.843 76.4394 130.349 76.8967 129.966C77.354 129.574 77.9747 129.378 78.7587 129.378ZM90.3249 130.372C90.0729 130.437 89.7136 130.507 89.2469 130.582L89.2189 130.638C89.3589 130.918 89.4289 131.231 89.4289 131.576C89.4289 132.276 89.1722 132.836 88.6589 133.256C88.1549 133.667 87.4689 133.872 86.6009 133.872C86.3396 133.872 86.0689 133.849 85.7889 133.802C85.7049 133.886 85.6489 133.951 85.6209 133.998C85.5929 134.045 85.5789 134.101 85.5789 134.166C85.5789 134.334 85.6909 134.451 85.9149 134.516C86.1389 134.581 86.4936 134.647 86.9789 134.712C87.5296 134.777 87.9869 134.857 88.3509 134.95C88.7242 135.043 89.0416 135.207 89.3029 135.44C89.5736 135.673 89.7089 136.005 89.7089 136.434C89.7089 136.873 89.5689 137.265 89.2889 137.61C89.0182 137.965 88.6402 138.24 88.1549 138.436C87.6696 138.632 87.1189 138.73 86.5029 138.73C85.6536 138.73 85.0002 138.557 84.5429 138.212C84.0856 137.867 83.8569 137.409 83.8569 136.84C84.1462 136.439 84.5336 136.089 85.0189 135.79V135.72C84.7016 135.608 84.4542 135.454 84.2769 135.258C84.0996 135.053 84.0109 134.782 84.0109 134.446C84.2629 134.138 84.5802 133.853 84.9629 133.592V133.522C84.6269 133.335 84.3702 133.093 84.1929 132.794C84.0249 132.486 83.9409 132.127 83.9409 131.716C83.9409 130.988 84.1929 130.419 84.6969 130.008C85.2009 129.597 85.8869 129.392 86.7549 129.392C87.2589 129.392 87.7162 129.476 88.1269 129.644C88.7989 129.523 89.4849 129.336 90.1849 129.084L90.3249 129.21V130.372ZM86.6569 132.752C87.0396 132.752 87.3289 132.654 87.5249 132.458C87.7209 132.262 87.8189 131.977 87.8189 131.604C87.8189 130.895 87.4549 130.54 86.7269 130.54C85.9429 130.54 85.5509 130.899 85.5509 131.618C85.5509 131.991 85.6442 132.276 85.8309 132.472C86.0176 132.659 86.2929 132.752 86.6569 132.752ZM88.1409 136.77C88.1409 136.518 88.0056 136.345 87.7349 136.252C87.4736 136.159 87.0676 136.079 86.5169 136.014L86.0409 135.944C85.8169 136.093 85.6489 136.238 85.5369 136.378C85.4249 136.518 85.3689 136.667 85.3689 136.826C85.3689 137.069 85.4809 137.265 85.7049 137.414C85.9289 137.563 86.2556 137.638 86.6849 137.638C87.1236 137.638 87.4736 137.559 87.7349 137.4C88.0056 137.251 88.1409 137.041 88.1409 136.77ZM92.8869 133.13L92.9849 136H91.1229L91.2209 133.298L91.1369 126.312L92.9989 126.172L92.8869 133.13ZM94.8706 133.312L94.8006 129.616L96.6346 129.462L96.5506 133.13L96.6346 136H94.7726L94.8706 133.312ZM95.7526 126.298C96.042 126.298 96.266 126.382 96.4246 126.55C96.5926 126.718 96.6766 126.951 96.6766 127.25C96.6766 127.567 96.588 127.819 96.4106 128.006C96.2333 128.193 95.9906 128.286 95.6826 128.286C95.3746 128.286 95.1366 128.202 94.9686 128.034C94.81 127.866 94.7306 127.628 94.7306 127.32C94.7306 127.012 94.8193 126.765 94.9966 126.578C95.1833 126.391 95.4353 126.298 95.7526 126.298ZM101.069 129.364C101.377 129.364 101.68 129.397 101.979 129.462C102.287 129.518 102.558 129.602 102.791 129.714L102.483 131.198L102.329 131.268C101.853 131.007 101.428 130.876 101.055 130.876C100.626 130.876 100.294 131.03 100.061 131.338C99.8277 131.646 99.711 132.085 99.711 132.654C99.711 133.307 99.837 133.807 100.089 134.152C100.341 134.497 100.7 134.67 101.167 134.67C101.587 134.67 102.054 134.553 102.567 134.32L102.707 134.432L102.525 135.874C101.965 136.051 101.391 136.14 100.803 136.14C99.907 136.14 99.207 135.851 98.703 135.272C98.199 134.684 97.947 133.867 97.947 132.822C97.947 131.739 98.2223 130.895 98.773 130.288C99.3237 129.672 100.089 129.364 101.069 129.364ZM108.822 132.976L105.042 133.004C105.126 134.171 105.718 134.754 106.82 134.754C107.398 134.754 108.042 134.591 108.752 134.264L108.906 134.362L108.626 135.748C107.916 136.009 107.249 136.14 106.624 136.14C105.597 136.14 104.79 135.841 104.202 135.244C103.623 134.647 103.334 133.821 103.334 132.766C103.334 131.721 103.618 130.895 104.188 130.288C104.757 129.672 105.527 129.364 106.498 129.364C107.328 129.364 107.968 129.593 108.416 130.05C108.873 130.498 109.102 131.128 109.102 131.94C109.102 132.155 109.078 132.425 109.032 132.752L108.822 132.976ZM107.478 131.73C107.478 131.357 107.394 131.077 107.226 130.89C107.058 130.694 106.81 130.596 106.484 130.596C106.12 130.596 105.816 130.717 105.574 130.96C105.331 131.193 105.168 131.534 105.084 131.982L107.45 131.926L107.478 131.73ZM104.188 127.936C104.72 127.451 105.378 126.793 106.162 125.962H106.568C107.296 126.765 107.949 127.423 108.528 127.936L108.066 128.65H107.884C107.268 128.165 106.759 127.735 106.358 127.362C105.994 127.707 105.49 128.137 104.846 128.65H104.664L104.188 127.936ZM118.183 136L118.295 131.94C118.295 131.249 118.001 130.904 117.413 130.904C116.993 130.904 116.555 131.091 116.097 131.464L116.055 133.144L116.139 136H114.277L114.389 131.94C114.399 131.604 114.324 131.347 114.165 131.17C114.016 130.993 113.797 130.904 113.507 130.904C113.097 130.904 112.644 131.1 112.149 131.492V133.13L112.233 136H110.385L110.483 133.312L110.413 129.616L112.163 129.462V130.414H112.261C112.775 129.947 113.339 129.611 113.955 129.406C115.001 129.406 115.668 129.756 115.957 130.456H116.041C116.573 129.961 117.18 129.611 117.861 129.406C118.571 129.406 119.107 129.569 119.471 129.896C119.845 130.213 120.022 130.675 120.003 131.282L119.961 133.144L120.045 136H118.183ZM121.804 133.312L121.734 129.616L123.568 129.462L123.484 133.13L123.568 136H121.706L121.804 133.312ZM122.686 126.298C122.976 126.298 123.2 126.382 123.358 126.55C123.526 126.718 123.61 126.951 123.61 127.25C123.61 127.567 123.522 127.819 123.344 128.006C123.167 128.193 122.924 128.286 122.616 128.286C122.308 128.286 122.07 128.202 121.902 128.034C121.744 127.866 121.664 127.628 121.664 127.32C121.664 127.012 121.753 126.765 121.93 126.578C122.117 126.391 122.369 126.298 122.686 126.298ZM128.003 129.364C128.311 129.364 128.614 129.397 128.913 129.462C129.221 129.518 129.491 129.602 129.725 129.714L129.417 131.198L129.263 131.268C128.787 131.007 128.362 130.876 127.989 130.876C127.559 130.876 127.228 131.03 126.995 131.338C126.761 131.646 126.645 132.085 126.645 132.654C126.645 133.307 126.771 133.807 127.023 134.152C127.275 134.497 127.634 134.67 128.101 134.67C128.521 134.67 128.987 134.553 129.501 134.32L129.641 134.432L129.459 135.874C128.899 136.051 128.325 136.14 127.737 136.14C126.841 136.14 126.141 135.851 125.637 135.272C125.133 134.684 124.881 133.867 124.881 132.822C124.881 131.739 125.156 130.895 125.707 130.288C126.257 129.672 127.023 129.364 128.003 129.364ZM133.417 129.364C134.369 129.364 135.097 129.644 135.601 130.204C136.105 130.764 136.357 131.571 136.357 132.626C136.357 133.765 136.087 134.637 135.545 135.244C135.004 135.841 134.225 136.14 133.207 136.14C132.255 136.14 131.527 135.86 131.023 135.3C130.519 134.74 130.267 133.933 130.267 132.878C130.267 131.739 130.538 130.871 131.079 130.274C131.621 129.667 132.4 129.364 133.417 129.364ZM133.291 130.624C132.843 130.624 132.517 130.773 132.311 131.072C132.115 131.371 132.017 131.851 132.017 132.514C132.017 133.373 132.12 133.984 132.325 134.348C132.531 134.712 132.867 134.894 133.333 134.894C133.781 134.894 134.103 134.749 134.299 134.46C134.505 134.161 134.607 133.676 134.607 133.004C134.607 132.155 134.5 131.548 134.285 131.184C134.08 130.811 133.749 130.624 133.291 130.624ZM139.817 129.378C140.452 129.378 141.049 129.485 141.609 129.7L141.357 131.072L141.133 131.142C140.863 130.965 140.592 130.829 140.321 130.736C140.051 130.643 139.813 130.596 139.607 130.596C139.383 130.596 139.206 130.657 139.075 130.778C138.945 130.89 138.879 131.03 138.879 131.198C138.879 131.394 138.963 131.553 139.131 131.674C139.309 131.795 139.584 131.931 139.957 132.08C140.331 132.229 140.639 132.374 140.881 132.514C141.124 132.654 141.329 132.85 141.497 133.102C141.675 133.345 141.763 133.648 141.763 134.012C141.763 134.385 141.665 134.735 141.469 135.062C141.283 135.379 140.993 135.641 140.601 135.846C140.209 136.042 139.729 136.14 139.159 136.14C138.487 136.14 137.792 136 137.073 135.72L137.283 134.264L137.465 134.152C137.755 134.395 138.077 134.591 138.431 134.74C138.786 134.88 139.099 134.95 139.369 134.95C139.621 134.95 139.817 134.889 139.957 134.768C140.097 134.637 140.167 134.483 140.167 134.306C140.167 134.11 140.079 133.951 139.901 133.83C139.733 133.709 139.463 133.573 139.089 133.424C138.707 133.256 138.394 133.107 138.151 132.976C137.909 132.836 137.699 132.64 137.521 132.388C137.353 132.136 137.269 131.823 137.269 131.45C137.269 130.843 137.498 130.349 137.955 129.966C138.413 129.574 139.033 129.378 139.817 129.378Z" fill="white"/>
<defs>
<filter id="filter0_b_206:37294" x="3" y="67" width="161" height="97" filterUnits="userSpaceOnUse" color-interpolation-filters="sRGB">
<feFlood flood-opacity="0" result="BackgroundImageFix"/>
<feGaussianBlur in="BackgroundImage" stdDeviation="5"/>
<feComposite in2="SourceAlpha" operator="in" result="effect1_backgroundBlur_206:37294"/>
<feBlend mode="normal" in="SourceGraphic" in2="effect1_backgroundBlur_206:37294" result="shape"/>
</filter>
<linearGradient id="paint0_linear_206:37294" x1="82.2117" y1="4.68469" x2="82.2117" y2="255.402" gradientUnits="userSpaceOnUse">
<stop stop-color="#965450"/>
<stop offset="1" stop-color="#953832"/>
</linearGradient>
</defs>
</svg>
