<svg width="167" height="167" viewBox="0 0 167 167" fill="none" xmlns="http://www.w3.org/2000/svg">
<mask id="mask0_206:37254" style="mask-type:alpha" maskUnits="userSpaceOnUse" x="0" y="0" width="167" height="167">
<rect x="1" y="1" width="165" height="165" rx="8" fill="#5988D6" stroke="#EDE6FC" stroke-opacity="0.3"/>
</mask>
<g mask="url(#mask0_206:37254)">
<rect x="1" y="1" width="165" height="165" rx="8" fill="#7AC2D9" stroke="#EDE6FC" stroke-opacity="0.3"/>
<path d="M27.6175 9.59065H42.2383C42.2383 9.59065 54.7815 67.8079 118.134 62.1198C118.134 62.1198 101.997 88.2516 65.7917 77.4113C32.7132 67.5117 25.3789 20.5529 27.6175 9.59065Z" fill="#359BBC"/>
<path d="M28.9634 9.59066H27.6133L35.1523 -23L42.234 9.59066H40.8795L35.1044 -16.3016L28.9634 9.59066Z" fill="#359BBC"/>
<path d="M139.914 33.6275L137.571 8.44521L135.437 33.4185L133.821 33.2791L136.731 -0.770584H138.351L141.53 33.4751L139.914 33.6275Z" fill="#398AA4"/>
<path d="M107.881 69.0012C118.669 81.392 116.618 91.4136 124.928 92.2193C125.83 92.3064 128.029 91.3047 128.543 91.9754C129.057 92.6461 124.745 97.0711 121.082 95.2985C121.082 95.2985 113.138 91.6444 106.009 82.4199C97.3154 71.1789 97.0977 56.5886 107.881 69.0012Z" fill="#FBC6B4"/>
<path d="M40.2437 25.126C41.1626 20.9928 55.9227 16.8248 62.3599 30.4482C65.622 37.3382 68.8928 35.9837 73.1174 38.0351C83.2043 42.9566 80.8002 62.7383 58.6099 59.6896C36.4197 56.6409 44.0328 52.2595 40.2306 46.149C40.2306 46.149 42.5563 41.8634 42.3865 37.1161C42.234 32.8523 39.5555 28.2226 40.2437 25.126Z" fill="#1D1B3A"/>
<path d="M50.9229 22.0076C47.6782 20.5312 39.782 20.7881 38.4058 29.1938C37.5347 34.4202 41.093 36.0491 39.7123 40.6744C35.7185 54.2237 61.6456 54.7071 61.9243 43.7797C62.3642 26.6024 57.4645 24.9866 50.9229 22.0076Z" fill="#1D1B3A"/>
<path d="M48.3879 31.8506C48.3879 31.8506 56.4234 27.565 59.899 34.0805C62.56 39.0716 63.9015 35.3043 68.2786 37.8391C77.76 43.3311 82.185 63.4874 60.8746 51.4537C49.4637 45.0079 48.7407 44.7422 47.0857 40.8704L48.3879 31.8506Z" fill="#27123D"/>
<path d="M78.396 47.1028C73.0564 31.9203 71.1749 33.7974 71.0442 34.3418C70.6451 35.5066 70.5602 36.7561 70.798 37.9642C71.0358 39.1724 71.588 40.2965 72.3987 41.2232C74.167 43.4226 77.1678 52.8169 74.4719 53.8274C72.5076 54.5634 69.0103 45.0428 69.0103 45.0428L62.8389 47.2465L68.026 54.8334L71.654 57.843C69.3065 57.843 63.3789 57.0808 63.3789 57.0808L61.3755 67.4594C61.3755 67.4594 74.0929 69.5979 78.531 65.2034C79.6547 64.0797 83.2216 60.835 78.396 47.1028Z" fill="#FBC6B4"/>
<path d="M53.4575 39.2328C51.8983 40.7179 50.4088 45.0776 55.3085 49.52C57.3018 51.3197 59.4632 52.924 61.763 54.3108C61.763 54.3108 69.167 51.6976 70.0381 44.8947C70.0381 44.8772 59.2849 33.6798 53.4575 39.2328Z" fill="#E32E1B"/>
<path d="M73.7184 58.3699C69.0931 52.7081 66.689 44.7509 62.2422 40.3042C56.0751 34.1502 49.1459 38.1788 45.4439 41.393C41.7419 44.6072 35.5399 49.7595 43.6321 57.0154C49.2722 62.0719 50.2521 66.78 52.2381 74.0011C52.2817 74.1884 52.3252 74.3582 52.3601 74.5455H52.3383H52.3601C53.4576 83.034 78.4134 64.1189 73.7184 58.3699Z" fill="#E13C22"/>
<path d="M64.3153 67.7948C64.3153 67.7948 53.6535 74.6631 64.4677 81.196C75.2819 87.729 95.0288 72.529 99.5366 74.9985C104.044 77.4679 104.018 82.7247 115.651 93.2123C115.651 93.2123 118.77 93.7044 120.938 89.911C120.938 89.911 118.025 68.9794 99.885 61.2706C81.7452 53.5617 66.2534 62.2026 64.3153 67.7948Z" fill="#4E86D8"/>
<path d="M46.2495 32.1859C46.2495 32.1859 48.1136 37.5908 46.7809 40.2998C45.9316 42.042 55.4305 44.0976 54.9209 42.042C54.272 39.3852 52.4776 37.9697 53.7537 34.6597L46.2495 32.1859Z" fill="#F7B2A0"/>
<path d="M51.1101 23.7497C53.7233 25.7357 60.7658 36.1362 55.718 39.0978C53.4358 40.4305 48.1093 38.9802 44.8298 34.9385C43.4709 33.2835 43.0441 29.3681 44.4988 25.8185C45.1303 24.2114 48.0701 21.4284 51.1101 23.7497Z" fill="#FBC6B4"/>
<path d="M54.873 27.0641C55.3086 28.436 50.9228 24.403 50.5787 27.4735C50.2172 30.6921 46.7025 31.2495 47.1554 36.9071C47.4647 40.7702 42.0946 33.9106 41.6852 33.4446C39.9431 31.4717 39.9431 31.4717 41.5676 26.4413C43.1921 21.4109 52.6736 20.2219 54.873 27.0641Z" fill="#1D1B3A"/>
<path d="M73.6314 35.239C73.2004 35.274 72.7897 35.4364 72.4514 35.7057C72.1131 35.9749 71.8626 36.3388 71.7319 36.7509C71.6011 37.163 71.596 37.6047 71.7171 38.0198C71.8383 38.4348 72.0803 38.8044 72.4122 39.0814C72.7442 39.3584 73.1511 39.5304 73.5811 39.5753C74.0111 39.6203 74.4448 39.5362 74.8268 39.3339C75.2089 39.1315 75.5221 38.82 75.7265 38.439C75.9309 38.058 76.0172 37.6248 75.9745 37.1945C75.9182 36.6265 75.6411 36.1033 75.2028 35.7376C74.7646 35.3719 74.2003 35.1928 73.6314 35.239ZM73.9711 38.9671C73.6598 38.9947 73.3472 38.9296 73.0728 38.78C72.7984 38.6304 72.5742 38.4031 72.4286 38.1265C72.283 37.8499 72.2224 37.5365 72.2544 37.2256C72.2864 36.9147 72.4096 36.6202 72.6085 36.3791C72.8074 36.138 73.0732 35.9611 73.3723 35.8706C73.6715 35.78 73.9907 35.78 74.2899 35.8704C74.5891 35.9608 74.8549 36.1376 75.0539 36.3786C75.2529 36.6196 75.3762 36.9141 75.4084 37.225C75.4287 37.4329 75.4075 37.6427 75.3461 37.8424C75.2847 38.042 75.1841 38.2275 75.0504 38.3879C74.9167 38.5484 74.7524 38.6807 74.5671 38.7771C74.3819 38.8736 74.1793 38.9322 73.9711 38.9497V38.9671Z" fill="#E8DCD9"/>
<path d="M73.7141 43.6708L67.4425 44.2414L65.7483 33.1354L73.3788 32.4385L73.7141 43.6708Z" fill="#F9F4F2"/>
<path d="M66.053 33.327C66.053 33.327 70.1382 33.6754 71.2793 34.3505C71.9718 34.7643 74.7636 35.8052 72.0023 37.5778C71.0964 38.157 71.9631 39.5812 71.2706 40.3564C68.2524 43.7536 73.7096 43.6708 73.7096 43.6708L73.3742 32.4385L66.053 33.327Z" fill="#E8DCD9"/>
<path d="M73.3787 32.4385C73.4049 32.7608 71.7281 33.1789 69.6201 33.3706C67.5121 33.5622 65.7831 33.4533 65.7526 33.131C65.7221 32.8087 67.4033 32.395 69.5112 32.2033C71.6192 32.0117 73.3482 32.1162 73.3787 32.4385Z" fill="white"/>
<path d="M72.7732 32.5866C72.7994 32.8566 71.3839 33.2094 69.62 33.3706C67.8561 33.5317 66.3971 33.4402 66.371 33.1702C66.3448 32.9002 67.7647 32.5518 69.5286 32.3906C71.2924 32.2295 72.7515 32.3209 72.7732 32.5866Z" fill="#6D2121"/>
<path d="M73.7228 43.6708C73.7533 43.9365 72.3596 44.2849 70.6349 44.4417C68.9102 44.5985 67.473 44.507 67.4512 44.2414C67.4294 43.9757 68.81 43.6273 70.5434 43.4705C72.2768 43.3137 73.688 43.4008 73.7228 43.6708Z" fill="#F9F4F2"/>
<path d="M93.2083 60.835L85.2947 75.7258L88.0429 78.1125C88.0429 78.1125 92.3982 65.125 97.8902 61.2575C102.176 58.2306 93.2083 60.835 93.2083 60.835Z" fill="#1D1B3A"/>
<path d="M98.1994 53.7577C113.966 58.3699 117.646 67.9124 125.08 64.1146C125.886 63.7008 127.201 61.6713 127.994 61.9587C128.787 62.2462 127.558 68.2957 123.499 68.7791C123.499 68.7791 114.841 69.9855 103.861 66.0701C90.4862 61.2923 82.4332 49.1367 98.1994 53.7577Z" fill="#F67986"/>
<path d="M58.3137 76.0655C57.926 79.5759 59.5157 87.4807 71.2837 86.6968C83.9141 85.8606 89.1404 64.6241 94.2405 64.1494C99.3405 63.6747 102.28 68.0692 117.79 70.2468C118.751 69.4396 119.504 68.4135 119.986 67.2547C120.468 66.0958 120.665 64.8383 120.56 63.5876C120.56 63.5876 103.369 48.3441 91.6447 50.648C72.2942 54.4023 59.115 68.7094 58.3137 76.0655Z" fill="#6196EB"/>
<path d="M56.0577 54.276C56.0577 54.276 62.5906 57.2376 66.371 56.8891C70.1514 56.5407 60.7091 60.3124 60.7091 60.3124L53.218 55.2211L56.0577 54.276Z" fill="#1D1B3A"/>
<path d="M70.4129 36.0186C69.5812 36.927 69.0032 38.0384 68.7372 39.241C68.4711 40.4435 68.5263 41.695 68.8972 42.8695C69.973 46.8458 65.4478 57.7602 62.3643 58.0564C61.4932 58.1435 54.233 53.749 54.233 53.749L48.2227 62.4596C48.2227 62.4596 58.9977 69.5326 64.8294 67.2983C66.3233 66.7278 70.8963 65.1903 72.0026 50.6785C73.2264 34.5944 70.7526 35.57 70.4129 36.0186Z" fill="#FBC6B4"/>
<path d="M41.193 47.3641C39.5903 48.6968 37.8874 52.8039 42.3036 57.4118C44.1096 59.2744 46.0918 60.9576 48.2225 62.4378C48.2225 62.4378 55.5307 60.4039 56.8242 53.8971C56.8242 53.8971 47.1772 42.386 41.193 47.3641Z" fill="#E32E1B"/>
<path d="M141.53 33.4751C141.53 102.389 79.1929 97.9334 79.1929 97.9334C8.7286 91.0172 27.6175 9.59065 27.6175 9.59065C25.3789 68.6833 79.7852 77.7118 96.6576 73.7572C125.294 67.0588 133.821 33.2878 133.821 33.2878L141.53 33.4751Z" fill="#398AA4"/>
<path d="M98.1994 53.7577C113.966 58.3699 117.646 67.9124 125.08 64.1146C125.886 63.7008 127.201 61.6713 127.994 61.9587C128.787 62.2462 127.558 68.2957 123.499 68.7791C123.499 68.7791 114.841 69.9855 103.861 66.0701C90.4862 61.2923 82.4332 49.1367 98.1994 53.7577Z" fill="#FBC6B4"/>
<path d="M94.2406 64.1494C99.3494 63.679 102.28 68.0692 117.79 70.2468C118.751 69.4396 119.504 68.4135 119.986 67.2547C120.468 66.0958 120.665 64.8383 120.56 63.5876C120.56 63.5876 103.369 48.3441 91.6449 50.648C72.2943 54.4023 89.1362 64.6459 94.2406 64.1494Z" fill="#6196EB"/>
<path d="M68.113 71.2747L67.7559 71.0221C67.8822 70.8479 80.3862 53.5661 94.9155 55.8744C94.9895 55.8744 102.964 57.0721 120.337 66.3532L120.128 66.7408C102.825 57.4989 94.9285 56.323 94.8676 56.3142C80.5866 54.0539 68.2393 71.1048 68.113 71.2747Z" fill="white"/>
</g>
<g filter="url(#filter0_b_206:37254)">
<rect x="13" y="77" width="141" height="77" rx="10" fill="black" fill-opacity="0.8"/>
</g>
<path d="M21.3349 86.872C22.2122 86.872 23.0009 87.054 23.7009 87.418L23.3649 89L23.2109 89.07C22.9309 88.874 22.6229 88.72 22.2869 88.608C21.9509 88.496 21.6055 88.44 21.2509 88.44C19.7669 88.44 19.0249 89.4153 19.0249 91.366C19.0249 92.4207 19.2162 93.214 19.5989 93.746C19.9909 94.2687 20.5602 94.53 21.3069 94.53C21.6522 94.53 22.0069 94.4787 22.3709 94.376C22.7442 94.264 23.0802 94.1147 23.3789 93.928L23.5469 94.026L23.3929 95.636C22.6835 95.9627 21.9369 96.126 21.1529 96.126C19.8089 96.126 18.7822 95.734 18.0729 94.95C17.3729 94.166 17.0229 93.0413 17.0229 91.576C17.0229 90.0827 17.3962 88.9253 18.1429 88.104C18.8989 87.2827 19.9629 86.872 21.3349 86.872ZM27.2006 89.364C28.1526 89.364 28.8806 89.644 29.3846 90.204C29.8886 90.764 30.1406 91.5713 30.1406 92.626C30.1406 93.7647 29.8699 94.6373 29.3286 95.244C28.7872 95.8413 28.0079 96.14 26.9906 96.14C26.0386 96.14 25.3106 95.86 24.8066 95.3C24.3026 94.74 24.0506 93.9327 24.0506 92.878C24.0506 91.7393 24.3212 90.8713 24.8626 90.274C25.4039 89.6673 26.1832 89.364 27.2006 89.364ZM27.0746 90.624C26.6266 90.624 26.2999 90.7733 26.0946 91.072C25.8986 91.3707 25.8006 91.8513 25.8006 92.514C25.8006 93.3727 25.9032 93.984 26.1086 94.348C26.3139 94.712 26.6499 94.894 27.1166 94.894C27.5646 94.894 27.8866 94.7493 28.0826 94.46C28.2879 94.1613 28.3906 93.676 28.3906 93.004C28.3906 92.1547 28.2832 91.548 28.0686 91.184C27.8632 90.8107 27.5319 90.624 27.0746 90.624ZM35.3385 91.94C35.3478 91.6133 35.2732 91.3613 35.1145 91.184C34.9652 90.9973 34.7458 90.904 34.4565 90.904C34.0365 90.904 33.5885 91.1047 33.1125 91.506V93.13L33.1965 96H31.3345L31.4325 93.312L31.3625 89.616L33.1265 89.462V90.414H33.2245C33.7378 89.9473 34.2978 89.6113 34.9045 89.406C35.6138 89.406 36.1552 89.5693 36.5285 89.896C36.9018 90.2133 37.0792 90.6753 37.0605 91.282L37.0185 93.144L37.1025 96H35.2265L35.3385 91.94ZM39.7576 90.526L40.7376 94.25H40.8356L42.0116 90.624L42.2496 89.49H43.8736L41.6896 96H39.6876L37.8396 89.532L39.5756 89.448L39.7576 90.526ZM49.6499 92.976L45.8699 93.004C45.9539 94.1707 46.5465 94.754 47.6479 94.754C48.2265 94.754 48.8705 94.5907 49.5799 94.264L49.7339 94.362L49.4539 95.748C48.7445 96.0093 48.0772 96.14 47.4519 96.14C46.4252 96.14 45.6179 95.8413 45.0299 95.244C44.4512 94.6467 44.1619 93.8207 44.1619 92.766C44.1619 91.7207 44.4465 90.8947 45.0159 90.288C45.5852 89.672 46.3552 89.364 47.3259 89.364C48.1565 89.364 48.7959 89.5927 49.2439 90.05C49.7012 90.498 49.9299 91.128 49.9299 91.94C49.9299 92.1547 49.9065 92.4253 49.8599 92.752L49.6499 92.976ZM48.3059 91.73C48.3059 91.3567 48.2219 91.0767 48.0539 90.89C47.8859 90.694 47.6385 90.596 47.3119 90.596C46.9479 90.596 46.6445 90.7173 46.4019 90.96C46.1592 91.1933 45.9959 91.534 45.9119 91.982L48.2779 91.926L48.3059 91.73ZM54.8114 89.476C54.8954 89.476 55.0121 89.4853 55.1614 89.504V91.226L54.9654 91.296C54.8067 91.2307 54.6341 91.198 54.4474 91.198C53.9061 91.198 53.4161 91.548 52.9774 92.248V93.13L53.0754 96H51.2134L51.3254 93.312L51.2414 89.616L53.0054 89.462L52.9914 90.736H53.1034C53.5607 89.896 54.1301 89.476 54.8114 89.476ZM58.2646 89.378C58.8993 89.378 59.4966 89.4853 60.0566 89.7L59.8046 91.072L59.5806 91.142C59.3099 90.9647 59.0393 90.8293 58.7686 90.736C58.4979 90.6427 58.2599 90.596 58.0546 90.596C57.8306 90.596 57.6533 90.6567 57.5226 90.778C57.3919 90.89 57.3266 91.03 57.3266 91.198C57.3266 91.394 57.4106 91.5527 57.5786 91.674C57.7559 91.7953 58.0313 91.9307 58.4046 92.08C58.7779 92.2293 59.0859 92.374 59.3286 92.514C59.5713 92.654 59.7766 92.85 59.9446 93.102C60.1219 93.3447 60.2106 93.648 60.2106 94.012C60.2106 94.3853 60.1126 94.7353 59.9166 95.062C59.7299 95.3793 59.4406 95.6407 59.0486 95.846C58.6566 96.042 58.1759 96.14 57.6066 96.14C56.9346 96.14 56.2393 96 55.5206 95.72L55.7306 94.264L55.9126 94.152C56.2019 94.3947 56.5239 94.5907 56.8786 94.74C57.2333 94.88 57.5459 94.95 57.8166 94.95C58.0686 94.95 58.2646 94.8893 58.4046 94.768C58.5446 94.6373 58.6146 94.4833 58.6146 94.306C58.6146 94.11 58.5259 93.9513 58.3486 93.83C58.1806 93.7087 57.9099 93.5733 57.5366 93.424C57.1539 93.256 56.8413 93.1067 56.5986 92.976C56.3559 92.836 56.1459 92.64 55.9686 92.388C55.8006 92.136 55.7166 91.8233 55.7166 91.45C55.7166 90.8433 55.9453 90.3487 56.4026 89.966C56.8599 89.574 57.4806 89.378 58.2646 89.378ZM64.0156 89.364C64.7343 89.364 65.2943 89.5273 65.6956 89.854C66.1063 90.1713 66.3116 90.6193 66.3116 91.198C66.3116 91.366 66.2836 91.898 66.2276 92.794C66.2183 93.0553 66.2043 93.326 66.1856 93.606C66.167 93.8767 66.1576 94.11 66.1576 94.306C66.1576 94.4647 66.181 94.5767 66.2276 94.642C66.2743 94.698 66.3583 94.726 66.4796 94.726C66.573 94.726 66.6943 94.7073 66.8436 94.67L66.9836 94.782L66.8156 95.762C66.517 95.958 66.1763 96.0747 65.7936 96.112C65.5136 96.084 65.2803 95.986 65.0936 95.818C64.907 95.6407 64.781 95.398 64.7156 95.09H64.6176C64.151 95.5847 63.6703 95.93 63.1756 96.126C62.5036 96.1167 61.9763 95.9393 61.5936 95.594C61.211 95.2487 61.0196 94.7773 61.0196 94.18C61.0196 93.7133 61.1363 93.3493 61.3696 93.088C61.6123 92.8173 61.9763 92.6353 62.4616 92.542L64.6036 92.136V91.562C64.6036 90.9553 64.305 90.652 63.7076 90.652C63.4183 90.652 63.1103 90.7173 62.7836 90.848C62.4663 90.9787 62.107 91.184 61.7056 91.464L61.5656 91.38L61.3556 90.148C61.757 89.896 62.1863 89.7047 62.6436 89.574C63.101 89.434 63.5583 89.364 64.0156 89.364ZM63.1056 93.396C62.9563 93.4333 62.8443 93.4987 62.7696 93.592C62.7043 93.676 62.6716 93.8067 62.6716 93.984C62.6716 94.2267 62.737 94.418 62.8676 94.558C62.9983 94.6887 63.1803 94.754 63.4136 94.754C63.7776 94.754 64.1603 94.5393 64.5616 94.11L64.5896 93.074L63.1056 93.396ZM70.8679 89.364C71.1759 89.364 71.4792 89.3967 71.7779 89.462C72.0859 89.518 72.3565 89.602 72.5899 89.714L72.2819 91.198L72.1279 91.268C71.6519 91.0067 71.2272 90.876 70.8539 90.876C70.4245 90.876 70.0932 91.03 69.8599 91.338C69.6265 91.646 69.5099 92.0847 69.5099 92.654C69.5099 93.3073 69.6359 93.8067 69.8879 94.152C70.1399 94.4973 70.4992 94.67 70.9659 94.67C71.3859 94.67 71.8525 94.5533 72.3659 94.32L72.5059 94.432L72.3239 95.874C71.7639 96.0513 71.1899 96.14 70.6019 96.14C69.7059 96.14 69.0059 95.8507 68.5019 95.272C67.9979 94.684 67.7459 93.8673 67.7459 92.822C67.7459 91.7393 68.0212 90.8947 68.5719 90.288C69.1225 89.672 69.8879 89.364 70.8679 89.364ZM70.8539 96.672L71.3299 96.938C71.5352 97.05 71.6799 97.1713 71.7639 97.302C71.8572 97.442 71.9039 97.596 71.9039 97.764C71.9039 98.072 71.7825 98.324 71.5399 98.52C71.2972 98.716 70.9799 98.814 70.5879 98.814C70.1679 98.814 69.7852 98.6833 69.4399 98.422L69.5659 97.638L69.6499 97.596C69.9299 97.876 70.2052 98.016 70.4759 98.016C70.6999 98.016 70.8119 97.918 70.8119 97.722C70.8119 97.6567 70.7932 97.6007 70.7559 97.554C70.7185 97.5167 70.6579 97.4793 70.5739 97.442L69.8879 97.05L70.2099 95.636H71.1059L70.8539 96.672ZM76.0059 89.364C76.7245 89.364 77.2845 89.5273 77.6859 89.854C78.0965 90.1713 78.3019 90.6193 78.3019 91.198C78.3019 91.366 78.2739 91.898 78.2179 92.794C78.2085 93.0553 78.1945 93.326 78.1759 93.606C78.1572 93.8767 78.1479 94.11 78.1479 94.306C78.1479 94.4647 78.1712 94.5767 78.2179 94.642C78.2645 94.698 78.3485 94.726 78.4699 94.726C78.5632 94.726 78.6845 94.7073 78.8339 94.67L78.9739 94.782L78.8059 95.762C78.5072 95.958 78.1665 96.0747 77.7839 96.112C77.5039 96.084 77.2705 95.986 77.0839 95.818C76.8972 95.6407 76.7712 95.398 76.7059 95.09H76.6079C76.1412 95.5847 75.6605 95.93 75.1659 96.126C74.4939 96.1167 73.9665 95.9393 73.5839 95.594C73.2012 95.2487 73.0099 94.7773 73.0099 94.18C73.0099 93.7133 73.1265 93.3493 73.3599 93.088C73.6025 92.8173 73.9665 92.6353 74.4519 92.542L76.5939 92.136V91.562C76.5939 90.9553 76.2952 90.652 75.6979 90.652C75.4085 90.652 75.1005 90.7173 74.7739 90.848C74.4565 90.9787 74.0972 91.184 73.6959 91.464L73.5559 91.38L73.3459 90.148C73.7472 89.896 74.1765 89.7047 74.6339 89.574C75.0912 89.434 75.5485 89.364 76.0059 89.364ZM75.0959 93.396C74.9465 93.4333 74.8345 93.4987 74.7599 93.592C74.6945 93.676 74.6619 93.8067 74.6619 93.984C74.6619 94.2267 74.7272 94.418 74.8579 94.558C74.9885 94.6887 75.1705 94.754 75.4039 94.754C75.7679 94.754 76.1505 94.5393 76.5519 94.11L76.5799 93.074L75.0959 93.396ZM78.3019 86.732V86.886L77.3219 88.132L77.1399 88.202C76.8879 88.174 76.5005 88.0853 75.9779 87.936C75.9312 87.9267 75.7772 87.8893 75.5159 87.824C75.2639 87.7493 75.0865 87.712 74.9839 87.712C74.8812 87.712 74.7785 87.754 74.6759 87.838C74.5825 87.922 74.4799 88.0247 74.3679 88.146C74.2559 88.2673 74.1719 88.3607 74.1159 88.426H73.9479L73.3879 87.88V87.726L74.3819 86.48L74.5499 86.41C74.7739 86.438 75.1705 86.5313 75.7399 86.69C76.2625 86.83 76.5845 86.9 76.7059 86.9C76.8179 86.9 76.9252 86.8533 77.0279 86.76C77.1399 86.6667 77.2519 86.5593 77.3639 86.438C77.4759 86.3167 77.5505 86.2327 77.5879 86.186H77.7559L78.3019 86.732ZM82.8861 89.364C83.8381 89.364 84.5661 89.644 85.0701 90.204C85.5741 90.764 85.8261 91.5713 85.8261 92.626C85.8261 93.7647 85.5554 94.6373 85.0141 95.244C84.4728 95.8413 83.6934 96.14 82.6761 96.14C81.7241 96.14 80.9961 95.86 80.4921 95.3C79.9881 94.74 79.7361 93.9327 79.7361 92.878C79.7361 91.7393 80.0068 90.8713 80.5481 90.274C81.0894 89.6673 81.8688 89.364 82.8861 89.364ZM82.7601 90.624C82.3121 90.624 81.9854 90.7733 81.7801 91.072C81.5841 91.3707 81.4861 91.8513 81.4861 92.514C81.4861 93.3727 81.5888 93.984 81.7941 94.348C81.9994 94.712 82.3354 94.894 82.8021 94.894C83.2501 94.894 83.5721 94.7493 83.7681 94.46C83.9734 94.1613 84.0761 93.676 84.0761 93.004C84.0761 92.1547 83.9688 91.548 83.7541 91.184C83.5488 90.8107 83.2174 90.624 82.7601 90.624ZM87.7579 94.152C88.1779 94.488 88.3879 94.8893 88.3879 95.356C88.3879 96.168 87.8232 96.9753 86.6939 97.778L86.0919 97.246L86.0779 97.106C86.5912 96.6767 86.8479 96.2193 86.8479 95.734C86.8479 95.4167 86.6985 95.1367 86.3999 94.894L86.4139 94.74C86.8432 94.4787 87.2912 94.2827 87.7579 94.152ZM99.7262 96L99.8382 91.94C99.8382 91.2493 99.5442 90.904 98.9562 90.904C98.5362 90.904 98.0976 91.0907 97.6402 91.464L97.5982 93.144L97.6822 96H95.8202L95.9322 91.94C95.9416 91.604 95.8669 91.3473 95.7082 91.17C95.5589 90.9927 95.3396 90.904 95.0502 90.904C94.6396 90.904 94.1869 91.1 93.6922 91.492V93.13L93.7762 96H91.9282L92.0262 93.312L91.9562 89.616L93.7062 89.462V90.414H93.8042C94.3176 89.9473 94.8822 89.6113 95.4982 89.406C96.5436 89.406 97.2109 89.756 97.5002 90.456H97.5842C98.1162 89.9613 98.7229 89.6113 99.4042 89.406C100.114 89.406 100.65 89.5693 101.014 89.896C101.388 90.2133 101.565 90.6753 101.546 91.282L101.504 93.144L101.588 96H99.7262ZM108.261 92.976L104.481 93.004C104.565 94.1707 105.158 94.754 106.259 94.754C106.838 94.754 107.482 94.5907 108.191 94.264L108.345 94.362L108.065 95.748C107.356 96.0093 106.689 96.14 106.063 96.14C105.037 96.14 104.229 95.8413 103.641 95.244C103.063 94.6467 102.773 93.8207 102.773 92.766C102.773 91.7207 103.058 90.8947 103.627 90.288C104.197 89.672 104.967 89.364 105.937 89.364C106.768 89.364 107.407 89.5927 107.855 90.05C108.313 90.498 108.541 91.128 108.541 91.94C108.541 92.1547 108.518 92.4253 108.471 92.752L108.261 92.976ZM106.917 91.73C106.917 91.3567 106.833 91.0767 106.665 90.89C106.497 90.694 106.25 90.596 105.923 90.596C105.559 90.596 105.256 90.7173 105.013 90.96C104.771 91.1933 104.607 91.534 104.523 91.982L106.889 91.926L106.917 91.73ZM115.257 93.13L115.299 94.306C115.299 94.4647 115.317 94.5767 115.355 94.642C115.401 94.698 115.481 94.726 115.593 94.726C115.695 94.726 115.821 94.7073 115.971 94.67L116.097 94.782L115.943 95.762C115.625 95.958 115.28 96.0747 114.907 96.112C114.617 96.084 114.375 95.986 114.179 95.818C113.983 95.65 113.847 95.4213 113.773 95.132H113.661C113.203 95.552 112.737 95.874 112.261 96.098C111.346 96.098 110.637 95.8087 110.133 95.23C109.629 94.642 109.377 93.83 109.377 92.794C109.377 91.6927 109.666 90.848 110.245 90.26C110.823 89.672 111.626 89.378 112.653 89.378C112.923 89.378 113.222 89.406 113.549 89.462L113.521 86.312L115.369 86.172L115.257 93.13ZM112.527 90.638C111.593 90.638 111.127 91.2307 111.127 92.416C111.127 93.1533 111.239 93.7087 111.463 94.082C111.687 94.4553 112.013 94.642 112.443 94.642C112.853 94.642 113.231 94.4507 113.577 94.068L113.605 93.298L113.563 90.89C113.199 90.722 112.853 90.638 112.527 90.638ZM117.32 93.312L117.25 89.616L119.084 89.462L119 93.13L119.084 96H117.222L117.32 93.312ZM118.202 86.298C118.491 86.298 118.715 86.382 118.874 86.55C119.042 86.718 119.126 86.9513 119.126 87.25C119.126 87.5673 119.037 87.8193 118.86 88.006C118.683 88.1927 118.44 88.286 118.132 88.286C117.824 88.286 117.586 88.202 117.418 88.034C117.259 87.866 117.18 87.628 117.18 87.32C117.18 87.012 117.269 86.7647 117.446 86.578C117.633 86.3913 117.885 86.298 118.202 86.298ZM123.476 94.628C123.775 94.628 124.088 94.5487 124.414 94.39L124.568 94.53L124.386 95.636C123.91 95.8787 123.425 96.028 122.93 96.084C121.67 95.9533 121.04 95.3373 121.04 94.236L121.11 93.074L121.096 90.666H120.228L120.158 90.568L120.256 89.546H121.082V88.468L122.776 87.922L122.902 88.034L122.86 89.546H124.526L124.582 89.644L124.498 90.666H122.832L122.748 93.802C122.748 94.1007 122.804 94.3153 122.916 94.446C123.028 94.5673 123.215 94.628 123.476 94.628ZM128.137 89.364C128.855 89.364 129.415 89.5273 129.817 89.854C130.227 90.1713 130.433 90.6193 130.433 91.198C130.433 91.366 130.405 91.898 130.349 92.794C130.339 93.0553 130.325 93.326 130.307 93.606C130.288 93.8767 130.279 94.11 130.279 94.306C130.279 94.4647 130.302 94.5767 130.349 94.642C130.395 94.698 130.479 94.726 130.601 94.726C130.694 94.726 130.815 94.7073 130.965 94.67L131.105 94.782L130.937 95.762C130.638 95.958 130.297 96.0747 129.915 96.112C129.635 96.084 129.401 95.986 129.215 95.818C129.028 95.6407 128.902 95.398 128.837 95.09H128.739C128.272 95.5847 127.791 95.93 127.297 96.126C126.625 96.1167 126.097 95.9393 125.715 95.594C125.332 95.2487 125.141 94.7773 125.141 94.18C125.141 93.7133 125.257 93.3493 125.491 93.088C125.733 92.8173 126.097 92.6353 126.583 92.542L128.725 92.136V91.562C128.725 90.9553 128.426 90.652 127.829 90.652C127.539 90.652 127.231 90.7173 126.905 90.848C126.587 90.9787 126.228 91.184 125.827 91.464L125.687 91.38L125.477 90.148C125.878 89.896 126.307 89.7047 126.765 89.574C127.222 89.434 127.679 89.364 128.137 89.364ZM127.227 93.396C127.077 93.4333 126.965 93.4987 126.891 93.592C126.825 93.676 126.793 93.8067 126.793 93.984C126.793 94.2267 126.858 94.418 126.989 94.558C127.119 94.6887 127.301 94.754 127.535 94.754C127.899 94.754 128.281 94.5393 128.683 94.11L128.711 93.074L127.227 93.396ZM134.989 89.364C135.297 89.364 135.6 89.3967 135.899 89.462C136.207 89.518 136.478 89.602 136.711 89.714L136.403 91.198L136.249 91.268C135.773 91.0067 135.348 90.876 134.975 90.876C134.546 90.876 134.214 91.03 133.981 91.338C133.748 91.646 133.631 92.0847 133.631 92.654C133.631 93.3073 133.757 93.8067 134.009 94.152C134.261 94.4973 134.62 94.67 135.087 94.67C135.507 94.67 135.974 94.5533 136.487 94.32L136.627 94.432L136.445 95.874C135.885 96.0513 135.311 96.14 134.723 96.14C133.827 96.14 133.127 95.8507 132.623 95.272C132.119 94.684 131.867 93.8673 131.867 92.822C131.867 91.7393 132.142 90.8947 132.693 90.288C133.244 89.672 134.009 89.364 134.989 89.364ZM134.975 96.672L135.451 96.938C135.656 97.05 135.801 97.1713 135.885 97.302C135.978 97.442 136.025 97.596 136.025 97.764C136.025 98.072 135.904 98.324 135.661 98.52C135.418 98.716 135.101 98.814 134.709 98.814C134.289 98.814 133.906 98.6833 133.561 98.422L133.687 97.638L133.771 97.596C134.051 97.876 134.326 98.016 134.597 98.016C134.821 98.016 134.933 97.918 134.933 97.722C134.933 97.6567 134.914 97.6007 134.877 97.554C134.84 97.5167 134.779 97.4793 134.695 97.442L134.009 97.05L134.331 95.636H135.227L134.975 96.672ZM140.127 89.364C140.846 89.364 141.406 89.5273 141.807 89.854C142.218 90.1713 142.423 90.6193 142.423 91.198C142.423 91.366 142.395 91.898 142.339 92.794C142.33 93.0553 142.316 93.326 142.297 93.606C142.278 93.8767 142.269 94.11 142.269 94.306C142.269 94.4647 142.292 94.5767 142.339 94.642C142.386 94.698 142.47 94.726 142.591 94.726C142.684 94.726 142.806 94.7073 142.955 94.67L143.095 94.782L142.927 95.762C142.628 95.958 142.288 96.0747 141.905 96.112C141.625 96.084 141.392 95.986 141.205 95.818C141.018 95.6407 140.892 95.398 140.827 95.09H140.729C140.262 95.5847 139.782 95.93 139.287 96.126C138.615 96.1167 138.088 95.9393 137.705 95.594C137.322 95.2487 137.131 94.7773 137.131 94.18C137.131 93.7133 137.248 93.3493 137.481 93.088C137.724 92.8173 138.088 92.6353 138.573 92.542L140.715 92.136V91.562C140.715 90.9553 140.416 90.652 139.819 90.652C139.53 90.652 139.222 90.7173 138.895 90.848C138.578 90.9787 138.218 91.184 137.817 91.464L137.677 91.38L137.467 90.148C137.868 89.896 138.298 89.7047 138.755 89.574C139.212 89.434 139.67 89.364 140.127 89.364ZM139.217 93.396C139.068 93.4333 138.956 93.4987 138.881 93.592C138.816 93.676 138.783 93.8067 138.783 93.984C138.783 94.2267 138.848 94.418 138.979 94.558C139.11 94.6887 139.292 94.754 139.525 94.754C139.889 94.754 140.272 94.5393 140.673 94.11L140.701 93.074L139.217 93.396ZM142.423 86.732V86.886L141.443 88.132L141.261 88.202C141.009 88.174 140.622 88.0853 140.099 87.936C140.052 87.9267 139.898 87.8893 139.637 87.824C139.385 87.7493 139.208 87.712 139.105 87.712C139.002 87.712 138.9 87.754 138.797 87.838C138.704 87.922 138.601 88.0247 138.489 88.146C138.377 88.2673 138.293 88.3607 138.237 88.426H138.069L137.509 87.88V87.726L138.503 86.48L138.671 86.41C138.895 86.438 139.292 86.5313 139.861 86.69C140.384 86.83 140.706 86.9 140.827 86.9C140.939 86.9 141.046 86.8533 141.149 86.76C141.261 86.6667 141.373 86.5593 141.485 86.438C141.597 86.3167 141.672 86.2327 141.709 86.186H141.877L142.423 86.732ZM147.007 89.364C147.959 89.364 148.687 89.644 149.191 90.204C149.695 90.764 149.947 91.5713 149.947 92.626C149.947 93.7647 149.677 94.6373 149.135 95.244C148.594 95.8413 147.815 96.14 146.797 96.14C145.845 96.14 145.117 95.86 144.613 95.3C144.109 94.74 143.857 93.9327 143.857 92.878C143.857 91.7393 144.128 90.8713 144.669 90.274C145.211 89.6673 145.99 89.364 147.007 89.364ZM146.881 90.624C146.433 90.624 146.107 90.7733 145.901 91.072C145.705 91.3707 145.607 91.8513 145.607 92.514C145.607 93.3727 145.71 93.984 145.915 94.348C146.121 94.712 146.457 94.894 146.923 94.894C147.371 94.894 147.693 94.7493 147.889 94.46C148.095 94.1613 148.197 93.676 148.197 93.004C148.197 92.1547 148.09 91.548 147.875 91.184C147.67 90.8107 147.339 90.624 146.881 90.624ZM49.2397 108.976L45.4597 109.004C45.5437 110.171 46.1364 110.754 47.2377 110.754C47.8164 110.754 48.4604 110.591 49.1697 110.264L49.3237 110.362L49.0437 111.748C48.3344 112.009 47.6671 112.14 47.0417 112.14C46.0151 112.14 45.2077 111.841 44.6197 111.244C44.0411 110.647 43.7517 109.821 43.7517 108.766C43.7517 107.721 44.0364 106.895 44.6057 106.288C45.1751 105.672 45.9451 105.364 46.9157 105.364C47.7464 105.364 48.3857 105.593 48.8337 106.05C49.2911 106.498 49.5197 107.128 49.5197 107.94C49.5197 108.155 49.4964 108.425 49.4497 108.752L49.2397 108.976ZM47.8957 107.73C47.8957 107.357 47.8117 107.077 47.6437 106.89C47.4757 106.694 47.2284 106.596 46.9017 106.596C46.5377 106.596 46.2344 106.717 45.9917 106.96C45.7491 107.193 45.5857 107.534 45.5017 107.982L47.8677 107.926L47.8957 107.73ZM56.5204 105.476C56.6044 105.476 56.721 105.485 56.8704 105.504V107.226L56.6744 107.296C56.5157 107.231 56.343 107.198 56.1564 107.198C55.615 107.198 55.125 107.548 54.6864 108.248V109.13L54.7844 112H52.9224L53.0344 109.312L52.9504 105.616L54.7144 105.462L54.7004 106.736H54.8124C55.2697 105.896 55.839 105.476 56.5204 105.476ZM62.8296 108.976L59.0496 109.004C59.1336 110.171 59.7262 110.754 60.8276 110.754C61.4062 110.754 62.0502 110.591 62.7596 110.264L62.9136 110.362L62.6336 111.748C61.9242 112.009 61.2569 112.14 60.6316 112.14C59.6049 112.14 58.7976 111.841 58.2096 111.244C57.6309 110.647 57.3416 109.821 57.3416 108.766C57.3416 107.721 57.6262 106.895 58.1956 106.288C58.7649 105.672 59.5349 105.364 60.5056 105.364C61.3362 105.364 61.9756 105.593 62.4236 106.05C62.8809 106.498 63.1096 107.128 63.1096 107.94C63.1096 108.155 63.0862 108.425 63.0396 108.752L62.8296 108.976ZM61.4856 107.73C61.4856 107.357 61.4016 107.077 61.2336 106.89C61.0656 106.694 60.8182 106.596 60.4916 106.596C60.1276 106.596 59.8242 106.717 59.5816 106.96C59.3389 107.193 59.1756 107.534 59.0916 107.982L61.4576 107.926L61.4856 107.73ZM66.1584 109.13L66.2564 112H64.3944L64.4924 109.298L64.4084 102.312L66.2704 102.172L66.1584 109.13ZM70.5781 105.364C71.2968 105.364 71.8568 105.527 72.2581 105.854C72.6688 106.171 72.8741 106.619 72.8741 107.198C72.8741 107.366 72.8461 107.898 72.7901 108.794C72.7808 109.055 72.7668 109.326 72.7481 109.606C72.7295 109.877 72.7201 110.11 72.7201 110.306C72.7201 110.465 72.7435 110.577 72.7901 110.642C72.8368 110.698 72.9208 110.726 73.0421 110.726C73.1355 110.726 73.2568 110.707 73.4061 110.67L73.5461 110.782L73.3781 111.762C73.0795 111.958 72.7388 112.075 72.3561 112.112C72.0761 112.084 71.8428 111.986 71.6561 111.818C71.4695 111.641 71.3435 111.398 71.2781 111.09H71.1801C70.7135 111.585 70.2328 111.93 69.7381 112.126C69.0661 112.117 68.5388 111.939 68.1561 111.594C67.7735 111.249 67.5821 110.777 67.5821 110.18C67.5821 109.713 67.6988 109.349 67.9321 109.088C68.1748 108.817 68.5388 108.635 69.0241 108.542L71.1661 108.136V107.562C71.1661 106.955 70.8675 106.652 70.2701 106.652C69.9808 106.652 69.6728 106.717 69.3461 106.848C69.0288 106.979 68.6695 107.184 68.2681 107.464L68.1281 107.38L67.9181 106.148C68.3195 105.896 68.7488 105.705 69.2061 105.574C69.6635 105.434 70.1208 105.364 70.5781 105.364ZM69.6681 109.396C69.5188 109.433 69.4068 109.499 69.3321 109.592C69.2668 109.676 69.2341 109.807 69.2341 109.984C69.2341 110.227 69.2995 110.418 69.4301 110.558C69.5608 110.689 69.7428 110.754 69.9761 110.754C70.3401 110.754 70.7228 110.539 71.1241 110.11L71.1521 109.074L69.6681 109.396ZM76.3664 106.218L77.2624 107.674L78.1444 106.162L78.4944 105.504H80.1324L78.2564 108.696L80.2164 111.944L78.2564 112.084L77.9344 111.258L77.0104 109.76L76.0444 111.342L75.7364 112H74.0984L75.9884 108.738L74.0844 105.546L76.0724 105.448L76.3664 106.218ZM83.5527 105.364C84.2714 105.364 84.8314 105.527 85.2327 105.854C85.6434 106.171 85.8487 106.619 85.8487 107.198C85.8487 107.366 85.8207 107.898 85.7647 108.794C85.7554 109.055 85.7414 109.326 85.7227 109.606C85.7041 109.877 85.6947 110.11 85.6947 110.306C85.6947 110.465 85.7181 110.577 85.7647 110.642C85.8114 110.698 85.8954 110.726 86.0167 110.726C86.1101 110.726 86.2314 110.707 86.3807 110.67L86.5207 110.782L86.3527 111.762C86.0541 111.958 85.7134 112.075 85.3307 112.112C85.0507 112.084 84.8174 111.986 84.6307 111.818C84.4441 111.641 84.3181 111.398 84.2527 111.09H84.1547C83.6881 111.585 83.2074 111.93 82.7127 112.126C82.0407 112.117 81.5134 111.939 81.1307 111.594C80.7481 111.249 80.5567 110.777 80.5567 110.18C80.5567 109.713 80.6734 109.349 80.9067 109.088C81.1494 108.817 81.5134 108.635 81.9987 108.542L84.1407 108.136V107.562C84.1407 106.955 83.8421 106.652 83.2447 106.652C82.9554 106.652 82.6474 106.717 82.3207 106.848C82.0034 106.979 81.6441 107.184 81.2427 107.464L81.1027 107.38L80.8927 106.148C81.2941 105.896 81.7234 105.705 82.1807 105.574C82.6381 105.434 83.0954 105.364 83.5527 105.364ZM82.6427 109.396C82.4934 109.433 82.3814 109.499 82.3067 109.592C82.2414 109.676 82.2087 109.807 82.2087 109.984C82.2087 110.227 82.2741 110.418 82.4047 110.558C82.5354 110.689 82.7174 110.754 82.9507 110.754C83.3147 110.754 83.6974 110.539 84.0987 110.11L84.1267 109.074L82.6427 109.396ZM95.4469 112L95.5589 107.94C95.5589 107.249 95.2649 106.904 94.6769 106.904C94.2569 106.904 93.8183 107.091 93.3609 107.464L93.3189 109.144L93.4029 112H91.5409L91.6529 107.94C91.6623 107.604 91.5876 107.347 91.4289 107.17C91.2796 106.993 91.0603 106.904 90.7709 106.904C90.3603 106.904 89.9076 107.1 89.4129 107.492V109.13L89.4969 112H87.6489L87.7469 109.312L87.6769 105.616L89.4269 105.462V106.414H89.5249C90.0383 105.947 90.6029 105.611 91.2189 105.406C92.2643 105.406 92.9316 105.756 93.2209 106.456H93.3049C93.8369 105.961 94.4436 105.611 95.1249 105.406C95.8343 105.406 96.3709 105.569 96.7349 105.896C97.1083 106.213 97.2856 106.675 97.2669 107.282L97.2249 109.144L97.3089 112H95.4469ZM103.982 108.976L100.202 109.004C100.286 110.171 100.879 110.754 101.98 110.754C102.559 110.754 103.203 110.591 103.912 110.264L104.066 110.362L103.786 111.748C103.077 112.009 102.409 112.14 101.784 112.14C100.757 112.14 99.9499 111.841 99.3619 111.244C98.7832 110.647 98.4939 109.821 98.4939 108.766C98.4939 107.721 98.7786 106.895 99.3479 106.288C99.9172 105.672 100.687 105.364 101.658 105.364C102.489 105.364 103.128 105.593 103.576 106.05C104.033 106.498 104.262 107.128 104.262 107.94C104.262 108.155 104.239 108.425 104.192 108.752L103.982 108.976ZM102.638 107.73C102.638 107.357 102.554 107.077 102.386 106.89C102.218 106.694 101.971 106.596 101.644 106.596C101.28 106.596 100.977 106.717 100.734 106.96C100.491 107.193 100.328 107.534 100.244 107.982L102.61 107.926L102.638 107.73ZM109.549 107.94C109.559 107.613 109.484 107.361 109.325 107.184C109.176 106.997 108.957 106.904 108.667 106.904C108.247 106.904 107.799 107.105 107.323 107.506V109.13L107.407 112H105.545L105.643 109.312L105.573 105.616L107.337 105.462V106.414H107.435C107.949 105.947 108.509 105.611 109.115 105.406C109.825 105.406 110.366 105.569 110.739 105.896C111.113 106.213 111.29 106.675 111.271 107.282L111.229 109.144L111.313 112H109.437L109.549 107.94ZM115.588 110.628C115.886 110.628 116.199 110.549 116.526 110.39L116.68 110.53L116.498 111.636C116.022 111.879 115.536 112.028 115.042 112.084C113.782 111.953 113.152 111.337 113.152 110.236L113.222 109.074L113.208 106.666H112.34L112.27 106.568L112.368 105.546H113.194V104.468L114.888 103.922L115.014 104.034L114.972 105.546H116.638L116.694 105.644L116.61 106.666H114.944L114.86 109.802C114.86 110.101 114.916 110.315 115.028 110.446C115.14 110.567 115.326 110.628 115.588 110.628ZM120.292 105.364C121.244 105.364 121.972 105.644 122.476 106.204C122.98 106.764 123.232 107.571 123.232 108.626C123.232 109.765 122.962 110.637 122.42 111.244C121.879 111.841 121.1 112.14 120.082 112.14C119.13 112.14 118.402 111.86 117.898 111.3C117.394 110.74 117.142 109.933 117.142 108.878C117.142 107.739 117.413 106.871 117.954 106.274C118.496 105.667 119.275 105.364 120.292 105.364ZM120.166 106.624C119.718 106.624 119.392 106.773 119.186 107.072C118.99 107.371 118.892 107.851 118.892 108.514C118.892 109.373 118.995 109.984 119.2 110.348C119.406 110.712 119.742 110.894 120.208 110.894C120.656 110.894 120.978 110.749 121.174 110.46C121.38 110.161 121.482 109.676 121.482 109.004C121.482 108.155 121.375 107.548 121.16 107.184C120.955 106.811 120.624 106.624 120.166 106.624ZM28.5099 121.406C29.3219 121.406 29.9473 121.681 30.3859 122.232C30.8246 122.783 31.0439 123.562 31.0439 124.57C31.0439 125.709 30.7593 126.591 30.1899 127.216C29.6299 127.832 28.8366 128.14 27.8099 128.14C27.5113 128.14 27.1986 128.112 26.8719 128.056L26.9139 130.59H25.0659L25.1639 125.312L25.0799 121.616L26.8579 121.462L26.8439 122.414H26.9419C27.2033 122.162 27.4553 121.961 27.6979 121.812C27.9406 121.653 28.2113 121.518 28.5099 121.406ZM27.8239 126.922C28.3093 126.922 28.6779 126.749 28.9299 126.404C29.1819 126.059 29.3079 125.55 29.3079 124.878C29.3079 124.225 29.2006 123.735 28.9859 123.408C28.7806 123.072 28.4726 122.904 28.0619 122.904C27.6606 122.904 27.2546 123.105 26.8439 123.506L26.8299 125.13L26.8579 126.712C27.1939 126.852 27.5159 126.922 27.8239 126.922ZM35.828 121.476C35.912 121.476 36.0287 121.485 36.178 121.504V123.226L35.982 123.296C35.8233 123.231 35.6507 123.198 35.464 123.198C34.9227 123.198 34.4327 123.548 33.994 124.248V125.13L34.092 128H32.23L32.342 125.312L32.258 121.616L34.022 121.462L34.008 122.736H34.12C34.5773 121.896 35.1467 121.476 35.828 121.476ZM39.7992 121.364C40.7512 121.364 41.4792 121.644 41.9832 122.204C42.4872 122.764 42.7392 123.571 42.7392 124.626C42.7392 125.765 42.4685 126.637 41.9272 127.244C41.3859 127.841 40.6065 128.14 39.5892 128.14C38.6372 128.14 37.9092 127.86 37.4052 127.3C36.9012 126.74 36.6492 125.933 36.6492 124.878C36.6492 123.739 36.9199 122.871 37.4612 122.274C38.0025 121.667 38.7819 121.364 39.7992 121.364ZM39.6732 122.624C39.2252 122.624 38.8985 122.773 38.6932 123.072C38.4972 123.371 38.3992 123.851 38.3992 124.514C38.3992 125.373 38.5019 125.984 38.7072 126.348C38.9125 126.712 39.2485 126.894 39.7152 126.894C40.1632 126.894 40.4852 126.749 40.6812 126.46C40.8865 126.161 40.9892 125.676 40.9892 125.004C40.9892 124.155 40.8819 123.548 40.6672 123.184C40.4619 122.811 40.1305 122.624 39.6732 122.624ZM51.7311 128L51.8431 123.94C51.8431 123.249 51.5491 122.904 50.9611 122.904C50.5411 122.904 50.1025 123.091 49.6451 123.464L49.6031 125.144L49.6871 128H47.8251L47.9371 123.94C47.9465 123.604 47.8718 123.347 47.7131 123.17C47.5638 122.993 47.3445 122.904 47.0551 122.904C46.6445 122.904 46.1918 123.1 45.6971 123.492V125.13L45.7811 128H43.9331L44.0311 125.312L43.9611 121.616L45.7111 121.462V122.414H45.8091C46.3225 121.947 46.8871 121.611 47.5031 121.406C48.5485 121.406 49.2158 121.756 49.5051 122.456H49.5891C50.1211 121.961 50.7278 121.611 51.4091 121.406C52.1185 121.406 52.6551 121.569 53.0191 121.896C53.3925 122.213 53.5698 122.675 53.5511 123.282L53.5091 125.144L53.5931 128H51.7311ZM57.9281 121.364C58.8801 121.364 59.6081 121.644 60.1121 122.204C60.6161 122.764 60.8681 123.571 60.8681 124.626C60.8681 125.765 60.5974 126.637 60.0561 127.244C59.5148 127.841 58.7354 128.14 57.7181 128.14C56.7661 128.14 56.0381 127.86 55.5341 127.3C55.0301 126.74 54.7781 125.933 54.7781 124.878C54.7781 123.739 55.0488 122.871 55.5901 122.274C56.1314 121.667 56.9108 121.364 57.9281 121.364ZM57.8021 122.624C57.3541 122.624 57.0274 122.773 56.8221 123.072C56.6261 123.371 56.5281 123.851 56.5281 124.514C56.5281 125.373 56.6308 125.984 56.8361 126.348C57.0414 126.712 57.3774 126.894 57.8441 126.894C58.2921 126.894 58.6141 126.749 58.8101 126.46C59.0154 126.161 59.1181 125.676 59.1181 125.004C59.1181 124.155 59.0108 123.548 58.7961 123.184C58.5908 122.811 58.2594 122.624 57.8021 122.624ZM63.198 122.526L64.178 126.25H64.276L65.452 122.624L65.69 121.49H67.314L65.13 128H63.128L61.28 121.532L63.016 121.448L63.198 122.526ZM73.0903 124.976L69.3103 125.004C69.3943 126.171 69.987 126.754 71.0883 126.754C71.667 126.754 72.311 126.591 73.0203 126.264L73.1743 126.362L72.8943 127.748C72.185 128.009 71.5176 128.14 70.8923 128.14C69.8656 128.14 69.0583 127.841 68.4703 127.244C67.8916 126.647 67.6023 125.821 67.6023 124.766C67.6023 123.721 67.887 122.895 68.4563 122.288C69.0256 121.672 69.7956 121.364 70.7663 121.364C71.597 121.364 72.2363 121.593 72.6843 122.05C73.1416 122.498 73.3703 123.128 73.3703 123.94C73.3703 124.155 73.347 124.425 73.3003 124.752L73.0903 124.976ZM71.7463 123.73C71.7463 123.357 71.6623 123.077 71.4943 122.89C71.3263 122.694 71.079 122.596 70.7523 122.596C70.3883 122.596 70.085 122.717 69.8423 122.96C69.5996 123.193 69.4363 123.534 69.3523 123.982L71.7183 123.926L71.7463 123.73ZM82.4518 128L82.5638 123.94C82.5638 123.249 82.2698 122.904 81.6818 122.904C81.2618 122.904 80.8232 123.091 80.3658 123.464L80.3238 125.144L80.4078 128H78.5458L78.6578 123.94C78.6672 123.604 78.5925 123.347 78.4338 123.17C78.2845 122.993 78.0652 122.904 77.7758 122.904C77.3652 122.904 76.9125 123.1 76.4178 123.492V125.13L76.5018 128H74.6538L74.7518 125.312L74.6818 121.616L76.4318 121.462V122.414H76.5298C77.0432 121.947 77.6078 121.611 78.2238 121.406C79.2692 121.406 79.9365 121.756 80.2258 122.456H80.3098C80.8418 121.961 81.4485 121.611 82.1298 121.406C82.8392 121.406 83.3758 121.569 83.7398 121.896C84.1132 122.213 84.2905 122.675 84.2718 123.282L84.2298 125.144L84.3138 128H82.4518ZM91.5799 121.406C92.4013 121.406 93.0266 121.686 93.4559 122.246C93.8946 122.797 94.1139 123.567 94.1139 124.556C94.1139 125.704 93.8293 126.591 93.2599 127.216C92.6906 127.832 91.9019 128.14 90.8939 128.14C90.4179 128.14 89.8953 128.033 89.3259 127.818L88.3459 128.168L88.1219 127.986L88.2199 125.326L88.1359 118.312L89.9839 118.172L89.9279 122.414H90.0119C90.2733 122.162 90.5253 121.961 90.7679 121.812C91.0106 121.653 91.2813 121.518 91.5799 121.406ZM90.8939 126.922C91.3606 126.922 91.7246 126.754 91.9859 126.418C92.2473 126.082 92.3779 125.569 92.3779 124.878C92.3779 124.234 92.2706 123.744 92.0559 123.408C91.8506 123.072 91.5379 122.904 91.1179 122.904C90.7353 122.904 90.3339 123.1 89.9139 123.492L89.8859 125.088L89.9139 126.67C90.2593 126.838 90.5859 126.922 90.8939 126.922ZM100.434 124.976L96.6541 125.004C96.7381 126.171 97.3307 126.754 98.4321 126.754C99.0107 126.754 99.6547 126.591 100.364 126.264L100.518 126.362L100.238 127.748C99.5287 128.009 98.8614 128.14 98.2361 128.14C97.2094 128.14 96.4021 127.841 95.8141 127.244C95.2354 126.647 94.9461 125.821 94.9461 124.766C94.9461 123.721 95.2307 122.895 95.8001 122.288C96.3694 121.672 97.1394 121.364 98.1101 121.364C98.9407 121.364 99.5801 121.593 100.028 122.05C100.485 122.498 100.714 123.128 100.714 123.94C100.714 124.155 100.691 124.425 100.644 124.752L100.434 124.976ZM99.0901 123.73C99.0901 123.357 99.0061 123.077 98.8381 122.89C98.6701 122.694 98.4227 122.596 98.0961 122.596C97.7321 122.596 97.4287 122.717 97.1861 122.96C96.9434 123.193 96.7801 123.534 96.6961 123.982L99.0621 123.926L99.0901 123.73ZM109.796 128L109.908 123.94C109.908 123.249 109.614 122.904 109.026 122.904C108.606 122.904 108.167 123.091 107.71 123.464L107.668 125.144L107.752 128H105.89L106.002 123.94C106.011 123.604 105.936 123.347 105.778 123.17C105.628 122.993 105.409 122.904 105.12 122.904C104.709 122.904 104.256 123.1 103.762 123.492V125.13L103.846 128H101.998L102.096 125.312L102.026 121.616L103.776 121.462V122.414H103.874C104.387 121.947 104.952 121.611 105.568 121.406C106.613 121.406 107.28 121.756 107.57 122.456H107.654C108.186 121.961 108.792 121.611 109.474 121.406C110.183 121.406 110.72 121.569 111.084 121.896C111.457 122.213 111.634 122.675 111.616 123.282L111.574 125.144L111.658 128H109.796ZM120.45 124.976L116.67 125.004C116.754 126.171 117.346 126.754 118.448 126.754C119.026 126.754 119.67 126.591 120.38 126.264L120.534 126.362L120.254 127.748C119.544 128.009 118.877 128.14 118.252 128.14C117.225 128.14 116.418 127.841 115.83 127.244C115.251 126.647 114.962 125.821 114.962 124.766C114.962 123.721 115.246 122.895 115.816 122.288C116.385 121.672 117.155 121.364 118.126 121.364C118.956 121.364 119.596 121.593 120.044 122.05C120.501 122.498 120.73 123.128 120.73 123.94C120.73 124.155 120.706 124.425 120.66 124.752L120.45 124.976ZM119.106 123.73C119.106 123.357 119.022 123.077 118.854 122.89C118.686 122.694 118.438 122.596 118.112 122.596C117.748 122.596 117.444 122.717 117.202 122.96C116.959 123.193 116.796 123.534 116.712 123.982L119.078 123.926L119.106 123.73ZM124.197 121.378C124.832 121.378 125.429 121.485 125.989 121.7L125.737 123.072L125.513 123.142C125.243 122.965 124.972 122.829 124.701 122.736C124.431 122.643 124.193 122.596 123.987 122.596C123.763 122.596 123.586 122.657 123.455 122.778C123.325 122.89 123.259 123.03 123.259 123.198C123.259 123.394 123.343 123.553 123.511 123.674C123.689 123.795 123.964 123.931 124.337 124.08C124.711 124.229 125.019 124.374 125.261 124.514C125.504 124.654 125.709 124.85 125.877 125.102C126.055 125.345 126.143 125.648 126.143 126.012C126.143 126.385 126.045 126.735 125.849 127.062C125.663 127.379 125.373 127.641 124.981 127.846C124.589 128.042 124.109 128.14 123.539 128.14C122.867 128.14 122.172 128 121.453 127.72L121.663 126.264L121.845 126.152C122.135 126.395 122.457 126.591 122.811 126.74C123.166 126.88 123.479 126.95 123.749 126.95C124.001 126.95 124.197 126.889 124.337 126.768C124.477 126.637 124.547 126.483 124.547 126.306C124.547 126.11 124.459 125.951 124.281 125.83C124.113 125.709 123.843 125.573 123.469 125.424C123.087 125.256 122.774 125.107 122.531 124.976C122.289 124.836 122.079 124.64 121.901 124.388C121.733 124.136 121.649 123.823 121.649 123.45C121.649 122.843 121.878 122.349 122.335 121.966C122.793 121.574 123.413 121.378 124.197 121.378ZM130.018 126.628C130.317 126.628 130.63 126.549 130.956 126.39L131.11 126.53L130.928 127.636C130.452 127.879 129.967 128.028 129.472 128.084C128.212 127.953 127.582 127.337 127.582 126.236L127.652 125.074L127.638 122.666H126.77L126.7 122.568L126.798 121.546H127.624V120.468L129.318 119.922L129.444 120.034L129.402 121.546H131.068L131.124 121.644L131.04 122.666H129.374L129.29 125.802C129.29 126.101 129.346 126.315 129.458 126.446C129.57 126.567 129.757 126.628 130.018 126.628ZM134.679 121.364C135.397 121.364 135.957 121.527 136.359 121.854C136.769 122.171 136.975 122.619 136.975 123.198C136.975 123.366 136.947 123.898 136.891 124.794C136.881 125.055 136.867 125.326 136.849 125.606C136.83 125.877 136.821 126.11 136.821 126.306C136.821 126.465 136.844 126.577 136.891 126.642C136.937 126.698 137.021 126.726 137.143 126.726C137.236 126.726 137.357 126.707 137.507 126.67L137.647 126.782L137.479 127.762C137.18 127.958 136.839 128.075 136.457 128.112C136.177 128.084 135.943 127.986 135.757 127.818C135.57 127.641 135.444 127.398 135.379 127.09H135.281C134.814 127.585 134.333 127.93 133.839 128.126C133.167 128.117 132.639 127.939 132.257 127.594C131.874 127.249 131.683 126.777 131.683 126.18C131.683 125.713 131.799 125.349 132.033 125.088C132.275 124.817 132.639 124.635 133.125 124.542L135.267 124.136V123.562C135.267 122.955 134.968 122.652 134.371 122.652C134.081 122.652 133.773 122.717 133.447 122.848C133.129 122.979 132.77 123.184 132.369 123.464L132.229 123.38L132.019 122.148C132.42 121.896 132.849 121.705 133.307 121.574C133.764 121.434 134.221 121.364 134.679 121.364ZM133.769 125.396C133.619 125.433 133.507 125.499 133.433 125.592C133.367 125.676 133.335 125.807 133.335 125.984C133.335 126.227 133.4 126.418 133.531 126.558C133.661 126.689 133.843 126.754 134.077 126.754C134.441 126.754 134.823 126.539 135.225 126.11L135.253 125.074L133.769 125.396ZM142.373 121.476C142.457 121.476 142.574 121.485 142.723 121.504V123.226L142.527 123.296C142.368 123.231 142.196 123.198 142.009 123.198C141.468 123.198 140.978 123.548 140.539 124.248V125.13L140.637 128H138.775L138.887 125.312L138.803 121.616L140.567 121.462L140.553 122.736H140.665C141.122 121.896 141.692 121.476 142.373 121.476ZM76.2634 138.372C76.0114 138.437 75.6521 138.507 75.1854 138.582L75.1574 138.638C75.2974 138.918 75.3674 139.231 75.3674 139.576C75.3674 140.276 75.1107 140.836 74.5974 141.256C74.0934 141.667 73.4074 141.872 72.5394 141.872C72.2781 141.872 72.0074 141.849 71.7274 141.802C71.6434 141.886 71.5874 141.951 71.5594 141.998C71.5314 142.045 71.5174 142.101 71.5174 142.166C71.5174 142.334 71.6294 142.451 71.8534 142.516C72.0774 142.581 72.4321 142.647 72.9174 142.712C73.4681 142.777 73.9254 142.857 74.2894 142.95C74.6627 143.043 74.9801 143.207 75.2414 143.44C75.5121 143.673 75.6474 144.005 75.6474 144.434C75.6474 144.873 75.5074 145.265 75.2274 145.61C74.9567 145.965 74.5787 146.24 74.0934 146.436C73.6081 146.632 73.0574 146.73 72.4414 146.73C71.5921 146.73 70.9387 146.557 70.4814 146.212C70.0241 145.867 69.7954 145.409 69.7954 144.84C70.0847 144.439 70.4721 144.089 70.9574 143.79V143.72C70.6401 143.608 70.3927 143.454 70.2154 143.258C70.0381 143.053 69.9494 142.782 69.9494 142.446C70.2014 142.138 70.5187 141.853 70.9014 141.592V141.522C70.5654 141.335 70.3087 141.093 70.1314 140.794C69.9634 140.486 69.8794 140.127 69.8794 139.716C69.8794 138.988 70.1314 138.419 70.6354 138.008C71.1394 137.597 71.8254 137.392 72.6934 137.392C73.1974 137.392 73.6547 137.476 74.0654 137.644C74.7374 137.523 75.4234 137.336 76.1234 137.084L76.2634 137.21V138.372ZM72.5954 140.752C72.9781 140.752 73.2674 140.654 73.4634 140.458C73.6594 140.262 73.7574 139.977 73.7574 139.604C73.7574 138.895 73.3934 138.54 72.6654 138.54C71.8814 138.54 71.4894 138.899 71.4894 139.618C71.4894 139.991 71.5827 140.276 71.7694 140.472C71.9561 140.659 72.2314 140.752 72.5954 140.752ZM74.0794 144.77C74.0794 144.518 73.9441 144.345 73.6734 144.252C73.4121 144.159 73.0061 144.079 72.4554 144.014L71.9794 143.944C71.7554 144.093 71.5874 144.238 71.4754 144.378C71.3634 144.518 71.3074 144.667 71.3074 144.826C71.3074 145.069 71.4194 145.265 71.6434 145.414C71.8674 145.563 72.1941 145.638 72.6234 145.638C73.0621 145.638 73.4121 145.559 73.6734 145.4C73.9441 145.251 74.0794 145.041 74.0794 144.77ZM81.9907 140.976L78.2107 141.004C78.2947 142.171 78.8874 142.754 79.9887 142.754C80.5674 142.754 81.2114 142.591 81.9207 142.264L82.0747 142.362L81.7947 143.748C81.0854 144.009 80.418 144.14 79.7927 144.14C78.766 144.14 77.9587 143.841 77.3707 143.244C76.792 142.647 76.5027 141.821 76.5027 140.766C76.5027 139.721 76.7874 138.895 77.3567 138.288C77.926 137.672 78.696 137.364 79.6667 137.364C80.4974 137.364 81.1367 137.593 81.5847 138.05C82.042 138.498 82.2707 139.128 82.2707 139.94C82.2707 140.155 82.2474 140.425 82.2007 140.752L81.9907 140.976ZM80.6467 139.73C80.6467 139.357 80.5627 139.077 80.3947 138.89C80.2267 138.694 79.9794 138.596 79.6527 138.596C79.2887 138.596 78.9854 138.717 78.7427 138.96C78.5 139.193 78.3367 139.534 78.2527 139.982L80.6187 139.926L80.6467 139.73ZM87.1522 137.476C87.2362 137.476 87.3529 137.485 87.5022 137.504V139.226L87.3062 139.296C87.1476 139.231 86.9749 139.198 86.7882 139.198C86.2469 139.198 85.7569 139.548 85.3182 140.248V141.13L85.4162 144H83.5542L83.6662 141.312L83.5822 137.616L85.3462 137.462L85.3322 138.736H85.4442C85.9016 137.896 86.4709 137.476 87.1522 137.476ZM90.8467 137.364C91.5654 137.364 92.1254 137.527 92.5267 137.854C92.9374 138.171 93.1427 138.619 93.1427 139.198C93.1427 139.366 93.1147 139.898 93.0587 140.794C93.0494 141.055 93.0354 141.326 93.0167 141.606C92.998 141.877 92.9887 142.11 92.9887 142.306C92.9887 142.465 93.012 142.577 93.0587 142.642C93.1054 142.698 93.1894 142.726 93.3107 142.726C93.404 142.726 93.5254 142.707 93.6747 142.67L93.8147 142.782L93.6467 143.762C93.348 143.958 93.0074 144.075 92.6247 144.112C92.3447 144.084 92.1114 143.986 91.9247 143.818C91.738 143.641 91.612 143.398 91.5467 143.09H91.4487C90.982 143.585 90.5014 143.93 90.0067 144.126C89.3347 144.117 88.8074 143.939 88.4247 143.594C88.042 143.249 87.8507 142.777 87.8507 142.18C87.8507 141.713 87.9674 141.349 88.2007 141.088C88.4434 140.817 88.8074 140.635 89.2927 140.542L91.4347 140.136V139.562C91.4347 138.955 91.136 138.652 90.5387 138.652C90.2494 138.652 89.9414 138.717 89.6147 138.848C89.2974 138.979 88.938 139.184 88.5367 139.464L88.3967 139.38L88.1867 138.148C88.588 137.896 89.0174 137.705 89.4747 137.574C89.932 137.434 90.3894 137.364 90.8467 137.364ZM89.9367 141.396C89.7874 141.433 89.6754 141.499 89.6007 141.592C89.5354 141.676 89.5027 141.807 89.5027 141.984C89.5027 142.227 89.568 142.418 89.6987 142.558C89.8294 142.689 90.0114 142.754 90.2447 142.754C90.6087 142.754 90.9914 142.539 91.3927 142.11L91.4207 141.074L89.9367 141.396ZM96.8449 141.13L96.9429 144H95.0809L95.1789 141.298L95.0949 134.312L96.9569 134.172L96.8449 141.13Z" fill="white"/>
<defs>
<filter id="filter0_b_206:37254" x="3" y="67" width="161" height="97" filterUnits="userSpaceOnUse" color-interpolation-filters="sRGB">
<feFlood flood-opacity="0" result="BackgroundImageFix"/>
<feGaussianBlur in="BackgroundImage" stdDeviation="5"/>
<feComposite in2="SourceAlpha" operator="in" result="effect1_backgroundBlur_206:37254"/>
<feBlend mode="normal" in="SourceGraphic" in2="effect1_backgroundBlur_206:37254" result="shape"/>
</filter>
</defs>
</svg>
