<svg width="167" height="167" viewBox="0 0 167 167" fill="none" xmlns="http://www.w3.org/2000/svg">
<mask id="mask0_206:37262" style="mask-type:alpha" maskUnits="userSpaceOnUse" x="0" y="0" width="167" height="167">
<rect x="1" y="1" width="165" height="165" rx="8" fill="#5988D6" stroke="#EDE6FC" stroke-opacity="0.3"/>
</mask>
<g mask="url(#mask0_206:37262)">
<rect x="1" y="1" width="165" height="165" rx="8" fill="#7AC2D9" stroke="#EDE6FC" stroke-opacity="0.3"/>
<path d="M27.6175 9.59064H42.2383C42.2383 9.59064 54.7815 67.8078 118.134 62.1198C118.134 62.1198 101.997 88.2516 65.7917 77.4113C32.7132 67.5117 25.3789 20.5529 27.6175 9.59064Z" fill="#359BBC"/>
<path d="M28.9634 9.59066H27.6133L35.1523 -23L42.234 9.59066H40.8795L35.1044 -16.3016L28.9634 9.59066Z" fill="#359BBC"/>
<path d="M139.914 33.6275L137.571 8.44523L135.437 33.4185L133.821 33.2791L136.731 -0.770569H138.351L141.53 33.4751L139.914 33.6275Z" fill="#398AA4"/>
<path d="M107.881 69.0012C118.669 81.392 116.618 91.4136 124.928 92.2193C125.83 92.3064 128.029 91.3047 128.543 91.9754C129.057 92.6461 124.745 97.0711 121.082 95.2985C121.082 95.2985 113.138 91.6444 106.009 82.4199C97.3154 71.1789 97.0977 56.5887 107.881 69.0012Z" fill="#FBC6B4"/>
<path d="M40.2437 25.126C41.1626 20.9928 55.9227 16.8248 62.3599 30.4482C65.622 37.3382 68.8928 35.9837 73.1174 38.0351C83.2043 42.9566 80.8002 62.7383 58.6099 59.6896C36.4197 56.6409 44.0328 52.2595 40.2306 46.149C40.2306 46.149 42.5563 41.8634 42.3865 37.1161C42.234 32.8523 39.5555 28.2226 40.2437 25.126Z" fill="#1D1B3A"/>
<path d="M50.9229 22.0076C47.6782 20.5312 39.782 20.7881 38.4058 29.1938C37.5347 34.4202 41.093 36.0491 39.7123 40.6744C35.7185 54.2237 61.6456 54.7071 61.9243 43.7797C62.3642 26.6024 57.4645 24.9866 50.9229 22.0076Z" fill="#1D1B3A"/>
<path d="M48.3879 31.8506C48.3879 31.8506 56.4234 27.5649 59.899 34.0805C62.56 39.0716 63.9015 35.3043 68.2786 37.8391C77.76 43.3311 82.185 63.4874 60.8746 51.4537C49.4637 45.0079 48.7407 44.7422 47.0857 40.8704L48.3879 31.8506Z" fill="#27123D"/>
<path d="M78.396 47.1028C73.0564 31.9203 71.1749 33.7974 71.0442 34.3418C70.6451 35.5067 70.5602 36.7561 70.798 37.9643C71.0358 39.1724 71.588 40.2965 72.3987 41.2232C74.167 43.4226 77.1678 52.817 74.4719 53.8274C72.5076 54.5634 69.0103 45.0428 69.0103 45.0428L62.8389 47.2465L68.026 54.8335L71.654 57.843C69.3065 57.843 63.3789 57.0808 63.3789 57.0808L61.3755 67.4595C61.3755 67.4595 74.0929 69.5979 78.531 65.2034C79.6547 64.0798 83.2216 60.8351 78.396 47.1028Z" fill="#FBC6B4"/>
<path d="M53.4575 39.2328C51.8983 40.718 50.4088 45.0776 55.3085 49.52C57.3018 51.3198 59.4632 52.9241 61.763 54.3108C61.763 54.3108 69.167 51.6977 70.0381 44.8947C70.0381 44.8773 59.2849 33.6798 53.4575 39.2328Z" fill="#E32E1B"/>
<path d="M73.7184 58.37C69.0931 52.7081 66.689 44.751 62.2422 40.3042C56.0751 34.1502 49.1459 38.1788 45.4439 41.393C41.7419 44.6072 35.5399 49.7595 43.6321 57.0155C49.2722 62.072 50.2521 66.78 52.2381 74.0011C52.2817 74.1884 52.3252 74.3582 52.3601 74.5455H52.3383H52.3601C53.4576 83.034 78.4134 64.1189 73.7184 58.37Z" fill="#E13C22"/>
<path d="M64.3153 67.7948C64.3153 67.7948 53.6535 74.6631 64.4677 81.196C75.2819 87.729 95.0288 72.529 99.5366 74.9984C104.044 77.4679 104.018 82.7247 115.651 93.2123C115.651 93.2123 118.77 93.7044 120.938 89.911C120.938 89.911 118.025 68.9794 99.885 61.2705C81.7452 53.5617 66.2534 62.2026 64.3153 67.7948Z" fill="#4E86D8"/>
<path d="M46.2495 32.1859C46.2495 32.1859 48.1136 37.5908 46.7809 40.2998C45.9316 42.0419 55.4305 44.0976 54.9209 42.0419C54.272 39.3852 52.4776 37.9697 53.7537 34.6597L46.2495 32.1859Z" fill="#F7B2A0"/>
<path d="M51.1101 23.7497C53.7233 25.7357 60.7658 36.1362 55.718 39.0978C53.4358 40.4305 48.1093 38.9802 44.8298 34.9385C43.4709 33.2834 43.0441 29.368 44.4988 25.8185C45.1303 24.2114 48.0701 21.4283 51.1101 23.7497Z" fill="#FBC6B4"/>
<path d="M54.873 27.0641C55.3086 28.436 50.9228 24.403 50.5787 27.4735C50.2172 30.6921 46.7025 31.2495 47.1554 36.9071C47.4647 40.7702 42.0946 33.9106 41.6852 33.4446C39.9431 31.4717 39.9431 31.4717 41.5676 26.4413C43.1921 21.4109 52.6736 20.2219 54.873 27.0641Z" fill="#1D1B3A"/>
<path d="M73.6314 35.239C73.2004 35.274 72.7897 35.4364 72.4514 35.7057C72.1131 35.975 71.8626 36.3388 71.7319 36.7509C71.6011 37.163 71.596 37.6047 71.7171 38.0198C71.8383 38.4348 72.0803 38.8044 72.4122 39.0814C72.7442 39.3585 73.1511 39.5304 73.5811 39.5754C74.0111 39.6203 74.4448 39.5363 74.8268 39.3339C75.2089 39.1315 75.5221 38.82 75.7265 38.439C75.9309 38.058 76.0172 37.6248 75.9745 37.1945C75.9182 36.6265 75.6411 36.1034 75.2028 35.7376C74.7646 35.3719 74.2003 35.1928 73.6314 35.239ZM73.9711 38.9671C73.6598 38.9947 73.3472 38.9296 73.0728 38.78C72.7984 38.6304 72.5742 38.4031 72.4286 38.1265C72.283 37.85 72.2224 37.5365 72.2544 37.2256C72.2864 36.9147 72.4096 36.6202 72.6085 36.3791C72.8074 36.138 73.0732 35.9611 73.3723 35.8706C73.6715 35.7801 73.9907 35.78 74.2899 35.8704C74.5891 35.9608 74.8549 36.1376 75.0539 36.3786C75.2529 36.6197 75.3762 36.9141 75.4084 37.225C75.4287 37.4329 75.4075 37.6428 75.3461 37.8424C75.2847 38.0421 75.1841 38.2275 75.0504 38.388C74.9167 38.5484 74.7524 38.6807 74.5671 38.7772C74.3819 38.8736 74.1793 38.9323 73.9711 38.9497V38.9671Z" fill="#E8DCD9"/>
<path d="M73.7141 43.6708L67.4425 44.2414L65.7483 33.1354L73.3788 32.4385L73.7141 43.6708Z" fill="#F9F4F2"/>
<path d="M66.053 33.327C66.053 33.327 70.1382 33.6754 71.2793 34.3505C71.9718 34.7643 74.7636 35.8052 72.0023 37.5778C71.0964 38.157 71.9631 39.5812 71.2706 40.3565C68.2524 43.7536 73.7096 43.6708 73.7096 43.6708L73.3742 32.4385L66.053 33.327Z" fill="#E8DCD9"/>
<path d="M73.3787 32.4385C73.4049 32.7608 71.7281 33.1789 69.6201 33.3705C67.5121 33.5622 65.7831 33.4533 65.7526 33.131C65.7221 32.8087 67.4033 32.395 69.5112 32.2033C71.6192 32.0117 73.3482 32.1162 73.3787 32.4385Z" fill="white"/>
<path d="M72.7732 32.5866C72.7994 32.8567 71.3839 33.2094 69.62 33.3706C67.8561 33.5317 66.3971 33.4403 66.371 33.1702C66.3448 32.9002 67.7647 32.5518 69.5286 32.3906C71.2924 32.2295 72.7515 32.321 72.7732 32.5866Z" fill="#6D2121"/>
<path d="M73.7228 43.6709C73.7533 43.9365 72.3596 44.285 70.6349 44.4417C68.9102 44.5985 67.473 44.5071 67.4512 44.2414C67.4294 43.9757 68.81 43.6273 70.5434 43.4705C72.2768 43.3137 73.688 43.4008 73.7228 43.6709Z" fill="#F9F4F2"/>
<path d="M93.2083 60.835L85.2947 75.7258L88.0429 78.1125C88.0429 78.1125 92.3982 65.125 97.8902 61.2575C102.176 58.2306 93.2083 60.835 93.2083 60.835Z" fill="#1D1B3A"/>
<path d="M98.1994 53.7577C113.966 58.3699 117.646 67.9124 125.08 64.1146C125.886 63.7008 127.201 61.6712 127.994 61.9587C128.787 62.2461 127.558 68.2956 123.499 68.7791C123.499 68.7791 114.841 69.9855 103.861 66.0701C90.4862 61.2923 82.4332 49.1367 98.1994 53.7577Z" fill="#F67986"/>
<path d="M58.3137 76.0655C57.926 79.5759 59.5157 87.4807 71.2837 86.6968C83.9141 85.8606 89.1404 64.6241 94.2405 64.1494C99.3405 63.6747 102.28 68.0692 117.79 70.2468C118.751 69.4396 119.504 68.4135 119.986 67.2547C120.468 66.0959 120.665 64.8383 120.56 63.5876C120.56 63.5876 103.369 48.3441 91.6447 50.648C72.2942 54.4023 59.115 68.7094 58.3137 76.0655Z" fill="#6196EB"/>
<path d="M56.0577 54.276C56.0577 54.276 62.5906 57.2376 66.371 56.8892C70.1514 56.5408 60.7091 60.3124 60.7091 60.3124L53.218 55.2211L56.0577 54.276Z" fill="#1D1B3A"/>
<path d="M70.4129 36.0186C69.5812 36.927 69.0032 38.0384 68.7372 39.241C68.4711 40.4436 68.5263 41.695 68.8972 42.8695C69.973 46.8459 65.4478 57.7602 62.3643 58.0564C61.4932 58.1435 54.233 53.749 54.233 53.749L48.2227 62.4596C48.2227 62.4596 58.9977 69.5326 64.8294 67.2983C66.3233 66.7278 70.8963 65.1904 72.0026 50.6785C73.2264 34.5944 70.7526 35.57 70.4129 36.0186Z" fill="#FBC6B4"/>
<path d="M41.193 47.3641C39.5903 48.6968 37.8874 52.8039 42.3036 57.4118C44.1096 59.2744 46.0918 60.9576 48.2225 62.4378C48.2225 62.4378 55.5307 60.4039 56.8242 53.8971C56.8242 53.8971 47.1772 42.386 41.193 47.3641Z" fill="#E32E1B"/>
<path d="M141.53 33.4751C141.53 102.389 79.1929 97.9334 79.1929 97.9334C8.7286 91.0172 27.6175 9.59064 27.6175 9.59064C25.3789 68.6833 79.7852 77.7118 96.6576 73.7572C125.294 67.0587 133.821 33.2878 133.821 33.2878L141.53 33.4751Z" fill="#398AA4"/>
<path d="M98.1994 53.7577C113.966 58.3699 117.646 67.9124 125.08 64.1146C125.886 63.7008 127.201 61.6712 127.994 61.9587C128.787 62.2461 127.558 68.2956 123.499 68.7791C123.499 68.7791 114.841 69.9855 103.861 66.0701C90.4862 61.2923 82.4332 49.1367 98.1994 53.7577Z" fill="#FBC6B4"/>
<path d="M94.2406 64.1494C99.3494 63.6791 102.28 68.0692 117.79 70.2468C118.751 69.4396 119.504 68.4135 119.986 67.2547C120.468 66.0959 120.665 64.8383 120.56 63.5876C120.56 63.5876 103.369 48.3441 91.6449 50.648C72.2943 54.4023 89.1362 64.6459 94.2406 64.1494Z" fill="#6196EB"/>
<path d="M68.113 71.2747L67.7559 71.0221C67.8822 70.8479 80.3862 53.5661 94.9155 55.8744C94.9895 55.8744 102.964 57.0721 120.337 66.3532L120.128 66.7408C102.825 57.4989 94.9285 56.323 94.8676 56.3142C80.5866 54.0539 68.2393 71.1048 68.113 71.2747Z" fill="white"/>
</g>
<g filter="url(#filter0_b_206:37262)">
<rect x="13" y="77" width="141" height="77" rx="10" fill="black" fill-opacity="0.8"/>
</g>
<path d="M30.5217 96H28.5897L28.3657 94.824L28.1277 93.984L26.3637 93.942L24.8097 93.984L24.5717 94.726L24.3337 96H22.4577L25.5097 86.984H27.7637L30.5217 96ZM27.7217 92.514L26.6577 88.762H26.5317L25.2997 92.514L26.5037 92.542L27.7217 92.514ZM33.9528 94.628C34.2515 94.628 34.5641 94.5487 34.8908 94.39L35.0448 94.53L34.8628 95.636C34.3868 95.8787 33.9015 96.028 33.4068 96.084C32.1468 95.9533 31.5168 95.3373 31.5168 94.236L31.5868 93.074L31.5728 90.666H30.7048L30.6348 90.568L30.7328 89.546H31.5588V88.468L33.2528 87.922L33.3788 88.034L33.3368 89.546H35.0028L35.0588 89.644L34.9748 90.666H33.3088L33.2248 93.802C33.2248 94.1007 33.2808 94.3153 33.3928 94.446C33.5048 94.5673 33.6915 94.628 33.9528 94.628ZM36.1773 93.312L36.1073 89.616L37.9413 89.462L37.8573 93.13L37.9413 96H36.0793L36.1773 93.312ZM37.0593 86.298C37.3486 86.298 37.5726 86.382 37.7313 86.55C37.8993 86.718 37.9833 86.9513 37.9833 87.25C37.9833 87.5673 37.8946 87.8193 37.7173 88.006C37.5399 88.1927 37.2973 88.286 36.9893 88.286C36.6813 88.286 36.4433 88.202 36.2753 88.034C36.1166 87.866 36.0373 87.628 36.0373 87.32C36.0373 87.012 36.1259 86.7647 36.3033 86.578C36.4899 86.3913 36.7419 86.298 37.0593 86.298ZM40.9197 90.526L41.8997 94.25H41.9977L43.1737 90.624L43.4117 89.49H45.0357L42.8517 96H40.8497L39.0017 89.532L40.7377 89.448L40.9197 90.526ZM46.062 93.312L45.992 89.616L47.826 89.462L47.742 93.13L47.826 96H45.964L46.062 93.312ZM46.944 86.298C47.2334 86.298 47.4574 86.382 47.616 86.55C47.784 86.718 47.868 86.9513 47.868 87.25C47.868 87.5673 47.7794 87.8193 47.602 88.006C47.4247 88.1927 47.182 88.286 46.874 88.286C46.566 88.286 46.328 88.202 46.16 88.034C46.0014 87.866 45.922 87.628 45.922 87.32C45.922 87.012 46.0107 86.7647 46.188 86.578C46.3747 86.3913 46.6267 86.298 46.944 86.298ZM55.0184 93.13L55.0604 94.306C55.0604 94.4647 55.0791 94.5767 55.1164 94.642C55.1631 94.698 55.2424 94.726 55.3544 94.726C55.4571 94.726 55.5831 94.7073 55.7324 94.67L55.8584 94.782L55.7044 95.762C55.3871 95.958 55.0418 96.0747 54.6684 96.112C54.3791 96.084 54.1364 95.986 53.9404 95.818C53.7444 95.65 53.6091 95.4213 53.5344 95.132H53.4224C52.9651 95.552 52.4984 95.874 52.0224 96.098C51.1078 96.098 50.3984 95.8087 49.8944 95.23C49.3904 94.642 49.1384 93.83 49.1384 92.794C49.1384 91.6927 49.4278 90.848 50.0064 90.26C50.5851 89.672 51.3878 89.378 52.4144 89.378C52.6851 89.378 52.9838 89.406 53.3104 89.462L53.2824 86.312L55.1304 86.172L55.0184 93.13ZM52.2884 90.638C51.3551 90.638 50.8884 91.2307 50.8884 92.416C50.8884 93.1533 51.0004 93.7087 51.2244 94.082C51.4484 94.4553 51.7751 94.642 52.2044 94.642C52.6151 94.642 52.9931 94.4507 53.3384 94.068L53.3664 93.298L53.3244 90.89C52.9604 90.722 52.6151 90.638 52.2884 90.638ZM59.5176 89.364C60.2362 89.364 60.7962 89.5273 61.1976 89.854C61.6082 90.1713 61.8136 90.6193 61.8136 91.198C61.8136 91.366 61.7856 91.898 61.7296 92.794C61.7202 93.0553 61.7062 93.326 61.6876 93.606C61.6689 93.8767 61.6596 94.11 61.6596 94.306C61.6596 94.4647 61.6829 94.5767 61.7296 94.642C61.7762 94.698 61.8602 94.726 61.9816 94.726C62.0749 94.726 62.1962 94.7073 62.3456 94.67L62.4856 94.782L62.3176 95.762C62.0189 95.958 61.6782 96.0747 61.2956 96.112C61.0156 96.084 60.7822 95.986 60.5956 95.818C60.4089 95.6407 60.2829 95.398 60.2176 95.09H60.1196C59.6529 95.5847 59.1722 95.93 58.6776 96.126C58.0056 96.1167 57.4782 95.9393 57.0956 95.594C56.7129 95.2487 56.5216 94.7773 56.5216 94.18C56.5216 93.7133 56.6382 93.3493 56.8716 93.088C57.1142 92.8173 57.4782 92.6353 57.9636 92.542L60.1056 92.136V91.562C60.1056 90.9553 59.8069 90.652 59.2096 90.652C58.9202 90.652 58.6122 90.7173 58.2856 90.848C57.9682 90.9787 57.6089 91.184 57.2076 91.464L57.0676 91.38L56.8576 90.148C57.2589 89.896 57.6882 89.7047 58.1456 89.574C58.6029 89.434 59.0602 89.364 59.5176 89.364ZM58.6076 93.396C58.4582 93.4333 58.3462 93.4987 58.2716 93.592C58.2062 93.676 58.1736 93.8067 58.1736 93.984C58.1736 94.2267 58.2389 94.418 58.3696 94.558C58.5002 94.6887 58.6822 94.754 58.9156 94.754C59.2796 94.754 59.6622 94.5393 60.0636 94.11L60.0916 93.074L58.6076 93.396ZM69.1278 93.13L69.1698 94.306C69.1698 94.4647 69.1885 94.5767 69.2258 94.642C69.2725 94.698 69.3518 94.726 69.4638 94.726C69.5665 94.726 69.6925 94.7073 69.8418 94.67L69.9678 94.782L69.8138 95.762C69.4965 95.958 69.1511 96.0747 68.7778 96.112C68.4885 96.084 68.2458 95.986 68.0498 95.818C67.8538 95.65 67.7185 95.4213 67.6438 95.132H67.5318C67.0745 95.552 66.6078 95.874 66.1318 96.098C65.2171 96.098 64.5078 95.8087 64.0038 95.23C63.4998 94.642 63.2478 93.83 63.2478 92.794C63.2478 91.6927 63.5371 90.848 64.1158 90.26C64.6945 89.672 65.4971 89.378 66.5238 89.378C66.7945 89.378 67.0931 89.406 67.4198 89.462L67.3918 86.312L69.2398 86.172L69.1278 93.13ZM66.3978 90.638C65.4645 90.638 64.9978 91.2307 64.9978 92.416C64.9978 93.1533 65.1098 93.7087 65.3338 94.082C65.5578 94.4553 65.8845 94.642 66.3138 94.642C66.7245 94.642 67.1025 94.4507 67.4478 94.068L67.4758 93.298L67.4338 90.89C67.0698 90.722 66.7245 90.638 66.3978 90.638ZM76.1049 92.976L72.3249 93.004C72.4089 94.1707 73.0016 94.754 74.1029 94.754C74.6816 94.754 75.3256 94.5907 76.0349 94.264L76.1889 94.362L75.9089 95.748C75.1996 96.0093 74.5323 96.14 73.9069 96.14C72.8803 96.14 72.0729 95.8413 71.4849 95.244C70.9063 94.6467 70.6169 93.8207 70.6169 92.766C70.6169 91.7207 70.9016 90.8947 71.4709 90.288C72.0403 89.672 72.8103 89.364 73.7809 89.364C74.6116 89.364 75.2509 89.5927 75.6989 90.05C76.1563 90.498 76.3849 91.128 76.3849 91.94C76.3849 92.1547 76.3616 92.4253 76.3149 92.752L76.1049 92.976ZM74.7609 91.73C74.7609 91.3567 74.6769 91.0767 74.5089 90.89C74.3409 90.694 74.0936 90.596 73.7669 90.596C73.4029 90.596 73.0996 90.7173 72.8569 90.96C72.6143 91.1933 72.4509 91.534 72.3669 91.982L74.7329 91.926L74.7609 91.73ZM79.8525 89.378C80.4871 89.378 81.0845 89.4853 81.6445 89.7L81.3925 91.072L81.1685 91.142C80.8978 90.9647 80.6271 90.8293 80.3565 90.736C80.0858 90.6427 79.8478 90.596 79.6425 90.596C79.4185 90.596 79.2411 90.6567 79.1105 90.778C78.9798 90.89 78.9145 91.03 78.9145 91.198C78.9145 91.394 78.9985 91.5527 79.1665 91.674C79.3438 91.7953 79.6191 91.9307 79.9925 92.08C80.3658 92.2293 80.6738 92.374 80.9165 92.514C81.1591 92.654 81.3645 92.85 81.5325 93.102C81.7098 93.3447 81.7985 93.648 81.7985 94.012C81.7985 94.3853 81.7005 94.7353 81.5045 95.062C81.3178 95.3793 81.0285 95.6407 80.6365 95.846C80.2445 96.042 79.7638 96.14 79.1945 96.14C78.5225 96.14 77.8271 96 77.1085 95.72L77.3185 94.264L77.5005 94.152C77.7898 94.3947 78.1118 94.5907 78.4665 94.74C78.8211 94.88 79.1338 94.95 79.4045 94.95C79.6565 94.95 79.8525 94.8893 79.9925 94.768C80.1325 94.6373 80.2025 94.4833 80.2025 94.306C80.2025 94.11 80.1138 93.9513 79.9365 93.83C79.7685 93.7087 79.4978 93.5733 79.1245 93.424C78.7418 93.256 78.4291 93.1067 78.1865 92.976C77.9438 92.836 77.7338 92.64 77.5565 92.388C77.3885 92.136 77.3045 91.8233 77.3045 91.45C77.3045 90.8433 77.5331 90.3487 77.9905 89.966C78.4478 89.574 79.0685 89.378 79.8525 89.378ZM88.6046 89.406C89.4166 89.406 90.042 89.6813 90.4806 90.232C90.9193 90.7827 91.1386 91.562 91.1386 92.57C91.1386 93.7087 90.854 94.5907 90.2846 95.216C89.7246 95.832 88.9313 96.14 87.9046 96.14C87.606 96.14 87.2933 96.112 86.9666 96.056L87.0086 98.59H85.1606L85.2586 93.312L85.1746 89.616L86.9526 89.462L86.9386 90.414H87.0366C87.298 90.162 87.55 89.9613 87.7926 89.812C88.0353 89.6533 88.306 89.518 88.6046 89.406ZM87.9186 94.922C88.404 94.922 88.7726 94.7493 89.0246 94.404C89.2766 94.0587 89.4026 93.55 89.4026 92.878C89.4026 92.2247 89.2953 91.7347 89.0806 91.408C88.8753 91.072 88.5673 90.904 88.1566 90.904C87.7553 90.904 87.3493 91.1047 86.9386 91.506L86.9246 93.13L86.9526 94.712C87.2886 94.852 87.6106 94.922 87.9186 94.922ZM95.9227 89.476C96.0067 89.476 96.1234 89.4853 96.2727 89.504V91.226L96.0767 91.296C95.918 91.2307 95.7454 91.198 95.5587 91.198C95.0174 91.198 94.5274 91.548 94.0887 92.248V93.13L94.1867 96H92.3247L92.4367 93.312L92.3527 89.616L94.1167 89.462L94.1027 90.736H94.2147C94.672 89.896 95.2414 89.476 95.9227 89.476ZM99.6172 89.364C100.336 89.364 100.896 89.5273 101.297 89.854C101.708 90.1713 101.913 90.6193 101.913 91.198C101.913 91.366 101.885 91.898 101.829 92.794C101.82 93.0553 101.806 93.326 101.787 93.606C101.769 93.8767 101.759 94.11 101.759 94.306C101.759 94.4647 101.783 94.5767 101.829 94.642C101.876 94.698 101.96 94.726 102.081 94.726C102.175 94.726 102.296 94.7073 102.445 94.67L102.585 94.782L102.417 95.762C102.119 95.958 101.778 96.0747 101.395 96.112C101.115 96.084 100.882 95.986 100.695 95.818C100.509 95.6407 100.383 95.398 100.317 95.09H100.219C99.7525 95.5847 99.2718 95.93 98.7772 96.126C98.1052 96.1167 97.5778 95.9393 97.1952 95.594C96.8125 95.2487 96.6212 94.7773 96.6212 94.18C96.6212 93.7133 96.7378 93.3493 96.9712 93.088C97.2138 92.8173 97.5778 92.6353 98.0632 92.542L100.205 92.136V91.562C100.205 90.9553 99.9065 90.652 99.3092 90.652C99.0198 90.652 98.7118 90.7173 98.3852 90.848C98.0678 90.9787 97.7085 91.184 97.3072 91.464L97.1672 91.38L96.9572 90.148C97.3585 89.896 97.7878 89.7047 98.2452 89.574C98.7025 89.434 99.1598 89.364 99.6172 89.364ZM98.7072 93.396C98.5578 93.4333 98.4458 93.4987 98.3712 93.592C98.3058 93.676 98.2732 93.8067 98.2732 93.984C98.2732 94.2267 98.3385 94.418 98.4692 94.558C98.5998 94.6887 98.7818 94.754 99.0152 94.754C99.3792 94.754 99.7618 94.5393 100.163 94.11L100.191 93.074L98.7072 93.396ZM104.873 89.49H107.701L108.415 89.476L108.429 90.582L105.279 94.81H107.253L108.443 94.698L108.541 94.824L108.415 96.028L106.791 96H104.215L103.319 96.042V94.95L106.497 90.694H104.621L103.459 90.792L103.347 90.666L103.487 89.462L104.873 89.49ZM114.673 92.976L110.893 93.004C110.977 94.1707 111.57 94.754 112.671 94.754C113.25 94.754 113.894 94.5907 114.603 94.264L114.757 94.362L114.477 95.748C113.768 96.0093 113.101 96.14 112.475 96.14C111.449 96.14 110.641 95.8413 110.053 95.244C109.475 94.6467 109.185 93.8207 109.185 92.766C109.185 91.7207 109.47 90.8947 110.039 90.288C110.609 89.672 111.379 89.364 112.349 89.364C113.18 89.364 113.819 89.5927 114.267 90.05C114.725 90.498 114.953 91.128 114.953 91.94C114.953 92.1547 114.93 92.4253 114.883 92.752L114.673 92.976ZM113.329 91.73C113.329 91.3567 113.245 91.0767 113.077 90.89C112.909 90.694 112.662 90.596 112.335 90.596C111.971 90.596 111.668 90.7173 111.425 90.96C111.183 91.1933 111.019 91.534 110.935 91.982L113.301 91.926L113.329 91.73ZM119.835 89.476C119.919 89.476 120.035 89.4853 120.185 89.504V91.226L119.989 91.296C119.83 91.2307 119.657 91.198 119.471 91.198C118.929 91.198 118.439 91.548 118.001 92.248V93.13L118.099 96H116.237L116.349 93.312L116.265 89.616L118.029 89.462L118.015 90.736H118.127C118.584 89.896 119.153 89.476 119.835 89.476ZM123.806 89.364C124.758 89.364 125.486 89.644 125.99 90.204C126.494 90.764 126.746 91.5713 126.746 92.626C126.746 93.7647 126.475 94.6373 125.934 95.244C125.393 95.8413 124.613 96.14 123.596 96.14C122.644 96.14 121.916 95.86 121.412 95.3C120.908 94.74 120.656 93.9327 120.656 92.878C120.656 91.7393 120.927 90.8713 121.468 90.274C122.009 89.6673 122.789 89.364 123.806 89.364ZM123.68 90.624C123.232 90.624 122.905 90.7733 122.7 91.072C122.504 91.3707 122.406 91.8513 122.406 92.514C122.406 93.3727 122.509 93.984 122.714 94.348C122.919 94.712 123.255 94.894 123.722 94.894C124.17 94.894 124.492 94.7493 124.688 94.46C124.893 94.1613 124.996 93.676 124.996 93.004C124.996 92.1547 124.889 91.548 124.674 91.184C124.469 90.8107 124.137 90.624 123.68 90.624ZM130.206 89.378C130.841 89.378 131.438 89.4853 131.998 89.7L131.746 91.072L131.522 91.142C131.251 90.9647 130.981 90.8293 130.71 90.736C130.439 90.6427 130.201 90.596 129.996 90.596C129.772 90.596 129.595 90.6567 129.464 90.778C129.333 90.89 129.268 91.03 129.268 91.198C129.268 91.394 129.352 91.5527 129.52 91.674C129.697 91.7953 129.973 91.9307 130.346 92.08C130.719 92.2293 131.027 92.374 131.27 92.514C131.513 92.654 131.718 92.85 131.886 93.102C132.063 93.3447 132.152 93.648 132.152 94.012C132.152 94.3853 132.054 94.7353 131.858 95.062C131.671 95.3793 131.382 95.6407 130.99 95.846C130.598 96.042 130.117 96.14 129.548 96.14C128.876 96.14 128.181 96 127.462 95.72L127.672 94.264L127.854 94.152C128.143 94.3947 128.465 94.5907 128.82 94.74C129.175 94.88 129.487 94.95 129.758 94.95C130.01 94.95 130.206 94.8893 130.346 94.768C130.486 94.6373 130.556 94.4833 130.556 94.306C130.556 94.11 130.467 93.9513 130.29 93.83C130.122 93.7087 129.851 93.5733 129.478 93.424C129.095 93.256 128.783 93.1067 128.54 92.976C128.297 92.836 128.087 92.64 127.91 92.388C127.742 92.136 127.658 91.8233 127.658 91.45C127.658 90.8433 127.887 90.3487 128.344 89.966C128.801 89.574 129.422 89.378 130.206 89.378ZM135.957 89.364C136.676 89.364 137.236 89.5273 137.637 89.854C138.048 90.1713 138.253 90.6193 138.253 91.198C138.253 91.366 138.225 91.898 138.169 92.794C138.16 93.0553 138.146 93.326 138.127 93.606C138.108 93.8767 138.099 94.11 138.099 94.306C138.099 94.4647 138.122 94.5767 138.169 94.642C138.216 94.698 138.3 94.726 138.421 94.726C138.514 94.726 138.636 94.7073 138.785 94.67L138.925 94.782L138.757 95.762C138.458 95.958 138.118 96.0747 137.735 96.112C137.455 96.084 137.222 95.986 137.035 95.818C136.848 95.6407 136.722 95.398 136.657 95.09H136.559C136.092 95.5847 135.612 95.93 135.117 96.126C134.445 96.1167 133.918 95.9393 133.535 95.594C133.152 95.2487 132.961 94.7773 132.961 94.18C132.961 93.7133 133.078 93.3493 133.311 93.088C133.554 92.8173 133.918 92.6353 134.403 92.542L136.545 92.136V91.562C136.545 90.9553 136.246 90.652 135.649 90.652C135.36 90.652 135.052 90.7173 134.725 90.848C134.408 90.9787 134.048 91.184 133.647 91.464L133.507 91.38L133.297 90.148C133.698 89.896 134.128 89.7047 134.585 89.574C135.042 89.434 135.5 89.364 135.957 89.364ZM135.047 93.396C134.898 93.4333 134.786 93.4987 134.711 93.592C134.646 93.676 134.613 93.8067 134.613 93.984C134.613 94.2267 134.678 94.418 134.809 94.558C134.94 94.6887 135.122 94.754 135.355 94.754C135.719 94.754 136.102 94.5393 136.503 94.11L136.531 93.074L135.047 93.396ZM142.319 89.378C142.954 89.378 143.551 89.4853 144.111 89.7L143.859 91.072L143.635 91.142C143.365 90.9647 143.094 90.8293 142.823 90.736C142.553 90.6427 142.315 90.596 142.109 90.596C141.885 90.596 141.708 90.6567 141.577 90.778C141.447 90.89 141.381 91.03 141.381 91.198C141.381 91.394 141.465 91.5527 141.633 91.674C141.811 91.7953 142.086 91.9307 142.459 92.08C142.833 92.2293 143.141 92.374 143.383 92.514C143.626 92.654 143.831 92.85 143.999 93.102C144.177 93.3447 144.265 93.648 144.265 94.012C144.265 94.3853 144.167 94.7353 143.971 95.062C143.785 95.3793 143.495 95.6407 143.103 95.846C142.711 96.042 142.231 96.14 141.661 96.14C140.989 96.14 140.294 96 139.575 95.72L139.785 94.264L139.967 94.152C140.257 94.3947 140.579 94.5907 140.933 94.74C141.288 94.88 141.601 94.95 141.871 94.95C142.123 94.95 142.319 94.8893 142.459 94.768C142.599 94.6373 142.669 94.4833 142.669 94.306C142.669 94.11 142.581 93.9513 142.403 93.83C142.235 93.7087 141.965 93.5733 141.591 93.424C141.209 93.256 140.896 93.1067 140.653 92.976C140.411 92.836 140.201 92.64 140.023 92.388C139.855 92.136 139.771 91.8233 139.771 91.45C139.771 90.8433 140 90.3487 140.457 89.966C140.915 89.574 141.535 89.378 142.319 89.378ZM57.6787 105.364C58.3974 105.364 58.9574 105.527 59.3587 105.854C59.7694 106.171 59.9747 106.619 59.9747 107.198C59.9747 107.366 59.9467 107.898 59.8907 108.794C59.8814 109.055 59.8674 109.326 59.8487 109.606C59.83 109.877 59.8207 110.11 59.8207 110.306C59.8207 110.465 59.844 110.577 59.8907 110.642C59.9374 110.698 60.0214 110.726 60.1427 110.726C60.236 110.726 60.3574 110.707 60.5067 110.67L60.6467 110.782L60.4787 111.762C60.18 111.958 59.8394 112.075 59.4567 112.112C59.1767 112.084 58.9434 111.986 58.7567 111.818C58.57 111.641 58.444 111.398 58.3787 111.09H58.2807C57.814 111.585 57.3334 111.93 56.8387 112.126C56.1667 112.117 55.6394 111.939 55.2567 111.594C54.874 111.249 54.6827 110.777 54.6827 110.18C54.6827 109.713 54.7994 109.349 55.0327 109.088C55.2754 108.817 55.6394 108.635 56.1247 108.542L58.2667 108.136V107.562C58.2667 106.955 57.968 106.652 57.3707 106.652C57.0814 106.652 56.7734 106.717 56.4467 106.848C56.1294 106.979 55.77 107.184 55.3687 107.464L55.2287 107.38L55.0187 106.148C55.42 105.896 55.8494 105.705 56.3067 105.574C56.764 105.434 57.2214 105.364 57.6787 105.364ZM56.7687 109.396C56.6194 109.433 56.5074 109.499 56.4327 109.592C56.3674 109.676 56.3347 109.807 56.3347 109.984C56.3347 110.227 56.4 110.418 56.5307 110.558C56.6614 110.689 56.8434 110.754 57.0767 110.754C57.4407 110.754 57.8234 110.539 58.2247 110.11L58.2527 109.074L56.7687 109.396ZM68.0729 110.782L67.9049 111.762C67.5596 111.986 67.2049 112.103 66.8409 112.112C66.5703 112.065 66.3463 111.958 66.1689 111.79C65.9916 111.622 65.8563 111.379 65.7629 111.062H65.6369C65.1049 111.585 64.5543 111.925 63.9849 112.084C63.2756 112.084 62.7343 111.925 62.3609 111.608C61.9969 111.281 61.8196 110.815 61.8289 110.208L61.8569 108.556L61.7869 105.616L63.5929 105.462L63.5509 109.592C63.5416 109.919 63.6069 110.166 63.7469 110.334C63.8869 110.502 64.0969 110.586 64.3769 110.586C64.7876 110.586 65.1936 110.404 65.5949 110.04V105.616L67.3729 105.462L67.2469 110.306C67.2469 110.455 67.2703 110.563 67.3169 110.628C67.3729 110.693 67.4569 110.726 67.5689 110.726C67.6716 110.726 67.7976 110.707 67.9469 110.67L68.0729 110.782ZM70.7814 106.218L71.6774 107.674L72.5594 106.162L72.9094 105.504H74.5474L72.6714 108.696L74.6314 111.944L72.6714 112.084L72.3494 111.258L71.4254 109.76L70.4594 111.342L70.1514 112H68.5134L70.4034 108.738L68.4994 105.546L70.4874 105.448L70.7814 106.218ZM75.7505 109.312L75.6805 105.616L77.5145 105.462L77.4305 109.13L77.5145 112H75.6525L75.7505 109.312ZM76.6325 102.298C76.9218 102.298 77.1458 102.382 77.3045 102.55C77.4725 102.718 77.5565 102.951 77.5565 103.25C77.5565 103.567 77.4678 103.819 77.2905 104.006C77.1132 104.193 76.8705 104.286 76.5625 104.286C76.2545 104.286 76.0165 104.202 75.8485 104.034C75.6898 103.866 75.6105 103.628 75.6105 103.32C75.6105 103.012 75.6992 102.765 75.8765 102.578C76.0632 102.391 76.3152 102.298 76.6325 102.298ZM81.0949 109.13L81.1929 112H79.3309L79.4289 109.298L79.3449 102.312L81.2069 102.172L81.0949 109.13ZM83.0786 109.312L83.0086 105.616L84.8426 105.462L84.7586 109.13L84.8426 112H82.9806L83.0786 109.312ZM83.9606 102.298C84.25 102.298 84.474 102.382 84.6326 102.55C84.8006 102.718 84.8846 102.951 84.8846 103.25C84.8846 103.567 84.796 103.819 84.6186 104.006C84.4413 104.193 84.1986 104.286 83.8906 104.286C83.5826 104.286 83.3446 104.202 83.1766 104.034C83.018 103.866 82.9386 103.628 82.9386 103.32C82.9386 103.012 83.0273 102.765 83.2046 102.578C83.3913 102.391 83.6433 102.298 83.9606 102.298ZM89.165 105.364C89.8837 105.364 90.4437 105.527 90.845 105.854C91.2557 106.171 91.461 106.619 91.461 107.198C91.461 107.366 91.433 107.898 91.377 108.794C91.3677 109.055 91.3537 109.326 91.335 109.606C91.3164 109.877 91.307 110.11 91.307 110.306C91.307 110.465 91.3304 110.577 91.377 110.642C91.4237 110.698 91.5077 110.726 91.629 110.726C91.7224 110.726 91.8437 110.707 91.993 110.67L92.133 110.782L91.965 111.762C91.6664 111.958 91.3257 112.075 90.943 112.112C90.663 112.084 90.4297 111.986 90.243 111.818C90.0564 111.641 89.9304 111.398 89.865 111.09H89.767C89.3004 111.585 88.8197 111.93 88.325 112.126C87.653 112.117 87.1257 111.939 86.743 111.594C86.3604 111.249 86.169 110.777 86.169 110.18C86.169 109.713 86.2857 109.349 86.519 109.088C86.7617 108.817 87.1257 108.635 87.611 108.542L89.753 108.136V107.562C89.753 106.955 89.4544 106.652 88.857 106.652C88.5677 106.652 88.2597 106.717 87.933 106.848C87.6157 106.979 87.2564 107.184 86.855 107.464L86.715 107.38L86.505 106.148C86.9064 105.896 87.3357 105.705 87.793 105.574C88.2504 105.434 88.7077 105.364 89.165 105.364ZM88.255 109.396C88.1057 109.433 87.9937 109.499 87.919 109.592C87.8537 109.676 87.821 109.807 87.821 109.984C87.821 110.227 87.8864 110.418 88.017 110.558C88.1477 110.689 88.3297 110.754 88.563 110.754C88.927 110.754 89.3097 110.539 89.711 110.11L89.739 109.074L88.255 109.396ZM101.059 112L101.171 107.94C101.171 107.249 100.877 106.904 100.289 106.904C99.8692 106.904 99.4306 107.091 98.9732 107.464L98.9312 109.144L99.0152 112H97.1532L97.2652 107.94C97.2746 107.604 97.1999 107.347 97.0412 107.17C96.8919 106.993 96.6726 106.904 96.3832 106.904C95.9726 106.904 95.5199 107.1 95.0252 107.492V109.13L95.1092 112H93.2612L93.3592 109.312L93.2892 105.616L95.0392 105.462V106.414H95.1372C95.6506 105.947 96.2152 105.611 96.8312 105.406C97.8766 105.406 98.5439 105.756 98.8332 106.456H98.9172C99.4492 105.961 100.056 105.611 100.737 105.406C101.447 105.406 101.983 105.569 102.347 105.896C102.721 106.213 102.898 106.675 102.879 107.282L102.837 109.144L102.921 112H101.059ZM109.375 105.364C110.327 105.364 111.055 105.644 111.559 106.204C112.063 106.764 112.315 107.571 112.315 108.626C112.315 109.765 112.045 110.637 111.503 111.244C110.962 111.841 110.183 112.14 109.165 112.14C108.213 112.14 107.485 111.86 106.981 111.3C106.477 110.74 106.225 109.933 106.225 108.878C106.225 107.739 106.496 106.871 107.037 106.274C107.579 105.667 108.358 105.364 109.375 105.364ZM109.249 106.624C108.801 106.624 108.475 106.773 108.269 107.072C108.073 107.371 107.975 107.851 107.975 108.514C107.975 109.373 108.078 109.984 108.283 110.348C108.489 110.712 108.825 110.894 109.291 110.894C109.739 110.894 110.061 110.749 110.257 110.46C110.463 110.161 110.565 109.676 110.565 109.004C110.565 108.155 110.458 107.548 110.243 107.184C110.038 106.811 109.707 106.624 109.249 106.624ZM38.5415 124.976L34.7615 125.004C34.8455 126.171 35.4381 126.754 36.5395 126.754C37.1181 126.754 37.7621 126.591 38.4715 126.264L38.6255 126.362L38.3455 127.748C37.6361 128.009 36.9688 128.14 36.3435 128.14C35.3168 128.14 34.5095 127.841 33.9215 127.244C33.3428 126.647 33.0535 125.821 33.0535 124.766C33.0535 123.721 33.3381 122.895 33.9075 122.288C34.4768 121.672 35.2468 121.364 36.2175 121.364C37.0481 121.364 37.6875 121.593 38.1355 122.05C38.5928 122.498 38.8215 123.128 38.8215 123.94C38.8215 124.155 38.7981 124.425 38.7515 124.752L38.5415 124.976ZM37.1975 123.73C37.1975 123.357 37.1135 123.077 36.9455 122.89C36.7775 122.694 36.5301 122.596 36.2035 122.596C35.8395 122.596 35.5361 122.717 35.2935 122.96C35.0508 123.193 34.8875 123.534 34.8035 123.982L37.1695 123.926L37.1975 123.73ZM44.109 123.94C44.1183 123.613 44.0436 123.361 43.885 123.184C43.7356 122.997 43.5163 122.904 43.227 122.904C42.807 122.904 42.359 123.105 41.883 123.506V125.13L41.967 128H40.105L40.203 125.312L40.133 121.616L41.897 121.462V122.414H41.995C42.5083 121.947 43.0683 121.611 43.675 121.406C44.3843 121.406 44.9256 121.569 45.299 121.896C45.6723 122.213 45.8496 122.675 45.831 123.282L45.789 125.144L45.873 128H43.997L44.109 123.94ZM50.7664 118.144C51.1491 118.144 51.5551 118.186 51.9844 118.27L51.8584 119.656L51.7324 119.74C51.2937 119.553 50.9111 119.46 50.5844 119.46C50.0057 119.46 49.7117 119.791 49.7024 120.454L49.6884 121.546H51.2704L51.3264 121.644L51.2424 122.666H49.6604L49.6184 125.13L49.7164 128H47.8544L47.9664 125.298L47.9384 122.666H46.9584L46.8884 122.568L46.9864 121.546H47.9244L47.9104 120.776C47.9104 119.936 48.1577 119.287 48.6524 118.83C49.1564 118.373 49.8611 118.144 50.7664 118.144ZM55.5838 121.476C55.6678 121.476 55.7845 121.485 55.9338 121.504V123.226L55.7378 123.296C55.5792 123.231 55.4065 123.198 55.2198 123.198C54.6785 123.198 54.1885 123.548 53.7498 124.248V125.13L53.8478 128H51.9858L52.0978 125.312L52.0138 121.616L53.7778 121.462L53.7638 122.736H53.8758C54.3332 121.896 54.9025 121.476 55.5838 121.476ZM61.893 124.976L58.113 125.004C58.197 126.171 58.7897 126.754 59.891 126.754C60.4697 126.754 61.1137 126.591 61.823 126.264L61.977 126.362L61.697 127.748C60.9877 128.009 60.3204 128.14 59.695 128.14C58.6684 128.14 57.861 127.841 57.273 127.244C56.6944 126.647 56.405 125.821 56.405 124.766C56.405 123.721 56.6897 122.895 57.259 122.288C57.8284 121.672 58.5984 121.364 59.569 121.364C60.3997 121.364 61.039 121.593 61.487 122.05C61.9444 122.498 62.173 123.128 62.173 123.94C62.173 124.155 62.1497 124.425 62.103 124.752L61.893 124.976ZM60.549 123.73C60.549 123.357 60.465 123.077 60.297 122.89C60.129 122.694 59.8817 122.596 59.555 122.596C59.191 122.596 58.8877 122.717 58.645 122.96C58.4024 123.193 58.239 123.534 58.155 123.982L60.521 123.926L60.549 123.73ZM67.4605 123.94C67.4699 123.613 67.3952 123.361 67.2365 123.184C67.0872 122.997 66.8679 122.904 66.5785 122.904C66.1585 122.904 65.7105 123.105 65.2345 123.506V125.13L65.3185 128H63.4565L63.5545 125.312L63.4845 121.616L65.2485 121.462V122.414H65.3465C65.8599 121.947 66.4199 121.611 67.0265 121.406C67.7359 121.406 68.2772 121.569 68.6505 121.896C69.0239 122.213 69.2012 122.675 69.1825 123.282L69.1405 125.144L69.2245 128H67.3485L67.4605 123.94ZM73.4987 126.628C73.7974 126.628 74.11 126.549 74.4367 126.39L74.5907 126.53L74.4087 127.636C73.9327 127.879 73.4474 128.028 72.9527 128.084C71.6927 127.953 71.0627 127.337 71.0627 126.236L71.1327 125.074L71.1187 122.666H70.2507L70.1807 122.568L70.2787 121.546H71.1047V120.468L72.7987 119.922L72.9247 120.034L72.8827 121.546H74.5487L74.6047 121.644L74.5207 122.666H72.8547L72.7707 125.802C72.7707 126.101 72.8267 126.315 72.9387 126.446C73.0507 126.567 73.2374 126.628 73.4987 126.628ZM78.1592 121.364C78.8778 121.364 79.4378 121.527 79.8392 121.854C80.2498 122.171 80.4552 122.619 80.4552 123.198C80.4552 123.366 80.4272 123.898 80.3712 124.794C80.3618 125.055 80.3478 125.326 80.3292 125.606C80.3105 125.877 80.3012 126.11 80.3012 126.306C80.3012 126.465 80.3245 126.577 80.3712 126.642C80.4178 126.698 80.5018 126.726 80.6232 126.726C80.7165 126.726 80.8378 126.707 80.9872 126.67L81.1272 126.782L80.9592 127.762C80.6605 127.958 80.3198 128.075 79.9372 128.112C79.6572 128.084 79.4238 127.986 79.2372 127.818C79.0505 127.641 78.9245 127.398 78.8592 127.09H78.7612C78.2945 127.585 77.8138 127.93 77.3192 128.126C76.6472 128.117 76.1198 127.939 75.7372 127.594C75.3545 127.249 75.1632 126.777 75.1632 126.18C75.1632 125.713 75.2798 125.349 75.5132 125.088C75.7558 124.817 76.1198 124.635 76.6052 124.542L78.7472 124.136V123.562C78.7472 122.955 78.4485 122.652 77.8512 122.652C77.5618 122.652 77.2538 122.717 76.9272 122.848C76.6098 122.979 76.2505 123.184 75.8492 123.464L75.7092 123.38L75.4992 122.148C75.9005 121.896 76.3298 121.705 76.7872 121.574C77.2445 121.434 77.7018 121.364 78.1592 121.364ZM77.2492 125.396C77.0998 125.433 76.9878 125.499 76.9132 125.592C76.8478 125.676 76.8152 125.807 76.8152 125.984C76.8152 126.227 76.8805 126.418 77.0112 126.558C77.1418 126.689 77.3238 126.754 77.5572 126.754C77.9212 126.754 78.3038 126.539 78.7052 126.11L78.7332 125.074L77.2492 125.396ZM90.0534 128L90.1654 123.94C90.1654 123.249 89.8714 122.904 89.2834 122.904C88.8634 122.904 88.4247 123.091 87.9674 123.464L87.9254 125.144L88.0094 128H86.1474L86.2594 123.94C86.2687 123.604 86.194 123.347 86.0354 123.17C85.886 122.993 85.6667 122.904 85.3774 122.904C84.9667 122.904 84.514 123.1 84.0194 123.492V125.13L84.1034 128H82.2554L82.3534 125.312L82.2834 121.616L84.0334 121.462V122.414H84.1314C84.6447 121.947 85.2094 121.611 85.8254 121.406C86.8707 121.406 87.538 121.756 87.8274 122.456H87.9114C88.4434 121.961 89.05 121.611 89.7314 121.406C90.4407 121.406 90.9774 121.569 91.3414 121.896C91.7147 122.213 91.892 122.675 91.8734 123.282L91.8314 125.144L91.9154 128H90.0534ZM98.5883 124.976L94.8083 125.004C94.8923 126.171 95.485 126.754 96.5863 126.754C97.165 126.754 97.809 126.591 98.5183 126.264L98.6723 126.362L98.3923 127.748C97.683 128.009 97.0157 128.14 96.3903 128.14C95.3637 128.14 94.5563 127.841 93.9683 127.244C93.3897 126.647 93.1003 125.821 93.1003 124.766C93.1003 123.721 93.385 122.895 93.9543 122.288C94.5237 121.672 95.2937 121.364 96.2643 121.364C97.095 121.364 97.7343 121.593 98.1823 122.05C98.6397 122.498 98.8683 123.128 98.8683 123.94C98.8683 124.155 98.845 124.425 98.7983 124.752L98.5883 124.976ZM97.2443 123.73C97.2443 123.357 97.1603 123.077 96.9923 122.89C96.8243 122.694 96.577 122.596 96.2503 122.596C95.8863 122.596 95.583 122.717 95.3403 122.96C95.0977 123.193 94.9343 123.534 94.8503 123.982L97.2163 123.926L97.2443 123.73ZM104.156 123.94C104.165 123.613 104.091 123.361 103.932 123.184C103.783 122.997 103.563 122.904 103.274 122.904C102.854 122.904 102.406 123.105 101.93 123.506V125.13L102.014 128H100.152L100.25 125.312L100.18 121.616L101.944 121.462V122.414H102.042C102.555 121.947 103.115 121.611 103.722 121.406C104.431 121.406 104.973 121.569 105.346 121.896C105.719 122.213 105.897 122.675 105.878 123.282L105.836 125.144L105.92 128H104.044L104.156 123.94ZM110.194 126.628C110.493 126.628 110.805 126.549 111.132 126.39L111.286 126.53L111.104 127.636C110.628 127.879 110.143 128.028 109.648 128.084C108.388 127.953 107.758 127.337 107.758 126.236L107.828 125.074L107.814 122.666H106.946L106.876 122.568L106.974 121.546H107.8V120.468L109.494 119.922L109.62 120.034L109.578 121.546H111.244L111.3 121.644L111.216 122.666H109.55L109.466 125.802C109.466 126.101 109.522 126.315 109.634 126.446C109.746 126.567 109.933 126.628 110.194 126.628ZM114.899 121.364C115.851 121.364 116.579 121.644 117.083 122.204C117.587 122.764 117.839 123.571 117.839 124.626C117.839 125.765 117.568 126.637 117.027 127.244C116.485 127.841 115.706 128.14 114.689 128.14C113.737 128.14 113.009 127.86 112.505 127.3C112.001 126.74 111.749 125.933 111.749 124.878C111.749 123.739 112.019 122.871 112.561 122.274C113.102 121.667 113.881 121.364 114.899 121.364ZM114.773 122.624C114.325 122.624 113.998 122.773 113.793 123.072C113.597 123.371 113.499 123.851 113.499 124.514C113.499 125.373 113.601 125.984 113.807 126.348C114.012 126.712 114.348 126.894 114.815 126.894C115.263 126.894 115.585 126.749 115.781 126.46C115.986 126.161 116.089 125.676 116.089 125.004C116.089 124.155 115.981 123.548 115.767 123.184C115.561 122.811 115.23 122.624 114.773 122.624ZM126.666 125.13L126.708 126.306C126.708 126.465 126.727 126.577 126.764 126.642C126.811 126.698 126.89 126.726 127.002 126.726C127.105 126.726 127.231 126.707 127.38 126.67L127.506 126.782L127.352 127.762C127.035 127.958 126.689 128.075 126.316 128.112C126.027 128.084 125.784 127.986 125.588 127.818C125.392 127.65 125.257 127.421 125.182 127.132H125.07C124.613 127.552 124.146 127.874 123.67 128.098C122.755 128.098 122.046 127.809 121.542 127.23C121.038 126.642 120.786 125.83 120.786 124.794C120.786 123.693 121.075 122.848 121.654 122.26C122.233 121.672 123.035 121.378 124.062 121.378C124.333 121.378 124.631 121.406 124.958 121.462L124.93 118.312L126.778 118.172L126.666 125.13ZM123.936 122.638C123.003 122.638 122.536 123.231 122.536 124.416C122.536 125.153 122.648 125.709 122.872 126.082C123.096 126.455 123.423 126.642 123.852 126.642C124.263 126.642 124.641 126.451 124.986 126.068L125.014 125.298L124.972 122.89C124.608 122.722 124.263 122.638 123.936 122.638ZM133.643 124.976L129.863 125.004C129.947 126.171 130.54 126.754 131.641 126.754C132.22 126.754 132.864 126.591 133.573 126.264L133.727 126.362L133.447 127.748C132.738 128.009 132.07 128.14 131.445 128.14C130.418 128.14 129.611 127.841 129.023 127.244C128.444 126.647 128.155 125.821 128.155 124.766C128.155 123.721 128.44 122.895 129.009 122.288C129.578 121.672 130.348 121.364 131.319 121.364C132.15 121.364 132.789 121.593 133.237 122.05C133.694 122.498 133.923 123.128 133.923 123.94C133.923 124.155 133.9 124.425 133.853 124.752L133.643 124.976ZM132.299 123.73C132.299 123.357 132.215 123.077 132.047 122.89C131.879 122.694 131.632 122.596 131.305 122.596C130.941 122.596 130.638 122.717 130.395 122.96C130.152 123.193 129.989 123.534 129.905 123.982L132.271 123.926L132.299 123.73ZM47.7184 139.94C47.7277 139.613 47.653 139.361 47.4944 139.184C47.345 138.997 47.1257 138.904 46.8364 138.904C46.4164 138.904 45.9684 139.105 45.4924 139.506V141.13L45.5764 144H43.7144L43.8124 141.312L43.7424 137.616L45.5064 137.462V138.414H45.6044C46.1177 137.947 46.6777 137.611 47.2844 137.406C47.9937 137.406 48.535 137.569 48.9084 137.896C49.2817 138.213 49.459 138.675 49.4404 139.282L49.3984 141.144L49.4824 144H47.6064L47.7184 139.94ZM53.8265 137.364C54.7785 137.364 55.5065 137.644 56.0105 138.204C56.5145 138.764 56.7665 139.571 56.7665 140.626C56.7665 141.765 56.4958 142.637 55.9545 143.244C55.4132 143.841 54.6338 144.14 53.6165 144.14C52.6645 144.14 51.9365 143.86 51.4325 143.3C50.9285 142.74 50.6765 141.933 50.6765 140.878C50.6765 139.739 50.9472 138.871 51.4885 138.274C52.0298 137.667 52.8092 137.364 53.8265 137.364ZM53.7005 138.624C53.2525 138.624 52.9258 138.773 52.7205 139.072C52.5245 139.371 52.4265 139.851 52.4265 140.514C52.4265 141.373 52.5292 141.984 52.7345 142.348C52.9398 142.712 53.2758 142.894 53.7425 142.894C54.1905 142.894 54.5125 142.749 54.7085 142.46C54.9138 142.161 55.0165 141.676 55.0165 141.004C55.0165 140.155 54.9092 139.548 54.6945 139.184C54.4892 138.811 54.1578 138.624 53.7005 138.624ZM59.0964 138.526L60.0764 142.25H60.1744L61.3504 138.624L61.5884 137.49H63.2124L61.0284 144H59.0264L57.1784 137.532L58.9144 137.448L59.0964 138.526ZM66.6507 137.364C67.6027 137.364 68.3307 137.644 68.8347 138.204C69.3387 138.764 69.5907 139.571 69.5907 140.626C69.5907 141.765 69.3201 142.637 68.7787 143.244C68.2374 143.841 67.4581 144.14 66.4407 144.14C65.4887 144.14 64.7607 143.86 64.2567 143.3C63.7527 142.74 63.5007 141.933 63.5007 140.878C63.5007 139.739 63.7714 138.871 64.3127 138.274C64.8541 137.667 65.6334 137.364 66.6507 137.364ZM66.5247 138.624C66.0767 138.624 65.7501 138.773 65.5447 139.072C65.3487 139.371 65.2507 139.851 65.2507 140.514C65.2507 141.373 65.3534 141.984 65.5587 142.348C65.7641 142.712 66.1001 142.894 66.5667 142.894C67.0147 142.894 67.3367 142.749 67.5327 142.46C67.7381 142.161 67.8407 141.676 67.8407 141.004C67.8407 140.155 67.7334 139.548 67.5187 139.184C67.3134 138.811 66.9821 138.624 66.5247 138.624ZM73.0507 137.378C73.6854 137.378 74.2827 137.485 74.8427 137.7L74.5907 139.072L74.3667 139.142C74.096 138.965 73.8254 138.829 73.5547 138.736C73.284 138.643 73.046 138.596 72.8407 138.596C72.6167 138.596 72.4394 138.657 72.3087 138.778C72.178 138.89 72.1127 139.03 72.1127 139.198C72.1127 139.394 72.1967 139.553 72.3647 139.674C72.542 139.795 72.8174 139.931 73.1907 140.08C73.564 140.229 73.872 140.374 74.1147 140.514C74.3574 140.654 74.5627 140.85 74.7307 141.102C74.908 141.345 74.9967 141.648 74.9967 142.012C74.9967 142.385 74.8987 142.735 74.7027 143.062C74.516 143.379 74.2267 143.641 73.8347 143.846C73.4427 144.042 72.962 144.14 72.3927 144.14C71.7207 144.14 71.0254 144 70.3067 143.72L70.5167 142.264L70.6987 142.152C70.988 142.395 71.31 142.591 71.6647 142.74C72.0194 142.88 72.332 142.95 72.6027 142.95C72.8547 142.95 73.0507 142.889 73.1907 142.768C73.3307 142.637 73.4007 142.483 73.4007 142.306C73.4007 142.11 73.312 141.951 73.1347 141.83C72.9667 141.709 72.696 141.573 72.3227 141.424C71.94 141.256 71.6274 141.107 71.3847 140.976C71.142 140.836 70.932 140.64 70.7547 140.388C70.5867 140.136 70.5027 139.823 70.5027 139.45C70.5027 138.843 70.7314 138.349 71.1887 137.966C71.646 137.574 72.2667 137.378 73.0507 137.378ZM83.7909 141.13L83.8329 142.306C83.8329 142.465 83.8515 142.577 83.8889 142.642C83.9355 142.698 84.0149 142.726 84.1269 142.726C84.2295 142.726 84.3555 142.707 84.5049 142.67L84.6309 142.782L84.4769 143.762C84.1595 143.958 83.8142 144.075 83.4409 144.112C83.1515 144.084 82.9089 143.986 82.7129 143.818C82.5169 143.65 82.3815 143.421 82.3069 143.132H82.1949C81.7375 143.552 81.2709 143.874 80.7949 144.098C79.8802 144.098 79.1709 143.809 78.6669 143.23C78.1629 142.642 77.9109 141.83 77.9109 140.794C77.9109 139.693 78.2002 138.848 78.7789 138.26C79.3575 137.672 80.1602 137.378 81.1869 137.378C81.4575 137.378 81.7562 137.406 82.0829 137.462L82.0549 134.312L83.9029 134.172L83.7909 141.13ZM81.0609 138.638C80.1275 138.638 79.6609 139.231 79.6609 140.416C79.6609 141.153 79.7729 141.709 79.9969 142.082C80.2209 142.455 80.5475 142.642 80.9769 142.642C81.3875 142.642 81.7655 142.451 82.1109 142.068L82.1389 141.298L82.0969 138.89C81.7329 138.722 81.3875 138.638 81.0609 138.638ZM90.768 140.976L86.988 141.004C87.072 142.171 87.6647 142.754 88.766 142.754C89.3447 142.754 89.9887 142.591 90.698 142.264L90.852 142.362L90.572 143.748C89.8627 144.009 89.1954 144.14 88.57 144.14C87.5434 144.14 86.736 143.841 86.148 143.244C85.5694 142.647 85.28 141.821 85.28 140.766C85.28 139.721 85.5647 138.895 86.134 138.288C86.7034 137.672 87.4734 137.364 88.444 137.364C89.2747 137.364 89.914 137.593 90.362 138.05C90.8194 138.498 91.048 139.128 91.048 139.94C91.048 140.155 91.0247 140.425 90.978 140.752L90.768 140.976ZM89.424 139.73C89.424 139.357 89.34 139.077 89.172 138.89C89.004 138.694 88.7567 138.596 88.43 138.596C88.066 138.596 87.7627 138.717 87.52 138.96C87.2774 139.193 87.114 139.534 87.03 139.982L89.396 139.926L89.424 139.73ZM94.5155 137.378C95.1502 137.378 95.7475 137.485 96.3075 137.7L96.0555 139.072L95.8315 139.142C95.5609 138.965 95.2902 138.829 95.0195 138.736C94.7489 138.643 94.5109 138.596 94.3055 138.596C94.0815 138.596 93.9042 138.657 93.7735 138.778C93.6429 138.89 93.5775 139.03 93.5775 139.198C93.5775 139.394 93.6615 139.553 93.8295 139.674C94.0069 139.795 94.2822 139.931 94.6555 140.08C95.0289 140.229 95.3369 140.374 95.5795 140.514C95.8222 140.654 96.0275 140.85 96.1955 141.102C96.3729 141.345 96.4615 141.648 96.4615 142.012C96.4615 142.385 96.3635 142.735 96.1675 143.062C95.9809 143.379 95.6915 143.641 95.2995 143.846C94.9075 144.042 94.4269 144.14 93.8575 144.14C93.1855 144.14 92.4902 144 91.7715 143.72L91.9815 142.264L92.1635 142.152C92.4529 142.395 92.7749 142.591 93.1295 142.74C93.4842 142.88 93.7969 142.95 94.0675 142.95C94.3195 142.95 94.5155 142.889 94.6555 142.768C94.7955 142.637 94.8655 142.483 94.8655 142.306C94.8655 142.11 94.7769 141.951 94.5995 141.83C94.4315 141.709 94.1609 141.573 93.7875 141.424C93.4049 141.256 93.0922 141.107 92.8495 140.976C92.6069 140.836 92.3969 140.64 92.2195 140.388C92.0515 140.136 91.9675 139.823 91.9675 139.45C91.9675 138.843 92.1962 138.349 92.6535 137.966C93.1109 137.574 93.7315 137.378 94.5155 137.378ZM100.267 137.364C100.985 137.364 101.545 137.527 101.947 137.854C102.357 138.171 102.563 138.619 102.563 139.198C102.563 139.366 102.535 139.898 102.479 140.794C102.469 141.055 102.455 141.326 102.437 141.606C102.418 141.877 102.409 142.11 102.409 142.306C102.409 142.465 102.432 142.577 102.479 142.642C102.525 142.698 102.609 142.726 102.731 142.726C102.824 142.726 102.945 142.707 103.095 142.67L103.235 142.782L103.067 143.762C102.768 143.958 102.427 144.075 102.045 144.112C101.765 144.084 101.531 143.986 101.345 143.818C101.158 143.641 101.032 143.398 100.967 143.09H100.869C100.402 143.585 99.9213 143.93 99.4266 144.126C98.7546 144.117 98.2273 143.939 97.8446 143.594C97.4619 143.249 97.2706 142.777 97.2706 142.18C97.2706 141.713 97.3873 141.349 97.6206 141.088C97.8633 140.817 98.2273 140.635 98.7126 140.542L100.855 140.136V139.562C100.855 138.955 100.556 138.652 99.9586 138.652C99.6693 138.652 99.3613 138.717 99.0346 138.848C98.7173 138.979 98.3579 139.184 97.9566 139.464L97.8166 139.38L97.6066 138.148C98.0079 137.896 98.4373 137.705 98.8946 137.574C99.3519 137.434 99.8093 137.364 100.267 137.364ZM99.3566 141.396C99.2073 141.433 99.0953 141.499 99.0206 141.592C98.9553 141.676 98.9226 141.807 98.9226 141.984C98.9226 142.227 98.9879 142.418 99.1186 142.558C99.2493 142.689 99.4313 142.754 99.6646 142.754C100.029 142.754 100.411 142.539 100.813 142.11L100.841 141.074L99.3566 141.396ZM107.92 134.13C108.461 134.13 109.087 134.214 109.796 134.382L109.586 135.824L109.404 135.922C108.713 135.605 108.149 135.446 107.71 135.446C107.337 135.446 107.061 135.539 106.884 135.726C106.716 135.913 106.627 136.211 106.618 136.622L106.604 137.546H109.908L110.93 137.406L111.042 137.476L110.93 141.13L111.028 144H109.18L109.278 141.312L109.222 138.666H106.59L106.548 141.13L106.646 144H104.784L104.896 141.298L104.868 138.666H103.888L103.818 138.568L103.916 137.546H104.84V137.014C104.84 136.025 105.087 135.297 105.582 134.83C106.086 134.363 106.865 134.13 107.92 134.13ZM115.405 137.364C116.357 137.364 117.085 137.644 117.589 138.204C118.093 138.764 118.345 139.571 118.345 140.626C118.345 141.765 118.074 142.637 117.533 143.244C116.991 143.841 116.212 144.14 115.195 144.14C114.243 144.14 113.515 143.86 113.011 143.3C112.507 142.74 112.255 141.933 112.255 140.878C112.255 139.739 112.525 138.871 113.067 138.274C113.608 137.667 114.387 137.364 115.405 137.364ZM115.279 138.624C114.831 138.624 114.504 138.773 114.299 139.072C114.103 139.371 114.005 139.851 114.005 140.514C114.005 141.373 114.107 141.984 114.313 142.348C114.518 142.712 114.854 142.894 115.321 142.894C115.769 142.894 116.091 142.749 116.287 142.46C116.492 142.161 116.595 141.676 116.595 141.004C116.595 140.155 116.487 139.548 116.273 139.184C116.067 138.811 115.736 138.624 115.279 138.624ZM121.805 137.378C122.439 137.378 123.037 137.485 123.597 137.7L123.345 139.072L123.121 139.142C122.85 138.965 122.579 138.829 122.309 138.736C122.038 138.643 121.8 138.596 121.595 138.596C121.371 138.596 121.193 138.657 121.063 138.778C120.932 138.89 120.867 139.03 120.867 139.198C120.867 139.394 120.951 139.553 121.119 139.674C121.296 139.795 121.571 139.931 121.945 140.08C122.318 140.229 122.626 140.374 122.869 140.514C123.111 140.654 123.317 140.85 123.485 141.102C123.662 141.345 123.751 141.648 123.751 142.012C123.751 142.385 123.653 142.735 123.457 143.062C123.27 143.379 122.981 143.641 122.589 143.846C122.197 144.042 121.716 144.14 121.147 144.14C120.475 144.14 119.779 144 119.061 143.72L119.271 142.264L119.453 142.152C119.742 142.395 120.064 142.591 120.419 142.74C120.773 142.88 121.086 142.95 121.357 142.95C121.609 142.95 121.805 142.889 121.945 142.768C122.085 142.637 122.155 142.483 122.155 142.306C122.155 142.11 122.066 141.951 121.889 141.83C121.721 141.709 121.45 141.573 121.077 141.424C120.694 141.256 120.381 141.107 120.139 140.976C119.896 140.836 119.686 140.64 119.509 140.388C119.341 140.136 119.257 139.823 119.257 139.45C119.257 138.843 119.485 138.349 119.943 137.966C120.4 137.574 121.021 137.378 121.805 137.378Z" fill="white"/>
<defs>
<filter id="filter0_b_206:37262" x="3" y="67" width="161" height="97" filterUnits="userSpaceOnUse" color-interpolation-filters="sRGB">
<feFlood flood-opacity="0" result="BackgroundImageFix"/>
<feGaussianBlur in="BackgroundImage" stdDeviation="5"/>
<feComposite in2="SourceAlpha" operator="in" result="effect1_backgroundBlur_206:37262"/>
<feBlend mode="normal" in="SourceGraphic" in2="effect1_backgroundBlur_206:37262" result="shape"/>
</filter>
</defs>
</svg>
