<svg width="165" height="165" viewBox="0 0 165 165" fill="none" xmlns="http://www.w3.org/2000/svg">
<mask id="mask0_152:20513" style="mask-type:alpha" maskUnits="userSpaceOnUse" x="0" y="0" width="165" height="165">
<rect width="165" height="165" rx="8" fill="#5C9869"/>
</mask>
<g mask="url(#mask0_152:20513)">
<rect width="165" height="165" rx="8" fill="#EEEEEE"/>
<rect x="16" y="16" width="133" height="133" rx="13" stroke="#E0E0E0" stroke-width="10" stroke-linecap="round" stroke-linejoin="round" stroke-dasharray="50 50"/>
<path d="M63.3335 52.6667C61.0002 55.0001 63.3335 57.3334 63.3335 59.6667C63.3335 62.0001 68.0002 59.6667 68.0002 59.6667C68.0002 59.6667 70.3335 57.3334 72.6668 62.0001C75.0002 66.6667 82.0002 64.3334 79.6668 59.6667C77.3335 55.0001 70.3335 57.3334 70.3335 52.6667C70.3335 48.0001 63.3335 52.6667 63.3335 52.6667Z" fill="#FFFEFA"/>
<path d="M84.3333 78.3334C84.3333 78.3334 77.3333 83 77.3333 85.3334C77.3333 87.6667 86.6666 94.6667 89 97C91.3333 99.3334 96 99.3334 93.6666 94.6667C91.3333 90 84.3333 78.3334 84.3333 78.3334Z" fill="#DCDCDC"/>
<path d="M73.4764 47.769C71.738 46.173 66.8007 45.4216 64.325 48.3476C62.2274 48.3896 61.8214 50.471 62.211 51.549C62.5214 52.41 64.745 52.2163 65.6177 53.796C65.9164 53.299 65.8487 52.4146 65.6784 51.969C66.502 52.5033 66.5394 54.3186 69.491 54.937C72.3447 55.5343 72.3307 57.9563 72.3307 57.9563C72.3307 57.9563 73.593 57.03 74.3444 55.7233C75.777 53.2243 75.3897 49.5306 73.4764 47.769Z" fill="#969696"/>
<path d="M88.1462 94.7156C88.1462 94.7156 90.8832 96.5566 92.7242 93.8173C94.5652 91.078 95.9092 97.9496 95.9092 97.9496C95.9092 97.9496 89.9382 103.874 85.3602 104.772C80.7822 105.671 82.6232 102.931 84.4618 100.194L88.1462 94.7156Z" fill="#BDBDBD"/>
<path d="M56.3333 92.3334C47.3127 92.3334 40 99.646 40 108.667C40 117.687 47.3127 125 56.3333 125C65.354 125 72.6667 117.687 72.6667 108.667C72.6667 99.646 65.3563 92.3334 56.3333 92.3334ZM56.3333 120.333C49.891 120.333 44.6667 115.111 44.6667 108.667C44.6667 102.222 49.891 97 56.3333 97C62.7757 97 68 102.222 68 108.667C68 115.111 62.778 120.333 56.3333 120.333ZM107.667 92.3334C98.6483 92.3334 91.3333 99.646 91.3333 108.667C91.3333 117.687 98.6483 125 107.667 125C116.69 125 124 117.687 124 108.667C124 99.646 116.69 92.3334 107.667 92.3334ZM107.667 120.333C101.224 120.333 96 115.111 96 108.667C96 102.222 101.224 97 107.667 97C114.111 97 119.333 102.222 119.333 108.667C119.333 115.111 114.111 120.333 107.667 120.333Z" fill="#7C7C7C"/>
<path d="M91.3333 87.6667C91.3333 86.3764 90.204 85.3334 88.8063 85.3334H63.527C62.1317 85.3334 61 86.3764 61 87.6667C61 88.957 62.1317 90 63.527 90H88.804C90.204 90 91.3333 88.957 91.3333 87.6667ZM110 108.667C110 107.376 108.957 106.333 107.667 106.333H82C80.712 106.333 79.6667 107.376 79.6667 108.667C79.6667 109.957 80.712 111 82 111H107.667C108.957 111 110 109.957 110 108.667Z" fill="#AAB8C2"/>
<path d="M89.5229 80.6667L79.8022 107.883C79.3705 109.094 80.0029 110.431 81.2162 110.862C81.4752 110.956 81.7389 111 82.0002 111C82.9592 111 83.8575 110.405 84.1982 109.451L94.4789 80.6667H89.5229Z" fill="#AAB8C2"/>
<path d="M107.669 111C106.899 111 106.143 110.617 105.697 109.92L89.364 84.253C88.671 83.1656 88.993 81.7236 90.0803 81.0306C91.17 80.3376 92.6096 80.6596 93.3026 81.747L109.636 107.414C110.329 108.501 110.007 109.943 108.92 110.636C108.53 110.881 108.098 111 107.669 111ZM84.3333 101.046L64.7636 85.8233C63.7486 85.03 62.2833 85.2166 61.49 86.234C60.699 87.2536 60.8833 88.7166 61.9006 89.5076L82.9006 105.841C83.3253 106.175 83.8293 106.333 84.331 106.333H84.3333V101.046Z" fill="#AAB8C2"/>
<path d="M56.3332 111C56.0906 111 55.8409 110.96 55.5959 110.879C54.3732 110.473 53.7129 109.152 54.1212 107.927L60.5892 88.523L52.6022 82.531C51.5709 81.7587 51.3632 80.2957 52.1356 79.2644C52.9079 78.2377 54.3686 78.0254 55.4022 78.7977L66.0819 86.808L58.5499 109.404C58.2209 110.382 57.3086 111 56.3332 111Z" fill="#AAB8C2"/>
<path d="M101.56 85.3334C101.49 85.3334 101.423 85.3287 101.353 85.3193L88.118 83.6673C87.25 83.56 86.6154 82.7947 86.6714 81.922C86.725 81.0493 87.4484 80.3703 88.321 80.3703C88.4167 80.3703 97.8107 80.3283 102.295 77.3393C102.879 76.9497 103.653 76.973 104.218 77.4C104.776 77.8317 105.004 78.569 104.78 79.2387L103.126 84.2017C102.902 84.8853 102.265 85.3334 101.56 85.3334ZM65.6667 83H54C52.712 83 51.6667 81.9547 51.6667 80.6667C51.6667 79.3787 52.712 78.3333 54 78.3333H65.6667C66.9547 78.3333 68 79.3787 68 80.6667C68 81.9547 66.9547 83 65.6667 83Z" fill="#7C7C7C"/>
<path d="M91.331 71.3334L82 78.3334L89 85.3334L91.331 71.3334Z" fill="#BDBDBD"/>
<path d="M86.6643 80.6667C86.6643 80.6667 81.9976 87.6667 81.9976 90C81.9976 92.3334 84.331 99.3334 84.331 106.333C84.331 113.333 88.9976 113.333 88.9976 111C88.9976 108.667 92.6866 98.3557 88.9976 94.6667C86.6643 92.3334 93.6643 85.3334 93.6643 85.3334L86.6643 80.6667ZM76.5983 72.0264L70.1816 70.197C69.1386 74.761 63.128 80.6644 61 80.6644C58.6666 80.6644 56.3333 80.6644 56.3333 82.9977C56.3333 85.331 56.3333 85.331 61 85.331C65.6666 85.331 70.3333 80.6644 72.6666 78.331C74.1833 76.8144 75.721 74.2314 76.5983 72.0264Z" fill="#FFFEFA"/>
<path d="M91.3311 71.3334L84.3311 80.6667L93.6644 87.6667C93.6644 87.6667 105.331 76 105.331 71.3334C105.331 66.6667 98.3311 64.3334 98.3311 64.3334L91.3311 71.3334Z" fill="#DBDBDB"/>
<path d="M88.9974 57.331C81.9974 54.9977 75.9657 56.365 72.6641 59.6644C70.3307 61.9977 70.3307 64.331 70.3307 68.9977C70.3307 69.4084 70.2607 69.8424 70.1604 70.281L76.5631 72.1104C77.0344 70.9227 77.3331 69.8144 77.3331 68.9977C77.3331 66.6644 79.6664 66.6644 81.9997 68.9977C84.3331 71.331 86.6664 73.6644 88.9997 73.6644C91.3331 73.6644 103 64.331 103 64.331C95.9974 61.9977 93.4261 58.8057 88.9974 57.331Z" fill="#A9A8A8"/>
<path d="M84.3334 108.667C84.3334 108.667 86.6667 111 89 108.667C91.3334 106.333 91.3334 113.333 91.3334 113.333C91.3334 113.333 84.3334 118 79.6667 118C75 118 77.3334 115.667 79.6667 113.333L84.3334 108.667ZM65.6667 45.6667C70.3334 43.3334 79.6667 45.6667 75 50.3334C72.6667 52.6667 58.6667 55.0001 58.6667 55.0001C58.6667 52.6667 61 48.0001 65.6667 45.6667Z" fill="#5D5D5D"/>
</g>
</svg>
