<svg width="165" height="165" viewBox="0 0 165 165" fill="none" xmlns="http://www.w3.org/2000/svg">
<mask id="mask0_144:858" style="mask-type:alpha" maskUnits="userSpaceOnUse" x="0" y="0" width="165" height="165">
<rect width="165" height="165" rx="8" fill="#5C9869"/>
</mask>
<g mask="url(#mask0_144:858)">
<rect width="165" height="165" rx="8" fill="#EEEEEE"/>
<rect x="16" y="16" width="133" height="133" rx="13" stroke="#E0E0E0" stroke-width="10" stroke-linecap="round" stroke-linejoin="round" stroke-dasharray="50 50"/>
<path d="M82 122.667C47.098 122.667 42.3333 90 42.3333 80.6666H121.667C121.667 85.3333 117.098 122.667 82 122.667Z" fill="#D5D5D5"/>
<path d="M121.667 80.7974C121.667 92.9681 103.908 102.833 82 102.833C60.0923 102.833 42.3333 92.9657 42.3333 80.7974C42.3333 68.6267 60.0923 61.0947 82 61.0947C103.908 61.0924 121.667 68.6267 121.667 80.7974Z" fill="#848484"/>
<path d="M46.3184 85.0417C44.4331 82.3327 40.8747 76.8751 44.6664 68.7084C46.3184 64.4314 49.7531 61.6454 50.2081 62.9731C51.2767 66.0834 53.4164 68.8064 56.6248 68.5147C56.5828 69.6184 55.0638 58.4604 60.4164 55.4854C63.0414 54.0271 65.8601 56.3604 69.0684 61.5124C74.2064 69.7654 87.2941 65.9084 90.9668 63.7477C94.6861 61.5591 97.9434 60.1264 96.9704 54.2697C96.7558 52.9841 98.7041 51.8687 100.692 52.9327C104.031 54.7201 108.854 59.1651 109.706 64.0417C112.088 64.6741 113.873 63.6614 115.247 60.8824C115.929 59.5057 118.262 59.1814 119.261 60.9781C121.02 64.1421 123.909 73.8744 119.818 82.2231C115.152 91.7501 108.054 96.8064 92.1101 98.8481C76.1664 100.89 55.6517 98.4584 46.3184 85.0417Z" fill="#B1B1B1"/>
<path d="M85.3063 64.674C85.3063 69.588 81.083 73.5686 75.875 73.5686C70.667 73.5686 66.4437 69.5856 66.4437 64.674C66.4437 59.7623 70.667 55.7793 75.875 55.7793C81.083 55.777 85.3063 59.7623 85.3063 64.674Z" fill="#939393"/>
<path d="M82.973 64.674C82.973 68.3723 79.795 71.3683 75.875 71.3683C71.955 71.3683 68.777 68.37 68.777 64.674C68.777 60.9756 71.955 57.9773 75.875 57.9773C79.795 57.9796 82.973 60.978 82.973 64.674Z" fill="#E2E2E2"/>
<path d="M59.0563 79.5C62.01 79.5 64.4043 77.4106 64.4043 74.8333C64.4043 72.256 62.01 70.1666 59.0563 70.1666C56.1027 70.1666 53.7083 72.256 53.7083 74.8333C53.7083 77.4106 56.1027 79.5 59.0563 79.5Z" fill="#848484"/>
<path d="M80.8895 76.4246C83.8458 81.9966 75.9802 78.6436 70.1235 81.7539C64.2645 84.8643 62.6358 93.2549 59.6772 87.6829C56.7185 82.1109 59.0705 75.0736 64.9272 71.9633C70.7862 68.8553 77.9332 70.8526 80.8895 76.4246Z" fill="#DCDCDC"/>
<path d="M96.3897 74.8333C99.3433 74.8333 101.738 72.744 101.738 70.1667C101.738 67.5893 99.3433 65.5 96.3897 65.5C93.436 65.5 91.0417 67.5893 91.0417 70.1667C91.0417 72.744 93.436 74.8333 96.3897 74.8333Z" fill="#848484"/>
<path d="M107.94 87.9677C104.29 91.421 105.191 84.673 101.56 80.837C97.9251 77.001 91.1398 77.5354 94.7868 74.0797C98.4338 70.624 104.339 70.932 107.97 74.7657C111.603 78.5994 111.589 84.512 107.94 87.9677Z" fill="#D0D0D0"/>
<path d="M105.606 90.301C101.957 93.7543 102.858 87.0063 99.2271 83.168C95.5918 79.3343 88.8065 79.8663 92.4535 76.4106C96.1005 72.955 102.006 73.263 105.637 77.0966C109.27 80.9326 109.256 86.8453 105.606 90.301Z" fill="#E1E8ED"/>
<path d="M96.0305 87.4987C97.8528 92.31 91.8352 88.7937 86.7765 90.7117C81.7225 92.6274 79.5432 99.247 77.7208 94.438C75.8985 89.6314 78.5212 84.176 83.5752 82.2604C88.6315 80.3447 94.2058 82.692 96.0305 87.4987Z" fill="#848484"/>
<path d="M60.9018 85.5294C60.5122 81.9314 67.5122 65.8874 79.9582 79.8897C77.0415 80.3751 69.9435 80.3751 66.7352 84.8481C63.5268 89.3211 60.6102 85.3334 60.9018 85.5294Z" fill="#ECECEC"/>
<path d="M51.4728 86.9876C49.7741 84.7219 55.5561 79.4999 59.9311 83.9706C61.7791 81.7353 70.9164 77.2646 74.3208 86.9876C75.8771 85.2376 88.6124 84.8479 88.8061 95.6396C88.9018 97.0979 74.1178 96.8203 66.5414 95.0563C62.3601 94.0833 54.6811 91.2646 51.4728 86.9876ZM100.666 93.4019C97.9434 94.1369 102.517 81.4436 111.071 83.5833C111.362 81.2499 113.208 73.5686 118.556 74.9313C118.75 77.1666 118.652 88.5393 100.666 93.4019Z" fill="#D6D6D6"/>
</g>
</svg>
