<svg width="167" height="167" viewBox="0 0 167 167" fill="none" xmlns="http://www.w3.org/2000/svg">
<mask id="mask0_206:36828" style="mask-type:alpha" maskUnits="userSpaceOnUse" x="0" y="0" width="167" height="167">
<rect x="1" y="1" width="165" height="165" rx="8" fill="#5988D6" stroke="#EDE6FC" stroke-opacity="0.3"/>
</mask>
<g mask="url(#mask0_206:36828)">
<rect x="1" y="1" width="165" height="165" rx="8" fill="#FAE28B" stroke="#EDE6FC" stroke-opacity="0.3"/>
<path d="M62.4685 45.2139C62.4088 45.2315 62.3544 45.2635 62.31 45.307C62.2655 45.3505 62.2324 45.4042 62.2136 45.4635L58.9483 55.4514L58.1226 57.971C58.0988 58.0451 58.098 58.1247 58.1201 58.1993C58.1423 58.274 58.1864 58.3402 58.2467 58.3894C58.3071 58.4386 58.3809 58.4684 58.4584 58.475C58.536 58.4816 58.6138 58.4647 58.6816 58.4265L60.9932 57.1027L70.1607 51.8607C70.2161 51.8297 70.263 51.7854 70.2972 51.732C70.3313 51.6785 70.3518 51.6174 70.3568 51.5541C70.3617 51.4908 70.351 51.4273 70.3256 51.3691C70.3001 51.311 70.2607 51.26 70.2109 51.2207L62.8216 45.2779C62.7721 45.2398 62.7143 45.2141 62.6528 45.2029C62.5914 45.1918 62.5282 45.1955 62.4685 45.2139Z" fill="#616E7D"/>
<path d="M71.3032 50.7566C76.5302 46.1206 82.8165 39.5377 89.2969 31.7932L77.4775 22.2854C71.3032 30.2774 66.2234 37.831 62.8141 43.9252L71.3032 50.7566Z" fill="#DD7452"/>
<path d="M100.545 -6.51225L78.5133 20.8848C78.4285 20.9898 78.3653 21.1104 78.3273 21.2399C78.2892 21.3694 78.2771 21.5051 78.2916 21.6392C78.306 21.7734 78.3468 21.9034 78.4116 22.0218C78.4763 22.1401 78.5638 22.2446 78.669 22.3291L88.9971 30.6369C89.2095 30.8078 89.4811 30.8874 89.7521 30.8582C90.0231 30.829 90.2715 30.6934 90.4426 30.4811L121.396 -8.00888C121.519 -8.16192 121.596 -8.34715 121.618 -8.54259C121.639 -8.73803 121.604 -8.93547 121.516 -9.11147C121.428 -9.28746 121.292 -9.43462 121.123 -9.53548C120.955 -9.63634 120.761 -9.68665 120.564 -9.68046L103.112 -9.13216C102.964 -9.1282 102.818 -9.09187 102.685 -9.02573C102.552 -8.95958 102.436 -8.8652 102.343 -8.7492L101.883 -8.17849L101.941 -8.13369L100.599 -6.46745L100.545 -6.51225Z" fill="#616E7D"/>
<path d="M98.3748 -11L79.8861 11.9956L81.8148 13.5445L98.9636 -7.78272L100.545 -6.51224L100.599 -6.46744L101.941 -8.13368L101.883 -8.17848L100.303 -9.45003H100.305L98.3748 -11Z" fill="#DD7452"/>
<path d="M57.5241 60.0127C57.1306 60.0127 56.7532 60.169 56.4749 60.4473C56.1966 60.7256 56.0403 61.103 56.0403 61.4965C56.0403 61.8901 56.1966 62.2675 56.4749 62.5458C56.7532 62.824 57.1306 62.9804 57.5241 62.9804H121.565C121.759 62.9804 121.952 62.942 122.132 62.8674C122.312 62.7928 122.476 62.6835 122.614 62.5458C122.752 62.408 122.861 62.2444 122.935 62.0644C123.01 61.8843 123.048 61.6914 123.048 61.4965C123.048 61.3017 123.01 61.1087 122.935 60.9287C122.861 60.7487 122.752 60.5851 122.614 60.4473C122.476 60.3095 122.312 60.2002 122.132 60.1256C121.952 60.0511 121.759 60.0127 121.565 60.0127H57.5241Z" fill="#DD7452"/>
</g>
<g filter="url(#filter0_b_206:36828)">
<rect x="13" y="77" width="141" height="77" rx="10" fill="black" fill-opacity="0.8"/>
</g>
<path d="M38.572 86.872C39.3374 86.872 40.098 87.026 40.854 87.334L40.546 88.972L40.266 89.084C39.9487 88.86 39.6174 88.6827 39.272 88.552C38.936 88.4213 38.628 88.356 38.348 88.356C37.9747 88.356 37.676 88.4587 37.452 88.664C37.228 88.86 37.116 89.0887 37.116 89.35C37.116 89.6207 37.2374 89.8493 37.48 90.036C37.732 90.2227 38.124 90.442 38.656 90.694C39.1694 90.9273 39.5847 91.1467 39.902 91.352C40.2287 91.548 40.504 91.8093 40.728 92.136C40.9614 92.4627 41.078 92.864 41.078 93.34C41.078 93.8533 40.938 94.3247 40.658 94.754C40.378 95.174 39.9814 95.51 39.468 95.762C38.9547 96.0047 38.362 96.126 37.69 96.126C36.8034 96.126 35.912 95.9347 35.016 95.552L35.282 93.788L35.492 93.676C35.8654 94.0027 36.2714 94.2547 36.71 94.432C37.158 94.6 37.5547 94.684 37.9 94.684C38.3107 94.684 38.628 94.586 38.852 94.39C39.0854 94.1847 39.202 93.942 39.202 93.662C39.202 93.3633 39.076 93.1207 38.824 92.934C38.5814 92.7473 38.1847 92.5233 37.634 92.262C37.13 92.038 36.7194 91.828 36.402 91.632C36.0847 91.436 35.814 91.1747 35.59 90.848C35.366 90.5213 35.254 90.1247 35.254 89.658C35.254 89.1353 35.394 88.664 35.674 88.244C35.954 87.8147 36.346 87.4787 36.85 87.236C37.354 86.9933 37.928 86.872 38.572 86.872ZM47.2299 92.976L43.4499 93.004C43.5339 94.1707 44.1266 94.754 45.2279 94.754C45.8066 94.754 46.4506 94.5907 47.1599 94.264L47.3139 94.362L47.0339 95.748C46.3246 96.0093 45.6573 96.14 45.0319 96.14C44.0053 96.14 43.1979 95.8413 42.6099 95.244C42.0313 94.6467 41.7419 93.8207 41.7419 92.766C41.7419 91.7207 42.0266 90.8947 42.5959 90.288C43.1653 89.672 43.9353 89.364 44.9059 89.364C45.7366 89.364 46.3759 89.5927 46.8239 90.05C47.2813 90.498 47.5099 91.128 47.5099 91.94C47.5099 92.1547 47.4866 92.4253 47.4399 92.752L47.2299 92.976ZM45.8859 91.73C45.8859 91.3567 45.8019 91.0767 45.6339 90.89C45.4659 90.694 45.2186 90.596 44.8919 90.596C44.5279 90.596 44.2246 90.7173 43.9819 90.96C43.7393 91.1933 43.5759 91.534 43.4919 91.982L45.8579 91.926L45.8859 91.73ZM52.3915 89.476C52.4755 89.476 52.5921 89.4853 52.7415 89.504V91.226L52.5455 91.296C52.3868 91.2307 52.2141 91.198 52.0275 91.198C51.4861 91.198 50.9961 91.548 50.5575 92.248V93.13L50.6555 96H48.7935L48.9055 93.312L48.8215 89.616L50.5855 89.462L50.5715 90.736H50.6835C51.1408 89.896 51.7101 89.476 52.3915 89.476ZM54.9607 90.526L55.9407 94.25H56.0387L57.2147 90.624L57.4527 89.49H59.0767L56.8927 96H54.8907L53.0427 89.532L54.7787 89.448L54.9607 90.526ZM64.853 92.976L61.073 93.004C61.157 94.1707 61.7497 94.754 62.851 94.754C63.4297 94.754 64.0737 94.5907 64.783 94.264L64.937 94.362L64.657 95.748C63.9477 96.0093 63.2803 96.14 62.655 96.14C61.6283 96.14 60.821 95.8413 60.233 95.244C59.6543 94.6467 59.365 93.8207 59.365 92.766C59.365 91.7207 59.6497 90.8947 60.219 90.288C60.7883 89.672 61.5583 89.364 62.529 89.364C63.3597 89.364 63.999 89.5927 64.447 90.05C64.9043 90.498 65.133 91.128 65.133 91.94C65.133 92.1547 65.1097 92.4253 65.063 92.752L64.853 92.976ZM63.509 91.73C63.509 91.3567 63.425 91.0767 63.257 90.89C63.089 90.694 62.8417 90.596 62.515 90.596C62.151 90.596 61.8477 90.7173 61.605 90.96C61.3623 91.1933 61.199 91.534 61.115 91.982L63.481 91.926L63.509 91.73ZM71.9796 89.406C72.7916 89.406 73.417 89.6813 73.8556 90.232C74.2943 90.7827 74.5136 91.562 74.5136 92.57C74.5136 93.7087 74.229 94.5907 73.6596 95.216C73.0996 95.832 72.3063 96.14 71.2796 96.14C70.981 96.14 70.6683 96.112 70.3416 96.056L70.3836 98.59H68.5356L68.6336 93.312L68.5496 89.616L70.3276 89.462L70.3136 90.414H70.4116C70.673 90.162 70.925 89.9613 71.1676 89.812C71.4103 89.6533 71.681 89.518 71.9796 89.406ZM71.2936 94.922C71.779 94.922 72.1476 94.7493 72.3996 94.404C72.6516 94.0587 72.7776 93.55 72.7776 92.878C72.7776 92.2247 72.6703 91.7347 72.4556 91.408C72.2503 91.072 71.9423 90.904 71.5316 90.904C71.1303 90.904 70.7243 91.1047 70.3136 91.506L70.2996 93.13L70.3276 94.712C70.6636 94.852 70.9856 94.922 71.2936 94.922ZM78.3437 89.364C79.0624 89.364 79.6224 89.5273 80.0237 89.854C80.4344 90.1713 80.6397 90.6193 80.6397 91.198C80.6397 91.366 80.6117 91.898 80.5557 92.794C80.5464 93.0553 80.5324 93.326 80.5137 93.606C80.4951 93.8767 80.4857 94.11 80.4857 94.306C80.4857 94.4647 80.5091 94.5767 80.5557 94.642C80.6024 94.698 80.6864 94.726 80.8077 94.726C80.9011 94.726 81.0224 94.7073 81.1717 94.67L81.3117 94.782L81.1437 95.762C80.8451 95.958 80.5044 96.0747 80.1217 96.112C79.8417 96.084 79.6084 95.986 79.4217 95.818C79.2351 95.6407 79.1091 95.398 79.0437 95.09H78.9457C78.4791 95.5847 77.9984 95.93 77.5037 96.126C76.8317 96.1167 76.3044 95.9393 75.9217 95.594C75.5391 95.2487 75.3477 94.7773 75.3477 94.18C75.3477 93.7133 75.4644 93.3493 75.6977 93.088C75.9404 92.8173 76.3044 92.6353 76.7897 92.542L78.9317 92.136V91.562C78.9317 90.9553 78.6331 90.652 78.0357 90.652C77.7464 90.652 77.4384 90.7173 77.1117 90.848C76.7944 90.9787 76.4351 91.184 76.0337 91.464L75.8937 91.38L75.6837 90.148C76.0851 89.896 76.5144 89.7047 76.9717 89.574C77.4291 89.434 77.8864 89.364 78.3437 89.364ZM77.4337 93.396C77.2844 93.4333 77.1724 93.4987 77.0977 93.592C77.0324 93.676 76.9997 93.8067 76.9997 93.984C76.9997 94.2267 77.0651 94.418 77.1957 94.558C77.3264 94.6887 77.5084 94.754 77.7417 94.754C78.1057 94.754 78.4884 94.5393 78.8897 94.11L78.9177 93.074L77.4337 93.396ZM86.0379 89.476C86.1219 89.476 86.2386 89.4853 86.3879 89.504V91.226L86.1919 91.296C86.0333 91.2307 85.8606 91.198 85.6739 91.198C85.1326 91.198 84.6426 91.548 84.2039 92.248V93.13L84.3019 96H82.4399L82.5519 93.312L82.4679 89.616L84.2319 89.462L84.2179 90.736H84.3299C84.7873 89.896 85.3566 89.476 86.0379 89.476ZM89.7324 89.364C90.4511 89.364 91.0111 89.5273 91.4124 89.854C91.8231 90.1713 92.0284 90.6193 92.0284 91.198C92.0284 91.366 92.0004 91.898 91.9444 92.794C91.9351 93.0553 91.9211 93.326 91.9024 93.606C91.8837 93.8767 91.8744 94.11 91.8744 94.306C91.8744 94.4647 91.8977 94.5767 91.9444 94.642C91.9911 94.698 92.0751 94.726 92.1964 94.726C92.2897 94.726 92.4111 94.7073 92.5604 94.67L92.7004 94.782L92.5324 95.762C92.2337 95.958 91.8931 96.0747 91.5104 96.112C91.2304 96.084 90.9971 95.986 90.8104 95.818C90.6237 95.6407 90.4977 95.398 90.4324 95.09H90.3344C89.8677 95.5847 89.3871 95.93 88.8924 96.126C88.2204 96.1167 87.6931 95.9393 87.3104 95.594C86.9277 95.2487 86.7364 94.7773 86.7364 94.18C86.7364 93.7133 86.8531 93.3493 87.0864 93.088C87.3291 92.8173 87.6931 92.6353 88.1784 92.542L90.3204 92.136V91.562C90.3204 90.9553 90.0217 90.652 89.4244 90.652C89.1351 90.652 88.8271 90.7173 88.5004 90.848C88.1831 90.9787 87.8237 91.184 87.4224 91.464L87.2824 91.38L87.0724 90.148C87.4737 89.896 87.9031 89.7047 88.3604 89.574C88.8177 89.434 89.2751 89.364 89.7324 89.364ZM88.8224 93.396C88.6731 93.4333 88.5611 93.4987 88.4864 93.592C88.4211 93.676 88.3884 93.8067 88.3884 93.984C88.3884 94.2267 88.4537 94.418 88.5844 94.558C88.7151 94.6887 88.8971 94.754 89.1304 94.754C89.4944 94.754 89.8771 94.5393 90.2784 94.11L90.3064 93.074L88.8224 93.396ZM98.5918 89.364C99.3104 89.364 99.8704 89.5273 100.272 89.854C100.682 90.1713 100.888 90.6193 100.888 91.198C100.888 91.366 100.86 91.898 100.804 92.794C100.794 93.0553 100.78 93.326 100.762 93.606C100.743 93.8767 100.734 94.11 100.734 94.306C100.734 94.4647 100.757 94.5767 100.804 94.642C100.85 94.698 100.934 94.726 101.056 94.726C101.149 94.726 101.27 94.7073 101.42 94.67L101.56 94.782L101.392 95.762C101.093 95.958 100.752 96.0747 100.37 96.112C100.09 96.084 99.8564 95.986 99.6698 95.818C99.4831 95.6407 99.3571 95.398 99.2918 95.09H99.1938C98.7271 95.5847 98.2464 95.93 97.7518 96.126C97.0798 96.1167 96.5524 95.9393 96.1698 95.594C95.7871 95.2487 95.5958 94.7773 95.5958 94.18C95.5958 93.7133 95.7124 93.3493 95.9458 93.088C96.1884 92.8173 96.5524 92.6353 97.0378 92.542L99.1798 92.136V91.562C99.1798 90.9553 98.8811 90.652 98.2838 90.652C97.9944 90.652 97.6864 90.7173 97.3598 90.848C97.0424 90.9787 96.6831 91.184 96.2818 91.464L96.1418 91.38L95.9318 90.148C96.3331 89.896 96.7624 89.7047 97.2198 89.574C97.6771 89.434 98.1344 89.364 98.5918 89.364ZM97.6818 93.396C97.5324 93.4333 97.4204 93.4987 97.3458 93.592C97.2804 93.676 97.2478 93.8067 97.2478 93.984C97.2478 94.2267 97.3131 94.418 97.4438 94.558C97.5744 94.6887 97.7564 94.754 97.9898 94.754C98.3538 94.754 98.7364 94.5393 99.1378 94.11L99.1658 93.074L97.6818 93.396ZM106.692 91.94C106.701 91.6133 106.627 91.3613 106.468 91.184C106.319 90.9973 106.099 90.904 105.81 90.904C105.39 90.904 104.942 91.1047 104.466 91.506V93.13L104.55 96H102.688L102.786 93.312L102.716 89.616L104.48 89.462V90.414H104.578C105.091 89.9473 105.651 89.6113 106.258 89.406C106.967 89.406 107.509 89.5693 107.882 89.896C108.255 90.2133 108.433 90.6753 108.414 91.282L108.372 93.144L108.456 96H106.58L106.692 91.94ZM112.8 89.364C113.752 89.364 114.48 89.644 114.984 90.204C115.488 90.764 115.74 91.5713 115.74 92.626C115.74 93.7647 115.469 94.6373 114.928 95.244C114.387 95.8413 113.607 96.14 112.59 96.14C111.638 96.14 110.91 95.86 110.406 95.3C109.902 94.74 109.65 93.9327 109.65 92.878C109.65 91.7393 109.921 90.8713 110.462 90.274C111.003 89.6673 111.783 89.364 112.8 89.364ZM112.674 90.624C112.226 90.624 111.899 90.7733 111.694 91.072C111.498 91.3707 111.4 91.8513 111.4 92.514C111.4 93.3727 111.503 93.984 111.708 94.348C111.913 94.712 112.249 94.894 112.716 94.894C113.164 94.894 113.486 94.7493 113.682 94.46C113.887 94.1613 113.99 93.676 113.99 93.004C113.99 92.1547 113.883 91.548 113.668 91.184C113.463 90.8107 113.131 90.624 112.674 90.624ZM119.648 94.628C119.947 94.628 120.259 94.5487 120.586 94.39L120.74 94.53L120.558 95.636C120.082 95.8787 119.597 96.028 119.102 96.084C117.842 95.9533 117.212 95.3373 117.212 94.236L117.282 93.074L117.268 90.666H116.4L116.33 90.568L116.428 89.546H117.254V88.468L118.948 87.922L119.074 88.034L119.032 89.546H120.698L120.754 89.644L120.67 90.666H119.004L118.92 93.802C118.92 94.1007 118.976 94.3153 119.088 94.446C119.2 94.5673 119.387 94.628 119.648 94.628ZM124.309 89.364C125.027 89.364 125.587 89.5273 125.989 89.854C126.399 90.1713 126.605 90.6193 126.605 91.198C126.605 91.366 126.577 91.898 126.521 92.794C126.511 93.0553 126.497 93.326 126.479 93.606C126.46 93.8767 126.451 94.11 126.451 94.306C126.451 94.4647 126.474 94.5767 126.521 94.642C126.567 94.698 126.651 94.726 126.773 94.726C126.866 94.726 126.987 94.7073 127.137 94.67L127.277 94.782L127.109 95.762C126.81 95.958 126.469 96.0747 126.087 96.112C125.807 96.084 125.573 95.986 125.387 95.818C125.2 95.6407 125.074 95.398 125.009 95.09H124.911C124.444 95.5847 123.963 95.93 123.469 96.126C122.797 96.1167 122.269 95.9393 121.887 95.594C121.504 95.2487 121.313 94.7773 121.313 94.18C121.313 93.7133 121.429 93.3493 121.663 93.088C121.905 92.8173 122.269 92.6353 122.755 92.542L124.897 92.136V91.562C124.897 90.9553 124.598 90.652 124.001 90.652C123.711 90.652 123.403 90.7173 123.077 90.848C122.759 90.9787 122.4 91.184 121.999 91.464L121.859 91.38L121.649 90.148C122.05 89.896 122.479 89.7047 122.937 89.574C123.394 89.434 123.851 89.364 124.309 89.364ZM123.399 93.396C123.249 93.4333 123.137 93.4987 123.063 93.592C122.997 93.676 122.965 93.8067 122.965 93.984C122.965 94.2267 123.03 94.418 123.161 94.558C123.291 94.6887 123.473 94.754 123.707 94.754C124.071 94.754 124.453 94.5393 124.855 94.11L124.883 93.074L123.399 93.396ZM132.003 89.476C132.087 89.476 132.203 89.4853 132.353 89.504V91.226L132.157 91.296C131.998 91.2307 131.825 91.198 131.639 91.198C131.097 91.198 130.607 91.548 130.169 92.248V93.13L130.267 96H128.405L128.517 93.312L128.433 89.616L130.197 89.462L130.183 90.736H130.295C130.752 89.896 131.321 89.476 132.003 89.476ZM28.0271 106.526L29.0071 110.25H29.1051L30.2811 106.624L30.5191 105.49H32.1431L29.9591 112H27.9571L26.1091 105.532L27.8451 105.448L28.0271 106.526ZM35.4277 105.364C36.1464 105.364 36.7064 105.527 37.1077 105.854C37.5184 106.171 37.7237 106.619 37.7237 107.198C37.7237 107.366 37.6957 107.898 37.6397 108.794C37.6304 109.055 37.6164 109.326 37.5977 109.606C37.5791 109.877 37.5697 110.11 37.5697 110.306C37.5697 110.465 37.5931 110.577 37.6397 110.642C37.6864 110.698 37.7704 110.726 37.8917 110.726C37.9851 110.726 38.1064 110.707 38.2557 110.67L38.3957 110.782L38.2277 111.762C37.9291 111.958 37.5884 112.075 37.2057 112.112C36.9257 112.084 36.6924 111.986 36.5057 111.818C36.3191 111.641 36.1931 111.398 36.1277 111.09H36.0297C35.5631 111.585 35.0824 111.93 34.5877 112.126C33.9157 112.117 33.3884 111.939 33.0057 111.594C32.6231 111.249 32.4317 110.777 32.4317 110.18C32.4317 109.713 32.5484 109.349 32.7817 109.088C33.0244 108.817 33.3884 108.635 33.8737 108.542L36.0157 108.136V107.562C36.0157 106.955 35.7171 106.652 35.1197 106.652C34.8304 106.652 34.5224 106.717 34.1957 106.848C33.8784 106.979 33.5191 107.184 33.1177 107.464L32.9777 107.38L32.7677 106.148C33.1691 105.896 33.5984 105.705 34.0557 105.574C34.5131 105.434 34.9704 105.364 35.4277 105.364ZM34.5177 109.396C34.3684 109.433 34.2564 109.499 34.1817 109.592C34.1164 109.676 34.0837 109.807 34.0837 109.984C34.0837 110.227 34.1491 110.418 34.2797 110.558C34.4104 110.689 34.5924 110.754 34.8257 110.754C35.1897 110.754 35.5724 110.539 35.9737 110.11L36.0017 109.074L34.5177 109.396ZM41.426 109.13L41.524 112H39.662L39.76 109.298L39.676 102.312L41.538 102.172L41.426 109.13ZM45.9857 105.364C46.9377 105.364 47.6657 105.644 48.1697 106.204C48.6737 106.764 48.9257 107.571 48.9257 108.626C48.9257 109.765 48.655 110.637 48.1137 111.244C47.5724 111.841 46.793 112.14 45.7757 112.14C44.8237 112.14 44.0957 111.86 43.5917 111.3C43.0877 110.74 42.8357 109.933 42.8357 108.878C42.8357 107.739 43.1064 106.871 43.6477 106.274C44.189 105.667 44.9684 105.364 45.9857 105.364ZM45.8597 106.624C45.4117 106.624 45.085 106.773 44.8797 107.072C44.6837 107.371 44.5857 107.851 44.5857 108.514C44.5857 109.373 44.6884 109.984 44.8937 110.348C45.099 110.712 45.435 110.894 45.9017 110.894C46.3497 110.894 46.6717 110.749 46.8677 110.46C47.073 110.161 47.1757 109.676 47.1757 109.004C47.1757 108.155 47.0684 107.548 46.8537 107.184C46.6484 106.811 46.317 106.624 45.8597 106.624ZM53.7176 105.476C53.8016 105.476 53.9183 105.485 54.0676 105.504V107.226L53.8716 107.296C53.713 107.231 53.5403 107.198 53.3536 107.198C52.8123 107.198 52.3223 107.548 51.8836 108.248V109.13L51.9816 112H50.1196L50.2316 109.312L50.1476 105.616L51.9116 105.462L51.8976 106.736H52.0096C52.467 105.896 53.0363 105.476 53.7176 105.476ZM60.0268 108.976L56.2468 109.004C56.3308 110.171 56.9235 110.754 58.0248 110.754C58.6035 110.754 59.2475 110.591 59.9568 110.264L60.1108 110.362L59.8308 111.748C59.1215 112.009 58.4541 112.14 57.8288 112.14C56.8021 112.14 55.9948 111.841 55.4068 111.244C54.8281 110.647 54.5388 109.821 54.5388 108.766C54.5388 107.721 54.8235 106.895 55.3928 106.288C55.9621 105.672 56.7321 105.364 57.7028 105.364C58.5335 105.364 59.1728 105.593 59.6208 106.05C60.0781 106.498 60.3068 107.128 60.3068 107.94C60.3068 108.155 60.2835 108.425 60.2368 108.752L60.0268 108.976ZM58.6828 107.73C58.6828 107.357 58.5988 107.077 58.4308 106.89C58.2628 106.694 58.0155 106.596 57.6888 106.596C57.3248 106.596 57.0215 106.717 56.7788 106.96C56.5361 107.193 56.3728 107.534 56.2888 107.982L58.6548 107.926L58.6828 107.73ZM63.7743 105.378C64.409 105.378 65.0063 105.485 65.5663 105.7L65.3143 107.072L65.0903 107.142C64.8197 106.965 64.549 106.829 64.2783 106.736C64.0077 106.643 63.7697 106.596 63.5643 106.596C63.3403 106.596 63.163 106.657 63.0323 106.778C62.9017 106.89 62.8363 107.03 62.8363 107.198C62.8363 107.394 62.9203 107.553 63.0883 107.674C63.2657 107.795 63.541 107.931 63.9143 108.08C64.2877 108.229 64.5957 108.374 64.8383 108.514C65.081 108.654 65.2863 108.85 65.4543 109.102C65.6317 109.345 65.7203 109.648 65.7203 110.012C65.7203 110.385 65.6223 110.735 65.4263 111.062C65.2397 111.379 64.9503 111.641 64.5583 111.846C64.1663 112.042 63.6857 112.14 63.1163 112.14C62.4443 112.14 61.749 112 61.0303 111.72L61.2403 110.264L61.4223 110.152C61.7117 110.395 62.0337 110.591 62.3883 110.74C62.743 110.88 63.0557 110.95 63.3263 110.95C63.5783 110.95 63.7743 110.889 63.9143 110.768C64.0543 110.637 64.1243 110.483 64.1243 110.306C64.1243 110.11 64.0357 109.951 63.8583 109.83C63.6903 109.709 63.4197 109.573 63.0463 109.424C62.6637 109.256 62.351 109.107 62.1083 108.976C61.8657 108.836 61.6557 108.64 61.4783 108.388C61.3103 108.136 61.2263 107.823 61.2263 107.45C61.2263 106.843 61.455 106.349 61.9123 105.966C62.3697 105.574 62.9903 105.378 63.7743 105.378ZM74.5145 109.13L74.5565 110.306C74.5565 110.465 74.5752 110.577 74.6125 110.642C74.6592 110.698 74.7385 110.726 74.8505 110.726C74.9532 110.726 75.0792 110.707 75.2285 110.67L75.3545 110.782L75.2005 111.762C74.8832 111.958 74.5378 112.075 74.1645 112.112C73.8752 112.084 73.6325 111.986 73.4365 111.818C73.2405 111.65 73.1052 111.421 73.0305 111.132H72.9185C72.4612 111.552 71.9945 111.874 71.5185 112.098C70.6038 112.098 69.8945 111.809 69.3905 111.23C68.8865 110.642 68.6345 109.83 68.6345 108.794C68.6345 107.693 68.9238 106.848 69.5025 106.26C70.0812 105.672 70.8838 105.378 71.9105 105.378C72.1812 105.378 72.4798 105.406 72.8065 105.462L72.7785 102.312L74.6265 102.172L74.5145 109.13ZM71.7845 106.638C70.8512 106.638 70.3845 107.231 70.3845 108.416C70.3845 109.153 70.4965 109.709 70.7205 110.082C70.9445 110.455 71.2712 110.642 71.7005 110.642C72.1112 110.642 72.4892 110.451 72.8345 110.068L72.8625 109.298L72.8205 106.89C72.4565 106.722 72.1112 106.638 71.7845 106.638ZM81.4917 108.976L77.7117 109.004C77.7957 110.171 78.3883 110.754 79.4897 110.754C80.0683 110.754 80.7123 110.591 81.4217 110.264L81.5757 110.362L81.2957 111.748C80.5863 112.009 79.919 112.14 79.2937 112.14C78.267 112.14 77.4597 111.841 76.8717 111.244C76.293 110.647 76.0037 109.821 76.0037 108.766C76.0037 107.721 76.2883 106.895 76.8577 106.288C77.427 105.672 78.197 105.364 79.1677 105.364C79.9983 105.364 80.6377 105.593 81.0857 106.05C81.543 106.498 81.7717 107.128 81.7717 107.94C81.7717 108.155 81.7483 108.425 81.7017 108.752L81.4917 108.976ZM80.1477 107.73C80.1477 107.357 80.0637 107.077 79.8957 106.89C79.7277 106.694 79.4803 106.596 79.1537 106.596C78.7897 106.596 78.4863 106.717 78.2437 106.96C78.001 107.193 77.8377 107.534 77.7537 107.982L80.1197 107.926L80.1477 107.73ZM91.4323 106.372C91.1803 106.437 90.821 106.507 90.3543 106.582L90.3263 106.638C90.4663 106.918 90.5363 107.231 90.5363 107.576C90.5363 108.276 90.2796 108.836 89.7663 109.256C89.2623 109.667 88.5763 109.872 87.7083 109.872C87.447 109.872 87.1763 109.849 86.8963 109.802C86.8123 109.886 86.7563 109.951 86.7283 109.998C86.7003 110.045 86.6863 110.101 86.6863 110.166C86.6863 110.334 86.7983 110.451 87.0223 110.516C87.2463 110.581 87.601 110.647 88.0863 110.712C88.637 110.777 89.0943 110.857 89.4583 110.95C89.8316 111.043 90.149 111.207 90.4103 111.44C90.681 111.673 90.8163 112.005 90.8163 112.434C90.8163 112.873 90.6763 113.265 90.3963 113.61C90.1256 113.965 89.7476 114.24 89.2623 114.436C88.777 114.632 88.2263 114.73 87.6103 114.73C86.761 114.73 86.1076 114.557 85.6503 114.212C85.193 113.867 84.9643 113.409 84.9643 112.84C85.2536 112.439 85.641 112.089 86.1263 111.79V111.72C85.809 111.608 85.5616 111.454 85.3843 111.258C85.207 111.053 85.1183 110.782 85.1183 110.446C85.3703 110.138 85.6876 109.853 86.0703 109.592V109.522C85.7343 109.335 85.4776 109.093 85.3003 108.794C85.1323 108.486 85.0483 108.127 85.0483 107.716C85.0483 106.988 85.3003 106.419 85.8043 106.008C86.3083 105.597 86.9943 105.392 87.8623 105.392C88.3663 105.392 88.8236 105.476 89.2343 105.644C89.9063 105.523 90.5923 105.336 91.2923 105.084L91.4323 105.21V106.372ZM87.7643 108.752C88.147 108.752 88.4363 108.654 88.6323 108.458C88.8283 108.262 88.9263 107.977 88.9263 107.604C88.9263 106.895 88.5623 106.54 87.8343 106.54C87.0503 106.54 86.6583 106.899 86.6583 107.618C86.6583 107.991 86.7516 108.276 86.9383 108.472C87.125 108.659 87.4003 108.752 87.7643 108.752ZM89.2483 112.77C89.2483 112.518 89.113 112.345 88.8423 112.252C88.581 112.159 88.175 112.079 87.6243 112.014L87.1483 111.944C86.9243 112.093 86.7563 112.238 86.6443 112.378C86.5323 112.518 86.4763 112.667 86.4763 112.826C86.4763 113.069 86.5883 113.265 86.8123 113.414C87.0363 113.563 87.363 113.638 87.7923 113.638C88.231 113.638 88.581 113.559 88.8423 113.4C89.113 113.251 89.2483 113.041 89.2483 112.77ZM93.9943 109.13L94.0923 112H92.2303L92.3283 109.298L92.2443 102.312L94.1063 102.172L93.9943 109.13ZM95.978 109.312L95.908 105.616L97.742 105.462L97.658 109.13L97.742 112H95.88L95.978 109.312ZM96.86 102.298C97.1494 102.298 97.3734 102.382 97.532 102.55C97.7 102.718 97.784 102.951 97.784 103.25C97.784 103.567 97.6954 103.819 97.518 104.006C97.3407 104.193 97.098 104.286 96.79 104.286C96.482 104.286 96.244 104.202 96.076 104.034C95.9174 103.866 95.838 103.628 95.838 103.32C95.838 103.012 95.9267 102.765 96.104 102.578C96.2907 102.391 96.5427 102.298 96.86 102.298ZM102.176 105.364C102.484 105.364 102.788 105.397 103.086 105.462C103.394 105.518 103.665 105.602 103.898 105.714L103.59 107.198L103.436 107.268C102.96 107.007 102.536 106.876 102.162 106.876C101.733 106.876 101.402 107.03 101.168 107.338C100.935 107.646 100.818 108.085 100.818 108.654C100.818 109.307 100.944 109.807 101.196 110.152C101.448 110.497 101.808 110.67 102.274 110.67C102.694 110.67 103.161 110.553 103.674 110.32L103.814 110.432L103.632 111.874C103.072 112.051 102.498 112.14 101.91 112.14C101.014 112.14 100.314 111.851 99.8104 111.272C99.3064 110.684 99.0544 109.867 99.0544 108.822C99.0544 107.739 99.3298 106.895 99.8804 106.288C100.431 105.672 101.196 105.364 102.176 105.364ZM109.929 108.976L106.149 109.004C106.233 110.171 106.826 110.754 107.927 110.754C108.506 110.754 109.15 110.591 109.859 110.264L110.013 110.362L109.733 111.748C109.024 112.009 108.356 112.14 107.731 112.14C106.704 112.14 105.897 111.841 105.309 111.244C104.73 110.647 104.441 109.821 104.441 108.766C104.441 107.721 104.726 106.895 105.295 106.288C105.864 105.672 106.634 105.364 107.605 105.364C108.436 105.364 109.075 105.593 109.523 106.05C109.98 106.498 110.209 107.128 110.209 107.94C110.209 108.155 110.186 108.425 110.139 108.752L109.929 108.976ZM108.585 107.73C108.585 107.357 108.501 107.077 108.333 106.89C108.165 106.694 107.918 106.596 107.591 106.596C107.227 106.596 106.924 106.717 106.681 106.96C106.438 107.193 106.275 107.534 106.191 107.982L108.557 107.926L108.585 107.73ZM119.291 112L119.403 107.94C119.403 107.249 119.109 106.904 118.521 106.904C118.101 106.904 117.662 107.091 117.205 107.464L117.163 109.144L117.247 112H115.385L115.497 107.94C115.506 107.604 115.431 107.347 115.273 107.17C115.123 106.993 114.904 106.904 114.615 106.904C114.204 106.904 113.751 107.1 113.257 107.492V109.13L113.341 112H111.493L111.591 109.312L111.521 105.616L113.271 105.462V106.414H113.369C113.882 105.947 114.447 105.611 115.063 105.406C116.108 105.406 116.775 105.756 117.065 106.456H117.149C117.681 105.961 118.287 105.611 118.969 105.406C119.678 105.406 120.215 105.569 120.579 105.896C120.952 106.213 121.129 106.675 121.111 107.282L121.069 109.144L121.153 112H119.291ZM122.912 109.312L122.842 105.616L124.676 105.462L124.592 109.13L124.676 112H122.814L122.912 109.312ZM123.794 102.298C124.083 102.298 124.307 102.382 124.466 102.55C124.634 102.718 124.718 102.951 124.718 103.25C124.718 103.567 124.629 103.819 124.452 104.006C124.274 104.193 124.032 104.286 123.724 104.286C123.416 104.286 123.178 104.202 123.01 104.034C122.851 103.866 122.772 103.628 122.772 103.32C122.772 103.012 122.86 102.765 123.038 102.578C123.224 102.391 123.476 102.298 123.794 102.298ZM128.998 105.364C129.717 105.364 130.277 105.527 130.678 105.854C131.089 106.171 131.294 106.619 131.294 107.198C131.294 107.366 131.266 107.898 131.21 108.794C131.201 109.055 131.187 109.326 131.168 109.606C131.149 109.877 131.14 110.11 131.14 110.306C131.14 110.465 131.163 110.577 131.21 110.642C131.257 110.698 131.341 110.726 131.462 110.726C131.555 110.726 131.677 110.707 131.826 110.67L131.966 110.782L131.798 111.762C131.499 111.958 131.159 112.075 130.776 112.112C130.496 112.084 130.263 111.986 130.076 111.818C129.889 111.641 129.763 111.398 129.698 111.09H129.6C129.133 111.585 128.653 111.93 128.158 112.126C127.486 112.117 126.959 111.939 126.576 111.594C126.193 111.249 126.002 110.777 126.002 110.18C126.002 109.713 126.119 109.349 126.352 109.088C126.595 108.817 126.959 108.635 127.444 108.542L129.586 108.136V107.562C129.586 106.955 129.287 106.652 128.69 106.652C128.401 106.652 128.093 106.717 127.766 106.848C127.449 106.979 127.089 107.184 126.688 107.464L126.548 107.38L126.338 106.148C126.739 105.896 127.169 105.705 127.626 105.574C128.083 105.434 128.541 105.364 128.998 105.364ZM128.088 109.396C127.939 109.433 127.827 109.499 127.752 109.592C127.687 109.676 127.654 109.807 127.654 109.984C127.654 110.227 127.719 110.418 127.85 110.558C127.981 110.689 128.163 110.754 128.396 110.754C128.76 110.754 129.143 110.539 129.544 110.11L129.572 109.074L128.088 109.396ZM140.335 108.976L136.555 109.004C136.639 110.171 137.232 110.754 138.333 110.754C138.912 110.754 139.556 110.591 140.265 110.264L140.419 110.362L140.139 111.748C139.43 112.009 138.763 112.14 138.137 112.14C137.111 112.14 136.303 111.841 135.715 111.244C135.137 110.647 134.847 109.821 134.847 108.766C134.847 107.721 135.132 106.895 135.701 106.288C136.271 105.672 137.041 105.364 138.011 105.364C138.842 105.364 139.481 105.593 139.929 106.05C140.387 106.498 140.615 107.128 140.615 107.94C140.615 108.155 140.592 108.425 140.545 108.752L140.335 108.976ZM138.991 107.73C138.991 107.357 138.907 107.077 138.739 106.89C138.571 106.694 138.324 106.596 137.997 106.596C137.633 106.596 137.33 106.717 137.087 106.96C136.845 107.193 136.681 107.534 136.597 107.982L138.963 107.926L138.991 107.73ZM41.8467 121.364C42.5653 121.364 43.1253 121.527 43.5267 121.854C43.9373 122.171 44.1427 122.619 44.1427 123.198C44.1427 123.366 44.1147 123.898 44.0587 124.794C44.0493 125.055 44.0353 125.326 44.0167 125.606C43.998 125.877 43.9887 126.11 43.9887 126.306C43.9887 126.465 44.012 126.577 44.0587 126.642C44.1053 126.698 44.1893 126.726 44.3107 126.726C44.404 126.726 44.5253 126.707 44.6747 126.67L44.8147 126.782L44.6467 127.762C44.348 127.958 44.0073 128.075 43.6247 128.112C43.3447 128.084 43.1113 127.986 42.9247 127.818C42.738 127.641 42.612 127.398 42.5467 127.09H42.4487C41.982 127.585 41.5013 127.93 41.0067 128.126C40.3347 128.117 39.8073 127.939 39.4247 127.594C39.042 127.249 38.8507 126.777 38.8507 126.18C38.8507 125.713 38.9673 125.349 39.2007 125.088C39.4433 124.817 39.8073 124.635 40.2927 124.542L42.4347 124.136V123.562C42.4347 122.955 42.136 122.652 41.5387 122.652C41.2493 122.652 40.9413 122.717 40.6147 122.848C40.2973 122.979 39.938 123.184 39.5367 123.464L39.3967 123.38L39.1867 122.148C39.588 121.896 40.0173 121.705 40.4747 121.574C40.932 121.434 41.3893 121.364 41.8467 121.364ZM40.9367 125.396C40.7873 125.433 40.6753 125.499 40.6007 125.592C40.5353 125.676 40.5027 125.807 40.5027 125.984C40.5027 126.227 40.568 126.418 40.6987 126.558C40.8293 126.689 41.0113 126.754 41.2447 126.754C41.6087 126.754 41.9913 126.539 42.3927 126.11L42.4207 125.074L40.9367 125.396ZM47.1472 122.526L48.1272 126.25H48.2252L49.4012 122.624L49.6392 121.49H51.2632L49.0792 128H47.0772L45.2292 121.532L46.9652 121.448L47.1472 122.526ZM54.5478 121.364C55.2665 121.364 55.8265 121.527 56.2278 121.854C56.6385 122.171 56.8438 122.619 56.8438 123.198C56.8438 123.366 56.8158 123.898 56.7598 124.794C56.7505 125.055 56.7365 125.326 56.7178 125.606C56.6992 125.877 56.6898 126.11 56.6898 126.306C56.6898 126.465 56.7132 126.577 56.7598 126.642C56.8065 126.698 56.8905 126.726 57.0118 126.726C57.1052 126.726 57.2265 126.707 57.3758 126.67L57.5158 126.782L57.3478 127.762C57.0492 127.958 56.7085 128.075 56.3258 128.112C56.0458 128.084 55.8125 127.986 55.6258 127.818C55.4392 127.641 55.3132 127.398 55.2478 127.09H55.1498C54.6832 127.585 54.2025 127.93 53.7078 128.126C53.0358 128.117 52.5085 127.939 52.1258 127.594C51.7432 127.249 51.5518 126.777 51.5518 126.18C51.5518 125.713 51.6685 125.349 51.9018 125.088C52.1445 124.817 52.5085 124.635 52.9938 124.542L55.1358 124.136V123.562C55.1358 122.955 54.8372 122.652 54.2398 122.652C53.9505 122.652 53.6425 122.717 53.3158 122.848C52.9985 122.979 52.6392 123.184 52.2378 123.464L52.0978 123.38L51.8878 122.148C52.2892 121.896 52.7185 121.705 53.1758 121.574C53.6332 121.434 54.0905 121.364 54.5478 121.364ZM53.6378 125.396C53.4885 125.433 53.3765 125.499 53.3018 125.592C53.2365 125.676 53.2038 125.807 53.2038 125.984C53.2038 126.227 53.2692 126.418 53.3998 126.558C53.5305 126.689 53.7125 126.754 53.9458 126.754C54.3098 126.754 54.6925 126.539 55.0938 126.11L55.1218 125.074L53.6378 125.396ZM60.5461 125.13L60.6441 128H58.7821L58.8801 125.298L58.7961 118.312L60.6581 118.172L60.5461 125.13ZM62.5298 125.312L62.4598 121.616L64.2938 121.462L64.2098 125.13L64.2938 128H62.4318L62.5298 125.312ZM63.4118 118.298C63.7011 118.298 63.9251 118.382 64.0838 118.55C64.2518 118.718 64.3358 118.951 64.3358 119.25C64.3358 119.567 64.2471 119.819 64.0698 120.006C63.8925 120.193 63.6498 120.286 63.3418 120.286C63.0338 120.286 62.7958 120.202 62.6278 120.034C62.4691 119.866 62.3898 119.628 62.3898 119.32C62.3898 119.012 62.4785 118.765 62.6558 118.578C62.8425 118.391 63.0945 118.298 63.4118 118.298ZM68.6162 121.364C69.3349 121.364 69.8949 121.527 70.2962 121.854C70.7069 122.171 70.9122 122.619 70.9122 123.198C70.9122 123.366 70.8842 123.898 70.8282 124.794C70.8189 125.055 70.8049 125.326 70.7862 125.606C70.7675 125.877 70.7582 126.11 70.7582 126.306C70.7582 126.465 70.7815 126.577 70.8282 126.642C70.8749 126.698 70.9589 126.726 71.0802 126.726C71.1735 126.726 71.2949 126.707 71.4442 126.67L71.5842 126.782L71.4162 127.762C71.1175 127.958 70.7769 128.075 70.3942 128.112C70.1142 128.084 69.8809 127.986 69.6942 127.818C69.5075 127.641 69.3815 127.398 69.3162 127.09H69.2182C68.7515 127.585 68.2709 127.93 67.7762 128.126C67.1042 128.117 66.5769 127.939 66.1942 127.594C65.8115 127.249 65.6202 126.777 65.6202 126.18C65.6202 125.713 65.7369 125.349 65.9702 125.088C66.2129 124.817 66.5769 124.635 67.0622 124.542L69.2042 124.136V123.562C69.2042 122.955 68.9055 122.652 68.3082 122.652C68.0189 122.652 67.7109 122.717 67.3842 122.848C67.0669 122.979 66.7075 123.184 66.3062 123.464L66.1662 123.38L65.9562 122.148C66.3575 121.896 66.7869 121.705 67.2442 121.574C67.7015 121.434 68.1589 121.364 68.6162 121.364ZM67.7062 125.396C67.5569 125.433 67.4449 125.499 67.3702 125.592C67.3049 125.676 67.2722 125.807 67.2722 125.984C67.2722 126.227 67.3375 126.418 67.4682 126.558C67.5989 126.689 67.7809 126.754 68.0142 126.754C68.3782 126.754 68.7609 126.539 69.1622 126.11L69.1902 125.074L67.7062 125.396ZM76.3104 121.476C76.3944 121.476 76.5111 121.485 76.6604 121.504V123.226L76.4644 123.296C76.3057 123.231 76.1331 123.198 75.9464 123.198C75.4051 123.198 74.9151 123.548 74.4764 124.248V125.13L74.5744 128H72.7124L72.8244 125.312L72.7404 121.616L74.5044 121.462L74.4904 122.736H74.6024C75.0597 121.896 75.6291 121.476 76.3104 121.476ZM87.4967 128L87.6087 123.94C87.6087 123.249 87.3147 122.904 86.7267 122.904C86.3067 122.904 85.8681 123.091 85.4107 123.464L85.3687 125.144L85.4527 128H83.5907L83.7027 123.94C83.7121 123.604 83.6374 123.347 83.4787 123.17C83.3294 122.993 83.1101 122.904 82.8207 122.904C82.4101 122.904 81.9574 123.1 81.4627 123.492V125.13L81.5467 128H79.6987L79.7967 125.312L79.7267 121.616L81.4767 121.462V122.414H81.5747C82.0881 121.947 82.6527 121.611 83.2687 121.406C84.3141 121.406 84.9814 121.756 85.2707 122.456H85.3547C85.8867 121.961 86.4934 121.611 87.1747 121.406C87.8841 121.406 88.4207 121.569 88.7847 121.896C89.1581 122.213 89.3354 122.675 89.3167 123.282L89.2747 125.144L89.3587 128H87.4967ZM96.0317 124.976L92.2517 125.004C92.3357 126.171 92.9284 126.754 94.0297 126.754C94.6084 126.754 95.2524 126.591 95.9617 126.264L96.1157 126.362L95.8357 127.748C95.1264 128.009 94.459 128.14 93.8337 128.14C92.807 128.14 91.9997 127.841 91.4117 127.244C90.833 126.647 90.5437 125.821 90.5437 124.766C90.5437 123.721 90.8284 122.895 91.3977 122.288C91.967 121.672 92.737 121.364 93.7077 121.364C94.5384 121.364 95.1777 121.593 95.6257 122.05C96.083 122.498 96.3117 123.128 96.3117 123.94C96.3117 124.155 96.2884 124.425 96.2417 124.752L96.0317 124.976ZM94.6877 123.73C94.6877 123.357 94.6037 123.077 94.4357 122.89C94.2677 122.694 94.0204 122.596 93.6937 122.596C93.3297 122.596 93.0264 122.717 92.7837 122.96C92.541 123.193 92.3777 123.534 92.2937 123.982L94.6597 123.926L94.6877 123.73ZM99.3605 125.13L99.4585 128H97.5965L97.6945 125.298L97.6105 118.312L99.4725 118.172L99.3605 125.13ZM105.278 123.94C105.288 123.604 105.218 123.347 105.068 123.17C104.919 122.993 104.7 122.904 104.41 122.904C103.99 122.904 103.542 123.105 103.066 123.506L103.038 125.13L103.136 128H101.274L101.372 125.298L101.288 118.312L103.15 118.172L103.08 122.414H103.164C103.678 121.947 104.242 121.611 104.858 121.406C105.568 121.406 106.104 121.569 106.468 121.896C106.842 122.213 107.024 122.675 107.014 123.282L106.972 125.144L107.042 128H105.18L105.278 123.94ZM111.385 121.364C112.337 121.364 113.065 121.644 113.569 122.204C114.073 122.764 114.325 123.571 114.325 124.626C114.325 125.765 114.054 126.637 113.513 127.244C112.972 127.841 112.192 128.14 111.175 128.14C110.223 128.14 109.495 127.86 108.991 127.3C108.487 126.74 108.235 125.933 108.235 124.878C108.235 123.739 108.506 122.871 109.047 122.274C109.588 121.667 110.368 121.364 111.385 121.364ZM111.259 122.624C110.811 122.624 110.484 122.773 110.279 123.072C110.083 123.371 109.985 123.851 109.985 124.514C109.985 125.373 110.088 125.984 110.293 126.348C110.498 126.712 110.834 126.894 111.301 126.894C111.749 126.894 112.071 126.749 112.267 126.46C112.472 126.161 112.575 125.676 112.575 125.004C112.575 124.155 112.468 123.548 112.253 123.184C112.048 122.811 111.716 122.624 111.259 122.624ZM119.117 121.476C119.201 121.476 119.318 121.485 119.467 121.504V123.226L119.271 123.296C119.112 123.231 118.94 123.198 118.753 123.198C118.212 123.198 117.722 123.548 117.283 124.248V125.13L117.381 128H115.519L115.631 125.312L115.547 121.616L117.311 121.462L117.297 122.736H117.409C117.866 121.896 118.436 121.476 119.117 121.476ZM125.207 121.364C126.159 121.364 126.887 121.644 127.391 122.204C127.895 122.764 128.147 123.571 128.147 124.626C128.147 125.765 127.877 126.637 127.335 127.244C126.794 127.841 126.015 128.14 124.997 128.14C124.045 128.14 123.317 127.86 122.813 127.3C122.309 126.74 122.057 125.933 122.057 124.878C122.057 123.739 122.328 122.871 122.869 122.274C123.411 121.667 124.19 121.364 125.207 121.364ZM125.081 122.624C124.633 122.624 124.307 122.773 124.101 123.072C123.905 123.371 123.807 123.851 123.807 124.514C123.807 125.373 123.91 125.984 124.115 126.348C124.321 126.712 124.657 126.894 125.123 126.894C125.571 126.894 125.893 126.749 126.089 126.46C126.295 126.161 126.397 125.676 126.397 125.004C126.397 124.155 126.29 123.548 126.075 123.184C125.87 122.811 125.539 122.624 125.081 122.624ZM54.7614 142.628C55.0601 142.628 55.3727 142.549 55.6994 142.39L55.8534 142.53L55.6714 143.636C55.1954 143.879 54.7101 144.028 54.2154 144.084C52.9554 143.953 52.3254 143.337 52.3254 142.236L52.3954 141.074L52.3814 138.666H51.5134L51.4434 138.568L51.5414 137.546H52.3674V136.468L54.0614 135.922L54.1874 136.034L54.1454 137.546H55.8114L55.8674 137.644L55.7834 138.666H54.1174L54.0334 141.802C54.0334 142.101 54.0894 142.315 54.2014 142.446C54.3134 142.567 54.5001 142.628 54.7614 142.628ZM60.4579 137.476C60.5419 137.476 60.6585 137.485 60.8079 137.504V139.226L60.6119 139.296C60.4532 139.231 60.2805 139.198 60.0939 139.198C59.5525 139.198 59.0625 139.548 58.6239 140.248V141.13L58.7219 144H56.8599L56.9719 141.312L56.8879 137.616L58.6519 137.462L58.6379 138.736H58.7499C59.2072 137.896 59.7765 137.476 60.4579 137.476ZM64.1523 137.364C64.871 137.364 65.431 137.527 65.8323 137.854C66.243 138.171 66.4483 138.619 66.4483 139.198C66.4483 139.366 66.4203 139.898 66.3643 140.794C66.355 141.055 66.341 141.326 66.3223 141.606C66.3037 141.877 66.2943 142.11 66.2943 142.306C66.2943 142.465 66.3177 142.577 66.3643 142.642C66.411 142.698 66.495 142.726 66.6163 142.726C66.7097 142.726 66.831 142.707 66.9803 142.67L67.1203 142.782L66.9523 143.762C66.6537 143.958 66.313 144.075 65.9303 144.112C65.6503 144.084 65.417 143.986 65.2303 143.818C65.0437 143.641 64.9177 143.398 64.8523 143.09H64.7543C64.2877 143.585 63.807 143.93 63.3123 144.126C62.6403 144.117 62.113 143.939 61.7303 143.594C61.3477 143.249 61.1563 142.777 61.1563 142.18C61.1563 141.713 61.273 141.349 61.5063 141.088C61.749 140.817 62.113 140.635 62.5983 140.542L64.7403 140.136V139.562C64.7403 138.955 64.4417 138.652 63.8443 138.652C63.555 138.652 63.247 138.717 62.9203 138.848C62.603 138.979 62.2437 139.184 61.8423 139.464L61.7023 139.38L61.4923 138.148C61.8937 137.896 62.323 137.705 62.7803 137.574C63.2377 137.434 63.695 137.364 64.1523 137.364ZM63.2423 141.396C63.093 141.433 62.981 141.499 62.9063 141.592C62.841 141.676 62.8083 141.807 62.8083 141.984C62.8083 142.227 62.8737 142.418 63.0043 142.558C63.135 142.689 63.317 142.754 63.5503 142.754C63.9143 142.754 64.297 142.539 64.6983 142.11L64.7263 141.074L63.2423 141.396ZM70.9626 142.628C71.2612 142.628 71.5739 142.549 71.9006 142.39L72.0546 142.53L71.8726 143.636C71.3966 143.879 70.9112 144.028 70.4166 144.084C69.1566 143.953 68.5266 143.337 68.5266 142.236L68.5966 141.074L68.5826 138.666H67.7146L67.6446 138.568L67.7426 137.546H68.5686V136.468L70.2626 135.922L70.3886 136.034L70.3466 137.546H72.0126L72.0686 137.644L71.9846 138.666H70.3186L70.2346 141.802C70.2346 142.101 70.2906 142.315 70.4026 142.446C70.5146 142.567 70.7012 142.628 70.9626 142.628ZM75.623 137.364C76.3417 137.364 76.9017 137.527 77.303 137.854C77.7137 138.171 77.919 138.619 77.919 139.198C77.919 139.366 77.891 139.898 77.835 140.794C77.8257 141.055 77.8117 141.326 77.793 141.606C77.7744 141.877 77.765 142.11 77.765 142.306C77.765 142.465 77.7884 142.577 77.835 142.642C77.8817 142.698 77.9657 142.726 78.087 142.726C78.1804 142.726 78.3017 142.707 78.451 142.67L78.591 142.782L78.423 143.762C78.1244 143.958 77.7837 144.075 77.401 144.112C77.121 144.084 76.8877 143.986 76.701 143.818C76.5144 143.641 76.3884 143.398 76.323 143.09H76.225C75.7584 143.585 75.2777 143.93 74.783 144.126C74.111 144.117 73.5837 143.939 73.201 143.594C72.8184 143.249 72.627 142.777 72.627 142.18C72.627 141.713 72.7437 141.349 72.977 141.088C73.2197 140.817 73.5837 140.635 74.069 140.542L76.211 140.136V139.562C76.211 138.955 75.9124 138.652 75.315 138.652C75.0257 138.652 74.7177 138.717 74.391 138.848C74.0737 138.979 73.7144 139.184 73.313 139.464L73.173 139.38L72.963 138.148C73.3644 137.896 73.7937 137.705 74.251 137.574C74.7084 137.434 75.1657 137.364 75.623 137.364ZM74.713 141.396C74.5637 141.433 74.4517 141.499 74.377 141.592C74.3117 141.676 74.279 141.807 74.279 141.984C74.279 142.227 74.3444 142.418 74.475 142.558C74.6057 142.689 74.7877 142.754 75.021 142.754C75.385 142.754 75.7677 142.539 76.169 142.11L76.197 141.074L74.713 141.396ZM87.5172 144L87.6292 139.94C87.6292 139.249 87.3352 138.904 86.7472 138.904C86.3272 138.904 85.8886 139.091 85.4312 139.464L85.3892 141.144L85.4732 144H83.6112L83.7232 139.94C83.7326 139.604 83.6579 139.347 83.4992 139.17C83.3499 138.993 83.1306 138.904 82.8412 138.904C82.4306 138.904 81.9779 139.1 81.4832 139.492V141.13L81.5672 144H79.7192L79.8172 141.312L79.7472 137.616L81.4972 137.462V138.414H81.5952C82.1086 137.947 82.6732 137.611 83.2892 137.406C84.3346 137.406 85.0019 137.756 85.2912 138.456H85.3752C85.9072 137.961 86.5139 137.611 87.1952 137.406C87.9046 137.406 88.4412 137.569 88.8052 137.896C89.1786 138.213 89.3559 138.675 89.3372 139.282L89.2952 141.144L89.3792 144H87.5172ZM96.0522 140.976L92.2722 141.004C92.3562 142.171 92.9489 142.754 94.0502 142.754C94.6289 142.754 95.2729 142.591 95.9822 142.264L96.1362 142.362L95.8562 143.748C95.1469 144.009 94.4795 144.14 93.8542 144.14C92.8275 144.14 92.0202 143.841 91.4322 143.244C90.8535 142.647 90.5642 141.821 90.5642 140.766C90.5642 139.721 90.8489 138.895 91.4182 138.288C91.9875 137.672 92.7575 137.364 93.7282 137.364C94.5589 137.364 95.1982 137.593 95.6462 138.05C96.1035 138.498 96.3322 139.128 96.3322 139.94C96.3322 140.155 96.3089 140.425 96.2622 140.752L96.0522 140.976ZM94.7082 139.73C94.7082 139.357 94.6242 139.077 94.4562 138.89C94.2882 138.694 94.0409 138.596 93.7142 138.596C93.3502 138.596 93.0469 138.717 92.8042 138.96C92.5615 139.193 92.3982 139.534 92.3142 139.982L94.6802 139.926L94.7082 139.73ZM101.62 139.94C101.629 139.613 101.554 139.361 101.396 139.184C101.246 138.997 101.027 138.904 100.738 138.904C100.318 138.904 99.8697 139.105 99.3937 139.506V141.13L99.4777 144H97.6157L97.7137 141.312L97.6437 137.616L99.4077 137.462V138.414H99.5057C100.019 137.947 100.579 137.611 101.186 137.406C101.895 137.406 102.436 137.569 102.81 137.896C103.183 138.213 103.36 138.675 103.342 139.282L103.3 141.144L103.384 144H101.508L101.62 139.94ZM107.658 142.628C107.957 142.628 108.269 142.549 108.596 142.39L108.75 142.53L108.568 143.636C108.092 143.879 107.607 144.028 107.112 144.084C105.852 143.953 105.222 143.337 105.222 142.236L105.292 141.074L105.278 138.666H104.41L104.34 138.568L104.438 137.546H105.264V136.468L106.958 135.922L107.084 136.034L107.042 137.546H108.708L108.764 137.644L108.68 138.666H107.014L106.93 141.802C106.93 142.101 106.986 142.315 107.098 142.446C107.21 142.567 107.397 142.628 107.658 142.628ZM112.363 137.364C113.315 137.364 114.043 137.644 114.547 138.204C115.051 138.764 115.303 139.571 115.303 140.626C115.303 141.765 115.032 142.637 114.491 143.244C113.949 143.841 113.17 144.14 112.153 144.14C111.201 144.14 110.473 143.86 109.969 143.3C109.465 142.74 109.213 141.933 109.213 140.878C109.213 139.739 109.483 138.871 110.025 138.274C110.566 137.667 111.345 137.364 112.363 137.364ZM112.237 138.624C111.789 138.624 111.462 138.773 111.257 139.072C111.061 139.371 110.963 139.851 110.963 140.514C110.963 141.373 111.065 141.984 111.271 142.348C111.476 142.712 111.812 142.894 112.279 142.894C112.727 142.894 113.049 142.749 113.245 142.46C113.45 142.161 113.553 141.676 113.553 141.004C113.553 140.155 113.445 139.548 113.231 139.184C113.025 138.811 112.694 138.624 112.237 138.624Z" fill="white"/>
<defs>
<filter id="filter0_b_206:36828" x="3" y="67" width="161" height="97" filterUnits="userSpaceOnUse" color-interpolation-filters="sRGB">
<feFlood flood-opacity="0" result="BackgroundImageFix"/>
<feGaussianBlur in="BackgroundImage" stdDeviation="5"/>
<feComposite in2="SourceAlpha" operator="in" result="effect1_backgroundBlur_206:36828"/>
<feBlend mode="normal" in="SourceGraphic" in2="effect1_backgroundBlur_206:36828" result="shape"/>
</filter>
</defs>
</svg>
