<svg width="167" height="167" viewBox="0 0 167 167" fill="none" xmlns="http://www.w3.org/2000/svg">
<mask id="mask0_206:36820" style="mask-type:alpha" maskUnits="userSpaceOnUse" x="0" y="0" width="167" height="167">
<rect x="1" y="1" width="165" height="165" rx="8" fill="#5988D6" stroke="#EDE6FC" stroke-opacity="0.3"/>
</mask>
<g mask="url(#mask0_206:36820)">
<rect x="1" y="1" width="165" height="165" rx="8" fill="#FAE28B" stroke="#EDE6FC" stroke-opacity="0.3"/>
<path d="M62.4685 45.2138C62.4088 45.2314 62.3544 45.2634 62.31 45.3069C62.2655 45.3504 62.2324 45.4042 62.2136 45.4634L58.9483 55.4513L58.1226 57.9709C58.0988 58.0451 58.098 58.1246 58.1201 58.1993C58.1423 58.2739 58.1864 58.3401 58.2467 58.3893C58.3071 58.4385 58.3809 58.4684 58.4584 58.475C58.536 58.4816 58.6138 58.4647 58.6816 58.4264L60.9932 57.1026L70.1607 51.8607C70.2161 51.8296 70.263 51.7854 70.2972 51.7319C70.3313 51.6784 70.3518 51.6173 70.3568 51.554C70.3617 51.4907 70.351 51.4272 70.3256 51.3691C70.3001 51.3109 70.2607 51.2599 70.2109 51.2206L62.8216 45.2778C62.7721 45.2397 62.7143 45.214 62.6528 45.2029C62.5914 45.1917 62.5282 45.1955 62.4685 45.2138Z" fill="#616E7D"/>
<path d="M71.3032 50.7566C76.5302 46.1205 82.8165 39.5377 89.2969 31.7932L77.4775 22.2854C71.3032 30.2774 66.2234 37.8309 62.8141 43.9252L71.3032 50.7566Z" fill="#DD7452"/>
<path d="M100.545 -6.51225L78.5133 20.8848C78.4285 20.9898 78.3653 21.1104 78.3273 21.2399C78.2892 21.3694 78.2771 21.5051 78.2916 21.6392C78.306 21.7734 78.3468 21.9034 78.4116 22.0218C78.4763 22.1401 78.5638 22.2446 78.669 22.3291L88.9971 30.6369C89.2095 30.8078 89.4811 30.8874 89.7521 30.8582C90.0231 30.829 90.2715 30.6934 90.4426 30.4811L121.396 -8.00888C121.519 -8.16192 121.596 -8.34715 121.618 -8.54259C121.639 -8.73803 121.604 -8.93547 121.516 -9.11147C121.428 -9.28746 121.292 -9.43462 121.123 -9.53548C120.955 -9.63634 120.761 -9.68665 120.564 -9.68046L103.112 -9.13216C102.964 -9.1282 102.818 -9.09187 102.685 -9.02573C102.552 -8.95958 102.436 -8.8652 102.343 -8.7492L101.883 -8.17849L101.941 -8.13369L100.599 -6.46745L100.545 -6.51225Z" fill="#616E7D"/>
<path d="M98.3748 -11L79.8861 11.9956L81.8148 13.5445L98.9636 -7.78272L100.545 -6.51224L100.599 -6.46744L101.941 -8.13368L101.883 -8.17848L100.303 -9.45003H100.305L98.3748 -11Z" fill="#DD7452"/>
<path d="M57.5241 60.0127C57.1306 60.0127 56.7532 60.169 56.4749 60.4473C56.1966 60.7256 56.0403 61.103 56.0403 61.4965C56.0403 61.8901 56.1966 62.2675 56.4749 62.5458C56.7532 62.824 57.1306 62.9804 57.5241 62.9804H121.565C121.759 62.9804 121.952 62.942 122.132 62.8674C122.312 62.7928 122.476 62.6835 122.614 62.5458C122.752 62.408 122.861 62.2444 122.935 62.0644C123.01 61.8843 123.048 61.6914 123.048 61.4965C123.048 61.3017 123.01 61.1087 122.935 60.9287C122.861 60.7487 122.752 60.5851 122.614 60.4473C122.476 60.3095 122.312 60.2002 122.132 60.1256C121.952 60.0511 121.759 60.0127 121.565 60.0127H57.5241Z" fill="#DD7452"/>
</g>
<g filter="url(#filter0_b_206:36820)">
<rect x="13" y="77" width="141" height="77" rx="10" fill="black" fill-opacity="0.8"/>
</g>
<path d="M37.6526 110.928C38.9592 110.928 39.9626 111.292 40.6626 112.02C41.3626 112.748 41.7126 113.793 41.7126 115.156C41.7126 116.752 41.3206 117.975 40.5366 118.824C39.7526 119.673 38.6326 120.098 37.1766 120.098C36.7379 120.098 36.2106 120.089 35.5946 120.07C34.9879 120.051 34.4652 120.028 34.0266 120L34.1246 117.312L34.0266 110.984L37.6526 110.928ZM37.5126 118.628C38.9966 118.628 39.7386 117.615 39.7386 115.59C39.7386 114.489 39.5566 113.691 39.1926 113.196C38.8379 112.692 38.2779 112.44 37.5126 112.44C37.0179 112.44 36.4906 112.463 35.9306 112.51L35.8466 117.144L35.8886 118.53C36.5419 118.595 37.0832 118.628 37.5126 118.628ZM43.0884 117.312L43.0184 113.616L44.8524 113.462L44.7684 117.13L44.8524 120H42.9904L43.0884 117.312ZM43.9704 110.298C44.2597 110.298 44.4837 110.382 44.6424 110.55C44.8104 110.718 44.8944 110.951 44.8944 111.25C44.8944 111.567 44.8057 111.819 44.6284 112.006C44.4511 112.193 44.2084 112.286 43.9004 112.286C43.5924 112.286 43.3544 112.202 43.1864 112.034C43.0277 111.866 42.9484 111.628 42.9484 111.32C42.9484 111.012 43.0371 110.765 43.2144 110.578C43.4011 110.391 43.6531 110.298 43.9704 110.298ZM49.1748 113.364C49.8935 113.364 50.4535 113.527 50.8548 113.854C51.2655 114.171 51.4708 114.619 51.4708 115.198C51.4708 115.366 51.4428 115.898 51.3868 116.794C51.3775 117.055 51.3635 117.326 51.3448 117.606C51.3261 117.877 51.3168 118.11 51.3168 118.306C51.3168 118.465 51.3401 118.577 51.3868 118.642C51.4335 118.698 51.5175 118.726 51.6388 118.726C51.7321 118.726 51.8535 118.707 52.0028 118.67L52.1428 118.782L51.9748 119.762C51.6761 119.958 51.3355 120.075 50.9528 120.112C50.6728 120.084 50.4395 119.986 50.2528 119.818C50.0661 119.641 49.9401 119.398 49.8748 119.09H49.7768C49.3101 119.585 48.8295 119.93 48.3348 120.126C47.6628 120.117 47.1355 119.939 46.7528 119.594C46.3701 119.249 46.1788 118.777 46.1788 118.18C46.1788 117.713 46.2955 117.349 46.5288 117.088C46.7715 116.817 47.1355 116.635 47.6208 116.542L49.7628 116.136V115.562C49.7628 114.955 49.4641 114.652 48.8668 114.652C48.5775 114.652 48.2695 114.717 47.9428 114.848C47.6255 114.979 47.2661 115.184 46.8648 115.464L46.7248 115.38L46.5148 114.148C46.9161 113.896 47.3455 113.705 47.8028 113.574C48.2601 113.434 48.7175 113.364 49.1748 113.364ZM48.2648 117.396C48.1155 117.433 48.0035 117.499 47.9288 117.592C47.8635 117.676 47.8308 117.807 47.8308 117.984C47.8308 118.227 47.8961 118.418 48.0268 118.558C48.1575 118.689 48.3395 118.754 48.5728 118.754C48.9368 118.754 49.3195 118.539 49.7208 118.11L49.7488 117.074L48.2648 117.396ZM50.3928 109.878L51.0648 110.886L51.0368 111.068C50.8315 111.199 50.6775 111.292 50.5748 111.348C49.4081 112.067 48.6521 112.524 48.3068 112.72L48.1248 112.706L47.6768 112.006C48.7595 111.138 49.6041 110.424 50.2108 109.864L50.3928 109.878ZM56.869 113.476C56.953 113.476 57.0697 113.485 57.219 113.504V115.226L57.023 115.296C56.8643 115.231 56.6917 115.198 56.505 115.198C55.9637 115.198 55.4737 115.548 55.035 116.248V117.13L55.133 120H53.271L53.383 117.312L53.299 113.616L55.063 113.462L55.049 114.736H55.161C55.6183 113.896 56.1877 113.476 56.869 113.476ZM58.2642 117.312L58.1942 113.616L60.0282 113.462L59.9442 117.13L60.0282 120H58.1662L58.2642 117.312ZM59.1462 110.298C59.4355 110.298 59.6595 110.382 59.8182 110.55C59.9862 110.718 60.0702 110.951 60.0702 111.25C60.0702 111.567 59.9815 111.819 59.8042 112.006C59.6268 112.193 59.3842 112.286 59.0762 112.286C58.7682 112.286 58.5302 112.202 58.3622 112.034C58.2035 111.866 58.1242 111.628 58.1242 111.32C58.1242 111.012 58.2128 110.765 58.3902 110.578C58.5768 110.391 58.8288 110.298 59.1462 110.298ZM64.4906 113.364C65.4426 113.364 66.1706 113.644 66.6746 114.204C67.1786 114.764 67.4306 115.571 67.4306 116.626C67.4306 117.765 67.1599 118.637 66.6186 119.244C66.0772 119.841 65.2979 120.14 64.2806 120.14C63.3286 120.14 62.6006 119.86 62.0966 119.3C61.5926 118.74 61.3406 117.933 61.3406 116.878C61.3406 115.739 61.6112 114.871 62.1526 114.274C62.6939 113.667 63.4732 113.364 64.4906 113.364ZM64.3646 114.624C63.9166 114.624 63.5899 114.773 63.3846 115.072C63.1886 115.371 63.0906 115.851 63.0906 116.514C63.0906 117.373 63.1932 117.984 63.3986 118.348C63.6039 118.712 63.9399 118.894 64.4066 118.894C64.8546 118.894 65.1766 118.749 65.3726 118.46C65.5779 118.161 65.6806 117.676 65.6806 117.004C65.6806 116.155 65.5732 115.548 65.3586 115.184C65.1532 114.811 64.8219 114.624 64.3646 114.624ZM76.2577 117.13L76.2997 118.306C76.2997 118.465 76.3183 118.577 76.3557 118.642C76.4023 118.698 76.4817 118.726 76.5937 118.726C76.6963 118.726 76.8223 118.707 76.9717 118.67L77.0977 118.782L76.9437 119.762C76.6263 119.958 76.281 120.075 75.9077 120.112C75.6183 120.084 75.3757 119.986 75.1797 119.818C74.9837 119.65 74.8483 119.421 74.7737 119.132H74.6617C74.2043 119.552 73.7377 119.874 73.2617 120.098C72.347 120.098 71.6377 119.809 71.1337 119.23C70.6297 118.642 70.3777 117.83 70.3777 116.794C70.3777 115.693 70.667 114.848 71.2457 114.26C71.8243 113.672 72.627 113.378 73.6537 113.378C73.9243 113.378 74.223 113.406 74.5497 113.462L74.5217 110.312L76.3697 110.172L76.2577 117.13ZM73.5277 114.638C72.5943 114.638 72.1277 115.231 72.1277 116.416C72.1277 117.153 72.2397 117.709 72.4637 118.082C72.6877 118.455 73.0143 118.642 73.4437 118.642C73.8543 118.642 74.2323 118.451 74.5777 118.068L74.6057 117.298L74.5637 114.89C74.1997 114.722 73.8543 114.638 73.5277 114.638ZM83.2348 116.976L79.4548 117.004C79.5388 118.171 80.1315 118.754 81.2328 118.754C81.8115 118.754 82.4555 118.591 83.1648 118.264L83.3188 118.362L83.0388 119.748C82.3295 120.009 81.6622 120.14 81.0368 120.14C80.0102 120.14 79.2028 119.841 78.6148 119.244C78.0362 118.647 77.7468 117.821 77.7468 116.766C77.7468 115.721 78.0315 114.895 78.6008 114.288C79.1702 113.672 79.9402 113.364 80.9108 113.364C81.7415 113.364 82.3808 113.593 82.8288 114.05C83.2862 114.498 83.5148 115.128 83.5148 115.94C83.5148 116.155 83.4915 116.425 83.4448 116.752L83.2348 116.976ZM81.8908 115.73C81.8908 115.357 81.8068 115.077 81.6388 114.89C81.4708 114.694 81.2235 114.596 80.8968 114.596C80.5328 114.596 80.2295 114.717 79.9868 114.96C79.7442 115.193 79.5808 115.534 79.4968 115.982L81.8628 115.926L81.8908 115.73ZM93.1755 114.372C92.9235 114.437 92.5641 114.507 92.0975 114.582L92.0695 114.638C92.2095 114.918 92.2795 115.231 92.2795 115.576C92.2795 116.276 92.0228 116.836 91.5095 117.256C91.0055 117.667 90.3195 117.872 89.4515 117.872C89.1901 117.872 88.9195 117.849 88.6395 117.802C88.5555 117.886 88.4995 117.951 88.4715 117.998C88.4435 118.045 88.4295 118.101 88.4295 118.166C88.4295 118.334 88.5415 118.451 88.7655 118.516C88.9895 118.581 89.3441 118.647 89.8295 118.712C90.3801 118.777 90.8375 118.857 91.2015 118.95C91.5748 119.043 91.8921 119.207 92.1535 119.44C92.4241 119.673 92.5595 120.005 92.5595 120.434C92.5595 120.873 92.4195 121.265 92.1395 121.61C91.8688 121.965 91.4908 122.24 91.0055 122.436C90.5201 122.632 89.9695 122.73 89.3535 122.73C88.5041 122.73 87.8508 122.557 87.3935 122.212C86.9361 121.867 86.7075 121.409 86.7075 120.84C86.9968 120.439 87.3841 120.089 87.8695 119.79V119.72C87.5521 119.608 87.3048 119.454 87.1275 119.258C86.9501 119.053 86.8615 118.782 86.8615 118.446C87.1135 118.138 87.4308 117.853 87.8135 117.592V117.522C87.4775 117.335 87.2208 117.093 87.0435 116.794C86.8755 116.486 86.7915 116.127 86.7915 115.716C86.7915 114.988 87.0435 114.419 87.5475 114.008C88.0515 113.597 88.7375 113.392 89.6055 113.392C90.1095 113.392 90.5668 113.476 90.9775 113.644C91.6495 113.523 92.3355 113.336 93.0355 113.084L93.1755 113.21V114.372ZM89.5075 116.752C89.8901 116.752 90.1795 116.654 90.3755 116.458C90.5715 116.262 90.6695 115.977 90.6695 115.604C90.6695 114.895 90.3055 114.54 89.5775 114.54C88.7935 114.54 88.4015 114.899 88.4015 115.618C88.4015 115.991 88.4948 116.276 88.6815 116.472C88.8681 116.659 89.1435 116.752 89.5075 116.752ZM90.9915 120.77C90.9915 120.518 90.8561 120.345 90.5855 120.252C90.3241 120.159 89.9181 120.079 89.3675 120.014L88.8915 119.944C88.6675 120.093 88.4995 120.238 88.3875 120.378C88.2755 120.518 88.2195 120.667 88.2195 120.826C88.2195 121.069 88.3315 121.265 88.5555 121.414C88.7795 121.563 89.1061 121.638 89.5355 121.638C89.9741 121.638 90.3241 121.559 90.5855 121.4C90.8561 121.251 90.9915 121.041 90.9915 120.77ZM95.7375 117.13L95.8355 120H93.9735L94.0715 117.298L93.9875 110.312L95.8495 110.172L95.7375 117.13ZM97.7212 117.312L97.6512 113.616L99.4852 113.462L99.4012 117.13L99.4852 120H97.6232L97.7212 117.312ZM98.6032 110.298C98.8925 110.298 99.1165 110.382 99.2752 110.55C99.4432 110.718 99.5272 110.951 99.5272 111.25C99.5272 111.567 99.4385 111.819 99.2612 112.006C99.0839 112.193 98.8412 112.286 98.5332 112.286C98.2252 112.286 97.9872 112.202 97.8192 112.034C97.6605 111.866 97.5812 111.628 97.5812 111.32C97.5812 111.012 97.6699 110.765 97.8472 110.578C98.0339 110.391 98.2859 110.298 98.6032 110.298ZM103.92 113.364C104.228 113.364 104.531 113.397 104.83 113.462C105.138 113.518 105.408 113.602 105.642 113.714L105.334 115.198L105.18 115.268C104.704 115.007 104.279 114.876 103.906 114.876C103.476 114.876 103.145 115.03 102.912 115.338C102.678 115.646 102.562 116.085 102.562 116.654C102.562 117.307 102.688 117.807 102.94 118.152C103.192 118.497 103.551 118.67 104.018 118.67C104.438 118.67 104.904 118.553 105.418 118.32L105.558 118.432L105.376 119.874C104.816 120.051 104.242 120.14 103.654 120.14C102.758 120.14 102.058 119.851 101.554 119.272C101.05 118.684 100.798 117.867 100.798 116.822C100.798 115.739 101.073 114.895 101.624 114.288C102.174 113.672 102.94 113.364 103.92 113.364ZM111.672 116.976L107.892 117.004C107.976 118.171 108.569 118.754 109.67 118.754C110.249 118.754 110.893 118.591 111.602 118.264L111.756 118.362L111.476 119.748C110.767 120.009 110.1 120.14 109.474 120.14C108.448 120.14 107.64 119.841 107.052 119.244C106.474 118.647 106.184 117.821 106.184 116.766C106.184 115.721 106.469 114.895 107.038 114.288C107.608 113.672 108.378 113.364 109.348 113.364C110.179 113.364 110.818 113.593 111.266 114.05C111.724 114.498 111.952 115.128 111.952 115.94C111.952 116.155 111.929 116.425 111.882 116.752L111.672 116.976ZM110.328 115.73C110.328 115.357 110.244 115.077 110.076 114.89C109.908 114.694 109.661 114.596 109.334 114.596C108.97 114.596 108.667 114.717 108.424 114.96C108.182 115.193 108.018 115.534 107.934 115.982L110.3 115.926L110.328 115.73ZM121.034 120L121.146 115.94C121.146 115.249 120.852 114.904 120.264 114.904C119.844 114.904 119.405 115.091 118.948 115.464L118.906 117.144L118.99 120H117.128L117.24 115.94C117.249 115.604 117.175 115.347 117.016 115.17C116.867 114.993 116.647 114.904 116.358 114.904C115.947 114.904 115.495 115.1 115 115.492V117.13L115.084 120H113.236L113.334 117.312L113.264 113.616L115.014 113.462V114.414H115.112C115.625 113.947 116.19 113.611 116.806 113.406C117.851 113.406 118.519 113.756 118.808 114.456H118.892C119.424 113.961 120.031 113.611 120.712 113.406C121.421 113.406 121.958 113.569 122.322 113.896C122.695 114.213 122.873 114.675 122.854 115.282L122.812 117.144L122.896 120H121.034ZM124.655 117.312L124.585 113.616L126.419 113.462L126.335 117.13L126.419 120H124.557L124.655 117.312ZM125.537 110.298C125.826 110.298 126.05 110.382 126.209 110.55C126.377 110.718 126.461 110.951 126.461 111.25C126.461 111.567 126.372 111.819 126.195 112.006C126.017 112.193 125.775 112.286 125.467 112.286C125.159 112.286 124.921 112.202 124.753 112.034C124.594 111.866 124.515 111.628 124.515 111.32C124.515 111.012 124.603 110.765 124.781 110.578C124.967 110.391 125.219 110.298 125.537 110.298ZM130.741 113.364C131.46 113.364 132.02 113.527 132.421 113.854C132.832 114.171 133.037 114.619 133.037 115.198C133.037 115.366 133.009 115.898 132.953 116.794C132.944 117.055 132.93 117.326 132.911 117.606C132.893 117.877 132.883 118.11 132.883 118.306C132.883 118.465 132.907 118.577 132.953 118.642C133 118.698 133.084 118.726 133.205 118.726C133.299 118.726 133.42 118.707 133.569 118.67L133.709 118.782L133.541 119.762C133.243 119.958 132.902 120.075 132.519 120.112C132.239 120.084 132.006 119.986 131.819 119.818C131.633 119.641 131.507 119.398 131.441 119.09H131.343C130.877 119.585 130.396 119.93 129.901 120.126C129.229 120.117 128.702 119.939 128.319 119.594C127.937 119.249 127.745 118.777 127.745 118.18C127.745 117.713 127.862 117.349 128.095 117.088C128.338 116.817 128.702 116.635 129.187 116.542L131.329 116.136V115.562C131.329 114.955 131.031 114.652 130.433 114.652C130.144 114.652 129.836 114.717 129.509 114.848C129.192 114.979 128.833 115.184 128.431 115.464L128.291 115.38L128.081 114.148C128.483 113.896 128.912 113.705 129.369 113.574C129.827 113.434 130.284 113.364 130.741 113.364ZM129.831 117.396C129.682 117.433 129.57 117.499 129.495 117.592C129.43 117.676 129.397 117.807 129.397 117.984C129.397 118.227 129.463 118.418 129.593 118.558C129.724 118.689 129.906 118.754 130.139 118.754C130.503 118.754 130.886 118.539 131.287 118.11L131.315 117.074L129.831 117.396Z" fill="white"/>
<defs>
<filter id="filter0_b_206:36820" x="3" y="67" width="161" height="97" filterUnits="userSpaceOnUse" color-interpolation-filters="sRGB">
<feFlood flood-opacity="0" result="BackgroundImageFix"/>
<feGaussianBlur in="BackgroundImage" stdDeviation="5"/>
<feComposite in2="SourceAlpha" operator="in" result="effect1_backgroundBlur_206:36820"/>
<feBlend mode="normal" in="SourceGraphic" in2="effect1_backgroundBlur_206:36820" result="shape"/>
</filter>
</defs>
</svg>
