<svg width="167" height="167" viewBox="0 0 167 167" fill="none" xmlns="http://www.w3.org/2000/svg">
<mask id="mask0_206:36780" style="mask-type:alpha" maskUnits="userSpaceOnUse" x="0" y="0" width="167" height="167">
<rect x="1" y="1" width="165" height="165" rx="8" fill="#5988D6" stroke="#EDE6FC" stroke-opacity="0.3"/>
</mask>
<g mask="url(#mask0_206:36780)">
<rect x="1" y="1" width="165" height="165" rx="8" fill="#CEE2F2" stroke="#EDE6FC" stroke-opacity="0.3"/>
<path d="M119.508 44.6113C114.394 43.3739 110.029 40.9923 105.909 37.7311L105.846 37.6813C106.323 34.3997 105.034 31.0069 103.402 28.0628C101.597 24.8068 99.3275 21.7413 98.2984 18.1618C97.6937 16.0589 97.5148 13.777 96.3566 11.9195C95.5998 10.7051 93.966 9.7054 92.7925 10.5248C92.1533 10.9684 91.9168 11.7904 91.8068 12.5574C91.1881 16.8719 92.1379 20.0461 91.8068 24.0321C89.447 23.3098 87.6125 22.1989 81.2948 17.4587C76.7659 12.9043 72.2362 8.34904 67.7057 3.79292C67.0269 3.11027 66.1013 2.36882 65.2065 2.72548C64.534 2.99266 64.2234 3.81592 64.3116 4.53437C64.3998 5.25281 64.8114 5.88561 65.2141 6.48645C67.4129 9.76803 69.8572 12.8783 72.3001 15.9822C73.3548 17.3245 74.4734 18.8189 75.7211 20.096C66.5424 13.6262 61.8073 6.9684 59.4717 4.5804C58.5321 3.61907 57.1706 3.5462 56.548 4.96392C56.1441 5.89201 56.6465 7.35446 57.2333 8.17901C58.8679 10.4801 60.6009 12.7091 62.4324 14.8662C65.0543 17.9522 67.8386 21.1392 70.7661 23.9605L70.6689 24.05C68.9802 22.7269 67.28 21.0254 65.8699 19.6575C62.9616 16.8349 60.5008 13.8256 57.3598 10.8367C56.4586 9.97896 55.3745 9.16208 54.4298 9.97129C53.4621 10.7997 53.9926 12.3337 54.5014 13.5009C56.6171 18.3587 64.892 27.563 66.4554 29.5035C66.3979 29.6135 66.3391 29.7247 66.2829 29.8359C62.9399 26.1031 56.4394 19.2906 55.2377 18.429C54.881 18.1733 54.4707 17.9253 54.0386 17.9765C53.0159 18.0966 52.9072 19.5655 53.2204 20.5511C53.8596 22.5837 55.2978 24.2494 56.2476 26.1593C63.542 40.8286 77.3574 47.1783 87.9513 50.9316C88.4869 51.3011 95.2214 54.0981 97.8868 55.6105C100.857 57.2971 103.919 58.8173 107.058 60.164C108.138 60.6268 109.312 61.0781 110.458 60.8262C111.205 60.6613 111.854 60.2139 112.446 59.7294C116.864 56.1192 118.824 50.272 119.508 44.6113Z" fill="#F2B98F"/>
<path d="M101.622 31.8545C102.006 33.1955 101.351 34.8523 100.049 35.4518C101.479 35.641 102.98 36.0808 103.831 37.2185C104.683 38.3563 104.471 40.348 103.132 40.9463C105.177 41.1022 106.775 43.1936 106.407 45.2211C106.039 47.2486 103.781 48.7865 101.79 48.3634C102.94 49.2084 103.17 51.048 102.288 52.2228C101.406 53.3976 99.5603 53.7249 98.4021 52.8978C99.591 53.1394 99.6894 54.869 99.0707 55.9441C97.86 58.0483 95.1077 58.956 92.7798 58.5009C90.4519 58.0458 88.5151 56.4747 87.0348 54.6555C86.8954 56.1896 84.9779 56.8761 83.4451 56.8901C79.1715 56.9298 75.0577 54.4881 73.121 50.7629C72.9356 51.4123 72.0101 51.4392 71.3824 51.2244C70.4773 50.9099 69.6509 50.4034 68.9598 49.7397C68.2688 49.076 67.7293 48.2707 67.3785 47.379C65.8164 47.4647 64.2772 46.8984 63.0806 45.9421C61.3395 44.5474 60.313 42.107 61.1043 39.9453C61.8956 37.7836 64.8435 36.486 66.6435 37.8066C65.8662 35.7356 65.6693 33.3873 66.3635 31.2319C67.0577 29.0766 68.7029 27.1539 70.8378 26.3741C72.9727 25.5943 75.5422 26.089 76.9586 27.7726C76.7784 26.1389 76.6825 24.4387 77.2309 22.8611C77.7794 21.2836 79.1204 19.8467 80.772 19.6524C82.246 19.4786 83.6011 20.2916 84.8245 21.0701C85.277 19.4594 87.0182 18.3383 88.6749 18.4124C90.3317 18.4866 91.8006 19.6256 92.4717 21.1149C93.1428 22.6042 93.0776 24.385 92.5088 25.9637C92.799 25.1584 94.8738 25.7324 95.2841 26.0174C96.4104 26.8024 95.7673 28.0756 96.473 28.9168C97.1045 29.6685 98.3637 29.2121 99.2931 29.5317C100.368 29.9011 101.303 30.7474 101.622 31.8545Z" fill="#FFEEE3"/>
<path d="M77.5914 5.55455C75.8707 4.51907 75.8107 1.77695 78.2715 0.800278C80.9024 0.512645 82.1322 2.96456 81.0955 4.68397C80.7456 5.26332 80.1802 5.68029 79.5234 5.84348C78.8665 6.00667 78.1718 5.90277 77.5914 5.55455Z" fill="#FFEEE3"/>
<path d="M78.9745 1.29373C78.6863 1.31168 78.4041 1.38504 78.1436 1.50978C77.8498 1.62262 77.5968 1.82129 77.4175 2.07993C77.2551 2.34711 77.2398 2.71911 77.452 2.95305C77.5098 3.02122 77.5901 3.06654 77.6783 3.08089C77.7445 3.08341 77.8103 3.07011 77.8703 3.0421C77.9304 3.01408 77.9828 2.97216 78.0234 2.91981C78.1116 2.82266 78.1756 2.70505 78.2612 2.60534C78.3506 2.50351 78.4616 2.42291 78.5861 2.36939C78.7106 2.31587 78.8455 2.29079 78.9809 2.29597C79.3644 2.31387 79.7646 2.567 80.0867 2.27681C80.4984 1.67469 79.3453 1.28095 78.9745 1.29373Z" fill="white"/>
<path d="M85.8471 14.9659C84.3616 14.0711 84.313 11.7022 86.4351 10.8585C88.7093 10.6028 89.7704 12.7275 88.8755 14.2142C88.5734 14.7153 88.0847 15.0758 87.5168 15.2168C86.949 15.3577 86.3484 15.2675 85.8471 14.9659Z" fill="#FFEEE3"/>
<path d="M87.0424 11.2855C86.7937 11.3009 86.5503 11.3638 86.3253 11.4708C86.0713 11.5687 85.8526 11.7406 85.6976 11.9643C85.6227 12.0772 85.5853 12.2108 85.5906 12.3462C85.5959 12.4815 85.6436 12.6118 85.727 12.7185C85.7776 12.7772 85.8473 12.8162 85.9239 12.8285C85.9808 12.8304 86.0375 12.8189 86.0892 12.7949C86.141 12.7709 86.1863 12.7351 86.2217 12.6904C86.2984 12.606 86.3496 12.5038 86.4275 12.4181C86.5046 12.33 86.6004 12.2603 86.7079 12.214C86.8154 12.1678 86.9319 12.1462 87.0488 12.1509C87.3774 12.165 87.7264 12.3849 88.0038 12.133C88.3592 11.614 87.3684 11.2727 87.0424 11.2855Z" fill="white"/>
<path d="M103.449 16.1088C100.62 16.1088 98.5541 12.8451 100.814 9.87798C103.781 7.6191 107.046 9.68494 107.046 12.5127C107.046 12.9851 106.953 13.4528 106.772 13.8892C106.592 14.3255 106.327 14.722 105.993 15.0559C105.659 15.3899 105.262 15.6548 104.826 15.8354C104.389 16.016 103.921 16.1089 103.449 16.1088Z" fill="#FFEEE3"/>
<path d="M102.022 9.96364C101.687 10.1942 101.4 10.4872 101.176 10.8265C100.92 11.1883 100.716 11.6025 100.713 12.0435C100.711 12.4846 100.969 12.9486 101.391 13.0662C101.51 13.1065 101.641 13.1029 101.758 13.056C101.839 13.0105 101.908 12.9465 101.96 12.8692C102.012 12.792 102.045 12.7035 102.057 12.6111C102.093 12.4296 102.084 12.2404 102.114 12.0576C102.148 11.8703 102.222 11.6927 102.333 11.5379C102.443 11.3831 102.587 11.255 102.754 11.1628C103.225 10.9071 103.896 10.9186 104.073 10.3356C104.137 9.3155 102.46 9.67729 102.022 9.96364Z" fill="white"/>
<path d="M91.5754 3.60375C89.7972 2.53375 89.7346 -0.301691 92.2786 -1.31161C95.0002 -1.60947 96.2709 0.92683 95.1996 2.70505C94.8377 3.30427 94.2525 3.73517 93.5728 3.90299C92.8932 4.0708 92.1747 3.96179 91.5754 3.59991V3.60375Z" fill="#FFEEE3"/>
<path d="M93.006 -0.801527C92.7079 -0.782845 92.4162 -0.706888 92.1469 -0.577812C91.8432 -0.461243 91.5817 -0.255874 91.3965 0.0115154C91.2278 0.287644 91.2137 0.676276 91.4323 0.914054C91.493 0.982658 91.5757 1.02788 91.6662 1.04189C91.7346 1.04409 91.8024 1.0302 91.8644 1.00133C91.9264 0.972464 91.9807 0.92942 92.0229 0.875696C92.115 0.774705 92.1802 0.651991 92.2696 0.549721C92.3621 0.444492 92.4769 0.361192 92.6056 0.305906C92.7343 0.25062 92.8737 0.22474 93.0137 0.230128C93.4074 0.248025 93.8241 0.510087 94.1552 0.209669C94.5809 -0.407784 93.3895 -0.815589 93.006 -0.801527Z" fill="white"/>
<path d="M103.573 47.7255C102.843 47.5631 102.102 47.9262 101.484 48.348C98.0479 50.6939 95.4362 53.2276 92.4499 55.5772C92.34 54.8447 92.3707 49.0064 92.0409 46.6005C91.4809 42.5097 92.2697 38.3524 93.6209 36.4835C94.3483 35.4799 94.5375 34.7014 95.7494 33.6225C97.1173 32.4042 97.6197 29.873 95.4937 30.3319C93.9265 30.672 90.9926 32.5474 89.2463 34.0929C87.5001 35.6385 86.1322 43.6257 85.7602 46.8485C85.6158 45.7683 85.4457 44.6753 85.291 43.5541C84.7311 39.4634 85.5199 35.3061 86.8711 33.4371C87.5985 32.4323 87.7877 31.6551 88.9996 30.5761C90.3675 29.3578 90.8699 26.8266 88.7439 27.2856C87.1767 27.6243 84.2428 29.501 82.4965 31.0465C80.5368 32.7787 79.0641 42.566 78.9171 44.7315C78.8992 45 78.8843 45.2693 78.8723 45.5394C78.7918 45.5305 78.7113 45.519 78.632 45.5113C78.5157 44.6983 78.3917 43.8763 78.2753 43.0364C77.7154 38.9456 78.5042 34.7883 79.8567 32.9194C80.5828 31.9158 80.772 31.1373 81.9839 30.0584C83.3518 28.8401 83.8542 26.3089 81.7282 26.7691C80.1609 27.1079 77.2271 28.9845 75.4808 30.5288C73.5224 32.261 72.0484 42.0482 71.9014 44.2074C71.8656 44.752 71.8387 45.303 71.8311 45.8539L71.7569 45.8693C71.592 45.0703 71.3862 44.2751 71.229 43.4761C70.9 41.798 70.7883 40.0846 70.8966 38.378C70.9835 37.0191 71.4297 35.6755 72.4306 34.7462C73.5569 33.6953 74.3725 32.2163 73.5939 31.8059C72.8435 31.4134 71.0091 31.944 70.2357 32.3594C68.662 33.207 67.0564 34.2144 66.2292 35.7983C65.5901 37.0165 65.4942 38.4368 65.4482 39.8098C65.3689 42.1441 65.7678 53.6788 65.7729 53.8987C65.7729 53.9358 65.7729 54.0266 65.7729 54.0266C65.9557 60.9004 70.9094 77.2418 71.3005 78.6697C72.1272 81.6824 73.1133 84.649 74.2549 87.557C75.5168 90.7721 76.9726 93.9077 78.6141 96.9466C79.1766 97.9885 79.8235 99.0738 80.9292 99.5251C81.6477 99.8178 82.4812 99.8051 83.2917 99.7258C89.3384 99.1352 100.19 93.293 99.3225 90.556C96.0128 86.4653 92.6161 82.207 91.4848 76.9184L91.4234 76.6141C91.5444 76.1693 91.6607 75.7222 91.7724 75.2731L91.8721 75.2233C95.0578 73.5614 96.8578 70.0957 98.0083 66.6888C99.1588 63.282 99.8517 59.6693 101.728 56.6063C102.832 54.8038 104.339 53.1905 104.905 51.1566C105.273 49.8399 104.92 48.0259 103.573 47.7255Z" fill="#FBCFA5"/>
<path d="M103.507 48.3493C103.341 48.4489 103.211 48.5978 103.135 48.775C102.667 49.6473 102.398 50.6128 102.35 51.6015C102.319 51.9046 102.358 52.2108 102.465 52.4963C102.52 52.6378 102.612 52.7617 102.732 52.8548C102.851 52.948 102.994 53.007 103.145 53.0256C103.272 53.025 103.398 52.9957 103.513 52.9399C103.627 52.8842 103.728 52.8034 103.807 52.7034C103.963 52.5027 104.084 52.2766 104.164 52.0349C104.353 51.5406 104.512 51.0351 104.639 50.5213C104.724 50.2437 104.755 49.9526 104.73 49.6635C104.671 49.2442 104.091 48.0719 103.507 48.3493Z" fill="#F9E3D2"/>
<path d="M94.0556 31.9926C94.7163 31.9831 95.3652 31.8166 95.9488 31.5068C96.1043 31.4431 96.2309 31.3243 96.3042 31.1731C96.3911 30.9366 96.2019 30.6682 95.9642 30.5825C95.7188 30.5154 95.4588 30.5248 95.2189 30.6094C94.7753 30.727 94.0082 30.9111 93.6593 31.2255C93.2399 31.6001 93.5046 31.999 94.0556 31.9926Z" fill="#F9E3D2"/>
<path d="M89.2974 28.3287C89.4879 28.1753 89.681 27.9619 89.6452 27.719C89.6094 27.4761 89.378 27.3354 89.1504 27.3163C88.9208 27.3085 88.6924 27.3522 88.4818 27.4441C88.0446 27.6026 85.3741 28.5243 86.2089 29.106C86.9849 29.6467 88.6992 28.8094 89.2974 28.3287Z" fill="#F9E3D2"/>
<path d="M79.7314 28.6599C80.5291 28.6458 81.2654 28.2661 81.9621 27.866C82.228 27.7113 82.5285 27.4825 82.4901 27.1757C82.4737 27.0849 82.4331 27.0003 82.3726 26.9308C82.312 26.8613 82.2338 26.8094 82.1462 26.7806C81.9708 26.7253 81.7839 26.7169 81.6042 26.7564C80.8354 26.9149 80.1039 27.2186 79.4489 27.6512C78.9503 28.0194 79.0257 28.6726 79.7314 28.6599Z" fill="#F9E3D2"/>
<path d="M70.1513 32.4004C70.0068 32.4962 69.8547 32.6368 69.8777 32.8082C69.8915 32.8707 69.9229 32.928 69.9682 32.9733C70.0135 33.0186 70.0708 33.05 70.1334 33.0638C70.2605 33.0864 70.3909 33.0834 70.5169 33.0549C71.4117 32.9066 72.3245 32.6714 73.048 32.1229C73.1224 32.0762 73.1808 32.008 73.2155 31.9274C73.2807 31.7164 73.0302 31.5438 72.8128 31.5068C71.9832 31.3597 70.8326 31.9453 70.1513 32.4004Z" fill="#F9E3D2"/>
<path d="M68.2107 51.1733C68.1501 50.9039 68.0334 50.6504 67.8681 50.4292C67.6879 50.2221 67.3811 50.0969 67.1305 50.2094L66.9298 50.3167C66.679 50.8488 66.6128 51.4493 66.7415 52.0232C66.8702 52.5972 67.1866 53.1118 67.6406 53.4858C67.6784 53.5241 67.7244 53.5535 67.775 53.5719C67.8256 53.5902 67.8797 53.5971 67.9333 53.5919C67.9965 53.5717 68.0522 53.533 68.0931 53.4807C68.639 52.885 68.4408 51.9467 68.2107 51.1733Z" fill="#F2B98F"/>
<path d="M74.1884 49.4577C74.1275 49.1884 74.0108 48.9349 73.8458 48.7137C73.6655 48.5066 73.3587 48.3826 73.1082 48.4951L72.9075 48.6025C72.6571 49.1346 72.5911 49.7349 72.7198 50.3088C72.8485 50.8826 73.1646 51.3973 73.6182 51.7715C73.6562 51.8097 73.7021 51.8389 73.7528 51.857C73.8034 51.8751 73.8575 51.8817 73.911 51.8764C73.9745 51.8566 74.0306 51.8183 74.0721 51.7664C74.6166 51.1694 74.4198 50.2324 74.1884 49.4577Z" fill="#F2B98F"/>
<path d="M80.9139 49.4577C80.853 49.1884 80.7363 48.9349 80.5712 48.7137C80.391 48.5066 80.0842 48.3826 79.8336 48.4951L79.6329 48.6025C79.3826 49.1346 79.3166 49.7349 79.4453 50.3088C79.574 50.8826 79.8901 51.3973 80.3437 51.7715C80.3816 51.8097 80.4276 51.8389 80.4782 51.857C80.5289 51.8751 80.5829 51.8817 80.6364 51.8764C80.6999 51.8566 80.756 51.8183 80.7975 51.7664C81.3421 51.1694 81.144 50.2324 80.9139 49.4577Z" fill="#F2B98F"/>
<path d="M87.5844 49.923C87.5235 49.6537 87.4068 49.4003 87.2418 49.179C87.0615 48.9719 86.7547 48.8466 86.5041 48.9591L86.3035 49.0665C86.0527 49.5986 85.9864 50.199 86.1151 50.773C86.2439 51.3469 86.5602 51.8616 87.0142 52.2356C87.0521 52.2739 87.098 52.3033 87.1486 52.3216C87.1993 52.34 87.2534 52.3468 87.307 52.3417C87.3706 52.3216 87.4267 52.2829 87.468 52.2305C88.0075 51.6296 87.8145 50.69 87.5844 49.923Z" fill="#F2B98F"/>
<path d="M87.073 21.671C87.251 21.7067 87.4313 21.7302 87.6125 21.7413C88.0446 21.8103 88.3987 22.1031 88.7707 22.3306C89.1427 22.5582 89.6196 22.7256 90.0082 22.5275C90.1383 22.4551 90.2484 22.3513 90.3283 22.2257C90.4082 22.1 90.4555 21.9563 90.4658 21.8078C90.4829 21.5083 90.3953 21.2123 90.2178 20.9704C89.7142 20.2456 88.4077 19.8097 87.5422 19.9644C86.8007 20.0948 86.0018 21.3386 87.073 21.671Z" fill="white"/>
<path d="M79.6982 21.8282C80.1443 21.5797 80.6476 21.4524 81.1581 21.4588C81.6695 21.4843 82.1808 21.7221 82.4505 22.1516C82.5077 22.2297 82.5485 22.3186 82.5704 22.4128C82.5924 22.507 82.5951 22.6048 82.5784 22.7001C82.4851 23.0695 82.0389 23.1948 81.672 23.3009C81.1236 23.4581 80.5688 23.7458 80.3067 24.2533C79.9552 24.9385 79.9731 25.7503 79.1255 26.066C78.5656 26.2757 78.2306 26.0545 78.0542 25.5074C77.5736 24.0449 78.3943 22.493 79.6982 21.8282Z" fill="white"/>
<path d="M96.8104 40.5743C97.4685 40.4655 98.1431 40.5177 98.7765 40.7264C99.4121 40.9385 99.9514 41.3699 100.298 41.9434C100.511 42.3457 100.648 42.7838 100.703 43.2358C100.771 43.6743 100.798 44.1409 100.606 44.541C100.414 44.9412 99.9399 45.2365 99.5218 45.0882C98.99 44.9003 98.8826 44.1933 98.4991 43.7868C98.177 43.4468 97.6848 43.3343 97.2208 43.2831C96.7567 43.232 96.2722 43.223 95.8452 43.0275C95.4183 42.8319 95.0641 42.3883 95.1587 41.9229C95.3288 41.0613 95.9974 40.6944 96.8104 40.5743Z" fill="white"/>
<path d="M99.8964 38.0035C100.26 37.9613 100.628 38.0456 100.989 38.0035C101.351 37.9613 101.741 37.7235 101.764 37.3643C101.787 37.005 101.456 36.7328 101.134 36.5819C100.239 36.1652 98.6449 36.137 98.0402 37.0741C97.8153 37.4218 97.7641 37.8168 98.1067 38.0968C98.6181 38.5225 99.3531 38.0661 99.8964 38.0035Z" fill="white"/>
<path d="M69.1912 28.633C69.0634 28.9423 69.0404 29.3617 69.3191 29.5509C69.4528 29.6304 69.6099 29.6615 69.7639 29.6391C70.5744 29.5636 71.1279 28.7787 71.8847 28.4796C72.5393 28.2239 73.2769 28.3517 73.9736 28.2469C74.1494 28.235 74.3177 28.1709 74.4568 28.0628C74.724 27.8148 74.632 27.3342 74.352 27.0989C74.072 26.8637 73.677 26.8215 73.3127 26.8433C72.4178 26.8854 71.5831 27.26 70.7278 27.4735C70.0273 27.6371 69.4904 27.9171 69.1912 28.633Z" fill="white"/>
</g>
<g filter="url(#filter0_b_206:36780)">
<rect x="13" y="77" width="141" height="77" rx="10" fill="black" fill-opacity="0.8"/>
</g>
<path d="M30.0197 93.97C30.9624 93.97 31.6857 94.208 32.1897 94.684C32.7031 95.16 32.9597 95.8413 32.9597 96.728C32.9597 97.4093 32.8104 98.0067 32.5117 98.52C32.2131 99.024 31.7837 99.416 31.2237 99.696C30.6731 99.976 30.0244 100.116 29.2777 100.116H28.3817V100.144L28.4657 103H26.5617L26.6597 100.312L26.5617 93.984L30.0197 93.97ZM29.6977 98.73C30.5564 98.4873 30.9857 97.876 30.9857 96.896C30.9857 96.392 30.8551 96.0187 30.5937 95.776C30.3417 95.524 29.9497 95.3887 29.4177 95.37L28.4657 95.426L28.4097 98.674L29.6977 98.73ZM37.5643 96.476C37.6483 96.476 37.765 96.4853 37.9143 96.504V98.226L37.7183 98.296C37.5596 98.2307 37.387 98.198 37.2003 98.198C36.659 98.198 36.169 98.548 35.7303 99.248V100.13L35.8283 103H33.9663L34.0783 100.312L33.9943 96.616L35.7583 96.462L35.7443 97.736H35.8563C36.3136 96.896 36.883 96.476 37.5643 96.476ZM38.9595 100.312L38.8895 96.616L40.7235 96.462L40.6395 100.13L40.7235 103H38.8615L38.9595 100.312ZM39.8415 93.298C40.1308 93.298 40.3548 93.382 40.5135 93.55C40.6815 93.718 40.7655 93.9513 40.7655 94.25C40.7655 94.5673 40.6768 94.8193 40.4995 95.006C40.3222 95.1927 40.0795 95.286 39.7715 95.286C39.4635 95.286 39.2255 95.202 39.0575 95.034C38.8988 94.866 38.8195 94.628 38.8195 94.32C38.8195 94.012 38.9082 93.7647 39.0855 93.578C39.2722 93.3913 39.5242 93.298 39.8415 93.298ZM50.2819 103L50.3939 98.94C50.3939 98.2493 50.0999 97.904 49.5119 97.904C49.0919 97.904 48.6532 98.0907 48.1959 98.464L48.1539 100.144L48.2379 103H46.3759L46.4879 98.94C46.4972 98.604 46.4225 98.3473 46.2639 98.17C46.1145 97.9927 45.8952 97.904 45.6059 97.904C45.1952 97.904 44.7425 98.1 44.2479 98.492V100.13L44.3319 103H42.4839L42.5819 100.312L42.5119 96.616L44.2619 96.462V97.414H44.3599C44.8732 96.9473 45.4379 96.6113 46.0539 96.406C47.0992 96.406 47.7665 96.756 48.0559 97.456H48.1399C48.6719 96.9613 49.2785 96.6113 49.9599 96.406C50.6692 96.406 51.2059 96.5693 51.5699 96.896C51.9432 97.2133 52.1206 97.6753 52.1019 98.282L52.0599 100.144L52.1439 103H50.2819ZM58.8169 99.976L55.0369 100.004C55.1209 101.171 55.7135 101.754 56.8149 101.754C57.3935 101.754 58.0375 101.591 58.7469 101.264L58.9009 101.362L58.6209 102.748C57.9115 103.009 57.2442 103.14 56.6189 103.14C55.5922 103.14 54.7849 102.841 54.1969 102.244C53.6182 101.647 53.3289 100.821 53.3289 99.766C53.3289 98.7207 53.6135 97.8947 54.1829 97.288C54.7522 96.672 55.5222 96.364 56.4929 96.364C57.3235 96.364 57.9629 96.5927 58.4109 97.05C58.8682 97.498 59.0969 98.128 59.0969 98.94C59.0969 99.1547 59.0735 99.4253 59.0269 99.752L58.8169 99.976ZM57.4729 98.73C57.4729 98.3567 57.3889 98.0767 57.2209 97.89C57.0529 97.694 56.8055 97.596 56.4789 97.596C56.1149 97.596 55.8115 97.7173 55.5689 97.96C55.3262 98.1933 55.1629 98.534 55.0789 98.982L57.4449 98.926L57.4729 98.73ZM60.5064 100.312L60.4364 96.616L62.2704 96.462L62.1864 100.13L62.2704 103H60.4084L60.5064 100.312ZM61.3884 93.298C61.6777 93.298 61.9017 93.382 62.0604 93.55C62.2284 93.718 62.3124 93.9513 62.3124 94.25C62.3124 94.5673 62.2237 94.8193 62.0464 95.006C61.869 95.1927 61.6264 95.286 61.3184 95.286C61.0104 95.286 60.7724 95.202 60.6044 95.034C60.4457 94.866 60.3664 94.628 60.3664 94.32C60.3664 94.012 60.455 93.7647 60.6324 93.578C60.819 93.3913 61.071 93.298 61.3884 93.298ZM67.6288 96.476C67.7128 96.476 67.8294 96.4853 67.9788 96.504V98.226L67.7828 98.296C67.6241 98.2307 67.4514 98.198 67.2648 98.198C66.7234 98.198 66.2334 98.548 65.7948 99.248V100.13L65.8928 103H64.0308L64.1428 100.312L64.0588 96.616L65.8228 96.462L65.8088 97.736H65.9208C66.3781 96.896 66.9474 96.476 67.6288 96.476ZM71.5999 96.364C72.5519 96.364 73.2799 96.644 73.7839 97.204C74.2879 97.764 74.5399 98.5713 74.5399 99.626C74.5399 100.765 74.2693 101.637 73.7279 102.244C73.1866 102.841 72.4073 103.14 71.3899 103.14C70.4379 103.14 69.7099 102.86 69.2059 102.3C68.7019 101.74 68.4499 100.933 68.4499 99.878C68.4499 98.7393 68.7206 97.8713 69.2619 97.274C69.8033 96.6673 70.5826 96.364 71.5999 96.364ZM71.4739 97.624C71.0259 97.624 70.6993 97.7733 70.4939 98.072C70.2979 98.3707 70.1999 98.8513 70.1999 99.514C70.1999 100.373 70.3026 100.984 70.5079 101.348C70.7133 101.712 71.0493 101.894 71.5159 101.894C71.9639 101.894 72.2859 101.749 72.4819 101.46C72.6873 101.161 72.7899 100.676 72.7899 100.004C72.7899 99.1547 72.6826 98.548 72.4679 98.184C72.2626 97.8107 71.9313 97.624 71.4739 97.624ZM81.3791 96.406C82.1911 96.406 82.8164 96.6813 83.2551 97.232C83.6937 97.7827 83.9131 98.562 83.9131 99.57C83.9131 100.709 83.6284 101.591 83.0591 102.216C82.4991 102.832 81.7057 103.14 80.6791 103.14C80.3804 103.14 80.0677 103.112 79.7411 103.056L79.7831 105.59H77.9351L78.0331 100.312L77.9491 96.616L79.7271 96.462L79.7131 97.414H79.8111C80.0724 97.162 80.3244 96.9613 80.5671 96.812C80.8097 96.6533 81.0804 96.518 81.3791 96.406ZM80.6931 101.922C81.1784 101.922 81.5471 101.749 81.7991 101.404C82.0511 101.059 82.1771 100.55 82.1771 99.878C82.1771 99.2247 82.0697 98.7347 81.8551 98.408C81.6497 98.072 81.3417 97.904 80.9311 97.904C80.5297 97.904 80.1237 98.1047 79.7131 98.506L79.6991 100.13L79.7271 101.712C80.0631 101.852 80.3851 101.922 80.6931 101.922ZM87.7431 96.364C88.4618 96.364 89.0218 96.5273 89.4231 96.854C89.8338 97.1713 90.0391 97.6193 90.0391 98.198C90.0391 98.366 90.0111 98.898 89.9551 99.794C89.9458 100.055 89.9318 100.326 89.9131 100.606C89.8945 100.877 89.8851 101.11 89.8851 101.306C89.8851 101.465 89.9085 101.577 89.9551 101.642C90.0018 101.698 90.0858 101.726 90.2071 101.726C90.3005 101.726 90.4218 101.707 90.5711 101.67L90.7111 101.782L90.5431 102.762C90.2445 102.958 89.9038 103.075 89.5211 103.112C89.2411 103.084 89.0078 102.986 88.8211 102.818C88.6345 102.641 88.5085 102.398 88.4431 102.09H88.3451C87.8785 102.585 87.3978 102.93 86.9031 103.126C86.2311 103.117 85.7038 102.939 85.3211 102.594C84.9385 102.249 84.7471 101.777 84.7471 101.18C84.7471 100.713 84.8638 100.349 85.0971 100.088C85.3398 99.8173 85.7038 99.6353 86.1891 99.542L88.3311 99.136V98.562C88.3311 97.9553 88.0325 97.652 87.4351 97.652C87.1458 97.652 86.8378 97.7173 86.5111 97.848C86.1938 97.9787 85.8345 98.184 85.4331 98.464L85.2931 98.38L85.0831 97.148C85.4845 96.896 85.9138 96.7047 86.3711 96.574C86.8285 96.434 87.2858 96.364 87.7431 96.364ZM86.8331 100.396C86.6838 100.433 86.5718 100.499 86.4971 100.592C86.4318 100.676 86.3991 100.807 86.3991 100.984C86.3991 101.227 86.4645 101.418 86.5951 101.558C86.7258 101.689 86.9078 101.754 87.1411 101.754C87.5051 101.754 87.8878 101.539 88.2891 101.11L88.3171 100.074L86.8331 100.396ZM94.1054 96.378C94.74 96.378 95.3374 96.4853 95.8974 96.7L95.6454 98.072L95.4214 98.142C95.1507 97.9647 94.88 97.8293 94.6094 97.736C94.3387 97.6427 94.1007 97.596 93.8954 97.596C93.6714 97.596 93.494 97.6567 93.3634 97.778C93.2327 97.89 93.1674 98.03 93.1674 98.198C93.1674 98.394 93.2514 98.5527 93.4194 98.674C93.5967 98.7953 93.872 98.9307 94.2454 99.08C94.6187 99.2293 94.9267 99.374 95.1694 99.514C95.412 99.654 95.6174 99.85 95.7854 100.102C95.9627 100.345 96.0514 100.648 96.0514 101.012C96.0514 101.385 95.9534 101.735 95.7574 102.062C95.5707 102.379 95.2814 102.641 94.8894 102.846C94.4974 103.042 94.0167 103.14 93.4474 103.14C92.7754 103.14 92.08 103 91.3614 102.72L91.5714 101.264L91.7534 101.152C92.0427 101.395 92.3647 101.591 92.7194 101.74C93.074 101.88 93.3867 101.95 93.6574 101.95C93.9094 101.95 94.1054 101.889 94.2454 101.768C94.3854 101.637 94.4554 101.483 94.4554 101.306C94.4554 101.11 94.3667 100.951 94.1894 100.83C94.0214 100.709 93.7507 100.573 93.3774 100.424C92.9947 100.256 92.682 100.107 92.4394 99.976C92.1967 99.836 91.9867 99.64 91.8094 99.388C91.6414 99.136 91.5574 98.8233 91.5574 98.45C91.5574 97.8433 91.786 97.3487 92.2434 96.966C92.7007 96.574 93.3214 96.378 94.1054 96.378ZM99.4784 96.378C100.113 96.378 100.71 96.4853 101.27 96.7L101.018 98.072L100.794 98.142C100.524 97.9647 100.253 97.8293 99.9824 97.736C99.7118 97.6427 99.4738 97.596 99.2684 97.596C99.0444 97.596 98.8671 97.6567 98.7364 97.778C98.6058 97.89 98.5404 98.03 98.5404 98.198C98.5404 98.394 98.6244 98.5527 98.7924 98.674C98.9698 98.7953 99.2451 98.9307 99.6184 99.08C99.9918 99.2293 100.3 99.374 100.542 99.514C100.785 99.654 100.99 99.85 101.158 100.102C101.336 100.345 101.424 100.648 101.424 101.012C101.424 101.385 101.326 101.735 101.13 102.062C100.944 102.379 100.654 102.641 100.262 102.846C99.8704 103.042 99.3898 103.14 98.8204 103.14C98.1484 103.14 97.4531 103 96.7344 102.72L96.9444 101.264L97.1264 101.152C97.4158 101.395 97.7378 101.591 98.0924 101.74C98.4471 101.88 98.7598 101.95 99.0304 101.95C99.2824 101.95 99.4784 101.889 99.6184 101.768C99.7584 101.637 99.8284 101.483 99.8284 101.306C99.8284 101.11 99.7398 100.951 99.5624 100.83C99.3944 100.709 99.1238 100.573 98.7504 100.424C98.3678 100.256 98.0551 100.107 97.8124 99.976C97.5698 99.836 97.3598 99.64 97.1824 99.388C97.0144 99.136 96.9304 98.8233 96.9304 98.45C96.9304 97.8433 97.1591 97.3487 97.6164 96.966C98.0738 96.574 98.6944 96.378 99.4784 96.378ZM105.369 96.364C106.321 96.364 107.049 96.644 107.553 97.204C108.057 97.764 108.309 98.5713 108.309 99.626C108.309 100.765 108.039 101.637 107.497 102.244C106.956 102.841 106.177 103.14 105.159 103.14C104.207 103.14 103.479 102.86 102.975 102.3C102.471 101.74 102.219 100.933 102.219 99.878C102.219 98.7393 102.49 97.8713 103.031 97.274C103.573 96.6673 104.352 96.364 105.369 96.364ZM105.243 97.624C104.795 97.624 104.469 97.7733 104.263 98.072C104.067 98.3707 103.969 98.8513 103.969 99.514C103.969 100.373 104.072 100.984 104.277 101.348C104.483 101.712 104.819 101.894 105.285 101.894C105.733 101.894 106.055 101.749 106.251 101.46C106.457 101.161 106.559 100.676 106.559 100.004C106.559 99.1547 106.452 98.548 106.237 98.184C106.032 97.8107 105.701 97.624 105.243 97.624ZM114.267 96.364C114.985 96.364 115.545 96.5273 115.947 96.854C116.357 97.1713 116.563 97.6193 116.563 98.198C116.563 98.366 116.535 98.898 116.479 99.794C116.469 100.055 116.455 100.326 116.437 100.606C116.418 100.877 116.409 101.11 116.409 101.306C116.409 101.465 116.432 101.577 116.479 101.642C116.525 101.698 116.609 101.726 116.731 101.726C116.824 101.726 116.945 101.707 117.095 101.67L117.235 101.782L117.067 102.762C116.768 102.958 116.427 103.075 116.045 103.112C115.765 103.084 115.531 102.986 115.345 102.818C115.158 102.641 115.032 102.398 114.967 102.09H114.869C114.402 102.585 113.921 102.93 113.427 103.126C112.755 103.117 112.227 102.939 111.845 102.594C111.462 102.249 111.271 101.777 111.271 101.18C111.271 100.713 111.387 100.349 111.621 100.088C111.863 99.8173 112.227 99.6353 112.713 99.542L114.855 99.136V98.562C114.855 97.9553 114.556 97.652 113.959 97.652C113.669 97.652 113.361 97.7173 113.035 97.848C112.717 97.9787 112.358 98.184 111.957 98.464L111.817 98.38L111.607 97.148C112.008 96.896 112.437 96.7047 112.895 96.574C113.352 96.434 113.809 96.364 114.267 96.364ZM113.357 100.396C113.207 100.433 113.095 100.499 113.021 100.592C112.955 100.676 112.923 100.807 112.923 100.984C112.923 101.227 112.988 101.418 113.119 101.558C113.249 101.689 113.431 101.754 113.665 101.754C114.029 101.754 114.411 101.539 114.813 101.11L114.841 100.074L113.357 100.396ZM122.367 98.94C122.376 98.6133 122.301 98.3613 122.143 98.184C121.993 97.9973 121.774 97.904 121.485 97.904C121.065 97.904 120.617 98.1047 120.141 98.506V100.13L120.225 103H118.363L118.461 100.312L118.391 96.616L120.155 96.462V97.414H120.253C120.766 96.9473 121.326 96.6113 121.933 96.406C122.642 96.406 123.183 96.5693 123.557 96.896C123.93 97.2133 124.107 97.6753 124.089 98.282L124.047 100.144L124.131 103H122.255L122.367 98.94ZM128.405 101.628C128.704 101.628 129.016 101.549 129.343 101.39L129.497 101.53L129.315 102.636C128.839 102.879 128.354 103.028 127.859 103.084C126.599 102.953 125.969 102.337 125.969 101.236L126.039 100.074L126.025 97.666H125.157L125.087 97.568L125.185 96.546H126.011V95.468L127.705 94.922L127.831 95.034L127.789 96.546H129.455L129.511 96.644L129.427 97.666H127.761L127.677 100.802C127.677 101.101 127.733 101.315 127.845 101.446C127.957 101.567 128.144 101.628 128.405 101.628ZM135.448 99.976L131.668 100.004C131.752 101.171 132.344 101.754 133.446 101.754C134.024 101.754 134.668 101.591 135.378 101.264L135.532 101.362L135.252 102.748C134.542 103.009 133.875 103.14 133.25 103.14C132.223 103.14 131.416 102.841 130.828 102.244C130.249 101.647 129.96 100.821 129.96 99.766C129.96 98.7207 130.244 97.8947 130.814 97.288C131.383 96.672 132.153 96.364 133.124 96.364C133.954 96.364 134.594 96.5927 135.042 97.05C135.499 97.498 135.728 98.128 135.728 98.94C135.728 99.1547 135.704 99.4253 135.658 99.752L135.448 99.976ZM134.104 98.73C134.104 98.3567 134.02 98.0767 133.852 97.89C133.684 97.694 133.436 97.596 133.11 97.596C132.746 97.596 132.442 97.7173 132.2 97.96C131.957 98.1933 131.794 98.534 131.71 98.982L134.076 98.926L134.104 98.73ZM139.195 96.378C139.83 96.378 140.427 96.4853 140.987 96.7L140.735 98.072L140.511 98.142C140.241 97.9647 139.97 97.8293 139.699 97.736C139.429 97.6427 139.191 97.596 138.985 97.596C138.761 97.596 138.584 97.6567 138.453 97.778C138.323 97.89 138.257 98.03 138.257 98.198C138.257 98.394 138.341 98.5527 138.509 98.674C138.687 98.7953 138.962 98.9307 139.335 99.08C139.709 99.2293 140.017 99.374 140.259 99.514C140.502 99.654 140.707 99.85 140.875 100.102C141.053 100.345 141.141 100.648 141.141 101.012C141.141 101.385 141.043 101.735 140.847 102.062C140.661 102.379 140.371 102.641 139.979 102.846C139.587 103.042 139.107 103.14 138.537 103.14C137.865 103.14 137.17 103 136.451 102.72L136.661 101.264L136.843 101.152C137.133 101.395 137.455 101.591 137.809 101.74C138.164 101.88 138.477 101.95 138.747 101.95C138.999 101.95 139.195 101.889 139.335 101.768C139.475 101.637 139.545 101.483 139.545 101.306C139.545 101.11 139.457 100.951 139.279 100.83C139.111 100.709 138.841 100.573 138.467 100.424C138.085 100.256 137.772 100.107 137.529 99.976C137.287 99.836 137.077 99.64 136.899 99.388C136.731 99.136 136.647 98.8233 136.647 98.45C136.647 97.8433 136.876 97.3487 137.333 96.966C137.791 96.574 138.411 96.378 139.195 96.378ZM39.9042 116.13L39.9462 117.306C39.9462 117.465 39.9648 117.577 40.0022 117.642C40.0488 117.698 40.1282 117.726 40.2402 117.726C40.3428 117.726 40.4688 117.707 40.6182 117.67L40.7442 117.782L40.5902 118.762C40.2728 118.958 39.9275 119.075 39.5542 119.112C39.2648 119.084 39.0222 118.986 38.8262 118.818C38.6302 118.65 38.4948 118.421 38.4202 118.132H38.3082C37.8508 118.552 37.3842 118.874 36.9082 119.098C35.9935 119.098 35.2842 118.809 34.7802 118.23C34.2762 117.642 34.0242 116.83 34.0242 115.794C34.0242 114.693 34.3135 113.848 34.8922 113.26C35.4708 112.672 36.2735 112.378 37.3002 112.378C37.5708 112.378 37.8695 112.406 38.1962 112.462L38.1682 109.312L40.0162 109.172L39.9042 116.13ZM37.1742 113.638C36.2408 113.638 35.7742 114.231 35.7742 115.416C35.7742 116.153 35.8862 116.709 36.1102 117.082C36.3342 117.455 36.6608 117.642 37.0902 117.642C37.5008 117.642 37.8788 117.451 38.2242 117.068L38.2522 116.298L38.2102 113.89C37.8462 113.722 37.5008 113.638 37.1742 113.638ZM46.8813 115.976L43.1013 116.004C43.1853 117.171 43.778 117.754 44.8793 117.754C45.458 117.754 46.102 117.591 46.8113 117.264L46.9653 117.362L46.6853 118.748C45.976 119.009 45.3086 119.14 44.6833 119.14C43.6566 119.14 42.8493 118.841 42.2613 118.244C41.6826 117.647 41.3933 116.821 41.3933 115.766C41.3933 114.721 41.678 113.895 42.2473 113.288C42.8166 112.672 43.5866 112.364 44.5573 112.364C45.388 112.364 46.0273 112.593 46.4753 113.05C46.9326 113.498 47.1613 114.128 47.1613 114.94C47.1613 115.155 47.138 115.425 47.0913 115.752L46.8813 115.976ZM45.5373 114.73C45.5373 114.357 45.4533 114.077 45.2853 113.89C45.1173 113.694 44.87 113.596 44.5433 113.596C44.1793 113.596 43.876 113.717 43.6333 113.96C43.3906 114.193 43.2273 114.534 43.1433 114.982L45.5093 114.926L45.5373 114.73ZM53.952 109.144C54.3346 109.144 54.7406 109.186 55.17 109.27L55.044 110.656L54.918 110.74C54.4793 110.553 54.0966 110.46 53.77 110.46C53.1913 110.46 52.8973 110.791 52.888 111.454L52.874 112.546H54.456L54.512 112.644L54.428 113.666H52.846L52.804 116.13L52.902 119H51.04L51.152 116.298L51.124 113.666H50.144L50.074 113.568L50.172 112.546H51.11L51.096 111.776C51.096 110.936 51.3433 110.287 51.838 109.83C52.342 109.373 53.0466 109.144 53.952 109.144ZM57.6514 112.364C58.37 112.364 58.93 112.527 59.3314 112.854C59.742 113.171 59.9474 113.619 59.9474 114.198C59.9474 114.366 59.9194 114.898 59.8634 115.794C59.854 116.055 59.84 116.326 59.8214 116.606C59.8027 116.877 59.7934 117.11 59.7934 117.306C59.7934 117.465 59.8167 117.577 59.8634 117.642C59.91 117.698 59.994 117.726 60.1154 117.726C60.2087 117.726 60.33 117.707 60.4794 117.67L60.6194 117.782L60.4514 118.762C60.1527 118.958 59.812 119.075 59.4294 119.112C59.1494 119.084 58.916 118.986 58.7294 118.818C58.5427 118.641 58.4167 118.398 58.3514 118.09H58.2534C57.7867 118.585 57.306 118.93 56.8114 119.126C56.1394 119.117 55.612 118.939 55.2294 118.594C54.8467 118.249 54.6554 117.777 54.6554 117.18C54.6554 116.713 54.772 116.349 55.0054 116.088C55.248 115.817 55.612 115.635 56.0974 115.542L58.2394 115.136V114.562C58.2394 113.955 57.9407 113.652 57.3434 113.652C57.054 113.652 56.746 113.717 56.4194 113.848C56.102 113.979 55.7427 114.184 55.3414 114.464L55.2014 114.38L54.9914 113.148C55.3927 112.896 55.822 112.705 56.2794 112.574C56.7367 112.434 57.194 112.364 57.6514 112.364ZM56.7414 116.396C56.592 116.433 56.48 116.499 56.4054 116.592C56.34 116.676 56.3074 116.807 56.3074 116.984C56.3074 117.227 56.3727 117.418 56.5034 117.558C56.634 117.689 56.816 117.754 57.0494 117.754C57.4134 117.754 57.796 117.539 58.1974 117.11L58.2254 116.074L56.7414 116.396ZM62.9076 112.49H65.7356L66.4496 112.476L66.4636 113.582L63.3136 117.81H65.2876L66.4776 117.698L66.5756 117.824L66.4496 119.028L64.8256 119H62.2496L61.3536 119.042V117.95L64.5316 113.694H62.6556L61.4936 113.792L61.3816 113.666L61.5216 112.462L62.9076 112.49ZM72.7075 115.976L68.9275 116.004C69.0115 117.171 69.6041 117.754 70.7055 117.754C71.2841 117.754 71.9281 117.591 72.6375 117.264L72.7915 117.362L72.5115 118.748C71.8021 119.009 71.1348 119.14 70.5095 119.14C69.4828 119.14 68.6755 118.841 68.0875 118.244C67.5088 117.647 67.2195 116.821 67.2195 115.766C67.2195 114.721 67.5041 113.895 68.0735 113.288C68.6428 112.672 69.4128 112.364 70.3835 112.364C71.2141 112.364 71.8535 112.593 72.3015 113.05C72.7588 113.498 72.9875 114.128 72.9875 114.94C72.9875 115.155 72.9641 115.425 72.9175 115.752L72.7075 115.976ZM71.3635 114.73C71.3635 114.357 71.2795 114.077 71.1115 113.89C70.9435 113.694 70.6961 113.596 70.3695 113.596C70.0055 113.596 69.7021 113.717 69.4595 113.96C69.2168 114.193 69.0535 114.534 68.9695 114.982L71.3355 114.926L71.3635 114.73ZM77.869 112.476C77.953 112.476 78.0697 112.485 78.219 112.504V114.226L78.023 114.296C77.8643 114.231 77.6917 114.198 77.505 114.198C76.9637 114.198 76.4737 114.548 76.035 115.248V116.13L76.133 119H74.271L74.383 116.312L74.299 112.616L76.063 112.462L76.049 113.736H76.161C76.6183 112.896 77.1877 112.476 77.869 112.476ZM83.9593 112.364C84.9113 112.364 85.6393 112.644 86.1433 113.204C86.6473 113.764 86.8993 114.571 86.8993 115.626C86.8993 116.765 86.6287 117.637 86.0873 118.244C85.546 118.841 84.7667 119.14 83.7493 119.14C82.7973 119.14 82.0693 118.86 81.5653 118.3C81.0613 117.74 80.8093 116.933 80.8093 115.878C80.8093 114.739 81.08 113.871 81.6213 113.274C82.1627 112.667 82.942 112.364 83.9593 112.364ZM83.8333 113.624C83.3853 113.624 83.0587 113.773 82.8533 114.072C82.6573 114.371 82.5593 114.851 82.5593 115.514C82.5593 116.373 82.662 116.984 82.8673 117.348C83.0727 117.712 83.4087 117.894 83.8753 117.894C84.3233 117.894 84.6453 117.749 84.8413 117.46C85.0467 117.161 85.1493 116.676 85.1493 116.004C85.1493 115.155 85.042 114.548 84.8273 114.184C84.622 113.811 84.2907 113.624 83.8333 113.624ZM92.9264 117.628C93.2251 117.628 93.5378 117.549 93.8644 117.39L94.0184 117.53L93.8364 118.636C93.3604 118.879 92.8751 119.028 92.3804 119.084C91.1204 118.953 90.4904 118.337 90.4904 117.236L90.5604 116.074L90.5464 113.666H89.6784L89.6084 113.568L89.7064 112.546H90.5324V111.468L92.2264 110.922L92.3524 111.034L92.3104 112.546H93.9764L94.0324 112.644L93.9484 113.666H92.2824L92.1984 116.802C92.1984 117.101 92.2544 117.315 92.3664 117.446C92.4784 117.567 92.6651 117.628 92.9264 117.628ZM99.9692 115.976L96.1892 116.004C96.2732 117.171 96.8659 117.754 97.9672 117.754C98.5459 117.754 99.1899 117.591 99.8992 117.264L100.053 117.362L99.7732 118.748C99.0639 119.009 98.3965 119.14 97.7712 119.14C96.7445 119.14 95.9372 118.841 95.3492 118.244C94.7705 117.647 94.4812 116.821 94.4812 115.766C94.4812 114.721 94.7659 113.895 95.3352 113.288C95.9045 112.672 96.6745 112.364 97.6452 112.364C98.4759 112.364 99.1152 112.593 99.5632 113.05C100.021 113.498 100.249 114.128 100.249 114.94C100.249 115.155 100.226 115.425 100.179 115.752L99.9692 115.976ZM98.6252 114.73C98.6252 114.357 98.5412 114.077 98.3732 113.89C98.2052 113.694 97.9579 113.596 97.6312 113.596C97.2672 113.596 96.9639 113.717 96.7212 113.96C96.4785 114.193 96.3152 114.534 96.2312 114.982L98.5972 114.926L98.6252 114.73ZM103.717 112.378C104.351 112.378 104.949 112.485 105.509 112.7L105.257 114.072L105.033 114.142C104.762 113.965 104.491 113.829 104.221 113.736C103.95 113.643 103.712 113.596 103.507 113.596C103.283 113.596 103.105 113.657 102.975 113.778C102.844 113.89 102.779 114.03 102.779 114.198C102.779 114.394 102.863 114.553 103.031 114.674C103.208 114.795 103.483 114.931 103.857 115.08C104.23 115.229 104.538 115.374 104.781 115.514C105.023 115.654 105.229 115.85 105.397 116.102C105.574 116.345 105.663 116.648 105.663 117.012C105.663 117.385 105.565 117.735 105.369 118.062C105.182 118.379 104.893 118.641 104.501 118.846C104.109 119.042 103.628 119.14 103.059 119.14C102.387 119.14 101.691 119 100.973 118.72L101.183 117.264L101.365 117.152C101.654 117.395 101.976 117.591 102.331 117.74C102.685 117.88 102.998 117.95 103.269 117.95C103.521 117.95 103.717 117.889 103.857 117.768C103.997 117.637 104.067 117.483 104.067 117.306C104.067 117.11 103.978 116.951 103.801 116.83C103.633 116.709 103.362 116.573 102.989 116.424C102.606 116.256 102.293 116.107 102.051 115.976C101.808 115.836 101.598 115.64 101.421 115.388C101.253 115.136 101.169 114.823 101.169 114.45C101.169 113.843 101.397 113.349 101.855 112.966C102.312 112.574 102.933 112.378 103.717 112.378ZM109.538 117.628C109.836 117.628 110.149 117.549 110.476 117.39L110.63 117.53L110.448 118.636C109.972 118.879 109.486 119.028 108.992 119.084C107.732 118.953 107.102 118.337 107.102 117.236L107.172 116.074L107.158 113.666H106.29L106.22 113.568L106.318 112.546H107.144V111.468L108.838 110.922L108.964 111.034L108.922 112.546H110.588L110.644 112.644L110.56 113.666H108.894L108.81 116.802C108.81 117.101 108.866 117.315 108.978 117.446C109.09 117.567 109.276 117.628 109.538 117.628ZM116.581 115.976L112.801 116.004C112.885 117.171 113.477 117.754 114.579 117.754C115.157 117.754 115.801 117.591 116.511 117.264L116.665 117.362L116.385 118.748C115.675 119.009 115.008 119.14 114.383 119.14C113.356 119.14 112.549 118.841 111.961 118.244C111.382 117.647 111.093 116.821 111.093 115.766C111.093 114.721 111.377 113.895 111.947 113.288C112.516 112.672 113.286 112.364 114.257 112.364C115.087 112.364 115.727 112.593 116.175 113.05C116.632 113.498 116.861 114.128 116.861 114.94C116.861 115.155 116.837 115.425 116.791 115.752L116.581 115.976ZM115.237 114.73C115.237 114.357 115.153 114.077 114.985 113.89C114.817 113.694 114.569 113.596 114.243 113.596C113.879 113.596 113.575 113.717 113.333 113.96C113.09 114.193 112.927 114.534 112.843 114.982L115.209 114.926L115.237 114.73ZM125.695 116.13L125.737 117.306C125.737 117.465 125.756 117.577 125.793 117.642C125.84 117.698 125.919 117.726 126.031 117.726C126.134 117.726 126.26 117.707 126.409 117.67L126.535 117.782L126.381 118.762C126.064 118.958 125.719 119.075 125.345 119.112C125.056 119.084 124.813 118.986 124.617 118.818C124.421 118.65 124.286 118.421 124.211 118.132H124.099C123.642 118.552 123.175 118.874 122.699 119.098C121.785 119.098 121.075 118.809 120.571 118.23C120.067 117.642 119.815 116.83 119.815 115.794C119.815 114.693 120.105 113.848 120.683 113.26C121.262 112.672 122.065 112.378 123.091 112.378C123.362 112.378 123.661 112.406 123.987 112.462L123.959 109.312L125.807 109.172L125.695 116.13ZM122.965 113.638C122.032 113.638 121.565 114.231 121.565 115.416C121.565 116.153 121.677 116.709 121.901 117.082C122.125 117.455 122.452 117.642 122.881 117.642C123.292 117.642 123.67 117.451 124.015 117.068L124.043 116.298L124.001 113.89C123.637 113.722 123.292 113.638 122.965 113.638ZM132.672 115.976L128.892 116.004C128.976 117.171 129.569 117.754 130.67 117.754C131.249 117.754 131.893 117.591 132.602 117.264L132.756 117.362L132.476 118.748C131.767 119.009 131.1 119.14 130.474 119.14C129.448 119.14 128.64 118.841 128.052 118.244C127.474 117.647 127.184 116.821 127.184 115.766C127.184 114.721 127.469 113.895 128.038 113.288C128.608 112.672 129.378 112.364 130.348 112.364C131.179 112.364 131.818 112.593 132.266 113.05C132.724 113.498 132.952 114.128 132.952 114.94C132.952 115.155 132.929 115.425 132.882 115.752L132.672 115.976ZM131.328 114.73C131.328 114.357 131.244 114.077 131.076 113.89C130.908 113.694 130.661 113.596 130.334 113.596C129.97 113.596 129.667 113.717 129.424 113.96C129.182 114.193 129.018 114.534 128.934 114.982L131.3 114.926L131.328 114.73ZM45.4196 129.372C45.1676 129.437 44.8083 129.507 44.3416 129.582L44.3136 129.638C44.4536 129.918 44.5236 130.231 44.5236 130.576C44.5236 131.276 44.267 131.836 43.7536 132.256C43.2496 132.667 42.5636 132.872 41.6956 132.872C41.4343 132.872 41.1636 132.849 40.8836 132.802C40.7996 132.886 40.7436 132.951 40.7156 132.998C40.6876 133.045 40.6736 133.101 40.6736 133.166C40.6736 133.334 40.7856 133.451 41.0096 133.516C41.2336 133.581 41.5883 133.647 42.0736 133.712C42.6243 133.777 43.0816 133.857 43.4456 133.95C43.819 134.043 44.1363 134.207 44.3976 134.44C44.6683 134.673 44.8036 135.005 44.8036 135.434C44.8036 135.873 44.6636 136.265 44.3836 136.61C44.113 136.965 43.735 137.24 43.2496 137.436C42.7643 137.632 42.2136 137.73 41.5976 137.73C40.7483 137.73 40.095 137.557 39.6376 137.212C39.1803 136.867 38.9516 136.409 38.9516 135.84C39.241 135.439 39.6283 135.089 40.1136 134.79V134.72C39.7963 134.608 39.549 134.454 39.3716 134.258C39.1943 134.053 39.1056 133.782 39.1056 133.446C39.3576 133.138 39.675 132.853 40.0576 132.592V132.522C39.7216 132.335 39.465 132.093 39.2876 131.794C39.1196 131.486 39.0356 131.127 39.0356 130.716C39.0356 129.988 39.2876 129.419 39.7916 129.008C40.2956 128.597 40.9816 128.392 41.8496 128.392C42.3536 128.392 42.811 128.476 43.2216 128.644C43.8936 128.523 44.5796 128.336 45.2796 128.084L45.4196 128.21V129.372ZM41.7516 131.752C42.1343 131.752 42.4236 131.654 42.6196 131.458C42.8156 131.262 42.9136 130.977 42.9136 130.604C42.9136 129.895 42.5496 129.54 41.8216 129.54C41.0376 129.54 40.6456 129.899 40.6456 130.618C40.6456 130.991 40.739 131.276 40.9256 131.472C41.1123 131.659 41.3876 131.752 41.7516 131.752ZM43.2356 135.77C43.2356 135.518 43.1003 135.345 42.8296 135.252C42.5683 135.159 42.1623 135.079 41.6116 135.014L41.1356 134.944C40.9116 135.093 40.7436 135.238 40.6316 135.378C40.5196 135.518 40.4636 135.667 40.4636 135.826C40.4636 136.069 40.5756 136.265 40.7996 136.414C41.0236 136.563 41.3503 136.638 41.7796 136.638C42.2183 136.638 42.5683 136.559 42.8296 136.4C43.1003 136.251 43.2356 136.041 43.2356 135.77ZM47.9816 132.13L48.0796 135H46.2176L46.3156 132.298L46.2316 125.312L48.0936 125.172L47.9816 132.13ZM49.9654 132.312L49.8954 128.616L51.7294 128.462L51.6454 132.13L51.7294 135H49.8674L49.9654 132.312ZM50.8474 125.298C51.1367 125.298 51.3607 125.382 51.5194 125.55C51.6874 125.718 51.7714 125.951 51.7714 126.25C51.7714 126.567 51.6827 126.819 51.5054 127.006C51.328 127.193 51.0854 127.286 50.7774 127.286C50.4694 127.286 50.2314 127.202 50.0634 127.034C49.9047 126.866 49.8254 126.628 49.8254 126.32C49.8254 126.012 49.914 125.765 50.0914 125.578C50.278 125.391 50.53 125.298 50.8474 125.298ZM56.1637 128.364C56.4717 128.364 56.7751 128.397 57.0737 128.462C57.3817 128.518 57.6524 128.602 57.8857 128.714L57.5777 130.198L57.4237 130.268C56.9477 130.007 56.5231 129.876 56.1497 129.876C55.7204 129.876 55.3891 130.03 55.1557 130.338C54.9224 130.646 54.8057 131.085 54.8057 131.654C54.8057 132.307 54.9317 132.807 55.1837 133.152C55.4357 133.497 55.7951 133.67 56.2617 133.67C56.6817 133.67 57.1484 133.553 57.6617 133.32L57.8017 133.432L57.6197 134.874C57.0597 135.051 56.4857 135.14 55.8977 135.14C55.0017 135.14 54.3017 134.851 53.7977 134.272C53.2937 133.684 53.0417 132.867 53.0417 131.822C53.0417 130.739 53.3171 129.895 53.8677 129.288C54.4184 128.672 55.1837 128.364 56.1637 128.364ZM63.9165 131.976L60.1365 132.004C60.2205 133.171 60.8131 133.754 61.9145 133.754C62.4931 133.754 63.1371 133.591 63.8465 133.264L64.0005 133.362L63.7205 134.748C63.0111 135.009 62.3438 135.14 61.7185 135.14C60.6918 135.14 59.8845 134.841 59.2965 134.244C58.7178 133.647 58.4285 132.821 58.4285 131.766C58.4285 130.721 58.7131 129.895 59.2825 129.288C59.8518 128.672 60.6218 128.364 61.5925 128.364C62.4231 128.364 63.0625 128.593 63.5105 129.05C63.9678 129.498 64.1965 130.128 64.1965 130.94C64.1965 131.155 64.1731 131.425 64.1265 131.752L63.9165 131.976ZM62.5725 130.73C62.5725 130.357 62.4885 130.077 62.3205 129.89C62.1525 129.694 61.9051 129.596 61.5785 129.596C61.2145 129.596 60.9111 129.717 60.6685 129.96C60.4258 130.193 60.2625 130.534 60.1785 130.982L62.5445 130.926L62.5725 130.73ZM73.278 135L73.39 130.94C73.39 130.249 73.096 129.904 72.508 129.904C72.088 129.904 71.6493 130.091 71.192 130.464L71.15 132.144L71.234 135H69.372L69.484 130.94C69.4933 130.604 69.4186 130.347 69.26 130.17C69.1106 129.993 68.8913 129.904 68.602 129.904C68.1913 129.904 67.7386 130.1 67.244 130.492V132.13L67.328 135H65.48L65.578 132.312L65.508 128.616L67.258 128.462V129.414H67.356C67.8693 128.947 68.434 128.611 69.05 128.406C70.0953 128.406 70.7626 128.756 71.052 129.456H71.136C71.668 128.961 72.2746 128.611 72.956 128.406C73.6653 128.406 74.202 128.569 74.566 128.896C74.9393 129.213 75.1166 129.675 75.098 130.282L75.056 132.144L75.14 135H73.278ZM76.8989 132.312L76.8289 128.616L78.6629 128.462L78.5789 132.13L78.6629 135H76.8009L76.8989 132.312ZM77.7809 125.298C78.0703 125.298 78.2943 125.382 78.4529 125.55C78.6209 125.718 78.7049 125.951 78.7049 126.25C78.7049 126.567 78.6163 126.819 78.4389 127.006C78.2616 127.193 78.0189 127.286 77.7109 127.286C77.4029 127.286 77.1649 127.202 76.9969 127.034C76.8383 126.866 76.7589 126.628 76.7589 126.32C76.7589 126.012 76.8476 125.765 77.0249 125.578C77.2116 125.391 77.4636 125.298 77.7809 125.298ZM82.9853 128.364C83.704 128.364 84.264 128.527 84.6653 128.854C85.076 129.171 85.2813 129.619 85.2813 130.198C85.2813 130.366 85.2533 130.898 85.1973 131.794C85.188 132.055 85.174 132.326 85.1553 132.606C85.1367 132.877 85.1273 133.11 85.1273 133.306C85.1273 133.465 85.1507 133.577 85.1973 133.642C85.244 133.698 85.328 133.726 85.4493 133.726C85.5427 133.726 85.664 133.707 85.8133 133.67L85.9533 133.782L85.7853 134.762C85.4867 134.958 85.146 135.075 84.7633 135.112C84.4833 135.084 84.25 134.986 84.0633 134.818C83.8767 134.641 83.7507 134.398 83.6853 134.09H83.5873C83.1207 134.585 82.64 134.93 82.1453 135.126C81.4733 135.117 80.946 134.939 80.5633 134.594C80.1807 134.249 79.9893 133.777 79.9893 133.18C79.9893 132.713 80.106 132.349 80.3393 132.088C80.582 131.817 80.946 131.635 81.4313 131.542L83.5733 131.136V130.562C83.5733 129.955 83.2747 129.652 82.6773 129.652C82.388 129.652 82.08 129.717 81.7533 129.848C81.436 129.979 81.0767 130.184 80.6753 130.464L80.5353 130.38L80.3253 129.148C80.7267 128.896 81.156 128.705 81.6133 128.574C82.0707 128.434 82.528 128.364 82.9853 128.364ZM82.0753 132.396C81.926 132.433 81.814 132.499 81.7393 132.592C81.674 132.676 81.6413 132.807 81.6413 132.984C81.6413 133.227 81.7067 133.418 81.8373 133.558C81.968 133.689 82.15 133.754 82.3833 133.754C82.7473 133.754 83.13 133.539 83.5313 133.11L83.5593 132.074L82.0753 132.396ZM91.9567 128.364C92.2647 128.364 92.568 128.397 92.8667 128.462C93.1747 128.518 93.4454 128.602 93.6787 128.714L93.3707 130.198L93.2167 130.268C92.7407 130.007 92.316 129.876 91.9427 129.876C91.5134 129.876 91.182 130.03 90.9487 130.338C90.7154 130.646 90.5987 131.085 90.5987 131.654C90.5987 132.307 90.7247 132.807 90.9767 133.152C91.2287 133.497 91.588 133.67 92.0547 133.67C92.4747 133.67 92.9414 133.553 93.4547 133.32L93.5947 133.432L93.4127 134.874C92.8527 135.051 92.2787 135.14 91.6907 135.14C90.7947 135.14 90.0947 134.851 89.5907 134.272C89.0867 133.684 88.8347 132.867 88.8347 131.822C88.8347 130.739 89.11 129.895 89.6607 129.288C90.2114 128.672 90.9767 128.364 91.9567 128.364ZM97.0947 128.364C97.8134 128.364 98.3734 128.527 98.7747 128.854C99.1854 129.171 99.3907 129.619 99.3907 130.198C99.3907 130.366 99.3627 130.898 99.3067 131.794C99.2974 132.055 99.2834 132.326 99.2647 132.606C99.246 132.877 99.2367 133.11 99.2367 133.306C99.2367 133.465 99.26 133.577 99.3067 133.642C99.3534 133.698 99.4374 133.726 99.5587 133.726C99.652 133.726 99.7734 133.707 99.9227 133.67L100.063 133.782L99.8947 134.762C99.596 134.958 99.2554 135.075 98.8727 135.112C98.5927 135.084 98.3594 134.986 98.1727 134.818C97.986 134.641 97.86 134.398 97.7947 134.09H97.6967C97.23 134.585 96.7494 134.93 96.2547 135.126C95.5827 135.117 95.0554 134.939 94.6727 134.594C94.29 134.249 94.0987 133.777 94.0987 133.18C94.0987 132.713 94.2154 132.349 94.4487 132.088C94.6914 131.817 95.0554 131.635 95.5407 131.542L97.6827 131.136V130.562C97.6827 129.955 97.384 129.652 96.7867 129.652C96.4974 129.652 96.1894 129.717 95.8627 129.848C95.5454 129.979 95.186 130.184 94.7847 130.464L94.6447 130.38L94.4347 129.148C94.836 128.896 95.2654 128.705 95.7227 128.574C96.18 128.434 96.6374 128.364 97.0947 128.364ZM96.1847 132.396C96.0354 132.433 95.9234 132.499 95.8487 132.592C95.7834 132.676 95.7507 132.807 95.7507 132.984C95.7507 133.227 95.816 133.418 95.9467 133.558C96.0774 133.689 96.2594 133.754 96.4927 133.754C96.8567 133.754 97.2394 133.539 97.6407 133.11L97.6687 132.074L96.1847 132.396ZM104.717 128.406C105.529 128.406 106.154 128.681 106.593 129.232C107.032 129.783 107.251 130.562 107.251 131.57C107.251 132.709 106.966 133.591 106.397 134.216C105.837 134.832 105.044 135.14 104.017 135.14C103.718 135.14 103.406 135.112 103.079 135.056L103.121 137.59H101.273L101.371 132.312L101.287 128.616L103.065 128.462L103.051 129.414H103.149C103.41 129.162 103.662 128.961 103.905 128.812C104.148 128.653 104.418 128.518 104.717 128.406ZM104.031 133.922C104.516 133.922 104.885 133.749 105.137 133.404C105.389 133.059 105.515 132.55 105.515 131.878C105.515 131.225 105.408 130.735 105.193 130.408C104.988 130.072 104.68 129.904 104.269 129.904C103.868 129.904 103.462 130.105 103.051 130.506L103.037 132.13L103.065 133.712C103.401 133.852 103.723 133.922 104.031 133.922ZM108.645 132.312L108.575 128.616L110.409 128.462L110.325 132.13L110.409 135H108.547L108.645 132.312ZM109.527 125.298C109.816 125.298 110.04 125.382 110.199 125.55C110.367 125.718 110.451 125.951 110.451 126.25C110.451 126.567 110.362 126.819 110.185 127.006C110.008 127.193 109.765 127.286 109.457 127.286C109.149 127.286 108.911 127.202 108.743 127.034C108.584 126.866 108.505 126.628 108.505 126.32C108.505 126.012 108.594 125.765 108.771 125.578C108.958 125.391 109.21 125.298 109.527 125.298ZM113.989 132.13L114.087 135H112.225L112.323 132.298L112.239 125.312L114.101 125.172L113.989 132.13ZM118.409 128.364C119.128 128.364 119.688 128.527 120.089 128.854C120.5 129.171 120.705 129.619 120.705 130.198C120.705 130.366 120.677 130.898 120.621 131.794C120.612 132.055 120.598 132.326 120.579 132.606C120.56 132.877 120.551 133.11 120.551 133.306C120.551 133.465 120.574 133.577 120.621 133.642C120.668 133.698 120.752 133.726 120.873 133.726C120.966 133.726 121.088 133.707 121.237 133.67L121.377 133.782L121.209 134.762C120.91 134.958 120.57 135.075 120.187 135.112C119.907 135.084 119.674 134.986 119.487 134.818C119.3 134.641 119.174 134.398 119.109 134.09H119.011C118.544 134.585 118.064 134.93 117.569 135.126C116.897 135.117 116.37 134.939 115.987 134.594C115.604 134.249 115.413 133.777 115.413 133.18C115.413 132.713 115.53 132.349 115.763 132.088C116.006 131.817 116.37 131.635 116.855 131.542L118.997 131.136V130.562C118.997 129.955 118.698 129.652 118.101 129.652C117.812 129.652 117.504 129.717 117.177 129.848C116.86 129.979 116.5 130.184 116.099 130.464L115.959 130.38L115.749 129.148C116.15 128.896 116.58 128.705 117.037 128.574C117.494 128.434 117.952 128.364 118.409 128.364ZM117.499 132.396C117.35 132.433 117.238 132.499 117.163 132.592C117.098 132.676 117.065 132.807 117.065 132.984C117.065 133.227 117.13 133.418 117.261 133.558C117.392 133.689 117.574 133.754 117.807 133.754C118.171 133.754 118.554 133.539 118.955 133.11L118.983 132.074L117.499 132.396ZM126.103 128.476C126.187 128.476 126.304 128.485 126.453 128.504V130.226L126.257 130.296C126.099 130.231 125.926 130.198 125.739 130.198C125.198 130.198 124.708 130.548 124.269 131.248V132.13L124.367 135H122.505L122.617 132.312L122.533 128.616L124.297 128.462L124.283 129.736H124.395C124.853 128.896 125.422 128.476 126.103 128.476ZM127.131 133.11C127.42 133.11 127.644 133.194 127.803 133.362C127.971 133.53 128.055 133.763 128.055 134.062C128.055 134.379 127.966 134.631 127.789 134.818C127.612 135.005 127.369 135.098 127.061 135.098C126.753 135.098 126.515 135.014 126.347 134.846C126.188 134.678 126.109 134.44 126.109 134.132C126.109 133.824 126.198 133.577 126.375 133.39C126.562 133.203 126.814 133.11 127.131 133.11Z" fill="white"/>
<defs>
<filter id="filter0_b_206:36780" x="3" y="67" width="161" height="97" filterUnits="userSpaceOnUse" color-interpolation-filters="sRGB">
<feFlood flood-opacity="0" result="BackgroundImageFix"/>
<feGaussianBlur in="BackgroundImage" stdDeviation="5"/>
<feComposite in2="SourceAlpha" operator="in" result="effect1_backgroundBlur_206:36780"/>
<feBlend mode="normal" in="SourceGraphic" in2="effect1_backgroundBlur_206:36780" result="shape"/>
</filter>
</defs>
</svg>
