<svg width="167" height="167" viewBox="0 0 167 167" fill="none" xmlns="http://www.w3.org/2000/svg">
<mask id="mask0_206:36788" style="mask-type:alpha" maskUnits="userSpaceOnUse" x="0" y="0" width="167" height="167">
<rect x="1" y="1" width="165" height="165" rx="8" fill="#5988D6" stroke="#EDE6FC" stroke-opacity="0.3"/>
</mask>
<g mask="url(#mask0_206:36788)">
<rect x="1" y="1" width="165" height="165" rx="8" fill="#7AC2D9" stroke="#EDE6FC" stroke-opacity="0.3"/>
<path d="M85.0648 8.0547C85.0648 8.0547 79.8097 8.67482 75.3165 16.3041C75.3165 16.3041 72.5348 7.57278 78.3072 3.19296C84.0797 -1.18685 88.4701 2.06611 90.0293 3.7493C90.0293 3.7493 92.1554 4.10365 92.4389 8.09368C92.7224 12.0837 95.6918 17.8207 89.9584 20.9922C89.9584 20.9922 90.3127 16.5273 89.7316 15.5139C89.1505 14.5004 87.4035 15.3119 85.0648 8.0547Z" fill="#252E3B"/>
<path d="M88.9129 5.29073C88.9129 5.29073 92.0383 3.0335 95.1637 6.56995C98.2891 10.1064 96.9072 13.6925 97.0064 17.0695C97.1056 20.4465 94.0475 28.0828 95.4791 31.3322C96.9107 34.5816 95.4082 36.3924 95.4082 36.3924C95.4082 36.3924 85.504 39.5178 85.8407 24.3444C86.1773 9.17091 88.9129 5.29073 88.9129 5.29073Z" fill="#252E3B"/>
<path d="M103.31 143.262L99.8661 147.667C99.5755 147.117 98.3565 145.541 96.6414 143.478C95.791 142.451 94.8236 141.295 93.7854 140.076C89.8875 135.502 85.0399 129.995 82.0917 126.838C80.7735 125.42 79.8557 124.499 79.5474 124.311C77.9847 123.351 73.9202 117.667 73.3462 114.797C72.7721 111.927 74.1187 107.029 75.2065 103.263C76.2944 99.4958 80.1463 89.5243 82.3149 85.8992C83.7335 83.4681 84.9609 80.9304 85.986 78.309C105.986 67.7988 103.325 81.9907 101.578 87.7348C99.8306 93.4789 87.0491 110.902 85.5785 112.99C84.1079 115.077 85.4509 116.009 87.3007 117.476C89.1504 118.943 92.0242 123.475 92.7896 125.456C93.555 127.437 103.31 143.262 103.31 143.262Z" fill="#945A3B"/>
<path d="M98.7817 150.048C98.7817 150.048 98.3529 156.426 96.6556 158.134C94.9582 159.842 90.7839 163.411 92.4423 164.867C94.1007 166.323 100.947 165.462 103.314 160.912C105.681 156.363 110.401 155.037 109.508 151.04C108.615 147.043 105.412 148.081 102.825 143.166C100.238 138.252 98.7817 150.048 98.7817 150.048Z" fill="#DBDFF0"/>
<path d="M112.864 89.9814C111.035 96.1082 107.141 104.156 106.131 106.193C105.121 108.231 101.28 114.747 101.524 117.617C101.741 120.059 103.296 124.159 104.033 127.646C104.161 128.262 104.267 128.861 104.331 129.417C104.781 133.184 104.717 153.868 105.164 156.802C105.61 159.736 105.674 160.31 105.674 160.31C105.674 160.31 103.902 161.908 100.185 161.334C100.185 161.334 96.8646 143.652 95.8441 140.144C95.3445 138.429 93.8491 133.989 92.4282 129.513C90.9363 124.821 89.5295 120.101 89.4657 118.496C89.3382 115.371 91.1241 104.074 91.5068 98.3938C91.8895 92.7135 96.3544 79.7051 96.3544 79.7051C96.3544 79.7051 102.439 75.7718 112.864 79.7051C112.864 79.7051 114.689 83.8404 112.864 89.9814Z" fill="#945A3B"/>
<path d="M105.589 159.679C105.589 159.679 104.483 160.601 103.31 160.345C102.137 160.09 99.8873 160.558 99.5046 161.625C99.1219 162.691 97.3785 167.964 95.6315 169.452C93.8845 170.941 84.9513 177.794 89.0795 179.452C93.2077 181.111 100.1 178.814 102.694 173.921C105.288 169.027 107.928 169.41 107.332 165.324C106.737 161.238 105.589 159.679 105.589 159.679Z" fill="#DBDFF0"/>
<path d="M101.578 87.7348C100.458 91.4236 94.7811 99.9352 90.4757 106.101C89.6253 107.32 88.828 108.447 88.1299 109.428C86.8649 111.2 85.9258 112.504 85.5856 112.972C84.1186 115.055 85.4581 115.991 87.3078 117.462C88.0709 118.122 88.7536 118.87 89.3418 119.69C89.3418 119.69 84.923 122.401 82.0882 126.834C80.8231 125.481 74.2924 120.81 73.2293 114.737C72.7261 111.852 73.9982 107.015 75.0826 103.248C76.1669 99.4816 80.125 89.5243 82.2937 85.885C83.7183 83.4589 84.9528 80.9259 85.9861 78.309C105.972 67.7988 103.31 81.9907 101.578 87.7348Z" fill="#285173"/>
<path d="M112.864 89.9814C111.035 96.1082 107.141 104.156 106.131 106.193C105.121 108.231 101.28 114.747 101.524 117.617C101.741 120.059 103.296 124.159 104.033 127.646C104.033 127.646 99.5649 127.55 92.4283 129.531C90.9364 124.839 89.402 120.123 89.3383 118.521C89.2107 115.392 90.7876 104.62 91.1703 98.9395C91.553 93.2592 96.3545 79.7051 96.3545 79.7051C96.3545 79.7051 102.439 75.7718 112.864 79.7051C112.864 79.7051 114.689 83.8404 112.864 89.9814Z" fill="#285173"/>
<path d="M93.7818 140.073C93.9803 138.783 93.1014 131.632 93.1014 131.632C94.1645 135.112 96.567 143.227 96.645 143.478C95.7945 142.451 94.8236 141.292 93.7818 140.073Z" fill="#A77860"/>
<path d="M93.0732 89.9814C92.1766 93.4718 90.4509 106.112 90.4509 106.112C89.6005 107.331 88.8032 108.457 88.1051 109.439C88.2114 101.859 92.981 90.2826 93.0732 89.9814Z" fill="#1D3B54"/>
<path d="M78.5446 31.0735C76.1735 34.3848 74.8189 38.3155 74.6467 42.3845C74.466 46.4383 75.0011 67.0759 75.0011 67.0759C68.9661 68.9388 62.8092 70.3809 56.5746 71.392L56.1423 76.7994C56.1423 76.7994 81.3015 74.8115 83.2894 72.1928C85.2773 69.5741 83.0768 51.9946 83.0768 51.9946C83.0768 51.9946 75.8657 37.2712 78.5446 31.0735Z" fill="#945A3B"/>
<path d="M62.9531 70.7364C62.9531 70.7364 60.5435 71.8526 59.8525 71.4947C58.9513 71.0902 58.0245 70.7458 57.0779 70.4636C56.394 70.2439 54.7356 69.0745 53.9667 69.078C53.6548 69.078 51.7697 69.7548 51.1318 69.6946C50.494 69.6344 49.2006 69.3792 49.1864 69.8682C49.1723 70.3572 50.2743 70.8604 50.2743 70.8604C50.2743 70.8604 49.6861 70.8392 49.5266 71.2573C49.2077 72.0723 49.6471 72.4763 49.6471 72.4763C49.6471 72.4763 49.0518 72.7952 49.0163 73.1673C48.9815 73.3818 48.9953 73.6014 49.0566 73.8099C49.1179 74.0184 49.2253 74.2106 49.3707 74.3721C49.3707 74.3721 48.9809 74.9532 49.1581 75.304C49.679 76.3458 50.044 76.2962 50.044 76.2962C50.044 76.2962 49.9589 77.214 50.4904 77.455C50.9722 77.6307 51.475 77.7427 51.9858 77.788C52.4536 77.8802 56.7094 77.4798 59.4627 76.1828C61.1946 75.3883 63.0626 74.9324 64.9658 74.8398L62.9531 70.7364Z" fill="#945A3B"/>
<path d="M54.8029 72.3239C54.9572 72.2573 55.0828 72.138 55.1572 71.9873C55.2062 71.8884 55.2262 71.7777 55.2149 71.668C55.2036 71.5583 55.1615 71.454 55.0935 71.3672C54.7816 70.9419 53.552 70.786 53.4138 70.7683L50.6924 70.8037V71.0553L53.4032 71.0234C53.8886 71.0801 54.7178 71.2644 54.9056 71.5195C54.945 71.5688 54.9696 71.6283 54.9765 71.691C54.9834 71.7538 54.9724 71.8172 54.9446 71.8739C54.9191 71.9285 54.8822 71.977 54.8363 72.0161C54.7905 72.0552 54.7368 72.0841 54.6789 72.1007V72.3523C54.7217 72.351 54.7638 72.3414 54.8029 72.3239Z" fill="#73472E"/>
<path d="M55.0261 73.6031C55.1311 73.5398 55.2186 73.4512 55.2805 73.3453C55.3424 73.2395 55.3768 73.1198 55.3805 72.9972C55.3832 72.87 55.358 72.7438 55.3065 72.6274C55.2551 72.5111 55.1787 72.4075 55.0828 72.3239C54.8064 72.1184 53.3111 71.9696 52.9957 71.9696C52.0945 72.0819 51.2001 72.244 50.3168 72.455L50.3735 72.7031C51.2358 72.4951 52.1088 72.3342 52.9886 72.2212C53.4741 72.2212 54.7604 72.3948 54.9304 72.5259C54.9943 72.5842 55.045 72.6554 55.0793 72.7349C55.1135 72.8143 55.1304 72.9001 55.1289 72.9866C55.1274 73.0678 55.1055 73.1473 55.0652 73.2179C55.025 73.2885 54.9677 73.3478 54.8986 73.3905L55.0261 73.6031Z" fill="#73472E"/>
<path d="M54.6363 74.8753C55.0332 74.7087 55.4939 74.404 55.3132 73.8122C55.1324 73.2204 54.1934 73.3905 53.5697 73.4933C53.4526 73.5165 53.3343 73.533 53.2154 73.5429C52.861 73.5429 50.3132 74.0532 50.2034 74.078L50.253 74.3225C50.9865 74.1772 52.9496 73.798 53.2189 73.7945C53.3475 73.7869 53.4754 73.7704 53.6016 73.7449C54.0729 73.6669 54.9517 73.5216 55.0616 73.8866C55.1714 74.2516 54.9304 74.5103 54.204 74.7441C53.6982 74.8678 53.1843 74.9554 52.6661 75.0064L51.0503 75.6584L51.1459 75.8922L52.7264 75.2544C53.2567 75.2016 53.7825 75.1104 54.2997 74.9816C54.3847 74.9674 54.5052 74.9284 54.6363 74.8753Z" fill="#73472E"/>
<path d="M52.9957 77.455V77.2034C52.5599 77.2265 52.1235 77.1737 51.7058 77.0475C52.1703 76.7136 52.6636 76.4219 53.1799 76.1757C53.4244 76.1368 54.4237 75.8214 54.5725 75.3785C54.596 75.3213 54.6056 75.2595 54.6007 75.1979C54.5958 75.1363 54.5764 75.0768 54.5442 75.0241C54.4968 74.9608 54.4373 74.9076 54.3691 74.8675C54.301 74.8273 54.2256 74.8011 54.1473 74.7902L54.1083 75.0418C54.1933 75.0529 54.2713 75.0945 54.328 75.1588C54.328 75.1588 54.3635 75.2119 54.328 75.3005C54.243 75.5663 53.4492 75.8745 53.1374 75.9241C52.8256 75.9738 51.6101 76.7994 51.3656 76.966L51.1991 77.0793L51.3727 77.1821C51.8809 77.4122 52.4402 77.5062 52.9957 77.455Z" fill="#73472E"/>
<path d="M56.8368 74.1807L56.9538 73.9539C55.9226 73.4189 55.0225 72.0865 55.0155 72.0723L54.8064 72.2141C54.8418 72.2637 55.749 73.6138 56.8368 74.1807Z" fill="#73472E"/>
<path d="M52.9035 70.9561C53.1055 70.8622 53.2948 70.7432 53.4669 70.6018L53.3039 70.4069C53.0993 70.5798 52.8563 70.7013 52.5952 70.7612V71.0128C52.7008 71.0153 52.8057 70.996 52.9035 70.9561Z" fill="#73472E"/>
<path d="M52.8159 71.1566L52.5696 71.2078L52.7319 71.9884L52.9783 71.9372L52.8159 71.1566Z" fill="#73472E"/>
<path d="M53.1724 72.423L52.9174 72.4289L52.9415 73.4775L53.1966 73.4716L53.1724 72.423Z" fill="#73472E"/>
<path d="M53.0765 73.96L52.8223 73.9809L52.8931 74.8426L53.1474 74.8217L53.0765 73.96Z" fill="#73472E"/>
<path d="M52.9323 75.2777L52.6842 75.3373L52.835 75.9644L53.0831 75.9047L52.9323 75.2777Z" fill="#73472E"/>
<path d="M92.414 27.4308C92.414 27.4308 99.5755 28.3946 103.264 31.0665C106.953 33.7383 106 34.8439 106 34.8439C106 34.8439 106.021 36.8212 104.547 48.001C102.251 65.4105 111.829 75.3324 114.139 78.6704C116.45 82.0084 86.3581 84.5633 81.9818 78.7271C81.9818 78.7271 78.9344 65.7471 76.865 59.4715C73.9345 50.5878 70.359 44.9997 75.9472 34.7411C76.8189 33.1323 78.5729 29.5923 81.5424 28.3627C81.5424 28.3627 81.4787 31.0487 84.8627 30.8893C88.2468 30.7298 92.414 27.4308 92.414 27.4308Z" fill="#F0E7C3"/>
<path d="M77.2689 6.26875C77.2689 6.26875 73.456 18.7633 80.9648 23.4691C89.448 28.7844 91.0816 17.3494 91.5742 14.8902C92.0667 12.431 93.5409 3.19651 87.0704 2.08738C80.5999 0.978251 80.2597 2.32834 77.2689 6.26875Z" fill="#945A3B"/>
<path d="M81.5388 21.8781C81.5388 21.8781 81.9357 26.4386 81.2943 28.8978C80.7274 31.0806 78.0591 34.4045 81.1774 36.6936C83.952 38.7347 91.2801 37.296 93.2255 29.6597C93.2255 29.6597 93.7924 27.5584 91.8081 27.2607C90.3906 27.0445 88.1476 23.4691 89.5508 16.7718C90.9541 10.0745 81.5388 21.8781 81.5388 21.8781Z" fill="#945A3B"/>
<path d="M82.8394 23.6144C86.6487 23.749 88.222 21.9206 88.2893 21.8426L88.0661 21.6584L88.176 21.7505L88.0661 21.6584C88.0661 21.6761 86.5069 23.4549 82.85 23.3274L82.8394 23.6144Z" fill="#73472E"/>
<path d="M89.9336 71.6861C89.9336 71.6861 87.1838 72.4125 86.1136 71.4097C85.0435 70.4069 83.6332 69.7796 82.7615 70.2297C82.7615 70.2297 80.6353 70.7045 80.5715 72.1928C80.5077 73.6811 78.0308 74.2516 78.091 75.3182C78.1513 76.3848 80.8302 80.6335 81.6984 80.5945C82.5666 80.5556 88.6579 76.9341 90.9399 76.2856C92.7188 75.8072 89.9336 71.6861 89.9336 71.6861Z" fill="#945A3B"/>
<path d="M104.593 32.576C104.593 32.576 114.288 51.9946 116 60.1129C116 60.1129 116.159 62.9052 107.042 68.5465C101.484 71.9652 95.5646 74.7568 89.3914 76.8703C89.3914 76.8703 87.6197 72.8554 88.1087 72.4727C88.5977 72.09 106.11 59.9286 106.595 58.7699C107.081 57.6111 95.908 43.9862 95.8655 41.977C95.823 39.9678 100.295 28.7915 104.593 32.576Z" fill="#945A3B"/>
<path d="M109.533 41.9522L100.344 49.8437C100.344 49.8437 88.9023 38.88 98.927 33.0792C98.927 33.0792 100.812 28.0438 104.214 31.6299C105.642 33.1217 108.041 37.0019 109.533 41.9522Z" fill="#F0E7C3"/>
<path d="M76.5743 9.58551C76.5743 9.58551 81.5353 9.00792 87.3255 11.616C87.3255 11.616 89.4799 13.3558 91.156 16.9773C91.156 16.9773 97.1092 2.34606 86.9038 1.12708C76.6984 -0.0919013 76.5743 9.58551 76.5743 9.58551Z" fill="#28303B"/>
<path d="M87.4247 11.2651C87.7294 10.2021 89.2886 8.56142 90.8123 10.4041C92.336 12.2467 88.8279 16.7045 87.8251 15.2445C86.8223 13.7846 86.957 12.8952 87.4247 11.2651Z" fill="#945A3B"/>
<path d="M98.1722 47.6183L98.4167 47.4128C98.3707 47.3561 93.8101 41.8211 95.8264 37.5866L95.5358 37.4484C93.4274 41.8672 97.9773 47.3845 98.1722 47.6183Z" fill="#C6BFA1"/>
<path d="M97.6408 46.8919L97.9208 46.7395C97.896 46.697 95.5891 42.4483 96.8045 39.9714L96.5175 39.8296C95.2276 42.4554 97.5416 46.7147 97.6408 46.8919Z" fill="#C6BFA1"/>
<path d="M98.7888 66.4558L99.0049 66.2184C93.7605 61.4488 79.8698 59.5707 79.7104 59.553L79.6678 59.8684C79.8096 59.8861 93.6188 61.7535 98.7888 66.4558Z" fill="#C6BFA1"/>
<path d="M96.2942 64.7053L96.3899 64.4041C95.9753 64.2694 86.1668 61.1511 82.4177 62.0299L82.4886 62.3418C86.1561 61.4842 96.1914 64.6734 96.2942 64.7053Z" fill="#C6BFA1"/>
<path d="M109.994 45.528L101.81 50.2533C101.352 50.5175 101.196 51.1026 101.46 51.5603L103.062 54.3345C103.326 54.7921 103.911 54.9489 104.368 54.6847L112.553 49.9593C113.011 49.6951 113.167 49.11 112.903 48.6524L111.301 45.8782C111.037 45.4206 110.452 45.2638 109.994 45.528Z" fill="#352B2B"/>
<path d="M107.111 46.1319L104.181 47.8239C103.723 48.0881 103.566 48.6733 103.83 49.1309L106.488 53.7341C106.752 54.1917 107.337 54.3485 107.795 54.0843L110.726 52.3923C111.183 52.1281 111.34 51.5429 111.076 51.0853L108.418 46.4821C108.154 46.0245 107.569 45.8677 107.111 46.1319Z" fill="#352B2B"/>
<path d="M107.179 47.5864L105.617 48.4882C105.159 48.7524 105.002 49.3375 105.266 49.7951L106.845 52.5294C107.109 52.987 107.694 53.1438 108.152 52.8796L109.714 51.9778C110.172 51.7136 110.328 51.1284 110.064 50.6708L108.486 47.9365C108.221 47.4789 107.636 47.3221 107.179 47.5864Z" fill="white"/>
</g>
<g filter="url(#filter0_b_206:36788)">
<rect x="13" y="77" width="141" height="77" rx="10" fill="black" fill-opacity="0.8"/>
</g>
<path d="M40.158 110.872C40.9233 110.872 41.684 111.026 42.44 111.334L42.132 112.972L41.852 113.084C41.5346 112.86 41.2033 112.683 40.858 112.552C40.522 112.421 40.214 112.356 39.934 112.356C39.5606 112.356 39.262 112.459 39.038 112.664C38.814 112.86 38.702 113.089 38.702 113.35C38.702 113.621 38.8233 113.849 39.066 114.036C39.318 114.223 39.71 114.442 40.242 114.694C40.7553 114.927 41.1706 115.147 41.488 115.352C41.8146 115.548 42.09 115.809 42.314 116.136C42.5473 116.463 42.664 116.864 42.664 117.34C42.664 117.853 42.524 118.325 42.244 118.754C41.964 119.174 41.5673 119.51 41.054 119.762C40.5406 120.005 39.948 120.126 39.276 120.126C38.3893 120.126 37.498 119.935 36.602 119.552L36.868 117.788L37.078 117.676C37.4513 118.003 37.8573 118.255 38.296 118.432C38.744 118.6 39.1406 118.684 39.486 118.684C39.8966 118.684 40.214 118.586 40.438 118.39C40.6713 118.185 40.788 117.942 40.788 117.662C40.788 117.363 40.662 117.121 40.41 116.934C40.1673 116.747 39.7706 116.523 39.22 116.262C38.716 116.038 38.3053 115.828 37.988 115.632C37.6706 115.436 37.4 115.175 37.176 114.848C36.952 114.521 36.84 114.125 36.84 113.658C36.84 113.135 36.98 112.664 37.26 112.244C37.54 111.815 37.932 111.479 38.436 111.236C38.94 110.993 39.514 110.872 40.158 110.872ZM48.8159 116.976L45.0359 117.004C45.1199 118.171 45.7125 118.754 46.8139 118.754C47.3925 118.754 48.0365 118.591 48.7459 118.264L48.8999 118.362L48.6199 119.748C47.9105 120.009 47.2432 120.14 46.6179 120.14C45.5912 120.14 44.7839 119.841 44.1959 119.244C43.6172 118.647 43.3279 117.821 43.3279 116.766C43.3279 115.721 43.6125 114.895 44.1819 114.288C44.7512 113.672 45.5212 113.364 46.4919 113.364C47.3225 113.364 47.9619 113.593 48.4099 114.05C48.8672 114.498 49.0959 115.128 49.0959 115.94C49.0959 116.155 49.0725 116.425 49.0259 116.752L48.8159 116.976ZM47.4719 115.73C47.4719 115.357 47.3879 115.077 47.2199 114.89C47.0519 114.694 46.8045 114.596 46.4779 114.596C46.1139 114.596 45.8105 114.717 45.5679 114.96C45.3252 115.193 45.1619 115.534 45.0779 115.982L47.4439 115.926L47.4719 115.73ZM54.3834 115.94C54.3927 115.613 54.3181 115.361 54.1594 115.184C54.0101 114.997 53.7907 114.904 53.5014 114.904C53.0814 114.904 52.6334 115.105 52.1574 115.506V117.13L52.2414 120H50.3794L50.4774 117.312L50.4074 113.616L52.1714 113.462V114.414H52.2694C52.7827 113.947 53.3427 113.611 53.9494 113.406C54.6587 113.406 55.2001 113.569 55.5734 113.896C55.9467 114.213 56.1241 114.675 56.1054 115.282L56.0634 117.144L56.1474 120H54.2714L54.3834 115.94ZM59.9735 113.378C60.6082 113.378 61.2055 113.485 61.7655 113.7L61.5135 115.072L61.2895 115.142C61.0189 114.965 60.7482 114.829 60.4775 114.736C60.2069 114.643 59.9689 114.596 59.7635 114.596C59.5395 114.596 59.3622 114.657 59.2315 114.778C59.1009 114.89 59.0355 115.03 59.0355 115.198C59.0355 115.394 59.1195 115.553 59.2875 115.674C59.4649 115.795 59.7402 115.931 60.1135 116.08C60.4869 116.229 60.7949 116.374 61.0375 116.514C61.2802 116.654 61.4855 116.85 61.6535 117.102C61.8309 117.345 61.9195 117.648 61.9195 118.012C61.9195 118.385 61.8215 118.735 61.6255 119.062C61.4389 119.379 61.1495 119.641 60.7575 119.846C60.3655 120.042 59.8849 120.14 59.3155 120.14C58.6435 120.14 57.9482 120 57.2295 119.72L57.4395 118.264L57.6215 118.152C57.9109 118.395 58.2329 118.591 58.5875 118.74C58.9422 118.88 59.2549 118.95 59.5255 118.95C59.7775 118.95 59.9735 118.889 60.1135 118.768C60.2535 118.637 60.3235 118.483 60.3235 118.306C60.3235 118.11 60.2349 117.951 60.0575 117.83C59.8895 117.709 59.6189 117.573 59.2455 117.424C58.8629 117.256 58.5502 117.107 58.3075 116.976C58.0649 116.836 57.8549 116.64 57.6775 116.388C57.5095 116.136 57.4255 115.823 57.4255 115.45C57.4255 114.843 57.6542 114.349 58.1115 113.966C58.5689 113.574 59.1895 113.378 59.9735 113.378ZM65.8646 113.364C66.8166 113.364 67.5446 113.644 68.0486 114.204C68.5526 114.764 68.8046 115.571 68.8046 116.626C68.8046 117.765 68.5339 118.637 67.9926 119.244C67.4513 119.841 66.6719 120.14 65.6546 120.14C64.7026 120.14 63.9746 119.86 63.4706 119.3C62.9666 118.74 62.7146 117.933 62.7146 116.878C62.7146 115.739 62.9853 114.871 63.5266 114.274C64.0679 113.667 64.8473 113.364 65.8646 113.364ZM65.7386 114.624C65.2906 114.624 64.9639 114.773 64.7586 115.072C64.5626 115.371 64.4646 115.851 64.4646 116.514C64.4646 117.373 64.5673 117.984 64.7726 118.348C64.9779 118.712 65.3139 118.894 65.7806 118.894C66.2286 118.894 66.5506 118.749 66.7466 118.46C66.9519 118.161 67.0546 117.676 67.0546 117.004C67.0546 116.155 66.9473 115.548 66.7326 115.184C66.5273 114.811 66.1959 114.624 65.7386 114.624ZM73.5965 113.476C73.6805 113.476 73.7972 113.485 73.9465 113.504V115.226L73.7505 115.296C73.5919 115.231 73.4192 115.198 73.2325 115.198C72.6912 115.198 72.2012 115.548 71.7625 116.248V117.13L71.8605 120H69.9985L70.1105 117.312L70.0265 113.616L71.7905 113.462L71.7765 114.736H71.8885C72.3459 113.896 72.9152 113.476 73.5965 113.476ZM82.4169 117.13L82.4589 118.306C82.4589 118.465 82.4775 118.577 82.5149 118.642C82.5615 118.698 82.6409 118.726 82.7529 118.726C82.8555 118.726 82.9815 118.707 83.1309 118.67L83.2569 118.782L83.1029 119.762C82.7855 119.958 82.4402 120.075 82.0669 120.112C81.7775 120.084 81.5349 119.986 81.3389 119.818C81.1429 119.65 81.0075 119.421 80.9329 119.132H80.8209C80.3635 119.552 79.8969 119.874 79.4209 120.098C78.5062 120.098 77.7969 119.809 77.2929 119.23C76.7889 118.642 76.5369 117.83 76.5369 116.794C76.5369 115.693 76.8262 114.848 77.4049 114.26C77.9835 113.672 78.7862 113.378 79.8129 113.378C80.0835 113.378 80.3822 113.406 80.7089 113.462L80.6809 110.312L82.5289 110.172L82.4169 117.13ZM79.6869 114.638C78.7535 114.638 78.2869 115.231 78.2869 116.416C78.2869 117.153 78.3989 117.709 78.6229 118.082C78.8469 118.455 79.1735 118.642 79.6029 118.642C80.0135 118.642 80.3915 118.451 80.7369 118.068L80.7649 117.298L80.7229 114.89C80.3589 114.722 80.0135 114.638 79.6869 114.638ZM89.394 116.976L85.614 117.004C85.698 118.171 86.2907 118.754 87.392 118.754C87.9707 118.754 88.6147 118.591 89.324 118.264L89.478 118.362L89.198 119.748C88.4887 120.009 87.8213 120.14 87.196 120.14C86.1693 120.14 85.362 119.841 84.774 119.244C84.1953 118.647 83.906 117.821 83.906 116.766C83.906 115.721 84.1907 114.895 84.76 114.288C85.3293 113.672 86.0993 113.364 87.07 113.364C87.9007 113.364 88.54 113.593 88.988 114.05C89.4453 114.498 89.674 115.128 89.674 115.94C89.674 116.155 89.6507 116.425 89.604 116.752L89.394 116.976ZM88.05 115.73C88.05 115.357 87.966 115.077 87.798 114.89C87.63 114.694 87.3827 114.596 87.056 114.596C86.692 114.596 86.3887 114.717 86.146 114.96C85.9033 115.193 85.74 115.534 85.656 115.982L88.022 115.926L88.05 115.73ZM99.3347 114.372C99.0827 114.437 98.7233 114.507 98.2567 114.582L98.2287 114.638C98.3687 114.918 98.4387 115.231 98.4387 115.576C98.4387 116.276 98.182 116.836 97.6687 117.256C97.1647 117.667 96.4787 117.872 95.6107 117.872C95.3493 117.872 95.0787 117.849 94.7987 117.802C94.7147 117.886 94.6587 117.951 94.6307 117.998C94.6027 118.045 94.5887 118.101 94.5887 118.166C94.5887 118.334 94.7007 118.451 94.9247 118.516C95.1487 118.581 95.5033 118.647 95.9887 118.712C96.5393 118.777 96.9967 118.857 97.3607 118.95C97.734 119.043 98.0513 119.207 98.3127 119.44C98.5833 119.673 98.7187 120.005 98.7187 120.434C98.7187 120.873 98.5787 121.265 98.2987 121.61C98.028 121.965 97.65 122.24 97.1647 122.436C96.6793 122.632 96.1287 122.73 95.5127 122.73C94.6633 122.73 94.01 122.557 93.5527 122.212C93.0953 121.867 92.8667 121.409 92.8667 120.84C93.156 120.439 93.5433 120.089 94.0287 119.79V119.72C93.7113 119.608 93.464 119.454 93.2867 119.258C93.1093 119.053 93.0207 118.782 93.0207 118.446C93.2727 118.138 93.59 117.853 93.9727 117.592V117.522C93.6367 117.335 93.38 117.093 93.2027 116.794C93.0347 116.486 92.9507 116.127 92.9507 115.716C92.9507 114.988 93.2027 114.419 93.7067 114.008C94.2107 113.597 94.8967 113.392 95.7647 113.392C96.2687 113.392 96.726 113.476 97.1367 113.644C97.8087 113.523 98.4947 113.336 99.1947 113.084L99.3347 113.21V114.372ZM95.6667 116.752C96.0493 116.752 96.3387 116.654 96.5347 116.458C96.7307 116.262 96.8287 115.977 96.8287 115.604C96.8287 114.895 96.4647 114.54 95.7367 114.54C94.9527 114.54 94.5607 114.899 94.5607 115.618C94.5607 115.991 94.654 116.276 94.8407 116.472C95.0273 116.659 95.3027 116.752 95.6667 116.752ZM97.1507 120.77C97.1507 120.518 97.0153 120.345 96.7447 120.252C96.4833 120.159 96.0773 120.079 95.5267 120.014L95.0507 119.944C94.8267 120.093 94.6587 120.238 94.5467 120.378C94.4347 120.518 94.3787 120.667 94.3787 120.826C94.3787 121.069 94.4907 121.265 94.7147 121.414C94.9387 121.563 95.2653 121.638 95.6947 121.638C96.1333 121.638 96.4833 121.559 96.7447 121.4C97.0153 121.251 97.1507 121.041 97.1507 120.77ZM101.897 117.13L101.995 120H100.133L100.231 117.298L100.147 110.312L102.009 110.172L101.897 117.13ZM103.88 117.312L103.81 113.616L105.644 113.462L105.56 117.13L105.644 120H103.782L103.88 117.312ZM104.762 110.298C105.052 110.298 105.276 110.382 105.434 110.55C105.602 110.718 105.686 110.951 105.686 111.25C105.686 111.567 105.598 111.819 105.42 112.006C105.243 112.193 105 112.286 104.692 112.286C104.384 112.286 104.146 112.202 103.978 112.034C103.82 111.866 103.74 111.628 103.74 111.32C103.74 111.012 103.829 110.765 104.006 110.578C104.193 110.391 104.445 110.298 104.762 110.298ZM110.079 113.364C110.387 113.364 110.69 113.397 110.989 113.462C111.297 113.518 111.567 113.602 111.801 113.714L111.493 115.198L111.339 115.268C110.863 115.007 110.438 114.876 110.065 114.876C109.635 114.876 109.304 115.03 109.071 115.338C108.837 115.646 108.721 116.085 108.721 116.654C108.721 117.307 108.847 117.807 109.099 118.152C109.351 118.497 109.71 118.67 110.177 118.67C110.597 118.67 111.063 118.553 111.577 118.32L111.717 118.432L111.535 119.874C110.975 120.051 110.401 120.14 109.813 120.14C108.917 120.14 108.217 119.851 107.713 119.272C107.209 118.684 106.957 117.867 106.957 116.822C106.957 115.739 107.232 114.895 107.783 114.288C108.333 113.672 109.099 113.364 110.079 113.364ZM115.494 113.364C116.446 113.364 117.174 113.644 117.678 114.204C118.182 114.764 118.434 115.571 118.434 116.626C118.434 117.765 118.163 118.637 117.622 119.244C117.08 119.841 116.301 120.14 115.284 120.14C114.332 120.14 113.604 119.86 113.1 119.3C112.596 118.74 112.344 117.933 112.344 116.878C112.344 115.739 112.614 114.871 113.156 114.274C113.697 113.667 114.476 113.364 115.494 113.364ZM115.368 114.624C114.92 114.624 114.593 114.773 114.388 115.072C114.192 115.371 114.094 115.851 114.094 116.514C114.094 117.373 114.196 117.984 114.402 118.348C114.607 118.712 114.943 118.894 115.41 118.894C115.858 118.894 116.18 118.749 116.376 118.46C116.581 118.161 116.684 117.676 116.684 117.004C116.684 116.155 116.576 115.548 116.362 115.184C116.156 114.811 115.825 114.624 115.368 114.624ZM121.893 113.378C122.528 113.378 123.125 113.485 123.685 113.7L123.433 115.072L123.209 115.142C122.939 114.965 122.668 114.829 122.397 114.736C122.127 114.643 121.889 114.596 121.683 114.596C121.459 114.596 121.282 114.657 121.151 114.778C121.021 114.89 120.955 115.03 120.955 115.198C120.955 115.394 121.039 115.553 121.207 115.674C121.385 115.795 121.66 115.931 122.033 116.08C122.407 116.229 122.715 116.374 122.957 116.514C123.2 116.654 123.405 116.85 123.573 117.102C123.751 117.345 123.839 117.648 123.839 118.012C123.839 118.385 123.741 118.735 123.545 119.062C123.359 119.379 123.069 119.641 122.677 119.846C122.285 120.042 121.805 120.14 121.235 120.14C120.563 120.14 119.868 120 119.149 119.72L119.359 118.264L119.541 118.152C119.831 118.395 120.153 118.591 120.507 118.74C120.862 118.88 121.175 118.95 121.445 118.95C121.697 118.95 121.893 118.889 122.033 118.768C122.173 118.637 122.243 118.483 122.243 118.306C122.243 118.11 122.155 117.951 121.977 117.83C121.809 117.709 121.539 117.573 121.165 117.424C120.783 117.256 120.47 117.107 120.227 116.976C119.985 116.836 119.775 116.64 119.597 116.388C119.429 116.136 119.345 115.823 119.345 115.45C119.345 114.843 119.574 114.349 120.031 113.966C120.489 113.574 121.109 113.378 121.893 113.378ZM130.123 116.976L126.343 117.004C126.427 118.171 127.019 118.754 128.121 118.754C128.699 118.754 129.343 118.591 130.053 118.264L130.207 118.362L129.927 119.748C129.217 120.009 128.55 120.14 127.925 120.14C126.898 120.14 126.091 119.841 125.503 119.244C124.924 118.647 124.635 117.821 124.635 116.766C124.635 115.721 124.919 114.895 125.489 114.288C126.058 113.672 126.828 113.364 127.799 113.364C128.629 113.364 129.269 113.593 129.717 114.05C130.174 114.498 130.403 115.128 130.403 115.94C130.403 116.155 130.379 116.425 130.333 116.752L130.123 116.976ZM128.779 115.73C128.779 115.357 128.695 115.077 128.527 114.89C128.359 114.694 128.111 114.596 127.785 114.596C127.421 114.596 127.117 114.717 126.875 114.96C126.632 115.193 126.469 115.534 126.385 115.982L128.751 115.926L128.779 115.73Z" fill="white"/>
<defs>
<filter id="filter0_b_206:36788" x="3" y="67" width="161" height="97" filterUnits="userSpaceOnUse" color-interpolation-filters="sRGB">
<feFlood flood-opacity="0" result="BackgroundImageFix"/>
<feGaussianBlur in="BackgroundImage" stdDeviation="5"/>
<feComposite in2="SourceAlpha" operator="in" result="effect1_backgroundBlur_206:36788"/>
<feBlend mode="normal" in="SourceGraphic" in2="effect1_backgroundBlur_206:36788" result="shape"/>
</filter>
</defs>
</svg>
