<svg width="167" height="167" viewBox="0 0 167 167" fill="none" xmlns="http://www.w3.org/2000/svg">
<mask id="mask0_206:36877" style="mask-type:alpha" maskUnits="userSpaceOnUse" x="0" y="0" width="167" height="167">
<rect x="1" y="1" width="165" height="165" rx="8" fill="#5988D6" stroke="#EDE6FC" stroke-opacity="0.3"/>
</mask>
<g mask="url(#mask0_206:36877)">
<rect x="1" y="1" width="165" height="165" rx="8" fill="#D9917A" stroke="#EDE6FC" stroke-opacity="0.3"/>
<ellipse cx="88.5016" cy="46.813" rx="18.8574" ry="23.6185" transform="rotate(-35.8065 88.5016 46.813)" fill="#9F908B"/>
<ellipse cx="82.5399" cy="23.4954" rx="8.58517" ry="9.55028" fill="#9F908B"/>
<path d="M115.831 66.1743C115.831 59.987 109.557 23.0312 82.5077 23.0312C55.4586 23.0312 49.1846 59.987 49.1846 66.1743C49.1846 72.3616 44.5713 96.0129 82.5077 96.0129C120.413 96.0129 115.831 72.3746 115.831 66.1743ZM108.142 53.128C107.773 52.1076 107.158 50.6738 106.42 48.9558C106.066 48.0904 105.636 47.1733 105.159 46.2045C104.682 45.2357 104.129 44.254 103.621 43.2077C103.114 42.1614 102.437 41.1151 101.807 40.0688C101.176 39.0226 100.469 37.9504 99.6999 36.93C98.931 35.9095 98.1621 34.9149 97.3779 33.9203C96.5936 32.9257 95.7171 32.0344 94.779 31.2465C93.9211 30.4519 93.0071 29.7013 92.0418 28.9989C91.593 28.6732 91.1205 28.3712 90.6271 28.0947C90.1939 27.8063 89.7307 27.5513 89.2431 27.3326C88.4061 26.9212 87.5259 26.5753 86.6136 26.2992C85.9233 26.0493 85.2008 25.8672 84.4607 25.7567L82.477 25.4725H84.4761C85.2566 25.5095 86.0301 25.6178 86.7827 25.7955C87.7794 25.9728 88.7455 26.2549 89.6583 26.6351C90.1928 26.8368 90.707 27.0744 91.1961 27.3455C91.7343 27.5956 92.2485 27.8806 92.7338 28.198C93.8384 28.8525 94.868 29.592 95.8093 30.4069C96.8238 31.2568 97.7691 32.163 98.6388 33.1195C99.4692 34.127 100.376 35.1216 101.099 36.2066C101.822 37.2917 102.56 38.3638 103.221 39.4488C103.883 40.5339 104.405 41.6447 104.944 42.7169C105.876 44.6728 106.667 46.6743 107.312 48.7104C107.601 49.5127 107.837 50.3277 108.019 51.1517C108.204 51.888 108.373 52.5209 108.465 53.0506C108.665 54.1098 108.773 54.7169 108.773 54.7169C108.773 54.7169 108.573 54.1485 108.188 53.128H108.142Z" fill="#634840"/>
<path d="M82.5076 12C80.1856 12 80.1088 12.9688 79.2937 13.2917C78.4787 13.6146 77.0486 12.9559 75.4032 12.1421C73.7578 11.3283 70.344 14.5576 70.344 14.5576L73.6809 23.0312C76.4974 22.1227 79.4907 21.6628 82.5076 21.6749V12Z" fill="#634840"/>
<path d="M82.5076 23.69V23.0312C80.5337 23.033 78.5688 23.2545 76.6642 23.69H82.5076Z" fill="#634840"/>
<path d="M94.6559 14.5454C94.6559 14.5454 91.2421 11.3291 89.6121 12.1299C87.9821 12.9308 86.6596 13.6412 85.7216 13.2796C84.7836 12.9179 84.8297 11.9879 82.5077 11.9879V21.6498C85.5245 21.6389 88.5176 22.0988 91.3344 23.0062L94.6559 14.5454Z" fill="#634840"/>
<path d="M88.3512 23.69C86.4466 23.2545 84.4816 23.033 82.5077 23.0312V23.69H88.3512Z" fill="#634840"/>
<path d="M38.8087 92.4824L98.7384 92.4824V57.7047L38.8087 57.7047L38.8087 92.4824Z" fill="#ED823A"/>
<path d="M68.8077 92.2419L128.737 92.2419V57.4642L68.8077 57.4642V92.2419Z" fill="#FF9E55"/>
<path d="M68.8077 88.8689H78.3047L77.4684 85.3888L78.3047 82.9017H68.8077V88.8689Z" fill="#FFB27D"/>
<path d="M68.8078 82.9017H59.3108L60.1486 86.3818L59.3108 88.8689H68.8078V82.9017Z" fill="#DD732C"/>
<path d="M128.739 74.8461H119.242L120.078 78.0826L119.242 80.3959H128.739V74.8461Z" fill="#FFB27D"/>
<path d="M38.8428 57.4633L33.5536 66.0526H62.8296L68.8077 57.4633H38.8428Z" fill="#FF9E55"/>
<path d="M128.851 57.7016L128.737 57.4627H68.8077C68.0521 56.9817 73.8254 66.1901 73.8254 66.1901H132.927L128.851 57.7016Z" fill="#FFB27D"/>
</g>
<g filter="url(#filter0_b_206:36877)">
<rect x="13" y="77" width="141" height="77" rx="10" fill="black" fill-opacity="0.8"/>
</g>
<path d="M29.6614 94.928C30.968 94.928 31.9714 95.292 32.6714 96.02C33.3714 96.748 33.7214 97.7933 33.7214 99.156C33.7214 100.752 33.3294 101.975 32.5454 102.824C31.7614 103.673 30.6414 104.098 29.1854 104.098C28.7467 104.098 28.2194 104.089 27.6034 104.07C26.9967 104.051 26.474 104.028 26.0354 104L26.1334 101.312L26.0354 94.984L29.6614 94.928ZM29.5214 102.628C31.0054 102.628 31.7474 101.615 31.7474 99.59C31.7474 98.4887 31.5654 97.6907 31.2014 97.196C30.8467 96.692 30.2867 96.44 29.5214 96.44C29.0267 96.44 28.4994 96.4633 27.9394 96.51L27.8554 101.144L27.8974 102.53C28.5507 102.595 29.092 102.628 29.5214 102.628ZM39.9565 100.976L36.1765 101.004C36.2605 102.171 36.8532 102.754 37.9545 102.754C38.5332 102.754 39.1772 102.591 39.8865 102.264L40.0405 102.362L39.7605 103.748C39.0512 104.009 38.3838 104.14 37.7585 104.14C36.7318 104.14 35.9245 103.841 35.3365 103.244C34.7578 102.647 34.4685 101.821 34.4685 100.766C34.4685 99.7207 34.7532 98.8947 35.3225 98.288C35.8918 97.672 36.6618 97.364 37.6325 97.364C38.4632 97.364 39.1025 97.5927 39.5505 98.05C40.0078 98.498 40.2365 99.128 40.2365 99.94C40.2365 100.155 40.2132 100.425 40.1665 100.752L39.9565 100.976ZM38.6125 99.73C38.6125 99.3567 38.5285 99.0767 38.3605 98.89C38.1925 98.694 37.9452 98.596 37.6185 98.596C37.2545 98.596 36.9512 98.7173 36.7085 98.96C36.4658 99.1933 36.3025 99.534 36.2185 99.982L38.5845 99.926L38.6125 99.73ZM43.704 97.378C44.3387 97.378 44.936 97.4853 45.496 97.7L45.244 99.072L45.02 99.142C44.7493 98.9647 44.4787 98.8293 44.208 98.736C43.9373 98.6427 43.6993 98.596 43.494 98.596C43.27 98.596 43.0927 98.6567 42.962 98.778C42.8313 98.89 42.766 99.03 42.766 99.198C42.766 99.394 42.85 99.5527 43.018 99.674C43.1953 99.7953 43.4707 99.9307 43.844 100.08C44.2173 100.229 44.5253 100.374 44.768 100.514C45.0107 100.654 45.216 100.85 45.384 101.102C45.5613 101.345 45.65 101.648 45.65 102.012C45.65 102.385 45.552 102.735 45.356 103.062C45.1693 103.379 44.88 103.641 44.488 103.846C44.096 104.042 43.6153 104.14 43.046 104.14C42.374 104.14 41.6787 104 40.96 103.72L41.17 102.264L41.352 102.152C41.6413 102.395 41.9633 102.591 42.318 102.74C42.6727 102.88 42.9853 102.95 43.256 102.95C43.508 102.95 43.704 102.889 43.844 102.768C43.984 102.637 44.054 102.483 44.054 102.306C44.054 102.11 43.9653 101.951 43.788 101.83C43.62 101.709 43.3493 101.573 42.976 101.424C42.5933 101.256 42.2807 101.107 42.038 100.976C41.7953 100.836 41.5853 100.64 41.408 100.388C41.24 100.136 41.156 99.8233 41.156 99.45C41.156 98.8433 41.3847 98.3487 41.842 97.966C42.2993 97.574 42.92 97.378 43.704 97.378ZM49.5671 97.364C49.8751 97.364 50.1784 97.3967 50.4771 97.462C50.7851 97.518 51.0557 97.602 51.2891 97.714L50.9811 99.198L50.8271 99.268C50.3511 99.0067 49.9264 98.876 49.5531 98.876C49.1237 98.876 48.7924 99.03 48.5591 99.338C48.3257 99.646 48.2091 100.085 48.2091 100.654C48.2091 101.307 48.3351 101.807 48.5871 102.152C48.8391 102.497 49.1984 102.67 49.6651 102.67C50.0851 102.67 50.5517 102.553 51.0651 102.32L51.2051 102.432L51.0231 103.874C50.4631 104.051 49.8891 104.14 49.3011 104.14C48.4051 104.14 47.7051 103.851 47.2011 103.272C46.6971 102.684 46.4451 101.867 46.4451 100.822C46.4451 99.7393 46.7204 98.8947 47.2711 98.288C47.8217 97.672 48.5871 97.364 49.5671 97.364ZM54.7051 97.364C55.4237 97.364 55.9837 97.5273 56.3851 97.854C56.7957 98.1713 57.0011 98.6193 57.0011 99.198C57.0011 99.366 56.9731 99.898 56.9171 100.794C56.9077 101.055 56.8937 101.326 56.8751 101.606C56.8564 101.877 56.8471 102.11 56.8471 102.306C56.8471 102.465 56.8704 102.577 56.9171 102.642C56.9637 102.698 57.0477 102.726 57.1691 102.726C57.2624 102.726 57.3837 102.707 57.5331 102.67L57.6731 102.782L57.5051 103.762C57.2064 103.958 56.8657 104.075 56.4831 104.112C56.2031 104.084 55.9697 103.986 55.7831 103.818C55.5964 103.641 55.4704 103.398 55.4051 103.09H55.3071C54.8404 103.585 54.3597 103.93 53.8651 104.126C53.1931 104.117 52.6657 103.939 52.2831 103.594C51.9004 103.249 51.7091 102.777 51.7091 102.18C51.7091 101.713 51.8257 101.349 52.0591 101.088C52.3017 100.817 52.6657 100.635 53.1511 100.542L55.2931 100.136V99.562C55.2931 98.9553 54.9944 98.652 54.3971 98.652C54.1077 98.652 53.7997 98.7173 53.4731 98.848C53.1557 98.9787 52.7964 99.184 52.3951 99.464L52.2551 99.38L52.0451 98.148C52.4464 97.896 52.8757 97.7047 53.3331 97.574C53.7904 97.434 54.2477 97.364 54.7051 97.364ZM53.7951 101.396C53.6457 101.433 53.5337 101.499 53.4591 101.592C53.3937 101.676 53.3611 101.807 53.3611 101.984C53.3611 102.227 53.4264 102.418 53.5571 102.558C53.6877 102.689 53.8697 102.754 54.1031 102.754C54.4671 102.754 54.8497 102.539 55.2511 102.11L55.2791 101.074L53.7951 101.396ZM62.3993 97.476C62.4833 97.476 62.5999 97.4853 62.7493 97.504V99.226L62.5533 99.296C62.3946 99.2307 62.2219 99.198 62.0353 99.198C61.4939 99.198 61.0039 99.548 60.5653 100.248V101.13L60.6633 104H58.8013L58.9133 101.312L58.8293 97.616L60.5933 97.462L60.5793 98.736H60.6913C61.1486 97.896 61.7179 97.476 62.3993 97.476ZM66.3551 102.628C66.6538 102.628 66.9665 102.549 67.2931 102.39L67.4471 102.53L67.2651 103.636C66.7891 103.879 66.3038 104.028 65.8091 104.084C64.5491 103.953 63.9191 103.337 63.9191 102.236L63.9891 101.074L63.9751 98.666H63.1071L63.0371 98.568L63.1351 97.546H63.9611V96.468L65.6551 95.922L65.7811 96.034L65.7391 97.546H67.4051L67.4611 97.644L67.3771 98.666H65.7111L65.6271 101.802C65.6271 102.101 65.6831 102.315 65.7951 102.446C65.9071 102.567 66.0938 102.628 66.3551 102.628ZM71.0156 97.364C71.7343 97.364 72.2943 97.5273 72.6956 97.854C73.1063 98.1713 73.3116 98.6193 73.3116 99.198C73.3116 99.366 73.2836 99.898 73.2276 100.794C73.2183 101.055 73.2043 101.326 73.1856 101.606C73.1669 101.877 73.1576 102.11 73.1576 102.306C73.1576 102.465 73.1809 102.577 73.2276 102.642C73.2743 102.698 73.3583 102.726 73.4796 102.726C73.5729 102.726 73.6943 102.707 73.8436 102.67L73.9836 102.782L73.8156 103.762C73.5169 103.958 73.1763 104.075 72.7936 104.112C72.5136 104.084 72.2803 103.986 72.0936 103.818C71.9069 103.641 71.7809 103.398 71.7156 103.09H71.6176C71.1509 103.585 70.6703 103.93 70.1756 104.126C69.5036 104.117 68.9763 103.939 68.5936 103.594C68.2109 103.249 68.0196 102.777 68.0196 102.18C68.0196 101.713 68.1363 101.349 68.3696 101.088C68.6123 100.817 68.9763 100.635 69.4616 100.542L71.6036 100.136V99.562C71.6036 98.9553 71.3049 98.652 70.7076 98.652C70.4183 98.652 70.1103 98.7173 69.7836 98.848C69.4663 98.9787 69.1069 99.184 68.7056 99.464L68.5656 99.38L68.3556 98.148C68.7569 97.896 69.1863 97.7047 69.6436 97.574C70.1009 97.434 70.5583 97.364 71.0156 97.364ZM70.1056 101.396C69.9563 101.433 69.8443 101.499 69.7696 101.592C69.7043 101.676 69.6716 101.807 69.6716 101.984C69.6716 102.227 69.7369 102.418 69.8676 102.558C69.9983 102.689 70.1803 102.754 70.4136 102.754C70.7776 102.754 71.1603 102.539 71.5616 102.11L71.5896 101.074L70.1056 101.396ZM78.7098 97.476C78.7938 97.476 78.9105 97.4853 79.0598 97.504V99.226L78.8638 99.296C78.7051 99.2307 78.5325 99.198 78.3458 99.198C77.8045 99.198 77.3145 99.548 76.8758 100.248V101.13L76.9738 104H75.1118L75.2238 101.312L75.1398 97.616L76.9038 97.462L76.8898 98.736H77.0018C77.4591 97.896 78.0285 97.476 78.7098 97.476ZM84.6601 97.364C85.3788 97.364 85.9388 97.5273 86.3401 97.854C86.7508 98.1713 86.9561 98.6193 86.9561 99.198C86.9561 99.366 86.9281 99.898 86.8721 100.794C86.8628 101.055 86.8488 101.326 86.8301 101.606C86.8115 101.877 86.8021 102.11 86.8021 102.306C86.8021 102.465 86.8255 102.577 86.8721 102.642C86.9188 102.698 87.0028 102.726 87.1241 102.726C87.2175 102.726 87.3388 102.707 87.4881 102.67L87.6281 102.782L87.4601 103.762C87.1615 103.958 86.8208 104.075 86.4381 104.112C86.1581 104.084 85.9248 103.986 85.7381 103.818C85.5515 103.641 85.4255 103.398 85.3601 103.09H85.2621C84.7955 103.585 84.3148 103.93 83.8201 104.126C83.1481 104.117 82.6208 103.939 82.2381 103.594C81.8555 103.249 81.6641 102.777 81.6641 102.18C81.6641 101.713 81.7808 101.349 82.0141 101.088C82.2568 100.817 82.6208 100.635 83.1061 100.542L85.2481 100.136V99.562C85.2481 98.9553 84.9495 98.652 84.3521 98.652C84.0628 98.652 83.7548 98.7173 83.4281 98.848C83.1108 98.9787 82.7515 99.184 82.3501 99.464L82.2101 99.38L82.0001 98.148C82.4015 97.896 82.8308 97.7047 83.2881 97.574C83.7455 97.434 84.2028 97.364 84.6601 97.364ZM83.7501 101.396C83.6008 101.433 83.4888 101.499 83.4141 101.592C83.3488 101.676 83.3161 101.807 83.3161 101.984C83.3161 102.227 83.3815 102.418 83.5121 102.558C83.6428 102.689 83.8248 102.754 84.0581 102.754C84.4221 102.754 84.8048 102.539 85.2061 102.11L85.2341 101.074L83.7501 101.396ZM91.0224 97.378C91.657 97.378 92.2544 97.4853 92.8144 97.7L92.5624 99.072L92.3384 99.142C92.0677 98.9647 91.797 98.8293 91.5264 98.736C91.2557 98.6427 91.0177 98.596 90.8124 98.596C90.5884 98.596 90.411 98.6567 90.2804 98.778C90.1497 98.89 90.0844 99.03 90.0844 99.198C90.0844 99.394 90.1684 99.5527 90.3364 99.674C90.5137 99.7953 90.789 99.9307 91.1624 100.08C91.5357 100.229 91.8437 100.374 92.0864 100.514C92.329 100.654 92.5344 100.85 92.7024 101.102C92.8797 101.345 92.9684 101.648 92.9684 102.012C92.9684 102.385 92.8704 102.735 92.6744 103.062C92.4877 103.379 92.1984 103.641 91.8064 103.846C91.4144 104.042 90.9337 104.14 90.3644 104.14C89.6924 104.14 88.997 104 88.2784 103.72L88.4884 102.264L88.6704 102.152C88.9597 102.395 89.2817 102.591 89.6364 102.74C89.991 102.88 90.3037 102.95 90.5744 102.95C90.8264 102.95 91.0224 102.889 91.1624 102.768C91.3024 102.637 91.3724 102.483 91.3724 102.306C91.3724 102.11 91.2837 101.951 91.1064 101.83C90.9384 101.709 90.6677 101.573 90.2944 101.424C89.9117 101.256 89.599 101.107 89.3564 100.976C89.1137 100.836 88.9037 100.64 88.7264 100.388C88.5584 100.136 88.4744 99.8233 88.4744 99.45C88.4744 98.8433 88.703 98.3487 89.1604 97.966C89.6177 97.574 90.2384 97.378 91.0224 97.378ZM98.1506 101.13L98.2486 104H96.3866L96.4846 101.298L96.4006 94.312L98.2626 94.172L98.1506 101.13ZM102.57 97.364C103.289 97.364 103.849 97.5273 104.25 97.854C104.661 98.1713 104.866 98.6193 104.866 99.198C104.866 99.366 104.838 99.898 104.782 100.794C104.773 101.055 104.759 101.326 104.74 101.606C104.722 101.877 104.712 102.11 104.712 102.306C104.712 102.465 104.736 102.577 104.782 102.642C104.829 102.698 104.913 102.726 105.034 102.726C105.128 102.726 105.249 102.707 105.398 102.67L105.538 102.782L105.37 103.762C105.072 103.958 104.731 104.075 104.348 104.112C104.068 104.084 103.835 103.986 103.648 103.818C103.462 103.641 103.336 103.398 103.27 103.09H103.172C102.706 103.585 102.225 103.93 101.73 104.126C101.058 104.117 100.531 103.939 100.148 103.594C99.7656 103.249 99.5743 102.777 99.5743 102.18C99.5743 101.713 99.691 101.349 99.9243 101.088C100.167 100.817 100.531 100.635 101.016 100.542L103.158 100.136V99.562C103.158 98.9553 102.86 98.652 102.262 98.652C101.973 98.652 101.665 98.7173 101.338 98.848C101.021 98.9787 100.662 99.184 100.26 99.464L100.12 99.38L99.9103 98.148C100.312 97.896 100.741 97.7047 101.198 97.574C101.656 97.434 102.113 97.364 102.57 97.364ZM101.66 101.396C101.511 101.433 101.399 101.499 101.324 101.592C101.259 101.676 101.226 101.807 101.226 101.984C101.226 102.227 101.292 102.418 101.422 102.558C101.553 102.689 101.735 102.754 101.968 102.754C102.332 102.754 102.715 102.539 103.116 102.11L103.144 101.074L101.66 101.396ZM110.671 99.94C110.68 99.6133 110.605 99.3613 110.447 99.184C110.297 98.9973 110.078 98.904 109.789 98.904C109.369 98.904 108.921 99.1047 108.445 99.506V101.13L108.529 104H106.667L106.765 101.312L106.695 97.616L108.459 97.462V98.414H108.557C109.07 97.9473 109.63 97.6113 110.237 97.406C110.946 97.406 111.487 97.5693 111.861 97.896C112.234 98.2133 112.411 98.6753 112.393 99.282L112.351 101.144L112.435 104H110.559L110.671 99.94ZM116.751 97.364C117.059 97.364 117.362 97.3967 117.661 97.462C117.969 97.518 118.239 97.602 118.473 97.714L118.165 99.198L118.011 99.268C117.535 99.0067 117.11 98.876 116.737 98.876C116.307 98.876 115.976 99.03 115.743 99.338C115.509 99.646 115.393 100.085 115.393 100.654C115.393 101.307 115.519 101.807 115.771 102.152C116.023 102.497 116.382 102.67 116.849 102.67C117.269 102.67 117.735 102.553 118.249 102.32L118.389 102.432L118.207 103.874C117.647 104.051 117.073 104.14 116.485 104.14C115.589 104.14 114.889 103.851 114.385 103.272C113.881 102.684 113.629 101.867 113.629 100.822C113.629 99.7393 113.904 98.8947 114.455 98.288C115.005 97.672 115.771 97.364 116.751 97.364ZM124.503 100.976L120.723 101.004C120.807 102.171 121.4 102.754 122.501 102.754C123.08 102.754 123.724 102.591 124.433 102.264L124.587 102.362L124.307 103.748C123.598 104.009 122.931 104.14 122.305 104.14C121.279 104.14 120.471 103.841 119.883 103.244C119.305 102.647 119.015 101.821 119.015 100.766C119.015 99.7207 119.3 98.8947 119.869 98.288C120.439 97.672 121.209 97.364 122.179 97.364C123.01 97.364 123.649 97.5927 124.097 98.05C124.555 98.498 124.783 99.128 124.783 99.94C124.783 100.155 124.76 100.425 124.713 100.752L124.503 100.976ZM123.159 99.73C123.159 99.3567 123.075 99.0767 122.907 98.89C122.739 98.694 122.492 98.596 122.165 98.596C121.801 98.596 121.498 98.7173 121.255 98.96C121.013 99.1933 120.849 99.534 120.765 99.982L123.131 99.926L123.159 99.73ZM128.699 102.628C128.998 102.628 129.31 102.549 129.637 102.39L129.791 102.53L129.609 103.636C129.133 103.879 128.648 104.028 128.153 104.084C126.893 103.953 126.263 103.337 126.263 102.236L126.333 101.074L126.319 98.666H125.451L125.381 98.568L125.479 97.546H126.305V96.468L127.999 95.922L128.125 96.034L128.083 97.546H129.749L129.805 97.644L129.721 98.666H128.055L127.971 101.802C127.971 102.101 128.027 102.315 128.139 102.446C128.251 102.567 128.438 102.628 128.699 102.628ZM133.359 97.364C134.078 97.364 134.638 97.5273 135.039 97.854C135.45 98.1713 135.655 98.6193 135.655 99.198C135.655 99.366 135.627 99.898 135.571 100.794C135.562 101.055 135.548 101.326 135.529 101.606C135.511 101.877 135.501 102.11 135.501 102.306C135.501 102.465 135.525 102.577 135.571 102.642C135.618 102.698 135.702 102.726 135.823 102.726C135.917 102.726 136.038 102.707 136.187 102.67L136.327 102.782L136.159 103.762C135.861 103.958 135.52 104.075 135.137 104.112C134.857 104.084 134.624 103.986 134.437 103.818C134.251 103.641 134.125 103.398 134.059 103.09H133.961C133.495 103.585 133.014 103.93 132.519 104.126C131.847 104.117 131.32 103.939 130.937 103.594C130.555 103.249 130.363 102.777 130.363 102.18C130.363 101.713 130.48 101.349 130.713 101.088C130.956 100.817 131.32 100.635 131.805 100.542L133.947 100.136V99.562C133.947 98.9553 133.649 98.652 133.051 98.652C132.762 98.652 132.454 98.7173 132.127 98.848C131.81 98.9787 131.451 99.184 131.049 99.464L130.909 99.38L130.699 98.148C131.101 97.896 131.53 97.7047 131.987 97.574C132.445 97.434 132.902 97.364 133.359 97.364ZM132.449 101.396C132.3 101.433 132.188 101.499 132.113 101.592C132.048 101.676 132.015 101.807 132.015 101.984C132.015 102.227 132.081 102.418 132.211 102.558C132.342 102.689 132.524 102.754 132.757 102.754C133.121 102.754 133.504 102.539 133.905 102.11L133.933 101.074L132.449 101.396ZM139.722 97.378C140.356 97.378 140.954 97.4853 141.514 97.7L141.262 99.072L141.038 99.142C140.767 98.9647 140.496 98.8293 140.226 98.736C139.955 98.6427 139.717 98.596 139.512 98.596C139.288 98.596 139.11 98.6567 138.98 98.778C138.849 98.89 138.784 99.03 138.784 99.198C138.784 99.394 138.868 99.5527 139.036 99.674C139.213 99.7953 139.488 99.9307 139.862 100.08C140.235 100.229 140.543 100.374 140.786 100.514C141.028 100.654 141.234 100.85 141.402 101.102C141.579 101.345 141.668 101.648 141.668 102.012C141.668 102.385 141.57 102.735 141.374 103.062C141.187 103.379 140.898 103.641 140.506 103.846C140.114 104.042 139.633 104.14 139.064 104.14C138.392 104.14 137.696 104 136.978 103.72L137.188 102.264L137.37 102.152C137.659 102.395 137.981 102.591 138.336 102.74C138.69 102.88 139.003 102.95 139.274 102.95C139.526 102.95 139.722 102.889 139.862 102.768C140.002 102.637 140.072 102.483 140.072 102.306C140.072 102.11 139.983 101.951 139.806 101.83C139.638 101.709 139.367 101.573 138.994 101.424C138.611 101.256 138.298 101.107 138.056 100.976C137.813 100.836 137.603 100.64 137.426 100.388C137.258 100.136 137.174 99.8233 137.174 99.45C137.174 98.8433 137.402 98.3487 137.86 97.966C138.317 97.574 138.938 97.378 139.722 97.378ZM27.2485 116.976L23.4685 117.004C23.5525 118.171 24.1452 118.754 25.2465 118.754C25.8252 118.754 26.4692 118.591 27.1785 118.264L27.3325 118.362L27.0525 119.748C26.3432 120.009 25.6758 120.14 25.0505 120.14C24.0238 120.14 23.2165 119.841 22.6285 119.244C22.0498 118.647 21.7605 117.821 21.7605 116.766C21.7605 115.721 22.0452 114.895 22.6145 114.288C23.1838 113.672 23.9538 113.364 24.9245 113.364C25.7552 113.364 26.3945 113.593 26.8425 114.05C27.2998 114.498 27.5285 115.128 27.5285 115.94C27.5285 116.155 27.5052 116.425 27.4585 116.752L27.2485 116.976ZM25.9045 115.73C25.9045 115.357 25.8205 115.077 25.6525 114.89C25.4845 114.694 25.2372 114.596 24.9105 114.596C24.5465 114.596 24.2432 114.717 24.0005 114.96C23.7578 115.193 23.5945 115.534 23.5105 115.982L25.8765 115.926L25.9045 115.73ZM33.5631 118.628C33.8618 118.628 34.1745 118.549 34.5011 118.39L34.6551 118.53L34.4731 119.636C33.9971 119.879 33.5118 120.028 33.0171 120.084C31.7571 119.953 31.1271 119.337 31.1271 118.236L31.1971 117.074L31.1831 114.666H30.3151L30.2451 114.568L30.3431 113.546H31.1691V112.468L32.8631 111.922L32.9891 112.034L32.9471 113.546H34.6131L34.6691 113.644L34.5851 114.666H32.9191L32.8351 117.802C32.8351 118.101 32.8911 118.315 33.0031 118.446C33.1151 118.567 33.3018 118.628 33.5631 118.628ZM35.7876 117.312L35.7176 113.616L37.5516 113.462L37.4676 117.13L37.5516 120H35.6896L35.7876 117.312ZM36.6696 110.298C36.959 110.298 37.183 110.382 37.3416 110.55C37.5096 110.718 37.5936 110.951 37.5936 111.25C37.5936 111.567 37.505 111.819 37.3276 112.006C37.1503 112.193 36.9076 112.286 36.5996 112.286C36.2916 112.286 36.0536 112.202 35.8856 112.034C35.727 111.866 35.6476 111.628 35.6476 111.32C35.6476 111.012 35.7363 110.765 35.9136 110.578C36.1003 110.391 36.3523 110.298 36.6696 110.298ZM42.91 113.476C42.994 113.476 43.1107 113.485 43.26 113.504V115.226L43.064 115.296C42.9053 115.231 42.7327 115.198 42.546 115.198C42.0047 115.198 41.5147 115.548 41.076 116.248V117.13L41.174 120H39.312L39.424 117.312L39.34 113.616L41.104 113.462L41.09 114.736H41.202C41.6593 113.896 42.2287 113.476 42.91 113.476ZM46.6045 113.364C47.3231 113.364 47.8831 113.527 48.2845 113.854C48.6951 114.171 48.9005 114.619 48.9005 115.198C48.9005 115.366 48.8725 115.898 48.8165 116.794C48.8071 117.055 48.7931 117.326 48.7745 117.606C48.7558 117.877 48.7465 118.11 48.7465 118.306C48.7465 118.465 48.7698 118.577 48.8165 118.642C48.8631 118.698 48.9471 118.726 49.0685 118.726C49.1618 118.726 49.2831 118.707 49.4325 118.67L49.5725 118.782L49.4045 119.762C49.1058 119.958 48.7651 120.075 48.3825 120.112C48.1025 120.084 47.8691 119.986 47.6825 119.818C47.4958 119.641 47.3698 119.398 47.3045 119.09H47.2065C46.7398 119.585 46.2591 119.93 45.7645 120.126C45.0925 120.117 44.5651 119.939 44.1825 119.594C43.7998 119.249 43.6085 118.777 43.6085 118.18C43.6085 117.713 43.7251 117.349 43.9585 117.088C44.2011 116.817 44.5651 116.635 45.0505 116.542L47.1925 116.136V115.562C47.1925 114.955 46.8938 114.652 46.2965 114.652C46.0071 114.652 45.6991 114.717 45.3725 114.848C45.0551 114.979 44.6958 115.184 44.2945 115.464L44.1545 115.38L43.9445 114.148C44.3458 113.896 44.7751 113.705 45.2325 113.574C45.6898 113.434 46.1471 113.364 46.6045 113.364ZM45.6945 117.396C45.5451 117.433 45.4331 117.499 45.3585 117.592C45.2931 117.676 45.2605 117.807 45.2605 117.984C45.2605 118.227 45.3258 118.418 45.4565 118.558C45.5871 118.689 45.7691 118.754 46.0025 118.754C46.3665 118.754 46.7491 118.539 47.1505 118.11L47.1785 117.074L45.6945 117.396ZM52.9667 113.378C53.6014 113.378 54.1987 113.485 54.7587 113.7L54.5067 115.072L54.2827 115.142C54.012 114.965 53.7414 114.829 53.4707 114.736C53.2 114.643 52.962 114.596 52.7567 114.596C52.5327 114.596 52.3554 114.657 52.2247 114.778C52.094 114.89 52.0287 115.03 52.0287 115.198C52.0287 115.394 52.1127 115.553 52.2807 115.674C52.458 115.795 52.7334 115.931 53.1067 116.08C53.48 116.229 53.788 116.374 54.0307 116.514C54.2734 116.654 54.4787 116.85 54.6467 117.102C54.824 117.345 54.9127 117.648 54.9127 118.012C54.9127 118.385 54.8147 118.735 54.6187 119.062C54.432 119.379 54.1427 119.641 53.7507 119.846C53.3587 120.042 52.878 120.14 52.3087 120.14C51.6367 120.14 50.9414 120 50.2227 119.72L50.4327 118.264L50.6147 118.152C50.904 118.395 51.226 118.591 51.5807 118.74C51.9354 118.88 52.248 118.95 52.5187 118.95C52.7707 118.95 52.9667 118.889 53.1067 118.768C53.2467 118.637 53.3167 118.483 53.3167 118.306C53.3167 118.11 53.228 117.951 53.0507 117.83C52.8827 117.709 52.612 117.573 52.2387 117.424C51.856 117.256 51.5434 117.107 51.3007 116.976C51.058 116.836 50.848 116.64 50.6707 116.388C50.5027 116.136 50.4187 115.823 50.4187 115.45C50.4187 114.843 50.6474 114.349 51.1047 113.966C51.562 113.574 52.1827 113.378 52.9667 113.378ZM64.4909 118.782L64.3229 119.762C63.9776 119.986 63.6229 120.103 63.2589 120.112C62.9882 120.065 62.7642 119.958 62.5869 119.79C62.4096 119.622 62.2742 119.379 62.1809 119.062H62.0549C61.5229 119.585 60.9722 119.925 60.4029 120.084C59.6936 120.084 59.1522 119.925 58.7789 119.608C58.4149 119.281 58.2376 118.815 58.2469 118.208L58.2749 116.556L58.2049 113.616L60.0109 113.462L59.9689 117.592C59.9596 117.919 60.0249 118.166 60.1649 118.334C60.3049 118.502 60.5149 118.586 60.7949 118.586C61.2056 118.586 61.6116 118.404 62.0129 118.04V113.616L63.7909 113.462L63.6649 118.306C63.6649 118.455 63.6882 118.563 63.7349 118.628C63.7909 118.693 63.8749 118.726 63.9869 118.726C64.0896 118.726 64.2156 118.707 64.3649 118.67L64.4909 118.782ZM67.7734 113.378C68.408 113.378 69.0054 113.485 69.5654 113.7L69.3134 115.072L69.0894 115.142C68.8187 114.965 68.548 114.829 68.2774 114.736C68.0067 114.643 67.7687 114.596 67.5634 114.596C67.3394 114.596 67.162 114.657 67.0314 114.778C66.9007 114.89 66.8354 115.03 66.8354 115.198C66.8354 115.394 66.9194 115.553 67.0874 115.674C67.2647 115.795 67.54 115.931 67.9134 116.08C68.2867 116.229 68.5947 116.374 68.8374 116.514C69.08 116.654 69.2854 116.85 69.4534 117.102C69.6307 117.345 69.7194 117.648 69.7194 118.012C69.7194 118.385 69.6214 118.735 69.4254 119.062C69.2387 119.379 68.9494 119.641 68.5574 119.846C68.1654 120.042 67.6847 120.14 67.1154 120.14C66.4434 120.14 65.748 120 65.0294 119.72L65.2394 118.264L65.4214 118.152C65.7107 118.395 66.0327 118.591 66.3874 118.74C66.742 118.88 67.0547 118.95 67.3254 118.95C67.5774 118.95 67.7734 118.889 67.9134 118.768C68.0534 118.637 68.1234 118.483 68.1234 118.306C68.1234 118.11 68.0347 117.951 67.8574 117.83C67.6894 117.709 67.4187 117.573 67.0454 117.424C66.6627 117.256 66.35 117.107 66.1074 116.976C65.8647 116.836 65.6547 116.64 65.4774 116.388C65.3094 116.136 65.2254 115.823 65.2254 115.45C65.2254 114.843 65.454 114.349 65.9114 113.966C66.3687 113.574 66.9894 113.378 67.7734 113.378ZM73.5244 113.364C74.2431 113.364 74.8031 113.527 75.2044 113.854C75.6151 114.171 75.8204 114.619 75.8204 115.198C75.8204 115.366 75.7924 115.898 75.7364 116.794C75.7271 117.055 75.7131 117.326 75.6944 117.606C75.6757 117.877 75.6664 118.11 75.6664 118.306C75.6664 118.465 75.6897 118.577 75.7364 118.642C75.7831 118.698 75.8671 118.726 75.9884 118.726C76.0817 118.726 76.2031 118.707 76.3524 118.67L76.4924 118.782L76.3244 119.762C76.0257 119.958 75.6851 120.075 75.3024 120.112C75.0224 120.084 74.7891 119.986 74.6024 119.818C74.4157 119.641 74.2897 119.398 74.2244 119.09H74.1264C73.6597 119.585 73.1791 119.93 72.6844 120.126C72.0124 120.117 71.4851 119.939 71.1024 119.594C70.7197 119.249 70.5284 118.777 70.5284 118.18C70.5284 117.713 70.6451 117.349 70.8784 117.088C71.1211 116.817 71.4851 116.635 71.9704 116.542L74.1124 116.136V115.562C74.1124 114.955 73.8137 114.652 73.2164 114.652C72.9271 114.652 72.6191 114.717 72.2924 114.848C71.9751 114.979 71.6157 115.184 71.2144 115.464L71.0744 115.38L70.8644 114.148C71.2657 113.896 71.6951 113.705 72.1524 113.574C72.6097 113.434 73.0671 113.364 73.5244 113.364ZM72.6144 117.396C72.4651 117.433 72.3531 117.499 72.2784 117.592C72.2131 117.676 72.1804 117.807 72.1804 117.984C72.1804 118.227 72.2457 118.418 72.3764 118.558C72.5071 118.689 72.6891 118.754 72.9224 118.754C73.2864 118.754 73.6691 118.539 74.0704 118.11L74.0984 117.074L72.6144 117.396ZM83.1346 117.13L83.1766 118.306C83.1766 118.465 83.1953 118.577 83.2326 118.642C83.2793 118.698 83.3586 118.726 83.4706 118.726C83.5733 118.726 83.6993 118.707 83.8486 118.67L83.9746 118.782L83.8206 119.762C83.5033 119.958 83.158 120.075 82.7846 120.112C82.4953 120.084 82.2526 119.986 82.0566 119.818C81.8606 119.65 81.7253 119.421 81.6506 119.132H81.5386C81.0813 119.552 80.6146 119.874 80.1386 120.098C79.224 120.098 78.5146 119.809 78.0106 119.23C77.5066 118.642 77.2546 117.83 77.2546 116.794C77.2546 115.693 77.544 114.848 78.1226 114.26C78.7013 113.672 79.504 113.378 80.5306 113.378C80.8013 113.378 81.1 113.406 81.4266 113.462L81.3986 110.312L83.2466 110.172L83.1346 117.13ZM80.4046 114.638C79.4713 114.638 79.0046 115.231 79.0046 116.416C79.0046 117.153 79.1166 117.709 79.3406 118.082C79.5646 118.455 79.8913 118.642 80.3206 118.642C80.7313 118.642 81.1093 118.451 81.4546 118.068L81.4826 117.298L81.4406 114.89C81.0766 114.722 80.7313 114.638 80.4046 114.638ZM87.6338 113.364C88.3524 113.364 88.9124 113.527 89.3138 113.854C89.7244 114.171 89.9298 114.619 89.9298 115.198C89.9298 115.366 89.9018 115.898 89.8458 116.794C89.8364 117.055 89.8224 117.326 89.8038 117.606C89.7851 117.877 89.7758 118.11 89.7758 118.306C89.7758 118.465 89.7991 118.577 89.8458 118.642C89.8924 118.698 89.9764 118.726 90.0978 118.726C90.1911 118.726 90.3124 118.707 90.4618 118.67L90.6018 118.782L90.4338 119.762C90.1351 119.958 89.7944 120.075 89.4118 120.112C89.1318 120.084 88.8984 119.986 88.7118 119.818C88.5251 119.641 88.3991 119.398 88.3338 119.09H88.2358C87.7691 119.585 87.2884 119.93 86.7938 120.126C86.1218 120.117 85.5944 119.939 85.2118 119.594C84.8291 119.249 84.6378 118.777 84.6378 118.18C84.6378 117.713 84.7544 117.349 84.9878 117.088C85.2304 116.817 85.5944 116.635 86.0798 116.542L88.2218 116.136V115.562C88.2218 114.955 87.9231 114.652 87.3258 114.652C87.0364 114.652 86.7284 114.717 86.4018 114.848C86.0844 114.979 85.7251 115.184 85.3238 115.464L85.1838 115.38L84.9738 114.148C85.3751 113.896 85.8044 113.705 86.2618 113.574C86.7191 113.434 87.1764 113.364 87.6338 113.364ZM86.7238 117.396C86.5744 117.433 86.4624 117.499 86.3878 117.592C86.3224 117.676 86.2898 117.807 86.2898 117.984C86.2898 118.227 86.3551 118.418 86.4858 118.558C86.6164 118.689 86.7984 118.754 87.0318 118.754C87.3958 118.754 87.7784 118.539 88.1798 118.11L88.2078 117.074L86.7238 117.396ZM93.996 113.378C94.6307 113.378 95.228 113.485 95.788 113.7L95.536 115.072L95.312 115.142C95.0413 114.965 94.7707 114.829 94.5 114.736C94.2293 114.643 93.9913 114.596 93.786 114.596C93.562 114.596 93.3847 114.657 93.254 114.778C93.1233 114.89 93.058 115.03 93.058 115.198C93.058 115.394 93.142 115.553 93.31 115.674C93.4873 115.795 93.7627 115.931 94.136 116.08C94.5093 116.229 94.8173 116.374 95.06 116.514C95.3027 116.654 95.508 116.85 95.676 117.102C95.8533 117.345 95.942 117.648 95.942 118.012C95.942 118.385 95.844 118.735 95.648 119.062C95.4613 119.379 95.172 119.641 94.78 119.846C94.388 120.042 93.9073 120.14 93.338 120.14C92.666 120.14 91.9707 120 91.252 119.72L91.462 118.264L91.644 118.152C91.9333 118.395 92.2553 118.591 92.61 118.74C92.9647 118.88 93.2773 118.95 93.548 118.95C93.8 118.95 93.996 118.889 94.136 118.768C94.276 118.637 94.346 118.483 94.346 118.306C94.346 118.11 94.2573 117.951 94.08 117.83C93.912 117.709 93.6413 117.573 93.268 117.424C92.8853 117.256 92.5727 117.107 92.33 116.976C92.0873 116.836 91.8773 116.64 91.7 116.388C91.532 116.136 91.448 115.823 91.448 115.45C91.448 114.843 91.6767 114.349 92.134 113.966C92.5913 113.574 93.212 113.378 93.996 113.378ZM103.308 115.94C103.318 115.613 103.243 115.361 103.084 115.184C102.935 114.997 102.716 114.904 102.426 114.904C102.006 114.904 101.558 115.105 101.082 115.506V117.13L101.166 120H99.3042L99.4022 117.312L99.3322 113.616L101.096 113.462V114.414H101.194C101.708 113.947 102.268 113.611 102.874 113.406C103.584 113.406 104.125 113.569 104.498 113.896C104.872 114.213 105.049 114.675 105.03 115.282L104.988 117.144L105.072 120H103.196L103.308 115.94ZM109.416 113.364C110.368 113.364 111.096 113.644 111.6 114.204C112.104 114.764 112.356 115.571 112.356 116.626C112.356 117.765 112.086 118.637 111.544 119.244C111.003 119.841 110.224 120.14 109.206 120.14C108.254 120.14 107.526 119.86 107.022 119.3C106.518 118.74 106.266 117.933 106.266 116.878C106.266 115.739 106.537 114.871 107.078 114.274C107.62 113.667 108.399 113.364 109.416 113.364ZM109.29 114.624C108.842 114.624 108.516 114.773 108.31 115.072C108.114 115.371 108.016 115.851 108.016 116.514C108.016 117.373 108.119 117.984 108.324 118.348C108.53 118.712 108.866 118.894 109.332 118.894C109.78 118.894 110.102 118.749 110.298 118.46C110.504 118.161 110.606 117.676 110.606 117.004C110.606 116.155 110.499 115.548 110.284 115.184C110.079 114.811 109.748 114.624 109.29 114.624ZM118.383 118.628C118.682 118.628 118.995 118.549 119.321 118.39L119.475 118.53L119.293 119.636C118.817 119.879 118.332 120.028 117.837 120.084C116.577 119.953 115.947 119.337 115.947 118.236L116.017 117.074L116.003 114.666H115.135L115.065 114.568L115.163 113.546H115.989V112.468L117.683 111.922L117.809 112.034L117.767 113.546H119.433L119.489 113.644L119.405 114.666H117.739L117.655 117.802C117.655 118.101 117.711 118.315 117.823 118.446C117.935 118.567 118.122 118.628 118.383 118.628ZM125.426 116.976L121.646 117.004C121.73 118.171 122.323 118.754 123.424 118.754C124.003 118.754 124.647 118.591 125.356 118.264L125.51 118.362L125.23 119.748C124.521 120.009 123.854 120.14 123.228 120.14C122.202 120.14 121.394 119.841 120.806 119.244C120.228 118.647 119.938 117.821 119.938 116.766C119.938 115.721 120.223 114.895 120.792 114.288C121.362 113.672 122.132 113.364 123.102 113.364C123.933 113.364 124.572 113.593 125.02 114.05C125.478 114.498 125.706 115.128 125.706 115.94C125.706 116.155 125.683 116.425 125.636 116.752L125.426 116.976ZM124.082 115.73C124.082 115.357 123.998 115.077 123.83 114.89C123.662 114.694 123.415 114.596 123.088 114.596C122.724 114.596 122.421 114.717 122.178 114.96C121.936 115.193 121.772 115.534 121.688 115.982L124.054 115.926L124.082 115.73ZM129.174 113.378C129.808 113.378 130.406 113.485 130.966 113.7L130.714 115.072L130.49 115.142C130.219 114.965 129.948 114.829 129.678 114.736C129.407 114.643 129.169 114.596 128.964 114.596C128.74 114.596 128.562 114.657 128.432 114.778C128.301 114.89 128.236 115.03 128.236 115.198C128.236 115.394 128.32 115.553 128.488 115.674C128.665 115.795 128.94 115.931 129.314 116.08C129.687 116.229 129.995 116.374 130.238 116.514C130.48 116.654 130.686 116.85 130.854 117.102C131.031 117.345 131.12 117.648 131.12 118.012C131.12 118.385 131.022 118.735 130.826 119.062C130.639 119.379 130.35 119.641 129.958 119.846C129.566 120.042 129.085 120.14 128.516 120.14C127.844 120.14 127.148 120 126.43 119.72L126.64 118.264L126.822 118.152C127.111 118.395 127.433 118.591 127.788 118.74C128.142 118.88 128.455 118.95 128.726 118.95C128.978 118.95 129.174 118.889 129.314 118.768C129.454 118.637 129.524 118.483 129.524 118.306C129.524 118.11 129.435 117.951 129.258 117.83C129.09 117.709 128.819 117.573 128.446 117.424C128.063 117.256 127.75 117.107 127.508 116.976C127.265 116.836 127.055 116.64 126.878 116.388C126.71 116.136 126.626 115.823 126.626 115.45C126.626 114.843 126.854 114.349 127.312 113.966C127.769 113.574 128.39 113.378 129.174 113.378ZM134.995 118.628C135.293 118.628 135.606 118.549 135.933 118.39L136.087 118.53L135.905 119.636C135.429 119.879 134.943 120.028 134.449 120.084C133.189 119.953 132.559 119.337 132.559 118.236L132.629 117.074L132.615 114.666H131.747L131.677 114.568L131.775 113.546H132.601V112.468L134.295 111.922L134.421 112.034L134.379 113.546H136.045L136.101 113.644L136.017 114.666H134.351L134.267 117.802C134.267 118.101 134.323 118.315 134.435 118.446C134.547 118.567 134.733 118.628 134.995 118.628ZM142.038 116.976L138.258 117.004C138.342 118.171 138.934 118.754 140.036 118.754C140.614 118.754 141.258 118.591 141.968 118.264L142.122 118.362L141.842 119.748C141.132 120.009 140.465 120.14 139.84 120.14C138.813 120.14 138.006 119.841 137.418 119.244C136.839 118.647 136.55 117.821 136.55 116.766C136.55 115.721 136.834 114.895 137.404 114.288C137.973 113.672 138.743 113.364 139.714 113.364C140.544 113.364 141.184 113.593 141.632 114.05C142.089 114.498 142.318 115.128 142.318 115.94C142.318 116.155 142.294 116.425 142.248 116.752L142.038 116.976ZM140.694 115.73C140.694 115.357 140.61 115.077 140.442 114.89C140.274 114.694 140.026 114.596 139.7 114.596C139.336 114.596 139.032 114.717 138.79 114.96C138.547 115.193 138.384 115.534 138.3 115.982L140.666 115.926L140.694 115.73ZM144.448 118.152C144.868 118.488 145.078 118.889 145.078 119.356C145.078 120.168 144.514 120.975 143.384 121.778L142.782 121.246L142.768 121.106C143.282 120.677 143.538 120.219 143.538 119.734C143.538 119.417 143.389 119.137 143.09 118.894L143.104 118.74C143.534 118.479 143.982 118.283 144.448 118.152ZM45.78 129.364C46.088 129.364 46.3913 129.397 46.69 129.462C46.998 129.518 47.2686 129.602 47.502 129.714L47.194 131.198L47.04 131.268C46.564 131.007 46.1393 130.876 45.766 130.876C45.3366 130.876 45.0053 131.03 44.772 131.338C44.5386 131.646 44.422 132.085 44.422 132.654C44.422 133.307 44.548 133.807 44.8 134.152C45.052 134.497 45.4113 134.67 45.878 134.67C46.298 134.67 46.7646 134.553 47.278 134.32L47.418 134.432L47.236 135.874C46.676 136.051 46.102 136.14 45.514 136.14C44.618 136.14 43.918 135.851 43.414 135.272C42.91 134.684 42.658 133.867 42.658 132.822C42.658 131.739 42.9333 130.895 43.484 130.288C44.0346 129.672 44.8 129.364 45.78 129.364ZM51.1947 129.364C52.1467 129.364 52.8747 129.644 53.3787 130.204C53.8827 130.764 54.1347 131.571 54.1347 132.626C54.1347 133.765 53.864 134.637 53.3227 135.244C52.7813 135.841 52.002 136.14 50.9847 136.14C50.0327 136.14 49.3047 135.86 48.8007 135.3C48.2967 134.74 48.0447 133.933 48.0447 132.878C48.0447 131.739 48.3153 130.871 48.8567 130.274C49.398 129.667 50.1773 129.364 51.1947 129.364ZM51.0687 130.624C50.6207 130.624 50.294 130.773 50.0887 131.072C49.8927 131.371 49.7947 131.851 49.7947 132.514C49.7947 133.373 49.8973 133.984 50.1027 134.348C50.308 134.712 50.644 134.894 51.1107 134.894C51.5587 134.894 51.8807 134.749 52.0767 134.46C52.282 134.161 52.3847 133.676 52.3847 133.004C52.3847 132.155 52.2773 131.548 52.0627 131.184C51.8573 130.811 51.526 130.624 51.0687 130.624ZM63.1266 136L63.2386 131.94C63.2386 131.249 62.9446 130.904 62.3566 130.904C61.9366 130.904 61.4979 131.091 61.0406 131.464L60.9986 133.144L61.0826 136H59.2206L59.3326 131.94C59.3419 131.604 59.2673 131.347 59.1086 131.17C58.9593 130.993 58.7399 130.904 58.4506 130.904C58.0399 130.904 57.5873 131.1 57.0926 131.492V133.13L57.1766 136H55.3286L55.4266 133.312L55.3566 129.616L57.1066 129.462V130.414H57.2046C57.7179 129.947 58.2826 129.611 58.8986 129.406C59.9439 129.406 60.6113 129.756 60.9006 130.456H60.9846C61.5166 129.961 62.1233 129.611 62.8046 129.406C63.5139 129.406 64.0506 129.569 64.4146 129.896C64.7879 130.213 64.9653 130.675 64.9466 131.282L64.9046 133.144L64.9886 136H63.1266ZM70.9247 129.378C71.5594 129.378 72.1567 129.485 72.7167 129.7L72.4647 131.072L72.2407 131.142C71.9701 130.965 71.6994 130.829 71.4287 130.736C71.1581 130.643 70.9201 130.596 70.7147 130.596C70.4907 130.596 70.3134 130.657 70.1827 130.778C70.0521 130.89 69.9867 131.03 69.9867 131.198C69.9867 131.394 70.0707 131.553 70.2387 131.674C70.4161 131.795 70.6914 131.931 71.0647 132.08C71.4381 132.229 71.7461 132.374 71.9887 132.514C72.2314 132.654 72.4367 132.85 72.6047 133.102C72.7821 133.345 72.8707 133.648 72.8707 134.012C72.8707 134.385 72.7727 134.735 72.5767 135.062C72.3901 135.379 72.1007 135.641 71.7087 135.846C71.3167 136.042 70.8361 136.14 70.2667 136.14C69.5947 136.14 68.8994 136 68.1807 135.72L68.3907 134.264L68.5727 134.152C68.8621 134.395 69.1841 134.591 69.5387 134.74C69.8934 134.88 70.2061 134.95 70.4767 134.95C70.7287 134.95 70.9247 134.889 71.0647 134.768C71.2047 134.637 71.2747 134.483 71.2747 134.306C71.2747 134.11 71.1861 133.951 71.0087 133.83C70.8407 133.709 70.5701 133.573 70.1967 133.424C69.8141 133.256 69.5014 133.107 69.2587 132.976C69.0161 132.836 68.8061 132.64 68.6287 132.388C68.4607 132.136 68.3767 131.823 68.3767 131.45C68.3767 130.843 68.6054 130.349 69.0627 129.966C69.5201 129.574 70.1407 129.378 70.9247 129.378ZM79.1538 132.976L75.3738 133.004C75.4578 134.171 76.0504 134.754 77.1518 134.754C77.7304 134.754 78.3744 134.591 79.0838 134.264L79.2378 134.362L78.9578 135.748C78.2484 136.009 77.5811 136.14 76.9558 136.14C75.9291 136.14 75.1218 135.841 74.5338 135.244C73.9551 134.647 73.6658 133.821 73.6658 132.766C73.6658 131.721 73.9504 130.895 74.5198 130.288C75.0891 129.672 75.8591 129.364 76.8298 129.364C77.6604 129.364 78.2998 129.593 78.7478 130.05C79.2051 130.498 79.4338 131.128 79.4338 131.94C79.4338 132.155 79.4104 132.425 79.3638 132.752L79.1538 132.976ZM77.8098 131.73C77.8098 131.357 77.7258 131.077 77.5578 130.89C77.3898 130.694 77.1424 130.596 76.8158 130.596C76.4518 130.596 76.1484 130.717 75.9058 130.96C75.6631 131.193 75.4998 131.534 75.4158 131.982L77.7818 131.926L77.8098 131.73ZM86.8386 130.372C86.5866 130.437 86.2272 130.507 85.7606 130.582L85.7326 130.638C85.8726 130.918 85.9426 131.231 85.9426 131.576C85.9426 132.276 85.6859 132.836 85.1726 133.256C84.6686 133.667 83.9826 133.872 83.1146 133.872C82.8532 133.872 82.5826 133.849 82.3026 133.802C82.2186 133.886 82.1626 133.951 82.1346 133.998C82.1066 134.045 82.0926 134.101 82.0926 134.166C82.0926 134.334 82.2046 134.451 82.4286 134.516C82.6526 134.581 83.0072 134.647 83.4926 134.712C84.0432 134.777 84.5006 134.857 84.8646 134.95C85.2379 135.043 85.5552 135.207 85.8166 135.44C86.0872 135.673 86.2226 136.005 86.2226 136.434C86.2226 136.873 86.0826 137.265 85.8026 137.61C85.5319 137.965 85.1539 138.24 84.6686 138.436C84.1832 138.632 83.6326 138.73 83.0166 138.73C82.1672 138.73 81.5139 138.557 81.0566 138.212C80.5992 137.867 80.3706 137.409 80.3706 136.84C80.6599 136.439 81.0472 136.089 81.5326 135.79V135.72C81.2152 135.608 80.9679 135.454 80.7906 135.258C80.6132 135.053 80.5246 134.782 80.5246 134.446C80.7766 134.138 81.0939 133.853 81.4766 133.592V133.522C81.1406 133.335 80.8839 133.093 80.7066 132.794C80.5386 132.486 80.4546 132.127 80.4546 131.716C80.4546 130.988 80.7066 130.419 81.2106 130.008C81.7146 129.597 82.4006 129.392 83.2686 129.392C83.7726 129.392 84.2299 129.476 84.6406 129.644C85.3126 129.523 85.9986 129.336 86.6986 129.084L86.8386 129.21V130.372ZM83.1706 132.752C83.5532 132.752 83.8426 132.654 84.0386 132.458C84.2346 132.262 84.3326 131.977 84.3326 131.604C84.3326 130.895 83.9686 130.54 83.2406 130.54C82.4566 130.54 82.0646 130.899 82.0646 131.618C82.0646 131.991 82.1579 132.276 82.3446 132.472C82.5312 132.659 82.8066 132.752 83.1706 132.752ZM84.6546 136.77C84.6546 136.518 84.5192 136.345 84.2486 136.252C83.9872 136.159 83.5812 136.079 83.0306 136.014L82.5546 135.944C82.3306 136.093 82.1626 136.238 82.0506 136.378C81.9386 136.518 81.8826 136.667 81.8826 136.826C81.8826 137.069 81.9946 137.265 82.2186 137.414C82.4426 137.563 82.7692 137.638 83.1986 137.638C83.6372 137.638 83.9872 137.559 84.2486 137.4C84.5192 137.251 84.6546 137.041 84.6546 136.77ZM93.7966 134.782L93.6286 135.762C93.2832 135.986 92.9286 136.103 92.5646 136.112C92.2939 136.065 92.0699 135.958 91.8926 135.79C91.7152 135.622 91.5799 135.379 91.4866 135.062H91.3606C90.8286 135.585 90.2779 135.925 89.7086 136.084C88.9992 136.084 88.4579 135.925 88.0846 135.608C87.7206 135.281 87.5432 134.815 87.5526 134.208L87.5806 132.556L87.5106 129.616L89.3166 129.462L89.2746 133.592C89.2652 133.919 89.3306 134.166 89.4706 134.334C89.6106 134.502 89.8206 134.586 90.1006 134.586C90.5112 134.586 90.9172 134.404 91.3186 134.04V129.616L93.0966 129.462L92.9706 134.306C92.9706 134.455 92.9939 134.563 93.0406 134.628C93.0966 134.693 93.1806 134.726 93.2926 134.726C93.3952 134.726 93.5212 134.707 93.6706 134.67L93.7966 134.782ZM98.411 129.476C98.495 129.476 98.6117 129.485 98.761 129.504V131.226L98.565 131.296C98.4063 131.231 98.2337 131.198 98.047 131.198C97.5057 131.198 97.0157 131.548 96.577 132.248V133.13L96.675 136H94.813L94.925 133.312L94.841 129.616L96.605 129.462L96.591 130.736H96.703C97.1603 129.896 97.7297 129.476 98.411 129.476ZM102.105 129.364C102.824 129.364 103.384 129.527 103.785 129.854C104.196 130.171 104.401 130.619 104.401 131.198C104.401 131.366 104.373 131.898 104.317 132.794C104.308 133.055 104.294 133.326 104.275 133.606C104.257 133.877 104.247 134.11 104.247 134.306C104.247 134.465 104.271 134.577 104.317 134.642C104.364 134.698 104.448 134.726 104.569 134.726C104.663 134.726 104.784 134.707 104.933 134.67L105.073 134.782L104.905 135.762C104.607 135.958 104.266 136.075 103.883 136.112C103.603 136.084 103.37 135.986 103.183 135.818C102.997 135.641 102.871 135.398 102.805 135.09H102.707C102.241 135.585 101.76 135.93 101.265 136.126C100.593 136.117 100.066 135.939 99.6835 135.594C99.3008 135.249 99.1095 134.777 99.1095 134.18C99.1095 133.713 99.2261 133.349 99.4595 133.088C99.7021 132.817 100.066 132.635 100.551 132.542L102.693 132.136V131.562C102.693 130.955 102.395 130.652 101.797 130.652C101.508 130.652 101.2 130.717 100.873 130.848C100.556 130.979 100.197 131.184 99.7955 131.464L99.6555 131.38L99.4455 130.148C99.8468 129.896 100.276 129.705 100.733 129.574C101.191 129.434 101.648 129.364 102.105 129.364ZM101.195 133.396C101.046 133.433 100.934 133.499 100.859 133.592C100.794 133.676 100.761 133.807 100.761 133.984C100.761 134.227 100.827 134.418 100.957 134.558C101.088 134.689 101.27 134.754 101.503 134.754C101.867 134.754 102.25 134.539 102.651 134.11L102.679 133.074L101.195 133.396ZM110.206 131.94C110.215 131.613 110.14 131.361 109.982 131.184C109.832 130.997 109.613 130.904 109.324 130.904C108.904 130.904 108.456 131.105 107.98 131.506V133.13L108.064 136H106.202L106.3 133.312L106.23 129.616L107.994 129.462V130.414H108.092C108.605 129.947 109.165 129.611 109.772 129.406C110.481 129.406 111.022 129.569 111.396 129.896C111.769 130.213 111.946 130.675 111.928 131.282L111.886 133.144L111.97 136H110.094L110.206 131.94ZM116.286 129.364C116.594 129.364 116.897 129.397 117.196 129.462C117.504 129.518 117.774 129.602 118.008 129.714L117.7 131.198L117.546 131.268C117.07 131.007 116.645 130.876 116.272 130.876C115.842 130.876 115.511 131.03 115.278 131.338C115.044 131.646 114.928 132.085 114.928 132.654C114.928 133.307 115.054 133.807 115.306 134.152C115.558 134.497 115.917 134.67 116.384 134.67C116.804 134.67 117.27 134.553 117.784 134.32L117.924 134.432L117.742 135.874C117.182 136.051 116.608 136.14 116.02 136.14C115.124 136.14 114.424 135.851 113.92 135.272C113.416 134.684 113.164 133.867 113.164 132.822C113.164 131.739 113.439 130.895 113.99 130.288C114.54 129.672 115.306 129.364 116.286 129.364ZM116.272 136.672L116.748 136.938C116.953 137.05 117.098 137.171 117.182 137.302C117.275 137.442 117.322 137.596 117.322 137.764C117.322 138.072 117.2 138.324 116.958 138.52C116.715 138.716 116.398 138.814 116.006 138.814C115.586 138.814 115.203 138.683 114.858 138.422L114.984 137.638L115.068 137.596C115.348 137.876 115.623 138.016 115.894 138.016C116.118 138.016 116.23 137.918 116.23 137.722C116.23 137.657 116.211 137.601 116.174 137.554C116.136 137.517 116.076 137.479 115.992 137.442L115.306 137.05L115.628 135.636H116.524L116.272 136.672ZM121.424 129.364C122.142 129.364 122.702 129.527 123.104 129.854C123.514 130.171 123.72 130.619 123.72 131.198C123.72 131.366 123.692 131.898 123.636 132.794C123.626 133.055 123.612 133.326 123.594 133.606C123.575 133.877 123.566 134.11 123.566 134.306C123.566 134.465 123.589 134.577 123.636 134.642C123.682 134.698 123.766 134.726 123.888 134.726C123.981 134.726 124.102 134.707 124.252 134.67L124.392 134.782L124.224 135.762C123.925 135.958 123.584 136.075 123.202 136.112C122.922 136.084 122.688 135.986 122.502 135.818C122.315 135.641 122.189 135.398 122.124 135.09H122.026C121.559 135.585 121.078 135.93 120.584 136.126C119.912 136.117 119.384 135.939 119.002 135.594C118.619 135.249 118.428 134.777 118.428 134.18C118.428 133.713 118.544 133.349 118.778 133.088C119.02 132.817 119.384 132.635 119.87 132.542L122.012 132.136V131.562C122.012 130.955 121.713 130.652 121.116 130.652C120.826 130.652 120.518 130.717 120.192 130.848C119.874 130.979 119.515 131.184 119.114 131.464L118.974 131.38L118.764 130.148C119.165 129.896 119.594 129.705 120.052 129.574C120.509 129.434 120.966 129.364 121.424 129.364ZM120.514 133.396C120.364 133.433 120.252 133.499 120.178 133.592C120.112 133.676 120.08 133.807 120.08 133.984C120.08 134.227 120.145 134.418 120.276 134.558C120.406 134.689 120.588 134.754 120.822 134.754C121.186 134.754 121.568 134.539 121.97 134.11L121.998 133.074L120.514 133.396Z" fill="white"/>
<defs>
<filter id="filter0_b_206:36877" x="3" y="67" width="161" height="97" filterUnits="userSpaceOnUse" color-interpolation-filters="sRGB">
<feFlood flood-opacity="0" result="BackgroundImageFix"/>
<feGaussianBlur in="BackgroundImage" stdDeviation="5"/>
<feComposite in2="SourceAlpha" operator="in" result="effect1_backgroundBlur_206:36877"/>
<feBlend mode="normal" in="SourceGraphic" in2="effect1_backgroundBlur_206:36877" result="shape"/>
</filter>
</defs>
</svg>
