<svg width="167" height="167" viewBox="0 0 167 167" fill="none" xmlns="http://www.w3.org/2000/svg">
<mask id="mask0_206:36868" style="mask-type:alpha" maskUnits="userSpaceOnUse" x="0" y="0" width="167" height="167">
<rect x="1" y="1" width="165" height="165" rx="8" fill="#5988D6" stroke="#EDE6FC" stroke-opacity="0.3"/>
</mask>
<g mask="url(#mask0_206:36868)">
<rect x="1" y="1" width="165" height="165" rx="8" fill="#D9917A" stroke="#EDE6FC" stroke-opacity="0.3"/>
<ellipse cx="88.5016" cy="46.8129" rx="18.8574" ry="23.6185" transform="rotate(-35.8065 88.5016 46.8129)" fill="#9F908B"/>
<ellipse cx="82.5399" cy="23.4954" rx="8.58517" ry="9.55028" fill="#9F908B"/>
<path d="M115.831 66.1744C115.831 59.9871 109.557 23.0312 82.5077 23.0312C55.4586 23.0312 49.1846 59.9871 49.1846 66.1744C49.1846 72.3617 44.5713 96.0129 82.5077 96.0129C120.413 96.0129 115.831 72.3746 115.831 66.1744ZM108.142 53.1281C107.773 52.1076 107.158 50.6738 106.42 48.9559C106.066 48.0904 105.636 47.1733 105.159 46.2045C104.682 45.2357 104.129 44.254 103.621 43.2077C103.114 42.1615 102.437 41.1152 101.807 40.0689C101.176 39.0226 100.469 37.9505 99.6999 36.93C98.931 35.9096 98.1621 34.915 97.3779 33.9203C96.5936 32.9257 95.7171 32.0344 94.779 31.2465C93.9211 30.4519 93.0071 29.7013 92.0418 28.9989C91.593 28.6732 91.1205 28.3713 90.6271 28.0947C90.1939 27.8064 89.7307 27.5513 89.2431 27.3326C88.4061 26.9213 87.5259 26.5754 86.6136 26.2992C85.9233 26.0493 85.2008 25.8672 84.4607 25.7567L82.477 25.4726H84.4761C85.2566 25.5095 86.0301 25.6178 86.7827 25.7955C87.7794 25.9728 88.7455 26.2549 89.6583 26.6351C90.1928 26.8368 90.707 27.0744 91.1961 27.3455C91.7343 27.5956 92.2485 27.8806 92.7338 28.1981C93.8384 28.8526 94.868 29.592 95.8093 30.4069C96.8238 31.2568 97.7691 32.163 98.6388 33.1195C99.4692 34.127 100.376 35.1216 101.099 36.2067C101.822 37.2917 102.56 38.3638 103.221 39.4489C103.883 40.5339 104.405 41.6448 104.944 42.7169C105.876 44.6728 106.667 46.6743 107.312 48.7104C107.601 49.5127 107.837 50.3277 108.019 51.1518C108.204 51.888 108.373 52.521 108.465 53.0506C108.665 54.1098 108.773 54.7169 108.773 54.7169C108.773 54.7169 108.573 54.1485 108.188 53.1281H108.142Z" fill="#634840"/>
<path d="M82.5076 12C80.1856 12 80.1088 12.9688 79.2937 13.2917C78.4787 13.6146 77.0486 12.9559 75.4032 12.1421C73.7578 11.3283 70.344 14.5576 70.344 14.5576L73.6809 23.0312C76.4974 22.1227 79.4907 21.6628 82.5076 21.6749V12Z" fill="#634840"/>
<path d="M82.5076 23.69V23.0312C80.5337 23.033 78.5688 23.2545 76.6642 23.69H82.5076Z" fill="#634840"/>
<path d="M94.6559 14.5454C94.6559 14.5454 91.2421 11.3291 89.6121 12.1299C87.9821 12.9308 86.6596 13.6412 85.7216 13.2796C84.7836 12.9179 84.8297 11.9879 82.5077 11.9879V21.6498C85.5245 21.6389 88.5176 22.0988 91.3344 23.0062L94.6559 14.5454Z" fill="#634840"/>
<path d="M88.3512 23.69C86.4466 23.2545 84.4816 23.033 82.5077 23.0312V23.69H88.3512Z" fill="#634840"/>
<path d="M38.8087 92.4824L98.7384 92.4824V57.7047L38.8087 57.7047L38.8087 92.4824Z" fill="#ED823A"/>
<path d="M68.8077 92.2419L128.737 92.2419V57.4642L68.8077 57.4642V92.2419Z" fill="#FF9E55"/>
<path d="M68.8077 88.8689H78.3047L77.4684 85.3888L78.3047 82.9016H68.8077V88.8689Z" fill="#FFB27D"/>
<path d="M68.8078 82.9016H59.3108L60.1486 86.3817L59.3108 88.8689H68.8078V82.9016Z" fill="#DD732C"/>
<path d="M128.739 74.8461H119.242L120.078 78.0826L119.242 80.3959H128.739V74.8461Z" fill="#FFB27D"/>
<path d="M38.8428 57.4632L33.5536 66.0525H62.8296L68.8077 57.4632H38.8428Z" fill="#FF9E55"/>
<path d="M128.851 57.7016L128.737 57.4626H68.8077C68.0521 56.9817 73.8254 66.19 73.8254 66.19H132.927L128.851 57.7016Z" fill="#FFB27D"/>
</g>
<g filter="url(#filter0_b_206:36868)">
<rect x="13" y="77" width="141" height="77" rx="10" fill="black" fill-opacity="0.8"/>
</g>
<path d="M31.0419 94.872C31.9192 94.872 32.7079 95.054 33.4079 95.418L33.0719 97L32.9179 97.07C32.6379 96.874 32.3299 96.72 31.9939 96.608C31.6579 96.496 31.3126 96.44 30.9579 96.44C29.4739 96.44 28.7319 97.4153 28.7319 99.366C28.7319 100.421 28.9232 101.214 29.3059 101.746C29.6979 102.269 30.2672 102.53 31.0139 102.53C31.3592 102.53 31.7139 102.479 32.0779 102.376C32.4512 102.264 32.7872 102.115 33.0859 101.928L33.2539 102.026L33.0999 103.636C32.3906 103.963 31.6439 104.126 30.8599 104.126C29.5159 104.126 28.4892 103.734 27.7799 102.95C27.0799 102.166 26.7299 101.041 26.7299 99.576C26.7299 98.0827 27.1032 96.9253 27.8499 96.104C28.6059 95.2827 29.6699 94.872 31.0419 94.872ZM36.9863 97.364C37.705 97.364 38.265 97.5273 38.6663 97.854C39.077 98.1713 39.2823 98.6193 39.2823 99.198C39.2823 99.366 39.2543 99.898 39.1983 100.794C39.189 101.055 39.175 101.326 39.1563 101.606C39.1376 101.877 39.1283 102.11 39.1283 102.306C39.1283 102.465 39.1516 102.577 39.1983 102.642C39.245 102.698 39.329 102.726 39.4503 102.726C39.5436 102.726 39.665 102.707 39.8143 102.67L39.9543 102.782L39.7863 103.762C39.4876 103.958 39.147 104.075 38.7643 104.112C38.4843 104.084 38.251 103.986 38.0643 103.818C37.8776 103.641 37.7516 103.398 37.6863 103.09H37.5883C37.1216 103.585 36.641 103.93 36.1463 104.126C35.4743 104.117 34.947 103.939 34.5643 103.594C34.1816 103.249 33.9903 102.777 33.9903 102.18C33.9903 101.713 34.107 101.349 34.3403 101.088C34.583 100.817 34.947 100.635 35.4323 100.542L37.5743 100.136V99.562C37.5743 98.9553 37.2756 98.652 36.6783 98.652C36.389 98.652 36.081 98.7173 35.7543 98.848C35.437 98.9787 35.0776 99.184 34.6763 99.464L34.5363 99.38L34.3263 98.148C34.7276 97.896 35.157 97.7047 35.6143 97.574C36.0716 97.434 36.529 97.364 36.9863 97.364ZM36.0763 101.396C35.927 101.433 35.815 101.499 35.7403 101.592C35.675 101.676 35.6423 101.807 35.6423 101.984C35.6423 102.227 35.7076 102.418 35.8383 102.558C35.969 102.689 36.151 102.754 36.3843 102.754C36.7483 102.754 37.131 102.539 37.5323 102.11L37.5603 101.074L36.0763 101.396ZM41.2905 101.312L41.2205 97.616L43.0545 97.462L42.9705 101.13L43.0545 104H41.1925L41.2905 101.312ZM42.1725 94.298C42.4619 94.298 42.6859 94.382 42.8445 94.55C43.0125 94.718 43.0965 94.9513 43.0965 95.25C43.0965 95.5673 43.0079 95.8193 42.8305 96.006C42.6532 96.1927 42.4105 96.286 42.1025 96.286C41.7945 96.286 41.5565 96.202 41.3885 96.034C41.2299 95.866 41.1505 95.628 41.1505 95.32C41.1505 95.012 41.2392 94.7647 41.4165 94.578C41.6032 94.3913 41.8552 94.298 42.1725 94.298ZM46.4249 98.218L47.3209 99.674L48.2029 98.162L48.5529 97.504H50.1909L48.3149 100.696L50.2749 103.944L48.3149 104.084L47.9929 103.258L47.0689 101.76L46.1029 103.342L45.7949 104H44.1569L46.0469 100.738L44.1429 97.546L46.1309 97.448L46.4249 98.218ZM53.6113 97.364C54.33 97.364 54.89 97.5273 55.2913 97.854C55.702 98.1713 55.9073 98.6193 55.9073 99.198C55.9073 99.366 55.8793 99.898 55.8233 100.794C55.814 101.055 55.8 101.326 55.7813 101.606C55.7626 101.877 55.7533 102.11 55.7533 102.306C55.7533 102.465 55.7766 102.577 55.8233 102.642C55.87 102.698 55.954 102.726 56.0753 102.726C56.1686 102.726 56.29 102.707 56.4393 102.67L56.5793 102.782L56.4113 103.762C56.1126 103.958 55.772 104.075 55.3893 104.112C55.1093 104.084 54.876 103.986 54.6893 103.818C54.5026 103.641 54.3766 103.398 54.3113 103.09H54.2133C53.7466 103.585 53.266 103.93 52.7713 104.126C52.0993 104.117 51.572 103.939 51.1893 103.594C50.8066 103.249 50.6153 102.777 50.6153 102.18C50.6153 101.713 50.732 101.349 50.9653 101.088C51.208 100.817 51.572 100.635 52.0573 100.542L54.1993 100.136V99.562C54.1993 98.9553 53.9006 98.652 53.3033 98.652C53.014 98.652 52.706 98.7173 52.3793 98.848C52.062 98.9787 51.7026 99.184 51.3013 99.464L51.1613 99.38L50.9513 98.148C51.3526 97.896 51.782 97.7047 52.2393 97.574C52.6966 97.434 53.154 97.364 53.6113 97.364ZM52.7013 101.396C52.552 101.433 52.44 101.499 52.3653 101.592C52.3 101.676 52.2673 101.807 52.2673 101.984C52.2673 102.227 52.3326 102.418 52.4633 102.558C52.594 102.689 52.776 102.754 53.0093 102.754C53.3733 102.754 53.756 102.539 54.1573 102.11L54.1853 101.074L52.7013 101.396ZM65.3407 101.13L65.3827 102.306C65.3827 102.465 65.4014 102.577 65.4387 102.642C65.4854 102.698 65.5647 102.726 65.6767 102.726C65.7794 102.726 65.9054 102.707 66.0547 102.67L66.1807 102.782L66.0267 103.762C65.7094 103.958 65.364 104.075 64.9907 104.112C64.7014 104.084 64.4587 103.986 64.2627 103.818C64.0667 103.65 63.9314 103.421 63.8567 103.132H63.7447C63.2874 103.552 62.8207 103.874 62.3447 104.098C61.43 104.098 60.7207 103.809 60.2167 103.23C59.7127 102.642 59.4607 101.83 59.4607 100.794C59.4607 99.6927 59.75 98.848 60.3287 98.26C60.9074 97.672 61.71 97.378 62.7367 97.378C63.0074 97.378 63.306 97.406 63.6327 97.462L63.6047 94.312L65.4527 94.172L65.3407 101.13ZM62.6107 98.638C61.6774 98.638 61.2107 99.2307 61.2107 100.416C61.2107 101.153 61.3227 101.709 61.5467 102.082C61.7707 102.455 62.0974 102.642 62.5267 102.642C62.9374 102.642 63.3154 102.451 63.6607 102.068L63.6887 101.298L63.6467 98.89C63.2827 98.722 62.9374 98.638 62.6107 98.638ZM72.3178 100.976L68.5378 101.004C68.6218 102.171 69.2145 102.754 70.3158 102.754C70.8945 102.754 71.5385 102.591 72.2478 102.264L72.4018 102.362L72.1218 103.748C71.4125 104.009 70.7452 104.14 70.1198 104.14C69.0932 104.14 68.2858 103.841 67.6978 103.244C67.1192 102.647 66.8298 101.821 66.8298 100.766C66.8298 99.7207 67.1145 98.8947 67.6838 98.288C68.2532 97.672 69.0232 97.364 69.9938 97.364C70.8245 97.364 71.4638 97.5927 71.9118 98.05C72.3692 98.498 72.5978 99.128 72.5978 99.94C72.5978 100.155 72.5745 100.425 72.5278 100.752L72.3178 100.976ZM70.9738 99.73C70.9738 99.3567 70.8898 99.0767 70.7218 98.89C70.5538 98.694 70.3065 98.596 69.9798 98.596C69.6158 98.596 69.3125 98.7173 69.0698 98.96C68.8272 99.1933 68.6638 99.534 68.5798 99.982L70.9458 99.926L70.9738 99.73ZM79.8645 94.928C81.1712 94.928 82.1745 95.292 82.8745 96.02C83.5745 96.748 83.9245 97.7933 83.9245 99.156C83.9245 100.752 83.5325 101.975 82.7485 102.824C81.9645 103.673 80.8445 104.098 79.3885 104.098C78.9498 104.098 78.4225 104.089 77.8065 104.07C77.1998 104.051 76.6772 104.028 76.2385 104L76.3365 101.312L76.2385 94.984L79.8645 94.928ZM79.7245 102.628C81.2085 102.628 81.9505 101.615 81.9505 99.59C81.9505 98.4887 81.7685 97.6907 81.4045 97.196C81.0498 96.692 80.4898 96.44 79.7245 96.44C79.2298 96.44 78.7025 96.4633 78.1425 96.51L78.0585 101.144L78.1005 102.53C78.7538 102.595 79.2952 102.628 79.7245 102.628ZM90.1596 100.976L86.3796 101.004C86.4636 102.171 87.0563 102.754 88.1576 102.754C88.7363 102.754 89.3803 102.591 90.0896 102.264L90.2436 102.362L89.9636 103.748C89.2543 104.009 88.587 104.14 87.9616 104.14C86.935 104.14 86.1276 103.841 85.5396 103.244C84.961 102.647 84.6716 101.821 84.6716 100.766C84.6716 99.7207 84.9563 98.8947 85.5256 98.288C86.095 97.672 86.865 97.364 87.8356 97.364C88.6663 97.364 89.3056 97.5927 89.7536 98.05C90.211 98.498 90.4396 99.128 90.4396 99.94C90.4396 100.155 90.4163 100.425 90.3696 100.752L90.1596 100.976ZM88.8156 99.73C88.8156 99.3567 88.7316 99.0767 88.5636 98.89C88.3956 98.694 88.1483 98.596 87.8216 98.596C87.4576 98.596 87.1543 98.7173 86.9116 98.96C86.669 99.1933 86.5056 99.534 86.4216 99.982L88.7876 99.926L88.8156 99.73ZM93.9071 97.378C94.5418 97.378 95.1391 97.4853 95.6991 97.7L95.4471 99.072L95.2231 99.142C94.9525 98.9647 94.6818 98.8293 94.4111 98.736C94.1405 98.6427 93.9025 98.596 93.6971 98.596C93.4731 98.596 93.2958 98.6567 93.1651 98.778C93.0345 98.89 92.9691 99.03 92.9691 99.198C92.9691 99.394 93.0531 99.5527 93.2211 99.674C93.3985 99.7953 93.6738 99.9307 94.0471 100.08C94.4205 100.229 94.7285 100.374 94.9711 100.514C95.2138 100.654 95.4191 100.85 95.5871 101.102C95.7645 101.345 95.8531 101.648 95.8531 102.012C95.8531 102.385 95.7551 102.735 95.5591 103.062C95.3725 103.379 95.0831 103.641 94.6911 103.846C94.2991 104.042 93.8185 104.14 93.2491 104.14C92.5771 104.14 91.8818 104 91.1631 103.72L91.3731 102.264L91.5551 102.152C91.8445 102.395 92.1665 102.591 92.5211 102.74C92.8758 102.88 93.1885 102.95 93.4591 102.95C93.7111 102.95 93.9071 102.889 94.0471 102.768C94.1871 102.637 94.2571 102.483 94.2571 102.306C94.2571 102.11 94.1685 101.951 93.9911 101.83C93.8231 101.709 93.5525 101.573 93.1791 101.424C92.7965 101.256 92.4838 101.107 92.2411 100.976C91.9985 100.836 91.7885 100.64 91.6111 100.388C91.4431 100.136 91.3591 99.8233 91.3591 99.45C91.3591 98.8433 91.5878 98.3487 92.0451 97.966C92.5025 97.574 93.1231 97.378 93.9071 97.378ZM99.7702 97.364C100.078 97.364 100.382 97.3967 100.68 97.462C100.988 97.518 101.259 97.602 101.492 97.714L101.184 99.198L101.03 99.268C100.554 99.0067 100.13 98.876 99.7562 98.876C99.3269 98.876 98.9955 99.03 98.7622 99.338C98.5289 99.646 98.4122 100.085 98.4122 100.654C98.4122 101.307 98.5382 101.807 98.7902 102.152C99.0422 102.497 99.4015 102.67 99.8682 102.67C100.288 102.67 100.755 102.553 101.268 102.32L101.408 102.432L101.226 103.874C100.666 104.051 100.092 104.14 99.5042 104.14C98.6082 104.14 97.9082 103.851 97.4042 103.272C96.9002 102.684 96.6482 101.867 96.6482 100.822C96.6482 99.7393 96.9235 98.8947 97.4742 98.288C98.0249 97.672 98.7902 97.364 99.7702 97.364ZM104.908 97.364C105.627 97.364 106.187 97.5273 106.588 97.854C106.999 98.1713 107.204 98.6193 107.204 99.198C107.204 99.366 107.176 99.898 107.12 100.794C107.111 101.055 107.097 101.326 107.078 101.606C107.06 101.877 107.05 102.11 107.05 102.306C107.05 102.465 107.074 102.577 107.12 102.642C107.167 102.698 107.251 102.726 107.372 102.726C107.466 102.726 107.587 102.707 107.736 102.67L107.876 102.782L107.708 103.762C107.41 103.958 107.069 104.075 106.686 104.112C106.406 104.084 106.173 103.986 105.986 103.818C105.8 103.641 105.674 103.398 105.608 103.09H105.51C105.044 103.585 104.563 103.93 104.068 104.126C103.396 104.117 102.869 103.939 102.486 103.594C102.104 103.249 101.912 102.777 101.912 102.18C101.912 101.713 102.029 101.349 102.262 101.088C102.505 100.817 102.869 100.635 103.354 100.542L105.496 100.136V99.562C105.496 98.9553 105.198 98.652 104.6 98.652C104.311 98.652 104.003 98.7173 103.676 98.848C103.359 98.9787 103 99.184 102.598 99.464L102.458 99.38L102.248 98.148C102.65 97.896 103.079 97.7047 103.536 97.574C103.994 97.434 104.451 97.364 104.908 97.364ZM103.998 101.396C103.849 101.433 103.737 101.499 103.662 101.592C103.597 101.676 103.564 101.807 103.564 101.984C103.564 102.227 103.63 102.418 103.76 102.558C103.891 102.689 104.073 102.754 104.306 102.754C104.67 102.754 105.053 102.539 105.454 102.11L105.482 101.074L103.998 101.396ZM112.602 97.476C112.686 97.476 112.803 97.4853 112.952 97.504V99.226L112.756 99.296C112.598 99.2307 112.425 99.198 112.238 99.198C111.697 99.198 111.207 99.548 110.768 100.248V101.13L110.866 104H109.004L109.116 101.312L109.032 97.616L110.796 97.462L110.782 98.736H110.894C111.352 97.896 111.921 97.476 112.602 97.476ZM116.558 102.628C116.857 102.628 117.17 102.549 117.496 102.39L117.65 102.53L117.468 103.636C116.992 103.879 116.507 104.028 116.012 104.084C114.752 103.953 114.122 103.337 114.122 102.236L114.192 101.074L114.178 98.666H113.31L113.24 98.568L113.338 97.546H114.164V96.468L115.858 95.922L115.984 96.034L115.942 97.546H117.608L117.664 97.644L117.58 98.666H115.914L115.83 101.802C115.83 102.101 115.886 102.315 115.998 102.446C116.11 102.567 116.297 102.628 116.558 102.628ZM123.601 100.976L119.821 101.004C119.905 102.171 120.498 102.754 121.599 102.754C122.178 102.754 122.822 102.591 123.531 102.264L123.685 102.362L123.405 103.748C122.696 104.009 122.028 104.14 121.403 104.14C120.376 104.14 119.569 103.841 118.981 103.244C118.402 102.647 118.113 101.821 118.113 100.766C118.113 99.7207 118.398 98.8947 118.967 98.288C119.536 97.672 120.306 97.364 121.277 97.364C122.108 97.364 122.747 97.5927 123.195 98.05C123.652 98.498 123.881 99.128 123.881 99.94C123.881 100.155 123.858 100.425 123.811 100.752L123.601 100.976ZM122.257 99.73C122.257 99.3567 122.173 99.0767 122.005 98.89C121.837 98.694 121.59 98.596 121.263 98.596C120.899 98.596 120.596 98.7173 120.353 98.96C120.11 99.1933 119.947 99.534 119.863 99.982L122.229 99.926L122.257 99.73ZM129.986 97.364C130.938 97.364 131.666 97.644 132.17 98.204C132.674 98.764 132.926 99.5713 132.926 100.626C132.926 101.765 132.655 102.637 132.114 103.244C131.572 103.841 130.793 104.14 129.776 104.14C128.824 104.14 128.096 103.86 127.592 103.3C127.088 102.74 126.836 101.933 126.836 100.878C126.836 99.7393 127.106 98.8713 127.648 98.274C128.189 97.6673 128.968 97.364 129.986 97.364ZM129.86 98.624C129.412 98.624 129.085 98.7733 128.88 99.072C128.684 99.3707 128.586 99.8513 128.586 100.514C128.586 101.373 128.688 101.984 128.894 102.348C129.099 102.712 129.435 102.894 129.902 102.894C130.35 102.894 130.672 102.749 130.868 102.46C131.073 102.161 131.176 101.676 131.176 101.004C131.176 100.155 131.068 99.548 130.854 99.184C130.648 98.8107 130.317 98.624 129.86 98.624ZM140.418 102.782L140.25 103.762C139.904 103.986 139.55 104.103 139.186 104.112C138.915 104.065 138.691 103.958 138.514 103.79C138.336 103.622 138.201 103.379 138.108 103.062H137.982C137.45 103.585 136.899 103.925 136.33 104.084C135.62 104.084 135.079 103.925 134.706 103.608C134.342 103.281 134.164 102.815 134.174 102.208L134.202 100.556L134.132 97.616L135.938 97.462L135.896 101.592C135.886 101.919 135.952 102.166 136.092 102.334C136.232 102.502 136.442 102.586 136.722 102.586C137.132 102.586 137.538 102.404 137.94 102.04V97.616L139.718 97.462L139.592 102.306C139.592 102.455 139.615 102.563 139.662 102.628C139.718 102.693 139.802 102.726 139.914 102.726C140.016 102.726 140.142 102.707 140.292 102.67L140.418 102.782ZM55.7817 116.976L52.0017 117.004C52.0857 118.171 52.6784 118.754 53.7797 118.754C54.3584 118.754 55.0024 118.591 55.7117 118.264L55.8657 118.362L55.5857 119.748C54.8764 120.009 54.209 120.14 53.5837 120.14C52.557 120.14 51.7497 119.841 51.1617 119.244C50.583 118.647 50.2937 117.821 50.2937 116.766C50.2937 115.721 50.5784 114.895 51.1477 114.288C51.717 113.672 52.487 113.364 53.4577 113.364C54.2884 113.364 54.9277 113.593 55.3757 114.05C55.833 114.498 56.0617 115.128 56.0617 115.94C56.0617 116.155 56.0384 116.425 55.9917 116.752L55.7817 116.976ZM54.4377 115.73C54.4377 115.357 54.3537 115.077 54.1857 114.89C54.0177 114.694 53.7704 114.596 53.4437 114.596C53.0797 114.596 52.7764 114.717 52.5337 114.96C52.291 115.193 52.1277 115.534 52.0437 115.982L54.4097 115.926L54.4377 115.73ZM65.1432 120L65.2552 115.94C65.2552 115.249 64.9612 114.904 64.3732 114.904C63.9532 114.904 63.5145 115.091 63.0572 115.464L63.0152 117.144L63.0992 120H61.2372L61.3492 115.94C61.3585 115.604 61.2839 115.347 61.1252 115.17C60.9759 114.993 60.7565 114.904 60.4672 114.904C60.0565 114.904 59.6039 115.1 59.1092 115.492V117.13L59.1932 120H57.3452L57.4432 117.312L57.3732 113.616L59.1232 113.462V114.414H59.2212C59.7345 113.947 60.2992 113.611 60.9152 113.406C61.9605 113.406 62.6279 113.756 62.9172 114.456H63.0012C63.5332 113.961 64.1399 113.611 64.8212 113.406C65.5305 113.406 66.0672 113.569 66.4312 113.896C66.8045 114.213 66.9819 114.675 66.9632 115.282L66.9212 117.144L67.0052 120H65.1432ZM72.1522 113.406C72.9735 113.406 73.5988 113.686 74.0282 114.246C74.4668 114.797 74.6862 115.567 74.6862 116.556C74.6862 117.704 74.4015 118.591 73.8322 119.216C73.2628 119.832 72.4742 120.14 71.4662 120.14C70.9902 120.14 70.4675 120.033 69.8982 119.818L68.9182 120.168L68.6942 119.986L68.7922 117.326L68.7082 110.312L70.5562 110.172L70.5002 114.414H70.5842C70.8455 114.162 71.0975 113.961 71.3402 113.812C71.5828 113.653 71.8535 113.518 72.1522 113.406ZM71.4662 118.922C71.9328 118.922 72.2968 118.754 72.5582 118.418C72.8195 118.082 72.9502 117.569 72.9502 116.878C72.9502 116.234 72.8428 115.744 72.6282 115.408C72.4228 115.072 72.1102 114.904 71.6902 114.904C71.3075 114.904 70.9062 115.1 70.4862 115.492L70.4582 117.088L70.4862 118.67C70.8315 118.838 71.1582 118.922 71.4662 118.922ZM78.5283 113.364C79.247 113.364 79.807 113.527 80.2083 113.854C80.619 114.171 80.8243 114.619 80.8243 115.198C80.8243 115.366 80.7963 115.898 80.7403 116.794C80.731 117.055 80.717 117.326 80.6983 117.606C80.6796 117.877 80.6703 118.11 80.6703 118.306C80.6703 118.465 80.6936 118.577 80.7403 118.642C80.787 118.698 80.871 118.726 80.9923 118.726C81.0856 118.726 81.207 118.707 81.3563 118.67L81.4963 118.782L81.3283 119.762C81.0296 119.958 80.689 120.075 80.3063 120.112C80.0263 120.084 79.793 119.986 79.6063 119.818C79.4196 119.641 79.2936 119.398 79.2283 119.09H79.1303C78.6636 119.585 78.183 119.93 77.6883 120.126C77.0163 120.117 76.489 119.939 76.1063 119.594C75.7236 119.249 75.5323 118.777 75.5323 118.18C75.5323 117.713 75.649 117.349 75.8823 117.088C76.125 116.817 76.489 116.635 76.9743 116.542L79.1163 116.136V115.562C79.1163 114.955 78.8176 114.652 78.2203 114.652C77.931 114.652 77.623 114.717 77.2963 114.848C76.979 114.979 76.6196 115.184 76.2183 115.464L76.0783 115.38L75.8683 114.148C76.2696 113.896 76.699 113.705 77.1563 113.574C77.6136 113.434 78.071 113.364 78.5283 113.364ZM77.6183 117.396C77.469 117.433 77.357 117.499 77.2823 117.592C77.217 117.676 77.1843 117.807 77.1843 117.984C77.1843 118.227 77.2496 118.418 77.3803 118.558C77.511 118.689 77.693 118.754 77.9263 118.754C78.2903 118.754 78.673 118.539 79.0743 118.11L79.1023 117.074L77.6183 117.396ZM84.5265 117.13L84.6245 120H82.7625L82.8605 117.298L82.7765 110.312L84.6385 110.172L84.5265 117.13ZM88.9463 113.364C89.6649 113.364 90.2249 113.527 90.6263 113.854C91.0369 114.171 91.2423 114.619 91.2423 115.198C91.2423 115.366 91.2143 115.898 91.1583 116.794C91.1489 117.055 91.1349 117.326 91.1163 117.606C91.0976 117.877 91.0883 118.11 91.0883 118.306C91.0883 118.465 91.1116 118.577 91.1583 118.642C91.2049 118.698 91.2889 118.726 91.4103 118.726C91.5036 118.726 91.6249 118.707 91.7743 118.67L91.9143 118.782L91.7463 119.762C91.4476 119.958 91.1069 120.075 90.7243 120.112C90.4443 120.084 90.2109 119.986 90.0243 119.818C89.8376 119.641 89.7116 119.398 89.6463 119.09H89.5483C89.0816 119.585 88.6009 119.93 88.1063 120.126C87.4343 120.117 86.9069 119.939 86.5243 119.594C86.1416 119.249 85.9503 118.777 85.9503 118.18C85.9503 117.713 86.0669 117.349 86.3003 117.088C86.5429 116.817 86.9069 116.635 87.3923 116.542L89.5343 116.136V115.562C89.5343 114.955 89.2356 114.652 88.6383 114.652C88.3489 114.652 88.0409 114.717 87.7143 114.848C87.3969 114.979 87.0376 115.184 86.6363 115.464L86.4963 115.38L86.2863 114.148C86.6876 113.896 87.1169 113.705 87.5743 113.574C88.0316 113.434 88.4889 113.364 88.9463 113.364ZM88.0363 117.396C87.8869 117.433 87.7749 117.499 87.7003 117.592C87.6349 117.676 87.6023 117.807 87.6023 117.984C87.6023 118.227 87.6676 118.418 87.7983 118.558C87.9289 118.689 88.1109 118.754 88.3443 118.754C88.7083 118.754 89.0909 118.539 89.4923 118.11L89.5203 117.074L88.0363 117.396ZM99.3825 114.372C99.1305 114.437 98.7712 114.507 98.3045 114.582L98.2765 114.638C98.4165 114.918 98.4865 115.231 98.4865 115.576C98.4865 116.276 98.2298 116.836 97.7165 117.256C97.2125 117.667 96.5265 117.872 95.6585 117.872C95.3972 117.872 95.1265 117.849 94.8465 117.802C94.7625 117.886 94.7065 117.951 94.6785 117.998C94.6505 118.045 94.6365 118.101 94.6365 118.166C94.6365 118.334 94.7485 118.451 94.9725 118.516C95.1965 118.581 95.5512 118.647 96.0365 118.712C96.5872 118.777 97.0445 118.857 97.4085 118.95C97.7818 119.043 98.0992 119.207 98.3605 119.44C98.6312 119.673 98.7665 120.005 98.7665 120.434C98.7665 120.873 98.6265 121.265 98.3465 121.61C98.0758 121.965 97.6978 122.24 97.2125 122.436C96.7272 122.632 96.1765 122.73 95.5605 122.73C94.7112 122.73 94.0578 122.557 93.6005 122.212C93.1432 121.867 92.9145 121.409 92.9145 120.84C93.2038 120.439 93.5912 120.089 94.0765 119.79V119.72C93.7592 119.608 93.5118 119.454 93.3345 119.258C93.1572 119.053 93.0685 118.782 93.0685 118.446C93.3205 118.138 93.6378 117.853 94.0205 117.592V117.522C93.6845 117.335 93.4278 117.093 93.2505 116.794C93.0825 116.486 92.9985 116.127 92.9985 115.716C92.9985 114.988 93.2505 114.419 93.7545 114.008C94.2585 113.597 94.9445 113.392 95.8125 113.392C96.3165 113.392 96.7738 113.476 97.1845 113.644C97.8565 113.523 98.5425 113.336 99.2425 113.084L99.3825 113.21V114.372ZM95.7145 116.752C96.0972 116.752 96.3865 116.654 96.5825 116.458C96.7785 116.262 96.8765 115.977 96.8765 115.604C96.8765 114.895 96.5125 114.54 95.7845 114.54C95.0005 114.54 94.6085 114.899 94.6085 115.618C94.6085 115.991 94.7018 116.276 94.8885 116.472C95.0752 116.659 95.3505 116.752 95.7145 116.752ZM97.1985 120.77C97.1985 120.518 97.0632 120.345 96.7925 120.252C96.5312 120.159 96.1252 120.079 95.5745 120.014L95.0985 119.944C94.8745 120.093 94.7065 120.238 94.5945 120.378C94.4825 120.518 94.4265 120.667 94.4265 120.826C94.4265 121.069 94.5385 121.265 94.7625 121.414C94.9865 121.563 95.3132 121.638 95.7425 121.638C96.1812 121.638 96.5312 121.559 96.7925 121.4C97.0632 121.251 97.1985 121.041 97.1985 120.77ZM105.11 116.976L101.33 117.004C101.414 118.171 102.006 118.754 103.108 118.754C103.686 118.754 104.33 118.591 105.04 118.264L105.194 118.362L104.914 119.748C104.204 120.009 103.537 120.14 102.912 120.14C101.885 120.14 101.078 119.841 100.49 119.244C99.9112 118.647 99.6218 117.821 99.6218 116.766C99.6218 115.721 99.9065 114.895 100.476 114.288C101.045 113.672 101.815 113.364 102.786 113.364C103.616 113.364 104.256 113.593 104.704 114.05C105.161 114.498 105.39 115.128 105.39 115.94C105.39 116.155 105.366 116.425 105.32 116.752L105.11 116.976ZM103.766 115.73C103.766 115.357 103.682 115.077 103.514 114.89C103.346 114.694 103.098 114.596 102.772 114.596C102.408 114.596 102.104 114.717 101.862 114.96C101.619 115.193 101.456 115.534 101.372 115.982L103.738 115.926L103.766 115.73ZM114.471 120L114.583 115.94C114.583 115.249 114.289 114.904 113.701 114.904C113.281 114.904 112.843 115.091 112.385 115.464L112.343 117.144L112.427 120H110.565L110.677 115.94C110.687 115.604 110.612 115.347 110.453 115.17C110.304 114.993 110.085 114.904 109.795 114.904C109.385 114.904 108.932 115.1 108.437 115.492V117.13L108.521 120H106.673L106.771 117.312L106.701 113.616L108.451 113.462V114.414H108.549C109.063 113.947 109.627 113.611 110.243 113.406C111.289 113.406 111.956 113.756 112.245 114.456H112.329C112.861 113.961 113.468 113.611 114.149 113.406C114.859 113.406 115.395 113.569 115.759 113.896C116.133 114.213 116.31 114.675 116.291 115.282L116.249 117.144L116.333 120H114.471ZM60.075 129.476C60.159 129.476 60.2757 129.485 60.425 129.504V131.226L60.229 131.296C60.0704 131.231 59.8977 131.198 59.711 131.198C59.1697 131.198 58.6797 131.548 58.241 132.248V133.13L58.339 136H56.477L56.589 133.312L56.505 129.616L58.269 129.462L58.255 130.736H58.367C58.8244 129.896 59.3937 129.476 60.075 129.476ZM66.3842 132.976L62.6042 133.004C62.6882 134.171 63.2809 134.754 64.3822 134.754C64.9609 134.754 65.6049 134.591 66.3142 134.264L66.4682 134.362L66.1882 135.748C65.4789 136.009 64.8116 136.14 64.1862 136.14C63.1596 136.14 62.3522 135.841 61.7642 135.244C61.1856 134.647 60.8962 133.821 60.8962 132.766C60.8962 131.721 61.1809 130.895 61.7502 130.288C62.3196 129.672 63.0896 129.364 64.0602 129.364C64.8909 129.364 65.5302 129.593 65.9782 130.05C66.4356 130.498 66.6642 131.128 66.6642 131.94C66.6642 132.155 66.6409 132.425 66.5942 132.752L66.3842 132.976ZM65.0402 131.73C65.0402 131.357 64.9562 131.077 64.7882 130.89C64.6202 130.694 64.3729 130.596 64.0462 130.596C63.6822 130.596 63.3789 130.717 63.1362 130.96C62.8936 131.193 62.7302 131.534 62.6462 131.982L65.0122 131.926L65.0402 131.73ZM70.1318 129.378C70.7664 129.378 71.3638 129.485 71.9238 129.7L71.6718 131.072L71.4478 131.142C71.1771 130.965 70.9064 130.829 70.6358 130.736C70.3651 130.643 70.1271 130.596 69.9218 130.596C69.6978 130.596 69.5204 130.657 69.3898 130.778C69.2591 130.89 69.1938 131.03 69.1938 131.198C69.1938 131.394 69.2778 131.553 69.4458 131.674C69.6231 131.795 69.8984 131.931 70.2718 132.08C70.6451 132.229 70.9531 132.374 71.1958 132.514C71.4384 132.654 71.6438 132.85 71.8118 133.102C71.9891 133.345 72.0778 133.648 72.0778 134.012C72.0778 134.385 71.9798 134.735 71.7838 135.062C71.5971 135.379 71.3078 135.641 70.9158 135.846C70.5238 136.042 70.0431 136.14 69.4738 136.14C68.8018 136.14 68.1064 136 67.3878 135.72L67.5978 134.264L67.7798 134.152C68.0691 134.395 68.3911 134.591 68.7458 134.74C69.1004 134.88 69.4131 134.95 69.6838 134.95C69.9358 134.95 70.1318 134.889 70.2718 134.768C70.4118 134.637 70.4818 134.483 70.4818 134.306C70.4818 134.11 70.3931 133.951 70.2158 133.83C70.0478 133.709 69.7771 133.573 69.4038 133.424C69.0211 133.256 68.7084 133.107 68.4658 132.976C68.2231 132.836 68.0131 132.64 67.8358 132.388C67.6678 132.136 67.5838 131.823 67.5838 131.45C67.5838 130.843 67.8124 130.349 68.2698 129.966C68.7271 129.574 69.3478 129.378 70.1318 129.378ZM73.4468 133.312L73.3768 129.616L75.2108 129.462L75.1268 133.13L75.2108 136H73.3488L73.4468 133.312ZM74.3288 126.298C74.6181 126.298 74.8421 126.382 75.0008 126.55C75.1688 126.718 75.2528 126.951 75.2528 127.25C75.2528 127.567 75.1641 127.819 74.9868 128.006C74.8095 128.193 74.5668 128.286 74.2588 128.286C73.9508 128.286 73.7128 128.202 73.5448 128.034C73.3861 127.866 73.3068 127.628 73.3068 127.32C73.3068 127.012 73.3955 126.765 73.5728 126.578C73.7595 126.391 74.0115 126.298 74.3288 126.298ZM79.1552 129.378C79.7899 129.378 80.3872 129.485 80.9472 129.7L80.6952 131.072L80.4712 131.142C80.2005 130.965 79.9299 130.829 79.6592 130.736C79.3885 130.643 79.1505 130.596 78.9452 130.596C78.7212 130.596 78.5439 130.657 78.4132 130.778C78.2825 130.89 78.2172 131.03 78.2172 131.198C78.2172 131.394 78.3012 131.553 78.4692 131.674C78.6465 131.795 78.9219 131.931 79.2952 132.08C79.6685 132.229 79.9765 132.374 80.2192 132.514C80.4619 132.654 80.6672 132.85 80.8352 133.102C81.0125 133.345 81.1012 133.648 81.1012 134.012C81.1012 134.385 81.0032 134.735 80.8072 135.062C80.6205 135.379 80.3312 135.641 79.9392 135.846C79.5472 136.042 79.0665 136.14 78.4972 136.14C77.8252 136.14 77.1299 136 76.4112 135.72L76.6212 134.264L76.8032 134.152C77.0925 134.395 77.4145 134.591 77.7692 134.74C78.1239 134.88 78.4365 134.95 78.7072 134.95C78.9592 134.95 79.1552 134.889 79.2952 134.768C79.4352 134.637 79.5052 134.483 79.5052 134.306C79.5052 134.11 79.4165 133.951 79.2392 133.83C79.0712 133.709 78.8005 133.573 78.4272 133.424C78.0445 133.256 77.7319 133.107 77.4892 132.976C77.2465 132.836 77.0365 132.64 76.8592 132.388C76.6912 132.136 76.6072 131.823 76.6072 131.45C76.6072 130.843 76.8359 130.349 77.2932 129.966C77.7505 129.574 78.3712 129.378 79.1552 129.378ZM84.9762 134.628C85.2749 134.628 85.5876 134.549 85.9142 134.39L86.0682 134.53L85.8862 135.636C85.4102 135.879 84.9249 136.028 84.4302 136.084C83.1702 135.953 82.5402 135.337 82.5402 134.236L82.6102 133.074L82.5962 130.666H81.7282L81.6582 130.568L81.7562 129.546H82.5822V128.468L84.2762 127.922L84.4022 128.034L84.3602 129.546H86.0262L86.0822 129.644L85.9982 130.666H84.3322L84.2482 133.802C84.2482 134.101 84.3042 134.315 84.4162 134.446C84.5282 134.567 84.7149 134.628 84.9762 134.628ZM92.019 132.976L88.239 133.004C88.323 134.171 88.9157 134.754 90.017 134.754C90.5957 134.754 91.2397 134.591 91.949 134.264L92.103 134.362L91.823 135.748C91.1137 136.009 90.4463 136.14 89.821 136.14C88.7943 136.14 87.987 135.841 87.399 135.244C86.8203 134.647 86.531 133.821 86.531 132.766C86.531 131.721 86.8157 130.895 87.385 130.288C87.9543 129.672 88.7243 129.364 89.695 129.364C90.5257 129.364 91.165 129.593 91.613 130.05C92.0703 130.498 92.299 131.128 92.299 131.94C92.299 132.155 92.2757 132.425 92.229 132.752L92.019 132.976ZM90.675 131.73C90.675 131.357 90.591 131.077 90.423 130.89C90.255 130.694 90.0077 130.596 89.681 130.596C89.317 130.596 89.0137 130.717 88.771 130.96C88.5283 131.193 88.365 131.534 88.281 131.982L90.647 131.926L90.675 131.73ZM97.5865 131.94C97.5958 131.613 97.5212 131.361 97.3625 131.184C97.2132 130.997 96.9938 130.904 96.7045 130.904C96.2845 130.904 95.8365 131.105 95.3605 131.506V133.13L95.4445 136H93.5825L93.6805 133.312L93.6105 129.616L95.3745 129.462V130.414H95.4725C95.9858 129.947 96.5458 129.611 97.1525 129.406C97.8618 129.406 98.4032 129.569 98.7765 129.896C99.1498 130.213 99.3272 130.675 99.3085 131.282L99.2665 133.144L99.3505 136H97.4745L97.5865 131.94ZM103.625 134.628C103.923 134.628 104.236 134.549 104.563 134.39L104.717 134.53L104.535 135.636C104.059 135.879 103.573 136.028 103.079 136.084C101.819 135.953 101.189 135.337 101.189 134.236L101.259 133.074L101.245 130.666H100.377L100.307 130.568L100.405 129.546H101.231V128.468L102.925 127.922L103.051 128.034L103.009 129.546H104.675L104.731 129.644L104.647 130.666H102.981L102.897 133.802C102.897 134.101 102.953 134.315 103.065 134.446C103.177 134.567 103.363 134.628 103.625 134.628ZM110.667 132.976L106.887 133.004C106.971 134.171 107.564 134.754 108.665 134.754C109.244 134.754 109.888 134.591 110.597 134.264L110.751 134.362L110.471 135.748C109.762 136.009 109.095 136.14 108.469 136.14C107.443 136.14 106.635 135.841 106.047 135.244C105.469 134.647 105.179 133.821 105.179 132.766C105.179 131.721 105.464 130.895 106.033 130.288C106.603 129.672 107.373 129.364 108.343 129.364C109.174 129.364 109.813 129.593 110.261 130.05C110.719 130.498 110.947 131.128 110.947 131.94C110.947 132.155 110.924 132.425 110.877 132.752L110.667 132.976ZM109.323 131.73C109.323 131.357 109.239 131.077 109.071 130.89C108.903 130.694 108.656 130.596 108.329 130.596C107.965 130.596 107.662 130.717 107.419 130.96C107.177 131.193 107.013 131.534 106.929 131.982L109.295 131.926L109.323 131.73Z" fill="white"/>
<defs>
<filter id="filter0_b_206:36868" x="3" y="67" width="161" height="97" filterUnits="userSpaceOnUse" color-interpolation-filters="sRGB">
<feFlood flood-opacity="0" result="BackgroundImageFix"/>
<feGaussianBlur in="BackgroundImage" stdDeviation="5"/>
<feComposite in2="SourceAlpha" operator="in" result="effect1_backgroundBlur_206:36868"/>
<feBlend mode="normal" in="SourceGraphic" in2="effect1_backgroundBlur_206:36868" result="shape"/>
</filter>
</defs>
</svg>
