<svg width="167" height="167" viewBox="0 0 167 167" fill="none" xmlns="http://www.w3.org/2000/svg">
<mask id="mask0_206:36812" style="mask-type:alpha" maskUnits="userSpaceOnUse" x="0" y="0" width="167" height="167">
<rect x="1" y="1" width="165" height="165" rx="8" fill="#5988D6" stroke="#EDE6FC" stroke-opacity="0.3"/>
</mask>
<g mask="url(#mask0_206:36812)">
<rect x="1" y="1" width="165" height="165" rx="8" fill="#A9D97A" stroke="#EDE6FC" stroke-opacity="0.3"/>
<path d="M84 104.524C109.865 104.524 130.832 83.5568 130.832 57.6921C130.832 31.8275 109.865 10.8601 84 10.8601C58.1354 10.8601 37.168 31.8275 37.168 57.6921C37.168 83.5568 58.1354 104.524 84 104.524Z" fill="#3E479B"/>
<path opacity="0.55" d="M84 100.255C107.507 100.255 126.563 81.1991 126.563 57.6921C126.563 34.1852 107.507 15.129 84 15.129C60.493 15.129 41.4369 34.1852 41.4369 57.6921C41.4369 81.1991 60.493 100.255 84 100.255Z" fill="white"/>
<path d="M84 95.9113C105.108 95.9113 122.219 78.8 122.219 57.6922C122.219 36.5843 105.108 19.473 84 19.473C62.8922 19.473 45.7809 36.5843 45.7809 57.6922C45.7809 78.8 62.8922 95.9113 84 95.9113Z" fill="white"/>
<path d="M83.973 21.1451H83.898C83.3492 21.1451 82.9043 21.59 82.9043 22.1388V27.1132C82.9043 27.662 83.3492 28.1069 83.898 28.1069H83.973C84.5218 28.1069 84.9667 27.662 84.9667 27.1132V22.1388C84.9667 21.59 84.5218 21.1451 83.973 21.1451Z" fill="#373449"/>
<path d="M84.1021 87.2773H84.027C83.4782 87.2773 83.0333 87.7222 83.0333 88.271V93.2454C83.0333 93.7942 83.4782 94.2391 84.027 94.2391H84.1021C84.6508 94.2391 85.0957 93.7942 85.0957 93.2454V88.271C85.0957 87.7222 84.6508 87.2773 84.1021 87.2773Z" fill="#373449"/>
<path d="M120.547 57.6651V57.5901C120.547 57.0413 120.102 56.5964 119.553 56.5964H114.579C114.03 56.5964 113.585 57.0413 113.585 57.5901V57.6651C113.585 58.2139 114.03 58.6588 114.579 58.6588H119.553C120.102 58.6588 120.547 58.2139 120.547 57.6651Z" fill="#373449"/>
<path d="M54.4148 57.7942V57.7191C54.4148 57.1703 53.9699 56.7255 53.4211 56.7255H48.4467C47.8979 56.7255 47.453 57.1703 47.453 57.7191V57.7942C47.453 58.343 47.8979 58.7879 48.4467 58.7879H53.4211C53.9699 58.7879 54.4148 58.343 54.4148 57.7942Z" fill="#373449"/>
<path d="M109.05 32.6016L108.997 32.5485C108.61 32.1603 107.98 32.1601 107.592 32.548L105.774 34.3644C105.386 34.7524 105.386 35.3815 105.774 35.7697L105.827 35.8228C106.215 36.211 106.844 36.2112 107.232 35.8233L109.05 34.0068C109.438 33.6189 109.438 32.9897 109.05 32.6016Z" fill="#373449"/>
<path d="M62.6003 79.2248L62.5472 79.1718C62.1593 78.7836 61.5302 78.7833 61.142 79.1713L58.9059 81.4058C58.5177 81.7937 58.5175 82.4228 58.9054 82.811L58.9585 82.8641C59.3464 83.2523 59.9756 83.2525 60.3637 82.8646L62.5998 80.6301C62.988 80.2422 62.9882 79.613 62.6003 79.2248Z" fill="#373449"/>
<path d="M109.096 82.7711L109.149 82.7181C109.537 82.3302 109.537 81.701 109.15 81.3128L107.333 79.4951C106.945 79.1069 106.316 79.1067 105.928 79.4946L105.875 79.5476C105.487 79.9356 105.486 80.5647 105.874 80.9529L107.691 82.7706C108.079 83.1588 108.708 83.159 109.096 82.7711Z" fill="#373449"/>
<path d="M62.4641 36.326L62.5172 36.273C62.9054 35.885 62.9056 35.2559 62.5177 34.8677L60.2832 32.6316C59.8953 32.2434 59.2661 32.2432 58.8779 32.6311L58.8248 32.6842C58.4366 33.0721 58.4364 33.7013 58.8243 34.0894L61.0588 36.3255C61.4468 36.7137 62.0759 36.7139 62.4641 36.326Z" fill="#373449"/>
<path d="M84.03 32.0906H83.9429C83.3377 32.0906 82.8472 32.5812 82.8472 33.1864V57.1878C82.8472 57.793 83.3377 58.2836 83.9429 58.2836H84.03C84.6351 58.2836 85.1257 57.793 85.1257 57.1878V33.1864C85.1257 32.5812 84.6351 32.0906 84.03 32.0906Z" fill="#3E479B"/>
<path d="M101.637 59.1812V59.0941C101.637 58.4889 101.147 57.9984 100.541 57.9984H83.943C83.3378 57.9984 82.8472 58.4889 82.8472 59.0941V59.1812C82.8472 59.7863 83.3378 60.2769 83.943 60.2769H100.541C101.147 60.2769 101.637 59.7863 101.637 59.1812Z" fill="#3E479B"/>
<path d="M101.211 42.1985L84.129 57.5721" stroke="#373449" stroke-width="2" stroke-miterlimit="10" stroke-linecap="round"/>
<path d="M84 61.82C86.2797 61.82 88.1278 59.9719 88.1278 57.6922C88.1278 55.4124 86.2797 53.5643 84 53.5643C81.7203 53.5643 79.8722 55.4124 79.8722 57.6922C79.8722 59.9719 81.7203 61.82 84 61.82Z" fill="#4C65BA"/>
</g>
<g filter="url(#filter0_b_206:36812)">
<rect x="13" y="77" width="141" height="77" rx="10" fill="black" fill-opacity="0.8"/>
</g>
<path d="M29.7181 94.872C30.6981 94.872 31.5801 95.054 32.3641 95.418L31.9581 97.126L31.7761 97.154C31.3187 96.8927 30.9081 96.706 30.5441 96.594C30.1894 96.4727 29.8067 96.412 29.3961 96.412C28.5654 96.412 27.9587 96.6593 27.5761 97.154C27.1934 97.6487 27.0021 98.4607 27.0021 99.59C27.0021 100.337 27.0814 100.929 27.2401 101.368C27.4081 101.807 27.6647 102.129 28.0101 102.334C28.3554 102.53 28.8127 102.628 29.3821 102.628C29.5781 102.628 29.7601 102.614 29.9281 102.586C30.1054 102.558 30.3201 102.507 30.5721 102.432L30.6001 101.662L30.5721 100.234L32.3221 100.108L32.2801 101.368L32.3221 103.566C31.2021 103.939 30.1707 104.126 29.2281 104.126C27.8281 104.126 26.7734 103.743 26.0641 102.978C25.3641 102.213 25.0141 101.116 25.0141 99.688C25.0141 98.1293 25.4201 96.9393 26.2321 96.118C27.0534 95.2873 28.2154 94.872 29.7181 94.872ZM35.5265 101.13L35.6245 104H33.7625L33.8605 101.298L33.7765 94.312L35.6385 94.172L35.5265 101.13ZM37.5103 101.312L37.4403 97.616L39.2743 97.462L39.1903 101.13L39.2743 104H37.4123L37.5103 101.312ZM38.3923 94.298C38.6816 94.298 38.9056 94.382 39.0643 94.55C39.2323 94.718 39.3163 94.9513 39.3163 95.25C39.3163 95.5673 39.2276 95.8193 39.0503 96.006C38.8729 96.1927 38.6303 96.286 38.3223 96.286C38.0143 96.286 37.7763 96.202 37.6083 96.034C37.4496 95.866 37.3703 95.628 37.3703 95.32C37.3703 95.012 37.4589 94.7647 37.6363 94.578C37.8229 94.3913 38.0749 94.298 38.3923 94.298ZM43.7087 97.364C44.0167 97.364 44.32 97.3967 44.6187 97.462C44.9267 97.518 45.1973 97.602 45.4307 97.714L45.1227 99.198L44.9687 99.268C44.4927 99.0067 44.068 98.876 43.6947 98.876C43.2653 98.876 42.934 99.03 42.7007 99.338C42.4673 99.646 42.3507 100.085 42.3507 100.654C42.3507 101.307 42.4767 101.807 42.7287 102.152C42.9807 102.497 43.34 102.67 43.8067 102.67C44.2267 102.67 44.6933 102.553 45.2067 102.32L45.3467 102.432L45.1647 103.874C44.6047 104.051 44.0307 104.14 43.4427 104.14C42.5467 104.14 41.8467 103.851 41.3427 103.272C40.8387 102.684 40.5867 101.867 40.5867 100.822C40.5867 99.7393 40.862 98.8947 41.4127 98.288C41.9633 97.672 42.7287 97.364 43.7087 97.364ZM51.4614 100.976L47.6814 101.004C47.7654 102.171 48.358 102.754 49.4594 102.754C50.038 102.754 50.682 102.591 51.3914 102.264L51.5454 102.362L51.2654 103.748C50.556 104.009 49.8887 104.14 49.2634 104.14C48.2367 104.14 47.4294 103.841 46.8414 103.244C46.2627 102.647 45.9734 101.821 45.9734 100.766C45.9734 99.7207 46.258 98.8947 46.8274 98.288C47.3967 97.672 48.1667 97.364 49.1374 97.364C49.968 97.364 50.6074 97.5927 51.0554 98.05C51.5127 98.498 51.7414 99.128 51.7414 99.94C51.7414 100.155 51.718 100.425 51.6714 100.752L51.4614 100.976ZM50.1174 99.73C50.1174 99.3567 50.0334 99.0767 49.8654 98.89C49.6974 98.694 49.45 98.596 49.1234 98.596C48.7594 98.596 48.456 98.7173 48.2134 98.96C47.9707 99.1933 47.8074 99.534 47.7234 99.982L50.0894 99.926L50.1174 99.73ZM60.8229 104L60.9349 99.94C60.9349 99.2493 60.6409 98.904 60.0529 98.904C59.6329 98.904 59.1942 99.0907 58.7369 99.464L58.6949 101.144L58.7789 104H56.9169L57.0289 99.94C57.0382 99.604 56.9636 99.3473 56.8049 99.17C56.6556 98.9927 56.4362 98.904 56.1469 98.904C55.7362 98.904 55.2836 99.1 54.7889 99.492V101.13L54.8729 104H53.0249L53.1229 101.312L53.0529 97.616L54.8029 97.462V98.414H54.9009C55.4142 97.9473 55.9789 97.6113 56.5949 97.406C57.6402 97.406 58.3076 97.756 58.5969 98.456H58.6809C59.2129 97.9613 59.8196 97.6113 60.5009 97.406C61.2102 97.406 61.7469 97.5693 62.1109 97.896C62.4842 98.2133 62.6616 98.6753 62.6429 99.282L62.6009 101.144L62.6849 104H60.8229ZM64.4439 101.312L64.3739 97.616L66.2079 97.462L66.1239 101.13L66.2079 104H64.3459L64.4439 101.312ZM65.3259 94.298C65.6152 94.298 65.8392 94.382 65.9979 94.55C66.1659 94.718 66.2499 94.9513 66.2499 95.25C66.2499 95.5673 66.1612 95.8193 65.9839 96.006C65.8065 96.1927 65.5639 96.286 65.2559 96.286C64.9479 96.286 64.7099 96.202 64.5419 96.034C64.3832 95.866 64.3039 95.628 64.3039 95.32C64.3039 95.012 64.3925 94.7647 64.5699 94.578C64.7565 94.3913 65.0085 94.298 65.3259 94.298ZM70.5303 97.364C71.2489 97.364 71.8089 97.5273 72.2103 97.854C72.6209 98.1713 72.8263 98.6193 72.8263 99.198C72.8263 99.366 72.7983 99.898 72.7423 100.794C72.7329 101.055 72.7189 101.326 72.7003 101.606C72.6816 101.877 72.6723 102.11 72.6723 102.306C72.6723 102.465 72.6956 102.577 72.7423 102.642C72.7889 102.698 72.8729 102.726 72.9943 102.726C73.0876 102.726 73.2089 102.707 73.3583 102.67L73.4983 102.782L73.3303 103.762C73.0316 103.958 72.6909 104.075 72.3083 104.112C72.0283 104.084 71.7949 103.986 71.6083 103.818C71.4216 103.641 71.2956 103.398 71.2303 103.09H71.1323C70.6656 103.585 70.1849 103.93 69.6903 104.126C69.0183 104.117 68.4909 103.939 68.1083 103.594C67.7256 103.249 67.5343 102.777 67.5343 102.18C67.5343 101.713 67.6509 101.349 67.8843 101.088C68.1269 100.817 68.4909 100.635 68.9763 100.542L71.1183 100.136V99.562C71.1183 98.9553 70.8196 98.652 70.2223 98.652C69.9329 98.652 69.6249 98.7173 69.2983 98.848C68.9809 98.9787 68.6216 99.184 68.2203 99.464L68.0803 99.38L67.8703 98.148C68.2716 97.896 68.7009 97.7047 69.1583 97.574C69.6156 97.434 70.0729 97.364 70.5303 97.364ZM69.6203 101.396C69.4709 101.433 69.3589 101.499 69.2843 101.592C69.2189 101.676 69.1863 101.807 69.1863 101.984C69.1863 102.227 69.2516 102.418 69.3823 102.558C69.5129 102.689 69.6949 102.754 69.9283 102.754C70.2923 102.754 70.6749 102.539 71.0763 102.11L71.1043 101.074L69.6203 101.396ZM79.5016 97.364C79.8096 97.364 80.113 97.3967 80.4116 97.462C80.7196 97.518 80.9903 97.602 81.2236 97.714L80.9156 99.198L80.7616 99.268C80.2856 99.0067 79.861 98.876 79.4876 98.876C79.0583 98.876 78.727 99.03 78.4936 99.338C78.2603 99.646 78.1436 100.085 78.1436 100.654C78.1436 101.307 78.2696 101.807 78.5216 102.152C78.7736 102.497 79.133 102.67 79.5996 102.67C80.0196 102.67 80.4863 102.553 80.9996 102.32L81.1396 102.432L80.9576 103.874C80.3976 104.051 79.8236 104.14 79.2356 104.14C78.3396 104.14 77.6396 103.851 77.1356 103.272C76.6316 102.684 76.3796 101.867 76.3796 100.822C76.3796 99.7393 76.655 98.8947 77.2056 98.288C77.7563 97.672 78.5216 97.364 79.5016 97.364ZM84.6396 97.364C85.3583 97.364 85.9183 97.5273 86.3196 97.854C86.7303 98.1713 86.9356 98.6193 86.9356 99.198C86.9356 99.366 86.9076 99.898 86.8516 100.794C86.8423 101.055 86.8283 101.326 86.8096 101.606C86.791 101.877 86.7816 102.11 86.7816 102.306C86.7816 102.465 86.805 102.577 86.8516 102.642C86.8983 102.698 86.9823 102.726 87.1036 102.726C87.197 102.726 87.3183 102.707 87.4676 102.67L87.6076 102.782L87.4396 103.762C87.141 103.958 86.8003 104.075 86.4176 104.112C86.1376 104.084 85.9043 103.986 85.7176 103.818C85.531 103.641 85.405 103.398 85.3396 103.09H85.2416C84.775 103.585 84.2943 103.93 83.7996 104.126C83.1276 104.117 82.6003 103.939 82.2176 103.594C81.835 103.249 81.6436 102.777 81.6436 102.18C81.6436 101.713 81.7603 101.349 81.9936 101.088C82.2363 100.817 82.6003 100.635 83.0856 100.542L85.2276 100.136V99.562C85.2276 98.9553 84.929 98.652 84.3316 98.652C84.0423 98.652 83.7343 98.7173 83.4076 98.848C83.0903 98.9787 82.731 99.184 82.3296 99.464L82.1896 99.38L81.9796 98.148C82.381 97.896 82.8103 97.7047 83.2676 97.574C83.725 97.434 84.1823 97.364 84.6396 97.364ZM83.7296 101.396C83.5803 101.433 83.4683 101.499 83.3936 101.592C83.3283 101.676 83.2956 101.807 83.2956 101.984C83.2956 102.227 83.361 102.418 83.4916 102.558C83.6223 102.689 83.8043 102.754 84.0376 102.754C84.4016 102.754 84.7843 102.539 85.1856 102.11L85.2136 101.074L83.7296 101.396ZM92.2619 97.406C93.0739 97.406 93.6992 97.6813 94.1379 98.232C94.5765 98.7827 94.7959 99.562 94.7959 100.57C94.7959 101.709 94.5112 102.591 93.9419 103.216C93.3819 103.832 92.5885 104.14 91.5619 104.14C91.2632 104.14 90.9505 104.112 90.6239 104.056L90.6659 106.59H88.8179L88.9159 101.312L88.8319 97.616L90.6099 97.462L90.5959 98.414H90.6939C90.9552 98.162 91.2072 97.9613 91.4499 97.812C91.6925 97.6533 91.9632 97.518 92.2619 97.406ZM91.5759 102.922C92.0612 102.922 92.4299 102.749 92.6819 102.404C92.9339 102.059 93.0599 101.55 93.0599 100.878C93.0599 100.225 92.9525 99.7347 92.7379 99.408C92.5325 99.072 92.2245 98.904 91.8139 98.904C91.4125 98.904 91.0065 99.1047 90.5959 99.506L90.5819 101.13L90.6099 102.712C90.9459 102.852 91.2679 102.922 91.5759 102.922ZM96.19 101.312L96.12 97.616L97.954 97.462L97.87 101.13L97.954 104H96.092L96.19 101.312ZM97.072 94.298C97.3613 94.298 97.5853 94.382 97.744 94.55C97.912 94.718 97.996 94.9513 97.996 95.25C97.996 95.5673 97.9073 95.8193 97.73 96.006C97.5526 96.1927 97.31 96.286 97.002 96.286C96.694 96.286 96.456 96.202 96.288 96.034C96.1293 95.866 96.05 95.628 96.05 95.32C96.05 95.012 96.1386 94.7647 96.316 94.578C96.5026 94.3913 96.7546 94.298 97.072 94.298ZM101.534 101.13L101.632 104H99.7704L99.8684 101.298L99.7844 94.312L101.646 94.172L101.534 101.13ZM105.954 97.364C106.673 97.364 107.233 97.5273 107.634 97.854C108.045 98.1713 108.25 98.6193 108.25 99.198C108.25 99.366 108.222 99.898 108.166 100.794C108.157 101.055 108.143 101.326 108.124 101.606C108.105 101.877 108.096 102.11 108.096 102.306C108.096 102.465 108.119 102.577 108.166 102.642C108.213 102.698 108.297 102.726 108.418 102.726C108.511 102.726 108.633 102.707 108.782 102.67L108.922 102.782L108.754 103.762C108.455 103.958 108.115 104.075 107.732 104.112C107.452 104.084 107.219 103.986 107.032 103.818C106.845 103.641 106.719 103.398 106.654 103.09H106.556C106.089 103.585 105.609 103.93 105.114 104.126C104.442 104.117 103.915 103.939 103.532 103.594C103.149 103.249 102.958 102.777 102.958 102.18C102.958 101.713 103.075 101.349 103.308 101.088C103.551 100.817 103.915 100.635 104.4 100.542L106.542 100.136V99.562C106.542 98.9553 106.243 98.652 105.646 98.652C105.357 98.652 105.049 98.7173 104.722 98.848C104.405 98.9787 104.045 99.184 103.644 99.464L103.504 99.38L103.294 98.148C103.695 97.896 104.125 97.7047 104.582 97.574C105.039 97.434 105.497 97.364 105.954 97.364ZM105.044 101.396C104.895 101.433 104.783 101.499 104.708 101.592C104.643 101.676 104.61 101.807 104.61 101.984C104.61 102.227 104.675 102.418 104.806 102.558C104.937 102.689 105.119 102.754 105.352 102.754C105.716 102.754 106.099 102.539 106.5 102.11L106.528 101.074L105.044 101.396ZM113.648 97.476C113.732 97.476 113.849 97.4853 113.998 97.504V99.226L113.802 99.296C113.644 99.2307 113.471 99.198 113.284 99.198C112.743 99.198 112.253 99.548 111.814 100.248V101.13L111.912 104H110.05L110.162 101.312L110.078 97.616L111.842 97.462L111.828 98.736H111.94C112.398 97.896 112.967 97.476 113.648 97.476ZM120.425 94.144C120.807 94.144 121.213 94.186 121.643 94.27L121.517 95.656L121.391 95.74C120.952 95.5533 120.569 95.46 120.243 95.46C119.664 95.46 119.37 95.7913 119.361 96.454L119.347 97.546H120.929L120.985 97.644L120.901 98.666H119.319L119.277 101.13L119.375 104H117.513L117.625 101.298L117.597 98.666H116.617L116.547 98.568L116.645 97.546H117.583L117.569 96.776C117.569 95.936 117.816 95.2873 118.311 94.83C118.815 94.3727 119.519 94.144 120.425 94.144ZM126.547 100.976L122.767 101.004C122.851 102.171 123.444 102.754 124.545 102.754C125.124 102.754 125.768 102.591 126.477 102.264L126.631 102.362L126.351 103.748C125.642 104.009 124.975 104.14 124.349 104.14C123.323 104.14 122.515 103.841 121.927 103.244C121.349 102.647 121.059 101.821 121.059 100.766C121.059 99.7207 121.344 98.8947 121.913 98.288C122.483 97.672 123.253 97.364 124.223 97.364C125.054 97.364 125.693 97.5927 126.141 98.05C126.599 98.498 126.827 99.128 126.827 99.94C126.827 100.155 126.804 100.425 126.757 100.752L126.547 100.976ZM125.203 99.73C125.203 99.3567 125.119 99.0767 124.951 98.89C124.783 98.694 124.536 98.596 124.209 98.596C123.845 98.596 123.542 98.7173 123.299 98.96C123.057 99.1933 122.893 99.534 122.809 99.982L125.175 99.926L125.203 99.73ZM128.237 101.312L128.167 97.616L130.001 97.462L129.917 101.13L130.001 104H128.139L128.237 101.312ZM129.119 94.298C129.408 94.298 129.632 94.382 129.791 94.55C129.959 94.718 130.043 94.9513 130.043 95.25C130.043 95.5673 129.954 95.8193 129.777 96.006C129.6 96.1927 129.357 96.286 129.049 96.286C128.741 96.286 128.503 96.202 128.335 96.034C128.176 95.866 128.097 95.628 128.097 95.32C128.097 95.012 128.186 94.7647 128.363 94.578C128.55 94.3913 128.802 94.298 129.119 94.298ZM134.393 102.628C134.692 102.628 135.005 102.549 135.331 102.39L135.485 102.53L135.303 103.636C134.827 103.879 134.342 104.028 133.847 104.084C132.587 103.953 131.957 103.337 131.957 102.236L132.027 101.074L132.013 98.666H131.145L131.075 98.568L131.173 97.546H131.999V96.468L133.693 95.922L133.819 96.034L133.777 97.546H135.443L135.499 97.644L135.415 98.666H133.749L133.665 101.802C133.665 102.101 133.721 102.315 133.833 102.446C133.945 102.567 134.132 102.628 134.393 102.628ZM139.054 97.364C139.772 97.364 140.332 97.5273 140.734 97.854C141.144 98.1713 141.35 98.6193 141.35 99.198C141.35 99.366 141.322 99.898 141.266 100.794C141.256 101.055 141.242 101.326 141.224 101.606C141.205 101.877 141.196 102.11 141.196 102.306C141.196 102.465 141.219 102.577 141.266 102.642C141.312 102.698 141.396 102.726 141.518 102.726C141.611 102.726 141.732 102.707 141.882 102.67L142.022 102.782L141.854 103.762C141.555 103.958 141.214 104.075 140.832 104.112C140.552 104.084 140.318 103.986 140.132 103.818C139.945 103.641 139.819 103.398 139.754 103.09H139.656C139.189 103.585 138.708 103.93 138.214 104.126C137.542 104.117 137.014 103.939 136.632 103.594C136.249 103.249 136.058 102.777 136.058 102.18C136.058 101.713 136.174 101.349 136.408 101.088C136.65 100.817 137.014 100.635 137.5 100.542L139.642 100.136V99.562C139.642 98.9553 139.343 98.652 138.746 98.652C138.456 98.652 138.148 98.7173 137.822 98.848C137.504 98.9787 137.145 99.184 136.744 99.464L136.604 99.38L136.394 98.148C136.795 97.896 137.224 97.7047 137.682 97.574C138.139 97.434 138.596 97.364 139.054 97.364ZM138.144 101.396C137.994 101.433 137.882 101.499 137.808 101.592C137.742 101.676 137.71 101.807 137.71 101.984C137.71 102.227 137.775 102.418 137.906 102.558C138.036 102.689 138.218 102.754 138.452 102.754C138.816 102.754 139.198 102.539 139.6 102.11L139.628 101.074L138.144 101.396ZM31.8519 112.846C32.4959 112.846 33.0232 113 33.4339 113.308C33.8445 113.607 34.0499 114.022 34.0499 114.554C34.0499 114.927 33.9239 115.343 33.6719 115.8C33.4292 116.248 33.0325 116.766 32.4819 117.354L31.4319 118.516L31.4599 118.572H33.3499L34.6099 118.46L34.7219 118.586L34.4979 120.084L32.8039 120H29.6259L29.1079 120.028L29.0099 119.958V118.824L30.8999 116.962C31.3479 116.505 31.6792 116.127 31.8939 115.828C32.1085 115.529 32.2159 115.268 32.2159 115.044C32.2159 114.857 32.1459 114.708 32.0059 114.596C31.8659 114.484 31.6699 114.428 31.4179 114.428C31.1192 114.428 30.8065 114.503 30.4799 114.652C30.1532 114.801 29.8499 115.002 29.5699 115.254H29.3599L29.0519 113.812C30.0132 113.168 30.9465 112.846 31.8519 112.846ZM42.0869 115.94C42.0962 115.604 42.0262 115.347 41.8769 115.17C41.7275 114.993 41.5082 114.904 41.2189 114.904C40.7989 114.904 40.3509 115.105 39.8749 115.506L39.8469 117.13L39.9449 120H38.0829L38.1809 117.298L38.0969 110.312L39.9589 110.172L39.8889 114.414H39.9729C40.4862 113.947 41.0509 113.611 41.6669 113.406C42.3762 113.406 42.9129 113.569 43.2769 113.896C43.6502 114.213 43.8322 114.675 43.8229 115.282L43.7809 117.144L43.8509 120H41.9889L42.0869 115.94ZM48.1937 113.364C49.1457 113.364 49.8737 113.644 50.3777 114.204C50.8817 114.764 51.1337 115.571 51.1337 116.626C51.1337 117.765 50.863 118.637 50.3217 119.244C49.7804 119.841 49.001 120.14 47.9837 120.14C47.0317 120.14 46.3037 119.86 45.7997 119.3C45.2957 118.74 45.0437 117.933 45.0437 116.878C45.0437 115.739 45.3144 114.871 45.8557 114.274C46.397 113.667 47.1764 113.364 48.1937 113.364ZM48.0677 114.624C47.6197 114.624 47.293 114.773 47.0877 115.072C46.8917 115.371 46.7937 115.851 46.7937 116.514C46.7937 117.373 46.8964 117.984 47.1017 118.348C47.307 118.712 47.643 118.894 48.1097 118.894C48.5577 118.894 48.8797 118.749 49.0757 118.46C49.281 118.161 49.3837 117.676 49.3837 117.004C49.3837 116.155 49.2764 115.548 49.0617 115.184C48.8564 114.811 48.525 114.624 48.0677 114.624ZM55.9256 113.476C56.0096 113.476 56.1263 113.485 56.2756 113.504V115.226L56.0796 115.296C55.921 115.231 55.7483 115.198 55.5616 115.198C55.0203 115.198 54.5303 115.548 54.0916 116.248V117.13L54.1896 120H52.3276L52.4396 117.312L52.3556 113.616L54.1196 113.462L54.1056 114.736H54.2176C54.675 113.896 55.2443 113.476 55.9256 113.476ZM59.6201 113.364C60.3388 113.364 60.8988 113.527 61.3001 113.854C61.7108 114.171 61.9161 114.619 61.9161 115.198C61.9161 115.366 61.8881 115.898 61.8321 116.794C61.8228 117.055 61.8088 117.326 61.7901 117.606C61.7714 117.877 61.7621 118.11 61.7621 118.306C61.7621 118.465 61.7854 118.577 61.8321 118.642C61.8788 118.698 61.9628 118.726 62.0841 118.726C62.1774 118.726 62.2988 118.707 62.4481 118.67L62.5881 118.782L62.4201 119.762C62.1214 119.958 61.7808 120.075 61.3981 120.112C61.1181 120.084 60.8848 119.986 60.6981 119.818C60.5114 119.641 60.3854 119.398 60.3201 119.09H60.2221C59.7554 119.585 59.2748 119.93 58.7801 120.126C58.1081 120.117 57.5808 119.939 57.1981 119.594C56.8154 119.249 56.6241 118.777 56.6241 118.18C56.6241 117.713 56.7408 117.349 56.9741 117.088C57.2168 116.817 57.5808 116.635 58.0661 116.542L60.2081 116.136V115.562C60.2081 114.955 59.9094 114.652 59.3121 114.652C59.0228 114.652 58.7148 114.717 58.3881 114.848C58.0708 114.979 57.7114 115.184 57.3101 115.464L57.1701 115.38L56.9601 114.148C57.3614 113.896 57.7908 113.705 58.2481 113.574C58.7054 113.434 59.1628 113.364 59.6201 113.364ZM58.7101 117.396C58.5608 117.433 58.4488 117.499 58.3741 117.592C58.3088 117.676 58.2761 117.807 58.2761 117.984C58.2761 118.227 58.3414 118.418 58.4721 118.558C58.6028 118.689 58.7848 118.754 59.0181 118.754C59.3821 118.754 59.7648 118.539 60.1661 118.11L60.1941 117.074L58.7101 117.396ZM65.9823 113.378C66.617 113.378 67.2143 113.485 67.7743 113.7L67.5223 115.072L67.2983 115.142C67.0277 114.965 66.757 114.829 66.4863 114.736C66.2157 114.643 65.9777 114.596 65.7723 114.596C65.5483 114.596 65.371 114.657 65.2403 114.778C65.1097 114.89 65.0443 115.03 65.0443 115.198C65.0443 115.394 65.1283 115.553 65.2963 115.674C65.4737 115.795 65.749 115.931 66.1223 116.08C66.4957 116.229 66.8037 116.374 67.0463 116.514C67.289 116.654 67.4943 116.85 67.6623 117.102C67.8397 117.345 67.9283 117.648 67.9283 118.012C67.9283 118.385 67.8303 118.735 67.6343 119.062C67.4477 119.379 67.1583 119.641 66.7663 119.846C66.3743 120.042 65.8937 120.14 65.3243 120.14C64.6523 120.14 63.957 120 63.2383 119.72L63.4483 118.264L63.6303 118.152C63.9197 118.395 64.2417 118.591 64.5963 118.74C64.951 118.88 65.2637 118.95 65.5343 118.95C65.7863 118.95 65.9823 118.889 66.1223 118.768C66.2623 118.637 66.3323 118.483 66.3323 118.306C66.3323 118.11 66.2437 117.951 66.0663 117.83C65.8983 117.709 65.6277 117.573 65.2543 117.424C64.8717 117.256 64.559 117.107 64.3163 116.976C64.0737 116.836 63.8637 116.64 63.6863 116.388C63.5183 116.136 63.4343 115.823 63.4343 115.45C63.4343 114.843 63.663 114.349 64.1203 113.966C64.5777 113.574 65.1983 113.378 65.9823 113.378ZM73.8525 113.364C74.5712 113.364 75.1312 113.527 75.5325 113.854C75.9432 114.171 76.1485 114.619 76.1485 115.198C76.1485 115.366 76.1205 115.898 76.0645 116.794C76.0552 117.055 76.0412 117.326 76.0225 117.606C76.0039 117.877 75.9945 118.11 75.9945 118.306C75.9945 118.465 76.0179 118.577 76.0645 118.642C76.1112 118.698 76.1952 118.726 76.3165 118.726C76.4099 118.726 76.5312 118.707 76.6805 118.67L76.8205 118.782L76.6525 119.762C76.3539 119.958 76.0132 120.075 75.6305 120.112C75.3505 120.084 75.1172 119.986 74.9305 119.818C74.7439 119.641 74.6179 119.398 74.5525 119.09H74.4545C73.9879 119.585 73.5072 119.93 73.0125 120.126C72.3405 120.117 71.8132 119.939 71.4305 119.594C71.0479 119.249 70.8565 118.777 70.8565 118.18C70.8565 117.713 70.9732 117.349 71.2065 117.088C71.4492 116.817 71.8132 116.635 72.2985 116.542L74.4405 116.136V115.562C74.4405 114.955 74.1419 114.652 73.5445 114.652C73.2552 114.652 72.9472 114.717 72.6205 114.848C72.3032 114.979 71.9439 115.184 71.5425 115.464L71.4025 115.38L71.1925 114.148C71.5939 113.896 72.0232 113.705 72.4805 113.574C72.9379 113.434 73.3952 113.364 73.8525 113.364ZM72.9425 117.396C72.7932 117.433 72.6812 117.499 72.6065 117.592C72.5412 117.676 72.5085 117.807 72.5085 117.984C72.5085 118.227 72.5739 118.418 72.7045 118.558C72.8352 118.689 73.0172 118.754 73.2505 118.754C73.6145 118.754 73.9972 118.539 74.3985 118.11L74.4265 117.074L72.9425 117.396ZM81.4748 113.406C82.2868 113.406 82.9121 113.681 83.3508 114.232C83.7894 114.783 84.0088 115.562 84.0088 116.57C84.0088 117.709 83.7241 118.591 83.1548 119.216C82.5948 119.832 81.8014 120.14 80.7748 120.14C80.4761 120.14 80.1634 120.112 79.8368 120.056L79.8788 122.59H78.0308L78.1288 117.312L78.0448 113.616L79.8228 113.462L79.8088 114.414H79.9068C80.1681 114.162 80.4201 113.961 80.6628 113.812C80.9054 113.653 81.1761 113.518 81.4748 113.406ZM80.7888 118.922C81.2741 118.922 81.6428 118.749 81.8948 118.404C82.1468 118.059 82.2728 117.55 82.2728 116.878C82.2728 116.225 82.1654 115.735 81.9508 115.408C81.7454 115.072 81.4374 114.904 81.0268 114.904C80.6254 114.904 80.2194 115.105 79.8088 115.506L79.7948 117.13L79.8228 118.712C80.1588 118.852 80.4808 118.922 80.7888 118.922ZM87.9789 113.364C88.9309 113.364 89.6589 113.644 90.1629 114.204C90.6669 114.764 90.9189 115.571 90.9189 116.626C90.9189 117.765 90.6482 118.637 90.1069 119.244C89.5655 119.841 88.7862 120.14 87.7689 120.14C86.8169 120.14 86.0889 119.86 85.5849 119.3C85.0809 118.74 84.8289 117.933 84.8289 116.878C84.8289 115.739 85.0995 114.871 85.6409 114.274C86.1822 113.667 86.9615 113.364 87.9789 113.364ZM87.8529 114.624C87.4049 114.624 87.0782 114.773 86.8729 115.072C86.6769 115.371 86.5789 115.851 86.5789 116.514C86.5789 117.373 86.6815 117.984 86.8869 118.348C87.0922 118.712 87.4282 118.894 87.8949 118.894C88.3429 118.894 88.6649 118.749 88.8609 118.46C89.0662 118.161 89.1689 117.676 89.1689 117.004C89.1689 116.155 89.0615 115.548 88.8469 115.184C88.6415 114.811 88.3102 114.624 87.8529 114.624ZM89.2529 109.878L89.9249 110.886L89.8969 111.068C89.6915 111.199 89.5375 111.292 89.4349 111.348C88.2682 112.067 87.5122 112.524 87.1669 112.72L86.9849 112.706L86.5369 112.006C87.6195 111.138 88.4642 110.424 89.0709 109.864L89.2529 109.878ZM94.3788 113.378C95.0135 113.378 95.6108 113.485 96.1708 113.7L95.9188 115.072L95.6948 115.142C95.4242 114.965 95.1535 114.829 94.8828 114.736C94.6122 114.643 94.3742 114.596 94.1688 114.596C93.9448 114.596 93.7675 114.657 93.6368 114.778C93.5062 114.89 93.4408 115.03 93.4408 115.198C93.4408 115.394 93.5248 115.553 93.6928 115.674C93.8702 115.795 94.1455 115.931 94.5188 116.08C94.8922 116.229 95.2002 116.374 95.4428 116.514C95.6855 116.654 95.8908 116.85 96.0588 117.102C96.2362 117.345 96.3248 117.648 96.3248 118.012C96.3248 118.385 96.2268 118.735 96.0308 119.062C95.8442 119.379 95.5548 119.641 95.1628 119.846C94.7708 120.042 94.2902 120.14 93.7208 120.14C93.0488 120.14 92.3535 120 91.6348 119.72L91.8448 118.264L92.0268 118.152C92.3162 118.395 92.6382 118.591 92.9928 118.74C93.3475 118.88 93.6602 118.95 93.9308 118.95C94.1828 118.95 94.3788 118.889 94.5188 118.768C94.6588 118.637 94.7288 118.483 94.7288 118.306C94.7288 118.11 94.6402 117.951 94.4628 117.83C94.2948 117.709 94.0242 117.573 93.6508 117.424C93.2682 117.256 92.9555 117.107 92.7128 116.976C92.4702 116.836 92.2602 116.64 92.0828 116.388C91.9148 116.136 91.8308 115.823 91.8308 115.45C91.8308 114.843 92.0595 114.349 92.5168 113.966C92.9742 113.574 93.5948 113.378 94.3788 113.378ZM102.389 113.364C103.341 113.364 104.069 113.644 104.573 114.204C105.077 114.764 105.329 115.571 105.329 116.626C105.329 117.765 105.058 118.637 104.517 119.244C103.976 119.841 103.196 120.14 102.179 120.14C101.227 120.14 100.499 119.86 99.995 119.3C99.491 118.74 99.239 117.933 99.239 116.878C99.239 115.739 99.5097 114.871 100.051 114.274C100.592 113.667 101.372 113.364 102.389 113.364ZM102.263 114.624C101.815 114.624 101.488 114.773 101.283 115.072C101.087 115.371 100.989 115.851 100.989 116.514C100.989 117.373 101.092 117.984 101.297 118.348C101.502 118.712 101.838 118.894 102.305 118.894C102.753 118.894 103.075 118.749 103.271 118.46C103.476 118.161 103.579 117.676 103.579 117.004C103.579 116.155 103.472 115.548 103.257 115.184C103.052 114.811 102.72 114.624 102.263 114.624ZM108.85 117.312L108.78 113.616L110.614 113.462L110.53 117.13L110.614 120H108.752L108.85 117.312ZM109.732 110.298C110.021 110.298 110.245 110.382 110.404 110.55C110.572 110.718 110.656 110.951 110.656 111.25C110.656 111.567 110.567 111.819 110.39 112.006C110.213 112.193 109.97 112.286 109.662 112.286C109.354 112.286 109.116 112.202 108.948 112.034C108.789 111.866 108.71 111.628 108.71 111.32C108.71 111.012 108.799 110.765 108.976 110.578C109.163 110.391 109.415 110.298 109.732 110.298ZM116.379 115.94C116.388 115.613 116.313 115.361 116.155 115.184C116.005 114.997 115.786 114.904 115.497 114.904C115.077 114.904 114.629 115.105 114.153 115.506V117.13L114.237 120H112.375L112.473 117.312L112.403 113.616L114.167 113.462V114.414H114.265C114.778 113.947 115.338 113.611 115.945 113.406C116.654 113.406 117.195 113.569 117.569 113.896C117.942 114.213 118.119 114.675 118.101 115.282L118.059 117.144L118.143 120H116.267L116.379 115.94ZM119.911 117.312L119.841 113.616L121.675 113.462L121.591 117.13L121.675 120H119.813L119.911 117.312ZM122.109 109.878L122.781 110.886L122.753 111.068C122.547 111.199 122.393 111.292 122.291 111.348C121.124 112.067 120.368 112.524 120.023 112.72L119.841 112.706L119.393 112.006C120.475 111.138 121.32 110.424 121.927 109.864L122.109 109.878ZM126.109 113.364C126.417 113.364 126.72 113.397 127.019 113.462C127.327 113.518 127.598 113.602 127.831 113.714L127.523 115.198L127.369 115.268C126.893 115.007 126.468 114.876 126.095 114.876C125.666 114.876 125.334 115.03 125.101 115.338C124.868 115.646 124.751 116.085 124.751 116.654C124.751 117.307 124.877 117.807 125.129 118.152C125.381 118.497 125.74 118.67 126.207 118.67C126.627 118.67 127.094 118.553 127.607 118.32L127.747 118.432L127.565 119.874C127.005 120.051 126.431 120.14 125.843 120.14C124.947 120.14 124.247 119.851 123.743 119.272C123.239 118.684 122.987 117.867 122.987 116.822C122.987 115.739 123.262 114.895 123.813 114.288C124.364 113.672 125.129 113.364 126.109 113.364ZM128.948 117.312L128.878 113.616L130.712 113.462L130.628 117.13L130.712 120H128.85L128.948 117.312ZM129.83 110.298C130.119 110.298 130.343 110.382 130.502 110.55C130.67 110.718 130.754 110.951 130.754 111.25C130.754 111.567 130.665 111.819 130.488 112.006C130.31 112.193 130.068 112.286 129.76 112.286C129.452 112.286 129.214 112.202 129.046 112.034C128.887 111.866 128.808 111.628 128.808 111.32C128.808 111.012 128.896 110.765 129.074 110.578C129.26 110.391 129.512 110.298 129.83 110.298ZM135.174 113.364C136.126 113.364 136.854 113.644 137.358 114.204C137.862 114.764 138.114 115.571 138.114 116.626C138.114 117.765 137.843 118.637 137.302 119.244C136.761 119.841 135.981 120.14 134.964 120.14C134.012 120.14 133.284 119.86 132.78 119.3C132.276 118.74 132.024 117.933 132.024 116.878C132.024 115.739 132.295 114.871 132.836 114.274C133.377 113.667 134.157 113.364 135.174 113.364ZM135.048 114.624C134.6 114.624 134.273 114.773 134.068 115.072C133.872 115.371 133.774 115.851 133.774 116.514C133.774 117.373 133.877 117.984 134.082 118.348C134.287 118.712 134.623 118.894 135.09 118.894C135.538 118.894 135.86 118.749 136.056 118.46C136.261 118.161 136.364 117.676 136.364 117.004C136.364 116.155 136.257 115.548 136.042 115.184C135.837 114.811 135.505 114.624 135.048 114.624ZM53.7469 133.13L53.7889 134.306C53.7889 134.465 53.8076 134.577 53.8449 134.642C53.8916 134.698 53.9709 134.726 54.0829 134.726C54.1856 134.726 54.3116 134.707 54.4609 134.67L54.5869 134.782L54.4329 135.762C54.1156 135.958 53.7703 136.075 53.3969 136.112C53.1076 136.084 52.8649 135.986 52.6689 135.818C52.4729 135.65 52.3376 135.421 52.2629 135.132H52.1509C51.6936 135.552 51.2269 135.874 50.7509 136.098C49.8363 136.098 49.1269 135.809 48.6229 135.23C48.1189 134.642 47.8669 133.83 47.8669 132.794C47.8669 131.693 48.1563 130.848 48.7349 130.26C49.3136 129.672 50.1163 129.378 51.1429 129.378C51.4136 129.378 51.7123 129.406 52.0389 129.462L52.0109 126.312L53.8589 126.172L53.7469 133.13ZM51.0169 130.638C50.0836 130.638 49.6169 131.231 49.6169 132.416C49.6169 133.153 49.7289 133.709 49.9529 134.082C50.1769 134.455 50.5036 134.642 50.9329 134.642C51.3436 134.642 51.7216 134.451 52.0669 134.068L52.0949 133.298L52.0529 130.89C51.6889 130.722 51.3436 130.638 51.0169 130.638ZM58.2461 129.364C58.9647 129.364 59.5247 129.527 59.9261 129.854C60.3367 130.171 60.5421 130.619 60.5421 131.198C60.5421 131.366 60.5141 131.898 60.4581 132.794C60.4487 133.055 60.4347 133.326 60.4161 133.606C60.3974 133.877 60.3881 134.11 60.3881 134.306C60.3881 134.465 60.4114 134.577 60.4581 134.642C60.5047 134.698 60.5887 134.726 60.7101 134.726C60.8034 134.726 60.9247 134.707 61.0741 134.67L61.2141 134.782L61.0461 135.762C60.7474 135.958 60.4067 136.075 60.0241 136.112C59.7441 136.084 59.5107 135.986 59.3241 135.818C59.1374 135.641 59.0114 135.398 58.9461 135.09H58.8481C58.3814 135.585 57.9007 135.93 57.4061 136.126C56.7341 136.117 56.2067 135.939 55.8241 135.594C55.4414 135.249 55.2501 134.777 55.2501 134.18C55.2501 133.713 55.3667 133.349 55.6001 133.088C55.8427 132.817 56.2067 132.635 56.6921 132.542L58.8341 132.136V131.562C58.8341 130.955 58.5354 130.652 57.9381 130.652C57.6487 130.652 57.3407 130.717 57.0141 130.848C56.6967 130.979 56.3374 131.184 55.9361 131.464L55.7961 131.38L55.5861 130.148C55.9874 129.896 56.4167 129.705 56.8741 129.574C57.3314 129.434 57.7887 129.364 58.2461 129.364ZM57.3361 133.396C57.1867 133.433 57.0747 133.499 57.0001 133.592C56.9347 133.676 56.9021 133.807 56.9021 133.984C56.9021 134.227 56.9674 134.418 57.0981 134.558C57.2287 134.689 57.4107 134.754 57.6441 134.754C58.0081 134.754 58.3907 134.539 58.7921 134.11L58.8201 133.074L57.3361 133.396ZM64.6083 129.378C65.243 129.378 65.8403 129.485 66.4003 129.7L66.1483 131.072L65.9243 131.142C65.6536 130.965 65.383 130.829 65.1123 130.736C64.8416 130.643 64.6036 130.596 64.3983 130.596C64.1743 130.596 63.997 130.657 63.8663 130.778C63.7356 130.89 63.6703 131.03 63.6703 131.198C63.6703 131.394 63.7543 131.553 63.9223 131.674C64.0996 131.795 64.375 131.931 64.7483 132.08C65.1216 132.229 65.4296 132.374 65.6723 132.514C65.915 132.654 66.1203 132.85 66.2883 133.102C66.4656 133.345 66.5543 133.648 66.5543 134.012C66.5543 134.385 66.4563 134.735 66.2603 135.062C66.0736 135.379 65.7843 135.641 65.3923 135.846C65.0003 136.042 64.5196 136.14 63.9503 136.14C63.2783 136.14 62.583 136 61.8643 135.72L62.0743 134.264L62.2563 134.152C62.5456 134.395 62.8676 134.591 63.2223 134.74C63.577 134.88 63.8896 134.95 64.1603 134.95C64.4123 134.95 64.6083 134.889 64.7483 134.768C64.8883 134.637 64.9583 134.483 64.9583 134.306C64.9583 134.11 64.8696 133.951 64.6923 133.83C64.5243 133.709 64.2536 133.573 63.8803 133.424C63.4976 133.256 63.185 133.107 62.9423 132.976C62.6996 132.836 62.4896 132.64 62.3123 132.388C62.1443 132.136 62.0603 131.823 62.0603 131.45C62.0603 130.843 62.289 130.349 62.7463 129.966C63.2036 129.574 63.8243 129.378 64.6083 129.378ZM73.5145 129.476C73.5985 129.476 73.7152 129.485 73.8645 129.504V131.226L73.6685 131.296C73.5098 131.231 73.3372 131.198 73.1505 131.198C72.6092 131.198 72.1192 131.548 71.6805 132.248V133.13L71.7785 136H69.9165L70.0285 133.312L69.9445 129.616L71.7085 129.462L71.6945 130.736H71.8065C72.2638 129.896 72.8332 129.476 73.5145 129.476ZM79.8237 132.976L76.0437 133.004C76.1277 134.171 76.7204 134.754 77.8217 134.754C78.4004 134.754 79.0444 134.591 79.7537 134.264L79.9077 134.362L79.6277 135.748C78.9184 136.009 78.251 136.14 77.6257 136.14C76.599 136.14 75.7917 135.841 75.2037 135.244C74.625 134.647 74.3357 133.821 74.3357 132.766C74.3357 131.721 74.6204 130.895 75.1897 130.288C75.759 129.672 76.529 129.364 77.4997 129.364C78.3304 129.364 78.9697 129.593 79.4177 130.05C79.875 130.498 80.1037 131.128 80.1037 131.94C80.1037 132.155 80.0804 132.425 80.0337 132.752L79.8237 132.976ZM78.4797 131.73C78.4797 131.357 78.3957 131.077 78.2277 130.89C78.0597 130.694 77.8124 130.596 77.4857 130.596C77.1217 130.596 76.8184 130.717 76.5757 130.96C76.333 131.193 76.1697 131.534 76.0857 131.982L78.4517 131.926L78.4797 131.73ZM84.7752 126.144C85.1579 126.144 85.5639 126.186 85.9932 126.27L85.8672 127.656L85.7412 127.74C85.3025 127.553 84.9199 127.46 84.5932 127.46C84.0145 127.46 83.7205 127.791 83.7112 128.454L83.6972 129.546H85.2792L85.3352 129.644L85.2512 130.666H83.6692L83.6272 133.13L83.7252 136H81.8632L81.9752 133.298L81.9472 130.666H80.9672L80.8972 130.568L80.9952 129.546H81.9332L81.9192 128.776C81.9192 127.936 82.1665 127.287 82.6612 126.83C83.1652 126.373 83.8699 126.144 84.7752 126.144ZM90.8979 132.976L87.1179 133.004C87.2019 134.171 87.7946 134.754 88.8959 134.754C89.4746 134.754 90.1186 134.591 90.8279 134.264L90.9819 134.362L90.7019 135.748C89.9926 136.009 89.3252 136.14 88.6999 136.14C87.6732 136.14 86.8659 135.841 86.2779 135.244C85.6992 134.647 85.4099 133.821 85.4099 132.766C85.4099 131.721 85.6946 130.895 86.2639 130.288C86.8332 129.672 87.6032 129.364 88.5739 129.364C89.4046 129.364 90.0439 129.593 90.4919 130.05C90.9492 130.498 91.1779 131.128 91.1779 131.94C91.1779 132.155 91.1546 132.425 91.1079 132.752L90.8979 132.976ZM89.5539 131.73C89.5539 131.357 89.4699 131.077 89.3019 130.89C89.1339 130.694 88.8866 130.596 88.5599 130.596C88.1959 130.596 87.8926 130.717 87.6499 130.96C87.4072 131.193 87.2439 131.534 87.1599 131.982L89.5259 131.926L89.5539 131.73ZM92.5874 133.312L92.5174 129.616L94.3514 129.462L94.2674 133.13L94.3514 136H92.4894L92.5874 133.312ZM93.4694 126.298C93.7588 126.298 93.9828 126.382 94.1414 126.55C94.3094 126.718 94.3934 126.951 94.3934 127.25C94.3934 127.567 94.3048 127.819 94.1274 128.006C93.9501 128.193 93.7074 128.286 93.3994 128.286C93.0914 128.286 92.8534 128.202 92.6854 128.034C92.5268 127.866 92.4474 127.628 92.4474 127.32C92.4474 127.012 92.5361 126.765 92.7134 126.578C92.9001 126.391 93.1521 126.298 93.4694 126.298ZM98.7858 129.364C99.0938 129.364 99.3971 129.397 99.6958 129.462C100.004 129.518 100.274 129.602 100.508 129.714L100.2 131.198L100.046 131.268C99.5698 131.007 99.1451 130.876 98.7718 130.876C98.3425 130.876 98.0111 131.03 97.7778 131.338C97.5445 131.646 97.4278 132.085 97.4278 132.654C97.4278 133.307 97.5538 133.807 97.8058 134.152C98.0578 134.497 98.4171 134.67 98.8838 134.67C99.3038 134.67 99.7705 134.553 100.284 134.32L100.424 134.432L100.242 135.874C99.6818 136.051 99.1078 136.14 98.5198 136.14C97.6238 136.14 96.9238 135.851 96.4198 135.272C95.9158 134.684 95.6638 133.867 95.6638 132.822C95.6638 131.739 95.9391 130.895 96.4898 130.288C97.0405 129.672 97.8058 129.364 98.7858 129.364ZM98.7718 136.672L99.2478 136.938C99.4531 137.05 99.5978 137.171 99.6818 137.302C99.7751 137.442 99.8218 137.596 99.8218 137.764C99.8218 138.072 99.7005 138.324 99.4578 138.52C99.2151 138.716 98.8978 138.814 98.5058 138.814C98.0858 138.814 97.7031 138.683 97.3578 138.422L97.4838 137.638L97.5678 137.596C97.8478 137.876 98.1231 138.016 98.3938 138.016C98.6178 138.016 98.7298 137.918 98.7298 137.722C98.7298 137.657 98.7111 137.601 98.6738 137.554C98.6365 137.517 98.5758 137.479 98.4918 137.442L97.8058 137.05L98.1278 135.636H99.0238L98.7718 136.672ZM104.201 129.364C105.153 129.364 105.881 129.644 106.385 130.204C106.889 130.764 107.141 131.571 107.141 132.626C107.141 133.765 106.87 134.637 106.329 135.244C105.787 135.841 105.008 136.14 103.991 136.14C103.039 136.14 102.311 135.86 101.807 135.3C101.303 134.74 101.051 133.933 101.051 132.878C101.051 131.739 101.321 130.871 101.863 130.274C102.404 129.667 103.183 129.364 104.201 129.364ZM104.075 130.624C103.627 130.624 103.3 130.773 103.095 131.072C102.899 131.371 102.801 131.851 102.801 132.514C102.801 133.373 102.903 133.984 103.109 134.348C103.314 134.712 103.65 134.894 104.117 134.894C104.565 134.894 104.887 134.749 105.083 134.46C105.288 134.161 105.391 133.676 105.391 133.004C105.391 132.155 105.283 131.548 105.069 131.184C104.863 130.811 104.532 130.624 104.075 130.624ZM106.553 126.732V126.886L105.573 128.132L105.391 128.202C105.139 128.174 104.751 128.085 104.229 127.936C104.182 127.927 104.028 127.889 103.767 127.824C103.515 127.749 103.337 127.712 103.235 127.712C103.132 127.712 103.029 127.754 102.927 127.838C102.833 127.922 102.731 128.025 102.619 128.146C102.507 128.267 102.423 128.361 102.367 128.426H102.199L101.639 127.88V127.726L102.633 126.48L102.801 126.41C103.025 126.438 103.421 126.531 103.991 126.69C104.513 126.83 104.835 126.9 104.957 126.9C105.069 126.9 105.176 126.853 105.279 126.76C105.391 126.667 105.503 126.559 105.615 126.438C105.727 126.317 105.801 126.233 105.839 126.186H106.007L106.553 126.732ZM113.457 132.976L109.677 133.004C109.761 134.171 110.353 134.754 111.455 134.754C112.033 134.754 112.677 134.591 113.387 134.264L113.541 134.362L113.261 135.748C112.551 136.009 111.884 136.14 111.258 136.14C110.232 136.14 109.425 135.841 108.837 135.244C108.258 134.647 107.969 133.821 107.969 132.766C107.969 131.721 108.253 130.895 108.823 130.288C109.392 129.672 110.162 129.364 111.133 129.364C111.963 129.364 112.603 129.593 113.051 130.05C113.508 130.498 113.737 131.128 113.737 131.94C113.737 132.155 113.713 132.425 113.667 132.752L113.457 132.976ZM112.113 131.73C112.113 131.357 112.029 131.077 111.861 130.89C111.693 130.694 111.445 130.596 111.119 130.596C110.755 130.596 110.451 130.717 110.209 130.96C109.966 131.193 109.803 131.534 109.719 131.982L112.085 131.926L112.113 131.73ZM117.204 129.378C117.839 129.378 118.436 129.485 118.996 129.7L118.744 131.072L118.52 131.142C118.249 130.965 117.979 130.829 117.708 130.736C117.437 130.643 117.199 130.596 116.994 130.596C116.77 130.596 116.593 130.657 116.462 130.778C116.331 130.89 116.266 131.03 116.266 131.198C116.266 131.394 116.35 131.553 116.518 131.674C116.695 131.795 116.971 131.931 117.344 132.08C117.717 132.229 118.025 132.374 118.268 132.514C118.511 132.654 118.716 132.85 118.884 133.102C119.061 133.345 119.15 133.648 119.15 134.012C119.15 134.385 119.052 134.735 118.856 135.062C118.669 135.379 118.38 135.641 117.988 135.846C117.596 136.042 117.115 136.14 116.546 136.14C115.874 136.14 115.179 136 114.46 135.72L114.67 134.264L114.852 134.152C115.141 134.395 115.463 134.591 115.818 134.74C116.173 134.88 116.485 134.95 116.756 134.95C117.008 134.95 117.204 134.889 117.344 134.768C117.484 134.637 117.554 134.483 117.554 134.306C117.554 134.11 117.465 133.951 117.288 133.83C117.12 133.709 116.849 133.573 116.476 133.424C116.093 133.256 115.781 133.107 115.538 132.976C115.295 132.836 115.085 132.64 114.908 132.388C114.74 132.136 114.656 131.823 114.656 131.45C114.656 130.843 114.885 130.349 115.342 129.966C115.799 129.574 116.42 129.378 117.204 129.378Z" fill="white"/>
<defs>
<filter id="filter0_b_206:36812" x="3" y="67" width="161" height="97" filterUnits="userSpaceOnUse" color-interpolation-filters="sRGB">
<feFlood flood-opacity="0" result="BackgroundImageFix"/>
<feGaussianBlur in="BackgroundImage" stdDeviation="5"/>
<feComposite in2="SourceAlpha" operator="in" result="effect1_backgroundBlur_206:36812"/>
<feBlend mode="normal" in="SourceGraphic" in2="effect1_backgroundBlur_206:36812" result="shape"/>
</filter>
</defs>
</svg>
