<svg width="167" height="167" viewBox="0 0 167 167" fill="none" xmlns="http://www.w3.org/2000/svg">
<mask id="mask0_206:36772" style="mask-type:alpha" maskUnits="userSpaceOnUse" x="0" y="0" width="167" height="167">
<rect x="1" y="1" width="165" height="165" rx="8" fill="#5988D6" stroke="#EDE6FC" stroke-opacity="0.3"/>
</mask>
<g mask="url(#mask0_206:36772)">
<rect x="1" y="1" width="165" height="165" rx="8" fill="#CEE2F2" stroke="#EDE6FC" stroke-opacity="0.3"/>
<path d="M119.508 44.6114C114.394 43.3739 110.029 40.9923 105.909 37.7312L105.846 37.6813C106.323 34.3997 105.034 31.0069 103.402 28.0628C101.597 24.8068 99.3275 21.7413 98.2984 18.1619C97.6937 16.0589 97.5148 13.777 96.3566 11.9196C95.5998 10.7051 93.966 9.70543 92.7925 10.5249C92.1533 10.9685 91.9168 11.7904 91.8068 12.5575C91.1881 16.872 92.1379 20.0462 91.8068 24.0321C89.447 23.3099 87.6125 22.199 81.2948 17.4588C76.7659 12.9043 72.2362 8.34907 67.7057 3.79295C67.0269 3.1103 66.1013 2.36885 65.2065 2.72551C64.534 2.99269 64.2234 3.81595 64.3116 4.5344C64.3998 5.25284 64.8114 5.88564 65.2141 6.48648C67.4129 9.76806 69.8572 12.8783 72.3001 15.9822C73.3548 17.3245 74.4734 18.8189 75.7211 20.096C66.5424 13.6262 61.8073 6.96843 59.4717 4.58043C58.5321 3.6191 57.1706 3.54623 56.548 4.96395C56.1441 5.89204 56.6465 7.35449 57.2333 8.17904C58.8679 10.4801 60.6009 12.7092 62.4324 14.8662C65.0543 17.9522 67.8386 21.1392 70.7661 23.9606L70.6689 24.05C68.9802 22.7269 67.28 21.0254 65.8699 19.6575C62.9616 16.8349 60.5008 13.8256 57.3598 10.8368C56.4586 9.97899 55.3745 9.16211 54.4298 9.97132C53.4621 10.7997 53.9926 12.3337 54.5014 13.5009C56.6171 18.3587 64.892 27.563 66.4554 29.5036C66.3979 29.6135 66.3391 29.7247 66.2829 29.8359C62.9399 26.1031 56.4394 19.2907 55.2377 18.429C54.881 18.1734 54.4707 17.9253 54.0386 17.9765C53.0159 18.0967 52.9072 19.5655 53.2204 20.5511C53.8596 22.5837 55.2978 24.2495 56.2476 26.1593C63.542 40.8287 77.3574 47.1783 87.9513 50.9316C88.4869 51.3011 95.2214 54.0982 97.8868 55.6105C100.857 57.2972 103.919 58.8174 107.058 60.164C108.138 60.6268 109.312 61.0781 110.458 60.8262C111.205 60.6613 111.854 60.2139 112.446 59.7294C116.864 56.1193 118.824 50.272 119.508 44.6114Z" fill="#F2B98F"/>
<path d="M101.622 31.8545C102.006 33.1955 101.351 34.8523 100.049 35.4519C101.479 35.6411 102.98 36.0808 103.831 37.2186C104.683 38.3563 104.471 40.348 103.132 40.9463C105.177 41.1023 106.775 43.1937 106.407 45.2212C106.039 47.2487 103.781 48.7866 101.79 48.3634C102.94 49.2084 103.17 51.048 102.288 52.2228C101.406 53.3976 99.5603 53.7249 98.4021 52.8978C99.591 53.1394 99.6894 54.869 99.0707 55.9442C97.86 58.0484 95.1077 58.956 92.7798 58.5009C90.4519 58.0458 88.5151 56.4747 87.0348 54.6556C86.8954 56.1896 84.9779 56.8761 83.4451 56.8902C79.1715 56.9298 75.0577 54.4881 73.121 50.7629C72.9356 51.4123 72.0101 51.4392 71.3824 51.2244C70.4773 50.9099 69.6509 50.4034 68.9598 49.7397C68.2688 49.076 67.7293 48.2707 67.3785 47.3791C65.8164 47.4647 64.2772 46.8984 63.0806 45.9422C61.3395 44.5475 60.313 42.1071 61.1043 39.9453C61.8956 37.7836 64.8435 36.4861 66.6435 37.8066C65.8662 35.7357 65.6693 33.3873 66.3635 31.232C67.0577 29.0766 68.7029 27.1539 70.8378 26.3741C72.9727 25.5943 75.5422 26.0891 76.9586 27.7727C76.7784 26.1389 76.6825 24.4387 77.2309 22.8612C77.7794 21.2837 79.1204 19.8468 80.772 19.6525C82.246 19.4786 83.6011 20.2916 84.8245 21.0702C85.277 19.4594 87.0182 18.3383 88.6749 18.4124C90.3317 18.4866 91.8006 19.6256 92.4717 21.1149C93.1428 22.6042 93.0776 24.385 92.5088 25.9638C92.799 25.1584 94.8738 25.7324 95.2841 26.0175C96.4104 26.8024 95.7673 28.0757 96.473 28.9168C97.1045 29.6685 98.3637 29.2121 99.2931 29.5317C100.368 29.9012 101.303 30.7475 101.622 31.8545Z" fill="#FFEEE3"/>
<path d="M77.5914 5.55457C75.8707 4.51909 75.8107 1.77697 78.2715 0.800294C80.9024 0.51266 82.1322 2.96458 81.0955 4.68399C80.7456 5.26333 80.1802 5.68031 79.5234 5.8435C78.8665 6.00669 78.1718 5.90279 77.5914 5.55457Z" fill="#FFEEE3"/>
<path d="M78.9745 1.29374C78.6863 1.31169 78.4041 1.38505 78.1436 1.5098C77.8498 1.62263 77.5968 1.8213 77.4175 2.07995C77.2551 2.34713 77.2398 2.71913 77.452 2.95307C77.5098 3.02123 77.5901 3.06656 77.6783 3.08091C77.7445 3.08342 77.8103 3.07012 77.8703 3.04211C77.9304 3.0141 77.9828 2.97218 78.0234 2.91983C78.1116 2.82267 78.1756 2.70507 78.2612 2.60536C78.3506 2.50353 78.4616 2.42292 78.5861 2.36941C78.7106 2.31589 78.8455 2.2908 78.9809 2.29598C79.3644 2.31388 79.7646 2.56701 80.0867 2.27682C80.4984 1.67471 79.3453 1.28096 78.9745 1.29374Z" fill="white"/>
<path d="M85.8471 14.9659C84.3616 14.0711 84.313 11.7023 86.4351 10.8585C88.7093 10.6029 89.7704 12.7275 88.8755 14.2143C88.5734 14.7153 88.0847 15.0758 87.5168 15.2168C86.949 15.3577 86.3484 15.2675 85.8471 14.9659Z" fill="#FFEEE3"/>
<path d="M87.0424 11.2855C86.7937 11.301 86.5503 11.3639 86.3253 11.4709C86.0713 11.5687 85.8526 11.7406 85.6976 11.9643C85.6227 12.0772 85.5853 12.2108 85.5906 12.3462C85.5959 12.4815 85.6436 12.6118 85.727 12.7186C85.7776 12.7773 85.8473 12.8162 85.9239 12.8285C85.9808 12.8304 86.0375 12.8189 86.0892 12.7949C86.141 12.7709 86.1863 12.7351 86.2217 12.6904C86.2984 12.6061 86.3496 12.5038 86.4275 12.4181C86.5046 12.33 86.6004 12.2603 86.7079 12.2141C86.8154 12.1678 86.9319 12.1463 87.0488 12.151C87.3774 12.165 87.7264 12.3849 88.0038 12.1331C88.3592 11.614 87.3684 11.2727 87.0424 11.2855Z" fill="white"/>
<path d="M103.449 16.1088C100.62 16.1088 98.5541 12.8451 100.814 9.87801C103.781 7.61913 107.046 9.68497 107.046 12.5127C107.046 12.9851 106.953 13.4528 106.772 13.8892C106.592 14.3256 106.327 14.722 105.993 15.056C105.659 15.3899 105.262 15.6548 104.826 15.8354C104.389 16.0161 103.921 16.109 103.449 16.1088Z" fill="#FFEEE3"/>
<path d="M102.022 9.96368C101.687 10.1942 101.4 10.4872 101.176 10.8266C100.92 11.1884 100.716 11.6025 100.713 12.0436C100.711 12.4846 100.969 12.9487 101.391 13.0663C101.51 13.1065 101.641 13.1029 101.758 13.056C101.839 13.0105 101.908 12.9465 101.96 12.8693C102.012 12.792 102.045 12.7036 102.057 12.6112C102.093 12.4296 102.084 12.2405 102.114 12.0576C102.148 11.8703 102.222 11.6928 102.333 11.538C102.443 11.3832 102.587 11.255 102.754 11.1628C103.225 10.9071 103.896 10.9186 104.073 10.3357C104.137 9.31553 102.46 9.67732 102.022 9.96368Z" fill="white"/>
<path d="M91.5754 3.60376C89.7972 2.53376 89.7346 -0.301676 92.2786 -1.31159C95.0002 -1.60945 96.2709 0.926845 95.1996 2.70506C94.8377 3.30428 94.2525 3.73519 93.5728 3.903C92.8932 4.07082 92.1747 3.9618 91.5754 3.59992V3.60376Z" fill="#FFEEE3"/>
<path d="M93.006 -0.801527C92.7079 -0.782845 92.4162 -0.706888 92.1469 -0.577812C91.8432 -0.461243 91.5817 -0.255874 91.3965 0.0115154C91.2278 0.287644 91.2137 0.676276 91.4323 0.914054C91.493 0.982658 91.5757 1.02788 91.6662 1.04189C91.7346 1.04409 91.8024 1.0302 91.8644 1.00133C91.9264 0.972464 91.9807 0.92942 92.0229 0.875696C92.115 0.774705 92.1802 0.651991 92.2696 0.549721C92.3621 0.444492 92.4769 0.361192 92.6056 0.305906C92.7343 0.25062 92.8737 0.22474 93.0137 0.230128C93.4074 0.248025 93.8241 0.510087 94.1552 0.209669C94.5809 -0.407784 93.3895 -0.815589 93.006 -0.801527Z" fill="white"/>
<path d="M103.573 47.7255C102.843 47.5631 102.102 47.9262 101.484 48.3481C98.0479 50.6939 95.4362 53.2276 92.4499 55.5773C92.34 54.8447 92.3707 49.0064 92.0409 46.6005C91.4809 42.5097 92.2697 38.3525 93.6209 36.4835C94.3483 35.48 94.5375 34.7014 95.7494 33.6225C97.1173 32.4042 97.6197 29.873 95.4937 30.332C93.9265 30.672 90.9926 32.5474 89.2463 34.0929C87.5001 35.6385 86.1322 43.6257 85.7602 46.8485C85.6158 45.7683 85.4457 44.6753 85.291 43.5542C84.7311 39.4634 85.5199 35.3061 86.8711 33.4371C87.5985 32.4323 87.7877 31.6551 88.9996 30.5761C90.3675 29.3578 90.8699 26.8267 88.7439 27.2856C87.1767 27.6244 84.2428 29.501 82.4965 31.0466C80.5368 32.7788 79.0641 42.566 78.9171 44.7316C78.8992 45 78.8843 45.2693 78.8723 45.5395C78.7918 45.5305 78.7113 45.519 78.632 45.5114C78.5157 44.6983 78.3917 43.8763 78.2753 43.0364C77.7154 38.9456 78.5042 34.7884 79.8567 32.9194C80.5828 31.9159 80.772 31.1373 81.9839 30.0584C83.3518 28.8401 83.8542 26.3089 81.7282 26.7691C80.1609 27.1079 77.2271 28.9846 75.4808 30.5288C73.5224 32.261 72.0484 42.0482 71.9014 44.2074C71.8656 44.752 71.8387 45.303 71.8311 45.854L71.7569 45.8693C71.592 45.0703 71.3862 44.2752 71.229 43.4762C70.9 41.7981 70.7883 40.0846 70.8966 38.378C70.9835 37.0191 71.4297 35.6756 72.4306 34.7462C73.5569 33.6954 74.3725 32.2163 73.5939 31.8059C72.8435 31.4135 71.0091 31.944 70.2357 32.3595C68.662 33.207 67.0564 34.2144 66.2292 35.7983C65.5901 37.0166 65.4942 38.4368 65.4482 39.8098C65.3689 42.1441 65.7678 53.6789 65.7729 53.8988C65.7729 53.9358 65.7729 54.0266 65.7729 54.0266C65.9557 60.9004 70.9094 77.2418 71.3005 78.6698C72.1272 81.6824 73.1133 84.649 74.2549 87.557C75.5168 90.7721 76.9726 93.9078 78.6141 96.9466C79.1766 97.9885 79.8235 99.0739 80.9292 99.5251C81.6477 99.8179 82.4812 99.8051 83.2917 99.7258C89.3384 99.1352 100.19 93.2931 99.3225 90.5561C96.0128 86.4653 92.6161 82.207 91.4848 76.9184L91.4234 76.6142C91.5444 76.1693 91.6607 75.7223 91.7724 75.2731L91.8721 75.2233C95.0578 73.5614 96.8578 70.0957 98.0083 66.6889C99.1588 63.282 99.8517 59.6693 101.728 56.6063C102.832 54.8038 104.339 53.1905 104.905 51.1566C105.273 49.8399 104.92 48.0259 103.573 47.7255Z" fill="#FBCFA5"/>
<path d="M103.507 48.3493C103.341 48.449 103.211 48.5978 103.135 48.775C102.667 49.6473 102.398 50.6128 102.35 51.6015C102.319 51.9047 102.358 52.2108 102.465 52.4964C102.52 52.6378 102.612 52.7617 102.732 52.8549C102.851 52.9481 102.994 53.0071 103.145 53.0256C103.272 53.025 103.398 52.9957 103.513 52.94C103.627 52.8842 103.728 52.8034 103.807 52.7035C103.963 52.5028 104.084 52.2766 104.164 52.0349C104.353 51.5406 104.512 51.0351 104.639 50.5213C104.724 50.2438 104.755 49.9526 104.73 49.6635C104.671 49.2442 104.091 48.0719 103.507 48.3493Z" fill="#F9E3D2"/>
<path d="M94.0556 31.9926C94.7163 31.9831 95.3652 31.8166 95.9488 31.5068C96.1043 31.4431 96.2309 31.3243 96.3042 31.1731C96.3911 30.9366 96.2019 30.6682 95.9642 30.5825C95.7188 30.5154 95.4588 30.5248 95.2189 30.6094C94.7753 30.727 94.0082 30.9111 93.6593 31.2255C93.2399 31.6001 93.5046 31.999 94.0556 31.9926Z" fill="#F9E3D2"/>
<path d="M89.2974 28.3287C89.4879 28.1753 89.681 27.9619 89.6452 27.719C89.6094 27.4761 89.378 27.3355 89.1504 27.3163C88.9208 27.3086 88.6924 27.3522 88.4818 27.4441C88.0446 27.6026 85.3741 28.5243 86.2089 29.106C86.9849 29.6468 88.6992 28.8094 89.2974 28.3287Z" fill="#F9E3D2"/>
<path d="M79.7314 28.6599C80.5291 28.6458 81.2654 28.2661 81.9621 27.866C82.228 27.7113 82.5285 27.4825 82.4901 27.1757C82.4737 27.0849 82.4331 27.0003 82.3726 26.9308C82.312 26.8613 82.2338 26.8094 82.1462 26.7806C81.9708 26.7253 81.7839 26.7169 81.6042 26.7564C80.8354 26.9149 80.1039 27.2186 79.4489 27.6512C78.9503 28.0194 79.0257 28.6726 79.7314 28.6599Z" fill="#F9E3D2"/>
<path d="M70.1513 32.4004C70.0068 32.4963 69.8547 32.6369 69.8777 32.8082C69.8915 32.8707 69.9229 32.928 69.9682 32.9733C70.0135 33.0186 70.0708 33.05 70.1334 33.0638C70.2605 33.0864 70.3909 33.0834 70.5169 33.0549C71.4117 32.9066 72.3245 32.6714 73.048 32.123C73.1224 32.0762 73.1808 32.008 73.2155 31.9274C73.2807 31.7164 73.0302 31.5438 72.8128 31.5068C71.9832 31.3598 70.8326 31.9453 70.1513 32.4004Z" fill="#F9E3D2"/>
<path d="M68.2107 51.1733C68.1501 50.9039 68.0334 50.6504 67.8681 50.4292C67.6879 50.2221 67.3811 50.0969 67.1305 50.2094L66.9298 50.3167C66.679 50.8488 66.6128 51.4493 66.7415 52.0232C66.8702 52.5972 67.1866 53.1118 67.6406 53.4858C67.6784 53.5241 67.7244 53.5535 67.775 53.5719C67.8256 53.5902 67.8797 53.5971 67.9333 53.5919C67.9965 53.5717 68.0522 53.533 68.0931 53.4807C68.639 52.885 68.4408 51.9467 68.2107 51.1733Z" fill="#F2B98F"/>
<path d="M74.1884 49.4577C74.1275 49.1884 74.0108 48.935 73.8458 48.7137C73.6655 48.5066 73.3587 48.3826 73.1082 48.4951L72.9075 48.6025C72.6571 49.1346 72.5911 49.735 72.7198 50.3088C72.8485 50.8826 73.1646 51.3973 73.6182 51.7715C73.6562 51.8097 73.7021 51.8389 73.7528 51.857C73.8034 51.8751 73.8575 51.8818 73.911 51.8764C73.9745 51.8567 74.0306 51.8184 74.0721 51.7664C74.6166 51.1694 74.4198 50.2324 74.1884 49.4577Z" fill="#F2B98F"/>
<path d="M80.9139 49.4577C80.853 49.1884 80.7363 48.935 80.5712 48.7137C80.391 48.5066 80.0842 48.3826 79.8336 48.4951L79.6329 48.6025C79.3826 49.1346 79.3166 49.735 79.4453 50.3088C79.574 50.8826 79.8901 51.3973 80.3437 51.7715C80.3816 51.8097 80.4276 51.8389 80.4782 51.857C80.5289 51.8751 80.5829 51.8818 80.6364 51.8764C80.6999 51.8567 80.756 51.8184 80.7975 51.7664C81.3421 51.1694 81.144 50.2324 80.9139 49.4577Z" fill="#F2B98F"/>
<path d="M87.5844 49.923C87.5235 49.6537 87.4068 49.4003 87.2418 49.179C87.0615 48.9719 86.7547 48.8466 86.5041 48.9591L86.3035 49.0665C86.0527 49.5986 85.9864 50.199 86.1151 50.773C86.2439 51.3469 86.5602 51.8616 87.0142 52.2356C87.0521 52.2739 87.098 52.3033 87.1486 52.3216C87.1993 52.34 87.2534 52.3468 87.307 52.3417C87.3706 52.3216 87.4267 52.2829 87.468 52.2305C88.0075 51.6296 87.8145 50.69 87.5844 49.923Z" fill="#F2B98F"/>
<path d="M87.073 21.671C87.251 21.7067 87.4313 21.7302 87.6125 21.7413C88.0446 21.8103 88.3987 22.1031 88.7707 22.3306C89.1427 22.5582 89.6196 22.7256 90.0082 22.5275C90.1383 22.4551 90.2484 22.3514 90.3283 22.2257C90.4082 22.1 90.4555 21.9563 90.4658 21.8078C90.4829 21.5083 90.3953 21.2123 90.2178 20.9704C89.7142 20.2456 88.4077 19.8097 87.5422 19.9644C86.8007 20.0948 86.0018 21.3386 87.073 21.671Z" fill="white"/>
<path d="M79.6982 21.8282C80.1443 21.5798 80.6476 21.4524 81.1581 21.4588C81.6695 21.4843 82.1808 21.7221 82.4505 22.1517C82.5077 22.2297 82.5485 22.3186 82.5704 22.4128C82.5924 22.5071 82.5951 22.6048 82.5784 22.7001C82.4851 23.0695 82.0389 23.1948 81.672 23.3009C81.1236 23.4581 80.5688 23.7458 80.3067 24.2533C79.9552 24.9385 79.9731 25.7503 79.1255 26.066C78.5656 26.2757 78.2306 26.0545 78.0542 25.5074C77.5736 24.0449 78.3943 22.493 79.6982 21.8282Z" fill="white"/>
<path d="M96.8104 40.5743C97.4685 40.4655 98.1431 40.5177 98.7765 40.7264C99.4121 40.9385 99.9514 41.3699 100.298 41.9434C100.511 42.3457 100.648 42.7838 100.703 43.2358C100.771 43.6743 100.798 44.1409 100.606 44.5411C100.414 44.9412 99.9399 45.2365 99.5218 45.0882C98.99 44.9003 98.8826 44.1934 98.4991 43.7868C98.177 43.4468 97.6848 43.3343 97.2208 43.2832C96.7567 43.232 96.2722 43.2231 95.8452 43.0275C95.4183 42.8319 95.0641 42.3883 95.1587 41.923C95.3288 41.0614 95.9974 40.6945 96.8104 40.5743Z" fill="white"/>
<path d="M99.8964 38.0035C100.26 37.9613 100.628 38.0457 100.989 38.0035C101.351 37.9613 101.741 37.7235 101.764 37.3643C101.787 37.0051 101.456 36.7328 101.134 36.5819C100.239 36.1652 98.6449 36.137 98.0402 37.0741C97.8153 37.4218 97.7641 37.8168 98.1067 38.0968C98.6181 38.5225 99.3531 38.0661 99.8964 38.0035Z" fill="white"/>
<path d="M69.1912 28.633C69.0634 28.9424 69.0404 29.3617 69.3191 29.5509C69.4528 29.6304 69.6099 29.6616 69.7639 29.6391C70.5744 29.5637 71.1279 28.7787 71.8847 28.4796C72.5393 28.2239 73.2769 28.3518 73.9736 28.2469C74.1494 28.2351 74.3177 28.171 74.4568 28.0629C74.724 27.8149 74.632 27.3342 74.352 27.099C74.072 26.8637 73.677 26.8216 73.3127 26.8433C72.4178 26.8855 71.5831 27.26 70.7278 27.4735C70.0273 27.6372 69.4904 27.9171 69.1912 28.633Z" fill="white"/>
</g>
<g filter="url(#filter0_b_206:36772)">
<rect x="13" y="77" width="141" height="77" rx="10" fill="black" fill-opacity="0.8"/>
</g>
<path d="M39.1862 116.144L39.2422 119H37.3522L37.4362 116.312L37.4222 115.262L35.3922 115.248L33.5582 115.276L33.5442 116.144L33.6142 119H31.7242L31.8222 116.312L31.7242 109.984H33.6422L33.5862 113.708L35.5182 113.736L37.4082 113.708L37.3522 109.984H39.2842L39.1862 116.144ZM41.3042 116.312L41.2342 112.616L43.0682 112.462L42.9842 116.13L43.0682 119H41.2062L41.3042 116.312ZM42.1862 109.298C42.4756 109.298 42.6996 109.382 42.8582 109.55C43.0262 109.718 43.1102 109.951 43.1102 110.25C43.1102 110.567 43.0216 110.819 42.8442 111.006C42.6669 111.193 42.4242 111.286 42.1162 111.286C41.8082 111.286 41.5702 111.202 41.4022 111.034C41.2436 110.866 41.1642 110.628 41.1642 110.32C41.1642 110.012 41.2529 109.765 41.4302 109.578C41.6169 109.391 41.8689 109.298 42.1862 109.298ZM51.0866 113.372C50.8346 113.437 50.4753 113.507 50.0086 113.582L49.9806 113.638C50.1206 113.918 50.1906 114.231 50.1906 114.576C50.1906 115.276 49.9339 115.836 49.4206 116.256C48.9166 116.667 48.2306 116.872 47.3626 116.872C47.1013 116.872 46.8306 116.849 46.5506 116.802C46.4666 116.886 46.4106 116.951 46.3826 116.998C46.3546 117.045 46.3406 117.101 46.3406 117.166C46.3406 117.334 46.4526 117.451 46.6766 117.516C46.9006 117.581 47.2553 117.647 47.7406 117.712C48.2913 117.777 48.7486 117.857 49.1126 117.95C49.4859 118.043 49.8033 118.207 50.0646 118.44C50.3353 118.673 50.4706 119.005 50.4706 119.434C50.4706 119.873 50.3306 120.265 50.0506 120.61C49.7799 120.965 49.4019 121.24 48.9166 121.436C48.4313 121.632 47.8806 121.73 47.2646 121.73C46.4153 121.73 45.7619 121.557 45.3046 121.212C44.8473 120.867 44.6186 120.409 44.6186 119.84C44.9079 119.439 45.2953 119.089 45.7806 118.79V118.72C45.4633 118.608 45.2159 118.454 45.0386 118.258C44.8613 118.053 44.7726 117.782 44.7726 117.446C45.0246 117.138 45.3419 116.853 45.7246 116.592V116.522C45.3886 116.335 45.1319 116.093 44.9546 115.794C44.7866 115.486 44.7026 115.127 44.7026 114.716C44.7026 113.988 44.9546 113.419 45.4586 113.008C45.9626 112.597 46.6486 112.392 47.5166 112.392C48.0206 112.392 48.4779 112.476 48.8886 112.644C49.5606 112.523 50.2466 112.336 50.9466 112.084L51.0866 112.21V113.372ZM47.4186 115.752C47.8013 115.752 48.0906 115.654 48.2866 115.458C48.4826 115.262 48.5806 114.977 48.5806 114.604C48.5806 113.895 48.2166 113.54 47.4886 113.54C46.7046 113.54 46.3126 113.899 46.3126 114.618C46.3126 114.991 46.4059 115.276 46.5926 115.472C46.7793 115.659 47.0546 115.752 47.4186 115.752ZM48.9026 119.77C48.9026 119.518 48.7673 119.345 48.4966 119.252C48.2353 119.159 47.8293 119.079 47.2786 119.014L46.8026 118.944C46.5786 119.093 46.4106 119.238 46.2986 119.378C46.1866 119.518 46.1306 119.667 46.1306 119.826C46.1306 120.069 46.2426 120.265 46.4666 120.414C46.6906 120.563 47.0173 120.638 47.4466 120.638C47.8853 120.638 48.2353 120.559 48.4966 120.4C48.7673 120.251 48.9026 120.041 48.9026 119.77ZM51.9546 116.312L51.8846 112.616L53.7186 112.462L53.6346 116.13L53.7186 119H51.8566L51.9546 116.312ZM52.8366 109.298C53.1259 109.298 53.3499 109.382 53.5086 109.55C53.6766 109.718 53.7606 109.951 53.7606 110.25C53.7606 110.567 53.6719 110.819 53.4946 111.006C53.3173 111.193 53.0746 111.286 52.7666 111.286C52.4586 111.286 52.2206 111.202 52.0526 111.034C51.8939 110.866 51.8146 110.628 51.8146 110.32C51.8146 110.012 51.9033 109.765 52.0806 109.578C52.2673 109.391 52.5193 109.298 52.8366 109.298ZM60.519 115.976L56.739 116.004C56.823 117.171 57.4157 117.754 58.517 117.754C59.0957 117.754 59.7397 117.591 60.449 117.264L60.603 117.362L60.323 118.748C59.6137 119.009 58.9463 119.14 58.321 119.14C57.2943 119.14 56.487 118.841 55.899 118.244C55.3203 117.647 55.031 116.821 55.031 115.766C55.031 114.721 55.3157 113.895 55.885 113.288C56.4543 112.672 57.2243 112.364 58.195 112.364C59.0257 112.364 59.665 112.593 60.113 113.05C60.5703 113.498 60.799 114.128 60.799 114.94C60.799 115.155 60.7757 115.425 60.729 115.752L60.519 115.976ZM59.175 114.73C59.175 114.357 59.091 114.077 58.923 113.89C58.755 113.694 58.5077 113.596 58.181 113.596C57.817 113.596 57.5137 113.717 57.271 113.96C57.0283 114.193 56.865 114.534 56.781 114.982L59.147 114.926L59.175 114.73ZM66.0865 114.94C66.0958 114.613 66.0212 114.361 65.8625 114.184C65.7132 113.997 65.4938 113.904 65.2045 113.904C64.7845 113.904 64.3365 114.105 63.8605 114.506V116.13L63.9445 119H62.0825L62.1805 116.312L62.1105 112.616L63.8745 112.462V113.414H63.9725C64.4858 112.947 65.0458 112.611 65.6525 112.406C66.3618 112.406 66.9032 112.569 67.2765 112.896C67.6498 113.213 67.8272 113.675 67.8085 114.282L67.7665 116.144L67.8505 119H65.9745L66.0865 114.94ZM69.6187 116.312L69.5487 112.616L71.3827 112.462L71.2987 116.13L71.3827 119H69.5207L69.6187 116.312ZM70.5007 109.298C70.79 109.298 71.014 109.382 71.1727 109.55C71.3407 109.718 71.4247 109.951 71.4247 110.25C71.4247 110.567 71.336 110.819 71.1587 111.006C70.9813 111.193 70.7387 111.286 70.4307 111.286C70.1227 111.286 69.8847 111.202 69.7167 111.034C69.558 110.866 69.4787 110.628 69.4787 110.32C69.4787 110.012 69.5673 109.765 69.7447 109.578C69.9313 109.391 70.1833 109.298 70.5007 109.298ZM74.2211 112.49H77.0491L77.7631 112.476L77.7771 113.582L74.6271 117.81H76.6011L77.7911 117.698L77.8891 117.824L77.7631 119.028L76.1391 119H73.5631L72.6671 119.042V117.95L75.8451 113.694H73.9691L72.8071 113.792L72.6951 113.666L72.8351 112.462L74.2211 112.49ZM81.6387 112.364C82.3573 112.364 82.9173 112.527 83.3187 112.854C83.7293 113.171 83.9347 113.619 83.9347 114.198C83.9347 114.366 83.9067 114.898 83.8507 115.794C83.8413 116.055 83.8273 116.326 83.8087 116.606C83.79 116.877 83.7807 117.11 83.7807 117.306C83.7807 117.465 83.804 117.577 83.8507 117.642C83.8973 117.698 83.9813 117.726 84.1027 117.726C84.196 117.726 84.3173 117.707 84.4667 117.67L84.6067 117.782L84.4387 118.762C84.14 118.958 83.7993 119.075 83.4167 119.112C83.1367 119.084 82.9033 118.986 82.7167 118.818C82.53 118.641 82.404 118.398 82.3387 118.09H82.2407C81.774 118.585 81.2933 118.93 80.7987 119.126C80.1267 119.117 79.5993 118.939 79.2167 118.594C78.834 118.249 78.6427 117.777 78.6427 117.18C78.6427 116.713 78.7593 116.349 78.9927 116.088C79.2353 115.817 79.5993 115.635 80.0847 115.542L82.2267 115.136V114.562C82.2267 113.955 81.928 113.652 81.3307 113.652C81.0413 113.652 80.7333 113.717 80.4067 113.848C80.0893 113.979 79.73 114.184 79.3287 114.464L79.1887 114.38L78.9787 113.148C79.38 112.896 79.8093 112.705 80.2667 112.574C80.724 112.434 81.1813 112.364 81.6387 112.364ZM80.7287 116.396C80.5793 116.433 80.4673 116.499 80.3927 116.592C80.3273 116.676 80.2947 116.807 80.2947 116.984C80.2947 117.227 80.36 117.418 80.4907 117.558C80.6213 117.689 80.8033 117.754 81.0367 117.754C81.4007 117.754 81.7833 117.539 82.1847 117.11L82.2127 116.074L80.7287 116.396ZM89.3329 112.476C89.4169 112.476 89.5335 112.485 89.6829 112.504V114.226L89.4869 114.296C89.3282 114.231 89.1555 114.198 88.9689 114.198C88.4275 114.198 87.9375 114.548 87.4989 115.248V116.13L87.5969 119H85.7349L85.8469 116.312L85.7629 112.616L87.5269 112.462L87.5129 113.736H87.6249C88.0822 112.896 88.6515 112.476 89.3329 112.476ZM95.2832 112.364C96.0019 112.364 96.5619 112.527 96.9632 112.854C97.3739 113.171 97.5792 113.619 97.5792 114.198C97.5792 114.366 97.5512 114.898 97.4952 115.794C97.4859 116.055 97.4719 116.326 97.4532 116.606C97.4345 116.877 97.4252 117.11 97.4252 117.306C97.4252 117.465 97.4485 117.577 97.4952 117.642C97.5419 117.698 97.6259 117.726 97.7472 117.726C97.8405 117.726 97.9619 117.707 98.1112 117.67L98.2512 117.782L98.0832 118.762C97.7845 118.958 97.4439 119.075 97.0612 119.112C96.7812 119.084 96.5479 118.986 96.3612 118.818C96.1745 118.641 96.0485 118.398 95.9832 118.09H95.8852C95.4185 118.585 94.9379 118.93 94.4432 119.126C93.7712 119.117 93.2439 118.939 92.8612 118.594C92.4785 118.249 92.2872 117.777 92.2872 117.18C92.2872 116.713 92.4039 116.349 92.6372 116.088C92.8799 115.817 93.2439 115.635 93.7292 115.542L95.8712 115.136V114.562C95.8712 113.955 95.5725 113.652 94.9752 113.652C94.6859 113.652 94.3779 113.717 94.0512 113.848C93.7339 113.979 93.3745 114.184 92.9732 114.464L92.8332 114.38L92.6232 113.148C93.0245 112.896 93.4539 112.705 93.9112 112.574C94.3685 112.434 94.8259 112.364 95.2832 112.364ZM94.3732 116.396C94.2239 116.433 94.1119 116.499 94.0372 116.592C93.9719 116.676 93.9392 116.807 93.9392 116.984C93.9392 117.227 94.0045 117.418 94.1352 117.558C94.2659 117.689 94.4479 117.754 94.6812 117.754C95.0452 117.754 95.4279 117.539 95.8292 117.11L95.8572 116.074L94.3732 116.396ZM101.645 112.378C102.28 112.378 102.877 112.485 103.437 112.7L103.185 114.072L102.961 114.142C102.691 113.965 102.42 113.829 102.149 113.736C101.879 113.643 101.641 113.596 101.435 113.596C101.211 113.596 101.034 113.657 100.903 113.778C100.773 113.89 100.707 114.03 100.707 114.198C100.707 114.394 100.791 114.553 100.959 114.674C101.137 114.795 101.412 114.931 101.785 115.08C102.159 115.229 102.467 115.374 102.709 115.514C102.952 115.654 103.157 115.85 103.325 116.102C103.503 116.345 103.591 116.648 103.591 117.012C103.591 117.385 103.493 117.735 103.297 118.062C103.111 118.379 102.821 118.641 102.429 118.846C102.037 119.042 101.557 119.14 100.987 119.14C100.315 119.14 99.6201 119 98.9014 118.72L99.1114 117.264L99.2934 117.152C99.5828 117.395 99.9048 117.591 100.259 117.74C100.614 117.88 100.927 117.95 101.197 117.95C101.449 117.95 101.645 117.889 101.785 117.768C101.925 117.637 101.995 117.483 101.995 117.306C101.995 117.11 101.907 116.951 101.729 116.83C101.561 116.709 101.291 116.573 100.917 116.424C100.535 116.256 100.222 116.107 99.9794 115.976C99.7368 115.836 99.5268 115.64 99.3494 115.388C99.1814 115.136 99.0974 114.823 99.0974 114.45C99.0974 113.843 99.3261 113.349 99.7834 112.966C100.241 112.574 100.861 112.378 101.645 112.378ZM114.752 119L114.864 114.94C114.864 114.249 114.57 113.904 113.982 113.904C113.562 113.904 113.123 114.091 112.666 114.464L112.624 116.144L112.708 119H110.846L110.958 114.94C110.967 114.604 110.892 114.347 110.734 114.17C110.584 113.993 110.365 113.904 110.076 113.904C109.665 113.904 109.212 114.1 108.718 114.492V116.13L108.802 119H106.954L107.052 116.312L106.982 112.616L108.732 112.462V113.414H108.83C109.343 112.947 109.908 112.611 110.524 112.406C111.569 112.406 112.236 112.756 112.526 113.456H112.61C113.142 112.961 113.748 112.611 114.43 112.406C115.139 112.406 115.676 112.569 116.04 112.896C116.413 113.213 116.59 113.675 116.572 114.282L116.53 116.144L116.614 119H114.752ZM120.809 112.364C121.527 112.364 122.087 112.527 122.489 112.854C122.899 113.171 123.105 113.619 123.105 114.198C123.105 114.366 123.077 114.898 123.021 115.794C123.011 116.055 122.997 116.326 122.979 116.606C122.96 116.877 122.951 117.11 122.951 117.306C122.951 117.465 122.974 117.577 123.021 117.642C123.067 117.698 123.151 117.726 123.273 117.726C123.366 117.726 123.487 117.707 123.637 117.67L123.777 117.782L123.609 118.762C123.31 118.958 122.969 119.075 122.587 119.112C122.307 119.084 122.073 118.986 121.887 118.818C121.7 118.641 121.574 118.398 121.509 118.09H121.411C120.944 118.585 120.463 118.93 119.969 119.126C119.297 119.117 118.769 118.939 118.387 118.594C118.004 118.249 117.813 117.777 117.813 117.18C117.813 116.713 117.929 116.349 118.163 116.088C118.405 115.817 118.769 115.635 119.255 115.542L121.397 115.136V114.562C121.397 113.955 121.098 113.652 120.501 113.652C120.211 113.652 119.903 113.717 119.577 113.848C119.259 113.979 118.9 114.184 118.499 114.464L118.359 114.38L118.149 113.148C118.55 112.896 118.979 112.705 119.437 112.574C119.894 112.434 120.351 112.364 120.809 112.364ZM119.899 116.396C119.749 116.433 119.637 116.499 119.563 116.592C119.497 116.676 119.465 116.807 119.465 116.984C119.465 117.227 119.53 117.418 119.661 117.558C119.791 117.689 119.973 117.754 120.207 117.754C120.571 117.754 120.953 117.539 121.355 117.11L121.383 116.074L119.899 116.396ZM123.105 109.732V109.886L122.125 111.132L121.943 111.202C121.691 111.174 121.303 111.085 120.781 110.936C120.734 110.927 120.58 110.889 120.319 110.824C120.067 110.749 119.889 110.712 119.787 110.712C119.684 110.712 119.581 110.754 119.479 110.838C119.385 110.922 119.283 111.025 119.171 111.146C119.059 111.267 118.975 111.361 118.919 111.426H118.751L118.191 110.88V110.726L119.185 109.48L119.353 109.41C119.577 109.438 119.973 109.531 120.543 109.69C121.065 109.83 121.387 109.9 121.509 109.9C121.621 109.9 121.728 109.853 121.831 109.76C121.943 109.667 122.055 109.559 122.167 109.438C122.279 109.317 122.353 109.233 122.391 109.186H122.559L123.105 109.732ZM127.689 112.364C128.641 112.364 129.369 112.644 129.873 113.204C130.377 113.764 130.629 114.571 130.629 115.626C130.629 116.765 130.358 117.637 129.817 118.244C129.275 118.841 128.496 119.14 127.479 119.14C126.527 119.14 125.799 118.86 125.295 118.3C124.791 117.74 124.539 116.933 124.539 115.878C124.539 114.739 124.809 113.871 125.351 113.274C125.892 112.667 126.671 112.364 127.689 112.364ZM127.563 113.624C127.115 113.624 126.788 113.773 126.583 114.072C126.387 114.371 126.289 114.851 126.289 115.514C126.289 116.373 126.391 116.984 126.597 117.348C126.802 117.712 127.138 117.894 127.605 117.894C128.053 117.894 128.375 117.749 128.571 117.46C128.776 117.161 128.879 116.676 128.879 116.004C128.879 115.155 128.771 114.548 128.557 114.184C128.351 113.811 128.02 113.624 127.563 113.624ZM134.089 112.378C134.723 112.378 135.321 112.485 135.881 112.7L135.629 114.072L135.405 114.142C135.134 113.965 134.863 113.829 134.593 113.736C134.322 113.643 134.084 113.596 133.879 113.596C133.655 113.596 133.477 113.657 133.347 113.778C133.216 113.89 133.151 114.03 133.151 114.198C133.151 114.394 133.235 114.553 133.403 114.674C133.58 114.795 133.855 114.931 134.229 115.08C134.602 115.229 134.91 115.374 135.153 115.514C135.395 115.654 135.601 115.85 135.769 116.102C135.946 116.345 136.035 116.648 136.035 117.012C136.035 117.385 135.937 117.735 135.741 118.062C135.554 118.379 135.265 118.641 134.873 118.846C134.481 119.042 134 119.14 133.431 119.14C132.759 119.14 132.063 119 131.345 118.72L131.555 117.264L131.737 117.152C132.026 117.395 132.348 117.591 132.703 117.74C133.057 117.88 133.37 117.95 133.641 117.95C133.893 117.95 134.089 117.889 134.229 117.768C134.369 117.637 134.439 117.483 134.439 117.306C134.439 117.11 134.35 116.951 134.173 116.83C134.005 116.709 133.734 116.573 133.361 116.424C132.978 116.256 132.665 116.107 132.423 115.976C132.18 115.836 131.97 115.64 131.793 115.388C131.625 115.136 131.541 114.823 131.541 114.45C131.541 113.843 131.769 113.349 132.227 112.966C132.684 112.574 133.305 112.378 134.089 112.378Z" fill="white"/>
<defs>
<filter id="filter0_b_206:36772" x="3" y="67" width="161" height="97" filterUnits="userSpaceOnUse" color-interpolation-filters="sRGB">
<feFlood flood-opacity="0" result="BackgroundImageFix"/>
<feGaussianBlur in="BackgroundImage" stdDeviation="5"/>
<feComposite in2="SourceAlpha" operator="in" result="effect1_backgroundBlur_206:36772"/>
<feBlend mode="normal" in="SourceGraphic" in2="effect1_backgroundBlur_206:36772" result="shape"/>
</filter>
</defs>
</svg>
