<svg width="167" height="167" viewBox="0 0 167 167" fill="none" xmlns="http://www.w3.org/2000/svg">
<mask id="mask0_206:36844" style="mask-type:alpha" maskUnits="userSpaceOnUse" x="0" y="0" width="167" height="167">
<rect x="1" y="1" width="165" height="165" rx="8" fill="#5988D6" stroke="#EDE6FC" stroke-opacity="0.3"/>
</mask>
<g mask="url(#mask0_206:36844)">
<rect x="1" y="1" width="165" height="165" rx="8" fill="#A97AD9" stroke="#EDE6FC" stroke-opacity="0.3"/>
</g>
<g clip-path="url(#clip0_206:36844)">
<path d="M45.0342 59.8189L96.4309 49.5339C96.4309 49.5339 105.654 44.6446 111.35 45.3613L126.871 39.0315L124.374 31.0017L107.982 31.6515C107.982 31.6515 98.8285 36.6943 92.8538 35.0934L42.7831 49.0827L45.0342 59.8189Z" fill="white"/>
<path d="M92.8807 35.0393C94.0715 37.2382 94.9647 39.5856 95.5371 42.0198C96.3064 44.4039 96.7113 46.8904 96.738 49.3954C96.548 49.4181 96.0428 46.13 94.988 42.1916C93.9333 38.2533 92.7158 35.1055 92.8807 35.0393Z" fill="#263238"/>
<path d="M107.96 31.7805C108.798 33.9594 109.448 36.2062 109.902 38.496C110.56 40.7382 111.012 43.0355 111.252 45.3597C110.411 43.2004 109.756 40.9728 109.295 38.7014C108.642 36.4393 108.196 34.123 107.96 31.7805Z" fill="#263238"/>
<path d="M56.2272 45.2877C57.0073 47.15 57.6025 49.0846 58.0041 51.0634C58.5981 52.9951 58.9904 54.9831 59.1748 56.9956C58.3866 55.1325 57.7922 53.1932 57.4009 51.2084C56.8048 49.2811 56.4114 47.2967 56.2272 45.2877Z" fill="#263238"/>
<path d="M82.3011 42.3375L82.2647 42.107C82.1493 41.4932 82.281 40.8587 82.6309 40.3414C82.9809 39.8241 83.5209 39.4659 84.1335 39.3445L95.3721 36.9582C95.6821 36.8884 96.003 36.8816 96.3157 36.9383C96.6283 36.9949 96.9264 37.1139 97.1922 37.2881C97.4579 37.4623 97.6859 37.6882 97.8626 37.9524C98.0393 38.2165 98.1611 38.5134 98.2207 38.8256C98.2885 39.1296 98.2957 39.4441 98.2419 39.7509C98.1881 40.0578 98.0742 40.351 97.907 40.6138C97.7397 40.8766 97.5223 41.1039 97.2671 41.2826C97.0119 41.4613 96.724 41.5879 96.4198 41.6552L85.2176 44.2722C84.8981 44.352 84.5655 44.3644 84.241 44.3086C83.9165 44.2528 83.6071 44.13 83.3327 43.9479C83.0583 43.7659 82.8249 43.5287 82.6472 43.2514C82.4696 42.9741 82.3517 42.6629 82.3011 42.3375Z" fill="#455A64"/>
</g>
<g filter="url(#filter0_b_206:36844)">
<rect x="13" y="77" width="141" height="77" rx="10" fill="black" fill-opacity="0.8"/>
</g>
<path d="M29.4084 102.928C30.7151 102.928 31.7184 103.292 32.4184 104.02C33.1184 104.748 33.4684 105.793 33.4684 107.156C33.4684 108.752 33.0764 109.975 32.2924 110.824C31.5084 111.673 30.3884 112.098 28.9324 112.098C28.4938 112.098 27.9664 112.089 27.3504 112.07C26.7438 112.051 26.2211 112.028 25.7824 112L25.8804 109.312L25.7824 102.984L29.4084 102.928ZM29.2684 110.628C30.7524 110.628 31.4944 109.615 31.4944 107.59C31.4944 106.489 31.3124 105.691 30.9484 105.196C30.5938 104.692 30.0338 104.44 29.2684 104.44C28.7738 104.44 28.2464 104.463 27.6864 104.51L27.6024 109.144L27.6444 110.53C28.2978 110.595 28.8391 110.628 29.2684 110.628ZM39.7036 108.976L35.9236 109.004C36.0076 110.171 36.6002 110.754 37.7016 110.754C38.2802 110.754 38.9242 110.591 39.6336 110.264L39.7876 110.362L39.5076 111.748C38.7982 112.009 38.1309 112.14 37.5056 112.14C36.4789 112.14 35.6716 111.841 35.0836 111.244C34.5049 110.647 34.2156 109.821 34.2156 108.766C34.2156 107.721 34.5002 106.895 35.0696 106.288C35.6389 105.672 36.4089 105.364 37.3796 105.364C38.2102 105.364 38.8496 105.593 39.2976 106.05C39.7549 106.498 39.9836 107.128 39.9836 107.94C39.9836 108.155 39.9602 108.425 39.9136 108.752L39.7036 108.976ZM38.3596 107.73C38.3596 107.357 38.2756 107.077 38.1076 106.89C37.9396 106.694 37.6922 106.596 37.3656 106.596C37.0016 106.596 36.6982 106.717 36.4556 106.96C36.2129 107.193 36.0496 107.534 35.9656 107.982L38.3316 107.926L38.3596 107.73ZM42.4851 106.526L43.4651 110.25H43.5631L44.7391 106.624L44.9771 105.49H46.6011L44.4171 112H42.4151L40.5671 105.532L42.3031 105.448L42.4851 106.526ZM52.3774 108.976L48.5974 109.004C48.6814 110.171 49.2741 110.754 50.3754 110.754C50.9541 110.754 51.5981 110.591 52.3074 110.264L52.4614 110.362L52.1814 111.748C51.4721 112.009 50.8047 112.14 50.1794 112.14C49.1527 112.14 48.3454 111.841 47.7574 111.244C47.1787 110.647 46.8894 109.821 46.8894 108.766C46.8894 107.721 47.1741 106.895 47.7434 106.288C48.3127 105.672 49.0827 105.364 50.0534 105.364C50.8841 105.364 51.5234 105.593 51.9714 106.05C52.4287 106.498 52.6574 107.128 52.6574 107.94C52.6574 108.155 52.6341 108.425 52.5874 108.752L52.3774 108.976ZM51.0334 107.73C51.0334 107.357 50.9494 107.077 50.7814 106.89C50.6134 106.694 50.3661 106.596 50.0394 106.596C49.6754 106.596 49.3721 106.717 49.1294 106.96C48.8867 107.193 48.7234 107.534 48.6394 107.982L51.0054 107.926L51.0334 107.73ZM61.7389 112L61.8509 107.94C61.8509 107.249 61.5569 106.904 60.9689 106.904C60.5489 106.904 60.1102 107.091 59.6529 107.464L59.6109 109.144L59.6949 112H57.8329L57.9449 107.94C57.9542 107.604 57.8796 107.347 57.7209 107.17C57.5716 106.993 57.3522 106.904 57.0629 106.904C56.6522 106.904 56.1996 107.1 55.7049 107.492V109.13L55.7889 112H53.9409L54.0389 109.312L53.9689 105.616L55.7189 105.462V106.414H55.8169C56.3302 105.947 56.8949 105.611 57.5109 105.406C58.5562 105.406 59.2236 105.756 59.5129 106.456H59.5969C60.1289 105.961 60.7356 105.611 61.4169 105.406C62.1262 105.406 62.6629 105.569 63.0269 105.896C63.4002 106.213 63.5776 106.675 63.5589 107.282L63.5169 109.144L63.6009 112H61.7389ZM69.537 105.378C70.1717 105.378 70.769 105.485 71.329 105.7L71.077 107.072L70.853 107.142C70.5824 106.965 70.3117 106.829 70.041 106.736C69.7704 106.643 69.5324 106.596 69.327 106.596C69.103 106.596 68.9257 106.657 68.795 106.778C68.6644 106.89 68.599 107.03 68.599 107.198C68.599 107.394 68.683 107.553 68.851 107.674C69.0284 107.795 69.3037 107.931 69.677 108.08C70.0504 108.229 70.3584 108.374 70.601 108.514C70.8437 108.654 71.049 108.85 71.217 109.102C71.3944 109.345 71.483 109.648 71.483 110.012C71.483 110.385 71.385 110.735 71.189 111.062C71.0024 111.379 70.713 111.641 70.321 111.846C69.929 112.042 69.4484 112.14 68.879 112.14C68.207 112.14 67.5117 112 66.793 111.72L67.003 110.264L67.185 110.152C67.4744 110.395 67.7964 110.591 68.151 110.74C68.5057 110.88 68.8184 110.95 69.089 110.95C69.341 110.95 69.537 110.889 69.677 110.768C69.817 110.637 69.887 110.483 69.887 110.306C69.887 110.11 69.7984 109.951 69.621 109.83C69.453 109.709 69.1824 109.573 68.809 109.424C68.4264 109.256 68.1137 109.107 67.871 108.976C67.6284 108.836 67.4184 108.64 67.241 108.388C67.073 108.136 66.989 107.823 66.989 107.45C66.989 106.843 67.2177 106.349 67.675 105.966C68.1324 105.574 68.753 105.378 69.537 105.378ZM77.7661 108.976L73.9861 109.004C74.0701 110.171 74.6627 110.754 75.7641 110.754C76.3427 110.754 76.9867 110.591 77.6961 110.264L77.8501 110.362L77.5701 111.748C76.8607 112.009 76.1934 112.14 75.5681 112.14C74.5414 112.14 73.7341 111.841 73.1461 111.244C72.5674 110.647 72.2781 109.821 72.2781 108.766C72.2781 107.721 72.5627 106.895 73.1321 106.288C73.7014 105.672 74.4714 105.364 75.4421 105.364C76.2727 105.364 76.9121 105.593 77.3601 106.05C77.8174 106.498 78.0461 107.128 78.0461 107.94C78.0461 108.155 78.0227 108.425 77.9761 108.752L77.7661 108.976ZM76.4221 107.73C76.4221 107.357 76.3381 107.077 76.1701 106.89C76.0021 106.694 75.7547 106.596 75.4281 106.596C75.0641 106.596 74.7607 106.717 74.5181 106.96C74.2754 107.193 74.1121 107.534 74.0281 107.982L76.3941 107.926L76.4221 107.73ZM82.9276 105.476C83.0116 105.476 83.1283 105.485 83.2776 105.504V107.226L83.0816 107.296C82.9229 107.231 82.7503 107.198 82.5636 107.198C82.0223 107.198 81.5323 107.548 81.0936 108.248V109.13L81.1916 112H79.3296L79.4416 109.312L79.3576 105.616L81.1216 105.462L81.1076 106.736H81.2196C81.6769 105.896 82.2463 105.476 82.9276 105.476ZM88.9479 110.628C89.2466 110.628 89.5592 110.549 89.8859 110.39L90.0399 110.53L89.8579 111.636C89.3819 111.879 88.8966 112.028 88.4019 112.084C87.1419 111.953 86.5119 111.337 86.5119 110.236L86.5819 109.074L86.5679 106.666H85.6999L85.6299 106.568L85.7279 105.546H86.5539V104.468L88.2479 103.922L88.3739 104.034L88.3319 105.546H89.9979L90.0539 105.644L89.9699 106.666H88.3039L88.2199 109.802C88.2199 110.101 88.2759 110.315 88.3879 110.446C88.4999 110.567 88.6866 110.628 88.9479 110.628ZM94.6444 105.476C94.7284 105.476 94.845 105.485 94.9944 105.504V107.226L94.7984 107.296C94.6397 107.231 94.467 107.198 94.2804 107.198C93.739 107.198 93.249 107.548 92.8104 108.248V109.13L92.9084 112H91.0464L91.1584 109.312L91.0744 105.616L92.8384 105.462L92.8244 106.736H92.9364C93.3937 105.896 93.963 105.476 94.6444 105.476ZM98.6156 105.364C99.5676 105.364 100.296 105.644 100.8 106.204C101.304 106.764 101.556 107.571 101.556 108.626C101.556 109.765 101.285 110.637 100.744 111.244C100.202 111.841 99.4229 112.14 98.4056 112.14C97.4536 112.14 96.7256 111.86 96.2216 111.3C95.7176 110.74 95.4656 109.933 95.4656 108.878C95.4656 107.739 95.7362 106.871 96.2776 106.274C96.8189 105.667 97.5982 105.364 98.6156 105.364ZM98.4896 106.624C98.0416 106.624 97.7149 106.773 97.5096 107.072C97.3136 107.371 97.2156 107.851 97.2156 108.514C97.2156 109.373 97.3182 109.984 97.5236 110.348C97.7289 110.712 98.0649 110.894 98.5316 110.894C98.9796 110.894 99.3016 110.749 99.4976 110.46C99.7029 110.161 99.8056 109.676 99.8056 109.004C99.8056 108.155 99.6982 107.548 99.4836 107.184C99.2782 106.811 98.9469 106.624 98.4896 106.624ZM105.506 105.364C105.814 105.364 106.117 105.397 106.416 105.462C106.724 105.518 106.994 105.602 107.228 105.714L106.92 107.198L106.766 107.268C106.29 107.007 105.865 106.876 105.492 106.876C105.062 106.876 104.731 107.03 104.498 107.338C104.264 107.646 104.148 108.085 104.148 108.654C104.148 109.307 104.274 109.807 104.526 110.152C104.778 110.497 105.137 110.67 105.604 110.67C106.024 110.67 106.49 110.553 107.004 110.32L107.144 110.432L106.962 111.874C106.402 112.051 105.828 112.14 105.24 112.14C104.344 112.14 103.644 111.851 103.14 111.272C102.636 110.684 102.384 109.867 102.384 108.822C102.384 107.739 102.659 106.895 103.21 106.288C103.76 105.672 104.526 105.364 105.506 105.364ZM110.644 105.364C111.362 105.364 111.922 105.527 112.324 105.854C112.734 106.171 112.94 106.619 112.94 107.198C112.94 107.366 112.912 107.898 112.856 108.794C112.846 109.055 112.832 109.326 112.814 109.606C112.795 109.877 112.786 110.11 112.786 110.306C112.786 110.465 112.809 110.577 112.856 110.642C112.902 110.698 112.986 110.726 113.108 110.726C113.201 110.726 113.322 110.707 113.472 110.67L113.612 110.782L113.444 111.762C113.145 111.958 112.804 112.075 112.422 112.112C112.142 112.084 111.908 111.986 111.722 111.818C111.535 111.641 111.409 111.398 111.344 111.09H111.246C110.779 111.585 110.298 111.93 109.804 112.126C109.132 112.117 108.604 111.939 108.222 111.594C107.839 111.249 107.648 110.777 107.648 110.18C107.648 109.713 107.764 109.349 107.998 109.088C108.24 108.817 108.604 108.635 109.09 108.542L111.232 108.136V107.562C111.232 106.955 110.933 106.652 110.336 106.652C110.046 106.652 109.738 106.717 109.412 106.848C109.094 106.979 108.735 107.184 108.334 107.464L108.194 107.38L107.984 106.148C108.385 105.896 108.814 105.705 109.272 105.574C109.729 105.434 110.186 105.364 110.644 105.364ZM109.734 109.396C109.584 109.433 109.472 109.499 109.398 109.592C109.332 109.676 109.3 109.807 109.3 109.984C109.3 110.227 109.365 110.418 109.496 110.558C109.626 110.689 109.808 110.754 110.042 110.754C110.406 110.754 110.788 110.539 111.19 110.11L111.218 109.074L109.734 109.396ZM120.254 109.13L120.296 110.306C120.296 110.465 120.314 110.577 120.352 110.642C120.398 110.698 120.478 110.726 120.59 110.726C120.692 110.726 120.818 110.707 120.968 110.67L121.094 110.782L120.94 111.762C120.622 111.958 120.277 112.075 119.904 112.112C119.614 112.084 119.372 111.986 119.176 111.818C118.98 111.65 118.844 111.421 118.77 111.132H118.658C118.2 111.552 117.734 111.874 117.258 112.098C116.343 112.098 115.634 111.809 115.13 111.23C114.626 110.642 114.374 109.83 114.374 108.794C114.374 107.693 114.663 106.848 115.242 106.26C115.82 105.672 116.623 105.378 117.65 105.378C117.92 105.378 118.219 105.406 118.546 105.462L118.518 102.312L120.366 102.172L120.254 109.13ZM117.524 106.638C116.59 106.638 116.124 107.231 116.124 108.416C116.124 109.153 116.236 109.709 116.46 110.082C116.684 110.455 117.01 110.642 117.44 110.642C117.85 110.642 118.228 110.451 118.574 110.068L118.602 109.298L118.56 106.89C118.196 106.722 117.85 106.638 117.524 106.638ZM124.753 105.364C125.472 105.364 126.032 105.527 126.433 105.854C126.844 106.171 127.049 106.619 127.049 107.198C127.049 107.366 127.021 107.898 126.965 108.794C126.956 109.055 126.942 109.326 126.923 109.606C126.904 109.877 126.895 110.11 126.895 110.306C126.895 110.465 126.918 110.577 126.965 110.642C127.012 110.698 127.096 110.726 127.217 110.726C127.31 110.726 127.432 110.707 127.581 110.67L127.721 110.782L127.553 111.762C127.254 111.958 126.914 112.075 126.531 112.112C126.251 112.084 126.018 111.986 125.831 111.818C125.644 111.641 125.518 111.398 125.453 111.09H125.355C124.888 111.585 124.408 111.93 123.913 112.126C123.241 112.117 122.714 111.939 122.331 111.594C121.948 111.249 121.757 110.777 121.757 110.18C121.757 109.713 121.874 109.349 122.107 109.088C122.35 108.817 122.714 108.635 123.199 108.542L125.341 108.136V107.562C125.341 106.955 125.042 106.652 124.445 106.652C124.156 106.652 123.848 106.717 123.521 106.848C123.204 106.979 122.844 107.184 122.443 107.464L122.303 107.38L122.093 106.148C122.494 105.896 122.924 105.705 123.381 105.574C123.838 105.434 124.296 105.364 124.753 105.364ZM123.843 109.396C123.694 109.433 123.582 109.499 123.507 109.592C123.442 109.676 123.409 109.807 123.409 109.984C123.409 110.227 123.474 110.418 123.605 110.558C123.736 110.689 123.918 110.754 124.151 110.754C124.515 110.754 124.898 110.539 125.299 110.11L125.327 109.074L123.843 109.396ZM131.115 105.378C131.75 105.378 132.347 105.485 132.907 105.7L132.655 107.072L132.431 107.142C132.16 106.965 131.89 106.829 131.619 106.736C131.348 106.643 131.11 106.596 130.905 106.596C130.681 106.596 130.504 106.657 130.373 106.778C130.242 106.89 130.177 107.03 130.177 107.198C130.177 107.394 130.261 107.553 130.429 107.674C130.606 107.795 130.882 107.931 131.255 108.08C131.628 108.229 131.936 108.374 132.179 108.514C132.422 108.654 132.627 108.85 132.795 109.102C132.972 109.345 133.061 109.648 133.061 110.012C133.061 110.385 132.963 110.735 132.767 111.062C132.58 111.379 132.291 111.641 131.899 111.846C131.507 112.042 131.026 112.14 130.457 112.14C129.785 112.14 129.09 112 128.371 111.72L128.581 110.264L128.763 110.152C129.052 110.395 129.374 110.591 129.729 110.74C130.084 110.88 130.396 110.95 130.667 110.95C130.919 110.95 131.115 110.889 131.255 110.768C131.395 110.637 131.465 110.483 131.465 110.306C131.465 110.11 131.376 109.951 131.199 109.83C131.031 109.709 130.76 109.573 130.387 109.424C130.004 109.256 129.692 109.107 129.449 108.976C129.206 108.836 128.996 108.64 128.819 108.388C128.651 108.136 128.567 107.823 128.567 107.45C128.567 106.843 128.796 106.349 129.253 105.966C129.71 105.574 130.331 105.378 131.115 105.378ZM138.985 105.364C139.704 105.364 140.264 105.527 140.665 105.854C141.076 106.171 141.281 106.619 141.281 107.198C141.281 107.366 141.253 107.898 141.197 108.794C141.188 109.055 141.174 109.326 141.155 109.606C141.137 109.877 141.127 110.11 141.127 110.306C141.127 110.465 141.151 110.577 141.197 110.642C141.244 110.698 141.328 110.726 141.449 110.726C141.543 110.726 141.664 110.707 141.813 110.67L141.953 110.782L141.785 111.762C141.487 111.958 141.146 112.075 140.763 112.112C140.483 112.084 140.25 111.986 140.063 111.818C139.877 111.641 139.751 111.398 139.685 111.09H139.587C139.121 111.585 138.64 111.93 138.145 112.126C137.473 112.117 136.946 111.939 136.563 111.594C136.181 111.249 135.989 110.777 135.989 110.18C135.989 109.713 136.106 109.349 136.339 109.088C136.582 108.817 136.946 108.635 137.431 108.542L139.573 108.136V107.562C139.573 106.955 139.275 106.652 138.677 106.652C138.388 106.652 138.08 106.717 137.753 106.848C137.436 106.979 137.077 107.184 136.675 107.464L136.535 107.38L136.325 106.148C136.727 105.896 137.156 105.705 137.613 105.574C138.071 105.434 138.528 105.364 138.985 105.364ZM138.075 109.396C137.926 109.433 137.814 109.499 137.739 109.592C137.674 109.676 137.641 109.807 137.641 109.984C137.641 110.227 137.707 110.418 137.837 110.558C137.968 110.689 138.15 110.754 138.383 110.754C138.747 110.754 139.13 110.539 139.531 110.11L139.559 109.074L138.075 109.396ZM58.9938 121.364C59.3018 121.364 59.6052 121.397 59.9038 121.462C60.2118 121.518 60.4825 121.602 60.7158 121.714L60.4078 123.198L60.2538 123.268C59.7778 123.007 59.3532 122.876 58.9798 122.876C58.5505 122.876 58.2192 123.03 57.9858 123.338C57.7525 123.646 57.6358 124.085 57.6358 124.654C57.6358 125.307 57.7618 125.807 58.0138 126.152C58.2658 126.497 58.6252 126.67 59.0918 126.67C59.5118 126.67 59.9785 126.553 60.4918 126.32L60.6318 126.432L60.4498 127.874C59.8898 128.051 59.3158 128.14 58.7278 128.14C57.8318 128.14 57.1318 127.851 56.6278 127.272C56.1238 126.684 55.8718 125.867 55.8718 124.822C55.8718 123.739 56.1472 122.895 56.6978 122.288C57.2485 121.672 58.0138 121.364 58.9938 121.364ZM64.1318 121.364C64.8505 121.364 65.4105 121.527 65.8118 121.854C66.2225 122.171 66.4278 122.619 66.4278 123.198C66.4278 123.366 66.3998 123.898 66.3438 124.794C66.3345 125.055 66.3205 125.326 66.3018 125.606C66.2832 125.877 66.2738 126.11 66.2738 126.306C66.2738 126.465 66.2972 126.577 66.3438 126.642C66.3905 126.698 66.4745 126.726 66.5958 126.726C66.6892 126.726 66.8105 126.707 66.9598 126.67L67.0998 126.782L66.9318 127.762C66.6332 127.958 66.2925 128.075 65.9098 128.112C65.6298 128.084 65.3965 127.986 65.2098 127.818C65.0232 127.641 64.8972 127.398 64.8318 127.09H64.7338C64.2672 127.585 63.7865 127.93 63.2918 128.126C62.6198 128.117 62.0925 127.939 61.7098 127.594C61.3272 127.249 61.1358 126.777 61.1358 126.18C61.1358 125.713 61.2525 125.349 61.4858 125.088C61.7285 124.817 62.0925 124.635 62.5778 124.542L64.7198 124.136V123.562C64.7198 122.955 64.4212 122.652 63.8238 122.652C63.5345 122.652 63.2265 122.717 62.8998 122.848C62.5825 122.979 62.2232 123.184 61.8218 123.464L61.6818 123.38L61.4718 122.148C61.8732 121.896 62.3025 121.705 62.7598 121.574C63.2172 121.434 63.6745 121.364 64.1318 121.364ZM63.2218 125.396C63.0725 125.433 62.9605 125.499 62.8858 125.592C62.8205 125.676 62.7878 125.807 62.7878 125.984C62.7878 126.227 62.8532 126.418 62.9838 126.558C63.1145 126.689 63.2965 126.754 63.5298 126.754C63.8938 126.754 64.2765 126.539 64.6778 126.11L64.7058 125.074L63.2218 125.396ZM73.7421 125.13L73.7841 126.306C73.7841 126.465 73.8027 126.577 73.8401 126.642C73.8867 126.698 73.9661 126.726 74.0781 126.726C74.1807 126.726 74.3067 126.707 74.4561 126.67L74.5821 126.782L74.4281 127.762C74.1107 127.958 73.7654 128.075 73.3921 128.112C73.1027 128.084 72.8601 127.986 72.6641 127.818C72.4681 127.65 72.3327 127.421 72.2581 127.132H72.1461C71.6887 127.552 71.2221 127.874 70.7461 128.098C69.8314 128.098 69.1221 127.809 68.6181 127.23C68.1141 126.642 67.8621 125.83 67.8621 124.794C67.8621 123.693 68.1514 122.848 68.7301 122.26C69.3087 121.672 70.1114 121.378 71.1381 121.378C71.4087 121.378 71.7074 121.406 72.0341 121.462L72.0061 118.312L73.8541 118.172L73.7421 125.13ZM71.0121 122.638C70.0787 122.638 69.6121 123.231 69.6121 124.416C69.6121 125.153 69.7241 125.709 69.9481 126.082C70.1721 126.455 70.4987 126.642 70.9281 126.642C71.3387 126.642 71.7167 126.451 72.0621 126.068L72.0901 125.298L72.0481 122.89C71.6841 122.722 71.3387 122.638 71.0121 122.638ZM78.2412 121.364C78.9599 121.364 79.5199 121.527 79.9212 121.854C80.3319 122.171 80.5372 122.619 80.5372 123.198C80.5372 123.366 80.5092 123.898 80.4532 124.794C80.4439 125.055 80.4299 125.326 80.4112 125.606C80.3925 125.877 80.3832 126.11 80.3832 126.306C80.3832 126.465 80.4065 126.577 80.4532 126.642C80.4999 126.698 80.5839 126.726 80.7052 126.726C80.7985 126.726 80.9199 126.707 81.0692 126.67L81.2092 126.782L81.0412 127.762C80.7425 127.958 80.4019 128.075 80.0192 128.112C79.7392 128.084 79.5059 127.986 79.3192 127.818C79.1325 127.641 79.0065 127.398 78.9412 127.09H78.8432C78.3765 127.585 77.8959 127.93 77.4012 128.126C76.7292 128.117 76.2019 127.939 75.8192 127.594C75.4365 127.249 75.2452 126.777 75.2452 126.18C75.2452 125.713 75.3619 125.349 75.5952 125.088C75.8379 124.817 76.2019 124.635 76.6872 124.542L78.8292 124.136V123.562C78.8292 122.955 78.5305 122.652 77.9332 122.652C77.6439 122.652 77.3359 122.717 77.0092 122.848C76.6919 122.979 76.3325 123.184 75.9312 123.464L75.7912 123.38L75.5812 122.148C75.9825 121.896 76.4119 121.705 76.8692 121.574C77.3265 121.434 77.7839 121.364 78.2412 121.364ZM77.3312 125.396C77.1819 125.433 77.0699 125.499 76.9952 125.592C76.9299 125.676 76.8972 125.807 76.8972 125.984C76.8972 126.227 76.9625 126.418 77.0932 126.558C77.2239 126.689 77.4059 126.754 77.6392 126.754C78.0032 126.754 78.3859 126.539 78.7872 126.11L78.8152 125.074L77.3312 125.396ZM87.1706 126.628C87.4692 126.628 87.7819 126.549 88.1086 126.39L88.2626 126.53L88.0806 127.636C87.6046 127.879 87.1192 128.028 86.6246 128.084C85.3646 127.953 84.7346 127.337 84.7346 126.236L84.8046 125.074L84.7906 122.666H83.9226L83.8526 122.568L83.9506 121.546H84.7766V120.468L86.4706 119.922L86.5966 120.034L86.5546 121.546H88.2206L88.2766 121.644L88.1926 122.666H86.5266L86.4426 125.802C86.4426 126.101 86.4986 126.315 86.6106 126.446C86.7226 126.567 86.9092 126.628 87.1706 126.628ZM94.2133 124.976L90.4333 125.004C90.5173 126.171 91.11 126.754 92.2113 126.754C92.79 126.754 93.434 126.591 94.1433 126.264L94.2973 126.362L94.0173 127.748C93.308 128.009 92.6407 128.14 92.0153 128.14C90.9887 128.14 90.1813 127.841 89.5933 127.244C89.0147 126.647 88.7253 125.821 88.7253 124.766C88.7253 123.721 89.01 122.895 89.5793 122.288C90.1487 121.672 90.9187 121.364 91.8893 121.364C92.72 121.364 93.3593 121.593 93.8073 122.05C94.2647 122.498 94.4933 123.128 94.4933 123.94C94.4933 124.155 94.47 124.425 94.4233 124.752L94.2133 124.976ZM92.8693 123.73C92.8693 123.357 92.7853 123.077 92.6173 122.89C92.4493 122.694 92.202 122.596 91.8753 122.596C91.5113 122.596 91.208 122.717 90.9653 122.96C90.7227 123.193 90.5593 123.534 90.4753 123.982L92.8413 123.926L92.8693 123.73ZM97.9609 121.378C98.5955 121.378 99.1929 121.485 99.7529 121.7L99.5009 123.072L99.2769 123.142C99.0062 122.965 98.7355 122.829 98.4649 122.736C98.1942 122.643 97.9562 122.596 97.7509 122.596C97.5269 122.596 97.3495 122.657 97.2189 122.778C97.0882 122.89 97.0229 123.03 97.0229 123.198C97.0229 123.394 97.1069 123.553 97.2749 123.674C97.4522 123.795 97.7275 123.931 98.1009 124.08C98.4742 124.229 98.7822 124.374 99.0249 124.514C99.2675 124.654 99.4729 124.85 99.6409 125.102C99.8182 125.345 99.9069 125.648 99.9069 126.012C99.9069 126.385 99.8089 126.735 99.6129 127.062C99.4262 127.379 99.1369 127.641 98.7449 127.846C98.3529 128.042 97.8722 128.14 97.3029 128.14C96.6309 128.14 95.9355 128 95.2169 127.72L95.4269 126.264L95.6089 126.152C95.8982 126.395 96.2202 126.591 96.5749 126.74C96.9295 126.88 97.2422 126.95 97.5129 126.95C97.7649 126.95 97.9609 126.889 98.1009 126.768C98.2409 126.637 98.3109 126.483 98.3109 126.306C98.3109 126.11 98.2222 125.951 98.0449 125.83C97.8769 125.709 97.6062 125.573 97.2329 125.424C96.8502 125.256 96.5375 125.107 96.2949 124.976C96.0522 124.836 95.8422 124.64 95.6649 124.388C95.4969 124.136 95.4129 123.823 95.4129 123.45C95.4129 122.843 95.6415 122.349 96.0989 121.966C96.5562 121.574 97.1769 121.378 97.9609 121.378ZM103.782 126.628C104.081 126.628 104.393 126.549 104.72 126.39L104.874 126.53L104.692 127.636C104.216 127.879 103.731 128.028 103.236 128.084C101.976 127.953 101.346 127.337 101.346 126.236L101.416 125.074L101.402 122.666H100.534L100.464 122.568L100.562 121.546H101.388V120.468L103.082 119.922L103.208 120.034L103.166 121.546H104.832L104.888 121.644L104.804 122.666H103.138L103.054 125.802C103.054 126.101 103.11 126.315 103.222 126.446C103.334 126.567 103.521 126.628 103.782 126.628ZM110.825 124.976L107.045 125.004C107.129 126.171 107.721 126.754 108.823 126.754C109.401 126.754 110.045 126.591 110.755 126.264L110.909 126.362L110.629 127.748C109.919 128.009 109.252 128.14 108.627 128.14C107.6 128.14 106.793 127.841 106.205 127.244C105.626 126.647 105.337 125.821 105.337 124.766C105.337 123.721 105.621 122.895 106.191 122.288C106.76 121.672 107.53 121.364 108.501 121.364C109.331 121.364 109.971 121.593 110.419 122.05C110.876 122.498 111.105 123.128 111.105 123.94C111.105 124.155 111.081 124.425 111.035 124.752L110.825 124.976ZM109.481 123.73C109.481 123.357 109.397 123.077 109.229 122.89C109.061 122.694 108.813 122.596 108.487 122.596C108.123 122.596 107.819 122.717 107.577 122.96C107.334 123.193 107.171 123.534 107.087 123.982L109.453 123.926L109.481 123.73Z" fill="white"/>
<defs>
<filter id="filter0_b_206:36844" x="3" y="67" width="161" height="97" filterUnits="userSpaceOnUse" color-interpolation-filters="sRGB">
<feFlood flood-opacity="0" result="BackgroundImageFix"/>
<feGaussianBlur in="BackgroundImage" stdDeviation="5"/>
<feComposite in2="SourceAlpha" operator="in" result="effect1_backgroundBlur_206:36844"/>
<feBlend mode="normal" in="SourceGraphic" in2="effect1_backgroundBlur_206:36844" result="shape"/>
</filter>
<clipPath id="clip0_206:36844">
<rect width="48.4291" height="78.6217" fill="white" transform="translate(40.2615 58.54) rotate(-75)"/>
</clipPath>
</defs>
</svg>
