<svg width="167" height="167" viewBox="0 0 167 167" fill="none" xmlns="http://www.w3.org/2000/svg">
<mask id="mask0_206:36804" style="mask-type:alpha" maskUnits="userSpaceOnUse" x="0" y="0" width="167" height="167">
<rect x="1" y="1" width="165" height="165" rx="8" fill="#5988D6" stroke="#EDE6FC" stroke-opacity="0.3"/>
</mask>
<g mask="url(#mask0_206:36804)">
<rect x="1" y="1" width="165" height="165" rx="8" fill="#A9D97A" stroke="#EDE6FC" stroke-opacity="0.3"/>
<path d="M84 104.524C109.865 104.524 130.832 83.5567 130.832 57.6921C130.832 31.8275 109.865 10.8601 84 10.8601C58.1354 10.8601 37.168 31.8275 37.168 57.6921C37.168 83.5567 58.1354 104.524 84 104.524Z" fill="#3E479B"/>
<path opacity="0.55" d="M84 100.255C107.507 100.255 126.563 81.1991 126.563 57.6921C126.563 34.1852 107.507 15.129 84 15.129C60.493 15.129 41.4369 34.1852 41.4369 57.6921C41.4369 81.1991 60.493 100.255 84 100.255Z" fill="white"/>
<path d="M84 95.9112C105.108 95.9112 122.219 78.8 122.219 57.6921C122.219 36.5843 105.108 19.473 84 19.473C62.8922 19.473 45.7809 36.5843 45.7809 57.6921C45.7809 78.8 62.8922 95.9112 84 95.9112Z" fill="white"/>
<path d="M83.973 21.1451H83.898C83.3492 21.1451 82.9043 21.59 82.9043 22.1388V27.1132C82.9043 27.662 83.3492 28.1069 83.898 28.1069H83.973C84.5218 28.1069 84.9667 27.662 84.9667 27.1132V22.1388C84.9667 21.59 84.5218 21.1451 83.973 21.1451Z" fill="#373449"/>
<path d="M84.1021 87.2773H84.027C83.4782 87.2773 83.0333 87.7222 83.0333 88.271V93.2454C83.0333 93.7942 83.4782 94.2391 84.027 94.2391H84.1021C84.6508 94.2391 85.0957 93.7942 85.0957 93.2454V88.271C85.0957 87.7222 84.6508 87.2773 84.1021 87.2773Z" fill="#373449"/>
<path d="M120.547 57.6651V57.59C120.547 57.0412 120.102 56.5964 119.553 56.5964H114.579C114.03 56.5964 113.585 57.0412 113.585 57.59V57.6651C113.585 58.2139 114.03 58.6588 114.579 58.6588H119.553C120.102 58.6588 120.547 58.2139 120.547 57.6651Z" fill="#373449"/>
<path d="M54.4148 57.7942V57.7191C54.4148 57.1703 53.9699 56.7254 53.4211 56.7254H48.4467C47.8979 56.7254 47.453 57.1703 47.453 57.7191V57.7942C47.453 58.343 47.8979 58.7879 48.4467 58.7879H53.4211C53.9699 58.7879 54.4148 58.343 54.4148 57.7942Z" fill="#373449"/>
<path d="M109.05 32.6016L108.997 32.5485C108.61 32.1603 107.98 32.1601 107.592 32.548L105.774 34.3644C105.386 34.7524 105.386 35.3815 105.774 35.7697L105.827 35.8228C106.215 36.211 106.844 36.2112 107.232 35.8233L109.05 34.0068C109.438 33.6189 109.438 32.9897 109.05 32.6016Z" fill="#373449"/>
<path d="M62.6003 79.2248L62.5472 79.1718C62.1593 78.7836 61.5302 78.7833 61.142 79.1713L58.9059 81.4058C58.5177 81.7937 58.5175 82.4228 58.9054 82.811L58.9585 82.8641C59.3464 83.2523 59.9756 83.2525 60.3637 82.8646L62.5998 80.6301C62.988 80.2422 62.9882 79.613 62.6003 79.2248Z" fill="#373449"/>
<path d="M109.096 82.7711L109.149 82.718C109.537 82.3301 109.537 81.701 109.15 81.3128L107.333 79.495C106.945 79.1069 106.316 79.1066 105.928 79.4946L105.875 79.5476C105.487 79.9355 105.486 80.5647 105.874 80.9529L107.691 82.7706C108.079 83.1588 108.708 83.159 109.096 82.7711Z" fill="#373449"/>
<path d="M62.4641 36.326L62.5172 36.2729C62.9054 35.885 62.9056 35.2558 62.5177 34.8676L60.2832 32.6316C59.8953 32.2434 59.2661 32.2432 58.8779 32.6311L58.8248 32.6841C58.4366 33.072 58.4364 33.7012 58.8243 34.0894L61.0588 36.3255C61.4468 36.7137 62.0759 36.7139 62.4641 36.326Z" fill="#373449"/>
<path d="M84.03 32.0906H83.9429C83.3377 32.0906 82.8472 32.5812 82.8472 33.1863V57.1878C82.8472 57.7929 83.3377 58.2835 83.9429 58.2835H84.03C84.6351 58.2835 85.1257 57.7929 85.1257 57.1878V33.1863C85.1257 32.5812 84.6351 32.0906 84.03 32.0906Z" fill="#3E479B"/>
<path d="M101.637 59.1811V59.0941C101.637 58.4889 101.147 57.9983 100.541 57.9983H83.943C83.3378 57.9983 82.8472 58.4889 82.8472 59.0941V59.1811C82.8472 59.7863 83.3378 60.2769 83.943 60.2769H100.541C101.147 60.2769 101.637 59.7863 101.637 59.1811Z" fill="#3E479B"/>
<path d="M101.211 42.1985L84.129 57.572" stroke="#373449" stroke-width="2" stroke-miterlimit="10" stroke-linecap="round"/>
<path d="M84 61.8199C86.2797 61.8199 88.1278 59.9718 88.1278 57.6921C88.1278 55.4124 86.2797 53.5643 84 53.5643C81.7203 53.5643 79.8722 55.4124 79.8722 57.6921C79.8722 59.9718 81.7203 61.8199 84 61.8199Z" fill="#4C65BA"/>
</g>
<g filter="url(#filter0_b_206:36804)">
<rect x="13" y="77" width="141" height="77" rx="10" fill="black" fill-opacity="0.8"/>
</g>
<path d="M28.3646 102.872C29.3446 102.872 30.2266 103.054 31.0106 103.418L30.6046 105.126L30.4226 105.154C29.9652 104.893 29.5546 104.706 29.1906 104.594C28.8359 104.473 28.4532 104.412 28.0426 104.412C27.2119 104.412 26.6052 104.659 26.2226 105.154C25.8399 105.649 25.6486 106.461 25.6486 107.59C25.6486 108.337 25.7279 108.929 25.8866 109.368C26.0546 109.807 26.3112 110.129 26.6566 110.334C27.0019 110.53 27.4592 110.628 28.0286 110.628C28.2246 110.628 28.4066 110.614 28.5746 110.586C28.7519 110.558 28.9666 110.507 29.2186 110.432L29.2466 109.662L29.2186 108.234L30.9686 108.108L30.9266 109.368L30.9686 111.566C29.8486 111.939 28.8172 112.126 27.8746 112.126C26.4746 112.126 25.4199 111.743 24.7106 110.978C24.0106 110.213 23.6606 109.116 23.6606 107.688C23.6606 106.129 24.0666 104.939 24.8786 104.118C25.6999 103.287 26.8619 102.872 28.3646 102.872ZM34.173 109.13L34.271 112H32.409L32.507 109.298L32.423 102.312L34.285 102.172L34.173 109.13ZM36.1568 109.312L36.0868 105.616L37.9208 105.462L37.8368 109.13L37.9208 112H36.0588L36.1568 109.312ZM37.0388 102.298C37.3281 102.298 37.5521 102.382 37.7108 102.55C37.8788 102.718 37.9628 102.951 37.9628 103.25C37.9628 103.567 37.8741 103.819 37.6968 104.006C37.5194 104.193 37.2768 104.286 36.9688 104.286C36.6608 104.286 36.4228 104.202 36.2548 104.034C36.0961 103.866 36.0168 103.628 36.0168 103.32C36.0168 103.012 36.1054 102.765 36.2828 102.578C36.4694 102.391 36.7214 102.298 37.0388 102.298ZM42.3551 105.364C42.6631 105.364 42.9665 105.397 43.2651 105.462C43.5731 105.518 43.8438 105.602 44.0771 105.714L43.7691 107.198L43.6151 107.268C43.1391 107.007 42.7145 106.876 42.3411 106.876C41.9118 106.876 41.5805 107.03 41.3471 107.338C41.1138 107.646 40.9971 108.085 40.9971 108.654C40.9971 109.307 41.1231 109.807 41.3751 110.152C41.6271 110.497 41.9865 110.67 42.4531 110.67C42.8731 110.67 43.3398 110.553 43.8531 110.32L43.9931 110.432L43.8111 111.874C43.2511 112.051 42.6771 112.14 42.0891 112.14C41.1931 112.14 40.4931 111.851 39.9891 111.272C39.4851 110.684 39.2331 109.867 39.2331 108.822C39.2331 107.739 39.5085 106.895 40.0591 106.288C40.6098 105.672 41.3751 105.364 42.3551 105.364ZM50.1079 108.976L46.3279 109.004C46.4119 110.171 47.0045 110.754 48.1059 110.754C48.6845 110.754 49.3285 110.591 50.0379 110.264L50.1919 110.362L49.9119 111.748C49.2025 112.009 48.5352 112.14 47.9099 112.14C46.8832 112.14 46.0759 111.841 45.4879 111.244C44.9092 110.647 44.6199 109.821 44.6199 108.766C44.6199 107.721 44.9045 106.895 45.4739 106.288C46.0432 105.672 46.8132 105.364 47.7839 105.364C48.6145 105.364 49.2539 105.593 49.7019 106.05C50.1592 106.498 50.3879 107.128 50.3879 107.94C50.3879 108.155 50.3645 108.425 50.3179 108.752L50.1079 108.976ZM48.7639 107.73C48.7639 107.357 48.6799 107.077 48.5119 106.89C48.3439 106.694 48.0965 106.596 47.7699 106.596C47.4059 106.596 47.1025 106.717 46.8599 106.96C46.6172 107.193 46.4539 107.534 46.3699 107.982L48.7359 107.926L48.7639 107.73ZM59.4694 112L59.5814 107.94C59.5814 107.249 59.2874 106.904 58.6994 106.904C58.2794 106.904 57.8407 107.091 57.3834 107.464L57.3414 109.144L57.4254 112H55.5634L55.6754 107.94C55.6847 107.604 55.61 107.347 55.4514 107.17C55.302 106.993 55.0827 106.904 54.7934 106.904C54.3827 106.904 53.93 107.1 53.4354 107.492V109.13L53.5194 112H51.6714L51.7694 109.312L51.6994 105.616L53.4494 105.462V106.414H53.5474C54.0607 105.947 54.6254 105.611 55.2414 105.406C56.2867 105.406 56.954 105.756 57.2434 106.456H57.3274C57.8594 105.961 58.466 105.611 59.1474 105.406C59.8567 105.406 60.3934 105.569 60.7574 105.896C61.1307 106.213 61.3081 106.675 61.2894 107.282L61.2474 109.144L61.3314 112H59.4694ZM63.0904 109.312L63.0204 105.616L64.8544 105.462L64.7704 109.13L64.8544 112H62.9924L63.0904 109.312ZM63.9724 102.298C64.2617 102.298 64.4857 102.382 64.6444 102.55C64.8124 102.718 64.8964 102.951 64.8964 103.25C64.8964 103.567 64.8077 103.819 64.6304 104.006C64.453 104.193 64.2104 104.286 63.9024 104.286C63.5944 104.286 63.3564 104.202 63.1884 104.034C63.0297 103.866 62.9504 103.628 62.9504 103.32C62.9504 103.012 63.039 102.765 63.2164 102.578C63.403 102.391 63.655 102.298 63.9724 102.298ZM69.1767 105.364C69.8954 105.364 70.4554 105.527 70.8567 105.854C71.2674 106.171 71.4727 106.619 71.4727 107.198C71.4727 107.366 71.4447 107.898 71.3887 108.794C71.3794 109.055 71.3654 109.326 71.3467 109.606C71.3281 109.877 71.3187 110.11 71.3187 110.306C71.3187 110.465 71.3421 110.577 71.3887 110.642C71.4354 110.698 71.5194 110.726 71.6407 110.726C71.7341 110.726 71.8554 110.707 72.0047 110.67L72.1447 110.782L71.9767 111.762C71.6781 111.958 71.3374 112.075 70.9547 112.112C70.6747 112.084 70.4414 111.986 70.2547 111.818C70.0681 111.641 69.9421 111.398 69.8767 111.09H69.7787C69.3121 111.585 68.8314 111.93 68.3367 112.126C67.6647 112.117 67.1374 111.939 66.7547 111.594C66.3721 111.249 66.1807 110.777 66.1807 110.18C66.1807 109.713 66.2974 109.349 66.5307 109.088C66.7734 108.817 67.1374 108.635 67.6227 108.542L69.7647 108.136V107.562C69.7647 106.955 69.4661 106.652 68.8687 106.652C68.5794 106.652 68.2714 106.717 67.9447 106.848C67.6274 106.979 67.2681 107.184 66.8667 107.464L66.7267 107.38L66.5167 106.148C66.9181 105.896 67.3474 105.705 67.8047 105.574C68.2621 105.434 68.7194 105.364 69.1767 105.364ZM68.2667 109.396C68.1174 109.433 68.0054 109.499 67.9307 109.592C67.8654 109.676 67.8327 109.807 67.8327 109.984C67.8327 110.227 67.8981 110.418 68.0287 110.558C68.1594 110.689 68.3414 110.754 68.5747 110.754C68.9387 110.754 69.3214 110.539 69.7227 110.11L69.7507 109.074L68.2667 109.396ZM79.1701 102.97C80.1128 102.97 80.8361 103.208 81.3401 103.684C81.8535 104.16 82.1101 104.841 82.1101 105.728C82.1101 106.409 81.9608 107.007 81.6621 107.52C81.3635 108.024 80.9341 108.416 80.3741 108.696C79.8235 108.976 79.1748 109.116 78.4281 109.116H77.5321V109.144L77.6161 112H75.7121L75.8101 109.312L75.7121 102.984L79.1701 102.97ZM78.8481 107.73C79.7068 107.487 80.1361 106.876 80.1361 105.896C80.1361 105.392 80.0055 105.019 79.7441 104.776C79.4921 104.524 79.1001 104.389 78.5681 104.37L77.6161 104.426L77.5601 107.674L78.8481 107.73ZM85.4769 105.364C86.4289 105.364 87.1569 105.644 87.6609 106.204C88.1649 106.764 88.4169 107.571 88.4169 108.626C88.4169 109.765 88.1462 110.637 87.6049 111.244C87.0636 111.841 86.2842 112.14 85.2669 112.14C84.3149 112.14 83.5869 111.86 83.0829 111.3C82.5789 110.74 82.3269 109.933 82.3269 108.878C82.3269 107.739 82.5976 106.871 83.1389 106.274C83.6802 105.667 84.4596 105.364 85.4769 105.364ZM85.3509 106.624C84.9029 106.624 84.5762 106.773 84.3709 107.072C84.1749 107.371 84.0769 107.851 84.0769 108.514C84.0769 109.373 84.1796 109.984 84.3849 110.348C84.5902 110.712 84.9262 110.894 85.3929 110.894C85.8409 110.894 86.1629 110.749 86.3589 110.46C86.5642 110.161 86.6669 109.676 86.6669 109.004C86.6669 108.155 86.5596 107.548 86.3449 107.184C86.1396 106.811 85.8082 106.624 85.3509 106.624ZM86.7509 101.878L87.4229 102.886L87.3949 103.068C87.1896 103.199 87.0356 103.292 86.9329 103.348C85.7662 104.067 85.0102 104.524 84.6649 104.72L84.4829 104.706L84.0349 104.006C85.1176 103.138 85.9622 102.424 86.5689 101.864L86.7509 101.878ZM91.8769 105.378C92.5115 105.378 93.1089 105.485 93.6689 105.7L93.4169 107.072L93.1929 107.142C92.9222 106.965 92.6515 106.829 92.3809 106.736C92.1102 106.643 91.8722 106.596 91.6669 106.596C91.4429 106.596 91.2655 106.657 91.1349 106.778C91.0042 106.89 90.9389 107.03 90.9389 107.198C90.9389 107.394 91.0229 107.553 91.1909 107.674C91.3682 107.795 91.6435 107.931 92.0169 108.08C92.3902 108.229 92.6982 108.374 92.9409 108.514C93.1835 108.654 93.3889 108.85 93.5569 109.102C93.7342 109.345 93.8229 109.648 93.8229 110.012C93.8229 110.385 93.7249 110.735 93.5289 111.062C93.3422 111.379 93.0529 111.641 92.6609 111.846C92.2689 112.042 91.7882 112.14 91.2189 112.14C90.5469 112.14 89.8515 112 89.1329 111.72L89.3429 110.264L89.5249 110.152C89.8142 110.395 90.1362 110.591 90.4909 110.74C90.8455 110.88 91.1582 110.95 91.4289 110.95C91.6809 110.95 91.8769 110.889 92.0169 110.768C92.1569 110.637 92.2269 110.483 92.2269 110.306C92.2269 110.11 92.1382 109.951 91.9609 109.83C91.7929 109.709 91.5222 109.573 91.1489 109.424C90.7662 109.256 90.4535 109.107 90.2109 108.976C89.9682 108.836 89.7582 108.64 89.5809 108.388C89.4129 108.136 89.3289 107.823 89.3289 107.45C89.3289 106.843 89.5575 106.349 90.0149 105.966C90.4722 105.574 91.0929 105.378 91.8769 105.378ZM100.629 105.406C101.441 105.406 102.066 105.681 102.505 106.232C102.944 106.783 103.163 107.562 103.163 108.57C103.163 109.709 102.878 110.591 102.309 111.216C101.749 111.832 100.956 112.14 99.9291 112.14C99.6304 112.14 99.3177 112.112 98.9911 112.056L99.0331 114.59H97.1851L97.2831 109.312L97.1991 105.616L98.9771 105.462L98.9631 106.414H99.0611C99.3224 106.162 99.5744 105.961 99.8171 105.812C100.06 105.653 100.33 105.518 100.629 105.406ZM99.9431 110.922C100.428 110.922 100.797 110.749 101.049 110.404C101.301 110.059 101.427 109.55 101.427 108.878C101.427 108.225 101.32 107.735 101.105 107.408C100.9 107.072 100.592 106.904 100.181 106.904C99.7797 106.904 99.3737 107.105 98.9631 107.506L98.9491 109.13L98.9771 110.712C99.3131 110.852 99.6351 110.922 99.9431 110.922ZM107.947 105.476C108.031 105.476 108.148 105.485 108.297 105.504V107.226L108.101 107.296C107.942 107.231 107.77 107.198 107.583 107.198C107.042 107.198 106.552 107.548 106.113 108.248V109.13L106.211 112H104.349L104.461 109.312L104.377 105.616L106.141 105.462L106.127 106.736H106.239C106.696 105.896 107.266 105.476 107.947 105.476ZM111.642 105.364C112.36 105.364 112.92 105.527 113.322 105.854C113.732 106.171 113.938 106.619 113.938 107.198C113.938 107.366 113.91 107.898 113.854 108.794C113.844 109.055 113.83 109.326 113.812 109.606C113.793 109.877 113.784 110.11 113.784 110.306C113.784 110.465 113.807 110.577 113.854 110.642C113.9 110.698 113.984 110.726 114.106 110.726C114.199 110.726 114.32 110.707 114.47 110.67L114.61 110.782L114.442 111.762C114.143 111.958 113.802 112.075 113.42 112.112C113.14 112.084 112.906 111.986 112.72 111.818C112.533 111.641 112.407 111.398 112.342 111.09H112.244C111.777 111.585 111.296 111.93 110.802 112.126C110.13 112.117 109.602 111.939 109.22 111.594C108.837 111.249 108.646 110.777 108.646 110.18C108.646 109.713 108.762 109.349 108.996 109.088C109.238 108.817 109.602 108.635 110.088 108.542L112.23 108.136V107.562C112.23 106.955 111.931 106.652 111.334 106.652C111.044 106.652 110.736 106.717 110.41 106.848C110.092 106.979 109.733 107.184 109.332 107.464L109.192 107.38L108.982 106.148C109.383 105.896 109.812 105.705 110.27 105.574C110.727 105.434 111.184 105.364 111.642 105.364ZM110.732 109.396C110.582 109.433 110.47 109.499 110.396 109.592C110.33 109.676 110.298 109.807 110.298 109.984C110.298 110.227 110.363 110.418 110.494 110.558C110.624 110.689 110.806 110.754 111.04 110.754C111.404 110.754 111.786 110.539 112.188 110.11L112.216 109.074L110.732 109.396ZM119.742 107.94C119.751 107.613 119.676 107.361 119.518 107.184C119.368 106.997 119.149 106.904 118.86 106.904C118.44 106.904 117.992 107.105 117.516 107.506V109.13L117.6 112H115.738L115.836 109.312L115.766 105.616L117.53 105.462V106.414H117.628C118.141 105.947 118.701 105.611 119.308 105.406C120.017 105.406 120.558 105.569 120.932 105.896C121.305 106.213 121.482 106.675 121.464 107.282L121.422 109.144L121.506 112H119.63L119.742 107.94ZM128.58 109.13L128.622 110.306C128.622 110.465 128.641 110.577 128.678 110.642C128.725 110.698 128.804 110.726 128.916 110.726C129.019 110.726 129.145 110.707 129.294 110.67L129.42 110.782L129.266 111.762C128.949 111.958 128.603 112.075 128.23 112.112C127.941 112.084 127.698 111.986 127.502 111.818C127.306 111.65 127.171 111.421 127.096 111.132H126.984C126.527 111.552 126.06 111.874 125.584 112.098C124.669 112.098 123.96 111.809 123.456 111.23C122.952 110.642 122.7 109.83 122.7 108.794C122.7 107.693 122.989 106.848 123.568 106.26C124.147 105.672 124.949 105.378 125.976 105.378C126.247 105.378 126.545 105.406 126.872 105.462L126.844 102.312L128.692 102.172L128.58 109.13ZM125.85 106.638C124.917 106.638 124.45 107.231 124.45 108.416C124.45 109.153 124.562 109.709 124.786 110.082C125.01 110.455 125.337 110.642 125.766 110.642C126.177 110.642 126.555 110.451 126.9 110.068L126.928 109.298L126.886 106.89C126.522 106.722 126.177 106.638 125.85 106.638ZM130.643 109.312L130.573 105.616L132.407 105.462L132.323 109.13L132.407 112H130.545L130.643 109.312ZM131.525 102.298C131.814 102.298 132.038 102.382 132.197 102.55C132.365 102.718 132.449 102.951 132.449 103.25C132.449 103.567 132.36 103.819 132.183 104.006C132.006 104.193 131.763 104.286 131.455 104.286C131.147 104.286 130.909 104.202 130.741 104.034C130.582 103.866 130.503 103.628 130.503 103.32C130.503 103.012 130.592 102.765 130.769 102.578C130.956 102.391 131.208 102.298 131.525 102.298ZM136.729 105.364C137.448 105.364 138.008 105.527 138.409 105.854C138.82 106.171 139.025 106.619 139.025 107.198C139.025 107.366 138.997 107.898 138.941 108.794C138.932 109.055 138.918 109.326 138.899 109.606C138.881 109.877 138.871 110.11 138.871 110.306C138.871 110.465 138.895 110.577 138.941 110.642C138.988 110.698 139.072 110.726 139.193 110.726C139.287 110.726 139.408 110.707 139.557 110.67L139.697 110.782L139.529 111.762C139.231 111.958 138.89 112.075 138.507 112.112C138.227 112.084 137.994 111.986 137.807 111.818C137.621 111.641 137.495 111.398 137.429 111.09H137.331C136.865 111.585 136.384 111.93 135.889 112.126C135.217 112.117 134.69 111.939 134.307 111.594C133.925 111.249 133.733 110.777 133.733 110.18C133.733 109.713 133.85 109.349 134.083 109.088C134.326 108.817 134.69 108.635 135.175 108.542L137.317 108.136V107.562C137.317 106.955 137.019 106.652 136.421 106.652C136.132 106.652 135.824 106.717 135.497 106.848C135.18 106.979 134.821 107.184 134.419 107.464L134.279 107.38L134.069 106.148C134.471 105.896 134.9 105.705 135.357 105.574C135.815 105.434 136.272 105.364 136.729 105.364ZM135.819 109.396C135.67 109.433 135.558 109.499 135.483 109.592C135.418 109.676 135.385 109.807 135.385 109.984C135.385 110.227 135.451 110.418 135.581 110.558C135.712 110.689 135.894 110.754 136.127 110.754C136.491 110.754 136.874 110.539 137.275 110.11L137.303 109.074L135.819 109.396ZM142.728 109.13L142.826 112H140.964L141.062 109.298L140.978 102.312L142.84 102.172L142.728 109.13ZM45.5003 121.364C46.4523 121.364 47.1803 121.644 47.6843 122.204C48.1883 122.764 48.4403 123.571 48.4403 124.626C48.4403 125.765 48.1697 126.637 47.6283 127.244C47.087 127.841 46.3077 128.14 45.2903 128.14C44.3383 128.14 43.6103 127.86 43.1063 127.3C42.6023 126.74 42.3503 125.933 42.3503 124.878C42.3503 123.739 42.621 122.871 43.1623 122.274C43.7037 121.667 44.483 121.364 45.5003 121.364ZM45.3743 122.624C44.9263 122.624 44.5997 122.773 44.3943 123.072C44.1983 123.371 44.1003 123.851 44.1003 124.514C44.1003 125.373 44.203 125.984 44.4083 126.348C44.6137 126.712 44.9497 126.894 45.4163 126.894C45.8643 126.894 46.1863 126.749 46.3823 126.46C46.5877 126.161 46.6903 125.676 46.6903 125.004C46.6903 124.155 46.583 123.548 46.3683 123.184C46.163 122.811 45.8317 122.624 45.3743 122.624ZM55.9323 126.782L55.7643 127.762C55.419 127.986 55.0643 128.103 54.7003 128.112C54.4296 128.065 54.2056 127.958 54.0283 127.79C53.851 127.622 53.7156 127.379 53.6223 127.062H53.4963C52.9643 127.585 52.4136 127.925 51.8443 128.084C51.135 128.084 50.5936 127.925 50.2203 127.608C49.8563 127.281 49.679 126.815 49.6883 126.208L49.7163 124.556L49.6463 121.616L51.4523 121.462L51.4103 125.592C51.401 125.919 51.4663 126.166 51.6063 126.334C51.7463 126.502 51.9563 126.586 52.2363 126.586C52.647 126.586 53.053 126.404 53.4543 126.04V121.616L55.2323 121.462L55.1063 126.306C55.1063 126.455 55.1296 126.563 55.1763 126.628C55.2323 126.693 55.3163 126.726 55.4283 126.726C55.531 126.726 55.657 126.707 55.8063 126.67L55.9323 126.782ZM62.5939 121.406C63.4059 121.406 64.0312 121.681 64.4699 122.232C64.9086 122.783 65.1279 123.562 65.1279 124.57C65.1279 125.709 64.8432 126.591 64.2739 127.216C63.7139 127.832 62.9206 128.14 61.8939 128.14C61.5952 128.14 61.2826 128.112 60.9559 128.056L60.9979 130.59H59.1499L59.2479 125.312L59.1639 121.616L60.9419 121.462L60.9279 122.414H61.0259C61.2872 122.162 61.5392 121.961 61.7819 121.812C62.0246 121.653 62.2952 121.518 62.5939 121.406ZM61.9079 126.922C62.3932 126.922 62.7619 126.749 63.0139 126.404C63.2659 126.059 63.3919 125.55 63.3919 124.878C63.3919 124.225 63.2846 123.735 63.0699 123.408C62.8646 123.072 62.5566 122.904 62.1459 122.904C61.7446 122.904 61.3386 123.105 60.9279 123.506L60.9139 125.13L60.9419 126.712C61.2779 126.852 61.5999 126.922 61.9079 126.922ZM69.098 121.364C70.05 121.364 70.778 121.644 71.282 122.204C71.786 122.764 72.038 123.571 72.038 124.626C72.038 125.765 71.7673 126.637 71.226 127.244C70.6847 127.841 69.9053 128.14 68.888 128.14C67.936 128.14 67.208 127.86 66.704 127.3C66.2 126.74 65.948 125.933 65.948 124.878C65.948 123.739 66.2187 122.871 66.76 122.274C67.3013 121.667 68.0807 121.364 69.098 121.364ZM68.972 122.624C68.524 122.624 68.1973 122.773 67.992 123.072C67.796 123.371 67.698 123.851 67.698 124.514C67.698 125.373 67.8007 125.984 68.006 126.348C68.2113 126.712 68.5473 126.894 69.014 126.894C69.462 126.894 69.784 126.749 69.98 126.46C70.1853 126.161 70.288 125.676 70.288 125.004C70.288 124.155 70.1807 123.548 69.966 123.184C69.7607 122.811 69.4293 122.624 68.972 122.624ZM70.372 117.878L71.044 118.886L71.016 119.068C70.8107 119.199 70.6567 119.292 70.554 119.348C69.3873 120.067 68.6313 120.524 68.286 120.72L68.104 120.706L67.656 120.006C68.7387 119.138 69.5833 118.424 70.19 117.864L70.372 117.878ZM75.498 121.378C76.1326 121.378 76.73 121.485 77.29 121.7L77.038 123.072L76.814 123.142C76.5433 122.965 76.2726 122.829 76.002 122.736C75.7313 122.643 75.4933 122.596 75.288 122.596C75.064 122.596 74.8866 122.657 74.756 122.778C74.6253 122.89 74.56 123.03 74.56 123.198C74.56 123.394 74.644 123.553 74.812 123.674C74.9893 123.795 75.2646 123.931 75.638 124.08C76.0113 124.229 76.3193 124.374 76.562 124.514C76.8046 124.654 77.01 124.85 77.178 125.102C77.3553 125.345 77.444 125.648 77.444 126.012C77.444 126.385 77.346 126.735 77.15 127.062C76.9633 127.379 76.674 127.641 76.282 127.846C75.89 128.042 75.4093 128.14 74.84 128.14C74.168 128.14 73.4726 128 72.754 127.72L72.964 126.264L73.146 126.152C73.4353 126.395 73.7573 126.591 74.112 126.74C74.4666 126.88 74.7793 126.95 75.05 126.95C75.302 126.95 75.498 126.889 75.638 126.768C75.778 126.637 75.848 126.483 75.848 126.306C75.848 126.11 75.7593 125.951 75.582 125.83C75.414 125.709 75.1433 125.573 74.77 125.424C74.3873 125.256 74.0746 125.107 73.832 124.976C73.5893 124.836 73.3793 124.64 73.202 124.388C73.034 124.136 72.95 123.823 72.95 123.45C72.95 122.843 73.1786 122.349 73.636 121.966C74.0933 121.574 74.714 121.378 75.498 121.378ZM84.4041 121.476C84.4881 121.476 84.6048 121.485 84.7541 121.504V123.226L84.5581 123.296C84.3995 123.231 84.2268 123.198 84.0401 123.198C83.4988 123.198 83.0088 123.548 82.5701 124.248V125.13L82.6681 128H80.8061L80.9181 125.312L80.8341 121.616L82.5981 121.462L82.5841 122.736H82.6961C83.1535 121.896 83.7228 121.476 84.4041 121.476ZM90.7133 124.976L86.9333 125.004C87.0173 126.171 87.61 126.754 88.7113 126.754C89.29 126.754 89.934 126.591 90.6433 126.264L90.7973 126.362L90.5173 127.748C89.808 128.009 89.1407 128.14 88.5153 128.14C87.4887 128.14 86.6813 127.841 86.0933 127.244C85.5147 126.647 85.2253 125.821 85.2253 124.766C85.2253 123.721 85.51 122.895 86.0793 122.288C86.6487 121.672 87.4187 121.364 88.3893 121.364C89.22 121.364 89.8593 121.593 90.3073 122.05C90.7647 122.498 90.9933 123.128 90.9933 123.94C90.9933 124.155 90.97 124.425 90.9233 124.752L90.7133 124.976ZM89.3693 123.73C89.3693 123.357 89.2853 123.077 89.1173 122.89C88.9493 122.694 88.702 122.596 88.3753 122.596C88.0113 122.596 87.708 122.717 87.4653 122.96C87.2227 123.193 87.0593 123.534 86.9753 123.982L89.3413 123.926L89.3693 123.73ZM95.6649 118.144C96.0475 118.144 96.4535 118.186 96.8829 118.27L96.7569 119.656L96.6309 119.74C96.1922 119.553 95.8095 119.46 95.4829 119.46C94.9042 119.46 94.6102 119.791 94.6009 120.454L94.5869 121.546H96.1689L96.2249 121.644L96.1409 122.666H94.5589L94.5169 125.13L94.6149 128H92.7529L92.8649 125.298L92.8369 122.666H91.8569L91.7869 122.568L91.8849 121.546H92.8229L92.8089 120.776C92.8089 119.936 93.0562 119.287 93.5509 118.83C94.0549 118.373 94.7595 118.144 95.6649 118.144ZM101.788 124.976L98.0076 125.004C98.0916 126.171 98.6842 126.754 99.7856 126.754C100.364 126.754 101.008 126.591 101.718 126.264L101.872 126.362L101.592 127.748C100.882 128.009 100.215 128.14 99.5896 128.14C98.5629 128.14 97.7556 127.841 97.1676 127.244C96.5889 126.647 96.2996 125.821 96.2996 124.766C96.2996 123.721 96.5842 122.895 97.1536 122.288C97.7229 121.672 98.4929 121.364 99.4636 121.364C100.294 121.364 100.934 121.593 101.382 122.05C101.839 122.498 102.068 123.128 102.068 123.94C102.068 124.155 102.044 124.425 101.998 124.752L101.788 124.976ZM100.444 123.73C100.444 123.357 100.36 123.077 100.192 122.89C100.024 122.694 99.7762 122.596 99.4496 122.596C99.0856 122.596 98.7822 122.717 98.5396 122.96C98.2969 123.193 98.1336 123.534 98.0496 123.982L100.416 123.926L100.444 123.73ZM103.477 125.312L103.407 121.616L105.241 121.462L105.157 125.13L105.241 128H103.379L103.477 125.312ZM104.359 118.298C104.648 118.298 104.872 118.382 105.031 118.55C105.199 118.718 105.283 118.951 105.283 119.25C105.283 119.567 105.194 119.819 105.017 120.006C104.84 120.193 104.597 120.286 104.289 120.286C103.981 120.286 103.743 120.202 103.575 120.034C103.416 119.866 103.337 119.628 103.337 119.32C103.337 119.012 103.426 118.765 103.603 118.578C103.79 118.391 104.042 118.298 104.359 118.298ZM109.675 121.364C109.983 121.364 110.287 121.397 110.585 121.462C110.893 121.518 111.164 121.602 111.397 121.714L111.089 123.198L110.935 123.268C110.459 123.007 110.035 122.876 109.661 122.876C109.232 122.876 108.901 123.03 108.667 123.338C108.434 123.646 108.317 124.085 108.317 124.654C108.317 125.307 108.443 125.807 108.695 126.152C108.947 126.497 109.307 126.67 109.773 126.67C110.193 126.67 110.66 126.553 111.173 126.32L111.313 126.432L111.131 127.874C110.571 128.051 109.997 128.14 109.409 128.14C108.513 128.14 107.813 127.851 107.309 127.272C106.805 126.684 106.553 125.867 106.553 124.822C106.553 123.739 106.829 122.895 107.379 122.288C107.93 121.672 108.695 121.364 109.675 121.364ZM109.661 128.672L110.137 128.938C110.343 129.05 110.487 129.171 110.571 129.302C110.665 129.442 110.711 129.596 110.711 129.764C110.711 130.072 110.59 130.324 110.347 130.52C110.105 130.716 109.787 130.814 109.395 130.814C108.975 130.814 108.593 130.683 108.247 130.422L108.373 129.638L108.457 129.596C108.737 129.876 109.013 130.016 109.283 130.016C109.507 130.016 109.619 129.918 109.619 129.722C109.619 129.657 109.601 129.601 109.563 129.554C109.526 129.517 109.465 129.479 109.381 129.442L108.695 129.05L109.017 127.636H109.913L109.661 128.672ZM114.813 121.364C115.532 121.364 116.092 121.527 116.493 121.854C116.904 122.171 117.109 122.619 117.109 123.198C117.109 123.366 117.081 123.898 117.025 124.794C117.016 125.055 117.002 125.326 116.983 125.606C116.965 125.877 116.955 126.11 116.955 126.306C116.955 126.465 116.979 126.577 117.025 126.642C117.072 126.698 117.156 126.726 117.277 126.726C117.371 126.726 117.492 126.707 117.641 126.67L117.781 126.782L117.613 127.762C117.315 127.958 116.974 128.075 116.591 128.112C116.311 128.084 116.078 127.986 115.891 127.818C115.705 127.641 115.579 127.398 115.513 127.09H115.415C114.949 127.585 114.468 127.93 113.973 128.126C113.301 128.117 112.774 127.939 112.391 127.594C112.009 127.249 111.817 126.777 111.817 126.18C111.817 125.713 111.934 125.349 112.167 125.088C112.41 124.817 112.774 124.635 113.259 124.542L115.401 124.136V123.562C115.401 122.955 115.103 122.652 114.505 122.652C114.216 122.652 113.908 122.717 113.581 122.848C113.264 122.979 112.905 123.184 112.503 123.464L112.363 123.38L112.153 122.148C112.555 121.896 112.984 121.705 113.441 121.574C113.899 121.434 114.356 121.364 114.813 121.364ZM113.903 125.396C113.754 125.433 113.642 125.499 113.567 125.592C113.502 125.676 113.469 125.807 113.469 125.984C113.469 126.227 113.535 126.418 113.665 126.558C113.796 126.689 113.978 126.754 114.211 126.754C114.575 126.754 114.958 126.539 115.359 126.11L115.387 125.074L113.903 125.396ZM117.109 118.732V118.886L116.129 120.132L115.947 120.202C115.695 120.174 115.308 120.085 114.785 119.936C114.739 119.927 114.585 119.889 114.323 119.824C114.071 119.749 113.894 119.712 113.791 119.712C113.689 119.712 113.586 119.754 113.483 119.838C113.39 119.922 113.287 120.025 113.175 120.146C113.063 120.267 112.979 120.361 112.923 120.426H112.755L112.195 119.88V119.726L113.189 118.48L113.357 118.41C113.581 118.438 113.978 118.531 114.547 118.69C115.07 118.83 115.392 118.9 115.513 118.9C115.625 118.9 115.733 118.853 115.835 118.76C115.947 118.667 116.059 118.559 116.171 118.438C116.283 118.317 116.358 118.233 116.395 118.186H116.563L117.109 118.732ZM121.694 121.364C122.646 121.364 123.374 121.644 123.878 122.204C124.382 122.764 124.634 123.571 124.634 124.626C124.634 125.765 124.363 126.637 123.822 127.244C123.28 127.841 122.501 128.14 121.484 128.14C120.532 128.14 119.804 127.86 119.3 127.3C118.796 126.74 118.544 125.933 118.544 124.878C118.544 123.739 118.814 122.871 119.356 122.274C119.897 121.667 120.676 121.364 121.694 121.364ZM121.568 122.624C121.12 122.624 120.793 122.773 120.588 123.072C120.392 123.371 120.294 123.851 120.294 124.514C120.294 125.373 120.396 125.984 120.602 126.348C120.807 126.712 121.143 126.894 121.61 126.894C122.058 126.894 122.38 126.749 122.576 126.46C122.781 126.161 122.884 125.676 122.884 125.004C122.884 124.155 122.776 123.548 122.562 123.184C122.356 122.811 122.025 122.624 121.568 122.624Z" fill="white"/>
<defs>
<filter id="filter0_b_206:36804" x="3" y="67" width="161" height="97" filterUnits="userSpaceOnUse" color-interpolation-filters="sRGB">
<feFlood flood-opacity="0" result="BackgroundImageFix"/>
<feGaussianBlur in="BackgroundImage" stdDeviation="5"/>
<feComposite in2="SourceAlpha" operator="in" result="effect1_backgroundBlur_206:36804"/>
<feBlend mode="normal" in="SourceGraphic" in2="effect1_backgroundBlur_206:36804" result="shape"/>
</filter>
</defs>
</svg>
