<svg width="167" height="167" viewBox="0 0 167 167" fill="none" xmlns="http://www.w3.org/2000/svg">
<mask id="mask0_206:36852" style="mask-type:alpha" maskUnits="userSpaceOnUse" x="0" y="0" width="167" height="167">
<rect x="1" y="1" width="165" height="165" rx="8" fill="#5988D6" stroke="#EDE6FC" stroke-opacity="0.3"/>
</mask>
<g mask="url(#mask0_206:36852)">
<rect x="1" y="1" width="165" height="165" rx="8" fill="#7A83D9" stroke="#EDE6FC" stroke-opacity="0.3"/>
<path d="M87.9457 28.4173H98.2934L101.102 28.3187V35.3158L94.6471 49.3592L91.1978 58.5243L83.5109 56.4055L82.9196 54.9273L91.7891 36.3506H86.4181L80.9486 36.9419L80.5051 36.2027L81.0964 28.1709L87.9457 28.4173Z" fill="#394087"/>
<path d="M115.599 27.9245C118.916 27.9245 121.495 29.025 123.335 31.2259C125.207 33.394 126.143 36.4655 126.143 40.4404C126.143 44.8423 125.109 48.2587 123.039 50.6896C120.97 53.1205 118.079 54.336 114.367 54.336C111.016 54.336 108.404 53.2355 106.532 51.0345C104.66 48.8336 103.723 45.7457 103.723 41.7708C103.723 37.4346 104.758 34.051 106.828 31.6201C108.93 29.1564 111.854 27.9245 115.599 27.9245ZM114.859 36.8926C113.513 36.8926 112.56 37.2047 112.002 37.8288C111.443 38.453 111.164 39.5534 111.164 41.1302C111.164 42.8384 111.443 44.0703 112.002 44.8259C112.56 45.5486 113.529 45.9099 114.909 45.9099C116.288 45.9099 117.274 45.5814 117.865 44.9244C118.457 44.2346 118.752 43.1177 118.752 41.5737C118.752 39.8655 118.44 38.6665 117.816 37.9766C117.225 37.2539 116.239 36.8926 114.859 36.8926Z" fill="#394087"/>
<path fill-rule="evenodd" clip-rule="evenodd" d="M75.1824 42.5794L61.3717 56.39C60.5242 57.2375 59.1502 57.2375 58.3027 56.39L44.492 42.5794C43.6445 41.7319 43.6445 40.3578 44.492 39.5103C45.3395 38.6629 46.7136 38.6629 47.5611 39.5103L57.6671 49.6164L57.6671 19.5431L62.0073 19.5431L62.0073 49.6164L72.1133 39.5104C72.9608 38.6629 74.3349 38.6629 75.1824 39.5104C76.0299 40.3578 76.0299 41.7319 75.1824 42.5794Z" fill="#394087"/>
<path d="M84.9457 28.4173H95.2934L98.1021 28.3187V35.3158L91.6471 49.3592L88.1978 58.5243L80.5109 56.4055L79.9196 54.9273L88.7891 36.3506H83.4181L77.9486 36.9419L77.5051 36.2027L78.0964 28.1709L84.9457 28.4173Z" fill="white"/>
<path d="M112.599 27.9245C115.916 27.9245 118.495 29.025 120.335 31.2259C122.207 33.394 123.143 36.4655 123.143 40.4404C123.143 44.8423 122.109 48.2587 120.039 50.6896C117.97 53.1205 115.079 54.336 111.367 54.336C108.016 54.336 105.404 53.2355 103.532 51.0345C101.66 48.8336 100.723 45.7457 100.723 41.7708C100.723 37.4346 101.758 34.051 103.828 31.6201C105.93 29.1564 108.854 27.9245 112.599 27.9245ZM111.859 36.8926C110.513 36.8926 109.56 37.2047 109.002 37.8288C108.443 38.453 108.164 39.5534 108.164 41.1302C108.164 42.8384 108.443 44.0703 109.002 44.8259C109.56 45.5486 110.529 45.9099 111.909 45.9099C113.288 45.9099 114.274 45.5814 114.865 44.9244C115.457 44.2346 115.752 43.1177 115.752 41.5737C115.752 39.8655 115.44 38.6665 114.816 37.9766C114.225 37.2539 113.239 36.8926 111.859 36.8926Z" fill="white"/>
<path fill-rule="evenodd" clip-rule="evenodd" d="M72.1824 42.5794L58.3717 56.39C57.5242 57.2375 56.1502 57.2375 55.3027 56.39L41.492 42.5794C40.6445 41.7319 40.6445 40.3578 41.492 39.5103C42.3395 38.6629 43.7136 38.6629 44.5611 39.5103L54.6671 49.6164L54.6671 19.5431L59.0073 19.5431L59.0073 49.6164L69.1133 39.5104C69.9608 38.6629 71.3349 38.6629 72.1824 39.5104C73.0299 40.3578 73.0299 41.7319 72.1824 42.5794Z" fill="white"/>
</g>
<g filter="url(#filter0_b_206:36852)">
<rect x="13" y="77" width="141" height="77" rx="10" fill="black" fill-opacity="0.8"/>
</g>
<path d="M54.3551 117.144L54.4111 120H52.5211L52.6051 117.312L52.5911 116.262L50.5611 116.248L48.7271 116.276L48.7131 117.144L48.7831 120H46.8931L46.9911 117.312L46.8931 110.984H48.8111L48.7551 114.708L50.6871 114.736L52.5771 114.708L52.5211 110.984H54.4531L54.3551 117.144ZM56.4732 117.312L56.4032 113.616L58.2372 113.462L58.1532 117.13L58.2372 120H56.3752L56.4732 117.312ZM57.3552 110.298C57.6445 110.298 57.8685 110.382 58.0272 110.55C58.1952 110.718 58.2792 110.951 58.2792 111.25C58.2792 111.567 58.1905 111.819 58.0132 112.006C57.8358 112.193 57.5932 112.286 57.2852 112.286C56.9772 112.286 56.7392 112.202 56.5712 112.034C56.4125 111.866 56.3332 111.628 56.3332 111.32C56.3332 111.012 56.4218 110.765 56.5992 110.578C56.7858 110.391 57.0378 110.298 57.3552 110.298ZM63.3869 113.406C64.1989 113.406 64.8242 113.681 65.2629 114.232C65.7015 114.783 65.9209 115.562 65.9209 116.57C65.9209 117.709 65.6362 118.591 65.0669 119.216C64.5069 119.832 63.7135 120.14 62.6869 120.14C62.3882 120.14 62.0755 120.112 61.7489 120.056L61.7909 122.59H59.9429L60.0409 117.312L59.9569 113.616L61.7349 113.462L61.7209 114.414H61.8189C62.0802 114.162 62.3322 113.961 62.5749 113.812C62.8175 113.653 63.0882 113.518 63.3869 113.406ZM62.7009 118.922C63.1862 118.922 63.5549 118.749 63.8069 118.404C64.0589 118.059 64.1849 117.55 64.1849 116.878C64.1849 116.225 64.0775 115.735 63.8629 115.408C63.6575 115.072 63.3495 114.904 62.9389 114.904C62.5375 114.904 62.1315 115.105 61.7209 115.506L61.7069 117.13L61.7349 118.712C62.0709 118.852 62.3929 118.922 62.7009 118.922ZM69.891 113.364C70.843 113.364 71.571 113.644 72.075 114.204C72.579 114.764 72.831 115.571 72.831 116.626C72.831 117.765 72.5603 118.637 72.019 119.244C71.4776 119.841 70.6983 120.14 69.681 120.14C68.729 120.14 68.001 119.86 67.497 119.3C66.993 118.74 66.741 117.933 66.741 116.878C66.741 115.739 67.0116 114.871 67.553 114.274C68.0943 113.667 68.8736 113.364 69.891 113.364ZM69.765 114.624C69.317 114.624 68.9903 114.773 68.785 115.072C68.589 115.371 68.491 115.851 68.491 116.514C68.491 117.373 68.5936 117.984 68.799 118.348C69.0043 118.712 69.3403 118.894 69.807 118.894C70.255 118.894 70.577 118.749 70.773 118.46C70.9783 118.161 71.081 117.676 71.081 117.004C71.081 116.155 70.9736 115.548 70.759 115.184C70.5536 114.811 70.2223 114.624 69.765 114.624ZM80.3649 114.372C80.1129 114.437 79.7536 114.507 79.2869 114.582L79.2589 114.638C79.3989 114.918 79.4689 115.231 79.4689 115.576C79.4689 116.276 79.2123 116.836 78.6989 117.256C78.1949 117.667 77.5089 117.872 76.6409 117.872C76.3796 117.872 76.1089 117.849 75.8289 117.802C75.7449 117.886 75.6889 117.951 75.6609 117.998C75.6329 118.045 75.6189 118.101 75.6189 118.166C75.6189 118.334 75.7309 118.451 75.9549 118.516C76.1789 118.581 76.5336 118.647 77.0189 118.712C77.5696 118.777 78.0269 118.857 78.3909 118.95C78.7643 119.043 79.0816 119.207 79.3429 119.44C79.6136 119.673 79.7489 120.005 79.7489 120.434C79.7489 120.873 79.6089 121.265 79.3289 121.61C79.0583 121.965 78.6803 122.24 78.1949 122.436C77.7096 122.632 77.1589 122.73 76.5429 122.73C75.6936 122.73 75.0403 122.557 74.5829 122.212C74.1256 121.867 73.8969 121.409 73.8969 120.84C74.1863 120.439 74.5736 120.089 75.0589 119.79V119.72C74.7416 119.608 74.4943 119.454 74.3169 119.258C74.1396 119.053 74.0509 118.782 74.0509 118.446C74.3029 118.138 74.6203 117.853 75.0029 117.592V117.522C74.6669 117.335 74.4103 117.093 74.2329 116.794C74.0649 116.486 73.9809 116.127 73.9809 115.716C73.9809 114.988 74.2329 114.419 74.7369 114.008C75.2409 113.597 75.9269 113.392 76.7949 113.392C77.2989 113.392 77.7563 113.476 78.1669 113.644C78.8389 113.523 79.5249 113.336 80.2249 113.084L80.3649 113.21V114.372ZM76.6969 116.752C77.0796 116.752 77.3689 116.654 77.5649 116.458C77.7609 116.262 77.8589 115.977 77.8589 115.604C77.8589 114.895 77.4949 114.54 76.7669 114.54C75.9829 114.54 75.5909 114.899 75.5909 115.618C75.5909 115.991 75.6843 116.276 75.8709 116.472C76.0576 116.659 76.3329 116.752 76.6969 116.752ZM78.1809 120.77C78.1809 120.518 78.0456 120.345 77.7749 120.252C77.5136 120.159 77.1076 120.079 76.5569 120.014L76.0809 119.944C75.8569 120.093 75.6889 120.238 75.5769 120.378C75.4649 120.518 75.4089 120.667 75.4089 120.826C75.4089 121.069 75.5209 121.265 75.7449 121.414C75.9689 121.563 76.2956 121.638 76.7249 121.638C77.1636 121.638 77.5136 121.559 77.7749 121.4C78.0456 121.251 78.1809 121.041 78.1809 120.77ZM82.9269 117.13L83.0249 120H81.1629L81.2609 117.298L81.1769 110.312L83.0389 110.172L82.9269 117.13ZM84.9107 117.312L84.8407 113.616L86.6747 113.462L86.5907 117.13L86.6747 120H84.8127L84.9107 117.312ZM85.7927 110.298C86.082 110.298 86.306 110.382 86.4647 110.55C86.6327 110.718 86.7167 110.951 86.7167 111.25C86.7167 111.567 86.628 111.819 86.4507 112.006C86.2733 112.193 86.0307 112.286 85.7227 112.286C85.4147 112.286 85.1767 112.202 85.0087 112.034C84.85 111.866 84.7707 111.628 84.7707 111.32C84.7707 111.012 84.8593 110.765 85.0367 110.578C85.2233 110.391 85.4753 110.298 85.7927 110.298ZM91.1091 113.364C91.4171 113.364 91.7204 113.397 92.0191 113.462C92.3271 113.518 92.5977 113.602 92.8311 113.714L92.5231 115.198L92.3691 115.268C91.8931 115.007 91.4684 114.876 91.0951 114.876C90.6657 114.876 90.3344 115.03 90.1011 115.338C89.8677 115.646 89.7511 116.085 89.7511 116.654C89.7511 117.307 89.8771 117.807 90.1291 118.152C90.3811 118.497 90.7404 118.67 91.2071 118.67C91.6271 118.67 92.0937 118.553 92.6071 118.32L92.7471 118.432L92.5651 119.874C92.0051 120.051 91.4311 120.14 90.8431 120.14C89.9471 120.14 89.2471 119.851 88.7431 119.272C88.2391 118.684 87.9871 117.867 87.9871 116.822C87.9871 115.739 88.2624 114.895 88.8131 114.288C89.3637 113.672 90.1291 113.364 91.1091 113.364ZM98.8618 116.976L95.0818 117.004C95.1658 118.171 95.7584 118.754 96.8598 118.754C97.4384 118.754 98.0824 118.591 98.7918 118.264L98.9458 118.362L98.6658 119.748C97.9564 120.009 97.2891 120.14 96.6638 120.14C95.6371 120.14 94.8298 119.841 94.2418 119.244C93.6631 118.647 93.3738 117.821 93.3738 116.766C93.3738 115.721 93.6584 114.895 94.2278 114.288C94.7971 113.672 95.5671 113.364 96.5378 113.364C97.3684 113.364 98.0078 113.593 98.4558 114.05C98.9131 114.498 99.1418 115.128 99.1418 115.94C99.1418 116.155 99.1184 116.425 99.0718 116.752L98.8618 116.976ZM97.5178 115.73C97.5178 115.357 97.4338 115.077 97.2658 114.89C97.0978 114.694 96.8504 114.596 96.5238 114.596C96.1598 114.596 95.8564 114.717 95.6138 114.96C95.3711 115.193 95.2078 115.534 95.1238 115.982L97.4898 115.926L97.5178 115.73ZM108.223 120L108.335 115.94C108.335 115.249 108.041 114.904 107.453 114.904C107.033 114.904 106.595 115.091 106.137 115.464L106.095 117.144L106.179 120H104.317L104.429 115.94C104.439 115.604 104.364 115.347 104.205 115.17C104.056 114.993 103.837 114.904 103.547 114.904C103.137 114.904 102.684 115.1 102.189 115.492V117.13L102.273 120H100.425L100.523 117.312L100.453 113.616L102.203 113.462V114.414H102.301C102.815 113.947 103.379 113.611 103.995 113.406C105.041 113.406 105.708 113.756 105.997 114.456H106.081C106.613 113.961 107.22 113.611 107.901 113.406C108.611 113.406 109.147 113.569 109.511 113.896C109.885 114.213 110.062 114.675 110.043 115.282L110.001 117.144L110.085 120H108.223ZM111.844 117.312L111.774 113.616L113.608 113.462L113.524 117.13L113.608 120H111.746L111.844 117.312ZM112.726 110.298C113.016 110.298 113.24 110.382 113.398 110.55C113.566 110.718 113.65 110.951 113.65 111.25C113.65 111.567 113.562 111.819 113.384 112.006C113.207 112.193 112.964 112.286 112.656 112.286C112.348 112.286 112.11 112.202 111.942 112.034C111.784 111.866 111.704 111.628 111.704 111.32C111.704 111.012 111.793 110.765 111.97 110.578C112.157 110.391 112.409 110.298 112.726 110.298ZM117.931 113.364C118.649 113.364 119.209 113.527 119.611 113.854C120.021 114.171 120.227 114.619 120.227 115.198C120.227 115.366 120.199 115.898 120.143 116.794C120.133 117.055 120.119 117.326 120.101 117.606C120.082 117.877 120.073 118.11 120.073 118.306C120.073 118.465 120.096 118.577 120.143 118.642C120.189 118.698 120.273 118.726 120.395 118.726C120.488 118.726 120.609 118.707 120.759 118.67L120.899 118.782L120.731 119.762C120.432 119.958 120.091 120.075 119.709 120.112C119.429 120.084 119.195 119.986 119.009 119.818C118.822 119.641 118.696 119.398 118.631 119.09H118.533C118.066 119.585 117.585 119.93 117.091 120.126C116.419 120.117 115.891 119.939 115.509 119.594C115.126 119.249 114.935 118.777 114.935 118.18C114.935 117.713 115.051 117.349 115.285 117.088C115.527 116.817 115.891 116.635 116.377 116.542L118.519 116.136V115.562C118.519 114.955 118.22 114.652 117.623 114.652C117.333 114.652 117.025 114.717 116.699 114.848C116.381 114.979 116.022 115.184 115.621 115.464L115.481 115.38L115.271 114.148C115.672 113.896 116.101 113.705 116.559 113.574C117.016 113.434 117.473 113.364 117.931 113.364ZM117.021 117.396C116.871 117.433 116.759 117.499 116.685 117.592C116.619 117.676 116.587 117.807 116.587 117.984C116.587 118.227 116.652 118.418 116.783 118.558C116.913 118.689 117.095 118.754 117.329 118.754C117.693 118.754 118.075 118.539 118.477 118.11L118.505 117.074L117.021 117.396Z" fill="white"/>
<defs>
<filter id="filter0_b_206:36852" x="3" y="67" width="161" height="97" filterUnits="userSpaceOnUse" color-interpolation-filters="sRGB">
<feFlood flood-opacity="0" result="BackgroundImageFix"/>
<feGaussianBlur in="BackgroundImage" stdDeviation="5"/>
<feComposite in2="SourceAlpha" operator="in" result="effect1_backgroundBlur_206:36852"/>
<feBlend mode="normal" in="SourceGraphic" in2="effect1_backgroundBlur_206:36852" result="shape"/>
</filter>
</defs>
</svg>
