<svg width="167" height="167" viewBox="0 0 167 167" fill="none" xmlns="http://www.w3.org/2000/svg">
<mask id="mask0_136:22565" style="mask-type:alpha" maskUnits="userSpaceOnUse" x="0" y="0" width="167" height="167">
<rect x="1" y="1" width="165" height="165" rx="8" fill="#5988D6" stroke="#EDE6FC" stroke-opacity="0.3"/>
</mask>
<g mask="url(#mask0_136:22565)">
<rect x="1" y="1" width="165" height="165" rx="8" fill="#7A83D9" stroke="#EDE6FC" stroke-opacity="0.3"/>
<g clip-path="url(#clip0_136:22565)">
<path d="M54.8827 77.9377C58.0368 69.473 71.2932 65.4251 74.6664 62.9457C79.0025 59.7916 77.6244 49.3606 77.6244 49.3606L84.711 49.5451L91.7976 49.3606C91.7976 49.3606 90.4195 59.7916 94.7499 62.9457C98.1231 65.3963 111.604 69.4441 114.753 77.9377C117.901 86.4312 114.753 117.822 114.753 117.822H55.9379C55.9379 117.822 51.7344 86.4024 54.8827 77.9377Z" fill="#965450"/>
<path d="M93.1179 61.0313C89.7966 60.6911 86.4638 60.0165 83.5749 58.402C81.5082 57.2378 79.5747 55.8514 77.8088 54.2676C77.8706 52.6392 77.809 51.0085 77.6243 49.3895L84.7109 49.574L91.7975 49.3895C91.7975 49.3895 90.8115 56.8163 93.1179 61.0313Z" fill="#76413B"/>
<path d="M114.753 77.9377C117.901 86.4024 114.753 117.822 114.753 117.822L100.695 90.4329L114.753 77.9377Z" fill="#76413B"/>
<path d="M107.533 100.126L117.526 99.359C117.682 91.9552 116.5 80.7516 115.22 77.2976C112.556 70.1361 102.621 66.094 97.3906 63.4992C94.0578 66.1113 89.5371 67.0224 84.9069 66.8897C81.649 66.7975 78.0625 66.2728 75.2717 64.4449C74.5476 63.9738 73.8595 63.4496 73.2131 62.8765C68.5195 65.4367 57.2813 69.5422 54.3924 77.2919C51.1922 85.895 55.4707 117.816 55.4707 117.816H114.061L107.533 100.126Z" fill="#FFA65B"/>
<path d="M54.2253 106.549C54.802 112.973 55.4824 117.822 55.4824 117.822H114.061L109.004 102.207C90.7078 103.268 72.406 104.295 54.2253 106.549Z" fill="#D68950"/>
<path d="M67.4472 99.1917V98.2173L51.8785 97.5138C51.8785 97.5138 50.7253 117.816 57.564 118.272C59.0401 118.37 61.6003 118.428 64.7198 118.462C65.5443 112.01 66.4727 105.604 67.4472 99.1917Z" fill="#965450"/>
<path d="M66.8648 103.084C67.057 101.788 67.2492 100.491 67.4414 99.1917V98.2173L51.8728 97.5138C51.8728 97.5138 51.8036 98.7824 51.7979 100.697C56.1398 101.596 60.5739 102.156 64.9332 102.801L66.8648 103.084Z" fill="#76413B"/>
<path d="M73.2246 62.8765C73.2246 62.8765 54.4962 69.1385 51.8899 80.7112C50.3042 87.7286 48.9434 97.6291 48.9434 97.6291L68.3695 100.881L69.1768 86.6157L73.2246 62.8765Z" fill="#FFA65B"/>
<path d="M127.294 124.148C118.645 121.391 102.436 119.535 83.8922 119.535C65.3482 119.535 49.1568 121.391 40.4903 124.148H33.79V128.761C33.79 133.858 56.2204 137.986 83.8922 137.986C111.564 137.986 133.994 133.858 133.994 128.761V124.148H127.294Z" fill="#594750"/>
<path d="M83.8922 133.374C111.563 133.374 133.994 129.243 133.994 124.148C133.994 119.052 111.563 114.922 83.8922 114.922C56.2215 114.922 33.79 119.052 33.79 124.148C33.79 129.243 56.2215 133.374 83.8922 133.374Z" fill="#765E69"/>
<path d="M73.9743 33.9765C72.8211 30.4246 70.1168 31.2491 69.863 31.3356C69.6093 31.4221 66.7954 31.7796 67.2798 35.4815C67.7642 39.1834 69.9265 41.2477 71.9504 40.6249C74.0377 40.2962 75.1275 37.5515 73.9743 33.9765Z" fill="#76413B"/>
<path d="M102.92 35.2681C103.186 31.5432 100.366 31.2953 100.101 31.278C99.8355 31.2607 97.0851 30.5457 96.151 34.161C95.2168 37.7764 96.4623 40.475 98.5612 40.6825C100.614 41.1496 102.644 39.0104 102.92 35.2681Z" fill="#76413B"/>
<path d="M70.803 27.5357C72.2214 11.9671 84.0651 12.8378 85.1722 12.9531C86.2851 12.8378 98.123 11.9614 99.5415 27.5357C100.972 43.1966 98.0827 54.6713 86.856 55.2479C73.7206 54.383 69.373 43.1966 70.803 27.5357Z" fill="#965450"/>
<path d="M88.3378 30.8686C88.8206 32.4029 89.221 33.962 89.5372 35.5392C89.6986 36.3234 89.8601 37.1076 89.9985 37.8975C90.1368 38.6875 90.2637 39.4832 90.379 40.2732L90.4136 40.5327L90.1887 40.5903C89.2395 40.8507 88.2771 41.0605 87.3057 41.2188C88.1879 40.7806 89.0932 40.4058 89.9985 40.0656L89.8139 40.3827C89.6294 39.5985 89.4622 38.8201 89.3123 38.0301C89.1624 37.2402 89.0182 36.4502 88.8798 35.6602C88.6175 34.0733 88.4366 32.474 88.3378 30.8686Z" fill="#76413B"/>
<path d="M97.3503 29.7153L96.987 29.5135L96.5834 29.2944L96.0644 29.0234C95.8741 28.9369 95.6781 28.8273 95.459 28.7351C95.2407 28.6353 95.0174 28.5468 94.7901 28.4698C94.5652 28.3718 94.3173 28.3315 94.0866 28.2507C93.8477 28.195 93.6048 28.1583 93.3601 28.1412L92.9968 28.1123H92.6393C92.404 28.1282 92.1705 28.1649 91.9416 28.2219C91.7052 28.2623 91.4976 28.3661 91.2785 28.4237C91.1702 28.4513 91.067 28.4961 90.9729 28.5563L90.6788 28.689C90.5033 28.7643 90.332 28.849 90.1656 28.9427C90.0215 29.0349 89.8773 29.1099 89.7678 29.1733L89.3872 29.3636C89.4426 29.2348 89.5062 29.1096 89.5775 28.9888C89.6409 28.8735 89.7216 28.7293 89.8254 28.5679C89.9366 28.3882 90.0703 28.2235 90.2233 28.0778C90.3905 27.8805 90.5846 27.7077 90.7999 27.5646C91.0337 27.3863 91.2871 27.2354 91.5553 27.1148C91.8486 26.9804 92.159 26.8873 92.4779 26.838C92.6451 26.838 92.8123 26.7861 92.9795 26.7746C93.1467 26.7631 93.314 26.7746 93.4812 26.7746C93.8122 26.8042 94.1389 26.87 94.4557 26.9706C94.7499 27.0744 95.0337 27.2057 95.3033 27.3628C95.4301 27.4435 95.557 27.5184 95.6723 27.5992L96.001 27.8586C96.1939 28.0183 96.3751 28.1917 96.543 28.3776C96.79 28.6541 97.0048 28.9578 97.1831 29.2829C97.2525 29.4214 97.3085 29.5662 97.3503 29.7153Z" fill="#352C38"/>
<path d="M83.2001 28.885L82.8368 28.6832L82.4274 28.4641L81.9142 28.1931C81.7182 28.1066 81.5222 27.997 81.3376 27.9048C81.1531 27.8125 80.8994 27.7203 80.6688 27.6395C80.4381 27.5588 80.1959 27.5011 79.9595 27.4204C79.7208 27.3638 79.4778 27.3272 79.233 27.3109L78.8755 27.282H78.518C78.2808 27.2983 78.0454 27.335 77.8145 27.3916C77.5839 27.4319 77.3705 27.5357 77.1514 27.5934C77.0439 27.6232 76.941 27.6678 76.8458 27.726L76.5575 27.8586C76.3809 27.9316 76.2095 28.0164 76.0443 28.1124C75.8944 28.2046 75.756 28.2796 75.6407 28.343C75.4158 28.4641 75.2659 28.5333 75.2659 28.5333C75.3213 28.4044 75.3848 28.2792 75.4562 28.1585C75.5196 28.0432 75.6003 27.899 75.6983 27.7376C75.8096 27.5564 75.9455 27.3914 76.102 27.2474C76.2688 27.0498 76.4629 26.877 76.6786 26.7342C76.914 26.5584 77.1672 26.4077 77.4339 26.2845C77.7292 26.15 78.0416 26.0569 78.3623 26.0077C78.5237 26.0077 78.691 25.9558 78.8582 25.9443C79.0254 25.9327 79.1926 25.9443 79.3656 25.9443C79.6947 25.9739 80.0196 26.0397 80.3343 26.1403C80.629 26.2429 80.9129 26.3742 81.1819 26.5324C81.3088 26.6132 81.4414 26.6881 81.5567 26.7688L81.8796 27.0283C82.0752 27.185 82.2566 27.3587 82.4217 27.5473C82.6706 27.8222 82.8855 28.1262 83.0617 28.4526C83.1225 28.5916 83.1689 28.7365 83.2001 28.885Z" fill="#352C38"/>
<path d="M95.9147 35.5911L95.7763 35.199C95.6898 34.951 95.5399 34.6223 95.3554 34.2072C95.1479 33.7609 94.8823 33.344 94.5654 32.9675C94.3981 32.7736 94.2039 32.6046 93.9888 32.4658C93.8768 32.4068 93.7613 32.3548 93.6428 32.3101L93.4583 32.264H93.4122H93.2911H93.0662L92.9278 32.3043C92.8355 32.3043 92.7202 32.3966 92.6164 32.4312C92.3978 32.5747 92.2032 32.7518 92.0398 32.9559C91.8798 33.1556 91.7388 33.3699 91.6189 33.596C91.4978 33.8151 91.394 34.0284 91.3017 34.2302C91.123 34.6339 90.9731 34.9856 90.8866 35.2336L90.7424 35.6256C90.7424 35.6256 90.7424 35.47 90.7713 35.2047C90.8073 34.8372 90.8709 34.4729 90.9615 34.1149C91.0255 33.8719 91.1045 33.6331 91.198 33.3999C91.2997 33.1305 91.4312 32.8732 91.5901 32.633C91.7678 32.3594 91.9946 32.1209 92.2589 31.9295C92.4158 31.8296 92.5869 31.7538 92.7664 31.7047L93.0604 31.647H93.2853C93.6382 31.68 93.9782 31.7966 94.2771 31.9872C94.5441 32.1691 94.7782 32.3953 94.969 32.6561C95.1432 32.8853 95.2884 33.1352 95.4015 33.3999C95.5079 33.6285 95.5947 33.8658 95.661 34.1091C95.7614 34.4658 95.8309 34.8304 95.8685 35.199C95.8919 35.3286 95.9073 35.4595 95.9147 35.5911Z" fill="#352C38"/>
<path d="M82.3007 35.5911L82.1565 35.199C82.0336 34.8613 81.8931 34.5302 81.7356 34.2072C81.5281 33.7609 81.2625 33.344 80.9456 32.9675C80.7784 32.7736 80.5842 32.6046 80.369 32.4658C80.2581 32.4046 80.1424 32.3526 80.023 32.3101L79.8443 32.264H79.7982H79.7636C79.8443 32.264 79.7636 32.264 79.7982 32.264H79.6771H79.4522L79.308 32.3043C79.2158 32.3043 79.1005 32.3966 78.9967 32.4312C78.7883 32.577 78.6036 32.754 78.4489 32.9559C78.2908 33.157 78.15 33.3711 78.028 33.596C77.9069 33.8151 77.8031 34.0284 77.7108 34.2302C77.5321 34.6339 77.3821 34.9856 77.3014 35.2336L77.1573 35.6256C77.1481 35.4855 77.1481 35.3449 77.1573 35.2047C77.1957 34.8371 77.2612 34.4729 77.3533 34.1149C77.4125 33.8712 77.4896 33.6323 77.584 33.3999C77.6854 33.1293 77.819 32.8718 77.9818 32.633C78.1557 32.3582 78.3808 32.1194 78.6449 31.9295C78.8018 31.8296 78.9729 31.7538 79.1524 31.7047L79.4464 31.647H79.6771C80.0282 31.68 80.3663 31.7967 80.6631 31.9872C80.9301 32.1691 81.1642 32.3953 81.355 32.6561C81.5313 32.8839 81.6767 33.134 81.7875 33.3999C81.8932 33.6295 81.9818 33.8665 82.0527 34.1091C82.1504 34.4664 82.2198 34.8308 82.2603 35.199C82.3007 35.4354 82.3007 35.5911 82.3007 35.5911Z" fill="#352C38"/>
<path d="M81.2627 40.3366C81.3994 40.3934 81.5323 40.4589 81.6606 40.5327C82.0055 40.7177 82.3352 40.9298 82.6466 41.1669C82.8486 41.3267 83.0411 41.498 83.2232 41.6801C83.4422 41.8786 83.6447 42.0946 83.8286 42.3259C84.2526 42.8234 84.5899 43.3887 84.8262 43.9981C84.9425 44.3134 85.0256 44.64 85.0741 44.9726C85.0741 45.134 85.1202 45.3013 85.1318 45.4627V45.9413C85.1181 46.2432 85.0637 46.5419 84.9703 46.8293C84.9115 47.0911 84.8164 47.3434 84.6878 47.5789C84.6015 47.7823 84.4932 47.9756 84.3649 48.1555L84.065 48.5707C83.8921 48.7956 83.7883 48.9166 83.7883 48.9166C83.7883 48.9166 83.8517 48.7667 83.967 48.513L84.1746 48.0575C84.2548 47.8602 84.3222 47.658 84.3764 47.452C84.4663 47.2207 84.5245 46.9782 84.5494 46.7313C84.6068 46.4642 84.632 46.1913 84.6244 45.9182C84.6244 45.7741 84.6244 45.6357 84.6244 45.4858C84.6244 45.3359 84.5782 45.2032 84.5494 45.0533C84.503 44.7596 84.4257 44.4716 84.3188 44.1942C84.2107 43.9129 84.0835 43.6393 83.9382 43.3754C83.7935 43.1182 83.6337 42.8698 83.4596 42.6315C83.149 42.1986 82.8059 41.7899 82.4332 41.4091C82.266 41.2477 82.1218 41.0804 81.9777 40.9536C81.8335 40.8267 81.7125 40.7056 81.6029 40.6191L81.2627 40.3366Z" fill="#76413B"/>
<path d="M91.6188 44.6266L91.3362 44.5863C91.1575 44.5574 90.898 44.5459 90.5866 44.5171C90.2753 44.4882 89.9178 44.4882 89.5372 44.5171H88.9606C88.7588 44.5171 88.5569 44.5574 88.384 44.5747L87.7785 44.6324L87.2019 44.7362L86.6656 44.8342C86.5054 44.8611 86.3474 44.8996 86.1928 44.9495L85.2183 45.1975L84.9819 44.3153L86.0314 44.125C86.1928 44.125 86.36 44.0615 86.5446 44.0558L87.1212 44.0154L87.7324 43.9808H88.3667C88.58 43.9808 88.7934 43.9808 89.0009 44.0212L89.6064 44.0904C89.8002 44.1128 89.9927 44.1455 90.183 44.1884C90.356 44.2288 90.5232 44.2518 90.6789 44.2922C90.9989 44.3838 91.3128 44.4955 91.6188 44.6266Z" fill="#76413B"/>
<path d="M69.3961 31.7508C69.3961 31.7508 70.6935 33.3365 70.8377 38.9585L72.5675 38.6702L72.2792 22.9574C72.2792 22.9574 82.9466 27.4262 88.8569 25.5522L85.1089 23.534C85.1089 23.534 97.0737 27.7145 105.146 24.3989L99.9567 23.534C99.9567 23.534 108.606 20.2185 107.597 11.8576C107.597 11.8576 104.57 15.3173 100.245 13.7316C102.241 13.4738 104.055 12.4375 105.29 10.8485C105.29 10.8485 103.272 12.4342 93.1815 9.69525C83.0907 6.95633 76.6038 6.81217 74.4415 14.8848C72.8727 14.4658 71.2053 14.6291 69.7477 15.3447C68.2901 16.0602 67.141 17.2795 66.513 18.7769C63.9183 24.2548 67.8104 32.904 67.8104 32.904L69.3961 31.7508Z" fill="#352C38"/>
<path d="M74.5855 22.6691C74.5855 22.6691 74.2972 29.5885 71.5582 31.03C68.8193 32.4716 68.531 23.534 68.531 23.534L74.5855 22.6691Z" fill="#352C38"/>
<path d="M97.0735 25.1197C97.0189 27.4676 97.7834 29.7612 99.2358 31.6066V38.0936L100.101 38.3819C100.101 38.3819 100.245 29.5885 99.5242 24.9756C98.8034 20.3626 97.0735 25.1197 97.0735 25.1197Z" fill="#352C38"/>
<path d="M91.7341 55.738C92.2358 59.3995 96.9237 89.1413 99.0917 82.1989C99.0917 82.1989 95.2976 64.8658 93.1122 55.7322C92.6533 55.7572 92.1933 55.7591 91.7341 55.738Z" fill="#C1B6B6"/>
<path d="M90 47.2694L93.4597 44L99.6122 50.1525L90 52.459V47.2694Z" fill="#74A3A0"/>
<path d="M89.0816 48.6226C89.0816 48.6226 87.4037 57.9407 92.9795 57.2718C98.5554 56.6029 94.3403 47.8038 94.3403 47.8038C94.32 49.8402 94.4491 51.8753 94.7267 53.8928C94.7267 53.8928 95.0323 55.4843 94.3807 55.0806C93.8502 54.752 93.5158 49.3779 92.4433 47.896C92.446 49.9881 92.6604 52.0746 93.0833 54.1235C93.608 56.4299 92.7027 55.2075 92.0339 52.5205C91.4919 50.3524 91.094 48.242 90.7423 48.2708C90.3905 48.2996 90.9902 53.0798 91.0306 55.0633C91.0594 56.2166 90.7826 55.392 90.3329 53.7429C90.0676 52.7396 89.7389 50.1852 89.0816 48.6226Z" fill="#C1B6B6"/>
<path d="M116.621 103.493C114.153 92.2435 103.705 76.1387 103.705 76.1387C102.009 72.7943 100.297 69.5306 99.6683 68.7464C98.3248 67.0166 92.5298 65.5232 92.0224 66.0133C91.515 66.5034 92.8585 68.2448 92.8585 68.2448C92.8585 68.2448 90.4252 68.3774 92.674 70.6204C92.674 70.6204 90.7712 71.9351 93.6888 74.132C93.6888 74.132 91.959 74.6395 93.8503 75.9887C95.4879 77.142 97.7309 78.5893 98.3479 78.9871C99.5011 87.6364 103.082 112.194 106.276 116.329C106.79 116.992 110.93 120.365 112.654 118.704C112.964 118.693 113.267 118.612 113.542 118.468C116.892 116.623 119.066 114.743 116.621 103.493Z" fill="#965450"/>
<path d="M57.8522 126.022C57.8522 127.083 53.9946 127.948 49.2029 127.948C44.4112 127.948 40.5825 127.083 40.5825 126.022C40.5825 124.961 44.4631 124.119 49.226 124.119C53.9888 124.119 57.8522 124.955 57.8522 126.022Z" fill="#594750"/>
<path d="M55.6726 105.091H43.137L43.8289 125.635C43.8289 126.494 46.3314 127.192 49.399 127.192C52.4666 127.192 54.9576 126.494 54.9691 125.635L55.6726 105.091Z" fill="#BDEEFF"/>
<path d="M43.1772 104.768C43.1772 105.621 45.9738 106.307 49.4278 106.307C52.8817 106.307 55.6725 105.621 55.6725 104.768C55.6725 103.914 52.8759 103.228 49.4278 103.228C45.9796 103.228 43.1772 103.937 43.1772 104.768Z" fill="#A9D5E0"/>
<g opacity="0.4">
<path opacity="0.6" d="M54.2541 108.591H44.5554L45.0917 124.488C45.0917 125.157 47.0291 125.693 49.4048 125.693C51.7804 125.693 53.7063 125.157 53.7178 124.488L54.2541 108.591Z" fill="white"/>
<path opacity="0.4" d="M49.4279 109.998C52.1411 109.998 54.3407 109.455 54.3407 108.787C54.3407 108.118 52.1411 107.576 49.4279 107.576C46.7147 107.576 44.5151 108.118 44.5151 108.787C44.5151 109.455 46.7147 109.998 49.4279 109.998Z" fill="white"/>
</g>
<path d="M87.8594 126.852C103.273 126.852 115.768 124.73 115.768 122.112C115.768 119.495 103.273 117.372 87.8594 117.372C72.4461 117.372 59.9512 119.495 59.9512 122.112C59.9512 124.73 72.4461 126.852 87.8594 126.852Z" fill="#594750"/>
<path d="M59.1382 116.946C59.1382 116.946 64.7371 126.996 85.4319 125.791C106.127 124.586 108.243 116.946 108.243 116.946H59.1382Z" fill="#E8DADB"/>
<path d="M83.6961 122.256C97.2559 122.256 108.248 119.626 108.248 116.381C108.248 113.136 97.2559 110.505 83.6961 110.505C70.1362 110.505 59.1438 113.136 59.1438 116.381C59.1438 119.626 70.1362 122.256 83.6961 122.256Z" fill="#FDEDEE"/>
<path d="M83.6962 120.838C95.1765 120.838 104.483 118.695 104.483 116.052C104.483 113.409 95.1765 111.266 83.6962 111.266C72.2158 111.266 62.9092 113.409 62.9092 116.052C62.9092 118.695 72.2158 120.838 83.6962 120.838Z" fill="#E8DADB"/>
<path d="M73.7436 120.723C73.7436 120.723 65.302 120.192 65.8382 115.96C66.3745 111.727 65.302 109.432 71.4083 110.666C77.5147 111.9 70.6876 115.608 79.135 115.608C87.5824 115.608 84.5206 120.901 84.5206 120.901C84.5206 120.901 77.1572 121.432 73.7436 120.723Z" fill="#74A3A0"/>
<path d="M69.8748 117.615C69.8748 117.615 75.4506 112.621 81.9837 112.811C88.5167 113.002 82.1797 121.074 82.1797 121.074C82.1797 121.074 71.4143 120.117 69.8748 117.615Z" fill="#5D8584"/>
<path d="M80.2536 117.615C80.2536 117.615 88.3262 112.425 92.5586 113.774C92.5586 113.774 90.4424 118.387 94.669 119.921C94.669 119.921 86.2158 121.27 82.1795 121.074C78.1432 120.878 80.2536 117.615 80.2536 117.615Z" fill="#5D8584"/>
<path d="M91.019 120.498C91.019 120.498 95.4417 115.504 98.7053 114.928C101.969 114.351 103.705 117.615 103.705 117.615C103.705 117.615 99.0917 120.498 91.019 120.498Z" fill="#74A3A0"/>
<path d="M86.7751 114.928L92.155 110.891L99.4607 115.885L96.001 118.768C96.001 118.768 88.9029 120.694 86.7751 114.928Z" fill="#5D8584"/>
<path d="M71.0279 116.271C71.0279 116.271 70.8376 109.161 76.4135 113.774L71.0279 116.271Z" fill="#FC6A5A"/>
<path d="M93.9656 117.061C93.9656 117.061 92.2357 123.98 88.1072 118.001L93.9656 117.061Z" fill="#FC6A5A"/>
<path d="M95.2573 117.015C95.2573 117.015 97.7887 110.367 101.185 116.755L95.2573 117.015Z" fill="#FC6A5A"/>
<path d="M84.3188 116.329C84.3188 116.329 86.683 109.617 90.2407 115.919L84.3188 116.329Z" fill="#FC6A5A"/>
<path d="M83.0158 113.97C83.0158 113.97 82.1854 121.034 77.3303 115.666L83.0158 113.97Z" fill="#FC6A5A"/>
<path d="M78.178 119.362C78.178 119.362 72.8616 123.398 73.3345 116.623L78.178 119.362Z" fill="#FC6A5A"/>
<path d="M79.873 114.922L83.3327 111.652L89.4852 117.805L79.873 120.111V114.922Z" fill="#74A3A0"/>
<rect x="90" y="48" width="4" height="3" fill="#74A3A0"/>
</g>
</g>
<g filter="url(#filter0_b_136:22565)">
<rect x="13" y="77" width="141" height="77" rx="10" fill="black" fill-opacity="0.8"/>
</g>
<path d="M25.7273 102.872C26.4926 102.872 27.2533 103.026 28.0093 103.334L27.7013 104.972L27.4213 105.084C27.104 104.86 26.7726 104.683 26.4273 104.552C26.0913 104.421 25.7833 104.356 25.5033 104.356C25.13 104.356 24.8313 104.459 24.6073 104.664C24.3833 104.86 24.2713 105.089 24.2713 105.35C24.2713 105.621 24.3926 105.849 24.6353 106.036C24.8873 106.223 25.2793 106.442 25.8113 106.694C26.3246 106.927 26.74 107.147 27.0573 107.352C27.384 107.548 27.6593 107.809 27.8833 108.136C28.1166 108.463 28.2333 108.864 28.2333 109.34C28.2333 109.853 28.0933 110.325 27.8133 110.754C27.5333 111.174 27.1366 111.51 26.6233 111.762C26.11 112.005 25.5173 112.126 24.8453 112.126C23.9586 112.126 23.0673 111.935 22.1713 111.552L22.4373 109.788L22.6473 109.676C23.0206 110.003 23.4266 110.255 23.8653 110.432C24.3133 110.6 24.71 110.684 25.0553 110.684C25.466 110.684 25.7833 110.586 26.0073 110.39C26.2406 110.185 26.3573 109.942 26.3573 109.662C26.3573 109.363 26.2313 109.121 25.9793 108.934C25.7366 108.747 25.34 108.523 24.7893 108.262C24.2853 108.038 23.8746 107.828 23.5573 107.632C23.24 107.436 22.9693 107.175 22.7453 106.848C22.5213 106.521 22.4093 106.125 22.4093 105.658C22.4093 105.135 22.5493 104.664 22.8293 104.244C23.1093 103.815 23.5013 103.479 24.0053 103.236C24.5093 102.993 25.0833 102.872 25.7273 102.872ZM34.3852 108.976L30.6052 109.004C30.6892 110.171 31.2819 110.754 32.3832 110.754C32.9619 110.754 33.6059 110.591 34.3152 110.264L34.4692 110.362L34.1892 111.748C33.4799 112.009 32.8125 112.14 32.1872 112.14C31.1605 112.14 30.3532 111.841 29.7652 111.244C29.1865 110.647 28.8972 109.821 28.8972 108.766C28.8972 107.721 29.1819 106.895 29.7512 106.288C30.3205 105.672 31.0905 105.364 32.0612 105.364C32.8919 105.364 33.5312 105.593 33.9792 106.05C34.4365 106.498 34.6652 107.128 34.6652 107.94C34.6652 108.155 34.6419 108.425 34.5952 108.752L34.3852 108.976ZM33.0412 107.73C33.0412 107.357 32.9572 107.077 32.7892 106.89C32.6212 106.694 32.3739 106.596 32.0472 106.596C31.6832 106.596 31.3799 106.717 31.1372 106.96C30.8945 107.193 30.7312 107.534 30.6472 107.982L33.0132 107.926L33.0412 107.73ZM40.6299 105.364C41.3485 105.364 41.9085 105.527 42.3099 105.854C42.7205 106.171 42.9259 106.619 42.9259 107.198C42.9259 107.366 42.8979 107.898 42.8419 108.794C42.8325 109.055 42.8185 109.326 42.7999 109.606C42.7812 109.877 42.7719 110.11 42.7719 110.306C42.7719 110.465 42.7952 110.577 42.8419 110.642C42.8885 110.698 42.9725 110.726 43.0939 110.726C43.1872 110.726 43.3085 110.707 43.4579 110.67L43.5979 110.782L43.4299 111.762C43.1312 111.958 42.7905 112.075 42.4079 112.112C42.1279 112.084 41.8945 111.986 41.7079 111.818C41.5212 111.641 41.3952 111.398 41.3299 111.09H41.2319C40.7652 111.585 40.2845 111.93 39.7899 112.126C39.1179 112.117 38.5905 111.939 38.2079 111.594C37.8252 111.249 37.6339 110.777 37.6339 110.18C37.6339 109.713 37.7505 109.349 37.9839 109.088C38.2265 108.817 38.5905 108.635 39.0759 108.542L41.2179 108.136V107.562C41.2179 106.955 40.9192 106.652 40.3219 106.652C40.0325 106.652 39.7245 106.717 39.3979 106.848C39.0805 106.979 38.7212 107.184 38.3199 107.464L38.1799 107.38L37.9699 106.148C38.3712 105.896 38.8005 105.705 39.2579 105.574C39.7152 105.434 40.1725 105.364 40.6299 105.364ZM39.7199 109.396C39.5705 109.433 39.4585 109.499 39.3839 109.592C39.3185 109.676 39.2859 109.807 39.2859 109.984C39.2859 110.227 39.3512 110.418 39.4819 110.558C39.6125 110.689 39.7945 110.754 40.0279 110.754C40.3919 110.754 40.7745 110.539 41.1759 110.11L41.2039 109.074L39.7199 109.396ZM46.6281 109.13L46.7261 112H44.8641L44.9621 109.298L44.8781 102.312L46.7401 102.172L46.6281 109.13ZM48.6118 109.312L48.5418 105.616L50.3758 105.462L50.2918 109.13L50.3758 112H48.5138L48.6118 109.312ZM49.4938 102.298C49.7832 102.298 50.0072 102.382 50.1658 102.55C50.3338 102.718 50.4178 102.951 50.4178 103.25C50.4178 103.567 50.3292 103.819 50.1518 104.006C49.9745 104.193 49.7318 104.286 49.4238 104.286C49.1158 104.286 48.8778 104.202 48.7098 104.034C48.5512 103.866 48.4718 103.628 48.4718 103.32C48.4718 103.012 48.5605 102.765 48.7378 102.578C48.9245 102.391 49.1765 102.298 49.4938 102.298ZM59.9342 112L60.0462 107.94C60.0462 107.249 59.7522 106.904 59.1642 106.904C58.7442 106.904 58.3056 107.091 57.8482 107.464L57.8062 109.144L57.8902 112H56.0282L56.1402 107.94C56.1496 107.604 56.0749 107.347 55.9162 107.17C55.7669 106.993 55.5476 106.904 55.2582 106.904C54.8476 106.904 54.3949 107.1 53.9002 107.492V109.13L53.9842 112H52.1362L52.2342 109.312L52.1642 105.616L53.9142 105.462V106.414H54.0122C54.5256 105.947 55.0902 105.611 55.7062 105.406C56.7516 105.406 57.4189 105.756 57.7082 106.456H57.7922C58.3242 105.961 58.9309 105.611 59.6122 105.406C60.3216 105.406 60.8582 105.569 61.2222 105.896C61.5956 106.213 61.7729 106.675 61.7542 107.282L61.7122 109.144L61.7962 112H59.9342ZM68.4692 108.976L64.6892 109.004C64.7732 110.171 65.3659 110.754 66.4672 110.754C67.0459 110.754 67.6899 110.591 68.3992 110.264L68.5532 110.362L68.2732 111.748C67.5639 112.009 66.8965 112.14 66.2712 112.14C65.2445 112.14 64.4372 111.841 63.8492 111.244C63.2705 110.647 62.9812 109.821 62.9812 108.766C62.9812 107.721 63.2659 106.895 63.8352 106.288C64.4045 105.672 65.1745 105.364 66.1452 105.364C66.9759 105.364 67.6152 105.593 68.0632 106.05C68.5205 106.498 68.7492 107.128 68.7492 107.94C68.7492 108.155 68.7259 108.425 68.6792 108.752L68.4692 108.976ZM67.1252 107.73C67.1252 107.357 67.0412 107.077 66.8732 106.89C66.7052 106.694 66.4579 106.596 66.1312 106.596C65.7672 106.596 65.4639 106.717 65.2212 106.96C64.9785 107.193 64.8152 107.534 64.7312 107.982L67.0972 107.926L67.1252 107.73ZM74.0367 107.94C74.046 107.613 73.9714 107.361 73.8127 107.184C73.6634 106.997 73.444 106.904 73.1547 106.904C72.7347 106.904 72.2867 107.105 71.8107 107.506V109.13L71.8947 112H70.0327L70.1307 109.312L70.0607 105.616L71.8247 105.462V106.414H71.9227C72.436 105.947 72.996 105.611 73.6027 105.406C74.312 105.406 74.8534 105.569 75.2267 105.896C75.6 106.213 75.7774 106.675 75.7587 107.282L75.7167 109.144L75.8007 112H73.9247L74.0367 107.94ZM80.0749 110.628C80.3735 110.628 80.6862 110.549 81.0129 110.39L81.1669 110.53L80.9849 111.636C80.5089 111.879 80.0235 112.028 79.5289 112.084C78.2689 111.953 77.6389 111.337 77.6389 110.236L77.7089 109.074L77.6949 106.666H76.8269L76.7569 106.568L76.8549 105.546H77.6809V104.468L79.3749 103.922L79.5009 104.034L79.4589 105.546H81.1249L81.1809 105.644L81.0969 106.666H79.4309L79.3469 109.802C79.3469 110.101 79.4029 110.315 79.5149 110.446C79.6269 110.567 79.8135 110.628 80.0749 110.628ZM84.7353 105.364C85.454 105.364 86.014 105.527 86.4153 105.854C86.826 106.171 87.0313 106.619 87.0313 107.198C87.0313 107.366 87.0033 107.898 86.9473 108.794C86.938 109.055 86.924 109.326 86.9053 109.606C86.8867 109.877 86.8773 110.11 86.8773 110.306C86.8773 110.465 86.9007 110.577 86.9473 110.642C86.994 110.698 87.078 110.726 87.1993 110.726C87.2927 110.726 87.414 110.707 87.5633 110.67L87.7033 110.782L87.5353 111.762C87.2367 111.958 86.896 112.075 86.5133 112.112C86.2333 112.084 86 111.986 85.8133 111.818C85.6267 111.641 85.5007 111.398 85.4353 111.09H85.3373C84.8707 111.585 84.39 111.93 83.8953 112.126C83.2233 112.117 82.696 111.939 82.3133 111.594C81.9307 111.249 81.7393 110.777 81.7393 110.18C81.7393 109.713 81.856 109.349 82.0893 109.088C82.332 108.817 82.696 108.635 83.1813 108.542L85.3233 108.136V107.562C85.3233 106.955 85.0247 106.652 84.4273 106.652C84.138 106.652 83.83 106.717 83.5033 106.848C83.186 106.979 82.8267 107.184 82.4253 107.464L82.2853 107.38L82.0753 106.148C82.4767 105.896 82.906 105.705 83.3633 105.574C83.8207 105.434 84.278 105.364 84.7353 105.364ZM83.8253 109.396C83.676 109.433 83.564 109.499 83.4893 109.592C83.424 109.676 83.3913 109.807 83.3913 109.984C83.3913 110.227 83.4567 110.418 83.5873 110.558C83.718 110.689 83.9 110.754 84.1333 110.754C84.4973 110.754 84.88 110.539 85.2813 110.11L85.3093 109.074L83.8253 109.396ZM92.4295 105.476C92.5135 105.476 92.6302 105.485 92.7795 105.504V107.226L92.5835 107.296C92.4249 107.231 92.2522 107.198 92.0655 107.198C91.5242 107.198 91.0342 107.548 90.5955 108.248V109.13L90.6935 112H88.8315L88.9435 109.312L88.8595 105.616L90.6235 105.462L90.6095 106.736H90.7215C91.1789 105.896 91.7482 105.476 92.4295 105.476ZM101.25 109.13L101.292 110.306C101.292 110.465 101.311 110.577 101.348 110.642C101.395 110.698 101.474 110.726 101.586 110.726C101.689 110.726 101.815 110.707 101.964 110.67L102.09 110.782L101.936 111.762C101.619 111.958 101.273 112.075 100.9 112.112C100.611 112.084 100.368 111.986 100.172 111.818C99.9759 111.65 99.8405 111.421 99.7659 111.132H99.6539C99.1965 111.552 98.7299 111.874 98.2539 112.098C97.3392 112.098 96.6299 111.809 96.1259 111.23C95.6219 110.642 95.3699 109.83 95.3699 108.794C95.3699 107.693 95.6592 106.848 96.2379 106.26C96.8165 105.672 97.6192 105.378 98.6459 105.378C98.9165 105.378 99.2152 105.406 99.5419 105.462L99.5139 102.312L101.362 102.172L101.25 109.13ZM98.5199 106.638C97.5865 106.638 97.1199 107.231 97.1199 108.416C97.1199 109.153 97.2319 109.709 97.4559 110.082C97.6799 110.455 98.0065 110.642 98.4359 110.642C98.8465 110.642 99.2245 110.451 99.5699 110.068L99.5979 109.298L99.5559 106.89C99.1919 106.722 98.8465 106.638 98.5199 106.638ZM108.227 108.976L104.447 109.004C104.531 110.171 105.124 110.754 106.225 110.754C106.804 110.754 107.448 110.591 108.157 110.264L108.311 110.362L108.031 111.748C107.322 112.009 106.654 112.14 106.029 112.14C105.002 112.14 104.195 111.841 103.607 111.244C103.028 110.647 102.739 109.821 102.739 108.766C102.739 107.721 103.024 106.895 103.593 106.288C104.162 105.672 104.932 105.364 105.903 105.364C106.734 105.364 107.373 105.593 107.821 106.05C108.278 106.498 108.507 107.128 108.507 107.94C108.507 108.155 108.484 108.425 108.437 108.752L108.227 108.976ZM106.883 107.73C106.883 107.357 106.799 107.077 106.631 106.89C106.463 106.694 106.216 106.596 105.889 106.596C105.525 106.596 105.222 106.717 104.979 106.96C104.736 107.193 104.573 107.534 104.489 107.982L106.855 107.926L106.883 107.73ZM115.298 102.144C115.68 102.144 116.086 102.186 116.516 102.27L116.39 103.656L116.264 103.74C115.825 103.553 115.442 103.46 115.116 103.46C114.537 103.46 114.243 103.791 114.234 104.454L114.22 105.546H115.802L115.858 105.644L115.774 106.666H114.192L114.15 109.13L114.248 112H112.386L112.498 109.298L112.47 106.666H111.49L111.42 106.568L111.518 105.546H112.456L112.442 104.776C112.442 103.936 112.689 103.287 113.184 102.83C113.688 102.373 114.392 102.144 115.298 102.144ZM119.082 105.364C120.034 105.364 120.762 105.644 121.266 106.204C121.77 106.764 122.022 107.571 122.022 108.626C122.022 109.765 121.752 110.637 121.21 111.244C120.669 111.841 119.89 112.14 118.872 112.14C117.92 112.14 117.192 111.86 116.688 111.3C116.184 110.74 115.932 109.933 115.932 108.878C115.932 107.739 116.203 106.871 116.744 106.274C117.286 105.667 118.065 105.364 119.082 105.364ZM118.956 106.624C118.508 106.624 118.182 106.773 117.976 107.072C117.78 107.371 117.682 107.851 117.682 108.514C117.682 109.373 117.785 109.984 117.99 110.348C118.196 110.712 118.532 110.894 118.998 110.894C119.446 110.894 119.768 110.749 119.964 110.46C120.17 110.161 120.272 109.676 120.272 109.004C120.272 108.155 120.165 107.548 119.95 107.184C119.745 106.811 119.414 106.624 118.956 106.624ZM126.814 105.476C126.898 105.476 127.015 105.485 127.164 105.504V107.226L126.968 107.296C126.81 107.231 126.637 107.198 126.45 107.198C125.909 107.198 125.419 107.548 124.98 108.248V109.13L125.078 112H123.216L123.328 109.312L123.244 105.616L125.008 105.462L124.994 106.736H125.106C125.564 105.896 126.133 105.476 126.814 105.476ZM135.881 112L135.993 107.94C135.993 107.249 135.699 106.904 135.111 106.904C134.691 106.904 134.253 107.091 133.795 107.464L133.753 109.144L133.837 112H131.975L132.087 107.94C132.097 107.604 132.022 107.347 131.863 107.17C131.714 106.993 131.495 106.904 131.205 106.904C130.795 106.904 130.342 107.1 129.847 107.492V109.13L129.931 112H128.083L128.181 109.312L128.111 105.616L129.861 105.462V106.414H129.959C130.473 105.947 131.037 105.611 131.653 105.406C132.699 105.406 133.366 105.756 133.655 106.456H133.739C134.271 105.961 134.878 105.611 135.559 105.406C136.269 105.406 136.805 105.569 137.169 105.896C137.543 106.213 137.72 106.675 137.701 107.282L137.659 109.144L137.743 112H135.881ZM141.938 105.364C142.657 105.364 143.217 105.527 143.618 105.854C144.029 106.171 144.234 106.619 144.234 107.198C144.234 107.366 144.206 107.898 144.15 108.794C144.141 109.055 144.127 109.326 144.108 109.606C144.09 109.877 144.08 110.11 144.08 110.306C144.08 110.465 144.104 110.577 144.15 110.642C144.197 110.698 144.281 110.726 144.402 110.726C144.496 110.726 144.617 110.707 144.766 110.67L144.906 110.782L144.738 111.762C144.44 111.958 144.099 112.075 143.716 112.112C143.436 112.084 143.203 111.986 143.016 111.818C142.83 111.641 142.704 111.398 142.638 111.09H142.54C142.074 111.585 141.593 111.93 141.098 112.126C140.426 112.117 139.899 111.939 139.516 111.594C139.134 111.249 138.942 110.777 138.942 110.18C138.942 109.713 139.059 109.349 139.292 109.088C139.535 108.817 139.899 108.635 140.384 108.542L142.526 108.136V107.562C142.526 106.955 142.228 106.652 141.63 106.652C141.341 106.652 141.033 106.717 140.706 106.848C140.389 106.979 140.03 107.184 139.628 107.464L139.488 107.38L139.278 106.148C139.68 105.896 140.109 105.705 140.566 105.574C141.024 105.434 141.481 105.364 141.938 105.364ZM141.028 109.396C140.879 109.433 140.767 109.499 140.692 109.592C140.627 109.676 140.594 109.807 140.594 109.984C140.594 110.227 140.66 110.418 140.79 110.558C140.921 110.689 141.103 110.754 141.336 110.754C141.7 110.754 142.083 110.539 142.484 110.11L142.512 109.074L141.028 109.396ZM55.3032 124.976L51.5232 125.004C51.6072 126.171 52.1998 126.754 53.3012 126.754C53.8798 126.754 54.5238 126.591 55.2332 126.264L55.3872 126.362L55.1072 127.748C54.3978 128.009 53.7305 128.14 53.1052 128.14C52.0785 128.14 51.2712 127.841 50.6832 127.244C50.1045 126.647 49.8152 125.821 49.8152 124.766C49.8152 123.721 50.0998 122.895 50.6692 122.288C51.2385 121.672 52.0085 121.364 52.9792 121.364C53.8098 121.364 54.4492 121.593 54.8972 122.05C55.3545 122.498 55.5832 123.128 55.5832 123.94C55.5832 124.155 55.5598 124.425 55.5132 124.752L55.3032 124.976ZM53.9592 123.73C53.9592 123.357 53.8752 123.077 53.7072 122.89C53.5392 122.694 53.2918 122.596 52.9652 122.596C52.6012 122.596 52.2978 122.717 52.0552 122.96C51.8125 123.193 51.6492 123.534 51.5652 123.982L53.9312 123.926L53.9592 123.73ZM62.2567 121.378L62.4107 121.462L62.2987 125.13L62.3967 130.59H60.5487L60.6327 127.65V127.3H60.5207C60.138 127.627 59.718 127.893 59.2607 128.098C58.3554 128.098 57.6554 127.809 57.1607 127.23C56.666 126.642 56.4187 125.839 56.4187 124.822C56.4187 123.711 56.708 122.862 57.2867 122.274C57.8654 121.677 58.64 121.378 59.6107 121.378C60.1147 121.378 60.6747 121.481 61.2907 121.686L62.2567 121.378ZM59.5547 122.638C58.6307 122.638 58.1687 123.254 58.1687 124.486C58.1687 125.186 58.276 125.723 58.4907 126.096C58.7147 126.46 59.0367 126.642 59.4567 126.642C59.6527 126.642 59.844 126.6 60.0307 126.516C60.2267 126.423 60.4274 126.273 60.6327 126.068L60.6467 125.326L60.6047 122.932C60.2314 122.736 59.8814 122.638 59.5547 122.638ZM70.3425 126.782L70.1745 127.762C69.8291 127.986 69.4745 128.103 69.1105 128.112C68.8398 128.065 68.6158 127.958 68.4385 127.79C68.2611 127.622 68.1258 127.379 68.0325 127.062H67.9065C67.3745 127.585 66.8238 127.925 66.2545 128.084C65.5451 128.084 65.0038 127.925 64.6305 127.608C64.2665 127.281 64.0891 126.815 64.0985 126.208L64.1265 124.556L64.0565 121.616L65.8625 121.462L65.8205 125.592C65.8111 125.919 65.8765 126.166 66.0165 126.334C66.1565 126.502 66.3665 126.586 66.6465 126.586C67.0571 126.586 67.4631 126.404 67.8645 126.04V121.616L69.6425 121.462L69.5165 126.306C69.5165 126.455 69.5398 126.563 69.5865 126.628C69.6425 126.693 69.7265 126.726 69.8385 126.726C69.9411 126.726 70.0671 126.707 70.2165 126.67L70.3425 126.782ZM71.5669 125.312L71.4969 121.616L73.3309 121.462L73.2469 125.13L73.3309 128H71.4689L71.5669 125.312ZM72.4489 118.298C72.7382 118.298 72.9622 118.382 73.1209 118.55C73.2889 118.718 73.3729 118.951 73.3729 119.25C73.3729 119.567 73.2842 119.819 73.1069 120.006C72.9296 120.193 72.6869 120.286 72.3789 120.286C72.0709 120.286 71.8329 120.202 71.6649 120.034C71.5062 119.866 71.4269 119.628 71.4269 119.32C71.4269 119.012 71.5156 118.765 71.6929 118.578C71.8796 118.391 72.1316 118.298 72.4489 118.298ZM76.9113 125.13L77.0093 128H75.1473L75.2453 125.298L75.1613 118.312L77.0233 118.172L76.9113 125.13ZM78.895 125.312L78.825 121.616L80.659 121.462L80.575 125.13L80.659 128H78.797L78.895 125.312ZM79.777 118.298C80.0664 118.298 80.2904 118.382 80.449 118.55C80.617 118.718 80.701 118.951 80.701 119.25C80.701 119.567 80.6124 119.819 80.435 120.006C80.2577 120.193 80.015 120.286 79.707 120.286C79.399 120.286 79.161 120.202 78.993 120.034C78.8344 119.866 78.755 119.628 78.755 119.32C78.755 119.012 78.8437 118.765 79.021 118.578C79.2077 118.391 79.4597 118.298 79.777 118.298ZM85.9334 121.406C86.7548 121.406 87.3801 121.686 87.8094 122.246C88.2481 122.797 88.4674 123.567 88.4674 124.556C88.4674 125.704 88.1828 126.591 87.6134 127.216C87.0441 127.832 86.2554 128.14 85.2474 128.14C84.7714 128.14 84.2488 128.033 83.6794 127.818L82.6994 128.168L82.4754 127.986L82.5734 125.326L82.4894 118.312L84.3374 118.172L84.2814 122.414H84.3654C84.6268 122.162 84.8788 121.961 85.1214 121.812C85.3641 121.653 85.6348 121.518 85.9334 121.406ZM85.2474 126.922C85.7141 126.922 86.0781 126.754 86.3394 126.418C86.6008 126.082 86.7314 125.569 86.7314 124.878C86.7314 124.234 86.6241 123.744 86.4094 123.408C86.2041 123.072 85.8914 122.904 85.4714 122.904C85.0888 122.904 84.6874 123.1 84.2674 123.492L84.2394 125.088L84.2674 126.67C84.6128 126.838 84.9394 126.922 85.2474 126.922ZM93.2635 121.476C93.3475 121.476 93.4642 121.485 93.6135 121.504V123.226L93.4175 123.296C93.2589 123.231 93.0862 123.198 92.8995 123.198C92.3582 123.198 91.8682 123.548 91.4295 124.248V125.13L91.5275 128H89.6655L89.7775 125.312L89.6935 121.616L91.4575 121.462L91.4435 122.736H91.5555C92.0129 121.896 92.5822 121.476 93.2635 121.476ZM96.958 121.364C97.6767 121.364 98.2367 121.527 98.638 121.854C99.0487 122.171 99.254 122.619 99.254 123.198C99.254 123.366 99.226 123.898 99.17 124.794C99.1607 125.055 99.1467 125.326 99.128 125.606C99.1093 125.877 99.1 126.11 99.1 126.306C99.1 126.465 99.1233 126.577 99.17 126.642C99.2167 126.698 99.3007 126.726 99.422 126.726C99.5153 126.726 99.6367 126.707 99.786 126.67L99.926 126.782L99.758 127.762C99.4593 127.958 99.1187 128.075 98.736 128.112C98.456 128.084 98.2227 127.986 98.036 127.818C97.8493 127.641 97.7233 127.398 97.658 127.09H97.56C97.0933 127.585 96.6127 127.93 96.118 128.126C95.446 128.117 94.9187 127.939 94.536 127.594C94.1533 127.249 93.962 126.777 93.962 126.18C93.962 125.713 94.0787 125.349 94.312 125.088C94.5547 124.817 94.9187 124.635 95.404 124.542L97.546 124.136V123.562C97.546 122.955 97.2473 122.652 96.65 122.652C96.3607 122.652 96.0527 122.717 95.726 122.848C95.4087 122.979 95.0493 123.184 94.648 123.464L94.508 123.38L94.298 122.148C94.6993 121.896 95.1287 121.705 95.586 121.574C96.0433 121.434 96.5007 121.364 96.958 121.364ZM96.048 125.396C95.8987 125.433 95.7867 125.499 95.712 125.592C95.6467 125.676 95.614 125.807 95.614 125.984C95.614 126.227 95.6793 126.418 95.81 126.558C95.9407 126.689 96.1227 126.754 96.356 126.754C96.72 126.754 97.1027 126.539 97.504 126.11L97.532 125.074L96.048 125.396ZM106.568 125.13L106.61 126.306C106.61 126.465 106.629 126.577 106.666 126.642C106.713 126.698 106.792 126.726 106.904 126.726C107.007 126.726 107.133 126.707 107.282 126.67L107.408 126.782L107.254 127.762C106.937 127.958 106.592 128.075 106.218 128.112C105.929 128.084 105.686 127.986 105.49 127.818C105.294 127.65 105.159 127.421 105.084 127.132H104.972C104.515 127.552 104.048 127.874 103.572 128.098C102.658 128.098 101.948 127.809 101.444 127.23C100.94 126.642 100.688 125.83 100.688 124.794C100.688 123.693 100.978 122.848 101.556 122.26C102.135 121.672 102.938 121.378 103.964 121.378C104.235 121.378 104.534 121.406 104.86 121.462L104.832 118.312L106.68 118.172L106.568 125.13ZM103.838 122.638C102.905 122.638 102.438 123.231 102.438 124.416C102.438 125.153 102.55 125.709 102.774 126.082C102.998 126.455 103.325 126.642 103.754 126.642C104.165 126.642 104.543 126.451 104.888 126.068L104.916 125.298L104.874 122.89C104.51 122.722 104.165 122.638 103.838 122.638ZM111.067 121.364C111.786 121.364 112.346 121.527 112.747 121.854C113.158 122.171 113.363 122.619 113.363 123.198C113.363 123.366 113.335 123.898 113.279 124.794C113.27 125.055 113.256 125.326 113.237 125.606C113.219 125.877 113.209 126.11 113.209 126.306C113.209 126.465 113.233 126.577 113.279 126.642C113.326 126.698 113.41 126.726 113.531 126.726C113.625 126.726 113.746 126.707 113.895 126.67L114.035 126.782L113.867 127.762C113.569 127.958 113.228 128.075 112.845 128.112C112.565 128.084 112.332 127.986 112.145 127.818C111.959 127.641 111.833 127.398 111.767 127.09H111.669C111.203 127.585 110.722 127.93 110.227 128.126C109.555 128.117 109.028 127.939 108.645 127.594C108.263 127.249 108.071 126.777 108.071 126.18C108.071 125.713 108.188 125.349 108.421 125.088C108.664 124.817 109.028 124.635 109.513 124.542L111.655 124.136V123.562C111.655 122.955 111.357 122.652 110.759 122.652C110.47 122.652 110.162 122.717 109.835 122.848C109.518 122.979 109.159 123.184 108.757 123.464L108.617 123.38L108.407 122.148C108.809 121.896 109.238 121.705 109.695 121.574C110.153 121.434 110.61 121.364 111.067 121.364ZM110.157 125.396C110.008 125.433 109.896 125.499 109.821 125.592C109.756 125.676 109.723 125.807 109.723 125.984C109.723 126.227 109.789 126.418 109.919 126.558C110.05 126.689 110.232 126.754 110.465 126.754C110.829 126.754 111.212 126.539 111.613 126.11L111.641 125.074L110.157 125.396ZM116.03 126.11C116.319 126.11 116.543 126.194 116.702 126.362C116.87 126.53 116.954 126.763 116.954 127.062C116.954 127.379 116.865 127.631 116.688 127.818C116.51 128.005 116.268 128.098 115.96 128.098C115.652 128.098 115.414 128.014 115.246 127.846C115.087 127.678 115.008 127.44 115.008 127.132C115.008 126.824 115.096 126.577 115.274 126.39C115.46 126.203 115.712 126.11 116.03 126.11Z" fill="white"/>
<defs>
<filter id="filter0_b_136:22565" x="3" y="67" width="161" height="97" filterUnits="userSpaceOnUse" color-interpolation-filters="sRGB">
<feFlood flood-opacity="0" result="BackgroundImageFix"/>
<feGaussianBlur in="BackgroundImage" stdDeviation="5"/>
<feComposite in2="SourceAlpha" operator="in" result="effect1_backgroundBlur_136:22565"/>
<feBlend mode="normal" in="SourceGraphic" in2="effect1_backgroundBlur_136:22565" result="shape"/>
</filter>
<clipPath id="clip0_136:22565">
<rect width="100.21" height="129.986" fill="white" transform="translate(33.79 8)"/>
</clipPath>
</defs>
</svg>
