<svg width="167" height="167" viewBox="0 0 167 167" fill="none" xmlns="http://www.w3.org/2000/svg">
<mask id="mask0_136:22341" style="mask-type:alpha" maskUnits="userSpaceOnUse" x="0" y="0" width="167" height="167">
<rect x="1" y="1" width="165" height="165" rx="8" fill="#5988D6" stroke="#EDE6FC" stroke-opacity="0.3"/>
</mask>
<g mask="url(#mask0_136:22341)">
<rect x="1" y="1" width="165" height="165" rx="8" fill="#CEE2F2" stroke="#EDE6FC" stroke-opacity="0.3"/>
<path d="M83.5499 108.9C73.9674 108.9 64.6001 106.058 56.6325 100.735C48.6649 95.4109 42.455 87.8441 38.7879 78.991C35.1208 70.1379 34.1614 60.3962 36.0308 50.9979C37.9003 41.5995 42.5147 32.9665 49.2905 26.1906C56.0664 19.4148 64.6994 14.8004 74.0977 12.9309C83.4961 11.0615 93.2378 12.0209 102.091 15.688C110.944 19.3551 118.511 25.565 123.835 33.5326C129.158 41.5002 132 50.8675 132 60.45C131.986 73.2953 126.876 85.6105 117.793 94.6935C108.71 103.777 96.3953 108.886 83.5499 108.9ZM83.5499 19.718C75.4939 19.718 67.6187 22.1069 60.9204 26.5826C54.2221 31.0583 49.0014 37.4197 45.9185 44.8625C42.8355 52.3053 42.0289 60.4952 43.6005 68.3964C45.1722 76.2976 49.0516 83.5554 54.748 89.2518C60.4445 94.9483 67.7022 98.8277 75.6035 100.399C83.5047 101.971 91.6945 101.164 99.1373 98.0814C106.58 94.9985 112.942 89.7778 117.417 83.0795C121.893 76.3811 124.282 68.506 124.282 60.45C124.27 49.651 119.974 39.2977 112.338 31.6617C104.702 24.0256 94.3489 19.7303 83.5499 19.718Z" fill="#CF4339"/>
<path d="M108.541 37.1724C108.471 37.0825 108.393 36.9986 108.309 36.9216C108.221 36.8483 108.12 36.7942 108.028 36.7248C107.725 36.4342 107.451 36.115 107.209 35.7716C107.046 35.6031 106.869 35.4483 106.681 35.3085C106.388 35.0692 106.106 34.8145 105.836 34.5367C105.528 34.1987 105.182 33.897 104.805 33.6375H104.774L103.578 34.83L109.066 40.3175L110.258 39.1212C110.264 39.0945 110.264 39.0669 110.258 39.0402C109.645 38.4536 109.077 37.8284 108.541 37.1724Z" fill="#CF4339"/>
<path d="M105.836 34.5483C106.106 34.8145 106.388 35.0692 106.681 35.3201C106.869 35.4598 107.046 35.6147 107.21 35.7832C107.451 36.1266 107.725 36.4458 108.028 36.7363C108.12 36.8058 108.221 36.8598 108.309 36.9331C108.393 37.0102 108.471 37.0941 108.541 37.184C109.077 37.84 109.645 38.4652 110.243 39.0672C110.174 38.9237 110.097 38.7845 110.011 38.6504C109.974 38.5421 109.952 38.4291 109.946 38.3147C109.812 37.9022 109.539 37.5489 109.174 37.3152C108.435 36.6449 107.742 35.9269 107.098 35.1657C106.844 34.8454 106.536 34.5723 106.187 34.3592C106.013 34.2666 105.828 34.201 105.666 34.0968C105.388 33.9231 105.118 33.6375 104.794 33.6607C105.174 33.9158 105.523 34.2136 105.836 34.5483Z" fill="#CF4339"/>
<path d="M108.695 40.7034C107.758 39.8965 106.9 39.0023 106.133 38.033C106.006 37.8747 105.882 37.7088 105.747 37.5622C105.567 37.3911 105.372 37.2362 105.164 37.0991C104.469 36.528 103.824 35.8993 103.235 35.2197L71.6448 66.8097L77.1285 72.2972L108.695 40.7034Z" fill="#FCFCFC"/>
<path d="M71.616 66.8082L57.0991 81.3251L62.5866 86.8126L77.1035 72.2956L71.616 66.8082Z" fill="#E09230"/>
<g style="mix-blend-mode:screen" opacity="0.4">
<g style="mix-blend-mode:screen" opacity="0.4">
<path d="M71.5484 68.4806C71.6848 68.4806 71.7953 68.3701 71.7953 68.2337C71.7953 68.0973 71.6848 67.9867 71.5484 67.9867C71.412 67.9867 71.3014 68.0973 71.3014 68.2337C71.3014 68.3701 71.412 68.4806 71.5484 68.4806Z" fill="#E09230"/>
</g>
<g style="mix-blend-mode:screen" opacity="0.4">
<path d="M72.7601 69.4415C72.7943 69.4069 72.8176 69.3629 72.8269 69.315C72.8362 69.2672 72.8312 69.2177 72.8124 69.1727C72.7936 69.1278 72.762 69.0893 72.7214 69.0623C72.6809 69.0353 72.6332 69.0209 72.5845 69.0209C72.5358 69.0209 72.4881 69.0353 72.4475 69.0623C72.407 69.0893 72.3754 69.1278 72.3566 69.1727C72.3378 69.2177 72.3328 69.2672 72.3421 69.315C72.3514 69.3629 72.3746 69.4069 72.4089 69.4415C72.4558 69.4875 72.5188 69.5133 72.5845 69.5133C72.6501 69.5133 72.7132 69.4875 72.7601 69.4415Z" fill="#E09230"/>
</g>
<g style="mix-blend-mode:screen" opacity="0.4">
<path d="M73.7905 70.4758C73.8364 70.4289 73.8622 70.3659 73.8622 70.3002C73.8622 70.2345 73.8364 70.1715 73.7905 70.1246C73.7678 70.1015 73.7408 70.0831 73.711 70.0706C73.6812 70.0581 73.6492 70.0516 73.6168 70.0516C73.5845 70.0516 73.5524 70.0581 73.5226 70.0706C73.4928 70.0831 73.4658 70.1015 73.4432 70.1246C73.3972 70.1715 73.3715 70.2345 73.3715 70.3002C73.3715 70.3659 73.3972 70.4289 73.4432 70.4758C73.4658 70.4989 73.4928 70.5172 73.5226 70.5298C73.5524 70.5423 73.5845 70.5487 73.6168 70.5487C73.6492 70.5487 73.6812 70.5423 73.711 70.5298C73.7408 70.5172 73.7678 70.4989 73.7905 70.4758Z" fill="#E09230"/>
</g>
<g style="mix-blend-mode:screen" opacity="0.4">
<path d="M74.6509 71.5833C74.7873 71.5833 74.8979 71.4727 74.8979 71.3363C74.8979 71.1999 74.7873 71.0894 74.6509 71.0894C74.5145 71.0894 74.4039 71.1999 74.4039 71.3363C74.4039 71.4727 74.5145 71.5833 74.6509 71.5833Z" fill="#E09230"/>
</g>
<g style="mix-blend-mode:screen" opacity="0.4">
<path d="M75.8589 72.5442C75.8931 72.5096 75.9164 72.4655 75.9257 72.4177C75.935 72.3699 75.93 72.3203 75.9112 72.2754C75.8924 72.2304 75.8608 72.192 75.8202 72.165C75.7797 72.1379 75.732 72.1235 75.6833 72.1235C75.6346 72.1235 75.5869 72.1379 75.5464 72.165C75.5058 72.192 75.4741 72.2304 75.4553 72.2754C75.4366 72.3203 75.4315 72.3699 75.4408 72.4177C75.4501 72.4655 75.4734 72.5096 75.5077 72.5442C75.5546 72.5902 75.6176 72.6159 75.6833 72.6159C75.7489 72.6159 75.812 72.5902 75.8589 72.5442Z" fill="#E09230"/>
</g>
<g style="mix-blend-mode:screen" opacity="0.4">
<path d="M70.734 69.2949C70.8704 69.2949 70.981 69.1843 70.981 69.0479C70.981 68.9115 70.8704 68.801 70.734 68.801C70.5976 68.801 70.4871 68.9115 70.4871 69.0479C70.4871 69.1843 70.5976 69.2949 70.734 69.2949Z" fill="#E09230"/>
</g>
<g style="mix-blend-mode:screen" opacity="0.4">
<path d="M71.9457 70.2558C71.98 70.2212 72.0033 70.1772 72.0126 70.1293C72.0219 70.0815 72.0168 70.032 71.9981 69.987C71.9793 69.942 71.9477 69.9036 71.9071 69.8766C71.8665 69.8496 71.8189 69.8351 71.7702 69.8351C71.7214 69.8351 71.6738 69.8496 71.6332 69.8766C71.5927 69.9036 71.561 69.942 71.5423 69.987C71.5235 70.032 71.5184 70.0815 71.5277 70.1293C71.5371 70.1772 71.5603 70.2212 71.5946 70.2558C71.6415 70.3018 71.7045 70.3275 71.7702 70.3275C71.8358 70.3275 71.8988 70.3018 71.9457 70.2558Z" fill="#E09230"/>
</g>
<g style="mix-blend-mode:screen" opacity="0.4">
<path d="M72.9761 71.29C73.0221 71.2431 73.0478 71.1801 73.0478 71.1144C73.0478 71.0487 73.0221 70.9857 72.9761 70.9388C72.9535 70.9157 72.9265 70.8974 72.8967 70.8848C72.8669 70.8723 72.8348 70.8658 72.8025 70.8658C72.7701 70.8658 72.7381 70.8723 72.7083 70.8848C72.6785 70.8974 72.6515 70.9157 72.6288 70.9388C72.5829 70.9857 72.5571 71.0487 72.5571 71.1144C72.5571 71.1801 72.5829 71.2431 72.6288 71.29C72.6515 71.3131 72.6785 71.3314 72.7083 71.344C72.7381 71.3565 72.7701 71.363 72.8025 71.363C72.8348 71.363 72.8669 71.3565 72.8967 71.344C72.9265 71.3314 72.9535 71.3131 72.9761 71.29Z" fill="#E09230"/>
</g>
<g style="mix-blend-mode:screen" opacity="0.4">
<path d="M74.0104 72.3242C74.0563 72.2773 74.0821 72.2143 74.0821 72.1487C74.0821 72.083 74.0563 72.0199 74.0104 71.9731C73.9757 71.9388 73.9317 71.9155 73.8839 71.9062C73.8361 71.8969 73.7866 71.902 73.7416 71.9207C73.6966 71.9395 73.6582 71.9712 73.6312 72.0117C73.6042 72.0523 73.5897 72.0999 73.5897 72.1487C73.5897 72.1974 73.6042 72.245 73.6312 72.2856C73.6582 72.3261 73.6966 72.3578 73.7416 72.3766C73.7866 72.3953 73.8361 72.4004 73.8839 72.3911C73.9317 72.3818 73.9757 72.3585 74.0104 72.3242Z" fill="#E09230"/>
</g>
<g style="mix-blend-mode:screen" opacity="0.4">
<path d="M74.8709 73.4279C75.0073 73.4279 75.1179 73.3173 75.1179 73.1809C75.1179 73.0445 75.0073 72.934 74.8709 72.934C74.7345 72.934 74.6239 73.0445 74.6239 73.1809C74.6239 73.3173 74.7345 73.4279 74.8709 73.4279Z" fill="#E09230"/>
</g>
<g style="mix-blend-mode:screen" opacity="0.4">
<path d="M70.0974 70.0358C70.1205 70.0132 70.1388 69.9862 70.1514 69.9564C70.1639 69.9265 70.1703 69.8945 70.1703 69.8622C70.1703 69.8298 70.1639 69.7978 70.1514 69.768C70.1388 69.7382 70.1205 69.7112 70.0974 69.6885C70.0505 69.6426 69.9874 69.6168 69.9218 69.6168C69.8561 69.6168 69.7931 69.6426 69.7462 69.6885C69.7231 69.7112 69.7047 69.7382 69.6922 69.768C69.6797 69.7978 69.6732 69.8298 69.6732 69.8622C69.6732 69.8945 69.6797 69.9265 69.6922 69.9564C69.7047 69.9862 69.7231 70.0132 69.7462 70.0358C69.7931 70.0818 69.8561 70.1075 69.9218 70.1075C69.9874 70.1075 70.0505 70.0818 70.0974 70.0358Z" fill="#E09230"/>
</g>
<g style="mix-blend-mode:screen" opacity="0.4">
<path d="M71.1316 71.0701C71.1658 71.0354 71.1891 70.9914 71.1984 70.9436C71.2077 70.8958 71.2027 70.8462 71.1839 70.8013C71.1651 70.7563 71.1335 70.7179 71.0929 70.6909C71.0524 70.6638 71.0047 70.6494 70.956 70.6494C70.9073 70.6494 70.8596 70.6638 70.8191 70.6909C70.7785 70.7179 70.7468 70.7563 70.728 70.8013C70.7093 70.8462 70.7042 70.8958 70.7135 70.9436C70.7228 70.9914 70.7461 71.0354 70.7804 71.0701C70.8273 71.116 70.8903 71.1418 70.956 71.1418C71.0217 71.1418 71.0847 71.116 71.1316 71.0701Z" fill="#E09230"/>
</g>
<g style="mix-blend-mode:screen" opacity="0.4">
<path d="M71.9883 72.1776C72.1247 72.1776 72.2353 72.067 72.2353 71.9306C72.2353 71.7942 72.1247 71.6837 71.9883 71.6837C71.8519 71.6837 71.7413 71.7942 71.7413 71.9306C71.7413 72.067 71.8519 72.1776 71.9883 72.1776Z" fill="#E09230"/>
</g>
<g style="mix-blend-mode:screen" opacity="0.4">
<path d="M73.1961 73.1385C73.2421 73.0916 73.2678 73.0286 73.2678 72.9629C73.2678 72.8973 73.2421 72.8342 73.1961 72.7873C73.1735 72.7642 73.1465 72.7459 73.1166 72.7333C73.0868 72.7208 73.0548 72.7144 73.0225 72.7144C72.9901 72.7144 72.9581 72.7208 72.9283 72.7333C72.8985 72.7459 72.8715 72.7642 72.8488 72.7873C72.8029 72.8342 72.7771 72.8973 72.7771 72.9629C72.7771 73.0286 72.8029 73.0916 72.8488 73.1385C72.8715 73.1616 72.8985 73.18 72.9283 73.1925C72.9581 73.205 72.9901 73.2115 73.0225 73.2115C73.0548 73.2115 73.0868 73.205 73.1166 73.1925C73.1465 73.18 73.1735 73.1616 73.1961 73.1385Z" fill="#E09230"/>
</g>
<g style="mix-blend-mode:screen" opacity="0.4">
<path d="M74.2303 74.1727C74.2646 74.1381 74.2879 74.0941 74.2972 74.0462C74.3065 73.9984 74.3014 73.9489 74.2827 73.9039C74.2639 73.8589 74.2322 73.8205 74.1916 73.7935C74.1511 73.7665 74.1035 73.7521 74.0548 73.7521C74.006 73.7521 73.9584 73.7665 73.9178 73.7935C73.8773 73.8205 73.8456 73.8589 73.8268 73.9039C73.808 73.9489 73.803 73.9984 73.8123 74.0462C73.8216 74.0941 73.8449 74.1381 73.8791 74.1727C73.926 74.2187 73.9891 74.2444 74.0548 74.2444C74.1204 74.2444 74.1834 74.2187 74.2303 74.1727Z" fill="#E09230"/>
</g>
<g style="mix-blend-mode:screen" opacity="0.4">
<path d="M69.2831 70.8501C69.3174 70.8155 69.3407 70.7715 69.35 70.7236C69.3593 70.6758 69.3542 70.6263 69.3355 70.5813C69.3167 70.5363 69.2851 70.4979 69.2445 70.4709C69.2039 70.4439 69.1563 70.4294 69.1076 70.4294C69.0588 70.4294 69.0112 70.4439 68.9706 70.4709C68.9301 70.4979 68.8984 70.5363 68.8797 70.5813C68.8609 70.6263 68.8558 70.6758 68.8651 70.7236C68.8745 70.7715 68.8977 70.8155 68.932 70.8501C68.9789 70.8961 69.0419 70.9218 69.1076 70.9218C69.1732 70.9218 69.2362 70.8961 69.2831 70.8501Z" fill="#E09230"/>
</g>
<g style="mix-blend-mode:screen" opacity="0.4">
<path d="M70.3172 71.8843C70.3515 71.8496 70.3748 71.8056 70.3841 71.7578C70.3934 71.71 70.3883 71.6604 70.3696 71.6155C70.3508 71.5705 70.3192 71.5321 70.2786 71.5051C70.238 71.478 70.1904 71.4636 70.1417 71.4636C70.0929 71.4636 70.0453 71.478 70.0047 71.5051C69.9642 71.5321 69.9325 71.5705 69.9137 71.6155C69.8949 71.6604 69.8899 71.71 69.8992 71.7578C69.9085 71.8056 69.9318 71.8496 69.966 71.8843C70.0129 71.9303 70.076 71.956 70.1417 71.956C70.2073 71.956 70.2703 71.9303 70.3172 71.8843Z" fill="#E09230"/>
</g>
<g style="mix-blend-mode:screen" opacity="0.4">
<path d="M71.3515 72.9185C71.3858 72.8839 71.409 72.8399 71.4183 72.792C71.4276 72.7442 71.4226 72.6947 71.4039 72.6497C71.3851 72.6047 71.3534 72.5663 71.3129 72.5393C71.2723 72.5123 71.2247 72.4979 71.1759 72.4979C71.1272 72.4979 71.0795 72.5123 71.039 72.5393C70.9984 72.5663 70.9668 72.6047 70.948 72.6497C70.9292 72.6947 70.9242 72.7442 70.9335 72.792C70.9428 72.8399 70.9661 72.8839 71.0004 72.9185C71.0472 72.9645 71.1103 72.9902 71.1759 72.9902C71.2416 72.9902 71.3046 72.9645 71.3515 72.9185Z" fill="#E09230"/>
</g>
<g style="mix-blend-mode:screen" opacity="0.4">
<path d="M72.2083 74.0222C72.3447 74.0222 72.4553 73.9116 72.4553 73.7752C72.4553 73.6388 72.3447 73.5283 72.2083 73.5283C72.0719 73.5283 71.9613 73.6388 71.9613 73.7752C71.9613 73.9116 72.0719 74.0222 72.2083 74.0222Z" fill="#E09230"/>
</g>
<g style="mix-blend-mode:screen" opacity="0.4">
<path d="M73.2423 75.0565C73.3787 75.0565 73.4893 74.9459 73.4893 74.8095C73.4893 74.6731 73.3787 74.5625 73.2423 74.5625C73.1059 74.5625 72.9954 74.6731 72.9954 74.8095C72.9954 74.9459 73.1059 75.0565 73.2423 75.0565Z" fill="#E09230"/>
</g>
<g style="mix-blend-mode:screen" opacity="0.4">
<path d="M68.4688 71.6643C68.5031 71.6297 68.5263 71.5857 68.5356 71.5378C68.545 71.49 68.5399 71.4405 68.5211 71.3955C68.5024 71.3505 68.4707 71.3121 68.4302 71.2851C68.3896 71.2581 68.342 71.2437 68.2932 71.2437C68.2445 71.2437 68.1968 71.2581 68.1563 71.2851C68.1157 71.3121 68.0841 71.3505 68.0653 71.3955C68.0466 71.4405 68.0415 71.49 68.0508 71.5378C68.0601 71.5857 68.0834 71.6297 68.1177 71.6643C68.1645 71.7103 68.2276 71.736 68.2932 71.736C68.3589 71.736 68.4219 71.7103 68.4688 71.6643Z" fill="#E09230"/>
</g>
<g style="mix-blend-mode:screen" opacity="0.4">
<path d="M69.3255 72.7719C69.4619 72.7719 69.5724 72.6613 69.5724 72.5249C69.5724 72.3885 69.4619 72.278 69.3255 72.278C69.1891 72.278 69.0785 72.3885 69.0785 72.5249C69.0785 72.6613 69.1891 72.7719 69.3255 72.7719Z" fill="#E09230"/>
</g>
<g style="mix-blend-mode:screen" opacity="0.4">
<path d="M70.5372 73.7328C70.5714 73.6982 70.5947 73.6541 70.604 73.6063C70.6133 73.5585 70.6083 73.509 70.5895 73.464C70.5707 73.419 70.5391 73.3806 70.4985 73.3536C70.458 73.3266 70.4103 73.3121 70.3616 73.3121C70.3129 73.3121 70.2652 73.3266 70.2246 73.3536C70.1841 73.3806 70.1525 73.419 70.1337 73.464C70.1149 73.509 70.1099 73.5585 70.1192 73.6063C70.1285 73.6541 70.1517 73.6982 70.186 73.7328C70.2329 73.7788 70.2959 73.8045 70.3616 73.8045C70.4272 73.8045 70.4903 73.7788 70.5372 73.7328Z" fill="#E09230"/>
</g>
<g style="mix-blend-mode:screen" opacity="0.4">
<path d="M71.5676 74.767C71.6135 74.7201 71.6393 74.6571 71.6393 74.5914C71.6393 74.5257 71.6135 74.4627 71.5676 74.4158C71.5449 74.3927 71.5179 74.3743 71.4881 74.3618C71.4583 74.3493 71.4263 74.3428 71.3939 74.3428C71.3616 74.3428 71.3295 74.3493 71.2997 74.3618C71.2699 74.3743 71.2429 74.3927 71.2203 74.4158C71.1743 74.4627 71.1486 74.5257 71.1486 74.5914C71.1486 74.6571 71.1743 74.7201 71.2203 74.767C71.2429 74.7901 71.2699 74.8084 71.2997 74.821C71.3295 74.8335 71.3616 74.84 71.3939 74.84C71.4263 74.84 71.4583 74.8335 71.4881 74.821C71.5179 74.8084 71.5449 74.7901 71.5676 74.767Z" fill="#E09230"/>
</g>
<g style="mix-blend-mode:screen" opacity="0.4">
<path d="M72.6018 75.7973C72.6401 75.7499 72.6595 75.69 72.6563 75.6291C72.6531 75.5682 72.6274 75.5107 72.5843 75.4675C72.5412 75.4244 72.4837 75.3988 72.4228 75.3956C72.3619 75.3923 72.302 75.4117 72.2545 75.45C72.2162 75.4975 72.1968 75.5574 72.2001 75.6183C72.2033 75.6792 72.2289 75.7367 72.272 75.7798C72.3151 75.8229 72.3727 75.8486 72.4336 75.8518C72.4945 75.855 72.5544 75.8356 72.6018 75.7973Z" fill="#E09230"/>
</g>
<g style="mix-blend-mode:screen" opacity="0.4">
<path d="M67.6545 72.4786C67.6887 72.4439 67.712 72.3999 67.7213 72.3521C67.7306 72.3043 67.7256 72.2547 67.7068 72.2098C67.688 72.1648 67.6564 72.1264 67.6158 72.0994C67.5753 72.0723 67.5276 72.0579 67.4789 72.0579C67.4302 72.0579 67.3825 72.0723 67.342 72.0994C67.3014 72.1264 67.2698 72.1648 67.251 72.2098C67.2322 72.2547 67.2272 72.3043 67.2365 72.3521C67.2458 72.3999 67.269 72.4439 67.3033 72.4786C67.3502 72.5245 67.4132 72.5503 67.4789 72.5503C67.5446 72.5503 67.6076 72.5245 67.6545 72.4786Z" fill="#E09230"/>
</g>
<g style="mix-blend-mode:screen" opacity="0.4">
<path d="M68.6772 73.5128C68.7115 73.4782 68.7348 73.4342 68.7441 73.3863C68.7534 73.3385 68.7483 73.289 68.7296 73.244C68.7108 73.199 68.6791 73.1606 68.6386 73.1336C68.598 73.1066 68.5504 73.0922 68.5017 73.0922C68.4529 73.0922 68.4053 73.1066 68.3647 73.1336C68.3242 73.1606 68.2925 73.199 68.2737 73.244C68.2549 73.289 68.2499 73.3385 68.2592 73.3863C68.2685 73.4342 68.2918 73.4782 68.326 73.5128C68.3729 73.5588 68.436 73.5845 68.5017 73.5845C68.5673 73.5845 68.6303 73.5588 68.6772 73.5128Z" fill="#E09230"/>
</g>
<g style="mix-blend-mode:screen" opacity="0.4">
<path d="M69.5454 74.6204C69.6818 74.6204 69.7924 74.5098 69.7924 74.3734C69.7924 74.237 69.6818 74.1264 69.5454 74.1264C69.409 74.1264 69.2985 74.237 69.2985 74.3734C69.2985 74.5098 69.409 74.6204 69.5454 74.6204Z" fill="#E09230"/>
</g>
<g style="mix-blend-mode:screen" opacity="0.4">
<path d="M70.5797 75.6507C70.7161 75.6507 70.8267 75.5401 70.8267 75.4037C70.8267 75.2673 70.7161 75.1567 70.5797 75.1567C70.4433 75.1567 70.3328 75.2673 70.3328 75.4037C70.3328 75.5401 70.4433 75.6507 70.5797 75.6507Z" fill="#E09230"/>
</g>
<g style="mix-blend-mode:screen" opacity="0.4">
<path d="M71.6139 76.6849C71.7503 76.6849 71.8609 76.5744 71.8609 76.438C71.8609 76.3016 71.7503 76.191 71.6139 76.191C71.4775 76.191 71.3669 76.3016 71.3669 76.438C71.3669 76.5744 71.4775 76.6849 71.6139 76.6849Z" fill="#E09230"/>
</g>
<g style="mix-blend-mode:screen" opacity="0.4">
<path d="M66.6667 73.3661C66.8031 73.3661 66.9136 73.2556 66.9136 73.1192C66.9136 72.9828 66.8031 72.8722 66.6667 72.8722C66.5303 72.8722 66.4197 72.9828 66.4197 73.1192C66.4197 73.2556 66.5303 73.3661 66.6667 73.3661Z" fill="#E09230"/>
</g>
<g style="mix-blend-mode:screen" opacity="0.4">
<path d="M67.8745 74.327C67.9088 74.2924 67.932 74.2484 67.9413 74.2005C67.9506 74.1527 67.9456 74.1032 67.9268 74.0582C67.908 74.0132 67.8764 73.9748 67.8358 73.9478C67.7953 73.9208 67.7476 73.9064 67.6989 73.9064C67.6501 73.9064 67.6025 73.9208 67.5619 73.9478C67.5214 73.9748 67.4897 74.0132 67.471 74.0582C67.4522 74.1032 67.4471 74.1527 67.4565 74.2005C67.4658 74.2484 67.489 74.2924 67.5233 74.327C67.5702 74.373 67.6332 74.3987 67.6989 74.3987C67.7645 74.3987 67.8276 74.373 67.8745 74.327Z" fill="#E09230"/>
</g>
<g style="mix-blend-mode:screen" opacity="0.4">
<path d="M68.9087 75.3613C68.943 75.3266 68.9663 75.2826 68.9756 75.2348C68.9849 75.187 68.9798 75.1374 68.9611 75.0925C68.9423 75.0475 68.9107 75.0091 68.8701 74.9821C68.8296 74.955 68.7819 74.9406 68.7332 74.9406C68.6844 74.9406 68.6368 74.955 68.5962 74.9821C68.5557 75.0091 68.524 75.0475 68.5053 75.0925C68.4865 75.1374 68.4814 75.187 68.4908 75.2348C68.5001 75.2826 68.5233 75.3266 68.5576 75.3613C68.6044 75.4072 68.6675 75.433 68.7332 75.433C68.7988 75.433 68.8619 75.4072 68.9087 75.3613Z" fill="#E09230"/>
</g>
<g style="mix-blend-mode:screen" opacity="0.4">
<path d="M69.7655 76.465C69.9019 76.465 70.0125 76.3544 70.0125 76.218C70.0125 76.0816 69.9019 75.971 69.7655 75.971C69.6291 75.971 69.5186 76.0816 69.5186 76.218C69.5186 76.3544 69.6291 76.465 69.7655 76.465Z" fill="#E09230"/>
</g>
<g style="mix-blend-mode:screen" opacity="0.4">
<path d="M70.9927 77.4259C71.0275 77.3915 71.0512 77.3475 71.061 77.2995C71.0708 77.2515 71.066 77.2017 71.0474 77.1564C71.0288 77.1111 70.9972 77.0724 70.9565 77.0451C70.9158 77.0179 70.868 77.0033 70.819 77.0033C70.77 77.0033 70.7222 77.0179 70.6815 77.0451C70.6408 77.0724 70.6092 77.1111 70.5905 77.1564C70.5719 77.2017 70.5672 77.2515 70.577 77.2995C70.5867 77.3475 70.6105 77.3915 70.6453 77.4259C70.668 77.449 70.695 77.4673 70.7248 77.4799C70.7546 77.4924 70.7867 77.4989 70.819 77.4989C70.8514 77.4989 70.8834 77.4924 70.9132 77.4799C70.943 77.4673 70.97 77.449 70.9927 77.4259Z" fill="#E09230"/>
</g>
<g style="mix-blend-mode:screen" opacity="0.4">
<path d="M66.026 74.1071C66.0602 74.0724 66.0835 74.0284 66.0928 73.9806C66.1021 73.9327 66.0971 73.8832 66.0783 73.8383C66.0595 73.7933 66.0279 73.7549 65.9873 73.7278C65.9467 73.7008 65.8991 73.6864 65.8504 73.6864C65.8017 73.6864 65.754 73.7008 65.7135 73.7278C65.6729 73.7549 65.6412 73.7933 65.6225 73.8383C65.6037 73.8832 65.5986 73.9327 65.6079 73.9806C65.6173 74.0284 65.6405 74.0724 65.6748 74.1071C65.7217 74.153 65.7847 74.1788 65.8504 74.1788C65.9161 74.1788 65.9791 74.153 66.026 74.1071Z" fill="#E09230"/>
</g>
<g style="mix-blend-mode:screen" opacity="0.4">
<path d="M67.0603 75.1413C67.0945 75.1067 67.1178 75.0627 67.1271 75.0148C67.1364 74.967 67.1313 74.9175 67.1126 74.8725C67.0938 74.8275 67.0622 74.7891 67.0216 74.7621C66.981 74.7351 66.9334 74.7206 66.8847 74.7206C66.8359 74.7206 66.7883 74.7351 66.7477 74.7621C66.7072 74.7891 66.6755 74.8275 66.6568 74.8725C66.638 74.9175 66.6329 74.967 66.6422 75.0148C66.6516 75.0627 66.6748 75.1067 66.7091 75.1413C66.756 75.1873 66.819 75.213 66.8847 75.213C66.9503 75.213 67.0134 75.1873 67.0603 75.1413Z" fill="#E09230"/>
</g>
<g style="mix-blend-mode:screen" opacity="0.4">
<path d="M68.0945 76.1756C68.1287 76.1409 68.152 76.0969 68.1613 76.0491C68.1706 76.0012 68.1656 75.9517 68.1468 75.9067C68.128 75.8617 68.0964 75.8233 68.0558 75.7963C68.0153 75.7693 67.9676 75.7549 67.9189 75.7549C67.8702 75.7549 67.8225 75.7693 67.7819 75.7963C67.7414 75.8233 67.7097 75.8617 67.6909 75.9067C67.6722 75.9517 67.6671 76.0012 67.6764 76.0491C67.6857 76.0969 67.709 76.1409 67.7433 76.1756C67.7902 76.2215 67.8532 76.2472 67.9189 76.2472C67.9845 76.2472 68.0476 76.2215 68.0945 76.1756Z" fill="#E09230"/>
</g>
<g style="mix-blend-mode:screen" opacity="0.4">
<path d="M68.9511 77.2792C69.0875 77.2792 69.1981 77.1687 69.1981 77.0323C69.1981 76.8959 69.0875 76.7853 68.9511 76.7853C68.8147 76.7853 68.7041 76.8959 68.7041 77.0323C68.7041 77.1687 68.8147 77.2792 68.9511 77.2792Z" fill="#E09230"/>
</g>
<g style="mix-blend-mode:screen" opacity="0.4">
<path d="M69.9854 78.3134C70.1218 78.3134 70.2324 78.2028 70.2324 78.0664C70.2324 77.93 70.1218 77.8195 69.9854 77.8195C69.849 77.8195 69.7384 77.93 69.7384 78.0664C69.7384 78.2028 69.849 78.3134 69.9854 78.3134Z" fill="#E09230"/>
</g>
<g style="mix-blend-mode:screen" opacity="0.4">
<path d="M65.2041 74.9213C65.2383 74.8867 65.2616 74.8427 65.2709 74.7948C65.2802 74.747 65.2752 74.6975 65.2564 74.6525C65.2376 74.6075 65.206 74.5691 65.1654 74.5421C65.1249 74.5151 65.0772 74.5007 65.0285 74.5007C64.9798 74.5007 64.9321 74.5151 64.8916 74.5421C64.851 74.5691 64.8193 74.6075 64.8006 74.6525C64.7818 74.6975 64.7767 74.747 64.786 74.7948C64.7954 74.8427 64.8186 74.8867 64.8529 74.9213C64.8998 74.9673 64.9628 74.993 65.0285 74.993C65.0942 74.993 65.1572 74.9673 65.2041 74.9213Z" fill="#E09230"/>
</g>
<g style="mix-blend-mode:screen" opacity="0.4">
<path d="M66.2459 75.9556C66.2802 75.9209 66.3034 75.8769 66.3127 75.8291C66.3221 75.7812 66.317 75.7317 66.2982 75.6868C66.2795 75.6418 66.2478 75.6034 66.2073 75.5764C66.1667 75.5493 66.1191 75.5349 66.0703 75.5349C66.0216 75.5349 65.9739 75.5493 65.9334 75.5764C65.8928 75.6034 65.8612 75.6418 65.8424 75.6868C65.8237 75.7317 65.8186 75.7812 65.8279 75.8291C65.8372 75.8769 65.8605 75.9209 65.8948 75.9556C65.9416 76.0015 66.0047 76.0273 66.0703 76.0273C66.136 76.0273 66.199 76.0015 66.2459 75.9556Z" fill="#E09230"/>
</g>
<g style="mix-blend-mode:screen" opacity="0.4">
<path d="M67.1027 77.0593C67.2391 77.0593 67.3497 76.9487 67.3497 76.8123C67.3497 76.6759 67.2391 76.5653 67.1027 76.5653C66.9663 76.5653 66.8557 76.6759 66.8557 76.8123C66.8557 76.9487 66.9663 77.0593 67.1027 77.0593Z" fill="#E09230"/>
</g>
<g style="mix-blend-mode:screen" opacity="0.4">
<path d="M68.137 78.0934C68.2734 78.0934 68.384 77.9829 68.384 77.8465C68.384 77.7101 68.2734 77.5995 68.137 77.5995C68.0006 77.5995 67.89 77.7101 67.89 77.8465C67.89 77.9829 68.0006 78.0934 68.137 78.0934Z" fill="#E09230"/>
</g>
<g style="mix-blend-mode:screen" opacity="0.4">
<path d="M69.3487 79.0659C69.383 79.0313 69.4063 78.9873 69.4156 78.9394C69.4249 78.8916 69.4198 78.8421 69.4011 78.7971C69.3823 78.7521 69.3507 78.7137 69.3101 78.6867C69.2695 78.6597 69.2219 78.6453 69.1732 78.6453C69.1244 78.6453 69.0768 78.6597 69.0362 78.6867C68.9957 78.7137 68.964 78.7521 68.9452 78.7971C68.9264 78.8421 68.9214 78.8916 68.9307 78.9394C68.94 78.9873 68.9633 79.0313 68.9975 79.0659C69.0444 79.1119 69.1075 79.1376 69.1732 79.1376C69.2388 79.1376 69.3018 79.1119 69.3487 79.0659Z" fill="#E09230"/>
</g>
<g style="mix-blend-mode:screen" opacity="0.4">
<path d="M64.2239 75.8089C64.3603 75.8089 64.4709 75.6983 64.4709 75.5619C64.4709 75.4255 64.3603 75.3149 64.2239 75.3149C64.0875 75.3149 63.9769 75.4255 63.9769 75.5619C63.9769 75.6983 64.0875 75.8089 64.2239 75.8089Z" fill="#E09230"/>
</g>
<g style="mix-blend-mode:screen" opacity="0.4">
<path d="M65.2581 76.8393C65.3945 76.8393 65.5051 76.7287 65.5051 76.5923C65.5051 76.4559 65.3945 76.3453 65.2581 76.3453C65.1217 76.3453 65.0111 76.4559 65.0111 76.5923C65.0111 76.7287 65.1217 76.8393 65.2581 76.8393Z" fill="#E09230"/>
</g>
<g style="mix-blend-mode:screen" opacity="0.4">
<path d="M66.4659 77.8041C66.5002 77.7694 66.5234 77.7254 66.5328 77.6776C66.5421 77.6298 66.537 77.5802 66.5183 77.5353C66.4995 77.4903 66.4678 77.4519 66.4272 77.4249C66.3867 77.3978 66.339 77.3834 66.2903 77.3834C66.2416 77.3834 66.194 77.3978 66.1534 77.4249C66.1128 77.4519 66.0812 77.4903 66.0624 77.5353C66.0436 77.5802 66.0386 77.6298 66.0479 77.6776C66.0572 77.7254 66.0805 77.7694 66.1147 77.8041C66.1616 77.8501 66.2246 77.8758 66.2903 77.8758C66.356 77.8758 66.419 77.8501 66.4659 77.8041Z" fill="#E09230"/>
</g>
<g style="mix-blend-mode:screen" opacity="0.4">
<path d="M67.3227 78.9077C67.4591 78.9077 67.5696 78.7971 67.5696 78.6607C67.5696 78.5243 67.4591 78.4138 67.3227 78.4138C67.1863 78.4138 67.0757 78.5243 67.0757 78.6607C67.0757 78.7971 67.1863 78.9077 67.3227 78.9077Z" fill="#E09230"/>
</g>
<g style="mix-blend-mode:screen" opacity="0.4">
<path d="M68.5344 79.8687C68.5687 79.834 68.5919 79.79 68.6012 79.7422C68.6106 79.6943 68.6055 79.6448 68.5867 79.5998C68.568 79.5549 68.5363 79.5164 68.4957 79.4894C68.4552 79.4624 68.4076 79.448 68.3588 79.448C68.3101 79.448 68.2624 79.4624 68.2219 79.4894C68.1813 79.5164 68.1496 79.5549 68.1309 79.5998C68.1121 79.6448 68.1071 79.6943 68.1164 79.7422C68.1257 79.79 68.1489 79.834 68.1832 79.8687C68.2301 79.9146 68.2932 79.9404 68.3588 79.9404C68.4245 79.9404 68.4875 79.9146 68.5344 79.8687Z" fill="#E09230"/>
</g>
<g style="mix-blend-mode:screen" opacity="0.4">
<path d="M63.5833 76.5499C63.6293 76.503 63.655 76.4399 63.655 76.3743C63.655 76.3086 63.6293 76.2456 63.5833 76.1987C63.5607 76.1756 63.5337 76.1572 63.5039 76.1447C63.474 76.1322 63.442 76.1257 63.4096 76.1257C63.3773 76.1257 63.3453 76.1322 63.3155 76.1447C63.2857 76.1572 63.2586 76.1756 63.236 76.1987C63.19 76.2456 63.1643 76.3086 63.1643 76.3743C63.1643 76.4399 63.19 76.503 63.236 76.5499C63.2586 76.573 63.2857 76.5913 63.3155 76.6039C63.3453 76.6164 63.3773 76.6228 63.4096 76.6228C63.442 76.6228 63.474 76.6164 63.5039 76.6039C63.5337 76.5913 63.5607 76.573 63.5833 76.5499Z" fill="#E09230"/>
</g>
<g style="mix-blend-mode:screen" opacity="0.4">
<path d="M64.4439 77.6536C64.5803 77.6536 64.6909 77.543 64.6909 77.4066C64.6909 77.2702 64.5803 77.1596 64.4439 77.1596C64.3075 77.1596 64.1969 77.2702 64.1969 77.4066C64.1969 77.543 64.3075 77.6536 64.4439 77.6536Z" fill="#E09230"/>
</g>
<g style="mix-blend-mode:screen" opacity="0.4">
<path d="M65.4743 78.6878C65.6107 78.6878 65.7212 78.5772 65.7212 78.4408C65.7212 78.3044 65.6107 78.1938 65.4743 78.1938C65.3379 78.1938 65.2273 78.3044 65.2273 78.4408C65.2273 78.5772 65.3379 78.6878 65.4743 78.6878Z" fill="#E09230"/>
</g>
<g style="mix-blend-mode:screen" opacity="0.4">
<path d="M66.686 79.6487C66.7202 79.614 66.7435 79.57 66.7528 79.5222C66.7621 79.4744 66.7571 79.4248 66.7383 79.3799C66.7195 79.3349 66.6879 79.2965 66.6473 79.2695C66.6068 79.2424 66.5591 79.228 66.5104 79.228C66.4617 79.228 66.414 79.2424 66.3735 79.2695C66.3329 79.2965 66.3013 79.3349 66.2825 79.3799C66.2637 79.4248 66.2587 79.4744 66.268 79.5222C66.2773 79.57 66.3006 79.614 66.3348 79.6487C66.3817 79.6947 66.4447 79.7204 66.5104 79.7204C66.576 79.7204 66.6391 79.6947 66.686 79.6487Z" fill="#E09230"/>
</g>
<g style="mix-blend-mode:screen" opacity="0.4">
<path d="M67.7202 80.6829C67.7545 80.6482 67.7777 80.6042 67.787 80.5564C67.7963 80.5085 67.7913 80.459 67.7725 80.4141C67.7538 80.3691 67.7221 80.3307 67.6815 80.3036C67.641 80.2766 67.5933 80.2622 67.5446 80.2622C67.4958 80.2622 67.4482 80.2766 67.4077 80.3036C67.3671 80.3307 67.3354 80.3691 67.3167 80.4141C67.2979 80.459 67.2928 80.5085 67.3022 80.5564C67.3115 80.6042 67.3347 80.6482 67.369 80.6829C67.4159 80.7288 67.4789 80.7546 67.5446 80.7546C67.6102 80.7546 67.6733 80.7288 67.7202 80.6829Z" fill="#E09230"/>
</g>
<g style="mix-blend-mode:screen" opacity="0.4">
<path d="M62.5954 77.4336C62.7318 77.4336 62.8423 77.323 62.8423 77.1866C62.8423 77.0502 62.7318 76.9396 62.5954 76.9396C62.459 76.9396 62.3484 77.0502 62.3484 77.1866C62.3484 77.323 62.459 77.4336 62.5954 77.4336Z" fill="#E09230"/>
</g>
<g style="mix-blend-mode:screen" opacity="0.4">
<path d="M63.6297 78.4678C63.7661 78.4678 63.8766 78.3573 63.8766 78.2209C63.8766 78.0845 63.7661 77.9739 63.6297 77.9739C63.4933 77.9739 63.3827 78.0845 63.3827 78.2209C63.3827 78.3573 63.4933 78.4678 63.6297 78.4678Z" fill="#E09230"/>
</g>
<g style="mix-blend-mode:screen" opacity="0.4">
<path d="M64.6637 79.502C64.8001 79.502 64.9107 79.3914 64.9107 79.255C64.9107 79.1186 64.8001 79.0081 64.6637 79.0081C64.5273 79.0081 64.4167 79.1186 64.4167 79.255C64.4167 79.3914 64.5273 79.502 64.6637 79.502Z" fill="#E09230"/>
</g>
<g style="mix-blend-mode:screen" opacity="0.4">
<path d="M65.8716 80.4629C65.9059 80.4283 65.9292 80.3842 65.9385 80.3364C65.9478 80.2886 65.9427 80.2391 65.924 80.1941C65.9052 80.1491 65.8736 80.1107 65.833 80.0837C65.7925 80.0567 65.7448 80.0422 65.6961 80.0422C65.6473 80.0422 65.5997 80.0567 65.5591 80.0837C65.5186 80.1107 65.4869 80.1491 65.4681 80.1941C65.4493 80.2391 65.4443 80.2886 65.4537 80.3364C65.463 80.3842 65.4862 80.4283 65.5205 80.4629C65.5673 80.5089 65.6304 80.5346 65.6961 80.5346C65.7617 80.5346 65.8248 80.5089 65.8716 80.4629Z" fill="#E09230"/>
</g>
<g style="mix-blend-mode:screen" opacity="0.4">
<path d="M66.9059 81.4971C66.9401 81.4625 66.9634 81.4185 66.9727 81.3706C66.982 81.3228 66.977 81.2733 66.9582 81.2283C66.9394 81.1833 66.9077 81.1449 66.8672 81.1179C66.8266 81.0909 66.779 81.0765 66.7302 81.0765C66.6815 81.0765 66.6339 81.0909 66.5933 81.1179C66.5527 81.1449 66.5211 81.1833 66.5023 81.2283C66.4836 81.2733 66.4785 81.3228 66.4878 81.3706C66.4971 81.4185 66.5204 81.4625 66.5547 81.4971C66.6016 81.5431 66.6646 81.5688 66.7302 81.5688C66.7959 81.5688 66.859 81.5431 66.9059 81.4971Z" fill="#E09230"/>
</g>
<g style="mix-blend-mode:screen" opacity="0.4">
<path d="M61.9548 78.1783C61.9784 78.1556 61.9972 78.1285 62.0102 78.0985C62.0232 78.0685 62.0301 78.0361 62.0305 78.0034C62.0309 77.9707 62.0248 77.9383 62.0125 77.9079C62.0003 77.8776 61.9821 77.85 61.9591 77.8267C61.9361 77.8035 61.9087 77.785 61.8785 77.7724C61.8483 77.7598 61.8159 77.7534 61.7832 77.7534C61.7505 77.7535 61.7181 77.76 61.688 77.7727C61.6578 77.7853 61.6305 77.8038 61.6075 77.8272C61.5616 77.8741 61.5358 77.9371 61.5358 78.0027C61.5358 78.0684 61.5616 78.1314 61.6075 78.1783C61.6301 78.2014 61.6572 78.2198 61.687 78.2323C61.7168 78.2449 61.7488 78.2513 61.7811 78.2513C61.8135 78.2513 61.8455 78.2449 61.8753 78.2323C61.9051 78.2198 61.9321 78.2014 61.9548 78.1783Z" fill="#E09230"/>
</g>
<g style="mix-blend-mode:screen" opacity="0.4">
<path d="M62.8153 79.282C62.9517 79.282 63.0623 79.1715 63.0623 79.0351C63.0623 78.8987 62.9517 78.7881 62.8153 78.7881C62.6789 78.7881 62.5684 78.8987 62.5684 79.0351C62.5684 79.1715 62.6789 79.282 62.8153 79.282Z" fill="#E09230"/>
</g>
<g style="mix-blend-mode:screen" opacity="0.4">
<path d="M64.0231 80.243C64.0462 80.2203 64.0646 80.1933 64.0771 80.1635C64.0897 80.1337 64.0961 80.1017 64.0961 80.0693C64.0961 80.037 64.0897 80.005 64.0771 79.9752C64.0646 79.9453 64.0462 79.9183 64.0231 79.8957C63.9762 79.8497 63.9132 79.824 63.8475 79.824C63.7819 79.824 63.7189 79.8497 63.672 79.8957C63.6489 79.9183 63.6305 79.9453 63.618 79.9752C63.6055 80.005 63.599 80.037 63.599 80.0693C63.599 80.1017 63.6055 80.1337 63.618 80.1635C63.6305 80.1933 63.6489 80.2203 63.672 80.243C63.7189 80.2889 63.7819 80.3147 63.8475 80.3147C63.9132 80.3147 63.9762 80.2889 64.0231 80.243Z" fill="#E09230"/>
</g>
<g style="mix-blend-mode:screen" opacity="0.4">
<path d="M65.0575 81.2772C65.0917 81.2425 65.115 81.1985 65.1243 81.1507C65.1336 81.1028 65.1286 81.0533 65.1098 81.0083C65.091 80.9634 65.0594 80.925 65.0188 80.8979C64.9783 80.8709 64.9306 80.8565 64.8819 80.8565C64.8332 80.8565 64.7855 80.8709 64.745 80.8979C64.7044 80.925 64.6727 80.9634 64.6539 81.0083C64.6352 81.0533 64.6301 81.1028 64.6394 81.1507C64.6488 81.1985 64.672 81.2425 64.7063 81.2772C64.7532 81.3231 64.8162 81.3489 64.8819 81.3489C64.9476 81.3489 65.0106 81.3231 65.0575 81.2772Z" fill="#E09230"/>
</g>
<g style="mix-blend-mode:screen" opacity="0.4">
<path d="M65.9141 82.3847C66.0505 82.3847 66.1611 82.2741 66.1611 82.1377C66.1611 82.0013 66.0505 81.8907 65.9141 81.8907C65.7777 81.8907 65.6671 82.0013 65.6671 82.1377C65.6671 82.2741 65.7777 82.3847 65.9141 82.3847Z" fill="#E09230"/>
</g>
<g style="mix-blend-mode:screen" opacity="0.4">
<path d="M60.9668 79.0621C61.1032 79.0621 61.2138 78.9515 61.2138 78.8151C61.2138 78.6787 61.1032 78.5681 60.9668 78.5681C60.8304 78.5681 60.7198 78.6787 60.7198 78.8151C60.7198 78.9515 60.8304 79.0621 60.9668 79.0621Z" fill="#E09230"/>
</g>
<g style="mix-blend-mode:screen" opacity="0.4">
<path d="M62.0011 80.0963C62.1375 80.0963 62.2481 79.9857 62.2481 79.8493C62.2481 79.7129 62.1375 79.6024 62.0011 79.6024C61.8647 79.6024 61.7542 79.7129 61.7542 79.8493C61.7542 79.9857 61.8647 80.0963 62.0011 80.0963Z" fill="#E09230"/>
</g>
<g style="mix-blend-mode:screen" opacity="0.4">
<path d="M63.2089 81.0572C63.2432 81.0226 63.2664 80.9785 63.2758 80.9307C63.2851 80.8829 63.28 80.8334 63.2612 80.7884C63.2425 80.7434 63.2108 80.705 63.1703 80.678C63.1297 80.651 63.0821 80.6365 63.0333 80.6365C62.9846 80.6365 62.937 80.651 62.8964 80.678C62.8558 80.705 62.8242 80.7434 62.8054 80.7884C62.7867 80.8334 62.7816 80.8829 62.7909 80.9307C62.8002 80.9785 62.8235 81.0226 62.8578 81.0572C62.9047 81.1032 62.9677 81.1289 63.0333 81.1289C63.099 81.1289 63.162 81.1032 63.2089 81.0572Z" fill="#E09230"/>
</g>
<g style="mix-blend-mode:screen" opacity="0.4">
<path d="M64.2431 82.0914C64.2774 82.0568 64.3007 82.0128 64.31 81.9649C64.3193 81.9171 64.3142 81.8676 64.2955 81.8226C64.2767 81.7777 64.245 81.7392 64.2045 81.7122C64.1639 81.6852 64.1163 81.6708 64.0676 81.6708C64.0188 81.6708 63.9712 81.6852 63.9306 81.7122C63.8901 81.7392 63.8584 81.7777 63.8396 81.8226C63.8208 81.8676 63.8158 81.9171 63.8251 81.9649C63.8344 82.0128 63.8577 82.0568 63.892 82.0914C63.9388 82.1374 64.0019 82.1632 64.0676 82.1632C64.1332 82.1632 64.1962 82.1374 64.2431 82.0914Z" fill="#E09230"/>
</g>
<g style="mix-blend-mode:screen" opacity="0.4">
<path d="M65.2774 83.1256C65.3117 83.091 65.3349 83.047 65.3442 82.9991C65.3535 82.9513 65.3485 82.9018 65.3297 82.8568C65.311 82.8118 65.2793 82.7734 65.2388 82.7464C65.1982 82.7194 65.1506 82.705 65.1018 82.705C65.0531 82.705 65.0054 82.7194 64.9649 82.7464C64.9243 82.7734 64.8927 82.8118 64.8739 82.8568C64.8551 82.9018 64.8501 82.9513 64.8594 82.9991C64.8687 83.047 64.892 83.091 64.9263 83.1256C64.9731 83.1716 65.0362 83.1973 65.1018 83.1973C65.1675 83.1973 65.2305 83.1716 65.2774 83.1256Z" fill="#E09230"/>
</g>
<g style="mix-blend-mode:screen" opacity="0.4">
<path d="M60.1526 79.8763C60.289 79.8763 60.3996 79.7658 60.3996 79.6294C60.3996 79.493 60.289 79.3824 60.1526 79.3824C60.0162 79.3824 59.9056 79.493 59.9056 79.6294C59.9056 79.7658 60.0162 79.8763 60.1526 79.8763Z" fill="#E09230"/>
</g>
<g style="mix-blend-mode:screen" opacity="0.4">
<path d="M61.3451 80.8373C61.3799 80.8028 61.4037 80.7588 61.4134 80.7109C61.4232 80.6629 61.4185 80.6131 61.3999 80.5678C61.3812 80.5225 61.3496 80.4838 61.3089 80.4565C61.2683 80.4292 61.2204 80.4147 61.1714 80.4147C61.1225 80.4147 61.0746 80.4292 61.0339 80.4565C60.9932 80.4838 60.9616 80.5225 60.943 80.5678C60.9243 80.6131 60.9196 80.6629 60.9294 80.7109C60.9391 80.7588 60.9629 80.8028 60.9977 80.8373C61.0204 80.8604 61.0474 80.8787 61.0772 80.8913C61.107 80.9038 61.1391 80.9102 61.1714 80.9102C61.2038 80.9102 61.2358 80.9038 61.2656 80.8913C61.2954 80.8787 61.3224 80.8604 61.3451 80.8373Z" fill="#E09230"/>
</g>
<g style="mix-blend-mode:screen" opacity="0.4">
<path d="M62.3948 81.8714C62.4407 81.8245 62.4665 81.7615 62.4665 81.6958C62.4665 81.6302 62.4407 81.5671 62.3948 81.5202C62.3601 81.486 62.3161 81.4627 62.2683 81.4534C62.2205 81.4441 62.171 81.4491 62.126 81.4679C62.081 81.4867 62.0426 81.5183 62.0156 81.5589C61.9886 81.5994 61.9741 81.6471 61.9741 81.6958C61.9741 81.7446 61.9886 81.7922 62.0156 81.8328C62.0426 81.8733 62.081 81.905 62.126 81.9237C62.171 81.9425 62.2205 81.9476 62.2683 81.9383C62.3161 81.9289 62.3601 81.9057 62.3948 81.8714Z" fill="#E09230"/>
</g>
<g style="mix-blend-mode:screen" opacity="0.4">
<path d="M63.2553 82.979C63.3917 82.979 63.5023 82.8684 63.5023 82.732C63.5023 82.5956 63.3917 82.485 63.2553 82.485C63.1189 82.485 63.0083 82.5956 63.0083 82.732C63.0083 82.8684 63.1189 82.979 63.2553 82.979Z" fill="#E09230"/>
</g>
<g style="mix-blend-mode:screen" opacity="0.4">
<path d="M64.4631 83.9399C64.4973 83.9052 64.5206 83.8612 64.5299 83.8134C64.5392 83.7656 64.5342 83.716 64.5154 83.6711C64.4966 83.6261 64.465 83.5877 64.4244 83.5607C64.3839 83.5336 64.3362 83.5192 64.2875 83.5192C64.2388 83.5192 64.1911 83.5336 64.1506 83.5607C64.11 83.5877 64.0784 83.6261 64.0596 83.6711C64.0408 83.716 64.0358 83.7656 64.0451 83.8134C64.0544 83.8612 64.0777 83.9052 64.1119 83.9399C64.1588 83.9859 64.2218 84.0116 64.2875 84.0116C64.3531 84.0116 64.4162 83.9859 64.4631 83.9399Z" fill="#E09230"/>
</g>
<g style="mix-blend-mode:screen" opacity="0.4">
<path d="M59.3384 80.6906C59.4748 80.6906 59.5854 80.58 59.5854 80.4436C59.5854 80.3072 59.4748 80.1967 59.3384 80.1967C59.202 80.1967 59.0914 80.3072 59.0914 80.4436C59.0914 80.58 59.202 80.6906 59.3384 80.6906Z" fill="#E09230"/>
</g>
<g style="mix-blend-mode:screen" opacity="0.4">
<path d="M60.5463 81.6515C60.5698 81.6291 60.5886 81.6022 60.6015 81.5723C60.6143 81.5425 60.6209 81.5103 60.6209 81.4778C60.6209 81.4453 60.6143 81.4131 60.6015 81.3833C60.5886 81.3534 60.5698 81.3265 60.5463 81.3042C60.5118 81.2693 60.4678 81.2455 60.4198 81.2358C60.3718 81.226 60.322 81.2308 60.2768 81.2494C60.2315 81.268 60.1927 81.2996 60.1654 81.3403C60.1382 81.381 60.1237 81.4288 60.1237 81.4778C60.1237 81.5268 60.1382 81.5746 60.1654 81.6153C60.1927 81.656 60.2315 81.6876 60.2768 81.7063C60.322 81.7249 60.3718 81.7296 60.4198 81.7198C60.4678 81.7101 60.5118 81.6863 60.5463 81.6515Z" fill="#E09230"/>
</g>
<g style="mix-blend-mode:screen" opacity="0.4">
<path d="M61.5804 82.6857C61.6264 82.6388 61.6521 82.5758 61.6521 82.5101C61.6521 82.4445 61.6264 82.3815 61.5804 82.3346C61.5578 82.3115 61.5307 82.2931 61.5009 82.2806C61.4711 82.2681 61.4391 82.2616 61.4068 82.2616C61.3744 82.2616 61.3424 82.2681 61.3125 82.2806C61.2827 82.2931 61.2557 82.3115 61.2331 82.3346C61.1871 82.3815 61.1614 82.4445 61.1614 82.5101C61.1614 82.5758 61.1871 82.6388 61.2331 82.6857C61.2557 82.7088 61.2827 82.7272 61.3125 82.7397C61.3424 82.7523 61.3744 82.7587 61.4068 82.7587C61.4391 82.7587 61.4711 82.7523 61.5009 82.7397C61.5307 82.7272 61.5578 82.7088 61.5804 82.6857Z" fill="#E09230"/>
</g>
<g style="mix-blend-mode:screen" opacity="0.4">
<path d="M62.6147 83.7199C62.649 83.6853 62.6723 83.6413 62.6816 83.5934C62.6909 83.5456 62.6858 83.4961 62.6671 83.4511C62.6483 83.4061 62.6166 83.3677 62.576 83.3407C62.5355 83.3137 62.4878 83.2993 62.4391 83.2993C62.3904 83.2993 62.3427 83.3137 62.3022 83.3407C62.2616 83.3677 62.23 83.4061 62.2112 83.4511C62.1924 83.4961 62.1874 83.5456 62.1967 83.5934C62.206 83.6413 62.2293 83.6853 62.2635 83.7199C62.3104 83.7659 62.3734 83.7916 62.4391 83.7916C62.5048 83.7916 62.5678 83.7659 62.6147 83.7199Z" fill="#E09230"/>
</g>
<g style="mix-blend-mode:screen" opacity="0.4">
<path d="M63.4713 84.8275C63.6077 84.8275 63.7183 84.7169 63.7183 84.5805C63.7183 84.4441 63.6077 84.3335 63.4713 84.3335C63.3349 84.3335 63.2244 84.4441 63.2244 84.5805C63.2244 84.7169 63.3349 84.8275 63.4713 84.8275Z" fill="#E09230"/>
</g>
<g style="mix-blend-mode:screen" opacity="0.4">
<path d="M58.7016 81.4315C58.7247 81.4089 58.7431 81.3819 58.7556 81.3521C58.7681 81.3222 58.7746 81.2902 58.7746 81.2579C58.7746 81.2255 58.7681 81.1935 58.7556 81.1637C58.7431 81.1339 58.7247 81.1069 58.7016 81.0842C58.6547 81.0383 58.5917 81.0125 58.526 81.0125C58.4603 81.0125 58.3973 81.0383 58.3504 81.0842C58.3273 81.1069 58.309 81.1339 58.2965 81.1637C58.2839 81.1935 58.2775 81.2255 58.2775 81.2579C58.2775 81.2902 58.2839 81.3222 58.2965 81.3521C58.309 81.3819 58.3273 81.4089 58.3504 81.4315C58.3973 81.4775 58.4603 81.5032 58.526 81.5032C58.5917 81.5032 58.6547 81.4775 58.7016 81.4315Z" fill="#E09230"/>
</g>
<g style="mix-blend-mode:screen" opacity="0.4">
<path d="M59.7358 82.4657C59.77 82.4311 59.7933 82.3871 59.8026 82.3392C59.8119 82.2914 59.8069 82.2419 59.7881 82.1969C59.7693 82.1519 59.7377 82.1135 59.6971 82.0865C59.6566 82.0595 59.6089 82.045 59.5602 82.045C59.5115 82.045 59.4638 82.0595 59.4233 82.0865C59.3827 82.1135 59.3511 82.1519 59.3323 82.1969C59.3135 82.2419 59.3085 82.2914 59.3178 82.3392C59.3271 82.3871 59.3504 82.4311 59.3846 82.4657C59.4315 82.5117 59.4945 82.5374 59.5602 82.5374C59.6259 82.5374 59.6889 82.5117 59.7358 82.4657Z" fill="#E09230"/>
</g>
<g style="mix-blend-mode:screen" opacity="0.4">
<path d="M60.7662 83.4999C60.8121 83.4531 60.8379 83.39 60.8379 83.3244C60.8379 83.2587 60.8121 83.1957 60.7662 83.1488C60.7436 83.1257 60.7165 83.1073 60.6867 83.0948C60.6569 83.0823 60.6249 83.0758 60.5925 83.0758C60.5602 83.0758 60.5282 83.0823 60.4983 83.0948C60.4685 83.1073 60.4415 83.1257 60.4189 83.1488C60.3729 83.1957 60.3472 83.2587 60.3472 83.3244C60.3472 83.39 60.3729 83.4531 60.4189 83.4999C60.4415 83.5231 60.4685 83.5414 60.4983 83.5539C60.5282 83.5665 60.5602 83.5729 60.5925 83.5729C60.6249 83.5729 60.6569 83.5665 60.6867 83.5539C60.7165 83.5414 60.7436 83.5231 60.7662 83.4999Z" fill="#E09230"/>
</g>
<g style="mix-blend-mode:screen" opacity="0.4">
<path d="M61.8005 84.5342C61.8348 84.4995 61.858 84.4555 61.8673 84.4077C61.8766 84.3599 61.8716 84.3103 61.8528 84.2654C61.8341 84.2204 61.8024 84.182 61.7618 84.155C61.7213 84.1279 61.6736 84.1135 61.6249 84.1135C61.5762 84.1135 61.5285 84.1279 61.488 84.155C61.4474 84.182 61.4158 84.2204 61.397 84.2654C61.3782 84.3103 61.3732 84.3599 61.3825 84.4077C61.3918 84.4555 61.4151 84.4995 61.4493 84.5342C61.4962 84.5802 61.5592 84.6059 61.6249 84.6059C61.6906 84.6059 61.7536 84.5802 61.8005 84.5342Z" fill="#E09230"/>
</g>
<g style="mix-blend-mode:screen" opacity="0.4">
<path d="M62.8346 85.5684C62.8688 85.5337 62.8921 85.4897 62.9014 85.4419C62.9107 85.394 62.9057 85.3445 62.8869 85.2995C62.8681 85.2546 62.8365 85.2162 62.7959 85.1891C62.7554 85.1621 62.7077 85.1477 62.659 85.1477C62.6103 85.1477 62.5626 85.1621 62.5221 85.1891C62.4815 85.2162 62.4498 85.2546 62.431 85.2995C62.4123 85.3445 62.4072 85.394 62.4165 85.4419C62.4259 85.4897 62.4491 85.5337 62.4834 85.5684C62.5303 85.6143 62.5933 85.6401 62.659 85.6401C62.7247 85.6401 62.7877 85.6143 62.8346 85.5684Z" fill="#E09230"/>
</g>
</g>
<g style="mix-blend-mode:multiply" opacity="0.4">
<path d="M108.788 40.6057L106.308 38.1253L74.6245 69.8087L77.1049 72.2891L108.788 40.6057Z" fill="#D8D6C7"/>
</g>
<g style="mix-blend-mode:multiply" opacity="0.4">
<path d="M77.1018 72.2943L74.6213 69.8138L60.1044 84.3307L62.5849 86.8112L77.1018 72.2943Z" fill="#E09230"/>
</g>
<path d="M109.066 40.3329L108.68 40.7188C106.636 39.1197 104.793 37.2784 103.192 35.2352L103.578 34.8493C104.107 35.378 104.859 35.5902 105.415 36.088C105.701 36.3427 105.971 36.6167 106.237 36.8907C106.916 37.5879 107.597 38.2838 108.278 38.9784C108.648 39.3587 108.918 39.8238 109.066 40.3329Z" fill="#A2A195"/>
<path d="M114.669 91.5769L52.4307 29.3424" stroke="#CF4339" stroke-width="10" stroke-miterlimit="10"/>
</g>
<g filter="url(#filter0_b_136:22341)">
<rect x="13" y="77" width="141" height="77" rx="10" fill="black" fill-opacity="0.8"/>
</g>
<path d="M47.5607 101.97C48.5034 101.97 49.2267 102.208 49.7307 102.684C50.2441 103.16 50.5007 103.841 50.5007 104.728C50.5007 105.409 50.3514 106.007 50.0527 106.52C49.7541 107.024 49.3247 107.416 48.7647 107.696C48.2141 107.976 47.5654 108.116 46.8187 108.116H45.9227V108.144L46.0067 111H44.1027L44.2007 108.312L44.1027 101.984L47.5607 101.97ZM47.2387 106.73C48.0974 106.487 48.5267 105.876 48.5267 104.896C48.5267 104.392 48.3961 104.019 48.1347 103.776C47.8827 103.524 47.4907 103.389 46.9587 103.37L46.0067 103.426L45.9507 106.674L47.2387 106.73ZM55.1053 104.476C55.1893 104.476 55.306 104.485 55.4553 104.504V106.226L55.2593 106.296C55.1007 106.231 54.928 106.198 54.7413 106.198C54.2 106.198 53.71 106.548 53.2713 107.248V108.13L53.3693 111H51.5073L51.6193 108.312L51.5353 104.616L53.2993 104.462L53.2853 105.736H53.3973C53.8547 104.896 54.424 104.476 55.1053 104.476ZM61.4145 107.976L57.6345 108.004C57.7185 109.171 58.3112 109.754 59.4125 109.754C59.9912 109.754 60.6352 109.591 61.3445 109.264L61.4985 109.362L61.2185 110.748C60.5092 111.009 59.8418 111.14 59.2165 111.14C58.1898 111.14 57.3825 110.841 56.7945 110.244C56.2158 109.647 55.9265 108.821 55.9265 107.766C55.9265 106.721 56.2112 105.895 56.7805 105.288C57.3498 104.672 58.1198 104.364 59.0905 104.364C59.9212 104.364 60.5605 104.593 61.0085 105.05C61.4658 105.498 61.6945 106.128 61.6945 106.94C61.6945 107.155 61.6712 107.425 61.6245 107.752L61.4145 107.976ZM60.0705 106.73C60.0705 106.357 59.9865 106.077 59.8185 105.89C59.6505 105.694 59.4032 105.596 59.0765 105.596C58.7125 105.596 58.4092 105.717 58.1665 105.96C57.9238 106.193 57.7605 106.534 57.6765 106.982L60.0425 106.926L60.0705 106.73ZM64.196 105.526L65.176 109.25H65.274L66.45 105.624L66.688 104.49H68.312L66.128 111H64.126L62.278 104.532L64.014 104.448L64.196 105.526ZM69.3384 108.312L69.2684 104.616L71.1024 104.462L71.0184 108.13L71.1024 111H69.2404L69.3384 108.312ZM70.2204 101.298C70.5097 101.298 70.7337 101.382 70.8924 101.55C71.0604 101.718 71.1444 101.951 71.1444 102.25C71.1444 102.567 71.0557 102.819 70.8784 103.006C70.7011 103.193 70.4584 103.286 70.1504 103.286C69.8424 103.286 69.6044 103.202 69.4364 103.034C69.2777 102.866 69.1984 102.628 69.1984 102.32C69.1984 102.012 69.2871 101.765 69.4644 101.578C69.6511 101.391 69.9031 101.298 70.2204 101.298ZM76.8668 106.94C76.8761 106.613 76.8015 106.361 76.6428 106.184C76.4935 105.997 76.2741 105.904 75.9848 105.904C75.5648 105.904 75.1168 106.105 74.6408 106.506V108.13L74.7248 111H72.8628L72.9608 108.312L72.8908 104.616L74.6548 104.462V105.414H74.7528C75.2661 104.947 75.8261 104.611 76.4328 104.406C77.1421 104.406 77.6835 104.569 78.0568 104.896C78.4301 105.213 78.6075 105.675 78.5888 106.282L78.5468 108.144L78.6308 111H76.7548L76.8668 106.94ZM85.3129 107.976L81.5329 108.004C81.6169 109.171 82.2096 109.754 83.3109 109.754C83.8896 109.754 84.5336 109.591 85.2429 109.264L85.3969 109.362L85.1169 110.748C84.4076 111.009 83.7403 111.14 83.1149 111.14C82.0883 111.14 81.2809 110.841 80.6929 110.244C80.1143 109.647 79.8249 108.821 79.8249 107.766C79.8249 106.721 80.1096 105.895 80.6789 105.288C81.2483 104.672 82.0183 104.364 82.9889 104.364C83.8196 104.364 84.4589 104.593 84.9069 105.05C85.3643 105.498 85.5929 106.128 85.5929 106.94C85.5929 107.155 85.5696 107.425 85.5229 107.752L85.3129 107.976ZM83.9689 106.73C83.9689 106.357 83.8849 106.077 83.7169 105.89C83.5489 105.694 83.3016 105.596 82.9749 105.596C82.6109 105.596 82.3076 105.717 82.0649 105.96C81.8223 106.193 81.6589 106.534 81.5749 106.982L83.9409 106.926L83.9689 106.73ZM94.4276 108.13L94.4696 109.306C94.4696 109.465 94.4883 109.577 94.5256 109.642C94.5723 109.698 94.6516 109.726 94.7636 109.726C94.8663 109.726 94.9923 109.707 95.1416 109.67L95.2676 109.782L95.1136 110.762C94.7963 110.958 94.4509 111.075 94.0776 111.112C93.7883 111.084 93.5456 110.986 93.3496 110.818C93.1536 110.65 93.0183 110.421 92.9436 110.132H92.8316C92.3743 110.552 91.9076 110.874 91.4316 111.098C90.5169 111.098 89.8076 110.809 89.3036 110.23C88.7996 109.642 88.5476 108.83 88.5476 107.794C88.5476 106.693 88.8369 105.848 89.4156 105.26C89.9943 104.672 90.7969 104.378 91.8236 104.378C92.0943 104.378 92.3929 104.406 92.7196 104.462L92.6916 101.312L94.5396 101.172L94.4276 108.13ZM91.6976 105.638C90.7643 105.638 90.2976 106.231 90.2976 107.416C90.2976 108.153 90.4096 108.709 90.6336 109.082C90.8576 109.455 91.1843 109.642 91.6136 109.642C92.0243 109.642 92.4023 109.451 92.7476 109.068L92.7756 108.298L92.7336 105.89C92.3696 105.722 92.0243 105.638 91.6976 105.638ZM98.9267 104.364C99.6454 104.364 100.205 104.527 100.607 104.854C101.017 105.171 101.223 105.619 101.223 106.198C101.223 106.366 101.195 106.898 101.139 107.794C101.129 108.055 101.115 108.326 101.097 108.606C101.078 108.877 101.069 109.11 101.069 109.306C101.069 109.465 101.092 109.577 101.139 109.642C101.185 109.698 101.269 109.726 101.391 109.726C101.484 109.726 101.605 109.707 101.755 109.67L101.895 109.782L101.727 110.762C101.428 110.958 101.087 111.075 100.705 111.112C100.425 111.084 100.191 110.986 100.005 110.818C99.8181 110.641 99.6921 110.398 99.6267 110.09H99.5287C99.0621 110.585 98.5814 110.93 98.0867 111.126C97.4147 111.117 96.8874 110.939 96.5047 110.594C96.1221 110.249 95.9307 109.777 95.9307 109.18C95.9307 108.713 96.0474 108.349 96.2807 108.088C96.5234 107.817 96.8874 107.635 97.3727 107.542L99.5147 107.136V106.562C99.5147 105.955 99.2161 105.652 98.6187 105.652C98.3294 105.652 98.0214 105.717 97.6947 105.848C97.3774 105.979 97.0181 106.184 96.6167 106.464L96.4767 106.38L96.2667 105.148C96.6681 104.896 97.0974 104.705 97.5547 104.574C98.0121 104.434 98.4694 104.364 98.9267 104.364ZM98.0167 108.396C97.8674 108.433 97.7554 108.499 97.6807 108.592C97.6154 108.676 97.5827 108.807 97.5827 108.984C97.5827 109.227 97.6481 109.418 97.7787 109.558C97.9094 109.689 98.0914 109.754 98.3247 109.754C98.6887 109.754 99.0714 109.539 99.4727 109.11L99.5007 108.074L98.0167 108.396ZM107.027 106.94C107.036 106.613 106.962 106.361 106.803 106.184C106.654 105.997 106.434 105.904 106.145 105.904C105.725 105.904 105.277 106.105 104.801 106.506V108.13L104.885 111H103.023L103.121 108.312L103.051 104.616L104.815 104.462V105.414H104.913C105.426 104.947 105.986 104.611 106.593 104.406C107.302 104.406 107.844 104.569 108.217 104.896C108.59 105.213 108.768 105.675 108.749 106.282L108.707 108.144L108.791 111H106.915L107.027 106.94ZM113.135 104.364C114.087 104.364 114.815 104.644 115.319 105.204C115.823 105.764 116.075 106.571 116.075 107.626C116.075 108.765 115.804 109.637 115.263 110.244C114.722 110.841 113.942 111.14 112.925 111.14C111.973 111.14 111.245 110.86 110.741 110.3C110.237 109.74 109.985 108.933 109.985 107.878C109.985 106.739 110.256 105.871 110.797 105.274C111.338 104.667 112.118 104.364 113.135 104.364ZM113.009 105.624C112.561 105.624 112.234 105.773 112.029 106.072C111.833 106.371 111.735 106.851 111.735 107.514C111.735 108.373 111.838 108.984 112.043 109.348C112.248 109.712 112.584 109.894 113.051 109.894C113.499 109.894 113.821 109.749 114.017 109.46C114.222 109.161 114.325 108.676 114.325 108.004C114.325 107.155 114.218 106.548 114.003 106.184C113.798 105.811 113.466 105.624 113.009 105.624ZM119.535 104.378C120.17 104.378 120.767 104.485 121.327 104.7L121.075 106.072L120.851 106.142C120.58 105.965 120.31 105.829 120.039 105.736C119.768 105.643 119.53 105.596 119.325 105.596C119.101 105.596 118.924 105.657 118.793 105.778C118.662 105.89 118.597 106.03 118.597 106.198C118.597 106.394 118.681 106.553 118.849 106.674C119.026 106.795 119.302 106.931 119.675 107.08C120.048 107.229 120.356 107.374 120.599 107.514C120.842 107.654 121.047 107.85 121.215 108.102C121.392 108.345 121.481 108.648 121.481 109.012C121.481 109.385 121.383 109.735 121.187 110.062C121 110.379 120.711 110.641 120.319 110.846C119.927 111.042 119.446 111.14 118.877 111.14C118.205 111.14 117.51 111 116.791 110.72L117.001 109.264L117.183 109.152C117.472 109.395 117.794 109.591 118.149 109.74C118.504 109.88 118.816 109.95 119.087 109.95C119.339 109.95 119.535 109.889 119.675 109.768C119.815 109.637 119.885 109.483 119.885 109.306C119.885 109.11 119.796 108.951 119.619 108.83C119.451 108.709 119.18 108.573 118.807 108.424C118.424 108.256 118.112 108.107 117.869 107.976C117.626 107.836 117.416 107.64 117.239 107.388C117.071 107.136 116.987 106.823 116.987 106.45C116.987 105.843 117.216 105.349 117.673 104.966C118.13 104.574 118.751 104.378 119.535 104.378ZM37.7242 122.94C37.7335 122.613 37.6589 122.361 37.5002 122.184C37.3509 121.997 37.1315 121.904 36.8422 121.904C36.4222 121.904 35.9742 122.105 35.4982 122.506V124.13L35.5822 127H33.7202L33.8182 124.312L33.7482 120.616L35.5122 120.462V121.414H35.6102C36.1235 120.947 36.6835 120.611 37.2902 120.406C37.9995 120.406 38.5409 120.569 38.9142 120.896C39.2875 121.213 39.4649 121.675 39.4462 122.282L39.4042 124.144L39.4882 127H37.6122L37.7242 122.94ZM46.1704 123.976L42.3904 124.004C42.4744 125.171 43.067 125.754 44.1684 125.754C44.747 125.754 45.391 125.591 46.1004 125.264L46.2544 125.362L45.9744 126.748C45.265 127.009 44.5977 127.14 43.9724 127.14C42.9457 127.14 42.1384 126.841 41.5504 126.244C40.9717 125.647 40.6824 124.821 40.6824 123.766C40.6824 122.721 40.967 121.895 41.5364 121.288C42.1057 120.672 42.8757 120.364 43.8464 120.364C44.677 120.364 45.3164 120.593 45.7644 121.05C46.2217 121.498 46.4504 122.128 46.4504 122.94C46.4504 123.155 46.427 123.425 46.3804 123.752L46.1704 123.976ZM44.8264 122.73C44.8264 122.357 44.7424 122.077 44.5744 121.89C44.4064 121.694 44.159 121.596 43.8324 121.596C43.4684 121.596 43.165 121.717 42.9224 121.96C42.6797 122.193 42.5164 122.534 42.4324 122.982L44.7984 122.926L44.8264 122.73ZM53.9499 125.782L53.7819 126.762C53.4365 126.986 53.0819 127.103 52.7179 127.112C52.4472 127.065 52.2232 126.958 52.0459 126.79C51.8685 126.622 51.7332 126.379 51.6399 126.062H51.5139C50.9819 126.585 50.4312 126.925 49.8619 127.084C49.1525 127.084 48.6112 126.925 48.2379 126.608C47.8739 126.281 47.6965 125.815 47.7059 125.208L47.7339 123.556L47.6639 120.616L49.4699 120.462L49.4279 124.592C49.4185 124.919 49.4839 125.166 49.6239 125.334C49.7639 125.502 49.9739 125.586 50.2539 125.586C50.6645 125.586 51.0705 125.404 51.4719 125.04V120.616L53.2499 120.462L53.1239 125.306C53.1239 125.455 53.1472 125.563 53.1939 125.628C53.2499 125.693 53.3339 125.726 53.4459 125.726C53.5485 125.726 53.6745 125.707 53.8239 125.67L53.9499 125.782ZM58.5643 120.476C58.6483 120.476 58.765 120.485 58.9143 120.504V122.226L58.7183 122.296C58.5596 122.231 58.387 122.198 58.2003 122.198C57.659 122.198 57.169 122.548 56.7303 123.248V124.13L56.8283 127H54.9663L55.0783 124.312L54.9943 120.616L56.7583 120.462L56.7443 121.736H56.8563C57.3136 120.896 57.883 120.476 58.5643 120.476ZM62.2588 120.364C62.9774 120.364 63.5374 120.527 63.9388 120.854C64.3494 121.171 64.5548 121.619 64.5548 122.198C64.5548 122.366 64.5268 122.898 64.4708 123.794C64.4614 124.055 64.4474 124.326 64.4288 124.606C64.4101 124.877 64.4008 125.11 64.4008 125.306C64.4008 125.465 64.4241 125.577 64.4708 125.642C64.5174 125.698 64.6014 125.726 64.7228 125.726C64.8161 125.726 64.9374 125.707 65.0868 125.67L65.2268 125.782L65.0588 126.762C64.7601 126.958 64.4194 127.075 64.0368 127.112C63.7568 127.084 63.5234 126.986 63.3368 126.818C63.1501 126.641 63.0241 126.398 62.9588 126.09H62.8608C62.3941 126.585 61.9134 126.93 61.4188 127.126C60.7468 127.117 60.2194 126.939 59.8368 126.594C59.4541 126.249 59.2628 125.777 59.2628 125.18C59.2628 124.713 59.3794 124.349 59.6128 124.088C59.8554 123.817 60.2194 123.635 60.7048 123.542L62.8468 123.136V122.562C62.8468 121.955 62.5481 121.652 61.9508 121.652C61.6614 121.652 61.3534 121.717 61.0268 121.848C60.7094 121.979 60.3501 122.184 59.9488 122.464L59.8088 122.38L59.5988 121.148C60.0001 120.896 60.4294 120.705 60.8868 120.574C61.3441 120.434 61.8014 120.364 62.2588 120.364ZM61.3488 124.396C61.1994 124.433 61.0874 124.499 61.0128 124.592C60.9474 124.676 60.9148 124.807 60.9148 124.984C60.9148 125.227 60.9801 125.418 61.1108 125.558C61.2414 125.689 61.4234 125.754 61.6568 125.754C62.0208 125.754 62.4034 125.539 62.8048 125.11L62.8328 124.074L61.3488 124.396ZM66.563 124.312L66.493 120.616L68.327 120.462L68.243 124.13L68.327 127H66.465L66.563 124.312ZM67.445 117.298C67.7343 117.298 67.9583 117.382 68.117 117.55C68.285 117.718 68.369 117.951 68.369 118.25C68.369 118.567 68.2803 118.819 68.103 119.006C67.9257 119.193 67.683 119.286 67.375 119.286C67.067 119.286 66.829 119.202 66.661 119.034C66.5023 118.866 66.423 118.628 66.423 118.32C66.423 118.012 66.5117 117.765 66.689 117.578C66.8757 117.391 67.1277 117.298 67.445 117.298ZM72.2714 120.378C72.9061 120.378 73.5034 120.485 74.0634 120.7L73.8114 122.072L73.5874 122.142C73.3167 121.965 73.0461 121.829 72.7754 121.736C72.5047 121.643 72.2667 121.596 72.0614 121.596C71.8374 121.596 71.6601 121.657 71.5294 121.778C71.3987 121.89 71.3334 122.03 71.3334 122.198C71.3334 122.394 71.4174 122.553 71.5854 122.674C71.7627 122.795 72.0381 122.931 72.4114 123.08C72.7847 123.229 73.0927 123.374 73.3354 123.514C73.5781 123.654 73.7834 123.85 73.9514 124.102C74.1287 124.345 74.2174 124.648 74.2174 125.012C74.2174 125.385 74.1194 125.735 73.9234 126.062C73.7367 126.379 73.4474 126.641 73.0554 126.846C72.6634 127.042 72.1827 127.14 71.6134 127.14C70.9414 127.14 70.2461 127 69.5274 126.72L69.7374 125.264L69.9194 125.152C70.2087 125.395 70.5307 125.591 70.8854 125.74C71.2401 125.88 71.5527 125.95 71.8234 125.95C72.0754 125.95 72.2714 125.889 72.4114 125.768C72.5514 125.637 72.6214 125.483 72.6214 125.306C72.6214 125.11 72.5327 124.951 72.3554 124.83C72.1874 124.709 71.9167 124.573 71.5434 124.424C71.1607 124.256 70.8481 124.107 70.6054 123.976C70.3627 123.836 70.1527 123.64 69.9754 123.388C69.8074 123.136 69.7234 122.823 69.7234 122.45C69.7234 121.843 69.9521 121.349 70.4094 120.966C70.8667 120.574 71.4874 120.378 72.2714 120.378ZM82.6196 123.976L78.8396 124.004C78.9236 125.171 79.5163 125.754 80.6176 125.754C81.1963 125.754 81.8403 125.591 82.5496 125.264L82.7036 125.362L82.4236 126.748C81.7143 127.009 81.0469 127.14 80.4216 127.14C79.3949 127.14 78.5876 126.841 77.9996 126.244C77.4209 125.647 77.1316 124.821 77.1316 123.766C77.1316 122.721 77.4163 121.895 77.9856 121.288C78.5549 120.672 79.3249 120.364 80.2956 120.364C81.1263 120.364 81.7656 120.593 82.2136 121.05C82.6709 121.498 82.8996 122.128 82.8996 122.94C82.8996 123.155 82.8763 123.425 82.8296 123.752L82.6196 123.976ZM81.2756 122.73C81.2756 122.357 81.1916 122.077 81.0236 121.89C80.8556 121.694 80.6083 121.596 80.2816 121.596C79.9176 121.596 79.6143 121.717 79.3716 121.96C79.1289 122.193 78.9656 122.534 78.8816 122.982L81.2476 122.926L81.2756 122.73ZM91.7342 124.13L91.7762 125.306C91.7762 125.465 91.7949 125.577 91.8322 125.642C91.8789 125.698 91.9582 125.726 92.0702 125.726C92.1729 125.726 92.2989 125.707 92.4482 125.67L92.5742 125.782L92.4202 126.762C92.1029 126.958 91.7576 127.075 91.3842 127.112C91.0949 127.084 90.8522 126.986 90.6562 126.818C90.4602 126.65 90.3249 126.421 90.2502 126.132H90.1382C89.6809 126.552 89.2142 126.874 88.7382 127.098C87.8236 127.098 87.1142 126.809 86.6102 126.23C86.1062 125.642 85.8542 124.83 85.8542 123.794C85.8542 122.693 86.1436 121.848 86.7222 121.26C87.3009 120.672 88.1036 120.378 89.1302 120.378C89.4009 120.378 89.6996 120.406 90.0262 120.462L89.9982 117.312L91.8462 117.172L91.7342 124.13ZM89.0042 121.638C88.0709 121.638 87.6042 122.231 87.6042 123.416C87.6042 124.153 87.7162 124.709 87.9402 125.082C88.1642 125.455 88.4909 125.642 88.9202 125.642C89.3309 125.642 89.7089 125.451 90.0542 125.068L90.0822 124.298L90.0402 121.89C89.6762 121.722 89.3309 121.638 89.0042 121.638ZM96.3734 120.364C97.3254 120.364 98.0534 120.644 98.5574 121.204C99.0614 121.764 99.3134 122.571 99.3134 123.626C99.3134 124.765 99.0427 125.637 98.5014 126.244C97.96 126.841 97.1807 127.14 96.1634 127.14C95.2114 127.14 94.4834 126.86 93.9794 126.3C93.4754 125.74 93.2234 124.933 93.2234 123.878C93.2234 122.739 93.494 121.871 94.0354 121.274C94.5767 120.667 95.356 120.364 96.3734 120.364ZM96.2474 121.624C95.7994 121.624 95.4727 121.773 95.2674 122.072C95.0714 122.371 94.9734 122.851 94.9734 123.514C94.9734 124.373 95.076 124.984 95.2814 125.348C95.4867 125.712 95.8227 125.894 96.2894 125.894C96.7374 125.894 97.0594 125.749 97.2554 125.46C97.4607 125.161 97.5634 124.676 97.5634 124.004C97.5634 123.155 97.456 122.548 97.2414 122.184C97.036 121.811 96.7047 121.624 96.2474 121.624ZM105.629 123.976L101.849 124.004C101.933 125.171 102.526 125.754 103.627 125.754C104.206 125.754 104.85 125.591 105.559 125.264L105.713 125.362L105.433 126.748C104.724 127.009 104.057 127.14 103.431 127.14C102.405 127.14 101.597 126.841 101.009 126.244C100.431 125.647 100.141 124.821 100.141 123.766C100.141 122.721 100.426 121.895 100.995 121.288C101.565 120.672 102.335 120.364 103.305 120.364C104.136 120.364 104.775 120.593 105.223 121.05C105.681 121.498 105.909 122.128 105.909 122.94C105.909 123.155 105.886 123.425 105.839 123.752L105.629 123.976ZM104.285 122.73C104.285 122.357 104.201 122.077 104.033 121.89C103.865 121.694 103.618 121.596 103.291 121.596C102.927 121.596 102.624 121.717 102.381 121.96C102.139 122.193 101.975 122.534 101.891 122.982L104.257 122.926L104.285 122.73ZM111.197 122.94C111.206 122.613 111.132 122.361 110.973 122.184C110.824 121.997 110.604 121.904 110.315 121.904C109.895 121.904 109.447 122.105 108.971 122.506V124.13L109.055 127H107.193L107.291 124.312L107.221 120.616L108.985 120.462V121.414H109.083C109.596 120.947 110.156 120.611 110.763 120.406C111.472 120.406 112.014 120.569 112.387 120.896C112.76 121.213 112.938 121.675 112.919 122.282L112.877 124.144L112.961 127H111.085L111.197 122.94ZM117.277 120.364C117.585 120.364 117.888 120.397 118.187 120.462C118.495 120.518 118.766 120.602 118.999 120.714L118.691 122.198L118.537 122.268C118.061 122.007 117.636 121.876 117.263 121.876C116.834 121.876 116.502 122.03 116.269 122.338C116.036 122.646 115.919 123.085 115.919 123.654C115.919 124.307 116.045 124.807 116.297 125.152C116.549 125.497 116.908 125.67 117.375 125.67C117.795 125.67 118.262 125.553 118.775 125.32L118.915 125.432L118.733 126.874C118.173 127.051 117.599 127.14 117.011 127.14C116.115 127.14 115.415 126.851 114.911 126.272C114.407 125.684 114.155 124.867 114.155 123.822C114.155 122.739 114.43 121.895 114.981 121.288C115.532 120.672 116.297 120.364 117.277 120.364ZM117.263 127.672L117.739 127.938C117.944 128.05 118.089 128.171 118.173 128.302C118.266 128.442 118.313 128.596 118.313 128.764C118.313 129.072 118.192 129.324 117.949 129.52C117.706 129.716 117.389 129.814 116.997 129.814C116.577 129.814 116.194 129.683 115.849 129.422L115.975 128.638L116.059 128.596C116.339 128.876 116.614 129.016 116.885 129.016C117.109 129.016 117.221 128.918 117.221 128.722C117.221 128.657 117.202 128.601 117.165 128.554C117.128 128.517 117.067 128.479 116.983 128.442L116.297 128.05L116.619 126.636H117.515L117.263 127.672ZM122.415 120.364C123.134 120.364 123.694 120.527 124.095 120.854C124.506 121.171 124.711 121.619 124.711 122.198C124.711 122.366 124.683 122.898 124.627 123.794C124.618 124.055 124.604 124.326 124.585 124.606C124.566 124.877 124.557 125.11 124.557 125.306C124.557 125.465 124.58 125.577 124.627 125.642C124.674 125.698 124.758 125.726 124.879 125.726C124.972 125.726 125.094 125.707 125.243 125.67L125.383 125.782L125.215 126.762C124.916 126.958 124.576 127.075 124.193 127.112C123.913 127.084 123.68 126.986 123.493 126.818C123.306 126.641 123.18 126.398 123.115 126.09H123.017C122.55 126.585 122.07 126.93 121.575 127.126C120.903 127.117 120.376 126.939 119.993 126.594C119.61 126.249 119.419 125.777 119.419 125.18C119.419 124.713 119.536 124.349 119.769 124.088C120.012 123.817 120.376 123.635 120.861 123.542L123.003 123.136V122.562C123.003 121.955 122.704 121.652 122.107 121.652C121.818 121.652 121.51 121.717 121.183 121.848C120.866 121.979 120.506 122.184 120.105 122.464L119.965 122.38L119.755 121.148C120.156 120.896 120.586 120.705 121.043 120.574C121.5 120.434 121.958 120.364 122.415 120.364ZM121.505 124.396C121.356 124.433 121.244 124.499 121.169 124.592C121.104 124.676 121.071 124.807 121.071 124.984C121.071 125.227 121.136 125.418 121.267 125.558C121.398 125.689 121.58 125.754 121.813 125.754C122.177 125.754 122.56 125.539 122.961 125.11L122.989 124.074L121.505 124.396ZM128.777 120.378C129.412 120.378 130.009 120.485 130.569 120.7L130.317 122.072L130.093 122.142C129.823 121.965 129.552 121.829 129.281 121.736C129.011 121.643 128.773 121.596 128.567 121.596C128.343 121.596 128.166 121.657 128.035 121.778C127.905 121.89 127.839 122.03 127.839 122.198C127.839 122.394 127.923 122.553 128.091 122.674C128.269 122.795 128.544 122.931 128.917 123.08C129.291 123.229 129.599 123.374 129.841 123.514C130.084 123.654 130.289 123.85 130.457 124.102C130.635 124.345 130.723 124.648 130.723 125.012C130.723 125.385 130.625 125.735 130.429 126.062C130.243 126.379 129.953 126.641 129.561 126.846C129.169 127.042 128.689 127.14 128.119 127.14C127.447 127.14 126.752 127 126.033 126.72L126.243 125.264L126.425 125.152C126.715 125.395 127.037 125.591 127.391 125.74C127.746 125.88 128.059 125.95 128.329 125.95C128.581 125.95 128.777 125.889 128.917 125.768C129.057 125.637 129.127 125.483 129.127 125.306C129.127 125.11 129.039 124.951 128.861 124.83C128.693 124.709 128.423 124.573 128.049 124.424C127.667 124.256 127.354 124.107 127.111 123.976C126.869 123.836 126.659 123.64 126.481 123.388C126.313 123.136 126.229 122.823 126.229 122.45C126.229 121.843 126.458 121.349 126.915 120.966C127.373 120.574 127.993 120.378 128.777 120.378ZM132.573 125.11C132.862 125.11 133.086 125.194 133.245 125.362C133.413 125.53 133.497 125.763 133.497 126.062C133.497 126.379 133.408 126.631 133.231 126.818C133.053 127.005 132.811 127.098 132.503 127.098C132.195 127.098 131.957 127.014 131.789 126.846C131.63 126.678 131.551 126.44 131.551 126.132C131.551 125.824 131.639 125.577 131.817 125.39C132.003 125.203 132.255 125.11 132.573 125.11Z" fill="white"/>
<defs>
<filter id="filter0_b_136:22341" x="3" y="67" width="161" height="97" filterUnits="userSpaceOnUse" color-interpolation-filters="sRGB">
<feFlood flood-opacity="0" result="BackgroundImageFix"/>
<feGaussianBlur in="BackgroundImage" stdDeviation="5"/>
<feComposite in2="SourceAlpha" operator="in" result="effect1_backgroundBlur_136:22341"/>
<feBlend mode="normal" in="SourceGraphic" in2="effect1_backgroundBlur_136:22341" result="shape"/>
</filter>
</defs>
</svg>
