<svg width="167" height="167" viewBox="0 0 167 167" fill="none" xmlns="http://www.w3.org/2000/svg">
<mask id="mask0_136:22623" style="mask-type:alpha" maskUnits="userSpaceOnUse" x="0" y="0" width="167" height="167">
<rect x="1" y="1" width="165" height="165" rx="8" fill="#5988D6" stroke="#EDE6FC" stroke-opacity="0.3"/>
</mask>
<g mask="url(#mask0_136:22623)">
<rect x="1" y="1" width="165" height="165" rx="8" fill="#D9917A" stroke="#EDE6FC" stroke-opacity="0.3"/>
<g clip-path="url(#clip0_136:22623)">
<path d="M135.152 97.7255L130.972 102.137L130.175 102.961L130.128 103.017C121.098 97.4429 112.391 89.1102 110.194 86.9644C109.001 85.9072 107.986 84.6651 107.188 83.2858C105.261 79.8699 102.657 73.5 100.842 68.8301L100.603 69.8453L97.3107 83.6799C99.2583 86.6776 100.915 89.8544 102.259 93.1671C103.147 95.3529 103.875 97.6002 104.437 99.8913L85.6497 110.943V111.222L85.3949 111.086L85.1481 111.234V110.951L65.9508 100.628C66.5425 97.7739 67.3803 94.9766 68.455 92.2673C68.455 92.2315 68.4829 92.1877 68.5028 92.1479C69.6076 89.3812 70.9281 86.7055 72.4521 84.1457L68.5943 70.2115L68.0728 68.3364L67.7941 67.3252C65.9588 71.8836 62.5748 80.0092 60.2298 84.0064C59.4081 85.3712 58.3701 86.5934 57.1564 87.6253C54.9269 89.7273 46.0409 97.8888 36.9041 103.311L36.072 102.395L31.9753 97.9087L52.7969 78.3332L59.8357 58.2122C63.8846 49.5213 66.9222 49.3979 66.9222 49.3979C67.4936 48.9137 68.1405 48.5264 68.8372 48.2513L69.5458 47.9646C71.0785 47.339 72.5658 46.6073 73.9968 45.775C75.9017 44.6708 77.6436 43.3067 79.1723 41.7221C79.3803 40.0045 79.4932 38.2767 79.5107 36.5466C79.5107 35.6946 79.5107 35.1133 79.5107 35.1133L83.9379 35.5712L88.341 34.9461C88.341 34.9461 88.3808 36.0927 88.4883 37.5379C88.5879 38.8358 88.7312 40.3725 88.9502 41.539C89.6635 42.2409 90.4302 42.8864 91.2433 43.4699C93.7882 45.2703 96.5854 46.6844 99.5441 47.666C100.156 47.881 100.735 48.1812 101.264 48.5578C101.901 48.7171 104.644 49.8159 108.032 57.4876L114.685 77.732L135.152 97.7255Z" fill="#5E4453"/>
<path d="M91.2592 43.4938C90.5466 44.29 88.3649 46.0138 82.1861 47.4351C73.8256 49.3501 69.5259 47.9965 69.5259 47.9965C71.0586 47.3708 72.5458 46.6392 73.9769 45.8068C75.8818 44.7026 77.6237 43.3386 79.1524 41.754C79.3604 40.0363 79.4733 38.3085 79.4908 36.5784L88.4883 37.5697C88.5878 38.8676 88.7312 40.4044 88.9501 41.5708C89.6689 42.2706 90.4409 42.9135 91.2592 43.4938Z" fill="#3F2935"/>
<path d="M95.9652 73.3766C93.031 74.6744 87.9072 72.1583 83.5558 73.5597C79.2044 74.9611 77.0466 78.994 76.2025 84.1457C75.3585 89.2974 77.5164 96.782 77.5164 96.782C77.5164 96.782 73.6267 97.8609 68.4989 92.1758C69.6038 89.409 70.9242 86.7334 72.4483 84.1736L68.0689 68.3643L67.7903 67.353C67.7903 67.353 66.7472 61.9466 69.3828 57.826C69.3828 57.826 68.5865 62.2332 70.0994 66.2582C71.6122 70.2832 75.2391 70.2832 79.0093 70.1916C82.7795 70.1001 82.7238 68.8062 86.9717 69.7218C94.0741 71.2506 96.849 70.5659 98.5171 68.2329C99.5881 66.6961 98.8953 72.0787 95.9652 73.3766Z" fill="#3F2935"/>
<path d="M75.7566 30.3558C75.7566 30.3558 74.7494 28.2976 73.4237 28.3653C72.0979 28.4329 71.652 31.2755 73.5192 33.4851C75.3864 35.6946 77.1023 34.7431 77.1023 34.7431L75.7566 30.3558Z" fill="#EA8D78"/>
<path d="M92.4059 30.0373C92.4059 30.0373 93.3335 27.9432 94.6632 27.9711C95.993 27.999 96.5463 30.8137 94.7628 33.0909C92.9792 35.3682 91.2434 34.4883 91.2434 34.4883L92.4059 30.0373Z" fill="#EA8D78"/>
<path d="M93.0031 25.7894C93.1584 34.0066 88.2615 41.3559 84.36 41.4315C79.6263 41.5231 75.048 33.8036 74.9007 26.1358C74.7932 20.4666 78.1931 15.7847 83.8663 15.6931C89.5395 15.6015 92.8916 20.1202 93.0031 25.7894Z" fill="#FFA488"/>
<path d="M76.9309 26.5458C77.8433 26.301 78.7761 26.1398 79.7177 26.0641C81.5252 25.9287 82.1901 26.1198 82.1901 26.1198C82.1901 26.1198 81.8397 25.1046 80.3229 25.1365C78.8061 25.1683 76.9309 26.5458 76.9309 26.5458Z" fill="#2F2A00"/>
<path d="M82.0826 28.7673C82.0826 28.7673 81.0157 27.3341 79.6461 27.3182C78.2766 27.3023 77.0583 28.8629 77.0583 28.8629C77.0583 28.8629 77.4326 29.261 79.3794 29.3605C81.3262 29.4601 82.0826 28.7673 82.0826 28.7673Z" fill="#EA8D78"/>
<path d="M79.6064 29.2451C78.7526 29.2482 77.9031 29.1234 77.0863 28.8748C76.8691 28.9793 76.634 29.0414 76.3936 29.058C76.7261 29.1672 77.0812 29.1892 77.4247 29.1217C78.0842 29.5434 78.8609 29.7441 79.6422 29.695C81.3382 29.695 82.1066 28.7753 82.1066 28.7753C81.309 29.0837 80.4615 29.2429 79.6064 29.2451Z" fill="#2F2A00"/>
<path d="M90.901 26.2791C89.9851 26.0706 89.0524 25.944 88.1141 25.9009C86.3027 25.8372 85.6458 26.0522 85.6458 26.0522C85.6458 26.0522 85.9523 25.025 87.4731 24.9971C88.9939 24.9693 90.901 26.2791 90.901 26.2791Z" fill="#2F2A00"/>
<path d="M85.8408 28.6957C85.8408 28.6957 86.8481 27.2226 88.2295 27.1549C89.611 27.0873 90.873 28.6001 90.873 28.6001C90.873 28.6001 90.5147 29.0221 88.5719 29.1814C86.6291 29.3406 85.8408 28.6957 85.8408 28.6957Z" fill="#EA8D78"/>
<path d="M91.5578 28.7594C91.3163 28.7509 91.0786 28.6969 90.8571 28.6001C90.0512 28.8834 89.2068 29.0418 88.353 29.0699C87.5062 29.0903 86.6629 28.9553 85.8647 28.6718C85.8647 28.6718 86.661 29.5397 88.361 29.4959C89.1433 29.5148 89.9114 29.2848 90.5546 28.839C90.8904 28.8967 91.2353 28.8694 91.5578 28.7594Z" fill="#2F2A00"/>
<path d="M82.7834 33.6961C83.1892 33.9411 83.64 34.1022 84.1092 34.1698C84.586 34.124 85.0394 33.9415 85.415 33.6443C85.415 33.6443 84.8576 33.5886 84.1928 33.5726C83.7203 33.572 83.2487 33.6133 82.7834 33.6961Z" fill="#EA8D78"/>
<path d="M84.4276 36.244C85.2506 36.2043 86.0597 36.0169 86.8163 35.6906C86.156 35.6111 85.4905 35.5818 84.8257 35.603C84.804 35.7277 84.739 35.8407 84.6421 35.9222C84.5453 36.0037 84.4228 36.0483 84.2962 36.0483C84.1696 36.0483 84.0471 36.0037 83.9503 35.9222C83.8534 35.8407 83.7884 35.7277 83.7667 35.603C83.1 35.6071 82.4346 35.6617 81.7761 35.7663C82.5506 36.0674 83.3737 36.2239 84.2046 36.2281H84.3838L84.4276 36.244Z" fill="#743F3D"/>
<path d="M82.2737 36.4152C82.2737 36.4152 82.5842 36.8571 83.7308 37.1358C84.8774 37.4145 85.7214 36.9407 86.3982 36.5028C86.198 36.8553 85.9221 37.1588 85.5902 37.3916C85.2583 37.6243 84.8789 37.7803 84.4793 37.8484C83.1854 38.0077 82.3215 36.5904 82.2737 36.4152Z" fill="#EA8D78"/>
<path d="M87.497 20.5661C86.0527 19.889 84.464 19.5773 82.8709 19.6584C80.2154 19.7898 78.1532 21.864 77.3848 23.333C76.6164 24.8021 75.8361 25.2201 75.8361 25.2201C75.8361 25.2201 76.079 28.7793 75.3982 30.2961C75.3982 30.2961 74.4785 28.7594 73.4076 28.3812C72.8616 26.1883 72.7427 23.9108 73.0572 21.6729C73.6106 18.2132 77.2773 14.5067 82.214 13.9812C87.1507 13.4557 89.6429 15.8723 89.6429 15.8723C89.6429 15.8723 92.9194 17.7196 93.8909 20.8567C94.8623 23.9939 94.0302 28.0667 94.0302 28.0667C94.0302 28.0667 93.1862 28.4927 92.6447 29.9657C92.6447 29.9657 91.0523 27.577 91.4504 24.9215C91.4783 24.9215 90.8373 20.6816 87.497 20.5661Z" fill="#743F3D"/>
<path d="M90.4352 17.6439C89.4479 17.9544 83.066 14.5027 83.066 14.5027C83.0569 14.0707 83.1065 13.6395 83.2133 13.2208C83.3607 12.5527 83.6766 11.9334 84.1309 11.4219C84.5853 10.9104 85.163 10.5237 85.809 10.2986C86.0893 10.1996 86.3768 10.1224 86.669 10.0677C87.7731 9.89699 88.9023 10.1128 89.8656 10.6786C90.829 11.2444 91.5673 12.1256 91.956 13.173C92.6328 15.1516 91.4265 17.3333 90.4352 17.6439Z" fill="#743F3D"/>
<path d="M82.1742 26.1198C82.6245 27.0454 82.9499 28.0268 83.1416 29.0381C83.3538 30.0311 83.3727 31.0556 83.1973 32.0558C83.1973 32.0558 82.8589 27.0833 80.3269 26.0283C80.9441 26.0067 81.5621 26.0374 82.1742 26.1198Z" fill="#EA8D78"/>
<path d="M87.4972 20.5661C87.4972 20.5661 84.3481 19.511 81.6687 20.6775C78.9894 21.844 79.0491 23.544 77.1859 23.6873L76.947 23.2414C76.947 23.2414 77.4447 23.337 78.5793 22.4452C79.7139 21.5534 82.1106 18.3326 87.4972 20.5661Z" fill="#743F3D"/>
<path d="M74.6896 114.594C74.6896 114.594 72.1138 114.92 71.214 115.096C71.214 115.096 67.631 114.582 66.1062 114.646C64.5814 114.709 63.7652 116.509 62.9212 118.46C62.0772 120.41 58.7569 122.497 57.5904 123.711C56.4239 124.925 56.396 126.709 56.396 127.087C56.396 127.465 55.6635 128.54 56.0616 129.424C56.4597 130.308 56.8977 130.009 57.256 129.91C57.6143 129.81 57.889 129.185 57.889 129.185C58.3441 129.215 58.801 129.172 59.2426 129.058C59.6407 128.878 59.3023 128.787 60.206 128.727C60.8733 128.71 61.5324 128.575 62.1528 128.329C62.7062 128.102 66.4963 124.169 68.5466 123.122C70.597 122.075 73.766 122.325 73.766 122.325L74.6896 114.594Z" fill="#FFA488"/>
<path d="M132.883 117.265C126.764 120.689 116.627 122.043 104.899 122.747C103.468 122.835 102.018 122.913 100.547 122.982L100.746 128.07L98.2781 128.038C93.4409 127.983 82.1582 127.839 70.4097 127.604C51.3876 127.226 36.2591 122.504 31.8877 118.296C30.7982 117.231 29.969 115.928 29.4643 114.49C28.9596 113.052 28.793 111.517 28.9775 110.004C29.3318 107.615 30.7491 105.346 33.6474 103.92C34.7874 103.412 35.9671 102.998 37.1748 102.682C42.2906 101.217 51.5429 99.4454 61.7467 99.3499L62.2085 99.318C63.5581 97.2956 68.5306 92.1758 68.5306 92.1758C71.0284 94.1607 73.8211 95.743 76.8075 96.8656C79.3356 97.7853 82.2219 98.3825 85.1441 98.0281C93.5882 97.009 102.068 92.3032 102.068 92.3032C103.756 94.031 105.412 98.0122 105.412 98.0122C113.864 98.0879 127.862 100.656 130.892 102.161L130.952 102.196C132.901 102.716 134.628 103.858 135.868 105.449C138.54 108.96 138.361 114.2 132.883 117.265Z" fill="#E9835B"/>
<path d="M31.9554 97.9366C30.9681 97.7749 29.9726 97.6673 28.9735 97.6141C28.1215 97.6141 26.4017 98.1754 25.4263 98.3387C24.4509 98.5019 23.9692 98.5377 23.997 98.685C24.0249 98.8323 24.3474 99.1906 25.4223 99.3419C26.4972 99.4932 27.4129 99.2026 27.9902 99.1946C28.5674 99.1866 28.6949 99.5211 28.6949 99.5211C28.4743 100.013 28.1345 100.442 27.7063 100.769C27.278 101.097 26.7749 101.312 26.2424 101.396C24.3713 101.727 23.6347 101.448 23.5073 101.181C23.3799 100.914 24.1762 99.0951 23.9652 98.4183C23.7542 97.7415 23.4436 97.7932 23.0495 98.8721C22.6554 99.951 21.9666 100.99 21.9825 101.699C21.9984 102.407 23.2008 103.017 23.2008 103.017C23.2008 103.017 20.8798 102.742 20.187 103.391C19.4943 104.04 20.8798 104.06 21.9786 104.159C23.0774 104.259 24.1085 104.585 24.7654 104.498C24.7654 104.498 21.8153 104.458 21.238 104.932C20.6608 105.405 21.8392 105.728 22.9619 105.704C24.0846 105.68 25.5975 105.919 25.8403 105.915C25.8403 105.915 23.2127 106.233 23.3003 106.89C23.3879 107.547 23.8656 107.097 25.2909 107.241C26.6239 107.424 27.9806 107.323 29.2721 106.946C30.6297 106.548 36.0401 102.411 36.0401 102.411L31.9554 97.9366Z" fill="#FFA488"/>
<path d="M122.846 104.382C111.607 105.975 80.136 114.032 80.136 114.032C80.136 114.032 63.5583 106.444 52.4468 104.665C41.8886 102.977 35.7258 103.817 37.1431 102.674C42.2589 101.209 51.5112 99.4374 61.715 99.3419L62.1768 99.31C63.5264 97.2876 68.4989 92.1678 68.4989 92.1678C70.9968 94.1527 73.7894 95.7351 76.7758 96.8576C77.1739 98.7089 83.7907 107.83 88.5681 106.333C93.3455 104.836 99.6159 102.774 102.614 103.805C105.612 104.836 111.703 104.275 115.899 103.331C120.095 102.388 122.846 104.382 122.846 104.382Z" fill="#CC6A4C"/>
<path d="M130.972 102.137C130.791 102.482 130.514 102.768 130.175 102.961L130.108 103.001C121.078 97.427 112.371 89.0943 110.174 86.9485C108.981 85.8913 107.966 84.6492 107.168 83.2699C105.241 79.854 102.637 73.4841 100.822 68.8141L101.869 60.1232C101.869 60.1232 105.771 76.9437 109.891 82.3661C114.012 87.7885 130.972 102.137 130.972 102.137Z" fill="#3F2935"/>
<path d="M68.5905 70.2394L68.0689 68.3643L67.7903 67.353C65.9549 71.9115 62.5709 80.0371 60.226 84.0342C59.4043 85.399 58.3663 86.6213 57.1525 87.6531C54.9231 89.7552 46.0371 97.9166 36.9002 103.339L36.0681 102.423C36.0681 102.423 54.0592 87.056 59.3462 81.0125C64.6332 74.9691 67.858 61.7834 67.858 61.7834L68.5905 70.2394Z" fill="#3F2935"/>
<path d="M132.883 117.265C126.764 120.689 116.627 122.043 104.899 122.747C101.976 122.275 99.1416 121.359 96.4945 120.032V119.451L80.1716 114.029C80.307 114.06 82.9903 113.304 82.9903 113.304C90.4232 114.96 108.741 119.953 118.276 117.767C130.546 114.96 131.015 109.804 133.261 107.229C133.943 106.408 134.843 105.795 135.857 105.461C138.54 108.96 138.361 114.2 132.883 117.265Z" fill="#CC6A4C"/>
<path d="M96.4746 120.032C96.4746 120.032 99.0464 120.41 99.9382 120.601C99.9382 120.601 103.549 120.156 105.058 120.251C106.567 120.347 107.359 122.158 108.175 124.129C108.991 126.1 112.26 128.241 113.403 129.48C114.545 130.718 114.545 132.505 114.513 132.879C114.482 133.254 115.218 134.349 114.8 135.22C114.382 136.092 113.956 135.794 113.606 135.686C113.255 135.579 112.985 134.95 112.985 134.95C112.528 134.97 112.071 134.916 111.631 134.79C111.233 134.603 111.579 134.524 110.675 134.444C110.01 134.414 109.355 134.267 108.741 134.01C108.191 133.771 104.477 129.766 102.446 128.675C100.416 127.584 97.2469 127.768 97.2469 127.768L96.4746 120.032Z" fill="#FFA488"/>
<path d="M135.156 97.7255C136.146 97.588 137.143 97.5043 138.142 97.4747C138.994 97.5066 140.702 98.0839 141.673 98.271C142.645 98.4581 143.126 98.4979 143.099 98.6452C143.071 98.7925 142.736 99.1429 141.657 99.2742C140.578 99.4056 139.667 99.0991 139.093 99.0752C138.52 99.0513 138.385 99.3897 138.385 99.3897C138.595 99.8857 138.926 100.321 139.347 100.657C139.769 100.993 140.267 101.218 140.797 101.313C142.665 101.679 143.405 101.412 143.536 101.149C143.668 100.887 142.911 99.0513 143.138 98.3625C143.365 97.6738 143.676 97.7494 144.05 98.8363C144.424 99.9232 145.089 100.974 145.061 101.679C145.033 102.384 143.815 102.973 143.815 102.973C143.815 102.973 146.144 102.746 146.825 103.407C147.506 104.068 146.116 104.064 145.017 104.143C143.919 104.223 142.88 104.541 142.231 104.426C142.231 104.426 145.185 104.426 145.75 104.928C146.315 105.429 145.133 105.724 144.014 105.664C142.895 105.604 141.375 105.831 141.128 105.823C141.128 105.823 143.751 106.19 143.652 106.846C143.552 107.503 143.083 107.046 141.661 107.161C140.323 107.317 138.966 107.19 137.68 106.787C136.331 106.345 131.016 102.125 131.016 102.125L135.156 97.7255Z" fill="#FFA488"/>
<path d="M98.2463 128.038C93.4092 127.983 82.1265 127.839 70.378 127.604C51.3559 127.226 36.2273 122.504 31.856 118.296C30.7665 117.231 29.9372 115.928 29.4325 114.49C28.9278 113.052 28.7613 111.516 28.9458 110.004C30.5382 111.254 33.6595 113.427 39.5875 116.393C49.3255 121.266 67.3045 123.886 81.5453 125.259C95.786 126.633 97.0719 126.028 97.0719 126.028L98.2463 128.038Z" fill="#CC6A4C"/>
<path d="M88.2932 15.4264C86.3703 14.4908 83.3327 13.9135 83.3327 13.9135C83.2837 13.6852 83.2504 13.4537 83.2332 13.2208C83.3805 12.5527 83.6964 11.9334 84.1508 11.4219C84.6051 10.9104 85.1828 10.5237 85.8289 10.2986C86.1092 10.1996 86.3966 10.1224 86.6888 10.0677C86.3663 10.3981 86.0359 11.0112 86.3265 12.0344C86.8043 13.7662 90.1923 16.3659 88.2932 15.4264Z" fill="#603030"/>
<path d="M86.4859 19.0015C86.4859 19.0015 82.9427 17.6638 79.5507 19.0015C76.1587 20.3392 75.6929 23.962 74.9006 24.3203C74.9006 24.3203 75.5854 19.4633 79.2242 18.4083C82.863 17.3533 86.4859 19.0015 86.4859 19.0015Z" fill="#603030"/>
<path d="M89.1651 16.768L87.8235 19.7897C88.3619 19.5187 88.7898 19.0696 89.0344 18.5187C89.279 17.9678 89.3252 17.3491 89.1651 16.768Z" fill="#603030"/>
</g>
</g>
<g filter="url(#filter0_b_136:22623)">
<rect x="13" y="77" width="141" height="77" rx="10" fill="black" fill-opacity="0.8"/>
</g>
<path d="M33.57 120H31.89L31.75 117.27L31.428 113.798H31.288L29.272 119.048H27.802L25.968 113.798H25.842L25.492 117.088L25.296 120H23.7L24.61 110.984H26.794L27.158 112.314L28.586 116.584H28.712L30.21 112.314L30.616 110.984H32.758L33.57 120ZM39.9155 116.976L36.1355 117.004C36.2195 118.171 36.8122 118.754 37.9135 118.754C38.4922 118.754 39.1362 118.591 39.8455 118.264L39.9995 118.362L39.7195 119.748C39.0102 120.009 38.3428 120.14 37.7175 120.14C36.6908 120.14 35.8835 119.841 35.2955 119.244C34.7168 118.647 34.4275 117.821 34.4275 116.766C34.4275 115.721 34.7122 114.895 35.2815 114.288C35.8508 113.672 36.6208 113.364 37.5915 113.364C38.4222 113.364 39.0615 113.593 39.5095 114.05C39.9668 114.498 40.1955 115.128 40.1955 115.94C40.1955 116.155 40.1722 116.425 40.1255 116.752L39.9155 116.976ZM38.5715 115.73C38.5715 115.357 38.4875 115.077 38.3195 114.89C38.1515 114.694 37.9042 114.596 37.5775 114.596C37.2135 114.596 36.9102 114.717 36.6675 114.96C36.4248 115.193 36.2615 115.534 36.1775 115.982L38.5435 115.926L38.5715 115.73ZM46.911 117.13L46.953 118.306C46.953 118.465 46.9717 118.577 47.009 118.642C47.0557 118.698 47.135 118.726 47.247 118.726C47.3497 118.726 47.4757 118.707 47.625 118.67L47.751 118.782L47.597 119.762C47.2797 119.958 46.9343 120.075 46.561 120.112C46.2717 120.084 46.029 119.986 45.833 119.818C45.637 119.65 45.5017 119.421 45.427 119.132H45.315C44.8577 119.552 44.391 119.874 43.915 120.098C43.0003 120.098 42.291 119.809 41.787 119.23C41.283 118.642 41.031 117.83 41.031 116.794C41.031 115.693 41.3203 114.848 41.899 114.26C42.4777 113.672 43.2803 113.378 44.307 113.378C44.5777 113.378 44.8763 113.406 45.203 113.462L45.175 110.312L47.023 110.172L46.911 117.13ZM44.181 114.638C43.2477 114.638 42.781 115.231 42.781 116.416C42.781 117.153 42.893 117.709 43.117 118.082C43.341 118.455 43.6677 118.642 44.097 118.642C44.5077 118.642 44.8857 118.451 45.231 118.068L45.259 117.298L45.217 114.89C44.853 114.722 44.5077 114.638 44.181 114.638ZM48.9741 117.312L48.9041 113.616L50.7381 113.462L50.6541 117.13L50.7381 120H48.8761L48.9741 117.312ZM49.8561 110.298C50.1455 110.298 50.3695 110.382 50.5281 110.55C50.6961 110.718 50.7801 110.951 50.7801 111.25C50.7801 111.567 50.6915 111.819 50.5141 112.006C50.3368 112.193 50.0941 112.286 49.7861 112.286C49.4781 112.286 49.2401 112.202 49.0721 112.034C48.9135 111.866 48.8341 111.628 48.8341 111.32C48.8341 111.012 48.9228 110.765 49.1001 110.578C49.2868 110.391 49.5388 110.298 49.8561 110.298ZM55.1305 118.628C55.4292 118.628 55.7419 118.549 56.0685 118.39L56.2225 118.53L56.0405 119.636C55.5645 119.879 55.0792 120.028 54.5845 120.084C53.3245 119.953 52.6945 119.337 52.6945 118.236L52.7645 117.074L52.7505 114.666H51.8825L51.8125 114.568L51.9105 113.546H52.7365V112.468L54.4305 111.922L54.5565 112.034L54.5145 113.546H56.1805L56.2365 113.644L56.1525 114.666H54.4865L54.4025 117.802C54.4025 118.101 54.4585 118.315 54.5705 118.446C54.6825 118.567 54.8692 118.628 55.1305 118.628ZM59.791 113.364C60.5097 113.364 61.0697 113.527 61.471 113.854C61.8817 114.171 62.087 114.619 62.087 115.198C62.087 115.366 62.059 115.898 62.003 116.794C61.9937 117.055 61.9797 117.326 61.961 117.606C61.9423 117.877 61.933 118.11 61.933 118.306C61.933 118.465 61.9563 118.577 62.003 118.642C62.0497 118.698 62.1337 118.726 62.255 118.726C62.3483 118.726 62.4697 118.707 62.619 118.67L62.759 118.782L62.591 119.762C62.2923 119.958 61.9517 120.075 61.569 120.112C61.289 120.084 61.0557 119.986 60.869 119.818C60.6823 119.641 60.5563 119.398 60.491 119.09H60.393C59.9263 119.585 59.4457 119.93 58.951 120.126C58.279 120.117 57.7517 119.939 57.369 119.594C56.9863 119.249 56.795 118.777 56.795 118.18C56.795 117.713 56.9117 117.349 57.145 117.088C57.3877 116.817 57.7517 116.635 58.237 116.542L60.379 116.136V115.562C60.379 114.955 60.0803 114.652 59.483 114.652C59.1937 114.652 58.8857 114.717 58.559 114.848C58.2417 114.979 57.8823 115.184 57.481 115.464L57.341 115.38L57.131 114.148C57.5323 113.896 57.9617 113.705 58.419 113.574C58.8763 113.434 59.3337 113.364 59.791 113.364ZM58.881 117.396C58.7317 117.433 58.6197 117.499 58.545 117.592C58.4797 117.676 58.447 117.807 58.447 117.984C58.447 118.227 58.5123 118.418 58.643 118.558C58.7737 118.689 58.9557 118.754 59.189 118.754C59.553 118.754 59.9357 118.539 60.337 118.11L60.365 117.074L58.881 117.396ZM67.4852 113.476C67.5692 113.476 67.6859 113.485 67.8352 113.504V115.226L67.6392 115.296C67.4805 115.231 67.3079 115.198 67.1212 115.198C66.5799 115.198 66.0899 115.548 65.6512 116.248V117.13L65.7492 120H63.8872L63.9992 117.312L63.9152 113.616L65.6792 113.462L65.6652 114.736H65.7772C66.2345 113.896 66.8039 113.476 67.4852 113.476ZM73.5055 118.628C73.8042 118.628 74.1169 118.549 74.4435 118.39L74.5975 118.53L74.4155 119.636C73.9395 119.879 73.4542 120.028 72.9595 120.084C71.6995 119.953 71.0695 119.337 71.0695 118.236L71.1395 117.074L71.1255 114.666H70.2575L70.1875 114.568L70.2855 113.546H71.1115V112.468L72.8055 111.922L72.9315 112.034L72.8895 113.546H74.5555L74.6115 113.644L74.5275 114.666H72.8615L72.7775 117.802C72.7775 118.101 72.8335 118.315 72.9455 118.446C73.0575 118.567 73.2442 118.628 73.5055 118.628ZM78.2103 113.364C79.1623 113.364 79.8903 113.644 80.3943 114.204C80.8983 114.764 81.1503 115.571 81.1503 116.626C81.1503 117.765 80.8796 118.637 80.3383 119.244C79.797 119.841 79.0176 120.14 78.0003 120.14C77.0483 120.14 76.3203 119.86 75.8163 119.3C75.3123 118.74 75.0603 117.933 75.0603 116.878C75.0603 115.739 75.331 114.871 75.8723 114.274C76.4136 113.667 77.193 113.364 78.2103 113.364ZM78.0843 114.624C77.6363 114.624 77.3096 114.773 77.1043 115.072C76.9083 115.371 76.8103 115.851 76.8103 116.514C76.8103 117.373 76.913 117.984 77.1183 118.348C77.3236 118.712 77.6596 118.894 78.1263 118.894C78.5743 118.894 78.8963 118.749 79.0923 118.46C79.2976 118.161 79.4003 117.676 79.4003 117.004C79.4003 116.155 79.293 115.548 79.0783 115.184C78.873 114.811 78.5416 114.624 78.0843 114.624ZM87.8583 117.13L87.9003 118.306C87.9003 118.465 87.9189 118.577 87.9563 118.642C88.0029 118.698 88.0823 118.726 88.1943 118.726C88.2969 118.726 88.4229 118.707 88.5723 118.67L88.6983 118.782L88.5443 119.762C88.2269 119.958 87.8816 120.075 87.5083 120.112C87.2189 120.084 86.9763 119.986 86.7803 119.818C86.5843 119.65 86.4489 119.421 86.3743 119.132H86.2623C85.8049 119.552 85.3383 119.874 84.8623 120.098C83.9476 120.098 83.2383 119.809 82.7343 119.23C82.2303 118.642 81.9783 117.83 81.9783 116.794C81.9783 115.693 82.2676 114.848 82.8463 114.26C83.4249 113.672 84.2276 113.378 85.2543 113.378C85.5249 113.378 85.8236 113.406 86.1503 113.462L86.1223 110.312L87.9703 110.172L87.8583 117.13ZM85.1283 114.638C84.1949 114.638 83.7283 115.231 83.7283 116.416C83.7283 117.153 83.8403 117.709 84.0643 118.082C84.2883 118.455 84.6149 118.642 85.0443 118.642C85.4549 118.642 85.8329 118.451 86.1783 118.068L86.2063 117.298L86.1643 114.89C85.8003 114.722 85.4549 114.638 85.1283 114.638ZM92.4974 113.364C93.4494 113.364 94.1774 113.644 94.6814 114.204C95.1854 114.764 95.4374 115.571 95.4374 116.626C95.4374 117.765 95.1667 118.637 94.6254 119.244C94.0841 119.841 93.3047 120.14 92.2874 120.14C91.3354 120.14 90.6074 119.86 90.1034 119.3C89.5994 118.74 89.3474 117.933 89.3474 116.878C89.3474 115.739 89.6181 114.871 90.1594 114.274C90.7007 113.667 91.4801 113.364 92.4974 113.364ZM92.3714 114.624C91.9234 114.624 91.5967 114.773 91.3914 115.072C91.1954 115.371 91.0974 115.851 91.0974 116.514C91.0974 117.373 91.2001 117.984 91.4054 118.348C91.6107 118.712 91.9467 118.894 92.4134 118.894C92.8614 118.894 93.1834 118.749 93.3794 118.46C93.5847 118.161 93.6874 117.676 93.6874 117.004C93.6874 116.155 93.5801 115.548 93.3654 115.184C93.1601 114.811 92.8287 114.624 92.3714 114.624ZM98.8974 113.378C99.532 113.378 100.129 113.485 100.689 113.7L100.437 115.072L100.213 115.142C99.9427 114.965 99.672 114.829 99.4014 114.736C99.1307 114.643 98.8927 114.596 98.6874 114.596C98.4634 114.596 98.286 114.657 98.1554 114.778C98.0247 114.89 97.9594 115.03 97.9594 115.198C97.9594 115.394 98.0434 115.553 98.2114 115.674C98.3887 115.795 98.664 115.931 99.0374 116.08C99.4107 116.229 99.7187 116.374 99.9614 116.514C100.204 116.654 100.409 116.85 100.577 117.102C100.755 117.345 100.843 117.648 100.843 118.012C100.843 118.385 100.745 118.735 100.549 119.062C100.363 119.379 100.073 119.641 99.6814 119.846C99.2894 120.042 98.8087 120.14 98.2394 120.14C97.5674 120.14 96.872 120 96.1534 119.72L96.3634 118.264L96.5454 118.152C96.8347 118.395 97.1567 118.591 97.5114 118.74C97.866 118.88 98.1787 118.95 98.4494 118.95C98.7014 118.95 98.8974 118.889 99.0374 118.768C99.1774 118.637 99.2474 118.483 99.2474 118.306C99.2474 118.11 99.1587 117.951 98.9814 117.83C98.8134 117.709 98.5427 117.573 98.1694 117.424C97.7867 117.256 97.474 117.107 97.2314 116.976C96.9887 116.836 96.7787 116.64 96.6014 116.388C96.4334 116.136 96.3494 115.823 96.3494 115.45C96.3494 114.843 96.578 114.349 97.0354 113.966C97.4927 113.574 98.1134 113.378 98.8974 113.378ZM106.908 113.364C107.86 113.364 108.588 113.644 109.092 114.204C109.596 114.764 109.848 115.571 109.848 116.626C109.848 117.765 109.577 118.637 109.036 119.244C108.494 119.841 107.715 120.14 106.698 120.14C105.746 120.14 105.018 119.86 104.514 119.3C104.01 118.74 103.758 117.933 103.758 116.878C103.758 115.739 104.028 114.871 104.57 114.274C105.111 113.667 105.89 113.364 106.908 113.364ZM106.782 114.624C106.334 114.624 106.007 114.773 105.802 115.072C105.606 115.371 105.508 115.851 105.508 116.514C105.508 117.373 105.61 117.984 105.816 118.348C106.021 118.712 106.357 118.894 106.824 118.894C107.272 118.894 107.594 118.749 107.79 118.46C107.995 118.161 108.098 117.676 108.098 117.004C108.098 116.155 107.99 115.548 107.776 115.184C107.57 114.811 107.239 114.624 106.782 114.624ZM113.308 113.378C113.942 113.378 114.54 113.485 115.1 113.7L114.848 115.072L114.624 115.142C114.353 114.965 114.082 114.829 113.812 114.736C113.541 114.643 113.303 114.596 113.098 114.596C112.874 114.596 112.696 114.657 112.566 114.778C112.435 114.89 112.37 115.03 112.37 115.198C112.37 115.394 112.454 115.553 112.622 115.674C112.799 115.795 113.074 115.931 113.448 116.08C113.821 116.229 114.129 116.374 114.372 116.514C114.614 116.654 114.82 116.85 114.988 117.102C115.165 117.345 115.254 117.648 115.254 118.012C115.254 118.385 115.156 118.735 114.96 119.062C114.773 119.379 114.484 119.641 114.092 119.846C113.7 120.042 113.219 120.14 112.65 120.14C111.978 120.14 111.282 120 110.564 119.72L110.774 118.264L110.956 118.152C111.245 118.395 111.567 118.591 111.922 118.74C112.276 118.88 112.589 118.95 112.86 118.95C113.112 118.95 113.308 118.889 113.448 118.768C113.588 118.637 113.658 118.483 113.658 118.306C113.658 118.11 113.569 117.951 113.392 117.83C113.224 117.709 112.953 117.573 112.58 117.424C112.197 117.256 111.884 117.107 111.642 116.976C111.399 116.836 111.189 116.64 111.012 116.388C110.844 116.136 110.76 115.823 110.76 115.45C110.76 114.843 110.988 114.349 111.446 113.966C111.903 113.574 112.524 113.378 113.308 113.378ZM124.048 117.13L124.09 118.306C124.09 118.465 124.108 118.577 124.146 118.642C124.192 118.698 124.272 118.726 124.384 118.726C124.486 118.726 124.612 118.707 124.762 118.67L124.888 118.782L124.734 119.762C124.416 119.958 124.071 120.075 123.698 120.112C123.408 120.084 123.166 119.986 122.97 119.818C122.774 119.65 122.638 119.421 122.564 119.132H122.452C121.994 119.552 121.528 119.874 121.052 120.098C120.137 120.098 119.428 119.809 118.924 119.23C118.42 118.642 118.168 117.83 118.168 116.794C118.168 115.693 118.457 114.848 119.036 114.26C119.614 113.672 120.417 113.378 121.444 113.378C121.714 113.378 122.013 113.406 122.34 113.462L122.312 110.312L124.16 110.172L124.048 117.13ZM121.318 114.638C120.384 114.638 119.918 115.231 119.918 116.416C119.918 117.153 120.03 117.709 120.254 118.082C120.478 118.455 120.804 118.642 121.234 118.642C121.644 118.642 122.022 118.451 122.368 118.068L122.396 117.298L122.354 114.89C121.99 114.722 121.644 114.638 121.318 114.638ZM126.111 117.312L126.041 113.616L127.875 113.462L127.791 117.13L127.875 120H126.013L126.111 117.312ZM126.993 110.298C127.282 110.298 127.506 110.382 127.665 110.55C127.833 110.718 127.917 110.951 127.917 111.25C127.917 111.567 127.828 111.819 127.651 112.006C127.474 112.193 127.231 112.286 126.923 112.286C126.615 112.286 126.377 112.202 126.209 112.034C126.05 111.866 125.971 111.628 125.971 111.32C125.971 111.012 126.06 110.765 126.237 110.578C126.424 110.391 126.676 110.298 126.993 110.298ZM132.197 113.364C132.916 113.364 133.476 113.527 133.877 113.854C134.288 114.171 134.493 114.619 134.493 115.198C134.493 115.366 134.465 115.898 134.409 116.794C134.4 117.055 134.386 117.326 134.367 117.606C134.349 117.877 134.339 118.11 134.339 118.306C134.339 118.465 134.363 118.577 134.409 118.642C134.456 118.698 134.54 118.726 134.661 118.726C134.755 118.726 134.876 118.707 135.025 118.67L135.165 118.782L134.997 119.762C134.699 119.958 134.358 120.075 133.975 120.112C133.695 120.084 133.462 119.986 133.275 119.818C133.089 119.641 132.963 119.398 132.897 119.09H132.799C132.333 119.585 131.852 119.93 131.357 120.126C130.685 120.117 130.158 119.939 129.775 119.594C129.393 119.249 129.201 118.777 129.201 118.18C129.201 117.713 129.318 117.349 129.551 117.088C129.794 116.817 130.158 116.635 130.643 116.542L132.785 116.136V115.562C132.785 114.955 132.487 114.652 131.889 114.652C131.6 114.652 131.292 114.717 130.965 114.848C130.648 114.979 130.289 115.184 129.887 115.464L129.747 115.38L129.537 114.148C129.939 113.896 130.368 113.705 130.825 113.574C131.283 113.434 131.74 113.364 132.197 113.364ZM131.287 117.396C131.138 117.433 131.026 117.499 130.951 117.592C130.886 117.676 130.853 117.807 130.853 117.984C130.853 118.227 130.919 118.418 131.049 118.558C131.18 118.689 131.362 118.754 131.595 118.754C131.959 118.754 132.342 118.539 132.743 118.11L132.771 117.074L131.287 117.396ZM138.559 113.378C139.194 113.378 139.791 113.485 140.351 113.7L140.099 115.072L139.875 115.142C139.605 114.965 139.334 114.829 139.063 114.736C138.793 114.643 138.555 114.596 138.349 114.596C138.125 114.596 137.948 114.657 137.817 114.778C137.687 114.89 137.621 115.03 137.621 115.198C137.621 115.394 137.705 115.553 137.873 115.674C138.051 115.795 138.326 115.931 138.699 116.08C139.073 116.229 139.381 116.374 139.623 116.514C139.866 116.654 140.071 116.85 140.239 117.102C140.417 117.345 140.505 117.648 140.505 118.012C140.505 118.385 140.407 118.735 140.211 119.062C140.025 119.379 139.735 119.641 139.343 119.846C138.951 120.042 138.471 120.14 137.901 120.14C137.229 120.14 136.534 120 135.815 119.72L136.025 118.264L136.207 118.152C136.497 118.395 136.819 118.591 137.173 118.74C137.528 118.88 137.841 118.95 138.111 118.95C138.363 118.95 138.559 118.889 138.699 118.768C138.839 118.637 138.909 118.483 138.909 118.306C138.909 118.11 138.821 117.951 138.643 117.83C138.475 117.709 138.205 117.573 137.831 117.424C137.449 117.256 137.136 117.107 136.893 116.976C136.651 116.836 136.441 116.64 136.263 116.388C136.095 116.136 136.011 115.823 136.011 115.45C136.011 114.843 136.24 114.349 136.697 113.966C137.155 113.574 137.775 113.378 138.559 113.378ZM142.355 118.11C142.644 118.11 142.868 118.194 143.027 118.362C143.195 118.53 143.279 118.763 143.279 119.062C143.279 119.379 143.19 119.631 143.013 119.818C142.835 120.005 142.593 120.098 142.285 120.098C141.977 120.098 141.739 120.014 141.571 119.846C141.412 119.678 141.333 119.44 141.333 119.132C141.333 118.824 141.421 118.577 141.599 118.39C141.785 118.203 142.037 118.11 142.355 118.11Z" fill="white"/>
<defs>
<filter id="filter0_b_136:22623" x="3" y="67" width="161" height="97" filterUnits="userSpaceOnUse" color-interpolation-filters="sRGB">
<feFlood flood-opacity="0" result="BackgroundImageFix"/>
<feGaussianBlur in="BackgroundImage" stdDeviation="5"/>
<feComposite in2="SourceAlpha" operator="in" result="effect1_backgroundBlur_136:22623"/>
<feBlend mode="normal" in="SourceGraphic" in2="effect1_backgroundBlur_136:22623" result="shape"/>
</filter>
<clipPath id="clip0_136:22623">
<rect width="127" height="125.822" fill="white" transform="translate(20 10)"/>
</clipPath>
</defs>
</svg>
