<svg width="167" height="167" viewBox="0 0 167 167" fill="none" xmlns="http://www.w3.org/2000/svg">
<mask id="mask0_206:37021" style="mask-type:alpha" maskUnits="userSpaceOnUse" x="0" y="0" width="167" height="167">
<rect x="1" y="1" width="165" height="165" rx="8" fill="#5988D6" stroke="#EDE6FC" stroke-opacity="0.3"/>
</mask>
<g mask="url(#mask0_206:37021)">
<rect x="1" y="1" width="165" height="165" rx="8" fill="#D9917A" stroke="#EDE6FC" stroke-opacity="0.3"/>
<path d="M115.98 27.61C115.98 27.61 118.98 33.92 116.92 34.3C114.09 34.82 112.92 29.59 112.92 29.59L115.98 27.61Z" fill="#163342"/>
<path d="M116.52 33.84C116.52 33.84 118.14 32.56 118.83 31.84C119.52 31.12 122.56 26.28 123.18 25.33C123.8 24.38 124.49 22.51 124.91 21.71C125.33 20.91 129.46 14.71 129.46 14.71L131.05 15.38C131.05 15.38 128.2 22.57 127.47 23.77C126.74 24.97 126.02 27.4 125.47 28.46C124.92 29.52 121.89 33.78 121.37 34.76C120.952 35.6885 120.617 36.6523 120.37 37.64C120.37 37.64 115.81 36.47 116.52 33.84Z" fill="#8E4F3A"/>
<path d="M110.58 30.6C110.746 31.8359 110.796 33.0847 110.73 34.33C110.58 35.85 114.9 34.74 114.9 34.74C114.763 33.2402 114.807 31.7294 115.03 30.24C115.38 29.05 110.58 30.6 110.58 30.6Z" fill="#8E4F3A"/>
<path d="M106.25 53.1501C106.25 53.1501 105.67 54.5801 105.25 55.5701C104.11 58.0885 103.202 60.7061 102.54 63.3901C102.04 66.2301 101.29 71.3901 101.18 72.7901C101.022 74.4228 100.614 76.0214 99.97 77.5301C98.9734 79.6619 98.2994 81.93 97.97 84.2601C97.83 86.4301 96.71 96.0301 96.71 96.0301C96.71 96.0301 97.7099 96.8801 99.3599 95.7101C99.3599 95.7101 102.11 86.6401 102.79 85.3001C103.635 83.3671 104.23 81.3339 104.56 79.2501C104.66 77.9901 105.8 76.5701 106.75 73.6501C107.7 70.7301 111.75 62.3101 112.11 60.6501C112.11 60.6501 112.11 59.9101 113.11 60.0501L112.47 52.8201L106.25 53.1501Z" fill="#FAA146"/>
<path d="M118.94 53.2099C118.94 53.2099 119.57 54.7499 119.94 55.7299C121.076 58.2514 121.976 60.8726 122.63 63.5599C123.13 66.3999 123.87 71.5599 123.98 72.9599C124.135 74.5921 124.539 76.1907 125.18 77.6999C126.184 79.8322 126.859 82.1048 127.18 84.4399C127.31 86.6099 128.43 96.1999 128.43 96.1999C128.43 96.1999 127.43 97.0499 125.78 95.8799C125.78 95.8799 123.05 86.7999 122.38 85.4699C121.542 83.535 120.951 81.5024 120.62 79.4199C120.53 78.1599 119.39 76.7299 118.43 73.8099C117.47 70.8899 113.43 62.4199 112.88 60.6999C112.871 60.6058 112.836 60.5159 112.78 60.4399C112.728 60.3565 112.656 60.2877 112.57 60.2399C112.489 60.1894 112.395 60.1617 112.3 60.1599C112.204 60.1397 112.105 60.1397 112.01 60.1599L106.38 52.6699L118.94 53.2099Z" fill="#FAA146"/>
<path d="M99.62 94.95C99.5321 95.0307 99.4306 95.0951 99.32 95.14C99.2041 95.1794 99.0825 95.1996 98.96 95.2C98.57 95.2 97.38 94.75 96.88 94.98C96.38 95.21 96.22 97.51 95.25 98.12C94.28 98.73 91.38 100.64 91.62 102.12C91.86 103.6 95.88 102.98 96.86 101.7C97.84 100.42 98.78 100.97 99.57 100.06C100.36 99.15 99.54 95.81 99.62 94.95Z" fill="#EB7171"/>
<path d="M125.54 95.1401C125.728 95.2959 125.966 95.3777 126.21 95.3701C126.6 95.3701 127.79 94.9201 128.29 95.1601C128.79 95.4001 128.94 97.6901 129.9 98.3001C130.86 98.9101 133.77 100.82 133.53 102.3C133.29 103.78 129.26 103.15 128.28 101.87C127.3 100.59 126.37 101.13 125.58 100.23C124.79 99.3301 125.62 96.0001 125.54 95.1401Z" fill="#EB7171"/>
<path d="M109.28 24.76C109.28 24.76 108.89 24.29 108.74 24.76C108.753 25.4768 108.885 26.1863 109.13 26.86C109.13 26.86 109.37 27.65 109.46 27.55C109.453 26.6174 109.393 25.6859 109.28 24.76Z" fill="#8E4F3A"/>
<path d="M116.16 24.82C116.16 24.82 116.56 24.35 116.7 24.82C116.693 25.5373 116.561 26.2479 116.31 26.92C116.31 26.92 116.08 27.71 115.98 27.61C115.987 26.6773 116.047 25.7458 116.16 24.82Z" fill="#8E4F3A"/>
<path d="M113.38 20.24C113.38 20.24 117 20.79 116.47 26.48C115.94 32.17 112.75 31.72 112.53 31.72C112.31 31.72 109.33 31.84 109.07 24.89C109.03 24.89 108.91 19.76 113.38 20.24Z" fill="#8E4F3A"/>
<path d="M109.73 24.55C109.73 24.55 113.73 25.74 115.66 25.36C115.66 25.36 115.78 26.08 116.06 26.11C116.34 26.14 116.48 24.76 116.48 24.76C116.48 24.76 116.57 20.13 112.38 20.09C108.19 20.05 109.04 25.09 109.04 25.09L109.1 25.95C109.1 25.95 109.7 26.2 109.73 24.55Z" fill="#163342"/>
<path d="M111.07 31.17C111.525 31.5305 112.084 31.7349 112.664 31.7529C113.243 31.7709 113.814 31.6016 114.29 31.2701C114.113 31.554 113.867 31.7889 113.575 31.9531C113.283 32.1173 112.955 32.2057 112.62 32.2101C112.293 32.1887 111.977 32.0812 111.705 31.8986C111.433 31.7159 111.214 31.4646 111.07 31.17Z" fill="#633029"/>
<path d="M114.83 33.19C115.375 33.4527 115.94 33.6702 116.52 33.84C117.952 34.6969 119.275 35.7244 120.46 36.9C120.19 38.1385 119.819 39.3525 119.35 40.53C118.637 43.1232 118.086 45.7583 117.7 48.42C117.84 48.87 119.09 53.35 119.15 53.71C110.45 55.42 105.93 53.95 105.93 53.95C106.535 52.2665 107.007 50.5377 107.34 48.78C107.061 46.4385 106.576 44.1262 105.89 41.87C105.3 40.53 104.32 37.16 104.32 37.16C104.32 37.16 108.12 34.21 108.23 34.01C108.34 33.81 110.23 33.45 110.77 33.2L114.83 33.19Z" fill="#8E4F3A"/>
<path d="M108.48 33.87C107.606 33.2477 106.765 32.5801 105.96 31.87C105.27 31.18 102.23 26.3 101.62 25.35C101.01 24.4 100.31 22.53 99.89 21.73C99.47 20.93 95.34 14.73 95.34 14.73L93.74 15.4C93.74 15.4 96.59 22.59 97.32 23.79C98.05 24.99 98.77 27.42 99.32 28.48C99.87 29.54 102.9 33.8 103.42 34.78C103.838 35.7085 104.173 36.6723 104.42 37.66C104.42 37.66 109.19 36.5 108.48 33.87Z" fill="#8E4F3A"/>
<path d="M116.52 33.84C116.52 33.84 118.36 39.48 118.99 41.84C118.99 41.84 117.99 46.15 117.92 46.84C114.329 46.2424 110.659 46.3034 107.09 47.02C107.09 47.02 105.92 41.95 105.81 41.66C107.088 39.213 107.988 36.5866 108.48 33.87C108.848 33.6455 109.269 33.5246 109.7 33.52C109.7 33.52 109.19 39.15 112.9 39.1C116.61 39.05 115.47 33.47 115.47 33.47C115.831 33.5587 116.183 33.6827 116.52 33.84Z" fill="#FAA146"/>
<path d="M96.25 16.1C96.045 15.7979 95.9022 15.4579 95.83 15.1C95.83 14.79 95.83 14.34 95.83 14.1C95.783 13.5095 95.6859 12.9241 95.54 12.35C95.2982 12.0537 95.0744 11.7432 94.87 11.42C94.8 11.18 94.72 10.68 94.51 10.75C94.3 10.82 94.25 11.29 94.25 11.29C94.2285 11.2305 94.1903 11.1784 94.14 11.14C94.0919 11.1011 94.0319 11.08 93.97 11.08C93.8753 11.0718 93.7801 11.0888 93.6941 11.1292C93.6081 11.1696 93.5342 11.232 93.48 11.31C93.48 11.31 93.26 11.14 93.09 11.19C92.9978 11.2119 92.9099 11.2491 92.83 11.3C92.757 11.3607 92.6931 11.4314 92.64 11.51C92.4962 11.4782 92.3457 11.5033 92.22 11.58C92.1325 11.6208 92.0593 11.687 92.01 11.77C91.9595 11.8549 91.932 11.9513 91.93 12.05C91.93 12.05 91.53 12.16 91.51 12.39C91.5138 12.5914 91.5509 12.7908 91.62 12.98C91.9645 13.9045 92.5191 14.7364 93.24 15.41C93.8017 15.9899 94.2525 16.6677 94.57 17.41L96.25 16.1Z" fill="#8E4F3A"/>
<path d="M95.9601 10.95L90.55 13.49L91.0201 14.49L96.4301 11.95L95.9601 10.95Z" fill="#B85858"/>
<path d="M94.3801 11.39C94.3801 11.39 95.0101 12.66 94.8101 13.1C94.6101 13.54 94.35 13.1 94.35 13.1C94.35 13.1 94.6101 13.54 94.2801 13.79C93.9501 14.04 93.6801 13.5 93.6801 13.5C93.6951 13.5523 93.6951 13.6077 93.6801 13.66C93.6942 13.709 93.6942 13.761 93.6801 13.81C93.6514 13.8567 93.614 13.8974 93.5701 13.93C93.5266 13.9654 93.475 13.9894 93.42 14C93.01 14.12 92.8801 13.62 92.8801 13.62C92.8801 13.62 92.73 14.25 92.3 13.95C92.0737 13.7569 91.8907 13.518 91.7632 13.2492C91.6356 12.9803 91.5664 12.6875 91.5601 12.39C91.5601 12.39 91.56 12.14 91.98 12.05C91.9815 11.9632 92.0029 11.8779 92.0424 11.8006C92.0819 11.7233 92.1386 11.656 92.208 11.6039C92.2775 11.5518 92.3579 11.5163 92.4432 11.5C92.5285 11.4837 92.6163 11.4872 92.7001 11.51C92.7001 11.51 93.1001 10.91 93.5301 11.31C93.5814 11.2413 93.6495 11.187 93.7278 11.1522C93.8062 11.1174 93.8922 11.1034 93.9775 11.1114C94.0629 11.1194 94.1447 11.1493 94.2152 11.1981C94.2857 11.2469 94.3425 11.313 94.3801 11.39Z" fill="#693A2B"/>
<path d="M94.3799 8.25001L94.7699 8.06004C94.9277 8.00009 95.102 8.00009 95.2599 8.06004C95.4175 8.11481 95.547 8.22987 95.6199 8.38001L98.2599 13.82C98.2941 13.8954 98.3119 13.9772 98.3119 14.06C98.3119 14.1428 98.2941 14.2247 98.2599 14.3C98.2055 14.4603 98.0906 14.5931 97.9399 14.67L97.5398 14.86C97.4632 14.8918 97.3824 14.912 97.2999 14.92H97.0599C96.9812 14.8926 96.9095 14.8482 96.8498 14.79C96.7834 14.7416 96.7316 14.6759 96.6999 14.6L94.0499 9.16001C94.0112 9.08587 93.9906 9.00364 93.9899 8.92002C93.9695 8.83793 93.9695 8.75212 93.9899 8.67002C94.0173 8.59136 94.0617 8.51969 94.1199 8.46003C94.1857 8.36755 94.2756 8.29489 94.3799 8.25001Z" fill="#EB7171"/>
<path d="M92.04 17.4301L92.73 17.1C92.8413 17.0443 92.926 16.9466 92.9653 16.8285C93.0047 16.7104 92.9956 16.5814 92.94 16.47L90.16 10.7401C90.1041 10.6288 90.007 10.5437 89.8895 10.5027C89.7719 10.4616 89.6431 10.4679 89.53 10.5201L88.84 10.85C88.7287 10.9058 88.6441 11.0035 88.6047 11.1216C88.5653 11.2397 88.5744 11.3686 88.63 11.48L91.41 17.2101C91.4368 17.266 91.4743 17.3162 91.5205 17.3576C91.5667 17.3989 91.6206 17.4308 91.6792 17.4513C91.7378 17.4717 91.7998 17.4804 91.8617 17.4767C91.9236 17.4731 91.9842 17.4572 92.04 17.4301Z" fill="#EB7171"/>
<path d="M128.54 16.1C128.74 15.795 128.882 15.4561 128.96 15.1C128.96 14.79 128.96 14.34 128.96 14.1C129.009 13.5104 129.102 12.9253 129.24 12.35C129.489 12.0566 129.716 11.7458 129.92 11.42C129.99 11.18 130.07 10.68 130.28 10.75C130.49 10.82 130.54 11.29 130.54 11.29C130.558 11.2312 130.593 11.179 130.64 11.14C130.688 11.1011 130.748 11.08 130.81 11.08C130.906 11.0711 131.003 11.0876 131.091 11.128C131.179 11.1683 131.254 11.2312 131.31 11.31C131.31 11.31 131.53 11.14 131.69 11.19C131.782 11.2119 131.87 11.2491 131.95 11.3C132.029 11.3573 132.097 11.4284 132.15 11.51C132.294 11.4782 132.444 11.5033 132.57 11.58C132.653 11.6242 132.722 11.6898 132.77 11.77C132.819 11.856 132.85 11.9514 132.86 12.05C132.86 12.05 133.26 12.16 133.28 12.39C133.276 12.5914 133.239 12.7908 133.17 12.98C132.817 13.9004 132.264 14.7305 131.55 15.41C130.988 15.9899 130.538 16.6677 130.22 17.41L128.54 16.1Z" fill="#8E4F3A"/>
<path d="M128.83 10.94L128.36 11.94L133.77 14.48L134.23 13.48L128.83 10.94Z" fill="#B85858"/>
<path d="M130.38 11.39C130.38 11.39 129.75 12.66 129.96 13.1C130.17 13.54 130.41 13.1 130.41 13.1C130.41 13.1 130.15 13.54 130.48 13.79C130.81 14.04 131.08 13.5 131.08 13.5C131.07 13.5528 131.07 13.6072 131.08 13.66C131.074 13.7098 131.074 13.7602 131.08 13.81C131.109 13.8595 131.151 13.9008 131.2 13.93C131.239 13.9667 131.288 13.991 131.34 14C131.76 14.12 131.88 13.62 131.88 13.62C131.88 13.62 132.04 14.25 132.47 13.95C132.694 13.7549 132.875 13.5156 133.003 13.2472C133.13 12.9787 133.201 12.687 133.21 12.39C133.21 12.39 133.21 12.14 132.78 12.05C132.78 11.9636 132.76 11.8784 132.722 11.801C132.684 11.7236 132.628 11.6561 132.559 11.6038C132.49 11.5515 132.41 11.5158 132.326 11.4996C132.241 11.4833 132.153 11.4869 132.07 11.51C132.07 11.51 131.66 10.91 131.23 11.31C131.179 11.2413 131.111 11.187 131.032 11.1522C130.954 11.1174 130.868 11.1034 130.783 11.1114C130.697 11.1194 130.615 11.1493 130.545 11.1981C130.474 11.2469 130.418 11.313 130.38 11.39Z" fill="#693A2B"/>
<path d="M130.38 8.25L129.98 8.06002C129.825 8.00074 129.655 8.00074 129.5 8.06002C129.342 8.11792 129.21 8.23173 129.13 8.38L126.48 13.82C126.42 13.9743 126.42 14.1457 126.48 14.3C126.541 14.4595 126.659 14.5911 126.81 14.67L127.2 14.86C127.358 14.92 127.532 14.92 127.69 14.86C127.848 14.8052 127.977 14.6901 128.05 14.54L130.69 9.1C130.724 9.02463 130.742 8.94281 130.742 8.86001C130.742 8.77722 130.724 8.69539 130.69 8.62002C130.665 8.541 130.625 8.46763 130.572 8.40414C130.519 8.34065 130.453 8.28826 130.38 8.25Z" fill="#EB7171"/>
<path d="M135.95 10.86L135.26 10.53C135.203 10.5052 135.142 10.4924 135.08 10.4924C135.018 10.4924 134.957 10.5052 134.9 10.53C134.783 10.5685 134.686 10.651 134.63 10.76L131.85 16.5C131.805 16.6123 131.805 16.7377 131.85 16.85C131.87 16.9089 131.901 16.9631 131.942 17.0096C131.984 17.056 132.034 17.0935 132.09 17.12L132.78 17.46C132.896 17.5047 133.024 17.5047 133.14 17.46C133.256 17.4149 133.352 17.3297 133.41 17.22L136.19 11.5C136.216 11.4429 136.233 11.3822 136.24 11.32C136.25 11.257 136.25 11.193 136.24 11.13C136.22 11.0717 136.189 11.0175 136.15 10.97C136.091 10.9204 136.023 10.8831 135.95 10.86Z" fill="#EB7171"/>
<path d="M35.9999 94.52C35.5104 95.3661 34.8816 96.1234 34.1399 96.76C33.3499 97.21 30.5799 99.03 30.1399 100.07C29.8099 100.81 30.1399 101.7 32.9199 101.22C35.6999 100.74 35.6199 98.72 37.6399 98.15C38.9899 97.76 39.1399 97.54 39.1399 96.61C39.1399 96.35 38.8299 95.7 38.9399 95.22C39.0499 94.74 35.9999 94.52 35.9999 94.52Z" fill="#8E4F3A"/>
<path d="M79.6999 96.49C80.1706 97.2796 80.7765 97.9802 81.4899 98.56C82.2799 99.01 85.0499 100.83 85.4899 101.87C85.8199 102.61 85.4899 103.5 82.6999 103.03C79.9099 102.56 79.9999 100.52 77.9899 99.9499C76.6399 99.5599 76.4799 99.3399 76.4899 98.4099C76.4899 98.1499 76.9299 97.3099 76.8199 96.8299C76.7099 96.3499 79.6999 96.49 79.6999 96.49Z" fill="#8E4F3A"/>
<path d="M48.5901 41.14C48.5901 41.14 47.27 40.66 47.38 40.04C48.2951 37.8503 49.4134 35.7512 50.7201 33.7701C52.4699 31.7138 53.927 29.4254 55.05 26.97C55.34 26.06 64.11 16.27 64.5 15.78L65.99 16.88C65.99 16.88 60.4601 26.57 59.5901 27.76C58.7201 28.95 55.5401 36.09 55.2101 36.36C54.8801 36.63 48.5901 41.14 48.5901 41.14Z" fill="#E55353"/>
<path d="M65.99 16.88C65.99 16.88 66.52 16.08 67.09 16.03C67.9526 15.9961 68.8023 15.8099 69.6 15.48C69.74 15.21 69.54 15 69.24 15.03C68.94 15.06 67.49 15.17 67.5 15.03C67.59 13.5 71.01 11.03 71.02 10.78C71.0353 10.7175 71.0353 10.6524 71.02 10.59C70.9953 10.5264 70.9579 10.4685 70.91 10.42C70.8646 10.3755 70.8099 10.3413 70.75 10.32C70.6882 10.3001 70.6218 10.3001 70.56 10.32C69.3848 10.8538 68.277 11.5251 67.26 12.32C66.1317 13.3064 65.2047 14.5017 64.53 15.84L65.99 16.88Z" fill="#8E4F3A"/>
<path d="M54.69 56.3301C54.69 56.3301 54 57.6601 53.69 58.0801C53.38 58.5001 45.61 70.7701 44.69 72.8501C43.77 74.9301 43.18 76.0301 42.69 76.8501C42.33 77.5101 40.82 81.6001 39.69 84.8501C38.56 88.1001 36.2399 93.7501 35.8499 94.4201C35.4599 95.0901 39.0499 95.1401 39.0499 95.1401C39.0499 95.1401 43.58 87.4901 44.7 86.0501C45.953 84.3309 46.8691 82.3901 47.4 80.3301C47.76 78.6301 52.46 74.1601 53.4 72.6601C54.34 71.1601 57.94 66.1001 58.56 64.9901C58.7492 64.6959 59.0175 64.4611 59.3341 64.3125C59.6507 64.164 60.0028 64.1076 60.3499 64.1501L61.2899 57.8101L54.69 56.3301Z" fill="#FAA146"/>
<path d="M66.7599 56.23C66.7599 56.23 67.2599 57.65 67.4799 58.1C67.6999 58.55 72.0599 67.22 72.7499 69.67C73.3599 71.84 74.9799 77.19 75.3699 78.31C75.6099 79.02 76.7599 83.17 77.3699 86.56C77.9799 89.95 79.5899 95.62 79.8799 96.34C80.1699 97.06 76.6599 97.23 76.6599 97.23C76.6599 97.23 73.1399 88.64 72.2399 87.05C71.252 85.1846 70.6276 83.1485 70.3999 81.05C70.2899 79.31 66.6199 73.77 65.6099 72.45C64.5999 71.13 62.2299 65.79 61.3299 64.88C60.4299 63.97 59.8499 64.05 59.8499 64.05V56.81L66.7599 56.23Z" fill="#FAA146"/>
<path d="M42.45 47.25C42.45 47.25 41.23 46.55 40.81 47.03C39.6937 49.1231 38.7666 51.3118 38.04 53.57C37.5483 56.213 36.69 58.7744 35.49 61.18C34.95 61.98 32.89 74.86 32.76 75.47L34.57 75.89C34.57 75.89 38.57 65.53 39 64.1C39.43 62.67 42.94 55.72 42.94 55.3C42.94 54.88 42.45 47.25 42.45 47.25Z" fill="#E55353"/>
<path d="M41.3101 43.98C41.3101 43.98 40.09 46.44 39.86 46.98C39.035 49.0967 38.4252 51.2911 38.04 53.53C39.3363 54.7549 40.8179 55.7673 42.4301 56.53C42.4301 56.53 44.29 53.32 44.48 53.22C46.2919 54.3609 47.9692 55.7028 49.48 57.22C50.28 58.09 50.4801 61.95 50.8201 62.54C51.1601 63.13 65.4001 59.41 66.8201 56.17C66.8201 56.17 62.9901 49.97 62.3901 49.09C61.7901 48.21 55.5501 39.98 55.1901 39.52C54.8301 39.06 55.7201 35.44 55.7201 35.44C55.7201 35.44 53.35 32.96 51.48 32.88C51.48 32.88 48.9901 35.4 48.5601 35.69C47.0464 36.8407 45.6646 38.1554 44.4401 39.61C43.7401 40.74 41.3101 43.98 41.3101 43.98Z" fill="#E55353"/>
<path d="M34.5699 75.8899C34.5699 75.8899 34.2799 76.7999 34.5699 77.2599C34.8599 77.7199 35.8499 79.2599 35.7399 79.5099C35.6299 79.7599 35.33 79.7599 35.15 79.5099C34.97 79.2599 34.15 78.0899 34.02 78.2099C32.88 79.2599 33.1399 83.3999 32.9399 83.5899C32.8929 83.6324 32.8388 83.6662 32.78 83.6899C32.717 83.6995 32.6529 83.6995 32.59 83.6899C32.5237 83.6806 32.4595 83.6604 32.4 83.6299C32.3417 83.6014 32.2905 83.5605 32.2499 83.5099C31.9197 82.276 31.7384 81.007 31.71 79.7299C31.7654 78.2459 32.1049 76.7862 32.71 75.4299L34.5699 75.8899Z" fill="#8E4F3A"/>
<path d="M39.28 42.4501C40.2009 42.831 41.0096 43.4401 41.63 44.22C41.8757 44.4786 42.1767 44.6781 42.5106 44.8036C42.8444 44.929 43.2023 44.9773 43.5574 44.9445C43.9126 44.9118 44.2556 44.799 44.5609 44.6147C44.8662 44.4303 45.1257 44.1791 45.32 43.88C45.5563 43.6162 45.7333 43.3048 45.8392 42.9667C45.945 42.6287 45.9772 42.272 45.9337 41.9204C45.8901 41.5689 45.7717 41.2308 45.5865 40.9289C45.4013 40.627 45.1536 40.3682 44.86 40.1701C44.86 40.1701 43.72 40.24 41.86 38.54C40 36.84 39.28 42.4501 39.28 42.4501Z" fill="#8E4F3A"/>
<path d="M31.6999 35.67C31.6999 35.67 30.2199 39 35.4399 41.67C40.6599 44.34 41.9999 41.42 42.1199 41.23C42.2399 41.04 43.9599 38.62 38.1199 34.62C38.0899 34.56 33.6999 31.67 31.6999 35.67Z" fill="#8E4F3A"/>
<path d="M34.0201 40.77C34.0201 40.77 33.4301 40.87 33.7201 41.23C34.4806 41.6328 35.2959 41.9226 36.14 42.09C36.14 42.09 36.32 42.09 36.3 42C35.5656 41.5442 34.8043 41.1334 34.0201 40.77Z" fill="#8E4F3A"/>
<path d="M37.9901 34.6C37.9901 34.6 37.8301 34.04 38.2901 34.15C38.7501 34.26 40.0801 35.86 40.1201 35.92C40.1601 35.98 40.2301 36.07 40.1201 36.1C39.3816 35.6417 38.6704 35.1409 37.9901 34.6Z" fill="#8E4F3A"/>
<path d="M34.7699 41.25L35.6599 41.2C35.143 40.8979 34.6453 40.564 34.1699 40.2C34.0099 40 33.6199 39.95 33.4999 39.8C33.3799 39.65 33.7299 35.73 37.0299 34.63C37.0299 34.63 37.6099 35.35 37.8299 35.19C38.0499 35.03 39.4499 36.06 39.4499 36.06L39.2699 35.44C39.2699 35.44 37.0299 33.44 36.5899 33.23C36.1499 33.02 33.5399 31.11 30.9399 36.01C30.6411 36.5712 30.5093 37.2063 30.5599 37.84C30.5701 38.2519 30.6824 38.6547 30.8866 39.0125C31.0907 39.3702 31.3805 39.6718 31.7299 39.89C32.7199 40.38 33.7399 40.84 34.7699 41.25Z" fill="#434343"/>
<path d="M42.3801 39.1C42.3801 39.1 43.0901 41.46 40.0901 42.57C40.5561 42.6138 41.0257 42.5398 41.4556 42.3545C41.8855 42.1693 42.2619 41.8788 42.55 41.51C42.7884 41.1447 42.9007 40.7115 42.8701 40.2764C42.8394 39.8413 42.6673 39.4282 42.3801 39.1Z" fill="#633029"/>
</g>
<g filter="url(#filter0_b_206:37021)">
<rect x="13" y="77" width="141" height="77" rx="10" fill="black" fill-opacity="0.8"/>
</g>
<path d="M28.344 87.138L28.232 88.552L26.538 88.468H25.978L25.908 93.144L25.992 96H24.088L24.186 93.312L24.116 88.468H23.556L21.834 88.552L21.708 88.398L21.834 86.984H28.232L28.344 87.138ZM31.2064 89.364C32.1584 89.364 32.8864 89.644 33.3904 90.204C33.8944 90.764 34.1464 91.5713 34.1464 92.626C34.1464 93.7647 33.8757 94.6373 33.3344 95.244C32.7931 95.8413 32.0137 96.14 30.9964 96.14C30.0444 96.14 29.3164 95.86 28.8124 95.3C28.3084 94.74 28.0564 93.9327 28.0564 92.878C28.0564 91.7393 28.3271 90.8713 28.8684 90.274C29.4097 89.6673 30.1891 89.364 31.2064 89.364ZM31.0804 90.624C30.6324 90.624 30.3057 90.7733 30.1004 91.072C29.9044 91.3707 29.8064 91.8513 29.8064 92.514C29.8064 93.3727 29.9091 93.984 30.1144 94.348C30.3197 94.712 30.6557 94.894 31.1224 94.894C31.5704 94.894 31.8924 94.7493 32.0884 94.46C32.2937 94.1613 32.3964 93.676 32.3964 93.004C32.3964 92.1547 32.2891 91.548 32.0744 91.184C31.8691 90.8107 31.5377 90.624 31.0804 90.624ZM43.1383 96L43.2503 91.94C43.2503 91.2493 42.9563 90.904 42.3683 90.904C41.9483 90.904 41.5097 91.0907 41.0523 91.464L41.0103 93.144L41.0943 96H39.2323L39.3443 91.94C39.3537 91.604 39.279 91.3473 39.1203 91.17C38.971 90.9927 38.7517 90.904 38.4623 90.904C38.0517 90.904 37.599 91.1 37.1043 91.492V93.13L37.1883 96H35.3403L35.4383 93.312L35.3683 89.616L37.1183 89.462V90.414H37.2163C37.7297 89.9473 38.2943 89.6113 38.9103 89.406C39.9557 89.406 40.623 89.756 40.9123 90.456H40.9963C41.5283 89.9613 42.135 89.6113 42.8163 89.406C43.5257 89.406 44.0623 89.5693 44.4263 89.896C44.7997 90.2133 44.977 90.6753 44.9583 91.282L44.9163 93.144L45.0003 96H43.1383ZM49.1953 89.364C49.914 89.364 50.474 89.5273 50.8753 89.854C51.286 90.1713 51.4913 90.6193 51.4913 91.198C51.4913 91.366 51.4633 91.898 51.4073 92.794C51.398 93.0553 51.384 93.326 51.3653 93.606C51.3466 93.8767 51.3373 94.11 51.3373 94.306C51.3373 94.4647 51.3606 94.5767 51.4073 94.642C51.454 94.698 51.538 94.726 51.6593 94.726C51.7526 94.726 51.874 94.7073 52.0233 94.67L52.1633 94.782L51.9953 95.762C51.6966 95.958 51.356 96.0747 50.9733 96.112C50.6933 96.084 50.46 95.986 50.2733 95.818C50.0866 95.6407 49.9606 95.398 49.8953 95.09H49.7973C49.3306 95.5847 48.85 95.93 48.3553 96.126C47.6833 96.1167 47.156 95.9393 46.7733 95.594C46.3906 95.2487 46.1993 94.7773 46.1993 94.18C46.1993 93.7133 46.316 93.3493 46.5493 93.088C46.792 92.8173 47.156 92.6353 47.6413 92.542L49.7833 92.136V91.562C49.7833 90.9553 49.4846 90.652 48.8873 90.652C48.598 90.652 48.29 90.7173 47.9633 90.848C47.646 90.9787 47.2866 91.184 46.8853 91.464L46.7453 91.38L46.5353 90.148C46.9366 89.896 47.366 89.7047 47.8233 89.574C48.2806 89.434 48.738 89.364 49.1953 89.364ZM48.2853 93.396C48.136 93.4333 48.024 93.4987 47.9493 93.592C47.884 93.676 47.8513 93.8067 47.8513 93.984C47.8513 94.2267 47.9166 94.418 48.0473 94.558C48.178 94.6887 48.36 94.754 48.5933 94.754C48.9573 94.754 49.34 94.5393 49.7413 94.11L49.7693 93.074L48.2853 93.396ZM56.8895 89.476C56.9735 89.476 57.0902 89.4853 57.2395 89.504V91.226L57.0435 91.296C56.8848 91.2307 56.7122 91.198 56.5255 91.198C55.9842 91.198 55.4942 91.548 55.0555 92.248V93.13L55.1535 96H53.2915L53.4035 93.312L53.3195 89.616L55.0835 89.462L55.0695 90.736H55.1815C55.6388 89.896 56.2082 89.476 56.8895 89.476ZM68.0758 96L68.1878 91.94C68.1878 91.2493 67.8938 90.904 67.3058 90.904C66.8858 90.904 66.4472 91.0907 65.9898 91.464L65.9478 93.144L66.0318 96H64.1698L64.2818 91.94C64.2912 91.604 64.2165 91.3473 64.0578 91.17C63.9085 90.9927 63.6892 90.904 63.3998 90.904C62.9892 90.904 62.5365 91.1 62.0418 91.492V93.13L62.1258 96H60.2778L60.3758 93.312L60.3058 89.616L62.0558 89.462V90.414H62.1538C62.6672 89.9473 63.2318 89.6113 63.8478 89.406C64.8932 89.406 65.5605 89.756 65.8498 90.456H65.9338C66.4658 89.9613 67.0725 89.6113 67.7538 89.406C68.4632 89.406 68.9998 89.5693 69.3638 89.896C69.7372 90.2133 69.9145 90.6753 69.8958 91.282L69.8538 93.144L69.9378 96H68.0758ZM76.6108 92.976L72.8308 93.004C72.9148 94.1707 73.5075 94.754 74.6088 94.754C75.1875 94.754 75.8315 94.5907 76.5408 94.264L76.6948 94.362L76.4148 95.748C75.7055 96.0093 75.0381 96.14 74.4128 96.14C73.3861 96.14 72.5788 95.8413 71.9908 95.244C71.4121 94.6467 71.1228 93.8207 71.1228 92.766C71.1228 91.7207 71.4075 90.8947 71.9768 90.288C72.5461 89.672 73.3161 89.364 74.2868 89.364C75.1175 89.364 75.7568 89.5927 76.2048 90.05C76.6621 90.498 76.8908 91.128 76.8908 91.94C76.8908 92.1547 76.8675 92.4253 76.8208 92.752L76.6108 92.976ZM75.2668 91.73C75.2668 91.3567 75.1828 91.0767 75.0148 90.89C74.8468 90.694 74.5995 90.596 74.2728 90.596C73.9088 90.596 73.6055 90.7173 73.3628 90.96C73.1201 91.1933 72.9568 91.534 72.8728 91.982L75.2388 91.926L75.2668 91.73ZM83.6063 93.13L83.6483 94.306C83.6483 94.4647 83.667 94.5767 83.7043 94.642C83.751 94.698 83.8303 94.726 83.9423 94.726C84.045 94.726 84.171 94.7073 84.3203 94.67L84.4463 94.782L84.2923 95.762C83.975 95.958 83.6296 96.0747 83.2563 96.112C82.967 96.084 82.7243 95.986 82.5283 95.818C82.3323 95.65 82.197 95.4213 82.1223 95.132H82.0103C81.553 95.552 81.0863 95.874 80.6103 96.098C79.6956 96.098 78.9863 95.8087 78.4823 95.23C77.9783 94.642 77.7263 93.83 77.7263 92.794C77.7263 91.6927 78.0156 90.848 78.5943 90.26C79.173 89.672 79.9756 89.378 81.0023 89.378C81.273 89.378 81.5716 89.406 81.8983 89.462L81.8703 86.312L83.7183 86.172L83.6063 93.13ZM80.8763 90.638C79.943 90.638 79.4763 91.2307 79.4763 92.416C79.4763 93.1533 79.5883 93.7087 79.8123 94.082C80.0363 94.4553 80.363 94.642 80.7923 94.642C81.203 94.642 81.581 94.4507 81.9263 94.068L81.9543 93.298L81.9123 90.89C81.5483 90.722 81.203 90.638 80.8763 90.638ZM85.6695 93.312L85.5995 89.616L87.4335 89.462L87.3495 93.13L87.4335 96H85.5715L85.6695 93.312ZM86.5515 86.298C86.8408 86.298 87.0648 86.382 87.2235 86.55C87.3915 86.718 87.4755 86.9513 87.4755 87.25C87.4755 87.5673 87.3868 87.8193 87.2095 88.006C87.0321 88.1927 86.7895 88.286 86.4815 88.286C86.1735 88.286 85.9355 88.202 85.7675 88.034C85.6088 87.866 85.5295 87.628 85.5295 87.32C85.5295 87.012 85.6181 86.7647 85.7955 86.578C85.9821 86.3913 86.2341 86.298 86.5515 86.298ZM91.8678 89.364C92.1758 89.364 92.4792 89.3967 92.7778 89.462C93.0858 89.518 93.3565 89.602 93.5898 89.714L93.2818 91.198L93.1278 91.268C92.6518 91.0067 92.2272 90.876 91.8538 90.876C91.4245 90.876 91.0932 91.03 90.8598 91.338C90.6265 91.646 90.5098 92.0847 90.5098 92.654C90.5098 93.3073 90.6358 93.8067 90.8878 94.152C91.1398 94.4973 91.4992 94.67 91.9658 94.67C92.3858 94.67 92.8525 94.5533 93.3658 94.32L93.5058 94.432L93.3238 95.874C92.7638 96.0513 92.1898 96.14 91.6018 96.14C90.7058 96.14 90.0058 95.8507 89.5018 95.272C88.9978 94.684 88.7458 93.8673 88.7458 92.822C88.7458 91.7393 89.0212 90.8947 89.5718 90.288C90.1225 89.672 90.8878 89.364 91.8678 89.364ZM97.0058 89.364C97.7245 89.364 98.2845 89.5273 98.6858 89.854C99.0965 90.1713 99.3018 90.6193 99.3018 91.198C99.3018 91.366 99.2738 91.898 99.2178 92.794C99.2085 93.0553 99.1945 93.326 99.1758 93.606C99.1572 93.8767 99.1478 94.11 99.1478 94.306C99.1478 94.4647 99.1712 94.5767 99.2178 94.642C99.2645 94.698 99.3485 94.726 99.4698 94.726C99.5632 94.726 99.6845 94.7073 99.8338 94.67L99.9738 94.782L99.8058 95.762C99.5072 95.958 99.1665 96.0747 98.7838 96.112C98.5038 96.084 98.2705 95.986 98.0838 95.818C97.8972 95.6407 97.7712 95.398 97.7058 95.09H97.6078C97.1412 95.5847 96.6605 95.93 96.1658 96.126C95.4938 96.1167 94.9665 95.9393 94.5838 95.594C94.2012 95.2487 94.0098 94.7773 94.0098 94.18C94.0098 93.7133 94.1265 93.3493 94.3598 93.088C94.6025 92.8173 94.9665 92.6353 95.4518 92.542L97.5938 92.136V91.562C97.5938 90.9553 97.2952 90.652 96.6978 90.652C96.4085 90.652 96.1005 90.7173 95.7738 90.848C95.4565 90.9787 95.0972 91.184 94.6958 91.464L94.5558 91.38L94.3458 90.148C94.7472 89.896 95.1765 89.7047 95.6338 89.574C96.0912 89.434 96.5485 89.364 97.0058 89.364ZM96.0958 93.396C95.9465 93.4333 95.8345 93.4987 95.7598 93.592C95.6945 93.676 95.6618 93.8067 95.6618 93.984C95.6618 94.2267 95.7272 94.418 95.8578 94.558C95.9885 94.6887 96.1705 94.754 96.4038 94.754C96.7678 94.754 97.1505 94.5393 97.5518 94.11L97.5798 93.074L96.0958 93.396ZM108.9 96L109.012 91.94C109.012 91.2493 108.718 90.904 108.13 90.904C107.71 90.904 107.271 91.0907 106.814 91.464L106.772 93.144L106.856 96H104.994L105.106 91.94C105.115 91.604 105.041 91.3473 104.882 91.17C104.733 90.9927 104.513 90.904 104.224 90.904C103.813 90.904 103.361 91.1 102.866 91.492V93.13L102.95 96H101.102L101.2 93.312L101.13 89.616L102.88 89.462V90.414H102.978C103.491 89.9473 104.056 89.6113 104.672 89.406C105.717 89.406 106.385 89.756 106.674 90.456H106.758C107.29 89.9613 107.897 89.6113 108.578 89.406C109.287 89.406 109.824 89.5693 110.188 89.896C110.561 90.2133 110.739 90.6753 110.72 91.282L110.678 93.144L110.762 96H108.9ZM117.435 92.976L113.655 93.004C113.739 94.1707 114.332 94.754 115.433 94.754C116.012 94.754 116.656 94.5907 117.365 94.264L117.519 94.362L117.239 95.748C116.53 96.0093 115.862 96.14 115.237 96.14C114.21 96.14 113.403 95.8413 112.815 95.244C112.236 94.6467 111.947 93.8207 111.947 92.766C111.947 91.7207 112.232 90.8947 112.801 90.288C113.37 89.672 114.14 89.364 115.111 89.364C115.942 89.364 116.581 89.5927 117.029 90.05C117.486 90.498 117.715 91.128 117.715 91.94C117.715 92.1547 117.692 92.4253 117.645 92.752L117.435 92.976ZM116.091 91.73C116.091 91.3567 116.007 91.0767 115.839 90.89C115.671 90.694 115.424 90.596 115.097 90.596C114.733 90.596 114.43 90.7173 114.187 90.96C113.944 91.1933 113.781 91.534 113.697 91.982L116.063 91.926L116.091 91.73ZM123.003 91.94C123.012 91.6133 122.937 91.3613 122.779 91.184C122.629 90.9973 122.41 90.904 122.121 90.904C121.701 90.904 121.253 91.1047 120.777 91.506V93.13L120.861 96H118.999L119.097 93.312L119.027 89.616L120.791 89.462V90.414H120.889C121.402 89.9473 121.962 89.6113 122.569 89.406C123.278 89.406 123.819 89.5693 124.193 89.896C124.566 90.2133 124.743 90.6753 124.725 91.282L124.683 93.144L124.767 96H122.891L123.003 91.94ZM129.041 94.628C129.339 94.628 129.652 94.5487 129.979 94.39L130.133 94.53L129.951 95.636C129.475 95.8787 128.989 96.028 128.495 96.084C127.235 95.9533 126.605 95.3373 126.605 94.236L126.675 93.074L126.661 90.666H125.793L125.723 90.568L125.821 89.546H126.647V88.468L128.341 87.922L128.467 88.034L128.425 89.546H130.091L130.147 89.644L130.063 90.666H128.397L128.313 93.802C128.313 94.1007 128.369 94.3153 128.481 94.446C128.593 94.5673 128.779 94.628 129.041 94.628ZM133.745 89.364C134.697 89.364 135.425 89.644 135.929 90.204C136.433 90.764 136.685 91.5713 136.685 92.626C136.685 93.7647 136.415 94.6373 135.873 95.244C135.332 95.8413 134.553 96.14 133.535 96.14C132.583 96.14 131.855 95.86 131.351 95.3C130.847 94.74 130.595 93.9327 130.595 92.878C130.595 91.7393 130.866 90.8713 131.407 90.274C131.949 89.6673 132.728 89.364 133.745 89.364ZM133.619 90.624C133.171 90.624 132.845 90.7733 132.639 91.072C132.443 91.3707 132.345 91.8513 132.345 92.514C132.345 93.3727 132.448 93.984 132.653 94.348C132.859 94.712 133.195 94.894 133.661 94.894C134.109 94.894 134.431 94.7493 134.627 94.46C134.833 94.1613 134.935 93.676 134.935 93.004C134.935 92.1547 134.828 91.548 134.613 91.184C134.408 90.8107 134.077 90.624 133.619 90.624ZM140.145 89.378C140.78 89.378 141.377 89.4853 141.937 89.7L141.685 91.072L141.461 91.142C141.191 90.9647 140.92 90.8293 140.649 90.736C140.379 90.6427 140.141 90.596 139.935 90.596C139.711 90.596 139.534 90.6567 139.403 90.778C139.273 90.89 139.207 91.03 139.207 91.198C139.207 91.394 139.291 91.5527 139.459 91.674C139.637 91.7953 139.912 91.9307 140.285 92.08C140.659 92.2293 140.967 92.374 141.209 92.514C141.452 92.654 141.657 92.85 141.825 93.102C142.003 93.3447 142.091 93.648 142.091 94.012C142.091 94.3853 141.993 94.7353 141.797 95.062C141.611 95.3793 141.321 95.6407 140.929 95.846C140.537 96.042 140.057 96.14 139.487 96.14C138.815 96.14 138.12 96 137.401 95.72L137.611 94.264L137.793 94.152C138.083 94.3947 138.405 94.5907 138.759 94.74C139.114 94.88 139.427 94.95 139.697 94.95C139.949 94.95 140.145 94.8893 140.285 94.768C140.425 94.6373 140.495 94.4833 140.495 94.306C140.495 94.11 140.407 93.9513 140.229 93.83C140.061 93.7087 139.791 93.5733 139.417 93.424C139.035 93.256 138.722 93.1067 138.479 92.976C138.237 92.836 138.027 92.64 137.849 92.388C137.681 92.136 137.597 91.8233 137.597 91.45C137.597 90.8433 137.826 90.3487 138.283 89.966C138.741 89.574 139.361 89.378 140.145 89.378ZM144.305 94.152C144.725 94.488 144.935 94.8893 144.935 95.356C144.935 96.168 144.37 96.9753 143.241 97.778L142.639 97.246L142.625 97.106C143.138 96.6767 143.395 96.2193 143.395 95.734C143.395 95.4167 143.245 95.1367 142.947 94.894L142.961 94.74C143.39 94.4787 143.838 94.2827 144.305 94.152ZM43.5477 102.144C43.9303 102.144 44.3363 102.186 44.7657 102.27L44.6397 103.656L44.5137 103.74C44.075 103.553 43.6923 103.46 43.3657 103.46C42.787 103.46 42.493 103.791 42.4837 104.454L42.4697 105.546H44.0517L44.1077 105.644L44.0237 106.666H42.4417L42.3997 109.13L42.4977 112H40.6357L40.7477 109.298L40.7197 106.666H39.7397L39.6697 106.568L39.7677 105.546H40.7057L40.6917 104.776C40.6917 103.936 40.939 103.287 41.4337 102.83C41.9377 102.373 42.6423 102.144 43.5477 102.144ZM47.2471 105.364C47.9657 105.364 48.5257 105.527 48.9271 105.854C49.3377 106.171 49.5431 106.619 49.5431 107.198C49.5431 107.366 49.5151 107.898 49.4591 108.794C49.4497 109.055 49.4357 109.326 49.4171 109.606C49.3984 109.877 49.3891 110.11 49.3891 110.306C49.3891 110.465 49.4124 110.577 49.4591 110.642C49.5057 110.698 49.5897 110.726 49.7111 110.726C49.8044 110.726 49.9257 110.707 50.0751 110.67L50.2151 110.782L50.0471 111.762C49.7484 111.958 49.4077 112.075 49.0251 112.112C48.7451 112.084 48.5117 111.986 48.3251 111.818C48.1384 111.641 48.0124 111.398 47.9471 111.09H47.8491C47.3824 111.585 46.9017 111.93 46.4071 112.126C45.7351 112.117 45.2077 111.939 44.8251 111.594C44.4424 111.249 44.2511 110.777 44.2511 110.18C44.2511 109.713 44.3677 109.349 44.6011 109.088C44.8437 108.817 45.2077 108.635 45.6931 108.542L47.8351 108.136V107.562C47.8351 106.955 47.5364 106.652 46.9391 106.652C46.6497 106.652 46.3417 106.717 46.0151 106.848C45.6977 106.979 45.3384 107.184 44.9371 107.464L44.7971 107.38L44.5871 106.148C44.9884 105.896 45.4177 105.705 45.8751 105.574C46.3324 105.434 46.7897 105.364 47.2471 105.364ZM46.3371 109.396C46.1877 109.433 46.0757 109.499 46.0011 109.592C45.9357 109.676 45.9031 109.807 45.9031 109.984C45.9031 110.227 45.9684 110.418 46.0991 110.558C46.2297 110.689 46.4117 110.754 46.6451 110.754C47.0091 110.754 47.3917 110.539 47.7931 110.11L47.8211 109.074L46.3371 109.396ZM52.5033 105.49H55.3313L56.0453 105.476L56.0593 106.582L52.9093 110.81H54.8833L56.0733 110.698L56.1713 110.824L56.0453 112.028L54.4213 112H51.8453L50.9493 112.042V110.95L54.1273 106.694H52.2513L51.0893 106.792L50.9773 106.666L51.1173 105.462L52.5033 105.49ZM62.3032 108.976L58.5232 109.004C58.6072 110.171 59.1998 110.754 60.3012 110.754C60.8798 110.754 61.5238 110.591 62.2332 110.264L62.3872 110.362L62.1072 111.748C61.3978 112.009 60.7305 112.14 60.1052 112.14C59.0785 112.14 58.2712 111.841 57.6832 111.244C57.1045 110.647 56.8152 109.821 56.8152 108.766C56.8152 107.721 57.0998 106.895 57.6692 106.288C58.2385 105.672 59.0085 105.364 59.9792 105.364C60.8098 105.364 61.4492 105.593 61.8972 106.05C62.3545 106.498 62.5832 107.128 62.5832 107.94C62.5832 108.155 62.5598 108.425 62.5132 108.752L62.3032 108.976ZM60.9592 107.73C60.9592 107.357 60.8752 107.077 60.7072 106.89C60.5392 106.694 60.2918 106.596 59.9652 106.596C59.6012 106.596 59.2978 106.717 59.0552 106.96C58.8125 107.193 58.6492 107.534 58.5652 107.982L60.9312 107.926L60.9592 107.73ZM67.4647 105.476C67.5487 105.476 67.6654 105.485 67.8147 105.504V107.226L67.6187 107.296C67.46 107.231 67.2874 107.198 67.1007 107.198C66.5594 107.198 66.0694 107.548 65.6307 108.248V109.13L65.7287 112H63.8667L63.9787 109.312L63.8947 105.616L65.6587 105.462L65.6447 106.736H65.7567C66.214 105.896 66.7834 105.476 67.4647 105.476ZM75.893 108.976L72.113 109.004C72.197 110.171 72.7897 110.754 73.891 110.754C74.4697 110.754 75.1137 110.591 75.823 110.264L75.977 110.362L75.697 111.748C74.9877 112.009 74.3204 112.14 73.695 112.14C72.6684 112.14 71.861 111.841 71.273 111.244C70.6944 110.647 70.405 109.821 70.405 108.766C70.405 107.721 70.6897 106.895 71.259 106.288C71.8284 105.672 72.5984 105.364 73.569 105.364C74.3997 105.364 75.039 105.593 75.487 106.05C75.9444 106.498 76.173 107.128 76.173 107.94C76.173 108.155 76.1497 108.425 76.103 108.752L75.893 108.976ZM74.549 107.73C74.549 107.357 74.465 107.077 74.297 106.89C74.129 106.694 73.8817 106.596 73.555 106.596C73.191 106.596 72.8877 106.717 72.645 106.96C72.4024 107.193 72.239 107.534 72.155 107.982L74.521 107.926L74.549 107.73ZM79.0665 106.218L79.9625 107.674L80.8445 106.162L81.1945 105.504H82.8325L80.9565 108.696L82.9165 111.944L80.9565 112.084L80.6345 111.258L79.7105 109.76L78.7445 111.342L78.4365 112H76.7985L78.6885 108.738L76.7845 105.546L78.7725 105.448L79.0665 106.218ZM88.7309 108.976L84.9509 109.004C85.0349 110.171 85.6276 110.754 86.7289 110.754C87.3076 110.754 87.9516 110.591 88.6609 110.264L88.8149 110.362L88.5349 111.748C87.8256 112.009 87.1582 112.14 86.5329 112.14C85.5062 112.14 84.6989 111.841 84.1109 111.244C83.5322 110.647 83.2429 109.821 83.2429 108.766C83.2429 107.721 83.5276 106.895 84.0969 106.288C84.6662 105.672 85.4362 105.364 86.4069 105.364C87.2376 105.364 87.8769 105.593 88.3249 106.05C88.7822 106.498 89.0109 107.128 89.0109 107.94C89.0109 108.155 88.9876 108.425 88.9409 108.752L88.7309 108.976ZM87.3869 107.73C87.3869 107.357 87.3029 107.077 87.1349 106.89C86.9669 106.694 86.7196 106.596 86.3929 106.596C86.0289 106.596 85.7256 106.717 85.4829 106.96C85.2402 107.193 85.0769 107.534 84.9929 107.982L87.3589 107.926L87.3869 107.73ZM93.8924 105.476C93.9764 105.476 94.0931 105.485 94.2424 105.504V107.226L94.0464 107.296C93.8878 107.231 93.7151 107.198 93.5284 107.198C92.9871 107.198 92.4971 107.548 92.0584 108.248V109.13L92.1564 112H90.2944L90.4064 109.312L90.3224 105.616L92.0864 105.462L92.0724 106.736H92.1844C92.6418 105.896 93.2111 105.476 93.8924 105.476ZM97.8356 105.364C98.1436 105.364 98.447 105.397 98.7456 105.462C99.0536 105.518 99.3243 105.602 99.5576 105.714L99.2496 107.198L99.0956 107.268C98.6196 107.007 98.195 106.876 97.8216 106.876C97.3923 106.876 97.061 107.03 96.8276 107.338C96.5943 107.646 96.4776 108.085 96.4776 108.654C96.4776 109.307 96.6036 109.807 96.8556 110.152C97.1076 110.497 97.467 110.67 97.9336 110.67C98.3536 110.67 98.8203 110.553 99.3336 110.32L99.4736 110.432L99.2916 111.874C98.7316 112.051 98.1576 112.14 97.5696 112.14C96.6736 112.14 95.9736 111.851 95.4696 111.272C94.9656 110.684 94.7136 109.867 94.7136 108.822C94.7136 107.739 94.989 106.895 95.5396 106.288C96.0903 105.672 96.8556 105.364 97.8356 105.364ZM100.674 109.312L100.604 105.616L102.438 105.462L102.354 109.13L102.438 112H100.576L100.674 109.312ZM102.872 101.878L103.544 102.886L103.516 103.068C103.311 103.199 103.157 103.292 103.054 103.348C101.888 104.067 101.132 104.524 100.786 104.72L100.604 104.706L100.156 104.006C101.239 103.138 102.084 102.424 102.69 101.864L102.872 101.878ZM106.873 105.364C107.181 105.364 107.484 105.397 107.783 105.462C108.091 105.518 108.361 105.602 108.595 105.714L108.287 107.198L108.133 107.268C107.657 107.007 107.232 106.876 106.859 106.876C106.429 106.876 106.098 107.03 105.865 107.338C105.631 107.646 105.515 108.085 105.515 108.654C105.515 109.307 105.641 109.807 105.893 110.152C106.145 110.497 106.504 110.67 106.971 110.67C107.391 110.67 107.857 110.553 108.371 110.32L108.511 110.432L108.329 111.874C107.769 112.051 107.195 112.14 106.607 112.14C105.711 112.14 105.011 111.851 104.507 111.272C104.003 110.684 103.751 109.867 103.751 108.822C103.751 107.739 104.026 106.895 104.577 106.288C105.127 105.672 105.893 105.364 106.873 105.364ZM109.711 109.312L109.641 105.616L111.475 105.462L111.391 109.13L111.475 112H109.613L109.711 109.312ZM110.593 102.298C110.883 102.298 111.107 102.382 111.265 102.55C111.433 102.718 111.517 102.951 111.517 103.25C111.517 103.567 111.429 103.819 111.251 104.006C111.074 104.193 110.831 104.286 110.523 104.286C110.215 104.286 109.977 104.202 109.809 104.034C109.651 103.866 109.571 103.628 109.571 103.32C109.571 103.012 109.66 102.765 109.837 102.578C110.024 102.391 110.276 102.298 110.593 102.298ZM115.938 105.364C116.89 105.364 117.618 105.644 118.122 106.204C118.626 106.764 118.878 107.571 118.878 108.626C118.878 109.765 118.607 110.637 118.066 111.244C117.525 111.841 116.745 112.14 115.728 112.14C114.776 112.14 114.048 111.86 113.544 111.3C113.04 110.74 112.788 109.933 112.788 108.878C112.788 107.739 113.059 106.871 113.6 106.274C114.141 105.667 114.921 105.364 115.938 105.364ZM115.812 106.624C115.364 106.624 115.037 106.773 114.832 107.072C114.636 107.371 114.538 107.851 114.538 108.514C114.538 109.373 114.641 109.984 114.846 110.348C115.051 110.712 115.387 110.894 115.854 110.894C116.302 110.894 116.624 110.749 116.82 110.46C117.025 110.161 117.128 109.676 117.128 109.004C117.128 108.155 117.021 107.548 116.806 107.184C116.601 106.811 116.269 106.624 115.812 106.624ZM122.338 105.378C122.972 105.378 123.57 105.485 124.13 105.7L123.878 107.072L123.654 107.142C123.383 106.965 123.112 106.829 122.842 106.736C122.571 106.643 122.333 106.596 122.128 106.596C121.904 106.596 121.726 106.657 121.596 106.778C121.465 106.89 121.4 107.03 121.4 107.198C121.4 107.394 121.484 107.553 121.652 107.674C121.829 107.795 122.104 107.931 122.478 108.08C122.851 108.229 123.159 108.374 123.402 108.514C123.644 108.654 123.85 108.85 124.018 109.102C124.195 109.345 124.284 109.648 124.284 110.012C124.284 110.385 124.186 110.735 123.99 111.062C123.803 111.379 123.514 111.641 123.122 111.846C122.73 112.042 122.249 112.14 121.68 112.14C121.008 112.14 120.312 112 119.594 111.72L119.804 110.264L119.986 110.152C120.275 110.395 120.597 110.591 120.952 110.74C121.306 110.88 121.619 110.95 121.89 110.95C122.142 110.95 122.338 110.889 122.478 110.768C122.618 110.637 122.688 110.483 122.688 110.306C122.688 110.11 122.599 109.951 122.422 109.83C122.254 109.709 121.983 109.573 121.61 109.424C121.227 109.256 120.914 109.107 120.672 108.976C120.429 108.836 120.219 108.64 120.042 108.388C119.874 108.136 119.79 107.823 119.79 107.45C119.79 106.843 120.018 106.349 120.476 105.966C120.933 105.574 121.554 105.378 122.338 105.378ZM126.497 110.152C126.917 110.488 127.127 110.889 127.127 111.356C127.127 112.168 126.562 112.975 125.433 113.778L124.831 113.246L124.817 113.106C125.33 112.677 125.587 112.219 125.587 111.734C125.587 111.417 125.438 111.137 125.139 110.894L125.153 110.74C125.582 110.479 126.03 110.283 126.497 110.152ZM26.1103 121.364C26.829 121.364 27.389 121.527 27.7903 121.854C28.201 122.171 28.4063 122.619 28.4063 123.198C28.4063 123.366 28.3783 123.898 28.3223 124.794C28.313 125.055 28.299 125.326 28.2803 125.606C28.2617 125.877 28.2523 126.11 28.2523 126.306C28.2523 126.465 28.2757 126.577 28.3223 126.642C28.369 126.698 28.453 126.726 28.5743 126.726C28.6677 126.726 28.789 126.707 28.9383 126.67L29.0783 126.782L28.9103 127.762C28.6117 127.958 28.271 128.075 27.8883 128.112C27.6083 128.084 27.375 127.986 27.1883 127.818C27.0017 127.641 26.8757 127.398 26.8103 127.09H26.7123C26.2457 127.585 25.765 127.93 25.2703 128.126C24.5983 128.117 24.071 127.939 23.6883 127.594C23.3057 127.249 23.1143 126.777 23.1143 126.18C23.1143 125.713 23.231 125.349 23.4643 125.088C23.707 124.817 24.071 124.635 24.5563 124.542L26.6983 124.136V123.562C26.6983 122.955 26.3997 122.652 25.8023 122.652C25.513 122.652 25.205 122.717 24.8783 122.848C24.561 122.979 24.2017 123.184 23.8003 123.464L23.6603 123.38L23.4503 122.148C23.8517 121.896 24.281 121.705 24.7383 121.574C25.1957 121.434 25.653 121.364 26.1103 121.364ZM25.2003 125.396C25.051 125.433 24.939 125.499 24.8643 125.592C24.799 125.676 24.7663 125.807 24.7663 125.984C24.7663 126.227 24.8317 126.418 24.9623 126.558C25.093 126.689 25.275 126.754 25.5083 126.754C25.8723 126.754 26.255 126.539 26.6563 126.11L26.6843 125.074L25.2003 125.396ZM32.1086 125.13L32.2066 128H30.3446L30.4426 125.298L30.3586 118.312L32.2206 118.172L32.1086 125.13ZM34.0923 125.312L34.0223 121.616L35.8563 121.462L35.7723 125.13L35.8563 128H33.9943L34.0923 125.312ZM34.9743 118.298C35.2636 118.298 35.4876 118.382 35.6463 118.55C35.8143 118.718 35.8983 118.951 35.8983 119.25C35.8983 119.567 35.8096 119.819 35.6323 120.006C35.455 120.193 35.2123 120.286 34.9043 120.286C34.5963 120.286 34.3583 120.202 34.1903 120.034C34.0316 119.866 33.9523 119.628 33.9523 119.32C33.9523 119.012 34.041 118.765 34.2183 118.578C34.405 118.391 34.657 118.298 34.9743 118.298ZM45.4147 128L45.5267 123.94C45.5267 123.249 45.2327 122.904 44.6447 122.904C44.2247 122.904 43.786 123.091 43.3287 123.464L43.2867 125.144L43.3707 128H41.5087L41.6207 123.94C41.63 123.604 41.5554 123.347 41.3967 123.17C41.2474 122.993 41.028 122.904 40.7387 122.904C40.328 122.904 39.8754 123.1 39.3807 123.492V125.13L39.4647 128H37.6167L37.7147 125.312L37.6447 121.616L39.3947 121.462V122.414H39.4927C40.006 121.947 40.5707 121.611 41.1867 121.406C42.232 121.406 42.8994 121.756 43.1887 122.456H43.2727C43.8047 121.961 44.4114 121.611 45.0927 121.406C45.802 121.406 46.3387 121.569 46.7027 121.896C47.076 122.213 47.2534 122.675 47.2347 123.282L47.1927 125.144L47.2767 128H45.4147ZM53.9497 124.976L50.1697 125.004C50.2537 126.171 50.8463 126.754 51.9477 126.754C52.5263 126.754 53.1703 126.591 53.8797 126.264L54.0337 126.362L53.7537 127.748C53.0443 128.009 52.377 128.14 51.7517 128.14C50.725 128.14 49.9177 127.841 49.3297 127.244C48.751 126.647 48.4617 125.821 48.4617 124.766C48.4617 123.721 48.7463 122.895 49.3157 122.288C49.885 121.672 50.655 121.364 51.6257 121.364C52.4563 121.364 53.0957 121.593 53.5437 122.05C54.001 122.498 54.2297 123.128 54.2297 123.94C54.2297 124.155 54.2063 124.425 54.1597 124.752L53.9497 124.976ZM52.6057 123.73C52.6057 123.357 52.5217 123.077 52.3537 122.89C52.1857 122.694 51.9383 122.596 51.6117 122.596C51.2477 122.596 50.9443 122.717 50.7017 122.96C50.459 123.193 50.2957 123.534 50.2117 123.982L52.5777 123.926L52.6057 123.73ZM59.5172 123.94C59.5265 123.613 59.4518 123.361 59.2932 123.184C59.1438 122.997 58.9245 122.904 58.6352 122.904C58.2152 122.904 57.7672 123.105 57.2912 123.506V125.13L57.3752 128H55.5132L55.6112 125.312L55.5412 121.616L57.3052 121.462V122.414H57.4032C57.9165 121.947 58.4765 121.611 59.0832 121.406C59.7925 121.406 60.3338 121.569 60.7072 121.896C61.0805 122.213 61.2578 122.675 61.2392 123.282L61.1972 125.144L61.2812 128H59.4052L59.5172 123.94ZM65.5553 126.628C65.854 126.628 66.1667 126.549 66.4933 126.39L66.6473 126.53L66.4653 127.636C65.9893 127.879 65.504 128.028 65.0093 128.084C63.7493 127.953 63.1193 127.337 63.1193 126.236L63.1893 125.074L63.1753 122.666H62.3073L62.2373 122.568L62.3353 121.546H63.1613V120.468L64.8553 119.922L64.9813 120.034L64.9393 121.546H66.6053L66.6613 121.644L66.5773 122.666H64.9113L64.8273 125.802C64.8273 126.101 64.8833 126.315 64.9953 126.446C65.1073 126.567 65.294 126.628 65.5553 126.628ZM70.2158 121.364C70.9345 121.364 71.4945 121.527 71.8958 121.854C72.3065 122.171 72.5118 122.619 72.5118 123.198C72.5118 123.366 72.4838 123.898 72.4278 124.794C72.4185 125.055 72.4045 125.326 72.3858 125.606C72.3671 125.877 72.3578 126.11 72.3578 126.306C72.3578 126.465 72.3811 126.577 72.4278 126.642C72.4745 126.698 72.5585 126.726 72.6798 126.726C72.7731 126.726 72.8945 126.707 73.0438 126.67L73.1838 126.782L73.0158 127.762C72.7171 127.958 72.3765 128.075 71.9938 128.112C71.7138 128.084 71.4805 127.986 71.2938 127.818C71.1071 127.641 70.9811 127.398 70.9158 127.09H70.8178C70.3511 127.585 69.8705 127.93 69.3758 128.126C68.7038 128.117 68.1765 127.939 67.7938 127.594C67.4111 127.249 67.2198 126.777 67.2198 126.18C67.2198 125.713 67.3365 125.349 67.5698 125.088C67.8125 124.817 68.1765 124.635 68.6618 124.542L70.8038 124.136V123.562C70.8038 122.955 70.5051 122.652 69.9078 122.652C69.6185 122.652 69.3105 122.717 68.9838 122.848C68.6665 122.979 68.3071 123.184 67.9058 123.464L67.7658 123.38L67.5558 122.148C67.9571 121.896 68.3865 121.705 68.8438 121.574C69.3011 121.434 69.7585 121.364 70.2158 121.364ZM69.3058 125.396C69.1565 125.433 69.0445 125.499 68.9698 125.592C68.9045 125.676 68.8718 125.807 68.8718 125.984C68.8718 126.227 68.9371 126.418 69.0678 126.558C69.1985 126.689 69.3805 126.754 69.6138 126.754C69.9778 126.754 70.3605 126.539 70.7618 126.11L70.7898 125.074L69.3058 125.396ZM77.068 121.364C77.376 121.364 77.6794 121.397 77.978 121.462C78.286 121.518 78.5567 121.602 78.79 121.714L78.482 123.198L78.328 123.268C77.852 123.007 77.4274 122.876 77.054 122.876C76.6247 122.876 76.2934 123.03 76.06 123.338C75.8267 123.646 75.71 124.085 75.71 124.654C75.71 125.307 75.836 125.807 76.088 126.152C76.34 126.497 76.6994 126.67 77.166 126.67C77.586 126.67 78.0527 126.553 78.566 126.32L78.706 126.432L78.524 127.874C77.964 128.051 77.39 128.14 76.802 128.14C75.906 128.14 75.206 127.851 74.702 127.272C74.198 126.684 73.946 125.867 73.946 124.822C73.946 123.739 74.2214 122.895 74.772 122.288C75.3227 121.672 76.088 121.364 77.068 121.364ZM77.054 128.672L77.53 128.938C77.7354 129.05 77.88 129.171 77.964 129.302C78.0574 129.442 78.104 129.596 78.104 129.764C78.104 130.072 77.9827 130.324 77.74 130.52C77.4974 130.716 77.18 130.814 76.788 130.814C76.368 130.814 75.9854 130.683 75.64 130.422L75.766 129.638L75.85 129.596C76.13 129.876 76.4054 130.016 76.676 130.016C76.9 130.016 77.012 129.918 77.012 129.722C77.012 129.657 76.9934 129.601 76.956 129.554C76.9187 129.517 76.858 129.479 76.774 129.442L76.088 129.05L76.41 127.636H77.306L77.054 128.672ZM82.206 121.364C82.9247 121.364 83.4847 121.527 83.886 121.854C84.2967 122.171 84.502 122.619 84.502 123.198C84.502 123.366 84.474 123.898 84.418 124.794C84.4087 125.055 84.3947 125.326 84.376 125.606C84.3574 125.877 84.348 126.11 84.348 126.306C84.348 126.465 84.3714 126.577 84.418 126.642C84.4647 126.698 84.5487 126.726 84.67 126.726C84.7634 126.726 84.8847 126.707 85.034 126.67L85.174 126.782L85.006 127.762C84.7074 127.958 84.3667 128.075 83.984 128.112C83.704 128.084 83.4707 127.986 83.284 127.818C83.0974 127.641 82.9714 127.398 82.906 127.09H82.808C82.3414 127.585 81.8607 127.93 81.366 128.126C80.694 128.117 80.1667 127.939 79.784 127.594C79.4014 127.249 79.21 126.777 79.21 126.18C79.21 125.713 79.3267 125.349 79.56 125.088C79.8027 124.817 80.1667 124.635 80.652 124.542L82.794 124.136V123.562C82.794 122.955 82.4954 122.652 81.898 122.652C81.6087 122.652 81.3007 122.717 80.974 122.848C80.6567 122.979 80.2974 123.184 79.896 123.464L79.756 123.38L79.546 122.148C79.9474 121.896 80.3767 121.705 80.834 121.574C81.2914 121.434 81.7487 121.364 82.206 121.364ZM81.296 125.396C81.1467 125.433 81.0347 125.499 80.96 125.592C80.8947 125.676 80.862 125.807 80.862 125.984C80.862 126.227 80.9274 126.418 81.058 126.558C81.1887 126.689 81.3707 126.754 81.604 126.754C81.968 126.754 82.3507 126.539 82.752 126.11L82.78 125.074L81.296 125.396ZM84.502 118.732V118.886L83.522 120.132L83.34 120.202C83.088 120.174 82.7007 120.085 82.178 119.936C82.1314 119.927 81.9774 119.889 81.716 119.824C81.464 119.749 81.2867 119.712 81.184 119.712C81.0814 119.712 80.9787 119.754 80.876 119.838C80.7827 119.922 80.68 120.025 80.568 120.146C80.456 120.267 80.372 120.361 80.316 120.426H80.148L79.588 119.88V119.726L80.582 118.48L80.75 118.41C80.974 118.438 81.3707 118.531 81.94 118.69C82.4627 118.83 82.7847 118.9 82.906 118.9C83.018 118.9 83.1254 118.853 83.228 118.76C83.34 118.667 83.452 118.559 83.564 118.438C83.676 118.317 83.7507 118.233 83.788 118.186H83.956L84.502 118.732ZM89.0863 121.364C90.0383 121.364 90.7663 121.644 91.2703 122.204C91.7743 122.764 92.0263 123.571 92.0263 124.626C92.0263 125.765 91.7556 126.637 91.2143 127.244C90.6729 127.841 89.8936 128.14 88.8763 128.14C87.9243 128.14 87.1963 127.86 86.6923 127.3C86.1883 126.74 85.9363 125.933 85.9363 124.878C85.9363 123.739 86.2069 122.871 86.7483 122.274C87.2896 121.667 88.0689 121.364 89.0863 121.364ZM88.9603 122.624C88.5123 122.624 88.1856 122.773 87.9803 123.072C87.7843 123.371 87.6863 123.851 87.6863 124.514C87.6863 125.373 87.7889 125.984 87.9943 126.348C88.1996 126.712 88.5356 126.894 89.0023 126.894C89.4503 126.894 89.7723 126.749 89.9683 126.46C90.1736 126.161 90.2763 125.676 90.2763 125.004C90.2763 124.155 90.1689 123.548 89.9543 123.184C89.7489 122.811 89.4176 122.624 88.9603 122.624ZM97.6054 121.378C98.24 121.378 98.8374 121.485 99.3974 121.7L99.1454 123.072L98.9214 123.142C98.6507 122.965 98.38 122.829 98.1094 122.736C97.8387 122.643 97.6007 122.596 97.3954 122.596C97.1714 122.596 96.994 122.657 96.8634 122.778C96.7327 122.89 96.6674 123.03 96.6674 123.198C96.6674 123.394 96.7514 123.553 96.9194 123.674C97.0967 123.795 97.372 123.931 97.7454 124.08C98.1187 124.229 98.4267 124.374 98.6694 124.514C98.912 124.654 99.1174 124.85 99.2854 125.102C99.4627 125.345 99.5514 125.648 99.5514 126.012C99.5514 126.385 99.4534 126.735 99.2574 127.062C99.0707 127.379 98.7814 127.641 98.3894 127.846C97.9974 128.042 97.5167 128.14 96.9474 128.14C96.2754 128.14 95.58 128 94.8614 127.72L95.0714 126.264L95.2534 126.152C95.5427 126.395 95.8647 126.591 96.2194 126.74C96.574 126.88 96.8867 126.95 97.1574 126.95C97.4094 126.95 97.6054 126.889 97.7454 126.768C97.8854 126.637 97.9554 126.483 97.9554 126.306C97.9554 126.11 97.8667 125.951 97.6894 125.83C97.5214 125.709 97.2507 125.573 96.8774 125.424C96.4947 125.256 96.182 125.107 95.9394 124.976C95.6967 124.836 95.4867 124.64 95.3094 124.388C95.1414 124.136 95.0574 123.823 95.0574 123.45C95.0574 122.843 95.286 122.349 95.7434 121.966C96.2007 121.574 96.8214 121.378 97.6054 121.378ZM103.356 121.364C104.075 121.364 104.635 121.527 105.036 121.854C105.447 122.171 105.652 122.619 105.652 123.198C105.652 123.366 105.624 123.898 105.568 124.794C105.559 125.055 105.545 125.326 105.526 125.606C105.508 125.877 105.498 126.11 105.498 126.306C105.498 126.465 105.522 126.577 105.568 126.642C105.615 126.698 105.699 126.726 105.82 126.726C105.914 126.726 106.035 126.707 106.184 126.67L106.324 126.782L106.156 127.762C105.858 127.958 105.517 128.075 105.134 128.112C104.854 128.084 104.621 127.986 104.434 127.818C104.248 127.641 104.122 127.398 104.056 127.09H103.958C103.492 127.585 103.011 127.93 102.516 128.126C101.844 128.117 101.317 127.939 100.934 127.594C100.552 127.249 100.36 126.777 100.36 126.18C100.36 125.713 100.477 125.349 100.71 125.088C100.953 124.817 101.317 124.635 101.802 124.542L103.944 124.136V123.562C103.944 122.955 103.646 122.652 103.048 122.652C102.759 122.652 102.451 122.717 102.124 122.848C101.807 122.979 101.448 123.184 101.046 123.464L100.906 123.38L100.696 122.148C101.098 121.896 101.527 121.705 101.984 121.574C102.442 121.434 102.899 121.364 103.356 121.364ZM102.446 125.396C102.297 125.433 102.185 125.499 102.11 125.592C102.045 125.676 102.012 125.807 102.012 125.984C102.012 126.227 102.078 126.418 102.208 126.558C102.339 126.689 102.521 126.754 102.754 126.754C103.118 126.754 103.501 126.539 103.902 126.11L103.93 125.074L102.446 125.396ZM113.751 126.782L113.583 127.762C113.237 127.986 112.883 128.103 112.519 128.112C112.248 128.065 112.024 127.958 111.847 127.79C111.669 127.622 111.534 127.379 111.441 127.062H111.315C110.783 127.585 110.232 127.925 109.663 128.084C108.953 128.084 108.412 127.925 108.039 127.608C107.675 127.281 107.497 126.815 107.507 126.208L107.535 124.556L107.465 121.616L109.271 121.462L109.229 125.592C109.219 125.919 109.285 126.166 109.425 126.334C109.565 126.502 109.775 126.586 110.055 126.586C110.465 126.586 110.871 126.404 111.273 126.04V121.616L113.051 121.462L112.925 126.306C112.925 126.455 112.948 126.563 112.995 126.628C113.051 126.693 113.135 126.726 113.247 126.726C113.349 126.726 113.475 126.707 113.625 126.67L113.751 126.782ZM120.281 125.13L120.323 126.306C120.323 126.465 120.342 126.577 120.379 126.642C120.426 126.698 120.505 126.726 120.617 126.726C120.72 126.726 120.846 126.707 120.995 126.67L121.121 126.782L120.967 127.762C120.65 127.958 120.304 128.075 119.931 128.112C119.642 128.084 119.399 127.986 119.203 127.818C119.007 127.65 118.872 127.421 118.797 127.132H118.685C118.228 127.552 117.761 127.874 117.285 128.098C116.37 128.098 115.661 127.809 115.157 127.23C114.653 126.642 114.401 125.83 114.401 124.794C114.401 123.693 114.69 122.848 115.269 122.26C115.848 121.672 116.65 121.378 117.677 121.378C117.948 121.378 118.246 121.406 118.573 121.462L118.545 118.312L120.393 118.172L120.281 125.13ZM117.551 122.638C116.618 122.638 116.151 123.231 116.151 124.416C116.151 125.153 116.263 125.709 116.487 126.082C116.711 126.455 117.038 126.642 117.467 126.642C117.878 126.642 118.256 126.451 118.601 126.068L118.629 125.298L118.587 122.89C118.223 122.722 117.878 122.638 117.551 122.638ZM124.78 121.364C125.499 121.364 126.059 121.527 126.46 121.854C126.871 122.171 127.076 122.619 127.076 123.198C127.076 123.366 127.048 123.898 126.992 124.794C126.983 125.055 126.969 125.326 126.95 125.606C126.932 125.877 126.922 126.11 126.922 126.306C126.922 126.465 126.946 126.577 126.992 126.642C127.039 126.698 127.123 126.726 127.244 126.726C127.338 126.726 127.459 126.707 127.608 126.67L127.748 126.782L127.58 127.762C127.282 127.958 126.941 128.075 126.558 128.112C126.278 128.084 126.045 127.986 125.858 127.818C125.672 127.641 125.546 127.398 125.48 127.09H125.382C124.916 127.585 124.435 127.93 123.94 128.126C123.268 128.117 122.741 127.939 122.358 127.594C121.976 127.249 121.784 126.777 121.784 126.18C121.784 125.713 121.901 125.349 122.134 125.088C122.377 124.817 122.741 124.635 123.226 124.542L125.368 124.136V123.562C125.368 122.955 125.07 122.652 124.472 122.652C124.183 122.652 123.875 122.717 123.548 122.848C123.231 122.979 122.872 123.184 122.47 123.464L122.33 123.38L122.12 122.148C122.522 121.896 122.951 121.705 123.408 121.574C123.866 121.434 124.323 121.364 124.78 121.364ZM123.87 125.396C123.721 125.433 123.609 125.499 123.534 125.592C123.469 125.676 123.436 125.807 123.436 125.984C123.436 126.227 123.502 126.418 123.632 126.558C123.763 126.689 123.945 126.754 124.178 126.754C124.542 126.754 124.925 126.539 125.326 126.11L125.354 125.074L123.87 125.396ZM125.998 117.878L126.67 118.886L126.642 119.068C126.437 119.199 126.283 119.292 126.18 119.348C125.014 120.067 124.258 120.524 123.912 120.72L123.73 120.706L123.282 120.006C124.365 119.138 125.21 118.424 125.816 117.864L125.998 117.878ZM130.081 122.526L131.061 126.25H131.159L132.335 122.624L132.573 121.49H134.197L132.013 128H130.011L128.163 121.532L129.899 121.448L130.081 122.526ZM139.973 124.976L136.193 125.004C136.277 126.171 136.87 126.754 137.971 126.754C138.55 126.754 139.194 126.591 139.903 126.264L140.057 126.362L139.777 127.748C139.068 128.009 138.4 128.14 137.775 128.14C136.748 128.14 135.941 127.841 135.353 127.244C134.774 126.647 134.485 125.821 134.485 124.766C134.485 123.721 134.77 122.895 135.339 122.288C135.908 121.672 136.678 121.364 137.649 121.364C138.48 121.364 139.119 121.593 139.567 122.05C140.024 122.498 140.253 123.128 140.253 123.94C140.253 124.155 140.23 124.425 140.183 124.752L139.973 124.976ZM138.629 123.73C138.629 123.357 138.545 123.077 138.377 122.89C138.209 122.694 137.962 122.596 137.635 122.596C137.271 122.596 136.968 122.717 136.725 122.96C136.482 123.193 136.319 123.534 136.235 123.982L138.601 123.926L138.629 123.73ZM143.302 125.13L143.4 128H141.538L141.636 125.298L141.552 118.312L143.414 118.172L143.302 125.13ZM53.7378 140.976L49.9578 141.004C50.0418 142.171 50.6344 142.754 51.7358 142.754C52.3144 142.754 52.9584 142.591 53.6678 142.264L53.8218 142.362L53.5418 143.748C52.8324 144.009 52.1651 144.14 51.5397 144.14C50.5131 144.14 49.7058 143.841 49.1178 143.244C48.5391 142.647 48.2498 141.821 48.2498 140.766C48.2498 139.721 48.5344 138.895 49.1038 138.288C49.6731 137.672 50.4431 137.364 51.4138 137.364C52.2444 137.364 52.8838 137.593 53.3318 138.05C53.7891 138.498 54.0178 139.128 54.0178 139.94C54.0178 140.155 53.9944 140.425 53.9478 140.752L53.7378 140.976ZM52.3938 139.73C52.3938 139.357 52.3098 139.077 52.1418 138.89C51.9738 138.694 51.7264 138.596 51.3998 138.596C51.0358 138.596 50.7324 138.717 50.4898 138.96C50.2471 139.193 50.0838 139.534 49.9998 139.982L52.3658 139.926L52.3938 139.73ZM60.9344 137.406C61.7557 137.406 62.3811 137.686 62.8104 138.246C63.2491 138.797 63.4684 139.567 63.4684 140.556C63.4684 141.704 63.1837 142.591 62.6144 143.216C62.0451 143.832 61.2564 144.14 60.2484 144.14C59.7724 144.14 59.2497 144.033 58.6804 143.818L57.7004 144.168L57.4764 143.986L57.5744 141.326L57.4904 134.312L59.3384 134.172L59.2824 138.414H59.3664C59.6277 138.162 59.8797 137.961 60.1224 137.812C60.3651 137.653 60.6357 137.518 60.9344 137.406ZM60.2484 142.922C60.7151 142.922 61.0791 142.754 61.3404 142.418C61.6017 142.082 61.7324 141.569 61.7324 140.878C61.7324 140.234 61.6251 139.744 61.4104 139.408C61.2051 139.072 60.8924 138.904 60.4724 138.904C60.0897 138.904 59.6884 139.1 59.2684 139.492L59.2404 141.088L59.2684 142.67C59.6137 142.838 59.9404 142.922 60.2484 142.922ZM69.7885 140.976L66.0085 141.004C66.0925 142.171 66.6852 142.754 67.7865 142.754C68.3652 142.754 69.0092 142.591 69.7185 142.264L69.8725 142.362L69.5925 143.748C68.8832 144.009 68.2159 144.14 67.5905 144.14C66.5639 144.14 65.7565 143.841 65.1685 143.244C64.5899 142.647 64.3005 141.821 64.3005 140.766C64.3005 139.721 64.5852 138.895 65.1545 138.288C65.7239 137.672 66.4939 137.364 67.4645 137.364C68.2952 137.364 68.9345 137.593 69.3825 138.05C69.8399 138.498 70.0685 139.128 70.0685 139.94C70.0685 140.155 70.0452 140.425 69.9985 140.752L69.7885 140.976ZM68.4445 139.73C68.4445 139.357 68.3605 139.077 68.1925 138.89C68.0245 138.694 67.7772 138.596 67.4505 138.596C67.0865 138.596 66.7832 138.717 66.5405 138.96C66.2979 139.193 66.1345 139.534 66.0505 139.982L68.4165 139.926L68.4445 139.73ZM74.8114 137.406C75.6327 137.406 76.258 137.686 76.6874 138.246C77.126 138.797 77.3454 139.567 77.3454 140.556C77.3454 141.704 77.0607 142.591 76.4914 143.216C75.922 143.832 75.1334 144.14 74.1254 144.14C73.6494 144.14 73.1267 144.033 72.5574 143.818L71.5774 144.168L71.3534 143.986L71.4514 141.326L71.3674 134.312L73.2154 134.172L73.1594 138.414H73.2434C73.5047 138.162 73.7567 137.961 73.9994 137.812C74.242 137.653 74.5127 137.518 74.8114 137.406ZM74.1254 142.922C74.592 142.922 74.956 142.754 75.2174 142.418C75.4787 142.082 75.6094 141.569 75.6094 140.878C75.6094 140.234 75.502 139.744 75.2874 139.408C75.082 139.072 74.7694 138.904 74.3494 138.904C73.9667 138.904 73.5654 139.1 73.1454 139.492L73.1174 141.088L73.1454 142.67C73.4907 142.838 73.8174 142.922 74.1254 142.922ZM83.6655 140.976L79.8855 141.004C79.9695 142.171 80.5622 142.754 81.6635 142.754C82.2422 142.754 82.8862 142.591 83.5955 142.264L83.7495 142.362L83.4695 143.748C82.7602 144.009 82.0928 144.14 81.4675 144.14C80.4408 144.14 79.6335 143.841 79.0455 143.244C78.4668 142.647 78.1775 141.821 78.1775 140.766C78.1775 139.721 78.4622 138.895 79.0315 138.288C79.6008 137.672 80.3708 137.364 81.3415 137.364C82.1722 137.364 82.8115 137.593 83.2595 138.05C83.7168 138.498 83.9455 139.128 83.9455 139.94C83.9455 140.155 83.9222 140.425 83.8755 140.752L83.6655 140.976ZM82.3215 139.73C82.3215 139.357 82.2375 139.077 82.0695 138.89C81.9015 138.694 81.6542 138.596 81.3275 138.596C80.9635 138.596 80.6602 138.717 80.4175 138.96C80.1748 139.193 80.0115 139.534 79.9275 139.982L82.2935 139.926L82.3215 139.73ZM88.827 137.476C88.911 137.476 89.0277 137.485 89.177 137.504V139.226L88.981 139.296C88.8223 139.231 88.6497 139.198 88.463 139.198C87.9217 139.198 87.4317 139.548 86.993 140.248V141.13L87.091 144H85.229L85.341 141.312L85.257 137.616L87.021 137.462L87.007 138.736H87.119C87.5763 137.896 88.1457 137.476 88.827 137.476ZM94.7773 137.364C95.496 137.364 96.056 137.527 96.4573 137.854C96.868 138.171 97.0733 138.619 97.0733 139.198C97.0733 139.366 97.0453 139.898 96.9893 140.794C96.98 141.055 96.966 141.326 96.9473 141.606C96.9287 141.877 96.9193 142.11 96.9193 142.306C96.9193 142.465 96.9427 142.577 96.9893 142.642C97.036 142.698 97.12 142.726 97.2413 142.726C97.3347 142.726 97.456 142.707 97.6053 142.67L97.7453 142.782L97.5773 143.762C97.2787 143.958 96.938 144.075 96.5553 144.112C96.2753 144.084 96.042 143.986 95.8553 143.818C95.6687 143.641 95.5427 143.398 95.4773 143.09H95.3793C94.9127 143.585 94.432 143.93 93.9373 144.126C93.2653 144.117 92.738 143.939 92.3553 143.594C91.9727 143.249 91.7813 142.777 91.7813 142.18C91.7813 141.713 91.898 141.349 92.1313 141.088C92.374 140.817 92.738 140.635 93.2233 140.542L95.3653 140.136V139.562C95.3653 138.955 95.0667 138.652 94.4693 138.652C94.18 138.652 93.872 138.717 93.5453 138.848C93.228 138.979 92.8687 139.184 92.4673 139.464L92.3273 139.38L92.1173 138.148C92.5187 137.896 92.948 137.705 93.4053 137.574C93.8627 137.434 94.32 137.364 94.7773 137.364ZM93.8673 141.396C93.718 141.433 93.606 141.499 93.5313 141.592C93.466 141.676 93.4333 141.807 93.4333 141.984C93.4333 142.227 93.4987 142.418 93.6293 142.558C93.76 142.689 93.942 142.754 94.1753 142.754C94.5393 142.754 94.922 142.539 95.3233 142.11L95.3513 141.074L93.8673 141.396ZM95.9953 133.878L96.6673 134.886L96.6393 135.068C96.434 135.199 96.28 135.292 96.1773 135.348C95.0107 136.067 94.2547 136.524 93.9093 136.72L93.7273 136.706L93.2793 136.006C94.362 135.138 95.2067 134.424 95.8133 133.864L95.9953 133.878ZM105.214 138.372C104.962 138.437 104.602 138.507 104.136 138.582L104.108 138.638C104.248 138.918 104.318 139.231 104.318 139.576C104.318 140.276 104.061 140.836 103.548 141.256C103.044 141.667 102.358 141.872 101.49 141.872C101.228 141.872 100.958 141.849 100.678 141.802C100.594 141.886 100.538 141.951 100.51 141.998C100.482 142.045 100.468 142.101 100.468 142.166C100.468 142.334 100.58 142.451 100.804 142.516C101.028 142.581 101.382 142.647 101.868 142.712C102.418 142.777 102.876 142.857 103.24 142.95C103.613 143.043 103.93 143.207 104.192 143.44C104.462 143.673 104.598 144.005 104.598 144.434C104.598 144.873 104.458 145.265 104.178 145.61C103.907 145.965 103.529 146.24 103.044 146.436C102.558 146.632 102.008 146.73 101.392 146.73C100.542 146.73 99.8889 146.557 99.4316 146.212C98.9742 145.867 98.7456 145.409 98.7456 144.84C99.0349 144.439 99.4222 144.089 99.9076 143.79V143.72C99.5902 143.608 99.3429 143.454 99.1656 143.258C98.9882 143.053 98.8996 142.782 98.8996 142.446C99.1516 142.138 99.4689 141.853 99.8516 141.592V141.522C99.5156 141.335 99.2589 141.093 99.0816 140.794C98.9136 140.486 98.8296 140.127 98.8296 139.716C98.8296 138.988 99.0816 138.419 99.5856 138.008C100.09 137.597 100.776 137.392 101.644 137.392C102.148 137.392 102.605 137.476 103.016 137.644C103.688 137.523 104.374 137.336 105.074 137.084L105.214 137.21V138.372ZM101.546 140.752C101.928 140.752 102.218 140.654 102.414 140.458C102.61 140.262 102.708 139.977 102.708 139.604C102.708 138.895 102.344 138.54 101.616 138.54C100.832 138.54 100.44 138.899 100.44 139.618C100.44 139.991 100.533 140.276 100.72 140.472C100.906 140.659 101.182 140.752 101.546 140.752ZM103.03 144.77C103.03 144.518 102.894 144.345 102.624 144.252C102.362 144.159 101.956 144.079 101.406 144.014L100.93 143.944C100.706 144.093 100.538 144.238 100.426 144.378C100.314 144.518 100.258 144.667 100.258 144.826C100.258 145.069 100.37 145.265 100.594 145.414C100.818 145.563 101.144 145.638 101.574 145.638C102.012 145.638 102.362 145.559 102.624 145.4C102.894 145.251 103.03 145.041 103.03 144.77ZM112.172 142.782L112.004 143.762C111.658 143.986 111.304 144.103 110.94 144.112C110.669 144.065 110.445 143.958 110.268 143.79C110.09 143.622 109.955 143.379 109.862 143.062H109.736C109.204 143.585 108.653 143.925 108.084 144.084C107.374 144.084 106.833 143.925 106.46 143.608C106.096 143.281 105.918 142.815 105.928 142.208L105.956 140.556L105.886 137.616L107.692 137.462L107.65 141.592C107.64 141.919 107.706 142.166 107.846 142.334C107.986 142.502 108.196 142.586 108.476 142.586C108.886 142.586 109.292 142.404 109.694 142.04V137.616L111.472 137.462L111.346 142.306C111.346 142.455 111.369 142.563 111.416 142.628C111.472 142.693 111.556 142.726 111.668 142.726C111.77 142.726 111.896 142.707 112.046 142.67L112.172 142.782ZM115.832 137.364C116.551 137.364 117.111 137.527 117.512 137.854C117.923 138.171 118.128 138.619 118.128 139.198C118.128 139.366 118.1 139.898 118.044 140.794C118.035 141.055 118.021 141.326 118.002 141.606C117.983 141.877 117.974 142.11 117.974 142.306C117.974 142.465 117.997 142.577 118.044 142.642C118.091 142.698 118.175 142.726 118.296 142.726C118.389 142.726 118.511 142.707 118.66 142.67L118.8 142.782L118.632 143.762C118.333 143.958 117.993 144.075 117.61 144.112C117.33 144.084 117.097 143.986 116.91 143.818C116.723 143.641 116.597 143.398 116.532 143.09H116.434C115.967 143.585 115.487 143.93 114.992 144.126C114.32 144.117 113.793 143.939 113.41 143.594C113.027 143.249 112.836 142.777 112.836 142.18C112.836 141.713 112.953 141.349 113.186 141.088C113.429 140.817 113.793 140.635 114.278 140.542L116.42 140.136V139.562C116.42 138.955 116.121 138.652 115.524 138.652C115.235 138.652 114.927 138.717 114.6 138.848C114.283 138.979 113.923 139.184 113.522 139.464L113.382 139.38L113.172 138.148C113.573 137.896 114.003 137.705 114.46 137.574C114.917 137.434 115.375 137.364 115.832 137.364ZM114.922 141.396C114.773 141.433 114.661 141.499 114.586 141.592C114.521 141.676 114.488 141.807 114.488 141.984C114.488 142.227 114.553 142.418 114.684 142.558C114.815 142.689 114.997 142.754 115.23 142.754C115.594 142.754 115.977 142.539 116.378 142.11L116.406 141.074L114.922 141.396Z" fill="white"/>
<defs>
<filter id="filter0_b_206:37021" x="3" y="67" width="161" height="97" filterUnits="userSpaceOnUse" color-interpolation-filters="sRGB">
<feFlood flood-opacity="0" result="BackgroundImageFix"/>
<feGaussianBlur in="BackgroundImage" stdDeviation="5"/>
<feComposite in2="SourceAlpha" operator="in" result="effect1_backgroundBlur_206:37021"/>
<feBlend mode="normal" in="SourceGraphic" in2="effect1_backgroundBlur_206:37021" result="shape"/>
</filter>
</defs>
</svg>
