<svg width="167" height="167" viewBox="0 0 167 167" fill="none" xmlns="http://www.w3.org/2000/svg">
<mask id="mask0_206:36988" style="mask-type:alpha" maskUnits="userSpaceOnUse" x="0" y="0" width="167" height="167">
<rect x="1" y="1" width="165" height="165" rx="8" fill="#5988D6" stroke="#EDE6FC" stroke-opacity="0.3"/>
</mask>
<g mask="url(#mask0_206:36988)">
<rect x="1" y="1" width="165" height="165" rx="8" fill="#A97AD9" stroke="#EDE6FC" stroke-opacity="0.3"/>
<path d="M111.862 72.4838L111.182 72.8837C110.906 72.6345 110.604 72.4163 110.28 72.2329L79.7568 54.6083C76.7824 52.8911 71.5392 53.108 68.1047 55.0919L58.9226 60.4082C58.2598 60.7796 57.6593 61.2523 57.1426 61.8092L56.5048 61.4093C56.5048 61.4093 55.1849 63.354 56.3898 65.4711C56.3898 65.4711 56.3898 65.4868 56.4107 65.4999C56.8024 66.1927 57.3836 66.7594 58.0862 67.1335L88.607 84.758C91.5841 86.4753 96.8273 86.2583 100.262 84.2745L109.444 78.9659C110.401 78.4534 111.21 77.7048 111.796 76.7913L111.82 76.7625C112.225 76.124 112.443 75.3851 112.45 74.6291C112.458 73.8732 112.254 73.1302 111.862 72.4838Z" fill="#BC9B96"/>
<path d="M88.6071 83.4746L58.0862 65.8501C55.1118 64.1328 55.4881 61.1061 58.9226 59.1222L68.1048 53.8215C71.5393 51.8377 76.7825 51.6207 79.7569 53.338L110.28 70.96C113.255 72.6772 112.878 75.7065 109.444 77.6878L100.262 82.9911C96.8274 84.9776 91.5842 85.1919 88.6071 83.4746Z" fill="#DEC9C5"/>
<path d="M65.4153 62.7815C63.5857 62.7815 62.1194 61.9974 62.1194 61.0303V63.3434C62.1194 64.3105 63.5962 65.0947 65.4153 65.0947C67.2345 65.0947 68.7087 64.3105 68.7087 63.3434V61.0303C68.7087 61.9974 67.2345 62.7815 65.4153 62.7815Z" fill="#399EE2"/>
<path d="M65.4153 59.2765C63.5857 59.2765 62.1194 60.0606 62.1194 61.0303C62.1194 62 63.5962 62.7815 65.4153 62.7815C67.2345 62.7815 68.7087 61.9974 68.7087 61.0303C68.7087 60.0632 67.2345 59.2765 65.4153 59.2765Z" fill="#65B6F8"/>
<path opacity="0.5" d="M65.4154 63.1605C62.8958 63.1605 60.8518 62.0732 60.8518 60.7324V63.9368C60.8518 65.2777 62.8958 66.365 65.4154 66.365C67.9351 66.365 69.9764 65.2777 69.9764 63.9368V60.7324C69.9764 62.0732 67.9351 63.1605 65.4154 63.1605Z" fill="#E6F3FF"/>
<path opacity="0.5" d="M65.4154 58.3172C62.8958 58.3172 60.8518 59.4019 60.8518 60.7428C60.8518 62.0836 62.8958 63.171 65.4154 63.171C67.9351 63.171 69.9764 62.0732 69.9764 60.7323C69.9764 59.3915 67.9351 58.3172 65.4154 58.3172Z" fill="white"/>
<path d="M74.5399 57.4546C72.7103 57.4546 71.2466 56.6705 71.2466 55.7034V58.014C71.2466 58.9837 72.7207 59.7678 74.5399 59.7678C76.3591 59.7678 77.8359 58.9837 77.8359 58.014V55.7034C77.8359 56.6705 76.3617 57.4546 74.5399 57.4546Z" fill="#399EE2"/>
<path d="M74.5399 53.9496C72.7103 53.9496 71.2466 54.7338 71.2466 55.7035C71.2466 56.6732 72.7207 57.4547 74.5399 57.4547C76.3591 57.4547 77.8359 56.6706 77.8359 55.7035C77.8359 54.7364 76.3617 53.9496 74.5399 53.9496Z" fill="#65B6F8"/>
<path opacity="0.5" d="M74.54 57.8337C72.0203 57.8337 69.979 56.7464 69.979 55.4055V58.61C69.979 59.9482 72.0203 61.0356 74.54 61.0356C77.0597 61.0356 79.1036 59.9482 79.1036 58.61V55.4055C79.1036 56.749 77.0623 57.8337 74.54 57.8337Z" fill="#E6F3FF"/>
<path opacity="0.5" d="M74.54 52.9773C72.0203 52.9773 69.979 54.0646 69.979 55.4055C69.979 56.7463 72.0203 57.8337 74.54 57.8337C77.0597 57.8337 79.1036 56.7463 79.1036 55.4055C79.1036 54.0646 77.0623 52.9773 74.54 52.9773Z" fill="white"/>
<path d="M75.0577 68.2051C73.228 68.2051 71.7617 67.4209 71.7617 66.4539V68.7723C71.7617 69.7394 73.2385 70.5235 75.0577 70.5235C76.8769 70.5235 78.351 69.7394 78.351 68.7723V66.4591C78.3406 67.4209 76.8769 68.2051 75.0577 68.2051Z" fill="#399EE2"/>
<path d="M75.0577 64.7C73.228 64.7 71.7617 65.4841 71.7617 66.4538C71.7617 67.4236 73.2385 68.2051 75.0577 68.2051C76.8769 68.2051 78.351 67.4209 78.351 66.4538C78.351 65.4868 76.8769 64.7 75.0577 64.7Z" fill="#65B6F8"/>
<path opacity="0.5" d="M75.0575 68.5841C72.5352 68.5841 70.4939 67.4967 70.4939 66.1559V69.3604C70.4939 70.7012 72.5352 71.7885 75.0575 71.7885C77.5798 71.7885 79.6211 70.7012 79.6211 69.3604V66.1585C79.6211 67.4967 77.5772 68.5841 75.0575 68.5841Z" fill="#E6F3FF"/>
<path opacity="0.5" d="M75.0575 63.7303C72.5352 63.7303 70.4939 64.8151 70.4939 66.1559C70.4939 67.4968 72.5352 68.5841 75.0575 68.5841C77.5798 68.5841 79.6211 67.4968 79.6211 66.1559C79.6211 64.8151 77.5772 63.7303 75.0575 63.7303Z" fill="white"/>
<path d="M84.182 62.8782C82.3524 62.8782 80.8887 62.0941 80.8887 61.127V63.4376C80.8887 64.4073 82.3628 65.1914 84.182 65.1914C86.0012 65.1914 87.478 64.4073 87.478 63.4376V61.127C87.4884 62.0941 86.0012 62.8782 84.182 62.8782Z" fill="#399EE2"/>
<path d="M84.182 59.3627C82.3524 59.3627 80.8887 60.1469 80.8887 61.1166C80.8887 62.0863 82.3628 62.8678 84.182 62.8678C86.0012 62.8678 87.478 62.0837 87.478 61.1166C87.478 60.1495 86.0012 59.3627 84.182 59.3627Z" fill="#65B6F8"/>
<path opacity="0.5" d="M84.1821 63.2572C81.6624 63.2572 79.6211 62.1699 79.6211 60.829V64.0335C79.6211 65.3744 81.6624 66.4591 84.1821 66.4591C86.7018 66.4591 88.7457 65.3744 88.7457 64.0335V60.829C88.7457 62.1699 86.7044 63.2572 84.1821 63.2572Z" fill="#E6F3FF"/>
<path opacity="0.5" d="M84.1821 58.4034C81.6624 58.4034 79.6211 59.4882 79.6211 60.829C79.6211 62.1699 81.6624 63.2572 84.1821 63.2572C86.7018 63.2572 88.7457 62.1699 88.7457 60.829C88.7457 59.4882 86.7044 58.4034 84.1821 58.4034Z" fill="white"/>
<path d="M84.6998 73.6286C82.8701 73.6286 81.4038 72.8445 81.4038 71.8774V74.1906C81.4038 75.1577 82.8806 75.9418 84.6998 75.9418C86.5189 75.9418 87.9931 75.1577 87.9931 74.1906V71.8774C87.9931 72.8445 86.5189 73.6286 84.6998 73.6286Z" fill="#399EE2"/>
<path d="M84.6998 70.1262C82.8701 70.1262 81.4038 70.9103 81.4038 71.8774C81.4038 72.8445 82.8806 73.6286 84.6998 73.6286C86.5189 73.6286 87.9931 72.8445 87.9931 71.8774C87.9931 70.9103 86.5189 70.1262 84.6998 70.1262Z" fill="#65B6F8"/>
<path opacity="0.5" d="M84.6996 73.9998C82.1773 73.9998 80.136 72.9125 80.136 71.5716V74.7839C80.136 76.1248 82.1773 77.2121 84.6996 77.2121C87.2219 77.2121 89.2606 76.1248 89.2606 74.7839V71.5794C89.2606 72.9203 87.2271 73.9998 84.6996 73.9998Z" fill="#E6F3FF"/>
<path opacity="0.5" d="M84.6996 69.1539C82.1773 69.1539 80.136 70.2412 80.136 71.5794C80.136 72.9177 82.1773 74.0076 84.6996 74.0076C87.2219 74.0076 89.2606 72.9203 89.2606 71.5794C89.2606 70.2386 87.2271 69.1539 84.6996 69.1539Z" fill="white"/>
<path d="M93.8243 68.3018C91.9947 68.3018 90.531 67.5176 90.531 66.5505V68.8637C90.531 69.8308 92.0052 70.6149 93.8243 70.6149C95.6435 70.6149 97.1203 69.8308 97.1203 68.8637V66.5505C97.1203 67.5176 95.6435 68.3018 93.8243 68.3018Z" fill="#399EE2"/>
<path d="M93.8243 64.7968C91.9947 64.7968 90.531 65.5809 90.531 66.5506C90.531 67.5203 92.0052 68.3018 93.8243 68.3018C95.6435 68.3018 97.1203 67.5177 97.1203 66.5506C97.1203 65.5835 95.6435 64.7968 93.8243 64.7968Z" fill="#65B6F8"/>
<path opacity="0.5" d="M93.8241 68.6807C91.3045 68.6807 89.2605 67.5934 89.2605 66.2526V69.457C89.2605 70.7979 91.3045 71.8826 93.8241 71.8826C96.3438 71.8826 98.3878 70.7979 98.3878 69.457V66.2526C98.3878 67.5934 96.3464 68.6807 93.8241 68.6807Z" fill="#E6F3FF"/>
<path opacity="0.5" d="M93.8241 63.827C91.3045 63.827 89.2605 64.9117 89.2605 66.2526C89.2605 67.5935 91.3045 68.6808 93.8241 68.6808C96.3438 68.6808 98.3878 67.5935 98.3878 66.2526C98.3878 64.9117 96.3464 63.827 93.8241 63.827Z" fill="white"/>
<path d="M94.3419 79.0548C92.5122 79.0548 91.0459 78.2707 91.0459 77.301V79.6141C91.0459 80.5812 92.5201 81.3654 94.3419 81.3654C96.1636 81.3654 97.6352 80.5812 97.6352 79.6141V77.301C97.6352 78.2681 96.161 79.0548 94.3419 79.0548Z" fill="#399EE2"/>
<path d="M94.3419 75.5497C92.5122 75.5497 91.0459 76.3339 91.0459 77.301C91.0459 78.2681 92.5201 79.0548 94.3419 79.0548C96.1636 79.0548 97.6352 78.2707 97.6352 77.301C97.6352 76.3313 96.161 75.5497 94.3419 75.5497Z" fill="#65B6F8"/>
<path opacity="0.5" d="M94.3419 79.4312C91.8197 79.4312 89.7783 78.3439 89.7783 77.0056V80.2075C89.7783 81.5483 91.8197 82.6357 94.3419 82.6357C96.8642 82.6357 98.903 81.5483 98.903 80.2075V77.0056C98.903 78.3439 96.8616 79.4312 94.3419 79.4312Z" fill="#E6F3FF"/>
<path opacity="0.5" d="M94.3419 74.5774C91.8197 74.5774 89.7783 75.6647 89.7783 77.0056C89.7783 78.3464 91.8197 79.4311 94.3419 79.4311C96.8642 79.4311 98.903 78.3438 98.903 77.0056C98.903 75.6673 96.8616 74.5774 94.3419 74.5774Z" fill="white"/>
<path d="M103.466 73.7384C101.637 73.7384 100.173 72.9543 100.173 71.9872V74.3004C100.173 75.2675 101.647 76.0516 103.466 76.0516C105.286 76.0516 106.762 75.2675 106.762 74.3004V71.9872C106.762 72.9543 105.286 73.7384 103.466 73.7384Z" fill="#399EE2"/>
<path d="M103.466 70.2203C101.637 70.2203 100.173 71.0044 100.173 71.9741C100.173 72.9438 101.647 73.7253 103.466 73.7253C105.286 73.7253 106.762 72.9412 106.762 71.9741C106.762 71.007 105.286 70.2203 103.466 70.2203Z" fill="#65B6F8"/>
<path opacity="0.5" d="M103.466 74.1043C100.947 74.1043 98.9028 73.017 98.9028 71.6761V74.8806C98.9028 76.2215 100.947 77.3088 103.466 77.3088C105.986 77.3088 108.03 76.2215 108.03 74.8806V71.6761C108.03 73.017 105.986 74.1043 103.466 74.1043Z" fill="#E6F3FF"/>
<path opacity="0.5" d="M103.466 69.2505C100.947 69.2505 98.9028 70.3353 98.9028 71.6761C98.9028 73.017 100.947 74.1043 103.466 74.1043C105.986 74.1043 108.03 73.017 108.03 71.6761C108.03 70.3353 105.986 69.2505 103.466 69.2505Z" fill="white"/>
<path d="M115.897 56.7934C111.543 56.7934 108.012 58.6727 108.012 60.9885C108.012 63.3043 111.543 65.1836 115.897 65.1836C120.252 65.1836 123.786 63.3043 123.786 60.9885C123.786 58.6727 120.255 56.7934 115.897 56.7934Z" fill="#EA3636"/>
<path d="M106.164 37.2372V58.3826C106.164 61.242 110.521 63.5604 115.897 63.5604C121.274 63.5604 125.634 61.242 125.634 58.3826V37.2372H106.164Z" fill="#F74D41"/>
<path d="M115.897 46.3749C110.521 46.3749 106.164 44.0565 106.164 41.1971V53.5863C106.164 56.4484 110.521 58.7668 115.897 58.7668C121.274 58.7668 125.634 56.4484 125.634 53.5863V41.1971C125.634 44.0565 121.274 46.3749 115.897 46.3749Z" fill="#EFE2E1"/>
<path d="M125.634 37.0229C125.634 34.1843 122.084 31.4896 122.084 31.4896L120.801 32.7964C117.604 31.8242 114.191 31.8242 110.994 32.7964L109.713 31.4896C109.713 31.4896 106.164 34.1843 106.164 37.0229V37.2372C106.164 40.0967 110.521 42.4151 115.897 42.4151C121.274 42.4151 125.634 40.0967 125.634 37.2372V37.0229Z" fill="#FF5E4C"/>
<path d="M115.898 29.6024C111.935 29.6024 108.723 31.3118 108.723 33.4185C108.723 35.5252 111.935 37.2372 115.898 37.2372C119.86 37.2372 123.075 35.5278 123.075 33.4185C123.075 31.3092 119.863 29.6024 115.898 29.6024Z" fill="#F74D41"/>
<path d="M115.9 34.8665C118.633 34.8665 120.848 33.6881 120.848 32.2345C120.848 30.7808 118.633 29.6024 115.9 29.6024C113.168 29.6024 110.952 30.7808 110.952 32.2345C110.952 33.6881 113.168 34.8665 115.9 34.8665Z" fill="#EA3636"/>
<path d="M109.836 24.009V29.0091C109.836 29.5998 110.215 30.1226 110.735 30.5983V26.7586C110.735 26.5208 110.882 26.411 111.062 26.513C111.16 26.5841 111.241 26.6771 111.297 26.7846C111.353 26.8921 111.384 27.0111 111.386 27.1324V31.1106C111.948 31.442 112.553 31.6927 113.184 31.8555V27.9348C113.192 27.8408 113.235 27.7531 113.305 27.6892C113.374 27.6253 113.465 27.5898 113.559 27.5898C113.654 27.5898 113.745 27.6253 113.814 27.6892C113.884 27.7531 113.927 27.8408 113.935 27.9348V32.0228C114.517 32.1347 115.108 32.1985 115.701 32.2136V28.1701C115.709 28.076 115.752 27.9883 115.822 27.9244C115.891 27.8605 115.982 27.825 116.077 27.825C116.171 27.825 116.262 27.8605 116.331 27.9244C116.401 27.9883 116.444 28.076 116.452 28.1701V32.1796C117.066 32.1657 117.678 32.0992 118.281 31.9809V27.778C118.277 27.7261 118.283 27.6739 118.3 27.6246C118.317 27.5754 118.344 27.5302 118.379 27.4919C118.415 27.4535 118.457 27.4229 118.505 27.402C118.553 27.3811 118.604 27.3703 118.656 27.3703C118.708 27.3703 118.76 27.3811 118.808 27.402C118.855 27.4229 118.898 27.4535 118.933 27.4919C118.969 27.5302 118.995 27.5754 119.012 27.6246C119.029 27.6739 119.036 27.7261 119.031 27.778V31.6987C119.559 31.5361 120.063 31.3069 120.532 31.0165V27.1324C120.534 27.0111 120.565 26.8921 120.621 26.7846C120.677 26.6771 120.758 26.5841 120.856 26.513C121.036 26.411 121.183 26.513 121.183 26.7586V30.512C121.643 30.0572 121.967 29.5632 121.967 29.0091V24.009H109.836Z" fill="#DEC9C5"/>
<path d="M116.075 27.7963C115.976 27.797 115.882 27.8366 115.812 27.9066C115.742 27.9765 115.702 28.0712 115.701 28.1701V32.2136C115.769 32.2136 115.829 32.2345 115.897 32.2345C116.093 32.2345 116.261 32.1848 116.452 32.1744V28.1701C116.451 28.0707 116.411 27.9757 116.34 27.9056C116.27 27.8356 116.175 27.7963 116.075 27.7963Z" fill="#BC9B96"/>
<path d="M113.561 27.5637C113.461 27.5637 113.366 27.603 113.295 27.673C113.225 27.7431 113.185 27.8381 113.184 27.9375V31.8581C113.43 31.9235 113.673 31.9784 113.934 32.0254V27.9375C113.934 27.8384 113.895 27.7433 113.825 27.6732C113.755 27.6031 113.66 27.5637 113.561 27.5637Z" fill="#BC9B96"/>
<path d="M118.647 27.4017C118.548 27.4024 118.452 27.4422 118.382 27.5127C118.311 27.5831 118.271 27.6784 118.271 27.7781V31.9758C118.526 31.9028 118.776 31.8155 119.021 31.7144V27.7937C119.023 27.7432 119.015 27.6928 118.997 27.6455C118.979 27.5982 118.952 27.5549 118.917 27.5183C118.882 27.4817 118.84 27.4526 118.794 27.4325C118.748 27.4125 118.698 27.402 118.647 27.4017Z" fill="#BC9B96"/>
<path d="M120.845 26.513C120.747 26.5841 120.667 26.6771 120.61 26.7846C120.554 26.8921 120.524 27.0112 120.521 27.1324V31.0243C120.755 30.8726 120.973 30.6974 121.172 30.5016V26.7587C121.172 26.5208 121.026 26.411 120.845 26.513Z" fill="#BC9B96"/>
<path d="M111.062 26.513C110.882 26.411 110.735 26.513 110.735 26.7587V30.6114C110.933 30.808 111.151 30.9832 111.386 31.1341V27.1324C111.384 27.0111 111.353 26.8921 111.297 26.7846C111.241 26.6771 111.16 26.5841 111.062 26.513Z" fill="#BC9B96"/>
<path d="M115.897 20.7836C112.549 20.7836 109.836 22.2264 109.836 24.009C109.836 25.7916 112.549 27.2318 115.897 27.2318C119.246 27.2318 121.961 25.789 121.961 24.009C121.961 22.229 119.246 20.7836 115.897 20.7836Z" fill="#EAD9D8"/>
<path d="M115.952 20.7836C113.43 20.7836 111.386 21.871 111.386 23.2144C111.386 24.5579 113.43 25.6452 115.952 25.6452C118.475 25.6452 120.521 24.5579 120.521 23.217C120.521 21.8762 118.477 20.7836 115.952 20.7836Z" fill="#EFE2E1"/>
<path d="M108.903 33.1729C108.239 33.9299 107.694 34.784 107.288 35.7056C107.042 36.2885 106.569 37.4803 107.026 38.058C107.411 38.5415 107.952 38.1913 108.15 37.7443C108.355 37.174 108.515 36.5884 108.629 35.9931C108.822 35.256 109.191 34.1635 109.353 33.4081C109.444 33.05 109.311 32.7364 108.903 33.1729Z" fill="white"/>
<path d="M119.17 51.1764C118.467 51.3678 117.748 51.4929 117.021 51.5502V49.1691H114.891V51.558C114.166 51.5051 113.446 51.3861 112.743 51.2026L112.374 51.1032V53.1368L112.591 53.1943C113.344 53.3924 114.114 53.5193 114.891 53.5733V56.0276H117.024V53.5654C117.803 53.5049 118.575 53.3711 119.329 53.1655L119.541 53.1054V51.0719L119.17 51.1764Z" fill="#EFE2E1"/>
<path d="M102.489 15.9743V45.2615C102.489 48.9495 96.8665 51.9423 89.9296 51.9423C82.9927 51.9423 77.3835 48.9495 77.3835 45.2615V15.8384L102.489 15.9743Z" fill="#399EE2"/>
<path d="M82.3708 26.1026C84.7808 27.0349 87.346 27.5006 89.9298 27.4748C96.8668 27.4748 102.489 24.4847 102.489 20.7941V40.426C102.489 44.114 96.8668 47.1068 89.9298 47.1068C87.3456 47.1309 84.7804 46.6634 82.3708 45.7293V26.1026Z" fill="#EFE2E1"/>
<path d="M85.1047 30.8335C86.6873 31.1972 88.3059 31.3813 89.9297 31.3824C96.8667 31.3824 102.489 28.3923 102.489 24.7017V26.9521C102.489 30.6401 96.8667 33.6329 89.9297 33.6329C88.3058 33.6309 86.6872 33.4459 85.1047 33.0814V30.8335Z" fill="#422C2A"/>
<path d="M77.9194 13.9879H77.9063C78.0122 13.7915 78.1291 13.6012 78.2565 13.4181C78.3219 13.3266 78.382 13.2377 78.4552 13.1567C79.3595 11.9308 81.5133 9.66208 85.7554 8.49373C87.2244 8.0886 88.066 8.46498 88.5103 9.25172C88.9808 9.22297 89.4434 9.17331 89.9296 9.17331C90.4158 9.17331 90.8993 9.22297 91.3802 9.25172C91.8246 8.46759 92.6636 8.08598 94.1351 8.49373C98.5785 9.71697 100.748 12.153 101.574 13.337C101.861 13.7422 102.489 15.2111 102.489 15.8541C102.489 19.5447 96.8665 22.5375 89.9296 22.5375C82.9927 22.5375 77.3835 19.5447 77.3835 15.8541C77.4017 15.1967 77.5861 14.5547 77.9194 13.9879Z" fill="#65B6F8"/>
<path d="M89.6552 7.94482C93.3902 7.94482 96.417 9.5549 96.417 11.5414C96.417 13.5278 93.3902 15.1353 89.6552 15.1353C85.9201 15.1353 82.896 13.5252 82.896 11.5309C82.896 9.5366 85.9201 7.94482 89.6552 7.94482Z" fill="#399EE2"/>
<path d="M96.7205 3.42828V9.12628C96.7205 9.79802 96.2866 10.3966 95.6932 10.9376C95.4678 11.1604 95.2199 11.3592 94.9535 11.5309C94.3115 11.9075 93.62 12.1925 92.8991 12.3778C92.6195 12.4536 92.345 12.5163 92.0444 12.5712C91.3798 12.6987 90.7058 12.7713 90.0292 12.7882C89.9508 12.7882 89.8828 12.8117 89.8044 12.8117C89.5797 12.8117 89.3915 12.7568 89.1745 12.7437C88.4767 12.7269 87.7815 12.6508 87.0966 12.5163C86.8061 12.4306 86.5208 12.3285 86.2419 12.2105C85.64 12.0236 85.0646 11.7601 84.5299 11.4264C84.2645 11.2563 84.0167 11.0602 83.7902 10.8409C83.2674 10.3182 82.8884 9.75881 82.8884 9.1289V3.42828H96.7205Z" fill="#563937"/>
<path d="M89.6006 7.74097C89.7138 7.74096 89.8225 7.78577 89.9028 7.86559C89.9831 7.94542 90.0286 8.05378 90.0293 8.16701V12.7803C89.9508 12.7803 89.8829 12.8038 89.8045 12.8038C89.5797 12.8038 89.3915 12.7489 89.1746 12.7359V8.16701C89.1746 8.05402 89.2194 7.94565 89.2993 7.86575C89.3792 7.78585 89.4876 7.74097 89.6006 7.74097Z" fill="#422C2A"/>
<path d="M92.4728 7.47699C92.5856 7.47768 92.6936 7.52278 92.7734 7.60253C92.8531 7.68228 92.8982 7.79025 92.8989 7.90303V12.3699C92.6192 12.4457 92.3448 12.5085 92.0442 12.5634V7.90303C92.0449 7.7898 92.0904 7.68144 92.1707 7.60161C92.251 7.52179 92.3596 7.47699 92.4728 7.47699Z" fill="#422C2A"/>
<path d="M86.6706 7.29138C86.7836 7.29275 86.8916 7.33843 86.9713 7.4186C87.0509 7.49877 87.096 7.60701 87.0966 7.72004V12.5084C86.8062 12.4227 86.5208 12.3206 86.2419 12.2026V7.72004C86.2426 7.60656 86.288 7.49793 86.3683 7.41769C86.4485 7.33745 86.5571 7.29207 86.6706 7.29138Z" fill="#422C2A"/>
<path d="M84.1586 6.27724C84.2713 6.35824 84.3636 6.46447 84.4281 6.58744C84.4925 6.71042 84.5273 6.84675 84.5297 6.98557V11.429C84.2643 11.2589 84.0165 11.0627 83.79 10.8435V6.56476C83.79 6.2877 83.9547 6.15962 84.1586 6.27724Z" fill="#422C2A"/>
<path d="M95.3298 6.27726C95.5336 6.15964 95.7009 6.27726 95.7009 6.55693V10.9376C95.473 11.1608 95.2225 11.3596 94.9534 11.5309V6.98559C94.9568 6.8464 94.9926 6.70993 95.0579 6.58698C95.1233 6.46403 95.2163 6.35799 95.3298 6.27726Z" fill="#422C2A"/>
<path d="M89.8044 -0.259766C93.6231 -0.259766 96.7205 1.3869 96.7205 3.42041C96.7205 5.45391 93.6231 7.08751 89.8044 7.08751C85.9857 7.08751 82.8884 5.4513 82.8884 3.42825C82.8884 1.4052 85.9857 -0.259766 89.8044 -0.259766Z" fill="#664444"/>
<path d="M96.2264 36.1943C97.8914 35.4102 100.536 35.3893 100.536 35.3893L101.255 36.7876C101.885 38.1259 100.659 40.0339 98.516 41.0455C96.425 42.0361 94.219 41.7956 93.5368 40.5227L92.771 39.0512C92.771 39.0512 94.5614 36.9811 96.2264 36.1943Z" fill="#BC9B96"/>
<path d="M97.7971 39.6471C99.943 38.6356 101.169 36.7275 100.536 35.3893C99.9038 34.0511 97.6612 33.7845 95.5101 34.796C93.3589 35.8075 92.1383 37.7156 92.7708 39.0538C93.4034 40.392 95.6538 40.6586 97.7971 39.6471Z" fill="#DEC9C5"/>
<path d="M86.004 37.9926C87.2011 37.8384 88.8164 38.1233 90.4474 38.8839C92.2065 39.702 93.5499 40.8599 94.1511 41.9446L95.0058 42.3602L94.3654 43.7063C93.7329 45.0681 90.9492 45.1177 88.1525 43.8161C85.3558 42.5144 83.602 40.3555 84.2319 38.9937L84.9376 37.4777L86.004 37.9926Z" fill="#BC9B96"/>
<path d="M88.8608 42.3001C91.6576 43.607 94.4386 43.5521 95.0738 42.1903C95.7089 40.8286 93.9524 38.6696 91.1531 37.3679C88.3538 36.0663 85.5727 36.116 84.9402 37.4777C84.3077 38.8395 86.0641 40.9985 88.8608 42.3001Z" fill="#D1B8B4"/>
<path d="M56.7611 73.8429C55.4763 73.2979 54.0949 73.017 52.6993 73.017C51.3037 73.017 49.9223 73.2979 48.6375 73.8429L46.5779 72.5178V76.2737C46.5779 78.072 49.3171 79.5305 52.6993 79.5305C56.0815 79.5305 58.8207 78.072 58.8207 76.2737V72.5178L56.7611 73.8429Z" fill="#C4A8A5"/>
<path d="M52.6993 69.261C49.3171 69.261 46.5779 70.7195 46.5779 72.5178C46.5779 74.3161 49.3276 75.7745 52.6993 75.7745C56.0711 75.7745 58.8207 74.3161 58.8207 72.5178C58.8207 70.7195 56.0789 69.261 52.6993 69.261Z" fill="#EFE2E1"/>
<path d="M50.3732 69.5564L48.1489 70.3405L55.8857 75.3067L56.8554 74.9172C56.8554 74.9172 57.6891 74.3945 57.6029 74.3344L50.3732 69.5564Z" fill="#D1B8B4"/>
<path d="M63.7662 79.7501C65.0515 79.2051 66.4332 78.9242 67.8293 78.9242C69.2253 78.9242 70.6071 79.2051 71.8924 79.7501L73.9494 78.4249V82.1809C73.9494 83.9791 71.2102 85.4376 67.828 85.4376C64.4458 85.4376 61.7065 83.9791 61.7065 82.1809V78.4171L63.7662 79.7501Z" fill="#C4A8A5"/>
<path d="M67.828 75.1603C71.2102 75.1603 73.9494 76.6188 73.9494 78.417C73.9494 80.2153 71.2102 81.6712 67.828 81.6712C64.4458 81.6712 61.7065 80.2153 61.7065 78.417C61.7065 76.6188 64.4484 75.1603 67.828 75.1603Z" fill="#EFE2E1"/>
<path d="M70.1593 75.4556L72.3836 76.2398L64.6468 81.2059L63.6771 80.8164C63.6771 80.8164 62.8433 80.2937 62.9296 80.2336L70.1593 75.4556Z" fill="#D1B8B4"/>
<path d="M51.3899 25.4806V46.5004C51.3899 49.1455 55.4255 51.2914 60.4021 51.2914C65.3787 51.2914 69.4144 49.1455 69.4144 46.5004V25.3839L51.3899 25.4806Z" fill="#7FA521"/>
<path d="M51.3899 28.7948V42.2792C51.3899 44.9269 55.4255 47.0728 60.4021 47.0728C62.3839 47.1019 64.3503 46.7219 66.1785 45.9568V32.4724C64.3499 33.2362 62.3837 33.6161 60.4021 33.5884C55.4255 33.5884 51.3899 31.4425 51.3899 28.7948Z" fill="#EFE2E1"/>
<path d="M63.868 35.2612C62.7298 35.5116 61.5676 35.6369 60.4021 35.635C55.436 35.635 51.3899 33.4891 51.3899 30.8414V33.0317C51.3899 35.6794 55.4255 37.8253 60.4021 37.8253C61.5676 37.8273 62.7298 37.7019 63.868 37.4516V35.2612Z" fill="#422C2A"/>
<path d="M68.6172 21.3116C66.7301 20.0361 63.8079 19.2206 60.5146 19.2206C58.6838 19.2082 56.8625 19.4834 55.1172 20.0361L54.2651 19.9577L50.2007 22.3702V24.7069C50.2007 27.7363 54.8192 30.1958 60.5146 30.1958C66.21 30.1958 70.8285 27.7389 70.8285 24.7069V22.365L68.6172 21.3116Z" fill="#DEC9C5"/>
<path d="M60.5197 16.8787C54.8243 16.8787 50.2058 19.333 50.2058 22.3676C50.2058 25.4021 54.8243 27.8565 60.5197 27.8565C66.2151 27.8565 70.8336 25.3995 70.8336 22.3676C70.8336 19.3356 66.2151 16.8787 60.5197 16.8787Z" fill="#EFE2E1"/>
<path d="M67.3627 18.7658C65.7709 17.6967 63.3166 17.0198 60.5669 17.0198C59.0304 17.0109 57.502 17.2428 56.0373 17.7072L55.3211 17.6392L51.9102 18.9461V21.6122C51.9102 24.1553 55.7864 26.215 60.5669 26.215C65.3475 26.215 69.2237 24.1553 69.2237 21.6122V18.9435L67.3627 18.7658Z" fill="#7FA521"/>
<path d="M60.5669 14.3381C55.7864 14.3381 51.9102 16.4003 51.9102 18.9435C51.9102 21.4867 55.7785 23.5542 60.5669 23.5542C65.3553 23.5542 69.2237 21.4919 69.2237 18.9514C69.2237 16.4108 65.3397 14.3381 60.5669 14.3381Z" fill="#97C941"/>
<path d="M41.6562 54.3365L42.6338 54.1378C43.4074 53.3052 44.3373 52.6329 45.3704 52.1592C47.83 50.9726 50.7182 50.6119 52.817 51.0954C53.2551 51.1915 53.6793 51.3425 54.0795 51.545L55.6477 51.5946C55.6477 51.5946 55.6477 53.6621 55.6477 53.8425C55.5745 55.2173 54.2415 56.7673 51.9414 57.8755C48.5278 59.5222 44.2909 59.5797 42.477 58.001C42.2019 57.7794 41.9848 57.4941 41.8446 57.1699C41.7043 56.8457 41.6451 56.4922 41.6719 56.14L41.6562 54.3365Z" fill="#399EE2"/>
<path d="M45.3704 49.9532C41.9568 51.5998 40.6656 54.2136 42.4744 55.7923C44.2831 57.371 48.5252 57.3161 51.9388 55.6694C55.3524 54.0228 56.6436 51.4064 54.8348 49.8277C53.0261 48.249 48.784 48.2934 45.3704 49.9532Z" fill="#65B6F8"/>
<path d="M47.085 49.2997C50.692 50.8863 52.187 53.568 52.187 53.568L50.9298 54.3365C50.9298 54.3365 48.12 50.8706 45.3704 49.9532L47.085 49.2997Z" fill="#399EE2"/>
</g>
<g filter="url(#filter0_b_206:36988)">
<rect x="13" y="77" width="141" height="77" rx="10" fill="black" fill-opacity="0.8"/>
</g>
<path d="M44.4186 112H42.7386L42.5986 109.27L42.2766 105.798H42.1366L40.1206 111.048H38.6506L36.8166 105.798H36.6906L36.3406 109.088L36.1446 112H34.5486L35.4586 102.984H37.6426L38.0066 104.314L39.4346 108.584H39.5606L41.0586 104.314L41.4646 102.984H43.6066L44.4186 112ZM48.3681 105.364C49.0868 105.364 49.6468 105.527 50.0481 105.854C50.4588 106.171 50.6641 106.619 50.6641 107.198C50.6641 107.366 50.6361 107.898 50.5801 108.794C50.5708 109.055 50.5568 109.326 50.5381 109.606C50.5195 109.877 50.5101 110.11 50.5101 110.306C50.5101 110.465 50.5335 110.577 50.5801 110.642C50.6268 110.698 50.7108 110.726 50.8321 110.726C50.9255 110.726 51.0468 110.707 51.1961 110.67L51.3361 110.782L51.1681 111.762C50.8695 111.958 50.5288 112.075 50.1461 112.112C49.8661 112.084 49.6328 111.986 49.4461 111.818C49.2595 111.641 49.1335 111.398 49.0681 111.09H48.9701C48.5035 111.585 48.0228 111.93 47.5281 112.126C46.8561 112.117 46.3288 111.939 45.9461 111.594C45.5635 111.249 45.3721 110.777 45.3721 110.18C45.3721 109.713 45.4888 109.349 45.7221 109.088C45.9648 108.817 46.3288 108.635 46.8141 108.542L48.9561 108.136V107.562C48.9561 106.955 48.6575 106.652 48.0601 106.652C47.7708 106.652 47.4628 106.717 47.1361 106.848C46.8188 106.979 46.4595 107.184 46.0581 107.464L45.9181 107.38L45.7081 106.148C46.1095 105.896 46.5388 105.705 46.9961 105.574C47.4535 105.434 47.9108 105.364 48.3681 105.364ZM47.4581 109.396C47.3088 109.433 47.1968 109.499 47.1221 109.592C47.0568 109.676 47.0241 109.807 47.0241 109.984C47.0241 110.227 47.0895 110.418 47.2201 110.558C47.3508 110.689 47.5328 110.754 47.7661 110.754C48.1301 110.754 48.5128 110.539 48.9141 110.11L48.9421 109.074L47.4581 109.396ZM56.4684 107.94C56.4777 107.613 56.403 107.361 56.2444 107.184C56.095 106.997 55.8757 106.904 55.5864 106.904C55.1664 106.904 54.7184 107.105 54.2424 107.506V109.13L54.3264 112H52.4644L52.5624 109.312L52.4924 105.616L54.2564 105.462V106.414H54.3544C54.8677 105.947 55.4277 105.611 56.0344 105.406C56.7437 105.406 57.285 105.569 57.6584 105.896C58.0317 106.213 58.209 106.675 58.1904 107.282L58.1484 109.144L58.2324 112H56.3564L56.4684 107.94ZM62.5065 110.628C62.8052 110.628 63.1178 110.549 63.4445 110.39L63.5985 110.53L63.4165 111.636C62.9405 111.879 62.4552 112.028 61.9605 112.084C60.7005 111.953 60.0705 111.337 60.0705 110.236L60.1405 109.074L60.1265 106.666H59.2585L59.1885 106.568L59.2865 105.546H60.1125V104.468L61.8065 103.922L61.9325 104.034L61.8905 105.546H63.5565L63.6125 105.644L63.5285 106.666H61.8625L61.7785 109.802C61.7785 110.101 61.8345 110.315 61.9465 110.446C62.0585 110.567 62.2452 110.628 62.5065 110.628ZM69.5493 108.976L65.7693 109.004C65.8533 110.171 66.4459 110.754 67.5473 110.754C68.1259 110.754 68.7699 110.591 69.4793 110.264L69.6333 110.362L69.3533 111.748C68.6439 112.009 67.9766 112.14 67.3513 112.14C66.3246 112.14 65.5173 111.841 64.9293 111.244C64.3506 110.647 64.0613 109.821 64.0613 108.766C64.0613 107.721 64.3459 106.895 64.9153 106.288C65.4846 105.672 66.2546 105.364 67.2253 105.364C68.0559 105.364 68.6953 105.593 69.1433 106.05C69.6006 106.498 69.8293 107.128 69.8293 107.94C69.8293 108.155 69.8059 108.425 69.7593 108.752L69.5493 108.976ZM68.2053 107.73C68.2053 107.357 68.1213 107.077 67.9533 106.89C67.7853 106.694 67.5379 106.596 67.2113 106.596C66.8473 106.596 66.5439 106.717 66.3013 106.96C66.0586 107.193 65.8953 107.534 65.8113 107.982L68.1773 107.926L68.2053 107.73ZM68.4433 101.892L69.1153 102.9L69.0873 103.082C68.8819 103.213 68.7279 103.306 68.6253 103.362C67.4586 104.081 66.7026 104.538 66.3573 104.734L66.1753 104.72L65.7273 104.02C66.8099 103.152 67.6546 102.438 68.2613 101.878L68.4433 101.892ZM78.9108 112L79.0228 107.94C79.0228 107.249 78.7288 106.904 78.1408 106.904C77.7208 106.904 77.2821 107.091 76.8248 107.464L76.7828 109.144L76.8668 112H75.0048L75.1168 107.94C75.1261 107.604 75.0515 107.347 74.8928 107.17C74.7435 106.993 74.5241 106.904 74.2348 106.904C73.8241 106.904 73.3715 107.1 72.8768 107.492V109.13L72.9608 112H71.1128L71.2108 109.312L71.1408 105.616L72.8908 105.462V106.414H72.9888C73.5021 105.947 74.0668 105.611 74.6828 105.406C75.7281 105.406 76.3955 105.756 76.6848 106.456H76.7688C77.3008 105.961 77.9075 105.611 78.5888 105.406C79.2981 105.406 79.8348 105.569 80.1988 105.896C80.5721 106.213 80.7495 106.675 80.7308 107.282L80.6888 109.144L80.7728 112H78.9108ZM87.0869 105.364C87.8056 105.364 88.3656 105.527 88.7669 105.854C89.1776 106.171 89.3829 106.619 89.3829 107.198C89.3829 107.366 89.3549 107.898 89.2989 108.794C89.2896 109.055 89.2756 109.326 89.2569 109.606C89.2382 109.877 89.2289 110.11 89.2289 110.306C89.2289 110.465 89.2522 110.577 89.2989 110.642C89.3456 110.698 89.4296 110.726 89.5509 110.726C89.6442 110.726 89.7656 110.707 89.9149 110.67L90.0549 110.782L89.8869 111.762C89.5882 111.958 89.2476 112.075 88.8649 112.112C88.5849 112.084 88.3516 111.986 88.1649 111.818C87.9782 111.641 87.8522 111.398 87.7869 111.09H87.6889C87.2222 111.585 86.7416 111.93 86.2469 112.126C85.5749 112.117 85.0476 111.939 84.6649 111.594C84.2822 111.249 84.0909 110.777 84.0909 110.18C84.0909 109.713 84.2076 109.349 84.4409 109.088C84.6836 108.817 85.0476 108.635 85.5329 108.542L87.6749 108.136V107.562C87.6749 106.955 87.3762 106.652 86.7789 106.652C86.4896 106.652 86.1816 106.717 85.8549 106.848C85.5376 106.979 85.1782 107.184 84.7769 107.464L84.6369 107.38L84.4269 106.148C84.8282 105.896 85.2576 105.705 85.7149 105.574C86.1722 105.434 86.6296 105.364 87.0869 105.364ZM86.1769 109.396C86.0276 109.433 85.9156 109.499 85.8409 109.592C85.7756 109.676 85.7429 109.807 85.7429 109.984C85.7429 110.227 85.8082 110.418 85.9389 110.558C86.0696 110.689 86.2516 110.754 86.4849 110.754C86.8489 110.754 87.2316 110.539 87.6329 110.11L87.6609 109.074L86.1769 109.396ZM96.0163 110.628C96.3149 110.628 96.6276 110.549 96.9543 110.39L97.1083 110.53L96.9263 111.636C96.4503 111.879 95.9649 112.028 95.4703 112.084C94.2103 111.953 93.5803 111.337 93.5803 110.236L93.6503 109.074L93.6363 106.666H92.7683L92.6983 106.568L92.7963 105.546H93.6223V104.468L95.3163 103.922L95.4423 104.034L95.4003 105.546H97.0663L97.1223 105.644L97.0383 106.666H95.3723L95.2883 109.802C95.2883 110.101 95.3443 110.315 95.4563 110.446C95.5683 110.567 95.7549 110.628 96.0163 110.628ZM100.677 105.364C101.395 105.364 101.955 105.527 102.357 105.854C102.767 106.171 102.973 106.619 102.973 107.198C102.973 107.366 102.945 107.898 102.889 108.794C102.879 109.055 102.865 109.326 102.847 109.606C102.828 109.877 102.819 110.11 102.819 110.306C102.819 110.465 102.842 110.577 102.889 110.642C102.935 110.698 103.019 110.726 103.141 110.726C103.234 110.726 103.355 110.707 103.505 110.67L103.645 110.782L103.477 111.762C103.178 111.958 102.837 112.075 102.455 112.112C102.175 112.084 101.941 111.986 101.755 111.818C101.568 111.641 101.442 111.398 101.377 111.09H101.279C100.812 111.585 100.331 111.93 99.8367 112.126C99.1647 112.117 98.6374 111.939 98.2547 111.594C97.8721 111.249 97.6807 110.777 97.6807 110.18C97.6807 109.713 97.7974 109.349 98.0307 109.088C98.2734 108.817 98.6374 108.635 99.1227 108.542L101.265 108.136V107.562C101.265 106.955 100.966 106.652 100.369 106.652C100.079 106.652 99.7714 106.717 99.4447 106.848C99.1274 106.979 98.7681 107.184 98.3667 107.464L98.2267 107.38L98.0167 106.148C98.4181 105.896 98.8474 105.705 99.3047 105.574C99.7621 105.434 100.219 105.364 100.677 105.364ZM99.7667 109.396C99.6174 109.433 99.5054 109.499 99.4307 109.592C99.3654 109.676 99.3327 109.807 99.3327 109.984C99.3327 110.227 99.3981 110.418 99.5287 110.558C99.6594 110.689 99.8414 110.754 100.075 110.754C100.439 110.754 100.821 110.539 101.223 110.11L101.251 109.074L99.7667 109.396ZM106.465 106.218L107.361 107.674L108.243 106.162L108.593 105.504H110.231L108.355 108.696L110.315 111.944L108.355 112.084L108.033 111.258L107.109 109.76L106.143 111.342L105.835 112H104.197L106.087 108.738L104.183 105.546L106.171 105.448L106.465 106.218ZM113.651 105.364C114.37 105.364 114.93 105.527 115.331 105.854C115.742 106.171 115.947 106.619 115.947 107.198C115.947 107.366 115.919 107.898 115.863 108.794C115.854 109.055 115.84 109.326 115.821 109.606C115.803 109.877 115.793 110.11 115.793 110.306C115.793 110.465 115.817 110.577 115.863 110.642C115.91 110.698 115.994 110.726 116.115 110.726C116.209 110.726 116.33 110.707 116.479 110.67L116.619 110.782L116.451 111.762C116.153 111.958 115.812 112.075 115.429 112.112C115.149 112.084 114.916 111.986 114.729 111.818C114.543 111.641 114.417 111.398 114.351 111.09H114.253C113.787 111.585 113.306 111.93 112.811 112.126C112.139 112.117 111.612 111.939 111.229 111.594C110.847 111.249 110.655 110.777 110.655 110.18C110.655 109.713 110.772 109.349 111.005 109.088C111.248 108.817 111.612 108.635 112.097 108.542L114.239 108.136V107.562C114.239 106.955 113.941 106.652 113.343 106.652C113.054 106.652 112.746 106.717 112.419 106.848C112.102 106.979 111.743 107.184 111.341 107.464L111.201 107.38L110.991 106.148C111.393 105.896 111.822 105.705 112.279 105.574C112.737 105.434 113.194 105.364 113.651 105.364ZM112.741 109.396C112.592 109.433 112.48 109.499 112.405 109.592C112.34 109.676 112.307 109.807 112.307 109.984C112.307 110.227 112.373 110.418 112.503 110.558C112.634 110.689 112.816 110.754 113.049 110.754C113.413 110.754 113.796 110.539 114.197 110.11L114.225 109.074L112.741 109.396ZM125.381 109.13L125.423 110.306C125.423 110.465 125.441 110.577 125.479 110.642C125.525 110.698 125.605 110.726 125.717 110.726C125.819 110.726 125.945 110.707 126.095 110.67L126.221 110.782L126.067 111.762C125.749 111.958 125.404 112.075 125.031 112.112C124.741 112.084 124.499 111.986 124.303 111.818C124.107 111.65 123.971 111.421 123.897 111.132H123.785C123.327 111.552 122.861 111.874 122.385 112.098C121.47 112.098 120.761 111.809 120.257 111.23C119.753 110.642 119.501 109.83 119.501 108.794C119.501 107.693 119.79 106.848 120.369 106.26C120.947 105.672 121.75 105.378 122.777 105.378C123.047 105.378 123.346 105.406 123.673 105.462L123.645 102.312L125.493 102.172L125.381 109.13ZM122.651 106.638C121.717 106.638 121.251 107.231 121.251 108.416C121.251 109.153 121.363 109.709 121.587 110.082C121.811 110.455 122.137 110.642 122.567 110.642C122.977 110.642 123.355 110.451 123.701 110.068L123.729 109.298L123.687 106.89C123.323 106.722 122.977 106.638 122.651 106.638ZM132.358 108.976L128.578 109.004C128.662 110.171 129.255 110.754 130.356 110.754C130.935 110.754 131.579 110.591 132.288 110.264L132.442 110.362L132.162 111.748C131.453 112.009 130.785 112.14 130.16 112.14C129.133 112.14 128.326 111.841 127.738 111.244C127.159 110.647 126.87 109.821 126.87 108.766C126.87 107.721 127.155 106.895 127.724 106.288C128.293 105.672 129.063 105.364 130.034 105.364C130.865 105.364 131.504 105.593 131.952 106.05C132.409 106.498 132.638 107.128 132.638 107.94C132.638 108.155 132.615 108.425 132.568 108.752L132.358 108.976ZM131.014 107.73C131.014 107.357 130.93 107.077 130.762 106.89C130.594 106.694 130.347 106.596 130.02 106.596C129.656 106.596 129.353 106.717 129.11 106.96C128.867 107.193 128.704 107.534 128.62 107.982L130.986 107.926L131.014 107.73ZM37.4101 121.364C38.1288 121.364 38.6888 121.527 39.0901 121.854C39.5008 122.171 39.7061 122.619 39.7061 123.198C39.7061 123.366 39.6781 123.898 39.6221 124.794C39.6128 125.055 39.5988 125.326 39.5801 125.606C39.5615 125.877 39.5521 126.11 39.5521 126.306C39.5521 126.465 39.5755 126.577 39.6221 126.642C39.6688 126.698 39.7528 126.726 39.8741 126.726C39.9675 126.726 40.0888 126.707 40.2381 126.67L40.3781 126.782L40.2101 127.762C39.9115 127.958 39.5708 128.075 39.1881 128.112C38.9081 128.084 38.6748 127.986 38.4881 127.818C38.3015 127.641 38.1755 127.398 38.1101 127.09H38.0121C37.5455 127.585 37.0648 127.93 36.5701 128.126C35.8981 128.117 35.3708 127.939 34.9881 127.594C34.6055 127.249 34.4141 126.777 34.4141 126.18C34.4141 125.713 34.5308 125.349 34.7641 125.088C35.0068 124.817 35.3708 124.635 35.8561 124.542L37.9981 124.136V123.562C37.9981 122.955 37.6995 122.652 37.1021 122.652C36.8128 122.652 36.5048 122.717 36.1781 122.848C35.8608 122.979 35.5015 123.184 35.1001 123.464L34.9601 123.38L34.7501 122.148C35.1515 121.896 35.5808 121.705 36.0381 121.574C36.4955 121.434 36.9528 121.364 37.4101 121.364ZM36.5001 125.396C36.3508 125.433 36.2388 125.499 36.1641 125.592C36.0988 125.676 36.0661 125.807 36.0661 125.984C36.0661 126.227 36.1315 126.418 36.2621 126.558C36.3928 126.689 36.5748 126.754 36.8081 126.754C37.1721 126.754 37.5548 126.539 37.9561 126.11L37.9841 125.074L36.5001 125.396ZM44.2624 121.364C44.5704 121.364 44.8737 121.397 45.1724 121.462C45.4804 121.518 45.751 121.602 45.9844 121.714L45.6764 123.198L45.5224 123.268C45.0464 123.007 44.6217 122.876 44.2484 122.876C43.819 122.876 43.4877 123.03 43.2544 123.338C43.021 123.646 42.9044 124.085 42.9044 124.654C42.9044 125.307 43.0304 125.807 43.2824 126.152C43.5344 126.497 43.8937 126.67 44.3604 126.67C44.7804 126.67 45.247 126.553 45.7604 126.32L45.9004 126.432L45.7184 127.874C45.1584 128.051 44.5844 128.14 43.9964 128.14C43.1004 128.14 42.4004 127.851 41.8964 127.272C41.3924 126.684 41.1404 125.867 41.1404 124.822C41.1404 123.739 41.4157 122.895 41.9664 122.288C42.517 121.672 43.2824 121.364 44.2624 121.364ZM44.2484 128.672L44.7244 128.938C44.9297 129.05 45.0744 129.171 45.1584 129.302C45.2517 129.442 45.2984 129.596 45.2984 129.764C45.2984 130.072 45.177 130.324 44.9344 130.52C44.6917 130.716 44.3744 130.814 43.9824 130.814C43.5624 130.814 43.1797 130.683 42.8344 130.422L42.9604 129.638L43.0444 129.596C43.3244 129.876 43.5997 130.016 43.8704 130.016C44.0944 130.016 44.2064 129.918 44.2064 129.722C44.2064 129.657 44.1877 129.601 44.1504 129.554C44.113 129.517 44.0524 129.479 43.9684 129.442L43.2824 129.05L43.6044 127.636H44.5004L44.2484 128.672ZM53.1911 126.782L53.0231 127.762C52.6778 127.986 52.3231 128.103 51.9591 128.112C51.6884 128.065 51.4644 127.958 51.2871 127.79C51.1098 127.622 50.9744 127.379 50.8811 127.062H50.7551C50.2231 127.585 49.6724 127.925 49.1031 128.084C48.3938 128.084 47.8524 127.925 47.4791 127.608C47.1151 127.281 46.9378 126.815 46.9471 126.208L46.9751 124.556L46.9051 121.616L48.7111 121.462L48.6691 125.592C48.6598 125.919 48.7251 126.166 48.8651 126.334C49.0051 126.502 49.2151 126.586 49.4951 126.586C49.9058 126.586 50.3118 126.404 50.7131 126.04V121.616L52.4911 121.462L52.3651 126.306C52.3651 126.455 52.3884 126.563 52.4351 126.628C52.4911 126.693 52.5751 126.726 52.6871 126.726C52.7898 126.726 52.9158 126.707 53.0651 126.67L53.1911 126.782ZM51.0911 117.878L51.7631 118.886L51.7351 119.068C51.5298 119.199 51.3758 119.292 51.2731 119.348C50.1064 120.067 49.3504 120.524 49.0051 120.72L48.8231 120.706L48.3751 120.006C49.4578 119.138 50.3024 118.424 50.9091 117.864L51.0911 117.878ZM56.9635 121.364C57.2715 121.364 57.5749 121.397 57.8735 121.462C58.1815 121.518 58.4522 121.602 58.6855 121.714L58.3775 123.198L58.2235 123.268C57.7475 123.007 57.3229 122.876 56.9495 122.876C56.5202 122.876 56.1889 123.03 55.9555 123.338C55.7222 123.646 55.6055 124.085 55.6055 124.654C55.6055 125.307 55.7315 125.807 55.9835 126.152C56.2355 126.497 56.5949 126.67 57.0615 126.67C57.4815 126.67 57.9482 126.553 58.4615 126.32L58.6015 126.432L58.4195 127.874C57.8595 128.051 57.2855 128.14 56.6975 128.14C55.8015 128.14 55.1015 127.851 54.5975 127.272C54.0935 126.684 53.8415 125.867 53.8415 124.822C53.8415 123.739 54.1169 122.895 54.6675 122.288C55.2182 121.672 55.9835 121.364 56.9635 121.364ZM62.1015 121.364C62.8202 121.364 63.3802 121.527 63.7815 121.854C64.1922 122.171 64.3975 122.619 64.3975 123.198C64.3975 123.366 64.3695 123.898 64.3135 124.794C64.3042 125.055 64.2902 125.326 64.2715 125.606C64.2529 125.877 64.2435 126.11 64.2435 126.306C64.2435 126.465 64.2669 126.577 64.3135 126.642C64.3602 126.698 64.4442 126.726 64.5655 126.726C64.6589 126.726 64.7802 126.707 64.9295 126.67L65.0695 126.782L64.9015 127.762C64.6029 127.958 64.2622 128.075 63.8795 128.112C63.5995 128.084 63.3662 127.986 63.1795 127.818C62.9929 127.641 62.8669 127.398 62.8015 127.09H62.7035C62.2369 127.585 61.7562 127.93 61.2615 128.126C60.5895 128.117 60.0622 127.939 59.6795 127.594C59.2969 127.249 59.1055 126.777 59.1055 126.18C59.1055 125.713 59.2222 125.349 59.4555 125.088C59.6982 124.817 60.0622 124.635 60.5475 124.542L62.6895 124.136V123.562C62.6895 122.955 62.3909 122.652 61.7935 122.652C61.5042 122.652 61.1962 122.717 60.8695 122.848C60.5522 122.979 60.1929 123.184 59.7915 123.464L59.6515 123.38L59.4415 122.148C59.8429 121.896 60.2722 121.705 60.7295 121.574C61.1869 121.434 61.6442 121.364 62.1015 121.364ZM61.1915 125.396C61.0422 125.433 60.9302 125.499 60.8555 125.592C60.7902 125.676 60.7575 125.807 60.7575 125.984C60.7575 126.227 60.8229 126.418 60.9535 126.558C61.0842 126.689 61.2662 126.754 61.4995 126.754C61.8635 126.754 62.2462 126.539 62.6475 126.11L62.6755 125.074L61.1915 125.396ZM69.7958 121.476C69.8798 121.476 69.9964 121.485 70.1458 121.504V123.226L69.9498 123.296C69.7911 123.231 69.6184 123.198 69.4318 123.198C68.8904 123.198 68.4004 123.548 67.9618 124.248V125.13L68.0598 128H66.1978L66.3098 125.312L66.2258 121.616L67.9898 121.462L67.9758 122.736H68.0878C68.5451 121.896 69.1144 121.476 69.7958 121.476ZM75.8581 121.364C76.1661 121.364 76.4694 121.397 76.7681 121.462C77.0761 121.518 77.3467 121.602 77.5801 121.714L77.2721 123.198L77.1181 123.268C76.6421 123.007 76.2174 122.876 75.8441 122.876C75.4147 122.876 75.0834 123.03 74.8501 123.338C74.6167 123.646 74.5001 124.085 74.5001 124.654C74.5001 125.307 74.6261 125.807 74.8781 126.152C75.1301 126.497 75.4894 126.67 75.9561 126.67C76.3761 126.67 76.8427 126.553 77.3561 126.32L77.4961 126.432L77.3141 127.874C76.7541 128.051 76.1801 128.14 75.5921 128.14C74.6961 128.14 73.9961 127.851 73.4921 127.272C72.9881 126.684 72.7361 125.867 72.7361 124.822C72.7361 123.739 73.0114 122.895 73.5621 122.288C74.1127 121.672 74.8781 121.364 75.8581 121.364ZM81.2728 121.364C82.2248 121.364 82.9528 121.644 83.4568 122.204C83.9608 122.764 84.2128 123.571 84.2128 124.626C84.2128 125.765 83.9421 126.637 83.4008 127.244C82.8595 127.841 82.0801 128.14 81.0628 128.14C80.1108 128.14 79.3828 127.86 78.8788 127.3C78.3748 126.74 78.1228 125.933 78.1228 124.878C78.1228 123.739 78.3935 122.871 78.9348 122.274C79.4761 121.667 80.2555 121.364 81.2728 121.364ZM81.1468 122.624C80.6988 122.624 80.3721 122.773 80.1668 123.072C79.9708 123.371 79.8728 123.851 79.8728 124.514C79.8728 125.373 79.9755 125.984 80.1808 126.348C80.3861 126.712 80.7221 126.894 81.1888 126.894C81.6368 126.894 81.9588 126.749 82.1548 126.46C82.3601 126.161 82.4628 125.676 82.4628 125.004C82.4628 124.155 82.3555 123.548 82.1408 123.184C81.9355 122.811 81.6041 122.624 81.1468 122.624ZM89.4107 123.94C89.4201 123.613 89.3454 123.361 89.1867 123.184C89.0374 122.997 88.8181 122.904 88.5287 122.904C88.1087 122.904 87.6607 123.105 87.1847 123.506V125.13L87.2687 128H85.4067L85.5047 125.312L85.4347 121.616L87.1987 121.462V122.414H87.2967C87.8101 121.947 88.3701 121.611 88.9767 121.406C89.6861 121.406 90.2274 121.569 90.6007 121.896C90.9741 122.213 91.1514 122.675 91.1327 123.282L91.0907 125.144L91.1747 128H89.2987L89.4107 123.94ZM95.4489 126.628C95.7476 126.628 96.0602 126.549 96.3869 126.39L96.5409 126.53L96.3589 127.636C95.8829 127.879 95.3976 128.028 94.9029 128.084C93.6429 127.953 93.0129 127.337 93.0129 126.236L93.0829 125.074L93.0689 122.666H92.2009L92.1309 122.568L92.2289 121.546H93.0549V120.468L94.7489 119.922L94.8749 120.034L94.8329 121.546H96.4989L96.5549 121.644L96.4709 122.666H94.8049L94.7209 125.802C94.7209 126.101 94.7769 126.315 94.8889 126.446C95.0009 126.567 95.1876 126.628 95.4489 126.628ZM101.145 121.476C101.229 121.476 101.346 121.485 101.495 121.504V123.226L101.299 123.296C101.141 123.231 100.968 123.198 100.781 123.198C100.24 123.198 99.75 123.548 99.3114 124.248V125.13L99.4094 128H97.5474L97.6594 125.312L97.5754 121.616L99.3394 121.462L99.3254 122.736H99.4374C99.8947 121.896 100.464 121.476 101.145 121.476ZM105.117 121.364C106.069 121.364 106.797 121.644 107.301 122.204C107.805 122.764 108.057 123.571 108.057 124.626C108.057 125.765 107.786 126.637 107.245 127.244C106.703 127.841 105.924 128.14 104.907 128.14C103.955 128.14 103.227 127.86 102.723 127.3C102.219 126.74 101.967 125.933 101.967 124.878C101.967 123.739 102.237 122.871 102.779 122.274C103.32 121.667 104.099 121.364 105.117 121.364ZM104.991 122.624C104.543 122.624 104.216 122.773 104.011 123.072C103.815 123.371 103.717 123.851 103.717 124.514C103.717 125.373 103.819 125.984 104.025 126.348C104.23 126.712 104.566 126.894 105.033 126.894C105.481 126.894 105.803 126.749 105.999 126.46C106.204 126.161 106.307 125.676 106.307 125.004C106.307 124.155 106.199 123.548 105.985 123.184C105.779 122.811 105.448 122.624 104.991 122.624ZM111.153 125.13L111.251 128H109.389L109.487 125.298L109.403 118.312L111.265 118.172L111.153 125.13ZM115.572 121.364C116.291 121.364 116.851 121.527 117.252 121.854C117.663 122.171 117.868 122.619 117.868 123.198C117.868 123.366 117.84 123.898 117.784 124.794C117.775 125.055 117.761 125.326 117.742 125.606C117.724 125.877 117.714 126.11 117.714 126.306C117.714 126.465 117.738 126.577 117.784 126.642C117.831 126.698 117.915 126.726 118.036 126.726C118.13 126.726 118.251 126.707 118.4 126.67L118.54 126.782L118.372 127.762C118.074 127.958 117.733 128.075 117.35 128.112C117.07 128.084 116.837 127.986 116.65 127.818C116.464 127.641 116.338 127.398 116.272 127.09H116.174C115.708 127.585 115.227 127.93 114.732 128.126C114.06 128.117 113.533 127.939 113.15 127.594C112.768 127.249 112.576 126.777 112.576 126.18C112.576 125.713 112.693 125.349 112.926 125.088C113.169 124.817 113.533 124.635 114.018 124.542L116.16 124.136V123.562C116.16 122.955 115.862 122.652 115.264 122.652C114.975 122.652 114.667 122.717 114.34 122.848C114.023 122.979 113.664 123.184 113.262 123.464L113.122 123.38L112.912 122.148C113.314 121.896 113.743 121.705 114.2 121.574C114.658 121.434 115.115 121.364 115.572 121.364ZM114.662 125.396C114.513 125.433 114.401 125.499 114.326 125.592C114.261 125.676 114.228 125.807 114.228 125.984C114.228 126.227 114.294 126.418 114.424 126.558C114.555 126.689 114.737 126.754 114.97 126.754C115.334 126.754 115.717 126.539 116.118 126.11L116.146 125.074L114.662 125.396ZM125.182 125.13L125.224 126.306C125.224 126.465 125.243 126.577 125.28 126.642C125.327 126.698 125.406 126.726 125.518 126.726C125.621 126.726 125.747 126.707 125.896 126.67L126.022 126.782L125.868 127.762C125.551 127.958 125.206 128.075 124.832 128.112C124.543 128.084 124.3 127.986 124.104 127.818C123.908 127.65 123.773 127.421 123.698 127.132H123.586C123.129 127.552 122.662 127.874 122.186 128.098C121.272 128.098 120.562 127.809 120.058 127.23C119.554 126.642 119.302 125.83 119.302 124.794C119.302 123.693 119.592 122.848 120.17 122.26C120.749 121.672 121.552 121.378 122.578 121.378C122.849 121.378 123.148 121.406 123.474 121.462L123.446 118.312L125.294 118.172L125.182 125.13ZM122.452 122.638C121.519 122.638 121.052 123.231 121.052 124.416C121.052 125.153 121.164 125.709 121.388 126.082C121.612 126.455 121.939 126.642 122.368 126.642C122.779 126.642 123.157 126.451 123.502 126.068L123.53 125.298L123.488 122.89C123.124 122.722 122.779 122.638 122.452 122.638ZM129.682 121.364C130.4 121.364 130.96 121.527 131.362 121.854C131.772 122.171 131.978 122.619 131.978 123.198C131.978 123.366 131.95 123.898 131.894 124.794C131.884 125.055 131.87 125.326 131.852 125.606C131.833 125.877 131.824 126.11 131.824 126.306C131.824 126.465 131.847 126.577 131.894 126.642C131.94 126.698 132.024 126.726 132.146 126.726C132.239 126.726 132.36 126.707 132.51 126.67L132.65 126.782L132.482 127.762C132.183 127.958 131.842 128.075 131.46 128.112C131.18 128.084 130.946 127.986 130.76 127.818C130.573 127.641 130.447 127.398 130.382 127.09H130.284C129.817 127.585 129.336 127.93 128.842 128.126C128.17 128.117 127.642 127.939 127.26 127.594C126.877 127.249 126.686 126.777 126.686 126.18C126.686 125.713 126.802 125.349 127.036 125.088C127.278 124.817 127.642 124.635 128.128 124.542L130.27 124.136V123.562C130.27 122.955 129.971 122.652 129.374 122.652C129.084 122.652 128.776 122.717 128.45 122.848C128.132 122.979 127.773 123.184 127.372 123.464L127.232 123.38L127.022 122.148C127.423 121.896 127.852 121.705 128.31 121.574C128.767 121.434 129.224 121.364 129.682 121.364ZM128.772 125.396C128.622 125.433 128.51 125.499 128.436 125.592C128.37 125.676 128.338 125.807 128.338 125.984C128.338 126.227 128.403 126.418 128.534 126.558C128.664 126.689 128.846 126.754 129.08 126.754C129.444 126.754 129.826 126.539 130.228 126.11L130.256 125.074L128.772 125.396Z" fill="white"/>
<defs>
<filter id="filter0_b_206:36988" x="3" y="67" width="161" height="97" filterUnits="userSpaceOnUse" color-interpolation-filters="sRGB">
<feFlood flood-opacity="0" result="BackgroundImageFix"/>
<feGaussianBlur in="BackgroundImage" stdDeviation="5"/>
<feComposite in2="SourceAlpha" operator="in" result="effect1_backgroundBlur_206:36988"/>
<feBlend mode="normal" in="SourceGraphic" in2="effect1_backgroundBlur_206:36988" result="shape"/>
</filter>
</defs>
</svg>
