<svg width="167" height="167" viewBox="0 0 167 167" fill="none" xmlns="http://www.w3.org/2000/svg">
<mask id="mask0_206:36948" style="mask-type:alpha" maskUnits="userSpaceOnUse" x="0" y="0" width="167" height="167">
<rect x="1" y="1" width="165" height="165" rx="8" fill="#5988D6" stroke="#EDE6FC" stroke-opacity="0.3"/>
</mask>
<g mask="url(#mask0_206:36948)">
<rect x="1" y="1" width="165" height="165" rx="8" fill="#A9D97A" stroke="#EDE6FC" stroke-opacity="0.3"/>
<path d="M91.0258 6.12533C91.6081 5.75678 92.3103 5.62741 92.9857 5.7642C93.6612 5.901 94.2576 6.29341 94.6507 6.8595C96.4631 8.91283 95.6601 10.9776 95.7175 12.9392C95.7748 14.9007 93.9969 19.3171 94.8342 21.1869C95.1013 21.6301 95.2424 22.1378 95.2424 22.6552C95.2424 23.1727 95.1013 23.6803 94.8342 24.1235C94.8342 24.1235 89.0987 25.936 89.2937 17.1491C89.4887 8.36222 91.0258 6.12533 91.0258 6.12533Z" fill="#252E3B"/>
<path d="M73.1537 111.396C61.0402 109.664 53.7676 105.236 51.5307 98.2154C50.0853 93.7302 50.7277 88.1667 53.412 81.6626C56.0864 75.5535 59.5038 69.7975 63.5869 64.5248C68.6603 57.7999 74.24 51.4723 80.2773 45.5974L80.6673 45.9989C74.6541 51.8637 69.0938 58.1756 64.0342 64.8804C59.9796 70.1164 56.5817 75.8296 53.9166 81.892C51.2898 88.247 50.6703 93.6958 52.0583 98.0548C54.2264 104.846 61.35 109.147 73.234 110.845C100.948 114.791 114.53 98.9381 115.987 70.9027C116.32 64.4792 116.009 58.0385 115.058 51.6771L115.62 51.5853C116.571 57.9814 116.882 64.4564 116.549 70.9142C116.318 76.6301 115.373 82.2947 113.739 87.7767C107.728 107.151 93.1937 114.241 73.1537 111.396Z" fill="#962E2E"/>
<path d="M88.8577 82.7524L86.942 85.1957C86.3928 84.3952 85.7952 83.629 85.1525 82.9014C84.6822 82.3279 84.143 81.697 83.5695 81.0202C81.4129 78.4736 78.7058 75.4108 77.0654 73.6557C76.6291 73.1561 76.1576 72.6884 75.6544 72.2563C74.0845 70.8124 72.9014 68.9983 72.2131 66.9796C71.8919 65.3851 72.6375 62.6664 73.234 60.5787C74.2715 57.2545 75.5956 54.0266 77.1916 50.9315C77.9713 49.5842 78.65 48.1808 79.222 46.733C90.3375 40.9057 88.8577 48.7864 87.8826 51.9639C86.9076 55.1414 79.8529 64.823 78.9925 65.9816C78.1322 67.1401 78.9237 67.6564 79.9561 68.4708C81.2304 69.7519 82.2639 71.2518 83.0074 72.8987C83.4318 73.954 88.8577 82.7524 88.8577 82.7524Z" fill="#EEA987"/>
<path d="M86.3455 86.5149C86.3455 86.5149 86.1046 90.048 85.1984 91.0001C84.2922 91.9522 81.9291 93.9252 82.9042 94.7282C83.8792 95.5312 87.6303 95.0609 88.938 92.5257C90.2457 89.9906 92.8726 89.268 92.3793 87.054C91.886 84.8401 90.0851 85.4136 88.6627 82.695C87.2403 79.9763 86.3455 86.5149 86.3455 86.5149Z" fill="#DBDFF0"/>
<path d="M94.1692 53.1684C93.1329 56.251 91.8793 59.2563 90.4181 62.1617C89.856 63.3088 87.7224 66.9107 87.8715 68.5052C87.9862 69.8588 88.8466 72.1301 89.2596 74.0687C89.3284 74.4128 89.3857 74.7455 89.4316 75.0552C89.6725 77.143 89.6381 88.6255 89.8905 90.2544C90.1428 91.8833 90.1772 92.2045 90.1772 92.2045C89.7363 92.5065 89.2368 92.7125 88.7112 92.8093C88.1856 92.9061 87.6455 92.8916 87.1259 92.7666C87.1259 92.7666 85.2791 82.9588 84.7055 81.0087C84.4302 80.0566 83.5584 77.5674 82.8127 75.1126C82.1037 73.1216 81.5551 71.077 81.1724 68.9985C81.1036 67.2663 82.0901 60.9687 82.3195 57.8371C82.5489 54.7055 85.0038 47.5131 85.0038 47.5131C85.0038 47.5131 88.4451 45.3336 94.1806 47.5131C94.8019 49.3477 94.7978 51.3363 94.1692 53.1684Z" fill="#EEA987"/>
<path d="M90.0852 91.8489C89.9087 91.9933 89.7052 92.101 89.4866 92.166C89.268 92.231 89.0387 92.2519 88.8119 92.2275C88.1581 92.0783 86.9077 92.3422 86.7012 92.9272C86.4948 93.5123 85.5541 96.4489 84.5447 97.2748C83.5352 98.1007 78.6141 101.863 80.9083 102.827C82.331 103.22 83.8439 103.132 85.2113 102.576C86.5787 102.02 87.7237 101.027 88.4678 99.7525C89.9132 97.0224 91.3815 97.2518 91.0488 94.9806C90.9597 93.8789 90.6308 92.8101 90.0852 91.8489Z" fill="#DBDFF0"/>
<path d="M87.8941 51.9294C87.2747 53.9828 84.1086 58.6974 81.734 62.1158C81.2523 62.7926 80.8164 63.4235 80.4264 63.9627C79.7267 64.9492 79.1875 65.6719 79.0154 65.9357C78.1895 67.0828 78.9351 67.6105 79.9675 68.4249C80.3966 68.792 80.7816 69.2078 81.1146 69.6638C79.5206 70.6995 78.1513 72.0454 77.0883 73.6213C76.3885 72.8642 72.7637 70.2718 72.1787 66.8993C71.9034 65.3048 72.6031 62.6205 73.211 60.5213C74.2737 57.2031 75.6129 53.9799 77.2145 50.8856C77.9988 49.5407 78.6776 48.137 79.2448 46.6872C90.3374 40.8599 88.8577 48.7405 87.8941 51.9294Z" fill="#285173"/>
<path d="M94.169 53.1684C93.1327 56.251 91.8792 59.2563 90.418 62.1617C89.8559 63.3088 87.7223 66.9107 87.8714 68.5052C87.9861 69.8588 88.8465 72.1301 89.2594 74.0687C87.0737 74.1286 84.9056 74.4796 82.8126 75.1126C82.0943 73.1181 81.5192 71.0749 81.0919 68.9985C81.0231 67.2663 81.9064 61.2899 82.1129 58.1353C82.3194 54.9808 84.9922 47.4672 84.9922 47.4672C84.9922 47.4672 88.3647 45.2877 94.169 47.4672C94.8152 49.3127 94.8152 51.3229 94.169 53.1684Z" fill="#285173"/>
<path d="M83.5697 80.9743C83.5249 79.4049 83.3986 77.8389 83.1912 76.2827C83.7877 78.2213 85.1183 82.7179 85.1527 82.8671L83.5697 80.9743Z" fill="#A77860"/>
<path d="M83.2025 53.1684C82.6978 55.107 81.7456 62.1158 81.7456 62.1158C81.2753 62.7926 80.828 63.4235 80.438 63.9627C80.4724 59.7643 83.1222 53.3404 83.2025 53.1684Z" fill="#1D3B54"/>
<path d="M109.081 46.9281C109.677 47.1302 110.3 47.2424 110.928 47.2607C111.972 47.2607 113.096 48.9355 113.303 49.3829C113.315 49.4435 113.315 49.5058 113.303 49.5664C113.314 49.6271 113.314 49.6893 113.303 49.75C113.279 49.8063 113.244 49.8572 113.2 49.8991C113.156 49.9442 113.1 49.9761 113.039 49.9909C113.039 49.9909 110.034 48.6029 109.058 48.8438C108.083 49.0847 107.911 48.6946 107.911 48.6946L109.081 46.9281Z" fill="#EEA987"/>
<path d="M115.012 52.8587L108.439 48.947L109.116 47.6852L115.895 51.3215L115.012 52.8587Z" fill="#EB4747"/>
<path d="M107.934 48.7061C108.107 49.2219 108.393 49.6924 108.772 50.0826C109.718 50.8413 110.795 51.4206 111.949 51.7918C112.33 51.0913 112.456 50.2804 112.305 49.4976C111.995 49.0043 111.708 49.8647 111.708 49.8647C111.708 49.8647 111.789 48.5111 111.41 48.5684C111.032 48.6258 111.009 49.4288 111.009 49.4288C111.009 49.4288 111.009 48.2816 110.641 48.4537C110.274 48.6258 110.229 49.0961 110.229 49.0961C110.229 49.0961 110.229 48.1325 109.896 48.2013C109.563 48.2702 109.162 49.532 108.909 49.2911C108.606 49.0626 108.279 48.8665 107.934 48.7061Z" fill="#EEA987"/>
<path d="M92.3795 20.0857C92.3577 20.6107 92.4723 21.1324 92.7122 21.5999C93.0678 22.0473 96.36 23.1026 97.0598 24.2382C97.7595 25.3739 95.7864 30.88 95.2932 32.3598C94.7999 33.8395 92.8498 36.9482 92.804 38.0036C92.677 39.5534 92.677 41.111 92.804 42.6608C93.0219 43.5326 94.0429 46.756 94.1805 47.4787C94.1805 47.4787 84.9348 49.1191 79.2681 46.6987C79.8697 44.7499 80.3298 42.7602 80.6446 40.7451C80.6446 39.598 80.6446 35.239 80.8281 34.0575C81.0117 32.876 78.6601 30.3868 79.9793 28.8726C81.2984 27.3584 84.6824 24.2841 85.3477 23.6762C86.0131 23.0682 87.642 21.7605 87.642 21.7605C87.9048 21.4095 88.1172 21.0233 88.2729 20.6134C88.4833 20.0099 88.5654 19.3691 88.5138 18.7321L92.7008 17.0688C92.5356 18.0674 92.4284 19.0747 92.3795 20.0857Z" fill="#EB4747"/>
<path d="M94.3524 23.8597C94.7424 23.7106 96.0272 22.5176 97.1743 24.3071C98.0826 25.9245 98.6231 27.7222 98.7573 29.5723C98.8491 30.7194 99.7668 35.9502 99.9847 36.822C100.203 37.6939 100.742 38.1068 101.832 39.1163C102.921 40.1257 109.07 46.9281 109.563 47.3296L107.969 48.8094C107.969 48.8094 98.7917 42.1217 97.9543 41.0319C96.9636 39.7026 96.2569 38.1837 95.878 36.5697C95.1898 34.2755 93.0562 28.6087 92.9414 27.714C92.8267 26.8192 92.3793 24.6397 94.3524 23.8597Z" fill="#EEA987"/>
<path d="M93.6182 31.1782C95.3369 30.281 97.2083 29.713 99.1358 29.5035C99.1358 29.5035 98.3098 22.5176 94.857 23.1829C91.4042 23.8482 92.907 28.5743 93.6182 31.1782Z" fill="#EB4747"/>
<path d="M92.6776 21.5999C92.6776 21.5999 89.8787 25.2362 86.9421 25.0412C84.0055 24.8462 87.55 21.7605 87.55 21.7605C87.7209 21.4555 87.8667 21.1371 87.9859 20.8084C88.1001 20.5214 88.1921 20.2261 88.2612 19.9251C88.3661 19.5243 88.4201 19.112 88.4218 18.6977L92.7808 16.4035C92.7808 16.4035 92.0238 20.6019 92.6776 21.5999Z" fill="#EEA987"/>
<path d="M88.938 19.9824C88.2382 19.9824 86.2652 19.8792 85.0607 15.394C83.581 9.97964 86.0243 6.98567 88.2268 6.34328C90.4292 5.7009 92.517 6.3433 93.8132 9.15372C93.8132 9.15372 94.7653 11.3447 93.6297 15.394C92.4941 19.4433 89.6262 19.9595 88.938 19.9824Z" fill="#EEA987"/>
<path d="M90.0851 9.83053C90.0851 9.83053 87.1141 10.1861 84.5675 14.5107C84.5675 14.5107 82.9845 9.56668 86.2537 7.08892C89.523 4.61116 91.9893 6.44656 92.907 7.39866C92.907 7.39866 94.0541 7.60513 94.2721 9.86494C94.49 12.1248 96.1189 15.3711 92.8726 17.1606C92.9882 16.1277 92.9457 15.0834 92.7464 14.0634C92.3793 13.4898 91.4502 13.9487 90.0851 9.83053Z" fill="#252E3B"/>
<path d="M92.5516 13.0768C92.6777 12.6753 93.0792 12.4918 93.3316 12.9048C93.5839 13.3177 93.4004 14.9466 92.8039 15.199C92.2074 15.4514 92.2877 13.8798 92.5516 13.0768Z" fill="#EEA987"/>
<path d="M91.5075 18.9042C91.1679 19.5095 90.6655 20.0077 90.0573 20.3422C89.4491 20.6767 88.7593 20.8342 88.0662 20.7969C88.1819 20.5144 88.274 20.2228 88.3415 19.9251C88.9119 20.0021 89.4924 19.9504 90.0403 19.7738C90.5881 19.5971 91.0895 19.3 91.5075 18.9042Z" fill="#A77860"/>
</g>
<g filter="url(#filter0_b_206:36948)">
<rect x="13" y="77" width="141" height="77" rx="10" fill="black" fill-opacity="0.8"/>
</g>
<path d="M48.7463 112H46.8143L46.5903 110.824L46.3523 109.984L44.5883 109.942L43.0343 109.984L42.7963 110.726L42.5583 112H40.6823L43.7343 102.984H45.9883L48.7463 112ZM45.9463 108.514L44.8823 104.762H44.7563L43.5243 108.514L44.7283 108.542L45.9463 108.514ZM52.1774 110.628C52.4761 110.628 52.7887 110.549 53.1154 110.39L53.2694 110.53L53.0874 111.636C52.6114 111.879 52.1261 112.028 51.6314 112.084C50.3714 111.953 49.7414 111.337 49.7414 110.236L49.8114 109.074L49.7974 106.666H48.9294L48.8594 106.568L48.9574 105.546H49.7834V104.468L51.4774 103.922L51.6034 104.034L51.5614 105.546H53.2274L53.2834 105.644L53.1994 106.666H51.5334L51.4494 109.802C51.4494 110.101 51.5054 110.315 51.6174 110.446C51.7294 110.567 51.9161 110.628 52.1774 110.628ZM54.4019 109.312L54.3319 105.616L56.1659 105.462L56.0819 109.13L56.1659 112H54.3039L54.4019 109.312ZM55.2839 102.298C55.5732 102.298 55.7972 102.382 55.9559 102.55C56.1239 102.718 56.2079 102.951 56.2079 103.25C56.2079 103.567 56.1192 103.819 55.9419 104.006C55.7645 104.193 55.5219 104.286 55.2139 104.286C54.9059 104.286 54.6679 104.202 54.4999 104.034C54.3412 103.866 54.2619 103.628 54.2619 103.32C54.2619 103.012 54.3505 102.765 54.5279 102.578C54.7145 102.391 54.9665 102.298 55.2839 102.298ZM59.1443 106.526L60.1243 110.25H60.2223L61.3983 106.624L61.6363 105.49H63.2603L61.0763 112H59.0743L57.2263 105.532L58.9623 105.448L59.1443 106.526ZM64.2866 109.312L64.2166 105.616L66.0506 105.462L65.9666 109.13L66.0506 112H64.1886L64.2866 109.312ZM65.1686 102.298C65.458 102.298 65.682 102.382 65.8406 102.55C66.0086 102.718 66.0926 102.951 66.0926 103.25C66.0926 103.567 66.004 103.819 65.8266 104.006C65.6493 104.193 65.4066 104.286 65.0986 104.286C64.7906 104.286 64.5526 104.202 64.3846 104.034C64.226 103.866 64.1466 103.628 64.1466 103.32C64.1466 103.012 64.2353 102.765 64.4126 102.578C64.5993 102.391 64.8513 102.298 65.1686 102.298ZM73.243 109.13L73.285 110.306C73.285 110.465 73.3037 110.577 73.341 110.642C73.3877 110.698 73.467 110.726 73.579 110.726C73.6817 110.726 73.8077 110.707 73.957 110.67L74.083 110.782L73.929 111.762C73.6117 111.958 73.2664 112.075 72.893 112.112C72.6037 112.084 72.361 111.986 72.165 111.818C71.969 111.65 71.8337 111.421 71.759 111.132H71.647C71.1897 111.552 70.723 111.874 70.247 112.098C69.3324 112.098 68.623 111.809 68.119 111.23C67.615 110.642 67.363 109.83 67.363 108.794C67.363 107.693 67.6524 106.848 68.231 106.26C68.8097 105.672 69.6124 105.378 70.639 105.378C70.9097 105.378 71.2084 105.406 71.535 105.462L71.507 102.312L73.355 102.172L73.243 109.13ZM70.513 106.638C69.5797 106.638 69.113 107.231 69.113 108.416C69.113 109.153 69.225 109.709 69.449 110.082C69.673 110.455 69.9997 110.642 70.429 110.642C70.8397 110.642 71.2177 110.451 71.563 110.068L71.591 109.298L71.549 106.89C71.185 106.722 70.8397 106.638 70.513 106.638ZM77.7422 105.364C78.4608 105.364 79.0208 105.527 79.4222 105.854C79.8328 106.171 80.0382 106.619 80.0382 107.198C80.0382 107.366 80.0102 107.898 79.9542 108.794C79.9448 109.055 79.9308 109.326 79.9122 109.606C79.8935 109.877 79.8842 110.11 79.8842 110.306C79.8842 110.465 79.9075 110.577 79.9542 110.642C80.0008 110.698 80.0848 110.726 80.2062 110.726C80.2995 110.726 80.4208 110.707 80.5702 110.67L80.7102 110.782L80.5422 111.762C80.2435 111.958 79.9028 112.075 79.5202 112.112C79.2402 112.084 79.0068 111.986 78.8202 111.818C78.6335 111.641 78.5075 111.398 78.4422 111.09H78.3442C77.8775 111.585 77.3968 111.93 76.9022 112.126C76.2302 112.117 75.7028 111.939 75.3202 111.594C74.9375 111.249 74.7462 110.777 74.7462 110.18C74.7462 109.713 74.8628 109.349 75.0962 109.088C75.3388 108.817 75.7028 108.635 76.1882 108.542L78.3302 108.136V107.562C78.3302 106.955 78.0315 106.652 77.4342 106.652C77.1448 106.652 76.8368 106.717 76.5102 106.848C76.1928 106.979 75.8335 107.184 75.4322 107.464L75.2922 107.38L75.0822 106.148C75.4835 105.896 75.9128 105.705 76.3702 105.574C76.8275 105.434 77.2848 105.364 77.7422 105.364ZM76.8322 109.396C76.6828 109.433 76.5708 109.499 76.4962 109.592C76.4308 109.676 76.3982 109.807 76.3982 109.984C76.3982 110.227 76.4635 110.418 76.5942 110.558C76.7248 110.689 76.9068 110.754 77.1402 110.754C77.5042 110.754 77.8868 110.539 78.2882 110.11L78.3162 109.074L76.8322 109.396ZM87.3524 109.13L87.3944 110.306C87.3944 110.465 87.4131 110.577 87.4504 110.642C87.4971 110.698 87.5764 110.726 87.6884 110.726C87.7911 110.726 87.9171 110.707 88.0664 110.67L88.1924 110.782L88.0384 111.762C87.7211 111.958 87.3757 112.075 87.0024 112.112C86.7131 112.084 86.4704 111.986 86.2744 111.818C86.0784 111.65 85.9431 111.421 85.8684 111.132H85.7564C85.2991 111.552 84.8324 111.874 84.3564 112.098C83.4417 112.098 82.7324 111.809 82.2284 111.23C81.7244 110.642 81.4724 109.83 81.4724 108.794C81.4724 107.693 81.7617 106.848 82.3404 106.26C82.9191 105.672 83.7217 105.378 84.7484 105.378C85.0191 105.378 85.3177 105.406 85.6444 105.462L85.6164 102.312L87.4644 102.172L87.3524 109.13ZM84.6224 106.638C83.6891 106.638 83.2224 107.231 83.2224 108.416C83.2224 109.153 83.3344 109.709 83.5584 110.082C83.7824 110.455 84.1091 110.642 84.5384 110.642C84.9491 110.642 85.3271 110.451 85.6724 110.068L85.7004 109.298L85.6584 106.89C85.2944 106.722 84.9491 106.638 84.6224 106.638ZM94.3295 108.976L90.5495 109.004C90.6335 110.171 91.2262 110.754 92.3275 110.754C92.9062 110.754 93.5502 110.591 94.2595 110.264L94.4135 110.362L94.1335 111.748C93.4242 112.009 92.7569 112.14 92.1315 112.14C91.1049 112.14 90.2975 111.841 89.7095 111.244C89.1309 110.647 88.8415 109.821 88.8415 108.766C88.8415 107.721 89.1262 106.895 89.6955 106.288C90.2649 105.672 91.0349 105.364 92.0055 105.364C92.8362 105.364 93.4755 105.593 93.9235 106.05C94.3809 106.498 94.6095 107.128 94.6095 107.94C94.6095 108.155 94.5862 108.425 94.5395 108.752L94.3295 108.976ZM92.9855 107.73C92.9855 107.357 92.9015 107.077 92.7335 106.89C92.5655 106.694 92.3182 106.596 91.9915 106.596C91.6275 106.596 91.3242 106.717 91.0815 106.96C90.8389 107.193 90.6755 107.534 90.5915 107.982L92.9575 107.926L92.9855 107.73ZM101.4 102.144C101.783 102.144 102.189 102.186 102.618 102.27L102.492 103.656L102.366 103.74C101.928 103.553 101.545 103.46 101.218 103.46C100.64 103.46 100.346 103.791 100.336 104.454L100.322 105.546H101.904L101.96 105.644L101.876 106.666H100.294L100.252 109.13L100.35 112H98.4882L98.6002 109.298L98.5722 106.666H97.5922L97.5222 106.568L97.6202 105.546H98.5582L98.5442 104.776C98.5442 103.936 98.7915 103.287 99.2862 102.83C99.7902 102.373 100.495 102.144 101.4 102.144ZM102.746 109.312L102.676 105.616L104.51 105.462L104.426 109.13L104.51 112H102.648L102.746 109.312ZM104.944 101.878L105.616 102.886L105.588 103.068C105.382 103.199 105.228 103.292 105.126 103.348C103.959 104.067 103.203 104.524 102.858 104.72L102.676 104.706L102.228 104.006C103.31 103.138 104.155 102.424 104.762 101.864L104.944 101.878ZM108.454 105.378C109.089 105.378 109.686 105.485 110.246 105.7L109.994 107.072L109.77 107.142C109.499 106.965 109.229 106.829 108.958 106.736C108.687 106.643 108.449 106.596 108.244 106.596C108.02 106.596 107.843 106.657 107.712 106.778C107.581 106.89 107.516 107.03 107.516 107.198C107.516 107.394 107.6 107.553 107.768 107.674C107.945 107.795 108.221 107.931 108.594 108.08C108.967 108.229 109.275 108.374 109.518 108.514C109.761 108.654 109.966 108.85 110.134 109.102C110.311 109.345 110.4 109.648 110.4 110.012C110.4 110.385 110.302 110.735 110.106 111.062C109.919 111.379 109.63 111.641 109.238 111.846C108.846 112.042 108.365 112.14 107.796 112.14C107.124 112.14 106.429 112 105.71 111.72L105.92 110.264L106.102 110.152C106.391 110.395 106.713 110.591 107.068 110.74C107.423 110.88 107.735 110.95 108.006 110.95C108.258 110.95 108.454 110.889 108.594 110.768C108.734 110.637 108.804 110.483 108.804 110.306C108.804 110.11 108.715 109.951 108.538 109.83C108.37 109.709 108.099 109.573 107.726 109.424C107.343 109.256 107.031 109.107 106.788 108.976C106.545 108.836 106.335 108.64 106.158 108.388C105.99 108.136 105.906 107.823 105.906 107.45C105.906 106.843 106.135 106.349 106.592 105.966C107.049 105.574 107.67 105.378 108.454 105.378ZM111.769 109.312L111.699 105.616L113.533 105.462L113.449 109.13L113.533 112H111.671L111.769 109.312ZM112.651 102.298C112.94 102.298 113.164 102.382 113.323 102.55C113.491 102.718 113.575 102.951 113.575 103.25C113.575 103.567 113.486 103.819 113.309 104.006C113.132 104.193 112.889 104.286 112.581 104.286C112.273 104.286 112.035 104.202 111.867 104.034C111.708 103.866 111.629 103.628 111.629 103.32C111.629 103.012 111.718 102.765 111.895 102.578C112.082 102.391 112.334 102.298 112.651 102.298ZM117.967 105.364C118.275 105.364 118.579 105.397 118.877 105.462C119.185 105.518 119.456 105.602 119.689 105.714L119.381 107.198L119.227 107.268C118.751 107.007 118.327 106.876 117.953 106.876C117.524 106.876 117.193 107.03 116.959 107.338C116.726 107.646 116.609 108.085 116.609 108.654C116.609 109.307 116.735 109.807 116.987 110.152C117.239 110.497 117.599 110.67 118.065 110.67C118.485 110.67 118.952 110.553 119.465 110.32L119.605 110.432L119.423 111.874C118.863 112.051 118.289 112.14 117.701 112.14C116.805 112.14 116.105 111.851 115.601 111.272C115.097 110.684 114.845 109.867 114.845 108.822C114.845 107.739 115.121 106.895 115.671 106.288C116.222 105.672 116.987 105.364 117.967 105.364ZM123.105 105.364C123.824 105.364 124.384 105.527 124.785 105.854C125.196 106.171 125.401 106.619 125.401 107.198C125.401 107.366 125.373 107.898 125.317 108.794C125.308 109.055 125.294 109.326 125.275 109.606C125.257 109.877 125.247 110.11 125.247 110.306C125.247 110.465 125.271 110.577 125.317 110.642C125.364 110.698 125.448 110.726 125.569 110.726C125.663 110.726 125.784 110.707 125.933 110.67L126.073 110.782L125.905 111.762C125.607 111.958 125.266 112.075 124.883 112.112C124.603 112.084 124.37 111.986 124.183 111.818C123.997 111.641 123.871 111.398 123.805 111.09H123.707C123.241 111.585 122.76 111.93 122.265 112.126C121.593 112.117 121.066 111.939 120.683 111.594C120.301 111.249 120.109 110.777 120.109 110.18C120.109 109.713 120.226 109.349 120.459 109.088C120.702 108.817 121.066 108.635 121.551 108.542L123.693 108.136V107.562C123.693 106.955 123.395 106.652 122.797 106.652C122.508 106.652 122.2 106.717 121.873 106.848C121.556 106.979 121.197 107.184 120.795 107.464L120.655 107.38L120.445 106.148C120.847 105.896 121.276 105.705 121.733 105.574C122.191 105.434 122.648 105.364 123.105 105.364ZM122.195 109.396C122.046 109.433 121.934 109.499 121.859 109.592C121.794 109.676 121.761 109.807 121.761 109.984C121.761 110.227 121.827 110.418 121.957 110.558C122.088 110.689 122.27 110.754 122.503 110.754C122.867 110.754 123.25 110.539 123.651 110.11L123.679 109.074L122.195 109.396ZM67.5262 121.476C67.6102 121.476 67.7269 121.485 67.8762 121.504V123.226L67.6802 123.296C67.5216 123.231 67.3489 123.198 67.1622 123.198C66.6209 123.198 66.1309 123.548 65.6922 124.248V125.13L65.7902 128H63.9282L64.0402 125.312L63.9562 121.616L65.7202 121.462L65.7062 122.736H65.8182C66.2756 121.896 66.8449 121.476 67.5262 121.476ZM73.8354 124.976L70.0554 125.004C70.1394 126.171 70.7321 126.754 71.8334 126.754C72.4121 126.754 73.0561 126.591 73.7654 126.264L73.9194 126.362L73.6394 127.748C72.9301 128.009 72.2627 128.14 71.6374 128.14C70.6107 128.14 69.8034 127.841 69.2154 127.244C68.6367 126.647 68.3474 125.821 68.3474 124.766C68.3474 123.721 68.6321 122.895 69.2014 122.288C69.7707 121.672 70.5407 121.364 71.5114 121.364C72.3421 121.364 72.9814 121.593 73.4294 122.05C73.8867 122.498 74.1154 123.128 74.1154 123.94C74.1154 124.155 74.0921 124.425 74.0454 124.752L73.8354 124.976ZM72.4914 123.73C72.4914 123.357 72.4074 123.077 72.2394 122.89C72.0714 122.694 71.8241 122.596 71.4974 122.596C71.1334 122.596 70.8301 122.717 70.5874 122.96C70.3447 123.193 70.1814 123.534 70.0974 123.982L72.4634 123.926L72.4914 123.73ZM81.5202 122.372C81.2682 122.437 80.9089 122.507 80.4422 122.582L80.4142 122.638C80.5542 122.918 80.6242 123.231 80.6242 123.576C80.6242 124.276 80.3675 124.836 79.8542 125.256C79.3502 125.667 78.6642 125.872 77.7962 125.872C77.5349 125.872 77.2642 125.849 76.9842 125.802C76.9002 125.886 76.8442 125.951 76.8162 125.998C76.7882 126.045 76.7742 126.101 76.7742 126.166C76.7742 126.334 76.8862 126.451 77.1102 126.516C77.3342 126.581 77.6889 126.647 78.1742 126.712C78.7249 126.777 79.1822 126.857 79.5462 126.95C79.9195 127.043 80.2369 127.207 80.4982 127.44C80.7689 127.673 80.9042 128.005 80.9042 128.434C80.9042 128.873 80.7642 129.265 80.4842 129.61C80.2135 129.965 79.8355 130.24 79.3502 130.436C78.8649 130.632 78.3142 130.73 77.6982 130.73C76.8489 130.73 76.1955 130.557 75.7382 130.212C75.2809 129.867 75.0522 129.409 75.0522 128.84C75.3415 128.439 75.7289 128.089 76.2142 127.79V127.72C75.8969 127.608 75.6495 127.454 75.4722 127.258C75.2949 127.053 75.2062 126.782 75.2062 126.446C75.4582 126.138 75.7755 125.853 76.1582 125.592V125.522C75.8222 125.335 75.5655 125.093 75.3882 124.794C75.2202 124.486 75.1362 124.127 75.1362 123.716C75.1362 122.988 75.3882 122.419 75.8922 122.008C76.3962 121.597 77.0822 121.392 77.9502 121.392C78.4542 121.392 78.9115 121.476 79.3222 121.644C79.9942 121.523 80.6802 121.336 81.3802 121.084L81.5202 121.21V122.372ZM77.8522 124.752C78.2349 124.752 78.5242 124.654 78.7202 124.458C78.9162 124.262 79.0142 123.977 79.0142 123.604C79.0142 122.895 78.6502 122.54 77.9222 122.54C77.1382 122.54 76.7462 122.899 76.7462 123.618C76.7462 123.991 76.8395 124.276 77.0262 124.472C77.2129 124.659 77.4882 124.752 77.8522 124.752ZM79.3362 128.77C79.3362 128.518 79.2009 128.345 78.9302 128.252C78.6689 128.159 78.2629 128.079 77.7122 128.014L77.2362 127.944C77.0122 128.093 76.8442 128.238 76.7322 128.378C76.6202 128.518 76.5642 128.667 76.5642 128.826C76.5642 129.069 76.6762 129.265 76.9002 129.414C77.1242 129.563 77.4509 129.638 77.8802 129.638C78.3189 129.638 78.6689 129.559 78.9302 129.4C79.2009 129.251 79.3362 129.041 79.3362 128.77ZM88.4782 126.782L88.3102 127.762C87.9649 127.986 87.6102 128.103 87.2462 128.112C86.9755 128.065 86.7515 127.958 86.5742 127.79C86.3969 127.622 86.2615 127.379 86.1682 127.062H86.0422C85.5102 127.585 84.9595 127.925 84.3902 128.084C83.6809 128.084 83.1395 127.925 82.7662 127.608C82.4022 127.281 82.2249 126.815 82.2342 126.208L82.2622 124.556L82.1922 121.616L83.9982 121.462L83.9562 125.592C83.9469 125.919 84.0122 126.166 84.1522 126.334C84.2922 126.502 84.5022 126.586 84.7822 126.586C85.1929 126.586 85.5989 126.404 86.0002 126.04V121.616L87.7782 121.462L87.6522 126.306C87.6522 126.455 87.6755 126.563 87.7222 126.628C87.7782 126.693 87.8622 126.726 87.9742 126.726C88.0769 126.726 88.2029 126.707 88.3522 126.67L88.4782 126.782ZM91.3967 125.13L91.4947 128H89.6327L89.7307 125.298L89.6467 118.312L91.5087 118.172L91.3967 125.13ZM95.8164 121.364C96.5351 121.364 97.0951 121.527 97.4964 121.854C97.9071 122.171 98.1124 122.619 98.1124 123.198C98.1124 123.366 98.0844 123.898 98.0284 124.794C98.0191 125.055 98.0051 125.326 97.9864 125.606C97.9677 125.877 97.9584 126.11 97.9584 126.306C97.9584 126.465 97.9817 126.577 98.0284 126.642C98.0751 126.698 98.1591 126.726 98.2804 126.726C98.3737 126.726 98.4951 126.707 98.6444 126.67L98.7844 126.782L98.6164 127.762C98.3177 127.958 97.9771 128.075 97.5944 128.112C97.3144 128.084 97.0811 127.986 96.8944 127.818C96.7077 127.641 96.5817 127.398 96.5164 127.09H96.4184C95.9517 127.585 95.4711 127.93 94.9764 128.126C94.3044 128.117 93.7771 127.939 93.3944 127.594C93.0117 127.249 92.8204 126.777 92.8204 126.18C92.8204 125.713 92.9371 125.349 93.1704 125.088C93.4131 124.817 93.7771 124.635 94.2624 124.542L96.4044 124.136V123.562C96.4044 122.955 96.1057 122.652 95.5084 122.652C95.2191 122.652 94.9111 122.717 94.5844 122.848C94.2671 122.979 93.9077 123.184 93.5064 123.464L93.3664 123.38L93.1564 122.148C93.5577 121.896 93.9871 121.705 94.4444 121.574C94.9017 121.434 95.3591 121.364 95.8164 121.364ZM94.9064 125.396C94.7571 125.433 94.6451 125.499 94.5704 125.592C94.5051 125.676 94.4724 125.807 94.4724 125.984C94.4724 126.227 94.5377 126.418 94.6684 126.558C94.7991 126.689 94.9811 126.754 95.2144 126.754C95.5784 126.754 95.9611 126.539 96.3624 126.11L96.3904 125.074L94.9064 125.396ZM103.511 121.476C103.595 121.476 103.711 121.485 103.861 121.504V123.226L103.665 123.296C103.506 123.231 103.333 123.198 103.147 123.198C102.605 123.198 102.115 123.548 101.677 124.248V125.13L101.775 128H99.9126L100.025 125.312L99.9406 121.616L101.705 121.462L101.691 122.736H101.803C102.26 121.896 102.829 121.476 103.511 121.476Z" fill="white"/>
<defs>
<filter id="filter0_b_206:36948" x="3" y="67" width="161" height="97" filterUnits="userSpaceOnUse" color-interpolation-filters="sRGB">
<feFlood flood-opacity="0" result="BackgroundImageFix"/>
<feGaussianBlur in="BackgroundImage" stdDeviation="5"/>
<feComposite in2="SourceAlpha" operator="in" result="effect1_backgroundBlur_206:36948"/>
<feBlend mode="normal" in="SourceGraphic" in2="effect1_backgroundBlur_206:36948" result="shape"/>
</filter>
</defs>
</svg>
