<svg width="167" height="167" viewBox="0 0 167 167" fill="none" xmlns="http://www.w3.org/2000/svg">
<mask id="mask0_206:37125" style="mask-type:alpha" maskUnits="userSpaceOnUse" x="0" y="0" width="167" height="167">
<rect x="1" y="0.999939" width="165" height="165" rx="8" fill="#5988D6" stroke="#EDE6FC" stroke-opacity="0.3"/>
</mask>
<g mask="url(#mask0_206:37125)">
<rect x="1" y="0.999939" width="165" height="165" rx="8" fill="#A9D97A" stroke="#EDE6FC" stroke-opacity="0.3"/>
<path d="M97.6115 55.5691L87.6713 71.1191C87.6713 71.1191 86.3612 71.8734 86.5353 71.5985C86.7094 71.3237 97.2236 54.8851 97.2236 54.8851L97.6115 55.5691Z" fill="#E5ECF3"/>
<path d="M97.4531 62.266C97.4235 62.3581 97.4008 62.4315 97.3849 62.4836L90.0463 70.428L85.554 68.0674L89.815 57.9379C91.4112 56.6533 92.7134 54.3111 93.6102 52.3363C94.0713 51.3211 94.4339 50.3829 94.6813 49.6986C94.8051 49.3563 94.9002 49.077 94.9646 48.8827C94.9967 48.7856 95.0212 48.7097 95.0378 48.6577L95.0454 48.6335L114.667 19.1943L120.3 22.8743L103.095 53.4206C101.199 54.5633 99.7754 56.8619 98.8324 58.8179C98.3477 59.8234 97.9797 60.7606 97.7328 61.4463C97.6093 61.7894 97.5159 62.0702 97.4531 62.266Z" fill="url(#paint0_linear_206:37125)" stroke="#FBFDF8" stroke-width="0.8"/>
<path d="M103.404 53.7497C101.765 53.2623 100.199 52.5594 98.7453 51.6594C97.221 50.8788 95.8233 49.8726 94.5994 48.6746C94.6804 48.5718 96.514 49.917 98.9277 51.3109C101.341 52.7049 103.451 53.6379 103.404 53.7497Z" fill="#263238"/>
<path d="M97.6897 62.614C96.2314 61.9659 94.8312 61.1939 93.5047 60.3066C92.1029 59.5407 90.7739 58.6487 89.534 57.6416C90.9848 58.2784 92.3782 59.0386 93.6988 59.9139C95.1077 60.692 96.4434 61.5957 97.6897 62.614Z" fill="#263238"/>
<path d="M116.168 31.0775C114.89 30.5544 113.668 29.907 112.517 29.1445C111.296 28.4979 110.145 27.7266 109.083 26.8428C110.365 27.3625 111.59 28.0125 112.738 28.7828C113.958 29.4263 115.108 30.1954 116.168 31.0775Z" fill="#263238"/>
<path d="M104.99 45.1077L105.119 45.2015C105.471 45.4425 105.714 45.8128 105.795 46.232C105.876 46.6512 105.788 47.0854 105.551 47.4402L101.272 54.0264C101.156 54.21 101.004 54.3684 100.825 54.4922C100.647 54.6159 100.445 54.7025 100.232 54.7468C100.02 54.791 99.8004 54.792 99.5873 54.7498C99.3742 54.7075 99.1718 54.6228 98.9921 54.5008C98.8123 54.3866 98.6568 54.238 98.5345 54.0637C98.4122 53.8893 98.3255 53.6926 98.2793 53.4847C98.2332 53.2768 98.2284 53.0618 98.2654 52.8521C98.3023 52.6423 98.3803 52.4419 98.4948 52.2624L102.645 45.5823C102.761 45.3893 102.915 45.2225 103.099 45.0926C103.283 44.9627 103.492 44.8725 103.713 44.8279C103.933 44.7832 104.161 44.7851 104.381 44.8332C104.601 44.8814 104.808 44.9748 104.99 45.1077Z" fill="#455A64"/>
<rect x="123.262" y="23.937" width="7.81302" height="2.8911" transform="rotate(118.804 123.262 23.937)" fill="#263238"/>
<rect x="119.932" y="29.9972" width="11.8244" height="1.41891" transform="rotate(118.804 119.932 29.9972)" fill="#263238"/>
<path opacity="0.5" d="M56.2072 61.6979L66.413 68.288C66.413 68.288 88.2324 35.1665 88.8401 33.8839C89.4478 32.6013 87.6674 31.3095 87.1941 30.3506C86.7208 29.3917 87.9637 28.3718 87.9637 28.3718L86.7147 27.0617L85.4198 26.2249L83.7128 25.6294C83.7128 25.6294 83.2944 27.1777 82.2256 27.1411C81.1567 27.1044 79.242 26.0173 78.3259 27.0983C78.2159 27.2266 77.8159 27.8221 77.1929 28.7718L76.8875 29.236L75.6171 31.1935L75.3118 31.6576L74.0505 33.6212L73.7451 34.0854C73.342 34.7145 72.9206 35.3711 72.487 36.0521L72.1816 36.5162C71.7754 37.1575 71.354 37.8141 70.9265 38.4829L70.6211 38.9501L69.366 40.9168L69.0606 41.384C68.6453 42.0345 68.23 42.6941 67.8086 43.3507L67.5032 43.8179L66.2511 45.7876C66.1503 45.9433 66.0526 46.093 65.9457 46.2548C60.9222 54.2466 56.2072 61.6979 56.2072 61.6979Z" fill="white"/>
<path opacity="0.85" d="M87.2582 36.421L87.4013 36.1987L87.2582 36.421Z" fill="#7BAED7"/>
<path opacity="0.85" d="M86.9773 36.879L87.1387 36.6293L86.9773 36.879Z" fill="#7BAED7"/>
<path opacity="0.85" d="M87.5117 36.027L87.6579 35.8017L87.5117 36.027Z" fill="#7BAED7"/>
<path opacity="0.85" d="M87.759 35.6423L87.89 35.4352L87.759 35.6423Z" fill="#7BAED7"/>
<path opacity="0.85" d="M86.6414 37.3858L86.8363 37.0812L86.6414 37.3858Z" fill="#7BAED7"/>
<path opacity="0.85" d="M85.9329 38.4829L86.5284 37.5668L85.9329 38.4829Z" fill="#7BAED7"/>
<path opacity="0.85" d="M88.1805 34.9767C88.214 34.9189 88.2475 34.8671 88.281 34.8153C88.2475 34.8793 88.214 34.9189 88.1805 34.9767Z" fill="#7BAED7"/>
<path opacity="0.85" d="M87.9789 35.2942L88.0977 35.1054L87.9789 35.2942Z" fill="#7BAED7"/>
<path opacity="0.85" d="M88.7271 34.0885C88.7454 34.0579 88.7606 34.0335 88.7729 34.0091C88.7606 34.0335 88.7454 34.0579 88.7271 34.0885Z" fill="#7BAED7"/>
<path d="M86.6719 29.4528C86.5223 29.9353 86.4673 30.3689 86.6047 30.6468C86.8199 31.0359 87.078 31.3995 87.3743 31.7309C88.0247 32.528 88.4675 33.1235 88.2477 33.5938C87.9728 34.1557 83.4501 41.1183 77.9899 49.4552C77.8556 49.3667 77.7212 49.2781 77.596 49.1804C76.7531 48.5696 75.9989 47.8367 75.2049 47.1679C74.4133 46.4769 73.5574 45.8633 72.6488 45.3356C71.8518 44.8959 70.9845 44.5813 70.1478 44.221C69.6192 43.9946 69.1043 43.7377 68.6056 43.4514L69.9798 41.2893L73.0733 36.4063L74.3284 34.4397L74.6338 33.9785C75.0766 33.2823 75.5011 32.6227 75.895 32.0149L76.2004 31.5477L77.4708 29.5933L77.7762 29.1322C78.6496 27.8007 78.8236 27.5656 78.8603 27.5228C78.9183 27.452 78.9927 27.3964 79.0771 27.3609C79.5046 27.1716 80.2528 27.3609 80.9094 27.5503C81.3344 27.6837 81.7726 27.7707 82.2164 27.8099C82.4725 27.8165 82.727 27.7665 82.9615 27.6633C83.2864 27.4482 83.5655 27.1711 83.783 26.8479C84.0273 26.5425 84.2655 26.1852 84.464 25.8768L85.4321 26.2188L86.7269 27.0525L87.414 27.7732C87.108 28.3053 86.8593 28.8683 86.6719 29.4528Z" fill="#89C5E4"/>
<path opacity="0.85" d="M88.5774 34.3358L88.5043 34.4546L88.5774 34.3358Z" fill="#7BAED7"/>
<path opacity="0.85" d="M85.493 39.154C85.554 39.0626 85.6118 38.9713 85.6697 38.8799C85.6118 38.9774 85.554 39.0687 85.493 39.154Z" fill="#7BAED7"/>
<path opacity="0.85" d="M88.3575 34.6928L88.4398 34.5588L88.3575 34.6928Z" fill="#7BAED7"/>
<path opacity="0.85" d="M88.6294 34.2501L88.6873 34.1526L88.6294 34.2501Z" fill="#7BAED7"/>
<path opacity="0.85" d="M81.1903 45.7723L81.4102 45.4364L81.1903 45.7723Z" fill="#7BAED7"/>
<path opacity="0.85" d="M80.8177 46.3399L80.9365 46.1602L80.8177 46.3399Z" fill="#7BAED7"/>
<path opacity="0.85" d="M81.7065 44.9807L81.871 44.7279L81.7065 44.9807Z" fill="#7BAED7"/>
<path opacity="0.85" d="M82.1827 44.251L82.3198 44.0408L82.1827 44.251Z" fill="#7BAED7"/>
<path opacity="0.85" d="M69.0973 41.384L68.0193 43.0789L69.0973 41.384Z" fill="#7BAED7"/>
<path opacity="0.85" d="M88.8401 33.8839C88.8275 33.9112 88.8133 33.9377 88.7974 33.9633C88.8096 33.9297 88.831 33.9053 88.8401 33.8839Z" fill="#7BAED7"/>
<path opacity="0.85" d="M85.1267 39.7282L85.2881 39.4784L85.1267 39.7282Z" fill="#7BAED7"/>
<path opacity="0.85" d="M83.9235 41.5727L84.0879 41.3199L83.9235 41.5727Z" fill="#7BAED7"/>
<path opacity="0.85" d="M84.3143 40.9862L84.5245 40.6633L84.3143 40.9862Z" fill="#7BAED7"/>
<path opacity="0.85" d="M84.7328 40.3329L84.8942 40.0831L84.7328 40.3329Z" fill="#7BAED7"/>
<path opacity="0.85" d="M83.4868 42.2476L83.6574 41.9887L83.4868 42.2476Z" fill="#7BAED7"/>
<path opacity="0.85" d="M82.592 43.6225L82.818 43.2774L82.592 43.6225Z" fill="#7BAED7"/>
<path opacity="0.85" d="M83.0074 42.972L83.2456 42.6055L83.0074 42.972Z" fill="#7BAED7"/>
<path d="M55.4423 80.9254L75.8864 49.251L69.9312 45.4073L49.4871 77.0817L55.4423 80.9254Z" fill="white"/>
<path d="M55.4409 80.9228L64.2064 67.3421L61.1249 65.3532L52.3594 78.9338L55.4409 80.9228Z" fill="#D8DDE2"/>
<path d="M89.1486 21.1129L99.0887 5.5629C99.0887 5.5629 100.399 4.80861 100.225 5.08346C100.051 5.3583 89.5364 21.7969 89.5364 21.7969L89.1486 21.1129Z" fill="#E5ECF3"/>
<path d="M46.3617 76.973C45.812 76.402 46.777 74.5789 48.0352 75.4461C49.2934 76.3134 57.1386 80.6071 57.502 82.0179C57.789 83.0959 56.6408 83.7342 56.0545 83.4196C55.4682 83.1051 47.1893 77.8342 46.3617 76.973Z" fill="#25405D"/>
<path d="M74.5513 51.315L75.8858 49.2415L69.9309 45.3967L69.2224 46.5083L74.5513 51.315Z" fill="#B5BBC5"/>
<path d="M62.2201 70.4074L63.5546 68.3338L57.5997 64.4891L56.8882 65.5976L62.2201 70.4074Z" fill="#B1BAC5"/>
<path d="M67.7383 44.789C67.7383 44.789 77.1806 50.808 77.0829 50.8508C76.9852 50.8936 78.2128 49.046 78.2128 49.046C78.2128 49.046 75.9194 44.4164 75.1315 43.766C74.3437 43.1155 68.917 42.9231 68.917 42.9231L67.7383 44.789Z" fill="#415972"/>
<path opacity="0.9" d="M87.1941 30.3476C87.6674 31.3065 89.4509 32.6043 88.837 33.8839C88.2232 35.1634 66.413 68.288 66.413 68.288L56.2072 61.6979C56.2072 61.6979 60.9222 54.2466 66.0007 46.2548L66.3061 45.7876C66.7214 45.1341 67.1428 44.4775 67.5581 43.8179L67.8635 43.3537L69.1156 41.3871C69.2164 41.2313 69.3171 41.0817 69.421 40.9168C69.8454 40.2541 70.2669 39.5945 70.6761 38.9501L70.9815 38.4829C71.4059 37.8111 71.8274 37.1545 72.2335 36.5193L72.5389 36.0521C72.9725 35.3711 73.394 34.7145 73.7971 34.0854L74.1024 33.6182L75.3606 31.6577L75.666 31.1935C76.1424 30.4575 76.5669 29.7979 76.9333 29.236L77.2387 28.7718C77.8495 27.8221 78.2617 27.2266 78.3717 27.0983C79.2878 26.0142 81.2056 27.0983 82.2714 27.1441C82.4861 27.125 82.6933 27.0552 82.8759 26.9405C83.0585 26.8259 83.2113 26.6696 83.3219 26.4845C83.5697 26.1422 83.7748 25.771 83.9326 25.379C83.9876 25.2355 84.0181 25.1439 84.0181 25.1439L84.8091 25.4493C84.7511 25.5378 84.6869 25.6356 84.6136 25.7547C84.3815 26.1028 84.0792 26.5212 83.7891 26.8785C83.5746 27.1869 83.308 27.4555 83.0012 27.6724C82.7667 27.7756 82.5122 27.8257 82.2561 27.819C81.8123 27.7799 81.3741 27.6929 80.9491 27.5595C80.2864 27.3823 79.5382 27.1808 79.1168 27.3701C79.0324 27.4056 78.958 27.4612 78.9 27.532C78.8633 27.5747 78.6893 27.8099 77.8159 29.1413L77.5105 29.6024L76.2401 31.5569L75.9347 32.0241C75.5408 32.6349 75.1163 33.2914 74.6735 33.9877L74.3681 34.4488L73.0733 36.4063L69.9645 41.2924L66.5687 46.6274C62.3209 53.3152 58.3234 59.6244 57.1355 61.5055L66.2114 67.3566C74.9453 54.094 87.7591 34.5496 88.2263 33.5938C88.4462 33.1235 88.0034 32.528 87.3529 31.7309C87.0566 31.3995 86.7985 31.0359 86.5833 30.6468C86.4459 30.3659 86.5039 29.917 86.6597 29.4253C86.8508 28.8559 87.0973 28.3067 87.3957 27.7854L87.9545 28.3748C87.9545 28.3748 87.1513 29.0344 87.0872 29.7948C87.0664 29.9856 87.1036 30.1783 87.1941 30.3476Z" fill="white"/>
<g style="mix-blend-mode:multiply">
<path d="M87.0993 29.7979C87.078 29.9864 87.1109 30.1771 87.194 30.3476C87.6674 31.3065 89.4508 32.6043 88.837 33.8839C88.2231 35.1634 66.4129 68.288 66.4129 68.288L61.4474 65.0815L85.3129 28.2435L86.2657 26.7716L86.7146 27.077L88.0827 28.2557C88.0155 28.2985 87.1818 29.0283 87.0993 29.7979Z" fill="#DEE2E7"/>
</g>
<g style="mix-blend-mode:multiply">
<path d="M88.0798 28.2465C88.0156 28.2985 87.1819 29.0283 87.0995 29.7979L86.672 29.4284L85.3191 28.2496L83.7434 26.8846L83.2822 26.4906C83.53 26.1483 83.7351 25.7771 83.893 25.3851L84.574 25.7607L85.4321 26.2341L86.278 26.7777L86.7269 27.083L88.0798 28.2465Z" fill="#D6DBE0"/>
</g>
<path d="M83.1021 25.5958C83.1021 25.5958 83.2242 25.1011 84.0548 24.4201C85.0168 23.6292 88.8615 20.7311 89.2005 20.8075C89.5395 20.8838 90.0403 21.1892 90.0128 21.574C89.9914 21.8977 88.9562 27.196 88.718 28.0114C88.4798 28.8268 88.0645 28.8023 88.0645 28.8023L83.1021 25.5958Z" fill="#25405D"/>
<path d="M53.08 61.3529C52.2341 60.565 53.2601 58.4884 55.1291 59.7649C56.998 61.0414 68.4314 67.5521 69.1766 69.3355C69.7415 70.7036 68.2757 71.2991 67.4206 70.8196C66.5656 70.3402 54.3565 62.5377 53.08 61.3529Z" fill="#25405D"/>
<path d="M79.8434 30.5823L79.8781 30.5284C79.9548 30.4093 79.9204 30.2505 79.8013 30.1738L78.6023 29.4017C78.4832 29.325 78.3244 29.3594 78.2477 29.4785L78.213 29.5324C78.1363 29.6515 78.1707 29.8103 78.2898 29.887L79.4888 30.6591C79.6079 30.7358 79.7667 30.7014 79.8434 30.5823Z" fill="#25405D"/>
<path d="M78.7046 32.3329L78.6682 32.3893C78.6314 32.4465 78.5733 32.4867 78.5068 32.5011C78.4403 32.5154 78.3708 32.5028 78.3136 32.4659L77.115 31.6932C77.0578 31.6563 77.0176 31.5983 77.0033 31.5318C76.9889 31.4653 77.0015 31.3958 77.0384 31.3386L77.0748 31.2821C77.1117 31.2249 77.1697 31.1848 77.2362 31.1704C77.3027 31.156 77.3722 31.1687 77.4294 31.2055L78.6306 31.9799C78.6586 31.998 78.6827 32.0213 78.7017 32.0487C78.7206 32.0761 78.734 32.1069 78.741 32.1394C78.748 32.172 78.7486 32.2056 78.7426 32.2383C78.7367 32.2711 78.7243 32.3023 78.7063 32.3303L78.7046 32.3329Z" fill="#25405D"/>
<path d="M77.5163 34.1682L77.48 34.2247C77.4436 34.2812 77.3863 34.321 77.3206 34.3352C77.2549 34.3495 77.1862 34.337 77.1297 34.3007L75.9278 33.5273C75.8706 33.4905 75.8304 33.4325 75.8159 33.366C75.8015 33.2995 75.8141 33.23 75.8509 33.1728L75.8873 33.1163C75.9053 33.0883 75.9286 33.0641 75.956 33.0452C75.9833 33.0262 76.0142 33.0128 76.0467 33.0057C76.0792 32.9987 76.1128 32.9981 76.1456 33.004C76.1783 33.01 76.2096 33.0223 76.2376 33.0403L77.4394 33.8136C77.4966 33.8505 77.5369 33.9085 77.5513 33.975C77.5657 34.0415 77.5532 34.111 77.5163 34.1682Z" fill="#25405D"/>
<path d="M77.1748 36.6086L77.2095 36.5547C77.2862 36.4356 77.2518 36.2768 77.1327 36.2001L75.053 34.8609C74.9339 34.7842 74.7752 34.8186 74.6985 34.9377L74.6638 34.9916C74.5871 35.1107 74.6214 35.2695 74.7406 35.3462L76.8202 36.6854C76.9393 36.7621 77.0981 36.7277 77.1748 36.6086Z" fill="#25405D"/>
<path d="M75.1057 37.8672L75.1404 37.8132C75.2171 37.6941 75.1827 37.5354 75.0636 37.4587L73.8646 36.6866C73.7455 36.6099 73.5868 36.6442 73.51 36.7633L73.4753 36.8173C73.3986 36.9364 73.433 37.0951 73.5521 37.1718L74.7511 37.9439C74.8703 38.0206 75.029 37.9863 75.1057 37.8672Z" fill="#25405D"/>
<path d="M73.9127 39.6683L73.9474 39.6144C74.0241 39.4953 73.9897 39.3365 73.8706 39.2598L72.6716 38.4877C72.5525 38.411 72.3938 38.4454 72.3171 38.5645L72.2823 38.6184C72.2056 38.7375 72.24 38.8963 72.3591 38.973L73.5581 39.7451C73.6773 39.8218 73.836 39.7874 73.9127 39.6683Z" fill="#25405D"/>
<path d="M72.9054 41.4593L72.8691 41.5157C72.8328 41.5722 72.7756 41.612 72.71 41.6262C72.6444 41.6405 72.5758 41.6281 72.5194 41.5918L71.3189 40.82C71.2617 40.7833 71.2215 40.7254 71.2071 40.659C71.1926 40.5926 71.2052 40.5232 71.2419 40.466L71.2782 40.4096C71.3145 40.3531 71.3717 40.3134 71.4373 40.2991C71.5029 40.2849 71.5715 40.2973 71.628 40.3336L72.8285 41.1053C72.8568 41.1235 72.8812 41.1471 72.9004 41.1747C72.9196 41.2024 72.9331 41.2335 72.9403 41.2664C72.9474 41.2992 72.948 41.3332 72.942 41.3663C72.9361 41.3994 72.9236 41.431 72.9054 41.4593Z" fill="#25405D"/>
<path d="M72.5091 43.9378L72.5439 43.8839C72.6206 43.7647 72.5862 43.606 72.4671 43.5293L70.3874 42.1901C70.2683 42.1134 70.1095 42.1477 70.0328 42.2669L69.9981 42.3208C69.9214 42.4399 69.9558 42.5986 70.0749 42.6753L72.1546 44.0146C72.2737 44.0913 72.4324 44.0569 72.5091 43.9378Z" fill="#25405D"/>
<path d="M70.5169 45.1904L70.5515 45.1365C70.628 45.0175 70.5936 44.859 70.4746 44.7825L69.2766 44.0124C69.1576 43.9359 68.9991 43.9704 68.9226 44.0894L68.888 44.1433C68.8115 44.2623 68.846 44.4208 68.965 44.4973L70.1629 45.2674C70.2819 45.3439 70.4404 45.3094 70.5169 45.1904Z" fill="#25405D"/>
<path d="M69.1968 46.9538L69.2314 46.8998C69.308 46.7806 69.2735 46.6219 69.1543 46.5453L67.9546 45.7742C67.8355 45.6976 67.6767 45.7322 67.6001 45.8513L67.5655 45.9053C67.4889 46.0245 67.5234 46.1832 67.6426 46.2598L68.8423 47.0309C68.9614 47.1075 69.1202 47.0729 69.1968 46.9538Z" fill="#25405D"/>
<path d="M68.0167 48.7896L68.0514 48.7357C68.1281 48.6166 68.0937 48.4578 67.9746 48.3811L66.7756 47.609C66.6565 47.5323 66.4978 47.5667 66.4211 47.6858L66.3863 47.7397C66.3096 47.8588 66.344 48.0175 66.4631 48.0943L67.6621 48.8664C67.7813 48.9431 67.94 48.9087 68.0167 48.7896Z" fill="#25405D"/>
<path d="M67.7522 51.1062L67.7109 51.1704C67.6741 51.2276 67.616 51.2678 67.5495 51.2822C67.483 51.2966 67.4136 51.284 67.3564 51.2471L65.2741 49.9063C65.2461 49.8882 65.222 49.8649 65.203 49.8375C65.184 49.8102 65.1707 49.7793 65.1636 49.7468C65.1566 49.7143 65.156 49.6807 65.1619 49.6479C65.1679 49.6152 65.1802 49.5839 65.1982 49.5559L65.2346 49.4994C65.2529 49.4711 65.2765 49.4467 65.3042 49.4275C65.3319 49.4083 65.3631 49.3947 65.396 49.3876C65.4289 49.3805 65.4629 49.3799 65.4961 49.3859C65.5292 49.3919 65.5608 49.4044 65.5892 49.4227L67.6714 50.7635C67.6997 50.7818 67.7242 50.8054 67.7434 50.8331C67.7626 50.8608 67.7761 50.892 67.7832 50.9249C67.7904 50.9578 67.7909 50.9918 67.7849 51.025C67.7789 51.0581 67.7664 51.0898 67.7482 51.1181L67.7522 51.1062Z" fill="#25405D"/>
<path d="M65.7264 52.4658L65.7611 52.4119C65.8377 52.2927 65.8032 52.134 65.684 52.0574L64.4843 51.2863C64.3651 51.2097 64.2064 51.2442 64.1298 51.3634L64.0951 51.4173C64.0185 51.5365 64.053 51.6952 64.1722 51.7718L65.3719 52.5429C65.4911 52.6195 65.6498 52.585 65.7264 52.4658Z" fill="#25405D"/>
<path d="M64.6771 54.4056L64.7117 54.3517C64.7882 54.2327 64.7537 54.0742 64.6347 53.9977L63.4368 53.2276C63.3178 53.1511 63.1593 53.1856 63.0828 53.3046L63.0482 53.3585C62.9717 53.4775 63.0061 53.636 63.1251 53.7125L64.3231 54.4826C64.4421 54.5591 64.6006 54.5246 64.6771 54.4056Z" fill="#25405D"/>
<path d="M63.3856 56.0503L63.3493 56.1068C63.3129 56.1633 63.2555 56.2031 63.1898 56.2173C63.1241 56.2316 63.0555 56.2191 62.9989 56.1828L61.8048 55.4144C61.7476 55.3775 61.7073 55.3195 61.6929 55.253C61.6785 55.1865 61.6911 55.117 61.7279 55.0598L61.7642 55.0033C61.8006 54.9468 61.8579 54.907 61.9236 54.8928C61.9893 54.8785 62.058 54.891 62.1145 54.9273L63.3164 55.7007C63.371 55.7386 63.4087 55.7963 63.4216 55.8615C63.4345 55.9267 63.4216 55.9944 63.3856 56.0503Z" fill="#25405D"/>
</g>
<g filter="url(#filter0_b_206:37125)">
<rect x="13" y="76.9999" width="141" height="77" rx="10" fill="black" fill-opacity="0.8"/>
</g>
<path d="M52.2668 104H50.3348L50.1108 102.824L49.8728 101.984L48.1088 101.942L46.5548 101.984L46.3168 102.726L46.0788 104H44.2028L47.2548 94.9839H49.5088L52.2668 104ZM49.4668 100.514L48.4028 96.7619H48.2768L47.0448 100.514L48.2488 100.542L49.4668 100.514ZM58.0205 97.3639C58.7392 97.3639 59.2992 97.5273 59.7005 97.8539C60.1112 98.1713 60.3165 98.6193 60.3165 99.1979C60.3165 99.3659 60.2885 99.8979 60.2325 100.794C60.2232 101.055 60.2092 101.326 60.1905 101.606C60.1718 101.877 60.1625 102.11 60.1625 102.306C60.1625 102.465 60.1858 102.577 60.2325 102.642C60.2792 102.698 60.3632 102.726 60.4845 102.726C60.5778 102.726 60.6992 102.707 60.8485 102.67L60.9885 102.782L60.8205 103.762C60.5218 103.958 60.1812 104.075 59.7985 104.112C59.5185 104.084 59.2852 103.986 59.0985 103.818C58.9118 103.641 58.7858 103.398 58.7205 103.09H58.6225C58.1558 103.585 57.6752 103.93 57.1805 104.126C56.5085 104.117 55.9812 103.939 55.5985 103.594C55.2158 103.249 55.0245 102.777 55.0245 102.18C55.0245 101.713 55.1412 101.349 55.3745 101.088C55.6172 100.817 55.9812 100.635 56.4665 100.542L58.6085 100.136V99.5619C58.6085 98.9553 58.3098 98.6519 57.7125 98.6519C57.4232 98.6519 57.1152 98.7173 56.7885 98.8479C56.4712 98.9786 56.1118 99.1839 55.7105 99.4639L55.5705 99.3799L55.3605 98.1479C55.7618 97.8959 56.1912 97.7046 56.6485 97.5739C57.1058 97.4339 57.5632 97.3639 58.0205 97.3639ZM57.1105 101.396C56.9612 101.433 56.8492 101.499 56.7745 101.592C56.7092 101.676 56.6765 101.807 56.6765 101.984C56.6765 102.227 56.7418 102.418 56.8725 102.558C57.0032 102.689 57.1852 102.754 57.4185 102.754C57.7825 102.754 58.1652 102.539 58.5665 102.11L58.5945 101.074L57.1105 101.396ZM65.6427 97.4059C66.4547 97.4059 67.0801 97.6813 67.5187 98.2319C67.9574 98.7826 68.1767 99.5619 68.1767 100.57C68.1767 101.709 67.8921 102.591 67.3227 103.216C66.7627 103.832 65.9694 104.14 64.9427 104.14C64.6441 104.14 64.3314 104.112 64.0047 104.056L64.0467 106.59H62.1987L62.2967 101.312L62.2127 97.6159L63.9907 97.4619L63.9767 98.4139H64.0747C64.3361 98.1619 64.5881 97.9613 64.8307 97.8119C65.0734 97.6533 65.3441 97.5179 65.6427 97.4059ZM64.9567 102.922C65.4421 102.922 65.8107 102.749 66.0627 102.404C66.3147 102.059 66.4407 101.55 66.4407 100.878C66.4407 100.225 66.3334 99.7346 66.1187 99.4079C65.9134 99.0719 65.6054 98.9039 65.1947 98.9039C64.7934 98.9039 64.3874 99.1046 63.9767 99.5059L63.9627 101.13L63.9907 102.712C64.3267 102.852 64.6487 102.922 64.9567 102.922ZM71.2648 101.13L71.3628 104H69.5008L69.5988 101.298L69.5148 94.3119L71.3768 94.1719L71.2648 101.13ZM73.2486 101.312L73.1786 97.6159L75.0126 97.4619L74.9286 101.13L75.0126 104H73.1506L73.2486 101.312ZM74.1306 94.2979C74.4199 94.2979 74.6439 94.3819 74.8026 94.5499C74.9706 94.7179 75.0546 94.9513 75.0546 95.2499C75.0546 95.5673 74.9659 95.8193 74.7886 96.0059C74.6112 96.1926 74.3686 96.2859 74.0606 96.2859C73.7526 96.2859 73.5146 96.2019 73.3466 96.0339C73.1879 95.8659 73.1086 95.6279 73.1086 95.3199C73.1086 95.0119 73.1972 94.7646 73.3746 94.5779C73.5612 94.3913 73.8132 94.2979 74.1306 94.2979ZM79.4469 97.3639C79.7549 97.3639 80.0583 97.3966 80.3569 97.4619C80.6649 97.5179 80.9356 97.6019 81.1689 97.7139L80.8609 99.1979L80.7069 99.2679C80.2309 99.0066 79.8063 98.8759 79.4329 98.8759C79.0036 98.8759 78.6723 99.0299 78.4389 99.3379C78.2056 99.6459 78.0889 100.085 78.0889 100.654C78.0889 101.307 78.2149 101.807 78.4669 102.152C78.7189 102.497 79.0783 102.67 79.5449 102.67C79.9649 102.67 80.4316 102.553 80.9449 102.32L81.0849 102.432L80.9029 103.874C80.3429 104.051 79.7689 104.14 79.1809 104.14C78.2849 104.14 77.5849 103.851 77.0809 103.272C76.5769 102.684 76.3249 101.867 76.3249 100.822C76.3249 99.7393 76.6003 98.8946 77.1509 98.2879C77.7016 97.6719 78.4669 97.3639 79.4469 97.3639ZM84.5849 97.3639C85.3036 97.3639 85.8636 97.5273 86.2649 97.8539C86.6756 98.1713 86.8809 98.6193 86.8809 99.1979C86.8809 99.3659 86.8529 99.8979 86.7969 100.794C86.7876 101.055 86.7736 101.326 86.7549 101.606C86.7363 101.877 86.7269 102.11 86.7269 102.306C86.7269 102.465 86.7503 102.577 86.7969 102.642C86.8436 102.698 86.9276 102.726 87.0489 102.726C87.1423 102.726 87.2636 102.707 87.4129 102.67L87.5529 102.782L87.3849 103.762C87.0863 103.958 86.7456 104.075 86.3629 104.112C86.0829 104.084 85.8496 103.986 85.6629 103.818C85.4763 103.641 85.3503 103.398 85.2849 103.09H85.1869C84.7203 103.585 84.2396 103.93 83.7449 104.126C83.0729 104.117 82.5456 103.939 82.1629 103.594C81.7803 103.249 81.5889 102.777 81.5889 102.18C81.5889 101.713 81.7056 101.349 81.9389 101.088C82.1816 100.817 82.5456 100.635 83.0309 100.542L85.1729 100.136V99.5619C85.1729 98.9553 84.8743 98.6519 84.2769 98.6519C83.9876 98.6519 83.6796 98.7173 83.3529 98.8479C83.0356 98.9786 82.6763 99.1839 82.2749 99.4639L82.1349 99.3799L81.9249 98.1479C82.3263 97.8959 82.7556 97.7046 83.2129 97.5739C83.6703 97.4339 84.1276 97.3639 84.5849 97.3639ZM83.6749 101.396C83.5256 101.433 83.4136 101.499 83.3389 101.592C83.2736 101.676 83.2409 101.807 83.2409 101.984C83.2409 102.227 83.3063 102.418 83.4369 102.558C83.5676 102.689 83.7496 102.754 83.9829 102.754C84.3469 102.754 84.7296 102.539 85.1309 102.11L85.1589 101.074L83.6749 101.396ZM91.4372 97.3639C91.7452 97.3639 92.0485 97.3966 92.3472 97.4619C92.6552 97.5179 92.9258 97.6019 93.1592 97.7139L92.8512 99.1979L92.6972 99.2679C92.2212 99.0066 91.7965 98.8759 91.4232 98.8759C90.9938 98.8759 90.6625 99.0299 90.4292 99.3379C90.1958 99.6459 90.0792 100.085 90.0792 100.654C90.0792 101.307 90.2052 101.807 90.4572 102.152C90.7092 102.497 91.0685 102.67 91.5352 102.67C91.9552 102.67 92.4218 102.553 92.9352 102.32L93.0752 102.432L92.8932 103.874C92.3332 104.051 91.7592 104.14 91.1712 104.14C90.2752 104.14 89.5752 103.851 89.0712 103.272C88.5672 102.684 88.3152 101.867 88.3152 100.822C88.3152 99.7393 88.5905 98.8946 89.1412 98.2879C89.6918 97.6719 90.4572 97.3639 91.4372 97.3639ZM91.4232 104.672L91.8992 104.938C92.1045 105.05 92.2492 105.171 92.3332 105.302C92.4265 105.442 92.4732 105.596 92.4732 105.764C92.4732 106.072 92.3518 106.324 92.1092 106.52C91.8665 106.716 91.5492 106.814 91.1572 106.814C90.7372 106.814 90.3545 106.683 90.0092 106.422L90.1352 105.638L90.2192 105.596C90.4992 105.876 90.7745 106.016 91.0452 106.016C91.2692 106.016 91.3812 105.918 91.3812 105.722C91.3812 105.657 91.3625 105.601 91.3252 105.554C91.2878 105.517 91.2272 105.479 91.1432 105.442L90.4572 105.05L90.7792 103.636H91.6752L91.4232 104.672ZM96.5752 97.3639C97.2938 97.3639 97.8538 97.5273 98.2552 97.8539C98.6658 98.1713 98.8712 98.6193 98.8712 99.1979C98.8712 99.3659 98.8432 99.8979 98.7872 100.794C98.7778 101.055 98.7638 101.326 98.7452 101.606C98.7265 101.877 98.7172 102.11 98.7172 102.306C98.7172 102.465 98.7405 102.577 98.7872 102.642C98.8338 102.698 98.9178 102.726 99.0392 102.726C99.1325 102.726 99.2538 102.707 99.4032 102.67L99.5432 102.782L99.3752 103.762C99.0765 103.958 98.7358 104.075 98.3532 104.112C98.0732 104.084 97.8398 103.986 97.6532 103.818C97.4665 103.641 97.3405 103.398 97.2752 103.09H97.1772C96.7105 103.585 96.2298 103.93 95.7352 104.126C95.0632 104.117 94.5358 103.939 94.1532 103.594C93.7705 103.249 93.5792 102.777 93.5792 102.18C93.5792 101.713 93.6958 101.349 93.9292 101.088C94.1718 100.817 94.5358 100.635 95.0212 100.542L97.1632 100.136V99.5619C97.1632 98.9553 96.8645 98.6519 96.2672 98.6519C95.9778 98.6519 95.6698 98.7173 95.3432 98.8479C95.0258 98.9786 94.6665 99.1839 94.2652 99.4639L94.1252 99.3799L93.9152 98.1479C94.3165 97.8959 94.7458 97.7046 95.2032 97.5739C95.6605 97.4339 96.1178 97.3639 96.5752 97.3639ZM95.6652 101.396C95.5158 101.433 95.4038 101.499 95.3292 101.592C95.2638 101.676 95.2312 101.807 95.2312 101.984C95.2312 102.227 95.2965 102.418 95.4272 102.558C95.5578 102.689 95.7398 102.754 95.9732 102.754C96.3372 102.754 96.7198 102.539 97.1212 102.11L97.1492 101.074L95.6652 101.396ZM98.8712 94.7319V94.8859L97.8912 96.1319L97.7092 96.2019C97.4572 96.1739 97.0698 96.0853 96.5472 95.9359C96.5005 95.9266 96.3465 95.8893 96.0852 95.8239C95.8332 95.7493 95.6558 95.7119 95.5532 95.7119C95.4505 95.7119 95.3478 95.7539 95.2452 95.8379C95.1518 95.9219 95.0492 96.0246 94.9372 96.1459C94.8252 96.2673 94.7412 96.3606 94.6852 96.4259H94.5172L93.9572 95.8799V95.7259L94.9512 94.4799L95.1192 94.4099C95.3432 94.4379 95.7398 94.5313 96.3092 94.6899C96.8318 94.8299 97.1538 94.8999 97.2752 94.8999C97.3872 94.8999 97.4945 94.8533 97.5972 94.7599C97.7092 94.6666 97.8212 94.5593 97.9332 94.4379C98.0452 94.3166 98.1198 94.2326 98.1572 94.1859H98.3252L98.8712 94.7319ZM103.455 97.3639C104.407 97.3639 105.135 97.6439 105.639 98.2039C106.143 98.7639 106.395 99.5713 106.395 100.626C106.395 101.765 106.125 102.637 105.583 103.244C105.042 103.841 104.263 104.14 103.245 104.14C102.293 104.14 101.565 103.86 101.061 103.3C100.557 102.74 100.305 101.933 100.305 100.878C100.305 99.7393 100.576 98.8713 101.117 98.2739C101.659 97.6673 102.438 97.3639 103.455 97.3639ZM103.329 98.6239C102.881 98.6239 102.555 98.7733 102.349 99.0719C102.153 99.3706 102.055 99.8513 102.055 100.514C102.055 101.373 102.158 101.984 102.363 102.348C102.569 102.712 102.905 102.894 103.371 102.894C103.819 102.894 104.141 102.749 104.337 102.46C104.543 102.161 104.645 101.676 104.645 101.004C104.645 100.155 104.538 99.5479 104.323 99.1839C104.118 98.8106 103.787 98.6239 103.329 98.6239ZM115.223 101.13L115.265 102.306C115.265 102.465 115.283 102.577 115.321 102.642C115.367 102.698 115.447 102.726 115.559 102.726C115.661 102.726 115.787 102.707 115.937 102.67L116.063 102.782L115.909 103.762C115.591 103.958 115.246 104.075 114.873 104.112C114.583 104.084 114.341 103.986 114.145 103.818C113.949 103.65 113.813 103.421 113.739 103.132H113.627C113.169 103.552 112.703 103.874 112.227 104.098C111.312 104.098 110.603 103.809 110.099 103.23C109.595 102.642 109.343 101.83 109.343 100.794C109.343 99.6926 109.632 98.8479 110.211 98.2599C110.789 97.6719 111.592 97.3779 112.619 97.3779C112.889 97.3779 113.188 97.4059 113.515 97.4619L113.487 94.3119L115.335 94.1719L115.223 101.13ZM112.493 98.6379C111.559 98.6379 111.093 99.2306 111.093 100.416C111.093 101.153 111.205 101.709 111.429 102.082C111.653 102.455 111.979 102.642 112.409 102.642C112.819 102.642 113.197 102.451 113.543 102.068L113.571 101.298L113.529 98.8899C113.165 98.7219 112.819 98.6379 112.493 98.6379ZM122.2 100.976L118.42 101.004C118.504 102.171 119.096 102.754 120.198 102.754C120.776 102.754 121.42 102.591 122.13 102.264L122.284 102.362L122.004 103.748C121.294 104.009 120.627 104.14 120.002 104.14C118.975 104.14 118.168 103.841 117.58 103.244C117.001 102.647 116.712 101.821 116.712 100.766C116.712 99.7206 116.996 98.8946 117.566 98.2879C118.135 97.6719 118.905 97.3639 119.876 97.3639C120.706 97.3639 121.346 97.5926 121.794 98.0499C122.251 98.4979 122.48 99.1279 122.48 99.9399C122.48 100.155 122.456 100.425 122.41 100.752L122.2 100.976ZM120.856 99.7299C120.856 99.3566 120.772 99.0766 120.604 98.8899C120.436 98.6939 120.188 98.5959 119.862 98.5959C119.498 98.5959 119.194 98.7173 118.952 98.9599C118.709 99.1933 118.546 99.5339 118.462 99.9819L120.828 99.9259L120.856 99.7299ZM23.1001 117.312L23.0301 113.616L24.8641 113.462L24.7801 117.13L24.8641 120H23.0021L23.1001 117.312ZM23.9821 110.298C24.2715 110.298 24.4955 110.382 24.6541 110.55C24.8221 110.718 24.9061 110.951 24.9061 111.25C24.9061 111.567 24.8175 111.819 24.6401 112.006C24.4628 112.193 24.2201 112.286 23.9121 112.286C23.6041 112.286 23.3661 112.202 23.1981 112.034C23.0395 111.866 22.9601 111.628 22.9601 111.32C22.9601 111.012 23.0488 110.765 23.2261 110.578C23.4128 110.391 23.6648 110.298 23.9821 110.298ZM30.6285 115.94C30.6378 115.613 30.5632 115.361 30.4045 115.184C30.2552 114.997 30.0358 114.904 29.7465 114.904C29.3265 114.904 28.8785 115.105 28.4025 115.506V117.13L28.4865 120H26.6245L26.7225 117.312L26.6525 113.616L28.4165 113.462V114.414H28.5145C29.0278 113.947 29.5878 113.611 30.1945 113.406C30.9038 113.406 31.4452 113.569 31.8185 113.896C32.1918 114.213 32.3692 114.675 32.3505 115.282L32.3085 117.144L32.3925 120H30.5165L30.6285 115.94ZM36.2187 113.378C36.8533 113.378 37.4507 113.485 38.0107 113.7L37.7587 115.072L37.5347 115.142C37.264 114.965 36.9933 114.829 36.7227 114.736C36.452 114.643 36.214 114.596 36.0087 114.596C35.7847 114.596 35.6073 114.657 35.4767 114.778C35.346 114.89 35.2807 115.03 35.2807 115.198C35.2807 115.394 35.3647 115.553 35.5327 115.674C35.71 115.795 35.9853 115.931 36.3587 116.08C36.732 116.229 37.04 116.374 37.2827 116.514C37.5253 116.654 37.7307 116.85 37.8987 117.102C38.076 117.345 38.1647 117.648 38.1647 118.012C38.1647 118.385 38.0667 118.735 37.8707 119.062C37.684 119.379 37.3947 119.641 37.0027 119.846C36.6107 120.042 36.13 120.14 35.5607 120.14C34.8887 120.14 34.1933 120 33.4747 119.72L33.6847 118.264L33.8667 118.152C34.156 118.395 34.478 118.591 34.8327 118.74C35.1873 118.88 35.5 118.95 35.7707 118.95C36.0227 118.95 36.2187 118.889 36.3587 118.768C36.4987 118.637 36.5687 118.483 36.5687 118.306C36.5687 118.11 36.48 117.951 36.3027 117.83C36.1347 117.709 35.864 117.573 35.4907 117.424C35.108 117.256 34.7953 117.107 34.5527 116.976C34.31 116.836 34.1 116.64 33.9227 116.388C33.7547 116.136 33.6707 115.823 33.6707 115.45C33.6707 114.843 33.8993 114.349 34.3567 113.966C34.814 113.574 35.4347 113.378 36.2187 113.378ZM45.6237 118.782L45.4557 119.762C45.1104 119.986 44.7557 120.103 44.3917 120.112C44.121 120.065 43.897 119.958 43.7197 119.79C43.5424 119.622 43.407 119.379 43.3137 119.062H43.1877C42.6557 119.585 42.105 119.925 41.5357 120.084C40.8264 120.084 40.285 119.925 39.9117 119.608C39.5477 119.281 39.3704 118.815 39.3797 118.208L39.4077 116.556L39.3377 113.616L41.1437 113.462L41.1017 117.592C41.0924 117.919 41.1577 118.166 41.2977 118.334C41.4377 118.502 41.6477 118.586 41.9277 118.586C42.3384 118.586 42.7444 118.404 43.1457 118.04V113.616L44.9237 113.462L44.7977 118.306C44.7977 118.455 44.821 118.563 44.8677 118.628C44.9237 118.693 45.0077 118.726 45.1197 118.726C45.2224 118.726 45.3484 118.707 45.4977 118.67L45.6237 118.782ZM48.5422 117.13L48.6402 120H46.7782L46.8762 117.298L46.7922 110.312L48.6542 110.172L48.5422 117.13ZM50.5259 117.312L50.4559 113.616L52.2899 113.462L52.2059 117.13L52.2899 120H50.4279L50.5259 117.312ZM51.4079 110.298C51.6972 110.298 51.9212 110.382 52.0799 110.55C52.2479 110.718 52.3319 110.951 52.3319 111.25C52.3319 111.567 52.2432 111.819 52.0659 112.006C51.8886 112.193 51.6459 112.286 51.3379 112.286C51.0299 112.286 50.7919 112.202 50.6239 112.034C50.4652 111.866 50.3859 111.628 50.3859 111.32C50.3859 111.012 50.4746 110.765 50.6519 110.578C50.8386 110.391 51.0906 110.298 51.4079 110.298ZM58.0543 115.94C58.0636 115.613 57.989 115.361 57.8303 115.184C57.681 114.997 57.4616 114.904 57.1723 114.904C56.7523 114.904 56.3043 115.105 55.8283 115.506V117.13L55.9123 120H54.0503L54.1483 117.312L54.0783 113.616L55.8423 113.462V114.414H55.9403C56.4536 113.947 57.0136 113.611 57.6203 113.406C58.3296 113.406 58.871 113.569 59.2443 113.896C59.6176 114.213 59.795 114.675 59.7763 115.282L59.7343 117.144L59.8183 120H57.9423L58.0543 115.94ZM64.0224 113.364C64.7411 113.364 65.3011 113.527 65.7024 113.854C66.1131 114.171 66.3184 114.619 66.3184 115.198C66.3184 115.366 66.2904 115.898 66.2344 116.794C66.2251 117.055 66.2111 117.326 66.1924 117.606C66.1738 117.877 66.1644 118.11 66.1644 118.306C66.1644 118.465 66.1878 118.577 66.2344 118.642C66.2811 118.698 66.3651 118.726 66.4864 118.726C66.5798 118.726 66.7011 118.707 66.8504 118.67L66.9904 118.782L66.8224 119.762C66.5238 119.958 66.1831 120.075 65.8004 120.112C65.5204 120.084 65.2871 119.986 65.1004 119.818C64.9138 119.641 64.7878 119.398 64.7224 119.09H64.6244C64.1578 119.585 63.6771 119.93 63.1824 120.126C62.5104 120.117 61.9831 119.939 61.6004 119.594C61.2178 119.249 61.0264 118.777 61.0264 118.18C61.0264 117.713 61.1431 117.349 61.3764 117.088C61.6191 116.817 61.9831 116.635 62.4684 116.542L64.6104 116.136V115.562C64.6104 114.955 64.3118 114.652 63.7144 114.652C63.4251 114.652 63.1171 114.717 62.7904 114.848C62.4731 114.979 62.1138 115.184 61.7124 115.464L61.5724 115.38L61.3624 114.148C61.7638 113.896 62.1931 113.705 62.6504 113.574C63.1078 113.434 63.5651 113.364 64.0224 113.364ZM63.1124 117.396C62.9631 117.433 62.8511 117.499 62.7764 117.592C62.7111 117.676 62.6784 117.807 62.6784 117.984C62.6784 118.227 62.7438 118.418 62.8744 118.558C63.0051 118.689 63.1871 118.754 63.4204 118.754C63.7844 118.754 64.1671 118.539 64.5684 118.11L64.5964 117.074L63.1124 117.396ZM73.7638 113.406C74.5758 113.406 75.2012 113.681 75.6398 114.232C76.0785 114.783 76.2978 115.562 76.2978 116.57C76.2978 117.709 76.0132 118.591 75.4438 119.216C74.8838 119.832 74.0905 120.14 73.0638 120.14C72.7652 120.14 72.4525 120.112 72.1258 120.056L72.1678 122.59H70.3198L70.4178 117.312L70.3338 113.616L72.1118 113.462L72.0978 114.414H72.1958C72.4572 114.162 72.7092 113.961 72.9518 113.812C73.1945 113.653 73.4652 113.518 73.7638 113.406ZM73.0778 118.922C73.5632 118.922 73.9318 118.749 74.1838 118.404C74.4358 118.059 74.5618 117.55 74.5618 116.878C74.5618 116.225 74.4545 115.735 74.2398 115.408C74.0345 115.072 73.7265 114.904 73.3158 114.904C72.9145 114.904 72.5085 115.105 72.0978 115.506L72.0838 117.13L72.1118 118.712C72.4478 118.852 72.7698 118.922 73.0778 118.922ZM80.2679 113.364C81.2199 113.364 81.9479 113.644 82.4519 114.204C82.9559 114.764 83.2079 115.571 83.2079 116.626C83.2079 117.765 82.9372 118.637 82.3959 119.244C81.8546 119.841 81.0752 120.14 80.0579 120.14C79.1059 120.14 78.3779 119.86 77.8739 119.3C77.3699 118.74 77.1179 117.933 77.1179 116.878C77.1179 115.739 77.3886 114.871 77.9299 114.274C78.4712 113.667 79.2506 113.364 80.2679 113.364ZM80.1419 114.624C79.6939 114.624 79.3672 114.773 79.1619 115.072C78.9659 115.371 78.8679 115.851 78.8679 116.514C78.8679 117.373 78.9706 117.984 79.1759 118.348C79.3812 118.712 79.7172 118.894 80.1839 118.894C80.6319 118.894 80.9539 118.749 81.1499 118.46C81.3552 118.161 81.4579 117.676 81.4579 117.004C81.4579 116.155 81.3506 115.548 81.1359 115.184C80.9306 114.811 80.5992 114.624 80.1419 114.624ZM89.9159 117.13L89.9579 118.306C89.9579 118.465 89.9765 118.577 90.0139 118.642C90.0605 118.698 90.1399 118.726 90.2519 118.726C90.3545 118.726 90.4805 118.707 90.6299 118.67L90.7559 118.782L90.6019 119.762C90.2845 119.958 89.9392 120.075 89.5659 120.112C89.2765 120.084 89.0339 119.986 88.8379 119.818C88.6419 119.65 88.5065 119.421 88.4319 119.132H88.3199C87.8625 119.552 87.3959 119.874 86.9199 120.098C86.0052 120.098 85.2959 119.809 84.7919 119.23C84.2879 118.642 84.0359 117.83 84.0359 116.794C84.0359 115.693 84.3252 114.848 84.9039 114.26C85.4825 113.672 86.2852 113.378 87.3119 113.378C87.5825 113.378 87.8812 113.406 88.2079 113.462L88.1799 110.312L90.0279 110.172L89.9159 117.13ZM87.1859 114.638C86.2525 114.638 85.7859 115.231 85.7859 116.416C85.7859 117.153 85.8979 117.709 86.1219 118.082C86.3459 118.455 86.6725 118.642 87.1019 118.642C87.5125 118.642 87.8905 118.451 88.2359 118.068L88.2639 117.298L88.2219 114.89C87.8579 114.722 87.5125 114.638 87.1859 114.638ZM96.893 116.976L93.113 117.004C93.197 118.171 93.7897 118.754 94.891 118.754C95.4697 118.754 96.1137 118.591 96.823 118.264L96.977 118.362L96.697 119.748C95.9877 120.009 95.3204 120.14 94.695 120.14C93.6684 120.14 92.861 119.841 92.273 119.244C91.6944 118.647 91.405 117.821 91.405 116.766C91.405 115.721 91.6897 114.895 92.259 114.288C92.8284 113.672 93.5984 113.364 94.569 113.364C95.3997 113.364 96.039 113.593 96.487 114.05C96.9444 114.498 97.173 115.128 97.173 115.94C97.173 116.155 97.1497 116.425 97.103 116.752L96.893 116.976ZM95.549 115.73C95.549 115.357 95.465 115.077 95.297 114.89C95.129 114.694 94.8817 114.596 94.555 114.596C94.191 114.596 93.8877 114.717 93.645 114.96C93.4024 115.193 93.239 115.534 93.155 115.982L95.521 115.926L95.549 115.73ZM102.76 113.378C103.394 113.378 103.992 113.485 104.552 113.7L104.3 115.072L104.076 115.142C103.805 114.965 103.534 114.829 103.264 114.736C102.993 114.643 102.755 114.596 102.55 114.596C102.326 114.596 102.148 114.657 102.018 114.778C101.887 114.89 101.822 115.03 101.822 115.198C101.822 115.394 101.906 115.553 102.074 115.674C102.251 115.795 102.526 115.931 102.9 116.08C103.273 116.229 103.581 116.374 103.824 116.514C104.066 116.654 104.272 116.85 104.44 117.102C104.617 117.345 104.706 117.648 104.706 118.012C104.706 118.385 104.608 118.735 104.412 119.062C104.225 119.379 103.936 119.641 103.544 119.846C103.152 120.042 102.671 120.14 102.102 120.14C101.43 120.14 100.734 120 100.016 119.72L100.226 118.264L100.408 118.152C100.697 118.395 101.019 118.591 101.374 118.74C101.728 118.88 102.041 118.95 102.312 118.95C102.564 118.95 102.76 118.889 102.9 118.768C103.04 118.637 103.11 118.483 103.11 118.306C103.11 118.11 103.021 117.951 102.844 117.83C102.676 117.709 102.405 117.573 102.032 117.424C101.649 117.256 101.336 117.107 101.094 116.976C100.851 116.836 100.641 116.64 100.464 116.388C100.296 116.136 100.212 115.823 100.212 115.45C100.212 114.843 100.44 114.349 100.898 113.966C101.355 113.574 101.976 113.378 102.76 113.378ZM110.989 116.976L107.209 117.004C107.293 118.171 107.885 118.754 108.987 118.754C109.565 118.754 110.209 118.591 110.919 118.264L111.073 118.362L110.793 119.748C110.083 120.009 109.416 120.14 108.791 120.14C107.764 120.14 106.957 119.841 106.369 119.244C105.79 118.647 105.501 117.821 105.501 116.766C105.501 115.721 105.785 114.895 106.355 114.288C106.924 113.672 107.694 113.364 108.665 113.364C109.495 113.364 110.135 113.593 110.583 114.05C111.04 114.498 111.269 115.128 111.269 115.94C111.269 116.155 111.245 116.425 111.199 116.752L110.989 116.976ZM109.645 115.73C109.645 115.357 109.561 115.077 109.393 114.89C109.225 114.694 108.977 114.596 108.651 114.596C108.287 114.596 107.983 114.717 107.741 114.96C107.498 115.193 107.335 115.534 107.251 115.982L109.617 115.926L109.645 115.73ZM116.15 113.476C116.234 113.476 116.351 113.485 116.5 113.504V115.226L116.304 115.296C116.146 115.231 115.973 115.198 115.786 115.198C115.245 115.198 114.755 115.548 114.316 116.248V117.13L114.414 120H112.552L112.664 117.312L112.58 113.616L114.344 113.462L114.33 114.736H114.442C114.9 113.896 115.469 113.476 116.15 113.476ZM122.927 110.144C123.309 110.144 123.715 110.186 124.145 110.27L124.019 111.656L123.893 111.74C123.454 111.553 123.071 111.46 122.745 111.46C122.166 111.46 121.872 111.791 121.863 112.454L121.849 113.546H123.431L123.487 113.644L123.403 114.666H121.821L121.779 117.13L121.877 120H120.015L120.127 117.298L120.099 114.666H119.119L119.049 114.568L119.147 113.546H120.085L120.071 112.776C120.071 111.936 120.318 111.287 120.813 110.83C121.317 110.373 122.021 110.144 122.927 110.144ZM129.049 116.976L125.269 117.004C125.353 118.171 125.946 118.754 127.047 118.754C127.626 118.754 128.27 118.591 128.979 118.264L129.133 118.362L128.853 119.748C128.144 120.009 127.477 120.14 126.851 120.14C125.825 120.14 125.017 119.841 124.429 119.244C123.851 118.647 123.561 117.821 123.561 116.766C123.561 115.721 123.846 114.895 124.415 114.288C124.985 113.672 125.755 113.364 126.725 113.364C127.556 113.364 128.195 113.593 128.643 114.05C129.101 114.498 129.329 115.128 129.329 115.94C129.329 116.155 129.306 116.425 129.259 116.752L129.049 116.976ZM127.705 115.73C127.705 115.357 127.621 115.077 127.453 114.89C127.285 114.694 127.038 114.596 126.711 114.596C126.347 114.596 126.044 114.717 125.801 114.96C125.559 115.193 125.395 115.534 125.311 115.982L127.677 115.926L127.705 115.73ZM130.739 117.312L130.669 113.616L132.503 113.462L132.419 117.13L132.503 120H130.641L130.739 117.312ZM131.621 110.298C131.91 110.298 132.134 110.382 132.293 110.55C132.461 110.718 132.545 110.951 132.545 111.25C132.545 111.567 132.456 111.819 132.279 112.006C132.101 112.193 131.859 112.286 131.551 112.286C131.243 112.286 131.005 112.202 130.837 112.034C130.678 111.866 130.599 111.628 130.599 111.32C130.599 111.012 130.687 110.765 130.865 110.578C131.051 110.391 131.303 110.298 131.621 110.298ZM136.895 118.628C137.194 118.628 137.507 118.549 137.833 118.39L137.987 118.53L137.805 119.636C137.329 119.879 136.844 120.028 136.349 120.084C135.089 119.953 134.459 119.337 134.459 118.236L134.529 117.074L134.515 114.666H133.647L133.577 114.568L133.675 113.546H134.501V112.468L136.195 111.922L136.321 112.034L136.279 113.546H137.945L138.001 113.644L137.917 114.666H136.251L136.167 117.802C136.167 118.101 136.223 118.315 136.335 118.446C136.447 118.567 136.634 118.628 136.895 118.628ZM141.556 113.364C142.274 113.364 142.834 113.527 143.236 113.854C143.646 114.171 143.852 114.619 143.852 115.198C143.852 115.366 143.824 115.898 143.768 116.794C143.758 117.055 143.744 117.326 143.726 117.606C143.707 117.877 143.698 118.11 143.698 118.306C143.698 118.465 143.721 118.577 143.768 118.642C143.814 118.698 143.898 118.726 144.02 118.726C144.113 118.726 144.234 118.707 144.384 118.67L144.524 118.782L144.356 119.762C144.057 119.958 143.716 120.075 143.334 120.112C143.054 120.084 142.82 119.986 142.634 119.818C142.447 119.641 142.321 119.398 142.256 119.09H142.158C141.691 119.585 141.21 119.93 140.716 120.126C140.044 120.117 139.516 119.939 139.134 119.594C138.751 119.249 138.56 118.777 138.56 118.18C138.56 117.713 138.676 117.349 138.91 117.088C139.152 116.817 139.516 116.635 140.002 116.542L142.144 116.136V115.562C142.144 114.955 141.845 114.652 141.248 114.652C140.958 114.652 140.65 114.717 140.324 114.848C140.006 114.979 139.647 115.184 139.246 115.464L139.106 115.38L138.896 114.148C139.297 113.896 139.726 113.705 140.184 113.574C140.641 113.434 141.098 113.364 141.556 113.364ZM140.646 117.396C140.496 117.433 140.384 117.499 140.31 117.592C140.244 117.676 140.212 117.807 140.212 117.984C140.212 118.227 140.277 118.418 140.408 118.558C140.538 118.689 140.72 118.754 140.954 118.754C141.318 118.754 141.7 118.539 142.102 118.11L142.13 117.074L140.646 117.396ZM26.9923 129.406C27.8043 129.406 28.4297 129.681 28.8683 130.232C29.307 130.783 29.5263 131.562 29.5263 132.57C29.5263 133.709 29.2417 134.591 28.6723 135.216C28.1123 135.832 27.319 136.14 26.2923 136.14C25.9937 136.14 25.681 136.112 25.3543 136.056L25.3963 138.59H23.5483L23.6463 133.312L23.5623 129.616L25.3403 129.462L25.3263 130.414H25.4243C25.6857 130.162 25.9377 129.961 26.1803 129.812C26.423 129.653 26.6937 129.518 26.9923 129.406ZM26.3063 134.922C26.7917 134.922 27.1603 134.749 27.4123 134.404C27.6643 134.059 27.7903 133.55 27.7903 132.878C27.7903 132.225 27.683 131.735 27.4683 131.408C27.263 131.072 26.955 130.904 26.5443 130.904C26.143 130.904 25.737 131.105 25.3263 131.506L25.3123 133.13L25.3403 134.712C25.6763 134.852 25.9983 134.922 26.3063 134.922ZM33.4964 129.364C34.4484 129.364 35.1764 129.644 35.6804 130.204C36.1844 130.764 36.4364 131.571 36.4364 132.626C36.4364 133.765 36.1658 134.637 35.6244 135.244C35.0831 135.841 34.3038 136.14 33.2864 136.14C32.3344 136.14 31.6064 135.86 31.1024 135.3C30.5984 134.74 30.3464 133.933 30.3464 132.878C30.3464 131.739 30.6171 130.871 31.1584 130.274C31.6998 129.667 32.4791 129.364 33.4964 129.364ZM33.3704 130.624C32.9224 130.624 32.5958 130.773 32.3904 131.072C32.1944 131.371 32.0964 131.851 32.0964 132.514C32.0964 133.373 32.1991 133.984 32.4044 134.348C32.6098 134.712 32.9458 134.894 33.4124 134.894C33.8604 134.894 34.1824 134.749 34.3784 134.46C34.5838 134.161 34.6864 133.676 34.6864 133.004C34.6864 132.155 34.5791 131.548 34.3644 131.184C34.1591 130.811 33.8278 130.624 33.3704 130.624ZM41.2284 129.476C41.3124 129.476 41.429 129.485 41.5784 129.504V131.226L41.3824 131.296C41.2237 131.231 41.051 131.198 40.8644 131.198C40.323 131.198 39.833 131.548 39.3944 132.248V133.13L39.4924 136H37.6304L37.7424 133.312L37.6584 129.616L39.4224 129.462L39.4084 130.736H39.5204C39.9777 129.896 40.547 129.476 41.2284 129.476ZM46.8007 129.378C47.4354 129.378 48.0327 129.485 48.5927 129.7L48.3407 131.072L48.1167 131.142C47.846 130.965 47.5754 130.829 47.3047 130.736C47.034 130.643 46.796 130.596 46.5907 130.596C46.3667 130.596 46.1894 130.657 46.0587 130.778C45.928 130.89 45.8627 131.03 45.8627 131.198C45.8627 131.394 45.9467 131.553 46.1147 131.674C46.292 131.795 46.5674 131.931 46.9407 132.08C47.314 132.229 47.622 132.374 47.8647 132.514C48.1074 132.654 48.3127 132.85 48.4807 133.102C48.658 133.345 48.7467 133.648 48.7467 134.012C48.7467 134.385 48.6487 134.735 48.4527 135.062C48.266 135.379 47.9767 135.641 47.5847 135.846C47.1927 136.042 46.712 136.14 46.1427 136.14C45.4707 136.14 44.7754 136 44.0567 135.72L44.2667 134.264L44.4487 134.152C44.738 134.395 45.06 134.591 45.4147 134.74C45.7694 134.88 46.082 134.95 46.3527 134.95C46.6047 134.95 46.8007 134.889 46.9407 134.768C47.0807 134.637 47.1507 134.483 47.1507 134.306C47.1507 134.11 47.062 133.951 46.8847 133.83C46.7167 133.709 46.446 133.573 46.0727 133.424C45.69 133.256 45.3774 133.107 45.1347 132.976C44.892 132.836 44.682 132.64 44.5047 132.388C44.3367 132.136 44.2527 131.823 44.2527 131.45C44.2527 130.843 44.4814 130.349 44.9387 129.966C45.396 129.574 46.0167 129.378 46.8007 129.378ZM55.0297 132.976L51.2497 133.004C51.3337 134.171 51.9264 134.754 53.0277 134.754C53.6064 134.754 54.2504 134.591 54.9597 134.264L55.1137 134.362L54.8337 135.748C54.1244 136.009 53.4571 136.14 52.8317 136.14C51.8051 136.14 50.9977 135.841 50.4097 135.244C49.8311 134.647 49.5417 133.821 49.5417 132.766C49.5417 131.721 49.8264 130.895 50.3957 130.288C50.9651 129.672 51.7351 129.364 52.7057 129.364C53.5364 129.364 54.1757 129.593 54.6237 130.05C55.0811 130.498 55.3097 131.128 55.3097 131.94C55.3097 132.155 55.2864 132.425 55.2397 132.752L55.0297 132.976ZM53.6857 131.73C53.6857 131.357 53.6017 131.077 53.4337 130.89C53.2657 130.694 53.0184 130.596 52.6917 130.596C52.3277 130.596 52.0244 130.717 51.7817 130.96C51.5391 131.193 51.3757 131.534 51.2917 131.982L53.6577 131.926L53.6857 131.73ZM60.1913 129.476C60.2753 129.476 60.3919 129.485 60.5413 129.504V131.226L60.3453 131.296C60.1866 131.231 60.0139 131.198 59.8273 131.198C59.2859 131.198 58.7959 131.548 58.3573 132.248V133.13L58.4553 136H56.5933L56.7053 133.312L56.6213 129.616L58.3853 129.462L58.3713 130.736H58.4833C58.9406 129.896 59.5099 129.476 60.1913 129.476ZM61.5864 133.312L61.5164 129.616L63.3504 129.462L63.2664 133.13L63.3504 136H61.4884L61.5864 133.312ZM62.4684 126.298C62.7578 126.298 62.9818 126.382 63.1404 126.55C63.3084 126.718 63.3924 126.951 63.3924 127.25C63.3924 127.567 63.3038 127.819 63.1264 128.006C62.9491 128.193 62.7064 128.286 62.3984 128.286C62.0904 128.286 61.8524 128.202 61.6844 128.034C61.5258 127.866 61.4464 127.628 61.4464 127.32C61.4464 127.012 61.5351 126.765 61.7124 126.578C61.8991 126.391 62.1511 126.298 62.4684 126.298ZM69.1148 131.94C69.1242 131.613 69.0495 131.361 68.8908 131.184C68.7415 130.997 68.5222 130.904 68.2328 130.904C67.8128 130.904 67.3648 131.105 66.8888 131.506V133.13L66.9728 136H65.1108L65.2088 133.312L65.1388 129.616L66.9028 129.462V130.414H67.0008C67.5142 129.947 68.0742 129.611 68.6808 129.406C69.3902 129.406 69.9315 129.569 70.3048 129.896C70.6782 130.213 70.8555 130.675 70.8368 131.282L70.7948 133.144L70.8788 136H69.0028L69.1148 131.94ZM78.779 130.372C78.527 130.437 78.1677 130.507 77.701 130.582L77.673 130.638C77.813 130.918 77.883 131.231 77.883 131.576C77.883 132.276 77.6263 132.836 77.113 133.256C76.609 133.667 75.923 133.872 75.055 133.872C74.7937 133.872 74.523 133.849 74.243 133.802C74.159 133.886 74.103 133.951 74.075 133.998C74.047 134.045 74.033 134.101 74.033 134.166C74.033 134.334 74.145 134.451 74.369 134.516C74.593 134.581 74.9477 134.647 75.433 134.712C75.9837 134.777 76.441 134.857 76.805 134.95C77.1783 135.043 77.4957 135.207 77.757 135.44C78.0277 135.673 78.163 136.005 78.163 136.434C78.163 136.873 78.023 137.265 77.743 137.61C77.4723 137.965 77.0943 138.24 76.609 138.436C76.1237 138.632 75.573 138.73 74.957 138.73C74.1077 138.73 73.4543 138.557 72.997 138.212C72.5397 137.867 72.311 137.409 72.311 136.84C72.6003 136.439 72.9877 136.089 73.473 135.79V135.72C73.1557 135.608 72.9083 135.454 72.731 135.258C72.5537 135.053 72.465 134.782 72.465 134.446C72.717 134.138 73.0343 133.853 73.417 133.592V133.522C73.081 133.335 72.8243 133.093 72.647 132.794C72.479 132.486 72.395 132.127 72.395 131.716C72.395 130.988 72.647 130.419 73.151 130.008C73.655 129.597 74.341 129.392 75.209 129.392C75.713 129.392 76.1703 129.476 76.581 129.644C77.253 129.523 77.939 129.336 78.639 129.084L78.779 129.21V130.372ZM75.111 132.752C75.4937 132.752 75.783 132.654 75.979 132.458C76.175 132.262 76.273 131.977 76.273 131.604C76.273 130.895 75.909 130.54 75.181 130.54C74.397 130.54 74.005 130.899 74.005 131.618C74.005 131.991 74.0983 132.276 74.285 132.472C74.4717 132.659 74.747 132.752 75.111 132.752ZM76.595 136.77C76.595 136.518 76.4597 136.345 76.189 136.252C75.9277 136.159 75.5217 136.079 74.971 136.014L74.495 135.944C74.271 136.093 74.103 136.238 73.991 136.378C73.879 136.518 73.823 136.667 73.823 136.826C73.823 137.069 73.935 137.265 74.159 137.414C74.383 137.563 74.7097 137.638 75.139 137.638C75.5777 137.638 75.9277 137.559 76.189 137.4C76.4597 137.251 76.595 137.041 76.595 136.77ZM81.9189 129.364C82.6376 129.364 83.1976 129.527 83.5989 129.854C84.0096 130.171 84.2149 130.619 84.2149 131.198C84.2149 131.366 84.1869 131.898 84.1309 132.794C84.1216 133.055 84.1076 133.326 84.0889 133.606C84.0703 133.877 84.0609 134.11 84.0609 134.306C84.0609 134.465 84.0843 134.577 84.1309 134.642C84.1776 134.698 84.2616 134.726 84.3829 134.726C84.4763 134.726 84.5976 134.707 84.7469 134.67L84.8869 134.782L84.7189 135.762C84.4203 135.958 84.0796 136.075 83.6969 136.112C83.4169 136.084 83.1836 135.986 82.9969 135.818C82.8103 135.641 82.6843 135.398 82.6189 135.09H82.5209C82.0543 135.585 81.5736 135.93 81.0789 136.126C80.4069 136.117 79.8796 135.939 79.4969 135.594C79.1143 135.249 78.9229 134.777 78.9229 134.18C78.9229 133.713 79.0396 133.349 79.2729 133.088C79.5156 132.817 79.8796 132.635 80.3649 132.542L82.5069 132.136V131.562C82.5069 130.955 82.2083 130.652 81.6109 130.652C81.3216 130.652 81.0136 130.717 80.6869 130.848C80.3696 130.979 80.0103 131.184 79.6089 131.464L79.4689 131.38L79.2589 130.148C79.6603 129.896 80.0896 129.705 80.5469 129.574C81.0043 129.434 81.4616 129.364 81.9189 129.364ZM81.0089 133.396C80.8596 133.433 80.7476 133.499 80.6729 133.592C80.6076 133.676 80.5749 133.807 80.5749 133.984C80.5749 134.227 80.6403 134.418 80.7709 134.558C80.9016 134.689 81.0836 134.754 81.3169 134.754C81.6809 134.754 82.0636 134.539 82.4649 134.11L82.4929 133.074L81.0089 133.396ZM90.9183 129.364C91.8703 129.364 92.5983 129.644 93.1023 130.204C93.6063 130.764 93.8583 131.571 93.8583 132.626C93.8583 133.765 93.5876 134.637 93.0463 135.244C92.505 135.841 91.7256 136.14 90.7083 136.14C89.7563 136.14 89.0283 135.86 88.5243 135.3C88.0203 134.74 87.7683 133.933 87.7683 132.878C87.7683 131.739 88.039 130.871 88.5803 130.274C89.1216 129.667 89.901 129.364 90.9183 129.364ZM90.7923 130.624C90.3443 130.624 90.0176 130.773 89.8123 131.072C89.6163 131.371 89.5183 131.851 89.5183 132.514C89.5183 133.373 89.621 133.984 89.8263 134.348C90.0316 134.712 90.3676 134.894 90.8343 134.894C91.2823 134.894 91.6043 134.749 91.8003 134.46C92.0056 134.161 92.1083 133.676 92.1083 133.004C92.1083 132.155 92.001 131.548 91.7863 131.184C91.581 130.811 91.2496 130.624 90.7923 130.624ZM101.35 134.782L101.182 135.762C100.837 135.986 100.482 136.103 100.118 136.112C99.8476 136.065 99.6236 135.958 99.4463 135.79C99.2689 135.622 99.1336 135.379 99.0403 135.062H98.9143C98.3823 135.585 97.8316 135.925 97.2623 136.084C96.5529 136.084 96.0116 135.925 95.6383 135.608C95.2743 135.281 95.0969 134.815 95.1063 134.208L95.1343 132.556L95.0643 129.616L96.8703 129.462L96.8283 133.592C96.8189 133.919 96.8843 134.166 97.0243 134.334C97.1643 134.502 97.3743 134.586 97.6543 134.586C98.0649 134.586 98.4709 134.404 98.8723 134.04V129.616L100.65 129.462L100.524 134.306C100.524 134.455 100.548 134.563 100.594 134.628C100.65 134.693 100.734 134.726 100.846 134.726C100.949 134.726 101.075 134.707 101.224 134.67L101.35 134.782ZM107.242 129.364C107.55 129.364 107.853 129.397 108.152 129.462C108.46 129.518 108.731 129.602 108.964 129.714L108.656 131.198L108.502 131.268C108.026 131.007 107.601 130.876 107.228 130.876C106.799 130.876 106.467 131.03 106.234 131.338C106.001 131.646 105.884 132.085 105.884 132.654C105.884 133.307 106.01 133.807 106.262 134.152C106.514 134.497 106.873 134.67 107.34 134.67C107.76 134.67 108.227 134.553 108.74 134.32L108.88 134.432L108.698 135.874C108.138 136.051 107.564 136.14 106.976 136.14C106.08 136.14 105.38 135.851 104.876 135.272C104.372 134.684 104.12 133.867 104.12 132.822C104.12 131.739 104.395 130.895 104.946 130.288C105.497 129.672 106.262 129.364 107.242 129.364ZM112.38 129.364C113.099 129.364 113.659 129.527 114.06 129.854C114.471 130.171 114.676 130.619 114.676 131.198C114.676 131.366 114.648 131.898 114.592 132.794C114.583 133.055 114.569 133.326 114.55 133.606C114.531 133.877 114.522 134.11 114.522 134.306C114.522 134.465 114.545 134.577 114.592 134.642C114.639 134.698 114.723 134.726 114.844 134.726C114.937 134.726 115.059 134.707 115.208 134.67L115.348 134.782L115.18 135.762C114.881 135.958 114.541 136.075 114.158 136.112C113.878 136.084 113.645 135.986 113.458 135.818C113.271 135.641 113.145 135.398 113.08 135.09H112.982C112.515 135.585 112.035 135.93 111.54 136.126C110.868 136.117 110.341 135.939 109.958 135.594C109.575 135.249 109.384 134.777 109.384 134.18C109.384 133.713 109.501 133.349 109.734 133.088C109.977 132.817 110.341 132.635 110.826 132.542L112.968 132.136V131.562C112.968 130.955 112.669 130.652 112.072 130.652C111.783 130.652 111.475 130.717 111.148 130.848C110.831 130.979 110.471 131.184 110.07 131.464L109.93 131.38L109.72 130.148C110.121 129.896 110.551 129.705 111.008 129.574C111.465 129.434 111.923 129.364 112.38 129.364ZM111.47 133.396C111.321 133.433 111.209 133.499 111.134 133.592C111.069 133.676 111.036 133.807 111.036 133.984C111.036 134.227 111.101 134.418 111.232 134.558C111.363 134.689 111.545 134.754 111.778 134.754C112.142 134.754 112.525 134.539 112.926 134.11L112.954 133.074L111.47 133.396ZM120.48 131.94C120.489 131.613 120.415 131.361 120.256 131.184C120.107 130.997 119.887 130.904 119.598 130.904C119.178 130.904 118.73 131.105 118.254 131.506V133.13L118.338 136H116.476L116.574 133.312L116.504 129.616L118.268 129.462V130.414H118.366C118.879 129.947 119.439 129.611 120.046 129.406C120.755 129.406 121.297 129.569 121.67 129.896C122.043 130.213 122.221 130.675 122.202 131.282L122.16 133.144L122.244 136H120.368L120.48 131.94ZM128.926 132.976L125.146 133.004C125.23 134.171 125.823 134.754 126.924 134.754C127.503 134.754 128.147 134.591 128.856 134.264L129.01 134.362L128.73 135.748C128.021 136.009 127.354 136.14 126.728 136.14C125.702 136.14 124.894 135.841 124.306 135.244C123.728 134.647 123.438 133.821 123.438 132.766C123.438 131.721 123.723 130.895 124.292 130.288C124.862 129.672 125.632 129.364 126.602 129.364C127.433 129.364 128.072 129.593 128.52 130.05C128.978 130.498 129.206 131.128 129.206 131.94C129.206 132.155 129.183 132.425 129.136 132.752L128.926 132.976ZM127.582 131.73C127.582 131.357 127.498 131.077 127.33 130.89C127.162 130.694 126.915 130.596 126.588 130.596C126.224 130.596 125.921 130.717 125.678 130.96C125.436 131.193 125.272 131.534 125.188 131.982L127.554 131.926L127.582 131.73ZM133.122 134.628C133.42 134.628 133.733 134.549 134.06 134.39L134.214 134.53L134.032 135.636C133.556 135.879 133.07 136.028 132.576 136.084C131.316 135.953 130.686 135.337 130.686 134.236L130.756 133.074L130.742 130.666H129.874L129.804 130.568L129.902 129.546H130.728V128.468L132.422 127.922L132.548 128.034L132.506 129.546H134.172L134.228 129.644L134.144 130.666H132.478L132.394 133.802C132.394 134.101 132.45 134.315 132.562 134.446C132.674 134.567 132.86 134.628 133.122 134.628ZM137.782 129.364C138.501 129.364 139.061 129.527 139.462 129.854C139.873 130.171 140.078 130.619 140.078 131.198C140.078 131.366 140.05 131.898 139.994 132.794C139.985 133.055 139.971 133.326 139.952 133.606C139.934 133.877 139.924 134.11 139.924 134.306C139.924 134.465 139.948 134.577 139.994 134.642C140.041 134.698 140.125 134.726 140.246 134.726C140.34 134.726 140.461 134.707 140.61 134.67L140.75 134.782L140.582 135.762C140.284 135.958 139.943 136.075 139.56 136.112C139.28 136.084 139.047 135.986 138.86 135.818C138.674 135.641 138.548 135.398 138.482 135.09H138.384C137.918 135.585 137.437 135.93 136.942 136.126C136.27 136.117 135.743 135.939 135.36 135.594C134.978 135.249 134.786 134.777 134.786 134.18C134.786 133.713 134.903 133.349 135.136 133.088C135.379 132.817 135.743 132.635 136.228 132.542L138.37 132.136V131.562C138.37 130.955 138.072 130.652 137.474 130.652C137.185 130.652 136.877 130.717 136.55 130.848C136.233 130.979 135.874 131.184 135.472 131.464L135.332 131.38L135.122 130.148C135.524 129.896 135.953 129.705 136.41 129.574C136.868 129.434 137.325 129.364 137.782 129.364ZM136.872 133.396C136.723 133.433 136.611 133.499 136.536 133.592C136.471 133.676 136.438 133.807 136.438 133.984C136.438 134.227 136.504 134.418 136.634 134.558C136.765 134.689 136.947 134.754 137.18 134.754C137.544 134.754 137.927 134.539 138.328 134.11L138.356 133.074L136.872 133.396ZM142.744 134.11C143.034 134.11 143.258 134.194 143.416 134.362C143.584 134.53 143.668 134.763 143.668 135.062C143.668 135.379 143.58 135.631 143.402 135.818C143.225 136.005 142.982 136.098 142.674 136.098C142.366 136.098 142.128 136.014 141.96 135.846C141.802 135.678 141.722 135.44 141.722 135.132C141.722 134.824 141.811 134.577 141.988 134.39C142.175 134.203 142.427 134.11 142.744 134.11Z" fill="white"/>
<defs>
<filter id="filter0_b_206:37125" x="3" y="66.9999" width="161" height="97" filterUnits="userSpaceOnUse" color-interpolation-filters="sRGB">
<feFlood flood-opacity="0" result="BackgroundImageFix"/>
<feGaussianBlur in="BackgroundImage" stdDeviation="5"/>
<feComposite in2="SourceAlpha" operator="in" result="effect1_backgroundBlur_206:37125"/>
<feBlend mode="normal" in="SourceGraphic" in2="effect1_backgroundBlur_206:37125" result="shape"/>
</filter>
<linearGradient id="paint0_linear_206:37125" x1="106.429" y1="48.694" x2="98.0524" y2="43.4949" gradientUnits="userSpaceOnUse">
<stop stop-color="#4273D3"/>
<stop offset="0.484375" stop-color="#4273D3"/>
<stop offset="0.510417" stop-color="#4C88FB"/>
<stop offset="1" stop-color="#4D89FE"/>
</linearGradient>
</defs>
</svg>
