<svg width="167" height="167" viewBox="0 0 167 167" fill="none" xmlns="http://www.w3.org/2000/svg">
<mask id="mask0_206:37173" style="mask-type:alpha" maskUnits="userSpaceOnUse" x="0" y="0" width="167" height="167">
<rect x="1" y="1" width="165" height="165" rx="8" fill="#5988D6" stroke="#EDE6FC" stroke-opacity="0.3"/>
</mask>
<g mask="url(#mask0_206:37173)">
<rect x="1" y="1" width="165" height="165" rx="8" fill="#7A83D9" stroke="#EDE6FC" stroke-opacity="0.3"/>
<path d="M64.2474 52.7171L53.0667 70.2078C53.0667 70.2078 51.5931 71.0562 51.7889 70.7471C51.9847 70.4379 63.8112 51.9477 63.8112 51.9477L64.2474 52.7171Z" fill="#E5ECF3"/>
<path d="M64.0372 60.5197L64.0371 60.52L55.7489 69.4925L50.6214 66.7981L55.4369 55.3505C57.2268 53.9154 58.691 51.2852 59.7015 49.0601C60.2194 47.9197 60.6268 46.8657 60.9048 46.097C61.0438 45.7124 61.1507 45.3986 61.2229 45.1805C61.259 45.0714 61.2865 44.9862 61.3051 44.928L61.3158 44.894L83.4177 11.7336L89.8338 15.9255L70.4521 50.3364C68.3279 51.6112 66.7279 54.1901 65.6658 56.393C65.1215 57.522 64.7082 58.5746 64.431 59.3447C64.2923 59.73 64.1874 60.0453 64.1169 60.2649C64.0817 60.3748 64.0551 60.4608 64.0372 60.5197Z" fill="url(#paint0_linear_206:37173)" stroke="#FBFDF8" stroke-width="0.8"/>
<path d="M70.7626 50.6706C68.9196 50.1224 67.1576 49.3318 65.5229 48.3194C63.8083 47.4414 62.2361 46.3096 60.8595 44.9621C60.9506 44.8464 63.0131 46.3596 65.7279 47.9275C68.4428 49.4953 70.8163 50.5449 70.7626 50.6706Z" fill="#263238"/>
<path d="M64.3356 60.6412C62.6952 59.9122 61.1203 59.0439 59.6282 58.0459C58.0515 57.1844 56.5566 56.181 55.162 55.0482C56.7938 55.7645 58.3611 56.6196 59.8466 57.6041C61.4313 58.4793 62.9338 59.4958 64.3356 60.6412Z" fill="#263238"/>
<path d="M85.1196 25.1688C83.6828 24.5804 82.3074 23.8521 81.0131 22.9946C79.6398 22.2672 78.3456 21.3996 77.1511 20.4056C78.5926 20.9901 79.9703 21.7213 81.2622 22.5877C82.6343 23.3115 83.9271 24.1766 85.1196 25.1688Z" fill="#263238"/>
<path d="M72.5467 40.95L72.6919 41.0555C73.0883 41.3266 73.3618 41.7431 73.4527 42.2147C73.5437 42.6862 73.4449 43.1746 73.1778 43.5737L68.3646 50.9819C68.234 51.1884 68.0632 51.3665 67.8624 51.5057C67.6616 51.6449 67.4348 51.7423 67.1956 51.7921C66.9563 51.8419 66.7095 51.843 66.4699 51.7955C66.2302 51.748 66.0025 51.6527 65.8004 51.5154C65.5982 51.3869 65.4233 51.2199 65.2857 51.0238C65.1482 50.8277 65.0506 50.6063 64.9987 50.3725C64.9467 50.1386 64.9414 49.8968 64.983 49.6609C65.0245 49.425 65.1123 49.1996 65.241 48.9976L69.9091 41.4838C70.0393 41.2667 70.2134 41.0791 70.4202 40.933C70.627 40.7869 70.862 40.6855 71.1102 40.6353C71.3584 40.5851 71.6143 40.5871 71.8616 40.6413C72.109 40.6955 72.3423 40.8006 72.5467 40.95Z" fill="#455A64"/>
<rect x="93.0996" y="17.1371" width="8.78813" height="3.25193" transform="rotate(118.804 93.0996 17.1371)" fill="#263238"/>
<rect x="89.3531" y="23.9537" width="13.3002" height="1.59599" transform="rotate(118.804 89.3531 23.9537)" fill="#263238"/>
<path opacity="0.5" d="M83.7169 69.3016L83.798 69.3372C84.549 69.6294 85.3285 69.8407 86.1234 69.9676C88.1379 70.3122 90.1757 70.4992 92.2187 70.5268C93.5858 70.5625 94.9599 70.5838 96.3269 70.4948C96.7955 70.4948 97.2642 70.5162 97.7363 70.5197C99.7593 70.543 101.782 70.4431 103.793 70.2205C104.726 70.122 105.652 69.9566 106.562 69.7254C107.255 69.5697 107.915 69.2898 108.511 68.8991C109.073 68.4275 109.467 67.7835 109.635 67.0648C109.904 66.0773 110.077 65.0658 110.152 64.0444C110.306 62.03 110.359 60.0091 110.311 57.9893C110.293 56.0161 110.343 54.0322 110.36 52.0554C110.382 49.46 110.392 46.8635 110.392 44.2658C110.392 43.126 110.392 41.9969 110.392 40.8643C110.392 39.9168 110.392 38.9587 110.353 38.0148C110.273 36.4592 110.004 34.9195 109.55 33.4308C109.259 32.5273 108.88 31.6551 108.419 30.8272C108.098 30.2145 107.75 29.6126 107.401 29.0142C106.999 28.3019 106.559 27.618 106.164 26.9092C105.883 26.4423 105.71 25.9177 105.657 25.3741C105.593 24.7436 105.569 24.1096 105.558 23.4756C105.558 23.0019 105.54 22.5282 105.537 22.0509C105.539 22.0224 105.539 21.9939 105.537 21.9654C105.537 21.5914 105.537 21.2139 105.537 20.8399C105.537 20.8092 105.532 20.7787 105.521 20.7502C105.509 20.7217 105.492 20.6958 105.471 20.6739C105.45 20.652 105.424 20.6346 105.396 20.6228C105.368 20.6109 105.338 20.6048 105.308 20.6048H103.419H98.8955C97.0633 20.6048 95.2347 20.6048 93.4061 20.587H88.6743C88.1528 20.587 87.6173 20.587 87.1099 20.587C86.8633 20.587 86.6131 20.5656 86.3665 20.587H86.3524C86.2903 20.5879 86.2309 20.6127 86.1864 20.6564C86.1418 20.7001 86.1155 20.7594 86.1128 20.8221C86.1128 21.1996 86.1128 21.5736 86.1128 21.9476C86.1128 22.2148 86.1128 22.4855 86.1128 22.7455C86.1128 23.1016 86.1128 23.4578 86.0881 23.814C86.067 24.3411 86.0423 24.8825 85.9895 25.3954C85.9264 25.9428 85.7447 26.4694 85.4575 26.9377C84.6048 28.4123 83.6782 29.8334 82.896 31.3507C82.2115 32.7301 81.7364 34.2058 81.4867 35.7282C81.0885 37.9543 81.1343 40.2303 81.1343 42.4956C81.0897 44.9936 81.0674 47.5177 81.0674 50.0679C81.0674 52.3653 81.0674 54.6555 81.085 56.9529C81.085 58.7337 81.0322 60.5146 81.085 62.2955C81.1205 63.4005 81.2253 64.5021 81.3986 65.5938C81.5054 66.4785 81.7755 67.3351 82.1949 68.1191C82.5637 68.668 83.0973 69.0825 83.7169 69.3016Z" fill="white"/>
<path d="M110.36 52.0554C110.382 49.46 110.392 46.8635 110.392 44.2658C110.392 43.126 110.392 41.9969 110.392 40.8643C110.392 39.9168 110.392 38.9587 110.353 38.0148C110.29 36.8458 110.124 35.6848 109.857 34.5457L81.7404 34.2928C81.6241 34.7487 81.5184 35.2046 81.4373 35.6712C81.0392 37.8973 81.085 40.1733 81.085 42.4386C81.0733 44.9746 81.0674 47.5177 81.0674 50.0679C81.0674 52.3653 81.0674 54.6555 81.085 56.9529C81.085 58.7337 81.0322 60.5146 81.085 62.2955C81.1205 63.4005 81.2253 64.5021 81.3986 65.5938C81.5054 66.4785 81.7755 67.3351 82.1949 68.1191C82.5624 68.6654 83.0933 69.0786 83.7099 69.298L83.7909 69.3336C84.542 69.6258 85.3214 69.8372 86.1163 69.9641C88.1309 70.3087 90.1687 70.4956 92.2117 70.5233C93.5787 70.5589 94.9528 70.5803 96.3199 70.4912C96.7885 70.4912 97.2571 70.5126 97.7292 70.5161C99.7522 70.5394 101.775 70.4395 103.786 70.217C104.719 70.1185 105.645 69.953 106.555 69.7219C107.249 69.5664 107.909 69.2853 108.504 68.892C109.066 68.4224 109.461 67.7793 109.628 67.0612C109.896 66.0737 110.07 65.0622 110.145 64.0408C110.299 62.0264 110.352 60.0055 110.304 57.9858C110.311 56.0161 110.343 54.0322 110.36 52.0554Z" fill="#676FC0"/>
<path opacity="0.9" d="M83.7134 69.3016C84.4901 69.6088 85.2967 69.8321 86.1199 69.9676C88.1348 70.3081 90.1725 70.4926 92.2152 70.5197C93.5823 70.5589 94.9599 70.5767 96.327 70.4912C96.7967 70.5054 97.2665 70.5126 97.7363 70.5126C99.7616 70.5406 101.787 70.4419 103.8 70.2169C104.732 70.1169 105.657 69.9503 106.566 69.7183C107.259 69.5641 107.919 69.2841 108.514 68.892C109.077 68.4222 109.473 67.7793 109.642 67.0612C109.91 66.0739 110.081 65.0622 110.153 64.0408C110.308 62.0265 110.361 60.0055 110.311 57.9858C110.311 56.009 110.35 54.0286 110.364 52.0518C110.383 49.4565 110.393 46.8587 110.396 44.2586C110.396 43.126 110.396 41.9933 110.396 40.8607C110.396 39.9097 110.396 38.9551 110.357 38.0113C110.279 36.4578 110.009 34.9202 109.554 33.4344C109.064 31.8529 108.229 30.4354 107.404 29.0106C106.999 28.2983 106.566 27.618 106.164 26.9127C105.887 26.4434 105.715 25.9181 105.66 25.3741C105.555 24.2735 105.551 23.1586 105.544 22.0509C105.544 21.6484 105.544 21.2424 105.544 20.8363C105.544 20.7749 105.52 20.716 105.477 20.6726C105.434 20.6292 105.376 20.6048 105.315 20.6048H104.579C104.579 21.1248 104.522 22.1827 104.522 22.1827C104.522 23.2512 104.522 24.3696 104.642 25.4773C104.711 26.1672 104.929 26.8334 105.28 27.4292C105.505 27.8317 105.745 28.227 105.984 28.6224C106.168 28.9251 106.337 29.2315 106.527 29.5378L106.612 29.6802C107.397 31.0444 108.144 32.3338 108.585 33.7478C109.014 35.1515 109.267 36.6043 109.339 38.0718C109.381 38.802 109.377 39.5571 109.377 40.2908V40.8749C109.377 42.0076 109.377 43.1367 109.377 44.2693C109.377 46.8671 109.366 49.4624 109.342 52.0554C109.342 52.7677 109.342 53.4801 109.317 54.1925C109.3 55.4426 109.282 56.732 109.289 58.0071V58.0962C109.336 60.0483 109.285 62.0015 109.134 63.9482C109.065 64.9003 108.907 65.8437 108.662 66.7656C108.576 67.0785 108.448 67.3781 108.282 67.656C108.183 67.8121 108.057 67.9495 107.912 68.0621C107.419 68.3779 106.875 68.6022 106.305 68.7246C105.442 68.9436 104.565 69.1007 103.68 69.1947C101.709 69.4154 99.7263 69.5129 97.7433 69.4868C97.2818 69.4868 96.8202 69.4868 96.3587 69.4618H96.2635C95.0092 69.5402 93.7514 69.5295 92.2469 69.4903C90.256 69.461 88.2702 69.2789 86.3066 68.9454C85.5544 68.8254 84.8173 68.6236 84.1081 68.3434C83.6915 68.2049 83.3298 67.9354 83.0757 67.5741C82.7288 66.9081 82.5044 66.184 82.4133 65.437C82.2489 64.3889 82.1501 63.3313 82.1174 62.2706C82.0716 61.1629 82.0821 60.0302 82.0927 58.9296C82.0927 58.2743 82.0927 57.6189 82.0927 56.9635C82.0739 54.6697 82.0669 52.3771 82.0716 50.0857C82.0716 47.5402 82.0798 44.9936 82.0962 42.4457V41.4591C82.047 39.5901 82.1578 37.7203 82.4274 35.8706C82.6619 34.4473 83.1098 33.0684 83.7557 31.7817C84.256 30.8022 84.8444 29.8298 85.4117 28.8895C85.7041 28.4016 86.0001 27.9136 86.2855 27.4221C86.6489 26.8257 86.8775 26.1556 86.9549 25.4595C87.0148 24.8932 87.0395 24.334 87.0571 23.8104C87.0817 23.2014 87.1452 21.4988 87.1628 20.5621H87.0958C86.8492 20.5621 86.599 20.5407 86.3524 20.5621C86.2904 20.5621 86.2309 20.5867 86.1867 20.6307C86.1425 20.6747 86.1173 20.7345 86.1163 20.7972C86.1163 21.7909 86.1163 22.7811 86.067 23.7748C86.0459 24.302 86.0212 24.8433 85.9684 25.3562C85.9046 25.9034 85.723 26.4299 85.4363 26.8985C84.5837 28.3695 83.6535 29.7942 82.8784 31.308C82.1867 32.6871 81.7056 34.1642 81.4515 35.689C81.0568 37.9115 81.1167 40.1875 81.0991 42.4564C81.078 44.9805 81.0674 47.5177 81.0674 50.0679C81.0674 52.3617 81.0745 54.6567 81.0886 56.9528C81.0886 58.7337 81.0357 60.5146 81.0886 62.2955C81.1241 63.4005 81.2288 64.5021 81.4021 65.5937C81.5082 66.4791 81.7796 67.336 82.2019 68.119C82.5675 68.6667 83.0973 69.0812 83.7134 69.3016Z" fill="white"/>
<path d="M86.0811 63.9589C86.4085 64.0592 86.743 64.1342 87.0817 64.1833C87.3776 64.2331 87.6701 64.2652 87.9696 64.2937C89.0829 64.397 90.2034 64.3863 91.3238 64.3899L97.1619 64.4112C97.391 64.4112 97.6305 64.4112 97.8666 64.4112H99.3006C100.241 64.4112 101.179 64.429 102.119 64.4112C102.762 64.3989 103.405 64.3525 104.043 64.2723C104.583 64.2223 105.113 64.0952 105.618 63.8948C107.08 63.243 107.344 61.5654 107.397 60.1264C107.573 55.1399 107.834 50.1142 107.834 45.1099C107.834 43.5285 107.834 41.9399 107.686 40.3656C107.65 39.7317 107.532 39.1053 107.334 38.5028C106.922 37.3951 105.477 37.3702 104.494 37.2027L104.346 37.1814C103.829 37.1079 103.307 37.0662 102.785 37.0567C101.911 37.0104 101.024 36.9748 100.16 36.9534C98.825 36.9214 97.4826 36.8893 96.1437 36.9178C95.4602 36.9178 94.7731 36.9178 94.0896 36.9178C91.3414 36.9392 88.4523 36.786 85.7534 37.3773C85.3615 37.4349 84.9885 37.585 84.6647 37.8154C84.2781 38.18 84.0343 38.6731 83.9776 39.2045C83.4632 42.2961 83.6676 45.5266 83.6993 48.6432C83.7204 50.7803 83.7639 52.9173 83.8297 55.0544C83.8825 56.935 83.6077 59.2003 84.0587 61.0311C84.1384 61.8853 84.4838 62.6921 85.0452 63.3356C85.3366 63.6236 85.6917 63.8373 86.0811 63.9589Z" fill="white"/>
<path d="M86.303 42.6915L86.2291 45.6941C86.2258 45.8326 86.2498 45.9704 86.2998 46.0994C86.3498 46.2285 86.4247 46.3462 86.5201 46.4456C86.6155 46.5451 86.7296 46.6244 86.8557 46.6788C86.9817 46.7332 87.1173 46.7617 87.2543 46.7626L104.205 46.9585C104.342 46.9618 104.479 46.9374 104.607 46.8866C104.735 46.8359 104.851 46.7599 104.95 46.663C105.048 46.5662 105.127 46.4504 105.18 46.3226C105.234 46.1947 105.262 46.0573 105.262 45.9184V42.7698C105.262 42.4927 105.153 42.2269 104.96 42.0306C104.766 41.8343 104.504 41.7236 104.23 41.7227L87.3389 41.6728C87.0687 41.6718 86.8089 41.7779 86.6153 41.9683C86.4216 42.1588 86.3095 42.4184 86.303 42.6915Z" fill="#B6BBED"/>
<path d="M90.0237 50.9691C90.0194 51.038 90.029 51.1071 90.052 51.1722C90.0749 51.2372 90.1107 51.2969 90.1572 51.3475C90.2036 51.3982 90.2598 51.4387 90.3223 51.4668C90.3847 51.4948 90.4522 51.5096 90.5205 51.5105L100.935 51.571C101.001 51.5715 101.067 51.5587 101.128 51.5335C101.189 51.5083 101.245 51.4711 101.292 51.4241C101.338 51.3771 101.376 51.3212 101.401 51.2596C101.426 51.198 101.439 51.1319 101.439 51.0652V51.0367C101.44 50.9699 101.428 50.9035 101.403 50.8415C101.378 50.7795 101.342 50.7232 101.295 50.6757C101.248 50.6283 101.193 50.5907 101.132 50.5653C101.071 50.5398 101.005 50.5269 100.939 50.5274L90.5275 50.4953C90.3998 50.495 90.2767 50.5438 90.1832 50.6317C90.0896 50.7197 90.0326 50.8402 90.0237 50.9691Z" fill="#C4CBD3"/>
<path d="M90.0132 54.2139C90.0094 54.283 90.0195 54.3521 90.0428 54.4172C90.0662 54.4823 90.1023 54.5419 90.1491 54.5925C90.1958 54.6431 90.2522 54.6836 90.3148 54.7116C90.3775 54.7395 90.4451 54.7544 90.5135 54.7552L100.925 54.8158C101.058 54.8158 101.186 54.7627 101.281 54.6681C101.376 54.5734 101.43 54.4448 101.432 54.31V54.2815C101.432 54.147 101.38 54.018 101.286 53.9226C101.192 53.8272 101.065 53.7731 100.932 53.7722L90.5171 53.7401C90.3893 53.7398 90.2662 53.7886 90.1727 53.8765C90.0792 53.9644 90.0222 54.085 90.0132 54.2139Z" fill="#C4CBD3"/>
<path d="M90.0062 57.4586C90.0014 57.5277 90.0107 57.597 90.0334 57.6623C90.0562 57.7276 90.092 57.7875 90.1385 57.8382C90.1851 57.889 90.2415 57.9295 90.3042 57.9574C90.3669 57.9852 90.4346 57.9997 90.503 58L100.918 58.0606C101.051 58.0606 101.179 58.0074 101.273 57.9127C101.367 57.8179 101.421 57.6893 101.422 57.5548V57.5263C101.422 57.4596 101.41 57.3934 101.385 57.3317C101.36 57.2699 101.323 57.2137 101.277 57.1664C101.23 57.119 101.175 57.0815 101.114 57.0558C101.053 57.0302 100.988 57.017 100.922 57.017L90.5066 56.9849C90.3792 56.9847 90.2565 57.0335 90.1635 57.1215C90.0706 57.2096 90.0143 57.3301 90.0062 57.4586Z" fill="#C4CBD3"/>
<g style="mix-blend-mode:multiply">
<path d="M86.0635 23.4115C86.0635 23.1764 86.0635 22.9378 86.0635 22.6992C86.0635 22.4605 86.0635 22.1684 86.0635 21.9013C86.0635 21.5451 86.0635 21.1533 86.0635 20.7758C86.0662 20.7131 86.0925 20.6538 86.137 20.6101C86.1816 20.5664 86.241 20.5416 86.3031 20.5407H86.3524C86.599 20.5407 86.8492 20.5407 87.0958 20.5407C87.6173 20.5407 88.1528 20.5407 88.6602 20.5407H93.392C95.2206 20.5407 97.0492 20.5407 98.8814 20.5585H103.405H105.294C105.324 20.5585 105.354 20.5646 105.382 20.5765C105.41 20.5883 105.436 20.6057 105.457 20.6276C105.478 20.6495 105.495 20.6754 105.506 20.7039C105.518 20.7324 105.523 20.7629 105.523 20.7936C105.523 21.1498 105.523 21.5451 105.523 21.9191C105.525 21.9476 105.525 21.9761 105.523 22.0046C105.523 22.4819 105.523 22.9556 105.544 23.4293L86.0635 23.4115Z" fill="#C4CBD3"/>
</g>
<path d="M85.144 21.8978H86.9761H89.6045C91.2464 21.8978 92.8848 21.8657 94.5372 21.8586C95.7492 21.8586 96.9589 21.8586 98.1662 21.8586C100.146 21.8871 102.126 21.9512 104.114 21.9619H105.551H106.154C106.506 21.9619 106.901 21.9904 107.267 21.9619C107.654 21.9437 108.021 21.7857 108.303 21.5167C108.464 21.363 108.595 21.1807 108.69 20.9788C109.36 19.5328 109.321 17.7483 109.205 16.1918C109.202 16.1059 109.194 16.0202 109.18 15.9354C109.139 15.46 108.973 15.0044 108.7 14.6151C108.427 14.2258 108.056 13.9169 107.626 13.7199C105.706 12.7903 103.363 13.2605 101.32 13.2605C99.107 13.2605 96.8908 13.2605 94.6711 13.2605C94.0087 13.2605 93.3393 13.2605 92.6733 13.2605C91.1912 13.2605 89.7044 13.2688 88.2128 13.2854C86.962 13.2854 85.3448 13.0503 84.1575 13.524C83.6055 13.7698 83.1462 14.188 82.8468 14.7172C82.4028 15.4866 82.4627 16.4126 82.4944 17.271C82.5062 18.208 82.5886 19.1427 82.7411 20.067C82.8096 20.5254 82.9887 20.9596 83.2625 21.3315C83.347 21.4394 83.4467 21.5342 83.5585 21.6128C84.0024 21.9512 84.5908 21.9014 85.144 21.8978Z" fill="#25405D"/>
<g style="mix-blend-mode:multiply">
<path d="M110.353 38.0113C110.273 36.4557 110.004 34.916 109.55 33.4273C109.259 32.5237 108.88 31.6516 108.419 30.8236C108.098 30.211 107.75 29.6091 107.401 29.0107C106.999 28.2983 106.559 27.6145 106.164 26.9057C105.883 26.4388 105.71 25.9142 105.657 25.3705C105.593 24.7401 105.569 24.1061 105.558 23.4721C105.558 22.9984 105.54 22.5247 105.537 22.0474C105.539 22.0189 105.539 21.9904 105.537 21.9619H106.139C106.492 21.9619 106.886 21.9904 107.253 21.9619C107.64 21.9437 108.007 21.7857 108.289 21.5167C108.449 21.363 108.581 21.1807 108.676 20.9788C109.346 19.5328 109.307 17.7483 109.191 16.1918C109.188 16.1059 109.18 16.0202 109.166 15.9354C109.124 15.46 108.959 15.0044 108.686 14.6151C108.413 14.2258 108.042 13.9169 107.612 13.7199C105.692 12.7903 103.349 13.2605 101.305 13.2605H96.5701V70.4912C96.9541 70.4912 97.3382 70.509 97.7257 70.5126C99.7487 70.5359 101.771 70.436 103.782 70.2134C104.716 70.1149 105.641 69.9495 106.552 69.7183C107.245 69.5626 107.905 69.2827 108.5 68.892C109.062 68.4204 109.457 67.7764 109.624 67.0577C109.893 66.0702 110.066 65.0587 110.142 64.0373C110.295 62.0229 110.348 60.002 110.3 57.9822C110.283 56.009 110.332 54.0251 110.35 52.0483C110.371 49.453 110.382 46.8564 110.382 44.2587C110.382 43.1189 110.382 41.9898 110.382 40.8572C110.389 39.9169 110.406 38.9587 110.353 38.0113Z" fill="#DEE2E7"/>
</g>
</g>
<g filter="url(#filter0_b_206:37173)">
<rect x="13" y="77" width="141" height="77" rx="10" fill="black" fill-opacity="0.8"/>
</g>
<path d="M43.3388 93.144L43.4228 96H41.5188L41.6168 93.312L41.5188 86.984H43.4508L43.3388 93.144ZM49.3316 91.94C49.341 91.6133 49.2663 91.3613 49.1076 91.184C48.9583 90.9973 48.739 90.904 48.4496 90.904C48.0296 90.904 47.5816 91.1047 47.1056 91.506V93.13L47.1896 96H45.3276L45.4256 93.312L45.3556 89.616L47.1196 89.462V90.414H47.2176C47.731 89.9473 48.291 89.6113 48.8976 89.406C49.607 89.406 50.1483 89.5693 50.5216 89.896C50.895 90.2133 51.0723 90.6753 51.0536 91.282L51.0116 93.144L51.0956 96H49.2196L49.3316 91.94ZM54.9218 89.378C55.5565 89.378 56.1538 89.4853 56.7138 89.7L56.4618 91.072L56.2378 91.142C55.9671 90.9647 55.6965 90.8293 55.4258 90.736C55.1551 90.6427 54.9171 90.596 54.7118 90.596C54.4878 90.596 54.3105 90.6567 54.1798 90.778C54.0491 90.89 53.9838 91.03 53.9838 91.198C53.9838 91.394 54.0678 91.5527 54.2358 91.674C54.4131 91.7953 54.6885 91.9307 55.0618 92.08C55.4351 92.2293 55.7431 92.374 55.9858 92.514C56.2285 92.654 56.4338 92.85 56.6018 93.102C56.7791 93.3447 56.8678 93.648 56.8678 94.012C56.8678 94.3853 56.7698 94.7353 56.5738 95.062C56.3871 95.3793 56.0978 95.6407 55.7058 95.846C55.3138 96.042 54.8331 96.14 54.2638 96.14C53.5918 96.14 52.8965 96 52.1778 95.72L52.3878 94.264L52.5698 94.152C52.8591 94.3947 53.1811 94.5907 53.5358 94.74C53.8905 94.88 54.2031 94.95 54.4738 94.95C54.7258 94.95 54.9218 94.8893 55.0618 94.768C55.2018 94.6373 55.2718 94.4833 55.2718 94.306C55.2718 94.11 55.1831 93.9513 55.0058 93.83C54.8378 93.7087 54.5671 93.5733 54.1938 93.424C53.8111 93.256 53.4985 93.1067 53.2558 92.976C53.0131 92.836 52.8031 92.64 52.6258 92.388C52.4578 92.136 52.3738 91.8233 52.3738 91.45C52.3738 90.8433 52.6025 90.3487 53.0598 89.966C53.5171 89.574 54.1378 89.378 54.9218 89.378ZM64.3268 94.782L64.1588 95.762C63.8135 95.986 63.4588 96.1027 63.0948 96.112C62.8242 96.0653 62.6002 95.958 62.4228 95.79C62.2455 95.622 62.1102 95.3793 62.0168 95.062H61.8908C61.3588 95.5847 60.8082 95.9253 60.2388 96.084C59.5295 96.084 58.9882 95.9253 58.6148 95.608C58.2508 95.2813 58.0735 94.8147 58.0828 94.208L58.1108 92.556L58.0408 89.616L59.8468 89.462L59.8048 93.592C59.7955 93.9187 59.8608 94.166 60.0008 94.334C60.1408 94.502 60.3508 94.586 60.6308 94.586C61.0415 94.586 61.4475 94.404 61.8488 94.04V89.616L63.6268 89.462L63.5008 94.306C63.5008 94.4553 63.5242 94.5627 63.5708 94.628C63.6268 94.6933 63.7108 94.726 63.8228 94.726C63.9255 94.726 64.0515 94.7073 64.2008 94.67L64.3268 94.782ZM67.2453 93.13L67.3433 96H65.4813L65.5793 93.298L65.4953 86.312L67.3573 86.172L67.2453 93.13ZM69.229 93.312L69.159 89.616L70.993 89.462L70.909 93.13L70.993 96H69.131L69.229 93.312ZM70.111 86.298C70.4004 86.298 70.6244 86.382 70.783 86.55C70.951 86.718 71.035 86.9513 71.035 87.25C71.035 87.5673 70.9464 87.8193 70.769 88.006C70.5917 88.1927 70.349 88.286 70.041 88.286C69.733 88.286 69.495 88.202 69.327 88.034C69.1684 87.866 69.089 87.628 69.089 87.32C69.089 87.012 69.1777 86.7647 69.355 86.578C69.5417 86.3913 69.7937 86.298 70.111 86.298ZM76.7574 91.94C76.7667 91.6133 76.6921 91.3613 76.5334 91.184C76.3841 90.9973 76.1647 90.904 75.8754 90.904C75.4554 90.904 75.0074 91.1047 74.5314 91.506V93.13L74.6154 96H72.7534L72.8514 93.312L72.7814 89.616L74.5454 89.462V90.414H74.6434C75.1567 89.9473 75.7167 89.6113 76.3234 89.406C77.0327 89.406 77.5741 89.5693 77.9474 89.896C78.3207 90.2133 78.4981 90.6753 78.4794 91.282L78.4374 93.144L78.5214 96H76.6454L76.7574 91.94ZM82.8656 89.364C83.8176 89.364 84.5456 89.644 85.0496 90.204C85.5536 90.764 85.8056 91.5713 85.8056 92.626C85.8056 93.7647 85.5349 94.6373 84.9936 95.244C84.4522 95.8413 83.6729 96.14 82.6556 96.14C81.7036 96.14 80.9756 95.86 80.4716 95.3C79.9676 94.74 79.7156 93.9327 79.7156 92.878C79.7156 91.7393 79.9862 90.8713 80.5276 90.274C81.0689 89.6673 81.8482 89.364 82.8656 89.364ZM82.7396 90.624C82.2916 90.624 81.9649 90.7733 81.7596 91.072C81.5636 91.3707 81.4656 91.8513 81.4656 92.514C81.4656 93.3727 81.5682 93.984 81.7736 94.348C81.9789 94.712 82.3149 94.894 82.7816 94.894C83.2296 94.894 83.5516 94.7493 83.7476 94.46C83.9529 94.1613 84.0556 93.676 84.0556 93.004C84.0556 92.1547 83.9482 91.548 83.7336 91.184C83.5282 90.8107 83.1969 90.624 82.7396 90.624ZM89.7135 94.628C90.0122 94.628 90.3249 94.5487 90.6515 94.39L90.8055 94.53L90.6235 95.636C90.1475 95.8787 89.6622 96.028 89.1675 96.084C87.9075 95.9533 87.2775 95.3373 87.2775 94.236L87.3475 93.074L87.3335 90.666H86.4655L86.3955 90.568L86.4935 89.546H87.3195V88.468L89.0135 87.922L89.1395 88.034L89.0975 89.546H90.7635L90.8195 89.644L90.7355 90.666H89.0695L88.9855 93.802C88.9855 94.1007 89.0415 94.3153 89.1535 94.446C89.2655 94.5673 89.4522 94.628 89.7135 94.628ZM96.7563 92.976L92.9763 93.004C93.0603 94.1707 93.653 94.754 94.7543 94.754C95.333 94.754 95.977 94.5907 96.6863 94.264L96.8403 94.362L96.5603 95.748C95.851 96.0093 95.1836 96.14 94.5583 96.14C93.5316 96.14 92.7243 95.8413 92.1363 95.244C91.5576 94.6467 91.2683 93.8207 91.2683 92.766C91.2683 91.7207 91.553 90.8947 92.1223 90.288C92.6916 89.672 93.4616 89.364 94.4323 89.364C95.263 89.364 95.9023 89.5927 96.3503 90.05C96.8076 90.498 97.0363 91.128 97.0363 91.94C97.0363 92.1547 97.013 92.4253 96.9663 92.752L96.7563 92.976ZM95.4123 91.73C95.4123 91.3567 95.3283 91.0767 95.1603 90.89C94.9923 90.694 94.745 90.596 94.4183 90.596C94.0543 90.596 93.751 90.7173 93.5083 90.96C93.2656 91.1933 93.1023 91.534 93.0183 91.982L95.3843 91.926L95.4123 91.73ZM101.918 89.476C102.002 89.476 102.118 89.4853 102.268 89.504V91.226L102.072 91.296C101.913 91.2307 101.74 91.198 101.554 91.198C101.012 91.198 100.522 91.548 100.084 92.248V93.13L100.182 96H98.3198L98.4318 93.312L98.3478 89.616L100.112 89.462L100.098 90.736H100.21C100.667 89.896 101.236 89.476 101.918 89.476ZM105.612 89.364C106.331 89.364 106.891 89.5273 107.292 89.854C107.703 90.1713 107.908 90.6193 107.908 91.198C107.908 91.366 107.88 91.898 107.824 92.794C107.815 93.0553 107.801 93.326 107.782 93.606C107.764 93.8767 107.754 94.11 107.754 94.306C107.754 94.4647 107.778 94.5767 107.824 94.642C107.871 94.698 107.955 94.726 108.076 94.726C108.17 94.726 108.291 94.7073 108.44 94.67L108.58 94.782L108.412 95.762C108.114 95.958 107.773 96.0747 107.39 96.112C107.11 96.084 106.877 95.986 106.69 95.818C106.504 95.6407 106.378 95.398 106.312 95.09H106.214C105.748 95.5847 105.267 95.93 104.772 96.126C104.1 96.1167 103.573 95.9393 103.19 95.594C102.808 95.2487 102.616 94.7773 102.616 94.18C102.616 93.7133 102.733 93.3493 102.966 93.088C103.209 92.8173 103.573 92.6353 104.058 92.542L106.2 92.136V91.562C106.2 90.9553 105.902 90.652 105.304 90.652C105.015 90.652 104.707 90.7173 104.38 90.848C104.063 90.9787 103.704 91.184 103.302 91.464L103.162 91.38L102.952 90.148C103.354 89.896 103.783 89.7047 104.24 89.574C104.698 89.434 105.155 89.364 105.612 89.364ZM104.702 93.396C104.553 93.4333 104.441 93.4987 104.366 93.592C104.301 93.676 104.268 93.8067 104.268 93.984C104.268 94.2267 104.334 94.418 104.464 94.558C104.595 94.6887 104.777 94.754 105.01 94.754C105.374 94.754 105.757 94.5393 106.158 94.11L106.186 93.074L104.702 93.396ZM113.235 89.406C114.047 89.406 114.672 89.6813 115.111 90.232C115.549 90.7827 115.769 91.562 115.769 92.57C115.769 93.7087 115.484 94.5907 114.915 95.216C114.355 95.832 113.561 96.14 112.535 96.14C112.236 96.14 111.923 96.112 111.597 96.056L111.639 98.59H109.791L109.889 93.312L109.805 89.616L111.583 89.462L111.569 90.414H111.667C111.928 90.162 112.18 89.9613 112.423 89.812C112.665 89.6533 112.936 89.518 113.235 89.406ZM112.549 94.922C113.034 94.922 113.403 94.7493 113.655 94.404C113.907 94.0587 114.033 93.55 114.033 92.878C114.033 92.2247 113.925 91.7347 113.711 91.408C113.505 91.072 113.197 90.904 112.787 90.904C112.385 90.904 111.979 91.1047 111.569 91.506L111.555 93.13L111.583 94.712C111.919 94.852 112.241 94.922 112.549 94.922ZM117.163 93.312L117.093 89.616L118.927 89.462L118.843 93.13L118.927 96H117.065L117.163 93.312ZM118.045 86.298C118.334 86.298 118.558 86.382 118.717 86.55C118.885 86.718 118.969 86.9513 118.969 87.25C118.969 87.5673 118.88 87.8193 118.703 88.006C118.525 88.1927 118.283 88.286 117.975 88.286C117.667 88.286 117.429 88.202 117.261 88.034C117.102 87.866 117.023 87.628 117.023 87.32C117.023 87.012 117.111 86.7647 117.289 86.578C117.475 86.3913 117.727 86.298 118.045 86.298ZM123.249 89.364C123.968 89.364 124.528 89.5273 124.929 89.854C125.34 90.1713 125.545 90.6193 125.545 91.198C125.545 91.366 125.517 91.898 125.461 92.794C125.452 93.0553 125.438 93.326 125.419 93.606C125.4 93.8767 125.391 94.11 125.391 94.306C125.391 94.4647 125.414 94.5767 125.461 94.642C125.508 94.698 125.592 94.726 125.713 94.726C125.806 94.726 125.928 94.7073 126.077 94.67L126.217 94.782L126.049 95.762C125.75 95.958 125.41 96.0747 125.027 96.112C124.747 96.084 124.514 95.986 124.327 95.818C124.14 95.6407 124.014 95.398 123.949 95.09H123.851C123.384 95.5847 122.904 95.93 122.409 96.126C121.737 96.1167 121.21 95.9393 120.827 95.594C120.444 95.2487 120.253 94.7773 120.253 94.18C120.253 93.7133 120.37 93.3493 120.603 93.088C120.846 92.8173 121.21 92.6353 121.695 92.542L123.837 92.136V91.562C123.837 90.9553 123.538 90.652 122.941 90.652C122.652 90.652 122.344 90.7173 122.017 90.848C121.7 90.9787 121.34 91.184 120.939 91.464L120.799 91.38L120.589 90.148C120.99 89.896 121.42 89.7047 121.877 89.574C122.334 89.434 122.792 89.364 123.249 89.364ZM122.339 93.396C122.19 93.4333 122.078 93.4987 122.003 93.592C121.938 93.676 121.905 93.8067 121.905 93.984C121.905 94.2267 121.97 94.418 122.101 94.558C122.232 94.6887 122.414 94.754 122.647 94.754C123.011 94.754 123.394 94.5393 123.795 94.11L123.823 93.074L122.339 93.396ZM32.4199 105.364C33.1386 105.364 33.6986 105.527 34.0999 105.854C34.5106 106.171 34.7159 106.619 34.7159 107.198C34.7159 107.366 34.6879 107.898 34.6319 108.794C34.6226 109.055 34.6086 109.326 34.5899 109.606C34.5712 109.877 34.5619 110.11 34.5619 110.306C34.5619 110.465 34.5852 110.577 34.6319 110.642C34.6786 110.698 34.7626 110.726 34.8839 110.726C34.9772 110.726 35.0986 110.707 35.2479 110.67L35.3879 110.782L35.2199 111.762C34.9212 111.958 34.5806 112.075 34.1979 112.112C33.9179 112.084 33.6846 111.986 33.4979 111.818C33.3112 111.641 33.1852 111.398 33.1199 111.09H33.0219C32.5552 111.585 32.0746 111.93 31.5799 112.126C30.9079 112.117 30.3806 111.939 29.9979 111.594C29.6152 111.249 29.4239 110.777 29.4239 110.18C29.4239 109.713 29.5406 109.349 29.7739 109.088C30.0166 108.817 30.3806 108.635 30.8659 108.542L33.0079 108.136V107.562C33.0079 106.955 32.7092 106.652 32.1119 106.652C31.8226 106.652 31.5146 106.717 31.1879 106.848C30.8706 106.979 30.5112 107.184 30.1099 107.464L29.9699 107.38L29.7599 106.148C30.1612 105.896 30.5906 105.705 31.0479 105.574C31.5052 105.434 31.9626 105.364 32.4199 105.364ZM31.5099 109.396C31.3606 109.433 31.2486 109.499 31.1739 109.592C31.1086 109.676 31.0759 109.807 31.0759 109.984C31.0759 110.227 31.1412 110.418 31.2719 110.558C31.4026 110.689 31.5846 110.754 31.8179 110.754C32.1819 110.754 32.5646 110.539 32.9659 110.11L32.9939 109.074L31.5099 109.396ZM38.7821 105.378C39.4168 105.378 40.0141 105.485 40.5741 105.7L40.3221 107.072L40.0981 107.142C39.8275 106.965 39.5568 106.829 39.2861 106.736C39.0155 106.643 38.7775 106.596 38.5721 106.596C38.3481 106.596 38.1708 106.657 38.0401 106.778C37.9095 106.89 37.8441 107.03 37.8441 107.198C37.8441 107.394 37.9281 107.553 38.0961 107.674C38.2735 107.795 38.5488 107.931 38.9221 108.08C39.2955 108.229 39.6035 108.374 39.8461 108.514C40.0888 108.654 40.2941 108.85 40.4621 109.102C40.6395 109.345 40.7281 109.648 40.7281 110.012C40.7281 110.385 40.6301 110.735 40.4341 111.062C40.2475 111.379 39.9581 111.641 39.5661 111.846C39.1741 112.042 38.6935 112.14 38.1241 112.14C37.4521 112.14 36.7568 112 36.0381 111.72L36.2481 110.264L36.4301 110.152C36.7195 110.395 37.0415 110.591 37.3961 110.74C37.7508 110.88 38.0635 110.95 38.3341 110.95C38.5861 110.95 38.7821 110.889 38.9221 110.768C39.0621 110.637 39.1321 110.483 39.1321 110.306C39.1321 110.11 39.0435 109.951 38.8661 109.83C38.6981 109.709 38.4275 109.573 38.0541 109.424C37.6715 109.256 37.3588 109.107 37.1161 108.976C36.8735 108.836 36.6635 108.64 36.4861 108.388C36.3181 108.136 36.2341 107.823 36.2341 107.45C36.2341 106.843 36.4628 106.349 36.9201 105.966C37.3775 105.574 37.9981 105.378 38.7821 105.378ZM44.1552 105.378C44.7899 105.378 45.3872 105.485 45.9472 105.7L45.6952 107.072L45.4712 107.142C45.2005 106.965 44.9299 106.829 44.6592 106.736C44.3885 106.643 44.1505 106.596 43.9452 106.596C43.7212 106.596 43.5439 106.657 43.4132 106.778C43.2825 106.89 43.2172 107.03 43.2172 107.198C43.2172 107.394 43.3012 107.553 43.4692 107.674C43.6465 107.795 43.9219 107.931 44.2952 108.08C44.6685 108.229 44.9765 108.374 45.2192 108.514C45.4619 108.654 45.6672 108.85 45.8352 109.102C46.0125 109.345 46.1012 109.648 46.1012 110.012C46.1012 110.385 46.0032 110.735 45.8072 111.062C45.6205 111.379 45.3312 111.641 44.9392 111.846C44.5472 112.042 44.0665 112.14 43.4972 112.14C42.8252 112.14 42.1299 112 41.4112 111.72L41.6212 110.264L41.8032 110.152C42.0925 110.395 42.4145 110.591 42.7692 110.74C43.1239 110.88 43.4365 110.95 43.7072 110.95C43.9592 110.95 44.1552 110.889 44.2952 110.768C44.4352 110.637 44.5052 110.483 44.5052 110.306C44.5052 110.11 44.4165 109.951 44.2392 109.83C44.0712 109.709 43.8005 109.573 43.4272 109.424C43.0445 109.256 42.7319 109.107 42.4892 108.976C42.2465 108.836 42.0365 108.64 41.8592 108.388C41.6912 108.136 41.6072 107.823 41.6072 107.45C41.6072 106.843 41.8359 106.349 42.2932 105.966C42.7505 105.574 43.3712 105.378 44.1552 105.378ZM50.0462 105.364C50.9982 105.364 51.7262 105.644 52.2302 106.204C52.7342 106.764 52.9862 107.571 52.9862 108.626C52.9862 109.765 52.7156 110.637 52.1742 111.244C51.6329 111.841 50.8536 112.14 49.8362 112.14C48.8842 112.14 48.1562 111.86 47.6522 111.3C47.1482 110.74 46.8962 109.933 46.8962 108.878C46.8962 107.739 47.1669 106.871 47.7082 106.274C48.2496 105.667 49.0289 105.364 50.0462 105.364ZM49.9202 106.624C49.4722 106.624 49.1456 106.773 48.9402 107.072C48.7442 107.371 48.6462 107.851 48.6462 108.514C48.6462 109.373 48.7489 109.984 48.9542 110.348C49.1596 110.712 49.4956 110.894 49.9622 110.894C50.4102 110.894 50.7322 110.749 50.9282 110.46C51.1336 110.161 51.2362 109.676 51.2362 109.004C51.2362 108.155 51.1289 107.548 50.9142 107.184C50.7089 106.811 50.3776 106.624 49.9202 106.624ZM56.9362 105.364C57.2442 105.364 57.5475 105.397 57.8462 105.462C58.1542 105.518 58.4249 105.602 58.6582 105.714L58.3502 107.198L58.1962 107.268C57.7202 107.007 57.2955 106.876 56.9222 106.876C56.4929 106.876 56.1615 107.03 55.9282 107.338C55.6949 107.646 55.5782 108.085 55.5782 108.654C55.5782 109.307 55.7042 109.807 55.9562 110.152C56.2082 110.497 56.5675 110.67 57.0342 110.67C57.4542 110.67 57.9209 110.553 58.4342 110.32L58.5742 110.432L58.3922 111.874C57.8322 112.051 57.2582 112.14 56.6702 112.14C55.7742 112.14 55.0742 111.851 54.5702 111.272C54.0662 110.684 53.8142 109.867 53.8142 108.822C53.8142 107.739 54.0895 106.895 54.6402 106.288C55.1909 105.672 55.9562 105.364 56.9362 105.364ZM59.7749 109.312L59.7049 105.616L61.5389 105.462L61.4549 109.13L61.5389 112H59.6769L59.7749 109.312ZM60.6569 102.298C60.9463 102.298 61.1703 102.382 61.3289 102.55C61.4969 102.718 61.5809 102.951 61.5809 103.25C61.5809 103.567 61.4923 103.819 61.3149 104.006C61.1376 104.193 60.8949 104.286 60.5869 104.286C60.2789 104.286 60.0409 104.202 59.8729 104.034C59.7143 103.866 59.6349 103.628 59.6349 103.32C59.6349 103.012 59.7236 102.765 59.9009 102.578C60.0876 102.391 60.3396 102.298 60.6569 102.298ZM65.8613 105.364C66.58 105.364 67.14 105.527 67.5413 105.854C67.952 106.171 68.1573 106.619 68.1573 107.198C68.1573 107.366 68.1293 107.898 68.0733 108.794C68.064 109.055 68.05 109.326 68.0313 109.606C68.0126 109.877 68.0033 110.11 68.0033 110.306C68.0033 110.465 68.0266 110.577 68.0733 110.642C68.12 110.698 68.204 110.726 68.3253 110.726C68.4186 110.726 68.54 110.707 68.6893 110.67L68.8293 110.782L68.6613 111.762C68.3626 111.958 68.022 112.075 67.6393 112.112C67.3593 112.084 67.126 111.986 66.9393 111.818C66.7526 111.641 66.6266 111.398 66.5613 111.09H66.4633C65.9966 111.585 65.516 111.93 65.0213 112.126C64.3493 112.117 63.822 111.939 63.4393 111.594C63.0566 111.249 62.8653 110.777 62.8653 110.18C62.8653 109.713 62.982 109.349 63.2153 109.088C63.458 108.817 63.822 108.635 64.3073 108.542L66.4493 108.136V107.562C66.4493 106.955 66.1506 106.652 65.5533 106.652C65.264 106.652 64.956 106.717 64.6293 106.848C64.312 106.979 63.9526 107.184 63.5513 107.464L63.4113 107.38L63.2013 106.148C63.6026 105.896 64.032 105.705 64.4893 105.574C64.9466 105.434 65.404 105.364 65.8613 105.364ZM64.9513 109.396C64.802 109.433 64.69 109.499 64.6153 109.592C64.55 109.676 64.5173 109.807 64.5173 109.984C64.5173 110.227 64.5826 110.418 64.7133 110.558C64.844 110.689 65.026 110.754 65.2593 110.754C65.6233 110.754 66.006 110.539 66.4073 110.11L66.4353 109.074L64.9513 109.396ZM72.2847 109.312L72.2147 105.616L74.0487 105.462L73.9647 109.13L74.0487 112H72.1867L72.2847 109.312ZM73.1667 102.298C73.456 102.298 73.68 102.382 73.8387 102.55C74.0067 102.718 74.0907 102.951 74.0907 103.25C74.0907 103.567 74.002 103.819 73.8247 104.006C73.6474 104.193 73.4047 104.286 73.0967 104.286C72.7887 104.286 72.5507 104.202 72.3827 104.034C72.224 103.866 72.1447 103.628 72.1447 103.32C72.1447 103.012 72.2334 102.765 72.4107 102.578C72.5974 102.391 72.8494 102.298 73.1667 102.298ZM79.8131 107.94C79.8224 107.613 79.7477 107.361 79.5891 107.184C79.4397 106.997 79.2204 106.904 78.9311 106.904C78.5111 106.904 78.0631 107.105 77.5871 107.506V109.13L77.6711 112H75.8091L75.9071 109.312L75.8371 105.616L77.6011 105.462V106.414H77.6991C78.2124 105.947 78.7724 105.611 79.3791 105.406C80.0884 105.406 80.6297 105.569 81.0031 105.896C81.3764 106.213 81.5537 106.675 81.5351 107.282L81.4931 109.144L81.5771 112H79.7011L79.8131 107.94ZM85.4032 105.378C86.0379 105.378 86.6352 105.485 87.1952 105.7L86.9432 107.072L86.7192 107.142C86.4486 106.965 86.1779 106.829 85.9072 106.736C85.6366 106.643 85.3986 106.596 85.1932 106.596C84.9692 106.596 84.7919 106.657 84.6612 106.778C84.5306 106.89 84.4652 107.03 84.4652 107.198C84.4652 107.394 84.5492 107.553 84.7172 107.674C84.8946 107.795 85.1699 107.931 85.5432 108.08C85.9166 108.229 86.2246 108.374 86.4672 108.514C86.7099 108.654 86.9152 108.85 87.0832 109.102C87.2606 109.345 87.3492 109.648 87.3492 110.012C87.3492 110.385 87.2512 110.735 87.0552 111.062C86.8686 111.379 86.5792 111.641 86.1872 111.846C85.7952 112.042 85.3146 112.14 84.7452 112.14C84.0732 112.14 83.3779 112 82.6592 111.72L82.8692 110.264L83.0512 110.152C83.3406 110.395 83.6626 110.591 84.0172 110.74C84.3719 110.88 84.6846 110.95 84.9552 110.95C85.2072 110.95 85.4032 110.889 85.5432 110.768C85.6832 110.637 85.7532 110.483 85.7532 110.306C85.7532 110.11 85.6646 109.951 85.4872 109.83C85.3192 109.709 85.0486 109.573 84.6752 109.424C84.2926 109.256 83.9799 109.107 83.7372 108.976C83.4946 108.836 83.2846 108.64 83.1072 108.388C82.9392 108.136 82.8552 107.823 82.8552 107.45C82.8552 106.843 83.0839 106.349 83.5412 105.966C83.9986 105.574 84.6192 105.378 85.4032 105.378ZM94.8083 110.782L94.6403 111.762C94.2949 111.986 93.9403 112.103 93.5763 112.112C93.3056 112.065 93.0816 111.958 92.9043 111.79C92.7269 111.622 92.5916 111.379 92.4983 111.062H92.3723C91.8403 111.585 91.2896 111.925 90.7203 112.084C90.0109 112.084 89.4696 111.925 89.0963 111.608C88.7323 111.281 88.5549 110.815 88.5643 110.208L88.5923 108.556L88.5223 105.616L90.3283 105.462L90.2863 109.592C90.2769 109.919 90.3423 110.166 90.4823 110.334C90.6223 110.502 90.8323 110.586 91.1123 110.586C91.5229 110.586 91.9289 110.404 92.3303 110.04V105.616L94.1083 105.462L93.9823 110.306C93.9823 110.455 94.0056 110.563 94.0523 110.628C94.1083 110.693 94.1923 110.726 94.3043 110.726C94.4069 110.726 94.5329 110.707 94.6823 110.67L94.8083 110.782ZM97.7267 109.13L97.8247 112H95.9627L96.0607 109.298L95.9767 102.312L97.8387 102.172L97.7267 109.13ZM99.7105 109.312L99.6405 105.616L101.474 105.462L101.39 109.13L101.474 112H99.6125L99.7105 109.312ZM100.592 102.298C100.882 102.298 101.106 102.382 101.264 102.55C101.432 102.718 101.516 102.951 101.516 103.25C101.516 103.567 101.428 103.819 101.25 104.006C101.073 104.193 100.83 104.286 100.522 104.286C100.214 104.286 99.9765 104.202 99.8085 104.034C99.6498 103.866 99.5705 103.628 99.5705 103.32C99.5705 103.012 99.6591 102.765 99.8365 102.578C100.023 102.391 100.275 102.298 100.592 102.298ZM107.239 107.94C107.248 107.613 107.174 107.361 107.015 107.184C106.866 106.997 106.646 106.904 106.357 106.904C105.937 106.904 105.489 107.105 105.013 107.506V109.13L105.097 112H103.235L103.333 109.312L103.263 105.616L105.027 105.462V106.414H105.125C105.638 105.947 106.198 105.611 106.805 105.406C107.514 105.406 108.056 105.569 108.429 105.896C108.802 106.213 108.98 106.675 108.961 107.282L108.919 109.144L109.003 112H107.127L107.239 107.94ZM113.207 105.364C113.926 105.364 114.486 105.527 114.887 105.854C115.298 106.171 115.503 106.619 115.503 107.198C115.503 107.366 115.475 107.898 115.419 108.794C115.41 109.055 115.396 109.326 115.377 109.606C115.358 109.877 115.349 110.11 115.349 110.306C115.349 110.465 115.372 110.577 115.419 110.642C115.466 110.698 115.55 110.726 115.671 110.726C115.764 110.726 115.886 110.707 116.035 110.67L116.175 110.782L116.007 111.762C115.708 111.958 115.368 112.075 114.985 112.112C114.705 112.084 114.472 111.986 114.285 111.818C114.098 111.641 113.972 111.398 113.907 111.09H113.809C113.342 111.585 112.862 111.93 112.367 112.126C111.695 112.117 111.168 111.939 110.785 111.594C110.402 111.249 110.211 110.777 110.211 110.18C110.211 109.713 110.328 109.349 110.561 109.088C110.804 108.817 111.168 108.635 111.653 108.542L113.795 108.136V107.562C113.795 106.955 113.496 106.652 112.899 106.652C112.61 106.652 112.302 106.717 111.975 106.848C111.658 106.979 111.298 107.184 110.897 107.464L110.757 107.38L110.547 106.148C110.948 105.896 111.378 105.705 111.835 105.574C112.292 105.434 112.75 105.364 113.207 105.364ZM112.297 109.396C112.148 109.433 112.036 109.499 111.961 109.592C111.896 109.676 111.863 109.807 111.863 109.984C111.863 110.227 111.928 110.418 112.059 110.558C112.19 110.689 112.372 110.754 112.605 110.754C112.969 110.754 113.352 110.539 113.753 110.11L113.781 109.074L112.297 109.396ZM119.569 105.378C120.204 105.378 120.801 105.485 121.361 105.7L121.109 107.072L120.885 107.142C120.615 106.965 120.344 106.829 120.073 106.736C119.803 106.643 119.565 106.596 119.359 106.596C119.135 106.596 118.958 106.657 118.827 106.778C118.697 106.89 118.631 107.03 118.631 107.198C118.631 107.394 118.715 107.553 118.883 107.674C119.061 107.795 119.336 107.931 119.709 108.08C120.083 108.229 120.391 108.374 120.633 108.514C120.876 108.654 121.081 108.85 121.249 109.102C121.427 109.345 121.515 109.648 121.515 110.012C121.515 110.385 121.417 110.735 121.221 111.062C121.035 111.379 120.745 111.641 120.353 111.846C119.961 112.042 119.481 112.14 118.911 112.14C118.239 112.14 117.544 112 116.825 111.72L117.035 110.264L117.217 110.152C117.507 110.395 117.829 110.591 118.183 110.74C118.538 110.88 118.851 110.95 119.121 110.95C119.373 110.95 119.569 110.889 119.709 110.768C119.849 110.637 119.919 110.483 119.919 110.306C119.919 110.11 119.831 109.951 119.653 109.83C119.485 109.709 119.215 109.573 118.841 109.424C118.459 109.256 118.146 109.107 117.903 108.976C117.661 108.836 117.451 108.64 117.273 108.388C117.105 108.136 117.021 107.823 117.021 107.45C117.021 106.843 117.25 106.349 117.707 105.966C118.165 105.574 118.785 105.378 119.569 105.378ZM130.309 109.13L130.351 110.306C130.351 110.465 130.37 110.577 130.407 110.642C130.454 110.698 130.533 110.726 130.645 110.726C130.748 110.726 130.874 110.707 131.023 110.67L131.149 110.782L130.995 111.762C130.678 111.958 130.333 112.075 129.959 112.112C129.67 112.084 129.427 111.986 129.231 111.818C129.035 111.65 128.9 111.421 128.825 111.132H128.713C128.256 111.552 127.789 111.874 127.313 112.098C126.399 112.098 125.689 111.809 125.185 111.23C124.681 110.642 124.429 109.83 124.429 108.794C124.429 107.693 124.719 106.848 125.297 106.26C125.876 105.672 126.679 105.378 127.705 105.378C127.976 105.378 128.275 105.406 128.601 105.462L128.573 102.312L130.421 102.172L130.309 109.13ZM127.579 106.638C126.646 106.638 126.179 107.231 126.179 108.416C126.179 109.153 126.291 109.709 126.515 110.082C126.739 110.455 127.066 110.642 127.495 110.642C127.906 110.642 128.284 110.451 128.629 110.068L128.657 109.298L128.615 106.89C128.251 106.722 127.906 106.638 127.579 106.638ZM137.287 108.976L133.507 109.004C133.591 110.171 134.183 110.754 135.285 110.754C135.863 110.754 136.507 110.591 137.217 110.264L137.371 110.362L137.091 111.748C136.381 112.009 135.714 112.14 135.089 112.14C134.062 112.14 133.255 111.841 132.667 111.244C132.088 110.647 131.799 109.821 131.799 108.766C131.799 107.721 132.083 106.895 132.653 106.288C133.222 105.672 133.992 105.364 134.963 105.364C135.793 105.364 136.433 105.593 136.881 106.05C137.338 106.498 137.567 107.128 137.567 107.94C137.567 108.155 137.543 108.425 137.497 108.752L137.287 108.976ZM135.943 107.73C135.943 107.357 135.859 107.077 135.691 106.89C135.523 106.694 135.275 106.596 134.949 106.596C134.585 106.596 134.281 106.717 134.039 106.96C133.796 107.193 133.633 107.534 133.549 107.982L135.915 107.926L135.943 107.73ZM36.5488 121.364C37.2675 121.364 37.8275 121.527 38.2288 121.854C38.6395 122.171 38.8448 122.619 38.8448 123.198C38.8448 123.366 38.8168 123.898 38.7608 124.794C38.7515 125.055 38.7375 125.326 38.7188 125.606C38.7001 125.877 38.6908 126.11 38.6908 126.306C38.6908 126.465 38.7141 126.577 38.7608 126.642C38.8075 126.698 38.8915 126.726 39.0128 126.726C39.1061 126.726 39.2275 126.707 39.3768 126.67L39.5168 126.782L39.3488 127.762C39.0501 127.958 38.7095 128.075 38.3268 128.112C38.0468 128.084 37.8135 127.986 37.6268 127.818C37.4401 127.641 37.3141 127.398 37.2488 127.09H37.1508C36.6841 127.585 36.2035 127.93 35.7088 128.126C35.0368 128.117 34.5095 127.939 34.1268 127.594C33.7441 127.249 33.5528 126.777 33.5528 126.18C33.5528 125.713 33.6695 125.349 33.9028 125.088C34.1455 124.817 34.5095 124.635 34.9948 124.542L37.1368 124.136V123.562C37.1368 122.955 36.8381 122.652 36.2408 122.652C35.9515 122.652 35.6435 122.717 35.3168 122.848C34.9995 122.979 34.6401 123.184 34.2388 123.464L34.0988 123.38L33.8888 122.148C34.2901 121.896 34.7195 121.705 35.1768 121.574C35.6341 121.434 36.0915 121.364 36.5488 121.364ZM35.6388 125.396C35.4895 125.433 35.3775 125.499 35.3028 125.592C35.2375 125.676 35.2048 125.807 35.2048 125.984C35.2048 126.227 35.2701 126.418 35.4008 126.558C35.5315 126.689 35.7135 126.754 35.9468 126.754C36.3108 126.754 36.6935 126.539 37.0948 126.11L37.1228 125.074L35.6388 125.396ZM43.401 121.364C43.709 121.364 44.0124 121.397 44.311 121.462C44.619 121.518 44.8897 121.602 45.123 121.714L44.815 123.198L44.661 123.268C44.185 123.007 43.7604 122.876 43.387 122.876C42.9577 122.876 42.6264 123.03 42.393 123.338C42.1597 123.646 42.043 124.085 42.043 124.654C42.043 125.307 42.169 125.807 42.421 126.152C42.673 126.497 43.0324 126.67 43.499 126.67C43.919 126.67 44.3857 126.553 44.899 126.32L45.039 126.432L44.857 127.874C44.297 128.051 43.723 128.14 43.135 128.14C42.239 128.14 41.539 127.851 41.035 127.272C40.531 126.684 40.279 125.867 40.279 124.822C40.279 123.739 40.5544 122.895 41.105 122.288C41.6557 121.672 42.421 121.364 43.401 121.364ZM43.387 128.672L43.863 128.938C44.0684 129.05 44.213 129.171 44.297 129.302C44.3904 129.442 44.437 129.596 44.437 129.764C44.437 130.072 44.3157 130.324 44.073 130.52C43.8304 130.716 43.513 130.814 43.121 130.814C42.701 130.814 42.3184 130.683 41.973 130.422L42.099 129.638L42.183 129.596C42.463 129.876 42.7384 130.016 43.009 130.016C43.233 130.016 43.345 129.918 43.345 129.722C43.345 129.657 43.3264 129.601 43.289 129.554C43.2517 129.517 43.191 129.479 43.107 129.442L42.421 129.05L42.743 127.636H43.639L43.387 128.672ZM48.539 121.364C49.2577 121.364 49.8177 121.527 50.219 121.854C50.6297 122.171 50.835 122.619 50.835 123.198C50.835 123.366 50.807 123.898 50.751 124.794C50.7417 125.055 50.7277 125.326 50.709 125.606C50.6904 125.877 50.681 126.11 50.681 126.306C50.681 126.465 50.7044 126.577 50.751 126.642C50.7977 126.698 50.8817 126.726 51.003 126.726C51.0964 126.726 51.2177 126.707 51.367 126.67L51.507 126.782L51.339 127.762C51.0404 127.958 50.6997 128.075 50.317 128.112C50.037 128.084 49.8037 127.986 49.617 127.818C49.4304 127.641 49.3044 127.398 49.239 127.09H49.141C48.6744 127.585 48.1937 127.93 47.699 128.126C47.027 128.117 46.4997 127.939 46.117 127.594C45.7344 127.249 45.543 126.777 45.543 126.18C45.543 125.713 45.6597 125.349 45.893 125.088C46.1357 124.817 46.4997 124.635 46.985 124.542L49.127 124.136V123.562C49.127 122.955 48.8284 122.652 48.231 122.652C47.9417 122.652 47.6337 122.717 47.307 122.848C46.9897 122.979 46.6304 123.184 46.229 123.464L46.089 123.38L45.879 122.148C46.2804 121.896 46.7097 121.705 47.167 121.574C47.6244 121.434 48.0817 121.364 48.539 121.364ZM47.629 125.396C47.4797 125.433 47.3677 125.499 47.293 125.592C47.2277 125.676 47.195 125.807 47.195 125.984C47.195 126.227 47.2604 126.418 47.391 126.558C47.5217 126.689 47.7037 126.754 47.937 126.754C48.301 126.754 48.6837 126.539 49.085 126.11L49.113 125.074L47.629 125.396ZM50.835 118.732V118.886L49.855 120.132L49.673 120.202C49.421 120.174 49.0337 120.085 48.511 119.936C48.4644 119.927 48.3104 119.889 48.049 119.824C47.797 119.749 47.6197 119.712 47.517 119.712C47.4144 119.712 47.3117 119.754 47.209 119.838C47.1157 119.922 47.013 120.025 46.901 120.146C46.789 120.267 46.705 120.361 46.649 120.426H46.481L45.921 119.88V119.726L46.915 118.48L47.083 118.41C47.307 118.438 47.7037 118.531 48.273 118.69C48.7957 118.83 49.1177 118.9 49.239 118.9C49.351 118.9 49.4584 118.853 49.561 118.76C49.673 118.667 49.785 118.559 49.897 118.438C50.009 118.317 50.0837 118.233 50.121 118.186H50.289L50.835 118.732ZM55.4193 121.364C56.3713 121.364 57.0993 121.644 57.6033 122.204C58.1073 122.764 58.3593 123.571 58.3593 124.626C58.3593 125.765 58.0886 126.637 57.5473 127.244C57.0059 127.841 56.2266 128.14 55.2093 128.14C54.2573 128.14 53.5293 127.86 53.0253 127.3C52.5213 126.74 52.2693 125.933 52.2693 124.878C52.2693 123.739 52.5399 122.871 53.0813 122.274C53.6226 121.667 54.4019 121.364 55.4193 121.364ZM55.2933 122.624C54.8453 122.624 54.5186 122.773 54.3133 123.072C54.1173 123.371 54.0193 123.851 54.0193 124.514C54.0193 125.373 54.1219 125.984 54.3273 126.348C54.5326 126.712 54.8686 126.894 55.3353 126.894C55.7833 126.894 56.1053 126.749 56.3013 126.46C56.5066 126.161 56.6093 125.676 56.6093 125.004C56.6093 124.155 56.5019 123.548 56.2873 123.184C56.0819 122.811 55.7506 122.624 55.2933 122.624ZM65.3524 121.476C65.4364 121.476 65.5531 121.485 65.7024 121.504V123.226L65.5064 123.296C65.3477 123.231 65.1751 123.198 64.9884 123.198C64.4471 123.198 63.9571 123.548 63.5184 124.248V125.13L63.6164 128H61.7544L61.8664 125.312L61.7824 121.616L63.5464 121.462L63.5324 122.736H63.6444C64.1017 121.896 64.6711 121.476 65.3524 121.476ZM69.0469 121.364C69.7655 121.364 70.3255 121.527 70.7269 121.854C71.1375 122.171 71.3429 122.619 71.3429 123.198C71.3429 123.366 71.3149 123.898 71.2589 124.794C71.2495 125.055 71.2355 125.326 71.2169 125.606C71.1982 125.877 71.1889 126.11 71.1889 126.306C71.1889 126.465 71.2122 126.577 71.2589 126.642C71.3055 126.698 71.3895 126.726 71.5109 126.726C71.6042 126.726 71.7255 126.707 71.8749 126.67L72.0149 126.782L71.8469 127.762C71.5482 127.958 71.2075 128.075 70.8249 128.112C70.5449 128.084 70.3115 127.986 70.1249 127.818C69.9382 127.641 69.8122 127.398 69.7469 127.09H69.6489C69.1822 127.585 68.7015 127.93 68.2069 128.126C67.5349 128.117 67.0075 127.939 66.6249 127.594C66.2422 127.249 66.0509 126.777 66.0509 126.18C66.0509 125.713 66.1675 125.349 66.4009 125.088C66.6435 124.817 67.0075 124.635 67.4929 124.542L69.6349 124.136V123.562C69.6349 122.955 69.3362 122.652 68.7389 122.652C68.4495 122.652 68.1415 122.717 67.8149 122.848C67.4975 122.979 67.1382 123.184 66.7369 123.464L66.5969 123.38L66.3869 122.148C66.7882 121.896 67.2175 121.705 67.6749 121.574C68.1322 121.434 68.5895 121.364 69.0469 121.364ZM68.1369 125.396C67.9875 125.433 67.8755 125.499 67.8009 125.592C67.7355 125.676 67.7029 125.807 67.7029 125.984C67.7029 126.227 67.7682 126.418 67.8989 126.558C68.0295 126.689 68.2115 126.754 68.4449 126.754C68.8089 126.754 69.1915 126.539 69.5929 126.11L69.6209 125.074L68.1369 125.396ZM70.2649 117.878L70.9369 118.886L70.9089 119.068C70.7035 119.199 70.5495 119.292 70.4469 119.348C69.2802 120.067 68.5242 120.524 68.1789 120.72L67.9969 120.706L67.5489 120.006C68.6315 119.138 69.4762 118.424 70.0829 117.864L70.2649 117.878ZM76.6691 121.406C77.4811 121.406 78.1064 121.681 78.5451 122.232C78.9838 122.783 79.2031 123.562 79.2031 124.57C79.2031 125.709 78.9184 126.591 78.3491 127.216C77.7891 127.832 76.9958 128.14 75.9691 128.14C75.6704 128.14 75.3578 128.112 75.0311 128.056L75.0731 130.59H73.2251L73.3231 125.312L73.2391 121.616L75.0171 121.462L75.0031 122.414H75.1011C75.3624 122.162 75.6144 121.961 75.8571 121.812C76.0998 121.653 76.3704 121.518 76.6691 121.406ZM75.9831 126.922C76.4684 126.922 76.8371 126.749 77.0891 126.404C77.3411 126.059 77.4671 125.55 77.4671 124.878C77.4671 124.225 77.3598 123.735 77.1451 123.408C76.9398 123.072 76.6318 122.904 76.2211 122.904C75.8198 122.904 75.4138 123.105 75.0031 123.506L74.9891 125.13L75.0171 126.712C75.3531 126.852 75.6751 126.922 75.9831 126.922ZM80.5972 125.312L80.5272 121.616L82.3612 121.462L82.2772 125.13L82.3612 128H80.4992L80.5972 125.312ZM81.4792 118.298C81.7685 118.298 81.9925 118.382 82.1512 118.55C82.3192 118.718 82.4032 118.951 82.4032 119.25C82.4032 119.567 82.3145 119.819 82.1372 120.006C81.9599 120.193 81.7172 120.286 81.4092 120.286C81.1012 120.286 80.8632 120.202 80.6952 120.034C80.5365 119.866 80.4572 119.628 80.4572 119.32C80.4572 119.012 80.5459 118.765 80.7232 118.578C80.9099 118.391 81.1619 118.298 81.4792 118.298ZM89.5536 125.13L89.5956 126.306C89.5956 126.465 89.6142 126.577 89.6516 126.642C89.6982 126.698 89.7776 126.726 89.8896 126.726C89.9922 126.726 90.1182 126.707 90.2676 126.67L90.3936 126.782L90.2396 127.762C89.9222 127.958 89.5769 128.075 89.2036 128.112C88.9142 128.084 88.6716 127.986 88.4756 127.818C88.2796 127.65 88.1442 127.421 88.0696 127.132H87.9576C87.5002 127.552 87.0336 127.874 86.5576 128.098C85.6429 128.098 84.9336 127.809 84.4296 127.23C83.9256 126.642 83.6736 125.83 83.6736 124.794C83.6736 123.693 83.9629 122.848 84.5416 122.26C85.1202 121.672 85.9229 121.378 86.9496 121.378C87.2202 121.378 87.5189 121.406 87.8456 121.462L87.8176 118.312L89.6656 118.172L89.5536 125.13ZM86.8236 122.638C85.8902 122.638 85.4236 123.231 85.4236 124.416C85.4236 125.153 85.5356 125.709 85.7596 126.082C85.9836 126.455 86.3102 126.642 86.7396 126.642C87.1502 126.642 87.5282 126.451 87.8736 126.068L87.9016 125.298L87.8596 122.89C87.4956 122.722 87.1502 122.638 86.8236 122.638ZM94.0527 121.364C94.7714 121.364 95.3314 121.527 95.7327 121.854C96.1434 122.171 96.3487 122.619 96.3487 123.198C96.3487 123.366 96.3207 123.898 96.2647 124.794C96.2554 125.055 96.2414 125.326 96.2227 125.606C96.2041 125.877 96.1947 126.11 96.1947 126.306C96.1947 126.465 96.2181 126.577 96.2647 126.642C96.3114 126.698 96.3954 126.726 96.5167 126.726C96.6101 126.726 96.7314 126.707 96.8807 126.67L97.0207 126.782L96.8527 127.762C96.5541 127.958 96.2134 128.075 95.8307 128.112C95.5507 128.084 95.3174 127.986 95.1307 127.818C94.9441 127.641 94.8181 127.398 94.7527 127.09H94.6547C94.1881 127.585 93.7074 127.93 93.2127 128.126C92.5407 128.117 92.0134 127.939 91.6307 127.594C91.2481 127.249 91.0567 126.777 91.0567 126.18C91.0567 125.713 91.1734 125.349 91.4067 125.088C91.6494 124.817 92.0134 124.635 92.4987 124.542L94.6407 124.136V123.562C94.6407 122.955 94.3421 122.652 93.7447 122.652C93.4554 122.652 93.1474 122.717 92.8207 122.848C92.5034 122.979 92.1441 123.184 91.7427 123.464L91.6027 123.38L91.3927 122.148C91.7941 121.896 92.2234 121.705 92.6807 121.574C93.1381 121.434 93.5954 121.364 94.0527 121.364ZM93.1427 125.396C92.9934 125.433 92.8814 125.499 92.8067 125.592C92.7414 125.676 92.7087 125.807 92.7087 125.984C92.7087 126.227 92.7741 126.418 92.9047 126.558C93.0354 126.689 93.2174 126.754 93.4507 126.754C93.8147 126.754 94.1974 126.539 94.5987 126.11L94.6267 125.074L93.1427 125.396ZM105.39 124.976L101.61 125.004C101.694 126.171 102.287 126.754 103.388 126.754C103.967 126.754 104.611 126.591 105.32 126.264L105.474 126.362L105.194 127.748C104.485 128.009 103.817 128.14 103.192 128.14C102.165 128.14 101.358 127.841 100.77 127.244C100.191 126.647 99.9021 125.821 99.9021 124.766C99.9021 123.721 100.187 122.895 100.756 122.288C101.325 121.672 102.095 121.364 103.066 121.364C103.897 121.364 104.536 121.593 104.984 122.05C105.441 122.498 105.67 123.128 105.67 123.94C105.67 124.155 105.647 124.425 105.6 124.752L105.39 124.976ZM104.046 123.73C104.046 123.357 103.962 123.077 103.794 122.89C103.626 122.694 103.379 122.596 103.052 122.596C102.688 122.596 102.385 122.717 102.142 122.96C101.899 123.193 101.736 123.534 101.652 123.982L104.018 123.926L104.046 123.73ZM111.635 121.364C112.353 121.364 112.913 121.527 113.315 121.854C113.725 122.171 113.931 122.619 113.931 123.198C113.931 123.366 113.903 123.898 113.847 124.794C113.837 125.055 113.823 125.326 113.805 125.606C113.786 125.877 113.777 126.11 113.777 126.306C113.777 126.465 113.8 126.577 113.847 126.642C113.893 126.698 113.977 126.726 114.099 126.726C114.192 126.726 114.313 126.707 114.463 126.67L114.603 126.782L114.435 127.762C114.136 127.958 113.795 128.075 113.413 128.112C113.133 128.084 112.899 127.986 112.713 127.818C112.526 127.641 112.4 127.398 112.335 127.09H112.237C111.77 127.585 111.289 127.93 110.795 128.126C110.123 128.117 109.595 127.939 109.213 127.594C108.83 127.249 108.639 126.777 108.639 126.18C108.639 125.713 108.755 125.349 108.989 125.088C109.231 124.817 109.595 124.635 110.081 124.542L112.223 124.136V123.562C112.223 122.955 111.924 122.652 111.327 122.652C111.037 122.652 110.729 122.717 110.403 122.848C110.085 122.979 109.726 123.184 109.325 123.464L109.185 123.38L108.975 122.148C109.376 121.896 109.805 121.705 110.263 121.574C110.72 121.434 111.177 121.364 111.635 121.364ZM110.725 125.396C110.575 125.433 110.463 125.499 110.389 125.592C110.323 125.676 110.291 125.807 110.291 125.984C110.291 126.227 110.356 126.418 110.487 126.558C110.617 126.689 110.799 126.754 111.033 126.754C111.397 126.754 111.779 126.539 112.181 126.11L112.209 125.074L110.725 125.396ZM118.487 121.364C118.795 121.364 119.098 121.397 119.397 121.462C119.705 121.518 119.976 121.602 120.209 121.714L119.901 123.198L119.747 123.268C119.271 123.007 118.846 122.876 118.473 122.876C118.044 122.876 117.712 123.03 117.479 123.338C117.246 123.646 117.129 124.085 117.129 124.654C117.129 125.307 117.255 125.807 117.507 126.152C117.759 126.497 118.118 126.67 118.585 126.67C119.005 126.67 119.472 126.553 119.985 126.32L120.125 126.432L119.943 127.874C119.383 128.051 118.809 128.14 118.221 128.14C117.325 128.14 116.625 127.851 116.121 127.272C115.617 126.684 115.365 125.867 115.365 124.822C115.365 123.739 115.64 122.895 116.191 122.288C116.742 121.672 117.507 121.364 118.487 121.364ZM118.473 128.672L118.949 128.938C119.154 129.05 119.299 129.171 119.383 129.302C119.476 129.442 119.523 129.596 119.523 129.764C119.523 130.072 119.402 130.324 119.159 130.52C118.916 130.716 118.599 130.814 118.207 130.814C117.787 130.814 117.404 130.683 117.059 130.422L117.185 129.638L117.269 129.596C117.549 129.876 117.824 130.016 118.095 130.016C118.319 130.016 118.431 129.918 118.431 129.722C118.431 129.657 118.412 129.601 118.375 129.554C118.338 129.517 118.277 129.479 118.193 129.442L117.507 129.05L117.829 127.636H118.725L118.473 128.672ZM123.625 121.364C124.344 121.364 124.904 121.527 125.305 121.854C125.716 122.171 125.921 122.619 125.921 123.198C125.921 123.366 125.893 123.898 125.837 124.794C125.828 125.055 125.814 125.326 125.795 125.606C125.776 125.877 125.767 126.11 125.767 126.306C125.767 126.465 125.79 126.577 125.837 126.642C125.884 126.698 125.968 126.726 126.089 126.726C126.182 126.726 126.304 126.707 126.453 126.67L126.593 126.782L126.425 127.762C126.126 127.958 125.786 128.075 125.403 128.112C125.123 128.084 124.89 127.986 124.703 127.818C124.516 127.641 124.39 127.398 124.325 127.09H124.227C123.76 127.585 123.28 127.93 122.785 128.126C122.113 128.117 121.586 127.939 121.203 127.594C120.82 127.249 120.629 126.777 120.629 126.18C120.629 125.713 120.746 125.349 120.979 125.088C121.222 124.817 121.586 124.635 122.071 124.542L124.213 124.136V123.562C124.213 122.955 123.914 122.652 123.317 122.652C123.028 122.652 122.72 122.717 122.393 122.848C122.076 122.979 121.716 123.184 121.315 123.464L121.175 123.38L120.965 122.148C121.366 121.896 121.796 121.705 122.253 121.574C122.71 121.434 123.168 121.364 123.625 121.364ZM122.715 125.396C122.566 125.433 122.454 125.499 122.379 125.592C122.314 125.676 122.281 125.807 122.281 125.984C122.281 126.227 122.346 126.418 122.477 126.558C122.608 126.689 122.79 126.754 123.023 126.754C123.387 126.754 123.77 126.539 124.171 126.11L124.199 125.074L122.715 125.396ZM125.921 118.732V118.886L124.941 120.132L124.759 120.202C124.507 120.174 124.12 120.085 123.597 119.936C123.55 119.927 123.396 119.889 123.135 119.824C122.883 119.749 122.706 119.712 122.603 119.712C122.5 119.712 122.398 119.754 122.295 119.838C122.202 119.922 122.099 120.025 121.987 120.146C121.875 120.267 121.791 120.361 121.735 120.426H121.567L121.007 119.88V119.726L122.001 118.48L122.169 118.41C122.393 118.438 122.79 118.531 123.359 118.69C123.882 118.83 124.204 118.9 124.325 118.9C124.437 118.9 124.544 118.853 124.647 118.76C124.759 118.667 124.871 118.559 124.983 118.438C125.095 118.317 125.17 118.233 125.207 118.186H125.375L125.921 118.732ZM130.505 121.364C131.457 121.364 132.185 121.644 132.689 122.204C133.193 122.764 133.445 123.571 133.445 124.626C133.445 125.765 133.175 126.637 132.633 127.244C132.092 127.841 131.313 128.14 130.295 128.14C129.343 128.14 128.615 127.86 128.111 127.3C127.607 126.74 127.355 125.933 127.355 124.878C127.355 123.739 127.626 122.871 128.167 122.274C128.709 121.667 129.488 121.364 130.505 121.364ZM130.379 122.624C129.931 122.624 129.605 122.773 129.399 123.072C129.203 123.371 129.105 123.851 129.105 124.514C129.105 125.373 129.208 125.984 129.413 126.348C129.619 126.712 129.955 126.894 130.421 126.894C130.869 126.894 131.191 126.749 131.387 126.46C131.593 126.161 131.695 125.676 131.695 125.004C131.695 124.155 131.588 123.548 131.373 123.184C131.168 122.811 130.837 122.624 130.379 122.624ZM69.9933 141.13L70.0913 144H68.2293L68.3273 141.298L68.2433 134.312L70.1053 134.172L69.9933 141.13ZM76.8911 140.976L73.1111 141.004C73.1951 142.171 73.7877 142.754 74.8891 142.754C75.4677 142.754 76.1117 142.591 76.8211 142.264L76.9751 142.362L76.6951 143.748C75.9857 144.009 75.3184 144.14 74.6931 144.14C73.6664 144.14 72.8591 143.841 72.2711 143.244C71.6924 142.647 71.4031 141.821 71.4031 140.766C71.4031 139.721 71.6877 138.895 72.2571 138.288C72.8264 137.672 73.5964 137.364 74.5671 137.364C75.3977 137.364 76.0371 137.593 76.4851 138.05C76.9424 138.498 77.1711 139.128 77.1711 139.94C77.1711 140.155 77.1477 140.425 77.1011 140.752L76.8911 140.976ZM75.5471 139.73C75.5471 139.357 75.4631 139.077 75.2951 138.89C75.1271 138.694 74.8797 138.596 74.5531 138.596C74.1891 138.596 73.8857 138.717 73.6431 138.96C73.4004 139.193 73.2371 139.534 73.1531 139.982L75.5191 139.926L75.5471 139.73ZM82.4586 139.94C82.4679 139.613 82.3933 139.361 82.2346 139.184C82.0853 138.997 81.8659 138.904 81.5766 138.904C81.1566 138.904 80.7086 139.105 80.2326 139.506V141.13L80.3166 144H78.4546L78.5526 141.312L78.4826 137.616L80.2466 137.462V138.414H80.3446C80.8579 137.947 81.4179 137.611 82.0246 137.406C82.7339 137.406 83.2753 137.569 83.6486 137.896C84.0219 138.213 84.1993 138.675 84.1806 139.282L84.1386 141.144L84.2226 144H82.3466L82.4586 139.94ZM88.4967 142.628C88.7954 142.628 89.1081 142.549 89.4347 142.39L89.5887 142.53L89.4067 143.636C88.9307 143.879 88.4454 144.028 87.9507 144.084C86.6907 143.953 86.0607 143.337 86.0607 142.236L86.1307 141.074L86.1167 138.666H85.2487L85.1787 138.568L85.2767 137.546H86.1027V136.468L87.7967 135.922L87.9227 136.034L87.8807 137.546H89.5467L89.6027 137.644L89.5187 138.666H87.8527L87.7687 141.802C87.7687 142.101 87.8247 142.315 87.9367 142.446C88.0487 142.567 88.2354 142.628 88.4967 142.628ZM93.1572 137.364C93.8759 137.364 94.4359 137.527 94.8372 137.854C95.2479 138.171 95.4532 138.619 95.4532 139.198C95.4532 139.366 95.4252 139.898 95.3692 140.794C95.3599 141.055 95.3459 141.326 95.3272 141.606C95.3085 141.877 95.2992 142.11 95.2992 142.306C95.2992 142.465 95.3225 142.577 95.3692 142.642C95.4159 142.698 95.4999 142.726 95.6212 142.726C95.7145 142.726 95.8359 142.707 95.9852 142.67L96.1252 142.782L95.9572 143.762C95.6585 143.958 95.3179 144.075 94.9352 144.112C94.6552 144.084 94.4219 143.986 94.2352 143.818C94.0485 143.641 93.9225 143.398 93.8572 143.09H93.7592C93.2925 143.585 92.8119 143.93 92.3172 144.126C91.6452 144.117 91.1179 143.939 90.7352 143.594C90.3525 143.249 90.1612 142.777 90.1612 142.18C90.1612 141.713 90.2779 141.349 90.5112 141.088C90.7539 140.817 91.1179 140.635 91.6032 140.542L93.7452 140.136V139.562C93.7452 138.955 93.4465 138.652 92.8492 138.652C92.5599 138.652 92.2519 138.717 91.9252 138.848C91.6079 138.979 91.2485 139.184 90.8472 139.464L90.7072 139.38L90.4972 138.148C90.8985 137.896 91.3279 137.705 91.7852 137.574C92.2425 137.434 92.6999 137.364 93.1572 137.364ZM92.2472 141.396C92.0979 141.433 91.9859 141.499 91.9112 141.592C91.8459 141.676 91.8132 141.807 91.8132 141.984C91.8132 142.227 91.8785 142.418 92.0092 142.558C92.1399 142.689 92.3219 142.754 92.5552 142.754C92.9192 142.754 93.3019 142.539 93.7032 142.11L93.7312 141.074L92.2472 141.396ZM98.1194 142.11C98.4088 142.11 98.6328 142.194 98.7914 142.362C98.9594 142.53 99.0434 142.763 99.0434 143.062C99.0434 143.379 98.9548 143.631 98.7774 143.818C98.6001 144.005 98.3574 144.098 98.0494 144.098C97.7414 144.098 97.5034 144.014 97.3354 143.846C97.1768 143.678 97.0974 143.44 97.0974 143.132C97.0974 142.824 97.1861 142.577 97.3634 142.39C97.5501 142.203 97.8021 142.11 98.1194 142.11Z" fill="white"/>
<defs>
<filter id="filter0_b_206:37173" x="3" y="67" width="161" height="97" filterUnits="userSpaceOnUse" color-interpolation-filters="sRGB">
<feFlood flood-opacity="0" result="BackgroundImageFix"/>
<feGaussianBlur in="BackgroundImage" stdDeviation="5"/>
<feComposite in2="SourceAlpha" operator="in" result="effect1_backgroundBlur_206:37173"/>
<feBlend mode="normal" in="SourceGraphic" in2="effect1_backgroundBlur_206:37173" result="shape"/>
</filter>
<linearGradient id="paint0_linear_206:37173" x1="74.1652" y1="44.9839" x2="64.7436" y2="39.136" gradientUnits="userSpaceOnUse">
<stop offset="0.484375" stop-color="#676FC0"/>
<stop offset="0.510417" stop-color="#848CDE"/>
</linearGradient>
</defs>
</svg>
