<svg width="167" height="167" viewBox="0 0 167 167" fill="none" xmlns="http://www.w3.org/2000/svg">
<mask id="mask0_206:37093" style="mask-type:alpha" maskUnits="userSpaceOnUse" x="0" y="0" width="167" height="167">
<rect x="1" y="1" width="165" height="165" rx="8" fill="#5988D6" stroke="#EDE6FC" stroke-opacity="0.3"/>
</mask>
<g mask="url(#mask0_206:37093)">
<rect x="1" y="1" width="165" height="165" rx="8" fill="#CEE2F2" stroke="#EDE6FC" stroke-opacity="0.3"/>
<path d="M86.4289 4.3956C87.3553 4.99439 88.0783 5.86007 88.5025 6.87833C89.1358 8.47557 88.9453 10.4539 90.1166 11.7093C90.7947 12.4322 91.7979 12.7461 92.7114 13.116C93.8019 13.5634 94.841 14.127 95.8106 14.7973C96.6747 15.3385 97.391 16.0857 97.8954 16.9718C98.3888 18.1434 98.4871 19.4438 98.1756 20.6762C97.9346 21.9148 97.5087 23.1141 97.3294 24.3583C97.3829 23.9218 97.3246 23.4788 97.1599 23.0709C96.9952 22.6631 96.7295 22.3039 96.3879 22.0269C95.6951 21.4832 94.8755 21.1245 94.006 20.9845C94.1349 21.9484 94.8691 22.7162 95.2221 23.6297C95.5843 24.7342 95.5183 25.9343 95.0372 26.9924C94.5522 28.0444 93.9365 29.0311 93.2046 29.929C93.3839 29.688 92.8571 28.3822 92.7618 28.1076C92.0963 26.1854 90.885 24.4988 89.2759 23.2542C88.2447 22.4304 87.4265 21.2535 86.4738 20.3176C85.3081 19.1668 84.0956 18.0665 82.8365 17.0166C81.3701 15.8809 79.9791 14.651 78.6725 13.3345C77.1425 11.6532 75.6349 9.25457 76.1617 6.88953C76.6885 4.5245 78.8406 3.35879 81.0431 3.19626C82.5282 3.05295 84.0258 3.2702 85.4089 3.82956C85.7659 3.98578 86.1074 4.1753 86.4289 4.3956Z" fill="#55505C"/>
<path d="M85.4369 127.663C84.316 128.88 83.1951 130.096 81.9566 131.2C81.4354 131.665 80.8917 132.113 80.3985 132.606C80.197 132.869 79.9678 133.11 79.7148 133.324C79.6196 133.374 78.9975 133.402 79.0647 133.195C78.6612 134.467 78.3418 136.496 79.6812 137.359C80.3672 137.734 81.1418 137.916 81.9229 137.886C83.1238 137.914 84.3224 137.768 85.4817 137.454C86.4577 137.212 87.3772 136.782 88.1886 136.188C88.8027 135.731 89.3048 135.141 89.657 134.461C89.9563 133.74 90.3441 133.059 90.8115 132.433C91.4317 131.855 92.1096 131.342 92.8346 130.903C93.7376 130.191 94.3787 129.199 94.6577 128.083C94.9366 126.968 94.8374 125.791 94.3758 124.738C94.3156 124.979 94.2272 125.212 94.1124 125.433C94.0676 125.511 93.7481 125.612 93.6585 125.663C93.4787 125.757 93.2912 125.836 93.098 125.898C92.712 126.031 92.307 126.101 91.8987 126.105C91.0997 126.12 90.316 125.885 89.657 125.433C89.3496 125.166 89.0038 124.947 88.6313 124.783C87.8299 124.542 87.6394 125.181 87.2695 125.668C86.7259 126.386 86.0365 127.008 85.4369 127.663Z" fill="#F6BABA"/>
<path d="M85.4369 126.33C84.3368 127.566 83.1753 128.746 81.9566 129.866C80.8637 130.841 79.6476 131.771 79.0479 133.105C78.5828 134.142 78.6556 135.347 79.6812 136.025C80.3672 136.4 81.1418 136.582 81.9229 136.552C83.1234 136.579 84.3216 136.436 85.4817 136.126C86.456 135.879 87.3746 135.449 88.1886 134.859C88.8027 134.403 89.3048 133.813 89.657 133.133C89.9562 132.41 90.344 131.727 90.8114 131.099C91.4331 130.523 92.1109 130.01 92.8346 129.569C93.6793 128.938 94.2951 128.048 94.5888 127.036C94.7291 126.531 94.7631 126.002 94.6888 125.483C94.6146 124.964 94.4336 124.466 94.1572 124.021C93.5054 124.501 92.7208 124.769 91.911 124.786C91.1012 124.803 90.306 124.569 89.6345 124.116C89.3284 123.849 88.9824 123.631 88.6089 123.471C87.8075 123.23 87.617 123.869 87.2471 124.351C86.6775 125.041 86.0734 125.701 85.4369 126.33Z" fill="#F7F6F4"/>
<path d="M86.597 127.495C86.3013 127.29 85.9577 127.165 85.5994 127.131C85.5418 127.123 85.4829 127.129 85.4287 127.151C85.3746 127.173 85.3271 127.208 85.2912 127.254C85.2705 127.304 85.2664 127.36 85.2795 127.412C85.2926 127.464 85.3223 127.511 85.3641 127.546C85.4483 127.612 85.5458 127.66 85.6499 127.686C86.2955 127.91 86.9125 128.209 87.4881 128.577C87.9018 128.927 88.3339 129.254 88.7827 129.558C88.6266 129.238 88.4096 128.953 88.1438 128.717C87.6904 128.237 87.1693 127.825 86.597 127.495Z" fill="#546282"/>
<path d="M85.3641 128.627C85.0667 128.426 84.724 128.3 84.3665 128.263C84.3089 128.255 84.2502 128.262 84.1961 128.284C84.1421 128.306 84.0946 128.341 84.0583 128.386C84.0376 128.436 84.0335 128.492 84.0466 128.544C84.0597 128.597 84.0893 128.643 84.1311 128.678C84.2134 128.744 84.309 128.792 84.4113 128.818C85.0583 129.043 85.677 129.342 86.2552 129.709C86.668 130.057 87.0982 130.385 87.5442 130.69C87.3921 130.37 87.1766 130.084 86.9109 129.849C86.4575 129.369 85.9364 128.957 85.3641 128.627Z" fill="#546282"/>
<path d="M84.1255 129.759C83.8302 129.558 83.4893 129.432 83.1335 129.395C83.0745 129.387 83.0143 129.394 82.9592 129.417C82.904 129.44 82.8559 129.477 82.8197 129.524C82.7994 129.573 82.7955 129.628 82.8087 129.679C82.8218 129.731 82.8512 129.776 82.8925 129.81C82.9768 129.876 83.0742 129.924 83.1784 129.95C83.8246 130.175 84.4417 130.476 85.0166 130.847C85.4299 131.195 85.8621 131.521 86.3112 131.822C86.1589 131.5 85.9413 131.214 85.6723 130.981C85.2174 130.502 84.6965 130.091 84.1255 129.759Z" fill="#546282"/>
<path d="M77.9495 122.367C77.126 122.862 76.2525 123.268 75.3435 123.578C74.461 123.796 73.6015 124.098 72.7767 124.48C71.9763 124.922 71.2984 125.555 70.8039 126.324C70.6996 126.492 70.606 126.666 70.5237 126.845C70.4901 126.924 70.4284 127.209 70.3164 127.086L70.1987 126.957C69.9521 128.207 69.6382 130.763 71.3195 131.256C71.9996 131.415 72.7075 131.415 73.3875 131.256C74.622 131.022 75.7782 130.483 76.7502 129.687C77.5572 129.02 78.2297 128.179 79.1264 127.63C79.9961 127.154 80.946 126.842 81.9286 126.711C82.9143 126.581 83.8836 126.348 84.8204 126.016C85.9413 125.551 87.292 124.407 87.3144 123.085C87.3045 122.794 87.2517 122.507 87.1574 122.233L86.9221 121.471C86.7309 121.11 86.4809 120.784 86.1823 120.507C85.8271 120.091 85.416 119.727 84.9605 119.425C84.5916 119.851 84.1238 120.18 83.5981 120.383C83.0724 120.586 82.505 120.658 81.9454 120.591C81.6691 120.557 81.398 120.489 81.1384 120.389C80.8693 120.226 80.5732 120.112 80.2641 120.053C79.7485 120.053 79.7037 120.529 79.5523 120.899C79.174 121.535 78.6165 122.046 77.9495 122.367Z" fill="#E89291"/>
<path d="M77.9495 121.218C77.126 121.713 76.2525 122.119 75.3434 122.429C74.461 122.647 73.6015 122.949 72.7766 123.331C71.9763 123.773 71.2983 124.406 70.8039 125.175C70.348 125.922 70.0878 126.772 70.0473 127.647C70.0137 128.594 70.2771 129.804 71.3083 130.107C71.9881 130.269 72.6966 130.269 73.3763 130.107C74.6104 129.869 75.766 129.328 76.7389 128.532C77.5459 127.865 78.2185 127.024 79.1152 126.475C79.9859 126.002 80.9354 125.69 81.9173 125.556C82.9036 125.43 83.8732 125.197 84.8092 124.861C85.2768 124.691 85.7061 124.43 86.0725 124.093C86.439 123.757 86.7353 123.351 86.9445 122.9C87.0998 122.472 87.1645 122.016 87.1346 121.562C87.1047 121.107 86.9808 120.664 86.7707 120.26C86.3451 119.451 85.7177 118.766 84.9493 118.27C84.5803 118.696 84.1125 119.026 83.5869 119.229C83.0612 119.432 82.4937 119.503 81.9342 119.436C81.6568 119.408 81.385 119.34 81.1271 119.234C80.8566 119.074 80.5611 118.96 80.2529 118.898C79.7373 118.898 79.6924 119.375 79.5411 119.75C79.1645 120.384 78.6114 120.894 77.9495 121.218Z" fill="#F7F6F4"/>
<path d="M76.795 124.234C77.1121 124.402 77.3804 124.649 77.574 124.951C77.61 124.997 77.6323 125.053 77.6382 125.111C77.6442 125.17 77.6336 125.229 77.6077 125.282C77.5741 125.323 77.5279 125.352 77.4762 125.364C77.4245 125.376 77.3702 125.371 77.3218 125.349C77.2238 125.306 77.1359 125.243 77.064 125.164C76.5678 124.692 76.0165 124.282 75.422 123.942C74.9736 123.679 74.3683 123.544 73.9592 123.242C74.3151 123.232 74.6694 123.293 75.0016 123.421C75.6352 123.605 76.2392 123.878 76.795 124.234Z" fill="#3F4961"/>
<path d="M78.2353 123.499C78.554 123.667 78.8242 123.914 79.0199 124.217C79.0495 124.267 79.0651 124.324 79.0651 124.382C79.0651 124.44 79.0495 124.497 79.0199 124.547C78.9858 124.588 78.9395 124.616 78.8881 124.628C78.8366 124.64 78.7826 124.636 78.7341 124.615C78.636 124.572 78.5482 124.509 78.4763 124.43C77.9821 123.958 77.4326 123.548 76.8398 123.208C76.3592 122.999 75.8897 122.765 75.4331 122.507C75.7872 122.498 76.1397 122.559 76.4699 122.687C77.0938 122.873 77.6881 123.147 78.2353 123.499Z" fill="#3F4961"/>
<path d="M79.9166 122.883C80.2328 123.055 80.5007 123.303 80.6956 123.606C80.7322 123.652 80.7548 123.708 80.7608 123.766C80.7668 123.825 80.7558 123.884 80.7293 123.936C80.6941 123.975 80.6479 124.003 80.5968 124.015C80.5458 124.027 80.4922 124.023 80.4434 124.004C80.3446 123.962 80.2564 123.899 80.1856 123.819C79.6881 123.347 79.137 122.935 78.5435 122.591C78.044 122.386 77.5557 122.154 77.0808 121.896C77.4369 121.884 77.7917 121.945 78.1232 122.076C78.7557 122.26 79.3593 122.532 79.9166 122.883Z" fill="#3F4961"/>
<path d="M86.0814 96.7498C87.0061 92.5241 85.9244 88.0742 85.0165 83.8037C84.0526 79.1465 83.2792 74.422 82.7187 69.7087C82.5874 67.7765 82.2107 65.8688 81.5979 64.0315C81.0247 62.66 80.1195 61.4525 78.9638 60.5176C78.3971 60.0299 77.7101 59.7029 76.9743 59.5705C76.0271 59.4135 75.7077 59.01 75.3883 57.99C73.7388 61.9357 72.8453 66.1561 72.7542 70.4317C72.6427 73.8359 72.8095 77.2434 73.253 80.6204C74.0544 87.0598 75.887 93.3255 76.879 99.7257C77.5571 104.091 78.7284 117.335 78.6612 119.526C78.6612 120.204 78.3922 120.697 79.0591 121.112C79.754 121.463 80.5221 121.646 81.3008 121.644C82.2431 121.74 83.194 121.588 84.0591 121.202C84.9243 120.817 85.6736 120.212 86.2327 119.447C86.34 119.312 86.4217 119.158 86.4737 118.993C86.511 118.841 86.5261 118.685 86.5185 118.528C86.5185 114.325 86.4905 110.122 86.4905 105.89C86.4513 103.004 86.8492 99.6416 86.0814 96.7498Z" fill="#E89291"/>
<path d="M94.8803 94.5416C95.0435 92.7449 95.3776 90.9677 95.8778 89.2343C97.3889 83.9249 98.1435 78.429 98.1196 72.9088C98.068 70.1775 97.728 67.4592 97.1052 64.7993C96.7846 63.4479 96.3822 62.1172 95.9003 60.8146C95.5584 59.8787 95.3678 58.7915 94.1573 58.6962C93.5018 58.6866 92.8628 58.9022 92.3471 59.3071C91.8147 59.6882 91.3607 60.1589 90.8507 60.568C89.7246 61.482 88.3662 62.0642 86.9277 62.2493C85.6829 62.4504 84.4063 62.2543 83.2793 61.6889C82.3657 61.3134 81.3682 61.1957 80.5499 60.6577C80.2361 60.4504 78.6332 59.0997 78.9919 58.5953C76.7502 61.7337 76.6045 65.9538 77.6188 69.6583C77.8483 70.6078 78.2367 71.5117 78.7678 72.3316C79.9951 74.097 81.0655 75.1898 81.385 77.4091C82.1808 82.9126 82.6347 88.4833 83.9406 93.9027C84.501 96.2902 85.2296 98.5936 85.9413 100.931C86.6153 103.422 87.0488 105.973 87.2359 108.547C87.7395 112.765 87.7075 117.03 87.1407 121.241C86.9669 122.401 86.7652 123.561 86.5802 124.715C86.5388 124.899 86.5293 125.089 86.5522 125.276C86.5863 125.421 86.6492 125.559 86.7371 125.679C87.14 126.213 87.701 126.605 88.34 126.8C89.4827 127.206 90.7247 127.24 91.8875 126.896C93.0451 126.538 94.0382 125.782 94.6897 124.76C94.8427 124.408 94.9026 124.022 94.8635 123.639C94.8915 123.225 95.4239 117.049 95.5808 115.95C95.8498 113.765 96.1413 111.573 96.2982 109.371C96.2982 109.304 96.2982 109.242 96.2982 109.175C96.5089 106.625 96.3846 104.059 95.9283 101.541C95.62 99.9835 94.8915 98.319 94.8074 96.7329C94.7897 96.0017 94.8141 95.2701 94.8803 94.5416Z" fill="#F6BABA"/>
<path d="M79.5299 29.2061C79.2721 28.6456 78.7621 27.9675 78.1176 27.9955C77.786 28.0295 77.4669 28.1403 77.1857 28.3194C76.9045 28.4984 76.669 28.7406 76.4979 29.0267C76.1532 29.6369 75.9252 30.3058 75.8254 30.9995C75.265 33.6839 74.8615 36.4861 73.3483 38.8456C72.715 39.8263 71.8687 40.7398 71.4092 41.8159C71.0202 42.812 70.6834 43.8278 70.4004 44.859C69.4566 47.9517 68.2355 50.9529 66.752 53.826C66.4886 53.9661 66.2308 54.1342 65.9786 54.2856C65.2395 54.7097 64.5399 55.1992 63.8881 55.7483C63.7223 55.8802 63.5802 56.0394 63.4678 56.2191C63.3652 56.4253 63.3061 56.6504 63.2941 56.8804C63.2548 57.4008 63.306 57.9242 63.4454 58.4272C63.5248 58.6533 63.5848 58.8858 63.6247 59.1221C63.6247 59.3351 63.6247 59.548 63.6247 59.761C63.6557 60.0552 63.7793 60.3319 63.9778 60.5512C64.0574 60.6253 64.1238 60.7125 64.174 60.809C64.2075 60.9177 64.2189 61.0321 64.2076 61.1453C64.1888 61.4849 64.2989 61.8192 64.5158 62.0812C64.6284 62.2071 64.7765 62.296 64.9406 62.336C65.1047 62.376 65.277 62.3654 65.4349 62.3054C65.5064 62.2598 65.5837 62.224 65.6647 62.1989C65.7334 62.1879 65.8034 62.1879 65.8721 62.1989C66.3381 62.245 66.8071 62.1472 67.2159 61.9188C67.6247 61.6904 67.9537 61.3422 68.1587 60.9211C68.2539 60.7081 68.3212 60.4784 68.4221 60.2654C68.6417 59.8894 68.901 59.5381 69.1955 59.2174C69.6618 58.6385 70.0188 57.9795 70.2491 57.2727C70.3458 56.9648 70.3876 56.6423 70.3724 56.3199C70.5931 56.072 70.7814 55.7971 70.9328 55.5017C72.5799 52.4978 74.4534 49.6238 76.5372 46.9046C76.5978 47.0017 76.6866 47.0779 76.7918 47.123C76.897 47.1681 77.0135 47.1799 77.1256 47.1568C77.2875 47.0922 77.4234 46.976 77.5123 46.8262C78.2932 45.6546 78.7672 44.3056 78.891 42.9031C79.0647 41.5132 79.0479 40.1009 79.1768 38.7111C79.3898 36.3068 80.0119 33.9361 79.967 31.5263C79.9968 30.7299 79.8474 29.937 79.5299 29.2061Z" fill="#FFBF99"/>
<path d="M75.6461 48.5467C76.1063 50.1475 76.2528 51.8221 76.0776 53.4785C75.8703 54.846 75.237 56.1238 74.9568 57.48C74.8222 58.1335 74.7435 58.7972 74.7214 59.464C74.6822 60.1869 74.6934 60.9043 74.6934 61.6273C74.6729 61.9145 74.713 62.2028 74.8111 62.4735C74.9506 62.7268 75.1415 62.9483 75.3715 63.1236C76.2845 64.0113 77.305 64.7813 78.409 65.4158C79.8204 66.1039 81.3533 66.5076 82.9205 66.6039C86.4683 66.9831 90.0454 66.2339 93.1429 64.4631C94.0642 63.905 94.9212 63.2472 95.6985 62.5015C95.8899 62.3436 96.053 62.1541 96.1804 61.9411C96.584 61.1117 96.0067 59.8451 95.8218 59.01C95.6368 58.175 95.4239 57.3287 95.2613 56.5217C94.8298 53.8596 95.4575 51.3153 95.7545 48.6756C95.8778 47.5884 95.7545 47.0279 94.6617 46.7477C93.2998 46.3946 91.8931 46.1873 90.5201 45.8342C88.8842 45.4814 87.3169 44.8643 85.8797 44.0072C84.4898 43.0993 83.3913 41.8215 82.1527 40.7174C80.9142 39.6134 79.4178 38.6438 77.7589 38.5878C76.1 38.5317 74.032 39.7703 74.3963 41.5861C74.8335 43.6709 75.0128 45.8006 75.4892 47.8798L75.6461 48.5467Z" fill="#FFBF99"/>
<path d="M75.3827 55.6923C74.8223 56.701 73.9424 57.5585 73.6454 58.6794C73.5132 59.3287 73.5406 60.0004 73.7251 60.6368C73.9096 61.2732 74.2457 61.8554 74.7046 62.3334C75.2216 62.908 75.8485 63.373 76.5484 63.7009C77.3788 64.09 78.288 64.2819 79.2049 64.2613C79.8326 64.2613 80.8245 64.3118 81.144 63.6336C81.6596 62.552 80.3033 62.1933 79.67 61.6665C78.8555 60.9871 78.1839 60.1528 77.6943 59.2119C77.2046 58.2711 76.9066 57.2424 76.8174 56.1854C76.7894 55.7819 76.9688 53.0526 76.47 53.0414C76.1225 53.0414 76.0384 53.9213 75.988 54.1286C75.8615 54.6759 75.6577 55.2024 75.3827 55.6923Z" fill="#FFBF99"/>
<path d="M99.1228 32.5687C99.1389 32.4386 99.1809 32.313 99.2464 32.1994C99.3118 32.0858 99.3994 31.9865 99.5039 31.9074C99.7393 31.7448 100.115 31.8625 100.305 31.6888C100.496 31.5151 100.367 31.3525 100.305 31.19C98.9491 28.5728 96.0404 26.785 93.6529 25.2214C91.2655 23.6578 89.0237 22.2455 86.6979 20.7715C86.5082 20.6298 86.2835 20.5426 86.0478 20.5193C85.8189 20.5412 85.6001 20.6244 85.4145 20.7603C84.5234 21.3207 83.4698 21.7803 82.7469 22.5481C81.7073 23.6593 80.5033 24.6044 79.1769 25.3503C78.1737 25.9107 77.5628 26.3647 77.4956 27.5416C77.4424 28.817 77.2849 30.086 77.0248 31.3357C76.3907 33.8621 75.522 36.3238 74.43 38.6886C73.9873 39.6119 73.6435 40.5793 73.4044 41.5749C73.0716 43.0008 73.2501 44.4984 73.9088 45.8062C74.168 46.503 74.6509 47.0942 75.2819 47.4875C76.1216 47.8386 77.0583 47.8823 77.9271 47.6108C78.8258 47.4234 79.7609 47.5295 80.5948 47.9134C81.3339 48.2825 82.054 48.6884 82.7525 49.1295C84.8519 50.3181 87.2068 50.9833 89.6178 51.0687C91.6024 51.1799 93.579 50.7396 95.3286 49.7965C96.2982 49.236 96.9315 48.4122 96.8082 47.2577C96.7352 46.4997 96.7071 45.738 96.7241 44.9767C96.7257 42.898 96.9132 40.8236 97.2846 38.7783C97.5204 37.386 97.8959 36.021 98.4054 34.7039C98.7207 34.1341 98.9546 33.5229 99.1004 32.8881C99.0989 32.7812 99.1064 32.6744 99.1228 32.5687Z" fill="#C29B9C"/>
<path d="M80.9926 29.6488C80.9267 29.8667 80.8423 30.0785 80.7404 30.2821C80.4998 30.9114 80.3397 31.5686 80.2641 32.238C79.7433 35.0282 79.6808 37.8847 80.0791 40.695C83.0438 36.6879 86.8043 33.3029 89.8083 29.3406C90.5257 28.5001 91.0636 27.5217 91.3887 26.4655C91.5814 25.8331 91.5232 25.1507 91.2262 24.5601C90.8629 24.0565 90.3894 23.6424 89.8419 23.3495C87.6983 21.8972 86.0498 19.8244 85.1174 17.4089C85.1569 18.1059 85.14 18.805 85.067 19.4993C84.9083 20.1589 84.6534 20.7915 84.3104 21.3768C83.7696 22.4538 82.8696 23.3081 81.766 23.7923C81.3008 23.9103 80.863 24.1178 80.477 24.4031C80.292 24.6037 80.1586 24.8463 80.0883 25.1099C80.018 25.3735 80.0129 25.6503 80.0735 25.9163C80.2585 26.9531 80.9478 27.8386 81.0487 28.8922C81.0772 29.1457 81.0582 29.4023 80.9926 29.6488Z" fill="#FFBF99"/>
<path d="M70.9496 25.9836C71.3695 26.2309 71.7478 26.543 72.0705 26.9083C72.5973 27.6256 72.5132 28.5896 72.6309 29.4863C72.6314 29.6586 72.6754 29.828 72.7586 29.9788C72.8419 30.1296 72.9618 30.2571 73.1073 30.3494C73.6117 30.5735 74.0993 30.0243 74.6317 29.8898C74.742 29.8618 74.8576 29.8618 74.9679 29.8898C75.0883 29.9327 75.2016 29.9931 75.3042 30.0691C75.8326 30.4265 76.4541 30.6213 77.092 30.6296C77.3865 30.6015 77.683 30.6015 77.9775 30.6296C78.319 30.7316 78.6525 30.859 78.9751 31.0107C79.4168 31.133 79.8808 31.1516 80.3309 31.0651C80.7809 30.9785 81.205 30.7892 81.5699 30.5119C82.295 29.9491 82.9251 29.2736 83.4361 28.5111C84.0406 27.7622 84.4555 26.8786 84.6457 25.9352C84.836 24.9917 84.7959 24.0164 84.529 23.0917C84.4725 22.9649 84.4457 22.8269 84.4505 22.6882C84.4733 22.5562 84.5188 22.4292 84.585 22.3127C84.9752 21.3364 85.0148 20.255 84.6971 19.2527C84.5077 18.4022 84.1089 17.6124 83.537 16.9549C83.4134 16.7814 83.2402 16.6495 83.0401 16.5764C82.84 16.5034 82.6224 16.4927 82.4161 16.5458C82.2698 16.6344 82.144 16.7532 82.0474 16.8943C81.9507 17.0354 81.8853 17.1956 81.8557 17.3641C81.6259 18.0982 81.5194 18.9557 80.7852 19.3704C80.3537 19.6114 79.8942 19.3704 79.4402 19.3368C78.8156 19.2763 78.1981 19.1562 77.5964 18.9781C76.8454 18.7483 76.128 18.4177 75.3546 18.1935C74.575 17.9967 73.77 17.9192 72.9672 17.9637C71.3868 17.9614 69.8652 18.5628 68.7135 19.645C67.2788 21.175 68.5397 23.5008 69.6774 24.8291C70.0558 25.2615 70.4826 25.6488 70.9496 25.9836Z" fill="#FFDFCC"/>
<path d="M82.7189 9.71973C78.3811 7.47799 72.39 8.15051 69.5038 12.4266C68.5819 13.8065 67.9859 15.378 67.7608 17.0222C67.6422 17.8538 67.6216 18.6965 67.6992 19.533C67.7552 20.1999 67.7272 21.0069 68.1195 21.5841C68.6015 22.3071 69.5654 22.3463 70.3613 22.3183C70.8759 22.3088 71.3831 22.1944 71.852 21.9821C72.2798 21.7192 72.7277 21.4906 73.1915 21.2983C73.7045 21.1658 74.2403 21.1473 74.7612 21.2441C75.2821 21.3409 75.7755 21.5507 76.2066 21.8588C77.0809 22.4472 77.7142 23.3271 78.4876 24.0445C79.261 24.7618 80.2922 25.3447 81.329 25.1261C80.7441 24.109 80.5452 22.9153 80.7685 21.7635C80.8937 21.1126 81.2189 20.517 81.6989 20.0598C82.8197 18.9949 84.3161 19.617 84.8485 20.9565C84.9026 21.1189 84.978 21.2734 85.0727 21.416C85.1238 21.4844 85.1953 21.5348 85.2769 21.56C85.3584 21.5851 85.4459 21.5838 85.5266 21.5561C85.6273 21.4942 85.7057 21.402 85.7508 21.2927C86.9502 19.0117 87.3873 16.2824 86.4289 13.8389C85.729 12.0637 84.4115 10.6009 82.7189 9.71973Z" fill="#686270"/>
<path d="M104.111 48.7933C103.748 44.9557 103.155 41.1434 102.334 37.3772C102.038 35.7849 101.604 34.2211 101.039 32.7032C100.546 31.459 100.059 29.901 98.6015 29.5143C98.2923 29.4555 97.9748 29.4555 97.6656 29.5143C93.9612 30.0747 91.2542 33.5438 90.38 37.0185C90.1508 37.7631 90.1333 38.5568 90.3295 39.3107C90.4359 39.6855 90.6537 40.019 90.9539 40.2672C91.2542 40.5155 91.6228 40.6666 92.0108 40.7006C92.3525 40.6542 92.6974 40.6354 93.042 40.6446C93.6529 40.7454 94.034 41.3507 94.303 41.9111C95.7415 45.1693 96.3813 48.7239 96.1693 52.2792C96.1509 52.7959 96.0053 53.3 95.7452 53.7468C95.4851 54.1936 95.1187 54.5693 94.6785 54.8404C93.2999 55.8225 91.7908 56.6072 90.195 57.1718C88.3615 57.8975 86.454 58.42 84.5066 58.7298C83.3857 58.8867 82.0183 59.0717 80.9422 58.7298C80.4704 58.5615 80.0322 58.311 79.6476 57.99C79.2683 57.7497 78.9085 57.4799 78.5716 57.183C78.3508 56.8812 78.1926 56.5382 78.1064 56.1742C78.0089 55.8475 77.8553 55.5403 77.6525 55.2663C77.5774 55.158 77.4801 55.0669 77.367 54.9993C77.2539 54.9316 77.1277 54.8889 76.9968 54.874C76.8507 54.8773 76.7089 54.9238 76.5892 55.0076C76.4695 55.0913 76.3773 55.2087 76.3242 55.3448C76.2235 55.6198 76.2235 55.9216 76.3242 56.1966C76.4131 56.473 76.5256 56.7411 76.6605 56.9981C77.0335 57.6659 77.1772 58.4376 77.0696 59.195C77.0285 59.3973 76.9444 59.5884 76.823 59.7554C76.6465 59.9763 76.4115 60.1432 76.1449 60.2374C75.6875 60.3838 75.1919 60.3548 74.7547 60.1558C74.3175 59.9569 73.97 59.6024 73.7799 59.1613C73.7739 59.1172 73.7544 59.0761 73.7238 59.0437C73.6926 59.0353 73.6598 59.0353 73.6285 59.0437C73.2755 59.0437 73.0681 59.4304 73.0009 59.7778C72.9391 60.1645 72.9796 60.5606 73.1185 60.9267C73.3228 61.2997 73.4791 61.697 73.5837 62.1092C73.5837 62.3222 73.5837 62.5408 73.5837 62.7537C73.6566 63.2805 74.402 63.4711 74.8447 63.5832C74.8524 63.8416 74.953 64.0887 75.1279 64.2791C75.3029 64.4695 75.5405 64.5905 75.7974 64.62C75.9543 64.648 76.1225 64.648 76.2794 64.6816C76.5172 64.7407 76.7496 64.8194 76.9743 64.917C77.415 65.0751 77.8827 65.1441 78.3503 65.1201C78.8178 65.096 79.2759 64.9794 79.6981 64.7769C80.5275 64.3678 81.2056 63.3926 82.0855 63.1404C83.1765 62.9064 84.2877 62.7788 85.4033 62.7593C87.7571 62.58 90.1166 62.5744 92.4704 62.339C95.7314 62.0165 98.9351 61.2627 101.998 60.0973C103.449 59.5368 103.718 57.8555 103.971 56.4993C104.368 53.949 104.415 51.3563 104.111 48.7933Z" fill="#FFDFCC"/>
<path d="M63.72 55.7203H63.8377V55.894C63.8481 55.9141 63.8575 55.9346 63.8657 55.9556C63.9209 56.1408 63.9314 56.3364 63.8963 56.5263C63.8613 56.7163 63.7816 56.8953 63.664 57.0485L63.6136 57.1045V57.2671H63.4903C63.424 57.2509 63.3631 57.2175 63.3139 57.1703C63.2647 57.123 63.2289 57.0636 63.21 56.9981C63.1448 56.8123 63.125 56.6136 63.1523 56.4186C63.1796 56.2235 63.2532 56.0379 63.367 55.8772C63.4069 55.8224 63.4605 55.779 63.5225 55.7515C63.5845 55.7239 63.6526 55.7132 63.72 55.7203Z" fill="url(#paint0_linear_206:37093)"/>
<path d="M63.4846 55.9276C63.3695 56.0877 63.2947 56.2731 63.2664 56.4682C63.2381 56.6633 63.2572 56.8624 63.3221 57.0485C63.4566 57.3792 63.7368 57.424 63.9554 57.1438C64.0668 56.9873 64.1391 56.8065 64.1664 56.6164C64.1937 56.4263 64.1752 56.2324 64.1123 56.0509C64.1038 55.9804 64.0732 55.9144 64.0249 55.8623C63.9766 55.8103 63.913 55.7749 63.8433 55.7612C63.7736 55.7475 63.7014 55.7562 63.6369 55.7861C63.5725 55.816 63.5192 55.8656 63.4846 55.9276Z" fill="#DFDFDF"/>
<path d="M63.8041 55.7371C63.9274 55.7371 64.0451 55.8324 64.1124 56.0117C64.1668 56.1526 64.1897 56.3037 64.1796 56.4544H63.692H63.6472L63.8041 55.7371Z" fill="#B3B3B3"/>
<path d="M63.8434 56.2415L65.9058 56.5441V56.6114C65.9276 56.6775 65.9339 56.7479 65.9242 56.8169C65.9144 56.8859 65.889 56.9517 65.8497 57.0093V57.0709L63.7873 56.7683C63.7425 56.7683 63.7088 56.7291 63.6808 56.6674C63.6589 56.6009 63.6531 56.5302 63.6638 56.461C63.6745 56.3919 63.7015 56.3262 63.7425 56.2695C63.7715 56.248 63.8074 56.238 63.8434 56.2415Z" fill="url(#paint1_linear_206:37093)"/>
<path d="M65.7713 56.6114C65.7308 56.6684 65.7046 56.7343 65.6948 56.8035C65.6851 56.8727 65.6921 56.9433 65.7152 57.0093C65.7657 57.1326 65.8665 57.1494 65.945 57.0485C65.9856 56.9905 66.0118 56.9236 66.0215 56.8535C66.0313 56.7833 66.0242 56.7119 66.0011 56.645C65.9961 56.6201 65.9835 56.5973 65.965 56.5798C65.9466 56.5623 65.9232 56.5509 65.898 56.5472C65.8728 56.5435 65.8472 56.5477 65.8245 56.5592C65.8018 56.5707 65.7832 56.5889 65.7713 56.6114Z" fill="#F5F5F5"/>
<path d="M64.4038 55.9276H64.5887L65.3509 57.8331L65.4182 58.0013H65.2389C64.8491 57.3603 64.567 56.6598 64.4038 55.9276Z" fill="#FAFAFA"/>
<path d="M65.0259 55.3952C65.4072 56.0304 65.6836 56.7231 65.8441 57.4464L65.4069 58.0068C65.0168 57.3667 64.7365 56.6658 64.5775 55.9332L65.0259 55.3952Z" fill="#DFDFDF"/>
<path d="M65.1603 55.625C65.3181 55.9071 65.453 56.2013 65.5639 56.5049L65.0594 56.6562L65.1603 55.625Z" fill="#B3B3B3"/>
<path d="M64.5888 55.9501L64.4038 55.922L64.8353 55.3728L65.0203 55.3952L64.5888 55.9501Z" fill="#808080"/>
<path d="M65.3734 56.2919L75.1137 57.7098V57.8107V57.8443C75.1497 57.9504 75.1603 58.0635 75.1448 58.1744C75.1292 58.2854 75.0879 58.3911 75.0241 58.4832V58.5168V58.6121L65.2837 57.1942C65.2454 57.1824 65.2106 57.1614 65.1823 57.133C65.154 57.1047 65.133 57.0699 65.1212 57.0317C65.0864 56.9251 65.0769 56.8119 65.0935 56.701C65.11 56.5901 65.1521 56.4846 65.2164 56.3928C65.2335 56.3654 65.2565 56.3422 65.2836 56.3248C65.3107 56.3073 65.3414 56.2961 65.3734 56.2919Z" fill="#F8F8F8"/>
<path d="M74.9007 57.8107C74.8369 57.9028 74.7956 58.0085 74.78 58.1195C74.7645 58.2304 74.7751 58.3435 74.8111 58.4496C74.8895 58.6401 75.052 58.6682 75.1809 58.5056C75.2447 58.4135 75.2861 58.3078 75.3017 58.1968C75.3172 58.0859 75.3066 57.9728 75.2706 57.8667C75.2642 57.8255 75.2448 57.7875 75.2152 57.758C75.1856 57.7286 75.1475 57.7094 75.1062 57.7032C75.065 57.6969 75.0228 57.704 74.9859 57.7233C74.9489 57.7426 74.9191 57.7733 74.9007 57.8107Z" fill="#DFDFDF"/>
<path d="M74.94 57.7715C75.0633 57.6594 75.2034 57.693 75.2706 57.8667C75.273 57.8891 75.273 57.9116 75.2706 57.934L75.1361 58.0181H74.8951L74.94 57.7715Z" fill="#B3B3B3"/>
<path d="M75.4724 57.99C75.4295 58.0491 75.4015 58.1177 75.3908 58.1899C75.3801 58.262 75.3869 58.3358 75.4107 58.4048C75.4612 58.5337 75.5733 58.5505 75.6517 58.444C75.6946 58.3839 75.7226 58.3144 75.7333 58.2413C75.744 58.1682 75.7372 58.0936 75.7134 58.0237C75.7081 57.9975 75.6948 57.9735 75.6754 57.9552C75.6559 57.9369 75.6313 57.925 75.6048 57.9214C75.5783 57.9177 75.5514 57.9223 75.5276 57.9346C75.5039 57.9469 75.4846 57.9663 75.4724 57.99Z" fill="#DFDFDF"/>
<path d="M65.3453 56.404L74.0489 57.6762V57.749V57.7771C74.0729 57.8569 74.0789 57.9411 74.0663 58.0235C74.0537 58.1059 74.0228 58.1845 73.976 58.2534V58.3263L65.2668 57.0597C65.2374 57.0534 65.2103 57.0391 65.1885 57.0183C65.1668 56.9975 65.1512 56.9711 65.1436 56.942C65.1186 56.8614 65.1122 56.7762 65.1248 56.6927C65.1374 56.6092 65.1687 56.5297 65.2164 56.46C65.233 56.4425 65.253 56.4285 65.2751 56.4189C65.2973 56.4092 65.3211 56.4042 65.3453 56.404Z" fill="url(#paint2_linear_206:37093)"/>
<path d="M73.9088 57.749C73.8611 57.8187 73.8298 57.8982 73.8172 57.9817C73.8046 58.0652 73.811 58.1504 73.8359 58.231C73.8976 58.3767 74.0209 58.3935 74.1161 58.2702C74.162 58.2008 74.1919 58.122 74.2035 58.0396C74.2151 57.9572 74.2082 57.8733 74.1834 57.7939C74.1791 57.7631 74.165 57.7345 74.1433 57.7123C74.1215 57.6901 74.0933 57.6754 74.0626 57.6704C74.0319 57.6654 74.0005 57.6703 73.9728 57.6845C73.9451 57.6986 73.9227 57.7213 73.9088 57.749Z" fill="#858586"/>
<path d="M73.9536 57.5753H74.0545V57.665V57.6986C74.0862 57.7988 74.0947 57.9049 74.0791 58.0088C74.0636 58.1128 74.0245 58.2118 73.9648 58.2983V58.3263V58.416H73.8639C73.8023 58.416 73.7463 58.3599 73.707 58.2703C73.6753 58.1701 73.6668 58.064 73.6824 57.96C73.6979 57.8561 73.737 57.7571 73.7967 57.6706C73.8138 57.6437 73.8368 57.6212 73.864 57.6046C73.8912 57.5881 73.9219 57.5781 73.9536 57.5753Z" fill="url(#paint3_linear_206:37093)"/>
<path d="M73.8583 57.6874C73.7985 57.7728 73.7597 57.8711 73.745 57.9744C73.7304 58.0776 73.7404 58.1828 73.7743 58.2815C73.7802 58.3201 73.7983 58.3559 73.8258 58.3836C73.8534 58.4114 73.889 58.4297 73.9276 58.4359C73.9662 58.4422 74.0058 58.436 74.0407 58.4183C74.0756 58.4006 74.1039 58.3723 74.1217 58.3375C74.1817 58.2511 74.2205 58.1518 74.2351 58.0477C74.2497 57.9435 74.2396 57.8374 74.2058 57.7378C74.1329 57.5585 73.9816 57.5361 73.8583 57.6874Z" fill="#858586"/>
<path d="M74.0992 57.6706L74.4131 57.721V57.7939C74.438 57.8745 74.4444 57.9597 74.4318 58.0432C74.4192 58.1267 74.3879 58.2062 74.3402 58.2759V58.3487L74.0208 58.2983C73.9914 58.2899 73.9647 58.2742 73.9431 58.2526C73.9216 58.231 73.9059 58.2043 73.8975 58.175C73.8734 58.0951 73.8675 58.011 73.8801 57.9286C73.8927 57.8461 73.9235 57.7676 73.9704 57.6986C73.9885 57.6849 74.0094 57.6752 74.0317 57.6704C74.054 57.6656 74.077 57.6656 74.0992 57.6706Z" fill="url(#paint4_linear_206:37093)"/>
<path d="M74.2562 57.7995C74.2103 57.8689 74.1805 57.9477 74.1688 58.0301C74.1572 58.1125 74.1641 58.1964 74.1889 58.2759C74.1933 58.3066 74.2073 58.3352 74.2291 58.3574C74.2508 58.3796 74.2791 58.3943 74.3097 58.3993C74.3404 58.4043 74.3719 58.3994 74.3996 58.3853C74.4272 58.3711 74.4496 58.3485 74.4635 58.3207C74.5112 58.251 74.5425 58.1715 74.5551 58.088C74.5677 58.0046 74.5613 57.9194 74.5364 57.8387C74.4747 57.6986 74.3515 57.6762 74.2562 57.7995Z" fill="#858586"/>
<path d="M74.458 57.6482H74.5645V57.7378V57.7715C74.5983 57.871 74.6084 57.9771 74.5938 58.0813C74.5792 58.1854 74.5403 58.2847 74.4804 58.3711C74.4804 58.3711 74.4804 58.3711 74.4524 58.3992V58.4888H74.3459C74.3105 58.4792 74.2781 58.4608 74.2516 58.4353C74.2252 58.4099 74.2056 58.3781 74.1946 58.3431C74.1608 58.2435 74.1507 58.1374 74.1653 58.0333C74.1799 57.9291 74.2187 57.8299 74.2787 57.7434C74.2983 57.7139 74.3249 57.6897 74.3562 57.673C74.3876 57.6564 74.4225 57.6479 74.458 57.6482Z" fill="url(#paint5_linear_206:37093)"/>
<path d="M74.3683 57.7602C74.3085 57.8456 74.2697 57.944 74.2551 58.0472C74.2404 58.1504 74.2505 58.2557 74.2843 58.3543C74.2892 58.3932 74.3066 58.4294 74.334 58.4574C74.3614 58.4854 74.3973 58.5037 74.436 58.5094C74.4748 58.5151 74.5144 58.508 74.5487 58.4891C74.583 58.4702 74.6102 58.4406 74.6261 58.4047C74.6864 58.3196 74.7255 58.2212 74.7401 58.1179C74.7547 58.0146 74.7445 57.9093 74.7102 57.8107C74.7053 57.7718 74.6879 57.7356 74.6605 57.7076C74.633 57.6796 74.5972 57.6613 74.5584 57.6556C74.5197 57.6499 74.4801 57.657 74.4458 57.6759C74.4114 57.6948 74.3842 57.7244 74.3683 57.7602Z" fill="#858586"/>
<path d="M75.5564 58.2086C75.5547 58.2197 75.5572 58.231 75.5634 58.2404C75.5697 58.2497 75.5792 58.2564 75.5901 58.259L76.9968 58.4384L75.6069 58.1694C75.6009 58.1676 75.5946 58.1672 75.5884 58.1684C75.5823 58.1695 75.5765 58.1722 75.5715 58.176C75.5666 58.1798 75.5627 58.1848 75.56 58.1905C75.5574 58.1961 75.5562 58.2024 75.5564 58.2086Z" fill="#585A5B"/>
<path d="M73.1018 57.7715H73.1578C73.1128 57.9118 73.1128 58.0627 73.1578 58.203C73.197 58.3039 73.2587 58.3599 73.3315 58.3655H73.2643C73.2381 58.359 73.2134 58.3476 73.1914 58.3319C73.1499 58.2983 73.1188 58.2536 73.1018 58.203C73.0567 58.0627 73.0567 57.9118 73.1018 57.7715Z" fill="url(#paint6_linear_206:37093)"/>
<path d="M72.3676 57.665H72.4237C72.3787 57.8053 72.3787 57.9562 72.4237 58.0965C72.4629 58.1974 72.5246 58.2534 72.5918 58.259H72.5302C72.5011 58.2529 72.4741 58.2394 72.4517 58.2198C72.4124 58.1877 72.3832 58.1449 72.3676 58.0965C72.3226 57.9562 72.3226 57.8053 72.3676 57.665Z" fill="url(#paint7_linear_206:37093)"/>
<path d="M71.6277 57.5585H71.6838C71.6416 57.6992 71.6416 57.8493 71.6838 57.99C71.6946 58.0307 71.7166 58.0675 71.7473 58.0963C71.778 58.125 71.8162 58.1445 71.8575 58.1526H71.7959C71.7664 58.1475 71.7391 58.1339 71.7174 58.1133C71.6763 58.0817 71.6451 58.0389 71.6277 57.99C71.5855 57.8493 71.5855 57.6992 71.6277 57.5585Z" fill="url(#paint8_linear_206:37093)"/>
<path d="M70.8936 57.452H70.9497C70.9047 57.5923 70.9047 57.7432 70.9497 57.8836C70.9889 57.9844 71.0506 58.0405 71.1234 58.0461H71.0618C71.0323 58.041 71.005 58.0274 70.9833 58.0069C70.9436 57.9739 70.9127 57.9315 70.8936 57.8836C70.8486 57.7432 70.8486 57.5923 70.8936 57.452Z" fill="url(#paint9_linear_206:37093)"/>
<path d="M70.1594 57.3455H70.2154C70.1704 57.4859 70.1704 57.6368 70.2154 57.7771C70.2547 57.878 70.3163 57.934 70.3892 57.9396H70.3275C70.2981 57.9346 70.2708 57.9209 70.2491 57.9004C70.2077 57.869 70.1765 57.8261 70.1594 57.7771C70.1144 57.6368 70.1144 57.4859 70.1594 57.3455Z" fill="url(#paint10_linear_206:37093)"/>
<path d="M69.4253 57.239H69.4813C69.4363 57.3794 69.4363 57.5303 69.4813 57.6706C69.5205 57.7715 69.5822 57.8275 69.6494 57.8331H69.5878C69.56 57.828 69.5345 57.8143 69.5149 57.7939C69.4735 57.7625 69.4423 57.7196 69.4253 57.6706C69.3802 57.5303 69.3802 57.3794 69.4253 57.239Z" fill="url(#paint11_linear_206:37093)"/>
<path d="M68.7078 57.127H68.7639C68.7217 57.2677 68.7217 57.4178 68.7639 57.5585C68.7768 57.5981 68.7995 57.6337 68.8298 57.6621C68.8602 57.6905 68.8973 57.7108 68.9376 57.721H68.876C68.8469 57.7149 68.8199 57.7014 68.7975 57.6818C68.7578 57.6489 68.7269 57.6065 68.7078 57.5585C68.6695 57.4172 68.6695 57.2683 68.7078 57.127Z" fill="url(#paint12_linear_206:37093)"/>
<path d="M67.9513 57.0485H68.0074C67.9623 57.1888 67.9623 57.3397 68.0074 57.48C68.0187 57.5204 68.0409 57.5569 68.0715 57.5855C68.1022 57.6142 68.1401 57.6339 68.1811 57.6426H68.1475C68.118 57.6375 68.0907 57.6239 68.069 57.6033C68.0293 57.5704 67.9984 57.528 67.9793 57.48C67.9262 57.3424 67.9164 57.1918 67.9513 57.0485Z" fill="url(#paint13_linear_206:37093)"/>
<path d="M67.2171 56.914H67.2732C67.2281 57.0543 67.2281 57.2052 67.2732 57.3455C67.2845 57.3859 67.3067 57.4224 67.3374 57.451C67.368 57.4797 67.4059 57.4994 67.4469 57.5081H67.3853C67.3557 57.5076 67.3275 57.4956 67.3068 57.4744C67.2657 57.4405 67.2347 57.3959 67.2171 57.3455C67.1721 57.2052 67.1721 57.0543 67.2171 56.914Z" fill="url(#paint14_linear_206:37093)"/>
<path d="M66.4662 56.8075H66.5222C66.4771 56.9497 66.4771 57.1024 66.5222 57.2447C66.5342 57.2838 66.5559 57.3193 66.5853 57.3477C66.6147 57.3761 66.6509 57.3966 66.6904 57.4072H66.6287C66.6017 57.4033 66.5764 57.3916 66.5559 57.3736C66.513 57.3412 66.4816 57.2961 66.4662 57.2447C66.42 57.1026 66.42 56.9496 66.4662 56.8075Z" fill="url(#paint15_linear_206:37093)"/>
<path d="M72.9392 58.0797H72.9953C73.0005 58.1143 73.0099 58.1482 73.0233 58.1806C73.0625 58.2815 73.1242 58.3375 73.197 58.3431H73.1298C73.1036 58.3366 73.0788 58.3252 73.0569 58.3095C73.0153 58.2759 72.9842 58.2312 72.9672 58.1806C72.9553 58.1477 72.9459 58.114 72.9392 58.0797Z" fill="url(#paint16_linear_206:37093)"/>
<path d="M72.7878 58.0573H72.8439C72.8465 58.0924 72.856 58.1267 72.8719 58.1582C72.9111 58.259 72.9728 58.3151 73.04 58.3207H72.9784C72.9504 58.3144 72.9238 58.303 72.8999 58.2871C72.8618 58.2516 72.833 58.2073 72.8159 58.1582C72.8014 58.1262 72.7919 58.0921 72.7878 58.0573Z" fill="url(#paint17_linear_206:37093)"/>
<path d="M72.6309 58.0349H72.687C72.6831 58.0684 72.6831 58.1022 72.687 58.1357C72.6977 58.1764 72.7198 58.2132 72.7505 58.242C72.7812 58.2707 72.8194 58.2902 72.8607 58.2983H72.799C72.7707 58.293 72.7439 58.2815 72.7206 58.2646C72.6808 58.2295 72.65 58.1853 72.6309 58.1357C72.6284 58.1022 72.6284 58.0684 72.6309 58.0349Z" fill="url(#paint18_linear_206:37093)"/>
<path d="M72.4796 58.0125H72.5356C72.5416 58.0451 72.551 58.077 72.5637 58.1077C72.6029 58.2086 72.6646 58.2646 72.7374 58.2702H72.6758C72.6474 58.2649 72.6207 58.2535 72.5973 58.2366C72.5575 58.2015 72.5267 58.1573 72.5076 58.1077C72.496 58.0767 72.4866 58.0449 72.4796 58.0125Z" fill="url(#paint19_linear_206:37093)"/>
<path d="M72.1995 57.9732H72.2555C72.2596 58.0081 72.2691 58.0421 72.2835 58.0741C72.2944 58.1138 72.3158 58.1498 72.3454 58.1784C72.3749 58.2069 72.4116 58.2271 72.4516 58.2366H72.39C72.3609 58.2305 72.3339 58.217 72.3115 58.1974C72.2735 58.1641 72.2446 58.1217 72.2275 58.0741C72.213 58.0421 72.2036 58.0081 72.1995 57.9732Z" fill="url(#paint20_linear_206:37093)"/>
<path d="M72.0706 57.9508H72.1266C72.1333 57.9851 72.1427 58.0188 72.1546 58.0517C72.1665 58.0918 72.1889 58.1279 72.2194 58.1565C72.25 58.1851 72.2876 58.205 72.3284 58.2142H72.2667C72.2373 58.2092 72.2099 58.1955 72.1882 58.175C72.1501 58.1406 72.1196 58.0986 72.0986 58.0517C72.0866 58.0188 72.0773 57.9851 72.0706 57.9508Z" fill="url(#paint21_linear_206:37093)"/>
<path d="M71.8911 57.9284H71.9472C71.9539 57.9627 71.9632 57.9964 71.9752 58.0293C71.9865 58.0696 72.0088 58.1061 72.0394 58.1348C72.07 58.1634 72.1079 58.1831 72.1489 58.1918H72.0705C72.041 58.1867 72.0137 58.1731 71.992 58.1526C71.9522 58.1196 71.9214 58.0772 71.9023 58.0293C71.8961 57.996 71.8923 57.9622 71.8911 57.9284Z" fill="url(#paint22_linear_206:37093)"/>
<path d="M71.7399 57.906H71.7959C71.8026 57.9403 71.812 57.974 71.8239 58.0069C71.8353 58.0472 71.8575 58.0837 71.8881 58.1124C71.9188 58.141 71.9566 58.1607 71.9977 58.1694H71.936C71.9066 58.1643 71.8793 58.1507 71.8576 58.1301C71.8162 58.0988 71.785 58.0559 71.7679 58.0069C71.756 57.974 71.7466 57.9403 71.7399 57.906Z" fill="url(#paint23_linear_206:37093)"/>
<path d="M71.4653 57.8667H71.5214C71.5247 57.9018 71.5342 57.9359 71.5494 57.9676C71.5886 58.0685 71.6503 58.1245 71.7175 58.1301H71.6559C71.6268 58.124 71.5998 58.1105 71.5774 58.0909C71.5394 58.0576 71.5104 58.0152 71.4933 57.9676C71.4789 57.9356 71.4694 57.9016 71.4653 57.8667Z" fill="url(#paint24_linear_206:37093)"/>
<path d="M71.3083 57.8443H71.3644C71.3706 57.8788 71.3799 57.9125 71.3924 57.9452C71.4032 57.9859 71.4252 58.0227 71.4559 58.0514C71.4867 58.0802 71.5249 58.0997 71.5661 58.1077H71.5101C71.4806 58.1027 71.4533 58.089 71.4316 58.0685C71.3922 58.0352 71.3615 57.9929 71.342 57.9452C71.3281 57.9125 71.3169 57.8788 71.3083 57.8443Z" fill="url(#paint25_linear_206:37093)"/>
<path d="M71.157 57.8219H71.2131C71.2092 57.8554 71.2092 57.8893 71.2131 57.9228C71.2523 58.0237 71.314 58.0797 71.3868 58.0853H71.3252C71.2957 58.0803 71.2684 58.0666 71.2467 58.0461C71.2055 58.0145 71.1744 57.9717 71.157 57.9228C71.1545 57.8892 71.1545 57.8555 71.157 57.8219Z" fill="url(#paint26_linear_206:37093)"/>
<path d="M71.0057 57.7995H71.0618C71.067 57.8341 71.0765 57.868 71.0898 57.9004C71.129 58.0012 71.1907 58.0573 71.2635 58.0629H71.2019C71.1724 58.0578 71.1451 58.0442 71.1234 58.0237C71.0807 57.9937 71.0491 57.9503 71.0338 57.9004C71.0218 57.8675 71.0125 57.8338 71.0057 57.7995Z" fill="url(#paint27_linear_206:37093)"/>
<path d="M70.7198 57.7603H70.7759C70.7826 57.7946 70.792 57.8283 70.8039 57.8611C70.8158 57.9012 70.8382 57.9374 70.8687 57.966C70.8993 57.9945 70.9369 58.0144 70.9776 58.0237H70.916C70.8866 58.0186 70.8592 58.005 70.8375 57.9844C70.7978 57.9515 70.767 57.9091 70.7479 57.8611C70.736 57.8283 70.7266 57.7946 70.7198 57.7603Z" fill="url(#paint28_linear_206:37093)"/>
<path d="M70.5686 57.7378H70.6247C70.6314 57.7721 70.6407 57.8059 70.6527 57.8387C70.664 57.8791 70.6862 57.9156 70.7169 57.9442C70.7475 57.9729 70.7854 57.9926 70.8264 58.0012H70.7648C70.7353 57.9962 70.708 57.9826 70.6863 57.962C70.6465 57.9291 70.6157 57.8867 70.5966 57.8387C70.5847 57.8059 70.5753 57.7721 70.5686 57.7378Z" fill="url(#paint29_linear_206:37093)"/>
<path d="M70.4172 57.7154H70.4733C70.48 57.7497 70.4894 57.7834 70.5013 57.8163C70.5405 57.9172 70.6022 57.9732 70.675 57.9788H70.6134C70.5839 57.9738 70.5566 57.9601 70.5349 57.9396C70.4936 57.9082 70.4624 57.8653 70.4453 57.8163C70.4333 57.7834 70.424 57.7497 70.4172 57.7154Z" fill="url(#paint30_linear_206:37093)"/>
<path d="M70.2659 57.693H70.3219C70.326 57.7279 70.3355 57.7619 70.3499 57.7939C70.3892 57.8948 70.4508 57.9508 70.5181 57.9564H70.4564C70.4273 57.9502 70.4003 57.9367 70.378 57.9172C70.3399 57.8839 70.311 57.8415 70.2939 57.7939C70.2794 57.7619 70.27 57.7279 70.2659 57.693Z" fill="url(#paint31_linear_206:37093)"/>
<path d="M69.9857 57.6538H70.0418C70.0485 57.6881 70.0579 57.7218 70.0698 57.7547C70.109 57.8555 70.1707 57.9116 70.2435 57.9172H70.1819C70.1524 57.9121 70.1251 57.8985 70.1034 57.8779C70.062 57.8466 70.0308 57.8037 70.0137 57.7547C70.0018 57.7218 69.9924 57.6881 69.9857 57.6538Z" fill="url(#paint32_linear_206:37093)"/>
<path d="M69.8289 57.6089H69.8849C69.8882 57.644 69.8977 57.6781 69.9129 57.7098C69.9521 57.8107 70.0138 57.8667 70.0811 57.8724H70.0194C69.9903 57.8662 69.9633 57.8527 69.941 57.8331C69.9029 57.7998 69.8739 57.7574 69.8569 57.7098C69.8424 57.6778 69.833 57.6438 69.8289 57.6089Z" fill="url(#paint33_linear_206:37093)"/>
<path d="M69.6775 57.6089H69.7335C69.7397 57.6434 69.7491 57.6771 69.7616 57.7098C69.8064 57.8107 69.868 57.8667 69.9353 57.8724H69.8736C69.8446 57.8662 69.8175 57.8527 69.7952 57.8331C69.757 57.7987 69.7265 57.7567 69.7055 57.7098C69.6943 57.6762 69.6887 57.6426 69.6775 57.6089Z" fill="url(#paint34_linear_206:37093)"/>
<path d="M69.5261 57.6089H69.5822C69.5883 57.6434 69.5977 57.6771 69.6102 57.7098C69.6494 57.8107 69.7111 57.8667 69.7839 57.8724H69.7223C69.6928 57.8673 69.6655 57.8537 69.6438 57.8331C69.6041 57.8002 69.5732 57.7578 69.5542 57.7098C69.5422 57.677 69.5328 57.6432 69.5261 57.6089Z" fill="url(#paint35_linear_206:37093)"/>
<path d="M69.2684 57.5417H69.3189C69.323 57.5766 69.3324 57.6106 69.3469 57.6426C69.3588 57.6817 69.3805 57.7171 69.4099 57.7456C69.4393 57.774 69.4755 57.7945 69.515 57.8051H69.4534C69.4246 57.8013 69.3975 57.7897 69.3749 57.7715C69.3368 57.736 69.308 57.6917 69.2909 57.6426C69.2769 57.6107 69.2693 57.5764 69.2684 57.5417Z" fill="url(#paint36_linear_206:37093)"/>
<path d="M69.1002 57.5193H69.1562C69.163 57.5536 69.1724 57.5873 69.1843 57.6202C69.1972 57.6597 69.2199 57.6953 69.2502 57.7237C69.2806 57.7522 69.3177 57.7724 69.358 57.7827H69.2964C69.2673 57.7799 69.2399 57.7681 69.2179 57.7491C69.1781 57.7139 69.1473 57.6697 69.1282 57.6202C69.1149 57.5878 69.1055 57.5539 69.1002 57.5193Z" fill="url(#paint37_linear_206:37093)"/>
<path d="M68.9489 57.4969H69.0049C69.0116 57.5312 69.021 57.5649 69.0329 57.5977C69.0448 57.6378 69.0672 57.674 69.0978 57.7026C69.1283 57.7311 69.1659 57.751 69.2067 57.7603H69.145C69.116 57.7575 69.0886 57.7457 69.0666 57.7266C69.0268 57.6915 68.996 57.6473 68.9769 57.5977C68.9635 57.5653 68.9541 57.5315 68.9489 57.4969Z" fill="url(#paint38_linear_206:37093)"/>
<path d="M68.7976 57.4744H68.8537C68.8604 57.5087 68.8697 57.5425 68.8817 57.5753C68.8936 57.6154 68.916 57.6516 68.9465 57.6801C68.977 57.7087 69.0146 57.7286 69.0554 57.7378H68.9938C68.9667 57.734 68.9414 57.7223 68.9209 57.7042C68.8781 57.6719 68.8466 57.6267 68.8312 57.5753C68.816 57.5432 68.8047 57.5093 68.7976 57.4744Z" fill="url(#paint39_linear_206:37093)"/>
<path d="M68.5175 57.4352H68.5679C68.5766 57.4696 68.5878 57.5033 68.6015 57.5361C68.6134 57.5752 68.6351 57.6107 68.6645 57.6391C68.694 57.6675 68.7301 57.688 68.7696 57.6986H68.708C68.6792 57.6949 68.6521 57.6832 68.6295 57.665C68.5914 57.6295 68.5626 57.5853 68.5455 57.5361C68.5296 57.5046 68.5201 57.4703 68.5175 57.4352Z" fill="url(#paint40_linear_206:37093)"/>
<path d="M68.3605 57.4128H68.4165C68.414 57.4464 68.414 57.4801 68.4165 57.5137C68.4294 57.5532 68.4521 57.5888 68.4825 57.6173C68.5129 57.6457 68.5499 57.6659 68.5902 57.6762H68.5286C68.4996 57.6734 68.4722 57.6617 68.4501 57.6426C68.4103 57.6074 68.3796 57.5632 68.3605 57.5137C68.3566 57.4802 68.3566 57.4463 68.3605 57.4128Z" fill="url(#paint41_linear_206:37093)"/>
<path d="M68.2091 57.3904H68.2652C68.2719 57.4247 68.2813 57.4584 68.2932 57.4912C68.3051 57.5313 68.3275 57.5675 68.358 57.5961C68.3885 57.6246 68.4261 57.6446 68.4669 57.6538H68.4053C68.3762 57.651 68.3488 57.6392 68.3268 57.6201C68.287 57.585 68.2562 57.5408 68.2371 57.4912C68.2238 57.4589 68.2144 57.425 68.2091 57.3904Z" fill="url(#paint42_linear_206:37093)"/>
<path d="M68.0579 57.368H68.1139C68.1206 57.4022 68.13 57.436 68.1419 57.4688C68.1538 57.5089 68.1762 57.5451 68.2067 57.5736C68.2373 57.6022 68.2749 57.6221 68.3157 57.6313H68.254C68.227 57.6275 68.2016 57.6158 68.1812 57.5977C68.1383 57.5654 68.1069 57.5202 68.0915 57.4688C68.0762 57.4367 68.0649 57.4028 68.0579 57.368Z" fill="url(#paint43_linear_206:37093)"/>
<path d="M67.7888 57.3287H67.8449C67.8475 57.3639 67.857 57.3981 67.8729 57.4296C67.9121 57.5305 67.9738 57.5865 68.041 57.5921H67.9794C67.9514 57.5858 67.9248 57.5744 67.9009 57.5585C67.8628 57.523 67.8339 57.4788 67.8169 57.4296C67.8024 57.3976 67.7929 57.3636 67.7888 57.3287Z" fill="url(#paint44_linear_206:37093)"/>
<path d="M67.6318 57.3063H67.6879C67.6879 57.3455 67.6879 57.3792 67.7159 57.4072C67.7439 57.4352 67.8224 57.5641 67.8896 57.5697H67.828C67.8 57.5634 67.7734 57.552 67.7495 57.5361C67.7114 57.4995 67.6809 57.4557 67.6599 57.4072C67.6487 57.3736 67.643 57.3399 67.6318 57.3063Z" fill="url(#paint45_linear_206:37093)"/>
<path d="M67.4806 57.2839H67.5367C67.5328 57.3174 67.5328 57.3513 67.5367 57.3848C67.5759 57.4857 67.6376 57.5417 67.7104 57.5473H67.6488C67.6205 57.542 67.5937 57.5305 67.5703 57.5137C67.5305 57.4785 67.4997 57.4343 67.4806 57.3848C67.4781 57.3512 67.4781 57.3175 67.4806 57.2839Z" fill="url(#paint46_linear_206:37093)"/>
<path d="M67.3292 57.2615H67.3853C67.3905 57.2961 67.3999 57.33 67.4133 57.3623C67.4525 57.4632 67.5142 57.5193 67.587 57.5249H67.5254C67.4971 57.5196 67.4703 57.5081 67.4469 57.4912C67.4053 57.4577 67.3742 57.413 67.3572 57.3623C67.3453 57.3295 67.336 57.2958 67.3292 57.2615Z" fill="url(#paint47_linear_206:37093)"/>
<path d="M67.0266 57.2222H67.0827C67.0894 57.2565 67.0987 57.2903 67.1107 57.3231C67.122 57.3635 67.1443 57.4 67.1749 57.4286C67.2055 57.4573 67.2434 57.477 67.2844 57.4856H67.2228C67.1933 57.4806 67.166 57.4669 67.1443 57.4464C67.1046 57.4135 67.0737 57.3711 67.0546 57.3231C67.0427 57.2903 67.0333 57.2565 67.0266 57.2222Z" fill="url(#paint48_linear_206:37093)"/>
<path d="M66.8865 57.1998H66.9426C66.9401 57.2334 66.9401 57.2671 66.9426 57.3007C66.9539 57.3411 66.9761 57.3776 67.0068 57.4062C67.0374 57.4349 67.0753 57.4546 67.1163 57.4632H67.0546C67.0252 57.4582 66.9979 57.4445 66.9762 57.424C66.9348 57.3926 66.9036 57.3497 66.8865 57.3007C66.884 57.2671 66.884 57.2334 66.8865 57.1998Z" fill="url(#paint49_linear_206:37093)"/>
<path d="M66.7352 57.1774H66.7913C66.7954 57.2123 66.8048 57.2463 66.8193 57.2783C66.8302 57.3179 66.8516 57.3539 66.8811 57.3825C66.9107 57.4111 66.9474 57.4312 66.9874 57.4408H66.9258C66.8967 57.4347 66.8697 57.4212 66.8473 57.4016C66.8092 57.3683 66.7803 57.3259 66.7632 57.2783C66.7513 57.2454 66.742 57.2117 66.7352 57.1774Z" fill="url(#paint50_linear_206:37093)"/>
<path d="M66.5782 57.155H66.6343C66.6343 57.1886 66.6343 57.2222 66.6623 57.2559C66.6752 57.2954 66.6979 57.331 66.7283 57.3595C66.7587 57.3879 66.7957 57.4082 66.836 57.4184H66.7744C66.7453 57.4122 66.7183 57.3987 66.6959 57.3792C66.6579 57.3459 66.6289 57.3034 66.6119 57.2559C66.5982 57.2231 66.5869 57.1894 66.5782 57.155Z" fill="url(#paint51_linear_206:37093)"/>
<g style="mix-blend-mode:screen">
<path d="M65.5078 57.0485H65.5639L74.5308 58.3599H74.5813C74.5813 58.3599 74.5813 58.4104 74.6093 58.4328C74.6189 58.4605 74.6321 58.4869 74.6485 58.5112H74.5925L65.6255 57.1998H65.5695L65.5302 57.1214C65.5202 57.0979 65.5127 57.0735 65.5078 57.0485Z" fill="#D9D9D9"/>
</g>
<path d="M64.7848 57.8948H64.9081C65.3285 57.8948 65.7544 57.8948 66.1747 57.8948C66.3467 57.8934 66.5171 57.9275 66.6752 57.995C66.8334 58.0625 66.9759 58.162 67.0938 58.2871C67.1572 58.218 67.244 58.1751 67.3373 58.1668C67.4307 58.1585 67.5237 58.1854 67.5982 58.2422C67.6706 58.3005 67.7281 58.375 67.766 58.4598C67.804 58.5445 67.8214 58.6371 67.8168 58.7298C67.8105 58.9245 67.7628 59.1155 67.6767 59.2902C67.744 59.34 67.7948 59.4088 67.8228 59.4876C67.8507 59.5665 67.8545 59.6519 67.8336 59.733C67.7851 60.0067 67.6903 60.2701 67.5534 60.512C67.6038 60.5456 67.6655 60.512 67.7215 60.512C67.7722 60.5061 67.8233 60.5172 67.867 60.5436C67.9106 60.57 67.9442 60.6101 67.9625 60.6577C67.9935 60.7562 67.9935 60.8618 67.9625 60.9603C67.8548 61.3183 67.6513 61.64 67.3741 61.8907C67.1943 62.0918 66.9723 62.2507 66.724 62.3558C66.5991 62.4057 66.4628 62.4201 66.3303 62.3974C66.1977 62.3746 66.0741 62.3156 65.973 62.2269C65.9393 62.1933 65.8945 62.1485 65.8441 62.1541C65.8188 62.1615 65.7957 62.175 65.7768 62.1933C65.6269 62.3076 65.4491 62.3798 65.2619 62.4025C65.0747 62.4251 64.8849 62.3974 64.712 62.3222C64.5435 62.2382 64.4092 62.0987 64.3316 61.9272C64.254 61.7557 64.2379 61.5626 64.2861 61.3807C64.0627 61.2482 63.8803 61.0568 63.7587 60.8274C63.6371 60.5981 63.581 60.3396 63.5967 60.0805C63.6001 59.9877 63.5887 59.895 63.5631 59.8058C63.5367 59.7522 63.5048 59.7015 63.4678 59.6545C63.3203 59.3799 63.2378 59.075 63.2268 58.7634C63.182 58.4305 63.182 58.0931 63.2268 57.7603C63.2268 57.6089 63.3165 57.424 63.4678 57.396C63.5805 57.3981 63.6884 57.442 63.7705 57.5193C64.0703 57.7303 64.4199 57.8597 64.7848 57.8948Z" fill="#FFDFCC"/>
<path d="M66.0347 56.942C66.0672 57.2251 66.1253 57.5046 66.2084 57.7771C66.2771 58.0235 66.4176 58.244 66.6119 58.4104C66.7104 58.4919 66.8293 58.5449 66.9558 58.5637C67.0822 58.5824 67.2114 58.5662 67.3293 58.5168C67.5019 58.4175 67.6316 58.2578 67.6936 58.0685C67.8393 57.632 67.8393 57.16 67.6936 56.7235C67.645 56.589 67.6315 56.4443 67.6543 56.3031C67.6837 56.2279 67.7289 56.16 67.7869 56.1038C67.845 56.0477 67.9145 56.0048 67.9906 55.9781C68.1419 55.9281 68.2868 55.8604 68.4221 55.7763C68.5097 55.7085 68.5829 55.6241 68.6378 55.528C68.6926 55.4318 68.7279 55.3257 68.7416 55.2159C68.7729 54.9321 68.7111 54.6458 68.5655 54.4002C68.42 54.1545 68.1985 53.9629 67.9346 53.854C67.666 53.7536 67.3761 53.7235 67.0927 53.7667C66.8092 53.8099 66.5414 53.9248 66.3149 54.1006C66.129 54.2069 65.9774 54.3642 65.8781 54.5539C65.7788 54.7436 65.7359 54.9577 65.7545 55.171C65.8329 55.7595 65.9506 56.3536 66.0347 56.942Z" fill="#FFDFCC"/>
</g>
<g filter="url(#filter0_b_206:37093)">
<rect x="13" y="77" width="141" height="77" rx="10" fill="black" fill-opacity="0.8"/>
</g>
<path d="M26.8928 93.928C28.1995 93.928 29.2028 94.292 29.9028 95.02C30.6028 95.748 30.9528 96.7933 30.9528 98.156C30.9528 99.752 30.5608 100.975 29.7768 101.824C28.9928 102.673 27.8728 103.098 26.4168 103.098C25.9781 103.098 25.4508 103.089 24.8348 103.07C24.2281 103.051 23.7055 103.028 23.2668 103L23.3648 100.312L23.2668 93.984L26.8928 93.928ZM26.7528 101.628C28.2368 101.628 28.9788 100.615 28.9788 98.59C28.9788 97.4887 28.7968 96.6907 28.4328 96.196C28.0781 95.692 27.5181 95.44 26.7528 95.44C26.2581 95.44 25.7308 95.4633 25.1708 95.51L25.0868 100.144L25.1288 101.53C25.7821 101.595 26.3235 101.628 26.7528 101.628ZM37.1879 99.976L33.4079 100.004C33.4919 101.171 34.0846 101.754 35.1859 101.754C35.7646 101.754 36.4086 101.591 37.1179 101.264L37.2719 101.362L36.9919 102.748C36.2826 103.009 35.6153 103.14 34.9899 103.14C33.9633 103.14 33.1559 102.841 32.5679 102.244C31.9893 101.647 31.6999 100.821 31.6999 99.766C31.6999 98.7207 31.9846 97.8947 32.5539 97.288C33.1233 96.672 33.8933 96.364 34.8639 96.364C35.6946 96.364 36.3339 96.5927 36.7819 97.05C37.2393 97.498 37.4679 98.128 37.4679 98.94C37.4679 99.1547 37.4446 99.4253 37.3979 99.752L37.1879 99.976ZM35.8439 98.73C35.8439 98.3567 35.7599 98.0767 35.5919 97.89C35.4239 97.694 35.1766 97.596 34.8499 97.596C34.4859 97.596 34.1826 97.7173 33.9399 97.96C33.6973 98.1933 33.5339 98.534 33.4499 98.982L35.8159 98.926L35.8439 98.73ZM39.9695 97.526L40.9495 101.25H41.0475L42.2235 97.624L42.4615 96.49H44.0855L41.9015 103H39.8995L38.0515 96.532L39.7875 96.448L39.9695 97.526ZM47.5238 96.364C48.4758 96.364 49.2038 96.644 49.7078 97.204C50.2118 97.764 50.4638 98.5713 50.4638 99.626C50.4638 100.765 50.1931 101.637 49.6518 102.244C49.1104 102.841 48.3311 103.14 47.3138 103.14C46.3618 103.14 45.6338 102.86 45.1298 102.3C44.6258 101.74 44.3738 100.933 44.3738 99.878C44.3738 98.7393 44.6444 97.8713 45.1858 97.274C45.7271 96.6673 46.5064 96.364 47.5238 96.364ZM47.3978 97.624C46.9498 97.624 46.6231 97.7733 46.4178 98.072C46.2218 98.3707 46.1238 98.8513 46.1238 99.514C46.1238 100.373 46.2264 100.984 46.4318 101.348C46.6371 101.712 46.9731 101.894 47.4398 101.894C47.8878 101.894 48.2098 101.749 48.4058 101.46C48.6111 101.161 48.7138 100.676 48.7138 100.004C48.7138 99.1547 48.6064 98.548 48.3918 98.184C48.1864 97.8107 47.8551 97.624 47.3978 97.624ZM57.2469 93.144C57.6295 93.144 58.0355 93.186 58.4649 93.27L58.3389 94.656L58.2129 94.74C57.7742 94.5533 57.3915 94.46 57.0649 94.46C56.4862 94.46 56.1922 94.7913 56.1829 95.454L56.1689 96.546H57.7509L57.8069 96.644L57.7229 97.666H56.1409L56.0989 100.13L56.1969 103H54.3349L54.4469 100.298L54.4189 97.666H53.4389L53.3689 97.568L53.4669 96.546H54.4049L54.3909 95.776C54.3909 94.936 54.6382 94.2873 55.1329 93.83C55.6369 93.3727 56.3415 93.144 57.2469 93.144ZM60.9463 96.364C61.6649 96.364 62.2249 96.5273 62.6263 96.854C63.0369 97.1713 63.2423 97.6193 63.2423 98.198C63.2423 98.366 63.2143 98.898 63.1583 99.794C63.1489 100.055 63.1349 100.326 63.1163 100.606C63.0976 100.877 63.0883 101.11 63.0883 101.306C63.0883 101.465 63.1116 101.577 63.1583 101.642C63.2049 101.698 63.2889 101.726 63.4103 101.726C63.5036 101.726 63.6249 101.707 63.7743 101.67L63.9143 101.782L63.7463 102.762C63.4476 102.958 63.1069 103.075 62.7243 103.112C62.4443 103.084 62.2109 102.986 62.0243 102.818C61.8376 102.641 61.7116 102.398 61.6463 102.09H61.5483C61.0816 102.585 60.6009 102.93 60.1063 103.126C59.4343 103.117 58.9069 102.939 58.5243 102.594C58.1416 102.249 57.9503 101.777 57.9503 101.18C57.9503 100.713 58.0669 100.349 58.3003 100.088C58.5429 99.8173 58.9069 99.6353 59.3923 99.542L61.5343 99.136V98.562C61.5343 97.9553 61.2356 97.652 60.6383 97.652C60.3489 97.652 60.0409 97.7173 59.7143 97.848C59.3969 97.9787 59.0376 98.184 58.6363 98.464L58.4963 98.38L58.2863 97.148C58.6876 96.896 59.1169 96.7047 59.5743 96.574C60.0316 96.434 60.4889 96.364 60.9463 96.364ZM60.0363 100.396C59.8869 100.433 59.7749 100.499 59.7003 100.592C59.6349 100.676 59.6023 100.807 59.6023 100.984C59.6023 101.227 59.6676 101.418 59.7983 101.558C59.9289 101.689 60.1109 101.754 60.3443 101.754C60.7083 101.754 61.0909 101.539 61.4923 101.11L61.5203 100.074L60.0363 100.396ZM66.2025 96.49H69.0305L69.7445 96.476L69.7585 97.582L66.6085 101.81H68.5825L69.7725 101.698L69.8705 101.824L69.7445 103.028L68.1205 103H65.5445L64.6485 103.042V101.95L67.8265 97.694H65.9505L64.7885 97.792L64.6765 97.666L64.8165 96.462L66.2025 96.49ZM76.0024 99.976L72.2224 100.004C72.3064 101.171 72.8991 101.754 74.0004 101.754C74.5791 101.754 75.2231 101.591 75.9324 101.264L76.0864 101.362L75.8064 102.748C75.0971 103.009 74.4297 103.14 73.8044 103.14C72.7777 103.14 71.9704 102.841 71.3824 102.244C70.8037 101.647 70.5144 100.821 70.5144 99.766C70.5144 98.7207 70.7991 97.8947 71.3684 97.288C71.9377 96.672 72.7077 96.364 73.6784 96.364C74.5091 96.364 75.1484 96.5927 75.5964 97.05C76.0537 97.498 76.2824 98.128 76.2824 98.94C76.2824 99.1547 76.2591 99.4253 76.2124 99.752L76.0024 99.976ZM74.6584 98.73C74.6584 98.3567 74.5744 98.0767 74.4064 97.89C74.2384 97.694 73.9911 97.596 73.6644 97.596C73.3004 97.596 72.9971 97.7173 72.7544 97.96C72.5117 98.1933 72.3484 98.534 72.2644 98.982L74.6304 98.926L74.6584 98.73ZM81.1639 96.476C81.2479 96.476 81.3646 96.4853 81.5139 96.504V98.226L81.3179 98.296C81.1592 98.2307 80.9866 98.198 80.7999 98.198C80.2586 98.198 79.7686 98.548 79.3299 99.248V100.13L79.4279 103H77.5659L77.6779 100.312L77.5939 96.616L79.3579 96.462L79.3439 97.736H79.4559C79.9132 96.896 80.4826 96.476 81.1639 96.476ZM88.1502 96.476C88.2342 96.476 88.3509 96.4853 88.5002 96.504V98.226L88.3042 98.296C88.1456 98.2307 87.9729 98.198 87.7862 98.198C87.2449 98.198 86.7549 98.548 86.3162 99.248V100.13L86.4142 103H84.5522L84.6642 100.312L84.5802 96.616L86.3442 96.462L86.3302 97.736H86.4422C86.8996 96.896 87.4689 96.476 88.1502 96.476ZM92.1214 96.364C93.0734 96.364 93.8014 96.644 94.3054 97.204C94.8094 97.764 95.0614 98.5713 95.0614 99.626C95.0614 100.765 94.7908 101.637 94.2494 102.244C93.7081 102.841 92.9288 103.14 91.9114 103.14C90.9594 103.14 90.2314 102.86 89.7274 102.3C89.2234 101.74 88.9714 100.933 88.9714 99.878C88.9714 98.7393 89.2421 97.8713 89.7834 97.274C90.3248 96.6673 91.1041 96.364 92.1214 96.364ZM91.9954 97.624C91.5474 97.624 91.2208 97.7733 91.0154 98.072C90.8194 98.3707 90.7214 98.8513 90.7214 99.514C90.7214 100.373 90.8241 100.984 91.0294 101.348C91.2348 101.712 91.5708 101.894 92.0374 101.894C92.4854 101.894 92.8074 101.749 93.0034 101.46C93.2088 101.161 93.3114 100.676 93.3114 100.004C93.3114 99.1547 93.2041 98.548 92.9894 98.184C92.7841 97.8107 92.4528 97.624 91.9954 97.624ZM101.769 100.13L101.811 101.306C101.811 101.465 101.83 101.577 101.867 101.642C101.914 101.698 101.993 101.726 102.105 101.726C102.208 101.726 102.334 101.707 102.483 101.67L102.609 101.782L102.455 102.762C102.138 102.958 101.793 103.075 101.419 103.112C101.13 103.084 100.887 102.986 100.691 102.818C100.495 102.65 100.36 102.421 100.285 102.132H100.173C99.7161 102.552 99.2494 102.874 98.7734 103.098C97.8587 103.098 97.1494 102.809 96.6454 102.23C96.1414 101.642 95.8894 100.83 95.8894 99.794C95.8894 98.6927 96.1787 97.848 96.7574 97.26C97.3361 96.672 98.1387 96.378 99.1654 96.378C99.4361 96.378 99.7347 96.406 100.061 96.462L100.033 93.312L101.881 93.172L101.769 100.13ZM99.0394 97.638C98.1061 97.638 97.6394 98.2307 97.6394 99.416C97.6394 100.153 97.7514 100.709 97.9754 101.082C98.1994 101.455 98.5261 101.642 98.9554 101.642C99.3661 101.642 99.7441 101.451 100.089 101.068L100.117 100.298L100.075 97.89C99.7114 97.722 99.3661 97.638 99.0394 97.638ZM103.833 100.312L103.763 96.616L105.597 96.462L105.513 100.13L105.597 103H103.735L103.833 100.312ZM106.031 92.878L106.703 93.886L106.675 94.068C106.469 94.1987 106.315 94.292 106.213 94.348C105.046 95.0667 104.29 95.524 103.945 95.72L103.763 95.706L103.315 95.006C104.397 94.138 105.242 93.424 105.849 92.864L106.031 92.878ZM108.435 96.49H111.263L111.977 96.476L111.991 97.582L108.841 101.81H110.815L112.005 101.698L112.103 101.824L111.977 103.028L110.353 103H107.777L106.881 103.042V101.95L110.059 97.694H108.183L107.021 97.792L106.909 97.666L107.049 96.462L108.435 96.49ZM113.417 100.312L113.347 96.616L115.181 96.462L115.097 100.13L115.181 103H113.319L113.417 100.312ZM114.299 93.298C114.588 93.298 114.812 93.382 114.971 93.55C115.139 93.718 115.223 93.9513 115.223 94.25C115.223 94.5673 115.134 94.8193 114.957 95.006C114.779 95.1927 114.537 95.286 114.229 95.286C113.921 95.286 113.683 95.202 113.515 95.034C113.356 94.866 113.277 94.628 113.277 94.32C113.277 94.012 113.365 93.7647 113.543 93.578C113.729 93.3913 113.981 93.298 114.299 93.298ZM119.643 96.364C120.595 96.364 121.323 96.644 121.827 97.204C122.331 97.764 122.583 98.5713 122.583 99.626C122.583 100.765 122.312 101.637 121.771 102.244C121.23 102.841 120.45 103.14 119.433 103.14C118.481 103.14 117.753 102.86 117.249 102.3C116.745 101.74 116.493 100.933 116.493 99.878C116.493 98.7393 116.764 97.8713 117.305 97.274C117.846 96.6673 118.626 96.364 119.643 96.364ZM119.517 97.624C119.069 97.624 118.742 97.7733 118.537 98.072C118.341 98.3707 118.243 98.8513 118.243 99.514C118.243 100.373 118.346 100.984 118.551 101.348C118.756 101.712 119.092 101.894 119.559 101.894C120.007 101.894 120.329 101.749 120.525 101.46C120.73 101.161 120.833 100.676 120.833 100.004C120.833 99.1547 120.726 98.548 120.511 98.184C120.306 97.8107 119.974 97.624 119.517 97.624ZM129.982 98.94C129.991 98.6133 129.917 98.3613 129.758 98.184C129.609 97.9973 129.389 97.904 129.1 97.904C128.68 97.904 128.232 98.1047 127.756 98.506V100.13L127.84 103H125.978L126.076 100.312L126.006 96.616L127.77 96.462V97.414H127.868C128.381 96.9473 128.941 96.6113 129.548 96.406C130.257 96.406 130.799 96.5693 131.172 96.896C131.545 97.2133 131.723 97.6753 131.704 98.282L131.662 100.144L131.746 103H129.87L129.982 98.94ZM136.09 96.364C137.042 96.364 137.77 96.644 138.274 97.204C138.778 97.764 139.03 98.5713 139.03 99.626C139.03 100.765 138.76 101.637 138.218 102.244C137.677 102.841 136.898 103.14 135.88 103.14C134.928 103.14 134.2 102.86 133.696 102.3C133.192 101.74 132.94 100.933 132.94 99.878C132.94 98.7393 133.211 97.8713 133.752 97.274C134.294 96.6673 135.073 96.364 136.09 96.364ZM135.964 97.624C135.516 97.624 135.19 97.7733 134.984 98.072C134.788 98.3707 134.69 98.8513 134.69 99.514C134.69 100.373 134.793 100.984 134.998 101.348C135.204 101.712 135.54 101.894 136.006 101.894C136.454 101.894 136.776 101.749 136.972 101.46C137.178 101.161 137.28 100.676 137.28 100.004C137.28 99.1547 137.173 98.548 136.958 98.184C136.753 97.8107 136.422 97.624 135.964 97.624ZM142.49 96.378C143.125 96.378 143.722 96.4853 144.282 96.7L144.03 98.072L143.806 98.142C143.535 97.9647 143.265 97.8293 142.994 97.736C142.723 97.6427 142.485 97.596 142.28 97.596C142.056 97.596 141.879 97.6567 141.748 97.778C141.617 97.89 141.552 98.03 141.552 98.198C141.552 98.394 141.636 98.5527 141.804 98.674C141.981 98.7953 142.257 98.9307 142.63 99.08C143.003 99.2293 143.311 99.374 143.554 99.514C143.797 99.654 144.002 99.85 144.17 100.102C144.347 100.345 144.436 100.648 144.436 101.012C144.436 101.385 144.338 101.735 144.142 102.062C143.955 102.379 143.666 102.641 143.274 102.846C142.882 103.042 142.401 103.14 141.832 103.14C141.16 103.14 140.465 103 139.746 102.72L139.956 101.264L140.138 101.152C140.427 101.395 140.749 101.591 141.104 101.74C141.459 101.88 141.771 101.95 142.042 101.95C142.294 101.95 142.49 101.889 142.63 101.768C142.77 101.637 142.84 101.483 142.84 101.306C142.84 101.11 142.751 100.951 142.574 100.83C142.406 100.709 142.135 100.573 141.762 100.424C141.379 100.256 141.067 100.107 140.824 99.976C140.581 99.836 140.371 99.64 140.194 99.388C140.026 99.136 139.942 98.8233 139.942 98.45C139.942 97.8433 140.171 97.3487 140.628 96.966C141.085 96.574 141.706 96.378 142.49 96.378ZM27.1115 116.13L27.2095 119H25.3475L25.4455 116.298L25.3615 109.312L27.2235 109.172L27.1115 116.13ZM31.6712 112.364C32.6232 112.364 33.3512 112.644 33.8552 113.204C34.3592 113.764 34.6112 114.571 34.6112 115.626C34.6112 116.765 34.3406 117.637 33.7992 118.244C33.2579 118.841 32.4786 119.14 31.4612 119.14C30.5092 119.14 29.7812 118.86 29.2772 118.3C28.7732 117.74 28.5212 116.933 28.5212 115.878C28.5212 114.739 28.7919 113.871 29.3332 113.274C29.8746 112.667 30.6539 112.364 31.6712 112.364ZM31.5452 113.624C31.0972 113.624 30.7706 113.773 30.5652 114.072C30.3692 114.371 30.2712 114.851 30.2712 115.514C30.2712 116.373 30.3739 116.984 30.5792 117.348C30.7846 117.712 31.1206 117.894 31.5872 117.894C32.0352 117.894 32.3572 117.749 32.5532 117.46C32.7586 117.161 32.8612 116.676 32.8612 116.004C32.8612 115.155 32.7539 114.548 32.5392 114.184C32.3339 113.811 32.0026 113.624 31.5452 113.624ZM38.5612 112.364C38.8692 112.364 39.1725 112.397 39.4712 112.462C39.7792 112.518 40.0499 112.602 40.2832 112.714L39.9752 114.198L39.8212 114.268C39.3452 114.007 38.9205 113.876 38.5472 113.876C38.1179 113.876 37.7865 114.03 37.5532 114.338C37.3199 114.646 37.2032 115.085 37.2032 115.654C37.2032 116.307 37.3292 116.807 37.5812 117.152C37.8332 117.497 38.1925 117.67 38.6592 117.67C39.0792 117.67 39.5459 117.553 40.0592 117.32L40.1992 117.432L40.0172 118.874C39.4572 119.051 38.8832 119.14 38.2952 119.14C37.3992 119.14 36.6992 118.851 36.1952 118.272C35.6912 117.684 35.4392 116.867 35.4392 115.822C35.4392 114.739 35.7145 113.895 36.2652 113.288C36.8159 112.672 37.5812 112.364 38.5612 112.364ZM43.6992 112.364C44.4179 112.364 44.9779 112.527 45.3792 112.854C45.7899 113.171 45.9952 113.619 45.9952 114.198C45.9952 114.366 45.9672 114.898 45.9112 115.794C45.9019 116.055 45.8879 116.326 45.8692 116.606C45.8505 116.877 45.8412 117.11 45.8412 117.306C45.8412 117.465 45.8645 117.577 45.9112 117.642C45.9579 117.698 46.0419 117.726 46.1632 117.726C46.2565 117.726 46.3779 117.707 46.5272 117.67L46.6672 117.782L46.4992 118.762C46.2005 118.958 45.8599 119.075 45.4772 119.112C45.1972 119.084 44.9639 118.986 44.7772 118.818C44.5905 118.641 44.4645 118.398 44.3992 118.09H44.3012C43.8345 118.585 43.3539 118.93 42.8592 119.126C42.1872 119.117 41.6599 118.939 41.2772 118.594C40.8945 118.249 40.7032 117.777 40.7032 117.18C40.7032 116.713 40.8199 116.349 41.0532 116.088C41.2959 115.817 41.6599 115.635 42.1452 115.542L44.2872 115.136V114.562C44.2872 113.955 43.9885 113.652 43.3912 113.652C43.1019 113.652 42.7939 113.717 42.4672 113.848C42.1499 113.979 41.7905 114.184 41.3892 114.464L41.2492 114.38L41.0392 113.148C41.4405 112.896 41.8699 112.705 42.3272 112.574C42.7845 112.434 43.2419 112.364 43.6992 112.364ZM42.7892 116.396C42.6399 116.433 42.5279 116.499 42.4532 116.592C42.3879 116.676 42.3552 116.807 42.3552 116.984C42.3552 117.227 42.4205 117.418 42.5512 117.558C42.6819 117.689 42.8639 117.754 43.0972 117.754C43.4612 117.754 43.8439 117.539 44.2452 117.11L44.2732 116.074L42.7892 116.396ZM48.0034 116.312L47.9334 112.616L49.7674 112.462L49.6834 116.13L49.7674 119H47.9054L48.0034 116.312ZM48.8854 109.298C49.1748 109.298 49.3988 109.382 49.5574 109.55C49.7254 109.718 49.8094 109.951 49.8094 110.25C49.8094 110.567 49.7208 110.819 49.5434 111.006C49.3661 111.193 49.1234 111.286 48.8154 111.286C48.5074 111.286 48.2694 111.202 48.1014 111.034C47.9428 110.866 47.8634 110.628 47.8634 110.32C47.8634 110.012 47.9521 109.765 48.1294 109.578C48.3161 109.391 48.5681 109.298 48.8854 109.298ZM53.7118 112.378C54.3465 112.378 54.9438 112.485 55.5038 112.7L55.2518 114.072L55.0278 114.142C54.7572 113.965 54.4865 113.829 54.2158 113.736C53.9452 113.643 53.7072 113.596 53.5018 113.596C53.2778 113.596 53.1005 113.657 52.9698 113.778C52.8392 113.89 52.7738 114.03 52.7738 114.198C52.7738 114.394 52.8578 114.553 53.0258 114.674C53.2032 114.795 53.4785 114.931 53.8518 115.08C54.2252 115.229 54.5332 115.374 54.7758 115.514C55.0185 115.654 55.2238 115.85 55.3918 116.102C55.5692 116.345 55.6578 116.648 55.6578 117.012C55.6578 117.385 55.5598 117.735 55.3638 118.062C55.1772 118.379 54.8878 118.641 54.4958 118.846C54.1038 119.042 53.6232 119.14 53.0538 119.14C52.3818 119.14 51.6865 119 50.9678 118.72L51.1778 117.264L51.3598 117.152C51.6492 117.395 51.9712 117.591 52.3258 117.74C52.6805 117.88 52.9932 117.95 53.2638 117.95C53.5158 117.95 53.7118 117.889 53.8518 117.768C53.9918 117.637 54.0618 117.483 54.0618 117.306C54.0618 117.11 53.9732 116.951 53.7958 116.83C53.6278 116.709 53.3572 116.573 52.9838 116.424C52.6012 116.256 52.2885 116.107 52.0458 115.976C51.8032 115.836 51.5932 115.64 51.4158 115.388C51.2478 115.136 51.1638 114.823 51.1638 114.45C51.1638 113.843 51.3925 113.349 51.8498 112.966C52.3072 112.574 52.9278 112.378 53.7118 112.378ZM64.452 116.13L64.494 117.306C64.494 117.465 64.5127 117.577 64.55 117.642C64.5967 117.698 64.676 117.726 64.788 117.726C64.8907 117.726 65.0167 117.707 65.166 117.67L65.292 117.782L65.138 118.762C64.8207 118.958 64.4753 119.075 64.102 119.112C63.8127 119.084 63.57 118.986 63.374 118.818C63.178 118.65 63.0427 118.421 62.968 118.132H62.856C62.3987 118.552 61.932 118.874 61.456 119.098C60.5413 119.098 59.832 118.809 59.328 118.23C58.824 117.642 58.572 116.83 58.572 115.794C58.572 114.693 58.8613 113.848 59.44 113.26C60.0187 112.672 60.8213 112.378 61.848 112.378C62.1187 112.378 62.4173 112.406 62.744 112.462L62.716 109.312L64.564 109.172L64.452 116.13ZM61.722 113.638C60.7887 113.638 60.322 114.231 60.322 115.416C60.322 116.153 60.434 116.709 60.658 117.082C60.882 117.455 61.2087 117.642 61.638 117.642C62.0487 117.642 62.4267 117.451 62.772 117.068L62.8 116.298L62.758 113.89C62.394 113.722 62.0487 113.638 61.722 113.638ZM71.4292 115.976L67.6492 116.004C67.7332 117.171 68.3258 117.754 69.4272 117.754C70.0058 117.754 70.6498 117.591 71.3592 117.264L71.5132 117.362L71.2332 118.748C70.5238 119.009 69.8565 119.14 69.2312 119.14C68.2045 119.14 67.3972 118.841 66.8092 118.244C66.2305 117.647 65.9412 116.821 65.9412 115.766C65.9412 114.721 66.2258 113.895 66.7952 113.288C67.3645 112.672 68.1345 112.364 69.1052 112.364C69.9358 112.364 70.5752 112.593 71.0232 113.05C71.4805 113.498 71.7092 114.128 71.7092 114.94C71.7092 115.155 71.6858 115.425 71.6392 115.752L71.4292 115.976ZM70.0852 114.73C70.0852 114.357 70.0012 114.077 69.8332 113.89C69.6652 113.694 69.4178 113.596 69.0912 113.596C68.7272 113.596 68.4238 113.717 68.1812 113.96C67.9385 114.193 67.7752 114.534 67.6912 114.982L70.0572 114.926L70.0852 114.73ZM77.6738 112.364C78.3925 112.364 78.9525 112.527 79.3538 112.854C79.7645 113.171 79.9698 113.619 79.9698 114.198C79.9698 114.366 79.9418 114.898 79.8858 115.794C79.8765 116.055 79.8625 116.326 79.8438 116.606C79.8251 116.877 79.8158 117.11 79.8158 117.306C79.8158 117.465 79.8391 117.577 79.8858 117.642C79.9325 117.698 80.0165 117.726 80.1378 117.726C80.2311 117.726 80.3525 117.707 80.5018 117.67L80.6418 117.782L80.4738 118.762C80.1751 118.958 79.8345 119.075 79.4518 119.112C79.1718 119.084 78.9385 118.986 78.7518 118.818C78.5651 118.641 78.4391 118.398 78.3738 118.09H78.2758C77.8091 118.585 77.3285 118.93 76.8338 119.126C76.1618 119.117 75.6345 118.939 75.2518 118.594C74.8691 118.249 74.6778 117.777 74.6778 117.18C74.6778 116.713 74.7945 116.349 75.0278 116.088C75.2705 115.817 75.6345 115.635 76.1198 115.542L78.2618 115.136V114.562C78.2618 113.955 77.9631 113.652 77.3658 113.652C77.0765 113.652 76.7685 113.717 76.4418 113.848C76.1245 113.979 75.7651 114.184 75.3638 114.464L75.2238 114.38L75.0138 113.148C75.4151 112.896 75.8445 112.705 76.3018 112.574C76.7591 112.434 77.2165 112.364 77.6738 112.364ZM76.7638 116.396C76.6145 116.433 76.5025 116.499 76.4278 116.592C76.3625 116.676 76.3298 116.807 76.3298 116.984C76.3298 117.227 76.3951 117.418 76.5258 117.558C76.6565 117.689 76.8385 117.754 77.0718 117.754C77.4358 117.754 77.8185 117.539 78.2198 117.11L78.2478 116.074L76.7638 116.396ZM85.296 112.406C86.108 112.406 86.7334 112.681 87.172 113.232C87.6107 113.783 87.83 114.562 87.83 115.57C87.83 116.709 87.5454 117.591 86.976 118.216C86.416 118.832 85.6227 119.14 84.596 119.14C84.2974 119.14 83.9847 119.112 83.658 119.056L83.7 121.59H81.852L81.95 116.312L81.866 112.616L83.644 112.462L83.63 113.414H83.728C83.9894 113.162 84.2414 112.961 84.484 112.812C84.7267 112.653 84.9974 112.518 85.296 112.406ZM84.61 117.922C85.0954 117.922 85.464 117.749 85.716 117.404C85.968 117.059 86.094 116.55 86.094 115.878C86.094 115.225 85.9867 114.735 85.772 114.408C85.5667 114.072 85.2587 113.904 84.848 113.904C84.4467 113.904 84.0407 114.105 83.63 114.506L83.616 116.13L83.644 117.712C83.98 117.852 84.302 117.922 84.61 117.922ZM90.9181 116.13L91.0161 119H89.1541L89.2521 116.298L89.1681 109.312L91.0301 109.172L90.9181 116.13ZM92.9019 116.312L92.8319 112.616L94.6659 112.462L94.5819 116.13L94.6659 119H92.8039L92.9019 116.312ZM93.7839 109.298C94.0732 109.298 94.2972 109.382 94.4559 109.55C94.6239 109.718 94.7079 109.951 94.7079 110.25C94.7079 110.567 94.6192 110.819 94.4419 111.006C94.2645 111.193 94.0219 111.286 93.7139 111.286C93.4059 111.286 93.1679 111.202 92.9999 111.034C92.8412 110.866 92.7619 110.628 92.7619 110.32C92.7619 110.012 92.8505 109.765 93.0279 109.578C93.2145 109.391 93.4665 109.298 93.7839 109.298ZM99.1003 112.364C99.4083 112.364 99.7116 112.397 100.01 112.462C100.318 112.518 100.589 112.602 100.822 112.714L100.514 114.198L100.36 114.268C99.8843 114.007 99.4596 113.876 99.0863 113.876C98.6569 113.876 98.3256 114.03 98.0923 114.338C97.8589 114.646 97.7423 115.085 97.7423 115.654C97.7423 116.307 97.8683 116.807 98.1203 117.152C98.3723 117.497 98.7316 117.67 99.1983 117.67C99.6183 117.67 100.085 117.553 100.598 117.32L100.738 117.432L100.556 118.874C99.9963 119.051 99.4223 119.14 98.8343 119.14C97.9383 119.14 97.2383 118.851 96.7343 118.272C96.2303 117.684 95.9783 116.867 95.9783 115.822C95.9783 114.739 96.2536 113.895 96.8043 113.288C97.3549 112.672 98.1203 112.364 99.1003 112.364ZM104.238 112.364C104.957 112.364 105.517 112.527 105.918 112.854C106.329 113.171 106.534 113.619 106.534 114.198C106.534 114.366 106.506 114.898 106.45 115.794C106.441 116.055 106.427 116.326 106.408 116.606C106.39 116.877 106.38 117.11 106.38 117.306C106.38 117.465 106.404 117.577 106.45 117.642C106.497 117.698 106.581 117.726 106.702 117.726C106.796 117.726 106.917 117.707 107.066 117.67L107.206 117.782L107.038 118.762C106.74 118.958 106.399 119.075 106.016 119.112C105.736 119.084 105.503 118.986 105.316 118.818C105.13 118.641 105.004 118.398 104.938 118.09H104.84C104.374 118.585 103.893 118.93 103.398 119.126C102.726 119.117 102.199 118.939 101.816 118.594C101.434 118.249 101.242 117.777 101.242 117.18C101.242 116.713 101.359 116.349 101.592 116.088C101.835 115.817 102.199 115.635 102.684 115.542L104.826 115.136V114.562C104.826 113.955 104.528 113.652 103.93 113.652C103.641 113.652 103.333 113.717 103.006 113.848C102.689 113.979 102.33 114.184 101.928 114.464L101.788 114.38L101.578 113.148C101.98 112.896 102.409 112.705 102.866 112.574C103.324 112.434 103.781 112.364 104.238 112.364ZM103.328 116.396C103.179 116.433 103.067 116.499 102.992 116.592C102.927 116.676 102.894 116.807 102.894 116.984C102.894 117.227 102.96 117.418 103.09 117.558C103.221 117.689 103.403 117.754 103.636 117.754C104 117.754 104.383 117.539 104.784 117.11L104.812 116.074L103.328 116.396ZM111.091 112.364C111.399 112.364 111.702 112.397 112.001 112.462C112.309 112.518 112.579 112.602 112.813 112.714L112.505 114.198L112.351 114.268C111.875 114.007 111.45 113.876 111.077 113.876C110.647 113.876 110.316 114.03 110.083 114.338C109.849 114.646 109.733 115.085 109.733 115.654C109.733 116.307 109.859 116.807 110.111 117.152C110.363 117.497 110.722 117.67 111.189 117.67C111.609 117.67 112.075 117.553 112.589 117.32L112.729 117.432L112.547 118.874C111.987 119.051 111.413 119.14 110.825 119.14C109.929 119.14 109.229 118.851 108.725 118.272C108.221 117.684 107.969 116.867 107.969 115.822C107.969 114.739 108.244 113.895 108.795 113.288C109.345 112.672 110.111 112.364 111.091 112.364ZM111.077 119.672L111.553 119.938C111.758 120.05 111.903 120.171 111.987 120.302C112.08 120.442 112.127 120.596 112.127 120.764C112.127 121.072 112.005 121.324 111.763 121.52C111.52 121.716 111.203 121.814 110.811 121.814C110.391 121.814 110.008 121.683 109.663 121.422L109.789 120.638L109.873 120.596C110.153 120.876 110.428 121.016 110.699 121.016C110.923 121.016 111.035 120.918 111.035 120.722C111.035 120.657 111.016 120.601 110.979 120.554C110.941 120.517 110.881 120.479 110.797 120.442L110.111 120.05L110.433 118.636H111.329L111.077 119.672ZM116.229 112.364C116.947 112.364 117.507 112.527 117.909 112.854C118.319 113.171 118.525 113.619 118.525 114.198C118.525 114.366 118.497 114.898 118.441 115.794C118.431 116.055 118.417 116.326 118.399 116.606C118.38 116.877 118.371 117.11 118.371 117.306C118.371 117.465 118.394 117.577 118.441 117.642C118.487 117.698 118.571 117.726 118.693 117.726C118.786 117.726 118.907 117.707 119.057 117.67L119.197 117.782L119.029 118.762C118.73 118.958 118.389 119.075 118.007 119.112C117.727 119.084 117.493 118.986 117.307 118.818C117.12 118.641 116.994 118.398 116.928 118.09H116.831C116.364 118.585 115.883 118.93 115.389 119.126C114.717 119.117 114.189 118.939 113.807 118.594C113.424 118.249 113.233 117.777 113.233 117.18C113.233 116.713 113.349 116.349 113.583 116.088C113.825 115.817 114.189 115.635 114.675 115.542L116.817 115.136V114.562C116.817 113.955 116.518 113.652 115.921 113.652C115.631 113.652 115.323 113.717 114.997 113.848C114.679 113.979 114.32 114.184 113.919 114.464L113.779 114.38L113.569 113.148C113.97 112.896 114.399 112.705 114.857 112.574C115.314 112.434 115.771 112.364 116.229 112.364ZM115.319 116.396C115.169 116.433 115.057 116.499 114.983 116.592C114.917 116.676 114.885 116.807 114.885 116.984C114.885 117.227 114.95 117.418 115.081 117.558C115.211 117.689 115.393 117.754 115.627 117.754C115.991 117.754 116.373 117.539 116.775 117.11L116.803 116.074L115.319 116.396ZM118.525 109.732V109.886L117.545 111.132L117.363 111.202C117.111 111.174 116.723 111.085 116.201 110.936C116.154 110.927 116 110.889 115.739 110.824C115.487 110.749 115.309 110.712 115.207 110.712C115.104 110.712 115.001 110.754 114.899 110.838C114.805 110.922 114.703 111.025 114.591 111.146C114.479 111.267 114.395 111.361 114.339 111.426H114.171L113.611 110.88V110.726L114.605 109.48L114.773 109.41C114.997 109.438 115.393 109.531 115.963 109.69C116.485 109.83 116.807 109.9 116.928 109.9C117.041 109.9 117.148 109.853 117.251 109.76C117.363 109.667 117.475 109.559 117.587 109.438C117.699 109.317 117.773 109.233 117.811 109.186H117.979L118.525 109.732ZM123.109 112.364C124.061 112.364 124.789 112.644 125.293 113.204C125.797 113.764 126.049 114.571 126.049 115.626C126.049 116.765 125.778 117.637 125.237 118.244C124.695 118.841 123.916 119.14 122.899 119.14C121.947 119.14 121.219 118.86 120.715 118.3C120.211 117.74 119.959 116.933 119.959 115.878C119.959 114.739 120.229 113.871 120.771 113.274C121.312 112.667 122.091 112.364 123.109 112.364ZM122.983 113.624C122.535 113.624 122.208 113.773 122.003 114.072C121.807 114.371 121.709 114.851 121.709 115.514C121.709 116.373 121.811 116.984 122.017 117.348C122.222 117.712 122.558 117.894 123.025 117.894C123.473 117.894 123.795 117.749 123.991 117.46C124.196 117.161 124.299 116.676 124.299 116.004C124.299 115.155 124.191 114.548 123.977 114.184C123.771 113.811 123.44 113.624 122.983 113.624ZM134.876 116.13L134.918 117.306C134.918 117.465 134.937 117.577 134.974 117.642C135.021 117.698 135.1 117.726 135.212 117.726C135.315 117.726 135.441 117.707 135.59 117.67L135.716 117.782L135.562 118.762C135.245 118.958 134.899 119.075 134.526 119.112C134.237 119.084 133.994 118.986 133.798 118.818C133.602 118.65 133.467 118.421 133.392 118.132H133.28C132.823 118.552 132.356 118.874 131.88 119.098C130.965 119.098 130.256 118.809 129.752 118.23C129.248 117.642 128.996 116.83 128.996 115.794C128.996 114.693 129.285 113.848 129.864 113.26C130.443 112.672 131.245 112.378 132.272 112.378C132.543 112.378 132.841 112.406 133.168 112.462L133.14 109.312L134.988 109.172L134.876 116.13ZM132.146 113.638C131.213 113.638 130.746 114.231 130.746 115.416C130.746 116.153 130.858 116.709 131.082 117.082C131.306 117.455 131.633 117.642 132.062 117.642C132.473 117.642 132.851 117.451 133.196 117.068L133.224 116.298L133.182 113.89C132.818 113.722 132.473 113.638 132.146 113.638ZM141.853 115.976L138.073 116.004C138.157 117.171 138.75 117.754 139.851 117.754C140.43 117.754 141.074 117.591 141.783 117.264L141.937 117.362L141.657 118.748C140.948 119.009 140.28 119.14 139.655 119.14C138.628 119.14 137.821 118.841 137.233 118.244C136.654 117.647 136.365 116.821 136.365 115.766C136.365 114.721 136.65 113.895 137.219 113.288C137.788 112.672 138.558 112.364 139.529 112.364C140.36 112.364 140.999 112.593 141.447 113.05C141.904 113.498 142.133 114.128 142.133 114.94C142.133 115.155 142.11 115.425 142.063 115.752L141.853 115.976ZM140.509 114.73C140.509 114.357 140.425 114.077 140.257 113.89C140.089 113.694 139.842 113.596 139.515 113.596C139.151 113.596 138.848 113.717 138.605 113.96C138.362 114.193 138.199 114.534 138.115 114.982L140.481 114.926L140.509 114.73ZM60.2671 132.312L60.1971 128.616L62.0311 128.462L61.9471 132.13L62.0311 135H60.1691L60.2671 132.312ZM61.1491 125.298C61.4384 125.298 61.6624 125.382 61.8211 125.55C61.9891 125.718 62.0731 125.951 62.0731 126.25C62.0731 126.567 61.9844 126.819 61.8071 127.006C61.6298 127.193 61.3871 127.286 61.0791 127.286C60.7711 127.286 60.5331 127.202 60.3651 127.034C60.2064 126.866 60.1271 126.628 60.1271 126.32C60.1271 126.012 60.2158 125.765 60.3931 125.578C60.5798 125.391 60.8318 125.298 61.1491 125.298ZM67.7955 130.94C67.8048 130.613 67.7302 130.361 67.5715 130.184C67.4222 129.997 67.2028 129.904 66.9135 129.904C66.4935 129.904 66.0455 130.105 65.5695 130.506V132.13L65.6535 135H63.7915L63.8895 132.312L63.8195 128.616L65.5835 128.462V129.414H65.6815C66.1948 128.947 66.7548 128.611 67.3615 128.406C68.0708 128.406 68.6122 128.569 68.9855 128.896C69.3588 129.213 69.5362 129.675 69.5175 130.282L69.4755 132.144L69.5595 135H67.6835L67.7955 130.94ZM73.3857 128.378C74.0203 128.378 74.6177 128.485 75.1777 128.7L74.9257 130.072L74.7017 130.142C74.431 129.965 74.1603 129.829 73.8897 129.736C73.619 129.643 73.381 129.596 73.1757 129.596C72.9517 129.596 72.7743 129.657 72.6437 129.778C72.513 129.89 72.4477 130.03 72.4477 130.198C72.4477 130.394 72.5317 130.553 72.6997 130.674C72.877 130.795 73.1523 130.931 73.5257 131.08C73.899 131.229 74.207 131.374 74.4497 131.514C74.6923 131.654 74.8977 131.85 75.0657 132.102C75.243 132.345 75.3317 132.648 75.3317 133.012C75.3317 133.385 75.2337 133.735 75.0377 134.062C74.851 134.379 74.5617 134.641 74.1697 134.846C73.7777 135.042 73.297 135.14 72.7277 135.14C72.0557 135.14 71.3603 135 70.6417 134.72L70.8517 133.264L71.0337 133.152C71.323 133.395 71.645 133.591 71.9997 133.74C72.3543 133.88 72.667 133.95 72.9377 133.95C73.1897 133.95 73.3857 133.889 73.5257 133.768C73.6657 133.637 73.7357 133.483 73.7357 133.306C73.7357 133.11 73.647 132.951 73.4697 132.83C73.3017 132.709 73.031 132.573 72.6577 132.424C72.275 132.256 71.9623 132.107 71.7197 131.976C71.477 131.836 71.267 131.64 71.0897 131.388C70.9217 131.136 70.8377 130.823 70.8377 130.45C70.8377 129.843 71.0663 129.349 71.5237 128.966C71.981 128.574 72.6017 128.378 73.3857 128.378ZM82.7907 133.782L82.6227 134.762C82.2774 134.986 81.9227 135.103 81.5587 135.112C81.288 135.065 81.064 134.958 80.8867 134.79C80.7094 134.622 80.574 134.379 80.4807 134.062H80.3547C79.8227 134.585 79.272 134.925 78.7027 135.084C77.9934 135.084 77.452 134.925 77.0787 134.608C76.7147 134.281 76.5374 133.815 76.5467 133.208L76.5747 131.556L76.5047 128.616L78.3107 128.462L78.2687 132.592C78.2594 132.919 78.3247 133.166 78.4647 133.334C78.6047 133.502 78.8147 133.586 79.0947 133.586C79.5054 133.586 79.9114 133.404 80.3127 133.04V128.616L82.0907 128.462L81.9647 133.306C81.9647 133.455 81.988 133.563 82.0347 133.628C82.0907 133.693 82.1747 133.726 82.2867 133.726C82.3894 133.726 82.5154 133.707 82.6647 133.67L82.7907 133.782ZM85.7092 132.13L85.8072 135H83.9452L84.0432 132.298L83.9592 125.312L85.8212 125.172L85.7092 132.13ZM87.6929 132.312L87.6229 128.616L89.4569 128.462L89.3729 132.13L89.4569 135H87.5949L87.6929 132.312ZM88.5749 125.298C88.8642 125.298 89.0882 125.382 89.2469 125.55C89.4149 125.718 89.4989 125.951 89.4989 126.25C89.4989 126.567 89.4102 126.819 89.2329 127.006C89.0556 127.193 88.8129 127.286 88.5049 127.286C88.1969 127.286 87.9589 127.202 87.7909 127.034C87.6322 126.866 87.5529 126.628 87.5529 126.32C87.5529 126.012 87.6416 125.765 87.8189 125.578C88.0056 125.391 88.2576 125.298 88.5749 125.298ZM95.2213 130.94C95.2306 130.613 95.1559 130.361 94.9973 130.184C94.8479 129.997 94.6286 129.904 94.3393 129.904C93.9193 129.904 93.4713 130.105 92.9953 130.506V132.13L93.0793 135H91.2173L91.3153 132.312L91.2453 128.616L93.0093 128.462V129.414H93.1073C93.6206 128.947 94.1806 128.611 94.7873 128.406C95.4966 128.406 96.0379 128.569 96.4113 128.896C96.7846 129.213 96.9619 129.675 96.9433 130.282L96.9013 132.144L96.9853 135H95.1093L95.2213 130.94ZM101.189 128.364C101.908 128.364 102.468 128.527 102.869 128.854C103.28 129.171 103.485 129.619 103.485 130.198C103.485 130.366 103.457 130.898 103.401 131.794C103.392 132.055 103.378 132.326 103.359 132.606C103.341 132.877 103.331 133.11 103.331 133.306C103.331 133.465 103.355 133.577 103.401 133.642C103.448 133.698 103.532 133.726 103.653 133.726C103.747 133.726 103.868 133.707 104.017 133.67L104.157 133.782L103.989 134.762C103.691 134.958 103.35 135.075 102.967 135.112C102.687 135.084 102.454 134.986 102.267 134.818C102.081 134.641 101.955 134.398 101.889 134.09H101.791C101.325 134.585 100.844 134.93 100.349 135.126C99.6774 135.117 99.1501 134.939 98.7674 134.594C98.3848 134.249 98.1934 133.777 98.1934 133.18C98.1934 132.713 98.3101 132.349 98.5434 132.088C98.7861 131.817 99.1501 131.635 99.6354 131.542L101.777 131.136V130.562C101.777 129.955 101.479 129.652 100.881 129.652C100.592 129.652 100.284 129.717 99.9574 129.848C99.6401 129.979 99.2808 130.184 98.8794 130.464L98.7394 130.38L98.5294 129.148C98.9308 128.896 99.3601 128.705 99.8174 128.574C100.275 128.434 100.732 128.364 101.189 128.364ZM100.279 132.396C100.13 132.433 100.018 132.499 99.9434 132.592C99.8781 132.676 99.8454 132.807 99.8454 132.984C99.8454 133.227 99.9108 133.418 100.041 133.558C100.172 133.689 100.354 133.754 100.587 133.754C100.951 133.754 101.334 133.539 101.735 133.11L101.763 132.074L100.279 132.396ZM106.152 133.11C106.441 133.11 106.665 133.194 106.824 133.362C106.992 133.53 107.076 133.763 107.076 134.062C107.076 134.379 106.987 134.631 106.81 134.818C106.632 135.005 106.39 135.098 106.082 135.098C105.774 135.098 105.536 135.014 105.368 134.846C105.209 134.678 105.13 134.44 105.13 134.132C105.13 133.824 105.218 133.577 105.396 133.39C105.582 133.203 105.834 133.11 106.152 133.11Z" fill="white"/>
<defs>
<filter id="filter0_b_206:37093" x="3" y="67" width="161" height="97" filterUnits="userSpaceOnUse" color-interpolation-filters="sRGB">
<feFlood flood-opacity="0" result="BackgroundImageFix"/>
<feGaussianBlur in="BackgroundImage" stdDeviation="5"/>
<feComposite in2="SourceAlpha" operator="in" result="effect1_backgroundBlur_206:37093"/>
<feBlend mode="normal" in="SourceGraphic" in2="effect1_backgroundBlur_206:37093" result="shape"/>
</filter>
<linearGradient id="paint0_linear_206:37093" x1="61.931" y1="58.4872" x2="62.1499" y2="56.9393" gradientUnits="userSpaceOnUse">
<stop stop-color="#FAFAFA"/>
<stop offset="0.43" stop-color="#F8F8F8"/>
<stop offset="0.59" stop-color="#F1F1F1"/>
<stop offset="0.7" stop-color="#E6E6E6"/>
<stop offset="0.79" stop-color="#D5D5D5"/>
<stop offset="0.87" stop-color="#BFBFBF"/>
<stop offset="0.93" stop-color="#A4A4A4"/>
<stop offset="0.99" stop-color="#848484"/>
<stop offset="1" stop-color="#808080"/>
</linearGradient>
<linearGradient id="paint1_linear_206:37093" x1="1433.32" y1="560.547" x2="1435.66" y2="560.547" gradientUnits="userSpaceOnUse">
<stop stop-color="#FAFAFA"/>
<stop offset="0.43" stop-color="#F8F8F8"/>
<stop offset="0.59" stop-color="#F1F1F1"/>
<stop offset="0.7" stop-color="#E6E6E6"/>
<stop offset="0.79" stop-color="#D5D5D5"/>
<stop offset="0.87" stop-color="#BFBFBF"/>
<stop offset="0.93" stop-color="#A4A4A4"/>
<stop offset="0.99" stop-color="#848484"/>
<stop offset="1" stop-color="#808080"/>
</linearGradient>
<linearGradient id="paint2_linear_206:37093" x1="67.3708" y1="56.8153" x2="67.5072" y2="55.9851" gradientUnits="userSpaceOnUse">
<stop stop-color="#F2F2F2"/>
<stop offset="0.24" stop-color="#EFEFEF"/>
<stop offset="0.42" stop-color="#E5E5E5"/>
<stop offset="0.58" stop-color="#D5D5D5"/>
<stop offset="0.73" stop-color="#BEBEBE"/>
<stop offset="0.88" stop-color="#A0A0A0"/>
<stop offset="1" stop-color="#808080"/>
</linearGradient>
<linearGradient id="paint3_linear_206:37093" x1="71.6607" y1="57.4204" x2="71.7946" y2="56.6026" gradientUnits="userSpaceOnUse">
<stop stop-color="#999999"/>
<stop offset="0.49" stop-color="#595B5D"/>
<stop offset="1" stop-color="#121619"/>
</linearGradient>
<linearGradient id="paint4_linear_206:37093" x1="518.945" y1="242.251" x2="519.369" y2="242.885" gradientUnits="userSpaceOnUse">
<stop stop-color="#999999"/>
<stop offset="0.49" stop-color="#595B5D"/>
<stop offset="1" stop-color="#121619"/>
</linearGradient>
<linearGradient id="paint5_linear_206:37093" x1="422.065" y1="285.266" x2="422.767" y2="285.931" gradientUnits="userSpaceOnUse">
<stop stop-color="#999999"/>
<stop offset="0.49" stop-color="#595B5D"/>
<stop offset="1" stop-color="#121619"/>
</linearGradient>
<linearGradient id="paint6_linear_206:37093" x1="281.225" y1="217.986" x2="281.542" y2="218.243" gradientUnits="userSpaceOnUse">
<stop stop-color="#999999"/>
<stop offset="0.49" stop-color="#595B5D"/>
<stop offset="1" stop-color="#121619"/>
</linearGradient>
<linearGradient id="paint7_linear_206:37093" x1="276.356" y1="217.485" x2="276.672" y2="217.735" gradientUnits="userSpaceOnUse">
<stop stop-color="#999999"/>
<stop offset="0.49" stop-color="#595B5D"/>
<stop offset="1" stop-color="#121619"/>
</linearGradient>
<linearGradient id="paint8_linear_206:37093" x1="278.689" y1="216.986" x2="279.006" y2="217.241" gradientUnits="userSpaceOnUse">
<stop stop-color="#999999"/>
<stop offset="0.49" stop-color="#595B5D"/>
<stop offset="1" stop-color="#121619"/>
</linearGradient>
<linearGradient id="paint9_linear_206:37093" x1="279.926" y1="216.482" x2="280.246" y2="216.744" gradientUnits="userSpaceOnUse">
<stop stop-color="#999999"/>
<stop offset="0.49" stop-color="#595B5D"/>
<stop offset="1" stop-color="#121619"/>
</linearGradient>
<linearGradient id="paint10_linear_206:37093" x1="279.492" y1="215.983" x2="279.811" y2="216.236" gradientUnits="userSpaceOnUse">
<stop stop-color="#999999"/>
<stop offset="0.49" stop-color="#595B5D"/>
<stop offset="1" stop-color="#121619"/>
</linearGradient>
<linearGradient id="paint11_linear_206:37093" x1="274.598" y1="215.485" x2="274.915" y2="215.731" gradientUnits="userSpaceOnUse">
<stop stop-color="#999999"/>
<stop offset="0.49" stop-color="#595B5D"/>
<stop offset="1" stop-color="#121619"/>
</linearGradient>
<linearGradient id="paint12_linear_206:37093" x1="274.656" y1="214.975" x2="274.975" y2="215.231" gradientUnits="userSpaceOnUse">
<stop stop-color="#999999"/>
<stop offset="0.49" stop-color="#595B5D"/>
<stop offset="1" stop-color="#121619"/>
</linearGradient>
<linearGradient id="paint13_linear_206:37093" x1="267.638" y1="214.504" x2="267.952" y2="214.745" gradientUnits="userSpaceOnUse">
<stop stop-color="#999999"/>
<stop offset="0.49" stop-color="#595B5D"/>
<stop offset="1" stop-color="#121619"/>
</linearGradient>
<linearGradient id="paint14_linear_206:37093" x1="277.762" y1="213.98" x2="278.079" y2="214.237" gradientUnits="userSpaceOnUse">
<stop stop-color="#999999"/>
<stop offset="0.49" stop-color="#595B5D"/>
<stop offset="1" stop-color="#121619"/>
</linearGradient>
<linearGradient id="paint15_linear_206:37093" x1="273.547" y1="214.95" x2="273.869" y2="215.202" gradientUnits="userSpaceOnUse">
<stop stop-color="#999999"/>
<stop offset="0.49" stop-color="#595B5D"/>
<stop offset="1" stop-color="#121619"/>
</linearGradient>
<linearGradient id="paint16_linear_206:37093" x1="70.9101" y1="57.3465" x2="70.9441" y2="57.13" gradientUnits="userSpaceOnUse">
<stop stop-color="#999999"/>
<stop offset="0.94" stop-color="#5A5C5E"/>
<stop offset="1" stop-color="#56585A"/>
</linearGradient>
<linearGradient id="paint17_linear_206:37093" x1="272.089" y1="129.029" x2="272.14" y2="129.117" gradientUnits="userSpaceOnUse">
<stop stop-color="#999999"/>
<stop offset="0.94" stop-color="#5A5C5E"/>
<stop offset="1" stop-color="#56585A"/>
</linearGradient>
<linearGradient id="paint18_linear_206:37093" x1="255.751" y1="128.97" x2="255.804" y2="129.056" gradientUnits="userSpaceOnUse">
<stop stop-color="#999999"/>
<stop offset="0.94" stop-color="#5A5C5E"/>
<stop offset="1" stop-color="#56585A"/>
</linearGradient>
<linearGradient id="paint19_linear_206:37093" x1="276.324" y1="127.401" x2="276.373" y2="127.491" gradientUnits="userSpaceOnUse">
<stop stop-color="#999999"/>
<stop offset="0.94" stop-color="#5A5C5E"/>
<stop offset="1" stop-color="#56585A"/>
</linearGradient>
<linearGradient id="paint20_linear_206:37093" x1="271.719" y1="128.806" x2="271.77" y2="128.893" gradientUnits="userSpaceOnUse">
<stop stop-color="#999999"/>
<stop offset="0.94" stop-color="#5A5C5E"/>
<stop offset="1" stop-color="#56585A"/>
</linearGradient>
<linearGradient id="paint21_linear_206:37093" x1="276.09" y1="128.746" x2="276.141" y2="128.838" gradientUnits="userSpaceOnUse">
<stop stop-color="#999999"/>
<stop offset="0.94" stop-color="#5A5C5E"/>
<stop offset="1" stop-color="#56585A"/>
</linearGradient>
<linearGradient id="paint22_linear_206:37093" x1="275.986" y1="128.685" x2="276.037" y2="128.776" gradientUnits="userSpaceOnUse">
<stop stop-color="#999999"/>
<stop offset="0.94" stop-color="#5A5C5E"/>
<stop offset="1" stop-color="#56585A"/>
</linearGradient>
<linearGradient id="paint23_linear_206:37093" x1="275.883" y1="128.63" x2="275.934" y2="128.719" gradientUnits="userSpaceOnUse">
<stop stop-color="#999999"/>
<stop offset="0.94" stop-color="#5A5C5E"/>
<stop offset="1" stop-color="#56585A"/>
</linearGradient>
<linearGradient id="paint24_linear_206:37093" x1="271.275" y1="128.52" x2="271.326" y2="128.611" gradientUnits="userSpaceOnUse">
<stop stop-color="#999999"/>
<stop offset="0.94" stop-color="#5A5C5E"/>
<stop offset="1" stop-color="#56585A"/>
</linearGradient>
<linearGradient id="paint25_linear_206:37093" x1="275.624" y1="128.466" x2="275.675" y2="128.555" gradientUnits="userSpaceOnUse">
<stop stop-color="#999999"/>
<stop offset="0.94" stop-color="#5A5C5E"/>
<stop offset="1" stop-color="#56585A"/>
</linearGradient>
<linearGradient id="paint26_linear_206:37093" x1="254.81" y1="128.407" x2="254.863" y2="128.493" gradientUnits="userSpaceOnUse">
<stop stop-color="#999999"/>
<stop offset="0.94" stop-color="#5A5C5E"/>
<stop offset="1" stop-color="#56585A"/>
</linearGradient>
<linearGradient id="paint27_linear_206:37093" x1="275.443" y1="128.347" x2="275.493" y2="128.439" gradientUnits="userSpaceOnUse">
<stop stop-color="#999999"/>
<stop offset="0.94" stop-color="#5A5C5E"/>
<stop offset="1" stop-color="#56585A"/>
</linearGradient>
<linearGradient id="paint28_linear_206:37093" x1="275.27" y1="128.242" x2="275.321" y2="128.331" gradientUnits="userSpaceOnUse">
<stop stop-color="#999999"/>
<stop offset="0.94" stop-color="#5A5C5E"/>
<stop offset="1" stop-color="#56585A"/>
</linearGradient>
<linearGradient id="paint29_linear_206:37093" x1="275.181" y1="128.183" x2="275.232" y2="128.272" gradientUnits="userSpaceOnUse">
<stop stop-color="#999999"/>
<stop offset="0.94" stop-color="#5A5C5E"/>
<stop offset="1" stop-color="#56585A"/>
</linearGradient>
<linearGradient id="paint30_linear_206:37093" x1="275.105" y1="128.124" x2="275.156" y2="128.215" gradientUnits="userSpaceOnUse">
<stop stop-color="#999999"/>
<stop offset="0.94" stop-color="#5A5C5E"/>
<stop offset="1" stop-color="#56585A"/>
</linearGradient>
<linearGradient id="paint31_linear_206:37093" x1="270.56" y1="128.064" x2="270.612" y2="128.155" gradientUnits="userSpaceOnUse">
<stop stop-color="#999999"/>
<stop offset="0.94" stop-color="#5A5C5E"/>
<stop offset="1" stop-color="#56585A"/>
</linearGradient>
<linearGradient id="paint32_linear_206:37093" x1="274.833" y1="127.959" x2="274.883" y2="128.051" gradientUnits="userSpaceOnUse">
<stop stop-color="#999999"/>
<stop offset="0.94" stop-color="#5A5C5E"/>
<stop offset="1" stop-color="#56585A"/>
</linearGradient>
<linearGradient id="paint33_linear_206:37093" x1="270.292" y1="127.878" x2="270.343" y2="127.968" gradientUnits="userSpaceOnUse">
<stop stop-color="#999999"/>
<stop offset="0.94" stop-color="#5A5C5E"/>
<stop offset="1" stop-color="#56585A"/>
</linearGradient>
<linearGradient id="paint34_linear_206:37093" x1="274.648" y1="127.841" x2="274.699" y2="127.932" gradientUnits="userSpaceOnUse">
<stop stop-color="#999999"/>
<stop offset="0.94" stop-color="#5A5C5E"/>
<stop offset="1" stop-color="#56585A"/>
</linearGradient>
<linearGradient id="paint35_linear_206:37093" x1="274.572" y1="127.806" x2="274.623" y2="127.895" gradientUnits="userSpaceOnUse">
<stop stop-color="#999999"/>
<stop offset="0.94" stop-color="#5A5C5E"/>
<stop offset="1" stop-color="#56585A"/>
</linearGradient>
<linearGradient id="paint36_linear_206:37093" x1="265.497" y1="127.673" x2="265.549" y2="127.763" gradientUnits="userSpaceOnUse">
<stop stop-color="#999999"/>
<stop offset="0.94" stop-color="#5A5C5E"/>
<stop offset="1" stop-color="#56585A"/>
</linearGradient>
<linearGradient id="paint37_linear_206:37093" x1="274.303" y1="127.617" x2="274.353" y2="127.705" gradientUnits="userSpaceOnUse">
<stop stop-color="#999999"/>
<stop offset="0.94" stop-color="#5A5C5E"/>
<stop offset="1" stop-color="#56585A"/>
</linearGradient>
<linearGradient id="paint38_linear_206:37093" x1="274.227" y1="127.557" x2="274.278" y2="127.646" gradientUnits="userSpaceOnUse">
<stop stop-color="#999999"/>
<stop offset="0.94" stop-color="#5A5C5E"/>
<stop offset="1" stop-color="#56585A"/>
</linearGradient>
<linearGradient id="paint39_linear_206:37093" x1="274.124" y1="127.498" x2="274.175" y2="127.589" gradientUnits="userSpaceOnUse">
<stop stop-color="#999999"/>
<stop offset="0.94" stop-color="#5A5C5E"/>
<stop offset="1" stop-color="#56585A"/>
</linearGradient>
<linearGradient id="paint40_linear_206:37093" x1="269.487" y1="127.393" x2="269.538" y2="127.481" gradientUnits="userSpaceOnUse">
<stop stop-color="#999999"/>
<stop offset="0.94" stop-color="#5A5C5E"/>
<stop offset="1" stop-color="#56585A"/>
</linearGradient>
<linearGradient id="paint41_linear_206:37093" x1="253.855" y1="127.334" x2="253.908" y2="127.418" gradientUnits="userSpaceOnUse">
<stop stop-color="#999999"/>
<stop offset="0.94" stop-color="#5A5C5E"/>
<stop offset="1" stop-color="#56585A"/>
</linearGradient>
<linearGradient id="paint42_linear_206:37093" x1="273.786" y1="127.274" x2="273.837" y2="127.366" gradientUnits="userSpaceOnUse">
<stop stop-color="#999999"/>
<stop offset="0.94" stop-color="#5A5C5E"/>
<stop offset="1" stop-color="#56585A"/>
</linearGradient>
<linearGradient id="paint43_linear_206:37093" x1="273.683" y1="127.213" x2="273.734" y2="127.304" gradientUnits="userSpaceOnUse">
<stop stop-color="#999999"/>
<stop offset="0.94" stop-color="#5A5C5E"/>
<stop offset="1" stop-color="#56585A"/>
</linearGradient>
<linearGradient id="paint44_linear_206:37093" x1="269.059" y1="127.113" x2="269.11" y2="127.203" gradientUnits="userSpaceOnUse">
<stop stop-color="#999999"/>
<stop offset="0.94" stop-color="#5A5C5E"/>
<stop offset="1" stop-color="#56585A"/>
</linearGradient>
<linearGradient id="paint45_linear_206:37093" x1="273.441" y1="127.054" x2="273.492" y2="127.142" gradientUnits="userSpaceOnUse">
<stop stop-color="#999999"/>
<stop offset="0.94" stop-color="#5A5C5E"/>
<stop offset="1" stop-color="#56585A"/>
</linearGradient>
<linearGradient id="paint46_linear_206:37093" x1="252.465" y1="126.997" x2="252.519" y2="127.08" gradientUnits="userSpaceOnUse">
<stop stop-color="#999999"/>
<stop offset="0.94" stop-color="#5A5C5E"/>
<stop offset="1" stop-color="#56585A"/>
</linearGradient>
<linearGradient id="paint47_linear_206:37093" x1="273.249" y1="126.937" x2="273.299" y2="127.029" gradientUnits="userSpaceOnUse">
<stop stop-color="#999999"/>
<stop offset="0.94" stop-color="#5A5C5E"/>
<stop offset="1" stop-color="#56585A"/>
</linearGradient>
<linearGradient id="paint48_linear_206:37093" x1="273.062" y1="126.83" x2="273.113" y2="126.918" gradientUnits="userSpaceOnUse">
<stop stop-color="#999999"/>
<stop offset="0.94" stop-color="#5A5C5E"/>
<stop offset="1" stop-color="#56585A"/>
</linearGradient>
<linearGradient id="paint49_linear_206:37093" x1="252.087" y1="126.77" x2="252.14" y2="126.857" gradientUnits="userSpaceOnUse">
<stop stop-color="#999999"/>
<stop offset="0.94" stop-color="#5A5C5E"/>
<stop offset="1" stop-color="#56585A"/>
</linearGradient>
<linearGradient id="paint50_linear_206:37093" x1="268.406" y1="126.711" x2="268.457" y2="126.801" gradientUnits="userSpaceOnUse">
<stop stop-color="#999999"/>
<stop offset="0.94" stop-color="#5A5C5E"/>
<stop offset="1" stop-color="#56585A"/>
</linearGradient>
<linearGradient id="paint51_linear_206:37093" x1="272.797" y1="126.654" x2="272.847" y2="126.743" gradientUnits="userSpaceOnUse">
<stop stop-color="#999999"/>
<stop offset="0.94" stop-color="#5A5C5E"/>
<stop offset="1" stop-color="#56585A"/>
</linearGradient>
</defs>
</svg>
