<svg width="167" height="167" viewBox="0 0 167 167" fill="none" xmlns="http://www.w3.org/2000/svg">
<mask id="mask0_206:37165" style="mask-type:alpha" maskUnits="userSpaceOnUse" x="0" y="0" width="167" height="167">
<rect x="1" y="1" width="165" height="165" rx="8" fill="#5988D6" stroke="#EDE6FC" stroke-opacity="0.3"/>
</mask>
<g mask="url(#mask0_206:37165)">
<rect x="1" y="1" width="165" height="165" rx="8" fill="#A97AD9" stroke="#EDE6FC" stroke-opacity="0.3"/>
<g clip-path="url(#clip0_206:37165)">
<path d="M67.8386 57.4277L61.7205 51.3185L52.5902 60.7165L58.5814 66.7083L58.5821 66.7076C59.768 67.8908 61.4045 68.6228 63.2114 68.6228C66.8306 68.6228 69.7655 65.688 69.7655 62.0687C69.7655 60.2556 69.0287 58.6143 67.8386 57.4277Z" fill="#6C39A0"/>
<path d="M55.9129 45.5199C54.7455 44.4464 53.1932 43.7861 51.483 43.7861C47.863 43.7861 44.9288 46.7203 44.9288 50.3403C44.9288 52.0505 45.5898 53.6035 46.6633 54.7702L46.6536 54.7798L52.5903 60.7165L61.7205 51.3186L55.9129 45.5199Z" fill="#FCDBAA"/>
</g>
<rect x="51.9772" y="51.5614" width="2" height="13.9775" rx="1" transform="rotate(-45 51.9772 51.5614)" fill="url(#paint0_linear_206:37165)" fill-opacity="0.8"/>
<g clip-path="url(#clip1_206:37165)">
<path d="M91.4817 37.3748L97.5908 31.2567L88.1929 22.1264L82.201 28.1176L82.2017 28.1183C81.0185 29.3042 80.2865 30.9407 80.2865 32.7475C80.2865 36.3668 83.2214 39.3017 86.8407 39.3017C88.6537 39.3017 90.295 38.5649 91.4817 37.3748Z" fill="#6C39A0"/>
<path d="M103.39 25.449C104.463 24.2817 105.123 22.7294 105.123 21.0191C105.123 17.3991 102.189 14.465 98.5692 14.465C96.8589 14.465 95.3059 15.1259 94.1393 16.1994L94.1296 16.1897L88.1929 22.1264L97.5909 31.2567L103.39 25.449Z" fill="#FCDBAA"/>
</g>
<rect x="97.348" y="21.5133" width="2" height="13.9775" rx="1" transform="rotate(45 97.348 21.5133)" fill="url(#paint1_linear_206:37165)" fill-opacity="0.8"/>
<g clip-path="url(#clip2_206:37165)">
<path d="M57.1308 11.5914L55.3692 20.056L68.2325 22.5496L69.9655 14.2554L69.9645 14.2552C70.3051 12.6149 70.0215 10.8448 69.0321 9.3329C67.0503 6.30449 62.9874 5.45584 59.959 7.4377C58.4419 8.43052 57.472 9.94581 57.1308 11.5914Z" fill="#6C39A0"/>
<path d="M53.6973 28.0908C53.4383 29.6554 53.7359 31.3158 54.6724 32.7469C56.6546 35.7759 60.7165 36.6244 63.7455 34.6421C65.1766 33.7056 66.1141 32.3022 66.5025 30.7651L66.5159 30.7679L68.2325 22.5495L55.3692 20.056L53.6973 28.0908Z" fill="#FCDBAA"/>
</g>
<rect x="60.9077" y="28.0757" width="2" height="13.9775" rx="1" transform="rotate(-168.202 60.9077 28.0757)" fill="url(#paint2_linear_206:37165)" fill-opacity="0.8"/>
<g clip-path="url(#clip3_206:37165)">
<path d="M84.0933 55.2626L86.5212 63.5607L99.0451 59.7092L96.6722 51.575L96.6713 51.5753C96.2001 49.9676 95.1171 48.5391 93.5327 47.6705C90.3591 45.9305 86.3747 47.0931 84.6348 50.2667C83.7632 51.8566 83.6203 53.65 84.0933 55.2626Z" fill="#6C39A0"/>
<path d="M88.8261 71.4373C89.3336 72.9398 90.3774 74.265 91.8771 75.0872C95.0513 76.8274 99.0347 75.6651 100.775 72.4909C101.597 70.9912 101.764 69.3117 101.384 67.7727L101.397 67.7688L99.0451 59.7092L86.5212 63.5607L88.8261 71.4373Z" fill="#FCDBAA"/>
</g>
<rect x="95.1815" y="68.0317" width="2" height="13.9775" rx="1" transform="rotate(163.733 95.1815 68.0317)" fill="url(#paint3_linear_206:37165)" fill-opacity="0.8"/>
<g clip-path="url(#clip4_206:37165)">
<path d="M128.628 40.8869L120.526 37.8702L116.123 50.2111L124.061 53.1738L124.062 53.1729C125.632 53.7567 127.425 53.743 129.068 52.9926C132.361 51.4896 133.812 47.601 132.309 44.3086C131.556 42.6592 130.204 41.4721 128.628 40.8869Z" fill="#6C39A0"/>
<path d="M112.835 35.0071C111.327 34.5153 109.64 34.5593 108.085 35.2696C104.792 36.7729 103.341 40.6607 104.844 43.9537C105.555 45.5095 106.801 46.6478 108.262 47.2632L108.257 47.276L116.123 50.2111L120.526 37.8702L112.835 35.0071Z" fill="#FCDBAA"/>
</g>
<rect x="112.515" y="40.1241" width="2" height="13.9775" rx="1" transform="rotate(-69.5374 112.515 40.1241)" fill="url(#paint4_linear_206:37165)" fill-opacity="0.8"/>
</g>
<g filter="url(#filter0_b_206:37165)">
<rect x="13" y="77" width="141" height="77" rx="10" fill="black" fill-opacity="0.8"/>
</g>
<path d="M38.3895 86.858C39.6589 86.858 40.6342 87.2453 41.3155 88.02C42.0062 88.7853 42.3515 89.8773 42.3515 91.296C42.3515 92.8453 41.9782 94.04 41.2315 94.88C40.4849 95.72 39.4302 96.14 38.0675 96.14C36.8075 96.14 35.8322 95.748 35.1415 94.964C34.4602 94.1707 34.1195 93.0507 34.1195 91.604C34.1195 90.0827 34.4882 88.9113 35.2255 88.09C35.9722 87.2687 37.0269 86.858 38.3895 86.858ZM38.2215 88.384C37.4749 88.384 36.9335 88.6173 36.5975 89.084C36.2615 89.5507 36.0935 90.3113 36.0935 91.366C36.0935 92.57 36.2569 93.4287 36.5835 93.942C36.9195 94.4553 37.4702 94.712 38.2355 94.712C38.9822 94.712 39.5235 94.4787 39.8595 94.012C40.1955 93.536 40.3635 92.7613 40.3635 91.688C40.3635 90.5027 40.1955 89.658 39.8595 89.154C39.5329 88.6407 38.9869 88.384 38.2215 88.384ZM45.7616 89.378C46.3963 89.378 46.9936 89.4853 47.5536 89.7L47.3016 91.072L47.0776 91.142C46.807 90.9647 46.5363 90.8293 46.2656 90.736C45.995 90.6427 45.757 90.596 45.5516 90.596C45.3276 90.596 45.1503 90.6567 45.0196 90.778C44.889 90.89 44.8236 91.03 44.8236 91.198C44.8236 91.394 44.9076 91.5527 45.0756 91.674C45.253 91.7953 45.5283 91.9307 45.9016 92.08C46.275 92.2293 46.583 92.374 46.8256 92.514C47.0683 92.654 47.2736 92.85 47.4416 93.102C47.619 93.3447 47.7076 93.648 47.7076 94.012C47.7076 94.3853 47.6096 94.7353 47.4136 95.062C47.227 95.3793 46.9376 95.6407 46.5456 95.846C46.1536 96.042 45.673 96.14 45.1036 96.14C44.4316 96.14 43.7363 96 43.0176 95.72L43.2276 94.264L43.4096 94.152C43.699 94.3947 44.021 94.5907 44.3756 94.74C44.7303 94.88 45.043 94.95 45.3136 94.95C45.5656 94.95 45.7616 94.8893 45.9016 94.768C46.0416 94.6373 46.1116 94.4833 46.1116 94.306C46.1116 94.11 46.023 93.9513 45.8456 93.83C45.6776 93.7087 45.407 93.5733 45.0336 93.424C44.651 93.256 44.3383 93.1067 44.0956 92.976C43.853 92.836 43.643 92.64 43.4656 92.388C43.2976 92.136 43.2136 91.8233 43.2136 91.45C43.2136 90.8433 43.4423 90.3487 43.8996 89.966C44.357 89.574 44.9776 89.378 45.7616 89.378ZM58.8678 96L58.9798 91.94C58.9798 91.2493 58.6858 90.904 58.0978 90.904C57.6778 90.904 57.2392 91.0907 56.7818 91.464L56.7398 93.144L56.8238 96H54.9618L55.0738 91.94C55.0832 91.604 55.0085 91.3473 54.8498 91.17C54.7005 90.9927 54.4812 90.904 54.1918 90.904C53.7812 90.904 53.3285 91.1 52.8338 91.492V93.13L52.9178 96H51.0698L51.1678 93.312L51.0978 89.616L52.8478 89.462V90.414H52.9458C53.4592 89.9473 54.0238 89.6113 54.6398 89.406C55.6852 89.406 56.3525 89.756 56.6418 90.456H56.7258C57.2578 89.9613 57.8645 89.6113 58.5458 89.406C59.2552 89.406 59.7918 89.5693 60.1558 89.896C60.5292 90.2133 60.7065 90.6753 60.6878 91.282L60.6458 93.144L60.7298 96H58.8678ZM67.4028 92.976L63.6228 93.004C63.7068 94.1707 64.2995 94.754 65.4008 94.754C65.9795 94.754 66.6235 94.5907 67.3328 94.264L67.4868 94.362L67.2068 95.748C66.4975 96.0093 65.8301 96.14 65.2048 96.14C64.1781 96.14 63.3708 95.8413 62.7828 95.244C62.2041 94.6467 61.9148 93.8207 61.9148 92.766C61.9148 91.7207 62.1995 90.8947 62.7688 90.288C63.3381 89.672 64.1081 89.364 65.0788 89.364C65.9095 89.364 66.5488 89.5927 66.9968 90.05C67.4541 90.498 67.6828 91.128 67.6828 91.94C67.6828 92.1547 67.6595 92.4253 67.6128 92.752L67.4028 92.976ZM66.0588 91.73C66.0588 91.3567 65.9748 91.0767 65.8068 90.89C65.6388 90.694 65.3915 90.596 65.0648 90.596C64.7008 90.596 64.3975 90.7173 64.1548 90.96C63.9121 91.1933 63.7488 91.534 63.6648 91.982L66.0308 91.926L66.0588 91.73ZM74.3983 93.13L74.4403 94.306C74.4403 94.4647 74.459 94.5767 74.4963 94.642C74.543 94.698 74.6223 94.726 74.7343 94.726C74.837 94.726 74.963 94.7073 75.1123 94.67L75.2383 94.782L75.0843 95.762C74.767 95.958 74.4216 96.0747 74.0483 96.112C73.759 96.084 73.5163 95.986 73.3203 95.818C73.1243 95.65 72.989 95.4213 72.9143 95.132H72.8023C72.345 95.552 71.8783 95.874 71.4023 96.098C70.4876 96.098 69.7783 95.8087 69.2743 95.23C68.7703 94.642 68.5183 93.83 68.5183 92.794C68.5183 91.6927 68.8076 90.848 69.3863 90.26C69.965 89.672 70.7676 89.378 71.7943 89.378C72.065 89.378 72.3636 89.406 72.6903 89.462L72.6623 86.312L74.5103 86.172L74.3983 93.13ZM71.6683 90.638C70.735 90.638 70.2683 91.2307 70.2683 92.416C70.2683 93.1533 70.3803 93.7087 70.6043 94.082C70.8283 94.4553 71.155 94.642 71.5843 94.642C71.995 94.642 72.373 94.4507 72.7183 94.068L72.7463 93.298L72.7043 90.89C72.3403 90.722 71.995 90.638 71.6683 90.638ZM76.4614 93.312L76.3914 89.616L78.2254 89.462L78.1414 93.13L78.2254 96H76.3634L76.4614 93.312ZM77.3434 86.298C77.6328 86.298 77.8568 86.382 78.0154 86.55C78.1834 86.718 78.2674 86.9513 78.2674 87.25C78.2674 87.5673 78.1788 87.8193 78.0014 88.006C77.8241 88.1927 77.5814 88.286 77.2734 88.286C76.9654 88.286 76.7274 88.202 76.5594 88.034C76.4008 87.866 76.3214 87.628 76.3214 87.32C76.3214 87.012 76.4101 86.7647 76.5874 86.578C76.7741 86.3913 77.0261 86.298 77.3434 86.298ZM82.6598 89.364C82.9678 89.364 83.2712 89.3967 83.5698 89.462C83.8778 89.518 84.1485 89.602 84.3818 89.714L84.0738 91.198L83.9198 91.268C83.4438 91.0067 83.0192 90.876 82.6458 90.876C82.2165 90.876 81.8852 91.03 81.6518 91.338C81.4185 91.646 81.3018 92.0847 81.3018 92.654C81.3018 93.3073 81.4278 93.8067 81.6798 94.152C81.9318 94.4973 82.2912 94.67 82.7578 94.67C83.1778 94.67 83.6445 94.5533 84.1578 94.32L84.2978 94.432L84.1158 95.874C83.5558 96.0513 82.9818 96.14 82.3938 96.14C81.4978 96.14 80.7978 95.8507 80.2938 95.272C79.7898 94.684 79.5378 93.8673 79.5378 92.822C79.5378 91.7393 79.8132 90.8947 80.3638 90.288C80.9145 89.672 81.6798 89.364 82.6598 89.364ZM87.7978 89.364C88.5165 89.364 89.0765 89.5273 89.4778 89.854C89.8885 90.1713 90.0938 90.6193 90.0938 91.198C90.0938 91.366 90.0658 91.898 90.0098 92.794C90.0005 93.0553 89.9865 93.326 89.9678 93.606C89.9492 93.8767 89.9398 94.11 89.9398 94.306C89.9398 94.4647 89.9632 94.5767 90.0098 94.642C90.0565 94.698 90.1405 94.726 90.2618 94.726C90.3552 94.726 90.4765 94.7073 90.6258 94.67L90.7658 94.782L90.5978 95.762C90.2992 95.958 89.9585 96.0747 89.5758 96.112C89.2958 96.084 89.0625 95.986 88.8758 95.818C88.6892 95.6407 88.5632 95.398 88.4978 95.09H88.3998C87.9332 95.5847 87.4525 95.93 86.9578 96.126C86.2858 96.1167 85.7585 95.9393 85.3758 95.594C84.9932 95.2487 84.8018 94.7773 84.8018 94.18C84.8018 93.7133 84.9185 93.3493 85.1518 93.088C85.3945 92.8173 85.7585 92.6353 86.2438 92.542L88.3858 92.136V91.562C88.3858 90.9553 88.0872 90.652 87.4898 90.652C87.2005 90.652 86.8925 90.7173 86.5658 90.848C86.2485 90.9787 85.8892 91.184 85.4878 91.464L85.3478 91.38L85.1378 90.148C85.5392 89.896 85.9685 89.7047 86.4258 89.574C86.8832 89.434 87.3405 89.364 87.7978 89.364ZM86.8878 93.396C86.7385 93.4333 86.6265 93.4987 86.5518 93.592C86.4865 93.676 86.4538 93.8067 86.4538 93.984C86.4538 94.2267 86.5192 94.418 86.6498 94.558C86.7805 94.6887 86.9625 94.754 87.1958 94.754C87.5598 94.754 87.9425 94.5393 88.3438 94.11L88.3718 93.074L86.8878 93.396ZM99.692 96L99.804 91.94C99.804 91.2493 99.51 90.904 98.922 90.904C98.502 90.904 98.0634 91.0907 97.606 91.464L97.564 93.144L97.648 96H95.786L95.898 91.94C95.9074 91.604 95.8327 91.3473 95.674 91.17C95.5247 90.9927 95.3054 90.904 95.016 90.904C94.6054 90.904 94.1527 91.1 93.658 91.492V93.13L93.742 96H91.894L91.992 93.312L91.922 89.616L93.672 89.462V90.414H93.77C94.2834 89.9473 94.848 89.6113 95.464 89.406C96.5094 89.406 97.1767 89.756 97.466 90.456H97.55C98.082 89.9613 98.6887 89.6113 99.37 89.406C100.079 89.406 100.616 89.5693 100.98 89.896C101.353 90.2133 101.531 90.6753 101.512 91.282L101.47 93.144L101.554 96H99.692ZM108.227 92.976L104.447 93.004C104.531 94.1707 105.124 94.754 106.225 94.754C106.804 94.754 107.448 94.5907 108.157 94.264L108.311 94.362L108.031 95.748C107.322 96.0093 106.654 96.14 106.029 96.14C105.002 96.14 104.195 95.8413 103.607 95.244C103.028 94.6467 102.739 93.8207 102.739 92.766C102.739 91.7207 103.024 90.8947 103.593 90.288C104.162 89.672 104.932 89.364 105.903 89.364C106.734 89.364 107.373 89.5927 107.821 90.05C108.278 90.498 108.507 91.128 108.507 91.94C108.507 92.1547 108.484 92.4253 108.437 92.752L108.227 92.976ZM106.883 91.73C106.883 91.3567 106.799 91.0767 106.631 90.89C106.463 90.694 106.216 90.596 105.889 90.596C105.525 90.596 105.222 90.7173 104.979 90.96C104.736 91.1933 104.573 91.534 104.489 91.982L106.855 91.926L106.883 91.73ZM113.795 91.94C113.804 91.6133 113.729 91.3613 113.571 91.184C113.421 90.9973 113.202 90.904 112.913 90.904C112.493 90.904 112.045 91.1047 111.569 91.506V93.13L111.653 96H109.791L109.889 93.312L109.819 89.616L111.583 89.462V90.414H111.681C112.194 89.9473 112.754 89.6113 113.361 89.406C114.07 89.406 114.611 89.5693 114.985 89.896C115.358 90.2133 115.535 90.6753 115.517 91.282L115.475 93.144L115.559 96H113.683L113.795 91.94ZM119.833 94.628C120.131 94.628 120.444 94.5487 120.771 94.39L120.925 94.53L120.743 95.636C120.267 95.8787 119.781 96.028 119.287 96.084C118.027 95.9533 117.397 95.3373 117.397 94.236L117.467 93.074L117.453 90.666H116.585L116.515 90.568L116.613 89.546H117.439V88.468L119.133 87.922L119.259 88.034L119.217 89.546H120.883L120.939 89.644L120.855 90.666H119.189L119.105 93.802C119.105 94.1007 119.161 94.3153 119.273 94.446C119.385 94.5673 119.571 94.628 119.833 94.628ZM124.537 89.364C125.489 89.364 126.217 89.644 126.721 90.204C127.225 90.764 127.477 91.5713 127.477 92.626C127.477 93.7647 127.207 94.6373 126.665 95.244C126.124 95.8413 125.345 96.14 124.327 96.14C123.375 96.14 122.647 95.86 122.143 95.3C121.639 94.74 121.387 93.9327 121.387 92.878C121.387 91.7393 121.658 90.8713 122.199 90.274C122.741 89.6673 123.52 89.364 124.537 89.364ZM124.411 90.624C123.963 90.624 123.637 90.7733 123.431 91.072C123.235 91.3707 123.137 91.8513 123.137 92.514C123.137 93.3727 123.24 93.984 123.445 94.348C123.651 94.712 123.987 94.894 124.453 94.894C124.901 94.894 125.223 94.7493 125.419 94.46C125.625 94.1613 125.727 93.676 125.727 93.004C125.727 92.1547 125.62 91.548 125.405 91.184C125.2 90.8107 124.869 90.624 124.411 90.624ZM130.937 89.378C131.572 89.378 132.169 89.4853 132.729 89.7L132.477 91.072L132.253 91.142C131.983 90.9647 131.712 90.8293 131.441 90.736C131.171 90.6427 130.933 90.596 130.727 90.596C130.503 90.596 130.326 90.6567 130.195 90.778C130.065 90.89 129.999 91.03 129.999 91.198C129.999 91.394 130.083 91.5527 130.251 91.674C130.429 91.7953 130.704 91.9307 131.077 92.08C131.451 92.2293 131.759 92.374 132.001 92.514C132.244 92.654 132.449 92.85 132.617 93.102C132.795 93.3447 132.883 93.648 132.883 94.012C132.883 94.3853 132.785 94.7353 132.589 95.062C132.403 95.3793 132.113 95.6407 131.721 95.846C131.329 96.042 130.849 96.14 130.279 96.14C129.607 96.14 128.912 96 128.193 95.72L128.403 94.264L128.585 94.152C128.875 94.3947 129.197 94.5907 129.551 94.74C129.906 94.88 130.219 94.95 130.489 94.95C130.741 94.95 130.937 94.8893 131.077 94.768C131.217 94.6373 131.287 94.4833 131.287 94.306C131.287 94.11 131.199 93.9513 131.021 93.83C130.853 93.7087 130.583 93.5733 130.209 93.424C129.827 93.256 129.514 93.1067 129.271 92.976C129.029 92.836 128.819 92.64 128.641 92.388C128.473 92.136 128.389 91.8233 128.389 91.45C128.389 90.8433 128.618 90.3487 129.075 89.966C129.533 89.574 130.153 89.378 130.937 89.378ZM42.3389 105.364C43.0575 105.364 43.6175 105.527 44.0189 105.854C44.4295 106.171 44.6349 106.619 44.6349 107.198C44.6349 107.366 44.6069 107.898 44.5509 108.794C44.5415 109.055 44.5275 109.326 44.5089 109.606C44.4902 109.877 44.4809 110.11 44.4809 110.306C44.4809 110.465 44.5042 110.577 44.5509 110.642C44.5975 110.698 44.6815 110.726 44.8029 110.726C44.8962 110.726 45.0175 110.707 45.1669 110.67L45.3069 110.782L45.1389 111.762C44.8402 111.958 44.4995 112.075 44.1169 112.112C43.8369 112.084 43.6035 111.986 43.4169 111.818C43.2302 111.641 43.1042 111.398 43.0389 111.09H42.9409C42.4742 111.585 41.9935 111.93 41.4989 112.126C40.8269 112.117 40.2995 111.939 39.9169 111.594C39.5342 111.249 39.3429 110.777 39.3429 110.18C39.3429 109.713 39.4595 109.349 39.6929 109.088C39.9355 108.817 40.2995 108.635 40.7849 108.542L42.9269 108.136V107.562C42.9269 106.955 42.6282 106.652 42.0309 106.652C41.7415 106.652 41.4335 106.717 41.1069 106.848C40.7895 106.979 40.4302 107.184 40.0289 107.464L39.8889 107.38L39.6789 106.148C40.0802 105.896 40.5095 105.705 40.9669 105.574C41.4242 105.434 41.8815 105.364 42.3389 105.364ZM41.4289 109.396C41.2795 109.433 41.1675 109.499 41.0929 109.592C41.0275 109.676 40.9949 109.807 40.9949 109.984C40.9949 110.227 41.0602 110.418 41.1909 110.558C41.3215 110.689 41.5035 110.754 41.7369 110.754C42.1009 110.754 42.4835 110.539 42.8849 110.11L42.9129 109.074L41.4289 109.396ZM49.1491 110.628C49.4478 110.628 49.7604 110.549 50.0871 110.39L50.2411 110.53L50.0591 111.636C49.5831 111.879 49.0978 112.028 48.6031 112.084C47.3431 111.953 46.7131 111.337 46.7131 110.236L46.7831 109.074L46.7691 106.666H45.9011L45.8311 106.568L45.9291 105.546H46.7551V104.468L48.4491 103.922L48.5751 104.034L48.5331 105.546H50.1991L50.2551 105.644L50.1711 106.666H48.5051L48.4211 109.802C48.4211 110.101 48.4771 110.315 48.5891 110.446C48.7011 110.567 48.8878 110.628 49.1491 110.628ZM57.4636 110.782L57.2956 111.762C56.9502 111.986 56.5956 112.103 56.2316 112.112C55.9609 112.065 55.7369 111.958 55.5596 111.79C55.3822 111.622 55.2469 111.379 55.1536 111.062H55.0276C54.4956 111.585 53.9449 111.925 53.3756 112.084C52.6662 112.084 52.1249 111.925 51.7516 111.608C51.3876 111.281 51.2102 110.815 51.2196 110.208L51.2476 108.556L51.1776 105.616L52.9836 105.462L52.9416 109.592C52.9322 109.919 52.9976 110.166 53.1376 110.334C53.2776 110.502 53.4876 110.586 53.7676 110.586C54.1782 110.586 54.5842 110.404 54.9856 110.04V105.616L56.7636 105.462L56.6376 110.306C56.6376 110.455 56.6609 110.563 56.7076 110.628C56.7636 110.693 56.8476 110.726 56.9596 110.726C57.0622 110.726 57.1882 110.707 57.3376 110.67L57.4636 110.782ZM61.124 105.364C61.8427 105.364 62.4027 105.527 62.804 105.854C63.2147 106.171 63.42 106.619 63.42 107.198C63.42 107.366 63.392 107.898 63.336 108.794C63.3267 109.055 63.3127 109.326 63.294 109.606C63.2753 109.877 63.266 110.11 63.266 110.306C63.266 110.465 63.2893 110.577 63.336 110.642C63.3827 110.698 63.4667 110.726 63.588 110.726C63.6813 110.726 63.8027 110.707 63.952 110.67L64.092 110.782L63.924 111.762C63.6253 111.958 63.2847 112.075 62.902 112.112C62.622 112.084 62.3887 111.986 62.202 111.818C62.0153 111.641 61.8893 111.398 61.824 111.09H61.726C61.2593 111.585 60.7787 111.93 60.284 112.126C59.612 112.117 59.0847 111.939 58.702 111.594C58.3193 111.249 58.128 110.777 58.128 110.18C58.128 109.713 58.2447 109.349 58.478 109.088C58.7207 108.817 59.0847 108.635 59.57 108.542L61.712 108.136V107.562C61.712 106.955 61.4133 106.652 60.816 106.652C60.5267 106.652 60.2187 106.717 59.892 106.848C59.5747 106.979 59.2153 107.184 58.814 107.464L58.674 107.38L58.464 106.148C58.8653 105.896 59.2947 105.705 59.752 105.574C60.2093 105.434 60.6667 105.364 61.124 105.364ZM60.214 109.396C60.0647 109.433 59.9527 109.499 59.878 109.592C59.8127 109.676 59.78 109.807 59.78 109.984C59.78 110.227 59.8453 110.418 59.976 110.558C60.1067 110.689 60.2887 110.754 60.522 110.754C60.886 110.754 61.2687 110.539 61.67 110.11L61.698 109.074L60.214 109.396ZM73.0182 112L73.1302 107.94C73.1302 107.249 72.8362 106.904 72.2482 106.904C71.8282 106.904 71.3895 107.091 70.9322 107.464L70.8902 109.144L70.9742 112H69.1122L69.2242 107.94C69.2335 107.604 69.1589 107.347 69.0002 107.17C68.8509 106.993 68.6315 106.904 68.3422 106.904C67.9315 106.904 67.4789 107.1 66.9842 107.492V109.13L67.0682 112H65.2202L65.3182 109.312L65.2482 105.616L66.9982 105.462V106.414H67.0962C67.6095 105.947 68.1742 105.611 68.7902 105.406C69.8355 105.406 70.5029 105.756 70.7922 106.456H70.8762C71.4082 105.961 72.0149 105.611 72.6962 105.406C73.4055 105.406 73.9422 105.569 74.3062 105.896C74.6795 106.213 74.8569 106.675 74.8382 107.282L74.7962 109.144L74.8802 112H73.0182ZM84.0643 109.13L84.1063 110.306C84.1063 110.465 84.125 110.577 84.1623 110.642C84.209 110.698 84.2883 110.726 84.4003 110.726C84.503 110.726 84.629 110.707 84.7783 110.67L84.9043 110.782L84.7503 111.762C84.433 111.958 84.0877 112.075 83.7143 112.112C83.425 112.084 83.1823 111.986 82.9863 111.818C82.7903 111.65 82.655 111.421 82.5803 111.132H82.4683C82.011 111.552 81.5443 111.874 81.0683 112.098C80.1537 112.098 79.4443 111.809 78.9403 111.23C78.4363 110.642 78.1843 109.83 78.1843 108.794C78.1843 107.693 78.4737 106.848 79.0523 106.26C79.631 105.672 80.4337 105.378 81.4603 105.378C81.731 105.378 82.0297 105.406 82.3563 105.462L82.3283 102.312L84.1763 102.172L84.0643 109.13ZM81.3343 106.638C80.401 106.638 79.9343 107.231 79.9343 108.416C79.9343 109.153 80.0463 109.709 80.2703 110.082C80.4943 110.455 80.821 110.642 81.2503 110.642C81.661 110.642 82.039 110.451 82.3843 110.068L82.4123 109.298L82.3703 106.89C82.0063 106.722 81.661 106.638 81.3343 106.638ZM91.0415 108.976L87.2615 109.004C87.3455 110.171 87.9381 110.754 89.0395 110.754C89.6181 110.754 90.2621 110.591 90.9715 110.264L91.1255 110.362L90.8455 111.748C90.1361 112.009 89.4688 112.14 88.8435 112.14C87.8168 112.14 87.0095 111.841 86.4215 111.244C85.8428 110.647 85.5535 109.821 85.5535 108.766C85.5535 107.721 85.8381 106.895 86.4075 106.288C86.9768 105.672 87.7468 105.364 88.7175 105.364C89.5481 105.364 90.1875 105.593 90.6355 106.05C91.0928 106.498 91.3215 107.128 91.3215 107.94C91.3215 108.155 91.2981 108.425 91.2515 108.752L91.0415 108.976ZM89.6975 107.73C89.6975 107.357 89.6135 107.077 89.4455 106.89C89.2775 106.694 89.0301 106.596 88.7035 106.596C88.3395 106.596 88.0361 106.717 87.7935 106.96C87.5508 107.193 87.3875 107.534 87.3035 107.982L89.6695 107.926L89.6975 107.73ZM98.1121 102.144C98.4948 102.144 98.9008 102.186 99.3301 102.27L99.2041 103.656L99.0781 103.74C98.6395 103.553 98.2568 103.46 97.9301 103.46C97.3515 103.46 97.0575 103.791 97.0481 104.454L97.0341 105.546H98.6161L98.6721 105.644L98.5881 106.666H97.0061L96.9641 109.13L97.0621 112H95.2001L95.3121 109.298L95.2841 106.666H94.3041L94.2341 106.568L94.3321 105.546H95.2701L95.2561 104.776C95.2561 103.936 95.5035 103.287 95.9981 102.83C96.5021 102.373 97.2068 102.144 98.1121 102.144ZM101.897 105.364C102.849 105.364 103.577 105.644 104.081 106.204C104.585 106.764 104.837 107.571 104.837 108.626C104.837 109.765 104.566 110.637 104.025 111.244C103.483 111.841 102.704 112.14 101.687 112.14C100.735 112.14 100.007 111.86 99.5028 111.3C98.9988 110.74 98.7468 109.933 98.7468 108.878C98.7468 107.739 99.0175 106.871 99.5588 106.274C100.1 105.667 100.879 105.364 101.897 105.364ZM101.771 106.624C101.323 106.624 100.996 106.773 100.791 107.072C100.595 107.371 100.497 107.851 100.497 108.514C100.497 109.373 100.599 109.984 100.805 110.348C101.01 110.712 101.346 110.894 101.813 110.894C102.261 110.894 102.583 110.749 102.779 110.46C102.984 110.161 103.087 109.676 103.087 109.004C103.087 108.155 102.979 107.548 102.765 107.184C102.559 106.811 102.228 106.624 101.771 106.624ZM109.629 105.476C109.713 105.476 109.829 105.485 109.979 105.504V107.226L109.783 107.296C109.624 107.231 109.451 107.198 109.265 107.198C108.723 107.198 108.233 107.548 107.795 108.248V109.13L107.893 112H106.031L106.143 109.312L106.059 105.616L107.823 105.462L107.809 106.736H107.921C108.378 105.896 108.947 105.476 109.629 105.476ZM118.696 112L118.808 107.94C118.808 107.249 118.514 106.904 117.926 106.904C117.506 106.904 117.067 107.091 116.61 107.464L116.568 109.144L116.652 112H114.79L114.902 107.94C114.911 107.604 114.837 107.347 114.678 107.17C114.529 106.993 114.309 106.904 114.02 106.904C113.609 106.904 113.157 107.1 112.662 107.492V109.13L112.746 112H110.898L110.996 109.312L110.926 105.616L112.676 105.462V106.414H112.774C113.287 105.947 113.852 105.611 114.468 105.406C115.513 105.406 116.181 105.756 116.47 106.456H116.554C117.086 105.961 117.693 105.611 118.374 105.406C119.083 105.406 119.62 105.569 119.984 105.896C120.357 106.213 120.535 106.675 120.516 107.282L120.474 109.144L120.558 112H118.696ZM124.753 105.364C125.472 105.364 126.032 105.527 126.433 105.854C126.844 106.171 127.049 106.619 127.049 107.198C127.049 107.366 127.021 107.898 126.965 108.794C126.956 109.055 126.942 109.326 126.923 109.606C126.904 109.877 126.895 110.11 126.895 110.306C126.895 110.465 126.918 110.577 126.965 110.642C127.012 110.698 127.096 110.726 127.217 110.726C127.31 110.726 127.432 110.707 127.581 110.67L127.721 110.782L127.553 111.762C127.254 111.958 126.914 112.075 126.531 112.112C126.251 112.084 126.018 111.986 125.831 111.818C125.644 111.641 125.518 111.398 125.453 111.09H125.355C124.888 111.585 124.408 111.93 123.913 112.126C123.241 112.117 122.714 111.939 122.331 111.594C121.948 111.249 121.757 110.777 121.757 110.18C121.757 109.713 121.874 109.349 122.107 109.088C122.35 108.817 122.714 108.635 123.199 108.542L125.341 108.136V107.562C125.341 106.955 125.042 106.652 124.445 106.652C124.156 106.652 123.848 106.717 123.521 106.848C123.204 106.979 122.844 107.184 122.443 107.464L122.303 107.38L122.093 106.148C122.494 105.896 122.924 105.705 123.381 105.574C123.838 105.434 124.296 105.364 124.753 105.364ZM123.843 109.396C123.694 109.433 123.582 109.499 123.507 109.592C123.442 109.676 123.409 109.807 123.409 109.984C123.409 110.227 123.474 110.418 123.605 110.558C123.736 110.689 123.918 110.754 124.151 110.754C124.515 110.754 124.898 110.539 125.299 110.11L125.327 109.074L123.843 109.396ZM38.4003 125.13L38.4423 126.306C38.4423 126.465 38.4609 126.577 38.4983 126.642C38.5449 126.698 38.6243 126.726 38.7363 126.726C38.8389 126.726 38.9649 126.707 39.1143 126.67L39.2403 126.782L39.0863 127.762C38.7689 127.958 38.4236 128.075 38.0503 128.112C37.7609 128.084 37.5183 127.986 37.3223 127.818C37.1263 127.65 36.9909 127.421 36.9163 127.132H36.8043C36.3469 127.552 35.8803 127.874 35.4043 128.098C34.4896 128.098 33.7803 127.809 33.2763 127.23C32.7723 126.642 32.5203 125.83 32.5203 124.794C32.5203 123.693 32.8096 122.848 33.3883 122.26C33.9669 121.672 34.7696 121.378 35.7963 121.378C36.0669 121.378 36.3656 121.406 36.6923 121.462L36.6643 118.312L38.5123 118.172L38.4003 125.13ZM35.6703 122.638C34.7369 122.638 34.2703 123.231 34.2703 124.416C34.2703 125.153 34.3823 125.709 34.6063 126.082C34.8303 126.455 35.1569 126.642 35.5863 126.642C35.9969 126.642 36.3749 126.451 36.7203 126.068L36.7483 125.298L36.7063 122.89C36.3423 122.722 35.9969 122.638 35.6703 122.638ZM40.4634 125.312L40.3934 121.616L42.2274 121.462L42.1434 125.13L42.2274 128H40.3654L40.4634 125.312ZM41.3454 118.298C41.6347 118.298 41.8587 118.382 42.0174 118.55C42.1854 118.718 42.2694 118.951 42.2694 119.25C42.2694 119.567 42.1807 119.819 42.0034 120.006C41.8261 120.193 41.5834 120.286 41.2754 120.286C40.9674 120.286 40.7294 120.202 40.5614 120.034C40.4027 119.866 40.3234 119.628 40.3234 119.32C40.3234 119.012 40.4121 118.765 40.5894 118.578C40.7761 118.391 41.0281 118.298 41.3454 118.298ZM47.3758 118.144C47.7585 118.144 48.1645 118.186 48.5938 118.27L48.4678 119.656L48.3418 119.74C47.9031 119.553 47.5205 119.46 47.1938 119.46C46.6151 119.46 46.3211 119.791 46.3118 120.454L46.2978 121.546H47.8798L47.9358 121.644L47.8518 122.666H46.2698L46.2278 125.13L46.3258 128H44.4638L44.5758 125.298L44.5478 122.666H43.5678L43.4978 122.568L43.5958 121.546H44.5338L44.5198 120.776C44.5198 119.936 44.7671 119.287 45.2618 118.83C45.7658 118.373 46.4705 118.144 47.3758 118.144ZM53.4985 124.976L49.7185 125.004C49.8025 126.171 50.3952 126.754 51.4965 126.754C52.0752 126.754 52.7192 126.591 53.4285 126.264L53.5825 126.362L53.3025 127.748C52.5932 128.009 51.9258 128.14 51.3005 128.14C50.2738 128.14 49.4665 127.841 48.8785 127.244C48.2998 126.647 48.0105 125.821 48.0105 124.766C48.0105 123.721 48.2952 122.895 48.8645 122.288C49.4338 121.672 50.2038 121.364 51.1745 121.364C52.0052 121.364 52.6445 121.593 53.0925 122.05C53.5498 122.498 53.7785 123.128 53.7785 123.94C53.7785 124.155 53.7552 124.425 53.7085 124.752L53.4985 124.976ZM52.1545 123.73C52.1545 123.357 52.0705 123.077 51.9025 122.89C51.7345 122.694 51.4872 122.596 51.1605 122.596C50.7965 122.596 50.4932 122.717 50.2505 122.96C50.0078 123.193 49.8445 123.534 49.7605 123.982L52.1265 123.926L52.1545 123.73ZM58.66 121.476C58.744 121.476 58.8607 121.485 59.01 121.504V123.226L58.814 123.296C58.6553 123.231 58.4827 123.198 58.296 123.198C57.7547 123.198 57.2647 123.548 56.826 124.248V125.13L56.924 128H55.062L55.174 125.312L55.09 121.616L56.854 121.462L56.84 122.736H56.952C57.4093 121.896 57.9787 121.476 58.66 121.476ZM64.9692 124.976L61.1892 125.004C61.2732 126.171 61.8659 126.754 62.9672 126.754C63.5459 126.754 64.1899 126.591 64.8992 126.264L65.0532 126.362L64.7732 127.748C64.0639 128.009 63.3965 128.14 62.7712 128.14C61.7445 128.14 60.9372 127.841 60.3492 127.244C59.7705 126.647 59.4812 125.821 59.4812 124.766C59.4812 123.721 59.7659 122.895 60.3352 122.288C60.9045 121.672 61.6745 121.364 62.6452 121.364C63.4759 121.364 64.1152 121.593 64.5632 122.05C65.0205 122.498 65.2492 123.128 65.2492 123.94C65.2492 124.155 65.2259 124.425 65.1792 124.752L64.9692 124.976ZM63.6252 123.73C63.6252 123.357 63.5412 123.077 63.3732 122.89C63.2052 122.694 62.9579 122.596 62.6312 122.596C62.2672 122.596 61.9639 122.717 61.7212 122.96C61.4785 123.193 61.3152 123.534 61.2312 123.982L63.5972 123.926L63.6252 123.73ZM70.5367 123.94C70.546 123.613 70.4714 123.361 70.3127 123.184C70.1634 122.997 69.944 122.904 69.6547 122.904C69.2347 122.904 68.7867 123.105 68.3107 123.506V125.13L68.3947 128H66.5327L66.6307 125.312L66.5607 121.616L68.3247 121.462V122.414H68.4227C68.936 121.947 69.496 121.611 70.1027 121.406C70.812 121.406 71.3534 121.569 71.7267 121.896C72.1 122.213 72.2774 122.675 72.2587 123.282L72.2167 125.144L72.3007 128H70.4247L70.5367 123.94ZM76.5749 126.628C76.8735 126.628 77.1862 126.549 77.5129 126.39L77.6669 126.53L77.4849 127.636C77.0089 127.879 76.5235 128.028 76.0289 128.084C74.7689 127.953 74.1389 127.337 74.1389 126.236L74.2089 125.074L74.1949 122.666H73.3269L73.2569 122.568L73.3549 121.546H74.1809V120.468L75.8749 119.922L76.0009 120.034L75.9589 121.546H77.6249L77.6809 121.644L77.5969 122.666H75.9309L75.8469 125.802C75.8469 126.101 75.9029 126.315 76.0149 126.446C76.1269 126.567 76.3135 126.628 76.5749 126.628ZM83.6176 124.976L79.8376 125.004C79.9216 126.171 80.5143 126.754 81.6156 126.754C82.1943 126.754 82.8383 126.591 83.5476 126.264L83.7016 126.362L83.4216 127.748C82.7123 128.009 82.045 128.14 81.4196 128.14C80.393 128.14 79.5856 127.841 78.9976 127.244C78.419 126.647 78.1296 125.821 78.1296 124.766C78.1296 123.721 78.4143 122.895 78.9836 122.288C79.553 121.672 80.323 121.364 81.2936 121.364C82.1243 121.364 82.7636 121.593 83.2116 122.05C83.669 122.498 83.8976 123.128 83.8976 123.94C83.8976 124.155 83.8743 124.425 83.8276 124.752L83.6176 124.976ZM82.2736 123.73C82.2736 123.357 82.1896 123.077 82.0216 122.89C81.8536 122.694 81.6063 122.596 81.2796 122.596C80.9156 122.596 80.6123 122.717 80.3696 122.96C80.127 123.193 79.9636 123.534 79.8796 123.982L82.2456 123.926L82.2736 123.73ZM91.3043 123.94C91.3136 123.613 91.239 123.361 91.0803 123.184C90.931 122.997 90.7116 122.904 90.4223 122.904C90.0023 122.904 89.5543 123.105 89.0783 123.506V125.13L89.1623 128H87.3003L87.3983 125.312L87.3283 121.616L89.0923 121.462V122.414H89.1903C89.7036 121.947 90.2636 121.611 90.8703 121.406C91.5796 121.406 92.121 121.569 92.4943 121.896C92.8676 122.213 93.045 122.675 93.0263 123.282L92.9843 125.144L93.0683 128H91.1923L91.3043 123.94ZM97.4124 121.364C98.3644 121.364 99.0924 121.644 99.5964 122.204C100.1 122.764 100.352 123.571 100.352 124.626C100.352 125.765 100.082 126.637 99.5404 127.244C98.9991 127.841 98.2198 128.14 97.2024 128.14C96.2504 128.14 95.5224 127.86 95.0184 127.3C94.5144 126.74 94.2624 125.933 94.2624 124.878C94.2624 123.739 94.5331 122.871 95.0744 122.274C95.6158 121.667 96.3951 121.364 97.4124 121.364ZM97.2864 122.624C96.8384 122.624 96.5118 122.773 96.3064 123.072C96.1104 123.371 96.0124 123.851 96.0124 124.514C96.0124 125.373 96.1151 125.984 96.3204 126.348C96.5258 126.712 96.8618 126.894 97.3284 126.894C97.7764 126.894 98.0984 126.749 98.2944 126.46C98.4998 126.161 98.6024 125.676 98.6024 125.004C98.6024 124.155 98.4951 123.548 98.2804 123.184C98.0751 122.811 97.7438 122.624 97.2864 122.624ZM107.752 123.94C107.761 123.613 107.686 123.361 107.528 123.184C107.378 122.997 107.159 122.904 106.87 122.904C106.45 122.904 106.002 123.105 105.526 123.506V125.13L105.61 128H103.748L103.846 125.312L103.776 121.616L105.54 121.462V122.414H105.638C106.151 121.947 106.711 121.611 107.318 121.406C108.027 121.406 108.568 121.569 108.942 121.896C109.315 122.213 109.492 122.675 109.474 123.282L109.432 125.144L109.516 128H107.64L107.752 123.94ZM113.86 121.364C114.812 121.364 115.54 121.644 116.044 122.204C116.548 122.764 116.8 123.571 116.8 124.626C116.8 125.765 116.529 126.637 115.988 127.244C115.446 127.841 114.667 128.14 113.65 128.14C112.698 128.14 111.97 127.86 111.466 127.3C110.962 126.74 110.71 125.933 110.71 124.878C110.71 123.739 110.98 122.871 111.522 122.274C112.063 121.667 112.842 121.364 113.86 121.364ZM113.734 122.624C113.286 122.624 112.959 122.773 112.754 123.072C112.558 123.371 112.46 123.851 112.46 124.514C112.46 125.373 112.562 125.984 112.768 126.348C112.973 126.712 113.309 126.894 113.776 126.894C114.224 126.894 114.546 126.749 114.742 126.46C114.947 126.161 115.05 125.676 115.05 125.004C115.05 124.155 114.942 123.548 114.728 123.184C114.522 122.811 114.191 122.624 113.734 122.624ZM120.26 121.378C120.894 121.378 121.492 121.485 122.052 121.7L121.8 123.072L121.576 123.142C121.305 122.965 121.034 122.829 120.764 122.736C120.493 122.643 120.255 122.596 120.05 122.596C119.826 122.596 119.648 122.657 119.518 122.778C119.387 122.89 119.322 123.03 119.322 123.198C119.322 123.394 119.406 123.553 119.574 123.674C119.751 123.795 120.026 123.931 120.4 124.08C120.773 124.229 121.081 124.374 121.324 124.514C121.566 124.654 121.772 124.85 121.94 125.102C122.117 125.345 122.206 125.648 122.206 126.012C122.206 126.385 122.108 126.735 121.912 127.062C121.725 127.379 121.436 127.641 121.044 127.846C120.652 128.042 120.171 128.14 119.602 128.14C118.93 128.14 118.234 128 117.516 127.72L117.726 126.264L117.908 126.152C118.197 126.395 118.519 126.591 118.874 126.74C119.228 126.88 119.541 126.95 119.812 126.95C120.064 126.95 120.26 126.889 120.4 126.768C120.54 126.637 120.61 126.483 120.61 126.306C120.61 126.11 120.521 125.951 120.344 125.83C120.176 125.709 119.905 125.573 119.532 125.424C119.149 125.256 118.836 125.107 118.594 124.976C118.351 124.836 118.141 124.64 117.964 124.388C117.796 124.136 117.712 123.823 117.712 123.45C117.712 122.843 117.94 122.349 118.398 121.966C118.855 121.574 119.476 121.378 120.26 121.378ZM125.633 121.378C126.267 121.378 126.865 121.485 127.425 121.7L127.173 123.072L126.949 123.142C126.678 122.965 126.407 122.829 126.137 122.736C125.866 122.643 125.628 122.596 125.423 122.596C125.199 122.596 125.021 122.657 124.891 122.778C124.76 122.89 124.695 123.03 124.695 123.198C124.695 123.394 124.779 123.553 124.947 123.674C125.124 123.795 125.399 123.931 125.773 124.08C126.146 124.229 126.454 124.374 126.697 124.514C126.939 124.654 127.145 124.85 127.313 125.102C127.49 125.345 127.579 125.648 127.579 126.012C127.579 126.385 127.481 126.735 127.285 127.062C127.098 127.379 126.809 127.641 126.417 127.846C126.025 128.042 125.544 128.14 124.975 128.14C124.303 128.14 123.607 128 122.889 127.72L123.099 126.264L123.281 126.152C123.57 126.395 123.892 126.591 124.247 126.74C124.601 126.88 124.914 126.95 125.185 126.95C125.437 126.95 125.633 126.889 125.773 126.768C125.913 126.637 125.983 126.483 125.983 126.306C125.983 126.11 125.894 125.951 125.717 125.83C125.549 125.709 125.278 125.573 124.905 125.424C124.522 125.256 124.209 125.107 123.967 124.976C123.724 124.836 123.514 124.64 123.337 124.388C123.169 124.136 123.085 123.823 123.085 123.45C123.085 122.843 123.313 122.349 123.771 121.966C124.228 121.574 124.849 121.378 125.633 121.378ZM131.524 121.364C132.476 121.364 133.204 121.644 133.708 122.204C134.212 122.764 134.464 123.571 134.464 124.626C134.464 125.765 134.193 126.637 133.652 127.244C133.11 127.841 132.331 128.14 131.314 128.14C130.362 128.14 129.634 127.86 129.13 127.3C128.626 126.74 128.374 125.933 128.374 124.878C128.374 123.739 128.644 122.871 129.186 122.274C129.727 121.667 130.506 121.364 131.524 121.364ZM131.398 122.624C130.95 122.624 130.623 122.773 130.418 123.072C130.222 123.371 130.124 123.851 130.124 124.514C130.124 125.373 130.226 125.984 130.432 126.348C130.637 126.712 130.973 126.894 131.44 126.894C131.888 126.894 132.21 126.749 132.406 126.46C132.611 126.161 132.714 125.676 132.714 125.004C132.714 124.155 132.606 123.548 132.392 123.184C132.186 122.811 131.855 122.624 131.398 122.624ZM70.0475 137.364C70.3555 137.364 70.6589 137.397 70.9575 137.462C71.2655 137.518 71.5362 137.602 71.7695 137.714L71.4615 139.198L71.3075 139.268C70.8315 139.007 70.4069 138.876 70.0335 138.876C69.6042 138.876 69.2729 139.03 69.0395 139.338C68.8062 139.646 68.6895 140.085 68.6895 140.654C68.6895 141.307 68.8155 141.807 69.0675 142.152C69.3195 142.497 69.6789 142.67 70.1455 142.67C70.5655 142.67 71.0322 142.553 71.5455 142.32L71.6855 142.432L71.5035 143.874C70.9435 144.051 70.3695 144.14 69.7815 144.14C68.8855 144.14 68.1855 143.851 67.6815 143.272C67.1775 142.684 66.9255 141.867 66.9255 140.822C66.9255 139.739 67.2009 138.895 67.7515 138.288C68.3022 137.672 69.0675 137.364 70.0475 137.364ZM75.4623 137.364C76.4143 137.364 77.1423 137.644 77.6463 138.204C78.1503 138.764 78.4023 139.571 78.4023 140.626C78.4023 141.765 78.1316 142.637 77.5903 143.244C77.0489 143.841 76.2696 144.14 75.2523 144.14C74.3003 144.14 73.5723 143.86 73.0683 143.3C72.5643 142.74 72.3123 141.933 72.3123 140.878C72.3123 139.739 72.5829 138.871 73.1243 138.274C73.6656 137.667 74.4449 137.364 75.4623 137.364ZM75.3363 138.624C74.8883 138.624 74.5616 138.773 74.3563 139.072C74.1603 139.371 74.0623 139.851 74.0623 140.514C74.0623 141.373 74.1649 141.984 74.3703 142.348C74.5756 142.712 74.9116 142.894 75.3783 142.894C75.8263 142.894 76.1483 142.749 76.3443 142.46C76.5496 142.161 76.6523 141.676 76.6523 141.004C76.6523 140.155 76.5449 139.548 76.3303 139.184C76.1249 138.811 75.7936 138.624 75.3363 138.624ZM83.1942 137.476C83.2782 137.476 83.3949 137.485 83.5442 137.504V139.226L83.3482 139.296C83.1895 139.231 83.0169 139.198 82.8302 139.198C82.2889 139.198 81.7989 139.548 81.3602 140.248V141.13L81.4582 144H79.5962L79.7082 141.312L79.6242 137.616L81.3882 137.462L81.3742 138.736H81.4862C81.9435 137.896 82.5129 137.476 83.1942 137.476ZM87.9074 137.406C88.7194 137.406 89.3447 137.681 89.7834 138.232C90.222 138.783 90.4414 139.562 90.4414 140.57C90.4414 141.709 90.1567 142.591 89.5874 143.216C89.0274 143.832 88.234 144.14 87.2074 144.14C86.9087 144.14 86.596 144.112 86.2694 144.056L86.3114 146.59H84.4634L84.5614 141.312L84.4774 137.616L86.2554 137.462L86.2414 138.414H86.3394C86.6007 138.162 86.8527 137.961 87.0954 137.812C87.338 137.653 87.6087 137.518 87.9074 137.406ZM87.2214 142.922C87.7067 142.922 88.0754 142.749 88.3274 142.404C88.5794 142.059 88.7054 141.55 88.7054 140.878C88.7054 140.225 88.598 139.735 88.3834 139.408C88.178 139.072 87.87 138.904 87.4594 138.904C87.058 138.904 86.652 139.105 86.2414 139.506L86.2274 141.13L86.2554 142.712C86.5914 142.852 86.9134 142.922 87.2214 142.922ZM94.4115 137.364C95.3635 137.364 96.0915 137.644 96.5955 138.204C97.0995 138.764 97.3515 139.571 97.3515 140.626C97.3515 141.765 97.0808 142.637 96.5395 143.244C95.9981 143.841 95.2188 144.14 94.2015 144.14C93.2495 144.14 92.5215 143.86 92.0175 143.3C91.5135 142.74 91.2615 141.933 91.2615 140.878C91.2615 139.739 91.5321 138.871 92.0735 138.274C92.6148 137.667 93.3941 137.364 94.4115 137.364ZM94.2855 138.624C93.8375 138.624 93.5108 138.773 93.3055 139.072C93.1095 139.371 93.0115 139.851 93.0115 140.514C93.0115 141.373 93.1141 141.984 93.3195 142.348C93.5248 142.712 93.8608 142.894 94.3275 142.894C94.7755 142.894 95.0975 142.749 95.2935 142.46C95.4988 142.161 95.6015 141.676 95.6015 141.004C95.6015 140.155 95.4941 139.548 95.2795 139.184C95.0741 138.811 94.7428 138.624 94.2855 138.624ZM98.9193 142.11C99.2086 142.11 99.4326 142.194 99.5913 142.362C99.7593 142.53 99.8433 142.763 99.8433 143.062C99.8433 143.379 99.7546 143.631 99.5773 143.818C99.3999 144.005 99.1573 144.098 98.8493 144.098C98.5413 144.098 98.3033 144.014 98.1353 143.846C97.9766 143.678 97.8973 143.44 97.8973 143.132C97.8973 142.824 97.9859 142.577 98.1633 142.39C98.3499 142.203 98.6019 142.11 98.9193 142.11Z" fill="white"/>
<defs>
<filter id="filter0_b_206:37165" x="3" y="67" width="161" height="97" filterUnits="userSpaceOnUse" color-interpolation-filters="sRGB">
<feFlood flood-opacity="0" result="BackgroundImageFix"/>
<feGaussianBlur in="BackgroundImage" stdDeviation="5"/>
<feComposite in2="SourceAlpha" operator="in" result="effect1_backgroundBlur_206:37165"/>
<feBlend mode="normal" in="SourceGraphic" in2="effect1_backgroundBlur_206:37165" result="shape"/>
</filter>
<linearGradient id="paint0_linear_206:37165" x1="52.9772" y1="51.5614" x2="52.9772" y2="65.5389" gradientUnits="userSpaceOnUse">
<stop stop-color="white"/>
<stop offset="1" stop-color="white" stop-opacity="0"/>
</linearGradient>
<linearGradient id="paint1_linear_206:37165" x1="98.348" y1="21.5133" x2="98.348" y2="35.4908" gradientUnits="userSpaceOnUse">
<stop stop-color="white"/>
<stop offset="1" stop-color="white" stop-opacity="0"/>
</linearGradient>
<linearGradient id="paint2_linear_206:37165" x1="61.9077" y1="28.0757" x2="61.9077" y2="42.0532" gradientUnits="userSpaceOnUse">
<stop stop-color="white"/>
<stop offset="1" stop-color="white" stop-opacity="0"/>
</linearGradient>
<linearGradient id="paint3_linear_206:37165" x1="96.1815" y1="68.0317" x2="96.1815" y2="82.0092" gradientUnits="userSpaceOnUse">
<stop stop-color="white"/>
<stop offset="1" stop-color="white" stop-opacity="0"/>
</linearGradient>
<linearGradient id="paint4_linear_206:37165" x1="113.515" y1="40.1241" x2="113.515" y2="54.1016" gradientUnits="userSpaceOnUse">
<stop stop-color="white"/>
<stop offset="1" stop-color="white" stop-opacity="0"/>
</linearGradient>
<clipPath id="clip0_206:37165">
<rect width="24.8367" height="24.8367" fill="white" transform="translate(44.9288 43.7861)"/>
</clipPath>
<clipPath id="clip1_206:37165">
<rect width="24.8367" height="24.8367" fill="white" transform="translate(105.123 14.465) rotate(90)"/>
</clipPath>
<clipPath id="clip2_206:37165">
<rect width="24.8367" height="24.8367" fill="white" transform="translate(58.2614 38.2311) rotate(-123.202)"/>
</clipPath>
<clipPath id="clip3_206:37165">
<rect width="24.8367" height="24.8367" fill="white" transform="translate(97.6241 78.238) rotate(-151.267)"/>
</clipPath>
<clipPath id="clip4_206:37165">
<rect width="24.8367" height="24.8367" fill="white" transform="translate(102.122 37.9915) rotate(-24.5374)"/>
</clipPath>
</defs>
</svg>
