<svg width="167" height="167" viewBox="0 0 167 167" fill="none" xmlns="http://www.w3.org/2000/svg">
<mask id="mask0_206:37181" style="mask-type:alpha" maskUnits="userSpaceOnUse" x="0" y="0" width="167" height="167">
<rect x="1" y="1" width="165" height="165" rx="8" fill="#5988D6" stroke="#EDE6FC" stroke-opacity="0.3"/>
</mask>
<g mask="url(#mask0_206:37181)">
<rect x="1" y="1" width="165" height="165" rx="8" fill="#7A83D9" stroke="#EDE6FC" stroke-opacity="0.3"/>
<path d="M64.2474 52.7171L53.0667 70.2078C53.0667 70.2078 51.5931 71.0562 51.7889 70.7471C51.9847 70.4379 63.8112 51.9477 63.8112 51.9477L64.2474 52.7171Z" fill="#E5ECF3"/>
<path d="M64.0372 60.5197L64.0371 60.52L55.7489 69.4925L50.6214 66.7981L55.4369 55.3505C57.2268 53.9154 58.691 51.2852 59.7015 49.0601C60.2194 47.9197 60.6268 46.8657 60.9048 46.097C61.0438 45.7124 61.1507 45.3986 61.2229 45.1805C61.259 45.0714 61.2865 44.9862 61.3051 44.928L61.3158 44.894L83.4177 11.7336L89.8338 15.9255L70.4521 50.3364C68.3279 51.6112 66.7279 54.1901 65.6658 56.393C65.1215 57.522 64.7082 58.5746 64.431 59.3447C64.2923 59.73 64.1874 60.0453 64.1169 60.2649C64.0817 60.3748 64.0551 60.4608 64.0372 60.5197Z" fill="url(#paint0_linear_206:37181)" stroke="#FBFDF8" stroke-width="0.8"/>
<path d="M70.7626 50.6705C68.9196 50.1224 67.1576 49.3318 65.5229 48.3194C63.8083 47.4414 62.2361 46.3095 60.8595 44.9621C60.9506 44.8464 63.0131 46.3596 65.7279 47.9274C68.4428 49.4953 70.8163 50.5449 70.7626 50.6705Z" fill="#263238"/>
<path d="M64.3356 60.6412C62.6952 59.9122 61.1203 59.0439 59.6282 58.0459C58.0515 57.1844 56.5566 56.181 55.162 55.0482C56.7938 55.7645 58.3611 56.6196 59.8466 57.6041C61.4313 58.4793 62.9338 59.4958 64.3356 60.6412Z" fill="#263238"/>
<path d="M85.1196 25.1688C83.6828 24.5804 82.3074 23.8521 81.0131 22.9946C79.6398 22.2672 78.3456 21.3996 77.1511 20.4056C78.5926 20.9901 79.9703 21.7213 81.2622 22.5877C82.6343 23.3116 83.9271 24.1766 85.1196 25.1688Z" fill="#263238"/>
<path d="M72.5467 40.95L72.6919 41.0555C73.0883 41.3266 73.3618 41.7431 73.4527 42.2147C73.5437 42.6862 73.4449 43.1746 73.1778 43.5737L68.3646 50.9819C68.234 51.1884 68.0632 51.3665 67.8624 51.5057C67.6616 51.6449 67.4348 51.7423 67.1956 51.7921C66.9563 51.8419 66.7095 51.843 66.4699 51.7955C66.2302 51.748 66.0025 51.6527 65.8004 51.5154C65.5982 51.3869 65.4233 51.2199 65.2857 51.0238C65.1482 50.8277 65.0506 50.6063 64.9987 50.3725C64.9467 50.1386 64.9414 49.8968 64.983 49.6609C65.0245 49.425 65.1123 49.1996 65.241 48.9976L69.9091 41.4838C70.0393 41.2667 70.2134 41.0791 70.4202 40.933C70.627 40.7869 70.862 40.6855 71.1102 40.6353C71.3584 40.5851 71.6143 40.5871 71.8616 40.6413C72.109 40.6955 72.3423 40.8006 72.5467 40.95Z" fill="#455A64"/>
<rect x="93.0996" y="17.1371" width="8.78813" height="3.25193" transform="rotate(118.804 93.0996 17.1371)" fill="#263238"/>
<rect x="89.3531" y="23.9537" width="13.3002" height="1.59599" transform="rotate(118.804 89.3531 23.9537)" fill="#263238"/>
<path opacity="0.5" d="M83.7169 69.3016L83.798 69.3372C84.549 69.6295 85.3285 69.8408 86.1234 69.9677C88.1379 70.3123 90.1757 70.4993 92.2187 70.5269C93.5858 70.5625 94.9599 70.5839 96.3269 70.4948C96.7955 70.4948 97.2642 70.5162 97.7363 70.5198C99.7593 70.5431 101.782 70.4431 103.793 70.2206C104.726 70.1221 105.652 69.9566 106.562 69.7255C107.255 69.5697 107.915 69.2899 108.511 68.8991C109.073 68.4276 109.467 67.7836 109.635 67.0648C109.904 66.0774 110.077 65.0658 110.152 64.0444C110.306 62.0301 110.359 60.0091 110.311 57.9894C110.293 56.0162 110.343 54.0322 110.36 52.0555C110.382 49.4601 110.392 46.8636 110.392 44.2658C110.392 43.1261 110.392 41.997 110.392 40.8643C110.392 39.9169 110.392 38.9588 110.353 38.0149C110.273 36.4593 110.004 34.9196 109.55 33.4309C109.259 32.5273 108.88 31.6552 108.419 30.8272C108.098 30.2146 107.75 29.6126 107.401 29.0143C106.999 28.3019 106.559 27.618 106.164 26.9092C105.883 26.4424 105.71 25.9178 105.657 25.3741C105.593 24.7437 105.569 24.1097 105.558 23.4757C105.558 23.002 105.54 22.5282 105.537 22.051C105.539 22.0225 105.539 21.994 105.537 21.9655C105.537 21.5915 105.537 21.214 105.537 20.84C105.537 20.8093 105.532 20.7788 105.521 20.7503C105.509 20.7218 105.492 20.6958 105.471 20.6739C105.45 20.6521 105.424 20.6347 105.396 20.6228C105.368 20.611 105.338 20.6049 105.308 20.6049H103.419H98.8955C97.0633 20.6049 95.2347 20.6049 93.4061 20.5871H88.6743C88.1528 20.5871 87.6173 20.5871 87.1099 20.5871C86.8633 20.5871 86.6131 20.5657 86.3665 20.5871H86.3524C86.2903 20.5879 86.2309 20.6128 86.1864 20.6565C86.1418 20.7002 86.1155 20.7595 86.1128 20.8222C86.1128 21.1997 86.1128 21.5737 86.1128 21.9477C86.1128 22.2148 86.1128 22.4855 86.1128 22.7455C86.1128 23.1017 86.1128 23.4579 86.0881 23.8141C86.067 24.3412 86.0423 24.8826 85.9895 25.3955C85.9264 25.9428 85.7447 26.4694 85.4575 26.9377C84.6048 28.4123 83.6782 29.8335 82.896 31.3508C82.2115 32.7301 81.7364 34.2058 81.4867 35.7282C81.0885 37.9543 81.1343 40.2303 81.1343 42.4956C81.0897 44.9936 81.0674 47.5177 81.0674 50.068C81.0674 52.3653 81.0674 54.6556 81.085 56.9529C81.085 58.7338 81.0322 60.5147 81.085 62.2956C81.1205 63.4006 81.2253 64.5022 81.3986 65.5938C81.5054 66.4785 81.7755 67.3351 82.1949 68.1191C82.5637 68.668 83.0973 69.0826 83.7169 69.3016Z" fill="white"/>
<path d="M110.36 52.0554C110.382 49.4601 110.392 46.8635 110.392 44.2658C110.392 43.126 110.392 41.9969 110.392 40.8643C110.392 39.9169 110.392 38.9587 110.353 38.0149C110.29 36.8458 110.124 35.6848 109.857 34.5457L81.7404 34.2928C81.6241 34.7487 81.5184 35.2046 81.4373 35.6712C81.0392 37.8973 81.085 40.1733 81.085 42.4386C81.0733 44.9746 81.0674 47.5177 81.0674 50.0679C81.0674 52.3653 81.0674 54.6555 81.085 56.9529C81.085 58.7338 81.0322 60.5147 81.085 62.2955C81.1205 63.4005 81.2253 64.5022 81.3986 65.5938C81.5054 66.4785 81.7755 67.3351 82.1949 68.1191C82.5624 68.6655 83.0933 69.0786 83.7099 69.298L83.7909 69.3336C84.542 69.6259 85.3214 69.8372 86.1163 69.9641C88.1309 70.3087 90.1687 70.4956 92.2117 70.5233C93.5787 70.5589 94.9528 70.5803 96.3199 70.4912C96.7885 70.4912 97.2571 70.5126 97.7292 70.5162C99.7522 70.5394 101.775 70.4395 103.786 70.217C104.719 70.1185 105.645 69.953 106.555 69.7219C107.249 69.5664 107.909 69.2853 108.504 68.892C109.066 68.4224 109.461 67.7793 109.628 67.0612C109.896 66.0737 110.07 65.0622 110.145 64.0408C110.299 62.0265 110.352 60.0056 110.304 57.9858C110.311 56.0161 110.343 54.0322 110.36 52.0554Z" fill="#676FC0"/>
<path opacity="0.9" d="M83.7134 69.3016C84.4901 69.6089 85.2967 69.8321 86.1199 69.9676C88.1348 70.3081 90.1725 70.4927 92.2152 70.5197C93.5823 70.5589 94.9599 70.5767 96.327 70.4912C96.7967 70.5055 97.2665 70.5126 97.7363 70.5126C99.7616 70.5406 101.787 70.4419 103.8 70.217C104.732 70.117 105.657 69.9503 106.566 69.7183C107.259 69.5641 107.919 69.2842 108.514 68.892C109.077 68.4222 109.473 67.7794 109.642 67.0612C109.91 66.074 110.081 65.0622 110.153 64.0408C110.308 62.0266 110.361 60.0056 110.311 57.9858C110.311 56.009 110.35 54.0287 110.364 52.0519C110.383 49.4565 110.393 46.8588 110.396 44.2587C110.396 43.126 110.396 41.9934 110.396 40.8607C110.396 39.9097 110.396 38.9552 110.357 38.0113C110.279 36.4578 110.009 34.9203 109.554 33.4344C109.064 31.853 108.229 30.4354 107.404 29.0107C106.999 28.2983 106.566 27.618 106.164 26.9128C105.887 26.4434 105.715 25.9181 105.66 25.3741C105.555 24.2735 105.551 23.1586 105.544 22.0509C105.544 21.6485 105.544 21.2424 105.544 20.8364C105.544 20.775 105.52 20.7161 105.477 20.6727C105.434 20.6292 105.376 20.6049 105.315 20.6049H104.579C104.579 21.1249 104.522 22.1827 104.522 22.1827C104.522 23.2513 104.522 24.3697 104.642 25.4774C104.711 26.1672 104.929 26.8334 105.28 27.4292C105.505 27.8317 105.745 28.2271 105.984 28.6224C106.168 28.9252 106.337 29.2315 106.527 29.5378L106.612 29.6803C107.397 31.0444 108.144 32.3338 108.585 33.7478C109.014 35.1516 109.267 36.6043 109.339 38.0719C109.381 38.802 109.377 39.5571 109.377 40.2908V40.875C109.377 42.0076 109.377 43.1367 109.377 44.2694C109.377 46.8671 109.366 49.4624 109.342 52.0554C109.342 52.7678 109.342 53.4801 109.317 54.1925C109.3 55.4427 109.282 56.732 109.289 58.0072V58.0962C109.336 60.0483 109.285 62.0015 109.134 63.9482C109.065 64.9003 108.907 65.8437 108.662 66.7656C108.576 67.0786 108.448 67.3782 108.282 67.656C108.183 67.8121 108.057 67.9495 107.912 68.0621C107.419 68.3779 106.875 68.6023 106.305 68.7246C105.442 68.9436 104.565 69.1007 103.68 69.1947C101.709 69.4154 99.7263 69.5129 97.7433 69.4868C97.2818 69.4868 96.8202 69.4868 96.3587 69.4619H96.2635C95.0092 69.5402 93.7514 69.5295 92.2469 69.4904C90.256 69.4611 88.2702 69.2789 86.3066 68.9454C85.5544 68.8254 84.8173 68.6236 84.1081 68.3435C83.6915 68.205 83.3298 67.9354 83.0757 67.5741C82.7288 66.9082 82.5044 66.1841 82.4133 65.437C82.2489 64.3889 82.1501 63.3313 82.1174 62.2706C82.0716 61.1629 82.0821 60.0303 82.0927 58.9297C82.0927 58.2743 82.0927 57.6189 82.0927 56.9636C82.0739 54.6698 82.0669 52.3772 82.0716 50.0857C82.0716 47.5403 82.0798 44.9936 82.0962 42.4457V41.4591C82.047 39.5901 82.1578 37.7203 82.4274 35.8707C82.6619 34.4473 83.1098 33.0685 83.7557 31.7817C84.256 30.8022 84.8444 29.8299 85.4117 28.8896C85.7041 28.4016 86.0001 27.9136 86.2855 27.4221C86.6489 26.8258 86.8775 26.1556 86.9549 25.4596C87.0148 24.8932 87.0395 24.334 87.0571 23.8105C87.0817 23.2014 87.1452 21.4989 87.1628 20.5621H87.0958C86.8492 20.5621 86.599 20.5407 86.3524 20.5621C86.2904 20.5621 86.2309 20.5868 86.1867 20.6307C86.1425 20.6747 86.1173 20.7345 86.1163 20.7972C86.1163 21.7909 86.1163 22.7811 86.067 23.7748C86.0459 24.302 86.0212 24.8434 85.9684 25.3563C85.9046 25.9035 85.723 26.4299 85.4363 26.8985C84.5837 28.3695 83.6535 29.7943 82.8784 31.308C82.1867 32.6872 81.7056 34.1642 81.4515 35.689C81.0568 37.9116 81.1167 40.1876 81.0991 42.4564C81.078 44.9805 81.0674 47.5177 81.0674 50.0679C81.0674 52.3617 81.0745 54.6567 81.0886 56.9529C81.0886 58.7338 81.0357 60.5147 81.0886 62.2956C81.1241 63.4005 81.2288 64.5022 81.4021 65.5938C81.5082 66.4791 81.7796 67.3361 82.2019 68.1191C82.5675 68.6667 83.0973 69.0812 83.7134 69.3016Z" fill="white"/>
<path d="M86.0811 63.9589C86.4085 64.0593 86.743 64.1343 87.0817 64.1833C87.3776 64.2332 87.6701 64.2652 87.9696 64.2937C89.0829 64.397 90.2034 64.3863 91.3238 64.3899L97.1619 64.4113C97.391 64.4113 97.6305 64.4113 97.8666 64.4113H99.3006C100.241 64.4113 101.179 64.4291 102.119 64.4113C102.762 64.3989 103.405 64.3525 104.043 64.2724C104.583 64.2223 105.113 64.0952 105.618 63.8948C107.08 63.243 107.344 61.5654 107.397 60.1264C107.573 55.1399 107.834 50.1142 107.834 45.1099C107.834 43.5285 107.834 41.94 107.686 40.3656C107.65 39.7317 107.532 39.1054 107.334 38.5028C106.922 37.3951 105.477 37.3702 104.494 37.2028L104.346 37.1814C103.829 37.1079 103.307 37.0663 102.785 37.0567C101.911 37.0104 101.024 36.9748 100.16 36.9534C98.825 36.9214 97.4826 36.8893 96.1437 36.9178C95.4602 36.9178 94.7731 36.9178 94.0896 36.9178C91.3414 36.9392 88.4523 36.786 85.7534 37.3773C85.3615 37.4349 84.9885 37.585 84.6647 37.8154C84.2781 38.18 84.0343 38.6731 83.9776 39.2045C83.4632 42.2961 83.6676 45.5267 83.6993 48.6432C83.7204 50.7803 83.7639 52.9174 83.8297 55.0545C83.8825 56.9351 83.6077 59.2004 84.0587 61.0311C84.1384 61.8854 84.4838 62.6921 85.0452 63.3356C85.3366 63.6236 85.6917 63.8373 86.0811 63.9589Z" fill="white"/>
<path d="M86.303 42.6915L86.2291 45.6941C86.2258 45.8327 86.2498 45.9705 86.2998 46.0995C86.3498 46.2285 86.4247 46.3462 86.5201 46.4457C86.6155 46.5452 86.7296 46.6244 86.8557 46.6788C86.9817 46.7333 87.1173 46.7617 87.2543 46.7627L104.205 46.9585C104.342 46.9619 104.479 46.9374 104.607 46.8867C104.735 46.836 104.851 46.7599 104.95 46.6631C105.048 46.5662 105.127 46.4505 105.18 46.3226C105.234 46.1948 105.262 46.0574 105.262 45.9185V42.7699C105.262 42.4928 105.153 42.227 104.96 42.0307C104.766 41.8344 104.504 41.7237 104.23 41.7227L87.3389 41.6729C87.0687 41.6718 86.8089 41.778 86.6153 41.9684C86.4216 42.1589 86.3095 42.4185 86.303 42.6915Z" fill="#B6BBED"/>
<path d="M90.0237 50.9691C90.0194 51.038 90.029 51.1071 90.052 51.1722C90.0749 51.2373 90.1107 51.2969 90.1572 51.3476C90.2036 51.3982 90.2598 51.4388 90.3223 51.4668C90.3847 51.4948 90.4522 51.5096 90.5205 51.5105L100.935 51.571C101.001 51.5715 101.067 51.5588 101.128 51.5336C101.189 51.5083 101.245 51.4712 101.292 51.4242C101.338 51.3771 101.376 51.3212 101.401 51.2596C101.426 51.198 101.439 51.132 101.439 51.0652V51.0368C101.44 50.9699 101.428 50.9035 101.403 50.8415C101.378 50.7796 101.342 50.7232 101.295 50.6757C101.248 50.6283 101.193 50.5907 101.132 50.5653C101.071 50.5398 101.005 50.5269 100.939 50.5274L90.5275 50.4954C90.3998 50.495 90.2767 50.5438 90.1832 50.6317C90.0896 50.7197 90.0326 50.8403 90.0237 50.9691Z" fill="#C4CBD3"/>
<path d="M90.0132 54.2139C90.0094 54.283 90.0195 54.3522 90.0428 54.4173C90.0662 54.4823 90.1023 54.542 90.1491 54.5926C90.1958 54.6431 90.2522 54.6836 90.3148 54.7116C90.3775 54.7396 90.4451 54.7544 90.5135 54.7553L100.925 54.8158C101.058 54.8158 101.186 54.7628 101.281 54.6681C101.376 54.5735 101.43 54.4449 101.432 54.3101V54.2816C101.432 54.1471 101.38 54.0181 101.286 53.9227C101.192 53.8272 101.065 53.7732 100.932 53.7722L90.5171 53.7402C90.3893 53.7399 90.2662 53.7886 90.1727 53.8765C90.0792 53.9645 90.0222 54.0851 90.0132 54.2139Z" fill="#C4CBD3"/>
<path d="M90.0062 57.4586C90.0014 57.5277 90.0107 57.597 90.0334 57.6623C90.0562 57.7276 90.092 57.7875 90.1385 57.8382C90.1851 57.889 90.2415 57.9295 90.3042 57.9574C90.3669 57.9852 90.4346 57.9997 90.503 58L100.918 58.0606C101.051 58.0606 101.179 58.0074 101.273 57.9127C101.367 57.8179 101.421 57.6893 101.422 57.5548V57.5263C101.422 57.4596 101.41 57.3934 101.385 57.3317C101.36 57.2699 101.323 57.2137 101.277 57.1664C101.23 57.119 101.175 57.0815 101.114 57.0558C101.053 57.0302 100.988 57.017 100.922 57.017L90.5066 56.9849C90.3792 56.9847 90.2565 57.0335 90.1635 57.1215C90.0706 57.2096 90.0143 57.3301 90.0062 57.4586Z" fill="#C4CBD3"/>
<g style="mix-blend-mode:multiply">
<path d="M86.0635 23.4115C86.0635 23.1764 86.0635 22.9378 86.0635 22.6992C86.0635 22.4605 86.0635 22.1684 86.0635 21.9013C86.0635 21.5451 86.0635 21.1533 86.0635 20.7758C86.0662 20.7131 86.0925 20.6538 86.137 20.6101C86.1816 20.5664 86.241 20.5416 86.3031 20.5407H86.3524C86.599 20.5407 86.8492 20.5407 87.0958 20.5407C87.6173 20.5407 88.1528 20.5407 88.6602 20.5407H93.392C95.2206 20.5407 97.0492 20.5407 98.8814 20.5585H103.405H105.294C105.324 20.5585 105.354 20.5646 105.382 20.5765C105.41 20.5883 105.436 20.6057 105.457 20.6276C105.478 20.6495 105.495 20.6754 105.506 20.7039C105.518 20.7324 105.523 20.7629 105.523 20.7936C105.523 21.1498 105.523 21.5451 105.523 21.9191C105.525 21.9476 105.525 21.9761 105.523 22.0046C105.523 22.4819 105.523 22.9556 105.544 23.4293L86.0635 23.4115Z" fill="#C4CBD3"/>
</g>
<path d="M85.144 21.8978H86.9761H89.6045C91.2464 21.8978 92.8848 21.8658 94.5372 21.8586C95.7492 21.8586 96.9589 21.8586 98.1662 21.8586C100.146 21.8871 102.126 21.9512 104.114 21.9619H105.551H106.154C106.506 21.9619 106.901 21.9904 107.267 21.9619C107.654 21.9437 108.021 21.7857 108.303 21.5167C108.464 21.363 108.595 21.1807 108.69 20.9789C109.36 19.5328 109.321 17.7483 109.205 16.1918C109.202 16.1059 109.194 16.0202 109.18 15.9354C109.139 15.4601 108.973 15.0044 108.7 14.6151C108.427 14.2259 108.056 13.9169 107.626 13.72C105.706 12.7903 103.363 13.2605 101.32 13.2605C99.107 13.2605 96.8908 13.2605 94.6711 13.2605C94.0087 13.2605 93.3393 13.2605 92.6733 13.2605C91.1912 13.2605 89.7044 13.2688 88.2128 13.2854C86.962 13.2854 85.3448 13.0503 84.1575 13.5241C83.6055 13.7698 83.1462 14.188 82.8468 14.7173C82.4028 15.4866 82.4627 16.4127 82.4944 17.2711C82.5062 18.208 82.5886 19.1428 82.7411 20.0671C82.8096 20.5254 82.9887 20.9597 83.2625 21.3315C83.347 21.4395 83.4467 21.5343 83.5585 21.6129C84.0024 21.9512 84.5908 21.9014 85.144 21.8978Z" fill="#25405D"/>
<g style="mix-blend-mode:multiply">
<path d="M110.353 38.0113C110.273 36.4557 110.004 34.916 109.55 33.4273C109.259 32.5238 108.88 31.6516 108.419 30.8237C108.098 30.211 107.75 29.6091 107.401 29.0107C106.999 28.2984 106.559 27.6145 106.164 26.9057C105.883 26.4388 105.71 25.9142 105.657 25.3706C105.593 24.7401 105.569 24.1061 105.558 23.4721C105.558 22.9984 105.54 22.5247 105.537 22.0474C105.539 22.0189 105.539 21.9904 105.537 21.9619H106.139C106.492 21.9619 106.886 21.9904 107.253 21.9619C107.64 21.9437 108.007 21.7857 108.289 21.5167C108.449 21.363 108.581 21.1807 108.676 20.9789C109.346 19.5328 109.307 17.7483 109.191 16.1918C109.188 16.1059 109.18 16.0202 109.166 15.9354C109.124 15.4601 108.959 15.0044 108.686 14.6151C108.413 14.2259 108.042 13.9169 107.612 13.72C105.692 12.7903 103.349 13.2605 101.305 13.2605H96.5701V70.4913C96.9541 70.4913 97.3382 70.5091 97.7257 70.5126C99.7487 70.5359 101.771 70.436 103.782 70.2135C104.716 70.115 105.641 69.9495 106.552 69.7184C107.245 69.5626 107.905 69.2828 108.5 68.892C109.062 68.4204 109.457 67.7765 109.624 67.0577C109.893 66.0702 110.066 65.0587 110.142 64.0373C110.295 62.0229 110.348 60.002 110.3 57.9823C110.283 56.009 110.332 54.0251 110.35 52.0483C110.371 49.453 110.382 46.8564 110.382 44.2587C110.382 43.1189 110.382 41.9899 110.382 40.8572C110.389 39.9169 110.406 38.9588 110.353 38.0113Z" fill="#DEE2E7"/>
</g>
</g>
<g filter="url(#filter0_b_206:37181)">
<rect x="13" y="77" width="141" height="77" rx="10" fill="black" fill-opacity="0.8"/>
</g>
<path d="M48.5888 101.144L48.6728 104H46.7688L46.8668 101.312L46.7688 94.984H48.7008L48.5888 101.144ZM54.5816 99.94C54.591 99.6133 54.5163 99.3613 54.3576 99.184C54.2083 98.9973 53.989 98.904 53.6996 98.904C53.2796 98.904 52.8316 99.1047 52.3556 99.506V101.13L52.4396 104H50.5776L50.6756 101.312L50.6056 97.616L52.3696 97.462V98.414H52.4676C52.981 97.9473 53.541 97.6113 54.1476 97.406C54.857 97.406 55.3983 97.5693 55.7716 97.896C56.145 98.2133 56.3223 98.6753 56.3036 99.282L56.2616 101.144L56.3456 104H54.4696L54.5816 99.94ZM60.1718 97.378C60.8065 97.378 61.4038 97.4853 61.9638 97.7L61.7118 99.072L61.4878 99.142C61.2171 98.9647 60.9465 98.8293 60.6758 98.736C60.4051 98.6427 60.1671 98.596 59.9618 98.596C59.7378 98.596 59.5605 98.6567 59.4298 98.778C59.2991 98.89 59.2338 99.03 59.2338 99.198C59.2338 99.394 59.3178 99.5527 59.4858 99.674C59.6631 99.7953 59.9385 99.9307 60.3118 100.08C60.6851 100.229 60.9931 100.374 61.2358 100.514C61.4785 100.654 61.6838 100.85 61.8518 101.102C62.0291 101.345 62.1178 101.648 62.1178 102.012C62.1178 102.385 62.0198 102.735 61.8238 103.062C61.6371 103.379 61.3478 103.641 60.9558 103.846C60.5638 104.042 60.0831 104.14 59.5138 104.14C58.8418 104.14 58.1465 104 57.4278 103.72L57.6378 102.264L57.8198 102.152C58.1091 102.395 58.4311 102.591 58.7858 102.74C59.1405 102.88 59.4531 102.95 59.7238 102.95C59.9758 102.95 60.1718 102.889 60.3118 102.768C60.4518 102.637 60.5218 102.483 60.5218 102.306C60.5218 102.11 60.4331 101.951 60.2558 101.83C60.0878 101.709 59.8171 101.573 59.4438 101.424C59.0611 101.256 58.7485 101.107 58.5058 100.976C58.2631 100.836 58.0531 100.64 57.8758 100.388C57.7078 100.136 57.6238 99.8233 57.6238 99.45C57.6238 98.8433 57.8525 98.3487 58.3098 97.966C58.7671 97.574 59.3878 97.378 60.1718 97.378ZM69.5768 102.782L69.4088 103.762C69.0635 103.986 68.7088 104.103 68.3448 104.112C68.0742 104.065 67.8502 103.958 67.6728 103.79C67.4955 103.622 67.3602 103.379 67.2668 103.062H67.1408C66.6088 103.585 66.0582 103.925 65.4888 104.084C64.7795 104.084 64.2382 103.925 63.8648 103.608C63.5008 103.281 63.3235 102.815 63.3328 102.208L63.3608 100.556L63.2908 97.616L65.0968 97.462L65.0548 101.592C65.0455 101.919 65.1108 102.166 65.2508 102.334C65.3908 102.502 65.6008 102.586 65.8808 102.586C66.2915 102.586 66.6975 102.404 67.0988 102.04V97.616L68.8768 97.462L68.7508 102.306C68.7508 102.455 68.7742 102.563 68.8208 102.628C68.8768 102.693 68.9608 102.726 69.0728 102.726C69.1755 102.726 69.3015 102.707 69.4508 102.67L69.5768 102.782ZM72.4953 101.13L72.5933 104H70.7313L70.8293 101.298L70.7453 94.312L72.6073 94.172L72.4953 101.13ZM74.479 101.312L74.409 97.616L76.243 97.462L76.159 101.13L76.243 104H74.381L74.479 101.312ZM75.361 94.298C75.6504 94.298 75.8744 94.382 76.033 94.55C76.201 94.718 76.285 94.9513 76.285 95.25C76.285 95.5673 76.1964 95.8193 76.019 96.006C75.8417 96.1927 75.599 96.286 75.291 96.286C74.983 96.286 74.745 96.202 74.577 96.034C74.4184 95.866 74.339 95.628 74.339 95.32C74.339 95.012 74.4277 94.7647 74.605 94.578C74.7917 94.3913 75.0437 94.298 75.361 94.298ZM82.0074 99.94C82.0167 99.6133 81.9421 99.3613 81.7834 99.184C81.6341 98.9973 81.4147 98.904 81.1254 98.904C80.7054 98.904 80.2574 99.1047 79.7814 99.506V101.13L79.8654 104H78.0034L78.1014 101.312L78.0314 97.616L79.7954 97.462V98.414H79.8934C80.4067 97.9473 80.9667 97.6113 81.5734 97.406C82.2827 97.406 82.8241 97.5693 83.1974 97.896C83.5707 98.2133 83.7481 98.6753 83.7294 99.282L83.6874 101.144L83.7714 104H81.8954L82.0074 99.94ZM87.9756 97.364C88.6942 97.364 89.2542 97.5273 89.6556 97.854C90.0662 98.1713 90.2716 98.6193 90.2716 99.198C90.2716 99.366 90.2436 99.898 90.1876 100.794C90.1782 101.055 90.1642 101.326 90.1456 101.606C90.1269 101.877 90.1176 102.11 90.1176 102.306C90.1176 102.465 90.1409 102.577 90.1876 102.642C90.2342 102.698 90.3182 102.726 90.4396 102.726C90.5329 102.726 90.6542 102.707 90.8036 102.67L90.9436 102.782L90.7756 103.762C90.4769 103.958 90.1362 104.075 89.7536 104.112C89.4736 104.084 89.2402 103.986 89.0536 103.818C88.8669 103.641 88.7409 103.398 88.6756 103.09H88.5776C88.1109 103.585 87.6302 103.93 87.1356 104.126C86.4636 104.117 85.9362 103.939 85.5536 103.594C85.1709 103.249 84.9796 102.777 84.9796 102.18C84.9796 101.713 85.0962 101.349 85.3296 101.088C85.5722 100.817 85.9362 100.635 86.4216 100.542L88.5636 100.136V99.562C88.5636 98.9553 88.2649 98.652 87.6676 98.652C87.3782 98.652 87.0702 98.7173 86.7436 98.848C86.4262 98.9787 86.0669 99.184 85.6656 99.464L85.5256 99.38L85.3156 98.148C85.7169 97.896 86.1462 97.7047 86.6036 97.574C87.0609 97.434 87.5182 97.364 87.9756 97.364ZM87.0656 101.396C86.9162 101.433 86.8042 101.499 86.7296 101.592C86.6642 101.676 86.6316 101.807 86.6316 101.984C86.6316 102.227 86.6969 102.418 86.8276 102.558C86.9582 102.689 87.1402 102.754 87.3736 102.754C87.7376 102.754 88.1202 102.539 88.5216 102.11L88.5496 101.074L87.0656 101.396ZM94.3378 97.378C94.9725 97.378 95.5698 97.4853 96.1298 97.7L95.8778 99.072L95.6538 99.142C95.3831 98.9647 95.1125 98.8293 94.8418 98.736C94.5711 98.6427 94.3331 98.596 94.1278 98.596C93.9038 98.596 93.7265 98.6567 93.5958 98.778C93.4651 98.89 93.3998 99.03 93.3998 99.198C93.3998 99.394 93.4838 99.5527 93.6518 99.674C93.8291 99.7953 94.1045 99.9307 94.4778 100.08C94.8511 100.229 95.1591 100.374 95.4018 100.514C95.6445 100.654 95.8498 100.85 96.0178 101.102C96.1951 101.345 96.2838 101.648 96.2838 102.012C96.2838 102.385 96.1858 102.735 95.9898 103.062C95.8031 103.379 95.5138 103.641 95.1218 103.846C94.7298 104.042 94.2491 104.14 93.6798 104.14C93.0078 104.14 92.3125 104 91.5938 103.72L91.8038 102.264L91.9858 102.152C92.2751 102.395 92.5971 102.591 92.9518 102.74C93.3065 102.88 93.6191 102.95 93.8898 102.95C94.1418 102.95 94.3378 102.889 94.4778 102.768C94.6178 102.637 94.6878 102.483 94.6878 102.306C94.6878 102.11 94.5991 101.951 94.4218 101.83C94.2538 101.709 93.9831 101.573 93.6098 101.424C93.2271 101.256 92.9145 101.107 92.6718 100.976C92.4291 100.836 92.2191 100.64 92.0418 100.388C91.8738 100.136 91.7898 99.8233 91.7898 99.45C91.7898 98.8433 92.0185 98.3487 92.4758 97.966C92.9331 97.574 93.5538 97.378 94.3378 97.378ZM102.278 102.628C102.577 102.628 102.889 102.549 103.216 102.39L103.37 102.53L103.188 103.636C102.712 103.879 102.227 104.028 101.732 104.084C100.472 103.953 99.842 103.337 99.842 102.236L99.912 101.074L99.898 98.666H99.03L98.96 98.568L99.058 97.546H99.884V96.468L101.578 95.922L101.704 96.034L101.662 97.546H103.328L103.384 97.644L103.3 98.666H101.634L101.55 101.802C101.55 102.101 101.606 102.315 101.718 102.446C101.83 102.567 102.017 102.628 102.278 102.628ZM109.321 100.976L105.541 101.004C105.625 102.171 106.217 102.754 107.319 102.754C107.897 102.754 108.541 102.591 109.251 102.264L109.405 102.362L109.125 103.748C108.415 104.009 107.748 104.14 107.123 104.14C106.096 104.14 105.289 103.841 104.701 103.244C104.122 102.647 103.833 101.821 103.833 100.766C103.833 99.7207 104.117 98.8947 104.687 98.288C105.256 97.672 106.026 97.364 106.997 97.364C107.827 97.364 108.467 97.5927 108.915 98.05C109.372 98.498 109.601 99.128 109.601 99.94C109.601 100.155 109.577 100.425 109.531 100.752L109.321 100.976ZM107.977 99.73C107.977 99.3567 107.893 99.0767 107.725 98.89C107.557 98.694 107.309 98.596 106.983 98.596C106.619 98.596 106.315 98.7173 106.073 98.96C105.83 99.1933 105.667 99.534 105.583 99.982L107.949 99.926L107.977 99.73ZM104.687 95.936C105.219 95.4507 105.877 94.7927 106.661 93.962H107.067C107.795 94.7647 108.448 95.4227 109.027 95.936L108.565 96.65H108.383C107.767 96.1647 107.258 95.7353 106.857 95.362C106.493 95.7073 105.989 96.1367 105.345 96.65H105.163L104.687 95.936ZM118.682 104L118.794 99.94C118.794 99.2493 118.5 98.904 117.912 98.904C117.492 98.904 117.054 99.0907 116.596 99.464L116.554 101.144L116.638 104H114.776L114.888 99.94C114.898 99.604 114.823 99.3473 114.664 99.17C114.515 98.9927 114.296 98.904 114.006 98.904C113.596 98.904 113.143 99.1 112.648 99.492V101.13L112.732 104H110.884L110.982 101.312L110.912 97.616L112.662 97.462V98.414H112.76C113.274 97.9473 113.838 97.6113 114.454 97.406C115.5 97.406 116.167 97.756 116.456 98.456H116.54C117.072 97.9613 117.679 97.6113 118.36 97.406C119.07 97.406 119.606 97.5693 119.97 97.896C120.344 98.2133 120.521 98.6753 120.502 99.282L120.46 101.144L120.544 104H118.682ZM30.8534 117.13L30.8954 118.306C30.8954 118.465 30.914 118.577 30.9514 118.642C30.998 118.698 31.0774 118.726 31.1894 118.726C31.292 118.726 31.418 118.707 31.5674 118.67L31.6934 118.782L31.5394 119.762C31.222 119.958 30.8767 120.075 30.5034 120.112C30.214 120.084 29.9714 119.986 29.7754 119.818C29.5794 119.65 29.444 119.421 29.3694 119.132H29.2574C28.8 119.552 28.3334 119.874 27.8574 120.098C26.9427 120.098 26.2334 119.809 25.7294 119.23C25.2254 118.642 24.9734 117.83 24.9734 116.794C24.9734 115.693 25.2627 114.848 25.8414 114.26C26.42 113.672 27.2227 113.378 28.2494 113.378C28.52 113.378 28.8187 113.406 29.1454 113.462L29.1174 110.312L30.9654 110.172L30.8534 117.13ZM28.1234 114.638C27.19 114.638 26.7234 115.231 26.7234 116.416C26.7234 117.153 26.8354 117.709 27.0594 118.082C27.2834 118.455 27.61 118.642 28.0394 118.642C28.45 118.642 28.828 118.451 29.1734 118.068L29.2014 117.298L29.1594 114.89C28.7954 114.722 28.45 114.638 28.1234 114.638ZM32.9165 117.312L32.8465 113.616L34.6805 113.462L34.5965 117.13L34.6805 120H32.8185L32.9165 117.312ZM33.7985 110.298C34.0879 110.298 34.3119 110.382 34.4705 110.55C34.6385 110.718 34.7225 110.951 34.7225 111.25C34.7225 111.567 34.6339 111.819 34.4565 112.006C34.2792 112.193 34.0365 112.286 33.7285 112.286C33.4205 112.286 33.1825 112.202 33.0145 112.034C32.8559 111.866 32.7765 111.628 32.7765 111.32C32.7765 111.012 32.8652 110.765 33.0425 110.578C33.2292 110.391 33.4812 110.298 33.7985 110.298ZM39.8289 110.144C40.2116 110.144 40.6176 110.186 41.0469 110.27L40.9209 111.656L40.7949 111.74C40.3562 111.553 39.9736 111.46 39.6469 111.46C39.0682 111.46 38.7742 111.791 38.7649 112.454L38.7509 113.546H40.3329L40.3889 113.644L40.3049 114.666H38.7229L38.6809 117.13L38.7789 120H36.9169L37.0289 117.298L37.0009 114.666H36.0209L35.9509 114.568L36.0489 113.546H36.9869L36.9729 112.776C36.9729 111.936 37.2202 111.287 37.7149 110.83C38.2189 110.373 38.9236 110.144 39.8289 110.144ZM45.9516 116.976L42.1716 117.004C42.2556 118.171 42.8483 118.754 43.9496 118.754C44.5283 118.754 45.1723 118.591 45.8816 118.264L46.0356 118.362L45.7556 119.748C45.0463 120.009 44.379 120.14 43.7536 120.14C42.727 120.14 41.9196 119.841 41.3316 119.244C40.753 118.647 40.4636 117.821 40.4636 116.766C40.4636 115.721 40.7483 114.895 41.3176 114.288C41.887 113.672 42.657 113.364 43.6276 113.364C44.4583 113.364 45.0976 113.593 45.5456 114.05C46.003 114.498 46.2316 115.128 46.2316 115.94C46.2316 116.155 46.2083 116.425 46.1616 116.752L45.9516 116.976ZM44.6076 115.73C44.6076 115.357 44.5236 115.077 44.3556 114.89C44.1876 114.694 43.9403 114.596 43.6136 114.596C43.2496 114.596 42.9463 114.717 42.7036 114.96C42.461 115.193 42.2976 115.534 42.2136 115.982L44.5796 115.926L44.6076 115.73ZM51.1131 113.476C51.1971 113.476 51.3138 113.485 51.4631 113.504V115.226L51.2671 115.296C51.1085 115.231 50.9358 115.198 50.7491 115.198C50.2078 115.198 49.7178 115.548 49.2791 116.248V117.13L49.3771 120H47.5151L47.6271 117.312L47.5431 113.616L49.3071 113.462L49.2931 114.736H49.4051C49.8625 113.896 50.4318 113.476 51.1131 113.476ZM57.4223 116.976L53.6423 117.004C53.7263 118.171 54.319 118.754 55.4203 118.754C55.999 118.754 56.643 118.591 57.3523 118.264L57.5063 118.362L57.2263 119.748C56.517 120.009 55.8497 120.14 55.2243 120.14C54.1977 120.14 53.3903 119.841 52.8023 119.244C52.2237 118.647 51.9343 117.821 51.9343 116.766C51.9343 115.721 52.219 114.895 52.7883 114.288C53.3577 113.672 54.1277 113.364 55.0983 113.364C55.929 113.364 56.5683 113.593 57.0163 114.05C57.4737 114.498 57.7023 115.128 57.7023 115.94C57.7023 116.155 57.679 116.425 57.6323 116.752L57.4223 116.976ZM56.0783 115.73C56.0783 115.357 55.9943 115.077 55.8263 114.89C55.6583 114.694 55.411 114.596 55.0843 114.596C54.7203 114.596 54.417 114.717 54.1743 114.96C53.9317 115.193 53.7683 115.534 53.6843 115.982L56.0503 115.926L56.0783 115.73ZM62.9898 115.94C62.9992 115.613 62.9245 115.361 62.7658 115.184C62.6165 114.997 62.3972 114.904 62.1078 114.904C61.6878 114.904 61.2398 115.105 60.7638 115.506V117.13L60.8478 120H58.9858L59.0838 117.312L59.0138 113.616L60.7778 113.462V114.414H60.8758C61.3892 113.947 61.9492 113.611 62.5558 113.406C63.2652 113.406 63.8065 113.569 64.1798 113.896C64.5532 114.213 64.7305 114.675 64.7118 115.282L64.6698 117.144L64.7538 120H62.8778L62.9898 115.94ZM69.028 118.628C69.3267 118.628 69.6393 118.549 69.966 118.39L70.12 118.53L69.938 119.636C69.462 119.879 68.9767 120.028 68.482 120.084C67.222 119.953 66.592 119.337 66.592 118.236L66.662 117.074L66.648 114.666H65.78L65.71 114.568L65.808 113.546H66.634V112.468L68.328 111.922L68.454 112.034L68.412 113.546H70.078L70.134 113.644L70.05 114.666H68.384L68.3 117.802C68.3 118.101 68.356 118.315 68.468 118.446C68.58 118.567 68.7667 118.628 69.028 118.628ZM76.0708 116.976L72.2908 117.004C72.3748 118.171 72.9674 118.754 74.0688 118.754C74.6474 118.754 75.2914 118.591 76.0008 118.264L76.1548 118.362L75.8748 119.748C75.1654 120.009 74.4981 120.14 73.8728 120.14C72.8461 120.14 72.0388 119.841 71.4508 119.244C70.8721 118.647 70.5828 117.821 70.5828 116.766C70.5828 115.721 70.8674 114.895 71.4368 114.288C72.0061 113.672 72.7761 113.364 73.7468 113.364C74.5774 113.364 75.2168 113.593 75.6648 114.05C76.1221 114.498 76.3508 115.128 76.3508 115.94C76.3508 116.155 76.3274 116.425 76.2808 116.752L76.0708 116.976ZM74.7268 115.73C74.7268 115.357 74.6428 115.077 74.4748 114.89C74.3068 114.694 74.0594 114.596 73.7328 114.596C73.3688 114.596 73.0654 114.717 72.8228 114.96C72.5801 115.193 72.4168 115.534 72.3328 115.982L74.6988 115.926L74.7268 115.73ZM79.8183 113.378C80.4529 113.378 81.0503 113.485 81.6103 113.7L81.3583 115.072L81.1343 115.142C80.8636 114.965 80.5929 114.829 80.3223 114.736C80.0516 114.643 79.8136 114.596 79.6083 114.596C79.3843 114.596 79.2069 114.657 79.0763 114.778C78.9456 114.89 78.8803 115.03 78.8803 115.198C78.8803 115.394 78.9643 115.553 79.1323 115.674C79.3096 115.795 79.5849 115.931 79.9583 116.08C80.3316 116.229 80.6396 116.374 80.8823 116.514C81.1249 116.654 81.3303 116.85 81.4983 117.102C81.6756 117.345 81.7643 117.648 81.7643 118.012C81.7643 118.385 81.6663 118.735 81.4703 119.062C81.2836 119.379 80.9943 119.641 80.6023 119.846C80.2103 120.042 79.7296 120.14 79.1603 120.14C78.4883 120.14 77.7929 120 77.0743 119.72L77.2843 118.264L77.4663 118.152C77.7556 118.395 78.0776 118.591 78.4323 118.74C78.7869 118.88 79.0996 118.95 79.3703 118.95C79.6223 118.95 79.8183 118.889 79.9583 118.768C80.0983 118.637 80.1683 118.483 80.1683 118.306C80.1683 118.11 80.0796 117.951 79.9023 117.83C79.7343 117.709 79.4636 117.573 79.0903 117.424C78.7076 117.256 78.3949 117.107 78.1523 116.976C77.9096 116.836 77.6996 116.64 77.5223 116.388C77.3543 116.136 77.2703 115.823 77.2703 115.45C77.2703 114.843 77.4989 114.349 77.9563 113.966C78.4136 113.574 79.0343 113.378 79.8183 113.378ZM87.7585 118.628C88.0571 118.628 88.3698 118.549 88.6965 118.39L88.8505 118.53L88.6685 119.636C88.1925 119.879 87.7071 120.028 87.2125 120.084C85.9525 119.953 85.3225 119.337 85.3225 118.236L85.3925 117.074L85.3785 114.666H84.5105L84.4405 114.568L84.5385 113.546H85.3645V112.468L87.0585 111.922L87.1845 112.034L87.1425 113.546H88.8085L88.8645 113.644L88.7805 114.666H87.1145L87.0305 117.802C87.0305 118.101 87.0865 118.315 87.1985 118.446C87.3105 118.567 87.4971 118.628 87.7585 118.628ZM94.8012 116.976L91.0212 117.004C91.1052 118.171 91.6979 118.754 92.7992 118.754C93.3779 118.754 94.0219 118.591 94.7312 118.264L94.8852 118.362L94.6052 119.748C93.8959 120.009 93.2286 120.14 92.6032 120.14C91.5766 120.14 90.7692 119.841 90.1812 119.244C89.6026 118.647 89.3132 117.821 89.3132 116.766C89.3132 115.721 89.5979 114.895 90.1672 114.288C90.7366 113.672 91.5066 113.364 92.4772 113.364C93.3079 113.364 93.9472 113.593 94.3952 114.05C94.8526 114.498 95.0812 115.128 95.0812 115.94C95.0812 116.155 95.0579 116.425 95.0112 116.752L94.8012 116.976ZM93.4572 115.73C93.4572 115.357 93.3732 115.077 93.2052 114.89C93.0372 114.694 92.7899 114.596 92.4632 114.596C92.0992 114.596 91.7959 114.717 91.5532 114.96C91.3106 115.193 91.1472 115.534 91.0632 115.982L93.4292 115.926L93.4572 115.73ZM104.163 120L104.275 115.94C104.275 115.249 103.981 114.904 103.393 114.904C102.973 114.904 102.534 115.091 102.077 115.464L102.035 117.144L102.119 120H100.257L100.369 115.94C100.378 115.604 100.303 115.347 100.145 115.17C99.9954 114.993 99.7761 114.904 99.4867 114.904C99.0761 114.904 98.6234 115.1 98.1287 115.492V117.13L98.2127 120H96.3647L96.4627 117.312L96.3927 113.616L98.1427 113.462V114.414H98.2407C98.7541 113.947 99.3187 113.611 99.9347 113.406C100.98 113.406 101.647 113.756 101.937 114.456H102.021C102.553 113.961 103.159 113.611 103.841 113.406C104.55 113.406 105.087 113.569 105.451 113.896C105.824 114.213 106.001 114.675 105.983 115.282L105.941 117.144L106.025 120H104.163ZM111.102 113.406C111.914 113.406 112.539 113.681 112.978 114.232C113.416 114.783 113.636 115.562 113.636 116.57C113.636 117.709 113.351 118.591 112.782 119.216C112.222 119.832 111.428 120.14 110.402 120.14C110.103 120.14 109.79 120.112 109.464 120.056L109.506 122.59H107.658L107.756 117.312L107.672 113.616L109.45 113.462L109.436 114.414H109.534C109.795 114.162 110.047 113.961 110.29 113.812C110.532 113.653 110.803 113.518 111.102 113.406ZM110.416 118.922C110.901 118.922 111.27 118.749 111.522 118.404C111.774 118.059 111.9 117.55 111.9 116.878C111.9 116.225 111.792 115.735 111.578 115.408C111.372 115.072 111.064 114.904 110.654 114.904C110.252 114.904 109.846 115.105 109.436 115.506L109.422 117.13L109.45 118.712C109.786 118.852 110.108 118.922 110.416 118.922ZM117.606 113.364C118.558 113.364 119.286 113.644 119.79 114.204C120.294 114.764 120.546 115.571 120.546 116.626C120.546 117.765 120.275 118.637 119.734 119.244C119.192 119.841 118.413 120.14 117.396 120.14C116.444 120.14 115.716 119.86 115.212 119.3C114.708 118.74 114.456 117.933 114.456 116.878C114.456 115.739 114.726 114.871 115.268 114.274C115.809 113.667 116.588 113.364 117.606 113.364ZM117.48 114.624C117.032 114.624 116.705 114.773 116.5 115.072C116.304 115.371 116.206 115.851 116.206 116.514C116.206 117.373 116.308 117.984 116.514 118.348C116.719 118.712 117.055 118.894 117.522 118.894C117.97 118.894 118.292 118.749 118.488 118.46C118.693 118.161 118.796 117.676 118.796 117.004C118.796 116.155 118.688 115.548 118.474 115.184C118.268 114.811 117.937 114.624 117.48 114.624ZM124.006 113.378C124.64 113.378 125.238 113.485 125.798 113.7L125.546 115.072L125.322 115.142C125.051 114.965 124.78 114.829 124.51 114.736C124.239 114.643 124.001 114.596 123.796 114.596C123.572 114.596 123.394 114.657 123.264 114.778C123.133 114.89 123.068 115.03 123.068 115.198C123.068 115.394 123.152 115.553 123.32 115.674C123.497 115.795 123.772 115.931 124.146 116.08C124.519 116.229 124.827 116.374 125.07 116.514C125.312 116.654 125.518 116.85 125.686 117.102C125.863 117.345 125.952 117.648 125.952 118.012C125.952 118.385 125.854 118.735 125.658 119.062C125.471 119.379 125.182 119.641 124.79 119.846C124.398 120.042 123.917 120.14 123.348 120.14C122.676 120.14 121.98 120 121.262 119.72L121.472 118.264L121.654 118.152C121.943 118.395 122.265 118.591 122.62 118.74C122.974 118.88 123.287 118.95 123.558 118.95C123.81 118.95 124.006 118.889 124.146 118.768C124.286 118.637 124.356 118.483 124.356 118.306C124.356 118.11 124.267 117.951 124.09 117.83C123.922 117.709 123.651 117.573 123.278 117.424C122.895 117.256 122.582 117.107 122.34 116.976C122.097 116.836 121.887 116.64 121.71 116.388C121.542 116.136 121.458 115.823 121.458 115.45C121.458 114.843 121.686 114.349 122.144 113.966C122.601 113.574 123.222 113.378 124.006 113.378ZM134.746 117.13L134.788 118.306C134.788 118.465 134.807 118.577 134.844 118.642C134.891 118.698 134.97 118.726 135.082 118.726C135.185 118.726 135.311 118.707 135.46 118.67L135.586 118.782L135.432 119.762C135.115 119.958 134.769 120.075 134.396 120.112C134.107 120.084 133.864 119.986 133.668 119.818C133.472 119.65 133.337 119.421 133.262 119.132H133.15C132.693 119.552 132.226 119.874 131.75 120.098C130.835 120.098 130.126 119.809 129.622 119.23C129.118 118.642 128.866 117.83 128.866 116.794C128.866 115.693 129.155 114.848 129.734 114.26C130.313 113.672 131.115 113.378 132.142 113.378C132.413 113.378 132.711 113.406 133.038 113.462L133.01 110.312L134.858 110.172L134.746 117.13ZM132.016 114.638C131.083 114.638 130.616 115.231 130.616 116.416C130.616 117.153 130.728 117.709 130.952 118.082C131.176 118.455 131.503 118.642 131.932 118.642C132.343 118.642 132.721 118.451 133.066 118.068L133.094 117.298L133.052 114.89C132.688 114.722 132.343 114.638 132.016 114.638ZM141.723 116.976L137.943 117.004C138.027 118.171 138.62 118.754 139.721 118.754C140.3 118.754 140.944 118.591 141.653 118.264L141.807 118.362L141.527 119.748C140.818 120.009 140.15 120.14 139.525 120.14C138.498 120.14 137.691 119.841 137.103 119.244C136.524 118.647 136.235 117.821 136.235 116.766C136.235 115.721 136.52 114.895 137.089 114.288C137.658 113.672 138.428 113.364 139.399 113.364C140.23 113.364 140.869 113.593 141.317 114.05C141.774 114.498 142.003 115.128 142.003 115.94C142.003 116.155 141.98 116.425 141.933 116.752L141.723 116.976ZM140.379 115.73C140.379 115.357 140.295 115.077 140.127 114.89C139.959 114.694 139.712 114.596 139.385 114.596C139.021 114.596 138.718 114.717 138.475 114.96C138.232 115.193 138.069 115.534 137.985 115.982L140.351 115.926L140.379 115.73ZM29.5078 129.364C30.2265 129.364 30.7865 129.527 31.1878 129.854C31.5985 130.171 31.8038 130.619 31.8038 131.198C31.8038 131.366 31.7758 131.898 31.7198 132.794C31.7105 133.055 31.6965 133.326 31.6778 133.606C31.6591 133.877 31.6498 134.11 31.6498 134.306C31.6498 134.465 31.6731 134.577 31.7198 134.642C31.7665 134.698 31.8505 134.726 31.9718 134.726C32.0651 134.726 32.1865 134.707 32.3358 134.67L32.4758 134.782L32.3078 135.762C32.0091 135.958 31.6685 136.075 31.2858 136.112C31.0058 136.084 30.7725 135.986 30.5858 135.818C30.3991 135.641 30.2731 135.398 30.2078 135.09H30.1098C29.6431 135.585 29.1625 135.93 28.6678 136.126C27.9958 136.117 27.4685 135.939 27.0858 135.594C26.7031 135.249 26.5118 134.777 26.5118 134.18C26.5118 133.713 26.6285 133.349 26.8618 133.088C27.1045 132.817 27.4685 132.635 27.9538 132.542L30.0958 132.136V131.562C30.0958 130.955 29.7971 130.652 29.1998 130.652C28.9105 130.652 28.6025 130.717 28.2758 130.848C27.9585 130.979 27.5991 131.184 27.1978 131.464L27.0578 131.38L26.8478 130.148C27.2491 129.896 27.6785 129.705 28.1358 129.574C28.5931 129.434 29.0505 129.364 29.5078 129.364ZM28.5978 133.396C28.4485 133.433 28.3365 133.499 28.2618 133.592C28.1965 133.676 28.1638 133.807 28.1638 133.984C28.1638 134.227 28.2291 134.418 28.3598 134.558C28.4905 134.689 28.6725 134.754 28.9058 134.754C29.2698 134.754 29.6525 134.539 30.0538 134.11L30.0818 133.074L28.5978 133.396ZM36.36 129.364C36.668 129.364 36.9714 129.397 37.27 129.462C37.578 129.518 37.8487 129.602 38.082 129.714L37.774 131.198L37.62 131.268C37.144 131.007 36.7194 130.876 36.346 130.876C35.9167 130.876 35.5854 131.03 35.352 131.338C35.1187 131.646 35.002 132.085 35.002 132.654C35.002 133.307 35.128 133.807 35.38 134.152C35.632 134.497 35.9914 134.67 36.458 134.67C36.878 134.67 37.3447 134.553 37.858 134.32L37.998 134.432L37.816 135.874C37.256 136.051 36.682 136.14 36.094 136.14C35.198 136.14 34.498 135.851 33.994 135.272C33.49 134.684 33.238 133.867 33.238 132.822C33.238 131.739 33.5134 130.895 34.064 130.288C34.6147 129.672 35.38 129.364 36.36 129.364ZM36.346 136.672L36.822 136.938C37.0274 137.05 37.172 137.171 37.256 137.302C37.3494 137.442 37.396 137.596 37.396 137.764C37.396 138.072 37.2747 138.324 37.032 138.52C36.7894 138.716 36.472 138.814 36.08 138.814C35.66 138.814 35.2774 138.683 34.932 138.422L35.058 137.638L35.142 137.596C35.422 137.876 35.6974 138.016 35.968 138.016C36.192 138.016 36.304 137.918 36.304 137.722C36.304 137.657 36.2854 137.601 36.248 137.554C36.2107 137.517 36.15 137.479 36.066 137.442L35.38 137.05L35.702 135.636H36.598L36.346 136.672ZM41.498 129.364C42.2167 129.364 42.7767 129.527 43.178 129.854C43.5887 130.171 43.794 130.619 43.794 131.198C43.794 131.366 43.766 131.898 43.71 132.794C43.7007 133.055 43.6867 133.326 43.668 133.606C43.6494 133.877 43.64 134.11 43.64 134.306C43.64 134.465 43.6634 134.577 43.71 134.642C43.7567 134.698 43.8407 134.726 43.962 134.726C44.0554 134.726 44.1767 134.707 44.326 134.67L44.466 134.782L44.298 135.762C43.9994 135.958 43.6587 136.075 43.276 136.112C42.996 136.084 42.7627 135.986 42.576 135.818C42.3894 135.641 42.2634 135.398 42.198 135.09H42.1C41.6334 135.585 41.1527 135.93 40.658 136.126C39.986 136.117 39.4587 135.939 39.076 135.594C38.6934 135.249 38.502 134.777 38.502 134.18C38.502 133.713 38.6187 133.349 38.852 133.088C39.0947 132.817 39.4587 132.635 39.944 132.542L42.086 132.136V131.562C42.086 130.955 41.7874 130.652 41.19 130.652C40.9007 130.652 40.5927 130.717 40.266 130.848C39.9487 130.979 39.5894 131.184 39.188 131.464L39.048 131.38L38.838 130.148C39.2394 129.896 39.6687 129.705 40.126 129.574C40.5834 129.434 41.0407 129.364 41.498 129.364ZM40.588 133.396C40.4387 133.433 40.3267 133.499 40.252 133.592C40.1867 133.676 40.154 133.807 40.154 133.984C40.154 134.227 40.2194 134.418 40.35 134.558C40.4807 134.689 40.6627 134.754 40.896 134.754C41.26 134.754 41.6427 134.539 42.044 134.11L42.072 133.074L40.588 133.396ZM43.794 126.732V126.886L42.814 128.132L42.632 128.202C42.38 128.174 41.9927 128.085 41.47 127.936C41.4234 127.927 41.2694 127.889 41.008 127.824C40.756 127.749 40.5787 127.712 40.476 127.712C40.3734 127.712 40.2707 127.754 40.168 127.838C40.0747 127.922 39.972 128.025 39.86 128.146C39.748 128.267 39.664 128.361 39.608 128.426H39.44L38.88 127.88V127.726L39.874 126.48L40.042 126.41C40.266 126.438 40.6627 126.531 41.232 126.69C41.7547 126.83 42.0767 126.9 42.198 126.9C42.31 126.9 42.4174 126.853 42.52 126.76C42.632 126.667 42.744 126.559 42.856 126.438C42.968 126.317 43.0427 126.233 43.08 126.186H43.248L43.794 126.732ZM48.3783 129.364C49.3303 129.364 50.0583 129.644 50.5623 130.204C51.0663 130.764 51.3183 131.571 51.3183 132.626C51.3183 133.765 51.0476 134.637 50.5063 135.244C49.9649 135.841 49.1856 136.14 48.1683 136.14C47.2163 136.14 46.4883 135.86 45.9843 135.3C45.4803 134.74 45.2283 133.933 45.2283 132.878C45.2283 131.739 45.4989 130.871 46.0403 130.274C46.5816 129.667 47.3609 129.364 48.3783 129.364ZM48.2523 130.624C47.8043 130.624 47.4776 130.773 47.2723 131.072C47.0763 131.371 46.9783 131.851 46.9783 132.514C46.9783 133.373 47.0809 133.984 47.2863 134.348C47.4916 134.712 47.8276 134.894 48.2943 134.894C48.7423 134.894 49.0643 134.749 49.2603 134.46C49.4656 134.161 49.5683 133.676 49.5683 133.004C49.5683 132.155 49.4609 131.548 49.2463 131.184C49.0409 130.811 48.7096 130.624 48.2523 130.624ZM57.2754 129.364C57.994 129.364 58.554 129.527 58.9554 129.854C59.366 130.171 59.5714 130.619 59.5714 131.198C59.5714 131.366 59.5434 131.898 59.4874 132.794C59.478 133.055 59.464 133.326 59.4454 133.606C59.4267 133.877 59.4174 134.11 59.4174 134.306C59.4174 134.465 59.4407 134.577 59.4874 134.642C59.534 134.698 59.618 134.726 59.7394 134.726C59.8327 134.726 59.954 134.707 60.1034 134.67L60.2434 134.782L60.0754 135.762C59.7767 135.958 59.436 136.075 59.0534 136.112C58.7734 136.084 58.54 135.986 58.3534 135.818C58.1667 135.641 58.0407 135.398 57.9754 135.09H57.8774C57.4107 135.585 56.93 135.93 56.4354 136.126C55.7634 136.117 55.236 135.939 54.8534 135.594C54.4707 135.249 54.2794 134.777 54.2794 134.18C54.2794 133.713 54.396 133.349 54.6294 133.088C54.872 132.817 55.236 132.635 55.7214 132.542L57.8634 132.136V131.562C57.8634 130.955 57.5647 130.652 56.9674 130.652C56.678 130.652 56.37 130.717 56.0434 130.848C55.726 130.979 55.3667 131.184 54.9654 131.464L54.8254 131.38L54.6154 130.148C55.0167 129.896 55.446 129.705 55.9034 129.574C56.3607 129.434 56.818 129.364 57.2754 129.364ZM56.3654 133.396C56.216 133.433 56.104 133.499 56.0294 133.592C55.964 133.676 55.9314 133.807 55.9314 133.984C55.9314 134.227 55.9967 134.418 56.1274 134.558C56.258 134.689 56.44 134.754 56.6734 134.754C57.0374 134.754 57.42 134.539 57.8214 134.11L57.8494 133.074L56.3654 133.396ZM64.1556 129.364C65.1076 129.364 65.8356 129.644 66.3396 130.204C66.8436 130.764 67.0956 131.571 67.0956 132.626C67.0956 133.765 66.8249 134.637 66.2836 135.244C65.7423 135.841 64.9629 136.14 63.9456 136.14C62.9936 136.14 62.2656 135.86 61.7616 135.3C61.2576 134.74 61.0056 133.933 61.0056 132.878C61.0056 131.739 61.2763 130.871 61.8176 130.274C62.3589 129.667 63.1383 129.364 64.1556 129.364ZM64.0296 130.624C63.5816 130.624 63.2549 130.773 63.0496 131.072C62.8536 131.371 62.7556 131.851 62.7556 132.514C62.7556 133.373 62.8583 133.984 63.0636 134.348C63.2689 134.712 63.6049 134.894 64.0716 134.894C64.5196 134.894 64.8416 134.749 65.0376 134.46C65.2429 134.161 65.3456 133.676 65.3456 133.004C65.3456 132.155 65.2383 131.548 65.0236 131.184C64.8183 130.811 64.4869 130.624 64.0296 130.624ZM72.3107 133.13L72.4087 136H70.5467L70.6447 133.298L70.5607 126.312L72.4227 126.172L72.3107 133.13ZM76.8705 129.364C77.8225 129.364 78.5505 129.644 79.0545 130.204C79.5585 130.764 79.8105 131.571 79.8105 132.626C79.8105 133.765 79.5398 134.637 78.9985 135.244C78.4571 135.841 77.6778 136.14 76.6605 136.14C75.7085 136.14 74.9805 135.86 74.4765 135.3C73.9725 134.74 73.7205 133.933 73.7205 132.878C73.7205 131.739 73.9911 130.871 74.5325 130.274C75.0738 129.667 75.8531 129.364 76.8705 129.364ZM76.7445 130.624C76.2965 130.624 75.9698 130.773 75.7645 131.072C75.5685 131.371 75.4705 131.851 75.4705 132.514C75.4705 133.373 75.5731 133.984 75.7785 134.348C75.9838 134.712 76.3198 134.894 76.7865 134.894C77.2345 134.894 77.5565 134.749 77.7525 134.46C77.9578 134.161 78.0605 133.676 78.0605 133.004C78.0605 132.155 77.9531 131.548 77.7385 131.184C77.5331 130.811 77.2018 130.624 76.7445 130.624ZM85.0084 131.94C85.0177 131.613 84.9431 131.361 84.7844 131.184C84.6351 130.997 84.4157 130.904 84.1264 130.904C83.7064 130.904 83.2584 131.105 82.7824 131.506V133.13L82.8664 136H81.0044L81.1024 133.312L81.0324 129.616L82.7964 129.462V130.414H82.8944C83.4077 129.947 83.9677 129.611 84.5744 129.406C85.2837 129.406 85.8251 129.569 86.1984 129.896C86.5717 130.213 86.7491 130.675 86.7304 131.282L86.6884 133.144L86.7724 136H84.8964L85.0084 131.94ZM94.6725 130.372C94.4205 130.437 94.0612 130.507 93.5945 130.582L93.5665 130.638C93.7065 130.918 93.7765 131.231 93.7765 131.576C93.7765 132.276 93.5199 132.836 93.0065 133.256C92.5025 133.667 91.8165 133.872 90.9485 133.872C90.6872 133.872 90.4165 133.849 90.1365 133.802C90.0525 133.886 89.9965 133.951 89.9685 133.998C89.9405 134.045 89.9265 134.101 89.9265 134.166C89.9265 134.334 90.0385 134.451 90.2625 134.516C90.4865 134.581 90.8412 134.647 91.3265 134.712C91.8772 134.777 92.3345 134.857 92.6985 134.95C93.0719 135.043 93.3892 135.207 93.6505 135.44C93.9212 135.673 94.0565 136.005 94.0565 136.434C94.0565 136.873 93.9165 137.265 93.6365 137.61C93.3659 137.965 92.9879 138.24 92.5025 138.436C92.0172 138.632 91.4665 138.73 90.8505 138.73C90.0012 138.73 89.3479 138.557 88.8905 138.212C88.4332 137.867 88.2045 137.409 88.2045 136.84C88.4939 136.439 88.8812 136.089 89.3665 135.79V135.72C89.0492 135.608 88.8019 135.454 88.6245 135.258C88.4472 135.053 88.3585 134.782 88.3585 134.446C88.6105 134.138 88.9279 133.853 89.3105 133.592V133.522C88.9745 133.335 88.7179 133.093 88.5405 132.794C88.3725 132.486 88.2885 132.127 88.2885 131.716C88.2885 130.988 88.5405 130.419 89.0445 130.008C89.5485 129.597 90.2345 129.392 91.1025 129.392C91.6065 129.392 92.0639 129.476 92.4745 129.644C93.1465 129.523 93.8325 129.336 94.5325 129.084L94.6725 129.21V130.372ZM91.0045 132.752C91.3872 132.752 91.6765 132.654 91.8725 132.458C92.0685 132.262 92.1665 131.977 92.1665 131.604C92.1665 130.895 91.8025 130.54 91.0745 130.54C90.2905 130.54 89.8985 130.899 89.8985 131.618C89.8985 131.991 89.9919 132.276 90.1785 132.472C90.3652 132.659 90.6405 132.752 91.0045 132.752ZM92.4885 136.77C92.4885 136.518 92.3532 136.345 92.0825 136.252C91.8212 136.159 91.4152 136.079 90.8645 136.014L90.3885 135.944C90.1645 136.093 89.9965 136.238 89.8845 136.378C89.7725 136.518 89.7165 136.667 89.7165 136.826C89.7165 137.069 89.8285 137.265 90.0525 137.414C90.2765 137.563 90.6032 137.638 91.0325 137.638C91.4712 137.638 91.8212 137.559 92.0825 137.4C92.3532 137.251 92.4885 137.041 92.4885 136.77ZM98.0619 129.364C99.0139 129.364 99.7419 129.644 100.246 130.204C100.75 130.764 101.002 131.571 101.002 132.626C101.002 133.765 100.731 134.637 100.19 135.244C99.6485 135.841 98.8692 136.14 97.8519 136.14C96.8999 136.14 96.1719 135.86 95.6679 135.3C95.1639 134.74 94.9119 133.933 94.9119 132.878C94.9119 131.739 95.1825 130.871 95.7239 130.274C96.2652 129.667 97.0445 129.364 98.0619 129.364ZM97.9359 130.624C97.4879 130.624 97.1612 130.773 96.9559 131.072C96.7599 131.371 96.6619 131.851 96.6619 132.514C96.6619 133.373 96.7645 133.984 96.9699 134.348C97.1752 134.712 97.5112 134.894 97.9779 134.894C98.4259 134.894 98.7479 134.749 98.9439 134.46C99.1492 134.161 99.2519 133.676 99.2519 133.004C99.2519 132.155 99.1445 131.548 98.9299 131.184C98.7245 130.811 98.3932 130.624 97.9359 130.624ZM109.829 133.13L109.871 134.306C109.871 134.465 109.89 134.577 109.927 134.642C109.974 134.698 110.053 134.726 110.165 134.726C110.268 134.726 110.394 134.707 110.543 134.67L110.669 134.782L110.515 135.762C110.198 135.958 109.852 136.075 109.479 136.112C109.19 136.084 108.947 135.986 108.751 135.818C108.555 135.65 108.42 135.421 108.345 135.132H108.233C107.776 135.552 107.309 135.874 106.833 136.098C105.918 136.098 105.209 135.809 104.705 135.23C104.201 134.642 103.949 133.83 103.949 132.794C103.949 131.693 104.238 130.848 104.817 130.26C105.396 129.672 106.198 129.378 107.225 129.378C107.496 129.378 107.794 129.406 108.121 129.462L108.093 126.312L109.941 126.172L109.829 133.13ZM107.099 130.638C106.166 130.638 105.699 131.231 105.699 132.416C105.699 133.153 105.811 133.709 106.035 134.082C106.259 134.455 106.586 134.642 107.015 134.642C107.426 134.642 107.804 134.451 108.149 134.068L108.177 133.298L108.135 130.89C107.771 130.722 107.426 130.638 107.099 130.638ZM114.468 129.364C115.42 129.364 116.148 129.644 116.652 130.204C117.156 130.764 117.408 131.571 117.408 132.626C117.408 133.765 117.137 134.637 116.596 135.244C116.055 135.841 115.275 136.14 114.258 136.14C113.306 136.14 112.578 135.86 112.074 135.3C111.57 134.74 111.318 133.933 111.318 132.878C111.318 131.739 111.589 130.871 112.13 130.274C112.671 129.667 113.451 129.364 114.468 129.364ZM114.342 130.624C113.894 130.624 113.567 130.773 113.362 131.072C113.166 131.371 113.068 131.851 113.068 132.514C113.068 133.373 113.171 133.984 113.376 134.348C113.581 134.712 113.917 134.894 114.384 134.894C114.832 134.894 115.154 134.749 115.35 134.46C115.555 134.161 115.658 133.676 115.658 133.004C115.658 132.155 115.551 131.548 115.336 131.184C115.131 130.811 114.799 130.624 114.342 130.624ZM126.235 133.13L126.277 134.306C126.277 134.465 126.296 134.577 126.333 134.642C126.38 134.698 126.459 134.726 126.571 134.726C126.674 134.726 126.8 134.707 126.949 134.67L127.075 134.782L126.921 135.762C126.604 135.958 126.259 136.075 125.885 136.112C125.596 136.084 125.353 135.986 125.157 135.818C124.961 135.65 124.826 135.421 124.751 135.132H124.639C124.182 135.552 123.715 135.874 123.239 136.098C122.325 136.098 121.615 135.809 121.111 135.23C120.607 134.642 120.355 133.83 120.355 132.794C120.355 131.693 120.645 130.848 121.223 130.26C121.802 129.672 122.605 129.378 123.631 129.378C123.902 129.378 124.201 129.406 124.527 129.462L124.499 126.312L126.347 126.172L126.235 133.13ZM123.505 130.638C122.572 130.638 122.105 131.231 122.105 132.416C122.105 133.153 122.217 133.709 122.441 134.082C122.665 134.455 122.992 134.642 123.421 134.642C123.832 134.642 124.21 134.451 124.555 134.068L124.583 133.298L124.541 130.89C124.177 130.722 123.832 130.638 123.505 130.638ZM128.298 133.312L128.228 129.616L130.062 129.462L129.978 133.13L130.062 136H128.2L128.298 133.312ZM129.18 126.298C129.47 126.298 129.694 126.382 129.852 126.55C130.02 126.718 130.104 126.951 130.104 127.25C130.104 127.567 130.016 127.819 129.838 128.006C129.661 128.193 129.418 128.286 129.11 128.286C128.802 128.286 128.564 128.202 128.396 128.034C128.238 127.866 128.158 127.628 128.158 127.32C128.158 127.012 128.247 126.765 128.424 126.578C128.611 126.391 128.863 126.298 129.18 126.298ZM134.385 129.364C135.103 129.364 135.663 129.527 136.065 129.854C136.475 130.171 136.681 130.619 136.681 131.198C136.681 131.366 136.653 131.898 136.597 132.794C136.587 133.055 136.573 133.326 136.555 133.606C136.536 133.877 136.527 134.11 136.527 134.306C136.527 134.465 136.55 134.577 136.597 134.642C136.643 134.698 136.727 134.726 136.849 134.726C136.942 134.726 137.063 134.707 137.213 134.67L137.353 134.782L137.185 135.762C136.886 135.958 136.545 136.075 136.163 136.112C135.883 136.084 135.649 135.986 135.463 135.818C135.276 135.641 135.15 135.398 135.085 135.09H134.987C134.52 135.585 134.039 135.93 133.545 136.126C132.873 136.117 132.345 135.939 131.963 135.594C131.58 135.249 131.389 134.777 131.389 134.18C131.389 133.713 131.505 133.349 131.739 133.088C131.981 132.817 132.345 132.635 132.831 132.542L134.973 132.136V131.562C134.973 130.955 134.674 130.652 134.077 130.652C133.787 130.652 133.479 130.717 133.153 130.848C132.835 130.979 132.476 131.184 132.075 131.464L131.935 131.38L131.725 130.148C132.126 129.896 132.555 129.705 133.013 129.574C133.47 129.434 133.927 129.364 134.385 129.364ZM133.475 133.396C133.325 133.433 133.213 133.499 133.139 133.592C133.073 133.676 133.041 133.807 133.041 133.984C133.041 134.227 133.106 134.418 133.237 134.558C133.367 134.689 133.549 134.754 133.783 134.754C134.147 134.754 134.529 134.539 134.931 134.11L134.959 133.074L133.475 133.396ZM139.347 134.11C139.636 134.11 139.86 134.194 140.019 134.362C140.187 134.53 140.271 134.763 140.271 135.062C140.271 135.379 140.182 135.631 140.005 135.818C139.828 136.005 139.585 136.098 139.277 136.098C138.969 136.098 138.731 136.014 138.563 135.846C138.404 135.678 138.325 135.44 138.325 135.132C138.325 134.824 138.414 134.577 138.591 134.39C138.778 134.203 139.03 134.11 139.347 134.11Z" fill="white"/>
<defs>
<filter id="filter0_b_206:37181" x="3" y="67" width="161" height="97" filterUnits="userSpaceOnUse" color-interpolation-filters="sRGB">
<feFlood flood-opacity="0" result="BackgroundImageFix"/>
<feGaussianBlur in="BackgroundImage" stdDeviation="5"/>
<feComposite in2="SourceAlpha" operator="in" result="effect1_backgroundBlur_206:37181"/>
<feBlend mode="normal" in="SourceGraphic" in2="effect1_backgroundBlur_206:37181" result="shape"/>
</filter>
<linearGradient id="paint0_linear_206:37181" x1="74.1652" y1="44.9839" x2="64.7436" y2="39.136" gradientUnits="userSpaceOnUse">
<stop offset="0.484375" stop-color="#676FC0"/>
<stop offset="0.510417" stop-color="#848CDE"/>
</linearGradient>
</defs>
</svg>
